<?xml version="1.0" encoding="utf-8" standalone="no"?>
<!DOCTYPE svg PUBLIC "-//W3C//DTD SVG 1.1//EN"
  "http://www.w3.org/Graphics/SVG/1.1/DTD/svg11.dtd">
<svg xmlns:xlink="http://www.w3.org/1999/xlink" width="660.992188pt" height="282.790125pt" viewBox="0 0 660.992188 282.790125" xmlns="http://www.w3.org/2000/svg" version="1.1">
 <metadata>
  <rdf:RDF xmlns:dc="http://purl.org/dc/elements/1.1/" xmlns:cc="http://creativecommons.org/ns#" xmlns:rdf="http://www.w3.org/1999/02/22-rdf-syntax-ns#">
   <cc:Work>
    <dc:type rdf:resource="http://purl.org/dc/dcmitype/StillImage"/>
    <dc:date>2023-03-06T19:25:41.606112</dc:date>
    <dc:format>image/svg+xml</dc:format>
    <dc:creator>
     <cc:Agent>
      <dc:title>Matplotlib v3.6.3, https://matplotlib.org/</dc:title>
     </cc:Agent>
    </dc:creator>
   </cc:Work>
  </rdf:RDF>
 </metadata>
 <defs>
  <style type="text/css">*{stroke-linejoin: round; stroke-linecap: butt}</style>
 </defs>
 <g id="figure_1">
  <g id="patch_1">
   <path d="M -0 282.790125 
L 660.992188 282.790125 
L 660.992188 0 
L -0 0 
L -0 282.790125 
z
" style="fill: none"/>
  </g>
  <g id="axes_1">
   <g id="patch_2">
    <path d="M 47.192188 266.112 
L 660.992188 266.112 
L 660.992188 0 
L 47.192188 0 
L 47.192188 266.112 
z
" style="fill: none"/>
   </g>
   <g id="matplotlib.axis_1">
    <g id="xtick_1">
     <g id="line2d_1">
      <defs>
       <path id="m079492bca3" d="M 0 0 
L 0 3.5 
" style="stroke: #000000; stroke-width: 0.8"/>
      </defs>
      <g>
       <use xlink:href="#m079492bca3" x="75.092188" y="266.112" style="stroke: #000000; stroke-width: 0.8"/>
      </g>
     </g>
     <g id="text_1">
      <!-- 0 -->
      <g transform="translate(71.910938 280.710438) scale(0.1 -0.1)">
       <defs>
        <path id="DejaVuSans-30" d="M 2034 4250 
Q 1547 4250 1301 3770 
Q 1056 3291 1056 2328 
Q 1056 1369 1301 889 
Q 1547 409 2034 409 
Q 2525 409 2770 889 
Q 3016 1369 3016 2328 
Q 3016 3291 2770 3770 
Q 2525 4250 2034 4250 
z
M 2034 4750 
Q 2819 4750 3233 4129 
Q 3647 3509 3647 2328 
Q 3647 1150 3233 529 
Q 2819 -91 2034 -91 
Q 1250 -91 836 529 
Q 422 1150 422 2328 
Q 422 3509 836 4129 
Q 1250 4750 2034 4750 
z
" transform="scale(0.015625)"/>
       </defs>
       <use xlink:href="#DejaVuSans-30"/>
      </g>
     </g>
    </g>
    <g id="xtick_2">
     <g id="line2d_2">
      <g>
       <use xlink:href="#m079492bca3" x="144.842188" y="266.112" style="stroke: #000000; stroke-width: 0.8"/>
      </g>
     </g>
     <g id="text_2">
      <!-- 500 -->
      <g transform="translate(135.298438 280.710438) scale(0.1 -0.1)">
       <defs>
        <path id="DejaVuSans-35" d="M 691 4666 
L 3169 4666 
L 3169 4134 
L 1269 4134 
L 1269 2991 
Q 1406 3038 1543 3061 
Q 1681 3084 1819 3084 
Q 2600 3084 3056 2656 
Q 3513 2228 3513 1497 
Q 3513 744 3044 326 
Q 2575 -91 1722 -91 
Q 1428 -91 1123 -41 
Q 819 9 494 109 
L 494 744 
Q 775 591 1075 516 
Q 1375 441 1709 441 
Q 2250 441 2565 725 
Q 2881 1009 2881 1497 
Q 2881 1984 2565 2268 
Q 2250 2553 1709 2553 
Q 1456 2553 1204 2497 
Q 953 2441 691 2322 
L 691 4666 
z
" transform="scale(0.015625)"/>
       </defs>
       <use xlink:href="#DejaVuSans-35"/>
       <use xlink:href="#DejaVuSans-30" x="63.623047"/>
       <use xlink:href="#DejaVuSans-30" x="127.246094"/>
      </g>
     </g>
    </g>
    <g id="xtick_3">
     <g id="line2d_3">
      <g>
       <use xlink:href="#m079492bca3" x="214.592188" y="266.112" style="stroke: #000000; stroke-width: 0.8"/>
      </g>
     </g>
     <g id="text_3">
      <!-- 1000 -->
      <g transform="translate(201.867188 280.710438) scale(0.1 -0.1)">
       <defs>
        <path id="DejaVuSans-31" d="M 794 531 
L 1825 531 
L 1825 4091 
L 703 3866 
L 703 4441 
L 1819 4666 
L 2450 4666 
L 2450 531 
L 3481 531 
L 3481 0 
L 794 0 
L 794 531 
z
" transform="scale(0.015625)"/>
       </defs>
       <use xlink:href="#DejaVuSans-31"/>
       <use xlink:href="#DejaVuSans-30" x="63.623047"/>
       <use xlink:href="#DejaVuSans-30" x="127.246094"/>
       <use xlink:href="#DejaVuSans-30" x="190.869141"/>
      </g>
     </g>
    </g>
    <g id="xtick_4">
     <g id="line2d_4">
      <g>
       <use xlink:href="#m079492bca3" x="284.342188" y="266.112" style="stroke: #000000; stroke-width: 0.8"/>
      </g>
     </g>
     <g id="text_4">
      <!-- 1500 -->
      <g transform="translate(271.617188 280.710438) scale(0.1 -0.1)">
       <use xlink:href="#DejaVuSans-31"/>
       <use xlink:href="#DejaVuSans-35" x="63.623047"/>
       <use xlink:href="#DejaVuSans-30" x="127.246094"/>
       <use xlink:href="#DejaVuSans-30" x="190.869141"/>
      </g>
     </g>
    </g>
    <g id="xtick_5">
     <g id="line2d_5">
      <g>
       <use xlink:href="#m079492bca3" x="354.092188" y="266.112" style="stroke: #000000; stroke-width: 0.8"/>
      </g>
     </g>
     <g id="text_5">
      <!-- 2000 -->
      <g transform="translate(341.367188 280.710438) scale(0.1 -0.1)">
       <defs>
        <path id="DejaVuSans-32" d="M 1228 531 
L 3431 531 
L 3431 0 
L 469 0 
L 469 531 
Q 828 903 1448 1529 
Q 2069 2156 2228 2338 
Q 2531 2678 2651 2914 
Q 2772 3150 2772 3378 
Q 2772 3750 2511 3984 
Q 2250 4219 1831 4219 
Q 1534 4219 1204 4116 
Q 875 4013 500 3803 
L 500 4441 
Q 881 4594 1212 4672 
Q 1544 4750 1819 4750 
Q 2544 4750 2975 4387 
Q 3406 4025 3406 3419 
Q 3406 3131 3298 2873 
Q 3191 2616 2906 2266 
Q 2828 2175 2409 1742 
Q 1991 1309 1228 531 
z
" transform="scale(0.015625)"/>
       </defs>
       <use xlink:href="#DejaVuSans-32"/>
       <use xlink:href="#DejaVuSans-30" x="63.623047"/>
       <use xlink:href="#DejaVuSans-30" x="127.246094"/>
       <use xlink:href="#DejaVuSans-30" x="190.869141"/>
      </g>
     </g>
    </g>
    <g id="xtick_6">
     <g id="line2d_6">
      <g>
       <use xlink:href="#m079492bca3" x="423.842188" y="266.112" style="stroke: #000000; stroke-width: 0.8"/>
      </g>
     </g>
     <g id="text_6">
      <!-- 2500 -->
      <g transform="translate(411.117188 280.710438) scale(0.1 -0.1)">
       <use xlink:href="#DejaVuSans-32"/>
       <use xlink:href="#DejaVuSans-35" x="63.623047"/>
       <use xlink:href="#DejaVuSans-30" x="127.246094"/>
       <use xlink:href="#DejaVuSans-30" x="190.869141"/>
      </g>
     </g>
    </g>
    <g id="xtick_7">
     <g id="line2d_7">
      <g>
       <use xlink:href="#m079492bca3" x="493.592188" y="266.112" style="stroke: #000000; stroke-width: 0.8"/>
      </g>
     </g>
     <g id="text_7">
      <!-- 3000 -->
      <g transform="translate(480.867188 280.710438) scale(0.1 -0.1)">
       <defs>
        <path id="DejaVuSans-33" d="M 2597 2516 
Q 3050 2419 3304 2112 
Q 3559 1806 3559 1356 
Q 3559 666 3084 287 
Q 2609 -91 1734 -91 
Q 1441 -91 1130 -33 
Q 819 25 488 141 
L 488 750 
Q 750 597 1062 519 
Q 1375 441 1716 441 
Q 2309 441 2620 675 
Q 2931 909 2931 1356 
Q 2931 1769 2642 2001 
Q 2353 2234 1838 2234 
L 1294 2234 
L 1294 2753 
L 1863 2753 
Q 2328 2753 2575 2939 
Q 2822 3125 2822 3475 
Q 2822 3834 2567 4026 
Q 2313 4219 1838 4219 
Q 1578 4219 1281 4162 
Q 984 4106 628 3988 
L 628 4550 
Q 988 4650 1302 4700 
Q 1616 4750 1894 4750 
Q 2613 4750 3031 4423 
Q 3450 4097 3450 3541 
Q 3450 3153 3228 2886 
Q 3006 2619 2597 2516 
z
" transform="scale(0.015625)"/>
       </defs>
       <use xlink:href="#DejaVuSans-33"/>
       <use xlink:href="#DejaVuSans-30" x="63.623047"/>
       <use xlink:href="#DejaVuSans-30" x="127.246094"/>
       <use xlink:href="#DejaVuSans-30" x="190.869141"/>
      </g>
     </g>
    </g>
    <g id="xtick_8">
     <g id="line2d_8">
      <g>
       <use xlink:href="#m079492bca3" x="563.342188" y="266.112" style="stroke: #000000; stroke-width: 0.8"/>
      </g>
     </g>
     <g id="text_8">
      <!-- 3500 -->
      <g transform="translate(550.617188 280.710438) scale(0.1 -0.1)">
       <use xlink:href="#DejaVuSans-33"/>
       <use xlink:href="#DejaVuSans-35" x="63.623047"/>
       <use xlink:href="#DejaVuSans-30" x="127.246094"/>
       <use xlink:href="#DejaVuSans-30" x="190.869141"/>
      </g>
     </g>
    </g>
    <g id="xtick_9">
     <g id="line2d_9">
      <g>
       <use xlink:href="#m079492bca3" x="633.092188" y="266.112" style="stroke: #000000; stroke-width: 0.8"/>
      </g>
     </g>
     <g id="text_9">
      <!-- 4000 -->
      <g transform="translate(620.367188 280.710438) scale(0.1 -0.1)">
       <defs>
        <path id="DejaVuSans-34" d="M 2419 4116 
L 825 1625 
L 2419 1625 
L 2419 4116 
z
M 2253 4666 
L 3047 4666 
L 3047 1625 
L 3713 1625 
L 3713 1100 
L 3047 1100 
L 3047 0 
L 2419 0 
L 2419 1100 
L 313 1100 
L 313 1709 
L 2253 4666 
z
" transform="scale(0.015625)"/>
       </defs>
       <use xlink:href="#DejaVuSans-34"/>
       <use xlink:href="#DejaVuSans-30" x="63.623047"/>
       <use xlink:href="#DejaVuSans-30" x="127.246094"/>
       <use xlink:href="#DejaVuSans-30" x="190.869141"/>
      </g>
     </g>
    </g>
   </g>
   <g id="matplotlib.axis_2">
    <g id="ytick_1">
     <g id="line2d_10">
      <defs>
       <path id="m0933c2a17b" d="M 0 0 
L -3.5 0 
" style="stroke: #000000; stroke-width: 0.8"/>
      </defs>
      <g>
       <use xlink:href="#m0933c2a17b" x="47.192188" y="259.616278" style="stroke: #000000; stroke-width: 0.8"/>
      </g>
     </g>
     <g id="text_10">
      <!-- −30000 -->
      <g transform="translate(0 263.415497) scale(0.1 -0.1)">
       <defs>
        <path id="DejaVuSans-2212" d="M 678 2272 
L 4684 2272 
L 4684 1741 
L 678 1741 
L 678 2272 
z
" transform="scale(0.015625)"/>
       </defs>
       <use xlink:href="#DejaVuSans-2212"/>
       <use xlink:href="#DejaVuSans-33" x="83.789062"/>
       <use xlink:href="#DejaVuSans-30" x="147.412109"/>
       <use xlink:href="#DejaVuSans-30" x="211.035156"/>
       <use xlink:href="#DejaVuSans-30" x="274.658203"/>
       <use xlink:href="#DejaVuSans-30" x="338.28125"/>
      </g>
     </g>
    </g>
    <g id="ytick_2">
     <g id="line2d_11">
      <g>
       <use xlink:href="#m0933c2a17b" x="47.192188" y="220.451225" style="stroke: #000000; stroke-width: 0.8"/>
      </g>
     </g>
     <g id="text_11">
      <!-- −20000 -->
      <g transform="translate(0 224.250444) scale(0.1 -0.1)">
       <use xlink:href="#DejaVuSans-2212"/>
       <use xlink:href="#DejaVuSans-32" x="83.789062"/>
       <use xlink:href="#DejaVuSans-30" x="147.412109"/>
       <use xlink:href="#DejaVuSans-30" x="211.035156"/>
       <use xlink:href="#DejaVuSans-30" x="274.658203"/>
       <use xlink:href="#DejaVuSans-30" x="338.28125"/>
      </g>
     </g>
    </g>
    <g id="ytick_3">
     <g id="line2d_12">
      <g>
       <use xlink:href="#m0933c2a17b" x="47.192188" y="181.286172" style="stroke: #000000; stroke-width: 0.8"/>
      </g>
     </g>
     <g id="text_12">
      <!-- −10000 -->
      <g transform="translate(0 185.08539) scale(0.1 -0.1)">
       <use xlink:href="#DejaVuSans-2212"/>
       <use xlink:href="#DejaVuSans-31" x="83.789062"/>
       <use xlink:href="#DejaVuSans-30" x="147.412109"/>
       <use xlink:href="#DejaVuSans-30" x="211.035156"/>
       <use xlink:href="#DejaVuSans-30" x="274.658203"/>
       <use xlink:href="#DejaVuSans-30" x="338.28125"/>
      </g>
     </g>
    </g>
    <g id="ytick_4">
     <g id="line2d_13">
      <g>
       <use xlink:href="#m0933c2a17b" x="47.192188" y="142.121118" style="stroke: #000000; stroke-width: 0.8"/>
      </g>
     </g>
     <g id="text_13">
      <!-- 0 -->
      <g transform="translate(33.829688 145.920337) scale(0.1 -0.1)">
       <use xlink:href="#DejaVuSans-30"/>
      </g>
     </g>
    </g>
    <g id="ytick_5">
     <g id="line2d_14">
      <g>
       <use xlink:href="#m0933c2a17b" x="47.192188" y="102.956065" style="stroke: #000000; stroke-width: 0.8"/>
      </g>
     </g>
     <g id="text_14">
      <!-- 10000 -->
      <g transform="translate(8.379688 106.755284) scale(0.1 -0.1)">
       <use xlink:href="#DejaVuSans-31"/>
       <use xlink:href="#DejaVuSans-30" x="63.623047"/>
       <use xlink:href="#DejaVuSans-30" x="127.246094"/>
       <use xlink:href="#DejaVuSans-30" x="190.869141"/>
       <use xlink:href="#DejaVuSans-30" x="254.492188"/>
      </g>
     </g>
    </g>
    <g id="ytick_6">
     <g id="line2d_15">
      <g>
       <use xlink:href="#m0933c2a17b" x="47.192188" y="63.791012" style="stroke: #000000; stroke-width: 0.8"/>
      </g>
     </g>
     <g id="text_15">
      <!-- 20000 -->
      <g transform="translate(8.379688 67.590231) scale(0.1 -0.1)">
       <use xlink:href="#DejaVuSans-32"/>
       <use xlink:href="#DejaVuSans-30" x="63.623047"/>
       <use xlink:href="#DejaVuSans-30" x="127.246094"/>
       <use xlink:href="#DejaVuSans-30" x="190.869141"/>
       <use xlink:href="#DejaVuSans-30" x="254.492188"/>
      </g>
     </g>
    </g>
    <g id="ytick_7">
     <g id="line2d_16">
      <g>
       <use xlink:href="#m0933c2a17b" x="47.192188" y="24.625959" style="stroke: #000000; stroke-width: 0.8"/>
      </g>
     </g>
     <g id="text_16">
      <!-- 30000 -->
      <g transform="translate(8.379688 28.425178) scale(0.1 -0.1)">
       <use xlink:href="#DejaVuSans-33"/>
       <use xlink:href="#DejaVuSans-30" x="63.623047"/>
       <use xlink:href="#DejaVuSans-30" x="127.246094"/>
       <use xlink:href="#DejaVuSans-30" x="190.869141"/>
       <use xlink:href="#DejaVuSans-30" x="254.492188"/>
      </g>
     </g>
    </g>
   </g>
   <g id="line2d_17">
    <path d="M 75.092188 142.136782 
L 75.938069 142.106702 
L 76.783951 142.134749 
L 78.193754 142.108065 
L 79.603557 142.134332 
L 81.01336 142.107018 
L 81.859242 142.136172 
L 82.705123 142.104689 
L 83.551005 142.139514 
L 84.396887 142.099867 
L 85.242769 142.146707 
L 86.08865 142.088405 
L 86.370611 142.157304 
L 86.652572 142.08057 
L 86.934532 142.1673 
L 87.216493 142.067403 
L 87.498453 142.185395 
L 87.780414 142.041029 
L 88.062374 142.227319 
L 88.344335 141.964259 
L 88.626296 142.412949 
L 89.190217 138.399968 
L 89.754138 140.624811 
L 91.727862 145.389201 
L 92.009823 145.54766 
L 92.573744 146.018978 
L 93.137665 145.04597 
L 93.419626 145.850236 
L 93.701586 147.073662 
L 93.983547 146.918195 
L 94.265507 145.807373 
L 94.547468 145.974027 
L 94.829429 146.920242 
L 95.111389 147.019774 
L 95.39335 146.766156 
L 96.239231 149.231117 
L 96.521192 149.915607 
L 96.803153 151.171388 
L 97.085113 151.138222 
L 97.367074 150.31636 
L 97.649034 151.208806 
L 97.930995 153.566703 
L 98.212956 154.43007 
L 98.494916 153.8462 
L 98.776877 153.929713 
L 99.058837 154.670377 
L 99.340798 154.806613 
L 99.622758 155.425491 
L 100.18668 159.777166 
L 101.032561 162.52051 
L 101.596483 166.359148 
L 101.878443 168.322808 
L 102.160404 166.304178 
L 102.442364 156.869323 
L 103.288246 112.185213 
L 103.852167 94.936323 
L 104.134128 94.385524 
L 104.416088 99.481317 
L 105.543931 127.802547 
L 105.825891 130.803827 
L 106.107852 130.859249 
L 106.671773 129.675131 
L 106.953734 129.318226 
L 107.235694 130.691684 
L 108.081576 142.064856 
L 108.363537 143.665764 
L 108.645497 144.099793 
L 108.927458 143.135724 
L 109.77334 138.174628 
L 110.337261 136.098447 
L 111.183143 133.326849 
L 111.465103 133.714985 
L 112.029024 135.575541 
L 112.592945 138.98114 
L 113.156867 142.237452 
L 113.438827 142.901829 
L 113.720788 142.705452 
L 114.002748 142.785029 
L 114.56667 144.633449 
L 115.130591 144.407515 
L 115.412551 144.830644 
L 115.694512 144.826337 
L 116.258433 143.398097 
L 116.822354 141.485279 
L 117.104315 141.820516 
L 118.232157 146.336675 
L 118.514118 146.72011 
L 118.796078 146.264227 
L 119.078039 146.668948 
L 119.64196 150.068675 
L 119.923921 151.130142 
L 120.769802 156.033958 
L 121.051763 155.913435 
L 121.333724 156.46745 
L 121.897645 160.518651 
L 122.179605 161.15494 
L 122.461566 162.166011 
L 123.307448 170.539575 
L 123.589408 169.158885 
L 123.871369 162.544821 
L 124.43529 132.209774 
L 124.999211 101.829993 
L 125.281172 92.866506 
L 125.563132 90.220514 
L 125.845093 93.72506 
L 127.254896 126.137401 
L 127.536857 127.336603 
L 127.818817 127.553883 
L 128.382738 131.789751 
L 128.664699 132.26086 
L 128.946659 132.99724 
L 129.792541 145.316053 
L 130.356462 141.802157 
L 130.638423 141.923325 
L 131.202344 143.745916 
L 131.484305 142.88948 
L 132.048226 134.042623 
L 132.330186 132.446599 
L 132.612147 132.269929 
L 132.894108 130.958443 
L 133.176068 131.215689 
L 134.02195 143.111935 
L 134.303911 144.362371 
L 134.585871 144.933235 
L 134.867832 144.627837 
L 135.149792 146.070069 
L 135.431753 150.127578 
L 135.713714 152.52355 
L 135.995674 151.519855 
L 136.277635 151.475256 
L 136.559595 153.35401 
L 136.841556 152.358201 
L 137.405477 143.973461 
L 137.687438 143.460949 
L 138.251359 144.769097 
L 138.533319 145.87422 
L 138.81528 146.136379 
L 139.097241 145.618103 
L 139.379201 145.951667 
L 139.661162 147.137778 
L 139.943122 147.77718 
L 140.225083 148.129134 
L 140.789004 149.998668 
L 141.352925 150.197207 
L 141.634886 151.325021 
L 142.480768 156.500753 
L 143.044689 162.370657 
L 143.326649 163.909611 
L 143.890571 165.372139 
L 144.454492 167.022965 
L 144.736452 169.575024 
L 145.300373 176.11647 
L 145.582334 175.723218 
L 145.864295 171.758282 
L 146.146255 161.701322 
L 147.274098 98.700796 
L 147.556058 92.724836 
L 147.838019 89.841422 
L 148.119979 90.594879 
L 148.40194 95.754888 
L 148.965861 110.4985 
L 149.811743 124.500988 
L 150.093703 125.594738 
L 150.375664 123.843036 
L 150.657625 122.931599 
L 150.939585 123.556892 
L 151.221546 124.958662 
L 151.503506 129.286196 
L 152.067428 143.668075 
L 152.349388 146.26073 
L 152.913309 149.238689 
L 153.19527 148.880469 
L 153.759191 143.061555 
L 154.041152 142.278386 
L 154.323112 141.093668 
L 154.887033 135.428264 
L 155.168994 135.59356 
L 155.450955 137.453838 
L 155.732915 138.361692 
L 156.014876 138.45609 
L 156.578797 139.987504 
L 157.142718 135.486539 
L 157.424679 135.546699 
L 157.706639 137.096076 
L 157.9886 137.665984 
L 158.27056 139.170817 
L 158.834482 147.944025 
L 159.116442 149.164024 
L 159.398403 148.69285 
L 159.962324 148.202367 
L 160.244285 148.161326 
L 160.808206 149.757765 
L 161.090166 149.731623 
L 161.372127 149.475176 
L 161.654087 148.705535 
L 161.936048 147.524887 
L 162.218009 148.542389 
L 162.78193 155.346327 
L 163.06389 155.180875 
L 163.345851 154.482905 
L 163.627812 155.006441 
L 164.191733 157.081427 
L 164.473693 158.729982 
L 165.037614 160.308497 
L 165.601536 164.63742 
L 165.883496 161.776319 
L 166.165457 157.463805 
L 166.447417 157.502715 
L 166.729378 160.535621 
L 167.293299 163.750353 
L 167.85722 173.137232 
L 168.139181 170.699688 
L 168.421142 160.105731 
L 169.548984 98.359267 
L 169.830944 91.290567 
L 170.112905 88.888938 
L 170.394866 92.034842 
L 171.522708 123.58337 
L 171.804669 127.984352 
L 172.086629 129.690404 
L 172.36859 128.641383 
L 172.932511 124.130296 
L 173.214471 125.794095 
L 174.060353 142.521598 
L 174.342314 144.940786 
L 174.624274 145.26886 
L 174.906235 142.210483 
L 175.188196 137.444636 
L 175.470156 134.830805 
L 175.752117 134.221722 
L 176.316038 131.455582 
L 176.597999 134.187778 
L 176.879959 138.754152 
L 177.16192 140.431827 
L 177.44388 139.963604 
L 177.725841 140.689826 
L 178.007801 142.026151 
L 178.289762 142.001081 
L 178.571723 141.736044 
L 179.135644 143.221361 
L 179.417604 143.322793 
L 179.981526 143.962219 
L 180.263486 143.786122 
L 181.109368 141.429294 
L 181.391328 141.722996 
L 181.673289 142.232768 
L 181.95525 141.908764 
L 182.23721 141.815425 
L 182.801131 145.24264 
L 183.083092 145.207073 
L 183.365053 144.787663 
L 183.647013 146.225544 
L 184.210934 150.156136 
L 184.774856 151.200177 
L 185.056816 151.644256 
L 185.338777 152.719665 
L 185.902698 156.182302 
L 186.466619 158.628945 
L 187.312501 163.609639 
L 188.158383 170.658611 
L 188.722304 176.474797 
L 189.004264 177.034361 
L 189.286225 173.388159 
L 189.568185 163.533638 
L 190.977988 85.680104 
L 191.259949 78.569602 
L 191.54191 79.683062 
L 192.951713 119.538079 
L 193.233673 121.872669 
L 193.515634 122.026021 
L 193.797594 123.865637 
L 194.361515 129.65718 
L 194.643476 134.737329 
L 195.207397 148.160042 
L 195.489358 150.02327 
L 196.053279 150.700229 
L 196.33524 149.595762 
L 196.6172 147.237636 
L 196.899161 146.020389 
L 197.181121 146.084868 
L 197.463082 145.185336 
L 197.745042 143.558908 
L 198.027003 144.028902 
L 198.590924 149.877561 
L 198.872885 150.39253 
L 199.154845 150.176473 
L 199.718767 151.566573 
L 200.000727 149.793132 
L 200.282688 146.396003 
L 200.564648 144.919111 
L 201.12857 147.710564 
L 201.692491 144.988782 
L 201.974451 147.367694 
L 202.256412 150.884053 
L 202.538372 151.988658 
L 202.820333 151.984658 
L 203.102294 152.620411 
L 203.384254 151.730605 
L 203.948175 146.210198 
L 204.512097 147.760743 
L 204.794057 146.121349 
L 205.076018 145.402513 
L 205.357978 148.18359 
L 205.639939 152.379207 
L 205.921899 154.903679 
L 206.20386 155.626827 
L 206.485821 155.936282 
L 207.049742 157.027989 
L 207.331702 157.94935 
L 207.895624 160.956652 
L 208.459545 162.65805 
L 208.741505 165.236688 
L 209.587387 177.064731 
L 210.433269 184.153471 
L 210.715229 180.254498 
L 210.99719 169.077069 
L 212.406993 87.752844 
L 212.688954 77.80476 
L 212.970914 74.905206 
L 213.252875 80.154339 
L 214.098756 102.242522 
L 214.662678 116.03267 
L 214.944638 118.424525 
L 215.226599 117.73539 
L 215.508559 116.641133 
L 215.79052 117.113088 
L 216.072481 120.151262 
L 216.636402 133.422287 
L 217.200323 146.933091 
L 217.482284 149.396198 
L 217.764244 150.425573 
L 218.328165 155.018014 
L 218.610126 153.948084 
L 218.892086 151.432713 
L 219.174047 151.163517 
L 219.456008 151.426015 
L 220.019929 146.98702 
L 220.301889 147.609737 
L 220.58385 148.79869 
L 220.865811 148.727183 
L 221.429732 149.947964 
L 221.711692 147.54684 
L 221.993653 143.700822 
L 222.275613 142.593216 
L 222.557574 142.978956 
L 223.121495 140.477737 
L 223.685416 145.701018 
L 223.967377 145.901818 
L 224.249338 144.778283 
L 224.531298 144.293936 
L 224.813259 144.051565 
L 225.095219 144.488803 
L 225.659141 149.082519 
L 225.941101 149.14979 
L 226.223062 148.154775 
L 226.505022 148.175252 
L 226.786983 148.399265 
L 227.068943 147.884959 
L 227.350904 147.745289 
L 227.914825 149.67365 
L 228.196786 150.935418 
L 228.760707 154.080379 
L 229.042668 154.667381 
L 229.324628 155.749519 
L 229.606589 157.379061 
L 230.17051 159.101238 
L 231.016392 163.910533 
L 231.580313 165.919151 
L 231.862273 165.854269 
L 232.144234 167.240623 
L 232.990116 182.791362 
L 233.272076 181.172272 
L 233.554037 174.484149 
L 234.117958 142.183737 
L 234.96384 93.37665 
L 235.2458 83.204401 
L 235.527761 80.613492 
L 235.809722 83.65728 
L 236.091682 88.803311 
L 236.655603 106.286837 
L 236.937564 115.234737 
L 237.219525 120.159488 
L 237.783446 123.515038 
L 238.347367 125.184494 
L 238.629327 127.086717 
L 239.193249 137.558357 
L 239.475209 142.34847 
L 240.03913 147.007017 
L 240.321091 148.321345 
L 240.603052 147.740678 
L 241.730894 138.516116 
L 242.012855 137.581365 
L 242.294815 138.16958 
L 242.576776 139.048535 
L 242.858736 139.372111 
L 243.422657 139.073167 
L 243.704618 139.385933 
L 244.5505 143.260023 
L 244.83246 143.607077 
L 245.396382 143.871608 
L 245.960303 145.547824 
L 246.242263 144.65747 
L 246.524224 142.492928 
L 246.806184 141.782918 
L 247.088145 142.951012 
L 247.370106 143.589724 
L 247.934027 142.216078 
L 248.215987 143.068095 
L 249.62579 153.339822 
L 249.907751 156.557247 
L 250.189712 157.796546 
L 250.753633 152.992985 
L 251.035593 154.084753 
L 251.599514 158.982786 
L 251.881475 161.424117 
L 252.445396 173.53994 
L 252.727357 175.874079 
L 253.009317 176.208289 
L 253.291278 179.022316 
L 253.573239 183.045586 
L 253.855199 183.729203 
L 254.13716 180.107629 
L 254.41912 172.844087 
L 254.701081 160.666086 
L 256.110884 78.829809 
L 256.392844 73.339556 
L 256.674805 74.122158 
L 256.956766 79.867744 
L 258.084608 113.41766 
L 258.366569 117.344841 
L 258.648529 119.187258 
L 259.21245 121.27805 
L 259.494411 122.971745 
L 259.776371 126.668613 
L 260.340293 140.361624 
L 260.622253 142.311646 
L 260.904214 142.083741 
L 261.468135 147.944266 
L 261.750096 146.834449 
L 262.032056 143.260638 
L 262.314017 141.865968 
L 262.595977 142.075488 
L 262.877938 141.482894 
L 263.159898 141.183005 
L 264.287741 145.560846 
L 264.569701 148.060142 
L 265.133623 155.577482 
L 265.415583 156.163841 
L 265.697544 154.58252 
L 266.261465 152.846737 
L 266.825386 146.054225 
L 267.107347 146.569017 
L 267.389307 149.146297 
L 267.671268 149.820399 
L 267.953228 149.331326 
L 268.51715 150.692445 
L 268.79911 150.776891 
L 269.081071 151.578883 
L 269.644992 155.176209 
L 270.490874 158.695262 
L 271.054795 160.19278 
L 271.618716 162.366946 
L 273.31048 174.280004 
L 275.002243 197.818811 
L 275.284204 198.853657 
L 275.566164 193.634324 
L 275.848125 179.057945 
L 276.694007 120.254015 
L 277.539888 70.621376 
L 277.821849 63.220996 
L 278.10381 60.173948 
L 278.38577 60.619041 
L 278.667731 65.727811 
L 279.231652 79.046191 
L 280.077534 93.842429 
L 280.641455 105.14912 
L 281.205376 125.953396 
L 281.769297 148.729629 
L 282.051258 154.386958 
L 282.333218 156.803846 
L 282.615179 157.926277 
L 282.897139 157.781172 
L 283.461061 153.947304 
L 284.588903 144.892413 
L 285.716745 146.809161 
L 285.998706 148.291667 
L 286.562627 155.24643 
L 286.844588 156.670272 
L 287.126548 156.065475 
L 287.408509 156.04811 
L 287.690469 156.726996 
L 287.97243 155.72182 
L 288.254391 152.998567 
L 288.536351 151.370003 
L 288.818312 151.783772 
L 289.100272 152.454691 
L 289.946154 152.173378 
L 290.510075 150.349354 
L 290.792036 150.834689 
L 291.355957 153.888197 
L 291.919878 153.712656 
L 292.76576 157.514669 
L 293.329681 158.265766 
L 293.611642 158.831074 
L 293.893602 159.909047 
L 294.739484 165.668994 
L 295.021445 169.42239 
L 295.585366 181.737801 
L 296.149287 186.681602 
L 296.713208 196.161167 
L 296.995169 197.692234 
L 297.277129 193.22301 
L 297.55909 181.390152 
L 298.404972 117.974012 
L 298.968893 82.95084 
L 299.532814 62.469463 
L 299.814775 58.89672 
L 300.096735 59.090502 
L 300.378696 61.963375 
L 300.660656 67.866834 
L 301.506538 90.582618 
L 302.634381 115.358392 
L 303.480262 150.17701 
L 304.044183 155.08538 
L 304.326144 156.630672 
L 304.608105 155.221561 
L 305.735947 142.361348 
L 306.017908 142.761322 
L 306.581829 148.804933 
L 307.14575 147.730612 
L 307.709671 150.237332 
L 307.991632 148.672536 
L 308.273592 146.334289 
L 308.555553 146.248824 
L 308.837513 146.841431 
L 309.401435 143.954354 
L 309.965356 149.624772 
L 310.247316 149.939377 
L 310.529277 149.23331 
L 310.811238 149.890217 
L 311.093198 150.234067 
L 311.375159 150.252033 
L 311.657119 152.888433 
L 311.93908 156.741335 
L 312.22104 157.691754 
L 312.503001 157.097261 
L 313.066922 159.970305 
L 313.630843 155.709087 
L 313.912804 156.994 
L 314.194765 159.486624 
L 314.476725 159.923885 
L 314.758686 159.888565 
L 315.040646 161.957937 
L 315.604567 167.524095 
L 316.168489 170.697283 
L 316.73241 176.590153 
L 318.142213 191.078956 
L 318.424173 189.223292 
L 318.706134 178.677556 
L 319.552016 121.362322 
L 320.397897 62.757554 
L 320.679858 55.420867 
L 320.961819 51.934168 
L 321.243779 50.398026 
L 321.52574 51.791589 
L 322.089661 60.295569 
L 323.217503 88.739924 
L 323.499464 99.913881 
L 324.063385 130.548284 
L 324.627306 147.479007 
L 324.909267 152.528517 
L 325.191227 155.452081 
L 325.473188 156.154782 
L 325.755149 154.971474 
L 326.037109 152.808156 
L 326.31907 151.581224 
L 326.60103 151.770633 
L 326.882991 151.638315 
L 327.164952 150.627154 
L 327.446912 150.351789 
L 327.728873 150.876922 
L 328.010833 150.867713 
L 328.292794 151.070618 
L 328.856715 155.149149 
L 329.138676 155.742128 
L 329.420636 155.844307 
L 329.702597 156.596487 
L 329.984557 156.674694 
L 330.266518 155.938793 
L 330.548479 156.14319 
L 330.830439 156.570356 
L 331.1124 154.506837 
L 331.39436 150.875953 
L 331.676321 149.146232 
L 331.958281 149.425243 
L 332.240242 149.203363 
L 332.522203 148.475579 
L 332.804163 148.724594 
L 333.086124 149.510882 
L 333.368084 149.889592 
L 333.650045 150.776391 
L 334.213966 155.728066 
L 334.777887 162.815755 
L 335.341809 170.471338 
L 336.469651 181.574516 
L 337.315533 193.501714 
L 337.879454 199.41759 
L 339.007296 221.669623 
L 339.289257 222.534629 
L 339.571217 217.238711 
L 339.853178 204.448381 
L 340.417099 158.132192 
L 341.262981 79.898081 
L 341.826902 45.92179 
L 342.108863 37.697945 
L 342.390823 35.14483 
L 342.672784 35.40424 
L 342.954744 36.890931 
L 344.364547 49.969595 
L 344.646508 55.87895 
L 344.928468 65.373516 
L 345.49239 94.793381 
L 346.338271 142.419329 
L 346.902193 162.137227 
L 347.184153 167.302874 
L 347.466114 169.1455 
L 347.748074 168.644875 
L 348.030035 166.897986 
L 348.875917 160.290048 
L 349.157877 159.240273 
L 350.003759 153.523911 
L 350.28572 153.724175 
L 350.56768 153.444785 
L 350.849641 153.330386 
L 351.413562 155.284605 
L 351.695523 154.556435 
L 352.259444 152.55587 
L 352.541404 151.969142 
L 352.823365 153.32891 
L 353.387286 159.0261 
L 353.669247 158.957907 
L 353.951207 159.875444 
L 354.233168 162.172993 
L 354.515128 162.235032 
L 354.797089 159.858158 
L 355.07905 158.594129 
L 355.36101 159.102406 
L 355.642971 159.974759 
L 356.206892 163.289257 
L 356.488852 162.978385 
L 356.770813 161.930873 
L 357.052774 163.989693 
L 357.616695 171.232228 
L 357.898655 173.242836 
L 358.180616 178.039249 
L 358.744537 189.664674 
L 359.308458 193.709196 
L 359.87238 203.217486 
L 361.000222 226.497303 
L 361.282182 223.165557 
L 361.564143 210.428665 
L 362.410025 144.897334 
L 363.537867 48.491887 
L 363.819828 34.227153 
L 364.101788 27.904529 
L 364.383749 26.879491 
L 364.665709 28.311071 
L 364.94767 30.636368 
L 365.229631 31.764481 
L 365.793552 28.732259 
L 366.075512 31.636523 
L 366.639434 47.866842 
L 366.921394 60.788659 
L 368.049237 135.27736 
L 368.613158 156.855461 
L 369.177079 169.074524 
L 369.459039 172.596948 
L 369.741 174.244788 
L 370.022961 173.865116 
L 371.150803 169.367173 
L 371.432764 168.792428 
L 371.714724 167.406554 
L 372.560606 160.339594 
L 373.970409 154.118462 
L 374.53433 153.145559 
L 375.098251 151.231556 
L 375.380212 150.821119 
L 375.662172 150.752066 
L 375.944133 150.838357 
L 376.226094 151.249743 
L 377.917857 156.102248 
L 378.481778 161.713886 
L 379.32766 172.11963 
L 379.609621 176.161129 
L 379.891581 178.198088 
L 380.173542 179.259933 
L 380.455502 181.852277 
L 381.019423 188.888736 
L 381.301384 191.740533 
L 381.865305 201.008252 
L 382.711187 216.136402 
L 382.993148 214.330596 
L 383.275108 205.094224 
L 383.839029 164.000252 
L 384.966872 61.528244 
L 385.248832 43.588206 
L 385.530793 34.124276 
L 385.812753 29.932148 
L 386.094714 29.120864 
L 386.376675 32.473716 
L 386.658635 37.352872 
L 386.940596 39.283782 
L 387.222556 39.246775 
L 387.504517 41.371264 
L 387.786478 46.985474 
L 388.068438 56.186942 
L 389.760202 133.419833 
L 390.324123 148.419959 
L 390.888044 158.416596 
L 391.733926 164.319852 
L 392.015886 163.917491 
L 392.297847 162.702645 
L 392.579808 162.03425 
L 392.861768 160.729633 
L 393.425689 156.899912 
L 393.70765 156.621818 
L 393.98961 156.012599 
L 394.271571 155.085476 
L 394.553532 155.226621 
L 394.835492 155.753097 
L 395.117453 155.011961 
L 395.399413 153.644937 
L 395.681374 153.476486 
L 396.527256 155.949645 
L 397.091177 159.038326 
L 397.373137 159.746697 
L 397.655098 161.232069 
L 398.219019 166.318629 
L 399.628822 172.503761 
L 400.474704 183.122932 
L 401.038625 188.314466 
L 401.602546 196.451954 
L 402.730389 216.677585 
L 403.29431 232.946546 
L 403.57627 237.47775 
L 403.858231 237.630958 
L 404.140192 230.236456 
L 404.704113 190.850863 
L 405.549994 118.238846 
L 406.113916 63.66241 
L 406.395876 51.066395 
L 406.677837 46.48946 
L 407.241758 41.942584 
L 407.523719 42.554796 
L 407.805679 44.078433 
L 408.08764 43.491831 
L 408.3696 41.896284 
L 408.651561 42.865318 
L 409.215482 50.863547 
L 409.497443 57.120684 
L 410.061364 76.249629 
L 410.343324 81.534555 
L 410.625285 84.513386 
L 411.189206 96.465894 
L 411.753127 106.21084 
L 412.317049 116.614971 
L 414.290773 158.866906 
L 415.136654 170.266557 
L 415.982536 174.337938 
L 416.264497 173.96392 
L 416.546457 172.457928 
L 416.828418 172.554118 
L 417.110379 172.818743 
L 417.392339 170.014893 
L 417.95626 161.912102 
L 418.520181 157.724148 
L 418.802142 157.419623 
L 419.084103 158.084079 
L 419.648024 157.533219 
L 419.929984 159.398929 
L 420.775866 171.473937 
L 421.057827 173.286746 
L 421.339787 173.944858 
L 421.621748 176.214188 
L 422.185669 185.94377 
L 422.74959 192.37249 
L 423.877433 216.579943 
L 424.441354 228.405104 
L 425.005275 240.586656 
L 425.287236 244.889823 
L 425.569196 245.563088 
L 425.851157 238.702881 
L 426.133117 223.208929 
L 426.697038 176.002381 
L 427.824881 64.883464 
L 428.106841 53.538283 
L 428.388802 48.936718 
L 428.952723 43.836304 
L 429.234684 40.248329 
L 430.362526 20.577386 
L 430.644487 21.274185 
L 430.926447 23.018195 
L 431.208408 28.247749 
L 434.309974 135.800953 
L 435.155856 153.682099 
L 435.719777 160.913036 
L 436.001738 162.879598 
L 436.283698 163.415306 
L 436.565659 163.298987 
L 436.84762 163.486303 
L 437.411541 164.645996 
L 437.693501 164.505906 
L 437.975462 164.696972 
L 438.539383 167.332232 
L 438.821344 166.98345 
L 439.103304 167.724468 
L 439.667225 175.251456 
L 439.949186 175.252886 
L 440.231147 174.889812 
L 440.795068 179.207264 
L 441.358989 177.370472 
L 441.92291 181.458573 
L 442.204871 181.38968 
L 442.486831 181.511201 
L 443.332713 186.733734 
L 443.614674 187.875852 
L 443.896634 190.733049 
L 444.460555 198.740345 
L 445.024477 204.081925 
L 445.870358 221.561992 
L 446.434279 233.938549 
L 446.71624 236.754568 
L 446.998201 232.96291 
L 447.280161 220.714526 
L 447.844082 173.961292 
L 448.971925 63.394908 
L 449.253885 54.126857 
L 450.099767 43.002077 
L 451.227609 19.449562 
L 451.50957 16.042974 
L 451.791531 16.962347 
L 452.073491 23.280784 
L 452.919373 52.760295 
L 453.765255 81.759263 
L 454.329176 94.928496 
L 455.175058 108.195019 
L 455.457018 110.301131 
L 455.738979 110.810351 
L 456.020939 112.033843 
L 456.3029 116.764143 
L 457.712703 162.112555 
L 458.276624 170.558208 
L 458.558585 173.602023 
L 458.840545 175.360951 
L 459.122506 176.044014 
L 459.404466 178.762468 
L 459.968388 190.135431 
L 460.532309 192.366101 
L 461.09623 203.065177 
L 461.378191 200.982876 
L 461.660151 196.103326 
L 461.942112 195.179675 
L 462.224072 196.14599 
L 462.506033 194.023271 
L 462.787993 191.04268 
L 463.069954 191.691199 
L 463.633875 196.703946 
L 464.197796 199.900974 
L 464.479757 201.71636 
L 464.761718 204.522811 
L 466.17152 232.231338 
L 466.735442 249.568665 
L 467.017402 253.783281 
L 467.299363 254.016 
L 467.581323 245.996562 
L 467.863284 227.273697 
L 468.709166 138.475448 
L 469.273087 84.673691 
L 469.837008 59.809252 
L 471.246811 19.690049 
L 471.528772 14.526764 
L 471.810732 12.096 
L 472.092693 13.677466 
L 472.374653 19.014226 
L 472.938575 39.26581 
L 474.630338 112.062202 
L 475.47622 129.642428 
L 476.604062 148.24 
L 477.167983 152.798929 
L 477.449944 154.16649 
L 477.731905 154.531838 
L 478.013865 155.749975 
L 478.577786 159.996446 
L 478.859747 159.764248 
L 479.141707 158.703722 
L 479.705629 155.391002 
L 479.987589 154.978785 
L 480.26955 155.995461 
L 480.55151 155.177601 
L 481.115432 148.363082 
L 481.397392 148.224126 
L 481.961313 148.816961 
L 482.243274 152.416247 
L 482.807195 165.393954 
L 483.089156 166.674945 
L 483.371116 167.352831 
L 483.935037 173.176641 
L 484.216998 173.892619 
L 484.498959 175.354222 
L 485.34484 189.950498 
L 485.626801 192.706693 
L 485.908762 197.951954 
L 486.472683 212.025773 
L 487.036604 221.846878 
L 488.446407 252.030317 
L 488.728367 253.325813 
L 489.010328 244.614376 
L 489.292289 226.206045 
L 490.702091 100.25778 
L 491.547973 59.632901 
L 492.111894 36.656225 
L 492.675816 21.36677 
L 492.957776 18.550087 
L 493.239737 19.163217 
L 493.521697 22.797133 
L 493.803658 29.711755 
L 494.367579 50.608896 
L 495.777382 106.541006 
L 496.341303 123.881544 
L 496.623264 128.70916 
L 497.187185 132.745669 
L 497.469146 134.344711 
L 497.751106 134.991843 
L 498.033067 134.373294 
L 498.315027 135.194442 
L 498.878948 143.364131 
L 499.160909 142.834063 
L 499.44287 139.649098 
L 499.72483 138.404952 
L 500.006791 138.690119 
L 500.570712 136.200607 
L 500.852673 137.495787 
L 501.698554 148.816201 
L 501.980515 149.852712 
L 502.262476 148.500007 
L 502.544436 148.739505 
L 503.108357 156.826148 
L 503.390318 158.43955 
L 503.672278 161.069488 
L 504.51816 178.677949 
L 504.800121 179.98022 
L 505.082081 179.808795 
L 505.364042 179.177161 
L 505.646003 179.472947 
L 505.927963 181.346642 
L 507.619727 196.747115 
L 508.747569 213.343481 
L 509.875411 238.035335 
L 510.157372 244.839521 
L 510.439333 247.753534 
L 510.721293 242.172429 
L 511.003254 226.871436 
L 511.567175 171.941096 
L 512.131096 115.777605 
L 512.695017 84.796975 
L 513.258938 63.653883 
L 514.386781 30.7251 
L 514.668741 27.436397 
L 514.950702 25.840122 
L 515.232662 26.806474 
L 515.514623 31.722095 
L 516.360505 59.496134 
L 517.488347 98.925814 
L 518.052268 108.28182 
L 518.61619 113.324876 
L 518.89815 113.36433 
L 519.180111 112.194429 
L 519.462071 115.392402 
L 520.307953 143.328274 
L 521.153835 157.370004 
L 521.717756 160.848722 
L 521.999717 163.793728 
L 522.281677 164.915731 
L 522.563638 164.954117 
L 523.127559 168.663737 
L 523.409519 169.262057 
L 523.69148 171.031232 
L 523.973441 175.011841 
L 524.255401 176.471785 
L 525.101283 164.356856 
L 525.665204 161.978572 
L 525.947165 161.912459 
L 526.229125 163.412772 
L 526.793047 168.138956 
L 527.920889 180.509248 
L 528.202849 182.213922 
L 528.48481 184.817757 
L 529.330692 196.775855 
L 529.894613 201.24823 
L 530.176574 204.671367 
L 531.022455 221.434337 
L 531.304416 222.550626 
L 531.586376 217.593445 
L 531.868337 203.786676 
L 532.996179 110.763333 
L 533.842061 80.838591 
L 534.405982 66.073778 
L 535.251864 53.304051 
L 535.533825 52.479597 
L 535.815785 54.55695 
L 536.097746 58.231124 
L 536.379706 63.701497 
L 537.789509 105.672002 
L 538.353431 126.012357 
L 538.635391 131.42868 
L 538.917352 134.666344 
L 539.481273 145.000972 
L 539.763233 146.097333 
L 540.045194 143.500729 
L 540.327155 142.474252 
L 540.891076 145.568051 
L 541.173036 145.765491 
L 541.454997 146.905483 
L 541.736958 148.541969 
L 542.018918 148.601365 
L 542.582839 145.41249 
L 542.8648 143.707649 
L 543.146761 142.86446 
L 543.428721 143.840041 
L 543.992642 147.205498 
L 545.402445 152.172873 
L 546.248327 157.974702 
L 547.094209 164.179845 
L 547.94009 170.976476 
L 548.222051 170.96502 
L 548.504012 172.651675 
L 549.067933 182.494174 
L 549.631854 186.400769 
L 550.477736 200.086622 
L 550.759696 201.181804 
L 551.041657 202.982211 
L 551.323618 207.76161 
L 551.887539 220.420297 
L 552.169499 216.018512 
L 552.73342 176.955934 
L 553.297342 138.610149 
L 553.861263 109.695803 
L 554.425184 94.216801 
L 555.553026 74.608324 
L 555.834987 73.345669 
L 556.116947 73.212769 
L 556.398908 74.510489 
L 556.962829 80.417132 
L 557.24479 84.248869 
L 557.52675 90.138247 
L 558.654593 125.575821 
L 558.936553 127.6177 
L 559.500475 133.741626 
L 559.782435 133.874061 
L 560.064396 132.585711 
L 560.346356 132.907592 
L 560.628317 134.408208 
L 560.910277 134.96961 
L 561.192238 134.076207 
L 561.756159 130.472319 
L 562.03812 130.106295 
L 562.32008 130.68944 
L 562.602041 129.495868 
L 562.884002 126.997 
L 563.165962 128.21116 
L 563.729883 140.621267 
L 564.011844 142.60923 
L 564.293804 143.636444 
L 564.575765 146.248661 
L 564.857726 147.747928 
L 565.421647 145.009674 
L 565.703607 145.893088 
L 566.267529 149.354032 
L 566.83145 153.662968 
L 567.11341 154.361627 
L 567.395371 156.165631 
L 567.677332 159.8347 
L 567.959292 161.556783 
L 568.241253 160.15506 
L 568.523213 160.918444 
L 569.087134 172.9459 
L 569.369095 174.247308 
L 569.651056 173.871197 
L 569.933016 176.584327 
L 570.214977 180.562166 
L 570.496937 181.61262 
L 570.778898 181.118679 
L 571.060859 183.486769 
L 571.342819 187.998018 
L 571.90674 192.556369 
L 572.188701 198.777066 
L 572.752622 214.547598 
L 573.034583 216.962873 
L 573.316543 217.405456 
L 573.598504 212.108701 
L 573.880464 196.144164 
L 574.726346 136.289786 
L 575.290267 111.962013 
L 575.854189 95.33762 
L 576.41811 79.117696 
L 577.263991 71.861259 
L 577.545952 72.318325 
L 578.391834 78.565673 
L 579.237716 95.429216 
L 580.083597 115.251857 
L 580.365558 117.286303 
L 581.4934 122.436693 
L 581.775361 122.351232 
L 582.339282 115.187918 
L 582.621243 117.328742 
L 583.185164 133.476882 
L 583.749085 140.867597 
L 584.313006 146.170917 
L 585.158888 150.880734 
L 585.440848 151.519049 
L 585.722809 153.664404 
L 586.28673 162.118486 
L 586.568691 160.599586 
L 586.850651 155.70666 
L 587.132612 152.753931 
L 587.696533 152.974184 
L 587.978494 152.182836 
L 588.260454 152.887584 
L 588.824375 159.419544 
L 589.106336 160.869406 
L 589.388297 161.112424 
L 589.670257 162.241681 
L 590.234178 166.538187 
L 591.08006 170.342468 
L 591.362021 171.006229 
L 591.643981 172.655736 
L 592.207903 180.962078 
L 592.489863 182.656916 
L 592.771824 181.876399 
L 593.053784 180.670904 
L 593.335745 180.224913 
L 593.617705 181.136615 
L 593.899666 184.220625 
L 594.463587 196.176116 
L 594.745548 197.836877 
L 595.027508 189.446232 
L 596.155351 123.710231 
L 596.719272 105.439045 
L 597.847114 82.529737 
L 598.129075 81.389465 
L 598.692996 84.273344 
L 598.974957 86.733232 
L 600.102799 110.109289 
L 600.66672 121.565122 
L 600.948681 122.836068 
L 601.230641 123.375851 
L 601.794562 127.656492 
L 602.640444 134.249383 
L 603.204365 132.727062 
L 603.768287 134.610623 
L 604.050247 133.967227 
L 604.332208 134.492853 
L 605.46005 145.619229 
L 605.742011 145.889945 
L 606.305932 144.433469 
L 606.587892 144.112098 
L 606.869853 144.61902 
L 607.433774 148.442259 
L 607.715735 148.607095 
L 607.997695 149.067218 
L 608.843577 160.278457 
L 609.125538 159.876856 
L 609.407498 160.425214 
L 609.689459 161.76935 
L 609.971419 161.691266 
L 610.25338 160.921519 
L 610.535341 161.764619 
L 611.099262 166.038752 
L 611.381222 167.124056 
L 611.945144 168.078487 
L 612.227104 168.29794 
L 612.509065 168.310596 
L 612.791025 168.945622 
L 613.354946 173.147327 
L 613.918868 175.062978 
L 614.482789 182.076889 
L 614.764749 185.118015 
L 615.04671 186.532026 
L 615.328671 184.643602 
L 615.610631 176.496805 
L 616.456513 140.799892 
L 617.302395 119.812214 
L 617.866316 110.351384 
L 618.148276 107.539299 
L 618.712198 106.294331 
L 618.994158 104.724167 
L 619.276119 104.006537 
L 619.558079 105.285709 
L 620.122001 109.272798 
L 620.685922 117.035447 
L 621.249843 123.74599 
L 622.377685 133.463813 
L 622.659646 135.132944 
L 622.941606 135.783547 
L 623.223567 135.657662 
L 623.505528 136.011461 
L 623.787488 136.666435 
L 624.069449 136.420951 
L 624.63337 134.782971 
L 624.915331 133.893803 
L 625.479252 130.979196 
L 625.761212 132.061482 
L 626.607094 138.34029 
L 627.171015 141.958545 
L 628.298858 146.731422 
L 628.580818 146.41262 
L 628.862779 145.036476 
L 629.144739 144.494158 
L 629.70866 145.718152 
L 629.990621 145.72986 
L 630.272582 146.863089 
L 630.554542 148.484463 
L 630.836503 148.72235 
L 631.118463 148.118827 
L 631.400424 148.793391 
L 632.246306 152.602329 
L 632.528266 154.56658 
L 633.092188 156.13858 
L 633.092188 156.13858 
" clip-path="url(#pe74bc59460)" style="fill: none; stroke: #1f77b4; stroke-width: 1.5; stroke-linecap: square"/>
   </g>
   <g id="patch_3">
    <path d="M 47.192188 266.112 
L 47.192188 0 
" style="fill: none; stroke: #000000; stroke-width: 0.8; stroke-linejoin: miter; stroke-linecap: square"/>
   </g>
   <g id="patch_4">
    <path d="M 660.992188 266.112 
L 660.992188 0 
" style="fill: none; stroke: #000000; stroke-width: 0.8; stroke-linejoin: miter; stroke-linecap: square"/>
   </g>
   <g id="patch_5">
    <path d="M 47.192188 266.112 
L 660.992188 266.112 
" style="fill: none; stroke: #000000; stroke-width: 0.8; stroke-linejoin: miter; stroke-linecap: square"/>
   </g>
   <g id="patch_6">
    <path d="M 47.192188 0 
L 660.992188 0 
" style="fill: none; stroke: #000000; stroke-width: 0.8; stroke-linejoin: miter; stroke-linecap: square"/>
   </g>
  </g>
 </g>
 <defs>
  <clipPath id="pe74bc59460">
   <rect x="47.192188" y="0" width="613.8" height="266.112"/>
  </clipPath>
 </defs>
</svg>
