<svg xmlns="http://www.w3.org/2000/svg" xmlns:xlink="http://www.w3.org/1999/xlink" width="913.477" height="385.04" viewBox="0 0 685.107 288.78"><defs><style>*{stroke-linejoin:round;stroke-linecap:butt}</style></defs><g id="figure_1"><path id="patch_1" d="M0 288.78h685.107V0H0v288.78z" style="fill:none"/><g id="axes_1"><path id="patch_2" d="M71.308 272.102h613.8V5.99h-613.8v266.112z" style="fill:none"/><g id="matplotlib.axis_1"><g id="xtick_1"><g id="line2d_1"><defs><path id="mb64bf0b624" d="M0 0v3.5" style="stroke:gray;stroke-width:.8"/></defs><use xlink:href="#mb64bf0b624" x="99.207" y="272.102" style="fill:gray;stroke:gray;stroke-width:.8"/></g><g id="text_1" style="fill:gray" transform="matrix(.1 0 0 -.1 96.026 286.7)"><defs><path id="DejaVuSans-30" d="M2034 4250q-487 0-733-480-245-479-245-1442 0-959 245-1439 246-480 733-480 491 0 736 480 246 480 246 1439 0 963-246 1442-245 480-736 480zm0 500q785 0 1199-621 414-620 414-1801 0-1178-414-1799Q2819-91 2034-91q-784 0-1198 620-414 621-414 1799 0 1181 414 1801 414 621 1198 621z" transform="scale(.01563)"/></defs><use xlink:href="#DejaVuSans-30"/></g></g><g id="xtick_2"><use xlink:href="#mb64bf0b624" id="line2d_2" x="168.958" y="272.102" style="fill:gray;stroke:gray;stroke-width:.8"/><g id="text_2" style="fill:gray" transform="matrix(.1 0 0 -.1 159.414 286.7)"><defs><path id="DejaVuSans-35" d="M691 4666h2478v-532H1269V2991q137 47 274 70 138 23 276 23 781 0 1237-428 457-428 457-1159 0-753-469-1171Q2575-91 1722-91q-294 0-599 50Q819 9 494 109v635q281-153 581-228t634-75q541 0 856 284 316 284 316 772 0 487-316 771-315 285-856 285-253 0-505-56-251-56-513-175v2344z" transform="scale(.01563)"/></defs><use xlink:href="#DejaVuSans-35"/><use xlink:href="#DejaVuSans-30" x="63.623"/><use xlink:href="#DejaVuSans-30" x="127.246"/></g></g><g id="xtick_3"><use xlink:href="#mb64bf0b624" id="line2d_3" x="238.708" y="272.102" style="fill:gray;stroke:gray;stroke-width:.8"/><g id="text_3" style="fill:gray" transform="matrix(.1 0 0 -.1 225.982 286.7)"><defs><path id="DejaVuSans-31" d="M794 531h1031v3560L703 3866v575l1116 225h631V531h1031V0H794v531z" transform="scale(.01563)"/></defs><use xlink:href="#DejaVuSans-31"/><use xlink:href="#DejaVuSans-30" x="63.623"/><use xlink:href="#DejaVuSans-30" x="127.246"/><use xlink:href="#DejaVuSans-30" x="190.869"/></g></g><g id="xtick_4"><use xlink:href="#mb64bf0b624" id="line2d_4" x="308.457" y="272.102" style="fill:gray;stroke:gray;stroke-width:.8"/><g id="text_4" style="fill:gray" transform="matrix(.1 0 0 -.1 295.733 286.7)"><use xlink:href="#DejaVuSans-31"/><use xlink:href="#DejaVuSans-35" x="63.623"/><use xlink:href="#DejaVuSans-30" x="127.246"/><use xlink:href="#DejaVuSans-30" x="190.869"/></g></g><g id="xtick_5"><use xlink:href="#mb64bf0b624" id="line2d_5" x="378.207" y="272.102" style="fill:gray;stroke:gray;stroke-width:.8"/><g id="text_5" style="fill:gray" transform="matrix(.1 0 0 -.1 365.483 286.7)"><defs><path id="DejaVuSans-32" d="M1228 531h2203V0H469v531q359 372 979 998 621 627 780 809 303 340 423 576 121 236 121 464 0 372-261 606-261 235-680 235-297 0-627-103-329-103-704-313v638q381 153 712 231 332 78 607 78 725 0 1156-363 431-362 431-968 0-288-108-546-107-257-392-607-78-91-497-524-418-433-1181-1211z" transform="scale(.01563)"/></defs><use xlink:href="#DejaVuSans-32"/><use xlink:href="#DejaVuSans-30" x="63.623"/><use xlink:href="#DejaVuSans-30" x="127.246"/><use xlink:href="#DejaVuSans-30" x="190.869"/></g></g><g id="xtick_6"><use xlink:href="#mb64bf0b624" id="line2d_6" x="447.957" y="272.102" style="fill:gray;stroke:gray;stroke-width:.8"/><g id="text_6" style="fill:gray" transform="matrix(.1 0 0 -.1 435.233 286.7)"><use xlink:href="#DejaVuSans-32"/><use xlink:href="#DejaVuSans-35" x="63.623"/><use xlink:href="#DejaVuSans-30" x="127.246"/><use xlink:href="#DejaVuSans-30" x="190.869"/></g></g><g id="xtick_7"><use xlink:href="#mb64bf0b624" id="line2d_7" x="517.707" y="272.102" style="fill:gray;stroke:gray;stroke-width:.8"/><g id="text_7" style="fill:gray" transform="matrix(.1 0 0 -.1 504.983 286.7)"><defs><path id="DejaVuSans-33" d="M2597 2516q453-97 707-404 255-306 255-756 0-690-475-1069Q2609-91 1734-91q-293 0-604 58T488 141v609q262-153 574-231 313-78 654-78 593 0 904 234t311 681q0 413-289 645-289 233-804 233h-544v519h569q465 0 712 186t247 536q0 359-255 551-254 193-729 193-260 0-557-57-297-56-653-174v562q360 100 674 150t592 50q719 0 1137-327 419-326 419-882 0-388-222-655t-631-370z" transform="scale(.01563)"/></defs><use xlink:href="#DejaVuSans-33"/><use xlink:href="#DejaVuSans-30" x="63.623"/><use xlink:href="#DejaVuSans-30" x="127.246"/><use xlink:href="#DejaVuSans-30" x="190.869"/></g></g><g id="xtick_8"><use xlink:href="#mb64bf0b624" id="line2d_8" x="587.457" y="272.102" style="fill:gray;stroke:gray;stroke-width:.8"/><g id="text_8" style="fill:gray" transform="matrix(.1 0 0 -.1 574.732 286.7)"><use xlink:href="#DejaVuSans-33"/><use xlink:href="#DejaVuSans-35" x="63.623"/><use xlink:href="#DejaVuSans-30" x="127.246"/><use xlink:href="#DejaVuSans-30" x="190.869"/></g></g><g id="xtick_9"><use xlink:href="#mb64bf0b624" id="line2d_9" x="657.207" y="272.102" style="fill:gray;stroke:gray;stroke-width:.8"/><g id="text_9" style="fill:gray" transform="matrix(.1 0 0 -.1 644.482 286.7)"><defs><path id="DejaVuSans-34" d="M2419 4116 825 1625h1594v2491zm-166 550h794V1625h666v-525h-666V0h-628v1100H313v609l1940 2957z" transform="scale(.01563)"/></defs><use xlink:href="#DejaVuSans-34"/><use xlink:href="#DejaVuSans-30" x="63.623"/><use xlink:href="#DejaVuSans-30" x="127.246"/><use xlink:href="#DejaVuSans-30" x="190.869"/></g></g></g><g id="matplotlib.axis_2"><g id="ytick_1"><g id="line2d_10"><defs><path id="m72c9b2a5a2" d="M0 0h-3.5" style="stroke:gray;stroke-width:.8"/></defs><use xlink:href="#m72c9b2a5a2" x="71.308" y="264.285" style="fill:gray;stroke:gray;stroke-width:.8"/></g><g id="text_10" style="fill:gray" transform="matrix(.16 0 0 -.16 0 270.364)"><defs><path id="DejaVuSans-2212" d="M678 2272h4006v-531H678v531z" transform="scale(.01563)"/></defs><use xlink:href="#DejaVuSans-2212"/><use xlink:href="#DejaVuSans-33" x="83.789"/><use xlink:href="#DejaVuSans-30" x="147.412"/><use xlink:href="#DejaVuSans-30" x="211.035"/><use xlink:href="#DejaVuSans-30" x="274.658"/><use xlink:href="#DejaVuSans-30" x="338.281"/></g></g><g id="ytick_2"><use xlink:href="#m72c9b2a5a2" id="line2d_11" x="71.308" y="227.399" style="fill:gray;stroke:gray;stroke-width:.8"/><g id="text_11" style="fill:gray" transform="matrix(.16 0 0 -.16 0 233.477)"><use xlink:href="#DejaVuSans-2212"/><use xlink:href="#DejaVuSans-32" x="83.789"/><use xlink:href="#DejaVuSans-30" x="147.412"/><use xlink:href="#DejaVuSans-30" x="211.035"/><use xlink:href="#DejaVuSans-30" x="274.658"/><use xlink:href="#DejaVuSans-30" x="338.281"/></g></g><g id="ytick_3"><use xlink:href="#m72c9b2a5a2" id="line2d_12" x="71.308" y="190.512" style="fill:gray;stroke:gray;stroke-width:.8"/><g id="text_12" style="fill:gray" transform="matrix(.16 0 0 -.16 0 196.59)"><use xlink:href="#DejaVuSans-2212"/><use xlink:href="#DejaVuSans-31" x="83.789"/><use xlink:href="#DejaVuSans-30" x="147.412"/><use xlink:href="#DejaVuSans-30" x="211.035"/><use xlink:href="#DejaVuSans-30" x="274.658"/><use xlink:href="#DejaVuSans-30" x="338.281"/></g></g><g id="ytick_4"><use xlink:href="#m72c9b2a5a2" id="line2d_13" x="71.308" y="153.625" style="fill:gray;stroke:gray;stroke-width:.8"/><use xlink:href="#DejaVuSans-30" id="text_13" style="fill:gray" transform="matrix(.16 0 0 -.16 54.127 159.704)"/></g><g id="ytick_5"><use xlink:href="#m72c9b2a5a2" id="line2d_14" x="71.308" y="116.739" style="fill:gray;stroke:gray;stroke-width:.8"/><g id="text_14" style="fill:gray" transform="matrix(.16 0 0 -.16 13.408 122.817)"><use xlink:href="#DejaVuSans-31"/><use xlink:href="#DejaVuSans-30" x="63.623"/><use xlink:href="#DejaVuSans-30" x="127.246"/><use xlink:href="#DejaVuSans-30" x="190.869"/><use xlink:href="#DejaVuSans-30" x="254.492"/></g></g><g id="ytick_6"><use xlink:href="#m72c9b2a5a2" id="line2d_15" x="71.308" y="79.852" style="fill:gray;stroke:gray;stroke-width:.8"/><g id="text_15" style="fill:gray" transform="matrix(.16 0 0 -.16 13.408 85.93)"><use xlink:href="#DejaVuSans-32"/><use xlink:href="#DejaVuSans-30" x="63.623"/><use xlink:href="#DejaVuSans-30" x="127.246"/><use xlink:href="#DejaVuSans-30" x="190.869"/><use xlink:href="#DejaVuSans-30" x="254.492"/></g></g><g id="ytick_7"><use xlink:href="#m72c9b2a5a2" id="line2d_16" x="71.308" y="42.965" style="fill:gray;stroke:gray;stroke-width:.8"/><g id="text_16" style="fill:gray" transform="matrix(.16 0 0 -.16 13.408 49.044)"><use xlink:href="#DejaVuSans-33"/><use xlink:href="#DejaVuSans-30" x="63.623"/><use xlink:href="#DejaVuSans-30" x="127.246"/><use xlink:href="#DejaVuSans-30" x="190.869"/><use xlink:href="#DejaVuSans-30" x="254.492"/></g></g><g id="ytick_8"><use xlink:href="#m72c9b2a5a2" id="line2d_17" x="71.308" y="6.079" style="fill:gray;stroke:gray;stroke-width:.8"/><g id="text_17" style="fill:gray" transform="matrix(.16 0 0 -.16 13.408 12.158)"><use xlink:href="#DejaVuSans-34"/><use xlink:href="#DejaVuSans-30" x="63.623"/><use xlink:href="#DejaVuSans-30" x="127.246"/><use xlink:href="#DejaVuSans-30" x="190.869"/><use xlink:href="#DejaVuSans-30" x="254.492"/></g></g></g><path id="line2d_18" d="m99.207 153.645.846-.036.846.03 1.41-.023 1.692.004 2.82.005 5.92-.098.283.27.563-1.327.282 4.137.282 2.229.282.17.282-1.9.282-.022.564 5.302.564-2.5.564 2.516.564-4.047.282-.266.282.355.282-.493.282.411.282 1.358.282.203.282-1.222.282-.285.282.756.282.291.282-.274.563.793.564-.905.282.577.282.92.564.695.564 2.386.282.228.282-.27.282.477.564 1.519.282.478.282.23.282-1.746.282-4.772.846-19.394.564-7.75.282-.85.282 1.176.281 1.724.282.601.282.1.564 2.27.282.032.282-.08.282 1.64.564 5.605.846 11.983.282-.872.282-1.312.282-.03.282-.395.282-1.292.282-.412.282.438.282.11.282.637.564 4.036.563-.937.564 3.071.282.02.282-.727.564-.376.282-.716.282-.38.846.766.282.356.564-.332.282 1.554.282 2.637.282 1.482.282.167.564 1.006.282-.058.282.45.282 1.535.282.77.282-.263.563 1.324.282-4.033.846-25.24.564-8.356.282-1.438.282.653 1.41 6.318.282 1.074.564 1.024.282 1.954.846 10.3.282 2.156.282.884.563.054.282-.387.564-1.804.282-.128.564-.933.564 2.7.282-.092.282.452.564 6.67.282.053.282-1.334.282.328.282.511.282-1.823.282-2.582.282-.677.564 1.758 1.41 2.107.281.192.282-.119.282.26.846 3.237.564.817.282.267.282-.118.282-1.595.282-4.309 1.128-26.149.282-2.966.282-.698.564 1.244.846 3.545.282.089.281.794.282 1.304.282.4.282.954.282 4.478.564 11.709.282.656.282-.786.282.284.282.722.282-.366.282-1.34.282-.705.282.814.282 1.422.282.744.282.328 1.128 2.832.564 1.953.282.337.563 1.217.564-.685.846 2.963.282-.454.282.654.282 1.242.282.383h.282l.282.605.282.041.282-1.937.282-2.918.282-1.727.282.112.282 1.394.846 5.75.282-1.03.282-5.287.845-26.429.564-6.253.282-1.411.282 1.045.564 3.93.564.782.282.333.282.724.846 5.328.282 3.314.564 10.206.282 2.402.564 1.627.282-.55.282-1.44.282-.667.282.155.563-.366.282.351.282.126.282-.608.282-.22.846 2.535.282.354.282 1.305.564 4.28.282.69.564-.679.282.568.564 2.044.564.828.282.784.282.376.564-2.771.282-.048.281 1.076.282.258.282-.046.282 1.715.564 5.576.282.392.282-1.707.282-4.295.846-23.298.564-11.62.282-1.18.564 1.614.282 1.423.282 2.219.282 1.31.564-.728.846 3.763.282 3.798.563 12.347.282 2.194.282.08.282-.29 1.128-2.581.282-.313.282.262.282.584.564.29.282.505.564 1.634.282.975.282.51.282.021.564.795.282-.596.282-.082.845 7.68.282-1.15.282-.046.282.956.282-.553.282-1.51.282.25.282 1.787.282.984.282.085.564 2.014.282-.192.282-.98.564.146.282-3.378 1.41-38.221.282-2.821.282.23 1.127 7.246.564 2.209.282 1.96.564 8.031 1.128 18.329.282-1.518.564-5.12.564-1.885.282-.324.282.292.282-.37.282-.63.282 1.23.282 2.734.282 1.46.563-.75.564 1.499.564.5.282.115.282-.014.282.514.564 2.012.564.632 1.41 4.027.282.674 1.128 4.068.564 1.214.282-.348.281-1.99.282-4.313.564-16.954.564-17.28.564-10.702.282-1.28.564 7.244.282.615.282-1.641.282.18.282 1.953.282.294.282-1.42.282.888.564 12.054.846 20.112.282 2.511.845-.948.564-3.755.282-.279.282.893.282.404.282.68.282 1.61.282.406.564-3.53.282.303.282.735.282.088.282.415.282.75.282-.016.282.103.846 5.206.282-.26.282.47.282 1.034.282.417.281.061.564.625.282 1.052.846 9.852.282.018.564.825.282-4.196 1.692-56.45.282-3.52.282-1.132.282.765.564 3.57.282 1.344 1.127 8.59.282 3.5.564 13.72.282 6.794.282 3.623.282.856.282.202.282.377.564.123.282.686.564 1.682.282-.1.282-.685.282-.193.282 1.517.564 4.534.282.247.564-1.298.282-.057 1.41 3.714.281.13.282-.032.564 2.408.564.074.846 3.296.564 3.717.282.011.282 1.04.282 3.23.282-.509.282-9.106.846-35.509.564-18.044.563-11.172.282-1.252 1.128 11.212.564 13.98.564 5.541.564 15.526.282 7.327.282 3.65.282.3.282-.862.564-.824.564-2.474.282.142.282-.4.282-1.55.282-.273.281 1.746.282.82.564-2.77.282.633.282.927.282.537.282 1.564.282 2.282.282 1.21.282.573.564 2.645.282.42.282.878.282 1.678.282.724.282.11 1.128 6.286.564 7.902.282.534.282-.312.281.104.282-3.84.564-25.228.846-34.85.564-15.535.282-1.229.282.53.282-1.06.282-1.97.282.198.282 2.126.282 1 .282-.214.282 2.093.282 6.918 1.128 44.44.282 3.36.282 1.868.281.531.564-2.273.282-.457.564-2.35.282-.115.282.255.282-.529.282.727.564 6.758.282 1.168.564.786.282-.56.282.185.564 6.3.282.386.282-.46.564 3.083.282-.972.282-1.758.282-.074.563 2.89.846 6.289.846 7.18.282 1.025.282-2.48.282-9.647.846-46.067.846-30.491.282-4.04.282-2.319.564-6.865.282-1.604.564 1.075.282-.125.281 1.632.282 6.972.564 32.415.564 34.221.282 7.709.282 2.044.282-.16.282-.518.282-.995 1.128-7.307.564-1.25.282.113.282.366.282-.026.282.506.564 3.6.564-2.764.281 1.86.282 3.827.282 1.772.282-.101.282.871.282 1.798.282.696.282-.364.282.298.564 3.782.846 4.934.564 3.027.282.891.282.45.282-2.111.282-7.362.846-40.934.846-38.121.563-15.284.282-4.933.282-2.734.282-1.448.282.154.282 3.146.564 12.555.282 8.864.564 31.761.564 31.837.282 6.657.282 1.507.282-.452.282-1.109.564-5.002.282.032.564 4.521.282-.53.282.193.563 3.999.282-1.714.282-2.45.282.07.282 1.77.282.95.282.382.564 3.046.282.256.282.102.282 2.102.282 2.95.282 1.446.282.756.564 3.642.282.982.282 2.2.564 6.769.564-.479.563 3.485.282-4.04.564-23.939 1.41-72.694.846-27.497.564-13.915.282-5.007.282-2.208.282 1.181.282 3.86.282 6.933.282 11.95.564 38.635.564 41.611.282 14.413.282 7.94.281 3.23.282 1.012.282-.25.282-1.534.564-4.625.564-2.44.282-.725.282-.29.846.916.564.665.282-.224.282.687.564 5.079.564.636.846 8.74.282 1.47 1.691 14.073.282-.553.282 2.254.282 4.56.282 1.037.282-6.08.564-27.878 1.128-68.382.846-40.407.564-19.848.282-5.108.282-1.847.282.18.282 1.088.281 1.978.282 4.938.282 10.155.564 33.985 1.128 87.238.282 6.327.282 3.527.282-.22.564-7.47.282-1.106.282-2.799.282-5.145.282-3.067.282-.309.564-2.356.282 1.944.282 3.524.282 1.026.282-.011.281 2.839.282 4.295.282 1.8.282-.16.282 1.193.282 2.595.282 1.11.564-1.84.282 2.092.282 3.346.282 1.62.282.48.282 2.784.564 9.658.846 4.513.282-3.674.282-12.858 1.691-103.488.564-24.835.564-15.624.282-4.317.282-1.924.282 1.962.564 9.397.282 7.986.564 34.585 1.128 71.059.282 7.884.564 7.14.282 1.71.282-.785 1.127-6.188.564-2.342.282-1.773.282-.42.564 2.474.282.203.282.903.564 2.994.282.314.282.934.282 1.555.282.92.282.523.282 1.554 1.692 16.901.845 8.724.282 1.425.282-2.293.282-8.125.564-31.69 1.41-89.387.564-24.21.282-7.764.564-7.718.282-1.793.282-.304.282.72.282 2.93.282 8.531.564 33.746 1.127 72.09.564 23.295.282 4.81.282-1.102.282-2.929.846-5.231.564-5.214.282-1.75.282-.147 1.128 5.088.564 3.789 1.41 8.18.282 2.717.281 1.157.282.639.282 2.415.564 7.255.846 17.12.282 1.624.282 3.486.282 5.58.282 1 .282-7.517.564-28.37 1.128-75.908.846-53.926.564-16.678.845-14.507.564-4.635.282-.609.282 5.288.564 31.757 1.41 86.142.564 21.027.282 4.607.282 2.096.282.913.282.481.282-.02.282-.907.282-1.303.282-.597.282.052.282-.342.281-.16.282 2.071.564 7.804.846 4.861.282 1.111.282-1.006.282-1.564.282.705 1.128 13.069.564 15.397.282 3.428.282 1.858.564 7.922.282-.765.282-7.572.564-31.324 1.691-118.687.564-18.627.564-14.32.564-7.842.282-2.931.282.54.282 5.907.564 21.567.564 30.234 1.41 85.056.564 8.679.281 1.8.282-.119.564-1.992.282-1.77.564-4.674.282-.453.282-.026.282.465.282 2.508.564 6.632.282 1.404.282 2.716.282 3.94.282 1.806.282-.98.282-.195.846 8.559.282 3.363 1.127 22.065.564 8.533.282 1.58.282-3.965.282-9.197.564-32.033L432.203 73l.846-37.644.282-7.722.564-7.623.282-1.925.282 1.416.282 5.583.564 23.396 1.127 68.253.846 51.28.282 9.99.282 4.982.564 4.262.282-.932.564-6.414.282-.261.282-.895.282-2.344.282.883.564 13.415.282 3.185.282.989.564 4.374 1.41 10.798.563 5.704.282.297.282-.633.282.998.564 8.586.564 6.641.564 4.875.282-1.371.282-9.905.846-57.326.846-76.539.846-47.757.281-10.031.564-6.687.282-3.449.282-1.175.282 2.625.564 9.586.282 8.823.564 32.122 1.128 65.028.564 26.324.564 15.215.564 9.158.282 1.628.282-.41.564-1.58.563-2.616.282.976.282 1.734.282-.588.282-1.7.282.7.282 1.806.282-.708.282-1.54.564 2.582.282-1.246.282-.371.564 7.06.282.627.282 2.784.564 13.59.282 3.685.282 6.369.564 18.822.282 2.8.281-2.889.282-9.942.564-38.135 1.974-148.561.282-10.08.564-8.093.282-3.252.282-.664.282 2.302.282 5.845.564 25.32 1.128 58.567 1.127 41.943.282 6.382.564 19.38.282 4.917.282.783.282 1.838.282 2.853.282.228.282-1.599.282.137.282 1.08.282-1.076.282-2.23.282-.322.282.736.564-1.94.282 2.211.846 15.63.845 10.584.846 9.103 1.128 13.276.282.562.282-2.837.282-9.625.564-40.475L483.52 54.78l.564-21.06.282-7.107.282-3.767.282-.106.564 3.192.281 2.975.282 8.455 1.974 91.604 1.128 38.158.564 8.664.846 8.22.282 3.682.282 1.988.564 1.3.564.062.282 1.528.281 2.524.282 1.358.282.283.282 1.598.564 6.024.564 3.448.846 7.267.846 10.882.282 1.486.846 8.625.282.435.282-2.826.282-9.5.564-41.362 1.127-105.885.564-25.285.564-14.117.282-4.448.282-1.046.282 3.86.564 9.884.282 3.116.282 7.585.846 32.599 1.41 45.75 1.128 23.264 1.41 26.312.845 12.414.282 3.341.282.443.564-4.973.282 2.79.282 4.206.564 2.039.846 17.637.282-.382.282 1.58.564 6.851.282.259.282.903.563 6.948.282 3.829.282.888.282-6.27.564-35.246.846-79.911.564-50.741.564-24.77.564-12.768.282-3.376.282 1.656 1.128 23.237.846 34.233 1.973 51.398.846 17.2.564 14.123 1.128 16.701.564 8.873.282 4.19.564 12.699.282 2.186.282-.775.282.154.282 1.171.282-.818.282-2.658.281-.872.282 2.37.564 6.254.564 5.981.564 7.215.564 11.807.282 1.379.282-7.602.564-35.528.564-59.105.564-56.06.564-35.686.282-11.726.282-5.56.282-2.625.282-1.207.282 2.911 1.127 31.032 1.128 37.959.564 11.88.564 8.259.564 7.906.282 4.547.564 5.144.564 9.044.282 1.88.282.502.282 2.931 1.128 24.895.563 14.724 1.41 28.168 2.256 20.96.846 9.19.282-2.045.282-11.063.564-51.344.846-92.71.563-32.993.564-18.381.282-3.642.282.416.282 2.637.282 5.156 1.128 31.842.846 31.297.846 14.245.282-.198.282-1.45.282.99.564 4.89.564.983.563 2.28.282 2.044.564 8.42 1.128 23.165.282 6.862.846 29.561.564 12.926.564 13.364.282 3.158.846 13.402.564 4.874.282 1.058.282.344.282.93.281-2.174.282-10.7.564-47.125.846-95.4.564-29.53.282-8.034.282-2.71.564 1.495.282 1.922 1.41 25.937.564 16.048.564 15.966.282 3.316.845 3.579.564.68.564 2.107.282 1.527 1.128 8.833.564 10.032 1.692 33.426.564 13.556.564 12.105.282 7.748.282 4.048.281.466.282 2.318 1.41 29.814.282 5.11.282-1.319.282-10.715.282-20.972 1.128-117.122.564-30.202.564-16.116.282-.943.846 14.232.282 5.411.564 15.33.563 4.023.846 20.069.282 2.466.846 13.072.564 2.436.282 1.473.564.958.564 1.805.282.577.282 1.774 1.128 13.03.564 5.697 1.973 29.82.846 15.8.282 5.16.846 24.496.846 16.345.282-2.899.282-14.274.564-55.551.564-64.354.282-20.821.564-20.732.282-6.137.281-3.325.282 1.07.564 12.925.564 11.079.564 11.107 1.41 30.627.282 2.977.282 1.758.282-.566.282-1.78.282-.796.282.706.282 1.525.564 4.395.282 1.046.282.137.282.873.563 5.11 1.128 12.623 1.128 11.872.564 11.793.846 9.6 1.41 27.745.564 8.448.282.85.282-2.948.282-12.804.845-79.845 1.128-48.625.282-1.742.282-.09.282.18.282 2.977.564 7.717.282 3.426 1.128 20.685.564 14.93.282 3.584.564 3.703.282.486.282-.254.282.413.281 1.005.564.988.564 3.088.282-.807.282-1.282.282 1.439.282 3.374.564 3.304.282 3.654.564 9.66.564 4.08.846 8.596.564 8.065.564 5.451 1.691 25.863.282 1.742.282-3.291.282-13.39.846-72.246.564-19.951.564-15.134.282-4.78.282-1.141.282 1.664 1.128 11.988.564 9.876.845 17.818.564 6.97.564 3.4 1.41 3.428.846 3.71 1.128 4.038 1.128 5.333.282 2.706.846 11.106.563 5.071.282.208.282-.904.282.374 1.41 15.98.564 9.87.282 2.41.282-2.008.282-11.357.564-35.504 1.128-41.029.282-3.244.846-14.516.845 11.655.564 6.372.564 8.583.564 9.398.846 6.628.282.177.282 1.095.282 1.963.564-1.51.282 4.26.282 7.3.282 2.326.282-1.6.282.34.282 2.473.282-1.038.282-2.351.282-.581.281 2.07h0" clip-path="url(#p8f208d62ff)" style="fill:none;stroke:#1f77b4;stroke-width:1.5;stroke-linecap:square"/><path id="patch_3" d="M71.308 272.102V5.99" style="fill:none;stroke:gray;stroke-width:.8;stroke-linejoin:miter;stroke-linecap:square"/><path id="patch_4" d="M685.107 272.102V5.99" style="fill:none;stroke:#000;stroke-width:.8;stroke-linejoin:miter;stroke-linecap:square"/><path id="patch_5" d="M71.308 272.102h613.8" style="fill:none;stroke:gray;stroke-width:.8;stroke-linejoin:miter;stroke-linecap:square"/><path id="patch_6" d="M71.308 5.99h613.8" style="fill:none;stroke:#000;stroke-width:.8;stroke-linejoin:miter;stroke-linecap:square"/></g></g><defs><clipPath id="p8f208d62ff"><path d="M71.308 5.99h613.8v266.112h-613.8z"/></clipPath></defs></svg>