<svg xmlns="http://www.w3.org/2000/svg" xmlns:xlink="http://www.w3.org/1999/xlink" width="913.477" height="377.053" viewBox="0 0 685.107 282.79"><defs><style>*{stroke-linejoin:round;stroke-linecap:butt}</style></defs><g id="figure_1"><path id="patch_1" d="M0 282.79h685.107V0H0v282.79z" style="fill:none"/><g id="axes_1"><path id="patch_2" d="M71.308 266.112h613.8V0h-613.8v266.112z" style="fill:none"/><g id="matplotlib.axis_1"><g id="xtick_1"><g id="line2d_1"><defs><path id="m7020637dff" d="M0 0v3.5" style="stroke:gray;stroke-width:.8"/></defs><use xlink:href="#m7020637dff" x="99.207" y="266.112" style="fill:gray;stroke:gray;stroke-width:.8"/></g><g id="text_1" style="fill:gray" transform="matrix(.1 0 0 -.1 96.026 280.71)"><defs><path id="DejaVuSans-30" d="M2034 4250q-487 0-733-480-245-479-245-1442 0-959 245-1439 246-480 733-480 491 0 736 480 246 480 246 1439 0 963-246 1442-245 480-736 480zm0 500q785 0 1199-621 414-620 414-1801 0-1178-414-1799Q2819-91 2034-91q-784 0-1198 620-414 621-414 1799 0 1181 414 1801 414 621 1198 621z" transform="scale(.01563)"/></defs><use xlink:href="#DejaVuSans-30"/></g></g><g id="xtick_2"><use xlink:href="#m7020637dff" id="line2d_2" x="168.958" y="266.112" style="fill:gray;stroke:gray;stroke-width:.8"/><g id="text_2" style="fill:gray" transform="matrix(.1 0 0 -.1 159.414 280.71)"><defs><path id="DejaVuSans-35" d="M691 4666h2478v-532H1269V2991q137 47 274 70 138 23 276 23 781 0 1237-428 457-428 457-1159 0-753-469-1171Q2575-91 1722-91q-294 0-599 50Q819 9 494 109v635q281-153 581-228t634-75q541 0 856 284 316 284 316 772 0 487-316 771-315 285-856 285-253 0-505-56-251-56-513-175v2344z" transform="scale(.01563)"/></defs><use xlink:href="#DejaVuSans-35"/><use xlink:href="#DejaVuSans-30" x="63.623"/><use xlink:href="#DejaVuSans-30" x="127.246"/></g></g><g id="xtick_3"><use xlink:href="#m7020637dff" id="line2d_3" x="238.708" y="266.112" style="fill:gray;stroke:gray;stroke-width:.8"/><g id="text_3" style="fill:gray" transform="matrix(.1 0 0 -.1 225.982 280.71)"><defs><path id="DejaVuSans-31" d="M794 531h1031v3560L703 3866v575l1116 225h631V531h1031V0H794v531z" transform="scale(.01563)"/></defs><use xlink:href="#DejaVuSans-31"/><use xlink:href="#DejaVuSans-30" x="63.623"/><use xlink:href="#DejaVuSans-30" x="127.246"/><use xlink:href="#DejaVuSans-30" x="190.869"/></g></g><g id="xtick_4"><use xlink:href="#m7020637dff" id="line2d_4" x="308.457" y="266.112" style="fill:gray;stroke:gray;stroke-width:.8"/><g id="text_4" style="fill:gray" transform="matrix(.1 0 0 -.1 295.733 280.71)"><use xlink:href="#DejaVuSans-31"/><use xlink:href="#DejaVuSans-35" x="63.623"/><use xlink:href="#DejaVuSans-30" x="127.246"/><use xlink:href="#DejaVuSans-30" x="190.869"/></g></g><g id="xtick_5"><use xlink:href="#m7020637dff" id="line2d_5" x="378.207" y="266.112" style="fill:gray;stroke:gray;stroke-width:.8"/><g id="text_5" style="fill:gray" transform="matrix(.1 0 0 -.1 365.483 280.71)"><defs><path id="DejaVuSans-32" d="M1228 531h2203V0H469v531q359 372 979 998 621 627 780 809 303 340 423 576 121 236 121 464 0 372-261 606-261 235-680 235-297 0-627-103-329-103-704-313v638q381 153 712 231 332 78 607 78 725 0 1156-363 431-362 431-968 0-288-108-546-107-257-392-607-78-91-497-524-418-433-1181-1211z" transform="scale(.01563)"/></defs><use xlink:href="#DejaVuSans-32"/><use xlink:href="#DejaVuSans-30" x="63.623"/><use xlink:href="#DejaVuSans-30" x="127.246"/><use xlink:href="#DejaVuSans-30" x="190.869"/></g></g><g id="xtick_6"><use xlink:href="#m7020637dff" id="line2d_6" x="447.957" y="266.112" style="fill:gray;stroke:gray;stroke-width:.8"/><g id="text_6" style="fill:gray" transform="matrix(.1 0 0 -.1 435.233 280.71)"><use xlink:href="#DejaVuSans-32"/><use xlink:href="#DejaVuSans-35" x="63.623"/><use xlink:href="#DejaVuSans-30" x="127.246"/><use xlink:href="#DejaVuSans-30" x="190.869"/></g></g><g id="xtick_7"><use xlink:href="#m7020637dff" id="line2d_7" x="517.707" y="266.112" style="fill:gray;stroke:gray;stroke-width:.8"/><g id="text_7" style="fill:gray" transform="matrix(.1 0 0 -.1 504.983 280.71)"><defs><path id="DejaVuSans-33" d="M2597 2516q453-97 707-404 255-306 255-756 0-690-475-1069Q2609-91 1734-91q-293 0-604 58T488 141v609q262-153 574-231 313-78 654-78 593 0 904 234t311 681q0 413-289 645-289 233-804 233h-544v519h569q465 0 712 186t247 536q0 359-255 551-254 193-729 193-260 0-557-57-297-56-653-174v562q360 100 674 150t592 50q719 0 1137-327 419-326 419-882 0-388-222-655t-631-370z" transform="scale(.01563)"/></defs><use xlink:href="#DejaVuSans-33"/><use xlink:href="#DejaVuSans-30" x="63.623"/><use xlink:href="#DejaVuSans-30" x="127.246"/><use xlink:href="#DejaVuSans-30" x="190.869"/></g></g><g id="xtick_8"><use xlink:href="#m7020637dff" id="line2d_8" x="587.457" y="266.112" style="fill:gray;stroke:gray;stroke-width:.8"/><g id="text_8" style="fill:gray" transform="matrix(.1 0 0 -.1 574.732 280.71)"><use xlink:href="#DejaVuSans-33"/><use xlink:href="#DejaVuSans-35" x="63.623"/><use xlink:href="#DejaVuSans-30" x="127.246"/><use xlink:href="#DejaVuSans-30" x="190.869"/></g></g><g id="xtick_9"><use xlink:href="#m7020637dff" id="line2d_9" x="657.207" y="266.112" style="fill:gray;stroke:gray;stroke-width:.8"/><g id="text_9" style="fill:gray" transform="matrix(.1 0 0 -.1 644.482 280.71)"><defs><path id="DejaVuSans-34" d="M2419 4116 825 1625h1594v2491zm-166 550h794V1625h666v-525h-666V0h-628v1100H313v609l1940 2957z" transform="scale(.01563)"/></defs><use xlink:href="#DejaVuSans-34"/><use xlink:href="#DejaVuSans-30" x="63.623"/><use xlink:href="#DejaVuSans-30" x="127.246"/><use xlink:href="#DejaVuSans-30" x="190.869"/></g></g></g><g id="matplotlib.axis_2"><g id="ytick_1"><g id="line2d_10"><defs><path id="m899d289df5" d="M0 0h-3.5" style="stroke:gray;stroke-width:.8"/></defs><use xlink:href="#m899d289df5" x="71.308" y="242.29" style="fill:gray;stroke:gray;stroke-width:.8"/></g><g id="text_10" style="fill:gray" transform="matrix(.16 0 0 -.16 0 248.369)"><defs><path id="DejaVuSans-2212" d="M678 2272h4006v-531H678v531z" transform="scale(.01563)"/></defs><use xlink:href="#DejaVuSans-2212"/><use xlink:href="#DejaVuSans-32" x="83.789"/><use xlink:href="#DejaVuSans-30" x="147.412"/><use xlink:href="#DejaVuSans-30" x="211.035"/><use xlink:href="#DejaVuSans-30" x="274.658"/><use xlink:href="#DejaVuSans-30" x="338.281"/></g></g><g id="ytick_2"><use xlink:href="#m899d289df5" id="line2d_11" x="71.308" y="197.271" style="fill:gray;stroke:gray;stroke-width:.8"/><g id="text_11" style="fill:gray" transform="matrix(.16 0 0 -.16 0 203.35)"><use xlink:href="#DejaVuSans-2212"/><use xlink:href="#DejaVuSans-31" x="83.789"/><use xlink:href="#DejaVuSans-30" x="147.412"/><use xlink:href="#DejaVuSans-30" x="211.035"/><use xlink:href="#DejaVuSans-30" x="274.658"/><use xlink:href="#DejaVuSans-30" x="338.281"/></g></g><g id="ytick_3"><use xlink:href="#m899d289df5" id="line2d_12" x="71.308" y="152.251" style="fill:gray;stroke:gray;stroke-width:.8"/><use xlink:href="#DejaVuSans-30" id="text_12" style="fill:gray" transform="matrix(.16 0 0 -.16 54.127 158.33)"/></g><g id="ytick_4"><use xlink:href="#m899d289df5" id="line2d_13" x="71.308" y="107.232" style="fill:gray;stroke:gray;stroke-width:.8"/><g id="text_13" style="fill:gray" transform="matrix(.16 0 0 -.16 13.408 113.31)"><use xlink:href="#DejaVuSans-31"/><use xlink:href="#DejaVuSans-30" x="63.623"/><use xlink:href="#DejaVuSans-30" x="127.246"/><use xlink:href="#DejaVuSans-30" x="190.869"/><use xlink:href="#DejaVuSans-30" x="254.492"/></g></g><g id="ytick_5"><use xlink:href="#m899d289df5" id="line2d_14" x="71.308" y="62.213" style="fill:gray;stroke:gray;stroke-width:.8"/><g id="text_14" style="fill:gray" transform="matrix(.16 0 0 -.16 13.408 68.292)"><use xlink:href="#DejaVuSans-32"/><use xlink:href="#DejaVuSans-30" x="63.623"/><use xlink:href="#DejaVuSans-30" x="127.246"/><use xlink:href="#DejaVuSans-30" x="190.869"/><use xlink:href="#DejaVuSans-30" x="254.492"/></g></g><g id="ytick_6"><use xlink:href="#m899d289df5" id="line2d_15" x="71.308" y="17.194" style="fill:gray;stroke:gray;stroke-width:.8"/><g id="text_15" style="fill:gray" transform="matrix(.16 0 0 -.16 13.408 23.272)"><use xlink:href="#DejaVuSans-33"/><use xlink:href="#DejaVuSans-30" x="63.623"/><use xlink:href="#DejaVuSans-30" x="127.246"/><use xlink:href="#DejaVuSans-30" x="190.869"/><use xlink:href="#DejaVuSans-30" x="254.492"/></g></g></g><path id="line2d_16" d="m99.207 152.258 2.538-.013 2.538.012 2.537-.012 2.538.013 2.256-.006.846.045.282-.195.282 1.08.282 16.543.281 2.872.282 1.181.564 7.844.282 1.97.282 1.051.282 2.008.282-.663.282-7.64 1.128-56.832.282-7.011.282-4.155.282-2.007.282.973.564 8.906 1.41 29.287.564 18.307.281 3.862.282.14.564-2.416.846-6.55.564-1.63.282-.17.282 1.718.564 5.791.282 1.49.282.59.282-.836.564-3.968.282.764.282 1.62.564.673.282 1.873.564 4.802.563 2.218.846 2.292.282-2.09.282-8.642 1.128-53.437.282-6.946.282-1.914.282 1.978.564 7.055.846 17.354.564 13.49.564 15.54.282 4.399.282.309.563-4.96.282-.122.282.45.564-1.989.282.157.282.591.282.103.282.691.564 2.925.564-.074.564 1.083.282.274.282 1.367.564 3.655.564 1.537.282.832.282.224.282.697.563 3.603.282-.062.282-1.528.282-4.24.282-9.81.846-42.728.282-8.707.282-4.123.282.118.282 2.176.282 3.213 1.128 21.059.564 16.465.564 16.447.282 3.17.282-1.368.282-2.631.563-1.927.564-8.763.282-1.49.564 1.483.282.616.282 2.238.846 9.595.282 1.745.564-1.227.282 1.525.282 2.158.564 1.556.564 3.585.282-.228.282.788.564 4.514.282.051.281-1.996.282-6.462.564-27.836.846-43.066.282-5.903.282-.178.282.98.282 1.703.282 5.955.564 19.489.846 20.662.564 21.274.282 4.083.282-.977.846-5.655.282-1.263.563-.424.564-1.74.282.478 1.41 5.572 1.128 7.381.564 1.578.282.983.846 7.03.564 3.869.282-.206.282-6.115.564-27.879.845-45.902.282-8.73.282-4.036.282.592.846 9.565 1.128 24.916 1.128 37.202.282 2.697.282.711.282.386.282.973.282-.194.564-3.762.282.717.282-.656.563-6.932.282 1.302.282 2.626.282.127.282-1.359.282.796.846 11.504.282.084.282.826.564 3.965.282 1.242.846 8.25.282.88.282-2.162.282-10.016.846-53.487.563-22.033.282-7.508.282-4.038.282-1.029.282 1.943.564 11.157.564 15.856 1.41 43.935.282 3.27.282-1.369.564-5.062.282-.017.282.728.282.103.282-.43.282.284.845 4.882.564 3.87.282.843.282.128.282 1.61.564 5.807.282.663.282.993.564 4.289.282.925.282 1.449.564 3.988.282 1.173.282.627.282-3.248.282-11.231 1.128-71.4.564-15.318.281-3.847.282-2.082.282 1.355.282 5.734 1.41 46.585.564 23.577.282 7.668.282 2.311.282-1.47.564-7.043.282-3.898.282-1.884.564 1.055.282.037.282 2.185.564 9.902.282-.979.281-4.116.282-1.78.564 2.666.282.266.282 1.435.846 10.096 1.128 7.045.564 1.422.282.711.282-1.24.282-7.402.564-34.692.564-32.102.564-16.27.282-3.875.281-2.104.282.227.282 4.418 1.41 43.48.564 25.579.282 7.094.282.99.846-4.944.846-7.796.282-.943.282-.465.282.659 1.128 6.45.563 2.374.282.579.282 1.002.564 2.973.282.656.282 1.117 1.128 10.413.564 2.262.282.187.282-2.675.282-8.709 1.41-73.835.282-3.91.282-.676.282 2.533.563 14.957.846 24.24.564 22.829.282 5.714.282 2.48.282.5.282-2.039.564-5.44.282-.654.564-2.235.282-.082.282.398.282-.881.282-1.91.282-.521.282 2.237.282 3.416.282 1.902.282.25.282.634.563 3.16.564 2.635.282 1.399.282.703.282 1.604.846 9.168.564 2.735.282-2.952.282-9.842 1.128-61.453.282-9.088.282-4.77.282-1.413.282.909.282 3.915 1.127 32.966.846 29.342.282 5.616.282 2.92.282-.129.564-5.096.846-8.045.282.574.282.964.282.41.282 1.827.564 7.894.282 2.075.282.65.564.116.282.735.564 2.217.845 4.55.282.238.282 1.507.282 2.224.282.259.282-1.843.282-2.658.282-5.588.282-12.442.846-51.4.564-17.664.282-6.335.282-3.256.282.283.282 2.665.282 4.642.564 16.008.564 21.818.845 37.929.282 7.208.282 3.104.282-1.624.564-6.624.282-2.394.564-6.992.282-.693.282 1.801.282 3.432.846 13.59.564 6.05.282 1.37.282-.83.282-.391.282.955.282-.74.564-5.726.281 1.52L265 193.306l.282-1.452.282-9.777.564-40.694.564-40.583.846-40.468.282-7.585.282-3.059.282.941.282 4.193.282 7.785.282 12.482.564 39.334.564 42.658.282 13.58.281 6.05.282.18 1.41-12.438.282-.83.564 2.531.282.202.282 1.798.564 8.303.564 4.372.846 15.433.282 1.446.282 2.08.564 7.843.282 1.944.282.323.282.63.281.265.282-4.791.282-13.925 1.128-78.454.846-45.76.282-7.512.282-4.237.282-2.45.282.589.282 4.883.282 9.068.282 14.685 1.128 89.315.282 7.345.282 2.927.282-.561.563-4.112.282-1.217.846-6.096.282-.64.282.289.282.45.282.054.282.581.564 3.81.282.52.282 1.153.564 8.862.846 13.8 1.128 12.179.282 1.31.282-.967.282-6.412.281-15.29 1.128-82.56.564-29.726.564-20.957.282-6.226.282-2.609.282.581.282 4.512.282 10.841.564 42.057.564 44.927.564 27.378.282 3.579.846-3.342.282-1.56.563-3.93.282-.72.282-.028.846 2.184.282 1.618.282 2.402.282 1.222.282.189.282 2.008.564 7.57.564 4.598.564 6.453.846 4.309.282 2.314.282-1.023.282-9.798 1.691-110.964.564-25.52.282-8.149.282-4.028.282-.819.282 2.306.282 6.168.282 10.81.282 17.323.846 72.917.282 10.293.564 9.546.282 2.957.282.57.282-.164.282-.01.282-.247.282.29.563 4.654.564 4.348.564 6.566.282 1.179.282-2.257.282-3.877.282-1.654.564 4.495.282-.341.282-1.247.282 1.76.846 12.98.282 3.575.282 1.208.282-5.33.282-14.193 1.41-100.135.563-28.315.564-19.067.282-5.474.282.096.282 5.148.282 8.832.282 13.28 1.41 90.814.282 5.025.564 5.915.282 3.367.564 2.85.564 5.175.563 1.31.564 3.25.282.577.282 1.105.564 5.72.564 3.285.564 5.684.282-.16.282.04.564 5.447.564-1.528.564 5.26.282-7.938 1.973-123.4.564-24.393.282-8.63.282-3.064.282 3.531.564 18.937.282 15.821 1.128 83.675.282 6.964.282 3.319.282 1.826.282.631.282-.47.564-2.21.564-2.907.282-.273.564 1.934.563-2.365.282 2.57.564 12.467 1.41 16.796.282-.096.282-.933.282.157.564 3.29.282-1.034.282-6.737.282-14.173 1.41-92.626.564-20.247.282-5.511.281-2.941.282.587.282 5.693.282 12.719 1.128 78.625.282 7.849.282 2.725.282-1.166.282-2.023.282.316.282 2.05.282.47.282-1.485.282-.56.282 1.754.564 4.29.564 3.071.846 6.021.563 5.906.564 5.535.564 4.47.846 6.963.564 4.98.282 1.273.282-3.176.282-10.928.846-60.858.846-52.93.846-43.619.282-2.594.282 4.628.563 15.466.282 15.724.846 65.665.564 22 .564 12.284.282 2.27.282.115.282.826.564 3.545.282.243.282.807.564 2.937.282 1.23.282 2.289 1.41 17.094 1.973 28.293.282 3.203.282-2.012.282-10.307.564-38.851 1.41-100.057.282-16.145.564-14.771.846-24.488.282-2.587.282 3.454.281 9.24.564 32.401.846 52.283.564 29.977.564 17.278.846 16.423.846 8.612.564 2.283.282 2.594.564 6.904.282 2.155.282 3.208 1.691 29.486.282 1.311.282-4.933.282-14.783 2.256-171.157.564-28.387.282-5.015.282-1.953.282.43.282 4.8.282 9.449.564 30.042 1.41 93.18.563 24.046.282 7.303.282 4.212.282 1.58.282.733.282 1.542.564 4.285.282 1.576.282 2.34 1.128 15.199 1.41 26.894.282 3.412.282 1.284.281-1.519.282-9.733.564-49.883 1.41-131.306.564-33.552.282-8.768.282-2.97.282-.287.282.81.282 3.512.282 8.1.564 28.88 1.692 115.847.281 14.421.282 8.54.564 6.889.282 1.06.282-1.306.564-3.669.846-2.227.282 1.545.564 6.607.564 8.833 1.41 24.342.564 7 .282-2.683.282-15.25 1.973-165.958.564-22.536.282-3.286.282-.945.282.092.282 4.623.564 25.359.564 29.524 1.41 86.357.282 11.786.282 6.359.282 2.87.282 1.216.281-.245.282-1.795.564-4.564.282-.667.282.417.282 1.248.564 5.526 1.41 16.64L426 230.25l.282 2.271.282-4.848.282-15.087.846-73.444.564-52.875.563-35.386.282-9.778.564-7.606.282-2.775.282 1.719.282 8.2.564 25.844 1.41 72.76.846 32.214.564 17.503.564 10.215.282 2.807.282 1.529.282.69.281 1.234.564 5.847.564 2.572.846 9.582.282 1.3.282 3.208.846 14.127.282 1.487.282-7.325.564-44.803 1.41-136.66.282-9.689.282-4.36.563-3.367.282-.021.282 3.09.564 13.945.564 24.625.564 27.802 1.128 39.815.564 13.798 1.974 34.91.564 9.26 2.255 42.138.282 3.726.282 1.933.282-1.641.282-10.65.564-52.283 1.128-115.843.282-12.927.564-12.808.282-2.092.282 1.263.282 3.322.282 4.903.564 17.429 1.41 56.44.563 13.14 1.128 21 .282 1.746.282.155.282 1.489.564 6.773.282 1.31.282 3.302.846 21.017.282 5.141 1.691 45.221.564 5.734.282.498.282-10.157.564-53.314.846-96.164.282-18.848.564-17.446.282-4.795.282-1.348.282 1.291.282 2.446.282 4.043.282 6.795.564 21.205.846 33.522.845 24.193.282 4.09.564 2.244.564 3.12.282 1.06.282 2.622 1.974 32.347.564 16.743.564 16.555.846 15.931.563 6.895.282.434.282-7.783.282-18.43.564-57.615.564-62.238.282-20.276.564-19.718.282-4.917.282-1.416.282 1.05.282 2.633.282 5.823.846 33.205.846 30.745.564 14.076.564 8.428 1.127 12.337 1.41 8.484.282 3.03.564 12.013 1.128 25.536 1.692 33.62.282-3.663.282-14.056.563-54.338.564-68.09.282-22.906.564-20.787.282-4.306.282.158.564 5.867.282 4.703.564 18.815.846 34.94.846 22.149.564 9.172.564 6.739 1.127 4.48.282.327.282.708.564 3.793.564 6.518 1.41 21.391 1.128 29.864.282 3.953.282-2.593.282-13.317.564-55.023.564-50.021.564-22.775.281-5.247.282-2.353.282-.567.282.96.282 3.313.564 12.338.564 18.202.564 19.571.564 11.122.564 7.072.846 5.253.564-1.058.282 1.161.564 4.464.564 2.319.281 2.204 1.128 14.232 1.974 31.058.282.907.282-5.957.564-42.385.282-19.875.564-18.146.564-15.756.282-4.156.846-5.726.281.24.282 2.476.282 4.28.564 14.475.564 16.75.564 8.956.564 4.38.564 3.472.282.291.282-.621.282-.279.282.24.282.491.282 1.32.282 1.93.282.642.282-.684.282.773 1.41 16.672 1.691 32.16.282 4.192.282-5.772 1.128-73.36.564-18.424.564-9.007.282-3.145.282-1.29.282.655.282 1.652.282 2.394.564 8.44.563 14.042.564 16.412.282 5.538.282 2.959.564 2.847.564 3.427.282-.107.282-1.033.282-.584.282.265.282.6.282.221.282-.176.282.576.846 8.175.282.582.282 1.459 1.127 11.623.564 10.596.564 6.417.282.603.282-8.957.846-54.041.564-17.152.564-11.487.846-6.178.282-.3.282 3.087.846 15.853.846 26.075.281 3.115.282 1.388.564 4.198.282-.13.282-.413.564 1.488.282-.609.282-.22 1.41 5.767.564 5.298.564 5.678 1.41 13.356.563 7.469.282 1.643.282 3.04.282 1.748.282-6.927 1.128-60.364.564-17.214.564-6.86.282-2.72.282-.739.282 2.837.846 17.33.846 19.408.564 7.72.282 1.646.282.238.281.773.564 4.03.282-.206.282-1.044.282-.392.282.014.282.134.282 1.047.564 2.924.282.86.846 6.112.282 1.968.564 6.068.282.606.282-.744.282.637.564 5.726.564 5.752.281-1.911.282-9.71.564-29.651.564-17.29.564-11.552.564-3.903.282-1.4.282.093.282 2.095.282 3.58.564 12.834.564 14.426.564 7.948.282 1.253.282.335.282.536.564 1.344.281-.33.564-1.845.282.916.282 1.529.564 1.64.564 4.448.564 2.582.564 4.808.846 5.351.282 1.835.282 2.938.846 11.162.282-.046.282-7.558.846-41.549.845-18.829.564-5.066.282-1.472.282.292.564 1.785.282 2.494.846 18.213.564 11.492.282 2.628.564 2.472.282 1.179.282-.319.282-.608.282.004.282-1.023.564-4.65.281 1.678.282 3.015.282.857.282-.054.282 2.888.564 8.599.282.667.282 1.415.282 2.7.564 2.442 1.128 12.382.282.692.282-6.381.846-37.42.846-17.502.564-8.087.281-5.273.282-2.603.282 1.001.564 6.348.564 8.697.846 19.274.282 2.258.282.566.282.25.282-.074.282-.298.282.2.282.45.564.015.282 1.439.564 4.03.564 3.183.563 3.864.846 7.303.282 1.375 1.128 11.429.564 3.753.282-.849.282-4.035.282-8.152.846-32.25.564-11.252.564-7.465.564-4.634.282-.705.282 1.57 1.691 26.114.282 4.418.282 2.333.564 2.1.282.122.564.077.282-.66.564-3.223.282-.23.282.18.564-1.543.282.567.282 3.28.564 10.116.282 2.353.282 1.014 1.127 7.159 1.128 9.572.282 1.112.282-4.473.846-34.997.846-14.166.282-3.378.282-.29.282 1.111.564.713.846 5.18.282 3.076.845 13.37.564 5.31.282 1.022.282-.973.564-3.71.282.95.282 2.012.282-.183.282-2.331.282-.435.564 6.184.282.06.282-.318.564 5.051.282.042.282-1.434.282.083.282 1.167.563.905.564 4.764.846 9.053.282-1.796 1.41-36.343.846-8.544.282-1.334.282.448.282-.108.282-1.746.282-.089.282 4.779.564 12.749.564 3.7.563 7.487.282.31.282-1.508.282-.713.282-.082.564-1.33.282.311 1.692 5.52 1.41 3.23.282 1.363.564 4.997 1.127 11.495.282.32.282-5.738.564-20.768.846-20.53.282-3.3.564 1.583.282-.634.282.08.846 3.685.282 3.479.564 10.781.282 3.128.282 1.254.282.486.282.239.282-.29.282-.919.281-.239h0" clip-path="url(#pbda4c29099)" style="fill:none;stroke:#1f77b4;stroke-width:1.5;stroke-linecap:square"/><path id="patch_3" d="M71.308 266.112V0" style="fill:none;stroke:gray;stroke-width:.8;stroke-linejoin:miter;stroke-linecap:square"/><path id="patch_4" d="M685.107 266.112V0" style="fill:none;stroke:#000;stroke-width:.8;stroke-linejoin:miter;stroke-linecap:square"/><path id="patch_5" d="M71.308 266.112h613.8" style="fill:none;stroke:gray;stroke-width:.8;stroke-linejoin:miter;stroke-linecap:square"/><path id="patch_6" d="M71.308 0h613.8" style="fill:none;stroke:#000;stroke-width:.8;stroke-linejoin:miter;stroke-linecap:square"/></g></g><defs><clipPath id="pbda4c29099"><path d="M71.308 0h613.8v266.112h-613.8z"/></clipPath></defs></svg>