<svg xmlns="http://www.w3.org/2000/svg" xmlns:xlink="http://www.w3.org/1999/xlink" width="913.477" height="377.053" viewBox="0 0 685.107 282.79"><defs><style>*{stroke-linejoin:round;stroke-linecap:butt}</style></defs><g id="figure_1"><path id="patch_1" d="M0 282.79h685.107V0H0v282.79z" style="fill:none"/><g id="axes_1"><path id="patch_2" d="M71.308 266.112h613.8V0h-613.8v266.112z" style="fill:none"/><g id="matplotlib.axis_1"><g id="xtick_1"><g id="line2d_1"><defs><path id="m16b35b3046" d="M0 0v3.5" style="stroke:gray;stroke-width:.8"/></defs><use xlink:href="#m16b35b3046" x="99.207" y="266.112" style="fill:gray;stroke:gray;stroke-width:.8"/></g><g id="text_1" style="fill:gray" transform="matrix(.1 0 0 -.1 96.026 280.71)"><defs><path id="DejaVuSans-30" d="M2034 4250q-487 0-733-480-245-479-245-1442 0-959 245-1439 246-480 733-480 491 0 736 480 246 480 246 1439 0 963-246 1442-245 480-736 480zm0 500q785 0 1199-621 414-620 414-1801 0-1178-414-1799Q2819-91 2034-91q-784 0-1198 620-414 621-414 1799 0 1181 414 1801 414 621 1198 621z" transform="scale(.01563)"/></defs><use xlink:href="#DejaVuSans-30"/></g></g><g id="xtick_2"><use xlink:href="#m16b35b3046" id="line2d_2" x="168.958" y="266.112" style="fill:gray;stroke:gray;stroke-width:.8"/><g id="text_2" style="fill:gray" transform="matrix(.1 0 0 -.1 159.414 280.71)"><defs><path id="DejaVuSans-35" d="M691 4666h2478v-532H1269V2991q137 47 274 70 138 23 276 23 781 0 1237-428 457-428 457-1159 0-753-469-1171Q2575-91 1722-91q-294 0-599 50Q819 9 494 109v635q281-153 581-228t634-75q541 0 856 284 316 284 316 772 0 487-316 771-315 285-856 285-253 0-505-56-251-56-513-175v2344z" transform="scale(.01563)"/></defs><use xlink:href="#DejaVuSans-35"/><use xlink:href="#DejaVuSans-30" x="63.623"/><use xlink:href="#DejaVuSans-30" x="127.246"/></g></g><g id="xtick_3"><use xlink:href="#m16b35b3046" id="line2d_3" x="238.708" y="266.112" style="fill:gray;stroke:gray;stroke-width:.8"/><g id="text_3" style="fill:gray" transform="matrix(.1 0 0 -.1 225.982 280.71)"><defs><path id="DejaVuSans-31" d="M794 531h1031v3560L703 3866v575l1116 225h631V531h1031V0H794v531z" transform="scale(.01563)"/></defs><use xlink:href="#DejaVuSans-31"/><use xlink:href="#DejaVuSans-30" x="63.623"/><use xlink:href="#DejaVuSans-30" x="127.246"/><use xlink:href="#DejaVuSans-30" x="190.869"/></g></g><g id="xtick_4"><use xlink:href="#m16b35b3046" id="line2d_4" x="308.457" y="266.112" style="fill:gray;stroke:gray;stroke-width:.8"/><g id="text_4" style="fill:gray" transform="matrix(.1 0 0 -.1 295.733 280.71)"><use xlink:href="#DejaVuSans-31"/><use xlink:href="#DejaVuSans-35" x="63.623"/><use xlink:href="#DejaVuSans-30" x="127.246"/><use xlink:href="#DejaVuSans-30" x="190.869"/></g></g><g id="xtick_5"><use xlink:href="#m16b35b3046" id="line2d_5" x="378.207" y="266.112" style="fill:gray;stroke:gray;stroke-width:.8"/><g id="text_5" style="fill:gray" transform="matrix(.1 0 0 -.1 365.483 280.71)"><defs><path id="DejaVuSans-32" d="M1228 531h2203V0H469v531q359 372 979 998 621 627 780 809 303 340 423 576 121 236 121 464 0 372-261 606-261 235-680 235-297 0-627-103-329-103-704-313v638q381 153 712 231 332 78 607 78 725 0 1156-363 431-362 431-968 0-288-108-546-107-257-392-607-78-91-497-524-418-433-1181-1211z" transform="scale(.01563)"/></defs><use xlink:href="#DejaVuSans-32"/><use xlink:href="#DejaVuSans-30" x="63.623"/><use xlink:href="#DejaVuSans-30" x="127.246"/><use xlink:href="#DejaVuSans-30" x="190.869"/></g></g><g id="xtick_6"><use xlink:href="#m16b35b3046" id="line2d_6" x="447.957" y="266.112" style="fill:gray;stroke:gray;stroke-width:.8"/><g id="text_6" style="fill:gray" transform="matrix(.1 0 0 -.1 435.233 280.71)"><use xlink:href="#DejaVuSans-32"/><use xlink:href="#DejaVuSans-35" x="63.623"/><use xlink:href="#DejaVuSans-30" x="127.246"/><use xlink:href="#DejaVuSans-30" x="190.869"/></g></g><g id="xtick_7"><use xlink:href="#m16b35b3046" id="line2d_7" x="517.707" y="266.112" style="fill:gray;stroke:gray;stroke-width:.8"/><g id="text_7" style="fill:gray" transform="matrix(.1 0 0 -.1 504.983 280.71)"><defs><path id="DejaVuSans-33" d="M2597 2516q453-97 707-404 255-306 255-756 0-690-475-1069Q2609-91 1734-91q-293 0-604 58T488 141v609q262-153 574-231 313-78 654-78 593 0 904 234t311 681q0 413-289 645-289 233-804 233h-544v519h569q465 0 712 186t247 536q0 359-255 551-254 193-729 193-260 0-557-57-297-56-653-174v562q360 100 674 150t592 50q719 0 1137-327 419-326 419-882 0-388-222-655t-631-370z" transform="scale(.01563)"/></defs><use xlink:href="#DejaVuSans-33"/><use xlink:href="#DejaVuSans-30" x="63.623"/><use xlink:href="#DejaVuSans-30" x="127.246"/><use xlink:href="#DejaVuSans-30" x="190.869"/></g></g><g id="xtick_8"><use xlink:href="#m16b35b3046" id="line2d_8" x="587.457" y="266.112" style="fill:gray;stroke:gray;stroke-width:.8"/><g id="text_8" style="fill:gray" transform="matrix(.1 0 0 -.1 574.732 280.71)"><use xlink:href="#DejaVuSans-33"/><use xlink:href="#DejaVuSans-35" x="63.623"/><use xlink:href="#DejaVuSans-30" x="127.246"/><use xlink:href="#DejaVuSans-30" x="190.869"/></g></g><g id="xtick_9"><use xlink:href="#m16b35b3046" id="line2d_9" x="657.207" y="266.112" style="fill:gray;stroke:gray;stroke-width:.8"/><g id="text_9" style="fill:gray" transform="matrix(.1 0 0 -.1 644.482 280.71)"><defs><path id="DejaVuSans-34" d="M2419 4116 825 1625h1594v2491zm-166 550h794V1625h666v-525h-666V0h-628v1100H313v609l1940 2957z" transform="scale(.01563)"/></defs><use xlink:href="#DejaVuSans-34"/><use xlink:href="#DejaVuSans-30" x="63.623"/><use xlink:href="#DejaVuSans-30" x="127.246"/><use xlink:href="#DejaVuSans-30" x="190.869"/></g></g></g><g id="matplotlib.axis_2"><g id="ytick_1"><g id="line2d_10"><defs><path id="m2ab189ebaf" d="M0 0h-3.5" style="stroke:gray;stroke-width:.8"/></defs><use xlink:href="#m2ab189ebaf" x="71.308" y="216.824" style="fill:gray;stroke:gray;stroke-width:.8"/></g><g id="text_10" style="fill:gray" transform="matrix(.16 0 0 -.16 0 222.903)"><defs><path id="DejaVuSans-2212" d="M678 2272h4006v-531H678v531z" transform="scale(.01563)"/></defs><use xlink:href="#DejaVuSans-2212"/><use xlink:href="#DejaVuSans-32" x="83.789"/><use xlink:href="#DejaVuSans-30" x="147.412"/><use xlink:href="#DejaVuSans-30" x="211.035"/><use xlink:href="#DejaVuSans-30" x="274.658"/><use xlink:href="#DejaVuSans-30" x="338.281"/></g></g><g id="ytick_2"><use xlink:href="#m2ab189ebaf" id="line2d_11" x="71.308" y="151.323" style="fill:gray;stroke:gray;stroke-width:.8"/><use xlink:href="#DejaVuSans-30" id="text_11" style="fill:gray" transform="matrix(.16 0 0 -.16 54.127 157.401)"/></g><g id="ytick_3"><use xlink:href="#m2ab189ebaf" id="line2d_12" x="71.308" y="85.821" style="fill:gray;stroke:gray;stroke-width:.8"/><g id="text_12" style="fill:gray" transform="matrix(.16 0 0 -.16 13.408 91.9)"><use xlink:href="#DejaVuSans-32"/><use xlink:href="#DejaVuSans-30" x="63.623"/><use xlink:href="#DejaVuSans-30" x="127.246"/><use xlink:href="#DejaVuSans-30" x="190.869"/><use xlink:href="#DejaVuSans-30" x="254.492"/></g></g><g id="ytick_4"><use xlink:href="#m2ab189ebaf" id="line2d_13" x="71.308" y="20.319" style="fill:gray;stroke:gray;stroke-width:.8"/><g id="text_13" style="fill:gray" transform="matrix(.16 0 0 -.16 13.408 26.398)"><use xlink:href="#DejaVuSans-34"/><use xlink:href="#DejaVuSans-30" x="63.623"/><use xlink:href="#DejaVuSans-30" x="127.246"/><use xlink:href="#DejaVuSans-30" x="190.869"/><use xlink:href="#DejaVuSans-30" x="254.492"/></g></g></g><path id="line2d_14" d="m99.207 151.318 3.948.014 1.41-.024.846.033.846-.04.845.049.282-.057.282.061.282-.065.282.07.282-.075.282.08.282-.087.282.094.282-.101.282.11.282-.12.282.132.282-.146.282.162.282-.181.282.204.282-.234.282.273.282-.324.282.396.282-.504.282.68.281-.95.282 14.826.282-.483 1.41-49.913.282.777 1.128 17.513.282 1.442.282.829.282-.84.564-2.245.282 1.547.282 4.156.564 12.416.282 3.953.282.514.564-3.383.281-.205.282.406.282-.056.282-.7.282.71.564 4.314.282.294.282-.562.282-.103.282.893.282.346.282-.671.282-1.242.846-1.53.282.255.564 4.523.282.773.282-.591.282.196.282.655.282.056.281-.193.282 1.393.564 4.14 1.128 2.388.564 1.22.282.852.564 2.248.282.02.564-1.105.282-3.341.282-8.896.846-40.802.282-6.36.282-.475 1.127 13.432.282.909.282-.183.282-.331.282.3.282 1.834.282 4.043 1.128 25.712.282 1.493.282-.983.282-1.572.282-.891.282-.095.282.06.282.247.282-.27.564-2.438.282.328.282 1.227.282.716.282.114.281.756.564 2.577.282.504.282-.253.282-.683.282-.045.282.238.282-.91.282-2.286.282-1.245.282.878.282 1.349.564.188.282 1.765.282 2.746.282 1.454.282-.011.282.22.564 3.21.282-.085.282-1.267.282-.344.563 1.772.282.25.282.525.282.932.282-.18.282-3.943.282-8.945.846-34.015.282-3.299.282 1.298.846 11.277.564 3.412.282.064.564-3.237.282.164.282 3.369.845 20.439.282 2.203.282-1.233.282-1.929.282-.68.282-.14.564-.856.282.246.282.777.846 3.254.282.338.282.678.564 2.108.846 1.426.282.065.564-1.579.846-2.98.281.152.564 1.02.282.177.282.313.282.766.564 2.679.282.676.282.09.282.612.282 1.983.564 6.46.282 1.704.846 1.112.282-2.002.282-6.762.564-24.29.564-24.519.282-6.483.281-.272.564 10.64.564 8.166.282 1.73.564 1.767.564.596.282 2.104.564 12.644.282 6.282.282 3.39.282.839.282-.697.564-1.878.282-.092.282.189.282.046.564-.72.282.253.845 2.752.282.276.282.49.846 2.66.282-.018.282-.173.564 1.23.282-1.221.282-1.995.282-.13.282 1.456.282.817.282-.057.282.784.282 1.412.846 2.45.282 1.166.564 1.02 1.41 5.198.281.348.282-1.044.282-4.026.282-8.759.846-38.15.282-7.84.282-3.374.282 1.697.846 12.642.282 2.565.282 1.194.564-1.029.282 1.306.282 2.459.282 3.503.281 6.285.564 16.452.282 2.633.282-1.113.564-3.207.564-1.377.564-1.042.282.95.564 5.134.282.531.282-.442.282.498.282 1.313.282.098.564-2.696.282.15.282.382.564-.66.282.103.563-.353.282.86.564 3.229.564.486 1.41 4.89 1.128 4.73.282 1.108.282 1.798.282.954.282-.422.282-.622.282-1.276.282-5.64.564-26.692.563-25.094.282-7.536.282-1.848.282 3.385.564 8.656.564 6.3.282 1.374.282.243.282.68.282 1.54.282 2.39.282 4.838.846 20.662.282 1.73.282-.348.846-4.379.282-.486.282-.222.281.597.564 2.977.564.275.564 3.394.282.18.564-2.18.282.237.282.567.282-.066.282-.31.282.105 1.128 2.225h.282l.282-.256.282 1.009.846 8.052.282.077.281.326.564 2.936.282.074.282-.624.282.186.564 1.526.564-.029.282-1.148.282-4.728.282-9.988 1.128-54.68.282-4.617.282 1.401 1.128 22.734.282 2.048.282.84.281 1.444.282 2.983.564 9.323.846 17.733.282.461.282-1.36.282-.603.564.82.564.409.282-.451.564-1.88.282.261.846 2.224.282.34.564.014.845 1.584.564.139.282-.314.282-.623.282-.045.846 2.714.282.972.846 6.992.846 3.348.564 1.858.564 3.367.282 1.782.282.827.282-.058.282-.385.282-1.53.281-5.645.564-27.235.846-43.742.282-6.253.282-.705.282 3.003 1.41 23.212.564 7.29.282 4.703.564 15.795.282 8.412.282 4.904.282.157.564-6.173.282-1.226.281-.04.282-.306.282-.486h.282l.846 1.487.564 1.861.282.368.564-.204.564.455.564-.443.282.005.282.199.282 1.03.846 8.138.282.231.282-.415.564-.032.281.203.282.987 1.128 5.984.846 3.685.564 3.916.282.84.282.12.564-.409.282-1.585.282-6.987 1.692-85.643.282-.681.563 9.943.564 7.612 1.41 24.606.564 18.293.282 10.804.282 6.367.282.645 1.128-6.811.564-2.794.282-.633.282-.155.282.635.564 2.404.282.511.563.27.282.301.282.492.564 1.258.282.201.282.49.564 2.488.282.239.282-.24.282.343 1.128 3.535.282.2.282.415.564 3.206.282.265.282-.508.282.452 1.127 6.176.564 3.678.282 1.282.282-.57.282-5.901.564-28.717.846-46.382.282-8.952.282-4.517.282-.804.282 2.362 1.128 16.457.846 24.675.845 33.053.282 2.595.282-.39.282-1.628.564-4.617.846-3.728.282-.294.282.802.282.286.282-.367.282 1 .564 4.649.282.072.282-.134.564 2.939.282.219.564-2.65.282-.41.564.387.281.051.282.444.846 2.958.282.465.282.729 2.538 13.096.846 8.851.282.317.282-1.218.282-4.2.282-9.854 1.691-87.425.282-5.186.282-2.869.282-1.057.282.116.282 1.384.282 3.473.564 12.741.282 8.45.282 12.356.846 51 .282 5.602.282-.905.282-2.089.282-.129.282.3.282-1.83.564-6.268.281-.603.564 1.254.564 1.117.282.279.282.73.564 2.576.282.143.282-.275.282.052.282-.112.282-.577.282-.284.282.501.282.049.564-2.942.282.022.564 2.693.846 1.929.563 2.252 1.974 10.497.564 5.291.282.88.282.01.282-2.262.282-7.318.564-30.487.846-50.588.564-18.444.282-5.356.282-1.1.564 5.12.281 3.427.282 5.497.564 18.004.564 35.576.282 18.534.282 10.648.282 3.04.282-.714.846-6.487.846-9.336.282-.322.564 2.35.846 5.208.282.315.282.635.282 1.154.281.548.282-.072.282.21.564 1.155.282.299.282.553.564 1.443.564.216.282.749.564 2.424.282.77.282 1.197.846 6.327.564 6.147.846 10.438.845 5.213.282.7.282-4.32.282-11.036.564-35.8.846-53.939.564-23.327.564-15.61.282-4.081.282-1.583.282 1.137.282 3.606.564 12.746.282 10.322.564 37.377.564 43.116.282 10.652.281 3.886.282.91.282-.058.282-.876.282-2.022.846-11.096.282-.907.282-.077.282.093.564 1.646.564-1.247.282 1.463.282 2.296.282.245.282-1.014.282.2.282 1.096.282.48.282.876 1.41 11.512.281 1.3.282-.231.282.295 1.974 12.086.564 5.673.564 5.439.282 2.034.282 1.218.282-1.256.282-5.935.282-11.895 1.973-123.94.282-8.372.282-3.522.282-1.17.282-.625.282-.163.282 1.325.282 4.15.282 7.252.282 10.494.282 15.345.846 65.553.282 11.544.282 5.302.564 5.849.282 1.865.282.105.282-1.91.845-9.828.282-1.232.282.508.282 1.047.282.292.282-.555.282-.27.282.606.282.96.282.504.282.204.564.89.282.112.282.26.564 2.205.564.394.282 1.362.846 6.13.846 8.787.563 4.418.564 5.295.846 10.303.282 1.596.282.92.282-2.254.282-8.692.564-35.759 1.128-81.839.282-14.217.282-8.173.564-6.286.564-4.98.282-.969.282-.336.281 1.674.282 6.472.564 29.4.846 57.126.282 11.136.564 10.384.564 8.233.282 2.403.282-.451.564-4.985.282-.509.564 2.264.282-.081.282-.228.564 1.552.282-1.04.282-1.995.281-.683.564 1.319.282.411.564 2.828.564 2.113.564 2.187.282 1.57.282 2.734 2.256 32.161.846 12.524.282 2.939.282.088.282-4.856.281-11.037.564-39.507 1.128-88.09.282-11.374 1.974-42.888.282-3.34.282-.683.282 3.92.564 22.506 1.691 84.185.282 6.774.282 3.657.564 3.715.846 11.47.564 2.566.846 6.888.846 11.532 1.974 16.877.282-1.675.282-2.519.281-.576.282.451.282-.284.282.074.846 6.46.282 2.353 1.41 19.573.564 7.93.282 3.048.282 1.248.282-3.73.282-11.104.564-41.568 1.128-94.1.563-23.504.846-32.09.564-16.651.282-2.769.282 1.298.282 4.308.282 7.98.564 33.445 1.128 71.372.564 25.669.564 10.56.282 3.153.282.185.282-2.52.564-6.35.281-.385.564 4.376 1.128 8.875.564 5.194.564 3.875.846 9.172.282 1.7.846 8.192.282-.38.282-1.122h.282l1.128 5.189.563 5.45.564 7.72.846 11.785.282 2.756.282 1.488.282-2.352.282-9.06.564-39.355 1.128-101.38 1.41-61.81.564-6.19.282-.028.282 4.027.281 8.185.564 28.058 1.692 100.693.564 15.532.282 3.393.282 1.517.282-.387.282-1.213.282-.23.282.476.282-1.142.282-2.635.282-1.14.564 2.502.564-2.541.282.748.563 3.667.282.295.282.638.564 2.798.282.607.282.95.564 4.255.564 5.636.846 9.656.846 10.295.846 10.987.846 14.312.282 1.783.282-.175.281-5.054.282-13.289.564-47.243 1.128-102.901.564-33.09.282-10.978.282-6.267.282-3.478.282-1.888.282.637.282 3.928.564 14.395.282 11.742 1.973 114.85.564 19.995.282 5.59.282 2.813.282.08.564-2.266.282-.746.282-1.432.564-4.28.564-2.047.564-1.981.282-.22.564 1.29.282.1.282-.169.282.02.282.301.282.524.563 2.148 1.128 4.917.282 2.273 1.128 15.286 2.256 30.193.282 1.997.282-3.541.282-11.622.564-42.918 1.127-108.816.564-30.966.282-7.186.846-7.348.282.272.282 3.65.282 5.91.282 8.832.564 29.247 1.128 62.676 1.128 45.857.282 5.058.282 2.3.282 1.207.282-.082 1.127-6.696.846-3.478.282-.085.282.519.846 2.4.564.919.282-.154.564-1.579.282.394.846 4.551.564 3.626.564 5.924 1.973 29.5.846 11.77.282 1.62.282-2.716.282-9.067.282-17.087.564-58.249.564-58.83.564-38.408.564-19.642.564-9.72.282-1.74.282 1.94.563 12.625.564 18.418 1.128 46.961 1.128 27.632.564 8.43.564 14.53.564 15.672 1.128 23.514.564 4.71.563 2.823.282.824.564.706.282 1.588.282 2.377.282.923 1.128-5.905.564-3.289.282.504.564 3.293.282 2.176.564 7.434.846 13.33.564 10.365.282 5.155.282 2.488.281.542.282-1.093.282-5.928.282-14.405.564-51.64.846-91.793.564-25.012.564-17.433.282-4.625.282-1.674.282.089.282 3.31.846 21.66.564 21.835.564 21.563.845 18.023.282 3.62.282 2.011.282.41.282-.298.282-.086.564-.865.282 3.027.564 22.554 1.128 40.933.564 17 .564 10.093.846 5.977.282.84.282-.184.281 1.39.282 2.517.282-.357.564-9.05.282-1.634.282.164.282-.094.282.026.282 1.103.564 4.457 1.692 19.555.282 3.784.282.21.282-7.743.282-17.6.564-59.623.564-63.895.281-18.788.564-18.56.564-11.829.282-1.832.282.756.282 3.334.564 13.655.564 18.85 1.128 41.534.282 6.001.282 2.299.282.423.282 1.157.282 1.868.282.604 1.127-3.756.282.182.846 6.238.282 4.212 1.41 41.632.846 23.11.282 5.338.282 3.216.564 3.81.564 5.012.282.497.282-.153.282-.332.564-1.425.282.104.281.563.282 1.162.282 3.23.846 14.258.564 6.972.282-.779.282-7.304.282-14.65.282-24.568.846-100.983.564-25.5.564-17.432.282-5.374.282-2.274.282 1.877.846 14.757.281 4.187.564 17.977.846 26.111.564 9.482.846 11.298.282 1.164.282-.218.282.142.564 1.61.282.484.282 1.114 1.41 11.982.845 15.739.564 13.367.846 22.96.564 9.737.282 2.296.282.683.282-.885.282-1.297.282.15.282 1.548.282.818.282-.234.282 1.213.846 11.014.282 2.763 1.128 14.142.282-.164.281-4.292.282-10.691.282-20.774 1.128-120.569.846-27.246.282-5.648.282-2.643.282-.204.282 2.467.564 10.994.564 13.314 1.128 33.114.846 9.603.281 1.116.282-.287.282.032.564 2.306.564 3.398.564 5.458 1.974 24.539.282 5.082.846 20.139.564 11.016.564 11.487.845 10.755.564 5.293.282 3.44.282 2.03.564-1.037.282 1.842 1.41 19.261.282 2.302.282-.09.282-3.951.282-11.205.282-22.508.846-100.697.282-18.357.846-29.243.281-5.432.282-1.93.282.252.282 2.096.564 10.376.846 18.367.846 28.277.282 3.068.564 2.825.282.457.282-.833 1.692-12.81.282.451.282 7.94.563 20.316 2.82 58.88.564 6.341.846 9.739.564.742.282 1.88 1.41 15.494 1.973 27.315.282.974.282-4.423.282-14.386.564-65.956.564-62.048.564-25.511.564-19.135.282-5.128.282-2.15.282.604.282 3.37.846 17.107 1.691 41.35.282 2.948.564 2.59.282.612.282.036.846-.576.564-1.433.564-.01.282-.392.282 1.032.282 4.71.564 14.86 2.255 39.597 2.256 28.16.282.665.282 1.564.564 6.916 1.974 34.656.282-.653.282-7.364.281-18.071 1.128-122.036.564-24.29.564-15.29.282-2.93.282-.456.282 2.441.564 11.682.564 11.37.564 11.116.564 15 .282 2.61.282.496.282 2.381.564 7.481.281.93.282.461.564 2.138.564.941.564.856.282-.125.282-.722.282-.355.282.891.846 4.207.282 4.89.846 20.354 1.41 19.508.282 2.533.281 1.443.282 2.61 1.128 15.555.564 11.246.282 1.277.282.162.282 2.094.564 6.42.564 1.503.282-1.198.282-9.683 1.128-84.683.564-23.059.564-12.647.563-7.353.282.908 1.41 16.186.564 10.022.282 6.32.282 3.778.282.644.282.095.564 2.363.282-1.29.282-1.959.282.352.564 4.639.282 1.272.282 1.814 1.127 10.399.846 12.79.564 1.57.846 7.38.564 1.47.564 1.409.282.368.282 1.25 1.974 13.02.846 11.631.281-1.243h0" clip-path="url(#p38e0a95c7c)" style="fill:none;stroke:#1f77b4;stroke-width:1.5;stroke-linecap:square"/><path id="patch_3" d="M71.308 266.112V0" style="fill:none;stroke:gray;stroke-width:.8;stroke-linejoin:miter;stroke-linecap:square"/><path id="patch_4" d="M685.107 266.112V0" style="fill:none;stroke:#000;stroke-width:.8;stroke-linejoin:miter;stroke-linecap:square"/><path id="patch_5" d="M71.308 266.112h613.8" style="fill:none;stroke:gray;stroke-width:.8;stroke-linejoin:miter;stroke-linecap:square"/><path id="patch_6" d="M71.308 0h613.8" style="fill:none;stroke:#000;stroke-width:.8;stroke-linejoin:miter;stroke-linecap:square"/></g></g><defs><clipPath id="p38e0a95c7c"><path d="M71.308 0h613.8v266.112h-613.8z"/></clipPath></defs></svg>