<svg xmlns="http://www.w3.org/2000/svg" xmlns:xlink="http://www.w3.org/1999/xlink" width="927.05" height="377.053" viewBox="0 0 695.288 282.79"><defs><style>*{stroke-linejoin:round;stroke-linecap:butt}</style></defs><g id="figure_1"><path id="patch_1" d="M0 282.79h695.288V0H0v282.79z" style="fill:none"/><g id="axes_1"><path id="patch_2" d="M81.487 266.112h613.8V0h-613.8v266.112z" style="fill:none"/><g id="matplotlib.axis_1"><g id="xtick_1"><g id="line2d_1"><defs><path id="mebeeeafaaa" d="M0 0v3.5" style="stroke:gray;stroke-width:.8"/></defs><use xlink:href="#mebeeeafaaa" x="109.388" y="266.112" style="fill:gray;stroke:gray;stroke-width:.8"/></g><g id="text_1" style="fill:gray" transform="matrix(.1 0 0 -.1 106.206 280.71)"><defs><path id="DejaVuSans-30" d="M2034 4250q-487 0-733-480-245-479-245-1442 0-959 245-1439 246-480 733-480 491 0 736 480 246 480 246 1439 0 963-246 1442-245 480-736 480zm0 500q785 0 1199-621 414-620 414-1801 0-1178-414-1799Q2819-91 2034-91q-784 0-1198 620-414 621-414 1799 0 1181 414 1801 414 621 1198 621z" transform="scale(.01563)"/></defs><use xlink:href="#DejaVuSans-30"/></g></g><g id="xtick_2"><use xlink:href="#mebeeeafaaa" id="line2d_2" x="179.137" y="266.112" style="fill:gray;stroke:gray;stroke-width:.8"/><g id="text_2" style="fill:gray" transform="matrix(.1 0 0 -.1 169.594 280.71)"><defs><path id="DejaVuSans-35" d="M691 4666h2478v-532H1269V2991q137 47 274 70 138 23 276 23 781 0 1237-428 457-428 457-1159 0-753-469-1171Q2575-91 1722-91q-294 0-599 50Q819 9 494 109v635q281-153 581-228t634-75q541 0 856 284 316 284 316 772 0 487-316 771-315 285-856 285-253 0-505-56-251-56-513-175v2344z" transform="scale(.01563)"/></defs><use xlink:href="#DejaVuSans-35"/><use xlink:href="#DejaVuSans-30" x="63.623"/><use xlink:href="#DejaVuSans-30" x="127.246"/></g></g><g id="xtick_3"><use xlink:href="#mebeeeafaaa" id="line2d_3" x="248.887" y="266.112" style="fill:gray;stroke:gray;stroke-width:.8"/><g id="text_3" style="fill:gray" transform="matrix(.1 0 0 -.1 236.162 280.71)"><defs><path id="DejaVuSans-31" d="M794 531h1031v3560L703 3866v575l1116 225h631V531h1031V0H794v531z" transform="scale(.01563)"/></defs><use xlink:href="#DejaVuSans-31"/><use xlink:href="#DejaVuSans-30" x="63.623"/><use xlink:href="#DejaVuSans-30" x="127.246"/><use xlink:href="#DejaVuSans-30" x="190.869"/></g></g><g id="xtick_4"><use xlink:href="#mebeeeafaaa" id="line2d_4" x="318.637" y="266.112" style="fill:gray;stroke:gray;stroke-width:.8"/><g id="text_4" style="fill:gray" transform="matrix(.1 0 0 -.1 305.913 280.71)"><use xlink:href="#DejaVuSans-31"/><use xlink:href="#DejaVuSans-35" x="63.623"/><use xlink:href="#DejaVuSans-30" x="127.246"/><use xlink:href="#DejaVuSans-30" x="190.869"/></g></g><g id="xtick_5"><use xlink:href="#mebeeeafaaa" id="line2d_5" x="388.387" y="266.112" style="fill:gray;stroke:gray;stroke-width:.8"/><g id="text_5" style="fill:gray" transform="matrix(.1 0 0 -.1 375.663 280.71)"><defs><path id="DejaVuSans-32" d="M1228 531h2203V0H469v531q359 372 979 998 621 627 780 809 303 340 423 576 121 236 121 464 0 372-261 606-261 235-680 235-297 0-627-103-329-103-704-313v638q381 153 712 231 332 78 607 78 725 0 1156-363 431-362 431-968 0-288-108-546-107-257-392-607-78-91-497-524-418-433-1181-1211z" transform="scale(.01563)"/></defs><use xlink:href="#DejaVuSans-32"/><use xlink:href="#DejaVuSans-30" x="63.623"/><use xlink:href="#DejaVuSans-30" x="127.246"/><use xlink:href="#DejaVuSans-30" x="190.869"/></g></g><g id="xtick_6"><use xlink:href="#mebeeeafaaa" id="line2d_6" x="458.137" y="266.112" style="fill:gray;stroke:gray;stroke-width:.8"/><g id="text_6" style="fill:gray" transform="matrix(.1 0 0 -.1 445.413 280.71)"><use xlink:href="#DejaVuSans-32"/><use xlink:href="#DejaVuSans-35" x="63.623"/><use xlink:href="#DejaVuSans-30" x="127.246"/><use xlink:href="#DejaVuSans-30" x="190.869"/></g></g><g id="xtick_7"><use xlink:href="#mebeeeafaaa" id="line2d_7" x="527.888" y="266.112" style="fill:gray;stroke:gray;stroke-width:.8"/><g id="text_7" style="fill:gray" transform="matrix(.1 0 0 -.1 515.163 280.71)"><defs><path id="DejaVuSans-33" d="M2597 2516q453-97 707-404 255-306 255-756 0-690-475-1069Q2609-91 1734-91q-293 0-604 58T488 141v609q262-153 574-231 313-78 654-78 593 0 904 234t311 681q0 413-289 645-289 233-804 233h-544v519h569q465 0 712 186t247 536q0 359-255 551-254 193-729 193-260 0-557-57-297-56-653-174v562q360 100 674 150t592 50q719 0 1137-327 419-326 419-882 0-388-222-655t-631-370z" transform="scale(.01563)"/></defs><use xlink:href="#DejaVuSans-33"/><use xlink:href="#DejaVuSans-30" x="63.623"/><use xlink:href="#DejaVuSans-30" x="127.246"/><use xlink:href="#DejaVuSans-30" x="190.869"/></g></g><g id="xtick_8"><use xlink:href="#mebeeeafaaa" id="line2d_8" x="597.638" y="266.112" style="fill:gray;stroke:gray;stroke-width:.8"/><g id="text_8" style="fill:gray" transform="matrix(.1 0 0 -.1 584.913 280.71)"><use xlink:href="#DejaVuSans-33"/><use xlink:href="#DejaVuSans-35" x="63.623"/><use xlink:href="#DejaVuSans-30" x="127.246"/><use xlink:href="#DejaVuSans-30" x="190.869"/></g></g><g id="xtick_9"><use xlink:href="#mebeeeafaaa" id="line2d_9" x="667.388" y="266.112" style="fill:gray;stroke:gray;stroke-width:.8"/><g id="text_9" style="fill:gray" transform="matrix(.1 0 0 -.1 654.663 280.71)"><defs><path id="DejaVuSans-34" d="M2419 4116 825 1625h1594v2491zm-166 550h794V1625h666v-525h-666V0h-628v1100H313v609l1940 2957z" transform="scale(.01563)"/></defs><use xlink:href="#DejaVuSans-34"/><use xlink:href="#DejaVuSans-30" x="63.623"/><use xlink:href="#DejaVuSans-30" x="127.246"/><use xlink:href="#DejaVuSans-30" x="190.869"/></g></g></g><g id="matplotlib.axis_2"><g id="ytick_1"><g id="line2d_10"><defs><path id="mea56aaba6b" d="M0 0h-3.5" style="stroke:gray;stroke-width:.8"/></defs><use xlink:href="#mea56aaba6b" x="81.487" y="247.43" style="fill:gray;stroke:gray;stroke-width:.8"/></g><g id="text_10" style="fill:gray" transform="matrix(.16 0 0 -.16 0 253.509)"><defs><path id="DejaVuSans-2212" d="M678 2272h4006v-531H678v531z" transform="scale(.01563)"/></defs><use xlink:href="#DejaVuSans-2212"/><use xlink:href="#DejaVuSans-31" x="83.789"/><use xlink:href="#DejaVuSans-35" x="147.412"/><use xlink:href="#DejaVuSans-30" x="211.035"/><use xlink:href="#DejaVuSans-30" x="274.658"/><use xlink:href="#DejaVuSans-30" x="338.281"/><use xlink:href="#DejaVuSans-30" x="401.904"/></g></g><g id="ytick_2"><use xlink:href="#mea56aaba6b" id="line2d_11" x="81.487" y="211.033" style="fill:gray;stroke:gray;stroke-width:.8"/><g id="text_11" style="fill:gray" transform="matrix(.16 0 0 -.16 0 217.112)"><use xlink:href="#DejaVuSans-2212"/><use xlink:href="#DejaVuSans-31" x="83.789"/><use xlink:href="#DejaVuSans-30" x="147.412"/><use xlink:href="#DejaVuSans-30" x="211.035"/><use xlink:href="#DejaVuSans-30" x="274.658"/><use xlink:href="#DejaVuSans-30" x="338.281"/><use xlink:href="#DejaVuSans-30" x="401.904"/></g></g><g id="ytick_3"><use xlink:href="#mea56aaba6b" id="line2d_12" x="81.487" y="174.636" style="fill:gray;stroke:gray;stroke-width:.8"/><g id="text_12" style="fill:gray" transform="matrix(.16 0 0 -.16 10.18 180.715)"><use xlink:href="#DejaVuSans-2212"/><use xlink:href="#DejaVuSans-35" x="83.789"/><use xlink:href="#DejaVuSans-30" x="147.412"/><use xlink:href="#DejaVuSans-30" x="211.035"/><use xlink:href="#DejaVuSans-30" x="274.658"/><use xlink:href="#DejaVuSans-30" x="338.281"/></g></g><g id="ytick_4"><use xlink:href="#mea56aaba6b" id="line2d_13" x="81.487" y="138.239" style="fill:gray;stroke:gray;stroke-width:.8"/><use xlink:href="#DejaVuSans-30" id="text_13" style="fill:gray" transform="matrix(.16 0 0 -.16 64.308 144.317)"/></g><g id="ytick_5"><use xlink:href="#mea56aaba6b" id="line2d_14" x="81.487" y="101.842" style="fill:gray;stroke:gray;stroke-width:.8"/><g id="text_14" style="fill:gray" transform="matrix(.16 0 0 -.16 23.587 107.92)"><use xlink:href="#DejaVuSans-35"/><use xlink:href="#DejaVuSans-30" x="63.623"/><use xlink:href="#DejaVuSans-30" x="127.246"/><use xlink:href="#DejaVuSans-30" x="190.869"/><use xlink:href="#DejaVuSans-30" x="254.492"/></g></g><g id="ytick_6"><use xlink:href="#mea56aaba6b" id="line2d_15" x="81.487" y="65.444" style="fill:gray;stroke:gray;stroke-width:.8"/><g id="text_15" style="fill:gray" transform="matrix(.16 0 0 -.16 13.408 71.523)"><use xlink:href="#DejaVuSans-31"/><use xlink:href="#DejaVuSans-30" x="63.623"/><use xlink:href="#DejaVuSans-30" x="127.246"/><use xlink:href="#DejaVuSans-30" x="190.869"/><use xlink:href="#DejaVuSans-30" x="254.492"/><use xlink:href="#DejaVuSans-30" x="318.115"/></g></g><g id="ytick_7"><use xlink:href="#mea56aaba6b" id="line2d_16" x="81.487" y="29.047" style="fill:gray;stroke:gray;stroke-width:.8"/><g id="text_16" style="fill:gray" transform="matrix(.16 0 0 -.16 13.408 35.126)"><use xlink:href="#DejaVuSans-31"/><use xlink:href="#DejaVuSans-35" x="63.623"/><use xlink:href="#DejaVuSans-30" x="127.246"/><use xlink:href="#DejaVuSans-30" x="190.869"/><use xlink:href="#DejaVuSans-30" x="254.492"/><use xlink:href="#DejaVuSans-30" x="318.115"/></g></g></g><path id="line2d_17" d="m109.388 138.257.845-.035.846.032.846-.029 1.41.026 1.41-.024 1.41.023 1.41-.023 1.41.025 1.409-.03.846.038.846-.059.282.09.282-.145.282.433.282 1.235.282-.02.281.228.282-.007.564-.293.564.36.282.178.564-.099.282-.223.282-.727.564-2.892.282-.717.564.179.282-.26.564-.981.846-.472.282-.272.282.292 1.127 3.038.282.346.282-.191.282-.346.282-.083.564.09.846-.228.846-.443.282.069.564 1.254.846 1.822.564 1.776.282.26 1.127.139.846-1.041.282.087.564.542.282.085.846.643.564.04.564-.176.282-.35.282-1.166.564-3.22.282-.38.564.155.845-.327.564-.493 1.128-.174.282.335.846 2.848.282-.07.282-.331.282.011.564.436.564-.02.564.056.282-.026.564.21.564-.181.282-.086.563.204.564.08 1.128-.154.282-.167.282.086.564.39.564.3.564.507.564.197.564-.172.282-.316.282-.943.564-2.808.282-.375.563.359.564-.355 1.128-1.002.564.165.282.33.564 1.684.282.755.282.1.846-1.355.282.205.282.362.282.155.564.05.282.078.282-.148.845-.893.564-.413.564-.106.846-.956.282.067.282-.204.282-.428.282-.128.564.522.282.398.564 2.208 1.128 4.814.846 4.238.281.54.282-.392 1.128-3.976.282-.184.282-.546 1.41-5.401.282-.915.564-.75.282-.278.282.049.564.992.282-.283.846-2.246.282-.392.281.049.564 1.358.846 2.018.564.974.282-.16.282-.591.282-.218.564 1.145.564.391 1.128 2.2.282.557.282.135.282-.115.282.094 1.973 1.849.282-.072.282-.21.282.23.282.487.282.049.564-.629.282-.61.846-3.714.282-.025.846.467.282-.187.564-.625.846-.496.281.379 1.128 2.615.282-.096.846-2.206.282.102 1.128 1.777.846 1.194.282.169.282-.055.846-.748.846-.936 1.41.949.281.088.564-.609.282-.624.846-3.43.282-.274.564.137.282.121.282-.047.564-.279.564-.133.282.12.282.588.564 1.665.282.493.281.047.846-.916.282.098.564.658.282.365 1.128.39.564.092.846.558.846.098.564-.216.282.04.564.362.563.04.564-.09.282-.317.282-.794.846-3.879.282-.277.564.507.564-.028 1.128-.046.282.34.282.651.846 2.858.282-.054.845-1.175.282-.51.282-.117.564.564.282-.06.282.1.564 1.156.282.184.564-.143 1.128.974.564.192 1.128.634.564-.388 1.973.223.282-.068.846.264.282.164.564 1.17.282-.042.282-1.437.564-3.303.282-.15.282.108.846-.582.564-.591.282-.332.281-.034.846.885.282.593.564 2.184.282.193.564-.752.564-.104.564.304.282-.12.282-.348.282-.116 2.82 1.078.563.356.564.247 1.128.991.564.185.564.632.846.085.282.154.564-.1.282.078.282-.26.282-1.097.564-3.017.282-.696.281-.248.564-.049h.282l.282-.207.846-1.034.282-.204.282-.054.282.245.564 1.394.564 1.594.282.323.282-.196.282-.412.282-.068.564.842.282-.097.282-.362.282-.095.563.285.564-.116.282.081.846.86.564-.157.564.193.564-.022.846.617.282.397.282.174.564-.799.282-.036.564.477.846.319.281.22.282.075.564-.442.282.008.282-.338 1.128-4.485.282-.292.846-.235.564-.45.564-.636.282.155.282.338.282.537.846 3.605.282-.046.563-.635.564-.456.282.11.846.957.282.396.846.523.282.143.564.067.564.332 1.128.441.846.505.282.104.281-.227.282-.92.564-2.594.282-.903.282-.44.282.176.282.397.282.003.282-.28.846-.472.282-.143.282.258.282.557.846 2.568.282-.18.564-.894.282.012.564.44.282.257.845.272.564 1.229.282.076.282-.273.282-.013.282.244.282-.148.564-1.135 1.128.087.564.82.564.842.564.42.564.946.282-.129.281-.377.564.223.282-1.012.564-3.687.282-.502.564.434.564.425.564-.152 1.128-.258.282.446.564 2.165.282 1.133.282.394.282-.561.282-.94.282-.548.563-.052.282.12.846 1.324 1.41-1.019.564.282.846 1.092.846-.021.564.343.564-.112.564.43.563-.256.564.344.846-.604.282-.944.564-3.487.282-.802.282-.086.564.332.282.007.282-.308.564-1.002.282-.2.564.102.282.402.846 3.464.282.047.563-1.39.282-.167 1.128.757.282.107.282-.148.282.006.564.765.564.064.564.391.282-.056.846-.962.282-.015.846.249.845.01.564.132.846-.037.564-.341.564-.048.282-.173.282.058.564.638.564.216.564.722.564.085.282.447.564 1.081.282.235.282.427.563 1.052.282-.057.282-.249.564-.075.282-.952.564-4.304.282-1.11.282-.015.564.497.564.285.282-.092.282-.376.846-1.558.282-.038.282.293.282.728.845 3.49.282-.14.282-.48.282-.116.564.71.846 1.26 1.128.862.564-.44.564-.052.282.013.846.393.282.03.846.708.563.178.282-.22.282-1.134.564-3.137.282-.701.282-.265.282-.085.846.18.846-1.138.282-.095.282.209.282.763.564 2.686.282.486.846-1.25.564.019.563.374.564.328.846.041.282.114.846.002.564.37.846-.125.282.16.564.807.564 1.064.564 1.03.564.335.563.625.282-.05.564-.658.282-.149.282-.569.282-1.562.564-4.065.282-1.062.282-.326.564.437.282-.155.564-.873.564-.16.282-.221.282.018.282.567.564 2.576.282 1.29.282.496.281-.424.282-.725.282-.385.564.012 1.692.1.564-.24.846.673.564.895.564.37.564.76.564-.382.563.38.846-1.155.282-.075.564.205.564.352.846 1.382.282.018.282-.173.282.012.564.49.282.093.282.26.564.786.564-.007.282.185.282-.042.282-.794.845-5.112.282-.488.282-.116 1.128-1.268.846-1.956.282.041.282.668.564 2.306.846 4.609.282-.6.282-.994.282-.335.846.397 1.127.559.282-.022 1.128.613.282.704.282.4.564-.457.846.7.282-.074.282.062.846.653.282-.015.282.191.564.749.563.087.282.055.282-.733.846-5.21.282-.824.282-.336.564-.123.282-.214.282-.416.846-2.04.282-.088.282.347.282.905.846 5.51.282-.054.564-1.122.563-.175.282.122.564.477.564.226.564.092 2.82 1.804.564.494.282.095.282.215.564.672.282.123 1.127-.287.282-.62.564-3.721.282-1.802.282-.976.282-.283.564.01.282-.2.564-.92.564-1.062.282-.259.282.108.282.717.846 5.018.282.165.563-1.6.282.125.564 1.582.282.076.282-.093.564.56.282-.305.282-.622.282-.303.846.106 1.128 1.294.564.616.846.313.846-.836.845.415.282.045.564.336.564-.016.564.605.282.49.846 2.05.282.137.282-.146.282-.909 1.128-7.27.282-.228.564.017.282-.367.563-1.365.846-2.51.282-.357.282.34.282 1.751.564 6.27.282 1.486.282-.119.564-.905.282-.048.282.322 1.128 2.437.846 1.795 2.255 9.273.282.602.282.129.564-.199.564.44.282-.328.282-1.047.846-5.034.564-5.278.564-6.035.564-2.893.846-3.861.563-3.45.846-7.626.564-2.32.282.188.282 2.606.564 7.068.282.466.282-.611.282-.072.282.98.564 4.59.564 4.012.564 2.013.282.357.282.168.282-.043.282-.717.281-1.106.282-.388.564.87.282.025.282.479.564 2.834.846 4.42.564 1.673.564 3.132.564 4.808 1.692 15.041.564 2.865.282.266.281-1.15.282-2.733 1.974-29.38 1.128-25.62.564-7.604.282-2.674.282-.553.564 4.545.282-.501.564-4.217.282-.215.282.57.282 1.321.563 4.639.282 2.982.564 9.99.846 16.12.282 3.946.282 2.047.282.599.282-.28.846-3.115.282.06.282.646.282 1.62.846 7.401.282 1.32.282.332.282-1.348.845-6.704.564-3.054.282-.323.846.986.282-.107.282-1.255 1.41-11.36.282-1.043.282.017.282 1.624.846 9.934.282.949.282-.301.282.002.564 2.582.281.262.282-1.209.564-3.369.282-.677.564-.015.846-1.502.282.837.564 2.134.282.648.282 1.45 1.41 12.839 1.41 13.184.845 8.677.282 1.224.282.591.282.14.564-.249.282.01.282-.932.282-2.811 1.128-18.708 1.128-9.277 1.41-22.552.282-2.212.282-.623.281 1.584.282 3.967.282 7.182.564 20.136.282 3.262.282-5.461.564-19.18.282-5.092.282-1.68.282.78.282 2.185.282.868.282-3.565.846-21.606.846-17.016.282-2.02.282-.48.282 1.393.282 3.126.281.592.282-5.003.564-13.306.564-8.04.282-1.196.282-1.884.282-3.73.282.293 1.128 28.734.564 14.074.282 1.888.282-1.23.564-3.242.282-.592.282.065.282.369.564 2.154.281.253.282-.005.282 2.085 1.41 22.35.282 6.402.282 9.106.564 28.632 1.128 65.015.564 21.711.282-.414 1.128-29.229.564-10.603.563-8.396.846-19.384.564-7.43.564-3.993.282-1.433.564-1.516.282-1.357.282-.304.282.74.282-1.783.564-13.228.282-3.091.282.26.282.596.282.234.282.731.282 1.747.282 3.656.845 16.973.282-.716.564-9.204.564-9.247.846-9.62.846-15.317.564-16.964.282-8.931.282-5.256.564-5.427.564-14.222 1.128-36.916.281-.09.564 3.62.282 3.286.282 6.905.564 21.478 1.128 48.126 1.41 52.9.282 3.315.282-.947.282-2.234.282-.966.564 1.015.282-.737.564-3.994.282-.74.281-.305.564-1.749.282-.393.282-.938 1.128-8.045.282-.699.282-.236.282-1.496.282-4.506.846-20.158.564-8.175.282-1.602.282.405.282 1.95.564 5.41.282 1.053.282-1.06.281-1.724.282-.348.282 1.67.282 3.38 1.128 20.076.282 1.882.564 1.144.282-.103.282-2.559.564-8.574.282-.757.282 1.027.282.6.282-2.136.282-8.082.846-41.945.282-3.33.282 1.105.845 10.112.282 3.716.282 6.413.564 21.282 1.41 63.588.282 6.73.282-1.788 1.128-39.084.282-4.148.282 1.783.282.811.282-12.965.564-52.456.282-14.036.845-17.46.282-5.672.564-17.439.282-3.499.282.36.282-3.681.564-17.216.282-3.364.282-2.02.282-2.98.282-1.582.282 2.664.282 7.892.564 32.457 1.692 125.152.282 8.34.563 5.066.846 12.276.282.867.282-.025.282-.308.846-1.703.282-1.612.564-3.742.282-.665 1.128-5.946.282-2.996.282-1.338.282-3.655.282-16.317.564-57.728.282-16.175.281-5.706.282-.706.282 2.178.846 11.887.564 16.36 1.41 53.477.282 5.182.282 1.069.282-2.76.564-13.09.564-14.261.564-6.885.564-4.532.845-4.884.282-.746.282-.388.282.033.282.772.564 2.148.282.186.846-.444.282-.07.282.084.564.583.564.913h.282l.564-.65.564-.801.282-.136.282.178.281.536.564 2.573.846 4.228.846 5.586.846 5.098.846 2.798.282.494.564-.171.282.356.282.63.282.263.282-.089.282.113.282.56.282.854.282 1.297.845 6.12.282.474.282-1.413.846-11.398.282-1.133.282.71.846 6.05.282-.418.282-2.405.282-4.574.846-21.046.282-2.706 1.128-6.064.845-12.3.282-1.42.282.89.846 8.484.564 5.731.282.65.282-2.007.564-5.86.282-.593.846 2.044.282.86.282 1.83.564 5.266.282.331.282-.286.282 1.419.564 4.115.281 1.243.282 3.327.282 6.614 1.128 35.845.564 4.587.282 1.264.282-1.818.564-11.472.564-15.453.846-30.94.564-11.128.564-6.348.282-.269.845 6.27.282 1.005.282 1.729 1.41 12.998.564 5.88.282 2.986.282 1.125.282-.74.282-1.233.282-.727.282.02.564 1.418.564 2.224.564 4.218.846 9.682.281.816.282-.167.282.368.564 1.739.282.35.282.03.564-.477.282.187.282.45.282.694.564 3.087.282.378.282-1.74.282-3.323.564-10.906.846-18.988.564-7.925.282-1.088.563-1.075.282-.165.282.2.282.042.282.316.564 2.583.282.302.846-2.685.282 1.088 1.128 7.126.564 3.77 1.128 9.164 1.127 12.15.846 5.237.564 2.644.846 2.535.282.367.282.18.282.428.564 1.326.564 1.919.282.116.282-.838.282-.305 1.128 4.52.282.024.282-2.446.563-12.579 1.41-41.34.282-4.635.282-2.187.282-.39.282.12.282.43.282 1.153.564 3.705.564 6.7.564 6.888.846 6.432.846 5.744.563 2.305.564 1.853.846 5.172.564 5.154 1.974 19.802.282 2.319.282.628.282-2.555.564-12.782 1.128-34.714.282-3.683.563-3.617.282-.994.282-.392.282.251.282.991.282 1.665 1.128 9.213.846 4.788.564 1.273.564.579.282.348.846 2.598.282.952.846 5.145h0" clip-path="url(#p976fd36c23)" style="fill:none;stroke:#1f77b4;stroke-width:1.5;stroke-linecap:square"/><path id="patch_3" d="M81.487 266.112V0" style="fill:none;stroke:gray;stroke-width:.8;stroke-linejoin:miter;stroke-linecap:square"/><path id="patch_4" d="M695.288 266.112V0" style="fill:none;stroke:#000;stroke-width:.8;stroke-linejoin:miter;stroke-linecap:square"/><path id="patch_5" d="M81.487 266.112h613.8" style="fill:none;stroke:gray;stroke-width:.8;stroke-linejoin:miter;stroke-linecap:square"/><path id="patch_6" d="M81.487 0h613.8" style="fill:none;stroke:#000;stroke-width:.8;stroke-linejoin:miter;stroke-linecap:square"/></g></g><defs><clipPath id="p976fd36c23"><path d="M81.487 0h613.8v266.112h-613.8z"/></clipPath></defs></svg>