<svg xmlns="http://www.w3.org/2000/svg" xmlns:xlink="http://www.w3.org/1999/xlink" width="913.477" height="377.053" viewBox="0 0 685.107 282.79"><defs><style>*{stroke-linejoin:round;stroke-linecap:butt}</style></defs><g id="figure_1"><path id="patch_1" d="M0 282.79h685.107V0H0v282.79z" style="fill:none"/><g id="axes_1"><path id="patch_2" d="M71.308 266.112h613.8V0h-613.8v266.112z" style="fill:none"/><g id="matplotlib.axis_1"><g id="xtick_1"><g id="line2d_1"><defs><path id="ma6c0b8528c" d="M0 0v3.5" style="stroke:gray;stroke-width:.8"/></defs><use xlink:href="#ma6c0b8528c" x="99.207" y="266.112" style="fill:gray;stroke:gray;stroke-width:.8"/></g><g id="text_1" style="fill:gray" transform="matrix(.1 0 0 -.1 96.026 280.71)"><defs><path id="DejaVuSans-30" d="M2034 4250q-487 0-733-480-245-479-245-1442 0-959 245-1439 246-480 733-480 491 0 736 480 246 480 246 1439 0 963-246 1442-245 480-736 480zm0 500q785 0 1199-621 414-620 414-1801 0-1178-414-1799Q2819-91 2034-91q-784 0-1198 620-414 621-414 1799 0 1181 414 1801 414 621 1198 621z" transform="scale(.01563)"/></defs><use xlink:href="#DejaVuSans-30"/></g></g><g id="xtick_2"><use xlink:href="#ma6c0b8528c" id="line2d_2" x="168.958" y="266.112" style="fill:gray;stroke:gray;stroke-width:.8"/><g id="text_2" style="fill:gray" transform="matrix(.1 0 0 -.1 159.414 280.71)"><defs><path id="DejaVuSans-35" d="M691 4666h2478v-532H1269V2991q137 47 274 70 138 23 276 23 781 0 1237-428 457-428 457-1159 0-753-469-1171Q2575-91 1722-91q-294 0-599 50Q819 9 494 109v635q281-153 581-228t634-75q541 0 856 284 316 284 316 772 0 487-316 771-315 285-856 285-253 0-505-56-251-56-513-175v2344z" transform="scale(.01563)"/></defs><use xlink:href="#DejaVuSans-35"/><use xlink:href="#DejaVuSans-30" x="63.623"/><use xlink:href="#DejaVuSans-30" x="127.246"/></g></g><g id="xtick_3"><use xlink:href="#ma6c0b8528c" id="line2d_3" x="238.708" y="266.112" style="fill:gray;stroke:gray;stroke-width:.8"/><g id="text_3" style="fill:gray" transform="matrix(.1 0 0 -.1 225.982 280.71)"><defs><path id="DejaVuSans-31" d="M794 531h1031v3560L703 3866v575l1116 225h631V531h1031V0H794v531z" transform="scale(.01563)"/></defs><use xlink:href="#DejaVuSans-31"/><use xlink:href="#DejaVuSans-30" x="63.623"/><use xlink:href="#DejaVuSans-30" x="127.246"/><use xlink:href="#DejaVuSans-30" x="190.869"/></g></g><g id="xtick_4"><use xlink:href="#ma6c0b8528c" id="line2d_4" x="308.457" y="266.112" style="fill:gray;stroke:gray;stroke-width:.8"/><g id="text_4" style="fill:gray" transform="matrix(.1 0 0 -.1 295.733 280.71)"><use xlink:href="#DejaVuSans-31"/><use xlink:href="#DejaVuSans-35" x="63.623"/><use xlink:href="#DejaVuSans-30" x="127.246"/><use xlink:href="#DejaVuSans-30" x="190.869"/></g></g><g id="xtick_5"><use xlink:href="#ma6c0b8528c" id="line2d_5" x="378.207" y="266.112" style="fill:gray;stroke:gray;stroke-width:.8"/><g id="text_5" style="fill:gray" transform="matrix(.1 0 0 -.1 365.483 280.71)"><defs><path id="DejaVuSans-32" d="M1228 531h2203V0H469v531q359 372 979 998 621 627 780 809 303 340 423 576 121 236 121 464 0 372-261 606-261 235-680 235-297 0-627-103-329-103-704-313v638q381 153 712 231 332 78 607 78 725 0 1156-363 431-362 431-968 0-288-108-546-107-257-392-607-78-91-497-524-418-433-1181-1211z" transform="scale(.01563)"/></defs><use xlink:href="#DejaVuSans-32"/><use xlink:href="#DejaVuSans-30" x="63.623"/><use xlink:href="#DejaVuSans-30" x="127.246"/><use xlink:href="#DejaVuSans-30" x="190.869"/></g></g><g id="xtick_6"><use xlink:href="#ma6c0b8528c" id="line2d_6" x="447.957" y="266.112" style="fill:gray;stroke:gray;stroke-width:.8"/><g id="text_6" style="fill:gray" transform="matrix(.1 0 0 -.1 435.233 280.71)"><use xlink:href="#DejaVuSans-32"/><use xlink:href="#DejaVuSans-35" x="63.623"/><use xlink:href="#DejaVuSans-30" x="127.246"/><use xlink:href="#DejaVuSans-30" x="190.869"/></g></g><g id="xtick_7"><use xlink:href="#ma6c0b8528c" id="line2d_7" x="517.707" y="266.112" style="fill:gray;stroke:gray;stroke-width:.8"/><g id="text_7" style="fill:gray" transform="matrix(.1 0 0 -.1 504.983 280.71)"><defs><path id="DejaVuSans-33" d="M2597 2516q453-97 707-404 255-306 255-756 0-690-475-1069Q2609-91 1734-91q-293 0-604 58T488 141v609q262-153 574-231 313-78 654-78 593 0 904 234t311 681q0 413-289 645-289 233-804 233h-544v519h569q465 0 712 186t247 536q0 359-255 551-254 193-729 193-260 0-557-57-297-56-653-174v562q360 100 674 150t592 50q719 0 1137-327 419-326 419-882 0-388-222-655t-631-370z" transform="scale(.01563)"/></defs><use xlink:href="#DejaVuSans-33"/><use xlink:href="#DejaVuSans-30" x="63.623"/><use xlink:href="#DejaVuSans-30" x="127.246"/><use xlink:href="#DejaVuSans-30" x="190.869"/></g></g><g id="xtick_8"><use xlink:href="#ma6c0b8528c" id="line2d_8" x="587.457" y="266.112" style="fill:gray;stroke:gray;stroke-width:.8"/><g id="text_8" style="fill:gray" transform="matrix(.1 0 0 -.1 574.732 280.71)"><use xlink:href="#DejaVuSans-33"/><use xlink:href="#DejaVuSans-35" x="63.623"/><use xlink:href="#DejaVuSans-30" x="127.246"/><use xlink:href="#DejaVuSans-30" x="190.869"/></g></g><g id="xtick_9"><use xlink:href="#ma6c0b8528c" id="line2d_9" x="657.207" y="266.112" style="fill:gray;stroke:gray;stroke-width:.8"/><g id="text_9" style="fill:gray" transform="matrix(.1 0 0 -.1 644.482 280.71)"><defs><path id="DejaVuSans-34" d="M2419 4116 825 1625h1594v2491zm-166 550h794V1625h666v-525h-666V0h-628v1100H313v609l1940 2957z" transform="scale(.01563)"/></defs><use xlink:href="#DejaVuSans-34"/><use xlink:href="#DejaVuSans-30" x="63.623"/><use xlink:href="#DejaVuSans-30" x="127.246"/><use xlink:href="#DejaVuSans-30" x="190.869"/></g></g></g><g id="matplotlib.axis_2"><g id="ytick_1"><g id="line2d_10"><defs><path id="mb026c71a19" d="M0 0h-3.5" style="stroke:gray;stroke-width:.8"/></defs><use xlink:href="#mb026c71a19" x="71.308" y="232.351" style="fill:gray;stroke:gray;stroke-width:.8"/></g><g id="text_10" style="fill:gray" transform="matrix(.16 0 0 -.16 0 238.43)"><defs><path id="DejaVuSans-2212" d="M678 2272h4006v-531H678v531z" transform="scale(.01563)"/></defs><use xlink:href="#DejaVuSans-2212"/><use xlink:href="#DejaVuSans-32" x="83.789"/><use xlink:href="#DejaVuSans-30" x="147.412"/><use xlink:href="#DejaVuSans-30" x="211.035"/><use xlink:href="#DejaVuSans-30" x="274.658"/><use xlink:href="#DejaVuSans-30" x="338.281"/></g></g><g id="ytick_2"><use xlink:href="#mb026c71a19" id="line2d_11" x="71.308" y="170.082" style="fill:gray;stroke:gray;stroke-width:.8"/><use xlink:href="#DejaVuSans-30" id="text_11" style="fill:gray" transform="matrix(.16 0 0 -.16 54.127 176.16)"/></g><g id="ytick_3"><use xlink:href="#mb026c71a19" id="line2d_12" x="71.308" y="107.812" style="fill:gray;stroke:gray;stroke-width:.8"/><g id="text_12" style="fill:gray" transform="matrix(.16 0 0 -.16 13.408 113.89)"><use xlink:href="#DejaVuSans-32"/><use xlink:href="#DejaVuSans-30" x="63.623"/><use xlink:href="#DejaVuSans-30" x="127.246"/><use xlink:href="#DejaVuSans-30" x="190.869"/><use xlink:href="#DejaVuSans-30" x="254.492"/></g></g><g id="ytick_4"><use xlink:href="#mb026c71a19" id="line2d_13" x="71.308" y="45.542" style="fill:gray;stroke:gray;stroke-width:.8"/><g id="text_13" style="fill:gray" transform="matrix(.16 0 0 -.16 13.408 51.62)"><use xlink:href="#DejaVuSans-34"/><use xlink:href="#DejaVuSans-30" x="63.623"/><use xlink:href="#DejaVuSans-30" x="127.246"/><use xlink:href="#DejaVuSans-30" x="190.869"/><use xlink:href="#DejaVuSans-30" x="254.492"/></g></g></g><path id="line2d_14" d="m99.207 170.09 1.974-.011 5.64.014 1.41-.028.845.038.846-.049.282.058.282-.064.282.07.282-.077.282.086.282-.096.282.108.282-.124.282.144.282-.17.282.205.282-.253.281.317.282-.27.282 12.899.282 1.069.282-2.708.282-1.59.564-5.538.564-9.743 1.692-34.195.282-2.94.282-.275.282 2.604.564 12.774 1.128 40.35.282.911.281-.53.282.3.282-.443.846-6.813.564-.51.282-1.264.282-.69.282.768.282 1.287.282-.095.564-1.702.282.237.282-.077.846-1.722.282-.166.564.443.282-.048.282-.204.281.392.282.598.564.538 1.128 3.033.282 1.412.282.619.282.008.282.693.282 1.52.282.562.564-1.224.846 1.753.282-.095.282-.29.282-.72.282-1.183.564-4.457.845-10.15.564-8.917 1.41-25.965.282-2.314.282-.399.282 1.363.282 4.056.282 7.841.846 30.96.282 5.656.282 2.594.282.148.282-.509.564.017.564-2.47.281-.106.564 1.556.282.014.282-.1.282-.379.846-4.015.282-.005.282.132.282-.184.282-.336h.282l1.692 1.667.282-.212.282-.408.282.054 1.127 3.168.282-.02.282.382.846 3.777.564 1.074.846 1.744.282.557.282-.278.564-2.474.282-.7.282-1.53.282-3.521.846-16.341 1.41-36.695.281-5.342.282-2.766.282.972.282 4.792.282 8.793.846 37.288.282 4.503.846 4.656.282.002.282-.738.282.298.282 1.223.282.465.846-2.081.282-.229.282-.048.564.12.281-.085.282.681.564 3.584.282.177.282-.983.282-.506.846 1.546.282 1.16.564 3.34.564.337.846 3.156.282.546.282.302.282-1.061 1.128-11.334.563-10.817.846-22.109.564-13.625.564-8.416.282-1.781.282.37.282 3.262.282 7.978.846 37.892.282 4.704.846 4.939.564 1.147.564 3.007.282-.22.563-4.472.282-.989.564-.445.282.092.282.321.282.081.282-.064.564.983.564-.172.282 1.396.564 4.632.282-.898.846-11.065.564-9.707.846-19.322.563-7.375.282-2.263.282.571.282 4.136.564 14.888.564 15.37.282 3.715.282.249.564-2.47.282-.084.282.184.564-.23.564.287.282-.405.564-1.071.282.014.282.16.282.611.563 2.814.282.628.282.213.846 2.075.282-.245.282.477.282 1.005.282.276.282-.007.282 1.209.564 4.314.564 2.905.846 5.78.564 2.224.282.557.564 1.864.282.267.282-.902.563-3.802.564-6.828.564-12.536 1.128-37.8 1.128-39.08.282-3.78.282 1.132.282 5.47.282 12.152.846 69.432.282 8.049.282.688.282-.05.282-.335.845-6.747.282-1.005.564-3.35.282-.903.282-.49.282-.818.564-3.106.564-3.127.282-.063.564 1.778.282.132.282-.266.282.629.564 3.252.564-.11.564 3.612.281-.139.282-1.38h.282l.282 1.274.282.393.282-.811.282-.197.564 1.555.282.325.282.923.564 2.56.282.602.282.956.564 2.589.846 1.788.846 3.252.846 6.173.281.454.282-.196.282-.876.282-2.4.564-9.115.564-14.926.846-30.36 1.128-44.826.282-7.985.282-4.155.282.36.282 4.86.282 12.457.846 75.294.282 9.087.282.538.563-.903 1.41-9.843.282-.761.564 1.064.282-.258.282.1.282.806.282.437.282-.286.282.162.564 2.184.564.746.282.395.282.182.846-.925.845-1.289.282-.573.564-1.62.282.129.282.27.282-.353.282-.578.282-.034.282.186.564-.08.846.969.282 1.406.564 3.55.564 1.257.564 1.749.282.474 1.41 4.762.281 1.126.282-.056.564-1.088.282-1.583.564-8.91.846-18.025 1.128-32.683.846-27.466.282-5.674.282-1.182.282 3.497.282 10.184 1.127 73.613.282 1.531.564 1.508.564-.914.564 2.485.282-.084.282-.671.564.454.282-1.274.564-4.774.564-2.845.282-.798.564-.72.564-1.034.282.52.281.967.282.387.282-.346.282.013.564 1.986.282.187.282-.066.282.73.564 2.268.846 1.868.564-.276.846 2.31.282.995.846 5.953.564.943.281 1.008.282 1.67.564 4.347.282.08.564-2.476.282-2.053.282-4.299.564-13.347.564-19.365 1.692-65.145.282-7.3.282-3.682.282-1.618.282 2.226.282 13.135.845 81.494.282 7.688.282.913.282.517.282-.085.846-4.889.282-.691.282.5.564 3.23.282-.041.282-.254.282.15.282-.726.282-1.725.282-.938.564.945.564-.657.282-.028.282-.814.563-2.541.564-.31.282-.438.282.122.564 1.234.282.22.564 1.056.564.057.282.875.564 3.673.282 1.042.282.158.282-.161.282.2.564 1.85 1.41 4.805.281.393.282-.03.564-1.404.282-1.231.282-2.331.846-11.17.564-14.147.564-17.196 1.128-42.424.564-14.338.282-1.92.282 3.766.282 11.636 1.127 78.002.282.465.282-.25 1.128 3.959.282-.709.282-1.847.282-.79.282.29.282-1.09.564-5.166.846-2.04.282-.138.282.699.282.26.282-.472.282-.232.282.456.282.764.282 1.334.845 6.924.564 2.097.564 3.267.282.62.282.263.282.633.846 3.301 1.128 6.473.846 4.928.282.61.564.245.282-.63.282-3.006.563-13.872.564-16.106.846-38.938 1.41-63.732.282-4.735.282.592.282 8.945.282 19.72.846 85.76.282 9.783.282.584.282.038.282 1.396.282-.511.282-2.193.282-.249.281 1.988.282.81 1.692-8.836.282.011.564.785.282.247.282-.009.282-1.215.564-3.86.282.005.282.505.564-.398.282 1.351.846 8.138.563 2.807.282 1.66.282.562.564-1.51.282.565.564 3.55 1.41 13.642.282 1.917.282.72.282-.346.282-.873.282-1.762.564-7.632.282-6.098.564-20.277.845-41.58 1.41-86.679.282-5.76.282 4.087.564 25.48.282 20.47.846 90.477.282 13.901.282 3.094.282-.02.282.162.282-.707.846-5.082.282-.799.282.154.282.705.282-.254.563-3.081.564-1.464.846-4.895.846-1.859.846-3.352.282-.926.282-.288.282 1.03.564 3.273.564 1.54 1.41 7.778.563 1.99.846 3.518.846 7.207.282 1.075.282 1.684.564 4.205.282-1.22.564-5.624.282-1.446.282-3.004.564-13.767.564-18.025.846-49.341 1.127-63.807.282-9.178.282-1.278.282 6.828.282 13.933.564 50.41.564 57.057.282 12.464.282 3.575.282 1.957.564 4.983.282.598.282.142.282-.108.564-1.405.282.101.282-.47.846-6.67.281-.218.282-1.064.282-1.597.282-.02.564 3.29.282-.153.282-.766.282-.115.282.556.564 2.18.846 4.33.564 4.333.282 1.055.282.502.282 1.028 1.128 8.167.282 2.537.845 10.564.282 1.44.282.444.282-.76.282-2.965.564-12.997.564-19.072.564-30.272 1.692-113.78.282-3.551.282.55.282 3.132.282 7.874.564 32.468 1.127 101.447.282 7.27.564 3.829.282 1.27.282-.29.846-3.589.282-.67.564-.563.564-.348.282-.49 1.974-8.271.282-.287.563.846.282.062.282-.13.282.209.846 1.566.564 3.27.564 3.066.564 6.594.846 9.004.564 5.546.282 2.413.846 12.861.845 5.817.282-1.207.564-7.903.282-5.994.564-21.386.564-33.793 1.41-108.257.282-9.191.564-5.404.282-1.118.282 3.633.564 21.504.564 39.094.564 50.673.282 16.066.281 8.14.282 3.658.564 3.764.282 1.257.846 2.044.564 3.078.282-.09.282-.726.282-.141.282.132.282-.54.282-.85.282-.328.282-.072.846-1.747.564-.322 1.41-1.315.281-.084.282.298.282 1.064.564 2.662.564 1.566.564 3.596.846 8.297.564 5.1.564 3.231.846 7.526.282-.544.845-4.997.282-5.109.564-19.962.564-27.215.846-56.626.564-39.569.282-11.423.282-3.316.282-.207.282-1.2.282.297.282 6.413.564 29.11.564 45.785.564 39.733.282 5.753.282 2.613.563 8.693.282 2.002.282.245.282.59.564 2.552.282-.061.564-2.904.282-.565.282.124.282-.4.564-1.822.564-.06.282-.216.282.195.564 1.162.282.313.282.748.846 3.662.281 1.803.564 5.866.564 7.05.846 6.658.564 8.194.564 3.99.846 9.115.564 1.534.282-.804.282-3.999.564-14.725.282-11.874.564-36.812.845-71.833.564-36.509 1.128-42.504.282-.461.282 4.708.282 10.286.564 39 1.128 107.441.282 7.925.846 5.207.282.112.282-.324.282.238.564.69.281-.12.564-2.158.282.513.282 1.984.282.911.846-3.54.282-.358.564-1.095.282.042.564.666.282.446.282.18.282-.016.282.347.564 2.13.846 3.111.282.937.281 1.786 1.41 14.77.846 10.798.846 9.006.282.774.282-.572.282-1.34.282-2.535.282-4.424.282-6.794.564-23.17.564-33.42.564-47.752.564-45.451 1.127-48.498.282-2.146.282 5.373.282 10.375.282 14.927.564 48.462.564 59.662.282 18.902.282 8.712.282 3.1.564 2.835.282.31.282-.322.846-2.463.282-.09.282.261.282.1.281-.243.564-1.041.282.087.564 1.388.282-.256.282-.548.282-.024.282.098.282-.86.282-1.627.282-.77.282 1.069.282 1.787.564 1.7.282 1.893.564 5.444.564 3.85 1.973 25.237.564 8.823.282 1.389.282.6.282-.85.282-3.873.564-13.003.282-9.309.564-29.961.564-42.896.564-50.717.846-49.468.282-10.803.282-3.579.282 1.917.282 5.58.281 10.387.564 36.573 1.41 114.387.282 3.893.564 2.818.282.355.282-1.24.564-2.948.564-1.115.282-.358.564.079.282-.462.282-.768.282-.334.282.22.282-.017.845-2.034.282.22.282.454.564 1.413.282.244.282.56 1.41 10.274.564 6.427.282 1.758.282 3.079.564 7.344.282 1.599.282 3.082.846 14.469.563 4.97.282.011.282-2.149.282-3.9.282-6.665.564-24.553.564-40.322 1.128-102.638.564-34.145.282-9.949.282-5.44.282-2.124.282 1.3.282 5.828.282 11.133.564 35.009.564 45.045.845 73.807.282 12.084.282 5.953.282 2.64.282.765.282-.442.282-1.22.564-4.378.564-4.358.282-1.083.282-.31.282-.135.564-.944.282.288.282.695.282.17.846-1.56.563-1.506.282-.047.564.76.282-.062.282-.187.282-.007.846 1.112.282.428.282 1.336 1.974 17.407.846 8.123.282 1.722.564 6.673.282 2.99.281.998.282-.007.282-.37.282-2.187.282-5.787.564-20.998.564-36.779 1.41-119.41.282-15.13.282-8.857.282-4.241.282-1.015.282 2.418.282 6.262.282 10.54.564 35.13 1.41 109.115.281 8.925.282 2.1.282-.177.282.905.564 5.309.282.146.564-2.765.282-.091.282-1.171.564-4.28.282-.224 1.128.962.564.352.282.328.282.557.281 1.322.564 3.782.564 2.474 1.128 9.005 1.692 21.221 1.128 13.01.282.206.282-1.599.282-3.951.282-6.41.282-9.299.282-14.248.563-45.827 1.128-102.636.282-14.823.564-14.22.282-4.234.282-.969.282 2.462.282 5.467.282 9.782.846 49.514 1.692 110.9.282 6.59.282.721.563-3.89.564-5.738.282-3.089.282-1.864.564-1.46.282.027.282.64.282.252.846-2.15.282-.561.282-1.159.282-.407.846 3.578.282.33.564 2.268.564.56.282 1.033.845 5.395 1.128 10.232.564 6.745 1.128 17.16.564 4.98.282.824.282-.753.282-2.74.282-5.327.282-8.989.282-14.324.564-46.316 1.127-104.897.564-24.431.564-10.906.282-1.745.282 1.28.282 3.863.282 7.316.564 27.387 1.128 65.5.846 55.85.564 22.846.282 4.579.282-.052 1.41-12.088.563-2.211.846-2.195.564-3.366.282-.521.282-.073 1.128-2.092.282-.813.282-.207.282 1.316.282 1.985.282.967.564-.848.282.377.846 3.797.563 3.238.564 4.608.564 4.968.564 3.055.564 7.878 1.41 19.356.282-.79.564-7.698.282-6.186.282-11.316.564-38.952.846-81.06.563-42.816.564-15.648.564-9.42.282-.661.282 2.908.282 5.573.282 8.392.564 27.786 1.974 113.178.564 19.602.282 4.83.282 2.108.282-.148.282-.867.281-.19.282-.049.846-2.685.282-.64.564-2.874.282-.162.282.177.564-1.126.282.375.564 1.6.282.503.564 1.885.282 1 .282 1.412 1.128 9.309.564 6.612.845 13.69.564 9.101.282 3.48.282 1.808.282-.97.282-3.645.282-6.017.282-9.741.564-34.982.564-53.92.564-58.944.282-17.215.846-26.767.282-5.24.282-2.415.282-.718.282 1.673.281 5.166.564 19.222 2.256 106.706.846 32.041.564 12.442.282 2.984.282.35.564-2.589.282-.752.282-1.095.846-5.01.563-2.592.564-2.787.282-1.05.282-.21.564 1.622.282-.812.282-1.48.282-.422.282.274.564-1.19.282 1.244.564 5.058.282.905.282 1.48 1.974 22.908 1.41 20.743.281 2.146.282.727.282-1.312.282-4.143.282-7.973.282-12.74.564-41.545 1.128-106.326.564-21.99.564-14.187.282-3.187.282-.422.282 1.873.282 4.063.281 6.697.564 21.85 1.128 47.897 1.692 58.431 1.128 33.486.282 4.401.282.743.846-3.624.564-4.069.282-.737.282-1.323.563-5.1.282-.702.282.144.282-.279.282-1.02.846-4.246.282.414.564 1.616.846 1.463.282.177.282.763.564 3.309.564 4.91 1.41 16.673.845 12.123.564 7.23.282 1.19.282-1.566.282-3.97.282-6.07.282-9.797.564-36.756 1.41-120.894.846-25.152.282-4.385.282-1.314.282.783.282 2.988.281 6.44.564 22.449 1.128 46.59 2.82 94.68.282 6.37.282 2.93.282.499.282-.122.282-.98.846-8.778.563-1.876.282-.78.282.002.282.328.564-.002.282 1.087.846 5.72.564 4.625.564 3.466.846 9.869 1.41 22.458.282 2.576.282-.253.282-2.353.281-4.83.282-9.62.564-36.942 1.41-121.753.564-19.088.282-6.27.282-3.19.564-3.537.282.191.282 3.097.564 14.298.564 22.371.564 26.183.846 26.405h0" clip-path="url(#pfde89eb7f4)" style="fill:none;stroke:#1f77b4;stroke-width:1.5;stroke-linecap:square"/><path id="patch_3" d="M71.308 266.112V0" style="fill:none;stroke:gray;stroke-width:.8;stroke-linejoin:miter;stroke-linecap:square"/><path id="patch_4" d="M685.107 266.112V0" style="fill:none;stroke:#000;stroke-width:.8;stroke-linejoin:miter;stroke-linecap:square"/><path id="patch_5" d="M71.308 266.112h613.8" style="fill:none;stroke:gray;stroke-width:.8;stroke-linejoin:miter;stroke-linecap:square"/><path id="patch_6" d="M71.308 0h613.8" style="fill:none;stroke:#000;stroke-width:.8;stroke-linejoin:miter;stroke-linecap:square"/></g></g><defs><clipPath id="pfde89eb7f4"><path d="M71.308 0h613.8v266.112h-613.8z"/></clipPath></defs></svg>