<svg xmlns="http://www.w3.org/2000/svg" xmlns:xlink="http://www.w3.org/1999/xlink" width="913.477" height="377.053" viewBox="0 0 685.107 282.79"><defs><style>*{stroke-linejoin:round;stroke-linecap:butt}</style></defs><g id="figure_1"><path id="patch_1" d="M0 282.79h685.107V0H0v282.79z" style="fill:none"/><g id="axes_1"><path id="patch_2" d="M71.308 266.112h613.8V0h-613.8v266.112z" style="fill:none"/><g id="matplotlib.axis_1"><g id="xtick_1"><g id="line2d_1"><defs><path id="m715188ca60" d="M0 0v3.5" style="stroke:gray;stroke-width:.8"/></defs><use xlink:href="#m715188ca60" x="99.207" y="266.112" style="fill:gray;stroke:gray;stroke-width:.8"/></g><g id="text_1" style="fill:gray" transform="matrix(.1 0 0 -.1 96.026 280.71)"><defs><path id="DejaVuSans-30" d="M2034 4250q-487 0-733-480-245-479-245-1442 0-959 245-1439 246-480 733-480 491 0 736 480 246 480 246 1439 0 963-246 1442-245 480-736 480zm0 500q785 0 1199-621 414-620 414-1801 0-1178-414-1799Q2819-91 2034-91q-784 0-1198 620-414 621-414 1799 0 1181 414 1801 414 621 1198 621z" transform="scale(.01563)"/></defs><use xlink:href="#DejaVuSans-30"/></g></g><g id="xtick_2"><use xlink:href="#m715188ca60" id="line2d_2" x="168.958" y="266.112" style="fill:gray;stroke:gray;stroke-width:.8"/><g id="text_2" style="fill:gray" transform="matrix(.1 0 0 -.1 159.414 280.71)"><defs><path id="DejaVuSans-35" d="M691 4666h2478v-532H1269V2991q137 47 274 70 138 23 276 23 781 0 1237-428 457-428 457-1159 0-753-469-1171Q2575-91 1722-91q-294 0-599 50Q819 9 494 109v635q281-153 581-228t634-75q541 0 856 284 316 284 316 772 0 487-316 771-315 285-856 285-253 0-505-56-251-56-513-175v2344z" transform="scale(.01563)"/></defs><use xlink:href="#DejaVuSans-35"/><use xlink:href="#DejaVuSans-30" x="63.623"/><use xlink:href="#DejaVuSans-30" x="127.246"/></g></g><g id="xtick_3"><use xlink:href="#m715188ca60" id="line2d_3" x="238.708" y="266.112" style="fill:gray;stroke:gray;stroke-width:.8"/><g id="text_3" style="fill:gray" transform="matrix(.1 0 0 -.1 225.982 280.71)"><defs><path id="DejaVuSans-31" d="M794 531h1031v3560L703 3866v575l1116 225h631V531h1031V0H794v531z" transform="scale(.01563)"/></defs><use xlink:href="#DejaVuSans-31"/><use xlink:href="#DejaVuSans-30" x="63.623"/><use xlink:href="#DejaVuSans-30" x="127.246"/><use xlink:href="#DejaVuSans-30" x="190.869"/></g></g><g id="xtick_4"><use xlink:href="#m715188ca60" id="line2d_4" x="308.457" y="266.112" style="fill:gray;stroke:gray;stroke-width:.8"/><g id="text_4" style="fill:gray" transform="matrix(.1 0 0 -.1 295.733 280.71)"><use xlink:href="#DejaVuSans-31"/><use xlink:href="#DejaVuSans-35" x="63.623"/><use xlink:href="#DejaVuSans-30" x="127.246"/><use xlink:href="#DejaVuSans-30" x="190.869"/></g></g><g id="xtick_5"><use xlink:href="#m715188ca60" id="line2d_5" x="378.207" y="266.112" style="fill:gray;stroke:gray;stroke-width:.8"/><g id="text_5" style="fill:gray" transform="matrix(.1 0 0 -.1 365.483 280.71)"><defs><path id="DejaVuSans-32" d="M1228 531h2203V0H469v531q359 372 979 998 621 627 780 809 303 340 423 576 121 236 121 464 0 372-261 606-261 235-680 235-297 0-627-103-329-103-704-313v638q381 153 712 231 332 78 607 78 725 0 1156-363 431-362 431-968 0-288-108-546-107-257-392-607-78-91-497-524-418-433-1181-1211z" transform="scale(.01563)"/></defs><use xlink:href="#DejaVuSans-32"/><use xlink:href="#DejaVuSans-30" x="63.623"/><use xlink:href="#DejaVuSans-30" x="127.246"/><use xlink:href="#DejaVuSans-30" x="190.869"/></g></g><g id="xtick_6"><use xlink:href="#m715188ca60" id="line2d_6" x="447.957" y="266.112" style="fill:gray;stroke:gray;stroke-width:.8"/><g id="text_6" style="fill:gray" transform="matrix(.1 0 0 -.1 435.233 280.71)"><use xlink:href="#DejaVuSans-32"/><use xlink:href="#DejaVuSans-35" x="63.623"/><use xlink:href="#DejaVuSans-30" x="127.246"/><use xlink:href="#DejaVuSans-30" x="190.869"/></g></g><g id="xtick_7"><use xlink:href="#m715188ca60" id="line2d_7" x="517.707" y="266.112" style="fill:gray;stroke:gray;stroke-width:.8"/><g id="text_7" style="fill:gray" transform="matrix(.1 0 0 -.1 504.983 280.71)"><defs><path id="DejaVuSans-33" d="M2597 2516q453-97 707-404 255-306 255-756 0-690-475-1069Q2609-91 1734-91q-293 0-604 58T488 141v609q262-153 574-231 313-78 654-78 593 0 904 234t311 681q0 413-289 645-289 233-804 233h-544v519h569q465 0 712 186t247 536q0 359-255 551-254 193-729 193-260 0-557-57-297-56-653-174v562q360 100 674 150t592 50q719 0 1137-327 419-326 419-882 0-388-222-655t-631-370z" transform="scale(.01563)"/></defs><use xlink:href="#DejaVuSans-33"/><use xlink:href="#DejaVuSans-30" x="63.623"/><use xlink:href="#DejaVuSans-30" x="127.246"/><use xlink:href="#DejaVuSans-30" x="190.869"/></g></g><g id="xtick_8"><use xlink:href="#m715188ca60" id="line2d_8" x="587.457" y="266.112" style="fill:gray;stroke:gray;stroke-width:.8"/><g id="text_8" style="fill:gray" transform="matrix(.1 0 0 -.1 574.732 280.71)"><use xlink:href="#DejaVuSans-33"/><use xlink:href="#DejaVuSans-35" x="63.623"/><use xlink:href="#DejaVuSans-30" x="127.246"/><use xlink:href="#DejaVuSans-30" x="190.869"/></g></g><g id="xtick_9"><use xlink:href="#m715188ca60" id="line2d_9" x="657.207" y="266.112" style="fill:gray;stroke:gray;stroke-width:.8"/><g id="text_9" style="fill:gray" transform="matrix(.1 0 0 -.1 644.482 280.71)"><defs><path id="DejaVuSans-34" d="M2419 4116 825 1625h1594v2491zm-166 550h794V1625h666v-525h-666V0h-628v1100H313v609l1940 2957z" transform="scale(.01563)"/></defs><use xlink:href="#DejaVuSans-34"/><use xlink:href="#DejaVuSans-30" x="63.623"/><use xlink:href="#DejaVuSans-30" x="127.246"/><use xlink:href="#DejaVuSans-30" x="190.869"/></g></g></g><g id="matplotlib.axis_2"><g id="ytick_1"><g id="line2d_10"><defs><path id="m3583a5b404" d="M0 0h-3.5" style="stroke:gray;stroke-width:.8"/></defs><use xlink:href="#m3583a5b404" x="71.308" y="210.934" style="fill:gray;stroke:gray;stroke-width:.8"/></g><g id="text_10" style="fill:gray" transform="matrix(.16 0 0 -.16 0 217.013)"><defs><path id="DejaVuSans-2212" d="M678 2272h4006v-531H678v531z" transform="scale(.01563)"/></defs><use xlink:href="#DejaVuSans-2212"/><use xlink:href="#DejaVuSans-32" x="83.789"/><use xlink:href="#DejaVuSans-30" x="147.412"/><use xlink:href="#DejaVuSans-30" x="211.035"/><use xlink:href="#DejaVuSans-30" x="274.658"/><use xlink:href="#DejaVuSans-30" x="338.281"/></g></g><g id="ytick_2"><use xlink:href="#m3583a5b404" id="line2d_11" x="71.308" y="145.784" style="fill:gray;stroke:gray;stroke-width:.8"/><use xlink:href="#DejaVuSans-30" id="text_11" style="fill:gray" transform="matrix(.16 0 0 -.16 54.127 151.862)"/></g><g id="ytick_3"><use xlink:href="#m3583a5b404" id="line2d_12" x="71.308" y="80.633" style="fill:gray;stroke:gray;stroke-width:.8"/><g id="text_12" style="fill:gray" transform="matrix(.16 0 0 -.16 13.408 86.712)"><use xlink:href="#DejaVuSans-32"/><use xlink:href="#DejaVuSans-30" x="63.623"/><use xlink:href="#DejaVuSans-30" x="127.246"/><use xlink:href="#DejaVuSans-30" x="190.869"/><use xlink:href="#DejaVuSans-30" x="254.492"/></g></g><g id="ytick_4"><use xlink:href="#m3583a5b404" id="line2d_13" x="71.308" y="15.483" style="fill:gray;stroke:gray;stroke-width:.8"/><g id="text_13" style="fill:gray" transform="matrix(.16 0 0 -.16 13.408 21.562)"><use xlink:href="#DejaVuSans-34"/><use xlink:href="#DejaVuSans-30" x="63.623"/><use xlink:href="#DejaVuSans-30" x="127.246"/><use xlink:href="#DejaVuSans-30" x="190.869"/><use xlink:href="#DejaVuSans-30" x="254.492"/></g></g></g><path id="line2d_14" d="m99.207 145.542.282.473.282-.453.282.434.282-.417.282.402.282-.387.282.373.282-.361.282.35.282-.34.282.33.282-.321.282.314.282-.307.282.3.282-.293.282.286.282-.28.282.275.282-.27.282.266.282-.263.282.26.282-.257.282.254.281-.251.282.249.282-.248.282.246.282-.245.282.245.282-.245.282.245.282-.246.282.248.282-.25.282.254.282-.26.282.266.282-.273.282.282.282-.293.282.308.282-.328.282.355.282-.393.282.447.282-.53.282.676.282-.992.281 2.222.282-1.304.564-29.872.282-9.965.282-1.973.282 5.176.564 14.576.564 6.517.282 2.41.282.607.282-.262.282.595.282 2.243.282 4.18.564 10.79.282 1.097.564-3.148.282-.633.564-5.044.282-.364.563 4.274.282.293.282.934.564 4.806.846 3.385.282.16.282-.43.282.144.846 2.932.564 2.631.282-.353.282-.73.282-.142.846 1.992.282.118.282.372.281-.639.282-5.443.564-31.137.282-15.38.282-7.772.282-.207.282 5.112.564 14.22.282 4.486.282 2.624.282 1.4.282.352.282-.358.282.58.282 2.479.564 9.678.564 9.27.282.525.846-5.988.281-1.104.282-.025.564 2.737.564.79.564 2.22.282-.085.282-.21.282.798.564 2.321.282.797.282.379.282-.111.282.359.564 2.72.564 2.867.282.729.282.048.282.402.564 2.209.563.997.282-.962.282-7.058 1.128-55.81.282-1.209.282 4.99.564 15.333.282 4.64.282 1.848.564.745.564 2.183.282 1.774.282 3.786.564 12.393.282 3.625.282.4.282-1.448.563-3.871.282-1.174.282-.194.282.462 1.41 3.593 1.128 1.038.282.998.564 2.75.282.56.282 1.17.564 3.463.564 1.003 1.127 4.413.564.513.282.869.282-1.595.282-8.777.846-49.335.282-7.614.282-.646.282 5.307.564 14.38.564 7.236.282 2.782.282 1.613.282.5.282.992.282 2.495 1.128 16.585.281 1.033.282-1.423.564-4.825.282-.392.564 1.755.282.373.282.154.282.346.846 2.71.282.144.282.39.846 2.632.564 1.26.282.258.282.654.564 3.31.282.372.281.008.282 1.23.282 1.869.282.893.282-.107.282.41.282.698.282-2.169.282-8.712.846-46.088.282-6.482.282.923.564 14.983.282 7.31.282 4.086.282.784.564-2.427.282.313.282 2.008.282 3.627.845 18.85.282 1.07.564-3.574.846-3.049.282.116.564 1.065.846 3.157.282.155.564.82.282-.451.282-.008.564 2.111.282.18.282.63.282 1.386.282.802.282.33.281 1.743.282 2.759.282 1.323.282-.216.282.7.564 3.879.282.919.282-.966.282-6.77 1.128-57.542.282-3.09.282 3.753.564 18.49.282 5.374.846 8.456.282.214.282.767.282 3.868.563 9.593.282 1.522.282-.45.846-5.455.282.244 1.128 3.006.282.425.282.008.282.27.846 2.313.564 3.277.282.796.282.4.846 2.394.282.697.563 2.214.282.32.282.763.282 1.3 1.128 2.792.282-5.118.564-28.509.564-27.508.282-4.394.282 3.197.846 22.673.282 3.56.282 1.166.282-.003.282.134.282.746.282 1.439.281 2.991.846 14.43.282.226.564-3.697.282-.866.282.179.282.012.564-2.485.282.806.282 2.338.282 1.166.282-.09.282 1.694.564 7.748.282.846.282.205.564 2.425.564-2.073.281.497.282 1.419.564 1.788.846 5.65.282 1.261.282-.293.282-6.16.564-31.913.564-29.045.282-6.6.282.802 1.128 27.724.282 3.039.282 1.458.282.19.282-.5.282.31.282 3.612.845 20.743.282-.098.846-7.294.282-1.208.282-.13.282.736.564 2.966.846 5.197.564 2.487.846 2.436.564 2.858.846 4.386.845 3.076.564 1.637.282.477.282.875.282.47.282-3.161.282-10.286 1.128-65.854.282-3.23.282 3.475 1.128 32.64.282 2.539.282 1.437.282.525.282.204.282 2.848.845 20.195.282 1.18.282-.575.282-1.927.564-5.245.282-.366.282-.039.282-.729.282.004.846 5.75.282.63.846 3.355.282.276.282 1.06 1.128 8.813 1.127 7.055.282.486.564.16.282.194.282-.571.282-4.124.282-11.505.846-58.842.282-9.81.282-3.518.282 2.18.564 18.75.564 15.53.564 9.442.564 3.902.282 4.645.563 13.567.282 1.897.564-.592.282-1.148.564-3.58.564-.534.282-.62.282.233.282.845.564 1.14.564 3.153.564 1.88.564 2.53.282.977 2.255 16.073.282 2.666.282 1.069.564.382.282-3.775.282-13.085 1.128-76.753.282-8.52.282-1.744.282 4.55.846 28.398.564 17.917.282 4.684.282 2.305.282 4.029.845 19.974.282.994.282-1.47.846-11.37.564-.711.282-.266.282 1.433.564 4.814.282.905.564.915.282.905 1.128 8.717.282.818.564 3.273.563 4.104.846 9.009.282.972.282.074.282.335.564.948.282-.392.282-3.677.282-11.697 1.128-86.316.282-10.478.282-4.247.282 2.297.564 15.47 1.41 46.283.563 17.994.282 9.43.282 5.452.282 1.073.282-1.874.846-8.249.282-1.49.282-.637.282.33.564 1.555.282.047.564-1.133.282.052.564 2.466.564 2.648.564 2.994.281 1.162.282 2.435.564 5.724.282.565.282.872.282 1.813.282.94.282-.358.282.147.564 2.541.282.047.282-2.577.282-8.423.564-36.918.564-37.759.282-11.515.282-3.43.282 4.432.564 19.99.564 22.886.281 7.127.564 9.03.846 21.968.282.007.846-8.232.564-2.265.282-.525.282.204.564 1.26.282.726.282.362.564-.095.564.316.282.564.845 3.167.282 1.967.564 5.508 1.128 7.983.282.935.846 3.854.282 1.397.282 2.083.282.884.282-2.945.282-9.529.564-42.664.564-44.006.282-11.448.282-4.557.282 1.47.282 6.288.563 22.233.564 24.217 1.41 39.122.282 2.452.282-.19.282-1.58.564-4.68.282-1.214.282-.3.282.06.282.343 1.41 3.165.564-.17.282.885.845 5.021.564 3.97.282 1.115.282 1.97.564 5.562.564 2.61.564 3.251.282.982.564 3.144.282-2.202.282-9.778.564-42.03.564-46.115.564-25.967.282-3.525.281 1.838.564 11.813.846 30.477.564 24.142.564 33.246.282 9.16.282 2.118.282-1.18.282-2.124.846-8.866.282-1 .282.09.564 2.298.282 1.021.564 1.077.282.267.281-.004.282 1.068.846 9.383.282.813.282 1.587.564 4.142.282 1.605 1.41 11.935.564 3.81.282.912.282-1.99.282-8.843.282-18.084 1.128-100.408.282-12.036.281-6.232.282-.237.846 14.743.282 7.757.846 36.707.564 39.126.282 19.147.282 7.802.282-.583.846-5.003.282-3.335.282-1.559.282-.066.282.227.282.812.564 2.547.282.356.563 1.35.282-.675.282-1.675.282-.822.282.795.564 2.912.282 2.134 1.692 18.677.564 5.084.564 5.181.282 1.307.282-.493.282-7.628.282-19.403 1.127-104.42.282-15.924.282-6.087.282.872.846 6.17.846 17.346.282 9.363.282 16.062.846 69.919.282 8.491.282.306.564-6.226.564-5.63.846-3.626.282.337.845 5.746.282.906.282.496.282.164.282.838 1.41 10.538 1.128 8.972 1.692 14.877.282 1.184.282-1.887.282-9.377.281-20.201 1.128-110.813.282-12.873.282-4.162.564.873.282.555.282 2.783.846 15.956.282 11.907.564 46.678.564 45 .282 7.117.282-.68.846-6.563.564-4.268.281-1.344.282-.453.282.944.564 3.42.282.205.282-.253.282.284.846 2.011.564 2.718.564 1.351.282 2.5.564 6.23.564 2.795.564 3.797.564 2.254.282.242.281-4.076.282-12.386.564-47.94.564-49.269.282-17.194.282-9.63.282-1.35.282 4.695.846 23.465.282 9.84.282 15.504.846 63.184.282 8.468.282.935 1.128-12.715.563-3.563.282.09.564 2.224.846 4.572.282-.09.282.16.846 2.652 1.128 5.387.564 3.43 1.974 19.976.282.205.281-3.525.282-12.08.564-55.447.564-54.903.282-18.053.282-10.39.282-1.2 1.128 21.547.564 17.983.282 14.939.846 68.654.282 6.72.282.936.282-.3.282-2.502.564-6.93.281-.347.282-.619.282-.952.282 1.42.564 8.154.282 1.767.282.73 1.41 6.994.564 3.817.282 1.326 1.128 9.236.846 8.864.564 4.301.281-.36.282-9.357.564-47.08.846-85.248.282-11.643.282-2.205.282-.327.564-4.056.282-.524.282.48.282 1.41.282 4.006.282 8.924.282 16.28.846 72.006.282 11.33.282 3.384.282.889.282.483.282-1.002.281-2.213.282-.801.846 4.225.282 2.87.846 12.616.846 6.647.846 3.58.564 5.863.846 8.76.564 9.442.846 8.469.281-4.755.282-15.637.564-56.635.564-61.824.282-15.152 1.41-26.595.846-12.428.282-1.05.282 3.694L426 45.66l1.41 98.843.282 6.563.845 9.41.564 2.765.282 1.632.564 5.341 1.128 14.15.564 11.326 1.692 21.106.564 7.073.564 4.948.564 7.324.282-.197.281-9.375.282-21.609 1.128-126.466.564-22.645 1.128-38.674.282-2.989.282-.61.282.907.282 4.447.282 11.095.564 44.894.564 52.42.564 32.578.282 7.533.282 1.97.281-.59.564.005.564-6.116.282-.13.564 9.316 1.974 33.36 1.692 26.051.564 10.03.282 2.472.282 1.014.282-3.379.281-11.803.282-22.465 1.128-127.829 1.128-57.22.282-4.19.564-1.914.282 1.329.282 4.213.282 6.455.282 10.68.564 40.516.846 62.976.564 20.132.282 4.604.281 2.235.282.053 1.41-7.486.282.921.564 9.655.564 10.001 1.128 26.766 1.128 19.08.564 10.98.282 3.81.564 11.064.281-.812.282-6.788.282-12.504.282-24.594.846-117.182.846-56.135.282-12.582.282-6.21.282-3.292.282-1.821.282 1.195.564 7.66.282 5.695.282 10.907.564 38.137.846 61.195.564 23.928.563 11.31.282 3.37.282.092.564-3.005.282-.515.564-3.334.282.149.282 3.705 1.128 20.798.564 7.215.564 7.57.282 4.041.564 4.55 1.691 22.85.282-6.605.282-21.277L480.7 75.908l.564-38.36.282-10.643.282-4.283.564-3.268.282.95.282 4.227.282 6.833.282 10.586.564 39.443.846 65.159.564 21.753.563 8.163.282 1.649.282-.447 1.128-7.411.282.415.564 1.29.282 1.667 2.538 30.33.282 1.933.282 3.338.845 14.407.282 2.802.282-.885.282-9.93.282-22.045 1.128-126.255.564-32.285.282-8.01.282-3.165.282-1.131.282.13.282 2.62.282 6.016.282 10.735.564 42.107.564 44.257.564 33.496.282 9.536.281 4.11.282 2.472.282 1.076.282-1.752.282-2.467.282-.196.282.478.564-2.072.282 1.1 1.41 12.32 1.128 12.24.846 12.325.846 8.51.282 2.315.281 3.25.282.613.282-9.157.282-22.1 1.41-150.891.282-10.354.564-10.29.282-2.068.282.433.282 2.416.282 3.563.282 5.65.282 11.588 1.41 93.322.564 23.015.563 11.16.282 3.526.282 1.825.846 1.642.282-.115.282.111.282 1.589 1.128 11.095.564 9.051 1.128 12.695 1.691 18.648.282-1.547.282-11.3.282-25.557.846-110.663.564-35.52.564-14.14.282-3.424.282-1.623.282.09.282 1.714.282 3.62.282 5.651.282 8.268.564 26.715.846 46.268.564 19.445.282 5.525.845 8.997 3.102 54.47.846 7.628 2.256 22.553.281.98.282-4.516.282-17.299.564-80.963.564-67.773.564-25.884.282-6.431.282-2.158.282-.143.282.146.282 1.15.564 7.358.282 4.48.282 6.48.564 26.176.564 27.783.564 21.437.282 7.147.282 2.506.281 1.173.564 6.176.564 2.765.282 4.411 1.41 32.535.846 20.936.282 5.692.564 5.487.846 8.486.846 11.148.845 3.834.282-4.176.282-14.579.282-28.884.846-117.073.282-16.928.564-17.21.282-5.15.282-.99.282 1.4.282 2.746 1.128 17.268.564 25.364.846 41.636.282 7.026.563 4.931.282 1.673.282.214.564-3.288.282-.383.282 1.435.282 3.454.564 11.394.564 15.7 1.692 52.892.282 3.92.846 5.36.846 9.295.563 8.979.282-.137.282-9.344.282-23.643 1.128-138.18.564-22.113.282-6.469.282-2.708.282-.539.282.933.282 3.691.846 18.263.564 18.268.846 31.695.282 6.005.282 2.116.281.615.282 1.986.564 5.231.282-.46.282-1.14.282-.19.564.479.282 2.502.846 19.578.564 17.504.846 28.12.846 22.736.564 7.861.564 4.96.563 7.286.282 1.862.282.37.282-.667.282-5.676.282-18.723 1.128-142.886.564-21.942.282-7.125.282-2.9.282.502.282 2.36.282 3.91 1.128 23.818.564 21.77.564 22.19.281 6.938.282 3.591.282.987.282-.327.564-.058.282-.786.282-1.563.282-.593.282.923.564 2.668.282 2.984.282 7.054.846 29.836 1.128 29.89.846 16.473.563 11.724.282 3.691.282 1.836.282.871.282-.328.564-2.994.282-4.05.282-13.659.564-67.83.564-63.802.564-25.744.282-5.735.282-2.46.282-.535.282.089.282 2.104.282 5.284.564 18.402 1.127 48.565.564 12.048.564 5.036.564 9.838.282.944.282-.905.282-.019.282-.85.564-4.455.282.393.282 1.477.282 3.413 1.128 29.373.846 21.428.564 10.753 1.127 12.387.282.955.282 1.523.564 6.273.282-3.957.282-16.21.564-71.885.564-61.095.564-25.022.282-7.104.282-2.838.282.54.282 3.392 1.128 27.808 1.41 58.889.281 5.728.282 2.815.282.75.282.396.282-.465.564-2.326.282-1.558.282-2.32.282-.337.846 9.873.282 1.657.282 3.814.846 19.12 1.691 45.816 1.128 18.332.282.708.282-.112.282-1.955.282-12.354.564-74.744.282-37.359.282-20.857.564-19.161.282-6.976.282-2.92.282-.864.282.282.282 2.671.846 16.234.563 18.128.846 32.26.282 6.534.282 2.182.282.437.282.169.282-.075.846-3.572.282.488.564 1.856.282 1.22.564 5.247.564 6.506.564 12.103 2.255 59.979.846 15.073.282 3.137.282.46.282-8.459.282-25.037.564-80.459.282-25.365.564-21.983.282-7.517.282-3.675.564-2.032.282 1.24.846 12.528.282 6.222 1.41 45.045.281 1.71.282-.618.282.495.564 1.943.282.252.564 1.759.282 1.58.282.667.564.62.282 3.473.846 14.114.564 9.155.564 9.324.563 9.393.846 16.444.564 11.426.564 12.677.564 5.91.282-7.041.282-21.778.564-68.703.282-21.483.846-30.294.282-6.662.282-1.232.282-2.337.282 4.515.282 1.891.282 7.546.281-2.576h0" clip-path="url(#p40f765f64c)" style="fill:none;stroke:#1f77b4;stroke-width:1.5;stroke-linecap:square"/><path id="patch_3" d="M71.308 266.112V0" style="fill:none;stroke:gray;stroke-width:.8;stroke-linejoin:miter;stroke-linecap:square"/><path id="patch_4" d="M685.107 266.112V0" style="fill:none;stroke:#000;stroke-width:.8;stroke-linejoin:miter;stroke-linecap:square"/><path id="patch_5" d="M71.308 266.112h613.8" style="fill:none;stroke:gray;stroke-width:.8;stroke-linejoin:miter;stroke-linecap:square"/><path id="patch_6" d="M71.308 0h613.8" style="fill:none;stroke:#000;stroke-width:.8;stroke-linejoin:miter;stroke-linecap:square"/></g></g><defs><clipPath id="p40f765f64c"><path d="M71.308 0h613.8v266.112h-613.8z"/></clipPath></defs></svg>