<svg xmlns="http://www.w3.org/2000/svg" xmlns:xlink="http://www.w3.org/1999/xlink" width="913.477" height="377.053" viewBox="0 0 685.107 282.79"><defs><style>*{stroke-linejoin:round;stroke-linecap:butt}</style></defs><g id="figure_1"><path id="patch_1" d="M0 282.79h685.107V0H0v282.79z" style="fill:none"/><g id="axes_1"><path id="patch_2" d="M71.308 266.112h613.8V0h-613.8v266.112z" style="fill:none"/><g id="matplotlib.axis_1"><g id="xtick_1"><g id="line2d_1"><defs><path id="m02e16a7429" d="M0 0v3.5" style="stroke:gray;stroke-width:.8"/></defs><use xlink:href="#m02e16a7429" x="99.207" y="266.112" style="fill:gray;stroke:gray;stroke-width:.8"/></g><g id="text_1" style="fill:gray" transform="matrix(.1 0 0 -.1 96.026 280.71)"><defs><path id="DejaVuSans-30" d="M2034 4250q-487 0-733-480-245-479-245-1442 0-959 245-1439 246-480 733-480 491 0 736 480 246 480 246 1439 0 963-246 1442-245 480-736 480zm0 500q785 0 1199-621 414-620 414-1801 0-1178-414-1799Q2819-91 2034-91q-784 0-1198 620-414 621-414 1799 0 1181 414 1801 414 621 1198 621z" transform="scale(.01563)"/></defs><use xlink:href="#DejaVuSans-30"/></g></g><g id="xtick_2"><use xlink:href="#m02e16a7429" id="line2d_2" x="168.958" y="266.112" style="fill:gray;stroke:gray;stroke-width:.8"/><g id="text_2" style="fill:gray" transform="matrix(.1 0 0 -.1 159.414 280.71)"><defs><path id="DejaVuSans-35" d="M691 4666h2478v-532H1269V2991q137 47 274 70 138 23 276 23 781 0 1237-428 457-428 457-1159 0-753-469-1171Q2575-91 1722-91q-294 0-599 50Q819 9 494 109v635q281-153 581-228t634-75q541 0 856 284 316 284 316 772 0 487-316 771-315 285-856 285-253 0-505-56-251-56-513-175v2344z" transform="scale(.01563)"/></defs><use xlink:href="#DejaVuSans-35"/><use xlink:href="#DejaVuSans-30" x="63.623"/><use xlink:href="#DejaVuSans-30" x="127.246"/></g></g><g id="xtick_3"><use xlink:href="#m02e16a7429" id="line2d_3" x="238.708" y="266.112" style="fill:gray;stroke:gray;stroke-width:.8"/><g id="text_3" style="fill:gray" transform="matrix(.1 0 0 -.1 225.982 280.71)"><defs><path id="DejaVuSans-31" d="M794 531h1031v3560L703 3866v575l1116 225h631V531h1031V0H794v531z" transform="scale(.01563)"/></defs><use xlink:href="#DejaVuSans-31"/><use xlink:href="#DejaVuSans-30" x="63.623"/><use xlink:href="#DejaVuSans-30" x="127.246"/><use xlink:href="#DejaVuSans-30" x="190.869"/></g></g><g id="xtick_4"><use xlink:href="#m02e16a7429" id="line2d_4" x="308.457" y="266.112" style="fill:gray;stroke:gray;stroke-width:.8"/><g id="text_4" style="fill:gray" transform="matrix(.1 0 0 -.1 295.733 280.71)"><use xlink:href="#DejaVuSans-31"/><use xlink:href="#DejaVuSans-35" x="63.623"/><use xlink:href="#DejaVuSans-30" x="127.246"/><use xlink:href="#DejaVuSans-30" x="190.869"/></g></g><g id="xtick_5"><use xlink:href="#m02e16a7429" id="line2d_5" x="378.207" y="266.112" style="fill:gray;stroke:gray;stroke-width:.8"/><g id="text_5" style="fill:gray" transform="matrix(.1 0 0 -.1 365.483 280.71)"><defs><path id="DejaVuSans-32" d="M1228 531h2203V0H469v531q359 372 979 998 621 627 780 809 303 340 423 576 121 236 121 464 0 372-261 606-261 235-680 235-297 0-627-103-329-103-704-313v638q381 153 712 231 332 78 607 78 725 0 1156-363 431-362 431-968 0-288-108-546-107-257-392-607-78-91-497-524-418-433-1181-1211z" transform="scale(.01563)"/></defs><use xlink:href="#DejaVuSans-32"/><use xlink:href="#DejaVuSans-30" x="63.623"/><use xlink:href="#DejaVuSans-30" x="127.246"/><use xlink:href="#DejaVuSans-30" x="190.869"/></g></g><g id="xtick_6"><use xlink:href="#m02e16a7429" id="line2d_6" x="447.957" y="266.112" style="fill:gray;stroke:gray;stroke-width:.8"/><g id="text_6" style="fill:gray" transform="matrix(.1 0 0 -.1 435.233 280.71)"><use xlink:href="#DejaVuSans-32"/><use xlink:href="#DejaVuSans-35" x="63.623"/><use xlink:href="#DejaVuSans-30" x="127.246"/><use xlink:href="#DejaVuSans-30" x="190.869"/></g></g><g id="xtick_7"><use xlink:href="#m02e16a7429" id="line2d_7" x="517.707" y="266.112" style="fill:gray;stroke:gray;stroke-width:.8"/><g id="text_7" style="fill:gray" transform="matrix(.1 0 0 -.1 504.983 280.71)"><defs><path id="DejaVuSans-33" d="M2597 2516q453-97 707-404 255-306 255-756 0-690-475-1069Q2609-91 1734-91q-293 0-604 58T488 141v609q262-153 574-231 313-78 654-78 593 0 904 234t311 681q0 413-289 645-289 233-804 233h-544v519h569q465 0 712 186t247 536q0 359-255 551-254 193-729 193-260 0-557-57-297-56-653-174v562q360 100 674 150t592 50q719 0 1137-327 419-326 419-882 0-388-222-655t-631-370z" transform="scale(.01563)"/></defs><use xlink:href="#DejaVuSans-33"/><use xlink:href="#DejaVuSans-30" x="63.623"/><use xlink:href="#DejaVuSans-30" x="127.246"/><use xlink:href="#DejaVuSans-30" x="190.869"/></g></g><g id="xtick_8"><use xlink:href="#m02e16a7429" id="line2d_8" x="587.457" y="266.112" style="fill:gray;stroke:gray;stroke-width:.8"/><g id="text_8" style="fill:gray" transform="matrix(.1 0 0 -.1 574.732 280.71)"><use xlink:href="#DejaVuSans-33"/><use xlink:href="#DejaVuSans-35" x="63.623"/><use xlink:href="#DejaVuSans-30" x="127.246"/><use xlink:href="#DejaVuSans-30" x="190.869"/></g></g><g id="xtick_9"><use xlink:href="#m02e16a7429" id="line2d_9" x="657.207" y="266.112" style="fill:gray;stroke:gray;stroke-width:.8"/><g id="text_9" style="fill:gray" transform="matrix(.1 0 0 -.1 644.482 280.71)"><defs><path id="DejaVuSans-34" d="M2419 4116 825 1625h1594v2491zm-166 550h794V1625h666v-525h-666V0h-628v1100H313v609l1940 2957z" transform="scale(.01563)"/></defs><use xlink:href="#DejaVuSans-34"/><use xlink:href="#DejaVuSans-30" x="63.623"/><use xlink:href="#DejaVuSans-30" x="127.246"/><use xlink:href="#DejaVuSans-30" x="190.869"/></g></g></g><g id="matplotlib.axis_2"><g id="ytick_1"><g id="line2d_10"><defs><path id="md796a75240" d="M0 0h-3.5" style="stroke:gray;stroke-width:.8"/></defs><use xlink:href="#md796a75240" x="71.308" y="248.019" style="fill:gray;stroke:gray;stroke-width:.8"/></g><g id="text_10" style="fill:gray" transform="matrix(.16 0 0 -.16 0 254.098)"><defs><path id="DejaVuSans-2212" d="M678 2272h4006v-531H678v531z" transform="scale(.01563)"/></defs><use xlink:href="#DejaVuSans-2212"/><use xlink:href="#DejaVuSans-34" x="83.789"/><use xlink:href="#DejaVuSans-30" x="147.412"/><use xlink:href="#DejaVuSans-30" x="211.035"/><use xlink:href="#DejaVuSans-30" x="274.658"/><use xlink:href="#DejaVuSans-30" x="338.281"/></g></g><g id="ytick_2"><use xlink:href="#md796a75240" id="line2d_11" x="71.308" y="193.257" style="fill:gray;stroke:gray;stroke-width:.8"/><g id="text_11" style="fill:gray" transform="matrix(.16 0 0 -.16 0 199.336)"><use xlink:href="#DejaVuSans-2212"/><use xlink:href="#DejaVuSans-32" x="83.789"/><use xlink:href="#DejaVuSans-30" x="147.412"/><use xlink:href="#DejaVuSans-30" x="211.035"/><use xlink:href="#DejaVuSans-30" x="274.658"/><use xlink:href="#DejaVuSans-30" x="338.281"/></g></g><g id="ytick_3"><use xlink:href="#md796a75240" id="line2d_12" x="71.308" y="138.495" style="fill:gray;stroke:gray;stroke-width:.8"/><use xlink:href="#DejaVuSans-30" id="text_12" style="fill:gray" transform="matrix(.16 0 0 -.16 54.127 144.574)"/></g><g id="ytick_4"><use xlink:href="#md796a75240" id="line2d_13" x="71.308" y="83.733" style="fill:gray;stroke:gray;stroke-width:.8"/><g id="text_13" style="fill:gray" transform="matrix(.16 0 0 -.16 13.408 89.812)"><use xlink:href="#DejaVuSans-32"/><use xlink:href="#DejaVuSans-30" x="63.623"/><use xlink:href="#DejaVuSans-30" x="127.246"/><use xlink:href="#DejaVuSans-30" x="190.869"/><use xlink:href="#DejaVuSans-30" x="254.492"/></g></g><g id="ytick_5"><use xlink:href="#md796a75240" id="line2d_14" x="71.308" y="28.971" style="fill:gray;stroke:gray;stroke-width:.8"/><g id="text_14" style="fill:gray" transform="matrix(.16 0 0 -.16 13.408 35.05)"><use xlink:href="#DejaVuSans-34"/><use xlink:href="#DejaVuSans-30" x="63.623"/><use xlink:href="#DejaVuSans-30" x="127.246"/><use xlink:href="#DejaVuSans-30" x="190.869"/><use xlink:href="#DejaVuSans-30" x="254.492"/></g></g></g><path id="line2d_15" d="m99.207 138.516.846-.042.846.044.846-.046.846.048.846-.05.846.052.846-.056.282.06.282-.062.282.063.282-.064.281.066.282-.069.282.071.282-.073.282.076.282-.08.282.083.282-.086.282.09.282-.094.282.1.282-.106.282.112.282-.12.282.13.282-.14.282.152.282-.168.282.187.282-.21.282.24.282-.283.282.345.282-.441.282.616.281-1.035.564 8.068.282-.932.282 1.488.282.664.282 1.117.282-.06.564.219.282 1 .282.31.564.117.282.74.282-.178.282-.415.282.868.564 4.832.282.37.282-.023.564 2.36.845 1.337.282-2.054.282-6.055 1.128-34.681.282-3.087.282-.361.282.03.282-.33.564-1.461.282-.925.282.035.564 2.5.282 1.308.282 2.302.282 4.22 1.128 23.713.282.094.563-2.871.282-.237.282.288.282-.24.282-.465.282.634.564 4.238.282.78.282.337.564 1.85.282.009.282-.127.282.855.564 2.526.282.413.282.2.282.39 1.691 4.417.846.708.282-1.204.282-3.894.282-7.207.846-29.468.282-3.461.282-.245.282.05 1.41-2.244.282.311.282.903.282 1.875.564 6.494.282 3.877.563 12.609.282 6.443.282 3.115.282-.163.564-2.553.564-1.299.282.069.846 1.788.846 1.945.846 2.723.564-.838.282.912.564 2.49.564.724.281.651.282.359.282-.405.282-.678.282.085.564 1.895.282.386.564 2.6.282-1.57.282-7.037.846-26.961.282-4.9.282-2.168.282.497.282 1.337.282.642.282.042.282-.241.282-1.014.282-1.543.282-.615.281 1.13.564 4.488.282 4.242.846 20.538.282 1.134.282-1.275.846-4.883.282-.057.564 1.747.564 1.273.564 2.349.846 4.926.282.536.282.201.282-.02.282-.264.281.122.564 1.257.282-.09.282.39.282 1.228.282.649.282-.614.282-.268.282 1.342.282 1.887.564 1.834.282-.039.282-3.43.564-20.72.282-10.298.282-6.168.282-3.007.282-1.498.282-.545.282.068.282-.069.282-.36.563-.238.282-.413.282-.101.282 1.366.564 6.658.282 5.675.564 15.755.282 4.224.282.27 1.128-5.008.282.2.564 1.833.564 1.512 1.128 5.199.282.424.281.177.846.218.846 2.098.282.45.564 1.488.282.16.282.289.846 2.778.282.794.282 1.309.282-.533.282-5.196 1.128-35.942.282-3.722.282-1.038.281-.269.846-3.25.282-.345.282-.65.282.035.282 2.05.564 5.907.282 2.433.282 4.818.564 14.756.282 3.4.282.576.564.414.564-2.786.282.46.564 5.131.282.848.282.337.563 3.608.282.222.564-5.205.282-.183.282 1.154.282-.137.282-.627.282 1.595.282 3.155.282 1.549.282-.375.282.19.564 2.405.282.26.846 1.42.282.71.282 1.628.282.691.282-3.093.564-18.287.563-18.424.282-5.278.282-2.723.282-.189.564 2.98.282-.484.282-1.1.282.163.282.682.282-.854.282-1.802.282.077.282 3.026.564 10.73.846 24.14.282 1.248.564-3.987.564-1.436.563-2.038.282.312.846 3.265 1.128 2.366.564 1.526.282-.224.282-.437.282.32.564 2.002.282.27.282-.08.282.286.282 1.212.846 5.237.845 3.61.282-1.742.282-5.99 1.128-37.024.282-4.382.282-1.712.282.39.282 1.033.282.32.564-.72.282.145.282.589.564 2.325.282 1.412.282 3.263.846 23.334.282 1.249.563-3.813.564-1.302.282-.268.282.107.282.374.282.889.846 4.11.282.828.564 2.718.282.662.282.169.282.355.564 1.202.846.93.282.87 1.127 5.242.846 5.457.282.586.282.875.282.417.282-2.97.282-8.252.846-32.397.564-10.71.282-1.429.564 1.485.282-.29.564-1.546.282.15.282.756.564 2.754.282 1.997.282 3.52.563 13.462.564 11.269.282 1.18 1.128-3.385.282.173.282 1.692.282 2.646.282 1.572.564-.001.282.932.282.522.564-1.125.564 1.776.282-.383.282-.65.282 1.32.563 5.616.564 1.34.564 2.509h.282l.282.249 1.128 5.363.282 1.975.282-2.436.564-21.294.564-20.735.282-6.723.282-3.863.282-1.493.282-.462.282.082.564 1.39.282-.522.281-1.145.282-.621.282.032.282.55.282 1.803.282 4.123.564 15.733.564 15.322.282 2.077.282-.642.282-.931.282-.546.564-1.831.282-.123.564 1.492.282.177.282.393.564 1.504.282.232.282.636.563 1.793.282.214.282.65.282 1.047.282.538.282.247.282.91.564 2.396.282.758 1.974 7.727.282-1.843.282-6.55.846-32.867.282-6.257.282-3.598.282-.836.563 2.605.564-.388.282.616.282.23.282-.718.282-.207.282 1.193.282 2.255.282 4.349.846 21.24.282-.332.282-1.978.282-.835.282-.159 1.128-1.74.282-.016.282.813.845 4.743.846 3.047.282-.117.282-.315.282.917.282 1.698.282.843.282.023.282.765.846 4.994 1.128 6.01.564 4.294.282 1.514.282-.592.282-5.942 1.127-45.153.282-5.631.282-2.83.282.525.282 1.29.282-.578.282-1.34.282-.152.282.07.564-1.915.282 1.84.564 7.676.282 5.402.846 23.21.282 1.875.282-.204.282-.679.846-3.804.281-.272.282.345.282.627.282.93.282 1.562.846 6.004.564 1.19.564 2.014.282.38.282.71.564 2.299.282.26.282.641.564 3.138.564 1.735.564 2.322.282.74.563 2.24.282-2.355.282-7.895 1.128-44.544.282-5.07.282-2.916.282-1.483.564-1.103.846-1.322.282 1.197.846 9.072.282 4.974.846 26.722.282 3.39.282.811.281-.33.846-3.59.564-.41.282-.088.282.354.282 1.131.846 5.307 1.692 6.527.282-.932.282-1.506.282.67.282 2.448.282 1.127.282-.273.282 1.97.563 11.427.282 2.543.282.118.282.726.282 1.794.282-.694.282-7.503 1.128-53.37.564-12.98.282-2.046.282-.003.282-.324.564-1.967.564-.148.282-.523.282.105.282 2.87.282 7.273.845 33.261.282 5.417.282 1.23.282-.89.846-3.803.282-.264.282.875.846 4.17.846 4.851.282 1.458.282.599.282-.12.282.459.564 1.983.282.36.282 1.26.563 3.322.282 1.445.846 8.565.564 1.984.846 4.698.282.327.282-2.69.282-8.263 1.128-49.78 1.128-25.049.846-10.474.563-5.413.282-.675.282 1.46.282 2.86.282 7.025.282 15.667.564 40.571.282 8.89.282 1.77.282-.611.282-1.886.564-5.368.282-1.034.282-.395.282.32.282 1.801.846 7.6.282 1.533.282.735.282.358.564 1.744.563.585.282 1.907.564 5.46.564 2.572.564 3.601.282.412.282-.025.282.934.846 6.07.282-.79.282-4.363.282-9.255 1.128-48.826.564-15.532 1.127-20.638 1.128-12.203.282-.499.282 3.58.282 10.478 1.128 69.447.282 2.063.282-.708.846-4.773.564-.385.282.168.282 1.63.564 4.1.845 2.946.564.884.282 1.006.282 1.636.564 5.722 1.41 14.654.282.976.282.022.282.792 1.128 7.306.282-2.383.282-8.412 1.691-76.911 1.128-36.139.846-20.078.282-1.834.282 2.431.282 4.314.282 6.349.282 12.925.846 69.15.282 10.607.282 3.78.564 3.622.282.046.564-2.436.281-.267.282.686.564 3.398.564 2.989.564 1.365.282.71.564 1.837.282-.005.282.117.564 2.719.282 1.298.282 1.996 1.692 21.29.846 7.287.281-1.965.282-8.846 1.974-96.507.846-32.395.564-18.626.282-2.922.846 7.772.282 4.195.282 10.189.564 39.688.564 43.54.282 9.394.563 4.227.282 1.927.282-.105.564-3.123.282.238.282.818.282 1.463.564 4.037.846 2.926.282-.078.282-.872.282-.075.846 3.17.564 4.308 2.255 21.076.282 4.223.282 1.965.282-4.478.564-26.366 1.41-70.801.846-36.221.564-16.26.282-1.87.846 2.774.282 4.781.282 10.185.563 38.46.564 44.11.282 10.086.282 3.449.282 1.23.282.19.564-1.834.282-.276.282.036.282.654.564 2.835.564-.31 1.128 3.79.564 4.204.282.672.282 1.443 1.127 11.094.564 2.668.282 2.666.564 8.614.282 2.908.564 10.186.282-.18.282-10.555 2.538-141.073.282-7.422.563-5.968.282-2.006.282-.446.282.579.282 1.176.282 4.086.282 10.378.564 40.936.564 40.077.282 9.538.282 3.871.282 1.064.282-.354 1.41-4.734.282 1.921.564 5.752.282.794.282.353.282.782.281.155.282-1.683.564-4.93 1.128-3.711.282-.16.282.401.282.998.564 3.437.282.815.282-.211.564-1.765.564-2.152.846-4.505.282.698.282 1.285.282.235 1.127-2.969.282-.939.282.082.282.647.282.034.564-1.097.564-.117.282-.013.282-.155.282-.316.282.06.564 1.469.282-.603.282-.879.282.57.282 1.437.282.308.282-.757.282.283.563 3.323.564 1.035.564 2.759.282 2.233.846 8.944.282 1.151 1.128 7.42.282 1.103.282 2.164 1.692 18.099.282.578.282-7.179.845-46.218 1.128-64.07.846-31.173.282-1.18.846 6.047.282 5.681.282 9.32.282 13.144 1.128 70.582.282 3.416.282.728.282.319.282-.206.563-1.806.282-1.008.282-.242.282 1.302.564 4.5.564 3.407 1.41 10.7.282.589.282 1.28 2.256 23.206 1.41 19.944.281.278.282-6.868.564-26.761L453.35 59.61l.564-14.75.564-10.031.846-12.93.282 1.92.282 8.195.564 29.099 1.41 92.158.281 4.024 1.41 5.762.282.491.282.798.282 1.964.564 5.698.564 3.07.564 3.125.564 4.186.846 8.406 1.41 16.272.563 8.973.282 2.573.282-3.093.282-10.997 1.128-71.386.846-59.847.846-38.925.564-17.021.282-3.864.282-1.384.282.377.282 2.576.282 6.851.281 13.01.564 41.04.846 67.281.282 12.279.564 11.189.282 2.486.282.826.282.264.564 1.558.282.028.282-.117.282 1.126.564 4.273.564 1.291 1.128 6.058.563 5.565 1.974 23.027.282 3.922.282 1.11.282-5.249.282-13.443 1.128-82.251.564-45.492.564-28.828.564-21.157.282-4.911.282-2.603.282-.851.281 2.235.564 11.71.282 10.566.564 39.276.846 60.623.282 15.444.282 9.093.282 3.487 1.128 5.59.846 3.378.282.154.282.678 1.691 14.652.564 5.234.282 2.235.846 9.823.564 3.825.846 11.827.282-3.814.282-10.731.564-35.386 1.692-131.475.564-18.041.563-8.833.282-.979.282 1.578.564 6.01.282 6.2.564 26.27 1.692 96.646.564 14.488.564 7.615.564 4.283.564 3.294.282.933.282.274.282.55.281 1.574.564 4.17.564 3.79 1.974 23.5.282 1.295.282 2.416.564 8.663.282-3.819.282-12.604.564-39.529 1.41-118.893.563-21.889.564-11.292.282-1.759.282 1.289.564 4.832.282 4.292.564 16.972.564 26.271.846 41.467 1.41 52.802.564 12.086.564 4.391.845 4.282.564 2.264.282.392.282.806.282 2.46.564 6.433.564 5.109.564 6.024.564 5.144 1.128 13.388.282-3.068.282-11.57.564-42.528 1.41-123.882.563-18.607.282-4.176.282-1.49.282-.521.282.053.282 1.952.564 8.067.282 5.989.564 23.875.846 36.23.564 18.516.846 23.6 1.127 34.196.564 12.061.564 7.59.564 3.419.282-.112.282-.918.282.49 1.128 11.088 1.41 17.048.564 10.232.282.95.282-6.555.282-14.498.563-48.083.846-89.986.564-35.285.564-14.693.282-4.514.282-2.633.282-.167.282 1.323.282 2.065.282 3.27.564 10.961.282 8.815 1.128 46.559 1.128 31.322.845 18.225.564 14.042.846 24.735.564 11.213.282 3.898 1.692 14.587 1.692 19.846.564 8.018.281 2.453.282-4.021.282-14.424.564-50.83.846-88.236.564-31.69.564-13.34.564-6.466.282-.66.282 1.359.846 8.414.282 4.71.564 17.636.846 30.326.845 19.172.846 15.013 3.102 74.582.564 4.19 1.128 7.406 1.127 10.009.846 12.042.282-1.554.282-8.792.282-16.883.564-54.933.846-82.626.282-15.18.564-14.652.564-7.62.282-1.001.282 1.302.846 7.953.282 4.964.564 19.47 1.127 36.797.282 6.293.846 12.419.282 4.526.846 9.073 1.128 23.733 1.128 28.412.846 17.26.564 8.888 1.127 10.77.564 7.44.564 10.848.282.816.282-7.216.282-15.82.564-54.954.564-66.11.282-22.242.282-12.924.846-20.424.282-4.919.282-1.3.564 4.27.282 2.263.282 3.624.563 13.009 1.128 33.762.564 12.281.564 10.883.846 7.134.564 2.27.564 6.327.564 9.34 2.255 55.07 1.128 26.668 1.692 22.716.282-2.039.282-11.808.564-51.212.846-91.814.564-25.269.564-14.326.282-3.515.282-1.278.282.1.281 1.689 1.128 12.879.564 15.182.846 23.963.564 8.89 1.41 10.675.564 3.441.564 7.69 1.41 22.177.845 17.78.282 5.178.564 16.83 1.41 41.11 1.128 18.17.282-.996.282-9.447.282-19.584 1.41-137.274.564-19.854.281-6.727.282-3.828.282-1.304.282.472.282 1.62.564 4.955.564 6.914.282 4.926.564 16.627.564 14.519.564 7.153.846 13.814.564 2.923.846 4.93.282.834.281 2.199 1.41 18.279.846 13.424 1.128 26.662 1.128 32.513.846 24.311.282 3.067.282-6.99.282-18.755 1.41-137.125.563-18.862.564-10.122.282-1.218.282 1.218 1.128 9.949.282 3.987.564 13.498.564 15.69.564 7.443.564 6.464.564 3.04 1.127 5.097 1.128 11.764.564 7.558.846 7.269.564 9.623 1.41 28.93 1.692 43.36.282 1.166.281-7.887.282-18.639.846-78.517.564-29.374.564-19.038.282-6.772.282-3.803.282-1.288.282.185.282 1.385 1.128 10.119.564 11.904.564 13.14.564 8.134.282 2.398.281 3.927h0" clip-path="url(#p55d5619b8f)" style="fill:none;stroke:#1f77b4;stroke-width:1.5;stroke-linecap:square"/><path id="patch_3" d="M71.308 266.112V0" style="fill:none;stroke:gray;stroke-width:.8;stroke-linejoin:miter;stroke-linecap:square"/><path id="patch_4" d="M685.107 266.112V0" style="fill:none;stroke:#000;stroke-width:.8;stroke-linejoin:miter;stroke-linecap:square"/><path id="patch_5" d="M71.308 266.112h613.8" style="fill:none;stroke:gray;stroke-width:.8;stroke-linejoin:miter;stroke-linecap:square"/><path id="patch_6" d="M71.308 0h613.8" style="fill:none;stroke:#000;stroke-width:.8;stroke-linejoin:miter;stroke-linecap:square"/></g></g><defs><clipPath id="p55d5619b8f"><path d="M71.308 0h613.8v266.112h-613.8z"/></clipPath></defs></svg>