<?xml version="1.0" encoding="utf-8" standalone="no"?>
<!DOCTYPE svg PUBLIC "-//W3C//DTD SVG 1.1//EN"
  "http://www.w3.org/Graphics/SVG/1.1/DTD/svg11.dtd">
<svg xmlns:xlink="http://www.w3.org/1999/xlink" width="660.992188pt" height="282.790125pt" viewBox="0 0 660.992188 282.790125" xmlns="http://www.w3.org/2000/svg" version="1.1">
 <metadata>
  <rdf:RDF xmlns:dc="http://purl.org/dc/elements/1.1/" xmlns:cc="http://creativecommons.org/ns#" xmlns:rdf="http://www.w3.org/1999/02/22-rdf-syntax-ns#">
   <cc:Work>
    <dc:type rdf:resource="http://purl.org/dc/dcmitype/StillImage"/>
    <dc:date>2023-03-06T21:32:56.713334</dc:date>
    <dc:format>image/svg+xml</dc:format>
    <dc:creator>
     <cc:Agent>
      <dc:title>Matplotlib v3.6.3, https://matplotlib.org/</dc:title>
     </cc:Agent>
    </dc:creator>
   </cc:Work>
  </rdf:RDF>
 </metadata>
 <defs>
  <style type="text/css">*{stroke-linejoin: round; stroke-linecap: butt}</style>
 </defs>
 <g id="figure_1">
  <g id="patch_1">
   <path d="M -0 282.790125 
L 660.992188 282.790125 
L 660.992188 0 
L -0 0 
L -0 282.790125 
z
" style="fill: none"/>
  </g>
  <g id="axes_1">
   <g id="patch_2">
    <path d="M 47.192188 266.112 
L 660.992188 266.112 
L 660.992188 0 
L 47.192188 0 
L 47.192188 266.112 
z
" style="fill: none"/>
   </g>
   <g id="matplotlib.axis_1">
    <g id="xtick_1">
     <g id="line2d_1">
      <defs>
       <path id="mc92b4bbd01" d="M 0 0 
L 0 3.5 
" style="stroke: #808080; stroke-width: 0.8"/>
      </defs>
      <g>
       <use xlink:href="#mc92b4bbd01" x="75.092188" y="266.112" style="fill: #808080; stroke: #808080; stroke-width: 0.8"/>
      </g>
     </g>
     <g id="text_1">
      <!-- 0 -->
      <g style="fill: #808080" transform="translate(71.910938 280.710438) scale(0.1 -0.1)">
       <defs>
        <path id="DejaVuSans-30" d="M 2034 4250 
Q 1547 4250 1301 3770 
Q 1056 3291 1056 2328 
Q 1056 1369 1301 889 
Q 1547 409 2034 409 
Q 2525 409 2770 889 
Q 3016 1369 3016 2328 
Q 3016 3291 2770 3770 
Q 2525 4250 2034 4250 
z
M 2034 4750 
Q 2819 4750 3233 4129 
Q 3647 3509 3647 2328 
Q 3647 1150 3233 529 
Q 2819 -91 2034 -91 
Q 1250 -91 836 529 
Q 422 1150 422 2328 
Q 422 3509 836 4129 
Q 1250 4750 2034 4750 
z
" transform="scale(0.015625)"/>
       </defs>
       <use xlink:href="#DejaVuSans-30"/>
      </g>
     </g>
    </g>
    <g id="xtick_2">
     <g id="line2d_2">
      <g>
       <use xlink:href="#mc92b4bbd01" x="144.842188" y="266.112" style="fill: #808080; stroke: #808080; stroke-width: 0.8"/>
      </g>
     </g>
     <g id="text_2">
      <!-- 500 -->
      <g style="fill: #808080" transform="translate(135.298438 280.710438) scale(0.1 -0.1)">
       <defs>
        <path id="DejaVuSans-35" d="M 691 4666 
L 3169 4666 
L 3169 4134 
L 1269 4134 
L 1269 2991 
Q 1406 3038 1543 3061 
Q 1681 3084 1819 3084 
Q 2600 3084 3056 2656 
Q 3513 2228 3513 1497 
Q 3513 744 3044 326 
Q 2575 -91 1722 -91 
Q 1428 -91 1123 -41 
Q 819 9 494 109 
L 494 744 
Q 775 591 1075 516 
Q 1375 441 1709 441 
Q 2250 441 2565 725 
Q 2881 1009 2881 1497 
Q 2881 1984 2565 2268 
Q 2250 2553 1709 2553 
Q 1456 2553 1204 2497 
Q 953 2441 691 2322 
L 691 4666 
z
" transform="scale(0.015625)"/>
       </defs>
       <use xlink:href="#DejaVuSans-35"/>
       <use xlink:href="#DejaVuSans-30" x="63.623047"/>
       <use xlink:href="#DejaVuSans-30" x="127.246094"/>
      </g>
     </g>
    </g>
    <g id="xtick_3">
     <g id="line2d_3">
      <g>
       <use xlink:href="#mc92b4bbd01" x="214.592188" y="266.112" style="fill: #808080; stroke: #808080; stroke-width: 0.8"/>
      </g>
     </g>
     <g id="text_3">
      <!-- 1000 -->
      <g style="fill: #808080" transform="translate(201.867188 280.710438) scale(0.1 -0.1)">
       <defs>
        <path id="DejaVuSans-31" d="M 794 531 
L 1825 531 
L 1825 4091 
L 703 3866 
L 703 4441 
L 1819 4666 
L 2450 4666 
L 2450 531 
L 3481 531 
L 3481 0 
L 794 0 
L 794 531 
z
" transform="scale(0.015625)"/>
       </defs>
       <use xlink:href="#DejaVuSans-31"/>
       <use xlink:href="#DejaVuSans-30" x="63.623047"/>
       <use xlink:href="#DejaVuSans-30" x="127.246094"/>
       <use xlink:href="#DejaVuSans-30" x="190.869141"/>
      </g>
     </g>
    </g>
    <g id="xtick_4">
     <g id="line2d_4">
      <g>
       <use xlink:href="#mc92b4bbd01" x="284.342188" y="266.112" style="fill: #808080; stroke: #808080; stroke-width: 0.8"/>
      </g>
     </g>
     <g id="text_4">
      <!-- 1500 -->
      <g style="fill: #808080" transform="translate(271.617188 280.710438) scale(0.1 -0.1)">
       <use xlink:href="#DejaVuSans-31"/>
       <use xlink:href="#DejaVuSans-35" x="63.623047"/>
       <use xlink:href="#DejaVuSans-30" x="127.246094"/>
       <use xlink:href="#DejaVuSans-30" x="190.869141"/>
      </g>
     </g>
    </g>
    <g id="xtick_5">
     <g id="line2d_5">
      <g>
       <use xlink:href="#mc92b4bbd01" x="354.092188" y="266.112" style="fill: #808080; stroke: #808080; stroke-width: 0.8"/>
      </g>
     </g>
     <g id="text_5">
      <!-- 2000 -->
      <g style="fill: #808080" transform="translate(341.367188 280.710438) scale(0.1 -0.1)">
       <defs>
        <path id="DejaVuSans-32" d="M 1228 531 
L 3431 531 
L 3431 0 
L 469 0 
L 469 531 
Q 828 903 1448 1529 
Q 2069 2156 2228 2338 
Q 2531 2678 2651 2914 
Q 2772 3150 2772 3378 
Q 2772 3750 2511 3984 
Q 2250 4219 1831 4219 
Q 1534 4219 1204 4116 
Q 875 4013 500 3803 
L 500 4441 
Q 881 4594 1212 4672 
Q 1544 4750 1819 4750 
Q 2544 4750 2975 4387 
Q 3406 4025 3406 3419 
Q 3406 3131 3298 2873 
Q 3191 2616 2906 2266 
Q 2828 2175 2409 1742 
Q 1991 1309 1228 531 
z
" transform="scale(0.015625)"/>
       </defs>
       <use xlink:href="#DejaVuSans-32"/>
       <use xlink:href="#DejaVuSans-30" x="63.623047"/>
       <use xlink:href="#DejaVuSans-30" x="127.246094"/>
       <use xlink:href="#DejaVuSans-30" x="190.869141"/>
      </g>
     </g>
    </g>
    <g id="xtick_6">
     <g id="line2d_6">
      <g>
       <use xlink:href="#mc92b4bbd01" x="423.842188" y="266.112" style="fill: #808080; stroke: #808080; stroke-width: 0.8"/>
      </g>
     </g>
     <g id="text_6">
      <!-- 2500 -->
      <g style="fill: #808080" transform="translate(411.117188 280.710438) scale(0.1 -0.1)">
       <use xlink:href="#DejaVuSans-32"/>
       <use xlink:href="#DejaVuSans-35" x="63.623047"/>
       <use xlink:href="#DejaVuSans-30" x="127.246094"/>
       <use xlink:href="#DejaVuSans-30" x="190.869141"/>
      </g>
     </g>
    </g>
    <g id="xtick_7">
     <g id="line2d_7">
      <g>
       <use xlink:href="#mc92b4bbd01" x="493.592188" y="266.112" style="fill: #808080; stroke: #808080; stroke-width: 0.8"/>
      </g>
     </g>
     <g id="text_7">
      <!-- 3000 -->
      <g style="fill: #808080" transform="translate(480.867188 280.710438) scale(0.1 -0.1)">
       <defs>
        <path id="DejaVuSans-33" d="M 2597 2516 
Q 3050 2419 3304 2112 
Q 3559 1806 3559 1356 
Q 3559 666 3084 287 
Q 2609 -91 1734 -91 
Q 1441 -91 1130 -33 
Q 819 25 488 141 
L 488 750 
Q 750 597 1062 519 
Q 1375 441 1716 441 
Q 2309 441 2620 675 
Q 2931 909 2931 1356 
Q 2931 1769 2642 2001 
Q 2353 2234 1838 2234 
L 1294 2234 
L 1294 2753 
L 1863 2753 
Q 2328 2753 2575 2939 
Q 2822 3125 2822 3475 
Q 2822 3834 2567 4026 
Q 2313 4219 1838 4219 
Q 1578 4219 1281 4162 
Q 984 4106 628 3988 
L 628 4550 
Q 988 4650 1302 4700 
Q 1616 4750 1894 4750 
Q 2613 4750 3031 4423 
Q 3450 4097 3450 3541 
Q 3450 3153 3228 2886 
Q 3006 2619 2597 2516 
z
" transform="scale(0.015625)"/>
       </defs>
       <use xlink:href="#DejaVuSans-33"/>
       <use xlink:href="#DejaVuSans-30" x="63.623047"/>
       <use xlink:href="#DejaVuSans-30" x="127.246094"/>
       <use xlink:href="#DejaVuSans-30" x="190.869141"/>
      </g>
     </g>
    </g>
    <g id="xtick_8">
     <g id="line2d_8">
      <g>
       <use xlink:href="#mc92b4bbd01" x="563.342188" y="266.112" style="fill: #808080; stroke: #808080; stroke-width: 0.8"/>
      </g>
     </g>
     <g id="text_8">
      <!-- 3500 -->
      <g style="fill: #808080" transform="translate(550.617188 280.710438) scale(0.1 -0.1)">
       <use xlink:href="#DejaVuSans-33"/>
       <use xlink:href="#DejaVuSans-35" x="63.623047"/>
       <use xlink:href="#DejaVuSans-30" x="127.246094"/>
       <use xlink:href="#DejaVuSans-30" x="190.869141"/>
      </g>
     </g>
    </g>
    <g id="xtick_9">
     <g id="line2d_9">
      <g>
       <use xlink:href="#mc92b4bbd01" x="633.092188" y="266.112" style="fill: #808080; stroke: #808080; stroke-width: 0.8"/>
      </g>
     </g>
     <g id="text_9">
      <!-- 4000 -->
      <g style="fill: #808080" transform="translate(620.367188 280.710438) scale(0.1 -0.1)">
       <defs>
        <path id="DejaVuSans-34" d="M 2419 4116 
L 825 1625 
L 2419 1625 
L 2419 4116 
z
M 2253 4666 
L 3047 4666 
L 3047 1625 
L 3713 1625 
L 3713 1100 
L 3047 1100 
L 3047 0 
L 2419 0 
L 2419 1100 
L 313 1100 
L 313 1709 
L 2253 4666 
z
" transform="scale(0.015625)"/>
       </defs>
       <use xlink:href="#DejaVuSans-34"/>
       <use xlink:href="#DejaVuSans-30" x="63.623047"/>
       <use xlink:href="#DejaVuSans-30" x="127.246094"/>
       <use xlink:href="#DejaVuSans-30" x="190.869141"/>
      </g>
     </g>
    </g>
   </g>
   <g id="matplotlib.axis_2">
    <g id="ytick_1">
     <g id="line2d_10">
      <defs>
       <path id="m82303ca36b" d="M 0 0 
L -3.5 0 
" style="stroke: #808080; stroke-width: 0.8"/>
      </defs>
      <g>
       <use xlink:href="#m82303ca36b" x="47.192188" y="260.274244" style="fill: #808080; stroke: #808080; stroke-width: 0.8"/>
      </g>
     </g>
     <g id="text_10">
      <!-- −40000 -->
      <g style="fill: #808080" transform="translate(0 264.073463) scale(0.1 -0.1)">
       <defs>
        <path id="DejaVuSans-2212" d="M 678 2272 
L 4684 2272 
L 4684 1741 
L 678 1741 
L 678 2272 
z
" transform="scale(0.015625)"/>
       </defs>
       <use xlink:href="#DejaVuSans-2212"/>
       <use xlink:href="#DejaVuSans-34" x="83.789062"/>
       <use xlink:href="#DejaVuSans-30" x="147.412109"/>
       <use xlink:href="#DejaVuSans-30" x="211.035156"/>
       <use xlink:href="#DejaVuSans-30" x="274.658203"/>
       <use xlink:href="#DejaVuSans-30" x="338.28125"/>
      </g>
     </g>
    </g>
    <g id="ytick_2">
     <g id="line2d_11">
      <g>
       <use xlink:href="#m82303ca36b" x="47.192188" y="206.318146" style="fill: #808080; stroke: #808080; stroke-width: 0.8"/>
      </g>
     </g>
     <g id="text_11">
      <!-- −20000 -->
      <g style="fill: #808080" transform="translate(0 210.117365) scale(0.1 -0.1)">
       <use xlink:href="#DejaVuSans-2212"/>
       <use xlink:href="#DejaVuSans-32" x="83.789062"/>
       <use xlink:href="#DejaVuSans-30" x="147.412109"/>
       <use xlink:href="#DejaVuSans-30" x="211.035156"/>
       <use xlink:href="#DejaVuSans-30" x="274.658203"/>
       <use xlink:href="#DejaVuSans-30" x="338.28125"/>
      </g>
     </g>
    </g>
    <g id="ytick_3">
     <g id="line2d_12">
      <g>
       <use xlink:href="#m82303ca36b" x="47.192188" y="152.362048" style="fill: #808080; stroke: #808080; stroke-width: 0.8"/>
      </g>
     </g>
     <g id="text_12">
      <!-- 0 -->
      <g style="fill: #808080" transform="translate(33.829688 156.161267) scale(0.1 -0.1)">
       <use xlink:href="#DejaVuSans-30"/>
      </g>
     </g>
    </g>
    <g id="ytick_4">
     <g id="line2d_13">
      <g>
       <use xlink:href="#m82303ca36b" x="47.192188" y="98.40595" style="fill: #808080; stroke: #808080; stroke-width: 0.8"/>
      </g>
     </g>
     <g id="text_13">
      <!-- 20000 -->
      <g style="fill: #808080" transform="translate(8.379688 102.205169) scale(0.1 -0.1)">
       <use xlink:href="#DejaVuSans-32"/>
       <use xlink:href="#DejaVuSans-30" x="63.623047"/>
       <use xlink:href="#DejaVuSans-30" x="127.246094"/>
       <use xlink:href="#DejaVuSans-30" x="190.869141"/>
       <use xlink:href="#DejaVuSans-30" x="254.492188"/>
      </g>
     </g>
    </g>
    <g id="ytick_5">
     <g id="line2d_14">
      <g>
       <use xlink:href="#m82303ca36b" x="47.192188" y="44.449852" style="fill: #808080; stroke: #808080; stroke-width: 0.8"/>
      </g>
     </g>
     <g id="text_14">
      <!-- 40000 -->
      <g style="fill: #808080" transform="translate(8.379688 48.249071) scale(0.1 -0.1)">
       <use xlink:href="#DejaVuSans-34"/>
       <use xlink:href="#DejaVuSans-30" x="63.623047"/>
       <use xlink:href="#DejaVuSans-30" x="127.246094"/>
       <use xlink:href="#DejaVuSans-30" x="190.869141"/>
       <use xlink:href="#DejaVuSans-30" x="254.492188"/>
      </g>
     </g>
    </g>
   </g>
   <g id="line2d_15">
    <path d="M 75.092188 152.367622 
L 78.193754 152.357067 
L 81.29532 152.36726 
L 84.396887 152.355374 
L 86.370611 152.371859 
L 87.780414 152.343945 
L 88.626296 152.406421 
L 88.908256 152.277584 
L 89.190217 152.696961 
L 89.472177 155.256727 
L 90.036099 156.379296 
L 90.318059 156.679254 
L 90.60002 156.790835 
L 90.88198 157.103498 
L 92.009823 160.959349 
L 92.855704 163.04687 
L 93.137665 163.04145 
L 93.419626 163.254265 
L 93.983547 164.593237 
L 94.265507 164.759793 
L 94.547468 164.610349 
L 94.829429 163.008973 
L 95.111389 157.305216 
L 95.957271 126.070636 
L 96.239231 122.870756 
L 96.521192 123.979274 
L 97.085113 133.681461 
L 97.649034 142.014519 
L 98.212956 145.016668 
L 98.776877 146.110426 
L 99.058837 148.108979 
L 99.622758 154.753139 
L 99.904719 154.945837 
L 100.18668 153.883009 
L 100.750601 152.629792 
L 101.032561 151.261245 
L 101.314522 150.782368 
L 101.878443 153.614655 
L 102.442364 154.560087 
L 103.006286 156.346438 
L 103.288246 156.835992 
L 103.852167 158.361093 
L 104.416088 158.460649 
L 104.698049 158.972862 
L 104.98001 159.25353 
L 105.26197 159.059054 
L 105.543931 159.293208 
L 106.953734 163.328307 
L 107.517655 161.74093 
L 108.081576 163.123641 
L 108.645497 163.221369 
L 108.927458 163.831234 
L 109.209418 164.174823 
L 109.491379 164.105626 
L 109.77334 164.172322 
L 110.0553 163.173174 
L 110.337261 158.350396 
L 111.465103 119.997078 
L 111.747064 120.106393 
L 112.310985 130.750284 
L 112.874906 139.733305 
L 113.156867 141.318687 
L 113.720788 142.285619 
L 114.002748 143.178104 
L 114.284709 144.967248 
L 115.130591 155.07367 
L 115.412551 155.919945 
L 115.694512 155.539988 
L 116.258433 153.748689 
L 116.540394 152.805536 
L 116.822354 152.670951 
L 117.104315 153.020178 
L 117.668236 153.017964 
L 117.950197 153.521201 
L 118.796078 155.743215 
L 119.078039 156.116013 
L 119.36 156.121692 
L 119.64196 156.24756 
L 120.205881 157.053939 
L 120.487842 156.880159 
L 120.769802 157.10756 
L 121.051763 157.915318 
L 121.333724 158.323376 
L 121.615684 158.395638 
L 121.897645 159.647424 
L 122.461566 164.239394 
L 122.743527 164.613581 
L 123.025487 164.492973 
L 123.307448 164.836237 
L 123.589408 164.985743 
L 124.43529 163.108841 
L 125.281172 164.217723 
L 125.563132 163.234527 
L 125.845093 159.225214 
L 126.127054 150.902871 
L 126.690975 127.554286 
L 126.972935 120.517331 
L 127.254896 120.28177 
L 128.382738 140.440997 
L 128.664699 142.646544 
L 128.946659 143.635003 
L 129.510581 144.03795 
L 129.792541 144.945141 
L 130.074502 147.298056 
L 130.638423 154.126128 
L 130.920384 155.060628 
L 131.484305 153.170091 
L 131.766265 152.893953 
L 132.048226 152.394431 
L 132.330186 151.532381 
L 132.612147 151.311091 
L 133.176068 152.153771 
L 133.458029 152.173786 
L 134.02195 153.183972 
L 134.585871 153.363697 
L 135.431753 157.079339 
L 136.559595 157.877093 
L 137.405477 159.337779 
L 137.687438 159.396279 
L 138.533319 161.19078 
L 138.81528 161.218945 
L 139.379201 161.835577 
L 139.943122 161.564202 
L 140.789004 163.127287 
L 141.070965 162.82664 
L 141.352925 160.25147 
L 141.634886 153.221456 
L 142.480768 121.187242 
L 142.762728 118.595674 
L 143.044689 121.318665 
L 144.172531 141.611016 
L 144.454492 143.980255 
L 144.736452 144.550822 
L 145.018413 144.400589 
L 145.300373 145.474266 
L 146.146255 154.141337 
L 146.428216 154.990118 
L 146.710176 154.634093 
L 147.556058 151.01549 
L 147.838019 151.65584 
L 148.119979 152.794278 
L 148.40194 153.110019 
L 148.6839 152.684325 
L 148.965861 152.900951 
L 149.529782 155.352662 
L 149.811743 155.419572 
L 150.093703 155.274712 
L 150.375664 155.903312 
L 150.657625 156.813076 
L 150.939585 157.188971 
L 151.221546 157.297803 
L 152.349388 158.587373 
L 152.631349 159.291371 
L 152.913309 159.439951 
L 153.19527 159.332969 
L 153.47723 159.95452 
L 154.041152 161.984285 
L 154.605073 162.006973 
L 154.887033 162.409635 
L 155.450955 163.676304 
L 156.014876 164.378184 
L 156.296836 164.252803 
L 156.578797 161.913935 
L 156.860757 154.794403 
L 157.706639 119.37669 
L 157.9886 116.92981 
L 158.27056 119.810476 
L 159.398403 141.762818 
L 159.680363 143.202573 
L 160.526245 145.833859 
L 160.808206 147.091512 
L 161.654087 154.62231 
L 161.936048 154.122809 
L 162.78193 150.863289 
L 163.06389 150.738575 
L 163.345851 150.980113 
L 163.909772 151.000102 
L 165.037614 153.554847 
L 165.319575 154.47952 
L 165.601536 154.569429 
L 165.883496 154.180018 
L 166.165457 154.657928 
L 166.729378 157.452029 
L 168.139181 160.606639 
L 168.703102 160.019304 
L 168.985063 160.495138 
L 169.548984 162.080516 
L 169.830944 162.757677 
L 170.394866 166.375725 
L 170.676826 166.695171 
L 171.522708 162.802296 
L 171.804669 158.827527 
L 172.086629 149.62 
L 172.65055 124.958638 
L 172.932511 118.498736 
L 173.214471 118.076708 
L 173.496432 122.113704 
L 174.342314 139.179845 
L 174.624274 140.356827 
L 175.188196 139.890833 
L 175.470156 140.056456 
L 175.752117 140.68773 
L 176.034077 142.984866 
L 176.597999 150.795118 
L 176.879959 151.902174 
L 177.16192 151.489661 
L 177.44388 151.681799 
L 177.725841 152.230327 
L 178.007801 151.582251 
L 178.289762 150.280349 
L 178.571723 150.258041 
L 178.853683 151.414376 
L 179.135644 151.792122 
L 179.417604 151.012595 
L 179.699565 150.735219 
L 180.263486 152.88404 
L 180.545447 153.308656 
L 180.827407 153.416817 
L 182.23721 154.741022 
L 182.519171 155.183333 
L 182.801131 156.414719 
L 183.647013 163.509185 
L 184.492895 166.709694 
L 184.774856 166.577882 
L 185.056816 165.553936 
L 185.338777 164.958274 
L 185.620737 165.872723 
L 186.184658 169.988814 
L 186.466619 170.667039 
L 186.74858 169.32272 
L 187.03054 165.521882 
L 187.312501 158.469383 
L 188.440343 115.301721 
L 188.722304 116.15479 
L 189.286225 128.779355 
L 189.850146 140.138347 
L 190.132107 141.715539 
L 190.414067 141.769994 
L 190.696028 141.959268 
L 190.977988 142.478576 
L 191.259949 143.279536 
L 191.54191 145.087509 
L 192.105831 150.79558 
L 192.387791 152.103377 
L 192.669752 151.975193 
L 193.515634 149.301948 
L 193.797594 149.766013 
L 194.361515 151.169316 
L 194.643476 151.889349 
L 195.207397 153.569307 
L 195.489358 153.691812 
L 195.771318 154.31605 
L 196.053279 155.407552 
L 196.33524 155.660413 
L 196.6172 155.353238 
L 196.899161 156.332548 
L 197.181121 158.438167 
L 197.463082 159.542761 
L 197.745042 159.455357 
L 198.027003 159.959994 
L 198.308964 161.165226 
L 198.872885 162.21524 
L 199.436806 164.697171 
L 199.718767 164.977105 
L 200.000727 165.437376 
L 200.564648 167.710633 
L 201.12857 166.44046 
L 201.692491 167.345074 
L 201.974451 167.414616 
L 202.256412 168.016698 
L 202.538372 167.853595 
L 202.820333 162.670781 
L 203.948175 115.371596 
L 204.230136 112.885303 
L 204.512097 116.314445 
L 205.076018 133.497597 
L 205.357978 137.814683 
L 205.639939 138.535036 
L 205.921899 139.635475 
L 207.049742 150.358596 
L 207.331702 155.976066 
L 207.613663 159.27881 
L 207.895624 158.42647 
L 208.459545 153.862201 
L 208.741505 153.406264 
L 209.023466 153.404429 
L 209.305427 153.063785 
L 209.587387 152.4554 
L 209.869348 152.733425 
L 210.433269 156.636027 
L 210.715229 156.902526 
L 210.99719 155.945895 
L 211.279151 155.53159 
L 211.843072 155.904393 
L 212.125032 156.088373 
L 212.406993 156.55263 
L 212.688954 156.751857 
L 212.970914 156.786305 
L 214.098756 159.217867 
L 214.662678 162.740049 
L 215.226599 163.512972 
L 215.508559 164.320933 
L 215.79052 164.670327 
L 216.072481 164.833957 
L 216.636402 166.535785 
L 216.918362 166.294973 
L 217.200323 166.744809 
L 217.482284 168.511848 
L 217.764244 167.927446 
L 218.046205 161.568387 
L 219.174047 116.654569 
L 219.456008 112.865415 
L 219.737968 116.175158 
L 220.58385 137.467599 
L 220.865811 141.686298 
L 221.147771 143.308148 
L 221.429732 143.783845 
L 221.711692 145.01544 
L 222.275613 150.61087 
L 222.839535 156.29702 
L 223.121495 158.126362 
L 223.403456 158.258186 
L 224.249338 152.647951 
L 224.531298 152.829347 
L 225.095219 149.61511 
L 225.37718 150.660509 
L 225.659141 154.146494 
L 225.941101 156.144716 
L 226.223062 155.990315 
L 226.505022 156.512777 
L 226.786983 158.293424 
L 227.068943 159.205468 
L 227.632865 158.598738 
L 228.478746 160.147709 
L 228.760707 160.881405 
L 229.888549 165.097662 
L 230.17051 165.675747 
L 230.734431 168.753415 
L 231.298352 169.017512 
L 231.862273 171.183083 
L 232.144234 170.937108 
L 232.426195 171.022527 
L 232.708155 170.534329 
L 232.990116 165.129748 
L 233.554037 137.755746 
L 234.117958 111.307899 
L 234.399919 103.223201 
L 234.681879 101.955357 
L 234.96384 108.514237 
L 235.809722 139.331948 
L 236.091682 141.744536 
L 236.373643 141.544915 
L 236.655603 142.380693 
L 237.219525 150.299643 
L 237.501485 154.31934 
L 237.783446 156.661936 
L 238.065406 157.184653 
L 238.347367 156.495424 
L 239.193249 153.751151 
L 239.475209 153.273441 
L 239.75717 153.211763 
L 240.03913 153.474907 
L 240.603052 154.546037 
L 241.730894 157.555833 
L 242.012855 157.479069 
L 242.294815 157.076003 
L 242.576776 157.04306 
L 243.140697 158.11049 
L 243.422657 158.965105 
L 244.83246 167.11698 
L 245.678342 171.124148 
L 246.524224 177.196362 
L 246.806184 177.279514 
L 247.088145 177.789493 
L 247.370106 178.972721 
L 247.652066 178.196738 
L 247.934027 172.321176 
L 248.497948 144.978058 
L 249.34383 96.804118 
L 249.62579 89.190214 
L 249.907751 88.589262 
L 250.189712 95.360766 
L 251.035593 133.290052 
L 251.599514 144.239175 
L 252.727357 160.488421 
L 253.009317 161.391717 
L 253.855199 156.830059 
L 254.41912 156.663985 
L 254.701081 156.619613 
L 254.983041 156.427971 
L 255.265002 156.065862 
L 255.546963 156.060642 
L 256.674805 157.821788 
L 256.956766 157.675056 
L 257.238726 156.785167 
L 257.520687 156.267594 
L 258.084608 157.366163 
L 258.366569 157.944984 
L 258.93049 160.567201 
L 259.776371 165.086031 
L 260.340293 168.013775 
L 261.186174 177.644036 
L 261.750096 178.629991 
L 262.314017 180.810269 
L 262.595977 181.381188 
L 262.877938 180.512226 
L 263.159898 174.966328 
L 263.72382 145.441454 
L 264.569701 92.873668 
L 264.851662 83.253368 
L 265.133623 82.56931 
L 265.415583 88.846183 
L 265.979504 113.016037 
L 266.543425 138.678706 
L 267.107347 148.493219 
L 267.953228 162.094566 
L 268.235189 162.781437 
L 268.51715 160.902821 
L 269.081071 155.746159 
L 269.363031 154.577536 
L 269.926953 153.417264 
L 270.208913 153.168568 
L 270.490874 154.006714 
L 271.054795 157.577101 
L 271.618716 158.863072 
L 272.182637 161.537942 
L 272.464598 161.517146 
L 272.746558 160.770422 
L 273.028519 160.891308 
L 273.31048 161.823167 
L 273.59244 162.039172 
L 273.874401 161.154847 
L 274.156361 160.820288 
L 274.438322 162.330954 
L 275.002243 166.230765 
L 275.284204 167.424583 
L 276.130085 174.916159 
L 276.412046 175.458802 
L 276.694007 176.482955 
L 277.257928 179.339028 
L 277.539888 180.055051 
L 277.821849 181.371691 
L 278.10381 181.210409 
L 278.38577 175.378538 
L 278.949691 145.573689 
L 279.795573 93.252753 
L 280.077534 83.170637 
L 280.359494 81.340078 
L 280.641455 86.758527 
L 281.205376 108.384267 
L 282.051258 146.700411 
L 282.897139 161.968518 
L 283.1791 164.353136 
L 283.461061 163.406511 
L 284.024982 158.68624 
L 284.588903 153.374623 
L 284.870864 154.166167 
L 285.152824 156.094502 
L 285.434785 156.598212 
L 285.716745 156.71279 
L 286.280667 160.00627 
L 286.562627 160.014407 
L 286.844588 159.442356 
L 287.126548 159.976132 
L 287.408509 160.902415 
L 287.690469 160.91175 
L 287.97243 160.498226 
L 288.254391 161.049941 
L 289.946154 172.640358 
L 290.510075 177.214078 
L 291.637918 183.930078 
L 291.919878 185.168999 
L 292.201839 185.323012 
L 292.483799 184.516299 
L 292.76576 184.471809 
L 293.047721 184.986803 
L 293.329681 182.257496 
L 293.611642 173.065009 
L 294.175563 139.210587 
L 295.021445 76.295377 
L 295.303405 66.402692 
L 295.585366 63.508808 
L 295.867326 64.719981 
L 296.149287 69.85362 
L 296.713208 93.650791 
L 297.277129 126.027592 
L 297.841051 164.251111 
L 298.123011 175.059905 
L 298.404972 176.335014 
L 298.686932 173.514015 
L 299.250853 170.774933 
L 299.532814 167.384731 
L 300.096735 159.50938 
L 300.378696 158.680135 
L 300.660656 159.018508 
L 301.788499 163.020205 
L 302.35242 165.858218 
L 302.634381 165.974841 
L 302.916341 165.675762 
L 303.198302 166.076179 
L 303.762223 167.207282 
L 304.044183 168.456207 
L 306.863789 194.67007 
L 307.709671 199.651321 
L 307.991632 199.721315 
L 308.273592 195.616496 
L 308.555553 185.755823 
L 308.837513 168.92225 
L 310.247316 52.202726 
L 310.529277 40.177683 
L 310.811238 38.876918 
L 311.657119 63.492325 
L 312.22104 84.168346 
L 312.784962 119.024381 
L 313.348883 166.416548 
L 313.630843 176.749048 
L 313.912804 176.270598 
L 314.194765 173.601118 
L 314.476725 174.001485 
L 314.758686 175.804886 
L 315.040646 175.97782 
L 315.886528 171.016275 
L 316.168489 170.311632 
L 316.450449 170.373239 
L 317.01437 171.493652 
L 317.296331 172.250682 
L 317.860252 174.208229 
L 318.142213 174.197435 
L 318.424173 173.73461 
L 318.706134 173.923269 
L 319.270055 176.538478 
L 319.833976 179.948653 
L 320.679858 188.02774 
L 322.089661 203.070981 
L 322.935543 207.458452 
L 323.217503 205.026853 
L 323.499464 196.112887 
L 323.781424 179.959229 
L 324.345346 129.935207 
L 325.191227 52.378678 
L 325.473188 39.486342 
L 325.755149 36.726129 
L 326.882991 56.380574 
L 327.164952 65.557292 
L 327.728873 99.824573 
L 328.574754 169.06763 
L 328.856715 178.461298 
L 329.138676 177.509551 
L 329.420636 173.630245 
L 329.702597 172.203246 
L 329.984557 172.709861 
L 330.266518 172.573976 
L 330.548479 171.096005 
L 331.1124 166.843026 
L 331.39436 165.770112 
L 331.676321 166.358361 
L 332.240242 168.704186 
L 332.522203 169.681335 
L 333.368084 176.143289 
L 333.650045 176.562076 
L 333.932006 177.462395 
L 334.495927 180.642773 
L 335.059848 182.720185 
L 335.623769 186.675327 
L 337.033572 198.896605 
L 338.161414 204.588845 
L 338.443375 204.244605 
L 338.725336 198.813297 
L 339.007296 185.145382 
L 339.571217 133.856658 
L 340.417099 56.078444 
L 340.69906 42.929523 
L 340.98102 40.131163 
L 341.544941 50.625737 
L 342.108863 61.016312 
L 342.390823 68.902335 
L 342.672784 81.573927 
L 343.236705 125.595889 
L 343.800626 165.993247 
L 344.082587 173.155804 
L 344.364547 173.32261 
L 344.646508 171.314902 
L 344.928468 170.774746 
L 345.210429 171.773572 
L 345.49239 172.073234 
L 345.77435 170.555606 
L 346.056311 168.28103 
L 346.338271 166.92721 
L 346.620232 167.337009 
L 347.184153 170.59928 
L 347.466114 171.548657 
L 347.748074 172.940729 
L 348.311995 177.230372 
L 348.875917 178.23196 
L 349.439838 180.973094 
L 349.721798 180.873631 
L 350.003759 181.435723 
L 351.413562 197.121299 
L 351.695523 201.128216 
L 352.823365 210.737936 
L 353.105325 211.305029 
L 353.387286 209.487396 
L 353.669247 204.116899 
L 353.951207 191.530284 
L 354.515128 142.182586 
L 355.36101 60.096954 
L 355.642971 46.205973 
L 355.924931 42.228847 
L 356.206892 44.13538 
L 356.770813 49.879536 
L 357.052774 52.333117 
L 357.334734 57.883378 
L 357.616695 69.083795 
L 358.180616 105.143865 
L 359.026498 166.645574 
L 359.308458 173.140357 
L 359.590419 172.5972 
L 359.87238 171.720014 
L 360.436301 174.010106 
L 360.718261 172.937396 
L 361.000222 171.082837 
L 361.282182 170.251827 
L 361.564143 170.505405 
L 362.128064 171.879021 
L 362.691985 174.64954 
L 363.255907 178.734956 
L 365.511591 199.047785 
L 368.049237 230.229473 
L 368.331197 230.288161 
L 368.613158 224.508476 
L 368.895118 209.091425 
L 369.459039 151.896784 
L 370.304921 60.279952 
L 370.586882 49.950869 
L 371.432764 43.34942 
L 372.278645 32.379151 
L 372.560606 32.384484 
L 372.842566 38.108566 
L 373.406488 64.961862 
L 374.816291 149.966493 
L 375.098251 162.676986 
L 375.380212 169.420198 
L 375.662172 171.234644 
L 375.944133 171.86093 
L 376.226094 173.508545 
L 376.790015 177.915254 
L 377.071975 178.935397 
L 377.353936 179.111919 
L 377.635896 179.614865 
L 378.199818 183.426938 
L 378.763739 188.502123 
L 381.019423 215.904686 
L 382.429226 232.163755 
L 383.275108 243.976533 
L 383.557069 238.464379 
L 383.839029 223.847632 
L 384.402951 168.672833 
L 385.248832 68.533038 
L 385.812753 44.345487 
L 386.658635 16.927051 
L 386.940596 12.624612 
L 387.222556 12.096 
L 387.504517 15.290658 
L 387.786478 23.078941 
L 388.350399 54.01295 
L 390.042162 161.800484 
L 390.324123 171.205049 
L 390.606083 175.947429 
L 391.451965 181.4797 
L 391.733926 182.641876 
L 392.015886 182.38232 
L 392.297847 181.846933 
L 392.861768 181.759949 
L 393.143729 181.578136 
L 393.425689 182.428215 
L 393.98961 187.968411 
L 394.835492 197.207265 
L 395.117453 199.591236 
L 397.091177 221.891877 
L 397.373137 224.700701 
L 398.50098 241.949987 
L 398.78294 240.156315 
L 399.064901 230.608939 
L 399.346862 209.947422 
L 399.910783 138.585267 
L 400.474704 72.53587 
L 401.038625 43.810575 
L 401.602546 24.002295 
L 401.884507 20.858221 
L 402.448428 18.190842 
L 402.730389 21.583289 
L 403.012349 30.800167 
L 403.57627 59.861665 
L 404.986073 151.454169 
L 405.268034 165.223554 
L 405.549994 173.542055 
L 406.113916 181.093828 
L 406.395876 182.320699 
L 406.677837 182.653094 
L 406.959797 183.202346 
L 407.241758 183.229308 
L 407.805679 180.313219 
L 408.08764 179.722075 
L 408.3696 179.84338 
L 408.651561 181.101938 
L 410.343324 200.620912 
L 410.625285 202.499316 
L 410.907246 202.939655 
L 411.189206 204.436225 
L 411.753127 210.573415 
L 412.035088 212.203849 
L 412.317049 215.085314 
L 412.88097 225.07481 
L 413.726851 234.444312 
L 414.008812 232.485896 
L 414.290773 220.879851 
L 414.572733 199.27581 
L 415.136654 130.443272 
L 415.700576 67.119794 
L 416.264497 37.635759 
L 416.546457 28.869079 
L 416.828418 25.389635 
L 417.392339 24.888881 
L 417.6743 25.878521 
L 417.95626 31.655518 
L 418.520181 57.572108 
L 420.211945 158.385837 
L 420.775866 178.259046 
L 421.339787 189.41347 
L 421.621748 190.372935 
L 422.185669 186.605074 
L 422.74959 185.453768 
L 423.313511 182.979486 
L 423.595472 183.594638 
L 424.441354 188.409567 
L 425.569196 199.672759 
L 425.851157 201.784947 
L 428.670763 236.389907 
L 428.952723 236.260323 
L 429.234684 228.039292 
L 429.516644 208.945851 
L 430.080565 137.35294 
L 430.644487 67.472239 
L 430.926447 49.743661 
L 431.208408 40.409932 
L 431.490368 35.531208 
L 432.05429 30.478286 
L 432.33625 28.810325 
L 432.618211 29.388795 
L 432.900171 33.318551 
L 433.182132 40.825312 
L 433.746053 66.29322 
L 434.873895 122.323684 
L 435.719777 147.992507 
L 436.565659 169.215875 
L 437.12958 179.474947 
L 438.257422 187.878067 
L 438.821344 188.132695 
L 439.103304 189.133402 
L 439.385265 190.759696 
L 439.667225 193.120205 
L 442.768792 229.906264 
L 443.332713 235.451014 
L 443.896634 242.451392 
L 444.178595 240.333257 
L 444.460555 229.03989 
L 444.742516 205.841954 
L 445.870358 62.77996 
L 446.152319 52.144602 
L 446.998201 38.546139 
L 447.280161 36.291612 
L 447.562122 35.835743 
L 447.844082 37.581896 
L 448.126043 41.870467 
L 448.408004 49.22848 
L 448.971925 75.876921 
L 449.535846 104.165527 
L 450.381728 130.786757 
L 450.945649 144.208974 
L 451.791531 158.906411 
L 452.073491 160.957435 
L 452.637412 162.554905 
L 453.201334 164.907341 
L 453.483294 164.907601 
L 453.765255 165.557088 
L 454.047215 168.191437 
L 455.175058 184.671326 
L 456.866821 220.847574 
L 457.430742 229.997902 
L 457.994663 234.555558 
L 458.558585 238.654121 
L 459.404466 241.887811 
L 459.686427 237.93064 
L 459.968388 224.131124 
L 460.250348 196.844005 
L 461.09623 80.074644 
L 461.378191 62.505162 
L 461.660151 55.405956 
L 462.506033 44.339035 
L 462.787993 41.805465 
L 463.069954 41.571343 
L 463.351915 44.937478 
L 463.633875 51.137548 
L 463.915836 59.889271 
L 464.479757 88.377204 
L 465.043678 116.252646 
L 465.607599 136.778387 
L 466.17152 148.236463 
L 466.735442 155.875462 
L 467.017402 157.778146 
L 467.863284 160.705451 
L 468.427205 161.837229 
L 468.709166 162.014942 
L 468.991126 162.05022 
L 469.273087 163.07013 
L 469.555048 164.777131 
L 470.118969 166.213251 
L 470.400929 169.253699 
L 471.246811 186.590667 
L 472.938575 232.627855 
L 473.220535 236.122938 
L 473.502496 237.927241 
L 474.066417 239.583343 
L 474.630338 244.596746 
L 474.912299 243.448796 
L 475.194259 233.86869 
L 475.47622 211.709247 
L 476.604062 69.798074 
L 476.886023 61.559543 
L 477.449944 55.147425 
L 477.731905 53.415411 
L 478.013865 52.786709 
L 478.295826 52.43642 
L 478.577786 54.068119 
L 478.859747 60.044326 
L 479.423668 82.560994 
L 480.26955 120.96304 
L 481.115432 145.405846 
L 481.679353 155.357709 
L 481.961313 157.334764 
L 482.243274 158.49966 
L 482.525234 159.144924 
L 482.807195 159.310503 
L 483.371116 159.121682 
L 484.498959 157.690436 
L 484.780919 156.737579 
L 485.06288 156.672133 
L 485.34484 158.720913 
L 485.908762 166.482864 
L 486.472683 178.810092 
L 488.164446 223.67626 
L 489.574249 254.016 
L 489.85621 253.487988 
L 490.13817 244.547819 
L 490.420131 222.951569 
L 491.547973 88.420494 
L 492.393855 70.707499 
L 492.675816 67.201876 
L 492.957776 65.842167 
L 493.239737 65.075271 
L 493.521697 66.110756 
L 493.803658 71.072833 
L 494.367579 91.609218 
L 495.213461 124.213126 
L 495.777382 138.08507 
L 496.059343 140.996429 
L 496.905224 145.609824 
L 497.751106 146.913412 
L 498.315027 146.315682 
L 498.596988 146.802665 
L 499.44287 148.775749 
L 499.72483 150.4402 
L 500.006791 152.81814 
L 500.288751 156.327733 
L 502.262476 193.550041 
L 503.108357 212.208668 
L 503.672278 219.496958 
L 504.51816 237.969016 
L 504.800121 239.230652 
L 505.082081 234.339479 
L 505.364042 215.466271 
L 506.209924 118.369534 
L 506.491884 105.305776 
L 507.055805 90.708503 
L 507.619727 81.443967 
L 507.901687 78.47873 
L 508.183648 77.342578 
L 508.465608 78.83297 
L 508.747569 82.367791 
L 509.02953 88.003728 
L 509.593451 107.920971 
L 510.157372 127.472511 
L 510.721293 138.63215 
L 511.285214 143.438877 
L 511.849135 145.809436 
L 512.131096 145.947686 
L 512.413057 145.888015 
L 512.695017 146.078558 
L 512.976978 145.934981 
L 513.258938 145.129276 
L 513.540899 144.673833 
L 513.82286 145.629719 
L 514.386781 150.078173 
L 514.950702 155.999556 
L 516.924426 179.859254 
L 518.61619 207.927208 
L 519.180111 215.7619 
L 519.744032 222.601263 
L 520.025992 224.215722 
L 520.307953 220.034559 
L 520.589914 203.190216 
L 521.435795 123.659307 
L 521.717756 112.66092 
L 522.281677 101.175119 
L 522.845598 94.018155 
L 523.409519 90.901469 
L 523.69148 90.037884 
L 523.973441 91.620584 
L 524.255401 97.235738 
L 525.665204 138.136226 
L 525.947165 143.091639 
L 526.229125 145.989478 
L 526.511086 147.675713 
L 526.793047 148.532944 
L 527.075007 148.399976 
L 527.638928 146.303666 
L 527.920889 145.870717 
L 528.202849 145.875855 
L 528.766771 145.479562 
L 529.048731 146.223432 
L 529.612652 149.936098 
L 530.740495 159.802114 
L 531.304416 166.603947 
L 532.150298 178.418296 
L 532.714219 186.193241 
L 533.27814 190.978749 
L 533.842061 197.698611 
L 534.405982 204.014182 
L 534.969904 211.287081 
L 535.251864 213.794465 
L 535.533825 213.557295 
L 535.815785 204.543011 
L 536.943628 118.963012 
L 537.507549 104.665987 
L 538.07147 98.134798 
L 538.353431 96.956547 
L 538.635391 97.619567 
L 539.199312 100.757841 
L 539.481273 104.290112 
L 540.045194 119.712297 
L 540.609115 135.217059 
L 541.173036 144.369519 
L 541.454997 147.222258 
L 541.736958 148.697464 
L 542.018918 148.285765 
L 542.300879 146.862103 
L 542.582839 146.225566 
L 543.146761 147.587135 
L 543.428721 147.397832 
L 543.710682 146.736739 
L 543.992642 146.86181 
L 544.274603 148.470596 
L 545.120485 155.503057 
L 545.966366 161.25595 
L 546.530288 166.268097 
L 549.631854 201.675285 
L 549.913815 202.65771 
L 550.477736 205.843429 
L 550.759696 200.16323 
L 551.323618 160.816014 
L 551.887539 127.737481 
L 552.45146 112.769145 
L 552.73342 108.63788 
L 553.015381 106.709114 
L 553.297342 106.281023 
L 553.861263 106.231511 
L 554.143223 107.501262 
L 554.707145 115.548291 
L 555.553026 132.096452 
L 555.834987 137.443364 
L 556.116947 140.44686 
L 556.680869 142.32154 
L 557.808711 145.667695 
L 558.372632 145.607621 
L 558.654593 145.75144 
L 558.936553 145.731157 
L 559.218514 146.27289 
L 559.500475 148.352225 
L 560.064396 153.927241 
L 560.628317 156.661666 
L 560.910277 157.790452 
L 561.192238 159.628363 
L 562.32008 170.797635 
L 563.165962 183.372203 
L 563.447923 185.43739 
L 564.011844 191.504755 
L 564.293804 192.472699 
L 564.575765 192.234319 
L 564.857726 193.969091 
L 565.139686 197.086733 
L 565.421647 196.1218 
L 565.703607 187.3464 
L 566.83145 132.710922 
L 567.11341 125.85154 
L 567.677332 119.697822 
L 568.241253 115.712599 
L 568.805174 113.568017 
L 569.087134 113.588215 
L 569.369095 115.242059 
L 569.651056 118.316258 
L 570.214977 128.459532 
L 570.778898 138.238933 
L 571.342819 142.08045 
L 571.62478 142.816248 
L 572.188701 143.23698 
L 572.470661 143.749257 
L 572.752622 144.030484 
L 573.034583 144.142418 
L 573.316543 144.794891 
L 573.880464 148.450832 
L 575.008307 156.60407 
L 575.290267 158.239566 
L 575.854189 160.268316 
L 576.41811 164.205901 
L 576.70007 165.333195 
L 576.982031 167.106142 
L 577.827913 176.740104 
L 578.955755 185.318114 
L 579.519676 185.459698 
L 579.801637 186.565192 
L 580.365558 190.575432 
L 580.647518 188.919242 
L 580.929479 181.527769 
L 582.057321 133.899713 
L 582.621243 124.731214 
L 582.903203 122.054462 
L 583.185164 120.521449 
L 584.031046 117.962593 
L 584.313006 117.919166 
L 584.594967 118.737278 
L 584.876927 120.884949 
L 585.440848 131.031003 
L 585.722809 136.090485 
L 586.28673 140.39517 
L 586.850651 145.696864 
L 587.132612 146.723153 
L 587.414573 146.467286 
L 587.696533 147.006652 
L 587.978494 148.009522 
L 588.260454 147.25431 
L 588.542415 145.166955 
L 588.824375 144.930014 
L 589.670257 152.96066 
L 591.925942 163.425378 
L 592.489863 171.456964 
L 592.771824 174.904579 
L 593.899666 181.890745 
L 594.181627 181.563536 
L 594.463587 181.866384 
L 595.59143 188.001732 
L 595.87339 185.745588 
L 596.155351 177.32552 
L 597.283193 129.751975 
L 597.565154 124.864182 
L 598.129075 120.494105 
L 598.411035 119.756304 
L 598.974957 120.569819 
L 599.256917 120.113651 
L 599.538878 120.737568 
L 599.820838 123.550245 
L 600.38476 132.277575 
L 600.948681 141.771028 
L 601.230641 144.13459 
L 601.794562 145.735805 
L 602.076523 146.014947 
L 602.358484 145.866737 
L 602.640444 145.909465 
L 602.922405 146.244022 
L 603.486326 146.552434 
L 603.768287 147.481242 
L 604.332208 151.159264 
L 605.178089 156.976504 
L 606.587892 161.771826 
L 607.433774 170.575439 
L 607.715735 171.747571 
L 608.561617 176.41833 
L 608.843577 176.115673 
L 609.125538 176.779535 
L 609.689459 180.50454 
L 610.25338 182.613496 
L 610.535341 183.809333 
L 610.817301 181.923489 
L 611.099262 174.734933 
L 612.227104 133.991305 
L 612.509065 129.759009 
L 612.791025 127.861502 
L 613.354946 125.873949 
L 613.636907 125.331311 
L 613.918868 125.215557 
L 614.200828 125.336926 
L 614.482789 126.163513 
L 614.764749 128.406046 
L 615.328671 136.55647 
L 615.892592 144.400887 
L 616.174552 145.794004 
L 616.456513 146.458691 
L 616.738474 147.423126 
L 617.020434 147.939023 
L 617.302395 147.543988 
L 617.584355 147.429944 
L 617.866316 147.916431 
L 618.148276 147.775776 
L 618.430237 147.463895 
L 618.712198 148.9179 
L 618.994158 151.398266 
L 619.276119 152.363297 
L 619.558079 152.470411 
L 619.84004 154.345204 
L 620.122001 157.213279 
L 620.403961 158.43269 
L 620.685922 158.821293 
L 621.249843 163.208339 
L 621.531803 163.705928 
L 621.813764 163.144232 
L 622.095725 163.749542 
L 623.223567 169.664738 
L 624.63337 179.860758 
L 625.197291 182.592505 
L 625.479252 181.180229 
L 625.761212 174.596409 
L 626.607094 140.795142 
L 626.889055 134.939368 
L 627.452976 128.741572 
L 627.734936 126.701803 
L 628.016897 126.049817 
L 628.298858 125.848996 
L 628.580818 125.076636 
L 628.862779 124.831703 
L 629.144739 126.552553 
L 629.70866 132.07656 
L 630.272582 141.309325 
L 630.554542 145.405157 
L 630.836503 146.177434 
L 631.118463 145.252236 
L 631.682385 144.680399 
L 631.964345 143.748707 
L 632.246306 143.257283 
L 632.810227 145.053812 
L 633.092188 145.839709 
L 633.092188 145.839709 
" clip-path="url(#pe7e7a9ec74)" style="fill: none; stroke: #1f77b4; stroke-width: 1.5; stroke-linecap: square"/>
   </g>
   <g id="patch_3">
    <path d="M 47.192188 266.112 
L 47.192188 0 
" style="fill: none; stroke: #808080; stroke-width: 0.8; stroke-linejoin: miter; stroke-linecap: square"/>
   </g>
   <g id="patch_4">
    <path d="M 660.992188 266.112 
L 660.992188 0 
" style="fill: none; stroke: #000000; stroke-width: 0.8; stroke-linejoin: miter; stroke-linecap: square"/>
   </g>
   <g id="patch_5">
    <path d="M 47.192188 266.112 
L 660.992188 266.112 
" style="fill: none; stroke: #808080; stroke-width: 0.8; stroke-linejoin: miter; stroke-linecap: square"/>
   </g>
   <g id="patch_6">
    <path d="M 47.192188 0 
L 660.992188 0 
" style="fill: none; stroke: #000000; stroke-width: 0.8; stroke-linejoin: miter; stroke-linecap: square"/>
   </g>
  </g>
 </g>
 <defs>
  <clipPath id="pe7e7a9ec74">
   <rect x="47.192188" y="0" width="613.8" height="266.112"/>
  </clipPath>
 </defs>
</svg>
