<svg xmlns="http://www.w3.org/2000/svg" xmlns:xlink="http://www.w3.org/1999/xlink" width="913.477" height="377.053" viewBox="0 0 685.107 282.79"><defs><style>*{stroke-linejoin:round;stroke-linecap:butt}</style></defs><g id="figure_1"><path id="patch_1" d="M0 282.79h685.107V0H0v282.79z" style="fill:none"/><g id="axes_1"><path id="patch_2" d="M71.308 266.112h613.8V0h-613.8v266.112z" style="fill:none"/><g id="matplotlib.axis_1"><g id="xtick_1"><g id="line2d_1"><defs><path id="mbfba22349d" d="M0 0v3.5" style="stroke:gray;stroke-width:.8"/></defs><use xlink:href="#mbfba22349d" x="99.207" y="266.112" style="fill:gray;stroke:gray;stroke-width:.8"/></g><g id="text_1" style="fill:gray" transform="matrix(.1 0 0 -.1 96.026 280.71)"><defs><path id="DejaVuSans-30" d="M2034 4250q-487 0-733-480-245-479-245-1442 0-959 245-1439 246-480 733-480 491 0 736 480 246 480 246 1439 0 963-246 1442-245 480-736 480zm0 500q785 0 1199-621 414-620 414-1801 0-1178-414-1799Q2819-91 2034-91q-784 0-1198 620-414 621-414 1799 0 1181 414 1801 414 621 1198 621z" transform="scale(.01563)"/></defs><use xlink:href="#DejaVuSans-30"/></g></g><g id="xtick_2"><use xlink:href="#mbfba22349d" id="line2d_2" x="168.958" y="266.112" style="fill:gray;stroke:gray;stroke-width:.8"/><g id="text_2" style="fill:gray" transform="matrix(.1 0 0 -.1 159.414 280.71)"><defs><path id="DejaVuSans-35" d="M691 4666h2478v-532H1269V2991q137 47 274 70 138 23 276 23 781 0 1237-428 457-428 457-1159 0-753-469-1171Q2575-91 1722-91q-294 0-599 50Q819 9 494 109v635q281-153 581-228t634-75q541 0 856 284 316 284 316 772 0 487-316 771-315 285-856 285-253 0-505-56-251-56-513-175v2344z" transform="scale(.01563)"/></defs><use xlink:href="#DejaVuSans-35"/><use xlink:href="#DejaVuSans-30" x="63.623"/><use xlink:href="#DejaVuSans-30" x="127.246"/></g></g><g id="xtick_3"><use xlink:href="#mbfba22349d" id="line2d_3" x="238.708" y="266.112" style="fill:gray;stroke:gray;stroke-width:.8"/><g id="text_3" style="fill:gray" transform="matrix(.1 0 0 -.1 225.982 280.71)"><defs><path id="DejaVuSans-31" d="M794 531h1031v3560L703 3866v575l1116 225h631V531h1031V0H794v531z" transform="scale(.01563)"/></defs><use xlink:href="#DejaVuSans-31"/><use xlink:href="#DejaVuSans-30" x="63.623"/><use xlink:href="#DejaVuSans-30" x="127.246"/><use xlink:href="#DejaVuSans-30" x="190.869"/></g></g><g id="xtick_4"><use xlink:href="#mbfba22349d" id="line2d_4" x="308.457" y="266.112" style="fill:gray;stroke:gray;stroke-width:.8"/><g id="text_4" style="fill:gray" transform="matrix(.1 0 0 -.1 295.733 280.71)"><use xlink:href="#DejaVuSans-31"/><use xlink:href="#DejaVuSans-35" x="63.623"/><use xlink:href="#DejaVuSans-30" x="127.246"/><use xlink:href="#DejaVuSans-30" x="190.869"/></g></g><g id="xtick_5"><use xlink:href="#mbfba22349d" id="line2d_5" x="378.207" y="266.112" style="fill:gray;stroke:gray;stroke-width:.8"/><g id="text_5" style="fill:gray" transform="matrix(.1 0 0 -.1 365.483 280.71)"><defs><path id="DejaVuSans-32" d="M1228 531h2203V0H469v531q359 372 979 998 621 627 780 809 303 340 423 576 121 236 121 464 0 372-261 606-261 235-680 235-297 0-627-103-329-103-704-313v638q381 153 712 231 332 78 607 78 725 0 1156-363 431-362 431-968 0-288-108-546-107-257-392-607-78-91-497-524-418-433-1181-1211z" transform="scale(.01563)"/></defs><use xlink:href="#DejaVuSans-32"/><use xlink:href="#DejaVuSans-30" x="63.623"/><use xlink:href="#DejaVuSans-30" x="127.246"/><use xlink:href="#DejaVuSans-30" x="190.869"/></g></g><g id="xtick_6"><use xlink:href="#mbfba22349d" id="line2d_6" x="447.957" y="266.112" style="fill:gray;stroke:gray;stroke-width:.8"/><g id="text_6" style="fill:gray" transform="matrix(.1 0 0 -.1 435.233 280.71)"><use xlink:href="#DejaVuSans-32"/><use xlink:href="#DejaVuSans-35" x="63.623"/><use xlink:href="#DejaVuSans-30" x="127.246"/><use xlink:href="#DejaVuSans-30" x="190.869"/></g></g><g id="xtick_7"><use xlink:href="#mbfba22349d" id="line2d_7" x="517.707" y="266.112" style="fill:gray;stroke:gray;stroke-width:.8"/><g id="text_7" style="fill:gray" transform="matrix(.1 0 0 -.1 504.983 280.71)"><defs><path id="DejaVuSans-33" d="M2597 2516q453-97 707-404 255-306 255-756 0-690-475-1069Q2609-91 1734-91q-293 0-604 58T488 141v609q262-153 574-231 313-78 654-78 593 0 904 234t311 681q0 413-289 645-289 233-804 233h-544v519h569q465 0 712 186t247 536q0 359-255 551-254 193-729 193-260 0-557-57-297-56-653-174v562q360 100 674 150t592 50q719 0 1137-327 419-326 419-882 0-388-222-655t-631-370z" transform="scale(.01563)"/></defs><use xlink:href="#DejaVuSans-33"/><use xlink:href="#DejaVuSans-30" x="63.623"/><use xlink:href="#DejaVuSans-30" x="127.246"/><use xlink:href="#DejaVuSans-30" x="190.869"/></g></g><g id="xtick_8"><use xlink:href="#mbfba22349d" id="line2d_8" x="587.457" y="266.112" style="fill:gray;stroke:gray;stroke-width:.8"/><g id="text_8" style="fill:gray" transform="matrix(.1 0 0 -.1 574.732 280.71)"><use xlink:href="#DejaVuSans-33"/><use xlink:href="#DejaVuSans-35" x="63.623"/><use xlink:href="#DejaVuSans-30" x="127.246"/><use xlink:href="#DejaVuSans-30" x="190.869"/></g></g><g id="xtick_9"><use xlink:href="#mbfba22349d" id="line2d_9" x="657.207" y="266.112" style="fill:gray;stroke:gray;stroke-width:.8"/><g id="text_9" style="fill:gray" transform="matrix(.1 0 0 -.1 644.482 280.71)"><defs><path id="DejaVuSans-34" d="M2419 4116 825 1625h1594v2491zm-166 550h794V1625h666v-525h-666V0h-628v1100H313v609l1940 2957z" transform="scale(.01563)"/></defs><use xlink:href="#DejaVuSans-34"/><use xlink:href="#DejaVuSans-30" x="63.623"/><use xlink:href="#DejaVuSans-30" x="127.246"/><use xlink:href="#DejaVuSans-30" x="190.869"/></g></g></g><g id="matplotlib.axis_2"><g id="ytick_1"><g id="line2d_10"><defs><path id="m1e3b44ea23" d="M0 0h-3.5" style="stroke:gray;stroke-width:.8"/></defs><use xlink:href="#m1e3b44ea23" x="71.308" y="242.674" style="fill:gray;stroke:gray;stroke-width:.8"/></g><g id="text_10" style="fill:gray" transform="matrix(.16 0 0 -.16 0 248.753)"><defs><path id="DejaVuSans-2212" d="M678 2272h4006v-531H678v531z" transform="scale(.01563)"/></defs><use xlink:href="#DejaVuSans-2212"/><use xlink:href="#DejaVuSans-32" x="83.789"/><use xlink:href="#DejaVuSans-30" x="147.412"/><use xlink:href="#DejaVuSans-30" x="211.035"/><use xlink:href="#DejaVuSans-30" x="274.658"/><use xlink:href="#DejaVuSans-30" x="338.281"/></g></g><g id="ytick_2"><use xlink:href="#m1e3b44ea23" id="line2d_11" x="71.308" y="195.826" style="fill:gray;stroke:gray;stroke-width:.8"/><g id="text_11" style="fill:gray" transform="matrix(.16 0 0 -.16 0 201.905)"><use xlink:href="#DejaVuSans-2212"/><use xlink:href="#DejaVuSans-31" x="83.789"/><use xlink:href="#DejaVuSans-30" x="147.412"/><use xlink:href="#DejaVuSans-30" x="211.035"/><use xlink:href="#DejaVuSans-30" x="274.658"/><use xlink:href="#DejaVuSans-30" x="338.281"/></g></g><g id="ytick_3"><use xlink:href="#m1e3b44ea23" id="line2d_12" x="71.308" y="148.978" style="fill:gray;stroke:gray;stroke-width:.8"/><use xlink:href="#DejaVuSans-30" id="text_12" style="fill:gray" transform="matrix(.16 0 0 -.16 54.127 155.057)"/></g><g id="ytick_4"><use xlink:href="#m1e3b44ea23" id="line2d_13" x="71.308" y="102.13" style="fill:gray;stroke:gray;stroke-width:.8"/><g id="text_13" style="fill:gray" transform="matrix(.16 0 0 -.16 13.408 108.209)"><use xlink:href="#DejaVuSans-31"/><use xlink:href="#DejaVuSans-30" x="63.623"/><use xlink:href="#DejaVuSans-30" x="127.246"/><use xlink:href="#DejaVuSans-30" x="190.869"/><use xlink:href="#DejaVuSans-30" x="254.492"/></g></g><g id="ytick_5"><use xlink:href="#m1e3b44ea23" id="line2d_14" x="71.308" y="55.282" style="fill:gray;stroke:gray;stroke-width:.8"/><g id="text_14" style="fill:gray" transform="matrix(.16 0 0 -.16 13.408 61.36)"><use xlink:href="#DejaVuSans-32"/><use xlink:href="#DejaVuSans-30" x="63.623"/><use xlink:href="#DejaVuSans-30" x="127.246"/><use xlink:href="#DejaVuSans-30" x="190.869"/><use xlink:href="#DejaVuSans-30" x="254.492"/></g></g><g id="ytick_6"><use xlink:href="#m1e3b44ea23" id="line2d_15" x="71.308" y="8.433" style="fill:gray;stroke:gray;stroke-width:.8"/><g id="text_15" style="fill:gray" transform="matrix(.16 0 0 -.16 13.408 14.512)"><use xlink:href="#DejaVuSans-33"/><use xlink:href="#DejaVuSans-30" x="63.623"/><use xlink:href="#DejaVuSans-30" x="127.246"/><use xlink:href="#DejaVuSans-30" x="190.869"/><use xlink:href="#DejaVuSans-30" x="254.492"/></g></g></g><path id="line2d_16" d="m99.207 148.965 1.41.025 1.41-.025 1.41.027.846-.03.846.033.846-.036.845.04.846-.047.846.057.282-.064.282.069.282-.075.282.081.282-.088.282.097.282-.108.282.121.282-.138.282.16.282-.188.282.226.282-.283.282.377.282-.552.282.979.282-3.098.281-18.05.564 8.71.564 2.596.564 10.085.282-.285.282-2.135.564 3.264.282-1.338.282-2.264.282.391.282.832.282.174.282 1.411.564 5.497.282.597.282 1.524.564 5.273.282-.677.282-2.154.282-1.161.281.346.282.938.282-.075.282-.358.282.378.282-.162.282-4.094.846-21.342.564-7.344.282-.68.282 1.697 1.128 10.42.282.563.282 2.848.564 11.41.282 1.901.564-2.494.281.616.564 4.757.282.435.282-.824.282-.052.282.903.282-.485.564-3.75.282-.145.282.318.282.952.564 3.814.564 1.603.282 1.309.282.347.564-1.515.282-2.11.282-6.148.564-17.348.563-10.053.282-1.184.846 4.024 1.128 8.54 1.128 15.483.282 1.567.282.03.282-.603.282 1.26.282 2.223.282.385.282-.959.282.646.282 1.526.282-.37.564-3.358.281-.088.564.27.846 1.292.282.773.282.304.564-.435.282-1.813.282-5.836.564-16.674.564-10.229.282-2.468.282.798.564 5.646.564 7.252.282 1.612.282.322.282 2.93.563 11.273.282 1.282.282-.146.564 1.012.282-.415.282-.172.282.205.282-.522.564-1.96.282-.418.282.857.282 2.225.282 1.185.282-.734.282-.163.282 1.458.282.312.282-.985.282.578.282 1.59.564-.754.281 2.56.282 1.088.282-6.227.564-19.16.846-15.54.282-.751.282 2.689.564 9.14.282 1.83.282.006.282 1.645 1.128 17.846.282 1.236.282.203.282-.025.282-.234.846-1.63.281.488.282 2.434.564 7.096.282.693.282-.317.282 1.172.282 2.844.282 1.306.282-2.452.282-3.8.282-.928.282 1.29.282.016.282-1.012.282.482.282-.672.282-6.172.564-18.168.564-10.868.282-1.909.282 1.977 1.127 11.895.282.434.282 2.106.564 14.768.282 2.72.282-.385.282 1.13.282 2.28.282.188.846-5.46.282-.16.282.533.282.924.282 2.053.564 5.051.282-.152.282.007.282 1.46.282.485.563-4.746.282-.782.282.1.282.59.282 1.918.282.885.282-4.237 1.128-35.93.282-3.98.282-.69.282 2.888.846 15.242.282 1.611.282 3.663.564 11.678.282 1.743.282.56.564 2.494.563-2.833.282.033.564 2.437.564 1.275.282-.089.282-.89.282-.053.846 4.324.282 1.083.564 3.088.564 1.477.564 1.779.282-.723.282-2.9.282-5.917.564-20.258.563-18.564.282-1.946.282 2.342 1.128 13.784.564 4.832.846 16.082.282.698.564-2.151.282-.105.282-.749.282-1.317.282-.737.282.459.564 1.977.282 1.358.564 5.691.281 3.23.282 1.89.282.227.282-.755.282-.337.282.657.282.954.282.177.282-.014.564 1.7.282-1.987.564-13.26.846-24.237.282-3.675.282 1.127.564 5.665.282.904.282.52.282 1.026.282 2.355.563 10.19.282 4.75.282 1.728.282.167.282 1.794.282 2.892.282.685.282-1.56.282.361.564 5.2.282-.861.282-.297.282 1.677.282.514.564-3.964.282.78 1.128 7.439.282.212.563-.91.282-1.139.282-3.985.564-18.393.564-19.607.282-6.54.282-2.935.282.911.846 8.69.564 4.593.282 4.847.846 23.287.282 2.617.282.21.564-4.876.282.105.282 2.8.282 1.665.281-.942.282-1.383.282.309.564 4.48.564 4.43.282 1.403.282.723.282-.423.564-1.814.564-1.072.282.768.282 1.605.282-.655.282-6.078 1.128-43.153.282-5.397.282-1.388.282 3.088.563 11.386.282 2.968.282.995.282 2.218.282 6.626.564 15.606.564 2.322.564 11.394.282-.613.282-4.22.282-1.284.282 1.75.282-.008.564-3.936.282.228.282.77.282 1.555.564 4.894.282.37.282-.283.563.947.282-.198.282.13.564 3.5.282-2.376.564-19.887.846-29.38.282-5.573.282-.42.564 6.616.564 8.365.282 1.45.282 2.362.846 25.72.564-2.675.563 6.561.282-.521.282-1.42.282 1.263.282 2.339.282.793.282-.15.846 1.861.282 1.256.282 2.163.282 1.075.282-.3.282.478.282 1.68.282.188.282-1.697.282-.718.282.53.282-2.983.564-22.175.845-34.373.282-5.35.282 1.517 1.974 41.769.282 7.358.282 3.842.282.632.564.041.564-2.028.282.192.282.93.282.49.282.9.564 3.662.564 1.69.281 1.228.282.076.282-1.058.282.143.564 2.983.564-.813.282 1.005.282.382.282-3.53.282-8.984 1.128-49.968.282-4.897.282-.878.282 2.855 1.128 21.923.564 14.751.563 20.826.282 4.893.282-.312.282-1.908.282-.774.282.228.282-.218.282-.824.282-.454.282.725.564 2.39 1.128 2.778.564.812.282.3.846 1.57.282.443.282-.343.281-5.147 1.41-58.263.282-5.964.282.872.846 16.642.564 7.263.282 7.262.564 21.173.282 5.653.282 1.453.282.61.282.9.282.035.564-1.846.282-.332.282.574.282 1.018.281.299.282-.122.282.733.564 2.77.564 2.038.282 1.064.564.808.846 3.86.282-2.372.282-7.271.564-28.088.564-30.188.282-9.26.282-3.82.282 1.253.282 5.691.845 23.933.282 6.096.846 27.578.282 1.576.282-2.298.282-1.1.564 4.407.282.22.282-.914.282.766.846 10.562.282-.437.282-1.721.282.208.282 1.795.564 1.697.564 6.86.282.296.282-1.686.281.446.282-.112.282-7.442 1.41-74.744.282-6.901.282.092.282 3.835.282 5.525.564 17.482 1.128 42.729.282 5.224.282.233.282-1.496.564-1.003.282-1.257.282-.503.845 5.073.282.542.282 2.016 1.128 13.795.282.777.282.176.282-.21.282-1.605.282-2.256.282-.963.282-.551.282-4.75.282-11.696 1.128-62.59.282-10.562.282-5.083.282.798.563 8.482.282 5.815.282 10.205.846 42.832.564 16.107.282 2.69.282.161.282-.398.282-.65.564-3.203.282-.698.282-.204.282.132.282 1.6.564 4.91 1.128 5.839.563.557.846-.881.282-3.082.282-9.466.564-34.191.564-34.72.282-9.95.282-4.788.282-2.17.282 1.365.282 7.72 1.692 72.309.282 1.475.282-1.365.282 2.106.563 8.596.282-.177.282-.66.564 3.885.282-.467.282-2.13.282-.223 1.128 9.397.282 1.19.846 5.065.282.004.282-1.085.282-4.27.282-10.618.846-57.444.564-31.682.281-7.622.282-1.082.282 5.343.846 31.09 1.128 55.684.564 2.574.282 2.08.282.846.282-.586.282-.948.282-.392.282.632.846 4.392.282 2.854.564 7.419.564 3.627.281 2.716.282 1.392.282-.265.282.126.282.52.282-2.956.282-9.294.564-34.422.846-63.417.564-21.875.282-6.172.282-1.694.282 4.788.282 11.213.564 37.153.846 62.24.282 7.624.282.17.281-1.363.282 2.113.282 4.475.282 2.125.564-4.117.282-.364.564.7.282 1.951.846 13.417.846 6.66.282.916.282-.828.282-2.075.282-3.609.282-8.55.564-40.356.846-64.647.563-33.704.282-6.416.282 2.256.564 18.664.282 14.32.564 48.139.564 39.471.282 7.073.564 6.208.564 1.75.282.394.282-.772.282-1.349.564-1.057.282-1.058.282.322.564 8.216.845 10.57.282 1.995.846 1.565.282-2.816.282-9.228.564-39.633.564-46.65.846-43.87.282-6.208.282 2.38.564 13.656.282 12.461 1.128 88.172.281 8.095.282 4.122.282.654.282-.112.282 1.395.282.676.846-8.348.564 2.469.282 2.958.282 7.912.564 19.732.282 4.092.846 4.517.282-.282.282-4.052.282-8.274.282-13.82.564-49.577.563-52.942.564-37.492.282-9.932.282-1.314.846 11.885.282 12.043.564 55.691.564 48.137.282 10.404.282 6.226.282 3.766.282 1.475.846 2.313.282-.768.282-.373.282 1.682 1.41 17.51.563 5.319.846 2.5.282-1.933.282-9.28.282-19.313 1.41-135.475.282-13.35.282-3.188.282 1.328.282 2.268.282 4.506.282 8.621.282 15.01.564 54.687.563 47.608.282 11.05.282 6.24.282 2.917.846 5.13.282-1.087.282-2.122.282-1.065.282-.18.282.358.282 2.306 1.128 16.292.564 4.794.282 1.083.282.167.282-3.14.282-11.016.564-49.01.845-77.569.282-20.68.282-11.754.282-1.99.846 8.173.282 7.907.282 16.253 1.128 101.675.282 9.774.282 4.591.282 2.294.564 3.172.282 2.44.282.911.282-2.614.282-3.783.282-.772.281 2.217.282 1.292.282.207.282 3.366.564 13.391.564 4.438.282 3.926.282 1.866.282-4.645.282-12.418.564-46.847.846-86.161.282-21.687.282-12.921.282-3.374.282 2.705.564 10.446.282 9.976.282 19.088.845 83.46.564 27.354.282 6.486.282.186.282-3.086.282-1.355.564 2.669.282.32.282.63.282 2.506.564 11.298.564 9.994.564 3.87.564 4.598.282.365.282-2.196.282-8.753.282-18.909 1.691-152.624.846-6.713.282.544.282 5.778.282 11.209.564 42.116.564 48.539.564 27.838.564 17.503.564 9.834.564 5.14.563 3.208.282 2.63.846 12.736.846 10.992.564 5.335.282.554.282-4.052.282-12.823.564-50.968 1.128-126.412.282-7.959.564-3.52.282-2.48.282-.836.282 4.098.282 12.2.845 65.02.564 40.666.282 13.12.564 13.401 1.41 23.991.564 5.767.282 1.46.282 3.11.846 14.219.564 5.927.564 3.558.282-1.868.281-10.194.564-47.72 1.128-116.23.282-9.729.846-16.03.282-2.237.282 2.02.282 9.226.564 39.99.846 66.343.282 15.442.564 15.112.564 8.04.563 5.834.564 6.742.282 2.07.282 5.014.564 15.465 1.128 17.3.282.649.282-.279.282-2.848.282-11.048.564-53.735.846-94.431.564-28.111.846-32.395.282-.63.281 5.801.282 11.77.564 44.726.846 70.454.564 27.888.564 11.944.564 7.911 1.128 8.911.564 5.9.282 2.37.282 4.82.564 13.185.564 6.12.281 1.46.282-5.49.282-14.976.564-52.46.564-65.86.564-35.703.564-32.146.282-8.094.282-2.312.282-.293.282 4.54.282 13.57 1.974 139.68.282 5.557.282 1.998 1.41 14.805.563 9.097.564 6.096 1.128 21.453.282 6.91.282 3.964.282-5.98.282-18.727.564-63.653.564-68.337.564-39.148.564-29.11.282-8.1.281-1.7.282 2.132.282 6.626.282 14.022 1.128 88.21.564 44.352.564 22.01.282 5.96.846 8.557 1.128 12.45.282.923.282-.087.282 3.304.282 5.712.282 2.853.281.05.564 5.202.282-4.901.282-18.024.564-62.955.564-64.969.564-36.167.564-22.885.282-4.263.282-.308.282 1.84.282 6.041.282 13.22 2.256 152.949.563 11.77.282 3.988.282 2.06.282.139.282.328.846 2.924.282 3.856.564 11.044.846 7.209.282-2.398.282-12.1.282-23.262 1.128-131.17.846-39.944.281-5.714.282-1.325.282-.307.282 3 .282 11.44 2.256 147.709.282 11.014.282 4.398.282 1.206.846 7.942.282 1.467 1.41 18.589.845 7.243.282.882.282-5.276.282-15 .564-60.954.564-68.618.564-34.664.564-19.702.282-5.582.282-3.005.282.51.282 7.882.846 54.562 1.128 68.005 1.127 41.058.564 10.945.564 5.906.282 1.916.282 2.702 1.128 18.345.846 9.131.282-1.925.282-9.22.282-21.556 1.128-136.369.564-27.165.563-16.575.564-9.24.282-.343.282 6.634.846 44.765 1.692 94.63.564 20.788 1.128 31.157.282 3.707.846 14.088.845 10.002.282 1.016.282-.991.282-2.447.282-6.617.282-17.92 1.128-138.921.846-48.185.846-19.614.282-2.661.282 7.02.564 30.986.564 41.46.564 45.84.563 26.108.846 26.303 1.41 25.715.282 3.268.282 6.266.564 16.78.564 7.94.282 3.006.282 1.228.282-2.602.282-7.674.282-16.813.564-70.512.564-65.27.563-35.834.564-23.822.282-6.716.282-2.87.282 1.761.282 6.6.282 12.02 1.692 97.43.564 22.232 1.41 37.989 1.973 41.697.564 5.763.282 3.083.282 1.672.282-4.624.282-14.817.282-28.043.846-107.516.846-42.91.282-10.29.564-10.437.282-2.189.282 2.212.282 7.649.564 29.917 1.41 79.575.563 20.992.564 14.171 1.128 19.634.564 8.352 1.128 20.967.564 10.576.282 1.964.282-4.549.282-18.238 1.127-123.927.564-31.29.564-20.13.564-7.491.282-.517.282 4.496.564 25.84.846 41.48.564 15.843.846 30.39.564 17.84.564 19.415 1.41 20.589.281 1.11.282 2.158 1.128 23.42.282-1.784.282-15.513 1.128-118.901.564-31.256.564-23.595.282-7.257.282-2.5.282-.095.282 3.025.282 10.95.845 49.548.846 33.182.564 7.726.564 15.392.564 11.495.564 16.111 1.128 20.252.564 4.222 1.128 19.083.282 3.744.282.75.281-10.637.564-58.267.564-57 .564-35.546.564-21.908.282-6.425.282-2.14.282-.077.282 2.325.282 9.635.846 48.709 1.128 42.892.846 22.66.564 7.303.563 8.928.564 7.551 1.41 25.495.564 4.255.282 1.985.282-1.78.282-12.427 1.41-115.81.846-34.035.282-4.698.282-.117.282 1.807.281 2.807.282 6.668 1.128 48.45.564 14.237.564 15.966.564 10.713.564 16.53.564 8.232 1.128 13.818 1.128 14.893.564 11.057.281.171.282-13.014 1.128-94.02.564-27.35.846-22.476.282-3.49.282-.901.282.983.282 6.139 1.41 57.891.846 21.864 3.383 58.196.564 4.339.846 6.48.282-3.445.282-15.4.846-73.38.564-26.377.846-26.103.281-5.034.282-1.065.282 1.972.282 5.33.564 24.534.564 22.217.564 13.916.846 13.022.846 17.208.564 9.661.846 17.544.564 3.621.846 11.396.845 13.35.282-.46.282-10.8 1.41-104.084.564-20.304.564-11.025.564-5.802.282 1.522.282 9.363.564 25.46.564 21.752.564 22.05.563 10.678.564 12.635.282-.494.282-1.976.282.722.564 5.38.282 1.972.282 3.352 1.128 20.704.846 7.509.282-2.262.282-11.367 1.128-77.51.282-9.11 1.127-21.27.282-3.5.282-1.642.282.594.282 4.755 1.41 46.616.564 8.93.564 8.795.564 9.73.564 3.828.846 12.404.564 4.526.282 3.19.563 10.557.282 5.074.846 7.182.282-1.143.282-14.033.846-68.489.846-30.256.282-4.771.282.211.282.798.282-.908.282-1.363.282.966.282 5.618.846 30.758 1.691 35.133.564 5.924.846 5.08.282.377.282-.845.282 1.453.564 8.659.564 2.716.564 7.49.282 1.85.282.667.282-3.366.282-11.84.846-48.857h0" clip-path="url(#p269d9c1ed1)" style="fill:none;stroke:#1f77b4;stroke-width:1.5;stroke-linecap:square"/><path id="patch_3" d="M71.308 266.112V0" style="fill:none;stroke:gray;stroke-width:.8;stroke-linejoin:miter;stroke-linecap:square"/><path id="patch_4" d="M685.107 266.112V0" style="fill:none;stroke:#000;stroke-width:.8;stroke-linejoin:miter;stroke-linecap:square"/><path id="patch_5" d="M71.308 266.112h613.8" style="fill:none;stroke:gray;stroke-width:.8;stroke-linejoin:miter;stroke-linecap:square"/><path id="patch_6" d="M71.308 0h613.8" style="fill:none;stroke:#000;stroke-width:.8;stroke-linejoin:miter;stroke-linecap:square"/></g></g><defs><clipPath id="p269d9c1ed1"><path d="M71.308 0h613.8v266.112h-613.8z"/></clipPath></defs></svg>