<svg xmlns="http://www.w3.org/2000/svg" xmlns:xlink="http://www.w3.org/1999/xlink" width="913.477" height="377.053" viewBox="0 0 685.107 282.79"><defs><style>*{stroke-linejoin:round;stroke-linecap:butt}</style></defs><g id="figure_1"><path id="patch_1" d="M0 282.79h685.107V0H0v282.79z" style="fill:none"/><g id="axes_1"><path id="patch_2" d="M71.308 266.112h613.8V0h-613.8v266.112z" style="fill:none"/><g id="matplotlib.axis_1"><g id="xtick_1"><g id="line2d_1"><defs><path id="m4a13ca1683" d="M0 0v3.5" style="stroke:gray;stroke-width:.8"/></defs><use xlink:href="#m4a13ca1683" x="99.207" y="266.112" style="fill:gray;stroke:gray;stroke-width:.8"/></g><g id="text_1" style="fill:gray" transform="matrix(.1 0 0 -.1 96.026 280.71)"><defs><path id="DejaVuSans-30" d="M2034 4250q-487 0-733-480-245-479-245-1442 0-959 245-1439 246-480 733-480 491 0 736 480 246 480 246 1439 0 963-246 1442-245 480-736 480zm0 500q785 0 1199-621 414-620 414-1801 0-1178-414-1799Q2819-91 2034-91q-784 0-1198 620-414 621-414 1799 0 1181 414 1801 414 621 1198 621z" transform="scale(.01563)"/></defs><use xlink:href="#DejaVuSans-30"/></g></g><g id="xtick_2"><use xlink:href="#m4a13ca1683" id="line2d_2" x="168.958" y="266.112" style="fill:gray;stroke:gray;stroke-width:.8"/><g id="text_2" style="fill:gray" transform="matrix(.1 0 0 -.1 159.414 280.71)"><defs><path id="DejaVuSans-35" d="M691 4666h2478v-532H1269V2991q137 47 274 70 138 23 276 23 781 0 1237-428 457-428 457-1159 0-753-469-1171Q2575-91 1722-91q-294 0-599 50Q819 9 494 109v635q281-153 581-228t634-75q541 0 856 284 316 284 316 772 0 487-316 771-315 285-856 285-253 0-505-56-251-56-513-175v2344z" transform="scale(.01563)"/></defs><use xlink:href="#DejaVuSans-35"/><use xlink:href="#DejaVuSans-30" x="63.623"/><use xlink:href="#DejaVuSans-30" x="127.246"/></g></g><g id="xtick_3"><use xlink:href="#m4a13ca1683" id="line2d_3" x="238.708" y="266.112" style="fill:gray;stroke:gray;stroke-width:.8"/><g id="text_3" style="fill:gray" transform="matrix(.1 0 0 -.1 225.982 280.71)"><defs><path id="DejaVuSans-31" d="M794 531h1031v3560L703 3866v575l1116 225h631V531h1031V0H794v531z" transform="scale(.01563)"/></defs><use xlink:href="#DejaVuSans-31"/><use xlink:href="#DejaVuSans-30" x="63.623"/><use xlink:href="#DejaVuSans-30" x="127.246"/><use xlink:href="#DejaVuSans-30" x="190.869"/></g></g><g id="xtick_4"><use xlink:href="#m4a13ca1683" id="line2d_4" x="308.457" y="266.112" style="fill:gray;stroke:gray;stroke-width:.8"/><g id="text_4" style="fill:gray" transform="matrix(.1 0 0 -.1 295.733 280.71)"><use xlink:href="#DejaVuSans-31"/><use xlink:href="#DejaVuSans-35" x="63.623"/><use xlink:href="#DejaVuSans-30" x="127.246"/><use xlink:href="#DejaVuSans-30" x="190.869"/></g></g><g id="xtick_5"><use xlink:href="#m4a13ca1683" id="line2d_5" x="378.207" y="266.112" style="fill:gray;stroke:gray;stroke-width:.8"/><g id="text_5" style="fill:gray" transform="matrix(.1 0 0 -.1 365.483 280.71)"><defs><path id="DejaVuSans-32" d="M1228 531h2203V0H469v531q359 372 979 998 621 627 780 809 303 340 423 576 121 236 121 464 0 372-261 606-261 235-680 235-297 0-627-103-329-103-704-313v638q381 153 712 231 332 78 607 78 725 0 1156-363 431-362 431-968 0-288-108-546-107-257-392-607-78-91-497-524-418-433-1181-1211z" transform="scale(.01563)"/></defs><use xlink:href="#DejaVuSans-32"/><use xlink:href="#DejaVuSans-30" x="63.623"/><use xlink:href="#DejaVuSans-30" x="127.246"/><use xlink:href="#DejaVuSans-30" x="190.869"/></g></g><g id="xtick_6"><use xlink:href="#m4a13ca1683" id="line2d_6" x="447.957" y="266.112" style="fill:gray;stroke:gray;stroke-width:.8"/><g id="text_6" style="fill:gray" transform="matrix(.1 0 0 -.1 435.233 280.71)"><use xlink:href="#DejaVuSans-32"/><use xlink:href="#DejaVuSans-35" x="63.623"/><use xlink:href="#DejaVuSans-30" x="127.246"/><use xlink:href="#DejaVuSans-30" x="190.869"/></g></g><g id="xtick_7"><use xlink:href="#m4a13ca1683" id="line2d_7" x="517.707" y="266.112" style="fill:gray;stroke:gray;stroke-width:.8"/><g id="text_7" style="fill:gray" transform="matrix(.1 0 0 -.1 504.983 280.71)"><defs><path id="DejaVuSans-33" d="M2597 2516q453-97 707-404 255-306 255-756 0-690-475-1069Q2609-91 1734-91q-293 0-604 58T488 141v609q262-153 574-231 313-78 654-78 593 0 904 234t311 681q0 413-289 645-289 233-804 233h-544v519h569q465 0 712 186t247 536q0 359-255 551-254 193-729 193-260 0-557-57-297-56-653-174v562q360 100 674 150t592 50q719 0 1137-327 419-326 419-882 0-388-222-655t-631-370z" transform="scale(.01563)"/></defs><use xlink:href="#DejaVuSans-33"/><use xlink:href="#DejaVuSans-30" x="63.623"/><use xlink:href="#DejaVuSans-30" x="127.246"/><use xlink:href="#DejaVuSans-30" x="190.869"/></g></g><g id="xtick_8"><use xlink:href="#m4a13ca1683" id="line2d_8" x="587.457" y="266.112" style="fill:gray;stroke:gray;stroke-width:.8"/><g id="text_8" style="fill:gray" transform="matrix(.1 0 0 -.1 574.732 280.71)"><use xlink:href="#DejaVuSans-33"/><use xlink:href="#DejaVuSans-35" x="63.623"/><use xlink:href="#DejaVuSans-30" x="127.246"/><use xlink:href="#DejaVuSans-30" x="190.869"/></g></g><g id="xtick_9"><use xlink:href="#m4a13ca1683" id="line2d_9" x="657.207" y="266.112" style="fill:gray;stroke:gray;stroke-width:.8"/><g id="text_9" style="fill:gray" transform="matrix(.1 0 0 -.1 644.482 280.71)"><defs><path id="DejaVuSans-34" d="M2419 4116 825 1625h1594v2491zm-166 550h794V1625h666v-525h-666V0h-628v1100H313v609l1940 2957z" transform="scale(.01563)"/></defs><use xlink:href="#DejaVuSans-34"/><use xlink:href="#DejaVuSans-30" x="63.623"/><use xlink:href="#DejaVuSans-30" x="127.246"/><use xlink:href="#DejaVuSans-30" x="190.869"/></g></g></g><g id="matplotlib.axis_2"><g id="ytick_1"><g id="line2d_10"><defs><path id="me740705c6f" d="M0 0h-3.5" style="stroke:gray;stroke-width:.8"/></defs><use xlink:href="#me740705c6f" x="71.308" y="241.021" style="fill:gray;stroke:gray;stroke-width:.8"/></g><g id="text_10" style="fill:gray" transform="matrix(.16 0 0 -.16 0 247.1)"><defs><path id="DejaVuSans-2212" d="M678 2272h4006v-531H678v531z" transform="scale(.01563)"/></defs><use xlink:href="#DejaVuSans-2212"/><use xlink:href="#DejaVuSans-32" x="83.789"/><use xlink:href="#DejaVuSans-30" x="147.412"/><use xlink:href="#DejaVuSans-30" x="211.035"/><use xlink:href="#DejaVuSans-30" x="274.658"/><use xlink:href="#DejaVuSans-30" x="338.281"/></g></g><g id="ytick_2"><use xlink:href="#me740705c6f" id="line2d_11" x="71.308" y="195.849" style="fill:gray;stroke:gray;stroke-width:.8"/><g id="text_11" style="fill:gray" transform="matrix(.16 0 0 -.16 0 201.928)"><use xlink:href="#DejaVuSans-2212"/><use xlink:href="#DejaVuSans-31" x="83.789"/><use xlink:href="#DejaVuSans-30" x="147.412"/><use xlink:href="#DejaVuSans-30" x="211.035"/><use xlink:href="#DejaVuSans-30" x="274.658"/><use xlink:href="#DejaVuSans-30" x="338.281"/></g></g><g id="ytick_3"><use xlink:href="#me740705c6f" id="line2d_12" x="71.308" y="150.677" style="fill:gray;stroke:gray;stroke-width:.8"/><use xlink:href="#DejaVuSans-30" id="text_12" style="fill:gray" transform="matrix(.16 0 0 -.16 54.127 156.755)"/></g><g id="ytick_4"><use xlink:href="#me740705c6f" id="line2d_13" x="71.308" y="105.504" style="fill:gray;stroke:gray;stroke-width:.8"/><g id="text_13" style="fill:gray" transform="matrix(.16 0 0 -.16 13.408 111.583)"><use xlink:href="#DejaVuSans-31"/><use xlink:href="#DejaVuSans-30" x="63.623"/><use xlink:href="#DejaVuSans-30" x="127.246"/><use xlink:href="#DejaVuSans-30" x="190.869"/><use xlink:href="#DejaVuSans-30" x="254.492"/></g></g><g id="ytick_5"><use xlink:href="#me740705c6f" id="line2d_14" x="71.308" y="60.332" style="fill:gray;stroke:gray;stroke-width:.8"/><g id="text_14" style="fill:gray" transform="matrix(.16 0 0 -.16 13.408 66.41)"><use xlink:href="#DejaVuSans-32"/><use xlink:href="#DejaVuSans-30" x="63.623"/><use xlink:href="#DejaVuSans-30" x="127.246"/><use xlink:href="#DejaVuSans-30" x="190.869"/><use xlink:href="#DejaVuSans-30" x="254.492"/></g></g><g id="ytick_6"><use xlink:href="#me740705c6f" id="line2d_15" x="71.308" y="15.159" style="fill:gray;stroke:gray;stroke-width:.8"/><g id="text_15" style="fill:gray" transform="matrix(.16 0 0 -.16 13.408 21.238)"><use xlink:href="#DejaVuSans-33"/><use xlink:href="#DejaVuSans-30" x="63.623"/><use xlink:href="#DejaVuSans-30" x="127.246"/><use xlink:href="#DejaVuSans-30" x="190.869"/><use xlink:href="#DejaVuSans-30" x="254.492"/></g></g></g><path id="line2d_16" d="m99.207 151.105.282-.839.282.804.282-.772.282.743.282-.717.282.693.282-.67.282.65.282-.632.282.615.282-.6.282.586.282-.572.282.56.282-.549.282.538.282-.528.282.52.282-.512.282.504.282-.498.282.492.282-.487.282.483.282-.48.281.477.282-.474.282.473.282-.473.282.473.282-.474.282.476.282-.48.282.485.282-.49.282.498.282-.508.282.52.282-.534.282.55.282-.571.282.598.282-.632.282.674.282-.728.282.801.282-.902.282 1.05.282-1.286.282 1.717.281-2.756.564 20.796.282-1.98.282 2.322.282-.237.282.29.282-1.02.564 1.26.282 1.224.282.103.282.478.564 2.12.282-4.433.282-12.484.564-34.074.282-10.02.282-3.993.282-.122.846 8.282.282-1.223.281-2.372.282-1.27.564-.5.282.423.564 4.791.282 2.377.282 3.411.282 7.482.564 21.897.282 5.733.282 1.325.282-.402.282-.843.564-3.233.282-.407.564 1.461.282 1.6.564 5.011.282.675.563-.32.282.042.564-.895.282.106.564.94.564 1.96.282.125.282-.082.282 1.255.282 1.919.282 1.107.282.161.282.873.564 4.485.564 4.09.282.492.282-1.086.282-3.787.282-8.46 1.127-56.543.282-2.174.282 3.138.564 7.553.282-.126.564-3.611.846-7.892.282-.713.282.55.282 2.556.564 13.293 1.128 33.408.282 1.898.282-.05.563.903.564-2.055.282.492.282.921.282-.83.282-2.498.282-1.32.282.874.282 1.303.564-.086.282 1.973.564 6.838.282 1.738 1.974 7.155.282 1.472.563 5.591.282-.03.282-2.017.282-.732.282 1.606.282.937.282-1.176.282-1.85.282-3.121.282-9.493.846-47.327.282-3.553.282-.082.282.845.564 4.803.282.157.846-8.939.282-.79.282.433.282 2.043.563 6.901.282 4.459.282 7.748.564 22.634.282 6.263.282 1.465.282-.152.282-.843.282-3.375.282-4.838.282-2.621.846 1.484.282 1.77.564 6.55.564 1.447.564 2.83.282.968.564 4.102.281.676.282-.278.282.644.282 1.528.282.22.564-2.516.282.836.282 1.303.564.49.282 2.725.282 4.08.282 2.319.282-.258.282-1.412.282-4.19.282-10.803.846-49.13.282-6.224.282-.097.845 10.989.282-1.055.564-4.967.564-6.71.282-.373.282 3.42.846 15.858 1.128 34.918.282 1.018 1.41-4.703.282-.364.282.669.846 3.555.281.293.282 1.15.564 4.25.282.27.282-.026.846 2.35.282 1.327.282 1.884.282 1.117.282.167.282-.424.282-1.357.282-2.341.282-1.373.282 1.141.564 5.071.564 2.697.564 1.612.282-1.286.281-7.038 1.128-55.949.564-7.018.282.047.564 7.43.282.827.282-1.524.846-8.38h.282l.282 2.804.564 10.188.564 17.66.564 21.128.282 5.153.282.209.845-6.172.282-.722.282.388.282.147.282-.675.282.217.564 3.734.564-1.052.282 1.907.282 2.705.282 1.387.846 1.833.282-.259.282.81.282 1.522.564 1.258.846 6.608.281.598.564 4.633.846 5.99.282.195.282-1.01.282-1.91.282-6.488.282-15.048.564-40.326.282-12.78.282-6.544.282-1.737.282 2.35.564 8.152.282 1.243.282-.734.564-3.531.564-3.757.281.034.282 2.82.282 5.226.282 7.405 1.128 41.835.282 2.23.282.722.282-.247.282-2.042.564-5.015.282-.429.282.722.564 2.523.564 1.26.564 3.87.282.525.282-.822.282-.364 1.127 3.711.282 1.908.564 4.757.564 1.67.564 3.204.282.653.282-.068.282.808.282 1.875.282 1.104.282-.373.282-.72.282-1.948.282-7.608.564-35.91.564-31.806.282-7.38.282-1.212 1.127 13.467.282.395.282-1.61.564-5.123.282-1.002.282.84.282 3.48.282 6.536.564 20.385.564 20.276.282 5.31.282 2.032.282-.204.282-1.926.564-5.12.282-1.08.282-.22.282.676.281 2.445.564 8.358.282 2.083.564.84.282 1.19.282.304.564-2.892.282.462.282 1.41.282.499.282.198.564 2.985.564.583.846 6.317.282.927.846 7.807.282.648.281-2.966.282-10.223 1.128-71.415.282-7.892.282-2.729.282.594.282.991.282.054.282.187.282.999.282.363.282-1.181.282-.664.282 2.116.564 8.594.282 7.343 1.128 46.218.282 4.212.281 2.37.282-.277.282-1.71.282-.717.282.362.282-.145.282-.618.282.275.846 3.792.564 3.827.282-.077.282-.51.564 2.833.282-1.166.282-2.803.282-.424.564 3.82.282 1.14.845 7.62.282.784.846 8.518.282 1.278.846 9.504.282-2.003.282-7.014.282-14.938.846-65.802.564-20.057.282-4.891.282-2.66.282-.91.282.266.282.573.282-.372.564-2.988.282.445.563 3.348.282 3.928.282 9.679 1.41 76.794.282 2.517.282-1.11 1.128-11.39.282-1.166.282-.07.282.997.846 5.648.564 2.184.564 3.03.281.69.282 1.049.564 4.195.282 1.07.282.423.282.794 1.41 6.254.282 2.623.564 7.076.564 3.426.282 1.097.282-2.635.282-10.386.564-41.188.564-40.684.563-21.518.282-4.695.282-1.497.282.174.282-.769.564-5.156.282-1.256.282-.343.282.732.282 2.77.282 4.578.282 6.81.282 12.05.846 54.752.282 10.092.282 5.463.282.95.846-6.427.282-1.848.282-.897.282 2.7.281 4.845.282 2.904.282.737.564 2.805.282-.067.282-1.065.282.017.282.863.564.552.282 1.237 1.692 11.336.282 1.452.564.422.282 1.93.564 5.987.563 2.345.282-.32.282-7.69.564-44.78.564-42.781.564-23.856.282-5.92 1.41-13.601.282-1.984.282-.507.282 1.593.282 2.991.282 4.61.282 8.535.282 14.98.846 63.737.282 10.934.281 4.203.282 1.682.282.971.282-.347.564-2.932.282-.565.564-.106.564-1.25.282.488.564 3.356.282.71.282 1.393.564 5.187 1.128 5.543.282 1.016 1.127 6.811 1.128 15.5.564 8.326.282.71.282-3.697.282-11.27.564-46.101.564-45.605.564-29.41.564-16.535.282-4.195.846-4.818.564-5.889.281-.985.282 1.061.282 3.333.282 5.307.282 8.926.282 17.105.846 76.643.282 11.9.282 4.752.282.79.846-2.585.846-6.486.282.356.564 1.588.846 6.19.564 1.18.845 4.518.282 1.02.282 1.643 1.128 8.986.564 3.988 1.128 12.179.564 6.707.282.628.282-2.813.282-9.74.564-45.448.564-46.692.563-34.052.282-11.947.282-6.31 1.128-9.086.564-1.129.282-1.781.282-.363.282 3.393.282 6.204.282 8.972.282 16.353.846 76.16.282 11.57.282 5.525.282 2.239.282-.641.564-4.089.282-1.223.281-.302.282 1.08.282 1.616.846 3.229.282 2.014.282.937.282-.636.282-1.097.282-.263 1.128 4.242.564 3.582.564.079.282 2.494.564 6.406.282 1.168.282 2.093 1.127 12.708.282-1.672.282-10.225.564-42.084.846-69.978.564-21.63.282-7.74.282-4.637.282.397.282 1.86.282-.692.282-2.194.282-1.037.282-.355.282-.008.282 2.567.282 6.925.282 11.575.282 18.259.845 70.759.282 8.505.282 4.06.282 2.197.282-1.488.564-6.911.564-1.733.282-1.058.282.706.282 1.783.846 2.733.282 1.118.282.517.282 2.059.564 7.671.564 3.347.564 4.237.282 1.552.845 9.232.282.847.282 2.804.282 4.209.282 2.505.282.64.282 1.809.282 3.605.282 2.133.282-3.2.282-10.064.564-39.776.564-48.187.564-30.841.564-17.578.564-5.324.845-19.846.564-6.745.282-3.284.282.078.282 3.006.282 6.487.282 14.898.846 74.297.564 25.563.282 6.33.282 1.732.282-.328.564.527.282-1.467.282-2.558.282-1.163.282 1.547.564 4.96.282 1.322.281 2.163 1.128 13.985.564 4.016 1.128 10.38.846 12.877.564 1.68.564 5.079.564 3.148.564 7.535.282-4.428.282-15.273L372.145 86.8l1.692-40.939.564-15.908.282-4.687.282-.924.282 2.575.282 5.262.282 10.546.282 20.498.846 83.115.564 23.06.282 6.393.282 3.601.563 3.294.282-.458.282-1.714.282-.262.282 1.688.282.762.282-.85.282-.074.564 2.853.282.736.564 1.928.282-.282.282.138.564 4.48 1.128 8.264.282.996.282 2.86 1.127 15.749.564 5.517.282 2.219.282.051.282-8.323.564-43.547.846-65.345.282-15.497.564-14.647.564-16.183 1.128-31.988.282-2.818.282-.056.282 2.913.282 7.027.281 11.883.564 41.916.564 52.694.282 14.28.564 10.757.282 3 .282-.025.282-1.978.282-1.095.564.8.282.085.282.373.564 1.82 1.128 5.54.564 6.414.563 2.784 1.128 10.45 1.692 28.57 1.128 13.666.282-2 .282-9.695.282-19.35 1.128-103.069.564-27.514 1.127-49.742.846-15.933.282-1.357.282 3.336.564 16.42.282 13.076.282 20.29.846 85.26.282 15.49.282 8.22.282 3.47.282-.815.564-6.618.282-1.371.282-.647.282.475.282 3.124.563 7.613.564 3.845.564 4.295.282 1.215.564 5.297.564 4.682 1.128 8.789.846 10.843.282 1.854.282 3.06.846 12.65.564 5.824.282-1.2.281-9.317.282-18.535 1.41-125.07.846-46.018.564-15.301.564-7.831.282-1.911.282-.8.282 1.472.282 5.133.564 19.4.282 15.548.564 49.553.564 51.202.282 14.205.281 6.5.282 2.687.282 1.308.282.207.282-.68.282-.058.564 1.747.282.433.282 1.309.282 1.96.282 1.048.282.312.282 1.71.282 2.497.282.59.282-1.149.282.265.564 2.92.282.953.564 5.916.282 1.34.282 1.919.845 14.377.282 3.462.846 16.01.282 3.764.282.462.282-9.205.564-50.477.846-83.825.846-52.094.282-10.973.564-10.565.282-3.86.282-2.208.282.665.563 5.41.282 4.118.282 8.118.564 30.43.564 42.996.564 48.219.282 14.13.282 5.4.282 1.165.564 1.088.282-.738.564-2.781.282-.24.564-1.222.282 1.14.282 2.744.282 1.438.282.082.282 1.85.282 4.03.281 2.18.282-.799.282-.102 1.692 18.734.846 11.949 1.128 19.757.282 2.745.282-1.231.282-11.068.564-51.822.846-85.991.563-36.264.564-21.51.282-6.64.282-3.881.282-2.245.282-.68.282.973.564 5.495.282 4.791.282 7.437.282 11.481.564 36.715.846 61.644.564 23.844.282 3.373.282.044.564-1.41.282-.306.281.403.282.642.282-.003.282.717.282 3.292.564 8.56.564 3.543.564 4.489.564 3.598.564 5.749.564 7.127.846 6.602.846 11.175.846 12.958.281 2.067.282-4.367.282-15.425.564-56.725.846-89.736.564-29.648.564-18.974.282-5.433.282-3.005.282-1.24.282 1.06.846 8.642.282 3.708.282 5.74.282 9.479.564 31.7 1.41 91.126.281 7.995.282 3.55.282 1.534.282.454.282.064.282-.302.564-1.397.282.647.564 2.165.282.659.564 2.567.282.498.282 1.219.282 2.577.282 1.514.282-.414.282.13 1.127 9.073.846 15.497 1.41 24.573.282 1.22.282-4.994.282-14.686.564-58.77.564-66.336.564-38.816.564-22.031.564-11.609.282-4.131.282-2.476.281.352.846 7.793.282 4.835.564 19.61.846 46.522.846 52.062.564 22.457.282 5.513.282 1.654.282-.033.282.349.282 1.107.282.25.282-1.464.282-2.075.282-.376.563 3.684.564 4.15.564 4.723.564 4.05.846 7.506.564 7.041.282 2.551.282 4.36.564 10.688.564 3.186.846 12.725.282-4.71.282-12.81.564-49.652.845-95.604.564-29.918.564-16.773.282-5.09.282-2.246.282.527.846 5.898.564 7.887.282 4.604.282 6.485.564 27.887.846 48.216.564 25.376.564 15.943.281 4.238.564 3.503.282 1.58.282.703.564-.448.564.888.282 1.078.564 3.928 1.41 10.894.846 12.673.282 2.616.846 10.381.282 3.3.563 8.943.564 5.341.282 3.501.282-2.418.282-13.85.564-58.865.564-71.097.282-23.637.564-22.615.564-15.727.282-3.648.282-1.495.282-.58.282-.096.282.675.282 1.77.564 8.084.282 4.972.282 7.204.563 27.608 1.128 56.222 1.128 39.188.282 7.188.282 3.758.564 3.55.282 1.22.282.498.282-.411.564-1.922.282-.195.282-.465.282-.915.282.36 1.127 8.522 1.974 31.711 1.41 20.926.282-1.813.282-9.999.282-21.301 1.128-133.987.564-28.29.564-16.123.282-3.987.281-2.068.282.328.564 2.859.282-.182.282.961.282 3.5.564 10.755.282 8.668 1.692 79.002 1.41 41.476.282 5.074 1.127 9.41.282.347.564-1.098.282-.01.282-1.046.282-1.74.282-.21.564 5.84.564 6.45 2.538 36.382.564 4.599.282.936.282-4.083.281-13.792.564-61.477.564-68.262.564-32.673.564-23.414.282-7.31.282-3.556.282-.975.282 1.149 1.41 15.706.282 4.794.282 7.492.564 25.063.846 36.203.563 17.257.564 12.634 1.41 38.557.564 8.93.282 2.275.282-.05.282-1.28.282.208.282.66.282-1.39.282-2.875.282-.86.282 1.574 1.128 10.367.564 8.473.563 8.143.282 2.966.846 13.91.564 5.279.282-2.61.282-15.205.564-65.444.564-62.413.564-34.142.564-19.947.282-4.828.282-2.533.282-.852.282.968.564 4.608.282 1.428.281 2.593.564 11.954.564 16.458 1.128 40.416.846 23.625 2.82 57.281.564 5.49.564.345 1.127 4.583.846 4.963.282 1.136.282 2.681 1.974 34.78.282 1.925.282-6.261.282-19.823 1.128-132.502.564-30.333.563-18.434.282-2.684.282 1.416.282 2.198.564 1.372.282 1.93.846 9.23.564 13.08.564 19.159.564 18.481.564 9.628.564 12.393.564 7.967.564 13.885.845 14.161 1.128 25.082.846 14.81.282 2.69.282.92.282-.49.282-.214.282.57.564 2.51.282 2.161.282 4.498.564 12.256 1.41 18.55.281 2.34.282-1.948.282-13.053.564-65.377.564-68.304.564-32.912.564-19.081.282-4.884.282-1.143.282 1.825 1.128 9.3.564 3.357.282 3.8.564 16.281 1.41 41.994.563 6.916.282 3.667.564 9.054.564 3.529.564 9.3.846 17.718 1.41 33.931.282 4.448.282 1.303.282-.27.282.358.282 1.9.845 3.479.564 6.672.846 6.897.846 13.264.282-.872.282-7.956.282-18.293 1.128-125.084.846-33.603.282-5.521.282-2.962.282-1.32.282.612 1.691 19.336.564 14.651.846 30.304.564 12.387.564 7.841.282 1.95.282.483.282-.075.564 1.85.282 1.756.282 3.206.564 8.216.282 3.179.282 4.938 1.127 29.691.846 20.881.846 9.244.564 5.538.564 3.879.846 11.072.282 2.318.564 7.78.282.217.282-7.652.282-18.962 1.127-128.137.564-24.784.282-9.787.282-5.116.282-3 .282-.936.282.572.846 9.317.282 1.999.564 6.175.564 11.513 1.128 35.813.282 6.418.564 6.697.282.858.282 1.265.281.715.282 2.495.564.227.282-.124 1.41 23.39 1.41 30.391.282 9.359.846 14.06.282 8.07.282 2.58.282 5.836.282-1.593.282 6.727.282-4.022.281 12.885h0" clip-path="url(#pdc88b81148)" style="fill:none;stroke:#1f77b4;stroke-width:1.5;stroke-linecap:square"/><path id="patch_3" d="M71.308 266.112V0" style="fill:none;stroke:gray;stroke-width:.8;stroke-linejoin:miter;stroke-linecap:square"/><path id="patch_4" d="M685.107 266.112V0" style="fill:none;stroke:#000;stroke-width:.8;stroke-linejoin:miter;stroke-linecap:square"/><path id="patch_5" d="M71.308 266.112h613.8" style="fill:none;stroke:gray;stroke-width:.8;stroke-linejoin:miter;stroke-linecap:square"/><path id="patch_6" d="M71.308 0h613.8" style="fill:none;stroke:#000;stroke-width:.8;stroke-linejoin:miter;stroke-linecap:square"/></g></g><defs><clipPath id="pdc88b81148"><path d="M71.308 0h613.8v266.112h-613.8z"/></clipPath></defs></svg>