<?xml version="1.0" encoding="utf-8" standalone="no"?>
<!DOCTYPE svg PUBLIC "-//W3C//DTD SVG 1.1//EN"
  "http://www.w3.org/Graphics/SVG/1.1/DTD/svg11.dtd">
<svg xmlns:xlink="http://www.w3.org/1999/xlink" width="660.992188pt" height="282.790125pt" viewBox="0 0 660.992188 282.790125" xmlns="http://www.w3.org/2000/svg" version="1.1">
 <metadata>
  <rdf:RDF xmlns:dc="http://purl.org/dc/elements/1.1/" xmlns:cc="http://creativecommons.org/ns#" xmlns:rdf="http://www.w3.org/1999/02/22-rdf-syntax-ns#">
   <cc:Work>
    <dc:type rdf:resource="http://purl.org/dc/dcmitype/StillImage"/>
    <dc:date>2023-03-06T19:25:43.336113</dc:date>
    <dc:format>image/svg+xml</dc:format>
    <dc:creator>
     <cc:Agent>
      <dc:title>Matplotlib v3.6.3, https://matplotlib.org/</dc:title>
     </cc:Agent>
    </dc:creator>
   </cc:Work>
  </rdf:RDF>
 </metadata>
 <defs>
  <style type="text/css">*{stroke-linejoin: round; stroke-linecap: butt}</style>
 </defs>
 <g id="figure_1">
  <g id="patch_1">
   <path d="M -0 282.790125 
L 660.992188 282.790125 
L 660.992188 0 
L -0 0 
L -0 282.790125 
z
" style="fill: none"/>
  </g>
  <g id="axes_1">
   <g id="patch_2">
    <path d="M 47.192188 266.112 
L 660.992188 266.112 
L 660.992188 0 
L 47.192188 0 
L 47.192188 266.112 
z
" style="fill: none"/>
   </g>
   <g id="matplotlib.axis_1">
    <g id="xtick_1">
     <g id="line2d_1">
      <defs>
       <path id="m9f583a3034" d="M 0 0 
L 0 3.5 
" style="stroke: #000000; stroke-width: 0.8"/>
      </defs>
      <g>
       <use xlink:href="#m9f583a3034" x="75.092188" y="266.112" style="stroke: #000000; stroke-width: 0.8"/>
      </g>
     </g>
     <g id="text_1">
      <!-- 0 -->
      <g transform="translate(71.910938 280.710438) scale(0.1 -0.1)">
       <defs>
        <path id="DejaVuSans-30" d="M 2034 4250 
Q 1547 4250 1301 3770 
Q 1056 3291 1056 2328 
Q 1056 1369 1301 889 
Q 1547 409 2034 409 
Q 2525 409 2770 889 
Q 3016 1369 3016 2328 
Q 3016 3291 2770 3770 
Q 2525 4250 2034 4250 
z
M 2034 4750 
Q 2819 4750 3233 4129 
Q 3647 3509 3647 2328 
Q 3647 1150 3233 529 
Q 2819 -91 2034 -91 
Q 1250 -91 836 529 
Q 422 1150 422 2328 
Q 422 3509 836 4129 
Q 1250 4750 2034 4750 
z
" transform="scale(0.015625)"/>
       </defs>
       <use xlink:href="#DejaVuSans-30"/>
      </g>
     </g>
    </g>
    <g id="xtick_2">
     <g id="line2d_2">
      <g>
       <use xlink:href="#m9f583a3034" x="144.842188" y="266.112" style="stroke: #000000; stroke-width: 0.8"/>
      </g>
     </g>
     <g id="text_2">
      <!-- 500 -->
      <g transform="translate(135.298438 280.710438) scale(0.1 -0.1)">
       <defs>
        <path id="DejaVuSans-35" d="M 691 4666 
L 3169 4666 
L 3169 4134 
L 1269 4134 
L 1269 2991 
Q 1406 3038 1543 3061 
Q 1681 3084 1819 3084 
Q 2600 3084 3056 2656 
Q 3513 2228 3513 1497 
Q 3513 744 3044 326 
Q 2575 -91 1722 -91 
Q 1428 -91 1123 -41 
Q 819 9 494 109 
L 494 744 
Q 775 591 1075 516 
Q 1375 441 1709 441 
Q 2250 441 2565 725 
Q 2881 1009 2881 1497 
Q 2881 1984 2565 2268 
Q 2250 2553 1709 2553 
Q 1456 2553 1204 2497 
Q 953 2441 691 2322 
L 691 4666 
z
" transform="scale(0.015625)"/>
       </defs>
       <use xlink:href="#DejaVuSans-35"/>
       <use xlink:href="#DejaVuSans-30" x="63.623047"/>
       <use xlink:href="#DejaVuSans-30" x="127.246094"/>
      </g>
     </g>
    </g>
    <g id="xtick_3">
     <g id="line2d_3">
      <g>
       <use xlink:href="#m9f583a3034" x="214.592188" y="266.112" style="stroke: #000000; stroke-width: 0.8"/>
      </g>
     </g>
     <g id="text_3">
      <!-- 1000 -->
      <g transform="translate(201.867188 280.710438) scale(0.1 -0.1)">
       <defs>
        <path id="DejaVuSans-31" d="M 794 531 
L 1825 531 
L 1825 4091 
L 703 3866 
L 703 4441 
L 1819 4666 
L 2450 4666 
L 2450 531 
L 3481 531 
L 3481 0 
L 794 0 
L 794 531 
z
" transform="scale(0.015625)"/>
       </defs>
       <use xlink:href="#DejaVuSans-31"/>
       <use xlink:href="#DejaVuSans-30" x="63.623047"/>
       <use xlink:href="#DejaVuSans-30" x="127.246094"/>
       <use xlink:href="#DejaVuSans-30" x="190.869141"/>
      </g>
     </g>
    </g>
    <g id="xtick_4">
     <g id="line2d_4">
      <g>
       <use xlink:href="#m9f583a3034" x="284.342188" y="266.112" style="stroke: #000000; stroke-width: 0.8"/>
      </g>
     </g>
     <g id="text_4">
      <!-- 1500 -->
      <g transform="translate(271.617188 280.710438) scale(0.1 -0.1)">
       <use xlink:href="#DejaVuSans-31"/>
       <use xlink:href="#DejaVuSans-35" x="63.623047"/>
       <use xlink:href="#DejaVuSans-30" x="127.246094"/>
       <use xlink:href="#DejaVuSans-30" x="190.869141"/>
      </g>
     </g>
    </g>
    <g id="xtick_5">
     <g id="line2d_5">
      <g>
       <use xlink:href="#m9f583a3034" x="354.092188" y="266.112" style="stroke: #000000; stroke-width: 0.8"/>
      </g>
     </g>
     <g id="text_5">
      <!-- 2000 -->
      <g transform="translate(341.367188 280.710438) scale(0.1 -0.1)">
       <defs>
        <path id="DejaVuSans-32" d="M 1228 531 
L 3431 531 
L 3431 0 
L 469 0 
L 469 531 
Q 828 903 1448 1529 
Q 2069 2156 2228 2338 
Q 2531 2678 2651 2914 
Q 2772 3150 2772 3378 
Q 2772 3750 2511 3984 
Q 2250 4219 1831 4219 
Q 1534 4219 1204 4116 
Q 875 4013 500 3803 
L 500 4441 
Q 881 4594 1212 4672 
Q 1544 4750 1819 4750 
Q 2544 4750 2975 4387 
Q 3406 4025 3406 3419 
Q 3406 3131 3298 2873 
Q 3191 2616 2906 2266 
Q 2828 2175 2409 1742 
Q 1991 1309 1228 531 
z
" transform="scale(0.015625)"/>
       </defs>
       <use xlink:href="#DejaVuSans-32"/>
       <use xlink:href="#DejaVuSans-30" x="63.623047"/>
       <use xlink:href="#DejaVuSans-30" x="127.246094"/>
       <use xlink:href="#DejaVuSans-30" x="190.869141"/>
      </g>
     </g>
    </g>
    <g id="xtick_6">
     <g id="line2d_6">
      <g>
       <use xlink:href="#m9f583a3034" x="423.842188" y="266.112" style="stroke: #000000; stroke-width: 0.8"/>
      </g>
     </g>
     <g id="text_6">
      <!-- 2500 -->
      <g transform="translate(411.117188 280.710438) scale(0.1 -0.1)">
       <use xlink:href="#DejaVuSans-32"/>
       <use xlink:href="#DejaVuSans-35" x="63.623047"/>
       <use xlink:href="#DejaVuSans-30" x="127.246094"/>
       <use xlink:href="#DejaVuSans-30" x="190.869141"/>
      </g>
     </g>
    </g>
    <g id="xtick_7">
     <g id="line2d_7">
      <g>
       <use xlink:href="#m9f583a3034" x="493.592188" y="266.112" style="stroke: #000000; stroke-width: 0.8"/>
      </g>
     </g>
     <g id="text_7">
      <!-- 3000 -->
      <g transform="translate(480.867188 280.710438) scale(0.1 -0.1)">
       <defs>
        <path id="DejaVuSans-33" d="M 2597 2516 
Q 3050 2419 3304 2112 
Q 3559 1806 3559 1356 
Q 3559 666 3084 287 
Q 2609 -91 1734 -91 
Q 1441 -91 1130 -33 
Q 819 25 488 141 
L 488 750 
Q 750 597 1062 519 
Q 1375 441 1716 441 
Q 2309 441 2620 675 
Q 2931 909 2931 1356 
Q 2931 1769 2642 2001 
Q 2353 2234 1838 2234 
L 1294 2234 
L 1294 2753 
L 1863 2753 
Q 2328 2753 2575 2939 
Q 2822 3125 2822 3475 
Q 2822 3834 2567 4026 
Q 2313 4219 1838 4219 
Q 1578 4219 1281 4162 
Q 984 4106 628 3988 
L 628 4550 
Q 988 4650 1302 4700 
Q 1616 4750 1894 4750 
Q 2613 4750 3031 4423 
Q 3450 4097 3450 3541 
Q 3450 3153 3228 2886 
Q 3006 2619 2597 2516 
z
" transform="scale(0.015625)"/>
       </defs>
       <use xlink:href="#DejaVuSans-33"/>
       <use xlink:href="#DejaVuSans-30" x="63.623047"/>
       <use xlink:href="#DejaVuSans-30" x="127.246094"/>
       <use xlink:href="#DejaVuSans-30" x="190.869141"/>
      </g>
     </g>
    </g>
    <g id="xtick_8">
     <g id="line2d_8">
      <g>
       <use xlink:href="#m9f583a3034" x="563.342188" y="266.112" style="stroke: #000000; stroke-width: 0.8"/>
      </g>
     </g>
     <g id="text_8">
      <!-- 3500 -->
      <g transform="translate(550.617188 280.710438) scale(0.1 -0.1)">
       <use xlink:href="#DejaVuSans-33"/>
       <use xlink:href="#DejaVuSans-35" x="63.623047"/>
       <use xlink:href="#DejaVuSans-30" x="127.246094"/>
       <use xlink:href="#DejaVuSans-30" x="190.869141"/>
      </g>
     </g>
    </g>
    <g id="xtick_9">
     <g id="line2d_9">
      <g>
       <use xlink:href="#m9f583a3034" x="633.092188" y="266.112" style="stroke: #000000; stroke-width: 0.8"/>
      </g>
     </g>
     <g id="text_9">
      <!-- 4000 -->
      <g transform="translate(620.367188 280.710438) scale(0.1 -0.1)">
       <defs>
        <path id="DejaVuSans-34" d="M 2419 4116 
L 825 1625 
L 2419 1625 
L 2419 4116 
z
M 2253 4666 
L 3047 4666 
L 3047 1625 
L 3713 1625 
L 3713 1100 
L 3047 1100 
L 3047 0 
L 2419 0 
L 2419 1100 
L 313 1100 
L 313 1709 
L 2253 4666 
z
" transform="scale(0.015625)"/>
       </defs>
       <use xlink:href="#DejaVuSans-34"/>
       <use xlink:href="#DejaVuSans-30" x="63.623047"/>
       <use xlink:href="#DejaVuSans-30" x="127.246094"/>
       <use xlink:href="#DejaVuSans-30" x="190.869141"/>
      </g>
     </g>
    </g>
   </g>
   <g id="matplotlib.axis_2">
    <g id="ytick_1">
     <g id="line2d_10">
      <defs>
       <path id="mc869e92023" d="M 0 0 
L -3.5 0 
" style="stroke: #000000; stroke-width: 0.8"/>
      </defs>
      <g>
       <use xlink:href="#mc869e92023" x="47.192188" y="251.115584" style="stroke: #000000; stroke-width: 0.8"/>
      </g>
     </g>
     <g id="text_10">
      <!-- −60000 -->
      <g transform="translate(0 254.914803) scale(0.1 -0.1)">
       <defs>
        <path id="DejaVuSans-2212" d="M 678 2272 
L 4684 2272 
L 4684 1741 
L 678 1741 
L 678 2272 
z
" transform="scale(0.015625)"/>
        <path id="DejaVuSans-36" d="M 2113 2584 
Q 1688 2584 1439 2293 
Q 1191 2003 1191 1497 
Q 1191 994 1439 701 
Q 1688 409 2113 409 
Q 2538 409 2786 701 
Q 3034 994 3034 1497 
Q 3034 2003 2786 2293 
Q 2538 2584 2113 2584 
z
M 3366 4563 
L 3366 3988 
Q 3128 4100 2886 4159 
Q 2644 4219 2406 4219 
Q 1781 4219 1451 3797 
Q 1122 3375 1075 2522 
Q 1259 2794 1537 2939 
Q 1816 3084 2150 3084 
Q 2853 3084 3261 2657 
Q 3669 2231 3669 1497 
Q 3669 778 3244 343 
Q 2819 -91 2113 -91 
Q 1303 -91 875 529 
Q 447 1150 447 2328 
Q 447 3434 972 4092 
Q 1497 4750 2381 4750 
Q 2619 4750 2861 4703 
Q 3103 4656 3366 4563 
z
" transform="scale(0.015625)"/>
       </defs>
       <use xlink:href="#DejaVuSans-2212"/>
       <use xlink:href="#DejaVuSans-36" x="83.789062"/>
       <use xlink:href="#DejaVuSans-30" x="147.412109"/>
       <use xlink:href="#DejaVuSans-30" x="211.035156"/>
       <use xlink:href="#DejaVuSans-30" x="274.658203"/>
       <use xlink:href="#DejaVuSans-30" x="338.28125"/>
      </g>
     </g>
    </g>
    <g id="ytick_2">
     <g id="line2d_11">
      <g>
       <use xlink:href="#mc869e92023" x="47.192188" y="212.451722" style="stroke: #000000; stroke-width: 0.8"/>
      </g>
     </g>
     <g id="text_11">
      <!-- −40000 -->
      <g transform="translate(0 216.250941) scale(0.1 -0.1)">
       <use xlink:href="#DejaVuSans-2212"/>
       <use xlink:href="#DejaVuSans-34" x="83.789062"/>
       <use xlink:href="#DejaVuSans-30" x="147.412109"/>
       <use xlink:href="#DejaVuSans-30" x="211.035156"/>
       <use xlink:href="#DejaVuSans-30" x="274.658203"/>
       <use xlink:href="#DejaVuSans-30" x="338.28125"/>
      </g>
     </g>
    </g>
    <g id="ytick_3">
     <g id="line2d_12">
      <g>
       <use xlink:href="#mc869e92023" x="47.192188" y="173.78786" style="stroke: #000000; stroke-width: 0.8"/>
      </g>
     </g>
     <g id="text_12">
      <!-- −20000 -->
      <g transform="translate(0 177.587079) scale(0.1 -0.1)">
       <use xlink:href="#DejaVuSans-2212"/>
       <use xlink:href="#DejaVuSans-32" x="83.789062"/>
       <use xlink:href="#DejaVuSans-30" x="147.412109"/>
       <use xlink:href="#DejaVuSans-30" x="211.035156"/>
       <use xlink:href="#DejaVuSans-30" x="274.658203"/>
       <use xlink:href="#DejaVuSans-30" x="338.28125"/>
      </g>
     </g>
    </g>
    <g id="ytick_4">
     <g id="line2d_13">
      <g>
       <use xlink:href="#mc869e92023" x="47.192188" y="135.123998" style="stroke: #000000; stroke-width: 0.8"/>
      </g>
     </g>
     <g id="text_13">
      <!-- 0 -->
      <g transform="translate(33.829688 138.923217) scale(0.1 -0.1)">
       <use xlink:href="#DejaVuSans-30"/>
      </g>
     </g>
    </g>
    <g id="ytick_5">
     <g id="line2d_14">
      <g>
       <use xlink:href="#mc869e92023" x="47.192188" y="96.460136" style="stroke: #000000; stroke-width: 0.8"/>
      </g>
     </g>
     <g id="text_14">
      <!-- 20000 -->
      <g transform="translate(8.379688 100.259355) scale(0.1 -0.1)">
       <use xlink:href="#DejaVuSans-32"/>
       <use xlink:href="#DejaVuSans-30" x="63.623047"/>
       <use xlink:href="#DejaVuSans-30" x="127.246094"/>
       <use xlink:href="#DejaVuSans-30" x="190.869141"/>
       <use xlink:href="#DejaVuSans-30" x="254.492188"/>
      </g>
     </g>
    </g>
    <g id="ytick_6">
     <g id="line2d_15">
      <g>
       <use xlink:href="#mc869e92023" x="47.192188" y="57.796274" style="stroke: #000000; stroke-width: 0.8"/>
      </g>
     </g>
     <g id="text_15">
      <!-- 40000 -->
      <g transform="translate(8.379688 61.595493) scale(0.1 -0.1)">
       <use xlink:href="#DejaVuSans-34"/>
       <use xlink:href="#DejaVuSans-30" x="63.623047"/>
       <use xlink:href="#DejaVuSans-30" x="127.246094"/>
       <use xlink:href="#DejaVuSans-30" x="190.869141"/>
       <use xlink:href="#DejaVuSans-30" x="254.492188"/>
      </g>
     </g>
    </g>
    <g id="ytick_7">
     <g id="line2d_16">
      <g>
       <use xlink:href="#mc869e92023" x="47.192188" y="19.132412" style="stroke: #000000; stroke-width: 0.8"/>
      </g>
     </g>
     <g id="text_16">
      <!-- 60000 -->
      <g transform="translate(8.379688 22.931631) scale(0.1 -0.1)">
       <use xlink:href="#DejaVuSans-36"/>
       <use xlink:href="#DejaVuSans-30" x="63.623047"/>
       <use xlink:href="#DejaVuSans-30" x="127.246094"/>
       <use xlink:href="#DejaVuSans-30" x="190.869141"/>
       <use xlink:href="#DejaVuSans-30" x="254.492188"/>
      </g>
     </g>
    </g>
   </g>
   <g id="line2d_17">
    <path d="M 75.092188 135.243622 
L 75.374148 135.010572 
L 75.656109 135.231779 
L 75.938069 135.021385 
L 76.22003 135.221862 
L 76.50199 135.030515 
L 76.783951 135.213425 
L 77.065912 135.03834 
L 77.347872 135.206145 
L 77.629833 135.045134 
L 77.911793 135.199786 
L 78.193754 135.051103 
L 78.475715 135.194168 
L 78.757675 135.056404 
L 79.039636 135.189153 
L 79.321596 135.06116 
L 79.603557 135.184633 
L 79.885517 135.065467 
L 80.167478 135.180519 
L 80.449439 135.069405 
L 80.731399 135.17674 
L 81.01336 135.073041 
L 81.29532 135.173233 
L 81.577281 135.076432 
L 81.859242 135.169945 
L 82.141202 135.079629 
L 82.423163 135.166827 
L 82.705123 135.08268 
L 82.987084 135.163832 
L 83.269044 135.085631 
L 83.551005 135.160912 
L 83.832966 135.088532 
L 84.114926 135.158015 
L 84.396887 135.091439 
L 84.678847 135.155082 
L 84.960808 135.094418 
L 85.524729 135.097555 
L 86.370611 135.145158 
L 87.216493 135.109439 
L 88.344335 135.121896 
L 89.190217 135.157348 
L 89.472177 134.722256 
L 89.754138 122.136367 
L 90.036099 119.113978 
L 90.318059 118.514196 
L 90.60002 117.642441 
L 90.88198 118.061713 
L 91.163941 120.230866 
L 92.009823 138.189862 
L 92.291783 139.557369 
L 92.573744 138.742341 
L 93.419626 133.0691 
L 93.701586 133.6234 
L 94.265507 135.507457 
L 94.547468 135.88943 
L 95.111389 138.090996 
L 95.39335 138.449269 
L 95.67531 138.317184 
L 95.957271 138.623993 
L 96.239231 138.628341 
L 96.803153 137.883804 
L 97.367074 138.542487 
L 97.649034 138.488323 
L 97.930995 138.170925 
L 98.494916 138.049844 
L 99.058837 138.266703 
L 99.622758 138.235879 
L 100.18668 139.129548 
L 100.750601 139.369348 
L 101.314522 140.65145 
L 101.878443 141.188579 
L 103.288246 144.498368 
L 103.852167 146.115713 
L 104.134128 145.942805 
L 104.416088 144.891041 
L 104.698049 144.300997 
L 104.98001 144.93718 
L 105.26197 144.403557 
L 105.543931 140.601606 
L 106.389813 124.064153 
L 106.671773 120.802295 
L 106.953734 119.223582 
L 107.235694 119.910747 
L 107.799615 123.275527 
L 108.081576 124.120075 
L 108.363537 124.331396 
L 108.645497 123.533009 
L 109.209418 120.810979 
L 109.491379 120.290038 
L 109.77334 120.545272 
L 110.0553 122.592833 
L 110.901182 138.034623 
L 111.183143 139.091362 
L 112.310985 133.326269 
L 112.592945 133.139798 
L 112.874906 133.733232 
L 113.438827 135.739545 
L 114.002748 137.531127 
L 114.84863 138.088159 
L 115.130591 137.974157 
L 115.694512 137.305865 
L 115.976472 137.220208 
L 116.540394 137.42154 
L 116.822354 137.701526 
L 117.104315 137.609253 
L 117.386275 137.325654 
L 117.668236 137.464398 
L 117.950197 138.174804 
L 118.232157 138.427434 
L 118.514118 138.139287 
L 118.796078 138.481303 
L 119.36 141.695189 
L 119.64196 142.046683 
L 119.923921 141.843734 
L 120.205881 142.234097 
L 120.769802 143.247701 
L 121.051763 143.732922 
L 121.333724 144.48956 
L 121.897645 145.075094 
L 122.179605 146.002316 
L 122.461566 147.44729 
L 122.743527 147.899642 
L 123.025487 147.310002 
L 123.307448 147.068432 
L 123.589408 147.499135 
L 123.871369 146.213703 
L 124.153329 141.189825 
L 124.717251 125.900143 
L 124.999211 120.831722 
L 125.281172 118.237072 
L 125.563132 117.509301 
L 125.845093 118.425957 
L 126.409014 121.334532 
L 126.690975 121.605616 
L 126.972935 121.267803 
L 127.254896 120.396671 
L 127.818817 118.038871 
L 128.100778 117.619619 
L 128.382738 118.228594 
L 128.664699 121.057825 
L 129.510581 141.219911 
L 129.792541 142.379078 
L 130.638423 135.673056 
L 131.484305 133.518326 
L 131.766265 134.201816 
L 132.330186 136.65274 
L 132.612147 137.133922 
L 132.894108 137.049202 
L 133.458029 136.56404 
L 134.303911 137.027115 
L 134.585871 137.065298 
L 135.431753 137.48294 
L 135.995674 138.47017 
L 136.277635 138.408335 
L 136.559595 138.146512 
L 136.841556 138.405026 
L 137.123516 139.024254 
L 137.405477 139.086487 
L 137.687438 138.768415 
L 137.969398 138.97685 
L 138.533319 140.575333 
L 139.097241 141.045772 
L 140.225083 144.385544 
L 140.789004 145.445543 
L 141.352925 146.737816 
L 141.634886 146.914594 
L 141.916846 146.776471 
L 142.198807 145.978322 
L 142.480768 142.936817 
L 143.60861 119.708578 
L 143.890571 117.341286 
L 144.172531 116.95984 
L 145.018413 121.13914 
L 145.300373 120.879455 
L 145.582334 120.246543 
L 146.428216 116.432739 
L 146.710176 116.240325 
L 146.992137 117.543438 
L 147.274098 121.48626 
L 147.838019 133.722035 
L 148.119979 136.447735 
L 148.40194 136.116167 
L 149.247822 132.171081 
L 149.529782 131.601347 
L 149.811743 131.82211 
L 150.657625 134.234414 
L 151.221546 135.256968 
L 151.503506 135.806132 
L 151.785467 135.798401 
L 152.067428 135.419363 
L 152.349388 135.747942 
L 152.913309 137.945531 
L 153.19527 137.970874 
L 153.47723 137.611977 
L 153.759191 137.464151 
L 154.041152 137.596689 
L 154.323112 138.020498 
L 154.605073 138.743451 
L 154.887033 139.140384 
L 155.168994 138.976353 
L 155.450955 139.005788 
L 156.014876 140.36206 
L 156.296836 140.023349 
L 156.578797 139.334774 
L 156.860757 139.187814 
L 157.706639 139.764445 
L 157.9886 140.793025 
L 158.834482 145.387353 
L 159.962324 148.814247 
L 160.244285 148.562733 
L 160.526245 147.648047 
L 160.808206 147.192593 
L 161.090166 146.994621 
L 161.372127 145.162526 
L 161.654087 140.292328 
L 162.499969 121.521935 
L 162.78193 117.872459 
L 163.06389 115.993318 
L 163.345851 116.119574 
L 163.909772 118.968702 
L 164.191733 119.482494 
L 164.473693 119.274252 
L 164.755654 118.473982 
L 165.601536 114.432693 
L 165.883496 115.02921 
L 166.165457 117.99634 
L 167.011339 136.029709 
L 167.293299 137.032991 
L 168.421142 130.906468 
L 168.703102 130.67912 
L 169.267023 131.932003 
L 170.112905 134.598893 
L 170.394866 134.738505 
L 170.676826 135.08601 
L 171.240747 136.586488 
L 171.522708 136.823227 
L 171.804669 137.712341 
L 172.086629 139.331955 
L 172.36859 140.210969 
L 172.932511 139.671032 
L 173.214471 140.081893 
L 173.496432 140.15869 
L 173.778393 139.744558 
L 174.060353 139.949733 
L 174.624274 141.627686 
L 175.470156 141.807494 
L 176.034077 140.33643 
L 176.316038 140.292779 
L 177.16192 141.906593 
L 177.725841 144.198069 
L 178.289762 145.221664 
L 178.571723 145.678278 
L 179.135644 147.021726 
L 179.417604 147.121871 
L 179.699565 146.325222 
L 180.263486 143.629673 
L 180.545447 140.223787 
L 181.391328 120.429683 
L 181.673289 118.654678 
L 181.95525 118.779971 
L 182.23721 119.049349 
L 182.519171 119.862429 
L 183.083092 123.569951 
L 183.365053 122.799767 
L 183.928974 117.753073 
L 184.492895 116.355714 
L 184.774856 116.01134 
L 185.056816 118.485142 
L 185.902698 137.546588 
L 186.184658 138.380051 
L 187.312501 132.690622 
L 187.594461 132.229312 
L 187.876422 132.310014 
L 188.158383 132.889243 
L 189.004264 135.439486 
L 190.132107 137.031606 
L 190.977988 136.922648 
L 191.54191 136.589271 
L 191.82387 137.035963 
L 192.105831 137.850495 
L 192.387791 138.104555 
L 192.669752 137.646432 
L 192.951713 137.960668 
L 193.515634 142.453521 
L 193.797594 143.250266 
L 194.079555 142.992875 
L 194.361515 143.333337 
L 194.643476 144.148391 
L 195.207397 144.689916 
L 196.053279 147.267928 
L 196.899161 151.755806 
L 197.463082 149.737662 
L 197.745042 150.139745 
L 198.027003 150.969656 
L 198.308964 150.582886 
L 198.590924 147.740251 
L 198.872885 141.72874 
L 199.718767 117.525647 
L 200.000727 113.511032 
L 200.282688 112.303632 
L 200.564648 113.165611 
L 201.41053 118.189103 
L 201.692491 118.944527 
L 201.974451 118.609862 
L 202.820333 115.208042 
L 203.102294 116.484009 
L 203.384254 121.800813 
L 203.948175 137.295235 
L 204.230136 140.430636 
L 204.512097 140.20171 
L 204.794057 138.415646 
L 205.357978 133.473179 
L 205.639939 132.241943 
L 205.921899 132.284287 
L 206.20386 132.989481 
L 206.485821 134.393253 
L 207.049742 137.862358 
L 207.331702 138.124212 
L 207.613663 137.996948 
L 207.895624 138.072933 
L 208.177584 137.972828 
L 208.459545 138.007208 
L 208.741505 139.102717 
L 209.023466 140.722375 
L 209.305427 141.328213 
L 209.587387 140.992678 
L 209.869348 140.988614 
L 210.151308 141.222397 
L 210.433269 140.693381 
L 210.715229 139.752647 
L 210.99719 139.503948 
L 211.843072 140.744754 
L 212.125032 141.446244 
L 212.406993 141.789998 
L 212.688954 141.877444 
L 212.970914 142.649103 
L 213.534835 145.20958 
L 213.816796 145.64677 
L 214.098756 146.446984 
L 214.944638 152.089975 
L 215.226599 152.787171 
L 215.508559 153.122179 
L 216.072481 154.860867 
L 216.354441 153.756929 
L 216.636402 149.224556 
L 218.046205 113.50369 
L 218.328165 110.413911 
L 218.610126 109.440646 
L 218.892086 109.708281 
L 219.456008 112.007107 
L 219.737968 112.377426 
L 220.019929 111.366703 
L 220.58385 108.356739 
L 220.865811 107.248306 
L 221.147771 107.251673 
L 221.429732 111.099458 
L 222.275613 140.495897 
L 222.557574 142.974072 
L 222.839535 141.7293 
L 223.967377 133.427671 
L 224.249338 133.663239 
L 225.37718 138.069039 
L 226.223062 139.320433 
L 227.068943 138.19856 
L 227.350904 138.402584 
L 227.632865 138.251117 
L 227.914825 138.331741 
L 228.760707 141.762996 
L 229.324628 140.640189 
L 229.606589 140.896674 
L 229.888549 141.504537 
L 230.734431 142.495926 
L 231.016392 143.121412 
L 231.298352 143.403996 
L 231.580313 144.051799 
L 232.426195 150.165725 
L 232.708155 150.294596 
L 232.990116 151.213702 
L 233.554037 156.313463 
L 233.835998 156.996358 
L 234.117958 156.361483 
L 234.399919 156.13418 
L 234.681879 156.775856 
L 234.96384 156.639543 
L 235.2458 153.447208 
L 235.809722 138.602716 
L 236.937564 108.636258 
L 237.501485 104.87264 
L 237.783446 103.182602 
L 238.065406 102.305185 
L 238.347367 102.500094 
L 238.629327 102.126989 
L 239.193249 99.594653 
L 239.475209 98.92625 
L 239.75717 98.777013 
L 240.03913 102.123281 
L 240.321091 112.357554 
L 240.885012 140.540997 
L 241.166973 146.952189 
L 241.448933 147.294958 
L 242.576776 137.140396 
L 242.858736 135.840045 
L 243.140697 135.405241 
L 243.422657 136.026627 
L 243.986579 137.604987 
L 244.83246 138.742744 
L 245.114421 138.674567 
L 245.396382 138.928733 
L 245.960303 139.878113 
L 246.242263 140.041698 
L 247.088145 141.070604 
L 247.370106 142.095605 
L 247.934027 144.657974 
L 248.215987 144.99839 
L 248.497948 145.842856 
L 248.779909 147.157245 
L 249.061869 147.549719 
L 249.62579 145.723884 
L 249.907751 145.650135 
L 250.471672 147.280144 
L 251.317554 149.834922 
L 251.881475 152.346969 
L 252.163436 152.71198 
L 252.445396 153.457645 
L 253.009317 155.917084 
L 253.573239 156.988274 
L 253.855199 156.918843 
L 254.13716 153.707728 
L 254.701081 137.316363 
L 255.546963 110.171645 
L 255.828923 104.224449 
L 256.110884 100.747029 
L 256.392844 99.157944 
L 256.674805 98.958216 
L 256.956766 99.397083 
L 257.238726 99.332972 
L 257.520687 98.68396 
L 257.802647 98.341457 
L 258.366569 98.393284 
L 258.648529 100.518295 
L 258.93049 108.072707 
L 259.776371 142.366583 
L 260.058332 145.597327 
L 260.340293 145.293943 
L 261.468135 137.833937 
L 261.750096 136.965665 
L 262.032056 137.357333 
L 262.595977 139.631615 
L 263.159898 139.776692 
L 263.441859 140.08636 
L 263.72382 140.049915 
L 264.00578 139.641853 
L 264.287741 139.610417 
L 264.569701 139.940136 
L 264.851662 140.015153 
L 265.133623 139.910989 
L 266.261465 141.140942 
L 267.107347 146.057896 
L 267.389307 146.016699 
L 267.671268 146.395027 
L 268.235189 148.404117 
L 268.51715 148.872292 
L 268.79911 149.646307 
L 269.363031 152.564793 
L 270.208913 157.298616 
L 271.336755 161.383445 
L 271.618716 161.825024 
L 271.900677 161.875943 
L 272.182637 160.706438 
L 272.464598 156.24276 
L 273.028519 134.534638 
L 273.59244 111.268867 
L 274.156361 97.752772 
L 274.720282 90.067265 
L 275.002243 88.991204 
L 275.284204 88.455576 
L 275.848125 86.692682 
L 276.130085 87.405714 
L 276.694007 90.689016 
L 276.975967 96.151458 
L 277.539888 125.28246 
L 277.821849 139.968069 
L 278.10381 148.323081 
L 278.38577 151.055985 
L 278.667731 150.405496 
L 279.231652 144.709036 
L 279.795573 139.5376 
L 280.077534 139.26672 
L 280.641455 142.919076 
L 280.923415 143.478851 
L 281.205376 143.732628 
L 281.769297 145.874395 
L 282.051258 145.209889 
L 282.333218 144.071728 
L 282.615179 143.92729 
L 282.897139 144.249166 
L 283.461061 143.769378 
L 283.743021 143.914241 
L 284.306942 144.947469 
L 284.870864 146.089026 
L 285.152824 146.451662 
L 285.434785 147.384232 
L 285.716745 148.748807 
L 285.998706 149.5473 
L 286.280667 149.9008 
L 286.562627 150.960663 
L 287.126548 154.494454 
L 287.408509 155.622329 
L 287.690469 157.387876 
L 288.536351 166.622485 
L 289.382233 171.493063 
L 289.664194 172.436987 
L 289.946154 170.876511 
L 290.228115 165.788322 
L 290.792036 147.021655 
L 291.919878 101.631595 
L 292.76576 83.491881 
L 293.611642 69.074636 
L 293.893602 62.952684 
L 294.175563 59.816307 
L 294.457524 60.75246 
L 294.739484 64.78813 
L 295.021445 72.816665 
L 295.585366 105.150857 
L 296.149287 135.913749 
L 296.713208 152.405646 
L 296.995169 154.660014 
L 297.277129 153.410103 
L 298.686932 142.813039 
L 298.968893 141.840317 
L 299.250853 141.468413 
L 299.814775 140.184511 
L 300.096735 140.845191 
L 300.378696 142.161893 
L 300.660656 142.478377 
L 300.942617 141.92861 
L 301.224578 142.343425 
L 301.788499 145.965894 
L 302.070459 146.242122 
L 302.35242 145.965765 
L 302.634381 146.66329 
L 303.198302 151.536608 
L 303.762223 155.723904 
L 304.326144 157.541771 
L 305.735947 164.117119 
L 307.42771 175.148155 
L 307.709671 176.559499 
L 307.991632 178.628247 
L 308.273592 179.828106 
L 308.555553 177.636074 
L 308.837513 171.360651 
L 309.401435 148.654245 
L 310.247316 104.143203 
L 311.375159 65.570029 
L 311.657119 59.65176 
L 311.93908 56.660631 
L 312.22104 56.154753 
L 312.503001 56.438532 
L 312.784962 56.134599 
L 313.066922 56.424345 
L 313.348883 60.159097 
L 313.630843 68.372529 
L 314.194765 94.629248 
L 315.040646 137.211079 
L 315.604567 150.835592 
L 315.886528 154.917805 
L 316.168489 156.172813 
L 316.450449 155.218906 
L 317.01437 152.758721 
L 317.860252 149.613479 
L 319.270055 144.058003 
L 319.552016 144.53969 
L 319.833976 145.249658 
L 320.397897 144.694547 
L 320.679858 145.809783 
L 320.961819 147.600049 
L 321.243779 148.482008 
L 321.52574 148.534913 
L 321.8077 148.94528 
L 322.653582 152.098441 
L 323.781424 157.389688 
L 324.627306 165.909862 
L 325.191227 168.938992 
L 325.755149 173.093763 
L 326.31907 177.728576 
L 326.882991 180.396435 
L 327.164952 181.072311 
L 327.446912 179.797714 
L 327.728873 174.06804 
L 328.292794 149.401207 
L 329.420636 95.399246 
L 330.266518 66.02295 
L 330.548479 62.958538 
L 330.830439 62.46249 
L 331.1124 61.299878 
L 331.676321 57.218814 
L 331.958281 57.01339 
L 332.240242 60.253618 
L 332.522203 68.630912 
L 334.213966 138.426374 
L 334.777887 149.83504 
L 335.059848 152.289457 
L 335.341809 153.254168 
L 335.623769 153.175648 
L 335.90573 152.075862 
L 336.751611 144.743381 
L 337.033572 144.245776 
L 337.315533 144.06865 
L 337.597493 143.610464 
L 337.879454 144.07165 
L 338.443375 149.296653 
L 338.725336 150.231557 
L 339.007296 149.736143 
L 339.289257 150.107376 
L 339.853178 152.625286 
L 340.135138 152.755264 
L 340.417099 153.103267 
L 341.262981 155.046834 
L 342.390823 160.606872 
L 344.082587 177.296371 
L 344.928468 185.079652 
L 345.77435 191.285215 
L 346.056311 188.288244 
L 346.338271 180.781309 
L 346.902193 154.976055 
L 347.748074 106.681902 
L 348.311995 83.104548 
L 348.593956 76.326328 
L 349.157877 70.198358 
L 349.721798 62.15919 
L 350.003759 59.487602 
L 350.56768 52.041373 
L 350.849641 52.438691 
L 351.131601 58.249634 
L 352.541404 102.013565 
L 353.387286 135.161929 
L 353.951207 148.949567 
L 354.233168 151.398749 
L 354.515128 150.810742 
L 354.797089 149.627413 
L 355.07905 149.062423 
L 355.36101 148.168555 
L 355.924931 145.249254 
L 356.206892 144.958595 
L 356.488852 145.533369 
L 357.334734 148.990807 
L 358.180616 152.752842 
L 358.744537 154.912966 
L 359.308458 156.957519 
L 359.87238 159.118642 
L 360.436301 160.981477 
L 360.718261 162.857552 
L 362.973946 188.644546 
L 363.819828 198.588256 
L 364.101788 201.162259 
L 364.383749 201.857494 
L 364.665709 198.706956 
L 364.94767 189.768915 
L 366.075512 126.180259 
L 366.639434 96.697312 
L 368.331197 37.884051 
L 368.895118 15.220934 
L 369.177079 12.300077 
L 369.459039 17.343869 
L 370.022961 42.005602 
L 372.278645 156.798622 
L 372.560606 160.548534 
L 372.842566 161.184948 
L 373.124527 160.391771 
L 373.406488 157.586752 
L 374.252369 144.439577 
L 374.816291 139.010024 
L 375.098251 138.210769 
L 375.380212 139.593514 
L 377.353936 157.522104 
L 378.199818 161.30891 
L 379.045699 170.832808 
L 379.891581 179.690343 
L 381.301384 190.55526 
L 382.711187 204.981566 
L 382.993148 205.937941 
L 383.275108 202.538698 
L 383.557069 194.120961 
L 384.12099 162.977734 
L 385.248832 91.300889 
L 385.812753 67.139858 
L 386.658635 24.174238 
L 386.940596 17.59065 
L 387.222556 13.843349 
L 387.504517 12.096 
L 387.786478 13.900606 
L 388.068438 20.771052 
L 388.632359 48.452257 
L 390.324123 144.487845 
L 390.888044 164.554015 
L 391.170005 169.241032 
L 391.451965 171.094905 
L 391.733926 169.986614 
L 393.425689 150.498854 
L 393.70765 149.575587 
L 393.98961 149.224553 
L 394.271571 149.3373 
L 394.553532 150.157714 
L 395.399413 153.987882 
L 396.245295 156.194879 
L 397.091177 157.913863 
L 397.655098 160.420081 
L 397.937059 162.961503 
L 399.064901 179.38892 
L 399.910783 190.327151 
L 401.038625 200.549696 
L 401.320586 202.539001 
L 401.602546 202.380558 
L 401.884507 195.043142 
L 402.448428 162.537735 
L 403.858231 75.377475 
L 404.704113 30.055133 
L 404.986073 22.657947 
L 405.268034 18.846164 
L 405.549994 16.782994 
L 405.831955 17.064697 
L 406.113916 20.57217 
L 406.395876 28.475487 
L 406.959797 57.925491 
L 408.08764 117.752058 
L 408.933522 150.854129 
L 409.215482 158.025785 
L 409.497443 162.358417 
L 409.779403 164.293438 
L 410.061364 164.426927 
L 410.343324 163.499143 
L 410.625285 161.905945 
L 411.471167 154.086836 
L 411.753127 153.589739 
L 412.035088 153.977237 
L 412.317049 153.962461 
L 412.599009 154.138485 
L 412.88097 155.432025 
L 414.572733 167.926581 
L 414.854694 168.900127 
L 415.136654 169.408185 
L 415.418615 169.137259 
L 415.700576 168.604654 
L 415.982536 169.056419 
L 416.264497 171.042337 
L 417.392339 182.7442 
L 418.238221 198.791003 
L 418.520181 200.834418 
L 419.084103 207.307432 
L 419.366063 206.48223 
L 419.648024 198.926585 
L 420.211945 170.023263 
L 421.903708 48.636286 
L 422.185669 34.921359 
L 422.46763 27.526225 
L 423.031551 21.204907 
L 423.313511 20.748974 
L 423.595472 23.10922 
L 423.877433 27.565493 
L 424.159393 34.200442 
L 424.723314 58.514126 
L 425.569196 101.352668 
L 426.415078 129.381143 
L 426.978999 142.651259 
L 427.54292 149.997793 
L 428.388802 158.437575 
L 428.670763 159.399274 
L 428.952723 159.022815 
L 429.234684 158.203646 
L 429.516644 157.831202 
L 429.798605 157.647704 
L 430.362526 156.902121 
L 430.644487 157.130869 
L 430.926447 157.554346 
L 431.490368 157.921105 
L 431.772329 158.790685 
L 432.618211 163.080956 
L 433.182132 166.079579 
L 433.464093 167.289491 
L 433.746053 169.163053 
L 434.591935 178.65959 
L 436.001738 195.607675 
L 436.84762 205.458151 
L 437.12958 209.809931 
L 437.411541 210.562852 
L 437.693501 205.013138 
L 437.975462 194.178194 
L 438.539383 156.613115 
L 439.385265 85.801077 
L 439.949186 47.687889 
L 440.231147 36.26998 
L 440.795068 24.397999 
L 441.077028 20.574033 
L 441.358989 21.866041 
L 442.204871 34.03711 
L 442.486831 45.06454 
L 443.332713 88.81309 
L 443.896634 111.335815 
L 444.460555 123.194249 
L 445.306437 131.637707 
L 445.870358 136.275051 
L 446.998201 142.107882 
L 447.562122 147.407775 
L 448.971925 163.753794 
L 449.535846 168.117204 
L 449.817806 168.884407 
L 450.381728 169.6978 
L 450.663688 169.646105 
L 450.945649 168.929599 
L 451.227609 167.894495 
L 451.50957 167.366401 
L 452.073491 167.612726 
L 452.355452 167.516384 
L 452.637412 168.076076 
L 452.919373 170.127102 
L 453.765255 180.923813 
L 455.175058 201.032837 
L 456.020939 207.182376 
L 456.3029 206.290207 
L 456.584861 199.185225 
L 456.866821 184.402207 
L 457.712703 113.119118 
L 458.558585 51.999017 
L 458.840545 40.276347 
L 459.122506 34.577889 
L 459.404466 32.039774 
L 459.686427 30.809062 
L 459.968388 32.312965 
L 460.814269 47.223998 
L 461.09623 54.510498 
L 462.506033 108.047031 
L 463.069954 119.443732 
L 463.633875 123.878272 
L 463.915836 124.85598 
L 464.197796 125.171446 
L 464.479757 125.227392 
L 464.761718 124.784316 
L 465.043678 123.843407 
L 465.325639 123.549979 
L 465.607599 125.33204 
L 466.735442 138.686122 
L 467.581323 152.109962 
L 468.709166 175.280349 
L 469.273087 180.243571 
L 469.555048 180.843792 
L 470.118969 180.671688 
L 470.400929 179.853005 
L 470.96485 175.816433 
L 471.246811 175.114684 
L 471.528772 175.608807 
L 471.810732 176.90026 
L 472.092693 179.245964 
L 474.348377 205.940357 
L 474.630338 207.701608 
L 474.912299 205.741847 
L 475.194259 198.130786 
L 475.47622 182.794254 
L 477.167983 48.889848 
L 477.449944 40.348028 
L 477.731905 37.241648 
L 478.013865 35.871062 
L 478.295826 35.254403 
L 478.577786 37.303705 
L 479.141707 46.758312 
L 479.423668 52.547953 
L 479.705629 61.844446 
L 480.833471 109.616211 
L 481.397392 121.939608 
L 482.243274 130.391832 
L 482.525234 131.389465 
L 482.807195 130.464761 
L 483.371116 128.119232 
L 483.935037 126.28637 
L 484.216998 126.244707 
L 484.780919 127.091783 
L 485.06288 128.360333 
L 485.626801 135.016125 
L 486.190722 144.148033 
L 487.600525 175.288103 
L 488.164446 183.46591 
L 488.446407 186.062154 
L 488.728367 187.614306 
L 489.574249 190.110031 
L 490.420131 193.702551 
L 491.547973 202.782925 
L 492.111894 209.348367 
L 492.393855 209.353202 
L 492.675816 204.711153 
L 492.957776 194.11101 
L 493.239737 176.008463 
L 494.367579 78.227808 
L 494.9315 50.890944 
L 495.213461 44.158987 
L 495.495421 42.287748 
L 495.777382 42.711894 
L 496.059343 44.58204 
L 496.341303 48.977632 
L 497.187185 71.644193 
L 497.751106 91.036943 
L 498.315027 110.16601 
L 498.596988 115.000994 
L 498.878948 117.072658 
L 499.160909 117.881151 
L 499.44287 118.17629 
L 499.72483 117.719461 
L 500.288751 116.177204 
L 500.570712 116.30898 
L 501.698554 118.711515 
L 501.980515 119.954022 
L 502.544436 125.356403 
L 503.672278 138.214273 
L 505.364042 167.302409 
L 506.209924 179.634327 
L 506.773845 182.316772 
L 507.337766 191.109509 
L 508.747569 213.148692 
L 509.02953 215.16201 
L 509.875411 218.431826 
L 510.157372 216.317689 
L 510.439333 206.847278 
L 511.003254 161.804864 
L 511.849135 83.40661 
L 512.131096 67.261937 
L 512.413057 58.284419 
L 512.695017 54.054939 
L 512.976978 52.341924 
L 513.258938 52.501725 
L 513.540899 54.357007 
L 513.82286 57.210246 
L 514.386781 66.602504 
L 515.232662 86.262354 
L 515.796584 106.169989 
L 516.078544 112.206411 
L 516.642465 118.502797 
L 516.924426 120.265809 
L 517.206387 119.898653 
L 517.770308 117.731518 
L 518.61619 115.58099 
L 518.89815 115.544714 
L 519.180111 115.836605 
L 519.462071 116.413577 
L 520.025992 118.955048 
L 520.307953 120.724466 
L 520.871874 126.437755 
L 521.435795 133.617351 
L 522.281677 147.891986 
L 523.973441 165.299608 
L 524.819322 172.560749 
L 527.638928 216.213685 
L 527.920889 218.729044 
L 528.202849 217.030973 
L 528.48481 206.257351 
L 529.048731 159.206429 
L 529.894613 86.573125 
L 530.176574 74.416082 
L 530.458534 68.836537 
L 530.740495 65.955101 
L 531.022455 64.378034 
L 531.304416 64.596277 
L 531.586376 66.417155 
L 531.868337 69.237339 
L 532.432258 78.763265 
L 532.996179 90.225113 
L 533.842061 115.808996 
L 534.124022 118.761473 
L 534.405982 119.966859 
L 534.687943 120.508793 
L 534.969904 120.136317 
L 535.533825 117.904706 
L 535.815785 117.34501 
L 536.097746 117.341697 
L 536.943628 118.052077 
L 537.225588 119.338453 
L 538.353431 129.411973 
L 538.917352 137.310181 
L 540.045194 145.340354 
L 540.891076 150.734335 
L 541.454997 154.189414 
L 542.018918 156.620909 
L 542.582839 159.79215 
L 542.8648 162.801123 
L 545.684406 205.304632 
L 545.966366 203.58003 
L 546.248327 193.335313 
L 546.812248 150.470412 
L 547.376169 107.351031 
L 547.65813 94.298768 
L 548.222051 81.850328 
L 548.504012 78.245213 
L 548.785972 77.026203 
L 549.067933 79.221528 
L 550.195775 95.41846 
L 551.605578 123.171564 
L 551.887539 127.142428 
L 552.169499 128.767996 
L 552.45146 128.607518 
L 552.73342 128.714668 
L 553.015381 129.488028 
L 553.297342 128.635805 
L 553.579302 125.948008 
L 553.861263 124.506615 
L 554.425184 128.93319 
L 554.707145 128.645823 
L 555.271066 123.09898 
L 555.553026 122.813817 
L 555.834987 124.789965 
L 556.398908 129.977229 
L 556.680869 131.906719 
L 556.962829 134.972478 
L 558.090672 152.434039 
L 558.936553 160.642045 
L 560.064396 168.581147 
L 561.756159 191.175949 
L 562.602041 205.180863 
L 563.447923 216.003555 
L 563.729883 215.317698 
L 564.011844 207.765487 
L 564.575765 172.207275 
L 565.421647 113.548733 
L 565.985568 93.199527 
L 566.83145 69.95439 
L 567.11341 65.64405 
L 567.959292 59.97799 
L 568.241253 58.923876 
L 568.523213 60.252095 
L 569.087134 69.510053 
L 569.651056 78.693996 
L 569.933016 80.455905 
L 570.214977 79.169484 
L 571.060859 67.649536 
L 571.342819 66.977625 
L 571.62478 67.451384 
L 571.90674 67.581234 
L 572.188701 66.533391 
L 573.034583 59.345403 
L 573.598504 56.739693 
L 573.880464 56.650182 
L 574.162425 56.028071 
L 574.726346 51.288309 
L 575.290267 53.111232 
L 575.572228 52.542542 
L 575.854189 57.489069 
L 576.136149 76.724615 
L 576.70007 129.476382 
L 577.545952 175.314245 
L 577.827913 186.421315 
L 578.391834 201.056101 
L 578.955755 219.138809 
L 580.083597 244.099062 
L 580.365558 247.607138 
L 580.647518 252.929951 
L 580.929479 254.016 
L 581.21144 245.915209 
L 581.775361 225.320473 
L 582.057321 216.921464 
L 583.749085 137.191061 
L 584.313006 128.176114 
L 584.594967 124.901773 
L 584.876927 123.023501 
L 585.158888 123.125608 
L 585.722809 124.44786 
L 586.00477 124.783433 
L 586.28673 124.768274 
L 586.568691 125.012079 
L 586.850651 127.197647 
L 587.414573 134.158164 
L 587.696533 135.130432 
L 587.978494 134.570444 
L 588.824375 130.392758 
L 589.106336 129.997714 
L 589.670257 130.723132 
L 590.234178 129.875799 
L 590.516139 129.861248 
L 591.362021 131.905008 
L 591.643981 132.773848 
L 592.771824 137.604928 
L 593.053784 138.402083 
L 593.899666 143.862404 
L 594.181627 143.951789 
L 594.463587 144.534298 
L 594.745548 146.116253 
L 595.027508 146.583515 
L 595.59143 144.384302 
L 595.87339 145.105074 
L 596.155351 146.371188 
L 596.719272 147.794107 
L 597.001232 150.476837 
L 597.565154 159.148061 
L 598.692996 169.812875 
L 598.974957 170.70708 
L 599.256917 171.188559 
L 599.538878 171.285134 
L 599.820838 167.924055 
L 600.38476 144.873951 
L 600.948681 122.954003 
L 601.512602 107.159696 
L 601.794562 102.943261 
L 602.358484 99.637258 
L 602.640444 98.892831 
L 602.922405 99.828755 
L 603.768287 107.51225 
L 604.050247 109.154252 
L 604.332208 111.726688 
L 605.46005 125.446262 
L 605.742011 127.012113 
L 606.023971 127.888495 
L 606.587892 127.86127 
L 606.869853 128.056901 
L 607.151814 128.0099 
L 607.433774 127.369905 
L 607.715735 127.537504 
L 609.971419 137.355308 
L 610.25338 138.189116 
L 610.535341 139.399969 
L 611.381222 144.438061 
L 611.945144 145.161784 
L 612.509065 147.624116 
L 612.791025 147.029575 
L 613.072986 145.453255 
L 613.354946 145.263815 
L 614.200828 148.89355 
L 614.482789 151.048722 
L 615.04671 157.69957 
L 615.610631 161.607051 
L 616.174552 166.190731 
L 616.456513 166.694098 
L 617.020434 168.723614 
L 617.302395 166.067313 
L 617.866316 146.51196 
L 618.712198 114.867707 
L 618.994158 108.832572 
L 619.558079 103.425518 
L 619.84004 101.628748 
L 620.122001 101.558462 
L 620.403961 102.492926 
L 620.967882 105.430314 
L 621.813764 112.737362 
L 622.941606 127.420607 
L 623.505528 128.761716 
L 623.787488 128.774556 
L 624.351409 129.85786 
L 624.63337 131.086982 
L 625.197291 132.415741 
L 625.479252 132.715282 
L 625.761212 133.728804 
L 626.043173 134.192496 
L 626.325133 134.294237 
L 626.607094 133.888599 
L 626.889055 135.456305 
L 627.452976 140.214636 
L 627.734936 140.480589 
L 628.298858 141.726216 
L 628.580818 142.879215 
L 628.862779 143.084861 
L 629.144739 144.323039 
L 629.70866 145.753799 
L 629.990621 145.243303 
L 630.836503 148.417071 
L 631.118463 148.371177 
L 631.400424 149.861895 
L 631.682385 150.416802 
L 631.964345 153.194942 
L 632.246306 154.022624 
L 632.528266 157.507735 
L 632.810227 157.549121 
L 633.092188 163.485511 
L 633.092188 163.485511 
" clip-path="url(#p5b14ac68a6)" style="fill: none; stroke: #1f77b4; stroke-width: 1.5; stroke-linecap: square"/>
   </g>
   <g id="patch_3">
    <path d="M 47.192188 266.112 
L 47.192188 0 
" style="fill: none; stroke: #000000; stroke-width: 0.8; stroke-linejoin: miter; stroke-linecap: square"/>
   </g>
   <g id="patch_4">
    <path d="M 660.992188 266.112 
L 660.992188 0 
" style="fill: none; stroke: #000000; stroke-width: 0.8; stroke-linejoin: miter; stroke-linecap: square"/>
   </g>
   <g id="patch_5">
    <path d="M 47.192188 266.112 
L 660.992188 266.112 
" style="fill: none; stroke: #000000; stroke-width: 0.8; stroke-linejoin: miter; stroke-linecap: square"/>
   </g>
   <g id="patch_6">
    <path d="M 47.192188 0 
L 660.992188 0 
" style="fill: none; stroke: #000000; stroke-width: 0.8; stroke-linejoin: miter; stroke-linecap: square"/>
   </g>
  </g>
 </g>
 <defs>
  <clipPath id="p5b14ac68a6">
   <rect x="47.192188" y="0" width="613.8" height="266.112"/>
  </clipPath>
 </defs>
</svg>
