<svg xmlns="http://www.w3.org/2000/svg" xmlns:xlink="http://www.w3.org/1999/xlink" width="913.477" height="377.053" viewBox="0 0 685.107 282.79"><defs><style>*{stroke-linejoin:round;stroke-linecap:butt}</style></defs><g id="figure_1"><path id="patch_1" d="M0 282.79h685.107V0H0v282.79z" style="fill:none"/><g id="axes_1"><path id="patch_2" d="M71.308 266.112h613.8V0h-613.8v266.112z" style="fill:none"/><g id="matplotlib.axis_1"><g id="xtick_1"><g id="line2d_1"><defs><path id="m5e157991b9" d="M0 0v3.5" style="stroke:gray;stroke-width:.8"/></defs><use xlink:href="#m5e157991b9" x="99.207" y="266.112" style="fill:gray;stroke:gray;stroke-width:.8"/></g><g id="text_1" style="fill:gray" transform="matrix(.1 0 0 -.1 96.026 280.71)"><defs><path id="DejaVuSans-30" d="M2034 4250q-487 0-733-480-245-479-245-1442 0-959 245-1439 246-480 733-480 491 0 736 480 246 480 246 1439 0 963-246 1442-245 480-736 480zm0 500q785 0 1199-621 414-620 414-1801 0-1178-414-1799Q2819-91 2034-91q-784 0-1198 620-414 621-414 1799 0 1181 414 1801 414 621 1198 621z" transform="scale(.01563)"/></defs><use xlink:href="#DejaVuSans-30"/></g></g><g id="xtick_2"><use xlink:href="#m5e157991b9" id="line2d_2" x="168.958" y="266.112" style="fill:gray;stroke:gray;stroke-width:.8"/><g id="text_2" style="fill:gray" transform="matrix(.1 0 0 -.1 159.414 280.71)"><defs><path id="DejaVuSans-35" d="M691 4666h2478v-532H1269V2991q137 47 274 70 138 23 276 23 781 0 1237-428 457-428 457-1159 0-753-469-1171Q2575-91 1722-91q-294 0-599 50Q819 9 494 109v635q281-153 581-228t634-75q541 0 856 284 316 284 316 772 0 487-316 771-315 285-856 285-253 0-505-56-251-56-513-175v2344z" transform="scale(.01563)"/></defs><use xlink:href="#DejaVuSans-35"/><use xlink:href="#DejaVuSans-30" x="63.623"/><use xlink:href="#DejaVuSans-30" x="127.246"/></g></g><g id="xtick_3"><use xlink:href="#m5e157991b9" id="line2d_3" x="238.708" y="266.112" style="fill:gray;stroke:gray;stroke-width:.8"/><g id="text_3" style="fill:gray" transform="matrix(.1 0 0 -.1 225.982 280.71)"><defs><path id="DejaVuSans-31" d="M794 531h1031v3560L703 3866v575l1116 225h631V531h1031V0H794v531z" transform="scale(.01563)"/></defs><use xlink:href="#DejaVuSans-31"/><use xlink:href="#DejaVuSans-30" x="63.623"/><use xlink:href="#DejaVuSans-30" x="127.246"/><use xlink:href="#DejaVuSans-30" x="190.869"/></g></g><g id="xtick_4"><use xlink:href="#m5e157991b9" id="line2d_4" x="308.457" y="266.112" style="fill:gray;stroke:gray;stroke-width:.8"/><g id="text_4" style="fill:gray" transform="matrix(.1 0 0 -.1 295.733 280.71)"><use xlink:href="#DejaVuSans-31"/><use xlink:href="#DejaVuSans-35" x="63.623"/><use xlink:href="#DejaVuSans-30" x="127.246"/><use xlink:href="#DejaVuSans-30" x="190.869"/></g></g><g id="xtick_5"><use xlink:href="#m5e157991b9" id="line2d_5" x="378.207" y="266.112" style="fill:gray;stroke:gray;stroke-width:.8"/><g id="text_5" style="fill:gray" transform="matrix(.1 0 0 -.1 365.483 280.71)"><defs><path id="DejaVuSans-32" d="M1228 531h2203V0H469v531q359 372 979 998 621 627 780 809 303 340 423 576 121 236 121 464 0 372-261 606-261 235-680 235-297 0-627-103-329-103-704-313v638q381 153 712 231 332 78 607 78 725 0 1156-363 431-362 431-968 0-288-108-546-107-257-392-607-78-91-497-524-418-433-1181-1211z" transform="scale(.01563)"/></defs><use xlink:href="#DejaVuSans-32"/><use xlink:href="#DejaVuSans-30" x="63.623"/><use xlink:href="#DejaVuSans-30" x="127.246"/><use xlink:href="#DejaVuSans-30" x="190.869"/></g></g><g id="xtick_6"><use xlink:href="#m5e157991b9" id="line2d_6" x="447.957" y="266.112" style="fill:gray;stroke:gray;stroke-width:.8"/><g id="text_6" style="fill:gray" transform="matrix(.1 0 0 -.1 435.233 280.71)"><use xlink:href="#DejaVuSans-32"/><use xlink:href="#DejaVuSans-35" x="63.623"/><use xlink:href="#DejaVuSans-30" x="127.246"/><use xlink:href="#DejaVuSans-30" x="190.869"/></g></g><g id="xtick_7"><use xlink:href="#m5e157991b9" id="line2d_7" x="517.707" y="266.112" style="fill:gray;stroke:gray;stroke-width:.8"/><g id="text_7" style="fill:gray" transform="matrix(.1 0 0 -.1 504.983 280.71)"><defs><path id="DejaVuSans-33" d="M2597 2516q453-97 707-404 255-306 255-756 0-690-475-1069Q2609-91 1734-91q-293 0-604 58T488 141v609q262-153 574-231 313-78 654-78 593 0 904 234t311 681q0 413-289 645-289 233-804 233h-544v519h569q465 0 712 186t247 536q0 359-255 551-254 193-729 193-260 0-557-57-297-56-653-174v562q360 100 674 150t592 50q719 0 1137-327 419-326 419-882 0-388-222-655t-631-370z" transform="scale(.01563)"/></defs><use xlink:href="#DejaVuSans-33"/><use xlink:href="#DejaVuSans-30" x="63.623"/><use xlink:href="#DejaVuSans-30" x="127.246"/><use xlink:href="#DejaVuSans-30" x="190.869"/></g></g><g id="xtick_8"><use xlink:href="#m5e157991b9" id="line2d_8" x="587.457" y="266.112" style="fill:gray;stroke:gray;stroke-width:.8"/><g id="text_8" style="fill:gray" transform="matrix(.1 0 0 -.1 574.732 280.71)"><use xlink:href="#DejaVuSans-33"/><use xlink:href="#DejaVuSans-35" x="63.623"/><use xlink:href="#DejaVuSans-30" x="127.246"/><use xlink:href="#DejaVuSans-30" x="190.869"/></g></g><g id="xtick_9"><use xlink:href="#m5e157991b9" id="line2d_9" x="657.207" y="266.112" style="fill:gray;stroke:gray;stroke-width:.8"/><g id="text_9" style="fill:gray" transform="matrix(.1 0 0 -.1 644.482 280.71)"><defs><path id="DejaVuSans-34" d="M2419 4116 825 1625h1594v2491zm-166 550h794V1625h666v-525h-666V0h-628v1100H313v609l1940 2957z" transform="scale(.01563)"/></defs><use xlink:href="#DejaVuSans-34"/><use xlink:href="#DejaVuSans-30" x="63.623"/><use xlink:href="#DejaVuSans-30" x="127.246"/><use xlink:href="#DejaVuSans-30" x="190.869"/></g></g></g><g id="matplotlib.axis_2"><g id="ytick_1"><g id="line2d_10"><defs><path id="m86979c5015" d="M0 0h-3.5" style="stroke:gray;stroke-width:.8"/></defs><use xlink:href="#m86979c5015" x="71.308" y="233.266" style="fill:gray;stroke:gray;stroke-width:.8"/></g><g id="text_10" style="fill:gray" transform="matrix(.16 0 0 -.16 0 239.345)"><defs><path id="DejaVuSans-2212" d="M678 2272h4006v-531H678v531z" transform="scale(.01563)"/></defs><use xlink:href="#DejaVuSans-2212"/><use xlink:href="#DejaVuSans-34" x="83.789"/><use xlink:href="#DejaVuSans-30" x="147.412"/><use xlink:href="#DejaVuSans-30" x="211.035"/><use xlink:href="#DejaVuSans-30" x="274.658"/><use xlink:href="#DejaVuSans-30" x="338.281"/></g></g><g id="ytick_2"><use xlink:href="#m86979c5015" id="line2d_11" x="71.308" y="189.755" style="fill:gray;stroke:gray;stroke-width:.8"/><g id="text_11" style="fill:gray" transform="matrix(.16 0 0 -.16 0 195.834)"><use xlink:href="#DejaVuSans-2212"/><use xlink:href="#DejaVuSans-32" x="83.789"/><use xlink:href="#DejaVuSans-30" x="147.412"/><use xlink:href="#DejaVuSans-30" x="211.035"/><use xlink:href="#DejaVuSans-30" x="274.658"/><use xlink:href="#DejaVuSans-30" x="338.281"/></g></g><g id="ytick_3"><use xlink:href="#m86979c5015" id="line2d_12" x="71.308" y="146.245" style="fill:gray;stroke:gray;stroke-width:.8"/><use xlink:href="#DejaVuSans-30" id="text_12" style="fill:gray" transform="matrix(.16 0 0 -.16 54.127 152.323)"/></g><g id="ytick_4"><use xlink:href="#m86979c5015" id="line2d_13" x="71.308" y="102.734" style="fill:gray;stroke:gray;stroke-width:.8"/><g id="text_13" style="fill:gray" transform="matrix(.16 0 0 -.16 13.408 108.813)"><use xlink:href="#DejaVuSans-32"/><use xlink:href="#DejaVuSans-30" x="63.623"/><use xlink:href="#DejaVuSans-30" x="127.246"/><use xlink:href="#DejaVuSans-30" x="190.869"/><use xlink:href="#DejaVuSans-30" x="254.492"/></g></g><g id="ytick_5"><use xlink:href="#m86979c5015" id="line2d_14" x="71.308" y="59.223" style="fill:gray;stroke:gray;stroke-width:.8"/><g id="text_14" style="fill:gray" transform="matrix(.16 0 0 -.16 13.408 65.302)"><use xlink:href="#DejaVuSans-34"/><use xlink:href="#DejaVuSans-30" x="63.623"/><use xlink:href="#DejaVuSans-30" x="127.246"/><use xlink:href="#DejaVuSans-30" x="190.869"/><use xlink:href="#DejaVuSans-30" x="254.492"/></g></g><g id="ytick_6"><use xlink:href="#m86979c5015" id="line2d_15" x="71.308" y="15.712" style="fill:gray;stroke:gray;stroke-width:.8"/><g id="text_15" style="fill:gray" transform="matrix(.16 0 0 -.16 13.408 21.791)"><defs><path id="DejaVuSans-36" d="M2113 2584q-425 0-674-291-248-290-248-796 0-503 248-796 249-292 674-292t673 292q248 293 248 796 0 506-248 796-248 291-673 291zm1253 1979v-575q-238 112-480 171-242 60-480 60-625 0-955-422-329-422-376-1275 184 272 462 417 279 145 613 145 703 0 1111-427 408-426 408-1160 0-719-425-1154Q2819-91 2113-91q-810 0-1238 620-428 621-428 1799 0 1106 525 1764t1409 658q238 0 480-47t505-140z" transform="scale(.01563)"/></defs><use xlink:href="#DejaVuSans-36"/><use xlink:href="#DejaVuSans-30" x="63.623"/><use xlink:href="#DejaVuSans-30" x="127.246"/><use xlink:href="#DejaVuSans-30" x="190.869"/><use xlink:href="#DejaVuSans-30" x="254.492"/></g></g></g><path id="line2d_16" d="m99.207 146.598.282-.693.282.667.282-.644.282.622.282-.602.282.585.282-.569.282.554.282-.54.282.527.282-.516.282.506.282-.497.282.489.282-.48.282.473.282-.468.282.462.282-.457.282.453.282-.45.282.447.282-.444.282.442.282-.44.281.44.282-.441.282.442.282-.444.282.446.282-.449.282.453.282-.458.282.464.282-.471.282.48.282-.49.282.502.282-.516.282.532.282-.551.282.573.282-.6.282.632.282-.67.282.718.282-.778.282.854.282-.954.282 1.09.281-1.287.282 1.594.282-2.131.282 3.25.282-31.609.282-10.05.282 5.752.282 2.56.846 22.54.564 16.121.282 2.988.282 1.357.564-1.218.564-2.683.282-1.007.282.376.282.877.282 1.326.564.966.282.721.281 1.037.282.062.282-.177.282.221.282.856.282.113.282-.22.282.457.564 2.931.564 1.037.564 2.711.564 1.642.564 2.9.564 1.397.282-.214.282-3.458.282-8.634 1.127-47.923.282-5.884.282-1.785.846 2.634.282.05.282.28.282.702.282 1.367.282 2.726.282 5.004.564 18.276.564 16.78.282 2.858.282.892.282.481.282-.252.564-2.527.282.145.282.549.563-1.014.282.999.282 2.094.282.93.282-.537.282.051.564 3.838.282.814.282-.018.282.265.564.861.282.415.846 2.655.282.555.564 1.89.282.21.282-.498.282.11.282 1.193.282.596.281-2.662.282-6.825.564-22.038.564-22.859.282-6.546.282-2.677.282-.742.282-.08.846.743.282.24.282 1.362.564 6.085.282 5.364.846 25.205.282 3.781.564 3.06.563 3.332.282-.188.282-.516.282.462.282 1.282.282.54.564-1.402.282.671.564 2.783.564.911.564 1.396.282.158.282-.066.282.153.564 1.584 1.128 4.464.563.765.846 3.013.282-.038.282-2.1.282-6.21 1.41-52.321.282-4.3.282-1.55.282.957.282 1.812.282.67.564-1.063.282.805.282 2.113.282 3.903.564 16.036.564 16.286.281 3.987.282 2.002.282.369.282-.944.282-1.342.282-.737.282-.146.282.286.282.768.846 3.99.564 3.195.564 1.046.846 3.127.564-1.314.564 1.28.282.142.282.49.563 3.348.846 2.695.564 3.227.564 1.573.282-1.438.282-6.117 1.41-55.383.282-2.906.282.063.564 1.595.282.37.282-.088.564-1.379.282 1.133.282 4.206.563 16.926.564 16.228.282 3.505.282.884.282-.23.564-1.223.564-1.315.282-.025.282.747.564 3.305.846 5.118.564 4.646.282 1.136.282.293.282.568.564 1.892.563.324 1.41 4.667.846 6.309.282.672.282.18.282-1.106.282-4.9.282-10.908.846-44.411.282-8.187.282-4.404.282-1.413.564 1.337.282.062.282-.19.281.368.282 1.072.282 2.418.282 5.19 1.128 36.16.282 3.595.282 1.02.282-.305.564-2.01.564-1.8.282-.418.282-.175.282.455.282 1.59.846 6.603.564 3.178 1.127 4.086 1.41 4.607.846 4.352.564 1.987.564 2.481.282.253.282-.938.282-3.587.282-8.403 1.128-53.016.282-6.66.282-3.638.282-1.228.281.168.846 1.598.282.403.282 1.011.282 2.803.282 5.654 1.41 39.971.282 1.564.282.563.282-.76.564-5.726.282-1.162.282.593.282.313.282-.18.282 1.248.845 9.062.564 1.861.564 2.024.564.531.282 1.052.564 3.427.564 1.968.846 8.505.564 1.544.564 3.507.282.69.282-.904.282-3.731.282-8.618 1.127-54.554.564-12.953.282-2.964.282-1.04.564-.186.282-.006.282.417.282 1.303.282 3.005.282 5.763 1.41 42.787.282 1.79.282-.376.564-2.666.564-1.021.282-.451.282.147.281 1.067.564 3.644.846 6.657 2.538 9.39.564 4.086.282 1.818.282.917.282 1.398.564 4.276.846 1.53.282-3.189.281-10.366.846-43.638.564-18.514.282-6.395.282-3.587.282-1.543.846-2.653.282.11.282 1.61.282 3.76.282 7.163 1.128 42.721.282 2.846.282 1.023.282.014.564-1.883.281-.362.282.134.282.296.282.61.846 3.257.846 4.09.282.29.282.821.564 3.543.282.465.282.062.282 1.565 1.128 13.892.564 2.233.564 1.744.563 1.296.282.065.282-2.34.282-7.034.564-27.196.564-26.362.564-17.944.282-5.643.564-5.16.564-3.917.282-1.162.282-.393.282 1.764.282 7.273 1.128 51.416.564 5.563.281 1.121.282-.743.564-3.956.282-.512.282.668.846 3.161.846 4.45.564 2.532 1.128 5.705.564 2.472.564 2.207.564 4.294.845 8.39.846 7.22.282 1.99.282-1.585.282-8.137 1.41-67.374.564-15.9.564-7.508.564-8.212.282-4.047.282-1.677.282 1.384.282 5.92.564 28.364.563 24.608.564 9.724.282 2.637.282.899.564-.074.282.292.282.585.564 2.446 1.128 6.474.564 1.705.564 3.388.846 6.536.846 5.22 1.127 7.784 1.41 14.818.282-1.843.282-7.903 1.974-94.81 1.128-35.964.282-6.872.282-2.332.282 1.625.281 5.22.282 11.558 1.128 73.406.846 14.217.282 1.37.564-.775.282.435.282.646.282 1.017 1.692 9.592.846 2.283.564 3.12 1.127 7.275 1.41 14.705.282 2.19.282.94.282.492.282-1.214.282-6.449 1.128-53.628 1.128-53.22.846-33.455.281-5.525.282-2.871.282-.308.282 3.209.282 8.877.282 17.096.846 67.02.282 9.184.564 8.502.564 5.489.282.886.282-.144.282-.378.282.5 1.128 5.878.282.931.564 1.145.563 2.202.564-.479.282.907.564 3.932.564 6.221.564 5.443.282 2.277 1.128 11.923.282 1.363.282-3.326.282-10.062 1.41-74.588.845-48.196.564-21.475.564-10.728.282-.802.282 2.225.282 5.931.282 13.113 1.128 87.349.564 12.785.282 3.438.564 3.036.564 2.196 1.128 2.28.563 1.828.564 1.183.846 3.6.282-.101.282.702.564 5.299.846 7.73.564 4.478 1.128 12.035.282.965.282-4.256.564-25.179 1.127-60.679 1.128-61.045.564-15.139.282-4.492.282-2.48.282 1.961.282 7.968.282 14.793 1.128 88.778.282 9.499.564 9.017.564 5.229.282.946.282.081.845-.51.282.504 1.974 11.63.846 2.526.846 4.34.282 1.258.282 2.41.564 7.027.564 5.23.282 4.032.282.835.282-6.788.845-42.344 1.974-116.012.564-12.62.282-2.835.282.726.282 4.33.282 8.299.282 14.399 1.128 80.204.564 14.518.846 14.431.563 5.773.564 2.931.564 2.19 1.128 5.483.282.298.282.65 1.128 6.219.282 2.35.846 11.22.564 3.397 1.128 10.439.281-2.827.282-8.836.846-44.646.846-60.456.564-37.061.564-20.558.564-13.527.564-8 .282-.516.282 4.218.282 11.37.564 40.77.564 40.893.282 12.196.563 12.37.564 10.374.564 6.176 1.128 16.36.846 10.314.564 2.903.846 4.605.564 3.964 1.128 10.776.564 5.726 1.127 13.854.282-3.005.282-8.949.846-44.786.846-62.908.564-38.944.564-20.655 1.128-33.279.282-2.432.282 3.765.282 10.847.564 37.478.845 58.936.282 9.08.846 14.222.282 2.995.564 3.673 1.128 13.444 1.128 15.87 2.256 28.856.845 14.26.846 8.441.282 1.321.282-4.147.564-23.895.564-33.314 1.692-116.333 1.128-42.746.282-4.145.282.643.282 6.59.563 29.495 1.128 78.636.282 7.348 1.128 16.292.564 3.889.564 1.995.282 2.44 2.538 35.984.845 12.037 1.41 22.943.564 9.014.282 1.368.282-3.123.282-9.091.564-31.292.564-39.59 1.128-90.962.846-37.94.282-8.712.282-3.87.281-.02.282 3.345.282 8.203.564 33.398.846 66.249.282 12.704.282 5.376.564 6.511.282 3.54.282 1.26.282-.148.282.4.846 3.404.564 5.653 1.973 25.727.564 6.235 1.128 20.73 1.128 17.551.282-.682.282-6.078.564-28.522.564-39.776 1.128-90.107.564-28.629.563-17.504.282-3.778.282-.94.282 3.01.282 7.984.564 29.36 1.128 79.06.282 8.963 1.128 14.522.282 1.53 1.128 2.876.282 1.29 1.128 9.048 1.127 15.19 1.128 14.566.846 9.817.846 13.017.282.166.282-4.158.282-8.995.282-14.146.564-46.207.846-78.627.564-25.513.563-16.873.282-5.829.282-3.479.282-.58.282 2.62.282 6 .282 9.723.564 30.207 1.128 70.82.282 9.538.564 7.18.564 5.12.564 1.343.564 3.823.282.859.282.495.281 1.375 1.692 14.388.564 7.268.564 6.604.282 2.106.282 3.249 1.128 17.035.282 1.459.282-3.803.282-9.5.564-32.333 1.128-97.592.845-34.294.564-13.646.282-4.027.282-1.816.282 1.157.282 3.88.282 6.896.564 25.625 1.692 89.991.282 6.346.564 6.93.282 2.558.846 3.243.563 3.39.282.921.564 3.55 1.128 7.83.564 6.174 2.256 28.802.282-1.217.282-8.165.564-29.572 1.127-99.538 1.128-41.842.564-10.494.282-3.56.282-.7.282 1.919.282 5.003.282 9.624 2.256 106.721.564 12.836.564 5.973 1.127 8.964.846 3.055 1.41 10.551 1.692 18.45.846 9.68.282 1.074.282-4.748.282-11.776.564-42.495.845-78.073.846-29.434.564-13.863.564-7.278.282-1.926.282.89.282 4.333.564 18.459 2.538 108.849.282 4.759.282.96.281-.047.282 1.304.564 4.154.282.974.282 1.733.846 8.513.564 4.06.564 5.727 2.256 26.531.282.27.282-4.059.282-9.55.282-16.697 1.127-101.973.846-35.256.564-14.466.564-7.54.282-.152.282 2.005.282 4.055.282 7.089.846 34.655 1.692 64.607.845 20.518.282 4.67.282 2.489.564 2.63 1.974 14.358 3.102 39.7.282-2.408.282-8.45.281-16.848 1.128-106.996 1.128-45.561.846-14.1.282-1.79.282.47.282 2.398.282 5.362.564 19.423 1.128 40.14 1.41 41.974 1.41 34.49.281 4.662.282 2.56.282 1.004.282.167.282.58 1.128 7.587.282 2.319 1.41 18.277.846 13.634.281 1.72.282-3.226.282-10.264.282-18.982 1.128-98.288.846-37.435.564-14.918.564-8.632.282-2.015.282-.917.282 1.013.282 5.07.846 30.558 1.128 38.46.845 22.36 1.41 29.609 1.128 25.42.282 4.047.282 2.016.282.901.564.624.282 1.464 1.128 12.17.846 12.55.563 6.919.282.698.282-4.17.282-11.811.564-52.25.564-51.367.846-38.587.564-18.533.564-10.738.282-2.86.282-1.38.282-.186.282 2.81.564 16.747 1.128 36.09 1.41 35.507.845 17.13.564 12.184 1.128 24.104.564 10.887.564 6.827.846 5.21.564 4.857 1.41 17.308.281 4.156.282 1.645.282-4.637.282-12.973.564-50.738.564-53.224.564-27.218.846-27.664.564-12.372.282-4.32.282-1.738.282.933.282 3.229.282 5.841 2.255 63.775 4.794 94.508 1.127 9.584.564 4.254.846 9.13.282.786.282-1.968.282-7.965.282-18.092.846-82.852.564-29.888.564-21.895.564-12.367.564-7.807.282-1.31.282-.173.282 1.585.282 4.673.845 26.499.846 22.42 1.128 19.526 1.41 20.857 1.128 22.24.564 11.262.846 19.892 1.691 29.529 1.128 14.933.282.386.282-3.313.282-9.073.282-19.404.846-85.344.846-40.473.564-18.137.564-9.951.282-2.529.282-.689.282.411.281 1.816.282 4.494.564 14.775.846 22.535.846 14.878 1.128 14.355.564 6.1.564 5.113.564 8.895.846 16.277.845 18.174.846 15.408 1.41 30.67.846 20.893.282 2.599.282-2.984.282-13.095 1.41-117.775.564-25.008.564-16.098.564-10.72.563-4.782.282-.423.282 1.633.282 4.116.564 13.177.846 19.37 1.128 18.841.846 10.285.564 5.791 1.692 22.678 1.41 25.596.563 10.296 2.256 48.423.282 4.17.282-3.14.282-15.14.846-73.749 1.128-57.61.563-16.931.564-10.911.282-1.625.282.51.564 2.377.282 3.627 1.128 27.648.564 7.704.846 11.676 1.974 26.98.282 3.04.281 1.586.282.509.282 2.349 1.41 26.135.564 10.537 1.128 16.654.846 13.213.564 12.439.282-2.814.282-13.02 1.128-76.573.563-25.564.846-27.64.564-11.037.564-6.696.282-1.22.282 1.639.564 12.652.846 18.978.564 8.97.282 2.869 1.128 15.258.845 8.731.564 6.185.564 5.26.282 2.333 1.128 16.958.846 11.91.846 12.018.564 8.448.846 16.743.564 6.158.282-1.7.282-9.128 1.41-77.993 1.127-44.01.564-10.868.564-7.32.282.367.282 3.167 1.974 38.489.564 7.145 1.127 15.412.282 2.04.846 10.605.846 6.148.846 9.561.282 1.573.282 2.644.282 1.046 1.692 25.194.282 8.003.282 2.168.282 7.826.282-.564.281 9.411h0" clip-path="url(#p47af453bc4)" style="fill:none;stroke:#1f77b4;stroke-width:1.5;stroke-linecap:square"/><path id="patch_3" d="M71.308 266.112V0" style="fill:none;stroke:gray;stroke-width:.8;stroke-linejoin:miter;stroke-linecap:square"/><path id="patch_4" d="M685.107 266.112V0" style="fill:none;stroke:#000;stroke-width:.8;stroke-linejoin:miter;stroke-linecap:square"/><path id="patch_5" d="M71.308 266.112h613.8" style="fill:none;stroke:gray;stroke-width:.8;stroke-linejoin:miter;stroke-linecap:square"/><path id="patch_6" d="M71.308 0h613.8" style="fill:none;stroke:#000;stroke-width:.8;stroke-linejoin:miter;stroke-linecap:square"/></g></g><defs><clipPath id="p47af453bc4"><path d="M71.308 0h613.8v266.112h-613.8z"/></clipPath></defs></svg>