<svg xmlns="http://www.w3.org/2000/svg" xmlns:xlink="http://www.w3.org/1999/xlink" width="913.477" height="377.053" viewBox="0 0 685.107 282.79"><defs><style>*{stroke-linejoin:round;stroke-linecap:butt}</style></defs><g id="figure_1"><path id="patch_1" d="M0 282.79h685.107V0H0v282.79z" style="fill:none"/><g id="axes_1"><path id="patch_2" d="M71.308 266.112h613.8V0h-613.8v266.112z" style="fill:none"/><g id="matplotlib.axis_1"><g id="xtick_1"><g id="line2d_1"><defs><path id="mcfd0abac13" d="M0 0v3.5" style="stroke:gray;stroke-width:.8"/></defs><use xlink:href="#mcfd0abac13" x="99.207" y="266.112" style="fill:gray;stroke:gray;stroke-width:.8"/></g><g id="text_1" style="fill:gray" transform="matrix(.1 0 0 -.1 96.026 280.71)"><defs><path id="DejaVuSans-30" d="M2034 4250q-487 0-733-480-245-479-245-1442 0-959 245-1439 246-480 733-480 491 0 736 480 246 480 246 1439 0 963-246 1442-245 480-736 480zm0 500q785 0 1199-621 414-620 414-1801 0-1178-414-1799Q2819-91 2034-91q-784 0-1198 620-414 621-414 1799 0 1181 414 1801 414 621 1198 621z" transform="scale(.01563)"/></defs><use xlink:href="#DejaVuSans-30"/></g></g><g id="xtick_2"><use xlink:href="#mcfd0abac13" id="line2d_2" x="168.958" y="266.112" style="fill:gray;stroke:gray;stroke-width:.8"/><g id="text_2" style="fill:gray" transform="matrix(.1 0 0 -.1 159.414 280.71)"><defs><path id="DejaVuSans-35" d="M691 4666h2478v-532H1269V2991q137 47 274 70 138 23 276 23 781 0 1237-428 457-428 457-1159 0-753-469-1171Q2575-91 1722-91q-294 0-599 50Q819 9 494 109v635q281-153 581-228t634-75q541 0 856 284 316 284 316 772 0 487-316 771-315 285-856 285-253 0-505-56-251-56-513-175v2344z" transform="scale(.01563)"/></defs><use xlink:href="#DejaVuSans-35"/><use xlink:href="#DejaVuSans-30" x="63.623"/><use xlink:href="#DejaVuSans-30" x="127.246"/></g></g><g id="xtick_3"><use xlink:href="#mcfd0abac13" id="line2d_3" x="238.708" y="266.112" style="fill:gray;stroke:gray;stroke-width:.8"/><g id="text_3" style="fill:gray" transform="matrix(.1 0 0 -.1 225.982 280.71)"><defs><path id="DejaVuSans-31" d="M794 531h1031v3560L703 3866v575l1116 225h631V531h1031V0H794v531z" transform="scale(.01563)"/></defs><use xlink:href="#DejaVuSans-31"/><use xlink:href="#DejaVuSans-30" x="63.623"/><use xlink:href="#DejaVuSans-30" x="127.246"/><use xlink:href="#DejaVuSans-30" x="190.869"/></g></g><g id="xtick_4"><use xlink:href="#mcfd0abac13" id="line2d_4" x="308.457" y="266.112" style="fill:gray;stroke:gray;stroke-width:.8"/><g id="text_4" style="fill:gray" transform="matrix(.1 0 0 -.1 295.733 280.71)"><use xlink:href="#DejaVuSans-31"/><use xlink:href="#DejaVuSans-35" x="63.623"/><use xlink:href="#DejaVuSans-30" x="127.246"/><use xlink:href="#DejaVuSans-30" x="190.869"/></g></g><g id="xtick_5"><use xlink:href="#mcfd0abac13" id="line2d_5" x="378.207" y="266.112" style="fill:gray;stroke:gray;stroke-width:.8"/><g id="text_5" style="fill:gray" transform="matrix(.1 0 0 -.1 365.483 280.71)"><defs><path id="DejaVuSans-32" d="M1228 531h2203V0H469v531q359 372 979 998 621 627 780 809 303 340 423 576 121 236 121 464 0 372-261 606-261 235-680 235-297 0-627-103-329-103-704-313v638q381 153 712 231 332 78 607 78 725 0 1156-363 431-362 431-968 0-288-108-546-107-257-392-607-78-91-497-524-418-433-1181-1211z" transform="scale(.01563)"/></defs><use xlink:href="#DejaVuSans-32"/><use xlink:href="#DejaVuSans-30" x="63.623"/><use xlink:href="#DejaVuSans-30" x="127.246"/><use xlink:href="#DejaVuSans-30" x="190.869"/></g></g><g id="xtick_6"><use xlink:href="#mcfd0abac13" id="line2d_6" x="447.957" y="266.112" style="fill:gray;stroke:gray;stroke-width:.8"/><g id="text_6" style="fill:gray" transform="matrix(.1 0 0 -.1 435.233 280.71)"><use xlink:href="#DejaVuSans-32"/><use xlink:href="#DejaVuSans-35" x="63.623"/><use xlink:href="#DejaVuSans-30" x="127.246"/><use xlink:href="#DejaVuSans-30" x="190.869"/></g></g><g id="xtick_7"><use xlink:href="#mcfd0abac13" id="line2d_7" x="517.707" y="266.112" style="fill:gray;stroke:gray;stroke-width:.8"/><g id="text_7" style="fill:gray" transform="matrix(.1 0 0 -.1 504.983 280.71)"><defs><path id="DejaVuSans-33" d="M2597 2516q453-97 707-404 255-306 255-756 0-690-475-1069Q2609-91 1734-91q-293 0-604 58T488 141v609q262-153 574-231 313-78 654-78 593 0 904 234t311 681q0 413-289 645-289 233-804 233h-544v519h569q465 0 712 186t247 536q0 359-255 551-254 193-729 193-260 0-557-57-297-56-653-174v562q360 100 674 150t592 50q719 0 1137-327 419-326 419-882 0-388-222-655t-631-370z" transform="scale(.01563)"/></defs><use xlink:href="#DejaVuSans-33"/><use xlink:href="#DejaVuSans-30" x="63.623"/><use xlink:href="#DejaVuSans-30" x="127.246"/><use xlink:href="#DejaVuSans-30" x="190.869"/></g></g><g id="xtick_8"><use xlink:href="#mcfd0abac13" id="line2d_8" x="587.457" y="266.112" style="fill:gray;stroke:gray;stroke-width:.8"/><g id="text_8" style="fill:gray" transform="matrix(.1 0 0 -.1 574.732 280.71)"><use xlink:href="#DejaVuSans-33"/><use xlink:href="#DejaVuSans-35" x="63.623"/><use xlink:href="#DejaVuSans-30" x="127.246"/><use xlink:href="#DejaVuSans-30" x="190.869"/></g></g><g id="xtick_9"><use xlink:href="#mcfd0abac13" id="line2d_9" x="657.207" y="266.112" style="fill:gray;stroke:gray;stroke-width:.8"/><g id="text_9" style="fill:gray" transform="matrix(.1 0 0 -.1 644.482 280.71)"><defs><path id="DejaVuSans-34" d="M2419 4116 825 1625h1594v2491zm-166 550h794V1625h666v-525h-666V0h-628v1100H313v609l1940 2957z" transform="scale(.01563)"/></defs><use xlink:href="#DejaVuSans-34"/><use xlink:href="#DejaVuSans-30" x="63.623"/><use xlink:href="#DejaVuSans-30" x="127.246"/><use xlink:href="#DejaVuSans-30" x="190.869"/></g></g></g><g id="matplotlib.axis_2"><g id="ytick_1"><g id="line2d_10"><defs><path id="mee6c177d11" d="M0 0h-3.5" style="stroke:gray;stroke-width:.8"/></defs><use xlink:href="#mee6c177d11" x="71.308" y="260.862" style="fill:gray;stroke:gray;stroke-width:.8"/></g><g id="text_10" style="fill:gray" transform="matrix(.16 0 0 -.16 0 266.94)"><defs><path id="DejaVuSans-2212" d="M678 2272h4006v-531H678v531z" transform="scale(.01563)"/></defs><use xlink:href="#DejaVuSans-2212"/><use xlink:href="#DejaVuSans-31" x="83.789"/><use xlink:href="#DejaVuSans-35" x="147.412"/><use xlink:href="#DejaVuSans-30" x="211.035"/><use xlink:href="#DejaVuSans-30" x="274.658"/><use xlink:href="#DejaVuSans-30" x="338.281"/></g></g><g id="ytick_2"><use xlink:href="#mee6c177d11" id="line2d_11" x="71.308" y="217.185" style="fill:gray;stroke:gray;stroke-width:.8"/><g id="text_11" style="fill:gray" transform="matrix(.16 0 0 -.16 0 223.264)"><use xlink:href="#DejaVuSans-2212"/><use xlink:href="#DejaVuSans-31" x="83.789"/><use xlink:href="#DejaVuSans-30" x="147.412"/><use xlink:href="#DejaVuSans-30" x="211.035"/><use xlink:href="#DejaVuSans-30" x="274.658"/><use xlink:href="#DejaVuSans-30" x="338.281"/></g></g><g id="ytick_3"><use xlink:href="#mee6c177d11" id="line2d_12" x="71.308" y="173.508" style="fill:gray;stroke:gray;stroke-width:.8"/><g id="text_12" style="fill:gray" transform="matrix(.16 0 0 -.16 10.18 179.587)"><use xlink:href="#DejaVuSans-2212"/><use xlink:href="#DejaVuSans-35" x="83.789"/><use xlink:href="#DejaVuSans-30" x="147.412"/><use xlink:href="#DejaVuSans-30" x="211.035"/><use xlink:href="#DejaVuSans-30" x="274.658"/></g></g><g id="ytick_4"><use xlink:href="#mee6c177d11" id="line2d_13" x="71.308" y="129.832" style="fill:gray;stroke:gray;stroke-width:.8"/><use xlink:href="#DejaVuSans-30" id="text_13" style="fill:gray" transform="matrix(.16 0 0 -.16 54.127 135.91)"/></g><g id="ytick_5"><use xlink:href="#mee6c177d11" id="line2d_14" x="71.308" y="86.155" style="fill:gray;stroke:gray;stroke-width:.8"/><g id="text_14" style="fill:gray" transform="matrix(.16 0 0 -.16 23.587 92.234)"><use xlink:href="#DejaVuSans-35"/><use xlink:href="#DejaVuSans-30" x="63.623"/><use xlink:href="#DejaVuSans-30" x="127.246"/><use xlink:href="#DejaVuSans-30" x="190.869"/></g></g><g id="ytick_6"><use xlink:href="#mee6c177d11" id="line2d_15" x="71.308" y="42.479" style="fill:gray;stroke:gray;stroke-width:.8"/><g id="text_15" style="fill:gray" transform="matrix(.16 0 0 -.16 13.408 48.557)"><use xlink:href="#DejaVuSans-31"/><use xlink:href="#DejaVuSans-30" x="63.623"/><use xlink:href="#DejaVuSans-30" x="127.246"/><use xlink:href="#DejaVuSans-30" x="190.869"/><use xlink:href="#DejaVuSans-30" x="254.492"/></g></g></g><path id="line2d_16" d="m99.207 129.862.282-.06.282.059.282-.058.282.058.282-.058.282.057.282-.057.282.057.282-.057.282.058.282-.059.282.06.282-.06.282.06.282-.061.282.062.282-.063.282.064.282-.066.282.068.282-.07.282.072.282-.074.282.077.282-.08.281.083.282-.087.282.091.282-.095.282.1.282-.107.282.115.282-.123.282.133.282-.146.282.162.282-.181.282.206.282-.24.282.29.282-.366.282.493.282-.72.282 9.661.282 3.574.282 1.625.282 3.26.282 1.33.282.374.563-5.543.282.006.282-1.967.846-36.144.282-2.677.282-1.168.282 1.54 1.128 18.392.282.06.564-3.683.282-.422.282.078.282.955.282 2.784.564 10.369.282-.134.564-7.222.845-5.3.564 2.409.282-.161.282.403.564 1.913.564 3.504.282-.689.282-1.594.282-.046.564 2.262.282.174.282.835.564 3.487.282-.32.282 1.302.282 3.373.282 1.293.282-1.108.282.913.281 2.673.282.86.282-.399.282.727.564 2.135.564 3.593.282-.379.282.55.282 1.642.282-4.547.846-43.08.282-4.718.282-.516 1.41 18.641.564-3.041.282 3.292.281 1.33.282-3.105.282 1.73.282 7.492.282 3.708.282-.51.564 4.427.282-2.07.282-3.676.282-1.034.282-.117.282-1.22.282-.103.564 6.268.282 1.274.282.367.846 2.272.282 2.278.282 1.308.282-1.92.282-2.686.282.583.281 2.684.282.088.282-1.364.282 1.222.282-.088.564-8.962.564 4.864.282-.218.282 6.138.282 9.493.282 3.746.282.062.846 4.142.282 2.275.282.381.282-3.172.282-8.959.846-44.784.282-2.704.281.315.282 2.841 1.128 15.208.282-2.45.282-1.43.282.252.282-1.234.282.827.564 11.622.846 6.742.282-1.113.282-2.526.282-.485.282.259.282.924.282 5.898.282 8.285.282.429.282-7.02.281-3.148.282.89.564-6.9.564 4.377.282-1.934.282-.558.282 2.056.282.55.282-.016.282 1.214.282.516.282-.066.282 1.651.564 5.056.282 4.029.282 6.134.282 3.111.564-7.041.282 2.757.282 3.887.564-2.363.563 6.219.282-1.455.282 1.18.282 4.6.282-1.05.282-11.75.846-46.246.282-5.357.282.945 1.128 18.343.564-1.48.282.562.282-.523.282-2.026.282.147.282 4.238.564 12.56.281 3.359.282.536.282-.483.282-1.026.564-4.612.282.097.282.6.564-3.083.282 2.918.564 10.595.282 1.712.282.904.282.003.282-2.565.564-9.822.282-1.676.282 1.585.282.554.282-1.287.282 2.577.282 6.881.282 3.923.281-.308.282 1.242.282 2.827.564 1.412.564 4.663.282.756.282 1.546.282 2.336.282 1.072.282.566.564 6.395.282-1.61.282-10.116 1.128-61.036.282-1.482.282 2.807.564 12.49.563 3.65.564 17.598.282 2.84.282-1.711.282-.71.282 1.563.846 12.787.564-4.276.282-.35.282-.538.564-3.303.282-.235.282.905.564 3.62.564-1.377.282 1.597.282.663.282-1.153.281 1.031.282 2.825.282.99.564.11.282-1.26.282-.139.282 2.219.282.392.282-1.25.282 1.247.282 1.874.282-.646.282-1.01.282-.159.282.304.564 5.238.282.086.282-.207.564 4.58.282-.048.282.526 1.127 7.612.282-1.242.282-9.096.846-53.922.282-6.594.282-.974.282 6.531.282 10.688.282 6.178.282 2.054.564 5.59.282-1.15.282.045.282.997.282-1.196.282 1.757.564 15.871.282 3.053.282.775.282-1.473.281-2.876.282-.702.282-.315.282-2.592.282-.88.282 1.573.282-.898.282-1.473.564 4.924.282.01.282 2.572.282 5.19.282 1.682.564-3.881.282-.472.282.782.282 1.6.282.687.282.264.282 1.116.282.05.282-1.168.282 1.153.281 2.78.282.283.282-.747.282 2.384.282 3.592.282.234.282-1.885.282 1.078.282 3.672.282.701.282-2.546.282.286.282 3.57.846 5.45.282-3.462.564-31.747.846-50.385.282.781 1.41 31.528.281 2.205.282.44.282-2.681.282-1.168.282 6.607.564 19.669.282 4.785.282 1.511.282-3.277.282-5.538.282-2.668.282-1.19.564-8.349.282 1.775.564 11.048.282 2.501.282.205.564-3.327.845 2.706.282.13.282-1.721.282-1.018.564 9.977.282.643.282-.776.564 4.707.282-.952.282 1.203.282 3.76.282 1.597.282-.377.282-.596.564-5.673.282.808.282 2.727.282 1.481.282 3.432.282 6.532.282 2.031.282-9.757.845-54.119.282-8.255.282-4.119.282 1.84.846 24.311.282 2.746.282.122.282-.797.282.915.282 1.943.282.85.282 2.743.564 18.583.282 2.749.564-8.607.282-1.292.282-.655.282-.306.563 1.427.282.498.282 1.184.282.6.282-.1.564 2.337.282.053.282 1.191.282 2.306.282-.239.282-1.602.282 1.053.282 1.783.282-1.048.282-1.82.282.075.282.576.282.019.282.697.564 2.778.282.602.282 1.258.845 9.688.282-.95.282.01.846 8.452.282.809.564 4.505.282-4.482.282-13.869.846-56.329.282-10.673.282-2.039.282 4.582.564 13.636.564 8.053.282 2.25.282.636.564-1.741.281 1 .282 5.707.564 17.678.282.887.282-1.596.282.298.282-.435.564-6.683.282-.406.564 2.083.564 6.35.564 4.926.282 1.815.282.277.282-.669.282 1.173.282 1.732.282-1.679.282-3.289.282.354.281 2.84.282.555.282-.448.564 5.186.282-.68.282-1.28.564 3.853.282.068.282-.425.282.534.564 4.253.282-.098.282-2.818.282.185.282 4.095.282 2.29.282.26.564 4.512.282 2.845.282 4.153.282-1.628.281-14.831.846-60.248.282-11.724.282-4.502.282 2.172.282 6.67.846 28.158.282 5.4.282.44.282-2.287.282-.943.282 1.998.282 5.388.564 13.55.282.835.282-.56.282.637.282-1.003.564-9 .282-.796.563 3.147.282.244.564 3.28.282-.234.282-1.486.282-.576.282-.218.282-1.461.282-2.169.282-1.113.282-.497.282-1.726.282-.65.564 9.97.282.985.282.416.282 3.586.282-.216.282-5.597.282-.75.282 5.306.282 1.812.281-1.344.282 3.35.564 10.701.564 4.065.846 8.38.282 2.397.282.47.282-7.903 1.41-85.868.282.246 1.41 36.566.846 11.035.281 1.386.282 4.634.564 13.027.282 2.597.282-.39.846-9.506.564-2.993.282.818.564 5.554.564 3.03.282 1.46.282-.242.282.495.282 2.255.282.36.282-.406.564 7.768.563-8.635.282 1.333.282 2.506.282-.614.282.821.282 2.405.282.625.282 1.498.282 2.829.282-.594.282-1.604.564 6.311.282.182.282 1.711.564 8.39.564-.808.282 2.232.282 3.407.282.658.282-6.06.282-13.92 1.127-82.77.282-3.92.282 1.266.282 5.001.846 22.859.564 5.965.564 7.916.282.988.282 5.952.564 22.287.282 3.94.282 1.114.282-.85.564-3.709.564-3.41.282 4.145.282 7.458.281 1.684.282-1.686.282 1.984.282.806.564-8.516.282 1.391.282.581.282-1.928.282-.412.282 2.547.564 6.373.282.414.564 1.212.564-8.521.282 1.701.282 4.16.282-.424.282.855.564 12.842.282-1.066.281.477.282 4.68.282 2.12.282-.479.282 2.87.282 4.951.564 4.114.282-.153.282-10.158 1.41-109.659.282 2.57.282 12.123.846 21.778.282 7.967.282-2.67.282-3.839.282 2.513.563 6.663.282 8.711.564 20.007.282 2.529.282 1.024.282-.392.846-6.496.282-2.372.282.794.282 2.822.282.62.282-.142.564 4.121.282-.357.282.583.282 2.485.282 1.05.282-1.845.282-2.65.282-.559.564 2.905.281-.19.282 1.603.282 2.784.282.484.282-.026.564 5.4.282.477.282.758.564 7.047h.282l.282-2.881.282 1.411.564 12.303.282-3.546.564-13.09.282-20.017.564-61.553.282-14.816.564-12.363.281 4.257.846 46.379.564 17.34.564 8.653.846 30.066.282 3.852.282-.414.564-7.988.282.667.282-2.007.282-5.851.282-3.067.282-.547.564-7.15.282 1.704.282 3.282.282.994.282 3.84.563 14.354.282-1.728.282-4.327.282-2.454.282.431.564 8.646.282 4.101.564 13.2.282 1.742.282-3.717.282.42.282 5.965.282 3.314.282.627.846 11.323.282 1.156.282 4.421.282.842.282-10.017.563-48.166.564-61.02.282-19.27.282-8.835.564-6.982.282-2.248.282 1.965.564 8.84.282 2.813.564 13.087.282 7.868.282 13.377.846 61.229.282 5.179.282 2.202.282-2.103.564-12.219.282-.285.281-.094.282-1.69.282-.392.564 1.558.846 4.528.282.315.282 3.26.282 5.068.282 2.772.282-.407.282-.667.282.57.282-.524.282-2.316.282.182.564 9.302.564 1.845 1.41 19.235.845 25.072.282.579.282 2.282.282 4.068.282-6.636.564-54.391.846-93.395.564-35.868.282-5.11.282 3.76.564 13.04.846 13.894.282 2.723.282 6.222.282 14.57.845 57.038.282 10.36.282 3.91.282-1.89.282-3.546.282-1.466.282 1.147.282 1.681.846 2.488.282-.063.282.967.282 2.517.282.131.282-.894.564 5.34.282-2.14.282.357.282 4.03.282-1.062.282-4.093.281 1.479.282 3.388.282.568.282 2.276.282 4.19.564 4.034.846 10.985.282 7.502.282 4.36.282 1.056.846 9.53.282.922.282-2.074.282-12.224.564-59.957.564-67.648.564-35.276.282-7.033.281.15.282 2.543.282 3.94.846 24.06.564 21.844.282 14.895.846 59.697.846 6.356.564-13.026.282 3.24.282 7.601.282 1.114.282-1.722.846 7.16.282 1.094.281 1.738.282.839 1.128 5.669.564 5.872.282 1.537.564 7.196.564 8.385.282 1.945.282.723.282 2.985.282 1.731.282-2.994.282-1.004.846 14.009.564 19.083.282-9.498.563-64.822.846-101.802.282-19.567.282-4.533.564 8.052.282.288.282-.795.282.873.564 6.16.282 1.023.282 7.294 1.128 74.429.282 13.437.282 6.345.282-1.234.282 1.656.282 5.982.282 2.684.281-.479.282 1.117.282 1.592.564.294.282.47.282-1.163.282-2.906.282-1.722.282 2.642.282 5.219.282 2.317.564-2.254.282.028.282.385.846 6.142.282.727 1.41 15.588.281.623.282 1.546.564 8.48.282 1.793.282 3.733.564 11.916.564 7.918.282 6.942.282 3.977.282-8.213.282-24.322 1.41-165.7.282-1.795.282 2.62.846 4.32.282.509.563 3.254.282.493.282 5.194 1.974 92.544.564 10.05.564 6.961.282 2.34.282.606.282.946.282 2.332.282.122.282-2.333.282-.152.282 1.342.282-1.128.282-1.614.282.013.281-1.25.282-2.578.282-.705.282.797.282 1.423.564 6.48 1.128 4.958.846 6.814.282-.948.282 1.072.564 5.781.282 1.462.282 2.618 1.691 26.829.564 11.732.282 2.242.282-5.565.282-19.632.846-106.455.564-61.964.282-5.925 1.41 18.475.282.8.282 2.24.282 3.545.282 6.074.282 11.96.564 33.028.282 10.469.845 16.277.564 8.33.564 11.959.282-2.25.282-4.86.282-.078.564 7.178.282 1.808.846 7.6.564-.678.282 1.371.564 5.561 1.41 5.86.281 2.76.846 13.929.564 5.269.282 2.262.282 5.07.564 21.285.282 5.164.282-.219.282.534.282 2.2.282-1.981.282-10.791.282-19.135.564-63.22.564-81.447.282-17.748.282-1.42.282 2.168.282 1.269.281 3.261.564 10.309.282 2.264.282-.264.282.47.282 5.91 1.128 44.464.564 11.022.846 7.792.282 1.647.282 3.908 1.41 36.788.282 4.558.282-1.342.282-2.432.281 1.02.282 2.772.282.473.282-.667.564 3.665.282-.238.282.446.564 5.918.282 5.779.282 9.433.282 5.691.282.474.282 3.81.282 6.091.282-.574.282-2.807.282 4.457.282 7.388.564 8.942.282 8.642.282 4.863.282-5.803.281-18.304.564-72.214.564-68.368.282-11.741.282-.85.282 1.39.282-1.367 1.41-18.69.282-2.017.282 2.356.846 25.378.282 3.297.846 17.985.282 4.065.845 25.748.282 3.93.564 11.125.564 6.926 1.128 17.048.282 3.141.282 4.594.564 15.709.282.872.282.394 1.41 15.78.282 2.823.846 23.288.281 1.422.564 10.227.564 3.444.282 1.696.282-8.362.282-23.965 1.128-146.729.282-9.106.282-1.925.282.57.282 2.919.282.901.564-8.648.564 2.87.282-2.509.282 1.903.564 22.946.845 16.572.282 2.502.282-.196.282 1.84.282 3.646.282 5.315.846 31.272.846 14.635.282-2.26.282-.55 1.128 20.976.846 15.756 1.127 25.769.564 20.285.564 7.959.282 5.374.564 4.662.564 16.531.282-1.918.282-16.755.282-34.152.564-98.645.282-29.505.564-22.774.282-6.553.282-1.834.282-.472.564-6.819.282-.434.845 10.46.282 10.474.564 25.017.564 9.94.282 3.886.564 3.686.846 15.296.564 3.16.282.058.282-1.547.282.981 1.128 14.824.282.594.282-.235 1.41 32.602.563 7.55 1.974 48.234 1.128 27.471.282-2.877.282-20.602 1.128-144.592.282-8.655 1.691-20.045.282.594.564 5.382.282 8.427.564 27.837.846 16.926.282-3.755.282-5.535.282 5.091.282 9.472.282 2.698.282.333.564 6.186.282.296.564 5.09.282.801.563 4.216.282-.034.282-.682.282 1.007.282 1.463 1.128 8.15.564 7.403.282 2.569.846 20.985.282 4.862.282 7.92.282 2.661.282-1.147.282 4.673.282 7.712.564 10.346.282 6.157.282-8.866 1.127-122.325.282-8.365.564-5.697 1.128-7.662.282.087.282 1.292.282 3.528.564 11.931.564 15.317.282 4.165.282 2.118.564 7.384.282-1.336.282-.273.282 3.054.281 1.559.282.343.564 5.77.282 3.093.564 9.773.564 1.33.564 6.099.282 1.714.846 13.582.564 3.856.564 6.202.282 4.447.282 2.57.564-3.79.282 3.202.563 10.131.282 9.25.282 14.467.282 4.595.282-18.577.564-60.14.282-14.972.564-14.161.846-15.242.282-3.324.564-12.176.282 1.518.282 5.69.282 1.65.282 3.129.564 26.093.282 4.572.282.747.564 4.489.281 1.122.282 1.939.282.389.282-.264.282 2.023.282.978.282-1.776.282.216.282 2.171.282.582.564 3.098.282-4.063.282-7.4.282-1.034.846 12.645.564 16.296.282-.482.282.595.282 5.708.282 1.401.282-5.378.281-.625.282 6.605.282 2.954.282-1.07.282 5.386.564 17.542.282 3.482.846 16.912.282.936.282-8.138.846-67.436.564-16.292 1.128-22.464.846-11.568.563 5.185.282.28.282 4.947.564 22.956.846 11.426.282.706.564-4.294.282.293.282.735.282 1.88.564 5.566.282.988.564 2.711.282-.718.282.323.282 2.032.282.354.282-.775.563 2.041.564-1.338.564 3.314.282.174.282-.723.282 2.142.564 10.215.564 3.64.282 3.723.846 17.91.282-.142.282 2.08.282 5.29.282 1.672.282-1.1.282 1.968.564 9.333.282 1.652.281-9.706.846-58.411.564-13.77.564-10.612.564-10.84.282-2.784.282-1.437.564 1.372.282-.498.282 2.362.564 13.23.846 10.36.564-1.795.282 1.796.282.362.282-.904.281 3.677.282 6.934.282 4.02.564 2.6.282-.014.282-.661 1.128 2.232.564 2.003.846 5.011.564 6.811.282.73.282 1.242.564 5.59.282.547.282.849.563 3.341.282 2.338.282 4.476.564 13.656.282 1.779.282.942.282 5.616.282 3.088.282-10.96.564-40.074.564-22.82.282-4.781.282-2.571.846-16.02.282.425.564 1.712.282.032.282.208.282 3.959.563 11.304.564 7.96.282.011.282-.468.282 2.33.282.996.282-1.569.282.325.282.855.282-1.563.282.123.564 6.08.282.398.282 1.25.564 6.857.282 3.098.282.022.282-.552.846 4.942.282 1.181.563-1.204.564 6.493.282.739.282 1.623.282 2.606.282.017.282.527.564 7.468.282 1.263.282 1.99.564 6.764.564 7.628.564 4.722.282-2.744.564-28.901.564-23.788.563-14.326.564-9.132 1.128-10.821.282-.368.282 1.727.282 3.667.564 11.992.282 6.572.282 3.815.846 5.995.564-10.912.282.338.282 1.567.282-.885.282 1.5.564 9.827.845 2.51.282.168.282.393.564 1.483.564 3.718.282 1.058.564 3.03.564-3.427.564 7.301.282-.432.282.657.564 7.981.282-.186.282 1.56.564 7.475.282-.105.282 1.053.563 7.352.282 1.46.282 3.056.282 5.198.282.008.282-11.2.564-34.408.282-9.506.846-15.624.282-2.36.564-2.194.282.354.282 1.253.282-.786.282-1.97.282.746.564 7.795.564 8.445.281-.174.282-3.008.282-.258.282 3.035.282.953.282-1.592.282 1.311.282 4.624.282 2.46.282.127.564 2.963.564-7.808.282.614.282 2.77.564-.692.282 3.92.282 5.52.282 2.397.282 1.054.282 1.821.282 1.005.282-.297.281 1.583h0" clip-path="url(#pf16b903b1e)" style="fill:none;stroke:#1f77b4;stroke-width:1.5;stroke-linecap:square"/><path id="patch_3" d="M71.308 266.112V0" style="fill:none;stroke:gray;stroke-width:.8;stroke-linejoin:miter;stroke-linecap:square"/><path id="patch_4" d="M685.107 266.112V0" style="fill:none;stroke:#000;stroke-width:.8;stroke-linejoin:miter;stroke-linecap:square"/><path id="patch_5" d="M71.308 266.112h613.8" style="fill:none;stroke:gray;stroke-width:.8;stroke-linejoin:miter;stroke-linecap:square"/><path id="patch_6" d="M71.308 0h613.8" style="fill:none;stroke:#000;stroke-width:.8;stroke-linejoin:miter;stroke-linecap:square"/></g></g><defs><clipPath id="pf16b903b1e"><path d="M71.308 0h613.8v266.112h-613.8z"/></clipPath></defs></svg>