<svg xmlns="http://www.w3.org/2000/svg" xmlns:xlink="http://www.w3.org/1999/xlink" width="913.477" height="377.053" viewBox="0 0 685.107 282.79"><defs><style>*{stroke-linejoin:round;stroke-linecap:butt}</style></defs><g id="figure_1"><path id="patch_1" d="M0 282.79h685.107V0H0v282.79z" style="fill:none"/><g id="axes_1"><path id="patch_2" d="M71.308 266.112h613.8V0h-613.8v266.112z" style="fill:none"/><g id="matplotlib.axis_1"><g id="xtick_1"><g id="line2d_1"><defs><path id="m9d5ce81928" d="M0 0v3.5" style="stroke:gray;stroke-width:.8"/></defs><use xlink:href="#m9d5ce81928" x="99.207" y="266.112" style="fill:gray;stroke:gray;stroke-width:.8"/></g><g id="text_1" style="fill:gray" transform="matrix(.1 0 0 -.1 96.026 280.71)"><defs><path id="DejaVuSans-30" d="M2034 4250q-487 0-733-480-245-479-245-1442 0-959 245-1439 246-480 733-480 491 0 736 480 246 480 246 1439 0 963-246 1442-245 480-736 480zm0 500q785 0 1199-621 414-620 414-1801 0-1178-414-1799Q2819-91 2034-91q-784 0-1198 620-414 621-414 1799 0 1181 414 1801 414 621 1198 621z" transform="scale(.01563)"/></defs><use xlink:href="#DejaVuSans-30"/></g></g><g id="xtick_2"><use xlink:href="#m9d5ce81928" id="line2d_2" x="168.958" y="266.112" style="fill:gray;stroke:gray;stroke-width:.8"/><g id="text_2" style="fill:gray" transform="matrix(.1 0 0 -.1 159.414 280.71)"><defs><path id="DejaVuSans-35" d="M691 4666h2478v-532H1269V2991q137 47 274 70 138 23 276 23 781 0 1237-428 457-428 457-1159 0-753-469-1171Q2575-91 1722-91q-294 0-599 50Q819 9 494 109v635q281-153 581-228t634-75q541 0 856 284 316 284 316 772 0 487-316 771-315 285-856 285-253 0-505-56-251-56-513-175v2344z" transform="scale(.01563)"/></defs><use xlink:href="#DejaVuSans-35"/><use xlink:href="#DejaVuSans-30" x="63.623"/><use xlink:href="#DejaVuSans-30" x="127.246"/></g></g><g id="xtick_3"><use xlink:href="#m9d5ce81928" id="line2d_3" x="238.708" y="266.112" style="fill:gray;stroke:gray;stroke-width:.8"/><g id="text_3" style="fill:gray" transform="matrix(.1 0 0 -.1 225.982 280.71)"><defs><path id="DejaVuSans-31" d="M794 531h1031v3560L703 3866v575l1116 225h631V531h1031V0H794v531z" transform="scale(.01563)"/></defs><use xlink:href="#DejaVuSans-31"/><use xlink:href="#DejaVuSans-30" x="63.623"/><use xlink:href="#DejaVuSans-30" x="127.246"/><use xlink:href="#DejaVuSans-30" x="190.869"/></g></g><g id="xtick_4"><use xlink:href="#m9d5ce81928" id="line2d_4" x="308.457" y="266.112" style="fill:gray;stroke:gray;stroke-width:.8"/><g id="text_4" style="fill:gray" transform="matrix(.1 0 0 -.1 295.733 280.71)"><use xlink:href="#DejaVuSans-31"/><use xlink:href="#DejaVuSans-35" x="63.623"/><use xlink:href="#DejaVuSans-30" x="127.246"/><use xlink:href="#DejaVuSans-30" x="190.869"/></g></g><g id="xtick_5"><use xlink:href="#m9d5ce81928" id="line2d_5" x="378.207" y="266.112" style="fill:gray;stroke:gray;stroke-width:.8"/><g id="text_5" style="fill:gray" transform="matrix(.1 0 0 -.1 365.483 280.71)"><defs><path id="DejaVuSans-32" d="M1228 531h2203V0H469v531q359 372 979 998 621 627 780 809 303 340 423 576 121 236 121 464 0 372-261 606-261 235-680 235-297 0-627-103-329-103-704-313v638q381 153 712 231 332 78 607 78 725 0 1156-363 431-362 431-968 0-288-108-546-107-257-392-607-78-91-497-524-418-433-1181-1211z" transform="scale(.01563)"/></defs><use xlink:href="#DejaVuSans-32"/><use xlink:href="#DejaVuSans-30" x="63.623"/><use xlink:href="#DejaVuSans-30" x="127.246"/><use xlink:href="#DejaVuSans-30" x="190.869"/></g></g><g id="xtick_6"><use xlink:href="#m9d5ce81928" id="line2d_6" x="447.957" y="266.112" style="fill:gray;stroke:gray;stroke-width:.8"/><g id="text_6" style="fill:gray" transform="matrix(.1 0 0 -.1 435.233 280.71)"><use xlink:href="#DejaVuSans-32"/><use xlink:href="#DejaVuSans-35" x="63.623"/><use xlink:href="#DejaVuSans-30" x="127.246"/><use xlink:href="#DejaVuSans-30" x="190.869"/></g></g><g id="xtick_7"><use xlink:href="#m9d5ce81928" id="line2d_7" x="517.707" y="266.112" style="fill:gray;stroke:gray;stroke-width:.8"/><g id="text_7" style="fill:gray" transform="matrix(.1 0 0 -.1 504.983 280.71)"><defs><path id="DejaVuSans-33" d="M2597 2516q453-97 707-404 255-306 255-756 0-690-475-1069Q2609-91 1734-91q-293 0-604 58T488 141v609q262-153 574-231 313-78 654-78 593 0 904 234t311 681q0 413-289 645-289 233-804 233h-544v519h569q465 0 712 186t247 536q0 359-255 551-254 193-729 193-260 0-557-57-297-56-653-174v562q360 100 674 150t592 50q719 0 1137-327 419-326 419-882 0-388-222-655t-631-370z" transform="scale(.01563)"/></defs><use xlink:href="#DejaVuSans-33"/><use xlink:href="#DejaVuSans-30" x="63.623"/><use xlink:href="#DejaVuSans-30" x="127.246"/><use xlink:href="#DejaVuSans-30" x="190.869"/></g></g><g id="xtick_8"><use xlink:href="#m9d5ce81928" id="line2d_8" x="587.457" y="266.112" style="fill:gray;stroke:gray;stroke-width:.8"/><g id="text_8" style="fill:gray" transform="matrix(.1 0 0 -.1 574.732 280.71)"><use xlink:href="#DejaVuSans-33"/><use xlink:href="#DejaVuSans-35" x="63.623"/><use xlink:href="#DejaVuSans-30" x="127.246"/><use xlink:href="#DejaVuSans-30" x="190.869"/></g></g><g id="xtick_9"><use xlink:href="#m9d5ce81928" id="line2d_9" x="657.207" y="266.112" style="fill:gray;stroke:gray;stroke-width:.8"/><g id="text_9" style="fill:gray" transform="matrix(.1 0 0 -.1 644.482 280.71)"><defs><path id="DejaVuSans-34" d="M2419 4116 825 1625h1594v2491zm-166 550h794V1625h666v-525h-666V0h-628v1100H313v609l1940 2957z" transform="scale(.01563)"/></defs><use xlink:href="#DejaVuSans-34"/><use xlink:href="#DejaVuSans-30" x="63.623"/><use xlink:href="#DejaVuSans-30" x="127.246"/><use xlink:href="#DejaVuSans-30" x="190.869"/></g></g></g><g id="matplotlib.axis_2"><g id="ytick_1"><g id="line2d_10"><defs><path id="m1ad3f4620c" d="M0 0h-3.5" style="stroke:gray;stroke-width:.8"/></defs><use xlink:href="#m1ad3f4620c" x="71.308" y="249.166" style="fill:gray;stroke:gray;stroke-width:.8"/></g><g id="text_10" style="fill:gray" transform="matrix(.16 0 0 -.16 0 255.244)"><defs><path id="DejaVuSans-2212" d="M678 2272h4006v-531H678v531z" transform="scale(.01563)"/></defs><use xlink:href="#DejaVuSans-2212"/><use xlink:href="#DejaVuSans-32" x="83.789"/><use xlink:href="#DejaVuSans-30" x="147.412"/><use xlink:href="#DejaVuSans-30" x="211.035"/><use xlink:href="#DejaVuSans-30" x="274.658"/><use xlink:href="#DejaVuSans-30" x="338.281"/></g></g><g id="ytick_2"><use xlink:href="#m1ad3f4620c" id="line2d_11" x="71.308" y="198.547" style="fill:gray;stroke:gray;stroke-width:.8"/><g id="text_11" style="fill:gray" transform="matrix(.16 0 0 -.16 0 204.626)"><use xlink:href="#DejaVuSans-2212"/><use xlink:href="#DejaVuSans-31" x="83.789"/><use xlink:href="#DejaVuSans-30" x="147.412"/><use xlink:href="#DejaVuSans-30" x="211.035"/><use xlink:href="#DejaVuSans-30" x="274.658"/><use xlink:href="#DejaVuSans-30" x="338.281"/></g></g><g id="ytick_3"><use xlink:href="#m1ad3f4620c" id="line2d_12" x="71.308" y="147.929" style="fill:gray;stroke:gray;stroke-width:.8"/><use xlink:href="#DejaVuSans-30" id="text_12" style="fill:gray" transform="matrix(.16 0 0 -.16 54.127 154.008)"/></g><g id="ytick_4"><use xlink:href="#m1ad3f4620c" id="line2d_13" x="71.308" y="97.311" style="fill:gray;stroke:gray;stroke-width:.8"/><g id="text_13" style="fill:gray" transform="matrix(.16 0 0 -.16 13.408 103.39)"><use xlink:href="#DejaVuSans-31"/><use xlink:href="#DejaVuSans-30" x="63.623"/><use xlink:href="#DejaVuSans-30" x="127.246"/><use xlink:href="#DejaVuSans-30" x="190.869"/><use xlink:href="#DejaVuSans-30" x="254.492"/></g></g><g id="ytick_5"><use xlink:href="#m1ad3f4620c" id="line2d_14" x="71.308" y="46.693" style="fill:gray;stroke:gray;stroke-width:.8"/><g id="text_14" style="fill:gray" transform="matrix(.16 0 0 -.16 13.408 52.772)"><use xlink:href="#DejaVuSans-32"/><use xlink:href="#DejaVuSans-30" x="63.623"/><use xlink:href="#DejaVuSans-30" x="127.246"/><use xlink:href="#DejaVuSans-30" x="190.869"/><use xlink:href="#DejaVuSans-30" x="254.492"/></g></g></g><path id="line2d_15" d="m99.207 148.151.282-.436.282.422.282-.41.282.4.282-.39.282.38.282-.372.282.365.282-.359.282.354.282-.349.282.344.282-.34.282.338.282-.336.282.334.282-.333.282.332.282-.332.282.332.282-.333.282.335.282-.337.282.34.282-.344.281.349.282-.354.282.36.282-.367.282.375.282-.385.282.397.282-.41.282.425.282-.443.282.464.282-.49.282.52.282-.555.282.599.282-.654.282.724.282-.816.282.943.282-1.127.282 1.417.282-1.944.282 3.198.282-17.53.282-7.309.845 30.604.282 1.04.282.301.282.471.282.215.564-8.508.282-.687.282 1.469.564-1.019.564.106.282-.26.564 3.347.282-.323.282-.818.564 4.403.282.404.282-.818.564 1.018.281-.3.282-.596.282.389.282.814.564 2.194.564.884 1.692 6.522.282.613.282-2.478.282-9.165.564-26.756.282-6.676.282-2.578.282-.122.564 4.708.282-.527.563-3.916.282-1.375.282-.663.282 1.43.564 5.788.282 4.97.564 15.563.282 3.365.282.311.282-.934.282-1.532.282-.796.564 2.125.282.108.282.627.282 1.677.282.872.282.414.282 2.448.564 7.03.281-.139.282-.347.282 1.37.282.65.564-6.2.282-.564.564 3.071.282.061.282.583.846 2.632.564 2.852.564 1.965.282.2.282-.129.564 2.14.282-1.54.282-6.467.845-33.69.282-4.584.282-1.047.282.247.564 2.842.282-.34.564-3.555.282-1.009.282-.51.282 1.679.846 13.558.846 17.544.564-2.215.564 1.104.564-1.403.282.597.281 1.585.564 4.468.282.855.564-.816.282-.088.282.128.282.76.282 1.291.282.599.564-.834 1.128 1.011.564 1.784.282.157.282-.499.282.325.564 4.39.282.272.281-.006.282 3.484.564 10.877.282-.858.282-5.849.282-10.82.564-30.18.282-8.634.282-2.436.282-.244.564.128.564-3.078.282-.1.282.143.282-1.594.282-.008 1.128 17.61.564 14.204.563 1.695.564 7.45.282.166.282-1.216.282-.53.282.174.282 1.007.282 1.677.282.843.282-.28.282.66.282 1.847.282-.322.564-7.716.282-.406.282.646.282-.561.282.543.564 4.542.282-.812.282-.268.281.951.564-1.148.282 3.112.282 5.297.282 2.367.282-.398.282.584.282 1.559.282.445.282.195.564 2.043.282.081.282-.102.282-3.552.282-11.732.564-30.728.282-5.471.564-2.237.282.33.282 2.075.282.587.563-6.913.282-.734.846 4.801.846 13.855.846 15.29.564-2.961.282.757.282.418.282-1.428.282-.83.564 2.289.282-.138.282-1.128.282-.603.282 1.251.282 2.277.282 1.047.281-.062.282.834.282 1.541.282.689.282.178.282.351.282-.47.282-1.22.282-.506.282-.088.282-.512.282.583.564 4.473.282.464.282.931.282 1.734.564 1.66.564 8.396.282-1.845 1.41-49.27.281-3.47.282 1.256.282 2.384.282-.304.282-1.272.282 1.673.282 3.792.282 2.071.282.683.282 2.985.564 8.282.282 2.204.846 13.255.564-3.465.846 1.403.564 1.859.282.281.563 1.863.282.969.564 2.927.282-.511.282-1.044.282.516.564 1.63.564 5.027.282.338.282-1.223.282 1.664.564 8.265.564 2.828.282 1.053.282-.505.564-5.372.282-.168.282 1.471.281-2.063.282-8.553.846-32.7.282-5.921.282-2.163.282.004.564.178.282-.509.282-2.578.282-3.645.282-.845.564 5.126.282.449.282 2.745.846 21.131.846 9.043.563-1.62.564.551.282 1.102.564 5.717.282.318.282-.338.282.742.564 3.282.282 1.65.282-.033.282-.848.282.772.282 1.298.282-.422.282.548.564 9.722.282 1.152.282.013.564 5.83.282-1.677.282-3.956.281-.437.282 3.526.282 1.798.282-4.523 1.41-43.968.282-2.058.282-.21.282-2.689.564-9.16.846-8.854.282-.435.282 2.102.282 3.6.282 5.82.846 24.44.282 3.732.281 1.614.282.057.564-2.094.282-1.08.282.263.282 3.056.564 7.752 1.128 3.296.282-.029.564 1.137.282.129.282.764.282 1.132.564.383.564 4.043.282-.012.282.421.282 2.635.281.731.564-7.91.282 2.47.282 4.738.282-1.236.564-20.037.846-31.767.282-4.615.282-.612.282.182.282-.562.282-.081.282.71.282-.67.282-2.624.282-1.528.282 1.725.282 3.724.282 5.65 1.127 37.783.282-.508.564-2.327.282-1.22.282.703.282 1.615.282-1.19.282-3.805.282-1.405.564 5.956.282-.27.282-.93.282 1.083.846 5.153.282 2.572.564 1.802.846 12.755.281 1.484.564 6.534.282-.001.282-2.353.282 1.063.282 5.068.282.26.282-12.039.564-34.857.564-15.716.282-6.932.282-4.043.282-1.733.282-3.75.564-13.146.282-2.536.282 1.382.846 8.523.282 6.781.845 38.64.282 6.299.282 3.096.282.393.564-5.187.282-.155.282 1.076.282-.098.282.574.846 10.47.282-1.061.282-.312.564 2.503.282.592.282 1.277.846 8.655.282-.796.563-4.273.282-.787.282 1.712.564 6.383.282 1.679.282 4.037.564 10.918.282 1.115.282.125.282-3.966.282-14.646.564-43.241.564-23.366.282-9.085.282-4.84.282-.946.282-1.947.564-7.892.564-5.097.281.473.282 5.996.564 17.396.282 13.112.564 35.98.282 6.602.282-1.491.282-2.582.282-1.04.564-.867.564-2.046.282 1.594.564 6.33.282-.243.282-.043.564 4.1.282.815.282-.05.282.2.845 2.952.282-.139.282.914.564 4.636.564 1.928 1.128 6.673.282 2.13.282.837.282 1.755.564 10.491.282.53.282-6.415.282-12.256 1.128-68.84.563-12.017.282-3.5.564-4.762.564-6.743.282-1.007.282.239.282 1.906.282 4.778.282 7.86.564 26.99.282 15.241.282 8.708.282 1.929.282.64.282 1.867.282.83.846-3.106.282 1.658.564 9.393.282 1.533.281-1.067.282.64.282 2.294.282-.611.564-7.627.282.169.282 1.298.282.723.846 3.166.282.73.846 5.555 1.128 7.353.564 3.178.282 1.466.282 2.226.282-2.276.281-11.95.846-49.234.282-12.498.282-6.161.282.084.282-.181.282-2.719.282-1.467.282-.25.282-3.08.282-4.927.282-1.73.282 2.936.282 6.54.282 11.162.846 45.54.282 7.09.282 2.78.282.052.282-.93.282-.299.281.323.282-.304.564-2.163.282.368.282 1.097.282.522.564-.896.282.896.282 1.41.282.17.282-.634.282.8.564 4.807.282.955.564.323.282 1.446 1.128 12.616.564 4.843.281 1.045.282 1.61.564 5.414.282 1.438.282.015.282-6.157.282-17.292.564-45.522.564-23.256.564-14.048.564-6.76.564-4.202.282-1.167.282-.111.282 2.175.282 3.963.282 5.705.282 10.468.845 47.348.564 16.957.282 1.874.564-2.61.282-.16.564-4.389.282-.443.282.71.282-.04.282.4.564 3.764.282.444.282.046.564.595.282.658.846 3.686.282.734.281.026.282.334.282 2.601.282 4.122.282 2.378.282.336.282 1.642.564 7.038.564 2.653.282 2.505.282-.893.282-8.531 1.41-76.985.564-13.623.846-9.728.282-2.79.282-.86.281 1.248.282 2.964.282 5.423.282 9.308 1.41 61.645.282 2.546.282-.538.564-2.517.564-4.139.282-.78.282.533.282 2.212.564 7.272.282.882.282-.332.282.577.282 1.041.282.276.281-.199.282-.5.282-.805.282.397.282 2.183.282.84.846-7.73.564 2.294 1.128 7.506.846 3.954.564 4.436.282-3.056.282-10.635 1.128-64.274.281-6.125.846-9.532.564-3.2.282-.29.282 2.001.564 7.877.282 5.506.282 11.048.564 30.357.282 8.92.282 4.586.282 1.814.564-.887.564 1.921.564-1.118.845 3.18.564 1.295.282.192.282.85.282 1.412.564 1.624.846 6.852.282.542.282 1.431.564 4.963.846 11.458.564 6.28.282 1.934.564 6.865.282-.508.282-9.272.563-36.009.564-39.162.564-22.228.846-22.318.846-14.504.282-2.08.282-.74.282 1.297.282 8.05.564 38.68.564 36.83.282 12.878.282 7.398.282 2.52.564 1.163.282-.512.563-2.324.282-.088 1.128 2.312.282 2.46.564 7.465.564 1.94.564 3.962.282.658.282 1.709.564 5.957.282.4.282 1.452.564 8.687.564 4.622.845 18.971.282-4.965.564-32.86.846-59.264 1.128-57.332.282-10.696.282-4.846.564-5.246.282-.702.564 2.374.282 3.36.282 10.252 1.41 82.117.281 3.561.282 2.106.564 8.984.282-.796.282.65.564 9.091.282-.324.282.017.846 6.623.846 14.268.282 1.071.564 4.313.564 2.012.564 5.257.845 10.884.282.27.282.058.282 2.47.564 8.438.282.83.282-7.278.564-41.564.846-60.63.846-47.135.282-10.907.846-15.24.282-4.196.282 2.158.282 5.343.564 5.623.281 9.884 1.128 64.12.564 20.991.564 14.87.282 1.23.282-1.243.282 2.062.564 7.945.282 1.118.846 5.804.564 3.678.564 1.82.846 6.265.563 1.641.282 1.233.282 2.3 1.128 12.5.564 3.59.282 4.432.282 7.108.282 1.044.282-12.295 1.41-101.938.846-41.023 1.41-31.46.281-1.226.282-.33.282 3.407.282 10.414 1.41 72.643 1.128 40.39.282.767.282 1.325 1.128 12.405.282 1.8.282.43.282 2.235.282 3.604.282 1.087.281-1.395.282-.16.564 4.34.564 6.073 1.128 13.7.846 13.717.282 3.878.564 9.375.282-6.482.564-43.369.846-58.78.564-36 1.973-76.748.282-3.131.282 3.392.282 7.99.282 12.027 1.974 111.873 1.128 25.363.282.542.282-.623.564 1.988.282-1.31.281-.207.846 8.013.564 8.459.564 4.041.846 17.131 1.41 19.485.564 13.758.564 8.932.282-2.58.282-14.992 1.691-136.2.564-34.312.564-32.554.564-14.427.282-3.481.282 2.4.564 11.018.282 8.45.564 30.949.846 48.268 1.128 48.857.564 9.886.282 2.217.563-1.809.846 1.286.846 5.264.282 3.103.564 8.577.564-1.064.846 7.272.282 3.793.564 9.341.282 2.855.846 19.897.282 3.238.563 15.814.282-5.415.846-72.014 1.128-95.715.846-42.64.564-12.596.282-3.228.282-.402.282 1.569.282 3.358.282 6.42.564 20.83 1.41 76.199.563 39.101.282 6.437.282 3.004.564 7.745.282-2.097.282-3.885.282-2.019.282-.965.282-.403.282 1.727.282 2.91.282 1.252.282.528.282 2.846.564 7.722 1.128 5.696.564 4.906.563 7.36.846 14.633.282 2.86.564 9.986.282-1.843.282-15.587 1.41-118.717 1.128-60.893.282-7.317.564-7.004.282-.52.282 1.851.282 3.635.282 6.327.281 10.765 1.41 71.345.564 27.924.564 14.88.282 4.129.564 3.701.282 1.396.282.037.282-1.185.282 1.187.564 7.462.282.266.282 1.17.282 3.503.282 1.787.282-1.457.282-.094.563 7.366.282 1.097.282 2.367.846 18.962.564 5.643.564 9.915.282-1.146.282-11.397.564-45.139.846-74.103.846-42.3.564-17.45.282-3.558.282-1.58.282.993.281 3.122.282 4.487.282 6.936.564 24.503.846 40.43.564 23.167.282 14.92.282 8.62.564 2.8.564 9.681.564 1.614.282 1.555.282-.265.282-.507.564 3.718.282-.29.282 1.872.563 13.314 1.692 21.871.846 15.088.846 17.75.282-3.63.282-16.79 1.692-156.91.564-18.312.564-15.031.281-1.378.564 1.44.282 2.568.564 10.332.282 8.27.846 36.65 2.256 57.76.564 9.298.564 11.285.564 6.774.563 2.937.282 1.496.282 3.405.564 9.21.282 1.587.282.945.846 4.367.846 14.626.282 3.727.564 14.13.564 4.832.282 1.548.282-8.604.564-55.618.846-79.657.563-29.193.564-14.718.564-7.05.282-2.313.282-.65.282 1.465.282 2.723.282 4.456.564 18.438.564 21.536.564 13.24 3.383 63.046.282 4.358.282 2.607.282 1.243.564 4.665.282.635.282-.59.282.558.846 4.395.282 1.218.282.277.282 1.156.282 5.93.564 16.836.564 3.843.564 11.456.282 2.362.281.995.282-2.344.282-12.697.564-54.168.564-56.369.282-19.476.846-30.663.282-7.439.282-2.676.564-2.202.282.775.564 8.661.282 5.792.564 19.092.564 19.256.846 17.64.563 7.475.564 7.06 1.128 17.882.846 11.575.564 8.53.564 17.6.282 4.193.282.747.282 2.58.282 4.194.282 1.4.564-4.525.282.227.564 6.4.281 3.256.282 4.702 1.128 32.325.282 1.906.282-10.499.564-59.534.564-56.195.564-30.785.846-24.888.282-4.11.282-1.803.282-.597.282 1.675.564 12.22.845 20.58.564 17.331.846 17.042.282 5.798.282 3.106.564 1.93.564 5.071.282 1.354.282 1.984.564 7.245.282 2.15.282 3.664 1.41 26.22.282 2.56.282 1.312.282 3.585.845 16.712.282 2.807.282.764.282 1.835.846 11.331.846 8.2.282-.457.282-7.922.282-21.558.564-63.598.282-19.939.846-30.287 1.128-23.4.281-2.192.282 1.078.564 3.33.282 3.445.282 5.171.282 7.458.846 28.07.564 6.459.564 12.594.282 3.433.564 2.542.564 3.924.564.054.282 2.786.564 6.76.282 2.725.845 20.244.282 2.265.282 5.179.564 17.399.282 3.984.282 2.12.282 3.237.846 16.069.282 1.36.282-.9.282 1.251.846 9.994.282 1.804.282-6.287.282-20.348.846-84.369.282-21.045.281-12.589.846-12.859.282-5.954.282-1.673.282-.065.282-2.694.282-4.15.282-.393.282 5.232.846 25.82.564 20.832.564 7.347.282 2.926.282 1.724.282 1.006.564 6.246.282 1.074.282.261.563 4.108.282.144.282.89.564 5.442.282 1.26.564 5.63.282-.677.282-1.322.282 4.583.564 16.37.282 3.527.282 7.133.564 25.467 1.128 21.387.282-2.723.282-5.683.282 1.369.282 5.95.281-2.418.282-17.31.846-75.031.564-31.739.564-17.984.564-12.818.282-2.503.282 1.76 1.128 14.057.564 17.043.564 18.17.564 9.604.564 13.286.281 2.545.282.403.282 1.757.282 2.872.282.075.564-4.92.564 1.787.282.02.282 1.11.282 1.563.282.38.282 1.377.282 2.118.282-2.457.564-11.888.282.283.282-1.885.282-5.742.282-2.13.564 8.227.282-.686.281-3.264.282-1.2.564 5.506.282-.17.282.592.282 8.07.282 12.096.282 5.973.282-1.318.282.152.282 4.03.282 1.65.564-6.1.282.555.282 1.79.282.838.282.306.282-.567 1.41-9.373.282-.044.281-.455.564-4.194.282.11.282-.453.282-1.912.282 1.24.564 9.3.564-1.145.564 3.39.282.163.282 2.07.282 2.987.282.969.282.559.282 2.938.282 1.696.564-3.846.846 10.919.281 2.051 1.41 25.658.564 6.512.282 5.974.282 3.232.282-7.897.282-20.6 1.128-106.207.564-19.985.564-11.741.282-4.425.282-1.735.282 1.045.282 2.391.282 3.61.563 16.178.846 25.14.564 9.817.564 5.84.846 4.205.282.94.564 6.165.282.763.282.162.846 8.4.564-2.175.282-.702.282.216.564 9.174.281.215.282-2.004.282 2.482.282 3.62.282-1.237.282-3.746.282.664.282 3.028.564 2.11.846 14.488.282.344.282 1.085.282 1.552.282-.537.564-7.882.282-.759.282.662.564-1.811.282-.058.282-.41.281-1.915.564-1.91.564-2.212.282.879.282-.742.282-.353.282 1.78.282 3.51.282.305.282.857.282 3.193.282 4.64.564 2.102.564 2.793.282-1.554.564 3.278.282 4.18.282.634.282 4.144.282-.723.281 6.715h0" clip-path="url(#pac118ae77b)" style="fill:none;stroke:#1f77b4;stroke-width:1.5;stroke-linecap:square"/><path id="patch_3" d="M71.308 266.112V0" style="fill:none;stroke:gray;stroke-width:.8;stroke-linejoin:miter;stroke-linecap:square"/><path id="patch_4" d="M685.107 266.112V0" style="fill:none;stroke:#000;stroke-width:.8;stroke-linejoin:miter;stroke-linecap:square"/><path id="patch_5" d="M71.308 266.112h613.8" style="fill:none;stroke:gray;stroke-width:.8;stroke-linejoin:miter;stroke-linecap:square"/><path id="patch_6" d="M71.308 0h613.8" style="fill:none;stroke:#000;stroke-width:.8;stroke-linejoin:miter;stroke-linecap:square"/></g></g><defs><clipPath id="pac118ae77b"><path d="M71.308 0h613.8v266.112h-613.8z"/></clipPath></defs></svg>