<svg xmlns="http://www.w3.org/2000/svg" xmlns:xlink="http://www.w3.org/1999/xlink" width="913.477" height="377.053" viewBox="0 0 685.107 282.79"><defs><style>*{stroke-linejoin:round;stroke-linecap:butt}</style></defs><g id="figure_1"><path id="patch_1" d="M0 282.79h685.107V0H0v282.79z" style="fill:none"/><g id="axes_1"><path id="patch_2" d="M71.308 266.112h613.8V0h-613.8v266.112z" style="fill:none"/><g id="matplotlib.axis_1"><g id="xtick_1"><g id="line2d_1"><defs><path id="m88eb09724f" d="M0 0v3.5" style="stroke:gray;stroke-width:.8"/></defs><use xlink:href="#m88eb09724f" x="99.207" y="266.112" style="fill:gray;stroke:gray;stroke-width:.8"/></g><g id="text_1" style="fill:gray" transform="matrix(.1 0 0 -.1 96.026 280.71)"><defs><path id="DejaVuSans-30" d="M2034 4250q-487 0-733-480-245-479-245-1442 0-959 245-1439 246-480 733-480 491 0 736 480 246 480 246 1439 0 963-246 1442-245 480-736 480zm0 500q785 0 1199-621 414-620 414-1801 0-1178-414-1799Q2819-91 2034-91q-784 0-1198 620-414 621-414 1799 0 1181 414 1801 414 621 1198 621z" transform="scale(.01563)"/></defs><use xlink:href="#DejaVuSans-30"/></g></g><g id="xtick_2"><use xlink:href="#m88eb09724f" id="line2d_2" x="168.958" y="266.112" style="fill:gray;stroke:gray;stroke-width:.8"/><g id="text_2" style="fill:gray" transform="matrix(.1 0 0 -.1 159.414 280.71)"><defs><path id="DejaVuSans-35" d="M691 4666h2478v-532H1269V2991q137 47 274 70 138 23 276 23 781 0 1237-428 457-428 457-1159 0-753-469-1171Q2575-91 1722-91q-294 0-599 50Q819 9 494 109v635q281-153 581-228t634-75q541 0 856 284 316 284 316 772 0 487-316 771-315 285-856 285-253 0-505-56-251-56-513-175v2344z" transform="scale(.01563)"/></defs><use xlink:href="#DejaVuSans-35"/><use xlink:href="#DejaVuSans-30" x="63.623"/><use xlink:href="#DejaVuSans-30" x="127.246"/></g></g><g id="xtick_3"><use xlink:href="#m88eb09724f" id="line2d_3" x="238.708" y="266.112" style="fill:gray;stroke:gray;stroke-width:.8"/><g id="text_3" style="fill:gray" transform="matrix(.1 0 0 -.1 225.982 280.71)"><defs><path id="DejaVuSans-31" d="M794 531h1031v3560L703 3866v575l1116 225h631V531h1031V0H794v531z" transform="scale(.01563)"/></defs><use xlink:href="#DejaVuSans-31"/><use xlink:href="#DejaVuSans-30" x="63.623"/><use xlink:href="#DejaVuSans-30" x="127.246"/><use xlink:href="#DejaVuSans-30" x="190.869"/></g></g><g id="xtick_4"><use xlink:href="#m88eb09724f" id="line2d_4" x="308.457" y="266.112" style="fill:gray;stroke:gray;stroke-width:.8"/><g id="text_4" style="fill:gray" transform="matrix(.1 0 0 -.1 295.733 280.71)"><use xlink:href="#DejaVuSans-31"/><use xlink:href="#DejaVuSans-35" x="63.623"/><use xlink:href="#DejaVuSans-30" x="127.246"/><use xlink:href="#DejaVuSans-30" x="190.869"/></g></g><g id="xtick_5"><use xlink:href="#m88eb09724f" id="line2d_5" x="378.207" y="266.112" style="fill:gray;stroke:gray;stroke-width:.8"/><g id="text_5" style="fill:gray" transform="matrix(.1 0 0 -.1 365.483 280.71)"><defs><path id="DejaVuSans-32" d="M1228 531h2203V0H469v531q359 372 979 998 621 627 780 809 303 340 423 576 121 236 121 464 0 372-261 606-261 235-680 235-297 0-627-103-329-103-704-313v638q381 153 712 231 332 78 607 78 725 0 1156-363 431-362 431-968 0-288-108-546-107-257-392-607-78-91-497-524-418-433-1181-1211z" transform="scale(.01563)"/></defs><use xlink:href="#DejaVuSans-32"/><use xlink:href="#DejaVuSans-30" x="63.623"/><use xlink:href="#DejaVuSans-30" x="127.246"/><use xlink:href="#DejaVuSans-30" x="190.869"/></g></g><g id="xtick_6"><use xlink:href="#m88eb09724f" id="line2d_6" x="447.957" y="266.112" style="fill:gray;stroke:gray;stroke-width:.8"/><g id="text_6" style="fill:gray" transform="matrix(.1 0 0 -.1 435.233 280.71)"><use xlink:href="#DejaVuSans-32"/><use xlink:href="#DejaVuSans-35" x="63.623"/><use xlink:href="#DejaVuSans-30" x="127.246"/><use xlink:href="#DejaVuSans-30" x="190.869"/></g></g><g id="xtick_7"><use xlink:href="#m88eb09724f" id="line2d_7" x="517.707" y="266.112" style="fill:gray;stroke:gray;stroke-width:.8"/><g id="text_7" style="fill:gray" transform="matrix(.1 0 0 -.1 504.983 280.71)"><defs><path id="DejaVuSans-33" d="M2597 2516q453-97 707-404 255-306 255-756 0-690-475-1069Q2609-91 1734-91q-293 0-604 58T488 141v609q262-153 574-231 313-78 654-78 593 0 904 234t311 681q0 413-289 645-289 233-804 233h-544v519h569q465 0 712 186t247 536q0 359-255 551-254 193-729 193-260 0-557-57-297-56-653-174v562q360 100 674 150t592 50q719 0 1137-327 419-326 419-882 0-388-222-655t-631-370z" transform="scale(.01563)"/></defs><use xlink:href="#DejaVuSans-33"/><use xlink:href="#DejaVuSans-30" x="63.623"/><use xlink:href="#DejaVuSans-30" x="127.246"/><use xlink:href="#DejaVuSans-30" x="190.869"/></g></g><g id="xtick_8"><use xlink:href="#m88eb09724f" id="line2d_8" x="587.457" y="266.112" style="fill:gray;stroke:gray;stroke-width:.8"/><g id="text_8" style="fill:gray" transform="matrix(.1 0 0 -.1 574.732 280.71)"><use xlink:href="#DejaVuSans-33"/><use xlink:href="#DejaVuSans-35" x="63.623"/><use xlink:href="#DejaVuSans-30" x="127.246"/><use xlink:href="#DejaVuSans-30" x="190.869"/></g></g><g id="xtick_9"><use xlink:href="#m88eb09724f" id="line2d_9" x="657.207" y="266.112" style="fill:gray;stroke:gray;stroke-width:.8"/><g id="text_9" style="fill:gray" transform="matrix(.1 0 0 -.1 644.482 280.71)"><defs><path id="DejaVuSans-34" d="M2419 4116 825 1625h1594v2491zm-166 550h794V1625h666v-525h-666V0h-628v1100H313v609l1940 2957z" transform="scale(.01563)"/></defs><use xlink:href="#DejaVuSans-34"/><use xlink:href="#DejaVuSans-30" x="63.623"/><use xlink:href="#DejaVuSans-30" x="127.246"/><use xlink:href="#DejaVuSans-30" x="190.869"/></g></g></g><g id="matplotlib.axis_2"><g id="ytick_1"><g id="line2d_10"><defs><path id="m2e5ed1bed3" d="M0 0h-3.5" style="stroke:gray;stroke-width:.8"/></defs><use xlink:href="#m2e5ed1bed3" x="71.308" y="243.678" style="fill:gray;stroke:gray;stroke-width:.8"/></g><g id="text_10" style="fill:gray" transform="matrix(.16 0 0 -.16 0 249.757)"><defs><path id="DejaVuSans-2212" d="M678 2272h4006v-531H678v531z" transform="scale(.01563)"/></defs><use xlink:href="#DejaVuSans-2212"/><use xlink:href="#DejaVuSans-32" x="83.789"/><use xlink:href="#DejaVuSans-30" x="147.412"/><use xlink:href="#DejaVuSans-30" x="211.035"/><use xlink:href="#DejaVuSans-30" x="274.658"/><use xlink:href="#DejaVuSans-30" x="338.281"/></g></g><g id="ytick_2"><use xlink:href="#m2e5ed1bed3" id="line2d_11" x="71.308" y="194.207" style="fill:gray;stroke:gray;stroke-width:.8"/><g id="text_11" style="fill:gray" transform="matrix(.16 0 0 -.16 0 200.286)"><use xlink:href="#DejaVuSans-2212"/><use xlink:href="#DejaVuSans-31" x="83.789"/><use xlink:href="#DejaVuSans-30" x="147.412"/><use xlink:href="#DejaVuSans-30" x="211.035"/><use xlink:href="#DejaVuSans-30" x="274.658"/><use xlink:href="#DejaVuSans-30" x="338.281"/></g></g><g id="ytick_3"><use xlink:href="#m2e5ed1bed3" id="line2d_12" x="71.308" y="144.735" style="fill:gray;stroke:gray;stroke-width:.8"/><use xlink:href="#DejaVuSans-30" id="text_12" style="fill:gray" transform="matrix(.16 0 0 -.16 54.127 150.814)"/></g><g id="ytick_4"><use xlink:href="#m2e5ed1bed3" id="line2d_13" x="71.308" y="95.264" style="fill:gray;stroke:gray;stroke-width:.8"/><g id="text_13" style="fill:gray" transform="matrix(.16 0 0 -.16 13.408 101.343)"><use xlink:href="#DejaVuSans-31"/><use xlink:href="#DejaVuSans-30" x="63.623"/><use xlink:href="#DejaVuSans-30" x="127.246"/><use xlink:href="#DejaVuSans-30" x="190.869"/><use xlink:href="#DejaVuSans-30" x="254.492"/></g></g><g id="ytick_5"><use xlink:href="#m2e5ed1bed3" id="line2d_14" x="71.308" y="45.792" style="fill:gray;stroke:gray;stroke-width:.8"/><g id="text_14" style="fill:gray" transform="matrix(.16 0 0 -.16 13.408 51.871)"><use xlink:href="#DejaVuSans-32"/><use xlink:href="#DejaVuSans-30" x="63.623"/><use xlink:href="#DejaVuSans-30" x="127.246"/><use xlink:href="#DejaVuSans-30" x="190.869"/><use xlink:href="#DejaVuSans-30" x="254.492"/></g></g></g><path id="line2d_15" d="m99.207 144.643.282.18.282-.172.282.165.282-.158.282.152.282-.146.282.14.282-.135.282.13.282-.126.282.123.282-.12.282.116.282-.112.282.11.282-.107.282.104.282-.102.282.1.282-.098.282.095.282-.093.282.092.282-.09.282.088.281-.087.282.086.282-.085.282.084.282-.083.282.082.282-.081.282.08.282-.08.282.08.282-.08.282.082.282-.084.282.086.282-.089.282.093.282-.1.282.112.282-.133.282.183.282-.396.282.158.846 9.843.563 1.475.282.12.564-3.372.282.61.282 1.704.282-.072.282-.25.282 2.7.282 4.526.282 2.278.282-1.012.282-4.295.282-9.119.846-44.036.282-5.116.282.372.282 2.893.282 4.588.846 18.116 1.691 22.505.282.793.282-.567.282-1.102.282-.548.282 1.567.282 2.233.282-.96.282-2.865.282-.757.282.443.564-3.18.282-.124.282-.259.282-.563.564 3.066.282-.195.282-.682.282.554.281.3.282-.228.282.402.282.734.282.274.282.778.564 2.469.282-.009.282-.782.282-.326.564 4.344.282.36.282-.35.564 4.312.282-.47.282-1.006.282 1.192.846 5.2.564 5.157.281.106.282-3.84.282-10.1.846-50.837.282-6.826.282-.201.282 2.627.282 5.177.846 23.897.564 7.509.564 3.094.846 10.625.282 1.27.282-.23.564-4.312.282-.565.282.518.281-.553.282-1.34.282-.32.282.132.282-.356.282.073.282.65.282-.711.282-1.644.282-.186.282.942.282-.078.282-.527.282.085.282.377.282 1.301.564 5.246.282.247.282.746.282 1.704.282-.865.282-3.235.282-1.32.563 2.388.282-.135.282.98.846 11.426.564 1.069.282 1.948.282.79.564-3.557.282 1.21.282 2.488.282.98.282-1.405.282-4.545.282-9.769.846-47.056.282-5.631.282.194.282 3.76.845 19.982.282 6.38.282 3.033.282-.019.282 1.044 1.128 17.288.282.01.282-2.464.282-1.446.282.555.282.194.846-3.868.282-.217.564 1.159.846-.545.282.397.563 3.902.282.349.282-.333.564 1.233.282-.555.282.566.282 1.233.282-1.18.282-2.776.282-.606.564 2.938.282.77.846 3.537.564-.151.282 1.318.846 5.612.282 3.319.282 1.545.281-.481.282.535.564 3.046.282.756.282-.553.282-6.164.564-31.094.564-30.354.282-7.873.282-2.096.282 2.417.282 6.123.846 25.72.564 8.86.282 3.68.846 18.833.282 1.543.282-1.39.845-6.993.564-7.248.282-1.545.282.019.282.482.564 2.062.564.903.282 1.014.564.83.564 3.231.564-.783.282.827.282-.025.282-.22.564 4.288.563.087.846 5.877 1.41 7.375.282-1.553.282-2.644.282-.22.846 3.782.564 4.863.282-2.528.282-8.57.564-34.396.564-32.77.282-7.744.282-3.863.281 1.089.282 7.608.846 30.395.564 14.416.564 8.22.564 9.839.282 1.172.282-1.988.846-11.522.282.558.282 2.32.282 1.11.282-.945.282-.23.282 1.316.282-.676.282-2.75.282.397.563 7.772.282.353.282-.002.564.737.564 2.899.282.062.282.835.564 7.1.282.125.282-.461.282 1.053.282.458.282-.524.282.999.282 2.192.564 1.758.564 4.827.282-.692.282-1.01.282 1.473.563 4.133.564 3.48.564 3.695.282-2.757.282-10.734 1.41-88.275.282-6.221.282-3.472.282 1.293.282 8.656 1.128 44.069.282 9.879 1.127 18.874h.282l.564-6.718.564-4.572.282-2.5.282.002.564 4.675.282-.703.282-1.588.282.838.282 2.692.282 1.08.282-.272.282 2.331.282 4.818.282 2.465.282-.374.282 1.273.282 2.624.282-1.044.282-4.074.282-1.636.845 4.533.564 4.924.282.604.282 1.265.564 3.059.846 4.305.282.34.846 5.572.282.443.282 1.182.282 1.755.564 4.476.282-4.052.282-12.747 1.691-103.02.282-3.792.282 2.064.282 5.59.282 7.95 1.974 81.37.282-.572.282-2.234.564-2.592.282-3.14.564-8.983.282-1.572.282 2.779.564 8.062.845 3.272.282.351.846-3.641.282-.732.282.058.282 2.723.282 4.353.282 2.605.282.482.282.736.564 1.968.282 2.895.564 10.482.564 2.382.564 5.401.564 2.608.563 4.26.282 3.986.282 1.444.282-6.99.564-33.661 1.128-77.983.564-23.961.282-2.724.282 2.023.282 5.45.564 22.592.564 30.322.564 38.844.282 11.94.282 4.846.282-.942.845-11.84.282-2.395.282-1.402.282.023.282-.511.564-3.745.282.89.282.336.564-4.322.282 1.203 1.128 11.049.282.947.282-.782.282.568 1.128 9.734.845 8.515.564 6.71.564 1.828.846 5.031.282 1.977.282 3.904.282 5.692.282 2.41.282-6.02.564-31.474 1.41-107.647.282-9.77.282-4.493.282 1.426.282 7.555.845 39.749 1.128 72.78.282 3.502.282-2.077.564-10.252.282.77.282 2.794.282-.642.282-3.045.282-1.47.282-.844.564-6.164.282-.176.564 4.72 1.128 12.462.281.402.282.718.282 1.4.282.02.282-2.203.282-1.027 1.41 11.787.564 4.135.564 8.062.282 2.99.846 15.547.282 1.69.282 2.92.282-1.597.282-13.4.846-80.297.845-73.128.282-9.796.282 3.034.564 12.428.282 5.566.846 26.28.282 13.41.846 61.95.282 9.355.282 3.854.282.259 1.128-9.54.846-6.77.281 1.412.282.74.564-2.522.282 1.749.846 7.799.282 2.426.282.139.282-1.978.282-.875.282 2.017.564 5.324.282 1.91.564 8.356.564 7.098.564 6.545.846 11.299.845 11.122.282 4.5.282 1.59.282-6.397.282-16.686.846-83.763.564-54.157.282-18.564.282-8.261.282.893.282 3.328.282 1.756.282 3.235.846 23.082.282 12.482 1.128 67.045.281 11.318.282 6.771.282 3.622.282.6.564-5.036.282.235.282.054.282-2.182.282-1.306.564 2.099.846-4.735.282.079.282.228.282.066.282.436.282 2.085.564 7.073.282.323.282-1.374.282.35.563 5.506.282 1.81.282 3.96.564 14.589.282 4.323.846 7.28 1.128 14.987.564 8.382.282-4.453.282-16.845.846-82.622.564-60.057.282-15.601.282-4.308.282-1.54.281-.304.564 5.803.564-3.942.282 4.694.846 35.485.846 43.16 1.128 33.039.564 12.288.282 4.048.282 1.782.282-.469 1.41-6.059 1.973-4.957.564-.067.282.864.282 3.33.564 9.726.564 6.555.564 8.505.564 5.126.846 12.271.282-.308.282.778.563 7.391.282.074.282-6.327.282-16.74 1.41-140.672.282-10.67.282-.226.282 1.435.846-4.314.282-.897.282 1.325.282 6.886.564 23.989 1.128 53.329.563 15.074.846 13.103.564 10.676.282 1.76.564 1.819.282-.241.564-3.203.282-.052.282.682.282 1.117.564 2.874.282.161.282.548.564 2.683.282.984.282 2.39 1.973 24.327 1.974 40.565.282-8.464.564-51.67.846-101.217.282-19.07.846-25.197.564-16.244.282-4.856.282-1.811.281 2.335.282 9.123 1.692 84.49.564 28.029.564 24.811.282 5.176.564 4.558.282 1.77.282.537.846-6.866.282.234.282-2.288.282-3.658.282-2.167.282-.72.281.762.564 6.724.282 3.507 1.128 21.363 1.41 19.96 1.41 15.902 1.128 19.85.282-3.428.282-17.438.563-61.096.846-94.525.846-38.805.282-10.181.282-4.104.564-2.874.282 1.509.282 6.924.564 24.87.564 29.364 2.82 96.863.281 4.225.564 4.069.282-1.453.282-3.839.282-1.891.282-.626.564-2.898.282-.139.564-2.268.282-.28.282-2.77.282-4.768.282-.746.564 9.634.564 13.174.564 11.533.845 10.418.282 2.077.282 3.534.564 9.21.282 2.934.282 4.264.282 6.127.282 2.97.282-5.09.282-12.586.282-19.969 1.41-142.03.564-27.357.282-4.14.564-3.479h.282l.282 1.885.282 4.728.281 9.407 1.692 76.351.846 20.06.564 16.62 1.41 24.555.282.413.282-2.382.282.04.282 1.586.282-.793.282-1.46.564 1.557.282-1.017.281-.084 1.692 12.24 2.256 33.826.564 10.982.282 3.693.564 10.467.282-2.11.282-12.958.282-24.46 1.127-133.563.282-16.863.282-9.68.564-9.402.282-3.15.282-1.09.282.449.282 2.67.282 7.533 1.692 67.077.564 14.574.846 15.005.282-.073.282-.533.282 3.21.563 7.654.564 5.372.282-1.344.282-3.781.282-.513.564 7.019.282 1.83.282 3.26.846 15.474.564 4.625.282 2.147.564 7.43.564 8.67.564 9.128.282 3.292.564 12.986.281 5.96.564 8.082.564 13.905.282-.197.282-11.463.282-25.073L417.26 79.31l.282-14.477.564-13.136.282-3.544.282-1.76.282-.097.282.203.282 1.04.282 4.934 1.973 67.926.564 9.158.846 6.142.282.555.282-.298.282.72.282-.463.564-5.434.846 2.53.846 12.019.282-.281.282 1.337.564 4.056.282 2.014.845 9.775.564 10.305.564 9.496.282 3.815.846 14.805.282 1.378.282 2.826.564 13.23.846 22.182.564 11.474.282 1.908.282-8.76.282-23.388 1.127-133.198.282-15.41.282-9.317.846-15.167.282-3 .282 1.248.564 7.363.564 16.684.564 23.253.564 24.748 1.128 19.982.282 1.43.564 4.162.282-3.192.282-4.846.281-1.4.282-.434.564-6.172.282 2.803.282 5.173.282 1.782.282-.783.282 1.251.282 3.413.282 1.747.282-.949.282-.084.282 3.384.564 9.332.846 11.22.846 11.506.282 2.72.282 5.706.564 14.268.845 11.362.564 10.886 1.128 31.046.282-1.45.282-16.82 1.128-135.352.282-16.883.282-9.725 1.128-19.103.282-.54.282 2.51.282 4.391.282 7.626 1.127 43.856.564 16.38 1.128 15.703.564 5.947.282 1.62.282-.785.282-1.697.564-1.774 1.41-13.262.282.141.282.71.282-.242.281.801.564 4.643.282 1.622 1.128 13.285.846 22.133.846 17.958.564 8.05 1.128 18.28.282 2.878.282-2.344.282-13.129 1.127-96.565.846-28.068.564-16.23.282-2.168.282 1.705.282 2.778.282 5.186 1.692 56.468.564 7.217.564 4.986.282 1.289.282.35.282-.31 1.127-2.77.282.366.564 2.4.564-1.091.282.908.282 1.51.282.796.282-.135.564-2.55.282.688.564 4.815.282-.548.282-.069.564 4.738.846 8.518 1.127 16.933.564 3.5.282 3.192.846 17.89.564 11.207.282-.018.282-14.9.846-74.213.282-12.617 1.41-33.106.564-5.472.282 1.108.282 4.306.282 6.669 1.127 35.558.564 10.677.282 2.574.282.553.282 1.264.564 4.565.282.112.282-.192.282.553.282.233.282-.749.282-.296.282.608.282-.201.282-1.226.282.356.564 4.01.564-1.153.281 1.1.564 2.593.282.808.282 1.224.564 3.748.564 2.001.564 4.322.564-.55.846 5.78.282 1.609 1.692 25.099.564 10.122.282 1.995.281-5.82.282-16.119.564-43.457.282-13.66.846-22.088.564-8.462.282-3.273.282-1.773.282.938.564 4.727.282 6.14.846 27.06.846 13.145.282 1.78.282.296.282.069.281.263.282.525.282 1.09.282.506.282-2.075.564-7.39.282-.984.282.097.282.627 1.128 6.394.282.327.282 1.037.564 4.227.282.9.282.486.282 1.304.846 6.454.845 8.9.564 2.412 1.41 9.388.564 6.25.564 2.182.282.536.282-5.206.846-42.525 1.41-33.062.282-3.743.282-2.002.282.024.563 2.357.282 2.053.564 10.193.846 14.213.282 3.542.282.614.282.208.564 5.706.846 3.606.282 1.601.564 1.162.564 1.677.282-.247.846-5.8.281.047.282.482.282.934.282.307.282-2.755.282-5.051.282-2.793.282 1.604.564 7.707.282 2.12.564 1.077.282 2.61.564 7.97.564 4.788.846 6.034.282 1.157.282 2.246 1.691 20.962.282-3.058 1.41-59.644.564-13.587.846-13.158.282-.955.282.3.282 1.001.282 1.532.282 2.675.564 12.65.846 15.14.282 4.71.281.044.282-2.485.282-.712.282.3.282-.567.282.527.282 2.272.282 1.28.282-.559.282-.292.282.363.564.171 1.41 4.873.564.602.564 1.49.282.133.282 1.348.563 6.03.282.229.282 1.043.564 6.032.564-4.51.282 1.105.282 2.21.282 1.205.282 1.963.564 4.677.282 1.687.564 4.848.282.73.282 2.462.564 8.221.282-2.028.282-7.497 1.128-43.051.563-12.736.846-12.355.282-2.276.282.587.282 1.22.282 1.876 1.41 21.313.282 1.334.282-1.897.282.253.564 7.79.564 4.18.282 2.678.282.402.282-1.2.845-1.766.282.03.282.984.282-.124.282-1.455.282-.586.282.953.282.103.282-1.354.282.187.564 7.095.282 1.436.282.805.564 3.591.564 1.252.282 1.362.282 2.395.564 7.848.282.77.282-1.429.563-1.622.282-2.248.282-.58.564 6.398.282 1.427.564 6.034.282-1.531 1.692-43.01.564-7.826.564-9.582.282-2.146.282-.18.564 2.226.282 2.797 1.127 19.755.282 2.112.282-2.337.282-4.01.282-1.136.282.36.282-.227.282 1.075.282 1.848.282-1.385.282-2.713.282.586.282 1.336.282-1.504.282.78.564 12.935.282.8.282-.495.564 2.324.282.004 1.41 4.333.563-.155.846 5.133.282.465.282.764.282 1.261.846 5.748.564 1.92.564 2.86.282.66.282 1.604.564 7.506.282 1.367.282-3.355.563-15.635 1.128-33.055.282-1.622.282-2.468.564-6.446.564-3.728.564-1.845.282-.369.282 1.81 1.128 18.684.282 2.81.282.81.564-4.11.282 1.837.563 8.187.564 2.484.282-.014.282-1.504.282-.574.564 2.955.282 1.05.282 2.245.282 1.295.846-7.191.282.477.282-.838.282.271.846 9.951.282-.31.846-1.844.282 1.097.563 3.909.282.254.282 1.442.282 2.411.282 1.3.282.58.282 2.015.564 5.418.282 1.411.282-.61.282-2.14.282.493.282 3.759.282.533 1.692-40.746.282-2.797.282-3.907.564-12.784.281-1.177.846 7.067.564 8.742.564 10.546.282 2.437.282-.24.282.641.282 2.871.282 1.469.282-.723.282 1.04.282 4.118.282 2.197.282-2.714.282-4.1.282-.916.282.72.282-1.178.282-1.735.282 2.133.282 4.26.281 1.32.282-.93.282 1.08.282-.144.282-7.266.282-11.342.282-5.907.282 2.106.564 8.726.846 6.544.564 1.834.564 6.878.282-.248.282-1.597.282.876.282 1.905.282.253.282.919.564 4.017.281.723.282 4.284.282 7.243.282 3.96.282-3.287 1.692-39.605.564-4.506.282-1.07.282.27.282.47.282-.1.282.977.282 2.792 1.41 19.949.282-.302.282-2.883.281-1.44.282.449.282-1.41.282-2.115.282-.067.282.939.282-.104.564 1.695.282-1.078.282-.278.564 8.121.282-.177.282-1.226.564 1.968.282-.182.282.523.282 1.307.282.341.564 2.258.282-.934.282-3.198.281-1.24.564 2.193.282-.209.282.73.282 2.388.564 6.562.564 2.738.282 1.434.282-1.025.282-2.215.282-1.225.282 1.663.564 2.344.564 3.585.282-3.794.564-16.242.564-14.98.282-2.56.281-5.272h0" clip-path="url(#p754c1517a1)" style="fill:none;stroke:#1f77b4;stroke-width:1.5;stroke-linecap:square"/><path id="patch_3" d="M71.308 266.112V0" style="fill:none;stroke:gray;stroke-width:.8;stroke-linejoin:miter;stroke-linecap:square"/><path id="patch_4" d="M685.107 266.112V0" style="fill:none;stroke:#000;stroke-width:.8;stroke-linejoin:miter;stroke-linecap:square"/><path id="patch_5" d="M71.308 266.112h613.8" style="fill:none;stroke:gray;stroke-width:.8;stroke-linejoin:miter;stroke-linecap:square"/><path id="patch_6" d="M71.308 0h613.8" style="fill:none;stroke:#000;stroke-width:.8;stroke-linejoin:miter;stroke-linecap:square"/></g></g><defs><clipPath id="p754c1517a1"><path d="M71.308 0h613.8v266.112h-613.8z"/></clipPath></defs></svg>