<svg xmlns="http://www.w3.org/2000/svg" xmlns:xlink="http://www.w3.org/1999/xlink" width="913.477" height="377.053" viewBox="0 0 685.107 282.79"><defs><style>*{stroke-linejoin:round;stroke-linecap:butt}</style></defs><g id="figure_1"><path id="patch_1" d="M0 282.79h685.107V0H0v282.79z" style="fill:none"/><g id="axes_1"><path id="patch_2" d="M71.308 266.112h613.8V0h-613.8v266.112z" style="fill:none"/><g id="matplotlib.axis_1"><g id="xtick_1"><g id="line2d_1"><defs><path id="m3df71770be" d="M0 0v3.5" style="stroke:gray;stroke-width:.8"/></defs><use xlink:href="#m3df71770be" x="99.207" y="266.112" style="fill:gray;stroke:gray;stroke-width:.8"/></g><g id="text_1" style="fill:gray" transform="matrix(.1 0 0 -.1 96.026 280.71)"><defs><path id="DejaVuSans-30" d="M2034 4250q-487 0-733-480-245-479-245-1442 0-959 245-1439 246-480 733-480 491 0 736 480 246 480 246 1439 0 963-246 1442-245 480-736 480zm0 500q785 0 1199-621 414-620 414-1801 0-1178-414-1799Q2819-91 2034-91q-784 0-1198 620-414 621-414 1799 0 1181 414 1801 414 621 1198 621z" transform="scale(.01563)"/></defs><use xlink:href="#DejaVuSans-30"/></g></g><g id="xtick_2"><use xlink:href="#m3df71770be" id="line2d_2" x="168.958" y="266.112" style="fill:gray;stroke:gray;stroke-width:.8"/><g id="text_2" style="fill:gray" transform="matrix(.1 0 0 -.1 159.414 280.71)"><defs><path id="DejaVuSans-35" d="M691 4666h2478v-532H1269V2991q137 47 274 70 138 23 276 23 781 0 1237-428 457-428 457-1159 0-753-469-1171Q2575-91 1722-91q-294 0-599 50Q819 9 494 109v635q281-153 581-228t634-75q541 0 856 284 316 284 316 772 0 487-316 771-315 285-856 285-253 0-505-56-251-56-513-175v2344z" transform="scale(.01563)"/></defs><use xlink:href="#DejaVuSans-35"/><use xlink:href="#DejaVuSans-30" x="63.623"/><use xlink:href="#DejaVuSans-30" x="127.246"/></g></g><g id="xtick_3"><use xlink:href="#m3df71770be" id="line2d_3" x="238.708" y="266.112" style="fill:gray;stroke:gray;stroke-width:.8"/><g id="text_3" style="fill:gray" transform="matrix(.1 0 0 -.1 225.982 280.71)"><defs><path id="DejaVuSans-31" d="M794 531h1031v3560L703 3866v575l1116 225h631V531h1031V0H794v531z" transform="scale(.01563)"/></defs><use xlink:href="#DejaVuSans-31"/><use xlink:href="#DejaVuSans-30" x="63.623"/><use xlink:href="#DejaVuSans-30" x="127.246"/><use xlink:href="#DejaVuSans-30" x="190.869"/></g></g><g id="xtick_4"><use xlink:href="#m3df71770be" id="line2d_4" x="308.457" y="266.112" style="fill:gray;stroke:gray;stroke-width:.8"/><g id="text_4" style="fill:gray" transform="matrix(.1 0 0 -.1 295.733 280.71)"><use xlink:href="#DejaVuSans-31"/><use xlink:href="#DejaVuSans-35" x="63.623"/><use xlink:href="#DejaVuSans-30" x="127.246"/><use xlink:href="#DejaVuSans-30" x="190.869"/></g></g><g id="xtick_5"><use xlink:href="#m3df71770be" id="line2d_5" x="378.207" y="266.112" style="fill:gray;stroke:gray;stroke-width:.8"/><g id="text_5" style="fill:gray" transform="matrix(.1 0 0 -.1 365.483 280.71)"><defs><path id="DejaVuSans-32" d="M1228 531h2203V0H469v531q359 372 979 998 621 627 780 809 303 340 423 576 121 236 121 464 0 372-261 606-261 235-680 235-297 0-627-103-329-103-704-313v638q381 153 712 231 332 78 607 78 725 0 1156-363 431-362 431-968 0-288-108-546-107-257-392-607-78-91-497-524-418-433-1181-1211z" transform="scale(.01563)"/></defs><use xlink:href="#DejaVuSans-32"/><use xlink:href="#DejaVuSans-30" x="63.623"/><use xlink:href="#DejaVuSans-30" x="127.246"/><use xlink:href="#DejaVuSans-30" x="190.869"/></g></g><g id="xtick_6"><use xlink:href="#m3df71770be" id="line2d_6" x="447.957" y="266.112" style="fill:gray;stroke:gray;stroke-width:.8"/><g id="text_6" style="fill:gray" transform="matrix(.1 0 0 -.1 435.233 280.71)"><use xlink:href="#DejaVuSans-32"/><use xlink:href="#DejaVuSans-35" x="63.623"/><use xlink:href="#DejaVuSans-30" x="127.246"/><use xlink:href="#DejaVuSans-30" x="190.869"/></g></g><g id="xtick_7"><use xlink:href="#m3df71770be" id="line2d_7" x="517.707" y="266.112" style="fill:gray;stroke:gray;stroke-width:.8"/><g id="text_7" style="fill:gray" transform="matrix(.1 0 0 -.1 504.983 280.71)"><defs><path id="DejaVuSans-33" d="M2597 2516q453-97 707-404 255-306 255-756 0-690-475-1069Q2609-91 1734-91q-293 0-604 58T488 141v609q262-153 574-231 313-78 654-78 593 0 904 234t311 681q0 413-289 645-289 233-804 233h-544v519h569q465 0 712 186t247 536q0 359-255 551-254 193-729 193-260 0-557-57-297-56-653-174v562q360 100 674 150t592 50q719 0 1137-327 419-326 419-882 0-388-222-655t-631-370z" transform="scale(.01563)"/></defs><use xlink:href="#DejaVuSans-33"/><use xlink:href="#DejaVuSans-30" x="63.623"/><use xlink:href="#DejaVuSans-30" x="127.246"/><use xlink:href="#DejaVuSans-30" x="190.869"/></g></g><g id="xtick_8"><use xlink:href="#m3df71770be" id="line2d_8" x="587.457" y="266.112" style="fill:gray;stroke:gray;stroke-width:.8"/><g id="text_8" style="fill:gray" transform="matrix(.1 0 0 -.1 574.732 280.71)"><use xlink:href="#DejaVuSans-33"/><use xlink:href="#DejaVuSans-35" x="63.623"/><use xlink:href="#DejaVuSans-30" x="127.246"/><use xlink:href="#DejaVuSans-30" x="190.869"/></g></g><g id="xtick_9"><use xlink:href="#m3df71770be" id="line2d_9" x="657.207" y="266.112" style="fill:gray;stroke:gray;stroke-width:.8"/><g id="text_9" style="fill:gray" transform="matrix(.1 0 0 -.1 644.482 280.71)"><defs><path id="DejaVuSans-34" d="M2419 4116 825 1625h1594v2491zm-166 550h794V1625h666v-525h-666V0h-628v1100H313v609l1940 2957z" transform="scale(.01563)"/></defs><use xlink:href="#DejaVuSans-34"/><use xlink:href="#DejaVuSans-30" x="63.623"/><use xlink:href="#DejaVuSans-30" x="127.246"/><use xlink:href="#DejaVuSans-30" x="190.869"/></g></g></g><g id="matplotlib.axis_2"><g id="ytick_1"><g id="line2d_10"><defs><path id="m00d947514a" d="M0 0h-3.5" style="stroke:gray;stroke-width:.8"/></defs><use xlink:href="#m00d947514a" x="71.308" y="203.958" style="fill:gray;stroke:gray;stroke-width:.8"/></g><g id="text_10" style="fill:gray" transform="matrix(.16 0 0 -.16 0 210.037)"><defs><path id="DejaVuSans-2212" d="M678 2272h4006v-531H678v531z" transform="scale(.01563)"/></defs><use xlink:href="#DejaVuSans-2212"/><use xlink:href="#DejaVuSans-32" x="83.789"/><use xlink:href="#DejaVuSans-30" x="147.412"/><use xlink:href="#DejaVuSans-30" x="211.035"/><use xlink:href="#DejaVuSans-30" x="274.658"/><use xlink:href="#DejaVuSans-30" x="338.281"/></g></g><g id="ytick_2"><use xlink:href="#m00d947514a" id="line2d_11" x="71.308" y="141.508" style="fill:gray;stroke:gray;stroke-width:.8"/><use xlink:href="#DejaVuSans-30" id="text_11" style="fill:gray" transform="matrix(.16 0 0 -.16 54.127 147.586)"/></g><g id="ytick_3"><use xlink:href="#m00d947514a" id="line2d_12" x="71.308" y="79.057" style="fill:gray;stroke:gray;stroke-width:.8"/><g id="text_12" style="fill:gray" transform="matrix(.16 0 0 -.16 13.408 85.136)"><use xlink:href="#DejaVuSans-32"/><use xlink:href="#DejaVuSans-30" x="63.623"/><use xlink:href="#DejaVuSans-30" x="127.246"/><use xlink:href="#DejaVuSans-30" x="190.869"/><use xlink:href="#DejaVuSans-30" x="254.492"/></g></g><g id="ytick_4"><use xlink:href="#m00d947514a" id="line2d_13" x="71.308" y="16.607" style="fill:gray;stroke:gray;stroke-width:.8"/><g id="text_13" style="fill:gray" transform="matrix(.16 0 0 -.16 13.408 22.686)"><use xlink:href="#DejaVuSans-34"/><use xlink:href="#DejaVuSans-30" x="63.623"/><use xlink:href="#DejaVuSans-30" x="127.246"/><use xlink:href="#DejaVuSans-30" x="190.869"/><use xlink:href="#DejaVuSans-30" x="254.492"/></g></g></g><path id="line2d_14" d="m99.207 141.523.846-.032.846.034.846-.035.846.037.846-.04.846.043.846-.046.846.05.845-.056.282.06.282-.062.282.065.282-.068.282.071.282-.075.282.08.282-.084.282.089.282-.096.282.103.282-.11.282.12.282-.133.282.148.282-.167.282.191.282-.224.282.272.282-.347.282.482.282-.792.282 5.679.281 2.306.282-.533.282.657.282-.225.282.74.282.189.564 1.046.282.832.282.005.282.735.846 5.962.282.442.282.817.282.374.282-3.632 1.128-35.758.282-2.721.282-.239.282 2.48.845 10.582.564 5.26.282-.177.564-2.457.564-.918.282.563.282 2.37.564 6.91.282 1.703.282-.145.282-.54.282.246.282-.254.564-2.564.282-.15.564-1.805.282 1.105.282 2.8.281 1.228.282-.422.282.396.282 1.205.282-.225.282-1.387.282-.612.282.798.564 2.924.282.666.282-.135.282.197.282.928.282.43.282-.031.282.765.282 1.218.282.054.282-.574.282.19.564 1.116.282 1.742.563 4.869.282.06.282.565.282 1.722.282.39.282-2.99.282-6.322 1.128-36.43.282-.883.282 1.785.282 3.34.846 13.273.282 1.284.282-.18.564-.697.282-.217.282-.028.282.296.282.91.282 2.277.563 6.811.282.76.282-.185.564 2.576.282-.392.282-1.617.282-.788.282-.29.282-1.274.282-1.842.282-.739.282.677.564 1.772.282.364.282.55.564 1.543.564.844.282.641.282.178.282-.123.281.277.282.616.282.314.282.134.282.564.564 1.733.282-.094.282-.296.282.711.564 2.728.282.305.282.592.564 1.696.282.168.282-.899.282-4.603.846-30.255.282-4.505.282-.598.282 2.2 1.41 17.776.281-.165.282-.865.564-.332.282-.882.282.365.282 3.548.564 9.375.282 1.008.564-1.275.282-.07.282-.196.564-1.71.282-.189.282.073.282-.904.282-1.688.282-.832.281.645.282.951.282.364.282.125.564.926.564 1.28.564 1.938.282.38.282-.035.282.405.564 1.635.282.29.282 1.327.564 5.105.846 3.262.282.152.282-.858.282-.285.281.71.282-.69.282-5.224 1.128-37.71.282-3.214.282-.922.282 2.213.846 13.079.282 2.525.282 1.456.564.297 1.128 3.664.282 2.17.846 9.794.282.18.281-.434.282.136.282-.695.846-7.557.282-.215.564-1.284.282.747.564 2.098.282.719.564 2.416 1.974 4.046.282.86.282.437.282.8.845 5.13.282-.095.282.363.564 2.285.282.425.282 1.018.564 3.154.564 1.306.282-2.408.282-8.714.564-24.144.564-13.407.282-3.424.282 1.011.846 11.946.563 6.692.282 1.73.282.155.282-.102.282.728.846 3.452.846 9.681.282.646.846.033.282-.3.282-1.068.564-4.679.282-.66.564 1.847.564.767.282.734.282 1.233.845 4.987.564 1.128.846 2.966.282 1.09.282 1.682.564 5.369.282 1.51.282.69.564 2.407.282-.515.282-3.879.282-7.897 1.128-42.633.282-4.864.282-.882.281 3.323 1.128 21.797.282 2.458.282.502.564.113.564-1.382.282 1.747.564 9.882.282 1.878.282.12.564 2.353.282-.37.282-1.394.282-.65.282-.274.282-.79.282-.374 1.41 3.62.281-.263.282-.724.282.48.564 2.502.282.46.282.928 1.692 9.658.564 5.952.846 2.902.282-3.078.564-25.494.845-36.86.282-6.443.282 1.62 1.128 29.034.282 3.237.846 4.553.282-.182.282-.029.282 1.663.846 6.998.282 1.863.282.774.282-.11.282-.998.846-7.79.281-.261.564-2.119.282 1.493.564 6.37.282.382.282.92.282 2.017.282.82.564-1.277.564.225.282.965.564 4.417.564 1.485.564 2.592.282.825.846 7.302.282.48.281.908.282 1.395.282.476.282-1.416.282-4.319.282-8.563 1.41-59.684.282.135.282 6.55.846 25.781.282 5.784.282 3.168.564 1.92.282.769.282.007.282.198.282 2.221.563 6.242.282.548.282-.537.282-.91.846-3.438.846-.468.282.458.564 1.666.282.549.846 2.347.282.844.564 2.587.282-.117.282.563 1.127 8.568.282 1.679.564 1.59.564 3.309.282.875.846 4.39.282-1.177.282-.03.282.164.282-4.443.564-25.941.846-46.628.282-8.487.282-1.887.282 4.582 1.128 36.468.281 3.477.282 1.633.564 1.491.282 1.646.282 2.739.564 9.71.282 4.889.282 2.465.282.067.846-2.837.846-4.734.282-.577.282.075.846.776 1.127 1.936.564 1.09.282.098.282.236.846 1.8.282 1.658.564 6.37.282 1.538.282.332.282 1.05.282 1.587.282.12.282-1.095.282.126.564 3.374.282 1.156.564 3.132.282.63.563 2.443.282-2.117.282-8.86.564-30.726.846-48.049.282-7.216.282.028.282 6.646 1.128 39.518.282 4.136.282 1.38.282.585.564 2.494.282 3.101.846 22.655.282.5.282-1.577.281-.099.282.183.282-1.97.564-5.536.564-1.34.564-.92.282.045.846 1.41.282-.125.282.3.846 2.687.564 2.493.282.338.282 1.05.564 4.242.282.47.281 1.091.282 2.041.282.28.282-1.884.282-.743.564 2.638.282.143.282 1.134.564 3.85.282.898.846 4.21.282.143.282-4.376.282-11.792 1.128-67.088.282-10.76.282-2.158.282 4.985.563 21.193.564 20.4.564 4.466.282 2.226.282.541.282-.19.282 3.858.564 15.848.282 3.247.282.696.282-.167.282-1.457.564-4.02.282-1.162.846-4.618.282.162.564 1.3.282.333.281.543.564 2.472.282.428.282-.002.282.52.564 2.643.564 2.634.282.693.282 1.001 1.128 5.888.564 4.774 1.974 12.014.563 3.096.282-2.392.282-9.683.564-35.77.846-57.626.282-11.206.282-2.588.282 5.44 1.41 53.06.564 8.204.282 1.568.282 2.384.282 6.24.564 16.347.282 3.008.282-.48.563-3.802.282-.29.282.351.282-.69.564-3.464.282-.66.282.828.564 3.167.282-.819.282-1.292.282-.13.282.096.282-.632.282.15.846 5.463.282.143.282.636 1.41 6.655.563 3.938 1.41 8.177 1.128 7.92.282 1.725.282-.393.282-4.909.282-11.46.564-39.522.846-64.34.282-10.804.282-2.396.282 3.637.281 7.96 1.41 54.38.282 6.114.564 7.59.564 17.539.282 8.392.282 4.113.282.66.282-.778.846-4.148.846-4.296.282-.713.282-.234.282.18.845 2.113.282.375.282 1.285.564 3.164.846 1.957.282-.736.282-1.301.282.226.564 3.36.282.808.282 2.175.564 6.692.282 1.253.282 1.956.564 5.35.282.294.282.948.845 7.24.282.524.282-3.114.282-9.614.564-39.497.846-73.409.282-14.536.282-6.936.282-.182.282 4.566.282 8.13 1.692 70.737.564 13.72.564 22.428.282 5.222.282.064.281-1.51.282-2.469.564-7.083.282-1.19.282-.642.564-3.326.282-.557.282.443.564 2.028 1.128 5.53.564 1.05.846 3.134.282.437.282.864 1.127 6.122.564 5.615.282.934.282 1.946.564 8.304.282 1.264.282.698.846 6.11.282-.463.282-4.846.282-13.345.564-49.045.846-72.778.282-13.8.282-5.95.282-.04.282 3.812.281 7.716.564 26.99.846 42.93.846 32.427.564 16.608.282 4 .282.551.282-1.85 1.128-10.729.564-3.477.282-.99.282-.165.564 1.467.564 2.1.281 1.042.564 1.134.564 2.967.282.287.282-.336.282.543 1.692 10.272.846 11.092.282 2.665.564 8.328.282 1.686.282.547.282 1.922.282.821.282-6.308.281-15.828.564-50.908.846-80.924.282-13.944.282-6.796.282.088.282 6.592.564 24.664 2.256 106.824.282 8.107.282 2.154.282-1.719 1.691-17.413.282-1.93.564-1.923.282.521.282 3.548.564 8.3.564 3.441.282 2.102.282.294.282-.847.282.293 1.128 6.888.564 4.725.564 3.768.845 8.837 1.692 19.74.282.822.282-5.926.282-16.167.564-59.275.846-90.82.282-18.412.282-5.518.282 4.613.846 23.365.564 16.84.563 14.385.564 21.552.564 29.935.564 34.044.282 10.483.282 3.15.282-.938.282-1.458.282-2.78.564-7.76.282.377.282.1.564-3.678.282.51.282-.09.282-.842.282.886.564 3.536.282 1.614.563 5.464.564-.651.282 1.765.564 4.301.564 4.49.846 6.37 1.41 21.52 1.128 13.617.282-.342.282-8.617.282-20.407 1.691-174.767.282-1.41.564 10.09.564 15.975.846 23.345.564 15.3.564 24.369 1.128 66.079.282 6.74.282 1.49.282-1.63.845-10.334 1.692-9.272.282.487.564 5.754.282 1.094.282-.399.282.621.282 1.663.282.66.282-.317.282.757.564 3.434.282.791.282 1.427.846 7.374.564 8.757.845 14.667 1.128 13.942.282-1.226.282-8.51.282-18.978.564-63.086.846-94.552.282-14.602.282-2.264.282 6.299.564 16.774.564 9.705.846 23.967.281 10.333 1.692 88.205.282 3.19.282-1.315.282-1.872.564-1.773 1.692-13.302.282-.432.282 1.277.564 5.926.846 9.365.563 4.995.564 5.856.846 4.938 1.41 19.87.564 9.875.564 11.826.282 3.83.282 1.634.282-5.746.282-19.672.564-71.77.846-105.13.282-10.102.281 2.349 1.128 21.221.282 5.762.846 9.794.564 10.73.282 8.203 1.692 70.554.564 9.922.564 5.515.282.355.564-3.554.281-.087.282 1.22.282.718.282-.064.282.375.282.873.282.062.282-.709.282-.166.282.78.282 1.354.282 2.335.564 6.175.282 1.883.282 2.653.846 12.49.282 2.338.564 8.176 1.41 22.91.563 10.56.282 4.374.282 2.197.282-6.212.282-19.602.564-68.433.846-107.585.282-10.973.282.542 1.128 11.358.282 1.805.564 1.755.282.352.282 1.342.282 4.81.563 20.9 1.128 49.705.564 19.908.564 11.563.564 7.537.846 3.221.282.423.282-.234.282.563.846 3.779.564 4.146.282 1.098.564 4.47.563 4.303 1.128 11.668.282 1.545.282.356.282 1.273.564 9.576.846 15.819.846 14.926.282 1.616.282-9.51.564-50.816 1.128-135.422.282-4.13.563-1.86.282.226.282-.754.564-5.718.282 1.04.282 2.327.282 3.33.282 7.016.846 36.607.846 38.37.846 25.956.846 17.955.282 2.293.564 1.002.281 1.328.282.551.282-.733.282-.41.282.577.282-.156.282-1.3.282-.1 1.128 8.657 1.974 26.561.846 17.994.564 11.175 1.127 24.495.282-4.838.282-16.523.282-27.04 1.128-147.27.564-14.698.564-15.102.282-3.93.282-2.232.282-1.051.282.714.282 2.094.282 3.126.282 4.836.564 17.463 1.973 84.336.846 15.039.282 3.866.282 1.931.846 3.488.282.389.846.29.282.414.564 1.795.282 1.324.564 4.773 1.973 21.49.564 6.086.282 1.671.282 2.56 1.128 16.283.846 16.08.846 17.611.282-.206.282-10.848.282-24.394 1.128-147.615.563-24.525.564-18.384.282-2.675.282-.205.282.2.282 1.5.564 7.836.564 11.947.564 23.025.846 40.71 1.128 38.662.282 4.166.846 4.945.282-1.154.281-2.361.282-.596.282.544.564-.48.282.97.282.551.282-.485.282.613.846 6.28 1.974 31.048.282.434.282 1.446.564 5.622.282 1.407.282 2.535.845 10.755.564 7.819.564 8.12.282 3.344.564 8.828.282-1.993.282-13.436.282-26.874.846-115.288.564-36.223.564-19.793.282-3.75.282.197.282 1.81.282 3.26.845 15.577.282 7.898.564 23.825 1.128 56.026.846 20.725.282 2.592.282-.72 1.41-8.134.282-2.192.282-1.166.282.717 1.128 6.599 1.127 12.12.846 12.844 3.384 63.5.564 12.512.282-2.005.282-12.774.282-27.016.845-111.64.564-36.733.282-8.795.564-6.772.282-2.301.282-.614.282 1.604.282 3.197.564 11.885.564 15.258.846 34.784.564 20.066.282 7.049.846 11.153.282 2.64.282-.414.281-1.949.282-1.107.282-.204.282-1.029.564-4.246.282.26.282 1.249.282-.05.282-1.18.282-.24.282 1.183.564 3.894.564 6.898.564 8.023.564 6.194 1.128 21.756 1.127 19.822.846 16.581.282 2.878.282 4.42.564 11.26.282.277.282-8.848.282-23.35.846-112.935.564-35.96.282-7.258.564-5.34.282-2.437.282.085.564 7.638.563 10.995 1.128 32.21.846 26.34.564 11.147.564 4.31.282.13.564-1.904.282.31.282.84.846 4.109.282-.715.282.231.282 1.764.282.175.282-2.57.281-1.333 1.128 8.87.846 18.084.282 1.348.846 7.996.282 1.254.846 8.297.564 6.053.846 10.723 1.41 25.58.281.503.282-9.011.282-22.065.846-98.007.282-19.03.564-17.394.282-4.46.282-2.048.282.35.564 3.276.282 3.467 1.41 30.811 1.128 36.79.282 6.664.281 3.689.282.951.282.12.282-.341.282-2.118.564-7.163.282-2.124.282-.697.282.85.846 5.982.564 4.457.282 1.247.282 2.139 1.128 15.445 1.128 13.31 1.691 12.203.564 9.804.564 7.862.846 10.63.282-9.767 1.41-110.363.282-10.101.564-8.474.282-3.553.282-.885.282 4.164.563 10.297.282 4.268 1.41 30.832.564 13.135.564 7.314.282 2.482.282 1.133.564.937.282-.34 1.692-7.804.282-.17.845 4.023.282.106.282.295.282.959.282 1.65.564 6.454.846 10.16.282 1.889.564 1.613.564 5.571.846 7.437.564 4.827.846 10.004.845 14.058.282-2.795.282-13.041 1.128-86.56.564-14.694.564-9.542.282-.34.846 6.556.282 3.856 2.256 45.504.282 1.933.281 1.128.564 2.72.282.017 1.128-1.593.564-.069.846-.05.282-.13.282.969.564 4.558.564 2.23 1.128 7.009.564 3.101 2.255 14.513.282 1.306.282 2.573.846 9.967.282 2.198.564 6.424.282-1.964.282-10.428 1.128-67.402.564-14.84.564-7.915.281-1.4.282-.19.282 1.21.564 5.869 1.128 16.421.846 11.916.564 6.04.282.78.282-.904.564-3.495.846-6.915.282-3.104.282-1.187.282 3.491.563 12.23h0" clip-path="url(#pd44050a5cd)" style="fill:none;stroke:#1f77b4;stroke-width:1.5;stroke-linecap:square"/><path id="patch_3" d="M71.308 266.112V0" style="fill:none;stroke:gray;stroke-width:.8;stroke-linejoin:miter;stroke-linecap:square"/><path id="patch_4" d="M685.107 266.112V0" style="fill:none;stroke:#000;stroke-width:.8;stroke-linejoin:miter;stroke-linecap:square"/><path id="patch_5" d="M71.308 266.112h613.8" style="fill:none;stroke:gray;stroke-width:.8;stroke-linejoin:miter;stroke-linecap:square"/><path id="patch_6" d="M71.308 0h613.8" style="fill:none;stroke:#000;stroke-width:.8;stroke-linejoin:miter;stroke-linecap:square"/></g></g><defs><clipPath id="pd44050a5cd"><path d="M71.308 0h613.8v266.112h-613.8z"/></clipPath></defs></svg>