<svg xmlns="http://www.w3.org/2000/svg" xmlns:xlink="http://www.w3.org/1999/xlink" width="913.477" height="377.053" viewBox="0 0 685.107 282.79"><defs><style>*{stroke-linejoin:round;stroke-linecap:butt}</style></defs><g id="figure_1"><path id="patch_1" d="M0 282.79h685.107V0H0v282.79z" style="fill:none"/><g id="axes_1"><path id="patch_2" d="M71.308 266.112h613.8V0h-613.8v266.112z" style="fill:none"/><g id="matplotlib.axis_1"><g id="xtick_1"><g id="line2d_1"><defs><path id="m8611947346" d="M0 0v3.5" style="stroke:gray;stroke-width:.8"/></defs><use xlink:href="#m8611947346" x="99.207" y="266.112" style="fill:gray;stroke:gray;stroke-width:.8"/></g><g id="text_1" style="fill:gray" transform="matrix(.1 0 0 -.1 96.026 280.71)"><defs><path id="DejaVuSans-30" d="M2034 4250q-487 0-733-480-245-479-245-1442 0-959 245-1439 246-480 733-480 491 0 736 480 246 480 246 1439 0 963-246 1442-245 480-736 480zm0 500q785 0 1199-621 414-620 414-1801 0-1178-414-1799Q2819-91 2034-91q-784 0-1198 620-414 621-414 1799 0 1181 414 1801 414 621 1198 621z" transform="scale(.01563)"/></defs><use xlink:href="#DejaVuSans-30"/></g></g><g id="xtick_2"><use xlink:href="#m8611947346" id="line2d_2" x="168.958" y="266.112" style="fill:gray;stroke:gray;stroke-width:.8"/><g id="text_2" style="fill:gray" transform="matrix(.1 0 0 -.1 159.414 280.71)"><defs><path id="DejaVuSans-35" d="M691 4666h2478v-532H1269V2991q137 47 274 70 138 23 276 23 781 0 1237-428 457-428 457-1159 0-753-469-1171Q2575-91 1722-91q-294 0-599 50Q819 9 494 109v635q281-153 581-228t634-75q541 0 856 284 316 284 316 772 0 487-316 771-315 285-856 285-253 0-505-56-251-56-513-175v2344z" transform="scale(.01563)"/></defs><use xlink:href="#DejaVuSans-35"/><use xlink:href="#DejaVuSans-30" x="63.623"/><use xlink:href="#DejaVuSans-30" x="127.246"/></g></g><g id="xtick_3"><use xlink:href="#m8611947346" id="line2d_3" x="238.708" y="266.112" style="fill:gray;stroke:gray;stroke-width:.8"/><g id="text_3" style="fill:gray" transform="matrix(.1 0 0 -.1 225.982 280.71)"><defs><path id="DejaVuSans-31" d="M794 531h1031v3560L703 3866v575l1116 225h631V531h1031V0H794v531z" transform="scale(.01563)"/></defs><use xlink:href="#DejaVuSans-31"/><use xlink:href="#DejaVuSans-30" x="63.623"/><use xlink:href="#DejaVuSans-30" x="127.246"/><use xlink:href="#DejaVuSans-30" x="190.869"/></g></g><g id="xtick_4"><use xlink:href="#m8611947346" id="line2d_4" x="308.457" y="266.112" style="fill:gray;stroke:gray;stroke-width:.8"/><g id="text_4" style="fill:gray" transform="matrix(.1 0 0 -.1 295.733 280.71)"><use xlink:href="#DejaVuSans-31"/><use xlink:href="#DejaVuSans-35" x="63.623"/><use xlink:href="#DejaVuSans-30" x="127.246"/><use xlink:href="#DejaVuSans-30" x="190.869"/></g></g><g id="xtick_5"><use xlink:href="#m8611947346" id="line2d_5" x="378.207" y="266.112" style="fill:gray;stroke:gray;stroke-width:.8"/><g id="text_5" style="fill:gray" transform="matrix(.1 0 0 -.1 365.483 280.71)"><defs><path id="DejaVuSans-32" d="M1228 531h2203V0H469v531q359 372 979 998 621 627 780 809 303 340 423 576 121 236 121 464 0 372-261 606-261 235-680 235-297 0-627-103-329-103-704-313v638q381 153 712 231 332 78 607 78 725 0 1156-363 431-362 431-968 0-288-108-546-107-257-392-607-78-91-497-524-418-433-1181-1211z" transform="scale(.01563)"/></defs><use xlink:href="#DejaVuSans-32"/><use xlink:href="#DejaVuSans-30" x="63.623"/><use xlink:href="#DejaVuSans-30" x="127.246"/><use xlink:href="#DejaVuSans-30" x="190.869"/></g></g><g id="xtick_6"><use xlink:href="#m8611947346" id="line2d_6" x="447.957" y="266.112" style="fill:gray;stroke:gray;stroke-width:.8"/><g id="text_6" style="fill:gray" transform="matrix(.1 0 0 -.1 435.233 280.71)"><use xlink:href="#DejaVuSans-32"/><use xlink:href="#DejaVuSans-35" x="63.623"/><use xlink:href="#DejaVuSans-30" x="127.246"/><use xlink:href="#DejaVuSans-30" x="190.869"/></g></g><g id="xtick_7"><use xlink:href="#m8611947346" id="line2d_7" x="517.707" y="266.112" style="fill:gray;stroke:gray;stroke-width:.8"/><g id="text_7" style="fill:gray" transform="matrix(.1 0 0 -.1 504.983 280.71)"><defs><path id="DejaVuSans-33" d="M2597 2516q453-97 707-404 255-306 255-756 0-690-475-1069Q2609-91 1734-91q-293 0-604 58T488 141v609q262-153 574-231 313-78 654-78 593 0 904 234t311 681q0 413-289 645-289 233-804 233h-544v519h569q465 0 712 186t247 536q0 359-255 551-254 193-729 193-260 0-557-57-297-56-653-174v562q360 100 674 150t592 50q719 0 1137-327 419-326 419-882 0-388-222-655t-631-370z" transform="scale(.01563)"/></defs><use xlink:href="#DejaVuSans-33"/><use xlink:href="#DejaVuSans-30" x="63.623"/><use xlink:href="#DejaVuSans-30" x="127.246"/><use xlink:href="#DejaVuSans-30" x="190.869"/></g></g><g id="xtick_8"><use xlink:href="#m8611947346" id="line2d_8" x="587.457" y="266.112" style="fill:gray;stroke:gray;stroke-width:.8"/><g id="text_8" style="fill:gray" transform="matrix(.1 0 0 -.1 574.732 280.71)"><use xlink:href="#DejaVuSans-33"/><use xlink:href="#DejaVuSans-35" x="63.623"/><use xlink:href="#DejaVuSans-30" x="127.246"/><use xlink:href="#DejaVuSans-30" x="190.869"/></g></g><g id="xtick_9"><use xlink:href="#m8611947346" id="line2d_9" x="657.207" y="266.112" style="fill:gray;stroke:gray;stroke-width:.8"/><g id="text_9" style="fill:gray" transform="matrix(.1 0 0 -.1 644.482 280.71)"><defs><path id="DejaVuSans-34" d="M2419 4116 825 1625h1594v2491zm-166 550h794V1625h666v-525h-666V0h-628v1100H313v609l1940 2957z" transform="scale(.01563)"/></defs><use xlink:href="#DejaVuSans-34"/><use xlink:href="#DejaVuSans-30" x="63.623"/><use xlink:href="#DejaVuSans-30" x="127.246"/><use xlink:href="#DejaVuSans-30" x="190.869"/></g></g></g><g id="matplotlib.axis_2"><g id="ytick_1"><g id="line2d_10"><defs><path id="m56ac16a7f5" d="M0 0h-3.5" style="stroke:gray;stroke-width:.8"/></defs><use xlink:href="#m56ac16a7f5" x="71.308" y="224.248" style="fill:gray;stroke:gray;stroke-width:.8"/></g><g id="text_10" style="fill:gray" transform="matrix(.16 0 0 -.16 0 230.327)"><defs><path id="DejaVuSans-2212" d="M678 2272h4006v-531H678v531z" transform="scale(.01563)"/></defs><use xlink:href="#DejaVuSans-2212"/><use xlink:href="#DejaVuSans-31" x="83.789"/><use xlink:href="#DejaVuSans-30" x="147.412"/><use xlink:href="#DejaVuSans-30" x="211.035"/><use xlink:href="#DejaVuSans-30" x="274.658"/><use xlink:href="#DejaVuSans-30" x="338.281"/></g></g><g id="ytick_2"><use xlink:href="#m56ac16a7f5" id="line2d_11" x="71.308" y="164.999" style="fill:gray;stroke:gray;stroke-width:.8"/><use xlink:href="#DejaVuSans-30" id="text_11" style="fill:gray" transform="matrix(.16 0 0 -.16 54.127 171.078)"/></g><g id="ytick_3"><use xlink:href="#m56ac16a7f5" id="line2d_12" x="71.308" y="105.75" style="fill:gray;stroke:gray;stroke-width:.8"/><g id="text_12" style="fill:gray" transform="matrix(.16 0 0 -.16 13.408 111.829)"><use xlink:href="#DejaVuSans-31"/><use xlink:href="#DejaVuSans-30" x="63.623"/><use xlink:href="#DejaVuSans-30" x="127.246"/><use xlink:href="#DejaVuSans-30" x="190.869"/><use xlink:href="#DejaVuSans-30" x="254.492"/></g></g><g id="ytick_4"><use xlink:href="#m56ac16a7f5" id="line2d_13" x="71.308" y="46.501" style="fill:gray;stroke:gray;stroke-width:.8"/><g id="text_13" style="fill:gray" transform="matrix(.16 0 0 -.16 13.408 52.58)"><use xlink:href="#DejaVuSans-32"/><use xlink:href="#DejaVuSans-30" x="63.623"/><use xlink:href="#DejaVuSans-30" x="127.246"/><use xlink:href="#DejaVuSans-30" x="190.869"/><use xlink:href="#DejaVuSans-30" x="254.492"/></g></g></g><path id="line2d_14" d="m99.207 165.333.282-.652.282.621.282-.592.282.566.282-.542.282.52.282-.5.282.48.282-.462.282.446.282-.43.282.415.282-.402.282.39.282-.377.282.365.282-.354.282.343.282-.334.282.325.282-.316.282.307.282-.298.282.29.282-.283.281.276.282-.269.282.262.282-.255.282.249.282-.243.282.237.282-.23.282.224.282-.219.282.213.282-.207.282.201.282-.195.282.189.282-.183.282.176.282-.168.282.16.282-.15.282.138.282-.125.282.112.282-.147.282-3.213.281 3.385.564 10.062.282 2.158.282-.018.282.355.282-1.805.564-7.97.282.09.564 2.128.282 2.73.564 10.996.282-.34.282-2.78.846-2.359.282.254.564 4.358.282.748.282-.808.282-3.033.281-4.452.282.111.564 10.27.282 1.292.282.454.282-3.492.282-14.858.846-69.454.282-5.45.282 2.669.564 12.48.564 5.171.564 5.726.282 7.921.846 39.286.564 12.928.281 7.657.282 4.33.282.102.282-3.625.564-9.446.282-1.66.846-2.526.282 2.206.282 3.106.282 1.748.282.444.282 2.734.846 15.934.282 1.737.282-1.731.564-10.823.282-.132.282 2.326.282-.618.281-2.263.282 2.555.282 6.413.282 3.558.282-4.943.282-15.667.846-72.996.282-3.388.282 3.56.282 6.521.846 37.118.282 3.317.282 1.904.564 8.287.564 3.39.282 3.671.564 11.411.282.855 1.127-18.366.282-1.542.282-.293.282 1.096.282-.043.564-2.192.282.182.282-.192.564-1.215.282.943.564 6.418.282-.71.282-2.074.282 2.677.564 11.746.282 2.227.564 6.771.282-.161.281-3.869.282-10.573.846-67.242.282-3.74.282 5.409.846 31.135.282 3.161.564.92.282-1.424.282-.441.282 4.866.846 26.508.282 12.163.282 6.616.564-4.56.282.023.282-5.629.563-23.675.282-.547.282 2.744.282 1.297.282 3.753.564 11.351.282-.92.846-14.382.282.346.282 2.86.282 1.669.282.53.282.075.282-1.165.282-2.043.282-.27.282 1.843.282 3.474.282 4.961.282 2.416.282-8.916.845-60.034.282-4.046.282 4.173.846 26.657 1.128 10.969.282 6.75.564 19.84.282.572.564-7.66.282.647.846 6.07.282-.63.564-11.855.563-9.863.282-4.12.282-2.272.282 1.47.564 7.298.282 2.957.282 5.303.564 15.41.282 3.015.282-1.084.282-2.023.282-.472.564 2.536.282-.192.282.043.282 1.98.282-.735.282-11.824.846-65.228.282-1.4 1.127 25.952.282 1.085.564 4.758.282.882.282 2.443 1.128 25.253.282 6.664.282 1.86.282-.747.282 2.392.564 8.877.282.874.564 3.855.282-1.039.564-9.036.282-2.151.281-.952.282.198.282 2.237.564 7.593.564 11.589.564 9.774.282 3.411.282 1.447.282-3.214.564-9.763.282-.95.282-1.524.282-3.907.282-8.043.282-17.141.564-49.926.282-9.358.282 4.085.564 14.252.845 15.399.282 2.08.564 2.709.282 3.462.564 14.337.846 24.573.282 1.487.282-3.96.564-10.47.282-2.478.282.243.564 4.651.564 2.573.564 3.318.282-.573.282-1.822.281-.855.282 1.283.282 2.192.282.964.282-.013.282.309.282-.33.564-5.948.282 1.46.564 10.41.564 4.039.282-1.637.282-12.14.564-44.273.282-13.429.282-4.368.282 1.775.564 13.747.564 12.34.845 9.477 1.41 21.959.564 3.445.282.819.282-2.807.564-12.382.282-2.568.282-1.373.282-.247.282 2.924.282 4.437.282 2.612.282 1.158.564 4.266.282.065.563-2.946.282 1.368.564 7.332.282 1.176.282-.726.282.29.282 2.037.282 1.025 1.128-8.264.282-12.563.564-46.923.282-13.234.282-2.263.282 5.758.564 22.485.282 3.621.282-1.893.282-.147.845 7.626.846 32.343.282 2.745.564-2.69.564 3.314.564-5.37.282 3.84.282 8.452.282 2.538.564-12.072.282-.104.282 2.717.282 1.162.282.352.282 2.2.564 5.743.282-.732.282-2.27.281-1.266.564 1.499.282-.944.282.34.282 6.081.282 8.848.282 3.71.564-3.578.282-6.397.282-24.212.564-71.598.282-9.48.282 5.295.564 16.85.564 21.593.282 3.16.282 1.728.846 11.6.845 32.406.564-2.44.282 3.066.282 1.797.564-3.966.282-.806.282-1.376.564-4.203.282-1.181.282 1.716.564 9.782.282.736.282.336.564 4.8.846-2.97.564-2.203.281.546 1.41 7.387.282.66.282-1.393.282-12.632.846-76.275.282-7.254.282 2.199 1.41 42.268.564 10.887.282 5.863.564 14.243.563 3.856.564 6.295.564 1.59.282-.345.282-1.827.282-.62.282.41.282-1.773.282-3.1.282-.643.564 2.564.282 2.763.564 10.415.564 2.128.282 3.133.282 1.514.282-1.554.282-.328.282 2.411.282.862.282-1.83.281-.276.282 2.039.282.276.282-1.716.282-.453.282-1.767.282-10.708.846-64.787.282-8.93.282 2.303.846 31.56.282 4.17.282 1.91.282 3.25.282 4.668.282 2.672.564-.835.282 1.27.564 4.185.563 6.765.282.831.282-.66.282.374.564 3.738.282.495.282-.185.282.26.282-.633.564-7.822.282-.358.282 1.672.564-2.66.282 4.04 1.128 30.459.282 4.855.282-.142.282 1.354.281 4.08.282-.077.564-8.508.282-8.24.282-24.026.564-67.398.282-17.65.282-6.69.282 2.945.564 30.252.564 22.727.564 9.056.282 7.856.564 25.013.282 5.765.564 6.072.282-2.661.564-18.639.281.257.282 2.632.282-.597.282 1.012.564 10.486.282-.074.282.83 1.128 21.622.282 3.047.282-2.627.282-5.072.282-1.18.282 2.154.282.995.282-.488.282-.833.564-4.548.282.059.282.701.282-.535.281 1.013.282-.282.282-13.23.564-53.819.564-27.857.282-10.885.282-4.32.564 2.202.282 4.592.846 35.27.282 5.52 1.128 32.01.282 5.706.282 1.62.282-.771.282 1.515.564 7.577.281-.685.564-7.96.282.243.564 5.582.282 1.654 1.128 12.562.282.683.564-2.432.282 3.014.282 4.573.282.49.282-2.488.282-.531.282.712.564-2.707.282.399.282-.051.563-1.934.282-7.193.282-21.987.564-56.329.282-12.814.282-5.74.282-.561.282 7.945.564 27.497 1.128 30.556.282 5.852.282 10.202.564 27.963.282 2.337.282-1.612.282 1.268.282.385.564-8.836.281.447.282.89.282-1.473.282-.384.282.864.282-1.946.282-3.592.282-.45.282 1.655.282-.216.282-1.345.282-.234.282-.82.564-6.072.282-.088.282 3.832.564 11.592.282.468.564-5.17.282-.138.282-.277.282-5.147.282-15.93.845-77.231.282-10.823.282-5.051.282 3.84 1.128 59.65.282 4.76.564 15.354.564 16.43.282 2.295.282-.469.282.881.282 2.04.282.658.282.168.564 4.325.282.08.282-.899.563 1.02.282-.937.282-1.364.282-.106.282 1.037.564 4.492.282.091.282-2.36.282 1.02.564 15.588.282 2.7.282 1.03.282 3.295.282 1.552.564-7.298.282.088.564 5.645.282-1.635.282-14.841 1.127-122.27.282-13.275.282-.594.564 20.066.282 11.641 1.128 66.12.846 29.39.282 3.436.564.932.282.36.282-1.408.282-2.789.282-1.354.282.33.282-1.03.564-5.593.281.105.282 1.52.282 2.72.564 6.579.282-1.504.282-3.709.282-1.923.282.834.564 2.706.282 1.557.846 10.686.282-.019.282.772 1.128 9.476.282-3.419.282-18.267.845-92.59.282-17.282.282-9.084.282.23.282 8.921 1.974 92.91.564 19.502.282 4.688.282.839.282 1.188.282 3.174.282.655.564-7.847.282.345.282-.142.282-3.137.282-1.425.563 4.477.564-.656.282 1.279.282 2.555.564 7.514.282 1.423.282-.356.282-.174.282-.013.282-.529.282.07.564 2.542.282.351.282-.77.564-3.315.282-4.69.282-14.624 1.128-104.633.281-10.297.282.405.282 11.605 1.128 62.15.846 26.988.282 6.548.282 2.536.282 1.174.282 1.912.282.81.564-1.208.282-.096.282-.57.282.02.282.421.282-.607.282.424.845 14.305 1.128.073.282 1.577.564 4.797.564 5.018.282.236.282-3.458.282-1.945.564 4.853.282-.592.282.19.282 1.988.282-4.31.282-19.015 1.128-123.921.282-8.137.282 3.66.563 18.391.564 26.099 1.128 67.104 1.128 30.518.282-1.072.282-1.83.282-.64.282-2.529.564-8.794.282-.203.282 1.69.282.566.564-3.473.282 1.153.563 6.76 1.692 10.317.282 2.605.282 4.443.564 13.697.282 3.444.846 5.29.282 3.914.282 6.138.282-2.962.282-23.546.846-105.556.564-39.6.282-4.218.281 3.467.564 12.443.564 22.876.564 35.709.564 40.61.282 11.772.282 5.553.282 1.176.282-2.242.564-10.46.282-2.388.282 2.396.564 8.606.846 4.875.282-.95.846-18.449.281-1.041.282 2.017.564 9.643 1.128 19 .282 3.107.282-1.16.564-6.477.282.021.282-1.458.282-3.163.282-.34.282-.555.282-13.97 1.128-122.14.282-14.502.282-1.648.282 13.08 1.127 77.651.564 23.007.846 23.755 1.128 16.667.282-.487.846-7.306.564-10.135.282-1.17.564 3.641.282 1.83.282 1.048.282-.736.281-1.567.282-.404.282 1.15.282 1.993.282 4.046 1.128 27.685.282.403.564-14.284.282-.558.282 5.682.282 1.52.282-9.378.282-18.982 1.128-106.044.282-6.653.282 1.668.282 6.778.564 23.242 1.127 64.887.564 11.729.564 6.541.282 1.363.282-.902.282-1.739.282.722.282 2.465.282-.474.282-2.09.282 3.065.564 14.09.846 3.732.282-2.857.282-5.388.282-3.019.282.746.281 3.639.282 5.672.282 3.376.282-2.853.282-5.303.282-.455 1.128 17.825.564 20.209.282-.414.282-15.879.564-73.745.564-80.422.282-14.745.846-5.243.282 4.31.564 15.266.282 7.053.281 14.445 1.128 89.987.846 18.595.282 2.471.282-.66.282.245.282.402.282-2.037.282-1.1.564 6.482.282-1.452.282-2.656.282 1.87.282 4.735.282 1.78.282-1.028.282.745.564 6.081.281 1.552.282 2.863.564 7.48 1.128 11.735.564 6.917.282-5.321.282-18.546.564-79.088.564-70.47.282-10.452.564-6.172.282-1.544.282-2.222.282-3.147.282.575.282 7.94.282 16.387.563 57.947.564 49.211.282 10.366.846 13.803.282 3.715.282-2.926.282-7.59.282-4.571.282-.152.282.395.282.062.846 2.62.564 7.6.282-.268.282-1.326.282 2.958.564 11.184.563 4.471.564 2.292.846 6.534.564 5.404.282-3.388.282-17.092.564-70.471.564-66.97.282-15.695.282-3.18.282.586.282-1.748.282-.884.282 4.444.564 17.806.282 18.688.845 84.614.282 10.6.282-.345.282-5.124.282-1.333.564 8.13.282-1.03.282-1.842.282.585.282 1.164.282.136.282.688.564 4.495.564 3.967.282.334.282.073.282.508.282 1.245.282 3.298.846 19.658.281 1.468.282.284.282.748.564 2.947.564 6.528.282-2.996.282-18.815 1.128-133.285.282-12.242.282-4.991.282-.897.282 1.313.282 3.827.282 8.15.282 16.085.846 70.4.282 7.975.282 2.693.282.568.281-1.235.282.581.846 17.414.282.332.564-3.505.282.994.282 2.843.282 1.213.282-.905.282-.27.564 3.415.282 2.823 1.41 24.958.564 6.795.282.457.282-.207.281 2.3.846 15.262.282-6.43.282-24.261.846-122.676.282-17.834 1.41-31.925.282 4.804.282 9.168.282 13.516.282 24.74.564 66.774.282 16.99.282 5.304.564 4.076.282 1.125.281-.008.282-1.147.564-4.674.282-.339.564 2.393.282.72.282 3.67.564 11.976.564 3.298 1.128 11.674.282 1.944.282-.1.282.348.564 6.72.564 8.3.282 5.156.281 1.32.282-7.752.282-23.728 1.128-155.233.564-27.79.282-4.428.282 1.186.282 1.879.282 4.37.846 26.845.282 19.204.564 64.835.282 19.29.564 18.932.564 9.99.563 9.143.564 2.6.564 5.075.282-.223.282.394.564 4.016.564-2.618.282.969.846 12.604.846 16.878.282 1.68.282 2.546.282 4.47.282.514.564-9.792.282-.897.282-6.92.281-22.604 1.128-130.876.564-31.636.282-8.838.282-4.392.282-.232.282 4.586.282 10.316.564 38.812.846 83.595.282 11.066.564 2.837 1.41 21.539.281 1.887.282-.615.282 1.71.282 4.634.282 1.68.282-1.942.282.656.564 7.943.282-.363.282.814.282 2.206.282-1.373.282-3.31.282 1.932.564 16.818.846 12.734.282.852.282-5.854.282-11.915.282-18.899.563-76.533.282-42.04.282-24.658.846-28.225.282-3.373.846 4.894.282 9.344.282 20.655 1.128 110.322.282 5.92.282 1.274.282.515.564-1.7.282 1.88.564 8.918.282.591.282.141.845 6.516.282.12.282 1.005.282 2.099.846 8.779.564-.583.282 1.36.564 7.437 1.128 20.847.282 2.746.282-4.568.282-18.064.564-77.652.564-76.746.281-19.02.846-31.664.282-4.687.282 2.218.282 6.955.564 23.636.282 20.878.846 92.524.282 14.435.846 21.69.282 1.37.282-.006.564 6.103.282.419.282-.831.282.59.282.017.563-4.81.282 3.013.564 13.054.282 1.283.282.683.282 2.127.282.201.564-6.25.282 2.61 1.128 22.496.282 8.176.282 3.528.282-7.116.282-24.426 1.128-171.473.564-22.91.281-6.576.282-2.737.282.538.282 2.486.282 7.008.564 29.28.282 21.833.846 90.663.282 10.376.564 8.226.564 9.826.846 9.182.282 1.822.282 1.021.282.02.282.254.564 2.095.281-.939.282-2.003.282-.635.282 2.59 1.128 20.7.282-.042.846-13.377.282 1.636.282 3.18.282 5.366.282 8.127.282 2.801.282-14.321.564-79.001.564-72.763.282-20.846.564-20.085.282-4.305.281.677.282 8.205.846 41.378.564 58.646.564 52.91.282 7.077.282.522.282-.272.282.083.564.65.282.74.282-.338.282-2.665.846-11.823.282-2.48.282.754.845 17.442.564 12.627.282 1.73.282-1.047.282 2.638.564 11.26.282 1.694.282 2.595 1.128 15.872.282-12.816.282-34.465.846-132.346.282-21.336.282-9.354.282-3.178.564-1.93.282 1.073.281 5.854.282 12.165.564 40.97.846 82.575.282 9.88.846 12.023.564 10.336.282.758.564-3.243.564-4.682.282 1.4.282 4.271.282 1.28.564-4.9.846 4.47.281 4.168.846 29.331.282 3.611.564 12.216.282-.716.282-8.11.282-4.04.282 2.322.282-7.09.282-31.641.846-132.557.564-38.26.564-18.249.282-3.579.282 1.442.282 6.31.845 31.795.282 12.911.282 22.565.846 91.5.282 10.775.846 11.194.564 5.035.282.958.282-1.64.564-5.604.282 1.462.282 3.127.282 1.128.282-.868.282 1.966.564 9.35.282 2.738.845 15.884.282-2.88.282-.804.564 6.788.282 1.144.282 1.754.564 5.687.282-6.104.282-24.813.846-136.778.282-21.533.282-11.725.282-6.774.282-3.355.282-.458.282 3.292.846 29.174.282 11.98.563 46.75.564 47.235.282 16.082.282 8.367.282 2.56.282.363.282-.24.282-1.333.282.337.564 4.449.282-1.626.282-.078.846 13.684 1.128-8.883.282.588 1.41 17.81.563 4.52.282 5.143.564 12.657.282-3.678.282-21.176.564-104.222.282-49.902.282-25.676.282-8.295.564-5.227.282 1.155.282 2.482.282 3.82.282 8.08.564 29.89.564 43.63.564 54.063.281 14.909.282 6.998.282 3.338.564 2.438.282 2.18.282.026.846-15.199.564.776.282 1.02.282 3.728 1.128 26.171.282 4.171.564 3.667.282 2.072.846 12.563.563 6.08.282-.505.564-2.875.282-10.992.282-36.93.564-107.466.282-25.504.846-30.965.282-4.372.282 1.381.282 5.516L634.65 89.2l.564 51.205.563 47.886.282 11.803.282 5.992.282 1.617.282-.75.564-6.573.282-1.51.564 3.87.282.58.282.005.282 1.673.564 1.542.282 2.16.846 20.227.282 1.74.282-1.23.282-.494.564 10.121.282 5.56.282 2.975.281-.322.564-6.955.282-11.37.282-35.778.564-111.519.282-24.308.846-21.655.282-.591.282 2.732.564-4.32.282 1.483.282 6.79.282 10.135.282 18.604 1.128 108.302.282 12.057.282 7.112.281 4.196.564 10.541.282.777.282-3.207.282-.199.282-1.092.282-3.76.282-7.742.282-2.443.282.797.282 3.135.282-.353.564 4.14.846 17.342.282 2.728.282 5.47.282-.197.282 3.666.282-.215.282 7.745.282-4.972.281 9.072h0" clip-path="url(#p0f23cd397b)" style="fill:none;stroke:#1f77b4;stroke-width:1.5;stroke-linecap:square"/><path id="patch_3" d="M71.308 266.112V0" style="fill:none;stroke:gray;stroke-width:.8;stroke-linejoin:miter;stroke-linecap:square"/><path id="patch_4" d="M685.107 266.112V0" style="fill:none;stroke:#000;stroke-width:.8;stroke-linejoin:miter;stroke-linecap:square"/><path id="patch_5" d="M71.308 266.112h613.8" style="fill:none;stroke:gray;stroke-width:.8;stroke-linejoin:miter;stroke-linecap:square"/><path id="patch_6" d="M71.308 0h613.8" style="fill:none;stroke:#000;stroke-width:.8;stroke-linejoin:miter;stroke-linecap:square"/></g></g><defs><clipPath id="p0f23cd397b"><path d="M71.308 0h613.8v266.112h-613.8z"/></clipPath></defs></svg>