<svg xmlns="http://www.w3.org/2000/svg" xmlns:xlink="http://www.w3.org/1999/xlink" width="913.477" height="377.053" viewBox="0 0 685.107 282.79"><defs><style>*{stroke-linejoin:round;stroke-linecap:butt}</style></defs><g id="figure_1"><path id="patch_1" d="M0 282.79h685.107V0H0v282.79z" style="fill:none"/><g id="axes_1"><path id="patch_2" d="M71.308 266.112h613.8V0h-613.8v266.112z" style="fill:none"/><g id="matplotlib.axis_1"><g id="xtick_1"><g id="line2d_1"><defs><path id="m10827c8808" d="M0 0v3.5" style="stroke:gray;stroke-width:.8"/></defs><use xlink:href="#m10827c8808" x="99.207" y="266.112" style="fill:gray;stroke:gray;stroke-width:.8"/></g><g id="text_1" style="fill:gray" transform="matrix(.1 0 0 -.1 96.026 280.71)"><defs><path id="DejaVuSans-30" d="M2034 4250q-487 0-733-480-245-479-245-1442 0-959 245-1439 246-480 733-480 491 0 736 480 246 480 246 1439 0 963-246 1442-245 480-736 480zm0 500q785 0 1199-621 414-620 414-1801 0-1178-414-1799Q2819-91 2034-91q-784 0-1198 620-414 621-414 1799 0 1181 414 1801 414 621 1198 621z" transform="scale(.01563)"/></defs><use xlink:href="#DejaVuSans-30"/></g></g><g id="xtick_2"><use xlink:href="#m10827c8808" id="line2d_2" x="168.958" y="266.112" style="fill:gray;stroke:gray;stroke-width:.8"/><g id="text_2" style="fill:gray" transform="matrix(.1 0 0 -.1 159.414 280.71)"><defs><path id="DejaVuSans-35" d="M691 4666h2478v-532H1269V2991q137 47 274 70 138 23 276 23 781 0 1237-428 457-428 457-1159 0-753-469-1171Q2575-91 1722-91q-294 0-599 50Q819 9 494 109v635q281-153 581-228t634-75q541 0 856 284 316 284 316 772 0 487-316 771-315 285-856 285-253 0-505-56-251-56-513-175v2344z" transform="scale(.01563)"/></defs><use xlink:href="#DejaVuSans-35"/><use xlink:href="#DejaVuSans-30" x="63.623"/><use xlink:href="#DejaVuSans-30" x="127.246"/></g></g><g id="xtick_3"><use xlink:href="#m10827c8808" id="line2d_3" x="238.708" y="266.112" style="fill:gray;stroke:gray;stroke-width:.8"/><g id="text_3" style="fill:gray" transform="matrix(.1 0 0 -.1 225.982 280.71)"><defs><path id="DejaVuSans-31" d="M794 531h1031v3560L703 3866v575l1116 225h631V531h1031V0H794v531z" transform="scale(.01563)"/></defs><use xlink:href="#DejaVuSans-31"/><use xlink:href="#DejaVuSans-30" x="63.623"/><use xlink:href="#DejaVuSans-30" x="127.246"/><use xlink:href="#DejaVuSans-30" x="190.869"/></g></g><g id="xtick_4"><use xlink:href="#m10827c8808" id="line2d_4" x="308.457" y="266.112" style="fill:gray;stroke:gray;stroke-width:.8"/><g id="text_4" style="fill:gray" transform="matrix(.1 0 0 -.1 295.733 280.71)"><use xlink:href="#DejaVuSans-31"/><use xlink:href="#DejaVuSans-35" x="63.623"/><use xlink:href="#DejaVuSans-30" x="127.246"/><use xlink:href="#DejaVuSans-30" x="190.869"/></g></g><g id="xtick_5"><use xlink:href="#m10827c8808" id="line2d_5" x="378.207" y="266.112" style="fill:gray;stroke:gray;stroke-width:.8"/><g id="text_5" style="fill:gray" transform="matrix(.1 0 0 -.1 365.483 280.71)"><defs><path id="DejaVuSans-32" d="M1228 531h2203V0H469v531q359 372 979 998 621 627 780 809 303 340 423 576 121 236 121 464 0 372-261 606-261 235-680 235-297 0-627-103-329-103-704-313v638q381 153 712 231 332 78 607 78 725 0 1156-363 431-362 431-968 0-288-108-546-107-257-392-607-78-91-497-524-418-433-1181-1211z" transform="scale(.01563)"/></defs><use xlink:href="#DejaVuSans-32"/><use xlink:href="#DejaVuSans-30" x="63.623"/><use xlink:href="#DejaVuSans-30" x="127.246"/><use xlink:href="#DejaVuSans-30" x="190.869"/></g></g><g id="xtick_6"><use xlink:href="#m10827c8808" id="line2d_6" x="447.957" y="266.112" style="fill:gray;stroke:gray;stroke-width:.8"/><g id="text_6" style="fill:gray" transform="matrix(.1 0 0 -.1 435.233 280.71)"><use xlink:href="#DejaVuSans-32"/><use xlink:href="#DejaVuSans-35" x="63.623"/><use xlink:href="#DejaVuSans-30" x="127.246"/><use xlink:href="#DejaVuSans-30" x="190.869"/></g></g><g id="xtick_7"><use xlink:href="#m10827c8808" id="line2d_7" x="517.707" y="266.112" style="fill:gray;stroke:gray;stroke-width:.8"/><g id="text_7" style="fill:gray" transform="matrix(.1 0 0 -.1 504.983 280.71)"><defs><path id="DejaVuSans-33" d="M2597 2516q453-97 707-404 255-306 255-756 0-690-475-1069Q2609-91 1734-91q-293 0-604 58T488 141v609q262-153 574-231 313-78 654-78 593 0 904 234t311 681q0 413-289 645-289 233-804 233h-544v519h569q465 0 712 186t247 536q0 359-255 551-254 193-729 193-260 0-557-57-297-56-653-174v562q360 100 674 150t592 50q719 0 1137-327 419-326 419-882 0-388-222-655t-631-370z" transform="scale(.01563)"/></defs><use xlink:href="#DejaVuSans-33"/><use xlink:href="#DejaVuSans-30" x="63.623"/><use xlink:href="#DejaVuSans-30" x="127.246"/><use xlink:href="#DejaVuSans-30" x="190.869"/></g></g><g id="xtick_8"><use xlink:href="#m10827c8808" id="line2d_8" x="587.457" y="266.112" style="fill:gray;stroke:gray;stroke-width:.8"/><g id="text_8" style="fill:gray" transform="matrix(.1 0 0 -.1 574.732 280.71)"><use xlink:href="#DejaVuSans-33"/><use xlink:href="#DejaVuSans-35" x="63.623"/><use xlink:href="#DejaVuSans-30" x="127.246"/><use xlink:href="#DejaVuSans-30" x="190.869"/></g></g><g id="xtick_9"><use xlink:href="#m10827c8808" id="line2d_9" x="657.207" y="266.112" style="fill:gray;stroke:gray;stroke-width:.8"/><g id="text_9" style="fill:gray" transform="matrix(.1 0 0 -.1 644.482 280.71)"><defs><path id="DejaVuSans-34" d="M2419 4116 825 1625h1594v2491zm-166 550h794V1625h666v-525h-666V0h-628v1100H313v609l1940 2957z" transform="scale(.01563)"/></defs><use xlink:href="#DejaVuSans-34"/><use xlink:href="#DejaVuSans-30" x="63.623"/><use xlink:href="#DejaVuSans-30" x="127.246"/><use xlink:href="#DejaVuSans-30" x="190.869"/></g></g></g><g id="matplotlib.axis_2"><g id="ytick_1"><g id="line2d_10"><defs><path id="mbbe4efbc5b" d="M0 0h-3.5" style="stroke:gray;stroke-width:.8"/></defs><use xlink:href="#mbbe4efbc5b" x="71.308" y="213.765" style="fill:gray;stroke:gray;stroke-width:.8"/></g><g id="text_10" style="fill:gray" transform="matrix(.16 0 0 -.16 0 219.843)"><defs><path id="DejaVuSans-2212" d="M678 2272h4006v-531H678v531z" transform="scale(.01563)"/></defs><use xlink:href="#DejaVuSans-2212"/><use xlink:href="#DejaVuSans-31" x="83.789"/><use xlink:href="#DejaVuSans-30" x="147.412"/><use xlink:href="#DejaVuSans-30" x="211.035"/><use xlink:href="#DejaVuSans-30" x="274.658"/><use xlink:href="#DejaVuSans-30" x="338.281"/></g></g><g id="ytick_2"><use xlink:href="#mbbe4efbc5b" id="line2d_11" x="71.308" y="157.223" style="fill:gray;stroke:gray;stroke-width:.8"/><use xlink:href="#DejaVuSans-30" id="text_11" style="fill:gray" transform="matrix(.16 0 0 -.16 54.127 163.302)"/></g><g id="ytick_3"><use xlink:href="#mbbe4efbc5b" id="line2d_12" x="71.308" y="100.682" style="fill:gray;stroke:gray;stroke-width:.8"/><g id="text_12" style="fill:gray" transform="matrix(.16 0 0 -.16 13.408 106.761)"><use xlink:href="#DejaVuSans-31"/><use xlink:href="#DejaVuSans-30" x="63.623"/><use xlink:href="#DejaVuSans-30" x="127.246"/><use xlink:href="#DejaVuSans-30" x="190.869"/><use xlink:href="#DejaVuSans-30" x="254.492"/></g></g><g id="ytick_4"><use xlink:href="#mbbe4efbc5b" id="line2d_13" x="71.308" y="44.141" style="fill:gray;stroke:gray;stroke-width:.8"/><g id="text_13" style="fill:gray" transform="matrix(.16 0 0 -.16 13.408 50.22)"><use xlink:href="#DejaVuSans-32"/><use xlink:href="#DejaVuSans-30" x="63.623"/><use xlink:href="#DejaVuSans-30" x="127.246"/><use xlink:href="#DejaVuSans-30" x="190.869"/><use xlink:href="#DejaVuSans-30" x="254.492"/></g></g></g><path id="line2d_14" d="m99.207 157.24.846-.03 1.41.022 1.974-.012 4.511.012 1.41-.025.846.04.846-.06.282.079.282-.093.282.112.282-.136.282.157.282.02.564 18.038.563 10.98.282 1.908.282-2.241 1.128-22.303.564-3.43.282-6.89.564-17.304.282.551.564 7.578.282-.815.846-8.265.282-.785.282 2.131.564 5.125.282 1.675.282 4.021 1.127 24.72.282-.867.846-17.628.564-5.245.282-3.09.282-1.147.282.639.282 1.762.282 4.5.564 16.14.282 2.788.282-1.324.282-2.795.282-7.164.846-46.801.282-4.46.281.748.282 2.654.282 5.037.564 18.58.846 29.453.282 3.768.282-2.061.846-14.853.282-2.704.282.077.282 3.443.564 12.292.846 23.294.282 3.254.282.351.282-1.626 1.41-13.272.845-10.297.846-19.282.282 2.044.282 5.43.282.575.846-19.192.282.17.282.382.282 2.239.282 7.44.846 29.146.282 5.74.282 2.168.282-1.439.563-7.55.564-10.334 1.128-11.574.282 2.403.846 20.3.282 8.383.282 5 .282-2.827 1.128-33.034.564-28.72.282-6.628.282-.554.282 4.87.563 14.862.282 2.771.282-.717.564-6.428.282-.024.846 14.564.282.325.282-.108.282 1.671.282 5.357.846 26.366.282 2.04.282-2.134.282-5.935.564-16.139.282-4.687.282-1.293.282 1.641.563 6.478.282 5.389.564 20.714.282 1.235.282-10.82.564-28.481.282-8.365.282-4.326.282-1.24.282-.01.282.349.282 1.853.282 4.199.282 6.998.846 30.465.282 1.622.282-3.412.846-18.874.282-2.812.563-3.264.282.248.282 3.995.564 16.363.564 18.628.282 2.333.282-2.637.564-9.004.846-20.185.282-1.145.564 2.26.282-3.31.564-20.218.282-4.145.564 4.363.845-9.953.282-.08.282.59.282 2.524.846 15.436.846 17.934.282 1.376.282-2.991.846-17.551.564-10.822.282-1.233.282.414.282 3.3.282 8.9.564 23.41.282 7.08.282 3.302.282-1.217.281-5.46.282-8.041.282-11.327.846-49.273.282-4.913.282 2 .282 5.818 1.128 31.98.282 5.28.282 2.8.282-.711.282-2.198.282-1.18.282-.633.282-1.179.282.081.282 3.774 1.41 32.192.281 2.707.282 1.14.564.804.282 1.715.846 15.33.282.723.564 3.333.282-5.642 1.128-53.968.282-5.278.846-5.591.282 1.07.564 14.524.845 23.768.282 4.333.282 2.127h.282l.282-3.833.282-5.465.282-1.196.564 6.579.282-1.395.282-2.643.282-.22.846 6.564.282.62.564 3.669.282-.04.282-1.574.282-.114.282.046.282-5.379 1.127-44.686.846-12.312.282-3.387.282-.528.282 2.488.282 4.812.282 8.65.564 23.552.282 6.297.564 5.38.282.184.282-.251.282 2.416.564 7.706.282 1.932.282.547.282-1.68.282-2.758.281-1.19.282.87 2.256 14.29.282.475.282-5.749 1.128-64.243.564-15.216.282-5.048.282-2.73.282-.146.282 3.948.282 10.005.845 49.115.282 8.04.282 2.263.282-.652.564-2.704.282-.782.282.013.282 1.112.564 3.564.282 2.562.846 16.038.282.326.282-.695.564 2.201.282-1.547.564-6.444.564 1.433.282-4.821.563-20.851.282-5.703 1.128-10.618.564-5.924.282-.712.282 4.379.846 22.158.846 10.267.846 15.298.282 1.586.282-3.41.846-18.146.282-4.252.281-.722.564 5.34.282-.806.282.34.564 8.458.564 3.301.282.327.282-4.62.564-27.949.282-13.579.282-6.477.282-.072.564 4.744.282 4.73 1.128 29.592.282 2.43.282-1.663.845-14.62.282-.918.564 2.861.282-.65.282-.043.282 2.927.564 7.225.564 4.276.282-1.148.564-9.698.846-7.558.564-2.054.282-5.134.846-31.257.282-3.04.281 1.785.282 3.253.282 1.368.282-.223.282.618.282 2.027.282 3.402.282 6.7.846 29.246 1.128 23.521.846 11.56.282-.965.282-1.437.282.665.282.976.282-.142.282.248.563 2.793.282 3.01 1.128 19.347.282-.444.282-12.838.846-58.387.564-27.717.846-16.544.282-2.546.282 6.389.564 38.185.564 34.425.282 3.91.282.053.282-1.187.845-9.563.282-.875.564-2.607.282 2.197.564 15.078.564 15.805.282 5.346.282 3.08.282.17.282-3.034.564-9.875.282-1.34.282-2.989.282-13.687.564-45.39.282-10.444.846-11.183 1.127-15.612.282 1.933.282 11.85.564 40.08.282 7.407.564-3.51.282 3.717.564 17.433.564 18.451.282 2.452.282-.956.282-1.762.282-4.255.564-12.24.282 1.317.282 2.685.282-.923.281-2.097.282.842.282 4.973.564 19.038.282 1.03.282-11.937.846-48.033.564-21.79.282-5.918.282-2.94.282-.62.282 1.986.282 7.925.846 55.281.282 6.17.564 5.542.282.202.564-8.211.563-8.445.564-5.988.282-4.161.282-2.129.282 3.67 1.128 33.279.282 1.688.282-1.39.282-2.39.282-3.673.564-11.11.282-8.61 1.128-58.906.282 4.534 1.41 43.194.563 6.985.282-.132.282-4.235.564-14.854.282-1.805.282 4.335 1.128 27.128.282.664 1.41-13.075.564-9.917.282-4.883.282-2.014.282-.68.281-2.82.846-16.285.282-1.382.282 1.577.282 3.09.282 1.69.564-2.81.282 2.78.564 10.498.564-2.859.282 4.543.846 23.476.564 13.641.282 3.365.282.786.282-.844.563-4.365.282-.535.282.798.282 1.369.282 3.298.282 7.178 1.128 43.724.282 2.55.282 1.373.282-1.231.282-11.639 1.974-171.312.282-9.48.282-1.309.282 5.764.563 21.489.282 19.566.846 75.248.282 6.147.282-1.265.564-9.22.282-.052.282 6.806.846 28.791.564 8.438.282.602.282-2.284 1.128-13.917.564-6.802.282-.75.282 4.977.281 7.248.282-.604.564-28.22 1.974-89.48.282-4.652.282 1.862.282 13.136.846 80.563.564 19.35.282 4.124.282-.673.282-1.994.282-.731.282-2.048.563-8.435.564-5.537.282-.323.282 5.677 1.41 46.082.282-.698.564-6.84.282-10.083 1.692-119.82.564-9.995.282-3.405.282 1.787.282 7.296.281 12.609.846 67.13.282 6.112.282-3.554.564-9.826.282-2.116.282 2.48.282 7.936.846 31.335.282 5.53.282 1.858.282-1.694.846-12.673.282-4.12.282-1.452.282.513.282-1.042.282-1.71.282 2.024.281 3.624.282-2.456 1.974-65.595.564-11.523.282 3.13 1.128 58.568.846 17.114.282.576.282-.17.282.236.282-1.747.564-10.783.563-11.07.282-.828.564 1.362.282 2.83 1.128 28.455.282 3.582.282.157.282-8.085 1.41-83.226.282-11.298.282-6.687.282 3.178.564 24.988.846 47.1.281 6.82.282-1.665.846-16.615 1.128-11.134.282 1.977 1.41 40.364.282 4.648.282 1.606.282.869.282.5.282-2.305.282-3.569.282-1.728.282-3.555.564-25.63.563-20.535.564-12.504.282-3.208.282-1.68.564-1.597.282-.362.282 4.94.846 46.19.282 2.054.282-1.938.282.897.282 4.744 1.41 31.79.282 2.093.282-.252.563-3.338.282-1.529.282-4.42.282-6.383.282-2.98.282 3.43.282 8.473.846 36.874.282 4.162.282-6.522.282-18.885 1.692-169.044.282-14.63.282-3.073.282 7.625.564 29.495.564 55.751.563 56.522.282 13.437.282 4.111.282-4.206.282-7.394.282-3.66.282-.65.564-7.79.282 1.971.846 24.589.564 16.584.282 7.865.282.551 1.41-38.112.845-52.583 2.256-39.757.282 6.396.846 53.347.282 6.324.282 2.542.282 4.004 1.692 44.279.282 1.175.282-4.013.563-13.787.846-9.357.282-2.717.282 3.108 1.41 41.551.282-7.439.564-46.35.846-78.043.564-27.134.282-6.214.282-1.877.282 7.914.282 23.213.846 94.914.281 10.428.282.846.282-4.117.846-19.597.282-3.025.282-1.251.564-4.861.282-.287.282 4.47 1.128 31.96.282 1.28.282-4.348.564-13.577.564-6.692.282-7.553 1.127-54.456.282-3.732.282-1.93.282-1.064.564-1.223.282 2.485.282 10.796.564 27.089.282 2.65.564-2.053.282-.09.282 4.414.846 31.218.282 6.265.282 3.614.282.465.282-.065.845 4.188.564 8.786.282-.242.282-1.337.282 4.571.282 7.647.282 1.624.282-7.707.564-35.868 1.41-113.424.282-8.489.282-2.937.282.881.282 10.297.282 25.162.846 96.166.282 12.72.282 4.105.281-.222.846-4.947.282-.65.282-1.309.282-2.307.282-.984.282 3.906 1.692 51.297.282 1.285.282.142.282-1.647.564-7.597.282-5.752.282-16.137.846-83.67.563-34.304.282-11.43.564-11.617.846-30.012.282-2.872.282 3.953.282 15.112.846 71.15L426 180.31l.564 15.504.282 3.836.282 1.299.564.954.282-.403.282-.885.281-1.346.564-7.038.282.934.564 11.434.282-4.08.564-29.58 1.128-73.944.282-17.956.282-10.608.282-3.723.282 2.03.282 11.086 1.128 89.772.564 15.315.563 6.542.282 1.862.282.018.846-6.123 1.128 5.479.282 5.877.846 27.846.564 13.219.282 2.724.282-.787.282-1.575.282-4.578.282-14.602.846-85.767.563-53.775.282-14.221.564-11.857.282-2.185.564 4.383.282 2.827.282 10.394.846 65.015.282 9.844.282 3.496.282 1.927.282 4.194.564 16.04.564 16.673.564 9.568.282 2.957.282-1.696.564-11.893.281-.331.282 1.01.282-1.821.282-2.873.282.334.846 13.92.282-5.975.846-39.358.846-44.009.282-6.355.282 1.531.282 11.91.564 33.184.846 30.166.282 6.697.282 3.227.281.323.282-3.338.846-18.833.282-1.802.282.365.564 2.533.282 2.09.282 5.594.564 24.528.282 12.843.282 7.044.282.297.564-6.1.282-8.738.282-18.554 1.41-125.47.281-10.8.282-5.233.282-.69.282 5.174.564 22.693.564 35.047.564 34.948.282 7.92.282 2.56.282.169.282 2.44.282 8.704.846 37.339.564 20.104.282 6.358.282 2.868.282-.298.564-6.277.563-.82.564-5.748.564 3.443.282-7.513.846-53.51 1.128-73.329.564-23.274.564-11.648.282-1.758.282 11.603 1.128 104.536.564 25.811.281 8.486.282 5.083 1.128 9.662.564 2.526.564 4.78.564 9.705.282.624.282-10.848.846-68.485.846-72.828.846-40.246.282-3.965.282 7.167.282 17.726 1.127 106.642.564 16.716.282 1.775.564-9.245.282.465.282 2.405.282-.5.282.567.282 6.79.846 28.203.282 6.506.282 2.905.282 1.063 1.128 9.53.845 4.708.282-3.306.282-13.055.564-54.805.846-92.193.564-33.391.282-10.136.282-5.962.282-1.47.282 2.443.282 6.457.282 12.506.282 21.657.846 93.565.282 17.823.282 9.219.564 8.417.281 3.015.282.945.846-5.601.282-4.964.282-7.277.282-2.561.282 5.138.846 24.837.282 12.804.282 7.67.282.438.282-2.092.282-4.512.282-11.622.846-60.464.564-47.197.282-16.005.282-8.064.282-.816.281 5.236.564 20.72.846 47.97.282 3.753.282-.119.282.075.282-.958.282-1.642.282 1.758.282 6.89 1.128 37.166.564 8.252.282 1.29.282-3.16.282-5.49.282-3.135.282-.993.563-4.538.564 2.036.282-5.918.564-34.682 1.128-90.157.564-38.346.282-8.795.282-1.68.282 6.015.282 15.759.564 57.855.564 58.644.282 15.409 1.128 31.714.563-4.314.282 1.15.282.138.282-1.886.282.756.564 12.66.564 17.171.564 18.79.282-1.555.282-13.073.564-52.36.846-83.731.564-36.158.282-11.057.282-.124.282 12.178.845 64.42.564 46.297.282 11.886.282 2.901.282.28.282 1.207.282-.225.282-2.982.282-1.557.282 4.287 1.128 38.443.564 6.804.282 3.006.282 1.808.282.534.282 1.828.282 2.777.282.53.564-4.47.281-6.379.282-16.575.564-65.846.564-65.692.564-33.922.564-13.81.282-5.103.282-2.583.282 2.078.282 4.668.282 6.717.282 14.605 1.41 126.066.282 12.98.282 7.174.282 3.583.282-.199.563-5.772.282-2.174.564-8.099.282 1.15.564 15.896.846 30.22.564 7.958.282 1.934.282-7.749.282-21.377.846-99.045.564-61.21.282-15.286.282-4.201.282 2.773.282 6.284.282 9.844.563 36.01.564 37.238.564 27.55.282 7.718.846 9.632.282 2.59.282 4.848 1.128 45.013.564 12.237.282-.805.564-16.8.282-3.57.282-.6.282.223.282 1.726.281.195.282-7.715.564-39.043 1.128-91.844.846-29.094.282-5.663.282-1.443.282 5.418.564 33.35.564 44.677.564 51.827.282 14.996.564 12.826.282.862.282-5.463.563-13.97.282-2.673.282-.038.282 2.197.282 1.013.564-5.881.282 4.378.564 15.486.282-1.546.282-8.118.564-33.947.564-41.796.282-14.944.282-7.201.282.47.282 5.203.282 8.792 1.128 51.454.563 17.78.282 3.376.282-3.048 1.128-25.91.564-5.03.282 1.006.282 5.695.564 23.058.564 26.171.282 8.746.282 4.752.282 2.257.282.388.282-2.029.282-3.077.282-.847.282.07.282-7.222.281-21.067.846-90.606.564-34.169.846-18.321.282-5.439.282-.601.282 4.16.282 7.49.282 11.804.564 37.606 1.41 116.803.282 12.372.282 3.638.282-3.944.564-11.457.845-12.356.282-2.561.282 1.477.282 8.835.564 25.672.564 14.342.282 3.278.282-7.89.282-23.422 1.41-168.304.282-14.363.282-8.034.282-2.298.282 6.867.564 34.409.845 54.014.846 34.31.564 22.698.564 13.566.564 5.088.282 4.901.846 25.601.282 3.805.282 1.498.282-.964.846-8.59.282-.967.282 2.204.282.112.282-12.014.563-64.319.564-61.934.282-13.867.564-11.353.564-21.482.282-3.847.282 2.102.282 6.137.564 24.005.846 49.271 1.128 80.21.282 5.272.282 2.287.282 1.35.282-2.65.282-5.82.281-2.92.564 4.331.564-.201.282 3.056.846 21.744.282-3.813.282-13.158.564-47.804.564-60.821.282-19.069.564-19.017.282-3.907.282.437.282 6.847.282 16.316.846 64.47.845 48.91.282 3.631.282-1.03.282-3.736.564-9.215.282-1.433.564-4.193.282 3.19.846 25.856 1.128 22.004.282 2.771.282-2.297.282-4.85.564-3.546.282-10.227.563-53.183.846-85.868.282-14.16.282-6.764.282-2.186.282 1.81.282 4.048.282 2.314.282 1.048.282 5.108.846 35.133.564 38.45.564 43.02.564 27.592.282 5.571.282 1.434.282-.947.282-4.552.563-14.397.564-4.87.282-2.164.282 1.048.282 5.699.846 26.994.282 8.308.282.817.282-10.575.282-22.538 1.41-164.537.282-15.747.282-7.741.282 1.37.282 11.386.564 45.747.845 65.342.564 24.261.564 14.45.282 3.437.564-1.776.282 3.77.564 16.105 1.41 54.807.282 2.347 1.128-15.867.282-10.951.282-27.31.563-84.837.282-25.734.282-7.548.282.164.564 1.612.282-.037.282-2.194.282-3.144.282-1.701.282 2.548.564 19.929.846 27.198 1.41 86.437.282 8.556.282 3.058.282 1.05.282-.155.281-2.063.282-1.204.282.253.282-1.766.282-3.683.282 1.535.564 15.676.282-4.018.282-17.86 1.128-118.581.846-35.94.282-5.468.282.484.282 4.08.282 7.838.564 33.834.846 52.877h0" clip-path="url(#pf39caa8b89)" style="fill:none;stroke:#1f77b4;stroke-width:1.5;stroke-linecap:square"/><path id="patch_3" d="M71.308 266.112V0" style="fill:none;stroke:gray;stroke-width:.8;stroke-linejoin:miter;stroke-linecap:square"/><path id="patch_4" d="M685.107 266.112V0" style="fill:none;stroke:#000;stroke-width:.8;stroke-linejoin:miter;stroke-linecap:square"/><path id="patch_5" d="M71.308 266.112h613.8" style="fill:none;stroke:gray;stroke-width:.8;stroke-linejoin:miter;stroke-linecap:square"/><path id="patch_6" d="M71.308 0h613.8" style="fill:none;stroke:#000;stroke-width:.8;stroke-linejoin:miter;stroke-linecap:square"/></g></g><defs><clipPath id="pf39caa8b89"><path d="M71.308 0h613.8v266.112h-613.8z"/></clipPath></defs></svg>