<svg xmlns="http://www.w3.org/2000/svg" xmlns:xlink="http://www.w3.org/1999/xlink" width="913.477" height="377.053" viewBox="0 0 685.107 282.79"><defs><style>*{stroke-linejoin:round;stroke-linecap:butt}</style></defs><g id="figure_1"><path id="patch_1" d="M0 282.79h685.107V0H0v282.79z" style="fill:none"/><g id="axes_1"><path id="patch_2" d="M71.308 266.112h613.8V0h-613.8v266.112z" style="fill:none"/><g id="matplotlib.axis_1"><g id="xtick_1"><g id="line2d_1"><defs><path id="md92e0e62e8" d="M0 0v3.5" style="stroke:gray;stroke-width:.8"/></defs><use xlink:href="#md92e0e62e8" x="99.207" y="266.112" style="fill:gray;stroke:gray;stroke-width:.8"/></g><g id="text_1" style="fill:gray" transform="matrix(.1 0 0 -.1 96.026 280.71)"><defs><path id="DejaVuSans-30" d="M2034 4250q-487 0-733-480-245-479-245-1442 0-959 245-1439 246-480 733-480 491 0 736 480 246 480 246 1439 0 963-246 1442-245 480-736 480zm0 500q785 0 1199-621 414-620 414-1801 0-1178-414-1799Q2819-91 2034-91q-784 0-1198 620-414 621-414 1799 0 1181 414 1801 414 621 1198 621z" transform="scale(.01563)"/></defs><use xlink:href="#DejaVuSans-30"/></g></g><g id="xtick_2"><use xlink:href="#md92e0e62e8" id="line2d_2" x="168.958" y="266.112" style="fill:gray;stroke:gray;stroke-width:.8"/><g id="text_2" style="fill:gray" transform="matrix(.1 0 0 -.1 159.414 280.71)"><defs><path id="DejaVuSans-35" d="M691 4666h2478v-532H1269V2991q137 47 274 70 138 23 276 23 781 0 1237-428 457-428 457-1159 0-753-469-1171Q2575-91 1722-91q-294 0-599 50Q819 9 494 109v635q281-153 581-228t634-75q541 0 856 284 316 284 316 772 0 487-316 771-315 285-856 285-253 0-505-56-251-56-513-175v2344z" transform="scale(.01563)"/></defs><use xlink:href="#DejaVuSans-35"/><use xlink:href="#DejaVuSans-30" x="63.623"/><use xlink:href="#DejaVuSans-30" x="127.246"/></g></g><g id="xtick_3"><use xlink:href="#md92e0e62e8" id="line2d_3" x="238.708" y="266.112" style="fill:gray;stroke:gray;stroke-width:.8"/><g id="text_3" style="fill:gray" transform="matrix(.1 0 0 -.1 225.982 280.71)"><defs><path id="DejaVuSans-31" d="M794 531h1031v3560L703 3866v575l1116 225h631V531h1031V0H794v531z" transform="scale(.01563)"/></defs><use xlink:href="#DejaVuSans-31"/><use xlink:href="#DejaVuSans-30" x="63.623"/><use xlink:href="#DejaVuSans-30" x="127.246"/><use xlink:href="#DejaVuSans-30" x="190.869"/></g></g><g id="xtick_4"><use xlink:href="#md92e0e62e8" id="line2d_4" x="308.457" y="266.112" style="fill:gray;stroke:gray;stroke-width:.8"/><g id="text_4" style="fill:gray" transform="matrix(.1 0 0 -.1 295.733 280.71)"><use xlink:href="#DejaVuSans-31"/><use xlink:href="#DejaVuSans-35" x="63.623"/><use xlink:href="#DejaVuSans-30" x="127.246"/><use xlink:href="#DejaVuSans-30" x="190.869"/></g></g><g id="xtick_5"><use xlink:href="#md92e0e62e8" id="line2d_5" x="378.207" y="266.112" style="fill:gray;stroke:gray;stroke-width:.8"/><g id="text_5" style="fill:gray" transform="matrix(.1 0 0 -.1 365.483 280.71)"><defs><path id="DejaVuSans-32" d="M1228 531h2203V0H469v531q359 372 979 998 621 627 780 809 303 340 423 576 121 236 121 464 0 372-261 606-261 235-680 235-297 0-627-103-329-103-704-313v638q381 153 712 231 332 78 607 78 725 0 1156-363 431-362 431-968 0-288-108-546-107-257-392-607-78-91-497-524-418-433-1181-1211z" transform="scale(.01563)"/></defs><use xlink:href="#DejaVuSans-32"/><use xlink:href="#DejaVuSans-30" x="63.623"/><use xlink:href="#DejaVuSans-30" x="127.246"/><use xlink:href="#DejaVuSans-30" x="190.869"/></g></g><g id="xtick_6"><use xlink:href="#md92e0e62e8" id="line2d_6" x="447.957" y="266.112" style="fill:gray;stroke:gray;stroke-width:.8"/><g id="text_6" style="fill:gray" transform="matrix(.1 0 0 -.1 435.233 280.71)"><use xlink:href="#DejaVuSans-32"/><use xlink:href="#DejaVuSans-35" x="63.623"/><use xlink:href="#DejaVuSans-30" x="127.246"/><use xlink:href="#DejaVuSans-30" x="190.869"/></g></g><g id="xtick_7"><use xlink:href="#md92e0e62e8" id="line2d_7" x="517.707" y="266.112" style="fill:gray;stroke:gray;stroke-width:.8"/><g id="text_7" style="fill:gray" transform="matrix(.1 0 0 -.1 504.983 280.71)"><defs><path id="DejaVuSans-33" d="M2597 2516q453-97 707-404 255-306 255-756 0-690-475-1069Q2609-91 1734-91q-293 0-604 58T488 141v609q262-153 574-231 313-78 654-78 593 0 904 234t311 681q0 413-289 645-289 233-804 233h-544v519h569q465 0 712 186t247 536q0 359-255 551-254 193-729 193-260 0-557-57-297-56-653-174v562q360 100 674 150t592 50q719 0 1137-327 419-326 419-882 0-388-222-655t-631-370z" transform="scale(.01563)"/></defs><use xlink:href="#DejaVuSans-33"/><use xlink:href="#DejaVuSans-30" x="63.623"/><use xlink:href="#DejaVuSans-30" x="127.246"/><use xlink:href="#DejaVuSans-30" x="190.869"/></g></g><g id="xtick_8"><use xlink:href="#md92e0e62e8" id="line2d_8" x="587.457" y="266.112" style="fill:gray;stroke:gray;stroke-width:.8"/><g id="text_8" style="fill:gray" transform="matrix(.1 0 0 -.1 574.732 280.71)"><use xlink:href="#DejaVuSans-33"/><use xlink:href="#DejaVuSans-35" x="63.623"/><use xlink:href="#DejaVuSans-30" x="127.246"/><use xlink:href="#DejaVuSans-30" x="190.869"/></g></g><g id="xtick_9"><use xlink:href="#md92e0e62e8" id="line2d_9" x="657.207" y="266.112" style="fill:gray;stroke:gray;stroke-width:.8"/><g id="text_9" style="fill:gray" transform="matrix(.1 0 0 -.1 644.482 280.71)"><defs><path id="DejaVuSans-34" d="M2419 4116 825 1625h1594v2491zm-166 550h794V1625h666v-525h-666V0h-628v1100H313v609l1940 2957z" transform="scale(.01563)"/></defs><use xlink:href="#DejaVuSans-34"/><use xlink:href="#DejaVuSans-30" x="63.623"/><use xlink:href="#DejaVuSans-30" x="127.246"/><use xlink:href="#DejaVuSans-30" x="190.869"/></g></g></g><g id="matplotlib.axis_2"><g id="ytick_1"><g id="line2d_10"><defs><path id="m58a151abe0" d="M0 0h-3.5" style="stroke:gray;stroke-width:.8"/></defs><use xlink:href="#m58a151abe0" x="71.308" y="259.751" style="fill:gray;stroke:gray;stroke-width:.8"/></g><g id="text_10" style="fill:gray" transform="matrix(.16 0 0 -.16 0 265.83)"><defs><path id="DejaVuSans-2212" d="M678 2272h4006v-531H678v531z" transform="scale(.01563)"/></defs><use xlink:href="#DejaVuSans-2212"/><use xlink:href="#DejaVuSans-34" x="83.789"/><use xlink:href="#DejaVuSans-30" x="147.412"/><use xlink:href="#DejaVuSans-30" x="211.035"/><use xlink:href="#DejaVuSans-30" x="274.658"/><use xlink:href="#DejaVuSans-30" x="338.281"/></g></g><g id="ytick_2"><use xlink:href="#m58a151abe0" id="line2d_11" x="71.308" y="198.824" style="fill:gray;stroke:gray;stroke-width:.8"/><g id="text_11" style="fill:gray" transform="matrix(.16 0 0 -.16 0 204.903)"><use xlink:href="#DejaVuSans-2212"/><use xlink:href="#DejaVuSans-32" x="83.789"/><use xlink:href="#DejaVuSans-30" x="147.412"/><use xlink:href="#DejaVuSans-30" x="211.035"/><use xlink:href="#DejaVuSans-30" x="274.658"/><use xlink:href="#DejaVuSans-30" x="338.281"/></g></g><g id="ytick_3"><use xlink:href="#m58a151abe0" id="line2d_12" x="71.308" y="137.897" style="fill:gray;stroke:gray;stroke-width:.8"/><use xlink:href="#DejaVuSans-30" id="text_12" style="fill:gray" transform="matrix(.16 0 0 -.16 54.127 143.976)"/></g><g id="ytick_4"><use xlink:href="#m58a151abe0" id="line2d_13" x="71.308" y="76.97" style="fill:gray;stroke:gray;stroke-width:.8"/><g id="text_13" style="fill:gray" transform="matrix(.16 0 0 -.16 13.408 83.049)"><use xlink:href="#DejaVuSans-32"/><use xlink:href="#DejaVuSans-30" x="63.623"/><use xlink:href="#DejaVuSans-30" x="127.246"/><use xlink:href="#DejaVuSans-30" x="190.869"/><use xlink:href="#DejaVuSans-30" x="254.492"/></g></g><g id="ytick_5"><use xlink:href="#m58a151abe0" id="line2d_14" x="71.308" y="16.043" style="fill:gray;stroke:gray;stroke-width:.8"/><g id="text_14" style="fill:gray" transform="matrix(.16 0 0 -.16 13.408 22.122)"><use xlink:href="#DejaVuSans-34"/><use xlink:href="#DejaVuSans-30" x="63.623"/><use xlink:href="#DejaVuSans-30" x="127.246"/><use xlink:href="#DejaVuSans-30" x="190.869"/><use xlink:href="#DejaVuSans-30" x="254.492"/></g></g></g><path id="line2d_15" d="m99.207 137.962.282-.128.282.125.282-.122.282.12.282-.118.282.116.282-.115.282.114.282-.113.282.112.282-.11.282.11.282-.11.282.109.282-.11.282.11.282-.11.282.11.282-.11.282.112.282-.114.282.115.282-.116.282.117.282-.119.281.122.282-.124.282.126.282-.13.282.134.282-.137.282.141.282-.146.282.152.282-.158.282.165.282-.173.282.182.282-.193.282.206.282-.221.282.239.282-.261.282.288.282-.322.282.367.282-.43.282.52.282-.662.282.922.281-1.552.564 12.198.564-9.853.564-14.976.282-5.413.282-1.962.282.27.564 4.79.282 1.732.282.118.282-.581.282-1.031.282.14.282.928.564 3.861.564 10.908.282 5.533.282 1.637.564-2.57.281-.343.282-.86.282-1.405.282-.503.846 4.161.282-.192.282.56.846 4.422.282-.312.282-.82.564-.544.564-1.338.282-.05.282.205.282-.067.282-.28.282.267.845 1.594.282.28.282-.176.846-1.806.282-2.157.282-5.126.846-21.443.282-2.19.282.143.564 2.098.282-.188.282-.745.282-.27.564-.112.282 1.138.282 3.665 1.127 19.473.282 1.82.282-.777.282-1.528.282-.291.282.464.282.098.282-.02.564 1.477.282-.959.282-2.322.282-1.17.282 1.108.282 1.81.282.755.282.282.564 1.55.282.255.282.459.564 1.521.282.016.282.653.563 3.159.846 2.036.282 1.278.282.67.282-.606.846-5.86.282-4.25.846-21.074.282-1.885.282.656.846 4.423.282.254.282-.342.564-1.658.282-.056.282 2.11.563 8.413.282 2.357.282.19.564-1.693.282-.328.564.275.282.174.282.529.282 1.477.564 3.926.282.75.282.427.564 1.628.282-.345.282-1.177.282-.5.282 1.018.564 2.565.563.58.564 1.865.846 3.09 1.128 3.403.282.04.282-1.06.282-3.12.564-14.45.564-14.486.282-2.742.282.005.564 2.14.282-.238.564-1.592.282.598.845 3.612.282 2.46 1.128 17.957.282-.605 1.128-8.422.282.814.282 1.158.564.792.282 1.675.564 4.736.282.64.282.246 1.128 2.942.563 3.043.282 1.447.282.667.282.096.282.355.564 1.608.282-.844.282-1.68.282-.67.564 1.893.282.085.282-1.657.282-4.535 1.128-29.29.282-2.005.282.687.846 6.374.282.682.281-.133.282-1.23.282-1.741.282-.778.282 1.405.282 4.265.846 19.73.282 1.388.282-1.685.564-3.825.564-.879.282-.196.282.459.282 1.44 1.128 9.37.282.661.282.13.282.872.281 1.729.282.863.282-1.263.282-2.039.282-.464.564 1.787.282.238.282 1.423.564 4.879.282.338.282-.43.282-.051.282.355.282-.101.282-2.223.282-6.11 1.128-35.616.282-2.524.282.772.282 2.01.281 1.014.282-.168.282-.642.564-2.226.282.2.564 3.777.282 3.685.846 24.099.282.694.846-6.624.282-.843.564-.021.282-.51.282.142 1.41 7.386.281.519.282.025.282 1.398.564 4.034.282 1.011.846 4.668.282.229.282-.088.564-.732.282.698.282 1.155.564 1.424.282 1.455.282.262.282-3.723.564-18.359.564-19.173.563-11.209.282-2.175.282-.604.282.279.564.98.282-.19.282-.328.282.405.282 1.333.282 2.451.282 5.294.846 31.307.282 3.11.282-1.439.846-9.19.282-.577.282.578.282.306.282-.019.282.39 1.127 2.89.846 4.222.564 2.321.564 2.056.846 3.082.564 3.227.282-.033.282-.213.846 1.816.282.19.282-.357.282-3.435.564-19.268.563-19.203.282-5.802.282-2.57.282.37.564 3.213.282.09.282-1.808.564-5.929.282-1.066.282.439.282 2.172.282 5.935.846 32.172.282 2.437.846-4.417.282-.102.282 1.087.282 1.812.281 1.083.282.003.282.23.282.756.282-.05.282-.965.282-.076.846 4.568.564 4.818.564 4.092.282 1.29.282.476.282-.158.282.225.282.53.282-.341.282-.848.282.351.564 2.615.282-.578.282-2.592.281-6.12.564-24.446.846-35.776.282-6.46.282-.666.846 10.302.846 2.876.282 1.612.282 2.394.282 4.497.282 8.56.846 38.57.282 2.617.846-6.849.845-3.25.282.225.846 1.395.282.015.282-.156.282.599.564 3.2.282.872.564.763.282.121.282-.121.282.185.282 1.214.564 6.017.564 4.923.282 1.982.845 7.6.282.985.282-.551.282-4.441.564-22.747.564-22.386.282-6.473.282-2.698.282.608.564 5.29.564 9.469 1.128 21.774.282 8.603.282 12.38.846 59.23.282 6.756.281-4.245.282-12.594 1.128-68.582.564-29.012.564-30.083.564-10.772.564-8.441.282-1.365.282.611.282.994.282.481.282-.244.282-.61.282.14.564 2.89.282 2.338.282 5.726 1.41 49.344.281 2.5.282-2.205.282-4.706.282-7.791 1.128-53.892.282-3.045.282-.19 1.128 3.498.282 1.077.282-.423.282-.953.282.9.282 3.532.282 5.95.563 22.257.282 12.124.282 5.722.282-1.99 1.41-31.986.282-.564.564 3.056.282-.234.282-.448.282.116.282.866.282 2.29.564 8.325.282 6.076.564 21.603.564 28.126.845 56.006.564 21.317.282 12.248.282 4.997.282-3.13.564-12.126.564-21.59.846-35.264.282-6.402.282-3.12.282-5.41 1.692-59.93.564-12.275.281-.843.282 3.203.282 6.846.564 23.173.282 12.58.282 7.476.282-.206.564-11.995.282-2.009.282 3.136.564 9.368.282 1.725.282.635.282.102.564-1.266.282.675.564 3.507.282.362.282-.53.282-.06.282 1.908.563 10.378 1.692 39.55.282 3.759.282 1.581.282-.594.846-3.811.282-5.971.282-11.679.564-38.869.564-40.506.564-21.737.564-14.217.282-3.937.281-1.962.282-.562.282 2.072.846 17.7.282 9.71 1.128 64.913.282 4.114.282.153 1.128-7.08.282-.88.282-.026 1.128 1.25.282-.286.282-.86.281.012.282.858.282-.019.282-.793.282.78.564 5.567.564 1.965.564 4.043.282.699.282-.085.282.066.282.402.282.945.564 3.765.282-.283.282-5.048.564-25.517.846-45.549.563-15.872.564-6.357.282-1.292.282.638.564 4.842.282 3.446.282 5.299.282 9.084 1.128 57.549.282 3.938.282-.956.846-10.277.282.038.846 2.2.845 6.734.282.2.282-.284.564.266.564-.44.282-.028.282-.238.282-.414.282.217.564 1.768.282.6.282 1.255.564 3.746.282.41.564-.827.282.356.282-.028.282-2.86.282-7.87 1.41-61.08.281-2.506.282-.114.282 1.126.282 2.439 1.128 14.03.282 8.626.846 35.863.282 2.536.282-1.91.564-4.778.564-2.13.282-.68.282.404.564 1.828.281.116.282.242.282.918.846 3.842.564 1.1.564 1.721.564 1.075.846 2.674.564 4.314.282 1.985.564 1.774.564 3.731.282 1.785.282.448.282-1.958.281-5.844.564-25.558.564-29.404.564-19.028.282-5.858.282-3.253.564-4.134.564-5.93.282.733.282 3.746.282 5.676.282 8.846.564 33.844.282 17.743.282 10.078.282 1.809.846-7.406.282-.86.281.018.564.928.282 1.035.564 4.177.846 5.927.282 1.155.564 1.472.564 1.818.564-.572.282.631 1.128 4.853.846 6.314.563 2.377.282.635.282-.856.282-4.523.282-9.815 1.41-72.475.564-12.157.564-7.492.282-2.506.282-1.434.282.358.282 2.25.282 4.243.282 7.92.564 32.297.564 33.374.282 6.759.281.414.846-7.018.282-.479.282.977.564 3.888.846 2.797.564 3.7.282.653.282-.072.282.051.564 1.087.282.81 1.128 5.37.282.996 2.255 12.156.282-3.324.282-9.807 1.41-71.122.564-12.734.564-7.026.564-2.427.282.688.282 3.06.282 4.701.282 7.166.282 12.84.845 51.642.282 6.049.282.746.846-5.358.282-.3.282-.034.282.253.282.697.282 1.03.282 1.569.564 4.249.282 1.02.564.765.282.57.282 1.01.564 3.075.564 1.254 1.691 9.77.282.48.282 1.067.282 1.853.282 1.078.282-1.63.282-5.995.282-11.516 1.41-75.384.846-20.694.282-3.642.282-1.259.282-.295.282.151.282 1.695.282 4.516.281 8.747.564 33.612.564 33.364.282 8.157.282 3.343.282.04.564-2.706.282.179.564 1.397.282.29.282.813.564 2.552.282.033.282.217.282 1.88.564 4.477.282.69.282 1.355.563 6.158.846 9.323.846 8.172.846 4.823.282 2.415.282.4.282-3.728.282-9.693.564-36.655.564-35.016.564-26.563.282-9.11.564-7.635.564-7.796.845-12.623.282-1.28.282 3.073.282 8.644.564 31.789.564 29.993.564 18.615.564 10.548.564 4.094.564 3.028.564.705.282 1.57.846 7.857 1.127 7.944.564 4.809 1.692 17.824.846 12.723.282 2.212.282-1.88.282-10.286 1.41-89.494.564-20.568.564-15.064.845-25.831.282-6.21.282-3.561.282-2.137.282-.593.282 4.99.564 31.706.564 30.92.564 21.811.846 23.875.282 5.082.282 1.373.282-.266.282.739.846 6.86.564 5.65 1.41 16.4.845 9.306 1.974 24.612.282-.867.282-7.927.564-34.2 1.128-76.436 1.691-62.208.564-20.7.282-4.138.282 1.38.282 7.388.564 28.709 1.128 73.313.564 22.735.282 6.23.564 5.085.564 4.772.564 2.315.563 5.243 1.974 21.346.846 11.31.564 7.462.846 12.285.282 3.073.282-1.308.282-9.558.564-40.873.846-61.776 1.127-51.41.564-26.544.564-16.306.282-4.73.282-.582.282 4.729.282 10.924 1.128 70.827.846 47.014.282 7.885.282 4.4.282 2.11.282.288.564-1.65.282 1.246 1.127 12.662.564 11.2.282 3.243.282 1.893.564 6.775.564 5.398.282 2.873.564 9.848.282 2.636.282.862.282 2.264.282 3.955.282.562.282-8.539.564-41.043.846-64.554 1.127-62.639.564-21.322.282-5.502.282-2.977.282-.441.282 2.441.282 6.552.282 12.448 1.692 102.913.282 10.855.282 6.473.282 3.537.282 1.02.282-1.334.564-3.961.282-.387.281.997.564 5.276.564 7.066.846 13.238.564 6.037 1.692 26.837.282 4.407.282 2.55.282.402.282-1.192.282-3.861.282-9.963.564-44.313.563-47.182 1.41-81.876.564-14.383.282-3.901.282-1.757.282.761.282 3.464.282 6.477.282 10.325.846 48.749 1.128 59.976.564 17.604.282 5.354.282 1.957.282-.863.563-3.802.282-1.118.282-.476.282.198.282 1.393.564 6.688.846 9.815.564 6.309 1.128 16.837.282 3.225.846 12.962.282 1.974.282-.565.282-5.713.282-13.147.845-68.641 1.128-76.957.564-21.582.564-11.004.282-2.208.282-.435.282 1.22.282 2.906.282 4.754.282 8.267.564 31.566.846 45.365.846 42.46.281 7.411.282 3.6.282.576.282-1.578.564-5.114.282-.985.282.463.282.964.282 1.453 1.128 10.531.282 2.12 1.41 16.451.846 13.113.564 5.425.563 3.568.282-1.686.282-8.14.282-16.319 1.41-114.538.564-28.897.564-15.502.282-5.884.282-2.556.282 1.14.282 2.643.282 3.948.282 7.876.564 27.748 1.41 71.826.563 19.768.282 5.93.282 2.893.282.742.282-.699.564-2.922.282-.56.282.228.282.913.282 1.895 1.128 12.003 2.537 31.752.564 3.792.282 1.458.282.513.282-3.17.282-11.002.564-47.13.846-67.402.564-32.935.564-17.732.564-8.373.282-1.479.282.535.282 2.321.282 3.845.282 5.989.564 21.839 1.127 48.471.846 32.772.564 16.773.282 4.387.564 3.857.282.85.282.044.564-.498.282.018.282.594.282 1.793 1.128 12.04 2.82 41.711.281 1.16.282-3.754.282-11.824.564-48.585.846-74.994.564-32.734.564-21.085.282-7.46.282-4.114.282-1.136.282-.128.282.409.282 2.721.282 6.554.563 22.914.846 39.739 1.692 58.295.564 12.434 1.128 16.465.282 1.895.846 1.838.564-.913.282.743 1.127 7.394.846 10.646.564 7.708 1.128 8.515.282-1.247.282-6.767.282-15.024 1.692-133.829.564-20.265.564-9.968.281-2.938.282-1.443.282.482.282 2.86.282 5.815.564 21.124 1.128 49.812.846 24.292 1.41 28.095.846 14.028.564 4.282.564 3.096.563 1.997.564 1.197.282 1.165.564 5.095.564 7.016.564 8.792.846 9.888.564 6.548.282.599.282-3.142.282-11.359.564-49.706.846-72.095.563-30.653.564-17.369.282-5.794.282-2.699.282-.668.282.376.282 1.966.282 3.831.282 5.496.282 8.168 1.128 44.89.846 21.615.846 20.123.564 9.441.564 12.478.845 14.68.564 10.074.564 6.245.282 1.657.846 2.332.282.389.282.678.564 3.706.564 4.912.564 6.915 1.128 15.422.282-6.475.282-15.983 1.691-134.875.564-20.815.564-12.212.282-2.61.282-.98.282.655.282 2.429.282 4.119.564 13.868 1.41 52.187.846 18.708.845 17.54.564 10.96 1.692 27.347.564 10.204 1.128 11.028.282.47.282-.333.282 1.414.564 4.515.282.077.282.304.282 1.925.845 9.543.282.91.282-2.484.282-9.095.282-18.749.846-77.131.846-47.898.564-17.855.282-4.69.282-2.616.282-.656.282 1.115.282 2.615.282 4.095.282 6.286.564 20.956.564 19.75 1.127 29.27.846 15.609.564 6.497.564 5.361 1.128 16.22 1.128 20.571.846 9.466.282 1.17.282-.145.282.11.282 1.845 1.41 16.101.563 5.733.282-.16.282-7.95.564-42.417.846-72.488.564-31.304.564-17.393.282-6.03.282-3.483.282-1.463.282.167.282 1.917.564 7.149.282 6.282.563 22.552.564 20.365 1.128 24.642 1.692 21.831 1.974 19.086.282 4.63.846 18.861.563 10.161.846 17.17.564 7.285 1.128 10.04.282.945.282-2.616.282-11.06.564-50.76.564-52.961.564-33.91.564-21.51.564-12.92.282-1.729.281.268.564 2.1.282 2.3.282 5.2.564 19.79 1.128 40.258.564 10.583 1.128 15.196.564 3.23 1.41 13.397 1.973 30.854.564 6.436 1.692 29.82.564 6.264.282 1.525.282-2.13.282-12.639 1.41-119.795.564-27.597.845-21.242.282-2.49.282-.903.282.585.282 3.073.564 12.106.564 18.683.564 19.1.564 13.465 1.128 19.688.282 3.049.282 1.71.846 9.247.282.57.281 2.175h0" clip-path="url(#p45fe1f4246)" style="fill:none;stroke:#1f77b4;stroke-width:1.5;stroke-linecap:square"/><path id="patch_3" d="M71.308 266.112V0" style="fill:none;stroke:gray;stroke-width:.8;stroke-linejoin:miter;stroke-linecap:square"/><path id="patch_4" d="M685.107 266.112V0" style="fill:none;stroke:#000;stroke-width:.8;stroke-linejoin:miter;stroke-linecap:square"/><path id="patch_5" d="M71.308 266.112h613.8" style="fill:none;stroke:gray;stroke-width:.8;stroke-linejoin:miter;stroke-linecap:square"/><path id="patch_6" d="M71.308 0h613.8" style="fill:none;stroke:#000;stroke-width:.8;stroke-linejoin:miter;stroke-linecap:square"/></g></g><defs><clipPath id="p45fe1f4246"><path d="M71.308 0h613.8v266.112h-613.8z"/></clipPath></defs></svg>