<svg xmlns="http://www.w3.org/2000/svg" xmlns:xlink="http://www.w3.org/1999/xlink" width="913.477" height="377.053" viewBox="0 0 685.107 282.79"><defs><style>*{stroke-linejoin:round;stroke-linecap:butt}</style></defs><g id="figure_1"><path id="patch_1" d="M0 282.79h685.107V0H0v282.79z" style="fill:none"/><g id="axes_1"><path id="patch_2" d="M71.308 266.112h613.8V0h-613.8v266.112z" style="fill:none"/><g id="matplotlib.axis_1"><g id="xtick_1"><g id="line2d_1"><defs><path id="m3a3fd4d8be" d="M0 0v3.5" style="stroke:gray;stroke-width:.8"/></defs><use xlink:href="#m3a3fd4d8be" x="99.207" y="266.112" style="fill:gray;stroke:gray;stroke-width:.8"/></g><g id="text_1" style="fill:gray" transform="matrix(.1 0 0 -.1 96.026 280.71)"><defs><path id="DejaVuSans-30" d="M2034 4250q-487 0-733-480-245-479-245-1442 0-959 245-1439 246-480 733-480 491 0 736 480 246 480 246 1439 0 963-246 1442-245 480-736 480zm0 500q785 0 1199-621 414-620 414-1801 0-1178-414-1799Q2819-91 2034-91q-784 0-1198 620-414 621-414 1799 0 1181 414 1801 414 621 1198 621z" transform="scale(.01563)"/></defs><use xlink:href="#DejaVuSans-30"/></g></g><g id="xtick_2"><use xlink:href="#m3a3fd4d8be" id="line2d_2" x="168.958" y="266.112" style="fill:gray;stroke:gray;stroke-width:.8"/><g id="text_2" style="fill:gray" transform="matrix(.1 0 0 -.1 159.414 280.71)"><defs><path id="DejaVuSans-35" d="M691 4666h2478v-532H1269V2991q137 47 274 70 138 23 276 23 781 0 1237-428 457-428 457-1159 0-753-469-1171Q2575-91 1722-91q-294 0-599 50Q819 9 494 109v635q281-153 581-228t634-75q541 0 856 284 316 284 316 772 0 487-316 771-315 285-856 285-253 0-505-56-251-56-513-175v2344z" transform="scale(.01563)"/></defs><use xlink:href="#DejaVuSans-35"/><use xlink:href="#DejaVuSans-30" x="63.623"/><use xlink:href="#DejaVuSans-30" x="127.246"/></g></g><g id="xtick_3"><use xlink:href="#m3a3fd4d8be" id="line2d_3" x="238.708" y="266.112" style="fill:gray;stroke:gray;stroke-width:.8"/><g id="text_3" style="fill:gray" transform="matrix(.1 0 0 -.1 225.982 280.71)"><defs><path id="DejaVuSans-31" d="M794 531h1031v3560L703 3866v575l1116 225h631V531h1031V0H794v531z" transform="scale(.01563)"/></defs><use xlink:href="#DejaVuSans-31"/><use xlink:href="#DejaVuSans-30" x="63.623"/><use xlink:href="#DejaVuSans-30" x="127.246"/><use xlink:href="#DejaVuSans-30" x="190.869"/></g></g><g id="xtick_4"><use xlink:href="#m3a3fd4d8be" id="line2d_4" x="308.457" y="266.112" style="fill:gray;stroke:gray;stroke-width:.8"/><g id="text_4" style="fill:gray" transform="matrix(.1 0 0 -.1 295.733 280.71)"><use xlink:href="#DejaVuSans-31"/><use xlink:href="#DejaVuSans-35" x="63.623"/><use xlink:href="#DejaVuSans-30" x="127.246"/><use xlink:href="#DejaVuSans-30" x="190.869"/></g></g><g id="xtick_5"><use xlink:href="#m3a3fd4d8be" id="line2d_5" x="378.207" y="266.112" style="fill:gray;stroke:gray;stroke-width:.8"/><g id="text_5" style="fill:gray" transform="matrix(.1 0 0 -.1 365.483 280.71)"><defs><path id="DejaVuSans-32" d="M1228 531h2203V0H469v531q359 372 979 998 621 627 780 809 303 340 423 576 121 236 121 464 0 372-261 606-261 235-680 235-297 0-627-103-329-103-704-313v638q381 153 712 231 332 78 607 78 725 0 1156-363 431-362 431-968 0-288-108-546-107-257-392-607-78-91-497-524-418-433-1181-1211z" transform="scale(.01563)"/></defs><use xlink:href="#DejaVuSans-32"/><use xlink:href="#DejaVuSans-30" x="63.623"/><use xlink:href="#DejaVuSans-30" x="127.246"/><use xlink:href="#DejaVuSans-30" x="190.869"/></g></g><g id="xtick_6"><use xlink:href="#m3a3fd4d8be" id="line2d_6" x="447.957" y="266.112" style="fill:gray;stroke:gray;stroke-width:.8"/><g id="text_6" style="fill:gray" transform="matrix(.1 0 0 -.1 435.233 280.71)"><use xlink:href="#DejaVuSans-32"/><use xlink:href="#DejaVuSans-35" x="63.623"/><use xlink:href="#DejaVuSans-30" x="127.246"/><use xlink:href="#DejaVuSans-30" x="190.869"/></g></g><g id="xtick_7"><use xlink:href="#m3a3fd4d8be" id="line2d_7" x="517.707" y="266.112" style="fill:gray;stroke:gray;stroke-width:.8"/><g id="text_7" style="fill:gray" transform="matrix(.1 0 0 -.1 504.983 280.71)"><defs><path id="DejaVuSans-33" d="M2597 2516q453-97 707-404 255-306 255-756 0-690-475-1069Q2609-91 1734-91q-293 0-604 58T488 141v609q262-153 574-231 313-78 654-78 593 0 904 234t311 681q0 413-289 645-289 233-804 233h-544v519h569q465 0 712 186t247 536q0 359-255 551-254 193-729 193-260 0-557-57-297-56-653-174v562q360 100 674 150t592 50q719 0 1137-327 419-326 419-882 0-388-222-655t-631-370z" transform="scale(.01563)"/></defs><use xlink:href="#DejaVuSans-33"/><use xlink:href="#DejaVuSans-30" x="63.623"/><use xlink:href="#DejaVuSans-30" x="127.246"/><use xlink:href="#DejaVuSans-30" x="190.869"/></g></g><g id="xtick_8"><use xlink:href="#m3a3fd4d8be" id="line2d_8" x="587.457" y="266.112" style="fill:gray;stroke:gray;stroke-width:.8"/><g id="text_8" style="fill:gray" transform="matrix(.1 0 0 -.1 574.732 280.71)"><use xlink:href="#DejaVuSans-33"/><use xlink:href="#DejaVuSans-35" x="63.623"/><use xlink:href="#DejaVuSans-30" x="127.246"/><use xlink:href="#DejaVuSans-30" x="190.869"/></g></g><g id="xtick_9"><use xlink:href="#m3a3fd4d8be" id="line2d_9" x="657.207" y="266.112" style="fill:gray;stroke:gray;stroke-width:.8"/><g id="text_9" style="fill:gray" transform="matrix(.1 0 0 -.1 644.482 280.71)"><defs><path id="DejaVuSans-34" d="M2419 4116 825 1625h1594v2491zm-166 550h794V1625h666v-525h-666V0h-628v1100H313v609l1940 2957z" transform="scale(.01563)"/></defs><use xlink:href="#DejaVuSans-34"/><use xlink:href="#DejaVuSans-30" x="63.623"/><use xlink:href="#DejaVuSans-30" x="127.246"/><use xlink:href="#DejaVuSans-30" x="190.869"/></g></g></g><g id="matplotlib.axis_2"><g id="ytick_1"><g id="line2d_10"><defs><path id="m36ab81c745" d="M0 0h-3.5" style="stroke:gray;stroke-width:.8"/></defs><use xlink:href="#m36ab81c745" x="71.308" y="245.471" style="fill:gray;stroke:gray;stroke-width:.8"/></g><g id="text_10" style="fill:gray" transform="matrix(.16 0 0 -.16 0 251.55)"><defs><path id="DejaVuSans-2212" d="M678 2272h4006v-531H678v531z" transform="scale(.01563)"/></defs><use xlink:href="#DejaVuSans-2212"/><use xlink:href="#DejaVuSans-32" x="83.789"/><use xlink:href="#DejaVuSans-30" x="147.412"/><use xlink:href="#DejaVuSans-30" x="211.035"/><use xlink:href="#DejaVuSans-30" x="274.658"/><use xlink:href="#DejaVuSans-30" x="338.281"/></g></g><g id="ytick_2"><use xlink:href="#m36ab81c745" id="line2d_11" x="71.308" y="195.065" style="fill:gray;stroke:gray;stroke-width:.8"/><g id="text_11" style="fill:gray" transform="matrix(.16 0 0 -.16 0 201.143)"><use xlink:href="#DejaVuSans-2212"/><use xlink:href="#DejaVuSans-31" x="83.789"/><use xlink:href="#DejaVuSans-30" x="147.412"/><use xlink:href="#DejaVuSans-30" x="211.035"/><use xlink:href="#DejaVuSans-30" x="274.658"/><use xlink:href="#DejaVuSans-30" x="338.281"/></g></g><g id="ytick_3"><use xlink:href="#m36ab81c745" id="line2d_12" x="71.308" y="144.659" style="fill:gray;stroke:gray;stroke-width:.8"/><use xlink:href="#DejaVuSans-30" id="text_12" style="fill:gray" transform="matrix(.16 0 0 -.16 54.127 150.737)"/></g><g id="ytick_4"><use xlink:href="#m36ab81c745" id="line2d_13" x="71.308" y="94.252" style="fill:gray;stroke:gray;stroke-width:.8"/><g id="text_13" style="fill:gray" transform="matrix(.16 0 0 -.16 13.408 100.331)"><use xlink:href="#DejaVuSans-31"/><use xlink:href="#DejaVuSans-30" x="63.623"/><use xlink:href="#DejaVuSans-30" x="127.246"/><use xlink:href="#DejaVuSans-30" x="190.869"/><use xlink:href="#DejaVuSans-30" x="254.492"/></g></g><g id="ytick_5"><use xlink:href="#m36ab81c745" id="line2d_14" x="71.308" y="43.846" style="fill:gray;stroke:gray;stroke-width:.8"/><g id="text_14" style="fill:gray" transform="matrix(.16 0 0 -.16 13.408 49.925)"><use xlink:href="#DejaVuSans-32"/><use xlink:href="#DejaVuSans-30" x="63.623"/><use xlink:href="#DejaVuSans-30" x="127.246"/><use xlink:href="#DejaVuSans-30" x="190.869"/><use xlink:href="#DejaVuSans-30" x="254.492"/></g></g></g><path id="line2d_15" d="m99.207 144.738.282-.158.282.156.282-.154.282.153.282-.152.282.15.282-.15.282.15.282-.15.282.15.282-.15.282.15.282-.15.282.151.282-.152.282.154.282-.155.282.156.282-.158.282.16.282-.163.282.166.282-.169.282.172.282-.175.281.18.282-.185.282.19.282-.195.282.2.282-.207.282.215.282-.224.282.234.282-.245.282.258.282-.273.282.29.282-.31.282.335.282-.365.282.402.282-.45.282.512.282-.597.282.72.282-.915.282 1.273.282-2.143.563 19.347.282-.06.282-1.106.564-22.743.282-11.655.282-4.654.846-5.99.282.556.282 1.892.282 1.091.564-2.685.282.338.846 7.15.564 6.863.564 10.005.564 11.924.282 1.707.563-2.022.282-.017.282-.753.282-1.128.282.191.564 2.9.564-.038.282.366.564-.686.282.709.564 3.19.282-.098.282-.347.564 1.432.282-.114.282-.686.282.114 1.41 5.533.281 1.841.282-.846.282-6.013.846-28.083.282-3.028.564-3.001.846-6.636.564-8.639.282-.553 1.128 10.296 1.691 40.177.282.236.564-3.612.282-.656.282 1.058.282 1.647.282.278.282-.827.282-.106.282.503.564-.459.564 1.76.282-.602.282-.05.282 1.41.282.587.282-.931.282-.008.282 1.176.282-.686.563-6.38.282-.332.846 4.083.282 2.373.282 3.624.282 1.833.282-4.024.846-27.952.564-6.191 1.41-9.661.282-.573.282.405.282.949.282 1.875.845 9.004.564 10.876.564 10.497.282 3.52.282 1.796.282-.678.564-3.726.282-.116.564 1.187.564 1.9.282-1.09.564-6.597.282.503.282 1.937.282.115.282-.519.282 1.698.282 2.737.282 1.192.281.286.564 1.909.282.427.282 1.448.564 4.461.564.82.282 1.301.282.514.282-2.32.282-6.344.846-27.881.282-5.707.282-3.069.282-.67.282-.344.846-6.168.564.841.282 1.804.563 9.342.564 4.627.846 14.555.846 6.305.282-1.179.282-1.88.282-.507.846 2.602.282-.211.282-.822.282.065.564 2.41.564-.48 1.127 2.86.564 1.208.282.88.564 2.22.282-.025.282.189.564 1.98.282.333.282 1.992.282 3.606.282.435.282-6.697.846-29.72.282-4.579.846-7.121.564-8.28.282-.623.281.022.282-.614.282.533.282 3.186 1.692 31.959.564 9.22.282.105.282-2.156.282-1.194.564.77.282-.672.282-.144.564 2.757.282.399.282-.095.282.45.282.858.281.313.282-.168.282.015.282.244.282-.24.282-.505.282.24.564 2.083.564.557.564 1.074.282.357.282.943.846 4.96.282-.298.282-5.067.846-27.368.564-9.325.281-1.55.282-.9 1.128-8.184.282-.71.282.394.564 5 .564 6.034.564 9.382.846 16.477.282.79.282-1.654.282-.457.282 1.487.282.794.282-.494.282.283.282 1.382.282.455.281-.406.282.418.282 1.01h.282l.282-.55.282.01.282.225.282-.047.282.504.564 1.682.282.387.564 2.194.282.247.282-.205.282.274.564 1.29.564 2.922.564 2.354.282-.288.282-3.438.563-18.3.564-14.805.564-5.71.846-5.377.564-4.891.282-.379.282 1.336.282 3.823.564 11.082.564 6.314 1.128 21.312.282 1.026.282-2.357.282-3.492.281-1.808.564-.58.282-.09.564.858.846 1.697.282.2.564 1.344.564 1.608.282 1.023.282.355.282.15.282.782.564 1.899 1.128 3.135.282.22.282-.32.281.342.564 4.556.282.296.282-2.17.282-4.58.564-19.298.564-16.44.282-2.906.282-1.006.282-.287.282-1.385.846-7.813.282-1.362.282-.002.282 2.801.564 8.941.564 7.33.563 12.908.282 6.875.282 3.957.282.777.564-.686 1.128-3.796.282-.231.564 2.318.282-1.63.282-3.587.282-1.086.282 1.692.282.65.282-.545.282 2.543.564 10.728.282 1.353.282.741.564 3.148.281-.034.282.459.564 3.034.564-.91.564 1.163.282-.943.282-1.692.282-2.565.282-6.345.846-30.964.564-8.836.282-3.06.282-1.534.282-2.217.282-3.417.282-1.293 1.127 8.531.564 6.937.282 4.454.564 14.813.564 12.697.282 1.382.564-2.546.282.628.564 4.343.282.112.282-.27.564 1.33.282-1.458.282-2.135.282.028.282 1.887.282 1.067.282-.565.282-.117.845 3.603.282 2.234.564 5.712.282.46.282.233.564 1.89.282.173.282.929.564 4.234.282-1.332.846-13.81 1.128-23.91.282-1.982 1.691-31.054.282-.955.282 1.92.564 6.614 1.128 23.197.564 15.83.282 3.566.282.136.564-1.484.282.293.282.836.282.472.282-.308.282.473.846 7.494.563-2.407.564 1.976.282-1.508.282-2.751.282-.913.564 1.96.282 1.027.282.435.564-4.118.282.223.282 1.767.564-.46.282 3.677.564 10.323.564 4.672.282-2.78 1.41-49.116.281-3.649.282-1.609 1.41-12.387.282.213.564 6.936.564 8.242 1.41 33.095.282 2.63.282-.817.564-4.241.282-.805.282-.165.281.372.564 2.564.282 1.329.282.438.282-.882.282-1.406.282-.059.282 1.265.282.692.282-.538h.282l.564 1.762.282.66.282 2.764.564 7.402.564.267.564 3.017.282-1 .282-2.134.282-.894.281 1 .564 4.113.282-.268.282-5.25 1.41-49.043.282-3.247.282.332.282.807.282-1.715.282-3.387.282-1.965.282.366.282.106.282-.936.282 1.518.564 15.466 1.41 36.553.281-.48.282-1.715 1.128-2.736.564 1.934.282-1.149.564-4.057.282-.845.282-.057.846 1.953.282 1.93.282 3.075.282 1.434.564-2.603.282.717.564 3.03.845 2.682.564.309.282.834.564 2.621.564 3.965.282.382.282-4.088.564-19.869.846-30.849.282-5.49.846-7.333.282-2.444.282-.127.564 3.788.281 1.059.282 2.699.846 18.07 1.128 28.585.282 3.4.282-.936.564-8.223.282-1.435.282.288.846 1.477.282 2.463.564 6.164.282-.667.282-1.025.564 1.9.282-.133.281.32.564 2.968.282-.002.282.116.564 1.089.282-.154.564-.652.282.168.564 1.36.282.54.282 2.811.282 4.458.282.706.282-7.653 1.128-51.459.564-9.717.563-3.697.564-3.156.282-.116.846 5.334.282 3.999.846 22.767.846 24.964.282 2.793.282.791.282-.576.564-3.049.282-.224.282.418.282.626.282 1.267.564 3.708.281.05.282-.566.282.82.282 1.685.282-.177.564-5.128.282.406.282 1.536.564 1.322.282 2.461.564 6.258.846 3.499.564 3.729.282 1.077.564 3.938.282-.89.282-6.457 1.41-56.784.563-7.987.282-2.423.846-15.234.282-.6.282.06.282 1.165.282 5.722 1.974 65.107.282-.184.282-2.126.282-.855.282.423.282-.224.281-.844.282-.227.282-.535.282-1.38.282-.782.282.326.282.117.282.425.282 1.474.282.71.282-1.225.282-.482.564 2.844.282.429.846 4.138.282.419.564 4.831.282.821.282 2.24.564 10.367.845 6.403.282-.458.282-6.396.564-27.57.564-28.751.846-22.303.564-11.26.846-14.908.282-1.762.282-1.05.282-.076.282 4.579.282 11.506 1.128 65.825.281 6.538.282 1.751.282-.421.846-4.598.282-.374.282-.12.282.254.282.816.282.404.282-.962.282-.543.282 2.119.564 6.378.282.257.282.519.564 4.03.282-1.174.282-2.21.282.123.564 3.142.281.846.282 2.494.564 6.377.564 3.217.282 1.298.564 4.929.282-.893.282-7.605.564-25.578.846-46.964 1.41-36.344.564-13.895.282-3.753.282.78.282 4.467.281 8.174.282 14.064 1.128 77.993.282 6.702.282 1.284.564-1.45.564-2.658.282.04.282.647.282-.338.282-.786.282.039.282.483.564-.295.282 1.243.282 1.795.282.694.282.122.282.88.563 2.364.282.397.282.1.282-.102.282.493.564 3.762.282.35.282.715.564 4.5.282-1.068.282-.61.564 5.406.282-2.655.564-19.436 1.41-63.797 1.127-36.15.564-12.475.282-2.278.282 5.02.564 24.87.564 32.523.564 39.96.282 9.135.282 1.126.282-1.138.282-.031.282.374.282-.875.282-1.33.282.122.564 3.16.282-.05.282-.165.563 2.006.282-.226.282-.606.282.546.564 2.227.282.721.564 2.735.846 4.205.282 1.024.282 1.493.564 6.394.564 5.822.564 5.363.282 1.004.282-4.331.282-11.35 1.127-65.577 1.692-68.795.282-8.167.282.68.846 17.21.282 12.198.564 41.968.564 51.392.282 11.362.282.776.282-1.571.564-1.01.282-.696.282.264.281-.135.564-2.274.282.422.282.173.282-.485.282.08.282.827.282.372.282.08.282.728 1.128 6.008.282 1 .282 1.736.846 7.305 1.692 19.868.281 1.644.282-.871.282-8.564 2.256-139.17.282-11.44.282-2.17.282 2.489.282.046.282-1.319.282 1.427.846 11.036.282 13.257 1.128 95.971.281.547.282-.19.282 2.195.282.602.282-1.24.282-.04.282.912.282-.41.282-.776.282.421.282.82.282.148.282.464.282 1.48.846 5.973.282.388.282.876.564 4.333.564-2.688.282 2.052.282 3.491.563 2.088.282 4.767.564 11.237.282 2.96.564 7.37.282-3.246.282-11.34.846-55.845 1.41-89.615.282-6.966.564-5.265.282-4.264.282-2.208.282.086.282.68.282 3.255.281 8.88.282 15.842.564 56.719.282 29.033.282 13.107.282-.825.282-1.518.564 4.398.282-.879.282.912.846 9.31.282 1.94.282.5.282-.466.282.46.564 2.515.846 1.695.282.169.281 1.06.846 5.477.564 3.788 1.41 13.669.846 10.15.282-5.054.564-32.057 1.692-108.568.282-14.524.282-6.473.282-2.255.845-13.114.564-5.356.282 1.27.282 7.65.282 13.826.564 54.942.282 28.803.282 13.864.846 7.407.564 6.916.564 9.649.564 2.967.282 2.353.282.182.564-4.683.281.928 1.692 10.605 1.41 12.615.564 6.363 1.128 16.2.282.624.282-7.145.564-38.271 1.127-82.023.564-30.126.564-11.111 1.128-32.658.282-3.686.282 2.54.282 8.004.282 11.575.282 18.79.846 84.267.282 5.763.282.75.846 13.033.846 5.785.282.922 1.41 8.98 1.127 11.649.282-1.322.282-4.248.282-.66.564 9.904.282 1.184.282 3.19.846 30.195.846 13.846.282 1.01.282-4.323.282-12.889 1.973-154.431.564-21.146.564-25.839.282-6.166.282-2.71.282-.321.282 2.605.282 6.09.282 9.043.282 13.12.282 21.63.564 64.811.282 18.476.282 2.682.282.274.564 9.182.563-5.07.564 2.997.282-.151.282 1.607.846 14.937 1.692 11.716.282 1.428.282 3.556.846 15.919.564 7.221.282 3.806.282.88.282.027.281 3.874.564 12.148.282.146.282-5.576.282-12.687.564-40.695 1.41-112.815.846-41.314.564-9.427.282-1.788.282 1.39.282 4.273.564 14.613.282 13.79.563 56.003.282 28.913.282 14.176 1.692 14.695.564 3.949.846 5.776.282.876.846 4.986.282 3.105.564 10.914.564 3.326 2.537 32.084.846 15.61.282.77.282-7.787.564-39.224 1.692-146.405.282-17.064.282-9.095.564-4.246.282-3.896.282-1.585.281 1.813.282 3.633.282 5.894.282 8.829.282 13.749.564 56 .282 28.3.282 13.715.282 5.504.564 16.758.282 3.893.282 1.992.564 6.628.564-4.045.282 1.045.282 1.633.282.661.282 1.351.282 2.046.282.548.282-.117.281 1.75.564 5.546.282 1.538.282 2.71.564 7.379.846 9.356.564 8.318.846 20.44.282-.973.282-11.246.564-43.786 1.41-125.223.564-25.106.281-7.807.564-7.888.282-2.092.282.923.846 12.166.282 8.131.282 16.693 1.128 96.969.564 10.919.564 6.716.846 4.078.282.382.282 1.168.564 3.821.281.198.282.797.846 6.152.282 3.377.846 15.463.282 2.223.282.358.282.94.282 3.79 1.128 21.562.564 16.088.282-2.034.282-12.336.564-50.252.846-92.134.563-34.951.564-18.582.564-10.882.282-1.82.282-.564.282.279.282 1.804.282 3.879.282 5.981.282 9.322.282 14.89.564 50.762.564 45.14.282 4.493.282-1.542.282 1.54.282 5.21.282 2.802.564-6.083.281.114.564 6.167.846 4.648.282 2.516 1.128 17.28.282 2.075.564 7.937.282 1.03.282.438.282 3.092.564 8.977.282 3.89.282 6.483.846 26.691.282-2.155.281-12.325.564-51.102.846-100.518.564-33.426.564-21.606.564-15.543.282-3.553.282-.09.282.146.282.678.282 4.823.564 18.71.282 11.87.564 40.315.564 48.277.282 14.442.282 6.111 1.127 10.826.282.966.564 3.435 1.128 8.034.282 1.586.564 6.744.846 5.638.846 11.009.564 10.74 1.127 15.427.564 9.792.282 5.788.282.534.282-9.642.282-21.582 1.41-152.32.564-23.367.282-5.65.564-5.714.564-6.712.282-1.191.282.45.282 2.705.564 9.984.282 8.913.563 34.34.846 66.81.282 11.352.564 7.508.846 10.997.564 4.483.564 1.248 1.128 4.965 3.101 28.193.846 13.215.846 14.057.282-4.838.282-15.585.564-62.115.564-64.68.564-30.672.564-20.623.564-8.948.564-6.882.282-.75.281.05.282.981.282 3.475.564 12.738.282 11.525 1.692 102.63.282 4.841.564 5.358.282 2.637.846 3.931.282.311.282 1.586.846 15.233.282 1.65.282.756.281-.16.564-2.133.282-.237.282 1.669.564 6.91.282 1.866.282 3.567 1.128 26.29.282 4.953.282-4.001.282-16.932.564-57.556.564-61.908.282-16.186.564-20.217.564-22.807.563-6.295.282-3.087.282-1.325.846 3.32.282 4.27.564 21.863.564 32.744.564 38.776.564 24.849.564 17.653.282 4.303.282 2.398.282 1.414.282.7.282 1.429.564 4.462.281.814.282 1.321 1.41 12.34 1.128 10.85.564 8.975 1.41 28.497.282 1.986.282-7.129.282-21.174.846-110.35.564-30.991.563-24.33.564-14.435.564-9.207.564-3.542.282.009.282.72.282.17.282 2.299.282 7.897.564 26.644.564 39.349.564 35.848.846 28.117.282 5.673.282 3.203.282 1.268.281.686.564 2.296.282-.35.282-.082.282 2.674.564 8.285.846 6.79 1.41 13.91.846 12.127.564 10.023.564 12.378.282-.49.282-11.22.281-24.708.846-108.195.564-29.065.846-31.972.846-13.989.282-2.738.282-.682.282 1.212.564 4.496.282 3.566.282 8.245.564 31.947.846 45.837.845 31.092 1.128 29.704 1.128 9.34.282-.35.282.883.564 4.697.282 1.099.846 6.198.282.312.282 2.493.564 7.765.564 5.603.845 11.272.564 11.631.282.8.282-9.982.282-24.27.846-98.004.564-26.72.846-34.427.564-11.938.282-3.486.282-1.957.282-.42.564 5.514.564 9.007.564 15.626.281 20.323h0" clip-path="url(#pfb06b14cbe)" style="fill:none;stroke:#1f77b4;stroke-width:1.5;stroke-linecap:square"/><path id="patch_3" d="M71.308 266.112V0" style="fill:none;stroke:gray;stroke-width:.8;stroke-linejoin:miter;stroke-linecap:square"/><path id="patch_4" d="M685.107 266.112V0" style="fill:none;stroke:#000;stroke-width:.8;stroke-linejoin:miter;stroke-linecap:square"/><path id="patch_5" d="M71.308 266.112h613.8" style="fill:none;stroke:gray;stroke-width:.8;stroke-linejoin:miter;stroke-linecap:square"/><path id="patch_6" d="M71.308 0h613.8" style="fill:none;stroke:#000;stroke-width:.8;stroke-linejoin:miter;stroke-linecap:square"/></g></g><defs><clipPath id="pfb06b14cbe"><path d="M71.308 0h613.8v266.112h-613.8z"/></clipPath></defs></svg>