<?xml version="1.0" encoding="utf-8" standalone="no"?>
<!DOCTYPE svg PUBLIC "-//W3C//DTD SVG 1.1//EN"
  "http://www.w3.org/Graphics/SVG/1.1/DTD/svg11.dtd">
<svg xmlns:xlink="http://www.w3.org/1999/xlink" width="660.992188pt" height="282.790125pt" viewBox="0 0 660.992188 282.790125" xmlns="http://www.w3.org/2000/svg" version="1.1">
 <metadata>
  <rdf:RDF xmlns:dc="http://purl.org/dc/elements/1.1/" xmlns:cc="http://creativecommons.org/ns#" xmlns:rdf="http://www.w3.org/1999/02/22-rdf-syntax-ns#">
   <cc:Work>
    <dc:type rdf:resource="http://purl.org/dc/dcmitype/StillImage"/>
    <dc:date>2023-03-06T19:25:44.853112</dc:date>
    <dc:format>image/svg+xml</dc:format>
    <dc:creator>
     <cc:Agent>
      <dc:title>Matplotlib v3.6.3, https://matplotlib.org/</dc:title>
     </cc:Agent>
    </dc:creator>
   </cc:Work>
  </rdf:RDF>
 </metadata>
 <defs>
  <style type="text/css">*{stroke-linejoin: round; stroke-linecap: butt}</style>
 </defs>
 <g id="figure_1">
  <g id="patch_1">
   <path d="M -0 282.790125 
L 660.992188 282.790125 
L 660.992188 0 
L -0 0 
L -0 282.790125 
z
" style="fill: none"/>
  </g>
  <g id="axes_1">
   <g id="patch_2">
    <path d="M 47.192188 266.112 
L 660.992188 266.112 
L 660.992188 0 
L 47.192188 0 
L 47.192188 266.112 
z
" style="fill: none"/>
   </g>
   <g id="matplotlib.axis_1">
    <g id="xtick_1">
     <g id="line2d_1">
      <defs>
       <path id="m8a66e79028" d="M 0 0 
L 0 3.5 
" style="stroke: #000000; stroke-width: 0.8"/>
      </defs>
      <g>
       <use xlink:href="#m8a66e79028" x="75.092188" y="266.112" style="stroke: #000000; stroke-width: 0.8"/>
      </g>
     </g>
     <g id="text_1">
      <!-- 0 -->
      <g transform="translate(71.910938 280.710438) scale(0.1 -0.1)">
       <defs>
        <path id="DejaVuSans-30" d="M 2034 4250 
Q 1547 4250 1301 3770 
Q 1056 3291 1056 2328 
Q 1056 1369 1301 889 
Q 1547 409 2034 409 
Q 2525 409 2770 889 
Q 3016 1369 3016 2328 
Q 3016 3291 2770 3770 
Q 2525 4250 2034 4250 
z
M 2034 4750 
Q 2819 4750 3233 4129 
Q 3647 3509 3647 2328 
Q 3647 1150 3233 529 
Q 2819 -91 2034 -91 
Q 1250 -91 836 529 
Q 422 1150 422 2328 
Q 422 3509 836 4129 
Q 1250 4750 2034 4750 
z
" transform="scale(0.015625)"/>
       </defs>
       <use xlink:href="#DejaVuSans-30"/>
      </g>
     </g>
    </g>
    <g id="xtick_2">
     <g id="line2d_2">
      <g>
       <use xlink:href="#m8a66e79028" x="144.842188" y="266.112" style="stroke: #000000; stroke-width: 0.8"/>
      </g>
     </g>
     <g id="text_2">
      <!-- 500 -->
      <g transform="translate(135.298438 280.710438) scale(0.1 -0.1)">
       <defs>
        <path id="DejaVuSans-35" d="M 691 4666 
L 3169 4666 
L 3169 4134 
L 1269 4134 
L 1269 2991 
Q 1406 3038 1543 3061 
Q 1681 3084 1819 3084 
Q 2600 3084 3056 2656 
Q 3513 2228 3513 1497 
Q 3513 744 3044 326 
Q 2575 -91 1722 -91 
Q 1428 -91 1123 -41 
Q 819 9 494 109 
L 494 744 
Q 775 591 1075 516 
Q 1375 441 1709 441 
Q 2250 441 2565 725 
Q 2881 1009 2881 1497 
Q 2881 1984 2565 2268 
Q 2250 2553 1709 2553 
Q 1456 2553 1204 2497 
Q 953 2441 691 2322 
L 691 4666 
z
" transform="scale(0.015625)"/>
       </defs>
       <use xlink:href="#DejaVuSans-35"/>
       <use xlink:href="#DejaVuSans-30" x="63.623047"/>
       <use xlink:href="#DejaVuSans-30" x="127.246094"/>
      </g>
     </g>
    </g>
    <g id="xtick_3">
     <g id="line2d_3">
      <g>
       <use xlink:href="#m8a66e79028" x="214.592188" y="266.112" style="stroke: #000000; stroke-width: 0.8"/>
      </g>
     </g>
     <g id="text_3">
      <!-- 1000 -->
      <g transform="translate(201.867188 280.710438) scale(0.1 -0.1)">
       <defs>
        <path id="DejaVuSans-31" d="M 794 531 
L 1825 531 
L 1825 4091 
L 703 3866 
L 703 4441 
L 1819 4666 
L 2450 4666 
L 2450 531 
L 3481 531 
L 3481 0 
L 794 0 
L 794 531 
z
" transform="scale(0.015625)"/>
       </defs>
       <use xlink:href="#DejaVuSans-31"/>
       <use xlink:href="#DejaVuSans-30" x="63.623047"/>
       <use xlink:href="#DejaVuSans-30" x="127.246094"/>
       <use xlink:href="#DejaVuSans-30" x="190.869141"/>
      </g>
     </g>
    </g>
    <g id="xtick_4">
     <g id="line2d_4">
      <g>
       <use xlink:href="#m8a66e79028" x="284.342188" y="266.112" style="stroke: #000000; stroke-width: 0.8"/>
      </g>
     </g>
     <g id="text_4">
      <!-- 1500 -->
      <g transform="translate(271.617188 280.710438) scale(0.1 -0.1)">
       <use xlink:href="#DejaVuSans-31"/>
       <use xlink:href="#DejaVuSans-35" x="63.623047"/>
       <use xlink:href="#DejaVuSans-30" x="127.246094"/>
       <use xlink:href="#DejaVuSans-30" x="190.869141"/>
      </g>
     </g>
    </g>
    <g id="xtick_5">
     <g id="line2d_5">
      <g>
       <use xlink:href="#m8a66e79028" x="354.092188" y="266.112" style="stroke: #000000; stroke-width: 0.8"/>
      </g>
     </g>
     <g id="text_5">
      <!-- 2000 -->
      <g transform="translate(341.367188 280.710438) scale(0.1 -0.1)">
       <defs>
        <path id="DejaVuSans-32" d="M 1228 531 
L 3431 531 
L 3431 0 
L 469 0 
L 469 531 
Q 828 903 1448 1529 
Q 2069 2156 2228 2338 
Q 2531 2678 2651 2914 
Q 2772 3150 2772 3378 
Q 2772 3750 2511 3984 
Q 2250 4219 1831 4219 
Q 1534 4219 1204 4116 
Q 875 4013 500 3803 
L 500 4441 
Q 881 4594 1212 4672 
Q 1544 4750 1819 4750 
Q 2544 4750 2975 4387 
Q 3406 4025 3406 3419 
Q 3406 3131 3298 2873 
Q 3191 2616 2906 2266 
Q 2828 2175 2409 1742 
Q 1991 1309 1228 531 
z
" transform="scale(0.015625)"/>
       </defs>
       <use xlink:href="#DejaVuSans-32"/>
       <use xlink:href="#DejaVuSans-30" x="63.623047"/>
       <use xlink:href="#DejaVuSans-30" x="127.246094"/>
       <use xlink:href="#DejaVuSans-30" x="190.869141"/>
      </g>
     </g>
    </g>
    <g id="xtick_6">
     <g id="line2d_6">
      <g>
       <use xlink:href="#m8a66e79028" x="423.842188" y="266.112" style="stroke: #000000; stroke-width: 0.8"/>
      </g>
     </g>
     <g id="text_6">
      <!-- 2500 -->
      <g transform="translate(411.117188 280.710438) scale(0.1 -0.1)">
       <use xlink:href="#DejaVuSans-32"/>
       <use xlink:href="#DejaVuSans-35" x="63.623047"/>
       <use xlink:href="#DejaVuSans-30" x="127.246094"/>
       <use xlink:href="#DejaVuSans-30" x="190.869141"/>
      </g>
     </g>
    </g>
    <g id="xtick_7">
     <g id="line2d_7">
      <g>
       <use xlink:href="#m8a66e79028" x="493.592188" y="266.112" style="stroke: #000000; stroke-width: 0.8"/>
      </g>
     </g>
     <g id="text_7">
      <!-- 3000 -->
      <g transform="translate(480.867188 280.710438) scale(0.1 -0.1)">
       <defs>
        <path id="DejaVuSans-33" d="M 2597 2516 
Q 3050 2419 3304 2112 
Q 3559 1806 3559 1356 
Q 3559 666 3084 287 
Q 2609 -91 1734 -91 
Q 1441 -91 1130 -33 
Q 819 25 488 141 
L 488 750 
Q 750 597 1062 519 
Q 1375 441 1716 441 
Q 2309 441 2620 675 
Q 2931 909 2931 1356 
Q 2931 1769 2642 2001 
Q 2353 2234 1838 2234 
L 1294 2234 
L 1294 2753 
L 1863 2753 
Q 2328 2753 2575 2939 
Q 2822 3125 2822 3475 
Q 2822 3834 2567 4026 
Q 2313 4219 1838 4219 
Q 1578 4219 1281 4162 
Q 984 4106 628 3988 
L 628 4550 
Q 988 4650 1302 4700 
Q 1616 4750 1894 4750 
Q 2613 4750 3031 4423 
Q 3450 4097 3450 3541 
Q 3450 3153 3228 2886 
Q 3006 2619 2597 2516 
z
" transform="scale(0.015625)"/>
       </defs>
       <use xlink:href="#DejaVuSans-33"/>
       <use xlink:href="#DejaVuSans-30" x="63.623047"/>
       <use xlink:href="#DejaVuSans-30" x="127.246094"/>
       <use xlink:href="#DejaVuSans-30" x="190.869141"/>
      </g>
     </g>
    </g>
    <g id="xtick_8">
     <g id="line2d_8">
      <g>
       <use xlink:href="#m8a66e79028" x="563.342188" y="266.112" style="stroke: #000000; stroke-width: 0.8"/>
      </g>
     </g>
     <g id="text_8">
      <!-- 3500 -->
      <g transform="translate(550.617188 280.710438) scale(0.1 -0.1)">
       <use xlink:href="#DejaVuSans-33"/>
       <use xlink:href="#DejaVuSans-35" x="63.623047"/>
       <use xlink:href="#DejaVuSans-30" x="127.246094"/>
       <use xlink:href="#DejaVuSans-30" x="190.869141"/>
      </g>
     </g>
    </g>
    <g id="xtick_9">
     <g id="line2d_9">
      <g>
       <use xlink:href="#m8a66e79028" x="633.092188" y="266.112" style="stroke: #000000; stroke-width: 0.8"/>
      </g>
     </g>
     <g id="text_9">
      <!-- 4000 -->
      <g transform="translate(620.367188 280.710438) scale(0.1 -0.1)">
       <defs>
        <path id="DejaVuSans-34" d="M 2419 4116 
L 825 1625 
L 2419 1625 
L 2419 4116 
z
M 2253 4666 
L 3047 4666 
L 3047 1625 
L 3713 1625 
L 3713 1100 
L 3047 1100 
L 3047 0 
L 2419 0 
L 2419 1100 
L 313 1100 
L 313 1709 
L 2253 4666 
z
" transform="scale(0.015625)"/>
       </defs>
       <use xlink:href="#DejaVuSans-34"/>
       <use xlink:href="#DejaVuSans-30" x="63.623047"/>
       <use xlink:href="#DejaVuSans-30" x="127.246094"/>
       <use xlink:href="#DejaVuSans-30" x="190.869141"/>
      </g>
     </g>
    </g>
   </g>
   <g id="matplotlib.axis_2">
    <g id="ytick_1">
     <g id="line2d_10">
      <defs>
       <path id="mf73a10bbfd" d="M 0 0 
L -3.5 0 
" style="stroke: #000000; stroke-width: 0.8"/>
      </defs>
      <g>
       <use xlink:href="#mf73a10bbfd" x="47.192188" y="233.706061" style="stroke: #000000; stroke-width: 0.8"/>
      </g>
     </g>
     <g id="text_10">
      <!-- −20000 -->
      <g transform="translate(0 237.50528) scale(0.1 -0.1)">
       <defs>
        <path id="DejaVuSans-2212" d="M 678 2272 
L 4684 2272 
L 4684 1741 
L 678 1741 
L 678 2272 
z
" transform="scale(0.015625)"/>
       </defs>
       <use xlink:href="#DejaVuSans-2212"/>
       <use xlink:href="#DejaVuSans-32" x="83.789062"/>
       <use xlink:href="#DejaVuSans-30" x="147.412109"/>
       <use xlink:href="#DejaVuSans-30" x="211.035156"/>
       <use xlink:href="#DejaVuSans-30" x="274.658203"/>
       <use xlink:href="#DejaVuSans-30" x="338.28125"/>
      </g>
     </g>
    </g>
    <g id="ytick_2">
     <g id="line2d_11">
      <g>
       <use xlink:href="#mf73a10bbfd" x="47.192188" y="186.633406" style="stroke: #000000; stroke-width: 0.8"/>
      </g>
     </g>
     <g id="text_11">
      <!-- −10000 -->
      <g transform="translate(0 190.432625) scale(0.1 -0.1)">
       <use xlink:href="#DejaVuSans-2212"/>
       <use xlink:href="#DejaVuSans-31" x="83.789062"/>
       <use xlink:href="#DejaVuSans-30" x="147.412109"/>
       <use xlink:href="#DejaVuSans-30" x="211.035156"/>
       <use xlink:href="#DejaVuSans-30" x="274.658203"/>
       <use xlink:href="#DejaVuSans-30" x="338.28125"/>
      </g>
     </g>
    </g>
    <g id="ytick_3">
     <g id="line2d_12">
      <g>
       <use xlink:href="#mf73a10bbfd" x="47.192188" y="139.560751" style="stroke: #000000; stroke-width: 0.8"/>
      </g>
     </g>
     <g id="text_12">
      <!-- 0 -->
      <g transform="translate(33.829688 143.359969) scale(0.1 -0.1)">
       <use xlink:href="#DejaVuSans-30"/>
      </g>
     </g>
    </g>
    <g id="ytick_4">
     <g id="line2d_13">
      <g>
       <use xlink:href="#mf73a10bbfd" x="47.192188" y="92.488095" style="stroke: #000000; stroke-width: 0.8"/>
      </g>
     </g>
     <g id="text_13">
      <!-- 10000 -->
      <g transform="translate(8.379688 96.287314) scale(0.1 -0.1)">
       <use xlink:href="#DejaVuSans-31"/>
       <use xlink:href="#DejaVuSans-30" x="63.623047"/>
       <use xlink:href="#DejaVuSans-30" x="127.246094"/>
       <use xlink:href="#DejaVuSans-30" x="190.869141"/>
       <use xlink:href="#DejaVuSans-30" x="254.492188"/>
      </g>
     </g>
    </g>
    <g id="ytick_5">
     <g id="line2d_14">
      <g>
       <use xlink:href="#mf73a10bbfd" x="47.192188" y="45.41544" style="stroke: #000000; stroke-width: 0.8"/>
      </g>
     </g>
     <g id="text_14">
      <!-- 20000 -->
      <g transform="translate(8.379688 49.214659) scale(0.1 -0.1)">
       <use xlink:href="#DejaVuSans-32"/>
       <use xlink:href="#DejaVuSans-30" x="63.623047"/>
       <use xlink:href="#DejaVuSans-30" x="127.246094"/>
       <use xlink:href="#DejaVuSans-30" x="190.869141"/>
       <use xlink:href="#DejaVuSans-30" x="254.492188"/>
      </g>
     </g>
    </g>
   </g>
   <g id="line2d_15">
    <path d="M 75.092188 139.530256 
L 75.374148 139.590033 
L 75.938069 139.587956 
L 76.783951 139.535975 
L 77.629833 139.583715 
L 78.475715 139.539125 
L 79.321596 139.581426 
L 80.167478 139.540682 
L 81.01336 139.580543 
L 81.859242 139.540881 
L 82.705123 139.581121 
L 83.551005 139.539313 
L 84.396887 139.584118 
L 85.242769 139.533949 
L 85.524729 139.58926 
L 85.80669 139.530097 
L 86.08865 139.594152 
L 86.370611 139.523739 
L 86.652572 139.602673 
L 86.934532 139.51183 
L 87.216493 139.620325 
L 87.498453 139.48329 
L 87.780414 139.673417 
L 88.062374 139.354767 
L 88.344335 140.310118 
L 88.626296 145.176464 
L 88.908256 144.676919 
L 89.190217 145.532191 
L 89.754138 149.332947 
L 90.036099 148.610086 
L 90.318059 146.987845 
L 90.60002 146.322526 
L 90.88198 146.871622 
L 91.163941 146.708879 
L 91.445901 145.450306 
L 91.727862 145.403689 
L 92.573744 153.908425 
L 92.855704 154.582203 
L 93.137665 154.391626 
L 93.419626 153.598698 
L 93.701586 153.324122 
L 94.265507 154.431994 
L 94.547468 154.646794 
L 94.829429 155.048367 
L 95.111389 154.930004 
L 95.39335 153.744899 
L 95.67531 151.169407 
L 95.957271 144.673554 
L 96.521192 120.233805 
L 96.803153 114.792463 
L 97.085113 116.05503 
L 97.649034 121.044654 
L 97.930995 122.869665 
L 98.212956 122.43594 
L 98.776877 117.327251 
L 99.058837 117.728296 
L 99.622758 122.470911 
L 100.46864 129.994746 
L 101.314522 151.182414 
L 102.160404 142.595966 
L 102.442364 141.362016 
L 102.724325 140.723617 
L 103.006286 141.363656 
L 103.570207 144.188224 
L 103.852167 144.878199 
L 104.134128 145.155363 
L 104.416088 146.372334 
L 104.698049 148.747471 
L 104.98001 150.117966 
L 105.26197 149.389689 
L 105.543931 148.34326 
L 105.825891 148.361372 
L 106.107852 149.179241 
L 106.671773 151.970612 
L 106.953734 151.920135 
L 107.235694 151.51314 
L 107.517655 152.949218 
L 107.799615 155.065624 
L 108.081576 155.123572 
L 108.363537 153.80719 
L 108.645497 153.778333 
L 109.209418 158.473167 
L 109.491379 157.734197 
L 109.77334 148.434489 
L 110.337261 118.228858 
L 110.619221 113.628596 
L 110.901182 114.153618 
L 111.183143 114.931861 
L 111.465103 116.919381 
L 111.747064 119.851256 
L 112.029024 119.913421 
L 112.310985 117.475793 
L 112.592945 116.937105 
L 113.438827 122.733195 
L 114.284709 134.727022 
L 115.130591 151.877783 
L 115.412551 150.317561 
L 115.976472 145.199611 
L 116.540394 142.286805 
L 116.822354 142.240275 
L 117.668236 143.955306 
L 117.950197 144.74985 
L 118.232157 145.057438 
L 118.514118 144.980725 
L 118.796078 145.492505 
L 120.205881 152.101934 
L 120.769802 150.184871 
L 121.333724 150.9186 
L 121.897645 149.450245 
L 122.461566 148.499826 
L 122.743527 148.885897 
L 123.025487 150.420068 
L 123.307448 150.180684 
L 123.589408 145.154752 
L 124.717251 106.718495 
L 125.281172 111.776901 
L 125.563132 112.507284 
L 125.845093 113.844548 
L 126.127054 115.938019 
L 126.409014 116.16822 
L 127.254896 111.351428 
L 127.536857 111.754902 
L 127.818817 115.883782 
L 128.664699 137.653175 
L 128.946659 137.030105 
L 129.510581 130.900475 
L 129.792541 130.198985 
L 130.356462 132.552595 
L 130.638423 132.502733 
L 130.920384 130.953678 
L 131.202344 130.437224 
L 131.484305 133.249634 
L 132.048226 140.989967 
L 132.330186 141.177866 
L 132.612147 140.725118 
L 132.894108 141.347595 
L 133.458029 143.769389 
L 134.02195 147.035949 
L 134.303911 147.755269 
L 134.585871 149.298377 
L 135.149792 154.422364 
L 135.713714 152.62776 
L 135.995674 152.970925 
L 136.277635 152.816443 
L 136.559595 150.200062 
L 136.841556 144.54892 
L 137.405477 122.635864 
L 137.687438 111.428886 
L 137.969398 105.851462 
L 138.251359 107.041708 
L 138.81528 118.708229 
L 139.097241 120.105315 
L 139.379201 117.914844 
L 139.661162 117.022202 
L 139.943122 118.707473 
L 140.225083 119.552925 
L 140.507043 118.669469 
L 140.789004 119.427593 
L 141.070965 123.425931 
L 141.634886 136.355009 
L 142.198807 152.725779 
L 142.480768 154.665739 
L 143.044689 150.147192 
L 143.326649 149.921254 
L 143.60861 149.957773 
L 144.454492 148.060264 
L 144.736452 148.709217 
L 145.018413 150.492256 
L 145.300373 151.071169 
L 145.582334 148.133539 
L 145.864295 143.864496 
L 146.146255 142.380505 
L 146.710176 144.085412 
L 146.992137 144.710973 
L 147.838019 150.515581 
L 148.40194 154.650984 
L 148.965861 155.081005 
L 149.811743 165.122602 
L 150.093703 163.509892 
L 150.375664 160.276752 
L 150.657625 152.72263 
L 151.221546 127.343742 
L 151.503506 120.812724 
L 151.785467 120.34023 
L 152.349388 125.09672 
L 152.631349 124.563056 
L 153.19527 116.119538 
L 153.47723 114.35147 
L 153.759191 115.554697 
L 154.041152 117.360814 
L 154.323112 117.966 
L 154.605073 117.893846 
L 154.887033 119.296071 
L 155.168994 124.032624 
L 155.732915 139.339064 
L 156.014876 143.52751 
L 156.296836 143.918426 
L 156.578797 142.946547 
L 156.860757 142.760922 
L 157.142718 143.843655 
L 157.706639 148.045483 
L 157.9886 148.283174 
L 158.552521 143.232024 
L 158.834482 142.909085 
L 159.962324 149.826404 
L 160.244285 152.32656 
L 160.526245 153.097458 
L 160.808206 153.282534 
L 161.372127 155.852346 
L 161.936048 153.725056 
L 162.218009 154.908185 
L 162.499969 157.184121 
L 162.78193 158.309073 
L 163.06389 158.505236 
L 163.345851 158.094472 
L 163.627812 156.163389 
L 164.191733 149.817846 
L 164.473693 144.040288 
L 165.319575 114.203806 
L 165.601536 115.170689 
L 165.883496 118.576912 
L 166.165457 120.000099 
L 166.729378 119.873871 
L 167.011339 119.23506 
L 167.57526 115.039353 
L 167.85722 114.539991 
L 168.139181 116.115546 
L 168.703102 120.577569 
L 168.985063 124.073596 
L 169.830944 145.3154 
L 170.112905 146.727709 
L 170.394866 144.432997 
L 170.958787 138.132785 
L 171.240747 137.652072 
L 171.804669 140.81343 
L 172.086629 142.461755 
L 172.36859 143.382772 
L 172.65055 143.021034 
L 172.932511 142.233809 
L 173.214471 142.832792 
L 173.778393 146.158929 
L 174.060353 146.465944 
L 174.342314 147.208147 
L 175.470156 155.264103 
L 176.034077 157.581809 
L 176.597999 160.361454 
L 176.879959 161.096964 
L 177.16192 161.132303 
L 177.44388 160.819113 
L 178.007801 161.46273 
L 178.289762 158.337385 
L 178.571723 148.346254 
L 179.135644 120.491222 
L 179.417604 113.168848 
L 179.699565 111.226343 
L 179.981526 112.823286 
L 180.263486 115.828275 
L 180.545447 117.304393 
L 181.109368 115.072357 
L 181.95525 116.453061 
L 182.23721 117.870759 
L 182.801131 122.896619 
L 183.083092 127.403783 
L 183.928974 151.344855 
L 184.210934 151.450033 
L 185.620737 141.745653 
L 185.902698 143.197545 
L 187.03054 153.987091 
L 187.312501 154.552978 
L 187.594461 153.401681 
L 187.876422 152.839422 
L 188.158383 152.822103 
L 188.440343 150.87557 
L 188.722304 147.876248 
L 189.004264 147.287479 
L 189.286225 148.358619 
L 189.568185 147.719664 
L 189.850146 146.293616 
L 190.132107 146.745101 
L 190.414067 147.879694 
L 190.696028 148.55062 
L 190.977988 151.029064 
L 191.54191 158.700251 
L 191.82387 159.343579 
L 192.105831 157.870261 
L 192.387791 151.566095 
L 193.233673 112.18432 
L 193.515634 108.975064 
L 193.797594 112.794688 
L 194.079555 119.273785 
L 194.361515 122.392289 
L 195.207397 118.018527 
L 195.489358 117.552194 
L 195.771318 116.579872 
L 196.053279 116.994943 
L 196.6172 121.109898 
L 196.899161 125.521371 
L 197.463082 141.270281 
L 197.745042 144.090772 
L 198.308964 141.907297 
L 198.590924 140.384317 
L 198.872885 137.605914 
L 199.154845 136.64271 
L 199.718767 141.340607 
L 200.000727 141.112335 
L 200.282688 142.386381 
L 200.846609 151.308799 
L 201.12857 152.236032 
L 201.41053 152.386439 
L 201.974451 154.983187 
L 202.256412 155.020989 
L 202.538372 155.206916 
L 203.666215 160.017852 
L 203.948175 160.759012 
L 204.230136 160.406187 
L 204.512097 161.421094 
L 205.076018 169.462491 
L 205.357978 169.130777 
L 205.921899 167.546961 
L 206.20386 159.054268 
L 206.767781 118.295322 
L 207.049742 108.570666 
L 207.331702 108.090832 
L 207.895624 113.638972 
L 208.177584 116.687924 
L 208.459545 117.417048 
L 209.023466 114.258092 
L 209.305427 112.302159 
L 209.587387 111.650909 
L 209.869348 114.22645 
L 210.715229 129.440754 
L 211.279151 146.629221 
L 211.561111 150.57387 
L 211.843072 149.818501 
L 212.970914 138.201239 
L 213.252875 137.667137 
L 213.816796 141.089104 
L 214.098756 142.936944 
L 214.380717 145.836327 
L 214.944638 154.190285 
L 215.226599 156.009933 
L 215.508559 155.81466 
L 216.636402 151.957579 
L 216.918362 152.449927 
L 217.482284 155.561532 
L 217.764244 154.824677 
L 218.046205 153.683048 
L 218.328165 154.010002 
L 218.892086 155.710909 
L 219.174047 158.395503 
L 219.456008 159.549686 
L 219.737968 150.827253 
L 220.301889 114.125115 
L 220.58385 105.37131 
L 220.865811 102.710001 
L 221.147771 102.59708 
L 221.429732 106.535527 
L 221.993653 119.826816 
L 222.275613 121.222278 
L 223.121495 115.869242 
L 223.685416 119.002907 
L 223.967377 121.9503 
L 224.249338 130.172733 
L 224.813259 149.344141 
L 225.095219 150.879682 
L 225.659141 149.93059 
L 225.941101 147.353585 
L 226.505022 139.586412 
L 226.786983 139.41071 
L 227.068943 141.071123 
L 227.350904 141.99908 
L 227.914825 140.769002 
L 228.196786 142.693258 
L 228.760707 148.070472 
L 229.042668 148.310406 
L 229.324628 148.365477 
L 229.888549 149.683621 
L 230.45247 151.830033 
L 230.734431 151.577603 
L 231.016392 150.924076 
L 231.298352 153.813694 
L 231.862273 165.687198 
L 232.144234 166.814829 
L 232.426195 166.638837 
L 232.708155 164.130773 
L 232.990116 152.923983 
L 233.835998 99.207486 
L 234.117958 94.561043 
L 234.399919 94.617709 
L 234.681879 97.431885 
L 235.527761 113.961664 
L 235.809722 114.812803 
L 236.373643 111.993669 
L 236.655603 111.997201 
L 236.937564 114.03413 
L 237.219525 120.570766 
L 238.065406 150.984577 
L 238.347367 155.305066 
L 238.629327 154.999839 
L 239.193249 148.104343 
L 239.475209 147.592032 
L 239.75717 148.302652 
L 240.03913 149.547239 
L 240.603052 153.746888 
L 240.885012 154.672788 
L 241.448933 158.072488 
L 241.730894 158.172315 
L 242.012855 157.849567 
L 242.294815 160.341532 
L 242.576776 163.848519 
L 242.858736 164.545474 
L 243.140697 164.268417 
L 243.422657 166.955588 
L 243.704618 171.164608 
L 243.986579 173.033309 
L 244.268539 172.442288 
L 244.83246 170.258755 
L 245.114421 171.028424 
L 245.396382 174.381329 
L 245.678342 176.204027 
L 245.960303 170.101816 
L 247.088145 109.77735 
L 247.370106 104.472609 
L 247.652066 103.628045 
L 248.215987 104.578877 
L 248.497948 104.984622 
L 248.779909 104.328829 
L 249.34383 98.547485 
L 249.62579 98.196201 
L 249.907751 100.258015 
L 250.189712 103.650718 
L 250.471672 109.507652 
L 251.035593 131.593978 
L 251.317554 143.06076 
L 251.599514 149.698421 
L 251.881475 149.905842 
L 252.445396 144.133803 
L 252.727357 142.932867 
L 253.291278 138.840982 
L 253.573239 140.106013 
L 254.983041 159.220865 
L 255.265002 161.113018 
L 255.828923 160.398712 
L 256.110884 161.129095 
L 256.956766 165.746607 
L 257.238726 166.750714 
L 258.084608 175.256962 
L 258.366569 176.278176 
L 258.93049 180.850349 
L 259.21245 180.964789 
L 259.494411 175.966261 
L 259.776371 162.583982 
L 260.340293 121.152413 
L 260.622253 110.67354 
L 261.186174 104.353153 
L 261.750096 96.598813 
L 262.595977 91.438433 
L 262.877938 91.047576 
L 263.159898 91.692202 
L 263.441859 93.707072 
L 263.72382 97.487763 
L 264.00578 104.409203 
L 264.287741 117.37109 
L 264.851662 152.3383 
L 265.133623 159.803523 
L 265.415583 159.2433 
L 265.979504 154.857754 
L 266.825386 149.261071 
L 267.107347 148.857169 
L 267.671268 146.626308 
L 267.953228 148.442095 
L 268.235189 151.509829 
L 268.79911 154.444261 
L 269.363031 161.046057 
L 269.644992 162.384555 
L 269.926953 164.718614 
L 270.490874 172.005956 
L 270.772834 172.269063 
L 271.054795 173.273745 
L 272.182637 185.381537 
L 272.464598 185.015641 
L 272.746558 175.18514 
L 273.874401 109.173766 
L 274.156361 99.472901 
L 274.438322 94.829578 
L 275.002243 88.940121 
L 275.566164 83.029757 
L 276.130085 77.488759 
L 276.412046 76.38697 
L 276.694007 77.845858 
L 276.975967 81.651796 
L 277.257928 89.661918 
L 277.821849 124.321072 
L 278.10381 142.486064 
L 278.38577 153.268185 
L 278.667731 156.461923 
L 278.949691 155.340343 
L 279.231652 153.123664 
L 279.513612 152.218483 
L 279.795573 153.510647 
L 280.077534 155.34465 
L 280.641455 157.194649 
L 281.205376 161.688797 
L 281.769297 164.398579 
L 282.333218 168.183121 
L 282.615179 168.494616 
L 283.1791 169.771565 
L 283.461061 169.60405 
L 283.743021 169.907441 
L 284.024982 172.756327 
L 284.588903 179.871274 
L 284.870864 181.476586 
L 285.434785 188.689127 
L 285.716745 187.078232 
L 285.998706 176.644241 
L 287.408509 99.07601 
L 287.690469 92.045097 
L 288.818312 73.886341 
L 289.382233 64.720615 
L 289.664194 62.421038 
L 289.946154 64.876703 
L 290.228115 72.482265 
L 290.510075 85.288781 
L 291.637918 158.101599 
L 291.919878 160.979141 
L 292.201839 160.122663 
L 292.76576 156.960101 
L 293.047721 156.591259 
L 293.893602 159.823801 
L 294.175563 160.55243 
L 294.457524 162.493125 
L 295.303405 170.123059 
L 295.867326 173.417343 
L 296.149287 173.918873 
L 296.431248 175.398243 
L 296.995169 181.970465 
L 297.55909 184.819765 
L 297.841051 185.563569 
L 298.123011 185.390726 
L 298.404972 185.988466 
L 298.686932 188.189169 
L 298.968893 187.340483 
L 299.250853 178.094639 
L 300.660656 97.686848 
L 301.506538 78.509465 
L 302.35242 63.453929 
L 302.634381 61.845879 
L 302.916341 62.998976 
L 303.198302 65.438015 
L 303.480262 71.075866 
L 303.762223 82.224896 
L 304.326144 118.131923 
L 304.890065 152.015773 
L 305.172026 156.637504 
L 305.453986 157.141522 
L 306.017908 159.725259 
L 306.863789 155.125266 
L 307.14575 156.098104 
L 307.42771 158.828936 
L 307.991632 166.677545 
L 308.555553 170.349641 
L 309.119474 176.292308 
L 309.401435 178.489383 
L 309.965356 185.315055 
L 310.247316 185.784163 
L 310.529277 184.528035 
L 310.811238 185.69354 
L 311.375159 193.248248 
L 311.657119 193.779521 
L 311.93908 188.529029 
L 312.22104 174.909001 
L 313.066922 119.459708 
L 313.630843 92.014354 
L 314.476725 64.666114 
L 314.758686 58.6977 
L 315.322607 52.571064 
L 315.604567 47.951005 
L 315.886528 45.544094 
L 316.168489 48.370411 
L 316.450449 56.146 
L 317.01437 85.073033 
L 317.860252 145.581512 
L 318.142213 156.984701 
L 318.424173 162.078557 
L 319.270055 167.624439 
L 319.552016 168.345421 
L 319.833976 168.111157 
L 320.115937 168.188512 
L 320.397897 169.247084 
L 320.961819 172.742517 
L 321.52574 177.833184 
L 322.089661 185.420823 
L 324.345346 223.266194 
L 324.627306 221.972233 
L 324.909267 209.450505 
L 326.31907 112.822832 
L 326.882991 82.691391 
L 327.728873 58.517808 
L 328.856715 32.758473 
L 329.138676 29.452915 
L 329.420636 31.333651 
L 329.702597 41.196114 
L 331.676321 150.438304 
L 332.240242 163.436662 
L 332.522203 166.881697 
L 332.804163 168.78008 
L 333.086124 172.489347 
L 333.650045 182.01534 
L 334.213966 185.543799 
L 334.777887 188.019857 
L 335.059848 192.187622 
L 335.623769 206.563438 
L 336.18769 215.875269 
L 336.751611 227.53652 
L 337.315533 234.213018 
L 337.597493 231.265701 
L 337.879454 217.878963 
L 338.725336 150.623454 
L 339.289257 106.301768 
L 340.98102 30.285989 
L 341.262981 20.39383 
L 341.544941 14.521742 
L 341.826902 12.096 
L 342.108863 14.62197 
L 342.390823 24.680753 
L 344.646508 152.928256 
L 345.210429 170.250288 
L 345.77435 178.85851 
L 346.056311 179.52329 
L 346.338271 178.994843 
L 346.620232 181.490978 
L 346.902193 186.314114 
L 347.466114 190.986075 
L 347.748074 196.51904 
L 348.311995 210.548551 
L 348.875917 220.282227 
L 349.439838 229.03848 
L 350.28572 236.786928 
L 350.56768 232.665869 
L 350.849641 218.728444 
L 351.695523 148.842535 
L 352.259444 99.654285 
L 353.669247 22.038165 
L 353.951207 17.311842 
L 354.233168 14.715064 
L 354.515128 13.421648 
L 354.797089 16.66979 
L 355.36101 33.609796 
L 355.924931 65.128173 
L 356.770813 108.363642 
L 357.616695 145.128259 
L 358.462577 173.760728 
L 358.744537 175.36665 
L 359.026498 175.632609 
L 359.87238 184.344409 
L 360.15434 188.305459 
L 360.718261 200.880148 
L 361.282182 208.916711 
L 362.128064 226.299416 
L 362.691985 237.815608 
L 362.973946 244.326735 
L 363.255907 247.487838 
L 363.537867 241.793982 
L 363.819828 225.805892 
L 364.383749 176.096147 
L 364.94767 121.212859 
L 366.075512 43.123736 
L 366.357473 32.720801 
L 366.921394 23.791207 
L 367.485315 18.278611 
L 367.767276 18.603789 
L 368.049237 25.405459 
L 368.613158 53.539393 
L 369.741 117.898708 
L 370.022961 125.911089 
L 370.868842 159.244989 
L 371.432764 170.601969 
L 371.996685 182.836017 
L 372.560606 187.580876 
L 373.124527 190.116118 
L 373.970409 198.423992 
L 374.252369 200.872902 
L 375.098251 214.14991 
L 375.944133 229.782643 
L 376.226094 232.816409 
L 376.508054 230.237555 
L 376.790015 218.183981 
L 377.353936 169.751184 
L 377.917857 121.80371 
L 379.045699 55.787869 
L 380.173542 29.729437 
L 380.455502 29.029611 
L 380.737463 31.617179 
L 381.019423 36.701964 
L 381.301384 46.171912 
L 382.147266 86.788674 
L 382.711187 106.947344 
L 383.557069 142.110283 
L 384.402951 166.861215 
L 385.248832 189.784841 
L 386.094714 201.962691 
L 386.940596 209.315154 
L 387.504517 209.918632 
L 388.350399 219.060422 
L 388.632359 224.462308 
L 388.91432 233.297293 
L 389.19628 237.322032 
L 389.478241 228.475476 
L 390.042162 178.218831 
L 390.888044 92.687723 
L 391.451965 59.085257 
L 392.015886 43.92688 
L 392.297847 40.002817 
L 392.579808 39.122428 
L 392.861768 40.475239 
L 393.425689 41.602996 
L 393.70765 46.020951 
L 394.553532 73.409959 
L 395.399413 105.423209 
L 395.963335 119.067034 
L 396.245295 127.079763 
L 397.091177 142.073328 
L 397.655098 157.079318 
L 397.937059 160.722439 
L 398.219019 167.178469 
L 398.78294 188.422078 
L 399.628822 210.056337 
L 399.910783 219.316177 
L 400.192743 224.60303 
L 400.756665 231.926174 
L 401.038625 235.697553 
L 401.320586 236.45023 
L 401.602546 236.047487 
L 401.884507 236.957447 
L 402.166467 236.335498 
L 402.448428 227.92313 
L 402.730389 208.706348 
L 404.140192 74.274865 
L 404.704113 55.480841 
L 404.986073 51.424922 
L 405.831955 46.017986 
L 406.113916 45.504394 
L 406.395876 46.553498 
L 406.677837 49.176721 
L 406.959797 56.08131 
L 408.3696 114.341016 
L 409.779403 132.917362 
L 410.061364 134.681759 
L 410.343324 139.245305 
L 411.189206 160.649581 
L 411.753127 173.629299 
L 413.16293 213.213344 
L 413.726851 228.612615 
L 414.290773 234.419186 
L 414.854694 248.576943 
L 415.136654 250.431816 
L 415.418615 241.594165 
L 415.700576 220.32923 
L 416.828418 98.337049 
L 417.392339 71.270349 
L 418.238221 51.35497 
L 418.520181 47.554812 
L 418.802142 47.027141 
L 419.366063 48.94512 
L 419.648024 51.758105 
L 419.929984 59.227961 
L 420.775866 95.247212 
L 421.339787 120.488938 
L 421.621748 126.131272 
L 421.903708 128.988793 
L 422.74959 141.756818 
L 423.031551 142.989539 
L 423.313511 144.976165 
L 423.877433 151.284202 
L 425.569196 177.582656 
L 426.133117 192.648495 
L 427.824881 251.083302 
L 428.106841 254.016 
L 428.388802 245.782762 
L 428.670763 225.712391 
L 429.798605 106.494307 
L 430.362526 81.077258 
L 430.926447 62.094815 
L 431.208408 56.426682 
L 431.490368 53.146128 
L 431.772329 52.315661 
L 432.05429 53.572828 
L 432.618211 59.345569 
L 432.900171 64.695088 
L 433.464093 85.623015 
L 434.028014 104.867559 
L 434.591935 115.468001 
L 435.155856 123.234834 
L 435.719777 138.196927 
L 436.283698 144.263375 
L 437.411541 158.462736 
L 437.975462 167.804635 
L 439.103304 183.520725 
L 439.385265 190.45186 
L 439.949186 210.296056 
L 440.795068 233.04725 
L 441.077028 241.507289 
L 441.358989 245.675009 
L 441.64095 240.066151 
L 441.92291 219.938991 
L 442.768792 123.520195 
L 443.332713 95.498524 
L 443.896634 76.298425 
L 444.460555 63.672012 
L 444.742516 59.806855 
L 445.024477 59.584463 
L 445.306437 61.523203 
L 445.588398 62.559534 
L 445.870358 64.230196 
L 446.152319 70.759251 
L 447.280161 113.183082 
L 447.844082 125.22528 
L 448.408004 134.018103 
L 448.971925 138.787193 
L 449.535846 147.699601 
L 449.817806 148.471979 
L 450.099767 150.105871 
L 450.663688 159.589485 
L 450.945649 159.764841 
L 451.227609 162.427844 
L 451.791531 177.586427 
L 452.355452 189.136334 
L 452.919373 204.234152 
L 453.483294 217.526972 
L 454.047215 232.277013 
L 454.329176 231.799062 
L 454.611136 218.336293 
L 455.738979 116.953974 
L 456.3029 95.27934 
L 456.866821 79.081454 
L 457.148782 75.157013 
L 457.430742 73.680025 
L 457.712703 72.873324 
L 457.994663 73.884505 
L 458.276624 76.039781 
L 458.840545 75.921827 
L 459.122506 82.385043 
L 459.686427 101.324663 
L 459.968388 105.888696 
L 460.814269 128.5809 
L 461.378191 132.808714 
L 462.224072 137.492996 
L 462.787993 143.399396 
L 463.069954 145.29236 
L 464.197796 158.55233 
L 465.043678 174.650286 
L 466.17152 205.120422 
L 466.735442 219.217756 
L 467.017402 219.922504 
L 467.299363 212.162424 
L 467.863284 173.09868 
L 468.427205 132.051649 
L 469.555048 87.266437 
L 469.837008 80.078976 
L 470.400929 74.833737 
L 470.68289 73.963403 
L 470.96485 76.728296 
L 471.810732 91.651624 
L 472.656614 124.920208 
L 472.938575 127.995695 
L 473.220535 128.224443 
L 473.502496 129.475875 
L 473.784456 132.120598 
L 474.066417 133.581742 
L 474.348377 133.776965 
L 474.630338 136.043136 
L 475.194259 145.874638 
L 475.75818 150.325753 
L 476.322102 154.622369 
L 477.167983 164.347776 
L 477.449944 168.188964 
L 479.423668 211.899704 
L 479.705629 212.729709 
L 479.987589 203.534748 
L 481.115432 128.893875 
L 481.961313 101.243996 
L 482.525234 89.427191 
L 482.807195 86.02657 
L 483.089156 84.902243 
L 483.371116 85.338045 
L 483.935037 85.413726 
L 484.216998 88.220978 
L 484.780919 103.434475 
L 485.34484 120.206851 
L 485.626801 126.13663 
L 485.908762 129.460349 
L 486.190722 130.55447 
L 486.754643 129.86037 
L 487.036604 130.94041 
L 487.600525 135.765445 
L 488.164446 145.616169 
L 488.728367 154.250359 
L 489.85621 165.047643 
L 490.420131 176.085772 
L 490.702091 178.365934 
L 490.984052 178.93585 
L 491.266013 181.592036 
L 492.111894 196.674555 
L 492.393855 198.348884 
L 492.675816 191.204027 
L 493.803658 129.765424 
L 494.64954 105.343651 
L 495.213461 94.706776 
L 495.495421 93.046373 
L 495.777382 94.135874 
L 496.059343 96.063988 
L 496.341303 97.166939 
L 496.623264 97.169093 
L 496.905224 98.211521 
L 497.187185 103.254026 
L 498.033067 126.889859 
L 498.596988 134.583223 
L 498.878948 135.27202 
L 499.160909 135.229541 
L 499.44287 136.513428 
L 499.72483 138.38418 
L 500.006791 139.175126 
L 500.288751 139.338411 
L 500.570712 139.819077 
L 500.852673 140.582718 
L 501.134633 142.026153 
L 501.980515 149.914607 
L 502.262476 151.964579 
L 502.544436 157.097747 
L 503.108357 169.063603 
L 503.390318 169.740158 
L 503.672278 171.343677 
L 504.2362 181.464214 
L 504.51816 183.30243 
L 504.800121 187.525001 
L 505.082081 194.831319 
L 505.364042 195.156683 
L 505.646003 182.739779 
L 506.491884 136.776855 
L 507.055805 115.965462 
L 507.901687 101.026545 
L 508.183648 97.582473 
L 508.465608 95.831986 
L 508.747569 95.191853 
L 509.31149 94.936797 
L 509.593451 96.129899 
L 509.875411 99.972967 
L 511.285214 129.594433 
L 512.131096 135.655116 
L 512.413057 135.883158 
L 512.695017 135.776343 
L 512.976978 136.378087 
L 513.540899 140.01652 
L 513.82286 142.847978 
L 514.950702 160.465564 
L 515.514623 166.896509 
L 515.796584 168.25956 
L 516.078544 168.134547 
L 516.360505 169.545551 
L 517.206387 181.759892 
L 517.770308 189.4956 
L 518.052268 187.969958 
L 518.334229 180.207377 
L 519.462071 132.393392 
L 520.589914 106.867654 
L 520.871874 104.30234 
L 521.435795 96.407611 
L 521.717756 95.64069 
L 522.281677 98.864038 
L 522.563638 100.528592 
L 522.845598 106.389716 
L 523.409519 124.019093 
L 523.69148 127.953484 
L 524.255401 132.203202 
L 524.537362 133.032812 
L 525.101283 130.448099 
L 525.383244 132.397778 
L 525.665204 135.357323 
L 526.229125 139.259588 
L 526.793047 148.722654 
L 527.920889 158.756253 
L 528.48481 159.729144 
L 528.766771 161.574832 
L 529.894613 172.726966 
L 530.176574 172.66875 
L 530.458534 173.244155 
L 530.740495 175.381831 
L 531.022455 173.694253 
L 531.304416 164.018986 
L 531.868337 138.669051 
L 532.714219 115.683594 
L 533.27814 104.445688 
L 533.560101 103.237839 
L 534.124022 105.72056 
L 534.405982 105.553261 
L 534.687943 106.626371 
L 534.969904 108.931441 
L 535.251864 109.52077 
L 535.533825 108.128827 
L 535.815785 108.755419 
L 536.379706 120.972438 
L 536.943628 129.630099 
L 537.507549 135.332056 
L 537.789509 136.122062 
L 538.07147 135.792285 
L 538.353431 136.439641 
L 538.635391 137.912056 
L 539.199312 139.550253 
L 540.045194 148.828199 
L 540.327155 149.783377 
L 540.609115 152.446044 
L 541.173036 158.698243 
L 541.454997 160.468934 
L 542.300879 168.700709 
L 542.8648 180.956172 
L 543.146761 186.47087 
L 543.428721 187.270985 
L 543.710682 182.333948 
L 544.274603 158.558143 
L 544.838524 136.396193 
L 545.402445 125.549653 
L 545.966366 117.936931 
L 546.530288 107.412275 
L 546.812248 106.527611 
L 547.376169 109.467048 
L 547.65813 110.750572 
L 547.94009 115.403796 
L 548.504012 128.242854 
L 549.067933 133.489007 
L 549.349893 137.232665 
L 549.631854 137.616033 
L 549.913815 135.207148 
L 550.195775 134.882845 
L 550.477736 136.59942 
L 550.759696 136.503057 
L 551.041657 135.469419 
L 551.323618 136.737987 
L 551.605578 139.159287 
L 551.887539 140.228883 
L 552.169499 140.830829 
L 553.015381 144.018843 
L 553.297342 148.465469 
L 553.861263 160.039619 
L 554.143223 163.335669 
L 554.989105 169.478524 
L 555.834987 180.462698 
L 556.116947 180.318866 
L 556.398908 175.486325 
L 556.962829 153.514469 
L 557.52675 133.973079 
L 558.654593 113.65463 
L 558.936553 114.797023 
L 559.218514 115.34736 
L 559.500475 113.057729 
L 559.782435 111.698 
L 560.064396 113.271351 
L 560.346356 113.581473 
L 560.628317 110.653529 
L 560.910277 110.173021 
L 561.756159 128.11934 
L 562.03812 128.677618 
L 562.32008 132.234714 
L 562.602041 137.403898 
L 562.884002 139.435522 
L 563.165962 139.151481 
L 563.447923 139.962601 
L 563.729883 141.117449 
L 564.011844 141.201615 
L 564.293804 142.271519 
L 564.857726 147.462665 
L 565.139686 148.240074 
L 565.703607 152.013144 
L 565.985568 151.873679 
L 566.267529 150.953082 
L 566.549489 152.39404 
L 566.83145 155.077992 
L 567.11341 156.687438 
L 567.395371 158.948342 
L 567.959292 168.085535 
L 568.241253 170.278522 
L 568.805174 172.721992 
L 569.087134 171.897723 
L 569.369095 167.78853 
L 571.060859 128.141014 
L 571.62478 120.845103 
L 572.188701 115.001702 
L 572.752622 114.064585 
L 573.316543 107.058195 
L 573.598504 107.13138 
L 573.880464 111.016317 
L 574.726346 128.133606 
L 575.008307 130.195787 
L 575.572228 131.166285 
L 576.136149 130.672605 
L 576.41811 133.897379 
L 576.982031 144.905182 
L 577.545952 146.689369 
L 578.109873 152.299752 
L 578.391834 151.007587 
L 578.673794 148.37761 
L 578.955755 148.410795 
L 579.519676 153.503453 
L 579.801637 155.386181 
L 580.647518 166.454901 
L 580.929479 167.650342 
L 581.21144 170.634444 
L 581.4934 174.874965 
L 581.775361 176.422447 
L 582.057321 172.314127 
L 583.185164 135.678127 
L 584.313006 113.117019 
L 584.876927 109.789679 
L 585.158888 109.170571 
L 585.440848 110.648055 
L 586.00477 118.194636 
L 586.28673 119.053867 
L 586.568691 120.328672 
L 587.414573 134.018232 
L 587.696533 136.724042 
L 587.978494 138.225372 
L 588.542415 136.856352 
L 589.388297 143.645895 
L 589.670257 144.817403 
L 589.952218 147.122908 
L 590.234178 148.49965 
L 590.516139 148.339608 
L 590.7981 147.676247 
L 591.362021 145.350257 
L 591.643981 145.804587 
L 592.489863 152.287201 
L 593.053784 157.495365 
L 593.899666 162.099266 
L 594.181627 166.136778 
L 594.463587 171.935156 
L 594.745548 174.490426 
L 595.027508 170.165983 
L 595.59143 154.751759 
L 596.437311 139.644841 
L 598.129075 115.227062 
L 598.411035 114.229636 
L 598.692996 114.328122 
L 598.974957 115.213114 
L 599.820838 122.855233 
L 600.102799 121.849286 
L 600.38476 122.120616 
L 600.66672 123.927884 
L 600.948681 124.666574 
L 601.230641 124.638304 
L 601.512602 126.114517 
L 601.794562 128.672589 
L 602.076523 129.733799 
L 602.358484 129.078509 
L 602.640444 129.023694 
L 602.922405 131.18636 
L 603.486326 136.948704 
L 604.050247 139.176688 
L 604.614168 145.05547 
L 604.896129 147.768007 
L 605.46005 150.168333 
L 606.587892 158.7409 
L 607.151814 164.822362 
L 607.433774 161.47747 
L 607.997695 146.896994 
L 608.843577 132.541732 
L 609.407498 122.593121 
L 609.689459 119.654997 
L 609.971419 117.994132 
L 610.25338 117.695348 
L 611.099262 118.500068 
L 611.663183 120.080234 
L 611.945144 121.405113 
L 612.227104 124.506169 
L 612.791025 131.863685 
L 613.072986 132.092766 
L 613.354946 130.701234 
L 613.636907 130.584712 
L 613.918868 133.723751 
L 614.482789 141.907801 
L 614.764749 142.33455 
L 615.04671 143.052762 
L 615.610631 147.573695 
L 616.174552 149.055781 
L 616.456513 150.324213 
L 616.738474 152.38304 
L 617.302395 158.791639 
L 617.584355 158.703956 
L 617.866316 156.292751 
L 618.148276 155.562527 
L 618.430237 157.832342 
L 618.994158 163.158516 
L 619.276119 163.624299 
L 619.558079 162.3507 
L 619.84004 159.319617 
L 620.403961 146.674747 
L 620.967882 134.767399 
L 622.095725 120.311403 
L 622.659646 117.272542 
L 622.941606 117.035316 
L 623.505528 119.06739 
L 624.069449 118.855673 
L 624.351409 120.555051 
L 625.479252 136.258393 
L 625.761212 137.27776 
L 626.043173 139.275993 
L 626.325133 140.353569 
L 626.607094 139.162145 
L 626.889055 136.699045 
L 627.171015 135.556682 
L 627.734936 136.54173 
L 628.016897 136.391887 
L 628.298858 138.055684 
L 628.862779 144.174195 
L 629.144739 144.619685 
L 629.4267 146.487484 
L 629.990621 153.130425 
L 630.554542 154.313971 
L 631.400424 158.851615 
L 632.246306 166.135588 
L 632.528266 162.877919 
L 632.810227 154.275112 
L 633.092188 141.743994 
L 633.092188 141.743994 
" clip-path="url(#p868b00ab49)" style="fill: none; stroke: #1f77b4; stroke-width: 1.5; stroke-linecap: square"/>
   </g>
   <g id="patch_3">
    <path d="M 47.192188 266.112 
L 47.192188 0 
" style="fill: none; stroke: #000000; stroke-width: 0.8; stroke-linejoin: miter; stroke-linecap: square"/>
   </g>
   <g id="patch_4">
    <path d="M 660.992188 266.112 
L 660.992188 0 
" style="fill: none; stroke: #000000; stroke-width: 0.8; stroke-linejoin: miter; stroke-linecap: square"/>
   </g>
   <g id="patch_5">
    <path d="M 47.192188 266.112 
L 660.992188 266.112 
" style="fill: none; stroke: #000000; stroke-width: 0.8; stroke-linejoin: miter; stroke-linecap: square"/>
   </g>
   <g id="patch_6">
    <path d="M 47.192188 0 
L 660.992188 0 
" style="fill: none; stroke: #000000; stroke-width: 0.8; stroke-linejoin: miter; stroke-linecap: square"/>
   </g>
  </g>
 </g>
 <defs>
  <clipPath id="p868b00ab49">
   <rect x="47.192188" y="0" width="613.8" height="266.112"/>
  </clipPath>
 </defs>
</svg>
