<svg xmlns="http://www.w3.org/2000/svg" xmlns:xlink="http://www.w3.org/1999/xlink" width="913.477" height="377.053" viewBox="0 0 685.107 282.79"><defs><style>*{stroke-linejoin:round;stroke-linecap:butt}</style></defs><g id="figure_1"><path id="patch_1" d="M0 282.79h685.107V0H0v282.79z" style="fill:none"/><g id="axes_1"><path id="patch_2" d="M71.308 266.112h613.8V0h-613.8v266.112z" style="fill:none"/><g id="matplotlib.axis_1"><g id="xtick_1"><g id="line2d_1"><defs><path id="maa9889e9fb" d="M0 0v3.5" style="stroke:gray;stroke-width:.8"/></defs><use xlink:href="#maa9889e9fb" x="99.207" y="266.112" style="fill:gray;stroke:gray;stroke-width:.8"/></g><g id="text_1" style="fill:gray" transform="matrix(.1 0 0 -.1 96.026 280.71)"><defs><path id="DejaVuSans-30" d="M2034 4250q-487 0-733-480-245-479-245-1442 0-959 245-1439 246-480 733-480 491 0 736 480 246 480 246 1439 0 963-246 1442-245 480-736 480zm0 500q785 0 1199-621 414-620 414-1801 0-1178-414-1799Q2819-91 2034-91q-784 0-1198 620-414 621-414 1799 0 1181 414 1801 414 621 1198 621z" transform="scale(.01563)"/></defs><use xlink:href="#DejaVuSans-30"/></g></g><g id="xtick_2"><use xlink:href="#maa9889e9fb" id="line2d_2" x="168.958" y="266.112" style="fill:gray;stroke:gray;stroke-width:.8"/><g id="text_2" style="fill:gray" transform="matrix(.1 0 0 -.1 159.414 280.71)"><defs><path id="DejaVuSans-35" d="M691 4666h2478v-532H1269V2991q137 47 274 70 138 23 276 23 781 0 1237-428 457-428 457-1159 0-753-469-1171Q2575-91 1722-91q-294 0-599 50Q819 9 494 109v635q281-153 581-228t634-75q541 0 856 284 316 284 316 772 0 487-316 771-315 285-856 285-253 0-505-56-251-56-513-175v2344z" transform="scale(.01563)"/></defs><use xlink:href="#DejaVuSans-35"/><use xlink:href="#DejaVuSans-30" x="63.623"/><use xlink:href="#DejaVuSans-30" x="127.246"/></g></g><g id="xtick_3"><use xlink:href="#maa9889e9fb" id="line2d_3" x="238.708" y="266.112" style="fill:gray;stroke:gray;stroke-width:.8"/><g id="text_3" style="fill:gray" transform="matrix(.1 0 0 -.1 225.982 280.71)"><defs><path id="DejaVuSans-31" d="M794 531h1031v3560L703 3866v575l1116 225h631V531h1031V0H794v531z" transform="scale(.01563)"/></defs><use xlink:href="#DejaVuSans-31"/><use xlink:href="#DejaVuSans-30" x="63.623"/><use xlink:href="#DejaVuSans-30" x="127.246"/><use xlink:href="#DejaVuSans-30" x="190.869"/></g></g><g id="xtick_4"><use xlink:href="#maa9889e9fb" id="line2d_4" x="308.457" y="266.112" style="fill:gray;stroke:gray;stroke-width:.8"/><g id="text_4" style="fill:gray" transform="matrix(.1 0 0 -.1 295.733 280.71)"><use xlink:href="#DejaVuSans-31"/><use xlink:href="#DejaVuSans-35" x="63.623"/><use xlink:href="#DejaVuSans-30" x="127.246"/><use xlink:href="#DejaVuSans-30" x="190.869"/></g></g><g id="xtick_5"><use xlink:href="#maa9889e9fb" id="line2d_5" x="378.207" y="266.112" style="fill:gray;stroke:gray;stroke-width:.8"/><g id="text_5" style="fill:gray" transform="matrix(.1 0 0 -.1 365.483 280.71)"><defs><path id="DejaVuSans-32" d="M1228 531h2203V0H469v531q359 372 979 998 621 627 780 809 303 340 423 576 121 236 121 464 0 372-261 606-261 235-680 235-297 0-627-103-329-103-704-313v638q381 153 712 231 332 78 607 78 725 0 1156-363 431-362 431-968 0-288-108-546-107-257-392-607-78-91-497-524-418-433-1181-1211z" transform="scale(.01563)"/></defs><use xlink:href="#DejaVuSans-32"/><use xlink:href="#DejaVuSans-30" x="63.623"/><use xlink:href="#DejaVuSans-30" x="127.246"/><use xlink:href="#DejaVuSans-30" x="190.869"/></g></g><g id="xtick_6"><use xlink:href="#maa9889e9fb" id="line2d_6" x="447.957" y="266.112" style="fill:gray;stroke:gray;stroke-width:.8"/><g id="text_6" style="fill:gray" transform="matrix(.1 0 0 -.1 435.233 280.71)"><use xlink:href="#DejaVuSans-32"/><use xlink:href="#DejaVuSans-35" x="63.623"/><use xlink:href="#DejaVuSans-30" x="127.246"/><use xlink:href="#DejaVuSans-30" x="190.869"/></g></g><g id="xtick_7"><use xlink:href="#maa9889e9fb" id="line2d_7" x="517.707" y="266.112" style="fill:gray;stroke:gray;stroke-width:.8"/><g id="text_7" style="fill:gray" transform="matrix(.1 0 0 -.1 504.983 280.71)"><defs><path id="DejaVuSans-33" d="M2597 2516q453-97 707-404 255-306 255-756 0-690-475-1069Q2609-91 1734-91q-293 0-604 58T488 141v609q262-153 574-231 313-78 654-78 593 0 904 234t311 681q0 413-289 645-289 233-804 233h-544v519h569q465 0 712 186t247 536q0 359-255 551-254 193-729 193-260 0-557-57-297-56-653-174v562q360 100 674 150t592 50q719 0 1137-327 419-326 419-882 0-388-222-655t-631-370z" transform="scale(.01563)"/></defs><use xlink:href="#DejaVuSans-33"/><use xlink:href="#DejaVuSans-30" x="63.623"/><use xlink:href="#DejaVuSans-30" x="127.246"/><use xlink:href="#DejaVuSans-30" x="190.869"/></g></g><g id="xtick_8"><use xlink:href="#maa9889e9fb" id="line2d_8" x="587.457" y="266.112" style="fill:gray;stroke:gray;stroke-width:.8"/><g id="text_8" style="fill:gray" transform="matrix(.1 0 0 -.1 574.732 280.71)"><use xlink:href="#DejaVuSans-33"/><use xlink:href="#DejaVuSans-35" x="63.623"/><use xlink:href="#DejaVuSans-30" x="127.246"/><use xlink:href="#DejaVuSans-30" x="190.869"/></g></g><g id="xtick_9"><use xlink:href="#maa9889e9fb" id="line2d_9" x="657.207" y="266.112" style="fill:gray;stroke:gray;stroke-width:.8"/><g id="text_9" style="fill:gray" transform="matrix(.1 0 0 -.1 644.482 280.71)"><defs><path id="DejaVuSans-34" d="M2419 4116 825 1625h1594v2491zm-166 550h794V1625h666v-525h-666V0h-628v1100H313v609l1940 2957z" transform="scale(.01563)"/></defs><use xlink:href="#DejaVuSans-34"/><use xlink:href="#DejaVuSans-30" x="63.623"/><use xlink:href="#DejaVuSans-30" x="127.246"/><use xlink:href="#DejaVuSans-30" x="190.869"/></g></g></g><g id="matplotlib.axis_2"><g id="ytick_1"><g id="line2d_10"><defs><path id="m2bc3f4ca9b" d="M0 0h-3.5" style="stroke:gray;stroke-width:.8"/></defs><use xlink:href="#m2bc3f4ca9b" x="71.308" y="212.588" style="fill:gray;stroke:gray;stroke-width:.8"/></g><g id="text_10" style="fill:gray" transform="matrix(.16 0 0 -.16 0 218.667)"><defs><path id="DejaVuSans-2212" d="M678 2272h4006v-531H678v531z" transform="scale(.01563)"/></defs><use xlink:href="#DejaVuSans-2212"/><use xlink:href="#DejaVuSans-32" x="83.789"/><use xlink:href="#DejaVuSans-30" x="147.412"/><use xlink:href="#DejaVuSans-30" x="211.035"/><use xlink:href="#DejaVuSans-30" x="274.658"/><use xlink:href="#DejaVuSans-30" x="338.281"/></g></g><g id="ytick_2"><use xlink:href="#m2bc3f4ca9b" id="line2d_11" x="71.308" y="153.133" style="fill:gray;stroke:gray;stroke-width:.8"/><use xlink:href="#DejaVuSans-30" id="text_11" style="fill:gray" transform="matrix(.16 0 0 -.16 54.127 159.211)"/></g><g id="ytick_3"><use xlink:href="#m2bc3f4ca9b" id="line2d_12" x="71.308" y="93.677" style="fill:gray;stroke:gray;stroke-width:.8"/><g id="text_12" style="fill:gray" transform="matrix(.16 0 0 -.16 13.408 99.756)"><use xlink:href="#DejaVuSans-32"/><use xlink:href="#DejaVuSans-30" x="63.623"/><use xlink:href="#DejaVuSans-30" x="127.246"/><use xlink:href="#DejaVuSans-30" x="190.869"/><use xlink:href="#DejaVuSans-30" x="254.492"/></g></g><g id="ytick_4"><use xlink:href="#m2bc3f4ca9b" id="line2d_13" x="71.308" y="34.221" style="fill:gray;stroke:gray;stroke-width:.8"/><g id="text_13" style="fill:gray" transform="matrix(.16 0 0 -.16 13.408 40.3)"><use xlink:href="#DejaVuSans-34"/><use xlink:href="#DejaVuSans-30" x="63.623"/><use xlink:href="#DejaVuSans-30" x="127.246"/><use xlink:href="#DejaVuSans-30" x="190.869"/><use xlink:href="#DejaVuSans-30" x="254.492"/></g></g></g><path id="line2d_14" d="m99.207 153.25.282-.23.282.219.282-.208.282.199.282-.19.282.182.282-.175.282.168.282-.162.282.157.282-.152.282.147.282-.142.282.137.282-.133.282.13.282-.126.282.122.282-.119.282.115.282-.112.282.11.282-.107.282.104.282-.101.281.098.282-.096.282.094.282-.091.282.088.282-.086.282.084.282-.082.282.08.282-.078.282.076.282-.074.282.072.282-.07.282.068.282-.066.282.064.282-.061.282.058.564-.004.846-.033.563.064.282-.584.282-2.27.564 1.209.282-.147.282.974.564 4.716.846 2.959.282-1.677.282-2.387.282.04.564 4.25.282 1.182.282 2.712.564 9.033.282 1.825.282-.095.282-.388.282-.16.282.642.563 1.915.282.017.282.573.282 1.209.282.16.564-3.58.282.388.564 4.61.564 5.373.282 1.717.282 2.86.282 4.453.282.575.282-8.673.564-36.325.846-62.671.282-8.693.282 1.083.281 6.314 1.128 34.239.282 1.231.564 4.265.282 2.38.282 5.206.846 32.289.282.296.564-4.19.564-2.951 1.41-8.517.282-2.4.282-.086.845 8.733.282.251.564-.746.282.334 1.128 5.312.282 2.627.564 7.507.282 1.93.282 1.085.282 1.581.564 3.771.564 1.42.564 4.47.846 7.814.281 1.475.282.708.282-.104.282-3.297.282-10.393.564-40.876.564-42.365.282-14.515.282-7.293.282-1.048.564 2.112.282 3.604.846 19.554.282 4.687.564 14.919.564 21.233.564 22.177.281.379.282-3.516.282-1.847.564.697.564-.89.282.374.846 5.271.282-.188.282-.606.282-.298.282-.504.846-4.32.564-.595.564-1.671.282-.047 1.127 3.525.846 3.73.282.597.282 1.833.564 5.685.282 1.304.282 2.21.846 12.695.564 1.596.564 1.785.564 3.383.564 1.691.564 5.57.282-3.076.282-12.704.563-47.225.564-48.015.564-24.833.282-5.18.282-1.64.282 1.409.282 3.96.846 20.118.564 16.783.564 25.074.846 44.885.282 3.61 1.128-8.553.281-1.501.282-.876.564-.781.282.483.564 1.665.282.153.564.73.564-1.435.282.58.282 1.183.564.892.564 2.352.282-.236.282.257.564 4.829.282.797.282 1.148.564 6.622.281.002.282-.943.282 1.544.564 4.82.282 1.81.564 7.095.282 1.797.282.07.282-2.75.282-9.763.564-43.334.564-47.585.564-29.006.282-5.02.282-.62.282 2.919.282 6.299.846 29.862.845 30.593.564 31.401.282 8.526.282.365.564-5.2.564-3.211.282-1.019.282-1.537.564-5.017.564-2.763.282-.969.282.368.282 1.195.564 1.226.564 4.117.282.69.281.184 1.692 7.602.564 3.806.564 4.256.846 4.235.282.32.282-.583.282.225 1.974 14.423.845 13.171.564 7.843.282.508.282-10.209.564-44.463 1.128-97.927.282-14.006.282-7.367.282-.263.564 7.78.564 5.123.564 8.833.282 7.888.282 13.222.564 46.454.563 41.765.282 4.284 1.128-6.803.282-.915.282-1.575.564-6.676.564-1.651.564-6.686.282-.127.564 5.676.564 1.995.282 2.391.846 9.73 1.41 12.917 1.41 16.637.281 1.265.282.694.282 1.103 1.128 7.916.846 11.298.282-8.069.564-42.288 1.128-104.625.282-15.211.281-5.735.282.609.564 4.797.564 3.346.564 6.475.282 5.951.282 11.81.564 49.572.282 26.428.282 15.763.282 4.264.846-4.12.564.23.282-.256.282-.436.282.032.282.725.845 3.995.282-.578.564-4.583.282-1.057.282-.266.282-.442.282-.702.282-.264.282.628.846 3.57.282 2.988.282 4.33.282 2.586.564-1.417.282 2.897.564 8.065.282.663.282 1.378 2.255 25.207.282-5.717.282-18.898 1.41-139.087.282-15.356.282-3.067 1.41 11.973.282 2.766.282 4.973.282 9.309.282 16.323.845 71.04.282 8.834.282 1.137.846-2.545.846-5.232.282-.9.564-4.753.282.418.564 7.63.282 1.688.282.416.282.76.282 1.737.846 8.173.282.22.282.73 1.127 10.272.282 3.656.282 1.894.282-.285.282.417.564 3.977.282-.572.282-.262.282 2.627.564 7.67.282 1.55.282.769.282 1.419.282 3.308 1.128 22.018.282 6.597.282 1.38.282-9.867.563-48.062 1.128-115.808.282-10.787.282-2.013.282-.404.282-3.04.282-6.263.846-28.337.282-2.919.282 3.228.282 8.421.282 14.775.564 54.093.564 54.147.282 10.554.282 1.446.282-.46.563 3.143.282-.225.282-.69.282.215.282-1.035.564-7.648.282.782 2.256 34.227.846 11.567.282 1.627.282 2.496.564 11.962.563 10.57.564 7.49.846 6.363.846 12.572.282-.654.282-8.535.282-17.25.564-54.935.846-89.253.282-11.704.564-14.045.564-18.598.282-5.577.282-2.598.282.034.282 2.983.281 6.017.282 9.767.282 16.378 1.128 97.312.282 4.03.846-1.868.282.8.564 2.46.282-.194.282-.492.282.274.282.772.282.41.282-.156.846-1.458.282-.013.282.82.563 4.69.282 2.157.282.655h.282l.282.778 1.692 9.631 1.128 12.51.282 2.377.564 8.762.846 12.758.846 14.772.845 17.038.282-6.647.564-46.575 1.128-134.018.846-41.696.282-7.227.282-.196.282.079.282-1.258.282 1.339.564 9.516.282 6.273.282 10.596.564 39.82.564 54.893.281 17.652.282 6.584.282.489.282-.679.282-1.146.564-3.86.282.44.846 6.187.846 8.801.564 2.313.564 4.126.846 4.409.846 4.515.845 8.293.282 1.795.282.996.282-.16.282.834.564 7.885.282 1.554.282.58.282 3.362.846 17.796.564 8.277.564 11.615.282-.666.282-12.775.564-56.802.846-109.44.563-32.36.282-8.222.282-3.988.282.57.564 4.434.564 1.295.282 2.314.282 4.884.282 8.081.282 13.283.564 48.35.564 50.426.282 13.591.282 4.534.282-1.818.282-3.112.282-1.153.282-.407.564-3.41.563-.836.564-2.732.282 2.025.846 12.209.564 3.414.282 3.644.564 10.488 1.128 13.725.282 1.699.282 2.474.846 14.097.282 2.576.846 13.887.563 3.916.282-3.26.282-14.931.564-63.292.846-104.173.282-20.278.282-9.868.282-3.05.282-.16.282.788.282 1.328.282 2.09.282 3.018.282 4.229.282 6.69.282 10.947.564 34.197.846 60.622.282 11.478.281 4.025h.282l.282-1.19.846-5.724.282.15.564 1.68.282.224.282 1.119.564 5.573.282.823.282-.062.282 1.328.282 2.01.282.547.282-.099.282 1.67.564 4.9.282 1.034.564 3.715.281.387.564-2.836.282.161.564 2.366.282.817.282 2.353 2.256 37.69.564 10.357.564 9.14.282-.816.282-14.095.564-64.891.845-114.222.282-17.323.282-6.188.282-1.524.282-.358.282.111.282.36.282.842.282 1.928.564 6.286.282 4.794.282 7.474.564 24.972 1.128 62.131.564 22.365.282 7.158.282 4.132.282 1.456.282-1.5.281-3.28.282-1.458.282 2.413.282 3.964.282 2.332.564 1.836.282 1.856.282 2.867.846 13.074.564 5.737.282 3.913.282 2.365.282 1.292.282 3.045.564 8.4.846 3.63.282.603.282.333.281 2.29 1.41 20.41.282-3.667.282-14.289.282-27.333 1.128-145.03.282-11.566.282-5.544.282-1.996.282 1.133 1.41 11.017.282 1.344.282 4.374.282 9.293.563 28.969.846 50.097.564 23.256.564 14.486.282 3.47.282 1.823.282.459.282-.883.282-1.365.282-.79.282-.441.282-1.343.564-4.516.282-.947.846-1.565 1.41 3.097.281-.598.282-.981.282.198.282 1.975 1.41 13.835.846 15.075.564 10.063 2.256 25.496.282-9.583.281-24.984 1.128-154.253.282-17.092.282-7.005.282-1.958.282 1.128 1.128 11.82 1.128 19.615.846 34.937.846 34.386.564 11.193.563 11.536.564 14.727.846 14.68.846 7.63.564 7.667.282.68.282.996.282 2.125.282.679.564-4.253.282-.318.564 2.102.282 1.97 1.691 17.463.846 16.186.282 2.675.564 9.735.282.09.282-11.495.282-26.251 1.128-147.776.282-11.463.282-5.664.282-2.798.282.213.564 4.22.564 2.444.282 3.293.845 16.587.282 8.16 1.128 44.659.846 17.643.282 4.11.846 6.394.846 12.645.564 12.899.282 2.535.564-2.054.282 1.146.282 1.68.282.472.282-.201.281.8.564 3.442.282-.088.282.033.282 2.097.282 2.96.282 1.182.282.006.282 1.718.846 10.057.846 8.058.282.687.282 1.294.564 7.667.282 3.716.564 4.127.282 4.58.563 11.435.282.985.282-4.06.282-14.274.282-31.486.846-123.344.282-16.045.282-7.357.282-3.391.282.04.564 7.365.564 5.59.282 2.877.846 16.34.282 7.337 1.128 39.728.845 17.5.564 10.815.282 3.307.846 5.47.282-.02.282-.575.282.953.564 6.02.282 4.963.846 20.49.846 6.986.282 2.181.564 1.096.564 4.77.281.61.282-.629.282 1.691 1.128 18.195.846 23.822.282 2.465.282-1.678.282-11.127.282-28.231.846-127.547.282-18.011.282-8.388.282-4.794.282-1.537.564 2.804.282 1.482.282 3.17.563 9.113.564 5.086.282 5.542 1.128 34.398.846 23.183.282 1.932.282.35.282.092.564-.742.564 1.382.282-.834.282.002.282 3.656.846 17.655 1.127 17.237.564 8.48.564 8.953.846 6.856.282 1.732.282-.111.564-2.19.282-.428.564-1.64.282 1.218 1.692 20.137.845 15.358.564 11.146.282 2.027.282-5.605.282-21.302 1.128-147.462.564-14.277.282-5.26.282-2.13.282.904.282 2.94 1.974 29.187.563 20.011.564 16.004.846 15.386.282 2.4.282 1.408.282.469.282-1.394.282-2.581.282-1.296.282 1.23.846 7.452.282 2.33.564 8.027 3.101 58.714.564 14.378 1.128 14.042.282-.369.282.111.282 2.96.564 9.672.282-2.608.282-19.693 1.128-144.304.282-10.864.282-6.248.282-1.767 1.127 7.873.564 2.766.282 2.258.282 4.275.564 16.641.564 18.252.846 16.475.282 2.313.282-.234.282-.49.564 1.3.564-1.418.282 1.339.564 6.387.282 1.964.282.719.281.195.282.69 1.128 6.778.564 6.034.564 2.185.564 7.568 1.128 13.569.564 8.65 1.128 13.224 1.127 19.78.564 5.334.846 11.924.282.964.282-6.588.282-23.193.846-112.999.282-14.126.564-14.286.282-4.47.282-1.927.282-.224.282 1.996.564 6.926.282 2.04.282 3.842 2.255 47.992.564 3.983.282 1.396.282.699.564-1.204.564 2.39.564-.473.282 2.18.282 3.585.282 2.159.282.612.282 1.894.846 12.793.564 2.968.563 4.003.564 1.959.282 2.366.564 6.073.564 2.336.282 2.577 1.41 20.968.846 18.171.564 15.69.564 9.462.282-1.405.282-18.582.845-104.796.564-20.451.282-6.385.282-2.88.282-.142.282-.28.282-.946.282-.445.282.46.282 1.601.564 4.952.282 3.425.282 6.604.846 24.757.564 7.788.282.218.282-1.466.282-.698.282.946.563 3.285.282.386.282-.15.282.94.846 6.494.282 1.33.282.771.282.101.282 1.165.282 4.213.564 10.494.564 3.882.282 1.093.564.646.282 2.05.564 5.666.282 1.964.282 3.928.563 11.386 1.692 21.26.282-3.553.282-17.783.564-55.326.282-16.599.564-15.614.282-3.687.282-.736.282.154.282-.212.282.625.564 3.283.282-.131.282-.399.282 1.847.563 12.328.282 5.746.846 8.703.564 4.963.846 4.267.282-.1.564-2.324.282.15.282-.133.564-2.69.282.49.282 2.41 1.128 14.296.282.182 1.127-1.929.282 1.453.846 11.959.564 2.878.564 3.036.564 6.152.282 2.93.282.514.564-2.408.282.946.282 2.443.564 7.566.564 9.905.282 7.24.282 3.646.282-8.899.845-61.661.846-31.15.282-6.283.564-6.007.282-.933.564 3.254.282.177.282.33.282 2.322.564 7.391.846 15.93 1.128 7.283.282-.375.281.02.846 5.026.846 2.65.564.028.282.736.564 3.527 1.692 11.424.564 5.671.282 1.28.564.946.564 2.298 1.691 9.362.282 3.345.282 1.965.282.308.282 1.863.846 15.318.564 10.445.282-.205.282-14.086.564-43.026.564-23.073.564-14.35.564-4.05.282-1.374.281-.1.282.346.282-.044.282-.462.282-1.406.282-2.706.282-1.316.282 2.956.564 11.062.564 6.788.564 8.39 1.128 10.77.282.104.282.308.564 2.837.282-.031.282-.3.282.623.563 1.74.282 1.395 1.128 9.337.282 1.519.564 1.363.846 5.97.564 1.196 1.128 5.194.564 5.707.846 10.842.282.796.282-6.148 1.41-69.578.281-6.153.282-1.07.282 3.698.564 9.687.282 1.32.564-1.175.282 1.054.846 5.519.564 7.155.282 1.262.282-.463.282.898.564 6.423.282 1.511.281.095.282-.767.282-1.832.564-5.184.282-1.121.564-.977.282 1.05.564 6.047.282 1.287.282.495.564 1.885.282.014.282.878.846 8.608.846 4.396.282-.002.282.507.563 4.232.564 1.377.564 4.118.282.31.282.804.564 5.75.564 1.188.282 2.61.846 12.418.282 1.597.282-6.579 1.128-53.143.282-8.628.282-5.143.845-8.94.282-.27.282.897.564-.51.564 3.88.282-.402.282-2.295.282-.721.282 2.554.564 9.488.282 2.818 1.41 6.973 1.128 8.466.564 2.98.563 3.635.282-1.008.564-6.382.282 1.179.282 2.666.282.533.282-.369.282 1.654.564 6.803.846 6.608.564 1.337.846 5.022.564 3.484.282 1.368.282 3.094.564 10.995.281 3.281.282 1.67.282-.318.282-6.038.564-30.254.564-28.586.282-7.97.282-3.221.282-.062.282.562.282 1.193.564 4.692.282.644.282-.285.282-.082.564.263.282 2.26.846 13.664.282.51.563-1.028.282-.3.564 1.13.282.059.282-.377.282.774.564 3.04.282.328.282.764 1.128 7.113.282.345.282-.18.282.143.282 1.83.564 4.242.282-.442.282-.908.282-.106.281.637.282-.161.282-.626.282.195.846 5.51.564.028.282.576 1.128 6.636.282 2.173.564 7.273.564 9.32.282 1.652.282-5.989.846-38.34.564-17.105.281-5.157.282-2.047.564-1.357.282 1.619.282 2.409.282.633.282-1.526.282-.422.282.513.282-.37.282-1.547.282.811.846 10.092 1.128 6.28.282-.126.282-.468.282.29.282-.53.563-3.247.282.861 1.41 13.985.282 4.025.282 1.216.282-.189.282-.794.564 1.811.282 1.947.564 2.594.282.087.564 2.561.282 2.506.282.204.282 1.238.282-.438.282 2.547.282-.264.281 5.847h0" clip-path="url(#pe1cd96a096)" style="fill:none;stroke:#1f77b4;stroke-width:1.5;stroke-linecap:square"/><path id="patch_3" d="M71.308 266.112V0" style="fill:none;stroke:gray;stroke-width:.8;stroke-linejoin:miter;stroke-linecap:square"/><path id="patch_4" d="M685.107 266.112V0" style="fill:none;stroke:#000;stroke-width:.8;stroke-linejoin:miter;stroke-linecap:square"/><path id="patch_5" d="M71.308 266.112h613.8" style="fill:none;stroke:gray;stroke-width:.8;stroke-linejoin:miter;stroke-linecap:square"/><path id="patch_6" d="M71.308 0h613.8" style="fill:none;stroke:#000;stroke-width:.8;stroke-linejoin:miter;stroke-linecap:square"/></g></g><defs><clipPath id="pe1cd96a096"><path d="M71.308 0h613.8v266.112h-613.8z"/></clipPath></defs></svg>