<?xml version="1.0" encoding="utf-8" standalone="no"?>
<!DOCTYPE svg PUBLIC "-//W3C//DTD SVG 1.1//EN"
  "http://www.w3.org/Graphics/SVG/1.1/DTD/svg11.dtd">
<svg xmlns:xlink="http://www.w3.org/1999/xlink" width="660.992188pt" height="282.790125pt" viewBox="0 0 660.992188 282.790125" xmlns="http://www.w3.org/2000/svg" version="1.1">
 <metadata>
  <rdf:RDF xmlns:dc="http://purl.org/dc/elements/1.1/" xmlns:cc="http://creativecommons.org/ns#" xmlns:rdf="http://www.w3.org/1999/02/22-rdf-syntax-ns#">
   <cc:Work>
    <dc:type rdf:resource="http://purl.org/dc/dcmitype/StillImage"/>
    <dc:date>2023-03-06T19:25:45.463973</dc:date>
    <dc:format>image/svg+xml</dc:format>
    <dc:creator>
     <cc:Agent>
      <dc:title>Matplotlib v3.6.3, https://matplotlib.org/</dc:title>
     </cc:Agent>
    </dc:creator>
   </cc:Work>
  </rdf:RDF>
 </metadata>
 <defs>
  <style type="text/css">*{stroke-linejoin: round; stroke-linecap: butt}</style>
 </defs>
 <g id="figure_1">
  <g id="patch_1">
   <path d="M -0 282.790125 
L 660.992188 282.790125 
L 660.992188 0 
L -0 0 
L -0 282.790125 
z
" style="fill: none"/>
  </g>
  <g id="axes_1">
   <g id="patch_2">
    <path d="M 47.192188 266.112 
L 660.992188 266.112 
L 660.992188 0 
L 47.192188 0 
L 47.192188 266.112 
z
" style="fill: none"/>
   </g>
   <g id="matplotlib.axis_1">
    <g id="xtick_1">
     <g id="line2d_1">
      <defs>
       <path id="md59491179d" d="M 0 0 
L 0 3.5 
" style="stroke: #000000; stroke-width: 0.8"/>
      </defs>
      <g>
       <use xlink:href="#md59491179d" x="75.092188" y="266.112" style="stroke: #000000; stroke-width: 0.8"/>
      </g>
     </g>
     <g id="text_1">
      <!-- 0 -->
      <g transform="translate(71.910938 280.710438) scale(0.1 -0.1)">
       <defs>
        <path id="DejaVuSans-30" d="M 2034 4250 
Q 1547 4250 1301 3770 
Q 1056 3291 1056 2328 
Q 1056 1369 1301 889 
Q 1547 409 2034 409 
Q 2525 409 2770 889 
Q 3016 1369 3016 2328 
Q 3016 3291 2770 3770 
Q 2525 4250 2034 4250 
z
M 2034 4750 
Q 2819 4750 3233 4129 
Q 3647 3509 3647 2328 
Q 3647 1150 3233 529 
Q 2819 -91 2034 -91 
Q 1250 -91 836 529 
Q 422 1150 422 2328 
Q 422 3509 836 4129 
Q 1250 4750 2034 4750 
z
" transform="scale(0.015625)"/>
       </defs>
       <use xlink:href="#DejaVuSans-30"/>
      </g>
     </g>
    </g>
    <g id="xtick_2">
     <g id="line2d_2">
      <g>
       <use xlink:href="#md59491179d" x="144.842188" y="266.112" style="stroke: #000000; stroke-width: 0.8"/>
      </g>
     </g>
     <g id="text_2">
      <!-- 500 -->
      <g transform="translate(135.298438 280.710438) scale(0.1 -0.1)">
       <defs>
        <path id="DejaVuSans-35" d="M 691 4666 
L 3169 4666 
L 3169 4134 
L 1269 4134 
L 1269 2991 
Q 1406 3038 1543 3061 
Q 1681 3084 1819 3084 
Q 2600 3084 3056 2656 
Q 3513 2228 3513 1497 
Q 3513 744 3044 326 
Q 2575 -91 1722 -91 
Q 1428 -91 1123 -41 
Q 819 9 494 109 
L 494 744 
Q 775 591 1075 516 
Q 1375 441 1709 441 
Q 2250 441 2565 725 
Q 2881 1009 2881 1497 
Q 2881 1984 2565 2268 
Q 2250 2553 1709 2553 
Q 1456 2553 1204 2497 
Q 953 2441 691 2322 
L 691 4666 
z
" transform="scale(0.015625)"/>
       </defs>
       <use xlink:href="#DejaVuSans-35"/>
       <use xlink:href="#DejaVuSans-30" x="63.623047"/>
       <use xlink:href="#DejaVuSans-30" x="127.246094"/>
      </g>
     </g>
    </g>
    <g id="xtick_3">
     <g id="line2d_3">
      <g>
       <use xlink:href="#md59491179d" x="214.592188" y="266.112" style="stroke: #000000; stroke-width: 0.8"/>
      </g>
     </g>
     <g id="text_3">
      <!-- 1000 -->
      <g transform="translate(201.867188 280.710438) scale(0.1 -0.1)">
       <defs>
        <path id="DejaVuSans-31" d="M 794 531 
L 1825 531 
L 1825 4091 
L 703 3866 
L 703 4441 
L 1819 4666 
L 2450 4666 
L 2450 531 
L 3481 531 
L 3481 0 
L 794 0 
L 794 531 
z
" transform="scale(0.015625)"/>
       </defs>
       <use xlink:href="#DejaVuSans-31"/>
       <use xlink:href="#DejaVuSans-30" x="63.623047"/>
       <use xlink:href="#DejaVuSans-30" x="127.246094"/>
       <use xlink:href="#DejaVuSans-30" x="190.869141"/>
      </g>
     </g>
    </g>
    <g id="xtick_4">
     <g id="line2d_4">
      <g>
       <use xlink:href="#md59491179d" x="284.342188" y="266.112" style="stroke: #000000; stroke-width: 0.8"/>
      </g>
     </g>
     <g id="text_4">
      <!-- 1500 -->
      <g transform="translate(271.617188 280.710438) scale(0.1 -0.1)">
       <use xlink:href="#DejaVuSans-31"/>
       <use xlink:href="#DejaVuSans-35" x="63.623047"/>
       <use xlink:href="#DejaVuSans-30" x="127.246094"/>
       <use xlink:href="#DejaVuSans-30" x="190.869141"/>
      </g>
     </g>
    </g>
    <g id="xtick_5">
     <g id="line2d_5">
      <g>
       <use xlink:href="#md59491179d" x="354.092188" y="266.112" style="stroke: #000000; stroke-width: 0.8"/>
      </g>
     </g>
     <g id="text_5">
      <!-- 2000 -->
      <g transform="translate(341.367188 280.710438) scale(0.1 -0.1)">
       <defs>
        <path id="DejaVuSans-32" d="M 1228 531 
L 3431 531 
L 3431 0 
L 469 0 
L 469 531 
Q 828 903 1448 1529 
Q 2069 2156 2228 2338 
Q 2531 2678 2651 2914 
Q 2772 3150 2772 3378 
Q 2772 3750 2511 3984 
Q 2250 4219 1831 4219 
Q 1534 4219 1204 4116 
Q 875 4013 500 3803 
L 500 4441 
Q 881 4594 1212 4672 
Q 1544 4750 1819 4750 
Q 2544 4750 2975 4387 
Q 3406 4025 3406 3419 
Q 3406 3131 3298 2873 
Q 3191 2616 2906 2266 
Q 2828 2175 2409 1742 
Q 1991 1309 1228 531 
z
" transform="scale(0.015625)"/>
       </defs>
       <use xlink:href="#DejaVuSans-32"/>
       <use xlink:href="#DejaVuSans-30" x="63.623047"/>
       <use xlink:href="#DejaVuSans-30" x="127.246094"/>
       <use xlink:href="#DejaVuSans-30" x="190.869141"/>
      </g>
     </g>
    </g>
    <g id="xtick_6">
     <g id="line2d_6">
      <g>
       <use xlink:href="#md59491179d" x="423.842188" y="266.112" style="stroke: #000000; stroke-width: 0.8"/>
      </g>
     </g>
     <g id="text_6">
      <!-- 2500 -->
      <g transform="translate(411.117188 280.710438) scale(0.1 -0.1)">
       <use xlink:href="#DejaVuSans-32"/>
       <use xlink:href="#DejaVuSans-35" x="63.623047"/>
       <use xlink:href="#DejaVuSans-30" x="127.246094"/>
       <use xlink:href="#DejaVuSans-30" x="190.869141"/>
      </g>
     </g>
    </g>
    <g id="xtick_7">
     <g id="line2d_7">
      <g>
       <use xlink:href="#md59491179d" x="493.592188" y="266.112" style="stroke: #000000; stroke-width: 0.8"/>
      </g>
     </g>
     <g id="text_7">
      <!-- 3000 -->
      <g transform="translate(480.867188 280.710438) scale(0.1 -0.1)">
       <defs>
        <path id="DejaVuSans-33" d="M 2597 2516 
Q 3050 2419 3304 2112 
Q 3559 1806 3559 1356 
Q 3559 666 3084 287 
Q 2609 -91 1734 -91 
Q 1441 -91 1130 -33 
Q 819 25 488 141 
L 488 750 
Q 750 597 1062 519 
Q 1375 441 1716 441 
Q 2309 441 2620 675 
Q 2931 909 2931 1356 
Q 2931 1769 2642 2001 
Q 2353 2234 1838 2234 
L 1294 2234 
L 1294 2753 
L 1863 2753 
Q 2328 2753 2575 2939 
Q 2822 3125 2822 3475 
Q 2822 3834 2567 4026 
Q 2313 4219 1838 4219 
Q 1578 4219 1281 4162 
Q 984 4106 628 3988 
L 628 4550 
Q 988 4650 1302 4700 
Q 1616 4750 1894 4750 
Q 2613 4750 3031 4423 
Q 3450 4097 3450 3541 
Q 3450 3153 3228 2886 
Q 3006 2619 2597 2516 
z
" transform="scale(0.015625)"/>
       </defs>
       <use xlink:href="#DejaVuSans-33"/>
       <use xlink:href="#DejaVuSans-30" x="63.623047"/>
       <use xlink:href="#DejaVuSans-30" x="127.246094"/>
       <use xlink:href="#DejaVuSans-30" x="190.869141"/>
      </g>
     </g>
    </g>
    <g id="xtick_8">
     <g id="line2d_8">
      <g>
       <use xlink:href="#md59491179d" x="563.342188" y="266.112" style="stroke: #000000; stroke-width: 0.8"/>
      </g>
     </g>
     <g id="text_8">
      <!-- 3500 -->
      <g transform="translate(550.617188 280.710438) scale(0.1 -0.1)">
       <use xlink:href="#DejaVuSans-33"/>
       <use xlink:href="#DejaVuSans-35" x="63.623047"/>
       <use xlink:href="#DejaVuSans-30" x="127.246094"/>
       <use xlink:href="#DejaVuSans-30" x="190.869141"/>
      </g>
     </g>
    </g>
    <g id="xtick_9">
     <g id="line2d_9">
      <g>
       <use xlink:href="#md59491179d" x="633.092188" y="266.112" style="stroke: #000000; stroke-width: 0.8"/>
      </g>
     </g>
     <g id="text_9">
      <!-- 4000 -->
      <g transform="translate(620.367188 280.710438) scale(0.1 -0.1)">
       <defs>
        <path id="DejaVuSans-34" d="M 2419 4116 
L 825 1625 
L 2419 1625 
L 2419 4116 
z
M 2253 4666 
L 3047 4666 
L 3047 1625 
L 3713 1625 
L 3713 1100 
L 3047 1100 
L 3047 0 
L 2419 0 
L 2419 1100 
L 313 1100 
L 313 1709 
L 2253 4666 
z
" transform="scale(0.015625)"/>
       </defs>
       <use xlink:href="#DejaVuSans-34"/>
       <use xlink:href="#DejaVuSans-30" x="63.623047"/>
       <use xlink:href="#DejaVuSans-30" x="127.246094"/>
       <use xlink:href="#DejaVuSans-30" x="190.869141"/>
      </g>
     </g>
    </g>
   </g>
   <g id="matplotlib.axis_2">
    <g id="ytick_1">
     <g id="line2d_10">
      <defs>
       <path id="m26ff02929a" d="M 0 0 
L -3.5 0 
" style="stroke: #000000; stroke-width: 0.8"/>
      </defs>
      <g>
       <use xlink:href="#m26ff02929a" x="47.192188" y="239.897173" style="stroke: #000000; stroke-width: 0.8"/>
      </g>
     </g>
     <g id="text_10">
      <!-- −15000 -->
      <g transform="translate(0 243.696392) scale(0.1 -0.1)">
       <defs>
        <path id="DejaVuSans-2212" d="M 678 2272 
L 4684 2272 
L 4684 1741 
L 678 1741 
L 678 2272 
z
" transform="scale(0.015625)"/>
       </defs>
       <use xlink:href="#DejaVuSans-2212"/>
       <use xlink:href="#DejaVuSans-31" x="83.789062"/>
       <use xlink:href="#DejaVuSans-35" x="147.412109"/>
       <use xlink:href="#DejaVuSans-30" x="211.035156"/>
       <use xlink:href="#DejaVuSans-30" x="274.658203"/>
       <use xlink:href="#DejaVuSans-30" x="338.28125"/>
      </g>
     </g>
    </g>
    <g id="ytick_2">
     <g id="line2d_11">
      <g>
       <use xlink:href="#m26ff02929a" x="47.192188" y="208.610544" style="stroke: #000000; stroke-width: 0.8"/>
      </g>
     </g>
     <g id="text_11">
      <!-- −10000 -->
      <g transform="translate(0 212.409763) scale(0.1 -0.1)">
       <use xlink:href="#DejaVuSans-2212"/>
       <use xlink:href="#DejaVuSans-31" x="83.789062"/>
       <use xlink:href="#DejaVuSans-30" x="147.412109"/>
       <use xlink:href="#DejaVuSans-30" x="211.035156"/>
       <use xlink:href="#DejaVuSans-30" x="274.658203"/>
       <use xlink:href="#DejaVuSans-30" x="338.28125"/>
      </g>
     </g>
    </g>
    <g id="ytick_3">
     <g id="line2d_12">
      <g>
       <use xlink:href="#m26ff02929a" x="47.192188" y="177.323916" style="stroke: #000000; stroke-width: 0.8"/>
      </g>
     </g>
     <g id="text_12">
      <!-- −5000 -->
      <g transform="translate(6.3625 181.123135) scale(0.1 -0.1)">
       <use xlink:href="#DejaVuSans-2212"/>
       <use xlink:href="#DejaVuSans-35" x="83.789062"/>
       <use xlink:href="#DejaVuSans-30" x="147.412109"/>
       <use xlink:href="#DejaVuSans-30" x="211.035156"/>
       <use xlink:href="#DejaVuSans-30" x="274.658203"/>
      </g>
     </g>
    </g>
    <g id="ytick_4">
     <g id="line2d_13">
      <g>
       <use xlink:href="#m26ff02929a" x="47.192188" y="146.037287" style="stroke: #000000; stroke-width: 0.8"/>
      </g>
     </g>
     <g id="text_13">
      <!-- 0 -->
      <g transform="translate(33.829688 149.836506) scale(0.1 -0.1)">
       <use xlink:href="#DejaVuSans-30"/>
      </g>
     </g>
    </g>
    <g id="ytick_5">
     <g id="line2d_14">
      <g>
       <use xlink:href="#m26ff02929a" x="47.192188" y="114.750659" style="stroke: #000000; stroke-width: 0.8"/>
      </g>
     </g>
     <g id="text_14">
      <!-- 5000 -->
      <g transform="translate(14.742188 118.549878) scale(0.1 -0.1)">
       <use xlink:href="#DejaVuSans-35"/>
       <use xlink:href="#DejaVuSans-30" x="63.623047"/>
       <use xlink:href="#DejaVuSans-30" x="127.246094"/>
       <use xlink:href="#DejaVuSans-30" x="190.869141"/>
      </g>
     </g>
    </g>
    <g id="ytick_6">
     <g id="line2d_15">
      <g>
       <use xlink:href="#m26ff02929a" x="47.192188" y="83.46403" style="stroke: #000000; stroke-width: 0.8"/>
      </g>
     </g>
     <g id="text_15">
      <!-- 10000 -->
      <g transform="translate(8.379688 87.263249) scale(0.1 -0.1)">
       <use xlink:href="#DejaVuSans-31"/>
       <use xlink:href="#DejaVuSans-30" x="63.623047"/>
       <use xlink:href="#DejaVuSans-30" x="127.246094"/>
       <use xlink:href="#DejaVuSans-30" x="190.869141"/>
       <use xlink:href="#DejaVuSans-30" x="254.492188"/>
      </g>
     </g>
    </g>
    <g id="ytick_7">
     <g id="line2d_16">
      <g>
       <use xlink:href="#m26ff02929a" x="47.192188" y="52.177402" style="stroke: #000000; stroke-width: 0.8"/>
      </g>
     </g>
     <g id="text_16">
      <!-- 15000 -->
      <g transform="translate(8.379688 55.97662) scale(0.1 -0.1)">
       <use xlink:href="#DejaVuSans-31"/>
       <use xlink:href="#DejaVuSans-35" x="63.623047"/>
       <use xlink:href="#DejaVuSans-30" x="127.246094"/>
       <use xlink:href="#DejaVuSans-30" x="190.869141"/>
       <use xlink:href="#DejaVuSans-30" x="254.492188"/>
      </g>
     </g>
    </g>
    <g id="ytick_8">
     <g id="line2d_17">
      <g>
       <use xlink:href="#m26ff02929a" x="47.192188" y="20.890773" style="stroke: #000000; stroke-width: 0.8"/>
      </g>
     </g>
     <g id="text_17">
      <!-- 20000 -->
      <g transform="translate(8.379688 24.689992) scale(0.1 -0.1)">
       <use xlink:href="#DejaVuSans-32"/>
       <use xlink:href="#DejaVuSans-30" x="63.623047"/>
       <use xlink:href="#DejaVuSans-30" x="127.246094"/>
       <use xlink:href="#DejaVuSans-30" x="190.869141"/>
       <use xlink:href="#DejaVuSans-30" x="254.492188"/>
      </g>
     </g>
    </g>
   </g>
   <g id="line2d_18">
    <path d="M 75.092188 146.058362 
L 75.938069 146.017389 
L 76.783951 146.056451 
L 77.629833 146.018519 
L 78.475715 146.055947 
L 79.321596 146.018472 
L 80.167478 146.056528 
L 81.01336 146.017324 
L 81.859242 146.058333 
L 82.705123 146.01469 
L 83.551005 146.062095 
L 84.396887 146.009269 
L 84.678847 146.066698 
L 84.960808 146.006266 
L 85.242769 146.070186 
L 85.524729 146.002178 
L 85.80669 146.075031 
L 86.08865 145.996362 
L 86.370611 146.08212 
L 86.652572 145.987559 
L 86.934532 146.093295 
L 87.216493 145.97301 
L 87.498453 146.11274 
L 87.780414 145.946765 
L 88.062374 146.143292 
L 88.344335 146.018962 
L 88.626296 154.568597 
L 89.190217 157.494156 
L 89.472177 159.899853 
L 90.036099 158.45881 
L 90.318059 159.379276 
L 90.60002 159.642161 
L 90.88198 155.446291 
L 92.009823 129.064703 
L 92.291783 127.106398 
L 92.573744 127.319108 
L 93.137665 128.097842 
L 93.419626 128.162548 
L 93.983547 124.767032 
L 94.265507 124.8779 
L 94.547468 126.856847 
L 94.829429 131.554793 
L 95.39335 149.899687 
L 95.67531 152.950051 
L 95.957271 150.804384 
L 96.239231 149.798625 
L 96.521192 150.643285 
L 96.803153 150.133084 
L 97.085113 149.023581 
L 97.367074 150.245092 
L 97.649034 152.494448 
L 97.930995 152.955696 
L 98.212956 151.908143 
L 98.494916 151.425599 
L 98.776877 152.219719 
L 99.340798 155.487204 
L 99.622758 155.791388 
L 99.904719 155.439275 
L 100.18668 155.658746 
L 100.46864 155.092736 
L 101.032561 149.108154 
L 101.314522 149.265305 
L 101.596483 150.826047 
L 101.878443 151.191546 
L 102.160404 152.482346 
L 102.724325 159.641923 
L 103.006286 159.652404 
L 103.288246 160.286795 
L 103.570207 162.889433 
L 103.852167 161.853872 
L 104.416088 143.364683 
L 104.98001 127.838519 
L 105.26197 123.081653 
L 105.543931 121.528049 
L 106.107852 123.005384 
L 106.389813 122.41355 
L 106.953734 119.442247 
L 107.235694 117.427325 
L 107.517655 116.980797 
L 107.799615 121.28355 
L 108.363537 140.492866 
L 108.645497 145.710975 
L 108.927458 146.237802 
L 109.491379 143.517742 
L 109.77334 142.900536 
L 110.0553 143.971363 
L 110.337261 145.777569 
L 110.901182 147.568229 
L 111.465103 151.882421 
L 111.747064 152.333704 
L 112.029024 152.091468 
L 112.592945 153.765643 
L 112.874906 153.609858 
L 113.438827 152.268435 
L 114.002748 151.902874 
L 114.284709 152.120411 
L 114.56667 152.920207 
L 115.130591 155.670923 
L 115.412551 156.034979 
L 115.976472 153.069651 
L 116.258433 154.097611 
L 116.540394 155.622427 
L 116.822354 153.849491 
L 117.104315 148.339153 
L 117.668236 130.701387 
L 118.232157 114.887504 
L 118.514118 113.583526 
L 119.36 116.924461 
L 119.64196 116.578789 
L 119.923921 115.501869 
L 120.205881 115.440166 
L 120.487842 118.317947 
L 120.769802 125.40114 
L 121.333724 143.794643 
L 121.615684 148.123118 
L 121.897645 149.653116 
L 122.179605 149.959563 
L 122.461566 149.019871 
L 122.743527 147.605346 
L 123.025487 147.17921 
L 123.589408 148.935167 
L 123.871369 148.715643 
L 124.717251 140.932838 
L 125.845093 143.847655 
L 126.127054 143.507802 
L 126.409014 142.870324 
L 126.690975 143.409207 
L 126.972935 143.4042 
L 127.254896 142.042969 
L 127.536857 142.98395 
L 128.100778 150.50912 
L 128.382738 149.561228 
L 128.664699 147.264217 
L 128.946659 145.987852 
L 129.510581 144.663955 
L 129.792541 143.755082 
L 130.074502 143.449065 
L 130.356462 145.397514 
L 130.638423 148.4983 
L 130.920384 149.116189 
L 131.484305 145.328781 
L 132.048226 144.610791 
L 132.330186 145.138692 
L 132.612147 146.309152 
L 132.894108 145.364162 
L 133.458029 139.004174 
L 133.739989 139.161435 
L 134.02195 139.954851 
L 134.303911 139.33454 
L 134.585871 139.333126 
L 134.867832 142.943839 
L 135.149792 148.208273 
L 135.431753 150.127756 
L 135.713714 148.528681 
L 135.995674 148.014217 
L 136.277635 149.454778 
L 136.559595 149.783515 
L 136.841556 149.368861 
L 137.405477 152.814328 
L 137.687438 153.006795 
L 137.969398 152.697286 
L 138.251359 152.557394 
L 138.533319 150.435078 
L 138.81528 146.911841 
L 139.097241 145.727525 
L 139.661162 149.417737 
L 139.943122 149.54841 
L 140.789004 146.219128 
L 141.070965 146.133606 
L 141.352925 147.321122 
L 141.916846 152.077167 
L 142.198807 153.166586 
L 142.480768 152.126667 
L 142.762728 147.888349 
L 143.326649 127.90444 
L 143.60861 117.266194 
L 143.890571 111.101577 
L 144.172531 112.013958 
L 145.018413 133.850158 
L 145.582334 129.622893 
L 145.864295 130.915157 
L 146.428216 134.989793 
L 146.710176 139.977872 
L 146.992137 147.344995 
L 147.274098 150.57471 
L 147.556058 146.10402 
L 147.838019 139.294383 
L 148.119979 136.581954 
L 148.40194 136.752986 
L 148.6839 136.03998 
L 148.965861 136.505486 
L 149.811743 150.194354 
L 150.093703 149.746177 
L 150.375664 150.581927 
L 150.657625 152.36805 
L 150.939585 152.646293 
L 151.221546 152.03084 
L 151.503506 152.29565 
L 152.067428 153.693581 
L 152.349388 154.191854 
L 152.631349 154.186403 
L 152.913309 153.278352 
L 153.19527 153.190441 
L 153.47723 155.785166 
L 153.759191 159.621689 
L 154.041152 161.655845 
L 154.605073 161.338207 
L 155.168994 164.431824 
L 155.450955 164.697135 
L 155.732915 162.473412 
L 156.014876 157.227235 
L 156.578797 134.731306 
L 156.860757 123.902531 
L 157.142718 119.996356 
L 157.706639 122.053438 
L 158.27056 124.845174 
L 158.552521 124.968164 
L 158.834482 124.130986 
L 159.116442 124.928654 
L 159.398403 127.09692 
L 159.680363 130.343343 
L 159.962324 137.518821 
L 160.244285 147.569327 
L 160.526245 153.26734 
L 160.808206 152.242949 
L 161.090166 150.78826 
L 161.372127 152.365464 
L 161.654087 152.476173 
L 162.218009 144.094156 
L 162.499969 143.932082 
L 163.06389 149.162505 
L 163.345851 150.545834 
L 163.627812 151.129972 
L 163.909772 151.286279 
L 164.191733 151.955877 
L 164.755654 154.960997 
L 165.037614 154.818487 
L 165.319575 154.07972 
L 165.601536 154.347381 
L 165.883496 156.402586 
L 166.447417 161.932493 
L 167.011339 159.056243 
L 167.293299 162.312822 
L 167.57526 167.937133 
L 167.85722 169.500829 
L 168.421142 165.61842 
L 168.703102 161.47622 
L 168.985063 150.396777 
L 169.548984 121.75152 
L 169.830944 114.288536 
L 170.112905 111.819739 
L 170.394866 111.725106 
L 170.676826 112.924063 
L 170.958787 117.216928 
L 171.240747 123.335343 
L 171.522708 124.656227 
L 171.804669 119.801765 
L 172.086629 117.300064 
L 172.36859 122.39132 
L 173.214471 145.904088 
L 173.496432 150.764493 
L 173.778393 149.212306 
L 174.060353 145.595797 
L 174.342314 145.150207 
L 174.624274 145.368039 
L 174.906235 143.718094 
L 175.188196 143.391624 
L 175.470156 144.980442 
L 175.752117 144.532811 
L 176.034077 143.200773 
L 176.316038 145.791837 
L 176.597999 150.274083 
L 176.879959 150.933059 
L 177.16192 148.798295 
L 177.44388 148.120286 
L 177.725841 148.328599 
L 178.007801 148.14528 
L 178.289762 150.118742 
L 178.571723 154.154826 
L 178.853683 155.702432 
L 179.135644 154.387537 
L 179.417604 154.390655 
L 179.699565 155.070117 
L 179.981526 152.53075 
L 180.263486 148.933295 
L 180.545447 149.032455 
L 180.827407 150.58262 
L 181.109368 149.131695 
L 181.391328 146.931164 
L 181.673289 147.691139 
L 181.95525 149.235218 
L 182.23721 148.809923 
L 182.519171 147.909042 
L 182.801131 147.534893 
L 183.083092 146.738672 
L 183.365053 147.250146 
L 183.928974 154.998244 
L 184.210934 155.106861 
L 184.492895 153.306548 
L 185.056816 152.648061 
L 185.902698 142.893319 
L 186.184658 143.726795 
L 186.466619 143.16669 
L 186.74858 141.369699 
L 187.03054 142.902116 
L 187.312501 147.839435 
L 187.594461 150.521135 
L 187.876422 149.987597 
L 188.158383 151.676648 
L 188.440343 156.260801 
L 188.722304 158.362063 
L 189.004264 157.557647 
L 189.286225 158.222037 
L 189.568185 159.999234 
L 189.850146 159.96186 
L 190.132107 160.202032 
L 190.414067 162.45468 
L 190.696028 162.455413 
L 191.259949 155.203471 
L 191.54191 156.823513 
L 192.105831 161.431863 
L 192.951713 168.368629 
L 193.515634 171.748369 
L 193.797594 169.083815 
L 194.079555 157.390869 
L 194.643476 126.382965 
L 194.925437 117.914521 
L 195.207397 113.875061 
L 195.489358 113.986747 
L 196.053279 121.602732 
L 196.33524 121.826892 
L 196.6172 119.002182 
L 197.181121 111.048322 
L 197.463082 112.672831 
L 198.308964 149.157183 
L 198.872885 153.851429 
L 199.154845 157.797106 
L 199.436806 158.60883 
L 199.718767 157.064733 
L 200.000727 157.444767 
L 200.846609 163.355959 
L 201.12857 164.787008 
L 201.41053 164.134979 
L 201.974451 157.530185 
L 202.256412 154.175031 
L 202.538372 152.529395 
L 202.820333 153.173144 
L 203.102294 154.510999 
L 203.384254 154.768642 
L 203.948175 153.270884 
L 204.230136 153.379038 
L 204.512097 155.397065 
L 204.794057 158.222594 
L 205.076018 159.291732 
L 205.357978 158.937199 
L 205.639939 159.499816 
L 205.921899 160.424088 
L 206.20386 159.001842 
L 206.485821 153.863638 
L 206.767781 143.810953 
L 207.613663 102.245826 
L 207.895624 100.522302 
L 208.459545 102.608735 
L 208.741505 105.012468 
L 209.305427 112.143671 
L 209.869348 114.188636 
L 210.151308 120.079261 
L 210.99719 153.227221 
L 211.279151 153.804742 
L 211.843072 152.566243 
L 212.406993 146.931861 
L 212.688954 148.104309 
L 212.970914 151.57829 
L 213.252875 151.916586 
L 213.534835 149.684047 
L 213.816796 149.861861 
L 214.380717 154.56755 
L 214.662678 155.988277 
L 214.944638 158.240424 
L 215.226599 159.027652 
L 215.508559 157.866182 
L 215.79052 159.194562 
L 216.354441 167.358009 
L 216.636402 167.428464 
L 216.918362 168.375094 
L 217.200323 171.024147 
L 217.764244 173.414134 
L 218.046205 175.968732 
L 218.328165 176.27638 
L 218.610126 169.473819 
L 219.174047 139.279509 
L 219.737968 99.255341 
L 220.019929 89.934489 
L 220.301889 91.118372 
L 220.865811 98.45808 
L 221.429732 103.325943 
L 221.711692 103.026816 
L 221.993653 102.938627 
L 222.275613 105.252233 
L 222.557574 110.463347 
L 222.839535 120.854393 
L 223.403456 150.794479 
L 223.685416 157.612231 
L 223.967377 158.622271 
L 224.249338 156.828418 
L 224.531298 153.266294 
L 224.813259 151.57508 
L 225.095219 154.922036 
L 225.37718 159.726268 
L 225.941101 164.432412 
L 226.505022 171.412771 
L 226.786983 171.665779 
L 227.350904 171.239071 
L 227.632865 170.660119 
L 227.914825 171.744123 
L 228.196786 173.899009 
L 228.478746 174.093791 
L 228.760707 173.617576 
L 229.324628 177.684602 
L 229.606589 177.765581 
L 229.888549 178.481371 
L 230.17051 179.572327 
L 230.45247 174.920215 
L 231.016392 149.331976 
L 232.144234 92.215454 
L 232.426195 92.604243 
L 232.990116 97.056384 
L 233.835998 104.77542 
L 234.399919 107.625095 
L 234.681879 115.334949 
L 235.2458 151.112387 
L 235.527761 160.179817 
L 236.091682 166.841501 
L 236.373643 168.156538 
L 236.655603 166.912702 
L 236.937564 167.627657 
L 237.219525 170.329501 
L 237.501485 170.86835 
L 237.783446 169.524224 
L 238.065406 169.300688 
L 238.347367 170.460676 
L 238.629327 172.728867 
L 238.911288 175.904359 
L 239.193249 176.983158 
L 239.75717 170.414786 
L 240.03913 171.431095 
L 240.321091 175.492122 
L 240.603052 177.669416 
L 240.885012 177.392974 
L 241.166973 179.147779 
L 241.730894 190.989151 
L 242.012855 192.855037 
L 242.294815 192.543081 
L 242.576776 190.132932 
L 242.858736 178.439091 
L 243.704618 107.143174 
L 244.268539 86.062131 
L 244.5505 81.808116 
L 244.83246 82.851519 
L 245.960303 94.439534 
L 246.242263 99.825309 
L 246.524224 110.208418 
L 247.370106 158.468539 
L 247.652066 166.245305 
L 247.934027 167.145013 
L 248.215987 162.757918 
L 248.779909 151.052749 
L 249.061869 150.105417 
L 249.34383 151.617068 
L 249.907751 153.470394 
L 250.189712 158.537376 
L 250.753633 173.153478 
L 251.035593 175.111895 
L 251.317554 174.903136 
L 251.599514 174.522342 
L 251.881475 174.94796 
L 252.163436 177.293795 
L 252.727357 182.723553 
L 253.009317 183.91371 
L 253.573239 188.52964 
L 253.855199 186.747805 
L 254.701081 174.602164 
L 254.983041 162.859174 
L 255.828923 101.533017 
L 256.392844 80.415512 
L 256.674805 74.969123 
L 257.238726 71.488234 
L 257.520687 67.164846 
L 257.802647 64.800917 
L 258.084608 67.22771 
L 258.366569 72.533756 
L 258.648529 81.441819 
L 258.93049 98.348201 
L 259.494411 145.007932 
L 259.776371 159.38038 
L 260.058332 164.424352 
L 260.622253 163.106756 
L 261.186174 166.164012 
L 261.468135 166.004054 
L 261.750096 166.318744 
L 262.314017 170.378724 
L 262.595977 173.257701 
L 263.441859 189.445298 
L 263.72382 188.718207 
L 264.00578 188.682081 
L 264.287741 189.784325 
L 264.569701 188.757403 
L 264.851662 185.981936 
L 265.133623 185.811251 
L 265.697544 191.276874 
L 265.979504 190.97196 
L 266.261465 191.79302 
L 266.543425 195.127362 
L 266.825386 195.64614 
L 267.107347 186.718406 
L 267.671268 141.077879 
L 268.235189 98.249317 
L 268.79911 73.038706 
L 269.081071 65.077138 
L 269.363031 60.576966 
L 269.644992 58.545986 
L 269.926953 59.19407 
L 270.490874 65.55442 
L 270.772834 73.376414 
L 271.054795 91.387156 
L 271.618716 141.959379 
L 271.900677 158.561456 
L 272.182637 166.689522 
L 272.464598 168.727285 
L 273.028519 168.678829 
L 273.59244 165.979387 
L 273.874401 168.358377 
L 274.156361 173.314325 
L 274.438322 175.904022 
L 274.720282 176.575617 
L 275.002243 177.893639 
L 275.284204 177.606542 
L 275.566164 174.717293 
L 275.848125 173.745593 
L 276.130085 175.843393 
L 276.412046 176.627442 
L 276.694007 175.704261 
L 276.975967 176.843793 
L 277.257928 179.034998 
L 277.539888 178.906353 
L 277.821849 178.212326 
L 278.38577 181.31191 
L 278.667731 181.208217 
L 278.949691 181.507725 
L 279.231652 181.300405 
L 279.513612 174.290898 
L 280.077534 133.904301 
L 280.641455 93.888569 
L 280.923415 85.982095 
L 281.487337 83.154472 
L 281.769297 79.872308 
L 282.051258 78.645533 
L 282.615179 82.293801 
L 282.897139 85.97759 
L 283.1791 97.404443 
L 284.024982 155.221534 
L 284.306942 163.211963 
L 284.588903 165.433903 
L 284.870864 165.507366 
L 285.152824 165.033431 
L 285.998706 162.220628 
L 286.280667 162.470832 
L 286.562627 163.920087 
L 287.126548 168.357866 
L 287.690469 171.293404 
L 287.97243 173.157962 
L 288.818312 175.369074 
L 289.100272 175.581004 
L 289.382233 175.3497 
L 289.664194 177.778515 
L 290.228115 185.744655 
L 290.510075 188.856267 
L 291.073996 196.673169 
L 291.355957 196.19039 
L 291.637918 194.851916 
L 291.919878 190.451217 
L 292.201839 174.57372 
L 293.047721 99.878003 
L 293.611642 67.831813 
L 293.893602 59.894141 
L 294.457524 55.176285 
L 294.739484 55.378879 
L 295.021445 60.449091 
L 295.303405 69.900873 
L 295.585366 84.044746 
L 296.713208 163.589597 
L 296.995169 168.782665 
L 297.277129 165.301839 
L 297.55909 159.428859 
L 297.841051 157.311887 
L 298.123011 156.710281 
L 298.404972 154.492423 
L 298.686932 155.80722 
L 299.250853 173.565165 
L 299.532814 175.965677 
L 299.814775 175.352457 
L 300.096735 177.232479 
L 300.378696 180.100124 
L 300.660656 181.129641 
L 300.942617 181.368152 
L 301.224578 182.309164 
L 301.788499 185.596644 
L 302.35242 189.461658 
L 303.198302 193.981368 
L 303.480262 195.05196 
L 303.762223 196.896219 
L 304.044183 197.032199 
L 304.326144 190.224189 
L 304.608105 174.562179 
L 306.017908 68.896193 
L 306.581829 54.614182 
L 306.863789 50.7895 
L 307.14575 50.400124 
L 307.709671 56.059864 
L 307.991632 60.015655 
L 308.273592 68.388936 
L 308.555553 85.708417 
L 309.401435 156.621508 
L 309.683395 166.978605 
L 309.965356 171.115615 
L 310.247316 172.003053 
L 310.811238 171.007101 
L 311.093198 171.168858 
L 311.657119 170.707607 
L 311.93908 172.619474 
L 312.503001 179.989612 
L 313.348883 183.070636 
L 313.630843 183.54306 
L 313.912804 184.548011 
L 314.476725 189.640293 
L 314.758686 190.73074 
L 315.040646 193.271882 
L 315.604567 200.395331 
L 315.886528 200.775815 
L 316.168489 201.64335 
L 316.450449 203.457906 
L 316.73241 202.363339 
L 317.01437 193.486522 
L 317.296331 174.1739 
L 318.142213 98.278813 
L 318.706134 63.178838 
L 318.988095 50.818938 
L 319.270055 45.865359 
L 319.552016 45.390851 
L 319.833976 45.38519 
L 320.115937 46.048294 
L 320.397897 49.037097 
L 320.679858 54.831954 
L 320.961819 65.597478 
L 321.52574 109.749534 
L 322.089661 151.67203 
L 322.653582 171.411007 
L 322.935543 174.590545 
L 323.217503 174.183811 
L 323.499464 173.395211 
L 323.781424 173.561719 
L 324.063385 172.683826 
L 324.345346 170.348163 
L 324.627306 169.852573 
L 325.191227 175.958221 
L 325.473188 177.349016 
L 325.755149 179.837816 
L 326.31907 189.975431 
L 326.60103 191.39697 
L 326.882991 191.573643 
L 327.164952 193.046103 
L 327.728873 196.661087 
L 329.138676 203.356939 
L 329.420636 201.106588 
L 329.702597 192.082303 
L 329.984557 174.816128 
L 331.1124 80.196382 
L 331.676321 51.639598 
L 331.958281 46.447071 
L 332.240242 46.866109 
L 332.522203 46.734232 
L 332.804163 45.63289 
L 333.086124 48.578411 
L 333.368084 58.163915 
L 333.932006 93.404143 
L 334.777887 154.222229 
L 335.059848 167.522403 
L 335.341809 172.040124 
L 335.90573 168.199537 
L 336.18769 169.130791 
L 336.469651 168.589602 
L 337.033572 161.323839 
L 337.315533 162.203824 
L 338.161414 174.1447 
L 339.007296 184.272852 
L 339.289257 184.857924 
L 339.571217 187.213331 
L 340.135138 196.948587 
L 340.417099 195.535659 
L 340.69906 192.450365 
L 340.98102 192.096719 
L 342.108863 198.763455 
L 342.390823 198.345307 
L 342.672784 192.922024 
L 342.954744 177.454336 
L 344.082587 79.292158 
L 344.646508 50.643218 
L 344.928468 47.27267 
L 345.210429 47.251702 
L 345.49239 48.939736 
L 346.056311 57.616554 
L 346.338271 64.112932 
L 346.620232 80.174506 
L 347.466114 145.55763 
L 348.030035 176.662787 
L 348.311995 178.645023 
L 348.593956 177.341834 
L 348.875917 178.617389 
L 349.157877 177.556081 
L 349.439838 172.713018 
L 349.721798 170.79644 
L 350.849641 181.342692 
L 351.131601 180.398412 
L 351.413562 177.863321 
L 351.695523 178.221363 
L 351.977483 180.51347 
L 352.541404 182.418948 
L 353.105325 186.518216 
L 353.387286 187.522405 
L 354.233168 194.714213 
L 354.515128 196.363008 
L 355.07905 202.403051 
L 355.36101 202.506739 
L 355.642971 196.577409 
L 355.924931 179.715719 
L 356.770813 105.93397 
L 357.616695 61.357066 
L 357.898655 56.340772 
L 358.180616 53.925949 
L 358.744537 44.279551 
L 359.026498 43.299575 
L 359.308458 48.397977 
L 359.590419 59.911061 
L 361.000222 143.283581 
L 361.564143 157.010984 
L 361.846104 158.445167 
L 362.128064 157.469143 
L 362.410025 157.430745 
L 363.255907 164.343579 
L 363.537867 167.747827 
L 364.383749 187.750239 
L 364.665709 189.059678 
L 364.94767 191.980626 
L 365.229631 196.256532 
L 365.511591 197.12639 
L 365.793552 194.448049 
L 366.075512 194.07696 
L 366.639434 201.61891 
L 366.921394 202.91595 
L 367.203355 206.49979 
L 367.767276 218.710143 
L 368.049237 219.291417 
L 368.331197 216.606694 
L 368.613158 207.222599 
L 369.177079 156.992237 
L 370.022961 83.031923 
L 370.304921 67.621374 
L 371.714724 33.156334 
L 371.996685 33.675602 
L 372.278645 35.80029 
L 372.560606 43.89107 
L 373.124527 83.62821 
L 373.688448 119.88337 
L 374.252369 141.564119 
L 374.816291 156.694527 
L 375.098251 162.016385 
L 375.380212 165.04018 
L 375.944133 168.398004 
L 377.071975 182.968844 
L 377.917857 197.537117 
L 378.481778 194.377829 
L 378.763739 196.301926 
L 379.32766 204.856075 
L 379.609621 206.308448 
L 379.891581 208.999106 
L 380.737463 225.869603 
L 381.019423 228.292783 
L 381.301384 226.063555 
L 381.583345 210.081098 
L 382.711187 93.770144 
L 383.275108 59.452852 
L 383.557069 54.579321 
L 383.839029 52.374389 
L 384.12099 49.090198 
L 384.966872 35.878551 
L 385.248832 34.410666 
L 385.530793 36.848493 
L 385.812753 47.37722 
L 387.504517 152.613091 
L 388.068438 163.933844 
L 388.350399 166.982423 
L 388.632359 167.317367 
L 388.91432 170.095235 
L 389.478241 182.088824 
L 389.760202 183.345796 
L 390.042162 185.94777 
L 390.324123 190.922398 
L 390.606083 192.57488 
L 390.888044 189.782536 
L 391.170005 188.915097 
L 392.015886 200.86151 
L 392.297847 203.762329 
L 393.143729 219.110102 
L 393.70765 221.64015 
L 394.271571 226.84482 
L 394.553532 218.937234 
L 395.117453 165.406163 
L 395.963335 82.360795 
L 396.245295 69.315763 
L 396.809216 61.533081 
L 397.937059 34.129881 
L 398.219019 28.196661 
L 398.50098 31.28082 
L 398.78294 44.867263 
L 400.192743 138.366532 
L 400.756665 154.171981 
L 401.038625 158.547186 
L 401.320586 160.713995 
L 401.602546 164.039194 
L 402.166467 174.449796 
L 402.448428 175.297912 
L 402.730389 177.212703 
L 403.29431 189.571087 
L 403.57627 191.25891 
L 403.858231 191.013187 
L 404.140192 192.736668 
L 404.986073 201.484953 
L 407.241758 223.291827 
L 407.523719 223.941736 
L 407.805679 214.225219 
L 408.3696 161.087178 
L 408.933522 107.802059 
L 409.497443 77.150757 
L 411.189206 34.652328 
L 411.471167 35.980036 
L 411.753127 45.965599 
L 412.317049 77.107031 
L 413.16293 133.904686 
L 413.726851 153.613795 
L 414.008812 158.850967 
L 414.290773 159.954107 
L 414.572733 159.184052 
L 414.854694 160.520207 
L 415.700576 172.889555 
L 415.982536 175.66087 
L 416.264497 179.974277 
L 416.828418 191.648023 
L 417.6743 200.615994 
L 418.238221 209.616267 
L 418.802142 214.261023 
L 419.929984 223.542756 
L 420.211945 227.205974 
L 420.493906 229.197548 
L 420.775866 221.583145 
L 421.057827 201.228978 
L 422.185669 87.37834 
L 422.74959 63.888244 
L 423.595472 31.658085 
L 424.159393 19.591315 
L 424.441354 20.133845 
L 424.723314 27.742987 
L 425.287236 59.023923 
L 426.978999 161.902406 
L 427.26096 163.802396 
L 427.54292 164.586176 
L 427.824881 166.938677 
L 428.106841 168.286597 
L 428.388802 167.511383 
L 428.670763 167.570528 
L 428.952723 170.526143 
L 430.080565 189.874211 
L 432.900171 247.818248 
L 433.182132 252.124151 
L 433.464093 254.016 
L 433.746053 245.501425 
L 434.028014 219.212099 
L 434.873895 111.46585 
L 435.437817 69.64052 
L 436.001738 41.787061 
L 436.84762 19.493839 
L 437.12958 16.870899 
L 437.411541 19.145897 
L 437.693501 26.164277 
L 438.257422 55.258501 
L 439.667225 139.075656 
L 440.231147 161.450749 
L 440.513107 167.851523 
L 441.64095 179.936488 
L 441.92291 179.63266 
L 442.204871 180.994185 
L 443.332713 195.160263 
L 443.614674 200.776935 
L 444.460555 223.688698 
L 445.870358 245.645712 
L 446.152319 251.392775 
L 446.434279 249.757759 
L 446.71624 236.188114 
L 447.280161 177.589905 
L 447.844082 109.989747 
L 448.689964 43.968823 
L 448.971925 30.290845 
L 449.535846 16.631363 
L 449.817806 12.096 
L 450.099767 13.48676 
L 450.381728 20.247102 
L 450.663688 30.86564 
L 451.227609 65.873821 
L 451.791531 99.614731 
L 453.201334 156.89599 
L 453.765255 171.107657 
L 454.611136 181.906513 
L 455.175058 187.404805 
L 455.457018 190.986894 
L 455.738979 192.250013 
L 456.020939 191.087812 
L 456.3029 192.061291 
L 457.148782 205.600914 
L 457.994663 227.315576 
L 459.122506 243.207838 
L 459.404466 242.516588 
L 459.686427 233.541265 
L 459.968388 211.574743 
L 461.09623 85.87113 
L 461.660151 45.088584 
L 461.942112 32.498814 
L 462.224072 26.340322 
L 462.787993 21.713629 
L 463.069954 21.057632 
L 463.351915 25.78766 
L 463.915836 53.306899 
L 465.043678 111.023571 
L 466.453481 162.37333 
L 466.735442 165.472322 
L 467.017402 170.74936 
L 467.299363 178.590876 
L 467.581323 182.527273 
L 467.863284 182.811265 
L 468.145245 186.463141 
L 468.709166 200.618457 
L 469.273087 205.1746 
L 469.837008 214.98889 
L 470.118969 216.202777 
L 470.400929 216.052478 
L 470.68289 218.900142 
L 471.246811 228.997076 
L 471.528772 231.546857 
L 472.374653 242.071164 
L 472.656614 233.803244 
L 472.938575 212.745219 
L 474.066417 86.998793 
L 474.630338 50.977754 
L 475.194259 32.654029 
L 475.47622 29.164888 
L 475.75818 29.695202 
L 476.040141 32.971774 
L 476.322102 38.139217 
L 476.604062 47.419507 
L 477.731905 100.538037 
L 478.295826 123.690672 
L 479.987589 168.642991 
L 480.55151 178.429329 
L 482.243274 199.852484 
L 482.525234 202.354765 
L 483.089156 210.78971 
L 483.653077 220.24859 
L 484.216998 231.744133 
L 484.498959 232.736856 
L 484.780919 232.883058 
L 485.34484 238.295022 
L 485.626801 230.028088 
L 486.190722 177.245255 
L 487.036604 88.868668 
L 487.318564 69.019664 
L 488.164446 39.289496 
L 488.446407 32.047904 
L 488.728367 31.314322 
L 489.292289 35.744969 
L 489.574249 42.992766 
L 490.984052 103.229104 
L 491.547973 119.855445 
L 492.111894 142.420872 
L 492.957776 158.072591 
L 493.239737 163.247476 
L 493.803658 168.507085 
L 494.085619 173.492702 
L 495.213461 201.101405 
L 496.059343 219.609587 
L 496.623264 226.955961 
L 497.187185 232.33777 
L 498.033067 249.09373 
L 498.315027 247.630483 
L 498.596988 233.313888 
L 499.160909 160.292208 
L 499.72483 99.056006 
L 500.288751 62.759973 
L 500.570712 52.196702 
L 501.134633 42.742861 
L 501.416594 39.53704 
L 501.698554 38.335844 
L 501.980515 39.207336 
L 502.262476 43.755032 
L 502.544436 55.140557 
L 503.108357 86.885577 
L 503.954239 117.661696 
L 504.2362 123.780431 
L 504.800121 127.961164 
L 506.209924 148.556342 
L 507.337766 180.881726 
L 507.901687 199.606661 
L 509.593451 240.541285 
L 509.875411 242.505052 
L 510.157372 242.755232 
L 510.439333 245.40923 
L 510.721293 249.126155 
L 511.003254 250.586277 
L 511.285214 246.548367 
L 511.567175 229.788947 
L 512.976978 73.825054 
L 513.258938 59.460263 
L 513.540899 52.382126 
L 514.10482 46.996296 
L 514.386781 45.795864 
L 514.668741 45.60521 
L 514.950702 48.20044 
L 515.232662 56.353988 
L 516.642465 115.376876 
L 516.924426 120.783241 
L 517.206387 120.593233 
L 517.488347 121.152077 
L 518.052268 130.659282 
L 518.334229 132.390064 
L 518.61619 136.251902 
L 519.180111 151.791977 
L 519.462071 155.370908 
L 519.744032 161.084095 
L 520.025992 169.66693 
L 520.307953 174.794825 
L 520.589914 175.982767 
L 520.871874 179.371431 
L 521.435795 196.184656 
L 522.281677 222.62768 
L 523.127559 236.5985 
L 523.409519 238.916012 
L 523.69148 239.317303 
L 524.255401 242.388695 
L 524.537362 231.989199 
L 525.101283 159.148235 
L 525.665204 99.264868 
L 526.229125 62.418694 
L 526.511086 52.26289 
L 527.075007 45.405188 
L 527.356968 43.668196 
L 527.638928 46.677138 
L 528.202849 59.978689 
L 528.766771 85.110807 
L 529.330692 109.296379 
L 529.894613 122.996713 
L 530.740495 137.545352 
L 531.304416 142.854002 
L 531.868337 151.352666 
L 532.150298 151.855515 
L 532.432258 154.036333 
L 532.996179 165.056771 
L 533.27814 168.304408 
L 533.560101 173.572668 
L 534.405982 198.854007 
L 534.969904 215.646799 
L 536.097746 238.064545 
L 536.661667 241.05499 
L 536.943628 239.988591 
L 537.225588 234.202125 
L 537.507549 219.084347 
L 538.07147 152.271675 
L 538.635391 98.349908 
L 539.199312 70.525407 
L 539.481273 62.815682 
L 540.045194 56.732753 
L 540.327155 55.777441 
L 540.609115 58.917497 
L 541.173036 74.570796 
L 542.018918 108.703133 
L 542.582839 116.452108 
L 543.146761 128.872354 
L 543.710682 133.892374 
L 544.556563 149.607527 
L 544.838524 150.986981 
L 545.120485 154.292442 
L 545.402445 159.207641 
L 545.966366 164.3557 
L 546.530288 180.186539 
L 546.812248 182.480388 
L 547.094209 181.183022 
L 547.376169 185.658598 
L 548.222051 215.125572 
L 549.067933 240.798579 
L 549.349893 242.357064 
L 549.631854 241.709152 
L 549.913815 240.67224 
L 550.195775 230.307113 
L 550.477736 200.923266 
L 551.041657 124.191174 
L 551.605578 84.796762 
L 552.169499 60.880029 
L 552.45146 55.27059 
L 552.73342 52.786503 
L 553.015381 52.865631 
L 553.297342 54.106332 
L 553.579302 56.771491 
L 553.861263 64.624134 
L 554.707145 101.944037 
L 555.271066 118.668579 
L 556.398908 134.795768 
L 556.680869 134.220382 
L 556.962829 131.521687 
L 557.24479 132.621257 
L 557.808711 141.434047 
L 558.090672 144.635367 
L 558.372632 151.551109 
L 558.936553 170.503881 
L 559.500475 180.606513 
L 560.064396 192.11094 
L 560.346356 193.983935 
L 560.628317 198.571048 
L 561.192238 210.884662 
L 561.474199 214.80685 
L 562.32008 234.221026 
L 562.602041 237.1588 
L 562.884002 232.346009 
L 563.165962 210.487055 
L 563.729883 144.231082 
L 564.293804 112.143663 
L 564.857726 85.855379 
L 565.985568 69.864988 
L 566.267529 70.913646 
L 566.549489 73.012745 
L 566.83145 76.832572 
L 567.11341 85.768216 
L 567.959292 120.440892 
L 568.523213 128.348937 
L 569.087134 135.309604 
L 569.369095 135.083974 
L 569.651056 133.316058 
L 569.933016 133.597268 
L 570.778898 141.208116 
L 571.060859 145.773266 
L 572.188701 171.518562 
L 572.752622 178.893928 
L 573.316543 184.432403 
L 574.726346 214.921577 
L 575.290267 230.423535 
L 575.572228 230.545807 
L 575.854189 220.405318 
L 576.41811 162.672241 
L 576.982031 115.207803 
L 577.545952 92.705738 
L 578.109873 78.825159 
L 578.391834 76.128537 
L 579.237716 79.776726 
L 579.519676 83.469165 
L 580.929479 121.819302 
L 581.21144 124.07314 
L 581.4934 124.842186 
L 581.775361 130.255021 
L 582.057321 137.965301 
L 582.339282 141.761615 
L 582.621243 142.875787 
L 583.467124 152.577058 
L 583.749085 152.239254 
L 584.031046 154.293222 
L 584.594967 163.210262 
L 585.440848 171.553904 
L 586.28673 184.169948 
L 586.850651 195.643237 
L 587.132612 198.233887 
L 587.414573 198.177521 
L 587.696533 198.316149 
L 587.978494 201.752866 
L 588.260454 208.537381 
L 588.542415 212.375966 
L 588.824375 203.837416 
L 589.952218 116.019215 
L 590.516139 94.147521 
L 591.08006 85.408546 
L 591.362021 83.702103 
L 591.643981 85.106125 
L 591.925942 87.818086 
L 592.207903 89.142427 
L 592.489863 92.654635 
L 593.335745 123.845749 
L 593.617705 127.662953 
L 594.181627 139.126625 
L 594.463587 139.338604 
L 594.745548 137.20517 
L 595.027508 138.112805 
L 595.309469 139.902088 
L 595.87339 136.824196 
L 596.155351 139.99555 
L 597.001232 161.557175 
L 597.565154 173.126139 
L 597.847114 176.10165 
L 598.411035 174.177052 
L 598.974957 179.582967 
L 599.538878 185.883351 
L 600.102799 192.542587 
L 600.66672 199.738914 
L 601.512602 211.799927 
L 601.794562 201.803874 
L 602.640444 127.291666 
L 603.204365 101.783262 
L 603.486326 96.251593 
L 603.768287 95.779963 
L 604.050247 94.623741 
L 604.332208 91.50481 
L 604.614168 90.312754 
L 604.896129 92.287426 
L 605.178089 95.509655 
L 605.46005 100.132456 
L 606.023971 119.097675 
L 606.305932 128.491241 
L 606.587892 133.193172 
L 606.869853 135.231508 
L 607.715735 145.277489 
L 607.997695 145.988482 
L 608.561617 148.610757 
L 609.125538 143.772529 
L 609.407498 145.489075 
L 609.971419 153.633721 
L 610.25338 156.700747 
L 610.817301 166.178812 
L 611.381222 169.890436 
L 611.663183 172.378268 
L 611.945144 172.280471 
L 612.227104 173.300735 
L 612.791025 186.49503 
L 613.354946 188.883767 
L 614.200828 203.882999 
L 614.482789 201.227411 
L 614.764749 187.807701 
L 615.610631 125.266118 
L 616.174552 103.29343 
L 616.738474 94.026422 
L 617.020434 89.634789 
L 617.302395 87.610218 
L 617.584355 88.445975 
L 617.866316 87.724487 
L 618.148276 86.134349 
L 618.430237 90.335466 
L 618.994158 111.073595 
L 619.558079 123.293734 
L 620.122001 140.466656 
L 620.403961 142.503907 
L 620.685922 142.303459 
L 621.249843 148.31572 
L 621.531803 146.983526 
L 621.813764 143.789685 
L 622.095725 143.875533 
L 622.941606 151.438021 
L 623.223567 154.858876 
L 623.787488 156.722473 
L 624.351409 164.931665 
L 624.63337 165.351741 
L 624.915331 170.432926 
L 625.479252 190.591848 
L 625.761212 191.24525 
L 626.043173 192.799529 
L 626.607094 201.90876 
L 626.889055 201.398279 
L 627.171015 198.711637 
L 627.452976 189.679329 
L 628.298858 133.620811 
L 628.862779 118.558161 
L 629.70866 105.261053 
L 629.990621 104.952698 
L 630.272582 105.924358 
L 630.554542 103.764928 
L 630.836503 100.439767 
L 631.118463 101.213037 
L 631.964345 118.126902 
L 632.528266 134.892026 
L 632.810227 143.313215 
L 633.092188 147.979448 
L 633.092188 147.979448 
" clip-path="url(#p75f1a2c2ac)" style="fill: none; stroke: #1f77b4; stroke-width: 1.5; stroke-linecap: square"/>
   </g>
   <g id="patch_3">
    <path d="M 47.192188 266.112 
L 47.192188 0 
" style="fill: none; stroke: #000000; stroke-width: 0.8; stroke-linejoin: miter; stroke-linecap: square"/>
   </g>
   <g id="patch_4">
    <path d="M 660.992188 266.112 
L 660.992188 0 
" style="fill: none; stroke: #000000; stroke-width: 0.8; stroke-linejoin: miter; stroke-linecap: square"/>
   </g>
   <g id="patch_5">
    <path d="M 47.192188 266.112 
L 660.992188 266.112 
" style="fill: none; stroke: #000000; stroke-width: 0.8; stroke-linejoin: miter; stroke-linecap: square"/>
   </g>
   <g id="patch_6">
    <path d="M 47.192188 0 
L 660.992188 0 
" style="fill: none; stroke: #000000; stroke-width: 0.8; stroke-linejoin: miter; stroke-linecap: square"/>
   </g>
  </g>
 </g>
 <defs>
  <clipPath id="p75f1a2c2ac">
   <rect x="47.192188" y="0" width="613.8" height="266.112"/>
  </clipPath>
 </defs>
</svg>
