<svg xmlns="http://www.w3.org/2000/svg" xmlns:xlink="http://www.w3.org/1999/xlink" width="913.477" height="377.053" viewBox="0 0 685.107 282.79"><defs><style>*{stroke-linejoin:round;stroke-linecap:butt}</style></defs><g id="figure_1"><path id="patch_1" d="M0 282.79h685.107V0H0v282.79z" style="fill:none"/><g id="axes_1"><path id="patch_2" d="M71.308 266.112h613.8V0h-613.8v266.112z" style="fill:none"/><g id="matplotlib.axis_1"><g id="xtick_1"><g id="line2d_1"><defs><path id="m7ecc94a1dc" d="M0 0v3.5" style="stroke:gray;stroke-width:.8"/></defs><use xlink:href="#m7ecc94a1dc" x="99.207" y="266.112" style="fill:gray;stroke:gray;stroke-width:.8"/></g><g id="text_1" style="fill:gray" transform="matrix(.1 0 0 -.1 96.026 280.71)"><defs><path id="DejaVuSans-30" d="M2034 4250q-487 0-733-480-245-479-245-1442 0-959 245-1439 246-480 733-480 491 0 736 480 246 480 246 1439 0 963-246 1442-245 480-736 480zm0 500q785 0 1199-621 414-620 414-1801 0-1178-414-1799Q2819-91 2034-91q-784 0-1198 620-414 621-414 1799 0 1181 414 1801 414 621 1198 621z" transform="scale(.01563)"/></defs><use xlink:href="#DejaVuSans-30"/></g></g><g id="xtick_2"><use xlink:href="#m7ecc94a1dc" id="line2d_2" x="168.958" y="266.112" style="fill:gray;stroke:gray;stroke-width:.8"/><g id="text_2" style="fill:gray" transform="matrix(.1 0 0 -.1 159.414 280.71)"><defs><path id="DejaVuSans-35" d="M691 4666h2478v-532H1269V2991q137 47 274 70 138 23 276 23 781 0 1237-428 457-428 457-1159 0-753-469-1171Q2575-91 1722-91q-294 0-599 50Q819 9 494 109v635q281-153 581-228t634-75q541 0 856 284 316 284 316 772 0 487-316 771-315 285-856 285-253 0-505-56-251-56-513-175v2344z" transform="scale(.01563)"/></defs><use xlink:href="#DejaVuSans-35"/><use xlink:href="#DejaVuSans-30" x="63.623"/><use xlink:href="#DejaVuSans-30" x="127.246"/></g></g><g id="xtick_3"><use xlink:href="#m7ecc94a1dc" id="line2d_3" x="238.708" y="266.112" style="fill:gray;stroke:gray;stroke-width:.8"/><g id="text_3" style="fill:gray" transform="matrix(.1 0 0 -.1 225.982 280.71)"><defs><path id="DejaVuSans-31" d="M794 531h1031v3560L703 3866v575l1116 225h631V531h1031V0H794v531z" transform="scale(.01563)"/></defs><use xlink:href="#DejaVuSans-31"/><use xlink:href="#DejaVuSans-30" x="63.623"/><use xlink:href="#DejaVuSans-30" x="127.246"/><use xlink:href="#DejaVuSans-30" x="190.869"/></g></g><g id="xtick_4"><use xlink:href="#m7ecc94a1dc" id="line2d_4" x="308.457" y="266.112" style="fill:gray;stroke:gray;stroke-width:.8"/><g id="text_4" style="fill:gray" transform="matrix(.1 0 0 -.1 295.733 280.71)"><use xlink:href="#DejaVuSans-31"/><use xlink:href="#DejaVuSans-35" x="63.623"/><use xlink:href="#DejaVuSans-30" x="127.246"/><use xlink:href="#DejaVuSans-30" x="190.869"/></g></g><g id="xtick_5"><use xlink:href="#m7ecc94a1dc" id="line2d_5" x="378.207" y="266.112" style="fill:gray;stroke:gray;stroke-width:.8"/><g id="text_5" style="fill:gray" transform="matrix(.1 0 0 -.1 365.483 280.71)"><defs><path id="DejaVuSans-32" d="M1228 531h2203V0H469v531q359 372 979 998 621 627 780 809 303 340 423 576 121 236 121 464 0 372-261 606-261 235-680 235-297 0-627-103-329-103-704-313v638q381 153 712 231 332 78 607 78 725 0 1156-363 431-362 431-968 0-288-108-546-107-257-392-607-78-91-497-524-418-433-1181-1211z" transform="scale(.01563)"/></defs><use xlink:href="#DejaVuSans-32"/><use xlink:href="#DejaVuSans-30" x="63.623"/><use xlink:href="#DejaVuSans-30" x="127.246"/><use xlink:href="#DejaVuSans-30" x="190.869"/></g></g><g id="xtick_6"><use xlink:href="#m7ecc94a1dc" id="line2d_6" x="447.957" y="266.112" style="fill:gray;stroke:gray;stroke-width:.8"/><g id="text_6" style="fill:gray" transform="matrix(.1 0 0 -.1 435.233 280.71)"><use xlink:href="#DejaVuSans-32"/><use xlink:href="#DejaVuSans-35" x="63.623"/><use xlink:href="#DejaVuSans-30" x="127.246"/><use xlink:href="#DejaVuSans-30" x="190.869"/></g></g><g id="xtick_7"><use xlink:href="#m7ecc94a1dc" id="line2d_7" x="517.707" y="266.112" style="fill:gray;stroke:gray;stroke-width:.8"/><g id="text_7" style="fill:gray" transform="matrix(.1 0 0 -.1 504.983 280.71)"><defs><path id="DejaVuSans-33" d="M2597 2516q453-97 707-404 255-306 255-756 0-690-475-1069Q2609-91 1734-91q-293 0-604 58T488 141v609q262-153 574-231 313-78 654-78 593 0 904 234t311 681q0 413-289 645-289 233-804 233h-544v519h569q465 0 712 186t247 536q0 359-255 551-254 193-729 193-260 0-557-57-297-56-653-174v562q360 100 674 150t592 50q719 0 1137-327 419-326 419-882 0-388-222-655t-631-370z" transform="scale(.01563)"/></defs><use xlink:href="#DejaVuSans-33"/><use xlink:href="#DejaVuSans-30" x="63.623"/><use xlink:href="#DejaVuSans-30" x="127.246"/><use xlink:href="#DejaVuSans-30" x="190.869"/></g></g><g id="xtick_8"><use xlink:href="#m7ecc94a1dc" id="line2d_8" x="587.457" y="266.112" style="fill:gray;stroke:gray;stroke-width:.8"/><g id="text_8" style="fill:gray" transform="matrix(.1 0 0 -.1 574.732 280.71)"><use xlink:href="#DejaVuSans-33"/><use xlink:href="#DejaVuSans-35" x="63.623"/><use xlink:href="#DejaVuSans-30" x="127.246"/><use xlink:href="#DejaVuSans-30" x="190.869"/></g></g><g id="xtick_9"><use xlink:href="#m7ecc94a1dc" id="line2d_9" x="657.207" y="266.112" style="fill:gray;stroke:gray;stroke-width:.8"/><g id="text_9" style="fill:gray" transform="matrix(.1 0 0 -.1 644.482 280.71)"><defs><path id="DejaVuSans-34" d="M2419 4116 825 1625h1594v2491zm-166 550h794V1625h666v-525h-666V0h-628v1100H313v609l1940 2957z" transform="scale(.01563)"/></defs><use xlink:href="#DejaVuSans-34"/><use xlink:href="#DejaVuSans-30" x="63.623"/><use xlink:href="#DejaVuSans-30" x="127.246"/><use xlink:href="#DejaVuSans-30" x="190.869"/></g></g></g><g id="matplotlib.axis_2"><g id="ytick_1"><g id="line2d_10"><defs><path id="mb019d77aec" d="M0 0h-3.5" style="stroke:gray;stroke-width:.8"/></defs><use xlink:href="#mb019d77aec" x="71.308" y="208.611" style="fill:gray;stroke:gray;stroke-width:.8"/></g><g id="text_10" style="fill:gray" transform="matrix(.16 0 0 -.16 0 214.69)"><defs><path id="DejaVuSans-2212" d="M678 2272h4006v-531H678v531z" transform="scale(.01563)"/></defs><use xlink:href="#DejaVuSans-2212"/><use xlink:href="#DejaVuSans-31" x="83.789"/><use xlink:href="#DejaVuSans-30" x="147.412"/><use xlink:href="#DejaVuSans-30" x="211.035"/><use xlink:href="#DejaVuSans-30" x="274.658"/><use xlink:href="#DejaVuSans-30" x="338.281"/></g></g><g id="ytick_2"><use xlink:href="#mb019d77aec" id="line2d_11" x="71.308" y="146.037" style="fill:gray;stroke:gray;stroke-width:.8"/><use xlink:href="#DejaVuSans-30" id="text_11" style="fill:gray" transform="matrix(.16 0 0 -.16 54.127 152.116)"/></g><g id="ytick_3"><use xlink:href="#mb019d77aec" id="line2d_12" x="71.308" y="83.464" style="fill:gray;stroke:gray;stroke-width:.8"/><g id="text_12" style="fill:gray" transform="matrix(.16 0 0 -.16 13.408 89.543)"><use xlink:href="#DejaVuSans-31"/><use xlink:href="#DejaVuSans-30" x="63.623"/><use xlink:href="#DejaVuSans-30" x="127.246"/><use xlink:href="#DejaVuSans-30" x="190.869"/><use xlink:href="#DejaVuSans-30" x="254.492"/></g></g><g id="ytick_4"><use xlink:href="#mb019d77aec" id="line2d_13" x="71.308" y="20.891" style="fill:gray;stroke:gray;stroke-width:.8"/><g id="text_13" style="fill:gray" transform="matrix(.16 0 0 -.16 13.408 26.97)"><use xlink:href="#DejaVuSans-32"/><use xlink:href="#DejaVuSans-30" x="63.623"/><use xlink:href="#DejaVuSans-30" x="127.246"/><use xlink:href="#DejaVuSans-30" x="190.869"/><use xlink:href="#DejaVuSans-30" x="254.492"/></g></g></g><path id="line2d_14" d="m99.207 146.058.846-.04.846.038.846-.037.846.037.846-.038.846.039.846-.04.846.041.845-.043.846.047.846-.053.282.058.282-.06.282.063.282-.068.282.073.282-.079.282.086.282-.094.282.105.282-.12.282.14.282-.166.282.196.282-.124.282 8.55.564 2.925.281 2.406.564-1.441.282.92.282.263.282-4.196 1.128-26.381.282-1.959.282.213.564.779.282.065.564-3.396.282.11.282 1.98.282 4.698.564 18.345.282 3.05.282-2.146.282-1.005.282.844.281-.51.282-1.11.282 1.222.282 2.25.282.46.282-1.047.282-.482.282.794.564 3.267.282.304.282-.352.282.22.282-.566.564-5.985.282.157.282 1.561.282.366.282 1.29.564 7.16.282.01.282.635.282 2.602.281-1.035.564-18.49.564-15.525.282-4.757.282-1.554.564 1.477.282-.591.564-2.972.282-2.015.282-.446.282 4.303.564 19.209.282 5.218.282.527.564-2.72.282-.617.282 1.07.282 1.807.563 1.79.564 4.314.282.452.282-.243.564 1.675.282-.156.564-1.342.564-.365.282.217.282.8.564 2.75.282.365.564-2.965.282 1.028.282 1.524.282-1.773.282-5.51.564-17.638.563-15.813.282-1.304.846 3.34.282-.345.282-1.077.282-.062.282 2.878.282 7.083.564 18.394.282 4.328.282 1.53.282.307.282-.94.282-1.415.282-.426.564 1.756.282-.22.846-7.782 1.127 2.915.282-.34.282-.638.282.54.282-.006.282-1.361.282.94.564 7.526.282-.948.282-2.297.282-1.276.564-1.324.282-.909.282-.306.282 1.949.282 3.1.282.618.564-3.787.564-.718.281.528.282 1.17.282-.945.564-6.36.282.157.282.794.282-.62.282-.002.282 3.61.282 5.265.282 1.92.282-1.6.282-.514.282 1.44.282.33.282-.415.564 3.445.282.193.282-.31.282-.14.282-2.122.282-3.523.282-1.184.563 3.69.282.13.846-3.329.282-.085.282 1.187.564 4.756.282 1.09.282-1.04.282-4.239.564-19.984.282-10.638.282-6.164.282.912.846 21.836.564-4.227.282 1.292.564 4.075.281 4.988.282 7.367.282 3.23.282-4.471.282-6.81.282-2.712.282.171.282-.713.282.465.846 13.69.282-.449.282.836.282 1.786.282.278.282-.615.282.265.564 1.398.282.498.282-.006.282-.908.282-.088.282 2.595.282 3.837.281 2.034.564-.318.564 3.094.282.265.282-2.224.282-5.246.564-22.496.282-10.828.282-3.907.564 2.057.564 2.792.282.123.282-.837.282.798.282 2.168.282 3.246.282 7.176.282 10.05.282 5.698.282-1.024.281-1.455.282 1.577.282.111.564-8.382.282-.162.564 5.23.282 1.384.282.584.282.156.282.67.564 3.005.282-.143.282-.738.282.267.282 2.056.564 5.53.564-2.877.282 3.257.282 5.624.282 1.564.563-3.883.282-4.142.282-11.08.564-28.644.282-7.463.282-2.47.282-.094.282 1.2.282 4.292.282 6.118.282 1.321.282-4.854.282-2.502.282 5.091.846 23.513.282 4.86.282-1.552.282-3.616.282-.446.282.218.282-1.65.282-.326.281 1.588.282-.447.282-1.332.282 2.59.282 4.483.282.66.282-2.136.282-.678.282.209.282-.184.282 1.974.282 4.036.282 1.547.282-1.314.282.003.282.68.282-2.54.282-3.598.282.1.282 1.55.282-1.451.282-2.2.282.76.282 1.543.282-.425.281-.901.282-.374.282-.796.282.511.564 7.748.282.109.282-1.8.564-.659.846-9.755.282.834.282-.56.282-1.797.282 1.532.282 4.937.282 2.682.282-.533.282 1.689.282 4.584.282 2.101.282-.804.282.664.281 1.777.282-.037.282.24.282 2.253h.282l.564-7.252.282 1.62.564 4.609.846 6.937.564 3.38.282-2.665.282-11.693.564-31.008.282-8.468.282-4.04.282.112.564 7.616.282.224.282-2.825.563-7.954.282 1.625.846 36.484.564 4.694.282 3.946.282.812.282-1.544.282.38.846 5.911.282 1.431.282-.652.564-6.605.282-3.355.282-1.646.282.644.282 1.338.282.258.563-1.498.282.108.282 2.018.282 2.826.282 1.069.282-.355.282.563.282.924.282-1.422.282-5.138.282-10.053.846-41.565.282-1.724.564 2.087.282 2.403.564 7.132.564 2.045.282 5.89.846 33.148.281.578.564-1.239.564-5.634.282 1.172.282 3.474.282.339.282-2.233.282.178.564 4.706.282 1.42.282 2.252.282.788.282-1.162.282 1.329.564 8.163.282.07.282.947.282 2.65.564 2.39.282 2.554.281.307.282-6.802.564-30.194.564-40.025.282-9.32.282 1.183.564 7.34.564 4.868.282-.3.282-.087.282 2.313.282 5.211.282 10.391.564 29.94.282 6.818.282 1.01.282-1.794.282-3.562.282-1.69.282 3.346.281 4.804.564 4.706.564 6.98.282.254.564-.427.282-.579.282 1.084.282 2.155.282.195.282-.476.564 4.067.282.08.282.716.282 1.091.282-4.652.564-25.588 1.128-57.117.282.39.563 4.451.846 7.72.564 2.85.282 7.709.564 35.777.282 9.068.564 6.662.282 1.315.282-1.244.282.715.282 2.702.282.538.282-1.344.282-.223.282 1.16.282 2.268.282 3.175.282 1.08.563-6.57.282 1.017.282 4.061.282 2.177.282-.276.282 1.755.564 11.841.282 1.866.282-.312.282-2.41.282-11.694.846-71.296.564-21.08.282-4.255.282 1.044 1.128 11.588.282 5.385.282 10.383.845 48.26.282 7.777.282.9.282-4.387.564-11.705.282-.948.282 1.512.564 1.853.282 5.067.564 14.616.282 1.959.282-.209.282-.38.282.425.282 2.346.564 5.43.282 1.19.564 4.616.282-1.782.845-12.146.282-11.743.846-61.326.564-21.117.282-5.447.564-3.48.282-4.324.282-2.364.282 2.427.282 5.306.282 8.908.282 16.906.564 46.66.282 14.372.282 5.044.564-1.317.563 3.057.282-.16.282.315.564 4.06.282 2.879.846 16.187.282-.727.282-.036.282 1.102.282-1.027.282-2.775.282-.17.564 5.465.282-.305.282.821.282 3.334.282.52.282-8.929.564-45.64.564-42.829.563-25.21.282-7.962.282-4.5.282-2.031.282.648.564 6.36.282 7.822.282 18.011.564 50.572.282 16.602.282 8.129.282 2.037.564-.048.564-2.7.282 2.38.282 4.955.282 2.59.282.672.282 1.318.282-.287.281-2.89.282-.971.282 2.097.282.784.282-.923.282 1.14.282 2.191.282-.129.282-.694.564 3.1.282-.104.282.3.282-.208.282-7.01.564-40.386.564-40.015.282-7.907.564-2.828.282-3.282.282-1.226.563 3.648.282 3.684.282 11.426.846 57.818.282 7.99.282 2.222.282.073.282-.474.846-2.812.282.25.282 1.45.564 4.437.564 2.935.282 1.865.846 2.211.282.212.282-.231.282 2.429.563 7.966.282 3.111.564 7.817.282-.483.282-1.338.282-4.4.282-15.878.846-74.696.564-32.046.282-7.938.564-4.718.282.203.282 5.07.282 9.452.282 14.144 1.128 79.545.281 5.193.282-3.481.282-5.873.282-2.117.282-.602.282-2.218.282 1.315.564 17.758.282 2.4.282-.613.282 1.88.282 2.868.282 1.03.282.238.282.941.564 3.288.564 3.865.846 4.52.282 1.07.282 1.844.281.136.282-6.808.282-15.662 1.41-105.666.564-14.282.282-3.825.282-.389.564 5.66.282 3.956.282 8.373.282 17.32.846 70.913.282 10.357.282 4.137.282.887.564-.996.282.162.563-.461.282 1.911.564 7.37.846 3.082.282.472.282 1.005.564 5.092.282 1.09.282 2.542.564 7.123.282.38.282.868.282 1.815.282-1.095.282-8.876.282-19.313.846-75.895.563-35.1.282-12.36.282-4.954.282-.474.282-.006.282.663.282 2.99.282 5.794.282 10.765.564 44.153.564 41.922.564 19.739.282 3.18.282-.407.282-.789.282.167.282-.878.282-2.336.282-.495.564 6.105.282 1.391.281 2.489.564 10.137.282 1.422.282.177.282 1.472.564 3.615 1.41 6.696.282-2.25.282-9.025.282-17.266 1.128-94.62.564-28.556.282-5.193.282.42.282-.133.281-1.101.282 2.945.282 9.586.564 35.24.846 60.818.282 13.3.282 4.518.564-3.84.282.93.282-.54.564-7.266.282.88.846 11.94.846 10.129.282.585.282 2.355.563 9.736.282-1.413.282-3.086.282-.353 1.128 6.666.282-.418.282-5.423.282-15.468 1.128-98.162.564-28.649.282-3.37.282-.021.282 1.688.564 8.677.282 6.496.282 16.062.845 65.383.564 31.105.282 1.982.282-1.303.282 1.275.282-1.06.282-4.844.282-1.917 1.128 10.547.282-.945.282-2.535.282.358.282 2.292.564 1.906.564 4.1.282 1.003.845 7.192.282 1.649.564 6.04.282.104.282-5.93.282-16.861.846-73.782.846-44.577.282-5.016.282-2.415.564-9.646.282-.98.282 5.098.282 11.513 1.41 83.373.563 13.727.282 1.434.282-.976.282-.038.846 6.913.282 3.404.846 20.002.282 1.31.282 2.92.282 4.277.282.87.282-2.679.282-.371.564 7.542.282 1.297.282 3.584.564 12.21.282.581.282-2.684.281-9.384.564-50.23.846-73.961.282-15.41 1.41-34.466.282.52.282 2.124.282 8.091.564 39.737.564 36.255.564 21.681.564 15.13.282 5.322.282 3.024.563 3.358 1.128 14.57.846 14.57.564-3.16.282 1.924.564 8.554.282 1.452.282 2.691.846 16.87.282 2.424.282-2.23.282-15.982 1.127-116.31.564-34.318.282-4.874.282-2.205.282-3.284.846-13.211.282-1.468.282 2.437.282 10.53 1.692 105.235.564 11.32.282 3.05.282.334.282 2.778.564 11.994.282 1.257.281 2.602.282 4.974.282 1.653.282-2.792.282-.868.846 11.947.282 2.9.846 15.348.564 2.53.564 5.205.282-7.908.564-53.53.846-83.046.282-13.045.564-7.783 1.127-27.403.282-5.933.282 3.084.282 13.586 1.41 93.5.564 15.805.282 4.375.282 2.167.282 3.325.564 10.41.282.849.282 1.915.564 12.358.282 1.688.282-.246.282 1.724.845 8.748 2.256 21.807.282.65.282-9.717.564-53.138.564-53.285.564-30.651 1.692-42.499.281 1.328.282 9.986.564 31.141.846 56.798.564 19.709.282 5.237.282 1.103.282-.77.282 1.336.846 12.37.282 2.77.282 4.314.564 11.674.846 8.968.564 9 .563 4.645 1.128 9.282.282 3.663.282 1.992.282-7.615.282-20.354 1.128-113.85.564-23.49.846-32.23.564-12.068.282.543.282 7.609.564 31.28 1.691 102.88.282 1.9.282.783.282 2.353.282 1.348.282-.776.282.06.282 2.955 1.128 19.348 2.82 57.944.281 4.306.282 1.892.282-8.515.282-26.289.846-107.746.564-41.825.564-27.854.846-22.293.282-2.623.282 2.275.282 7.018.564 29.095 1.41 83.817.563 22.375.282 6.4 1.128 12.085.282-.303.282 1.361 1.128 14.166.282 5.617.846 22.912 1.41 21.957.282 5.747.282-1.635.282-13.57.563-58.598.564-67.6.846-66.021.282-13.678.564-13.66.282-4.535.282 1.39.282 6.761.282 10.619.564 35.008.564 33.74 1.41 57.282.564 14.212.845 10.799.564 5.498.282 3.582.282 1.263.282-1.162.282.973.846 13.54.846 21.715 1.128 15.892.282-.691.282-8.976.282-21.966 1.128-125.704.563-40.782.282-12.59.282-6.159.564-4.626.282-.656.282 4.73.564 27.519 1.128 57.717 1.41 51.35.282 3.098.282 5.277.282 7.842.282 3.936.282.284.282 3.652.563 14.155.564 4.557.564 9.814.282 1.214.282-.15.282 2.847.564 10.097.282 2.55.846 10.524.282-8.268.282-21.058L498.182 87l.564-36.021.564-18.324.282-3.49.281.531.282 3.277.282 5.167.282 9.28 1.128 53.119.564 23.153 1.692 44.952.564 9.786 1.692 21.423.282 2.503.563 8.435.564 9.459.564 11.495.282.993.282.146.564 5.412.282-8.267.564-52.783.846-88.376.282-19.85.846-29.73.282-7.241.282-.734.564 4.431.282 7.248 1.41 60.236.563 16.626.564 22.566.846 15.652.282 5.174.564 5.26.282 4.986 1.128 27.608.846 18.509.564 7.346.563 5.382.846 16.756.282-1.464.282-14.316.564-73.022.564-61.236.564-36.296.282-10.563.564-9.454.282-3.206.282-1.201.282.871.282 4.548.282 11.386.564 31.745.846 30.776.282 6.118.563 4.181 1.41 20.595 1.128 32.326.564 18.725 1.692 40.934.282 1.964.282.25.282 2.654.282 3.717.282 1.46.282-4.038.281-16.76 1.41-155.963.282-14.365.282-7.078.564-5.386.282-1.2.282-.19.282 2.594.282 8.154 1.41 59.023.282 5.406.282-.19.282.56.564 9.506.282 1.731.282 3.862.563 15.54.282 3.579.282 5.713.282 8.583.282 5.128.282 1.188.282 3.388.564 16.814.846 26.443.846 13.97.282 2.318.282.401.564 3.072.282-10.4.564-72.84.564-59.884.563-36.846.282-10.156.564-6.858.282-1.737.282 3.01.564 13.3.564 25.133.564 24.185.564 13.7.846 14.55.564 5.308.564 8.499.282.503.282 2.18.563 11.02.282 3.248.282 5.269.846 25.281.564 16.793 1.128 22.418.564 2.99.282-1.066.282-5.787.282-15.118.564-66.812.564-53.922.564-27.825.282-7.71.564-6.082.281-.956.282 3.14.564 15.654.846 34.132.564 7.75.564 12.42.564 5.02.846 15.715.282 1.379.282 3.305.282 4.916.564 5.148.564 15.83.282 2.294.282-1.297.281 4.476.846 29.467.846 25.673.282 1.558.282-.648.282-1.037.282-10.365.282-29.384.564-76.732.564-39.394.564-23.917.282-5.61.282-2.483.282.079.282 1.24.282 2.665.282 7.853.845 37.32.564 16.725 1.128 16.127.282-.576.282-2.698.282 1.1.564 8.812.282 3.201.282 6.916.564 18.953.564 10.103.564 11.504.282 1.873.282 4.587.564 12.314.282 3.922.845 19.414.282 2.938.282-4.813.282-21.859.564-66.256.564-32.087.564-26.289 1.128-15.99.282 1.049.282 2.099.282 3.82.282 8.935.846 34.673.564 7.908.563 6.96.282-.225.282-1.768.282.281.846 7.611.282 4.565 1.128 25.746.564 7.375.564 5.538 1.41 30.49.564 15.502.282.122.282-10.14.563-57.734.564-47.464.564-22.502.564-13.88.282-2.697.846 3.648.282 3.692 1.41 38.35.282 2.254.282.77.282 5.412.282 7.71.282 3.797.282 1.114.845 9.701.282-.338.282 2.054.564 8.917.846 8.344.846 12.616.564 11.473.282 2.59.282-.055.282.138.282 3.437.282 6.784.282 3.839.282-8.539 1.128-87.818.563-21.871.564-8.74.282-1.706.282 1.404.282 2.712.282 1.324.282 3.513.846 31.19.282 3.818.564 11.464.282.212.282-2.134.282.908.282 1.79.564-3.079.282 3.172.846 21.561.563 11.57.282 2.975.564-1.925.564 5.406.564 6.3.564 6.66.564 7.196.846 12.06.282-9.995.846-74.512.564-25.509.282-5.531.282-.472.282-1.156.282-3.12.281-1.191.282 1.974.282 3.223.282 4.622.564 18.966.282 9.393.282 4.702.282 2.039.846 10.045.282.711.564 2.623.564-4.838.282 1.716.564 8.145.282 3.067.564 9.478.564 3.711.281 2.488.282-.098.282 1.02.564 13.195.564 2.389.846 14.999.282-2.656.282-13.42.846-62.54.564-21.974.564-9.267.282-4.391.282-2.025.282.836.282-.722.282-1.59.282 4.201.563 20.739.564 12.22.564 17.173.282 2.037.282-.2.564 6.012.282-1.332.282-3.194.282.086.846 7.562.282 3.42.564 1.864.564 8.21.282.42.282 5.08.564 20.16.282.653.281 1.555.564 9.109.282-.51.282-2.687.282-9.033.846-56.058.564-15.063.846-13.297.282-.308.282.971.282-2.16.282-3.324.282.773.846 16.914.564 16.765.282 8.421.281 4.666h0" clip-path="url(#pb4285c21ba)" style="fill:none;stroke:#1f77b4;stroke-width:1.5;stroke-linecap:square"/><path id="patch_3" d="M71.308 266.112V0" style="fill:none;stroke:gray;stroke-width:.8;stroke-linejoin:miter;stroke-linecap:square"/><path id="patch_4" d="M685.107 266.112V0" style="fill:none;stroke:#000;stroke-width:.8;stroke-linejoin:miter;stroke-linecap:square"/><path id="patch_5" d="M71.308 266.112h613.8" style="fill:none;stroke:gray;stroke-width:.8;stroke-linejoin:miter;stroke-linecap:square"/><path id="patch_6" d="M71.308 0h613.8" style="fill:none;stroke:#000;stroke-width:.8;stroke-linejoin:miter;stroke-linecap:square"/></g></g><defs><clipPath id="pb4285c21ba"><path d="M71.308 0h613.8v266.112h-613.8z"/></clipPath></defs></svg>