<svg xmlns="http://www.w3.org/2000/svg" xmlns:xlink="http://www.w3.org/1999/xlink" width="913.477" height="377.053" viewBox="0 0 685.107 282.79"><defs><style>*{stroke-linejoin:round;stroke-linecap:butt}</style></defs><g id="figure_1"><path id="patch_1" d="M0 282.79h685.107V0H0v282.79z" style="fill:none"/><g id="axes_1"><path id="patch_2" d="M71.308 266.112h613.8V0h-613.8v266.112z" style="fill:none"/><g id="matplotlib.axis_1"><g id="xtick_1"><g id="line2d_1"><defs><path id="m7d5bb7c081" d="M0 0v3.5" style="stroke:gray;stroke-width:.8"/></defs><use xlink:href="#m7d5bb7c081" x="99.207" y="266.112" style="fill:gray;stroke:gray;stroke-width:.8"/></g><g id="text_1" style="fill:gray" transform="matrix(.1 0 0 -.1 96.026 280.71)"><defs><path id="DejaVuSans-30" d="M2034 4250q-487 0-733-480-245-479-245-1442 0-959 245-1439 246-480 733-480 491 0 736 480 246 480 246 1439 0 963-246 1442-245 480-736 480zm0 500q785 0 1199-621 414-620 414-1801 0-1178-414-1799Q2819-91 2034-91q-784 0-1198 620-414 621-414 1799 0 1181 414 1801 414 621 1198 621z" transform="scale(.01563)"/></defs><use xlink:href="#DejaVuSans-30"/></g></g><g id="xtick_2"><use xlink:href="#m7d5bb7c081" id="line2d_2" x="168.958" y="266.112" style="fill:gray;stroke:gray;stroke-width:.8"/><g id="text_2" style="fill:gray" transform="matrix(.1 0 0 -.1 159.414 280.71)"><defs><path id="DejaVuSans-35" d="M691 4666h2478v-532H1269V2991q137 47 274 70 138 23 276 23 781 0 1237-428 457-428 457-1159 0-753-469-1171Q2575-91 1722-91q-294 0-599 50Q819 9 494 109v635q281-153 581-228t634-75q541 0 856 284 316 284 316 772 0 487-316 771-315 285-856 285-253 0-505-56-251-56-513-175v2344z" transform="scale(.01563)"/></defs><use xlink:href="#DejaVuSans-35"/><use xlink:href="#DejaVuSans-30" x="63.623"/><use xlink:href="#DejaVuSans-30" x="127.246"/></g></g><g id="xtick_3"><use xlink:href="#m7d5bb7c081" id="line2d_3" x="238.708" y="266.112" style="fill:gray;stroke:gray;stroke-width:.8"/><g id="text_3" style="fill:gray" transform="matrix(.1 0 0 -.1 225.982 280.71)"><defs><path id="DejaVuSans-31" d="M794 531h1031v3560L703 3866v575l1116 225h631V531h1031V0H794v531z" transform="scale(.01563)"/></defs><use xlink:href="#DejaVuSans-31"/><use xlink:href="#DejaVuSans-30" x="63.623"/><use xlink:href="#DejaVuSans-30" x="127.246"/><use xlink:href="#DejaVuSans-30" x="190.869"/></g></g><g id="xtick_4"><use xlink:href="#m7d5bb7c081" id="line2d_4" x="308.457" y="266.112" style="fill:gray;stroke:gray;stroke-width:.8"/><g id="text_4" style="fill:gray" transform="matrix(.1 0 0 -.1 295.733 280.71)"><use xlink:href="#DejaVuSans-31"/><use xlink:href="#DejaVuSans-35" x="63.623"/><use xlink:href="#DejaVuSans-30" x="127.246"/><use xlink:href="#DejaVuSans-30" x="190.869"/></g></g><g id="xtick_5"><use xlink:href="#m7d5bb7c081" id="line2d_5" x="378.207" y="266.112" style="fill:gray;stroke:gray;stroke-width:.8"/><g id="text_5" style="fill:gray" transform="matrix(.1 0 0 -.1 365.483 280.71)"><defs><path id="DejaVuSans-32" d="M1228 531h2203V0H469v531q359 372 979 998 621 627 780 809 303 340 423 576 121 236 121 464 0 372-261 606-261 235-680 235-297 0-627-103-329-103-704-313v638q381 153 712 231 332 78 607 78 725 0 1156-363 431-362 431-968 0-288-108-546-107-257-392-607-78-91-497-524-418-433-1181-1211z" transform="scale(.01563)"/></defs><use xlink:href="#DejaVuSans-32"/><use xlink:href="#DejaVuSans-30" x="63.623"/><use xlink:href="#DejaVuSans-30" x="127.246"/><use xlink:href="#DejaVuSans-30" x="190.869"/></g></g><g id="xtick_6"><use xlink:href="#m7d5bb7c081" id="line2d_6" x="447.957" y="266.112" style="fill:gray;stroke:gray;stroke-width:.8"/><g id="text_6" style="fill:gray" transform="matrix(.1 0 0 -.1 435.233 280.71)"><use xlink:href="#DejaVuSans-32"/><use xlink:href="#DejaVuSans-35" x="63.623"/><use xlink:href="#DejaVuSans-30" x="127.246"/><use xlink:href="#DejaVuSans-30" x="190.869"/></g></g><g id="xtick_7"><use xlink:href="#m7d5bb7c081" id="line2d_7" x="517.707" y="266.112" style="fill:gray;stroke:gray;stroke-width:.8"/><g id="text_7" style="fill:gray" transform="matrix(.1 0 0 -.1 504.983 280.71)"><defs><path id="DejaVuSans-33" d="M2597 2516q453-97 707-404 255-306 255-756 0-690-475-1069Q2609-91 1734-91q-293 0-604 58T488 141v609q262-153 574-231 313-78 654-78 593 0 904 234t311 681q0 413-289 645-289 233-804 233h-544v519h569q465 0 712 186t247 536q0 359-255 551-254 193-729 193-260 0-557-57-297-56-653-174v562q360 100 674 150t592 50q719 0 1137-327 419-326 419-882 0-388-222-655t-631-370z" transform="scale(.01563)"/></defs><use xlink:href="#DejaVuSans-33"/><use xlink:href="#DejaVuSans-30" x="63.623"/><use xlink:href="#DejaVuSans-30" x="127.246"/><use xlink:href="#DejaVuSans-30" x="190.869"/></g></g><g id="xtick_8"><use xlink:href="#m7d5bb7c081" id="line2d_8" x="587.457" y="266.112" style="fill:gray;stroke:gray;stroke-width:.8"/><g id="text_8" style="fill:gray" transform="matrix(.1 0 0 -.1 574.732 280.71)"><use xlink:href="#DejaVuSans-33"/><use xlink:href="#DejaVuSans-35" x="63.623"/><use xlink:href="#DejaVuSans-30" x="127.246"/><use xlink:href="#DejaVuSans-30" x="190.869"/></g></g><g id="xtick_9"><use xlink:href="#m7d5bb7c081" id="line2d_9" x="657.207" y="266.112" style="fill:gray;stroke:gray;stroke-width:.8"/><g id="text_9" style="fill:gray" transform="matrix(.1 0 0 -.1 644.482 280.71)"><defs><path id="DejaVuSans-34" d="M2419 4116 825 1625h1594v2491zm-166 550h794V1625h666v-525h-666V0h-628v1100H313v609l1940 2957z" transform="scale(.01563)"/></defs><use xlink:href="#DejaVuSans-34"/><use xlink:href="#DejaVuSans-30" x="63.623"/><use xlink:href="#DejaVuSans-30" x="127.246"/><use xlink:href="#DejaVuSans-30" x="190.869"/></g></g></g><g id="matplotlib.axis_2"><g id="ytick_1"><g id="line2d_10"><defs><path id="ma244571753" d="M0 0h-3.5" style="stroke:gray;stroke-width:.8"/></defs><use xlink:href="#ma244571753" x="71.308" y="251.078" style="fill:gray;stroke:gray;stroke-width:.8"/></g><g id="text_10" style="fill:gray" transform="matrix(.16 0 0 -.16 0 257.156)"><defs><path id="DejaVuSans-2212" d="M678 2272h4006v-531H678v531z" transform="scale(.01563)"/></defs><use xlink:href="#DejaVuSans-2212"/><use xlink:href="#DejaVuSans-33" x="83.789"/><use xlink:href="#DejaVuSans-30" x="147.412"/><use xlink:href="#DejaVuSans-30" x="211.035"/><use xlink:href="#DejaVuSans-30" x="274.658"/><use xlink:href="#DejaVuSans-30" x="338.281"/></g></g><g id="ytick_2"><use xlink:href="#ma244571753" id="line2d_11" x="71.308" y="216.405" style="fill:gray;stroke:gray;stroke-width:.8"/><g id="text_11" style="fill:gray" transform="matrix(.16 0 0 -.16 0 222.484)"><use xlink:href="#DejaVuSans-2212"/><use xlink:href="#DejaVuSans-32" x="83.789"/><use xlink:href="#DejaVuSans-30" x="147.412"/><use xlink:href="#DejaVuSans-30" x="211.035"/><use xlink:href="#DejaVuSans-30" x="274.658"/><use xlink:href="#DejaVuSans-30" x="338.281"/></g></g><g id="ytick_3"><use xlink:href="#ma244571753" id="line2d_12" x="71.308" y="181.732" style="fill:gray;stroke:gray;stroke-width:.8"/><g id="text_12" style="fill:gray" transform="matrix(.16 0 0 -.16 0 187.81)"><use xlink:href="#DejaVuSans-2212"/><use xlink:href="#DejaVuSans-31" x="83.789"/><use xlink:href="#DejaVuSans-30" x="147.412"/><use xlink:href="#DejaVuSans-30" x="211.035"/><use xlink:href="#DejaVuSans-30" x="274.658"/><use xlink:href="#DejaVuSans-30" x="338.281"/></g></g><g id="ytick_4"><use xlink:href="#ma244571753" id="line2d_13" x="71.308" y="147.059" style="fill:gray;stroke:gray;stroke-width:.8"/><use xlink:href="#DejaVuSans-30" id="text_13" style="fill:gray" transform="matrix(.16 0 0 -.16 54.127 153.138)"/></g><g id="ytick_5"><use xlink:href="#ma244571753" id="line2d_14" x="71.308" y="112.386" style="fill:gray;stroke:gray;stroke-width:.8"/><g id="text_14" style="fill:gray" transform="matrix(.16 0 0 -.16 13.408 118.465)"><use xlink:href="#DejaVuSans-31"/><use xlink:href="#DejaVuSans-30" x="63.623"/><use xlink:href="#DejaVuSans-30" x="127.246"/><use xlink:href="#DejaVuSans-30" x="190.869"/><use xlink:href="#DejaVuSans-30" x="254.492"/></g></g><g id="ytick_6"><use xlink:href="#ma244571753" id="line2d_15" x="71.308" y="77.713" style="fill:gray;stroke:gray;stroke-width:.8"/><g id="text_15" style="fill:gray" transform="matrix(.16 0 0 -.16 13.408 83.792)"><use xlink:href="#DejaVuSans-32"/><use xlink:href="#DejaVuSans-30" x="63.623"/><use xlink:href="#DejaVuSans-30" x="127.246"/><use xlink:href="#DejaVuSans-30" x="190.869"/><use xlink:href="#DejaVuSans-30" x="254.492"/></g></g><g id="ytick_7"><use xlink:href="#ma244571753" id="line2d_16" x="71.308" y="43.04" style="fill:gray;stroke:gray;stroke-width:.8"/><g id="text_16" style="fill:gray" transform="matrix(.16 0 0 -.16 13.408 49.119)"><use xlink:href="#DejaVuSans-33"/><use xlink:href="#DejaVuSans-30" x="63.623"/><use xlink:href="#DejaVuSans-30" x="127.246"/><use xlink:href="#DejaVuSans-30" x="190.869"/><use xlink:href="#DejaVuSans-30" x="254.492"/></g></g><g id="ytick_8"><use xlink:href="#ma244571753" id="line2d_17" x="71.308" y="8.367" style="fill:gray;stroke:gray;stroke-width:.8"/><g id="text_17" style="fill:gray" transform="matrix(.16 0 0 -.16 13.408 14.446)"><use xlink:href="#DejaVuSans-34"/><use xlink:href="#DejaVuSans-30" x="63.623"/><use xlink:href="#DejaVuSans-30" x="127.246"/><use xlink:href="#DejaVuSans-30" x="190.869"/><use xlink:href="#DejaVuSans-30" x="254.492"/></g></g></g><path id="line2d_18" d="m99.207 147.06 12.97-.037.283.277.282 3.517.282 1.788.282.46.281 1.14.564 3.765.282.756.282.366.282.092.282.377 1.128 5.514.282.688.282-2.026.282-8.308.846-42.374.282-2.58.282 4.051.564 14.407.564 13.749.282.912.282-.634.563 1.397.282-1.712.282-2.683.282-1.412.282.676.282 2.952.564 7.374.282 1.102.564.797.282-.725.564-2.086.564-2.225.282-.162.282.484.282-1.233.282-2.645.282-1.015.282 1.103.282.56.282-.628.282.672.563 5.385.282.544.282-.287.564.228.564-.634.282.209.846 1.165.282-1.322.282-1.957.282-.365.282.998.282.172.282-.107.282 2.43.564 7.446.282-.08.282-.722.564.56.281-.75.282-1.096.282-.234.846 2.41.282 2.077.564 6.216.282-.81.282-2.303.282.376.282 2.745.282-.866.282-9.455.846-48.405.282-5.976.282 2.083.564 16.022.564 19.183.282 5.79.282.616.563-2.503.282-1.307.282-2.337.282-.88.282 2.35.846 11.963.282 2.383.282-.142.282-1.22.564-.437.282-2.713.564-6.752.282-1.273.564-4.143.282.63.564 7.15.564 2.13.281 2.464.282 1.347.564-5.77.282-.293.282.003.564-6.036.282 1.903.282 3.471.564 1.917.564 6.262.282-.327.282-.59.282 1.302.282.48.564-5.362.282.016.282 1.914.282 1.116.282.196.282.38.281.084.282-.135.282 1.748.564 6.027.282.38.282 1.156.282 1.753.282-.786.282-2.572.282-.429.564 3.726.282.365.282-2.137.282-8.148.846-44.658.282-5.562.282 2.078 1.128 31.581.282 3.709.281 2.133.282 1.162.282.169.282-1.167.564-3.785.282.342.564 6.834.282.813.282-.546.282 2 .282 2.998.282-.334.282-2.186.282-.176.282.015.846-8.788.282-.913.564-2.683.282.808.563 5.22.564 5.427.282 1.827.282.956.282-.27.564-1.562.282.051.282.462.846 1.857.564.584.282-.15.282.007.846 2.736.282.285.564 1.335.282-.323.282.058.282 1.332.281.639.564-3.63.282.406.282 1.418.282.494.282.903 1.128 9.94.282 1.37.282-6.48.846-47.88.282-7.583.282-2.387.282 4.48.564 20.07.282 6.032.564 6.171.282 1.76.281-.036.564-3.948.282-1.683.282-.007.282 2.359.564 8.91.282 1.123.282-1.537.282-.678.282.793.282-.17.564-2.178.282-.937.282-1.603.282-.111.282 2.038.282 1.08.564-2.853.282.241.564 1.986.281.602.282-.354.282-.755.282.275.282.893.282-.056.282-.67.282.098.282.575.282.021.282-.262.282.276.282 1.13.564 5.21.282 2.466.282.778.564-.437.282-.204.564-1.84.282.199.282.907.564.628.281 2.22.282 3.585.282 1.817.282-.596.282.205.282 2.162.282.62.282-2.415.282-1.388.282 1.771.282-.263.282-7.825 1.128-53.952.282-3.513.282 5.562.846 27.508.564 12.067.282 2.029.282-.66.281-1.432.846-5.326.282 1.664.282 3.518.846 13.184.564-2.368.282.295.282-.987.564-8.715.282-2.14.282-.32.282.094.282-.274.564-3.258.282.461.564 4.963.282-.335.281.731.564 5.957.564-2.534.282 1.677.282 3.041.282.861.282-.94.282-.11.564 1.94.282.566 1.128 3.523.282.567.282.184.282.801.282 1.454.282.505.282-.523.282.515.564 3.614.563 1.14.564 1.964.282.746.282 1.133.282.408.282-3.795.282-11.053.846-49.956.282-8.903.282-1.814.282 6.308.846 30.854.564 10.685.282 2.584.282-.535.846-4.264.281 1.23.564 9.339.282 1.196.564-1.117.282-2.593.564-7.223.282-.477.564-2.139.282 1.715.282 3.57.282 2.113.564 1.08.282.722.282-.09.282-.257.564 1.215.564-.104.282.906.282 1.283.281.337.282-.332.282.042.564.817.564 1.68.282-.126.282 1.023.564 5.805.282-.367.282-.093.564 3.868.282-.072.282.363.282.754.282-.69.282-1.289.282-.48.282.23.282 2.103.564 8.102.281.84.282.307.282-2.493.282-12.15.846-57.895.282-10.747.282-4.221.282 4.462.564 25.401.564 23.087.282 4.98.282 1.501.282-.39.564-3.696.282-1.747.282-.168.282 2.473.564 7.376.282.78.563-.269.282-.673.282-1.39.282-.704.564 1.063.564-.835.282.248.564 1.11.282.09.282.334.564 1.113.846-.243.564-.7.282.267.564 1.396.564.31.281.623.564 2.174.282.472.282-.006.282.681.282 1.297.564 1.003.564 2.725.282-1.141.282-1.644.282 1.139.282 2.804.564 2.54.846 8.103.282.556.282 1.437.564 4.192.282-1.396.281-7.91.282-16.987.846-62.983.282-7.752.282-.35.282 7.8.846 43.304.282 5.477.282.989.282.105.282.867.282-.463.282-2.565.282-.285.846 15.268.282 1.49.282.384.564-1.639.281-.356.564-2.199.282-.134.282-.9.564-4.449.564 1.15h.282l.564 1.994.282-.453.282.813.282 2.057.282-.253.282-1.718.282 1.116.282 3.16.282 1.205.282-.505.282.256 1.128 3.766.281-.11.282.332.282 1.29.282.75.282-.144.282.35 1.128 3.94.282.96.564.841.282 1.24.564 3.365.282-.695.282-1.922.282-.382.564 3.805.282.671.282-1.103.282-6.119.282-15.08.845-60.369.282-10.25.282-2.11.282 7.638 1.128 57.046.282 6.845.282 1.78.282.2.282-.051.564-2.203.282 2.204.282 3.425.282 1.082.846-3.346.564-3.642.564-3.328.281.333.282 1.213.564 1.18.564 2.53.282.097.282-.25.564.83.282-.4.282-.175.282.616.282.183.282-.452.282.724.564 3.575.282-.141.282.116.564 2.197.282.755.564 3.066 1.973 9.644.564.909.282 2.627.564 9.167.564 2.113.282 2.613.282 1.09.282-4.189.282-10.148.282-17.046 1.128-87.67.282-9.75.282-.034.563 25.162 1.128 53.282.846 6.724.846 7.344.282 3.304.282 1.107.564.662.282-.893.564-4.425.564-1.986.282-.321.282.518.564 1.753.282.163.281-.03.282.642.282 1.128.282.418.282-.166.282.645.282 1.229.282.016.282-1.141.282-.342.282.666.282.086.282-.259.564 1.472.282-2.168.282-3.447.282-.63.564 4.167.282.787.282 1.957.564 6.05.282 1.172.281.54.282.937.282 2.355.564 8.123.282 1.562.282.007.282 1.411.564 5.64.282 1.716.564 5.928.282-1.313.282-8.796.564-37.674.846-74.66.282-10.65.282-5.392.282-1.629.282 6.146 1.691 84.378.282 3.61.282 1.765.564 7.899.564 7.46.282 1.15.282-1.766.846-8.302.564-7.455.282-.892.282-.136.282.476.282 2.047.564 5.104.282.753.563-.164.282.458.282.08.846-2.302.282-.147.282.884.564 3.766.564-1.21.564 1.714.282.097.282.526.846 4.12 1.128 5.34 1.127 6.136.282-.212.282 1.38.564 6.34.282.842.282 1.374.846 13.961.282-.196.282-9.081.564-49.401.846-77.955.282-17.623.282-7.03.282 4.23.564 26.246 1.127 63.232.564 22.422.564 10.021.564 13.062.282-.176 1.128-17.368.846-12.099.282-.693.846 4.066.564 3.888.282.753.282-.301.282.394.282 1.19.281.145.282-.841.282.408.282 1.763.282 1.013.282-.03.282.376 1.41 5.57 1.974 15.662.282 3.36.282.946.282-.85.282 1.207.564 6.05.281 2.166.846 10.562.282 1.234.282-5.158.282-16.184.564-57.415.564-60.033.564-36.38.282-6.07.282 3.207.564 22.553 1.692 82.461.564 23.827.282 13.786.281 7.629.282-.15.846-8.61.564-10.26.282-2.757.564-2.037.282.584.564 7.197.282-.296.282-2.677.282-.311.282 2.352.282 1.418.282-.373.282.625.564 4.377.282-1.054.282-1.728.282-.27.281-.727.564-6.148.282-.314.282.774.282.258.282 2.065.564 10.684.282 2.518.282 1.122.564 4.918.564 6.707.846 11.935 1.128 12.34.846 12.887.281.303.282-9.111.282-22.3 1.41-155.056.282-17.608.282-3.768.282 9.008.564 24.958 1.128 32.212.564 14.403.564 22.325.846 40.048.564 13.015.281 4.529.282 2.205.282-.833.846-6.034.846-11.882.564-1.554.282-1.14.282.636.564 5.437.282.664.564-2.293.282 1.095.282 2 .282.133.282-1.37.282-.49.845 1.308.564 2.629.282 1.867 1.692 15.616.282 2.328 1.692 21 .282 2.076 1.41 22.024.282-4.248.282-21.279 1.41-171.484.281-13.63.282 1.177.846 24.512.846 20.712.564 9.939.282 7.083.564 26.804.564 28.005.564 18.654.564 9.417.282 1.008.563-4.204.564 2.392.282-1.222.564-3.711.282-.548.282.312.846 3.413.282.378.564.143.846 1.66.282.55.282-.248.282-1.35.282-.6.846 4.587.282 2.647.563 7.074 1.128 11.068 1.41 18.641 1.692 32.973.282-4.476.282-16.426.564-62.79.846-106.148.282-16.707.282-.53.845 15.16.282 6.678.282 3.194.282 1.252.564 4.514.282 4.916.564 22.48.846 30.132.564 10.938.564 6.587.564 3.416.564 2.978.282 3.104.282 4.492.282 2.453.281.935.846 6.361.282.845.282 1.475.282.802.282.237.282.651.282.306.282-.491.282-.12.564 1.261.282.088.564-1.17.282 1.55 1.692 21.49 2.255 41.618.846 12.438.564 8.484.282-2.602.282-17.095.564-68.18.564-75.228.282-24.982.282-10.774.564-7.37.282-5.892.282-3.202.282.683.282 1.506.563.5.282 2.405.564 11.166.564 18.855.846 32.563.564 14.979 1.974 34.809.564 6.18.282 3.668.282 2.017.282.14.282-.113.563.84.282.114.564.79.564-.743.282 1.003.282 1.89.282 1.123.564.465.282.808.282 1.356 1.128 8.632.282.591.282 2.029.564 7.232.282 2.388.282 3.461.845 16.633.564 7.501 1.41 30.48.282 1.625.282-10.143.282-22.924.564-73.243.564-66.475.564-25.53.282-11.548.282-6.355.282.36.282 1.623.564-.407.282 1.356.282 3.075.281 4.604.282 6.61.564 22.306.846 35.205.564 17.394.846 12.857.282 2.207.282.636.564.64.282-.111 1.128-4.304.282-.68.282 1.258.845 12.512.282 2.35.564 5.442.564-1.427.282 1.78.564 5.533.282 2.303 1.128 13.175.282 1.782.282.994.282 2.073.846 10.079.846 20.172.564 6.751.845 15.683.564 12.753.282.781.282-8.049.282-22.51 1.128-138.375.564-24.33.282-5.3.564-2.467.564-6.43.282.163.282 2.771.282 4.503.282 6.93.564 22.697.563 22.881.564 12.253.282 4.926.282 2.65.564.668.282.943.282-.611.282-1.63.282.093.282 1.332.282.3.282.845.846 12.623.282 1.47 1.41 14.112.845 7.178.846 10.29.282 5.415.282 3.076.282.97.564 6.87.282-.032.282-3.423.282-.38 1.128 17.507.846 20.342.282 4.579.564 13.249.282 1.574.282-5.479.282-15.517.563-66.788.282-32.244.282-18.963.564-16.073 1.128-15.548.282-1.602.282-.187.282.04.282 1.494.564 8.424.564 11.101.846 20.98.846 14.846.282 1.288.282-1.266.281-.303.282.102.282-2.615.282-3.806.282-.244 1.41 19.106.564 9.095.564 3.829.282 3.103.282 1.671.282-.734.282.075.564 4.985.282.846.282 1.327.846 7.143.563 3.366.282.894.282 1.455 1.692 14.018.282 2.99.564 8.753.564 5.12 1.128 20.604.282-1.151.282-14.778.846-83.216.564-27.315.563-9.158.564-6.818.282-2.102.282-.927.282-.528.282.143.282 1.568.564 5.394.282 5.836.564 21.518.282 5.212.282.275.282 1.277.282 3.468.282 1.938.282-.097.282.946.564 3.895.282.832.563 3.813.564 5.268.282 3.405.282 1.458.282-.332.282.508.282 1.352.282-.536.282-2.395.282-.893.564 3.474.282.199.282.858.564 6.54.282 1.12.282.32.564 2.757.564-2.258.282.927.564 5.502 1.127 17.376.282 1.178.282.48.282.78 1.128 7.838 1.128 12.778.282-6.39.282-19.542.564-50.588.282-13.088.564-13.526.282-3.941.845-3.69.282-.534.282.629.564 2.317.282 1.883.282 2.806.282 4.917.846 23.244.564 5.539.564 4.02.282.66.282.26.564.03.564.887.564-.765.282.345.282-.024.563-1.658.282.095.282.7.846 4.746.564.55.282 1.293 1.128 8.16.282 1.034.282 1.58.846 6.485.282 1.287 1.128 7.931.564 3.941.281 2.902.846 12.914.282 2.686.282 4.11.282.035.282-11.301.846-54.809.282-9.785.282-5.73.282-1.748.282-.02.282-1.009.846-5.235.282-.982.282.749.846 5.193.845 12.505.846 7.504.282-.43.282-.167.282 2.147.282 3.055.282 1.39.564-1.208.282.28.282-1.693.282-3.83.282-.998.282 2.686.282.54.282-2.462.282.66.564 7.774.282.936.564 3.338.281.564.282 1.091.282 1.846.282.61.282-.223.282.836.564 2.947 1.692 6.645.846 4.755.282 2.064 1.41 13.675.846 8.288.281 3.653.282 1.974.282-3.77.282-12.086.846-47.266.282-7.961.282-4.27 1.41-8.087.282-.207.282.215.282.563.282.932.282 1.513.282 2.978 1.128 18.435.282 1.761.281.463.282.169.564.654.282.036.282-.677.564-4.15.564-1.798.282-2.365.282-.572.846 9.947.282 1.309.282.593.282-.02.282 2.22.282 4.756.282 2.363.282-1.438.282-.735.282 1.185.282.455.282.724.563 4.765.282-.233.282.285.282 1.038.282-.212.282.263.564 3.724.282.076.564 4.088.282-1.614.282-2.289.282 2.168.282 3.868.564 2.627.564 8.502.564 2.984.282 3.316.282.589.282-7.13.845-41.979.282-7.696.282-4.655.282-1.726.564 3.223.282-1.068.282-2.086.564.392.564-6.084.282.794.564 4.548.282 2.383.564 7.575.564 3.46.282.511.282-.927.282-.247.845 3.64 1.128 4.481.282-.252.282-.716.282 1.346.282 3.02.282 1.773.282.292.564.729.282-.443.282.238.282 1.006.282.275.282-.184.282.313.282-.033.282-.772.282-.124 1.691 5.494.564 2.927.282.521.282.84.846 4.015.282 2.369.282 1.12.282.429.282 2.352.282 3.594.282 1.921.282-.293.282-2.765.282-7.62.846-32.121.282-4.244.282-1.984 1.127-3.148.846.74.282.034.282-.332.282.432.282 1.506.282.652.282-.512.282.887.282 2.341.282.59.282-1.107.282.852.564 4.86.282.801.846 5.554.282.51.845 3.677.564 4.855.282.96.282-.514.282-.2.846 2.059.282-.484.282-.119.564.988.282.48.282 1.013.282-.586.564-5.47.564 5.143.282.224.282.674.564 7.845.281.622.282-.084.564 4.287.282-.459.282-2.084.282-.305.564 4.578.282.992.282-.646.282-4.04.846-25.329.564-4.943.282-1.036.282-.187.564-1.484.282.306.282.762.282.129.282.51.281 1.273.282.462.282-.227.282 1.502.564 7.815.282 1.916.282-.152.282-.667.564-.072.564-1.926.564 1.862.282-.624.282-1.029.282.285.282.537.282-.284.282.23.564 3.217.282.646.282-.175.281-.58h0" clip-path="url(#pcc83e40bc5)" style="fill:none;stroke:#1f77b4;stroke-width:1.5;stroke-linecap:square"/><path id="patch_3" d="M71.308 266.112V0" style="fill:none;stroke:gray;stroke-width:.8;stroke-linejoin:miter;stroke-linecap:square"/><path id="patch_4" d="M685.107 266.112V0" style="fill:none;stroke:#000;stroke-width:.8;stroke-linejoin:miter;stroke-linecap:square"/><path id="patch_5" d="M71.308 266.112h613.8" style="fill:none;stroke:gray;stroke-width:.8;stroke-linejoin:miter;stroke-linecap:square"/><path id="patch_6" d="M71.308 0h613.8" style="fill:none;stroke:#000;stroke-width:.8;stroke-linejoin:miter;stroke-linecap:square"/></g></g><defs><clipPath id="pcc83e40bc5"><path d="M71.308 0h613.8v266.112h-613.8z"/></clipPath></defs></svg>