<svg xmlns="http://www.w3.org/2000/svg" xmlns:xlink="http://www.w3.org/1999/xlink" width="913.477" height="377.053" viewBox="0 0 685.107 282.79"><defs><style>*{stroke-linejoin:round;stroke-linecap:butt}</style></defs><g id="figure_1"><path id="patch_1" d="M0 282.79h685.107V0H0v282.79z" style="fill:none"/><g id="axes_1"><path id="patch_2" d="M71.308 266.112h613.8V0h-613.8v266.112z" style="fill:none"/><g id="matplotlib.axis_1"><g id="xtick_1"><g id="line2d_1"><defs><path id="m80fa64a0bb" d="M0 0v3.5" style="stroke:gray;stroke-width:.8"/></defs><use xlink:href="#m80fa64a0bb" x="99.207" y="266.112" style="fill:gray;stroke:gray;stroke-width:.8"/></g><g id="text_1" style="fill:gray" transform="matrix(.1 0 0 -.1 96.026 280.71)"><defs><path id="DejaVuSans-30" d="M2034 4250q-487 0-733-480-245-479-245-1442 0-959 245-1439 246-480 733-480 491 0 736 480 246 480 246 1439 0 963-246 1442-245 480-736 480zm0 500q785 0 1199-621 414-620 414-1801 0-1178-414-1799Q2819-91 2034-91q-784 0-1198 620-414 621-414 1799 0 1181 414 1801 414 621 1198 621z" transform="scale(.01563)"/></defs><use xlink:href="#DejaVuSans-30"/></g></g><g id="xtick_2"><use xlink:href="#m80fa64a0bb" id="line2d_2" x="168.958" y="266.112" style="fill:gray;stroke:gray;stroke-width:.8"/><g id="text_2" style="fill:gray" transform="matrix(.1 0 0 -.1 159.414 280.71)"><defs><path id="DejaVuSans-35" d="M691 4666h2478v-532H1269V2991q137 47 274 70 138 23 276 23 781 0 1237-428 457-428 457-1159 0-753-469-1171Q2575-91 1722-91q-294 0-599 50Q819 9 494 109v635q281-153 581-228t634-75q541 0 856 284 316 284 316 772 0 487-316 771-315 285-856 285-253 0-505-56-251-56-513-175v2344z" transform="scale(.01563)"/></defs><use xlink:href="#DejaVuSans-35"/><use xlink:href="#DejaVuSans-30" x="63.623"/><use xlink:href="#DejaVuSans-30" x="127.246"/></g></g><g id="xtick_3"><use xlink:href="#m80fa64a0bb" id="line2d_3" x="238.708" y="266.112" style="fill:gray;stroke:gray;stroke-width:.8"/><g id="text_3" style="fill:gray" transform="matrix(.1 0 0 -.1 225.982 280.71)"><defs><path id="DejaVuSans-31" d="M794 531h1031v3560L703 3866v575l1116 225h631V531h1031V0H794v531z" transform="scale(.01563)"/></defs><use xlink:href="#DejaVuSans-31"/><use xlink:href="#DejaVuSans-30" x="63.623"/><use xlink:href="#DejaVuSans-30" x="127.246"/><use xlink:href="#DejaVuSans-30" x="190.869"/></g></g><g id="xtick_4"><use xlink:href="#m80fa64a0bb" id="line2d_4" x="308.457" y="266.112" style="fill:gray;stroke:gray;stroke-width:.8"/><g id="text_4" style="fill:gray" transform="matrix(.1 0 0 -.1 295.733 280.71)"><use xlink:href="#DejaVuSans-31"/><use xlink:href="#DejaVuSans-35" x="63.623"/><use xlink:href="#DejaVuSans-30" x="127.246"/><use xlink:href="#DejaVuSans-30" x="190.869"/></g></g><g id="xtick_5"><use xlink:href="#m80fa64a0bb" id="line2d_5" x="378.207" y="266.112" style="fill:gray;stroke:gray;stroke-width:.8"/><g id="text_5" style="fill:gray" transform="matrix(.1 0 0 -.1 365.483 280.71)"><defs><path id="DejaVuSans-32" d="M1228 531h2203V0H469v531q359 372 979 998 621 627 780 809 303 340 423 576 121 236 121 464 0 372-261 606-261 235-680 235-297 0-627-103-329-103-704-313v638q381 153 712 231 332 78 607 78 725 0 1156-363 431-362 431-968 0-288-108-546-107-257-392-607-78-91-497-524-418-433-1181-1211z" transform="scale(.01563)"/></defs><use xlink:href="#DejaVuSans-32"/><use xlink:href="#DejaVuSans-30" x="63.623"/><use xlink:href="#DejaVuSans-30" x="127.246"/><use xlink:href="#DejaVuSans-30" x="190.869"/></g></g><g id="xtick_6"><use xlink:href="#m80fa64a0bb" id="line2d_6" x="447.957" y="266.112" style="fill:gray;stroke:gray;stroke-width:.8"/><g id="text_6" style="fill:gray" transform="matrix(.1 0 0 -.1 435.233 280.71)"><use xlink:href="#DejaVuSans-32"/><use xlink:href="#DejaVuSans-35" x="63.623"/><use xlink:href="#DejaVuSans-30" x="127.246"/><use xlink:href="#DejaVuSans-30" x="190.869"/></g></g><g id="xtick_7"><use xlink:href="#m80fa64a0bb" id="line2d_7" x="517.707" y="266.112" style="fill:gray;stroke:gray;stroke-width:.8"/><g id="text_7" style="fill:gray" transform="matrix(.1 0 0 -.1 504.983 280.71)"><defs><path id="DejaVuSans-33" d="M2597 2516q453-97 707-404 255-306 255-756 0-690-475-1069Q2609-91 1734-91q-293 0-604 58T488 141v609q262-153 574-231 313-78 654-78 593 0 904 234t311 681q0 413-289 645-289 233-804 233h-544v519h569q465 0 712 186t247 536q0 359-255 551-254 193-729 193-260 0-557-57-297-56-653-174v562q360 100 674 150t592 50q719 0 1137-327 419-326 419-882 0-388-222-655t-631-370z" transform="scale(.01563)"/></defs><use xlink:href="#DejaVuSans-33"/><use xlink:href="#DejaVuSans-30" x="63.623"/><use xlink:href="#DejaVuSans-30" x="127.246"/><use xlink:href="#DejaVuSans-30" x="190.869"/></g></g><g id="xtick_8"><use xlink:href="#m80fa64a0bb" id="line2d_8" x="587.457" y="266.112" style="fill:gray;stroke:gray;stroke-width:.8"/><g id="text_8" style="fill:gray" transform="matrix(.1 0 0 -.1 574.732 280.71)"><use xlink:href="#DejaVuSans-33"/><use xlink:href="#DejaVuSans-35" x="63.623"/><use xlink:href="#DejaVuSans-30" x="127.246"/><use xlink:href="#DejaVuSans-30" x="190.869"/></g></g><g id="xtick_9"><use xlink:href="#m80fa64a0bb" id="line2d_9" x="657.207" y="266.112" style="fill:gray;stroke:gray;stroke-width:.8"/><g id="text_9" style="fill:gray" transform="matrix(.1 0 0 -.1 644.482 280.71)"><defs><path id="DejaVuSans-34" d="M2419 4116 825 1625h1594v2491zm-166 550h794V1625h666v-525h-666V0h-628v1100H313v609l1940 2957z" transform="scale(.01563)"/></defs><use xlink:href="#DejaVuSans-34"/><use xlink:href="#DejaVuSans-30" x="63.623"/><use xlink:href="#DejaVuSans-30" x="127.246"/><use xlink:href="#DejaVuSans-30" x="190.869"/></g></g></g><g id="matplotlib.axis_2"><g id="ytick_1"><g id="line2d_10"><defs><path id="m92936b1ee3" d="M0 0h-3.5" style="stroke:gray;stroke-width:.8"/></defs><use xlink:href="#m92936b1ee3" x="71.308" y="243.938" style="fill:gray;stroke:gray;stroke-width:.8"/></g><g id="text_10" style="fill:gray" transform="matrix(.16 0 0 -.16 0 250.017)"><defs><path id="DejaVuSans-2212" d="M678 2272h4006v-531H678v531z" transform="scale(.01563)"/></defs><use xlink:href="#DejaVuSans-2212"/><use xlink:href="#DejaVuSans-34" x="83.789"/><use xlink:href="#DejaVuSans-30" x="147.412"/><use xlink:href="#DejaVuSans-30" x="211.035"/><use xlink:href="#DejaVuSans-30" x="274.658"/><use xlink:href="#DejaVuSans-30" x="338.281"/></g></g><g id="ytick_2"><use xlink:href="#m92936b1ee3" id="line2d_11" x="71.308" y="193.114" style="fill:gray;stroke:gray;stroke-width:.8"/><g id="text_11" style="fill:gray" transform="matrix(.16 0 0 -.16 0 199.193)"><use xlink:href="#DejaVuSans-2212"/><use xlink:href="#DejaVuSans-32" x="83.789"/><use xlink:href="#DejaVuSans-30" x="147.412"/><use xlink:href="#DejaVuSans-30" x="211.035"/><use xlink:href="#DejaVuSans-30" x="274.658"/><use xlink:href="#DejaVuSans-30" x="338.281"/></g></g><g id="ytick_3"><use xlink:href="#m92936b1ee3" id="line2d_12" x="71.308" y="142.29" style="fill:gray;stroke:gray;stroke-width:.8"/><use xlink:href="#DejaVuSans-30" id="text_12" style="fill:gray" transform="matrix(.16 0 0 -.16 54.127 148.368)"/></g><g id="ytick_4"><use xlink:href="#m92936b1ee3" id="line2d_13" x="71.308" y="91.465" style="fill:gray;stroke:gray;stroke-width:.8"/><g id="text_13" style="fill:gray" transform="matrix(.16 0 0 -.16 13.408 97.544)"><use xlink:href="#DejaVuSans-32"/><use xlink:href="#DejaVuSans-30" x="63.623"/><use xlink:href="#DejaVuSans-30" x="127.246"/><use xlink:href="#DejaVuSans-30" x="190.869"/><use xlink:href="#DejaVuSans-30" x="254.492"/></g></g><g id="ytick_5"><use xlink:href="#m92936b1ee3" id="line2d_14" x="71.308" y="40.641" style="fill:gray;stroke:gray;stroke-width:.8"/><g id="text_14" style="fill:gray" transform="matrix(.16 0 0 -.16 13.408 46.72)"><use xlink:href="#DejaVuSans-34"/><use xlink:href="#DejaVuSans-30" x="63.623"/><use xlink:href="#DejaVuSans-30" x="127.246"/><use xlink:href="#DejaVuSans-30" x="190.869"/><use xlink:href="#DejaVuSans-30" x="254.492"/></g></g></g><path id="line2d_15" d="m99.207 142.218.282.14.282-.134.282.128.282-.123.282.119.282-.114.282.11.282-.107.282.103.282-.1.282.097.282-.094.282.092.282-.09.282.088.282-.086.282.084.282-.082.282.08.282-.079.282.078.282-.076.282.075.282-.074.282.073.281-.073.282.072.282-.071.282.071.282-.07.282.07.282-.07.282.07.282-.07.282.07.282-.071.282.072.282-.074.282.076.282-.077.282.08.282-.084.282.087.282-.092.282.1.282-.11.282.125.282-.151.282.198.282-.31.281.933.282 2.02.564-1.533.282.151 1.128 5.194.564 2.849.282.312.282-.268.282.244.564 1.577.282 1.326.282 2.068.282-.112.282-5.78.564-17.806.282-2.532.282 1.027.564 3.584.281 2.284.282 1.164.282-1.458.564-6.451.282-1.575.282-.294.282.324.282.884.564 3.886.282 2.001 1.41 4.967.282.201.282 1.562.564 4.61.846 4.284.282-1.029.281-1.915.282-.368.282.804.846 1.392.282-.498.564-4.915.282-.788.282-.046.564-.901.282-.138.282.008.282.694.564 3.089.282-.098.564-1.538.846-2.19.282-.063.281.752.282 1.435.282-.094.282-4.955.564-16.758.282-3.043.282.093.282 1.206 1.41 11.344.282.981.282-.509 1.128-3.135.282 1.464.282 2.843.282 1.412.282-.396.282.06.563 2.384.564.472.282 1.023 1.128 8.149.564 5.166.282.383.564-2.625.846-1.59.564-.19.282-.427.282.237.564 2.3.564 1.045.282.175.281-1.024.282-1.461.282-.533.282.17.282-.376.282-.935.282-.18.282 1.637.282 2.303.282-.376.282-5.626.846-25.438.282-3.492.282.128.846 8.853.564.92 1.128 3.572.563 5.349.846 10.872.282.698.564-3.52.282-.193.564 2.268.282-.087.282.166.846 4.067.564.497.282-.378.564-1.828.282.192.282-.006.564-1.797.282.413.281.91.282.314.282.023.282.477.282.787.282.313.282-.542.282-1.018.282-.517.282.599 1.974 9.496.282-.128.282-5.229.846-34.016.282-4.488.282-.24.282 2.975.563 8.417.282 1.878.564 2.14.564 2.706.846 2.336.282 2.617.564 6.573.282.958.282-.375.282-.153.282.425.282-.126.564-3.047.282-.26.282.874.282.442.282-.38.282-.157.563.821.282-.03.282.474.282 1.1.282.433.564-1.899.282.042.564 2.217.564 3.07.282.615.282-.09.282.212.846 2.248.564 2.99.282.155.282-.168.282.437.845 1.793.282-2.531.282-8.297.564-23.014.282-6.166.282-2.007.282 1.503.846 12.853.564 2.826.282.13.282-.907.282-.498.282.9.564 3.585.846 7.963.282.631.564-.016.563-.468.282.294 1.128 3.323.564 1.71.846 3.624.564 4.305.282.257.564-3.349.282-.27.282.207.564-1.31.282.036.282.366.282-.389.282-.863.282-.385.281-.107.564-.882.282.075.282-.068.282-.338.564.898.282-3.14.282-9.206.846-34.873.282-3.294.282 2.871 1.128 27.165 1.128 5.86.564.995.281 2.443.564 7.42.282 1.546 1.128 1.96.282-.076.846-1.852.564-1.817.282.135.564 1.694.282.15.282.642.282 1.264.282.717.282-.095.282.242.282.892.282.336.563-1.867.282-.258.282.448.564 1.524.282.159.282-.454.282-.058.846 2.748.564 2.366.564 1.401.282 1.426.282-1.444.282-8.234.846-34.064.282-5.954.282-2.1.282 2.91.845 16.276.282 4.04.282 1.97.282.315.282.892.282 1.663.282.725.282.273.282 2.171.564 7.012.282.698.282-.87.564-2.342 1.128-1.8.282.86.846 5.146.845 3.524 1.692 5.85.282.324.282-.306.846-2.08.282.226.282.449.282.093.282.316.564 2.104.282.006.564-.799.282-.905.282-1.775.282-.982.282.894.281.098.282-5.1.564-25.437.564-22.913.282-5.196.282.592.564 11.655.846 15.966.282 2.537.564 3.23.846 6.934.564 8.734.282 1.448.564-.862.282-.749.563-2.463.564-.305.846-3.581.282.033.564 1.817.282 1.026.282 1.8.846 10.555.282.992.282-.053.282.065.564.639.282.11.282.274.846 2.182.281.18.282.015.564.605.282-.878.564-3.872.282.6.282-.037.282-5.84.564-29.77.564-28.524.282-7.886.282-2.035.282 3.633.564 18.478.564 19.245.564 12.139.564 6.038.282 2.49.845 11.117.282 1.963.282.728.564-.322.282.11.282-.021.282-.216.564.11.282.007.282.55.564 2.903.282.522.846-.05.282.637.282 1.115.282-.214.282-2.902.563-6.882.564-2.328.282-.328.282.564.564 2.078.846 6.378.282.858 1.41 7.647.282-2.321.282-9.488 1.128-63.67.282-8.129.282-3.112.282 1.063.281 4.496.846 24.74.846 21.807.846 12.08.564 9.84.282 1.275.282-.435.846-2.554.282.307.282.821.282-.6.564-3.43.564.89.282-.306.282.537.845 7.42.282.185.564-1.552.282.012.564 2.112.282-1.185.564-4.238.282.24.282.522.282.011.282.736.564 3.964.846 2.924.846 4.184.282-2.042.281-9.995 1.41-80.87.282-5.576.282 1.632.564 13.51.564 18.811.564 20.597.564 11.04.846 12.63.564 6.37.282 1.79.282-.72.282-1.906.282-.946.282-.25.281-1.316.282-2.222.282-1.085.282.707 1.128 4.923.846 6.164.564 2.769.564 3.433.282-.161.564-3.557.282-.693.282.172.564 1.186 1.691 5.452.282.483.282.074.282.349.282-.888.282-6.67.282-15.628.846-59.97.282-10.78.282-5.437.282.346.282 6.526.846 38.717.564 20.795.282 5.044.846 8.135.563 6.004.282.759.282-.116.282.842.564 4.804.282-.36.564-4.599.846-4.23.282.124 1.128 4.652.282.132.564-.807.282.34.564 1.69.282.213.282.044.281 1.532.564 6.229.564 2.132 2.256 17.247.282-3.927.282-12.7 1.41-91.796.282-6.288.564-5.18.282.275.282 5.224.563 21.767 1.128 46.77.564 15.723.282 2.464.282-2.277.564-8.49.282-1.028.282-.164.564-1.467.564.373.282-.157.282 1.032.564 4.053.564.686.563 1.668.564-.832.282.539 1.41 8.756 1.41 11.605.282 1.563.282 2.343.564 8.17 1.128 8.28.282-6.2.564-40.42.845-61.685.564-22.843.282-5.046.282-2.79.282-.14.282 3.546.564 17.086.564 25.15 1.128 63.033.282 5.827.282.439.564-4.13.846-8.71.282-3.419.282-1.981.281.397.282 1.247.282.3.282.067.282 1.39.564 4.615.564 2.623.846 2.861.564 2.55.564 3.05.282.819.282 1.165.564 3.49.282.503.282.73.846 4.094.282 1.28.281.706.564-.464.282-1.295.282-7.358.564-38.952.846-64.797.282-12.419.282-6.502.282-2.31.282 1.437.282 5.761.564 22.26 1.692 85.444.282 6.162.282-.127.845-9.623 1.128-5.448.282.12.564 1.455.282 1.572.564 4.433.282.115.282-1.03.282.058.564 3.886.282.393.282.058.282 2.048.564 7.027.564 4.37.281 2.96.282 1.777.282-.247.282-.662.282.467.846 4.262.564 3.77.282.598.282-4.52.282-13.585 1.692-130.465.282-9.896.282-5.722.282-2.612.282.73.282 4.95.564 21.38.563 31.493 1.128 85.142.282 5.765.282-1.38.282-2.716.282-1.182.282-.068.282-.29.846-4.171.282.248.564 2.047.846 4.968.564 1.1.282.22.282-.129.281.302 1.41 5.66 1.692 12.536 1.41 14.257.282 1.328.282-5.759.282-16.637 1.691-147.273.282-14.488.282-7.961.282-.014.564 10.447.564 16.782.846 37.665.564 42.615.564 43.782.282 13.76.282 5.507.282-1.1.846-10.815.564-3.271.846-4.084.281.498.282 1.241.282.69.282.061.282.582.564 3.316.282.552.282-.015.282.63.564 3.099.564 4.216.564 4.897.564 7.13.564 6.812 1.41 11.19.281-4.837.282-16.21 1.692-155.371.282-13.066.282-4.519.282 3.18.846 21.078.846 31.39.564 31.728.846 52.58.564 19.331.282 1.46 1.127-9.505.846-3.752.282-.624.282 1.612.282 2.922.282 1.575.282-.16.282.316.564 3.432.282.825.282 1.636.846 9.241.282 1.658.564 6.219.846 9.392.563 5.022.846 12.082.282-.99.282-8.722.282-19.247 1.692-169.914.282-6.668.282 2.652 1.41 24.12.564 15.014.564 27.16 1.41 80.246.563 16.909.282 3.705.282.945.282-.787.564-3.893.282-1.932.282-.782.282.037.564-.384.282.947.282 1.668.282.83.282.232.282 1.479.564 5.464.564 2.61.563 6.607 1.128 12.566.846 7.37.564 7.987.282.135.282-10.62.564-55.78 1.128-126.343.282-9.306.282-.884.564 1.306.282 2.467 1.127 15.11.282 5.566.282 9.065 2.538 112.407.564 12.47.282 2.316.282 1.022.282.59.282.19.282-.58.564-1.627.282-.336.563-1.39.282.312.564 1.983.282-.187.282.035.282 1.564 1.41 15.694 1.128 14.208.282 3.531.564 10.15.282-3.043.282-16.733.564-60.443.846-98.224.281-15.388.282-3.644.564.789.282 1.57 1.41 20.357.564 17.854 2.256 85.636.564 16.354.564 8.94.563 3.677.282.638.282-.151.282-.805.846-5.203.282.382.282 1.642.846 7.29.282 3.003 2.256 32.793.564 9.439.282 5.449.282-2.344.281-17.547.846-103.482.564-64.16.282-16.613.282-4.93.282.372.282 1.792.846 7.95.282 1.176.282 2.224.282 4.337.564 17.4 1.692 61.223 1.41 37.844 1.127 17.95.282-.177.282-1.338.282 1.64.564 7.347.282 1.54.564 5.401.282.958.282-.17.282 1.715.846 13.486.846 15.467.845 14.663.282 3.717.282-2.32.282-14.656.564-62.218.846-104.607.282-11.95.564-4.71 1.128-18.087.282-2.366.282.042.282 2.539.282 4.932.564 16.244 1.691 54.789 1.41 38.144.846 12.331.564 13.159.564 13.225 1.974 30.634.846 11.442 1.41 24.964.281.53.282 1.545.282 3.957.282.899.282-10.327.282-24.09 1.128-140.625.282-15.416.846-25.74.282-3.919.564-2.42.282-.171.282 2.217.563 6.97.282 6.335 1.41 44.65.846 22.062.564 11.475.564 9.454 1.128 27.737 1.128 24.492 1.973 28.789.282 1.81.282 2.754.564 6.822.282 1.928.564 5.337.282 1.685.564 7.154.282-2.44.282-14.65.564-61.468.564-75.11.282-20.736.564-15.694.282-5.128.282-1.348.282.26.563-2.64.282 1.82.564 7.726.282 6.412 1.41 46.511 1.128 23.345 1.128 14.99 1.128 14.87.564 4.21.563 6.597.564 7.19.564 6.933.846 14.26 2.256 36.406.282 5.154.282-.401.282-11.466.282-25.281.846-103.852.282-15.076.563-10.524.564-6.038.564-4.524.282-.927.564.11.282 1.387.282 4.859 1.692 46.822 1.128 19.957.564 5.78.564 3.87.282 1.12.281.388.282-.317.282.07.282 1.66.564 5.307.846 5.066.564 5.753.564 8.318.564 12.305.564 11.99 1.128 20.576.846 19.776.282-8.886.282-23.53.845-95.35.282-11.615.846-13.945.282-2.101.564-1.25.282.662.282 2.208.282 3.305.282 4.659.564 16.242.846 31.915.564 16.21.564 18.22 1.127 22.432.282.459.282-1.559.282-2.988.564-11.595.282-7.91.282-11.312 1.128-64.453.282-7.962.282-3.536.282-.258.282.378.282.078.282 1.477.846 10.102.282 6.779.564 27.298 1.127 66.106.282-1.99.282-19.412.846-98.2.282-11.513.282.056.564 5.937 1.41 29.507.564 5.838.564 6.011.282 2.905.282.326.282-1.665.282-.563.281 3.188.846 16.187.564 6.166 1.128 8.693.846 8.17.282 1.678.282 2.999.564 7.701.282 2.272.846 10.38.282 1.52.282 3.305 1.127 19.158 1.128 14.376.564 10.544.282-7.305.846-74.178.282-8.929.846-11.008.282-1.39.282-3.145.564-8.915 1.128-7.058.282.454 1.127 14.184.846 9.46.282.27.282-.018.282 1.07.564 4.376.282.98.282.567.282 2.23.564 5.587.282.43.282 1.66.564 7.575.282 2.103.282 1.223.282.655.282-.19.845-1.797.282.238.564 3.024.282 1.997.282 4.285.846 16.742.282 4.766.282.689.282-10.787.564-38.49.282-8.066.564-3.466.282-1.353.282-.747.282-2.3 1.128-20.186.281-1.924.282-.015.282.942.282 2.187.564 7.677.282.463.282-1.71.282.158.846 9.722.846 5.266 1.41 6.817 1.692 14.06.281 1.43.564 6.16 1.128 10.602.282.967.282.44.282 2.197.564 6.414.846 6.705.564 7.906.282-3.947 1.128-57.033.282-3.403.282-1.765.282-.867.281-1.65 1.41-16.27.282-.86.564 1.975.282 2.274.846 12.991.564 4.708.564 2.667.282.482.282-1.276.564-4.549.564.667.282-.604.282.544.563 7.36.564 5.817.564 6.003.846 10.926.564 5.204.564 7.104.564 5.402.564 6.644.564 4.355.282.892.282-.447.282 1.221.282 3.19.282-1.584.282-12.746.563-35.8.282-8.41 1.128-15.772.564-10.603.564-6.417.282-1.186.282 1.116.564 3.981.282 3.023.564 8.528.564 4.613.564 3.848.846 4.206.282.923.563 3.36.282 1.761.564 2.282 1.692 13.136.564 4.756.846 4.103.564 3.528.564 5.512.564 5.825.564 3.584 1.127 9.579.282-1.263.282-11.01.564-34.956.282-8.246.282-2.898.564-3.042.282-.945.846-5.961.564.317.282-.256.282.018.282 1.193.564 4.541.846 6.818.563 1.295.282 2.172.564 6.485.564 2.61.846 5.895.564 3.002.282.828.282.11.564 1.376.282.21.282.033.564 1.584.282-.465.282-.766.282.175.282-.62.564-2.882.281 2.01.846 10.113.282 3.177.564 10.373.282 1.485.282-7.14.564-28.723.282-9.128.282-4.247.282-2.534.846-2.64.846-5.313.564-1.572.282.9.282-.02.282 3.139.281 1.514h0" clip-path="url(#p034ec98081)" style="fill:none;stroke:#1f77b4;stroke-width:1.5;stroke-linecap:square"/><path id="patch_3" d="M71.308 266.112V0" style="fill:none;stroke:gray;stroke-width:.8;stroke-linejoin:miter;stroke-linecap:square"/><path id="patch_4" d="M685.107 266.112V0" style="fill:none;stroke:#000;stroke-width:.8;stroke-linejoin:miter;stroke-linecap:square"/><path id="patch_5" d="M71.308 266.112h613.8" style="fill:none;stroke:gray;stroke-width:.8;stroke-linejoin:miter;stroke-linecap:square"/><path id="patch_6" d="M71.308 0h613.8" style="fill:none;stroke:#000;stroke-width:.8;stroke-linejoin:miter;stroke-linecap:square"/></g></g><defs><clipPath id="p034ec98081"><path d="M71.308 0h613.8v266.112h-613.8z"/></clipPath></defs></svg>