<svg xmlns="http://www.w3.org/2000/svg" xmlns:xlink="http://www.w3.org/1999/xlink" width="913.477" height="377.053" viewBox="0 0 685.107 282.79"><defs><style>*{stroke-linejoin:round;stroke-linecap:butt}</style></defs><g id="figure_1"><path id="patch_1" d="M0 282.79h685.107V0H0v282.79z" style="fill:none"/><g id="axes_1"><path id="patch_2" d="M71.308 266.112h613.8V0h-613.8v266.112z" style="fill:none"/><g id="matplotlib.axis_1"><g id="xtick_1"><g id="line2d_1"><defs><path id="m81b8d84be9" d="M0 0v3.5" style="stroke:gray;stroke-width:.8"/></defs><use xlink:href="#m81b8d84be9" x="99.207" y="266.112" style="fill:gray;stroke:gray;stroke-width:.8"/></g><g id="text_1" style="fill:gray" transform="matrix(.1 0 0 -.1 96.026 280.71)"><defs><path id="DejaVuSans-30" d="M2034 4250q-487 0-733-480-245-479-245-1442 0-959 245-1439 246-480 733-480 491 0 736 480 246 480 246 1439 0 963-246 1442-245 480-736 480zm0 500q785 0 1199-621 414-620 414-1801 0-1178-414-1799Q2819-91 2034-91q-784 0-1198 620-414 621-414 1799 0 1181 414 1801 414 621 1198 621z" transform="scale(.01563)"/></defs><use xlink:href="#DejaVuSans-30"/></g></g><g id="xtick_2"><use xlink:href="#m81b8d84be9" id="line2d_2" x="168.958" y="266.112" style="fill:gray;stroke:gray;stroke-width:.8"/><g id="text_2" style="fill:gray" transform="matrix(.1 0 0 -.1 159.414 280.71)"><defs><path id="DejaVuSans-35" d="M691 4666h2478v-532H1269V2991q137 47 274 70 138 23 276 23 781 0 1237-428 457-428 457-1159 0-753-469-1171Q2575-91 1722-91q-294 0-599 50Q819 9 494 109v635q281-153 581-228t634-75q541 0 856 284 316 284 316 772 0 487-316 771-315 285-856 285-253 0-505-56-251-56-513-175v2344z" transform="scale(.01563)"/></defs><use xlink:href="#DejaVuSans-35"/><use xlink:href="#DejaVuSans-30" x="63.623"/><use xlink:href="#DejaVuSans-30" x="127.246"/></g></g><g id="xtick_3"><use xlink:href="#m81b8d84be9" id="line2d_3" x="238.708" y="266.112" style="fill:gray;stroke:gray;stroke-width:.8"/><g id="text_3" style="fill:gray" transform="matrix(.1 0 0 -.1 225.982 280.71)"><defs><path id="DejaVuSans-31" d="M794 531h1031v3560L703 3866v575l1116 225h631V531h1031V0H794v531z" transform="scale(.01563)"/></defs><use xlink:href="#DejaVuSans-31"/><use xlink:href="#DejaVuSans-30" x="63.623"/><use xlink:href="#DejaVuSans-30" x="127.246"/><use xlink:href="#DejaVuSans-30" x="190.869"/></g></g><g id="xtick_4"><use xlink:href="#m81b8d84be9" id="line2d_4" x="308.457" y="266.112" style="fill:gray;stroke:gray;stroke-width:.8"/><g id="text_4" style="fill:gray" transform="matrix(.1 0 0 -.1 295.733 280.71)"><use xlink:href="#DejaVuSans-31"/><use xlink:href="#DejaVuSans-35" x="63.623"/><use xlink:href="#DejaVuSans-30" x="127.246"/><use xlink:href="#DejaVuSans-30" x="190.869"/></g></g><g id="xtick_5"><use xlink:href="#m81b8d84be9" id="line2d_5" x="378.207" y="266.112" style="fill:gray;stroke:gray;stroke-width:.8"/><g id="text_5" style="fill:gray" transform="matrix(.1 0 0 -.1 365.483 280.71)"><defs><path id="DejaVuSans-32" d="M1228 531h2203V0H469v531q359 372 979 998 621 627 780 809 303 340 423 576 121 236 121 464 0 372-261 606-261 235-680 235-297 0-627-103-329-103-704-313v638q381 153 712 231 332 78 607 78 725 0 1156-363 431-362 431-968 0-288-108-546-107-257-392-607-78-91-497-524-418-433-1181-1211z" transform="scale(.01563)"/></defs><use xlink:href="#DejaVuSans-32"/><use xlink:href="#DejaVuSans-30" x="63.623"/><use xlink:href="#DejaVuSans-30" x="127.246"/><use xlink:href="#DejaVuSans-30" x="190.869"/></g></g><g id="xtick_6"><use xlink:href="#m81b8d84be9" id="line2d_6" x="447.957" y="266.112" style="fill:gray;stroke:gray;stroke-width:.8"/><g id="text_6" style="fill:gray" transform="matrix(.1 0 0 -.1 435.233 280.71)"><use xlink:href="#DejaVuSans-32"/><use xlink:href="#DejaVuSans-35" x="63.623"/><use xlink:href="#DejaVuSans-30" x="127.246"/><use xlink:href="#DejaVuSans-30" x="190.869"/></g></g><g id="xtick_7"><use xlink:href="#m81b8d84be9" id="line2d_7" x="517.707" y="266.112" style="fill:gray;stroke:gray;stroke-width:.8"/><g id="text_7" style="fill:gray" transform="matrix(.1 0 0 -.1 504.983 280.71)"><defs><path id="DejaVuSans-33" d="M2597 2516q453-97 707-404 255-306 255-756 0-690-475-1069Q2609-91 1734-91q-293 0-604 58T488 141v609q262-153 574-231 313-78 654-78 593 0 904 234t311 681q0 413-289 645-289 233-804 233h-544v519h569q465 0 712 186t247 536q0 359-255 551-254 193-729 193-260 0-557-57-297-56-653-174v562q360 100 674 150t592 50q719 0 1137-327 419-326 419-882 0-388-222-655t-631-370z" transform="scale(.01563)"/></defs><use xlink:href="#DejaVuSans-33"/><use xlink:href="#DejaVuSans-30" x="63.623"/><use xlink:href="#DejaVuSans-30" x="127.246"/><use xlink:href="#DejaVuSans-30" x="190.869"/></g></g><g id="xtick_8"><use xlink:href="#m81b8d84be9" id="line2d_8" x="587.457" y="266.112" style="fill:gray;stroke:gray;stroke-width:.8"/><g id="text_8" style="fill:gray" transform="matrix(.1 0 0 -.1 574.732 280.71)"><use xlink:href="#DejaVuSans-33"/><use xlink:href="#DejaVuSans-35" x="63.623"/><use xlink:href="#DejaVuSans-30" x="127.246"/><use xlink:href="#DejaVuSans-30" x="190.869"/></g></g><g id="xtick_9"><use xlink:href="#m81b8d84be9" id="line2d_9" x="657.207" y="266.112" style="fill:gray;stroke:gray;stroke-width:.8"/><g id="text_9" style="fill:gray" transform="matrix(.1 0 0 -.1 644.482 280.71)"><defs><path id="DejaVuSans-34" d="M2419 4116 825 1625h1594v2491zm-166 550h794V1625h666v-525h-666V0h-628v1100H313v609l1940 2957z" transform="scale(.01563)"/></defs><use xlink:href="#DejaVuSans-34"/><use xlink:href="#DejaVuSans-30" x="63.623"/><use xlink:href="#DejaVuSans-30" x="127.246"/><use xlink:href="#DejaVuSans-30" x="190.869"/></g></g></g><g id="matplotlib.axis_2"><g id="ytick_1"><g id="line2d_10"><defs><path id="m9863b91f51" d="M0 0h-3.5" style="stroke:gray;stroke-width:.8"/></defs><use xlink:href="#m9863b91f51" x="71.308" y="257.162" style="fill:gray;stroke:gray;stroke-width:.8"/></g><g id="text_10" style="fill:gray" transform="matrix(.16 0 0 -.16 0 263.241)"><defs><path id="DejaVuSans-2212" d="M678 2272h4006v-531H678v531z" transform="scale(.01563)"/></defs><use xlink:href="#DejaVuSans-2212"/><use xlink:href="#DejaVuSans-32" x="83.789"/><use xlink:href="#DejaVuSans-30" x="147.412"/><use xlink:href="#DejaVuSans-30" x="211.035"/><use xlink:href="#DejaVuSans-30" x="274.658"/><use xlink:href="#DejaVuSans-30" x="338.281"/></g></g><g id="ytick_2"><use xlink:href="#m9863b91f51" id="line2d_11" x="71.308" y="199.33" style="fill:gray;stroke:gray;stroke-width:.8"/><g id="text_11" style="fill:gray" transform="matrix(.16 0 0 -.16 0 205.409)"><use xlink:href="#DejaVuSans-2212"/><use xlink:href="#DejaVuSans-31" x="83.789"/><use xlink:href="#DejaVuSans-30" x="147.412"/><use xlink:href="#DejaVuSans-30" x="211.035"/><use xlink:href="#DejaVuSans-30" x="274.658"/><use xlink:href="#DejaVuSans-30" x="338.281"/></g></g><g id="ytick_3"><use xlink:href="#m9863b91f51" id="line2d_12" x="71.308" y="141.498" style="fill:gray;stroke:gray;stroke-width:.8"/><use xlink:href="#DejaVuSans-30" id="text_12" style="fill:gray" transform="matrix(.16 0 0 -.16 54.127 147.577)"/></g><g id="ytick_4"><use xlink:href="#m9863b91f51" id="line2d_13" x="71.308" y="83.666" style="fill:gray;stroke:gray;stroke-width:.8"/><g id="text_13" style="fill:gray" transform="matrix(.16 0 0 -.16 13.408 89.744)"><use xlink:href="#DejaVuSans-31"/><use xlink:href="#DejaVuSans-30" x="63.623"/><use xlink:href="#DejaVuSans-30" x="127.246"/><use xlink:href="#DejaVuSans-30" x="190.869"/><use xlink:href="#DejaVuSans-30" x="254.492"/></g></g><g id="ytick_5"><use xlink:href="#m9863b91f51" id="line2d_14" x="71.308" y="25.833" style="fill:gray;stroke:gray;stroke-width:.8"/><g id="text_14" style="fill:gray" transform="matrix(.16 0 0 -.16 13.408 31.912)"><use xlink:href="#DejaVuSans-32"/><use xlink:href="#DejaVuSans-30" x="63.623"/><use xlink:href="#DejaVuSans-30" x="127.246"/><use xlink:href="#DejaVuSans-30" x="190.869"/><use xlink:href="#DejaVuSans-30" x="254.492"/></g></g></g><path id="line2d_15" d="m99.207 141.48.846.034.846-.032.846.03.846-.029.846.03.846-.03.846.03.846-.031.845.033.846-.036.846.04.846-.046.846.055.282-.063.282.07.282-.079.282.09.282-.104.282.125.282-.156.282.183.282-2.514.564 9.355.281.75.564 2.374.282-.556.282-.85.564 4.158.282.62.846-.634.282 1.138.282 2.059.282.813.282-.006.282 1.82.282 2.597.564 1.899.282 3.202.282 1.803.282-4.181.846-26.98.563-33.447.282-7.136.846.202.282 5.361.282 8.602.282 4.966.282-.356.282-.784.282 2.112.846 9.783.846 24.366.282.831.564-3.32.282-.672.282-.981.282-1.501.282.811.282 2.7.281-1.969.282-7.511.282-3.431.282 3.668.282 1.092.282-4.094.282.436.564 10.708.282 1.246.564 10.118.282.295.282-1.137.564 3.653.282-2.485.282-3.917.282-1.95.282.172.282.796.564.099.282 1.705.282.517.281-5.234.564-15.75.846-16.52.564 1.982.846-10.412.282-.03.282.255.282 1.519.282.795.282-2.341.282-1.017.282 5.855.282 8.806.282 4.391.282 1.452.564 10.607.282 1.121.282-3.185.282-.475.281 3.356.282.242.564-10.864.282 1.473.282 3.67.282.106.282-.543.282 4.165.282 6.5.282 2.977.564-1.098.564 1.267.282-.091.282.085.282.428 1.128 2.692.564 3.815.282.745.281-.729.282-1.86.282-4.338.564-20.443.564-17.224.282-4.113.282-2.349.282 1.314.564 10.504.282.64.282-2.063.282-.305.282.967.282-2.079.282-4.4.282.31.846 23.014.282-.12.845-8.978.564 9.218.564 3.41.564 10.603.282-.285.564-6.32.282.43.282 1 .282-.358.282-.833.282 1.713.564 10.883.282 2.585.282 1.503.282 2.73.282.807.564-8.763.282.086.282 3.041.282 1.679.281.529.564 2.22.282.45.282-2.538.282-10.06.564-31.13.564-13.781.282-4.414.282 2.032.564 11.952.282.041.564-2.492.282-1.817.282.594.846 9.647.564 21.942.282 4.601.281-.552.282.23.282.376.564-2.706.282.874.282-.644.282-2.21.282.503.282 3.032.282 1.31.282-.314.564 2.375.564-1.556.564 5.492.282.525.282-.744.282 1.316.282 2.951.282 1.7.282.256.564 1.782.281-2 .282-3.614.282-.708.282 2.194.282.698.282-1.343.282-.238.282-.5.282-6.147.846-35.338.282-3.79.282-1.618.564-5.432.282.756.282 2.123.282-.215.282 1.582.846 24.32.282 1.19.282 8.351.281 12.243.282 4.319.564-10.674.282-1.109.282.484.282-.967.564-3.256.282-.909.282-.294.282 1.387.564 4.797.282.17.282.71.282 2.144.282 1.15.282-.559.282.202.282 1.442.282.695.282.194.564 2.247.281.316.282 1.715.282 2.822.282.175.282-1.898.282.842.282 2.865.282-.237.282-2.635.282-.978.282-2.567.282-10.659.564-29.71.282-6.246.564-3.631.282-.46.564 3.286.282-.303.282-1.593.282.29.564 4.469.282 3.254.281 6.9.846 29.078.282 6.012.282.816.282-1.857.564-.954.282-4.016.282-6.123.282-3.58.282-.356.282.13.282-.077.282 1.024.564 3.041.282 1.2.282 2.718.564 6.994.282 1.348.282.11.282.403.845 4.612.282.321.282 1.548.282 2.234.282 1.205.564.665.282 1.248.282 3.446.282 5.407.282 1.958.282-7.918 1.128-62.925.282-8.38.282-4.157.282-.637.282.647.282 1.431.282 2.22.282.104.563-6.5.282 3.013.846 16.132.564 36.253.282 6.666.564-4.13.282-.574.282-4.648.564-16.308.282.75.282 5.474.282 3.073.282.577.282 3.675.282 6.544.282 3.56.282-.35.282.026.845 4.86.564 2.345.564.143.282 1.328.846 11.1.282-.495.282.326.282 3.305.282 1.706.564-8.927.282-.536.282 1.04.282-4.23.564-23.627.846-37.71.564-9.033.281-1.916.282.072 1.128 3.454.282 2.04.564 8.22.282 5.364.282 10.64.564 27.977.282 3.033.282-1.923.282-1.099.282-.177.282-.933.564-2.956.282-.377 1.128 4.7.563 3.946.564.022.564 1.206.564 2.552.282-.223.282-.644.282 1.757.282 2.66.282-.104.282-1.252.282.97.282.2.564-8.112.282 2.335.282 4.464.282.97.282.348.282 1.956.282-3.104.564-29.982.563-27.87.282-6.63.282.642.282 2.145.564-2.563.282 2.907.282 1.683.564-5.04.282 3.931.564 13.138.564 24.478.282 11.342.282 3.95.282-.136.564.23.282-1.198.846-6.079.281.145.282 1.734.282.893.282-.357.282.585.282 1.75.282.76.282-.508.282.23.564 2.986.564.58.282 1.34.846 5.127 1.128 12.495.282 1.473.564 1.701.282 1.423.282.268.281-3.4.282-8.9 1.41-70.577.282-6.23.282-2.691.846.583.282 1.867.846 7.58.282 4.9.282 10.756.846 48.167.282 3.28.282.985.282-.7.845-16.927.564-1.784.282-.193.282.254.282-2.34.282-3.705.282-.192.282 2.745.564 2.268.282 4.034.846 16.536.282 2.577.282.342.282.158.282 1.9.564 4.726.282 1.1.282.507.282.922.563 2.985.282-.884.282-3.675.282-9.172.846-49.832.846-24.643.282-3.375.564 1.584.564-4.13.282 2.406.564 9.37.282 3.193.282 7.813.846 38.423.282 4.649.282 2.053.281 1.001.282-1.399.564-7.216.282-.69.282-.079.282-.35.282 1.16.282 2.256.282.879.282.18.282 1.35.282.8.282-.558.282 2.554.564 15.621.282 2.912.282.513.846 3.32.564 5.172.282.981.281.288.564 1.7.282-.433.282-2.659.282-7.929.564-36.532.564-37.862.564-20.692.282-2.68.846.213.282 1.842.564 8.02.564 11.632.282 8.43 1.128 51.586.281 1.899.282-.929.564-3.646.282-1.599.282-2.576.282-1.392 1.128 6.37.564 4.99.846 1.611.564 3.313.282 1.979.282 3.1.564 10.877.282.695.564-4.996.281 1.545.564 4.86.282 2.412.564 8.493.282-2.62.282-13.208 1.41-100.79.564-16.599.564-8.037.282-3.15.282-1.523.282.67.282 1.839.282 4.636.282 10.72.564 38.52.563 43.756.282 12.673.282 5.33.282 1.426.282-.585.564-3.777.564-5.985.282-.561.564 3.04.282 1.249.564 4.933.564 2.56.282.63.282-.559.282.957.564 6.81.564-.99.282 2.85.845 11.99.282 3.393 1.128 8.61.282-1.501.282-6.78.282-14.595 1.128-87.782 1.128-45.387.846-16.427.282-1.688.282 3.076.563 13.482.282 12.003.564 52.75.564 44.693.846 27.893.282.626.282-3.847.564-3.712.846-11.33.564 2.023.564 3.222.282-2.575.282-5.033.282-1.102.282 3.582.282 1.88.281-1.55.282 1.447.564 14.271 1.128 10.436.282 2.912.564 11.304.282 2.271.282-.176.282-2.31.282-11.25 1.41-107.493.564-26.95.846-28.125.282-4.138.281-.75.282 2.75.564 12.784.282 10.635.282 17.86.846 75.623.282 13.543.564 13.281.282 2.25.282-.74.564-4.406.846-8.974.282-.638.282 1.046.846 5.081 1.127 8.97 1.128 8.263.564 7.817.282 2.028.564-3.497.282 3.188.564 13.767.282 2.287.282-.13.282-5.842.282-16.708 1.128-89.504.846-46.49.563-22.198.282-3.404.282 1.025.564 4.543.282 3.6.282 7.455.282 12.657.564 41.635.564 45.57.564 21.348.282 5.403.282 3.015.282.701.282-.95.282-2.645.564-6.6.282-.304.564 1.425.281 1.406 1.41 14.701.564 4.99.564 6.712.564 4.302.846 10.996.282 1.068.282 2.597.564 9.021.282.459.282-7.98.564-40.75 1.127-88.656.846-46.365.282-8.714.282-2.995.282-1.383.282-.36.282 1.898.282 3.094.282 4.909.282 10.549.846 56.724.564 38.546.564 19.963.282 4.712.282 1.4.282.101.282.94.282-.127.282-2.238.281.824.846 20.946.282-.155.282 1.607.282 3.48.282 1.731.282.046.282 1.504.846 11.043.282-1.381.282-3.66.282-1.697.282 2.843.564 7.691.282 3.036.564 13.418.282-1.33.282-12.181.563-45 .564-49.374.564-42.33.564-42.196.282-4.728.282.292.282-1.835.282-3.62.282-.788.282 5.433 1.128 42.242 1.128 68.019.282 11.817.846 12.764.281 3.244.282-.356.282.964.564 10.1.282 1.737.282-.625.282-.133.564 2.776.564 3.964.846 6.042 2.256 31.585.564 8.87.282 1.02.281-5.066.282-14.492 1.974-153.78.564-13.259.564-13.799.846-13.727.282-.94.282 3.398.282 9.617 1.692 83.295.845 48.288.564 16.564.282 5.265.564 1.537.282 2.485.282.061.564-5.58.282.072.282-.074.282.147.282 2.811 1.128 17.708 2.537 42.73.282.615.282-9.02.564-48.813 1.41-130.03.846-23.947.282-9.802.282-5.227.282-2.249.282-.608.282 1.585.282 3.872.282 7.601 1.127 50.65.564 21.567 1.41 58.47.846 10.545.564-1.338.282 4.11.282 6.683.282 3.631.282.845.282 1.994 1.128 13.323.564 8.784.282 3.79 1.127 22.686.846 18.745.282 1.863.282-4.927.282-14.673.846-78.89 1.128-107.959.564-18.587.282-12.84.282-4.044.564 15.49.564 3.019.845 23.429.564 17.738.564 21.275.564 16.622.846 33.658.846 18.278.564 10.147.846 9.542.282 2.641.282 1.432.282.137.282.698 1.41 15.553.563 8.758 1.128 13.54.846 16.778.282 2.47.282-5.308.564-46.472.846-73.893.282-28.293.564-26.532.564-30.556.282-7.014.563-2.337.282-.2.282 2.785.282 5.105.282 7.863 1.128 42.29.846 24.77.846 30.45.564 16.096.564 16.179.564 9.247 1.128 9.316.281.361.282 1.154.282 2.279.282 1.223.282.637 1.128 10.545 1.128 18.549.846 19.508.282 1.53.282-8.636.564-49.001 1.128-111.796.563-27.73.282-5.007.564-2.7.282-.987.282-.158.282.701.282 3.441.564 17.862.846 30.658.564 3.538.282 6.996 1.128 37.325 1.128 18.974.282 3.217.281 5.389.564 17.513.282 3.136.282.951.846 9.521.282.584.282 1.606.564 5.574.846 10.763.282 2.544.564 11.933.564 17.008.282 1.396.282-14.628.846-87.18.563-60.494.282-17.67.282-9.752.282-5.582.282-1.795.282.01.564-1.447.282 1.71.282 3.402.282 4.82.564 17.34.564 20.259.564 11.59 1.41 18.662.282 1.87.282.996 1.127 10.52.564 8.174.282 5.423.846 23.644.282 3.533.282 2.088.282 4.362.564 14.71.564 9.038.564 13.666 1.41 20.21.282-3.549.282-14.05.563-52.884.846-94.288.282-10.916.564-8.67.282-1.466.282.068.282 2.337.564 11.92.564 3.36 1.128 22.016.564 7.14.282.54.282 1.034.282 3.724.564 10.045.563 4.477.282 1.48.564 1.366.282 2.815.846 13.696.564 8.372 2.538 52.633.564 12.127.564 8.613.282 2.72.563 13.888.282-3.5.282-15.71.564-53.476.564-65.562.282-12.43 1.692-24.454.282 3.593.282 1.908.282-1.905.282 2.476.846 28.936.846 13.72.282 1.527.281-.34.282.771 1.41 13.191.564 3.965.564 5.697.282 1.148.282 2.484 1.128 12.6.564 6.891.846 20.855.282 2.702.282 4.355.563 11.881.564 1.98.564 11.951.282 1.128.282-4.312.282-8.513.282-19.823.564-64.355.282-11.958.282-.523.282-5.96.282-11.743.282-7.08.282-.664.282.36.282.172.846 4.166.282 2.76 1.127 25.325.282 2.307.282.4.282 1.25.846 8.884 1.128 6.985.282 2.145.564 2.24.282 5.34.282 7.78.282 4.186.282.068.282 1.511.282 4.112.282 1.623.282-2.08.282-.599.845 10.73 1.974 28.977.282-.86.282-9.27 1.128-73.158.282-5.687.846-23.042.282-.055.282-.62.282-3.066.282-.233.564 10.029.563 5.414.564 13.433.846 24.443.282-.32.282.042.282 3.285.282 1.286.564-7.21.282 1.081.282 3.29.282 1.66.282.349.282 1.135.564 3.161.282.556.282 1.308 2.82 26.548.845 12.713.282 3.027.282-.184.282-10.003.564-36.74.564-16.222.564-12.008.564-2.835.282-3.448.282-2.045.564.938.282-2.057.282-3.953.281-2.248.282 2.346 1.41 24.63.564 2.568.282 1.308.282-1.244.282-.557.564 12.496.282 1.17.282-.88.564 9.484.282.022.564-7.12.282.576.846 10.795.563 1.392 1.974 18.384.564 7.338.282-.524.282-9.238.564-26.397.564-13.15.564-8.816.564-5.303.564-3.315.282-1.39.282-.542.282.06.281-.302.282.44.282 2.587.846 11.899.282 1.255.564-8.31.282.216.282 3.135.282.632.282-1.024.282 2.304.564 9.38.282.102.282-.58.282 1.042.282.536.564-6.186.282.91.564 10.3.281 1.448.282 2.36.564 11.636.282 2.053.282.396.282 1.55.846 6.907.846 4.34.282.59.282-1.712.282-3.776.282-5.939.564-16.947.282-4.053.282-2.145.282-5.819.564-14.18.282-1.607 1.127-3.298.282-1.336.282 1.082.846 10.368.564 4.723.282.297.282-.206.282.177.282-.26.282-1.087.282-2.115.564-7.323.282-.213.282 1.642.282.593.282 2.438.564 14.091.282 1.601.281.176L587 151.736l.282 4.628.282 1.662.282-.057.846 5.26.282 1.113.282 2.327.282 1.259.282.037.282 1.723.282 2.557.282-1.613 1.41-34.331.564-5.121.563-5.562.564-2.683.282-.825.282.214.282.448.564-.99.282 2.142.564 7.614.282 2.205.282.623.282-1.203.282-1.741.282-.03.282 1.481.282.675.282-.473.282.112.846 2.336.564 3.272.281.675.282 1.031.564 5.071.564 5.204.282 1.157.282.314.282 1.003.282 1.491.564 1.526.564 2.989.282.204.282 1.246.564 5.99.282.055.282-2.07.282-3.74 1.128-23.963.281-1.482 1.128-9.354.282-.99.282 1.498.564 8.562.282.401.282-.466.564 4.098.282-1.812.282-3.614.282-.997.282.68.564-1.726.564 4.525.282-.449.282-1.457.564-.063.281-.389.282 1.443.282 2.428.564 2.513.564 6.334.282.372.282.946.282 2.172.564 1.662.564 3.465.282-.146.282 2.101.564 9.515.564 2.225.282.653.282-1.407.282-3.58.564-12.37.282-6.749.281-3.797.282-2.17.564-7.145.282-1.644.282-.64.564-2.59.282-.08.564-.76.282 1.498.282 2.385.564 1.55.564 3.982.564 1.086.282.567.282.032.282.56.282 1.587.282.588.282-.853.281-.053.564 1.946.282.385.846 2.83.282.2.564-1.192.282 1.333.282 2.07.564.563.564 7.534.282-.9.282-4.021.282-.55.282 2.877.282.676.282-1.415.282 1.166.282 1.811.282-3.56.281-7.155.282-4.099.282-1.224.282-2.807.282-4.011.282-2.279.282-.453.282.61.282.941.282-.713.282-1.85.282.64.282 2.76.282.884.282-.341.564 3.934.282-.584.282-1.254.282.718.282 1.14.282.063.282-.247.282-.013.282.474.563 2.143.282-.3.282.506.564 3.84.282.265.282.68.564 2.299.282.403.282.178.282-.107.282.704.564 3.5.564.092.282.13.282-1.886.282-3.13.282-1.073.282 2.066.282 2.993.282 1.666.282-.23.281-1.437.282-2.561.564-8.117.282-1.986.282-.577.846-4.394.282-.075.564-2.475.564-.228.282.332.564 3.315.282.6.282 1.391.282 2.217.282.52.282-1.42.282.4.564 3.688.281-.932h0" clip-path="url(#p99aa327e76)" style="fill:none;stroke:#1f77b4;stroke-width:1.5;stroke-linecap:square"/><path id="patch_3" d="M71.308 266.112V0" style="fill:none;stroke:gray;stroke-width:.8;stroke-linejoin:miter;stroke-linecap:square"/><path id="patch_4" d="M685.107 266.112V0" style="fill:none;stroke:#000;stroke-width:.8;stroke-linejoin:miter;stroke-linecap:square"/><path id="patch_5" d="M71.308 266.112h613.8" style="fill:none;stroke:gray;stroke-width:.8;stroke-linejoin:miter;stroke-linecap:square"/><path id="patch_6" d="M71.308 0h613.8" style="fill:none;stroke:#000;stroke-width:.8;stroke-linejoin:miter;stroke-linecap:square"/></g></g><defs><clipPath id="p99aa327e76"><path d="M71.308 0h613.8v266.112h-613.8z"/></clipPath></defs></svg>