<?xml version="1.0" encoding="utf-8" standalone="no"?>
<!DOCTYPE svg PUBLIC "-//W3C//DTD SVG 1.1//EN"
  "http://www.w3.org/Graphics/SVG/1.1/DTD/svg11.dtd">
<svg xmlns:xlink="http://www.w3.org/1999/xlink" width="660.992188pt" height="282.790125pt" viewBox="0 0 660.992188 282.790125" xmlns="http://www.w3.org/2000/svg" version="1.1">
 <metadata>
  <rdf:RDF xmlns:dc="http://purl.org/dc/elements/1.1/" xmlns:cc="http://creativecommons.org/ns#" xmlns:rdf="http://www.w3.org/1999/02/22-rdf-syntax-ns#">
   <cc:Work>
    <dc:type rdf:resource="http://purl.org/dc/dcmitype/StillImage"/>
    <dc:date>2023-03-06T19:25:46.963971</dc:date>
    <dc:format>image/svg+xml</dc:format>
    <dc:creator>
     <cc:Agent>
      <dc:title>Matplotlib v3.6.3, https://matplotlib.org/</dc:title>
     </cc:Agent>
    </dc:creator>
   </cc:Work>
  </rdf:RDF>
 </metadata>
 <defs>
  <style type="text/css">*{stroke-linejoin: round; stroke-linecap: butt}</style>
 </defs>
 <g id="figure_1">
  <g id="patch_1">
   <path d="M -0 282.790125 
L 660.992188 282.790125 
L 660.992188 0 
L -0 0 
L -0 282.790125 
z
" style="fill: none"/>
  </g>
  <g id="axes_1">
   <g id="patch_2">
    <path d="M 47.192188 266.112 
L 660.992188 266.112 
L 660.992188 0 
L 47.192188 0 
L 47.192188 266.112 
z
" style="fill: none"/>
   </g>
   <g id="matplotlib.axis_1">
    <g id="xtick_1">
     <g id="line2d_1">
      <defs>
       <path id="mdce09dec28" d="M 0 0 
L 0 3.5 
" style="stroke: #000000; stroke-width: 0.8"/>
      </defs>
      <g>
       <use xlink:href="#mdce09dec28" x="75.092188" y="266.112" style="stroke: #000000; stroke-width: 0.8"/>
      </g>
     </g>
     <g id="text_1">
      <!-- 0 -->
      <g transform="translate(71.910938 280.710438) scale(0.1 -0.1)">
       <defs>
        <path id="DejaVuSans-30" d="M 2034 4250 
Q 1547 4250 1301 3770 
Q 1056 3291 1056 2328 
Q 1056 1369 1301 889 
Q 1547 409 2034 409 
Q 2525 409 2770 889 
Q 3016 1369 3016 2328 
Q 3016 3291 2770 3770 
Q 2525 4250 2034 4250 
z
M 2034 4750 
Q 2819 4750 3233 4129 
Q 3647 3509 3647 2328 
Q 3647 1150 3233 529 
Q 2819 -91 2034 -91 
Q 1250 -91 836 529 
Q 422 1150 422 2328 
Q 422 3509 836 4129 
Q 1250 4750 2034 4750 
z
" transform="scale(0.015625)"/>
       </defs>
       <use xlink:href="#DejaVuSans-30"/>
      </g>
     </g>
    </g>
    <g id="xtick_2">
     <g id="line2d_2">
      <g>
       <use xlink:href="#mdce09dec28" x="144.842188" y="266.112" style="stroke: #000000; stroke-width: 0.8"/>
      </g>
     </g>
     <g id="text_2">
      <!-- 500 -->
      <g transform="translate(135.298438 280.710438) scale(0.1 -0.1)">
       <defs>
        <path id="DejaVuSans-35" d="M 691 4666 
L 3169 4666 
L 3169 4134 
L 1269 4134 
L 1269 2991 
Q 1406 3038 1543 3061 
Q 1681 3084 1819 3084 
Q 2600 3084 3056 2656 
Q 3513 2228 3513 1497 
Q 3513 744 3044 326 
Q 2575 -91 1722 -91 
Q 1428 -91 1123 -41 
Q 819 9 494 109 
L 494 744 
Q 775 591 1075 516 
Q 1375 441 1709 441 
Q 2250 441 2565 725 
Q 2881 1009 2881 1497 
Q 2881 1984 2565 2268 
Q 2250 2553 1709 2553 
Q 1456 2553 1204 2497 
Q 953 2441 691 2322 
L 691 4666 
z
" transform="scale(0.015625)"/>
       </defs>
       <use xlink:href="#DejaVuSans-35"/>
       <use xlink:href="#DejaVuSans-30" x="63.623047"/>
       <use xlink:href="#DejaVuSans-30" x="127.246094"/>
      </g>
     </g>
    </g>
    <g id="xtick_3">
     <g id="line2d_3">
      <g>
       <use xlink:href="#mdce09dec28" x="214.592188" y="266.112" style="stroke: #000000; stroke-width: 0.8"/>
      </g>
     </g>
     <g id="text_3">
      <!-- 1000 -->
      <g transform="translate(201.867188 280.710438) scale(0.1 -0.1)">
       <defs>
        <path id="DejaVuSans-31" d="M 794 531 
L 1825 531 
L 1825 4091 
L 703 3866 
L 703 4441 
L 1819 4666 
L 2450 4666 
L 2450 531 
L 3481 531 
L 3481 0 
L 794 0 
L 794 531 
z
" transform="scale(0.015625)"/>
       </defs>
       <use xlink:href="#DejaVuSans-31"/>
       <use xlink:href="#DejaVuSans-30" x="63.623047"/>
       <use xlink:href="#DejaVuSans-30" x="127.246094"/>
       <use xlink:href="#DejaVuSans-30" x="190.869141"/>
      </g>
     </g>
    </g>
    <g id="xtick_4">
     <g id="line2d_4">
      <g>
       <use xlink:href="#mdce09dec28" x="284.342188" y="266.112" style="stroke: #000000; stroke-width: 0.8"/>
      </g>
     </g>
     <g id="text_4">
      <!-- 1500 -->
      <g transform="translate(271.617188 280.710438) scale(0.1 -0.1)">
       <use xlink:href="#DejaVuSans-31"/>
       <use xlink:href="#DejaVuSans-35" x="63.623047"/>
       <use xlink:href="#DejaVuSans-30" x="127.246094"/>
       <use xlink:href="#DejaVuSans-30" x="190.869141"/>
      </g>
     </g>
    </g>
    <g id="xtick_5">
     <g id="line2d_5">
      <g>
       <use xlink:href="#mdce09dec28" x="354.092188" y="266.112" style="stroke: #000000; stroke-width: 0.8"/>
      </g>
     </g>
     <g id="text_5">
      <!-- 2000 -->
      <g transform="translate(341.367188 280.710438) scale(0.1 -0.1)">
       <defs>
        <path id="DejaVuSans-32" d="M 1228 531 
L 3431 531 
L 3431 0 
L 469 0 
L 469 531 
Q 828 903 1448 1529 
Q 2069 2156 2228 2338 
Q 2531 2678 2651 2914 
Q 2772 3150 2772 3378 
Q 2772 3750 2511 3984 
Q 2250 4219 1831 4219 
Q 1534 4219 1204 4116 
Q 875 4013 500 3803 
L 500 4441 
Q 881 4594 1212 4672 
Q 1544 4750 1819 4750 
Q 2544 4750 2975 4387 
Q 3406 4025 3406 3419 
Q 3406 3131 3298 2873 
Q 3191 2616 2906 2266 
Q 2828 2175 2409 1742 
Q 1991 1309 1228 531 
z
" transform="scale(0.015625)"/>
       </defs>
       <use xlink:href="#DejaVuSans-32"/>
       <use xlink:href="#DejaVuSans-30" x="63.623047"/>
       <use xlink:href="#DejaVuSans-30" x="127.246094"/>
       <use xlink:href="#DejaVuSans-30" x="190.869141"/>
      </g>
     </g>
    </g>
    <g id="xtick_6">
     <g id="line2d_6">
      <g>
       <use xlink:href="#mdce09dec28" x="423.842188" y="266.112" style="stroke: #000000; stroke-width: 0.8"/>
      </g>
     </g>
     <g id="text_6">
      <!-- 2500 -->
      <g transform="translate(411.117188 280.710438) scale(0.1 -0.1)">
       <use xlink:href="#DejaVuSans-32"/>
       <use xlink:href="#DejaVuSans-35" x="63.623047"/>
       <use xlink:href="#DejaVuSans-30" x="127.246094"/>
       <use xlink:href="#DejaVuSans-30" x="190.869141"/>
      </g>
     </g>
    </g>
    <g id="xtick_7">
     <g id="line2d_7">
      <g>
       <use xlink:href="#mdce09dec28" x="493.592188" y="266.112" style="stroke: #000000; stroke-width: 0.8"/>
      </g>
     </g>
     <g id="text_7">
      <!-- 3000 -->
      <g transform="translate(480.867188 280.710438) scale(0.1 -0.1)">
       <defs>
        <path id="DejaVuSans-33" d="M 2597 2516 
Q 3050 2419 3304 2112 
Q 3559 1806 3559 1356 
Q 3559 666 3084 287 
Q 2609 -91 1734 -91 
Q 1441 -91 1130 -33 
Q 819 25 488 141 
L 488 750 
Q 750 597 1062 519 
Q 1375 441 1716 441 
Q 2309 441 2620 675 
Q 2931 909 2931 1356 
Q 2931 1769 2642 2001 
Q 2353 2234 1838 2234 
L 1294 2234 
L 1294 2753 
L 1863 2753 
Q 2328 2753 2575 2939 
Q 2822 3125 2822 3475 
Q 2822 3834 2567 4026 
Q 2313 4219 1838 4219 
Q 1578 4219 1281 4162 
Q 984 4106 628 3988 
L 628 4550 
Q 988 4650 1302 4700 
Q 1616 4750 1894 4750 
Q 2613 4750 3031 4423 
Q 3450 4097 3450 3541 
Q 3450 3153 3228 2886 
Q 3006 2619 2597 2516 
z
" transform="scale(0.015625)"/>
       </defs>
       <use xlink:href="#DejaVuSans-33"/>
       <use xlink:href="#DejaVuSans-30" x="63.623047"/>
       <use xlink:href="#DejaVuSans-30" x="127.246094"/>
       <use xlink:href="#DejaVuSans-30" x="190.869141"/>
      </g>
     </g>
    </g>
    <g id="xtick_8">
     <g id="line2d_8">
      <g>
       <use xlink:href="#mdce09dec28" x="563.342188" y="266.112" style="stroke: #000000; stroke-width: 0.8"/>
      </g>
     </g>
     <g id="text_8">
      <!-- 3500 -->
      <g transform="translate(550.617188 280.710438) scale(0.1 -0.1)">
       <use xlink:href="#DejaVuSans-33"/>
       <use xlink:href="#DejaVuSans-35" x="63.623047"/>
       <use xlink:href="#DejaVuSans-30" x="127.246094"/>
       <use xlink:href="#DejaVuSans-30" x="190.869141"/>
      </g>
     </g>
    </g>
    <g id="xtick_9">
     <g id="line2d_9">
      <g>
       <use xlink:href="#mdce09dec28" x="633.092188" y="266.112" style="stroke: #000000; stroke-width: 0.8"/>
      </g>
     </g>
     <g id="text_9">
      <!-- 4000 -->
      <g transform="translate(620.367188 280.710438) scale(0.1 -0.1)">
       <defs>
        <path id="DejaVuSans-34" d="M 2419 4116 
L 825 1625 
L 2419 1625 
L 2419 4116 
z
M 2253 4666 
L 3047 4666 
L 3047 1625 
L 3713 1625 
L 3713 1100 
L 3047 1100 
L 3047 0 
L 2419 0 
L 2419 1100 
L 313 1100 
L 313 1709 
L 2253 4666 
z
" transform="scale(0.015625)"/>
       </defs>
       <use xlink:href="#DejaVuSans-34"/>
       <use xlink:href="#DejaVuSans-30" x="63.623047"/>
       <use xlink:href="#DejaVuSans-30" x="127.246094"/>
       <use xlink:href="#DejaVuSans-30" x="190.869141"/>
      </g>
     </g>
    </g>
   </g>
   <g id="matplotlib.axis_2">
    <g id="ytick_1">
     <g id="line2d_10">
      <defs>
       <path id="m4628b627ce" d="M 0 0 
L -3.5 0 
" style="stroke: #000000; stroke-width: 0.8"/>
      </defs>
      <g>
       <use xlink:href="#m4628b627ce" x="47.192188" y="257.162408" style="stroke: #000000; stroke-width: 0.8"/>
      </g>
     </g>
     <g id="text_10">
      <!-- −20000 -->
      <g transform="translate(0 260.961627) scale(0.1 -0.1)">
       <defs>
        <path id="DejaVuSans-2212" d="M 678 2272 
L 4684 2272 
L 4684 1741 
L 678 1741 
L 678 2272 
z
" transform="scale(0.015625)"/>
       </defs>
       <use xlink:href="#DejaVuSans-2212"/>
       <use xlink:href="#DejaVuSans-32" x="83.789062"/>
       <use xlink:href="#DejaVuSans-30" x="147.412109"/>
       <use xlink:href="#DejaVuSans-30" x="211.035156"/>
       <use xlink:href="#DejaVuSans-30" x="274.658203"/>
       <use xlink:href="#DejaVuSans-30" x="338.28125"/>
      </g>
     </g>
    </g>
    <g id="ytick_2">
     <g id="line2d_11">
      <g>
       <use xlink:href="#m4628b627ce" x="47.192188" y="199.330106" style="stroke: #000000; stroke-width: 0.8"/>
      </g>
     </g>
     <g id="text_11">
      <!-- −10000 -->
      <g transform="translate(0 203.129325) scale(0.1 -0.1)">
       <use xlink:href="#DejaVuSans-2212"/>
       <use xlink:href="#DejaVuSans-31" x="83.789062"/>
       <use xlink:href="#DejaVuSans-30" x="147.412109"/>
       <use xlink:href="#DejaVuSans-30" x="211.035156"/>
       <use xlink:href="#DejaVuSans-30" x="274.658203"/>
       <use xlink:href="#DejaVuSans-30" x="338.28125"/>
      </g>
     </g>
    </g>
    <g id="ytick_3">
     <g id="line2d_12">
      <g>
       <use xlink:href="#m4628b627ce" x="47.192188" y="141.497804" style="stroke: #000000; stroke-width: 0.8"/>
      </g>
     </g>
     <g id="text_12">
      <!-- 0 -->
      <g transform="translate(33.829688 145.297023) scale(0.1 -0.1)">
       <use xlink:href="#DejaVuSans-30"/>
      </g>
     </g>
    </g>
    <g id="ytick_4">
     <g id="line2d_13">
      <g>
       <use xlink:href="#m4628b627ce" x="47.192188" y="83.665502" style="stroke: #000000; stroke-width: 0.8"/>
      </g>
     </g>
     <g id="text_13">
      <!-- 10000 -->
      <g transform="translate(8.379688 87.464721) scale(0.1 -0.1)">
       <use xlink:href="#DejaVuSans-31"/>
       <use xlink:href="#DejaVuSans-30" x="63.623047"/>
       <use xlink:href="#DejaVuSans-30" x="127.246094"/>
       <use xlink:href="#DejaVuSans-30" x="190.869141"/>
       <use xlink:href="#DejaVuSans-30" x="254.492188"/>
      </g>
     </g>
    </g>
    <g id="ytick_5">
     <g id="line2d_14">
      <g>
       <use xlink:href="#m4628b627ce" x="47.192188" y="25.833201" style="stroke: #000000; stroke-width: 0.8"/>
      </g>
     </g>
     <g id="text_14">
      <!-- 20000 -->
      <g transform="translate(8.379688 29.632419) scale(0.1 -0.1)">
       <use xlink:href="#DejaVuSans-32"/>
       <use xlink:href="#DejaVuSans-30" x="63.623047"/>
       <use xlink:href="#DejaVuSans-30" x="127.246094"/>
       <use xlink:href="#DejaVuSans-30" x="190.869141"/>
       <use xlink:href="#DejaVuSans-30" x="254.492188"/>
      </g>
     </g>
    </g>
   </g>
   <g id="line2d_15">
    <path d="M 75.092188 141.480424 
L 75.938069 141.513992 
L 76.783951 141.482408 
L 77.629833 141.51271 
L 78.475715 141.483141 
L 79.321596 141.512447 
L 80.167478 141.482963 
L 81.01336 141.513078 
L 81.859242 141.48182 
L 82.705123 141.514854 
L 83.551005 141.479197 
L 84.396887 141.518712 
L 85.242769 141.47336 
L 86.08865 141.528117 
L 86.370611 141.464617 
L 86.652572 141.534607 
L 86.934532 141.456333 
L 87.216493 141.545492 
L 87.498453 141.441512 
L 87.780414 141.566507 
L 88.062374 141.411109 
L 88.344335 141.593985 
L 88.626296 139.079507 
L 89.190217 148.435081 
L 89.472177 149.1842 
L 90.036099 151.558546 
L 90.318059 151.002604 
L 90.60002 150.153141 
L 91.163941 154.310656 
L 91.445901 154.931015 
L 92.291783 154.297426 
L 92.573744 155.434678 
L 92.855704 157.49401 
L 93.137665 158.307261 
L 93.419626 158.300763 
L 93.701586 160.120707 
L 93.983547 162.717873 
L 94.547468 164.616601 
L 94.829429 167.819005 
L 95.111389 169.622239 
L 95.39335 165.440894 
L 96.239231 138.46087 
L 96.803153 105.013792 
L 97.085113 97.878169 
L 97.930995 98.079528 
L 98.212956 103.441436 
L 98.494916 112.042575 
L 98.776877 117.008867 
L 99.058837 116.653463 
L 99.340798 115.869337 
L 99.622758 117.981455 
L 100.46864 127.763541 
L 101.314522 152.130063 
L 101.596483 152.961459 
L 102.160404 149.641199 
L 102.442364 148.969122 
L 102.724325 147.987973 
L 103.006286 146.486864 
L 103.288246 147.298381 
L 103.570207 149.997672 
L 103.852167 148.029172 
L 104.134128 140.517994 
L 104.416088 137.086751 
L 104.698049 140.754539 
L 104.98001 141.8468 
L 105.26197 137.752881 
L 105.543931 138.189026 
L 106.107852 148.896961 
L 106.389813 150.142827 
L 106.953734 160.261272 
L 107.235694 160.556455 
L 107.517655 159.41861 
L 108.081576 163.071892 
L 108.363537 160.587227 
L 108.645497 156.669765 
L 108.927458 154.720585 
L 109.209418 154.891931 
L 109.491379 155.68766 
L 110.0553 155.786509 
L 110.337261 157.492193 
L 110.619221 158.009351 
L 110.901182 152.77529 
L 111.465103 137.025535 
L 112.310985 120.504952 
L 112.874906 122.487087 
L 113.720788 112.074694 
L 114.002748 112.045361 
L 114.284709 112.30009 
L 114.56667 113.81885 
L 114.84863 114.614188 
L 115.130591 112.27265 
L 115.412551 111.256358 
L 115.694512 117.111021 
L 115.976472 125.917472 
L 116.258433 130.308369 
L 116.540394 131.759957 
L 117.104315 142.367239 
L 117.386275 143.488167 
L 117.668236 140.303324 
L 117.950197 139.827763 
L 118.232157 143.183631 
L 118.514118 143.425901 
L 119.078039 132.562273 
L 119.36 134.03538 
L 119.64196 137.704946 
L 119.923921 137.810503 
L 120.205881 137.26832 
L 120.487842 141.433152 
L 120.769802 147.932901 
L 121.051763 150.909703 
L 121.615684 149.811973 
L 122.179605 151.078694 
L 122.461566 150.987725 
L 122.743527 151.07349 
L 123.025487 151.500922 
L 124.153329 154.192815 
L 124.717251 158.007537 
L 124.999211 158.75277 
L 125.281172 158.024191 
L 125.563132 156.163532 
L 125.845093 151.826049 
L 126.409014 131.382619 
L 126.972935 114.158899 
L 127.254896 110.046246 
L 127.536857 107.697416 
L 127.818817 109.010607 
L 128.382738 119.515195 
L 128.664699 120.155346 
L 128.946659 118.092393 
L 129.22862 117.787403 
L 129.510581 118.753975 
L 129.792541 116.675266 
L 130.074502 112.275575 
L 130.356462 112.585134 
L 131.202344 135.599294 
L 131.484305 135.479774 
L 132.330186 126.501166 
L 132.894108 135.718831 
L 133.458029 139.128159 
L 134.02195 149.732201 
L 134.303911 149.447338 
L 134.867832 143.127842 
L 135.149792 143.556113 
L 135.431753 144.556946 
L 135.713714 144.199069 
L 135.995674 143.366302 
L 136.277635 145.079365 
L 136.841556 155.962222 
L 137.123516 158.54672 
L 137.405477 160.049573 
L 137.687438 162.78025 
L 137.969398 163.587193 
L 138.533319 154.823556 
L 138.81528 154.909883 
L 139.097241 157.951483 
L 139.379201 159.629894 
L 139.661162 160.158598 
L 140.225083 162.3781 
L 140.507043 162.829683 
L 140.789004 160.291459 
L 141.070965 150.230657 
L 141.634886 119.100293 
L 142.198807 105.319784 
L 142.480768 100.905972 
L 142.762728 102.938277 
L 143.326649 114.889528 
L 143.60861 114.931486 
L 144.172531 112.438816 
L 144.454492 110.62221 
L 144.736452 111.215832 
L 145.582334 120.862794 
L 146.146255 142.804815 
L 146.428216 147.406408 
L 146.710176 146.854373 
L 146.992137 147.083053 
L 147.274098 147.459799 
L 147.838019 144.753612 
L 148.119979 145.627891 
L 148.40194 144.983788 
L 148.6839 142.774583 
L 148.965861 143.277378 
L 149.247822 146.309085 
L 149.529782 147.619736 
L 149.811743 147.305018 
L 150.375664 149.680086 
L 150.939585 148.124478 
L 151.503506 153.615577 
L 151.785467 154.140673 
L 152.067428 153.396729 
L 152.349388 154.712612 
L 152.631349 157.664044 
L 152.913309 159.364303 
L 153.19527 159.619915 
L 153.759191 161.402348 
L 154.041152 159.401863 
L 154.323112 155.787781 
L 154.605073 155.079556 
L 154.887033 157.274409 
L 155.168994 157.971902 
L 155.450955 156.628627 
L 155.732915 156.391354 
L 156.014876 155.891865 
L 156.296836 149.743873 
L 157.142718 114.405805 
L 157.424679 110.615358 
L 157.706639 108.998396 
L 158.27056 103.566303 
L 158.552521 104.322479 
L 158.834482 106.445333 
L 159.116442 106.229972 
L 159.398403 107.811746 
L 160.244285 132.131444 
L 160.526245 133.322098 
L 160.808206 141.673009 
L 161.090166 153.915898 
L 161.372127 158.234671 
L 161.936048 147.560747 
L 162.218009 146.4522 
L 162.499969 146.935804 
L 162.78193 145.969225 
L 163.345851 142.712666 
L 163.627812 141.804452 
L 163.909772 141.510436 
L 164.191733 142.896678 
L 164.755654 147.694069 
L 165.037614 147.863664 
L 165.319575 148.573881 
L 165.601536 150.718246 
L 165.883496 151.867933 
L 166.165457 151.309033 
L 166.447417 151.510571 
L 166.729378 152.953459 
L 167.011339 153.647811 
L 167.293299 153.842035 
L 167.85722 156.088946 
L 168.139181 156.405003 
L 168.421142 158.120293 
L 168.703102 160.941709 
L 168.985063 161.117171 
L 169.267023 159.219069 
L 169.548984 160.060557 
L 169.830944 162.926212 
L 170.112905 162.689422 
L 170.394866 160.053722 
L 170.676826 159.075583 
L 170.958787 156.508573 
L 171.240747 145.850338 
L 171.804669 116.140202 
L 172.086629 109.894034 
L 172.65055 106.262761 
L 172.932511 105.802173 
L 173.496432 109.088711 
L 173.778393 108.78569 
L 174.060353 107.193366 
L 174.342314 107.483103 
L 174.906235 111.95179 
L 175.188196 115.205779 
L 175.470156 122.106819 
L 176.316038 151.183968 
L 176.597999 157.195718 
L 176.879959 158.011848 
L 177.16192 156.154583 
L 177.725841 155.201257 
L 178.007801 151.185489 
L 178.289762 145.062241 
L 178.571723 141.481816 
L 178.853683 141.12559 
L 179.135644 141.255179 
L 179.417604 141.178936 
L 179.699565 142.202709 
L 180.263486 145.24424 
L 180.545447 146.443122 
L 180.827407 149.161724 
L 181.391328 156.156394 
L 181.673289 157.503554 
L 181.95525 157.613246 
L 182.23721 158.016526 
L 183.083092 162.628922 
L 183.365053 162.950099 
L 183.647013 164.497723 
L 183.928974 166.732271 
L 184.210934 167.936631 
L 184.774856 168.601593 
L 185.056816 169.850066 
L 185.338777 173.29649 
L 185.620737 178.702935 
L 185.902698 180.661478 
L 186.184658 172.743117 
L 187.312501 109.818084 
L 187.594461 101.437845 
L 187.876422 97.281378 
L 188.158383 96.643942 
L 188.440343 97.290562 
L 188.722304 98.722232 
L 189.004264 100.942845 
L 189.286225 101.045929 
L 189.850146 94.545912 
L 190.132107 97.559038 
L 190.977988 113.690768 
L 191.54191 149.943831 
L 191.82387 156.610346 
L 192.387791 152.480216 
L 192.669752 151.905638 
L 192.951713 147.258047 
L 193.515634 130.950351 
L 193.797594 131.699548 
L 194.079555 137.174373 
L 194.361515 140.246826 
L 194.643476 140.824308 
L 194.925437 144.499495 
L 195.207397 151.043275 
L 195.489358 154.602356 
L 195.771318 154.252851 
L 196.053279 154.278923 
L 196.899161 159.13933 
L 197.463082 161.483859 
L 198.027003 161.627349 
L 198.308964 162.954587 
L 199.154845 174.054212 
L 199.436806 173.560308 
L 199.718767 173.88552 
L 200.000727 177.190773 
L 200.282688 178.89741 
L 200.846609 169.970227 
L 201.12857 169.434334 
L 201.41053 170.473708 
L 201.692491 166.243078 
L 202.256412 142.616808 
L 203.102294 104.907087 
L 203.666215 95.873548 
L 203.948175 93.958288 
L 204.230136 94.030359 
L 205.357978 97.484048 
L 205.639939 99.524404 
L 206.20386 107.743376 
L 206.485821 113.108246 
L 206.767781 123.748888 
L 207.331702 151.724783 
L 207.613663 154.75756 
L 207.895624 152.834878 
L 208.177584 151.736065 
L 208.459545 151.559126 
L 208.741505 150.626001 
L 209.305427 147.670101 
L 209.587387 147.293425 
L 210.715229 151.99321 
L 211.279151 155.939413 
L 211.843072 155.960731 
L 212.406993 157.166848 
L 212.970914 159.718625 
L 213.252875 159.49594 
L 213.534835 158.851744 
L 213.816796 160.608803 
L 214.098756 163.269286 
L 214.380717 163.165049 
L 214.662678 161.913308 
L 214.944638 162.882203 
L 215.226599 163.083285 
L 215.79052 154.971093 
L 216.072481 157.306004 
L 216.354441 161.770409 
L 216.636402 162.740341 
L 216.918362 163.088056 
L 217.200323 165.043665 
L 217.482284 161.940022 
L 218.046205 131.957523 
L 218.610126 104.088048 
L 218.892086 97.458377 
L 219.174047 98.099654 
L 219.456008 100.244535 
L 220.019929 97.682214 
L 220.301889 100.589288 
L 220.58385 102.27179 
L 221.147771 97.23202 
L 221.429732 101.163054 
L 221.993653 114.301215 
L 222.557574 138.778752 
L 222.839535 150.120519 
L 223.121495 154.070359 
L 223.403456 153.934616 
L 223.967377 154.165796 
L 224.249338 152.967044 
L 225.095219 146.888031 
L 225.37718 147.032934 
L 225.659141 148.766671 
L 225.941101 149.659503 
L 226.223062 149.302733 
L 226.505022 149.887687 
L 226.786983 151.637598 
L 227.068943 152.398677 
L 227.350904 151.890148 
L 227.632865 152.119673 
L 228.196786 155.106108 
L 228.760707 155.686912 
L 229.042668 157.025294 
L 229.888549 162.153421 
L 231.016392 174.647676 
L 231.298352 176.120582 
L 231.862273 177.822302 
L 232.144234 179.245468 
L 232.426195 179.51269 
L 232.708155 176.112083 
L 232.990116 167.212181 
L 234.399919 96.636283 
L 234.681879 90.406854 
L 234.96384 87.714803 
L 235.809722 88.297984 
L 236.091682 90.16496 
L 236.937564 97.7447 
L 237.219525 102.645656 
L 237.501485 113.401073 
L 238.347367 161.567718 
L 238.629327 164.847996 
L 238.911288 165.833132 
L 239.193249 165.132539 
L 240.03913 148.20598 
L 240.603052 146.422382 
L 240.885012 146.22882 
L 241.166973 146.482938 
L 241.448933 144.142609 
L 241.730894 140.437898 
L 242.012855 140.245607 
L 242.294815 142.990897 
L 242.858736 145.259486 
L 243.140697 149.293084 
L 243.986579 165.829008 
L 244.268539 168.406121 
L 244.5505 168.748044 
L 244.83246 168.905797 
L 245.114421 170.80633 
L 245.678342 175.532448 
L 245.960303 176.631729 
L 246.242263 177.139351 
L 246.524224 178.06136 
L 247.088145 181.045999 
L 247.370106 180.161527 
L 247.652066 176.486831 
L 247.934027 167.315072 
L 248.779909 117.483496 
L 249.62579 92.839731 
L 249.907751 89.465295 
L 250.471672 91.04877 
L 251.035593 86.919654 
L 251.317554 89.325451 
L 251.881475 98.694303 
L 252.163436 101.888441 
L 252.445396 109.701022 
L 253.291278 148.124468 
L 253.573239 152.77263 
L 253.855199 154.825674 
L 254.13716 155.827149 
L 254.41912 154.428117 
L 254.983041 147.212001 
L 255.265002 146.522421 
L 255.546963 146.443082 
L 255.828923 146.093138 
L 256.110884 147.253603 
L 256.392844 149.508643 
L 256.674805 150.387556 
L 256.956766 150.568213 
L 257.238726 151.918305 
L 257.520687 152.718043 
L 257.802647 152.160423 
L 258.084608 154.714404 
L 258.648529 170.335194 
L 258.93049 173.247281 
L 259.21245 173.760106 
L 260.058332 177.079118 
L 260.622253 182.252417 
L 260.904214 183.233089 
L 261.186174 183.520764 
L 261.750096 185.220987 
L 262.032056 184.787607 
L 262.314017 182.129315 
L 262.595977 174.200396 
L 263.159898 137.668253 
L 263.72382 99.805806 
L 264.287741 79.11352 
L 264.569701 76.433692 
L 265.415583 76.647409 
L 265.697544 78.488568 
L 266.261465 86.508726 
L 266.825386 98.141458 
L 267.107347 106.571245 
L 268.235189 158.156742 
L 268.51715 160.055976 
L 268.79911 159.127159 
L 269.363031 155.481447 
L 269.644992 153.8825 
L 269.926953 151.305834 
L 270.208913 149.913739 
L 271.336755 156.284401 
L 271.900677 161.273827 
L 272.746558 162.885009 
L 273.31048 166.197642 
L 273.59244 168.176845 
L 273.874401 171.276971 
L 274.438322 182.154078 
L 274.720282 182.849394 
L 275.284204 177.852665 
L 275.566164 179.398303 
L 276.130085 184.258314 
L 276.412046 186.670093 
L 276.975967 195.16283 
L 277.257928 192.543289 
L 277.539888 179.334755 
L 278.949691 78.544109 
L 279.513612 61.946457 
L 280.077534 53.909422 
L 280.359494 50.759518 
L 280.641455 49.235939 
L 280.923415 49.90545 
L 281.205376 51.744747 
L 281.487337 56.381463 
L 281.769297 67.101108 
L 282.333218 105.621843 
L 282.897139 149.377024 
L 283.1791 162.050042 
L 283.461061 167.380439 
L 283.743021 168.805846 
L 284.024982 168.220596 
L 284.588903 164.443798 
L 285.152824 158.458591 
L 285.434785 157.897663 
L 285.998706 160.937162 
L 286.280667 162.186917 
L 286.844588 167.1198 
L 287.408509 169.680044 
L 287.690469 170.30984 
L 287.97243 169.751433 
L 288.254391 170.708333 
L 288.818312 177.518746 
L 289.382233 176.528627 
L 289.664194 179.377256 
L 290.510075 191.368734 
L 290.792036 194.761409 
L 291.919878 203.371661 
L 292.201839 201.86991 
L 292.483799 195.089645 
L 292.76576 180.494987 
L 293.893602 92.712917 
L 295.021445 47.326445 
L 295.867326 30.899232 
L 296.149287 29.211165 
L 296.431248 32.287045 
L 296.995169 45.769158 
L 297.277129 57.772405 
L 297.841051 110.52263 
L 298.404972 155.215134 
L 299.250853 183.107733 
L 299.532814 183.734188 
L 299.814775 179.886886 
L 300.378696 176.175014 
L 301.224578 164.84448 
L 301.788499 166.867902 
L 302.35242 170.089558 
L 302.634381 167.515256 
L 302.916341 162.482182 
L 303.198302 161.379535 
L 303.480262 164.961523 
L 303.762223 166.842103 
L 304.044183 165.291915 
L 304.326144 166.738857 
L 304.890065 181.010027 
L 306.017908 191.446275 
L 306.299868 194.357594 
L 306.863789 205.662081 
L 307.14575 207.933233 
L 307.42771 207.757023 
L 307.709671 205.446526 
L 307.991632 194.197883 
L 309.401435 86.70409 
L 309.965356 59.753708 
L 310.811238 31.628857 
L 311.093198 27.491266 
L 311.375159 26.740254 
L 311.657119 29.491654 
L 312.22104 42.27525 
L 312.503001 52.910325 
L 312.784962 70.770935 
L 313.630843 146.393016 
L 313.912804 159.936239 
L 314.476725 173.217096 
L 314.758686 175.466502 
L 315.040646 174.727068 
L 315.604567 170.321148 
L 316.450449 161.346897 
L 316.73241 160.708916 
L 317.01437 161.754997 
L 317.860252 166.836433 
L 318.988095 175.80585 
L 320.115937 184.068967 
L 320.679858 191.885553 
L 320.961819 193.913747 
L 321.52574 190.417473 
L 321.8077 193.60452 
L 322.371622 207.371571 
L 322.653582 209.658629 
L 322.935543 209.528147 
L 323.217503 203.686599 
L 323.499464 186.978739 
L 324.627306 97.4749 
L 325.473188 50.985943 
L 326.037109 28.786565 
L 326.31907 25.383129 
L 326.60103 26.407593 
L 327.164952 30.950801 
L 327.446912 34.551206 
L 327.728873 42.006182 
L 328.010833 54.663473 
L 328.574754 96.29842 
L 329.138676 141.868598 
L 329.702597 163.216253 
L 329.984557 168.618756 
L 330.266518 171.634317 
L 330.548479 172.335313 
L 330.830439 171.385833 
L 331.1124 168.74036 
L 331.676321 162.139573 
L 331.958281 161.835831 
L 332.522203 163.261205 
L 332.804163 164.666707 
L 334.213966 179.368238 
L 334.777887 184.358193 
L 335.341809 191.070216 
L 335.90573 195.372253 
L 336.751611 206.367967 
L 337.033572 207.435798 
L 337.315533 210.033099 
L 337.879454 219.054251 
L 338.161414 219.512528 
L 338.443375 211.533386 
L 339.007296 170.782939 
L 340.135138 82.127122 
L 340.98102 35.761722 
L 341.262981 27.048469 
L 341.544941 24.053182 
L 341.826902 22.669932 
L 342.108863 22.30968 
L 342.390823 24.208375 
L 342.672784 27.30186 
L 342.954744 32.210587 
L 343.236705 42.759853 
L 344.082587 99.484272 
L 344.646508 138.02967 
L 345.210429 157.9928 
L 345.49239 162.705182 
L 345.77435 164.10586 
L 346.056311 164.206263 
L 346.338271 165.146799 
L 346.620232 165.019268 
L 346.902193 162.781422 
L 347.184153 163.604831 
L 348.030035 184.550767 
L 348.311995 184.395638 
L 348.593956 186.002675 
L 348.875917 189.48362 
L 349.157877 191.213973 
L 349.439838 191.260001 
L 349.721798 192.763611 
L 350.56768 203.806899 
L 350.849641 202.425538 
L 351.131601 198.765544 
L 351.413562 197.069217 
L 351.695523 199.912329 
L 352.259444 207.603383 
L 352.541404 210.639257 
L 353.105325 224.057001 
L 353.387286 222.727554 
L 353.669247 210.545717 
L 354.233168 165.546033 
L 354.797089 116.171796 
L 355.36101 73.841905 
L 355.924931 31.646089 
L 356.206892 26.917878 
L 356.488852 27.210159 
L 356.770813 25.374682 
L 357.052774 21.755869 
L 357.334734 20.966993 
L 357.616695 26.400323 
L 358.744537 68.641672 
L 359.87238 136.660504 
L 360.15434 148.478018 
L 361.000222 161.242223 
L 361.282182 164.485999 
L 361.564143 164.129792 
L 361.846104 165.094089 
L 362.410025 175.194904 
L 362.691985 176.930996 
L 362.973946 176.306119 
L 363.255907 176.173465 
L 363.819828 178.948962 
L 364.383749 182.913247 
L 365.229631 188.954796 
L 367.485315 220.539985 
L 368.049237 229.409384 
L 368.331197 230.430029 
L 368.613158 225.363609 
L 368.895118 210.872183 
L 370.868842 57.09123 
L 371.432764 43.833451 
L 371.996685 30.034281 
L 372.842566 16.307168 
L 373.124527 15.366239 
L 373.406488 18.764507 
L 373.688448 28.381788 
L 375.380212 111.676652 
L 376.226094 159.9652 
L 376.790015 176.528922 
L 377.071975 181.794498 
L 377.635896 183.331496 
L 377.917857 185.816065 
L 378.199818 185.877477 
L 378.763739 180.296705 
L 379.045699 180.369447 
L 379.32766 180.295173 
L 379.609621 180.441698 
L 379.891581 183.25318 
L 381.019423 200.960896 
L 383.557069 243.691011 
L 383.839029 244.305712 
L 384.12099 235.286213 
L 384.684911 186.473482 
L 386.094714 56.442594 
L 386.940596 32.49638 
L 387.222556 22.693555 
L 387.504517 17.466897 
L 387.786478 15.218274 
L 388.068438 14.610476 
L 388.350399 16.195085 
L 388.632359 20.066726 
L 388.91432 27.668477 
L 390.042162 78.318533 
L 390.606083 99.884583 
L 392.015886 158.354782 
L 392.861768 168.900277 
L 393.425689 167.561654 
L 393.70765 171.672669 
L 393.98961 178.354837 
L 394.271571 181.986373 
L 394.553532 182.830865 
L 394.835492 184.825088 
L 395.963335 198.148393 
L 396.527256 206.932297 
L 396.809216 210.721641 
L 397.937059 233.408291 
L 398.78294 252.153339 
L 399.064901 254.016 
L 399.346862 249.088521 
L 399.628822 234.416433 
L 400.474704 155.526789 
L 401.602546 47.567119 
L 402.166467 28.97975 
L 402.448428 16.140332 
L 402.730389 12.096 
L 403.29431 27.586892 
L 403.858231 30.604603 
L 404.704113 54.033829 
L 405.268034 71.771885 
L 405.831955 93.04714 
L 406.395876 109.668643 
L 407.241758 143.326604 
L 408.08764 161.604964 
L 408.651561 171.752395 
L 409.497443 181.294314 
L 409.779403 183.935418 
L 410.061364 185.366702 
L 410.343324 185.503671 
L 410.625285 186.201772 
L 412.035088 201.755128 
L 412.599009 210.512597 
L 413.726851 224.052926 
L 414.572733 240.831359 
L 414.854694 243.301216 
L 415.136654 237.992593 
L 415.700576 191.521019 
L 416.546457 117.627683 
L 416.828418 89.335325 
L 417.392339 62.803105 
L 417.95626 32.2473 
L 418.238221 25.233414 
L 418.802142 22.89641 
L 419.084103 22.695655 
L 419.366063 25.480535 
L 419.648024 30.585948 
L 419.929984 38.449133 
L 421.057827 80.739089 
L 421.903708 105.509608 
L 422.74959 135.959414 
L 423.313511 152.055159 
L 423.877433 168.234037 
L 424.441354 177.480617 
L 425.569196 186.796975 
L 425.851157 187.158023 
L 426.133117 188.312135 
L 426.415078 190.591042 
L 426.697038 191.814061 
L 426.978999 192.450883 
L 428.106841 202.996257 
L 429.234684 221.544981 
L 430.080565 241.053308 
L 430.362526 242.582065 
L 430.644487 233.946664 
L 431.208408 184.945892 
L 432.33625 73.150204 
L 432.900171 45.419654 
L 433.182132 40.413494 
L 433.746053 37.712655 
L 434.028014 36.72593 
L 434.309974 36.568263 
L 434.591935 37.269444 
L 434.873895 40.709988 
L 435.437817 58.571955 
L 436.283698 89.23004 
L 436.84762 92.767545 
L 437.12958 99.764178 
L 438.257422 137.08922 
L 439.385265 156.063493 
L 439.667225 159.279638 
L 439.949186 164.668511 
L 440.513107 182.182375 
L 440.795068 185.31778 
L 441.077028 186.269253 
L 441.92291 195.790413 
L 442.204871 196.37364 
L 442.486831 197.979768 
L 443.050752 203.554356 
L 443.896634 214.317372 
L 444.178595 216.86104 
L 444.742516 228.793675 
L 445.306437 245.801947 
L 445.588398 247.198475 
L 445.870358 232.570089 
L 446.71624 145.390664 
L 447.280161 84.895899 
L 447.562122 67.226164 
L 447.844082 57.473841 
L 448.126043 51.892005 
L 448.408004 50.097216 
L 448.689964 50.106707 
L 449.253885 48.659634 
L 449.535846 50.369361 
L 449.817806 53.771857 
L 450.099767 58.592422 
L 450.663688 75.931168 
L 451.227609 96.190715 
L 451.791531 107.780211 
L 453.201334 126.44272 
L 453.483294 128.313333 
L 453.765255 129.308879 
L 454.893097 139.829312 
L 455.457018 148.002719 
L 455.738979 153.426235 
L 456.584861 177.070429 
L 456.866821 180.60275 
L 457.148782 182.69111 
L 457.430742 187.05262 
L 457.994663 201.76248 
L 458.558585 210.800535 
L 459.122506 224.466786 
L 460.532309 244.677641 
L 460.814269 241.128281 
L 461.09623 227.078167 
L 461.660151 174.193811 
L 462.506033 79.90591 
L 462.787993 68.989574 
L 463.351915 60.320549 
L 463.633875 58.853665 
L 463.915836 58.92211 
L 464.197796 61.258532 
L 464.761718 73.179505 
L 465.325639 76.538922 
L 466.453481 98.555369 
L 467.017402 105.69535 
L 467.299363 106.235598 
L 467.581323 107.269392 
L 467.863284 110.993303 
L 468.427205 121.038375 
L 468.991126 125.514633 
L 469.273087 126.9956 
L 469.837008 128.3606 
L 470.118969 131.176171 
L 470.96485 144.872025 
L 471.528772 153.243629 
L 474.066417 205.876585 
L 474.630338 218.004438 
L 475.194259 226.616579 
L 475.47622 229.336359 
L 476.040141 243.224995 
L 476.322102 239.725492 
L 476.604062 224.015262 
L 477.167983 170.538868 
L 477.731905 104.977305 
L 478.013865 92.546817 
L 479.705629 68.093024 
L 479.987589 71.686485 
L 480.26955 73.594259 
L 480.55151 71.68856 
L 480.833471 74.164537 
L 481.679353 103.101151 
L 482.525234 116.820178 
L 482.807195 118.347569 
L 483.089156 118.00863 
L 483.371116 118.779261 
L 484.780919 131.97021 
L 485.34484 135.934666 
L 485.908762 141.63152 
L 486.190722 142.779622 
L 486.472683 145.264288 
L 487.600525 157.864101 
L 488.164446 164.755255 
L 489.010328 185.610053 
L 489.292289 188.312148 
L 489.574249 192.667071 
L 490.13817 204.548279 
L 490.702091 206.528326 
L 491.266013 218.47949 
L 491.547973 219.606996 
L 491.829934 215.29536 
L 492.111894 206.782456 
L 492.393855 186.958545 
L 492.957776 122.604285 
L 493.239737 110.646239 
L 493.521697 110.12285 
L 493.803658 104.163394 
L 494.085619 92.420226 
L 494.367579 85.34 
L 494.64954 84.675577 
L 494.9315 85.035243 
L 495.213461 85.208096 
L 496.059343 89.374114 
L 496.341303 92.133588 
L 497.469146 117.458838 
L 497.751106 119.765718 
L 498.033067 120.165137 
L 498.315027 121.416192 
L 499.160909 130.299793 
L 500.288751 137.285071 
L 500.570712 139.429529 
L 501.134633 141.670547 
L 501.416594 147.010072 
L 501.698554 154.789258 
L 501.980515 158.975776 
L 502.262476 159.043844 
L 502.544436 160.555344 
L 502.826397 164.66677 
L 503.108357 166.290211 
L 503.390318 164.210369 
L 503.672278 163.611069 
L 504.51816 174.341694 
L 506.491884 203.317997 
L 506.773845 202.458645 
L 507.055805 193.187828 
L 508.183648 120.030139 
L 508.465608 114.343245 
L 509.31149 91.301357 
L 509.593451 91.245714 
L 509.875411 90.626667 
L 510.157372 87.560211 
L 510.439333 87.326829 
L 511.003254 97.355596 
L 511.567175 102.770073 
L 512.131096 116.203126 
L 512.976978 140.646294 
L 513.258938 140.325096 
L 513.540899 140.368022 
L 513.82286 143.652926 
L 514.10482 144.938635 
L 514.668741 137.729647 
L 514.950702 138.8104 
L 515.232662 142.10028 
L 515.514623 143.759532 
L 515.796584 144.108954 
L 516.078544 145.243774 
L 516.642465 148.405481 
L 516.924426 148.96106 
L 517.206387 150.269387 
L 520.025992 176.817305 
L 520.871874 189.530141 
L 521.153835 192.557493 
L 521.435795 192.372863 
L 521.717756 182.369648 
L 522.281677 145.629778 
L 522.845598 129.407698 
L 523.409519 117.399518 
L 523.973441 114.565477 
L 524.255401 111.117462 
L 524.537362 109.071641 
L 525.101283 110.00983 
L 525.383244 107.952854 
L 525.665204 104.000254 
L 525.947165 101.751671 
L 526.229125 104.097642 
L 527.638928 128.727989 
L 528.202849 131.295747 
L 528.48481 132.604043 
L 528.766771 131.359856 
L 529.048731 130.803074 
L 529.612652 143.298619 
L 529.894613 144.469225 
L 530.176574 143.588577 
L 530.740495 153.073456 
L 531.022455 153.095247 
L 531.586376 145.974723 
L 531.868337 146.550844 
L 532.714219 157.346446 
L 533.27814 158.737704 
L 535.251864 177.122004 
L 535.815785 184.459652 
L 536.097746 183.936284 
L 536.379706 174.698118 
L 536.943628 148.301115 
L 537.507549 135.151812 
L 538.07147 126.335315 
L 538.635391 121.031822 
L 539.199312 117.71735 
L 539.481273 116.327045 
L 539.763233 115.784597 
L 540.045194 115.844319 
L 540.327155 115.54271 
L 540.609115 115.982561 
L 540.891076 118.569589 
L 541.736958 130.469028 
L 542.018918 131.724457 
L 542.582839 123.413532 
L 542.8648 123.63033 
L 543.146761 126.764985 
L 543.428721 127.396847 
L 543.710682 126.373193 
L 543.992642 128.677034 
L 544.556563 138.057747 
L 544.838524 138.158537 
L 545.120485 137.578505 
L 545.402445 138.621307 
L 545.684406 139.157267 
L 546.248327 132.970999 
L 546.530288 133.881044 
L 547.094209 144.181131 
L 547.376169 145.629307 
L 547.65813 147.989832 
L 548.222051 159.625308 
L 548.504012 161.678405 
L 548.785972 162.074201 
L 549.067933 163.623419 
L 549.913815 170.53135 
L 550.759696 174.870926 
L 551.041657 175.461234 
L 551.323618 173.749165 
L 551.605578 169.972826 
L 551.887539 164.033969 
L 552.45146 147.086692 
L 552.73342 143.033656 
L 553.015381 140.888507 
L 553.297342 135.070159 
L 553.861263 120.889743 
L 554.143223 119.28294 
L 555.271066 115.984539 
L 555.553026 114.649371 
L 555.834987 115.730864 
L 556.680869 126.098655 
L 557.24479 130.821505 
L 557.52675 131.118931 
L 557.808711 130.913395 
L 558.090672 131.090215 
L 558.372632 130.830509 
L 558.654593 129.742904 
L 558.936553 127.627573 
L 559.500475 120.304903 
L 559.782435 120.092451 
L 560.064396 121.733513 
L 560.346356 122.326938 
L 560.628317 124.765487 
L 561.192238 138.856311 
L 561.474199 140.457083 
L 561.756159 140.632987 
L 562.884002 151.735547 
L 563.165962 156.363621 
L 563.447923 158.025587 
L 563.729883 157.968768 
L 564.575765 163.228358 
L 564.857726 164.34173 
L 565.139686 166.668757 
L 565.421647 167.928007 
L 565.703607 167.965353 
L 565.985568 169.688051 
L 566.267529 172.245223 
L 566.549489 170.63154 
L 567.959292 136.300794 
L 568.523213 131.179701 
L 569.087134 125.617805 
L 569.651056 122.934823 
L 569.933016 122.110343 
L 570.214977 122.324038 
L 570.496937 122.772494 
L 571.060859 121.78236 
L 571.342819 123.923566 
L 571.90674 131.537582 
L 572.188701 133.743284 
L 572.470661 134.365785 
L 572.752622 133.162557 
L 573.034583 131.421653 
L 573.316543 131.392192 
L 573.598504 132.873266 
L 573.880464 133.5485 
L 574.162425 133.075268 
L 574.444386 133.187013 
L 575.290267 135.523097 
L 575.854189 138.794849 
L 576.136149 139.470031 
L 576.41811 140.501369 
L 576.982031 145.572357 
L 577.545952 150.775786 
L 577.827913 151.933016 
L 578.109873 152.247058 
L 578.391834 153.250092 
L 578.673794 154.741046 
L 579.237716 156.266965 
L 579.801637 159.255867 
L 580.083597 159.460272 
L 580.365558 160.706436 
L 580.929479 166.695122 
L 581.21144 166.751249 
L 581.4934 164.680664 
L 581.775361 160.941591 
L 582.903203 136.978498 
L 583.185164 135.496121 
L 584.313006 126.142259 
L 584.594967 125.152741 
L 584.876927 126.650222 
L 585.440848 135.212269 
L 585.722809 135.613031 
L 586.00477 135.147003 
L 586.568691 139.244732 
L 586.850651 137.432544 
L 587.132612 133.818605 
L 587.414573 132.822161 
L 587.696533 133.502702 
L 588.260454 131.776091 
L 588.824375 136.300753 
L 589.106336 135.852149 
L 589.388297 134.395257 
L 589.952218 134.332008 
L 590.234178 133.943052 
L 590.516139 135.385661 
L 590.7981 137.814128 
L 591.362021 140.326797 
L 591.925942 146.660963 
L 592.207903 147.032679 
L 592.489863 147.979251 
L 592.771824 150.151461 
L 593.335745 151.812575 
L 593.899666 155.277962 
L 594.181627 155.132219 
L 594.463587 157.233264 
L 595.027508 166.747794 
L 595.59143 168.973141 
L 595.87339 169.625736 
L 596.155351 168.219094 
L 596.437311 164.639254 
L 597.001232 152.269067 
L 597.283193 145.520415 
L 597.565154 141.72254 
L 597.847114 139.553399 
L 598.411035 132.407565 
L 598.692996 130.764359 
L 598.974957 130.123656 
L 599.538878 127.533326 
L 599.820838 127.454785 
L 600.38476 126.693145 
L 600.66672 128.192001 
L 600.948681 130.577491 
L 601.512602 132.127498 
L 602.076523 136.109194 
L 602.640444 137.194918 
L 602.922405 137.762027 
L 603.204365 137.793903 
L 603.486326 138.353926 
L 603.768287 139.940739 
L 604.050247 140.528502 
L 604.332208 139.675723 
L 604.614168 139.622538 
L 605.178089 141.568549 
L 605.46005 141.954293 
L 606.305932 144.784401 
L 606.587892 144.984186 
L 607.151814 143.79155 
L 607.433774 145.12517 
L 607.715735 147.195706 
L 608.279656 147.75823 
L 608.843577 155.292399 
L 609.125538 154.391326 
L 609.407498 150.37077 
L 609.689459 149.821159 
L 609.971419 152.698402 
L 610.25338 153.374271 
L 610.535341 151.958542 
L 610.817301 153.12478 
L 611.099262 154.93597 
L 611.381222 151.375869 
L 611.663183 144.220665 
L 611.945144 140.122406 
L 612.227104 138.898491 
L 612.509065 136.091483 
L 612.791025 132.079796 
L 613.072986 129.801306 
L 613.354946 129.347572 
L 613.636907 129.958866 
L 613.918868 130.899105 
L 614.200828 130.185699 
L 614.482789 128.336209 
L 614.764749 128.975749 
L 615.04671 131.736924 
L 615.328671 132.619537 
L 615.610631 132.278826 
L 616.174552 136.213048 
L 616.456513 135.628777 
L 616.738474 134.375204 
L 617.020434 135.09254 
L 617.302395 136.232887 
L 617.584355 136.295939 
L 617.866316 136.048981 
L 618.148276 136.036091 
L 618.430237 136.510065 
L 618.994158 138.652696 
L 619.276119 138.35243 
L 619.558079 138.858917 
L 620.122001 142.698907 
L 620.403961 142.963951 
L 620.685922 143.643369 
L 621.249843 145.942837 
L 621.531803 146.346333 
L 621.813764 146.523851 
L 622.095725 146.417418 
L 622.377685 147.120858 
L 622.941606 150.620083 
L 623.505528 150.712785 
L 623.787488 150.84312 
L 624.069449 148.957362 
L 624.351409 145.826755 
L 624.63337 144.753735 
L 624.915331 146.819601 
L 625.197291 149.812912 
L 625.479252 151.479169 
L 625.761212 151.249566 
L 626.043173 149.811567 
L 626.325133 147.250632 
L 626.889055 139.13429 
L 627.171015 137.148288 
L 627.452976 136.570789 
L 628.298858 132.177221 
L 628.580818 132.101547 
L 629.144739 129.626713 
L 629.70866 129.399443 
L 629.990621 129.730784 
L 630.554542 133.045602 
L 630.836503 133.646778 
L 631.118463 135.037374 
L 631.400424 137.25447 
L 631.682385 137.773629 
L 631.964345 136.353175 
L 632.246306 136.753859 
L 632.810227 140.441607 
L 633.092188 139.509555 
L 633.092188 139.509555 
" clip-path="url(#p1aa18bc004)" style="fill: none; stroke: #1f77b4; stroke-width: 1.5; stroke-linecap: square"/>
   </g>
   <g id="patch_3">
    <path d="M 47.192188 266.112 
L 47.192188 0 
" style="fill: none; stroke: #000000; stroke-width: 0.8; stroke-linejoin: miter; stroke-linecap: square"/>
   </g>
   <g id="patch_4">
    <path d="M 660.992188 266.112 
L 660.992188 0 
" style="fill: none; stroke: #000000; stroke-width: 0.8; stroke-linejoin: miter; stroke-linecap: square"/>
   </g>
   <g id="patch_5">
    <path d="M 47.192188 266.112 
L 660.992188 266.112 
" style="fill: none; stroke: #000000; stroke-width: 0.8; stroke-linejoin: miter; stroke-linecap: square"/>
   </g>
   <g id="patch_6">
    <path d="M 47.192188 0 
L 660.992188 0 
" style="fill: none; stroke: #000000; stroke-width: 0.8; stroke-linejoin: miter; stroke-linecap: square"/>
   </g>
  </g>
 </g>
 <defs>
  <clipPath id="p1aa18bc004">
   <rect x="47.192188" y="0" width="613.8" height="266.112"/>
  </clipPath>
 </defs>
</svg>
