<svg xmlns="http://www.w3.org/2000/svg" xmlns:xlink="http://www.w3.org/1999/xlink" width="913.477" height="377.053" viewBox="0 0 685.107 282.79"><defs><style>*{stroke-linejoin:round;stroke-linecap:butt}</style></defs><g id="figure_1"><path id="patch_1" d="M0 282.79h685.107V0H0v282.79z" style="fill:none"/><g id="axes_1"><path id="patch_2" d="M71.308 266.112h613.8V0h-613.8v266.112z" style="fill:none"/><g id="matplotlib.axis_1"><g id="xtick_1"><g id="line2d_1"><defs><path id="m77c277792b" d="M0 0v3.5" style="stroke:gray;stroke-width:.8"/></defs><use xlink:href="#m77c277792b" x="99.207" y="266.112" style="fill:gray;stroke:gray;stroke-width:.8"/></g><g id="text_1" style="fill:gray" transform="matrix(.1 0 0 -.1 96.026 280.71)"><defs><path id="DejaVuSans-30" d="M2034 4250q-487 0-733-480-245-479-245-1442 0-959 245-1439 246-480 733-480 491 0 736 480 246 480 246 1439 0 963-246 1442-245 480-736 480zm0 500q785 0 1199-621 414-620 414-1801 0-1178-414-1799Q2819-91 2034-91q-784 0-1198 620-414 621-414 1799 0 1181 414 1801 414 621 1198 621z" transform="scale(.01563)"/></defs><use xlink:href="#DejaVuSans-30"/></g></g><g id="xtick_2"><use xlink:href="#m77c277792b" id="line2d_2" x="168.958" y="266.112" style="fill:gray;stroke:gray;stroke-width:.8"/><g id="text_2" style="fill:gray" transform="matrix(.1 0 0 -.1 159.414 280.71)"><defs><path id="DejaVuSans-35" d="M691 4666h2478v-532H1269V2991q137 47 274 70 138 23 276 23 781 0 1237-428 457-428 457-1159 0-753-469-1171Q2575-91 1722-91q-294 0-599 50Q819 9 494 109v635q281-153 581-228t634-75q541 0 856 284 316 284 316 772 0 487-316 771-315 285-856 285-253 0-505-56-251-56-513-175v2344z" transform="scale(.01563)"/></defs><use xlink:href="#DejaVuSans-35"/><use xlink:href="#DejaVuSans-30" x="63.623"/><use xlink:href="#DejaVuSans-30" x="127.246"/></g></g><g id="xtick_3"><use xlink:href="#m77c277792b" id="line2d_3" x="238.708" y="266.112" style="fill:gray;stroke:gray;stroke-width:.8"/><g id="text_3" style="fill:gray" transform="matrix(.1 0 0 -.1 225.982 280.71)"><defs><path id="DejaVuSans-31" d="M794 531h1031v3560L703 3866v575l1116 225h631V531h1031V0H794v531z" transform="scale(.01563)"/></defs><use xlink:href="#DejaVuSans-31"/><use xlink:href="#DejaVuSans-30" x="63.623"/><use xlink:href="#DejaVuSans-30" x="127.246"/><use xlink:href="#DejaVuSans-30" x="190.869"/></g></g><g id="xtick_4"><use xlink:href="#m77c277792b" id="line2d_4" x="308.457" y="266.112" style="fill:gray;stroke:gray;stroke-width:.8"/><g id="text_4" style="fill:gray" transform="matrix(.1 0 0 -.1 295.733 280.71)"><use xlink:href="#DejaVuSans-31"/><use xlink:href="#DejaVuSans-35" x="63.623"/><use xlink:href="#DejaVuSans-30" x="127.246"/><use xlink:href="#DejaVuSans-30" x="190.869"/></g></g><g id="xtick_5"><use xlink:href="#m77c277792b" id="line2d_5" x="378.207" y="266.112" style="fill:gray;stroke:gray;stroke-width:.8"/><g id="text_5" style="fill:gray" transform="matrix(.1 0 0 -.1 365.483 280.71)"><defs><path id="DejaVuSans-32" d="M1228 531h2203V0H469v531q359 372 979 998 621 627 780 809 303 340 423 576 121 236 121 464 0 372-261 606-261 235-680 235-297 0-627-103-329-103-704-313v638q381 153 712 231 332 78 607 78 725 0 1156-363 431-362 431-968 0-288-108-546-107-257-392-607-78-91-497-524-418-433-1181-1211z" transform="scale(.01563)"/></defs><use xlink:href="#DejaVuSans-32"/><use xlink:href="#DejaVuSans-30" x="63.623"/><use xlink:href="#DejaVuSans-30" x="127.246"/><use xlink:href="#DejaVuSans-30" x="190.869"/></g></g><g id="xtick_6"><use xlink:href="#m77c277792b" id="line2d_6" x="447.957" y="266.112" style="fill:gray;stroke:gray;stroke-width:.8"/><g id="text_6" style="fill:gray" transform="matrix(.1 0 0 -.1 435.233 280.71)"><use xlink:href="#DejaVuSans-32"/><use xlink:href="#DejaVuSans-35" x="63.623"/><use xlink:href="#DejaVuSans-30" x="127.246"/><use xlink:href="#DejaVuSans-30" x="190.869"/></g></g><g id="xtick_7"><use xlink:href="#m77c277792b" id="line2d_7" x="517.707" y="266.112" style="fill:gray;stroke:gray;stroke-width:.8"/><g id="text_7" style="fill:gray" transform="matrix(.1 0 0 -.1 504.983 280.71)"><defs><path id="DejaVuSans-33" d="M2597 2516q453-97 707-404 255-306 255-756 0-690-475-1069Q2609-91 1734-91q-293 0-604 58T488 141v609q262-153 574-231 313-78 654-78 593 0 904 234t311 681q0 413-289 645-289 233-804 233h-544v519h569q465 0 712 186t247 536q0 359-255 551-254 193-729 193-260 0-557-57-297-56-653-174v562q360 100 674 150t592 50q719 0 1137-327 419-326 419-882 0-388-222-655t-631-370z" transform="scale(.01563)"/></defs><use xlink:href="#DejaVuSans-33"/><use xlink:href="#DejaVuSans-30" x="63.623"/><use xlink:href="#DejaVuSans-30" x="127.246"/><use xlink:href="#DejaVuSans-30" x="190.869"/></g></g><g id="xtick_8"><use xlink:href="#m77c277792b" id="line2d_8" x="587.457" y="266.112" style="fill:gray;stroke:gray;stroke-width:.8"/><g id="text_8" style="fill:gray" transform="matrix(.1 0 0 -.1 574.732 280.71)"><use xlink:href="#DejaVuSans-33"/><use xlink:href="#DejaVuSans-35" x="63.623"/><use xlink:href="#DejaVuSans-30" x="127.246"/><use xlink:href="#DejaVuSans-30" x="190.869"/></g></g><g id="xtick_9"><use xlink:href="#m77c277792b" id="line2d_9" x="657.207" y="266.112" style="fill:gray;stroke:gray;stroke-width:.8"/><g id="text_9" style="fill:gray" transform="matrix(.1 0 0 -.1 644.482 280.71)"><defs><path id="DejaVuSans-34" d="M2419 4116 825 1625h1594v2491zm-166 550h794V1625h666v-525h-666V0h-628v1100H313v609l1940 2957z" transform="scale(.01563)"/></defs><use xlink:href="#DejaVuSans-34"/><use xlink:href="#DejaVuSans-30" x="63.623"/><use xlink:href="#DejaVuSans-30" x="127.246"/><use xlink:href="#DejaVuSans-30" x="190.869"/></g></g></g><g id="matplotlib.axis_2"><g id="ytick_1"><g id="line2d_10"><defs><path id="m8a3f091730" d="M0 0h-3.5" style="stroke:gray;stroke-width:.8"/></defs><use xlink:href="#m8a3f091730" x="71.308" y="225.82" style="fill:gray;stroke:gray;stroke-width:.8"/></g><g id="text_10" style="fill:gray" transform="matrix(.16 0 0 -.16 0 231.899)"><defs><path id="DejaVuSans-2212" d="M678 2272h4006v-531H678v531z" transform="scale(.01563)"/></defs><use xlink:href="#DejaVuSans-2212"/><use xlink:href="#DejaVuSans-32" x="83.789"/><use xlink:href="#DejaVuSans-30" x="147.412"/><use xlink:href="#DejaVuSans-30" x="211.035"/><use xlink:href="#DejaVuSans-30" x="274.658"/><use xlink:href="#DejaVuSans-30" x="338.281"/></g></g><g id="ytick_2"><use xlink:href="#m8a3f091730" id="line2d_11" x="71.308" y="184.707" style="fill:gray;stroke:gray;stroke-width:.8"/><g id="text_11" style="fill:gray" transform="matrix(.16 0 0 -.16 0 190.786)"><use xlink:href="#DejaVuSans-2212"/><use xlink:href="#DejaVuSans-31" x="83.789"/><use xlink:href="#DejaVuSans-30" x="147.412"/><use xlink:href="#DejaVuSans-30" x="211.035"/><use xlink:href="#DejaVuSans-30" x="274.658"/><use xlink:href="#DejaVuSans-30" x="338.281"/></g></g><g id="ytick_3"><use xlink:href="#m8a3f091730" id="line2d_12" x="71.308" y="143.595" style="fill:gray;stroke:gray;stroke-width:.8"/><use xlink:href="#DejaVuSans-30" id="text_12" style="fill:gray" transform="matrix(.16 0 0 -.16 54.127 149.673)"/></g><g id="ytick_4"><use xlink:href="#m8a3f091730" id="line2d_13" x="71.308" y="102.482" style="fill:gray;stroke:gray;stroke-width:.8"/><g id="text_13" style="fill:gray" transform="matrix(.16 0 0 -.16 13.408 108.56)"><use xlink:href="#DejaVuSans-31"/><use xlink:href="#DejaVuSans-30" x="63.623"/><use xlink:href="#DejaVuSans-30" x="127.246"/><use xlink:href="#DejaVuSans-30" x="190.869"/><use xlink:href="#DejaVuSans-30" x="254.492"/></g></g><g id="ytick_5"><use xlink:href="#m8a3f091730" id="line2d_14" x="71.308" y="61.369" style="fill:gray;stroke:gray;stroke-width:.8"/><g id="text_14" style="fill:gray" transform="matrix(.16 0 0 -.16 13.408 67.448)"><use xlink:href="#DejaVuSans-32"/><use xlink:href="#DejaVuSans-30" x="63.623"/><use xlink:href="#DejaVuSans-30" x="127.246"/><use xlink:href="#DejaVuSans-30" x="190.869"/><use xlink:href="#DejaVuSans-30" x="254.492"/></g></g><g id="ytick_6"><use xlink:href="#m8a3f091730" id="line2d_15" x="71.308" y="20.257" style="fill:gray;stroke:gray;stroke-width:.8"/><g id="text_15" style="fill:gray" transform="matrix(.16 0 0 -.16 13.408 26.335)"><use xlink:href="#DejaVuSans-33"/><use xlink:href="#DejaVuSans-30" x="63.623"/><use xlink:href="#DejaVuSans-30" x="127.246"/><use xlink:href="#DejaVuSans-30" x="190.869"/><use xlink:href="#DejaVuSans-30" x="254.492"/></g></g></g><path id="line2d_16" d="m99.207 143.589 2.82.006 8.74-.05.283.11.282-.133.282.165.282-.218.282.314.282-.543.282 1.756.282 5.965.282-.127.281 2.076.564 9.191.282.815.282-.277.564 2.635.282-3.877 1.128-42.167.282-3.58.282-.278.282 3.413 1.128 19.898.282.145.564-4.405.282-1.862.282-3.475.282-1.242.845 12.177.282.246.282-.128.282-.84.282-1.279.282-.7.564-2.861.282 1.366.282 4.015.282 1.976.282-.773.282.15.564 3.554.282.111.282-.304.282.117.282 1.571.564 5.016.282-.158.282.247.282 1.354.281-.044.282-1.01.282.183.282-.24.564-5.733.282.605.282 1.64.564-.123.282.813.282.378.282.033.564 1.653.282-.098.282 1.972.282 4.736.282 2.49.564-4.95.282.524.282.939.564-2.011.281 1.533.564 5.164.282-1.453.282-7.807.846-34.774.282-6.502.282-2.656.282 2.447 1.128 21.793.282 1.936.282.427.282-.76.564-3.68.282.452.282 3.07.846 17.34.282.455.281-1.285.282-.02.282-.553.846-9.337.282-.823.282.231.564 2.932.282.121.282.338.282 1.077.282.104.282-.69.282.4.282 1.118.282-.152.282-.85.282.29.282.971.282-.167.282-.87.282.284.282 1.191.281-.58.564-5.865.282 1.095.564 6.607.282.055.282-.22.564 2.773.282-1.775.282-3.157.282.095.564 7.286.564 1.01.564 3.865.282.66.846 2.468.282.082.282.211.281-3.31.564-23.82.282-11.101.282-6.196.282-2.889.282-.378.282 2.612 1.128 18.436.282 2.485.282-.932.564-8.166.282.924.564 8.77.282 1.582.564.888.282.033.282-.853.564-2.836.281.58.564 4.287.282-.383.282.286.282 2.019.282.004.564-5.412.564 2.47.282-.605.282.928.564 5.822.282.441.282-.272.282-.048.282.305.564.76.282.41.564 2.79.563.714.564 2.383.282.266.282.499.564 1.472.564 1.273.282.716.282 1.541.282 2.165.282.641.282-.2.282 1.52.282.143.282-7.449.846-35.968.564-15.646.282.235.564 9.378.563 11.137.282 2.014.564 2.589.282-1.203.282-3.58.282.475.846 19.49.564 4.575.282-.59.564-8.096.564-1.93.282-2.044.282-.375.564 5.44.564 1.092.282 1.374.282.116.563-3.283.282-.418.282-.17.564-.975.282 1.171.564 5.24.564 1.024.564 3.497.282.19.282.715.282 1.054.564-.977.282.774.282-.517.282-2.983.282-1.37.564 3.617.282-.625.281.036.564 2.534.282.871.564 2.906.282 1.09.846 8.67.282.287.282.625.282-.288.282-5.291 1.128-48.122.282-4.828.282-1.818.282 2.437.846 20.477.282 2.773.282-.176.845-3.973.282-.56.282 2.773.564 13.528.282 3.011.282.096.282-.278.282-.718.564-3.939.564-.553.564-2.752.564 3.207.282-.43.282-1.359.282-.036.846 2.08.281.45.282-.213.282.133.282.68.282-.043.282-.512.282.907 1.128 10.959.282.727.282-.07.282.188.564.724.564 1.397.282.212.282.575.564 1.917.282.404.564 1.368.281.323.282.611.846 3.413.282-1.939.282-7.758.846-39.265.564-13.987.282-1.893.282 3.456.846 24.81.282 3.632.282.586.564-1.386.282-.241.282 1.624.564 8.932.282.728.281-2.132.282-.683.282 1.132.282-.232.564-3.143.282-.153.282-.012.282.581.564 2.418.282.749.564 2.711.282.527 1.128.932.282.898.282.443.282-.39.282.487.282 1.513.282.414.281-.565.282.46.282.898.282-.151.282.305.282 1.616.282.26.282-1.881.282-.573.564 3.61.564.718.282.608.282.339.282 1.158.564 4.098.282 1.338.282 2.253.564 7.232.282 1.63.282-3.903.282-11.19.845-44.039.564-19.806.282-3.4.282 3.482 1.128 33.891.282 3.078.282-.34.564-3.33.282.484.282 4.702.564 14.522.282 1.64.282-1.118.846-5.377.282-.193.282-.692.563-4.688.282 1.074.282 2.017.564.8.282 2.035.564 4.96.564 2.776.282.395.282-.57.282-.275.282.335.282-.061.282-.475.282.27.282.701.282-.707.564-5.007.282-.754.564.685.281.858.564 5.479.282 1.096.282.179.282 2.055.282 3.543.282 2.06.282.352.282 1.01.564 3.928.564 2.011.564 2.959.846 3.39.282-.037.282-3.79.282-9.905 1.41-73.55.281-6.948.282 2.349 1.128 40.678.282 6.202.282 2.322.564-3.388.282 3.27.564 17.685.282 4.144.282-.493 1.128-8.17.282.167.564-3.415.282 1.723.282 3.647.281 1.549.282.215.564 2.18.282-.176.564 1.166.282-2.48.282-3.532.282-.453.282 1.243.282-.324.282-.703.846 2.78.564 2.364.282.463.282.787.564 3.295.282.822.282.248.282.016.281 1.562.564 8.724.282 1.12.282.121.282 3.21.564 8.702.282.638.282.21.282.783.282-1.257.282-7.688.564-36.554.846-52.313.282-10.474.282-2.582.282 5.02 1.41 40.623.281.655.282-.595.282 1.909.282 8.256.564 27.65.282 5.674.282-1.405.564-5.689.282-1.554.564-1.818.282-1.627.282-.925 1.128 2.346.282-.408.564-5.987.282 1.277.282 2.292.282.33.281.87.282 2.73.282 1.27.282-1.051.282-.441.282.634.564.068.282.508.564.222.564 3.228.282.51.282.26.564 1.804.846 3.951.282.945.564 3.545.282 1.25.845 6.046.282 1.435.564 6.915.564 3.18.282.189.282-5.474.564-29 1.128-76.875.282-9.755.282-3.02.282 4.048 1.41 42.638.282 1.386.282.262.282 4.133.281 12.905.564 35.363.282 6.595.282.114.282-2.228.846-11.112.282-.673.564-3.415.282-.497.282.708.846 4.212.282-.208.282-.587.564-.02.564-1.096.282-.072.282-.524.845-5.977.282.45.564 2.89.564 4.251.564.862.564 4.396.564 1.927.564 3.105.282.785.282 1.521.282 2.464.282 3.516.846 13.727.282 1.122.564 5.601.281-.253.282-7.155.282-14.709.846-67.942.564-45.005.282-11.245.282-1.184.282 3.483.282 5.995 1.128 40.559.282 4.438.282 7.235.282 11.34.846 46.85.282 3.95.282-2.35.563-10.722.564-11.91.564-1.315.282-2.796.282-.318.846 14.118.282.03.564 1.626.564-.505.282.161.282-.667.282-1.434.282-.765.282-.05.564-.397 1.691 5.755.282.002.282.762.564 3.824.282.488.282.88.846 5.122.564 3.611.564 6.358.846 11.679.282.692.564-2.036.282-4.4.282-13.305 1.41-106.509.281-11.998.282-5.032.282.748.282 5.497 1.974 62.266.846 51.515.282 6.198.282-.677 1.41-24.815.282-2.035.563-1.874.282.414.564 2.42.282.816.564 3.527.282.017.282-.443.282-.015.282-.334.282.494.564 5.86.564.436.564 6.745.282.066.282-.44.846 5.782.282.838 1.973 16.376.846 12.512.282 1.93.564 6.417.282-4.454.282-13.513.564-48.85.564-61.14.564-38.366.282-12.721.282-4.005.282 4.963L357.2 56.71l.564 7.08.282 11.208 1.128 74.93.282 12.723.282 5.505.282-2.777.282-5.493.282-2.804.282-.608.282-1.276.846-6.563.282-.733.282 1.076 1.128 10.14.281.983.282-.01.282.22.282.479.282-.29.282-.946.282-.3.564 1.527.282.18.282-.07.282.292.564 1.146.564.836.282.908 1.128 5.747.564 5.48.564 3.158 1.127 14.166.564 9.455.282 3.682.564 8.274.282-6.44.564-39.943 1.41-131.334.282-9.354.282-.773.282 6.13.564 16.914.282 5.133.846 7.927.281 7.395.282 12.342.564 39.692.564 36.634.282 6.633.282.119 1.128-10.827.282.268.282.964.282.438.282-.063.282.149.564 1.004.282.857.564 2.363.564-1.391.282.888.281 1.505.282.037.282-.276.282 1.743.282 2.62.282.684.282-.803.282.154.564 2.168.282.457.564 2.052.282 1.257 1.128 7.885.282 2.716.564 7.947.282 1.766.282 2.88.564 8.924.563 4.153.282 2.775.282-2.378.282-12.082.564-50.816.846-87.617.564-31.21.282-1.287 1.128 25.345.846 12.98.282 10.283 1.41 83.526.281 3.562.282-1.708.564-7.06.282-1.074.282.509.564 1.854.282.604.564-.616.282 1.812.282 3.344.282.829.564-4.12.282.856.282.405.282-.733.282 1.077.564 5.09.564-.203.282.236.281-.79.564-3.348.282.82.564 3.41.282 1.544.282 3.941.564 9.962.564 4.49.846 9.8.282 2.472.564 10.433 1.41 25.15.282-5.27.282-15.508.563-55.871.846-94.738.282-18.2.282-4.92.846 11.156.282 1.053.282.253.282-2.794.282-5.079.282-2.693.282 3.362.282 9.274.564 29.644.564 31.254.564 21.644.282 6.945 1.691 21.902.282 2.373.282.75.564-1.282.846-2.73.282.109.282-.251.564-2.346.282.136.564 1.785.564.623.282.857.282 1.488 1.973 17.349.564 5.515.564 4.086 1.41 18.811.564 10.133.564 6.153.282 3.862.282-1.002.282-11.02.564-51.486.846-99.142.282-17.473.281-7.767 1.128-12.38.282-.354.564 1.648.282 2.694.282 7.233.564 28.739 1.128 73.04.564 15.64.282 2.51.282.562.282.167.846 1.108.282-.18 1.41-3.202.563 1.11.282-.892.282-1.866.282-.089.564 3.16.282.536.282 2.873.564 9.613.564 4.288 1.41 16.488.846 7.678 1.127 17.77.564 11.479.564 8.73.282-.38.282-12.489.564-54.377.846-104.943.564-31.514.564-15.922.282-1.414.282.44.564-.086.282 1.27.282 3.22.281 5.611.282 9.07.564 33.22.564 36.332.846 37.6.282 5.22.564 5.665.282 3.531.282.82.564-2.927.282.01.282.145.282-.052.282-.197.564-2.624.282-.035.282.68.282-.504.281.83.846 15.803.282-.813.282.975 1.128 13.073.564 3.587.564 7.393.282-2.165.282-3.791.282 1.357.282 4.781.564 4.215.564 12.774 1.128 23.772.563 6.287.282.134.282-10.874.282-24.61 1.41-171.354.564-20.227.282-3.165.282 3.242.282 4.671.282 1.83.282.182.282 1.67.282 4.627.282 8.165.564 26.373 1.127 63.92.564 12.748.282 3.715.282 1.26.282-1.162.282-.671.282.526.282-.532.282-.9.282 2.147.282 4.171.282.909.282-3.119.282-1.534.282 3.416.564 8.516.564 5.453 1.128 11.515.282 1.217.282.612.281 3.265.564 8.876.282 1.405.564 5.39.282-.032.282-2.499.282.161.564 7.417.282 1.086.282 3.18.846 20.477 1.41 25.217.282-2.284.282-15.763.564-66.64.563-80.445.282-26.486.564-24.735.282-5.841.282-1.487.282 1.99 1.128 15.085.564 17.631.564 24.867.564 29.817.564 13.426.282 2.358 1.41-8.437.281.863.282 3.749.282 2.03.282-.482.282-.178.282 1.023.282 1.76.564 7.37.846 12.836.564 10.909.564 8.147 1.128 23.147.846 11.937.282 1.725.282.912.281-.002.282-.532.282.848.846 7.865 1.41 32.433.282 3.3.282-6.027.282-18.857.564-75.283.564-78.975.282-17.936.282-8.543.282-4.845.282-2.286.282-.773.282.06.282 1.775.281 2.548.282 1.326.282 2.058.282 6.312.846 32.734.846 37.653.282 4.758.282 1.912.282.58.282-.537.564-3.252.564-1.47.564-2.67.282.046.282-.086.282-1.205.282-.052.282 3.11 1.691 28.414.282 5.08.282 2.913.282.2.282 1.222 1.41 24.998.282 6.562.282 3.246.282 1.88.564 5.956.564 8.169.564 7.865.282 2.414.282 4.236.563 12.16.564 8.413.282 6.116.282.375.282-13.113.282-28.905.846-126.568.282-22.438.282-9.824.282-3.664.564-2.053.282-.597.282 2.456.282 4.87.282 2.068.282-.982.282 2.735.846 31.252.845 33.565.282 4.414.282 1.569.282.74.282-.391 1.128-6.67.282-.014.282 1.648.282-.037.564-5.536.282 1.995.564 5.762.282 3.014.564 12.296 1.128 11.954.281.083.282-.544.282 2.658.564 7.86.282 1.477.282 3.157.564 9.192 1.128 9.23 1.128 13.34 1.128 19.076 1.128 27.806.281 4.904.282-3.502.282-14.67.282-27.267.846-117.987.282-16.624.564-11.176.282-3.194.282-.343.564 1.81.282 2.765.564 12.626.564 15.043.846 27.675.282 5.544.282 3.297.282 1.214.281-.352.282-1.323.564-3.684 1.128-3.527.282 1.866.846 9.278.564 3.074.282 3.11.564 8.582.846 6.36.564 4.445.564 3.851.282 2.019.282 1.067.281.545.282 1.48 1.41 13.075.282-.128.282-.764.282 3.617.564 10.504.282 2.87.282 6.477.564 16.161 1.128 20.006.282-.204.282-11.737.282-29.208.564-77.316.281-22.345.564-17.823.282-4.501.282-1.97.564-1.313.282 1.327.846 10.51.564 11.816 1.41 34.276.282 3.299.282 1.592.282-2.504.282-3.536.282-.794.282.033.282-1.596.281-.84 2.256 15.474.282.802.282 1.662.282 2.638.282 1.333.282.685.846 7.844.282.145.282 2.255.564 6.145.564 3.757.282.062.282.596.563 4.44.282-1.146.282-.626 1.128 11.57 1.128 20.142.846 12.988.282 2.707.282 1.252.282-7.863.282-25.105.564-62.936.282-13.366.564-14.984.282-4.194.282-.72.281-1.554.282-2.715.282-.674.282 1.98.564 7.103.564 8.657 1.128 27.58.564 5.541.282.621.282-.508.564-.212.564-1.643.282.228.564 1.665.282 1.482.845 5.993.564 2.36.282.563.282.886.564 3.566.564.985.564 2.262.282.038.282.576.282 1.259.282.334.282-.246.282.98.564 3.518.846 3.853.282 1.52.845 6.766.564 1.785.282 1.813.564 5.378.282 3.76.846 19.038.564 4.719.282-4.134.282-18.718.564-55.629.282-16.119.564-16.846.282-5.499.282-3.185.282-.054.564 4.727.282 1.47.281 3.452.564 8.16.282 3.032 1.128 29.051.282 2.218.282.665.282-.407.282-.073.282-.629.282-2.018.282-1.14.282.83.282.141.282-1.124.282.32.282 1.358.282-1.132.282-2.906.282-.735.564 2.501.282.515.563 2.869.282.248.282.588.282 1.196.282.578.282 1.206.564 7.52.282.72.282-.168.282 2.302.282 3.33.282 1.858.282 1.096.564 3.644.846 5.504.282 1.08 1.128 8.07.563 7.059.564 8.762.564 5.331.282 1.97.282-3.977.282-16.106.564-46.147.564-23.73.564-17.151.282-2.998.282-.205.282.582.282 1.832 1.692 19.579.281 5.118.564 15.289.282 4.7.282 2.205.282.714.564-1.076.282-.714.564-2.934.282.078.282.394.282-.547.282-.235.282.797.282-.008.282-1.248.282-.74.282.747.282 1.935.564 6.307.282 1.052.282-1.004.282-.11.281 2.468.564 6.045.282.884.282.12.282-.004.282.192 1.974 6.355 1.41 10.1.282.778.282-1.509.282-.549.282 2.066.564 7.778.563 10.111.564 3.812.282.187.282-9.67.846-56.403.564-20.187.282-4.377.564-2.789.282.246 1.974 17.951.564 12.003.282 5.978.281 3.403h0" clip-path="url(#p76ee4d0672)" style="fill:none;stroke:#1f77b4;stroke-width:1.5;stroke-linecap:square"/><path id="patch_3" d="M71.308 266.112V0" style="fill:none;stroke:gray;stroke-width:.8;stroke-linejoin:miter;stroke-linecap:square"/><path id="patch_4" d="M685.107 266.112V0" style="fill:none;stroke:#000;stroke-width:.8;stroke-linejoin:miter;stroke-linecap:square"/><path id="patch_5" d="M71.308 266.112h613.8" style="fill:none;stroke:gray;stroke-width:.8;stroke-linejoin:miter;stroke-linecap:square"/><path id="patch_6" d="M71.308 0h613.8" style="fill:none;stroke:#000;stroke-width:.8;stroke-linejoin:miter;stroke-linecap:square"/></g></g><defs><clipPath id="p76ee4d0672"><path d="M71.308 0h613.8v266.112h-613.8z"/></clipPath></defs></svg>