<?xml version="1.0" encoding="utf-8" standalone="no"?>
<!DOCTYPE svg PUBLIC "-//W3C//DTD SVG 1.1//EN"
  "http://www.w3.org/Graphics/SVG/1.1/DTD/svg11.dtd">
<svg xmlns:xlink="http://www.w3.org/1999/xlink" width="660.992188pt" height="282.790125pt" viewBox="0 0 660.992188 282.790125" xmlns="http://www.w3.org/2000/svg" version="1.1">
 <metadata>
  <rdf:RDF xmlns:dc="http://purl.org/dc/elements/1.1/" xmlns:cc="http://creativecommons.org/ns#" xmlns:rdf="http://www.w3.org/1999/02/22-rdf-syntax-ns#">
   <cc:Work>
    <dc:type rdf:resource="http://purl.org/dc/dcmitype/StillImage"/>
    <dc:date>2023-03-06T21:33:01.364350</dc:date>
    <dc:format>image/svg+xml</dc:format>
    <dc:creator>
     <cc:Agent>
      <dc:title>Matplotlib v3.6.3, https://matplotlib.org/</dc:title>
     </cc:Agent>
    </dc:creator>
   </cc:Work>
  </rdf:RDF>
 </metadata>
 <defs>
  <style type="text/css">*{stroke-linejoin: round; stroke-linecap: butt}</style>
 </defs>
 <g id="figure_1">
  <g id="patch_1">
   <path d="M -0 282.790125 
L 660.992188 282.790125 
L 660.992188 0 
L -0 0 
L -0 282.790125 
z
" style="fill: none"/>
  </g>
  <g id="axes_1">
   <g id="patch_2">
    <path d="M 47.192188 266.112 
L 660.992188 266.112 
L 660.992188 0 
L 47.192188 0 
L 47.192188 266.112 
z
" style="fill: none"/>
   </g>
   <g id="matplotlib.axis_1">
    <g id="xtick_1">
     <g id="line2d_1">
      <defs>
       <path id="md8a6a7b2ad" d="M 0 0 
L 0 3.5 
" style="stroke: #808080; stroke-width: 0.8"/>
      </defs>
      <g>
       <use xlink:href="#md8a6a7b2ad" x="75.092188" y="266.112" style="fill: #808080; stroke: #808080; stroke-width: 0.8"/>
      </g>
     </g>
     <g id="text_1">
      <!-- 0 -->
      <g style="fill: #808080" transform="translate(71.910938 280.710438) scale(0.1 -0.1)">
       <defs>
        <path id="DejaVuSans-30" d="M 2034 4250 
Q 1547 4250 1301 3770 
Q 1056 3291 1056 2328 
Q 1056 1369 1301 889 
Q 1547 409 2034 409 
Q 2525 409 2770 889 
Q 3016 1369 3016 2328 
Q 3016 3291 2770 3770 
Q 2525 4250 2034 4250 
z
M 2034 4750 
Q 2819 4750 3233 4129 
Q 3647 3509 3647 2328 
Q 3647 1150 3233 529 
Q 2819 -91 2034 -91 
Q 1250 -91 836 529 
Q 422 1150 422 2328 
Q 422 3509 836 4129 
Q 1250 4750 2034 4750 
z
" transform="scale(0.015625)"/>
       </defs>
       <use xlink:href="#DejaVuSans-30"/>
      </g>
     </g>
    </g>
    <g id="xtick_2">
     <g id="line2d_2">
      <g>
       <use xlink:href="#md8a6a7b2ad" x="144.842188" y="266.112" style="fill: #808080; stroke: #808080; stroke-width: 0.8"/>
      </g>
     </g>
     <g id="text_2">
      <!-- 500 -->
      <g style="fill: #808080" transform="translate(135.298438 280.710438) scale(0.1 -0.1)">
       <defs>
        <path id="DejaVuSans-35" d="M 691 4666 
L 3169 4666 
L 3169 4134 
L 1269 4134 
L 1269 2991 
Q 1406 3038 1543 3061 
Q 1681 3084 1819 3084 
Q 2600 3084 3056 2656 
Q 3513 2228 3513 1497 
Q 3513 744 3044 326 
Q 2575 -91 1722 -91 
Q 1428 -91 1123 -41 
Q 819 9 494 109 
L 494 744 
Q 775 591 1075 516 
Q 1375 441 1709 441 
Q 2250 441 2565 725 
Q 2881 1009 2881 1497 
Q 2881 1984 2565 2268 
Q 2250 2553 1709 2553 
Q 1456 2553 1204 2497 
Q 953 2441 691 2322 
L 691 4666 
z
" transform="scale(0.015625)"/>
       </defs>
       <use xlink:href="#DejaVuSans-35"/>
       <use xlink:href="#DejaVuSans-30" x="63.623047"/>
       <use xlink:href="#DejaVuSans-30" x="127.246094"/>
      </g>
     </g>
    </g>
    <g id="xtick_3">
     <g id="line2d_3">
      <g>
       <use xlink:href="#md8a6a7b2ad" x="214.592188" y="266.112" style="fill: #808080; stroke: #808080; stroke-width: 0.8"/>
      </g>
     </g>
     <g id="text_3">
      <!-- 1000 -->
      <g style="fill: #808080" transform="translate(201.867188 280.710438) scale(0.1 -0.1)">
       <defs>
        <path id="DejaVuSans-31" d="M 794 531 
L 1825 531 
L 1825 4091 
L 703 3866 
L 703 4441 
L 1819 4666 
L 2450 4666 
L 2450 531 
L 3481 531 
L 3481 0 
L 794 0 
L 794 531 
z
" transform="scale(0.015625)"/>
       </defs>
       <use xlink:href="#DejaVuSans-31"/>
       <use xlink:href="#DejaVuSans-30" x="63.623047"/>
       <use xlink:href="#DejaVuSans-30" x="127.246094"/>
       <use xlink:href="#DejaVuSans-30" x="190.869141"/>
      </g>
     </g>
    </g>
    <g id="xtick_4">
     <g id="line2d_4">
      <g>
       <use xlink:href="#md8a6a7b2ad" x="284.342188" y="266.112" style="fill: #808080; stroke: #808080; stroke-width: 0.8"/>
      </g>
     </g>
     <g id="text_4">
      <!-- 1500 -->
      <g style="fill: #808080" transform="translate(271.617188 280.710438) scale(0.1 -0.1)">
       <use xlink:href="#DejaVuSans-31"/>
       <use xlink:href="#DejaVuSans-35" x="63.623047"/>
       <use xlink:href="#DejaVuSans-30" x="127.246094"/>
       <use xlink:href="#DejaVuSans-30" x="190.869141"/>
      </g>
     </g>
    </g>
    <g id="xtick_5">
     <g id="line2d_5">
      <g>
       <use xlink:href="#md8a6a7b2ad" x="354.092188" y="266.112" style="fill: #808080; stroke: #808080; stroke-width: 0.8"/>
      </g>
     </g>
     <g id="text_5">
      <!-- 2000 -->
      <g style="fill: #808080" transform="translate(341.367188 280.710438) scale(0.1 -0.1)">
       <defs>
        <path id="DejaVuSans-32" d="M 1228 531 
L 3431 531 
L 3431 0 
L 469 0 
L 469 531 
Q 828 903 1448 1529 
Q 2069 2156 2228 2338 
Q 2531 2678 2651 2914 
Q 2772 3150 2772 3378 
Q 2772 3750 2511 3984 
Q 2250 4219 1831 4219 
Q 1534 4219 1204 4116 
Q 875 4013 500 3803 
L 500 4441 
Q 881 4594 1212 4672 
Q 1544 4750 1819 4750 
Q 2544 4750 2975 4387 
Q 3406 4025 3406 3419 
Q 3406 3131 3298 2873 
Q 3191 2616 2906 2266 
Q 2828 2175 2409 1742 
Q 1991 1309 1228 531 
z
" transform="scale(0.015625)"/>
       </defs>
       <use xlink:href="#DejaVuSans-32"/>
       <use xlink:href="#DejaVuSans-30" x="63.623047"/>
       <use xlink:href="#DejaVuSans-30" x="127.246094"/>
       <use xlink:href="#DejaVuSans-30" x="190.869141"/>
      </g>
     </g>
    </g>
    <g id="xtick_6">
     <g id="line2d_6">
      <g>
       <use xlink:href="#md8a6a7b2ad" x="423.842188" y="266.112" style="fill: #808080; stroke: #808080; stroke-width: 0.8"/>
      </g>
     </g>
     <g id="text_6">
      <!-- 2500 -->
      <g style="fill: #808080" transform="translate(411.117188 280.710438) scale(0.1 -0.1)">
       <use xlink:href="#DejaVuSans-32"/>
       <use xlink:href="#DejaVuSans-35" x="63.623047"/>
       <use xlink:href="#DejaVuSans-30" x="127.246094"/>
       <use xlink:href="#DejaVuSans-30" x="190.869141"/>
      </g>
     </g>
    </g>
    <g id="xtick_7">
     <g id="line2d_7">
      <g>
       <use xlink:href="#md8a6a7b2ad" x="493.592188" y="266.112" style="fill: #808080; stroke: #808080; stroke-width: 0.8"/>
      </g>
     </g>
     <g id="text_7">
      <!-- 3000 -->
      <g style="fill: #808080" transform="translate(480.867188 280.710438) scale(0.1 -0.1)">
       <defs>
        <path id="DejaVuSans-33" d="M 2597 2516 
Q 3050 2419 3304 2112 
Q 3559 1806 3559 1356 
Q 3559 666 3084 287 
Q 2609 -91 1734 -91 
Q 1441 -91 1130 -33 
Q 819 25 488 141 
L 488 750 
Q 750 597 1062 519 
Q 1375 441 1716 441 
Q 2309 441 2620 675 
Q 2931 909 2931 1356 
Q 2931 1769 2642 2001 
Q 2353 2234 1838 2234 
L 1294 2234 
L 1294 2753 
L 1863 2753 
Q 2328 2753 2575 2939 
Q 2822 3125 2822 3475 
Q 2822 3834 2567 4026 
Q 2313 4219 1838 4219 
Q 1578 4219 1281 4162 
Q 984 4106 628 3988 
L 628 4550 
Q 988 4650 1302 4700 
Q 1616 4750 1894 4750 
Q 2613 4750 3031 4423 
Q 3450 4097 3450 3541 
Q 3450 3153 3228 2886 
Q 3006 2619 2597 2516 
z
" transform="scale(0.015625)"/>
       </defs>
       <use xlink:href="#DejaVuSans-33"/>
       <use xlink:href="#DejaVuSans-30" x="63.623047"/>
       <use xlink:href="#DejaVuSans-30" x="127.246094"/>
       <use xlink:href="#DejaVuSans-30" x="190.869141"/>
      </g>
     </g>
    </g>
    <g id="xtick_8">
     <g id="line2d_8">
      <g>
       <use xlink:href="#md8a6a7b2ad" x="563.342188" y="266.112" style="fill: #808080; stroke: #808080; stroke-width: 0.8"/>
      </g>
     </g>
     <g id="text_8">
      <!-- 3500 -->
      <g style="fill: #808080" transform="translate(550.617188 280.710438) scale(0.1 -0.1)">
       <use xlink:href="#DejaVuSans-33"/>
       <use xlink:href="#DejaVuSans-35" x="63.623047"/>
       <use xlink:href="#DejaVuSans-30" x="127.246094"/>
       <use xlink:href="#DejaVuSans-30" x="190.869141"/>
      </g>
     </g>
    </g>
    <g id="xtick_9">
     <g id="line2d_9">
      <g>
       <use xlink:href="#md8a6a7b2ad" x="633.092188" y="266.112" style="fill: #808080; stroke: #808080; stroke-width: 0.8"/>
      </g>
     </g>
     <g id="text_9">
      <!-- 4000 -->
      <g style="fill: #808080" transform="translate(620.367188 280.710438) scale(0.1 -0.1)">
       <defs>
        <path id="DejaVuSans-34" d="M 2419 4116 
L 825 1625 
L 2419 1625 
L 2419 4116 
z
M 2253 4666 
L 3047 4666 
L 3047 1625 
L 3713 1625 
L 3713 1100 
L 3047 1100 
L 3047 0 
L 2419 0 
L 2419 1100 
L 313 1100 
L 313 1709 
L 2253 4666 
z
" transform="scale(0.015625)"/>
       </defs>
       <use xlink:href="#DejaVuSans-34"/>
       <use xlink:href="#DejaVuSans-30" x="63.623047"/>
       <use xlink:href="#DejaVuSans-30" x="127.246094"/>
       <use xlink:href="#DejaVuSans-30" x="190.869141"/>
      </g>
     </g>
    </g>
   </g>
   <g id="matplotlib.axis_2">
    <g id="ytick_1">
     <g id="line2d_10">
      <defs>
       <path id="ma187dd6686" d="M 0 0 
L -3.5 0 
" style="stroke: #808080; stroke-width: 0.8"/>
      </defs>
      <g>
       <use xlink:href="#ma187dd6686" x="47.192188" y="239.187069" style="fill: #808080; stroke: #808080; stroke-width: 0.8"/>
      </g>
     </g>
     <g id="text_10">
      <!-- −20000 -->
      <g style="fill: #808080" transform="translate(0 242.986288) scale(0.1 -0.1)">
       <defs>
        <path id="DejaVuSans-2212" d="M 678 2272 
L 4684 2272 
L 4684 1741 
L 678 1741 
L 678 2272 
z
" transform="scale(0.015625)"/>
       </defs>
       <use xlink:href="#DejaVuSans-2212"/>
       <use xlink:href="#DejaVuSans-32" x="83.789062"/>
       <use xlink:href="#DejaVuSans-30" x="147.412109"/>
       <use xlink:href="#DejaVuSans-30" x="211.035156"/>
       <use xlink:href="#DejaVuSans-30" x="274.658203"/>
       <use xlink:href="#DejaVuSans-30" x="338.28125"/>
      </g>
     </g>
    </g>
    <g id="ytick_2">
     <g id="line2d_11">
      <g>
       <use xlink:href="#ma187dd6686" x="47.192188" y="195.228298" style="fill: #808080; stroke: #808080; stroke-width: 0.8"/>
      </g>
     </g>
     <g id="text_11">
      <!-- −10000 -->
      <g style="fill: #808080" transform="translate(0 199.027516) scale(0.1 -0.1)">
       <use xlink:href="#DejaVuSans-2212"/>
       <use xlink:href="#DejaVuSans-31" x="83.789062"/>
       <use xlink:href="#DejaVuSans-30" x="147.412109"/>
       <use xlink:href="#DejaVuSans-30" x="211.035156"/>
       <use xlink:href="#DejaVuSans-30" x="274.658203"/>
       <use xlink:href="#DejaVuSans-30" x="338.28125"/>
      </g>
     </g>
    </g>
    <g id="ytick_3">
     <g id="line2d_12">
      <g>
       <use xlink:href="#ma187dd6686" x="47.192188" y="151.269526" style="fill: #808080; stroke: #808080; stroke-width: 0.8"/>
      </g>
     </g>
     <g id="text_12">
      <!-- 0 -->
      <g style="fill: #808080" transform="translate(33.829688 155.068745) scale(0.1 -0.1)">
       <use xlink:href="#DejaVuSans-30"/>
      </g>
     </g>
    </g>
    <g id="ytick_4">
     <g id="line2d_13">
      <g>
       <use xlink:href="#ma187dd6686" x="47.192188" y="107.310755" style="fill: #808080; stroke: #808080; stroke-width: 0.8"/>
      </g>
     </g>
     <g id="text_13">
      <!-- 10000 -->
      <g style="fill: #808080" transform="translate(8.379688 111.109973) scale(0.1 -0.1)">
       <use xlink:href="#DejaVuSans-31"/>
       <use xlink:href="#DejaVuSans-30" x="63.623047"/>
       <use xlink:href="#DejaVuSans-30" x="127.246094"/>
       <use xlink:href="#DejaVuSans-30" x="190.869141"/>
       <use xlink:href="#DejaVuSans-30" x="254.492188"/>
      </g>
     </g>
    </g>
    <g id="ytick_5">
     <g id="line2d_14">
      <g>
       <use xlink:href="#ma187dd6686" x="47.192188" y="63.351983" style="fill: #808080; stroke: #808080; stroke-width: 0.8"/>
      </g>
     </g>
     <g id="text_14">
      <!-- 20000 -->
      <g style="fill: #808080" transform="translate(8.379688 67.151202) scale(0.1 -0.1)">
       <use xlink:href="#DejaVuSans-32"/>
       <use xlink:href="#DejaVuSans-30" x="63.623047"/>
       <use xlink:href="#DejaVuSans-30" x="127.246094"/>
       <use xlink:href="#DejaVuSans-30" x="190.869141"/>
       <use xlink:href="#DejaVuSans-30" x="254.492188"/>
      </g>
     </g>
    </g>
    <g id="ytick_6">
     <g id="line2d_15">
      <g>
       <use xlink:href="#ma187dd6686" x="47.192188" y="19.393212" style="fill: #808080; stroke: #808080; stroke-width: 0.8"/>
      </g>
     </g>
     <g id="text_15">
      <!-- 30000 -->
      <g style="fill: #808080" transform="translate(8.379688 23.192431) scale(0.1 -0.1)">
       <use xlink:href="#DejaVuSans-33"/>
       <use xlink:href="#DejaVuSans-30" x="63.623047"/>
       <use xlink:href="#DejaVuSans-30" x="127.246094"/>
       <use xlink:href="#DejaVuSans-30" x="190.869141"/>
       <use xlink:href="#DejaVuSans-30" x="254.492188"/>
      </g>
     </g>
    </g>
   </g>
   <g id="line2d_16">
    <path d="M 75.092188 151.572637 
L 75.374148 150.9763 
L 75.656109 151.553944 
L 75.938069 150.99297 
L 76.22003 151.539062 
L 76.50199 151.00626 
L 76.783951 151.5272 
L 77.065912 151.016829 
L 77.347872 151.51781 
L 77.629833 151.025137 
L 77.911793 151.510503 
L 78.193754 151.031509 
L 78.475715 151.505011 
L 78.757675 151.036166 
L 79.039636 151.501152 
L 79.321596 151.039255 
L 79.603557 151.498814 
L 79.885517 151.040856 
L 80.167478 151.497945 
L 80.449439 151.040992 
L 80.731399 151.49855 
L 81.01336 151.039629 
L 81.29532 151.500693 
L 81.577281 151.036674 
L 81.859242 151.504501 
L 82.141202 151.03196 
L 82.423163 151.510186 
L 82.705123 151.025227 
L 82.987084 151.518063 
L 83.269044 151.016089 
L 83.551005 151.528601 
L 83.832966 151.00398 
L 84.114926 151.542492 
L 84.396887 150.988052 
L 84.678847 151.560774 
L 84.960808 150.967017 
L 85.242769 151.585065 
L 85.524729 150.938826 
L 85.80669 151.617994 
L 86.08865 150.90005 
L 86.370611 151.664115 
L 86.652572 150.844512 
L 86.934532 151.732022 
L 87.216493 150.759888 
L 87.498453 151.840046 
L 87.780414 150.617634 
L 88.062374 152.035309 
L 88.344335 150.333672 
L 88.626296 152.485235 
L 88.908256 149.512833 
L 89.190217 154.47052 
L 89.754138 111.854141 
L 90.036099 115.611777 
L 90.318059 116.846356 
L 90.88198 132.114888 
L 91.727862 156.313017 
L 92.009823 160.483408 
L 92.291783 162.28512 
L 92.573744 161.215426 
L 92.855704 160.584183 
L 93.137665 158.750063 
L 93.701586 157.703742 
L 93.983547 157.835421 
L 94.265507 157.002215 
L 94.829429 157.128419 
L 95.111389 158.280322 
L 95.67531 159.391511 
L 96.239231 158.216335 
L 96.521192 157.106852 
L 96.803153 156.784682 
L 97.085113 157.072952 
L 97.367074 158.324157 
L 97.930995 159.884776 
L 99.058837 165.189564 
L 99.340798 167.099352 
L 99.622758 167.275556 
L 99.904719 162.100801 
L 100.46864 145.507014 
L 101.032561 136.940977 
L 101.314522 135.226229 
L 101.878443 135.672573 
L 102.160404 132.531094 
L 102.724325 123.308276 
L 103.006286 121.774391 
L 103.288246 121.041483 
L 103.570207 120.951556 
L 103.852167 121.72246 
L 104.416088 125.156152 
L 104.698049 128.988265 
L 105.26197 144.044757 
L 105.825891 157.326296 
L 106.107852 158.617357 
L 106.671773 154.925115 
L 106.953734 155.156968 
L 107.235694 156.487719 
L 107.517655 157.100578 
L 107.799615 156.711308 
L 108.081576 156.809336 
L 108.927458 158.958626 
L 109.209418 158.805817 
L 109.491379 158.364825 
L 109.77334 158.730855 
L 110.0553 160.770244 
L 110.619221 166.852773 
L 110.901182 167.614842 
L 111.183143 167.160929 
L 111.465103 166.93816 
L 111.747064 167.083586 
L 112.029024 167.760204 
L 112.874906 171.736726 
L 113.156867 172.569414 
L 113.438827 173.863156 
L 113.720788 173.283595 
L 114.002748 167.447562 
L 114.84863 140.968662 
L 115.412551 131.939193 
L 115.976472 130.378836 
L 117.104315 117.694069 
L 117.386275 115.308939 
L 117.668236 114.644967 
L 117.950197 117.393661 
L 119.078039 134.540834 
L 119.923921 155.475206 
L 120.205881 157.793063 
L 120.487842 158.215462 
L 121.051763 157.62558 
L 121.615684 158.495296 
L 121.897645 157.81722 
L 122.179605 156.265825 
L 122.461566 155.943796 
L 123.025487 159.405544 
L 123.589408 161.122974 
L 123.871369 162.837565 
L 124.153329 163.437688 
L 124.43529 162.757629 
L 124.717251 162.794656 
L 124.999211 163.883776 
L 125.563132 164.397456 
L 125.845093 166.905446 
L 126.409014 174.183436 
L 126.690975 174.292678 
L 126.972935 174.281016 
L 127.536857 177.58931 
L 127.818817 175.536666 
L 128.100778 168.294513 
L 128.946659 138.312453 
L 129.510581 127.217182 
L 129.792541 126.562039 
L 130.074502 128.484953 
L 130.356462 129.053488 
L 131.766265 115.98423 
L 132.048226 115.559121 
L 132.330186 118.158376 
L 133.176068 129.579941 
L 134.02195 152.534311 
L 134.303911 155.531416 
L 134.585871 155.23392 
L 134.867832 153.699768 
L 135.149792 153.428554 
L 135.431753 154.297095 
L 135.713714 153.825351 
L 135.995674 151.819459 
L 136.277635 151.455254 
L 136.841556 155.540982 
L 137.123516 155.835874 
L 137.405477 156.34416 
L 137.687438 157.356155 
L 137.969398 157.444443 
L 138.251359 157.302663 
L 139.097241 160.799367 
L 139.379201 161.473565 
L 139.943122 166.464617 
L 140.225083 167.341282 
L 140.507043 167.397182 
L 140.789004 168.183508 
L 141.634886 172.492983 
L 141.916846 173.132094 
L 142.198807 172.868353 
L 142.480768 171.020564 
L 142.762728 165.797571 
L 143.60861 138.004051 
L 143.890571 134.969009 
L 144.454492 133.785157 
L 144.736452 132.289953 
L 145.300373 126.553305 
L 145.864295 121.209426 
L 146.146255 119.879637 
L 146.428216 119.188454 
L 146.710176 119.836695 
L 147.274098 124.801784 
L 147.556058 128.407907 
L 147.838019 134.996656 
L 148.40194 153.866871 
L 148.6839 159.133725 
L 148.965861 160.36767 
L 149.247822 158.702276 
L 149.811743 151.240037 
L 150.093703 149.557678 
L 150.375664 150.040631 
L 150.939585 152.087372 
L 151.221546 152.767525 
L 151.503506 152.822412 
L 151.785467 152.598958 
L 152.067428 153.275081 
L 152.631349 156.228981 
L 153.19527 156.982288 
L 153.47723 159.02291 
L 154.323112 169.209896 
L 155.168994 173.107928 
L 155.450955 172.7383 
L 155.732915 171.446032 
L 156.014876 171.680307 
L 156.296836 173.311154 
L 156.578797 173.988086 
L 157.142718 172.869877 
L 157.424679 169.690376 
L 158.552521 136.093117 
L 159.116442 129.655132 
L 159.398403 129.25189 
L 159.680363 131.170585 
L 159.962324 130.55402 
L 160.526245 123.421797 
L 161.090166 121.785423 
L 161.372127 119.446303 
L 161.654087 118.105006 
L 161.936048 119.255001 
L 162.218009 122.475549 
L 162.499969 128.008555 
L 163.345851 151.050936 
L 163.627812 152.553069 
L 163.909772 151.227583 
L 164.473693 146.727891 
L 164.755654 146.477185 
L 165.037614 149.408666 
L 165.601536 157.807031 
L 166.165457 160.084021 
L 166.729378 165.944404 
L 167.011339 166.355335 
L 167.85722 160.424601 
L 168.139181 159.812377 
L 168.421142 160.079566 
L 169.548984 164.741013 
L 169.830944 164.806735 
L 170.112905 164.704193 
L 170.394866 165.313937 
L 171.240747 170.6192 
L 171.522708 170.841182 
L 171.804669 169.273953 
L 172.086629 163.506397 
L 172.932511 135.580895 
L 173.496432 130.025377 
L 173.778393 128.21082 
L 174.060353 127.186704 
L 174.342314 124.99747 
L 174.906235 115.931014 
L 175.188196 114.711459 
L 175.752117 117.415631 
L 176.034077 119.008429 
L 176.597999 124.929973 
L 176.879959 129.530279 
L 177.16192 137.825531 
L 177.725841 161.008164 
L 178.007801 167.364766 
L 178.289762 169.271295 
L 178.571723 168.804131 
L 178.853683 166.450312 
L 179.417604 160.111894 
L 179.699565 159.183718 
L 179.981526 159.087851 
L 180.263486 159.16479 
L 180.545447 159.967855 
L 181.391328 165.823723 
L 181.673289 165.984475 
L 182.23721 164.101723 
L 182.801131 164.675562 
L 183.083092 164.33913 
L 183.365053 164.431411 
L 184.210934 166.819365 
L 184.774856 169.994512 
L 185.338777 170.052997 
L 185.902698 171.818883 
L 186.184658 171.135062 
L 186.466619 167.74812 
L 186.74858 160.113731 
L 187.312501 139.061984 
L 187.876422 129.050426 
L 188.158383 126.27585 
L 188.440343 125.928651 
L 188.722304 126.814786 
L 189.004264 124.873014 
L 189.568185 117.065047 
L 189.850146 116.762409 
L 190.132107 116.159864 
L 190.414067 114.75443 
L 190.696028 115.46612 
L 191.54191 125.466202 
L 191.82387 131.63288 
L 192.387791 148.370505 
L 192.669752 152.26755 
L 193.233673 156.177655 
L 193.515634 157.147483 
L 193.797594 156.558365 
L 194.079555 156.230147 
L 194.925437 158.342129 
L 195.771318 166.868586 
L 196.053279 167.981675 
L 196.6172 174.28489 
L 196.899161 175.074825 
L 197.181121 174.124831 
L 197.463082 174.020853 
L 197.745042 174.11894 
L 198.308964 172.238297 
L 198.590924 172.914769 
L 198.872885 172.893528 
L 199.436806 169.741478 
L 200.000727 171.418076 
L 200.282688 171.03153 
L 200.564648 171.781373 
L 200.846609 174.380597 
L 201.12857 174.81905 
L 201.41053 169.042775 
L 202.256412 136.712725 
L 202.820333 126.893519 
L 203.384254 119.20814 
L 203.666215 118.339744 
L 203.948175 118.11599 
L 204.512097 113.709214 
L 204.794057 114.06119 
L 205.357978 117.412908 
L 205.639939 119.007409 
L 205.921899 123.134341 
L 206.485821 138.253457 
L 207.331702 165.873186 
L 207.613663 166.716054 
L 208.177584 162.221371 
L 209.305427 151.874027 
L 209.587387 151.719753 
L 210.151308 152.60843 
L 210.433269 153.120075 
L 210.715229 153.04324 
L 210.99719 152.121258 
L 211.279151 152.074661 
L 212.688954 164.414775 
L 212.970914 169.147815 
L 213.252875 171.769228 
L 213.534835 171.999289 
L 213.816796 172.543175 
L 214.098756 174.956729 
L 214.944638 185.559132 
L 215.226599 186.552643 
L 215.508559 184.880275 
L 215.79052 181.644703 
L 216.072481 176.487524 
L 216.354441 166.35474 
L 217.200323 124.731856 
L 217.482284 122.017476 
L 217.764244 121.665234 
L 218.046205 121.553404 
L 218.610126 122.980752 
L 218.892086 121.264608 
L 219.174047 118.115622 
L 219.456008 116.308761 
L 219.737968 116.481503 
L 220.019929 117.673357 
L 220.301889 119.863371 
L 220.865811 127.81113 
L 221.147771 134.457546 
L 221.993653 161.005454 
L 222.275613 161.254205 
L 222.557574 159.358254 
L 223.685416 155.346224 
L 223.967377 155.586024 
L 224.249338 155.63546 
L 224.531298 154.790063 
L 224.813259 155.141967 
L 225.659141 164.381355 
L 225.941101 165.427409 
L 226.223062 165.868427 
L 226.505022 165.132904 
L 226.786983 163.366314 
L 227.068943 162.720621 
L 227.914825 166.833672 
L 228.196786 167.6065 
L 228.478746 170.572353 
L 229.042668 179.795421 
L 229.888549 185.685161 
L 230.17051 186.934038 
L 230.45247 183.039247 
L 231.016392 161.709331 
L 231.862273 127.012593 
L 232.144234 122.588585 
L 232.426195 123.937194 
L 232.708155 126.308916 
L 232.990116 126.065242 
L 234.681879 110.910574 
L 234.96384 111.021426 
L 235.2458 115.043405 
L 235.809722 129.898407 
L 236.373643 154.395006 
L 236.655603 160.872179 
L 236.937564 159.934175 
L 237.501485 153.392124 
L 237.783446 152.02419 
L 238.065406 152.038736 
L 238.629327 155.145124 
L 238.911288 155.330266 
L 239.193249 155.001211 
L 239.475209 155.734154 
L 240.885012 164.104709 
L 241.448933 165.036992 
L 242.294815 168.905807 
L 242.858736 169.623706 
L 243.140697 170.425001 
L 243.422657 171.619756 
L 243.704618 173.563476 
L 244.83246 187.302665 
L 245.114421 187.520249 
L 245.396382 183.171788 
L 245.960303 158.095056 
L 246.524224 136.563331 
L 247.088145 125.907127 
L 247.370106 123.942068 
L 247.652066 123.428213 
L 247.934027 121.226312 
L 248.779909 106.986758 
L 249.061869 105.701221 
L 249.34383 107.049976 
L 249.907751 114.875406 
L 250.189712 119.777319 
L 250.471672 127.512463 
L 251.317554 157.631127 
L 251.599514 161.005983 
L 251.881475 161.318713 
L 252.727357 155.523584 
L 253.009317 155.695438 
L 253.573239 156.282238 
L 253.855199 157.364332 
L 254.41912 161.100433 
L 254.701081 161.938743 
L 254.983041 162.391119 
L 255.265002 163.076685 
L 255.546963 164.29518 
L 256.110884 167.628628 
L 256.674805 168.710726 
L 257.238726 171.728463 
L 257.520687 171.678769 
L 257.802647 171.875229 
L 258.084608 175.234663 
L 258.366569 180.378552 
L 258.648529 183.394912 
L 258.93049 183.767518 
L 259.494411 184.012408 
L 259.776371 182.823467 
L 260.058332 180.162355 
L 260.340293 175.396716 
L 260.622253 165.988264 
L 261.468135 126.390267 
L 261.750096 120.12362 
L 262.032056 117.299532 
L 262.314017 116.749133 
L 262.595977 116.605948 
L 263.159898 114.104765 
L 263.441859 112.750103 
L 264.00578 108.211303 
L 264.287741 107.519211 
L 264.569701 108.867668 
L 264.851662 110.92911 
L 265.133623 114.830057 
L 265.415583 123.703916 
L 265.979504 148.866255 
L 266.261465 154.997221 
L 266.543425 155.885272 
L 267.389307 152.208117 
L 267.953228 152.404539 
L 268.51715 150.94379 
L 268.79911 151.647932 
L 269.081071 152.802604 
L 269.363031 152.817142 
L 269.644992 153.835736 
L 269.926953 159.25858 
L 270.208913 166.936417 
L 270.490874 171.063663 
L 270.772834 170.826883 
L 271.054795 171.00876 
L 271.618716 175.139422 
L 272.182637 174.305057 
L 273.028519 177.541912 
L 273.59244 182.49013 
L 274.438322 189.57393 
L 274.720282 189.539077 
L 275.002243 184.23825 
L 275.566164 158.191798 
L 276.130085 131.375381 
L 276.694007 119.600471 
L 277.257928 113.70049 
L 277.539888 111.904558 
L 277.821849 108.26499 
L 278.38577 99.4585 
L 278.949691 96.923427 
L 279.231652 96.190391 
L 279.513612 98.447176 
L 279.795573 105.023401 
L 280.359494 130.68613 
L 280.923415 157.496637 
L 281.205376 160.771338 
L 281.487337 161.284083 
L 282.051258 168.209643 
L 282.333218 168.920537 
L 282.615179 167.153342 
L 282.897139 166.803359 
L 283.1791 168.096118 
L 283.461061 167.679464 
L 284.024982 161.727826 
L 284.306942 161.272292 
L 284.870864 163.072966 
L 285.152824 165.526196 
L 285.716745 173.164647 
L 286.280667 176.286124 
L 286.844588 179.787168 
L 287.408509 185.023231 
L 287.690469 185.436371 
L 287.97243 184.204938 
L 288.254391 185.211676 
L 288.536351 188.820704 
L 288.818312 190.611975 
L 289.100272 189.796995 
L 289.382233 190.398875 
L 289.664194 191.67471 
L 289.946154 186.411927 
L 291.073996 131.314253 
L 291.637918 119.769977 
L 292.201839 112.042657 
L 293.047721 98.05141 
L 293.893602 78.439837 
L 294.175563 75.664835 
L 294.457524 75.717082 
L 294.739484 82.327941 
L 295.021445 98.827908 
L 295.585366 143.555419 
L 295.867326 157.785445 
L 296.149287 165.047945 
L 296.431248 167.49263 
L 296.713208 166.203201 
L 296.995169 163.38731 
L 297.277129 162.584257 
L 298.123011 170.239689 
L 298.404972 170.889056 
L 298.968893 170.963107 
L 299.250853 171.584838 
L 299.814775 174.642617 
L 300.096735 175.42504 
L 300.378696 175.789839 
L 300.660656 176.690811 
L 302.070459 185.974413 
L 302.634381 190.373961 
L 303.480262 198.184155 
L 303.762223 202.306953 
L 304.044183 204.664138 
L 304.326144 201.324691 
L 304.608105 191.474476 
L 306.017908 122.237874 
L 306.863789 104.264237 
L 307.709671 84.962276 
L 308.273592 69.267243 
L 308.555553 64.843791 
L 308.837513 64.511802 
L 309.119474 67.904918 
L 309.401435 76.763266 
L 309.683395 94.806476 
L 310.529277 167.21757 
L 310.811238 176.587482 
L 311.093198 178.594698 
L 311.375159 175.332698 
L 311.657119 170.014821 
L 311.93908 167.209081 
L 312.22104 168.365442 
L 312.503001 170.287934 
L 313.066922 170.987077 
L 313.912804 177.943215 
L 314.194765 178.110009 
L 314.476725 179.43564 
L 314.758686 181.404425 
L 315.322607 183.482568 
L 316.168489 191.047708 
L 316.450449 192.054739 
L 317.01437 197.477143 
L 317.296331 198.526656 
L 317.578292 198.103784 
L 317.860252 198.403345 
L 318.424173 201.164857 
L 318.706134 199.525585 
L 318.988095 192.589714 
L 319.552016 163.575946 
L 320.397897 120.647251 
L 322.089661 65.619308 
L 322.653582 53.40059 
L 322.935543 50.07532 
L 323.217503 51.146323 
L 323.499464 55.721448 
L 323.781424 63.445156 
L 324.063385 77.567358 
L 325.191227 166.286163 
L 325.473188 169.44899 
L 326.31907 165.533363 
L 326.60103 166.730422 
L 326.882991 168.651522 
L 327.164952 169.495021 
L 327.446912 169.46368 
L 327.728873 170.901763 
L 328.010833 174.118448 
L 328.292794 175.873417 
L 328.574754 175.098049 
L 328.856715 175.867641 
L 329.420636 186.879849 
L 329.702597 189.082314 
L 329.984557 189.611295 
L 330.266518 192.717868 
L 330.830439 200.914211 
L 331.1124 202.614596 
L 331.958281 211.726215 
L 332.240242 214.485664 
L 332.804163 224.094383 
L 333.086124 224.475764 
L 333.368084 217.576407 
L 333.932006 190.299321 
L 335.623769 105.17153 
L 336.18769 82.659451 
L 337.033572 59.096671 
L 337.879454 39.252424 
L 338.161414 35.692256 
L 338.443375 37.83066 
L 338.725336 48.611027 
L 339.289257 97.185646 
L 339.853178 144.944622 
L 340.135138 157.861839 
L 340.417099 165.435066 
L 340.69906 168.034367 
L 341.262981 163.876177 
L 341.544941 164.557398 
L 344.646508 199.33158 
L 344.928468 199.662609 
L 345.210429 199.580069 
L 345.49239 204.006783 
L 346.056311 218.518696 
L 346.620232 228.993753 
L 347.184153 244.724682 
L 347.466114 247.48668 
L 347.748074 243.891579 
L 348.030035 234.077395 
L 348.593956 201.676884 
L 350.003759 110.096135 
L 350.56768 81.270316 
L 351.131601 65.349871 
L 351.977483 27.810112 
L 352.259444 22.231153 
L 352.541404 21.644306 
L 352.823365 26.371428 
L 353.105325 37.786754 
L 353.669247 82.962983 
L 354.233168 139.793138 
L 354.515128 156.217098 
L 354.797089 163.415096 
L 355.07905 166.720077 
L 355.36101 168.441016 
L 355.642971 168.812161 
L 355.924931 169.998219 
L 356.488852 176.637089 
L 357.334734 180.706747 
L 358.180616 186.269991 
L 358.744537 193.899782 
L 361.000222 228.537056 
L 361.846104 238.555357 
L 362.128064 238.075963 
L 362.410025 229.931147 
L 363.537867 154.917651 
L 364.383749 104.125262 
L 366.075512 24.888198 
L 366.357473 17.796992 
L 366.639434 16.194658 
L 366.921394 18.415621 
L 367.203355 24.493054 
L 367.485315 36.190927 
L 367.767276 55.182106 
L 368.895118 154.102459 
L 369.459039 165.508884 
L 370.022961 173.552426 
L 370.304921 173.847799 
L 370.586882 172.649683 
L 370.868842 173.371655 
L 371.996685 189.041741 
L 372.278645 193.413774 
L 372.560606 195.661476 
L 372.842566 196.013983 
L 373.124527 198.185653 
L 373.688448 206.006284 
L 373.970409 207.352929 
L 374.252369 210.804861 
L 375.098251 228.600036 
L 376.226094 245.359611 
L 376.508054 244.442393 
L 376.790015 235.484769 
L 377.917857 160.859891 
L 378.763739 99.61539 
L 379.32766 68.29868 
L 379.891581 36.802529 
L 380.737463 13.133388 
L 381.019423 12.096 
L 381.301384 17.492424 
L 381.865305 36.460344 
L 382.147266 55.673942 
L 382.993148 140.858151 
L 383.557069 166.350391 
L 383.839029 172.181771 
L 384.12099 173.062336 
L 384.684911 168.889829 
L 384.966872 170.424989 
L 385.530793 179.133958 
L 386.094714 189.908548 
L 386.376675 193.321339 
L 386.658635 194.951871 
L 386.940596 197.262541 
L 387.504517 204.317826 
L 387.786478 205.511741 
L 388.068438 207.964172 
L 389.19628 230.555825 
L 390.324123 250.46376 
L 390.606083 254.016 
L 390.888044 250.336856 
L 391.451965 220.779112 
L 392.015886 178.664078 
L 392.861768 109.154996 
L 393.70765 50.068875 
L 394.271571 35.664159 
L 394.835492 24.550814 
L 395.117453 22.837076 
L 395.399413 23.514225 
L 395.681374 25.509425 
L 395.963335 30.663758 
L 396.245295 42.033157 
L 396.809216 84.480953 
L 397.655098 155.048042 
L 397.937059 167.444888 
L 398.219019 173.16859 
L 398.50098 174.052635 
L 399.064901 172.288107 
L 399.346862 172.575676 
L 399.628822 174.19356 
L 399.910783 178.778056 
L 400.474704 192.771182 
L 400.756665 195.326527 
L 401.038625 196.041237 
L 401.884507 201.492583 
L 402.166467 202.660753 
L 402.448428 206.38776 
L 403.858231 233.95479 
L 404.704113 247.032356 
L 404.986073 248.00804 
L 405.268034 242.035744 
L 405.549994 228.593784 
L 406.395876 165.172005 
L 407.523719 77.158231 
L 408.08764 51.501804 
L 408.651561 37.043602 
L 409.215482 30.619309 
L 409.497443 27.947823 
L 409.779403 27.076005 
L 410.061364 30.010396 
L 410.343324 37.707496 
L 410.625285 51.324563 
L 412.035088 154.71595 
L 412.317049 163.766343 
L 412.599009 167.044954 
L 412.88097 167.278435 
L 413.444891 166.487417 
L 413.726851 166.684068 
L 414.008812 168.033344 
L 414.290773 170.666191 
L 414.854694 179.239209 
L 418.520181 249.120312 
L 418.802142 251.859832 
L 419.084103 251.420085 
L 419.366063 245.675532 
L 419.648024 232.061123 
L 420.493906 156.478471 
L 421.621748 64.430931 
L 422.185669 44.622982 
L 422.74959 29.231955 
L 423.031551 25.408927 
L 423.313511 23.549446 
L 423.595472 24.02683 
L 423.877433 27.588965 
L 424.159393 33.49121 
L 424.441354 42.25049 
L 424.723314 56.680708 
L 426.133117 153.675036 
L 426.697038 176.946485 
L 426.978999 182.292523 
L 427.54292 186.954715 
L 427.824881 188.14091 
L 428.106841 188.585883 
L 428.388802 188.672576 
L 428.670763 189.789303 
L 428.952723 193.27591 
L 429.516644 202.563784 
L 430.362526 209.460158 
L 430.926447 213.872399 
L 431.772329 222.118918 
L 432.05429 224.92617 
L 432.900171 237.238681 
L 433.182132 239.7274 
L 433.464093 239.6482 
L 433.746053 232.463711 
L 434.028014 216.022113 
L 434.873895 139.2939 
L 435.437817 92.037238 
L 436.001738 64.680272 
L 436.565659 51.398348 
L 437.12958 42.193777 
L 437.411541 39.333513 
L 437.693501 38.097916 
L 437.975462 38.592455 
L 438.257422 40.635859 
L 438.539383 45.256959 
L 438.821344 55.04506 
L 441.077028 176.141502 
L 441.358989 185.009381 
L 441.64095 189.333903 
L 441.92291 189.059187 
L 442.204871 187.910194 
L 442.486831 188.329831 
L 443.614674 192.076756 
L 443.896634 193.463724 
L 444.178595 196.542268 
L 445.588398 218.942324 
L 446.434279 228.435278 
L 446.998201 237.944203 
L 447.280161 244.113365 
L 447.562122 247.570774 
L 447.844082 242.149105 
L 448.126043 227.414187 
L 448.689964 181.340441 
L 449.253885 125.912568 
L 449.817806 92.754046 
L 450.381728 68.612847 
L 451.227609 47.030472 
L 451.50957 42.465341 
L 451.791531 40.12006 
L 452.073491 39.355439 
L 452.355452 41.061034 
L 452.919373 52.063597 
L 453.201334 61.367444 
L 454.611136 138.258077 
L 455.457018 185.224592 
L 455.738979 193.47387 
L 456.020939 197.191391 
L 456.3029 196.749451 
L 456.584861 194.848655 
L 456.866821 194.265578 
L 457.148782 195.276164 
L 458.558585 203.847358 
L 459.122506 214.071162 
L 459.404466 215.327035 
L 459.686427 214.310916 
L 459.968388 215.83859 
L 460.532309 222.922591 
L 460.814269 224.125942 
L 461.09623 226.284857 
L 461.378191 229.526241 
L 461.660151 230.615957 
L 461.942112 226.604959 
L 462.224072 215.791088 
L 462.506033 196.401996 
L 463.633875 95.457618 
L 464.479757 59.410147 
L 465.043678 44.604185 
L 465.607599 36.877712 
L 465.88956 35.014671 
L 466.17152 34.803827 
L 466.453481 36.496937 
L 466.735442 40.574537 
L 467.017402 47.904566 
L 467.581323 72.779149 
L 469.837008 191.593683 
L 470.400929 202.691962 
L 470.68289 204.999973 
L 470.96485 202.909284 
L 471.528772 193.617501 
L 471.810732 193.283008 
L 472.374653 194.533428 
L 472.656614 196.375828 
L 473.502496 205.269505 
L 474.066417 212.172859 
L 474.630338 221.467045 
L 475.47622 243.752546 
L 475.75818 246.02168 
L 476.040141 240.477839 
L 476.322102 225.69514 
L 476.886023 173.653189 
L 477.449944 118.196016 
L 478.013865 87.690883 
L 478.859747 59.380512 
L 479.423668 48.359529 
L 479.987589 42.914695 
L 480.26955 41.898951 
L 480.55151 42.553211 
L 480.833471 44.187648 
L 481.115432 47.924101 
L 481.397392 56.753005 
L 484.216998 193.487851 
L 484.498959 201.21322 
L 484.780919 205.478746 
L 485.06288 205.476038 
L 485.34484 203.393766 
L 485.626801 203.917176 
L 485.908762 207.472572 
L 486.190722 209.611292 
L 486.472683 209.243035 
L 486.754643 209.724589 
L 487.882486 218.915935 
L 488.728367 229.123973 
L 489.292289 242.157588 
L 489.574249 244.108817 
L 489.85621 244.874584 
L 490.13817 243.51491 
L 490.420131 235.32326 
L 490.702091 218.038633 
L 491.266013 159.997644 
L 491.829934 105.052643 
L 492.675816 71.239369 
L 493.239737 52.432905 
L 493.521697 47.336605 
L 493.803658 44.815597 
L 494.367579 41.364586 
L 494.64954 41.402042 
L 495.777382 60.925725 
L 497.751106 156.676755 
L 498.596988 186.874275 
L 499.160909 199.625683 
L 499.44287 204.295012 
L 499.72483 206.465138 
L 500.006791 206.532869 
L 500.288751 206.038224 
L 500.570712 206.40333 
L 500.852673 208.553668 
L 501.698554 219.012936 
L 502.262476 225.132072 
L 502.826397 232.803067 
L 503.390318 243.2543 
L 503.954239 248.728204 
L 504.2362 249.37586 
L 504.51816 245.726714 
L 504.800121 235.155032 
L 505.082081 216.328124 
L 506.209924 104.481904 
L 507.055805 69.162029 
L 507.619727 54.28099 
L 507.901687 49.836991 
L 508.465608 45.412494 
L 508.747569 41.840086 
L 509.02953 39.800978 
L 509.31149 41.109844 
L 509.593451 43.836892 
L 509.875411 48.364158 
L 510.157372 58.962809 
L 511.003254 102.761214 
L 513.258938 190.07797 
L 513.82286 201.977169 
L 514.386781 208.566711 
L 514.668741 209.177834 
L 514.950702 209.373264 
L 515.514623 214.325505 
L 515.796584 214.448978 
L 516.078544 214.190568 
L 516.360505 217.821616 
L 516.924426 230.332235 
L 518.052268 246.768688 
L 518.334229 249.079927 
L 518.61619 246.94724 
L 518.89815 236.87782 
L 519.180111 216.996104 
L 520.307953 100.240635 
L 520.871874 74.384418 
L 521.435795 56.418684 
L 521.999717 46.848377 
L 522.281677 43.854539 
L 522.563638 43.205728 
L 523.127559 43.859959 
L 523.409519 45.336853 
L 523.69148 50.108472 
L 524.255401 69.643243 
L 525.947165 134.008172 
L 528.48481 207.146318 
L 528.766771 210.488934 
L 529.894613 218.093329 
L 530.458534 222.264109 
L 531.304416 233.001266 
L 531.586376 234.298192 
L 531.868337 236.844006 
L 532.432258 247.602259 
L 532.714219 248.688472 
L 532.996179 244.379848 
L 533.27814 233.336107 
L 533.560101 211.325441 
L 534.405982 119.82413 
L 535.251864 80.464202 
L 535.815785 62.546283 
L 536.661667 42.174326 
L 536.943628 41.965993 
L 537.507549 45.539113 
L 537.789509 48.559469 
L 538.07147 53.228317 
L 538.353431 60.503108 
L 539.199312 96.548766 
L 540.045194 128.656552 
L 541.454997 168.161761 
L 542.8648 206.429415 
L 543.146761 209.241001 
L 543.428721 208.67226 
L 543.710682 208.847427 
L 544.274603 213.955562 
L 544.838524 216.119232 
L 545.402445 221.747697 
L 545.684406 225.981346 
L 546.812248 249.889535 
L 547.094209 251.704099 
L 547.376169 249.760379 
L 547.65813 237.953321 
L 548.222051 176.99291 
L 548.785972 123.636147 
L 549.631854 85.517641 
L 550.195775 69.872161 
L 550.759696 60.445214 
L 551.323618 55.552975 
L 551.605578 54.03899 
L 551.887539 54.669223 
L 552.45146 59.191284 
L 552.73342 64.337647 
L 554.425184 120.077243 
L 555.271066 145.785787 
L 555.834987 159.974052 
L 557.24479 200.468569 
L 557.52675 206.845887 
L 558.090672 212.580379 
L 558.654593 218.818765 
L 559.218514 226.537478 
L 559.500475 228.459768 
L 559.782435 228.813726 
L 560.064396 229.416786 
L 560.346356 231.982992 
L 561.192238 245.179966 
L 561.474199 246.577634 
L 561.756159 246.308277 
L 562.03812 241.517218 
L 562.32008 224.428868 
L 563.165962 130.481486 
L 564.011844 85.768371 
L 564.575765 67.926756 
L 565.139686 57.932297 
L 565.985568 51.319945 
L 566.267529 50.799282 
L 566.83145 55.582604 
L 567.11341 59.409829 
L 567.395371 68.777081 
L 568.241253 107.854453 
L 569.651056 150.606727 
L 570.214977 162.437851 
L 571.060859 177.629054 
L 571.62478 189.977024 
L 572.188701 202.95193 
L 573.316543 221.509784 
L 573.598504 223.371419 
L 574.162425 225.324162 
L 574.444386 227.414336 
L 575.008307 234.507373 
L 575.572228 241.425028 
L 575.854189 242.583853 
L 576.136149 241.924235 
L 576.41811 237.965755 
L 576.70007 225.093236 
L 577.263991 161.085373 
L 577.827913 108.090209 
L 578.673794 74.934967 
L 579.237716 58.46443 
L 579.519676 54.2775 
L 579.801637 53.507115 
L 580.083597 53.663191 
L 580.365558 53.021001 
L 580.647518 53.403348 
L 581.21144 57.704021 
L 581.4934 61.45407 
L 582.057321 81.804042 
L 582.621243 100.51474 
L 583.749085 132.275747 
L 586.568691 188.941624 
L 587.696533 220.524899 
L 588.260454 229.054293 
L 588.542415 231.417477 
L 589.388297 241.916247 
L 589.670257 241.427163 
L 589.952218 241.479114 
L 590.516139 248.406818 
L 590.7981 246.874292 
L 591.08006 236.401148 
L 591.362021 216.155982 
L 592.207903 130.994234 
L 592.771824 102.87034 
L 594.181627 61.029298 
L 595.027508 55.199292 
L 595.309469 57.26693 
L 595.87339 64.936561 
L 596.155351 66.931905 
L 596.437311 73.583326 
L 597.283193 106.630703 
L 598.411035 135.583912 
L 598.974957 146.967 
L 599.820838 157.073298 
L 600.102799 160.490565 
L 600.66672 174.207329 
L 601.230641 186.817902 
L 601.794562 198.523026 
L 602.922405 225.904686 
L 603.204365 229.632204 
L 603.486326 231.191002 
L 603.768287 233.690034 
L 604.332208 240.194146 
L 604.614168 241.278782 
L 604.896129 243.302159 
L 605.178089 246.226633 
L 605.46005 247.294482 
L 605.742011 243.530844 
L 606.023971 232.076 
L 606.305932 208.357096 
L 606.869853 141.499747 
L 607.151814 121.670908 
L 608.843577 66.558917 
L 609.125538 62.965198 
L 609.689459 60.515557 
L 609.971419 59.731182 
L 610.25338 60.640726 
L 611.381222 75.790754 
L 611.663183 82.987214 
L 612.509065 111.221281 
L 613.918868 144.455849 
L 614.482789 152.051602 
L 615.04671 161.230551 
L 615.610631 167.746091 
L 616.174552 178.839818 
L 616.738474 189.927533 
L 617.302395 199.185037 
L 617.866316 212.171727 
L 618.994158 239.563043 
L 619.558079 246.291745 
L 620.122001 250.632146 
L 620.403961 250.845704 
L 620.685922 250.434812 
L 620.967882 246.524653 
L 621.249843 232.805182 
L 622.377685 121.569162 
L 623.223567 86.573459 
L 623.787488 70.439765 
L 624.351409 61.544825 
L 624.63337 59.662297 
L 624.915331 59.43055 
L 625.761212 70.054001 
L 626.043173 71.065889 
L 626.325133 77.377987 
L 626.889055 96.686494 
L 628.862779 135.40902 
L 629.144739 138.666958 
L 629.4267 139.842501 
L 629.990621 150.037467 
L 630.272582 152.927494 
L 630.554542 154.024405 
L 631.400424 172.036158 
L 631.682385 174.272715 
L 631.964345 181.239494 
L 632.246306 184.145339 
L 632.528266 189.48129 
L 632.810227 188.44727 
L 633.092188 200.331895 
L 633.092188 200.331895 
" clip-path="url(#p7226a7f96e)" style="fill: none; stroke: #1f77b4; stroke-width: 1.5; stroke-linecap: square"/>
   </g>
   <g id="patch_3">
    <path d="M 47.192188 266.112 
L 47.192188 0 
" style="fill: none; stroke: #808080; stroke-width: 0.8; stroke-linejoin: miter; stroke-linecap: square"/>
   </g>
   <g id="patch_4">
    <path d="M 660.992188 266.112 
L 660.992188 0 
" style="fill: none; stroke: #000000; stroke-width: 0.8; stroke-linejoin: miter; stroke-linecap: square"/>
   </g>
   <g id="patch_5">
    <path d="M 47.192188 266.112 
L 660.992188 266.112 
" style="fill: none; stroke: #808080; stroke-width: 0.8; stroke-linejoin: miter; stroke-linecap: square"/>
   </g>
   <g id="patch_6">
    <path d="M 47.192188 0 
L 660.992188 0 
" style="fill: none; stroke: #000000; stroke-width: 0.8; stroke-linejoin: miter; stroke-linecap: square"/>
   </g>
  </g>
 </g>
 <defs>
  <clipPath id="p7226a7f96e">
   <rect x="47.192188" y="0" width="613.8" height="266.112"/>
  </clipPath>
 </defs>
</svg>
