<svg xmlns="http://www.w3.org/2000/svg" xmlns:xlink="http://www.w3.org/1999/xlink" width="913.477" height="377.053" viewBox="0 0 685.107 282.79"><defs><style>*{stroke-linejoin:round;stroke-linecap:butt}</style></defs><g id="figure_1"><path id="patch_1" d="M0 282.79h685.107V0H0v282.79z" style="fill:none"/><g id="axes_1"><path id="patch_2" d="M71.308 266.112h613.8V0h-613.8v266.112z" style="fill:none"/><g id="matplotlib.axis_1"><g id="xtick_1"><g id="line2d_1"><defs><path id="mdc2dd7aee6" d="M0 0v3.5" style="stroke:gray;stroke-width:.8"/></defs><use xlink:href="#mdc2dd7aee6" x="99.207" y="266.112" style="fill:gray;stroke:gray;stroke-width:.8"/></g><g id="text_1" style="fill:gray" transform="matrix(.1 0 0 -.1 96.026 280.71)"><defs><path id="DejaVuSans-30" d="M2034 4250q-487 0-733-480-245-479-245-1442 0-959 245-1439 246-480 733-480 491 0 736 480 246 480 246 1439 0 963-246 1442-245 480-736 480zm0 500q785 0 1199-621 414-620 414-1801 0-1178-414-1799Q2819-91 2034-91q-784 0-1198 620-414 621-414 1799 0 1181 414 1801 414 621 1198 621z" transform="scale(.01563)"/></defs><use xlink:href="#DejaVuSans-30"/></g></g><g id="xtick_2"><use xlink:href="#mdc2dd7aee6" id="line2d_2" x="168.958" y="266.112" style="fill:gray;stroke:gray;stroke-width:.8"/><g id="text_2" style="fill:gray" transform="matrix(.1 0 0 -.1 159.414 280.71)"><defs><path id="DejaVuSans-35" d="M691 4666h2478v-532H1269V2991q137 47 274 70 138 23 276 23 781 0 1237-428 457-428 457-1159 0-753-469-1171Q2575-91 1722-91q-294 0-599 50Q819 9 494 109v635q281-153 581-228t634-75q541 0 856 284 316 284 316 772 0 487-316 771-315 285-856 285-253 0-505-56-251-56-513-175v2344z" transform="scale(.01563)"/></defs><use xlink:href="#DejaVuSans-35"/><use xlink:href="#DejaVuSans-30" x="63.623"/><use xlink:href="#DejaVuSans-30" x="127.246"/></g></g><g id="xtick_3"><use xlink:href="#mdc2dd7aee6" id="line2d_3" x="238.708" y="266.112" style="fill:gray;stroke:gray;stroke-width:.8"/><g id="text_3" style="fill:gray" transform="matrix(.1 0 0 -.1 225.982 280.71)"><defs><path id="DejaVuSans-31" d="M794 531h1031v3560L703 3866v575l1116 225h631V531h1031V0H794v531z" transform="scale(.01563)"/></defs><use xlink:href="#DejaVuSans-31"/><use xlink:href="#DejaVuSans-30" x="63.623"/><use xlink:href="#DejaVuSans-30" x="127.246"/><use xlink:href="#DejaVuSans-30" x="190.869"/></g></g><g id="xtick_4"><use xlink:href="#mdc2dd7aee6" id="line2d_4" x="308.457" y="266.112" style="fill:gray;stroke:gray;stroke-width:.8"/><g id="text_4" style="fill:gray" transform="matrix(.1 0 0 -.1 295.733 280.71)"><use xlink:href="#DejaVuSans-31"/><use xlink:href="#DejaVuSans-35" x="63.623"/><use xlink:href="#DejaVuSans-30" x="127.246"/><use xlink:href="#DejaVuSans-30" x="190.869"/></g></g><g id="xtick_5"><use xlink:href="#mdc2dd7aee6" id="line2d_5" x="378.207" y="266.112" style="fill:gray;stroke:gray;stroke-width:.8"/><g id="text_5" style="fill:gray" transform="matrix(.1 0 0 -.1 365.483 280.71)"><defs><path id="DejaVuSans-32" d="M1228 531h2203V0H469v531q359 372 979 998 621 627 780 809 303 340 423 576 121 236 121 464 0 372-261 606-261 235-680 235-297 0-627-103-329-103-704-313v638q381 153 712 231 332 78 607 78 725 0 1156-363 431-362 431-968 0-288-108-546-107-257-392-607-78-91-497-524-418-433-1181-1211z" transform="scale(.01563)"/></defs><use xlink:href="#DejaVuSans-32"/><use xlink:href="#DejaVuSans-30" x="63.623"/><use xlink:href="#DejaVuSans-30" x="127.246"/><use xlink:href="#DejaVuSans-30" x="190.869"/></g></g><g id="xtick_6"><use xlink:href="#mdc2dd7aee6" id="line2d_6" x="447.957" y="266.112" style="fill:gray;stroke:gray;stroke-width:.8"/><g id="text_6" style="fill:gray" transform="matrix(.1 0 0 -.1 435.233 280.71)"><use xlink:href="#DejaVuSans-32"/><use xlink:href="#DejaVuSans-35" x="63.623"/><use xlink:href="#DejaVuSans-30" x="127.246"/><use xlink:href="#DejaVuSans-30" x="190.869"/></g></g><g id="xtick_7"><use xlink:href="#mdc2dd7aee6" id="line2d_7" x="517.707" y="266.112" style="fill:gray;stroke:gray;stroke-width:.8"/><g id="text_7" style="fill:gray" transform="matrix(.1 0 0 -.1 504.983 280.71)"><defs><path id="DejaVuSans-33" d="M2597 2516q453-97 707-404 255-306 255-756 0-690-475-1069Q2609-91 1734-91q-293 0-604 58T488 141v609q262-153 574-231 313-78 654-78 593 0 904 234t311 681q0 413-289 645-289 233-804 233h-544v519h569q465 0 712 186t247 536q0 359-255 551-254 193-729 193-260 0-557-57-297-56-653-174v562q360 100 674 150t592 50q719 0 1137-327 419-326 419-882 0-388-222-655t-631-370z" transform="scale(.01563)"/></defs><use xlink:href="#DejaVuSans-33"/><use xlink:href="#DejaVuSans-30" x="63.623"/><use xlink:href="#DejaVuSans-30" x="127.246"/><use xlink:href="#DejaVuSans-30" x="190.869"/></g></g><g id="xtick_8"><use xlink:href="#mdc2dd7aee6" id="line2d_8" x="587.457" y="266.112" style="fill:gray;stroke:gray;stroke-width:.8"/><g id="text_8" style="fill:gray" transform="matrix(.1 0 0 -.1 574.732 280.71)"><use xlink:href="#DejaVuSans-33"/><use xlink:href="#DejaVuSans-35" x="63.623"/><use xlink:href="#DejaVuSans-30" x="127.246"/><use xlink:href="#DejaVuSans-30" x="190.869"/></g></g><g id="xtick_9"><use xlink:href="#mdc2dd7aee6" id="line2d_9" x="657.207" y="266.112" style="fill:gray;stroke:gray;stroke-width:.8"/><g id="text_9" style="fill:gray" transform="matrix(.1 0 0 -.1 644.482 280.71)"><defs><path id="DejaVuSans-34" d="M2419 4116 825 1625h1594v2491zm-166 550h794V1625h666v-525h-666V0h-628v1100H313v609l1940 2957z" transform="scale(.01563)"/></defs><use xlink:href="#DejaVuSans-34"/><use xlink:href="#DejaVuSans-30" x="63.623"/><use xlink:href="#DejaVuSans-30" x="127.246"/><use xlink:href="#DejaVuSans-30" x="190.869"/></g></g></g><g id="matplotlib.axis_2"><g id="ytick_1"><g id="line2d_10"><defs><path id="md0145c1562" d="M0 0h-3.5" style="stroke:gray;stroke-width:.8"/></defs><use xlink:href="#md0145c1562" x="71.308" y="239.187" style="fill:gray;stroke:gray;stroke-width:.8"/></g><g id="text_10" style="fill:gray" transform="matrix(.16 0 0 -.16 0 245.266)"><defs><path id="DejaVuSans-2212" d="M678 2272h4006v-531H678v531z" transform="scale(.01563)"/></defs><use xlink:href="#DejaVuSans-2212"/><use xlink:href="#DejaVuSans-32" x="83.789"/><use xlink:href="#DejaVuSans-30" x="147.412"/><use xlink:href="#DejaVuSans-30" x="211.035"/><use xlink:href="#DejaVuSans-30" x="274.658"/><use xlink:href="#DejaVuSans-30" x="338.281"/></g></g><g id="ytick_2"><use xlink:href="#md0145c1562" id="line2d_11" x="71.308" y="195.228" style="fill:gray;stroke:gray;stroke-width:.8"/><g id="text_11" style="fill:gray" transform="matrix(.16 0 0 -.16 0 201.307)"><use xlink:href="#DejaVuSans-2212"/><use xlink:href="#DejaVuSans-31" x="83.789"/><use xlink:href="#DejaVuSans-30" x="147.412"/><use xlink:href="#DejaVuSans-30" x="211.035"/><use xlink:href="#DejaVuSans-30" x="274.658"/><use xlink:href="#DejaVuSans-30" x="338.281"/></g></g><g id="ytick_3"><use xlink:href="#md0145c1562" id="line2d_12" x="71.308" y="151.27" style="fill:gray;stroke:gray;stroke-width:.8"/><use xlink:href="#DejaVuSans-30" id="text_12" style="fill:gray" transform="matrix(.16 0 0 -.16 54.127 157.348)"/></g><g id="ytick_4"><use xlink:href="#md0145c1562" id="line2d_13" x="71.308" y="107.311" style="fill:gray;stroke:gray;stroke-width:.8"/><g id="text_13" style="fill:gray" transform="matrix(.16 0 0 -.16 13.408 113.39)"><use xlink:href="#DejaVuSans-31"/><use xlink:href="#DejaVuSans-30" x="63.623"/><use xlink:href="#DejaVuSans-30" x="127.246"/><use xlink:href="#DejaVuSans-30" x="190.869"/><use xlink:href="#DejaVuSans-30" x="254.492"/></g></g><g id="ytick_5"><use xlink:href="#md0145c1562" id="line2d_14" x="71.308" y="63.352" style="fill:gray;stroke:gray;stroke-width:.8"/><g id="text_14" style="fill:gray" transform="matrix(.16 0 0 -.16 13.408 69.43)"><use xlink:href="#DejaVuSans-32"/><use xlink:href="#DejaVuSans-30" x="63.623"/><use xlink:href="#DejaVuSans-30" x="127.246"/><use xlink:href="#DejaVuSans-30" x="190.869"/><use xlink:href="#DejaVuSans-30" x="254.492"/></g></g><g id="ytick_6"><use xlink:href="#md0145c1562" id="line2d_15" x="71.308" y="19.393" style="fill:gray;stroke:gray;stroke-width:.8"/><g id="text_15" style="fill:gray" transform="matrix(.16 0 0 -.16 13.408 25.472)"><use xlink:href="#DejaVuSans-33"/><use xlink:href="#DejaVuSans-30" x="63.623"/><use xlink:href="#DejaVuSans-30" x="127.246"/><use xlink:href="#DejaVuSans-30" x="190.869"/><use xlink:href="#DejaVuSans-30" x="254.492"/></g></g></g><path id="line2d_16" d="m99.207 151.573.282-.597.282.578.282-.561.282.546.282-.533.282.521.282-.51.282.5.282-.492.282.486.282-.48.282.474.282-.469.282.465.282-.462.282.46.282-.458.282.457.282-.457.282.458.282-.46.282.462.282-.464.282.468.282-.473.281.478.282-.485.282.493.282-.502.282.513.282-.525.282.538.282-.554.282.573.282-.594.282.618.282-.646.282.679.282-.718.282.764.282-.82.282.888.282-.972.282 1.08.282-1.222.282 1.417.282-1.701.282 2.151.282-2.972.282 4.958.563-42.617.282 3.758.282 1.234.564 15.269.846 24.198.282 4.17.282 1.802.282-1.07.282-.63.282-1.835.564-1.046.282.131.282-.833.564.126.282 1.152.564 1.112.564-1.176.282-1.11.281-.321.282.288.282 1.251.564 1.56 1.128 5.306.282 1.91.282.176.282-5.175.564-16.594.564-8.566.282-1.715.564.447.282-3.142.564-9.223.282-1.534.282-.733.282-.09.281.771.564 3.434.282 3.832.564 15.057.564 13.281.282 1.291.564-3.692.282.232.282 1.33.282.614.282-.39.282.098.846 2.15.282-.153.282-.441.282.366.282 2.04.564 6.082.281.762.282-.454.282-.223.282.146.282.676.846 3.977.282.832.282 1.294.282-.58.282-5.835.846-26.48.564-9.029.564-1.56 1.128-12.685.282-2.385.282-.664.282 2.749 1.127 17.147.846 20.934.282 2.318.282.422.564-.59.564.87.282-.678.282-1.551.282-.322.564 3.462.564 1.717.282 1.715.282.6.282-.68.282.037.282 1.089.563.513.282 2.508.564 7.278.282.11.282-.012.564 3.308.282-2.052.282-7.242.846-29.983.564-11.095.282-.655.282 1.923.282.568 1.41-13.069.282-.425.281 2.6.846 11.42.846 22.955.282 2.997.282-.297.282-1.534.282-.271.282.868.282-.472.282-2.006.282-.364.564 4.086.282.295.282.508.282 1.012.282.088.282-.141.846 3.496.282.675.563 4.99.282.877.282.056.282.787.846 4.309.282.64.282-.265.282-1.847.282-5.223.846-27.794.282-3.035.564-1.184.282-1.495.564-5.737.564-5.344.282-1.33.282-.69.281.648.564 4.965.282 3.606.282 6.589.564 18.87.282 5.267.282 1.234.282-1.666.564-7.462.282-1.682.282.483.564 2.046.282.68.282.055.282-.223.282.676.564 2.954.564.753.282 2.04.845 10.188.846 3.898.282-.37.282-1.292.282.234.282 1.631.282.677.564-1.118.282-3.18 1.128-33.597.564-6.438.282-.403.282 1.919.282-.617.564-7.132.563-1.637.282-2.339.282-1.341.282 1.15.282 3.22.282 5.534.846 23.042.282 1.502.282-1.325.564-4.5.282-.25.282 2.93.564 8.399.564 2.277.564 5.86.282.411.846-5.93.281-.613.282.268 1.128 4.661.282.066.282-.103.282.61.846 5.305.282.222.282-1.567.282-5.768.846-27.925.564-5.556.282-1.814.282-1.024.282-2.19.564-9.066.282-1.22.563 2.705.282 1.592.564 5.922.282 4.6.282 8.296.564 23.182.282 6.357.282 1.906.282-.467.282-2.354.564-6.338.282-.928.282-.096.282.077.282.803.846 5.856.282.16.564-1.882.563.574.282-.337.282.092.846 2.388.564 3.176.564.058.564 1.766.282-.684.282-3.387.282-7.634.564-21.052.564-10.012.282-2.774.282-.347.282.886.282-1.942.563-7.808.282-.303.282-.602.282-1.406.282.712.846 10 .282 6.167.564 16.738.282 3.897.564 3.91.282.97.282-.59.282-.328.846 2.112.846 8.527.282 1.113.564 6.303.281.79.282-.95.282-.104.282.098.564-1.88.282.676.282-.021.564-3.153.564 1.677.282-.386.282.75.282 2.599.282.438.282-5.776.846-32.33.564-9.82.564-7.685.282-.868.281-.224.564-4.407.282.352.564 3.352.282 1.594.282 4.127.564 15.12.846 27.62.282.842.564-4.495 1.128-10.347.282-.154.564.888.282.512.282-.077.282-.922.281-.046 1.41 12.34.282 4.733.282 2.621.282.23.282.544.282 2.414.846 10.602.282.994.282-1.673.282-3.235.282-5.157.282-10.133.846-41.623.282-2.715.282-.352.282-.112.563 1.428.282-1.716.282-3.15.282-1.806.282.173.282 1.191.282 2.19.564 7.948.282 6.647.846 26.547.282.25.282-1.897 1.128-4.012.282.24.282.05.282-.846.282.352.845 9.24.282 1.045.282.441.282-.735.282-1.767.282-.645.846 4.113.282.773.282 2.965.564 9.223.846 5.89.282 1.249.282-3.895.564-21.33.846-34.696.282-4.424.282 1.348.281 2.372.282-.244 1.692-15.154.282.11.282 4.022.564 14.855.564 24.497.282 6.477.282-.938.564-6.542.282-1.368.282.015.564 3.106.282.185.282-.329.282.733 1.41 8.37.563.933.846 3.869.564.718.282.801.282 1.195.282 1.943 1.128 13.74.282.217.282-4.348.564-25.077.564-21.532.563-10.656.282-1.965.282-.514.282-2.202.846-14.24.282-1.285.282 1.349.564 7.825.282 4.902.282 7.735.846 30.12.282 3.374.282.313.846-5.795.282.171.564.587.282 1.082.563 3.736.282.839.282.452.282.686.282 1.218.564 3.334.564 1.082.564 3.017.282-.05.282.197.282 3.36.282 5.144.282 3.016.282.373.564.244.282-1.189.282-2.66.282-4.766.282-9.409.845-39.598.282-6.266.282-2.824.282-.55.282-.144.564-2.501.282-1.355.564-4.539.282-.692.282 1.349.282 2.061.282 3.901.282 8.874.564 25.162.282 6.131.282.888.846-3.677.564.197.563-1.461.282.704.282 1.155.282.014.282 1.019.282 5.423.282 7.677.282 4.128.282-.237.282.182.564 4.13.564-.834.846 3.237.564 4.948.846 7.084.282-.035.282-5.3.563-26.047.564-26.817.564-11.775.564-5.9.282-1.795.282-3.64.564-8.806.564-2.536.282-.733.282 2.257.282 6.576.564 25.663.564 26.81.282 3.275.282.513.564 6.926.282.71.281-1.767.282-.35.282 1.293.282-.417.564-5.951.282-.456.564 1.801.282 2.453.564 7.639.564 3.121.564 3.501.564 5.236.282.413.282-1.231.282 1.007.282 3.609.282 1.791.282-.815.282.602.282 1.276.281-5.263 1.128-55.098.564-11.544.564-7.727.846-13.992.846-19.611.282-2.775.282.052.282 6.61.282 16.5.564 44.728.282 14.23.282 7.263.282 2.445.282-1.29.281-2.816.282-.803.846 7.656.282.65.564.073.282.622.564 3.058.282.782.282.365.282.9 1.41 9.284.564 4.4.846 7.81.282 4.123.281 2.357.282-3.34.282-9.85 1.41-69.236.846-17.974.846-19.302.564-15.695.282-4.423.282-.332.282 3.393.282 8.858.282 18.043.846 72.412.282 9.37.282 2.007.281-3.262.282-5.318.282-2.806.282 1.156.282 1.923.564.7.846 6.955.282.167.282 1.326.282 1.968.564 2.079.846 7.565.282 1.007.564 5.422.282 1.05.282-.423.282.3.563 2.76.282-1.638.282-6.936.564-29.014.846-42.929 1.692-55.028.564-12.218.282-3.326.282 1.071.282 4.575.282 7.724.282 14.122 1.128 88.72.282 3.162.845-3.916.282 1.197.282 1.922.282.843.282-.031.282 1.438.282 3.216.282 1.755.282-.775.282.77.564 11.012.282 2.202.282.53.282 3.106.564 8.196.282 1.7.846 9.112.282 2.76.563 9.608.282.382.282-6.9.564-27.277 1.692-85.127.564-22.513.846-23.562.846-19.845.282-3.56.282 2.139.282 10.78.564 48.575.563 47.759.282 12.917.282 7.573.282 2.6.564-4.159.282.681 3.102 34.775.282.33.282-.082.282 4.427.564 14.512.564 10.475.563 15.73.282 2.763.282-3.595.282-9.815.564-32.4 1.41-91.58.564-28.827.564-15.92.846-37.54.282-5.579.282-.587.282 4.727.282 11.416.564 45.176.563 56.83.282 16.424.282 7.198.282 3.305.282 1.721.282.371.282 1.186.564 6.64.846 4.069.846 5.563.564 7.63 2.256 34.637.845 10.018.282-.479.282-8.145 1.128-75.013.846-50.793 1.692-79.237.282-7.091.282-1.602.282 2.22.282 6.078.282 11.698.282 18.991 1.127 98.92.564 11.407.564 8.043.282.296.282-1.198.282.722 1.128 15.67.282 4.372.282 2.247.282.353.282 2.172.564 7.82.282 1.347.282 3.452.846 17.795 1.127 16.76.282-.918.282-8.957 1.128-74.625.846-61.245.564-31.316.564-31.496.846-23.67.282-1.037.282 5.396.564 18.968.282 19.214.845 85.184.564 25.492.282 5.832.282.88.564-4.172.282 1.535.564 8.709.564 10.775.282 3.412.282 1.63.282 2.312.564 7.055.282 1.194.282 2.452 1.128 22.592 1.127 19.908.282 3.552.282-3.68.564-29.557.564-42.115.846-69.509.846-59.086.564-14.405.564-11.113.282-1.714.282.677.282 1.995.282 5.155.282 11.37.564 42.447.845 70.567.282 12.397.282 5.724.282.884.564-1.765.282.288.282 1.618.282 4.584.564 13.993.282 2.556.282.714.846 5.452.282 1.168.282 3.727 1.41 27.567.845 13.077.282.976.282-5.972.282-13.442.846-63.422 1.128-88.014.564-25.656.564-14.458.564-6.425.282-2.671.282-.872.282 2.934.282 7.697.282 13.618 1.41 103.39.281 9.051.282 3.279.282.233.564-.79.282.196.282 1.35.282 2.632.564 8.573 3.665 69.881.282 2.74.282-.44.282-5.744.282-13.615.846-75.583 1.128-92.047.564-19.808.564-15.391.282-3.823.282-1.86.282.478.282 3.562.282 5.902.282 8.76.282 14.43 1.41 96.994.563 23.271.282 5.347.564 4.662.282 1.186.282.445.282.087.282 1.116.282 3.487.564 9.288.846 6.896.564 4.412.846 8.247.282 2.807.845 12.313.282 2.488.282-.079.282-7.184.282-16.442.846-76.728.564-47.257.564-27.357.564-13.282.564-9.204.282-2.86.282-1.236.282.494.282 2.044.282 4.621.282 9.788 2.255 121.097.282 8.867.282 4.325.282-.275.282-1.149.282.42 1.128 3.747.282 1.387.282 3.078 1.41 22.4.846 9.493.564 9.51.281 6.168.282 3.458.282-5.422.282-14.735.564-46.074.564-55.427.564-33.159.564-24.141.846-21.583.282-4.565.282-2.345.282-.765.282 1.706.564 11.003.282 9.303 1.41 76.891.845 46.967.282 8.249.282 3.717.282-.442.282-1.9.282-.583.282 1.01 1.41 8.571.564 10.224.282 1.256.282-1.016.282 1.528.564 7.084.282 1.203.282 2.159.282 3.241.281 1.09.282-4.011.282-10.814.282-19.389 1.128-100.944.846-36.048.564-14.806.564-7.726.282-1.863.282-.211.282 1.693.282 4.078.282 7.33.564 24.874 2.255 118.815.564 11.098.282 2.308.282-2.09.564-9.292.282-.335.564 1.25.282 1.843.846 8.894.564 6.903.564 9.294.846 22.286.281 2.269.282-5.544.282-14.783.564-52.042.564-55.457.564-30.505.846-28.31.564-11.021.564-5.445.282-1.016.282.654.282 1.635.282 3.736.282 8.829 2.82 136.735.281 7.725.282 4.266.282-.003.282-2.082.282.523.282 3.556.282 2.138.282-.368.282.482 1.128 9.19.846 10.209.564 13.034.282 1.95.282.767.281-1.36.282-8.192.282-17.284.564-58.041.564-54.945.846-33.814.564-18.806.282-5.096.282-2.521.564-3.451.282.037 1.128 19.524 1.973 95.75.846 30.198.564 12.752.282 4.669.282 2.17.282.068.282-.495.282.365.282 2.15.846 10.46.564 6.12.564 7.67.564 10.451.564 5.474.282.648.281-3.65.282-10.571.282-18.827 1.128-111.846.846-35.32.564-14.881.282-4.444.564-4.425.282-3.572.282-2.039.282 1.309.282 2.727.282 4.527.282 10.599.846 43.798 2.255 87.317.564 11.9.564 6.589.282.61.282.196.564 4.953.282.123.282-.258.282 3.63.564 12.511 1.128 16.437.282 2.31.282-2.132.281-10.07.282-19.88 1.128-116.756.564-25.857.564-17.965.564-9.57.282-2.994.282-.65.564.655.282 1.477.282 4.771.564 19.535 1.691 64.365 2.538 73.138.282 3.343 1.128 7.604.564 4.171.846 10.737.282 1.297.282 2.546.564 10.758.282 1.086.281-4.308.282-11.044.282-22.01.846-91.502.846-39.36.564-17.918.846-20.372.282-.208.564 3.573.282 3.02.282 4.67.282 7.274.846 36.046.846 32.108 1.41 39.505 1.41 38.267.281 2.812.282-.569.282.175.564 5.109.564 2.163.564 5.629.282 4.233 1.128 23.909.282 1.814.281-1.944.282-11.807.564-60.96.564-53.357.846-38.118.564-15.646.564-9.427.564-4.892.282-1.514.282.63.564 4.522.282 5.147 1.691 55.74.846 25.708.564 14.188 1.41 40.495.282 6.377.564 5.734.564 6.239.564 7.718.282 1.923.282.354.282.603.282 2.566.846 13.197.282 1.398.281-.27.282-4.79.282-17.09.846-93.947.846-44.713.564-17.841.564-9.995.846-6.612.282-.52.564 4.783.282 3.827.282 9.367.846 39.077 1.41 42.753.563 11.83.846 15.192.564 12.348.564 12.975 1.128 18.558.282 1.861.564 1.953.282 2.09.564 7.093.564 6.918.282 1.159.281-.66.282-3.958.282-12.873.564-64.008.564-52.995.846-33.155.564-16.47.282-4.188.282-.77.282.156.282-.642.282.382.564 4.301.282 3.75.564 20.35.564 18.71 1.127 31.762 2.82 56.666 1.128 31.583.564 8.53.282 2.362.846 10.5.282-.49.282.052.563 6.928.282-1.533.282-10.473.282-20.245.846-85.162.564-28.124 1.41-41.84.846-5.83.282 2.067.564 7.67.282 1.995.282 6.651.846 33.048 1.127 28.953.564 11.383.846 10.106.282 3.418.564 13.716.564 12.61.564 11.706 1.128 27.382.282 3.727.282 1.559.282 2.499.564 6.504.281 1.085.282 2.023.282 2.925.282 1.067.282-3.763.282-11.455.282-23.719.564-66.857.282-19.83 1.692-55.111.282-3.594.564-2.45.282-.784.282.91 1.128 15.15.281 7.196.846 28.234 1.41 33.235.564 7.596.564 9.179.564 6.515.564 11.094.564 11.088.564 9.257.564 12.987 1.127 27.391.564 6.729.564 4.34.282.214.282-.411.282-3.91.282-13.72 1.128-111.236.846-34.996.564-16.133.564-8.895.282-1.883.282-.231.846 10.623.281 1.012.282 6.312.564 19.308 1.974 38.723.282 3.258.282 1.176.564 10.194.282 2.89.282 1.097.846 18.012.282 2.237.282 6.966.282 2.906.282 5.336.282-1.034.281 11.885h0" clip-path="url(#p24800f6a04)" style="fill:none;stroke:#1f77b4;stroke-width:1.5;stroke-linecap:square"/><path id="patch_3" d="M71.308 266.112V0" style="fill:none;stroke:gray;stroke-width:.8;stroke-linejoin:miter;stroke-linecap:square"/><path id="patch_4" d="M685.107 266.112V0" style="fill:none;stroke:#000;stroke-width:.8;stroke-linejoin:miter;stroke-linecap:square"/><path id="patch_5" d="M71.308 266.112h613.8" style="fill:none;stroke:gray;stroke-width:.8;stroke-linejoin:miter;stroke-linecap:square"/><path id="patch_6" d="M71.308 0h613.8" style="fill:none;stroke:#000;stroke-width:.8;stroke-linejoin:miter;stroke-linecap:square"/></g></g><defs><clipPath id="p24800f6a04"><path d="M71.308 0h613.8v266.112h-613.8z"/></clipPath></defs></svg>