<svg xmlns="http://www.w3.org/2000/svg" xmlns:xlink="http://www.w3.org/1999/xlink" width="913.477" height="384.705" viewBox="0 0 685.107 288.528"><defs><style>*{stroke-linejoin:round;stroke-linecap:butt}</style></defs><g id="figure_1"><path id="patch_1" d="M0 288.528h685.107V0H0v288.528z" style="fill:none"/><g id="axes_1"><path id="patch_2" d="M71.308 271.85h613.8V5.738h-613.8V271.85z" style="fill:none"/><g id="matplotlib.axis_1"><g id="xtick_1"><g id="line2d_1"><defs><path id="md3bf82ecc2" d="M0 0v3.5" style="stroke:gray;stroke-width:.8"/></defs><use xlink:href="#md3bf82ecc2" x="99.207" y="271.85" style="fill:gray;stroke:gray;stroke-width:.8"/></g><g id="text_1" style="fill:gray" transform="matrix(.1 0 0 -.1 96.026 286.449)"><defs><path id="DejaVuSans-30" d="M2034 4250q-487 0-733-480-245-479-245-1442 0-959 245-1439 246-480 733-480 491 0 736 480 246 480 246 1439 0 963-246 1442-245 480-736 480zm0 500q785 0 1199-621 414-620 414-1801 0-1178-414-1799Q2819-91 2034-91q-784 0-1198 620-414 621-414 1799 0 1181 414 1801 414 621 1198 621z" transform="scale(.01563)"/></defs><use xlink:href="#DejaVuSans-30"/></g></g><g id="xtick_2"><use xlink:href="#md3bf82ecc2" id="line2d_2" x="168.958" y="271.85" style="fill:gray;stroke:gray;stroke-width:.8"/><g id="text_2" style="fill:gray" transform="matrix(.1 0 0 -.1 159.414 286.449)"><defs><path id="DejaVuSans-35" d="M691 4666h2478v-532H1269V2991q137 47 274 70 138 23 276 23 781 0 1237-428 457-428 457-1159 0-753-469-1171Q2575-91 1722-91q-294 0-599 50Q819 9 494 109v635q281-153 581-228t634-75q541 0 856 284 316 284 316 772 0 487-316 771-315 285-856 285-253 0-505-56-251-56-513-175v2344z" transform="scale(.01563)"/></defs><use xlink:href="#DejaVuSans-35"/><use xlink:href="#DejaVuSans-30" x="63.623"/><use xlink:href="#DejaVuSans-30" x="127.246"/></g></g><g id="xtick_3"><use xlink:href="#md3bf82ecc2" id="line2d_3" x="238.708" y="271.85" style="fill:gray;stroke:gray;stroke-width:.8"/><g id="text_3" style="fill:gray" transform="matrix(.1 0 0 -.1 225.982 286.449)"><defs><path id="DejaVuSans-31" d="M794 531h1031v3560L703 3866v575l1116 225h631V531h1031V0H794v531z" transform="scale(.01563)"/></defs><use xlink:href="#DejaVuSans-31"/><use xlink:href="#DejaVuSans-30" x="63.623"/><use xlink:href="#DejaVuSans-30" x="127.246"/><use xlink:href="#DejaVuSans-30" x="190.869"/></g></g><g id="xtick_4"><use xlink:href="#md3bf82ecc2" id="line2d_4" x="308.457" y="271.85" style="fill:gray;stroke:gray;stroke-width:.8"/><g id="text_4" style="fill:gray" transform="matrix(.1 0 0 -.1 295.733 286.449)"><use xlink:href="#DejaVuSans-31"/><use xlink:href="#DejaVuSans-35" x="63.623"/><use xlink:href="#DejaVuSans-30" x="127.246"/><use xlink:href="#DejaVuSans-30" x="190.869"/></g></g><g id="xtick_5"><use xlink:href="#md3bf82ecc2" id="line2d_5" x="378.207" y="271.85" style="fill:gray;stroke:gray;stroke-width:.8"/><g id="text_5" style="fill:gray" transform="matrix(.1 0 0 -.1 365.483 286.449)"><defs><path id="DejaVuSans-32" d="M1228 531h2203V0H469v531q359 372 979 998 621 627 780 809 303 340 423 576 121 236 121 464 0 372-261 606-261 235-680 235-297 0-627-103-329-103-704-313v638q381 153 712 231 332 78 607 78 725 0 1156-363 431-362 431-968 0-288-108-546-107-257-392-607-78-91-497-524-418-433-1181-1211z" transform="scale(.01563)"/></defs><use xlink:href="#DejaVuSans-32"/><use xlink:href="#DejaVuSans-30" x="63.623"/><use xlink:href="#DejaVuSans-30" x="127.246"/><use xlink:href="#DejaVuSans-30" x="190.869"/></g></g><g id="xtick_6"><use xlink:href="#md3bf82ecc2" id="line2d_6" x="447.957" y="271.85" style="fill:gray;stroke:gray;stroke-width:.8"/><g id="text_6" style="fill:gray" transform="matrix(.1 0 0 -.1 435.233 286.449)"><use xlink:href="#DejaVuSans-32"/><use xlink:href="#DejaVuSans-35" x="63.623"/><use xlink:href="#DejaVuSans-30" x="127.246"/><use xlink:href="#DejaVuSans-30" x="190.869"/></g></g><g id="xtick_7"><use xlink:href="#md3bf82ecc2" id="line2d_7" x="517.707" y="271.85" style="fill:gray;stroke:gray;stroke-width:.8"/><g id="text_7" style="fill:gray" transform="matrix(.1 0 0 -.1 504.983 286.449)"><defs><path id="DejaVuSans-33" d="M2597 2516q453-97 707-404 255-306 255-756 0-690-475-1069Q2609-91 1734-91q-293 0-604 58T488 141v609q262-153 574-231 313-78 654-78 593 0 904 234t311 681q0 413-289 645-289 233-804 233h-544v519h569q465 0 712 186t247 536q0 359-255 551-254 193-729 193-260 0-557-57-297-56-653-174v562q360 100 674 150t592 50q719 0 1137-327 419-326 419-882 0-388-222-655t-631-370z" transform="scale(.01563)"/></defs><use xlink:href="#DejaVuSans-33"/><use xlink:href="#DejaVuSans-30" x="63.623"/><use xlink:href="#DejaVuSans-30" x="127.246"/><use xlink:href="#DejaVuSans-30" x="190.869"/></g></g><g id="xtick_8"><use xlink:href="#md3bf82ecc2" id="line2d_8" x="587.457" y="271.85" style="fill:gray;stroke:gray;stroke-width:.8"/><g id="text_8" style="fill:gray" transform="matrix(.1 0 0 -.1 574.732 286.449)"><use xlink:href="#DejaVuSans-33"/><use xlink:href="#DejaVuSans-35" x="63.623"/><use xlink:href="#DejaVuSans-30" x="127.246"/><use xlink:href="#DejaVuSans-30" x="190.869"/></g></g><g id="xtick_9"><use xlink:href="#md3bf82ecc2" id="line2d_9" x="657.207" y="271.85" style="fill:gray;stroke:gray;stroke-width:.8"/><g id="text_9" style="fill:gray" transform="matrix(.1 0 0 -.1 644.482 286.449)"><defs><path id="DejaVuSans-34" d="M2419 4116 825 1625h1594v2491zm-166 550h794V1625h666v-525h-666V0h-628v1100H313v609l1940 2957z" transform="scale(.01563)"/></defs><use xlink:href="#DejaVuSans-34"/><use xlink:href="#DejaVuSans-30" x="63.623"/><use xlink:href="#DejaVuSans-30" x="127.246"/><use xlink:href="#DejaVuSans-30" x="190.869"/></g></g></g><g id="matplotlib.axis_2"><g id="ytick_1"><g id="line2d_10"><defs><path id="m7c57c478f3" d="M0 0h-3.5" style="stroke:gray;stroke-width:.8"/></defs><use xlink:href="#m7c57c478f3" x="71.308" y="244.064" style="fill:gray;stroke:gray;stroke-width:.8"/></g><g id="text_10" style="fill:gray" transform="matrix(.16 0 0 -.16 0 250.143)"><defs><path id="DejaVuSans-2212" d="M678 2272h4006v-531H678v531z" transform="scale(.01563)"/></defs><use xlink:href="#DejaVuSans-2212"/><use xlink:href="#DejaVuSans-32" x="83.789"/><use xlink:href="#DejaVuSans-30" x="147.412"/><use xlink:href="#DejaVuSans-30" x="211.035"/><use xlink:href="#DejaVuSans-30" x="274.658"/><use xlink:href="#DejaVuSans-30" x="338.281"/></g></g><g id="ytick_2"><use xlink:href="#m7c57c478f3" id="line2d_11" x="71.308" y="204.4" style="fill:gray;stroke:gray;stroke-width:.8"/><g id="text_11" style="fill:gray" transform="matrix(.16 0 0 -.16 0 210.479)"><use xlink:href="#DejaVuSans-2212"/><use xlink:href="#DejaVuSans-31" x="83.789"/><use xlink:href="#DejaVuSans-30" x="147.412"/><use xlink:href="#DejaVuSans-30" x="211.035"/><use xlink:href="#DejaVuSans-30" x="274.658"/><use xlink:href="#DejaVuSans-30" x="338.281"/></g></g><g id="ytick_3"><use xlink:href="#m7c57c478f3" id="line2d_12" x="71.308" y="164.736" style="fill:gray;stroke:gray;stroke-width:.8"/><use xlink:href="#DejaVuSans-30" id="text_12" style="fill:gray" transform="matrix(.16 0 0 -.16 54.127 170.814)"/></g><g id="ytick_4"><use xlink:href="#m7c57c478f3" id="line2d_13" x="71.308" y="125.071" style="fill:gray;stroke:gray;stroke-width:.8"/><g id="text_13" style="fill:gray" transform="matrix(.16 0 0 -.16 13.408 131.15)"><use xlink:href="#DejaVuSans-31"/><use xlink:href="#DejaVuSans-30" x="63.623"/><use xlink:href="#DejaVuSans-30" x="127.246"/><use xlink:href="#DejaVuSans-30" x="190.869"/><use xlink:href="#DejaVuSans-30" x="254.492"/></g></g><g id="ytick_5"><use xlink:href="#m7c57c478f3" id="line2d_14" x="71.308" y="85.407" style="fill:gray;stroke:gray;stroke-width:.8"/><g id="text_14" style="fill:gray" transform="matrix(.16 0 0 -.16 13.408 91.486)"><use xlink:href="#DejaVuSans-32"/><use xlink:href="#DejaVuSans-30" x="63.623"/><use xlink:href="#DejaVuSans-30" x="127.246"/><use xlink:href="#DejaVuSans-30" x="190.869"/><use xlink:href="#DejaVuSans-30" x="254.492"/></g></g><g id="ytick_6"><use xlink:href="#m7c57c478f3" id="line2d_15" x="71.308" y="45.743" style="fill:gray;stroke:gray;stroke-width:.8"/><g id="text_15" style="fill:gray" transform="matrix(.16 0 0 -.16 13.408 51.822)"><use xlink:href="#DejaVuSans-33"/><use xlink:href="#DejaVuSans-30" x="63.623"/><use xlink:href="#DejaVuSans-30" x="127.246"/><use xlink:href="#DejaVuSans-30" x="190.869"/><use xlink:href="#DejaVuSans-30" x="254.492"/></g></g><g id="ytick_7"><use xlink:href="#m7c57c478f3" id="line2d_16" x="71.308" y="6.079" style="fill:gray;stroke:gray;stroke-width:.8"/><g id="text_16" style="fill:gray" transform="matrix(.16 0 0 -.16 13.408 12.158)"><use xlink:href="#DejaVuSans-34"/><use xlink:href="#DejaVuSans-30" x="63.623"/><use xlink:href="#DejaVuSans-30" x="127.246"/><use xlink:href="#DejaVuSans-30" x="190.869"/><use xlink:href="#DejaVuSans-30" x="254.492"/></g></g></g><path id="line2d_17" d="m99.207 164.744 1.974-.017 1.974.019 1.41-.022 1.41.025 1.41-.03.845.035.846-.04.846.048.282-.056.282.062.282-.068.282.076.282-.086.282.1.282-.12.282.147.282-.19.282.272.282-.47.282 1.467.281 7.573.282.134.282.789.282.232.282-.336.282-.091.846 5.008.282-.48.282.6.282 1.608.282.292.282-3.378.564-16.473.564-15.948.282-.18.564 6.512.282-.653.846-5.829.282-1.56.281-.245.846 2.4 1.128 9.043.282 4.615.564 12.12.282 1.258.564-2.733.564-2.172.282.58.282 1.11.282.071.282-.768.282-.312.282.133.282.31.282.48.282-.065.281-1.03.282-.282.282.968.282-.541.564-5.413.564 1.772.282-.816.282-.027.564 4.855.282 1.126.564.995.282.177.282.493.564 1.911.564.154.564.744.282 1.069.563 4.08.282-.11.282-.59.564 1.669.282-2.705.564-17.9.282-9.658.282-5.378.282.028.282 2.447.282.933.564-2.695.282-1.672.846-7.015.282.309.564 3.35 1.128 9.155.281 3.708.846 17.315.282 2 .282-.854.846-9.555.282-.393.564 1.54.282.203.282-.106.282.196.282 1.705.282 2.736.282.702.564-3.995.282 2.281.282 4.06.282 1.756.564-1.719.281.379.282.668.282-.102.846-3.348.282.403.282.933.282.316.282-.16.282.255.846 2.413.282.436.564.222.282.653.282 1.074.846 4.785.282-1.333.845-7.407.846-28.747.282.598.282 2.852.282.212.846-4.358.564-5.744.282-.86.282.133.564-.149.282 1.921.846 12.52.282 1.345.282 4.24.564 12.476.282 1.251.282-.782.845-4.188.282.576.282-1.262.282-3.52.282-1.144.564 4.657.282-.37.282.865.564 5.252.282-.35.282-.578.564.185.282.026.564 1.081.564.316.282.363.282.176.282-.168.281-.022.282.731.564 2.189.564.543.564 1.098.282.184.282.828.564 2.791.564.816 1.128 3.718.282.204.282-2.478.282-7.25.564-20.754.282-6.201.282-2.216.282.355.281 1.017.282-.146.564-3.805.564-4.532.282-2.6.282-1.018.282 1.25 1.41 14.31.282 4.27.846 17.017.282 1.48.282-.75.282-2.988.564-8.262.282.615.282 2.914.281 1.007.282-.58.282 1.86.282 4.26.282 2.178.564-2.156.282.023.282-1.032.282-1.618.282.411.282 1.446.282-.33.282-.68.564 3.839.282-1.709.282-3.446.282-.74.282 1.056.564-.835.282 2.634.282 3.953.282 1.811.281.46.564 3.142.282.327.282.029 1.41 4.53.564.4.282.848.282-1.727.282-7.724.564-22.53.564-11.763.282-2.117.282.668.282 1.404.282-.864.282-2.672.282-1.312.563 1.887.282-.023.282.416 1.128 7.637.282 3.907 1.128 24.896.564-5.171.282-.89.282.422.564 1.108.282-.514.564-3.488.282-.1.282.512.282-.242.282.001.281 1.882.282 2.786.282 1.408.564-.237.282.2.282-.182.282-.447.564-.538.282-.46.282-.056.564.637.282.823.846 5.552.564 1.933.282-.582.282-2.208.282-1.095.282 1.602.282 2.43.281 1.247.282.26.282-.018.282.319.564 3.371.282-2.745 1.128-35.034.282-3.146.282-.31.282 1.56.282-.115.564-4.27.282-1.279.282-3.606.564-8.751.282-.138.282 1.454.282 2.996 1.973 35.737.282 1.686.282.86.282-.979.282-1.93.282.036.564 4.819.282.676.564-.31.282-.266.282.183.282.725.282.236.282-.514.282-.26.282.205.282-.11.282-.369.282-.152.281-.324.282-.73.282-.313.564.774.564-.451.564 1.132.282-.228.282-.615.282.644.282 2.015.282 1.178.282-.223.282 1.123.564 6.01.282-.018.282.387.564 4.795.282.328.282.108.845 3.01.282-2.523.282-8.244.564-23.893.564-14.313.282-3.853.282-.245.282.99.282-1.655.564-6.85.564-3.792.282-2.956.282-1.738.282.856.282 3.451.846 17.76.564 16.842.563 16.15.282 2.733.282-1.15.564-5.477.564-2.418.282-.13.846 5.47.282-.676.282-.32.282.13.282-.598.282-1.019.282-.448.564-.027.282-.169.564-1.004.282.214.282.64.282-.21.281-.834.282-.117.282.394.564-.497.282.719.282 1.126.564 1.072.846 2.989.564.85.564 2.207 1.41 6.516.564 6.92.282-.031.282-8.004.845-38.123.282-7.117.282-3.087.282-.005.282.681h.282l.282-.97.282-2.495.846-10.887.282-2.863.282-.607.282 3.614 1.128 27.47.846 28.028.282 2.866.282-1.78.563-5.635.564-4.023.282-.68.564 2.243.282-.025.564-.936.564-.524.282-.366.282-.567.564-1.938.282.202.564 3.212.282.653.282.114.846.983.282.087.563-.381.282.535.564 2.567 1.128 2.323.282 1.358.564 3.494.282.688.564 4.39.282-.268.282-2.302.282-.13.282 1.672.282-2.386.564-21.59.564-21.17.282-6.418.282-2.348.563.187.282-.29.282-.522.282-1.874.564-6.334.282-1.089.282-.385.282-.692.282.137.282 2.83.282 6.198.564 20.807.564 25.057.282 7.388.282.841.846-10.678.564-3.021.282-.11.563 2.069.282.387.282.096.564.702.282-.627.564-2.416.282.002.282.387.282-.006.282-.261.282.052.282.344.282.052.282-.371.282-.095.846 1.805.282 1.139.846 8.262.282.557.282 1.393.563 4.475.282 1.275.282 1.938.564 5.276.846 3.685.282.764.282-2.838.282-8.953.846-40.578.564-11.886.564-5.157.282-2.524.564-8.498 1.41-25.589.281-.937.282 1.94.282 3.89.282 6.725.282 12.994.846 58.279.282 7.365.282.793 1.41-10.159.282.151.564 2.77.282-.21 1.41-2.956.281-.189.282-.344.564-1.173.282-.72.282-.222.564 1.341.282-.412.282-.7.282.535.282 1.344.564 1.407.846 4.974.282 1.52.564 4.975.282.46.282 1.383.564 5.798.282 1.754 1.41 16.269.281-.801.282-9.73 1.128-59.218.282-9.196.846-17.37.846-19.945.846-27.441.282-.095.564 5.898.282 4.868.563 16.848.282 14.434 1.128 84.3.282 2.437.282-1.26 1.128-10.473.564-1.886.564-.34.282-.515.564-2.122.564-2.781.564-3.135.563-1.524.282-.014.846 2.329.282-.035.282.225.282.548.564.55.282 1.887.564 5.397.282 1.197.282 2.063.564 5.39.282.965.282 1.518.846 8.362.564 5.451.282 1.59.282 2.93.281 1.49.282-5.87 1.41-66.326.282-5.158.282-1.751.282-6.3 1.41-56.293.282-5.193.282-.366.282.48.282.131.282 1.779.282 4.749.564 17.326.282 14.86 1.127 84.18.282-.097.282-3.286.846-5.95.282-2.815.282-.635.846 4.884.846-3.304.282-.032.282-.216.282-.924.564-2.23.564-.244.564-1.349.282.11 1.127 3.307.564 2.85.282 1.365.564.983.282 1.825.846 12.368.564 4.676.282 3.733.282 2.133.282-.461.282-.081.564 5.006.282-2.618.282-9.71 1.127-58.11 2.256-68.652.282-1.764.282-.512.564-3.259.282 2.833.564 14.412.282 11.674.564 49.193.282 25.21.282 14.51.282 4.84.282-.015 1.691-10.316.282-.481.282.44.282-.819.282-1.956.282-.566.564 2.089.564-1.044.282.065.564-1.265.564 2.352.282-.534.282-1.184.282.41.846 4.08.563 5.638.282.896.282 1.57 2.538 33.722.282 4.623.282 2.36.282-1.753.282-8.006.564-34.006.564-30.876.564-25.045.564-31.566.282-9.095 1.691-27.6.282-2.692.282-1.56.282-.82.282.202.282 3.338.282 9.657.564 39.138.564 41.178.564 25.404.282 4.611.564 2.374.282.115.564-3.358.282-.407.281-.186.564-1.837.564 2.322.282.153 1.128-1.413.282 1.205.564 5.04.282.733.282.345.282 1.23.564 4.443.564 4.85.564 4.271.564 6.45.564 4.416 1.41 20.842.845 14.086.282-2.31.282-9.872 1.41-85.082.564-33.82.564-19.78.564-17.7.846-34.812.563-20.944.282-3.487.282.5.282 3.754.282 7.804.282 12.702.564 42.158.846 78.59.282 15.624.282 7.31.282 1.013.282-.724.282-.21.282-1.183.564-4.308.282-.915.282-1.33.282-.324.846 7.079.281-.332.564-.112.282-.31.282.192.846 2.28.564 2.125.282.946.564 4.525.846 7.705.282.63.282-1.001.282.173.846 10.027.282 4.225 1.127 26.553.564 9.663.282-3.364.282-11.594 1.692-107.591.564-30.833.564-27.051.564-36.296.282-12.396.282-7.276.282-2.866.282 1.6.564 9.449.282 6.697.282 12.439.845 64.428.846 65.548.282 12.66.282 6.336.282 1.76.282-.779.564-3.393.846-6.299.564-2.144.282-.27.282.66.282 1.148.282.565.564-1.013.282-.014.282.159.282-.176.281.086.564 2.307.282 1.088.282 1.663 1.692 18.197 1.128 11.734 1.128 17.454.564 8.69.282 2.359.282-1.037.282-8.121.563-39.718.846-61.502.846-47.479.564-31.59.564-34.59.282-4.94.282-.626.282-.255.282 3.302.846 30.49.282 13.606.846 64.63.564 43.602.282 13.395.281 6.328.282 3.218.282 1.397.282-1.248 1.41-12.905.564-2.528.282-.599.564 1.286.282-.624.282.402.564 4.111.282-.01.282.108.282.722.282.082.282.352 1.127 9.762.564 6.837.564 4.946 1.128 14.38.564 10.017 1.128 16.182.282-2.362.282-12.187.846-65.103.846-65.896 1.127-67.316.282-4.942.282-2.288.282-.411.282 2.285.564 9.19.846 20.204.282 9.503.564 37.641.564 35.54 1.128 50.844.564 11.82.282 1.46.282-2.403.845-9.045.564-12.234.282-2.678.846 1.711.282 2.456.282 3.63.282 1.612.564-1.151.846 2.039.282 1.507.846 8.254.846 11.183.564 5.362.563 7.034.564 11.3.564 9.645.564 8.13.282-2.875.282-14.089.846-71.072.846-71.427.564-39.403.282-9.952.282-4.303.282-2.316.282-.042.564 5.639.282 3.844.845 16.885.282 3.345.282 5.591.564 19.354 1.128 52.678 1.41 52.72.282 7.328.282 4.424.282 1.028.282-1.593.564-6.35.846-11.195.845-5.836.282-.529.282.586.282-.093.282-.599.282.593.564 3.367.564 2.222.564 4.182.564 5.006 1.128 13.109.282 2.798 1.128 18.413.845 14.08.282 1.478.282-6.223.282-15.457.564-51.083.846-79.05.564-36.825.282-8.331.564-7.002.282-1.27.282 1.494.564 6.678 1.128 17.76.564 9.09.282 7.276 1.691 63.895 1.692 46.484.564 9.738.282 3.132.282-.598 1.41-16.044.846-3.33.282-.56.563.072.282.437.564 3.47 1.128 7.861.564 6.926.282.071.282-1.455.282 1.602.564 9.264.282 3.273.282 5.182.846 19.14.282 2.663.282-4.157.282-15.015.845-80.653.564-54.315.282-19.277.282-11.105.282-5.17.564-5.325.282-1.16.282 1.191.564 7.864.564 6.886.282 2.286.282 3.196.282 5.25.564 17.388 1.128 39.48 1.127 24.927.564 9.995.846 22.414.564 7.288.282 4.212.282 1.68.282-1.2 1.974-13.3.282.053.846 1.861.564 3.738 1.127 9.655.282 2.652.564 8.72.564 8.56.846 12.405.564 6.91.282-1.293.282-12.689.564-57.014.846-84.876.282-18.4.282-8.244.846-5.521.281-.17.282 2.276 1.974 25.325.282 6.789.846 35.284.564 11.12.564 7.806.282 2.505 1.692 22.16.564 8.023.845 15.646.564 7.514.282 1.47.282.238.564 1.033.282-.906.564-3.342.564-1.257.282-.27.282 1.106 1.41 15.08.846 14.655 1.41 19.957.281-2.083.282-12.134.282-24.194.846-100.721.564-34.027.282-6.484.282-.927.282 1.104.282.025.282.274.846 7.38.282 1.253 1.128 11.908.563 9.936.564 17.145.564 14.769.564 6.366.564 4.754.846 9.289.282 1.604 1.692 16.781 1.973 35.344.282 3.245.564 2.785.282.077.564-1.767.564.563.282-.388.282.001.282 1.416.564 5.315.564 8.978 1.128 19.314.282 4.108.282-1.685.282-11.811.564-52.821.845-89.627.282-13.13.282-5.68.564-5.555.282-.62.282 1.38.564 4.84.564 8.617.564 8.64.564 6.465.564 8.965.564 13.27.564 13.237.564 4.776.563 3.635.282 1.326.846 6.181.282 1.744.846 10.228.282 1.03.564 4.993.846 7.532.282 1.214.282 2.1.564 7.583.282 1.856.282 3.164.564 8.534.282 2.242.845 13.621.282-.032.282 1.969.564 6.433.282.853.282 2.046 1.692 20.99.282.947.282-6.574.282-19.865 1.128-123.85.282-12.267.282-7.273.282-4.165.282-2.158.281-.649.282 1.031.564 3.974.282 3.342.846 17.585.282 3.657 1.974 36.03.282 1.307.564 6.754.282-.87.282-1.667.282 1.041.282 2.06.564 1.312.563 2.913.282-.267.282.778 1.128 12.011.564 9.816.564 5.825.564 10.883.846 10.507.564 9.226 1.128 14.806 1.127 5.25.282 1.024.282 1.573.564 6.17.564 7.414.282-1.79.282-12.054.564-55.444.564-65.625.282-18.678.564-13.285.282-4.514.282-1.37.846 5.942 1.41 18.564.281 2.18.282 3.562.564 20.545.282 9.695.564 9.026.282 2.667.282 1.357.564 1.09.282 1.263.846 6.737.282-.542.282.977.282 3.548.282 2.102.564-3.1.564 1.904.282-.674.282.713.845 10.377.564 4.928.282 1.508.282 2.385.564 8.225.282 2.228.282 3.249.564 9.681.564 6.866 1.41 26.85.282 3.33.564 12.898.282 1.585.282-9.167.281-19.403 1.128-118.67.282-9.817.564-8.236.282-1.81.282-.624.282-.279.282 1.099.564 8.657.564 6.979.564 5.279.846 12.29.846 19.013.845 8.423.282 1.566.846 1.787.282.274.282.68.564 3.721.282.68.282-1.306.282-1.85.282.156.564 4.649.282.154.282.975.564 9.273.282 1.771.282-.043.282 1.78.564 5.313.282 1.064.281 2.364.564 6.13.282 1.45.282 2.447.846 13.338.282 1.464.282 2.517 1.974 34.424.282-5.55.282-17.698.846-87.262.282-15.038.282-6.857.563-6.67.564-7.668.282.158.846 5.526.846 13.454.846 7.048.282 4.182.846 19.242.564 6.47.282 3.489.282.106.564-4.292.282.304.563.324h0" clip-path="url(#p261594894e)" style="fill:none;stroke:#1f77b4;stroke-width:1.5;stroke-linecap:square"/><path id="patch_3" d="M71.308 271.85V5.738" style="fill:none;stroke:gray;stroke-width:.8;stroke-linejoin:miter;stroke-linecap:square"/><path id="patch_4" d="M685.107 271.85V5.738" style="fill:none;stroke:#000;stroke-width:.8;stroke-linejoin:miter;stroke-linecap:square"/><path id="patch_5" d="M71.308 271.85h613.8" style="fill:none;stroke:gray;stroke-width:.8;stroke-linejoin:miter;stroke-linecap:square"/><path id="patch_6" d="M71.308 5.738h613.8" style="fill:none;stroke:#000;stroke-width:.8;stroke-linejoin:miter;stroke-linecap:square"/></g></g><defs><clipPath id="p261594894e"><path d="M71.308 5.738h613.8V271.85h-613.8z"/></clipPath></defs></svg>