<svg xmlns="http://www.w3.org/2000/svg" xmlns:xlink="http://www.w3.org/1999/xlink" width="913.477" height="377.053" viewBox="0 0 685.107 282.79"><defs><style>*{stroke-linejoin:round;stroke-linecap:butt}</style></defs><g id="figure_1"><path id="patch_1" d="M0 282.79h685.107V0H0v282.79z" style="fill:none"/><g id="axes_1"><path id="patch_2" d="M71.308 266.112h613.8V0h-613.8v266.112z" style="fill:none"/><g id="matplotlib.axis_1"><g id="xtick_1"><g id="line2d_1"><defs><path id="m9807aba136" d="M0 0v3.5" style="stroke:gray;stroke-width:.8"/></defs><use xlink:href="#m9807aba136" x="99.207" y="266.112" style="fill:gray;stroke:gray;stroke-width:.8"/></g><g id="text_1" style="fill:gray" transform="matrix(.1 0 0 -.1 96.026 280.71)"><defs><path id="DejaVuSans-30" d="M2034 4250q-487 0-733-480-245-479-245-1442 0-959 245-1439 246-480 733-480 491 0 736 480 246 480 246 1439 0 963-246 1442-245 480-736 480zm0 500q785 0 1199-621 414-620 414-1801 0-1178-414-1799Q2819-91 2034-91q-784 0-1198 620-414 621-414 1799 0 1181 414 1801 414 621 1198 621z" transform="scale(.01563)"/></defs><use xlink:href="#DejaVuSans-30"/></g></g><g id="xtick_2"><use xlink:href="#m9807aba136" id="line2d_2" x="168.958" y="266.112" style="fill:gray;stroke:gray;stroke-width:.8"/><g id="text_2" style="fill:gray" transform="matrix(.1 0 0 -.1 159.414 280.71)"><defs><path id="DejaVuSans-35" d="M691 4666h2478v-532H1269V2991q137 47 274 70 138 23 276 23 781 0 1237-428 457-428 457-1159 0-753-469-1171Q2575-91 1722-91q-294 0-599 50Q819 9 494 109v635q281-153 581-228t634-75q541 0 856 284 316 284 316 772 0 487-316 771-315 285-856 285-253 0-505-56-251-56-513-175v2344z" transform="scale(.01563)"/></defs><use xlink:href="#DejaVuSans-35"/><use xlink:href="#DejaVuSans-30" x="63.623"/><use xlink:href="#DejaVuSans-30" x="127.246"/></g></g><g id="xtick_3"><use xlink:href="#m9807aba136" id="line2d_3" x="238.708" y="266.112" style="fill:gray;stroke:gray;stroke-width:.8"/><g id="text_3" style="fill:gray" transform="matrix(.1 0 0 -.1 225.982 280.71)"><defs><path id="DejaVuSans-31" d="M794 531h1031v3560L703 3866v575l1116 225h631V531h1031V0H794v531z" transform="scale(.01563)"/></defs><use xlink:href="#DejaVuSans-31"/><use xlink:href="#DejaVuSans-30" x="63.623"/><use xlink:href="#DejaVuSans-30" x="127.246"/><use xlink:href="#DejaVuSans-30" x="190.869"/></g></g><g id="xtick_4"><use xlink:href="#m9807aba136" id="line2d_4" x="308.457" y="266.112" style="fill:gray;stroke:gray;stroke-width:.8"/><g id="text_4" style="fill:gray" transform="matrix(.1 0 0 -.1 295.733 280.71)"><use xlink:href="#DejaVuSans-31"/><use xlink:href="#DejaVuSans-35" x="63.623"/><use xlink:href="#DejaVuSans-30" x="127.246"/><use xlink:href="#DejaVuSans-30" x="190.869"/></g></g><g id="xtick_5"><use xlink:href="#m9807aba136" id="line2d_5" x="378.207" y="266.112" style="fill:gray;stroke:gray;stroke-width:.8"/><g id="text_5" style="fill:gray" transform="matrix(.1 0 0 -.1 365.483 280.71)"><defs><path id="DejaVuSans-32" d="M1228 531h2203V0H469v531q359 372 979 998 621 627 780 809 303 340 423 576 121 236 121 464 0 372-261 606-261 235-680 235-297 0-627-103-329-103-704-313v638q381 153 712 231 332 78 607 78 725 0 1156-363 431-362 431-968 0-288-108-546-107-257-392-607-78-91-497-524-418-433-1181-1211z" transform="scale(.01563)"/></defs><use xlink:href="#DejaVuSans-32"/><use xlink:href="#DejaVuSans-30" x="63.623"/><use xlink:href="#DejaVuSans-30" x="127.246"/><use xlink:href="#DejaVuSans-30" x="190.869"/></g></g><g id="xtick_6"><use xlink:href="#m9807aba136" id="line2d_6" x="447.957" y="266.112" style="fill:gray;stroke:gray;stroke-width:.8"/><g id="text_6" style="fill:gray" transform="matrix(.1 0 0 -.1 435.233 280.71)"><use xlink:href="#DejaVuSans-32"/><use xlink:href="#DejaVuSans-35" x="63.623"/><use xlink:href="#DejaVuSans-30" x="127.246"/><use xlink:href="#DejaVuSans-30" x="190.869"/></g></g><g id="xtick_7"><use xlink:href="#m9807aba136" id="line2d_7" x="517.707" y="266.112" style="fill:gray;stroke:gray;stroke-width:.8"/><g id="text_7" style="fill:gray" transform="matrix(.1 0 0 -.1 504.983 280.71)"><defs><path id="DejaVuSans-33" d="M2597 2516q453-97 707-404 255-306 255-756 0-690-475-1069Q2609-91 1734-91q-293 0-604 58T488 141v609q262-153 574-231 313-78 654-78 593 0 904 234t311 681q0 413-289 645-289 233-804 233h-544v519h569q465 0 712 186t247 536q0 359-255 551-254 193-729 193-260 0-557-57-297-56-653-174v562q360 100 674 150t592 50q719 0 1137-327 419-326 419-882 0-388-222-655t-631-370z" transform="scale(.01563)"/></defs><use xlink:href="#DejaVuSans-33"/><use xlink:href="#DejaVuSans-30" x="63.623"/><use xlink:href="#DejaVuSans-30" x="127.246"/><use xlink:href="#DejaVuSans-30" x="190.869"/></g></g><g id="xtick_8"><use xlink:href="#m9807aba136" id="line2d_8" x="587.457" y="266.112" style="fill:gray;stroke:gray;stroke-width:.8"/><g id="text_8" style="fill:gray" transform="matrix(.1 0 0 -.1 574.732 280.71)"><use xlink:href="#DejaVuSans-33"/><use xlink:href="#DejaVuSans-35" x="63.623"/><use xlink:href="#DejaVuSans-30" x="127.246"/><use xlink:href="#DejaVuSans-30" x="190.869"/></g></g><g id="xtick_9"><use xlink:href="#m9807aba136" id="line2d_9" x="657.207" y="266.112" style="fill:gray;stroke:gray;stroke-width:.8"/><g id="text_9" style="fill:gray" transform="matrix(.1 0 0 -.1 644.482 280.71)"><defs><path id="DejaVuSans-34" d="M2419 4116 825 1625h1594v2491zm-166 550h794V1625h666v-525h-666V0h-628v1100H313v609l1940 2957z" transform="scale(.01563)"/></defs><use xlink:href="#DejaVuSans-34"/><use xlink:href="#DejaVuSans-30" x="63.623"/><use xlink:href="#DejaVuSans-30" x="127.246"/><use xlink:href="#DejaVuSans-30" x="190.869"/></g></g></g><g id="matplotlib.axis_2"><g id="ytick_1"><g id="line2d_10"><defs><path id="m54f28d457e" d="M0 0h-3.5" style="stroke:gray;stroke-width:.8"/></defs><use xlink:href="#m54f28d457e" x="71.308" y="263.044" style="fill:gray;stroke:gray;stroke-width:.8"/></g><g id="text_10" style="fill:gray" transform="matrix(.16 0 0 -.16 0 269.122)"><defs><path id="DejaVuSans-2212" d="M678 2272h4006v-531H678v531z" transform="scale(.01563)"/></defs><use xlink:href="#DejaVuSans-2212"/><use xlink:href="#DejaVuSans-33" x="83.789"/><use xlink:href="#DejaVuSans-30" x="147.412"/><use xlink:href="#DejaVuSans-30" x="211.035"/><use xlink:href="#DejaVuSans-30" x="274.658"/><use xlink:href="#DejaVuSans-30" x="338.281"/></g></g><g id="ytick_2"><use xlink:href="#m54f28d457e" id="line2d_11" x="71.308" y="223.791" style="fill:gray;stroke:gray;stroke-width:.8"/><g id="text_11" style="fill:gray" transform="matrix(.16 0 0 -.16 0 229.87)"><use xlink:href="#DejaVuSans-2212"/><use xlink:href="#DejaVuSans-32" x="83.789"/><use xlink:href="#DejaVuSans-30" x="147.412"/><use xlink:href="#DejaVuSans-30" x="211.035"/><use xlink:href="#DejaVuSans-30" x="274.658"/><use xlink:href="#DejaVuSans-30" x="338.281"/></g></g><g id="ytick_3"><use xlink:href="#m54f28d457e" id="line2d_12" x="71.308" y="184.538" style="fill:gray;stroke:gray;stroke-width:.8"/><g id="text_12" style="fill:gray" transform="matrix(.16 0 0 -.16 0 190.617)"><use xlink:href="#DejaVuSans-2212"/><use xlink:href="#DejaVuSans-31" x="83.789"/><use xlink:href="#DejaVuSans-30" x="147.412"/><use xlink:href="#DejaVuSans-30" x="211.035"/><use xlink:href="#DejaVuSans-30" x="274.658"/><use xlink:href="#DejaVuSans-30" x="338.281"/></g></g><g id="ytick_4"><use xlink:href="#m54f28d457e" id="line2d_13" x="71.308" y="145.285" style="fill:gray;stroke:gray;stroke-width:.8"/><use xlink:href="#DejaVuSans-30" id="text_13" style="fill:gray" transform="matrix(.16 0 0 -.16 54.127 151.364)"/></g><g id="ytick_5"><use xlink:href="#m54f28d457e" id="line2d_14" x="71.308" y="106.032" style="fill:gray;stroke:gray;stroke-width:.8"/><g id="text_14" style="fill:gray" transform="matrix(.16 0 0 -.16 13.408 112.111)"><use xlink:href="#DejaVuSans-31"/><use xlink:href="#DejaVuSans-30" x="63.623"/><use xlink:href="#DejaVuSans-30" x="127.246"/><use xlink:href="#DejaVuSans-30" x="190.869"/><use xlink:href="#DejaVuSans-30" x="254.492"/></g></g><g id="ytick_6"><use xlink:href="#m54f28d457e" id="line2d_15" x="71.308" y="66.78" style="fill:gray;stroke:gray;stroke-width:.8"/><g id="text_15" style="fill:gray" transform="matrix(.16 0 0 -.16 13.408 72.858)"><use xlink:href="#DejaVuSans-32"/><use xlink:href="#DejaVuSans-30" x="63.623"/><use xlink:href="#DejaVuSans-30" x="127.246"/><use xlink:href="#DejaVuSans-30" x="190.869"/><use xlink:href="#DejaVuSans-30" x="254.492"/></g></g><g id="ytick_7"><use xlink:href="#m54f28d457e" id="line2d_16" x="71.308" y="27.527" style="fill:gray;stroke:gray;stroke-width:.8"/><g id="text_16" style="fill:gray" transform="matrix(.16 0 0 -.16 13.408 33.606)"><use xlink:href="#DejaVuSans-33"/><use xlink:href="#DejaVuSans-30" x="63.623"/><use xlink:href="#DejaVuSans-30" x="127.246"/><use xlink:href="#DejaVuSans-30" x="190.869"/><use xlink:href="#DejaVuSans-30" x="254.492"/></g></g></g><path id="line2d_17" d="m99.207 145.12.282.325.282-.315.282.306.282-.297.282.289.282-.282.282.275.282-.27.282.265.282-.26.282.256.282-.252.282.25.282-.248.282.245.282-.243.282.242.282-.241.282.24.282-.24.282.24.282-.24.282.242.282-.244.282.246.281-.25.282.253.282-.256.282.26.282-.265.282.272.282-.28.282.288.282-.297.282.308.282-.321.282.337.282-.355.282.376.282-.402.282.434.282-.474.282.525.282-.592.282.684.282-.817.282 1.026.282-1.404.282 2.298.282-7.52.281-10.713.282 4.47.282 1.71.564 10.642.282 4.177.564 1.205.282-.342.282-.055.282-.792.282.108.282.392.282 1.235.282.587.282-.183.564-3.21.282-.79.846 2.062.282.061.282 1.744.564 5.772.281.526.282.15.564 1.876.282-1.273.282-2.244.282-.957.564 2.711.282-.427.282-3.963 1.41-33.523.282-.253 1.128 9.234.282.927.282.268.282 2.728.563 10.841.282 1.189.282-.382.564 1.238.564-2.757.282.67.564 4.318.282.687.282.056.564.927.282-.294.564-2.797.282.023.846 2.62.564 3.233.564 1.124.563.7.282.852.282 1.43.282.677.282-.11.282.257.282-.444.282-4.508.846-26.877.282-5.056.282-2.01.282 1.262.846 9.317.282 1.504.564 1.522.282 2.211.564 7.574.282 1.968.282.282.563-.5.846-2.994 1.692 5.202.282.846.564 4.076.282.635.282-.434.282-.035.282.903.846 3.756.564 1.455.282.535.282.288.281.448.564 2.104.282-.31.282-2.788.282-6.09.846-28.343.282-4.778.282-1.57.282.97.846 7.73.564 2.714.282 1.84.282 2.837.564 8.875.282 1.92.564-.25.282-.295.563-1.884.282.198.282-.28.282-.744.282 1.443.564 7.17.282.4.282.008.282 2.106.282 3.09.282 1.13.564-3.823.282-.101.564 3.552 1.692 4.54.564-.665.281.957.282.454.282-4.478.846-30.024.282-4.866.282-2.093.282-.455.282.33.282 1.269.564 3.948.282.038.282 1.084.282 5.019.564 12.821.282 2.903.282 1.413.282.202.564-1.324.282.39.282-.022.281-.878.282-.052.564 3.454.564 1.053.564 2.286.564-.346.564.698.282.877.564 4.49.282.722.282-.053.282.151.282-.551.282-1.466.282-.666.846 1.79.282-.799.282-4.908 1.127-37.216.282-2.908.282.615.564 5.024.846 10.022.282 1.728.282 2.856.846 11.882.282 2.95.282 1.705.282-.568.282-1.542.282-.214 1.128 4.965.281 1.152.282.409.282-.082.282.706.282 1.263.282.032.282-1.179.282.12.282 2.067.282 1.203.282-1.517.282-2.17.282-.395.282.84.282.45.282.123.282.615.564 1.78.564 1.179.282-.348.282-3.054.282-7.025.845-29.018.282-3.648.282-.6.282 1.034.282 3.166.564 11.963.282 2.809.282.112.282 1.48.564 8.843.282 2.38.282.802.282.231.282-.226.282-.37.564-.05.282-1.042.282-1.626.282-.73.564 1.578.282.083.281.22.282 1.77.564 4.548.846 2.92.564-.082.282 1.535.282 2.606.282 1.54.282.128.282.417.564 2.13.282-.114.282.579.282 1.513.282-1.123.282-7.321.846-34.23.282-6.134.281-2.365.282 2.162.564 9.963.282 1.354.564-2.039.282 1.516.564 9.21.282 4.608.282 2.703.282.774.282-.319 1.128-2.953.282.22.282 2.034.564 8.184.282 1.893.282.436.282 1.07.281 1.656.282.745.282-.096.282.27.564 2.111.282 1.168.282.468.282-.99.282-1.629.282-.373.564 2.68.282.33.282-.407.282.066.282.806.282-.833.282-5.962.846-32.994.564-10.307.282-.837.282 2.756.563 7.972.564 4.674.282 1.59.282 3.328.564 13.253.282 3.433.282.484.282.84.282 1.786.282.637.564-1.924.564-.36.282.187.846 2.793.282.371.564 1.55.563.061.564 1.11.282.439.282 1.967.282 3.164.282 1.246.564-3.521.282 1.246.282 2.74.282 1.404.282.086.282.236.282-.92.282-5.517 1.128-45.388.282-4.402.282 2.447.564 11.696.564 3.587.563 5.34.282 1.579.282 3.698.564 9.183.282 1.293.564 1.254.282-1.155.282-2.156.282-.67.564 2.874.282.526.282 1.063.564 6.06.282 1.047.282-.48.282.697.282 2.413.282 1.432.282-1.355.282-2.387.281-.625.846 3.35.846 2.865.282.408.564 1.538.282-.203.282-1.054.282-3.364.282-8.366.846-34.229.282-6.67.282-3.355.282 2.227.564 12.95.564 5.752.563 7.413.846 15.038.282 2.36.282.09.282-1.443.564-3.716.282.011.282 1 .282.464.282.2.564 3.619.282-.039.282-2.162.282-1.22.564 1.236.282-.39.282.584.564 4.122.845 3.584.282.104.282-.476.282.941.564 5.233.282.783.282-.091.282-.27.282-2.472.282-7.442 1.128-43.546.282-3.04.282.61.282 3.064.846 11.854.282 1.886.282 3.647.845 16.999.564 3.566.564 1.897.282.65.282-.504.564-3.695.282-.355.564 1.638.846 2.501.564.366.846 1.838.282.175.282 1.963.564 7.185.563 1.981.564 4.589.282.024.282-.146.282 1.122.282.09.282-3.724.282-8.255.564-30.435.564-29.273.282-3.511.282 2.135.564 9.765 1.692 35.89.282 7.765.282 3.008.563-5.792.282-.266.282.612.564-2.35.282.489 1.692 9.265.282.416.282.091.282.402.846 2.08.846 4.37.282.628.846 3.713.563.769.282.727.282-.606.282-4.55.282-10.036 1.128-52.083.282-5.646.282-1.07.282 2.727 1.41 25.281.846 28.066.282 2.913.564.15.564 1.584.563-.487.564.937.282-.66.282-1.434.282-.51.282 1.065.282 1.532.282.773.282.008.564-.757.282.384.282 1.847.564 4.406.282.53.282.091.282.535.846 3.927.282-.262.282-.428.281.379.282-1.258.282-7.757.846-44.734.564-15.964.282-4.794.282-.228.564 7.625.282 5.144.564 17.715.564 20.34.282 6.084.282 2.677.282.602.282-.521.846-3.658.282-.603.281-.041.282 1.573.564 5.296.282.949.846 1.642.564-.494.282.435.282 2.258.564 7.177.282.838.282-.103.564 2.38.282-.453.282-1.686.282-.698.564 2.1.282-.629.282-4.858.563-24.98.846-41.167.282-5.912.282.166.564 9.489.564 12.381.564 17.964.564 18.331.282 4.233.282 1.496.282.05.282-1.434.564-4.286.564-1.623.282-.03.845 5.009.282.11.282 1.876.282 2.963.282 1.143.282-.63.282.147 1.128 6.455.282.435.282.711.564 3.46.564 1.016.564 5.693.282.598.282-3.928.282-9.183.564-32.384.563-33.986.282-10.042.282-4.714.282-1.526.282.68.282 3.553.564 13.628.564 23.847.564 24.343.564 8.426.282 2.254.282-.597.564-4.568.282-.515.282-.012.282.656.846 4.9.564 1.76.281.733.282 1.89.564 5.285.564 1.724.564 3.33.282 1.02.846 6.942.282.153.282 1.485.282 2.16.282-.892.282-6.337.564-27.901.846-51.09.564-21.109.563-10.781.282-1.654.282.937.282 4.154.282 9.149.564 36.524.564 34.517.282 7.179.564 5.76.282 1.145.282-1.454.282-2.569.282-.905.846 2.168.846 6.455.282.543.564.298.282.585 1.127 4.71.282.928.846 4.584.282.258.282.462.282.806.282-1.139.282-6.085.564-26.591 1.128-65.811.846-23.829.282-6.159.282-.38.282 6.202.281 11.79.282 18.426.846 72.138.282 8.746.282 3.016.282 1.093.282-1.02.564-4.41.564-.85.282-.123.282.897 1.128 5.313.282-.019.282-.533.282.986.564 6.04.282.705.281-1.145.282-.437.282 1.601.282 2.301.282 1.238.282.707.282 1.933.282 3.063.282.71.282-6.057.564-32.617 1.128-75.93.564-19.584.282-6.837.282-3.18.282 1.914.282 6.864.282 13.121 1.127 86.079.282 9.558.282 4.54.282 1.375.282-.453.846-5.448.282-.347.282.1.282.267.282 1.375.564 4.304.564 1.602.282.375.282.128.282.728.564 2.864.282.34.282.863.282 2.827.563 7.222.282.82.282-.258.564 1.687.282-4.542.282-13.208 1.41-91.99.282-10.322.564-9.208.282-2.867.282 1.091.282 7.437.564 31.059.846 58.679.282 7.76.282 2.614.845 2.87.282 1.068.282-.268.282-.888.282.483.282 1.503.282.049.282-1.563.282-.935.282.654.564 1.705.282.602.282 1.057.846 4.304.282.701.282 1.061.846 4.952.282.87.563 2.727.282-.595.282-5.642.282-12.809 1.692-106.371.282-8.546.282-4.071.282-.862.282 3.04.282 8.358.564 33.639.846 60.298.282 9.537.282 4.937.282 2.133.282.265.282-.919.563-2.587.282-.571.282.41.564 3.33.282 1.645.846 2.851.282 1.246.564.877.564 2.752.564 3.227.564 4.382.564 2.789.282 1.797.282.947.282.178.282-1.887.281-8.59.564-39.507 1.128-75.075.564-25.4.282-5.362.282-1.278.282 1.822.282 6.662.282 13.563.564 41.982.846 67.34.282 6.775.564 2.977.282.19.846-4.51.281-.484.282.186 1.128 4.206.564 6.04.282 1.315.282.211.282 1.6.282 3.138.282 1.654.564-1.566.846 5.815.282 1.359.282 3.35.282 1.855.282-5.239.282-13.663.564-41.291.845-63.402.846-38.008.282-3.541.282 2.3.282 3.826.282 5.724.282 12.136.564 43.409.564 44.345.282 15.14.282 8.232.282 2.985.564 1.981.282.149.846-4.346.564-.605.281-.015.282.626.564 2.337.282 2.239.846 9.086.564 3.753 1.128 6.536.282 2.015.564 6.293.282.677.282-5.84.282-14.389 1.973-143.24.282-8.234.282-2.088.282 1.933.282 4.695.282 8.928.564 34.593 1.128 79.418.282 10.98.282 5.536.282.578.282-1.716.282-.456.282 1.09.282-.003.282-1.769.282-.942.564 2.347 1.127 1.187.282.804.564 3.947.564 2.578.564 3.013.282 1.425 1.128 13.608.282-1.305.282-8.255.564-38.89 1.128-83.743.564-28.131.282-5.73.281 1.105.282 4.203.282 6.407.282 12.303 1.41 94.868.282 9.598.282 5.383.282 2.88.282 1.22.282.243.282.043.282-.447.282-.996.282-.422.564 1.764.564 2.165.564 2.026.282 1.166.845 5.746.846 5.578.846 5.44.564 5.085.282-.46.282-8.566.564-39.76 1.41-108.957.282-11.209.282-4.63.282.327.282 3.166.282 6.224.281 11.769 1.974 118.732.282 7.214.282 3.762.282 1.029.564-.382.282-.672.282-1.151.282-.654.282.4.564 1.648.282 1.892 1.41 16.817.563 5.019.564 3.146 1.128 11.748.282-1.317.282-11.592.846-74.214 1.128-99.65.282-5.923.282-.954.564-.03.282 2.011.282 7.899 1.691 93.666.564 32.81.564 18.535.564 8.78.282 1.646.282.266.282.733.564 3.94.282-.124.282-.99.282.749.564 4.855.282.842.282 1.93.846 13.321.564 5.273.563 5.647.282.414.282-6.567.282-17.946 1.692-153.515.564-11.504.282-3.87.282-.796.564 2.564.282 4.133 1.41 47.658.564 28.64.845 48.884.564 22.598.282 7.018.282 3.733.564 3.354.282.555.564-1 .282 1.903.564 6.774.282 2.426.282 4.347.564 13.036.564 6.807.564 4.71.282.527.282-5.446.281-16.587.846-88.772.564-58.884.282-17.932 1.41-38.535.282-1.618.282 5.542 1.128 40.345.846 46.306.846 57.068.564 19.598.563 9.638.564 4.754.282.911.282.317.282 1.43.564 4.266.282.475.282 2.08.846 14.56.564 6.264.564 6.139.282 2.057.282.333.282-6.516.282-17.593 1.691-156.674.846-24.246.282-7.595.282-2.625.282 4.542.846 28.628.846 43.552 1.692 89.502.282 6.593.282 2.21.564 2.708.281.089.564-3.865.282-.246.282 1.898.846 12.569 1.974 28.098.282 1.654.282-4.785.282-15.277.564-54.538.846-92.203.564-30.593.563-20.147.282-5.816.282-.162.282 4.393.282 8.065 1.41 62.032 1.974 90.864.564 13.344.282 4.59.282 2.346.564 1.34.282 1.827 1.127 12.905.846 11.746.564 7.243.846 7.283.282-4.47.282-13.154.282-24.38 1.128-131.794.564-33.903.282-7.804.282-2.976.282-1.478.282.207.282 3.701.563 16.11 1.692 68.551 1.692 71.31.846 16.023.282 3.073.282.335.282-.548.282 1.095 1.128 11.272 1.973 25.702.282.445.282-6.73.282-16.946.564-64.01.564-72.164.282-23.827.282-13.872.282-6.58.564-6.37.282-2.242.282 2.008.564 16.676.846 28.148.845 34.366.846 28.537 1.692 57.622.564 10.434.282 3.24.282 1.322.282-.31.282-.808.282.518 1.41 14.202.845 10.762.282 4.822.282-2.396.282-14.959.564-54.14.846-101.82.282-17.288.282-6.035.282-2.238.564-6.371.282-.228.282 3.634.282 6.315.564 21.145.564 23.98 1.41 41.777 1.691 60.358.282 5.564 1.692 19.083.564 2.717.564 4.286.564 2.717.846 6.525.282-1.299.282-8.781.281-18.553.564-64.218.564-65.743.282-14.747.564-9.892.282-2.368.564-.18.282.249.282 4.802 1.128 37.358 1.41 39.453.564 10.15.564 17.918.563 18.199.564 11.116.564 14.496.282 3.014.282 1.78.282 3.441.846 13.176.282 3.074.846 12.788.282-.137.564 1.497.282-6.638.282-17.595.564-65.549.564-68.39.281-12.261.564-9.519.282-6.178.282-2.52.282.352.282 1.376.282 4.27.564 18.112.846 27.565.846 18.685.282 3.6.564 4.578.846 13.675 1.973 39.753.564 13.926 1.128 34.79.564 15.458.564 8.502.282 1.371.282-5.451.282-16.263.564-64.99.564-74.078.282-16.159.564-7.771.282-3.876.282-2.052.281-.447.282-.226.282 2.016.564 14.17 1.41 36.882.282 4.84.564 5.297.564 8.29.564 3.97.846 10.91.282 2.051.564 8.409.564 10.117.845 24.388.282 6.223 1.41 45.027.282 4.731.282-.716.282-9.88.282-23.639.846-108.917.282-12.253.282-4.337.846-18.236.564-1.764.282 1.088.282 4.72 1.41 32.207.563 6.93.564 7.292.282 3.073.846 13.19.564 4.801 1.128 12.911.564 9.632 1.41 34.342.845 27.888.564 11.392.282 1.294.282-5.339.282-18.174.846-100.99.282-12.656.564-12.51.564-12.01.282-2.692.282-1.09.282 1.982.564 10.562 1.41 30.597.563 7.55.846 12.486.564 4.137 1.128 11.748.846 9.16.846 15.278.846 19.354 1.41 38.41.281.154.282-10.838.282-27.24.564-73.701.282-20.926.282-8.968.846-13.419.282-2.191.282-.677.282.636.282 2.516.282 4.347 1.128 31.14 1.128 13.368.564 2.664.845 8.274.282.999.282 3.124.564 11.768.846 9.21.564 9.132.846 9.972.846 14.946.846 21.231.282-8.691 1.127-93.014h0" clip-path="url(#p8a55807e37)" style="fill:none;stroke:#1f77b4;stroke-width:1.5;stroke-linecap:square"/><path id="patch_3" d="M71.308 266.112V0" style="fill:none;stroke:gray;stroke-width:.8;stroke-linejoin:miter;stroke-linecap:square"/><path id="patch_4" d="M685.107 266.112V0" style="fill:none;stroke:#000;stroke-width:.8;stroke-linejoin:miter;stroke-linecap:square"/><path id="patch_5" d="M71.308 266.112h613.8" style="fill:none;stroke:gray;stroke-width:.8;stroke-linejoin:miter;stroke-linecap:square"/><path id="patch_6" d="M71.308 0h613.8" style="fill:none;stroke:#000;stroke-width:.8;stroke-linejoin:miter;stroke-linecap:square"/></g></g><defs><clipPath id="p8a55807e37"><path d="M71.308 0h613.8v266.112h-613.8z"/></clipPath></defs></svg>