<?xml version="1.0" encoding="utf-8" standalone="no"?>
<!DOCTYPE svg PUBLIC "-//W3C//DTD SVG 1.1//EN"
  "http://www.w3.org/Graphics/SVG/1.1/DTD/svg11.dtd">
<svg xmlns:xlink="http://www.w3.org/1999/xlink" width="660.992188pt" height="282.790125pt" viewBox="0 0 660.992188 282.790125" xmlns="http://www.w3.org/2000/svg" version="1.1">
 <metadata>
  <rdf:RDF xmlns:dc="http://purl.org/dc/elements/1.1/" xmlns:cc="http://creativecommons.org/ns#" xmlns:rdf="http://www.w3.org/1999/02/22-rdf-syntax-ns#">
   <cc:Work>
    <dc:type rdf:resource="http://purl.org/dc/dcmitype/StillImage"/>
    <dc:date>2023-03-06T21:33:02.250348</dc:date>
    <dc:format>image/svg+xml</dc:format>
    <dc:creator>
     <cc:Agent>
      <dc:title>Matplotlib v3.6.3, https://matplotlib.org/</dc:title>
     </cc:Agent>
    </dc:creator>
   </cc:Work>
  </rdf:RDF>
 </metadata>
 <defs>
  <style type="text/css">*{stroke-linejoin: round; stroke-linecap: butt}</style>
 </defs>
 <g id="figure_1">
  <g id="patch_1">
   <path d="M -0 282.790125 
L 660.992188 282.790125 
L 660.992188 0 
L -0 0 
L -0 282.790125 
z
" style="fill: none"/>
  </g>
  <g id="axes_1">
   <g id="patch_2">
    <path d="M 47.192188 266.112 
L 660.992188 266.112 
L 660.992188 0 
L 47.192188 0 
L 47.192188 266.112 
z
" style="fill: none"/>
   </g>
   <g id="matplotlib.axis_1">
    <g id="xtick_1">
     <g id="line2d_1">
      <defs>
       <path id="m4f47da3ccd" d="M 0 0 
L 0 3.5 
" style="stroke: #808080; stroke-width: 0.8"/>
      </defs>
      <g>
       <use xlink:href="#m4f47da3ccd" x="75.092188" y="266.112" style="fill: #808080; stroke: #808080; stroke-width: 0.8"/>
      </g>
     </g>
     <g id="text_1">
      <!-- 0 -->
      <g style="fill: #808080" transform="translate(71.910938 280.710438) scale(0.1 -0.1)">
       <defs>
        <path id="DejaVuSans-30" d="M 2034 4250 
Q 1547 4250 1301 3770 
Q 1056 3291 1056 2328 
Q 1056 1369 1301 889 
Q 1547 409 2034 409 
Q 2525 409 2770 889 
Q 3016 1369 3016 2328 
Q 3016 3291 2770 3770 
Q 2525 4250 2034 4250 
z
M 2034 4750 
Q 2819 4750 3233 4129 
Q 3647 3509 3647 2328 
Q 3647 1150 3233 529 
Q 2819 -91 2034 -91 
Q 1250 -91 836 529 
Q 422 1150 422 2328 
Q 422 3509 836 4129 
Q 1250 4750 2034 4750 
z
" transform="scale(0.015625)"/>
       </defs>
       <use xlink:href="#DejaVuSans-30"/>
      </g>
     </g>
    </g>
    <g id="xtick_2">
     <g id="line2d_2">
      <g>
       <use xlink:href="#m4f47da3ccd" x="144.842188" y="266.112" style="fill: #808080; stroke: #808080; stroke-width: 0.8"/>
      </g>
     </g>
     <g id="text_2">
      <!-- 500 -->
      <g style="fill: #808080" transform="translate(135.298438 280.710438) scale(0.1 -0.1)">
       <defs>
        <path id="DejaVuSans-35" d="M 691 4666 
L 3169 4666 
L 3169 4134 
L 1269 4134 
L 1269 2991 
Q 1406 3038 1543 3061 
Q 1681 3084 1819 3084 
Q 2600 3084 3056 2656 
Q 3513 2228 3513 1497 
Q 3513 744 3044 326 
Q 2575 -91 1722 -91 
Q 1428 -91 1123 -41 
Q 819 9 494 109 
L 494 744 
Q 775 591 1075 516 
Q 1375 441 1709 441 
Q 2250 441 2565 725 
Q 2881 1009 2881 1497 
Q 2881 1984 2565 2268 
Q 2250 2553 1709 2553 
Q 1456 2553 1204 2497 
Q 953 2441 691 2322 
L 691 4666 
z
" transform="scale(0.015625)"/>
       </defs>
       <use xlink:href="#DejaVuSans-35"/>
       <use xlink:href="#DejaVuSans-30" x="63.623047"/>
       <use xlink:href="#DejaVuSans-30" x="127.246094"/>
      </g>
     </g>
    </g>
    <g id="xtick_3">
     <g id="line2d_3">
      <g>
       <use xlink:href="#m4f47da3ccd" x="214.592188" y="266.112" style="fill: #808080; stroke: #808080; stroke-width: 0.8"/>
      </g>
     </g>
     <g id="text_3">
      <!-- 1000 -->
      <g style="fill: #808080" transform="translate(201.867188 280.710438) scale(0.1 -0.1)">
       <defs>
        <path id="DejaVuSans-31" d="M 794 531 
L 1825 531 
L 1825 4091 
L 703 3866 
L 703 4441 
L 1819 4666 
L 2450 4666 
L 2450 531 
L 3481 531 
L 3481 0 
L 794 0 
L 794 531 
z
" transform="scale(0.015625)"/>
       </defs>
       <use xlink:href="#DejaVuSans-31"/>
       <use xlink:href="#DejaVuSans-30" x="63.623047"/>
       <use xlink:href="#DejaVuSans-30" x="127.246094"/>
       <use xlink:href="#DejaVuSans-30" x="190.869141"/>
      </g>
     </g>
    </g>
    <g id="xtick_4">
     <g id="line2d_4">
      <g>
       <use xlink:href="#m4f47da3ccd" x="284.342188" y="266.112" style="fill: #808080; stroke: #808080; stroke-width: 0.8"/>
      </g>
     </g>
     <g id="text_4">
      <!-- 1500 -->
      <g style="fill: #808080" transform="translate(271.617188 280.710438) scale(0.1 -0.1)">
       <use xlink:href="#DejaVuSans-31"/>
       <use xlink:href="#DejaVuSans-35" x="63.623047"/>
       <use xlink:href="#DejaVuSans-30" x="127.246094"/>
       <use xlink:href="#DejaVuSans-30" x="190.869141"/>
      </g>
     </g>
    </g>
    <g id="xtick_5">
     <g id="line2d_5">
      <g>
       <use xlink:href="#m4f47da3ccd" x="354.092188" y="266.112" style="fill: #808080; stroke: #808080; stroke-width: 0.8"/>
      </g>
     </g>
     <g id="text_5">
      <!-- 2000 -->
      <g style="fill: #808080" transform="translate(341.367188 280.710438) scale(0.1 -0.1)">
       <defs>
        <path id="DejaVuSans-32" d="M 1228 531 
L 3431 531 
L 3431 0 
L 469 0 
L 469 531 
Q 828 903 1448 1529 
Q 2069 2156 2228 2338 
Q 2531 2678 2651 2914 
Q 2772 3150 2772 3378 
Q 2772 3750 2511 3984 
Q 2250 4219 1831 4219 
Q 1534 4219 1204 4116 
Q 875 4013 500 3803 
L 500 4441 
Q 881 4594 1212 4672 
Q 1544 4750 1819 4750 
Q 2544 4750 2975 4387 
Q 3406 4025 3406 3419 
Q 3406 3131 3298 2873 
Q 3191 2616 2906 2266 
Q 2828 2175 2409 1742 
Q 1991 1309 1228 531 
z
" transform="scale(0.015625)"/>
       </defs>
       <use xlink:href="#DejaVuSans-32"/>
       <use xlink:href="#DejaVuSans-30" x="63.623047"/>
       <use xlink:href="#DejaVuSans-30" x="127.246094"/>
       <use xlink:href="#DejaVuSans-30" x="190.869141"/>
      </g>
     </g>
    </g>
    <g id="xtick_6">
     <g id="line2d_6">
      <g>
       <use xlink:href="#m4f47da3ccd" x="423.842188" y="266.112" style="fill: #808080; stroke: #808080; stroke-width: 0.8"/>
      </g>
     </g>
     <g id="text_6">
      <!-- 2500 -->
      <g style="fill: #808080" transform="translate(411.117188 280.710438) scale(0.1 -0.1)">
       <use xlink:href="#DejaVuSans-32"/>
       <use xlink:href="#DejaVuSans-35" x="63.623047"/>
       <use xlink:href="#DejaVuSans-30" x="127.246094"/>
       <use xlink:href="#DejaVuSans-30" x="190.869141"/>
      </g>
     </g>
    </g>
    <g id="xtick_7">
     <g id="line2d_7">
      <g>
       <use xlink:href="#m4f47da3ccd" x="493.592188" y="266.112" style="fill: #808080; stroke: #808080; stroke-width: 0.8"/>
      </g>
     </g>
     <g id="text_7">
      <!-- 3000 -->
      <g style="fill: #808080" transform="translate(480.867188 280.710438) scale(0.1 -0.1)">
       <defs>
        <path id="DejaVuSans-33" d="M 2597 2516 
Q 3050 2419 3304 2112 
Q 3559 1806 3559 1356 
Q 3559 666 3084 287 
Q 2609 -91 1734 -91 
Q 1441 -91 1130 -33 
Q 819 25 488 141 
L 488 750 
Q 750 597 1062 519 
Q 1375 441 1716 441 
Q 2309 441 2620 675 
Q 2931 909 2931 1356 
Q 2931 1769 2642 2001 
Q 2353 2234 1838 2234 
L 1294 2234 
L 1294 2753 
L 1863 2753 
Q 2328 2753 2575 2939 
Q 2822 3125 2822 3475 
Q 2822 3834 2567 4026 
Q 2313 4219 1838 4219 
Q 1578 4219 1281 4162 
Q 984 4106 628 3988 
L 628 4550 
Q 988 4650 1302 4700 
Q 1616 4750 1894 4750 
Q 2613 4750 3031 4423 
Q 3450 4097 3450 3541 
Q 3450 3153 3228 2886 
Q 3006 2619 2597 2516 
z
" transform="scale(0.015625)"/>
       </defs>
       <use xlink:href="#DejaVuSans-33"/>
       <use xlink:href="#DejaVuSans-30" x="63.623047"/>
       <use xlink:href="#DejaVuSans-30" x="127.246094"/>
       <use xlink:href="#DejaVuSans-30" x="190.869141"/>
      </g>
     </g>
    </g>
    <g id="xtick_8">
     <g id="line2d_8">
      <g>
       <use xlink:href="#m4f47da3ccd" x="563.342188" y="266.112" style="fill: #808080; stroke: #808080; stroke-width: 0.8"/>
      </g>
     </g>
     <g id="text_8">
      <!-- 3500 -->
      <g style="fill: #808080" transform="translate(550.617188 280.710438) scale(0.1 -0.1)">
       <use xlink:href="#DejaVuSans-33"/>
       <use xlink:href="#DejaVuSans-35" x="63.623047"/>
       <use xlink:href="#DejaVuSans-30" x="127.246094"/>
       <use xlink:href="#DejaVuSans-30" x="190.869141"/>
      </g>
     </g>
    </g>
    <g id="xtick_9">
     <g id="line2d_9">
      <g>
       <use xlink:href="#m4f47da3ccd" x="633.092188" y="266.112" style="fill: #808080; stroke: #808080; stroke-width: 0.8"/>
      </g>
     </g>
     <g id="text_9">
      <!-- 4000 -->
      <g style="fill: #808080" transform="translate(620.367188 280.710438) scale(0.1 -0.1)">
       <defs>
        <path id="DejaVuSans-34" d="M 2419 4116 
L 825 1625 
L 2419 1625 
L 2419 4116 
z
M 2253 4666 
L 3047 4666 
L 3047 1625 
L 3713 1625 
L 3713 1100 
L 3047 1100 
L 3047 0 
L 2419 0 
L 2419 1100 
L 313 1100 
L 313 1709 
L 2253 4666 
z
" transform="scale(0.015625)"/>
       </defs>
       <use xlink:href="#DejaVuSans-34"/>
       <use xlink:href="#DejaVuSans-30" x="63.623047"/>
       <use xlink:href="#DejaVuSans-30" x="127.246094"/>
       <use xlink:href="#DejaVuSans-30" x="190.869141"/>
      </g>
     </g>
    </g>
   </g>
   <g id="matplotlib.axis_2">
    <g id="ytick_1">
     <g id="line2d_10">
      <defs>
       <path id="m8fa3a6e540" d="M 0 0 
L -3.5 0 
" style="stroke: #808080; stroke-width: 0.8"/>
      </defs>
      <g>
       <use xlink:href="#m8fa3a6e540" x="47.192188" y="245.299647" style="fill: #808080; stroke: #808080; stroke-width: 0.8"/>
      </g>
     </g>
     <g id="text_10">
      <!-- −30000 -->
      <g style="fill: #808080" transform="translate(0 249.098866) scale(0.1 -0.1)">
       <defs>
        <path id="DejaVuSans-2212" d="M 678 2272 
L 4684 2272 
L 4684 1741 
L 678 1741 
L 678 2272 
z
" transform="scale(0.015625)"/>
       </defs>
       <use xlink:href="#DejaVuSans-2212"/>
       <use xlink:href="#DejaVuSans-33" x="83.789062"/>
       <use xlink:href="#DejaVuSans-30" x="147.412109"/>
       <use xlink:href="#DejaVuSans-30" x="211.035156"/>
       <use xlink:href="#DejaVuSans-30" x="274.658203"/>
       <use xlink:href="#DejaVuSans-30" x="338.28125"/>
      </g>
     </g>
    </g>
    <g id="ytick_2">
     <g id="line2d_11">
      <g>
       <use xlink:href="#m8fa3a6e540" x="47.192188" y="211.493375" style="fill: #808080; stroke: #808080; stroke-width: 0.8"/>
      </g>
     </g>
     <g id="text_11">
      <!-- −20000 -->
      <g style="fill: #808080" transform="translate(0 215.292594) scale(0.1 -0.1)">
       <use xlink:href="#DejaVuSans-2212"/>
       <use xlink:href="#DejaVuSans-32" x="83.789062"/>
       <use xlink:href="#DejaVuSans-30" x="147.412109"/>
       <use xlink:href="#DejaVuSans-30" x="211.035156"/>
       <use xlink:href="#DejaVuSans-30" x="274.658203"/>
       <use xlink:href="#DejaVuSans-30" x="338.28125"/>
      </g>
     </g>
    </g>
    <g id="ytick_3">
     <g id="line2d_12">
      <g>
       <use xlink:href="#m8fa3a6e540" x="47.192188" y="177.687103" style="fill: #808080; stroke: #808080; stroke-width: 0.8"/>
      </g>
     </g>
     <g id="text_12">
      <!-- −10000 -->
      <g style="fill: #808080" transform="translate(0 181.486322) scale(0.1 -0.1)">
       <use xlink:href="#DejaVuSans-2212"/>
       <use xlink:href="#DejaVuSans-31" x="83.789062"/>
       <use xlink:href="#DejaVuSans-30" x="147.412109"/>
       <use xlink:href="#DejaVuSans-30" x="211.035156"/>
       <use xlink:href="#DejaVuSans-30" x="274.658203"/>
       <use xlink:href="#DejaVuSans-30" x="338.28125"/>
      </g>
     </g>
    </g>
    <g id="ytick_4">
     <g id="line2d_13">
      <g>
       <use xlink:href="#m8fa3a6e540" x="47.192188" y="143.880831" style="fill: #808080; stroke: #808080; stroke-width: 0.8"/>
      </g>
     </g>
     <g id="text_13">
      <!-- 0 -->
      <g style="fill: #808080" transform="translate(33.829688 147.680049) scale(0.1 -0.1)">
       <use xlink:href="#DejaVuSans-30"/>
      </g>
     </g>
    </g>
    <g id="ytick_5">
     <g id="line2d_14">
      <g>
       <use xlink:href="#m8fa3a6e540" x="47.192188" y="110.074559" style="fill: #808080; stroke: #808080; stroke-width: 0.8"/>
      </g>
     </g>
     <g id="text_14">
      <!-- 10000 -->
      <g style="fill: #808080" transform="translate(8.379688 113.873777) scale(0.1 -0.1)">
       <use xlink:href="#DejaVuSans-31"/>
       <use xlink:href="#DejaVuSans-30" x="63.623047"/>
       <use xlink:href="#DejaVuSans-30" x="127.246094"/>
       <use xlink:href="#DejaVuSans-30" x="190.869141"/>
       <use xlink:href="#DejaVuSans-30" x="254.492188"/>
      </g>
     </g>
    </g>
    <g id="ytick_6">
     <g id="line2d_15">
      <g>
       <use xlink:href="#m8fa3a6e540" x="47.192188" y="76.268286" style="fill: #808080; stroke: #808080; stroke-width: 0.8"/>
      </g>
     </g>
     <g id="text_15">
      <!-- 20000 -->
      <g style="fill: #808080" transform="translate(8.379688 80.067505) scale(0.1 -0.1)">
       <use xlink:href="#DejaVuSans-32"/>
       <use xlink:href="#DejaVuSans-30" x="63.623047"/>
       <use xlink:href="#DejaVuSans-30" x="127.246094"/>
       <use xlink:href="#DejaVuSans-30" x="190.869141"/>
       <use xlink:href="#DejaVuSans-30" x="254.492188"/>
      </g>
     </g>
    </g>
    <g id="ytick_7">
     <g id="line2d_16">
      <g>
       <use xlink:href="#m8fa3a6e540" x="47.192188" y="42.462014" style="fill: #808080; stroke: #808080; stroke-width: 0.8"/>
      </g>
     </g>
     <g id="text_16">
      <!-- 30000 -->
      <g style="fill: #808080" transform="translate(8.379688 46.261233) scale(0.1 -0.1)">
       <use xlink:href="#DejaVuSans-33"/>
       <use xlink:href="#DejaVuSans-30" x="63.623047"/>
       <use xlink:href="#DejaVuSans-30" x="127.246094"/>
       <use xlink:href="#DejaVuSans-30" x="190.869141"/>
       <use xlink:href="#DejaVuSans-30" x="254.492188"/>
      </g>
     </g>
    </g>
    <g id="ytick_8">
     <g id="line2d_17">
      <g>
       <use xlink:href="#m8fa3a6e540" x="47.192188" y="8.655742" style="fill: #808080; stroke: #808080; stroke-width: 0.8"/>
      </g>
     </g>
     <g id="text_17">
      <!-- 40000 -->
      <g style="fill: #808080" transform="translate(8.379688 12.454961) scale(0.1 -0.1)">
       <use xlink:href="#DejaVuSans-34"/>
       <use xlink:href="#DejaVuSans-30" x="63.623047"/>
       <use xlink:href="#DejaVuSans-30" x="127.246094"/>
       <use xlink:href="#DejaVuSans-30" x="190.869141"/>
       <use xlink:href="#DejaVuSans-30" x="254.492188"/>
      </g>
     </g>
    </g>
   </g>
   <g id="line2d_18">
    <path d="M 75.092188 144.019151 
L 75.374148 143.749024 
L 75.656109 144.006725 
L 75.938069 143.760327 
L 76.22003 143.996401 
L 76.50199 143.76979 
L 76.783951 143.9877 
L 77.065912 143.777815 
L 77.347872 143.980278 
L 77.629833 143.784695 
L 77.911793 143.973886 
L 78.193754 143.790646 
L 78.475715 143.968337 
L 78.757675 143.795829 
L 79.039636 143.963489 
L 79.321596 143.800368 
L 79.603557 143.959234 
L 79.885517 143.804359 
L 80.167478 143.955489 
L 80.449439 143.807874 
L 80.731399 143.952189 
L 81.01336 143.81097 
L 81.29532 143.949287 
L 81.577281 143.813688 
L 81.859242 143.946747 
L 82.141202 143.816056 
L 82.423163 143.944546 
L 82.705123 143.818091 
L 82.987084 143.942676 
L 83.269044 143.819796 
L 83.551005 143.94114 
L 83.832966 143.821156 
L 84.114926 143.939965 
L 84.396887 143.822134 
L 84.678847 143.939203 
L 84.960808 143.822655 
L 85.242769 143.938957 
L 85.524729 143.822581 
L 85.80669 143.939415 
L 86.08865 143.821647 
L 86.370611 143.940953 
L 86.652572 143.819313 
L 86.934532 143.944381 
L 87.216493 143.814309 
L 87.498453 143.951799 
L 87.780414 143.802894 
L 88.062374 143.970594 
L 88.344335 143.767996 
L 88.626296 144.052862 
L 89.190217 142.92351 
L 89.754138 149.921014 
L 90.036099 150.374528 
L 90.318059 147.367544 
L 90.88198 139.322486 
L 91.163941 136.563538 
L 91.445901 135.265552 
L 91.727862 135.12945 
L 92.009823 135.728987 
L 92.573744 138.110335 
L 93.701586 142.583407 
L 93.983547 142.959908 
L 94.829429 142.846647 
L 95.111389 143.059691 
L 95.39335 143.113166 
L 95.957271 140.423774 
L 96.239231 142.306011 
L 96.803153 150.225709 
L 97.085113 150.340075 
L 97.367074 151.116556 
L 97.649034 153.526101 
L 97.930995 153.889653 
L 98.494916 150.585039 
L 98.776877 150.653648 
L 99.058837 150.209806 
L 99.340798 149.99954 
L 99.904719 152.098816 
L 100.46864 151.13063 
L 100.750601 151.336603 
L 101.314522 153.255514 
L 101.596483 154.664567 
L 101.878443 155.474629 
L 102.160404 155.849957 
L 102.442364 156.511968 
L 103.288246 159.830769 
L 103.852167 165.623 
L 104.134128 167.050706 
L 104.416088 167.721303 
L 104.98001 169.525858 
L 105.26197 168.86925 
L 105.543931 167.782063 
L 105.825891 167.497434 
L 106.107852 165.604046 
L 106.389813 156.398705 
L 107.517655 85.535256 
L 107.799615 79.783037 
L 108.081576 81.338369 
L 108.363537 90.489739 
L 108.927458 116.294615 
L 109.209418 124.156031 
L 109.491379 127.686535 
L 109.77334 128.285834 
L 110.0553 127.045157 
L 110.337261 125.087497 
L 110.619221 124.767838 
L 110.901182 127.494336 
L 111.747064 141.496096 
L 112.029024 141.686841 
L 112.592945 138.109549 
L 112.874906 137.138528 
L 113.438827 133.128996 
L 113.720788 133.066919 
L 114.002748 134.679545 
L 114.284709 135.133745 
L 114.56667 134.641017 
L 114.84863 135.650681 
L 115.412551 141.037006 
L 115.976472 143.815675 
L 116.258433 144.278894 
L 116.540394 144.157305 
L 116.822354 144.867618 
L 117.104315 146.323728 
L 117.386275 146.723501 
L 117.668236 145.620633 
L 117.950197 145.289863 
L 118.514118 148.175497 
L 118.796078 148.389829 
L 119.078039 148.277787 
L 119.36 148.608826 
L 119.923921 149.854557 
L 120.487842 151.954528 
L 120.769802 151.959671 
L 121.051763 151.516043 
L 121.897645 151.236597 
L 122.179605 151.412907 
L 122.743527 152.683677 
L 123.025487 152.853694 
L 123.307448 153.620118 
L 123.871369 157.408734 
L 124.153329 158.014136 
L 124.43529 158.061618 
L 125.281172 160.712507 
L 125.563132 160.555625 
L 125.845093 161.803873 
L 126.409014 166.521771 
L 126.972935 167.962453 
L 127.254896 169.672023 
L 127.818817 174.853802 
L 128.100778 175.698037 
L 128.382738 175.916807 
L 128.664699 174.427811 
L 128.946659 165.804346 
L 129.510581 122.066007 
L 130.074502 83.103799 
L 130.356462 73.598029 
L 130.638423 71.887553 
L 130.920384 78.688688 
L 132.048226 133.502308 
L 132.330186 135.518561 
L 132.612147 134.783061 
L 132.894108 132.68019 
L 133.176068 129.524533 
L 133.458029 128.303526 
L 133.739989 132.042955 
L 134.303911 143.168307 
L 134.585871 144.184119 
L 134.867832 142.679883 
L 135.713714 135.007212 
L 135.995674 134.613583 
L 136.277635 134.890251 
L 136.559595 135.52823 
L 137.123516 137.840661 
L 137.969398 142.098662 
L 138.251359 142.867463 
L 138.81528 143.526115 
L 139.661162 144.83448 
L 139.943122 144.937376 
L 140.507043 144.115246 
L 140.789004 144.589561 
L 141.070965 145.998671 
L 141.352925 146.561646 
L 141.634886 145.745611 
L 141.916846 145.307942 
L 142.762728 148.398316 
L 143.326649 151.88759 
L 143.60861 152.190955 
L 143.890571 151.356195 
L 144.172531 151.295997 
L 144.454492 152.119867 
L 144.736452 152.404797 
L 145.300373 151.738445 
L 145.582334 151.603027 
L 145.864295 151.769335 
L 146.992137 155.646645 
L 148.119979 163.763558 
L 148.40194 164.812421 
L 148.6839 164.847081 
L 149.247822 161.100412 
L 149.529782 161.016424 
L 150.939585 173.035012 
L 151.503506 177.772963 
L 151.785467 178.429475 
L 152.067428 172.549961 
L 152.349388 155.750481 
L 153.19527 84.346842 
L 153.47723 70.643265 
L 153.759191 63.670134 
L 154.041152 65.569839 
L 154.323112 77.495003 
L 155.168994 131.956491 
L 155.450955 140.48133 
L 155.732915 143.630249 
L 156.014876 142.864214 
L 156.296836 139.781889 
L 156.578797 138.096673 
L 156.860757 141.109931 
L 157.142718 146.409367 
L 157.424679 148.314071 
L 158.552521 137.718362 
L 158.834482 136.293403 
L 159.116442 135.59346 
L 159.398403 136.04056 
L 159.962324 139.194746 
L 160.526245 142.775628 
L 161.090166 149.238112 
L 161.372127 150.517856 
L 161.936048 148.982323 
L 162.218009 148.711795 
L 162.78193 147.291602 
L 163.06389 147.251157 
L 163.345851 146.921964 
L 163.627812 145.852456 
L 163.909772 145.367106 
L 164.191733 145.893042 
L 164.473693 145.881074 
L 164.755654 145.080975 
L 165.037614 145.086593 
L 165.883496 148.616277 
L 166.447417 149.580511 
L 166.729378 149.131995 
L 167.011339 148.19263 
L 167.293299 148.228408 
L 168.139181 153.910454 
L 168.421142 154.199606 
L 168.703102 154.86955 
L 169.830944 159.254376 
L 170.676826 163.36072 
L 171.240747 169.203895 
L 172.086629 174.706451 
L 172.65055 177.413617 
L 173.778393 184.180778 
L 174.060353 181.576147 
L 174.342314 168.617651 
L 174.906235 117.012556 
L 175.470156 66.425024 
L 175.752117 52.45179 
L 176.034077 47.738511 
L 176.316038 50.940304 
L 176.597999 62.348466 
L 177.44388 121.607269 
L 177.725841 131.824366 
L 178.007801 136.296667 
L 178.289762 136.985302 
L 178.571723 136.039381 
L 178.853683 137.590026 
L 179.699565 157.113743 
L 179.981526 155.776493 
L 181.391328 134.151326 
L 181.673289 132.693025 
L 181.95525 132.822051 
L 182.23721 134.803585 
L 182.801131 141.07577 
L 183.365053 142.657855 
L 184.210934 150.531396 
L 184.492895 150.470372 
L 185.056816 149.447539 
L 185.338777 148.259181 
L 185.902698 145.415501 
L 186.184658 145.27658 
L 186.74858 146.462796 
L 187.03054 146.257821 
L 187.594461 144.005615 
L 187.876422 144.821509 
L 188.440343 149.778804 
L 188.722304 150.51785 
L 189.004264 150.936939 
L 189.850146 155.58925 
L 190.132107 155.855321 
L 190.414067 155.752919 
L 190.696028 155.143604 
L 190.977988 154.840467 
L 191.259949 156.513997 
L 191.82387 163.320836 
L 192.105831 165.259217 
L 192.951713 168.324485 
L 194.079555 177.673985 
L 194.361515 178.208487 
L 194.643476 178.475824 
L 194.925437 179.576567 
L 195.771318 186.976833 
L 196.33524 189.491989 
L 196.6172 191.06201 
L 196.899161 188.91757 
L 197.181121 176.968165 
L 197.745042 120.901412 
L 198.308964 67.054683 
L 198.590924 51.172614 
L 198.872885 42.754238 
L 199.154845 42.030401 
L 199.436806 48.581195 
L 199.718767 61.911543 
L 200.564648 120.488416 
L 200.846609 130.830089 
L 201.12857 134.870186 
L 201.692491 136.629121 
L 201.974451 140.14128 
L 202.538372 152.846746 
L 202.820333 153.4582 
L 203.666215 142.664093 
L 204.512097 134.649586 
L 204.794057 134.192916 
L 205.076018 134.90755 
L 205.357978 137.246221 
L 205.921899 144.632165 
L 206.485821 148.263254 
L 206.767781 150.853237 
L 207.049742 152.002015 
L 207.331702 150.489497 
L 207.613663 148.279899 
L 207.895624 147.145868 
L 208.177584 146.8422 
L 208.459545 147.095158 
L 209.305427 149.813505 
L 209.587387 149.864794 
L 209.869348 149.769817 
L 210.151308 149.527819 
L 210.433269 149.74913 
L 210.99719 151.219563 
L 211.279151 151.069633 
L 211.561111 151.212252 
L 211.843072 151.584054 
L 212.406993 150.564191 
L 212.970914 151.708025 
L 213.252875 151.521599 
L 213.534835 151.802442 
L 214.662678 158.639175 
L 214.944638 161.122446 
L 215.508559 164.245182 
L 216.072481 171.694225 
L 216.354441 172.181876 
L 216.636402 170.945658 
L 216.918362 171.351188 
L 218.328165 184.12034 
L 218.892086 186.142982 
L 219.456008 190.550347 
L 219.737968 189.932241 
L 220.019929 181.713512 
L 220.301889 162.29068 
L 221.429732 56.63056 
L 221.711692 41.131681 
L 221.993653 31.803573 
L 222.275613 33.777411 
L 222.557574 46.824494 
L 223.685416 119.255253 
L 223.967377 127.346139 
L 224.531298 136.232163 
L 225.095219 150.240012 
L 225.37718 153.452693 
L 225.659141 153.463832 
L 225.941101 151.585829 
L 226.223062 147.775233 
L 227.068943 130.698184 
L 227.350904 129.989187 
L 227.632865 131.018935 
L 227.914825 133.455971 
L 229.324628 156.867591 
L 229.606589 159.719857 
L 229.888549 160.157601 
L 230.45247 156.525458 
L 231.016392 153.360467 
L 231.580313 152.889069 
L 232.144234 150.747631 
L 232.426195 150.796096 
L 232.708155 150.407711 
L 233.272076 146.846303 
L 233.554037 147.45746 
L 234.117958 150.747131 
L 234.399919 152.127557 
L 234.96384 155.696794 
L 235.2458 156.559989 
L 236.091682 160.263993 
L 236.373643 159.932256 
L 236.655603 161.098735 
L 236.937564 163.721553 
L 237.219525 164.8487 
L 237.783446 162.937886 
L 238.065406 164.637979 
L 238.911288 173.943409 
L 239.75717 179.539494 
L 240.603052 190.718292 
L 241.448933 197.07099 
L 241.730894 193.641391 
L 242.012855 179.253089 
L 242.576776 118.133173 
L 243.140697 57.319523 
L 243.704618 19.455158 
L 243.986579 16.373726 
L 244.268539 26.798763 
L 245.678342 111.608115 
L 246.806184 155.602661 
L 247.088145 160.39034 
L 247.370106 161.365058 
L 247.652066 159.895483 
L 247.934027 155.271073 
L 248.497948 141.242461 
L 249.061869 132.490782 
L 249.34383 129.43055 
L 249.62579 129.301147 
L 250.189712 136.526247 
L 251.317554 153.96394 
L 251.599514 155.005028 
L 251.881475 154.798803 
L 252.445396 153.800623 
L 253.009317 153.099976 
L 253.855199 150.780179 
L 254.13716 150.76359 
L 254.41912 151.392616 
L 254.983041 153.799998 
L 255.546963 156.373978 
L 255.828923 156.868918 
L 256.110884 157.030212 
L 256.392844 157.800756 
L 257.802647 165.145309 
L 258.084608 165.643582 
L 258.366569 166.712022 
L 259.21245 173.265466 
L 259.776371 179.852225 
L 261.750096 205.360867 
L 262.314017 211.726521 
L 262.595977 213.235314 
L 262.877938 209.831132 
L 263.159898 194.277648 
L 263.72382 130.983049 
L 264.569701 31.723607 
L 264.851662 18.204248 
L 265.133623 20.93293 
L 266.543425 70.141571 
L 267.389307 84.726775 
L 267.671268 91.555267 
L 268.235189 118.999285 
L 268.79911 141.530481 
L 269.081071 146.599698 
L 269.363031 148.098345 
L 269.644992 146.242834 
L 270.208913 141.975023 
L 270.772834 139.322393 
L 271.054795 141.430978 
L 271.900677 155.894597 
L 272.464598 160.316363 
L 272.746558 160.595038 
L 273.028519 159.490705 
L 273.31048 158.962626 
L 273.59244 159.430092 
L 273.874401 159.408156 
L 274.156361 158.054513 
L 275.002243 151.218322 
L 275.284204 150.336672 
L 275.848125 151.710848 
L 276.412046 149.754902 
L 276.694007 150.180423 
L 277.821849 155.989103 
L 278.10381 156.787265 
L 278.38577 156.820226 
L 278.667731 157.445862 
L 279.513612 161.849204 
L 280.359494 164.344678 
L 280.923415 167.675282 
L 281.487337 172.13644 
L 283.743021 198.523304 
L 284.306942 209.241154 
L 284.870864 218.622395 
L 285.152824 222.98424 
L 285.434785 225.02278 
L 285.716745 215.703144 
L 285.998706 190.348438 
L 287.408509 19.88286 
L 287.690469 15.61857 
L 287.97243 21.867763 
L 289.100272 59.189164 
L 289.664194 67.199976 
L 290.228115 71.782636 
L 290.510075 80.357828 
L 291.355957 121.403491 
L 291.919878 132.357655 
L 292.201839 135.673979 
L 292.483799 136.394135 
L 292.76576 136.144258 
L 293.047721 136.049207 
L 293.329681 135.127394 
L 293.611642 133.779659 
L 293.893602 134.683533 
L 294.457524 145.177077 
L 295.021445 154.978106 
L 295.303405 157.101471 
L 295.867326 157.788345 
L 296.431248 161.794327 
L 296.713208 162.127988 
L 297.277129 159.983835 
L 297.841051 161.209967 
L 298.123011 161.367244 
L 298.404972 162.563903 
L 298.968893 166.928094 
L 299.250853 165.754308 
L 299.532814 163.848277 
L 300.096735 162.967263 
L 300.660656 157.396311 
L 300.942617 157.004616 
L 301.224578 157.996237 
L 301.506538 158.214326 
L 301.788499 158.698846 
L 302.634381 165.447961 
L 302.916341 165.640397 
L 303.198302 166.891364 
L 303.762223 170.77976 
L 304.044183 172.391038 
L 305.453986 184.546148 
L 306.581829 196.307319 
L 307.709671 214.286188 
L 308.273592 221.153956 
L 308.555553 213.92633 
L 308.837513 191.165878 
L 309.683395 78.953987 
L 310.247316 17.988746 
L 310.529277 12.096 
L 310.811238 17.078056 
L 311.375159 36.254416 
L 311.93908 54.604347 
L 313.066922 82.328283 
L 313.348883 91.872491 
L 313.912804 118.949252 
L 314.476725 134.648572 
L 314.758686 140.003865 
L 315.040646 141.299364 
L 315.322607 139.256763 
L 315.604567 138.053027 
L 315.886528 139.200822 
L 316.450449 142.178144 
L 317.01437 144.361529 
L 317.296331 145.92938 
L 317.578292 148.522217 
L 318.706134 162.040352 
L 318.988095 163.481678 
L 319.270055 163.882212 
L 319.552016 163.032556 
L 320.115937 159.954669 
L 320.397897 159.572929 
L 320.679858 159.642062 
L 320.961819 160.150073 
L 321.52574 162.689581 
L 321.8077 162.428058 
L 322.089661 161.686448 
L 322.371622 162.055382 
L 322.653582 162.980234 
L 322.935543 163.191618 
L 323.217503 163.002154 
L 323.499464 163.455341 
L 324.345346 166.948294 
L 324.909267 165.644525 
L 325.191227 167.821533 
L 325.755149 177.706606 
L 326.037109 180.15991 
L 326.31907 181.557116 
L 326.60103 184.140253 
L 327.728873 198.703846 
L 328.010833 202.067836 
L 328.292794 206.93863 
L 329.138676 225.005917 
L 329.702597 235.201552 
L 329.984557 236.291132 
L 330.266518 224.068895 
L 330.830439 163.779436 
L 331.676321 51.715563 
L 331.958281 40.152181 
L 332.240242 40.465599 
L 332.522203 43.379642 
L 332.804163 47.96282 
L 333.368084 60.670346 
L 333.650045 61.599743 
L 334.777887 57.347178 
L 335.059848 60.654217 
L 335.90573 83.192302 
L 336.469651 91.138081 
L 337.597493 97.864672 
L 337.879454 100.631343 
L 338.443375 112.050369 
L 339.289257 130.308268 
L 339.853178 143.773565 
L 342.108863 173.812281 
L 342.390823 175.804792 
L 342.672784 176.632802 
L 342.954744 175.825213 
L 343.800626 171.050949 
L 344.364547 167.539725 
L 344.928468 166.576686 
L 345.49239 164.04119 
L 345.77435 163.846725 
L 346.056311 166.193458 
L 346.620232 173.348595 
L 346.902193 172.95255 
L 347.184153 171.405813 
L 347.466114 171.787817 
L 348.311995 178.649348 
L 348.875917 185.989557 
L 349.439838 189.695429 
L 350.28572 203.63906 
L 350.56768 205.338723 
L 350.849641 208.632432 
L 351.413562 224.655948 
L 351.977483 239.852486 
L 352.541404 249.768915 
L 352.823365 250.880586 
L 353.105325 241.470437 
L 353.387286 218.8783 
L 353.951207 143.137014 
L 354.515128 66.671783 
L 354.797089 51.637824 
L 355.07905 48.730999 
L 355.36101 48.037035 
L 355.924931 44.667162 
L 356.206892 41.778691 
L 356.770813 33.11589 
L 357.052774 31.975548 
L 357.334734 33.270159 
L 357.616695 36.132727 
L 357.898655 41.906788 
L 358.462577 65.772002 
L 359.026498 85.552911 
L 359.87238 101.249269 
L 360.436301 106.569222 
L 361.000222 109.849982 
L 361.282182 111.63343 
L 362.410025 125.065918 
L 364.383749 157.300933 
L 365.511591 173.139041 
L 366.075512 177.711681 
L 366.357473 178.718135 
L 366.639434 178.940137 
L 366.921394 179.57864 
L 367.203355 180.534519 
L 367.485315 179.945855 
L 368.331197 171.396426 
L 369.177079 169.156298 
L 369.459039 169.043874 
L 369.741 169.385448 
L 370.022961 169.908187 
L 370.304921 171.244287 
L 371.150803 177.755278 
L 371.432764 181.368732 
L 371.996685 190.345808 
L 372.560606 195.265882 
L 372.842566 198.815539 
L 373.124527 200.832342 
L 373.406488 201.518762 
L 373.688448 203.623228 
L 374.252369 213.179858 
L 375.662172 241.537745 
L 375.944133 241.630189 
L 376.226094 228.88497 
L 376.508054 202.705825 
L 377.635896 62.404178 
L 378.199818 41.440732 
L 378.481778 32.28401 
L 378.763739 27.714313 
L 379.045699 28.10806 
L 379.609621 30.706544 
L 379.891581 33.278664 
L 380.173542 37.898452 
L 380.455502 44.596039 
L 381.019423 68.240943 
L 381.583345 97.010371 
L 382.147266 112.257701 
L 382.711187 118.029772 
L 383.839029 127.100307 
L 384.12099 128.152751 
L 384.684911 132.119994 
L 384.966872 132.624982 
L 385.248832 133.577476 
L 385.530793 135.922592 
L 385.812753 137.019717 
L 386.376675 133.002875 
L 386.658635 134.549394 
L 387.222556 143.498534 
L 387.786478 147.9468 
L 388.068438 149.36231 
L 388.350399 151.424195 
L 389.478241 165.278743 
L 389.760202 166.459376 
L 390.042162 168.740459 
L 390.888044 178.01751 
L 391.170005 180.010416 
L 391.451965 181.085719 
L 391.733926 180.981253 
L 392.015886 180.306832 
L 392.297847 180.460327 
L 393.425689 185.592036 
L 393.98961 189.738474 
L 394.553532 198.257047 
L 395.117453 207.01541 
L 395.681374 212.624385 
L 395.963335 217.233952 
L 396.527256 230.470176 
L 397.091177 238.583231 
L 397.373137 244.576216 
L 397.655098 247.980095 
L 397.937059 241.952195 
L 398.219019 221.812545 
L 398.78294 140.721708 
L 399.346862 72.429825 
L 400.192743 27.747383 
L 400.474704 22.538701 
L 400.756665 22.336585 
L 401.038625 23.095463 
L 401.320586 25.010051 
L 402.166467 36.333793 
L 402.448428 44.152575 
L 403.012349 71.038613 
L 403.57627 98.758218 
L 403.858231 106.397025 
L 404.140192 110.327258 
L 404.422152 112.650243 
L 404.704113 113.495102 
L 404.986073 112.709145 
L 405.549994 110.20595 
L 405.831955 109.459793 
L 406.113916 111.298278 
L 406.959797 126.450541 
L 407.523719 131.96461 
L 408.3696 141.726474 
L 408.933522 149.592355 
L 409.779403 154.813467 
L 410.061364 157.682438 
L 410.907246 169.384578 
L 411.471167 171.896762 
L 412.035088 174.921125 
L 412.317049 174.519764 
L 412.599009 173.49423 
L 412.88097 173.191091 
L 413.444891 174.474015 
L 413.726851 175.496329 
L 414.854694 184.268577 
L 415.136654 186.791723 
L 415.700576 195.483153 
L 416.264497 203.658435 
L 416.828418 205.859787 
L 417.392339 214.960036 
L 417.95626 225.727716 
L 418.520181 239.78492 
L 419.084103 243.930555 
L 419.648024 250.739492 
L 419.929984 242.848059 
L 420.211945 216.798822 
L 421.057827 92.988327 
L 421.621748 48.848716 
L 421.903708 35.918925 
L 422.185669 30.509999 
L 422.74959 28.42082 
L 423.031551 28.378693 
L 423.313511 31.396989 
L 424.159393 47.634084 
L 424.723314 69.565744 
L 425.569196 107.681665 
L 426.133117 121.801585 
L 426.415078 126.082738 
L 426.697038 127.682792 
L 426.978999 126.916892 
L 427.26096 125.481837 
L 428.388802 122.018124 
L 428.670763 121.997446 
L 429.516644 124.75529 
L 429.798605 123.146351 
L 430.080565 120.454353 
L 430.362526 120.717596 
L 432.05429 151.514653 
L 432.33625 152.466451 
L 432.618211 153.839973 
L 433.182132 160.809892 
L 433.746053 163.359334 
L 434.309974 168.630941 
L 434.873895 171.421514 
L 435.155856 173.500899 
L 435.437817 174.701973 
L 435.719777 174.540813 
L 436.001738 174.903714 
L 436.565659 179.593312 
L 436.84762 180.637108 
L 437.12958 181.048005 
L 437.411541 182.468706 
L 437.975462 187.435746 
L 438.257422 191.575023 
L 439.103304 208.423064 
L 439.667225 217.840866 
L 441.358989 253.027863 
L 441.64095 254.016 
L 441.92291 242.318232 
L 442.204871 211.544576 
L 443.050752 93.790535 
L 443.614674 52.063454 
L 443.896634 40.229298 
L 444.178595 34.979419 
L 444.460555 33.855423 
L 444.742516 34.270445 
L 445.024477 35.731642 
L 445.306437 38.850388 
L 445.870358 49.527871 
L 446.434279 65.028192 
L 447.844082 117.86293 
L 448.126043 125.192098 
L 448.408004 129.208681 
L 448.689964 127.821639 
L 449.253885 120.217377 
L 449.817806 116.260262 
L 450.099767 116.898627 
L 451.227609 131.053911 
L 451.50957 133.819469 
L 452.073491 141.55747 
L 452.355452 143.117947 
L 452.637412 143.72302 
L 452.919373 145.390399 
L 453.201334 147.771939 
L 454.047215 152.551247 
L 454.329176 154.980075 
L 454.893097 156.579498 
L 455.175058 158.761859 
L 455.738979 164.356143 
L 456.584861 168.74774 
L 456.866821 169.241878 
L 457.148782 169.124854 
L 457.430742 169.885809 
L 459.404466 185.473036 
L 459.968388 191.462173 
L 460.250348 192.235848 
L 460.532309 194.816739 
L 461.378191 214.63622 
L 461.660151 217.832216 
L 461.942112 222.837591 
L 462.506033 237.226745 
L 462.787993 237.532481 
L 463.069954 223.712783 
L 464.479757 83.048379 
L 464.761718 66.447942 
L 465.043678 57.348436 
L 465.325639 55.946119 
L 465.88956 58.994351 
L 466.17152 60.15055 
L 466.453481 62.725659 
L 466.735442 67.573248 
L 467.017402 75.308648 
L 468.145245 122.930601 
L 468.427205 126.681037 
L 468.991126 128.468924 
L 469.273087 128.915341 
L 469.555048 127.822844 
L 470.118969 118.772579 
L 470.400929 114.852909 
L 470.68289 113.735893 
L 470.96485 114.089911 
L 471.246811 114.964605 
L 471.528772 117.159744 
L 472.092693 123.359498 
L 472.656614 125.008924 
L 473.502496 130.041851 
L 473.784456 131.237624 
L 474.348377 135.566122 
L 474.912299 141.174959 
L 475.75818 151.076826 
L 476.040141 152.501109 
L 476.322102 154.540933 
L 476.604062 158.515417 
L 477.731905 182.134791 
L 478.577786 191.977481 
L 479.141707 192.891959 
L 480.26955 200.594514 
L 480.833471 206.871573 
L 481.115432 209.342982 
L 481.679353 218.607942 
L 482.243274 227.651761 
L 482.525234 223.040465 
L 482.807195 201.758669 
L 483.371116 138.987114 
L 483.935037 101.183683 
L 484.216998 87.228125 
L 484.498959 79.24399 
L 485.06288 74.376238 
L 485.34484 72.311493 
L 485.626801 71.914913 
L 485.908762 73.032447 
L 486.190722 74.688262 
L 486.472683 77.661882 
L 486.754643 82.873161 
L 487.600525 107.498852 
L 488.446407 128.327751 
L 488.728367 131.82395 
L 489.010328 133.007067 
L 489.292289 132.818021 
L 489.574249 131.268316 
L 490.13817 126.261768 
L 490.420131 126.36297 
L 490.984052 129.796107 
L 491.266013 130.781711 
L 491.547973 130.810861 
L 491.829934 129.950971 
L 492.111894 129.650322 
L 492.393855 131.051486 
L 492.675816 133.232879 
L 492.957776 134.532794 
L 493.521697 135.611485 
L 493.803658 136.463171 
L 494.085619 137.812078 
L 494.64954 143.597453 
L 495.213461 148.764965 
L 495.777382 150.892372 
L 496.059343 152.806809 
L 496.623264 157.988687 
L 497.187185 160.888698 
L 497.751106 163.061167 
L 498.033067 165.103347 
L 498.596988 169.978065 
L 499.160909 170.667304 
L 500.288751 179.385408 
L 500.852673 187.674808 
L 501.416594 196.5885 
L 502.262476 217.052536 
L 503.108357 224.335874 
L 503.390318 214.683571 
L 504.51816 116.072052 
L 505.082081 91.636885 
L 505.364042 87.982025 
L 505.927963 85.773327 
L 506.209924 86.229209 
L 507.337766 97.266684 
L 507.619727 99.099089 
L 507.901687 100.095245 
L 508.183648 102.553626 
L 509.02953 122.967517 
L 509.31149 124.515858 
L 509.593451 124.213883 
L 509.875411 122.843629 
L 510.157372 120.778172 
L 510.439333 119.668504 
L 510.721293 119.958829 
L 511.003254 119.484178 
L 511.285214 117.947933 
L 511.567175 117.637894 
L 512.413057 122.566626 
L 512.976978 125.822588 
L 513.258938 126.492529 
L 513.540899 129.186915 
L 514.386781 143.708548 
L 514.668741 145.727219 
L 514.950702 146.425531 
L 515.232662 146.221528 
L 515.514623 146.41698 
L 516.078544 149.670617 
L 516.642465 153.104937 
L 516.924426 153.308352 
L 517.206387 153.131147 
L 517.488347 154.804792 
L 517.770308 157.595054 
L 518.052268 158.806844 
L 518.61619 157.602267 
L 519.180111 155.087008 
L 519.462071 155.354637 
L 519.744032 157.603089 
L 520.025992 158.806394 
L 520.307953 158.400096 
L 520.589914 158.672799 
L 521.153835 160.910503 
L 521.435795 163.0663 
L 521.999717 171.234894 
L 522.563638 175.532454 
L 523.127559 181.097739 
L 523.409519 182.46375 
L 524.537362 193.364171 
L 525.101283 203.43561 
L 525.383244 206.052389 
L 525.665204 210.326868 
L 525.947165 212.343342 
L 526.229125 200.928484 
L 527.075007 128.561865 
L 527.920889 91.18184 
L 528.202849 87.204535 
L 528.48481 87.12989 
L 528.766771 87.302214 
L 529.048731 86.922397 
L 529.330692 86.958661 
L 529.612652 88.232796 
L 529.894613 91.540678 
L 530.740495 106.365664 
L 531.868337 133.804955 
L 532.150298 137.714854 
L 532.432258 140.037103 
L 532.714219 140.441873 
L 532.996179 139.176748 
L 533.27814 136.579367 
L 533.842061 130.340117 
L 534.124022 130.837418 
L 534.687943 134.955766 
L 535.251864 135.536823 
L 535.533825 136.21387 
L 535.815785 136.524708 
L 536.097746 137.199524 
L 536.661667 140.430891 
L 536.943628 141.074586 
L 537.225588 141.13062 
L 537.789509 140.806374 
L 538.07147 141.050239 
L 538.353431 142.47377 
L 538.917352 146.327738 
L 539.199312 146.83408 
L 539.481273 146.843398 
L 539.763233 147.356071 
L 540.045194 148.300427 
L 540.327155 148.424173 
L 540.609115 148.036073 
L 540.891076 149.019978 
L 541.454997 154.309743 
L 541.736958 154.925902 
L 542.018918 155.018712 
L 542.582839 156.557496 
L 542.8648 156.08474 
L 543.146761 155.036089 
L 543.428721 154.628726 
L 543.710682 155.129713 
L 544.274603 157.474131 
L 544.556563 159.474885 
L 545.402445 170.229953 
L 545.966366 173.055162 
L 546.530288 179.07356 
L 547.094209 187.938965 
L 547.376169 190.114345 
L 547.65813 191.041904 
L 548.222051 197.021214 
L 548.504012 188.641122 
L 549.349893 127.082471 
L 549.913815 106.582667 
L 550.195775 101.562077 
L 551.041657 94.791766 
L 551.323618 97.105116 
L 551.605578 100.863537 
L 551.887539 102.395105 
L 552.169499 103.164531 
L 552.45146 106.238849 
L 553.015381 117.252771 
L 553.579302 133.366638 
L 553.861263 137.352408 
L 554.143223 137.098368 
L 554.425184 136.016624 
L 554.707145 135.458026 
L 554.989105 133.460993 
L 555.553026 127.624005 
L 556.116947 126.429568 
L 556.398908 125.671895 
L 556.680869 126.61953 
L 556.962829 128.780495 
L 557.24479 129.179007 
L 557.52675 128.136232 
L 557.808711 128.875661 
L 558.372632 137.476155 
L 558.936553 147.775469 
L 559.218514 149.922696 
L 559.782435 148.384655 
L 560.346356 150.735849 
L 561.192238 151.382163 
L 561.474199 151.24499 
L 561.756159 150.973464 
L 562.03812 151.57257 
L 563.165962 157.134128 
L 563.447923 157.293959 
L 563.729883 157.763883 
L 564.293804 159.449753 
L 564.575765 158.675899 
L 564.857726 157.271656 
L 565.139686 157.385703 
L 565.703607 164.345461 
L 565.985568 167.308949 
L 566.83145 171.067154 
L 567.677332 178.956417 
L 567.959292 180.170982 
L 568.241253 182.874261 
L 569.087134 195.640833 
L 569.369095 196.063021 
L 569.651056 186.995955 
L 570.496937 132.721178 
L 571.342819 105.001285 
L 571.62478 100.917171 
L 571.90674 99.491143 
L 572.188701 99.818061 
L 573.034583 107.915231 
L 573.316543 108.999689 
L 573.598504 110.620533 
L 573.880464 112.947004 
L 574.162425 116.6487 
L 575.008307 134.637497 
L 575.290267 134.84447 
L 575.572228 136.08258 
L 575.854189 138.268907 
L 576.136149 137.665098 
L 576.70007 131.771291 
L 577.263991 130.242678 
L 577.545952 130.618385 
L 578.109873 134.284416 
L 578.391834 134.408015 
L 578.673794 134.22246 
L 578.955755 134.199656 
L 579.237716 133.722257 
L 579.519676 134.036709 
L 580.083597 137.041374 
L 580.647518 137.203847 
L 580.929479 138.110536 
L 581.21144 140.001261 
L 581.775361 145.728941 
L 582.057321 145.967117 
L 582.339282 144.902988 
L 582.621243 145.211978 
L 582.903203 146.445919 
L 583.185164 146.558925 
L 583.467124 146.869624 
L 584.031046 149.482711 
L 584.594967 147.822102 
L 584.876927 148.141711 
L 585.158888 149.199812 
L 585.722809 152.085208 
L 586.00477 151.73614 
L 586.28673 150.590426 
L 586.568691 150.952726 
L 587.414573 156.209156 
L 587.696533 157.273403 
L 587.978494 157.337184 
L 588.260454 158.011003 
L 589.106336 170.705518 
L 589.670257 171.481207 
L 589.952218 172.937984 
L 590.7981 179.133075 
L 591.08006 183.359104 
L 591.362021 190.479738 
L 591.643981 192.945764 
L 591.925942 182.438521 
L 592.489863 147.678217 
L 593.617705 114.81208 
L 594.181627 110.95131 
L 594.463587 109.888121 
L 594.745548 110.774855 
L 595.309469 113.453147 
L 597.001232 125.927045 
L 597.847114 127.286167 
L 598.129075 127.812903 
L 598.411035 128.893385 
L 598.692996 130.909153 
L 598.974957 131.255935 
L 599.820838 123.158778 
L 600.102799 123.355813 
L 600.38476 123.724376 
L 600.66672 124.753637 
L 601.512602 135.533566 
L 601.794562 135.909809 
L 602.076523 137.416759 
L 602.640444 145.002752 
L 602.922405 146.956619 
L 603.204365 147.399115 
L 603.486326 147.148651 
L 603.768287 147.117642 
L 604.050247 147.307984 
L 604.614168 148.201247 
L 605.178089 149.506593 
L 605.742011 149.427978 
L 606.023971 150.339352 
L 606.305932 150.782045 
L 606.869853 149.865914 
L 607.151814 150.161382 
L 607.715735 149.522421 
L 607.997695 150.495952 
L 608.279656 152.204794 
L 608.843577 153.381614 
L 609.689459 159.057476 
L 610.535341 164.48912 
L 610.817301 165.418274 
L 611.381222 169.099522 
L 611.663183 169.430758 
L 611.945144 168.697571 
L 612.227104 169.82303 
L 612.791025 177.442203 
L 613.354946 179.74385 
L 613.636907 182.488492 
L 613.918868 184.113441 
L 614.200828 176.943144 
L 615.04671 133.028895 
L 615.892592 110.195962 
L 616.174552 107.120116 
L 616.456513 107.606929 
L 617.584355 117.13972 
L 617.866316 118.406014 
L 618.148276 120.289308 
L 618.712198 127.716068 
L 619.558079 144.175895 
L 619.84004 145.615237 
L 620.122001 144.832902 
L 620.967882 138.524786 
L 621.531803 133.804129 
L 621.813764 133.552118 
L 622.095725 135.038341 
L 622.377685 137.546212 
L 622.659646 138.942625 
L 622.941606 139.514216 
L 623.223567 139.246594 
L 623.505528 139.218982 
L 623.787488 139.038097 
L 624.069449 139.373413 
L 624.351409 138.922823 
L 624.63337 137.737303 
L 624.915331 135.864611 
L 625.197291 135.744431 
L 625.479252 137.238715 
L 626.325133 145.376596 
L 626.607094 144.6347 
L 627.171015 139.796261 
L 627.452976 140.800525 
L 628.298858 147.862825 
L 628.580818 147.619207 
L 628.862779 146.920029 
L 629.144739 149.729839 
L 629.70866 157.637449 
L 629.990621 159.378053 
L 630.554542 165.321547 
L 630.836503 166.395415 
L 631.118463 165.225435 
L 631.682385 169.133068 
L 631.964345 170.778835 
L 632.246306 169.170682 
L 632.528266 172.046255 
L 632.810227 172.350797 
L 633.092188 177.21025 
L 633.092188 177.21025 
" clip-path="url(#p90ac69e0a5)" style="fill: none; stroke: #1f77b4; stroke-width: 1.5; stroke-linecap: square"/>
   </g>
   <g id="patch_3">
    <path d="M 47.192188 266.112 
L 47.192188 0 
" style="fill: none; stroke: #808080; stroke-width: 0.8; stroke-linejoin: miter; stroke-linecap: square"/>
   </g>
   <g id="patch_4">
    <path d="M 660.992188 266.112 
L 660.992188 0 
" style="fill: none; stroke: #000000; stroke-width: 0.8; stroke-linejoin: miter; stroke-linecap: square"/>
   </g>
   <g id="patch_5">
    <path d="M 47.192188 266.112 
L 660.992188 266.112 
" style="fill: none; stroke: #808080; stroke-width: 0.8; stroke-linejoin: miter; stroke-linecap: square"/>
   </g>
   <g id="patch_6">
    <path d="M 47.192188 0 
L 660.992188 0 
" style="fill: none; stroke: #000000; stroke-width: 0.8; stroke-linejoin: miter; stroke-linecap: square"/>
   </g>
  </g>
 </g>
 <defs>
  <clipPath id="p90ac69e0a5">
   <rect x="47.192188" y="0" width="613.8" height="266.112"/>
  </clipPath>
 </defs>
</svg>
