<?xml version="1.0" encoding="utf-8" standalone="no"?>
<!DOCTYPE svg PUBLIC "-//W3C//DTD SVG 1.1//EN"
  "http://www.w3.org/Graphics/SVG/1.1/DTD/svg11.dtd">
<svg xmlns:xlink="http://www.w3.org/1999/xlink" width="660.992188pt" height="282.790125pt" viewBox="0 0 660.992188 282.790125" xmlns="http://www.w3.org/2000/svg" version="1.1">
 <metadata>
  <rdf:RDF xmlns:dc="http://purl.org/dc/elements/1.1/" xmlns:cc="http://creativecommons.org/ns#" xmlns:rdf="http://www.w3.org/1999/02/22-rdf-syntax-ns#">
   <cc:Work>
    <dc:type rdf:resource="http://purl.org/dc/dcmitype/StillImage"/>
    <dc:date>2023-03-06T21:33:02.359348</dc:date>
    <dc:format>image/svg+xml</dc:format>
    <dc:creator>
     <cc:Agent>
      <dc:title>Matplotlib v3.6.3, https://matplotlib.org/</dc:title>
     </cc:Agent>
    </dc:creator>
   </cc:Work>
  </rdf:RDF>
 </metadata>
 <defs>
  <style type="text/css">*{stroke-linejoin: round; stroke-linecap: butt}</style>
 </defs>
 <g id="figure_1">
  <g id="patch_1">
   <path d="M -0 282.790125 
L 660.992188 282.790125 
L 660.992188 0 
L -0 0 
L -0 282.790125 
z
" style="fill: none"/>
  </g>
  <g id="axes_1">
   <g id="patch_2">
    <path d="M 47.192188 266.112 
L 660.992188 266.112 
L 660.992188 0 
L 47.192188 0 
L 47.192188 266.112 
z
" style="fill: none"/>
   </g>
   <g id="matplotlib.axis_1">
    <g id="xtick_1">
     <g id="line2d_1">
      <defs>
       <path id="ma11b20be53" d="M 0 0 
L 0 3.5 
" style="stroke: #808080; stroke-width: 0.8"/>
      </defs>
      <g>
       <use xlink:href="#ma11b20be53" x="75.092188" y="266.112" style="fill: #808080; stroke: #808080; stroke-width: 0.8"/>
      </g>
     </g>
     <g id="text_1">
      <!-- 0 -->
      <g style="fill: #808080" transform="translate(71.910938 280.710438) scale(0.1 -0.1)">
       <defs>
        <path id="DejaVuSans-30" d="M 2034 4250 
Q 1547 4250 1301 3770 
Q 1056 3291 1056 2328 
Q 1056 1369 1301 889 
Q 1547 409 2034 409 
Q 2525 409 2770 889 
Q 3016 1369 3016 2328 
Q 3016 3291 2770 3770 
Q 2525 4250 2034 4250 
z
M 2034 4750 
Q 2819 4750 3233 4129 
Q 3647 3509 3647 2328 
Q 3647 1150 3233 529 
Q 2819 -91 2034 -91 
Q 1250 -91 836 529 
Q 422 1150 422 2328 
Q 422 3509 836 4129 
Q 1250 4750 2034 4750 
z
" transform="scale(0.015625)"/>
       </defs>
       <use xlink:href="#DejaVuSans-30"/>
      </g>
     </g>
    </g>
    <g id="xtick_2">
     <g id="line2d_2">
      <g>
       <use xlink:href="#ma11b20be53" x="144.842188" y="266.112" style="fill: #808080; stroke: #808080; stroke-width: 0.8"/>
      </g>
     </g>
     <g id="text_2">
      <!-- 500 -->
      <g style="fill: #808080" transform="translate(135.298438 280.710438) scale(0.1 -0.1)">
       <defs>
        <path id="DejaVuSans-35" d="M 691 4666 
L 3169 4666 
L 3169 4134 
L 1269 4134 
L 1269 2991 
Q 1406 3038 1543 3061 
Q 1681 3084 1819 3084 
Q 2600 3084 3056 2656 
Q 3513 2228 3513 1497 
Q 3513 744 3044 326 
Q 2575 -91 1722 -91 
Q 1428 -91 1123 -41 
Q 819 9 494 109 
L 494 744 
Q 775 591 1075 516 
Q 1375 441 1709 441 
Q 2250 441 2565 725 
Q 2881 1009 2881 1497 
Q 2881 1984 2565 2268 
Q 2250 2553 1709 2553 
Q 1456 2553 1204 2497 
Q 953 2441 691 2322 
L 691 4666 
z
" transform="scale(0.015625)"/>
       </defs>
       <use xlink:href="#DejaVuSans-35"/>
       <use xlink:href="#DejaVuSans-30" x="63.623047"/>
       <use xlink:href="#DejaVuSans-30" x="127.246094"/>
      </g>
     </g>
    </g>
    <g id="xtick_3">
     <g id="line2d_3">
      <g>
       <use xlink:href="#ma11b20be53" x="214.592188" y="266.112" style="fill: #808080; stroke: #808080; stroke-width: 0.8"/>
      </g>
     </g>
     <g id="text_3">
      <!-- 1000 -->
      <g style="fill: #808080" transform="translate(201.867188 280.710438) scale(0.1 -0.1)">
       <defs>
        <path id="DejaVuSans-31" d="M 794 531 
L 1825 531 
L 1825 4091 
L 703 3866 
L 703 4441 
L 1819 4666 
L 2450 4666 
L 2450 531 
L 3481 531 
L 3481 0 
L 794 0 
L 794 531 
z
" transform="scale(0.015625)"/>
       </defs>
       <use xlink:href="#DejaVuSans-31"/>
       <use xlink:href="#DejaVuSans-30" x="63.623047"/>
       <use xlink:href="#DejaVuSans-30" x="127.246094"/>
       <use xlink:href="#DejaVuSans-30" x="190.869141"/>
      </g>
     </g>
    </g>
    <g id="xtick_4">
     <g id="line2d_4">
      <g>
       <use xlink:href="#ma11b20be53" x="284.342188" y="266.112" style="fill: #808080; stroke: #808080; stroke-width: 0.8"/>
      </g>
     </g>
     <g id="text_4">
      <!-- 1500 -->
      <g style="fill: #808080" transform="translate(271.617188 280.710438) scale(0.1 -0.1)">
       <use xlink:href="#DejaVuSans-31"/>
       <use xlink:href="#DejaVuSans-35" x="63.623047"/>
       <use xlink:href="#DejaVuSans-30" x="127.246094"/>
       <use xlink:href="#DejaVuSans-30" x="190.869141"/>
      </g>
     </g>
    </g>
    <g id="xtick_5">
     <g id="line2d_5">
      <g>
       <use xlink:href="#ma11b20be53" x="354.092188" y="266.112" style="fill: #808080; stroke: #808080; stroke-width: 0.8"/>
      </g>
     </g>
     <g id="text_5">
      <!-- 2000 -->
      <g style="fill: #808080" transform="translate(341.367188 280.710438) scale(0.1 -0.1)">
       <defs>
        <path id="DejaVuSans-32" d="M 1228 531 
L 3431 531 
L 3431 0 
L 469 0 
L 469 531 
Q 828 903 1448 1529 
Q 2069 2156 2228 2338 
Q 2531 2678 2651 2914 
Q 2772 3150 2772 3378 
Q 2772 3750 2511 3984 
Q 2250 4219 1831 4219 
Q 1534 4219 1204 4116 
Q 875 4013 500 3803 
L 500 4441 
Q 881 4594 1212 4672 
Q 1544 4750 1819 4750 
Q 2544 4750 2975 4387 
Q 3406 4025 3406 3419 
Q 3406 3131 3298 2873 
Q 3191 2616 2906 2266 
Q 2828 2175 2409 1742 
Q 1991 1309 1228 531 
z
" transform="scale(0.015625)"/>
       </defs>
       <use xlink:href="#DejaVuSans-32"/>
       <use xlink:href="#DejaVuSans-30" x="63.623047"/>
       <use xlink:href="#DejaVuSans-30" x="127.246094"/>
       <use xlink:href="#DejaVuSans-30" x="190.869141"/>
      </g>
     </g>
    </g>
    <g id="xtick_6">
     <g id="line2d_6">
      <g>
       <use xlink:href="#ma11b20be53" x="423.842188" y="266.112" style="fill: #808080; stroke: #808080; stroke-width: 0.8"/>
      </g>
     </g>
     <g id="text_6">
      <!-- 2500 -->
      <g style="fill: #808080" transform="translate(411.117188 280.710438) scale(0.1 -0.1)">
       <use xlink:href="#DejaVuSans-32"/>
       <use xlink:href="#DejaVuSans-35" x="63.623047"/>
       <use xlink:href="#DejaVuSans-30" x="127.246094"/>
       <use xlink:href="#DejaVuSans-30" x="190.869141"/>
      </g>
     </g>
    </g>
    <g id="xtick_7">
     <g id="line2d_7">
      <g>
       <use xlink:href="#ma11b20be53" x="493.592188" y="266.112" style="fill: #808080; stroke: #808080; stroke-width: 0.8"/>
      </g>
     </g>
     <g id="text_7">
      <!-- 3000 -->
      <g style="fill: #808080" transform="translate(480.867188 280.710438) scale(0.1 -0.1)">
       <defs>
        <path id="DejaVuSans-33" d="M 2597 2516 
Q 3050 2419 3304 2112 
Q 3559 1806 3559 1356 
Q 3559 666 3084 287 
Q 2609 -91 1734 -91 
Q 1441 -91 1130 -33 
Q 819 25 488 141 
L 488 750 
Q 750 597 1062 519 
Q 1375 441 1716 441 
Q 2309 441 2620 675 
Q 2931 909 2931 1356 
Q 2931 1769 2642 2001 
Q 2353 2234 1838 2234 
L 1294 2234 
L 1294 2753 
L 1863 2753 
Q 2328 2753 2575 2939 
Q 2822 3125 2822 3475 
Q 2822 3834 2567 4026 
Q 2313 4219 1838 4219 
Q 1578 4219 1281 4162 
Q 984 4106 628 3988 
L 628 4550 
Q 988 4650 1302 4700 
Q 1616 4750 1894 4750 
Q 2613 4750 3031 4423 
Q 3450 4097 3450 3541 
Q 3450 3153 3228 2886 
Q 3006 2619 2597 2516 
z
" transform="scale(0.015625)"/>
       </defs>
       <use xlink:href="#DejaVuSans-33"/>
       <use xlink:href="#DejaVuSans-30" x="63.623047"/>
       <use xlink:href="#DejaVuSans-30" x="127.246094"/>
       <use xlink:href="#DejaVuSans-30" x="190.869141"/>
      </g>
     </g>
    </g>
    <g id="xtick_8">
     <g id="line2d_8">
      <g>
       <use xlink:href="#ma11b20be53" x="563.342188" y="266.112" style="fill: #808080; stroke: #808080; stroke-width: 0.8"/>
      </g>
     </g>
     <g id="text_8">
      <!-- 3500 -->
      <g style="fill: #808080" transform="translate(550.617188 280.710438) scale(0.1 -0.1)">
       <use xlink:href="#DejaVuSans-33"/>
       <use xlink:href="#DejaVuSans-35" x="63.623047"/>
       <use xlink:href="#DejaVuSans-30" x="127.246094"/>
       <use xlink:href="#DejaVuSans-30" x="190.869141"/>
      </g>
     </g>
    </g>
    <g id="xtick_9">
     <g id="line2d_9">
      <g>
       <use xlink:href="#ma11b20be53" x="633.092188" y="266.112" style="fill: #808080; stroke: #808080; stroke-width: 0.8"/>
      </g>
     </g>
     <g id="text_9">
      <!-- 4000 -->
      <g style="fill: #808080" transform="translate(620.367188 280.710438) scale(0.1 -0.1)">
       <defs>
        <path id="DejaVuSans-34" d="M 2419 4116 
L 825 1625 
L 2419 1625 
L 2419 4116 
z
M 2253 4666 
L 3047 4666 
L 3047 1625 
L 3713 1625 
L 3713 1100 
L 3047 1100 
L 3047 0 
L 2419 0 
L 2419 1100 
L 313 1100 
L 313 1709 
L 2253 4666 
z
" transform="scale(0.015625)"/>
       </defs>
       <use xlink:href="#DejaVuSans-34"/>
       <use xlink:href="#DejaVuSans-30" x="63.623047"/>
       <use xlink:href="#DejaVuSans-30" x="127.246094"/>
       <use xlink:href="#DejaVuSans-30" x="190.869141"/>
      </g>
     </g>
    </g>
   </g>
   <g id="matplotlib.axis_2">
    <g id="ytick_1">
     <g id="line2d_10">
      <defs>
       <path id="m8ade14f280" d="M 0 0 
L -3.5 0 
" style="stroke: #808080; stroke-width: 0.8"/>
      </defs>
      <g>
       <use xlink:href="#m8ade14f280" x="47.192188" y="241.696557" style="fill: #808080; stroke: #808080; stroke-width: 0.8"/>
      </g>
     </g>
     <g id="text_10">
      <!-- −20000 -->
      <g style="fill: #808080" transform="translate(0 245.495775) scale(0.1 -0.1)">
       <defs>
        <path id="DejaVuSans-2212" d="M 678 2272 
L 4684 2272 
L 4684 1741 
L 678 1741 
L 678 2272 
z
" transform="scale(0.015625)"/>
       </defs>
       <use xlink:href="#DejaVuSans-2212"/>
       <use xlink:href="#DejaVuSans-32" x="83.789062"/>
       <use xlink:href="#DejaVuSans-30" x="147.412109"/>
       <use xlink:href="#DejaVuSans-30" x="211.035156"/>
       <use xlink:href="#DejaVuSans-30" x="274.658203"/>
       <use xlink:href="#DejaVuSans-30" x="338.28125"/>
      </g>
     </g>
    </g>
    <g id="ytick_2">
     <g id="line2d_11">
      <g>
       <use xlink:href="#m8ade14f280" x="47.192188" y="192.185315" style="fill: #808080; stroke: #808080; stroke-width: 0.8"/>
      </g>
     </g>
     <g id="text_11">
      <!-- −10000 -->
      <g style="fill: #808080" transform="translate(0 195.984533) scale(0.1 -0.1)">
       <use xlink:href="#DejaVuSans-2212"/>
       <use xlink:href="#DejaVuSans-31" x="83.789062"/>
       <use xlink:href="#DejaVuSans-30" x="147.412109"/>
       <use xlink:href="#DejaVuSans-30" x="211.035156"/>
       <use xlink:href="#DejaVuSans-30" x="274.658203"/>
       <use xlink:href="#DejaVuSans-30" x="338.28125"/>
      </g>
     </g>
    </g>
    <g id="ytick_3">
     <g id="line2d_12">
      <g>
       <use xlink:href="#m8ade14f280" x="47.192188" y="142.674073" style="fill: #808080; stroke: #808080; stroke-width: 0.8"/>
      </g>
     </g>
     <g id="text_12">
      <!-- 0 -->
      <g style="fill: #808080" transform="translate(33.829688 146.473292) scale(0.1 -0.1)">
       <use xlink:href="#DejaVuSans-30"/>
      </g>
     </g>
    </g>
    <g id="ytick_4">
     <g id="line2d_13">
      <g>
       <use xlink:href="#m8ade14f280" x="47.192188" y="93.162831" style="fill: #808080; stroke: #808080; stroke-width: 0.8"/>
      </g>
     </g>
     <g id="text_13">
      <!-- 10000 -->
      <g style="fill: #808080" transform="translate(8.379688 96.96205) scale(0.1 -0.1)">
       <use xlink:href="#DejaVuSans-31"/>
       <use xlink:href="#DejaVuSans-30" x="63.623047"/>
       <use xlink:href="#DejaVuSans-30" x="127.246094"/>
       <use xlink:href="#DejaVuSans-30" x="190.869141"/>
       <use xlink:href="#DejaVuSans-30" x="254.492188"/>
      </g>
     </g>
    </g>
    <g id="ytick_5">
     <g id="line2d_14">
      <g>
       <use xlink:href="#m8ade14f280" x="47.192188" y="43.651589" style="fill: #808080; stroke: #808080; stroke-width: 0.8"/>
      </g>
     </g>
     <g id="text_14">
      <!-- 20000 -->
      <g style="fill: #808080" transform="translate(8.379688 47.450808) scale(0.1 -0.1)">
       <use xlink:href="#DejaVuSans-32"/>
       <use xlink:href="#DejaVuSans-30" x="63.623047"/>
       <use xlink:href="#DejaVuSans-30" x="127.246094"/>
       <use xlink:href="#DejaVuSans-30" x="190.869141"/>
       <use xlink:href="#DejaVuSans-30" x="254.492188"/>
      </g>
     </g>
    </g>
   </g>
   <g id="line2d_15">
    <path d="M 75.092188 142.706861 
L 75.374148 142.643278 
L 75.656109 142.703038 
L 76.22003 142.699782 
L 77.065912 142.652483 
L 77.911793 142.692188 
L 78.757675 142.659009 
L 79.603557 142.686348 
L 81.01336 142.666221 
L 83.269044 142.674245 
L 87.498453 142.58647 
L 87.780414 142.812376 
L 88.062374 142.396469 
L 88.344335 144.247525 
L 88.626296 147.698881 
L 88.908256 148.022353 
L 89.472177 151.372685 
L 90.036099 150.481263 
L 90.60002 155.097525 
L 91.163941 156.142342 
L 92.855704 169.925787 
L 93.137665 171.203598 
L 93.701586 169.582604 
L 93.983547 170.690922 
L 94.265507 171.193627 
L 94.547468 165.126548 
L 95.39335 125.16149 
L 95.67531 120.684708 
L 95.957271 118.882605 
L 96.239231 118.024235 
L 96.521192 118.735363 
L 96.803153 118.974785 
L 97.367074 113.087684 
L 97.649034 112.683507 
L 97.930995 114.101458 
L 98.212956 114.63634 
L 98.494916 114.863141 
L 98.776877 117.034114 
L 99.058837 121.350621 
L 99.904719 141.964371 
L 100.18668 144.365812 
L 100.46864 143.413672 
L 101.032561 139.851275 
L 101.314522 139.679581 
L 101.596483 140.310616 
L 101.878443 140.385795 
L 102.160404 140.238223 
L 102.442364 141.165752 
L 103.006286 145.122482 
L 103.288246 146.003365 
L 103.570207 146.234758 
L 103.852167 146.908679 
L 104.416088 149.327649 
L 104.698049 148.70987 
L 104.98001 147.733587 
L 105.26197 147.773752 
L 105.543931 148.412631 
L 105.825891 149.327049 
L 106.671773 155.608005 
L 106.953734 155.158562 
L 107.235694 156.150367 
L 107.517655 157.745114 
L 107.799615 156.810862 
L 108.081576 153.987377 
L 108.363537 153.151878 
L 108.927458 156.454073 
L 109.209418 157.202243 
L 109.491379 158.797597 
L 110.0553 162.998824 
L 110.337261 163.761249 
L 110.619221 164.954848 
L 112.310985 175.741034 
L 112.592945 175.371503 
L 112.874906 167.928962 
L 113.720788 122.265024 
L 114.002748 116.20568 
L 114.284709 112.652973 
L 114.56667 110.739364 
L 114.84863 111.248268 
L 115.412551 114.618124 
L 115.694512 114.727806 
L 115.976472 114.029615 
L 116.258433 113.837116 
L 116.540394 114.669315 
L 116.822354 115.146042 
L 117.104315 114.542084 
L 117.386275 116.086372 
L 118.232157 134.142713 
L 118.796078 136.936406 
L 119.078039 137.642897 
L 119.64196 135.762605 
L 119.923921 135.977198 
L 120.205881 136.510297 
L 120.487842 137.927763 
L 121.051763 145.383388 
L 121.615684 149.1602 
L 121.897645 152.419668 
L 122.179605 153.934009 
L 122.743527 148.640227 
L 123.025487 148.02768 
L 123.307448 148.662373 
L 123.871369 150.906645 
L 124.153329 150.46082 
L 124.717251 143.842853 
L 124.999211 144.075793 
L 125.281172 145.565749 
L 125.563132 146.314406 
L 125.845093 147.729049 
L 126.127054 149.779465 
L 126.409014 150.680301 
L 126.690975 151.103333 
L 127.818817 158.390566 
L 128.100778 160.655195 
L 128.382738 161.200636 
L 128.664699 161.284072 
L 129.22862 163.416618 
L 129.510581 162.951555 
L 130.074502 163.948867 
L 130.356462 157.971209 
L 131.202344 116.00398 
L 131.484305 110.730157 
L 131.766265 107.854952 
L 132.048226 107.410802 
L 132.612147 111.744127 
L 132.894108 112.775969 
L 133.176068 115.022391 
L 133.739989 122.199174 
L 134.02195 122.593162 
L 134.303911 123.673394 
L 135.149792 136.995919 
L 135.713714 134.399224 
L 135.995674 136.087242 
L 136.277635 139.547091 
L 136.559595 141.168695 
L 136.841556 139.422933 
L 137.123516 136.108895 
L 137.405477 134.221232 
L 137.687438 135.455078 
L 138.251359 141.277904 
L 139.097241 146.097316 
L 139.379201 146.522424 
L 139.661162 146.428652 
L 140.225083 145.069626 
L 140.507043 146.208745 
L 141.070965 152.396894 
L 141.634886 153.525852 
L 141.916846 155.132179 
L 142.198807 155.164566 
L 142.762728 151.640768 
L 143.044689 151.68192 
L 143.326649 152.267041 
L 143.60861 153.727342 
L 144.454492 163.298031 
L 145.018413 167.482556 
L 145.300373 169.863697 
L 145.582334 170.191754 
L 145.864295 166.448318 
L 146.146255 157.508824 
L 146.992137 117.593281 
L 147.274098 115.447474 
L 147.556058 116.441792 
L 147.838019 114.124847 
L 148.119979 109.667054 
L 148.40194 107.958218 
L 148.6839 108.460658 
L 149.247822 107.214605 
L 149.529782 109.384421 
L 150.657625 124.987834 
L 151.221546 137.391863 
L 151.503506 139.958936 
L 151.785467 138.88177 
L 152.349388 134.297162 
L 152.631349 132.794282 
L 152.913309 131.929824 
L 153.19527 132.240593 
L 154.041152 134.692668 
L 154.887033 139.678722 
L 155.732915 150.544673 
L 156.014876 150.931156 
L 156.296836 151.881075 
L 156.860757 155.936611 
L 157.142718 156.477912 
L 157.424679 156.384894 
L 157.706639 157.515158 
L 158.27056 162.123977 
L 158.552521 163.147466 
L 159.680363 170.08549 
L 160.244285 176.425754 
L 160.526245 175.45547 
L 161.090166 168.264224 
L 161.372127 158.511691 
L 161.936048 125.617103 
L 162.218009 116.531927 
L 162.499969 112.744189 
L 162.78193 111.183324 
L 163.06389 111.683807 
L 163.345851 112.950395 
L 163.627812 112.703133 
L 164.191733 109.952308 
L 164.473693 109.324205 
L 164.755654 109.40282 
L 165.037614 110.354827 
L 165.319575 111.77136 
L 165.601536 114.114501 
L 165.883496 119.297646 
L 166.447417 134.188688 
L 166.729378 136.867 
L 167.011339 136.016348 
L 167.57526 132.95609 
L 167.85722 132.655357 
L 168.139181 133.943829 
L 168.703102 137.029547 
L 168.985063 138.743286 
L 169.548984 146.06615 
L 169.830944 146.495929 
L 170.112905 145.644102 
L 170.394866 146.948767 
L 170.676826 149.844345 
L 170.958787 151.553201 
L 171.240747 151.78814 
L 171.522708 152.582145 
L 172.086629 155.882659 
L 172.36859 156.513971 
L 172.65055 158.089615 
L 172.932511 160.537815 
L 173.214471 161.125476 
L 173.496432 159.728336 
L 173.778393 159.964576 
L 174.342314 164.399098 
L 174.624274 164.790991 
L 174.906235 166.496314 
L 175.188196 169.483703 
L 175.470156 171.287488 
L 175.752117 171.996833 
L 176.034077 172.188655 
L 176.316038 168.380487 
L 176.879959 142.270632 
L 177.44388 118.980784 
L 177.725841 113.67347 
L 178.007801 111.959038 
L 178.571723 110.383128 
L 178.853683 111.137365 
L 179.135644 112.953964 
L 179.417604 112.11088 
L 179.699565 110.021862 
L 179.981526 111.818946 
L 180.263486 115.070844 
L 180.545447 113.2858 
L 180.827407 109.674441 
L 181.109368 113.569893 
L 181.673289 133.979298 
L 181.95525 136.617366 
L 182.23721 136.421126 
L 182.519171 137.440102 
L 182.801131 139.067633 
L 183.083092 139.200955 
L 183.365053 138.441827 
L 183.647013 138.696172 
L 184.492895 142.504568 
L 185.056816 144.619564 
L 185.902698 151.883773 
L 186.184658 152.3694 
L 186.466619 153.508191 
L 186.74858 155.546023 
L 187.03054 156.757701 
L 187.312501 157.163205 
L 187.876422 159.000854 
L 188.158383 159.16782 
L 188.440343 158.965959 
L 188.722304 159.353421 
L 189.286225 161.840108 
L 189.850146 164.998985 
L 190.696028 171.465044 
L 190.977988 172.483097 
L 191.259949 174.709561 
L 192.105831 187.928441 
L 192.387791 186.040982 
L 192.669752 176.752407 
L 193.515634 130.679146 
L 194.079555 116.366235 
L 194.361515 114.310679 
L 194.643476 115.088123 
L 194.925437 114.512519 
L 195.771318 104.198105 
L 196.053279 104.131295 
L 196.33524 105.16581 
L 196.6172 105.765374 
L 196.899161 107.148783 
L 197.181121 113.176612 
L 197.745042 133.198404 
L 198.027003 137.403024 
L 198.308964 138.174233 
L 198.590924 137.947798 
L 200.000727 133.310843 
L 200.282688 133.022774 
L 201.12857 135.767891 
L 201.41053 135.826137 
L 201.692491 136.771086 
L 202.538372 144.348479 
L 202.820333 144.474491 
L 203.102294 145.366921 
L 203.948175 153.188997 
L 205.357978 157.658246 
L 205.639939 157.945108 
L 205.921899 158.562652 
L 206.20386 159.557088 
L 206.485821 161.250466 
L 207.049742 165.766265 
L 207.331702 166.411456 
L 207.613663 167.57225 
L 208.177584 172.770309 
L 208.741505 175.81772 
L 209.023466 175.037286 
L 209.305427 166.848223 
L 210.433269 109.840202 
L 210.715229 107.125654 
L 211.279151 105.384997 
L 211.561111 107.812322 
L 211.843072 113.354633 
L 212.125032 115.034664 
L 212.406993 111.838413 
L 212.688954 110.765805 
L 212.970914 112.569837 
L 213.534835 111.249223 
L 213.816796 118.264746 
L 214.380717 137.656076 
L 214.662678 138.271009 
L 215.226599 135.401727 
L 215.508559 134.311021 
L 215.79052 133.822111 
L 216.072481 134.341831 
L 216.354441 135.591755 
L 218.046205 146.824896 
L 218.610126 147.373325 
L 218.892086 149.589987 
L 219.174047 153.058928 
L 219.456008 154.10493 
L 219.737968 152.013778 
L 220.019929 150.778077 
L 220.58385 154.113611 
L 221.147771 153.285507 
L 221.429732 154.557028 
L 221.993653 157.70015 
L 222.557574 160.224437 
L 223.121495 161.911274 
L 223.967377 168.309278 
L 224.249338 171.613192 
L 224.813259 179.960467 
L 225.095219 181.564958 
L 225.37718 181.58426 
L 225.659141 176.919707 
L 225.941101 162.711268 
L 226.505022 122.709669 
L 226.786983 112.178824 
L 227.068943 107.571632 
L 227.350904 104.993057 
L 227.632865 103.72851 
L 227.914825 104.378699 
L 228.196786 106.058259 
L 228.478746 106.740732 
L 228.760707 106.029575 
L 229.042668 106.144068 
L 229.888549 112.331094 
L 230.17051 117.020304 
L 231.016392 143.049599 
L 231.298352 145.676067 
L 231.580313 144.48697 
L 232.144234 136.849295 
L 232.426195 136.258001 
L 232.708155 136.328691 
L 232.990116 135.610566 
L 233.272076 136.931183 
L 233.835998 145.177155 
L 234.399919 148.257116 
L 234.96384 153.360959 
L 235.2458 152.115806 
L 235.527761 149.784689 
L 235.809722 149.48172 
L 236.091682 150.785232 
L 236.373643 151.155416 
L 236.655603 151.014042 
L 236.937564 153.153983 
L 237.219525 157.06585 
L 237.501485 159.408663 
L 237.783446 159.918919 
L 238.065406 161.174026 
L 238.629327 165.031072 
L 239.475209 168.644736 
L 239.75717 168.215824 
L 240.03913 168.852605 
L 240.321091 171.048211 
L 240.603052 172.334837 
L 240.885012 171.837763 
L 241.166973 172.323282 
L 241.730894 180.082769 
L 242.012855 180.424217 
L 242.294815 173.296084 
L 243.422657 119.153858 
L 243.986579 107.012655 
L 244.268539 106.789435 
L 244.5505 107.68526 
L 244.83246 105.357093 
L 245.114421 101.627599 
L 245.396382 100.196073 
L 245.678342 100.375972 
L 245.960303 100.2673 
L 246.242263 100.471211 
L 246.524224 102.188969 
L 246.806184 106.268933 
L 247.088145 114.033273 
L 247.652066 135.437621 
L 247.934027 140.593346 
L 248.215987 140.207287 
L 248.497948 138.368159 
L 248.779909 138.410848 
L 249.061869 139.048653 
L 249.34383 138.625841 
L 249.62579 139.668407 
L 250.189712 147.142036 
L 250.471672 147.539728 
L 250.753633 149.298403 
L 251.035593 154.272109 
L 251.317554 156.724673 
L 252.163436 147.21179 
L 252.445396 147.469212 
L 252.727357 146.735944 
L 253.009317 146.714728 
L 253.291278 149.637696 
L 253.573239 153.9536 
L 253.855199 156.535203 
L 254.13716 157.094954 
L 254.41912 157.944989 
L 254.701081 159.583354 
L 254.983041 159.866494 
L 255.265002 158.378597 
L 255.546963 157.601098 
L 255.828923 158.034465 
L 256.392844 156.71288 
L 256.674805 159.235497 
L 257.238726 167.647957 
L 257.520687 170.013949 
L 258.084608 179.240197 
L 258.648529 181.790146 
L 258.93049 186.073972 
L 259.21245 187.547166 
L 259.494411 178.06375 
L 260.340293 126.766289 
L 260.904214 106.268362 
L 261.186174 102.710032 
L 262.314017 100.692312 
L 262.877938 101.293555 
L 263.441859 99.811744 
L 263.72382 101.451323 
L 264.00578 107.566915 
L 264.851662 139.190153 
L 265.133623 142.616266 
L 265.697544 138.560672 
L 265.979504 139.867249 
L 266.261465 142.867301 
L 266.543425 144.445251 
L 266.825386 143.838761 
L 267.389307 140.489511 
L 267.671268 140.530331 
L 267.953228 142.598666 
L 268.79911 151.8039 
L 269.081071 152.231919 
L 269.363031 152.322468 
L 270.490874 155.289666 
L 270.772834 156.942842 
L 271.054795 157.887919 
L 271.336755 158.294377 
L 271.900677 160.325623 
L 272.182637 160.60671 
L 272.464598 161.119415 
L 273.028519 164.496186 
L 273.59244 165.473969 
L 275.284204 174.596501 
L 276.412046 186.629458 
L 276.694007 182.587181 
L 276.975967 169.074987 
L 277.539888 131.465547 
L 278.10381 112.089748 
L 278.38577 105.535278 
L 278.667731 101.92956 
L 278.949691 100.937268 
L 279.513612 100.552451 
L 280.077534 98.684184 
L 280.359494 98.646057 
L 280.641455 98.758487 
L 280.923415 98.277831 
L 281.205376 100.882548 
L 281.487337 110.824116 
L 282.051258 137.402557 
L 282.333218 143.351559 
L 282.615179 144.551051 
L 283.461061 141.072678 
L 283.743021 141.218118 
L 284.024982 140.871111 
L 284.306942 140.914139 
L 285.434785 147.231681 
L 285.998706 148.766865 
L 286.280667 148.971055 
L 286.562627 148.838887 
L 286.844588 148.180955 
L 287.126548 147.816213 
L 287.690469 149.309576 
L 287.97243 148.922541 
L 288.254391 149.250988 
L 288.536351 151.383475 
L 288.818312 152.563937 
L 289.382233 149.821149 
L 289.664194 152.77898 
L 290.228115 161.479008 
L 290.510075 162.538837 
L 290.792036 163.091868 
L 291.355957 165.762936 
L 291.919878 167.820627 
L 292.201839 169.028985 
L 292.76576 174.565488 
L 293.329681 177.106102 
L 293.611642 179.486378 
L 293.893602 178.453749 
L 294.175563 168.151575 
L 295.303405 103.298287 
L 295.585366 95.127581 
L 295.867326 92.947432 
L 296.713208 96.051472 
L 297.277129 102.550926 
L 298.123011 107.606736 
L 298.404972 110.662855 
L 298.686932 116.577879 
L 299.250853 134.475946 
L 299.532814 137.474031 
L 299.814775 137.851174 
L 300.096735 139.216101 
L 300.378696 140.028773 
L 300.942617 136.923251 
L 301.224578 137.271047 
L 302.35242 146.218629 
L 302.916341 155.261577 
L 303.198302 156.740724 
L 303.480262 156.980176 
L 303.762223 157.6811 
L 304.044183 156.323073 
L 304.326144 152.684282 
L 304.608105 151.377316 
L 304.890065 153.256052 
L 305.172026 153.875003 
L 305.453986 152.404374 
L 305.735947 152.982176 
L 306.299868 160.982946 
L 306.581829 162.343336 
L 306.863789 163.007106 
L 307.42771 170.340985 
L 307.709671 171.101718 
L 307.991632 168.936297 
L 308.273592 169.111294 
L 308.837513 175.518994 
L 309.119474 177.298494 
L 309.683395 182.888592 
L 309.965356 183.664103 
L 310.247316 180.83689 
L 310.529277 171.528331 
L 311.657119 105.384427 
L 311.93908 94.148805 
L 312.22104 89.480795 
L 313.348883 96.762242 
L 313.630843 100.175509 
L 313.912804 100.820703 
L 314.194765 99.421415 
L 314.476725 99.871419 
L 314.758686 103.504447 
L 315.040646 110.87962 
L 315.886528 143.280814 
L 316.168489 144.829669 
L 316.450449 144.970278 
L 316.73241 145.702813 
L 317.01437 146.020545 
L 317.296331 145.978176 
L 317.578292 145.636383 
L 317.860252 144.474117 
L 318.142213 144.417904 
L 318.706134 149.654208 
L 319.270055 147.327364 
L 319.833976 153.338494 
L 320.115937 152.946216 
L 320.397897 153.462089 
L 320.961819 162.782285 
L 321.243779 163.69107 
L 321.52574 164.064873 
L 322.089661 167.647987 
L 322.371622 166.778324 
L 322.653582 165.48452 
L 322.935543 165.950047 
L 323.499464 171.837185 
L 324.627306 182.173699 
L 325.191227 186.771526 
L 326.037109 197.055206 
L 326.31907 193.819662 
L 326.60103 183.187088 
L 327.728873 117.533433 
L 328.292794 100.411596 
L 328.574754 95.73445 
L 329.138676 90.285138 
L 329.420636 86.142214 
L 330.266518 68.64983 
L 330.548479 67.100111 
L 330.830439 68.876676 
L 331.1124 74.446516 
L 331.39436 86.118638 
L 331.958281 117.697971 
L 332.240242 126.564328 
L 332.804163 135.909102 
L 333.086124 138.080611 
L 333.368084 138.655265 
L 333.650045 140.061905 
L 335.90573 160.420363 
L 337.033572 166.16729 
L 337.315533 166.61197 
L 337.597493 168.079137 
L 337.879454 170.238366 
L 338.443375 171.562957 
L 338.725336 174.794937 
L 339.289257 184.380545 
L 339.853178 189.094916 
L 340.417099 197.411107 
L 340.98102 210.183232 
L 341.262981 213.620207 
L 341.544941 213.057698 
L 341.826902 209.746437 
L 342.108863 201.689744 
L 342.672784 163.039309 
L 343.236705 127.510305 
L 344.646508 71.449182 
L 345.210429 60.212474 
L 345.77435 45.235074 
L 346.056311 44.604331 
L 346.338271 49.31631 
L 346.620232 56.350406 
L 346.902193 67.287949 
L 347.748074 121.175128 
L 348.030035 127.571751 
L 348.593956 133.59094 
L 349.157877 140.637473 
L 349.721798 144.583218 
L 350.56768 152.331419 
L 351.131601 154.357031 
L 351.695523 158.572233 
L 351.977483 161.460926 
L 352.541404 171.547914 
L 353.105325 181.800889 
L 353.669247 188.375383 
L 354.233168 191.914006 
L 354.515128 193.890264 
L 355.07905 199.989868 
L 355.36101 202.126268 
L 355.642971 205.623731 
L 356.488852 222.692651 
L 357.052774 229.377673 
L 357.334734 227.026857 
L 357.616695 217.306624 
L 358.180616 184.389071 
L 359.308458 109.784177 
L 359.87238 84.358226 
L 361.564143 37.243769 
L 361.846104 30.378763 
L 362.128064 29.693776 
L 362.410025 39.697218 
L 362.973946 72.109862 
L 363.537867 94.403846 
L 364.101788 117.697151 
L 364.665709 125.605167 
L 364.94767 132.03995 
L 365.229631 135.355082 
L 365.511591 135.216301 
L 365.793552 136.699395 
L 366.357473 143.664713 
L 366.639434 146.659896 
L 367.485315 160.216177 
L 367.767276 163.052433 
L 368.613158 178.229389 
L 368.895118 179.059838 
L 369.177079 178.610885 
L 369.459039 181.179832 
L 371.150803 219.132677 
L 371.714724 222.491381 
L 372.278645 231.614073 
L 372.560606 230.081079 
L 372.842566 220.378494 
L 373.406488 183.344245 
L 374.252369 119.377759 
L 375.944133 38.149466 
L 376.508054 17.104176 
L 376.790015 12.096 
L 377.071975 12.613945 
L 377.353936 20.834319 
L 377.917857 55.431133 
L 378.481778 89.07174 
L 379.32766 125.553779 
L 379.891581 138.990849 
L 380.737463 148.271061 
L 381.301384 157.600986 
L 381.865305 164.530726 
L 382.147266 168.355914 
L 383.275108 176.544836 
L 383.557069 176.095286 
L 383.839029 175.886105 
L 384.402951 181.000368 
L 384.966872 185.816281 
L 385.530793 194.343309 
L 386.094714 207.547562 
L 386.658635 222.124528 
L 387.786478 241.405887 
L 388.068438 238.777984 
L 388.350399 230.323378 
L 388.632359 215.604136 
L 389.19628 162.094631 
L 389.760202 111.533688 
L 390.324123 76.177825 
L 390.888044 37.014384 
L 391.170005 27.369383 
L 391.733926 16.731575 
L 392.015886 13.172737 
L 392.297847 13.131714 
L 392.579808 17.480906 
L 392.861768 26.869519 
L 393.425689 60.241742 
L 393.98961 93.855268 
L 394.835492 125.871603 
L 395.399413 141.641741 
L 395.681374 146.514888 
L 396.527256 155.205826 
L 397.091177 165.826369 
L 397.373137 168.834279 
L 398.50098 174.542211 
L 398.78294 174.424655 
L 399.064901 174.584744 
L 399.346862 176.121806 
L 399.628822 180.117208 
L 400.192743 190.021671 
L 400.756665 195.252227 
L 402.166467 215.350147 
L 403.012349 233.7178 
L 403.57627 248.776443 
L 403.858231 250.8424 
L 404.140192 242.527938 
L 404.422152 221.691618 
L 405.831955 81.360665 
L 406.395876 51.911365 
L 406.959797 33.107409 
L 407.241758 27.508647 
L 407.523719 25.949704 
L 408.08764 24.72034 
L 408.3696 26.085552 
L 408.651561 32.229683 
L 409.215482 59.272002 
L 409.779403 87.17835 
L 410.625285 115.000044 
L 411.471167 129.64578 
L 412.317049 141.316344 
L 412.88097 155.180514 
L 413.16293 158.605257 
L 414.008812 176.499545 
L 414.290773 176.544314 
L 414.572733 178.098925 
L 414.854694 180.770793 
L 415.136654 181.059029 
L 415.418615 180.86894 
L 415.982536 185.186129 
L 416.546457 183.182488 
L 416.828418 186.333954 
L 417.392339 196.432428 
L 417.95626 202.860545 
L 418.520181 211.261804 
L 419.084103 217.782815 
L 419.648024 227.381953 
L 420.211945 237.553536 
L 420.493906 239.050789 
L 420.775866 235.635788 
L 421.057827 222.504125 
L 422.74959 69.71015 
L 423.313511 41.27669 
L 423.595472 32.816245 
L 423.877433 27.91705 
L 424.159393 28.104404 
L 424.723314 34.850592 
L 425.005275 36.58607 
L 425.287236 41.080134 
L 425.851157 64.761684 
L 426.697038 97.371803 
L 426.978999 102.325733 
L 427.26096 103.823094 
L 427.54292 108.402265 
L 428.106841 126.885141 
L 428.952723 140.257089 
L 429.234684 147.187428 
L 429.516644 151.121693 
L 429.798605 153.242389 
L 430.644487 163.500008 
L 430.926447 166.020196 
L 431.490368 175.823325 
L 431.772329 177.858908 
L 432.33625 179.920982 
L 432.618211 179.937151 
L 432.900171 178.694175 
L 433.182132 178.106203 
L 433.464093 178.624021 
L 433.746053 179.549124 
L 434.028014 181.111888 
L 434.591935 187.012065 
L 435.155856 192.916554 
L 435.437817 194.884919 
L 436.001738 202.424087 
L 436.565659 210.831594 
L 437.12958 221.964959 
L 437.411541 225.896386 
L 437.975462 239.089323 
L 438.257422 239.683354 
L 438.539383 230.458179 
L 438.821344 213.506734 
L 439.385265 156.623852 
L 439.949186 102.616708 
L 440.795068 43.724272 
L 441.358989 31.784974 
L 441.64095 27.637764 
L 441.92291 27.063579 
L 442.486831 30.091345 
L 442.768792 34.111312 
L 443.332713 59.011209 
L 444.178595 98.764188 
L 444.742516 114.563683 
L 445.306437 122.682167 
L 445.588398 125.298845 
L 445.870358 125.812151 
L 446.152319 125.014998 
L 446.434279 126.368353 
L 448.689964 169.364106 
L 449.535846 174.803723 
L 449.817806 175.262537 
L 450.099767 174.426222 
L 450.381728 174.264914 
L 450.945649 174.940513 
L 451.227609 177.172317 
L 451.791531 189.208606 
L 452.073491 191.424384 
L 452.355452 191.706045 
L 452.637412 195.1946 
L 452.919373 201.444813 
L 453.201334 204.870453 
L 453.483294 204.209414 
L 453.765255 204.97084 
L 455.175058 231.468993 
L 455.457018 233.321097 
L 455.738979 224.517337 
L 456.020939 202.384907 
L 457.148782 80.533492 
L 457.712703 50.175179 
L 458.276624 38.592699 
L 458.558585 36.107257 
L 459.122506 36.943145 
L 459.404466 36.476315 
L 459.686427 39.542827 
L 460.250348 59.485293 
L 461.378191 108.361522 
L 462.224072 124.617921 
L 462.506033 124.646792 
L 462.787993 126.467153 
L 463.069954 130.347217 
L 463.351915 131.987495 
L 463.633875 132.532927 
L 463.915836 134.852749 
L 464.197796 136.021186 
L 464.479757 135.030503 
L 464.761718 137.518836 
L 465.325639 151.716212 
L 465.607599 156.699338 
L 466.735442 186.854966 
L 467.863284 198.437691 
L 468.427205 201.356359 
L 469.273087 207.318904 
L 469.555048 212.646419 
L 470.118969 226.752693 
L 470.96485 240.38318 
L 471.246811 242.29141 
L 471.528772 236.421483 
L 471.810732 217.960843 
L 472.938575 97.508434 
L 473.502496 64.352982 
L 473.784456 55.004891 
L 474.348377 48.106799 
L 474.630338 45.553969 
L 474.912299 45.893867 
L 475.75818 60.821384 
L 476.040141 67.091614 
L 476.886023 100.742391 
L 478.013865 116.842107 
L 478.295826 119.854918 
L 478.577786 120.468754 
L 478.859747 120.135576 
L 479.141707 120.461284 
L 479.423668 122.627167 
L 479.987589 131.410495 
L 480.26955 133.134671 
L 480.55151 132.763776 
L 480.833471 135.096154 
L 481.961313 165.829598 
L 483.089156 205.679268 
L 484.216998 231.584584 
L 484.780919 238.556973 
L 486.190722 244.665348 
L 486.472683 239.944146 
L 486.754643 222.746952 
L 487.882486 104.454431 
L 488.446407 79.025275 
L 489.010328 62.07354 
L 489.292289 58.595578 
L 489.574249 57.026075 
L 489.85621 54.726442 
L 490.13817 53.5891 
L 490.420131 55.4183 
L 490.984052 62.062849 
L 491.266013 70.668011 
L 491.829934 96.424385 
L 492.393855 111.31079 
L 492.675816 117.425348 
L 492.957776 120.33897 
L 493.239737 119.848788 
L 493.521697 118.911629 
L 493.803658 119.176814 
L 494.085619 120.415893 
L 494.64954 123.895678 
L 494.9315 126.845049 
L 495.777382 144.88337 
L 496.059343 147.559072 
L 496.623264 161.641695 
L 496.905224 164.281886 
L 497.187185 165.240457 
L 498.596988 192.685732 
L 499.160909 207.954077 
L 500.288751 233.869508 
L 500.852673 250.410091 
L 501.134633 254.016 
L 501.416594 247.104754 
L 501.698554 226.977007 
L 502.826397 105.329517 
L 503.390318 77.355583 
L 503.954239 58.527316 
L 504.2362 55.639591 
L 504.51816 56.548376 
L 504.800121 58.223703 
L 505.082081 61.235986 
L 505.927963 81.548081 
L 506.491884 100.540646 
L 506.773845 110.233105 
L 507.055805 114.810387 
L 507.619727 118.60095 
L 508.183648 123.284304 
L 509.02953 128.425623 
L 510.157372 141.211273 
L 510.721293 150.542816 
L 511.003254 153.017131 
L 513.540899 185.787929 
L 514.10482 198.515236 
L 514.950702 219.54719 
L 515.514623 238.991893 
L 515.796584 244.061667 
L 516.078544 238.25299 
L 516.360505 218.445234 
L 517.206387 131.346456 
L 517.770308 101.825315 
L 518.334229 82.203811 
L 518.61619 77.280919 
L 518.89815 77.344161 
L 519.180111 77.622464 
L 519.462071 77.278195 
L 520.025992 80.485791 
L 520.307953 81.130741 
L 520.589914 85.093857 
L 521.435795 111.571565 
L 521.999717 121.517976 
L 522.845598 127.297522 
L 523.127559 128.115156 
L 523.409519 127.760872 
L 523.69148 128.558053 
L 524.255401 132.385611 
L 525.665204 147.944503 
L 525.947165 148.744423 
L 526.229125 146.35423 
L 526.511086 145.923696 
L 527.075007 154.449131 
L 527.920889 167.2449 
L 528.48481 174.604376 
L 529.894613 197.735838 
L 530.458534 213.487816 
L 531.022455 227.176739 
L 531.304416 229.228387 
L 531.586376 221.679459 
L 531.868337 199.272883 
L 532.432258 139.691824 
L 532.996179 106.480672 
L 533.560101 81.322368 
L 533.842061 73.569517 
L 534.124022 70.003535 
L 534.405982 68.151495 
L 534.687943 67.450425 
L 534.969904 69.552532 
L 535.815785 84.584708 
L 536.379706 100.198248 
L 536.943628 114.408501 
L 537.507549 118.634502 
L 537.789509 120.388241 
L 538.353431 121.572629 
L 539.199312 127.901158 
L 539.481273 128.99929 
L 540.327155 136.025208 
L 540.609115 137.568159 
L 541.173036 142.751271 
L 541.736958 150.748505 
L 542.582839 164.240983 
L 543.146761 170.314823 
L 543.992642 183.661496 
L 544.556563 190.652211 
L 544.838524 192.241391 
L 545.120485 194.557296 
L 545.684406 204.981975 
L 546.248327 209.822004 
L 546.530288 208.320419 
L 546.812248 195.929787 
L 547.65813 135.210113 
L 548.504012 101.485024 
L 548.785972 92.777099 
L 549.067933 88.156371 
L 549.349893 88.616687 
L 549.631854 90.297152 
L 549.913815 90.242202 
L 550.195775 90.617624 
L 551.041657 96.39449 
L 551.605578 107.410188 
L 552.169499 118.341008 
L 552.45146 122.090238 
L 552.73342 123.842466 
L 553.015381 124.159745 
L 553.297342 123.474873 
L 553.579302 122.14603 
L 553.861263 122.239096 
L 554.143223 124.300754 
L 554.425184 124.965605 
L 554.707145 124.574254 
L 554.989105 129.687155 
L 555.553026 150.811008 
L 555.834987 153.101689 
L 556.116947 154.034586 
L 556.680869 160.553197 
L 556.962829 160.41265 
L 557.24479 161.388383 
L 557.808711 166.984061 
L 558.090672 167.401136 
L 558.372632 168.769909 
L 559.782435 183.215186 
L 560.064396 187.718124 
L 560.910277 205.111911 
L 561.192238 208.070837 
L 561.474199 207.32912 
L 561.756159 197.747537 
L 562.884002 128.930713 
L 563.447923 111.305945 
L 564.011844 100.024067 
L 565.139686 94.497958 
L 565.421647 95.330459 
L 565.703607 95.172 
L 565.985568 96.580675 
L 567.395371 125.893007 
L 567.677332 127.406693 
L 567.959292 128.009909 
L 568.523213 131.321949 
L 568.805174 131.59334 
L 569.087134 132.961214 
L 569.651056 139.894107 
L 570.214977 142.98187 
L 570.778898 147.766996 
L 571.060859 148.298911 
L 571.342819 150.539548 
L 571.90674 160.041177 
L 572.188701 160.516625 
L 572.470661 160.30082 
L 573.034583 165.372827 
L 573.316543 164.624583 
L 573.598504 162.733323 
L 573.880464 163.728622 
L 574.444386 170.094385 
L 574.726346 172.309931 
L 575.008307 176.512609 
L 575.572228 189.770883 
L 576.41811 201.197945 
L 576.70007 198.34123 
L 577.263991 167.271591 
L 577.827913 140.135174 
L 578.391834 120.487543 
L 579.237716 101.866957 
L 579.519676 99.075997 
L 580.083597 96.754762 
L 580.365558 97.074016 
L 581.4934 109.062056 
L 582.057321 124.435879 
L 582.339282 125.921488 
L 582.621243 124.008325 
L 582.903203 123.935702 
L 583.467124 129.77792 
L 583.749085 131.006644 
L 584.031046 131.722321 
L 585.158888 137.883543 
L 585.440848 139.068917 
L 585.722809 140.824394 
L 586.28673 147.027839 
L 586.850651 152.771755 
L 587.414573 155.012905 
L 589.106336 167.60724 
L 589.670257 176.022305 
L 590.516139 183.37314 
L 591.643981 198.304202 
L 591.925942 200.405357 
L 592.207903 197.942127 
L 592.489863 187.686395 
L 593.335745 142.114548 
L 594.463587 104.492621 
L 594.745548 99.614429 
L 595.027508 97.55411 
L 595.59143 101.504802 
L 595.87339 100.893648 
L 596.155351 101.074864 
L 598.129075 127.571525 
L 599.820838 132.954133 
L 600.66672 134.38413 
L 601.794562 141.564935 
L 602.076523 144.072899 
L 602.358484 145.000729 
L 602.640444 144.537666 
L 602.922405 146.439731 
L 603.204365 151.05033 
L 603.486326 153.180642 
L 603.768287 151.553248 
L 604.050247 151.667847 
L 604.614168 161.583238 
L 605.178089 164.289273 
L 605.742011 171.159636 
L 606.023971 170.375 
L 606.305932 168.715113 
L 606.587892 170.748932 
L 607.151814 178.283369 
L 607.715735 182.99135 
L 607.997695 179.362902 
L 609.407498 121.9924 
L 609.971419 110.894544 
L 610.535341 104.878894 
L 610.817301 102.92363 
L 611.099262 102.27995 
L 611.381222 102.669679 
L 611.663183 103.961934 
L 611.945144 106.03464 
L 612.227104 109.589737 
L 613.072986 125.520307 
L 613.354946 127.086313 
L 613.918868 127.8222 
L 614.200828 128.577403 
L 614.764749 131.700726 
L 615.04671 130.870637 
L 615.328671 128.79746 
L 615.610631 128.424558 
L 616.174552 130.738706 
L 616.456513 132.679167 
L 617.020434 139.968946 
L 617.584355 143.52233 
L 618.148276 148.593907 
L 618.430237 149.373771 
L 618.712198 150.861303 
L 619.276119 156.263416 
L 619.558079 158.298069 
L 620.122001 164.129918 
L 620.685922 167.65901 
L 621.531803 177.453604 
L 622.095725 182.711959 
L 622.659646 188.900814 
L 622.941606 187.231725 
L 623.223567 177.330163 
L 623.787488 151.9338 
L 624.63337 131.659992 
L 625.197291 125.555248 
L 626.043173 116.155715 
L 626.325133 116.055154 
L 626.889055 119.186538 
L 627.171015 119.053238 
L 627.452976 121.213323 
L 628.298858 136.653706 
L 628.862779 140.37522 
L 629.144739 141.488271 
L 629.70866 141.56477 
L 629.990621 141.195714 
L 630.272582 139.514149 
L 630.836503 131.039679 
L 631.118463 129.84264 
L 631.964345 137.134961 
L 632.246306 138.359618 
L 633.092188 149.818956 
L 633.092188 149.818956 
" clip-path="url(#pe04a159361)" style="fill: none; stroke: #1f77b4; stroke-width: 1.5; stroke-linecap: square"/>
   </g>
   <g id="patch_3">
    <path d="M 47.192188 266.112 
L 47.192188 0 
" style="fill: none; stroke: #808080; stroke-width: 0.8; stroke-linejoin: miter; stroke-linecap: square"/>
   </g>
   <g id="patch_4">
    <path d="M 660.992188 266.112 
L 660.992188 0 
" style="fill: none; stroke: #000000; stroke-width: 0.8; stroke-linejoin: miter; stroke-linecap: square"/>
   </g>
   <g id="patch_5">
    <path d="M 47.192188 266.112 
L 660.992188 266.112 
" style="fill: none; stroke: #808080; stroke-width: 0.8; stroke-linejoin: miter; stroke-linecap: square"/>
   </g>
   <g id="patch_6">
    <path d="M 47.192188 0 
L 660.992188 0 
" style="fill: none; stroke: #000000; stroke-width: 0.8; stroke-linejoin: miter; stroke-linecap: square"/>
   </g>
  </g>
 </g>
 <defs>
  <clipPath id="pe04a159361">
   <rect x="47.192188" y="0" width="613.8" height="266.112"/>
  </clipPath>
 </defs>
</svg>
