<?xml version="1.0" encoding="utf-8" standalone="no"?>
<!DOCTYPE svg PUBLIC "-//W3C//DTD SVG 1.1//EN"
  "http://www.w3.org/Graphics/SVG/1.1/DTD/svg11.dtd">
<svg xmlns:xlink="http://www.w3.org/1999/xlink" width="660.992188pt" height="282.790125pt" viewBox="0 0 660.992188 282.790125" xmlns="http://www.w3.org/2000/svg" version="1.1">
 <metadata>
  <rdf:RDF xmlns:dc="http://purl.org/dc/elements/1.1/" xmlns:cc="http://creativecommons.org/ns#" xmlns:rdf="http://www.w3.org/1999/02/22-rdf-syntax-ns#">
   <cc:Work>
    <dc:type rdf:resource="http://purl.org/dc/dcmitype/StillImage"/>
    <dc:date>2023-03-06T21:32:55.813331</dc:date>
    <dc:format>image/svg+xml</dc:format>
    <dc:creator>
     <cc:Agent>
      <dc:title>Matplotlib v3.6.3, https://matplotlib.org/</dc:title>
     </cc:Agent>
    </dc:creator>
   </cc:Work>
  </rdf:RDF>
 </metadata>
 <defs>
  <style type="text/css">*{stroke-linejoin: round; stroke-linecap: butt}</style>
 </defs>
 <g id="figure_1">
  <g id="patch_1">
   <path d="M -0 282.790125 
L 660.992188 282.790125 
L 660.992188 0 
L -0 0 
L -0 282.790125 
z
" style="fill: none"/>
  </g>
  <g id="axes_1">
   <g id="patch_2">
    <path d="M 47.192188 266.112 
L 660.992188 266.112 
L 660.992188 0 
L 47.192188 0 
L 47.192188 266.112 
z
" style="fill: none"/>
   </g>
   <g id="matplotlib.axis_1">
    <g id="xtick_1">
     <g id="line2d_1">
      <defs>
       <path id="m106d035d51" d="M 0 0 
L 0 3.5 
" style="stroke: #808080; stroke-width: 0.8"/>
      </defs>
      <g>
       <use xlink:href="#m106d035d51" x="75.092188" y="266.112" style="fill: #808080; stroke: #808080; stroke-width: 0.8"/>
      </g>
     </g>
     <g id="text_1">
      <!-- 0 -->
      <g style="fill: #808080" transform="translate(71.910938 280.710438) scale(0.1 -0.1)">
       <defs>
        <path id="DejaVuSans-30" d="M 2034 4250 
Q 1547 4250 1301 3770 
Q 1056 3291 1056 2328 
Q 1056 1369 1301 889 
Q 1547 409 2034 409 
Q 2525 409 2770 889 
Q 3016 1369 3016 2328 
Q 3016 3291 2770 3770 
Q 2525 4250 2034 4250 
z
M 2034 4750 
Q 2819 4750 3233 4129 
Q 3647 3509 3647 2328 
Q 3647 1150 3233 529 
Q 2819 -91 2034 -91 
Q 1250 -91 836 529 
Q 422 1150 422 2328 
Q 422 3509 836 4129 
Q 1250 4750 2034 4750 
z
" transform="scale(0.015625)"/>
       </defs>
       <use xlink:href="#DejaVuSans-30"/>
      </g>
     </g>
    </g>
    <g id="xtick_2">
     <g id="line2d_2">
      <g>
       <use xlink:href="#m106d035d51" x="144.842188" y="266.112" style="fill: #808080; stroke: #808080; stroke-width: 0.8"/>
      </g>
     </g>
     <g id="text_2">
      <!-- 500 -->
      <g style="fill: #808080" transform="translate(135.298438 280.710438) scale(0.1 -0.1)">
       <defs>
        <path id="DejaVuSans-35" d="M 691 4666 
L 3169 4666 
L 3169 4134 
L 1269 4134 
L 1269 2991 
Q 1406 3038 1543 3061 
Q 1681 3084 1819 3084 
Q 2600 3084 3056 2656 
Q 3513 2228 3513 1497 
Q 3513 744 3044 326 
Q 2575 -91 1722 -91 
Q 1428 -91 1123 -41 
Q 819 9 494 109 
L 494 744 
Q 775 591 1075 516 
Q 1375 441 1709 441 
Q 2250 441 2565 725 
Q 2881 1009 2881 1497 
Q 2881 1984 2565 2268 
Q 2250 2553 1709 2553 
Q 1456 2553 1204 2497 
Q 953 2441 691 2322 
L 691 4666 
z
" transform="scale(0.015625)"/>
       </defs>
       <use xlink:href="#DejaVuSans-35"/>
       <use xlink:href="#DejaVuSans-30" x="63.623047"/>
       <use xlink:href="#DejaVuSans-30" x="127.246094"/>
      </g>
     </g>
    </g>
    <g id="xtick_3">
     <g id="line2d_3">
      <g>
       <use xlink:href="#m106d035d51" x="214.592188" y="266.112" style="fill: #808080; stroke: #808080; stroke-width: 0.8"/>
      </g>
     </g>
     <g id="text_3">
      <!-- 1000 -->
      <g style="fill: #808080" transform="translate(201.867188 280.710438) scale(0.1 -0.1)">
       <defs>
        <path id="DejaVuSans-31" d="M 794 531 
L 1825 531 
L 1825 4091 
L 703 3866 
L 703 4441 
L 1819 4666 
L 2450 4666 
L 2450 531 
L 3481 531 
L 3481 0 
L 794 0 
L 794 531 
z
" transform="scale(0.015625)"/>
       </defs>
       <use xlink:href="#DejaVuSans-31"/>
       <use xlink:href="#DejaVuSans-30" x="63.623047"/>
       <use xlink:href="#DejaVuSans-30" x="127.246094"/>
       <use xlink:href="#DejaVuSans-30" x="190.869141"/>
      </g>
     </g>
    </g>
    <g id="xtick_4">
     <g id="line2d_4">
      <g>
       <use xlink:href="#m106d035d51" x="284.342188" y="266.112" style="fill: #808080; stroke: #808080; stroke-width: 0.8"/>
      </g>
     </g>
     <g id="text_4">
      <!-- 1500 -->
      <g style="fill: #808080" transform="translate(271.617188 280.710438) scale(0.1 -0.1)">
       <use xlink:href="#DejaVuSans-31"/>
       <use xlink:href="#DejaVuSans-35" x="63.623047"/>
       <use xlink:href="#DejaVuSans-30" x="127.246094"/>
       <use xlink:href="#DejaVuSans-30" x="190.869141"/>
      </g>
     </g>
    </g>
    <g id="xtick_5">
     <g id="line2d_5">
      <g>
       <use xlink:href="#m106d035d51" x="354.092188" y="266.112" style="fill: #808080; stroke: #808080; stroke-width: 0.8"/>
      </g>
     </g>
     <g id="text_5">
      <!-- 2000 -->
      <g style="fill: #808080" transform="translate(341.367188 280.710438) scale(0.1 -0.1)">
       <defs>
        <path id="DejaVuSans-32" d="M 1228 531 
L 3431 531 
L 3431 0 
L 469 0 
L 469 531 
Q 828 903 1448 1529 
Q 2069 2156 2228 2338 
Q 2531 2678 2651 2914 
Q 2772 3150 2772 3378 
Q 2772 3750 2511 3984 
Q 2250 4219 1831 4219 
Q 1534 4219 1204 4116 
Q 875 4013 500 3803 
L 500 4441 
Q 881 4594 1212 4672 
Q 1544 4750 1819 4750 
Q 2544 4750 2975 4387 
Q 3406 4025 3406 3419 
Q 3406 3131 3298 2873 
Q 3191 2616 2906 2266 
Q 2828 2175 2409 1742 
Q 1991 1309 1228 531 
z
" transform="scale(0.015625)"/>
       </defs>
       <use xlink:href="#DejaVuSans-32"/>
       <use xlink:href="#DejaVuSans-30" x="63.623047"/>
       <use xlink:href="#DejaVuSans-30" x="127.246094"/>
       <use xlink:href="#DejaVuSans-30" x="190.869141"/>
      </g>
     </g>
    </g>
    <g id="xtick_6">
     <g id="line2d_6">
      <g>
       <use xlink:href="#m106d035d51" x="423.842188" y="266.112" style="fill: #808080; stroke: #808080; stroke-width: 0.8"/>
      </g>
     </g>
     <g id="text_6">
      <!-- 2500 -->
      <g style="fill: #808080" transform="translate(411.117188 280.710438) scale(0.1 -0.1)">
       <use xlink:href="#DejaVuSans-32"/>
       <use xlink:href="#DejaVuSans-35" x="63.623047"/>
       <use xlink:href="#DejaVuSans-30" x="127.246094"/>
       <use xlink:href="#DejaVuSans-30" x="190.869141"/>
      </g>
     </g>
    </g>
    <g id="xtick_7">
     <g id="line2d_7">
      <g>
       <use xlink:href="#m106d035d51" x="493.592188" y="266.112" style="fill: #808080; stroke: #808080; stroke-width: 0.8"/>
      </g>
     </g>
     <g id="text_7">
      <!-- 3000 -->
      <g style="fill: #808080" transform="translate(480.867188 280.710438) scale(0.1 -0.1)">
       <defs>
        <path id="DejaVuSans-33" d="M 2597 2516 
Q 3050 2419 3304 2112 
Q 3559 1806 3559 1356 
Q 3559 666 3084 287 
Q 2609 -91 1734 -91 
Q 1441 -91 1130 -33 
Q 819 25 488 141 
L 488 750 
Q 750 597 1062 519 
Q 1375 441 1716 441 
Q 2309 441 2620 675 
Q 2931 909 2931 1356 
Q 2931 1769 2642 2001 
Q 2353 2234 1838 2234 
L 1294 2234 
L 1294 2753 
L 1863 2753 
Q 2328 2753 2575 2939 
Q 2822 3125 2822 3475 
Q 2822 3834 2567 4026 
Q 2313 4219 1838 4219 
Q 1578 4219 1281 4162 
Q 984 4106 628 3988 
L 628 4550 
Q 988 4650 1302 4700 
Q 1616 4750 1894 4750 
Q 2613 4750 3031 4423 
Q 3450 4097 3450 3541 
Q 3450 3153 3228 2886 
Q 3006 2619 2597 2516 
z
" transform="scale(0.015625)"/>
       </defs>
       <use xlink:href="#DejaVuSans-33"/>
       <use xlink:href="#DejaVuSans-30" x="63.623047"/>
       <use xlink:href="#DejaVuSans-30" x="127.246094"/>
       <use xlink:href="#DejaVuSans-30" x="190.869141"/>
      </g>
     </g>
    </g>
    <g id="xtick_8">
     <g id="line2d_8">
      <g>
       <use xlink:href="#m106d035d51" x="563.342188" y="266.112" style="fill: #808080; stroke: #808080; stroke-width: 0.8"/>
      </g>
     </g>
     <g id="text_8">
      <!-- 3500 -->
      <g style="fill: #808080" transform="translate(550.617188 280.710438) scale(0.1 -0.1)">
       <use xlink:href="#DejaVuSans-33"/>
       <use xlink:href="#DejaVuSans-35" x="63.623047"/>
       <use xlink:href="#DejaVuSans-30" x="127.246094"/>
       <use xlink:href="#DejaVuSans-30" x="190.869141"/>
      </g>
     </g>
    </g>
    <g id="xtick_9">
     <g id="line2d_9">
      <g>
       <use xlink:href="#m106d035d51" x="633.092188" y="266.112" style="fill: #808080; stroke: #808080; stroke-width: 0.8"/>
      </g>
     </g>
     <g id="text_9">
      <!-- 4000 -->
      <g style="fill: #808080" transform="translate(620.367188 280.710438) scale(0.1 -0.1)">
       <defs>
        <path id="DejaVuSans-34" d="M 2419 4116 
L 825 1625 
L 2419 1625 
L 2419 4116 
z
M 2253 4666 
L 3047 4666 
L 3047 1625 
L 3713 1625 
L 3713 1100 
L 3047 1100 
L 3047 0 
L 2419 0 
L 2419 1100 
L 313 1100 
L 313 1709 
L 2253 4666 
z
" transform="scale(0.015625)"/>
       </defs>
       <use xlink:href="#DejaVuSans-34"/>
       <use xlink:href="#DejaVuSans-30" x="63.623047"/>
       <use xlink:href="#DejaVuSans-30" x="127.246094"/>
       <use xlink:href="#DejaVuSans-30" x="190.869141"/>
      </g>
     </g>
    </g>
   </g>
   <g id="matplotlib.axis_2">
    <g id="ytick_1">
     <g id="line2d_10">
      <defs>
       <path id="m1dba29a499" d="M 0 0 
L -3.5 0 
" style="stroke: #808080; stroke-width: 0.8"/>
      </defs>
      <g>
       <use xlink:href="#m1dba29a499" x="47.192188" y="254.114977" style="fill: #808080; stroke: #808080; stroke-width: 0.8"/>
      </g>
     </g>
     <g id="text_10">
      <!-- −20000 -->
      <g style="fill: #808080" transform="translate(0 257.914196) scale(0.1 -0.1)">
       <defs>
        <path id="DejaVuSans-2212" d="M 678 2272 
L 4684 2272 
L 4684 1741 
L 678 1741 
L 678 2272 
z
" transform="scale(0.015625)"/>
       </defs>
       <use xlink:href="#DejaVuSans-2212"/>
       <use xlink:href="#DejaVuSans-32" x="83.789062"/>
       <use xlink:href="#DejaVuSans-30" x="147.412109"/>
       <use xlink:href="#DejaVuSans-30" x="211.035156"/>
       <use xlink:href="#DejaVuSans-30" x="274.658203"/>
       <use xlink:href="#DejaVuSans-30" x="338.28125"/>
      </g>
     </g>
    </g>
    <g id="ytick_2">
     <g id="line2d_11">
      <g>
       <use xlink:href="#m1dba29a499" x="47.192188" y="202.349015" style="fill: #808080; stroke: #808080; stroke-width: 0.8"/>
      </g>
     </g>
     <g id="text_11">
      <!-- −10000 -->
      <g style="fill: #808080" transform="translate(0 206.148234) scale(0.1 -0.1)">
       <use xlink:href="#DejaVuSans-2212"/>
       <use xlink:href="#DejaVuSans-31" x="83.789062"/>
       <use xlink:href="#DejaVuSans-30" x="147.412109"/>
       <use xlink:href="#DejaVuSans-30" x="211.035156"/>
       <use xlink:href="#DejaVuSans-30" x="274.658203"/>
       <use xlink:href="#DejaVuSans-30" x="338.28125"/>
      </g>
     </g>
    </g>
    <g id="ytick_3">
     <g id="line2d_12">
      <g>
       <use xlink:href="#m1dba29a499" x="47.192188" y="150.583053" style="fill: #808080; stroke: #808080; stroke-width: 0.8"/>
      </g>
     </g>
     <g id="text_12">
      <!-- 0 -->
      <g style="fill: #808080" transform="translate(33.829688 154.382272) scale(0.1 -0.1)">
       <use xlink:href="#DejaVuSans-30"/>
      </g>
     </g>
    </g>
    <g id="ytick_4">
     <g id="line2d_13">
      <g>
       <use xlink:href="#m1dba29a499" x="47.192188" y="98.817091" style="fill: #808080; stroke: #808080; stroke-width: 0.8"/>
      </g>
     </g>
     <g id="text_13">
      <!-- 10000 -->
      <g style="fill: #808080" transform="translate(8.379688 102.61631) scale(0.1 -0.1)">
       <use xlink:href="#DejaVuSans-31"/>
       <use xlink:href="#DejaVuSans-30" x="63.623047"/>
       <use xlink:href="#DejaVuSans-30" x="127.246094"/>
       <use xlink:href="#DejaVuSans-30" x="190.869141"/>
       <use xlink:href="#DejaVuSans-30" x="254.492188"/>
      </g>
     </g>
    </g>
    <g id="ytick_5">
     <g id="line2d_14">
      <g>
       <use xlink:href="#m1dba29a499" x="47.192188" y="47.051129" style="fill: #808080; stroke: #808080; stroke-width: 0.8"/>
      </g>
     </g>
     <g id="text_14">
      <!-- 20000 -->
      <g style="fill: #808080" transform="translate(8.379688 50.850348) scale(0.1 -0.1)">
       <use xlink:href="#DejaVuSans-32"/>
       <use xlink:href="#DejaVuSans-30" x="63.623047"/>
       <use xlink:href="#DejaVuSans-30" x="127.246094"/>
       <use xlink:href="#DejaVuSans-30" x="190.869141"/>
       <use xlink:href="#DejaVuSans-30" x="254.492188"/>
      </g>
     </g>
    </g>
   </g>
   <g id="line2d_15">
    <path d="M 75.092188 150.561042 
L 75.938069 150.60274 
L 76.783951 150.565118 
L 77.629833 150.599645 
L 78.475715 150.567502 
L 79.321596 150.597804 
L 80.167478 150.568905 
L 81.01336 150.596774 
L 82.423163 150.569679 
L 83.832966 150.596589 
L 85.242769 150.568668 
L 86.08865 150.598392 
L 86.934532 150.566772 
L 88.062374 150.595905 
L 88.344335 150.420567 
L 88.626296 146.57996 
L 89.190217 156.213606 
L 89.472177 156.675789 
L 90.036099 156.310035 
L 90.318059 155.463875 
L 90.60002 153.767316 
L 90.88198 153.176924 
L 91.445901 155.807124 
L 91.727862 156.193165 
L 92.009823 156.389585 
L 92.291783 156.810252 
L 92.573744 156.675769 
L 92.855704 155.986638 
L 93.137665 155.781355 
L 93.419626 155.941405 
L 93.701586 155.566053 
L 93.983547 154.829813 
L 94.265507 154.587517 
L 94.829429 155.000486 
L 95.111389 155.900411 
L 95.39335 157.690926 
L 95.67531 158.761279 
L 96.239231 156.588776 
L 96.521192 157.387582 
L 96.803153 159.153091 
L 97.085113 159.354155 
L 97.367074 158.356474 
L 97.649034 157.9683 
L 98.212956 158.210198 
L 98.776877 159.899349 
L 99.058837 159.43732 
L 99.340798 158.384752 
L 99.622758 158.389754 
L 99.904719 158.548461 
L 100.18668 158.024717 
L 100.46864 158.46265 
L 100.750601 160.108799 
L 101.032561 160.512812 
L 101.314522 159.635897 
L 101.596483 159.886512 
L 101.878443 160.726925 
L 102.160404 159.384025 
L 102.724325 153.861455 
L 103.006286 151.477816 
L 103.852167 137.25262 
L 104.134128 137.452365 
L 104.698049 140.271325 
L 104.98001 140.825675 
L 105.26197 141.085273 
L 105.543931 140.226865 
L 106.389813 135.280457 
L 106.671773 134.070774 
L 106.953734 133.552817 
L 107.235694 134.410085 
L 107.517655 136.70719 
L 107.799615 140.795049 
L 108.363537 152.107622 
L 108.645497 154.828205 
L 108.927458 154.791842 
L 110.0553 150.506824 
L 110.337261 149.870772 
L 110.619221 150.329988 
L 111.183143 153.557905 
L 111.465103 153.196131 
L 112.029024 150.378749 
L 112.310985 149.883296 
L 112.874906 148.336704 
L 113.156867 148.232684 
L 114.284709 149.97601 
L 114.56667 150.05226 
L 115.130591 149.634776 
L 115.694512 149.003572 
L 116.540394 150.085884 
L 117.668236 151.746613 
L 117.950197 152.74266 
L 118.796078 158.718771 
L 119.64196 159.792144 
L 119.923921 159.452163 
L 120.205881 160.717007 
L 120.487842 162.98619 
L 120.769802 161.712362 
L 121.051763 157.259456 
L 121.333724 156.143863 
L 121.615684 159.647862 
L 121.897645 161.270203 
L 122.179605 157.570932 
L 123.025487 139.923388 
L 123.307448 136.477634 
L 123.589408 134.410025 
L 123.871369 133.33624 
L 124.153329 134.506605 
L 124.43529 137.054892 
L 124.717251 137.469679 
L 124.999211 135.688901 
L 125.281172 134.642777 
L 125.563132 134.169579 
L 126.127054 131.231512 
L 126.409014 132.242626 
L 126.690975 134.64056 
L 126.972935 138.075943 
L 127.536857 148.678375 
L 127.818817 149.526555 
L 128.382738 144.612845 
L 128.664699 144.973516 
L 128.946659 144.212906 
L 129.22862 141.337003 
L 129.510581 140.729158 
L 130.074502 148.177073 
L 130.356462 148.355789 
L 130.638423 147.942428 
L 131.202344 151.115871 
L 131.484305 150.883968 
L 131.766265 151.127069 
L 132.048226 152.423042 
L 132.330186 152.545398 
L 132.612147 151.252864 
L 132.894108 150.581801 
L 133.458029 151.82014 
L 133.739989 151.782076 
L 134.303911 149.855188 
L 134.867832 150.913913 
L 135.149792 149.715631 
L 135.431753 149.210035 
L 135.995674 153.627385 
L 136.277635 153.317631 
L 136.559595 153.317347 
L 136.841556 155.256304 
L 137.123516 156.348566 
L 137.405477 155.508399 
L 137.687438 155.045705 
L 138.533319 156.776791 
L 138.81528 158.071639 
L 139.097241 158.70608 
L 139.379201 158.581428 
L 139.661162 159.257225 
L 139.943122 160.460886 
L 140.225083 161.099658 
L 140.507043 162.716985 
L 141.070965 169.146717 
L 141.352925 165.780047 
L 141.916846 151.742581 
L 142.480768 143.433799 
L 142.762728 140.385831 
L 143.326649 137.691557 
L 143.60861 137.033293 
L 143.890571 137.466494 
L 144.172531 136.706535 
L 145.018413 122.965497 
L 145.300373 122.752791 
L 145.864295 122.85924 
L 146.146255 124.005646 
L 146.428216 126.680964 
L 146.992137 137.644729 
L 147.556058 147.879479 
L 147.838019 150.189479 
L 148.119979 150.985619 
L 148.6839 147.879567 
L 148.965861 148.92788 
L 149.529782 155.763839 
L 149.811743 156.746451 
L 150.657625 157.963789 
L 150.939585 157.946859 
L 151.221546 157.461744 
L 151.785467 155.771984 
L 152.067428 155.768878 
L 152.349388 155.184197 
L 152.631349 154.275232 
L 152.913309 154.312212 
L 153.19527 153.945383 
L 153.759191 147.778171 
L 154.041152 147.370279 
L 154.323112 148.839111 
L 154.605073 148.716065 
L 154.887033 147.029953 
L 155.168994 147.174283 
L 155.732915 154.279613 
L 156.014876 154.81019 
L 156.296836 153.275867 
L 156.578797 153.199973 
L 156.860757 154.676767 
L 157.142718 155.121636 
L 157.424679 154.348235 
L 157.706639 154.413769 
L 157.9886 156.264345 
L 158.834482 166.308024 
L 159.116442 166.260378 
L 159.398403 166.914534 
L 159.680363 169.646938 
L 159.962324 171.113669 
L 160.808206 165.524791 
L 161.090166 162.480796 
L 162.218009 140.992874 
L 162.499969 137.334646 
L 162.78193 135.2131 
L 163.06389 135.374011 
L 163.345851 136.208079 
L 163.627812 135.174933 
L 163.909772 132.74825 
L 165.037614 126.479934 
L 165.319575 127.365333 
L 165.601536 129.377427 
L 165.883496 132.291298 
L 166.729378 152.695507 
L 167.011339 152.618504 
L 167.293299 152.152879 
L 167.57526 152.542921 
L 167.85722 151.476052 
L 168.139181 149.386491 
L 168.421142 148.255038 
L 168.703102 147.73456 
L 168.985063 147.482169 
L 169.267023 148.408876 
L 169.548984 149.819966 
L 170.394866 151.386585 
L 170.958787 150.826295 
L 171.522708 155.66615 
L 171.804669 155.764352 
L 172.086629 154.126826 
L 172.36859 153.805455 
L 172.65055 154.842562 
L 172.932511 155.316345 
L 173.496432 153.92065 
L 173.778393 154.475629 
L 174.060353 156.109936 
L 174.342314 156.84154 
L 174.624274 156.387894 
L 174.906235 157.420871 
L 175.470156 164.167619 
L 175.752117 164.698592 
L 176.316038 161.895731 
L 177.16192 156.942353 
L 177.725841 152.531163 
L 178.007801 153.298852 
L 178.289762 154.687012 
L 178.853683 155.011593 
L 179.135644 156.345534 
L 179.981526 162.245741 
L 180.263486 160.815867 
L 181.673289 137.080945 
L 181.95525 134.663057 
L 182.23721 134.227395 
L 182.519171 134.207215 
L 182.801131 133.450949 
L 183.365053 131.546223 
L 183.928974 129.543384 
L 184.492895 127.981596 
L 184.774856 127.77955 
L 185.056816 129.674197 
L 185.338777 135.770591 
L 185.902698 150.856026 
L 186.184658 153.009365 
L 186.466619 153.014763 
L 186.74858 152.667291 
L 187.03054 151.787137 
L 187.312501 150.517707 
L 187.594461 149.841821 
L 187.876422 150.120267 
L 188.158383 150.800023 
L 188.440343 151.12714 
L 188.722304 151.203201 
L 189.004264 151.962226 
L 189.286225 153.476554 
L 189.568185 154.350327 
L 189.850146 154.077465 
L 190.414067 152.933029 
L 190.696028 152.080236 
L 190.977988 151.585096 
L 191.259949 151.607967 
L 191.54191 151.781893 
L 191.82387 152.903221 
L 192.105831 155.095183 
L 192.387791 155.745925 
L 193.233673 149.282473 
L 193.515634 149.52235 
L 194.079555 151.899041 
L 194.361515 151.820659 
L 194.643476 152.546379 
L 195.207397 160.242722 
L 195.489358 160.585715 
L 195.771318 160.461141 
L 196.053279 162.595621 
L 196.33524 163.618112 
L 196.6172 162.330864 
L 196.899161 163.037108 
L 197.181121 166.27835 
L 197.463082 167.686761 
L 197.745042 167.282746 
L 198.027003 168.670067 
L 198.308964 170.688761 
L 198.590924 169.001447 
L 199.436806 149.669606 
L 200.282688 130.7889 
L 200.564648 129.833117 
L 200.846609 131.749736 
L 201.12857 132.694719 
L 201.41053 131.165396 
L 202.256412 124.376445 
L 202.820333 117.546266 
L 203.102294 117.009979 
L 203.384254 119.718648 
L 203.666215 123.984902 
L 203.948175 130.036669 
L 204.794057 158.516412 
L 205.076018 159.096019 
L 205.921899 154.857109 
L 206.20386 154.526818 
L 206.485821 155.620046 
L 206.767781 155.755444 
L 207.049742 154.270746 
L 207.331702 154.010358 
L 207.895624 157.078757 
L 208.177584 156.946405 
L 208.459545 156.552898 
L 208.741505 155.797199 
L 209.305427 152.39713 
L 209.587387 152.701386 
L 210.715229 160.254326 
L 210.99719 159.827829 
L 211.279151 159.191645 
L 211.843072 158.548581 
L 212.406993 157.276118 
L 212.688954 157.556269 
L 213.534835 159.204703 
L 214.380717 162.682336 
L 214.662678 162.396905 
L 214.944638 163.020743 
L 215.508559 166.75728 
L 216.072481 167.857682 
L 216.918362 170.785882 
L 217.200323 172.782474 
L 217.482284 173.180831 
L 217.764244 170.023686 
L 218.328165 158.074444 
L 219.174047 135.849833 
L 219.737968 130.37907 
L 220.301889 126.192827 
L 220.865811 118.394552 
L 221.429732 109.356585 
L 221.993653 98.83813 
L 222.275613 98.811298 
L 222.557574 102.280461 
L 222.839535 109.144929 
L 223.121495 123.035278 
L 223.685416 160.138021 
L 223.967377 165.557971 
L 224.531298 161.365312 
L 224.813259 161.213248 
L 225.095219 159.759782 
L 225.37718 157.721578 
L 225.659141 157.63762 
L 225.941101 158.458132 
L 226.223062 157.955972 
L 226.505022 157.131325 
L 226.786983 157.561582 
L 227.068943 158.297982 
L 227.350904 158.52821 
L 227.632865 158.982742 
L 227.914825 158.869562 
L 228.478746 155.054123 
L 228.760707 156.539638 
L 229.042668 159.355522 
L 229.324628 160.069358 
L 229.606589 159.53748 
L 229.888549 159.722729 
L 230.17051 159.530883 
L 230.45247 158.612833 
L 230.734431 159.074072 
L 231.016392 160.820635 
L 231.298352 161.586492 
L 231.580313 161.695869 
L 231.862273 162.402248 
L 232.144234 162.098018 
L 232.708155 157.39648 
L 232.990116 158.138157 
L 233.272076 160.254883 
L 233.835998 161.883098 
L 234.117958 164.90798 
L 234.399919 169.791706 
L 234.681879 172.376125 
L 234.96384 171.731253 
L 235.2458 172.33861 
L 235.527761 175.75255 
L 235.809722 177.072895 
L 236.091682 174.593239 
L 236.373643 173.273018 
L 236.655603 174.417847 
L 236.937564 172.625359 
L 238.347367 139.230285 
L 238.911288 130.404566 
L 239.475209 121.771046 
L 239.75717 118.199477 
L 241.166973 92.728441 
L 241.448933 92.334659 
L 241.730894 92.996649 
L 242.012855 99.183523 
L 242.858736 160.895006 
L 243.140697 165.421712 
L 243.704618 164.436026 
L 244.83246 158.988101 
L 245.114421 156.925436 
L 245.396382 157.532796 
L 245.678342 160.196035 
L 245.960303 160.994013 
L 246.242263 159.740138 
L 246.524224 159.207049 
L 246.806184 159.620339 
L 247.088145 159.451766 
L 247.652066 157.851629 
L 247.934027 156.882213 
L 248.215987 156.593529 
L 249.061869 159.715655 
L 249.34383 159.499118 
L 249.62579 160.048217 
L 250.189712 162.035308 
L 251.035593 163.095063 
L 251.317554 163.072608 
L 251.599514 163.355212 
L 252.445396 165.897803 
L 252.727357 166.298664 
L 253.009317 167.242002 
L 253.573239 170.297244 
L 253.855199 169.141781 
L 254.13716 166.182034 
L 254.41912 165.623569 
L 254.983041 171.842148 
L 255.265002 172.281312 
L 255.546963 173.178104 
L 255.828923 175.232266 
L 256.110884 173.935508 
L 256.674805 157.933642 
L 257.520687 129.755231 
L 257.802647 124.597203 
L 258.084608 122.255544 
L 258.648529 119.919165 
L 258.93049 116.405536 
L 260.340293 91.140293 
L 260.622253 89.837158 
L 260.904214 91.817577 
L 261.186174 99.693399 
L 262.032056 162.762982 
L 262.314017 166.71353 
L 262.595977 163.150189 
L 262.877938 161.530544 
L 263.159898 162.315471 
L 263.441859 161.639 
L 264.287741 153.459539 
L 264.569701 153.193548 
L 264.851662 153.265709 
L 265.133623 152.919546 
L 265.415583 154.093735 
L 265.979504 161.651206 
L 266.261465 162.055812 
L 266.825386 158.933115 
L 267.389307 157.602309 
L 267.953228 155.396657 
L 268.51715 154.838165 
L 268.79911 154.051368 
L 269.081071 154.26629 
L 269.644992 160.709648 
L 269.926953 161.777407 
L 270.208913 161.32856 
L 270.490874 162.375248 
L 270.772834 164.541389 
L 271.054795 165.691604 
L 271.336755 166.243356 
L 271.618716 167.862794 
L 273.028519 180.31531 
L 273.31048 181.738353 
L 273.59244 181.428912 
L 273.874401 180.277121 
L 274.156361 181.035459 
L 274.720282 187.245003 
L 275.002243 186.694384 
L 275.566164 180.78089 
L 275.848125 174.998523 
L 276.975967 139.190686 
L 277.539888 126.349656 
L 278.10381 115.880269 
L 278.667731 99.413591 
L 279.795573 60.16548 
L 280.077534 53.479381 
L 280.359494 52.190439 
L 280.641455 62.598863 
L 281.205376 110.133724 
L 281.769297 158.672753 
L 282.051258 169.018883 
L 282.333218 169.252473 
L 282.615179 168.548208 
L 282.897139 170.610686 
L 283.1791 171.048823 
L 283.461061 168.688492 
L 283.743021 167.569204 
L 284.024982 168.421746 
L 284.306942 168.622113 
L 284.588903 168.436059 
L 284.870864 169.169263 
L 285.152824 169.096641 
L 285.716745 164.686117 
L 287.126548 160.648392 
L 287.408509 160.2172 
L 287.97243 160.89404 
L 288.254391 160.548251 
L 288.536351 160.811925 
L 288.818312 161.676763 
L 289.100272 161.132833 
L 289.382233 160.164178 
L 289.664194 162.017426 
L 289.946154 165.267665 
L 290.228115 165.838827 
L 290.510075 164.828689 
L 290.792036 165.878997 
L 291.073996 167.932872 
L 291.355957 168.590134 
L 291.637918 169.644651 
L 292.201839 175.739716 
L 292.76576 179.395203 
L 293.047721 181.723294 
L 293.329681 182.386956 
L 293.611642 182.123032 
L 293.893602 183.061344 
L 294.739484 189.119345 
L 295.021445 192.076657 
L 295.303405 192.26751 
L 295.585366 187.502871 
L 296.995169 141.467305 
L 297.841051 115.282575 
L 298.404972 98.815791 
L 299.250853 69.229655 
L 299.814775 53.334354 
L 300.096735 50.760689 
L 300.378696 56.410151 
L 300.660656 70.928307 
L 302.070459 169.274902 
L 302.35242 173.13802 
L 302.634381 174.176218 
L 302.916341 174.648906 
L 303.198302 172.305889 
L 303.762223 162.880135 
L 304.044183 162.077858 
L 304.326144 162.189429 
L 304.608105 161.843107 
L 304.890065 162.71309 
L 305.453986 167.401592 
L 306.017908 168.959 
L 306.299868 169.559588 
L 306.581829 168.768764 
L 307.14575 165.038833 
L 307.709671 164.033205 
L 307.991632 163.172515 
L 308.273592 163.103138 
L 308.555553 163.34169 
L 308.837513 162.248896 
L 309.401435 157.758323 
L 309.683395 157.468297 
L 310.247316 159.86684 
L 310.529277 159.745826 
L 310.811238 160.647861 
L 311.375159 169.56476 
L 311.657119 171.037698 
L 311.93908 170.755179 
L 312.22104 171.799244 
L 312.784962 174.883499 
L 313.630843 184.61644 
L 313.912804 185.770018 
L 314.194765 189.340829 
L 314.476725 194.519289 
L 314.758686 196.795855 
L 315.040646 193.831959 
L 315.604567 178.462133 
L 316.168489 158.557787 
L 316.73241 135.532206 
L 317.01437 130.523769 
L 317.296331 127.847448 
L 317.860252 117.218459 
L 318.424173 104.950593 
L 319.833976 61.410245 
L 320.115937 58.615244 
L 320.397897 63.956471 
L 320.679858 77.701823 
L 321.8077 162.367217 
L 322.089661 168.390514 
L 322.371622 168.953595 
L 322.653582 167.985014 
L 322.935543 168.069414 
L 323.217503 169.057451 
L 323.499464 168.658981 
L 324.063385 164.840393 
L 324.345346 164.594834 
L 324.627306 163.128715 
L 325.191227 156.526968 
L 325.473188 156.123325 
L 325.755149 156.766266 
L 326.037109 156.175399 
L 326.31907 154.880623 
L 326.60103 155.243689 
L 326.882991 157.314215 
L 327.164952 158.109511 
L 327.446912 156.711031 
L 327.728873 156.313524 
L 328.574754 162.944829 
L 328.856715 163.40273 
L 329.420636 164.704913 
L 329.702597 164.987509 
L 329.984557 165.542699 
L 330.266518 165.830297 
L 330.548479 165.815693 
L 330.830439 166.988377 
L 333.368084 192.916932 
L 333.932006 199.176675 
L 334.213966 201.099731 
L 334.495927 200.902857 
L 334.777887 196.801721 
L 335.341809 176.515625 
L 336.469651 129.581573 
L 338.725336 51.11503 
L 339.007296 47.945082 
L 339.289257 47.095179 
L 339.571217 49.656218 
L 339.853178 57.979499 
L 340.135138 74.193392 
L 340.98102 139.789669 
L 341.544941 161.491877 
L 341.826902 166.575006 
L 342.108863 168.321146 
L 342.390823 168.040249 
L 343.518666 164.17332 
L 343.800626 162.156567 
L 344.082587 161.368178 
L 344.364547 163.192867 
L 344.646508 165.933023 
L 344.928468 167.543893 
L 345.49239 168.733958 
L 345.77435 168.804436 
L 346.056311 168.350256 
L 346.338271 167.474361 
L 346.902193 165.174162 
L 347.184153 165.337342 
L 347.466114 166.056554 
L 348.030035 166.784129 
L 348.311995 166.92659 
L 348.875917 166.082934 
L 349.157877 167.37639 
L 349.721798 172.132147 
L 350.56768 177.444187 
L 351.413562 189.949615 
L 351.977483 196.533412 
L 353.387286 217.311846 
L 353.669247 218.457933 
L 353.951207 217.361081 
L 354.233168 211.643027 
L 354.797089 189.361478 
L 355.642971 146.613642 
L 357.052774 77.908321 
L 357.616695 58.32488 
L 358.744537 30.529288 
L 359.026498 26.144447 
L 359.308458 28.710183 
L 359.87238 54.389691 
L 360.436301 88.937067 
L 361.282182 146.385312 
L 361.846104 168.22744 
L 362.410025 176.30711 
L 362.691985 178.151973 
L 362.973946 177.946519 
L 363.255907 177.354664 
L 363.537867 177.984884 
L 363.819828 178.147899 
L 364.101788 175.836463 
L 364.665709 169.68438 
L 364.94767 169.740628 
L 365.511591 172.599119 
L 365.793552 172.080364 
L 366.357473 169.875043 
L 366.639434 169.028616 
L 366.921394 168.668118 
L 367.203355 169.823996 
L 367.485315 171.831704 
L 367.767276 172.706439 
L 368.049237 172.362595 
L 368.331197 172.826756 
L 368.895118 177.696584 
L 369.177079 178.770449 
L 369.459039 178.984591 
L 369.741 180.582128 
L 370.304921 186.992949 
L 370.868842 190.946708 
L 371.432764 201.07449 
L 371.996685 211.105063 
L 372.842566 222.402196 
L 373.124527 226.75551 
L 373.406488 226.183447 
L 373.688448 218.459337 
L 374.53433 177.540159 
L 376.508054 70.811422 
L 377.635896 25.30119 
L 377.917857 16.660325 
L 378.199818 13.186414 
L 378.481778 16.212781 
L 378.763739 25.673353 
L 379.32766 62.42406 
L 380.455502 140.093885 
L 381.019423 167.116091 
L 381.301384 172.474905 
L 381.865305 177.200926 
L 382.147266 178.210631 
L 382.711187 177.978686 
L 382.993148 178.361733 
L 383.275108 178.368537 
L 383.557069 177.174256 
L 384.12099 173.627946 
L 384.402951 173.420236 
L 384.684911 173.863667 
L 384.966872 173.442121 
L 385.530793 170.555291 
L 385.812753 170.022626 
L 386.094714 170.617696 
L 386.376675 172.020984 
L 386.658635 172.564766 
L 387.222556 169.547524 
L 387.504517 170.112997 
L 387.786478 171.484546 
L 388.068438 171.952409 
L 388.350399 172.900072 
L 388.91432 177.403801 
L 389.19628 177.589848 
L 389.478241 177.58302 
L 389.760202 178.818974 
L 390.042162 181.282752 
L 390.324123 185.481163 
L 391.170005 202.208308 
L 391.451965 205.897086 
L 392.297847 221.660132 
L 392.579808 223.991931 
L 392.861768 224.081144 
L 393.143729 218.354871 
L 393.70765 185.839882 
L 395.681374 72.463394 
L 397.091177 15.890366 
L 397.373137 12.123959 
L 397.655098 14.307338 
L 397.937059 21.73137 
L 398.219019 34.007837 
L 399.910783 140.711707 
L 400.474704 161.797144 
L 401.038625 173.554643 
L 401.602546 178.074881 
L 401.884507 179.132109 
L 402.166467 177.994212 
L 402.448428 175.753733 
L 402.730389 174.497556 
L 403.012349 174.308392 
L 403.29431 173.678836 
L 403.858231 169.881547 
L 404.140192 170.3892 
L 404.704113 175.31255 
L 404.986073 174.810586 
L 405.268034 173.385938 
L 405.549994 172.549669 
L 405.831955 172.143687 
L 406.113916 172.379316 
L 406.677837 174.216814 
L 406.959797 174.083872 
L 407.241758 174.825591 
L 408.933522 189.942339 
L 410.061364 205.389887 
L 411.753127 235.290929 
L 412.035088 236.584104 
L 412.317049 232.274058 
L 412.599009 223.275111 
L 413.16293 192.106767 
L 413.726851 143.694644 
L 414.290773 95.209344 
L 414.854694 61.16753 
L 415.418615 28.936048 
L 416.264497 13.300221 
L 416.546457 12.096 
L 416.828418 15.353579 
L 417.110379 20.425122 
L 417.392339 28.628933 
L 417.95626 57.395396 
L 419.084103 117.941309 
L 420.211945 154.609663 
L 420.775866 171.864462 
L 421.621748 189.034344 
L 421.903708 189.463133 
L 422.185669 188.747182 
L 422.46763 188.625915 
L 422.74959 187.582885 
L 424.159393 175.252759 
L 424.441354 175.233561 
L 424.723314 174.860145 
L 425.287236 169.374625 
L 425.569196 169.643137 
L 425.851157 171.445376 
L 426.133117 172.306229 
L 426.415078 172.546977 
L 427.54292 175.295225 
L 427.824881 177.106834 
L 429.234684 191.598121 
L 430.926447 215.25313 
L 431.490368 226.713807 
L 432.33625 239.712696 
L 432.618211 236.730455 
L 432.900171 225.970806 
L 433.464093 191.074769 
L 435.155856 56.186373 
L 435.719777 33.478436 
L 436.283698 22.327734 
L 436.565659 20.523965 
L 436.84762 21.040606 
L 437.12958 23.263267 
L 437.411541 28.195291 
L 437.693501 37.291204 
L 438.257422 66.706327 
L 438.821344 98.314886 
L 439.385265 120.03568 
L 439.949186 133.835943 
L 442.768792 185.749829 
L 443.050752 188.892398 
L 443.332713 190.026322 
L 443.614674 189.847657 
L 443.896634 188.88052 
L 444.460555 184.099522 
L 445.024477 179.515266 
L 446.434279 172.540694 
L 446.71624 172.897049 
L 447.280161 174.916729 
L 447.562122 175.585118 
L 448.126043 177.856584 
L 448.408004 179.637803 
L 448.971925 185.678678 
L 450.663688 207.114056 
L 451.50957 222.025447 
L 452.073491 233.943165 
L 452.355452 236.799199 
L 452.637412 233.860209 
L 452.919373 224.391429 
L 453.483294 188.32614 
L 454.611136 88.830871 
L 455.175058 57.350474 
L 455.738979 40.003691 
L 456.3029 28.725342 
L 456.584861 26.357996 
L 456.866821 27.023164 
L 457.148782 30.910642 
L 457.712703 45.826244 
L 458.276624 74.807949 
L 458.840545 103.882887 
L 459.404466 126.167088 
L 459.686427 133.39255 
L 460.814269 146.850314 
L 461.378191 150.023789 
L 461.942112 156.86577 
L 463.633875 178.422015 
L 463.915836 184.916817 
L 464.197796 188.818707 
L 464.479757 189.283234 
L 464.761718 188.874021 
L 465.043678 187.539916 
L 465.88956 176.283756 
L 466.17152 176.199418 
L 466.453481 175.18346 
L 466.735442 173.74071 
L 467.017402 174.55286 
L 467.581323 180.088212 
L 468.145245 182.636081 
L 468.709166 187.757271 
L 469.555048 196.491848 
L 470.400929 208.363684 
L 471.810732 234.464258 
L 472.092693 236.181214 
L 472.374653 228.767321 
L 472.938575 193.205199 
L 474.348377 76.631603 
L 474.912299 61.023072 
L 475.47622 49.332906 
L 475.75818 46.42121 
L 476.604062 48.540612 
L 476.886023 51.861798 
L 477.449944 63.473686 
L 477.731905 73.165967 
L 478.295826 103.539883 
L 478.577786 112.151559 
L 479.423668 124.588988 
L 479.705629 126.998815 
L 480.55151 138.127992 
L 480.833471 138.680641 
L 481.115432 138.231683 
L 481.397392 138.328642 
L 481.679353 139.910939 
L 482.243274 147.771888 
L 483.089156 161.488908 
L 483.653077 169.465526 
L 485.06288 192.333975 
L 485.34484 192.378411 
L 485.626801 191.284918 
L 485.908762 190.720616 
L 486.472683 188.138575 
L 486.754643 188.008223 
L 487.036604 188.977514 
L 487.318564 189.158157 
L 487.600525 188.724589 
L 487.882486 189.334885 
L 489.010328 196.680271 
L 489.574249 203.261139 
L 490.702091 220.953385 
L 491.266013 232.829945 
L 491.829934 241.318236 
L 492.111894 242.768833 
L 492.393855 235.439814 
L 492.957776 197.707594 
L 494.085619 88.481697 
L 494.64954 57.301027 
L 494.9315 49.06986 
L 495.495421 41.472565 
L 495.777382 39.123855 
L 496.059343 39.956857 
L 496.341303 43.550909 
L 496.905224 55.87063 
L 497.469146 70.551855 
L 498.033067 95.416688 
L 498.596988 116.743625 
L 499.160909 126.471168 
L 499.44287 129.581874 
L 499.72483 130.346396 
L 500.006791 130.092876 
L 500.288751 130.608044 
L 501.134633 133.838023 
L 502.544436 148.380719 
L 503.672278 158.366867 
L 504.2362 162.468158 
L 505.646003 181.596556 
L 506.491884 193.076592 
L 507.055805 193.73195 
L 507.619727 198.847666 
L 507.901687 199.104258 
L 508.183648 198.453661 
L 508.465608 198.781719 
L 508.747569 199.773067 
L 509.02953 201.316448 
L 510.157372 212.329069 
L 511.567175 235.654064 
L 512.131096 246.199971 
L 512.413057 244.811997 
L 512.695017 233.591701 
L 513.258938 190.492666 
L 514.10482 97.641084 
L 514.668741 68.820186 
L 515.232662 51.169672 
L 515.796584 44.671519 
L 516.078544 44.645867 
L 516.360505 47.84933 
L 517.206387 62.311199 
L 517.770308 79.336762 
L 518.61619 115.31145 
L 518.89815 122.160194 
L 519.462071 128.71428 
L 520.025992 133.453788 
L 520.589914 136.31667 
L 520.871874 138.007151 
L 521.153835 138.383358 
L 521.435795 138.247033 
L 521.717756 140.483874 
L 522.281677 149.558276 
L 522.563638 150.841911 
L 522.845598 150.988805 
L 523.127559 152.544311 
L 523.409519 155.16024 
L 523.69148 156.54752 
L 523.973441 156.107663 
L 524.255401 155.907047 
L 524.537362 157.582755 
L 525.947165 169.595093 
L 526.229125 170.776732 
L 526.511086 172.530996 
L 527.920889 190.71985 
L 528.766771 197.068935 
L 529.048731 200.125633 
L 530.458534 208.147569 
L 530.740495 212.425892 
L 531.304416 228.339 
L 532.432258 243.443643 
L 532.714219 236.4819 
L 532.996179 220.17861 
L 533.560101 164.849625 
L 534.124022 102.233268 
L 534.687943 71.882137 
L 535.251864 56.135367 
L 535.815785 47.124842 
L 536.097746 47.440006 
L 536.661667 55.189546 
L 537.789509 76.677083 
L 538.07147 85.922598 
L 538.635391 110.458458 
L 539.763233 131.995228 
L 540.891076 144.258716 
L 541.173036 145.955764 
L 541.454997 146.654756 
L 541.736958 147.681328 
L 542.018918 148.26276 
L 542.300879 148.034037 
L 542.582839 148.430086 
L 543.146761 152.902744 
L 543.428721 154.870785 
L 543.710682 154.952815 
L 544.274603 150.83752 
L 544.556563 150.235395 
L 544.838524 151.071893 
L 545.402445 154.30266 
L 545.966366 159.262011 
L 546.530288 165.325151 
L 547.094209 169.156757 
L 547.65813 175.096859 
L 549.067933 193.616488 
L 550.195775 210.953507 
L 551.041657 228.435766 
L 551.605578 244.118036 
L 552.169499 254.016 
L 552.45146 251.61455 
L 552.73342 237.163643 
L 553.579302 152.688041 
L 554.143223 104.372973 
L 554.707145 80.901137 
L 555.553026 61.813922 
L 555.834987 59.764893 
L 556.116947 61.46463 
L 556.680869 69.511874 
L 557.52675 84.932296 
L 558.936553 127.350324 
L 559.218514 130.324124 
L 559.782435 133.245957 
L 560.346356 136.817967 
L 561.474199 140.974324 
L 562.03812 143.902621 
L 562.602041 142.950906 
L 562.884002 145.459949 
L 563.165962 149.206431 
L 563.447923 150.832692 
L 563.729883 151.397885 
L 564.575765 157.186465 
L 564.857726 157.203167 
L 565.421647 158.039306 
L 565.703607 158.408131 
L 565.985568 160.374841 
L 566.267529 163.17758 
L 566.549489 164.492851 
L 566.83145 164.957797 
L 567.11341 167.019396 
L 567.677332 173.26569 
L 568.523213 178.988305 
L 568.805174 180.437997 
L 569.087134 183.636942 
L 569.651056 192.708433 
L 570.214977 197.173698 
L 571.060859 210.601949 
L 572.470661 233.319365 
L 572.752622 228.386616 
L 573.034583 213.334701 
L 574.162425 122.683307 
L 574.726346 97.501245 
L 575.290267 82.492616 
L 575.572228 78.150326 
L 575.854189 77.890397 
L 576.41811 82.515228 
L 576.70007 83.891098 
L 577.263991 91.369616 
L 577.827913 100.637948 
L 578.673794 126.18351 
L 579.237716 134.842936 
L 579.519676 137.756477 
L 579.801637 139.277616 
L 580.365558 141.372237 
L 580.647518 142.962587 
L 580.929479 143.900933 
L 581.21144 143.174985 
L 581.4934 141.82641 
L 581.775361 142.271512 
L 582.339282 146.421333 
L 582.621243 146.870975 
L 582.903203 148.391612 
L 583.467124 155.776933 
L 583.749085 157.564977 
L 584.594967 160.064435 
L 584.876927 160.362366 
L 585.158888 161.017432 
L 585.440848 161.990906 
L 585.722809 162.240419 
L 586.00477 161.848538 
L 586.28673 162.150969 
L 586.568691 163.101281 
L 586.850651 162.841974 
L 587.132612 161.433333 
L 587.414573 161.801977 
L 587.978494 167.088231 
L 588.260454 167.09536 
L 588.542415 167.898952 
L 589.106336 173.113067 
L 589.388297 173.22627 
L 589.670257 175.090722 
L 590.234178 183.937806 
L 590.516139 185.596819 
L 590.7981 188.688525 
L 591.925942 212.709626 
L 592.489863 219.853804 
L 592.771824 218.05983 
L 593.053784 206.833357 
L 594.181627 123.938074 
L 594.745548 103.363022 
L 595.309469 92.706714 
L 595.59143 88.823008 
L 595.87339 88.118322 
L 596.155351 89.291558 
L 596.437311 89.571506 
L 596.719272 90.917973 
L 597.283193 101.052432 
L 597.847114 105.092968 
L 598.692996 131.12276 
L 599.256917 133.446991 
L 599.538878 136.512084 
L 599.820838 138.124299 
L 600.38476 135.777219 
L 600.66672 136.506113 
L 601.512602 141.722004 
L 602.076523 145.781122 
L 602.358484 148.900779 
L 602.922405 157.47037 
L 603.204365 158.693926 
L 603.486326 158.220596 
L 603.768287 158.565873 
L 604.050247 160.111403 
L 604.332208 160.450703 
L 604.614168 157.895516 
L 604.896129 154.251527 
L 605.178089 152.903531 
L 605.46005 154.818253 
L 606.023971 161.125816 
L 606.305932 160.828184 
L 606.869853 150.497709 
L 607.151814 149.500786 
L 607.433774 152.851227 
L 607.715735 154.303833 
L 607.997695 152.880491 
L 608.279656 155.304832 
L 608.843577 172.84229 
L 609.125538 176.516061 
L 609.407498 177.825259 
L 610.817301 190.426871 
L 611.663183 202.312735 
L 612.227104 205.357896 
L 612.509065 203.637827 
L 612.791025 194.216299 
L 613.918868 135.858656 
L 614.764749 111.942164 
L 615.04671 107.385283 
L 615.892592 104.117458 
L 616.174552 104.223247 
L 616.738474 107.706939 
L 617.020434 108.760807 
L 617.302395 110.249489 
L 617.584355 113.231321 
L 618.148276 125.100713 
L 618.712198 136.104972 
L 619.558079 144.498441 
L 619.84004 146.06188 
L 620.403961 145.551012 
L 620.967882 148.53233 
L 621.249843 148.564014 
L 621.531803 148.320078 
L 622.659646 152.909571 
L 622.941606 154.599735 
L 623.223567 155.007365 
L 623.505528 154.035879 
L 623.787488 154.222172 
L 624.069449 155.507076 
L 624.351409 155.416374 
L 624.63337 154.036844 
L 624.915331 153.974276 
L 626.043173 159.428371 
L 626.325133 157.238165 
L 626.607094 154.168546 
L 626.889055 154.851184 
L 627.452976 161.0928 
L 627.734936 162.033039 
L 628.580818 169.081527 
L 628.862779 169.636198 
L 629.144739 172.032872 
L 629.70866 179.280591 
L 630.554542 185.716278 
L 631.118463 192.585487 
L 631.400424 194.56359 
L 631.682385 197.644694 
L 631.964345 199.296452 
L 632.246306 194.443298 
L 633.092188 153.468232 
L 633.092188 153.468232 
" clip-path="url(#p1e40e52ae3)" style="fill: none; stroke: #1f77b4; stroke-width: 1.5; stroke-linecap: square"/>
   </g>
   <g id="patch_3">
    <path d="M 47.192188 266.112 
L 47.192188 0 
" style="fill: none; stroke: #808080; stroke-width: 0.8; stroke-linejoin: miter; stroke-linecap: square"/>
   </g>
   <g id="patch_4">
    <path d="M 660.992188 266.112 
L 660.992188 0 
" style="fill: none; stroke: #000000; stroke-width: 0.8; stroke-linejoin: miter; stroke-linecap: square"/>
   </g>
   <g id="patch_5">
    <path d="M 47.192188 266.112 
L 660.992188 266.112 
" style="fill: none; stroke: #808080; stroke-width: 0.8; stroke-linejoin: miter; stroke-linecap: square"/>
   </g>
   <g id="patch_6">
    <path d="M 47.192188 0 
L 660.992188 0 
" style="fill: none; stroke: #000000; stroke-width: 0.8; stroke-linejoin: miter; stroke-linecap: square"/>
   </g>
  </g>
 </g>
 <defs>
  <clipPath id="p1e40e52ae3">
   <rect x="47.192188" y="0" width="613.8" height="266.112"/>
  </clipPath>
 </defs>
</svg>
