<svg xmlns="http://www.w3.org/2000/svg" xmlns:xlink="http://www.w3.org/1999/xlink" width="913.477" height="377.053" viewBox="0 0 685.107 282.79"><defs><style>*{stroke-linejoin:round;stroke-linecap:butt}</style></defs><g id="figure_1"><path id="patch_1" d="M0 282.79h685.107V0H0v282.79z" style="fill:none"/><g id="axes_1"><path id="patch_2" d="M71.308 266.112h613.8V0h-613.8v266.112z" style="fill:none"/><g id="matplotlib.axis_1"><g id="xtick_1"><g id="line2d_1"><defs><path id="m3b6038f422" d="M0 0v3.5" style="stroke:gray;stroke-width:.8"/></defs><use xlink:href="#m3b6038f422" x="99.207" y="266.112" style="fill:gray;stroke:gray;stroke-width:.8"/></g><g id="text_1" style="fill:gray" transform="matrix(.1 0 0 -.1 96.026 280.71)"><defs><path id="DejaVuSans-30" d="M2034 4250q-487 0-733-480-245-479-245-1442 0-959 245-1439 246-480 733-480 491 0 736 480 246 480 246 1439 0 963-246 1442-245 480-736 480zm0 500q785 0 1199-621 414-620 414-1801 0-1178-414-1799Q2819-91 2034-91q-784 0-1198 620-414 621-414 1799 0 1181 414 1801 414 621 1198 621z" transform="scale(.01563)"/></defs><use xlink:href="#DejaVuSans-30"/></g></g><g id="xtick_2"><use xlink:href="#m3b6038f422" id="line2d_2" x="168.958" y="266.112" style="fill:gray;stroke:gray;stroke-width:.8"/><g id="text_2" style="fill:gray" transform="matrix(.1 0 0 -.1 159.414 280.71)"><defs><path id="DejaVuSans-35" d="M691 4666h2478v-532H1269V2991q137 47 274 70 138 23 276 23 781 0 1237-428 457-428 457-1159 0-753-469-1171Q2575-91 1722-91q-294 0-599 50Q819 9 494 109v635q281-153 581-228t634-75q541 0 856 284 316 284 316 772 0 487-316 771-315 285-856 285-253 0-505-56-251-56-513-175v2344z" transform="scale(.01563)"/></defs><use xlink:href="#DejaVuSans-35"/><use xlink:href="#DejaVuSans-30" x="63.623"/><use xlink:href="#DejaVuSans-30" x="127.246"/></g></g><g id="xtick_3"><use xlink:href="#m3b6038f422" id="line2d_3" x="238.708" y="266.112" style="fill:gray;stroke:gray;stroke-width:.8"/><g id="text_3" style="fill:gray" transform="matrix(.1 0 0 -.1 225.982 280.71)"><defs><path id="DejaVuSans-31" d="M794 531h1031v3560L703 3866v575l1116 225h631V531h1031V0H794v531z" transform="scale(.01563)"/></defs><use xlink:href="#DejaVuSans-31"/><use xlink:href="#DejaVuSans-30" x="63.623"/><use xlink:href="#DejaVuSans-30" x="127.246"/><use xlink:href="#DejaVuSans-30" x="190.869"/></g></g><g id="xtick_4"><use xlink:href="#m3b6038f422" id="line2d_4" x="308.457" y="266.112" style="fill:gray;stroke:gray;stroke-width:.8"/><g id="text_4" style="fill:gray" transform="matrix(.1 0 0 -.1 295.733 280.71)"><use xlink:href="#DejaVuSans-31"/><use xlink:href="#DejaVuSans-35" x="63.623"/><use xlink:href="#DejaVuSans-30" x="127.246"/><use xlink:href="#DejaVuSans-30" x="190.869"/></g></g><g id="xtick_5"><use xlink:href="#m3b6038f422" id="line2d_5" x="378.207" y="266.112" style="fill:gray;stroke:gray;stroke-width:.8"/><g id="text_5" style="fill:gray" transform="matrix(.1 0 0 -.1 365.483 280.71)"><defs><path id="DejaVuSans-32" d="M1228 531h2203V0H469v531q359 372 979 998 621 627 780 809 303 340 423 576 121 236 121 464 0 372-261 606-261 235-680 235-297 0-627-103-329-103-704-313v638q381 153 712 231 332 78 607 78 725 0 1156-363 431-362 431-968 0-288-108-546-107-257-392-607-78-91-497-524-418-433-1181-1211z" transform="scale(.01563)"/></defs><use xlink:href="#DejaVuSans-32"/><use xlink:href="#DejaVuSans-30" x="63.623"/><use xlink:href="#DejaVuSans-30" x="127.246"/><use xlink:href="#DejaVuSans-30" x="190.869"/></g></g><g id="xtick_6"><use xlink:href="#m3b6038f422" id="line2d_6" x="447.957" y="266.112" style="fill:gray;stroke:gray;stroke-width:.8"/><g id="text_6" style="fill:gray" transform="matrix(.1 0 0 -.1 435.233 280.71)"><use xlink:href="#DejaVuSans-32"/><use xlink:href="#DejaVuSans-35" x="63.623"/><use xlink:href="#DejaVuSans-30" x="127.246"/><use xlink:href="#DejaVuSans-30" x="190.869"/></g></g><g id="xtick_7"><use xlink:href="#m3b6038f422" id="line2d_7" x="517.707" y="266.112" style="fill:gray;stroke:gray;stroke-width:.8"/><g id="text_7" style="fill:gray" transform="matrix(.1 0 0 -.1 504.983 280.71)"><defs><path id="DejaVuSans-33" d="M2597 2516q453-97 707-404 255-306 255-756 0-690-475-1069Q2609-91 1734-91q-293 0-604 58T488 141v609q262-153 574-231 313-78 654-78 593 0 904 234t311 681q0 413-289 645-289 233-804 233h-544v519h569q465 0 712 186t247 536q0 359-255 551-254 193-729 193-260 0-557-57-297-56-653-174v562q360 100 674 150t592 50q719 0 1137-327 419-326 419-882 0-388-222-655t-631-370z" transform="scale(.01563)"/></defs><use xlink:href="#DejaVuSans-33"/><use xlink:href="#DejaVuSans-30" x="63.623"/><use xlink:href="#DejaVuSans-30" x="127.246"/><use xlink:href="#DejaVuSans-30" x="190.869"/></g></g><g id="xtick_8"><use xlink:href="#m3b6038f422" id="line2d_8" x="587.457" y="266.112" style="fill:gray;stroke:gray;stroke-width:.8"/><g id="text_8" style="fill:gray" transform="matrix(.1 0 0 -.1 574.732 280.71)"><use xlink:href="#DejaVuSans-33"/><use xlink:href="#DejaVuSans-35" x="63.623"/><use xlink:href="#DejaVuSans-30" x="127.246"/><use xlink:href="#DejaVuSans-30" x="190.869"/></g></g><g id="xtick_9"><use xlink:href="#m3b6038f422" id="line2d_9" x="657.207" y="266.112" style="fill:gray;stroke:gray;stroke-width:.8"/><g id="text_9" style="fill:gray" transform="matrix(.1 0 0 -.1 644.482 280.71)"><defs><path id="DejaVuSans-34" d="M2419 4116 825 1625h1594v2491zm-166 550h794V1625h666v-525h-666V0h-628v1100H313v609l1940 2957z" transform="scale(.01563)"/></defs><use xlink:href="#DejaVuSans-34"/><use xlink:href="#DejaVuSans-30" x="63.623"/><use xlink:href="#DejaVuSans-30" x="127.246"/><use xlink:href="#DejaVuSans-30" x="190.869"/></g></g></g><g id="matplotlib.axis_2"><g id="ytick_1"><g id="line2d_10"><defs><path id="mb4d9bfcaa9" d="M0 0h-3.5" style="stroke:gray;stroke-width:.8"/></defs><use xlink:href="#mb4d9bfcaa9" x="71.308" y="247.759" style="fill:gray;stroke:gray;stroke-width:.8"/></g><g id="text_10" style="fill:gray" transform="matrix(.16 0 0 -.16 0 253.838)"><defs><path id="DejaVuSans-2212" d="M678 2272h4006v-531H678v531z" transform="scale(.01563)"/></defs><use xlink:href="#DejaVuSans-2212"/><use xlink:href="#DejaVuSans-32" x="83.789"/><use xlink:href="#DejaVuSans-30" x="147.412"/><use xlink:href="#DejaVuSans-30" x="211.035"/><use xlink:href="#DejaVuSans-30" x="274.658"/><use xlink:href="#DejaVuSans-30" x="338.281"/></g></g><g id="ytick_2"><use xlink:href="#mb4d9bfcaa9" id="line2d_11" x="71.308" y="199.617" style="fill:gray;stroke:gray;stroke-width:.8"/><g id="text_11" style="fill:gray" transform="matrix(.16 0 0 -.16 0 205.696)"><use xlink:href="#DejaVuSans-2212"/><use xlink:href="#DejaVuSans-31" x="83.789"/><use xlink:href="#DejaVuSans-30" x="147.412"/><use xlink:href="#DejaVuSans-30" x="211.035"/><use xlink:href="#DejaVuSans-30" x="274.658"/><use xlink:href="#DejaVuSans-30" x="338.281"/></g></g><g id="ytick_3"><use xlink:href="#mb4d9bfcaa9" id="line2d_12" x="71.308" y="151.475" style="fill:gray;stroke:gray;stroke-width:.8"/><use xlink:href="#DejaVuSans-30" id="text_12" style="fill:gray" transform="matrix(.16 0 0 -.16 54.127 157.554)"/></g><g id="ytick_4"><use xlink:href="#mb4d9bfcaa9" id="line2d_13" x="71.308" y="103.333" style="fill:gray;stroke:gray;stroke-width:.8"/><g id="text_13" style="fill:gray" transform="matrix(.16 0 0 -.16 13.408 109.412)"><use xlink:href="#DejaVuSans-31"/><use xlink:href="#DejaVuSans-30" x="63.623"/><use xlink:href="#DejaVuSans-30" x="127.246"/><use xlink:href="#DejaVuSans-30" x="190.869"/><use xlink:href="#DejaVuSans-30" x="254.492"/></g></g><g id="ytick_5"><use xlink:href="#mb4d9bfcaa9" id="line2d_14" x="71.308" y="55.191" style="fill:gray;stroke:gray;stroke-width:.8"/><g id="text_14" style="fill:gray" transform="matrix(.16 0 0 -.16 13.408 61.27)"><use xlink:href="#DejaVuSans-32"/><use xlink:href="#DejaVuSans-30" x="63.623"/><use xlink:href="#DejaVuSans-30" x="127.246"/><use xlink:href="#DejaVuSans-30" x="190.869"/><use xlink:href="#DejaVuSans-30" x="254.492"/></g></g><g id="ytick_6"><use xlink:href="#mb4d9bfcaa9" id="line2d_15" x="71.308" y="7.049" style="fill:gray;stroke:gray;stroke-width:.8"/><g id="text_15" style="fill:gray" transform="matrix(.16 0 0 -.16 13.408 13.128)"><use xlink:href="#DejaVuSans-33"/><use xlink:href="#DejaVuSans-30" x="63.623"/><use xlink:href="#DejaVuSans-30" x="127.246"/><use xlink:href="#DejaVuSans-30" x="190.869"/><use xlink:href="#DejaVuSans-30" x="254.492"/></g></g></g><path id="line2d_16" d="m99.207 151.667.282-.374.282.356.282-.34.282.325.282-.31.282.297.282-.286.282.275.282-.265.282.256.282-.247.282.238.282-.23.282.223.282-.216.282.21.282-.204.282.198.282-.192.282.186.282-.18.282.175.282-.171.282.167.282-.163.281.159.282-.155.282.15.282-.146.282.143.282-.14.282.136.282-.132.282.129.282-.125.282.121.282-.118.282.115.282-.111.282.107.282-.103.282.098.282-.092.282.085.282-.076.564.022.282-.009.564 1.102.281-.423.282.438.282.048.564-1.077.282.934.282.372.282.575.282 3.205.282 5.27.282 1.988.282-1.311.282-.48.282 1.759.282.742.282.168.282 1.365.846 6.47.282 1.287.282-.484.564-3.867.282-6.778.845-37.49.282-7.277.282-3.909.282-.156.564 3.884.564 1.17.282.75.282-.407.282-.001.282 2.028.846 11.908.846 27.573.282 3.314.282.217.282-1.143.564-3.917.563-1.028.282-1.16.282.65.282 1.667.282.12.282-.9.282 1.073.282 1.593.282-.58.282-2.025.282-.847.282-.239.282-.556.564-1.48.282-.18.564 2.147.282-.57.282-1.08.282.945.282 1.544.564.454.563 3.804.564 1.375.846 4.065.564 2.87.846 5.49.282.123.282.76.282 1.797.282-1.263.282-7.419 1.128-48.766.282-6.976.282-3.59.282-1.025.846 1.756.563-1.766.282.072.282 1.331.282 2.283.282 3.883.564 12.316.846 21.758.282 2.377.282-.268.564-2.604.282-.317 1.128 6.292.282.532.564-2.777.282 1.506.282 2.331.563 1.787.564 4.394.282-.254.564-.916.282-1.117.282.289.282 1.853.282.263.564-3.543.282-.114.282-1.48.564-6.196.282-.944.564.358.564-.338.282.174.564.04.563 2.087.282-1.38.282-3.062.282-.738.846 9.961.282 4.496.564 13.581.564 7.99.282 5.581.282 1.17.282-9.046.846-44.786.564-17.38.282-2.167.282 2.428.282 3.727.282 1.894.282-.363.281-1.026.282-.086.282.494.282 1.001.282 2.566.564 9.196.282 6.56.846 26.534.282 1.3.282-.228.282-.895.846-6.725.282-.48.282-.705.282-1.08 1.128-7.098.563-1.506.282.074.564 2.31.282.095.564-1.308.282-.355.282-1.514.282-2.71.282-1.441.282.452.282.154.282-.78.282.473.564 3.278.564 2.438.564.618.282 3.294.282 5.62.282 3.128.282.13.282.668.281 1.595.282-.165.282-1.521.282-.76.282.389.282 1.322.282 2.438.282 1.38.282-1.745.564-5.236.282-5.85.846-39.757.282-1.328.282.113.282-1.215.282.983.282 3.072.282.199.564-6.296.282-.336.282-.028.281.98.282 4.709 1.41 36.638.282 1.935.564.234.282-.567.564-3.156.282-.09.282.465.282.161.282.69.564 3.927.282-.507.282-1.017.282.68.282.306.282-1.719.282-.748.281 1.812.282-.003.564-8.187.282-.502.282.6.564-.824.282.564.282.232.282-.175.282.455.564 2.291.564 1.222.282.604.282 1.1.564 2.721.282.677.282 1.162.564 3.596.282.482.282.222.281-1.671.282-8.516.846-46.846.282-7.476.282-3.972.282-.898.564 1.638.282.536.564 2.126.282.332.282 2.408.564 8.795.282 2.868.282 5.74.564 18.61.282 5.129.282 2.358.282 1.313.282.176.281-1.24.564-3.346.282-.945.846-1.15.282.577.846 6.808.564.51.846 2.146 1.128 7.478.282 2.49.282-.966.282-2.758.282.64.563 6.31.282.315.282 1.986.564 6.178.564 2.273.282.406.282 1.053.282 5.14.282 7.26.282 3.444.282.204.282 1.22.282-1.738.282-12.446.564-38.44.564-24.905.282-8.107.282-3.421.564-2.468.282 1.057.282 1.734.281-.322.282-.135.282 3.523.564 8.176.282 2.918.282 5.682 1.128 34.498.282 1.084.282-.692.282-1.151.846-7.281.282-.936.282-.26.564 1.75.564-1.194.564 4.102.281.33.282-.956.282-1.563.564-3.9.282.442.282.736.282-.068.282 1.272.564 6.3.282.356.282-.344.282.942.564 3.447.564 1.852.564 2.953.564-.541.564 2.595.282.206.282.83.281 2.009.282 1.134.282-.158.282.903.564 4.415.282.95.282 1.511.282.778.282-4.818.564-30.722.564-29.078.282-7.665.282-3.356.846-3.804.282-.179.282-.707.282-2.5.282-1.386.282 2.562.845 15.65 1.128 43.798.282 4 .282-.62.282-1.86.564-1.806.564-2.437 1.128-2.082.282-.844.282.036.564 3.947.282-.28.282-1.143.282-.045.282.428.281-.103.282.066.282.817.846 3.584.564.62.282.273.564-.539.282.54.282.835.282.098.282.41.846 7.142.282-.183.282-.947.282-.382.846 1.918.282 1.082.845 6.682.282.966.282-.715.282-6.209.846-42.296.564-26.51.282-7.028.282-1.798.564-.995.282 1.792.564 5.68.282 1.275.282 2.06.282 3.95.564 14.817 1.127 35.909.282 2.034.282-1.376 1.128-10.2.564-3.487.846-2.716.282.102.282 1.667.282.735.564-3.365.282.196.564 4.532.564 6.14.564 7.483.282 1.6.281.77.282 1.612.282.93.564-3.497.282 1.077.282 1.811.564-.913.564 6.105.282.716.282-.229.564 3.732.282.524.282 1.323.564 8.184.282 1.842.282-.288.282-4.03.282-11.396.846-50.454.563-22.84.282-3.638.282.887.282.469.282-.856.282.639.564 3.61.282 1.469.282 4.555.846 22.289.846 32.281.282 2.019.282.06.282-.699.282-3.403.564-11.075.282-2.338.845-3.134.282 1.334.846 7.825.282 1.583.564 1.142.846 5.133.282.249.282 1.887 1.974 20.22.282.412.282-.313.282 1.26.282 2.21.563 1.935.282 3.486.564 8.264.282 1.133.282.086.282-2.36.282-8.349.564-36.982.564-36.064.564-22.084.564-12.403.564-7.436.282-1.818.282.202.282 1.744.282 4.034.564 15.286.282 11.07 1.127 62.272.282 4.216.282 1.47.282-.59.564-4.32.282-.843.282-.006.282-.19.282-.472.282-.164.564.664.282.633.564 2.638.282.102.564-2.248.564-.984.282.038.563 3.02.282-.063.282-1.776.282-.69.846 4.92.564 4.88.564 5.447.846 11.606.564 5.407.846 11.647.282.37.282-3.237.282-7.22.282-14.386.845-65.66.846-39.829.846-26.6.564-14.589.282-4.202.282 1.197.564 12.753.282 8.859.282 14.477 1.128 90.87.282 9.114.282 3.275.282-1.712.282-4.548.282-2.673.282.261.281-.628.282-1.972.282 1.122.564 7.624.282.04.282-.09.282.506.282-.269.282-.506.564.538.282-.234.282.065.282.311.282-.483.564-2.11.282.324 1.973 6.982.564 4.916.846 4.085.282 1.905.564 6.6.282.602.282-.321.282 2.72.282 4.345.282 1.599.282-1.995.282-5.748.282-12.572 1.41-92.83 1.41-40.847.563-11.193.282.014.282 4.66.564 15.39.282 12.844.564 44.746.564 44.127.282 10.014.282 4.123.282-.757.564-8.359.282 1.13.282 2.063.282-1.913.282-3.95.282-1.513.282.704.282.3.282-.398.281.006.282.509.282.953.564 3.245.282.719.282-.37.282-.683.282-.22.846.641.282.956.564 4.078.282.462.282.077.282 1.537 1.41 14.107.846 9.01.563 5.587.282.796.282-3.96.282-10.811.564-37.948.846-61.392.846-34.536.564-17.028.282-4.192.282.42.564 8.716.282 5.88.282 9.828.564 37.098.845 65.77.282 9.87.282 3.99.282-.046.564-4.279.846-9.224.564.273.282-.887.282.645.564 6.082.282 1.01.282.553.564 2.164.564 5.105.282.765.282-.791.282 1.244.282 3.017.281 1.026.282-.589.282 1.828.564 6.722.282.713.282 1.025.282 2.186.282 3.845 1.692 38.212.282 1.503.282-2.384.282-8.019.282-15.884 1.692-131.568.282-15.511.281-7.991.564-4.694.564-7.505.564-5.75.282-3.204.282 1.48.282 8.538.564 29.126 1.128 67.267.846 22.588.282 3.357.282 1.683.564 5.887.282-2.15.282-4.049.281-1.78.564-.013.282 1.115.846 7.021 1.974 11.32.564 6.214.564 7.74.564 3.844.564 7.644.846 12.677.845 13.987.282 5.577.282.127.282-7.149.282-13.79 1.974-149.66.846-21.695.564-14.757.846-20.626.282-1.286.282 3.818.282 9.777.563 37.432 1.128 74.42.564 21.815.282 6.603.282 1.945.282-2.201.282-1.309.282 1.08.282-.874.282-4.012.282-2.317.564 1.95.282-.794.282-.21.282.91.282 1.806.282 4.09.564 9.878.282 1.735.845 7.218.282-.225.282 1.666.564 5.455.282 1.586 1.41 17.337.846 14.863.564 9.448.282.656.282-6.862.282-17.03 1.41-114.195.563-30.27.846-24.643 1.128-30.188.282 1.402.282 7.204.564 25.749 1.128 60.502.846 42.34.564 16.278.282 9.191.282 1.982 1.127-15.897.282-5.998.282-2.94.564-1.81.282.73.282 1.959.282.583.282.116.282 3.101.564 9.407.282 3 1.128 18.897.564 9.179.282 1.953.282.756.282 3.476 1.691 35.325.564 6.684.282-2.964.282-13.115.846-74.911.564-49.616.564-30.552 1.128-54.163.564-9.675.282-2.955.282.097.282 4.103.282 8.67.563 30.561 1.41 79.063.846 37.87.282 6.308.564 4.554.282 1.165.282-.051.282-.71.282-1.217.846-5.268.564-1.184.282.393.282 1.582.282 2.492 1.127 12.845.282.698.282.38.282.784 1.128 6.222.282 2.519.564 9.643 1.41 28.555.564 10.673.282-.466.282-12.303.564-48.074 1.127-112.758.846-45.252.282-9.586.282-5.439.282-1.802.282 1.587.564 3.82.282 4.621 1.128 35.688.846 45.604 1.41 63.281.563 10.46.564 4.669.282 1.227.846 1.744.564.228.282-.004.564-1.056.282.863.846 6.76.564 2.624.846 7.17.282.637.282-.18.282.8 1.127 11.927.564 7.606.282 1.363.564 8.358.282-4.44.564-37.638.564-48.094.564-50.812.846-44.844.282-9.41.846-14.584.282.065.563 6.722.282 5.979.564 25.786 1.41 74.754.564 21.037.564 10.58.282 2.4.564.83.282 1.242.282.063 1.41-15.417.282-.08.282 1.363.282.064.281-.888.282 1.255.846 9.772 1.128 20.633.564 4.414 1.128 16.253.282 1.61.564 7.203.564 6.4.282 1.272.282-4.64.282-14.123.564-49.01.845-86.144.564-33.25.564-20.178.282-7.798.282-4.384.282 1.073.846 11.248.282 10.644.564 32.445 2.538 96.157.563 12.987.282 4.012.282 2.046.282 1.218.282.219.564-2.587.282-.246.282-1.877.282-3.692.282-.553.564 6.798.282.173.282 2.9.564 15.095.282 2.547.282.822.564 4.294.564.434.282 3.217 1.691 37.279.282 3.84.282-4.706.282-14.533.564-50.911.564-67.132.282-22.049.564-19.396.564-14.04.564-7.855.282-.317.564 5.129.282 3.593.564 14.123 1.691 48.57 1.41 21.043.282 2.059.846 10.345.282.883.282 3.629.282 5.074.282 2.375.282.298.282 1.98.846 12.202.564 8.544.563 4.66.282.461.282-1.034.282.559.282 2.347.282.96.282-.453.282 1.815.564 6.866.282 1.62.282 2.904.846 14.662 1.128 21.953.282 1.439.282-8.526.282-18.834.564-61.294.563-67.155.282-17.812.564-15.88.564-11.273.282-1.686.282.722.564 3.32.282 4.718.846 23.738 1.128 46.654.282 2.275.564 8.963.282.476.282-.15.282 1.737.563 4.789.282 1.332.846 1.867.282-.13.282-.517.282 1.168.846 8.76.564 9.944.282 3.204.282 5.096.564 16.15.564 7.104.564 4.875.564 3.702.282 1.846.282.305.281-.358.282.332.564 2.49.282 1.684.282 2.9.846 14.28.564 12.207.282.272.282-7.731.282-16.642.564-59.715.564-58.15.564-28.879 1.128-29.425.282-.402.563 2.443.282 4.442 1.128 41.675.564 19.145.564 12.863.282 4.046.564 5.283.282 3.838.282 1.441.282-1.255.282-.048.282 2.184.282 1.215.282-1.039.282.413 1.128 15.66.281 2.782 1.692 27.844.282 5.205.282 3.016.282.343.282.896.564 7.42.282-.145.282 1.058.846 22.663.282 1.008.846 9.127.282.56.282.27.282-5.387.281-16.833 1.128-118.97.282-12.98.564-13.908.846-18.83.282.389.846 10.258.564 20.046.846 32.463.564 11.582.564 6.463.563 3.143.564 6.882.564 7.898.282 1.72.282.209.282.54 1.128 3.933.282.446.282 1.112 2.256 25.734.564 13.979.282 3.56.282 1.769.845 11.39.282 2.002.282 4.332.846 19.579.282 8.62.282 4.282.282-5.883.282-16.871 1.41-123.89.564-14.345.846-12.83.282-.591.564 5.211.563 5.539.282 4.66 1.41 39.148.282 4.14.846 5.752.282.272.282-.193.282 1.621.282.89.564-4.047.564 1.178.282-.727.282 1.92.564 8.851.563 2.006.564 3.974.846 11.066.282 1.24.564 6.282.282.591.282-1.55.282-.252.282 1.154.282 2.164.282 4.345.564 11.888.846 12.89 1.128 21.354.282-1.036.282-10.383 1.127-87.178.564-17.787.564-8.361.564-5.692.282-.81.564 2.953.564.128.282 2.23.282 4.605.564 16.845.564 15.11.564 5.29.282 1.684.563-.156.282.968.282.107.564-6.21.282-.545.282.526.564-2.932.282 3.362.282 5.918.282 2.612.282-.237.282 1.485.282 3.641.282 1.57.564-1.983.282 1.87.564 5.347.282 1.089.282 1.619.564 7.872.563 5.916.846 4.111 1.128 14.593.846 16.296.282 3.594.282 2.127.282-6.72.564-46.466.564-41.942.564-18.345.846-15.778.282-2.483.282-.27.281.769.282 2.121.564 8.215.564 11.671.846 19.908.564 7.946.564 4.857.564 2.828.282 1.713.846 2.665.282 1.52.282.689.282.096.282-.9.564-3.212.845.801.282 1.776.564 6.908.564.936.282 1.782.282.223.282-.89.282.715.282 2.169.564 1.176.282 3.282.564 11.216 1.128 13.83.282 2.597.846 3.16.281-6.348.846-46.4.564-14.505 1.41-22.435.282-1.16.282-.676.282.598.282 2.319.282.856.282-.24.282 2.132.846 15.636.564 15.542.282 3.768.282.76.281.177.282.35.282.072.846 3.073.282.277.564 2.08.564 2.97.282.514.282-.218.846 2.359.282-.329.564 1.562.282 1.514.564 5.57.282-.157.282-1.184.282.725.281 2.395.282.897.282.153.282.631.282 1.117.282.417.282 1.387 1.974 19.838.282-.524.282-4.793.282-9.433.846-35.562.564-11.583.846-7.611.563-6.924.282-1.456.564.203.564 2.203.564 4.127.564 8.53.564 9.138.282 1.4.282-.103.282 1.34.282 2.852.564 8.3.282 2.838.282.32.282-1.203.564-5.715.282-2.121.282.111.281.79.282 1.65.282.46.282.745.282.274.282 1.475.282.757.282 1.149.282.082.564 2.825.282 2.833.846 4.13.282 3.14.564 2.495.282-1.74.282 1.777.282.71.282 3.39.282 1.787.282 8.39.282 2.33.281 8.175h0" clip-path="url(#p34ac083fc2)" style="fill:none;stroke:#1f77b4;stroke-width:1.5;stroke-linecap:square"/><path id="patch_3" d="M71.308 266.112V0" style="fill:none;stroke:gray;stroke-width:.8;stroke-linejoin:miter;stroke-linecap:square"/><path id="patch_4" d="M685.107 266.112V0" style="fill:none;stroke:#000;stroke-width:.8;stroke-linejoin:miter;stroke-linecap:square"/><path id="patch_5" d="M71.308 266.112h613.8" style="fill:none;stroke:gray;stroke-width:.8;stroke-linejoin:miter;stroke-linecap:square"/><path id="patch_6" d="M71.308 0h613.8" style="fill:none;stroke:#000;stroke-width:.8;stroke-linejoin:miter;stroke-linecap:square"/></g></g><defs><clipPath id="p34ac083fc2"><path d="M71.308 0h613.8v266.112h-613.8z"/></clipPath></defs></svg>