<?xml version="1.0" encoding="utf-8" standalone="no"?>
<!DOCTYPE svg PUBLIC "-//W3C//DTD SVG 1.1//EN"
  "http://www.w3.org/Graphics/SVG/1.1/DTD/svg11.dtd">
<svg xmlns:xlink="http://www.w3.org/1999/xlink" width="660.992188pt" height="282.790125pt" viewBox="0 0 660.992188 282.790125" xmlns="http://www.w3.org/2000/svg" version="1.1">
 <metadata>
  <rdf:RDF xmlns:dc="http://purl.org/dc/elements/1.1/" xmlns:cc="http://creativecommons.org/ns#" xmlns:rdf="http://www.w3.org/1999/02/22-rdf-syntax-ns#">
   <cc:Work>
    <dc:type rdf:resource="http://purl.org/dc/dcmitype/StillImage"/>
    <dc:date>2023-03-06T19:25:50.819973</dc:date>
    <dc:format>image/svg+xml</dc:format>
    <dc:creator>
     <cc:Agent>
      <dc:title>Matplotlib v3.6.3, https://matplotlib.org/</dc:title>
     </cc:Agent>
    </dc:creator>
   </cc:Work>
  </rdf:RDF>
 </metadata>
 <defs>
  <style type="text/css">*{stroke-linejoin: round; stroke-linecap: butt}</style>
 </defs>
 <g id="figure_1">
  <g id="patch_1">
   <path d="M -0 282.790125 
L 660.992188 282.790125 
L 660.992188 0 
L -0 0 
L -0 282.790125 
z
" style="fill: none"/>
  </g>
  <g id="axes_1">
   <g id="patch_2">
    <path d="M 47.192188 266.112 
L 660.992188 266.112 
L 660.992188 0 
L 47.192188 0 
L 47.192188 266.112 
z
" style="fill: none"/>
   </g>
   <g id="matplotlib.axis_1">
    <g id="xtick_1">
     <g id="line2d_1">
      <defs>
       <path id="m277efc41f0" d="M 0 0 
L 0 3.5 
" style="stroke: #000000; stroke-width: 0.8"/>
      </defs>
      <g>
       <use xlink:href="#m277efc41f0" x="75.092188" y="266.112" style="stroke: #000000; stroke-width: 0.8"/>
      </g>
     </g>
     <g id="text_1">
      <!-- 0 -->
      <g transform="translate(71.910938 280.710438) scale(0.1 -0.1)">
       <defs>
        <path id="DejaVuSans-30" d="M 2034 4250 
Q 1547 4250 1301 3770 
Q 1056 3291 1056 2328 
Q 1056 1369 1301 889 
Q 1547 409 2034 409 
Q 2525 409 2770 889 
Q 3016 1369 3016 2328 
Q 3016 3291 2770 3770 
Q 2525 4250 2034 4250 
z
M 2034 4750 
Q 2819 4750 3233 4129 
Q 3647 3509 3647 2328 
Q 3647 1150 3233 529 
Q 2819 -91 2034 -91 
Q 1250 -91 836 529 
Q 422 1150 422 2328 
Q 422 3509 836 4129 
Q 1250 4750 2034 4750 
z
" transform="scale(0.015625)"/>
       </defs>
       <use xlink:href="#DejaVuSans-30"/>
      </g>
     </g>
    </g>
    <g id="xtick_2">
     <g id="line2d_2">
      <g>
       <use xlink:href="#m277efc41f0" x="144.842188" y="266.112" style="stroke: #000000; stroke-width: 0.8"/>
      </g>
     </g>
     <g id="text_2">
      <!-- 500 -->
      <g transform="translate(135.298438 280.710438) scale(0.1 -0.1)">
       <defs>
        <path id="DejaVuSans-35" d="M 691 4666 
L 3169 4666 
L 3169 4134 
L 1269 4134 
L 1269 2991 
Q 1406 3038 1543 3061 
Q 1681 3084 1819 3084 
Q 2600 3084 3056 2656 
Q 3513 2228 3513 1497 
Q 3513 744 3044 326 
Q 2575 -91 1722 -91 
Q 1428 -91 1123 -41 
Q 819 9 494 109 
L 494 744 
Q 775 591 1075 516 
Q 1375 441 1709 441 
Q 2250 441 2565 725 
Q 2881 1009 2881 1497 
Q 2881 1984 2565 2268 
Q 2250 2553 1709 2553 
Q 1456 2553 1204 2497 
Q 953 2441 691 2322 
L 691 4666 
z
" transform="scale(0.015625)"/>
       </defs>
       <use xlink:href="#DejaVuSans-35"/>
       <use xlink:href="#DejaVuSans-30" x="63.623047"/>
       <use xlink:href="#DejaVuSans-30" x="127.246094"/>
      </g>
     </g>
    </g>
    <g id="xtick_3">
     <g id="line2d_3">
      <g>
       <use xlink:href="#m277efc41f0" x="214.592188" y="266.112" style="stroke: #000000; stroke-width: 0.8"/>
      </g>
     </g>
     <g id="text_3">
      <!-- 1000 -->
      <g transform="translate(201.867188 280.710438) scale(0.1 -0.1)">
       <defs>
        <path id="DejaVuSans-31" d="M 794 531 
L 1825 531 
L 1825 4091 
L 703 3866 
L 703 4441 
L 1819 4666 
L 2450 4666 
L 2450 531 
L 3481 531 
L 3481 0 
L 794 0 
L 794 531 
z
" transform="scale(0.015625)"/>
       </defs>
       <use xlink:href="#DejaVuSans-31"/>
       <use xlink:href="#DejaVuSans-30" x="63.623047"/>
       <use xlink:href="#DejaVuSans-30" x="127.246094"/>
       <use xlink:href="#DejaVuSans-30" x="190.869141"/>
      </g>
     </g>
    </g>
    <g id="xtick_4">
     <g id="line2d_4">
      <g>
       <use xlink:href="#m277efc41f0" x="284.342188" y="266.112" style="stroke: #000000; stroke-width: 0.8"/>
      </g>
     </g>
     <g id="text_4">
      <!-- 1500 -->
      <g transform="translate(271.617188 280.710438) scale(0.1 -0.1)">
       <use xlink:href="#DejaVuSans-31"/>
       <use xlink:href="#DejaVuSans-35" x="63.623047"/>
       <use xlink:href="#DejaVuSans-30" x="127.246094"/>
       <use xlink:href="#DejaVuSans-30" x="190.869141"/>
      </g>
     </g>
    </g>
    <g id="xtick_5">
     <g id="line2d_5">
      <g>
       <use xlink:href="#m277efc41f0" x="354.092188" y="266.112" style="stroke: #000000; stroke-width: 0.8"/>
      </g>
     </g>
     <g id="text_5">
      <!-- 2000 -->
      <g transform="translate(341.367188 280.710438) scale(0.1 -0.1)">
       <defs>
        <path id="DejaVuSans-32" d="M 1228 531 
L 3431 531 
L 3431 0 
L 469 0 
L 469 531 
Q 828 903 1448 1529 
Q 2069 2156 2228 2338 
Q 2531 2678 2651 2914 
Q 2772 3150 2772 3378 
Q 2772 3750 2511 3984 
Q 2250 4219 1831 4219 
Q 1534 4219 1204 4116 
Q 875 4013 500 3803 
L 500 4441 
Q 881 4594 1212 4672 
Q 1544 4750 1819 4750 
Q 2544 4750 2975 4387 
Q 3406 4025 3406 3419 
Q 3406 3131 3298 2873 
Q 3191 2616 2906 2266 
Q 2828 2175 2409 1742 
Q 1991 1309 1228 531 
z
" transform="scale(0.015625)"/>
       </defs>
       <use xlink:href="#DejaVuSans-32"/>
       <use xlink:href="#DejaVuSans-30" x="63.623047"/>
       <use xlink:href="#DejaVuSans-30" x="127.246094"/>
       <use xlink:href="#DejaVuSans-30" x="190.869141"/>
      </g>
     </g>
    </g>
    <g id="xtick_6">
     <g id="line2d_6">
      <g>
       <use xlink:href="#m277efc41f0" x="423.842188" y="266.112" style="stroke: #000000; stroke-width: 0.8"/>
      </g>
     </g>
     <g id="text_6">
      <!-- 2500 -->
      <g transform="translate(411.117188 280.710438) scale(0.1 -0.1)">
       <use xlink:href="#DejaVuSans-32"/>
       <use xlink:href="#DejaVuSans-35" x="63.623047"/>
       <use xlink:href="#DejaVuSans-30" x="127.246094"/>
       <use xlink:href="#DejaVuSans-30" x="190.869141"/>
      </g>
     </g>
    </g>
    <g id="xtick_7">
     <g id="line2d_7">
      <g>
       <use xlink:href="#m277efc41f0" x="493.592188" y="266.112" style="stroke: #000000; stroke-width: 0.8"/>
      </g>
     </g>
     <g id="text_7">
      <!-- 3000 -->
      <g transform="translate(480.867188 280.710438) scale(0.1 -0.1)">
       <defs>
        <path id="DejaVuSans-33" d="M 2597 2516 
Q 3050 2419 3304 2112 
Q 3559 1806 3559 1356 
Q 3559 666 3084 287 
Q 2609 -91 1734 -91 
Q 1441 -91 1130 -33 
Q 819 25 488 141 
L 488 750 
Q 750 597 1062 519 
Q 1375 441 1716 441 
Q 2309 441 2620 675 
Q 2931 909 2931 1356 
Q 2931 1769 2642 2001 
Q 2353 2234 1838 2234 
L 1294 2234 
L 1294 2753 
L 1863 2753 
Q 2328 2753 2575 2939 
Q 2822 3125 2822 3475 
Q 2822 3834 2567 4026 
Q 2313 4219 1838 4219 
Q 1578 4219 1281 4162 
Q 984 4106 628 3988 
L 628 4550 
Q 988 4650 1302 4700 
Q 1616 4750 1894 4750 
Q 2613 4750 3031 4423 
Q 3450 4097 3450 3541 
Q 3450 3153 3228 2886 
Q 3006 2619 2597 2516 
z
" transform="scale(0.015625)"/>
       </defs>
       <use xlink:href="#DejaVuSans-33"/>
       <use xlink:href="#DejaVuSans-30" x="63.623047"/>
       <use xlink:href="#DejaVuSans-30" x="127.246094"/>
       <use xlink:href="#DejaVuSans-30" x="190.869141"/>
      </g>
     </g>
    </g>
    <g id="xtick_8">
     <g id="line2d_8">
      <g>
       <use xlink:href="#m277efc41f0" x="563.342188" y="266.112" style="stroke: #000000; stroke-width: 0.8"/>
      </g>
     </g>
     <g id="text_8">
      <!-- 3500 -->
      <g transform="translate(550.617188 280.710438) scale(0.1 -0.1)">
       <use xlink:href="#DejaVuSans-33"/>
       <use xlink:href="#DejaVuSans-35" x="63.623047"/>
       <use xlink:href="#DejaVuSans-30" x="127.246094"/>
       <use xlink:href="#DejaVuSans-30" x="190.869141"/>
      </g>
     </g>
    </g>
    <g id="xtick_9">
     <g id="line2d_9">
      <g>
       <use xlink:href="#m277efc41f0" x="633.092188" y="266.112" style="stroke: #000000; stroke-width: 0.8"/>
      </g>
     </g>
     <g id="text_9">
      <!-- 4000 -->
      <g transform="translate(620.367188 280.710438) scale(0.1 -0.1)">
       <defs>
        <path id="DejaVuSans-34" d="M 2419 4116 
L 825 1625 
L 2419 1625 
L 2419 4116 
z
M 2253 4666 
L 3047 4666 
L 3047 1625 
L 3713 1625 
L 3713 1100 
L 3047 1100 
L 3047 0 
L 2419 0 
L 2419 1100 
L 313 1100 
L 313 1709 
L 2253 4666 
z
" transform="scale(0.015625)"/>
       </defs>
       <use xlink:href="#DejaVuSans-34"/>
       <use xlink:href="#DejaVuSans-30" x="63.623047"/>
       <use xlink:href="#DejaVuSans-30" x="127.246094"/>
       <use xlink:href="#DejaVuSans-30" x="190.869141"/>
      </g>
     </g>
    </g>
   </g>
   <g id="matplotlib.axis_2">
    <g id="ytick_1">
     <g id="line2d_10">
      <defs>
       <path id="m675c176f65" d="M 0 0 
L -3.5 0 
" style="stroke: #000000; stroke-width: 0.8"/>
      </defs>
      <g>
       <use xlink:href="#m675c176f65" x="47.192188" y="239.098037" style="stroke: #000000; stroke-width: 0.8"/>
      </g>
     </g>
     <g id="text_10">
      <!-- −30000 -->
      <g transform="translate(0 242.897255) scale(0.1 -0.1)">
       <defs>
        <path id="DejaVuSans-2212" d="M 678 2272 
L 4684 2272 
L 4684 1741 
L 678 1741 
L 678 2272 
z
" transform="scale(0.015625)"/>
       </defs>
       <use xlink:href="#DejaVuSans-2212"/>
       <use xlink:href="#DejaVuSans-33" x="83.789062"/>
       <use xlink:href="#DejaVuSans-30" x="147.412109"/>
       <use xlink:href="#DejaVuSans-30" x="211.035156"/>
       <use xlink:href="#DejaVuSans-30" x="274.658203"/>
       <use xlink:href="#DejaVuSans-30" x="338.28125"/>
      </g>
     </g>
    </g>
    <g id="ytick_2">
     <g id="line2d_11">
      <g>
       <use xlink:href="#m675c176f65" x="47.192188" y="209.043088" style="stroke: #000000; stroke-width: 0.8"/>
      </g>
     </g>
     <g id="text_11">
      <!-- −20000 -->
      <g transform="translate(0 212.842306) scale(0.1 -0.1)">
       <use xlink:href="#DejaVuSans-2212"/>
       <use xlink:href="#DejaVuSans-32" x="83.789062"/>
       <use xlink:href="#DejaVuSans-30" x="147.412109"/>
       <use xlink:href="#DejaVuSans-30" x="211.035156"/>
       <use xlink:href="#DejaVuSans-30" x="274.658203"/>
       <use xlink:href="#DejaVuSans-30" x="338.28125"/>
      </g>
     </g>
    </g>
    <g id="ytick_3">
     <g id="line2d_12">
      <g>
       <use xlink:href="#m675c176f65" x="47.192188" y="178.988139" style="stroke: #000000; stroke-width: 0.8"/>
      </g>
     </g>
     <g id="text_12">
      <!-- −10000 -->
      <g transform="translate(0 182.787357) scale(0.1 -0.1)">
       <use xlink:href="#DejaVuSans-2212"/>
       <use xlink:href="#DejaVuSans-31" x="83.789062"/>
       <use xlink:href="#DejaVuSans-30" x="147.412109"/>
       <use xlink:href="#DejaVuSans-30" x="211.035156"/>
       <use xlink:href="#DejaVuSans-30" x="274.658203"/>
       <use xlink:href="#DejaVuSans-30" x="338.28125"/>
      </g>
     </g>
    </g>
    <g id="ytick_4">
     <g id="line2d_13">
      <g>
       <use xlink:href="#m675c176f65" x="47.192188" y="148.93319" style="stroke: #000000; stroke-width: 0.8"/>
      </g>
     </g>
     <g id="text_13">
      <!-- 0 -->
      <g transform="translate(33.829688 152.732408) scale(0.1 -0.1)">
       <use xlink:href="#DejaVuSans-30"/>
      </g>
     </g>
    </g>
    <g id="ytick_5">
     <g id="line2d_14">
      <g>
       <use xlink:href="#m675c176f65" x="47.192188" y="118.878241" style="stroke: #000000; stroke-width: 0.8"/>
      </g>
     </g>
     <g id="text_14">
      <!-- 10000 -->
      <g transform="translate(8.379688 122.677459) scale(0.1 -0.1)">
       <use xlink:href="#DejaVuSans-31"/>
       <use xlink:href="#DejaVuSans-30" x="63.623047"/>
       <use xlink:href="#DejaVuSans-30" x="127.246094"/>
       <use xlink:href="#DejaVuSans-30" x="190.869141"/>
       <use xlink:href="#DejaVuSans-30" x="254.492188"/>
      </g>
     </g>
    </g>
    <g id="ytick_6">
     <g id="line2d_15">
      <g>
       <use xlink:href="#m675c176f65" x="47.192188" y="88.823292" style="stroke: #000000; stroke-width: 0.8"/>
      </g>
     </g>
     <g id="text_15">
      <!-- 20000 -->
      <g transform="translate(8.379688 92.62251) scale(0.1 -0.1)">
       <use xlink:href="#DejaVuSans-32"/>
       <use xlink:href="#DejaVuSans-30" x="63.623047"/>
       <use xlink:href="#DejaVuSans-30" x="127.246094"/>
       <use xlink:href="#DejaVuSans-30" x="190.869141"/>
       <use xlink:href="#DejaVuSans-30" x="254.492188"/>
      </g>
     </g>
    </g>
    <g id="ytick_7">
     <g id="line2d_16">
      <g>
       <use xlink:href="#m675c176f65" x="47.192188" y="58.768343" style="stroke: #000000; stroke-width: 0.8"/>
      </g>
     </g>
     <g id="text_16">
      <!-- 30000 -->
      <g transform="translate(8.379688 62.567561) scale(0.1 -0.1)">
       <use xlink:href="#DejaVuSans-33"/>
       <use xlink:href="#DejaVuSans-30" x="63.623047"/>
       <use xlink:href="#DejaVuSans-30" x="127.246094"/>
       <use xlink:href="#DejaVuSans-30" x="190.869141"/>
       <use xlink:href="#DejaVuSans-30" x="254.492188"/>
      </g>
     </g>
    </g>
    <g id="ytick_8">
     <g id="line2d_17">
      <g>
       <use xlink:href="#m675c176f65" x="47.192188" y="28.713394" style="stroke: #000000; stroke-width: 0.8"/>
      </g>
     </g>
     <g id="text_17">
      <!-- 40000 -->
      <g transform="translate(8.379688 32.512612) scale(0.1 -0.1)">
       <use xlink:href="#DejaVuSans-34"/>
       <use xlink:href="#DejaVuSans-30" x="63.623047"/>
       <use xlink:href="#DejaVuSans-30" x="127.246094"/>
       <use xlink:href="#DejaVuSans-30" x="190.869141"/>
       <use xlink:href="#DejaVuSans-30" x="254.492188"/>
      </g>
     </g>
    </g>
   </g>
   <g id="line2d_18">
    <path d="M 75.092188 149.121159 
L 75.374148 148.752935 
L 75.656109 149.10648 
L 75.938069 148.766208 
L 76.22003 149.094439 
L 76.50199 148.777161 
L 76.783951 149.084452 
L 77.065912 148.786284 
L 77.347872 149.076105 
L 77.629833 148.793929 
L 77.911793 149.069099 
L 78.193754 148.800351 
L 78.475715 149.063215 
L 78.757675 148.805738 
L 79.039636 149.058291 
L 79.321596 148.810228 
L 79.603557 149.054211 
L 79.885517 148.81392 
L 80.167478 149.050889 
L 80.449439 148.816884 
L 80.731399 149.048272 
L 81.01336 148.819161 
L 81.29532 149.04633 
L 81.577281 148.82077 
L 81.859242 149.045057 
L 82.141202 148.821702 
L 82.423163 149.044475 
L 82.705123 148.821922 
L 82.987084 149.044635 
L 83.269044 148.821358 
L 83.551005 149.045631 
L 83.832966 148.819894 
L 84.114926 149.047609 
L 84.396887 148.817345 
L 84.678847 149.050799 
L 84.960808 148.813426 
L 85.242769 149.05556 
L 85.524729 148.807683 
L 85.80669 149.062467 
L 86.08865 148.799374 
L 86.370611 149.072491 
L 86.652572 148.787209 
L 86.934532 149.087384 
L 87.216493 148.768753 
L 87.498453 149.110629 
L 87.780414 148.738844 
L 88.062374 149.150224 
L 88.344335 148.684371 
L 88.626296 149.229295 
L 88.908256 148.560195 
L 89.190217 149.450048 
L 89.472177 148.078459 
L 89.754138 159.745349 
L 90.036099 164.707748 
L 90.318059 164.1886 
L 90.60002 165.13722 
L 90.88198 164.464798 
L 91.163941 165.356819 
L 91.727862 167.903643 
L 92.009823 166.09933 
L 92.291783 160.900928 
L 92.855704 139.629842 
L 93.419626 116.756581 
L 93.701586 111.175479 
L 93.983547 110.768867 
L 94.265507 114.174013 
L 94.829429 122.059827 
L 95.111389 122.419425 
L 95.39335 121.978062 
L 95.67531 123.237566 
L 96.521192 130.760921 
L 96.803153 135.990926 
L 97.649034 159.497135 
L 97.930995 161.620154 
L 98.212956 162.082062 
L 98.494916 161.718866 
L 98.776877 160.848725 
L 99.058837 160.776234 
L 99.340798 161.889218 
L 99.622758 162.517268 
L 100.18668 160.646768 
L 100.750601 160.35562 
L 101.032561 159.130534 
L 102.160404 151.484493 
L 102.442364 150.366102 
L 103.288246 148.802652 
L 103.570207 148.659157 
L 104.134128 148.935192 
L 104.698049 148.301805 
L 104.98001 148.803481 
L 105.543931 151.552834 
L 105.825891 153.546638 
L 106.389813 159.164362 
L 106.671773 158.736405 
L 106.953734 153.511071 
L 107.517655 133.773842 
L 108.081576 113.807637 
L 108.363537 109.382138 
L 108.645497 111.008323 
L 109.491379 125.864314 
L 109.77334 127.440207 
L 110.337261 128.468477 
L 110.619221 130.623659 
L 111.465103 139.502074 
L 112.592945 165.568628 
L 112.874906 164.453904 
L 114.002748 158.470965 
L 114.284709 158.933891 
L 114.56667 158.940286 
L 114.84863 158.619294 
L 115.130591 159.20818 
L 115.976472 162.089159 
L 116.540394 166.496176 
L 116.822354 166.297916 
L 117.386275 163.338657 
L 117.668236 162.816342 
L 118.232157 160.966066 
L 118.514118 161.832601 
L 118.796078 163.552687 
L 119.078039 164.041506 
L 119.36 163.422852 
L 119.923921 163.446608 
L 120.205881 162.248094 
L 120.487842 160.561625 
L 120.769802 160.065931 
L 121.051763 159.934978 
L 121.333724 158.179896 
L 121.615684 153.545962 
L 121.897645 144.82208 
L 123.025487 94.529674 
L 123.307448 92.976334 
L 123.589408 95.874899 
L 124.717251 122.232968 
L 125.563132 126.793404 
L 125.845093 129.131825 
L 126.127054 133.833192 
L 126.972935 160.727027 
L 127.254896 163.013326 
L 127.536857 161.991359 
L 128.100778 157.666058 
L 128.382738 154.837014 
L 128.664699 153.263126 
L 128.946659 153.683013 
L 129.22862 154.807295 
L 129.792541 155.793098 
L 130.638423 158.807054 
L 130.920384 159.243248 
L 131.202344 160.520022 
L 131.766265 164.113725 
L 132.330186 165.674167 
L 132.612147 166.683976 
L 132.894108 166.556793 
L 133.176068 165.311543 
L 133.458029 165.069643 
L 134.02195 169.285083 
L 134.303911 169.575427 
L 134.585871 168.896755 
L 134.867832 169.972676 
L 135.431753 175.836694 
L 135.713714 176.438436 
L 135.995674 174.751022 
L 136.277635 169.850322 
L 136.559595 159.518719 
L 137.405477 111.231546 
L 137.687438 102.656899 
L 137.969398 99.3625 
L 138.251359 100.287484 
L 139.379201 114.678551 
L 140.225083 121.65728 
L 140.507043 124.482761 
L 140.789004 129.38564 
L 141.916846 158.762784 
L 142.198807 159.998659 
L 142.480768 159.387746 
L 143.044689 155.980185 
L 143.326649 155.781894 
L 143.890571 156.682573 
L 144.172531 158.201726 
L 144.736452 162.983277 
L 145.300373 162.532645 
L 146.428216 169.909811 
L 146.710176 171.068278 
L 146.992137 171.571049 
L 147.556058 170.189082 
L 147.838019 170.301718 
L 148.40194 171.795321 
L 149.529782 173.203033 
L 149.811743 172.385679 
L 150.093703 170.926493 
L 150.375664 170.123757 
L 150.657625 170.118837 
L 150.939585 168.566885 
L 151.221546 162.609739 
L 151.785467 135.474071 
L 152.349388 104.602161 
L 152.631349 96.717011 
L 152.913309 95.199548 
L 153.19527 97.352578 
L 153.759191 105.304756 
L 154.323112 113.740645 
L 154.605073 114.674435 
L 154.887033 114.561932 
L 155.168994 115.083404 
L 155.450955 116.47274 
L 155.732915 119.901405 
L 156.578797 143.413631 
L 156.860757 145.204448 
L 157.142718 145.42871 
L 157.424679 146.628347 
L 157.706639 146.997966 
L 158.27056 143.433215 
L 158.552521 143.629528 
L 158.834482 144.525524 
L 159.116442 144.793527 
L 159.398403 145.327238 
L 159.962324 148.839803 
L 160.244285 149.335216 
L 160.808206 147.784969 
L 161.090166 148.347875 
L 162.218009 157.732608 
L 163.06389 176.651189 
L 163.627812 180.612775 
L 164.191733 186.05951 
L 164.473693 186.27469 
L 164.755654 185.770918 
L 165.037614 185.56454 
L 165.319575 185.747491 
L 165.601536 186.297681 
L 165.883496 186.045428 
L 166.165457 182.149425 
L 166.447417 173.177038 
L 167.011339 145.506129 
L 167.57526 115.013044 
L 167.85722 106.478436 
L 168.139181 104.73654 
L 168.421142 106.790266 
L 169.267023 116.012457 
L 169.548984 117.386558 
L 169.830944 118.068316 
L 170.112905 119.313448 
L 170.676826 122.996093 
L 170.958787 126.629053 
L 171.522708 143.522436 
L 171.804669 151.615246 
L 172.086629 154.878197 
L 172.36859 154.08529 
L 172.65055 152.898235 
L 172.932511 153.407935 
L 173.214471 154.333964 
L 173.496432 153.973906 
L 173.778393 153.168799 
L 174.060353 153.315757 
L 174.342314 153.913799 
L 174.624274 153.993749 
L 174.906235 154.241362 
L 176.034077 158.705463 
L 176.316038 159.240798 
L 176.597999 159.385446 
L 176.879959 160.126899 
L 177.44388 163.490266 
L 177.725841 163.447374 
L 178.007801 163.830053 
L 178.289762 166.777434 
L 178.853683 174.452971 
L 179.981526 182.169203 
L 180.545447 184.870489 
L 180.827407 186.415437 
L 181.109368 186.25682 
L 181.391328 181.910247 
L 181.673289 172.191344 
L 182.23721 139.361306 
L 182.801131 104.967737 
L 183.083092 96.873672 
L 183.365053 96.007466 
L 183.647013 99.336088 
L 184.774856 117.421394 
L 185.338777 120.047081 
L 185.620737 121.378823 
L 185.902698 124.106668 
L 186.184658 129.972748 
L 187.03054 155.352 
L 187.312501 158.416607 
L 187.594461 159.199723 
L 187.876422 158.917908 
L 188.440343 156.831018 
L 188.722304 156.603557 
L 189.004264 157.512101 
L 189.568185 160.131805 
L 190.696028 164.284648 
L 190.977988 165.30594 
L 191.259949 165.469051 
L 191.54191 164.416682 
L 191.82387 162.927846 
L 192.105831 162.348189 
L 192.387791 162.826814 
L 192.669752 162.888246 
L 192.951713 161.966163 
L 193.233673 161.59493 
L 193.797594 163.592438 
L 194.079555 162.366725 
L 194.361515 160.289522 
L 194.643476 159.558998 
L 194.925437 159.966874 
L 195.489358 160.116061 
L 195.771318 161.536053 
L 196.33524 166.175287 
L 196.6172 163.91617 
L 196.899161 155.977003 
L 198.027003 104.799608 
L 198.308964 101.048785 
L 198.590924 102.882047 
L 199.154845 113.550527 
L 200.000727 131.816463 
L 200.564648 136.600664 
L 200.846609 139.035672 
L 201.12857 143.377477 
L 201.974451 165.009829 
L 202.256412 166.83952 
L 202.538372 165.492978 
L 203.666215 154.959194 
L 203.948175 154.017663 
L 204.794057 153.550022 
L 205.076018 153.676694 
L 205.921899 155.712925 
L 206.20386 156.604611 
L 206.767781 159.464796 
L 207.613663 162.116086 
L 207.895624 162.38175 
L 208.177584 162.113776 
L 208.459545 162.629322 
L 209.305427 168.123882 
L 210.151308 174.623291 
L 210.99719 178.90577 
L 211.279151 178.906311 
L 211.561111 176.903165 
L 211.843072 170.351567 
L 212.406993 139.161247 
L 212.970914 106.088818 
L 213.252875 96.662499 
L 213.534835 93.123714 
L 213.816796 93.751409 
L 214.098756 96.169095 
L 214.380717 100.51509 
L 215.226599 119.477075 
L 215.508559 121.702929 
L 215.79052 124.994386 
L 216.636402 140.641956 
L 217.200323 155.244776 
L 217.482284 158.081646 
L 217.764244 157.542752 
L 218.328165 154.291993 
L 218.892086 150.639689 
L 219.174047 150.169026 
L 219.456008 150.855482 
L 220.865811 156.734455 
L 221.147771 157.606012 
L 221.429732 157.437136 
L 221.711692 156.725673 
L 221.993653 156.805675 
L 222.275613 158.471434 
L 222.839535 162.656375 
L 223.403456 163.781115 
L 224.249338 166.784815 
L 224.813259 171.181214 
L 225.659141 177.410873 
L 226.505022 187.099028 
L 226.786983 188.868016 
L 227.068943 185.352503 
L 227.350904 174.517061 
L 228.478746 113.72888 
L 228.760707 104.471983 
L 229.042668 100.475166 
L 229.324628 99.15301 
L 229.606589 98.736959 
L 229.888549 99.851904 
L 230.17051 102.884132 
L 230.734431 112.195629 
L 231.580313 128.832358 
L 232.708155 162.195349 
L 232.990116 163.066673 
L 233.272076 162.907292 
L 233.554037 161.976154 
L 234.117958 158.164213 
L 234.399919 157.451398 
L 234.681879 157.403825 
L 234.96384 156.986838 
L 235.527761 155.402419 
L 235.809722 154.986802 
L 236.091682 154.081266 
L 236.373643 152.546513 
L 236.655603 152.072741 
L 236.937564 154.37184 
L 237.501485 161.654746 
L 238.065406 165.036752 
L 238.629327 169.630908 
L 238.911288 170.345906 
L 239.475209 169.357875 
L 239.75717 169.500349 
L 240.321091 171.468323 
L 240.603052 171.594354 
L 240.885012 171.2996 
L 241.166973 171.873443 
L 242.012855 178.310936 
L 242.294815 176.389028 
L 242.576776 168.515825 
L 243.140697 135.388932 
L 243.704618 101.280951 
L 243.986579 91.177464 
L 244.268539 85.656189 
L 244.5505 83.52569 
L 244.83246 83.935131 
L 245.396382 88.322219 
L 245.678342 91.074288 
L 245.960303 95.5469 
L 246.524224 111.469185 
L 247.088145 131.095843 
L 247.934027 162.957546 
L 248.215987 165.433391 
L 248.497948 165.02558 
L 248.779909 164.405761 
L 249.061869 164.271677 
L 249.34383 164.564841 
L 249.62579 165.507829 
L 250.189712 168.162588 
L 250.471672 168.480265 
L 250.753633 167.405042 
L 251.881475 157.095586 
L 252.163436 156.255477 
L 252.445396 155.799396 
L 252.727357 155.928161 
L 253.009317 157.121588 
L 253.573239 161.437412 
L 253.855199 161.902362 
L 254.13716 161.586336 
L 254.41912 163.124617 
L 254.983041 171.367531 
L 255.265002 173.24593 
L 255.546963 173.266196 
L 255.828923 173.127078 
L 256.110884 173.936532 
L 256.674805 178.509569 
L 257.238726 182.471355 
L 257.520687 182.275237 
L 257.802647 177.024014 
L 258.084608 164.088875 
L 259.21245 95.816472 
L 259.494411 87.870741 
L 259.776371 84.182466 
L 260.340293 81.737014 
L 260.622253 81.529882 
L 260.904214 82.562849 
L 261.186174 85.182641 
L 261.468135 89.888813 
L 262.032056 105.114188 
L 262.595977 128.372316 
L 263.159898 151.814693 
L 263.441859 155.98256 
L 264.00578 158.249402 
L 264.287741 159.64654 
L 264.569701 159.912636 
L 264.851662 159.629623 
L 265.133623 160.499618 
L 265.415583 162.337963 
L 265.697544 163.207598 
L 266.261465 161.88665 
L 266.543425 162.861928 
L 267.107347 167.679506 
L 268.235189 179.645187 
L 268.51715 179.828969 
L 268.79911 179.122282 
L 269.081071 178.984683 
L 269.363031 179.977759 
L 269.926953 183.287343 
L 270.490874 189.276199 
L 270.772834 192.372191 
L 271.336755 195.965642 
L 271.900677 202.179841 
L 272.182637 202.838516 
L 272.464598 200.970508 
L 272.746558 197.35789 
L 273.028519 189.920889 
L 273.31048 175.247554 
L 274.438322 96.500864 
L 275.002243 74.872803 
L 275.848125 52.917448 
L 276.130085 49.114502 
L 276.412046 51.508157 
L 276.975967 68.273417 
L 277.257928 80.098105 
L 278.38577 151.722893 
L 278.949691 164.105634 
L 279.231652 167.169929 
L 279.513612 168.29614 
L 279.795573 168.34529 
L 280.077534 168.548733 
L 280.641455 169.784369 
L 280.923415 169.945408 
L 281.205376 169.902632 
L 281.487337 170.098494 
L 281.769297 170.490428 
L 282.051258 170.574809 
L 282.615179 169.840294 
L 282.897139 169.91101 
L 283.461061 170.701678 
L 283.743021 170.354657 
L 284.024982 169.529127 
L 284.306942 169.30125 
L 284.588903 170.553172 
L 287.126548 192.562947 
L 287.97243 197.060123 
L 288.254391 193.726987 
L 288.536351 182.447423 
L 290.228115 78.466374 
L 291.073996 48.414641 
L 291.355957 46.547932 
L 292.201839 55.904882 
L 292.483799 62.76607 
L 293.047721 86.763263 
L 293.611642 126.310136 
L 294.175563 161.98957 
L 294.739484 176.643479 
L 295.021445 179.319636 
L 295.303405 179.347049 
L 296.149287 177.244603 
L 296.713208 174.682972 
L 296.995169 174.646976 
L 297.55909 175.413502 
L 298.123011 177.728558 
L 298.968893 180.849867 
L 299.250853 181.438285 
L 299.532814 181.723999 
L 299.814775 182.488914 
L 300.660656 186.122133 
L 301.224578 191.846897 
L 302.070459 200.710086 
L 302.634381 206.111388 
L 303.198302 210.923286 
L 303.480262 209.892174 
L 303.762223 200.56678 
L 304.326144 163.666902 
L 305.453986 84.785529 
L 306.017908 54.969266 
L 306.299868 46.823179 
L 306.581829 45.650525 
L 306.863789 46.839024 
L 307.14575 47.113285 
L 307.42771 48.059225 
L 307.709671 51.238499 
L 307.991632 55.77928 
L 308.273592 62.740131 
L 308.555553 75.644701 
L 309.683395 145.550553 
L 310.247316 164.535158 
L 310.529277 167.736883 
L 311.093198 170.278316 
L 311.375159 170.464011 
L 311.657119 170.930834 
L 312.22104 173.50132 
L 312.503001 172.9722 
L 312.784962 172.755539 
L 313.630843 177.88919 
L 313.912804 178.503227 
L 315.040646 183.345149 
L 315.604567 187.987098 
L 316.168489 193.562543 
L 317.01437 202.687808 
L 317.578292 207.733435 
L 318.142213 214.150723 
L 318.706134 221.209699 
L 318.988095 218.284146 
L 319.270055 206.853589 
L 319.833976 165.737425 
L 320.961819 77.768196 
L 321.243779 60.065342 
L 321.52574 49.61694 
L 321.8077 46.641642 
L 322.089661 46.847847 
L 322.371622 47.231299 
L 322.653582 48.051837 
L 322.935543 49.568455 
L 323.217503 51.823652 
L 323.499464 57.311007 
L 323.781424 68.909604 
L 325.191227 147.18931 
L 325.755149 161.29964 
L 326.037109 164.648469 
L 326.31907 165.789847 
L 326.60103 166.097008 
L 327.728873 169.378767 
L 328.292794 172.732176 
L 328.574754 173.587003 
L 328.856715 175.295026 
L 329.420636 181.348138 
L 330.266518 186.723128 
L 330.830439 193.344561 
L 331.676321 205.650388 
L 333.086124 218.866836 
L 333.368084 222.546229 
L 333.650045 224.6689 
L 333.932006 224.522924 
L 334.213966 220.764001 
L 334.495927 210.185689 
L 335.059848 166.654356 
L 335.90573 104.175333 
L 336.469651 68.857309 
L 336.751611 60.192313 
L 337.597493 48.719964 
L 338.161414 39.703888 
L 338.443375 37.300669 
L 338.725336 37.938164 
L 339.007296 44.049277 
L 339.571217 73.391052 
L 340.417099 121.989571 
L 340.98102 141.449014 
L 341.544941 153.040751 
L 341.826902 156.048363 
L 342.108863 157.370916 
L 342.672784 159.083109 
L 343.236705 161.712693 
L 344.928468 171.596463 
L 345.49239 178.970807 
L 346.338271 192.735334 
L 348.875917 246.426337 
L 349.157877 251.596932 
L 349.439838 254.016 
L 349.721798 249.545894 
L 350.003759 234.925988 
L 350.849641 158.24572 
L 351.413562 108.772476 
L 351.977483 81.453544 
L 352.541404 59.910873 
L 353.387286 18.623333 
L 353.669247 13.872283 
L 353.951207 14.957121 
L 354.233168 20.159808 
L 354.515128 29.808433 
L 355.07905 60.866709 
L 356.488852 152.602839 
L 356.770813 162.139513 
L 357.052774 167.74195 
L 357.334734 169.668134 
L 357.616695 170.303497 
L 358.462577 174.98785 
L 359.026498 174.739749 
L 359.308458 176.033905 
L 359.590419 179.657428 
L 360.718261 202.655759 
L 361.000222 204.138579 
L 361.282182 203.427831 
L 361.564143 203.228436 
L 362.128064 206.628176 
L 362.410025 208.627215 
L 362.973946 215.64836 
L 364.665709 238.491847 
L 364.94767 235.433939 
L 365.229631 223.381702 
L 365.793552 178.630422 
L 366.921394 82.586837 
L 367.485315 59.467503 
L 368.331197 14.730258 
L 368.613158 12.096 
L 368.895118 13.139634 
L 369.177079 15.249272 
L 369.459039 18.430675 
L 369.741 23.877889 
L 370.022961 33.161744 
L 370.586882 63.32869 
L 371.150803 104.700505 
L 371.714724 147.337809 
L 371.996685 159.090746 
L 372.560606 171.034845 
L 372.842566 174.239582 
L 373.124527 174.939765 
L 373.406488 174.064581 
L 373.970409 171.546677 
L 374.252369 171.473034 
L 374.53433 173.148507 
L 375.098251 178.756815 
L 375.662172 187.544639 
L 376.226094 197.648271 
L 376.790015 203.944982 
L 377.353936 208.085246 
L 377.635896 208.927211 
L 377.917857 209.231288 
L 378.199818 210.282236 
L 378.481778 213.741348 
L 379.609621 235.397423 
L 379.891581 236.268787 
L 380.173542 229.490317 
L 380.455502 213.624161 
L 381.019423 165.139863 
L 381.865305 83.714221 
L 382.711187 30.996771 
L 382.993148 22.60121 
L 383.275108 21.075673 
L 383.557069 22.189352 
L 383.839029 24.300931 
L 384.402951 32.953876 
L 384.684911 39.658537 
L 385.248832 64.743875 
L 386.094714 118.406703 
L 386.658635 157.763224 
L 387.222556 179.818165 
L 387.786478 188.626106 
L 388.068438 189.286629 
L 388.91432 184.171764 
L 389.19628 183.322414 
L 389.478241 181.815593 
L 389.760202 181.045041 
L 390.606083 183.314661 
L 390.888044 185.960882 
L 391.451965 194.861457 
L 392.297847 204.650879 
L 393.143729 216.902404 
L 393.98961 230.922269 
L 394.553532 239.848672 
L 394.835492 245.368659 
L 395.117453 245.995849 
L 395.399413 236.926317 
L 395.963335 192.65715 
L 397.091177 79.87715 
L 397.655098 42.523137 
L 397.937059 32.945415 
L 398.219019 30.230547 
L 398.50098 28.972782 
L 398.78294 27.145887 
L 399.064901 27.375505 
L 399.346862 30.686344 
L 399.910783 42.756003 
L 400.474704 65.657639 
L 402.448428 164.117895 
L 403.012349 177.291809 
L 403.29431 181.189672 
L 403.57627 182.422822 
L 404.140192 181.027624 
L 404.704113 180.514447 
L 404.986073 181.180288 
L 405.831955 188.554557 
L 406.113916 190.861991 
L 406.677837 199.26402 
L 407.523719 213.304795 
L 409.497443 240.375158 
L 409.779403 243.475772 
L 410.061364 242.427808 
L 410.343324 233.666155 
L 410.625285 215.103591 
L 411.189206 153.734614 
L 411.753127 89.040471 
L 412.317049 47.875646 
L 412.599009 38.5609 
L 413.16293 31.523651 
L 413.444891 30.222455 
L 413.726851 31.92447 
L 414.290773 40.479945 
L 414.572733 45.839151 
L 415.136654 66.042626 
L 417.392339 166.202238 
L 417.95626 179.220458 
L 418.238221 182.781997 
L 418.520181 184.459943 
L 418.802142 184.521133 
L 419.084103 184.202756 
L 419.366063 184.385477 
L 419.648024 184.326223 
L 420.211945 181.962219 
L 420.493906 182.166701 
L 421.057827 186.607925 
L 421.621748 192.964408 
L 423.031551 219.03258 
L 423.877433 230.852141 
L 424.441354 240.219761 
L 424.723314 241.432318 
L 425.005275 235.675538 
L 425.287236 220.514809 
L 425.851157 166.378891 
L 426.697038 72.196915 
L 426.978999 54.043903 
L 427.26096 45.484738 
L 427.54292 42.216344 
L 428.106841 38.6259 
L 428.388802 38.043939 
L 428.670763 38.851012 
L 428.952723 40.795036 
L 429.234684 43.829062 
L 429.516644 48.755702 
L 430.080565 65.761697 
L 433.464093 182.075721 
L 434.028014 190.285713 
L 434.309974 193.554265 
L 434.591935 195.293822 
L 434.873895 195.247206 
L 435.155856 194.855988 
L 435.437817 195.164073 
L 436.001738 196.79865 
L 436.283698 198.784976 
L 437.975462 217.35761 
L 438.539383 223.086923 
L 439.385265 236.2399 
L 439.667225 238.181718 
L 439.949186 234.000686 
L 440.231147 221.228399 
L 440.795068 171.80411 
L 441.64095 77.479857 
L 441.92291 65.282575 
L 442.486831 56.931731 
L 442.768792 53.402762 
L 443.050752 51.711038 
L 443.332713 51.678713 
L 443.614674 52.793368 
L 443.896634 55.559231 
L 444.460555 64.773746 
L 445.024477 79.369544 
L 446.152319 113.269519 
L 446.71624 127.204102 
L 447.280161 136.852144 
L 448.126043 154.491031 
L 448.689964 163.932116 
L 449.817806 188.802259 
L 450.099767 191.815506 
L 450.663688 194.676624 
L 451.227609 196.876856 
L 451.791531 198.154934 
L 452.073491 199.324425 
L 452.637412 202.919224 
L 452.919373 205.353917 
L 453.765255 218.577217 
L 454.047215 223.226438 
L 454.611136 236.341075 
L 454.893097 235.947496 
L 455.175058 225.732679 
L 455.738979 184.037242 
L 456.584861 88.967099 
L 456.866821 74.752554 
L 457.430742 66.678769 
L 457.712703 63.196848 
L 457.994663 61.530905 
L 458.276624 62.08572 
L 458.558585 63.836634 
L 459.122506 70.501337 
L 459.968388 82.748467 
L 461.378191 112.100733 
L 462.224072 124.891141 
L 462.787993 129.962467 
L 463.915836 145.409835 
L 465.88956 202.943497 
L 466.453481 209.240567 
L 467.863284 222.067811 
L 468.709166 230.232021 
L 469.555048 239.465695 
L 469.837008 239.305006 
L 470.118969 233.142171 
L 470.400929 218.268483 
L 470.96485 157.005334 
L 471.528772 93.031371 
L 471.810732 78.749884 
L 472.374653 65.94237 
L 472.656614 62.132144 
L 472.938575 60.645522 
L 473.220535 60.081892 
L 473.502496 60.577458 
L 473.784456 63.608163 
L 474.630338 78.911281 
L 475.75818 113.019129 
L 476.604062 130.419304 
L 479.423668 156.683836 
L 479.987589 168.968867 
L 481.397392 203.553969 
L 481.961313 216.883584 
L 482.525234 223.43988 
L 483.089156 226.303471 
L 483.653077 229.209539 
L 484.216998 234.193714 
L 484.498959 234.159163 
L 484.780919 229.523966 
L 485.06288 217.244913 
L 485.34484 193.158764 
L 486.190722 98.856478 
L 486.472683 88.780469 
L 487.600525 70.127317 
L 487.882486 69.519089 
L 488.164446 71.02282 
L 489.292289 84.079129 
L 489.85621 97.059584 
L 490.702091 115.499401 
L 491.266013 124.011975 
L 491.547973 126.345828 
L 491.829934 126.937618 
L 492.111894 126.894938 
L 492.393855 128.077329 
L 493.239737 135.900577 
L 493.521697 138.242271 
L 494.64954 154.593849 
L 495.777382 180.309132 
L 497.187185 222.640631 
L 497.751106 232.327127 
L 498.033067 235.116956 
L 498.596988 238.340928 
L 498.878948 240.587069 
L 499.160909 240.980122 
L 499.44287 237.346824 
L 499.72483 226.784873 
L 500.006791 204.064492 
L 500.852673 104.384212 
L 501.134633 93.34323 
L 501.980515 79.697122 
L 502.544436 74.788464 
L 502.826397 73.751864 
L 503.108357 74.892316 
L 503.672278 79.962074 
L 504.2362 88.195655 
L 504.800121 100.457746 
L 505.364042 113.534789 
L 506.491884 127.948954 
L 508.183648 139.476884 
L 508.747569 147.388 
L 509.31149 153.981264 
L 509.875411 160.342406 
L 510.439333 170.017406 
L 511.567175 195.191075 
L 512.976978 230.562651 
L 513.540899 236.28125 
L 514.10482 244.064346 
L 514.386781 242.605534 
L 514.668741 234.992029 
L 514.950702 216.800599 
L 516.078544 99.856186 
L 516.642465 87.563526 
L 516.924426 82.868627 
L 517.206387 81.035616 
L 517.488347 80.602665 
L 517.770308 79.767363 
L 518.052268 79.654899 
L 518.334229 81.23414 
L 518.89815 86.211435 
L 519.180111 90.035403 
L 520.871874 123.158412 
L 521.717756 130.001328 
L 522.281677 132.966762 
L 523.127559 142.186047 
L 523.409519 142.834885 
L 523.69148 144.007385 
L 525.665204 167.287706 
L 526.511086 177.79445 
L 527.075007 190.709298 
L 528.202849 218.135103 
L 528.48481 223.00779 
L 529.048731 237.209977 
L 529.330692 240.767625 
L 529.612652 238.907352 
L 529.894613 228.889511 
L 530.176574 205.323795 
L 530.740495 135.896479 
L 531.022455 115.329501 
L 531.586376 100.46606 
L 532.150298 90.645675 
L 532.714219 86.866102 
L 532.996179 86.877404 
L 533.842061 93.627148 
L 534.124022 94.859181 
L 534.405982 98.17965 
L 536.379706 137.581887 
L 536.943628 142.086038 
L 537.225588 144.064155 
L 537.507549 145.007533 
L 537.789509 145.355416 
L 538.07147 146.408336 
L 539.199312 153.636511 
L 541.454997 177.771333 
L 542.018918 185.887049 
L 542.8648 201.841068 
L 543.428721 211.001769 
L 544.274603 225.404487 
L 544.556563 226.182969 
L 544.838524 217.072976 
L 545.402445 163.101318 
L 545.684406 136.699419 
L 545.966366 121.536919 
L 546.530288 109.347448 
L 547.094209 101.125925 
L 547.65813 96.206657 
L 547.94009 95.751378 
L 548.222051 97.145519 
L 548.785972 102.42028 
L 549.349893 112.677955 
L 549.913815 124.27652 
L 550.759696 134.988405 
L 551.041657 137.422895 
L 551.323618 138.561323 
L 551.605578 138.809486 
L 551.887539 139.338718 
L 552.45146 142.11141 
L 554.143223 152.758404 
L 554.707145 157.871202 
L 555.834987 163.869729 
L 556.116947 166.1195 
L 558.090672 192.909793 
L 558.654593 196.977978 
L 559.218514 209.767923 
L 559.500475 210.187582 
L 559.782435 196.213019 
L 560.346356 151.189632 
L 560.910277 127.775657 
L 561.474199 110.844723 
L 562.03812 105.701622 
L 562.602041 102.206481 
L 563.165962 100.875324 
L 563.447923 101.603452 
L 564.011844 107.859282 
L 564.575765 116.58628 
L 565.139686 126.137631 
L 565.703607 129.901822 
L 566.267529 132.853652 
L 566.549489 135.24797 
L 567.11341 142.699187 
L 568.241253 150.698562 
L 569.369095 156.868398 
L 569.651056 159.414462 
L 570.496937 172.540862 
L 571.060859 175.793761 
L 571.62478 179.194069 
L 572.188701 183.939984 
L 574.162425 201.413439 
L 574.444386 196.899799 
L 575.008307 165.835182 
L 575.572228 139.001468 
L 576.41811 116.097234 
L 576.70007 112.250862 
L 577.827913 104.267997 
L 578.109873 106.249134 
L 578.673794 113.206918 
L 579.237716 117.934037 
L 580.365558 132.379445 
L 581.21144 138.842746 
L 581.775361 142.322722 
L 582.339282 146.32271 
L 582.903203 148.325503 
L 583.467124 149.59606 
L 583.749085 150.470906 
L 584.313006 153.189369 
L 584.876927 156.558095 
L 585.722809 160.07091 
L 586.850651 166.905437 
L 587.414573 171.457977 
L 588.542415 187.445018 
L 589.106336 198.184047 
L 589.388297 197.31836 
L 589.670257 188.227407 
L 590.7981 137.001141 
L 591.08006 128.240729 
L 591.362021 123.136215 
L 591.643981 120.880722 
L 591.925942 119.626414 
L 592.489863 116.122849 
L 592.771824 115.627947 
L 593.053784 117.110981 
L 594.181627 127.071144 
L 595.027508 138.759422 
L 595.59143 142.613374 
L 595.87339 143.871927 
L 596.155351 144.001351 
L 596.719272 143.001839 
L 597.001232 143.073317 
L 597.283193 143.292405 
L 597.565154 144.19248 
L 598.129075 148.878939 
L 598.692996 152.615553 
L 598.974957 153.587436 
L 599.256917 154.091473 
L 599.538878 154.306638 
L 599.820838 155.60068 
L 600.66672 163.617353 
L 601.230641 170.299229 
L 601.512602 172.113733 
L 601.794562 172.204489 
L 602.076523 172.921741 
L 602.358484 175.307248 
L 603.486326 188.044377 
L 603.768287 190.061231 
L 604.050247 188.314066 
L 604.332208 181.316346 
L 605.46005 138.270644 
L 606.023971 125.467657 
L 607.151814 108.269841 
L 607.433774 106.859145 
L 607.715735 107.807511 
L 607.997695 110.261936 
L 608.561617 119.423597 
L 609.407498 133.292358 
L 609.971419 140.727085 
L 610.25338 142.395654 
L 610.535341 142.914973 
L 610.817301 142.413477 
L 611.099262 141.489426 
L 611.663183 139.210078 
L 611.945144 138.678886 
L 612.791025 139.114367 
L 613.072986 139.884124 
L 613.354946 142.843075 
L 613.918868 151.880538 
L 614.200828 154.51741 
L 615.892592 163.912986 
L 616.738474 171.772654 
L 617.020434 173.127201 
L 618.430237 184.417988 
L 618.712198 185.098353 
L 618.994158 181.549129 
L 620.403961 141.82164 
L 620.685922 139.01769 
L 620.967882 137.475633 
L 621.531803 136.198842 
L 621.813764 136.405638 
L 622.095725 135.929286 
L 622.377685 135.011886 
L 622.659646 132.909824 
L 622.941606 129.506786 
L 623.505528 119.77412 
L 623.787488 117.631753 
L 624.069449 118.568168 
L 624.351409 121.570344 
L 624.915331 132.478963 
L 625.197291 133.711053 
L 625.761212 127.508601 
L 626.043173 129.521998 
L 626.607094 141.11007 
L 626.889055 144.428334 
L 627.171015 144.478759 
L 627.452976 143.681326 
L 627.734936 143.30648 
L 628.016897 146.757027 
L 628.580818 157.130074 
L 628.862779 158.616824 
L 629.144739 159.047935 
L 629.4267 158.737102 
L 629.70866 159.844878 
L 629.990621 160.096558 
L 630.554542 165.28424 
L 630.836503 169.59591 
L 631.400424 171.958417 
L 631.682385 171.985893 
L 631.964345 174.997555 
L 632.246306 175.247276 
L 632.528266 179.344044 
L 632.810227 180.063041 
L 633.092188 188.064695 
L 633.092188 188.064695 
" clip-path="url(#p3fa51b866d)" style="fill: none; stroke: #1f77b4; stroke-width: 1.5; stroke-linecap: square"/>
   </g>
   <g id="patch_3">
    <path d="M 47.192188 266.112 
L 47.192188 0 
" style="fill: none; stroke: #000000; stroke-width: 0.8; stroke-linejoin: miter; stroke-linecap: square"/>
   </g>
   <g id="patch_4">
    <path d="M 660.992188 266.112 
L 660.992188 0 
" style="fill: none; stroke: #000000; stroke-width: 0.8; stroke-linejoin: miter; stroke-linecap: square"/>
   </g>
   <g id="patch_5">
    <path d="M 47.192188 266.112 
L 660.992188 266.112 
" style="fill: none; stroke: #000000; stroke-width: 0.8; stroke-linejoin: miter; stroke-linecap: square"/>
   </g>
   <g id="patch_6">
    <path d="M 47.192188 0 
L 660.992188 0 
" style="fill: none; stroke: #000000; stroke-width: 0.8; stroke-linejoin: miter; stroke-linecap: square"/>
   </g>
  </g>
 </g>
 <defs>
  <clipPath id="p3fa51b866d">
   <rect x="47.192188" y="0" width="613.8" height="266.112"/>
  </clipPath>
 </defs>
</svg>
