<svg xmlns="http://www.w3.org/2000/svg" xmlns:xlink="http://www.w3.org/1999/xlink" width="913.477" height="377.053" viewBox="0 0 685.107 282.79"><defs><style>*{stroke-linejoin:round;stroke-linecap:butt}</style></defs><g id="figure_1"><path id="patch_1" d="M0 282.79h685.107V0H0v282.79z" style="fill:none"/><g id="axes_1"><path id="patch_2" d="M71.308 266.112h613.8V0h-613.8v266.112z" style="fill:none"/><g id="matplotlib.axis_1"><g id="xtick_1"><g id="line2d_1"><defs><path id="mc4ac6d861a" d="M0 0v3.5" style="stroke:gray;stroke-width:.8"/></defs><use xlink:href="#mc4ac6d861a" x="99.207" y="266.112" style="fill:gray;stroke:gray;stroke-width:.8"/></g><g id="text_1" style="fill:gray" transform="matrix(.1 0 0 -.1 96.026 280.71)"><defs><path id="DejaVuSans-30" d="M2034 4250q-487 0-733-480-245-479-245-1442 0-959 245-1439 246-480 733-480 491 0 736 480 246 480 246 1439 0 963-246 1442-245 480-736 480zm0 500q785 0 1199-621 414-620 414-1801 0-1178-414-1799Q2819-91 2034-91q-784 0-1198 620-414 621-414 1799 0 1181 414 1801 414 621 1198 621z" transform="scale(.01563)"/></defs><use xlink:href="#DejaVuSans-30"/></g></g><g id="xtick_2"><use xlink:href="#mc4ac6d861a" id="line2d_2" x="168.958" y="266.112" style="fill:gray;stroke:gray;stroke-width:.8"/><g id="text_2" style="fill:gray" transform="matrix(.1 0 0 -.1 159.414 280.71)"><defs><path id="DejaVuSans-35" d="M691 4666h2478v-532H1269V2991q137 47 274 70 138 23 276 23 781 0 1237-428 457-428 457-1159 0-753-469-1171Q2575-91 1722-91q-294 0-599 50Q819 9 494 109v635q281-153 581-228t634-75q541 0 856 284 316 284 316 772 0 487-316 771-315 285-856 285-253 0-505-56-251-56-513-175v2344z" transform="scale(.01563)"/></defs><use xlink:href="#DejaVuSans-35"/><use xlink:href="#DejaVuSans-30" x="63.623"/><use xlink:href="#DejaVuSans-30" x="127.246"/></g></g><g id="xtick_3"><use xlink:href="#mc4ac6d861a" id="line2d_3" x="238.708" y="266.112" style="fill:gray;stroke:gray;stroke-width:.8"/><g id="text_3" style="fill:gray" transform="matrix(.1 0 0 -.1 225.982 280.71)"><defs><path id="DejaVuSans-31" d="M794 531h1031v3560L703 3866v575l1116 225h631V531h1031V0H794v531z" transform="scale(.01563)"/></defs><use xlink:href="#DejaVuSans-31"/><use xlink:href="#DejaVuSans-30" x="63.623"/><use xlink:href="#DejaVuSans-30" x="127.246"/><use xlink:href="#DejaVuSans-30" x="190.869"/></g></g><g id="xtick_4"><use xlink:href="#mc4ac6d861a" id="line2d_4" x="308.457" y="266.112" style="fill:gray;stroke:gray;stroke-width:.8"/><g id="text_4" style="fill:gray" transform="matrix(.1 0 0 -.1 295.733 280.71)"><use xlink:href="#DejaVuSans-31"/><use xlink:href="#DejaVuSans-35" x="63.623"/><use xlink:href="#DejaVuSans-30" x="127.246"/><use xlink:href="#DejaVuSans-30" x="190.869"/></g></g><g id="xtick_5"><use xlink:href="#mc4ac6d861a" id="line2d_5" x="378.207" y="266.112" style="fill:gray;stroke:gray;stroke-width:.8"/><g id="text_5" style="fill:gray" transform="matrix(.1 0 0 -.1 365.483 280.71)"><defs><path id="DejaVuSans-32" d="M1228 531h2203V0H469v531q359 372 979 998 621 627 780 809 303 340 423 576 121 236 121 464 0 372-261 606-261 235-680 235-297 0-627-103-329-103-704-313v638q381 153 712 231 332 78 607 78 725 0 1156-363 431-362 431-968 0-288-108-546-107-257-392-607-78-91-497-524-418-433-1181-1211z" transform="scale(.01563)"/></defs><use xlink:href="#DejaVuSans-32"/><use xlink:href="#DejaVuSans-30" x="63.623"/><use xlink:href="#DejaVuSans-30" x="127.246"/><use xlink:href="#DejaVuSans-30" x="190.869"/></g></g><g id="xtick_6"><use xlink:href="#mc4ac6d861a" id="line2d_6" x="447.957" y="266.112" style="fill:gray;stroke:gray;stroke-width:.8"/><g id="text_6" style="fill:gray" transform="matrix(.1 0 0 -.1 435.233 280.71)"><use xlink:href="#DejaVuSans-32"/><use xlink:href="#DejaVuSans-35" x="63.623"/><use xlink:href="#DejaVuSans-30" x="127.246"/><use xlink:href="#DejaVuSans-30" x="190.869"/></g></g><g id="xtick_7"><use xlink:href="#mc4ac6d861a" id="line2d_7" x="517.707" y="266.112" style="fill:gray;stroke:gray;stroke-width:.8"/><g id="text_7" style="fill:gray" transform="matrix(.1 0 0 -.1 504.983 280.71)"><defs><path id="DejaVuSans-33" d="M2597 2516q453-97 707-404 255-306 255-756 0-690-475-1069Q2609-91 1734-91q-293 0-604 58T488 141v609q262-153 574-231 313-78 654-78 593 0 904 234t311 681q0 413-289 645-289 233-804 233h-544v519h569q465 0 712 186t247 536q0 359-255 551-254 193-729 193-260 0-557-57-297-56-653-174v562q360 100 674 150t592 50q719 0 1137-327 419-326 419-882 0-388-222-655t-631-370z" transform="scale(.01563)"/></defs><use xlink:href="#DejaVuSans-33"/><use xlink:href="#DejaVuSans-30" x="63.623"/><use xlink:href="#DejaVuSans-30" x="127.246"/><use xlink:href="#DejaVuSans-30" x="190.869"/></g></g><g id="xtick_8"><use xlink:href="#mc4ac6d861a" id="line2d_8" x="587.457" y="266.112" style="fill:gray;stroke:gray;stroke-width:.8"/><g id="text_8" style="fill:gray" transform="matrix(.1 0 0 -.1 574.732 280.71)"><use xlink:href="#DejaVuSans-33"/><use xlink:href="#DejaVuSans-35" x="63.623"/><use xlink:href="#DejaVuSans-30" x="127.246"/><use xlink:href="#DejaVuSans-30" x="190.869"/></g></g><g id="xtick_9"><use xlink:href="#mc4ac6d861a" id="line2d_9" x="657.207" y="266.112" style="fill:gray;stroke:gray;stroke-width:.8"/><g id="text_9" style="fill:gray" transform="matrix(.1 0 0 -.1 644.482 280.71)"><defs><path id="DejaVuSans-34" d="M2419 4116 825 1625h1594v2491zm-166 550h794V1625h666v-525h-666V0h-628v1100H313v609l1940 2957z" transform="scale(.01563)"/></defs><use xlink:href="#DejaVuSans-34"/><use xlink:href="#DejaVuSans-30" x="63.623"/><use xlink:href="#DejaVuSans-30" x="127.246"/><use xlink:href="#DejaVuSans-30" x="190.869"/></g></g></g><g id="matplotlib.axis_2"><g id="ytick_1"><g id="line2d_10"><defs><path id="m5d1df34e11" d="M0 0h-3.5" style="stroke:gray;stroke-width:.8"/></defs><use xlink:href="#m5d1df34e11" x="71.308" y="217.509" style="fill:gray;stroke:gray;stroke-width:.8"/></g><g id="text_10" style="fill:gray" transform="matrix(.16 0 0 -.16 0 223.588)"><defs><path id="DejaVuSans-2212" d="M678 2272h4006v-531H678v531z" transform="scale(.01563)"/></defs><use xlink:href="#DejaVuSans-2212"/><use xlink:href="#DejaVuSans-31" x="83.789"/><use xlink:href="#DejaVuSans-30" x="147.412"/><use xlink:href="#DejaVuSans-30" x="211.035"/><use xlink:href="#DejaVuSans-30" x="274.658"/><use xlink:href="#DejaVuSans-30" x="338.281"/></g></g><g id="ytick_2"><use xlink:href="#m5d1df34e11" id="line2d_11" x="71.308" y="154.082" style="fill:gray;stroke:gray;stroke-width:.8"/><use xlink:href="#DejaVuSans-30" id="text_11" style="fill:gray" transform="matrix(.16 0 0 -.16 54.127 160.16)"/></g><g id="ytick_3"><use xlink:href="#m5d1df34e11" id="line2d_12" x="71.308" y="90.654" style="fill:gray;stroke:gray;stroke-width:.8"/><g id="text_12" style="fill:gray" transform="matrix(.16 0 0 -.16 13.408 96.733)"><use xlink:href="#DejaVuSans-31"/><use xlink:href="#DejaVuSans-30" x="63.623"/><use xlink:href="#DejaVuSans-30" x="127.246"/><use xlink:href="#DejaVuSans-30" x="190.869"/><use xlink:href="#DejaVuSans-30" x="254.492"/></g></g><g id="ytick_4"><use xlink:href="#m5d1df34e11" id="line2d_13" x="71.308" y="27.226" style="fill:gray;stroke:gray;stroke-width:.8"/><g id="text_13" style="fill:gray" transform="matrix(.16 0 0 -.16 13.408 33.305)"><use xlink:href="#DejaVuSans-32"/><use xlink:href="#DejaVuSans-30" x="63.623"/><use xlink:href="#DejaVuSans-30" x="127.246"/><use xlink:href="#DejaVuSans-30" x="190.869"/><use xlink:href="#DejaVuSans-30" x="254.492"/></g></g></g><path id="line2d_14" d="m99.207 154.117.282-.072.282.074.282-.075.282.076.282-.078.282.08.282-.082.282.084.282-.086.282.088.282-.09.282.092.282-.094.282.097.282-.1.282.103.282-.106.282.11.282-.114.282.117.282-.12.282.124.282-.13.282.136.282-.141.281.147.282-.154.282.161.282-.169.282.178.282-.188.282.2.282-.213.282.227.282-.243.282.262.282-.285.282.311.282-.343.282.384.282-.435.282.5.282-.59.282.722.282-.929.282 1.303.282-2.195.564 16.401.282-4.038.281 1.845.564.685.282-.931.282 1.631.282.903.282.266.282-1.172.282.588.282 1.624.282 2.359.564 2.3 1.128 5.43.282.386.282.996.282 1.673.282.05.282-7.617.846-44.502.282-6.861.281-1.572.564 4.405.282-.294.282-2.754.846-12.294.282.24.282 2.324.282 4.894.282 9.617.564 25.764.282 4.98.282-1.86.564-11.135.282-1.655.564 5.466.282.748.282 3.334.564 15.283.281.646.282-2.439.282.038.282 2.115.282-.021.564-3.385.282.909.282 1.454.282.593.282-.402.282.239.564 3.137.282.38.282-.062.282.73 1.41 8.012.282.962.282-.162.282-1.527.281-3.186.282-7.856.846-47.495.282-3.571.846 7.856.282.29.282-1.752.846-17.43.282-.32.282 3.029.282 7.52.846 41.818.282 1.938.564-4.483.282-1.287.282-.496.282.748 1.127 7.9.282.266.282-.723.282-1.134.282-.483.282 1.315.282 2.01.282.916.282-.683.564-3.364.282.44.564 4.7.282-.992.282-.282.564 4.492.282.248.282.665.564 2.768.281.295.564-.197.282 1.76.282 2.596.282-2.564.564-25.748.564-20.392.282-3.092.282 2.386.282 3.606.282-.252 1.128-17.164.282.652.282 3.285.282 6.203.846 29.744.282.527.563-6.577.282-1.003.282 1.263.282 1.914.564 1.342.564 5.135.282.13.282-.585.564 2.114.282-.983.282 1.156.564 8.882.282-.218.282.06.282 2.062.282.145.282-2.624.282-1.359.282.616.282.05.282-.471.281.903 1.128 7.39.564 1.056.282.218.282-3.815.282-11.945.564-34.097.282-9.418.282-2.554.282 1.561.282 2.544.282 1.292.282-.633.282-2.011.846-9.381.282.485.282 4.35.282 9.62.563 25.383.282 4.042.282-2.356.282-3.386.282-1.373.282.354.282 1.502.846 6.552.282 1.147.282 1.761.564 5.88.282.362.282-1.553.282-.226.564 5.235.282.07.282-.567.282 2.681.282 5.138.282 2.85.282-.055.281 1.245.282 3.375.282.167.564-10.341.282 1.052.282 3.33.282-.371.282-1.303.564 7.242.282-7.145.846-47.565.282-6.26.282-2.303.564 3.295.282-1.27 1.128-15.434.282-.389.281 2.481.282 6.36.846 38.388.282 2.066.846-8.369.282-1.36.282-.287.282 1.134.846 6.76.282 1.612.846 7.973.282.531.282 1.2.564 5.485.282.355.563-5.2.282.675.282 1.675.564-.841.282 3.843.282 5.68.282 3.288.282 1.723.564 5.468.282-.194.282-2.532.282-1.511.282.15.282-4.067.846-47.27.282-3.077.282-.37.282-1.215.282.515.282 1.208.282-2.847.845-19.712.282-2.17.282.245.282 3.118.282 9.054.564 32.652.282 8.986.282.409.846-9.543.282 1.224.846 9.602.282 1.734.282.753.282.035.282.274.564 1.984.564 1.919.281.191.282.393.282 1.78.564 4.653.564.97.846 3.721.564 4.5.282 1.971.564 2.297.846 3.95.282 2.48.282-2.405.282-12.376.846-50.095.282-7.842.281-2.067.564 2.757.282-.496.282-1.52.282-3.498.564-7.982.282-.265.282 1.63.282 7.432.564 33.275.282 7.464.564-1.756.282.68.282-.124.282-.53.282 1.012.846 6.505.564 1.568.282.09.281-1.268.282-.302.564 6.142.282.208.282-.777.564 3.277.282-.323.282-.975.282.92.564 4.518 1.41 7.532.564 3.469.282.91.282 1.892.282.673.282-6.113.563-34.919.564-29.891.282-4.77.282.502.564 3.971.282-.986.846-12.058.282-1.484.282.148.282 4.579.282 12.728.564 36.227.282 6.877.282-2.713.282-4.031.282.104.282 1.284.282-1.52.282-2.235.282.769.563 4.921.564 2.645.282.441.282-.668.282.035.564 3.804.282.611.282.188.282 1.865.564 6.622.846 4.568.564 3.155.846 8.732.846 4.755.282.932.281-1.442.282-8.913.846-54.984.282-8.748.282-4.937.282-2.369.282.005.282.535.282-1.183.564-8.277.282-4.034.282-2.107.282-.442.282 3.368.282 12.542.564 42.309.282 9.882.282.19.564-6.135.282-1.586.281.657.282 1.094.282.171.282 1.347.282 2.832.282.184.564-7.52.564-3.637.282-.91.282.87.282-.057.282-2.604.282-.917.282 4.51.564 11.994.564 8.686.282 4.423 1.973 13.91.282.945.282.55.282-1.191.282-9.453.846-55.67.564-18.381.564-3.85.564-9.88.282-2.765.564-10.96.282-.82.282 4.882.282 7.453.282 12.914.846 57.663.281.775.564-12.196.282-1.323.282-.322.282-1.796.282.968.564 12.482.282 1.367.282.25.282 2.088.282.692.282-1.96.282-.895.564 2.567.282.347.846 2.304.846 5.998.282-.063.563 4.343.282-2.061.282-2.887.282 1.838.282 4.158.282 1.12.282-.275.282 3.232.282 5.835.282 2.704.282-5.076.282-14.047.846-55.082.282-8.967.282-3.655.282.357.282 1.698.282-.211.282-3.822.564-11.47.282-2.163.282.836.281 4.94.282 12.217.564 36.1.282 9.956.282 1.979.564-5.005.282 1.142.282 3.282.282 1.309.282.05.282 2.466.282 3.718 1.128 7.66.282-1.175.282-.12.282.91.282-1.418.282-2.873.282-1.317.282-.652.563-2.778.282-.873.282-1.504.282-.081.282 3.865.564 11.974.282 3.959.282 1.76.282-.058.282.365.282 2.541.282 3.582.282.686.282-7.323.564-38.096.564-36.873.282-13.416.282-5.192.564 6.593.282.328.563-2.907.282-2.234.282-1.317.282 1.345.282 5.096.282 12.594.846 62.154.282 2.616.282-1.16.282.007.282-1.82.564-8.442.282.099.564 2.292.282 1.101.564 2.914.282.544.564-.589.563 1.913.564-.577.564 3.973.282-1.448.282-.855.282 4.752.282 7.282.846 12.519.282 7.732.282 4.12.282-.926.282-1.792.282 1.011.282 1.53.282-4.52.282-14.409.846-62.947.564-22.406 2.255-43.2.282.991.282 7.063.282 14.932.846 61.405.282 11.07.282 5.983.282 3.616.282 1.965.282-.747.564-5.777.282.511.846 9.957.282 1.878.563 1.756.564 1.374.282-.334.282-.755.282.672.564 3.68.282 1.093.282 2.84.564 7.494.846 6.802.564-3.021.282 2.435.282 3.476.282 1.644.282 2.335.282 4.1.282-.01.282-9.988 1.41-91.942 1.691-39.09.564-3.723.282-1.138.282 2.275.282 9.356.564 38.701.564 35.494.564 21.021.282 6.136.282 1.805.845-1.587.564-5.014.282-.39.846 6.143.282-1.867.282-3.923.282-1.688.282 1.377.282.171.282-1.897.282.867.564 8.639.282.823.282 1.348.846 10.978.564 2.69.845 6.884.564 3.182.282-5.055.564-33.556.846-52.744.282-7.184.282-2.64.282-5.618.564-14.406.846-16.19.282-.728.282 6.15.282 14.204.846 62.944.282 9.326.282 3.175.281 1.321.282.48.282-.22.282 1.686.564 7.502.282.526.282 1.326.282 2.648.282-.12.564-5.742.282.033.846 1.91.282-1.208.282-2.824.282-1.132.564 4.477.282 2.162.282 4.148.564 14.124.282 3.44.281 1.597.282 3.242.846 16.12.282-1.035.282-11.262 1.41-101.951.564-15.677 1.128-18.941.564-5.941.282-1.46.282 3.881.282 12.46.845 55.904.846 28.737.564 10.986.282 1.56.282-.891.282-.312.282 1.73.282.088.282-3.4.282-1.532.564 8.743.282.5.282.155.846 14.091.282 1.576 1.128 9.912.563 11.512 1.128 13.647.282.112.282-5.226.282-12.95 1.41-103.234.564-17.911.564-13.433.564-22.846.564-21.656.282-7.126.282-1.73.282 8.214 1.691 104.645.564 37.308.282 10.95.282 1.51.282-1.22.282.69.282-.687.564-7.114.282 1.919.564 7.251.846 8.672.282.744.282 1.91.564 7.91 1.41 20.928.563 7.168.564 8.993.282-5.04.282-18.563 1.128-107.294.282-15.6.846-29.285 1.128-53.983.282-3.88.282 5.674.282 10.213.281 15.86 1.128 93.005.564 28.968.564 14.555.282 5.34.282 1.38.282-2.044.282-.135.282 2.517.282 1.291.282-.078.282 1.378.564 6.907.564 8.38.282-.176.282-2.353.282.134.564 6.437.281 2.022.282 3.932.564 13.635.846 9.316.282-1.057.282-11.808.564-49.311.564-52.716.564-31.161.564-15.31.846-38.583.282-5.824.282-2.324.282 2.997.282 11.217 1.41 87.108.845 37.706.282 5.002.282.56.282.947.564 5.597.282-.013.282-.718.282 2.256.282 4.126.282 1.425.282-.975.282 1.405.564 7.142.282 1.22.282 2.156.564 7.21 1.127 18.41.564 6.944.282 4.567.282 2.21.282-7.89.282-22.274.846-87.817.564-30.162.564-29.493.564-29.541.282-7.68.282-2.638.282 2.536.282 5.013.282 8.1.282 16.963.563 47.421 1.128 52.142 1.128 23.814.282 2.38.282 1.422 2.256 24.667.282 4.378.564 3.822.564 9.236 1.691 25.702.282 4.362.282-.43.282-10.523.282-24.336.846-94.02 1.128-78.864.564-18.603.282-1.542.846 16.486.282 6.424.564 31.156.282 14.47 1.691 52.953.564 23.206.564 14.215.564 8.527.282 2.475.282 1.463.282.251.282 1.082.564 4.83.282.383.282 1.873.564 7.149.282.565.282 1.462.563 10.825.564 9.804.282 3.113.846 13.83.282-2.111.282-13.14.564-67.291.564-54.358.846-54.692.564-16.786.282-4.234.282-.732.282-1.389.282-2.45.282 2.28.282 9.33.563 30.845.564 35.158.564 18.38 1.128 26.631.564 7.826.564 12.314.282 3.829.282 6.111.564 20.378.282 3.038.282-2.005.282-1.07.282 1.321.282.255.282-1.599.282.164.845 10.821 1.128 25.292.564 7.114.282-.16.282-8.524.282-22.63.846-96.643.846-63.45.564-15.411.282-4.984.282-1 .282 2.11.282.806.282 1.5.282 8.865.845 52.155 1.128 39.077 1.692 23.57.846 17.778.564 9.867.564 5.469.282 2.083.564 1.656.846 7.437 1.127 13.828.564 14.287.564 6.828.282 2.752.282-.816.282-12.461.564-68.312.564-63.55.564-37.246.282-13.588.282-7.637.564-5.954.282-1.546.282.983.282 5.058.282 10.07 1.127 56.68.282 6.909.282 3.811.282 1.01.282 2.366.846 18.646.282 3.44.846 22.428 1.692 31.848.282 2.81.564 3.344.282 2.584 1.41 21.242 1.127 19.865.282 3.927.282.263.282-4.52.282-17.138 1.128-139.917.564-32.433.282-6.771.282-.096.282-.785.282-2.703.282.136.564 7.027.282 4.993.281 11.136.564 30.322.564 15.579.282 3.905.564 3.262 1.128 13.708.564 11.826.846 20.107.564 17.92.564 11.899.846 10.376.282 2.632.281-1.42.282-3.67.282-.503.564 5.445.282 1.105.282 4.436.564 17.665.282 4.624.282 2.32.564 7.694.282-1.054.282-15.059 1.41-151.645.282-12.988.564-12.022.564-7.815.281.59.282 1.763.282.012.282.463.282 4.86.564 21.543.846 30.674.564 10.193.564 6.468 2.256 37.32.282 1.916.282 4.144.564 13.04.563 5.963.846 15.745.282 1.307.282.336.282-.16.282-.387.282.42.282 1.255.282 1.79.282 3.589.564 11.545 1.128 16.182.564 7.808.282-3.999.282-19.668 1.127-130.268.282-16.65.282-9.582.846-15.244.282-2.278.282 1.094.282 1.977.282.546.282 2.003.282 9.01.564 30.904.564 15.174.846 15.972 1.128 13.948.845 9.146.282 4.462.564 11.33.564 5.3 1.41 25.11.282 4.661.282 2.284.564-.538.282.927.282-.388.282-2.894.282-.44.564 10.472.282 2.565.282 4.32.564 14.405.281 2.99.564 7.845.282-7.916.282-24.979.846-98.625.564-34.967.564-20.788.282-4.512.282-2.428.282-.902.282 2.44.846 17.068 1.128 45.417.845 12.244.564 8.7 1.128 10.995.564 6.625.846 16.373 1.974 38.257.564 7.112.564 2.585.564 7.182.282 1.027.281-1.104.282 1.64.564 9.256.564 5.902.282.154.282-13.78 1.128-125.076.564-26.53.564-14.71.282-3.1.282-1.28.282.624.564 6.887.282 4.957.282 9.465.564 29.432.281 7.072.564 6.152.564 7.087.846 9.107.282 1.39.282 3.028.564 8.45.282 3.146.564 10.961 1.692 33.899 1.41 19.832.563 6.588.846 10.284.564 7.48.564 7.142.282-3.401.282-17.098 1.128-121.288.846-36.757.564-8.993.282-2.117.282 1.367.564 7.81.282 2.71.281 4.303.564 19.887.564 17.482.846 9.971.564 11.117 1.128 14.267.564 4.68 1.974 29.118.564 6.825.563 8.723.564 12.377.846 20.04.846 17.192.282 1.17.282.48.282 1.543.282-6.87.282-26.156.564-73.936.564-38.935.564-23.796.564-11.403.282-1.694.845 5.71.282 3.98 1.692 39.3.282.318.282 3.852.564 19.602.282 4.33.282.33.282 1.352.564 4.872.282.625.282 1.826 1.41 19.263.563 9.086.282 3.238.564 10.439.282.69.282-1.88.282 1.556 1.128 22.175.564 14.72.564 9.152.282 3.798.282 1.492.282-8.742.282-26.106.564-71.882.564-37.912.564-22.635.281-7.382.282-4.139.282-.628.282 2.023.564 6.642.282 5.099.564 19.508.564 17.897.846 9.485.564 3.365.564 5.877.282.79.282 2.328.564 9.765.846 8.74.282 1.136.281.52.282 2.695.564 7.352.282 1.288.282 2.927.846 15.788.282 2.834 1.128 20.213.846 22.066.282 3.675.282.971.282-9.214.564-62.468.282-29.586.564-31.281.563-26.804.282-6.54.282-2.138.282.772.846 9.345.282 4.097.282 6.777 1.128 38.182.282.764.282 2.045.564 6.85.282 1.191.282 1.679.564 5.249.564 3.188.563 5.76.282 1.495.282 2.211.564 10.031.564 5.379.564 12.594.282 1.574.282.327.282 4.041.564 9.386.282 3.337.846 17.175.564 10.254.282-4.147.282-20.452.564-54.224.564-33.622.563-23.77.564-12.922.282-1.79.282.57.282 1.819.282 2.78.282 1.654.282-.608.282 1.48.846 25.877.282 2.473.846 15.181.282 1.507.564 7.07.282 1.286.282.498.282 2.954.563 8.01.564 7.483.282 4.14.282 2.276.282.763.282 2.01.564 6.918.282 1.345.282 2.261.564 7.059.282 2.067.282 3.475.846 13.906.564 8.508.282 4.947.282-.169.282-12.719.845-67.922.846-39.304.282-8.395.282-3.725.282-1.012.282.008.282 1.007.564 3.157.282 1.116.282 4.816.846 26.375.564 9.617.282 1.341.282.767.846 7.77.846 4.293.281 1.625 1.41 13.389.282.677.282 1.183.846 7.749.282 1.017.282 2.737.846 12.942.564 6.208.564 8.761.282 2.918.564 8.072.282-4.507.563-42.088.564-37.25.564-26.816.282-8.15.564-8.089.282-.908.282 2.327.564 6.705.282 2.971.282 5.447.846 23 .282 2.233.282.612.282 1.11 1.128 8.588.563 1.678h0" clip-path="url(#pc8b8218e4c)" style="fill:none;stroke:#1f77b4;stroke-width:1.5;stroke-linecap:square"/><path id="patch_3" d="M71.308 266.112V0" style="fill:none;stroke:gray;stroke-width:.8;stroke-linejoin:miter;stroke-linecap:square"/><path id="patch_4" d="M685.107 266.112V0" style="fill:none;stroke:#000;stroke-width:.8;stroke-linejoin:miter;stroke-linecap:square"/><path id="patch_5" d="M71.308 266.112h613.8" style="fill:none;stroke:gray;stroke-width:.8;stroke-linejoin:miter;stroke-linecap:square"/><path id="patch_6" d="M71.308 0h613.8" style="fill:none;stroke:#000;stroke-width:.8;stroke-linejoin:miter;stroke-linecap:square"/></g></g><defs><clipPath id="pc8b8218e4c"><path d="M71.308 0h613.8v266.112h-613.8z"/></clipPath></defs></svg>