<svg xmlns="http://www.w3.org/2000/svg" xmlns:xlink="http://www.w3.org/1999/xlink" width="913.477" height="377.053" viewBox="0 0 685.107 282.79"><defs><style>*{stroke-linejoin:round;stroke-linecap:butt}</style></defs><g id="figure_1"><path id="patch_1" d="M0 282.79h685.107V0H0v282.79z" style="fill:none"/><g id="axes_1"><path id="patch_2" d="M71.308 266.112h613.8V0h-613.8v266.112z" style="fill:none"/><g id="matplotlib.axis_1"><g id="xtick_1"><g id="line2d_1"><defs><path id="m0c9e79de9d" d="M0 0v3.5" style="stroke:gray;stroke-width:.8"/></defs><use xlink:href="#m0c9e79de9d" x="99.207" y="266.112" style="fill:gray;stroke:gray;stroke-width:.8"/></g><g id="text_1" style="fill:gray" transform="matrix(.1 0 0 -.1 96.026 280.71)"><defs><path id="DejaVuSans-30" d="M2034 4250q-487 0-733-480-245-479-245-1442 0-959 245-1439 246-480 733-480 491 0 736 480 246 480 246 1439 0 963-246 1442-245 480-736 480zm0 500q785 0 1199-621 414-620 414-1801 0-1178-414-1799Q2819-91 2034-91q-784 0-1198 620-414 621-414 1799 0 1181 414 1801 414 621 1198 621z" transform="scale(.01563)"/></defs><use xlink:href="#DejaVuSans-30"/></g></g><g id="xtick_2"><use xlink:href="#m0c9e79de9d" id="line2d_2" x="168.958" y="266.112" style="fill:gray;stroke:gray;stroke-width:.8"/><g id="text_2" style="fill:gray" transform="matrix(.1 0 0 -.1 159.414 280.71)"><defs><path id="DejaVuSans-35" d="M691 4666h2478v-532H1269V2991q137 47 274 70 138 23 276 23 781 0 1237-428 457-428 457-1159 0-753-469-1171Q2575-91 1722-91q-294 0-599 50Q819 9 494 109v635q281-153 581-228t634-75q541 0 856 284 316 284 316 772 0 487-316 771-315 285-856 285-253 0-505-56-251-56-513-175v2344z" transform="scale(.01563)"/></defs><use xlink:href="#DejaVuSans-35"/><use xlink:href="#DejaVuSans-30" x="63.623"/><use xlink:href="#DejaVuSans-30" x="127.246"/></g></g><g id="xtick_3"><use xlink:href="#m0c9e79de9d" id="line2d_3" x="238.708" y="266.112" style="fill:gray;stroke:gray;stroke-width:.8"/><g id="text_3" style="fill:gray" transform="matrix(.1 0 0 -.1 225.982 280.71)"><defs><path id="DejaVuSans-31" d="M794 531h1031v3560L703 3866v575l1116 225h631V531h1031V0H794v531z" transform="scale(.01563)"/></defs><use xlink:href="#DejaVuSans-31"/><use xlink:href="#DejaVuSans-30" x="63.623"/><use xlink:href="#DejaVuSans-30" x="127.246"/><use xlink:href="#DejaVuSans-30" x="190.869"/></g></g><g id="xtick_4"><use xlink:href="#m0c9e79de9d" id="line2d_4" x="308.457" y="266.112" style="fill:gray;stroke:gray;stroke-width:.8"/><g id="text_4" style="fill:gray" transform="matrix(.1 0 0 -.1 295.733 280.71)"><use xlink:href="#DejaVuSans-31"/><use xlink:href="#DejaVuSans-35" x="63.623"/><use xlink:href="#DejaVuSans-30" x="127.246"/><use xlink:href="#DejaVuSans-30" x="190.869"/></g></g><g id="xtick_5"><use xlink:href="#m0c9e79de9d" id="line2d_5" x="378.207" y="266.112" style="fill:gray;stroke:gray;stroke-width:.8"/><g id="text_5" style="fill:gray" transform="matrix(.1 0 0 -.1 365.483 280.71)"><defs><path id="DejaVuSans-32" d="M1228 531h2203V0H469v531q359 372 979 998 621 627 780 809 303 340 423 576 121 236 121 464 0 372-261 606-261 235-680 235-297 0-627-103-329-103-704-313v638q381 153 712 231 332 78 607 78 725 0 1156-363 431-362 431-968 0-288-108-546-107-257-392-607-78-91-497-524-418-433-1181-1211z" transform="scale(.01563)"/></defs><use xlink:href="#DejaVuSans-32"/><use xlink:href="#DejaVuSans-30" x="63.623"/><use xlink:href="#DejaVuSans-30" x="127.246"/><use xlink:href="#DejaVuSans-30" x="190.869"/></g></g><g id="xtick_6"><use xlink:href="#m0c9e79de9d" id="line2d_6" x="447.957" y="266.112" style="fill:gray;stroke:gray;stroke-width:.8"/><g id="text_6" style="fill:gray" transform="matrix(.1 0 0 -.1 435.233 280.71)"><use xlink:href="#DejaVuSans-32"/><use xlink:href="#DejaVuSans-35" x="63.623"/><use xlink:href="#DejaVuSans-30" x="127.246"/><use xlink:href="#DejaVuSans-30" x="190.869"/></g></g><g id="xtick_7"><use xlink:href="#m0c9e79de9d" id="line2d_7" x="517.707" y="266.112" style="fill:gray;stroke:gray;stroke-width:.8"/><g id="text_7" style="fill:gray" transform="matrix(.1 0 0 -.1 504.983 280.71)"><defs><path id="DejaVuSans-33" d="M2597 2516q453-97 707-404 255-306 255-756 0-690-475-1069Q2609-91 1734-91q-293 0-604 58T488 141v609q262-153 574-231 313-78 654-78 593 0 904 234t311 681q0 413-289 645-289 233-804 233h-544v519h569q465 0 712 186t247 536q0 359-255 551-254 193-729 193-260 0-557-57-297-56-653-174v562q360 100 674 150t592 50q719 0 1137-327 419-326 419-882 0-388-222-655t-631-370z" transform="scale(.01563)"/></defs><use xlink:href="#DejaVuSans-33"/><use xlink:href="#DejaVuSans-30" x="63.623"/><use xlink:href="#DejaVuSans-30" x="127.246"/><use xlink:href="#DejaVuSans-30" x="190.869"/></g></g><g id="xtick_8"><use xlink:href="#m0c9e79de9d" id="line2d_8" x="587.457" y="266.112" style="fill:gray;stroke:gray;stroke-width:.8"/><g id="text_8" style="fill:gray" transform="matrix(.1 0 0 -.1 574.732 280.71)"><use xlink:href="#DejaVuSans-33"/><use xlink:href="#DejaVuSans-35" x="63.623"/><use xlink:href="#DejaVuSans-30" x="127.246"/><use xlink:href="#DejaVuSans-30" x="190.869"/></g></g><g id="xtick_9"><use xlink:href="#m0c9e79de9d" id="line2d_9" x="657.207" y="266.112" style="fill:gray;stroke:gray;stroke-width:.8"/><g id="text_9" style="fill:gray" transform="matrix(.1 0 0 -.1 644.482 280.71)"><defs><path id="DejaVuSans-34" d="M2419 4116 825 1625h1594v2491zm-166 550h794V1625h666v-525h-666V0h-628v1100H313v609l1940 2957z" transform="scale(.01563)"/></defs><use xlink:href="#DejaVuSans-34"/><use xlink:href="#DejaVuSans-30" x="63.623"/><use xlink:href="#DejaVuSans-30" x="127.246"/><use xlink:href="#DejaVuSans-30" x="190.869"/></g></g></g><g id="matplotlib.axis_2"><g id="ytick_1"><g id="line2d_10"><defs><path id="m5c902d01fa" d="M0 0h-3.5" style="stroke:gray;stroke-width:.8"/></defs><use xlink:href="#m5c902d01fa" x="71.308" y="228.593" style="fill:gray;stroke:gray;stroke-width:.8"/></g><g id="text_10" style="fill:gray" transform="matrix(.16 0 0 -.16 0 234.672)"><defs><path id="DejaVuSans-2212" d="M678 2272h4006v-531H678v531z" transform="scale(.01563)"/></defs><use xlink:href="#DejaVuSans-2212"/><use xlink:href="#DejaVuSans-32" x="83.789"/><use xlink:href="#DejaVuSans-30" x="147.412"/><use xlink:href="#DejaVuSans-30" x="211.035"/><use xlink:href="#DejaVuSans-30" x="274.658"/><use xlink:href="#DejaVuSans-30" x="338.281"/></g></g><g id="ytick_2"><use xlink:href="#m5c902d01fa" id="line2d_11" x="71.308" y="188.682" style="fill:gray;stroke:gray;stroke-width:.8"/><g id="text_11" style="fill:gray" transform="matrix(.16 0 0 -.16 0 194.76)"><use xlink:href="#DejaVuSans-2212"/><use xlink:href="#DejaVuSans-31" x="83.789"/><use xlink:href="#DejaVuSans-30" x="147.412"/><use xlink:href="#DejaVuSans-30" x="211.035"/><use xlink:href="#DejaVuSans-30" x="274.658"/><use xlink:href="#DejaVuSans-30" x="338.281"/></g></g><g id="ytick_3"><use xlink:href="#m5c902d01fa" id="line2d_12" x="71.308" y="148.77" style="fill:gray;stroke:gray;stroke-width:.8"/><use xlink:href="#DejaVuSans-30" id="text_12" style="fill:gray" transform="matrix(.16 0 0 -.16 54.127 154.85)"/></g><g id="ytick_4"><use xlink:href="#m5c902d01fa" id="line2d_13" x="71.308" y="108.859" style="fill:gray;stroke:gray;stroke-width:.8"/><g id="text_13" style="fill:gray" transform="matrix(.16 0 0 -.16 13.408 114.938)"><use xlink:href="#DejaVuSans-31"/><use xlink:href="#DejaVuSans-30" x="63.623"/><use xlink:href="#DejaVuSans-30" x="127.246"/><use xlink:href="#DejaVuSans-30" x="190.869"/><use xlink:href="#DejaVuSans-30" x="254.492"/></g></g><g id="ytick_5"><use xlink:href="#m5c902d01fa" id="line2d_14" x="71.308" y="68.948" style="fill:gray;stroke:gray;stroke-width:.8"/><g id="text_14" style="fill:gray" transform="matrix(.16 0 0 -.16 13.408 75.027)"><use xlink:href="#DejaVuSans-32"/><use xlink:href="#DejaVuSans-30" x="63.623"/><use xlink:href="#DejaVuSans-30" x="127.246"/><use xlink:href="#DejaVuSans-30" x="190.869"/><use xlink:href="#DejaVuSans-30" x="254.492"/></g></g><g id="ytick_6"><use xlink:href="#m5c902d01fa" id="line2d_15" x="71.308" y="29.037" style="fill:gray;stroke:gray;stroke-width:.8"/><g id="text_15" style="fill:gray" transform="matrix(.16 0 0 -.16 13.408 35.115)"><use xlink:href="#DejaVuSans-33"/><use xlink:href="#DejaVuSans-30" x="63.623"/><use xlink:href="#DejaVuSans-30" x="127.246"/><use xlink:href="#DejaVuSans-30" x="190.869"/><use xlink:href="#DejaVuSans-30" x="254.492"/></g></g></g><path id="line2d_16" d="m99.207 148.694.282.148.282-.139.282.13.282-.123.282.117.282-.11.282.104.282-.099.282.094.282-.089.282.084.282-.08.282.076.282-.071.282.067.282-.063.282.059.564-.004.846-.044.846.033 1.41-.016 3.947.088.282-.195.282.253.282-.344.282.51.282-.897.282 2.727.281 11.586.282-2.27.282.619.282-2.855.564-13.658.564-5.362.564-4.63.282-.444.564-1.92.282-1.414.282-.815.282-.35.282 1.26.564 4.596.282 2.785 1.128 15.72.282-.523.282-1.32.281 1.487.282 3.265.282 1.468.282-1.335.282-.609.282.245.282-1.53.282-3.37.282-1.217.564 2.15.282-.357.282.114.282.238.564-.481.564 1.234.282.334.282.573.282.877.564.344.282.742.845 4.29.564 2.92.282.08.282.24.282.575.282-.318.282-3.339 1.128-24.385.282-2.966.282-1.423.282-.181.282-.43.564-2.782.564-2.689.282-.24.282 1.004.564 3.336.281 3.106.846 17.924.282 1.457.564-2.184.282.513 1.41 6.598.846 1.885.282-.976.564-4.049.282-1.23.564-4.07.282.999.282 2.215.282.113.282-1.261.281.86.282 1.87.282-.716.282-3.02.282-1.35.282.798.282.409.282-.258.282 2.066.564 7.947.564.81.282 2.42.282.68.282-6.459.564-20.874.282-3.604.282-1.491.282-2.152.282-1.287.282 1.435.282 2.457.282 1.227.281-.422.282-.728.282-.139.282.762.282 1.64.282 3.397.564 10.653.282 2.39.282-.828.564-3.355.282-.594.282.432.564 2.378.282.032.282-.337.282-.113.282-.385.564-2.408.282-.252.282-.079.563-1.21.282.652.846 4.368.282 1.609.282.698.282.11.282.988.282 1.592.282.898.282.11.282.886.564 4.09.282.486.282-.455.282.544.282 2.011.282.374.282-3.755.282-5.65.846-10.15.282-6.54.281-3.673.282-.277.282-1.153.564-6.73.282-.031.846 4.101.282 3.02.564 11.674.282 6.882.282 3.484.282-.318.282-1.272.282-.58.282-1.148.282-1.69.282-.61.846 1.814.282.53.282-.824.563-5.732.282-.367.564 1.65.282 1.686.846 10.774.282.503.282.09.846.818.564 1.804.564 2.354.282 1.296.282.5.282-.392.282.218.564 2.528.282-2.619 1.41-30.187.563-4.323.282-1.89.282-1.04.282-.574.282-1.868.282-2.882.282-.78.846 7.39.282 5.08.564 16.436.282 2.87.282.22.564 3.207.282-1.263.282-2.271.282.686.281 2.405.282-.337.282-2.581.282-.783.282 1.527.282.546.282-1.027.282-.04.564 3.23.282-.166.282.068.564 2.875.282-1.095.282-2.002.282-.403.846 2.666.282 1.597.282.868.282-.199.282.18.282.966.281.125.282-.848.564-.63.282-2.984 1.128-23.687.564-7.776.282-2.304.846-3.401.282 1.092.564 7.902.282 1.433.282 2.485.846 19.491.564-4.358.282.102.281-.107.282-.923.282-.161.282.394.282-.104.282.69.564 3.466.282-.194.282.454.564 3.304.282.158.282.337.282 1.31.564 3.818.282 1.06.282-.068.282-.27.282-.017.282-.184.282.03.564 2.726.563.37.564 2.397.282-.653.282.348.282 3.046.282 1.768.282-3.899 1.128-33.59.282-4.764.564-4.612.564-7.197.282-1.223.282-3.987.564-20.301.282-3.242.282 4.331.282 8.322.281 12.882.564 34.562.282 6.334.282-.975.282.047.282 1.894.282-.15.282-.95.282 1.118.282-1.053.846-24.626.282 2.673.564 13.576.564 15.547.564 8.246.564 5.087 1.41 6.174.281-1.86.564-4.802.564-2.9.282-.725.282.466.564 1.721.282.064.282-.848.282-2.68.282-5.576 1.128-29.988.564-11.562.564-6.276.845-8.165.282-.787.282 1.077.564 5.68.282 6.126.846 41.597.282 2.03.282-1.033.282.535.282-.945.564-8.003.282-.844.282-.073.282-.274.282.145.282-1.094.564-5.145.564 2.072.282-.544.282.158.563 3.892.564 1.129.564.745.282 1.76.564 7.087.282.769.282-.435.282.193.282.604.282-.273.282-.984.282.057.564 4.614.282-.163.564-6.558.282-5.15 1.127-29.113 1.128-16.422.282-2.212.282.28.282-.3.282-2.255.282 1.04.282 9.724.564 29.697.282 7.95.282 3.243.282 1.024.282-.117.282-.906.564-2.286.282.16.282.761.282.177.282-.302.563-.058.282-1.058.282-1.542.282-.856.282.053.282.274.564-.097.282 1.3.846 11.536.282.822.564 3.514.282-.438.282-2.5.282-1.35.282.954.846 4.633.846 6.335.282-2.595.845-22.371 1.974-50.979 1.128-20.391.282.05.282 3.771.282 8.264.282 16.759.564 46.88.282 9.71.282-1.206.282-2.72.282.256.282.43.563-3.824.282-.016.564 2.014.282.325.282.027.564-.828.282.277.282.038.564-1.793.282 1.227.282 2.028.282.662.282-.528.282.206.564 2.868.282-.095.282-1.156.282-.173.564 3.937.281.094.282-.472.282 1.87.282 3.29.282.945.846-7.003.282-5.148 1.128-35.953 1.41-28.738.846-7.364.282 2.332.282 4.466.282 7.208.282 16.245.563 43.55.282 4.904.564-5.396.282-1.406.564-4.66.282.237.282.597.282.309.564 2.423.282.311.282-.115.564.625.564.12.282-.568.282-1.232.282-.653.282.536.564 2.09.563 2.789.282.056.282.922.846 13.013.564 1.372.564 3.029.282.524.282.117.282-1.823.282-5.64.846-27.737 1.41-55.978.564-21.122.564-11.543.281-3.382.282-.297.282 4.323.282 10.694.282 19.86.846 75.91.282 5.486.282-.292.282.276.282.437.282-1.883.282-3.15.282-1.874.282-.228.846 1.023.564-.591.564 1.389.282-.773.282-1.178.281-.092.282-.27.564-3.097.282.971.282 1.53.282.423.282 1.23.846 10.96.564 4.778 1.41 12.19.282.508.282-2.227.282-6.236.846-32.928 1.127-49.21.846-47.586.564-22.325.282-5.971.282 3.69.564 21.464.282 15.207.564 50.868.564 53.934.282 13.007.282 1.017.282-3.821.564-3.398.846-12.64.282-.165.563 1.94.564.432.282-.04.846-1.711.564-1.755.282.316.564 3.021.282 1.09.564 3.444.564-.246.282 2.68.564 7.527.282 2.939.564 8.947.282 2.14.281-1.076.282-4.379.282-8.284 1.974-86.766.846-36.268.564-12.566.282-3.585.282.945.282 9.717.564 46.923.564 55.084.282 13.389.282 3.328.282.494.281 1.394.282.764.564-1.669.282-1.06.846-7.66.564 2.1.564-2.078.564.075.282-.275.282.29.282.545.282.26.282 2.28.564 12.864.282 2.55.282.24.564 4.187.282-.89.281-1.68.282 1.473.564 5.216.282 2.109.282 3.217.282.629.282-4.965.564-18.776.564-28.95 1.692-99.908.282-11.982.282-4.894.282.566.564 4.99.282 4.573.282 7.987.281 13.192.564 45.098.564 49.94.282 17.353.282 9.45.282 2.33.282-1.673.564-4.528.282-.898.282-1.75.564-9.042.282-1.62.282.935.282-.376.282-2.355.282-1.33.282 1.227.846 6.569.282.033.282.46.281 4.155.564 11.61.282.321.282-.378.564 3.513.282.21.282.428.564 5.511.846 9.28.282.329.282-5.474.564-24.192.846-46.087 1.41-89.763.281-6.922.282.319.282 1.614.282.404.282 1.158.282 4.14.282 8.833.564 34.482 1.128 86.292.282 7.645.282.678.564-2.198.564-2.78.282.52.282 1.155.282.405.282-.638.282-1.177.281-.639.564 1.135.282-.015.282.243.846 3.509.282 1.161.846 6.254 1.128 7.12 1.128 10.094.282.364.282-1.545.282-5.732.564-24.454.845-49.035 1.41-84.27.282-5.235.282-.779.282 1.08.282 3.692.282 6.53.282 9.685.564 35.938.846 56.667.564 28.714.282 4.295.282-.27.282-1.263.282-1.996.563-5.581.282-1.397.282-.443.282.257 1.128 3.661.564 2.025.564.227.282 1.396 2.538 21.178.282 1.11.282 2.655.845 19.033.282 1.924.282.518.282-3.907.282-12.267L388.5 88.724l.564-32.115 1.128-23.544.846-13.515.282-.135.282 7.334.564 32.884 1.41 96.82.563 28.507.282 2.686.564-5.602.564-1.817.282-.794.282.167.564 1.282.282.528 1.41 5.529.282.76.282.165.282.733.845 4.546 1.692 17.468.282 3.405.564 7.848.282-4.41.846-38.658.846-60.365.846-60.083.282-7.49.282-2.736 1.127-18.722.282-1.715.282 3.686.282 11.844 1.692 109.807.564 28.935.282 5.181.282.65.846-5.16.846-7.767.282.421.282-.132.282-.623.282 2.299.563 8.784.282-.02.282.555.564 7.778.564 2.665 1.128 14.2 1.128 16.797.282 2.303.282-2.896.282-8.639.282-14.119 1.973-137.914.564-16.457.564-21.89.564-11.806.282-.86.282 6.013.564 27.4 1.41 92.646.564 33.396.282 6.59.282 2.506.282.41.282-1.787.282-2.717.282-1.439.282-.648.563-4.29.282.093 1.128 10.678.846 6.117.564 7.888.564 5.445.564 8.525.564 7.164.846 11.645.282 3.022.282.54.282-3.783.282-9.8.563-40.366 1.41-113.39.564-19.527.564-23.367.564-7.627.282-2.724.282 1.247.282 5.953.564 21.07 1.128 64.672.846 47.368.563 22.262.282 6.987.564 5.98.282 1.483.282-.322.564-2.933.564-1.299.282.754.564 5.785.282.944.282.372.564 3.32.564 4.974.564 5.575.564 3.712 1.127 10.521.564 7.728.282-.816.282-7.212.282-14.021.564-43.184 1.128-94.957.846-36.87.564-15.61.282-3.538.282-1.769.282 2.552.282 9.41 1.128 61.897.845 47.643.846 38.158.564 15.376.282 4.054.846 4.849.282.456.282-1.724.564-5.964.282-1.148.282.69.282 1.813.282 2.836.846 11.494.564 4.443.563 4.61.282 2.045 1.692 21.771.282-3.211.282-12.041.564-40.918 1.128-105.577.564-28.508.564-15.31.564-8.615.282-1.369.282.455.282 2.345.281 6.526 1.128 45.347.846 37.623.846 33.401.846 22.014.282 5.002 1.128 30.339.564 3.029.282-1.438.564-5.805.282-.326.563.119.282 1.486.564 4.365.282 1.175.282 2.464 1.128 17.768.564 9.017.282 3.145.282 1.759.282-3.95.282-13.466.564-45.272 1.128-109.831.564-24.223.563-17.254.282-3.863.564-3.061.282-.743.282 3.07.564 16.587.564 29.132.564 33.154.564 18.726.846 21.746 2.82 56.857.563 5.928.282 1.892.282.827.564-.284.564.666.282.582.282 1.47.564 5.006.282 3.178.846 13.753.564 5.195.282.246.282-5.734.282-13.11.564-48.305.845-85.34.564-38.297.282-10.755.564-7.68.282-3.465.282-1.476.282 1.72.282 4.869.282 9.08 1.41 62.222 1.128 38.918.564 9.214.564 9.835.281.747.282 1.885 1.128 23.071.846 21.997.564 4.752.564 3.843.282 1.006.282.094.282-.118.282 1.411.846 9.711.846 7.25.564 6.733.281-.858.282-9.13.282-18.195.846-86.166.564-49.105.564-28.473.564-15.717.282-4.519.282-1.189.282 2.693.564 9.901.282 6.908 1.41 50.411.564 13.732.845 13.409.282 1.197.282 1.707.846 13.927 1.692 33.979 1.128 27.143.564 11.002.282 5.927.282 2.625.564-.616.845 2.18.282 2.103 1.128 15.895.282 3.029.282.835.282-7.423.282-19.425 1.41-137.135.564-23.39.564-16.203.282-2.39.564-1.885.282 1.233.564 11.413.563 18.166.846 34.98.846 18.513.846 14.307.564 3.454.564 3.713.282 2.442.282 4.893.564 13.15.564 7.309.564 12.394.282 2.404.282 3.873 1.127 29.71.282 2.957.564 2.822.282 2.447.282.921.282-.353.282 1.33.564 5.623.282 1.51.282-.81.282-7.473.282-16.384.564-51.034.564-58.347.282-18.013 1.128-39.147.281-4.34.282-.524.282 2.024.282 3.534.282 5.52.564 20.845.846 30.697.846 25.26.564 9.537.282 1.375.282.638.564 3.161.846 4.91.282 2.236.282 3.222 1.127 20.43 1.692 43.567.564 11.76.282 6.748.282 3.07.282.237.282 1.883.564 5.64.282.9.282-.497.282-6.78.282-16.642.564-55.587.564-65.06.282-18.032 1.41-36.066.281-1.397.282-2.264.282-.274.564 7.548.282 5.566.564 23.213.564 19.43.564 14.889.846 12.467.282 7.16.282 3.265.282-.346.282 1.084.282 2.469.281-1.6.564-9.94.282 2.517.846 14.283.564 22.34.564 18.898 1.128 26.442.282 2.595.564 9.96.564 8.645 1.41 16.849.281-4.027.282-14.796.564-55.111.564-65.698.282-19.2.846-27.519.282-6.945.282-3.324.282-1.53.282.04.282 3.36.846 20.875.564 21.001.564 18.915.564 6.053.564 4.647.281 1.051.282.386.282.749.564 2.689.282.286.282-.07.282 1.642 1.128 19.634.564 16.167.282 7.044.282 1.023.282-1.529.282 1.78 1.128 20.455.564 15.906 1.41 25.084.281.391.282-10.082.564-53.795.564-52.307.564-27.02.564-21.035.282-4.939.564-3.798.282 1.03.846 14.836.564 16.561.564 14.33.563 9.336 1.128 8.135.282-.436.282 1.007 1.41 12.959.282 1.175.282 3.513.564 9.312.282 3.797.846 17.054.282 2.26.564 9.382.282.237.282-1.994.281 1.75.564 10.307.282 3.695.282 6.464.564 15.998.282.282.282-8.246.282-18.863.564-53.39.564-27.698.846-29.935.846-16.931.282.94.846 8.107.563 11.107 1.128 30.913.846 6.946.564 2.344.564 4.157.282-1.121.282-2.585.282-.498.846 6.087.282 3.95.564 12.179 1.128 11.593 1.973 20.396 1.41 27.97.282 3.268.282 1.163.282-5.285.282-16.549.564-48.56.564-27.911.846-31.043.564-8.892.282-2.335.281-.047.282 2.262.846 11.791 1.128 31.135.564 8.05.282 2.315.282.28.282.934.846 12.728.564 1.14.282 1.475.282.375.282-1.315.282.002.564 4.2.281.652.282 1.595.846 9.083.564 4.492.564 7.42.564 7.15.282 1.966.564 6.55.564 5.724.282.743.282-5.214.564-32.55.564-27.995.846-26.215.563-9.532.282-1.94.282-.34.564.506.282 1.731.282 3.634.564 11.506.564 15.307.282 3.147.282 1.066.564 7.804.282.22.282-3.068.282-.848.282.981.282-.305.282-1.22.282 2.097.564 7.913.845 5.773.282.715.282-.774.282-.184.282 1.418.564 9.026.282 2.345.282.193.282 2.99.564 10.15.282 1.99.564 7.944.282 3.843.282.376.282 1.757.282 2.983.282 1.52.282-7.99 1.127-56.707h0" clip-path="url(#p5085697a7d)" style="fill:none;stroke:#1f77b4;stroke-width:1.5;stroke-linecap:square"/><path id="patch_3" d="M71.308 266.112V0" style="fill:none;stroke:gray;stroke-width:.8;stroke-linejoin:miter;stroke-linecap:square"/><path id="patch_4" d="M685.107 266.112V0" style="fill:none;stroke:#000;stroke-width:.8;stroke-linejoin:miter;stroke-linecap:square"/><path id="patch_5" d="M71.308 266.112h613.8" style="fill:none;stroke:gray;stroke-width:.8;stroke-linejoin:miter;stroke-linecap:square"/><path id="patch_6" d="M71.308 0h613.8" style="fill:none;stroke:#000;stroke-width:.8;stroke-linejoin:miter;stroke-linecap:square"/></g></g><defs><clipPath id="p5085697a7d"><path d="M71.308 0h613.8v266.112h-613.8z"/></clipPath></defs></svg>