<?xml version="1.0" encoding="utf-8" standalone="no"?>
<!DOCTYPE svg PUBLIC "-//W3C//DTD SVG 1.1//EN"
  "http://www.w3.org/Graphics/SVG/1.1/DTD/svg11.dtd">
<svg xmlns:xlink="http://www.w3.org/1999/xlink" width="660.992188pt" height="282.790125pt" viewBox="0 0 660.992188 282.790125" xmlns="http://www.w3.org/2000/svg" version="1.1">
 <metadata>
  <rdf:RDF xmlns:dc="http://purl.org/dc/elements/1.1/" xmlns:cc="http://creativecommons.org/ns#" xmlns:rdf="http://www.w3.org/1999/02/22-rdf-syntax-ns#">
   <cc:Work>
    <dc:type rdf:resource="http://purl.org/dc/dcmitype/StillImage"/>
    <dc:date>2023-03-06T21:33:05.104394</dc:date>
    <dc:format>image/svg+xml</dc:format>
    <dc:creator>
     <cc:Agent>
      <dc:title>Matplotlib v3.6.3, https://matplotlib.org/</dc:title>
     </cc:Agent>
    </dc:creator>
   </cc:Work>
  </rdf:RDF>
 </metadata>
 <defs>
  <style type="text/css">*{stroke-linejoin: round; stroke-linecap: butt}</style>
 </defs>
 <g id="figure_1">
  <g id="patch_1">
   <path d="M -0 282.790125 
L 660.992188 282.790125 
L 660.992188 0 
L -0 0 
L -0 282.790125 
z
" style="fill: none"/>
  </g>
  <g id="axes_1">
   <g id="patch_2">
    <path d="M 47.192188 266.112 
L 660.992188 266.112 
L 660.992188 0 
L 47.192188 0 
L 47.192188 266.112 
z
" style="fill: none"/>
   </g>
   <g id="matplotlib.axis_1">
    <g id="xtick_1">
     <g id="line2d_1">
      <defs>
       <path id="m60104168bf" d="M 0 0 
L 0 3.5 
" style="stroke: #808080; stroke-width: 0.8"/>
      </defs>
      <g>
       <use xlink:href="#m60104168bf" x="75.092188" y="266.112" style="fill: #808080; stroke: #808080; stroke-width: 0.8"/>
      </g>
     </g>
     <g id="text_1">
      <!-- 0 -->
      <g style="fill: #808080" transform="translate(71.910938 280.710438) scale(0.1 -0.1)">
       <defs>
        <path id="DejaVuSans-30" d="M 2034 4250 
Q 1547 4250 1301 3770 
Q 1056 3291 1056 2328 
Q 1056 1369 1301 889 
Q 1547 409 2034 409 
Q 2525 409 2770 889 
Q 3016 1369 3016 2328 
Q 3016 3291 2770 3770 
Q 2525 4250 2034 4250 
z
M 2034 4750 
Q 2819 4750 3233 4129 
Q 3647 3509 3647 2328 
Q 3647 1150 3233 529 
Q 2819 -91 2034 -91 
Q 1250 -91 836 529 
Q 422 1150 422 2328 
Q 422 3509 836 4129 
Q 1250 4750 2034 4750 
z
" transform="scale(0.015625)"/>
       </defs>
       <use xlink:href="#DejaVuSans-30"/>
      </g>
     </g>
    </g>
    <g id="xtick_2">
     <g id="line2d_2">
      <g>
       <use xlink:href="#m60104168bf" x="144.842188" y="266.112" style="fill: #808080; stroke: #808080; stroke-width: 0.8"/>
      </g>
     </g>
     <g id="text_2">
      <!-- 500 -->
      <g style="fill: #808080" transform="translate(135.298438 280.710438) scale(0.1 -0.1)">
       <defs>
        <path id="DejaVuSans-35" d="M 691 4666 
L 3169 4666 
L 3169 4134 
L 1269 4134 
L 1269 2991 
Q 1406 3038 1543 3061 
Q 1681 3084 1819 3084 
Q 2600 3084 3056 2656 
Q 3513 2228 3513 1497 
Q 3513 744 3044 326 
Q 2575 -91 1722 -91 
Q 1428 -91 1123 -41 
Q 819 9 494 109 
L 494 744 
Q 775 591 1075 516 
Q 1375 441 1709 441 
Q 2250 441 2565 725 
Q 2881 1009 2881 1497 
Q 2881 1984 2565 2268 
Q 2250 2553 1709 2553 
Q 1456 2553 1204 2497 
Q 953 2441 691 2322 
L 691 4666 
z
" transform="scale(0.015625)"/>
       </defs>
       <use xlink:href="#DejaVuSans-35"/>
       <use xlink:href="#DejaVuSans-30" x="63.623047"/>
       <use xlink:href="#DejaVuSans-30" x="127.246094"/>
      </g>
     </g>
    </g>
    <g id="xtick_3">
     <g id="line2d_3">
      <g>
       <use xlink:href="#m60104168bf" x="214.592188" y="266.112" style="fill: #808080; stroke: #808080; stroke-width: 0.8"/>
      </g>
     </g>
     <g id="text_3">
      <!-- 1000 -->
      <g style="fill: #808080" transform="translate(201.867188 280.710438) scale(0.1 -0.1)">
       <defs>
        <path id="DejaVuSans-31" d="M 794 531 
L 1825 531 
L 1825 4091 
L 703 3866 
L 703 4441 
L 1819 4666 
L 2450 4666 
L 2450 531 
L 3481 531 
L 3481 0 
L 794 0 
L 794 531 
z
" transform="scale(0.015625)"/>
       </defs>
       <use xlink:href="#DejaVuSans-31"/>
       <use xlink:href="#DejaVuSans-30" x="63.623047"/>
       <use xlink:href="#DejaVuSans-30" x="127.246094"/>
       <use xlink:href="#DejaVuSans-30" x="190.869141"/>
      </g>
     </g>
    </g>
    <g id="xtick_4">
     <g id="line2d_4">
      <g>
       <use xlink:href="#m60104168bf" x="284.342188" y="266.112" style="fill: #808080; stroke: #808080; stroke-width: 0.8"/>
      </g>
     </g>
     <g id="text_4">
      <!-- 1500 -->
      <g style="fill: #808080" transform="translate(271.617188 280.710438) scale(0.1 -0.1)">
       <use xlink:href="#DejaVuSans-31"/>
       <use xlink:href="#DejaVuSans-35" x="63.623047"/>
       <use xlink:href="#DejaVuSans-30" x="127.246094"/>
       <use xlink:href="#DejaVuSans-30" x="190.869141"/>
      </g>
     </g>
    </g>
    <g id="xtick_5">
     <g id="line2d_5">
      <g>
       <use xlink:href="#m60104168bf" x="354.092188" y="266.112" style="fill: #808080; stroke: #808080; stroke-width: 0.8"/>
      </g>
     </g>
     <g id="text_5">
      <!-- 2000 -->
      <g style="fill: #808080" transform="translate(341.367188 280.710438) scale(0.1 -0.1)">
       <defs>
        <path id="DejaVuSans-32" d="M 1228 531 
L 3431 531 
L 3431 0 
L 469 0 
L 469 531 
Q 828 903 1448 1529 
Q 2069 2156 2228 2338 
Q 2531 2678 2651 2914 
Q 2772 3150 2772 3378 
Q 2772 3750 2511 3984 
Q 2250 4219 1831 4219 
Q 1534 4219 1204 4116 
Q 875 4013 500 3803 
L 500 4441 
Q 881 4594 1212 4672 
Q 1544 4750 1819 4750 
Q 2544 4750 2975 4387 
Q 3406 4025 3406 3419 
Q 3406 3131 3298 2873 
Q 3191 2616 2906 2266 
Q 2828 2175 2409 1742 
Q 1991 1309 1228 531 
z
" transform="scale(0.015625)"/>
       </defs>
       <use xlink:href="#DejaVuSans-32"/>
       <use xlink:href="#DejaVuSans-30" x="63.623047"/>
       <use xlink:href="#DejaVuSans-30" x="127.246094"/>
       <use xlink:href="#DejaVuSans-30" x="190.869141"/>
      </g>
     </g>
    </g>
    <g id="xtick_6">
     <g id="line2d_6">
      <g>
       <use xlink:href="#m60104168bf" x="423.842188" y="266.112" style="fill: #808080; stroke: #808080; stroke-width: 0.8"/>
      </g>
     </g>
     <g id="text_6">
      <!-- 2500 -->
      <g style="fill: #808080" transform="translate(411.117188 280.710438) scale(0.1 -0.1)">
       <use xlink:href="#DejaVuSans-32"/>
       <use xlink:href="#DejaVuSans-35" x="63.623047"/>
       <use xlink:href="#DejaVuSans-30" x="127.246094"/>
       <use xlink:href="#DejaVuSans-30" x="190.869141"/>
      </g>
     </g>
    </g>
    <g id="xtick_7">
     <g id="line2d_7">
      <g>
       <use xlink:href="#m60104168bf" x="493.592188" y="266.112" style="fill: #808080; stroke: #808080; stroke-width: 0.8"/>
      </g>
     </g>
     <g id="text_7">
      <!-- 3000 -->
      <g style="fill: #808080" transform="translate(480.867188 280.710438) scale(0.1 -0.1)">
       <defs>
        <path id="DejaVuSans-33" d="M 2597 2516 
Q 3050 2419 3304 2112 
Q 3559 1806 3559 1356 
Q 3559 666 3084 287 
Q 2609 -91 1734 -91 
Q 1441 -91 1130 -33 
Q 819 25 488 141 
L 488 750 
Q 750 597 1062 519 
Q 1375 441 1716 441 
Q 2309 441 2620 675 
Q 2931 909 2931 1356 
Q 2931 1769 2642 2001 
Q 2353 2234 1838 2234 
L 1294 2234 
L 1294 2753 
L 1863 2753 
Q 2328 2753 2575 2939 
Q 2822 3125 2822 3475 
Q 2822 3834 2567 4026 
Q 2313 4219 1838 4219 
Q 1578 4219 1281 4162 
Q 984 4106 628 3988 
L 628 4550 
Q 988 4650 1302 4700 
Q 1616 4750 1894 4750 
Q 2613 4750 3031 4423 
Q 3450 4097 3450 3541 
Q 3450 3153 3228 2886 
Q 3006 2619 2597 2516 
z
" transform="scale(0.015625)"/>
       </defs>
       <use xlink:href="#DejaVuSans-33"/>
       <use xlink:href="#DejaVuSans-30" x="63.623047"/>
       <use xlink:href="#DejaVuSans-30" x="127.246094"/>
       <use xlink:href="#DejaVuSans-30" x="190.869141"/>
      </g>
     </g>
    </g>
    <g id="xtick_8">
     <g id="line2d_8">
      <g>
       <use xlink:href="#m60104168bf" x="563.342188" y="266.112" style="fill: #808080; stroke: #808080; stroke-width: 0.8"/>
      </g>
     </g>
     <g id="text_8">
      <!-- 3500 -->
      <g style="fill: #808080" transform="translate(550.617188 280.710438) scale(0.1 -0.1)">
       <use xlink:href="#DejaVuSans-33"/>
       <use xlink:href="#DejaVuSans-35" x="63.623047"/>
       <use xlink:href="#DejaVuSans-30" x="127.246094"/>
       <use xlink:href="#DejaVuSans-30" x="190.869141"/>
      </g>
     </g>
    </g>
    <g id="xtick_9">
     <g id="line2d_9">
      <g>
       <use xlink:href="#m60104168bf" x="633.092188" y="266.112" style="fill: #808080; stroke: #808080; stroke-width: 0.8"/>
      </g>
     </g>
     <g id="text_9">
      <!-- 4000 -->
      <g style="fill: #808080" transform="translate(620.367188 280.710438) scale(0.1 -0.1)">
       <defs>
        <path id="DejaVuSans-34" d="M 2419 4116 
L 825 1625 
L 2419 1625 
L 2419 4116 
z
M 2253 4666 
L 3047 4666 
L 3047 1625 
L 3713 1625 
L 3713 1100 
L 3047 1100 
L 3047 0 
L 2419 0 
L 2419 1100 
L 313 1100 
L 313 1709 
L 2253 4666 
z
" transform="scale(0.015625)"/>
       </defs>
       <use xlink:href="#DejaVuSans-34"/>
       <use xlink:href="#DejaVuSans-30" x="63.623047"/>
       <use xlink:href="#DejaVuSans-30" x="127.246094"/>
       <use xlink:href="#DejaVuSans-30" x="190.869141"/>
      </g>
     </g>
    </g>
   </g>
   <g id="matplotlib.axis_2">
    <g id="ytick_1">
     <g id="line2d_10">
      <defs>
       <path id="m2b424208a4" d="M 0 0 
L -3.5 0 
" style="stroke: #808080; stroke-width: 0.8"/>
      </defs>
      <g>
       <use xlink:href="#m2b424208a4" x="47.192188" y="237.247585" style="fill: #808080; stroke: #808080; stroke-width: 0.8"/>
      </g>
     </g>
     <g id="text_10">
      <!-- −20000 -->
      <g style="fill: #808080" transform="translate(0 241.046804) scale(0.1 -0.1)">
       <defs>
        <path id="DejaVuSans-2212" d="M 678 2272 
L 4684 2272 
L 4684 1741 
L 678 1741 
L 678 2272 
z
" transform="scale(0.015625)"/>
       </defs>
       <use xlink:href="#DejaVuSans-2212"/>
       <use xlink:href="#DejaVuSans-32" x="83.789062"/>
       <use xlink:href="#DejaVuSans-30" x="147.412109"/>
       <use xlink:href="#DejaVuSans-30" x="211.035156"/>
       <use xlink:href="#DejaVuSans-30" x="274.658203"/>
       <use xlink:href="#DejaVuSans-30" x="338.28125"/>
      </g>
     </g>
    </g>
    <g id="ytick_2">
     <g id="line2d_11">
      <g>
       <use xlink:href="#m2b424208a4" x="47.192188" y="192.476047" style="fill: #808080; stroke: #808080; stroke-width: 0.8"/>
      </g>
     </g>
     <g id="text_11">
      <!-- −10000 -->
      <g style="fill: #808080" transform="translate(0 196.275266) scale(0.1 -0.1)">
       <use xlink:href="#DejaVuSans-2212"/>
       <use xlink:href="#DejaVuSans-31" x="83.789062"/>
       <use xlink:href="#DejaVuSans-30" x="147.412109"/>
       <use xlink:href="#DejaVuSans-30" x="211.035156"/>
       <use xlink:href="#DejaVuSans-30" x="274.658203"/>
       <use xlink:href="#DejaVuSans-30" x="338.28125"/>
      </g>
     </g>
    </g>
    <g id="ytick_3">
     <g id="line2d_12">
      <g>
       <use xlink:href="#m2b424208a4" x="47.192188" y="147.704508" style="fill: #808080; stroke: #808080; stroke-width: 0.8"/>
      </g>
     </g>
     <g id="text_12">
      <!-- 0 -->
      <g style="fill: #808080" transform="translate(33.829688 151.503727) scale(0.1 -0.1)">
       <use xlink:href="#DejaVuSans-30"/>
      </g>
     </g>
    </g>
    <g id="ytick_4">
     <g id="line2d_13">
      <g>
       <use xlink:href="#m2b424208a4" x="47.192188" y="102.932969" style="fill: #808080; stroke: #808080; stroke-width: 0.8"/>
      </g>
     </g>
     <g id="text_13">
      <!-- 10000 -->
      <g style="fill: #808080" transform="translate(8.379688 106.732188) scale(0.1 -0.1)">
       <use xlink:href="#DejaVuSans-31"/>
       <use xlink:href="#DejaVuSans-30" x="63.623047"/>
       <use xlink:href="#DejaVuSans-30" x="127.246094"/>
       <use xlink:href="#DejaVuSans-30" x="190.869141"/>
       <use xlink:href="#DejaVuSans-30" x="254.492188"/>
      </g>
     </g>
    </g>
    <g id="ytick_5">
     <g id="line2d_14">
      <g>
       <use xlink:href="#m2b424208a4" x="47.192188" y="58.161431" style="fill: #808080; stroke: #808080; stroke-width: 0.8"/>
      </g>
     </g>
     <g id="text_14">
      <!-- 20000 -->
      <g style="fill: #808080" transform="translate(8.379688 61.960649) scale(0.1 -0.1)">
       <use xlink:href="#DejaVuSans-32"/>
       <use xlink:href="#DejaVuSans-30" x="63.623047"/>
       <use xlink:href="#DejaVuSans-30" x="127.246094"/>
       <use xlink:href="#DejaVuSans-30" x="190.869141"/>
       <use xlink:href="#DejaVuSans-30" x="254.492188"/>
      </g>
     </g>
    </g>
    <g id="ytick_6">
     <g id="line2d_15">
      <g>
       <use xlink:href="#m2b424208a4" x="47.192188" y="13.389892" style="fill: #808080; stroke: #808080; stroke-width: 0.8"/>
      </g>
     </g>
     <g id="text_15">
      <!-- 30000 -->
      <g style="fill: #808080" transform="translate(8.379688 17.189111) scale(0.1 -0.1)">
       <use xlink:href="#DejaVuSans-33"/>
       <use xlink:href="#DejaVuSans-30" x="63.623047"/>
       <use xlink:href="#DejaVuSans-30" x="127.246094"/>
       <use xlink:href="#DejaVuSans-30" x="190.869141"/>
       <use xlink:href="#DejaVuSans-30" x="254.492188"/>
      </g>
     </g>
    </g>
   </g>
   <g id="line2d_16">
    <path d="M 75.092188 147.922538 
L 75.374148 147.494 
L 75.656109 147.908288 
L 75.938069 147.506757 
L 76.22003 147.896848 
L 76.50199 147.517027 
L 76.783951 147.887626 
L 77.065912 147.525304 
L 77.347872 147.880207 
L 77.629833 147.531938 
L 77.911793 147.874298 
L 78.193754 147.537173 
L 78.475715 147.869693 
L 78.757675 147.541184 
L 79.039636 147.866248 
L 79.321596 147.544087 
L 79.603557 147.86387 
L 79.885517 147.545952 
L 80.167478 147.86251 
L 80.449439 147.546809 
L 80.731399 147.862157 
L 81.01336 147.54665 
L 81.29532 147.86284 
L 81.577281 147.545425 
L 81.859242 147.864631 
L 82.141202 147.543037 
L 82.423163 147.867655 
L 82.705123 147.539329 
L 82.987084 147.872108 
L 83.269044 147.534061 
L 83.551005 147.878279 
L 83.832966 147.526877 
L 84.114926 147.886606 
L 84.396887 147.517245 
L 84.678847 147.897745 
L 84.960808 147.504346 
L 85.242769 147.912726 
L 85.524729 147.486873 
L 85.80669 147.933227 
L 86.08865 147.462633 
L 86.370611 147.962168 
L 86.652572 147.427656 
L 86.934532 148.005085 
L 87.216493 147.373987 
L 87.498453 148.073841 
L 87.780414 147.283102 
L 88.062374 148.199095 
L 88.344335 147.100188 
L 88.626296 148.489956 
L 88.908256 146.570155 
L 89.190217 149.723456 
L 89.754138 102.6996 
L 90.036099 96.532304 
L 90.318059 94.776645 
L 91.445901 125.482963 
L 91.727862 128.79376 
L 92.573744 133.212645 
L 92.855704 134.86283 
L 93.137665 135.773857 
L 93.419626 138.06508 
L 93.701586 141.855662 
L 94.265507 151.947024 
L 94.547468 155.46111 
L 94.829429 156.906218 
L 95.111389 156.728721 
L 95.67531 153.213156 
L 95.957271 151.932229 
L 96.521192 150.73075 
L 97.367074 151.736006 
L 97.649034 151.304444 
L 97.930995 151.430303 
L 98.212956 151.714953 
L 98.494916 151.636933 
L 98.776877 151.094629 
L 99.058837 151.420869 
L 99.622758 152.865967 
L 99.904719 152.907256 
L 100.18668 153.957167 
L 100.46864 155.704711 
L 100.750601 156.615804 
L 101.314522 155.569054 
L 101.596483 156.161742 
L 102.160404 158.230482 
L 103.006286 160.227397 
L 103.570207 162.703627 
L 104.134128 164.08865 
L 105.26197 170.271098 
L 105.543931 168.003265 
L 105.825891 159.743958 
L 106.953734 101.788676 
L 107.235694 98.78253 
L 107.517655 102.870038 
L 108.081576 117.068471 
L 108.645497 123.118744 
L 109.209418 126.399901 
L 109.491379 127.602185 
L 110.0553 134.297817 
L 110.901182 144.142946 
L 111.465103 154.463113 
L 111.747064 156.904732 
L 112.029024 157.419476 
L 112.310985 156.515191 
L 112.874906 153.769421 
L 113.438827 152.013625 
L 114.002748 148.917402 
L 114.84863 141.977906 
L 115.130591 141.364448 
L 115.412551 141.244205 
L 115.694512 141.574374 
L 115.976472 143.739885 
L 116.540394 150.862725 
L 116.822354 151.409645 
L 117.104315 150.61783 
L 117.386275 150.985784 
L 117.668236 152.483533 
L 117.950197 152.573224 
L 118.514118 148.894499 
L 118.796078 149.957275 
L 119.078039 151.824802 
L 119.36 152.25627 
L 119.64196 152.475826 
L 120.205881 156.198529 
L 120.769802 156.953844 
L 121.897645 163.314082 
L 122.461566 169.602073 
L 122.743527 167.714305 
L 123.025487 158.889244 
L 124.153329 101.611522 
L 124.43529 97.080546 
L 124.717251 100.151009 
L 125.563132 124.078752 
L 125.845093 127.262369 
L 126.127054 127.321656 
L 126.409014 126.203077 
L 126.690975 126.638312 
L 126.972935 128.741869 
L 127.254896 129.958672 
L 127.536857 129.988745 
L 127.818817 132.175775 
L 128.664699 147.690249 
L 128.946659 147.907921 
L 130.074502 144.567105 
L 130.356462 144.372606 
L 130.638423 144.569172 
L 130.920384 145.188543 
L 131.766265 147.908455 
L 132.048226 148.263221 
L 132.330186 148.877526 
L 132.894108 150.926552 
L 133.176068 151.050942 
L 133.458029 150.997584 
L 134.02195 152.762119 
L 134.303911 152.857884 
L 134.585871 152.464369 
L 134.867832 153.143698 
L 135.431753 155.934728 
L 135.713714 156.184279 
L 135.995674 156.816836 
L 137.687438 165.425636 
L 137.969398 166.341669 
L 139.097241 172.140784 
L 139.379201 170.961995 
L 139.661162 164.54304 
L 140.225083 135.393879 
L 140.789004 107.780576 
L 141.070965 101.545364 
L 141.352925 102.059711 
L 141.916846 117.461374 
L 142.198807 124.323109 
L 142.480768 127.700015 
L 143.326649 133.478048 
L 143.60861 134.29151 
L 143.890571 135.733919 
L 144.172531 137.963084 
L 144.736452 140.112169 
L 145.018413 143.045634 
L 145.582334 151.919078 
L 145.864295 152.080836 
L 146.428216 148.763556 
L 146.710176 149.218677 
L 146.992137 150.496603 
L 147.274098 150.802904 
L 147.838019 149.341366 
L 148.119979 149.704319 
L 148.40194 149.66066 
L 148.6839 148.75663 
L 148.965861 148.24328 
L 149.247822 148.636863 
L 149.811743 150.184292 
L 150.093703 151.079892 
L 150.657625 151.910192 
L 151.221546 154.289218 
L 151.503506 154.27132 
L 151.785467 154.002956 
L 152.067428 155.332888 
L 152.631349 160.387359 
L 152.913309 162.035602 
L 153.19527 162.913447 
L 153.759191 163.230431 
L 154.041152 164.259827 
L 154.605073 167.830147 
L 155.450955 176.525693 
L 155.732915 177.24253 
L 156.014876 177.087881 
L 156.296836 173.60155 
L 156.578797 162.69543 
L 157.424679 110.075927 
L 157.706639 99.880832 
L 157.9886 97.107689 
L 158.27056 102.355537 
L 158.834482 120.213056 
L 159.116442 125.273426 
L 159.398403 128.165436 
L 159.680363 129.827761 
L 160.244285 131.614628 
L 161.372127 137.723888 
L 162.218009 152.694568 
L 162.499969 153.798997 
L 163.345851 150.299204 
L 164.191733 144.810536 
L 164.755654 143.912939 
L 165.037614 144.927082 
L 165.601536 151.649525 
L 165.883496 152.749486 
L 166.165457 152.303805 
L 166.447417 152.572969 
L 166.729378 153.620268 
L 167.011339 154.107236 
L 167.293299 154.13705 
L 167.57526 154.999987 
L 168.421142 160.206374 
L 168.985063 161.792586 
L 169.830944 165.758166 
L 170.112905 166.176104 
L 170.394866 166.17686 
L 170.676826 166.382198 
L 170.958787 167.248444 
L 171.804669 171.658683 
L 172.36859 173.303282 
L 172.65055 172.183926 
L 172.932511 165.453397 
L 173.496432 133.662543 
L 174.060353 101.828965 
L 174.342314 94.465179 
L 174.624274 95.84004 
L 175.752117 126.539396 
L 177.16192 139.878631 
L 177.44388 140.201007 
L 177.725841 139.058589 
L 178.007801 139.479313 
L 178.289762 143.614771 
L 178.571723 149.412857 
L 178.853683 152.641686 
L 179.417604 152.833202 
L 179.699565 154.305748 
L 179.981526 154.833613 
L 180.545447 152.724999 
L 180.827407 152.152223 
L 181.109368 151.170048 
L 181.391328 151.141925 
L 182.23721 157.833875 
L 182.519171 158.235753 
L 182.801131 159.631731 
L 183.083092 161.766075 
L 183.365053 163.041355 
L 183.647013 162.380197 
L 184.210934 158.283454 
L 184.492895 158.435264 
L 184.774856 159.732573 
L 185.056816 160.291996 
L 185.338777 160.24655 
L 185.620737 160.927602 
L 186.184658 163.104146 
L 186.466619 163.983527 
L 187.594461 170.537922 
L 188.158383 175.745181 
L 188.440343 172.756833 
L 188.722304 162.281717 
L 190.132107 84.898629 
L 190.414067 88.845025 
L 190.977988 111.131208 
L 191.82387 127.456204 
L 192.387791 136.281155 
L 192.951713 139.530905 
L 193.233673 141.355879 
L 193.515634 144.936817 
L 194.079555 154.688262 
L 194.361515 156.877116 
L 194.643476 156.682205 
L 195.207397 154.235522 
L 196.053279 152.002901 
L 196.33524 150.575492 
L 196.6172 150.1462 
L 197.181121 152.353685 
L 197.745042 153.270832 
L 198.027003 154.682324 
L 198.872885 159.99781 
L 199.436806 161.071608 
L 200.282688 164.089552 
L 200.564648 164.084819 
L 200.846609 164.863833 
L 201.41053 167.212312 
L 201.692491 168.271704 
L 202.538372 174.123296 
L 203.384254 178.205268 
L 203.666215 173.937735 
L 203.948175 162.917244 
L 204.512097 123.450615 
L 205.076018 88.78115 
L 205.357978 84.236716 
L 205.639939 88.102191 
L 206.767781 122.616718 
L 207.049742 124.768821 
L 207.895624 128.738046 
L 208.741505 138.764878 
L 209.023466 144.117641 
L 209.587387 158.05818 
L 209.869348 159.887951 
L 210.99719 154.053079 
L 212.125032 150.85522 
L 212.406993 151.494241 
L 212.970914 154.480928 
L 213.252875 155.199764 
L 213.534835 156.547711 
L 215.226599 169.64978 
L 215.508559 169.43657 
L 215.79052 170.337769 
L 216.072481 172.244265 
L 216.354441 171.793072 
L 216.918362 165.994721 
L 217.200323 167.43778 
L 217.482284 170.389186 
L 218.046205 173.627008 
L 218.610126 181.242248 
L 218.892086 181.302731 
L 219.174047 172.97401 
L 219.737968 132.830033 
L 220.301889 91.753648 
L 220.58385 80.798375 
L 220.865811 78.636816 
L 221.147771 84.529123 
L 221.993653 115.129472 
L 222.275613 120.603762 
L 222.557574 123.123858 
L 223.121495 125.660373 
L 223.685416 130.12439 
L 223.967377 134.746741 
L 224.813259 158.145215 
L 225.095219 161.81302 
L 225.37718 162.448531 
L 225.659141 161.044481 
L 226.223062 156.863892 
L 226.505022 156.491463 
L 226.786983 156.995587 
L 227.068943 156.952925 
L 227.632865 154.560623 
L 227.914825 154.417059 
L 228.478746 157.092512 
L 229.042668 159.254126 
L 229.606589 161.15013 
L 230.17051 164.847383 
L 230.734431 167.785306 
L 231.862273 171.395425 
L 232.426195 174.285955 
L 232.708155 174.720892 
L 232.990116 174.650445 
L 233.272076 175.744987 
L 234.117958 183.089239 
L 234.399919 182.778835 
L 234.681879 178.343719 
L 234.96384 167.189864 
L 235.527761 123.902553 
L 236.091682 81.072824 
L 236.373643 72.298216 
L 236.655603 72.30066 
L 236.937564 78.277584 
L 238.065406 119.084377 
L 238.347367 123.210373 
L 239.475209 132.613972 
L 239.75717 136.616165 
L 240.321091 156.253256 
L 240.603052 165.725019 
L 240.885012 168.927064 
L 241.166973 166.160997 
L 241.730894 158.48676 
L 242.294815 156.589064 
L 242.858736 153.250019 
L 243.140697 152.551296 
L 243.422657 152.446208 
L 243.704618 152.781021 
L 244.5505 155.955875 
L 244.83246 156.737485 
L 245.678342 163.569938 
L 246.242263 165.103534 
L 247.088145 168.108308 
L 247.652066 172.911534 
L 248.497948 176.495846 
L 249.62579 184.869303 
L 249.907751 186.45593 
L 250.189712 186.369494 
L 250.471672 182.768531 
L 250.753633 173.084494 
L 251.035593 155.18385 
L 251.881475 81.56737 
L 252.163436 68.53681 
L 252.445396 64.592005 
L 252.727357 68.09632 
L 253.291278 89.609189 
L 253.855199 113.577105 
L 254.13716 121.056227 
L 254.41912 125.493966 
L 254.701081 127.565332 
L 254.983041 128.480433 
L 255.265002 131.002366 
L 255.546963 137.701503 
L 256.110884 157.025279 
L 256.392844 162.56334 
L 256.674805 164.049541 
L 256.956766 162.618617 
L 257.802647 154.140547 
L 258.366569 155.299158 
L 258.648529 154.148268 
L 258.93049 152.522674 
L 259.21245 153.036788 
L 259.776371 157.672021 
L 260.622253 160.984087 
L 261.186174 161.955259 
L 261.468135 163.611619 
L 262.032056 168.154513 
L 263.159898 173.592366 
L 263.441859 175.239944 
L 263.72382 175.493108 
L 264.00578 174.581116 
L 264.287741 174.282894 
L 264.569701 175.910252 
L 265.415583 183.845811 
L 266.261465 191.482582 
L 266.543425 187.105614 
L 266.825386 174.312695 
L 267.389307 127.292317 
L 267.953228 77.910467 
L 268.235189 63.942985 
L 268.51715 58.392915 
L 268.79911 59.094934 
L 269.081071 64.58126 
L 269.644992 88.005219 
L 270.208913 112.485424 
L 270.772834 125.438623 
L 271.900677 147.979699 
L 272.464598 164.92888 
L 272.746558 166.916323 
L 273.028519 164.834714 
L 273.59244 159.795173 
L 274.720282 154.001977 
L 275.284204 154.713104 
L 275.566164 154.46059 
L 275.848125 154.858412 
L 276.412046 158.424809 
L 276.694007 158.971265 
L 276.975967 160.043466 
L 277.539888 165.161262 
L 277.821849 164.6131 
L 278.10381 162.581746 
L 278.38577 162.266102 
L 278.949691 166.047488 
L 279.513612 167.086866 
L 279.795573 169.267708 
L 280.359494 175.279216 
L 281.205376 181.031688 
L 281.769297 186.66516 
L 282.051258 187.655581 
L 282.333218 187.58629 
L 282.615179 188.501981 
L 282.897139 188.700376 
L 283.1791 181.732662 
L 283.461061 163.820216 
L 284.588903 69.345282 
L 284.870864 57.599964 
L 285.152824 53.349695 
L 285.434785 54.400974 
L 285.716745 59.832005 
L 286.280667 82.75985 
L 287.126548 119.076666 
L 287.690469 132.105221 
L 288.254391 140.078019 
L 288.536351 148.213558 
L 289.100272 169.637913 
L 289.382233 173.054204 
L 289.664194 170.81328 
L 290.228115 164.449195 
L 290.792036 159.967311 
L 291.355957 158.561521 
L 291.637918 157.039817 
L 291.919878 156.146963 
L 292.201839 156.953157 
L 292.76576 159.361298 
L 294.457524 162.722374 
L 294.739484 162.623837 
L 295.021445 162.93741 
L 295.585366 165.135255 
L 295.867326 165.322282 
L 296.149287 165.794016 
L 296.431248 167.729616 
L 297.277129 175.036319 
L 297.841051 179.039845 
L 298.404972 181.653287 
L 299.532814 190.459566 
L 299.814775 186.738646 
L 300.096735 175.128615 
L 300.660656 126.758042 
L 301.224578 76.894977 
L 301.506538 62.03289 
L 301.788499 55.037959 
L 302.070459 55.493287 
L 302.35242 61.570413 
L 302.916341 83.631488 
L 303.762223 125.897429 
L 304.044183 132.314747 
L 304.326144 135.570516 
L 304.608105 137.479304 
L 304.890065 140.565719 
L 305.172026 147.742958 
L 305.735947 165.665317 
L 306.017908 167.801815 
L 306.299868 166.47615 
L 306.863789 161.302094 
L 307.14575 158.221029 
L 307.42771 156.472777 
L 307.709671 156.041727 
L 307.991632 155.92768 
L 308.555553 156.325068 
L 308.837513 155.892359 
L 309.119474 155.210432 
L 309.401435 155.830843 
L 309.965356 159.115245 
L 310.529277 161.141678 
L 310.811238 162.224462 
L 311.093198 162.774968 
L 311.375159 163.611281 
L 311.93908 166.973953 
L 312.503001 167.275869 
L 312.784962 169.943616 
L 313.348883 176.963319 
L 313.630843 177.551434 
L 313.912804 178.772023 
L 314.476725 184.551974 
L 315.040646 186.652537 
L 315.604567 190.892461 
L 315.886528 191.061487 
L 316.168489 187.525093 
L 316.450449 176.425674 
L 317.01437 125.168372 
L 317.578292 71.120743 
L 317.860252 53.990566 
L 318.142213 44.872545 
L 318.424173 44.383327 
L 318.706134 51.32559 
L 319.270055 79.724449 
L 319.833976 112.269262 
L 320.397897 129.592543 
L 321.243779 140.221092 
L 322.089661 165.708967 
L 322.371622 166.290812 
L 322.653582 164.248836 
L 323.499464 154.759596 
L 323.781424 153.904531 
L 324.063385 154.535434 
L 324.909267 157.435284 
L 325.191227 159.211974 
L 325.755149 164.627092 
L 326.037109 165.642543 
L 326.31907 166.072289 
L 326.882991 168.097677 
L 327.446912 165.452356 
L 327.728873 166.107716 
L 329.138676 177.333963 
L 329.702597 178.289942 
L 329.984557 180.204896 
L 330.548479 184.842049 
L 330.830439 186.286079 
L 331.1124 188.778057 
L 331.676321 195.568311 
L 331.958281 196.033614 
L 332.240242 192.373081 
L 332.522203 181.840197 
L 333.086124 133.622329 
L 333.650045 79.01947 
L 334.213966 45.557521 
L 334.495927 39.579506 
L 334.777887 41.579581 
L 335.341809 59.205897 
L 336.18769 100.127975 
L 336.751611 125.54792 
L 338.443375 170.884301 
L 338.725336 172.181952 
L 339.007296 171.044654 
L 339.289257 167.433397 
L 339.853178 157.942332 
L 340.135138 155.790643 
L 340.417099 155.427385 
L 340.69906 155.840393 
L 340.98102 156.522689 
L 341.262981 157.531917 
L 342.672784 164.506431 
L 342.954744 165.714905 
L 343.236705 166.315108 
L 343.518666 167.288469 
L 343.800626 169.003459 
L 344.082587 169.952856 
L 344.364547 169.739898 
L 344.646508 170.4897 
L 345.210429 175.417699 
L 345.49239 176.17737 
L 345.77435 177.334166 
L 346.338271 182.116097 
L 346.620232 183.345194 
L 346.902193 185.525458 
L 347.748074 195.505706 
L 348.030035 197.892184 
L 348.311995 198.542381 
L 348.593956 192.892242 
L 348.875917 177.427582 
L 349.439838 123.154873 
L 350.003759 67.662391 
L 350.28572 47.951595 
L 350.56768 36.625481 
L 350.849641 34.89952 
L 351.131601 40.677908 
L 351.695523 61.223299 
L 353.387286 138.470386 
L 354.515128 170.699852 
L 354.797089 173.73733 
L 355.07905 173.670966 
L 355.36101 171.440425 
L 355.924931 164.165219 
L 356.488852 160.380044 
L 356.770813 158.750395 
L 357.052774 157.807983 
L 357.616695 157.195558 
L 357.898655 157.404955 
L 359.026498 163.36004 
L 359.590419 169.811237 
L 360.15434 173.295418 
L 361.000222 176.688084 
L 361.564143 181.440417 
L 361.846104 182.683982 
L 362.128064 184.740618 
L 363.819828 202.323251 
L 364.101788 201.152499 
L 364.383749 194.427915 
L 364.665709 178.607276 
L 365.229631 122.14129 
L 365.793552 64.957481 
L 366.075512 45.777896 
L 366.357473 36.461706 
L 366.639434 36.788254 
L 366.921394 43.387079 
L 367.485315 64.888566 
L 368.895118 132.784638 
L 369.741 159.596916 
L 370.304921 171.282839 
L 370.586882 172.452936 
L 370.868842 170.827539 
L 371.714724 160.899875 
L 372.278645 157.938647 
L 372.560606 156.998322 
L 372.842566 157.052227 
L 373.124527 158.245943 
L 374.53433 167.772083 
L 375.098251 171.737235 
L 376.226094 180.162545 
L 376.790015 183.099868 
L 377.353936 186.399493 
L 377.917857 191.251277 
L 378.481778 200.427921 
L 379.045699 209.05469 
L 379.32766 209.056883 
L 379.609621 201.831172 
L 379.891581 184.345729 
L 380.737463 97.082397 
L 381.301384 42.241232 
L 381.583345 29.366682 
L 381.865305 30.090593 
L 383.275108 70.442951 
L 384.12099 103.916227 
L 384.684911 134.496886 
L 385.248832 169.057834 
L 385.530793 177.124943 
L 385.812753 177.938196 
L 386.376675 172.595908 
L 387.222556 163.614611 
L 387.786478 159.518437 
L 388.068438 157.085277 
L 388.350399 156.396185 
L 388.632359 158.451387 
L 389.19628 165.865353 
L 390.042162 172.716281 
L 390.606083 178.855774 
L 391.170005 182.794919 
L 392.015886 191.726481 
L 392.579808 196.550612 
L 393.425689 206.870608 
L 393.98961 214.355707 
L 394.553532 218.663671 
L 394.835492 215.77981 
L 395.117453 202.061186 
L 395.681374 145.292959 
L 396.527256 54.487178 
L 396.809216 39.619702 
L 397.091177 36.778267 
L 398.219019 46.424917 
L 398.78294 54.918428 
L 399.346862 69.006073 
L 399.910783 89.148696 
L 400.474704 126.546363 
L 401.038625 167.505766 
L 401.320586 176.720956 
L 401.602546 177.710608 
L 402.730389 163.69161 
L 403.012349 162.061329 
L 403.29431 161.582643 
L 403.57627 162.42286 
L 404.140192 165.0162 
L 404.422152 167.312404 
L 404.986073 173.535506 
L 405.549994 178.382835 
L 406.113916 185.4565 
L 407.805679 198.933692 
L 408.08764 203.467559 
L 408.933522 211.644473 
L 409.497443 219.117271 
L 409.779403 221.383847 
L 410.061364 222.666223 
L 410.343324 217.139875 
L 410.625285 199.051881 
L 411.471167 102.64347 
L 412.035088 44.34387 
L 412.317049 34.436489 
L 412.599009 34.548102 
L 412.88097 35.168532 
L 413.16293 33.866359 
L 413.444891 34.535436 
L 414.008812 43.344436 
L 414.572733 55.022469 
L 415.136654 72.201126 
L 415.418615 84.112428 
L 415.982536 125.718071 
L 416.546457 168.977719 
L 416.828418 178.916349 
L 417.110379 180.913489 
L 417.392339 179.123394 
L 417.95626 173.165333 
L 418.238221 169.853235 
L 418.520181 169.239092 
L 419.084103 174.876794 
L 419.366063 175.423492 
L 419.648024 175.002044 
L 419.929984 175.713297 
L 420.775866 180.872356 
L 421.621748 189.573079 
L 423.031551 198.310411 
L 423.313511 199.630089 
L 424.159393 205.989613 
L 424.441354 209.958557 
L 425.005275 220.514223 
L 425.287236 223.849913 
L 425.569196 224.271178 
L 425.851157 216.630572 
L 426.133117 197.017828 
L 426.697038 133.806919 
L 427.26096 61.824014 
L 427.54292 38.731161 
L 427.824881 30.291496 
L 428.106841 29.420839 
L 428.388802 29.666725 
L 428.670763 31.26858 
L 429.234684 40.857229 
L 429.798605 55.097327 
L 430.644487 82.354224 
L 430.926447 97.304619 
L 432.05429 175.54533 
L 432.33625 180.211562 
L 432.618211 179.062626 
L 433.464093 166.857772 
L 433.746053 167.914367 
L 434.028014 170.107946 
L 435.437817 176.489678 
L 436.283698 185.302782 
L 436.84762 191.430518 
L 437.411541 197.647501 
L 438.257422 202.169874 
L 439.103304 209.639316 
L 440.513107 229.026317 
L 440.795068 227.131958 
L 441.077028 214.3688 
L 441.64095 157.4962 
L 442.486831 53.732551 
L 442.768792 42.95824 
L 443.050752 41.748278 
L 443.332713 41.746119 
L 443.614674 41.480878 
L 443.896634 42.039788 
L 444.178595 41.407837 
L 444.742516 36.137618 
L 445.024477 37.798561 
L 445.588398 47.804295 
L 445.870358 58.050093 
L 446.434279 96.610982 
L 447.280161 156.438816 
L 447.562122 165.770723 
L 447.844082 169.253665 
L 448.126043 169.802571 
L 448.689964 168.365882 
L 448.971925 169.627339 
L 449.817806 179.267962 
L 450.945649 190.820936 
L 451.227609 192.297489 
L 452.073491 201.055415 
L 452.355452 200.890469 
L 452.637412 200.540546 
L 452.919373 202.412581 
L 453.765255 212.466417 
L 454.329176 219.484659 
L 455.738979 242.533753 
L 456.020939 237.686026 
L 456.3029 220.595251 
L 456.866821 155.678706 
L 457.430742 82.282741 
L 457.712703 61.93495 
L 457.994663 55.2663 
L 458.276624 51.561981 
L 459.404466 18.40027 
L 459.686427 16.990153 
L 459.968388 19.911981 
L 460.814269 35.345701 
L 461.09623 45.956795 
L 461.660151 82.706387 
L 462.506033 152.074815 
L 462.787993 166.551364 
L 463.069954 173.643344 
L 463.351915 174.585515 
L 463.633875 172.39609 
L 463.915836 171.208145 
L 464.197796 172.687573 
L 465.325639 182.630664 
L 465.88956 188.659439 
L 466.453481 191.544648 
L 467.017402 196.661944 
L 468.145245 207.875653 
L 468.709166 210.369322 
L 468.991126 211.767257 
L 469.273087 214.144782 
L 470.118969 226.421224 
L 470.400929 230.790562 
L 470.96485 245.291091 
L 471.246811 244.560322 
L 471.528772 230.894779 
L 472.092693 174.403816 
L 472.938575 67.451115 
L 473.502496 43.835533 
L 474.066417 22.459819 
L 474.348377 16.517366 
L 474.630338 13.392818 
L 474.912299 13.300597 
L 475.47622 21.408965 
L 475.75818 25.87495 
L 476.040141 32.601278 
L 476.322102 44.050803 
L 476.886023 80.152628 
L 478.013865 164.917382 
L 478.295826 175.517361 
L 478.577786 179.00001 
L 478.859747 177.423794 
L 479.141707 175.158306 
L 479.423668 174.636765 
L 479.705629 175.631709 
L 481.115432 184.056557 
L 481.397392 184.760147 
L 481.679353 184.971755 
L 481.961313 186.199121 
L 482.807195 196.374028 
L 483.089156 198.238411 
L 484.498959 211.955142 
L 485.626801 226.33104 
L 486.472683 239.52323 
L 486.754643 237.553026 
L 487.036604 226.154428 
L 487.318564 203.976605 
L 488.446407 65.449383 
L 489.292289 28.720567 
L 489.574249 19.578845 
L 489.85621 15.733601 
L 490.13817 15.299766 
L 490.420131 16.723072 
L 490.702091 20.102862 
L 490.984052 26.263277 
L 491.547973 47.231927 
L 492.111894 80.849303 
L 492.957776 146.679994 
L 493.521697 172.740362 
L 493.803658 177.064004 
L 494.085619 176.554032 
L 494.367579 175.419303 
L 494.64954 175.046003 
L 494.9315 174.900998 
L 495.213461 176.629282 
L 495.777382 185.954559 
L 496.059343 187.304945 
L 496.341303 187.43839 
L 496.905224 190.449575 
L 497.187185 190.439442 
L 497.469146 190.184907 
L 497.751106 191.163651 
L 498.033067 193.193601 
L 499.44287 208.596346 
L 501.416594 243.353665 
L 501.698554 243.8122 
L 501.980515 235.626864 
L 502.262476 214.670554 
L 503.672278 52.893563 
L 504.2362 26.968657 
L 504.51816 19.066204 
L 504.800121 14.63079 
L 505.082081 12.096 
L 505.364042 12.194406 
L 505.646003 16.501101 
L 506.491884 40.126874 
L 507.055805 67.478185 
L 508.747569 175.509218 
L 509.02953 180.24448 
L 509.31149 181.011677 
L 509.875411 177.240649 
L 510.157372 177.434731 
L 510.721293 181.622254 
L 511.285214 187.032438 
L 511.849135 192.437019 
L 512.413057 195.662339 
L 513.540899 205.75181 
L 514.386781 215.682053 
L 514.668741 218.870089 
L 515.232662 229.090559 
L 516.360505 249.16909 
L 516.642465 244.848769 
L 516.924426 229.796792 
L 517.206387 203.004674 
L 518.334229 62.851825 
L 519.180111 26.822157 
L 519.462071 20.293079 
L 520.025992 14.100223 
L 520.307953 13.509188 
L 520.589914 16.837566 
L 521.435795 38.853373 
L 521.717756 48.826573 
L 522.281677 87.107068 
L 523.127559 144.381409 
L 523.69148 171.209024 
L 523.973441 180.320554 
L 524.255401 185.026604 
L 524.537362 184.96632 
L 524.819322 183.382436 
L 525.101283 183.520626 
L 525.383244 184.637875 
L 525.665204 185.019212 
L 525.947165 185.940537 
L 526.511086 190.796383 
L 527.075007 193.472438 
L 528.48481 206.193778 
L 529.048731 214.153714 
L 529.612652 223.192888 
L 530.176574 231.22549 
L 531.022455 246.98079 
L 531.304416 248.067139 
L 531.586376 240.521172 
L 531.868337 219.590223 
L 533.27814 55.318079 
L 533.842061 30.211928 
L 534.124022 22.685082 
L 534.405982 18.404274 
L 534.687943 15.999293 
L 534.969904 15.883009 
L 535.251864 19.125985 
L 535.815785 34.05609 
L 536.661667 64.123405 
L 537.225588 96.19397 
L 538.07147 148.294738 
L 538.635391 169.546509 
L 539.199312 180.239958 
L 539.481273 182.521028 
L 539.763233 183.45717 
L 540.045194 183.131443 
L 540.327155 182.248527 
L 540.609115 182.746804 
L 541.454997 189.404184 
L 541.736958 190.466403 
L 542.300879 195.243292 
L 542.8648 200.673344 
L 543.428721 207.160776 
L 543.992642 211.883945 
L 544.556563 218.54018 
L 545.402445 232.082656 
L 546.248327 247.079258 
L 546.530288 244.060764 
L 546.812248 230.497997 
L 547.094209 203.560673 
L 547.94009 82.778521 
L 548.222051 60.650571 
L 548.785972 36.704008 
L 549.349893 22.023893 
L 549.631854 19.028679 
L 549.913815 18.070303 
L 550.195775 20.465255 
L 550.759696 33.737217 
L 551.323618 50.185021 
L 551.887539 76.497569 
L 553.015381 140.201508 
L 553.579302 162.039938 
L 554.143223 175.668861 
L 554.425184 178.290031 
L 555.271066 181.782543 
L 555.834987 183.399994 
L 556.116947 184.603536 
L 556.680869 188.348302 
L 557.52675 196.207288 
L 558.372632 206.003262 
L 559.218514 216.480984 
L 560.064396 227.083844 
L 560.910277 242.604315 
L 561.192238 244.263906 
L 561.474199 240.062314 
L 561.756159 224.901901 
L 562.03812 193.950823 
L 562.884002 76.95777 
L 563.447923 47.362438 
L 564.011844 25.672266 
L 564.293804 20.09419 
L 564.575765 21.133913 
L 565.703607 41.313552 
L 566.549489 73.172755 
L 567.959292 153.576494 
L 568.523213 167.211762 
L 568.805174 170.814998 
L 569.087134 171.789412 
L 569.651056 169.749824 
L 569.933016 169.83459 
L 570.496937 169.256636 
L 570.778898 171.50003 
L 571.62478 186.191055 
L 572.188701 192.090192 
L 574.726346 229.304151 
L 575.854189 248.467644 
L 576.136149 248.26505 
L 576.41811 238.772888 
L 576.70007 214.763098 
L 577.827913 71.281378 
L 578.391834 46.90343 
L 578.673794 37.332842 
L 578.955755 31.984653 
L 579.237716 29.834044 
L 579.519676 29.391181 
L 579.801637 31.694558 
L 580.365558 45.464112 
L 581.21144 71.295419 
L 582.057321 111.316638 
L 582.621243 136.170131 
L 583.185164 151.877906 
L 583.749085 162.085562 
L 584.031046 165.292377 
L 584.313006 166.626161 
L 585.158888 167.712334 
L 585.440848 167.873098 
L 585.722809 168.186363 
L 586.00477 169.088912 
L 586.568691 173.548587 
L 587.132612 178.195726 
L 587.414573 181.993624 
L 589.106336 215.444105 
L 589.670257 228.231505 
L 590.234178 238.348819 
L 590.7981 252.583718 
L 591.08006 254.016 
L 591.362021 248.036716 
L 591.643981 229.863011 
L 592.207903 150.076652 
L 592.771824 86.112766 
L 593.617705 49.241143 
L 593.899666 40.467981 
L 594.181627 35.444987 
L 594.463587 34.977638 
L 594.745548 38.543666 
L 595.309469 49.954686 
L 596.155351 73.983877 
L 596.719272 96.289691 
L 597.847114 146.147172 
L 598.129075 151.905091 
L 598.692996 157.721721 
L 598.974957 159.476806 
L 599.256917 159.279385 
L 599.538878 158.66348 
L 600.102799 159.657414 
L 600.38476 159.760587 
L 600.66672 160.467919 
L 600.948681 161.844795 
L 601.230641 162.257106 
L 601.512602 162.192781 
L 601.794562 163.805783 
L 602.358484 174.351165 
L 603.486326 195.551228 
L 603.768287 199.708782 
L 604.332208 204.934404 
L 604.896129 217.616178 
L 605.46005 230.254694 
L 606.023971 247.897243 
L 606.305932 251.973109 
L 606.587892 247.901278 
L 606.869853 231.268062 
L 607.433774 153.834399 
L 607.997695 89.786009 
L 608.843577 54.119619 
L 609.125538 47.369545 
L 609.407498 44.12812 
L 609.689459 42.402431 
L 609.971419 43.623998 
L 610.535341 55.228634 
L 611.099262 69.454915 
L 611.663183 89.918707 
L 612.791025 138.297147 
L 613.354946 153.097894 
L 613.636907 157.320343 
L 614.200828 161.303003 
L 614.482789 162.58017 
L 614.764749 163.003337 
L 615.04671 163.028902 
L 615.610631 162.704588 
L 615.892592 162.104951 
L 616.174552 162.250568 
L 616.456513 163.342233 
L 617.020434 166.337439 
L 617.302395 169.135104 
L 619.276119 199.775691 
L 620.403961 223.755254 
L 620.967882 239.0273 
L 621.249843 242.497113 
L 621.531803 237.294671 
L 621.813764 217.104657 
L 622.659646 111.517763 
L 623.223567 82.150909 
L 623.787488 61.040592 
L 624.069449 56.996018 
L 624.351409 55.390434 
L 624.63337 56.10416 
L 624.915331 59.238236 
L 625.761212 79.560194 
L 626.325133 96.754699 
L 627.734936 149.708193 
L 628.016897 155.019269 
L 628.580818 160.280694 
L 629.144739 159.571883 
L 629.4267 158.572325 
L 629.70866 158.99854 
L 629.990621 158.39553 
L 630.272582 158.792658 
L 630.554542 158.428816 
L 630.836503 160.032765 
L 631.118463 160.692564 
L 631.400424 163.234314 
L 631.682385 163.633884 
L 631.964345 166.49007 
L 632.246306 168.124502 
L 632.528266 175.102717 
L 632.810227 177.476284 
L 633.092188 186.274253 
L 633.092188 186.274253 
" clip-path="url(#pcfdab3a313)" style="fill: none; stroke: #1f77b4; stroke-width: 1.5; stroke-linecap: square"/>
   </g>
   <g id="patch_3">
    <path d="M 47.192188 266.112 
L 47.192188 0 
" style="fill: none; stroke: #808080; stroke-width: 0.8; stroke-linejoin: miter; stroke-linecap: square"/>
   </g>
   <g id="patch_4">
    <path d="M 660.992188 266.112 
L 660.992188 0 
" style="fill: none; stroke: #000000; stroke-width: 0.8; stroke-linejoin: miter; stroke-linecap: square"/>
   </g>
   <g id="patch_5">
    <path d="M 47.192188 266.112 
L 660.992188 266.112 
" style="fill: none; stroke: #808080; stroke-width: 0.8; stroke-linejoin: miter; stroke-linecap: square"/>
   </g>
   <g id="patch_6">
    <path d="M 47.192188 0 
L 660.992188 0 
" style="fill: none; stroke: #000000; stroke-width: 0.8; stroke-linejoin: miter; stroke-linecap: square"/>
   </g>
  </g>
 </g>
 <defs>
  <clipPath id="pcfdab3a313">
   <rect x="47.192188" y="0" width="613.8" height="266.112"/>
  </clipPath>
 </defs>
</svg>
