<?xml version="1.0" encoding="utf-8" standalone="no"?>
<!DOCTYPE svg PUBLIC "-//W3C//DTD SVG 1.1//EN"
  "http://www.w3.org/Graphics/SVG/1.1/DTD/svg11.dtd">
<svg xmlns:xlink="http://www.w3.org/1999/xlink" width="660.992188pt" height="282.790125pt" viewBox="0 0 660.992188 282.790125" xmlns="http://www.w3.org/2000/svg" version="1.1">
 <metadata>
  <rdf:RDF xmlns:dc="http://purl.org/dc/elements/1.1/" xmlns:cc="http://creativecommons.org/ns#" xmlns:rdf="http://www.w3.org/1999/02/22-rdf-syntax-ns#">
   <cc:Work>
    <dc:type rdf:resource="http://purl.org/dc/dcmitype/StillImage"/>
    <dc:date>2023-03-06T21:33:05.218394</dc:date>
    <dc:format>image/svg+xml</dc:format>
    <dc:creator>
     <cc:Agent>
      <dc:title>Matplotlib v3.6.3, https://matplotlib.org/</dc:title>
     </cc:Agent>
    </dc:creator>
   </cc:Work>
  </rdf:RDF>
 </metadata>
 <defs>
  <style type="text/css">*{stroke-linejoin: round; stroke-linecap: butt}</style>
 </defs>
 <g id="figure_1">
  <g id="patch_1">
   <path d="M -0 282.790125 
L 660.992188 282.790125 
L 660.992188 0 
L -0 0 
L -0 282.790125 
z
" style="fill: none"/>
  </g>
  <g id="axes_1">
   <g id="patch_2">
    <path d="M 47.192188 266.112 
L 660.992188 266.112 
L 660.992188 0 
L 47.192188 0 
L 47.192188 266.112 
z
" style="fill: none"/>
   </g>
   <g id="matplotlib.axis_1">
    <g id="xtick_1">
     <g id="line2d_1">
      <defs>
       <path id="m7cb2ec47c7" d="M 0 0 
L 0 3.5 
" style="stroke: #808080; stroke-width: 0.8"/>
      </defs>
      <g>
       <use xlink:href="#m7cb2ec47c7" x="75.092188" y="266.112" style="fill: #808080; stroke: #808080; stroke-width: 0.8"/>
      </g>
     </g>
     <g id="text_1">
      <!-- 0 -->
      <g style="fill: #808080" transform="translate(71.910938 280.710438) scale(0.1 -0.1)">
       <defs>
        <path id="DejaVuSans-30" d="M 2034 4250 
Q 1547 4250 1301 3770 
Q 1056 3291 1056 2328 
Q 1056 1369 1301 889 
Q 1547 409 2034 409 
Q 2525 409 2770 889 
Q 3016 1369 3016 2328 
Q 3016 3291 2770 3770 
Q 2525 4250 2034 4250 
z
M 2034 4750 
Q 2819 4750 3233 4129 
Q 3647 3509 3647 2328 
Q 3647 1150 3233 529 
Q 2819 -91 2034 -91 
Q 1250 -91 836 529 
Q 422 1150 422 2328 
Q 422 3509 836 4129 
Q 1250 4750 2034 4750 
z
" transform="scale(0.015625)"/>
       </defs>
       <use xlink:href="#DejaVuSans-30"/>
      </g>
     </g>
    </g>
    <g id="xtick_2">
     <g id="line2d_2">
      <g>
       <use xlink:href="#m7cb2ec47c7" x="144.842188" y="266.112" style="fill: #808080; stroke: #808080; stroke-width: 0.8"/>
      </g>
     </g>
     <g id="text_2">
      <!-- 500 -->
      <g style="fill: #808080" transform="translate(135.298438 280.710438) scale(0.1 -0.1)">
       <defs>
        <path id="DejaVuSans-35" d="M 691 4666 
L 3169 4666 
L 3169 4134 
L 1269 4134 
L 1269 2991 
Q 1406 3038 1543 3061 
Q 1681 3084 1819 3084 
Q 2600 3084 3056 2656 
Q 3513 2228 3513 1497 
Q 3513 744 3044 326 
Q 2575 -91 1722 -91 
Q 1428 -91 1123 -41 
Q 819 9 494 109 
L 494 744 
Q 775 591 1075 516 
Q 1375 441 1709 441 
Q 2250 441 2565 725 
Q 2881 1009 2881 1497 
Q 2881 1984 2565 2268 
Q 2250 2553 1709 2553 
Q 1456 2553 1204 2497 
Q 953 2441 691 2322 
L 691 4666 
z
" transform="scale(0.015625)"/>
       </defs>
       <use xlink:href="#DejaVuSans-35"/>
       <use xlink:href="#DejaVuSans-30" x="63.623047"/>
       <use xlink:href="#DejaVuSans-30" x="127.246094"/>
      </g>
     </g>
    </g>
    <g id="xtick_3">
     <g id="line2d_3">
      <g>
       <use xlink:href="#m7cb2ec47c7" x="214.592188" y="266.112" style="fill: #808080; stroke: #808080; stroke-width: 0.8"/>
      </g>
     </g>
     <g id="text_3">
      <!-- 1000 -->
      <g style="fill: #808080" transform="translate(201.867188 280.710438) scale(0.1 -0.1)">
       <defs>
        <path id="DejaVuSans-31" d="M 794 531 
L 1825 531 
L 1825 4091 
L 703 3866 
L 703 4441 
L 1819 4666 
L 2450 4666 
L 2450 531 
L 3481 531 
L 3481 0 
L 794 0 
L 794 531 
z
" transform="scale(0.015625)"/>
       </defs>
       <use xlink:href="#DejaVuSans-31"/>
       <use xlink:href="#DejaVuSans-30" x="63.623047"/>
       <use xlink:href="#DejaVuSans-30" x="127.246094"/>
       <use xlink:href="#DejaVuSans-30" x="190.869141"/>
      </g>
     </g>
    </g>
    <g id="xtick_4">
     <g id="line2d_4">
      <g>
       <use xlink:href="#m7cb2ec47c7" x="284.342188" y="266.112" style="fill: #808080; stroke: #808080; stroke-width: 0.8"/>
      </g>
     </g>
     <g id="text_4">
      <!-- 1500 -->
      <g style="fill: #808080" transform="translate(271.617188 280.710438) scale(0.1 -0.1)">
       <use xlink:href="#DejaVuSans-31"/>
       <use xlink:href="#DejaVuSans-35" x="63.623047"/>
       <use xlink:href="#DejaVuSans-30" x="127.246094"/>
       <use xlink:href="#DejaVuSans-30" x="190.869141"/>
      </g>
     </g>
    </g>
    <g id="xtick_5">
     <g id="line2d_5">
      <g>
       <use xlink:href="#m7cb2ec47c7" x="354.092188" y="266.112" style="fill: #808080; stroke: #808080; stroke-width: 0.8"/>
      </g>
     </g>
     <g id="text_5">
      <!-- 2000 -->
      <g style="fill: #808080" transform="translate(341.367188 280.710438) scale(0.1 -0.1)">
       <defs>
        <path id="DejaVuSans-32" d="M 1228 531 
L 3431 531 
L 3431 0 
L 469 0 
L 469 531 
Q 828 903 1448 1529 
Q 2069 2156 2228 2338 
Q 2531 2678 2651 2914 
Q 2772 3150 2772 3378 
Q 2772 3750 2511 3984 
Q 2250 4219 1831 4219 
Q 1534 4219 1204 4116 
Q 875 4013 500 3803 
L 500 4441 
Q 881 4594 1212 4672 
Q 1544 4750 1819 4750 
Q 2544 4750 2975 4387 
Q 3406 4025 3406 3419 
Q 3406 3131 3298 2873 
Q 3191 2616 2906 2266 
Q 2828 2175 2409 1742 
Q 1991 1309 1228 531 
z
" transform="scale(0.015625)"/>
       </defs>
       <use xlink:href="#DejaVuSans-32"/>
       <use xlink:href="#DejaVuSans-30" x="63.623047"/>
       <use xlink:href="#DejaVuSans-30" x="127.246094"/>
       <use xlink:href="#DejaVuSans-30" x="190.869141"/>
      </g>
     </g>
    </g>
    <g id="xtick_6">
     <g id="line2d_6">
      <g>
       <use xlink:href="#m7cb2ec47c7" x="423.842188" y="266.112" style="fill: #808080; stroke: #808080; stroke-width: 0.8"/>
      </g>
     </g>
     <g id="text_6">
      <!-- 2500 -->
      <g style="fill: #808080" transform="translate(411.117188 280.710438) scale(0.1 -0.1)">
       <use xlink:href="#DejaVuSans-32"/>
       <use xlink:href="#DejaVuSans-35" x="63.623047"/>
       <use xlink:href="#DejaVuSans-30" x="127.246094"/>
       <use xlink:href="#DejaVuSans-30" x="190.869141"/>
      </g>
     </g>
    </g>
    <g id="xtick_7">
     <g id="line2d_7">
      <g>
       <use xlink:href="#m7cb2ec47c7" x="493.592188" y="266.112" style="fill: #808080; stroke: #808080; stroke-width: 0.8"/>
      </g>
     </g>
     <g id="text_7">
      <!-- 3000 -->
      <g style="fill: #808080" transform="translate(480.867188 280.710438) scale(0.1 -0.1)">
       <defs>
        <path id="DejaVuSans-33" d="M 2597 2516 
Q 3050 2419 3304 2112 
Q 3559 1806 3559 1356 
Q 3559 666 3084 287 
Q 2609 -91 1734 -91 
Q 1441 -91 1130 -33 
Q 819 25 488 141 
L 488 750 
Q 750 597 1062 519 
Q 1375 441 1716 441 
Q 2309 441 2620 675 
Q 2931 909 2931 1356 
Q 2931 1769 2642 2001 
Q 2353 2234 1838 2234 
L 1294 2234 
L 1294 2753 
L 1863 2753 
Q 2328 2753 2575 2939 
Q 2822 3125 2822 3475 
Q 2822 3834 2567 4026 
Q 2313 4219 1838 4219 
Q 1578 4219 1281 4162 
Q 984 4106 628 3988 
L 628 4550 
Q 988 4650 1302 4700 
Q 1616 4750 1894 4750 
Q 2613 4750 3031 4423 
Q 3450 4097 3450 3541 
Q 3450 3153 3228 2886 
Q 3006 2619 2597 2516 
z
" transform="scale(0.015625)"/>
       </defs>
       <use xlink:href="#DejaVuSans-33"/>
       <use xlink:href="#DejaVuSans-30" x="63.623047"/>
       <use xlink:href="#DejaVuSans-30" x="127.246094"/>
       <use xlink:href="#DejaVuSans-30" x="190.869141"/>
      </g>
     </g>
    </g>
    <g id="xtick_8">
     <g id="line2d_8">
      <g>
       <use xlink:href="#m7cb2ec47c7" x="563.342188" y="266.112" style="fill: #808080; stroke: #808080; stroke-width: 0.8"/>
      </g>
     </g>
     <g id="text_8">
      <!-- 3500 -->
      <g style="fill: #808080" transform="translate(550.617188 280.710438) scale(0.1 -0.1)">
       <use xlink:href="#DejaVuSans-33"/>
       <use xlink:href="#DejaVuSans-35" x="63.623047"/>
       <use xlink:href="#DejaVuSans-30" x="127.246094"/>
       <use xlink:href="#DejaVuSans-30" x="190.869141"/>
      </g>
     </g>
    </g>
    <g id="xtick_9">
     <g id="line2d_9">
      <g>
       <use xlink:href="#m7cb2ec47c7" x="633.092188" y="266.112" style="fill: #808080; stroke: #808080; stroke-width: 0.8"/>
      </g>
     </g>
     <g id="text_9">
      <!-- 4000 -->
      <g style="fill: #808080" transform="translate(620.367188 280.710438) scale(0.1 -0.1)">
       <defs>
        <path id="DejaVuSans-34" d="M 2419 4116 
L 825 1625 
L 2419 1625 
L 2419 4116 
z
M 2253 4666 
L 3047 4666 
L 3047 1625 
L 3713 1625 
L 3713 1100 
L 3047 1100 
L 3047 0 
L 2419 0 
L 2419 1100 
L 313 1100 
L 313 1709 
L 2253 4666 
z
" transform="scale(0.015625)"/>
       </defs>
       <use xlink:href="#DejaVuSans-34"/>
       <use xlink:href="#DejaVuSans-30" x="63.623047"/>
       <use xlink:href="#DejaVuSans-30" x="127.246094"/>
       <use xlink:href="#DejaVuSans-30" x="190.869141"/>
      </g>
     </g>
    </g>
   </g>
   <g id="matplotlib.axis_2">
    <g id="ytick_1">
     <g id="line2d_10">
      <defs>
       <path id="mef188f7096" d="M 0 0 
L -3.5 0 
" style="stroke: #808080; stroke-width: 0.8"/>
      </defs>
      <g>
       <use xlink:href="#mef188f7096" x="47.192188" y="249.382853" style="fill: #808080; stroke: #808080; stroke-width: 0.8"/>
      </g>
     </g>
     <g id="text_10">
      <!-- −30000 -->
      <g style="fill: #808080" transform="translate(0 253.182072) scale(0.1 -0.1)">
       <defs>
        <path id="DejaVuSans-2212" d="M 678 2272 
L 4684 2272 
L 4684 1741 
L 678 1741 
L 678 2272 
z
" transform="scale(0.015625)"/>
       </defs>
       <use xlink:href="#DejaVuSans-2212"/>
       <use xlink:href="#DejaVuSans-33" x="83.789062"/>
       <use xlink:href="#DejaVuSans-30" x="147.412109"/>
       <use xlink:href="#DejaVuSans-30" x="211.035156"/>
       <use xlink:href="#DejaVuSans-30" x="274.658203"/>
       <use xlink:href="#DejaVuSans-30" x="338.28125"/>
      </g>
     </g>
    </g>
    <g id="ytick_2">
     <g id="line2d_11">
      <g>
       <use xlink:href="#mef188f7096" x="47.192188" y="213.370609" style="fill: #808080; stroke: #808080; stroke-width: 0.8"/>
      </g>
     </g>
     <g id="text_11">
      <!-- −20000 -->
      <g style="fill: #808080" transform="translate(0 217.169828) scale(0.1 -0.1)">
       <use xlink:href="#DejaVuSans-2212"/>
       <use xlink:href="#DejaVuSans-32" x="83.789062"/>
       <use xlink:href="#DejaVuSans-30" x="147.412109"/>
       <use xlink:href="#DejaVuSans-30" x="211.035156"/>
       <use xlink:href="#DejaVuSans-30" x="274.658203"/>
       <use xlink:href="#DejaVuSans-30" x="338.28125"/>
      </g>
     </g>
    </g>
    <g id="ytick_3">
     <g id="line2d_12">
      <g>
       <use xlink:href="#mef188f7096" x="47.192188" y="177.358365" style="fill: #808080; stroke: #808080; stroke-width: 0.8"/>
      </g>
     </g>
     <g id="text_12">
      <!-- −10000 -->
      <g style="fill: #808080" transform="translate(0 181.157584) scale(0.1 -0.1)">
       <use xlink:href="#DejaVuSans-2212"/>
       <use xlink:href="#DejaVuSans-31" x="83.789062"/>
       <use xlink:href="#DejaVuSans-30" x="147.412109"/>
       <use xlink:href="#DejaVuSans-30" x="211.035156"/>
       <use xlink:href="#DejaVuSans-30" x="274.658203"/>
       <use xlink:href="#DejaVuSans-30" x="338.28125"/>
      </g>
     </g>
    </g>
    <g id="ytick_4">
     <g id="line2d_13">
      <g>
       <use xlink:href="#mef188f7096" x="47.192188" y="141.346121" style="fill: #808080; stroke: #808080; stroke-width: 0.8"/>
      </g>
     </g>
     <g id="text_13">
      <!-- 0 -->
      <g style="fill: #808080" transform="translate(33.829688 145.14534) scale(0.1 -0.1)">
       <use xlink:href="#DejaVuSans-30"/>
      </g>
     </g>
    </g>
    <g id="ytick_5">
     <g id="line2d_14">
      <g>
       <use xlink:href="#mef188f7096" x="47.192188" y="105.333877" style="fill: #808080; stroke: #808080; stroke-width: 0.8"/>
      </g>
     </g>
     <g id="text_14">
      <!-- 10000 -->
      <g style="fill: #808080" transform="translate(8.379688 109.133096) scale(0.1 -0.1)">
       <use xlink:href="#DejaVuSans-31"/>
       <use xlink:href="#DejaVuSans-30" x="63.623047"/>
       <use xlink:href="#DejaVuSans-30" x="127.246094"/>
       <use xlink:href="#DejaVuSans-30" x="190.869141"/>
       <use xlink:href="#DejaVuSans-30" x="254.492188"/>
      </g>
     </g>
    </g>
    <g id="ytick_6">
     <g id="line2d_15">
      <g>
       <use xlink:href="#mef188f7096" x="47.192188" y="69.321633" style="fill: #808080; stroke: #808080; stroke-width: 0.8"/>
      </g>
     </g>
     <g id="text_15">
      <!-- 20000 -->
      <g style="fill: #808080" transform="translate(8.379688 73.120852) scale(0.1 -0.1)">
       <use xlink:href="#DejaVuSans-32"/>
       <use xlink:href="#DejaVuSans-30" x="63.623047"/>
       <use xlink:href="#DejaVuSans-30" x="127.246094"/>
       <use xlink:href="#DejaVuSans-30" x="190.869141"/>
       <use xlink:href="#DejaVuSans-30" x="254.492188"/>
      </g>
     </g>
    </g>
    <g id="ytick_7">
     <g id="line2d_16">
      <g>
       <use xlink:href="#mef188f7096" x="47.192188" y="33.309389" style="fill: #808080; stroke: #808080; stroke-width: 0.8"/>
      </g>
     </g>
     <g id="text_16">
      <!-- 30000 -->
      <g style="fill: #808080" transform="translate(8.379688 37.108608) scale(0.1 -0.1)">
       <use xlink:href="#DejaVuSans-33"/>
       <use xlink:href="#DejaVuSans-30" x="63.623047"/>
       <use xlink:href="#DejaVuSans-30" x="127.246094"/>
       <use xlink:href="#DejaVuSans-30" x="190.869141"/>
       <use xlink:href="#DejaVuSans-30" x="254.492188"/>
      </g>
     </g>
    </g>
   </g>
   <g id="line2d_17">
    <path d="M 75.092188 141.285972 
L 75.374148 141.403165 
L 75.656109 141.291969 
L 75.938069 141.39757 
L 76.22003 141.297211 
L 76.50199 141.392638 
L 76.783951 141.30187 
L 77.065912 141.388221 
L 77.347872 141.306072 
L 77.629833 141.384208 
L 77.911793 141.309919 
L 78.193754 141.380508 
L 78.475715 141.31349 
L 78.757675 141.377048 
L 79.039636 141.316854 
L 79.603557 141.320067 
L 80.449439 141.367528 
L 81.29532 141.329298 
L 82.141202 141.358262 
L 83.551005 141.342523 
L 87.498453 141.3874 
L 87.780414 141.298196 
L 88.062374 141.401824 
L 88.344335 141.281196 
L 88.626296 141.422132 
L 88.908256 141.256629 
L 89.190217 141.452059 
L 89.472177 141.22074 
L 89.754138 141.49018 
L 90.318059 141.059848 
L 90.60002 119.530129 
L 91.163941 162.824975 
L 91.445901 169.772669 
L 91.727862 171.286525 
L 92.009823 170.690349 
L 92.291783 171.008473 
L 92.855704 167.219633 
L 93.137665 166.235716 
L 93.419626 167.547456 
L 93.701586 169.453288 
L 94.265507 174.163903 
L 94.547468 174.876886 
L 95.39335 172.641842 
L 95.67531 172.579795 
L 95.957271 173.478231 
L 96.521192 178.421111 
L 96.803153 179.886606 
L 97.085113 180.521381 
L 97.930995 184.290365 
L 98.212956 184.391219 
L 98.494916 185.442849 
L 98.776877 187.317046 
L 99.058837 188.056007 
L 99.340798 183.396916 
L 99.622758 171.850473 
L 101.032561 89.364528 
L 101.314522 82.999002 
L 102.442364 68.491874 
L 102.724325 66.062176 
L 103.006286 64.775094 
L 103.288246 65.399892 
L 103.570207 69.705568 
L 104.134128 86.895979 
L 104.416088 101.96827 
L 105.26197 169.619875 
L 105.543931 176.123087 
L 105.825891 175.196797 
L 106.107852 173.539957 
L 106.389813 173.223999 
L 106.671773 171.939746 
L 107.235694 167.448651 
L 107.517655 168.112108 
L 108.081576 172.425588 
L 108.363537 171.712569 
L 108.645497 170.173847 
L 108.927458 169.886533 
L 109.209418 170.782869 
L 109.491379 170.788935 
L 109.77334 170.620664 
L 110.0553 171.82365 
L 110.337261 174.154099 
L 110.619221 175.319054 
L 110.901182 175.624747 
L 111.183143 176.398965 
L 111.465103 177.869227 
L 111.747064 178.439281 
L 112.029024 177.940898 
L 112.592945 174.419176 
L 113.156867 168.974009 
L 113.438827 161.80245 
L 113.720788 146.638212 
L 114.56667 83.558674 
L 115.130591 61.932264 
L 115.412551 57.170217 
L 115.976472 52.636463 
L 116.258433 51.694493 
L 116.540394 54.083968 
L 117.104315 62.924612 
L 117.386275 65.590464 
L 117.668236 69.373818 
L 117.950197 76.72661 
L 118.232157 89.86239 
L 119.36 168.998805 
L 119.64196 172.233484 
L 119.923921 171.124109 
L 120.205881 169.544137 
L 120.769802 167.852268 
L 121.051763 167.397044 
L 121.333724 167.293977 
L 121.897645 168.380799 
L 122.179605 168.030151 
L 122.461566 166.707222 
L 122.743527 166.560314 
L 123.025487 168.870254 
L 123.589408 175.271697 
L 124.717251 181.640172 
L 124.999211 181.898258 
L 125.281172 182.530566 
L 126.409014 189.271113 
L 126.972935 196.167236 
L 127.254896 195.169503 
L 127.536857 186.778291 
L 128.100778 150.253611 
L 128.664699 114.079243 
L 129.22862 93.919048 
L 130.638423 59.352176 
L 130.920384 56.758878 
L 131.202344 56.214119 
L 131.484305 56.766956 
L 131.766265 59.360655 
L 132.048226 64.756279 
L 132.330186 74.262217 
L 132.612147 90.612052 
L 133.458029 166.938253 
L 133.739989 176.398139 
L 134.02195 176.191155 
L 134.585871 170.669751 
L 134.867832 169.99394 
L 135.149792 170.360806 
L 135.431753 170.238584 
L 135.995674 167.611402 
L 136.277635 167.923388 
L 136.841556 170.602471 
L 137.123516 170.914023 
L 137.405477 171.020736 
L 137.687438 170.914744 
L 137.969398 170.982633 
L 138.251359 171.874741 
L 139.097241 177.330745 
L 139.379201 178.960628 
L 140.225083 185.831338 
L 140.507043 187.478367 
L 141.070965 193.667278 
L 141.352925 194.524255 
L 141.634886 188.83738 
L 141.916846 174.874359 
L 142.762728 116.390536 
L 143.326649 93.434487 
L 144.454492 59.882853 
L 144.736452 54.5148 
L 145.018413 51.880447 
L 145.582334 49.406191 
L 145.864295 50.918554 
L 146.146255 55.724414 
L 146.428216 62.920389 
L 146.710176 74.306422 
L 146.992137 95.190437 
L 147.556058 151.64536 
L 147.838019 165.561423 
L 148.119979 167.657521 
L 148.40194 166.332059 
L 148.6839 166.303935 
L 148.965861 166.430479 
L 149.247822 166.198372 
L 149.529782 166.392921 
L 149.811743 166.79084 
L 150.375664 165.491912 
L 150.657625 166.39643 
L 151.221546 170.723472 
L 152.067428 173.815751 
L 152.631349 174.844655 
L 152.913309 176.053336 
L 153.47723 183.091892 
L 153.759191 186.426257 
L 154.041152 188.204974 
L 154.605073 189.826299 
L 154.887033 190.50587 
L 155.450955 192.584637 
L 155.732915 190.11977 
L 156.014876 179.608053 
L 157.424679 91.621241 
L 157.9886 77.257936 
L 158.834482 58.232693 
L 159.116442 56.672267 
L 159.680363 54.841733 
L 159.962324 56.020804 
L 160.244285 59.634275 
L 160.526245 65.546186 
L 160.808206 78.486343 
L 161.936048 170.945846 
L 162.218009 171.558513 
L 162.499969 169.567147 
L 163.345851 160.182124 
L 164.191733 157.179836 
L 164.473693 158.932285 
L 164.755654 161.767849 
L 165.319575 164.605888 
L 166.165457 174.446216 
L 166.447417 175.900798 
L 166.729378 179.267443 
L 167.293299 189.33395 
L 168.139181 199.086724 
L 168.703102 203.691354 
L 168.985063 207.044918 
L 169.267023 208.512756 
L 169.548984 203.415208 
L 169.830944 189.749293 
L 171.240747 93.03243 
L 172.086629 68.254461 
L 172.36859 63.31956 
L 172.932511 59.372807 
L 173.778393 48.919179 
L 174.060353 49.68364 
L 174.342314 53.598682 
L 174.624274 63.776646 
L 174.906235 84.165619 
L 175.470156 141.611167 
L 175.752117 158.893755 
L 176.034077 163.605965 
L 176.316038 162.657619 
L 176.597999 162.38611 
L 176.879959 163.615629 
L 177.16192 163.870801 
L 177.44388 162.83061 
L 177.725841 162.393896 
L 178.007801 164.029044 
L 178.289762 166.378935 
L 178.571723 167.701708 
L 178.853683 168.036731 
L 179.135644 169.060245 
L 179.699565 173.557835 
L 180.263486 180.223249 
L 180.827407 186.451399 
L 181.109368 188.449699 
L 181.673289 195.831802 
L 182.23721 204.095326 
L 182.801131 215.086464 
L 183.083092 215.658609 
L 183.365053 208.088658 
L 183.928974 172.075498 
L 184.774856 113.493324 
L 185.338777 89.16595 
L 186.74858 50.384577 
L 187.312501 31.940257 
L 187.594461 26.56749 
L 187.876422 26.994846 
L 188.158383 32.464704 
L 188.440343 42.301281 
L 188.722304 60.561468 
L 189.568185 148.69676 
L 189.850146 157.223459 
L 190.132107 156.581459 
L 190.414067 156.805558 
L 190.977988 163.000497 
L 191.259949 164.533681 
L 191.54191 166.832676 
L 192.951713 187.205604 
L 193.515634 192.639746 
L 193.797594 194.069745 
L 194.361515 194.336891 
L 194.643476 195.773218 
L 195.489358 204.129624 
L 196.053279 208.777557 
L 196.899161 217.705186 
L 197.181121 217.988136 
L 197.463082 210.581643 
L 197.745042 192.525239 
L 198.590924 119.105659 
L 199.154845 88.860722 
L 200.282688 47.831507 
L 200.846609 31.490974 
L 201.12857 26.057183 
L 201.41053 22.799868 
L 201.692491 23.309095 
L 201.974451 28.178082 
L 202.256412 38.212559 
L 202.538372 56.239598 
L 203.666215 158.340148 
L 203.948175 162.16404 
L 204.512097 164.341818 
L 204.794057 164.333323 
L 205.357978 162.530924 
L 205.921899 161.923522 
L 206.20386 162.164318 
L 206.485821 163.951535 
L 208.459545 188.892347 
L 209.587387 208.028871 
L 210.99719 220.656959 
L 211.279151 221.607338 
L 211.561111 216.086557 
L 211.843072 198.889933 
L 212.970914 98.269078 
L 213.534835 70.385474 
L 214.098756 52.062538 
L 214.662678 31.488383 
L 214.944638 27.743101 
L 215.226599 27.509037 
L 215.508559 28.111307 
L 215.79052 29.914547 
L 216.072481 35.141584 
L 216.354441 47.44386 
L 216.918362 101.640986 
L 217.482284 153.817136 
L 217.764244 163.667914 
L 218.046205 167.745068 
L 218.328165 169.95376 
L 218.610126 170.89737 
L 218.892086 171.111841 
L 219.174047 172.191586 
L 220.019929 177.475341 
L 220.58385 180.002957 
L 221.147771 180.794555 
L 221.993653 185.23476 
L 222.275613 187.382202 
L 223.121495 196.008842 
L 223.403456 198.651267 
L 225.095219 220.955029 
L 225.37718 217.000039 
L 225.659141 202.481136 
L 227.068943 94.03919 
L 227.350904 80.685092 
L 228.196786 26.356555 
L 228.478746 22.431961 
L 228.760707 21.880025 
L 229.324628 16.897379 
L 229.606589 20.704882 
L 230.17051 40.968656 
L 230.45247 55.905526 
L 231.016392 110.951908 
L 231.580313 160.780773 
L 231.862273 168.799925 
L 232.426195 172.640534 
L 232.708155 174.033056 
L 233.272076 175.013015 
L 233.554037 176.593684 
L 235.527761 192.543104 
L 236.373643 196.702174 
L 236.655603 198.52888 
L 236.937564 202.395418 
L 237.501485 214.536603 
L 237.783446 218.057679 
L 238.065406 218.801743 
L 238.347367 218.819156 
L 238.629327 220.194534 
L 238.911288 222.459578 
L 239.193249 220.555668 
L 239.475209 208.467209 
L 240.03913 155.813309 
L 240.603052 103.606655 
L 241.166973 69.656684 
L 242.012855 27.302131 
L 242.294815 19.681843 
L 242.576776 17.331428 
L 242.858736 17.120043 
L 243.140697 17.335026 
L 243.422657 19.261782 
L 243.704618 23.878185 
L 244.268539 39.680513 
L 244.5505 52.83018 
L 244.83246 73.873244 
L 245.678342 157.361891 
L 245.960303 167.681662 
L 246.242263 170.105418 
L 246.806184 171.788605 
L 247.088145 171.978834 
L 247.370106 171.788624 
L 247.652066 171.936499 
L 247.934027 172.474631 
L 248.215987 173.648794 
L 248.497948 176.57539 
L 249.061869 184.216441 
L 249.62579 188.247479 
L 253.009317 226.336551 
L 253.291278 227.854569 
L 253.573239 224.671114 
L 253.855199 212.747632 
L 254.41912 160.143779 
L 254.983041 104.683022 
L 255.828923 57.033628 
L 256.392844 31.982984 
L 256.956766 19.33238 
L 257.238726 17.127368 
L 257.520687 18.069622 
L 258.084608 24.726826 
L 258.366569 29.775801 
L 258.648529 38.602321 
L 258.93049 54.410347 
L 259.494411 110.61281 
L 260.058332 160.267646 
L 260.340293 169.784689 
L 260.904214 176.534911 
L 261.186174 178.890224 
L 261.468135 180.044919 
L 261.750096 180.234374 
L 262.032056 180.204725 
L 262.314017 179.847536 
L 262.595977 179.687508 
L 262.877938 181.134297 
L 264.00578 195.561899 
L 264.851662 204.080353 
L 265.415583 204.944137 
L 265.697544 206.209674 
L 266.261465 211.079229 
L 266.825386 216.15725 
L 267.107347 217.105739 
L 267.389307 217.344904 
L 267.671268 216.386577 
L 267.953228 209.889444 
L 268.235189 192.875734 
L 269.644992 65.039798 
L 270.208913 34.903177 
L 270.490874 26.008347 
L 270.772834 20.821225 
L 271.054795 17.953947 
L 271.336755 17.030862 
L 271.618716 18.43489 
L 272.182637 24.235166 
L 272.464598 28.493109 
L 272.746558 37.298465 
L 273.028519 52.865442 
L 274.438322 164.521596 
L 274.720282 173.445582 
L 275.002243 177.675094 
L 275.848125 183.595471 
L 276.130085 184.551443 
L 276.412046 184.54498 
L 276.694007 185.353069 
L 276.975967 188.495359 
L 277.539888 196.610294 
L 278.10381 201.112978 
L 278.667731 207.157446 
L 279.513612 214.137225 
L 280.359494 223.000223 
L 280.923415 231.504386 
L 281.205376 234.396626 
L 281.487337 235.176858 
L 281.769297 230.821382 
L 282.051258 216.195841 
L 282.615179 155.65892 
L 283.1791 94.151338 
L 283.743021 49.592823 
L 284.306942 22.667935 
L 284.588903 17.010775 
L 284.870864 14.992646 
L 285.152824 14.572697 
L 285.434785 13.796657 
L 285.716745 12.636909 
L 285.998706 12.096 
L 286.280667 12.692253 
L 286.562627 14.856524 
L 286.844588 21.439056 
L 287.126548 35.536503 
L 287.97243 107.254073 
L 288.536351 149.375348 
L 288.818312 160.344485 
L 289.382233 170.829671 
L 289.664194 175.000744 
L 289.946154 177.143247 
L 290.228115 178.144409 
L 290.510075 180.771505 
L 291.355957 195.96813 
L 292.483799 208.705392 
L 293.047721 214.128108 
L 293.611642 216.343877 
L 293.893602 217.95407 
L 294.175563 220.495861 
L 295.585366 237.803074 
L 295.867326 236.320855 
L 296.149287 225.518471 
L 296.431248 201.797846 
L 297.55909 73.55756 
L 298.123011 40.794959 
L 298.686932 25.359605 
L 298.968893 21.621663 
L 299.250853 20.010687 
L 299.532814 19.983279 
L 299.814775 21.266968 
L 300.096735 23.837867 
L 300.660656 32.924986 
L 301.224578 47.713433 
L 301.506538 60.934038 
L 302.070459 104.919928 
L 302.634381 151.367533 
L 303.198302 176.917459 
L 303.480262 183.843904 
L 303.762223 187.125478 
L 304.044183 187.062837 
L 304.326144 186.240412 
L 304.890065 186.756057 
L 305.172026 185.127138 
L 305.453986 182.751395 
L 305.735947 182.061675 
L 306.017908 183.458788 
L 306.299868 185.5249 
L 306.581829 188.42381 
L 307.42771 201.553338 
L 307.991632 206.669836 
L 308.555553 212.573205 
L 309.119474 217.279816 
L 310.247316 230.314241 
L 310.529277 226.978334 
L 310.811238 212.898527 
L 311.375159 157.936199 
L 312.22104 64.728427 
L 312.784962 36.624569 
L 313.066922 27.987169 
L 313.348883 22.817017 
L 313.630843 21.635698 
L 313.912804 21.584189 
L 314.194765 20.820459 
L 314.476725 21.921766 
L 315.040646 30.332874 
L 315.322607 32.562004 
L 315.604567 37.986253 
L 315.886528 52.518727 
L 317.296331 167.525412 
L 317.578292 177.628548 
L 318.142213 185.769873 
L 318.424173 188.177422 
L 318.706134 189.629712 
L 318.988095 190.377524 
L 319.552016 190.768935 
L 319.833976 191.444407 
L 321.52574 203.481817 
L 322.371622 209.76065 
L 323.499464 222.677457 
L 324.063385 224.296805 
L 324.345346 226.516018 
L 324.627306 226.269055 
L 324.909267 216.277611 
L 325.473188 163.423792 
L 326.31907 79.172446 
L 326.882991 49.022634 
L 327.728873 21.550886 
L 328.010833 18.577421 
L 328.292794 17.914904 
L 328.574754 18.334266 
L 328.856715 20.828816 
L 329.702597 34.565159 
L 329.984557 41.945528 
L 330.266518 56.010198 
L 331.676321 150.180954 
L 332.522203 173.579974 
L 332.804163 177.492956 
L 333.650045 182.761339 
L 333.932006 183.057404 
L 334.213966 182.32271 
L 334.495927 182.260739 
L 334.777887 184.255788 
L 335.341809 194.265168 
L 335.90573 204.80541 
L 336.751611 216.838661 
L 337.315533 222.070104 
L 338.161414 235.473219 
L 338.725336 239.090648 
L 339.007296 236.381046 
L 339.289257 222.958565 
L 339.853178 162.727218 
L 340.69906 67.6229 
L 340.98102 48.681432 
L 341.544941 30.717748 
L 342.108863 18.695848 
L 342.390823 17.356669 
L 343.800626 31.065532 
L 344.082587 36.868598 
L 344.364547 46.914214 
L 344.928468 80.656532 
L 346.056311 159.709672 
L 346.620232 178.131682 
L 347.184153 186.999441 
L 347.466114 188.209345 
L 347.748074 188.432238 
L 348.030035 189.860514 
L 348.593956 194.173206 
L 348.875917 194.3668 
L 349.157877 194.872 
L 350.003759 200.96061 
L 350.56768 203.66272 
L 351.413562 209.658249 
L 351.695523 213.049347 
L 353.105325 236.902102 
L 353.387286 237.967207 
L 353.669247 230.263401 
L 353.951207 209.674426 
L 355.36101 60.778241 
L 355.642971 47.027066 
L 356.206892 34.592276 
L 356.488852 30.801836 
L 356.770813 29.426141 
L 357.052774 30.446138 
L 357.898655 35.050737 
L 358.180616 38.717766 
L 358.462577 44.643054 
L 358.744537 53.657069 
L 359.308458 86.074178 
L 360.15434 142.502691 
L 360.718261 166.975506 
L 361.000222 172.077176 
L 361.282182 172.7957 
L 362.691985 164.534784 
L 362.973946 164.041831 
L 363.255907 166.204057 
L 363.819828 175.052729 
L 364.383749 179.995265 
L 364.94767 189.808227 
L 366.075512 213.105263 
L 366.639434 220.050683 
L 367.203355 224.272498 
L 367.485315 225.884698 
L 367.767276 226.65829 
L 368.049237 222.467738 
L 368.331197 208.277762 
L 368.895118 149.374069 
L 369.459039 79.715266 
L 369.741 55.864042 
L 370.022961 42.071886 
L 370.868842 19.887578 
L 371.150803 16.677703 
L 371.432764 16.182648 
L 371.714724 16.154986 
L 371.996685 16.277166 
L 372.278645 17.922642 
L 372.560606 22.499461 
L 372.842566 31.07714 
L 373.406488 62.737472 
L 375.098251 183.117581 
L 375.662172 194.454325 
L 376.226094 204.208025 
L 376.508054 205.881651 
L 377.071975 203.711985 
L 377.635896 204.893207 
L 377.917857 202.590967 
L 378.481778 192.431131 
L 378.763739 191.34012 
L 379.32766 193.828294 
L 379.609621 194.305557 
L 379.891581 196.717307 
L 380.737463 210.215279 
L 381.583345 219.083196 
L 381.865305 222.009563 
L 382.147266 219.958274 
L 382.429226 206.580961 
L 382.993148 146.78396 
L 383.557069 87.541628 
L 384.12099 52.401244 
L 384.684911 38.378626 
L 384.966872 34.215279 
L 385.248832 31.705593 
L 385.530793 30.735748 
L 385.812753 30.276849 
L 386.094714 31.206955 
L 386.658635 39.822338 
L 387.222556 49.09558 
L 387.504517 58.699642 
L 388.068438 90.579586 
L 389.19628 157.91801 
L 389.760202 171.587473 
L 390.606083 183.074039 
L 391.170005 188.296972 
L 391.733926 191.94502 
L 392.579808 198.794941 
L 392.861768 199.478764 
L 393.143729 199.38714 
L 393.425689 200.240225 
L 393.98961 207.153751 
L 394.835492 217.598156 
L 395.399413 227.441739 
L 395.963335 232.452885 
L 396.245295 236.042227 
L 396.527256 236.303457 
L 396.809216 226.204664 
L 397.091177 202.484176 
L 398.219019 74.081694 
L 398.50098 56.63414 
L 398.78294 46.576943 
L 399.346862 36.327861 
L 399.628822 32.616085 
L 399.910783 30.622727 
L 400.192743 30.328938 
L 400.474704 30.390455 
L 400.756665 30.752336 
L 401.038625 32.881053 
L 401.602546 43.535042 
L 401.884507 50.579019 
L 402.166467 60.722819 
L 404.140192 158.689733 
L 404.704113 172.559159 
L 405.268034 181.773193 
L 406.395876 189.438165 
L 406.959797 194.59085 
L 407.805679 203.478199 
L 408.3696 209.23375 
L 409.215482 218.810698 
L 409.779403 222.953664 
L 410.625285 228.444574 
L 410.907246 228.741167 
L 411.189206 223.897921 
L 411.471167 209.712147 
L 412.035088 149.64642 
L 412.599009 84.398462 
L 413.16293 51.827613 
L 413.726851 36.559214 
L 414.008812 31.286763 
L 414.290773 29.066997 
L 414.572733 28.89065 
L 414.854694 28.199541 
L 415.136654 26.425851 
L 415.418615 26.099472 
L 415.700576 29.20439 
L 415.982536 35.707978 
L 416.264497 45.698949 
L 416.828418 79.617249 
L 417.6743 131.051743 
L 418.520181 168.233811 
L 419.084103 183.996028 
L 419.366063 188.789445 
L 419.648024 190.986933 
L 420.211945 192.910424 
L 420.493906 193.264495 
L 420.775866 192.724741 
L 421.057827 193.358141 
L 421.903708 202.512113 
L 422.185669 202.219538 
L 422.46763 203.024262 
L 423.313511 212.576312 
L 424.159393 225.143097 
L 424.723314 233.719312 
L 425.005275 233.380572 
L 425.287236 221.840262 
L 425.569196 196.052546 
L 426.415078 91.69653 
L 426.978999 58.735042 
L 427.54292 42.250545 
L 427.824881 37.294109 
L 428.106841 35.430618 
L 428.388802 35.504027 
L 428.952723 36.222781 
L 429.234684 37.12011 
L 429.798605 41.083769 
L 430.080565 44.905237 
L 430.362526 52.165068 
L 431.208408 90.369047 
L 433.182132 174.262694 
L 433.746053 187.570454 
L 434.591935 202.272813 
L 434.873895 204.364664 
L 435.155856 204.670011 
L 435.437817 205.268985 
L 435.719777 207.819476 
L 436.283698 215.28126 
L 437.12958 220.937071 
L 437.693501 229.100506 
L 438.821344 240.515455 
L 439.103304 234.391885 
L 439.385265 211.271217 
L 440.231147 98.087069 
L 440.795068 63.332 
L 441.358989 43.774184 
L 441.64095 39.781674 
L 442.204871 36.165115 
L 442.486831 35.253938 
L 442.768792 35.336855 
L 443.050752 35.937539 
L 443.332713 36.823514 
L 443.614674 38.74022 
L 443.896634 42.373915 
L 444.178595 48.344093 
L 444.742516 68.815033 
L 446.152319 133.748338 
L 446.998201 158.91692 
L 447.562122 170.889244 
L 448.689964 205.51925 
L 449.253885 212.710563 
L 450.381728 219.686816 
L 450.663688 219.652064 
L 450.945649 221.054144 
L 452.355452 242.534584 
L 452.637412 244.317521 
L 452.919373 238.249321 
L 453.201334 218.180373 
L 454.329176 79.265074 
L 454.893097 58.147343 
L 455.457018 44.192067 
L 455.738979 39.93268 
L 456.020939 38.478583 
L 456.3029 38.808208 
L 456.584861 39.537073 
L 456.866821 39.884831 
L 457.148782 40.774227 
L 457.430742 43.612186 
L 457.994663 55.748584 
L 458.558585 77.828084 
L 459.122506 105.328727 
L 459.686427 121.709061 
L 460.250348 137.650607 
L 461.942112 193.379171 
L 462.506033 205.63105 
L 462.787993 208.828957 
L 463.069954 210.409443 
L 463.351915 212.728583 
L 463.915836 219.658986 
L 464.479757 223.730828 
L 466.17152 244.571352 
L 466.453481 241.894414 
L 466.735442 226.456473 
L 467.299363 155.163361 
L 467.863284 87.876938 
L 468.145245 73.184512 
L 469.273087 44.444203 
L 469.555048 42.157285 
L 470.118969 40.344098 
L 470.400929 40.872512 
L 471.246811 47.939096 
L 471.528772 53.619567 
L 473.502496 123.160729 
L 474.066417 140.392922 
L 474.912299 170.351412 
L 476.040141 204.253909 
L 476.604062 214.863336 
L 477.167983 221.208745 
L 477.731905 224.25923 
L 478.577786 228.73446 
L 479.141707 234.209677 
L 479.423668 237.161086 
L 479.705629 237.833092 
L 479.987589 231.851594 
L 480.26955 213.80468 
L 480.833471 141.664372 
L 481.397392 79.534306 
L 481.679353 65.983771 
L 482.243274 51.157851 
L 482.525234 45.791701 
L 482.807195 44.701874 
L 483.089156 46.610343 
L 483.371116 46.708282 
L 483.653077 43.802927 
L 483.935037 42.254466 
L 484.216998 45.329746 
L 485.06288 58.643844 
L 485.626801 81.593007 
L 486.190722 102.381841 
L 487.036604 129.001401 
L 488.728367 176.19783 
L 489.292289 189.194127 
L 490.13817 211.637118 
L 490.702091 219.40486 
L 492.111894 234.975329 
L 492.393855 237.301802 
L 492.957776 245.766421 
L 493.239737 245.840181 
L 493.521697 232.706585 
L 494.085619 164.620045 
L 494.64954 100.371947 
L 495.213461 72.360533 
L 495.777382 57.14459 
L 496.341303 47.971355 
L 496.905224 43.912516 
L 497.187185 43.510382 
L 497.469146 44.164213 
L 497.751106 45.213129 
L 498.033067 47.355279 
L 498.315027 52.9889 
L 500.288751 120.764997 
L 501.134633 144.293866 
L 503.108357 208.120349 
L 503.954239 224.894937 
L 504.2362 227.879426 
L 504.51816 228.648805 
L 504.800121 228.900759 
L 505.082081 229.946525 
L 505.646003 233.77418 
L 506.491884 241.230617 
L 506.773845 239.302387 
L 507.055805 228.355257 
L 507.337766 203.953509 
L 508.183648 91.991157 
L 508.465608 71.929156 
L 509.02953 52.841612 
L 509.31149 46.35305 
L 509.593451 42.442184 
L 509.875411 40.386571 
L 510.157372 39.411324 
L 510.439333 40.140372 
L 511.285214 45.839821 
L 511.567175 51.599381 
L 513.258938 114.553117 
L 514.10482 129.329817 
L 514.668741 136.785318 
L 515.514623 155.884862 
L 515.796584 163.976716 
L 516.924426 205.621956 
L 517.488347 219.29211 
L 517.770308 223.750196 
L 518.052268 225.890037 
L 518.61619 227.691824 
L 518.89815 230.632394 
L 519.462071 239.724232 
L 520.025992 245.911882 
L 520.307953 246.933223 
L 520.589914 237.813426 
L 520.871874 211.669058 
L 521.717756 103.73576 
L 522.281677 73.203593 
L 522.845598 56.829137 
L 523.409519 48.803822 
L 523.69148 47.243377 
L 523.973441 47.190501 
L 524.255401 47.391121 
L 524.819322 46.070887 
L 525.101283 48.51651 
L 525.383244 55.072968 
L 526.229125 87.048095 
L 526.793047 105.465432 
L 528.766771 154.901548 
L 529.612652 177.881226 
L 530.176574 195.876354 
L 530.740495 214.162962 
L 531.022455 219.53708 
L 533.560101 247.704365 
L 533.842061 247.030237 
L 534.124022 236.063686 
L 534.405982 209.247318 
L 535.251864 96.039539 
L 535.533825 78.450183 
L 536.097746 63.821116 
L 536.661667 53.149875 
L 536.943628 52.267579 
L 537.225588 53.552378 
L 537.507549 54.163903 
L 537.789509 53.730301 
L 538.07147 53.754378 
L 538.635391 54.954493 
L 538.917352 56.600215 
L 539.199312 62.133863 
L 540.609115 109.995117 
L 541.173036 118.096288 
L 541.454997 120.676703 
L 541.736958 124.402589 
L 542.300879 136.477912 
L 543.146761 157.45373 
L 545.120485 215.014157 
L 545.684406 228.763621 
L 545.966366 230.678827 
L 546.248327 231.697665 
L 546.530288 235.492199 
L 546.812248 241.042418 
L 547.094209 244.037033 
L 547.376169 243.59943 
L 547.65813 242.756722 
L 547.94009 241.038086 
L 548.222051 230.520404 
L 548.504012 203.753401 
L 549.349893 98.345185 
L 549.631854 83.952816 
L 550.477736 62.454964 
L 550.759696 56.751403 
L 551.041657 53.568548 
L 551.323618 52.901051 
L 551.605578 52.795234 
L 551.887539 51.928326 
L 552.169499 51.814775 
L 552.45146 54.517093 
L 553.297342 68.227545 
L 553.861263 86.34935 
L 554.425184 103.864331 
L 554.989105 114.880277 
L 556.680869 138.74242 
L 557.24479 148.721058 
L 557.52675 152.955834 
L 558.090672 169.037275 
L 559.500475 211.513273 
L 560.628317 237.632976 
L 561.192238 248.195386 
L 561.474199 251.386248 
L 562.03812 253.582246 
L 562.32008 251.735652 
L 562.602041 237.951234 
L 563.165962 163.701606 
L 563.729883 100.507954 
L 564.011844 87.751731 
L 564.857726 70.786976 
L 565.139686 65.522967 
L 565.421647 62.530185 
L 565.703607 61.615492 
L 565.985568 60.298067 
L 566.549489 56.19042 
L 566.83145 57.349524 
L 567.11341 60.685361 
L 567.395371 65.662377 
L 568.805174 101.167418 
L 569.369095 109.735003 
L 569.933016 116.115982 
L 570.214977 121.332503 
L 571.060859 143.327792 
L 571.90674 150.66857 
L 573.598504 189.998865 
L 575.008307 230.357315 
L 575.572228 240.664817 
L 576.41811 247.35529 
L 576.70007 245.283699 
L 576.982031 230.128649 
L 577.545952 156.148571 
L 577.827913 120.192635 
L 578.109873 98.913211 
L 578.673794 83.028134 
L 579.237716 71.49896 
L 579.519676 68.433412 
L 579.801637 67.159285 
L 580.083597 67.028433 
L 580.929479 69.010075 
L 581.21144 70.053574 
L 581.4934 72.606207 
L 581.775361 77.511326 
L 583.749085 125.340234 
L 586.28673 163.388457 
L 587.414573 187.854077 
L 588.542415 215.432911 
L 590.516139 241.724529 
L 590.7981 232.74752 
L 591.08006 207.311189 
L 591.925942 101.26045 
L 592.207903 87.90466 
L 593.053784 69.232435 
L 593.335745 65.965213 
L 594.181627 62.099475 
L 594.463587 61.915585 
L 594.745548 63.007134 
L 595.309469 67.710517 
L 595.59143 72.013635 
L 596.155351 87.802663 
L 596.719272 103.698454 
L 597.283193 112.624656 
L 597.847114 119.693784 
L 599.256917 133.560725 
L 600.102799 145.539304 
L 600.66672 159.187389 
L 601.512602 182.929462 
L 602.076523 196.898929 
L 602.640444 212.188789 
L 603.204365 223.982381 
L 604.050247 245.070447 
L 604.332208 250.135145 
L 604.614168 252.562683 
L 604.896129 243.890518 
L 605.178089 217.262979 
L 606.023971 111.424384 
L 606.305932 97.076838 
L 606.869853 83.951454 
L 607.715735 70.512524 
L 607.997695 69.168652 
L 608.279656 70.10373 
L 608.561617 71.585334 
L 608.843577 71.851927 
L 609.125538 71.755232 
L 609.407498 73.697021 
L 609.689459 79.25922 
L 611.381222 124.250293 
L 611.945144 134.159038 
L 612.509065 139.282475 
L 612.791025 140.278084 
L 613.354946 139.850377 
L 613.636907 140.240299 
L 613.918868 140.051771 
L 614.200828 138.326337 
L 614.482789 135.86625 
L 614.764749 135.400666 
L 615.04671 138.511942 
L 615.610631 153.722314 
L 616.738474 188.919252 
L 617.866316 220.723655 
L 618.994158 254.016 
L 619.276119 250.449871 
L 619.558079 229.505694 
L 620.403961 128.319119 
L 620.685922 112.752451 
L 621.249843 95.494589 
L 621.813764 84.139978 
L 622.377685 77.25802 
L 622.659646 77.29933 
L 623.223567 80.112423 
L 623.505528 79.465033 
L 623.787488 79.799368 
L 624.069449 82.32366 
L 624.915331 92.250583 
L 625.761212 107.817136 
L 626.043173 109.44365 
L 626.325133 111.817941 
L 626.607094 115.301932 
L 626.889055 117.049016 
L 627.171015 118.06561 
L 627.452976 120.509822 
L 628.016897 129.094823 
L 628.580818 135.692474 
L 629.70866 159.693888 
L 630.836503 181.667994 
L 632.810227 229.155751 
L 633.092188 223.802058 
L 633.092188 223.802058 
" clip-path="url(#p8d8b32f52a)" style="fill: none; stroke: #1f77b4; stroke-width: 1.5; stroke-linecap: square"/>
   </g>
   <g id="patch_3">
    <path d="M 47.192188 266.112 
L 47.192188 0 
" style="fill: none; stroke: #808080; stroke-width: 0.8; stroke-linejoin: miter; stroke-linecap: square"/>
   </g>
   <g id="patch_4">
    <path d="M 660.992188 266.112 
L 660.992188 0 
" style="fill: none; stroke: #000000; stroke-width: 0.8; stroke-linejoin: miter; stroke-linecap: square"/>
   </g>
   <g id="patch_5">
    <path d="M 47.192188 266.112 
L 660.992188 266.112 
" style="fill: none; stroke: #808080; stroke-width: 0.8; stroke-linejoin: miter; stroke-linecap: square"/>
   </g>
   <g id="patch_6">
    <path d="M 47.192188 0 
L 660.992188 0 
" style="fill: none; stroke: #000000; stroke-width: 0.8; stroke-linejoin: miter; stroke-linecap: square"/>
   </g>
  </g>
 </g>
 <defs>
  <clipPath id="p8d8b32f52a">
   <rect x="47.192188" y="0" width="613.8" height="266.112"/>
  </clipPath>
 </defs>
</svg>
