<?xml version="1.0" encoding="utf-8" standalone="no"?>
<!DOCTYPE svg PUBLIC "-//W3C//DTD SVG 1.1//EN"
  "http://www.w3.org/Graphics/SVG/1.1/DTD/svg11.dtd">
<svg xmlns:xlink="http://www.w3.org/1999/xlink" width="660.992188pt" height="285.143761pt" viewBox="0 0 660.992188 285.143761" xmlns="http://www.w3.org/2000/svg" version="1.1">
 <metadata>
  <rdf:RDF xmlns:dc="http://purl.org/dc/elements/1.1/" xmlns:cc="http://creativecommons.org/ns#" xmlns:rdf="http://www.w3.org/1999/02/22-rdf-syntax-ns#">
   <cc:Work>
    <dc:type rdf:resource="http://purl.org/dc/dcmitype/StillImage"/>
    <dc:date>2023-03-06T21:32:56.044330</dc:date>
    <dc:format>image/svg+xml</dc:format>
    <dc:creator>
     <cc:Agent>
      <dc:title>Matplotlib v3.6.3, https://matplotlib.org/</dc:title>
     </cc:Agent>
    </dc:creator>
   </cc:Work>
  </rdf:RDF>
 </metadata>
 <defs>
  <style type="text/css">*{stroke-linejoin: round; stroke-linecap: butt}</style>
 </defs>
 <g id="figure_1">
  <g id="patch_1">
   <path d="M -0 285.143761 
L 660.992188 285.143761 
L 660.992188 0 
L -0 0 
L -0 285.143761 
z
" style="fill: none"/>
  </g>
  <g id="axes_1">
   <g id="patch_2">
    <path d="M 47.192188 268.465636 
L 660.992188 268.465636 
L 660.992188 2.353636 
L 47.192188 2.353636 
L 47.192188 268.465636 
z
" style="fill: none"/>
   </g>
   <g id="matplotlib.axis_1">
    <g id="xtick_1">
     <g id="line2d_1">
      <defs>
       <path id="m7e3ff9661a" d="M 0 0 
L 0 3.5 
" style="stroke: #808080; stroke-width: 0.8"/>
      </defs>
      <g>
       <use xlink:href="#m7e3ff9661a" x="75.092188" y="268.465636" style="fill: #808080; stroke: #808080; stroke-width: 0.8"/>
      </g>
     </g>
     <g id="text_1">
      <!-- 0 -->
      <g style="fill: #808080" transform="translate(71.910938 283.064073) scale(0.1 -0.1)">
       <defs>
        <path id="DejaVuSans-30" d="M 2034 4250 
Q 1547 4250 1301 3770 
Q 1056 3291 1056 2328 
Q 1056 1369 1301 889 
Q 1547 409 2034 409 
Q 2525 409 2770 889 
Q 3016 1369 3016 2328 
Q 3016 3291 2770 3770 
Q 2525 4250 2034 4250 
z
M 2034 4750 
Q 2819 4750 3233 4129 
Q 3647 3509 3647 2328 
Q 3647 1150 3233 529 
Q 2819 -91 2034 -91 
Q 1250 -91 836 529 
Q 422 1150 422 2328 
Q 422 3509 836 4129 
Q 1250 4750 2034 4750 
z
" transform="scale(0.015625)"/>
       </defs>
       <use xlink:href="#DejaVuSans-30"/>
      </g>
     </g>
    </g>
    <g id="xtick_2">
     <g id="line2d_2">
      <g>
       <use xlink:href="#m7e3ff9661a" x="144.842188" y="268.465636" style="fill: #808080; stroke: #808080; stroke-width: 0.8"/>
      </g>
     </g>
     <g id="text_2">
      <!-- 500 -->
      <g style="fill: #808080" transform="translate(135.298438 283.064073) scale(0.1 -0.1)">
       <defs>
        <path id="DejaVuSans-35" d="M 691 4666 
L 3169 4666 
L 3169 4134 
L 1269 4134 
L 1269 2991 
Q 1406 3038 1543 3061 
Q 1681 3084 1819 3084 
Q 2600 3084 3056 2656 
Q 3513 2228 3513 1497 
Q 3513 744 3044 326 
Q 2575 -91 1722 -91 
Q 1428 -91 1123 -41 
Q 819 9 494 109 
L 494 744 
Q 775 591 1075 516 
Q 1375 441 1709 441 
Q 2250 441 2565 725 
Q 2881 1009 2881 1497 
Q 2881 1984 2565 2268 
Q 2250 2553 1709 2553 
Q 1456 2553 1204 2497 
Q 953 2441 691 2322 
L 691 4666 
z
" transform="scale(0.015625)"/>
       </defs>
       <use xlink:href="#DejaVuSans-35"/>
       <use xlink:href="#DejaVuSans-30" x="63.623047"/>
       <use xlink:href="#DejaVuSans-30" x="127.246094"/>
      </g>
     </g>
    </g>
    <g id="xtick_3">
     <g id="line2d_3">
      <g>
       <use xlink:href="#m7e3ff9661a" x="214.592188" y="268.465636" style="fill: #808080; stroke: #808080; stroke-width: 0.8"/>
      </g>
     </g>
     <g id="text_3">
      <!-- 1000 -->
      <g style="fill: #808080" transform="translate(201.867188 283.064073) scale(0.1 -0.1)">
       <defs>
        <path id="DejaVuSans-31" d="M 794 531 
L 1825 531 
L 1825 4091 
L 703 3866 
L 703 4441 
L 1819 4666 
L 2450 4666 
L 2450 531 
L 3481 531 
L 3481 0 
L 794 0 
L 794 531 
z
" transform="scale(0.015625)"/>
       </defs>
       <use xlink:href="#DejaVuSans-31"/>
       <use xlink:href="#DejaVuSans-30" x="63.623047"/>
       <use xlink:href="#DejaVuSans-30" x="127.246094"/>
       <use xlink:href="#DejaVuSans-30" x="190.869141"/>
      </g>
     </g>
    </g>
    <g id="xtick_4">
     <g id="line2d_4">
      <g>
       <use xlink:href="#m7e3ff9661a" x="284.342188" y="268.465636" style="fill: #808080; stroke: #808080; stroke-width: 0.8"/>
      </g>
     </g>
     <g id="text_4">
      <!-- 1500 -->
      <g style="fill: #808080" transform="translate(271.617188 283.064073) scale(0.1 -0.1)">
       <use xlink:href="#DejaVuSans-31"/>
       <use xlink:href="#DejaVuSans-35" x="63.623047"/>
       <use xlink:href="#DejaVuSans-30" x="127.246094"/>
       <use xlink:href="#DejaVuSans-30" x="190.869141"/>
      </g>
     </g>
    </g>
    <g id="xtick_5">
     <g id="line2d_5">
      <g>
       <use xlink:href="#m7e3ff9661a" x="354.092188" y="268.465636" style="fill: #808080; stroke: #808080; stroke-width: 0.8"/>
      </g>
     </g>
     <g id="text_5">
      <!-- 2000 -->
      <g style="fill: #808080" transform="translate(341.367188 283.064073) scale(0.1 -0.1)">
       <defs>
        <path id="DejaVuSans-32" d="M 1228 531 
L 3431 531 
L 3431 0 
L 469 0 
L 469 531 
Q 828 903 1448 1529 
Q 2069 2156 2228 2338 
Q 2531 2678 2651 2914 
Q 2772 3150 2772 3378 
Q 2772 3750 2511 3984 
Q 2250 4219 1831 4219 
Q 1534 4219 1204 4116 
Q 875 4013 500 3803 
L 500 4441 
Q 881 4594 1212 4672 
Q 1544 4750 1819 4750 
Q 2544 4750 2975 4387 
Q 3406 4025 3406 3419 
Q 3406 3131 3298 2873 
Q 3191 2616 2906 2266 
Q 2828 2175 2409 1742 
Q 1991 1309 1228 531 
z
" transform="scale(0.015625)"/>
       </defs>
       <use xlink:href="#DejaVuSans-32"/>
       <use xlink:href="#DejaVuSans-30" x="63.623047"/>
       <use xlink:href="#DejaVuSans-30" x="127.246094"/>
       <use xlink:href="#DejaVuSans-30" x="190.869141"/>
      </g>
     </g>
    </g>
    <g id="xtick_6">
     <g id="line2d_6">
      <g>
       <use xlink:href="#m7e3ff9661a" x="423.842188" y="268.465636" style="fill: #808080; stroke: #808080; stroke-width: 0.8"/>
      </g>
     </g>
     <g id="text_6">
      <!-- 2500 -->
      <g style="fill: #808080" transform="translate(411.117188 283.064073) scale(0.1 -0.1)">
       <use xlink:href="#DejaVuSans-32"/>
       <use xlink:href="#DejaVuSans-35" x="63.623047"/>
       <use xlink:href="#DejaVuSans-30" x="127.246094"/>
       <use xlink:href="#DejaVuSans-30" x="190.869141"/>
      </g>
     </g>
    </g>
    <g id="xtick_7">
     <g id="line2d_7">
      <g>
       <use xlink:href="#m7e3ff9661a" x="493.592188" y="268.465636" style="fill: #808080; stroke: #808080; stroke-width: 0.8"/>
      </g>
     </g>
     <g id="text_7">
      <!-- 3000 -->
      <g style="fill: #808080" transform="translate(480.867188 283.064073) scale(0.1 -0.1)">
       <defs>
        <path id="DejaVuSans-33" d="M 2597 2516 
Q 3050 2419 3304 2112 
Q 3559 1806 3559 1356 
Q 3559 666 3084 287 
Q 2609 -91 1734 -91 
Q 1441 -91 1130 -33 
Q 819 25 488 141 
L 488 750 
Q 750 597 1062 519 
Q 1375 441 1716 441 
Q 2309 441 2620 675 
Q 2931 909 2931 1356 
Q 2931 1769 2642 2001 
Q 2353 2234 1838 2234 
L 1294 2234 
L 1294 2753 
L 1863 2753 
Q 2328 2753 2575 2939 
Q 2822 3125 2822 3475 
Q 2822 3834 2567 4026 
Q 2313 4219 1838 4219 
Q 1578 4219 1281 4162 
Q 984 4106 628 3988 
L 628 4550 
Q 988 4650 1302 4700 
Q 1616 4750 1894 4750 
Q 2613 4750 3031 4423 
Q 3450 4097 3450 3541 
Q 3450 3153 3228 2886 
Q 3006 2619 2597 2516 
z
" transform="scale(0.015625)"/>
       </defs>
       <use xlink:href="#DejaVuSans-33"/>
       <use xlink:href="#DejaVuSans-30" x="63.623047"/>
       <use xlink:href="#DejaVuSans-30" x="127.246094"/>
       <use xlink:href="#DejaVuSans-30" x="190.869141"/>
      </g>
     </g>
    </g>
    <g id="xtick_8">
     <g id="line2d_8">
      <g>
       <use xlink:href="#m7e3ff9661a" x="563.342188" y="268.465636" style="fill: #808080; stroke: #808080; stroke-width: 0.8"/>
      </g>
     </g>
     <g id="text_8">
      <!-- 3500 -->
      <g style="fill: #808080" transform="translate(550.617188 283.064073) scale(0.1 -0.1)">
       <use xlink:href="#DejaVuSans-33"/>
       <use xlink:href="#DejaVuSans-35" x="63.623047"/>
       <use xlink:href="#DejaVuSans-30" x="127.246094"/>
       <use xlink:href="#DejaVuSans-30" x="190.869141"/>
      </g>
     </g>
    </g>
    <g id="xtick_9">
     <g id="line2d_9">
      <g>
       <use xlink:href="#m7e3ff9661a" x="633.092188" y="268.465636" style="fill: #808080; stroke: #808080; stroke-width: 0.8"/>
      </g>
     </g>
     <g id="text_9">
      <!-- 4000 -->
      <g style="fill: #808080" transform="translate(620.367188 283.064073) scale(0.1 -0.1)">
       <defs>
        <path id="DejaVuSans-34" d="M 2419 4116 
L 825 1625 
L 2419 1625 
L 2419 4116 
z
M 2253 4666 
L 3047 4666 
L 3047 1625 
L 3713 1625 
L 3713 1100 
L 3047 1100 
L 3047 0 
L 2419 0 
L 2419 1100 
L 313 1100 
L 313 1709 
L 2253 4666 
z
" transform="scale(0.015625)"/>
       </defs>
       <use xlink:href="#DejaVuSans-34"/>
       <use xlink:href="#DejaVuSans-30" x="63.623047"/>
       <use xlink:href="#DejaVuSans-30" x="127.246094"/>
       <use xlink:href="#DejaVuSans-30" x="190.869141"/>
      </g>
     </g>
    </g>
   </g>
   <g id="matplotlib.axis_2">
    <g id="ytick_1">
     <g id="line2d_10">
      <defs>
       <path id="mdc05b02887" d="M 0 0 
L -3.5 0 
" style="stroke: #808080; stroke-width: 0.8"/>
      </defs>
      <g>
       <use xlink:href="#mdc05b02887" x="47.192188" y="266.010167" style="fill: #808080; stroke: #808080; stroke-width: 0.8"/>
      </g>
     </g>
     <g id="text_10">
      <!-- −30000 -->
      <g style="fill: #808080" transform="translate(0 269.809386) scale(0.1 -0.1)">
       <defs>
        <path id="DejaVuSans-2212" d="M 678 2272 
L 4684 2272 
L 4684 1741 
L 678 1741 
L 678 2272 
z
" transform="scale(0.015625)"/>
       </defs>
       <use xlink:href="#DejaVuSans-2212"/>
       <use xlink:href="#DejaVuSans-33" x="83.789062"/>
       <use xlink:href="#DejaVuSans-30" x="147.412109"/>
       <use xlink:href="#DejaVuSans-30" x="211.035156"/>
       <use xlink:href="#DejaVuSans-30" x="274.658203"/>
       <use xlink:href="#DejaVuSans-30" x="338.28125"/>
      </g>
     </g>
    </g>
    <g id="ytick_2">
     <g id="line2d_11">
      <g>
       <use xlink:href="#mdc05b02887" x="47.192188" y="228.55146" style="fill: #808080; stroke: #808080; stroke-width: 0.8"/>
      </g>
     </g>
     <g id="text_11">
      <!-- −20000 -->
      <g style="fill: #808080" transform="translate(0 232.350679) scale(0.1 -0.1)">
       <use xlink:href="#DejaVuSans-2212"/>
       <use xlink:href="#DejaVuSans-32" x="83.789062"/>
       <use xlink:href="#DejaVuSans-30" x="147.412109"/>
       <use xlink:href="#DejaVuSans-30" x="211.035156"/>
       <use xlink:href="#DejaVuSans-30" x="274.658203"/>
       <use xlink:href="#DejaVuSans-30" x="338.28125"/>
      </g>
     </g>
    </g>
    <g id="ytick_3">
     <g id="line2d_12">
      <g>
       <use xlink:href="#mdc05b02887" x="47.192188" y="191.092753" style="fill: #808080; stroke: #808080; stroke-width: 0.8"/>
      </g>
     </g>
     <g id="text_12">
      <!-- −10000 -->
      <g style="fill: #808080" transform="translate(0 194.891972) scale(0.1 -0.1)">
       <use xlink:href="#DejaVuSans-2212"/>
       <use xlink:href="#DejaVuSans-31" x="83.789062"/>
       <use xlink:href="#DejaVuSans-30" x="147.412109"/>
       <use xlink:href="#DejaVuSans-30" x="211.035156"/>
       <use xlink:href="#DejaVuSans-30" x="274.658203"/>
       <use xlink:href="#DejaVuSans-30" x="338.28125"/>
      </g>
     </g>
    </g>
    <g id="ytick_4">
     <g id="line2d_13">
      <g>
       <use xlink:href="#mdc05b02887" x="47.192188" y="153.634046" style="fill: #808080; stroke: #808080; stroke-width: 0.8"/>
      </g>
     </g>
     <g id="text_13">
      <!-- 0 -->
      <g style="fill: #808080" transform="translate(33.829688 157.433265) scale(0.1 -0.1)">
       <use xlink:href="#DejaVuSans-30"/>
      </g>
     </g>
    </g>
    <g id="ytick_5">
     <g id="line2d_14">
      <g>
       <use xlink:href="#mdc05b02887" x="47.192188" y="116.175339" style="fill: #808080; stroke: #808080; stroke-width: 0.8"/>
      </g>
     </g>
     <g id="text_14">
      <!-- 10000 -->
      <g style="fill: #808080" transform="translate(8.379688 119.974558) scale(0.1 -0.1)">
       <use xlink:href="#DejaVuSans-31"/>
       <use xlink:href="#DejaVuSans-30" x="63.623047"/>
       <use xlink:href="#DejaVuSans-30" x="127.246094"/>
       <use xlink:href="#DejaVuSans-30" x="190.869141"/>
       <use xlink:href="#DejaVuSans-30" x="254.492188"/>
      </g>
     </g>
    </g>
    <g id="ytick_6">
     <g id="line2d_15">
      <g>
       <use xlink:href="#mdc05b02887" x="47.192188" y="78.716632" style="fill: #808080; stroke: #808080; stroke-width: 0.8"/>
      </g>
     </g>
     <g id="text_15">
      <!-- 20000 -->
      <g style="fill: #808080" transform="translate(8.379688 82.515851) scale(0.1 -0.1)">
       <use xlink:href="#DejaVuSans-32"/>
       <use xlink:href="#DejaVuSans-30" x="63.623047"/>
       <use xlink:href="#DejaVuSans-30" x="127.246094"/>
       <use xlink:href="#DejaVuSans-30" x="190.869141"/>
       <use xlink:href="#DejaVuSans-30" x="254.492188"/>
      </g>
     </g>
    </g>
    <g id="ytick_7">
     <g id="line2d_16">
      <g>
       <use xlink:href="#mdc05b02887" x="47.192188" y="41.257926" style="fill: #808080; stroke: #808080; stroke-width: 0.8"/>
      </g>
     </g>
     <g id="text_16">
      <!-- 30000 -->
      <g style="fill: #808080" transform="translate(8.379688 45.057144) scale(0.1 -0.1)">
       <use xlink:href="#DejaVuSans-33"/>
       <use xlink:href="#DejaVuSans-30" x="63.623047"/>
       <use xlink:href="#DejaVuSans-30" x="127.246094"/>
       <use xlink:href="#DejaVuSans-30" x="190.869141"/>
       <use xlink:href="#DejaVuSans-30" x="254.492188"/>
      </g>
     </g>
    </g>
    <g id="ytick_8">
     <g id="line2d_17">
      <g>
       <use xlink:href="#mdc05b02887" x="47.192188" y="3.799219" style="fill: #808080; stroke: #808080; stroke-width: 0.8"/>
      </g>
     </g>
     <g id="text_17">
      <!-- 40000 -->
      <g style="fill: #808080" transform="translate(8.379688 7.598438) scale(0.1 -0.1)">
       <use xlink:href="#DejaVuSans-34"/>
       <use xlink:href="#DejaVuSans-30" x="63.623047"/>
       <use xlink:href="#DejaVuSans-30" x="127.246094"/>
       <use xlink:href="#DejaVuSans-30" x="190.869141"/>
       <use xlink:href="#DejaVuSans-30" x="254.492188"/>
      </g>
     </g>
    </g>
   </g>
   <g id="line2d_18">
    <path d="M 75.092188 153.645005 
L 76.50199 153.622487 
L 77.911793 153.646569 
L 79.321596 153.620129 
L 80.167478 153.649069 
L 81.01336 153.617646 
L 81.859242 153.652186 
L 82.705123 153.613662 
L 83.551005 153.657415 
L 84.396887 153.60654 
L 84.678847 153.663307 
L 84.960808 153.602776 
L 85.242769 153.66764 
L 85.524729 153.597736 
L 85.80669 153.673573 
L 86.08865 153.590652 
L 86.370611 153.682176 
L 86.652572 153.579986 
L 86.934532 153.695743 
L 87.216493 153.562154 
L 87.498453 153.720218 
L 87.780414 153.526492 
L 88.062374 153.776968 
L 88.344335 153.422244 
L 88.626296 154.030766 
L 88.908256 151.708252 
L 89.190217 148.458286 
L 90.036099 157.57318 
L 90.318059 157.864374 
L 90.88198 159.754845 
L 91.163941 159.463368 
L 91.445901 158.527096 
L 91.727862 158.856593 
L 92.009823 159.564307 
L 92.291783 159.929587 
L 92.855704 159.68752 
L 93.137665 159.744934 
L 93.983547 161.930524 
L 94.265507 162.190321 
L 94.829429 164.655374 
L 95.111389 165.007091 
L 95.39335 165.173716 
L 95.957271 166.669952 
L 96.239231 166.655189 
L 96.521192 165.929978 
L 96.803153 163.429763 
L 98.212956 138.585119 
L 98.494916 137.110452 
L 99.622758 140.409635 
L 99.904719 140.708349 
L 100.18668 140.039575 
L 101.032561 136.360171 
L 101.314522 136.418643 
L 101.596483 137.606258 
L 101.878443 139.499565 
L 102.160404 143.216211 
L 102.724325 155.199282 
L 103.006286 156.967737 
L 103.288246 155.969278 
L 103.570207 155.486556 
L 104.416088 156.996201 
L 104.698049 157.060835 
L 106.107852 154.406361 
L 106.389813 154.948034 
L 106.953734 158.457804 
L 107.235694 158.078254 
L 107.517655 157.455741 
L 107.799615 158.413835 
L 108.081576 159.787069 
L 108.363537 159.501731 
L 108.645497 158.396412 
L 108.927458 158.314701 
L 109.209418 159.045916 
L 109.491379 159.298322 
L 109.77334 159.164379 
L 110.0553 159.202162 
L 110.619221 159.615201 
L 110.901182 159.677678 
L 111.183143 159.256474 
L 111.465103 158.625208 
L 111.747064 158.520487 
L 112.029024 159.212297 
L 112.592945 161.660483 
L 112.874906 161.871389 
L 113.156867 160.256872 
L 113.438827 157.974456 
L 113.720788 156.971942 
L 114.002748 157.415194 
L 114.284709 158.727645 
L 114.84863 162.998912 
L 115.130591 162.929621 
L 115.412551 160.97358 
L 115.694512 159.997771 
L 115.976472 160.918003 
L 116.258433 161.452912 
L 116.540394 160.950283 
L 116.822354 161.789346 
L 117.104315 164.678063 
L 117.386275 166.114794 
L 117.668236 163.242063 
L 119.078039 134.144323 
L 119.36 133.016123 
L 119.64196 133.827865 
L 119.923921 134.145306 
L 120.205881 134.642303 
L 121.051763 140.742862 
L 121.333724 139.921729 
L 121.615684 138.638848 
L 121.897645 138.029314 
L 122.179605 138.054193 
L 122.461566 138.388653 
L 122.743527 140.209926 
L 123.025487 145.195567 
L 123.589408 157.467477 
L 123.871369 159.037261 
L 124.717251 157.724532 
L 125.281172 155.823199 
L 125.563132 154.683349 
L 125.845093 154.125767 
L 126.127054 154.242111 
L 126.690975 153.979102 
L 127.254896 155.892325 
L 127.818817 155.823651 
L 128.382738 159.328042 
L 128.664699 158.490001 
L 128.946659 156.533409 
L 129.510581 155.539249 
L 130.074502 151.337189 
L 130.356462 151.244868 
L 130.638423 152.254599 
L 130.920384 152.098331 
L 131.202344 151.404615 
L 131.484305 152.624557 
L 132.048226 158.68205 
L 132.330186 159.030042 
L 132.894108 157.199647 
L 133.176068 157.665126 
L 133.739989 159.372422 
L 134.02195 159.722294 
L 134.303911 160.620102 
L 134.585871 161.958664 
L 134.867832 162.545736 
L 135.149792 162.618901 
L 135.713714 163.805284 
L 135.995674 162.808911 
L 136.277635 162.378087 
L 136.841556 166.170092 
L 137.123516 165.414836 
L 137.405477 164.317213 
L 137.687438 164.6439 
L 137.969398 163.951295 
L 138.251359 160.241949 
L 138.81528 146.454219 
L 139.379201 130.343077 
L 139.661162 128.884208 
L 140.225083 132.688886 
L 140.789004 138.648464 
L 141.070965 139.237373 
L 141.352925 138.502848 
L 141.634886 138.482267 
L 141.916846 138.045515 
L 142.198807 136.414836 
L 142.480768 136.026915 
L 143.044689 139.20337 
L 143.326649 141.636885 
L 143.890571 152.904363 
L 144.172531 155.14171 
L 144.454492 154.926798 
L 145.018413 155.612528 
L 145.300373 155.480031 
L 145.582334 156.087402 
L 145.864295 156.252828 
L 146.146255 153.209325 
L 146.428216 148.844348 
L 146.710176 147.515752 
L 146.992137 148.781943 
L 147.556058 149.781882 
L 148.119979 155.28736 
L 148.40194 156.058133 
L 148.6839 155.411315 
L 148.965861 155.118211 
L 149.247822 154.645348 
L 149.529782 153.450042 
L 149.811743 152.882579 
L 150.375664 153.999788 
L 150.657625 153.798586 
L 150.939585 153.990913 
L 151.221546 154.833741 
L 151.503506 155.276912 
L 151.785467 155.097721 
L 152.067428 155.228227 
L 152.631349 156.670167 
L 153.19527 158.667768 
L 153.47723 158.754193 
L 153.759191 157.724065 
L 154.041152 157.525482 
L 154.887033 163.177827 
L 155.450955 163.906388 
L 157.142718 166.99032 
L 157.424679 168.002976 
L 157.706639 167.884102 
L 157.9886 165.33224 
L 158.27056 160.239136 
L 159.398403 132.004536 
L 159.680363 129.981092 
L 159.962324 130.696107 
L 160.526245 135.434547 
L 160.808206 135.85219 
L 161.372127 133.492856 
L 162.218009 128.630135 
L 162.499969 129.28994 
L 162.78193 132.604477 
L 163.345851 142.625985 
L 164.191733 159.189677 
L 164.473693 157.262828 
L 164.755654 153.06644 
L 165.037614 151.634305 
L 165.319575 153.083891 
L 165.601536 153.902928 
L 166.165457 152.533609 
L 166.447417 152.235344 
L 166.729378 151.388695 
L 167.011339 151.290788 
L 167.85722 156.88784 
L 168.421142 157.702755 
L 168.703102 157.397332 
L 168.985063 156.228155 
L 169.267023 155.838478 
L 169.548984 156.501602 
L 169.830944 156.745504 
L 170.112905 156.277875 
L 170.394866 156.19682 
L 170.958787 157.669743 
L 171.240747 157.855006 
L 171.804669 157.132412 
L 172.086629 157.772359 
L 172.36859 158.732379 
L 172.65055 158.925303 
L 172.932511 158.494899 
L 173.214471 158.313289 
L 174.060353 159.180312 
L 174.342314 158.885113 
L 174.624274 159.30461 
L 175.470156 166.461479 
L 175.752117 166.630146 
L 176.034077 167.048723 
L 176.316038 167.811435 
L 176.879959 168.332772 
L 177.44388 169.192797 
L 177.725841 169.145299 
L 178.007801 168.516167 
L 178.289762 165.840156 
L 178.853683 153.684469 
L 179.981526 126.754472 
L 180.263486 124.513484 
L 180.545447 125.273542 
L 181.391328 135.507933 
L 181.673289 135.182094 
L 181.95525 133.700975 
L 182.801131 125.351251 
L 183.083092 126.379095 
L 183.365053 128.457871 
L 183.647013 132.347591 
L 184.492895 157.891405 
L 184.774856 159.846518 
L 185.056816 158.916905 
L 185.620737 155.087432 
L 185.902698 154.996117 
L 186.184658 155.873647 
L 186.466619 156.10559 
L 186.74858 156.107081 
L 187.312501 157.235098 
L 187.594461 158.299064 
L 187.876422 160.315303 
L 188.158383 160.526862 
L 188.722304 153.092387 
L 189.004264 152.768643 
L 189.286225 152.952159 
L 189.568185 150.856528 
L 189.850146 150.408183 
L 190.414067 159.11188 
L 190.696028 159.576548 
L 190.977988 158.844117 
L 191.259949 160.001492 
L 191.54191 160.547021 
L 192.105831 155.683078 
L 192.387791 155.792284 
L 192.669752 156.746078 
L 192.951713 156.160055 
L 193.233673 155.293444 
L 193.515634 156.698727 
L 194.079555 163.290383 
L 194.361515 164.636743 
L 194.643476 165.321012 
L 195.207397 167.414891 
L 195.489358 166.60376 
L 195.771318 164.903052 
L 196.053279 164.451155 
L 196.6172 166.678879 
L 196.899161 167.03056 
L 197.181121 167.808908 
L 198.027003 173.034478 
L 198.590924 175.011846 
L 198.872885 173.166889 
L 199.154845 165.836214 
L 200.282688 123.880361 
L 200.564648 118.573374 
L 200.846609 119.307004 
L 201.692491 134.711365 
L 201.974451 136.139997 
L 202.256412 135.687522 
L 202.538372 133.476767 
L 203.102294 126.887648 
L 203.384254 125.520495 
L 203.666215 125.538956 
L 203.948175 127.185295 
L 204.230136 133.329025 
L 204.794057 157.400774 
L 205.076018 163.421521 
L 205.357978 163.327591 
L 205.639939 162.251847 
L 205.921899 162.395495 
L 206.20386 162.11305 
L 207.049742 157.220415 
L 207.331702 156.735378 
L 207.613663 157.934803 
L 207.895624 159.852324 
L 208.177584 160.955667 
L 208.741505 161.699765 
L 209.023466 161.310485 
L 209.587387 159.046686 
L 209.869348 158.525722 
L 210.151308 157.638333 
L 210.715229 155.25974 
L 210.99719 154.741907 
L 211.279151 155.024735 
L 211.843072 156.936772 
L 212.125032 157.023992 
L 212.406993 157.613076 
L 212.688954 159.058205 
L 212.970914 159.738383 
L 213.252875 159.366802 
L 213.534835 159.835453 
L 213.816796 161.443496 
L 214.098756 162.316091 
L 214.380717 162.046729 
L 214.662678 162.210618 
L 216.072481 168.19509 
L 216.354441 170.149484 
L 216.636402 170.961026 
L 216.918362 170.695253 
L 217.200323 171.042722 
L 217.764244 174.545962 
L 218.046205 175.127545 
L 218.610126 175.619427 
L 218.892086 173.42347 
L 219.174047 167.249926 
L 219.737968 147.021726 
L 220.301889 125.310085 
L 220.58385 119.129668 
L 220.865811 117.005731 
L 221.147771 117.506944 
L 221.429732 119.881158 
L 221.993653 125.514498 
L 222.275613 124.772863 
L 222.839535 119.33486 
L 223.121495 117.840519 
L 223.403456 117.119849 
L 223.685416 117.167411 
L 223.967377 119.392098 
L 224.249338 126.028904 
L 225.095219 162.384337 
L 225.37718 165.858618 
L 225.941101 162.658542 
L 226.505022 162.255486 
L 227.350904 158.170661 
L 227.914825 154.854729 
L 228.196786 154.794243 
L 229.042668 157.797417 
L 229.606589 160.980011 
L 229.888549 161.285281 
L 230.17051 160.659468 
L 231.016392 157.256406 
L 231.298352 157.212224 
L 231.862273 158.123749 
L 232.990116 161.495937 
L 233.554037 162.842715 
L 233.835998 164.3066 
L 234.399919 169.087083 
L 234.681879 169.062153 
L 234.96384 168.653427 
L 235.2458 169.518034 
L 236.091682 173.213713 
L 236.655603 178.399294 
L 237.219525 179.846684 
L 237.501485 181.685037 
L 238.065406 186.192908 
L 238.347367 187.018267 
L 238.629327 187.429 
L 238.911288 186.89799 
L 239.193249 182.605254 
L 239.475209 172.403966 
L 240.603052 117.217795 
L 240.885012 108.49189 
L 241.166973 104.012628 
L 241.448933 102.480509 
L 241.730894 102.46807 
L 242.294815 105.208122 
L 242.576776 105.232591 
L 242.858736 103.344815 
L 243.422657 97.911376 
L 243.704618 97.314261 
L 243.986579 99.836351 
L 244.268539 105.348091 
L 244.5505 115.02257 
L 245.396382 167.103811 
L 245.678342 173.330632 
L 245.960303 173.476385 
L 246.242263 172.006899 
L 247.370106 162.998943 
L 247.652066 159.069051 
L 247.934027 156.750947 
L 248.497948 159.453597 
L 248.779909 158.767383 
L 249.061869 158.392727 
L 249.62579 161.935361 
L 249.907751 161.917477 
L 250.189712 162.55243 
L 250.471672 164.865593 
L 250.753633 165.939327 
L 251.317554 162.777975 
L 251.881475 164.076044 
L 252.445396 160.159059 
L 252.727357 160.346176 
L 253.009317 162.096217 
L 253.291278 162.96513 
L 253.573239 162.954506 
L 253.855199 163.911233 
L 254.41912 168.441851 
L 254.701081 169.698014 
L 254.983041 170.346045 
L 255.265002 170.521595 
L 255.546963 170.199535 
L 255.828923 170.501003 
L 256.674805 175.776336 
L 256.956766 176.436702 
L 257.520687 180.020152 
L 257.802647 179.297455 
L 258.084608 178.173934 
L 258.366569 179.878253 
L 258.648529 183.259433 
L 258.93049 185.008753 
L 259.21245 185.552821 
L 259.494411 187.14211 
L 259.776371 187.609704 
L 260.058332 182.043687 
L 260.904214 141.349842 
L 261.468135 111.850059 
L 261.750096 102.098402 
L 262.032056 98.343802 
L 262.314017 98.243863 
L 262.595977 99.265376 
L 262.877938 99.695719 
L 263.159898 98.007026 
L 263.72382 92.504481 
L 264.00578 92.510913 
L 264.287741 92.906321 
L 264.569701 93.668333 
L 264.851662 97.965593 
L 265.133623 107.800003 
L 265.697544 140.174937 
L 266.261465 172.127015 
L 266.543425 176.529558 
L 266.825386 174.432698 
L 267.389307 169.443948 
L 267.953228 163.950943 
L 268.235189 161.484548 
L 268.51715 161.095523 
L 269.081071 163.27213 
L 269.363031 163.728813 
L 269.644992 164.827772 
L 269.926953 166.488446 
L 270.208913 167.004588 
L 270.772834 165.823618 
L 271.054795 165.595109 
L 271.336755 164.837066 
L 271.618716 164.512956 
L 271.900677 165.132039 
L 272.182637 165.219834 
L 272.464598 164.772232 
L 272.746558 165.681032 
L 273.028519 167.367114 
L 273.31048 167.51285 
L 273.59244 166.780633 
L 273.874401 167.208087 
L 274.156361 168.05141 
L 274.438322 167.794345 
L 274.720282 167.208396 
L 275.002243 167.288066 
L 275.566164 167.899751 
L 276.130085 168.129435 
L 276.412046 168.915816 
L 277.821849 179.489256 
L 278.38577 180.699292 
L 279.231652 186.383879 
L 279.795573 193.740158 
L 280.077534 193.401611 
L 280.359494 186.38489 
L 280.923415 160.377496 
L 281.769297 113.537213 
L 282.333218 95.010209 
L 282.615179 90.499289 
L 282.897139 90.09866 
L 283.1791 90.109311 
L 283.743021 86.763126 
L 284.024982 86.989297 
L 284.306942 87.060758 
L 284.588903 86.542104 
L 284.870864 88.654071 
L 285.152824 95.250966 
L 285.716745 118.522033 
L 286.562627 175.100207 
L 286.844588 179.687022 
L 287.126548 179.237863 
L 287.408509 177.823673 
L 287.690469 173.904546 
L 288.254391 163.890653 
L 288.818312 161.805668 
L 289.100272 160.400472 
L 289.382233 160.956539 
L 289.946154 165.637193 
L 290.228115 167.145071 
L 290.510075 167.79562 
L 290.792036 167.406323 
L 291.073996 166.769209 
L 291.355957 166.455639 
L 291.919878 165.232418 
L 292.201839 165.922049 
L 292.483799 167.015737 
L 292.76576 166.578562 
L 293.047721 165.299829 
L 293.329681 165.03407 
L 293.611642 165.313958 
L 294.175563 164.385134 
L 294.457524 164.739367 
L 295.303405 167.413058 
L 295.585366 167.662828 
L 295.867326 168.286203 
L 296.431248 171.496818 
L 296.995169 176.728056 
L 297.55909 182.461467 
L 298.968893 194.377358 
L 299.814775 203.757311 
L 300.096735 208.259198 
L 300.378696 209.115963 
L 300.660656 205.307771 
L 300.942617 198.081211 
L 301.224578 185.833485 
L 302.634381 94.237497 
L 303.198302 74.947738 
L 303.762223 65.294452 
L 304.044183 64.67787 
L 304.326144 65.350557 
L 304.608105 64.128836 
L 304.890065 61.576458 
L 305.172026 60.699527 
L 305.453986 62.704459 
L 305.735947 67.050541 
L 306.017908 74.314758 
L 306.299868 86.544971 
L 307.709671 173.700687 
L 307.991632 183.037172 
L 308.273592 186.473808 
L 308.555553 187.350513 
L 308.837513 188.900464 
L 309.119474 189.178812 
L 309.965356 180.281108 
L 310.247316 179.98259 
L 310.529277 177.289587 
L 310.811238 173.176691 
L 311.093198 170.716989 
L 311.375159 169.802831 
L 311.93908 166.836064 
L 312.22104 166.294054 
L 312.503001 166.229354 
L 313.066922 164.523355 
L 313.630843 164.634736 
L 313.912804 163.924621 
L 314.194765 163.582969 
L 314.758686 165.275836 
L 315.040646 165.329323 
L 315.322607 165.971115 
L 315.886528 169.741171 
L 316.168489 170.288826 
L 316.450449 170.53976 
L 316.73241 171.534018 
L 317.296331 174.755152 
L 318.142213 181.205072 
L 318.988095 188.350481 
L 319.833976 193.797951 
L 320.115937 196.431208 
L 321.243779 210.625137 
L 321.52574 211.383306 
L 321.8077 207.115836 
L 322.089661 196.037798 
L 322.653582 161.298272 
L 323.499464 99.916841 
L 324.063385 75.02753 
L 324.345346 68.893518 
L 324.627306 67.673115 
L 324.909267 68.609952 
L 325.191227 67.944308 
L 326.037109 60.447137 
L 326.31907 59.677347 
L 326.60103 59.589643 
L 326.882991 62.29586 
L 327.164952 70.629278 
L 327.728873 102.337464 
L 328.574754 149.93084 
L 329.138676 175.700346 
L 329.420636 183.317817 
L 329.702597 184.816067 
L 330.266518 182.893567 
L 330.548479 180.267763 
L 330.830439 176.461504 
L 331.958281 167.056367 
L 332.522203 168.308172 
L 333.086124 163.234104 
L 333.368084 165.392756 
L 333.650045 168.799112 
L 333.932006 169.890944 
L 334.213966 169.906424 
L 334.495927 170.737503 
L 335.059848 173.53961 
L 335.623769 177.060801 
L 335.90573 177.054678 
L 336.18769 176.786087 
L 336.751611 177.603565 
L 337.315533 176.705484 
L 337.597493 176.6448 
L 337.879454 177.306768 
L 339.007296 184.018097 
L 339.853178 190.414962 
L 340.135138 190.462581 
L 340.417099 191.852647 
L 341.262981 201.473133 
L 342.108863 216.913246 
L 342.390823 216.187103 
L 342.672784 209.183426 
L 343.236705 178.918162 
L 344.646508 79.418035 
L 344.928468 69.355129 
L 345.210429 66.036431 
L 345.49239 66.014483 
L 345.77435 65.198566 
L 346.338271 60.345065 
L 346.902193 54.093869 
L 347.184153 52.634611 
L 347.466114 53.042913 
L 347.748074 57.036301 
L 348.030035 67.891797 
L 349.439838 148.386647 
L 350.003759 166.368439 
L 350.56768 175.459347 
L 350.849641 176.336033 
L 351.131601 175.515112 
L 351.413562 175.526216 
L 351.695523 176.5359 
L 351.977483 176.889767 
L 352.823365 174.394113 
L 353.105325 174.098109 
L 353.387286 174.084027 
L 353.669247 174.414707 
L 354.233168 175.480611 
L 354.515128 175.51337 
L 355.07905 174.644098 
L 355.36101 175.142613 
L 355.642971 175.923494 
L 355.924931 175.8551 
L 356.206892 175.257269 
L 356.488852 175.651239 
L 356.770813 177.262744 
L 357.052774 178.154799 
L 357.334734 176.624021 
L 357.616695 174.201498 
L 357.898655 174.610948 
L 358.744537 185.473155 
L 359.026498 188.983065 
L 359.590419 201.935523 
L 359.87238 205.119454 
L 360.15434 206.927581 
L 360.718261 213.799817 
L 361.564143 226.362231 
L 362.128064 233.497111 
L 362.410025 233.245987 
L 362.691985 227.903864 
L 362.973946 215.781128 
L 363.537867 173.138467 
L 364.383749 102.137003 
L 364.665709 87.520618 
L 364.94767 81.269422 
L 365.229631 79.081302 
L 365.511591 75.754546 
L 366.357473 59.755891 
L 367.203355 38.260878 
L 367.767276 21.020017 
L 368.049237 23.832237 
L 368.895118 58.549399 
L 371.150803 176.751325 
L 371.432764 186.164386 
L 371.714724 189.843874 
L 371.996685 191.715957 
L 372.278645 194.876578 
L 372.560606 195.804706 
L 373.406488 184.416108 
L 373.688448 182.112228 
L 373.970409 178.082019 
L 374.252369 175.647281 
L 374.53433 176.341908 
L 374.816291 176.590855 
L 375.098251 175.056036 
L 375.380212 175.464577 
L 375.662172 178.909075 
L 375.944133 180.977218 
L 376.508054 177.510488 
L 376.790015 177.755004 
L 377.071975 178.172088 
L 377.353936 177.228733 
L 377.635896 176.696723 
L 377.917857 178.40067 
L 379.891581 202.446805 
L 380.737463 211.951389 
L 381.301384 220.507349 
L 381.865305 226.632627 
L 382.993148 243.355869 
L 383.275108 240.728874 
L 383.557069 228.674081 
L 384.12099 185.711709 
L 384.966872 104.266414 
L 385.248832 89.317951 
L 386.376675 62.420602 
L 386.940596 37.665179 
L 387.222556 25.586338 
L 387.504517 19.043252 
L 387.786478 15.786106 
L 388.068438 14.449636 
L 388.350399 18.229754 
L 388.91432 40.941745 
L 389.760202 85.718724 
L 391.451965 166.634399 
L 392.015886 180.5467 
L 392.297847 183.589475 
L 392.579808 184.413261 
L 392.861768 184.650291 
L 393.143729 184.185201 
L 394.271571 177.213276 
L 394.553532 174.781582 
L 394.835492 174.334313 
L 395.117453 175.998578 
L 395.399413 176.622467 
L 395.963335 173.33019 
L 396.245295 174.200864 
L 397.091177 182.652431 
L 398.219019 187.718405 
L 398.50098 187.497965 
L 398.78294 188.260755 
L 399.346862 196.820737 
L 399.628822 198.167547 
L 399.910783 198.254965 
L 400.192743 200.354314 
L 400.756665 206.88037 
L 401.884507 217.119118 
L 403.29431 240.662622 
L 403.57627 241.660135 
L 403.858231 239.642241 
L 404.140192 231.270513 
L 404.422152 211.972241 
L 405.549994 103.621958 
L 405.831955 86.838784 
L 406.677837 62.411117 
L 407.241758 36.619503 
L 407.805679 24.672039 
L 408.08764 22.245024 
L 408.3696 21.438478 
L 408.651561 21.43685 
L 408.933522 24.676974 
L 409.215482 34.879984 
L 410.625285 108.653213 
L 412.035088 164.220686 
L 412.599009 175.995653 
L 412.88097 178.469059 
L 413.16293 178.986695 
L 413.444891 178.559059 
L 413.726851 176.512749 
L 414.290773 170.088014 
L 414.572733 170.661621 
L 415.136654 177.920361 
L 415.418615 179.413945 
L 415.700576 179.270898 
L 415.982536 180.485199 
L 416.546457 185.602945 
L 416.828418 184.878887 
L 417.110379 184.512943 
L 417.95626 192.058605 
L 418.802142 199.776603 
L 419.084103 199.656516 
L 419.366063 198.759996 
L 419.648024 198.268981 
L 419.929984 199.127994 
L 420.211945 202.848947 
L 420.775866 215.279513 
L 423.313511 249.234918 
L 423.595472 245.542379 
L 423.877433 231.546219 
L 424.441354 181.246954 
L 425.287236 97.128022 
L 426.133117 58.313961 
L 426.697038 38.815157 
L 427.26096 30.6316 
L 427.54292 29.614562 
L 428.388802 35.843019 
L 428.670763 40.448294 
L 429.234684 60.064937 
L 430.926447 122.044225 
L 431.490368 135.849646 
L 431.772329 139.943296 
L 432.05429 140.582774 
L 432.33625 141.637793 
L 432.900171 149.086658 
L 433.182132 149.98377 
L 433.464093 152.084278 
L 434.309974 170.584413 
L 434.591935 173.81557 
L 435.719777 192.265884 
L 436.001738 194.687169 
L 436.283698 195.917149 
L 436.565659 196.648972 
L 437.12958 199.473747 
L 437.411541 200.027393 
L 437.693501 200.930504 
L 437.975462 202.956657 
L 438.257422 204.053892 
L 438.539383 202.553927 
L 438.821344 200.223935 
L 439.103304 199.238616 
L 439.667225 198.566255 
L 439.949186 199.594796 
L 440.231147 203.384397 
L 441.64095 228.347626 
L 442.768792 247.901425 
L 443.050752 253.770925 
L 443.332713 256.369636 
L 443.614674 250.802798 
L 443.896634 236.449623 
L 444.460555 184.559944 
L 445.024477 117.188519 
L 445.588398 76.974218 
L 446.152319 52.618888 
L 446.71624 43.820275 
L 446.998201 40.640476 
L 447.280161 39.32061 
L 447.562122 39.481897 
L 447.844082 40.182281 
L 448.126043 42.805408 
L 448.971925 59.625233 
L 450.663688 115.729673 
L 450.945649 120.653548 
L 451.50957 124.980775 
L 451.791531 125.803882 
L 452.073491 125.017165 
L 452.355452 123.203495 
L 452.637412 122.704485 
L 452.919373 125.421694 
L 454.611136 156.660462 
L 455.175058 164.888042 
L 456.584861 189.041751 
L 457.148782 204.115833 
L 457.430742 208.58369 
L 457.994663 211.830334 
L 458.276624 212.508343 
L 458.840545 211.87449 
L 459.122506 212.281633 
L 459.404466 212.034632 
L 459.686427 211.16962 
L 459.968388 211.610392 
L 460.250348 213.300134 
L 460.814269 215.023541 
L 461.09623 217.844843 
L 462.224072 235.574101 
L 462.787993 247.644593 
L 463.069954 251.900729 
L 463.351915 253.28877 
L 463.633875 249.114377 
L 463.915836 237.459865 
L 464.197796 216.674728 
L 465.325639 92.390666 
L 465.88956 65.417023 
L 466.17152 57.598892 
L 466.453481 53.568071 
L 466.735442 51.757918 
L 467.017402 51.304404 
L 467.299363 52.144707 
L 467.863284 55.428255 
L 468.145245 58.465792 
L 468.709166 67.928406 
L 469.273087 84.00425 
L 470.118969 111.570136 
L 470.400929 118.693887 
L 470.68289 122.898219 
L 471.246811 127.418193 
L 471.528772 128.62484 
L 471.810732 127.407548 
L 472.092693 125.557638 
L 472.374653 125.852536 
L 472.656614 128.659858 
L 473.502496 139.854502 
L 473.784456 142.344971 
L 475.194259 160.16313 
L 476.040141 170.529296 
L 476.604062 181.671581 
L 477.449944 191.402103 
L 477.731905 194.619342 
L 478.013865 196.426089 
L 478.295826 199.34369 
L 478.859747 206.462992 
L 479.141707 207.67381 
L 479.987589 213.558218 
L 480.26955 214.485013 
L 480.55151 217.235937 
L 481.115432 225.120349 
L 481.679353 230.928887 
L 482.525234 244.469167 
L 482.807195 249.256814 
L 483.089156 251.436182 
L 483.371116 248.055434 
L 483.653077 236.141994 
L 483.935037 212.242226 
L 484.780919 107.329047 
L 485.34484 80.509271 
L 485.908762 65.449032 
L 486.190722 62.826274 
L 486.754643 59.693866 
L 487.036604 59.451495 
L 487.318564 61.368879 
L 487.882486 69.14685 
L 488.446407 81.471439 
L 489.574249 115.77244 
L 490.420131 127.735758 
L 490.702091 131.171719 
L 490.984052 132.536686 
L 491.266013 131.724202 
L 491.547973 130.488908 
L 491.829934 130.557924 
L 492.111894 132.241707 
L 493.803658 148.280165 
L 494.367579 151.980444 
L 495.213461 161.447216 
L 495.777382 164.366046 
L 496.341303 170.059996 
L 496.905224 177.231512 
L 497.469146 181.467988 
L 498.315027 187.926785 
L 498.878948 193.805676 
L 499.44287 202.252752 
L 500.288751 215.792684 
L 500.852673 225.00237 
L 501.980515 244.278072 
L 502.262476 247.305021 
L 502.544436 248.916813 
L 502.826397 248.023005 
L 503.108357 239.669313 
L 503.390318 217.768003 
L 504.2362 122.463626 
L 504.800121 92.760471 
L 505.364042 74.671922 
L 505.646003 71.141007 
L 505.927963 69.467702 
L 506.209924 69.104605 
L 506.491884 70.315356 
L 507.055805 75.444057 
L 507.901687 88.791278 
L 508.465608 101.008048 
L 509.02953 116.307607 
L 509.593451 125.492519 
L 510.157372 131.43317 
L 510.439333 132.609128 
L 510.721293 132.469831 
L 511.003254 132.583564 
L 511.567175 135.87272 
L 512.131096 137.025543 
L 513.258938 147.104466 
L 513.82286 154.866243 
L 514.950702 161.707374 
L 515.232662 162.855002 
L 516.078544 168.55244 
L 516.360505 169.44234 
L 516.924426 172.431478 
L 517.488347 176.295324 
L 518.052268 180.877146 
L 518.89815 185.57616 
L 519.462071 191.320939 
L 521.435795 219.280085 
L 522.281677 233.683231 
L 522.563638 236.650519 
L 522.845598 237.133077 
L 523.127559 229.420173 
L 523.409519 208.667126 
L 524.255401 130.225236 
L 525.101283 89.707098 
L 525.383244 82.214465 
L 525.665204 79.071325 
L 525.947165 78.645783 
L 526.229125 79.551555 
L 526.793047 82.816117 
L 527.356968 88.431249 
L 527.920889 96.200602 
L 528.48481 111.862115 
L 529.048731 127.048693 
L 529.612652 135.588044 
L 529.894613 136.704451 
L 530.176574 135.214331 
L 530.458534 134.586399 
L 531.586376 143.017931 
L 531.868337 146.361525 
L 532.150298 148.359894 
L 532.432258 149.228866 
L 532.996179 152.222631 
L 533.27814 152.964439 
L 533.560101 154.538193 
L 534.124022 159.411376 
L 534.405982 159.594325 
L 534.687943 160.603603 
L 534.969904 162.97164 
L 535.251864 164.296387 
L 535.533825 164.255222 
L 535.815785 164.876756 
L 536.097746 166.147826 
L 536.661667 167.427568 
L 537.225588 170.692095 
L 537.507549 170.521835 
L 537.789509 170.594608 
L 538.353431 174.946706 
L 538.917352 179.780234 
L 539.199312 182.64254 
L 539.481273 184.137982 
L 539.763233 184.961185 
L 540.045194 187.285897 
L 540.609115 193.788623 
L 541.173036 199.816711 
L 542.8648 223.081781 
L 543.146761 221.167935 
L 543.428721 209.379262 
L 544.556563 123.239627 
L 545.120485 99.498538 
L 545.402445 91.319009 
L 545.684406 86.794256 
L 545.966366 84.730567 
L 546.248327 85.314257 
L 547.094209 95.666802 
L 548.785972 120.564637 
L 549.349893 134.481753 
L 549.631854 138.924526 
L 550.195775 143.676982 
L 550.477736 146.95918 
L 550.759696 148.819748 
L 551.041657 148.37388 
L 551.323618 147.632367 
L 551.605578 147.6699 
L 551.887539 147.343506 
L 552.169499 146.788098 
L 552.45146 147.694219 
L 553.015381 151.487858 
L 553.297342 152.32334 
L 553.579302 153.79955 
L 554.143223 157.741883 
L 554.425184 158.23398 
L 554.707145 158.118149 
L 554.989105 158.350978 
L 555.271066 159.51356 
L 556.398908 167.027818 
L 557.24479 169.576511 
L 557.808711 168.00534 
L 558.090672 169.046359 
L 558.372632 171.283773 
L 558.654593 172.386745 
L 558.936553 172.509082 
L 559.218514 173.758904 
L 560.910277 191.352599 
L 561.474199 200.261218 
L 562.03812 205.319068 
L 562.602041 212.536385 
L 562.884002 210.271413 
L 563.165962 200.010319 
L 564.575765 120.496819 
L 565.139686 103.650837 
L 565.421647 99.634127 
L 565.703607 98.502477 
L 565.985568 98.897412 
L 566.267529 100.639158 
L 567.11341 108.906538 
L 567.395371 110.340436 
L 567.677332 113.387046 
L 569.651056 142.969246 
L 570.496937 150.557301 
L 570.778898 151.581383 
L 571.060859 151.453606 
L 571.90674 148.934411 
L 572.188701 148.896084 
L 572.470661 149.745581 
L 572.752622 151.135267 
L 573.034583 151.921807 
L 573.598504 151.467282 
L 573.880464 151.907616 
L 574.162425 152.946888 
L 574.726346 156.289558 
L 575.008307 156.765134 
L 575.290267 156.069359 
L 575.572228 156.853469 
L 576.136149 163.73276 
L 576.41811 163.960023 
L 576.70007 163.035 
L 576.982031 164.160439 
L 577.263991 166.041758 
L 577.545952 165.589079 
L 577.827913 163.919843 
L 578.109873 164.510391 
L 578.391834 166.800955 
L 578.673794 167.622111 
L 578.955755 167.484005 
L 579.237716 169.538711 
L 579.519676 173.235343 
L 579.801637 175.344635 
L 580.083597 176.202716 
L 580.365558 178.746965 
L 580.647518 182.315783 
L 580.929479 183.75599 
L 581.21144 183.268454 
L 581.4934 183.980893 
L 582.903203 198.58149 
L 583.185164 203.325454 
L 583.467124 202.975756 
L 583.749085 192.13075 
L 584.594967 144.631059 
L 585.440848 112.491999 
L 585.722809 108.269982 
L 586.00477 106.030448 
L 586.28673 105.494811 
L 586.568691 107.452108 
L 587.132612 114.007608 
L 588.260454 122.579185 
L 588.824375 124.411625 
L 589.106336 128.072172 
L 589.670257 139.567718 
L 590.234178 144.95897 
L 591.08006 151.30578 
L 591.362021 151.801107 
L 592.771824 146.30082 
L 593.053784 146.758424 
L 593.617705 149.977485 
L 594.181627 153.39101 
L 594.463587 154.050657 
L 594.745548 154.348949 
L 595.027508 154.961125 
L 595.309469 155.219188 
L 595.59143 155.120422 
L 595.87339 156.190814 
L 596.437311 160.287919 
L 596.719272 160.871996 
L 597.001232 161.744901 
L 597.283193 163.140936 
L 597.565154 163.909214 
L 598.692996 164.387629 
L 598.974957 164.974048 
L 599.820838 168.855692 
L 600.66672 171.187533 
L 600.948681 172.893052 
L 601.512602 177.951268 
L 602.640444 183.633763 
L 603.768287 190.183711 
L 604.050247 187.476532 
L 604.332208 178.289894 
L 605.178089 140.426807 
L 605.742011 124.010853 
L 606.023971 119.109624 
L 606.305932 117.201226 
L 606.587892 117.215085 
L 606.869853 117.554036 
L 607.151814 118.128279 
L 607.997695 123.361678 
L 608.279656 125.368438 
L 609.125538 135.780086 
L 609.407498 138.047407 
L 610.25338 150.863487 
L 610.535341 150.037739 
L 610.817301 149.635561 
L 611.381222 152.798363 
L 611.663183 153.27981 
L 611.945144 152.920654 
L 612.227104 151.902519 
L 612.791025 147.996627 
L 613.072986 148.583337 
L 613.354946 151.205683 
L 613.636907 152.469701 
L 614.200828 149.87797 
L 615.04671 150.745422 
L 615.328671 151.722293 
L 615.610631 153.288334 
L 615.892592 154.008529 
L 616.174552 154.246209 
L 616.456513 154.825295 
L 616.738474 154.84778 
L 617.020434 154.240976 
L 617.302395 154.980404 
L 618.148276 163.749315 
L 618.430237 165.241911 
L 618.712198 165.592793 
L 618.994158 165.251083 
L 619.276119 165.596846 
L 619.84004 167.565834 
L 620.122001 167.85146 
L 620.403961 168.660394 
L 621.531803 173.900034 
L 622.095725 177.274028 
L 622.659646 178.43245 
L 622.941606 179.643145 
L 623.505528 184.168598 
L 623.787488 182.948611 
L 624.069449 176.216731 
L 625.197291 137.390774 
L 625.761212 129.603894 
L 626.043173 127.455073 
L 626.325133 126.489887 
L 626.607094 126.896069 
L 627.171015 128.711129 
L 627.734936 131.693936 
L 628.016897 132.215795 
L 628.298858 132.095585 
L 628.580818 133.30359 
L 629.990621 147.54707 
L 630.272582 148.14149 
L 630.554542 147.116748 
L 630.836503 147.679998 
L 631.400424 152.338608 
L 631.682385 152.587178 
L 631.964345 151.391538 
L 632.528266 148.277991 
L 632.810227 148.134411 
L 633.092188 149.718985 
L 633.092188 149.718985 
" clip-path="url(#p981f5ef7ac)" style="fill: none; stroke: #1f77b4; stroke-width: 1.5; stroke-linecap: square"/>
   </g>
   <g id="patch_3">
    <path d="M 47.192188 268.465636 
L 47.192188 2.353636 
" style="fill: none; stroke: #808080; stroke-width: 0.8; stroke-linejoin: miter; stroke-linecap: square"/>
   </g>
   <g id="patch_4">
    <path d="M 660.992188 268.465636 
L 660.992188 2.353636 
" style="fill: none; stroke: #000000; stroke-width: 0.8; stroke-linejoin: miter; stroke-linecap: square"/>
   </g>
   <g id="patch_5">
    <path d="M 47.192188 268.465636 
L 660.992188 268.465636 
" style="fill: none; stroke: #808080; stroke-width: 0.8; stroke-linejoin: miter; stroke-linecap: square"/>
   </g>
   <g id="patch_6">
    <path d="M 47.192188 2.353636 
L 660.992188 2.353636 
" style="fill: none; stroke: #000000; stroke-width: 0.8; stroke-linejoin: miter; stroke-linecap: square"/>
   </g>
  </g>
 </g>
 <defs>
  <clipPath id="p981f5ef7ac">
   <rect x="47.192188" y="2.353636" width="613.8" height="266.112"/>
  </clipPath>
 </defs>
</svg>
