<svg xmlns="http://www.w3.org/2000/svg" xmlns:xlink="http://www.w3.org/1999/xlink" width="913.477" height="380.335" viewBox="0 0 685.107 285.251"><defs><style>*{stroke-linejoin:round;stroke-linecap:butt}</style></defs><g id="figure_1"><path id="patch_1" d="M0 285.251h685.107V0H0v285.251z" style="fill:none"/><g id="axes_1"><path id="patch_2" d="M71.308 268.573h613.8V2.461h-613.8v266.112z" style="fill:none"/><g id="matplotlib.axis_1"><g id="xtick_1"><g id="line2d_1"><defs><path id="m4193b1e6ff" d="M0 0v3.5" style="stroke:gray;stroke-width:.8"/></defs><use xlink:href="#m4193b1e6ff" x="99.207" y="268.573" style="fill:gray;stroke:gray;stroke-width:.8"/></g><g id="text_1" style="fill:gray" transform="matrix(.1 0 0 -.1 96.026 283.172)"><defs><path id="DejaVuSans-30" d="M2034 4250q-487 0-733-480-245-479-245-1442 0-959 245-1439 246-480 733-480 491 0 736 480 246 480 246 1439 0 963-246 1442-245 480-736 480zm0 500q785 0 1199-621 414-620 414-1801 0-1178-414-1799Q2819-91 2034-91q-784 0-1198 620-414 621-414 1799 0 1181 414 1801 414 621 1198 621z" transform="scale(.01563)"/></defs><use xlink:href="#DejaVuSans-30"/></g></g><g id="xtick_2"><use xlink:href="#m4193b1e6ff" id="line2d_2" x="168.958" y="268.573" style="fill:gray;stroke:gray;stroke-width:.8"/><g id="text_2" style="fill:gray" transform="matrix(.1 0 0 -.1 159.414 283.172)"><defs><path id="DejaVuSans-35" d="M691 4666h2478v-532H1269V2991q137 47 274 70 138 23 276 23 781 0 1237-428 457-428 457-1159 0-753-469-1171Q2575-91 1722-91q-294 0-599 50Q819 9 494 109v635q281-153 581-228t634-75q541 0 856 284 316 284 316 772 0 487-316 771-315 285-856 285-253 0-505-56-251-56-513-175v2344z" transform="scale(.01563)"/></defs><use xlink:href="#DejaVuSans-35"/><use xlink:href="#DejaVuSans-30" x="63.623"/><use xlink:href="#DejaVuSans-30" x="127.246"/></g></g><g id="xtick_3"><use xlink:href="#m4193b1e6ff" id="line2d_3" x="238.708" y="268.573" style="fill:gray;stroke:gray;stroke-width:.8"/><g id="text_3" style="fill:gray" transform="matrix(.1 0 0 -.1 225.982 283.172)"><defs><path id="DejaVuSans-31" d="M794 531h1031v3560L703 3866v575l1116 225h631V531h1031V0H794v531z" transform="scale(.01563)"/></defs><use xlink:href="#DejaVuSans-31"/><use xlink:href="#DejaVuSans-30" x="63.623"/><use xlink:href="#DejaVuSans-30" x="127.246"/><use xlink:href="#DejaVuSans-30" x="190.869"/></g></g><g id="xtick_4"><use xlink:href="#m4193b1e6ff" id="line2d_4" x="308.457" y="268.573" style="fill:gray;stroke:gray;stroke-width:.8"/><g id="text_4" style="fill:gray" transform="matrix(.1 0 0 -.1 295.733 283.172)"><use xlink:href="#DejaVuSans-31"/><use xlink:href="#DejaVuSans-35" x="63.623"/><use xlink:href="#DejaVuSans-30" x="127.246"/><use xlink:href="#DejaVuSans-30" x="190.869"/></g></g><g id="xtick_5"><use xlink:href="#m4193b1e6ff" id="line2d_5" x="378.207" y="268.573" style="fill:gray;stroke:gray;stroke-width:.8"/><g id="text_5" style="fill:gray" transform="matrix(.1 0 0 -.1 365.483 283.172)"><defs><path id="DejaVuSans-32" d="M1228 531h2203V0H469v531q359 372 979 998 621 627 780 809 303 340 423 576 121 236 121 464 0 372-261 606-261 235-680 235-297 0-627-103-329-103-704-313v638q381 153 712 231 332 78 607 78 725 0 1156-363 431-362 431-968 0-288-108-546-107-257-392-607-78-91-497-524-418-433-1181-1211z" transform="scale(.01563)"/></defs><use xlink:href="#DejaVuSans-32"/><use xlink:href="#DejaVuSans-30" x="63.623"/><use xlink:href="#DejaVuSans-30" x="127.246"/><use xlink:href="#DejaVuSans-30" x="190.869"/></g></g><g id="xtick_6"><use xlink:href="#m4193b1e6ff" id="line2d_6" x="447.957" y="268.573" style="fill:gray;stroke:gray;stroke-width:.8"/><g id="text_6" style="fill:gray" transform="matrix(.1 0 0 -.1 435.233 283.172)"><use xlink:href="#DejaVuSans-32"/><use xlink:href="#DejaVuSans-35" x="63.623"/><use xlink:href="#DejaVuSans-30" x="127.246"/><use xlink:href="#DejaVuSans-30" x="190.869"/></g></g><g id="xtick_7"><use xlink:href="#m4193b1e6ff" id="line2d_7" x="517.707" y="268.573" style="fill:gray;stroke:gray;stroke-width:.8"/><g id="text_7" style="fill:gray" transform="matrix(.1 0 0 -.1 504.983 283.172)"><defs><path id="DejaVuSans-33" d="M2597 2516q453-97 707-404 255-306 255-756 0-690-475-1069Q2609-91 1734-91q-293 0-604 58T488 141v609q262-153 574-231 313-78 654-78 593 0 904 234t311 681q0 413-289 645-289 233-804 233h-544v519h569q465 0 712 186t247 536q0 359-255 551-254 193-729 193-260 0-557-57-297-56-653-174v562q360 100 674 150t592 50q719 0 1137-327 419-326 419-882 0-388-222-655t-631-370z" transform="scale(.01563)"/></defs><use xlink:href="#DejaVuSans-33"/><use xlink:href="#DejaVuSans-30" x="63.623"/><use xlink:href="#DejaVuSans-30" x="127.246"/><use xlink:href="#DejaVuSans-30" x="190.869"/></g></g><g id="xtick_8"><use xlink:href="#m4193b1e6ff" id="line2d_8" x="587.457" y="268.573" style="fill:gray;stroke:gray;stroke-width:.8"/><g id="text_8" style="fill:gray" transform="matrix(.1 0 0 -.1 574.732 283.172)"><use xlink:href="#DejaVuSans-33"/><use xlink:href="#DejaVuSans-35" x="63.623"/><use xlink:href="#DejaVuSans-30" x="127.246"/><use xlink:href="#DejaVuSans-30" x="190.869"/></g></g><g id="xtick_9"><use xlink:href="#m4193b1e6ff" id="line2d_9" x="657.207" y="268.573" style="fill:gray;stroke:gray;stroke-width:.8"/><g id="text_9" style="fill:gray" transform="matrix(.1 0 0 -.1 644.482 283.172)"><defs><path id="DejaVuSans-34" d="M2419 4116 825 1625h1594v2491zm-166 550h794V1625h666v-525h-666V0h-628v1100H313v609l1940 2957z" transform="scale(.01563)"/></defs><use xlink:href="#DejaVuSans-34"/><use xlink:href="#DejaVuSans-30" x="63.623"/><use xlink:href="#DejaVuSans-30" x="127.246"/><use xlink:href="#DejaVuSans-30" x="190.869"/></g></g></g><g id="matplotlib.axis_2"><g id="ytick_1"><g id="line2d_10"><defs><path id="m0b032e4571" d="M0 0h-3.5" style="stroke:gray;stroke-width:.8"/></defs><use xlink:href="#m0b032e4571" x="71.308" y="249.727" style="fill:gray;stroke:gray;stroke-width:.8"/></g><g id="text_10" style="fill:gray" transform="matrix(.16 0 0 -.16 0 255.806)"><defs><path id="DejaVuSans-2212" d="M678 2272h4006v-531H678v531z" transform="scale(.01563)"/></defs><use xlink:href="#DejaVuSans-2212"/><use xlink:href="#DejaVuSans-32" x="83.789"/><use xlink:href="#DejaVuSans-30" x="147.412"/><use xlink:href="#DejaVuSans-30" x="211.035"/><use xlink:href="#DejaVuSans-30" x="274.658"/><use xlink:href="#DejaVuSans-30" x="338.281"/></g></g><g id="ytick_2"><use xlink:href="#m0b032e4571" id="line2d_11" x="71.308" y="200.997" style="fill:gray;stroke:gray;stroke-width:.8"/><g id="text_11" style="fill:gray" transform="matrix(.16 0 0 -.16 0 207.076)"><use xlink:href="#DejaVuSans-2212"/><use xlink:href="#DejaVuSans-31" x="83.789"/><use xlink:href="#DejaVuSans-30" x="147.412"/><use xlink:href="#DejaVuSans-30" x="211.035"/><use xlink:href="#DejaVuSans-30" x="274.658"/><use xlink:href="#DejaVuSans-30" x="338.281"/></g></g><g id="ytick_3"><use xlink:href="#m0b032e4571" id="line2d_12" x="71.308" y="152.268" style="fill:gray;stroke:gray;stroke-width:.8"/><use xlink:href="#DejaVuSans-30" id="text_12" style="fill:gray" transform="matrix(.16 0 0 -.16 54.127 158.346)"/></g><g id="ytick_4"><use xlink:href="#m0b032e4571" id="line2d_13" x="71.308" y="103.538" style="fill:gray;stroke:gray;stroke-width:.8"/><g id="text_13" style="fill:gray" transform="matrix(.16 0 0 -.16 13.408 109.617)"><use xlink:href="#DejaVuSans-31"/><use xlink:href="#DejaVuSans-30" x="63.623"/><use xlink:href="#DejaVuSans-30" x="127.246"/><use xlink:href="#DejaVuSans-30" x="190.869"/><use xlink:href="#DejaVuSans-30" x="254.492"/></g></g><g id="ytick_5"><use xlink:href="#m0b032e4571" id="line2d_14" x="71.308" y="54.808" style="fill:gray;stroke:gray;stroke-width:.8"/><g id="text_14" style="fill:gray" transform="matrix(.16 0 0 -.16 13.408 60.887)"><use xlink:href="#DejaVuSans-32"/><use xlink:href="#DejaVuSans-30" x="63.623"/><use xlink:href="#DejaVuSans-30" x="127.246"/><use xlink:href="#DejaVuSans-30" x="190.869"/><use xlink:href="#DejaVuSans-30" x="254.492"/></g></g><g id="ytick_6"><use xlink:href="#m0b032e4571" id="line2d_15" x="71.308" y="6.079" style="fill:gray;stroke:gray;stroke-width:.8"/><g id="text_15" style="fill:gray" transform="matrix(.16 0 0 -.16 13.408 12.158)"><use xlink:href="#DejaVuSans-33"/><use xlink:href="#DejaVuSans-30" x="63.623"/><use xlink:href="#DejaVuSans-30" x="127.246"/><use xlink:href="#DejaVuSans-30" x="190.869"/><use xlink:href="#DejaVuSans-30" x="254.492"/></g></g></g><path id="line2d_16" d="m99.207 152.295.846-.054.846.053.846-.054.846.056.282-.057.282.058.282-.059.282.06.282-.06.282.06.282-.062.282.064.282-.066.282.068.282-.07.282.072.282-.074.281.077.282-.08.282.083.282-.087.282.091.282-.096.282.102.282-.107.282.113.282-.121.282.13.282-.14.282.153.282-.168.282.186.282-.21.282.24.282-.279.282.333.282-.415.282.551.282-.814.282 1.506.282-8.696.282-22.863.281-12.679.282-5.668.282.187.282 3.923.564 13.691.564 7.086.282 1.563.564-3.313.282 1.19.564 12.74.846 20.58.282 1.829.282-1.912.564-5.948.564-4.162.282-.778.282-.253.282-.413.281.917.564 4.595.282.377.282.14.564 1.4.282.036.282.674.282 1.138.282.504.282-.116.282.724.282 1.057.282.444.282.68.564 3.827.282-.414.282-.785.564 1.743.282.191.282 1.351.563 4.994.282.487.282 1.245.564 4.265.564 2.158.282-.664.282-6.155.564-30.186.564-31.027.282-5.528.282 1.724 1.128 21.72.282 1.454.564-3.115.282.573.282.145.282-.447.281 3.48.564 16.064.282 4.19.282 2.47.282.966.282-2.33.282-4.008.282-2.158.564-1.586.282-.053.846 6.333.564 5.787.282.78.282-.428.282.268.564 1.853.282.387.282-.2.282-.653.282-.281.281.79.564 3.198.564 3.434.282.494.282.092.282.349.282.991.564 3.354.282.845.282.267.282.426.282.668.282 1.005.846 6.836.282.53.282-1.556.282-7.685.564-37.87.563-30.309.282-4.373.282 2.553.564 13.878.282 4.189.282 1.888.282.213.282-1.044.282-.412.282 1.415.564 5.565.282 6.04.846 24.113.282 2.412.282-.902.564-5.647 1.128-4.808.281.144.846 4.832.564-1.245.282 1.213.564 4.398.564 2.352.282.3.564-1.097.282.697.846 8.494.282-.626.282.51.282 2.229.282.598.564-4.749.282-.73.282.422.281 1.12 1.41 9.467.282.49.282-3.735.282-10.473.846-52.018.282-8.354.282-2.845.282 1.8.846 15.728.564 5.435.282-.188.282-2.485.282-.21.845 9.577.846 24.139.282.387.282-1.395.282-2.426.564-5.675.282-.254.282-.037.282-.441.282-.114.282.261.282.642.564 3.128.282.417.282.001.282.907.564 3.705.564 3.738.564-.077.563 1.6.282.306.282.662.846 3.812.564 3.181.282 1.067.846 4.75.282.885.846 5.41.282.701.282-2.328.282-10.89 1.128-73.85.282-2.933.281 4.84.564 15.178.282 5.331.282 2.707.282-.41.282-1.116.282.527.564 2.778.282 3.28.564 14.704.564 15.132.282 2.134.846-5.382.846-3.826.282.556.845 4.098.564 3.725.282.977.564-.919.564 1.957.564.059.564 2.844.282.1.282.707.564 4.288.564-.365.282 1.099.846 4.166.282 1.127.564 1.498.563 4.406.846 7.31.282.454.282-4.313.282-12.744.846-55.748.282-6.19.282.338.846 7.57.282 2.01.282.123.564-5.411.282.95.564 8.285.282 6.051.845 31.554.282.209.564-10.161.564-3.419.282-3.624.282-1.735.282 2.338.564 6.656.846 6.098.282.699.846 3.677.282-.005.282 1.632.282 2.99.282 1.798.282.172.282.394.845 3.476.564 2.285.564.634.846 5 .282 1.555.564 4.78.564 2.272.564 5.402.282 1.053.282.479.282-.493.282-6.671.564-40.044.564-37.231.282-8.477.282-1.59.281 3.36.564 9.622.282 3.116.282 1.03.282-.62.564-2.494.282-1.927.282.02.282 5.255 1.128 38.512.282 2.298.282-.434.564-3.236.282-1.739.282-.901.564.262.564-1.463.281-.027.282 1.258.564 4.233.564 3.077.282 2.294.282 1.187.282.166.282 1.616.282 3.118.282 1.722.282.436.282 1.877.564 4.92.846 5.355.282-1.016.282.387.282 1.708.282-.345.282-1.943.282-.038 1.127 7.855.282-.055.282-.914.282-4.554.282-13.182.846-56.047.282-11.195.282-5.823.282 2.309.564 14.076.282 4.239.282 2.05.282-1.983.564-9.186.282.313.282 2.51.282 5.122 1.127 40.94.282 1.577.282-.549.846-7.656.282-.929.282-.024.282 1.403.846 5.995.564 2.909.564 1.492.564.332.282.928 1.128 7.76.282.65.563 4.123.564 3.894.282 2.651.282 1.225.564-2.31.282 1.398.564 4.973.846 5.304.564 1.904.282.625.282-.258.282-5.148.282-14.888.846-62.77.282-9.825.282-4.794.282.505.563 10.183.282 2.068.282-.958.564-3.631.282-.838.282.473.282 2.55.282 6.604 1.128 49.058.282 2.747.282.723.282-3.552.564-11.86.282-.975.282-.287.282-.772.282.83.564 7 .281 4.038.282 2.291.282-.293.282-.588.282.634.282.215.282-.355.282 1.992.564 7.583.282.472.564-1.051.282.62.846 8.03.282 1.133.846 6.301.282.872.282 1.614.564 5.089.845 10.943.282 1.597.282-.337.282-5.694.282-15.49.846-71.491.282-13.234.282-7.587.282-3.274.282.26.846 8.372.282.863.282.076.282.642.282 1.802.282 3.487.282 6.245.564 20.649.563 25.041.282 7.797.282 2.102.282-1.353.282-2.946.846-13.508.846-5.347.282.6.846 12.252.564 2.82.282 1.599.282.042.282-.677.282.412.564 1.67.282 1.934.282 2.92.281 1.46.282.493.282 2.65.282 4.24.282 2.039.282-.19.282.94.564 5.158.564 1.666.282 1.798 1.128 11.379.282-.504.282-8.54.564-45.072.564-45.979.282-12.67.282-4.684.282.987.563 7.513.846 12.399.846 7.885.282 4.406.282 6.682.564 23.808.282 12.762.282 7.526.282 2.24.282.13.282-.578.282-2.358.846-11.898.282-2.523.282-.388.564 2.759.282-.177.281 1.56.564 8.782.282 1.459.282.81.282 1.508.282.682.282-.199.282.779.564 3.625.564 4.654.564 1.167 1.692 15.561.282.72.282 1.626.564 7.838.281 2.034.282 1.2.282-1.915.282-10.99 1.41-103.44.282-9.323.282-4.108.282.25.564 4.94.282.95.564-.986.282 1.595.282 4.037.282 6.237.282 9.603.564 35.349.282 17.675.282 8.523.282.8.563-1.188.282-2.985.564-8.366.282-.141.282 1.854.846 7.798.564 3.798.282.659.282.284.282 2.295.564 6.916.282.57.282.821.564 4.328.282-1.079.282-2.484.282.137.563 7.107.282.73.282.279.282 2.567.564 6.317.564 4.358.564 7.147.564 12.084.282 6.253.282 1.561.282-7.161.282-17.62 1.128-101.215.564-25.042.564-16.154.282-5.345.281-2.235.564-1.141.282.793.282 3.279.282 5.602.282 8.469.282 14.142 1.128 82.868.282 6.818.282 3.655.282.258.846-10.826.564-4.504.282-.264 1.128 8.594.282 1.521.281.417.282.959.282 2.05.282 1.21.282-.282h.282l.564 2.136.282 1.546.846 8.295.564 6.113.282 1.448.282.13.282.76.564 4.7 1.128 11.75.564 11.338.281 1.725.282-8.687.564-44.659.846-67.78.564-28.274.564-17.936.282-3.245.564-.349.564-2.53.282.94.282 3.013.282 5.77.282 11.347 1.41 86.805.282 5.627.281 2.442.282.51.282-.274.282-.833.846-4.308.282.56.564 3.663.282 1.905.282 1.023.282.295.282.465 1.128 4.476.846 3.663.564 4.092 1.127 11.3.564 4.243.846 8.31.564 9.744.846 8.891.282-.483.282-10.365.564-47.075.564-52.309.564-32.24.564-16.917.282-2.662.282-.145.282-.959.563-6.008.564-5.63.282-.305.282 3.182.282 8.91.564 36.47.564 33.42.282 8.815.564 8.619.564 4.161.564 2.065.282.696.282 1.149.282 2.575.564 6.954.564 4.086.845 8.372.282 1.644.846 8.308.282.911.282.524.282 1.023.846 4.228.282 1.235.846 8.593.282 4.145.564 12.4.564 3.737.564 13.28.282 2.208.282-6.199.281-16.622 1.41-121.191.282-14.637.564-11.146.564-14.566 1.128-35.523.282.479.282 3.179.282 8.84.564 37.52.846 62.268.282 11.99.563 12.001.282 4.675.282 2.414.564.398.564 4.21.282-.015.282-.536.564 5.802.282-1.354.282-5.228.282-2 .846 9.909.282 1.152.282 3.374.846 16.3.564 3.4.845 10.538 1.41 15.288.564 10.76.846 11.632.282-7.977.564-47.835.846-73.032.564-35.073 1.41-62.24.282-6.688.281-2.31.282.407.282 3.453.282 7.28.282 11.652.564 41.564.564 43.59.846 41.027.282 8.508.282 4.614.282 1.68.282.835.282 1.217.282-.018.564-6.353.282-.758.564 2.165.282-.293.563-1.197.282.03.282 1.446.564 3.613.282.287.282.506.282 2.155.846 11.001.282 2.557 1.128 16.415.564 12.75.846 8.904.564 7.84.282 3.33.282-1.62.282-15.922 1.41-134.722.563-25.982 1.128-44.594.282-5.64.282-1.024.282 2.746.282 4.051.282 6.606.564 27.381 1.41 87.645.564 15.281.281 3.567 1.128 7.076.564 4.854.564 1.639.282.391.282-.254.282.226.846 3.352.282 2.672.564 7.744 1.128 7.83.564 3.786.564 2.44.563 6.481.564 6.768 1.692 29.715.282-6.093.282-19.556 1.41-137.281 1.128-55.71.282-5.017.282-2.615.282-1.157.282.36.281 2.074.282 4.334.282 7.232.282 11.444.564 39.78.564 38.629.846 38.779.282 7.36.564 6.59.282 1.765.282-.037.846-5.838.282.24 1.41 2.66.281-.27.282.72.282 3.534.564 9.725.564 5.116.564 6.687.282 2.117.282 3.18.564 7.442.282-.038.282.102.846 8.197.282 1.196.282 4.593.846 18.718.282 3.374.282-4.584.282-16.77 1.691-154.42.564-33.142.282-8.848.564-8.5.282-1.789.282 1.01.282 3.26.282 4.819.282 6.862.564 23.747 1.128 62.684.564 22.374.845 24.908.564 7.563.564 5.81.282.346.564-3.632.846-3.703.282.953.282 1.465.282.174.282.61.846 8.433.564.175.282.537.282 1.562.564 4.144.281 1.357.282 2.299 1.692 21.948 1.128 20.525.282.576.282-11.786.564-51.58.846-87.172.846-49.711.282-9.213.564-7.95.282-2.035.281.401.282 1.894.282 4.144.564 19.434.564 26.344.564 35.205.564 18.196 1.128 34.195.846 15.133.282-.2.282-1.327.282 1.022.282 2.516.282.794.282-.838.282-.221.281.284.282-.262.282.514.282 1.7.282.027.282-2.369.282-.707.564 4.846.282.321.282 2.547.564 12.11.282 2.016.282.952.282 2.744.846 12.855.564 11.708.564 14.103.282 4.114.282.982.282-5.521.281-17.544 1.41-144.182.564-30.846.564-16.279.282-3.514.282-.5.282 2.19.564 8.685.282 5.566.282 7.797.564 25.282.846 38.704.564 15.182.845 15.575.282 2.158.282.814.282 2.313.564 12.073.564 12.912 1.128 18.923.564 4.115.564 6.541.564 3.325.282 1.87.282.473.282-.27.282-1.74.282-6.07.282-8.503.281-4.57.282.1.282-.149.282-1.065.282 1.452.846 11.374 1.128 35.512.282.55.282-7.76.282-18.79 1.128-120.967.846-35.914.564-16.252.282-4.228.282-1.953.281 1.102.282 4.998.564 20.958 1.128 48.65.564 31.971.282 7.752.282 1.83.282-.426.282-.672.282-2.076.564-7.24.282.605.846 10.79.282-.776.282-1.308.282 1.946.845 17.388.564 8.921.282 4.831.282 2.164.282.04.282.717.564 5.122.846 9.625.564 2.836.282 2.876 1.41 22.55.564 5.567.564 8.113.281 1.285.282-7.093.282-19.206.564-72.942.282-36.913.282-21.426 1.41-39.262.564-19.095.282.402.846 10.702.846 24.276.846 35.904.564 8.884.845 17.086.564 10.145.282.448.564-4.547.282-2.428.282.62.282 6.53.564 19.081.564 11.254.282 2.567.282.824.282 2.208.564 11.774.846 18.638 1.691 15.908.282 3.211.282 4.588.564 13.125.282 2.64.282 1.218.282 3.64.282 5.459.282 3.172.282-3.171.282-13.024.564-56.593.564-61.773.564-40.268.282-15.05.282-8.714.282.223.282 4.354.282 1.245.281-2.122.282-.96.282 1.48.282 3.137.282 6.188.564 22.078.846 33.464.282 3.343.282.675.282 1 .282 1.694.282 2.96.564 7.291.282-.123.282.312.282 2.51.282.943.282-1.726.282 1.028.564 12.413.563 4.795.564 12.974.282-.741.282-3.307.282 2.652.564 13.2.282 2.668.846 15.86.282 1.687.564 4.979.282-1.316.282-2.22.282 1.398.282 5.507 1.128 31.174.282-2.612.281-10.72.564-36.416 1.128-90.987.564-32.533.282-9.621.282-3.245.282-.724.564-3.687.282 1.272.282 7.882.846 36.884.846 28.355.282.809.282-.854.282 1.741.563 4.91.564 2.634.282.41.282-1.44.282-2.328.282-1.248.282 1.1.564 5.044.564 1.383.282 3.149.846 16.059.282 3.092 1.128 19.528 1.41 39.247.281 4.643.282-1.413.846-9.522.282-2.026.564 2.767.282-.631.282 1.284.564 9.745.282-7.25.282-21.3.846-83.646.846-42.593.282-9.875.282-5.385.282-2.524.282-1.481.281-.784.282 1.02.282 4.559 1.128 33.445.846 32.88.564 10.924.564 6.649.564 3.54 2.256 11.04.282 2.17.282.223.563-3.882.282.2.282 1.681.564 6.513 1.41 17.841.282 2.166.846 14.702.564 11.555.564 12.574 1.41 22.48.282-4.59.281-16.903 1.128-116.276.564-26.054.282-5.456.282-2.827.282-1.386.564.006.282-.769.282.005.282 1.903.282 2.929.282 4.723 1.128 33.735.564 8.21.282 1.523.564.975.563-.18.282.991.282 2.787.564 7.878.564 3.151.282 3.744.564 11.92.846 9.097.564 7.766.282-.063.282.218.846 11.083.282 1.817.282 3.815.845 15.084.564 6.647.564 9.063.564 2.822.564 12.66.282-.903.282-15.906.846-87.637.564-29.793.564-20.056.564-5.958.282-.984.282 1.895.564 8.589 1.127 19.189 1.128 33.036.564 9.402.282 2.853.282-.112.564-5.145.282-1.23.564.064.282-.386.282.006.564 1.431.282 1.538 1.128 12.516.282 1.306.563 4.71.564 5.814.282 1.74.282 2.486.846 13.897.282 1.834.846 8.158.282.028.282.298.282 2.77.846 12.785.282 3.468.282-1.5.282-12.689.846-64.045.563-23.809.564-15.153.564-8.76.282-.992.282 1.052.282 1.99.282 3.37.846 14.087.282 3.609 1.128 23.6.846 5.117.282.783.282-1.151.282-2.82.282-1.606.563 2.445.282.153.282.795.564 4.421 1.41 6.58.564 10.568.282 2.342.282.755.282 2.267.564 5.524.282 2.527.564 6.607.282.47.564-2.751.282-.001.845 7.126.282 3.258.564 12.415.282 3.528.282 1.865.282-1.023.282-10.451 1.128-78.055.564-17.246.564-11.13.282-2.265.282 1.516 1.41 17.168.563 8.11 1.128 23.159.564 4.032.564 3.035.282-1.026.564-5.853.282-.82.282-.433.282.535.846 11.2.564-2.676.282 1.017.282 1.895.282 1.126.282.244.282.576.281 3.466h0" clip-path="url(#pa7f7910c6e)" style="fill:none;stroke:#1f77b4;stroke-width:1.5;stroke-linecap:square"/><path id="patch_3" d="M71.308 268.573V2.461" style="fill:none;stroke:gray;stroke-width:.8;stroke-linejoin:miter;stroke-linecap:square"/><path id="patch_4" d="M685.107 268.573V2.461" style="fill:none;stroke:#000;stroke-width:.8;stroke-linejoin:miter;stroke-linecap:square"/><path id="patch_5" d="M71.308 268.573h613.8" style="fill:none;stroke:gray;stroke-width:.8;stroke-linejoin:miter;stroke-linecap:square"/><path id="patch_6" d="M71.308 2.461h613.8" style="fill:none;stroke:#000;stroke-width:.8;stroke-linejoin:miter;stroke-linecap:square"/></g></g><defs><clipPath id="pa7f7910c6e"><path d="M71.308 2.461h613.8v266.112h-613.8z"/></clipPath></defs></svg>