<svg xmlns="http://www.w3.org/2000/svg" xmlns:xlink="http://www.w3.org/1999/xlink" width="913.477" height="377.053" viewBox="0 0 685.107 282.79"><defs><style>*{stroke-linejoin:round;stroke-linecap:butt}</style></defs><g id="figure_1"><path id="patch_1" d="M0 282.79h685.107V0H0v282.79z" style="fill:none"/><g id="axes_1"><path id="patch_2" d="M71.308 266.112h613.8V0h-613.8v266.112z" style="fill:none"/><g id="matplotlib.axis_1"><g id="xtick_1"><g id="line2d_1"><defs><path id="m37b188ace6" d="M0 0v3.5" style="stroke:gray;stroke-width:.8"/></defs><use xlink:href="#m37b188ace6" x="99.207" y="266.112" style="fill:gray;stroke:gray;stroke-width:.8"/></g><g id="text_1" style="fill:gray" transform="matrix(.1 0 0 -.1 96.026 280.71)"><defs><path id="DejaVuSans-30" d="M2034 4250q-487 0-733-480-245-479-245-1442 0-959 245-1439 246-480 733-480 491 0 736 480 246 480 246 1439 0 963-246 1442-245 480-736 480zm0 500q785 0 1199-621 414-620 414-1801 0-1178-414-1799Q2819-91 2034-91q-784 0-1198 620-414 621-414 1799 0 1181 414 1801 414 621 1198 621z" transform="scale(.01563)"/></defs><use xlink:href="#DejaVuSans-30"/></g></g><g id="xtick_2"><use xlink:href="#m37b188ace6" id="line2d_2" x="168.958" y="266.112" style="fill:gray;stroke:gray;stroke-width:.8"/><g id="text_2" style="fill:gray" transform="matrix(.1 0 0 -.1 159.414 280.71)"><defs><path id="DejaVuSans-35" d="M691 4666h2478v-532H1269V2991q137 47 274 70 138 23 276 23 781 0 1237-428 457-428 457-1159 0-753-469-1171Q2575-91 1722-91q-294 0-599 50Q819 9 494 109v635q281-153 581-228t634-75q541 0 856 284 316 284 316 772 0 487-316 771-315 285-856 285-253 0-505-56-251-56-513-175v2344z" transform="scale(.01563)"/></defs><use xlink:href="#DejaVuSans-35"/><use xlink:href="#DejaVuSans-30" x="63.623"/><use xlink:href="#DejaVuSans-30" x="127.246"/></g></g><g id="xtick_3"><use xlink:href="#m37b188ace6" id="line2d_3" x="238.708" y="266.112" style="fill:gray;stroke:gray;stroke-width:.8"/><g id="text_3" style="fill:gray" transform="matrix(.1 0 0 -.1 225.982 280.71)"><defs><path id="DejaVuSans-31" d="M794 531h1031v3560L703 3866v575l1116 225h631V531h1031V0H794v531z" transform="scale(.01563)"/></defs><use xlink:href="#DejaVuSans-31"/><use xlink:href="#DejaVuSans-30" x="63.623"/><use xlink:href="#DejaVuSans-30" x="127.246"/><use xlink:href="#DejaVuSans-30" x="190.869"/></g></g><g id="xtick_4"><use xlink:href="#m37b188ace6" id="line2d_4" x="308.457" y="266.112" style="fill:gray;stroke:gray;stroke-width:.8"/><g id="text_4" style="fill:gray" transform="matrix(.1 0 0 -.1 295.733 280.71)"><use xlink:href="#DejaVuSans-31"/><use xlink:href="#DejaVuSans-35" x="63.623"/><use xlink:href="#DejaVuSans-30" x="127.246"/><use xlink:href="#DejaVuSans-30" x="190.869"/></g></g><g id="xtick_5"><use xlink:href="#m37b188ace6" id="line2d_5" x="378.207" y="266.112" style="fill:gray;stroke:gray;stroke-width:.8"/><g id="text_5" style="fill:gray" transform="matrix(.1 0 0 -.1 365.483 280.71)"><defs><path id="DejaVuSans-32" d="M1228 531h2203V0H469v531q359 372 979 998 621 627 780 809 303 340 423 576 121 236 121 464 0 372-261 606-261 235-680 235-297 0-627-103-329-103-704-313v638q381 153 712 231 332 78 607 78 725 0 1156-363 431-362 431-968 0-288-108-546-107-257-392-607-78-91-497-524-418-433-1181-1211z" transform="scale(.01563)"/></defs><use xlink:href="#DejaVuSans-32"/><use xlink:href="#DejaVuSans-30" x="63.623"/><use xlink:href="#DejaVuSans-30" x="127.246"/><use xlink:href="#DejaVuSans-30" x="190.869"/></g></g><g id="xtick_6"><use xlink:href="#m37b188ace6" id="line2d_6" x="447.957" y="266.112" style="fill:gray;stroke:gray;stroke-width:.8"/><g id="text_6" style="fill:gray" transform="matrix(.1 0 0 -.1 435.233 280.71)"><use xlink:href="#DejaVuSans-32"/><use xlink:href="#DejaVuSans-35" x="63.623"/><use xlink:href="#DejaVuSans-30" x="127.246"/><use xlink:href="#DejaVuSans-30" x="190.869"/></g></g><g id="xtick_7"><use xlink:href="#m37b188ace6" id="line2d_7" x="517.707" y="266.112" style="fill:gray;stroke:gray;stroke-width:.8"/><g id="text_7" style="fill:gray" transform="matrix(.1 0 0 -.1 504.983 280.71)"><defs><path id="DejaVuSans-33" d="M2597 2516q453-97 707-404 255-306 255-756 0-690-475-1069Q2609-91 1734-91q-293 0-604 58T488 141v609q262-153 574-231 313-78 654-78 593 0 904 234t311 681q0 413-289 645-289 233-804 233h-544v519h569q465 0 712 186t247 536q0 359-255 551-254 193-729 193-260 0-557-57-297-56-653-174v562q360 100 674 150t592 50q719 0 1137-327 419-326 419-882 0-388-222-655t-631-370z" transform="scale(.01563)"/></defs><use xlink:href="#DejaVuSans-33"/><use xlink:href="#DejaVuSans-30" x="63.623"/><use xlink:href="#DejaVuSans-30" x="127.246"/><use xlink:href="#DejaVuSans-30" x="190.869"/></g></g><g id="xtick_8"><use xlink:href="#m37b188ace6" id="line2d_8" x="587.457" y="266.112" style="fill:gray;stroke:gray;stroke-width:.8"/><g id="text_8" style="fill:gray" transform="matrix(.1 0 0 -.1 574.732 280.71)"><use xlink:href="#DejaVuSans-33"/><use xlink:href="#DejaVuSans-35" x="63.623"/><use xlink:href="#DejaVuSans-30" x="127.246"/><use xlink:href="#DejaVuSans-30" x="190.869"/></g></g><g id="xtick_9"><use xlink:href="#m37b188ace6" id="line2d_9" x="657.207" y="266.112" style="fill:gray;stroke:gray;stroke-width:.8"/><g id="text_9" style="fill:gray" transform="matrix(.1 0 0 -.1 644.482 280.71)"><defs><path id="DejaVuSans-34" d="M2419 4116 825 1625h1594v2491zm-166 550h794V1625h666v-525h-666V0h-628v1100H313v609l1940 2957z" transform="scale(.01563)"/></defs><use xlink:href="#DejaVuSans-34"/><use xlink:href="#DejaVuSans-30" x="63.623"/><use xlink:href="#DejaVuSans-30" x="127.246"/><use xlink:href="#DejaVuSans-30" x="190.869"/></g></g></g><g id="matplotlib.axis_2"><g id="ytick_1"><g id="line2d_10"><defs><path id="m32d7f6ab69" d="M0 0h-3.5" style="stroke:gray;stroke-width:.8"/></defs><use xlink:href="#m32d7f6ab69" x="71.308" y="260.341" style="fill:gray;stroke:gray;stroke-width:.8"/></g><g id="text_10" style="fill:gray" transform="matrix(.16 0 0 -.16 0 266.42)"><defs><path id="DejaVuSans-2212" d="M678 2272h4006v-531H678v531z" transform="scale(.01563)"/></defs><use xlink:href="#DejaVuSans-2212"/><use xlink:href="#DejaVuSans-32" x="83.789"/><use xlink:href="#DejaVuSans-30" x="147.412"/><use xlink:href="#DejaVuSans-30" x="211.035"/><use xlink:href="#DejaVuSans-30" x="274.658"/><use xlink:href="#DejaVuSans-30" x="338.281"/></g></g><g id="ytick_2"><use xlink:href="#m32d7f6ab69" id="line2d_11" x="71.308" y="198.64" style="fill:gray;stroke:gray;stroke-width:.8"/><g id="text_11" style="fill:gray" transform="matrix(.16 0 0 -.16 0 204.72)"><use xlink:href="#DejaVuSans-2212"/><use xlink:href="#DejaVuSans-31" x="83.789"/><use xlink:href="#DejaVuSans-30" x="147.412"/><use xlink:href="#DejaVuSans-30" x="211.035"/><use xlink:href="#DejaVuSans-30" x="274.658"/><use xlink:href="#DejaVuSans-30" x="338.281"/></g></g><g id="ytick_3"><use xlink:href="#m32d7f6ab69" id="line2d_12" x="71.308" y="136.94" style="fill:gray;stroke:gray;stroke-width:.8"/><use xlink:href="#DejaVuSans-30" id="text_12" style="fill:gray" transform="matrix(.16 0 0 -.16 54.127 143.019)"/></g><g id="ytick_4"><use xlink:href="#m32d7f6ab69" id="line2d_13" x="71.308" y="75.24" style="fill:gray;stroke:gray;stroke-width:.8"/><g id="text_13" style="fill:gray" transform="matrix(.16 0 0 -.16 13.408 81.319)"><use xlink:href="#DejaVuSans-31"/><use xlink:href="#DejaVuSans-30" x="63.623"/><use xlink:href="#DejaVuSans-30" x="127.246"/><use xlink:href="#DejaVuSans-30" x="190.869"/><use xlink:href="#DejaVuSans-30" x="254.492"/></g></g><g id="ytick_5"><use xlink:href="#m32d7f6ab69" id="line2d_14" x="71.308" y="13.54" style="fill:gray;stroke:gray;stroke-width:.8"/><g id="text_14" style="fill:gray" transform="matrix(.16 0 0 -.16 13.408 19.618)"><use xlink:href="#DejaVuSans-32"/><use xlink:href="#DejaVuSans-30" x="63.623"/><use xlink:href="#DejaVuSans-30" x="127.246"/><use xlink:href="#DejaVuSans-30" x="190.869"/><use xlink:href="#DejaVuSans-30" x="254.492"/></g></g></g><path id="line2d_15" d="m99.207 137.078.282-.269.282.256.282-.243.282.231.282-.221.282.212.282-.203.282.195.282-.188.282.18.282-.173.282.167.282-.16.282.154.282-.15.282.145.282-.14.282.136.282-.13.282.125.282-.122.282.118.282-.114.282.11.282-.106.281.102.282-.098.282.095.282-.091.282.087.282-.083.282.079.282-.075.282.07.282-.065.282.06.564-.006.846-.03 1.128.087.282-.278.282 1.222.282 5.732.282 1.67.845 2.946.564 3.228.564.909.282 1.523.282 2.287.282.972.282-.01.282-2.431.282-7.924.846-42.08.282-2.987.282.706.564 2.3.282 2.349.282 1.351.282-.091.282.035.282.782.282.05.282 2.505.281 9.12.564 21.4.282 2.39.564 1.36.282-2.656.282-4.455.282-2.264.282.532.282.28.282-.307.282.429.564 3.014.846 2.651.282-.011.282-.664.282.059.282 1.207.282.358.282-.522.282.035.281.685.282.158.282 1.25.564 5.51.282-.001.282-.127.282 1.327.282 1.94.282 1.08.282.087.282-.764.282.069.564 3.1.282-2.611.282-9.251.846-47.51.282-4.487.282.913.846 12.943.281-.096.282-1.096.282.15.282.553.282 1.107.282 4.273 1.128 30.234.282-.046.282-2.907.282-.61.282 1.18.282-.284.282-.039.282 1.521.282.247.282-1.582.282.536.282 1.776.282-1.332.282-3.129.282.116.282 2.1.282.4.281-.32.564 2.999.282.45.564.483.282-.442.282.762.282 3.973.282 5.596.282 3.08.282-.024.282.152.282 2.175.282 1.18.282-1.176.282.212.282 3.064.282-1.105.282-10.822.564-30.072.564-17.12.282-3.267.281.617.282.898.282-1.482.282-2.608.282-.87.564 1.855.282 1.214.282 3.798 1.128 29.069.282 1.279.282-1.141.282.772.282 3.161.282 1.097.282-1.497.282.215.282 2.497.282.224.282-2.176.282-.14.563 5.748.282 1.739.282.932.282-.24.282-.926.282-.307.282-.557.282-.894.282.526.282 1.321.564-1.462.282 2.914.282 4.44.282 1.544.282.195.564 3.633.564 1.619.282.363.282-.224.282 2.352.282 4.329.282-2.33 1.127-54.063.282-4.143.282-1.105.282.163.282.794.564 3.492.282-1.708.282-3.022.282-.61.282 2.91.282 6.315.564 17.57.282 5.3.282 1.3.846-3.535.282-.11.282-.295.282.898.282 1.947.563 1.988.846 9.038.282-.232.282 1.077.282 1.74.282.987.282.394.282-.266.282-1.125.282-.413.846 2.802.564 5.159.282.72.282-.506.282.446.846 4.071.282.237.282-1.401.281-2.92.282-5.208.282-10.004.846-40.258.282-3.723.282-2.034.282-.776.282 2.575.564 7.698.282.326.282-.583.282.414.282 3.525.564 19.783.282 9.165.282 4.49.282 1.445.282.172.282-1.285.845-9.382.282.23 1.128 4.807.282.548.282.253.282-.445.282-1.032.282 1.062.564 8.609.282-.481.282-1.032 1.128 9.682.846 5.916.282 1.756.282-1.206.282-2.574.281.305.282 1.82.282.165.282-.587.282-2.489.282-10.243.846-47.363.282-7.619.282-2.41 1.128 7.463.282 1.625.282-.216.282.193.282 4.676 1.128 36.236.282 1.678.845-4.195.282-.213.282-.02.282.473.282-.49.564-5.944.282 1.266.282 3.041.564 1.61.564 9.027.282.844.282-.01.564 4.455.564-2.053.282 1.15.564 4.743.564 6.452.563 3.26.564 5.048.564 2.443.282-.286.282-7.09.564-34.147.564-29.431.282-6.082.282-2.543.282-.782.282 1.21.282 1.914.564.601.564 7.143.282 4.04.282 8.196.564 25.723.282 3.228.563-6.022.564-.816.282-1.81.282-.86.282 2.725.282 4.301.282 2.166.282.686.564 4.89.282.16.564-3.3.282.406.282 1.918.564 5.747.282 1.298.282.537.282 1.659.564 5.515.564 2.274.845 6.012 1.128 3.873.282-3.405.282-12.415.846-51.959.282-8.106.564-5.715.282-2.362.282-.292.282 1.78.282-.425.282-3.42.282-1.376.282 3.449.282 7.226.564 25.809.281 13.59.282 7.988.282 2.662.282-.158.564-1.928.282-.748.564-3.873.282-.227.282 1.82.846 7.183 1.128 6.123.282.466.282-.978.564-3.704.282.093.282 2.67.845 12.559.282 1.448.564 1.747.282 1.78.564 4.12.282.645.282.193.282-4.039.282-13.19.846-53.079.564-22.991.282-5.396.282-2.438.282.048.282 3.89.282 5.655.282 3.052.282.948.282 4.452 1.127 42.569.282 5.693.282 1.622 1.128-6.553.282-1.353.282.123.564 1.506.282 1.798.846 14.875.282.95.282.167.282.595.282 1.301.282 1.964.282 1.022.282-.987.282-.38.281 1.943.282.978.564-3.798.282 1.11 1.128 8.486.282-.27.282.783.282 2.066.282-1.899.282-10.609 1.128-67.368.564-15.136.282-1.494.282.872.282.003.282.743.845 7.616.282 9.223.564 33.018.282 9.532.282 3.622.846 4.899.282.073.282-1.168.282.194.282 2.29.282.844.564-6.306.282.212.282 2.211.564 2.653.564 4.356.282.026.282-.225.563-.202.282 1.913.564 10.652 2.538 23.409.282.961.282-6.509.564-40.804.564-35.695.564-20.973.564-13.507.282-4.002.282-1.318.281.262.282.858.282 2.674.282 6.977.564 30.66.564 32.972.282 7.996.282 2.59.282-.184.564-1.022.282-1.19.564-2.8.282-.311.282.536.846 4.71.282 3.137.564 9.312.282-.266.282-.492.563 3.178.282.121.282 1.223.282 2.101.564 1.315.846 10.904.282.76.282 1.512.564 5.048.282 3.24.282 1.546.282-6.578.564-40.531.564-37.714.564-25.295.564-15.541.281-3.663.282-1.218.564-.995.282 1.26.282 4.611.282 10.095 1.128 65.384.282 8.321.282 4.502.282 1.42.282.267.282-.993.846-10.073.282 1.445.282.497.282-.454.282 2.706.564 9.25.282-.253.281.424.282 2.408.282.47.564-4.018.282.765.564 3.815.564 7.516 1.41 23.669.282 1.771.282-.69.282-1.765.282-3.075.282-8.955.564-41.081.564-36.892 1.127-43.12.282-3.505.564-3.254.282-.023.282 2.174.282 6.773.282 14.985.846 60.097.564 17.657.282 3.862.282-.842.564-8.53.282-1.026.282-.434.282-2.277.282-1.294.282 3.19.282 5.062.281 2.535.282 1.072.564 3.507.282-.372.282 1.624.564 7.331.282.748.564 5.661.282-.642.282-1.597.282 2.394.282 4.176.564 3.41.564 2.927.564 3.352.282-3.542.564-31.605 1.41-79.646.563-14.213.282-4.115.564-3.068.282.131.282 4.37.282 9.173.564 29.17.564 32.135.564 14.875.282 3.801.282-.05.282-1.68.282-.58.282-1.303.282-2.57.282.474.563 9.362.564 6.091.282 4.136.282 2.291.282-.455.282-1.79.282-1.066.282 1.219.564 4.375.282 1.032.282 2.297 1.128 13.124.564 4.442.282 1.698.282 3.027.282 4.335.282 1.56.282-6.594.563-37.568.846-61.264.564-24.598.564-15.651.564-8.583.282-1.81.282.906.282 6.594.846 47.07.846 45.934.846 12.214.282 1.407.282-.879.282.49.282 1.072.281-.007.282.592.282 1.793.282 1.007.282.41.282 2.485.564 7.88.282 1.231.282 2.23.564 7.672.282-.513.282-1.053.282 1.483 2.256 22.834.282 2.252.282.04.281-8.203.846-62.958 1.128-74.995.564-22.37.282-3.188.564-3.549.282-.246.282 5.712.564 29.267 1.128 59.64.564 17.628 1.41 32.595.281-.004.282-2.092.564 2.565.282-3.598.282-5.164.282-1.023.564 3.68.282.903.282 2.515.564 9.38.282 2.388.282.867.564 5.145.282-.258.282-1.769.282 2.978.564 16.686.282 5.135.281 2.226.282-4.642.282-16.18 1.692-132.3.564-21.786.282-5.372.282-1.085.282.493.282.063.282 3.102.282 9.142 1.41 60.853 1.41 50.346.281 3.386.282 1.45.282 2.419.282 4.03.282 2.403.282-.244.282.002.282.801.564-.56.282 1.09.282.568.282.178.564 5 .282-.805.282.126.846 15.424.282 2.115.564 13.6.563 12.125.282.68.282-6.738.282-17.68 1.128-105.3.564-36.644.564-17.8.282-5.661.282-1.497.282-.169.282-1.641.282 3.036 1.128 44.954 1.41 50.22.845 24.277.282 3.877 1.128 6.662.564 3.615.282 1.455.846 9.166.282 1.466.564 6.487.282.5.282 1.467 2.255 39.86.282-.16.282-11.102.564-49.322.846-73.05.564-33.085.564-14.296.282-5.392.564-5.169.282-2.314.282 2.197.846 31.28.564 9.436 1.127 29.464.564 20.74.564 20.452 1.128 23.703.282 1.246.282 2.117.282.908.282-.541.282 2.96.564 11.293.282 2.093.282 5.163.564 14.647.846 8.875.845 15.511.564 10.56.282-1.652.282-11.427.564-42.7 1.128-103.878.846-35.388.564-20.343.564-8.351.282-3.023.282 3.108 1.691 65.227 1.128 30.109 1.974 52.174.846 17.906.282 1.396.282 2.395.282 4.139.282 1.67.282-.696.282 1.727.564 9.303.282 3.063.282 4.72 1.127 32.114.564 10.281.282-4.204.282-18.063 1.692-154.799.846-42.868.564-14.104.282-1.848.282-.062.282 2.455.282 8.154.564 23.143 1.973 60.635.564 8.34.564 10.029.282 3.776 3.102 72.539.282-.889.282-1.522.282 1.746.281 2.916.282.625.282.954.282 6.077.282 8.576.282 4.662.282 2.362.564 15.888.282-2.704.564-44.464 1.41-133.565.564-33.84.564-15.457.282-4.977.282-1.431.282 4.096.563 20.295.846 36.32.564 13.11.564 12.299.282 5.82.564 7.14.564 12.19.282 4.254.282 6.188.846 22.747.846 15.907.564 6.197.282 2.75 1.127 16.504.846 9.254.282-.454.282.88.282 5.038.564 14.846.282 3.493.282.75.282-3.399.282-13.6 1.692-149.295.564-23.183.564-12.708.282-2.206.281-.703.282 2.379.282 7.926.846 32.928.564 17.06.564 17.37 1.41 26.784.846 10.57.564 2.467.282 2.6.564 9.281.564 10.866.563 8.022.564 9.28.282 2.979.282 4.698.564 14.02.282 4.217.564 5.63.564 7.758.282 2.838.564 11.355.282.475.282-10.808.564-47.327.846-84.198.564-34.674.563-20.645.564-10.965.282-1.93.282 1.003.282 6.125 1.41 55.636.564 10.494 1.41 18.259.846 14.602.564 5.287 1.41 19.273.845 15.37.282 1.625.282 2.316 1.41 29.083.564 16.64.846 13.635.282 3.147.564 2.77.282-3.817.282-14.332.564-54.834.563-61.316.564-36.841.564-24.366.564-13.23.282-1.442.564 7.022.282 3.744.282 7.325 1.128 40.634.564 12.095 1.128 14.32.564 1.622.282 1.74.281 2.754.564 8.99.564 7.571.282 3.161 1.974 37.697.564 9.483 1.128 20.664.564 6.626.564 6.569.282 3.253.282 1.563.281-.927.282-7.312.282-19.055 1.128-107.984.564-32.798.564-16.373.282-6.341.282-3.593.282.63.282 3.806.282 6.678 1.41 45.632.564 6.305.564 12.473.845 9.62.564 12.095.846 8.073.282.717.282-.542.282.988.846 8.673 1.974 31.367.846 28.585 1.691 32.294.282 1.013.282-8.58.282-18.453.564-63.339.564-56.019.846-38.798.282-7.865.564-7.661.282-.255.282 2.58.282 3.804.282 6.834.846 37.766.845 18.559 1.128 16.196.282.333.564 2.249.282-1.06.282-.362.564 5.363.282.78.282 1.272.846 8.107 1.692 29.584.845 15.463 1.41 30.638.564 12.068.282 1.007.282-7.108.282-18.933.846-81.584.846-45.597.564-17.254.282-5.962.282-2.859.282.761.282 2.322.282 3.897.563 17.811.564 15.721 1.128 21.01.564 4.523.846 4.75.282-.002.282 1.773.564 8.168.564 2.854 2.537 26.877 1.128 17.41 1.128 23.057.564 12.693.282 5.15.282 2.532.282-8.513 1.128-90.226.846-41.916.564-15.092.282-4.556.282-1.202.281.17.282 1.295.282 4.603.846 22.1.846 14.372.282 3.337.282 1.663.282.609.564 3.57.282-.136.282-.535.282 4.359.564 14.82.282 2.76.846 12.454.282-2.352.282-.662 1.127 10.099.282-.425.282 1.225.846 14.502.564 9.233.564 9.964.564 14.487.282 3.527.282-1.21.282-10.785.846-64.745.846-37.141.845-22.796.282-1.772.564 1.714.282 2.23.282 5.04.846 21.74.564 8.46.564 13.013.282 2.103.282.771.282 1.618.282.574.282-1.454.282-.443.282 2.601.846 15.4.282-.565.282-2.6.281.87.282 3.415.564 2.06 1.41 21.364.564.543 1.128 16.525.564 14.272.282 4.122.282 1.107.282-7.807 1.128-68.446.563-22.648.846-20.762.282-4.655.282-1.848.282-.025.282 1.45.282 4.69 1.41 34.854.282 5.248.846 5.472.282-1.191.282-3.148.282-1.12.564 4.06.282.806.282 3.024.563 12.254.282.925.282 1.514.564 9.064.564-5.522.282 1.425.282 2.497.282.469.282.723.564 5.195 1.692 26.74.564 13.199.282-1.592.282-12.73.564-34.79.845-30.281 1.41-35.124.282-1.362.564 3.103.282 3.042 1.128 21.443.564 5.181.846 11.743.282 1.306.564-.329.282.141.281.494.282 1.132.564 3.954.846 3.581 1.41 10.56.282 1.84 1.692 22.821.564 1.615.282 3.051.564 8.691.282.018.282-4.261.281-9.31.846-41.815.564-15.963.564-18.78.282-5.253.282-2.724.564-1.977.282.433.282 3.31.846 20.721.282 2.48.564-3.484.282 2.19.282 3.222.282.709.282.21.563 3.583.282-.491.282.53.564 4.867.282.522.282 1.487 1.128 18.043.282 2.315.564 6.118.564 1.471.282 1.886.846 10.688.564-4.13.282 3.03.282 5.313.282 1.493.281.248.282 1.381.282-3.918.846-33.514.282-10.684.564-25.433.846-8.358.282-1.279.282.183.282-1.382.282-.725.282 4.127.564 11.176.282 2.787.564 10.523.282 4.776 1.127 7.804.282-.355.282-1.851.282-.753.282 1.923.846 9.727 1.128 6.765.282 1.975.564 5.593.282.782.282 1.932.282 3.514.282 1.404.282-.27.282 4.257.282 7.253.282 3.038.282-.209.282 4.425.281 7.29.282 1.13.282-8.621.846-41.789.846-21.908.564-13.808.564-8.94.282-.742.564 4.68.282.362.282 2.144.846 12.626.564 4.729.282.98.282.474.563 2.537.564 4.965.282.696.282-.07.564 3.96.282 2.225.282 4.271.282 6.207.282 3.517.282 1.41.282 3.142.282 4.613.282 1.857.282.435.564 3.035.282.422.564 4.616.282-.333.282-2.79.282.53.845 12.424.282.813.282-6.27.846-31.973.564-12.82 1.128-16.42.564-3.238.564-9.53.282-.963.564 7.746.564 9.546.282 2.99.282.779.845 6.74.282.04.846 3.3.282.18.282 2.664.564 7.155.282.44.282 1.225.564 3.91.282-.83.282 1.148.282 2.397.282 3.46.282 1.55.282 3.997.564 2.723.282.225.282 6.593.282 1.056.281 3.579h0" clip-path="url(#p2f524958e8)" style="fill:none;stroke:#1f77b4;stroke-width:1.5;stroke-linecap:square"/><path id="patch_3" d="M71.308 266.112V0" style="fill:none;stroke:gray;stroke-width:.8;stroke-linejoin:miter;stroke-linecap:square"/><path id="patch_4" d="M685.107 266.112V0" style="fill:none;stroke:#000;stroke-width:.8;stroke-linejoin:miter;stroke-linecap:square"/><path id="patch_5" d="M71.308 266.112h613.8" style="fill:none;stroke:gray;stroke-width:.8;stroke-linejoin:miter;stroke-linecap:square"/><path id="patch_6" d="M71.308 0h613.8" style="fill:none;stroke:#000;stroke-width:.8;stroke-linejoin:miter;stroke-linecap:square"/></g></g><defs><clipPath id="p2f524958e8"><path d="M71.308 0h613.8v266.112h-613.8z"/></clipPath></defs></svg>