<svg xmlns="http://www.w3.org/2000/svg" xmlns:xlink="http://www.w3.org/1999/xlink" width="913.477" height="377.053" viewBox="0 0 685.107 282.79"><defs><style>*{stroke-linejoin:round;stroke-linecap:butt}</style></defs><g id="figure_1"><path id="patch_1" d="M0 282.79h685.107V0H0v282.79z" style="fill:none"/><g id="axes_1"><path id="patch_2" d="M71.308 266.112h613.8V0h-613.8v266.112z" style="fill:none"/><g id="matplotlib.axis_1"><g id="xtick_1"><g id="line2d_1"><defs><path id="md3708b87d9" d="M0 0v3.5" style="stroke:gray;stroke-width:.8"/></defs><use xlink:href="#md3708b87d9" x="99.207" y="266.112" style="fill:gray;stroke:gray;stroke-width:.8"/></g><g id="text_1" style="fill:gray" transform="matrix(.1 0 0 -.1 96.026 280.71)"><defs><path id="DejaVuSans-30" d="M2034 4250q-487 0-733-480-245-479-245-1442 0-959 245-1439 246-480 733-480 491 0 736 480 246 480 246 1439 0 963-246 1442-245 480-736 480zm0 500q785 0 1199-621 414-620 414-1801 0-1178-414-1799Q2819-91 2034-91q-784 0-1198 620-414 621-414 1799 0 1181 414 1801 414 621 1198 621z" transform="scale(.01563)"/></defs><use xlink:href="#DejaVuSans-30"/></g></g><g id="xtick_2"><use xlink:href="#md3708b87d9" id="line2d_2" x="168.958" y="266.112" style="fill:gray;stroke:gray;stroke-width:.8"/><g id="text_2" style="fill:gray" transform="matrix(.1 0 0 -.1 159.414 280.71)"><defs><path id="DejaVuSans-35" d="M691 4666h2478v-532H1269V2991q137 47 274 70 138 23 276 23 781 0 1237-428 457-428 457-1159 0-753-469-1171Q2575-91 1722-91q-294 0-599 50Q819 9 494 109v635q281-153 581-228t634-75q541 0 856 284 316 284 316 772 0 487-316 771-315 285-856 285-253 0-505-56-251-56-513-175v2344z" transform="scale(.01563)"/></defs><use xlink:href="#DejaVuSans-35"/><use xlink:href="#DejaVuSans-30" x="63.623"/><use xlink:href="#DejaVuSans-30" x="127.246"/></g></g><g id="xtick_3"><use xlink:href="#md3708b87d9" id="line2d_3" x="238.708" y="266.112" style="fill:gray;stroke:gray;stroke-width:.8"/><g id="text_3" style="fill:gray" transform="matrix(.1 0 0 -.1 225.982 280.71)"><defs><path id="DejaVuSans-31" d="M794 531h1031v3560L703 3866v575l1116 225h631V531h1031V0H794v531z" transform="scale(.01563)"/></defs><use xlink:href="#DejaVuSans-31"/><use xlink:href="#DejaVuSans-30" x="63.623"/><use xlink:href="#DejaVuSans-30" x="127.246"/><use xlink:href="#DejaVuSans-30" x="190.869"/></g></g><g id="xtick_4"><use xlink:href="#md3708b87d9" id="line2d_4" x="308.457" y="266.112" style="fill:gray;stroke:gray;stroke-width:.8"/><g id="text_4" style="fill:gray" transform="matrix(.1 0 0 -.1 295.733 280.71)"><use xlink:href="#DejaVuSans-31"/><use xlink:href="#DejaVuSans-35" x="63.623"/><use xlink:href="#DejaVuSans-30" x="127.246"/><use xlink:href="#DejaVuSans-30" x="190.869"/></g></g><g id="xtick_5"><use xlink:href="#md3708b87d9" id="line2d_5" x="378.207" y="266.112" style="fill:gray;stroke:gray;stroke-width:.8"/><g id="text_5" style="fill:gray" transform="matrix(.1 0 0 -.1 365.483 280.71)"><defs><path id="DejaVuSans-32" d="M1228 531h2203V0H469v531q359 372 979 998 621 627 780 809 303 340 423 576 121 236 121 464 0 372-261 606-261 235-680 235-297 0-627-103-329-103-704-313v638q381 153 712 231 332 78 607 78 725 0 1156-363 431-362 431-968 0-288-108-546-107-257-392-607-78-91-497-524-418-433-1181-1211z" transform="scale(.01563)"/></defs><use xlink:href="#DejaVuSans-32"/><use xlink:href="#DejaVuSans-30" x="63.623"/><use xlink:href="#DejaVuSans-30" x="127.246"/><use xlink:href="#DejaVuSans-30" x="190.869"/></g></g><g id="xtick_6"><use xlink:href="#md3708b87d9" id="line2d_6" x="447.957" y="266.112" style="fill:gray;stroke:gray;stroke-width:.8"/><g id="text_6" style="fill:gray" transform="matrix(.1 0 0 -.1 435.233 280.71)"><use xlink:href="#DejaVuSans-32"/><use xlink:href="#DejaVuSans-35" x="63.623"/><use xlink:href="#DejaVuSans-30" x="127.246"/><use xlink:href="#DejaVuSans-30" x="190.869"/></g></g><g id="xtick_7"><use xlink:href="#md3708b87d9" id="line2d_7" x="517.707" y="266.112" style="fill:gray;stroke:gray;stroke-width:.8"/><g id="text_7" style="fill:gray" transform="matrix(.1 0 0 -.1 504.983 280.71)"><defs><path id="DejaVuSans-33" d="M2597 2516q453-97 707-404 255-306 255-756 0-690-475-1069Q2609-91 1734-91q-293 0-604 58T488 141v609q262-153 574-231 313-78 654-78 593 0 904 234t311 681q0 413-289 645-289 233-804 233h-544v519h569q465 0 712 186t247 536q0 359-255 551-254 193-729 193-260 0-557-57-297-56-653-174v562q360 100 674 150t592 50q719 0 1137-327 419-326 419-882 0-388-222-655t-631-370z" transform="scale(.01563)"/></defs><use xlink:href="#DejaVuSans-33"/><use xlink:href="#DejaVuSans-30" x="63.623"/><use xlink:href="#DejaVuSans-30" x="127.246"/><use xlink:href="#DejaVuSans-30" x="190.869"/></g></g><g id="xtick_8"><use xlink:href="#md3708b87d9" id="line2d_8" x="587.457" y="266.112" style="fill:gray;stroke:gray;stroke-width:.8"/><g id="text_8" style="fill:gray" transform="matrix(.1 0 0 -.1 574.732 280.71)"><use xlink:href="#DejaVuSans-33"/><use xlink:href="#DejaVuSans-35" x="63.623"/><use xlink:href="#DejaVuSans-30" x="127.246"/><use xlink:href="#DejaVuSans-30" x="190.869"/></g></g><g id="xtick_9"><use xlink:href="#md3708b87d9" id="line2d_9" x="657.207" y="266.112" style="fill:gray;stroke:gray;stroke-width:.8"/><g id="text_9" style="fill:gray" transform="matrix(.1 0 0 -.1 644.482 280.71)"><defs><path id="DejaVuSans-34" d="M2419 4116 825 1625h1594v2491zm-166 550h794V1625h666v-525h-666V0h-628v1100H313v609l1940 2957z" transform="scale(.01563)"/></defs><use xlink:href="#DejaVuSans-34"/><use xlink:href="#DejaVuSans-30" x="63.623"/><use xlink:href="#DejaVuSans-30" x="127.246"/><use xlink:href="#DejaVuSans-30" x="190.869"/></g></g></g><g id="matplotlib.axis_2"><g id="ytick_1"><g id="line2d_10"><defs><path id="mbe81f0c0ca" d="M0 0h-3.5" style="stroke:gray;stroke-width:.8"/></defs><use xlink:href="#mbe81f0c0ca" x="71.308" y="206.14" style="fill:gray;stroke:gray;stroke-width:.8"/></g><g id="text_10" style="fill:gray" transform="matrix(.16 0 0 -.16 0 212.218)"><defs><path id="DejaVuSans-2212" d="M678 2272h4006v-531H678v531z" transform="scale(.01563)"/></defs><use xlink:href="#DejaVuSans-2212"/><use xlink:href="#DejaVuSans-32" x="83.789"/><use xlink:href="#DejaVuSans-30" x="147.412"/><use xlink:href="#DejaVuSans-30" x="211.035"/><use xlink:href="#DejaVuSans-30" x="274.658"/><use xlink:href="#DejaVuSans-30" x="338.281"/></g></g><g id="ytick_2"><use xlink:href="#mbe81f0c0ca" id="line2d_11" x="71.308" y="140.612" style="fill:gray;stroke:gray;stroke-width:.8"/><use xlink:href="#DejaVuSans-30" id="text_11" style="fill:gray" transform="matrix(.16 0 0 -.16 54.127 146.69)"/></g><g id="ytick_3"><use xlink:href="#mbe81f0c0ca" id="line2d_12" x="71.308" y="75.084" style="fill:gray;stroke:gray;stroke-width:.8"/><g id="text_12" style="fill:gray" transform="matrix(.16 0 0 -.16 13.408 81.163)"><use xlink:href="#DejaVuSans-32"/><use xlink:href="#DejaVuSans-30" x="63.623"/><use xlink:href="#DejaVuSans-30" x="127.246"/><use xlink:href="#DejaVuSans-30" x="190.869"/><use xlink:href="#DejaVuSans-30" x="254.492"/></g></g><g id="ytick_4"><use xlink:href="#mbe81f0c0ca" id="line2d_13" x="71.308" y="9.556" style="fill:gray;stroke:gray;stroke-width:.8"/><g id="text_13" style="fill:gray" transform="matrix(.16 0 0 -.16 13.408 15.635)"><use xlink:href="#DejaVuSans-34"/><use xlink:href="#DejaVuSans-30" x="63.623"/><use xlink:href="#DejaVuSans-30" x="127.246"/><use xlink:href="#DejaVuSans-30" x="190.869"/><use xlink:href="#DejaVuSans-30" x="254.492"/></g></g></g><path id="line2d_14" d="m99.207 140.6 1.41.026.846-.03.846.034.846-.04.846.045.846-.05.282.055.282-.058.282.06.282-.063.282.067.281-.07.282.074.282-.079.282.084.282-.089.282.094.282-.1.282.107.282-.115.282.124.282-.134.282.146.282-.16.282.176.282-.196.282.221.282-.252.282.293.282-.35.282.431.282-.559.282.793.282-1.353.282 5.042.282 7.746.281.688.282 2.613.282.17.282 1.027.282.294.282-2.072.282-9.022.564-25.274.564-13.382.282-.931.282 3.286.846 17.744.564 5.731.282.9.282-.145.282.154.282 2.816.564 6.954.282.376.282-.56.281-1.687.564-5.462.282-.827.846-.12.564.786.846 3.421.282-.393.282.103.282.654.282.126.282-.58.282.278.564 1.551.282 1.306.564 3.919.282.183.282.37.281 1.38.282.138.564-3.03.564 1.622.282.01.282.36.846 6.238.282-.299.282.576.564 3.065.564 1.376.282-.323.282-3.863.282-9.372.846-38.664.282-3.768.282 2.195.563 11.994.564 12.332.282 2.173.282.318.282-.104.282-.666.282-1.166.282.95.564 8.478.282 1.378.564-1.178.282-.207.846-3.376.282-.287.282-.057.846 1.921.282.016.282.478.281.244.282-.015.282 1.12.282 2.484.282 1.272.282-.536.282.121.282 1.57.282-.19.564-5.327.282.47.282 1.136.282-.113.282.315.282 3.247.282 4.559.282 2.365.282-.083.282.82.282 2.006.282-.322.282-3.328.282-1.813.563 2.727.282.073.282 1.72.564 5.922.282.1.282-2.296.282-7.813.846-41.265.282-5.412.282-1.679.282 2.447.846 21.428.282 3.211.282 1.543.282-.082.564-3.941.282.28.282 3.684.563 11.337.282 2.923.282-.275.282-1.577.282-.735.282.06.282-.79.282-1.37.282-.571.282.117.564-1.4.282.11.564 1.407.282.713.564 2.193.564-.04.282.433.282.205.282-.178.282.59.282 1.224.282.69.281.038.282.68.282 1.239.282.714.282-.018.282.195.846 1.776.282.085.564-1.91.282.416.282 1.042.282.305.282.75 1.128 10.558.564 2.156.282-.026.282-2.895.282-9.436.845-43.042.282-5.402.282-1.295.282 3.85.846 24.367.282 3.201.282 1.077.282-1.27.564-4.662.282.586.282 3.426.564 9.515.282 1.31 1.41-5.278.282-.873.282-.21.281.824.564 3.213.282.846.564.572.846 1.756.846-.498.282.064.282.322.282.545.282.017.282-.115.282 1.29.282 2.657.282 1.413.282-.601.282-.29.564 3.05.282.608.281.3.564 1.42.282.849.282.09.564-2.364.282.497.282 1.28.564 1.181.282 1.658.564 4.497.282 1.093.282-.03.564-.822.282-3.531.282-10.28.564-29.414.282-8.631.282-4.261.282-1.23.281 2.999.846 21.14.282 2.87.282.495.282-1.907.282-3.236.282-1.195.282 2.9.564 10.385.282 3.259.282 1.59.282.189 1.41-4.046.282-.671.282-.183.846 1.725.282.055.563 1.167.282.1.282-.532.282-.07.282 1.312.564 4.407.282.803 1.128.401.282.665.564 1.811.282.512.282.203.282-.63.564-2.378.282.307.282.514.282-.065.282.294.563 1.878.282.282.282.87.564 3.97.846 8.114.282.357.282-.375.282-2.756.282-9.743.846-45.9.282-6.58.282-2.044.282 3.654.846 28.09.282 4.079.282 2.002.282 1.02.281-.196.282-.73.282 1.087.564 6.483.282.357.564-3.286.846-2.436.282-.333.282 1.08.564 3.152.846 1.364.564.192.282.52.282.079.282-.331.282.035.282.233.282-.105.281.66.564 3.378.282-.031.282.139.282.976.282.036.282-1.555.282-.78.282 1.361.282 1.942.282.667.282-.052.282.437.282.81.564.547.846 3.74.282.049.282 1.422.282 2.332.845 3.398.282-.594.282-7.574 1.128-54.142.282-5.66.282 1.172.282 7.129.846 29.491.282 4.367.282-.102.564-4.806.282-.012.282 3.347.564 10.295.282.96 1.128-6.343.281-.939.846-.138.282.96.282 1.61.282.474.282-.326.282.425.282.917.282.295.282.548.564 2.277.564-1.057.564 1.524.564.545.846 1.7.845 3.898.564 2.53.564 2.041.282.744.564 2.562.564 1.142.282 2.355.564 5.73.564 1.276.282-.541.282-7.023 1.41-72.912.282-6.597.282-.108.282 5.932 1.127 38.316.282 1.018.564-2.718.282.693.282 5.08.564 16.408.282 1.422.564-4.618.564-3.77.282-1.754.564-.726.282-.218.282 1.526.282 2.79.282 1.055.282-1.02.282-.4.282 1.093.281.463.282-.46.282.835.282 2.479.282 1.33.564-1.927.564 1.82.282-.487.282-1.195.282.05.564 1.818.282.532.282 2.093.564 6.452.282.798.282.277.282.969.282.57.564-1.423.282 1.307.281 1.998.564 2.573.564 4.812.282.974.282 1.4.282.758.282-4.988.564-29.249 1.128-59.577.282-4.673.282.016.282 4.16 1.41 43.204.845 13.24.846 23.112.282-2.664.564-9.453.846-6.405.282-.666.282.548.564 2.159 1.128 5.566.282.185.564-.454.564-1.115.282.21.564 2.129.563-.263 1.128 3.547.282 1.082.282.293.282.032 1.692 5.244.282.31.282 1.28.564 6.632.846 5.14 1.127 7.9.282-4.486.564-29.765 1.128-71.753.282-6.41.282-3.115.282 2.11.564 20.737.846 28.318.846 22.754.564 17.156.282 2.11.282-2.553.564-7.75.563-2.635.282-2.355.282-.98.564 2.097.282-.19.282.364.846 4.973.282 1.07.282.398.846-1.536.564-.603.282.654.564 4.104.846 3.313.282 1.394.282-.191.281-.917.282.73.282 2.183.282 1.197.282-.04.282 1.636.564 8.384 1.41 10.224.282.196.282 1.43.282 2.101.282-.896.282-7.408.564-32.29.846-56.165.564-23.67.281-5.783.282-1.275.282 3.387.846 20.965.564 15.393.282 12.134.846 50.018.282 6.16.282.41.282-3.015.564-8.658.564-2.578.564-6.8.282-.632 1.128 7.77.281.48.564.03 1.128-1.075.564-1.301.282.279 1.128 3.119.282.454.282.722.564 2.564.846 5.968 1.128 5.16 2.82 24.037.281-3.127.282-10.55.564-39.687.846-62.283.564-26.783.282-4.895.282 3.107.846 20.463.845 16.81.282 11.356 1.128 67.399.282 3.717.282-3.32.282-4.961.282-2.893.564-3.132.282-.703.282.02.282-.324.282-.508.282.05.564 1.38.564 1.608.282-.234.564-1.418 1.127-1.141.282-.022.282.328.564.227.282.437.564 1.29.282 1.207.564 3.716.564 2.752.282 1.544.564 1.828 1.41 10.12.564 5.39.563 5.985.564 4.22.282-1.184.282-8.747.564-38.878 1.128-84.802.282-13.23.282-6.116.282 1.67.846 20.758.846 21.842.564 35.389.564 35.114.282 10.198.281 3.629.282-1.876.564-7.13.282-2.221.282-.016.282 1.69.282.317.564-4.768.282-.198.564 1.665.846 1.317.282-.178.564-1.305.564-.38.282-.525.282-.032.282.643.563.526.282 1.873.564 6.692.846 6.132.282 2.092.282.695.282-.092.282.824.564 5.892.846 9.433 1.128 14.899.282 2.563.282-2.444.282-9.958.564-41.005 1.127-96.528.282-14.45.282-4.66.282 2.468.564 7.658.282 2.875.282 1.307.282.293.282 2.684.282 7.721.564 29.136.846 52.591.564 15.803.282 3.954.282 1.314.564-1.919.282.282.281.81.282-.256.282-.996.282-.092.282.769.282.337.564-.955.282-.598.282-1.118.564-2.913.564-1.565.846-3.5.282-.261.282.022.282 1.205 1.128 10.439 1.127 8.955.846 5.213.564 4.958.282 1.579.282 2.23 1.41 17.575.282 1.554.282-4.678.282-13.252.564-45.884 1.128-97.061.282-9.995.281-.62.846 10.455.846 8.933.282 5.39.282 9.678.564 32.908.564 32.004.564 19.616.282 3.94.564 1.257.846 5.535.282 1.052.282.512.282-1.308.564-4.387.563-1.631.282-.314.282.613.282-.11.564-2.517.282.47.282-.443.282-1.495.282.862.564 6.8.282.843.282 1.694.564 5.305.282.235.282.564.564 3.521.846 8.365.282 2.69 1.127 16.453.564 8.762.282 2.638.282.84.282-4.43.282-14.492.846-77.996.564-57.53.282-17.66.282-5.184.846 3.813 1.128 9.301.282 4.617.281 9.544L407.954 114l.564 17.513.846 12.984 1.692 21.242.282 1.1.282.536.282-.997.564-4.655.282-.428.282.227 1.41-1.158.563 1.313.282-.191.282.326.846 5.59 1.41 13.87 1.41 18.582.564 9.353.564 8.859.282 3.06.282.233.281-8.116.564-45.374 1.128-113.903.282-10.805.282-1.4.282.392.282-.012.564 1.303.282-1.34.282-2.093.282-.692.282 1.767.282 5.24.564 23.936.564 25.133.564 15.2 1.691 35.695.564 13.336.282 3.964.564 3.212.564 2.033.282.63.282.026.282-.706.564-1.772.282-.153.282.106.282-.137.282-.267.282.188.846 1.228 1.127 6.145 1.128 12.07.564 9.284.564 7.397.564 9.793.846 10.816.282-5.984.282-16.623.564-51.346.846-88.49.282-13.444.282-3.96.563-.69.282-.844.282-1.855.564-6.107.282-.786.282 4.018.564 22.776.564 23.583.846 23.773 2.82 56.515.845 6.516.282.607.282.28.282-.123.564-1.856.282.07 1.128 2.949.282.439.282.663.564 2.082.282 1.745 1.692 17.414 1.127 17.281 1.128 22.753.282 1.886.282-4.366.282-14.99.564-54.197.846-93.167.282-14.41 1.41-31.945.564-7.129.282-1.06.282 2.197.282 6.907.845 35.576.846 34.846.846 22.133.846 14.585.282 3.868.564 4.06.282 4.928.564 12.35 1.692 18.34.564 3.382 1.127 4.735.564 3.653.564.245.282.03.564-3.654.282.565.564 5.323.282 1.318.282 4.766.564 15.156.564 8.332.564 13.061.564 5.627.282.12.281-9.618.564-49.21.846-101.026.564-31.445.564-21.056.282-6.468.282-3.885.282-2.289.282-.816.282.275.282 2.941.282 8.52 1.974 89.457.564 12.758.845 13.499.282.91.282-1.154.282-.315.282 1.818 1.974 21.807 2.256 22.751.282 3.863.282 2.21.282-.263.281-.667.282.267.564 1.26.282 1.413.564 4.533.564 6.728 1.974 27.402.282-3.977.282-13.674.564-54.404.564-70.636.564-40.57.563-22.835.282-5.17.564-2.392.282-.432.282 2.7.564 13.81.564 26.616.564 29.704.846 27.842.564 10.24.564 7.924.282 1.849.282.752.282 1.135.282.663.564-2.071.282 1.044.563 5.113.564 4.162 1.692 17.848 1.974 32.115 1.128 8.254.846 10.296 1.41 21.639.281-1.447.282-10.254.282-21.033 1.41-149.9.564-21.79.282-4.626.282-1.657.282-.482.282.004.282.93.282 3.145.282 7.126.564 26.224.845 39.846.564 16.9.564 8.974.846 6.096.282 1.425.282.486.846-1.86.846-3.019.282.191.282.031.282.994.564 8.523 2.537 39.154 1.128 21.743.564 13.03.564 8.876.846 17.082.564 9.65.282-2.662.282-14.014.282-26.412 1.128-135.861.563-27.49.282-6.561.564-5.733.282-1.497.282 1.076.282 3.224.282 5.197.564 20.035 1.128 45.97.564 10.832.282 3.24.282 1.667.282.9.564 4.002.282.547.282-.187.282.53.282.281.282-.655.281.57.564 5.799.564 1.9.846 6.131.564 5.664 1.974 20.56 2.537 34.618.564 9.555 1.128 19.985.282-4.124.282-16.256.564-64.944.564-58.023.564-26.608.282-6.289.564-5.755.282-1.321.282.682.282 2.296.282 3.574.282 5.937.564 19.858.563 23.278.282 7.547.846 10.83.282.215.282-.943.282 1.41.282 2.243.282-.261.282-1.11.282 1.131.282 1.727.282.143.282.547 1.128 9.975.282 2.462.282 1.037.282.302.282 1.942.564 6.927.563 3.613 1.692 15.88 1.128 9.443.564 5.03.846 14.29 1.128 18.61.282.652.282-6.442.282-16.858 1.127-101.961.564-16.11.282-5.887.282-3.265.564-1.15.282-1.317.282 1.086.564 9.66.282 5.676.564 19.823.564 17.655.564 7.555.282 1.404.282.08.282-.55 1.127-3.218.564-3.227.282-.057.282 1.501.564 5.554.564 6.01.564 3.663.564 5.068.282 1.092.282 1.784.564 7.115 1.974 12.678.563 2.382.564 3.694.282.044.282.352.282 2.553 2.256 30.578.282-3.836.282-13.316 1.128-86.266.564-16.368.564-9.017.282-1.765.281-.286.282 1.04.564 6.763.282 3.785.282 5.35 1.128 33.318.564 6.81.282.768.282-.367.564-1.776 1.128-4.418.282-.823.282-.319.282.414.282 1.165.282 1.811.563 6.131.282 3.054.282 1.43.282.667.282 1.723.564 4.7.564 1.764.846 4.149.846 3.73.282.726.282 1.609.846 6.293 1.41 9.499.563 4.514.846 11.55.564 5.401.282-4.385.282-15.19.846-68.137.282-12.508.564-11.852.282-2.894.282-.86.282.21.282.807.282 2.55.846 12.394.282 8.747.563 22.572.564 9.394.282 3.386.282-.087.846-13.69.282.108.282-1.113.282-1.924.282.632.564 4.982.564-1.145.282 1.69.846 8.563 1.41 9.184.282.97.845 4.576.282.448.282.915.564 2.995.282.653.282 1.358.564 4.766.846 3.8 1.128 9.778.846 10.34.282 3.474.282 1.816.282-5.464.563-36.698.564-36.582.564-17.794.282-3.175.282-.467.282.283.564-1.007.282 1.786.282 2.932.564 2.277.282 4.284.846 23.104.564 6.75.282 1.156.282-.349.846-3.043 1.127-1.88.282-.03.282-.372.282-.898.282-.279.282 1.236.846 6.985.564 4.301.846 3.5 1.128 4.055.564 2.732.564.415.282 1.486.563 5.52.282 1.433.282.453.282.949.564 3.461.282.896.282 1.455.846 7.094.564 9.794.282 4.965.282 2.909.282-1.2.282-9.169 1.128-71.89.282-8.342.282-4.925.563-4.817.282-.818.282.285.564 2.878.564 3.455.282 3.383.564 14.631.564 12.31.282 2.411.282 1.249.282.545.282-.067.564-2.743.564-2.53.846-8.65.282.095.282-1.133.281.106h0" clip-path="url(#pa639b955ad)" style="fill:none;stroke:#1f77b4;stroke-width:1.5;stroke-linecap:square"/><path id="patch_3" d="M71.308 266.112V0" style="fill:none;stroke:gray;stroke-width:.8;stroke-linejoin:miter;stroke-linecap:square"/><path id="patch_4" d="M685.107 266.112V0" style="fill:none;stroke:#000;stroke-width:.8;stroke-linejoin:miter;stroke-linecap:square"/><path id="patch_5" d="M71.308 266.112h613.8" style="fill:none;stroke:gray;stroke-width:.8;stroke-linejoin:miter;stroke-linecap:square"/><path id="patch_6" d="M71.308 0h613.8" style="fill:none;stroke:#000;stroke-width:.8;stroke-linejoin:miter;stroke-linecap:square"/></g></g><defs><clipPath id="pa639b955ad"><path d="M71.308 0h613.8v266.112h-613.8z"/></clipPath></defs></svg>