<?xml version="1.0" encoding="utf-8" standalone="no"?>
<!DOCTYPE svg PUBLIC "-//W3C//DTD SVG 1.1//EN"
  "http://www.w3.org/Graphics/SVG/1.1/DTD/svg11.dtd">
<svg xmlns:xlink="http://www.w3.org/1999/xlink" width="660.992188pt" height="286.500364pt" viewBox="0 0 660.992188 286.500364" xmlns="http://www.w3.org/2000/svg" version="1.1">
 <metadata>
  <rdf:RDF xmlns:dc="http://purl.org/dc/elements/1.1/" xmlns:cc="http://creativecommons.org/ns#" xmlns:rdf="http://www.w3.org/1999/02/22-rdf-syntax-ns#">
   <cc:Work>
    <dc:type rdf:resource="http://purl.org/dc/dcmitype/StillImage"/>
    <dc:date>2023-03-06T19:25:42.768113</dc:date>
    <dc:format>image/svg+xml</dc:format>
    <dc:creator>
     <cc:Agent>
      <dc:title>Matplotlib v3.6.3, https://matplotlib.org/</dc:title>
     </cc:Agent>
    </dc:creator>
   </cc:Work>
  </rdf:RDF>
 </metadata>
 <defs>
  <style type="text/css">*{stroke-linejoin: round; stroke-linecap: butt}</style>
 </defs>
 <g id="figure_1">
  <g id="patch_1">
   <path d="M -0 286.500364 
L 660.992188 286.500364 
L 660.992188 0 
L -0 0 
L -0 286.500364 
z
" style="fill: none"/>
  </g>
  <g id="axes_1">
   <g id="patch_2">
    <path d="M 47.192188 269.822239 
L 660.992188 269.822239 
L 660.992188 3.710239 
L 47.192188 3.710239 
L 47.192188 269.822239 
z
" style="fill: none"/>
   </g>
   <g id="matplotlib.axis_1">
    <g id="xtick_1">
     <g id="line2d_1">
      <defs>
       <path id="m435c819194" d="M 0 0 
L 0 3.5 
" style="stroke: #000000; stroke-width: 0.8"/>
      </defs>
      <g>
       <use xlink:href="#m435c819194" x="75.092188" y="269.822239" style="stroke: #000000; stroke-width: 0.8"/>
      </g>
     </g>
     <g id="text_1">
      <!-- 0 -->
      <g transform="translate(71.910938 284.420676) scale(0.1 -0.1)">
       <defs>
        <path id="DejaVuSans-30" d="M 2034 4250 
Q 1547 4250 1301 3770 
Q 1056 3291 1056 2328 
Q 1056 1369 1301 889 
Q 1547 409 2034 409 
Q 2525 409 2770 889 
Q 3016 1369 3016 2328 
Q 3016 3291 2770 3770 
Q 2525 4250 2034 4250 
z
M 2034 4750 
Q 2819 4750 3233 4129 
Q 3647 3509 3647 2328 
Q 3647 1150 3233 529 
Q 2819 -91 2034 -91 
Q 1250 -91 836 529 
Q 422 1150 422 2328 
Q 422 3509 836 4129 
Q 1250 4750 2034 4750 
z
" transform="scale(0.015625)"/>
       </defs>
       <use xlink:href="#DejaVuSans-30"/>
      </g>
     </g>
    </g>
    <g id="xtick_2">
     <g id="line2d_2">
      <g>
       <use xlink:href="#m435c819194" x="144.842188" y="269.822239" style="stroke: #000000; stroke-width: 0.8"/>
      </g>
     </g>
     <g id="text_2">
      <!-- 500 -->
      <g transform="translate(135.298438 284.420676) scale(0.1 -0.1)">
       <defs>
        <path id="DejaVuSans-35" d="M 691 4666 
L 3169 4666 
L 3169 4134 
L 1269 4134 
L 1269 2991 
Q 1406 3038 1543 3061 
Q 1681 3084 1819 3084 
Q 2600 3084 3056 2656 
Q 3513 2228 3513 1497 
Q 3513 744 3044 326 
Q 2575 -91 1722 -91 
Q 1428 -91 1123 -41 
Q 819 9 494 109 
L 494 744 
Q 775 591 1075 516 
Q 1375 441 1709 441 
Q 2250 441 2565 725 
Q 2881 1009 2881 1497 
Q 2881 1984 2565 2268 
Q 2250 2553 1709 2553 
Q 1456 2553 1204 2497 
Q 953 2441 691 2322 
L 691 4666 
z
" transform="scale(0.015625)"/>
       </defs>
       <use xlink:href="#DejaVuSans-35"/>
       <use xlink:href="#DejaVuSans-30" x="63.623047"/>
       <use xlink:href="#DejaVuSans-30" x="127.246094"/>
      </g>
     </g>
    </g>
    <g id="xtick_3">
     <g id="line2d_3">
      <g>
       <use xlink:href="#m435c819194" x="214.592188" y="269.822239" style="stroke: #000000; stroke-width: 0.8"/>
      </g>
     </g>
     <g id="text_3">
      <!-- 1000 -->
      <g transform="translate(201.867188 284.420676) scale(0.1 -0.1)">
       <defs>
        <path id="DejaVuSans-31" d="M 794 531 
L 1825 531 
L 1825 4091 
L 703 3866 
L 703 4441 
L 1819 4666 
L 2450 4666 
L 2450 531 
L 3481 531 
L 3481 0 
L 794 0 
L 794 531 
z
" transform="scale(0.015625)"/>
       </defs>
       <use xlink:href="#DejaVuSans-31"/>
       <use xlink:href="#DejaVuSans-30" x="63.623047"/>
       <use xlink:href="#DejaVuSans-30" x="127.246094"/>
       <use xlink:href="#DejaVuSans-30" x="190.869141"/>
      </g>
     </g>
    </g>
    <g id="xtick_4">
     <g id="line2d_4">
      <g>
       <use xlink:href="#m435c819194" x="284.342188" y="269.822239" style="stroke: #000000; stroke-width: 0.8"/>
      </g>
     </g>
     <g id="text_4">
      <!-- 1500 -->
      <g transform="translate(271.617188 284.420676) scale(0.1 -0.1)">
       <use xlink:href="#DejaVuSans-31"/>
       <use xlink:href="#DejaVuSans-35" x="63.623047"/>
       <use xlink:href="#DejaVuSans-30" x="127.246094"/>
       <use xlink:href="#DejaVuSans-30" x="190.869141"/>
      </g>
     </g>
    </g>
    <g id="xtick_5">
     <g id="line2d_5">
      <g>
       <use xlink:href="#m435c819194" x="354.092188" y="269.822239" style="stroke: #000000; stroke-width: 0.8"/>
      </g>
     </g>
     <g id="text_5">
      <!-- 2000 -->
      <g transform="translate(341.367188 284.420676) scale(0.1 -0.1)">
       <defs>
        <path id="DejaVuSans-32" d="M 1228 531 
L 3431 531 
L 3431 0 
L 469 0 
L 469 531 
Q 828 903 1448 1529 
Q 2069 2156 2228 2338 
Q 2531 2678 2651 2914 
Q 2772 3150 2772 3378 
Q 2772 3750 2511 3984 
Q 2250 4219 1831 4219 
Q 1534 4219 1204 4116 
Q 875 4013 500 3803 
L 500 4441 
Q 881 4594 1212 4672 
Q 1544 4750 1819 4750 
Q 2544 4750 2975 4387 
Q 3406 4025 3406 3419 
Q 3406 3131 3298 2873 
Q 3191 2616 2906 2266 
Q 2828 2175 2409 1742 
Q 1991 1309 1228 531 
z
" transform="scale(0.015625)"/>
       </defs>
       <use xlink:href="#DejaVuSans-32"/>
       <use xlink:href="#DejaVuSans-30" x="63.623047"/>
       <use xlink:href="#DejaVuSans-30" x="127.246094"/>
       <use xlink:href="#DejaVuSans-30" x="190.869141"/>
      </g>
     </g>
    </g>
    <g id="xtick_6">
     <g id="line2d_6">
      <g>
       <use xlink:href="#m435c819194" x="423.842188" y="269.822239" style="stroke: #000000; stroke-width: 0.8"/>
      </g>
     </g>
     <g id="text_6">
      <!-- 2500 -->
      <g transform="translate(411.117188 284.420676) scale(0.1 -0.1)">
       <use xlink:href="#DejaVuSans-32"/>
       <use xlink:href="#DejaVuSans-35" x="63.623047"/>
       <use xlink:href="#DejaVuSans-30" x="127.246094"/>
       <use xlink:href="#DejaVuSans-30" x="190.869141"/>
      </g>
     </g>
    </g>
    <g id="xtick_7">
     <g id="line2d_7">
      <g>
       <use xlink:href="#m435c819194" x="493.592188" y="269.822239" style="stroke: #000000; stroke-width: 0.8"/>
      </g>
     </g>
     <g id="text_7">
      <!-- 3000 -->
      <g transform="translate(480.867188 284.420676) scale(0.1 -0.1)">
       <defs>
        <path id="DejaVuSans-33" d="M 2597 2516 
Q 3050 2419 3304 2112 
Q 3559 1806 3559 1356 
Q 3559 666 3084 287 
Q 2609 -91 1734 -91 
Q 1441 -91 1130 -33 
Q 819 25 488 141 
L 488 750 
Q 750 597 1062 519 
Q 1375 441 1716 441 
Q 2309 441 2620 675 
Q 2931 909 2931 1356 
Q 2931 1769 2642 2001 
Q 2353 2234 1838 2234 
L 1294 2234 
L 1294 2753 
L 1863 2753 
Q 2328 2753 2575 2939 
Q 2822 3125 2822 3475 
Q 2822 3834 2567 4026 
Q 2313 4219 1838 4219 
Q 1578 4219 1281 4162 
Q 984 4106 628 3988 
L 628 4550 
Q 988 4650 1302 4700 
Q 1616 4750 1894 4750 
Q 2613 4750 3031 4423 
Q 3450 4097 3450 3541 
Q 3450 3153 3228 2886 
Q 3006 2619 2597 2516 
z
" transform="scale(0.015625)"/>
       </defs>
       <use xlink:href="#DejaVuSans-33"/>
       <use xlink:href="#DejaVuSans-30" x="63.623047"/>
       <use xlink:href="#DejaVuSans-30" x="127.246094"/>
       <use xlink:href="#DejaVuSans-30" x="190.869141"/>
      </g>
     </g>
    </g>
    <g id="xtick_8">
     <g id="line2d_8">
      <g>
       <use xlink:href="#m435c819194" x="563.342188" y="269.822239" style="stroke: #000000; stroke-width: 0.8"/>
      </g>
     </g>
     <g id="text_8">
      <!-- 3500 -->
      <g transform="translate(550.617188 284.420676) scale(0.1 -0.1)">
       <use xlink:href="#DejaVuSans-33"/>
       <use xlink:href="#DejaVuSans-35" x="63.623047"/>
       <use xlink:href="#DejaVuSans-30" x="127.246094"/>
       <use xlink:href="#DejaVuSans-30" x="190.869141"/>
      </g>
     </g>
    </g>
    <g id="xtick_9">
     <g id="line2d_9">
      <g>
       <use xlink:href="#m435c819194" x="633.092188" y="269.822239" style="stroke: #000000; stroke-width: 0.8"/>
      </g>
     </g>
     <g id="text_9">
      <!-- 4000 -->
      <g transform="translate(620.367188 284.420676) scale(0.1 -0.1)">
       <defs>
        <path id="DejaVuSans-34" d="M 2419 4116 
L 825 1625 
L 2419 1625 
L 2419 4116 
z
M 2253 4666 
L 3047 4666 
L 3047 1625 
L 3713 1625 
L 3713 1100 
L 3047 1100 
L 3047 0 
L 2419 0 
L 2419 1100 
L 313 1100 
L 313 1709 
L 2253 4666 
z
" transform="scale(0.015625)"/>
       </defs>
       <use xlink:href="#DejaVuSans-34"/>
       <use xlink:href="#DejaVuSans-30" x="63.623047"/>
       <use xlink:href="#DejaVuSans-30" x="127.246094"/>
       <use xlink:href="#DejaVuSans-30" x="190.869141"/>
      </g>
     </g>
    </g>
   </g>
   <g id="matplotlib.axis_2">
    <g id="ytick_1">
     <g id="line2d_10">
      <defs>
       <path id="m44aa9fff84" d="M 0 0 
L -3.5 0 
" style="stroke: #000000; stroke-width: 0.8"/>
      </defs>
      <g>
       <use xlink:href="#m44aa9fff84" x="47.192188" y="262.005834" style="stroke: #000000; stroke-width: 0.8"/>
      </g>
     </g>
     <g id="text_10">
      <!-- −30000 -->
      <g transform="translate(0 265.805052) scale(0.1 -0.1)">
       <defs>
        <path id="DejaVuSans-2212" d="M 678 2272 
L 4684 2272 
L 4684 1741 
L 678 1741 
L 678 2272 
z
" transform="scale(0.015625)"/>
       </defs>
       <use xlink:href="#DejaVuSans-2212"/>
       <use xlink:href="#DejaVuSans-33" x="83.789062"/>
       <use xlink:href="#DejaVuSans-30" x="147.412109"/>
       <use xlink:href="#DejaVuSans-30" x="211.035156"/>
       <use xlink:href="#DejaVuSans-30" x="274.658203"/>
       <use xlink:href="#DejaVuSans-30" x="338.28125"/>
      </g>
     </g>
    </g>
    <g id="ytick_2">
     <g id="line2d_11">
      <g>
       <use xlink:href="#m44aa9fff84" x="47.192188" y="225.119174" style="stroke: #000000; stroke-width: 0.8"/>
      </g>
     </g>
     <g id="text_11">
      <!-- −20000 -->
      <g transform="translate(0 228.918393) scale(0.1 -0.1)">
       <use xlink:href="#DejaVuSans-2212"/>
       <use xlink:href="#DejaVuSans-32" x="83.789062"/>
       <use xlink:href="#DejaVuSans-30" x="147.412109"/>
       <use xlink:href="#DejaVuSans-30" x="211.035156"/>
       <use xlink:href="#DejaVuSans-30" x="274.658203"/>
       <use xlink:href="#DejaVuSans-30" x="338.28125"/>
      </g>
     </g>
    </g>
    <g id="ytick_3">
     <g id="line2d_12">
      <g>
       <use xlink:href="#m44aa9fff84" x="47.192188" y="188.232515" style="stroke: #000000; stroke-width: 0.8"/>
      </g>
     </g>
     <g id="text_12">
      <!-- −10000 -->
      <g transform="translate(0 192.031734) scale(0.1 -0.1)">
       <use xlink:href="#DejaVuSans-2212"/>
       <use xlink:href="#DejaVuSans-31" x="83.789062"/>
       <use xlink:href="#DejaVuSans-30" x="147.412109"/>
       <use xlink:href="#DejaVuSans-30" x="211.035156"/>
       <use xlink:href="#DejaVuSans-30" x="274.658203"/>
       <use xlink:href="#DejaVuSans-30" x="338.28125"/>
      </g>
     </g>
    </g>
    <g id="ytick_4">
     <g id="line2d_13">
      <g>
       <use xlink:href="#m44aa9fff84" x="47.192188" y="151.345856" style="stroke: #000000; stroke-width: 0.8"/>
      </g>
     </g>
     <g id="text_13">
      <!-- 0 -->
      <g transform="translate(33.829688 155.145075) scale(0.1 -0.1)">
       <use xlink:href="#DejaVuSans-30"/>
      </g>
     </g>
    </g>
    <g id="ytick_5">
     <g id="line2d_14">
      <g>
       <use xlink:href="#m44aa9fff84" x="47.192188" y="114.459197" style="stroke: #000000; stroke-width: 0.8"/>
      </g>
     </g>
     <g id="text_14">
      <!-- 10000 -->
      <g transform="translate(8.379688 118.258415) scale(0.1 -0.1)">
       <use xlink:href="#DejaVuSans-31"/>
       <use xlink:href="#DejaVuSans-30" x="63.623047"/>
       <use xlink:href="#DejaVuSans-30" x="127.246094"/>
       <use xlink:href="#DejaVuSans-30" x="190.869141"/>
       <use xlink:href="#DejaVuSans-30" x="254.492188"/>
      </g>
     </g>
    </g>
    <g id="ytick_6">
     <g id="line2d_15">
      <g>
       <use xlink:href="#m44aa9fff84" x="47.192188" y="77.572537" style="stroke: #000000; stroke-width: 0.8"/>
      </g>
     </g>
     <g id="text_15">
      <!-- 20000 -->
      <g transform="translate(8.379688 81.371756) scale(0.1 -0.1)">
       <use xlink:href="#DejaVuSans-32"/>
       <use xlink:href="#DejaVuSans-30" x="63.623047"/>
       <use xlink:href="#DejaVuSans-30" x="127.246094"/>
       <use xlink:href="#DejaVuSans-30" x="190.869141"/>
       <use xlink:href="#DejaVuSans-30" x="254.492188"/>
      </g>
     </g>
    </g>
    <g id="ytick_7">
     <g id="line2d_16">
      <g>
       <use xlink:href="#m44aa9fff84" x="47.192188" y="40.685878" style="stroke: #000000; stroke-width: 0.8"/>
      </g>
     </g>
     <g id="text_16">
      <!-- 30000 -->
      <g transform="translate(8.379688 44.485097) scale(0.1 -0.1)">
       <use xlink:href="#DejaVuSans-33"/>
       <use xlink:href="#DejaVuSans-30" x="63.623047"/>
       <use xlink:href="#DejaVuSans-30" x="127.246094"/>
       <use xlink:href="#DejaVuSans-30" x="190.869141"/>
       <use xlink:href="#DejaVuSans-30" x="254.492188"/>
      </g>
     </g>
    </g>
    <g id="ytick_8">
     <g id="line2d_17">
      <g>
       <use xlink:href="#m44aa9fff84" x="47.192188" y="3.799219" style="stroke: #000000; stroke-width: 0.8"/>
      </g>
     </g>
     <g id="text_17">
      <!-- 40000 -->
      <g transform="translate(8.379688 7.598438) scale(0.1 -0.1)">
       <use xlink:href="#DejaVuSans-34"/>
       <use xlink:href="#DejaVuSans-30" x="63.623047"/>
       <use xlink:href="#DejaVuSans-30" x="127.246094"/>
       <use xlink:href="#DejaVuSans-30" x="190.869141"/>
       <use xlink:href="#DejaVuSans-30" x="254.492188"/>
      </g>
     </g>
    </g>
   </g>
   <g id="line2d_18">
    <path d="M 75.092188 151.365274 
L 75.938069 151.329894 
L 76.783951 151.359046 
L 78.193754 151.336362 
L 79.885517 151.340008 
L 82.705123 151.345937 
L 88.626296 151.247352 
L 88.908256 151.517504 
L 89.472177 150.190101 
L 89.754138 154.327101 
L 90.036099 156.556298 
L 90.318059 156.72734 
L 90.60002 154.826815 
L 90.88198 154.804103 
L 91.445901 160.106667 
L 92.009823 157.606651 
L 92.573744 160.122085 
L 93.137665 156.075884 
L 93.419626 155.809904 
L 93.701586 156.164749 
L 93.983547 155.671035 
L 94.265507 156.082781 
L 94.547468 157.440579 
L 94.829429 157.643044 
L 95.111389 156.421577 
L 95.39335 156.136292 
L 95.67531 156.892725 
L 95.957271 157.18386 
L 96.239231 156.909723 
L 96.803153 157.701991 
L 97.367074 156.797118 
L 97.649034 157.374711 
L 97.930995 158.294272 
L 98.494916 158.989222 
L 99.058837 161.375625 
L 99.340798 161.603569 
L 99.622758 161.333596 
L 99.904719 161.810143 
L 100.46864 163.329247 
L 100.750601 163.807898 
L 101.032561 164.037524 
L 101.314522 162.29186 
L 101.596483 157.519133 
L 102.442364 138.125705 
L 103.006286 130.375992 
L 103.288246 129.524986 
L 103.570207 130.701599 
L 103.852167 132.425541 
L 104.134128 133.026914 
L 104.416088 133.125612 
L 104.98001 135.397207 
L 105.26197 135.428657 
L 105.543931 135.348268 
L 105.825891 136.988291 
L 106.389813 142.593136 
L 107.235694 154.57676 
L 107.517655 153.704066 
L 107.799615 152.39273 
L 108.081576 152.361889 
L 108.363537 151.967004 
L 108.645497 150.675042 
L 108.927458 150.263135 
L 109.209418 150.701341 
L 109.491379 150.812246 
L 109.77334 151.448646 
L 110.337261 155.484663 
L 110.901182 154.547814 
L 111.465103 157.618603 
L 111.747064 157.63803 
L 112.029024 156.911801 
L 112.592945 156.535666 
L 112.874906 155.819065 
L 113.156867 155.438925 
L 114.002748 156.205193 
L 114.284709 156.561563 
L 114.84863 156.229004 
L 115.130591 157.783698 
L 115.412551 160.420263 
L 115.694512 161.902893 
L 115.976472 162.069241 
L 116.540394 163.075929 
L 116.822354 163.017378 
L 117.104315 163.467856 
L 117.386275 165.002736 
L 117.668236 165.773246 
L 117.950197 165.509619 
L 118.514118 166.833363 
L 118.796078 162.800152 
L 119.64196 137.560449 
L 120.205881 129.204584 
L 120.487842 127.766758 
L 120.769802 128.419413 
L 122.179605 134.737446 
L 122.461566 135.811278 
L 123.025487 136.835578 
L 123.307448 138.789857 
L 124.153329 149.08958 
L 124.43529 151.245842 
L 124.717251 152.129806 
L 125.281172 152.183205 
L 125.563132 151.796069 
L 126.127054 149.992966 
L 126.409014 149.864057 
L 126.972935 148.931035 
L 127.536857 151.632054 
L 127.818817 151.539681 
L 128.100778 151.991722 
L 128.664699 158.660978 
L 128.946659 158.714641 
L 129.22862 157.380571 
L 129.510581 157.708354 
L 129.792541 158.219639 
L 130.074502 156.396888 
L 130.356462 153.814726 
L 130.638423 153.13761 
L 131.202344 154.895031 
L 132.612147 157.0026 
L 132.894108 157.19469 
L 133.176068 157.075946 
L 133.458029 157.335951 
L 134.303911 160.572249 
L 134.867832 161.389665 
L 135.149792 161.656682 
L 135.431753 161.538804 
L 135.713714 159.943801 
L 135.995674 155.634494 
L 137.123516 129.485704 
L 137.405477 126.519111 
L 137.687438 125.821424 
L 138.251359 127.065471 
L 139.097241 130.610387 
L 139.379201 130.699027 
L 139.661162 131.493934 
L 139.943122 132.797324 
L 140.225083 133.197736 
L 140.507043 134.151662 
L 140.789004 138.629462 
L 141.352925 150.338203 
L 141.634886 150.994565 
L 141.916846 150.208535 
L 142.198807 150.49222 
L 142.480768 151.21475 
L 142.762728 150.84851 
L 143.044689 149.508624 
L 143.326649 148.803941 
L 143.60861 149.617248 
L 143.890571 151.039552 
L 144.172531 151.783039 
L 144.454492 152.11121 
L 145.582334 154.943917 
L 146.146255 156.89625 
L 146.428216 157.23344 
L 146.992137 158.450626 
L 147.556058 157.764981 
L 148.40194 160.728686 
L 148.6839 160.274114 
L 148.965861 160.92847 
L 149.247822 162.170019 
L 149.529782 162.553498 
L 149.811743 162.554178 
L 150.093703 163.15833 
L 150.375664 163.199752 
L 150.657625 161.262386 
L 150.939585 158.34431 
L 151.221546 156.61708 
L 151.503506 156.729719 
L 151.785467 158.123883 
L 152.631349 163.873558 
L 152.913309 162.84314 
L 153.19527 157.556252 
L 154.041152 131.127737 
L 154.605073 124.874648 
L 154.887033 123.463412 
L 155.168994 124.508786 
L 155.732915 128.438621 
L 156.296836 129.220688 
L 156.578797 129.553321 
L 156.860757 130.277054 
L 157.706639 135.605033 
L 157.9886 138.919605 
L 158.552521 149.125652 
L 158.834482 151.527924 
L 159.398403 153.154222 
L 159.680363 152.604409 
L 159.962324 151.163764 
L 160.244285 150.49736 
L 160.526245 150.652224 
L 161.090166 150.286686 
L 161.372127 150.637431 
L 161.654087 150.763421 
L 161.936048 150.155897 
L 162.218009 149.935016 
L 163.06389 152.470276 
L 163.345851 152.824 
L 163.627812 154.129184 
L 164.191733 158.408534 
L 164.473693 159.09853 
L 165.037614 158.420938 
L 165.319575 158.988098 
L 165.883496 161.032715 
L 166.447417 161.860874 
L 166.729378 162.644774 
L 167.011339 163.020517 
L 167.57526 160.249171 
L 167.85722 160.201621 
L 168.139181 161.27723 
L 168.421142 161.535543 
L 168.703102 161.489229 
L 168.985063 163.204949 
L 169.548984 168.780634 
L 169.830944 169.172665 
L 170.112905 167.465467 
L 170.394866 163.170721 
L 171.240747 139.872903 
L 171.804669 128.25225 
L 172.086629 127.073362 
L 172.65055 128.686025 
L 172.932511 130.109117 
L 173.214471 132.32818 
L 173.496432 133.638332 
L 174.060353 132.910768 
L 174.906235 136.673315 
L 175.188196 140.471763 
L 175.752117 152.818135 
L 176.034077 155.012429 
L 176.316038 155.092978 
L 176.597999 154.803098 
L 177.725841 152.221307 
L 178.007801 151.908425 
L 178.289762 152.170713 
L 178.571723 152.754156 
L 179.135644 153.045219 
L 179.417604 153.548991 
L 179.981526 155.183177 
L 180.263486 156.158487 
L 180.545447 156.667599 
L 180.827407 156.689877 
L 181.391328 157.484887 
L 181.673289 156.88798 
L 181.95525 156.80634 
L 182.801131 164.486425 
L 183.083092 163.336494 
L 183.365053 163.290319 
L 183.647013 164.246904 
L 183.928974 163.693537 
L 184.210934 162.183501 
L 184.492895 162.432766 
L 184.774856 164.22069 
L 185.056816 165.20433 
L 185.338777 165.289428 
L 185.902698 167.30298 
L 186.184658 167.111287 
L 186.466619 166.132372 
L 187.03054 166.277647 
L 187.312501 162.898993 
L 188.722304 124.678097 
L 189.004264 121.857339 
L 189.286225 122.087008 
L 190.414067 129.333528 
L 190.977988 131.542046 
L 191.259949 133.5022 
L 191.82387 141.533596 
L 192.951713 159.862122 
L 193.233673 158.344829 
L 193.797594 153.224787 
L 194.361515 151.33988 
L 194.643476 151.015882 
L 194.925437 151.307136 
L 195.207397 150.938035 
L 195.489358 150.30652 
L 195.771318 151.537708 
L 196.053279 154.271306 
L 196.33524 155.730558 
L 196.899161 154.981946 
L 197.463082 156.480415 
L 198.027003 156.979876 
L 198.308964 157.095958 
L 198.590924 157.081353 
L 198.872885 157.595836 
L 199.436806 159.607116 
L 200.000727 160.239414 
L 201.41053 164.266212 
L 201.692491 164.940376 
L 202.820333 169.008481 
L 203.384254 170.222207 
L 203.666215 169.874722 
L 203.948175 167.88434 
L 204.230136 163.571201 
L 204.794057 146.617862 
L 205.357978 129.338138 
L 205.921899 118.635242 
L 206.20386 117.356188 
L 206.767781 124.599353 
L 207.049742 125.214409 
L 207.331702 123.573416 
L 207.613663 123.754401 
L 207.895624 125.706492 
L 208.177584 126.000159 
L 208.459545 124.580854 
L 208.741505 125.468073 
L 209.305427 137.522743 
L 210.151308 157.634432 
L 210.433269 160.145879 
L 211.279151 159.197166 
L 211.843072 155.44204 
L 212.125032 155.163911 
L 212.406993 156.056447 
L 212.688954 156.46054 
L 212.970914 157.140844 
L 213.252875 158.75005 
L 213.534835 159.156674 
L 214.098756 155.626415 
L 214.380717 155.929422 
L 214.662678 156.664739 
L 214.944638 156.752452 
L 215.226599 157.167395 
L 215.508559 157.916836 
L 215.79052 157.901465 
L 216.072481 158.004166 
L 216.918362 163.21022 
L 217.200323 162.949966 
L 217.482284 163.419871 
L 217.764244 164.454527 
L 218.046205 164.871212 
L 218.328165 164.932553 
L 218.892086 165.557145 
L 219.174047 166.609033 
L 220.019929 176.461649 
L 220.301889 176.479844 
L 220.865811 177.304866 
L 221.147771 173.10848 
L 222.839535 116.659303 
L 223.121495 113.137698 
L 223.403456 112.006058 
L 223.685416 112.771233 
L 224.249338 116.341744 
L 224.531298 117.685744 
L 225.659141 126.275787 
L 225.941101 129.776066 
L 226.505022 143.495709 
L 226.786983 150.289488 
L 227.068943 153.912661 
L 227.350904 154.768141 
L 227.632865 154.970615 
L 227.914825 155.347284 
L 228.478746 155.470419 
L 228.760707 156.156348 
L 229.324628 157.83878 
L 229.606589 157.739119 
L 229.888549 157.053281 
L 230.17051 156.860705 
L 230.45247 158.377966 
L 231.016392 162.911693 
L 231.298352 163.158677 
L 231.862273 161.860474 
L 232.144234 161.803076 
L 233.554037 165.517476 
L 233.835998 165.647922 
L 234.117958 165.615083 
L 234.681879 168.023774 
L 235.2458 168.09698 
L 236.091682 171.393593 
L 236.655603 175.110171 
L 236.937564 175.12162 
L 237.219525 176.1606 
L 237.501485 179.392326 
L 237.783446 178.882787 
L 238.065406 169.776043 
L 238.911288 134.267483 
L 239.475209 116.223272 
L 240.03913 105.051072 
L 240.321091 103.799093 
L 241.448933 115.011171 
L 242.012855 128.990928 
L 242.576776 134.53283 
L 243.140697 150.058707 
L 243.422657 157.385445 
L 243.704618 161.036137 
L 243.986579 161.335396 
L 244.268539 160.473286 
L 244.83246 159.6494 
L 245.396382 157.17534 
L 245.678342 157.317502 
L 245.960303 156.917218 
L 246.242263 155.367778 
L 246.524224 155.094312 
L 246.806184 156.840495 
L 247.088145 157.659989 
L 247.652066 154.88994 
L 247.934027 155.523036 
L 248.215987 156.450469 
L 248.497948 156.987115 
L 248.779909 158.551563 
L 249.061869 160.833313 
L 249.34383 162.043381 
L 249.62579 162.616277 
L 250.189712 165.261291 
L 250.471672 165.680649 
L 250.753633 166.559906 
L 251.035593 168.23706 
L 251.317554 168.961361 
L 251.599514 169.071251 
L 252.727357 175.357128 
L 253.291278 183.259193 
L 253.573239 183.793258 
L 253.855199 183.481877 
L 254.13716 183.585906 
L 254.41912 179.745588 
L 254.983041 154.517629 
L 255.828923 119.667033 
L 256.392844 104.132398 
L 256.674805 102.903622 
L 256.956766 103.432826 
L 257.238726 102.373159 
L 257.520687 100.403945 
L 257.802647 100.601332 
L 258.084608 102.727421 
L 258.366569 103.727803 
L 258.648529 103.513159 
L 258.93049 105.60646 
L 259.21245 112.524649 
L 260.340293 156.964001 
L 260.622253 160.324576 
L 260.904214 162.192445 
L 261.186174 162.723743 
L 261.750096 160.450957 
L 262.032056 159.993026 
L 262.595977 157.644197 
L 262.877938 157.528669 
L 263.159898 157.783166 
L 263.441859 157.254455 
L 263.72382 157.981864 
L 264.287741 164.739709 
L 264.569701 165.907822 
L 265.133623 166.693823 
L 265.415583 166.133425 
L 265.697544 166.318792 
L 266.261465 172.617619 
L 266.543425 173.00451 
L 266.825386 172.544528 
L 267.389307 175.627848 
L 267.671268 174.654975 
L 267.953228 172.897521 
L 268.235189 172.823801 
L 268.79911 175.71306 
L 269.644992 182.002275 
L 270.490874 189.182682 
L 270.772834 190.207169 
L 271.054795 187.728152 
L 271.336755 178.080264 
L 272.182637 132.013715 
L 273.028519 101.522259 
L 273.31048 97.481772 
L 273.59244 95.16367 
L 274.156361 88.298132 
L 274.438322 86.694605 
L 275.002243 87.769188 
L 275.284204 87.644591 
L 275.566164 89.276486 
L 275.848125 96.248822 
L 276.412046 128.663134 
L 276.975967 162.884442 
L 277.257928 170.593121 
L 277.539888 172.637314 
L 277.821849 172.476952 
L 278.10381 171.959022 
L 278.38577 170.964926 
L 279.513612 163.65765 
L 280.077534 162.407218 
L 280.359494 162.52004 
L 280.641455 162.886422 
L 280.923415 162.860585 
L 281.205376 163.366451 
L 281.769297 166.966627 
L 282.333218 164.202941 
L 282.615179 166.063017 
L 282.897139 169.889772 
L 283.1791 171.661785 
L 283.461061 171.560307 
L 283.743021 172.431527 
L 284.024982 174.229106 
L 284.306942 174.925144 
L 284.588903 174.561784 
L 284.870864 174.859448 
L 285.434785 178.641012 
L 286.280667 183.57594 
L 286.844588 186.602289 
L 287.126548 187.493481 
L 287.408509 187.943779 
L 287.690469 185.832396 
L 287.97243 178.470202 
L 288.818312 137.536156 
L 289.664194 99.415359 
L 290.228115 84.130987 
L 290.510075 79.198033 
L 290.792036 76.464218 
L 291.073996 75.016464 
L 291.355957 75.17091 
L 291.637918 78.316271 
L 292.201839 90.871302 
L 292.483799 99.735842 
L 293.047721 131.496566 
L 293.611642 163.333393 
L 293.893602 169.990648 
L 294.175563 171.497474 
L 294.457524 171.045512 
L 294.739484 169.936844 
L 295.303405 164.934843 
L 295.585366 164.966074 
L 296.149287 169.487919 
L 296.431248 168.957365 
L 296.713208 169.150491 
L 297.277129 173.149032 
L 297.55909 171.435031 
L 297.841051 168.986052 
L 298.123011 169.055503 
L 298.404972 170.824575 
L 298.686932 171.776175 
L 298.968893 172.157282 
L 299.532814 175.203461 
L 299.814775 175.459006 
L 300.096735 175.561926 
L 300.378696 177.663499 
L 300.660656 180.612854 
L 300.942617 182.059249 
L 301.224578 182.815186 
L 301.788499 186.457307 
L 302.070459 187.439935 
L 302.35242 189.639787 
L 302.916341 196.408418 
L 303.480262 195.929567 
L 304.044183 199.414599 
L 304.326144 195.374943 
L 304.890065 171.435579 
L 306.299868 98.741768 
L 307.14575 71.244028 
L 307.709671 57.329493 
L 307.991632 52.322402 
L 308.273592 50.114824 
L 308.555553 51.295754 
L 308.837513 55.156248 
L 309.119474 62.088738 
L 309.401435 74.037873 
L 309.965356 112.673956 
L 310.529277 154.28443 
L 310.811238 168.69786 
L 311.093198 176.637065 
L 311.375159 179.868243 
L 311.657119 180.879447 
L 311.93908 180.630263 
L 312.22104 179.095411 
L 312.784962 174.470757 
L 313.348883 172.029834 
L 313.630843 171.30569 
L 313.912804 171.015189 
L 314.758686 171.931458 
L 315.322607 172.595989 
L 315.604567 172.3729 
L 315.886528 173.059771 
L 316.450449 178.138188 
L 317.01437 178.774566 
L 317.860252 187.515294 
L 318.142213 188.984827 
L 319.833976 203.057939 
L 320.115937 202.504558 
L 320.397897 204.757989 
L 320.679858 209.319221 
L 320.961819 210.355383 
L 321.243779 204.275362 
L 321.8077 176.397417 
L 322.935543 108.015422 
L 323.781424 67.608049 
L 324.345346 47.760068 
L 324.627306 42.652121 
L 324.909267 40.805547 
L 325.191227 40.986369 
L 325.473188 42.073805 
L 325.755149 44.051937 
L 326.037109 48.989937 
L 326.31907 59.144384 
L 326.882991 93.129607 
L 328.010833 180.366995 
L 328.292794 186.694741 
L 328.574754 190.221895 
L 328.856715 190.001328 
L 329.420636 182.530838 
L 329.702597 181.425092 
L 329.984557 178.626493 
L 330.266518 173.481964 
L 330.548479 170.414386 
L 330.830439 170.105879 
L 331.39436 167.749586 
L 331.676321 169.693383 
L 331.958281 173.217492 
L 332.240242 174.243617 
L 332.522203 174.232221 
L 332.804163 177.071224 
L 333.086124 181.366658 
L 333.368084 183.166647 
L 333.650045 183.006061 
L 333.932006 184.199251 
L 334.213966 186.794205 
L 334.495927 187.904721 
L 335.059848 186.064898 
L 335.341809 188.156075 
L 335.623769 191.502338 
L 335.90573 193.121746 
L 336.18769 193.602676 
L 336.469651 196.38664 
L 337.033572 206.043998 
L 337.879454 210.557018 
L 338.161414 206.883577 
L 338.443375 194.025231 
L 340.135138 90.537838 
L 340.69906 65.702912 
L 341.262981 50.078737 
L 341.544941 45.761182 
L 341.826902 43.837138 
L 342.108863 45.799951 
L 342.672784 55.196113 
L 342.954744 63.182794 
L 343.518666 97.767961 
L 344.646508 168.826049 
L 344.928468 176.710638 
L 345.49239 183.8499 
L 345.77435 185.561361 
L 346.056311 184.775057 
L 347.184153 178.587423 
L 347.748074 176.245183 
L 348.030035 174.472066 
L 348.311995 174.051804 
L 348.875917 176.526229 
L 349.157877 176.728971 
L 349.439838 177.632948 
L 350.003759 180.626268 
L 350.28572 180.940955 
L 350.56768 181.874251 
L 350.849641 183.429231 
L 351.131601 184.350349 
L 351.413562 184.87197 
L 351.695523 186.426252 
L 353.387286 203.327797 
L 354.233168 212.051651 
L 354.515128 213.476218 
L 354.797089 211.183103 
L 355.07905 203.058357 
L 355.642971 171.368011 
L 357.052774 81.981277 
L 357.616695 57.771418 
L 357.898655 50.007535 
L 358.462577 42.2891 
L 358.744537 40.495993 
L 359.026498 40.192824 
L 359.308458 40.912843 
L 359.590419 43.842659 
L 359.87238 52.373479 
L 360.436301 86.119407 
L 361.564143 158.209857 
L 362.128064 181.504153 
L 362.410025 186.313807 
L 362.691985 185.212095 
L 362.973946 182.283948 
L 363.819828 177.052057 
L 364.383749 171.838556 
L 364.665709 170.088733 
L 364.94767 169.941176 
L 366.075512 175.029627 
L 366.639434 178.818516 
L 368.049237 186.99775 
L 368.331197 189.715584 
L 368.613158 190.87294 
L 368.895118 191.511233 
L 369.177079 193.926555 
L 369.741 201.181012 
L 370.586882 218.302351 
L 370.868842 219.925355 
L 371.150803 223.41171 
L 371.432764 228.992049 
L 371.714724 229.992261 
L 371.996685 222.474013 
L 372.560606 194.104072 
L 373.688448 118.196396 
L 374.53433 64.270634 
L 375.098251 47.592843 
L 375.944133 33.085829 
L 376.508054 28.450696 
L 376.790015 27.841762 
L 377.071975 33.129178 
L 377.635896 64.886088 
L 379.045699 151.028779 
L 379.609621 172.055542 
L 379.891581 176.662087 
L 380.173542 178.758799 
L 380.455502 179.671444 
L 380.737463 180.152876 
L 381.019423 180.13177 
L 381.301384 179.225821 
L 381.583345 177.92273 
L 381.865305 177.325875 
L 382.147266 177.377304 
L 382.429226 177.035031 
L 382.711187 176.875904 
L 382.993148 178.946828 
L 383.557069 186.750823 
L 384.402951 191.611606 
L 384.684911 192.722902 
L 384.966872 191.716952 
L 385.248832 190.152118 
L 385.530793 190.857322 
L 386.658635 203.926361 
L 387.222556 219.323483 
L 387.504517 222.75147 
L 387.786478 224.609365 
L 388.350399 232.531906 
L 388.632359 231.766553 
L 388.91432 224.194779 
L 389.478241 192.870236 
L 391.170005 74.183807 
L 391.733926 55.556102 
L 392.297847 41.237029 
L 392.861768 33.39411 
L 393.143729 30.462981 
L 393.425689 31.003053 
L 393.70765 36.910591 
L 394.271571 58.477871 
L 394.835492 88.711355 
L 396.245295 173.767082 
L 396.809216 182.446048 
L 397.091177 184.247308 
L 397.373137 184.127565 
L 397.937059 182.135782 
L 398.219019 180.365856 
L 398.78294 175.691383 
L 399.064901 175.238121 
L 399.346862 175.212366 
L 399.628822 175.677912 
L 399.910783 178.185683 
L 400.474704 184.817167 
L 400.756665 186.221604 
L 401.038625 188.937382 
L 401.320586 192.876585 
L 401.602546 194.683325 
L 401.884507 193.703536 
L 402.166467 193.508003 
L 403.012349 202.06699 
L 403.29431 205.430835 
L 404.422152 227.495958 
L 404.986073 236.028564 
L 405.268034 237.60776 
L 405.549994 233.643365 
L 405.831955 224.446379 
L 406.395876 192.413198 
L 408.08764 70.720454 
L 408.933522 33.076614 
L 409.215482 25.354968 
L 409.779403 17.731838 
L 410.061364 15.806239 
L 410.343324 17.222195 
L 410.625285 22.805676 
L 411.189206 46.201906 
L 412.317049 114.454593 
L 413.16293 165.735301 
L 413.444891 175.724862 
L 413.726851 180.705983 
L 414.290773 184.968957 
L 414.572733 184.036594 
L 415.136654 177.622765 
L 415.418615 177.361236 
L 415.700576 176.466804 
L 415.982536 174.122641 
L 416.264497 175.005684 
L 416.828418 188.420389 
L 417.110379 191.605277 
L 417.392339 192.594185 
L 417.95626 196.9685 
L 419.366063 207.766299 
L 419.929984 213.470062 
L 420.211945 213.767618 
L 420.493906 213.134114 
L 420.775866 214.132397 
L 421.339787 222.718016 
L 421.903708 229.359872 
L 422.46763 234.2346 
L 422.74959 232.863195 
L 423.031551 222.958355 
L 423.877433 165.632285 
L 424.723314 89.093894 
L 425.569196 41.336755 
L 425.851157 31.305466 
L 426.415078 24.618365 
L 426.697038 21.169508 
L 426.978999 19.994445 
L 427.26096 22.619735 
L 427.824881 32.205268 
L 428.106841 41.028835 
L 428.670763 73.150014 
L 429.798605 138.178934 
L 430.362526 164.502727 
L 430.926447 179.717737 
L 431.490368 188.875922 
L 431.772329 190.503779 
L 432.05429 190.092713 
L 432.618211 188.514153 
L 433.182132 185.89734 
L 433.464093 186.873808 
L 433.746053 188.607597 
L 434.028014 188.019922 
L 434.309974 186.31962 
L 434.591935 187.019552 
L 434.873895 188.825315 
L 435.155856 188.117402 
L 435.437817 186.577152 
L 436.001738 189.159228 
L 436.283698 187.91364 
L 436.565659 187.542341 
L 437.12958 194.603121 
L 437.411541 195.229949 
L 437.693501 198.01342 
L 438.257422 211.602784 
L 438.539383 215.288956 
L 438.821344 221.657166 
L 439.385265 240.479254 
L 439.667225 243.279103 
L 439.949186 240.390582 
L 440.231147 230.448276 
L 440.795068 192.313693 
L 442.768792 43.752188 
L 443.050752 33.673149 
L 443.614674 25.579875 
L 443.896634 22.327221 
L 444.178595 21.663213 
L 444.460555 23.965086 
L 444.742516 29.810144 
L 445.306437 55.129761 
L 446.434279 113.697803 
L 447.562122 155.640902 
L 447.844082 162.022414 
L 448.408004 181.402309 
L 448.689964 186.319351 
L 448.971925 187.102162 
L 449.253885 188.940666 
L 449.535846 191.793626 
L 449.817806 192.021564 
L 450.099767 190.42272 
L 450.381728 190.559596 
L 450.663688 191.640122 
L 450.945649 190.563938 
L 451.227609 188.334003 
L 451.50957 188.011835 
L 451.791531 188.747411 
L 452.355452 186.806527 
L 452.637412 189.018561 
L 453.483294 204.64825 
L 454.329176 215.232781 
L 455.175058 224.335 
L 456.3029 237.61195 
L 456.584861 238.173623 
L 456.866821 235.336448 
L 457.148782 225.710984 
L 457.712703 185.236599 
L 459.404466 52.500292 
L 459.968388 31.439909 
L 460.250348 24.333246 
L 460.532309 20.566659 
L 460.814269 20.46033 
L 461.378191 23.652161 
L 461.660151 26.627814 
L 461.942112 35.082674 
L 463.915836 126.686175 
L 465.043678 164.844629 
L 465.607599 173.50877 
L 466.453481 181.728179 
L 466.735442 185.410578 
L 467.017402 187.398587 
L 467.581323 188.69903 
L 468.145245 188.760909 
L 468.427205 190.288245 
L 468.709166 192.812359 
L 468.991126 194.170063 
L 469.273087 194.453082 
L 469.555048 196.051051 
L 470.118969 202.075027 
L 470.68289 205.523258 
L 471.528772 212.790681 
L 472.374653 223.672607 
L 472.656614 225.158018 
L 473.502496 233.783832 
L 473.784456 234.218832 
L 474.066417 231.392139 
L 474.348377 221.891935 
L 474.912299 180.530123 
L 476.040141 74.64515 
L 476.604062 49.360772 
L 477.167983 35.243079 
L 477.449944 30.795933 
L 477.731905 29.749694 
L 478.013865 33.60884 
L 478.577786 43.493796 
L 478.859747 46.609137 
L 479.141707 54.194727 
L 479.987589 86.793486 
L 481.397392 132.543262 
L 482.525234 155.807325 
L 483.935037 182.118996 
L 484.780919 194.533065 
L 485.06288 197.874465 
L 485.34484 198.317 
L 485.908762 193.344153 
L 486.190722 196.134916 
L 486.472683 200.340717 
L 487.036604 202.379298 
L 487.882486 220.016408 
L 488.164446 219.634556 
L 488.446407 221.214659 
L 489.010328 228.065703 
L 489.292289 228.324246 
L 489.574249 229.227351 
L 490.13817 236.175212 
L 490.420131 240.0043 
L 490.702091 240.892689 
L 490.984052 234.623082 
L 491.547973 199.376747 
L 492.393855 119.465378 
L 492.957776 68.724411 
L 493.521697 43.954401 
L 494.085619 31.186119 
L 494.367579 27.810105 
L 494.64954 29.465987 
L 495.777382 52.703386 
L 496.623264 86.936021 
L 498.596988 138.334815 
L 499.44287 155.533633 
L 500.006791 169.657238 
L 501.134633 186.358947 
L 501.698554 195.231299 
L 501.980515 199.422302 
L 502.544436 212.120429 
L 502.826397 214.306916 
L 503.108357 213.53115 
L 503.390318 213.685624 
L 503.672278 214.856528 
L 503.954239 214.038081 
L 504.2362 211.380217 
L 504.51816 210.508871 
L 504.800121 212.878823 
L 505.364042 219.132853 
L 505.927963 225.113603 
L 506.491884 232.328804 
L 507.055805 244.135398 
L 507.337766 245.514069 
L 507.619727 237.912845 
L 508.183648 202.384817 
L 508.747569 143.279905 
L 509.31149 87.219241 
L 509.875411 51.533671 
L 510.157372 39.807947 
L 510.439333 34.248029 
L 510.721293 31.622302 
L 511.003254 30.415595 
L 511.285214 33.326816 
L 512.413057 64.358504 
L 513.540899 102.317033 
L 514.10482 114.197232 
L 514.668741 122.456026 
L 515.232662 130.362259 
L 515.514623 134.909666 
L 516.078544 140.053244 
L 516.642465 149.097543 
L 516.924426 150.977434 
L 517.206387 151.47996 
L 517.488347 154.410592 
L 518.61619 179.305866 
L 519.180111 194.029532 
L 520.589914 222.197596 
L 522.845598 243.157058 
L 523.69148 252.347988 
L 523.973441 250.302834 
L 524.255401 239.239602 
L 524.819322 187.89559 
L 525.665204 95.18458 
L 526.229125 62.192648 
L 526.793047 43.811231 
L 527.075007 40.169304 
L 527.356968 40.585047 
L 527.638928 43.22199 
L 527.920889 48.37862 
L 529.048731 80.220034 
L 529.894613 111.517896 
L 530.740495 125.762825 
L 531.022455 125.563985 
L 531.304416 124.113967 
L 531.586376 125.104764 
L 532.150298 129.993945 
L 532.714219 130.977315 
L 533.27814 133.257611 
L 533.560101 135.301364 
L 534.124022 143.721553 
L 535.251864 166.886154 
L 535.533825 173.748581 
L 536.379706 203.309872 
L 536.943628 216.235022 
L 537.507549 229.599573 
L 537.789509 232.757605 
L 538.635391 246.15953 
L 539.199312 251.033528 
L 539.481273 252.091966 
L 539.763233 252.435162 
L 540.045194 253.365018 
L 540.327155 251.191151 
L 540.609115 240.491644 
L 541.173036 193.366288 
L 542.018918 97.966859 
L 542.582839 68.436932 
L 542.8648 60.402341 
L 543.146761 57.693221 
L 543.710682 59.187669 
L 543.992642 61.109814 
L 545.402445 87.045988 
L 545.966366 103.094876 
L 546.530288 119.060108 
L 546.812248 122.376441 
L 547.65813 125.955248 
L 548.222051 126.634603 
L 548.785972 128.742725 
L 549.067933 130.269903 
L 550.195775 139.102849 
L 550.759696 149.134039 
L 552.45146 182.560123 
L 553.015381 196.11669 
L 553.579302 208.221919 
L 553.861263 215.968984 
L 554.143223 220.017341 
L 554.425184 220.48304 
L 554.707145 222.801863 
L 556.116947 252.615793 
L 556.398908 257.726239 
L 556.680869 256.406527 
L 556.962829 245.691514 
L 557.24479 224.719855 
L 558.372632 107.597954 
L 558.936553 77.395777 
L 559.500475 61.279107 
L 559.782435 60.336304 
L 560.628317 74.568534 
L 560.910277 79.979635 
L 561.474199 95.308938 
L 562.03812 99.331996 
L 562.884002 119.400998 
L 563.165962 121.867322 
L 564.011844 134.939795 
L 564.575765 137.375727 
L 564.857726 138.848034 
L 565.421647 139.806853 
L 565.985568 141.611046 
L 566.267529 142.188738 
L 566.549489 143.962387 
L 567.677332 156.991998 
L 568.241253 162.689399 
L 570.214977 192.509444 
L 571.060859 208.308581 
L 571.342819 213.469953 
L 572.188701 237.965385 
L 573.034583 254.310108 
L 573.316543 251.411604 
L 573.598504 237.137968 
L 574.162425 181.586392 
L 574.726346 117.232359 
L 575.008307 96.411402 
L 575.572228 75.679042 
L 575.854189 69.542038 
L 576.136149 66.216982 
L 576.41811 67.286858 
L 576.982031 80.21233 
L 577.545952 91.291154 
L 578.109873 102.398883 
L 579.519676 133.025804 
L 579.801637 136.002251 
L 580.083597 137.760046 
L 580.365558 137.194919 
L 580.647518 135.414431 
L 580.929479 134.618639 
L 581.21144 135.324296 
L 581.4934 136.849092 
L 582.057321 141.244143 
L 582.339282 142.29033 
L 582.621243 142.427499 
L 582.903203 143.300546 
L 583.467124 148.411257 
L 584.594967 161.033852 
L 585.722809 172.905738 
L 586.28673 184.698282 
L 587.132612 194.297798 
L 588.542415 222.043709 
L 589.106336 230.491338 
L 589.388297 231.341301 
L 589.670257 228.393817 
L 589.952218 215.589645 
L 590.7981 135.744802 
L 591.925942 87.119911 
L 592.207903 85.377226 
L 592.489863 85.286879 
L 592.771824 85.467156 
L 593.053784 88.444521 
L 593.617705 96.161931 
L 593.899666 99.587853 
L 595.027508 120.272093 
L 595.59143 135.203368 
L 595.87339 138.786613 
L 596.437311 142.489535 
L 596.719272 142.975566 
L 597.001232 142.721616 
L 597.283193 143.134235 
L 597.565154 144.139045 
L 598.129075 145.127524 
L 598.692996 148.215715 
L 598.974957 147.408501 
L 599.256917 146.126197 
L 599.538878 147.565208 
L 599.820838 150.939751 
L 600.38476 154.24392 
L 600.66672 157.897754 
L 601.230641 167.556997 
L 601.794562 171.63782 
L 602.640444 180.233355 
L 603.204365 188.298039 
L 603.768287 193.74948 
L 605.46005 219.612926 
L 605.742011 221.354597 
L 606.023971 218.063146 
L 606.305932 204.673564 
L 607.151814 132.427213 
L 607.715735 112.475988 
L 608.279656 97.342531 
L 608.561617 92.563032 
L 608.843577 91.421107 
L 609.125538 93.085369 
L 610.25338 105.073651 
L 610.817301 114.949321 
L 611.663183 132.767945 
L 612.227104 139.737821 
L 612.791025 143.137077 
L 614.200828 146.56538 
L 615.04671 150.276346 
L 616.174552 154.313565 
L 617.302395 159.646233 
L 617.584355 162.352388 
L 618.430237 173.458716 
L 618.994158 178.529488 
L 619.276119 178.737395 
L 619.558079 177.833834 
L 619.84004 178.207689 
L 621.249843 194.187782 
L 621.813764 204.056568 
L 622.095725 206.468194 
L 622.377685 204.459376 
L 622.659646 193.10204 
L 623.223567 157.598244 
L 624.351409 116.569449 
L 624.63337 113.325027 
L 625.479252 98.809251 
L 626.325133 110.46494 
L 626.889055 116.836779 
L 627.452976 125.419511 
L 628.016897 134.817966 
L 628.862779 141.445349 
L 629.144739 141.622612 
L 629.4267 142.717255 
L 629.70866 144.680812 
L 630.272582 143.170949 
L 630.554542 147.429633 
L 630.836503 154.731234 
L 631.118463 157.056664 
L 631.400424 155.456093 
L 631.682385 155.796086 
L 631.964345 158.269056 
L 632.246306 157.231017 
L 632.528266 154.880146 
L 632.810227 154.299421 
L 633.092188 156.369442 
L 633.092188 156.369442 
" clip-path="url(#paeaffb8f1d)" style="fill: none; stroke: #1f77b4; stroke-width: 1.5; stroke-linecap: square"/>
   </g>
   <g id="patch_3">
    <path d="M 47.192188 269.822239 
L 47.192188 3.710239 
" style="fill: none; stroke: #000000; stroke-width: 0.8; stroke-linejoin: miter; stroke-linecap: square"/>
   </g>
   <g id="patch_4">
    <path d="M 660.992188 269.822239 
L 660.992188 3.710239 
" style="fill: none; stroke: #000000; stroke-width: 0.8; stroke-linejoin: miter; stroke-linecap: square"/>
   </g>
   <g id="patch_5">
    <path d="M 47.192188 269.822239 
L 660.992188 269.822239 
" style="fill: none; stroke: #000000; stroke-width: 0.8; stroke-linejoin: miter; stroke-linecap: square"/>
   </g>
   <g id="patch_6">
    <path d="M 47.192188 3.710239 
L 660.992188 3.710239 
" style="fill: none; stroke: #000000; stroke-width: 0.8; stroke-linejoin: miter; stroke-linecap: square"/>
   </g>
  </g>
 </g>
 <defs>
  <clipPath id="paeaffb8f1d">
   <rect x="47.192188" y="3.710239" width="613.8" height="266.112"/>
  </clipPath>
 </defs>
</svg>
