<?xml version="1.0" encoding="utf-8" standalone="no"?>
<!DOCTYPE svg PUBLIC "-//W3C//DTD SVG 1.1//EN"
  "http://www.w3.org/Graphics/SVG/1.1/DTD/svg11.dtd">
<svg xmlns:xlink="http://www.w3.org/1999/xlink" width="660.992188pt" height="282.790125pt" viewBox="0 0 660.992188 282.790125" xmlns="http://www.w3.org/2000/svg" version="1.1">
 <metadata>
  <rdf:RDF xmlns:dc="http://purl.org/dc/elements/1.1/" xmlns:cc="http://creativecommons.org/ns#" xmlns:rdf="http://www.w3.org/1999/02/22-rdf-syntax-ns#">
   <cc:Work>
    <dc:type rdf:resource="http://purl.org/dc/dcmitype/StillImage"/>
    <dc:date>2023-03-06T19:25:43.957115</dc:date>
    <dc:format>image/svg+xml</dc:format>
    <dc:creator>
     <cc:Agent>
      <dc:title>Matplotlib v3.6.3, https://matplotlib.org/</dc:title>
     </cc:Agent>
    </dc:creator>
   </cc:Work>
  </rdf:RDF>
 </metadata>
 <defs>
  <style type="text/css">*{stroke-linejoin: round; stroke-linecap: butt}</style>
 </defs>
 <g id="figure_1">
  <g id="patch_1">
   <path d="M -0 282.790125 
L 660.992188 282.790125 
L 660.992188 0 
L -0 0 
L -0 282.790125 
z
" style="fill: none"/>
  </g>
  <g id="axes_1">
   <g id="patch_2">
    <path d="M 47.192188 266.112 
L 660.992188 266.112 
L 660.992188 0 
L 47.192188 0 
L 47.192188 266.112 
z
" style="fill: none"/>
   </g>
   <g id="matplotlib.axis_1">
    <g id="xtick_1">
     <g id="line2d_1">
      <defs>
       <path id="m544500d363" d="M 0 0 
L 0 3.5 
" style="stroke: #000000; stroke-width: 0.8"/>
      </defs>
      <g>
       <use xlink:href="#m544500d363" x="75.092188" y="266.112" style="stroke: #000000; stroke-width: 0.8"/>
      </g>
     </g>
     <g id="text_1">
      <!-- 0 -->
      <g transform="translate(71.910938 280.710438) scale(0.1 -0.1)">
       <defs>
        <path id="DejaVuSans-30" d="M 2034 4250 
Q 1547 4250 1301 3770 
Q 1056 3291 1056 2328 
Q 1056 1369 1301 889 
Q 1547 409 2034 409 
Q 2525 409 2770 889 
Q 3016 1369 3016 2328 
Q 3016 3291 2770 3770 
Q 2525 4250 2034 4250 
z
M 2034 4750 
Q 2819 4750 3233 4129 
Q 3647 3509 3647 2328 
Q 3647 1150 3233 529 
Q 2819 -91 2034 -91 
Q 1250 -91 836 529 
Q 422 1150 422 2328 
Q 422 3509 836 4129 
Q 1250 4750 2034 4750 
z
" transform="scale(0.015625)"/>
       </defs>
       <use xlink:href="#DejaVuSans-30"/>
      </g>
     </g>
    </g>
    <g id="xtick_2">
     <g id="line2d_2">
      <g>
       <use xlink:href="#m544500d363" x="144.842188" y="266.112" style="stroke: #000000; stroke-width: 0.8"/>
      </g>
     </g>
     <g id="text_2">
      <!-- 500 -->
      <g transform="translate(135.298438 280.710438) scale(0.1 -0.1)">
       <defs>
        <path id="DejaVuSans-35" d="M 691 4666 
L 3169 4666 
L 3169 4134 
L 1269 4134 
L 1269 2991 
Q 1406 3038 1543 3061 
Q 1681 3084 1819 3084 
Q 2600 3084 3056 2656 
Q 3513 2228 3513 1497 
Q 3513 744 3044 326 
Q 2575 -91 1722 -91 
Q 1428 -91 1123 -41 
Q 819 9 494 109 
L 494 744 
Q 775 591 1075 516 
Q 1375 441 1709 441 
Q 2250 441 2565 725 
Q 2881 1009 2881 1497 
Q 2881 1984 2565 2268 
Q 2250 2553 1709 2553 
Q 1456 2553 1204 2497 
Q 953 2441 691 2322 
L 691 4666 
z
" transform="scale(0.015625)"/>
       </defs>
       <use xlink:href="#DejaVuSans-35"/>
       <use xlink:href="#DejaVuSans-30" x="63.623047"/>
       <use xlink:href="#DejaVuSans-30" x="127.246094"/>
      </g>
     </g>
    </g>
    <g id="xtick_3">
     <g id="line2d_3">
      <g>
       <use xlink:href="#m544500d363" x="214.592188" y="266.112" style="stroke: #000000; stroke-width: 0.8"/>
      </g>
     </g>
     <g id="text_3">
      <!-- 1000 -->
      <g transform="translate(201.867188 280.710438) scale(0.1 -0.1)">
       <defs>
        <path id="DejaVuSans-31" d="M 794 531 
L 1825 531 
L 1825 4091 
L 703 3866 
L 703 4441 
L 1819 4666 
L 2450 4666 
L 2450 531 
L 3481 531 
L 3481 0 
L 794 0 
L 794 531 
z
" transform="scale(0.015625)"/>
       </defs>
       <use xlink:href="#DejaVuSans-31"/>
       <use xlink:href="#DejaVuSans-30" x="63.623047"/>
       <use xlink:href="#DejaVuSans-30" x="127.246094"/>
       <use xlink:href="#DejaVuSans-30" x="190.869141"/>
      </g>
     </g>
    </g>
    <g id="xtick_4">
     <g id="line2d_4">
      <g>
       <use xlink:href="#m544500d363" x="284.342188" y="266.112" style="stroke: #000000; stroke-width: 0.8"/>
      </g>
     </g>
     <g id="text_4">
      <!-- 1500 -->
      <g transform="translate(271.617188 280.710438) scale(0.1 -0.1)">
       <use xlink:href="#DejaVuSans-31"/>
       <use xlink:href="#DejaVuSans-35" x="63.623047"/>
       <use xlink:href="#DejaVuSans-30" x="127.246094"/>
       <use xlink:href="#DejaVuSans-30" x="190.869141"/>
      </g>
     </g>
    </g>
    <g id="xtick_5">
     <g id="line2d_5">
      <g>
       <use xlink:href="#m544500d363" x="354.092188" y="266.112" style="stroke: #000000; stroke-width: 0.8"/>
      </g>
     </g>
     <g id="text_5">
      <!-- 2000 -->
      <g transform="translate(341.367188 280.710438) scale(0.1 -0.1)">
       <defs>
        <path id="DejaVuSans-32" d="M 1228 531 
L 3431 531 
L 3431 0 
L 469 0 
L 469 531 
Q 828 903 1448 1529 
Q 2069 2156 2228 2338 
Q 2531 2678 2651 2914 
Q 2772 3150 2772 3378 
Q 2772 3750 2511 3984 
Q 2250 4219 1831 4219 
Q 1534 4219 1204 4116 
Q 875 4013 500 3803 
L 500 4441 
Q 881 4594 1212 4672 
Q 1544 4750 1819 4750 
Q 2544 4750 2975 4387 
Q 3406 4025 3406 3419 
Q 3406 3131 3298 2873 
Q 3191 2616 2906 2266 
Q 2828 2175 2409 1742 
Q 1991 1309 1228 531 
z
" transform="scale(0.015625)"/>
       </defs>
       <use xlink:href="#DejaVuSans-32"/>
       <use xlink:href="#DejaVuSans-30" x="63.623047"/>
       <use xlink:href="#DejaVuSans-30" x="127.246094"/>
       <use xlink:href="#DejaVuSans-30" x="190.869141"/>
      </g>
     </g>
    </g>
    <g id="xtick_6">
     <g id="line2d_6">
      <g>
       <use xlink:href="#m544500d363" x="423.842188" y="266.112" style="stroke: #000000; stroke-width: 0.8"/>
      </g>
     </g>
     <g id="text_6">
      <!-- 2500 -->
      <g transform="translate(411.117188 280.710438) scale(0.1 -0.1)">
       <use xlink:href="#DejaVuSans-32"/>
       <use xlink:href="#DejaVuSans-35" x="63.623047"/>
       <use xlink:href="#DejaVuSans-30" x="127.246094"/>
       <use xlink:href="#DejaVuSans-30" x="190.869141"/>
      </g>
     </g>
    </g>
    <g id="xtick_7">
     <g id="line2d_7">
      <g>
       <use xlink:href="#m544500d363" x="493.592188" y="266.112" style="stroke: #000000; stroke-width: 0.8"/>
      </g>
     </g>
     <g id="text_7">
      <!-- 3000 -->
      <g transform="translate(480.867188 280.710438) scale(0.1 -0.1)">
       <defs>
        <path id="DejaVuSans-33" d="M 2597 2516 
Q 3050 2419 3304 2112 
Q 3559 1806 3559 1356 
Q 3559 666 3084 287 
Q 2609 -91 1734 -91 
Q 1441 -91 1130 -33 
Q 819 25 488 141 
L 488 750 
Q 750 597 1062 519 
Q 1375 441 1716 441 
Q 2309 441 2620 675 
Q 2931 909 2931 1356 
Q 2931 1769 2642 2001 
Q 2353 2234 1838 2234 
L 1294 2234 
L 1294 2753 
L 1863 2753 
Q 2328 2753 2575 2939 
Q 2822 3125 2822 3475 
Q 2822 3834 2567 4026 
Q 2313 4219 1838 4219 
Q 1578 4219 1281 4162 
Q 984 4106 628 3988 
L 628 4550 
Q 988 4650 1302 4700 
Q 1616 4750 1894 4750 
Q 2613 4750 3031 4423 
Q 3450 4097 3450 3541 
Q 3450 3153 3228 2886 
Q 3006 2619 2597 2516 
z
" transform="scale(0.015625)"/>
       </defs>
       <use xlink:href="#DejaVuSans-33"/>
       <use xlink:href="#DejaVuSans-30" x="63.623047"/>
       <use xlink:href="#DejaVuSans-30" x="127.246094"/>
       <use xlink:href="#DejaVuSans-30" x="190.869141"/>
      </g>
     </g>
    </g>
    <g id="xtick_8">
     <g id="line2d_8">
      <g>
       <use xlink:href="#m544500d363" x="563.342188" y="266.112" style="stroke: #000000; stroke-width: 0.8"/>
      </g>
     </g>
     <g id="text_8">
      <!-- 3500 -->
      <g transform="translate(550.617188 280.710438) scale(0.1 -0.1)">
       <use xlink:href="#DejaVuSans-33"/>
       <use xlink:href="#DejaVuSans-35" x="63.623047"/>
       <use xlink:href="#DejaVuSans-30" x="127.246094"/>
       <use xlink:href="#DejaVuSans-30" x="190.869141"/>
      </g>
     </g>
    </g>
    <g id="xtick_9">
     <g id="line2d_9">
      <g>
       <use xlink:href="#m544500d363" x="633.092188" y="266.112" style="stroke: #000000; stroke-width: 0.8"/>
      </g>
     </g>
     <g id="text_9">
      <!-- 4000 -->
      <g transform="translate(620.367188 280.710438) scale(0.1 -0.1)">
       <defs>
        <path id="DejaVuSans-34" d="M 2419 4116 
L 825 1625 
L 2419 1625 
L 2419 4116 
z
M 2253 4666 
L 3047 4666 
L 3047 1625 
L 3713 1625 
L 3713 1100 
L 3047 1100 
L 3047 0 
L 2419 0 
L 2419 1100 
L 313 1100 
L 313 1709 
L 2253 4666 
z
" transform="scale(0.015625)"/>
       </defs>
       <use xlink:href="#DejaVuSans-34"/>
       <use xlink:href="#DejaVuSans-30" x="63.623047"/>
       <use xlink:href="#DejaVuSans-30" x="127.246094"/>
       <use xlink:href="#DejaVuSans-30" x="190.869141"/>
      </g>
     </g>
    </g>
   </g>
   <g id="matplotlib.axis_2">
    <g id="ytick_1">
     <g id="line2d_10">
      <defs>
       <path id="m2d99a3bfe9" d="M 0 0 
L -3.5 0 
" style="stroke: #000000; stroke-width: 0.8"/>
      </defs>
      <g>
       <use xlink:href="#m2d99a3bfe9" x="47.192188" y="240.199348" style="stroke: #000000; stroke-width: 0.8"/>
      </g>
     </g>
     <g id="text_10">
      <!-- −15000 -->
      <g transform="translate(0 243.998567) scale(0.1 -0.1)">
       <defs>
        <path id="DejaVuSans-2212" d="M 678 2272 
L 4684 2272 
L 4684 1741 
L 678 1741 
L 678 2272 
z
" transform="scale(0.015625)"/>
       </defs>
       <use xlink:href="#DejaVuSans-2212"/>
       <use xlink:href="#DejaVuSans-31" x="83.789062"/>
       <use xlink:href="#DejaVuSans-35" x="147.412109"/>
       <use xlink:href="#DejaVuSans-30" x="211.035156"/>
       <use xlink:href="#DejaVuSans-30" x="274.658203"/>
       <use xlink:href="#DejaVuSans-30" x="338.28125"/>
      </g>
     </g>
    </g>
    <g id="ytick_2">
     <g id="line2d_11">
      <g>
       <use xlink:href="#m2d99a3bfe9" x="47.192188" y="209.757795" style="stroke: #000000; stroke-width: 0.8"/>
      </g>
     </g>
     <g id="text_11">
      <!-- −10000 -->
      <g transform="translate(0 213.557014) scale(0.1 -0.1)">
       <use xlink:href="#DejaVuSans-2212"/>
       <use xlink:href="#DejaVuSans-31" x="83.789062"/>
       <use xlink:href="#DejaVuSans-30" x="147.412109"/>
       <use xlink:href="#DejaVuSans-30" x="211.035156"/>
       <use xlink:href="#DejaVuSans-30" x="274.658203"/>
       <use xlink:href="#DejaVuSans-30" x="338.28125"/>
      </g>
     </g>
    </g>
    <g id="ytick_3">
     <g id="line2d_12">
      <g>
       <use xlink:href="#m2d99a3bfe9" x="47.192188" y="179.316242" style="stroke: #000000; stroke-width: 0.8"/>
      </g>
     </g>
     <g id="text_12">
      <!-- −5000 -->
      <g transform="translate(6.3625 183.115461) scale(0.1 -0.1)">
       <use xlink:href="#DejaVuSans-2212"/>
       <use xlink:href="#DejaVuSans-35" x="83.789062"/>
       <use xlink:href="#DejaVuSans-30" x="147.412109"/>
       <use xlink:href="#DejaVuSans-30" x="211.035156"/>
       <use xlink:href="#DejaVuSans-30" x="274.658203"/>
      </g>
     </g>
    </g>
    <g id="ytick_4">
     <g id="line2d_13">
      <g>
       <use xlink:href="#m2d99a3bfe9" x="47.192188" y="148.87469" style="stroke: #000000; stroke-width: 0.8"/>
      </g>
     </g>
     <g id="text_13">
      <!-- 0 -->
      <g transform="translate(33.829688 152.673908) scale(0.1 -0.1)">
       <use xlink:href="#DejaVuSans-30"/>
      </g>
     </g>
    </g>
    <g id="ytick_5">
     <g id="line2d_14">
      <g>
       <use xlink:href="#m2d99a3bfe9" x="47.192188" y="118.433137" style="stroke: #000000; stroke-width: 0.8"/>
      </g>
     </g>
     <g id="text_14">
      <!-- 5000 -->
      <g transform="translate(14.742188 122.232356) scale(0.1 -0.1)">
       <use xlink:href="#DejaVuSans-35"/>
       <use xlink:href="#DejaVuSans-30" x="63.623047"/>
       <use xlink:href="#DejaVuSans-30" x="127.246094"/>
       <use xlink:href="#DejaVuSans-30" x="190.869141"/>
      </g>
     </g>
    </g>
    <g id="ytick_6">
     <g id="line2d_15">
      <g>
       <use xlink:href="#m2d99a3bfe9" x="47.192188" y="87.991584" style="stroke: #000000; stroke-width: 0.8"/>
      </g>
     </g>
     <g id="text_15">
      <!-- 10000 -->
      <g transform="translate(8.379688 91.790803) scale(0.1 -0.1)">
       <use xlink:href="#DejaVuSans-31"/>
       <use xlink:href="#DejaVuSans-30" x="63.623047"/>
       <use xlink:href="#DejaVuSans-30" x="127.246094"/>
       <use xlink:href="#DejaVuSans-30" x="190.869141"/>
       <use xlink:href="#DejaVuSans-30" x="254.492188"/>
      </g>
     </g>
    </g>
    <g id="ytick_7">
     <g id="line2d_16">
      <g>
       <use xlink:href="#m2d99a3bfe9" x="47.192188" y="57.550031" style="stroke: #000000; stroke-width: 0.8"/>
      </g>
     </g>
     <g id="text_16">
      <!-- 15000 -->
      <g transform="translate(8.379688 61.34925) scale(0.1 -0.1)">
       <use xlink:href="#DejaVuSans-31"/>
       <use xlink:href="#DejaVuSans-35" x="63.623047"/>
       <use xlink:href="#DejaVuSans-30" x="127.246094"/>
       <use xlink:href="#DejaVuSans-30" x="190.869141"/>
       <use xlink:href="#DejaVuSans-30" x="254.492188"/>
      </g>
     </g>
    </g>
    <g id="ytick_8">
     <g id="line2d_17">
      <g>
       <use xlink:href="#m2d99a3bfe9" x="47.192188" y="27.108478" style="stroke: #000000; stroke-width: 0.8"/>
      </g>
     </g>
     <g id="text_17">
      <!-- 20000 -->
      <g transform="translate(8.379688 30.907697) scale(0.1 -0.1)">
       <use xlink:href="#DejaVuSans-32"/>
       <use xlink:href="#DejaVuSans-30" x="63.623047"/>
       <use xlink:href="#DejaVuSans-30" x="127.246094"/>
       <use xlink:href="#DejaVuSans-30" x="190.869141"/>
       <use xlink:href="#DejaVuSans-30" x="254.492188"/>
      </g>
     </g>
    </g>
   </g>
   <g id="line2d_18">
    <path d="M 75.092188 148.820382 
L 75.374148 148.926126 
L 75.656109 148.825874 
L 75.938069 148.921101 
L 76.22003 148.830493 
L 76.50199 148.916837 
L 76.783951 148.834445 
L 77.065912 148.91316 
L 77.347872 148.83788 
L 77.629833 148.909941 
L 77.911793 148.840907 
L 78.193754 148.907084 
L 78.475715 148.843612 
L 78.757675 148.904514 
L 79.039636 148.846062 
L 79.603557 148.84831 
L 80.449439 148.897974 
L 81.29532 148.854288 
L 82.141202 148.892284 
L 82.987084 148.859986 
L 84.114926 148.864396 
L 85.80669 148.87534 
L 87.780414 148.746363 
L 88.626296 153.644142 
L 88.908256 155.738864 
L 89.190217 156.495183 
L 89.472177 155.830905 
L 90.036099 153.899463 
L 90.60002 150.607238 
L 90.88198 150.964998 
L 91.445901 154.420516 
L 91.727862 153.060133 
L 92.009823 149.63103 
L 92.291783 152.078641 
L 92.855704 170.95208 
L 93.419626 170.135303 
L 93.701586 172.448604 
L 93.983547 166.647943 
L 94.547468 133.548048 
L 94.829429 128.591907 
L 95.67531 133.482958 
L 95.957271 131.340525 
L 96.239231 128.117415 
L 96.521192 127.771336 
L 97.085113 136.185264 
L 97.649034 143.317204 
L 97.930995 145.57112 
L 98.212956 146.507252 
L 98.494916 146.076729 
L 98.776877 145.236488 
L 99.058837 145.450426 
L 99.340798 146.881443 
L 99.904719 151.68936 
L 100.18668 151.610711 
L 100.46864 150.359414 
L 100.750601 152.155877 
L 101.032561 154.791491 
L 101.314522 151.965276 
L 101.596483 145.637908 
L 101.878443 143.467538 
L 102.160404 144.914392 
L 102.442364 145.320342 
L 102.724325 145.494477 
L 103.006286 146.851995 
L 103.288246 146.649691 
L 103.570207 145.481196 
L 104.134128 146.900618 
L 104.416088 145.598959 
L 104.698049 145.981224 
L 105.26197 153.864937 
L 105.825891 156.443699 
L 106.107852 157.367593 
L 106.389813 156.253303 
L 107.235694 144.66799 
L 107.517655 144.647109 
L 107.799615 142.678772 
L 108.363537 130.221929 
L 108.645497 131.944155 
L 108.927458 137.690349 
L 109.209418 140.882192 
L 109.491379 141.127862 
L 109.77334 140.23505 
L 110.337261 136.21105 
L 110.619221 139.169349 
L 110.901182 144.632156 
L 111.183143 147.918575 
L 111.465103 148.902751 
L 111.747064 148.225276 
L 112.592945 138.250068 
L 112.874906 139.305778 
L 113.156867 139.51094 
L 113.438827 138.743568 
L 113.720788 139.383028 
L 115.130591 149.065466 
L 115.412551 149.306194 
L 115.694512 149.029128 
L 115.976472 150.492393 
L 116.258433 153.103688 
L 116.540394 154.529799 
L 116.822354 154.310477 
L 117.668236 152.964897 
L 117.950197 153.103815 
L 119.36 160.005286 
L 119.923921 160.608037 
L 120.205881 163.498171 
L 120.487842 167.703095 
L 120.769802 168.079146 
L 121.333724 158.72654 
L 121.615684 152.604815 
L 122.179605 133.032783 
L 122.461566 130.134633 
L 123.025487 136.366022 
L 123.589408 134.033498 
L 124.153329 134.634335 
L 124.43529 135.175342 
L 124.999211 137.834495 
L 125.563132 135.372724 
L 125.845093 136.078702 
L 126.690975 143.850279 
L 126.972935 144.805661 
L 127.254896 143.541055 
L 127.536857 140.89961 
L 127.818817 140.176544 
L 128.664699 148.253599 
L 129.510581 143.583961 
L 130.356462 130.15711 
L 130.638423 130.387549 
L 130.920384 129.38541 
L 131.202344 127.792743 
L 131.484305 128.215036 
L 131.766265 128.042354 
L 132.048226 125.863975 
L 132.330186 126.356935 
L 132.612147 129.158119 
L 132.894108 128.535259 
L 133.176068 127.576075 
L 133.739989 140.591857 
L 134.02195 140.488635 
L 134.303911 138.546689 
L 135.149792 148.080734 
L 135.713714 151.494266 
L 135.995674 151.126269 
L 136.277635 152.186567 
L 136.559595 155.417191 
L 136.841556 156.522304 
L 137.123516 155.836821 
L 137.405477 156.322259 
L 137.687438 156.45454 
L 137.969398 157.083537 
L 138.533319 164.907728 
L 138.81528 159.039242 
L 139.097241 150.54162 
L 139.379201 148.914193 
L 139.661162 150.47181 
L 139.943122 149.419125 
L 140.225083 148.82105 
L 140.507043 149.612245 
L 141.070965 146.951349 
L 141.352925 148.379593 
L 141.634886 146.437108 
L 141.916846 140.426521 
L 142.198807 141.675695 
L 142.480768 152.177506 
L 142.762728 158.007811 
L 143.044689 155.161302 
L 143.326649 155.96062 
L 143.60861 163.339219 
L 143.890571 165.384856 
L 144.172531 159.372817 
L 144.454492 155.784382 
L 145.864295 170.228608 
L 146.428216 170.917273 
L 146.710176 172.236486 
L 146.992137 171.764088 
L 147.274098 169.662872 
L 147.838019 167.017694 
L 148.6839 159.342627 
L 149.529782 134.055714 
L 149.811743 133.030261 
L 150.093703 132.596128 
L 150.375664 133.056957 
L 150.657625 134.333435 
L 150.939585 132.918938 
L 151.503506 126.138182 
L 151.785467 124.115913 
L 152.067428 124.202476 
L 152.631349 134.955404 
L 152.913309 134.273268 
L 153.47723 124.549779 
L 153.759191 126.206202 
L 154.323112 141.258182 
L 154.887033 154.087018 
L 155.450955 161.856759 
L 155.732915 162.46409 
L 156.014876 162.561935 
L 156.296836 161.619105 
L 157.142718 152.588563 
L 157.706639 151.211712 
L 157.9886 151.404189 
L 158.27056 151.355136 
L 158.552521 151.052261 
L 158.834482 152.317028 
L 159.116442 154.608495 
L 159.398403 155.583892 
L 159.680363 154.918035 
L 159.962324 153.852977 
L 160.244285 153.500907 
L 160.526245 154.701689 
L 160.808206 156.546295 
L 161.090166 157.148028 
L 161.372127 156.922743 
L 161.654087 158.243584 
L 162.218009 164.912301 
L 162.499969 163.59531 
L 163.627812 135.446465 
L 163.909772 131.590821 
L 164.191733 130.02497 
L 164.473693 131.390148 
L 164.755654 130.796272 
L 165.037614 127.051011 
L 165.319575 126.618065 
L 166.447417 152.073533 
L 166.729378 155.213266 
L 167.011339 152.271193 
L 167.293299 145.340044 
L 167.57526 142.004428 
L 167.85722 143.701227 
L 168.139181 144.578011 
L 168.421142 142.973141 
L 168.703102 143.823404 
L 169.267023 153.245396 
L 169.548984 152.985631 
L 169.830944 150.589214 
L 170.112905 151.01863 
L 170.394866 154.457764 
L 170.676826 156.290742 
L 171.240747 152.553415 
L 171.522708 153.12828 
L 172.086629 155.491774 
L 172.36859 155.785637 
L 172.932511 153.785941 
L 173.214471 154.627475 
L 173.496432 156.67831 
L 173.778393 157.406767 
L 174.060353 157.423986 
L 174.342314 158.560457 
L 174.906235 163.349684 
L 175.188196 166.043512 
L 175.470156 167.270871 
L 175.752117 166.878418 
L 176.034077 165.852507 
L 176.316038 162.278923 
L 176.879959 146.337703 
L 177.16192 145.938489 
L 177.725841 155.247607 
L 178.007801 154.325755 
L 178.571723 149.721428 
L 179.135644 143.766979 
L 179.417604 145.143263 
L 179.699565 148.891651 
L 179.981526 150.140455 
L 180.545447 145.148447 
L 180.827407 144.495398 
L 181.109368 143.421835 
L 181.391328 138.667791 
L 181.95525 124.915463 
L 182.519171 120.223414 
L 182.801131 118.437137 
L 183.083092 119.992241 
L 183.647013 130.815216 
L 183.928974 130.799262 
L 184.210934 130.376638 
L 184.774856 138.609574 
L 185.056816 139.227122 
L 185.338777 139.17203 
L 185.620737 141.974879 
L 186.184658 151.391862 
L 186.74858 161.417252 
L 187.312501 160.795068 
L 187.594461 161.564802 
L 187.876422 158.75903 
L 188.158383 153.789476 
L 188.440343 153.443716 
L 189.004264 160.877503 
L 189.286225 162.059681 
L 189.568185 162.675971 
L 189.850146 160.427998 
L 190.696028 136.463885 
L 190.977988 135.464066 
L 191.259949 138.218135 
L 191.54191 139.698642 
L 191.82387 138.848426 
L 192.105831 141.461589 
L 192.669752 158.836405 
L 192.951713 160.789033 
L 193.233673 160.692347 
L 193.515634 162.337504 
L 193.797594 159.833606 
L 194.361515 143.308474 
L 194.643476 143.541225 
L 194.925437 144.889711 
L 195.207397 143.462084 
L 195.489358 143.644211 
L 195.771318 146.353758 
L 196.053279 147.666141 
L 196.33524 147.696687 
L 196.6172 148.220326 
L 196.899161 147.665647 
L 197.181121 146.201133 
L 197.463082 146.370339 
L 197.745042 146.994542 
L 198.027003 146.507674 
L 198.308964 147.21761 
L 198.590924 148.668313 
L 198.872885 147.850107 
L 199.154845 149.484262 
L 199.718767 170.404895 
L 200.000727 170.547482 
L 200.282688 166.247119 
L 200.564648 168.644685 
L 200.846609 172.381651 
L 201.41053 162.60695 
L 201.692491 163.51219 
L 201.974451 165.701616 
L 202.256412 164.113328 
L 202.538372 163.368599 
L 202.820333 163.36991 
L 203.102294 156.049742 
L 203.666215 129.090727 
L 203.948175 123.77334 
L 204.230136 123.912459 
L 204.512097 127.007184 
L 204.794057 128.653849 
L 205.357978 122.673021 
L 205.639939 122.260704 
L 205.921899 120.934653 
L 206.20386 120.980704 
L 206.485821 133.127601 
L 207.049742 169.025351 
L 207.331702 167.832319 
L 207.613663 163.367085 
L 207.895624 162.396422 
L 208.177584 160.065898 
L 208.459545 155.815444 
L 208.741505 154.387315 
L 209.305427 157.367042 
L 209.587387 159.490477 
L 209.869348 159.458315 
L 210.151308 155.802656 
L 210.433269 153.599456 
L 211.843072 165.957168 
L 212.125032 166.229452 
L 212.406993 167.721725 
L 212.970914 173.12503 
L 213.252875 173.429276 
L 213.534835 174.543917 
L 214.098756 180.269685 
L 214.380717 181.094854 
L 214.662678 178.132372 
L 214.944638 173.61097 
L 215.226599 171.925108 
L 215.79052 174.284941 
L 216.072481 173.235097 
L 216.354441 169.85123 
L 216.636402 161.394384 
L 217.482284 111.860976 
L 217.764244 107.82418 
L 218.328165 114.234151 
L 218.610126 113.342413 
L 218.892086 111.642601 
L 219.174047 111.32229 
L 219.456008 111.360112 
L 219.737968 113.182153 
L 220.58385 133.690089 
L 220.865811 133.826008 
L 221.429732 130.414848 
L 221.711692 131.431568 
L 221.993653 134.274706 
L 222.275613 135.076616 
L 223.121495 127.548145 
L 223.403456 127.331962 
L 223.685416 128.621804 
L 223.967377 130.670031 
L 224.249338 130.960678 
L 224.531298 130.791657 
L 224.813259 134.266249 
L 226.223062 166.767366 
L 226.505022 167.823252 
L 226.786983 165.404509 
L 227.068943 164.594621 
L 228.196786 169.249325 
L 228.478746 167.986252 
L 228.760707 165.4502 
L 229.042668 165.499041 
L 229.324628 168.267898 
L 229.606589 167.848753 
L 229.888549 160.106305 
L 230.45247 140.102302 
L 230.734431 137.039452 
L 231.016392 137.801095 
L 231.862273 145.692398 
L 232.144234 145.809555 
L 232.426195 148.975435 
L 232.708155 155.783907 
L 232.990116 158.222622 
L 233.554037 145.466065 
L 233.835998 145.311968 
L 234.117958 147.759269 
L 234.96384 150.352931 
L 235.2458 149.042042 
L 235.527761 149.161272 
L 235.809722 152.476942 
L 236.091682 153.220456 
L 236.373643 151.051008 
L 236.655603 155.018173 
L 236.937564 165.524632 
L 237.219525 171.615935 
L 237.501485 171.448756 
L 237.783446 173.788808 
L 238.065406 178.081674 
L 238.347367 175.318724 
L 238.629327 166.770319 
L 238.911288 162.630226 
L 239.475209 168.709882 
L 239.75717 168.760221 
L 240.03913 169.056926 
L 240.885012 181.511431 
L 241.166973 180.209983 
L 241.448933 182.249359 
L 241.730894 186.05605 
L 242.012855 185.512134 
L 242.576776 179.994793 
L 242.858736 171.706725 
L 243.704618 125.552913 
L 244.83246 93.586733 
L 245.396382 69.906552 
L 246.242263 46.397151 
L 246.524224 52.551922 
L 247.652066 133.911494 
L 248.215987 151.254299 
L 248.497948 156.131264 
L 248.779909 157.732854 
L 249.061869 161.479647 
L 249.62579 176.268313 
L 249.907751 176.396006 
L 250.189712 176.879307 
L 250.471672 181.318466 
L 250.753633 182.952528 
L 251.035593 179.36232 
L 251.317554 177.761365 
L 251.599514 180.102623 
L 251.881475 180.895123 
L 252.163436 181.036257 
L 253.009317 192.399996 
L 253.291278 194.762802 
L 253.573239 199.407871 
L 253.855199 201.418678 
L 254.13716 201.790225 
L 254.41912 207.286175 
L 254.983041 223.699461 
L 255.546963 233.116518 
L 255.828923 227.237177 
L 256.392844 174.07335 
L 257.520687 70.238698 
L 258.084608 40.558104 
L 258.648529 25.921068 
L 258.93049 25.373144 
L 259.21245 26.673684 
L 259.494411 30.714178 
L 259.776371 43.482489 
L 260.340293 79.448875 
L 261.468135 124.22764 
L 262.314017 174.950579 
L 262.877938 190.568788 
L 263.159898 193.228229 
L 263.72382 183.992258 
L 264.00578 184.771406 
L 264.287741 188.078206 
L 264.569701 189.743048 
L 264.851662 190.584402 
L 265.133623 192.376203 
L 266.261465 201.899462 
L 266.543425 203.33987 
L 267.389307 211.489138 
L 268.235189 222.15631 
L 268.51715 224.912709 
L 268.79911 225.340464 
L 269.081071 214.461275 
L 270.208913 105.503045 
L 270.772834 52.3816 
L 271.054795 39.453942 
L 271.618716 25.983371 
L 271.900677 23.313058 
L 272.182637 25.822233 
L 272.464598 35.215245 
L 273.31048 76.802277 
L 273.874401 95.190931 
L 275.284204 168.838281 
L 276.130085 190.315629 
L 276.412046 191.73325 
L 276.694007 188.607616 
L 276.975967 188.237201 
L 277.257928 191.911742 
L 277.539888 191.833464 
L 277.821849 187.469089 
L 278.10381 187.34311 
L 278.38577 191.365258 
L 278.667731 191.904609 
L 278.949691 190.953817 
L 279.231652 195.877636 
L 279.513612 203.78103 
L 279.795573 207.379019 
L 280.077534 208.338901 
L 280.359494 212.265838 
L 280.641455 218.016437 
L 280.923415 220.170235 
L 281.205376 217.217771 
L 281.769297 209.975079 
L 282.051258 202.347616 
L 282.333218 182.767611 
L 283.1791 106.765132 
L 284.024982 47.639716 
L 284.306942 37.872295 
L 284.588903 32.920487 
L 284.870864 36.406105 
L 285.434785 64.892771 
L 286.280667 109.859777 
L 287.126548 133.425865 
L 287.690469 155.645469 
L 288.254391 171.663524 
L 288.536351 174.333108 
L 289.100272 171.218458 
L 289.382233 171.582241 
L 289.664194 172.298592 
L 289.946154 172.328635 
L 290.228115 172.178102 
L 290.510075 171.836237 
L 290.792036 171.693576 
L 291.073996 174.122485 
L 291.637918 183.998128 
L 291.919878 184.315104 
L 292.201839 184.173617 
L 292.76576 187.912975 
L 293.047721 187.736784 
L 293.329681 189.960256 
L 294.175563 206.204631 
L 294.457524 208.305138 
L 294.739484 209.346632 
L 295.021445 207.798315 
L 295.303405 196.491999 
L 296.713208 72.60074 
L 296.995169 53.149383 
L 297.277129 45.860564 
L 297.55909 46.430899 
L 297.841051 50.352199 
L 298.123011 61.647544 
L 298.686932 97.774588 
L 299.250853 115.883293 
L 299.814775 134.470286 
L 300.660656 164.199494 
L 300.942617 170.225578 
L 301.224578 170.945958 
L 301.506538 170.051214 
L 301.788499 170.063465 
L 302.35242 167.084573 
L 302.916341 174.083466 
L 303.480262 174.639087 
L 303.762223 177.204847 
L 304.044183 177.507018 
L 304.326144 176.06515 
L 304.890065 177.458204 
L 305.172026 176.5117 
L 305.453986 179.022256 
L 305.735947 183.169485 
L 306.017908 182.332095 
L 306.299868 180.394967 
L 306.863789 188.201679 
L 307.14575 189.20846 
L 307.42771 191.200992 
L 307.709671 194.159347 
L 307.991632 191.803691 
L 308.273592 183.047347 
L 308.555553 169.161911 
L 309.683395 93.059294 
L 310.247316 70.408661 
L 310.529277 64.822329 
L 310.811238 64.655109 
L 311.093198 71.491767 
L 312.22104 136.17921 
L 313.066922 161.837623 
L 313.348883 166.306791 
L 313.630843 167.839508 
L 313.912804 166.736752 
L 314.194765 167.038077 
L 314.476725 170.286519 
L 314.758686 172.039523 
L 315.604567 165.738374 
L 315.886528 165.416889 
L 316.168489 163.345809 
L 316.450449 160.347802 
L 316.73241 159.338961 
L 317.296331 162.293098 
L 317.578292 161.175783 
L 317.860252 159.558606 
L 318.142213 158.629376 
L 318.706134 155.25171 
L 318.988095 155.436694 
L 319.270055 156.014515 
L 319.552016 154.512589 
L 319.833976 151.383989 
L 320.115937 146.054881 
L 320.961819 118.016866 
L 321.52574 115.94334 
L 322.089661 110.1196 
L 322.653582 107.213476 
L 322.935543 108.666148 
L 323.217503 116.175985 
L 324.627306 180.942925 
L 324.909267 182.627404 
L 325.755149 153.437126 
L 326.31907 150.250468 
L 326.60103 149.222517 
L 326.882991 150.556995 
L 327.446912 156.684887 
L 327.728873 158.328564 
L 328.010833 159.217518 
L 328.292794 159.638492 
L 328.574754 158.795116 
L 328.856715 157.404449 
L 329.138676 158.191219 
L 329.702597 165.484353 
L 330.266518 169.100852 
L 330.830439 176.391346 
L 331.1124 176.227062 
L 331.39436 173.949927 
L 331.676321 176.119356 
L 331.958281 182.244176 
L 332.240242 184.892271 
L 332.522203 185.740315 
L 332.804163 193.97057 
L 333.086124 206.459671 
L 333.368084 210.617331 
L 333.650045 204.743935 
L 333.932006 194.883992 
L 334.495927 162.974444 
L 335.90573 85.532702 
L 336.751611 44.117321 
L 337.033572 48.204415 
L 337.597493 73.56482 
L 337.879454 87.246069 
L 338.161414 94.905743 
L 338.443375 98.817861 
L 338.725336 109.347651 
L 339.289257 135.564449 
L 339.571217 139.394145 
L 339.853178 147.788411 
L 340.417099 170.860149 
L 340.98102 179.673763 
L 341.544941 183.390968 
L 342.108863 192.565963 
L 342.390823 191.931276 
L 342.672784 192.239981 
L 343.236705 203.563687 
L 343.800626 203.093303 
L 345.210429 218.48539 
L 345.49239 218.732288 
L 345.77435 220.463711 
L 346.338271 229.520982 
L 346.620232 229.058129 
L 346.902193 218.414481 
L 347.466114 169.274555 
L 348.311995 88.514506 
L 349.157877 47.320839 
L 349.721798 18.493446 
L 350.003759 12.096 
L 350.28572 16.454307 
L 351.131601 50.388123 
L 352.259444 93.090867 
L 352.823365 116.046303 
L 353.669247 142.721758 
L 353.951207 148.595386 
L 354.797089 185.559084 
L 355.07905 188.391397 
L 356.488852 217.909091 
L 356.770813 219.762588 
L 357.052774 222.702433 
L 357.334734 229.4313 
L 357.616695 230.646208 
L 357.898655 224.056625 
L 358.180616 222.876494 
L 358.744537 241.560304 
L 359.590419 251.75068 
L 359.87238 240.726757 
L 360.436301 176.281941 
L 361.000222 105.22375 
L 361.846104 45.030389 
L 362.128064 27.274149 
L 362.410025 19.492701 
L 362.691985 19.065265 
L 362.973946 22.461772 
L 363.255907 32.083866 
L 364.383749 86.312979 
L 365.229631 114.035421 
L 365.511591 127.919931 
L 365.793552 133.804811 
L 366.075512 134.755047 
L 366.639434 138.549781 
L 366.921394 140.221782 
L 367.203355 147.568858 
L 367.767276 165.557804 
L 368.049237 171.476684 
L 369.177079 206.322161 
L 369.741 216.914793 
L 370.022961 219.447232 
L 370.586882 215.102251 
L 370.868842 216.067406 
L 371.996685 229.568967 
L 372.560606 240.372332 
L 372.842566 237.103304 
L 373.124527 221.772829 
L 373.688448 162.844863 
L 374.252369 103.691924 
L 374.816291 62.945637 
L 375.098251 47.65522 
L 375.380212 40.084152 
L 375.662172 39.415131 
L 375.944133 41.89398 
L 376.226094 47.074634 
L 377.353936 77.992104 
L 377.917857 93.35758 
L 380.173542 172.081926 
L 380.455502 178.590193 
L 380.737463 182.124908 
L 381.019423 183.592225 
L 381.301384 181.347669 
L 381.865305 167.489122 
L 382.147266 168.378926 
L 382.711187 180.859024 
L 383.275108 184.09335 
L 383.557069 188.567292 
L 384.12099 201.203567 
L 384.684911 208.016415 
L 384.966872 213.239329 
L 385.248832 215.050109 
L 386.094714 204.792814 
L 386.376675 192.805166 
L 387.786478 89.027973 
L 388.632359 59.445205 
L 388.91432 56.870502 
L 389.760202 76.062772 
L 390.042162 78.714448 
L 390.324123 83.037598 
L 390.888044 99.944044 
L 391.170005 112.198315 
L 392.297847 178.653863 
L 392.861768 190.948699 
L 393.143729 193.798454 
L 393.425689 190.232484 
L 393.70765 183.788506 
L 393.98961 180.436572 
L 394.271571 180.332116 
L 394.553532 180.538165 
L 394.835492 181.424694 
L 395.399413 186.6757 
L 397.091177 206.480377 
L 397.373137 207.943355 
L 398.219019 218.554087 
L 398.50098 218.791096 
L 398.78294 223.908577 
L 399.064901 224.406063 
L 399.346862 207.399704 
L 400.756665 65.946 
L 401.038625 46.835737 
L 401.320586 38.411298 
L 401.602546 36.584902 
L 401.884507 37.561779 
L 402.166467 44.978032 
L 403.012349 87.874144 
L 403.29431 95.662128 
L 403.858231 117.044263 
L 404.140192 121.214269 
L 404.422152 123.520109 
L 404.704113 133.214385 
L 404.986073 147.422244 
L 405.268034 153.823503 
L 405.549994 152.968159 
L 405.831955 158.231035 
L 406.113916 169.857017 
L 406.395876 174.056654 
L 406.677837 170.399421 
L 406.959797 171.250591 
L 407.241758 175.301105 
L 407.523719 171.394272 
L 407.805679 163.317709 
L 408.08764 163.128055 
L 409.215482 187.868084 
L 410.061364 202.264574 
L 410.343324 208.527592 
L 410.625285 211.32498 
L 410.907246 217.46469 
L 411.471167 248.075514 
L 411.753127 254.016 
L 412.035088 244.517355 
L 412.317049 219.374026 
L 413.16293 114.243391 
L 413.444891 94.368469 
L 414.008812 75.052239 
L 414.290773 69.660743 
L 414.572733 67.522863 
L 415.136654 65.666411 
L 415.418615 69.114539 
L 416.828418 112.226495 
L 417.110379 114.664812 
L 417.6743 122.25121 
L 417.95626 124.016855 
L 418.238221 129.148371 
L 418.520181 139.744666 
L 418.802142 145.836439 
L 419.084103 144.442683 
L 419.366063 147.068472 
L 419.648024 156.164652 
L 419.929984 159.042259 
L 420.211945 153.238408 
L 420.493906 151.101882 
L 421.057827 162.06495 
L 421.339787 165.14239 
L 421.903708 173.720631 
L 422.185669 175.938151 
L 422.46763 179.303987 
L 423.031551 188.745745 
L 423.313511 192.404254 
L 424.723314 229.900455 
L 425.005275 224.488148 
L 425.851157 150.087032 
L 426.415078 127.813603 
L 427.54292 96.817164 
L 427.824881 97.244882 
L 428.106841 99.56118 
L 428.388802 100.359072 
L 428.670763 106.2089 
L 429.234684 125.123925 
L 429.798605 137.26145 
L 430.080565 139.622211 
L 430.362526 136.938921 
L 430.644487 136.871808 
L 430.926447 141.461644 
L 431.208408 143.895289 
L 431.772329 141.29071 
L 432.05429 141.025225 
L 432.33625 137.124938 
L 432.900171 125.966453 
L 433.182132 126.505462 
L 433.464093 129.317264 
L 433.746053 133.54699 
L 435.719777 181.375745 
L 436.565659 195.533765 
L 437.12958 202.353229 
L 437.693501 203.795973 
L 437.975462 203.55522 
L 438.257422 196.90849 
L 438.539383 178.402451 
L 439.103304 127.692934 
L 439.667225 104.576145 
L 440.231147 84.867843 
L 440.513107 80.24207 
L 440.795068 78.832405 
L 441.077028 78.124658 
L 441.358989 79.812274 
L 441.64095 86.816487 
L 442.486831 120.796682 
L 443.614674 137.135349 
L 443.896634 138.266632 
L 444.178595 140.604686 
L 444.460555 140.708993 
L 444.742516 139.708247 
L 445.024477 145.710407 
L 445.306437 157.717188 
L 445.588398 164.853059 
L 445.870358 165.232672 
L 446.152319 167.419965 
L 446.434279 172.524629 
L 446.71624 172.409335 
L 446.998201 165.90255 
L 447.280161 163.038608 
L 447.844082 177.39663 
L 448.408004 181.273215 
L 448.971925 201.33245 
L 449.253885 203.113196 
L 449.535846 202.029877 
L 449.817806 205.125872 
L 450.099767 206.387554 
L 450.945649 188.692423 
L 451.227609 178.87855 
L 452.073491 130.990196 
L 452.637412 118.576822 
L 453.483294 103.599358 
L 453.765255 102.271937 
L 454.047215 102.394203 
L 454.329176 102.93652 
L 454.611136 104.676641 
L 454.893097 107.633273 
L 455.175058 111.928809 
L 456.020939 129.967069 
L 456.3029 132.651267 
L 457.430742 151.170122 
L 457.712703 153.777215 
L 458.276624 155.627538 
L 458.840545 164.195844 
L 459.122506 164.210286 
L 459.404466 162.100751 
L 459.686427 162.786856 
L 460.250348 167.027926 
L 461.660151 176.62337 
L 461.942112 177.126691 
L 462.224072 175.732572 
L 462.506033 177.367407 
L 462.787993 181.830193 
L 463.351915 186.154656 
L 463.633875 191.007611 
L 463.915836 192.748168 
L 464.197796 182.015281 
L 464.761718 145.31761 
L 466.17152 105.654472 
L 466.453481 104.109955 
L 466.735442 103.676797 
L 467.581323 99.208341 
L 467.863284 102.517628 
L 468.709166 130.322536 
L 468.991126 131.607651 
L 469.273087 131.446346 
L 469.555048 132.371471 
L 469.837008 137.417278 
L 470.400929 159.207055 
L 470.68289 162.0182 
L 470.96485 162.16375 
L 471.246811 165.856418 
L 471.528772 166.569291 
L 472.092693 153.370609 
L 472.374653 154.874918 
L 472.656614 158.525815 
L 473.220535 161.11005 
L 473.784456 166.346298 
L 474.348377 172.525521 
L 474.912299 176.6766 
L 475.47622 182.405401 
L 476.040141 185.102695 
L 476.604062 190.56143 
L 476.886023 187.929759 
L 477.449944 159.685444 
L 477.731905 147.4586 
L 478.859747 123.190991 
L 479.423668 117.432299 
L 479.987589 107.942288 
L 480.26955 107.472776 
L 480.55151 108.65161 
L 480.833471 110.365603 
L 481.115432 116.976255 
L 481.679353 135.651237 
L 482.243274 139.193509 
L 482.807195 145.181676 
L 483.089156 147.73394 
L 483.653077 154.02624 
L 483.935037 155.06473 
L 484.216998 156.722241 
L 485.06288 164.686913 
L 485.626801 168.650379 
L 485.908762 170.924085 
L 486.190722 170.912918 
L 486.472683 169.270454 
L 486.754643 169.311859 
L 487.036604 169.692078 
L 487.318564 167.598318 
L 487.600525 166.952011 
L 488.164446 175.84805 
L 488.446407 175.40851 
L 488.728367 174.752999 
L 489.010328 176.987823 
L 489.292289 177.524668 
L 489.574249 174.133333 
L 489.85621 168.930162 
L 490.13817 159.928983 
L 490.984052 118.49557 
L 491.547973 110.170118 
L 491.829934 106.471288 
L 492.393855 94.293049 
L 492.675816 93.073821 
L 493.239737 102.9033 
L 493.521697 104.151962 
L 493.803658 109.764754 
L 494.367579 125.665421 
L 494.64954 128.089184 
L 494.9315 133.876743 
L 495.495421 148.460855 
L 495.777382 149.478223 
L 496.059343 149.555793 
L 496.341303 153.403044 
L 496.905224 169.918565 
L 497.187185 172.889264 
L 497.469146 173.770012 
L 497.751106 176.349117 
L 498.033067 176.975809 
L 498.315027 171.349145 
L 498.596988 163.426327 
L 498.878948 159.609124 
L 499.160909 160.583977 
L 499.72483 166.324223 
L 500.288751 174.301916 
L 500.570712 175.40501 
L 500.852673 170.13034 
L 501.134633 161.736663 
L 501.416594 157.113509 
L 501.980515 155.604843 
L 502.262476 155.648219 
L 502.544436 159.008624 
L 502.826397 159.224073 
L 503.390318 141.29016 
L 503.672278 141.872207 
L 504.2362 153.996899 
L 504.51816 153.151753 
L 504.800121 148.763437 
L 505.082081 140.053549 
L 505.646003 113.766285 
L 505.927963 108.247322 
L 506.209924 112.750934 
L 506.491884 121.242343 
L 506.773845 125.37536 
L 507.055805 125.88396 
L 507.337766 129.648915 
L 507.901687 141.474823 
L 508.465608 146.12205 
L 509.02953 143.927515 
L 509.31149 148.170516 
L 509.593451 149.997958 
L 509.875411 143.716831 
L 510.157372 142.56528 
L 510.439333 153.87103 
L 510.721293 160.1992 
L 511.285214 146.71513 
L 511.849135 160.587836 
L 512.131096 159.789711 
L 512.413057 159.843019 
L 512.695017 163.601045 
L 512.976978 165.548213 
L 513.258938 165.247354 
L 513.540899 165.480919 
L 513.82286 165.516007 
L 514.10482 164.734612 
L 514.386781 165.354835 
L 514.668741 168.567042 
L 515.514623 182.344924 
L 515.796584 182.666418 
L 516.078544 176.552053 
L 516.642465 150.084161 
L 516.924426 143.666213 
L 517.206387 143.247644 
L 517.488347 140.478035 
L 517.770308 133.868204 
L 518.052268 129.93142 
L 518.334229 129.989398 
L 518.61619 128.861689 
L 518.89815 126.226745 
L 519.180111 125.52246 
L 519.462071 126.583139 
L 519.744032 129.803701 
L 520.307953 142.819938 
L 520.589914 138.397541 
L 520.871874 129.534838 
L 521.153835 126.989981 
L 521.435795 128.658333 
L 521.717756 128.215744 
L 521.999717 128.472155 
L 522.281677 131.744708 
L 522.563638 133.20641 
L 522.845598 132.82926 
L 523.127559 136.132264 
L 523.409519 141.955709 
L 523.973441 146.952643 
L 524.819322 164.906611 
L 525.383244 161.172794 
L 525.665204 162.598014 
L 525.947165 163.370854 
L 526.511086 156.893634 
L 526.793047 161.966435 
L 527.075007 169.277483 
L 527.638928 175.560671 
L 528.202849 186.233384 
L 528.48481 186.020186 
L 528.766771 187.0767 
L 529.048731 189.028042 
L 529.330692 184.606561 
L 530.176574 155.256824 
L 530.740495 139.983096 
L 531.022455 135.90277 
L 531.304416 129.546726 
L 531.868337 112.342668 
L 532.150298 111.731833 
L 532.714219 113.391063 
L 532.996179 119.964984 
L 533.27814 130.012974 
L 533.560101 134.661214 
L 534.405982 129.852763 
L 534.687943 128.360688 
L 535.251864 123.581587 
L 535.533825 122.643956 
L 535.815785 125.940579 
L 536.097746 131.323219 
L 536.379706 133.393034 
L 536.661667 134.579282 
L 536.943628 142.494354 
L 537.225588 154.140103 
L 537.507549 158.952756 
L 537.789509 156.485005 
L 538.07147 155.570076 
L 538.635391 161.200355 
L 538.917352 161.72945 
L 539.199312 161.888643 
L 539.481273 162.423053 
L 539.763233 164.219337 
L 540.327155 169.73142 
L 540.609115 170.827518 
L 541.173036 175.619758 
L 541.454997 175.70116 
L 541.736958 175.295561 
L 542.300879 179.095329 
L 542.582839 175.455451 
L 543.146761 165.401774 
L 544.556563 144.191086 
L 545.120485 132.296504 
L 545.402445 130.967253 
L 545.684406 131.610457 
L 545.966366 135.275813 
L 546.530288 148.361163 
L 546.812248 149.82721 
L 547.094209 148.582952 
L 547.65813 144.371746 
L 547.94009 145.411171 
L 549.067933 171.397689 
L 549.349893 173.809478 
L 549.631854 177.811079 
L 550.477736 194.432793 
L 550.759696 195.900543 
L 551.323618 203.336348 
L 551.605578 198.68782 
L 552.169499 171.102629 
L 552.73342 162.065666 
L 553.297342 135.888839 
L 554.143223 97.226455 
L 554.425184 88.499136 
L 554.707145 83.775669 
L 554.989105 82.833501 
L 555.271066 85.985194 
L 556.116947 104.352127 
L 556.680869 108.182382 
L 558.090672 131.930551 
L 558.372632 128.156957 
L 559.218514 100.515915 
L 559.500475 101.895995 
L 560.910277 145.34235 
L 561.192238 150.047299 
L 561.474199 149.98265 
L 562.03812 143.059745 
L 562.602041 149.003268 
L 562.884002 148.446043 
L 563.165962 148.692096 
L 564.011844 171.384377 
L 564.293804 172.757823 
L 564.857726 179.853638 
L 565.703607 192.179953 
L 565.985568 192.847304 
L 566.267529 192.552686 
L 566.549489 193.789684 
L 566.83145 194.493442 
L 567.11341 192.379319 
L 568.241253 178.129005 
L 568.523213 176.112713 
L 568.805174 168.442299 
L 569.369095 146.341846 
L 569.933016 129.481871 
L 570.496937 105.795301 
L 570.778898 100.987305 
L 571.060859 100.72916 
L 571.342819 101.673889 
L 571.62478 101.593506 
L 571.90674 101.991537 
L 572.470661 108.732132 
L 572.752622 113.197011 
L 573.598504 134.543728 
L 573.880464 133.927976 
L 574.162425 134.199697 
L 574.444386 134.271446 
L 574.726346 133.230067 
L 575.008307 136.540985 
L 575.290267 143.585287 
L 575.572228 146.504376 
L 575.854189 147.702462 
L 576.41811 160.229202 
L 576.70007 155.084954 
L 576.982031 146.447821 
L 577.263991 145.068403 
L 577.545952 147.663744 
L 577.827913 148.521908 
L 578.109873 150.231848 
L 578.391834 153.264927 
L 578.673794 153.962536 
L 578.955755 153.958916 
L 579.519676 160.737274 
L 579.801637 161.968921 
L 580.083597 165.415994 
L 580.929479 188.911853 
L 581.21144 191.075162 
L 581.4934 191.515784 
L 581.775361 191.343143 
L 582.057321 194.850947 
L 582.339282 201.188165 
L 582.621243 201.07451 
L 584.594967 137.923543 
L 584.876927 135.402534 
L 585.158888 135.186374 
L 585.722809 141.657695 
L 586.00477 142.937003 
L 586.850651 157.461772 
L 587.132612 157.595769 
L 587.696533 163.331013 
L 587.978494 162.11423 
L 588.542415 157.056845 
L 588.824375 154.534835 
L 589.388297 147.572763 
L 589.670257 148.677394 
L 589.952218 151.137499 
L 590.234178 151.313747 
L 590.7981 148.628315 
L 591.08006 145.786071 
L 591.362021 137.707093 
L 591.925942 115.985439 
L 592.207903 111.878591 
L 592.489863 112.816119 
L 592.771824 116.745436 
L 593.899666 138.384843 
L 594.181627 138.924273 
L 594.463587 136.889968 
L 595.027508 129.947769 
L 595.309469 132.451848 
L 595.87339 152.484558 
L 596.719272 189.128721 
L 597.001232 193.206398 
L 597.283193 195.064954 
L 597.565154 198.992423 
L 597.847114 200.168076 
L 598.129075 193.019137 
L 599.256917 148.093967 
L 599.820838 119.795317 
L 600.66672 93.885548 
L 601.512602 80.25444 
L 601.794562 77.270238 
L 602.076523 80.094141 
L 602.640444 97.444184 
L 603.768287 138.812693 
L 604.332208 151.752927 
L 604.896129 160.344156 
L 605.46005 170.20927 
L 606.305932 176.381535 
L 606.587892 176.140398 
L 606.869853 178.716488 
L 607.151814 183.909819 
L 607.433774 186.854426 
L 607.997695 187.679519 
L 608.279656 186.387462 
L 608.561617 184.276915 
L 608.843577 184.564227 
L 609.125538 185.309017 
L 609.407498 183.937295 
L 609.689459 184.57719 
L 609.971419 186.840227 
L 610.25338 183.501203 
L 610.535341 175.321305 
L 610.817301 170.784184 
L 611.099262 169.176799 
L 611.663183 162.595628 
L 611.945144 160.324734 
L 612.227104 150.830246 
L 612.791025 124.912462 
L 613.072986 122.295052 
L 613.354946 118.589663 
L 613.636907 113.028676 
L 613.918868 111.509537 
L 614.200828 114.550563 
L 614.482789 119.421055 
L 615.04671 133.114397 
L 615.328671 135.929658 
L 615.610631 136.243204 
L 615.892592 137.248465 
L 616.174552 137.766977 
L 616.456513 137.574067 
L 616.738474 137.89044 
L 617.020434 137.842716 
L 617.302395 136.527572 
L 617.866316 135.074973 
L 618.148276 133.550462 
L 618.430237 133.608158 
L 618.712198 135.554575 
L 618.994158 136.712587 
L 619.276119 140.980088 
L 619.84004 161.716302 
L 620.122001 163.822525 
L 620.403961 163.106965 
L 620.967882 165.21589 
L 621.249843 168.331869 
L 621.813764 180.413665 
L 622.095725 181.271237 
L 622.659646 184.043205 
L 623.223567 177.041599 
L 623.505528 177.149538 
L 623.787488 176.397519 
L 624.351409 162.058248 
L 624.915331 147.27415 
L 625.197291 142.425678 
L 625.479252 140.80974 
L 625.761212 138.309591 
L 626.325133 130.44325 
L 626.607094 129.399808 
L 626.889055 129.738642 
L 627.171015 130.52735 
L 627.452976 129.981814 
L 627.734936 130.017024 
L 628.016897 133.476395 
L 628.298858 139.713847 
L 628.580818 143.050133 
L 628.862779 142.202169 
L 629.144739 139.224956 
L 629.4267 138.105191 
L 629.990621 141.993484 
L 630.272582 139.759309 
L 630.554542 136.070748 
L 630.836503 135.034699 
L 631.118463 135.243628 
L 631.400424 131.745532 
L 631.682385 130.269826 
L 632.246306 135.986417 
L 632.528266 134.846904 
L 632.810227 135.469074 
L 633.092188 134.563012 
L 633.092188 134.563012 
" clip-path="url(#p6ce45567a0)" style="fill: none; stroke: #1f77b4; stroke-width: 1.5; stroke-linecap: square"/>
   </g>
   <g id="patch_3">
    <path d="M 47.192188 266.112 
L 47.192188 0 
" style="fill: none; stroke: #000000; stroke-width: 0.8; stroke-linejoin: miter; stroke-linecap: square"/>
   </g>
   <g id="patch_4">
    <path d="M 660.992188 266.112 
L 660.992188 0 
" style="fill: none; stroke: #000000; stroke-width: 0.8; stroke-linejoin: miter; stroke-linecap: square"/>
   </g>
   <g id="patch_5">
    <path d="M 47.192188 266.112 
L 660.992188 266.112 
" style="fill: none; stroke: #000000; stroke-width: 0.8; stroke-linejoin: miter; stroke-linecap: square"/>
   </g>
   <g id="patch_6">
    <path d="M 47.192188 0 
L 660.992188 0 
" style="fill: none; stroke: #000000; stroke-width: 0.8; stroke-linejoin: miter; stroke-linecap: square"/>
   </g>
  </g>
 </g>
 <defs>
  <clipPath id="p6ce45567a0">
   <rect x="47.192188" y="0" width="613.8" height="266.112"/>
  </clipPath>
 </defs>
</svg>
