<?xml version="1.0" encoding="utf-8" standalone="no"?>
<!DOCTYPE svg PUBLIC "-//W3C//DTD SVG 1.1//EN"
  "http://www.w3.org/Graphics/SVG/1.1/DTD/svg11.dtd">
<svg xmlns:xlink="http://www.w3.org/1999/xlink" width="660.992188pt" height="282.790125pt" viewBox="0 0 660.992188 282.790125" xmlns="http://www.w3.org/2000/svg" version="1.1">
 <metadata>
  <rdf:RDF xmlns:dc="http://purl.org/dc/elements/1.1/" xmlns:cc="http://creativecommons.org/ns#" xmlns:rdf="http://www.w3.org/1999/02/22-rdf-syntax-ns#">
   <cc:Work>
    <dc:type rdf:resource="http://purl.org/dc/dcmitype/StillImage"/>
    <dc:date>2023-03-06T19:25:44.081112</dc:date>
    <dc:format>image/svg+xml</dc:format>
    <dc:creator>
     <cc:Agent>
      <dc:title>Matplotlib v3.6.3, https://matplotlib.org/</dc:title>
     </cc:Agent>
    </dc:creator>
   </cc:Work>
  </rdf:RDF>
 </metadata>
 <defs>
  <style type="text/css">*{stroke-linejoin: round; stroke-linecap: butt}</style>
 </defs>
 <g id="figure_1">
  <g id="patch_1">
   <path d="M -0 282.790125 
L 660.992188 282.790125 
L 660.992188 0 
L -0 0 
L -0 282.790125 
z
" style="fill: none"/>
  </g>
  <g id="axes_1">
   <g id="patch_2">
    <path d="M 47.192188 266.112 
L 660.992188 266.112 
L 660.992188 0 
L 47.192188 0 
L 47.192188 266.112 
z
" style="fill: none"/>
   </g>
   <g id="matplotlib.axis_1">
    <g id="xtick_1">
     <g id="line2d_1">
      <defs>
       <path id="m6c663b0de0" d="M 0 0 
L 0 3.5 
" style="stroke: #000000; stroke-width: 0.8"/>
      </defs>
      <g>
       <use xlink:href="#m6c663b0de0" x="75.092188" y="266.112" style="stroke: #000000; stroke-width: 0.8"/>
      </g>
     </g>
     <g id="text_1">
      <!-- 0 -->
      <g transform="translate(71.910938 280.710438) scale(0.1 -0.1)">
       <defs>
        <path id="DejaVuSans-30" d="M 2034 4250 
Q 1547 4250 1301 3770 
Q 1056 3291 1056 2328 
Q 1056 1369 1301 889 
Q 1547 409 2034 409 
Q 2525 409 2770 889 
Q 3016 1369 3016 2328 
Q 3016 3291 2770 3770 
Q 2525 4250 2034 4250 
z
M 2034 4750 
Q 2819 4750 3233 4129 
Q 3647 3509 3647 2328 
Q 3647 1150 3233 529 
Q 2819 -91 2034 -91 
Q 1250 -91 836 529 
Q 422 1150 422 2328 
Q 422 3509 836 4129 
Q 1250 4750 2034 4750 
z
" transform="scale(0.015625)"/>
       </defs>
       <use xlink:href="#DejaVuSans-30"/>
      </g>
     </g>
    </g>
    <g id="xtick_2">
     <g id="line2d_2">
      <g>
       <use xlink:href="#m6c663b0de0" x="144.842188" y="266.112" style="stroke: #000000; stroke-width: 0.8"/>
      </g>
     </g>
     <g id="text_2">
      <!-- 500 -->
      <g transform="translate(135.298438 280.710438) scale(0.1 -0.1)">
       <defs>
        <path id="DejaVuSans-35" d="M 691 4666 
L 3169 4666 
L 3169 4134 
L 1269 4134 
L 1269 2991 
Q 1406 3038 1543 3061 
Q 1681 3084 1819 3084 
Q 2600 3084 3056 2656 
Q 3513 2228 3513 1497 
Q 3513 744 3044 326 
Q 2575 -91 1722 -91 
Q 1428 -91 1123 -41 
Q 819 9 494 109 
L 494 744 
Q 775 591 1075 516 
Q 1375 441 1709 441 
Q 2250 441 2565 725 
Q 2881 1009 2881 1497 
Q 2881 1984 2565 2268 
Q 2250 2553 1709 2553 
Q 1456 2553 1204 2497 
Q 953 2441 691 2322 
L 691 4666 
z
" transform="scale(0.015625)"/>
       </defs>
       <use xlink:href="#DejaVuSans-35"/>
       <use xlink:href="#DejaVuSans-30" x="63.623047"/>
       <use xlink:href="#DejaVuSans-30" x="127.246094"/>
      </g>
     </g>
    </g>
    <g id="xtick_3">
     <g id="line2d_3">
      <g>
       <use xlink:href="#m6c663b0de0" x="214.592188" y="266.112" style="stroke: #000000; stroke-width: 0.8"/>
      </g>
     </g>
     <g id="text_3">
      <!-- 1000 -->
      <g transform="translate(201.867188 280.710438) scale(0.1 -0.1)">
       <defs>
        <path id="DejaVuSans-31" d="M 794 531 
L 1825 531 
L 1825 4091 
L 703 3866 
L 703 4441 
L 1819 4666 
L 2450 4666 
L 2450 531 
L 3481 531 
L 3481 0 
L 794 0 
L 794 531 
z
" transform="scale(0.015625)"/>
       </defs>
       <use xlink:href="#DejaVuSans-31"/>
       <use xlink:href="#DejaVuSans-30" x="63.623047"/>
       <use xlink:href="#DejaVuSans-30" x="127.246094"/>
       <use xlink:href="#DejaVuSans-30" x="190.869141"/>
      </g>
     </g>
    </g>
    <g id="xtick_4">
     <g id="line2d_4">
      <g>
       <use xlink:href="#m6c663b0de0" x="284.342188" y="266.112" style="stroke: #000000; stroke-width: 0.8"/>
      </g>
     </g>
     <g id="text_4">
      <!-- 1500 -->
      <g transform="translate(271.617188 280.710438) scale(0.1 -0.1)">
       <use xlink:href="#DejaVuSans-31"/>
       <use xlink:href="#DejaVuSans-35" x="63.623047"/>
       <use xlink:href="#DejaVuSans-30" x="127.246094"/>
       <use xlink:href="#DejaVuSans-30" x="190.869141"/>
      </g>
     </g>
    </g>
    <g id="xtick_5">
     <g id="line2d_5">
      <g>
       <use xlink:href="#m6c663b0de0" x="354.092188" y="266.112" style="stroke: #000000; stroke-width: 0.8"/>
      </g>
     </g>
     <g id="text_5">
      <!-- 2000 -->
      <g transform="translate(341.367188 280.710438) scale(0.1 -0.1)">
       <defs>
        <path id="DejaVuSans-32" d="M 1228 531 
L 3431 531 
L 3431 0 
L 469 0 
L 469 531 
Q 828 903 1448 1529 
Q 2069 2156 2228 2338 
Q 2531 2678 2651 2914 
Q 2772 3150 2772 3378 
Q 2772 3750 2511 3984 
Q 2250 4219 1831 4219 
Q 1534 4219 1204 4116 
Q 875 4013 500 3803 
L 500 4441 
Q 881 4594 1212 4672 
Q 1544 4750 1819 4750 
Q 2544 4750 2975 4387 
Q 3406 4025 3406 3419 
Q 3406 3131 3298 2873 
Q 3191 2616 2906 2266 
Q 2828 2175 2409 1742 
Q 1991 1309 1228 531 
z
" transform="scale(0.015625)"/>
       </defs>
       <use xlink:href="#DejaVuSans-32"/>
       <use xlink:href="#DejaVuSans-30" x="63.623047"/>
       <use xlink:href="#DejaVuSans-30" x="127.246094"/>
       <use xlink:href="#DejaVuSans-30" x="190.869141"/>
      </g>
     </g>
    </g>
    <g id="xtick_6">
     <g id="line2d_6">
      <g>
       <use xlink:href="#m6c663b0de0" x="423.842188" y="266.112" style="stroke: #000000; stroke-width: 0.8"/>
      </g>
     </g>
     <g id="text_6">
      <!-- 2500 -->
      <g transform="translate(411.117188 280.710438) scale(0.1 -0.1)">
       <use xlink:href="#DejaVuSans-32"/>
       <use xlink:href="#DejaVuSans-35" x="63.623047"/>
       <use xlink:href="#DejaVuSans-30" x="127.246094"/>
       <use xlink:href="#DejaVuSans-30" x="190.869141"/>
      </g>
     </g>
    </g>
    <g id="xtick_7">
     <g id="line2d_7">
      <g>
       <use xlink:href="#m6c663b0de0" x="493.592188" y="266.112" style="stroke: #000000; stroke-width: 0.8"/>
      </g>
     </g>
     <g id="text_7">
      <!-- 3000 -->
      <g transform="translate(480.867188 280.710438) scale(0.1 -0.1)">
       <defs>
        <path id="DejaVuSans-33" d="M 2597 2516 
Q 3050 2419 3304 2112 
Q 3559 1806 3559 1356 
Q 3559 666 3084 287 
Q 2609 -91 1734 -91 
Q 1441 -91 1130 -33 
Q 819 25 488 141 
L 488 750 
Q 750 597 1062 519 
Q 1375 441 1716 441 
Q 2309 441 2620 675 
Q 2931 909 2931 1356 
Q 2931 1769 2642 2001 
Q 2353 2234 1838 2234 
L 1294 2234 
L 1294 2753 
L 1863 2753 
Q 2328 2753 2575 2939 
Q 2822 3125 2822 3475 
Q 2822 3834 2567 4026 
Q 2313 4219 1838 4219 
Q 1578 4219 1281 4162 
Q 984 4106 628 3988 
L 628 4550 
Q 988 4650 1302 4700 
Q 1616 4750 1894 4750 
Q 2613 4750 3031 4423 
Q 3450 4097 3450 3541 
Q 3450 3153 3228 2886 
Q 3006 2619 2597 2516 
z
" transform="scale(0.015625)"/>
       </defs>
       <use xlink:href="#DejaVuSans-33"/>
       <use xlink:href="#DejaVuSans-30" x="63.623047"/>
       <use xlink:href="#DejaVuSans-30" x="127.246094"/>
       <use xlink:href="#DejaVuSans-30" x="190.869141"/>
      </g>
     </g>
    </g>
    <g id="xtick_8">
     <g id="line2d_8">
      <g>
       <use xlink:href="#m6c663b0de0" x="563.342188" y="266.112" style="stroke: #000000; stroke-width: 0.8"/>
      </g>
     </g>
     <g id="text_8">
      <!-- 3500 -->
      <g transform="translate(550.617188 280.710438) scale(0.1 -0.1)">
       <use xlink:href="#DejaVuSans-33"/>
       <use xlink:href="#DejaVuSans-35" x="63.623047"/>
       <use xlink:href="#DejaVuSans-30" x="127.246094"/>
       <use xlink:href="#DejaVuSans-30" x="190.869141"/>
      </g>
     </g>
    </g>
    <g id="xtick_9">
     <g id="line2d_9">
      <g>
       <use xlink:href="#m6c663b0de0" x="633.092188" y="266.112" style="stroke: #000000; stroke-width: 0.8"/>
      </g>
     </g>
     <g id="text_9">
      <!-- 4000 -->
      <g transform="translate(620.367188 280.710438) scale(0.1 -0.1)">
       <defs>
        <path id="DejaVuSans-34" d="M 2419 4116 
L 825 1625 
L 2419 1625 
L 2419 4116 
z
M 2253 4666 
L 3047 4666 
L 3047 1625 
L 3713 1625 
L 3713 1100 
L 3047 1100 
L 3047 0 
L 2419 0 
L 2419 1100 
L 313 1100 
L 313 1709 
L 2253 4666 
z
" transform="scale(0.015625)"/>
       </defs>
       <use xlink:href="#DejaVuSans-34"/>
       <use xlink:href="#DejaVuSans-30" x="63.623047"/>
       <use xlink:href="#DejaVuSans-30" x="127.246094"/>
       <use xlink:href="#DejaVuSans-30" x="190.869141"/>
      </g>
     </g>
    </g>
   </g>
   <g id="matplotlib.axis_2">
    <g id="ytick_1">
     <g id="line2d_10">
      <defs>
       <path id="mba2deb4654" d="M 0 0 
L -3.5 0 
" style="stroke: #000000; stroke-width: 0.8"/>
      </defs>
      <g>
       <use xlink:href="#mba2deb4654" x="47.192188" y="259.751475" style="stroke: #000000; stroke-width: 0.8"/>
      </g>
     </g>
     <g id="text_10">
      <!-- −40000 -->
      <g transform="translate(0 263.550693) scale(0.1 -0.1)">
       <defs>
        <path id="DejaVuSans-2212" d="M 678 2272 
L 4684 2272 
L 4684 1741 
L 678 1741 
L 678 2272 
z
" transform="scale(0.015625)"/>
       </defs>
       <use xlink:href="#DejaVuSans-2212"/>
       <use xlink:href="#DejaVuSans-34" x="83.789062"/>
       <use xlink:href="#DejaVuSans-30" x="147.412109"/>
       <use xlink:href="#DejaVuSans-30" x="211.035156"/>
       <use xlink:href="#DejaVuSans-30" x="274.658203"/>
       <use xlink:href="#DejaVuSans-30" x="338.28125"/>
      </g>
     </g>
    </g>
    <g id="ytick_2">
     <g id="line2d_11">
      <g>
       <use xlink:href="#mba2deb4654" x="47.192188" y="229.287925" style="stroke: #000000; stroke-width: 0.8"/>
      </g>
     </g>
     <g id="text_11">
      <!-- −30000 -->
      <g transform="translate(0 233.087144) scale(0.1 -0.1)">
       <use xlink:href="#DejaVuSans-2212"/>
       <use xlink:href="#DejaVuSans-33" x="83.789062"/>
       <use xlink:href="#DejaVuSans-30" x="147.412109"/>
       <use xlink:href="#DejaVuSans-30" x="211.035156"/>
       <use xlink:href="#DejaVuSans-30" x="274.658203"/>
       <use xlink:href="#DejaVuSans-30" x="338.28125"/>
      </g>
     </g>
    </g>
    <g id="ytick_3">
     <g id="line2d_12">
      <g>
       <use xlink:href="#mba2deb4654" x="47.192188" y="198.824376" style="stroke: #000000; stroke-width: 0.8"/>
      </g>
     </g>
     <g id="text_12">
      <!-- −20000 -->
      <g transform="translate(0 202.623594) scale(0.1 -0.1)">
       <use xlink:href="#DejaVuSans-2212"/>
       <use xlink:href="#DejaVuSans-32" x="83.789062"/>
       <use xlink:href="#DejaVuSans-30" x="147.412109"/>
       <use xlink:href="#DejaVuSans-30" x="211.035156"/>
       <use xlink:href="#DejaVuSans-30" x="274.658203"/>
       <use xlink:href="#DejaVuSans-30" x="338.28125"/>
      </g>
     </g>
    </g>
    <g id="ytick_4">
     <g id="line2d_13">
      <g>
       <use xlink:href="#mba2deb4654" x="47.192188" y="168.360826" style="stroke: #000000; stroke-width: 0.8"/>
      </g>
     </g>
     <g id="text_13">
      <!-- −10000 -->
      <g transform="translate(0 172.160045) scale(0.1 -0.1)">
       <use xlink:href="#DejaVuSans-2212"/>
       <use xlink:href="#DejaVuSans-31" x="83.789062"/>
       <use xlink:href="#DejaVuSans-30" x="147.412109"/>
       <use xlink:href="#DejaVuSans-30" x="211.035156"/>
       <use xlink:href="#DejaVuSans-30" x="274.658203"/>
       <use xlink:href="#DejaVuSans-30" x="338.28125"/>
      </g>
     </g>
    </g>
    <g id="ytick_5">
     <g id="line2d_14">
      <g>
       <use xlink:href="#mba2deb4654" x="47.192188" y="137.897277" style="stroke: #000000; stroke-width: 0.8"/>
      </g>
     </g>
     <g id="text_14">
      <!-- 0 -->
      <g transform="translate(33.829688 141.696496) scale(0.1 -0.1)">
       <use xlink:href="#DejaVuSans-30"/>
      </g>
     </g>
    </g>
    <g id="ytick_6">
     <g id="line2d_15">
      <g>
       <use xlink:href="#mba2deb4654" x="47.192188" y="107.433727" style="stroke: #000000; stroke-width: 0.8"/>
      </g>
     </g>
     <g id="text_15">
      <!-- 10000 -->
      <g transform="translate(8.379688 111.232946) scale(0.1 -0.1)">
       <use xlink:href="#DejaVuSans-31"/>
       <use xlink:href="#DejaVuSans-30" x="63.623047"/>
       <use xlink:href="#DejaVuSans-30" x="127.246094"/>
       <use xlink:href="#DejaVuSans-30" x="190.869141"/>
       <use xlink:href="#DejaVuSans-30" x="254.492188"/>
      </g>
     </g>
    </g>
    <g id="ytick_7">
     <g id="line2d_16">
      <g>
       <use xlink:href="#mba2deb4654" x="47.192188" y="76.970178" style="stroke: #000000; stroke-width: 0.8"/>
      </g>
     </g>
     <g id="text_16">
      <!-- 20000 -->
      <g transform="translate(8.379688 80.769397) scale(0.1 -0.1)">
       <use xlink:href="#DejaVuSans-32"/>
       <use xlink:href="#DejaVuSans-30" x="63.623047"/>
       <use xlink:href="#DejaVuSans-30" x="127.246094"/>
       <use xlink:href="#DejaVuSans-30" x="190.869141"/>
       <use xlink:href="#DejaVuSans-30" x="254.492188"/>
      </g>
     </g>
    </g>
    <g id="ytick_8">
     <g id="line2d_17">
      <g>
       <use xlink:href="#mba2deb4654" x="47.192188" y="46.506629" style="stroke: #000000; stroke-width: 0.8"/>
      </g>
     </g>
     <g id="text_17">
      <!-- 30000 -->
      <g transform="translate(8.379688 50.305847) scale(0.1 -0.1)">
       <use xlink:href="#DejaVuSans-33"/>
       <use xlink:href="#DejaVuSans-30" x="63.623047"/>
       <use xlink:href="#DejaVuSans-30" x="127.246094"/>
       <use xlink:href="#DejaVuSans-30" x="190.869141"/>
       <use xlink:href="#DejaVuSans-30" x="254.492188"/>
      </g>
     </g>
    </g>
    <g id="ytick_9">
     <g id="line2d_18">
      <g>
       <use xlink:href="#mba2deb4654" x="47.192188" y="16.043079" style="stroke: #000000; stroke-width: 0.8"/>
      </g>
     </g>
     <g id="text_18">
      <!-- 40000 -->
      <g transform="translate(8.379688 19.842298) scale(0.1 -0.1)">
       <use xlink:href="#DejaVuSans-34"/>
       <use xlink:href="#DejaVuSans-30" x="63.623047"/>
       <use xlink:href="#DejaVuSans-30" x="127.246094"/>
       <use xlink:href="#DejaVuSans-30" x="190.869141"/>
       <use xlink:href="#DejaVuSans-30" x="254.492188"/>
      </g>
     </g>
    </g>
   </g>
   <g id="line2d_19">
    <path d="M 75.092188 137.962479 
L 75.374148 137.833769 
L 75.656109 137.959299 
L 75.938069 137.836558 
L 76.22003 137.956858 
L 76.50199 137.838685 
L 76.783951 137.955014 
L 77.065912 137.840271 
L 77.347872 137.953666 
L 77.629833 137.841398 
L 77.911793 137.952746 
L 78.193754 137.842122 
L 78.475715 137.952209 
L 78.757675 137.842478 
L 79.039636 137.952029 
L 79.321596 137.842487 
L 79.603557 137.952191 
L 79.885517 137.842154 
L 80.167478 137.952695 
L 80.449439 137.841474 
L 80.731399 137.953556 
L 81.01336 137.840427 
L 81.29532 137.954798 
L 81.577281 137.838979 
L 81.859242 137.956465 
L 82.141202 137.837077 
L 82.423163 137.95862 
L 82.705123 137.834646 
L 82.987084 137.961354 
L 83.269044 137.831577 
L 83.551005 137.964796 
L 83.832966 137.827716 
L 84.114926 137.969132 
L 84.396887 137.822839 
L 84.678847 137.974633 
L 84.960808 137.816612 
L 85.242769 137.981713 
L 85.524729 137.80852 
L 85.80669 137.991021 
L 86.08865 137.797728 
L 86.370611 138.003647 
L 86.652572 137.782793 
L 86.934532 138.021548 
L 87.216493 137.760992 
L 87.498453 138.048627 
L 87.780414 137.726518 
L 88.062374 138.093929 
L 88.344335 137.664436 
L 88.626296 138.184108 
L 88.908256 137.521659 
L 89.190217 138.444465 
L 89.472177 136.892197 
L 90.036099 149.089543 
L 90.60002 139.237417 
L 91.163941 124.26066 
L 91.445901 118.847792 
L 91.727862 116.885684 
L 92.009823 117.156122 
L 92.573744 121.945325 
L 92.855704 123.677564 
L 93.137665 123.795859 
L 93.419626 123.214686 
L 93.701586 122.183714 
L 93.983547 122.323417 
L 94.265507 123.252021 
L 94.829429 127.113344 
L 95.39335 138.020665 
L 95.67531 143.554339 
L 95.957271 145.190964 
L 96.521192 142.620797 
L 96.803153 142.278272 
L 97.085113 141.41882 
L 97.367074 140.01274 
L 97.649034 139.509788 
L 98.494916 143.671302 
L 98.776877 143.478537 
L 99.058837 144.038564 
L 99.904719 148.460867 
L 100.18668 148.148604 
L 100.46864 147.329186 
L 101.032561 146.784786 
L 101.596483 145.447299 
L 101.878443 145.396165 
L 102.160404 145.602443 
L 102.442364 145.535302 
L 102.724325 145.254085 
L 103.006286 145.521947 
L 103.852167 147.115563 
L 104.134128 147.396037 
L 104.416088 147.220034 
L 105.26197 145.413784 
L 105.543931 143.256568 
L 105.825891 138.130916 
L 106.671773 116.68804 
L 106.953734 114.498722 
L 107.235694 114.641289 
L 107.799615 116.738898 
L 108.081576 116.550824 
L 108.363537 115.805875 
L 108.645497 115.536544 
L 109.209418 115.423705 
L 109.491379 116.561877 
L 109.77334 120.226583 
L 110.901182 139.70009 
L 111.183143 141.52079 
L 111.465103 140.742578 
L 111.747064 139.215374 
L 112.029024 138.923933 
L 112.310985 139.387996 
L 112.592945 139.486207 
L 112.874906 139.465137 
L 113.438827 140.94323 
L 113.720788 139.984052 
L 114.002748 137.661975 
L 114.284709 136.492599 
L 114.56667 137.599949 
L 114.84863 139.410156 
L 115.130591 140.16494 
L 115.412551 140.44701 
L 115.976472 141.997413 
L 116.258433 142.251856 
L 116.540394 142.710845 
L 117.104315 144.232184 
L 117.386275 144.247542 
L 117.668236 144.900835 
L 118.232157 148.05973 
L 119.078039 150.095504 
L 119.36 151.374376 
L 119.64196 152.044884 
L 119.923921 151.438011 
L 120.769802 145.578382 
L 121.051763 141.328939 
L 121.897645 120.253605 
L 122.179605 118.368732 
L 122.461566 119.025058 
L 123.307448 123.448364 
L 123.589408 123.701781 
L 123.871369 123.36026 
L 124.43529 121.7016 
L 124.717251 121.646329 
L 124.999211 123.756319 
L 125.563132 132.169101 
L 125.845093 134.525534 
L 126.127054 134.716363 
L 126.690975 133.023049 
L 126.972935 132.695027 
L 127.536857 132.970227 
L 127.818817 133.143804 
L 128.100778 133.673023 
L 128.382738 135.150234 
L 128.946659 139.076219 
L 129.22862 139.825469 
L 129.510581 140.252958 
L 130.074502 141.881209 
L 130.356462 141.535677 
L 130.638423 140.359423 
L 130.920384 139.859487 
L 131.202344 140.876965 
L 131.766265 143.442371 
L 132.330186 144.022693 
L 132.894108 145.886518 
L 133.739989 148.976598 
L 134.867832 152.380212 
L 135.149792 152.419325 
L 135.431753 151.360045 
L 135.713714 148.239741 
L 136.277635 133.790521 
L 136.841556 119.3036 
L 137.123516 116.561655 
L 137.405477 116.567326 
L 137.969398 118.706694 
L 138.251359 118.468529 
L 138.81528 116.87721 
L 139.097241 117.475319 
L 139.943122 121.087064 
L 140.225083 123.54789 
L 141.352925 141.503982 
L 141.634886 140.899367 
L 142.762728 132.477485 
L 143.044689 133.291296 
L 143.326649 134.448965 
L 143.890571 135.240533 
L 144.172531 136.915808 
L 144.736452 141.652308 
L 145.018413 142.291309 
L 145.300373 142.537825 
L 146.428216 145.480365 
L 146.992137 148.523303 
L 147.274098 149.970021 
L 147.556058 150.637056 
L 147.838019 150.732585 
L 148.119979 151.088381 
L 148.6839 152.696159 
L 148.965861 151.852471 
L 149.247822 150.172793 
L 149.529782 149.50147 
L 150.093703 151.394932 
L 150.375664 151.480242 
L 150.657625 149.822949 
L 150.939585 145.287947 
L 152.067428 115.997346 
L 152.349388 113.993131 
L 152.631349 114.679934 
L 153.47723 121.054047 
L 153.759191 121.735765 
L 154.041152 121.60288 
L 154.323112 120.37222 
L 154.605073 118.631871 
L 154.887033 117.853847 
L 155.168994 119.259195 
L 155.450955 123.523694 
L 156.296836 143.254814 
L 156.578797 144.64155 
L 156.860757 142.957377 
L 157.424679 139.132081 
L 157.9886 138.253222 
L 158.27056 138.057026 
L 158.552521 138.515879 
L 158.834482 139.955811 
L 159.962324 149.325514 
L 160.244285 149.987326 
L 160.526245 150.11707 
L 160.808206 150.988702 
L 161.090166 152.717658 
L 161.372127 153.580549 
L 161.654087 152.31799 
L 161.936048 150.27904 
L 162.218009 149.815205 
L 162.78193 151.601743 
L 163.06389 151.839575 
L 163.345851 153.262605 
L 163.909772 158.14182 
L 164.191733 158.480383 
L 164.473693 158.050092 
L 164.755654 157.99888 
L 165.037614 158.354122 
L 165.319575 158.25269 
L 165.601536 156.030277 
L 165.883496 149.919107 
L 167.011339 114.303915 
L 167.293299 111.779872 
L 167.57526 112.552051 
L 167.85722 114.561205 
L 168.139181 115.576157 
L 168.421142 115.408398 
L 168.703102 114.765592 
L 169.267023 112.539582 
L 169.548984 112.740059 
L 170.112905 116.516982 
L 170.394866 120.201622 
L 171.240747 144.301011 
L 171.522708 144.99466 
L 172.36859 138.370613 
L 172.65055 137.528245 
L 173.214471 137.506801 
L 173.496432 136.996249 
L 173.778393 137.138836 
L 175.188196 144.525079 
L 175.470156 145.04374 
L 175.752117 145.069311 
L 176.034077 146.46692 
L 176.597999 150.500873 
L 176.879959 151.511973 
L 177.725841 156.17983 
L 178.007801 156.408884 
L 178.289762 156.320916 
L 178.853683 155.588563 
L 179.135644 156.286757 
L 179.417604 157.442448 
L 179.981526 158.865667 
L 180.263486 160.320614 
L 180.545447 160.582864 
L 180.827407 156.859782 
L 181.391328 138.50138 
L 181.95525 119.327837 
L 182.519171 108.119473 
L 182.801131 105.944201 
L 183.083092 105.340452 
L 183.365053 105.619026 
L 183.928974 106.598996 
L 184.210934 106.409609 
L 184.492895 106.08086 
L 184.774856 106.485546 
L 185.056816 107.819199 
L 185.338777 110.270439 
L 185.620737 115.564329 
L 186.466619 146.871239 
L 186.74858 149.981494 
L 187.03054 148.542286 
L 187.876422 139.35178 
L 188.158383 138.775304 
L 188.440343 139.352676 
L 188.722304 139.659015 
L 189.004264 139.640029 
L 189.286225 140.029058 
L 190.414067 142.920777 
L 191.259949 147.141574 
L 191.82387 149.463455 
L 192.387791 151.519381 
L 193.233673 154.601171 
L 193.797594 157.827631 
L 194.079555 157.794913 
L 194.361515 157.582396 
L 195.207397 159.398359 
L 195.489358 159.587742 
L 195.771318 159.230932 
L 196.053279 155.795685 
L 196.6172 136.527511 
L 197.181121 117.32452 
L 197.463082 111.522773 
L 197.745042 108.952266 
L 198.027003 109.323088 
L 198.590924 112.536364 
L 198.872885 112.626066 
L 199.154845 110.81818 
L 199.718767 104.88919 
L 200.000727 103.823366 
L 200.282688 104.261618 
L 200.564648 106.433775 
L 200.846609 112.369193 
L 201.692491 144.540754 
L 201.974451 146.978051 
L 202.820333 142.561351 
L 203.102294 142.459129 
L 203.384254 143.546186 
L 203.666215 145.357855 
L 203.948175 146.441488 
L 204.230136 146.443976 
L 204.512097 146.674682 
L 204.794057 147.429776 
L 205.076018 147.380838 
L 205.357978 146.414989 
L 205.639939 146.338838 
L 206.485821 150.906757 
L 207.049742 155.725197 
L 207.613663 159.817046 
L 207.895624 161.106473 
L 208.177584 161.58269 
L 208.459545 161.425393 
L 208.741505 161.649513 
L 209.023466 162.179077 
L 209.305427 161.838526 
L 209.587387 160.991192 
L 209.869348 161.342281 
L 210.433269 163.957285 
L 210.715229 163.37927 
L 210.99719 160.787185 
L 211.279151 154.667857 
L 211.843072 130.221103 
L 212.688954 94.445332 
L 212.970914 87.984408 
L 213.252875 87.318608 
L 214.098756 97.621076 
L 214.944638 100.496721 
L 215.226599 102.109123 
L 215.508559 104.503314 
L 215.79052 108.999952 
L 216.072481 117.559915 
L 216.918362 156.130444 
L 217.200323 158.746985 
L 218.046205 151.89822 
L 218.892086 148.647122 
L 219.174047 148.872963 
L 220.019929 150.268267 
L 220.301889 150.282884 
L 220.58385 150.126927 
L 220.865811 150.725896 
L 221.429732 153.926856 
L 221.711692 154.797837 
L 222.275613 155.56125 
L 222.557574 155.682297 
L 222.839535 155.560753 
L 223.121495 155.745908 
L 223.403456 156.960263 
L 223.967377 162.977411 
L 224.531298 167.900109 
L 224.813259 169.88192 
L 225.659141 177.481698 
L 225.941101 178.466854 
L 226.223062 177.915657 
L 226.505022 173.474621 
L 227.068943 150.728281 
L 227.632865 128.34151 
L 227.914825 121.868512 
L 228.196786 119.170616 
L 228.478746 119.779086 
L 229.042668 125.068857 
L 229.606589 134.537808 
L 230.734431 156.311601 
L 231.016392 164.914712 
L 231.298352 177.294333 
L 232.144234 236.525814 
L 232.426195 243.281173 
L 232.708155 239.036398 
L 232.990116 226.442188 
L 234.117958 157.859562 
L 234.681879 128.848211 
L 235.2458 98.765438 
L 235.809722 87.993224 
L 236.373643 79.551639 
L 236.655603 78.187332 
L 236.937564 78.798091 
L 237.219525 79.791627 
L 237.501485 80.272959 
L 237.783446 80.028707 
L 238.065406 79.418591 
L 238.347367 79.559703 
L 238.911288 82.448963 
L 239.193249 84.787034 
L 239.475209 90.513031 
L 240.885012 139.857202 
L 241.166973 142.357708 
L 241.448933 140.152236 
L 241.730894 135.445873 
L 242.012855 127.65504 
L 243.140697 73.762958 
L 243.422657 70.717538 
L 243.704618 70.528747 
L 244.83246 74.026179 
L 245.114421 75.103283 
L 245.396382 74.679946 
L 245.678342 73.726795 
L 245.960303 74.627383 
L 246.242263 78.158953 
L 246.524224 84.108776 
L 247.088145 106.365885 
L 247.370106 118.489512 
L 247.652066 124.21203 
L 247.934027 122.222934 
L 249.34383 90.235984 
L 249.62579 89.671967 
L 250.189712 92.727739 
L 250.471672 92.493864 
L 250.753633 92.046001 
L 251.035593 92.161537 
L 251.317554 93.027675 
L 251.599514 95.317356 
L 252.163436 103.643476 
L 252.445396 109.718788 
L 253.009317 131.322359 
L 253.573239 159.447733 
L 254.41912 215.454131 
L 254.983041 236.771044 
L 255.265002 249.018644 
L 255.546963 254.016 
L 255.828923 250.885547 
L 256.392844 238.759869 
L 256.956766 217.169614 
L 257.802647 181.905865 
L 258.084608 175.503718 
L 258.366569 172.383817 
L 258.648529 166.973836 
L 260.340293 107.044207 
L 260.904214 94.769127 
L 261.186174 93.925615 
L 261.468135 97.128539 
L 261.750096 103.974753 
L 262.314017 127.148002 
L 262.595977 139.728581 
L 262.877938 147.203891 
L 263.159898 146.998119 
L 263.72382 135.003279 
L 264.00578 132.994449 
L 264.287741 136.130483 
L 264.851662 145.498159 
L 265.133623 147.223348 
L 265.415583 147.85771 
L 265.697544 147.960013 
L 266.261465 146.693594 
L 266.543425 147.368916 
L 267.107347 150.876319 
L 267.389307 151.23763 
L 267.671268 150.707077 
L 267.953228 150.648094 
L 268.235189 152.556373 
L 268.79911 162.934425 
L 270.490874 202.483472 
L 270.772834 206.242689 
L 271.054795 207.824303 
L 271.336755 207.230436 
L 272.182637 203.418643 
L 272.464598 197.447736 
L 272.746558 185.769095 
L 273.31048 146.900027 
L 273.874401 106.393899 
L 274.438322 84.656866 
L 275.002243 70.439723 
L 275.284204 66.503027 
L 275.566164 64.540863 
L 275.848125 63.978704 
L 276.130085 66.051179 
L 276.975967 83.751042 
L 277.257928 93.461759 
L 278.38577 158.374063 
L 278.667731 162.488435 
L 278.949691 162.641187 
L 280.077534 155.560951 
L 280.359494 154.680879 
L 280.641455 154.654763 
L 281.769297 155.905317 
L 282.051258 155.619023 
L 282.333218 154.759905 
L 282.615179 154.770999 
L 282.897139 155.629093 
L 283.1791 155.610195 
L 283.461061 154.817038 
L 283.743021 155.597395 
L 284.306942 161.16411 
L 284.870864 163.128625 
L 285.434785 167.171856 
L 285.716745 167.870882 
L 285.998706 167.785647 
L 286.280667 167.85163 
L 286.562627 168.253932 
L 286.844588 169.19928 
L 287.408509 172.963776 
L 287.690469 172.681497 
L 287.97243 167.632655 
L 288.536351 142.115726 
L 289.382233 96.567423 
L 289.946154 80.69498 
L 290.510075 74.337991 
L 290.792036 73.04567 
L 291.073996 73.684137 
L 291.637918 78.526385 
L 291.919878 81.972182 
L 292.201839 87.270609 
L 292.483799 96.355329 
L 293.611642 153.903559 
L 293.893602 157.842168 
L 294.175563 156.886476 
L 295.021445 146.60894 
L 295.303405 146.647002 
L 296.149287 148.847209 
L 296.995169 155.581484 
L 297.277129 155.781746 
L 297.55909 155.496956 
L 298.123011 155.76272 
L 298.686932 155.322291 
L 298.968893 155.294597 
L 299.250853 155.057142 
L 299.532814 154.643059 
L 299.814775 154.860075 
L 300.378696 156.628001 
L 300.660656 157.227665 
L 300.942617 158.483395 
L 301.506538 162.228913 
L 301.788499 162.638609 
L 302.35242 161.812067 
L 302.634381 162.168305 
L 302.916341 162.140036 
L 303.198302 159.279347 
L 303.480262 151.410785 
L 304.890065 90.330861 
L 305.172026 87.823514 
L 305.453986 87.70998 
L 305.735947 88.835888 
L 306.017908 91.274672 
L 307.14575 105.305183 
L 307.42771 113.931263 
L 308.273592 149.793551 
L 308.555553 152.330321 
L 308.837513 150.419149 
L 309.401435 145.642136 
L 309.965356 143.512093 
L 310.247316 142.831665 
L 310.529277 143.2356 
L 311.093198 145.064193 
L 311.375159 145.179972 
L 311.657119 145.422041 
L 311.93908 146.340394 
L 312.784962 150.181899 
L 313.348883 151.281074 
L 313.912804 153.003325 
L 314.476725 154.077994 
L 315.322607 156.752105 
L 315.886528 161.066241 
L 316.168489 163.050723 
L 316.73241 164.824912 
L 317.296331 168.556087 
L 317.578292 170.340632 
L 317.860252 170.788613 
L 318.142213 168.83066 
L 318.424173 162.986788 
L 318.988095 137.429358 
L 319.552016 108.024704 
L 320.115937 88.997375 
L 320.397897 83.139051 
L 320.679858 79.886207 
L 321.243779 75.752047 
L 321.8077 69.821431 
L 322.089661 70.555358 
L 322.371622 74.301405 
L 322.653582 79.977175 
L 322.935543 88.823096 
L 323.499464 122.667035 
L 323.781424 140.410449 
L 324.063385 150.487769 
L 324.345346 152.296917 
L 325.191227 144.891399 
L 325.473188 144.030976 
L 325.755149 144.048969 
L 326.31907 144.976636 
L 326.60103 146.012116 
L 327.164952 150.1889 
L 328.010833 156.116366 
L 328.292794 157.270576 
L 328.856715 158.743047 
L 329.420636 160.561233 
L 329.984557 159.988558 
L 330.266518 160.619999 
L 331.39436 165.473471 
L 332.240242 171.78667 
L 332.804163 174.164289 
L 333.086124 174.799085 
L 333.368084 173.942519 
L 333.650045 169.419969 
L 333.932006 159.604691 
L 335.341809 87.129969 
L 335.90573 74.973339 
L 336.469651 67.481428 
L 336.751611 64.975476 
L 337.033572 63.540719 
L 337.315533 63.89851 
L 337.597493 66.148105 
L 337.879454 70.391926 
L 338.161414 78.312867 
L 338.725336 110.609087 
L 339.289257 143.98315 
L 339.571217 150.741509 
L 339.853178 151.155932 
L 340.69906 144.138059 
L 340.98102 143.658958 
L 341.262981 144.636053 
L 341.826902 148.523881 
L 342.672784 151.32058 
L 343.236705 155.021662 
L 343.518666 155.674367 
L 343.800626 155.601956 
L 344.082587 155.653099 
L 344.646508 156.739945 
L 344.928468 157.549542 
L 346.056311 162.919496 
L 346.338271 163.916227 
L 348.593956 176.071639 
L 348.875917 172.748394 
L 349.157877 162.941368 
L 350.56768 91.81921 
L 351.131601 79.084949 
L 351.695523 72.059038 
L 352.259444 69.63172 
L 352.541404 70.319932 
L 352.823365 73.380788 
L 353.105325 78.081105 
L 353.387286 85.24682 
L 353.669247 98.086251 
L 354.515128 149.729017 
L 354.797089 155.777979 
L 355.07905 156.523869 
L 355.924931 151.165581 
L 356.206892 150.866609 
L 356.488852 150.831563 
L 356.770813 151.084647 
L 357.052774 151.781645 
L 357.334734 152.811814 
L 357.616695 154.380573 
L 358.180616 158.629624 
L 358.462577 159.649962 
L 359.026498 160.415087 
L 359.308458 160.984096 
L 359.590419 161.995119 
L 360.15434 165.070021 
L 360.718261 166.323599 
L 362.410025 176.093591 
L 362.691985 176.574522 
L 362.973946 177.641485 
L 363.255907 179.493833 
L 363.537867 180.571543 
L 363.819828 178.941897 
L 364.101788 172.947194 
L 364.383749 161.431454 
L 365.793552 86.046673 
L 366.639434 65.352888 
L 366.921394 61.710963 
L 367.203355 60.452109 
L 367.485315 60.157441 
L 367.767276 60.308034 
L 368.049237 62.002638 
L 368.331197 66.518509 
L 368.613158 75.26558 
L 369.177079 108.878435 
L 369.741 142.241602 
L 370.022961 150.398983 
L 370.304921 153.741785 
L 370.586882 153.781887 
L 371.150803 151.075874 
L 371.432764 151.254964 
L 371.996685 152.652026 
L 372.278645 152.941353 
L 372.560606 153.755383 
L 373.124527 156.306512 
L 373.406488 156.340089 
L 373.688448 156.556856 
L 373.970409 158.437386 
L 374.53433 162.914002 
L 374.816291 163.604675 
L 375.098251 164.958553 
L 375.662172 171.11656 
L 376.508054 180.439799 
L 377.353936 188.612196 
L 378.199818 193.43463 
L 378.481778 195.849814 
L 378.763739 196.250674 
L 379.045699 192.522447 
L 379.32766 182.828943 
L 379.891581 146.173589 
L 380.455502 111.157742 
L 381.019423 84.595422 
L 381.301384 75.484765 
L 381.865305 67.850338 
L 382.429226 60.054346 
L 383.275108 47.43071 
L 383.557069 46.150604 
L 383.839029 49.223652 
L 384.12099 57.867706 
L 384.684911 89.656976 
L 385.248832 119.649719 
L 385.812753 138.265195 
L 386.376675 148.81263 
L 386.940596 152.906872 
L 387.504517 155.935004 
L 388.068438 156.640264 
L 388.350399 158.209679 
L 389.19628 166.066769 
L 390.324123 174.010747 
L 390.888044 178.819721 
L 392.579808 196.643839 
L 393.425689 209.366981 
L 393.70765 211.578623 
L 393.98961 209.698497 
L 394.271571 199.413156 
L 395.681374 109.91863 
L 396.245295 89.351217 
L 396.809216 74.286588 
L 397.655098 48.455684 
L 397.937059 42.2464 
L 398.219019 38.684564 
L 398.50098 36.548481 
L 398.78294 35.954829 
L 399.064901 40.944946 
L 399.628822 72.650531 
L 400.192743 103.571072 
L 400.756665 125.382055 
L 401.602546 149.256653 
L 401.884507 154.338729 
L 402.166467 155.712315 
L 402.448428 155.446461 
L 402.730389 156.1849 
L 403.57627 163.04583 
L 404.140192 168.69573 
L 405.549994 185.094925 
L 406.395876 194.400929 
L 408.3696 219.013406 
L 408.651561 218.146132 
L 408.933522 210.218954 
L 409.497443 176.018575 
L 410.625285 99.582762 
L 412.317049 37.374845 
L 412.88097 16.675747 
L 413.16293 12.537376 
L 413.444891 13.917534 
L 413.726851 21.305486 
L 414.290773 50.013769 
L 415.418615 123.327116 
L 415.982536 146.062016 
L 416.264497 152.291307 
L 416.828418 157.376705 
L 417.392339 162.149081 
L 417.95626 164.464362 
L 418.520181 169.70679 
L 420.493906 191.053035 
L 421.339787 202.362871 
L 421.903708 209.82534 
L 422.74959 222.110228 
L 423.031551 225.183146 
L 423.313511 223.875142 
L 423.595472 214.316862 
L 424.159393 173.444493 
L 425.005275 111.668227 
L 426.133117 60.257164 
L 426.697038 33.713602 
L 427.26096 17.407937 
L 427.54292 12.678863 
L 427.824881 12.096 
L 428.106841 16.824762 
L 428.388802 27.748854 
L 429.516644 98.575663 
L 430.362526 145.589803 
L 430.644487 153.475061 
L 430.926447 157.874642 
L 431.208408 159.984072 
L 431.490368 160.273137 
L 432.05429 158.622905 
L 432.33625 159.869042 
L 433.464093 172.531315 
L 434.028014 183.731713 
L 434.309974 186.974368 
L 434.591935 188.867301 
L 435.155856 195.641802 
L 435.719777 201.040365 
L 436.001738 203.912673 
L 436.565659 213.760573 
L 436.84762 216.396518 
L 437.12958 217.25887 
L 437.411541 219.523428 
L 437.693501 223.478111 
L 437.975462 224.04007 
L 438.257422 215.501466 
L 438.821344 174.458376 
L 439.667225 109.904289 
L 440.795068 47.265227 
L 441.358989 25.942923 
L 441.64095 20.441403 
L 441.92291 17.463702 
L 442.204871 17.022596 
L 442.486831 19.464161 
L 442.768792 26.015879 
L 443.050752 38.464418 
L 444.742516 141.376974 
L 445.024477 152.231671 
L 445.306437 158.705313 
L 445.588398 162.241502 
L 445.870358 163.262611 
L 446.152319 161.928043 
L 446.71624 157.966672 
L 446.998201 157.579965 
L 447.280161 158.576547 
L 447.844082 163.853493 
L 448.408004 170.919494 
L 449.253885 184.156797 
L 449.817806 190.193506 
L 451.50957 217.030605 
L 451.791531 221.438164 
L 452.073491 223.988931 
L 452.355452 224.390255 
L 452.637412 223.197947 
L 452.919373 219.336753 
L 453.201334 209.373594 
L 453.765255 165.060819 
L 454.329176 117.878665 
L 455.738979 36.003268 
L 456.3029 21.619996 
L 456.584861 17.718703 
L 456.866821 15.962207 
L 457.148782 16.723497 
L 457.430742 20.187041 
L 457.712703 26.663891 
L 457.994663 36.988697 
L 458.840545 85.737848 
L 459.968388 145.713772 
L 460.532309 163.317775 
L 460.814269 168.672361 
L 461.09623 170.629243 
L 461.378191 169.765534 
L 461.942112 165.964314 
L 462.224072 164.846144 
L 462.506033 164.370116 
L 462.787993 164.567737 
L 463.069954 165.960661 
L 463.633875 172.648928 
L 464.479757 182.463816 
L 465.043678 188.773004 
L 466.17152 205.609947 
L 466.453481 208.835398 
L 467.299363 221.796668 
L 467.581323 223.771139 
L 467.863284 223.20602 
L 468.145245 217.493223 
L 468.427205 204.345851 
L 469.273087 135.704605 
L 470.400929 58.748432 
L 470.96485 37.165829 
L 471.528772 26.161975 
L 471.810732 23.95364 
L 472.092693 23.51892 
L 472.374653 24.739397 
L 472.656614 27.644922 
L 472.938575 32.399425 
L 473.220535 40.665772 
L 473.784456 72.232047 
L 474.630338 117.596934 
L 475.47622 160.057454 
L 475.75818 167.467968 
L 476.040141 171.067251 
L 476.322102 171.64414 
L 476.604062 170.065657 
L 477.167983 164.952473 
L 477.449944 163.967202 
L 477.731905 164.430079 
L 478.013865 165.39361 
L 478.295826 166.846507 
L 479.423668 177.378208 
L 479.705629 179.498045 
L 481.115432 195.94942 
L 481.961313 209.062409 
L 482.525234 214.486997 
L 483.089156 218.055255 
L 483.371116 216.368655 
L 483.653077 208.228694 
L 483.935037 191.91008 
L 485.34484 77.371667 
L 485.908762 48.474984 
L 486.472683 32.972846 
L 486.754643 27.088867 
L 487.036604 24.532953 
L 487.318564 25.672778 
L 487.600525 28.316157 
L 487.882486 32.264355 
L 488.164446 40.139562 
L 488.728367 67.888209 
L 490.13817 139.713586 
L 490.702091 159.481595 
L 490.984052 165.412678 
L 491.266013 168.304621 
L 491.547973 169.046868 
L 491.829934 168.348498 
L 492.393855 165.426151 
L 492.675816 164.866089 
L 492.957776 165.094054 
L 493.239737 166.007417 
L 493.521697 167.902009 
L 494.64954 179.904863 
L 497.187185 211.657191 
L 497.751106 215.448948 
L 498.033067 216.90706 
L 498.315027 217.419983 
L 498.596988 214.249542 
L 498.878948 203.248394 
L 499.44287 156.118651 
L 500.288751 88.715954 
L 500.852673 55.78123 
L 501.416594 38.048558 
L 501.980515 29.675886 
L 502.262476 28.197141 
L 502.544436 28.732321 
L 502.826397 31.053056 
L 503.108357 34.897673 
L 503.390318 40.886777 
L 503.954239 62.725986 
L 505.082081 111.196967 
L 505.927963 143.969157 
L 506.491884 160.741829 
L 506.773845 165.129474 
L 507.337766 168.986125 
L 507.619727 169.83662 
L 507.901687 169.880145 
L 508.465608 169.382219 
L 508.747569 169.399924 
L 509.02953 169.993789 
L 509.31149 171.786891 
L 510.439333 183.826246 
L 513.258938 225.538091 
L 513.540899 226.697627 
L 513.82286 222.943853 
L 514.10482 211.120223 
L 514.668741 162.535112 
L 515.514623 87.541498 
L 516.078544 54.807392 
L 516.642465 33.722472 
L 516.924426 26.26246 
L 517.206387 22.147739 
L 517.488347 21.011802 
L 517.770308 20.88413 
L 518.052268 21.292506 
L 518.334229 24.014465 
L 518.61619 30.567601 
L 519.180111 53.482415 
L 520.025992 93.220567 
L 521.717756 151.515742 
L 522.281677 163.950331 
L 523.409519 180.415414 
L 523.69148 182.310244 
L 524.537362 184.147883 
L 525.101283 183.235212 
L 525.383244 183.977813 
L 526.511086 191.371978 
L 527.356968 202.017744 
L 527.920889 209.72585 
L 529.048731 218.240715 
L 529.330692 216.993852 
L 529.612652 210.227146 
L 529.894613 195.203429 
L 531.586376 61.374202 
L 532.150298 41.10852 
L 532.714219 31.141238 
L 532.996179 28.202519 
L 533.27814 26.760063 
L 533.560101 27.241745 
L 533.842061 30.101111 
L 534.124022 35.916731 
L 534.687943 57.040697 
L 535.815785 106.853299 
L 536.661667 131.145153 
L 538.07147 159.239633 
L 538.917352 173.267545 
L 539.481273 177.549959 
L 540.045194 180.64582 
L 540.609115 182.642855 
L 541.173036 183.83976 
L 541.454997 185.004968 
L 542.018918 190.099948 
L 542.582839 197.115665 
L 543.146761 205.907751 
L 543.992642 215.795601 
L 544.556563 222.344177 
L 544.838524 222.942715 
L 545.120485 219.800934 
L 545.402445 208.442312 
L 545.966366 158.735764 
L 546.812248 86.640837 
L 547.376169 55.987893 
L 547.94009 38.61933 
L 548.222051 32.82505 
L 548.504012 30.126077 
L 548.785972 29.457764 
L 549.067933 29.833549 
L 549.349893 31.800425 
L 549.631854 35.631099 
L 549.913815 41.126724 
L 550.195775 49.294898 
L 551.323618 94.185557 
L 552.169499 115.799691 
L 553.015381 135.922525 
L 553.579302 145.364111 
L 554.143223 157.84198 
L 554.989105 172.521775 
L 555.553026 182.596193 
L 556.116947 188.841167 
L 556.398908 190.498266 
L 557.24479 192.830281 
L 557.52675 193.219007 
L 557.808711 193.897277 
L 558.372632 197.60282 
L 558.936553 202.514655 
L 559.500475 209.430485 
L 560.628317 224.852487 
L 560.910277 218.377393 
L 561.192238 202.394028 
L 562.884002 67.518836 
L 563.447923 46.703846 
L 564.011844 34.492199 
L 564.293804 31.881452 
L 564.575765 30.902819 
L 564.857726 31.556643 
L 565.139686 33.985532 
L 565.421647 38.104739 
L 565.985568 51.972758 
L 567.395371 104.160343 
L 568.241253 122.867552 
L 569.087134 140.407486 
L 569.651056 151.368037 
L 571.342819 178.715078 
L 571.90674 188.919472 
L 573.034583 199.94671 
L 573.316543 200.416496 
L 573.598504 200.084387 
L 573.880464 201.497781 
L 574.444386 206.013252 
L 574.726346 206.090464 
L 575.008307 206.393504 
L 575.290267 208.319255 
L 576.136149 217.861516 
L 576.41811 218.772787 
L 576.70007 216.288424 
L 576.982031 207.192673 
L 577.263991 188.444455 
L 578.109873 111.312865 
L 578.955755 63.414964 
L 579.519676 45.559523 
L 579.801637 40.8708 
L 580.083597 38.254218 
L 580.365558 37.597644 
L 580.647518 38.713367 
L 580.929479 41.32828 
L 581.21144 45.422551 
L 581.4934 51.709088 
L 582.057321 72.665239 
L 582.621243 92.414494 
L 583.749085 121.685514 
L 584.594967 137.294049 
L 585.158888 143.790757 
L 585.722809 149.151996 
L 586.850651 165.372426 
L 587.978494 185.942971 
L 588.824375 195.408561 
L 589.106336 196.579655 
L 589.388297 196.434346 
L 589.670257 196.543098 
L 589.952218 198.389235 
L 591.362021 214.490171 
L 591.925942 220.223473 
L 592.207903 220.063443 
L 592.489863 212.113501 
L 593.053784 169.695532 
L 593.899666 97.207698 
L 594.463587 65.904461 
L 595.027508 48.510721 
L 595.309469 42.480108 
L 595.59143 38.998199 
L 595.87339 37.534808 
L 596.155351 37.701968 
L 596.437311 39.618502 
L 597.001232 46.767978 
L 597.283193 53.049501 
L 597.847114 75.601734 
L 598.411035 95.967377 
L 599.538878 120.608927 
L 601.230641 142.440267 
L 603.204365 161.525585 
L 603.486326 166.156097 
L 604.332208 185.017431 
L 604.896129 195.178455 
L 605.742011 212.348199 
L 606.305932 219.633074 
L 607.433774 229.672621 
L 607.715735 230.617781 
L 607.997695 228.001574 
L 608.279656 216.941159 
L 608.843577 166.182362 
L 609.407498 113.220823 
L 609.971419 79.311736 
L 610.535341 57.801301 
L 611.099262 44.881935 
L 611.381222 43.152428 
L 611.663183 43.420449 
L 612.227104 45.519973 
L 612.509065 47.819648 
L 612.791025 53.020483 
L 613.354946 72.809452 
L 614.482789 113.068331 
L 615.04671 123.650729 
L 616.174552 138.847102 
L 616.738474 142.07651 
L 618.148276 155.473703 
L 620.122001 186.328031 
L 620.685922 192.764154 
L 622.377685 222.584838 
L 622.941606 228.848095 
L 623.223567 230.37268 
L 623.505528 228.243233 
L 623.787488 215.604212 
L 625.197291 95.808711 
L 625.761212 68.212032 
L 626.607094 46.969571 
L 626.889055 44.480136 
L 627.171015 43.577026 
L 627.452976 44.161824 
L 627.734936 47.235144 
L 628.298858 59.341206 
L 628.862779 78.024222 
L 629.4267 97.12428 
L 629.990621 110.589266 
L 631.118463 130.277105 
L 631.400424 133.326045 
L 631.682385 135.03636 
L 632.528266 144.283347 
L 632.810227 144.85392 
L 633.092188 147.027554 
L 633.092188 147.027554 
" clip-path="url(#p8f8305f19a)" style="fill: none; stroke: #1f77b4; stroke-width: 1.5; stroke-linecap: square"/>
   </g>
   <g id="patch_3">
    <path d="M 47.192188 266.112 
L 47.192188 0 
" style="fill: none; stroke: #000000; stroke-width: 0.8; stroke-linejoin: miter; stroke-linecap: square"/>
   </g>
   <g id="patch_4">
    <path d="M 660.992188 266.112 
L 660.992188 0 
" style="fill: none; stroke: #000000; stroke-width: 0.8; stroke-linejoin: miter; stroke-linecap: square"/>
   </g>
   <g id="patch_5">
    <path d="M 47.192188 266.112 
L 660.992188 266.112 
" style="fill: none; stroke: #000000; stroke-width: 0.8; stroke-linejoin: miter; stroke-linecap: square"/>
   </g>
   <g id="patch_6">
    <path d="M 47.192188 0 
L 660.992188 0 
" style="fill: none; stroke: #000000; stroke-width: 0.8; stroke-linejoin: miter; stroke-linecap: square"/>
   </g>
  </g>
 </g>
 <defs>
  <clipPath id="p8f8305f19a">
   <rect x="47.192188" y="0" width="613.8" height="266.112"/>
  </clipPath>
 </defs>
</svg>
