<?xml version="1.0" encoding="utf-8" standalone="no"?>
<!DOCTYPE svg PUBLIC "-//W3C//DTD SVG 1.1//EN"
  "http://www.w3.org/Graphics/SVG/1.1/DTD/svg11.dtd">
<svg xmlns:xlink="http://www.w3.org/1999/xlink" width="660.992188pt" height="282.790125pt" viewBox="0 0 660.992188 282.790125" xmlns="http://www.w3.org/2000/svg" version="1.1">
 <metadata>
  <rdf:RDF xmlns:dc="http://purl.org/dc/elements/1.1/" xmlns:cc="http://creativecommons.org/ns#" xmlns:rdf="http://www.w3.org/1999/02/22-rdf-syntax-ns#">
   <cc:Work>
    <dc:type rdf:resource="http://purl.org/dc/dcmitype/StillImage"/>
    <dc:date>2023-03-06T19:25:44.421115</dc:date>
    <dc:format>image/svg+xml</dc:format>
    <dc:creator>
     <cc:Agent>
      <dc:title>Matplotlib v3.6.3, https://matplotlib.org/</dc:title>
     </cc:Agent>
    </dc:creator>
   </cc:Work>
  </rdf:RDF>
 </metadata>
 <defs>
  <style type="text/css">*{stroke-linejoin: round; stroke-linecap: butt}</style>
 </defs>
 <g id="figure_1">
  <g id="patch_1">
   <path d="M -0 282.790125 
L 660.992188 282.790125 
L 660.992188 0 
L -0 0 
L -0 282.790125 
z
" style="fill: none"/>
  </g>
  <g id="axes_1">
   <g id="patch_2">
    <path d="M 47.192188 266.112 
L 660.992188 266.112 
L 660.992188 0 
L 47.192188 0 
L 47.192188 266.112 
z
" style="fill: none"/>
   </g>
   <g id="matplotlib.axis_1">
    <g id="xtick_1">
     <g id="line2d_1">
      <defs>
       <path id="mbe8c8087b4" d="M 0 0 
L 0 3.5 
" style="stroke: #000000; stroke-width: 0.8"/>
      </defs>
      <g>
       <use xlink:href="#mbe8c8087b4" x="75.092188" y="266.112" style="stroke: #000000; stroke-width: 0.8"/>
      </g>
     </g>
     <g id="text_1">
      <!-- 0 -->
      <g transform="translate(71.910938 280.710438) scale(0.1 -0.1)">
       <defs>
        <path id="DejaVuSans-30" d="M 2034 4250 
Q 1547 4250 1301 3770 
Q 1056 3291 1056 2328 
Q 1056 1369 1301 889 
Q 1547 409 2034 409 
Q 2525 409 2770 889 
Q 3016 1369 3016 2328 
Q 3016 3291 2770 3770 
Q 2525 4250 2034 4250 
z
M 2034 4750 
Q 2819 4750 3233 4129 
Q 3647 3509 3647 2328 
Q 3647 1150 3233 529 
Q 2819 -91 2034 -91 
Q 1250 -91 836 529 
Q 422 1150 422 2328 
Q 422 3509 836 4129 
Q 1250 4750 2034 4750 
z
" transform="scale(0.015625)"/>
       </defs>
       <use xlink:href="#DejaVuSans-30"/>
      </g>
     </g>
    </g>
    <g id="xtick_2">
     <g id="line2d_2">
      <g>
       <use xlink:href="#mbe8c8087b4" x="144.842188" y="266.112" style="stroke: #000000; stroke-width: 0.8"/>
      </g>
     </g>
     <g id="text_2">
      <!-- 500 -->
      <g transform="translate(135.298438 280.710438) scale(0.1 -0.1)">
       <defs>
        <path id="DejaVuSans-35" d="M 691 4666 
L 3169 4666 
L 3169 4134 
L 1269 4134 
L 1269 2991 
Q 1406 3038 1543 3061 
Q 1681 3084 1819 3084 
Q 2600 3084 3056 2656 
Q 3513 2228 3513 1497 
Q 3513 744 3044 326 
Q 2575 -91 1722 -91 
Q 1428 -91 1123 -41 
Q 819 9 494 109 
L 494 744 
Q 775 591 1075 516 
Q 1375 441 1709 441 
Q 2250 441 2565 725 
Q 2881 1009 2881 1497 
Q 2881 1984 2565 2268 
Q 2250 2553 1709 2553 
Q 1456 2553 1204 2497 
Q 953 2441 691 2322 
L 691 4666 
z
" transform="scale(0.015625)"/>
       </defs>
       <use xlink:href="#DejaVuSans-35"/>
       <use xlink:href="#DejaVuSans-30" x="63.623047"/>
       <use xlink:href="#DejaVuSans-30" x="127.246094"/>
      </g>
     </g>
    </g>
    <g id="xtick_3">
     <g id="line2d_3">
      <g>
       <use xlink:href="#mbe8c8087b4" x="214.592188" y="266.112" style="stroke: #000000; stroke-width: 0.8"/>
      </g>
     </g>
     <g id="text_3">
      <!-- 1000 -->
      <g transform="translate(201.867188 280.710438) scale(0.1 -0.1)">
       <defs>
        <path id="DejaVuSans-31" d="M 794 531 
L 1825 531 
L 1825 4091 
L 703 3866 
L 703 4441 
L 1819 4666 
L 2450 4666 
L 2450 531 
L 3481 531 
L 3481 0 
L 794 0 
L 794 531 
z
" transform="scale(0.015625)"/>
       </defs>
       <use xlink:href="#DejaVuSans-31"/>
       <use xlink:href="#DejaVuSans-30" x="63.623047"/>
       <use xlink:href="#DejaVuSans-30" x="127.246094"/>
       <use xlink:href="#DejaVuSans-30" x="190.869141"/>
      </g>
     </g>
    </g>
    <g id="xtick_4">
     <g id="line2d_4">
      <g>
       <use xlink:href="#mbe8c8087b4" x="284.342188" y="266.112" style="stroke: #000000; stroke-width: 0.8"/>
      </g>
     </g>
     <g id="text_4">
      <!-- 1500 -->
      <g transform="translate(271.617188 280.710438) scale(0.1 -0.1)">
       <use xlink:href="#DejaVuSans-31"/>
       <use xlink:href="#DejaVuSans-35" x="63.623047"/>
       <use xlink:href="#DejaVuSans-30" x="127.246094"/>
       <use xlink:href="#DejaVuSans-30" x="190.869141"/>
      </g>
     </g>
    </g>
    <g id="xtick_5">
     <g id="line2d_5">
      <g>
       <use xlink:href="#mbe8c8087b4" x="354.092188" y="266.112" style="stroke: #000000; stroke-width: 0.8"/>
      </g>
     </g>
     <g id="text_5">
      <!-- 2000 -->
      <g transform="translate(341.367188 280.710438) scale(0.1 -0.1)">
       <defs>
        <path id="DejaVuSans-32" d="M 1228 531 
L 3431 531 
L 3431 0 
L 469 0 
L 469 531 
Q 828 903 1448 1529 
Q 2069 2156 2228 2338 
Q 2531 2678 2651 2914 
Q 2772 3150 2772 3378 
Q 2772 3750 2511 3984 
Q 2250 4219 1831 4219 
Q 1534 4219 1204 4116 
Q 875 4013 500 3803 
L 500 4441 
Q 881 4594 1212 4672 
Q 1544 4750 1819 4750 
Q 2544 4750 2975 4387 
Q 3406 4025 3406 3419 
Q 3406 3131 3298 2873 
Q 3191 2616 2906 2266 
Q 2828 2175 2409 1742 
Q 1991 1309 1228 531 
z
" transform="scale(0.015625)"/>
       </defs>
       <use xlink:href="#DejaVuSans-32"/>
       <use xlink:href="#DejaVuSans-30" x="63.623047"/>
       <use xlink:href="#DejaVuSans-30" x="127.246094"/>
       <use xlink:href="#DejaVuSans-30" x="190.869141"/>
      </g>
     </g>
    </g>
    <g id="xtick_6">
     <g id="line2d_6">
      <g>
       <use xlink:href="#mbe8c8087b4" x="423.842188" y="266.112" style="stroke: #000000; stroke-width: 0.8"/>
      </g>
     </g>
     <g id="text_6">
      <!-- 2500 -->
      <g transform="translate(411.117188 280.710438) scale(0.1 -0.1)">
       <use xlink:href="#DejaVuSans-32"/>
       <use xlink:href="#DejaVuSans-35" x="63.623047"/>
       <use xlink:href="#DejaVuSans-30" x="127.246094"/>
       <use xlink:href="#DejaVuSans-30" x="190.869141"/>
      </g>
     </g>
    </g>
    <g id="xtick_7">
     <g id="line2d_7">
      <g>
       <use xlink:href="#mbe8c8087b4" x="493.592188" y="266.112" style="stroke: #000000; stroke-width: 0.8"/>
      </g>
     </g>
     <g id="text_7">
      <!-- 3000 -->
      <g transform="translate(480.867188 280.710438) scale(0.1 -0.1)">
       <defs>
        <path id="DejaVuSans-33" d="M 2597 2516 
Q 3050 2419 3304 2112 
Q 3559 1806 3559 1356 
Q 3559 666 3084 287 
Q 2609 -91 1734 -91 
Q 1441 -91 1130 -33 
Q 819 25 488 141 
L 488 750 
Q 750 597 1062 519 
Q 1375 441 1716 441 
Q 2309 441 2620 675 
Q 2931 909 2931 1356 
Q 2931 1769 2642 2001 
Q 2353 2234 1838 2234 
L 1294 2234 
L 1294 2753 
L 1863 2753 
Q 2328 2753 2575 2939 
Q 2822 3125 2822 3475 
Q 2822 3834 2567 4026 
Q 2313 4219 1838 4219 
Q 1578 4219 1281 4162 
Q 984 4106 628 3988 
L 628 4550 
Q 988 4650 1302 4700 
Q 1616 4750 1894 4750 
Q 2613 4750 3031 4423 
Q 3450 4097 3450 3541 
Q 3450 3153 3228 2886 
Q 3006 2619 2597 2516 
z
" transform="scale(0.015625)"/>
       </defs>
       <use xlink:href="#DejaVuSans-33"/>
       <use xlink:href="#DejaVuSans-30" x="63.623047"/>
       <use xlink:href="#DejaVuSans-30" x="127.246094"/>
       <use xlink:href="#DejaVuSans-30" x="190.869141"/>
      </g>
     </g>
    </g>
    <g id="xtick_8">
     <g id="line2d_8">
      <g>
       <use xlink:href="#mbe8c8087b4" x="563.342188" y="266.112" style="stroke: #000000; stroke-width: 0.8"/>
      </g>
     </g>
     <g id="text_8">
      <!-- 3500 -->
      <g transform="translate(550.617188 280.710438) scale(0.1 -0.1)">
       <use xlink:href="#DejaVuSans-33"/>
       <use xlink:href="#DejaVuSans-35" x="63.623047"/>
       <use xlink:href="#DejaVuSans-30" x="127.246094"/>
       <use xlink:href="#DejaVuSans-30" x="190.869141"/>
      </g>
     </g>
    </g>
    <g id="xtick_9">
     <g id="line2d_9">
      <g>
       <use xlink:href="#mbe8c8087b4" x="633.092188" y="266.112" style="stroke: #000000; stroke-width: 0.8"/>
      </g>
     </g>
     <g id="text_9">
      <!-- 4000 -->
      <g transform="translate(620.367188 280.710438) scale(0.1 -0.1)">
       <defs>
        <path id="DejaVuSans-34" d="M 2419 4116 
L 825 1625 
L 2419 1625 
L 2419 4116 
z
M 2253 4666 
L 3047 4666 
L 3047 1625 
L 3713 1625 
L 3713 1100 
L 3047 1100 
L 3047 0 
L 2419 0 
L 2419 1100 
L 313 1100 
L 313 1709 
L 2253 4666 
z
" transform="scale(0.015625)"/>
       </defs>
       <use xlink:href="#DejaVuSans-34"/>
       <use xlink:href="#DejaVuSans-30" x="63.623047"/>
       <use xlink:href="#DejaVuSans-30" x="127.246094"/>
       <use xlink:href="#DejaVuSans-30" x="190.869141"/>
      </g>
     </g>
    </g>
   </g>
   <g id="matplotlib.axis_2">
    <g id="ytick_1">
     <g id="line2d_10">
      <defs>
       <path id="m971978bfc1" d="M 0 0 
L -3.5 0 
" style="stroke: #000000; stroke-width: 0.8"/>
      </defs>
      <g>
       <use xlink:href="#m971978bfc1" x="47.192188" y="237.868476" style="stroke: #000000; stroke-width: 0.8"/>
      </g>
     </g>
     <g id="text_10">
      <!-- −30000 -->
      <g transform="translate(0 241.667694) scale(0.1 -0.1)">
       <defs>
        <path id="DejaVuSans-2212" d="M 678 2272 
L 4684 2272 
L 4684 1741 
L 678 1741 
L 678 2272 
z
" transform="scale(0.015625)"/>
       </defs>
       <use xlink:href="#DejaVuSans-2212"/>
       <use xlink:href="#DejaVuSans-33" x="83.789062"/>
       <use xlink:href="#DejaVuSans-30" x="147.412109"/>
       <use xlink:href="#DejaVuSans-30" x="211.035156"/>
       <use xlink:href="#DejaVuSans-30" x="274.658203"/>
       <use xlink:href="#DejaVuSans-30" x="338.28125"/>
      </g>
     </g>
    </g>
    <g id="ytick_2">
     <g id="line2d_11">
      <g>
       <use xlink:href="#m971978bfc1" x="47.192188" y="205.646426" style="stroke: #000000; stroke-width: 0.8"/>
      </g>
     </g>
     <g id="text_11">
      <!-- −20000 -->
      <g transform="translate(0 209.445645) scale(0.1 -0.1)">
       <use xlink:href="#DejaVuSans-2212"/>
       <use xlink:href="#DejaVuSans-32" x="83.789062"/>
       <use xlink:href="#DejaVuSans-30" x="147.412109"/>
       <use xlink:href="#DejaVuSans-30" x="211.035156"/>
       <use xlink:href="#DejaVuSans-30" x="274.658203"/>
       <use xlink:href="#DejaVuSans-30" x="338.28125"/>
      </g>
     </g>
    </g>
    <g id="ytick_3">
     <g id="line2d_12">
      <g>
       <use xlink:href="#m971978bfc1" x="47.192188" y="173.424377" style="stroke: #000000; stroke-width: 0.8"/>
      </g>
     </g>
     <g id="text_12">
      <!-- −10000 -->
      <g transform="translate(0 177.223595) scale(0.1 -0.1)">
       <use xlink:href="#DejaVuSans-2212"/>
       <use xlink:href="#DejaVuSans-31" x="83.789062"/>
       <use xlink:href="#DejaVuSans-30" x="147.412109"/>
       <use xlink:href="#DejaVuSans-30" x="211.035156"/>
       <use xlink:href="#DejaVuSans-30" x="274.658203"/>
       <use xlink:href="#DejaVuSans-30" x="338.28125"/>
      </g>
     </g>
    </g>
    <g id="ytick_4">
     <g id="line2d_13">
      <g>
       <use xlink:href="#m971978bfc1" x="47.192188" y="141.202327" style="stroke: #000000; stroke-width: 0.8"/>
      </g>
     </g>
     <g id="text_13">
      <!-- 0 -->
      <g transform="translate(33.829688 145.001546) scale(0.1 -0.1)">
       <use xlink:href="#DejaVuSans-30"/>
      </g>
     </g>
    </g>
    <g id="ytick_5">
     <g id="line2d_14">
      <g>
       <use xlink:href="#m971978bfc1" x="47.192188" y="108.980278" style="stroke: #000000; stroke-width: 0.8"/>
      </g>
     </g>
     <g id="text_14">
      <!-- 10000 -->
      <g transform="translate(8.379688 112.779496) scale(0.1 -0.1)">
       <use xlink:href="#DejaVuSans-31"/>
       <use xlink:href="#DejaVuSans-30" x="63.623047"/>
       <use xlink:href="#DejaVuSans-30" x="127.246094"/>
       <use xlink:href="#DejaVuSans-30" x="190.869141"/>
       <use xlink:href="#DejaVuSans-30" x="254.492188"/>
      </g>
     </g>
    </g>
    <g id="ytick_6">
     <g id="line2d_15">
      <g>
       <use xlink:href="#m971978bfc1" x="47.192188" y="76.758228" style="stroke: #000000; stroke-width: 0.8"/>
      </g>
     </g>
     <g id="text_15">
      <!-- 20000 -->
      <g transform="translate(8.379688 80.557447) scale(0.1 -0.1)">
       <use xlink:href="#DejaVuSans-32"/>
       <use xlink:href="#DejaVuSans-30" x="63.623047"/>
       <use xlink:href="#DejaVuSans-30" x="127.246094"/>
       <use xlink:href="#DejaVuSans-30" x="190.869141"/>
       <use xlink:href="#DejaVuSans-30" x="254.492188"/>
      </g>
     </g>
    </g>
    <g id="ytick_7">
     <g id="line2d_16">
      <g>
       <use xlink:href="#m971978bfc1" x="47.192188" y="44.536179" style="stroke: #000000; stroke-width: 0.8"/>
      </g>
     </g>
     <g id="text_16">
      <!-- 30000 -->
      <g transform="translate(8.379688 48.335398) scale(0.1 -0.1)">
       <use xlink:href="#DejaVuSans-33"/>
       <use xlink:href="#DejaVuSans-30" x="63.623047"/>
       <use xlink:href="#DejaVuSans-30" x="127.246094"/>
       <use xlink:href="#DejaVuSans-30" x="190.869141"/>
       <use xlink:href="#DejaVuSans-30" x="254.492188"/>
      </g>
     </g>
    </g>
    <g id="ytick_8">
     <g id="line2d_17">
      <g>
       <use xlink:href="#m971978bfc1" x="47.192188" y="12.314129" style="stroke: #000000; stroke-width: 0.8"/>
      </g>
     </g>
     <g id="text_17">
      <!-- 40000 -->
      <g transform="translate(8.379688 16.113348) scale(0.1 -0.1)">
       <use xlink:href="#DejaVuSans-34"/>
       <use xlink:href="#DejaVuSans-30" x="63.623047"/>
       <use xlink:href="#DejaVuSans-30" x="127.246094"/>
       <use xlink:href="#DejaVuSans-30" x="190.869141"/>
       <use xlink:href="#DejaVuSans-30" x="254.492188"/>
      </g>
     </g>
    </g>
   </g>
   <g id="line2d_18">
    <path d="M 75.092188 141.455547 
L 75.374148 140.962526 
L 75.656109 141.429893 
L 75.938069 140.985968 
L 76.22003 141.408376 
L 76.50199 141.005802 
L 76.783951 141.390023 
L 77.065912 141.022847 
L 77.347872 141.374138 
L 77.629833 141.037699 
L 77.911793 141.360207 
L 78.193754 141.050805 
L 78.475715 141.347841 
L 78.757675 141.062506 
L 79.039636 141.336738 
L 79.321596 141.073072 
L 79.603557 141.326657 
L 79.885517 141.082718 
L 80.167478 141.317401 
L 80.449439 141.091624 
L 80.731399 141.308806 
L 81.01336 141.099944 
L 81.29532 141.300726 
L 81.577281 141.107815 
L 81.859242 141.293032 
L 82.141202 141.115365 
L 82.423163 141.285595 
L 82.705123 141.12272 
L 82.987084 141.278288 
L 83.269044 141.130015 
L 83.551005 141.270968 
L 83.832966 141.137402 
L 84.114926 141.263467 
L 84.396887 141.145069 
L 84.678847 141.255573 
L 84.960808 141.153264 
L 85.242769 141.246991 
L 85.524729 141.162339 
L 85.80669 141.23729 
L 86.08865 141.172835 
L 86.652572 141.185645 
L 87.780414 141.226398 
L 88.062374 141.16141 
L 88.344335 141.265634 
L 88.626296 141.107589 
L 88.908256 141.34433 
L 89.190217 140.984419 
L 89.472177 141.495533 
L 89.754138 129.297761 
L 90.036099 128.121876 
L 90.318059 131.065035 
L 90.88198 130.258988 
L 91.163941 127.814593 
L 91.445901 126.9188 
L 91.727862 127.880149 
L 92.855704 146.3809 
L 93.137665 145.538886 
L 93.419626 143.856573 
L 93.983547 142.229881 
L 94.265507 142.564075 
L 94.547468 144.282453 
L 94.829429 147.29534 
L 95.111389 148.786633 
L 95.67531 150.00125 
L 95.957271 151.918502 
L 96.239231 152.172628 
L 96.803153 148.213435 
L 97.085113 148.468947 
L 97.367074 148.924834 
L 97.930995 147.053021 
L 98.494916 149.785941 
L 98.776877 149.547786 
L 99.058837 148.874666 
L 99.622758 152.848552 
L 99.904719 149.739677 
L 100.750601 124.963817 
L 101.032561 123.063793 
L 101.314522 123.018741 
L 101.878443 124.999636 
L 102.442364 127.461749 
L 103.006286 128.815752 
L 103.288246 131.763811 
L 104.134128 147.568993 
L 104.416088 148.975321 
L 105.26197 146.181637 
L 105.825891 144.064981 
L 106.107852 144.740675 
L 106.389813 146.129584 
L 106.671773 146.830093 
L 107.235694 145.531782 
L 107.517655 145.687086 
L 108.081576 147.540376 
L 108.363537 147.755407 
L 108.645497 147.562952 
L 108.927458 148.665209 
L 109.209418 150.513456 
L 109.491379 151.332221 
L 110.0553 149.21226 
L 110.337261 149.374246 
L 110.619221 149.887013 
L 111.183143 149.750616 
L 111.465103 147.855387 
L 111.747064 141.952155 
L 112.310985 125.596527 
L 112.592945 122.724696 
L 112.874906 123.489275 
L 113.438827 127.225688 
L 113.720788 127.869444 
L 114.284709 126.858304 
L 114.56667 127.507273 
L 114.84863 129.080179 
L 115.130591 131.925016 
L 115.976472 145.549711 
L 116.258433 146.17901 
L 117.104315 142.218262 
L 117.386275 142.232547 
L 117.668236 143.391328 
L 117.950197 145.178302 
L 118.232157 146.040812 
L 118.514118 146.054119 
L 118.796078 145.886468 
L 119.36 146.741708 
L 119.64196 146.885153 
L 120.205881 146.068351 
L 120.487842 146.57155 
L 121.051763 148.686924 
L 121.333724 148.91713 
L 121.615684 148.985516 
L 121.897645 149.19757 
L 122.743527 147.920673 
L 123.025487 147.216629 
L 123.307448 143.741727 
L 124.153329 125.525403 
L 124.43529 125.203322 
L 124.999211 128.4604 
L 125.563132 128.932419 
L 125.845093 129.624978 
L 126.409014 129.902789 
L 126.690975 131.740335 
L 127.254896 141.109341 
L 127.536857 143.070248 
L 127.818817 141.961145 
L 128.382738 138.81072 
L 128.664699 137.755299 
L 128.946659 137.20683 
L 129.22862 138.18569 
L 129.510581 139.828008 
L 129.792541 140.499437 
L 130.356462 139.319848 
L 130.920384 139.63479 
L 131.202344 139.29314 
L 131.484305 139.882232 
L 132.894108 149.685836 
L 133.176068 150.363999 
L 133.458029 150.326943 
L 133.739989 150.462406 
L 134.02195 150.755124 
L 134.303911 150.582844 
L 134.585871 148.587816 
L 134.867832 143.848069 
L 135.431753 129.248865 
L 135.713714 125.353114 
L 135.995674 125.55153 
L 137.123516 133.964248 
L 137.405477 133.787767 
L 137.687438 132.687678 
L 137.969398 132.957084 
L 139.097241 142.990492 
L 139.379201 142.700968 
L 139.943122 138.712099 
L 140.225083 138.398438 
L 141.070965 143.859675 
L 141.916846 145.923242 
L 142.480768 146.894414 
L 142.762728 147.176609 
L 143.044689 147.111706 
L 143.326649 147.563363 
L 143.890571 150.609148 
L 144.172531 150.5263 
L 144.736452 148.168767 
L 145.018413 148.645563 
L 145.582334 150.718606 
L 145.864295 149.607586 
L 146.146255 145.153044 
L 146.710176 132.010263 
L 146.992137 128.783802 
L 147.274098 127.913428 
L 147.556058 128.407277 
L 148.119979 132.832555 
L 148.40194 133.468933 
L 148.965861 130.378605 
L 149.247822 129.710133 
L 149.529782 130.213514 
L 149.811743 132.542203 
L 150.375664 141.057837 
L 150.657625 141.977929 
L 151.221546 137.821644 
L 151.503506 136.844868 
L 151.785467 136.9588 
L 152.067428 137.682675 
L 153.19527 142.408176 
L 153.47723 144.027404 
L 153.759191 144.925549 
L 154.041152 145.404231 
L 154.323112 146.296677 
L 154.605073 147.589683 
L 154.887033 148.244262 
L 155.168994 148.51675 
L 155.450955 149.626484 
L 156.014876 153.9196 
L 156.296836 154.962686 
L 156.578797 155.345901 
L 156.860757 154.449149 
L 157.142718 149.656912 
L 157.9886 121.951323 
L 158.27056 119.668854 
L 158.552521 120.928223 
L 159.116442 125.204565 
L 159.398403 125.754389 
L 159.680363 125.769238 
L 160.244285 126.712167 
L 160.526245 126.79947 
L 160.808206 128.696589 
L 161.654087 148.125565 
L 161.936048 148.780483 
L 162.78193 142.271519 
L 163.06389 142.688007 
L 163.627812 146.997083 
L 164.473693 150.104282 
L 164.755654 149.582642 
L 165.037614 147.732662 
L 165.319575 146.706568 
L 165.601536 147.179435 
L 166.165457 148.560136 
L 166.447417 149.26843 
L 166.729378 149.613991 
L 167.011339 148.906094 
L 167.293299 147.722541 
L 167.85722 146.560058 
L 168.139181 144.598737 
L 168.421142 140.194252 
L 169.267023 119.422385 
L 169.548984 117.841996 
L 169.830944 120.114785 
L 170.394866 126.738335 
L 170.676826 128.872493 
L 170.958787 129.873826 
L 171.240747 130.113578 
L 171.522708 131.263935 
L 171.804669 134.619062 
L 172.36859 144.688531 
L 172.65055 147.894336 
L 172.932511 148.596915 
L 173.214471 147.116982 
L 173.778393 142.884547 
L 174.060353 142.932255 
L 174.624274 144.900706 
L 175.188196 144.717371 
L 176.034077 145.79571 
L 176.316038 145.840439 
L 176.597999 146.018221 
L 176.879959 146.56209 
L 177.16192 147.921637 
L 177.725841 151.374113 
L 178.007801 151.972393 
L 178.571723 152.391411 
L 179.135644 154.173187 
L 179.417604 153.884993 
L 179.699565 149.493415 
L 180.545447 124.22246 
L 180.827407 121.946124 
L 181.109368 123.071804 
L 181.673289 128.336035 
L 181.95525 129.312835 
L 182.23721 129.344623 
L 182.519171 129.568549 
L 182.801131 130.587092 
L 183.083092 133.024844 
L 183.928974 147.629708 
L 184.210934 147.783599 
L 185.056816 142.278739 
L 185.338777 140.855163 
L 185.620737 140.225575 
L 185.902698 141.185057 
L 187.312501 150.424307 
L 187.594461 150.70355 
L 187.876422 149.505587 
L 188.722304 143.424533 
L 189.004264 144.710944 
L 189.568185 150.809302 
L 190.414067 154.035785 
L 190.696028 153.625821 
L 190.977988 148.221029 
L 191.82387 118.230625 
L 192.105831 114.817871 
L 192.387791 115.75304 
L 193.233673 128.017975 
L 193.515634 128.53812 
L 193.797594 128.044758 
L 194.079555 128.701902 
L 194.361515 130.571255 
L 194.643476 133.295345 
L 195.489358 144.310413 
L 195.771318 143.09091 
L 196.053279 140.710942 
L 196.33524 140.06701 
L 198.590924 148.548485 
L 198.872885 148.78623 
L 199.154845 148.474222 
L 199.436806 148.330217 
L 199.718767 149.001991 
L 200.282688 150.814601 
L 200.564648 151.284162 
L 201.12857 152.683669 
L 201.692491 152.912375 
L 201.974451 153.260742 
L 202.256412 151.70099 
L 202.538372 145.823832 
L 203.384254 119.033316 
L 203.666215 116.797883 
L 203.948175 119.814769 
L 204.230136 125.063918 
L 204.512097 128.241416 
L 204.794057 128.46733 
L 205.076018 128.177411 
L 205.357978 128.748741 
L 205.639939 129.738476 
L 205.921899 132.121368 
L 206.767781 146.666348 
L 207.049742 145.886445 
L 207.613663 142.252704 
L 207.895624 141.407042 
L 208.177584 141.603766 
L 208.741505 144.803317 
L 209.023466 145.207016 
L 209.305427 145.202773 
L 209.587387 146.404637 
L 209.869348 148.417327 
L 210.151308 149.371917 
L 210.715229 148.542542 
L 211.279151 149.906888 
L 211.561111 149.805809 
L 211.843072 149.423411 
L 212.125032 149.958596 
L 212.688954 153.060274 
L 212.970914 153.821168 
L 213.252875 153.765428 
L 213.534835 152.763537 
L 213.816796 149.386848 
L 214.098756 141.649215 
L 214.662678 120.849721 
L 214.944638 117.928447 
L 215.79052 125.407787 
L 216.354441 125.734998 
L 216.636402 125.59431 
L 216.918362 126.548008 
L 217.200323 130.871017 
L 217.764244 143.723155 
L 218.046205 146.739842 
L 218.328165 147.446669 
L 218.610126 146.495787 
L 219.174047 141.108969 
L 219.456008 139.987564 
L 220.019929 142.09627 
L 220.301889 142.147389 
L 220.58385 142.44721 
L 220.865811 144.969012 
L 221.429732 152.002804 
L 221.993653 153.502452 
L 222.839535 158.57236 
L 223.121495 159.250575 
L 223.403456 161.395032 
L 223.967377 167.689396 
L 224.249338 169.923768 
L 224.531298 173.513205 
L 224.813259 178.628434 
L 225.095219 181.589217 
L 225.37718 179.039241 
L 225.941101 167.286484 
L 226.223062 165.983335 
L 226.505022 168.539833 
L 227.068943 180.292801 
L 227.632865 191.758761 
L 228.478746 199.216084 
L 229.042668 210.049858 
L 229.324628 212.783955 
L 229.606589 211.678646 
L 229.888549 205.240053 
L 230.17051 189.603594 
L 231.298352 83.942138 
L 231.862273 65.101984 
L 232.144234 58.831801 
L 232.426195 56.258166 
L 232.708155 59.636021 
L 234.96384 113.718178 
L 235.2458 116.952093 
L 235.527761 115.204742 
L 235.809722 112.124874 
L 236.091682 112.874498 
L 236.373643 116.402412 
L 236.655603 116.761004 
L 236.937564 110.503751 
L 237.501485 90.473768 
L 237.783446 85.19112 
L 238.065406 83.510216 
L 238.347367 82.699193 
L 239.193249 79.304423 
L 239.75717 74.425599 
L 240.03913 75.953891 
L 240.603052 86.84136 
L 241.166973 89.971232 
L 242.576776 120.624005 
L 243.140697 136.470541 
L 244.268539 154.34913 
L 245.114421 168.55899 
L 245.396382 171.43165 
L 246.242263 185.136725 
L 247.088145 187.486131 
L 247.370106 187.479783 
L 247.652066 185.040655 
L 247.934027 179.668901 
L 248.779909 152.628508 
L 249.061869 150.323157 
L 249.34383 150.75005 
L 249.62579 151.409587 
L 249.907751 152.755311 
L 251.317554 164.883216 
L 251.599514 165.422386 
L 252.445396 157.065764 
L 253.009317 156.609423 
L 253.573239 154.29383 
L 253.855199 154.951896 
L 254.13716 156.612398 
L 254.41912 157.378968 
L 254.983041 157.132329 
L 255.265002 157.012302 
L 255.828923 155.717581 
L 256.110884 156.909502 
L 256.674805 161.260077 
L 257.238726 163.538243 
L 257.520687 163.890131 
L 257.802647 163.671382 
L 258.084608 164.232209 
L 258.366569 165.601639 
L 258.648529 164.049544 
L 258.93049 155.47206 
L 259.776371 115.285485 
L 260.340293 96.65734 
L 260.622253 93.789728 
L 261.186174 96.625901 
L 261.468135 98.565989 
L 262.032056 108.261732 
L 262.314017 113.889565 
L 262.595977 123.232281 
L 263.159898 152.500265 
L 263.441859 158.615172 
L 263.72382 157.20748 
L 264.00578 154.193904 
L 264.569701 151.159451 
L 264.851662 150.412859 
L 265.133623 151.123821 
L 265.697544 156.217384 
L 265.979504 158.849618 
L 266.261465 160.411294 
L 266.543425 160.707164 
L 267.107347 159.936456 
L 267.389307 160.109079 
L 267.671268 161.238465 
L 267.953228 162.927138 
L 268.235189 163.922783 
L 268.51715 163.456377 
L 269.081071 161.212142 
L 269.363031 160.740221 
L 269.644992 159.8868 
L 269.926953 156.38713 
L 270.208913 148.023061 
L 271.054795 112.216829 
L 271.618716 99.589076 
L 271.900677 97.139363 
L 272.464598 95.17251 
L 272.746558 95.576816 
L 273.028519 97.605964 
L 273.31048 100.520397 
L 273.59244 106.209228 
L 273.874401 119.001066 
L 274.438322 152.41237 
L 274.720282 157.073485 
L 275.284204 152.566966 
L 276.130085 149.510557 
L 276.412046 151.146944 
L 276.975967 155.715033 
L 277.821849 160.141392 
L 278.38577 161.349162 
L 279.231652 167.639145 
L 279.513612 168.247098 
L 280.077534 168.561427 
L 280.359494 167.987402 
L 280.641455 166.510639 
L 280.923415 163.798767 
L 281.205376 158.47953 
L 281.769297 136.066835 
L 282.333218 111.612549 
L 282.615179 104.86402 
L 283.1791 99.498012 
L 283.461061 98.2937 
L 283.743021 99.406077 
L 284.306942 106.221705 
L 284.588903 111.056119 
L 284.870864 122.355744 
L 285.434785 154.038441 
L 285.716745 158.044385 
L 286.280667 153.614838 
L 286.562627 153.256067 
L 287.126548 151.638502 
L 287.408509 153.268028 
L 287.97243 158.861795 
L 288.536351 161.757112 
L 288.818312 162.366522 
L 289.100272 162.471544 
L 289.664194 161.612345 
L 289.946154 162.86714 
L 290.510075 169.456607 
L 290.792036 170.270623 
L 291.073996 170.622201 
L 291.637918 173.997368 
L 291.919878 171.596166 
L 292.201839 165.17767 
L 292.483799 155.468605 
L 293.893602 91.002712 
L 294.457524 80.263792 
L 295.021445 73.632331 
L 295.303405 73.88809 
L 295.585366 76.39405 
L 295.867326 80.841419 
L 296.149287 92.734508 
L 296.995169 158.252309 
L 297.277129 160.134588 
L 297.55909 160.185249 
L 297.841051 163.293024 
L 298.123011 164.671844 
L 298.404972 163.390127 
L 298.686932 164.616403 
L 298.968893 168.55549 
L 299.250853 170.433798 
L 299.532814 169.92452 
L 299.814775 170.865348 
L 300.378696 175.079126 
L 300.660656 176.035866 
L 302.916341 189.985247 
L 303.198302 189.818394 
L 303.480262 183.89877 
L 304.044183 154.639229 
L 304.890065 99.122398 
L 305.735947 59.512736 
L 306.299868 40.65031 
L 306.581829 36.312095 
L 306.863789 37.602122 
L 307.14575 45.022783 
L 307.42771 59.404708 
L 307.991632 113.018608 
L 308.273592 140.490022 
L 308.555553 155.948247 
L 308.837513 160.422813 
L 309.119474 161.920057 
L 309.683395 166.594894 
L 309.965356 166.516766 
L 310.247316 166.939876 
L 311.375159 178.590488 
L 311.93908 180.63259 
L 312.22104 182.483107 
L 313.348883 194.956442 
L 313.912804 198.951031 
L 314.194765 199.601143 
L 314.476725 197.237686 
L 314.758686 190.107926 
L 315.040646 176.957866 
L 317.01437 54.151472 
L 317.296331 42.322226 
L 317.578292 35.237111 
L 317.860252 34.878056 
L 318.142213 38.788338 
L 318.424173 45.837876 
L 318.706134 59.941443 
L 319.833976 153.658282 
L 320.115937 158.143939 
L 320.397897 159.90798 
L 320.961819 165.641509 
L 321.8077 170.19802 
L 322.653582 178.30781 
L 323.217503 180.486497 
L 323.499464 182.463879 
L 324.063385 188.318502 
L 324.345346 189.64421 
L 324.627306 190.302524 
L 325.191227 192.371133 
L 325.473188 192.157343 
L 325.755149 190.178184 
L 326.037109 185.372097 
L 326.31907 175.602413 
L 327.164952 122.936399 
L 328.010833 74.649968 
L 328.574754 54.186919 
L 328.856715 46.404229 
L 329.138676 42.511086 
L 329.420636 45.034848 
L 329.702597 54.495884 
L 329.984557 71.738141 
L 330.830439 147.755431 
L 331.1124 157.798909 
L 331.676321 164.586155 
L 331.958281 166.659026 
L 332.240242 167.290872 
L 332.804163 170.514457 
L 333.086124 169.734157 
L 333.368084 166.817565 
L 333.650045 166.147245 
L 333.932006 168.154721 
L 334.213966 168.955249 
L 334.495927 167.888427 
L 334.777887 168.751126 
L 335.341809 174.286291 
L 335.623769 174.143998 
L 335.90573 174.741433 
L 336.18769 176.830234 
L 336.469651 177.806768 
L 336.751611 177.155427 
L 337.033572 177.207951 
L 337.315533 176.832487 
L 337.597493 171.278747 
L 338.161414 143.211746 
L 339.007296 98.041161 
L 339.571217 79.352978 
L 339.853178 73.740385 
L 340.135138 71.213107 
L 340.417099 72.057689 
L 340.69906 74.798531 
L 340.98102 81.971125 
L 341.262981 99.79893 
L 341.826902 150.29976 
L 342.108863 159.664754 
L 342.390823 159.700052 
L 342.672784 160.483987 
L 342.954744 163.202756 
L 343.236705 163.626576 
L 343.518666 162.23735 
L 343.800626 163.067954 
L 344.364547 168.153124 
L 344.646508 168.338981 
L 344.928468 168.297707 
L 345.210429 168.968182 
L 345.77435 171.598599 
L 346.338271 175.533394 
L 347.184153 183.525322 
L 347.466114 185.63318 
L 348.311995 193.513738 
L 348.593956 193.795875 
L 348.875917 189.884644 
L 349.157877 177.881344 
L 350.849641 61.874075 
L 351.695523 34.001787 
L 351.977483 31.739998 
L 352.259444 37.352703 
L 352.541404 48.980184 
L 352.823365 66.209163 
L 353.951207 154.549757 
L 354.233168 157.837933 
L 354.515128 159.703325 
L 355.07905 165.412861 
L 355.642971 167.20292 
L 355.924931 169.126279 
L 356.770813 178.12207 
L 357.334734 180.531371 
L 359.026498 199.537819 
L 359.590419 200.917946 
L 359.87238 203.083801 
L 360.15434 203.170005 
L 360.436301 196.237318 
L 361.000222 161.610369 
L 362.128064 79.564292 
L 362.691985 47.69375 
L 362.973946 40.722652 
L 363.819828 36.367414 
L 364.101788 40.958984 
L 364.383749 54.469039 
L 365.793552 147.857237 
L 366.357473 156.250736 
L 366.921394 163.898584 
L 367.485315 169.010784 
L 370.022961 201.599497 
L 370.586882 205.09175 
L 371.432764 211.513613 
L 371.714724 209.859109 
L 371.996685 201.766388 
L 372.560606 162.507961 
L 373.688448 75.163103 
L 374.252369 43.619171 
L 374.816291 33.096005 
L 375.098251 27.902582 
L 375.380212 25.034933 
L 375.662172 30.057106 
L 376.226094 62.946201 
L 377.071975 130.568823 
L 377.353936 143.434645 
L 377.917857 153.330341 
L 378.481778 161.166503 
L 378.763739 162.596799 
L 379.045699 164.68432 
L 379.891581 174.145751 
L 381.019423 185.273729 
L 382.711187 197.391476 
L 382.993148 198.71869 
L 383.275108 198.155772 
L 383.557069 191.807096 
L 384.12099 159.741072 
L 385.248832 86.227911 
L 385.812753 65.931311 
L 386.094714 60.18492 
L 386.376675 58.360603 
L 386.658635 59.317126 
L 386.940596 62.299792 
L 387.222556 70.398268 
L 387.786478 110.498751 
L 388.068438 131.991477 
L 388.350399 144.725547 
L 388.632359 149.115794 
L 388.91432 150.639793 
L 389.478241 155.551572 
L 391.170005 170.164308 
L 391.451965 171.531954 
L 391.733926 172.279038 
L 392.015886 173.373491 
L 392.861768 179.842102 
L 393.143729 180.984629 
L 393.70765 184.623185 
L 394.271571 186.542233 
L 394.553532 188.681612 
L 394.835492 189.501051 
L 395.117453 185.125566 
L 395.399413 174.177748 
L 396.245295 120.604008 
L 396.809216 87.453675 
L 397.373137 65.007776 
L 397.655098 59.834572 
L 397.937059 58.000131 
L 398.219019 58.302563 
L 398.50098 63.119201 
L 398.78294 75.781369 
L 399.628822 134.579885 
L 399.910783 144.937768 
L 400.192743 149.100307 
L 400.474704 150.818315 
L 402.166467 166.668243 
L 403.012349 173.040078 
L 403.858231 181.753776 
L 404.422152 185.673619 
L 405.831955 198.268036 
L 406.113916 200.308633 
L 406.395876 198.639126 
L 406.677837 189.934008 
L 407.241758 153.261361 
L 408.3696 68.32616 
L 408.933522 50.217134 
L 409.779403 30.838127 
L 410.061364 31.342896 
L 410.343324 39.673441 
L 410.907246 76.539135 
L 411.753127 144.819068 
L 412.035088 158.397358 
L 412.317049 164.541524 
L 413.444891 177.429522 
L 413.726851 177.703698 
L 414.008812 179.556153 
L 414.854694 188.535783 
L 415.982536 199.219187 
L 416.828418 205.063717 
L 417.110379 206.110559 
L 417.392339 206.661888 
L 417.6743 204.773486 
L 417.95626 196.460525 
L 418.520181 158.238805 
L 419.648024 68.662757 
L 420.493906 33.408781 
L 420.775866 24.934367 
L 421.057827 21.551202 
L 421.339787 23.869254 
L 421.621748 32.581958 
L 422.185669 68.11901 
L 423.313511 154.994897 
L 423.595472 164.02133 
L 424.159393 173.275809 
L 424.441354 176.56294 
L 425.287236 181.139902 
L 426.697038 193.427063 
L 426.978999 195.164676 
L 427.26096 196.138884 
L 427.54292 197.580821 
L 428.106841 201.426761 
L 428.670763 203.668682 
L 428.952723 202.80874 
L 429.234684 195.041123 
L 429.798605 158.476883 
L 430.926447 74.136377 
L 431.490368 51.450159 
L 432.05429 35.034721 
L 432.33625 32.188581 
L 432.618211 37.216816 
L 433.182132 69.110759 
L 434.309974 155.034161 
L 434.591935 164.002604 
L 435.719777 176.975143 
L 436.283698 178.156644 
L 436.565659 179.946492 
L 437.12958 184.125516 
L 437.411541 185.260391 
L 437.693501 187.968655 
L 438.257422 195.890027 
L 438.821344 199.356684 
L 439.103304 201.704516 
L 439.385265 202.21344 
L 439.667225 201.352053 
L 439.949186 201.22968 
L 440.231147 199.444753 
L 440.513107 189.979215 
L 441.077028 150.119319 
L 442.204871 66.796544 
L 443.050752 36.175655 
L 443.332713 29.666194 
L 443.614674 28.682616 
L 443.896634 35.040029 
L 444.178595 49.64062 
L 445.870358 164.757177 
L 446.71624 175.520498 
L 446.998201 178.399885 
L 447.562122 180.587717 
L 447.844082 183.281938 
L 448.971925 200.252437 
L 449.535846 207.153171 
L 450.381728 212.743369 
L 450.663688 214.043346 
L 450.945649 214.416617 
L 451.227609 211.403052 
L 451.50957 201.649966 
L 452.073491 160.099958 
L 453.201334 58.333454 
L 453.765255 28.575181 
L 454.047215 19.152466 
L 454.329176 14.938753 
L 454.611136 14.110705 
L 454.893097 15.854171 
L 455.175058 23.318805 
L 455.738979 61.25427 
L 457.148782 167.413553 
L 457.430742 178.15712 
L 457.712703 183.989901 
L 458.840545 195.382961 
L 459.122506 197.433021 
L 459.404466 200.472887 
L 459.968388 210.047794 
L 460.250348 212.450714 
L 460.532309 213.842609 
L 461.942112 225.373358 
L 462.224072 226.306853 
L 462.506033 220.063732 
L 462.787993 202.63299 
L 463.351915 141.452793 
L 463.915836 77.297693 
L 464.479757 37.227873 
L 465.043678 18.697286 
L 465.325639 13.636112 
L 465.607599 12.614161 
L 465.88956 15.017198 
L 466.17152 20.18483 
L 466.453481 30.180628 
L 467.017402 69.752469 
L 468.145245 148.960918 
L 468.709166 179.863731 
L 468.991126 188.55638 
L 469.273087 193.457082 
L 469.555048 195.724852 
L 470.118969 197.738553 
L 470.68289 201.686565 
L 470.96485 204.751713 
L 472.092693 221.300928 
L 472.374653 221.164396 
L 472.656614 221.508962 
L 472.938575 222.782663 
L 473.220535 222.669844 
L 473.502496 218.691086 
L 473.784456 207.821717 
L 474.066417 186.873562 
L 475.47622 41.101526 
L 475.75818 28.548667 
L 476.040141 21.111966 
L 476.604062 13.583651 
L 476.886023 12.5396 
L 477.167983 16.820714 
L 477.449944 28.301969 
L 478.295826 84.140111 
L 479.141707 141.780386 
L 479.987589 179.05222 
L 480.55151 193.466618 
L 480.833471 197.128196 
L 481.115432 198.96276 
L 481.397392 199.713342 
L 481.679353 200.072647 
L 481.961313 201.216965 
L 482.243274 203.637999 
L 483.935037 223.267506 
L 484.216998 223.128065 
L 484.498959 221.109988 
L 484.780919 215.082241 
L 485.06288 201.19298 
L 485.626801 144.98405 
L 486.190722 78.873211 
L 486.754643 42.504243 
L 487.318564 25.089587 
L 487.600525 22.047472 
L 487.882486 21.68732 
L 488.164446 23.065223 
L 488.446407 27.920452 
L 488.728367 39.029306 
L 489.292289 76.667609 
L 490.13817 137.033175 
L 490.984052 181.491105 
L 491.266013 189.593703 
L 491.547973 192.844567 
L 491.829934 193.289612 
L 492.111894 192.979662 
L 492.393855 191.990709 
L 492.957776 189.23021 
L 493.239737 190.591517 
L 494.367579 206.589729 
L 494.9315 210.215489 
L 495.213461 211.011967 
L 495.495421 212.291611 
L 495.777382 212.578794 
L 496.059343 208.015164 
L 496.341303 195.736654 
L 496.905224 150.369414 
L 497.751106 66.408415 
L 498.315027 37.40957 
L 498.596988 28.380695 
L 498.878948 23.337545 
L 499.160909 22.437514 
L 499.44287 25.882529 
L 499.72483 34.865222 
L 500.288751 70.787284 
L 501.416594 149.87571 
L 501.980515 180.535751 
L 502.262476 188.400302 
L 502.544436 191.608094 
L 502.826397 192.299718 
L 503.108357 191.784581 
L 503.390318 191.595251 
L 503.672278 192.586152 
L 503.954239 194.093129 
L 504.2362 194.829845 
L 504.51816 196.392736 
L 504.800121 200.881744 
L 505.364042 213.147777 
L 505.927963 220.111727 
L 506.773845 226.250303 
L 507.055805 226.625052 
L 507.337766 219.126371 
L 507.619727 200.335745 
L 508.183648 139.503477 
L 508.747569 71.219434 
L 509.02953 48.196113 
L 509.593451 25.987719 
L 510.157372 14.418326 
L 510.439333 12.096 
L 510.721293 12.702489 
L 511.003254 19.176171 
L 511.567175 51.944299 
L 512.976978 138.460632 
L 513.82286 176.348914 
L 514.386781 189.579961 
L 515.514623 207.397599 
L 516.078544 214.124108 
L 516.924426 229.096808 
L 518.052268 239.614732 
L 518.334229 238.869083 
L 518.61619 230.037064 
L 518.89815 209.659153 
L 519.462071 137.187433 
L 520.025992 67.45363 
L 520.589914 37.270589 
L 521.153835 21.145224 
L 521.435795 18.157363 
L 521.717756 18.1295 
L 521.999717 20.621553 
L 522.281677 26.551852 
L 522.563638 37.35509 
L 524.537362 138.482013 
L 525.383244 165.381233 
L 525.947165 177.481519 
L 527.075007 199.086474 
L 527.638928 211.936275 
L 528.766771 241.178613 
L 529.048731 247.399517 
L 529.330692 250.94242 
L 529.612652 250.787683 
L 529.894613 245.064454 
L 530.176574 228.986629 
L 530.740495 158.695421 
L 531.304416 82.845939 
L 531.868337 48.713804 
L 532.432258 29.101522 
L 532.714219 24.06617 
L 532.996179 24.289932 
L 533.560101 32.426757 
L 533.842061 40.264742 
L 534.405982 69.220873 
L 534.969904 97.759219 
L 535.815785 128.615529 
L 536.661667 148.71279 
L 537.225588 157.171785 
L 538.07147 169.259178 
L 538.353431 173.748591 
L 538.917352 189.266594 
L 540.327155 236.26631 
L 541.173036 254.016 
L 541.454997 250.072844 
L 541.736958 235.242598 
L 542.018918 207.708602 
L 542.8648 90.468547 
L 543.428721 55.8179 
L 543.992642 33.171566 
L 544.274603 28.411334 
L 544.556563 27.840751 
L 544.838524 29.059335 
L 545.120485 34.446696 
L 545.684406 62.470592 
L 546.530288 105.156614 
L 547.376169 138.234327 
L 547.94009 149.765635 
L 548.222051 153.203849 
L 550.195775 188.823181 
L 550.759696 200.769301 
L 552.169499 236.997494 
L 552.45146 241.349664 
L 552.73342 243.100331 
L 553.015381 238.848936 
L 553.297342 226.144358 
L 553.579302 203.868315 
L 554.707145 69.603554 
L 555.553026 32.585963 
L 555.834987 25.879192 
L 556.116947 24.812068 
L 556.398908 27.727297 
L 556.680869 34.603424 
L 557.24479 59.37307 
L 558.372632 117.908359 
L 559.218514 148.262135 
L 560.346356 173.427141 
L 562.32008 202.767904 
L 563.165962 221.440964 
L 564.293804 243.956998 
L 564.575765 243.924362 
L 564.857726 235.302255 
L 565.139686 214.874379 
L 565.703607 142.310249 
L 566.267529 75.995867 
L 566.83145 45.828522 
L 567.395371 29.118127 
L 567.677332 27.18527 
L 567.959292 28.811218 
L 568.241253 35.180124 
L 568.805174 60.730163 
L 569.933016 111.491036 
L 570.778898 135.7202 
L 571.342819 147.7667 
L 572.188701 159.706772 
L 572.752622 170.702875 
L 573.316543 177.933429 
L 573.880464 188.918681 
L 574.444386 202.983063 
L 575.854189 247.325343 
L 576.136149 246.59747 
L 576.41811 233.01913 
L 576.70007 206.84253 
L 577.545952 100.653608 
L 577.827913 83.814568 
L 578.673794 56.109546 
L 578.955755 51.488235 
L 579.237716 49.032426 
L 579.519676 48.097528 
L 579.801637 50.73053 
L 580.083597 59.24551 
L 581.4934 118.791102 
L 582.057321 134.750035 
L 582.621243 143.07832 
L 583.185164 149.818651 
L 583.467124 150.740326 
L 583.749085 151.076427 
L 584.031046 154.170516 
L 585.440848 184.244574 
L 587.414573 242.723998 
L 587.696533 237.436294 
L 587.978494 217.033597 
L 588.824375 121.032716 
L 589.388297 90.805709 
L 589.952218 69.136639 
L 590.234178 64.151701 
L 590.516139 62.166928 
L 590.7981 62.107933 
L 591.08006 64.505032 
L 591.362021 71.196658 
L 591.925942 94.532971 
L 592.489863 119.510851 
L 592.771824 124.556204 
L 593.053784 122.268194 
L 593.617705 110.919175 
L 593.899666 110.173632 
L 594.181627 112.906151 
L 594.745548 121.494033 
L 595.59143 139.372837 
L 596.155351 153.535999 
L 597.847114 207.308251 
L 598.692996 230.348372 
L 598.974957 233.479816 
L 599.256917 225.385476 
L 599.820838 170.332928 
L 600.38476 118.450213 
L 600.948681 91.380624 
L 601.512602 74.218474 
L 601.794562 70.110005 
L 602.076523 68.727134 
L 602.358484 69.078451 
L 602.640444 73.009498 
L 602.922405 82.061037 
L 603.768287 119.715842 
L 604.332208 131.121142 
L 604.896129 138.225741 
L 605.46005 142.200739 
L 605.742011 143.151346 
L 606.023971 145.469738 
L 606.587892 151.579682 
L 606.869853 152.184194 
L 607.151814 153.136611 
L 607.433774 155.823485 
L 608.279656 170.316412 
L 610.25338 217.293175 
L 610.535341 218.018712 
L 610.817301 206.300678 
L 611.945144 123.863164 
L 612.791025 89.000209 
L 613.354946 76.135541 
L 613.636907 75.118711 
L 613.918868 78.806304 
L 614.482789 92.31274 
L 615.328671 119.481274 
L 615.892592 130.16083 
L 616.174552 132.730208 
L 616.456513 132.929704 
L 616.738474 134.324559 
L 617.020434 137.868451 
L 617.584355 146.097476 
L 618.430237 151.921395 
L 619.276119 159.043515 
L 619.84004 171.263416 
L 621.531803 211.973508 
L 621.813764 214.787255 
L 622.095725 204.170837 
L 623.223567 121.04982 
L 623.787488 99.208914 
L 624.351409 85.967853 
L 624.63337 83.714929 
L 624.915331 82.940982 
L 625.197291 84.156424 
L 625.479252 86.339878 
L 626.043173 101.908197 
L 626.607094 118.404529 
L 626.889055 123.813948 
L 627.452976 129.428992 
L 627.734936 130.597197 
L 628.016897 133.012505 
L 628.298858 134.412503 
L 629.990621 152.500151 
L 630.554542 163.966874 
L 630.836503 169.422196 
L 631.118463 171.077277 
L 631.964345 186.683661 
L 632.246306 186.296581 
L 632.528266 192.73063 
L 632.810227 195.802306 
L 633.092188 209.271371 
L 633.092188 209.271371 
" clip-path="url(#p523cc67732)" style="fill: none; stroke: #1f77b4; stroke-width: 1.5; stroke-linecap: square"/>
   </g>
   <g id="patch_3">
    <path d="M 47.192188 266.112 
L 47.192188 0 
" style="fill: none; stroke: #000000; stroke-width: 0.8; stroke-linejoin: miter; stroke-linecap: square"/>
   </g>
   <g id="patch_4">
    <path d="M 660.992188 266.112 
L 660.992188 0 
" style="fill: none; stroke: #000000; stroke-width: 0.8; stroke-linejoin: miter; stroke-linecap: square"/>
   </g>
   <g id="patch_5">
    <path d="M 47.192188 266.112 
L 660.992188 266.112 
" style="fill: none; stroke: #000000; stroke-width: 0.8; stroke-linejoin: miter; stroke-linecap: square"/>
   </g>
   <g id="patch_6">
    <path d="M 47.192188 0 
L 660.992188 0 
" style="fill: none; stroke: #000000; stroke-width: 0.8; stroke-linejoin: miter; stroke-linecap: square"/>
   </g>
  </g>
 </g>
 <defs>
  <clipPath id="p523cc67732">
   <rect x="47.192188" y="0" width="613.8" height="266.112"/>
  </clipPath>
 </defs>
</svg>
