<?xml version="1.0" encoding="utf-8" standalone="no"?>
<!DOCTYPE svg PUBLIC "-//W3C//DTD SVG 1.1//EN"
  "http://www.w3.org/Graphics/SVG/1.1/DTD/svg11.dtd">
<svg xmlns:xlink="http://www.w3.org/1999/xlink" width="660.992188pt" height="282.790125pt" viewBox="0 0 660.992188 282.790125" xmlns="http://www.w3.org/2000/svg" version="1.1">
 <metadata>
  <rdf:RDF xmlns:dc="http://purl.org/dc/elements/1.1/" xmlns:cc="http://creativecommons.org/ns#" xmlns:rdf="http://www.w3.org/1999/02/22-rdf-syntax-ns#">
   <cc:Work>
    <dc:type rdf:resource="http://purl.org/dc/dcmitype/StillImage"/>
    <dc:date>2023-03-06T19:25:45.217113</dc:date>
    <dc:format>image/svg+xml</dc:format>
    <dc:creator>
     <cc:Agent>
      <dc:title>Matplotlib v3.6.3, https://matplotlib.org/</dc:title>
     </cc:Agent>
    </dc:creator>
   </cc:Work>
  </rdf:RDF>
 </metadata>
 <defs>
  <style type="text/css">*{stroke-linejoin: round; stroke-linecap: butt}</style>
 </defs>
 <g id="figure_1">
  <g id="patch_1">
   <path d="M -0 282.790125 
L 660.992188 282.790125 
L 660.992188 0 
L -0 0 
L -0 282.790125 
z
" style="fill: none"/>
  </g>
  <g id="axes_1">
   <g id="patch_2">
    <path d="M 47.192188 266.112 
L 660.992188 266.112 
L 660.992188 0 
L 47.192188 0 
L 47.192188 266.112 
z
" style="fill: none"/>
   </g>
   <g id="matplotlib.axis_1">
    <g id="xtick_1">
     <g id="line2d_1">
      <defs>
       <path id="m80453765e0" d="M 0 0 
L 0 3.5 
" style="stroke: #000000; stroke-width: 0.8"/>
      </defs>
      <g>
       <use xlink:href="#m80453765e0" x="75.092188" y="266.112" style="stroke: #000000; stroke-width: 0.8"/>
      </g>
     </g>
     <g id="text_1">
      <!-- 0 -->
      <g transform="translate(71.910938 280.710438) scale(0.1 -0.1)">
       <defs>
        <path id="DejaVuSans-30" d="M 2034 4250 
Q 1547 4250 1301 3770 
Q 1056 3291 1056 2328 
Q 1056 1369 1301 889 
Q 1547 409 2034 409 
Q 2525 409 2770 889 
Q 3016 1369 3016 2328 
Q 3016 3291 2770 3770 
Q 2525 4250 2034 4250 
z
M 2034 4750 
Q 2819 4750 3233 4129 
Q 3647 3509 3647 2328 
Q 3647 1150 3233 529 
Q 2819 -91 2034 -91 
Q 1250 -91 836 529 
Q 422 1150 422 2328 
Q 422 3509 836 4129 
Q 1250 4750 2034 4750 
z
" transform="scale(0.015625)"/>
       </defs>
       <use xlink:href="#DejaVuSans-30"/>
      </g>
     </g>
    </g>
    <g id="xtick_2">
     <g id="line2d_2">
      <g>
       <use xlink:href="#m80453765e0" x="144.842188" y="266.112" style="stroke: #000000; stroke-width: 0.8"/>
      </g>
     </g>
     <g id="text_2">
      <!-- 500 -->
      <g transform="translate(135.298438 280.710438) scale(0.1 -0.1)">
       <defs>
        <path id="DejaVuSans-35" d="M 691 4666 
L 3169 4666 
L 3169 4134 
L 1269 4134 
L 1269 2991 
Q 1406 3038 1543 3061 
Q 1681 3084 1819 3084 
Q 2600 3084 3056 2656 
Q 3513 2228 3513 1497 
Q 3513 744 3044 326 
Q 2575 -91 1722 -91 
Q 1428 -91 1123 -41 
Q 819 9 494 109 
L 494 744 
Q 775 591 1075 516 
Q 1375 441 1709 441 
Q 2250 441 2565 725 
Q 2881 1009 2881 1497 
Q 2881 1984 2565 2268 
Q 2250 2553 1709 2553 
Q 1456 2553 1204 2497 
Q 953 2441 691 2322 
L 691 4666 
z
" transform="scale(0.015625)"/>
       </defs>
       <use xlink:href="#DejaVuSans-35"/>
       <use xlink:href="#DejaVuSans-30" x="63.623047"/>
       <use xlink:href="#DejaVuSans-30" x="127.246094"/>
      </g>
     </g>
    </g>
    <g id="xtick_3">
     <g id="line2d_3">
      <g>
       <use xlink:href="#m80453765e0" x="214.592188" y="266.112" style="stroke: #000000; stroke-width: 0.8"/>
      </g>
     </g>
     <g id="text_3">
      <!-- 1000 -->
      <g transform="translate(201.867188 280.710438) scale(0.1 -0.1)">
       <defs>
        <path id="DejaVuSans-31" d="M 794 531 
L 1825 531 
L 1825 4091 
L 703 3866 
L 703 4441 
L 1819 4666 
L 2450 4666 
L 2450 531 
L 3481 531 
L 3481 0 
L 794 0 
L 794 531 
z
" transform="scale(0.015625)"/>
       </defs>
       <use xlink:href="#DejaVuSans-31"/>
       <use xlink:href="#DejaVuSans-30" x="63.623047"/>
       <use xlink:href="#DejaVuSans-30" x="127.246094"/>
       <use xlink:href="#DejaVuSans-30" x="190.869141"/>
      </g>
     </g>
    </g>
    <g id="xtick_4">
     <g id="line2d_4">
      <g>
       <use xlink:href="#m80453765e0" x="284.342188" y="266.112" style="stroke: #000000; stroke-width: 0.8"/>
      </g>
     </g>
     <g id="text_4">
      <!-- 1500 -->
      <g transform="translate(271.617188 280.710438) scale(0.1 -0.1)">
       <use xlink:href="#DejaVuSans-31"/>
       <use xlink:href="#DejaVuSans-35" x="63.623047"/>
       <use xlink:href="#DejaVuSans-30" x="127.246094"/>
       <use xlink:href="#DejaVuSans-30" x="190.869141"/>
      </g>
     </g>
    </g>
    <g id="xtick_5">
     <g id="line2d_5">
      <g>
       <use xlink:href="#m80453765e0" x="354.092188" y="266.112" style="stroke: #000000; stroke-width: 0.8"/>
      </g>
     </g>
     <g id="text_5">
      <!-- 2000 -->
      <g transform="translate(341.367188 280.710438) scale(0.1 -0.1)">
       <defs>
        <path id="DejaVuSans-32" d="M 1228 531 
L 3431 531 
L 3431 0 
L 469 0 
L 469 531 
Q 828 903 1448 1529 
Q 2069 2156 2228 2338 
Q 2531 2678 2651 2914 
Q 2772 3150 2772 3378 
Q 2772 3750 2511 3984 
Q 2250 4219 1831 4219 
Q 1534 4219 1204 4116 
Q 875 4013 500 3803 
L 500 4441 
Q 881 4594 1212 4672 
Q 1544 4750 1819 4750 
Q 2544 4750 2975 4387 
Q 3406 4025 3406 3419 
Q 3406 3131 3298 2873 
Q 3191 2616 2906 2266 
Q 2828 2175 2409 1742 
Q 1991 1309 1228 531 
z
" transform="scale(0.015625)"/>
       </defs>
       <use xlink:href="#DejaVuSans-32"/>
       <use xlink:href="#DejaVuSans-30" x="63.623047"/>
       <use xlink:href="#DejaVuSans-30" x="127.246094"/>
       <use xlink:href="#DejaVuSans-30" x="190.869141"/>
      </g>
     </g>
    </g>
    <g id="xtick_6">
     <g id="line2d_6">
      <g>
       <use xlink:href="#m80453765e0" x="423.842188" y="266.112" style="stroke: #000000; stroke-width: 0.8"/>
      </g>
     </g>
     <g id="text_6">
      <!-- 2500 -->
      <g transform="translate(411.117188 280.710438) scale(0.1 -0.1)">
       <use xlink:href="#DejaVuSans-32"/>
       <use xlink:href="#DejaVuSans-35" x="63.623047"/>
       <use xlink:href="#DejaVuSans-30" x="127.246094"/>
       <use xlink:href="#DejaVuSans-30" x="190.869141"/>
      </g>
     </g>
    </g>
    <g id="xtick_7">
     <g id="line2d_7">
      <g>
       <use xlink:href="#m80453765e0" x="493.592188" y="266.112" style="stroke: #000000; stroke-width: 0.8"/>
      </g>
     </g>
     <g id="text_7">
      <!-- 3000 -->
      <g transform="translate(480.867188 280.710438) scale(0.1 -0.1)">
       <defs>
        <path id="DejaVuSans-33" d="M 2597 2516 
Q 3050 2419 3304 2112 
Q 3559 1806 3559 1356 
Q 3559 666 3084 287 
Q 2609 -91 1734 -91 
Q 1441 -91 1130 -33 
Q 819 25 488 141 
L 488 750 
Q 750 597 1062 519 
Q 1375 441 1716 441 
Q 2309 441 2620 675 
Q 2931 909 2931 1356 
Q 2931 1769 2642 2001 
Q 2353 2234 1838 2234 
L 1294 2234 
L 1294 2753 
L 1863 2753 
Q 2328 2753 2575 2939 
Q 2822 3125 2822 3475 
Q 2822 3834 2567 4026 
Q 2313 4219 1838 4219 
Q 1578 4219 1281 4162 
Q 984 4106 628 3988 
L 628 4550 
Q 988 4650 1302 4700 
Q 1616 4750 1894 4750 
Q 2613 4750 3031 4423 
Q 3450 4097 3450 3541 
Q 3450 3153 3228 2886 
Q 3006 2619 2597 2516 
z
" transform="scale(0.015625)"/>
       </defs>
       <use xlink:href="#DejaVuSans-33"/>
       <use xlink:href="#DejaVuSans-30" x="63.623047"/>
       <use xlink:href="#DejaVuSans-30" x="127.246094"/>
       <use xlink:href="#DejaVuSans-30" x="190.869141"/>
      </g>
     </g>
    </g>
    <g id="xtick_8">
     <g id="line2d_8">
      <g>
       <use xlink:href="#m80453765e0" x="563.342188" y="266.112" style="stroke: #000000; stroke-width: 0.8"/>
      </g>
     </g>
     <g id="text_8">
      <!-- 3500 -->
      <g transform="translate(550.617188 280.710438) scale(0.1 -0.1)">
       <use xlink:href="#DejaVuSans-33"/>
       <use xlink:href="#DejaVuSans-35" x="63.623047"/>
       <use xlink:href="#DejaVuSans-30" x="127.246094"/>
       <use xlink:href="#DejaVuSans-30" x="190.869141"/>
      </g>
     </g>
    </g>
    <g id="xtick_9">
     <g id="line2d_9">
      <g>
       <use xlink:href="#m80453765e0" x="633.092188" y="266.112" style="stroke: #000000; stroke-width: 0.8"/>
      </g>
     </g>
     <g id="text_9">
      <!-- 4000 -->
      <g transform="translate(620.367188 280.710438) scale(0.1 -0.1)">
       <defs>
        <path id="DejaVuSans-34" d="M 2419 4116 
L 825 1625 
L 2419 1625 
L 2419 4116 
z
M 2253 4666 
L 3047 4666 
L 3047 1625 
L 3713 1625 
L 3713 1100 
L 3047 1100 
L 3047 0 
L 2419 0 
L 2419 1100 
L 313 1100 
L 313 1709 
L 2253 4666 
z
" transform="scale(0.015625)"/>
       </defs>
       <use xlink:href="#DejaVuSans-34"/>
       <use xlink:href="#DejaVuSans-30" x="63.623047"/>
       <use xlink:href="#DejaVuSans-30" x="127.246094"/>
       <use xlink:href="#DejaVuSans-30" x="190.869141"/>
      </g>
     </g>
    </g>
   </g>
   <g id="matplotlib.axis_2">
    <g id="ytick_1">
     <g id="line2d_10">
      <defs>
       <path id="mafad62f609" d="M 0 0 
L -3.5 0 
" style="stroke: #000000; stroke-width: 0.8"/>
      </defs>
      <g>
       <use xlink:href="#mafad62f609" x="47.192188" y="242.316017" style="stroke: #000000; stroke-width: 0.8"/>
      </g>
     </g>
     <g id="text_10">
      <!-- −30000 -->
      <g transform="translate(0 246.115236) scale(0.1 -0.1)">
       <defs>
        <path id="DejaVuSans-2212" d="M 678 2272 
L 4684 2272 
L 4684 1741 
L 678 1741 
L 678 2272 
z
" transform="scale(0.015625)"/>
       </defs>
       <use xlink:href="#DejaVuSans-2212"/>
       <use xlink:href="#DejaVuSans-33" x="83.789062"/>
       <use xlink:href="#DejaVuSans-30" x="147.412109"/>
       <use xlink:href="#DejaVuSans-30" x="211.035156"/>
       <use xlink:href="#DejaVuSans-30" x="274.658203"/>
       <use xlink:href="#DejaVuSans-30" x="338.28125"/>
      </g>
     </g>
    </g>
    <g id="ytick_2">
     <g id="line2d_11">
      <g>
       <use xlink:href="#mafad62f609" x="47.192188" y="212.588206" style="stroke: #000000; stroke-width: 0.8"/>
      </g>
     </g>
     <g id="text_11">
      <!-- −20000 -->
      <g transform="translate(0 216.387425) scale(0.1 -0.1)">
       <use xlink:href="#DejaVuSans-2212"/>
       <use xlink:href="#DejaVuSans-32" x="83.789062"/>
       <use xlink:href="#DejaVuSans-30" x="147.412109"/>
       <use xlink:href="#DejaVuSans-30" x="211.035156"/>
       <use xlink:href="#DejaVuSans-30" x="274.658203"/>
       <use xlink:href="#DejaVuSans-30" x="338.28125"/>
      </g>
     </g>
    </g>
    <g id="ytick_3">
     <g id="line2d_12">
      <g>
       <use xlink:href="#mafad62f609" x="47.192188" y="182.860395" style="stroke: #000000; stroke-width: 0.8"/>
      </g>
     </g>
     <g id="text_12">
      <!-- −10000 -->
      <g transform="translate(0 186.659614) scale(0.1 -0.1)">
       <use xlink:href="#DejaVuSans-2212"/>
       <use xlink:href="#DejaVuSans-31" x="83.789062"/>
       <use xlink:href="#DejaVuSans-30" x="147.412109"/>
       <use xlink:href="#DejaVuSans-30" x="211.035156"/>
       <use xlink:href="#DejaVuSans-30" x="274.658203"/>
       <use xlink:href="#DejaVuSans-30" x="338.28125"/>
      </g>
     </g>
    </g>
    <g id="ytick_4">
     <g id="line2d_13">
      <g>
       <use xlink:href="#mafad62f609" x="47.192188" y="153.132585" style="stroke: #000000; stroke-width: 0.8"/>
      </g>
     </g>
     <g id="text_13">
      <!-- 0 -->
      <g transform="translate(33.829688 156.931803) scale(0.1 -0.1)">
       <use xlink:href="#DejaVuSans-30"/>
      </g>
     </g>
    </g>
    <g id="ytick_5">
     <g id="line2d_14">
      <g>
       <use xlink:href="#mafad62f609" x="47.192188" y="123.404774" style="stroke: #000000; stroke-width: 0.8"/>
      </g>
     </g>
     <g id="text_14">
      <!-- 10000 -->
      <g transform="translate(8.379688 127.203992) scale(0.1 -0.1)">
       <use xlink:href="#DejaVuSans-31"/>
       <use xlink:href="#DejaVuSans-30" x="63.623047"/>
       <use xlink:href="#DejaVuSans-30" x="127.246094"/>
       <use xlink:href="#DejaVuSans-30" x="190.869141"/>
       <use xlink:href="#DejaVuSans-30" x="254.492188"/>
      </g>
     </g>
    </g>
    <g id="ytick_6">
     <g id="line2d_15">
      <g>
       <use xlink:href="#mafad62f609" x="47.192188" y="93.676963" style="stroke: #000000; stroke-width: 0.8"/>
      </g>
     </g>
     <g id="text_15">
      <!-- 20000 -->
      <g transform="translate(8.379688 97.476182) scale(0.1 -0.1)">
       <use xlink:href="#DejaVuSans-32"/>
       <use xlink:href="#DejaVuSans-30" x="63.623047"/>
       <use xlink:href="#DejaVuSans-30" x="127.246094"/>
       <use xlink:href="#DejaVuSans-30" x="190.869141"/>
       <use xlink:href="#DejaVuSans-30" x="254.492188"/>
      </g>
     </g>
    </g>
    <g id="ytick_7">
     <g id="line2d_16">
      <g>
       <use xlink:href="#mafad62f609" x="47.192188" y="63.949152" style="stroke: #000000; stroke-width: 0.8"/>
      </g>
     </g>
     <g id="text_16">
      <!-- 30000 -->
      <g transform="translate(8.379688 67.748371) scale(0.1 -0.1)">
       <use xlink:href="#DejaVuSans-33"/>
       <use xlink:href="#DejaVuSans-30" x="63.623047"/>
       <use xlink:href="#DejaVuSans-30" x="127.246094"/>
       <use xlink:href="#DejaVuSans-30" x="190.869141"/>
       <use xlink:href="#DejaVuSans-30" x="254.492188"/>
      </g>
     </g>
    </g>
    <g id="ytick_8">
     <g id="line2d_17">
      <g>
       <use xlink:href="#mafad62f609" x="47.192188" y="34.221341" style="stroke: #000000; stroke-width: 0.8"/>
      </g>
     </g>
     <g id="text_17">
      <!-- 40000 -->
      <g transform="translate(8.379688 38.02056) scale(0.1 -0.1)">
       <use xlink:href="#DejaVuSans-34"/>
       <use xlink:href="#DejaVuSans-30" x="63.623047"/>
       <use xlink:href="#DejaVuSans-30" x="127.246094"/>
       <use xlink:href="#DejaVuSans-30" x="190.869141"/>
       <use xlink:href="#DejaVuSans-30" x="254.492188"/>
      </g>
     </g>
    </g>
    <g id="ytick_9">
     <g id="line2d_18">
      <g>
       <use xlink:href="#mafad62f609" x="47.192188" y="4.49353" style="stroke: #000000; stroke-width: 0.8"/>
      </g>
     </g>
     <g id="text_18">
      <!-- 50000 -->
      <g transform="translate(8.379688 8.292749) scale(0.1 -0.1)">
       <use xlink:href="#DejaVuSans-35"/>
       <use xlink:href="#DejaVuSans-30" x="63.623047"/>
       <use xlink:href="#DejaVuSans-30" x="127.246094"/>
       <use xlink:href="#DejaVuSans-30" x="190.869141"/>
       <use xlink:href="#DejaVuSans-30" x="254.492188"/>
      </g>
     </g>
    </g>
   </g>
   <g id="line2d_19">
    <path d="M 75.092188 153.249957 
L 75.374148 153.020947 
L 75.656109 153.239004 
L 75.938069 153.030932 
L 76.22003 153.229863 
L 76.50199 153.039333 
L 76.783951 153.222115 
L 77.065912 153.046502 
L 77.347872 153.215461 
L 77.629833 153.052696 
L 77.911793 153.209681 
L 78.193754 153.058103 
L 78.475715 153.204611 
L 78.757675 153.062869 
L 79.039636 153.200122 
L 79.321596 153.067105 
L 79.603557 153.196116 
L 79.885517 153.0709 
L 80.167478 153.192515 
L 80.449439 153.074323 
L 80.731399 153.189255 
L 81.01336 153.077434 
L 81.29532 153.186283 
L 81.577281 153.080279 
L 81.859242 153.183555 
L 82.141202 153.082899 
L 82.423163 153.181033 
L 82.705123 153.08533 
L 82.987084 153.178684 
L 83.269044 153.087604 
L 83.551005 153.176477 
L 83.832966 153.089752 
L 84.114926 153.174381 
L 84.396887 153.091805 
L 84.678847 153.172362 
L 84.960808 153.093799 
L 85.242769 153.170382 
L 85.524729 153.095778 
L 85.80669 153.168388 
L 86.08865 153.097806 
L 86.370611 153.1663 
L 86.652572 153.099989 
L 86.934532 153.163976 
L 87.216493 153.102523 
L 87.498453 153.161128 
L 88.062374 153.157044 
L 88.908256 153.123526 
L 89.472177 153.187535 
L 89.754138 152.603766 
L 90.036099 150.334453 
L 90.60002 151.542534 
L 90.88198 151.395601 
L 91.163941 152.369534 
L 91.727862 157.085965 
L 92.573744 160.044536 
L 92.855704 158.368346 
L 93.137665 155.980893 
L 93.419626 156.020436 
L 93.983547 160.271428 
L 94.265507 161.453158 
L 94.547468 164.164816 
L 95.111389 173.197762 
L 95.39335 175.022988 
L 95.67531 174.927748 
L 95.957271 174.540151 
L 96.239231 174.38023 
L 96.521192 175.021749 
L 97.085113 176.93727 
L 97.367074 176.953709 
L 97.649034 177.52731 
L 97.930995 178.735809 
L 98.212956 178.896702 
L 98.776877 175.316306 
L 99.058837 175.703643 
L 99.622758 180.313718 
L 100.18668 185.687183 
L 100.46864 187.404019 
L 100.750601 190.263694 
L 101.032561 194.717448 
L 101.314522 195.291629 
L 101.596483 186.619226 
L 102.160404 150.293847 
L 103.006286 87.622955 
L 103.288246 78.929981 
L 103.570207 80.013424 
L 103.852167 86.326756 
L 104.98001 120.565824 
L 105.26197 121.797299 
L 105.825891 126.062363 
L 106.107852 128.441726 
L 106.389813 133.648367 
L 107.235694 165.936996 
L 107.517655 166.232935 
L 108.081576 162.042863 
L 108.645497 159.091954 
L 110.0553 150.574598 
L 110.337261 148.174671 
L 110.619221 148.088844 
L 111.465103 156.82231 
L 111.747064 157.073249 
L 112.310985 156.327322 
L 112.592945 156.660535 
L 113.720788 161.972572 
L 114.002748 164.599915 
L 114.56667 172.107294 
L 114.84863 174.037913 
L 115.130591 175.121973 
L 115.412551 176.703464 
L 115.976472 180.474061 
L 116.540394 181.89436 
L 117.104315 186.364793 
L 117.950197 194.177589 
L 118.232157 195.652806 
L 118.514118 196.360849 
L 118.796078 196.25666 
L 119.078039 192.959598 
L 119.36 182.567317 
L 119.923921 141.690635 
L 120.487842 99.325704 
L 120.769802 84.811278 
L 121.051763 77.517676 
L 121.333724 76.470112 
L 121.897645 78.581673 
L 122.179605 82.185803 
L 123.025487 101.740059 
L 123.307448 106.427169 
L 123.871369 121.345979 
L 124.43529 142.579008 
L 124.999211 164.75607 
L 125.281172 165.134729 
L 125.563132 161.61875 
L 125.845093 159.772325 
L 126.409014 160.468904 
L 126.972935 159.578486 
L 127.254896 159.952652 
L 128.100778 165.224204 
L 128.382738 165.035865 
L 128.664699 164.430499 
L 128.946659 164.132409 
L 129.22862 163.627675 
L 130.074502 159.308852 
L 130.638423 158.712852 
L 131.202344 157.041876 
L 131.484305 156.995066 
L 132.612147 160.519531 
L 133.458029 164.25087 
L 133.739989 164.847238 
L 134.02195 166.680002 
L 134.585871 172.364548 
L 134.867832 173.668536 
L 135.149792 175.879879 
L 135.995674 188.574444 
L 136.559595 190.169611 
L 137.123516 191.95483 
L 137.687438 195.338459 
L 138.251359 197.029475 
L 138.81528 202.598433 
L 139.097241 199.523087 
L 139.379201 186.819252 
L 139.943122 139.594357 
L 140.507043 91.579028 
L 141.070965 66.745687 
L 141.352925 61.566943 
L 141.634886 59.925872 
L 141.916846 61.334603 
L 142.198807 65.294433 
L 143.044689 85.412982 
L 143.60861 102.196307 
L 144.172531 127.269675 
L 145.018413 172.15477 
L 145.300373 175.765689 
L 146.428216 167.211792 
L 146.710176 165.710526 
L 146.992137 164.835008 
L 147.556058 164.053622 
L 147.838019 164.537118 
L 148.40194 166.201837 
L 148.6839 166.355416 
L 149.247822 167.08546 
L 149.811743 165.650038 
L 150.093703 166.22959 
L 150.375664 167.412707 
L 150.939585 168.305498 
L 151.503506 170.657172 
L 151.785467 170.420889 
L 152.067428 170.678274 
L 152.631349 175.506775 
L 152.913309 176.303692 
L 153.19527 177.451778 
L 153.759191 184.073847 
L 154.041152 184.076332 
L 154.323112 183.132987 
L 154.605073 184.677031 
L 155.168994 189.496301 
L 155.450955 191.307389 
L 156.014876 198.401529 
L 156.296836 200.19934 
L 156.578797 200.269119 
L 156.860757 197.519046 
L 157.142718 187.756316 
L 157.706639 144.421501 
L 158.27056 96.836607 
L 158.834482 67.830894 
L 159.116442 62.8103 
L 159.398403 62.190777 
L 159.680363 65.109679 
L 159.962324 71.408742 
L 160.808206 101.270525 
L 161.654087 131.863586 
L 162.218009 163.265381 
L 162.499969 171.790557 
L 162.78193 172.156258 
L 163.345851 166.955963 
L 163.909772 163.744932 
L 164.191733 162.725965 
L 164.473693 161.188903 
L 165.037614 156.172287 
L 165.601536 153.408898 
L 165.883496 152.440481 
L 166.165457 152.807768 
L 166.447417 154.002779 
L 167.011339 155.229433 
L 167.57526 159.346091 
L 167.85722 160.03588 
L 168.139181 160.220202 
L 169.830944 167.82157 
L 170.394866 171.627782 
L 170.958787 175.884266 
L 171.804669 180.1187 
L 172.086629 180.439528 
L 172.36859 179.856413 
L 172.65055 180.081409 
L 174.624274 194.504391 
L 175.470156 207.675122 
L 176.034077 215.517847 
L 176.316038 216.026432 
L 176.597999 205.817013 
L 177.16192 161.354001 
L 178.289762 63.427489 
L 178.571723 49.420723 
L 178.853683 42.054068 
L 179.135644 41.791064 
L 179.699565 49.571482 
L 180.263486 54.694367 
L 180.827407 63.526925 
L 181.109368 71.415229 
L 181.391328 84.637068 
L 181.95525 131.090872 
L 182.519171 172.85585 
L 182.801131 177.140025 
L 183.928974 170.336837 
L 184.210934 169.422253 
L 184.492895 167.846853 
L 185.056816 161.171017 
L 185.620737 159.51979 
L 186.184658 152.834409 
L 186.466619 152.70689 
L 187.03054 158.382713 
L 187.594461 160.37767 
L 187.876422 162.769288 
L 188.722304 172.498503 
L 190.132107 185.416146 
L 191.54191 202.052932 
L 191.82387 203.318102 
L 192.105831 204.011661 
L 192.387791 205.115433 
L 193.515634 213.031412 
L 194.361515 224.328981 
L 194.643476 216.260307 
L 195.207397 173.971904 
L 196.33524 69.347286 
L 196.6172 54.135811 
L 196.899161 48.400835 
L 197.181121 49.009531 
L 197.745042 53.806629 
L 198.308964 57.152549 
L 198.872885 63.62757 
L 199.154845 69.579035 
L 199.436806 81.388139 
L 200.000727 130.960965 
L 200.282688 157.388785 
L 200.564648 173.151736 
L 200.846609 177.416184 
L 201.692491 173.296451 
L 202.256412 173.52545 
L 202.538372 173.270017 
L 202.820333 172.833551 
L 203.102294 172.866115 
L 203.384254 173.590969 
L 204.230136 177.586499 
L 204.512097 177.007726 
L 205.076018 172.42462 
L 205.357978 171.367588 
L 205.639939 171.102042 
L 205.921899 170.660215 
L 206.20386 169.958489 
L 206.485821 169.694106 
L 206.767781 170.321837 
L 207.613663 173.891537 
L 207.895624 176.880475 
L 208.177584 181.210629 
L 208.459545 183.796108 
L 209.023466 182.379276 
L 209.305427 185.276277 
L 209.869348 193.340608 
L 210.151308 194.003681 
L 210.433269 195.381562 
L 212.688954 220.589105 
L 212.970914 214.871648 
L 213.252875 195.973977 
L 214.662678 56.887085 
L 214.944638 41.530778 
L 215.226599 38.464239 
L 216.636402 50.43716 
L 216.918362 53.202527 
L 217.200323 58.17633 
L 217.482284 67.485048 
L 217.764244 83.80832 
L 218.610126 154.848827 
L 218.892086 163.682018 
L 219.174047 164.818685 
L 220.019929 162.274353 
L 220.865811 157.041623 
L 221.147771 156.142307 
L 221.711692 151.389329 
L 221.993653 151.807187 
L 222.557574 159.437441 
L 222.839535 161.125127 
L 223.121495 161.540971 
L 223.403456 162.301053 
L 223.685416 164.038007 
L 224.531298 172.210581 
L 224.813259 172.431187 
L 225.095219 173.160219 
L 226.223062 183.433076 
L 226.505022 187.089122 
L 226.786983 188.983405 
L 227.068943 188.698395 
L 227.350904 189.115119 
L 227.914825 193.091829 
L 228.196786 192.520077 
L 228.478746 192.257947 
L 228.760707 194.885285 
L 229.324628 202.554684 
L 229.606589 204.104722 
L 229.888549 204.873977 
L 230.17051 206.292993 
L 230.45247 209.600704 
L 231.580313 231.618616 
L 231.862273 238.216258 
L 232.144234 239.596653 
L 232.426195 229.72942 
L 232.990116 181.667282 
L 234.117958 65.859258 
L 234.399919 55.071976 
L 234.681879 53.058833 
L 234.96384 52.65522 
L 235.2458 49.614877 
L 235.527761 43.352397 
L 236.373643 15.015299 
L 236.655603 12.096 
L 236.937564 15.323909 
L 237.219525 23.745081 
L 237.501485 38.520162 
L 238.065406 92.612829 
L 238.629327 146.760044 
L 238.911288 157.313752 
L 239.193249 158.759903 
L 239.475209 158.299244 
L 240.03913 161.442588 
L 240.321091 161.217913 
L 240.603052 160.528242 
L 240.885012 160.74273 
L 241.166973 159.707997 
L 241.730894 152.059714 
L 242.012855 152.841712 
L 244.268539 187.069377 
L 245.114421 198.636104 
L 245.396382 200.263305 
L 245.678342 202.759349 
L 246.242263 214.721418 
L 246.806184 225.290751 
L 247.370106 232.780989 
L 248.215987 239.144389 
L 249.061869 251.715624 
L 249.34383 251.062216 
L 249.62579 242.527196 
L 249.907751 225.276391 
L 250.471672 170.342418 
L 251.317554 81.089298 
L 251.599514 69.385252 
L 252.163436 55.339661 
L 252.727357 36.741667 
L 253.009317 31.165424 
L 253.291278 28.567055 
L 253.573239 28.600544 
L 253.855199 31.583922 
L 254.13716 37.601085 
L 254.41912 47.367798 
L 254.701081 63.746201 
L 255.828923 161.058094 
L 256.110884 165.088394 
L 256.956766 163.219899 
L 257.238726 164.020878 
L 257.802647 166.479658 
L 258.084608 166.285932 
L 258.366569 165.79351 
L 258.648529 166.068404 
L 258.93049 166.840192 
L 259.21245 167.250843 
L 259.494411 167.094456 
L 260.340293 165.635775 
L 260.622253 165.623094 
L 260.904214 166.442757 
L 261.468135 171.132894 
L 261.750096 173.289628 
L 262.032056 173.944549 
L 262.314017 173.94518 
L 262.595977 174.722782 
L 264.287741 184.354136 
L 265.415583 196.864586 
L 265.697544 199.241482 
L 266.261465 208.002576 
L 267.107347 220.760686 
L 267.953228 235.533139 
L 268.79911 252.571026 
L 269.081071 245.924469 
L 269.644992 199.34855 
L 270.772834 65.33082 
L 271.618716 23.635351 
L 271.900677 16.407896 
L 272.182637 16.212336 
L 272.464598 16.290967 
L 272.746558 15.033485 
L 273.028519 16.371635 
L 273.59244 25.888402 
L 273.874401 32.161076 
L 274.156361 42.757136 
L 274.720282 82.576914 
L 275.284204 137.469883 
L 275.566164 155.121632 
L 275.848125 161.705793 
L 276.130085 162.194573 
L 276.412046 161.51643 
L 276.694007 160.370099 
L 277.257928 156.509257 
L 277.539888 156.949204 
L 278.38577 163.137214 
L 279.231652 171.938426 
L 279.795573 174.250676 
L 280.359494 178.377411 
L 281.205376 182.785518 
L 282.051258 187.300702 
L 282.897139 195.594443 
L 283.1791 197.38889 
L 283.461061 198.384524 
L 283.743021 198.224631 
L 284.024982 199.059072 
L 284.588903 206.944257 
L 284.870864 208.498014 
L 285.152824 209.078307 
L 285.434785 212.44029 
L 286.280667 230.235947 
L 286.844588 238.513421 
L 287.408509 250.127818 
L 287.690469 249.46225 
L 287.97243 236.686808 
L 288.536351 179.885262 
L 289.382233 70.44593 
L 289.946154 38.084903 
L 290.228115 29.86322 
L 290.510075 25.875327 
L 290.792036 26.44524 
L 291.355957 30.879124 
L 291.919878 32.174055 
L 292.201839 34.488118 
L 292.483799 39.372074 
L 292.76576 47.453387 
L 293.047721 60.735581 
L 293.611642 109.086399 
L 294.175563 159.512155 
L 294.457524 173.102985 
L 294.739484 177.636754 
L 295.021445 175.818945 
L 295.303405 172.706769 
L 295.585366 171.553565 
L 295.867326 171.147149 
L 296.431248 167.736066 
L 296.995169 166.901107 
L 297.55909 164.169413 
L 297.841051 166.194428 
L 298.686932 178.40281 
L 299.250853 181.816555 
L 299.532814 185.460797 
L 300.096735 195.949303 
L 301.224578 209.67419 
L 301.506538 211.372929 
L 301.788499 213.847264 
L 302.634381 227.943501 
L 302.916341 230.519615 
L 303.762223 244.407049 
L 304.326144 248.323066 
L 304.608105 245.063728 
L 304.890065 230.131525 
L 305.453986 166.840105 
L 306.299868 62.666567 
L 306.581829 42.388693 
L 306.863789 32.521045 
L 307.14575 29.470353 
L 307.42771 29.31128 
L 307.709671 30.099089 
L 307.991632 31.427289 
L 308.273592 33.517559 
L 308.555553 36.534525 
L 308.837513 40.763677 
L 309.119474 47.454075 
L 309.401435 58.401433 
L 309.965356 92.597541 
L 310.811238 153.220386 
L 311.093198 164.698274 
L 311.375159 168.723111 
L 311.657119 168.723841 
L 311.93908 167.533862 
L 312.784962 161.808821 
L 313.066922 161.958505 
L 313.630843 163.639736 
L 313.912804 163.862909 
L 314.194765 164.981772 
L 314.758686 170.555268 
L 315.040646 171.378176 
L 315.322607 171.315501 
L 315.604567 172.644216 
L 315.886528 174.653265 
L 316.168489 175.201172 
L 316.450449 175.102036 
L 316.73241 176.77216 
L 317.296331 181.672471 
L 317.578292 182.70592 
L 318.142213 186.420695 
L 318.424173 186.807796 
L 318.988095 183.972266 
L 319.270055 184.13297 
L 319.833976 186.498582 
L 320.115937 187.315646 
L 320.397897 189.669122 
L 322.653582 227.358803 
L 323.217503 237.715637 
L 323.781424 246.85526 
L 324.063385 246.040392 
L 324.345346 231.945488 
L 324.909267 167.053905 
L 325.755149 52.83183 
L 326.037109 35.508944 
L 326.31907 29.320603 
L 326.60103 27.796604 
L 326.882991 27.43889 
L 327.164952 27.550161 
L 327.446912 27.909314 
L 327.728873 28.751842 
L 328.010833 30.680252 
L 328.574754 36.966352 
L 328.856715 41.7604 
L 329.138676 49.234123 
L 329.702597 74.205584 
L 330.830439 136.337447 
L 331.39436 158.702386 
L 331.676321 165.859848 
L 331.958281 169.991525 
L 332.240242 171.448235 
L 332.522203 169.948915 
L 332.804163 166.667524 
L 333.086124 165.209977 
L 333.368084 167.623443 
L 333.650045 171.587071 
L 333.932006 173.919198 
L 334.495927 175.75488 
L 334.777887 177.611471 
L 335.059848 180.4784 
L 335.90573 193.552045 
L 336.469651 199.288563 
L 336.751611 203.202029 
L 337.033572 205.567354 
L 337.315533 206.858968 
L 337.597493 209.904262 
L 338.161414 218.304738 
L 339.007296 221.933777 
L 339.289257 222.536867 
L 339.571217 222.869921 
L 339.853178 225.160574 
L 341.262981 245.570678 
L 341.544941 241.902735 
L 341.826902 227.614032 
L 342.108863 200.280552 
L 343.236705 55.251308 
L 343.518666 43.685317 
L 343.800626 38.140861 
L 344.082587 36.144806 
L 344.364547 37.277778 
L 345.77435 48.295378 
L 346.056311 49.63911 
L 346.338271 54.013015 
L 346.620232 63.306127 
L 347.184153 92.274719 
L 348.030035 142.37243 
L 348.593956 165.628427 
L 349.157877 180.113866 
L 349.439838 183.58334 
L 349.721798 185.406673 
L 350.003759 185.86552 
L 350.28572 184.983278 
L 350.56768 183.618086 
L 350.849641 182.827145 
L 351.131601 182.386775 
L 351.413562 181.044314 
L 351.977483 176.527954 
L 352.259444 175.580704 
L 353.105325 174.015633 
L 354.515128 177.113318 
L 354.797089 176.514694 
L 355.07905 175.533593 
L 355.36101 175.731977 
L 355.642971 177.707045 
L 357.052774 191.542334 
L 357.898655 206.617336 
L 358.462577 216.679949 
L 360.718261 242.176203 
L 361.000222 232.592569 
L 361.282182 207.609019 
L 362.410025 53.356484 
L 362.691985 36.263596 
L 362.973946 29.258688 
L 363.255907 27.301107 
L 363.537867 28.42855 
L 364.665709 40.248493 
L 365.793552 59.863597 
L 366.639434 94.800815 
L 367.485315 129.186838 
L 368.049237 140.380043 
L 368.613158 151.915821 
L 369.177079 166.642981 
L 370.022961 181.322633 
L 370.868842 188.953032 
L 371.432764 196.619872 
L 371.714724 197.299667 
L 371.996685 198.296052 
L 372.278645 200.42051 
L 372.560606 201.09979 
L 373.124527 196.847411 
L 373.406488 196.528713 
L 373.970409 198.630625 
L 374.252369 200.60136 
L 375.944133 218.063741 
L 376.790015 234.249834 
L 377.071975 236.92479 
L 377.635896 246.659868 
L 377.917857 246.749321 
L 378.199818 235.255169 
L 378.481778 209.003509 
L 379.609621 61.227645 
L 379.891581 49.764834 
L 380.173542 44.101111 
L 380.455502 41.302853 
L 380.737463 41.516093 
L 381.301384 45.736007 
L 381.865305 48.179932 
L 382.147266 51.472687 
L 382.993148 68.06027 
L 383.275108 76.219818 
L 384.402951 120.878598 
L 385.248832 138.521825 
L 385.530793 142.632824 
L 386.376675 149.025784 
L 387.222556 161.670606 
L 387.786478 174.569947 
L 388.068438 177.105064 
L 388.632359 175.050962 
L 388.91432 176.197111 
L 389.19628 177.877911 
L 389.478241 178.349263 
L 389.760202 178.147582 
L 390.042162 178.947405 
L 390.606083 182.390409 
L 390.888044 182.302329 
L 391.170005 182.334696 
L 391.451965 184.431913 
L 391.733926 187.391458 
L 392.015886 188.573974 
L 392.297847 188.579979 
L 392.579808 190.297897 
L 393.425689 200.355397 
L 394.271571 208.412803 
L 394.553532 209.100033 
L 394.835492 210.39404 
L 395.399413 218.061273 
L 395.681374 221.776633 
L 396.245295 225.903955 
L 396.527256 230.483715 
L 397.091177 241.919085 
L 397.373137 242.904371 
L 397.655098 238.843571 
L 397.937059 224.569761 
L 398.219019 193.084064 
L 399.064901 69.73969 
L 399.346862 53.694515 
L 399.628822 46.337755 
L 399.910783 42.946663 
L 400.192743 42.98614 
L 400.756665 50.35242 
L 401.320586 55.941108 
L 401.602546 58.819434 
L 402.448428 75.159342 
L 402.730389 82.496359 
L 403.858231 122.223519 
L 404.704113 139.724795 
L 405.268034 150.538628 
L 405.549994 153.845666 
L 406.395876 159.316345 
L 406.677837 159.296643 
L 406.959797 158.721285 
L 407.241758 159.673569 
L 407.805679 165.694464 
L 408.08764 170.656705 
L 408.933522 191.14762 
L 409.779403 198.133377 
L 410.061364 200.314431 
L 410.625285 201.41042 
L 411.189206 206.180735 
L 411.471167 206.790168 
L 411.753127 206.160973 
L 412.035088 207.852099 
L 413.16293 226.046867 
L 414.008812 249.869457 
L 414.290773 252.333864 
L 414.572733 250.655543 
L 414.854694 239.528905 
L 415.136654 211.29773 
L 415.982536 83.750877 
L 416.264497 65.739623 
L 416.546457 57.351765 
L 416.828418 52.558342 
L 417.110379 51.021298 
L 417.6743 53.824996 
L 417.95626 55.306899 
L 418.238221 58.477711 
L 418.802142 67.589595 
L 419.366063 72.675945 
L 419.648024 78.218033 
L 420.775866 112.615853 
L 421.621748 135.798697 
L 421.903708 137.730788 
L 422.185669 138.080226 
L 422.46763 138.172665 
L 423.031551 137.430809 
L 423.595472 138.812586 
L 423.877433 137.97923 
L 424.159393 137.980505 
L 424.441354 141.636802 
L 425.287236 159.292417 
L 426.415078 176.528678 
L 426.978999 185.009178 
L 427.54292 193.962212 
L 428.388802 200.818492 
L 428.670763 202.550058 
L 428.952723 202.438729 
L 429.516644 200.249484 
L 429.798605 199.821064 
L 430.362526 198.180536 
L 430.644487 199.398838 
L 432.33625 219.536158 
L 433.182132 234.893924 
L 433.746053 246.040151 
L 434.028014 248.066709 
L 434.309974 242.462024 
L 434.591935 221.160318 
L 435.719777 73.698021 
L 436.283698 59.42065 
L 436.565659 54.161032 
L 436.84762 52.030481 
L 437.12958 52.934624 
L 437.411541 55.875523 
L 439.385265 85.061615 
L 439.949186 105.073411 
L 440.513107 121.076723 
L 441.358989 136.462635 
L 441.64095 138.863531 
L 441.92291 140.271425 
L 442.204871 140.739663 
L 442.486831 139.346498 
L 442.768792 136.764759 
L 443.050752 135.468616 
L 443.332713 136.699216 
L 444.178595 144.150737 
L 444.460555 146.481238 
L 445.024477 154.508004 
L 448.126043 213.222137 
L 448.689964 227.599786 
L 449.817806 241.642409 
L 450.099767 241.273066 
L 450.381728 241.384231 
L 450.663688 244.343869 
L 451.227609 254.016 
L 451.50957 251.407931 
L 451.791531 231.715152 
L 452.919373 87.410704 
L 453.201334 76.547262 
L 453.483294 70.298759 
L 453.765255 68.532389 
L 454.893097 76.405184 
L 455.457018 79.171437 
L 455.738979 81.42895 
L 456.020939 85.704409 
L 456.584861 102.345048 
L 457.148782 120.596763 
L 457.994663 137.072059 
L 458.276624 139.385342 
L 458.558585 139.151244 
L 458.840545 138.660595 
L 459.404466 139.960843 
L 459.968388 138.542697 
L 460.250348 139.881774 
L 460.814269 146.269185 
L 461.09623 148.232572 
L 461.378191 148.951935 
L 461.660151 149.147068 
L 461.942112 149.836822 
L 463.069954 156.615386 
L 463.633875 162.649251 
L 464.197796 164.83428 
L 464.761718 172.402467 
L 465.88956 185.970543 
L 466.453481 194.620119 
L 467.581323 207.844596 
L 468.709166 227.625103 
L 469.273087 232.958722 
L 470.118969 244.882809 
L 470.400929 245.847312 
L 470.68289 239.258865 
L 470.96485 216.065792 
L 471.810732 103.067052 
L 472.092693 88.940963 
L 472.656614 74.655258 
L 472.938575 70.184091 
L 473.220535 68.257957 
L 473.502496 68.034385 
L 473.784456 70.029958 
L 474.348377 76.956055 
L 474.630338 78.996181 
L 474.912299 82.837892 
L 477.167983 130.830202 
L 477.731905 134.81282 
L 478.013865 136.2087 
L 478.295826 136.907516 
L 478.859747 135.704163 
L 479.423668 138.093187 
L 479.987589 137.62122 
L 480.26955 139.800815 
L 480.55151 143.386275 
L 480.833471 145.545023 
L 481.115432 146.157236 
L 481.397392 148.051357 
L 482.243274 160.844309 
L 482.807195 163.811646 
L 483.371116 167.815354 
L 483.935037 169.773638 
L 484.216998 172.139728 
L 484.780919 178.213331 
L 485.34484 180.548649 
L 485.626801 183.126427 
L 487.036604 204.093798 
L 487.882486 222.265185 
L 488.446407 237.954271 
L 489.010328 247.416773 
L 489.292289 246.011769 
L 489.574249 227.429926 
L 490.420131 122.634102 
L 490.984052 102.182757 
L 491.266013 95.798417 
L 491.547973 92.917902 
L 491.829934 92.776458 
L 492.111894 92.496895 
L 492.393855 91.550441 
L 492.675816 91.104857 
L 492.957776 91.565815 
L 493.239737 93.166157 
L 493.803658 98.117637 
L 494.085619 101.543061 
L 494.367579 108.146882 
L 495.213461 132.904027 
L 495.777382 140.692062 
L 496.059343 140.910302 
L 496.341303 139.443531 
L 496.623264 138.745681 
L 496.905224 139.691981 
L 497.469146 142.976806 
L 497.751106 143.363176 
L 498.033067 143.213678 
L 498.315027 144.153806 
L 499.160909 150.647465 
L 499.44287 151.977331 
L 499.72483 152.748355 
L 500.006791 152.849055 
L 500.288751 154.013786 
L 500.570712 158.227372 
L 501.134633 168.720536 
L 501.698554 172.6029 
L 501.980515 173.696171 
L 502.544436 174.342373 
L 502.826397 176.392417 
L 503.390318 182.057601 
L 503.672278 184.022381 
L 503.954239 187.95039 
L 504.51816 199.335737 
L 506.209924 220.595818 
L 506.491884 217.042773 
L 506.773845 199.260433 
L 507.337766 143.934078 
L 507.619727 127.334952 
L 508.183648 111.720801 
L 508.465608 108.033572 
L 508.747569 107.297514 
L 509.02953 107.452343 
L 509.31149 107.240179 
L 509.593451 107.864608 
L 510.157372 111.147693 
L 510.439333 111.016887 
L 510.721293 110.618347 
L 511.003254 112.46533 
L 511.567175 124.79288 
L 511.849135 130.539024 
L 512.695017 139.24199 
L 513.258938 144.204905 
L 514.10482 148.472422 
L 514.386781 148.372936 
L 514.950702 146.048025 
L 515.232662 146.198869 
L 515.514623 146.065226 
L 516.078544 143.374279 
L 516.360505 143.865326 
L 516.642465 146.274726 
L 517.770308 160.571363 
L 518.052268 160.75324 
L 519.180111 158.824204 
L 519.462071 160.276607 
L 520.307953 172.235756 
L 520.871874 175.114449 
L 521.435795 178.150381 
L 521.999717 184.301517 
L 522.281677 187.231985 
L 522.563638 187.745979 
L 523.127559 185.337913 
L 523.409519 186.284213 
L 523.69148 188.727416 
L 524.255401 196.292883 
L 524.819322 206.19782 
L 525.101283 213.438709 
L 525.383244 217.08351 
L 525.665204 208.185017 
L 526.511086 146.523597 
L 527.356968 115.37406 
L 527.638928 109.090986 
L 528.202849 103.084385 
L 528.48481 102.151149 
L 529.048731 105.404544 
L 529.330692 105.581897 
L 529.612652 105.912268 
L 529.894613 108.233804 
L 530.458534 115.625433 
L 531.304416 131.554434 
L 532.432258 138.838374 
L 532.714219 138.462851 
L 532.996179 138.482399 
L 533.842061 143.509093 
L 534.687943 146.158065 
L 535.251864 146.18698 
L 535.533825 146.922657 
L 536.097746 150.449554 
L 537.789509 161.873759 
L 538.353431 167.545115 
L 538.635391 168.825099 
L 539.199312 169.771402 
L 539.763233 172.0685 
L 541.454997 181.431027 
L 541.736958 184.775887 
L 542.018918 186.741349 
L 542.300879 187.048873 
L 542.582839 188.912263 
L 543.428721 204.229838 
L 543.992642 214.675252 
L 544.274603 214.470071 
L 544.556563 200.384159 
L 545.120485 157.358359 
L 545.684406 134.285277 
L 546.248327 119.935495 
L 546.812248 115.885324 
L 547.094209 114.510618 
L 547.376169 114.411536 
L 547.65813 114.757113 
L 547.94009 114.712635 
L 548.222051 114.251347 
L 548.504012 112.845471 
L 548.785972 110.139144 
L 549.067933 108.823051 
L 549.349893 111.778842 
L 549.913815 122.84055 
L 550.477736 129.629124 
L 551.041657 138.0186 
L 552.169499 148.788673 
L 552.45146 148.893032 
L 552.73342 149.200761 
L 553.297342 152.037533 
L 553.579302 152.006715 
L 553.861263 151.70688 
L 554.143223 152.329919 
L 554.707145 154.069809 
L 554.989105 155.465123 
L 556.116947 164.802306 
L 556.398908 166.320625 
L 556.962829 167.683835 
L 557.808711 173.653864 
L 558.372632 174.849684 
L 559.500475 180.044111 
L 560.064396 185.751471 
L 560.910277 196.593125 
L 561.192238 197.388771 
L 561.474199 191.240878 
L 562.884002 121.663153 
L 563.165962 115.509928 
L 563.447923 114.440318 
L 563.729883 118.137733 
L 564.293804 127.824544 
L 564.575765 129.144534 
L 565.139686 127.96982 
L 565.421647 129.023806 
L 566.267529 134.542778 
L 566.83145 141.698318 
L 567.11341 142.959648 
L 567.395371 142.497409 
L 567.677332 143.394734 
L 568.241253 149.817795 
L 568.523213 151.329224 
L 568.805174 151.424386 
L 569.087134 150.65669 
L 569.369095 148.824582 
L 569.933016 143.640873 
L 570.214977 142.519818 
L 570.778898 141.542578 
L 571.060859 142.592956 
L 571.62478 148.63964 
L 571.90674 149.926689 
L 572.188701 150.422446 
L 572.752622 152.306604 
L 573.034583 152.320812 
L 573.316543 153.199393 
L 574.162425 161.806604 
L 575.008307 166.203221 
L 575.290267 166.200894 
L 575.572228 166.708386 
L 576.136149 170.939585 
L 576.70007 172.316585 
L 577.263991 176.43472 
L 577.545952 176.744115 
L 577.827913 177.549249 
L 578.391834 183.29811 
L 578.955755 184.486595 
L 579.237716 187.096209 
L 580.083597 199.515386 
L 580.365558 201.1119 
L 580.647518 194.532966 
L 581.775361 141.389844 
L 582.057321 132.761793 
L 582.339282 127.619029 
L 583.185164 118.678091 
L 583.467124 118.409568 
L 583.749085 119.306019 
L 584.313006 118.796188 
L 584.876927 122.676599 
L 585.158888 122.274364 
L 585.440848 119.978577 
L 585.722809 119.257811 
L 586.00477 121.812348 
L 586.568691 131.300468 
L 586.850651 134.118289 
L 588.260454 141.091274 
L 589.388297 149.557326 
L 589.952218 152.537475 
L 590.516139 156.172067 
L 590.7981 155.16375 
L 591.362021 148.78195 
L 591.643981 149.960704 
L 591.925942 152.626692 
L 592.207903 153.160186 
L 592.489863 152.791459 
L 592.771824 154.444608 
L 593.335745 161.248438 
L 594.181627 167.856182 
L 594.745548 169.192532 
L 595.59143 174.214546 
L 596.155351 177.699446 
L 596.437311 179.066507 
L 596.719272 182.161382 
L 597.283193 193.155732 
L 597.565154 196.437398 
L 597.847114 198.106591 
L 598.129075 197.78871 
L 598.411035 191.750932 
L 598.974957 161.496742 
L 599.538878 132.910697 
L 599.820838 124.940127 
L 600.102799 121.719962 
L 600.38476 121.657791 
L 600.66672 122.219507 
L 600.948681 123.412535 
L 601.512602 128.104742 
L 601.794562 128.748668 
L 602.076523 128.463624 
L 602.358484 128.381615 
L 602.922405 128.645494 
L 603.204365 130.905628 
L 604.050247 144.56938 
L 604.332208 145.07858 
L 604.896129 144.051373 
L 605.178089 143.751584 
L 605.742011 144.880314 
L 606.023971 144.939788 
L 606.305932 144.563131 
L 606.587892 145.337489 
L 607.151814 148.376776 
L 607.433774 148.70474 
L 607.715735 149.468592 
L 608.843577 156.582373 
L 609.125538 156.927119 
L 609.407498 156.74639 
L 609.689459 156.890464 
L 609.971419 158.720555 
L 610.535341 162.962122 
L 610.817301 162.520102 
L 611.099262 161.611722 
L 611.381222 161.50563 
L 611.663183 162.14285 
L 611.945144 161.981728 
L 612.227104 161.3562 
L 612.509065 161.551254 
L 613.354946 167.061609 
L 613.918868 167.08935 
L 614.200828 167.665296 
L 615.328671 174.300857 
L 615.610631 176.474367 
L 616.174552 183.746785 
L 616.738474 193.066715 
L 617.020434 194.719349 
L 617.302395 188.730312 
L 618.148276 150.389588 
L 618.712198 133.284711 
L 618.994158 128.12781 
L 619.276119 126.080703 
L 619.84004 124.724155 
L 620.122001 126.342604 
L 620.403961 128.751963 
L 620.685922 129.384818 
L 620.967882 127.8588 
L 621.249843 127.436636 
L 621.531803 127.950225 
L 621.813764 127.580055 
L 622.095725 126.033224 
L 622.377685 126.844429 
L 623.223567 136.935679 
L 624.351409 143.216527 
L 624.63337 143.089506 
L 624.915331 142.622345 
L 625.197291 142.911115 
L 625.479252 142.382369 
L 626.043173 139.135159 
L 626.325133 139.995965 
L 627.734936 153.981472 
L 628.016897 158.005848 
L 628.298858 159.222107 
L 628.580818 159.033215 
L 628.862779 158.239363 
L 629.4267 160.050322 
L 629.70866 161.997137 
L 630.272582 164.591181 
L 630.554542 164.67806 
L 631.118463 167.239016 
L 631.400424 169.744833 
L 631.682385 169.948929 
L 631.964345 171.187405 
L 632.246306 170.749069 
L 632.528266 173.295885 
L 632.810227 173.032426 
L 633.092188 178.87923 
L 633.092188 178.87923 
" clip-path="url(#pb9bc5961df)" style="fill: none; stroke: #1f77b4; stroke-width: 1.5; stroke-linecap: square"/>
   </g>
   <g id="patch_3">
    <path d="M 47.192188 266.112 
L 47.192188 0 
" style="fill: none; stroke: #000000; stroke-width: 0.8; stroke-linejoin: miter; stroke-linecap: square"/>
   </g>
   <g id="patch_4">
    <path d="M 660.992188 266.112 
L 660.992188 0 
" style="fill: none; stroke: #000000; stroke-width: 0.8; stroke-linejoin: miter; stroke-linecap: square"/>
   </g>
   <g id="patch_5">
    <path d="M 47.192188 266.112 
L 660.992188 266.112 
" style="fill: none; stroke: #000000; stroke-width: 0.8; stroke-linejoin: miter; stroke-linecap: square"/>
   </g>
   <g id="patch_6">
    <path d="M 47.192188 0 
L 660.992188 0 
" style="fill: none; stroke: #000000; stroke-width: 0.8; stroke-linejoin: miter; stroke-linecap: square"/>
   </g>
  </g>
 </g>
 <defs>
  <clipPath id="pb9bc5961df">
   <rect x="47.192188" y="0" width="613.8" height="266.112"/>
  </clipPath>
 </defs>
</svg>
