<?xml version="1.0" encoding="utf-8" standalone="no"?>
<!DOCTYPE svg PUBLIC "-//W3C//DTD SVG 1.1//EN"
  "http://www.w3.org/Graphics/SVG/1.1/DTD/svg11.dtd">
<svg xmlns:xlink="http://www.w3.org/1999/xlink" width="660.992188pt" height="282.790125pt" viewBox="0 0 660.992188 282.790125" xmlns="http://www.w3.org/2000/svg" version="1.1">
 <metadata>
  <rdf:RDF xmlns:dc="http://purl.org/dc/elements/1.1/" xmlns:cc="http://creativecommons.org/ns#" xmlns:rdf="http://www.w3.org/1999/02/22-rdf-syntax-ns#">
   <cc:Work>
    <dc:type rdf:resource="http://purl.org/dc/dcmitype/StillImage"/>
    <dc:date>2023-03-06T19:25:46.857972</dc:date>
    <dc:format>image/svg+xml</dc:format>
    <dc:creator>
     <cc:Agent>
      <dc:title>Matplotlib v3.6.3, https://matplotlib.org/</dc:title>
     </cc:Agent>
    </dc:creator>
   </cc:Work>
  </rdf:RDF>
 </metadata>
 <defs>
  <style type="text/css">*{stroke-linejoin: round; stroke-linecap: butt}</style>
 </defs>
 <g id="figure_1">
  <g id="patch_1">
   <path d="M -0 282.790125 
L 660.992188 282.790125 
L 660.992188 0 
L -0 0 
L -0 282.790125 
z
" style="fill: none"/>
  </g>
  <g id="axes_1">
   <g id="patch_2">
    <path d="M 47.192188 266.112 
L 660.992188 266.112 
L 660.992188 0 
L 47.192188 0 
L 47.192188 266.112 
z
" style="fill: none"/>
   </g>
   <g id="matplotlib.axis_1">
    <g id="xtick_1">
     <g id="line2d_1">
      <defs>
       <path id="md765df2518" d="M 0 0 
L 0 3.5 
" style="stroke: #000000; stroke-width: 0.8"/>
      </defs>
      <g>
       <use xlink:href="#md765df2518" x="75.092188" y="266.112" style="stroke: #000000; stroke-width: 0.8"/>
      </g>
     </g>
     <g id="text_1">
      <!-- 0 -->
      <g transform="translate(71.910938 280.710438) scale(0.1 -0.1)">
       <defs>
        <path id="DejaVuSans-30" d="M 2034 4250 
Q 1547 4250 1301 3770 
Q 1056 3291 1056 2328 
Q 1056 1369 1301 889 
Q 1547 409 2034 409 
Q 2525 409 2770 889 
Q 3016 1369 3016 2328 
Q 3016 3291 2770 3770 
Q 2525 4250 2034 4250 
z
M 2034 4750 
Q 2819 4750 3233 4129 
Q 3647 3509 3647 2328 
Q 3647 1150 3233 529 
Q 2819 -91 2034 -91 
Q 1250 -91 836 529 
Q 422 1150 422 2328 
Q 422 3509 836 4129 
Q 1250 4750 2034 4750 
z
" transform="scale(0.015625)"/>
       </defs>
       <use xlink:href="#DejaVuSans-30"/>
      </g>
     </g>
    </g>
    <g id="xtick_2">
     <g id="line2d_2">
      <g>
       <use xlink:href="#md765df2518" x="144.842188" y="266.112" style="stroke: #000000; stroke-width: 0.8"/>
      </g>
     </g>
     <g id="text_2">
      <!-- 500 -->
      <g transform="translate(135.298438 280.710438) scale(0.1 -0.1)">
       <defs>
        <path id="DejaVuSans-35" d="M 691 4666 
L 3169 4666 
L 3169 4134 
L 1269 4134 
L 1269 2991 
Q 1406 3038 1543 3061 
Q 1681 3084 1819 3084 
Q 2600 3084 3056 2656 
Q 3513 2228 3513 1497 
Q 3513 744 3044 326 
Q 2575 -91 1722 -91 
Q 1428 -91 1123 -41 
Q 819 9 494 109 
L 494 744 
Q 775 591 1075 516 
Q 1375 441 1709 441 
Q 2250 441 2565 725 
Q 2881 1009 2881 1497 
Q 2881 1984 2565 2268 
Q 2250 2553 1709 2553 
Q 1456 2553 1204 2497 
Q 953 2441 691 2322 
L 691 4666 
z
" transform="scale(0.015625)"/>
       </defs>
       <use xlink:href="#DejaVuSans-35"/>
       <use xlink:href="#DejaVuSans-30" x="63.623047"/>
       <use xlink:href="#DejaVuSans-30" x="127.246094"/>
      </g>
     </g>
    </g>
    <g id="xtick_3">
     <g id="line2d_3">
      <g>
       <use xlink:href="#md765df2518" x="214.592188" y="266.112" style="stroke: #000000; stroke-width: 0.8"/>
      </g>
     </g>
     <g id="text_3">
      <!-- 1000 -->
      <g transform="translate(201.867188 280.710438) scale(0.1 -0.1)">
       <defs>
        <path id="DejaVuSans-31" d="M 794 531 
L 1825 531 
L 1825 4091 
L 703 3866 
L 703 4441 
L 1819 4666 
L 2450 4666 
L 2450 531 
L 3481 531 
L 3481 0 
L 794 0 
L 794 531 
z
" transform="scale(0.015625)"/>
       </defs>
       <use xlink:href="#DejaVuSans-31"/>
       <use xlink:href="#DejaVuSans-30" x="63.623047"/>
       <use xlink:href="#DejaVuSans-30" x="127.246094"/>
       <use xlink:href="#DejaVuSans-30" x="190.869141"/>
      </g>
     </g>
    </g>
    <g id="xtick_4">
     <g id="line2d_4">
      <g>
       <use xlink:href="#md765df2518" x="284.342188" y="266.112" style="stroke: #000000; stroke-width: 0.8"/>
      </g>
     </g>
     <g id="text_4">
      <!-- 1500 -->
      <g transform="translate(271.617188 280.710438) scale(0.1 -0.1)">
       <use xlink:href="#DejaVuSans-31"/>
       <use xlink:href="#DejaVuSans-35" x="63.623047"/>
       <use xlink:href="#DejaVuSans-30" x="127.246094"/>
       <use xlink:href="#DejaVuSans-30" x="190.869141"/>
      </g>
     </g>
    </g>
    <g id="xtick_5">
     <g id="line2d_5">
      <g>
       <use xlink:href="#md765df2518" x="354.092188" y="266.112" style="stroke: #000000; stroke-width: 0.8"/>
      </g>
     </g>
     <g id="text_5">
      <!-- 2000 -->
      <g transform="translate(341.367188 280.710438) scale(0.1 -0.1)">
       <defs>
        <path id="DejaVuSans-32" d="M 1228 531 
L 3431 531 
L 3431 0 
L 469 0 
L 469 531 
Q 828 903 1448 1529 
Q 2069 2156 2228 2338 
Q 2531 2678 2651 2914 
Q 2772 3150 2772 3378 
Q 2772 3750 2511 3984 
Q 2250 4219 1831 4219 
Q 1534 4219 1204 4116 
Q 875 4013 500 3803 
L 500 4441 
Q 881 4594 1212 4672 
Q 1544 4750 1819 4750 
Q 2544 4750 2975 4387 
Q 3406 4025 3406 3419 
Q 3406 3131 3298 2873 
Q 3191 2616 2906 2266 
Q 2828 2175 2409 1742 
Q 1991 1309 1228 531 
z
" transform="scale(0.015625)"/>
       </defs>
       <use xlink:href="#DejaVuSans-32"/>
       <use xlink:href="#DejaVuSans-30" x="63.623047"/>
       <use xlink:href="#DejaVuSans-30" x="127.246094"/>
       <use xlink:href="#DejaVuSans-30" x="190.869141"/>
      </g>
     </g>
    </g>
    <g id="xtick_6">
     <g id="line2d_6">
      <g>
       <use xlink:href="#md765df2518" x="423.842188" y="266.112" style="stroke: #000000; stroke-width: 0.8"/>
      </g>
     </g>
     <g id="text_6">
      <!-- 2500 -->
      <g transform="translate(411.117188 280.710438) scale(0.1 -0.1)">
       <use xlink:href="#DejaVuSans-32"/>
       <use xlink:href="#DejaVuSans-35" x="63.623047"/>
       <use xlink:href="#DejaVuSans-30" x="127.246094"/>
       <use xlink:href="#DejaVuSans-30" x="190.869141"/>
      </g>
     </g>
    </g>
    <g id="xtick_7">
     <g id="line2d_7">
      <g>
       <use xlink:href="#md765df2518" x="493.592188" y="266.112" style="stroke: #000000; stroke-width: 0.8"/>
      </g>
     </g>
     <g id="text_7">
      <!-- 3000 -->
      <g transform="translate(480.867188 280.710438) scale(0.1 -0.1)">
       <defs>
        <path id="DejaVuSans-33" d="M 2597 2516 
Q 3050 2419 3304 2112 
Q 3559 1806 3559 1356 
Q 3559 666 3084 287 
Q 2609 -91 1734 -91 
Q 1441 -91 1130 -33 
Q 819 25 488 141 
L 488 750 
Q 750 597 1062 519 
Q 1375 441 1716 441 
Q 2309 441 2620 675 
Q 2931 909 2931 1356 
Q 2931 1769 2642 2001 
Q 2353 2234 1838 2234 
L 1294 2234 
L 1294 2753 
L 1863 2753 
Q 2328 2753 2575 2939 
Q 2822 3125 2822 3475 
Q 2822 3834 2567 4026 
Q 2313 4219 1838 4219 
Q 1578 4219 1281 4162 
Q 984 4106 628 3988 
L 628 4550 
Q 988 4650 1302 4700 
Q 1616 4750 1894 4750 
Q 2613 4750 3031 4423 
Q 3450 4097 3450 3541 
Q 3450 3153 3228 2886 
Q 3006 2619 2597 2516 
z
" transform="scale(0.015625)"/>
       </defs>
       <use xlink:href="#DejaVuSans-33"/>
       <use xlink:href="#DejaVuSans-30" x="63.623047"/>
       <use xlink:href="#DejaVuSans-30" x="127.246094"/>
       <use xlink:href="#DejaVuSans-30" x="190.869141"/>
      </g>
     </g>
    </g>
    <g id="xtick_8">
     <g id="line2d_8">
      <g>
       <use xlink:href="#md765df2518" x="563.342188" y="266.112" style="stroke: #000000; stroke-width: 0.8"/>
      </g>
     </g>
     <g id="text_8">
      <!-- 3500 -->
      <g transform="translate(550.617188 280.710438) scale(0.1 -0.1)">
       <use xlink:href="#DejaVuSans-33"/>
       <use xlink:href="#DejaVuSans-35" x="63.623047"/>
       <use xlink:href="#DejaVuSans-30" x="127.246094"/>
       <use xlink:href="#DejaVuSans-30" x="190.869141"/>
      </g>
     </g>
    </g>
    <g id="xtick_9">
     <g id="line2d_9">
      <g>
       <use xlink:href="#md765df2518" x="633.092188" y="266.112" style="stroke: #000000; stroke-width: 0.8"/>
      </g>
     </g>
     <g id="text_9">
      <!-- 4000 -->
      <g transform="translate(620.367188 280.710438) scale(0.1 -0.1)">
       <defs>
        <path id="DejaVuSans-34" d="M 2419 4116 
L 825 1625 
L 2419 1625 
L 2419 4116 
z
M 2253 4666 
L 3047 4666 
L 3047 1625 
L 3713 1625 
L 3713 1100 
L 3047 1100 
L 3047 0 
L 2419 0 
L 2419 1100 
L 313 1100 
L 313 1709 
L 2253 4666 
z
" transform="scale(0.015625)"/>
       </defs>
       <use xlink:href="#DejaVuSans-34"/>
       <use xlink:href="#DejaVuSans-30" x="63.623047"/>
       <use xlink:href="#DejaVuSans-30" x="127.246094"/>
       <use xlink:href="#DejaVuSans-30" x="190.869141"/>
      </g>
     </g>
    </g>
   </g>
   <g id="matplotlib.axis_2">
    <g id="ytick_1">
     <g id="line2d_10">
      <defs>
       <path id="m97a4bbd2e2" d="M 0 0 
L -3.5 0 
" style="stroke: #000000; stroke-width: 0.8"/>
      </defs>
      <g>
       <use xlink:href="#m97a4bbd2e2" x="47.192188" y="234.270684" style="stroke: #000000; stroke-width: 0.8"/>
      </g>
     </g>
     <g id="text_10">
      <!-- −10000 -->
      <g transform="translate(0 238.069903) scale(0.1 -0.1)">
       <defs>
        <path id="DejaVuSans-2212" d="M 678 2272 
L 4684 2272 
L 4684 1741 
L 678 1741 
L 678 2272 
z
" transform="scale(0.015625)"/>
       </defs>
       <use xlink:href="#DejaVuSans-2212"/>
       <use xlink:href="#DejaVuSans-31" x="83.789062"/>
       <use xlink:href="#DejaVuSans-30" x="147.412109"/>
       <use xlink:href="#DejaVuSans-30" x="211.035156"/>
       <use xlink:href="#DejaVuSans-30" x="274.658203"/>
       <use xlink:href="#DejaVuSans-30" x="338.28125"/>
      </g>
     </g>
    </g>
    <g id="ytick_2">
     <g id="line2d_11">
      <g>
       <use xlink:href="#m97a4bbd2e2" x="47.192188" y="192.549713" style="stroke: #000000; stroke-width: 0.8"/>
      </g>
     </g>
     <g id="text_11">
      <!-- −5000 -->
      <g transform="translate(6.3625 196.348932) scale(0.1 -0.1)">
       <use xlink:href="#DejaVuSans-2212"/>
       <use xlink:href="#DejaVuSans-35" x="83.789062"/>
       <use xlink:href="#DejaVuSans-30" x="147.412109"/>
       <use xlink:href="#DejaVuSans-30" x="211.035156"/>
       <use xlink:href="#DejaVuSans-30" x="274.658203"/>
      </g>
     </g>
    </g>
    <g id="ytick_3">
     <g id="line2d_12">
      <g>
       <use xlink:href="#m97a4bbd2e2" x="47.192188" y="150.828741" style="stroke: #000000; stroke-width: 0.8"/>
      </g>
     </g>
     <g id="text_12">
      <!-- 0 -->
      <g transform="translate(33.829688 154.62796) scale(0.1 -0.1)">
       <use xlink:href="#DejaVuSans-30"/>
      </g>
     </g>
    </g>
    <g id="ytick_4">
     <g id="line2d_13">
      <g>
       <use xlink:href="#m97a4bbd2e2" x="47.192188" y="109.10777" style="stroke: #000000; stroke-width: 0.8"/>
      </g>
     </g>
     <g id="text_13">
      <!-- 5000 -->
      <g transform="translate(14.742188 112.906988) scale(0.1 -0.1)">
       <use xlink:href="#DejaVuSans-35"/>
       <use xlink:href="#DejaVuSans-30" x="63.623047"/>
       <use xlink:href="#DejaVuSans-30" x="127.246094"/>
       <use xlink:href="#DejaVuSans-30" x="190.869141"/>
      </g>
     </g>
    </g>
    <g id="ytick_5">
     <g id="line2d_14">
      <g>
       <use xlink:href="#m97a4bbd2e2" x="47.192188" y="67.386798" style="stroke: #000000; stroke-width: 0.8"/>
      </g>
     </g>
     <g id="text_14">
      <!-- 10000 -->
      <g transform="translate(8.379688 71.186017) scale(0.1 -0.1)">
       <use xlink:href="#DejaVuSans-31"/>
       <use xlink:href="#DejaVuSans-30" x="63.623047"/>
       <use xlink:href="#DejaVuSans-30" x="127.246094"/>
       <use xlink:href="#DejaVuSans-30" x="190.869141"/>
       <use xlink:href="#DejaVuSans-30" x="254.492188"/>
      </g>
     </g>
    </g>
    <g id="ytick_6">
     <g id="line2d_15">
      <g>
       <use xlink:href="#m97a4bbd2e2" x="47.192188" y="25.665827" style="stroke: #000000; stroke-width: 0.8"/>
      </g>
     </g>
     <g id="text_15">
      <!-- 15000 -->
      <g transform="translate(8.379688 29.465045) scale(0.1 -0.1)">
       <use xlink:href="#DejaVuSans-31"/>
       <use xlink:href="#DejaVuSans-35" x="63.623047"/>
       <use xlink:href="#DejaVuSans-30" x="127.246094"/>
       <use xlink:href="#DejaVuSans-30" x="190.869141"/>
       <use xlink:href="#DejaVuSans-30" x="254.492188"/>
      </g>
     </g>
    </g>
   </g>
   <g id="line2d_16">
    <path d="M 75.092188 150.848872 
L 75.938069 150.809544 
L 76.783951 150.847452 
L 77.629833 150.810161 
L 78.475715 150.847506 
L 79.321596 150.809484 
L 80.167478 150.84882 
L 81.01336 150.807452 
L 81.859242 150.851731 
L 82.705123 150.803382 
L 83.551005 150.857454 
L 83.832966 150.798604 
L 84.114926 150.860505 
L 84.396887 150.795107 
L 84.678847 150.864543 
L 84.960808 150.790404 
L 85.242769 150.870079 
L 85.524729 150.783803 
L 85.80669 150.878069 
L 86.08865 150.773952 
L 86.370611 150.8905 
L 86.652572 150.7578 
L 86.934532 150.912311 
L 87.216493 150.726742 
L 87.498453 150.96011 
L 87.780414 150.643204 
L 88.062374 151.149032 
L 88.344335 149.226593 
L 88.626296 150.036817 
L 88.908256 150.252861 
L 89.190217 149.297296 
L 89.472177 152.286703 
L 89.754138 154.080932 
L 90.036099 154.170925 
L 90.60002 156.11679 
L 90.88198 153.698899 
L 91.163941 149.267151 
L 91.445901 146.948371 
L 91.727862 147.352139 
L 92.291783 148.774437 
L 92.573744 150.445497 
L 92.855704 153.022824 
L 93.137665 153.802188 
L 93.701586 150.408858 
L 93.983547 150.708732 
L 94.265507 152.074089 
L 94.547468 152.843085 
L 94.829429 152.765189 
L 95.111389 153.107496 
L 95.67531 155.176568 
L 96.521192 156.573444 
L 96.803153 156.406886 
L 97.085113 155.27871 
L 97.367074 152.20502 
L 97.649034 144.939607 
L 98.494916 114.254974 
L 99.058837 101.003108 
L 99.904719 91.204019 
L 100.18668 89.285557 
L 100.46864 90.201615 
L 100.750601 92.735692 
L 101.032561 96.753576 
L 101.596483 109.494131 
L 101.878443 117.341221 
L 102.724325 148.396419 
L 103.288246 163.142603 
L 103.570207 171.734117 
L 103.852167 176.469064 
L 105.26197 186.310028 
L 105.543931 187.039865 
L 105.825891 188.403109 
L 106.389813 194.941142 
L 106.671773 195.178043 
L 106.953734 194.530295 
L 107.235694 194.844315 
L 107.517655 194.813826 
L 107.799615 193.353398 
L 108.363537 188.923758 
L 108.927458 183.141158 
L 109.209418 181.809 
L 109.491379 183.118786 
L 109.77334 185.736631 
L 110.0553 187.07937 
L 110.337261 187.421771 
L 110.619221 187.959173 
L 110.901182 186.081236 
L 111.183143 178.735368 
L 111.747064 155.642797 
L 112.592945 112.073247 
L 113.156867 98.052048 
L 113.438827 94.027653 
L 113.720788 92.739433 
L 114.002748 94.085264 
L 114.56667 101.616241 
L 114.84863 106.139908 
L 115.130591 113.548534 
L 116.258433 164.581212 
L 116.540394 166.974786 
L 117.386275 165.006906 
L 117.950197 161.054632 
L 118.232157 161.45834 
L 118.514118 162.829565 
L 118.796078 163.293893 
L 119.078039 164.0899 
L 119.923921 170.169744 
L 120.487842 171.681644 
L 120.769802 173.805395 
L 121.333724 179.226121 
L 122.179605 184.11708 
L 122.461566 184.721555 
L 123.025487 189.496899 
L 123.307448 188.783678 
L 123.589408 185.902988 
L 123.871369 185.915162 
L 124.153329 187.479164 
L 124.43529 184.499408 
L 124.999211 167.529713 
L 125.281172 155.558899 
L 126.127054 101.43452 
L 126.690975 85.990442 
L 126.972935 81.204735 
L 127.254896 80.155681 
L 127.536857 82.492571 
L 128.100778 90.2438 
L 128.382738 95.583319 
L 128.664699 103.843294 
L 129.22862 133.931531 
L 129.792541 161.096469 
L 130.074502 167.725157 
L 130.356462 171.323127 
L 130.920384 174.516699 
L 131.202344 175.477634 
L 131.484305 175.380734 
L 131.766265 174.862966 
L 132.048226 175.236833 
L 133.176068 180.120524 
L 133.739989 177.83377 
L 134.02195 176.130631 
L 134.585871 170.199303 
L 134.867832 169.311229 
L 135.149792 169.110387 
L 135.431753 168.573631 
L 135.995674 169.318281 
L 136.559595 167.249738 
L 137.123516 172.564884 
L 137.405477 173.346096 
L 137.969398 173.670257 
L 138.251359 170.622134 
L 138.81528 151.820112 
L 139.661162 121.00607 
L 139.943122 113.441797 
L 140.225083 109.324015 
L 140.507043 108.494876 
L 141.070965 107.655255 
L 141.352925 109.732568 
L 141.634886 113.846903 
L 142.198807 118.717753 
L 142.480768 127.31457 
L 143.044689 153.634385 
L 144.172531 176.924224 
L 144.454492 176.569158 
L 144.736452 173.670921 
L 145.018413 172.609502 
L 145.300373 171.99791 
L 145.582334 168.099579 
L 145.864295 162.64957 
L 146.146255 160.215259 
L 146.428216 161.014117 
L 147.274098 164.798629 
L 148.119979 170.531634 
L 148.40194 173.098565 
L 148.6839 174.178772 
L 148.965861 173.957807 
L 149.247822 174.311413 
L 149.529782 174.156126 
L 149.811743 170.902161 
L 150.375664 163.009365 
L 150.657625 158.838212 
L 151.221546 138.144416 
L 151.785467 111.501562 
L 152.349388 76.281622 
L 152.913309 55.763736 
L 153.47723 42.754246 
L 153.759191 41.111141 
L 154.041152 42.20866 
L 154.323112 46.9215 
L 155.168994 68.465115 
L 155.732915 93.468271 
L 156.296836 122.803847 
L 156.578797 132.218003 
L 156.860757 134.32121 
L 157.142718 134.434371 
L 157.706639 139.523437 
L 158.27056 131.879419 
L 158.552521 130.83523 
L 158.834482 131.258123 
L 159.116442 132.654587 
L 159.962324 146.53623 
L 161.936048 189.921613 
L 162.218009 195.629488 
L 162.78193 211.722203 
L 163.627812 225.616187 
L 163.909772 225.168493 
L 164.191733 223.973344 
L 164.473693 225.349469 
L 164.755654 224.584589 
L 165.037614 217.646903 
L 166.165457 177.425478 
L 167.011339 127.109783 
L 167.85722 93.271028 
L 168.139181 89.143505 
L 168.703102 90.604093 
L 168.985063 92.509295 
L 169.267023 101.337661 
L 170.394866 161.952234 
L 170.676826 170.139364 
L 170.958787 173.923138 
L 171.522708 176.653344 
L 172.086629 177.219697 
L 172.36859 178.710277 
L 172.65055 179.590446 
L 173.214471 174.839929 
L 173.778393 174.449588 
L 174.342314 169.868715 
L 174.624274 169.856687 
L 174.906235 168.749519 
L 175.188196 166.770059 
L 175.470156 167.430871 
L 175.752117 169.787492 
L 176.316038 170.940705 
L 178.289762 190.803293 
L 178.571723 190.80362 
L 178.853683 186.457459 
L 179.417604 170.39949 
L 179.981526 141.156448 
L 180.827407 95.440178 
L 181.391328 74.048794 
L 181.673289 68.048797 
L 181.95525 65.835785 
L 182.23721 67.093655 
L 182.519171 71.244181 
L 183.083092 88.185204 
L 183.647013 113.209853 
L 184.492895 163.948497 
L 184.774856 167.560437 
L 185.056816 166.88566 
L 185.620737 161.411385 
L 185.902698 161.007958 
L 186.184658 163.6768 
L 186.466619 164.854075 
L 186.74858 164.994442 
L 187.03054 169.214723 
L 187.312501 175.13461 
L 187.594461 176.499995 
L 187.876422 175.916244 
L 188.440343 181.719573 
L 188.722304 181.553661 
L 189.004264 181.695193 
L 189.286225 183.992504 
L 189.568185 184.872563 
L 189.850146 183.592292 
L 190.132107 183.088011 
L 190.414067 183.632087 
L 190.696028 183.705237 
L 190.977988 183.462333 
L 191.54191 183.350519 
L 191.82387 183.677125 
L 192.105831 184.615705 
L 192.669752 188.58569 
L 192.951713 187.359493 
L 193.233673 178.640278 
L 194.079555 131.117047 
L 194.643476 91.781926 
L 194.925437 79.465366 
L 195.207397 73.047877 
L 195.489358 69.431435 
L 195.771318 68.53421 
L 196.053279 70.667584 
L 196.33524 74.890992 
L 196.6172 81.882168 
L 197.181121 106.718627 
L 198.308964 174.608625 
L 198.590924 180.120565 
L 198.872885 181.251461 
L 199.154845 179.591975 
L 200.000727 168.079168 
L 200.282688 165.548433 
L 201.12857 161.297934 
L 202.256412 152.240557 
L 202.538372 155.938553 
L 202.820333 162.397382 
L 203.102294 164.039978 
L 203.384254 162.528861 
L 203.666215 166.163585 
L 203.948175 173.191022 
L 204.230136 174.978027 
L 204.512097 172.844508 
L 204.794057 173.79723 
L 205.076018 175.854786 
L 205.639939 171.449284 
L 205.921899 171.431533 
L 206.20386 169.584138 
L 206.767781 159.04861 
L 207.049742 155.75988 
L 207.331702 148.60433 
L 208.177584 117.157269 
L 209.023466 89.590089 
L 209.305427 91.160954 
L 209.587387 95.422392 
L 209.869348 96.861703 
L 210.151308 97.380518 
L 210.715229 101.628448 
L 210.99719 102.928903 
L 211.279151 110.126046 
L 212.406993 165.83358 
L 212.688954 171.407238 
L 212.970914 172.726898 
L 213.252875 172.522438 
L 213.534835 171.944982 
L 213.816796 170.7694 
L 214.098756 170.902807 
L 214.380717 172.302983 
L 214.662678 171.105214 
L 215.226599 164.191772 
L 215.508559 162.506847 
L 216.072481 156.660065 
L 216.354441 155.953292 
L 216.636402 154.536245 
L 217.200323 148.684157 
L 217.482284 147.598261 
L 218.046205 143.015166 
L 218.328165 142.562895 
L 218.610126 142.463058 
L 219.174047 138.446431 
L 219.456008 139.308371 
L 220.301889 149.881922 
L 220.58385 150.460299 
L 221.147771 146.814057 
L 221.429732 142.831106 
L 221.711692 132.516077 
L 222.557574 93.365595 
L 223.121495 67.214703 
L 223.403456 63.215311 
L 223.967377 67.760238 
L 224.249338 68.516852 
L 224.531298 73.949066 
L 225.095219 92.448624 
L 225.37718 105.309844 
L 225.941101 141.389776 
L 226.786983 171.564307 
L 227.068943 175.218552 
L 227.350904 170.833054 
L 227.632865 168.533572 
L 228.196786 174.14607 
L 228.478746 175.703539 
L 229.324628 190.746604 
L 230.17051 199.841363 
L 230.45247 199.473323 
L 231.016392 200.437951 
L 231.298352 199.476509 
L 231.580313 199.430081 
L 231.862273 199.195216 
L 232.426195 193.369071 
L 232.708155 196.892323 
L 232.990116 202.643694 
L 233.554037 207.630356 
L 234.117958 220.275128 
L 234.399919 222.306995 
L 234.681879 220.142017 
L 234.96384 215.101357 
L 235.527761 198.996893 
L 235.809722 189.392369 
L 236.091682 174.677408 
L 236.937564 111.612375 
L 237.783446 75.199061 
L 238.065406 67.392712 
L 238.347367 64.601288 
L 238.629327 64.753464 
L 238.911288 67.400138 
L 239.193249 74.247377 
L 239.475209 86.578068 
L 240.603052 154.861498 
L 241.448933 167.884338 
L 241.730894 167.968686 
L 242.012855 166.163234 
L 242.294815 165.831575 
L 242.576776 167.4818 
L 242.858736 171.69689 
L 243.422657 183.246269 
L 243.986579 187.855362 
L 244.268539 190.8577 
L 244.5505 188.832521 
L 244.83246 182.633432 
L 245.114421 179.648928 
L 245.678342 182.627137 
L 245.960303 183.453648 
L 246.242263 184.974118 
L 246.524224 184.196746 
L 246.806184 180.42435 
L 247.088145 179.413723 
L 247.652066 186.878842 
L 247.934027 188.213707 
L 248.215987 192.679998 
L 248.497948 201.216066 
L 248.779909 205.852898 
L 249.061869 201.559892 
L 249.907751 176.4155 
L 251.317554 73.619458 
L 251.599514 58.660188 
L 251.881475 53.139616 
L 252.445396 63.348931 
L 252.727357 63.170613 
L 253.009317 62.773569 
L 253.291278 68.797189 
L 253.855199 96.005264 
L 254.701081 149.384711 
L 254.983041 156.403905 
L 255.546963 162.334308 
L 255.828923 162.825027 
L 256.110884 161.631525 
L 256.392844 161.975247 
L 257.520687 170.316961 
L 258.084608 176.161371 
L 258.366569 177.861722 
L 258.93049 177.583138 
L 259.494411 180.73326 
L 259.776371 180.068292 
L 260.058332 181.006054 
L 260.904214 197.105452 
L 261.186174 195.789874 
L 261.468135 193.630582 
L 261.750096 193.375974 
L 262.032056 193.872995 
L 262.595977 189.995996 
L 262.877938 193.648545 
L 263.159898 201.648001 
L 263.441859 204.953403 
L 264.00578 196.680278 
L 264.287741 189.998767 
L 264.569701 174.43254 
L 265.133623 133.95448 
L 265.979504 89.124663 
L 266.261465 83.70744 
L 266.543425 85.105821 
L 267.107347 90.349142 
L 267.389307 95.970668 
L 267.671268 105.59836 
L 268.51715 155.575089 
L 268.79911 159.365838 
L 269.081071 159.426119 
L 269.644992 165.382584 
L 269.926953 162.949584 
L 270.208913 158.389527 
L 270.490874 155.802898 
L 270.772834 155.32294 
L 271.054795 155.90909 
L 271.336755 156.052252 
L 271.618716 154.826119 
L 271.900677 155.242664 
L 272.464598 166.430309 
L 272.746558 168.147206 
L 273.028519 167.021212 
L 273.31048 167.231355 
L 273.874401 169.366612 
L 274.438322 170.731208 
L 274.720282 169.237773 
L 275.002243 167.1255 
L 275.284204 167.351258 
L 275.566164 168.137921 
L 275.848125 165.103885 
L 276.130085 159.599844 
L 276.412046 157.40366 
L 276.975967 160.90597 
L 277.257928 159.380512 
L 277.539888 155.983573 
L 278.10381 144.424306 
L 278.667731 125.376666 
L 279.513612 86.215105 
L 280.077534 67.878566 
L 280.359494 64.195593 
L 280.641455 64.219964 
L 280.923415 64.465884 
L 281.205376 66.086085 
L 281.487337 72.175448 
L 282.333218 99.906735 
L 282.615179 105.724656 
L 282.897139 106.672995 
L 283.461061 103.719603 
L 283.743021 102.626827 
L 284.306942 98.09247 
L 284.870864 103.501811 
L 285.152824 103.034038 
L 285.434785 101.138452 
L 285.716745 101.827727 
L 286.280667 105.358527 
L 286.562627 109.507393 
L 287.408509 133.800151 
L 287.97243 148.131418 
L 289.100272 181.630376 
L 289.664194 199.76069 
L 290.228115 210.851595 
L 290.792036 225.09219 
L 291.073996 229.029222 
L 291.355957 230.488866 
L 291.637918 228.336467 
L 292.201839 217.446132 
L 292.483799 208.258608 
L 294.175563 112.135491 
L 294.457524 99.95087 
L 294.739484 94.290553 
L 295.021445 92.570262 
L 295.303405 93.217687 
L 295.585366 95.540239 
L 295.867326 100.97759 
L 296.149287 113.258049 
L 296.995169 163.232676 
L 297.55909 175.881889 
L 298.123011 184.887049 
L 298.404972 187.640957 
L 298.686932 187.619695 
L 298.968893 186.573873 
L 299.250853 186.513939 
L 299.532814 187.265409 
L 299.814775 189.232263 
L 300.378696 197.588164 
L 300.660656 198.337735 
L 300.942617 197.761187 
L 301.224578 198.802311 
L 301.506538 198.830626 
L 302.070459 193.025666 
L 302.35242 195.005268 
L 302.916341 201.896759 
L 303.480262 206.18528 
L 303.762223 207.82423 
L 304.044183 211.260271 
L 304.608105 220.858271 
L 305.172026 226.391128 
L 305.453986 226.219154 
L 306.017908 218.569711 
L 306.299868 212.445636 
L 306.581829 200.032952 
L 307.14575 156.014655 
L 307.709671 112.388545 
L 308.837513 58.047111 
L 309.401435 42.647955 
L 309.683395 37.93153 
L 309.965356 35.900668 
L 310.247316 40.143688 
L 310.529277 53.577858 
L 311.375159 115.418552 
L 311.93908 134.165418 
L 312.22104 137.569104 
L 312.784962 139.996601 
L 313.348883 145.437949 
L 314.476725 160.99602 
L 315.040646 166.088788 
L 315.322607 169.540658 
L 317.578292 208.466584 
L 318.142213 215.907078 
L 318.706134 223.320469 
L 319.270055 228.681249 
L 319.552016 229.762438 
L 319.833976 227.747238 
L 320.115937 220.056768 
L 320.679858 186.190331 
L 321.243779 130.968648 
L 321.8077 76.952171 
L 322.653582 24.938502 
L 322.935543 19.035097 
L 323.217503 19.072314 
L 323.499464 21.366337 
L 323.781424 28.702794 
L 324.345346 60.122695 
L 324.909267 110.225712 
L 325.473188 155.730313 
L 326.037109 180.162817 
L 326.31907 188.99078 
L 326.882991 196.058769 
L 327.446912 202.637708 
L 327.728873 203.338292 
L 328.010833 205.108147 
L 328.292794 208.083118 
L 328.574754 208.268932 
L 328.856715 206.53507 
L 329.138676 209.045661 
L 329.420636 215.328659 
L 329.702597 217.656539 
L 330.548479 206.747413 
L 331.39436 186.555217 
L 331.676321 185.347975 
L 331.958281 185.972147 
L 332.240242 188.43881 
L 332.804163 194.873577 
L 333.368084 198.95031 
L 333.650045 198.493449 
L 333.932006 191.981867 
L 334.777887 162.400103 
L 335.90573 101.352483 
L 336.469651 81.222608 
L 337.033572 69.822097 
L 337.315533 66.095692 
L 337.597493 63.956368 
L 337.879454 63.925116 
L 338.161414 68.548891 
L 338.725336 93.182375 
L 339.289257 117.631511 
L 339.571217 123.949988 
L 339.853178 125.721036 
L 340.135138 126.571812 
L 340.417099 126.356327 
L 340.98102 119.137068 
L 341.262981 123.370031 
L 342.108863 146.822853 
L 342.390823 153.054005 
L 342.672784 154.576529 
L 342.954744 152.692969 
L 343.236705 152.15515 
L 343.518666 151.248336 
L 344.364547 135.721974 
L 344.646508 133.817483 
L 344.928468 132.921134 
L 345.210429 133.381633 
L 345.49239 134.278712 
L 345.77435 134.523547 
L 346.056311 134.443898 
L 346.338271 134.138772 
L 346.620232 134.458904 
L 346.902193 138.442625 
L 347.184153 145.977439 
L 347.466114 150.049294 
L 347.748074 145.28277 
L 350.56768 52.422815 
L 350.849641 47.937791 
L 351.131601 45.984189 
L 351.413562 47.453834 
L 351.695523 49.575514 
L 351.977483 53.053296 
L 352.259444 64.419799 
L 353.387286 140.97618 
L 353.951207 165.125646 
L 355.07905 202.704927 
L 355.924931 214.921935 
L 356.488852 218.759665 
L 356.770813 220.444633 
L 357.052774 221.175319 
L 357.334734 223.628747 
L 357.898655 231.586059 
L 358.462577 237.053931 
L 359.308458 247.656046 
L 359.590419 252.103688 
L 359.87238 253.852052 
L 360.436301 249.729316 
L 360.718261 250.054652 
L 361.000222 252.65993 
L 361.282182 254.016 
L 361.564143 251.397866 
L 361.846104 245.120978 
L 362.128064 234.902596 
L 362.410025 217.318665 
L 364.101788 70.840226 
L 364.665709 48.492237 
L 365.229631 36.821627 
L 365.511591 35.493976 
L 365.793552 36.800646 
L 366.075512 41.275751 
L 366.357473 49.405536 
L 366.921394 76.519089 
L 367.767276 136.191174 
L 368.331197 158.420803 
L 368.895118 170.404465 
L 369.459039 178.308143 
L 370.022961 182.931754 
L 370.304921 183.740649 
L 370.586882 183.201923 
L 370.868842 183.692843 
L 371.150803 185.700779 
L 371.714724 188.060654 
L 372.560606 201.881934 
L 373.688448 213.750023 
L 374.816291 230.051761 
L 375.098251 236.795439 
L 375.380212 240.383695 
L 375.662172 238.398572 
L 375.944133 232.994572 
L 376.226094 223.023457 
L 376.508054 204.245719 
L 378.199818 52.600226 
L 378.481778 38.682619 
L 379.32766 16.759401 
L 379.609621 12.656891 
L 379.891581 12.096 
L 380.173542 16.482578 
L 380.455502 28.269368 
L 381.301384 90.725113 
L 381.865305 128.767617 
L 382.711187 166.283838 
L 382.993148 175.20424 
L 383.275108 180.089888 
L 383.839029 186.487161 
L 384.402951 193.06703 
L 384.966872 197.082307 
L 385.530793 201.718427 
L 385.812753 203.252403 
L 386.094714 203.161266 
L 386.376675 201.68297 
L 386.658635 202.07701 
L 387.786478 217.830282 
L 388.350399 231.957698 
L 388.632359 234.455595 
L 388.91432 239.122012 
L 389.19628 246.022551 
L 389.478241 247.19682 
L 389.760202 239.437739 
L 390.324123 217.482124 
L 390.606083 200.930833 
L 391.733926 110.718203 
L 392.297847 78.339713 
L 392.579808 68.121206 
L 393.143729 58.677904 
L 393.70765 52.626539 
L 393.98961 53.627931 
L 394.271571 60.256814 
L 395.117453 99.991629 
L 395.963335 140.650246 
L 396.245295 148.791161 
L 396.527256 152.535213 
L 396.809216 154.200521 
L 397.655098 161.617342 
L 397.937059 161.856756 
L 398.219019 163.687927 
L 398.78294 169.763544 
L 399.064901 169.56756 
L 399.346862 169.909016 
L 400.192743 178.10047 
L 400.474704 179.616899 
L 401.602546 189.857312 
L 402.448428 201.980547 
L 403.29431 215.542395 
L 403.57627 214.591155 
L 403.858231 210.808745 
L 404.140192 205.004075 
L 404.422152 196.516993 
L 404.986073 169.105181 
L 406.113916 108.599887 
L 407.241758 61.626825 
L 407.523719 57.087374 
L 407.805679 57.100479 
L 408.08764 61.819885 
L 408.651561 76.786842 
L 409.497443 87.862115 
L 410.625285 105.670532 
L 411.189206 109.909832 
L 411.753127 119.349358 
L 412.599009 134.88177 
L 413.726851 150.955298 
L 414.008812 155.654367 
L 414.572733 161.503828 
L 415.136654 175.530173 
L 415.418615 175.837606 
L 415.700576 172.562491 
L 415.982536 173.099607 
L 416.546457 180.378451 
L 416.828418 183.057801 
L 417.6743 203.866155 
L 417.95626 202.672789 
L 418.238221 198.307779 
L 418.520181 191.232637 
L 418.802142 177.66591 
L 419.648024 123.996669 
L 420.493906 95.231738 
L 421.057827 79.005342 
L 421.339787 76.032228 
L 421.903708 73.747015 
L 422.185669 77.057957 
L 422.74959 101.894764 
L 423.313511 128.420072 
L 424.159393 154.7641 
L 424.441354 161.868037 
L 424.723314 164.024351 
L 425.005275 163.469265 
L 425.287236 167.274444 
L 425.851157 182.212941 
L 426.415078 190.302593 
L 426.697038 195.731928 
L 426.978999 198.442451 
L 427.26096 198.441331 
L 427.54292 198.21009 
L 427.824881 198.725154 
L 428.106841 200.477196 
L 428.670763 206.0557 
L 428.952723 207.448959 
L 429.234684 209.739005 
L 429.798605 215.55314 
L 430.080565 218.359526 
L 431.208408 240.703229 
L 431.490368 242.948369 
L 431.772329 240.420489 
L 432.33625 227.092132 
L 432.618211 212.5855 
L 434.309974 67.773324 
L 435.155856 35.060271 
L 435.719777 22.873714 
L 436.001738 21.354515 
L 436.283698 23.575129 
L 436.565659 32.54029 
L 438.257422 133.938591 
L 439.385265 164.053916 
L 439.949186 171.48142 
L 440.513107 181.667673 
L 441.077028 189.177099 
L 441.64095 197.471672 
L 441.92291 198.201441 
L 442.204871 199.476937 
L 442.768792 205.616298 
L 443.332713 209.476405 
L 444.178595 217.84352 
L 444.742516 228.922 
L 445.306437 236.960666 
L 445.588398 242.303578 
L 445.870358 244.23838 
L 446.152319 241.297419 
L 446.434279 233.972754 
L 446.71624 219.742313 
L 447.280161 170.671283 
L 448.408004 70.093144 
L 449.253885 29.089682 
L 449.535846 21.382365 
L 449.817806 17.072241 
L 450.099767 15.142425 
L 450.381728 17.024489 
L 450.663688 24.693359 
L 451.227609 59.448587 
L 451.791531 96.250568 
L 452.637412 137.674051 
L 453.765255 171.106546 
L 454.329176 186.429954 
L 454.611136 191.02392 
L 454.893097 192.147922 
L 455.175058 192.791524 
L 455.738979 196.819279 
L 456.3029 198.455577 
L 456.584861 201.998391 
L 457.430742 217.22052 
L 458.558585 231.178304 
L 459.404466 242.316166 
L 459.686427 249.105157 
L 459.968388 253.003099 
L 460.250348 250.787762 
L 460.814269 240.585443 
L 461.09623 226.425475 
L 461.942112 147.670228 
L 462.506033 94.276642 
L 463.069954 64.388114 
L 463.633875 40.981234 
L 463.915836 32.717442 
L 464.197796 27.854182 
L 464.479757 28.087047 
L 464.761718 33.988905 
L 465.043678 44.927702 
L 466.17152 111.165649 
L 467.017402 132.840396 
L 467.581323 140.661103 
L 469.837008 179.194231 
L 470.118969 183.136219 
L 470.96485 201.879804 
L 471.246811 204.740809 
L 472.092693 216.546227 
L 472.656614 212.912188 
L 472.938575 214.963259 
L 473.784456 231.240806 
L 474.066417 235.006045 
L 474.348377 236.782916 
L 474.630338 233.993268 
L 475.194259 218.1253 
L 475.47622 203.934991 
L 476.604062 128.185205 
L 476.886023 115.303962 
L 478.013865 87.173898 
L 478.295826 83.385279 
L 478.577786 83.838087 
L 478.859747 89.102512 
L 479.705629 114.342891 
L 480.26955 127.171961 
L 480.55151 129.601159 
L 480.833471 130.737531 
L 481.397392 136.386003 
L 481.679353 136.773612 
L 481.961313 136.272062 
L 482.243274 136.896745 
L 482.525234 139.155039 
L 483.653077 153.75941 
L 483.935037 156.343443 
L 484.216998 157.599474 
L 484.498959 157.6007 
L 484.780919 158.676201 
L 485.06288 160.315439 
L 485.34484 158.384763 
L 486.472683 132.820673 
L 486.754643 131.417576 
L 487.036604 133.861072 
L 488.164446 148.944358 
L 488.446407 149.420352 
L 489.010328 135.719455 
L 489.292289 127.966758 
L 489.574249 116.535551 
L 490.420131 74.23097 
L 490.984052 62.053693 
L 492.111894 40.625065 
L 492.393855 40.239504 
L 492.675816 46.979272 
L 493.521697 86.186272 
L 494.085619 114.311466 
L 495.213461 144.955897 
L 496.059343 158.059846 
L 497.469146 197.479018 
L 497.751106 202.058989 
L 498.315027 204.986683 
L 498.878948 211.67623 
L 499.72483 220.020654 
L 500.570712 226.146643 
L 501.134633 238.047616 
L 501.416594 243.981795 
L 501.698554 247.529345 
L 501.980515 248.68087 
L 502.262476 247.73767 
L 502.544436 243.631846 
L 502.826397 234.459219 
L 503.390318 199.196206 
L 504.51816 99.267064 
L 505.364042 55.880758 
L 505.646003 49.788414 
L 506.209924 42.257995 
L 506.491884 41.302757 
L 506.773845 47.713936 
L 507.337766 75.649988 
L 508.465608 137.265089 
L 508.747569 146.079675 
L 510.439333 176.167624 
L 510.721293 180.757851 
L 511.285214 183.946632 
L 511.849135 190.582195 
L 512.131096 190.211086 
L 512.413057 189.118781 
L 512.695017 190.209262 
L 513.258938 194.993015 
L 514.668741 214.353118 
L 515.514623 227.079349 
L 515.796584 234.261937 
L 516.078544 238.526815 
L 516.360505 237.274205 
L 516.642465 232.564646 
L 516.924426 224.562972 
L 517.206387 209.620298 
L 518.89815 72.060142 
L 519.462071 48.057355 
L 520.025992 31.897574 
L 520.307953 22.991318 
L 520.589914 21.055164 
L 520.871874 26.865865 
L 521.435795 48.752012 
L 521.999717 91.142662 
L 522.563638 131.067578 
L 523.127559 150.5514 
L 523.409519 157.910303 
L 523.69148 161.546763 
L 523.973441 161.20937 
L 524.255401 162.58863 
L 524.819322 173.376062 
L 525.101283 174.702192 
L 525.383244 177.005182 
L 525.947165 188.029529 
L 526.229125 189.059565 
L 526.511086 189.228516 
L 527.075007 195.389896 
L 527.356968 195.349106 
L 527.638928 193.112818 
L 527.920889 194.419438 
L 528.48481 204.965001 
L 528.766771 207.803408 
L 529.048731 214.660501 
L 529.612652 237.044841 
L 530.176574 249.062025 
L 530.458534 251.328241 
L 530.740495 247.467745 
L 531.304416 228.423538 
L 531.586376 209.513075 
L 532.714219 106.224864 
L 533.27814 66.405873 
L 533.842061 46.544415 
L 534.405982 37.184801 
L 534.687943 37.696041 
L 534.969904 45.776599 
L 536.661667 127.189989 
L 537.225588 143.999018 
L 537.789509 158.925771 
L 539.199312 177.956272 
L 539.763233 177.769717 
L 540.045194 178.87999 
L 540.609115 183.046307 
L 540.891076 183.969526 
L 541.173036 183.296461 
L 541.454997 183.519905 
L 541.736958 185.918206 
L 542.018918 187.118742 
L 542.300879 186.124778 
L 542.582839 188.194891 
L 543.146761 201.889035 
L 543.428721 206.436729 
L 543.710682 214.167262 
L 544.274603 237.215161 
L 544.556563 241.599104 
L 544.838524 240.033536 
L 545.120485 234.88077 
L 545.402445 226.64351 
L 545.684406 212.473569 
L 546.812248 126.071726 
L 547.65813 83.17142 
L 548.504012 59.657349 
L 548.785972 57.723386 
L 549.067933 60.880698 
L 549.349893 70.095803 
L 550.195775 111.142422 
L 551.041657 136.845679 
L 551.887539 150.097629 
L 552.45146 155.405147 
L 553.015381 161.84695 
L 553.579302 167.836904 
L 553.861263 169.657977 
L 554.143223 170.492882 
L 554.425184 170.487778 
L 554.707145 170.685132 
L 554.989105 171.977693 
L 556.398908 181.798153 
L 556.680869 179.660932 
L 556.962829 176.558686 
L 557.24479 176.506597 
L 557.52675 177.868764 
L 557.808711 176.405298 
L 558.090672 173.433392 
L 558.372632 171.840258 
L 558.654593 167.948837 
L 559.218514 143.074634 
L 559.782435 113.267152 
L 560.346356 79.532444 
L 560.910277 57.696902 
L 561.474199 45.674959 
L 562.03812 35.435287 
L 562.32008 37.005145 
L 562.884002 52.829662 
L 563.165962 64.374885 
L 564.011844 118.380022 
L 564.293804 123.997016 
L 565.139686 151.030813 
L 565.703607 170.074267 
L 566.267529 177.336955 
L 566.83145 197.272643 
L 567.677332 211.73154 
L 567.959292 209.1007 
L 568.523213 181.511506 
L 569.369095 143.023786 
L 569.933016 122.746767 
L 570.214977 116.683852 
L 570.496937 116.298428 
L 570.778898 119.531326 
L 571.060859 129.337411 
L 571.342819 152.480678 
L 571.90674 216.656685 
L 572.188701 237.751658 
L 572.470661 249.396858 
L 572.752622 250.547684 
L 573.034583 239.242541 
L 574.726346 121.166892 
L 575.572228 80.76089 
L 575.854189 71.104712 
L 576.136149 67.111959 
L 576.41811 68.336903 
L 576.70007 71.283701 
L 576.982031 77.081031 
L 578.673794 147.686317 
L 578.955755 149.24864 
L 579.237716 152.280241 
L 579.801637 166.105821 
L 580.083597 166.202488 
L 580.365558 167.892396 
L 581.21144 187.197409 
L 582.057321 192.903176 
L 582.903203 202.250835 
L 584.313006 218.476184 
L 584.876927 230.151078 
L 585.722809 241.226611 
L 586.00477 235.826127 
L 586.28673 226.152546 
L 586.568691 211.287455 
L 587.978494 85.915399 
L 588.542415 56.787872 
L 589.106336 44.306519 
L 589.388297 40.747165 
L 589.670257 41.30426 
L 590.234178 46.8124 
L 590.516139 55.089794 
L 591.643981 125.095778 
L 592.207903 154.759747 
L 592.489863 162.465958 
L 593.053784 170.287407 
L 593.899666 178.133127 
L 594.181627 180.484263 
L 594.463587 184.722907 
L 595.027508 195.084679 
L 595.309469 196.04375 
L 595.59143 195.772069 
L 595.87339 196.159099 
L 596.437311 198.401374 
L 597.001232 201.26073 
L 597.283193 204.619188 
L 597.847114 213.743477 
L 598.129075 217.513097 
L 598.974957 233.267971 
L 599.538878 239.628362 
L 599.820838 236.241158 
L 600.38476 210.996489 
L 600.948681 168.802616 
L 601.512602 128.440129 
L 602.076523 100.878887 
L 602.358484 85.473839 
L 602.640444 76.195657 
L 603.486326 60.325357 
L 603.768287 59.39054 
L 604.050247 59.93182 
L 604.332208 63.497958 
L 604.614168 74.078055 
L 605.178089 102.941564 
L 606.305932 142.91151 
L 607.433774 165.747832 
L 607.997695 166.606156 
L 608.561617 168.073241 
L 609.125538 170.356946 
L 609.407498 171.761417 
L 610.25338 178.816542 
L 610.535341 177.989202 
L 611.945144 168.627302 
L 612.227104 167.636643 
L 612.509065 168.231816 
L 612.791025 169.651006 
L 613.072986 168.123649 
L 613.636907 153.719976 
L 613.918868 143.925508 
L 614.482789 110.305792 
L 615.04671 78.226327 
L 615.610631 57.06497 
L 616.174552 44.791083 
L 616.738474 37.280285 
L 617.020434 37.700118 
L 617.302395 42.498217 
L 617.584355 51.489092 
L 618.148276 79.046527 
L 619.276119 139.361644 
L 620.122001 162.78142 
L 620.685922 174.659186 
L 622.095725 194.560717 
L 622.377685 196.860882 
L 622.941606 202.788786 
L 623.223567 203.149435 
L 623.505528 203.894761 
L 624.069449 208.816745 
L 624.63337 210.705797 
L 624.915331 212.817931 
L 625.479252 219.792035 
L 626.043173 231.493393 
L 626.607094 243.097084 
L 626.889055 243.214227 
L 627.171015 238.480946 
L 627.452976 227.2451 
L 628.580818 157.659011 
L 629.70866 106.891652 
L 629.990621 98.861872 
L 630.272582 94.902255 
L 630.836503 91.032832 
L 631.118463 90.972297 
L 631.400424 94.880408 
L 631.682385 102.733585 
L 632.810227 144.707862 
L 633.092188 152.597046 
L 633.092188 152.597046 
" clip-path="url(#pd278576efd)" style="fill: none; stroke: #1f77b4; stroke-width: 1.5; stroke-linecap: square"/>
   </g>
   <g id="patch_3">
    <path d="M 47.192188 266.112 
L 47.192188 0 
" style="fill: none; stroke: #000000; stroke-width: 0.8; stroke-linejoin: miter; stroke-linecap: square"/>
   </g>
   <g id="patch_4">
    <path d="M 660.992188 266.112 
L 660.992188 0 
" style="fill: none; stroke: #000000; stroke-width: 0.8; stroke-linejoin: miter; stroke-linecap: square"/>
   </g>
   <g id="patch_5">
    <path d="M 47.192188 266.112 
L 660.992188 266.112 
" style="fill: none; stroke: #000000; stroke-width: 0.8; stroke-linejoin: miter; stroke-linecap: square"/>
   </g>
   <g id="patch_6">
    <path d="M 47.192188 0 
L 660.992188 0 
" style="fill: none; stroke: #000000; stroke-width: 0.8; stroke-linejoin: miter; stroke-linecap: square"/>
   </g>
  </g>
 </g>
 <defs>
  <clipPath id="pd278576efd">
   <rect x="47.192188" y="0" width="613.8" height="266.112"/>
  </clipPath>
 </defs>
</svg>
