<?xml version="1.0" encoding="utf-8" standalone="no"?>
<!DOCTYPE svg PUBLIC "-//W3C//DTD SVG 1.1//EN"
  "http://www.w3.org/Graphics/SVG/1.1/DTD/svg11.dtd">
<svg xmlns:xlink="http://www.w3.org/1999/xlink" width="660.992188pt" height="286.522889pt" viewBox="0 0 660.992188 286.522889" xmlns="http://www.w3.org/2000/svg" version="1.1">
 <metadata>
  <rdf:RDF xmlns:dc="http://purl.org/dc/elements/1.1/" xmlns:cc="http://creativecommons.org/ns#" xmlns:rdf="http://www.w3.org/1999/02/22-rdf-syntax-ns#">
   <cc:Work>
    <dc:type rdf:resource="http://purl.org/dc/dcmitype/StillImage"/>
    <dc:date>2023-03-06T19:25:47.071972</dc:date>
    <dc:format>image/svg+xml</dc:format>
    <dc:creator>
     <cc:Agent>
      <dc:title>Matplotlib v3.6.3, https://matplotlib.org/</dc:title>
     </cc:Agent>
    </dc:creator>
   </cc:Work>
  </rdf:RDF>
 </metadata>
 <defs>
  <style type="text/css">*{stroke-linejoin: round; stroke-linecap: butt}</style>
 </defs>
 <g id="figure_1">
  <g id="patch_1">
   <path d="M -0 286.522889 
L 660.992188 286.522889 
L 660.992188 0 
L -0 0 
L -0 286.522889 
z
" style="fill: none"/>
  </g>
  <g id="axes_1">
   <g id="patch_2">
    <path d="M 47.192188 269.844764 
L 660.992188 269.844764 
L 660.992188 3.732764 
L 47.192188 3.732764 
L 47.192188 269.844764 
z
" style="fill: none"/>
   </g>
   <g id="matplotlib.axis_1">
    <g id="xtick_1">
     <g id="line2d_1">
      <defs>
       <path id="m1ae34d988a" d="M 0 0 
L 0 3.5 
" style="stroke: #000000; stroke-width: 0.8"/>
      </defs>
      <g>
       <use xlink:href="#m1ae34d988a" x="75.092188" y="269.844764" style="stroke: #000000; stroke-width: 0.8"/>
      </g>
     </g>
     <g id="text_1">
      <!-- 0 -->
      <g transform="translate(71.910938 284.443201) scale(0.1 -0.1)">
       <defs>
        <path id="DejaVuSans-30" d="M 2034 4250 
Q 1547 4250 1301 3770 
Q 1056 3291 1056 2328 
Q 1056 1369 1301 889 
Q 1547 409 2034 409 
Q 2525 409 2770 889 
Q 3016 1369 3016 2328 
Q 3016 3291 2770 3770 
Q 2525 4250 2034 4250 
z
M 2034 4750 
Q 2819 4750 3233 4129 
Q 3647 3509 3647 2328 
Q 3647 1150 3233 529 
Q 2819 -91 2034 -91 
Q 1250 -91 836 529 
Q 422 1150 422 2328 
Q 422 3509 836 4129 
Q 1250 4750 2034 4750 
z
" transform="scale(0.015625)"/>
       </defs>
       <use xlink:href="#DejaVuSans-30"/>
      </g>
     </g>
    </g>
    <g id="xtick_2">
     <g id="line2d_2">
      <g>
       <use xlink:href="#m1ae34d988a" x="144.842188" y="269.844764" style="stroke: #000000; stroke-width: 0.8"/>
      </g>
     </g>
     <g id="text_2">
      <!-- 500 -->
      <g transform="translate(135.298438 284.443201) scale(0.1 -0.1)">
       <defs>
        <path id="DejaVuSans-35" d="M 691 4666 
L 3169 4666 
L 3169 4134 
L 1269 4134 
L 1269 2991 
Q 1406 3038 1543 3061 
Q 1681 3084 1819 3084 
Q 2600 3084 3056 2656 
Q 3513 2228 3513 1497 
Q 3513 744 3044 326 
Q 2575 -91 1722 -91 
Q 1428 -91 1123 -41 
Q 819 9 494 109 
L 494 744 
Q 775 591 1075 516 
Q 1375 441 1709 441 
Q 2250 441 2565 725 
Q 2881 1009 2881 1497 
Q 2881 1984 2565 2268 
Q 2250 2553 1709 2553 
Q 1456 2553 1204 2497 
Q 953 2441 691 2322 
L 691 4666 
z
" transform="scale(0.015625)"/>
       </defs>
       <use xlink:href="#DejaVuSans-35"/>
       <use xlink:href="#DejaVuSans-30" x="63.623047"/>
       <use xlink:href="#DejaVuSans-30" x="127.246094"/>
      </g>
     </g>
    </g>
    <g id="xtick_3">
     <g id="line2d_3">
      <g>
       <use xlink:href="#m1ae34d988a" x="214.592188" y="269.844764" style="stroke: #000000; stroke-width: 0.8"/>
      </g>
     </g>
     <g id="text_3">
      <!-- 1000 -->
      <g transform="translate(201.867188 284.443201) scale(0.1 -0.1)">
       <defs>
        <path id="DejaVuSans-31" d="M 794 531 
L 1825 531 
L 1825 4091 
L 703 3866 
L 703 4441 
L 1819 4666 
L 2450 4666 
L 2450 531 
L 3481 531 
L 3481 0 
L 794 0 
L 794 531 
z
" transform="scale(0.015625)"/>
       </defs>
       <use xlink:href="#DejaVuSans-31"/>
       <use xlink:href="#DejaVuSans-30" x="63.623047"/>
       <use xlink:href="#DejaVuSans-30" x="127.246094"/>
       <use xlink:href="#DejaVuSans-30" x="190.869141"/>
      </g>
     </g>
    </g>
    <g id="xtick_4">
     <g id="line2d_4">
      <g>
       <use xlink:href="#m1ae34d988a" x="284.342188" y="269.844764" style="stroke: #000000; stroke-width: 0.8"/>
      </g>
     </g>
     <g id="text_4">
      <!-- 1500 -->
      <g transform="translate(271.617188 284.443201) scale(0.1 -0.1)">
       <use xlink:href="#DejaVuSans-31"/>
       <use xlink:href="#DejaVuSans-35" x="63.623047"/>
       <use xlink:href="#DejaVuSans-30" x="127.246094"/>
       <use xlink:href="#DejaVuSans-30" x="190.869141"/>
      </g>
     </g>
    </g>
    <g id="xtick_5">
     <g id="line2d_5">
      <g>
       <use xlink:href="#m1ae34d988a" x="354.092188" y="269.844764" style="stroke: #000000; stroke-width: 0.8"/>
      </g>
     </g>
     <g id="text_5">
      <!-- 2000 -->
      <g transform="translate(341.367188 284.443201) scale(0.1 -0.1)">
       <defs>
        <path id="DejaVuSans-32" d="M 1228 531 
L 3431 531 
L 3431 0 
L 469 0 
L 469 531 
Q 828 903 1448 1529 
Q 2069 2156 2228 2338 
Q 2531 2678 2651 2914 
Q 2772 3150 2772 3378 
Q 2772 3750 2511 3984 
Q 2250 4219 1831 4219 
Q 1534 4219 1204 4116 
Q 875 4013 500 3803 
L 500 4441 
Q 881 4594 1212 4672 
Q 1544 4750 1819 4750 
Q 2544 4750 2975 4387 
Q 3406 4025 3406 3419 
Q 3406 3131 3298 2873 
Q 3191 2616 2906 2266 
Q 2828 2175 2409 1742 
Q 1991 1309 1228 531 
z
" transform="scale(0.015625)"/>
       </defs>
       <use xlink:href="#DejaVuSans-32"/>
       <use xlink:href="#DejaVuSans-30" x="63.623047"/>
       <use xlink:href="#DejaVuSans-30" x="127.246094"/>
       <use xlink:href="#DejaVuSans-30" x="190.869141"/>
      </g>
     </g>
    </g>
    <g id="xtick_6">
     <g id="line2d_6">
      <g>
       <use xlink:href="#m1ae34d988a" x="423.842188" y="269.844764" style="stroke: #000000; stroke-width: 0.8"/>
      </g>
     </g>
     <g id="text_6">
      <!-- 2500 -->
      <g transform="translate(411.117188 284.443201) scale(0.1 -0.1)">
       <use xlink:href="#DejaVuSans-32"/>
       <use xlink:href="#DejaVuSans-35" x="63.623047"/>
       <use xlink:href="#DejaVuSans-30" x="127.246094"/>
       <use xlink:href="#DejaVuSans-30" x="190.869141"/>
      </g>
     </g>
    </g>
    <g id="xtick_7">
     <g id="line2d_7">
      <g>
       <use xlink:href="#m1ae34d988a" x="493.592188" y="269.844764" style="stroke: #000000; stroke-width: 0.8"/>
      </g>
     </g>
     <g id="text_7">
      <!-- 3000 -->
      <g transform="translate(480.867188 284.443201) scale(0.1 -0.1)">
       <defs>
        <path id="DejaVuSans-33" d="M 2597 2516 
Q 3050 2419 3304 2112 
Q 3559 1806 3559 1356 
Q 3559 666 3084 287 
Q 2609 -91 1734 -91 
Q 1441 -91 1130 -33 
Q 819 25 488 141 
L 488 750 
Q 750 597 1062 519 
Q 1375 441 1716 441 
Q 2309 441 2620 675 
Q 2931 909 2931 1356 
Q 2931 1769 2642 2001 
Q 2353 2234 1838 2234 
L 1294 2234 
L 1294 2753 
L 1863 2753 
Q 2328 2753 2575 2939 
Q 2822 3125 2822 3475 
Q 2822 3834 2567 4026 
Q 2313 4219 1838 4219 
Q 1578 4219 1281 4162 
Q 984 4106 628 3988 
L 628 4550 
Q 988 4650 1302 4700 
Q 1616 4750 1894 4750 
Q 2613 4750 3031 4423 
Q 3450 4097 3450 3541 
Q 3450 3153 3228 2886 
Q 3006 2619 2597 2516 
z
" transform="scale(0.015625)"/>
       </defs>
       <use xlink:href="#DejaVuSans-33"/>
       <use xlink:href="#DejaVuSans-30" x="63.623047"/>
       <use xlink:href="#DejaVuSans-30" x="127.246094"/>
       <use xlink:href="#DejaVuSans-30" x="190.869141"/>
      </g>
     </g>
    </g>
    <g id="xtick_8">
     <g id="line2d_8">
      <g>
       <use xlink:href="#m1ae34d988a" x="563.342188" y="269.844764" style="stroke: #000000; stroke-width: 0.8"/>
      </g>
     </g>
     <g id="text_8">
      <!-- 3500 -->
      <g transform="translate(550.617188 284.443201) scale(0.1 -0.1)">
       <use xlink:href="#DejaVuSans-33"/>
       <use xlink:href="#DejaVuSans-35" x="63.623047"/>
       <use xlink:href="#DejaVuSans-30" x="127.246094"/>
       <use xlink:href="#DejaVuSans-30" x="190.869141"/>
      </g>
     </g>
    </g>
    <g id="xtick_9">
     <g id="line2d_9">
      <g>
       <use xlink:href="#m1ae34d988a" x="633.092188" y="269.844764" style="stroke: #000000; stroke-width: 0.8"/>
      </g>
     </g>
     <g id="text_9">
      <!-- 4000 -->
      <g transform="translate(620.367188 284.443201) scale(0.1 -0.1)">
       <defs>
        <path id="DejaVuSans-34" d="M 2419 4116 
L 825 1625 
L 2419 1625 
L 2419 4116 
z
M 2253 4666 
L 3047 4666 
L 3047 1625 
L 3713 1625 
L 3713 1100 
L 3047 1100 
L 3047 0 
L 2419 0 
L 2419 1100 
L 313 1100 
L 313 1709 
L 2253 4666 
z
" transform="scale(0.015625)"/>
       </defs>
       <use xlink:href="#DejaVuSans-34"/>
       <use xlink:href="#DejaVuSans-30" x="63.623047"/>
       <use xlink:href="#DejaVuSans-30" x="127.246094"/>
       <use xlink:href="#DejaVuSans-30" x="190.869141"/>
      </g>
     </g>
    </g>
   </g>
   <g id="matplotlib.axis_2">
    <g id="ytick_1">
     <g id="line2d_10">
      <defs>
       <path id="m0e1ebc44ef" d="M 0 0 
L -3.5 0 
" style="stroke: #000000; stroke-width: 0.8"/>
      </defs>
      <g>
       <use xlink:href="#m0e1ebc44ef" x="47.192188" y="239.256275" style="stroke: #000000; stroke-width: 0.8"/>
      </g>
     </g>
     <g id="text_10">
      <!-- −20000 -->
      <g transform="translate(0 243.055494) scale(0.1 -0.1)">
       <defs>
        <path id="DejaVuSans-2212" d="M 678 2272 
L 4684 2272 
L 4684 1741 
L 678 1741 
L 678 2272 
z
" transform="scale(0.015625)"/>
       </defs>
       <use xlink:href="#DejaVuSans-2212"/>
       <use xlink:href="#DejaVuSans-32" x="83.789062"/>
       <use xlink:href="#DejaVuSans-30" x="147.412109"/>
       <use xlink:href="#DejaVuSans-30" x="211.035156"/>
       <use xlink:href="#DejaVuSans-30" x="274.658203"/>
       <use xlink:href="#DejaVuSans-30" x="338.28125"/>
      </g>
     </g>
    </g>
    <g id="ytick_2">
     <g id="line2d_11">
      <g>
       <use xlink:href="#m0e1ebc44ef" x="47.192188" y="200.013432" style="stroke: #000000; stroke-width: 0.8"/>
      </g>
     </g>
     <g id="text_11">
      <!-- −10000 -->
      <g transform="translate(0 203.812651) scale(0.1 -0.1)">
       <use xlink:href="#DejaVuSans-2212"/>
       <use xlink:href="#DejaVuSans-31" x="83.789062"/>
       <use xlink:href="#DejaVuSans-30" x="147.412109"/>
       <use xlink:href="#DejaVuSans-30" x="211.035156"/>
       <use xlink:href="#DejaVuSans-30" x="274.658203"/>
       <use xlink:href="#DejaVuSans-30" x="338.28125"/>
      </g>
     </g>
    </g>
    <g id="ytick_3">
     <g id="line2d_12">
      <g>
       <use xlink:href="#m0e1ebc44ef" x="47.192188" y="160.77059" style="stroke: #000000; stroke-width: 0.8"/>
      </g>
     </g>
     <g id="text_12">
      <!-- 0 -->
      <g transform="translate(33.829688 164.569808) scale(0.1 -0.1)">
       <use xlink:href="#DejaVuSans-30"/>
      </g>
     </g>
    </g>
    <g id="ytick_4">
     <g id="line2d_13">
      <g>
       <use xlink:href="#m0e1ebc44ef" x="47.192188" y="121.527747" style="stroke: #000000; stroke-width: 0.8"/>
      </g>
     </g>
     <g id="text_13">
      <!-- 10000 -->
      <g transform="translate(8.379688 125.326966) scale(0.1 -0.1)">
       <use xlink:href="#DejaVuSans-31"/>
       <use xlink:href="#DejaVuSans-30" x="63.623047"/>
       <use xlink:href="#DejaVuSans-30" x="127.246094"/>
       <use xlink:href="#DejaVuSans-30" x="190.869141"/>
       <use xlink:href="#DejaVuSans-30" x="254.492188"/>
      </g>
     </g>
    </g>
    <g id="ytick_5">
     <g id="line2d_14">
      <g>
       <use xlink:href="#m0e1ebc44ef" x="47.192188" y="82.284904" style="stroke: #000000; stroke-width: 0.8"/>
      </g>
     </g>
     <g id="text_14">
      <!-- 20000 -->
      <g transform="translate(8.379688 86.084123) scale(0.1 -0.1)">
       <use xlink:href="#DejaVuSans-32"/>
       <use xlink:href="#DejaVuSans-30" x="63.623047"/>
       <use xlink:href="#DejaVuSans-30" x="127.246094"/>
       <use xlink:href="#DejaVuSans-30" x="190.869141"/>
       <use xlink:href="#DejaVuSans-30" x="254.492188"/>
      </g>
     </g>
    </g>
    <g id="ytick_6">
     <g id="line2d_15">
      <g>
       <use xlink:href="#m0e1ebc44ef" x="47.192188" y="43.042061" style="stroke: #000000; stroke-width: 0.8"/>
      </g>
     </g>
     <g id="text_15">
      <!-- 30000 -->
      <g transform="translate(8.379688 46.84128) scale(0.1 -0.1)">
       <use xlink:href="#DejaVuSans-33"/>
       <use xlink:href="#DejaVuSans-30" x="63.623047"/>
       <use xlink:href="#DejaVuSans-30" x="127.246094"/>
       <use xlink:href="#DejaVuSans-30" x="190.869141"/>
       <use xlink:href="#DejaVuSans-30" x="254.492188"/>
      </g>
     </g>
    </g>
    <g id="ytick_7">
     <g id="line2d_16">
      <g>
       <use xlink:href="#m0e1ebc44ef" x="47.192188" y="3.799219" style="stroke: #000000; stroke-width: 0.8"/>
      </g>
     </g>
     <g id="text_16">
      <!-- 40000 -->
      <g transform="translate(8.379688 7.598438) scale(0.1 -0.1)">
       <use xlink:href="#DejaVuSans-34"/>
       <use xlink:href="#DejaVuSans-30" x="63.623047"/>
       <use xlink:href="#DejaVuSans-30" x="127.246094"/>
       <use xlink:href="#DejaVuSans-30" x="190.869141"/>
       <use xlink:href="#DejaVuSans-30" x="254.492188"/>
      </g>
     </g>
    </g>
   </g>
   <g id="line2d_17">
    <path d="M 75.092188 160.712386 
L 75.374148 160.828169 
L 75.656109 160.713525 
L 75.938069 160.827238 
L 76.22003 160.714266 
L 76.50199 160.826673 
L 76.783951 160.714665 
L 77.065912 160.826431 
L 77.347872 160.714758 
L 77.629833 160.826482 
L 77.911793 160.714568 
L 78.193754 160.826808 
L 78.475715 160.714107 
L 78.757675 160.827404 
L 79.039636 160.713376 
L 79.321596 160.828271 
L 79.603557 160.712369 
L 79.885517 160.829422 
L 80.167478 160.711069 
L 80.449439 160.830878 
L 80.731399 160.709449 
L 81.01336 160.832671 
L 81.29532 160.707472 
L 81.577281 160.834846 
L 81.859242 160.705083 
L 82.141202 160.837467 
L 82.423163 160.70221 
L 82.705123 160.840617 
L 82.987084 160.698754 
L 83.269044 160.844412 
L 83.551005 160.694579 
L 83.832966 160.849014 
L 84.114926 160.689495 
L 84.396887 160.854648 
L 84.678847 160.683229 
L 84.960808 160.861645 
L 85.242769 160.675379 
L 85.524729 160.870499 
L 85.80669 160.665329 
L 86.08865 160.88199 
L 86.370611 160.652082 
L 86.652572 160.89741 
L 86.934532 160.633925 
L 87.216493 160.919082 
L 87.498453 160.607635 
L 87.780414 160.951613 
L 88.062374 160.566378 
L 88.344335 161.005609 
L 88.626296 160.492716 
L 88.908256 161.112009 
L 89.190217 160.325572 
L 89.472177 161.412836 
L 89.754138 159.620708 
L 90.036099 170.807262 
L 90.318059 174.850095 
L 90.60002 171.21062 
L 90.88198 170.78259 
L 91.163941 169.823954 
L 91.445901 171.498536 
L 91.727862 172.467281 
L 92.009823 173.844966 
L 92.291783 173.91824 
L 92.573744 174.11231 
L 92.855704 173.635289 
L 93.137665 173.838129 
L 93.701586 173.271592 
L 93.983547 172.76766 
L 94.829429 174.158901 
L 95.111389 174.182595 
L 95.39335 174.610613 
L 95.67531 174.676814 
L 95.957271 174.947303 
L 96.521192 176.602983 
L 96.803153 175.780921 
L 97.085113 173.823651 
L 97.367074 173.02622 
L 97.930995 176.356666 
L 98.494916 176.62326 
L 98.776877 179.484309 
L 99.340798 186.834445 
L 99.622758 188.081247 
L 99.904719 188.565134 
L 100.18668 186.187217 
L 100.46864 176.951432 
L 101.314522 127.890998 
L 101.596483 122.840053 
L 101.878443 123.075944 
L 102.442364 125.955959 
L 102.724325 125.938561 
L 103.006286 124.335232 
L 103.570207 118.983838 
L 103.852167 117.764433 
L 104.134128 118.205319 
L 104.416088 120.331143 
L 104.98001 129.182127 
L 105.543931 141.540089 
L 106.671773 173.801717 
L 106.953734 175.746311 
L 107.235694 174.820622 
L 107.799615 170.450938 
L 108.081576 170.21569 
L 108.363537 171.205613 
L 108.645497 171.749209 
L 108.927458 171.750044 
L 109.209418 172.152819 
L 109.491379 173.023231 
L 109.77334 173.349798 
L 110.0553 173.00465 
L 110.901182 170.498361 
L 111.183143 170.800157 
L 111.465103 171.583587 
L 111.747064 171.458917 
L 112.029024 170.684993 
L 112.310985 170.880138 
L 112.592945 171.776436 
L 112.874906 171.855648 
L 113.156867 171.287525 
L 113.438827 171.581658 
L 113.720788 172.542718 
L 114.284709 173.429915 
L 114.56667 174.985415 
L 115.130591 179.664867 
L 115.412551 180.762686 
L 115.694512 181.401692 
L 115.976472 182.531243 
L 116.540394 186.036523 
L 116.822354 187.00787 
L 117.386275 190.473639 
L 117.668236 188.667313 
L 117.950197 178.401821 
L 118.796078 130.856456 
L 119.078039 123.381202 
L 119.36 121.352059 
L 119.923921 126.216902 
L 120.205881 124.891436 
L 120.487842 121.185791 
L 120.769802 119.186733 
L 121.333724 119.45323 
L 121.615684 119.349968 
L 121.897645 120.872455 
L 122.461566 128.473081 
L 123.025487 141.751957 
L 124.153329 179.420147 
L 124.43529 182.377674 
L 124.717251 180.883992 
L 125.281172 176.585308 
L 125.845093 173.734501 
L 126.127054 172.201955 
L 126.409014 171.547748 
L 126.690975 171.772591 
L 127.536857 173.435331 
L 127.818817 173.402705 
L 128.664699 171.965288 
L 129.510581 172.626106 
L 129.792541 172.567793 
L 130.074502 172.680986 
L 130.638423 173.425731 
L 130.920384 172.333236 
L 131.202344 170.00001 
L 131.484305 168.644491 
L 131.766265 169.677181 
L 132.048226 171.350121 
L 132.330186 171.887928 
L 132.612147 172.990912 
L 133.176068 180.829449 
L 133.458029 182.269919 
L 133.739989 181.938371 
L 134.02195 182.813569 
L 134.303911 184.730259 
L 135.149792 187.983561 
L 135.431753 187.453028 
L 135.713714 180.143121 
L 136.559595 133.210482 
L 136.841556 126.131778 
L 137.123516 124.546083 
L 137.969398 126.400454 
L 138.251359 125.074647 
L 139.097241 115.24942 
L 139.379201 114.558936 
L 139.661162 115.372631 
L 139.943122 118.128653 
L 140.507043 129.22043 
L 141.070965 142.711112 
L 141.916846 172.389816 
L 142.198807 177.319003 
L 142.480768 177.869865 
L 143.60861 169.585559 
L 143.890571 168.611042 
L 144.172531 168.295176 
L 144.454492 168.726104 
L 145.018413 169.86281 
L 145.582334 171.114096 
L 145.864295 170.977282 
L 146.146255 169.817593 
L 146.428216 169.360469 
L 146.710176 170.91628 
L 146.992137 173.292573 
L 147.274098 174.631667 
L 147.556058 175.189613 
L 148.119979 176.793462 
L 148.40194 177.078174 
L 148.6839 177.603594 
L 149.247822 179.608423 
L 149.529782 179.81941 
L 149.811743 180.438706 
L 150.375664 182.602984 
L 150.657625 182.778954 
L 150.939585 183.278242 
L 151.785467 186.897129 
L 152.067428 187.644486 
L 152.631349 189.905787 
L 152.913309 188.733941 
L 153.19527 181.50317 
L 154.323112 124.937939 
L 154.605073 120.922333 
L 154.887033 121.173991 
L 155.450955 125.323028 
L 155.732915 123.919405 
L 156.296836 116.912777 
L 156.578797 114.718276 
L 156.860757 113.740355 
L 157.142718 114.438163 
L 157.424679 117.226906 
L 157.9886 125.922934 
L 158.27056 131.511401 
L 158.834482 150.940767 
L 159.398403 171.805994 
L 159.680363 176.343352 
L 159.962324 176.357803 
L 161.372127 164.864438 
L 161.654087 164.606217 
L 161.936048 165.528762 
L 162.499969 166.286327 
L 162.78193 168.28797 
L 163.06389 171.490612 
L 163.345851 173.400646 
L 163.627812 173.24919 
L 163.909772 172.922446 
L 164.191733 173.408362 
L 164.473693 173.402064 
L 165.319575 168.666563 
L 165.883496 169.634656 
L 166.447417 169.119505 
L 166.729378 170.461633 
L 167.293299 176.097243 
L 167.57526 177.331572 
L 167.85722 177.84513 
L 168.139181 179.238805 
L 168.421142 181.540238 
L 168.703102 182.871674 
L 168.985063 182.07257 
L 169.267023 180.403048 
L 169.548984 180.195378 
L 169.830944 181.666188 
L 170.112905 182.034176 
L 170.394866 177.699774 
L 170.676826 167.229204 
L 171.522708 124.168366 
L 171.804669 119.200039 
L 172.086629 120.06867 
L 172.36859 122.561355 
L 172.65055 123.540774 
L 172.932511 122.784625 
L 173.214471 120.65034 
L 174.060353 111.30924 
L 174.342314 112.041465 
L 174.624274 114.444765 
L 174.906235 118.057211 
L 175.470156 130.242481 
L 176.034077 147.875304 
L 176.597999 170.672148 
L 176.879959 175.456935 
L 177.16192 174.362207 
L 177.725841 169.254408 
L 178.007801 167.873069 
L 178.289762 167.175695 
L 178.571723 167.628553 
L 179.417604 170.349852 
L 179.699565 171.028977 
L 179.981526 170.864062 
L 180.263486 170.178869 
L 180.545447 170.176378 
L 180.827407 170.518294 
L 181.109368 169.516913 
L 181.391328 167.516544 
L 181.673289 166.699059 
L 181.95525 167.786679 
L 182.519171 170.664197 
L 182.801131 171.761823 
L 183.083092 172.291002 
L 183.365053 171.987008 
L 183.647013 171.953798 
L 184.210934 173.601818 
L 184.492895 174.035572 
L 184.774856 176.071452 
L 185.338777 185.12065 
L 185.620737 187.20967 
L 185.902698 187.766674 
L 186.74858 191.385132 
L 187.03054 193.358662 
L 187.312501 196.219822 
L 187.594461 195.093324 
L 187.876422 184.222015 
L 188.722304 130.33401 
L 189.004264 121.148758 
L 189.286225 116.741119 
L 189.568185 117.030372 
L 189.850146 119.628039 
L 190.132107 119.905633 
L 190.696028 112.683217 
L 190.977988 111.341147 
L 191.82387 112.168129 
L 192.105831 114.484058 
L 192.387791 119.223811 
L 192.951713 134.112959 
L 193.515634 155.21782 
L 194.079555 177.268793 
L 194.361515 181.822608 
L 194.643476 180.373438 
L 195.489358 166.866562 
L 195.771318 165.306387 
L 196.053279 164.782044 
L 196.33524 164.563852 
L 196.6172 164.776476 
L 197.745042 167.92526 
L 198.027003 168.329805 
L 198.308964 168.123237 
L 198.590924 167.670985 
L 198.872885 168.80218 
L 199.436806 175.860355 
L 199.718767 177.397809 
L 200.000727 177.161476 
L 200.282688 177.083512 
L 200.846609 179.363243 
L 201.41053 181.383654 
L 201.692491 181.564635 
L 201.974451 181.314512 
L 202.256412 181.740872 
L 202.820333 184.248118 
L 203.102294 183.807263 
L 203.384254 182.752289 
L 203.666215 182.965482 
L 204.512097 188.44986 
L 204.794057 189.782863 
L 205.357978 194.595531 
L 205.639939 191.426628 
L 205.921899 178.89425 
L 206.767781 127.63633 
L 207.049742 121.057591 
L 207.331702 118.794143 
L 207.613663 119.183352 
L 207.895624 120.234698 
L 208.177584 119.639676 
L 208.459545 117.029382 
L 209.023466 108.33674 
L 209.305427 102.97945 
L 209.587387 99.983056 
L 209.869348 101.065749 
L 210.433269 108.36745 
L 210.715229 114.836648 
L 211.279151 139.03887 
L 212.125032 179.439148 
L 212.406993 185.217269 
L 212.688954 183.840236 
L 213.252875 176.939089 
L 213.816796 174.055817 
L 214.098756 173.758518 
L 214.380717 174.236416 
L 214.662678 174.225219 
L 215.226599 172.956114 
L 215.79052 173.042789 
L 216.918362 171.377924 
L 217.200323 171.604908 
L 217.764244 172.783379 
L 218.046205 173.260046 
L 218.610126 175.293331 
L 218.892086 175.425341 
L 219.456008 173.258357 
L 219.737968 174.032641 
L 220.019929 175.83958 
L 220.58385 177.613218 
L 220.865811 180.367999 
L 221.429732 191.096932 
L 221.711692 194.210503 
L 222.275613 197.006501 
L 222.839535 199.039372 
L 223.121495 199.932083 
L 223.403456 198.532162 
L 223.685416 190.193134 
L 224.813259 122.578439 
L 225.095219 119.000611 
L 225.37718 118.711055 
L 225.659141 118.923508 
L 225.941101 118.586804 
L 226.223062 116.952956 
L 226.786983 108.979272 
L 227.350904 102.677696 
L 227.632865 101.635275 
L 227.914825 103.188717 
L 228.196786 108.954581 
L 229.042668 136.247179 
L 229.888549 177.356795 
L 230.17051 181.095251 
L 230.45247 178.646936 
L 231.016392 171.429464 
L 231.580313 166.548832 
L 231.862273 165.518391 
L 232.144234 166.02246 
L 232.708155 169.107026 
L 232.990116 169.756909 
L 233.554037 168.784343 
L 233.835998 168.955943 
L 234.117958 169.398392 
L 234.681879 168.947488 
L 234.96384 170.671113 
L 235.527761 177.611104 
L 235.809722 178.518704 
L 236.091682 178.713766 
L 236.655603 181.806256 
L 236.937564 181.543499 
L 237.501485 178.151344 
L 237.783446 178.847536 
L 238.065406 180.328558 
L 238.347367 180.894826 
L 238.629327 180.97656 
L 238.911288 182.853794 
L 239.475209 191.56426 
L 239.75717 193.33926 
L 240.03913 193.184572 
L 240.321091 193.877279 
L 240.603052 195.982337 
L 240.885012 195.931243 
L 241.166973 189.392469 
L 241.730894 156.350926 
L 242.294815 122.41201 
L 242.576776 113.388055 
L 242.858736 110.972121 
L 243.422657 116.200683 
L 243.704618 116.021111 
L 244.268539 109.696939 
L 244.83246 107.079915 
L 245.114421 105.829394 
L 245.396382 106.122274 
L 245.678342 109.622006 
L 246.242263 121.733735 
L 246.524224 130.859414 
L 247.370106 174.769749 
L 247.652066 180.674699 
L 247.934027 180.524849 
L 248.779909 171.841964 
L 249.061869 170.552 
L 249.34383 170.358886 
L 249.62579 170.69989 
L 249.907751 171.392395 
L 250.471672 173.370031 
L 250.753633 173.231998 
L 251.035593 172.741998 
L 251.599514 173.077798 
L 252.163436 171.794565 
L 252.445396 172.341619 
L 253.855199 179.231253 
L 254.41912 180.116535 
L 254.701081 181.2037 
L 255.828923 187.750958 
L 256.110884 188.278257 
L 256.392844 189.361046 
L 256.956766 193.592131 
L 257.238726 193.855031 
L 257.520687 193.62714 
L 257.802647 194.982383 
L 258.084608 197.449416 
L 258.366569 197.124517 
L 258.648529 189.922959 
L 259.21245 156.029038 
L 259.776371 123.073158 
L 260.058332 114.11355 
L 260.340293 111.079727 
L 260.904214 112.50865 
L 261.186174 110.914287 
L 262.314017 100.123536 
L 262.595977 98.450861 
L 262.877938 97.605957 
L 263.159898 98.261458 
L 263.441859 102.082537 
L 263.72382 109.890305 
L 264.287741 136.311194 
L 264.851662 174.84613 
L 265.133623 185.738189 
L 265.415583 186.488703 
L 266.261465 175.642592 
L 266.543425 172.534106 
L 266.825386 171.22835 
L 267.107347 172.586073 
L 267.389307 174.583094 
L 267.671268 175.428025 
L 267.953228 175.504307 
L 268.235189 176.025986 
L 268.79911 177.991775 
L 269.081071 177.718622 
L 269.644992 175.030094 
L 269.926953 174.896126 
L 270.208913 175.752512 
L 270.772834 178.548127 
L 271.336755 181.537242 
L 271.900677 183.013246 
L 272.464598 187.859569 
L 272.746558 190.068679 
L 273.028519 190.908827 
L 273.31048 191.196556 
L 273.59244 192.468024 
L 274.156361 197.827481 
L 275.002243 201.851424 
L 275.566164 206.352465 
L 276.130085 210.282674 
L 276.412046 208.191338 
L 276.694007 196.633371 
L 277.821849 118.255931 
L 278.10381 109.785946 
L 278.38577 105.445672 
L 278.949691 100.432743 
L 280.641455 68.481594 
L 280.923415 68.472733 
L 281.205376 76.100118 
L 282.051258 114.341782 
L 283.1791 191.768082 
L 283.461061 193.535278 
L 284.024982 186.979821 
L 284.588903 180.701361 
L 285.152824 178.339782 
L 285.434785 176.452446 
L 285.716745 175.695197 
L 286.280667 178.342617 
L 286.562627 177.787998 
L 286.844588 176.95303 
L 287.126548 178.19308 
L 287.408509 180.824443 
L 287.690469 182.190812 
L 287.97243 181.686971 
L 288.254391 180.868985 
L 288.536351 181.011982 
L 289.382233 183.034637 
L 289.946154 184.417466 
L 290.510075 186.612883 
L 290.792036 188.740531 
L 291.919878 200.659352 
L 292.201839 202.722345 
L 293.047721 211.898825 
L 293.329681 212.185596 
L 293.611642 211.89678 
L 293.893602 210.847629 
L 294.175563 203.671609 
L 294.457524 185.094631 
L 295.021445 135.421125 
L 295.303405 121.044093 
L 295.867326 107.932532 
L 296.431248 101.207084 
L 296.713208 97.722438 
L 297.55909 81.523304 
L 298.123011 70.522979 
L 298.404972 68.420081 
L 298.686932 70.273387 
L 298.968893 76.129303 
L 299.250853 86.871259 
L 299.814775 126.413918 
L 300.378696 176.123042 
L 300.660656 191.329663 
L 300.942617 195.665558 
L 301.224578 192.631118 
L 301.788499 184.092135 
L 302.070459 181.270376 
L 302.35242 179.608391 
L 302.634381 179.650825 
L 302.916341 180.375721 
L 303.198302 180.307506 
L 303.480262 179.497191 
L 303.762223 179.268458 
L 304.326144 180.565653 
L 304.890065 180.971598 
L 305.172026 180.943724 
L 305.735947 180.179932 
L 306.017908 180.745303 
L 306.299868 181.761798 
L 306.581829 182.031348 
L 306.863789 181.923392 
L 307.14575 183.744884 
L 307.709671 191.973934 
L 307.991632 193.487177 
L 308.273592 194.269716 
L 308.837513 199.997736 
L 309.119474 200.327338 
L 309.401435 198.235085 
L 309.683395 197.832263 
L 310.247316 203.884851 
L 310.811238 204.919891 
L 311.093198 207.852516 
L 311.375159 209.612859 
L 311.657119 203.217474 
L 312.22104 163.20208 
L 312.784962 123.618938 
L 313.348883 103.209258 
L 313.912804 90.737331 
L 314.476725 83.877125 
L 315.040646 72.515414 
L 315.322607 70.309693 
L 315.886528 69.611709 
L 316.168489 72.137331 
L 316.450449 80.273822 
L 317.01437 108.124059 
L 318.142213 189.443864 
L 318.424173 189.533128 
L 318.988095 184.073685 
L 319.270055 183.15327 
L 319.833976 183.862656 
L 320.115937 183.402479 
L 320.397897 183.267879 
L 320.679858 184.667524 
L 320.961819 185.503926 
L 321.243779 183.629297 
L 321.52574 180.824224 
L 321.8077 179.96276 
L 322.089661 180.192337 
L 322.371622 179.710084 
L 322.653582 179.71836 
L 323.217503 184.300494 
L 323.499464 184.76613 
L 323.781424 184.739225 
L 324.345346 188.341723 
L 324.909267 188.52779 
L 325.191227 191.545466 
L 325.755149 199.234864 
L 326.037109 200.728259 
L 326.31907 203.109429 
L 327.728873 220.033381 
L 328.292794 225.806918 
L 328.574754 225.588593 
L 328.856715 214.868833 
L 330.266518 107.764068 
L 330.830439 86.066704 
L 331.39436 72.384627 
L 331.958281 66.413355 
L 332.522203 56.156883 
L 332.804163 54.389723 
L 333.086124 54.835494 
L 333.368084 56.213257 
L 333.650045 59.80103 
L 333.932006 66.486103 
L 334.213966 77.094492 
L 334.495927 95.579699 
L 335.341809 184.591396 
L 335.623769 195.093176 
L 335.90573 196.142288 
L 336.18769 194.746259 
L 336.469651 192.439957 
L 337.033572 186.435476 
L 337.315533 186.866888 
L 337.597493 188.747805 
L 337.879454 189.633611 
L 338.161414 189.52788 
L 338.443375 189.625383 
L 338.725336 189.985536 
L 339.007296 189.583559 
L 339.571217 187.397194 
L 339.853178 187.210639 
L 340.135138 187.529566 
L 340.98102 189.029912 
L 341.262981 189.314037 
L 341.544941 190.431096 
L 343.800626 211.753856 
L 344.646508 223.985065 
L 344.928468 226.193539 
L 345.210429 230.510691 
L 345.49239 236.893394 
L 345.77435 240.294087 
L 346.056311 235.336516 
L 346.338271 220.106695 
L 347.748074 111.494003 
L 348.311995 89.069341 
L 349.439838 64.268246 
L 350.003759 55.099438 
L 350.56768 48.471454 
L 350.849641 46.320412 
L 351.131601 45.284246 
L 351.413562 45.774819 
L 351.695523 52.352597 
L 351.977483 71.548867 
L 352.823365 165.750213 
L 353.105325 180.235165 
L 353.387286 187.149444 
L 353.669247 190.335518 
L 353.951207 189.707631 
L 354.515128 182.960381 
L 354.797089 183.62263 
L 355.07905 185.837549 
L 355.36101 186.497568 
L 355.642971 186.241139 
L 355.924931 187.326012 
L 356.206892 189.503527 
L 356.488852 190.611252 
L 356.770813 190.552127 
L 357.052774 190.946447 
L 357.616695 193.042814 
L 357.898655 193.735631 
L 358.744537 197.606741 
L 359.026498 198.486856 
L 359.308458 201.148882 
L 359.87238 208.755273 
L 361.000222 216.708965 
L 361.282182 220.144669 
L 362.128064 233.888732 
L 362.973946 243.856926 
L 363.255907 240.530717 
L 363.537867 226.522671 
L 364.665709 137.256543 
L 365.511591 95.88853 
L 366.075512 81.088385 
L 366.639434 69.940416 
L 367.767276 45.260901 
L 368.049237 41.663944 
L 368.331197 40.792452 
L 368.613158 41.942923 
L 368.895118 46.938581 
L 369.177079 61.878887 
L 370.304921 174.516874 
L 370.586882 181.437523 
L 370.868842 182.492435 
L 371.432764 181.71748 
L 371.714724 181.505279 
L 371.996685 181.79789 
L 373.124527 185.31232 
L 373.406488 187.05881 
L 373.688448 187.512846 
L 373.970409 186.733688 
L 374.252369 187.497815 
L 374.816291 193.294932 
L 375.380212 195.11281 
L 375.944133 199.780912 
L 376.226094 201.207137 
L 377.071975 207.791705 
L 377.353936 207.044989 
L 377.635896 207.482082 
L 378.481778 218.571979 
L 378.763739 222.099787 
L 380.173542 246.850557 
L 380.455502 246.49717 
L 380.737463 237.556549 
L 381.301384 191.098323 
L 382.147266 118.200736 
L 382.429226 102.491806 
L 382.993148 87.889671 
L 383.275108 80.594366 
L 384.402951 42.586204 
L 384.966872 25.317077 
L 385.248832 20.314368 
L 385.530793 21.189751 
L 385.812753 26.238792 
L 386.094714 35.867099 
L 386.376675 56.184102 
L 387.222556 159.277652 
L 387.504517 172.274484 
L 387.786478 175.82772 
L 388.350399 179.716274 
L 388.632359 179.434888 
L 388.91432 177.917158 
L 389.19628 178.247031 
L 390.042162 188.185755 
L 390.324123 188.241681 
L 390.606083 188.48248 
L 391.451965 193.372324 
L 391.733926 194.156755 
L 393.143729 200.836944 
L 393.98961 207.021967 
L 394.553532 212.627805 
L 395.117453 219.996578 
L 395.963335 234.521355 
L 396.527256 242.165166 
L 397.091177 250.755517 
L 397.373137 252.643502 
L 397.655098 251.276179 
L 397.937059 243.251704 
L 398.219019 225.3391 
L 399.346862 126.798944 
L 399.910783 102.446733 
L 400.756665 71.798897 
L 401.884507 21.311213 
L 402.166467 17.070087 
L 402.448428 15.828764 
L 402.730389 18.731769 
L 403.012349 26.612278 
L 403.29431 38.093003 
L 403.57627 54.164615 
L 404.140192 114.374545 
L 404.704113 173.606345 
L 404.986073 183.907367 
L 405.268034 186.582981 
L 405.549994 187.078447 
L 405.831955 186.55714 
L 406.395876 184.004687 
L 406.677837 184.819298 
L 407.523719 191.443728 
L 408.3696 194.830031 
L 408.651561 194.985343 
L 408.933522 194.665559 
L 409.215482 195.554158 
L 409.779403 199.918544 
L 410.343324 201.245578 
L 411.189206 208.256448 
L 411.753127 208.207298 
L 412.035088 209.959795 
L 413.16293 222.739479 
L 414.008812 242.178462 
L 414.572733 248.112396 
L 414.854694 251.363755 
L 415.136654 247.908097 
L 415.418615 232.983519 
L 417.110379 99.238862 
L 417.6743 77.375609 
L 418.520181 34.568255 
L 418.802142 25.689767 
L 419.084103 20.830722 
L 419.366063 19.094011 
L 419.648024 20.085255 
L 419.929984 24.475001 
L 420.493906 42.690969 
L 420.775866 58.4877 
L 421.339787 117.808644 
L 421.903708 174.687447 
L 422.185669 186.532843 
L 422.46763 191.218092 
L 422.74959 192.489735 
L 423.031551 191.496079 
L 423.595472 187.178923 
L 423.877433 185.940565 
L 424.159393 186.243222 
L 425.005275 193.812271 
L 425.287236 193.647487 
L 425.569196 192.933724 
L 425.851157 193.028563 
L 426.133117 193.557349 
L 426.415078 193.385167 
L 426.697038 192.80113 
L 426.978999 193.195342 
L 427.26096 195.433129 
L 427.824881 201.141275 
L 428.388802 203.191193 
L 428.670763 204.430037 
L 429.234684 209.793841 
L 430.926447 231.893704 
L 431.490368 241.034893 
L 432.05429 246.84921 
L 432.33625 245.131842 
L 432.618211 233.968289 
L 433.182132 186.153924 
L 434.028014 113.331859 
L 434.591935 86.229955 
L 435.155856 62.819375 
L 435.719777 31.00546 
L 436.001738 21.958134 
L 436.283698 18.699996 
L 436.565659 18.074532 
L 436.84762 19.310694 
L 437.12958 24.375997 
L 437.693501 47.04605 
L 437.975462 65.210778 
L 438.539383 128.285142 
L 438.821344 161.170912 
L 439.103304 180.935542 
L 439.385265 186.92919 
L 439.667225 186.365221 
L 440.231147 183.675922 
L 440.795068 179.649749 
L 441.077028 179.633146 
L 441.64095 183.027352 
L 441.92291 183.865037 
L 442.204871 185.505517 
L 442.768792 190.171636 
L 443.050752 190.000683 
L 443.332713 190.75833 
L 443.896634 198.073656 
L 444.178595 199.323717 
L 444.460555 199.606466 
L 445.306437 204.291826 
L 445.588398 206.611316 
L 447.280161 227.867239 
L 447.562122 229.208925 
L 447.844082 232.697517 
L 448.408004 241.659395 
L 448.971925 248.591722 
L 449.253885 247.952886 
L 449.535846 237.005941 
L 450.099767 184.703224 
L 450.663688 127.811688 
L 451.791531 58.450086 
L 452.355452 36.538228 
L 452.919373 26.611631 
L 453.201334 25.301817 
L 453.483294 24.943233 
L 453.765255 25.160071 
L 454.047215 28.797714 
L 454.611136 48.571743 
L 454.893097 62.471575 
L 455.175058 83.674396 
L 456.020939 170.561708 
L 456.3029 184.830565 
L 456.584861 190.87777 
L 456.866821 191.875765 
L 457.148782 191.071215 
L 457.430742 191.180085 
L 457.712703 192.450724 
L 457.994663 192.741007 
L 458.276624 191.540797 
L 458.558585 190.958821 
L 458.840545 192.528783 
L 459.122506 194.787606 
L 459.404466 195.895904 
L 459.686427 195.977735 
L 459.968388 196.384532 
L 460.532309 197.932622 
L 461.09623 198.058016 
L 461.378191 198.566472 
L 461.660151 199.70401 
L 461.942112 201.55948 
L 462.787993 208.95501 
L 463.351915 212.192198 
L 463.915836 217.011269 
L 464.761718 227.43945 
L 466.453481 252.004106 
L 466.735442 248.130181 
L 467.017402 232.347718 
L 467.581323 169.802543 
L 468.145245 111.596901 
L 468.991126 57.73651 
L 469.555048 36.470774 
L 470.118969 27.255612 
L 470.400929 24.393792 
L 470.68289 24.971033 
L 471.246811 33.309656 
L 471.810732 44.659638 
L 472.092693 53.625877 
L 472.374653 66.341582 
L 472.656614 86.229828 
L 473.502496 177.224622 
L 473.784456 191.828692 
L 474.066417 196.686666 
L 474.348377 198.119622 
L 474.630338 198.811028 
L 474.912299 197.900588 
L 475.47622 190.767364 
L 475.75818 187.439589 
L 476.040141 186.231723 
L 476.886023 188.211457 
L 477.167983 188.356145 
L 477.449944 188.892709 
L 477.731905 190.242253 
L 478.577786 197.806848 
L 479.141707 199.259316 
L 480.26955 205.040494 
L 480.55151 207.229881 
L 481.397392 216.22048 
L 481.961313 219.903829 
L 483.371116 242.133931 
L 483.653077 249.376899 
L 483.935037 252.031225 
L 484.216998 244.099883 
L 484.498959 225.054731 
L 486.190722 68.832509 
L 486.754643 42.857358 
L 487.318564 29.826329 
L 487.600525 26.589437 
L 487.882486 26.616946 
L 488.728367 35.078746 
L 489.010328 40.715333 
L 489.574249 59.070911 
L 489.85621 72.681994 
L 490.420131 125.980929 
L 490.984052 177.209769 
L 491.266013 188.617408 
L 491.547973 194.542182 
L 491.829934 196.90338 
L 492.111894 195.948061 
L 492.675816 190.253767 
L 492.957776 188.810114 
L 493.239737 189.473689 
L 493.803658 194.109091 
L 494.367579 195.390258 
L 494.9315 198.287362 
L 495.495421 198.6164 
L 496.059343 200.12911 
L 496.341303 199.808665 
L 496.623264 199.852694 
L 496.905224 201.153471 
L 498.596988 212.589669 
L 500.006791 226.915326 
L 501.134633 244.625788 
L 501.416594 245.434127 
L 501.698554 239.050325 
L 501.980515 221.735266 
L 503.672278 63.213956 
L 504.2362 42.089835 
L 504.800121 31.51992 
L 505.082081 29.708853 
L 505.364042 30.026898 
L 505.646003 32.129336 
L 506.209924 39.565794 
L 506.773845 49.992101 
L 507.055805 60.056544 
L 507.619727 99.414453 
L 508.465608 175.259865 
L 508.747569 190.244937 
L 509.02953 197.767099 
L 509.31149 199.277511 
L 509.593451 197.361578 
L 510.157372 192.711886 
L 510.439333 191.767386 
L 510.721293 191.601352 
L 511.003254 192.153952 
L 511.567175 193.767057 
L 511.849135 193.906768 
L 512.131096 194.171452 
L 512.413057 194.761726 
L 512.695017 194.809354 
L 512.976978 194.200318 
L 513.258938 194.116117 
L 513.540899 195.612437 
L 514.10482 199.348235 
L 514.386781 200.236571 
L 514.668741 201.888035 
L 515.232662 208.589621 
L 516.360505 223.734457 
L 516.642465 226.597048 
L 517.206387 235.544224 
L 518.052268 248.791699 
L 518.334229 252.443658 
L 518.61619 253.015553 
L 518.89815 246.06317 
L 519.180111 227.661822 
L 520.589914 81.09272 
L 521.435795 48.502195 
L 521.999717 31.995656 
L 522.281677 29.957838 
L 522.563638 30.947217 
L 522.845598 33.55643 
L 523.409519 41.943168 
L 523.973441 53.690309 
L 524.537362 70.574521 
L 524.819322 83.896001 
L 525.383244 130.561074 
L 525.947165 177.260456 
L 526.229125 189.326667 
L 526.511086 195.166656 
L 526.793047 197.599439 
L 527.075007 198.283318 
L 527.356968 197.330393 
L 527.920889 191.494895 
L 528.202849 188.721178 
L 528.48481 187.184028 
L 528.766771 187.296222 
L 529.612652 192.309726 
L 529.894613 192.186627 
L 530.176574 192.447556 
L 530.740495 195.238076 
L 531.022455 196.026666 
L 531.304416 197.672158 
L 532.714219 214.592756 
L 533.27814 223.22358 
L 534.124022 229.689854 
L 534.687943 237.144427 
L 536.097746 257.748764 
L 536.379706 248.056949 
L 536.661667 223.810615 
L 537.789509 90.560385 
L 538.353431 58.451874 
L 538.635391 50.396279 
L 539.481273 37.042776 
L 539.763233 35.818783 
L 540.327155 40.510441 
L 540.609115 39.344256 
L 540.891076 39.186134 
L 541.173036 43.296143 
L 541.736958 54.758142 
L 542.018918 64.344088 
L 542.582839 106.61975 
L 543.146761 156.904567 
L 543.428721 174.410692 
L 543.710682 183.938905 
L 544.556563 196.493674 
L 544.838524 197.452038 
L 545.120485 195.878424 
L 545.402445 195.130409 
L 546.248327 200.297842 
L 546.530288 201.090534 
L 547.094209 205.50669 
L 547.376169 206.044645 
L 547.94009 201.899599 
L 548.222051 201.889099 
L 548.785972 204.131281 
L 549.067933 204.551106 
L 549.631854 206.290684 
L 549.913815 207.436788 
L 550.195775 209.528721 
L 551.041657 219.88882 
L 553.015381 249.357509 
L 553.297342 251.822007 
L 553.579302 248.097409 
L 553.861263 232.15072 
L 554.425184 167.714326 
L 554.989105 103.741929 
L 555.553026 68.514292 
L 556.116947 53.21968 
L 556.680869 42.720453 
L 556.962829 40.857881 
L 557.24479 41.517917 
L 557.52675 42.489052 
L 557.808711 42.187386 
L 558.090672 42.824098 
L 558.372632 47.190748 
L 559.218514 69.140974 
L 559.500475 82.393681 
L 561.192238 191.645486 
L 561.474199 196.393864 
L 561.756159 198.407322 
L 562.03812 198.553192 
L 562.32008 197.691519 
L 562.602041 198.077738 
L 562.884002 199.669315 
L 563.165962 199.802804 
L 563.447923 197.867744 
L 563.729883 196.965724 
L 564.011844 198.24754 
L 564.293804 198.983796 
L 564.857726 196.246017 
L 565.139686 197.097865 
L 566.549489 205.598746 
L 566.83145 205.78152 
L 567.11341 207.341746 
L 568.805174 227.596711 
L 569.651056 241.913662 
L 569.933016 243.064794 
L 570.214977 244.735042 
L 570.496937 247.626995 
L 570.778898 244.193668 
L 571.060859 225.511437 
L 572.188701 92.897472 
L 572.752622 62.239312 
L 573.316543 44.817959 
L 573.598504 40.141801 
L 573.880464 38.297616 
L 574.162425 39.114194 
L 575.290267 48.366619 
L 575.854189 57.198086 
L 576.136149 63.237436 
L 576.41811 72.331952 
L 576.982031 105.546968 
L 577.827913 164.233852 
L 578.391834 187.165022 
L 578.673794 192.48414 
L 578.955755 194.690319 
L 579.237716 194.825394 
L 579.519676 193.604942 
L 580.083597 190.180694 
L 580.365558 190.553905 
L 581.21144 196.483807 
L 581.4934 197.401938 
L 581.775361 197.287562 
L 582.057321 196.678449 
L 582.339282 197.399952 
L 582.903203 202.254294 
L 583.185164 203.404105 
L 583.467124 205.387698 
L 584.313006 218.032145 
L 584.594967 219.544622 
L 584.876927 222.949315 
L 585.158888 228.212469 
L 585.440848 231.382672 
L 586.00477 230.691416 
L 586.28673 234.103592 
L 586.850651 243.838816 
L 587.132612 246.639597 
L 587.696533 254.503214 
L 587.978494 250.673957 
L 588.260454 231.698555 
L 589.388297 93.007355 
L 589.952218 63.69485 
L 590.516139 47.91459 
L 590.7981 44.489426 
L 591.08006 42.500722 
L 591.362021 41.765511 
L 591.643981 42.120695 
L 591.925942 43.04527 
L 592.207903 44.641557 
L 593.335745 57.347559 
L 593.617705 65.762762 
L 594.181627 96.019049 
L 595.309469 161.472176 
L 595.87339 187.316592 
L 596.155351 195.955335 
L 596.437311 199.823552 
L 596.719272 200.735707 
L 597.001232 200.94561 
L 597.283193 200.762994 
L 598.129075 198.558369 
L 598.411035 198.692359 
L 598.692996 199.352645 
L 599.256917 201.934588 
L 600.948681 210.197975 
L 602.076523 219.073655 
L 603.486326 235.891515 
L 604.614168 253.732335 
L 604.896129 256.787338 
L 605.178089 255.159789 
L 605.46005 241.720154 
L 606.023971 171.302052 
L 606.587892 104.035557 
L 607.151814 71.257746 
L 607.715735 51.075808 
L 607.997695 44.139893 
L 608.279656 40.450059 
L 608.561617 40.336812 
L 608.843577 41.485097 
L 609.125538 41.770884 
L 609.407498 43.346626 
L 610.535341 64.412192 
L 610.817301 69.070837 
L 611.381222 93.263594 
L 613.072986 176.733279 
L 613.354946 186.493105 
L 613.636907 191.984644 
L 613.918868 193.228198 
L 614.200828 193.133976 
L 614.482789 193.651117 
L 614.764749 193.296431 
L 615.328671 189.522362 
L 615.610631 191.119381 
L 616.174552 196.616364 
L 616.456513 197.222649 
L 616.738474 198.638289 
L 617.302395 203.927137 
L 617.866316 207.672795 
L 618.430237 212.632457 
L 618.994158 215.170589 
L 619.276119 217.656023 
L 619.84004 226.619445 
L 620.685922 239.809604 
L 621.531803 251.89103 
L 622.095725 254.301966 
L 622.377685 255.204528 
L 622.659646 251.116278 
L 622.941606 234.176188 
L 624.351409 83.285157 
L 624.915331 59.729078 
L 625.479252 46.930624 
L 625.761212 44.442659 
L 626.043173 43.96049 
L 626.325133 45.036987 
L 627.171015 50.893242 
L 627.734936 56.467157 
L 628.016897 60.146608 
L 628.298858 66.338869 
L 628.580818 77.196606 
L 629.990621 151.010195 
L 630.554542 172.047713 
L 631.400424 190.150495 
L 631.682385 194.328738 
L 631.964345 195.015753 
L 632.246306 195.39951 
L 632.528266 196.143806 
L 632.810227 198.143742 
L 633.092188 192.797178 
L 633.092188 192.797178 
" clip-path="url(#pb26c6c6e71)" style="fill: none; stroke: #1f77b4; stroke-width: 1.5; stroke-linecap: square"/>
   </g>
   <g id="patch_3">
    <path d="M 47.192188 269.844764 
L 47.192188 3.732764 
" style="fill: none; stroke: #000000; stroke-width: 0.8; stroke-linejoin: miter; stroke-linecap: square"/>
   </g>
   <g id="patch_4">
    <path d="M 660.992188 269.844764 
L 660.992188 3.732764 
" style="fill: none; stroke: #000000; stroke-width: 0.8; stroke-linejoin: miter; stroke-linecap: square"/>
   </g>
   <g id="patch_5">
    <path d="M 47.192188 269.844764 
L 660.992188 269.844764 
" style="fill: none; stroke: #000000; stroke-width: 0.8; stroke-linejoin: miter; stroke-linecap: square"/>
   </g>
   <g id="patch_6">
    <path d="M 47.192188 3.732764 
L 660.992188 3.732764 
" style="fill: none; stroke: #000000; stroke-width: 0.8; stroke-linejoin: miter; stroke-linecap: square"/>
   </g>
  </g>
 </g>
 <defs>
  <clipPath id="pb26c6c6e71">
   <rect x="47.192188" y="3.732764" width="613.8" height="266.112"/>
  </clipPath>
 </defs>
</svg>
