<?xml version="1.0" encoding="utf-8" standalone="no"?>
<!DOCTYPE svg PUBLIC "-//W3C//DTD SVG 1.1//EN"
  "http://www.w3.org/Graphics/SVG/1.1/DTD/svg11.dtd">
<svg xmlns:xlink="http://www.w3.org/1999/xlink" width="660.992188pt" height="282.790125pt" viewBox="0 0 660.992188 282.790125" xmlns="http://www.w3.org/2000/svg" version="1.1">
 <metadata>
  <rdf:RDF xmlns:dc="http://purl.org/dc/elements/1.1/" xmlns:cc="http://creativecommons.org/ns#" xmlns:rdf="http://www.w3.org/1999/02/22-rdf-syntax-ns#">
   <cc:Work>
    <dc:type rdf:resource="http://purl.org/dc/dcmitype/StillImage"/>
    <dc:date>2023-03-06T19:25:47.416973</dc:date>
    <dc:format>image/svg+xml</dc:format>
    <dc:creator>
     <cc:Agent>
      <dc:title>Matplotlib v3.6.3, https://matplotlib.org/</dc:title>
     </cc:Agent>
    </dc:creator>
   </cc:Work>
  </rdf:RDF>
 </metadata>
 <defs>
  <style type="text/css">*{stroke-linejoin: round; stroke-linecap: butt}</style>
 </defs>
 <g id="figure_1">
  <g id="patch_1">
   <path d="M -0 282.790125 
L 660.992188 282.790125 
L 660.992188 0 
L -0 0 
L -0 282.790125 
z
" style="fill: none"/>
  </g>
  <g id="axes_1">
   <g id="patch_2">
    <path d="M 47.192188 266.112 
L 660.992188 266.112 
L 660.992188 0 
L 47.192188 0 
L 47.192188 266.112 
z
" style="fill: none"/>
   </g>
   <g id="matplotlib.axis_1">
    <g id="xtick_1">
     <g id="line2d_1">
      <defs>
       <path id="m40060fc89b" d="M 0 0 
L 0 3.5 
" style="stroke: #000000; stroke-width: 0.8"/>
      </defs>
      <g>
       <use xlink:href="#m40060fc89b" x="75.092188" y="266.112" style="stroke: #000000; stroke-width: 0.8"/>
      </g>
     </g>
     <g id="text_1">
      <!-- 0 -->
      <g transform="translate(71.910938 280.710438) scale(0.1 -0.1)">
       <defs>
        <path id="DejaVuSans-30" d="M 2034 4250 
Q 1547 4250 1301 3770 
Q 1056 3291 1056 2328 
Q 1056 1369 1301 889 
Q 1547 409 2034 409 
Q 2525 409 2770 889 
Q 3016 1369 3016 2328 
Q 3016 3291 2770 3770 
Q 2525 4250 2034 4250 
z
M 2034 4750 
Q 2819 4750 3233 4129 
Q 3647 3509 3647 2328 
Q 3647 1150 3233 529 
Q 2819 -91 2034 -91 
Q 1250 -91 836 529 
Q 422 1150 422 2328 
Q 422 3509 836 4129 
Q 1250 4750 2034 4750 
z
" transform="scale(0.015625)"/>
       </defs>
       <use xlink:href="#DejaVuSans-30"/>
      </g>
     </g>
    </g>
    <g id="xtick_2">
     <g id="line2d_2">
      <g>
       <use xlink:href="#m40060fc89b" x="144.842188" y="266.112" style="stroke: #000000; stroke-width: 0.8"/>
      </g>
     </g>
     <g id="text_2">
      <!-- 500 -->
      <g transform="translate(135.298438 280.710438) scale(0.1 -0.1)">
       <defs>
        <path id="DejaVuSans-35" d="M 691 4666 
L 3169 4666 
L 3169 4134 
L 1269 4134 
L 1269 2991 
Q 1406 3038 1543 3061 
Q 1681 3084 1819 3084 
Q 2600 3084 3056 2656 
Q 3513 2228 3513 1497 
Q 3513 744 3044 326 
Q 2575 -91 1722 -91 
Q 1428 -91 1123 -41 
Q 819 9 494 109 
L 494 744 
Q 775 591 1075 516 
Q 1375 441 1709 441 
Q 2250 441 2565 725 
Q 2881 1009 2881 1497 
Q 2881 1984 2565 2268 
Q 2250 2553 1709 2553 
Q 1456 2553 1204 2497 
Q 953 2441 691 2322 
L 691 4666 
z
" transform="scale(0.015625)"/>
       </defs>
       <use xlink:href="#DejaVuSans-35"/>
       <use xlink:href="#DejaVuSans-30" x="63.623047"/>
       <use xlink:href="#DejaVuSans-30" x="127.246094"/>
      </g>
     </g>
    </g>
    <g id="xtick_3">
     <g id="line2d_3">
      <g>
       <use xlink:href="#m40060fc89b" x="214.592188" y="266.112" style="stroke: #000000; stroke-width: 0.8"/>
      </g>
     </g>
     <g id="text_3">
      <!-- 1000 -->
      <g transform="translate(201.867188 280.710438) scale(0.1 -0.1)">
       <defs>
        <path id="DejaVuSans-31" d="M 794 531 
L 1825 531 
L 1825 4091 
L 703 3866 
L 703 4441 
L 1819 4666 
L 2450 4666 
L 2450 531 
L 3481 531 
L 3481 0 
L 794 0 
L 794 531 
z
" transform="scale(0.015625)"/>
       </defs>
       <use xlink:href="#DejaVuSans-31"/>
       <use xlink:href="#DejaVuSans-30" x="63.623047"/>
       <use xlink:href="#DejaVuSans-30" x="127.246094"/>
       <use xlink:href="#DejaVuSans-30" x="190.869141"/>
      </g>
     </g>
    </g>
    <g id="xtick_4">
     <g id="line2d_4">
      <g>
       <use xlink:href="#m40060fc89b" x="284.342188" y="266.112" style="stroke: #000000; stroke-width: 0.8"/>
      </g>
     </g>
     <g id="text_4">
      <!-- 1500 -->
      <g transform="translate(271.617188 280.710438) scale(0.1 -0.1)">
       <use xlink:href="#DejaVuSans-31"/>
       <use xlink:href="#DejaVuSans-35" x="63.623047"/>
       <use xlink:href="#DejaVuSans-30" x="127.246094"/>
       <use xlink:href="#DejaVuSans-30" x="190.869141"/>
      </g>
     </g>
    </g>
    <g id="xtick_5">
     <g id="line2d_5">
      <g>
       <use xlink:href="#m40060fc89b" x="354.092188" y="266.112" style="stroke: #000000; stroke-width: 0.8"/>
      </g>
     </g>
     <g id="text_5">
      <!-- 2000 -->
      <g transform="translate(341.367188 280.710438) scale(0.1 -0.1)">
       <defs>
        <path id="DejaVuSans-32" d="M 1228 531 
L 3431 531 
L 3431 0 
L 469 0 
L 469 531 
Q 828 903 1448 1529 
Q 2069 2156 2228 2338 
Q 2531 2678 2651 2914 
Q 2772 3150 2772 3378 
Q 2772 3750 2511 3984 
Q 2250 4219 1831 4219 
Q 1534 4219 1204 4116 
Q 875 4013 500 3803 
L 500 4441 
Q 881 4594 1212 4672 
Q 1544 4750 1819 4750 
Q 2544 4750 2975 4387 
Q 3406 4025 3406 3419 
Q 3406 3131 3298 2873 
Q 3191 2616 2906 2266 
Q 2828 2175 2409 1742 
Q 1991 1309 1228 531 
z
" transform="scale(0.015625)"/>
       </defs>
       <use xlink:href="#DejaVuSans-32"/>
       <use xlink:href="#DejaVuSans-30" x="63.623047"/>
       <use xlink:href="#DejaVuSans-30" x="127.246094"/>
       <use xlink:href="#DejaVuSans-30" x="190.869141"/>
      </g>
     </g>
    </g>
    <g id="xtick_6">
     <g id="line2d_6">
      <g>
       <use xlink:href="#m40060fc89b" x="423.842188" y="266.112" style="stroke: #000000; stroke-width: 0.8"/>
      </g>
     </g>
     <g id="text_6">
      <!-- 2500 -->
      <g transform="translate(411.117188 280.710438) scale(0.1 -0.1)">
       <use xlink:href="#DejaVuSans-32"/>
       <use xlink:href="#DejaVuSans-35" x="63.623047"/>
       <use xlink:href="#DejaVuSans-30" x="127.246094"/>
       <use xlink:href="#DejaVuSans-30" x="190.869141"/>
      </g>
     </g>
    </g>
    <g id="xtick_7">
     <g id="line2d_7">
      <g>
       <use xlink:href="#m40060fc89b" x="493.592188" y="266.112" style="stroke: #000000; stroke-width: 0.8"/>
      </g>
     </g>
     <g id="text_7">
      <!-- 3000 -->
      <g transform="translate(480.867188 280.710438) scale(0.1 -0.1)">
       <defs>
        <path id="DejaVuSans-33" d="M 2597 2516 
Q 3050 2419 3304 2112 
Q 3559 1806 3559 1356 
Q 3559 666 3084 287 
Q 2609 -91 1734 -91 
Q 1441 -91 1130 -33 
Q 819 25 488 141 
L 488 750 
Q 750 597 1062 519 
Q 1375 441 1716 441 
Q 2309 441 2620 675 
Q 2931 909 2931 1356 
Q 2931 1769 2642 2001 
Q 2353 2234 1838 2234 
L 1294 2234 
L 1294 2753 
L 1863 2753 
Q 2328 2753 2575 2939 
Q 2822 3125 2822 3475 
Q 2822 3834 2567 4026 
Q 2313 4219 1838 4219 
Q 1578 4219 1281 4162 
Q 984 4106 628 3988 
L 628 4550 
Q 988 4650 1302 4700 
Q 1616 4750 1894 4750 
Q 2613 4750 3031 4423 
Q 3450 4097 3450 3541 
Q 3450 3153 3228 2886 
Q 3006 2619 2597 2516 
z
" transform="scale(0.015625)"/>
       </defs>
       <use xlink:href="#DejaVuSans-33"/>
       <use xlink:href="#DejaVuSans-30" x="63.623047"/>
       <use xlink:href="#DejaVuSans-30" x="127.246094"/>
       <use xlink:href="#DejaVuSans-30" x="190.869141"/>
      </g>
     </g>
    </g>
    <g id="xtick_8">
     <g id="line2d_8">
      <g>
       <use xlink:href="#m40060fc89b" x="563.342188" y="266.112" style="stroke: #000000; stroke-width: 0.8"/>
      </g>
     </g>
     <g id="text_8">
      <!-- 3500 -->
      <g transform="translate(550.617188 280.710438) scale(0.1 -0.1)">
       <use xlink:href="#DejaVuSans-33"/>
       <use xlink:href="#DejaVuSans-35" x="63.623047"/>
       <use xlink:href="#DejaVuSans-30" x="127.246094"/>
       <use xlink:href="#DejaVuSans-30" x="190.869141"/>
      </g>
     </g>
    </g>
    <g id="xtick_9">
     <g id="line2d_9">
      <g>
       <use xlink:href="#m40060fc89b" x="633.092188" y="266.112" style="stroke: #000000; stroke-width: 0.8"/>
      </g>
     </g>
     <g id="text_9">
      <!-- 4000 -->
      <g transform="translate(620.367188 280.710438) scale(0.1 -0.1)">
       <defs>
        <path id="DejaVuSans-34" d="M 2419 4116 
L 825 1625 
L 2419 1625 
L 2419 4116 
z
M 2253 4666 
L 3047 4666 
L 3047 1625 
L 3713 1625 
L 3713 1100 
L 3047 1100 
L 3047 0 
L 2419 0 
L 2419 1100 
L 313 1100 
L 313 1709 
L 2253 4666 
z
" transform="scale(0.015625)"/>
       </defs>
       <use xlink:href="#DejaVuSans-34"/>
       <use xlink:href="#DejaVuSans-30" x="63.623047"/>
       <use xlink:href="#DejaVuSans-30" x="127.246094"/>
       <use xlink:href="#DejaVuSans-30" x="190.869141"/>
      </g>
     </g>
    </g>
   </g>
   <g id="matplotlib.axis_2">
    <g id="ytick_1">
     <g id="line2d_10">
      <defs>
       <path id="m359daa3e93" d="M 0 0 
L -3.5 0 
" style="stroke: #000000; stroke-width: 0.8"/>
      </defs>
      <g>
       <use xlink:href="#m359daa3e93" x="47.192188" y="257.220214" style="stroke: #000000; stroke-width: 0.8"/>
      </g>
     </g>
     <g id="text_10">
      <!-- −10000 -->
      <g transform="translate(0 261.019433) scale(0.1 -0.1)">
       <defs>
        <path id="DejaVuSans-2212" d="M 678 2272 
L 4684 2272 
L 4684 1741 
L 678 1741 
L 678 2272 
z
" transform="scale(0.015625)"/>
       </defs>
       <use xlink:href="#DejaVuSans-2212"/>
       <use xlink:href="#DejaVuSans-31" x="83.789062"/>
       <use xlink:href="#DejaVuSans-30" x="147.412109"/>
       <use xlink:href="#DejaVuSans-30" x="211.035156"/>
       <use xlink:href="#DejaVuSans-30" x="274.658203"/>
       <use xlink:href="#DejaVuSans-30" x="338.28125"/>
      </g>
     </g>
    </g>
    <g id="ytick_2">
     <g id="line2d_11">
      <g>
       <use xlink:href="#m359daa3e93" x="47.192188" y="202.407963" style="stroke: #000000; stroke-width: 0.8"/>
      </g>
     </g>
     <g id="text_11">
      <!-- −5000 -->
      <g transform="translate(6.3625 206.207181) scale(0.1 -0.1)">
       <use xlink:href="#DejaVuSans-2212"/>
       <use xlink:href="#DejaVuSans-35" x="83.789062"/>
       <use xlink:href="#DejaVuSans-30" x="147.412109"/>
       <use xlink:href="#DejaVuSans-30" x="211.035156"/>
       <use xlink:href="#DejaVuSans-30" x="274.658203"/>
      </g>
     </g>
    </g>
    <g id="ytick_3">
     <g id="line2d_12">
      <g>
       <use xlink:href="#m359daa3e93" x="47.192188" y="147.595712" style="stroke: #000000; stroke-width: 0.8"/>
      </g>
     </g>
     <g id="text_12">
      <!-- 0 -->
      <g transform="translate(33.829688 151.39493) scale(0.1 -0.1)">
       <use xlink:href="#DejaVuSans-30"/>
      </g>
     </g>
    </g>
    <g id="ytick_4">
     <g id="line2d_13">
      <g>
       <use xlink:href="#m359daa3e93" x="47.192188" y="92.783461" style="stroke: #000000; stroke-width: 0.8"/>
      </g>
     </g>
     <g id="text_13">
      <!-- 5000 -->
      <g transform="translate(14.742188 96.582679) scale(0.1 -0.1)">
       <use xlink:href="#DejaVuSans-35"/>
       <use xlink:href="#DejaVuSans-30" x="63.623047"/>
       <use xlink:href="#DejaVuSans-30" x="127.246094"/>
       <use xlink:href="#DejaVuSans-30" x="190.869141"/>
      </g>
     </g>
    </g>
    <g id="ytick_5">
     <g id="line2d_14">
      <g>
       <use xlink:href="#m359daa3e93" x="47.192188" y="37.97121" style="stroke: #000000; stroke-width: 0.8"/>
      </g>
     </g>
     <g id="text_14">
      <!-- 10000 -->
      <g transform="translate(8.379688 41.770428) scale(0.1 -0.1)">
       <use xlink:href="#DejaVuSans-31"/>
       <use xlink:href="#DejaVuSans-30" x="63.623047"/>
       <use xlink:href="#DejaVuSans-30" x="127.246094"/>
       <use xlink:href="#DejaVuSans-30" x="190.869141"/>
       <use xlink:href="#DejaVuSans-30" x="254.492188"/>
      </g>
     </g>
    </g>
   </g>
   <g id="line2d_15">
    <path d="M 75.092188 147.578214 
L 75.938069 147.611317 
L 76.783951 147.581519 
L 77.911793 147.582889 
L 79.321596 147.607398 
L 80.731399 147.58469 
L 82.141202 147.606471 
L 83.551005 147.584788 
L 84.960808 147.60738 
L 86.370611 147.582257 
L 87.216493 147.611269 
L 88.062374 147.576243 
L 88.908256 147.624214 
L 89.190217 147.560935 
L 89.472177 147.641548 
L 89.754138 147.523957 
L 90.036099 147.824841 
L 90.318059 148.854048 
L 90.88198 155.82849 
L 91.163941 155.537386 
L 91.445901 154.484559 
L 91.727862 152.859506 
L 92.291783 141.979115 
L 92.573744 140.97727 
L 92.855704 143.535983 
L 93.137665 143.016456 
L 93.419626 139.216885 
L 93.701586 137.524839 
L 93.983547 137.738505 
L 94.265507 135.704626 
L 94.829429 129.130277 
L 95.111389 122.661593 
L 95.67531 103.680554 
L 95.957271 109.807537 
L 96.239231 121.74051 
L 96.521192 126.547361 
L 96.803153 125.465833 
L 97.085113 128.678877 
L 97.649034 142.999381 
L 97.930995 144.511607 
L 98.494916 145.995949 
L 98.776877 144.654835 
L 99.058837 141.837634 
L 99.340798 140.391955 
L 99.904719 143.207331 
L 100.18668 139.789518 
L 100.750601 122.659027 
L 101.032561 124.806974 
L 101.314522 130.783024 
L 101.596483 130.039123 
L 101.878443 125.667168 
L 102.160404 128.793804 
L 102.724325 146.19233 
L 103.288246 149.247417 
L 104.134128 165.461598 
L 104.416088 165.081847 
L 104.698049 163.395396 
L 105.26197 165.390419 
L 105.543931 159.349739 
L 105.825891 150.066564 
L 106.107852 147.796704 
L 106.389813 150.358194 
L 106.671773 146.266727 
L 106.953734 136.31514 
L 107.235694 132.183313 
L 107.517655 135.108877 
L 107.799615 136.075848 
L 108.081576 133.434418 
L 108.363537 132.960601 
L 109.209418 142.460548 
L 109.491379 142.076304 
L 110.0553 129.364801 
L 110.337261 128.445704 
L 110.619221 128.861172 
L 110.901182 124.221693 
L 111.183143 117.607627 
L 111.465103 114.389829 
L 111.747064 114.609493 
L 112.029024 119.079509 
L 112.592945 136.767849 
L 112.874906 137.422615 
L 113.156867 140.354061 
L 113.720788 166.855582 
L 114.002748 162.253986 
L 114.284709 147.955095 
L 114.56667 141.554162 
L 114.84863 143.532364 
L 115.130591 142.47979 
L 115.976472 122.598107 
L 116.258433 124.329314 
L 116.540394 129.00375 
L 116.822354 129.953781 
L 117.104315 128.377166 
L 117.386275 134.337818 
L 117.950197 156.890182 
L 118.232157 155.203488 
L 118.514118 154.875315 
L 118.796078 161.611913 
L 119.078039 165.248247 
L 119.36 159.004213 
L 119.64196 150.016651 
L 119.923921 145.784357 
L 120.205881 145.32433 
L 120.487842 145.664773 
L 120.769802 145.565595 
L 121.051763 144.530601 
L 121.333724 145.288651 
L 121.615684 151.990421 
L 121.897645 161.556941 
L 122.179605 165.550011 
L 122.743527 160.782941 
L 123.307448 163.597817 
L 123.589408 160.07982 
L 124.43529 136.46168 
L 125.281172 128.480395 
L 125.563132 124.775639 
L 125.845093 124.963899 
L 126.127054 126.397646 
L 126.409014 125.07752 
L 126.690975 122.872983 
L 126.972935 123.060142 
L 127.536857 125.31739 
L 127.818817 128.350825 
L 128.664699 149.839299 
L 129.22862 152.835755 
L 129.792541 159.242926 
L 130.074502 155.524489 
L 130.356462 146.761724 
L 130.638423 142.19151 
L 130.920384 144.126246 
L 131.202344 144.983445 
L 131.484305 142.83177 
L 131.766265 144.648661 
L 132.048226 150.350328 
L 132.330186 151.257756 
L 132.612147 147.25377 
L 132.894108 147.143715 
L 133.176068 151.312922 
L 133.458029 152.408409 
L 133.739989 151.042007 
L 134.02195 153.383315 
L 134.303911 157.486259 
L 134.585871 157.789705 
L 134.867832 156.095896 
L 135.149792 156.536009 
L 135.995674 160.47005 
L 136.277635 161.420394 
L 136.841556 158.358842 
L 137.405477 163.049939 
L 137.687438 162.670761 
L 137.969398 162.881974 
L 138.251359 165.221214 
L 138.533319 165.481652 
L 139.097241 158.799003 
L 139.379201 153.7603 
L 140.225083 114.887268 
L 140.789004 109.740456 
L 141.070965 104.595369 
L 141.352925 103.385219 
L 141.634886 112.854438 
L 142.198807 138.157311 
L 142.480768 139.023528 
L 142.762728 138.195574 
L 143.60861 148.268176 
L 143.890571 145.882096 
L 144.172531 144.92315 
L 144.454492 145.612081 
L 144.736452 145.162622 
L 145.018413 144.085771 
L 145.300373 145.019455 
L 145.864295 150.017389 
L 146.146255 150.126842 
L 146.428216 147.754068 
L 146.710176 143.979201 
L 146.992137 142.052165 
L 147.274098 144.092054 
L 147.556058 147.282132 
L 147.838019 148.063083 
L 148.119979 147.918107 
L 148.6839 151.852601 
L 148.965861 151.91642 
L 149.247822 152.965986 
L 149.529782 156.950994 
L 149.811743 158.855733 
L 150.375664 153.116756 
L 150.939585 157.979365 
L 151.503506 152.64251 
L 152.067428 165.14852 
L 152.349388 166.671042 
L 152.631349 164.982712 
L 152.913309 165.066526 
L 153.19527 166.272627 
L 153.47723 166.516604 
L 153.759191 165.557377 
L 154.041152 162.288936 
L 154.323112 157.045172 
L 154.605073 153.906245 
L 154.887033 152.824865 
L 155.168994 147.115636 
L 155.450955 136.423373 
L 155.732915 130.793379 
L 156.014876 133.464628 
L 156.296836 133.859455 
L 156.860757 118.880842 
L 157.142718 119.072204 
L 157.424679 122.022414 
L 157.706639 123.122511 
L 157.9886 124.719326 
L 158.552521 130.923539 
L 158.834482 135.789214 
L 159.398403 152.02894 
L 159.680363 152.974963 
L 159.962324 151.494642 
L 160.526245 154.928626 
L 160.808206 150.571117 
L 161.372127 135.809525 
L 161.654087 134.898952 
L 161.936048 136.815322 
L 162.218009 137.856931 
L 162.499969 137.074485 
L 162.78193 138.119774 
L 163.06389 145.595969 
L 163.627812 167.116044 
L 163.909772 168.918265 
L 164.191733 167.606191 
L 164.473693 169.084895 
L 164.755654 172.194188 
L 165.037614 171.377207 
L 165.601536 159.880441 
L 165.883496 158.441489 
L 166.447417 162.446814 
L 166.729378 162.605592 
L 167.293299 159.435821 
L 167.57526 162.118918 
L 168.139181 171.638407 
L 168.703102 170.313643 
L 168.985063 170.31753 
L 169.267023 164.927471 
L 169.830944 140.679612 
L 170.958787 115.40746 
L 171.240747 114.649027 
L 171.522708 114.782442 
L 171.804669 113.650628 
L 172.086629 114.094919 
L 172.36859 117.920619 
L 172.932511 128.114734 
L 173.778393 137.991878 
L 174.060353 140.633812 
L 174.342314 140.406772 
L 174.624274 138.968594 
L 174.906235 141.848092 
L 175.470156 154.349902 
L 175.752117 154.282016 
L 176.034077 153.471738 
L 176.316038 153.903105 
L 176.597999 153.003311 
L 176.879959 151.698737 
L 177.16192 152.735111 
L 177.44388 152.584705 
L 178.007801 142.67763 
L 178.289762 144.60302 
L 178.571723 148.531343 
L 179.135644 148.029514 
L 179.699565 157.673636 
L 179.981526 156.44713 
L 180.263486 154.252604 
L 180.545447 157.135469 
L 180.827407 161.486656 
L 181.109368 161.990891 
L 181.391328 160.840074 
L 181.673289 162.183428 
L 181.95525 166.144757 
L 182.801131 182.468255 
L 183.365053 178.938876 
L 183.647013 182.823726 
L 183.928974 183.948706 
L 184.210934 172.356245 
L 184.774856 140.97281 
L 185.056816 134.457992 
L 185.902698 107.411007 
L 186.184658 106.334718 
L 186.466619 104.675107 
L 186.74858 104.294268 
L 187.03054 110.021509 
L 187.312501 118.044235 
L 187.594461 122.039476 
L 187.876422 124.211617 
L 188.440343 133.216534 
L 188.722304 134.797582 
L 189.004264 137.134549 
L 189.286225 142.015483 
L 189.568185 144.782218 
L 189.850146 143.772812 
L 190.132107 143.542423 
L 190.414067 145.430003 
L 190.696028 145.898717 
L 190.977988 145.330028 
L 191.54191 150.044404 
L 191.82387 148.5228 
L 192.105831 145.810229 
L 192.387791 148.092669 
L 192.669752 152.578977 
L 192.951713 152.146637 
L 193.233673 148.900559 
L 193.515634 150.263137 
L 193.797594 155.128571 
L 194.079555 157.008283 
L 194.361515 156.308356 
L 194.643476 157.570362 
L 195.207397 162.078401 
L 195.771318 165.963589 
L 196.053279 165.186949 
L 196.33524 166.786495 
L 196.899161 181.58321 
L 197.463082 177.426352 
L 197.745042 182.81058 
L 198.027003 183.692019 
L 198.308964 177.353066 
L 198.590924 184.993537 
L 198.872885 210.599951 
L 199.154845 220.385231 
L 200.000727 153.336619 
L 200.282688 144.959854 
L 200.846609 101.149511 
L 201.12857 97.543375 
L 201.41053 96.151828 
L 201.692491 86.258135 
L 201.974451 81.638937 
L 202.538372 96.313424 
L 202.820333 96.674427 
L 203.102294 101.719803 
L 203.666215 125.174903 
L 203.948175 128.717127 
L 205.076018 136.557704 
L 205.639939 142.746287 
L 206.485821 144.759399 
L 207.049742 143.972511 
L 207.331702 145.006767 
L 207.895624 148.952041 
L 208.177584 152.831979 
L 209.305427 178.459491 
L 209.587387 179.541085 
L 209.869348 179.44109 
L 210.151308 181.264239 
L 210.715229 186.376578 
L 210.99719 188.164884 
L 211.561111 195.176527 
L 211.843072 195.756364 
L 212.125032 194.892829 
L 212.406993 196.149556 
L 212.970914 201.796435 
L 213.252875 203.547229 
L 213.816796 212.010365 
L 214.098756 210.539945 
L 214.380717 198.795661 
L 215.226599 140.358868 
L 215.79052 94.346674 
L 216.072481 85.037312 
L 216.354441 82.407551 
L 216.918362 68.74316 
L 217.200323 68.396525 
L 218.046205 92.312986 
L 218.328165 98.489613 
L 219.174047 125.178794 
L 219.456008 125.816761 
L 219.737968 125.185506 
L 220.301889 130.722653 
L 220.865811 128.419564 
L 221.147771 133.94097 
L 221.429732 141.641964 
L 221.711692 142.556743 
L 221.993653 139.331448 
L 222.275613 142.129345 
L 222.839535 160.162017 
L 224.249338 180.644451 
L 224.531298 181.195671 
L 225.095219 171.839549 
L 225.37718 173.470844 
L 225.659141 178.931585 
L 225.941101 181.296634 
L 226.223062 180.970388 
L 226.505022 184.764389 
L 227.068943 204.271469 
L 227.350904 208.091308 
L 227.914825 203.902845 
L 228.196786 205.717174 
L 228.760707 217.525414 
L 229.042668 217.437493 
L 229.324628 209.535573 
L 229.888549 175.597387 
L 231.016392 75.482093 
L 231.580313 58.286083 
L 231.862273 51.731718 
L 232.144234 49.292176 
L 232.426195 55.035911 
L 233.272076 88.017183 
L 233.835998 117.087501 
L 234.681879 137.330444 
L 234.96384 140.235682 
L 235.527761 127.162772 
L 235.809722 127.478152 
L 236.091682 132.747195 
L 236.373643 135.254603 
L 236.655603 136.110033 
L 236.937564 141.073715 
L 237.219525 148.422107 
L 237.501485 152.308783 
L 237.783446 153.208146 
L 238.065406 155.324126 
L 238.911288 164.720459 
L 239.475209 176.763766 
L 239.75717 177.662461 
L 240.03913 179.398627 
L 240.603052 192.302614 
L 240.885012 194.219916 
L 241.166973 193.917198 
L 241.448933 195.913222 
L 242.012855 202.818844 
L 242.294815 203.461502 
L 242.576776 203.58843 
L 242.858736 205.431166 
L 243.422657 214.217497 
L 243.704618 221.113299 
L 243.986579 230.843385 
L 244.268539 236.360059 
L 244.5505 226.454407 
L 245.396382 144.181853 
L 245.960303 83.426507 
L 246.242263 69.047285 
L 246.524224 68.18854 
L 246.806184 64.720277 
L 247.088145 56.01175 
L 247.370106 55.422625 
L 247.934027 70.257616 
L 248.215987 69.675632 
L 248.497948 74.564847 
L 249.061869 100.93382 
L 249.62579 113.654999 
L 249.907751 116.533305 
L 250.189712 116.178399 
L 250.471672 116.530071 
L 252.445396 146.979295 
L 253.009317 158.563538 
L 253.291278 159.783196 
L 253.573239 161.885319 
L 254.41912 180.226515 
L 254.983041 185.523054 
L 255.546963 191.748345 
L 255.828923 194.040752 
L 256.110884 197.432254 
L 256.956766 212.702207 
L 257.238726 213.289874 
L 257.520687 211.178117 
L 257.802647 211.767863 
L 258.366569 223.520827 
L 258.93049 226.486548 
L 259.21245 230.764246 
L 259.494411 227.059717 
L 259.776371 206.037546 
L 261.186174 56.684285 
L 261.468135 48.416994 
L 261.750096 48.434478 
L 262.314017 35.578117 
L 262.595977 43.21305 
L 262.877938 57.139506 
L 263.72382 82.443933 
L 264.00578 97.069343 
L 264.287741 105.785832 
L 265.133623 116.006398 
L 265.697544 120.573779 
L 266.261465 129.43781 
L 266.543425 134.284373 
L 266.825386 136.676276 
L 267.107347 137.382716 
L 267.389307 141.528297 
L 267.953228 160.187229 
L 268.235189 163.311851 
L 268.51715 163.942535 
L 268.79911 168.342571 
L 269.363031 182.065843 
L 270.490874 193.225093 
L 270.772834 197.04989 
L 271.618716 212.516453 
L 271.900677 213.183648 
L 272.182637 215.071824 
L 272.746558 221.649376 
L 273.028519 221.853411 
L 273.31048 223.398867 
L 274.156361 235.222012 
L 274.438322 235.959855 
L 274.720282 223.242723 
L 275.848125 100.885815 
L 276.130085 67.015879 
L 276.412046 46.706002 
L 276.975967 41.8753 
L 277.257928 33.567847 
L 277.539888 31.46857 
L 278.38577 60.413914 
L 278.667731 68.720894 
L 279.231652 98.707924 
L 279.513612 107.207318 
L 279.795573 110.962548 
L 280.077534 112.72501 
L 280.359494 113.490827 
L 280.641455 114.992022 
L 281.769297 127.929431 
L 282.051258 130.06983 
L 282.333218 134.008468 
L 283.743021 167.911876 
L 284.306942 173.509941 
L 285.716745 195.74899 
L 286.280667 201.920533 
L 286.844588 214.290505 
L 287.126548 216.796708 
L 287.408509 216.24646 
L 287.690469 217.074134 
L 288.254391 223.771116 
L 288.818312 226.851952 
L 289.382233 238.531564 
L 289.664194 233.662933 
L 289.946154 210.155319 
L 290.510075 149.398801 
L 291.073996 100.10545 
L 291.355957 71.854629 
L 291.637918 56.287443 
L 291.919878 52.904963 
L 292.201839 47.687337 
L 292.483799 38.228097 
L 292.76576 35.905892 
L 293.611642 61.090295 
L 294.739484 102.377165 
L 295.021445 105.521275 
L 295.585366 114.309893 
L 295.867326 115.833161 
L 296.149287 116.535134 
L 296.431248 120.886057 
L 296.713208 128.259513 
L 296.995169 132.42848 
L 297.277129 132.268952 
L 297.55909 135.557924 
L 298.404972 167.330878 
L 298.686932 170.921103 
L 298.968893 172.257212 
L 299.250853 171.702896 
L 299.532814 172.09619 
L 300.660656 187.787551 
L 300.942617 195.168283 
L 301.788499 224.962869 
L 302.634381 237.829026 
L 302.916341 241.435497 
L 303.198302 240.501406 
L 303.762223 232.033114 
L 304.044183 233.37841 
L 304.326144 239.600288 
L 304.608105 242.78006 
L 304.890065 229.875189 
L 305.453986 154.958603 
L 306.299868 43.78647 
L 306.581829 24.909108 
L 307.42771 12.096 
L 307.709671 15.925713 
L 308.273592 46.501244 
L 308.837513 59.847288 
L 310.247316 120.760997 
L 310.529277 118.135973 
L 310.811238 116.645036 
L 311.375159 129.366591 
L 311.657119 125.88772 
L 311.93908 120.676298 
L 312.22104 122.587965 
L 313.066922 137.585849 
L 314.194765 174.438946 
L 314.476725 190.550737 
L 314.758686 197.011533 
L 315.040646 194.50611 
L 315.322607 195.871867 
L 315.886528 210.252267 
L 316.168489 211.396545 
L 316.450449 214.385834 
L 317.01437 224.947724 
L 317.860252 235.276074 
L 318.142213 236.309264 
L 318.988095 245.084838 
L 319.270055 246.337031 
L 319.552016 252.052615 
L 319.833976 248.684187 
L 320.115937 220.531527 
L 320.961819 104.177131 
L 321.52574 41.806485 
L 321.8077 31.383136 
L 322.089661 28.255256 
L 322.371622 22.461004 
L 322.653582 22.792227 
L 323.217503 49.07631 
L 323.499464 55.417477 
L 323.781424 64.630161 
L 324.345346 95.130641 
L 324.627306 97.764317 
L 324.909267 97.605526 
L 325.473188 104.811618 
L 325.755149 105.563044 
L 326.037109 107.630781 
L 326.882991 125.266419 
L 327.164952 129.031204 
L 327.728873 138.731895 
L 328.010833 140.186914 
L 328.292794 143.415048 
L 328.856715 164.879012 
L 329.138676 169.43428 
L 329.420636 171.078015 
L 330.266518 194.104753 
L 330.548479 194.813626 
L 330.830439 199.67795 
L 331.1124 206.577614 
L 331.39436 209.121679 
L 331.676321 209.782056 
L 331.958281 214.558078 
L 332.522203 228.18221 
L 332.804163 231.41374 
L 333.650045 236.12493 
L 333.932006 240.520091 
L 334.495927 254.016 
L 334.777887 250.666756 
L 335.059848 229.975844 
L 336.18769 91.518038 
L 336.469651 52.111661 
L 336.751611 32.880145 
L 337.033572 32.06697 
L 337.315533 29.206603 
L 337.597493 19.255162 
L 337.879454 17.467589 
L 339.853178 98.049331 
L 341.262981 122.602892 
L 341.544941 124.771944 
L 341.826902 129.869933 
L 342.108863 137.63618 
L 342.390823 141.047305 
L 342.672784 138.98453 
L 342.954744 139.816092 
L 343.518666 153.927726 
L 343.800626 156.831181 
L 344.082587 161.678772 
L 344.646508 180.450067 
L 344.928468 183.148573 
L 345.210429 184.251997 
L 345.49239 190.365224 
L 346.338271 219.90175 
L 347.466114 236.174257 
L 347.748074 233.916258 
L 348.030035 225.851547 
L 348.311995 220.990323 
L 348.593956 224.612341 
L 348.875917 230.089368 
L 349.157877 232.456575 
L 349.439838 237.928496 
L 349.721798 246.368787 
L 350.003759 240.431154 
L 351.131601 113.633361 
L 351.695523 43.361095 
L 351.977483 35.767993 
L 352.259444 35.812393 
L 352.823365 21.774337 
L 353.105325 29.820349 
L 353.669247 51.361678 
L 353.951207 59.885835 
L 354.797089 102.433171 
L 355.36101 119.093444 
L 355.642971 120.916917 
L 355.924931 120.893725 
L 356.206892 123.240213 
L 357.052774 135.927736 
L 357.334734 141.10165 
L 357.616695 141.788014 
L 357.898655 139.458206 
L 358.180616 141.553471 
L 358.744537 158.6441 
L 359.308458 165.015493 
L 360.15434 190.193204 
L 360.436301 191.189587 
L 360.718261 194.420946 
L 361.000222 200.396702 
L 361.282182 203.848016 
L 361.564143 205.273019 
L 362.973946 224.872212 
L 363.255907 223.029968 
L 363.537867 215.351508 
L 363.819828 215.048081 
L 364.383749 237.797795 
L 364.665709 241.903242 
L 364.94767 239.130776 
L 365.229631 224.837043 
L 366.921394 43.66921 
L 367.203355 41.206319 
L 367.485315 40.665398 
L 367.767276 33.099753 
L 368.049237 31.192692 
L 369.177079 74.178767 
L 369.741 108.668339 
L 370.022961 115.878051 
L 370.868842 125.983774 
L 371.150803 127.248794 
L 371.432764 130.079199 
L 371.996685 137.6347 
L 372.560606 142.616189 
L 372.842566 143.309725 
L 373.124527 144.627514 
L 373.406488 149.439828 
L 373.970409 162.154057 
L 374.53433 167.610241 
L 375.098251 180.481177 
L 375.380212 183.592173 
L 375.662172 184.219302 
L 375.944133 187.21785 
L 376.508054 197.698714 
L 376.790015 198.95264 
L 377.071975 199.698801 
L 377.353936 201.032016 
L 377.635896 199.344719 
L 378.199818 189.482168 
L 378.481778 193.973346 
L 378.763739 202.871512 
L 379.045699 206.701642 
L 379.32766 206.773323 
L 379.609621 215.177633 
L 379.891581 232.551912 
L 380.173542 239.179358 
L 380.455502 219.626431 
L 381.301384 118.691672 
L 381.865305 68.060953 
L 382.147266 59.058482 
L 382.429226 55.489443 
L 382.711187 49.543164 
L 382.993148 46.249434 
L 383.275108 51.754701 
L 383.839029 73.21419 
L 384.684911 115.875717 
L 385.812753 133.760252 
L 386.094714 134.08876 
L 386.376675 137.982093 
L 386.658635 144.45254 
L 387.504517 154.485861 
L 387.786478 155.571442 
L 388.350399 146.330444 
L 388.632359 149.35502 
L 388.91432 154.471691 
L 389.19628 156.224736 
L 389.478241 159.675502 
L 390.042162 175.198969 
L 390.324123 172.384009 
L 390.606083 166.073808 
L 390.888044 165.520222 
L 391.451965 174.871693 
L 392.015886 177.428476 
L 392.297847 183.192558 
L 392.861768 205.194517 
L 393.143729 206.69093 
L 393.425689 206.183639 
L 393.98961 220.754534 
L 394.271571 213.852409 
L 394.553532 201.949877 
L 394.835492 204.932113 
L 395.117453 215.034862 
L 395.399413 205.136368 
L 395.963335 145.294299 
L 396.527256 106.408284 
L 396.809216 79.75803 
L 397.091177 66.175523 
L 397.373137 68.340056 
L 397.655098 68.30167 
L 397.937059 60.407091 
L 398.219019 59.236093 
L 399.064901 93.764789 
L 399.346862 101.351084 
L 399.910783 120.614619 
L 401.038625 134.981955 
L 401.320586 135.114698 
L 401.602546 137.031339 
L 402.166467 147.689696 
L 402.448428 145.292152 
L 402.730389 139.791737 
L 403.012349 140.177003 
L 403.858231 163.071682 
L 404.140192 163.028671 
L 404.422152 164.016993 
L 404.986073 171.209782 
L 405.268034 166.543526 
L 405.549994 159.24548 
L 405.831955 160.585247 
L 406.395876 178.273122 
L 406.959797 171.450338 
L 407.241758 177.811931 
L 407.523719 189.309333 
L 407.805679 195.773809 
L 408.08764 195.942631 
L 408.3696 195.725209 
L 408.651561 198.795013 
L 408.933522 203.54964 
L 409.215482 205.640454 
L 409.779403 200.783894 
L 410.061364 201.156348 
L 410.343324 198.524362 
L 410.625285 184.646209 
L 412.035088 74.32744 
L 412.317049 68.075668 
L 412.599009 65.595235 
L 412.88097 61.792041 
L 413.16293 61.217934 
L 413.444891 68.936056 
L 414.008812 88.479403 
L 414.290773 94.465638 
L 415.418615 128.564897 
L 415.982536 130.46293 
L 416.546457 133.828326 
L 416.828418 138.83957 
L 417.392339 155.191427 
L 417.95626 160.446373 
L 418.520181 176.584938 
L 418.802142 174.731756 
L 419.084103 167.542204 
L 419.366063 164.848965 
L 419.648024 166.013975 
L 419.929984 164.934412 
L 420.211945 162.954233 
L 420.493906 163.39647 
L 420.775866 163.12159 
L 421.057827 160.935858 
L 421.339787 162.197502 
L 421.621748 167.306445 
L 421.903708 169.418965 
L 422.185669 168.034943 
L 422.46763 169.480567 
L 422.74959 173.404494 
L 423.313511 176.624772 
L 423.877433 184.852765 
L 424.159393 183.952133 
L 424.441354 186.510716 
L 424.723314 193.698359 
L 425.005275 193.428512 
L 426.415078 128.422285 
L 426.697038 109.980217 
L 426.978999 99.866905 
L 427.26096 96.955581 
L 427.54292 96.08937 
L 428.106841 90.966959 
L 428.388802 93.525353 
L 429.234684 122.571776 
L 429.516644 123.828624 
L 429.798605 129.703155 
L 430.080565 139.195316 
L 430.362526 143.692587 
L 430.644487 140.637503 
L 430.926447 135.690959 
L 431.208408 133.83634 
L 431.490368 135.534994 
L 432.05429 142.361341 
L 432.618211 146.81 
L 432.900171 149.848536 
L 433.182132 150.862626 
L 433.746053 147.033753 
L 434.028014 149.042216 
L 434.309974 152.224015 
L 434.873895 154.614546 
L 435.437817 159.350585 
L 435.719777 159.237753 
L 436.283698 157.113127 
L 436.565659 157.102517 
L 436.84762 160.063031 
L 437.12958 165.659257 
L 437.411541 168.636838 
L 437.693501 167.289181 
L 437.975462 168.031996 
L 438.539383 178.71735 
L 439.103304 175.944355 
L 439.667225 182.114453 
L 439.949186 183.562137 
L 440.231147 185.664258 
L 440.513107 184.286956 
L 440.795068 172.128276 
L 441.358989 140.985644 
L 441.64095 131.563155 
L 442.204871 105.019389 
L 442.486831 102.24529 
L 442.768792 104.910678 
L 443.050752 102.229031 
L 443.332713 97.582758 
L 443.614674 101.100737 
L 443.896634 110.289298 
L 444.178595 115.607413 
L 444.460555 117.830553 
L 445.306437 134.191241 
L 445.588398 133.843421 
L 445.870358 136.974335 
L 446.152319 142.037789 
L 446.434279 142.505841 
L 446.71624 139.517855 
L 446.998201 140.077124 
L 447.562122 147.517727 
L 447.844082 147.132751 
L 448.126043 147.279028 
L 448.408004 148.562166 
L 448.689964 148.75191 
L 448.971925 149.228528 
L 449.535846 154.486685 
L 450.099767 151.060937 
L 450.381728 153.05841 
L 450.663688 156.442275 
L 450.945649 157.445639 
L 451.227609 157.269398 
L 451.50957 158.619 
L 451.791531 162.789423 
L 452.637412 187.574397 
L 452.919373 187.629088 
L 453.201334 187.479253 
L 453.483294 189.689798 
L 453.765255 188.539064 
L 454.329176 175.784747 
L 454.611136 174.103751 
L 454.893097 174.637991 
L 455.457018 177.40034 
L 455.738979 171.673501 
L 456.866821 110.466835 
L 457.148782 100.724207 
L 457.430742 96.078926 
L 457.712703 95.424193 
L 457.994663 95.282242 
L 458.276624 98.480899 
L 458.840545 119.304815 
L 459.122506 124.327277 
L 459.404466 126.468913 
L 459.968388 135.049688 
L 460.814269 141.124489 
L 461.09623 141.733561 
L 461.378191 141.818844 
L 461.942112 145.564367 
L 462.224072 146.169861 
L 462.787993 148.868122 
L 463.351915 144.482679 
L 463.633875 146.765712 
L 463.915836 150.995036 
L 464.197796 150.622595 
L 464.479757 148.775179 
L 464.761718 153.740566 
L 465.043678 163.719656 
L 465.325639 169.134713 
L 465.88956 165.693405 
L 466.17152 167.812368 
L 466.453481 171.21843 
L 466.735442 171.284683 
L 467.581323 158.922034 
L 467.863284 160.223242 
L 468.145245 162.430785 
L 468.427205 163.031887 
L 468.709166 162.831162 
L 468.991126 163.491886 
L 469.273087 164.575754 
L 469.837008 165.144924 
L 470.400929 168.875307 
L 470.68289 165.893704 
L 472.374653 114.482745 
L 472.938575 118.806077 
L 473.502496 113.317339 
L 473.784456 116.663469 
L 474.066417 122.120931 
L 474.630338 125.74163 
L 474.912299 130.628465 
L 475.75818 153.079651 
L 476.040141 155.790763 
L 476.322102 152.985607 
L 476.604062 151.871773 
L 476.886023 156.64642 
L 477.167983 159.078148 
L 477.731905 143.382212 
L 478.013865 142.489333 
L 478.295826 145.26935 
L 478.577786 144.042755 
L 478.859747 141.705151 
L 479.423668 145.566638 
L 479.705629 144.190211 
L 479.987589 143.488227 
L 480.55151 151.064306 
L 481.115432 153.137371 
L 481.679353 157.963952 
L 481.961313 158.225366 
L 482.243274 159.956415 
L 482.525234 162.858244 
L 482.807195 163.049069 
L 483.089156 160.767072 
L 483.371116 160.694773 
L 483.653077 164.824994 
L 484.216998 176.075545 
L 484.498959 178.88113 
L 484.780919 179.445269 
L 485.06288 180.750681 
L 485.34484 183.777616 
L 485.626801 181.881898 
L 486.472683 140.789936 
L 486.754643 137.456235 
L 487.036604 131.233173 
L 487.318564 121.11155 
L 487.600525 115.817914 
L 488.164446 119.380388 
L 488.446407 118.369773 
L 488.728367 118.18049 
L 489.292289 122.643309 
L 489.574249 125.915689 
L 490.13817 136.745128 
L 490.420131 139.272936 
L 490.702091 140.612565 
L 491.266013 145.169063 
L 491.547973 144.954675 
L 492.111894 139.954573 
L 492.957776 127.810249 
L 493.239737 126.336928 
L 493.803658 124.925809 
L 494.085619 127.002612 
L 494.367579 136.896118 
L 494.9315 168.313048 
L 495.213461 172.517454 
L 495.777382 166.666403 
L 496.341303 170.685857 
L 496.623264 169.766141 
L 496.905224 169.700085 
L 497.187185 172.233178 
L 497.469146 173.618996 
L 497.751106 172.399967 
L 498.033067 172.611661 
L 498.315027 174.687658 
L 498.596988 172.355701 
L 499.160909 157.513283 
L 499.44287 157.557348 
L 499.72483 158.410201 
L 500.006791 156.37837 
L 500.288751 157.246749 
L 500.570712 163.467511 
L 500.852673 166.764546 
L 501.134633 161.507343 
L 501.698554 147.89941 
L 503.108357 120.300639 
L 503.390318 113.906134 
L 503.672278 116.142912 
L 503.954239 123.040757 
L 504.2362 125.276711 
L 504.51816 124.114109 
L 504.800121 127.03714 
L 505.082081 133.306084 
L 505.364042 136.876048 
L 506.209924 138.805931 
L 506.491884 140.053621 
L 506.773845 142.901362 
L 507.055805 144.335141 
L 507.619727 139.829414 
L 508.183648 146.735783 
L 508.747569 139.18887 
L 509.02953 143.958898 
L 509.31149 151.988678 
L 509.593451 154.494672 
L 509.875411 153.849849 
L 510.157372 156.169159 
L 510.439333 159.447355 
L 510.721293 159.686606 
L 511.003254 159.093271 
L 511.285214 160.079321 
L 511.567175 160.452851 
L 511.849135 159.700084 
L 512.131096 161.101317 
L 512.413057 164.111965 
L 512.695017 163.900101 
L 512.976978 160.463568 
L 513.258938 159.474821 
L 513.82286 165.306357 
L 514.10482 165.145555 
L 514.386781 163.348559 
L 514.668741 159.216714 
L 515.232662 147.130576 
L 515.514623 151.430431 
L 515.796584 159.605113 
L 516.078544 159.964164 
L 516.642465 145.942857 
L 516.924426 145.041162 
L 517.206387 142.273913 
L 517.770308 127.757132 
L 518.334229 118.464521 
L 518.61619 115.822831 
L 518.89815 118.207061 
L 519.744032 131.338083 
L 520.307953 150.604956 
L 520.589914 152.893263 
L 520.871874 152.998036 
L 521.435795 161.435682 
L 521.717756 158.101509 
L 522.281677 138.698818 
L 522.563638 135.67694 
L 522.845598 136.080005 
L 523.127559 136.704169 
L 523.409519 138.451416 
L 523.973441 146.564302 
L 524.537362 150.467625 
L 524.819322 152.38206 
L 525.101283 152.695576 
L 525.383244 151.371032 
L 525.665204 152.088642 
L 525.947165 155.63822 
L 526.229125 157.549216 
L 526.793047 154.494794 
L 527.356968 157.941332 
L 527.638928 156.509315 
L 527.920889 155.927838 
L 528.202849 160.335402 
L 528.766771 173.274606 
L 529.048731 175.109008 
L 529.612652 174.446053 
L 530.176574 176.884129 
L 530.458534 175.556158 
L 531.022455 162.002939 
L 531.868337 142.223393 
L 532.432258 126.846562 
L 532.714219 125.188587 
L 532.996179 127.052638 
L 533.27814 130.209638 
L 533.560101 131.474183 
L 533.842061 127.481959 
L 534.124022 120.1258 
L 534.405982 116.789486 
L 535.533825 130.068501 
L 535.815785 136.687826 
L 536.097746 140.252038 
L 536.661667 132.33913 
L 536.943628 133.650222 
L 537.225588 136.889311 
L 537.789509 137.921991 
L 538.635391 146.285366 
L 539.481273 153.34982 
L 539.763233 152.915732 
L 540.045194 152.742716 
L 540.327155 153.498276 
L 540.609115 155.245542 
L 541.173036 160.033502 
L 541.454997 157.755149 
L 541.736958 154.032163 
L 542.018918 154.456078 
L 542.300879 158.593487 
L 542.582839 160.579119 
L 543.146761 155.257897 
L 543.428721 154.630514 
L 544.274603 158.505874 
L 544.556563 157.927381 
L 544.838524 156.701269 
L 545.120485 157.887828 
L 545.402445 163.933294 
L 545.684406 172.564291 
L 545.966366 176.670805 
L 546.248327 170.97173 
L 546.812248 151.469106 
L 547.094209 147.860713 
L 547.376169 140.637755 
L 547.94009 118.193703 
L 548.222051 118.784496 
L 548.504012 122.851273 
L 548.785972 122.9652 
L 549.067933 121.761969 
L 549.349893 124.077236 
L 549.913815 130.34376 
L 550.195775 133.098981 
L 550.477736 137.291091 
L 550.759696 139.783825 
L 551.323618 138.417627 
L 551.887539 140.54333 
L 552.45146 136.251572 
L 552.73342 137.472685 
L 553.297342 148.208443 
L 553.579302 148.548737 
L 553.861263 148.479289 
L 554.143223 154.404169 
L 554.425184 162.9762 
L 554.707145 165.289564 
L 554.989105 162.168968 
L 555.271066 162.624942 
L 555.553026 167.185458 
L 555.834987 166.585381 
L 556.398908 151.272846 
L 556.680869 150.878258 
L 556.962829 153.1709 
L 557.24479 153.498049 
L 557.52675 152.703114 
L 557.808711 152.958931 
L 558.372632 154.800414 
L 558.654593 153.752732 
L 558.936553 151.388034 
L 559.218514 150.550133 
L 559.782435 153.648006 
L 560.064396 153.04341 
L 560.346356 155.706406 
L 560.910277 171.035556 
L 561.192238 166.89663 
L 561.756159 148.591342 
L 562.03812 145.407553 
L 562.32008 140.260811 
L 562.602041 133.04877 
L 562.884002 129.511724 
L 563.447923 131.65157 
L 563.729883 131.399403 
L 564.011844 131.740808 
L 564.293804 133.311548 
L 564.575765 135.958813 
L 565.421647 147.850737 
L 565.703607 147.072726 
L 565.985568 148.085008 
L 566.267529 151.27115 
L 566.549489 150.491683 
L 567.11341 136.733716 
L 567.395371 136.937033 
L 567.959292 145.962534 
L 568.241253 146.781903 
L 568.805174 145.969356 
L 569.087134 146.25715 
L 569.369095 147.841671 
L 569.651056 150.337577 
L 569.933016 151.467475 
L 570.496937 148.516523 
L 570.778898 149.956409 
L 571.060859 153.10852 
L 571.342819 154.100962 
L 571.62478 152.757479 
L 571.90674 152.870906 
L 572.188701 155.26461 
L 572.470661 156.000484 
L 573.034583 151.45442 
L 573.316543 154.092117 
L 573.598504 158.099736 
L 573.880464 157.487376 
L 574.444386 147.047347 
L 574.726346 148.120337 
L 575.008307 152.743052 
L 575.290267 155.202945 
L 576.136149 151.630486 
L 576.41811 147.61854 
L 576.982031 135.36553 
L 577.263991 135.816995 
L 577.545952 138.397838 
L 577.827913 138.076256 
L 578.109873 135.076074 
L 578.391834 133.336844 
L 578.955755 135.995495 
L 579.519676 135.38873 
L 579.801637 138.314541 
L 580.083597 142.905776 
L 580.365558 145.19779 
L 580.647518 145.938369 
L 580.929479 148.510086 
L 581.21144 150.031441 
L 581.4934 144.33438 
L 581.775361 134.86264 
L 582.057321 133.16115 
L 582.621243 147.896398 
L 582.903203 145.352567 
L 583.185164 140.06068 
L 583.467124 141.03903 
L 584.031046 155.021785 
L 584.313006 158.512428 
L 584.594967 158.706692 
L 584.876927 157.935187 
L 585.158888 158.584764 
L 585.440848 159.619766 
L 585.722809 156.623667 
L 586.28673 142.838456 
L 586.568691 143.520794 
L 586.850651 147.505738 
L 587.132612 148.284328 
L 587.414573 146.504983 
L 587.696533 148.335045 
L 588.260454 161.116412 
L 588.542415 162.596577 
L 588.824375 162.433125 
L 589.106336 163.556619 
L 589.388297 163.616427 
L 589.952218 157.818378 
L 590.234178 160.127872 
L 590.516139 164.552413 
L 590.7981 165.404823 
L 591.362021 158.684687 
L 591.925942 147.85879 
L 592.489863 139.249798 
L 593.053784 131.608462 
L 593.335745 131.659669 
L 593.617705 134.374775 
L 593.899666 133.238186 
L 594.463587 123.927857 
L 594.745548 124.015874 
L 595.027508 124.844409 
L 595.309469 126.092886 
L 595.87339 131.61222 
L 596.155351 132.33527 
L 596.437311 135.050542 
L 597.001232 144.068383 
L 597.565154 143.162531 
L 597.847114 143.807085 
L 598.129075 144.162078 
L 598.411035 146.629458 
L 598.692996 152.236767 
L 598.974957 155.284672 
L 599.256917 153.114811 
L 599.538878 152.244556 
L 599.820838 155.656701 
L 600.102799 156.796391 
L 600.38476 153.673335 
L 600.66672 154.075034 
L 600.948681 159.613737 
L 601.230641 161.208923 
L 601.794562 152.498435 
L 602.358484 157.436133 
L 602.922405 153.148964 
L 603.204365 153.62819 
L 603.486326 153.661585 
L 603.768287 151.904658 
L 604.050247 151.299119 
L 604.332208 152.473941 
L 604.614168 151.759011 
L 605.46005 137.6015 
L 605.742011 142.166494 
L 606.023971 149.256346 
L 606.305932 150.027202 
L 606.869853 136.020924 
L 607.151814 136.84357 
L 607.433774 139.022141 
L 607.997695 130.092013 
L 608.279656 131.838317 
L 608.561617 136.814855 
L 608.843577 136.713801 
L 609.125538 132.930436 
L 609.407498 132.191571 
L 609.971419 138.307583 
L 610.25338 142.438272 
L 610.817301 153.666774 
L 611.099262 154.549482 
L 611.381222 151.061099 
L 611.945144 141.338433 
L 612.227104 141.277001 
L 612.509065 143.095249 
L 613.072986 143.071996 
L 613.354946 147.412031 
L 613.636907 153.97703 
L 613.918868 156.568852 
L 614.482789 153.163068 
L 614.764749 153.51491 
L 615.04671 154.099067 
L 615.328671 153.968607 
L 615.610631 153.656411 
L 615.892592 154.483102 
L 616.174552 157.824794 
L 616.456513 162.780237 
L 616.738474 165.500245 
L 617.020434 164.217892 
L 617.302395 161.752886 
L 617.584355 161.274386 
L 617.866316 162.394716 
L 618.148276 162.987112 
L 618.712198 161.285606 
L 618.994158 163.211027 
L 619.276119 166.070168 
L 619.558079 163.543928 
L 620.122001 148.505679 
L 620.403961 150.48694 
L 620.685922 154.443719 
L 620.967882 153.219612 
L 621.249843 149.346273 
L 621.531803 147.047945 
L 621.813764 143.766322 
L 622.377685 132.24113 
L 622.941606 127.515376 
L 623.223567 125.69637 
L 623.505528 126.171567 
L 624.069449 130.853341 
L 624.63337 138.740656 
L 624.915331 139.844499 
L 625.197291 138.695152 
L 625.479252 139.381031 
L 625.761212 141.354121 
L 626.043173 141.961894 
L 626.325133 143.525789 
L 626.889055 153.022518 
L 627.171015 150.976855 
L 627.452976 146.839056 
L 627.734936 146.940877 
L 628.016897 149.42839 
L 628.298858 149.91753 
L 628.580818 148.938894 
L 628.862779 148.849928 
L 629.144739 148.16014 
L 629.990621 141.499068 
L 630.272582 140.83815 
L 630.554542 139.737863 
L 631.118463 133.966161 
L 631.400424 134.902703 
L 631.964345 148.963019 
L 632.246306 148.429631 
L 632.528266 142.692575 
L 632.810227 140.829428 
L 633.092188 142.538666 
L 633.092188 142.538666 
" clip-path="url(#p2815a14057)" style="fill: none; stroke: #1f77b4; stroke-width: 1.5; stroke-linecap: square"/>
   </g>
   <g id="patch_3">
    <path d="M 47.192188 266.112 
L 47.192188 0 
" style="fill: none; stroke: #000000; stroke-width: 0.8; stroke-linejoin: miter; stroke-linecap: square"/>
   </g>
   <g id="patch_4">
    <path d="M 660.992188 266.112 
L 660.992188 0 
" style="fill: none; stroke: #000000; stroke-width: 0.8; stroke-linejoin: miter; stroke-linecap: square"/>
   </g>
   <g id="patch_5">
    <path d="M 47.192188 266.112 
L 660.992188 266.112 
" style="fill: none; stroke: #000000; stroke-width: 0.8; stroke-linejoin: miter; stroke-linecap: square"/>
   </g>
   <g id="patch_6">
    <path d="M 47.192188 0 
L 660.992188 0 
" style="fill: none; stroke: #000000; stroke-width: 0.8; stroke-linejoin: miter; stroke-linecap: square"/>
   </g>
  </g>
 </g>
 <defs>
  <clipPath id="p2815a14057">
   <rect x="47.192188" y="0" width="613.8" height="266.112"/>
  </clipPath>
 </defs>
</svg>
