<?xml version="1.0" encoding="utf-8" standalone="no"?>
<!DOCTYPE svg PUBLIC "-//W3C//DTD SVG 1.1//EN"
  "http://www.w3.org/Graphics/SVG/1.1/DTD/svg11.dtd">
<svg xmlns:xlink="http://www.w3.org/1999/xlink" width="660.992188pt" height="282.790125pt" viewBox="0 0 660.992188 282.790125" xmlns="http://www.w3.org/2000/svg" version="1.1">
 <metadata>
  <rdf:RDF xmlns:dc="http://purl.org/dc/elements/1.1/" xmlns:cc="http://creativecommons.org/ns#" xmlns:rdf="http://www.w3.org/1999/02/22-rdf-syntax-ns#">
   <cc:Work>
    <dc:type rdf:resource="http://purl.org/dc/dcmitype/StillImage"/>
    <dc:date>2023-03-06T19:25:47.633971</dc:date>
    <dc:format>image/svg+xml</dc:format>
    <dc:creator>
     <cc:Agent>
      <dc:title>Matplotlib v3.6.3, https://matplotlib.org/</dc:title>
     </cc:Agent>
    </dc:creator>
   </cc:Work>
  </rdf:RDF>
 </metadata>
 <defs>
  <style type="text/css">*{stroke-linejoin: round; stroke-linecap: butt}</style>
 </defs>
 <g id="figure_1">
  <g id="patch_1">
   <path d="M -0 282.790125 
L 660.992188 282.790125 
L 660.992188 0 
L -0 0 
L -0 282.790125 
z
" style="fill: none"/>
  </g>
  <g id="axes_1">
   <g id="patch_2">
    <path d="M 47.192188 266.112 
L 660.992188 266.112 
L 660.992188 0 
L 47.192188 0 
L 47.192188 266.112 
z
" style="fill: none"/>
   </g>
   <g id="matplotlib.axis_1">
    <g id="xtick_1">
     <g id="line2d_1">
      <defs>
       <path id="mff40f5d639" d="M 0 0 
L 0 3.5 
" style="stroke: #000000; stroke-width: 0.8"/>
      </defs>
      <g>
       <use xlink:href="#mff40f5d639" x="75.092188" y="266.112" style="stroke: #000000; stroke-width: 0.8"/>
      </g>
     </g>
     <g id="text_1">
      <!-- 0 -->
      <g transform="translate(71.910938 280.710438) scale(0.1 -0.1)">
       <defs>
        <path id="DejaVuSans-30" d="M 2034 4250 
Q 1547 4250 1301 3770 
Q 1056 3291 1056 2328 
Q 1056 1369 1301 889 
Q 1547 409 2034 409 
Q 2525 409 2770 889 
Q 3016 1369 3016 2328 
Q 3016 3291 2770 3770 
Q 2525 4250 2034 4250 
z
M 2034 4750 
Q 2819 4750 3233 4129 
Q 3647 3509 3647 2328 
Q 3647 1150 3233 529 
Q 2819 -91 2034 -91 
Q 1250 -91 836 529 
Q 422 1150 422 2328 
Q 422 3509 836 4129 
Q 1250 4750 2034 4750 
z
" transform="scale(0.015625)"/>
       </defs>
       <use xlink:href="#DejaVuSans-30"/>
      </g>
     </g>
    </g>
    <g id="xtick_2">
     <g id="line2d_2">
      <g>
       <use xlink:href="#mff40f5d639" x="144.842188" y="266.112" style="stroke: #000000; stroke-width: 0.8"/>
      </g>
     </g>
     <g id="text_2">
      <!-- 500 -->
      <g transform="translate(135.298438 280.710438) scale(0.1 -0.1)">
       <defs>
        <path id="DejaVuSans-35" d="M 691 4666 
L 3169 4666 
L 3169 4134 
L 1269 4134 
L 1269 2991 
Q 1406 3038 1543 3061 
Q 1681 3084 1819 3084 
Q 2600 3084 3056 2656 
Q 3513 2228 3513 1497 
Q 3513 744 3044 326 
Q 2575 -91 1722 -91 
Q 1428 -91 1123 -41 
Q 819 9 494 109 
L 494 744 
Q 775 591 1075 516 
Q 1375 441 1709 441 
Q 2250 441 2565 725 
Q 2881 1009 2881 1497 
Q 2881 1984 2565 2268 
Q 2250 2553 1709 2553 
Q 1456 2553 1204 2497 
Q 953 2441 691 2322 
L 691 4666 
z
" transform="scale(0.015625)"/>
       </defs>
       <use xlink:href="#DejaVuSans-35"/>
       <use xlink:href="#DejaVuSans-30" x="63.623047"/>
       <use xlink:href="#DejaVuSans-30" x="127.246094"/>
      </g>
     </g>
    </g>
    <g id="xtick_3">
     <g id="line2d_3">
      <g>
       <use xlink:href="#mff40f5d639" x="214.592188" y="266.112" style="stroke: #000000; stroke-width: 0.8"/>
      </g>
     </g>
     <g id="text_3">
      <!-- 1000 -->
      <g transform="translate(201.867188 280.710438) scale(0.1 -0.1)">
       <defs>
        <path id="DejaVuSans-31" d="M 794 531 
L 1825 531 
L 1825 4091 
L 703 3866 
L 703 4441 
L 1819 4666 
L 2450 4666 
L 2450 531 
L 3481 531 
L 3481 0 
L 794 0 
L 794 531 
z
" transform="scale(0.015625)"/>
       </defs>
       <use xlink:href="#DejaVuSans-31"/>
       <use xlink:href="#DejaVuSans-30" x="63.623047"/>
       <use xlink:href="#DejaVuSans-30" x="127.246094"/>
       <use xlink:href="#DejaVuSans-30" x="190.869141"/>
      </g>
     </g>
    </g>
    <g id="xtick_4">
     <g id="line2d_4">
      <g>
       <use xlink:href="#mff40f5d639" x="284.342188" y="266.112" style="stroke: #000000; stroke-width: 0.8"/>
      </g>
     </g>
     <g id="text_4">
      <!-- 1500 -->
      <g transform="translate(271.617188 280.710438) scale(0.1 -0.1)">
       <use xlink:href="#DejaVuSans-31"/>
       <use xlink:href="#DejaVuSans-35" x="63.623047"/>
       <use xlink:href="#DejaVuSans-30" x="127.246094"/>
       <use xlink:href="#DejaVuSans-30" x="190.869141"/>
      </g>
     </g>
    </g>
    <g id="xtick_5">
     <g id="line2d_5">
      <g>
       <use xlink:href="#mff40f5d639" x="354.092188" y="266.112" style="stroke: #000000; stroke-width: 0.8"/>
      </g>
     </g>
     <g id="text_5">
      <!-- 2000 -->
      <g transform="translate(341.367188 280.710438) scale(0.1 -0.1)">
       <defs>
        <path id="DejaVuSans-32" d="M 1228 531 
L 3431 531 
L 3431 0 
L 469 0 
L 469 531 
Q 828 903 1448 1529 
Q 2069 2156 2228 2338 
Q 2531 2678 2651 2914 
Q 2772 3150 2772 3378 
Q 2772 3750 2511 3984 
Q 2250 4219 1831 4219 
Q 1534 4219 1204 4116 
Q 875 4013 500 3803 
L 500 4441 
Q 881 4594 1212 4672 
Q 1544 4750 1819 4750 
Q 2544 4750 2975 4387 
Q 3406 4025 3406 3419 
Q 3406 3131 3298 2873 
Q 3191 2616 2906 2266 
Q 2828 2175 2409 1742 
Q 1991 1309 1228 531 
z
" transform="scale(0.015625)"/>
       </defs>
       <use xlink:href="#DejaVuSans-32"/>
       <use xlink:href="#DejaVuSans-30" x="63.623047"/>
       <use xlink:href="#DejaVuSans-30" x="127.246094"/>
       <use xlink:href="#DejaVuSans-30" x="190.869141"/>
      </g>
     </g>
    </g>
    <g id="xtick_6">
     <g id="line2d_6">
      <g>
       <use xlink:href="#mff40f5d639" x="423.842188" y="266.112" style="stroke: #000000; stroke-width: 0.8"/>
      </g>
     </g>
     <g id="text_6">
      <!-- 2500 -->
      <g transform="translate(411.117188 280.710438) scale(0.1 -0.1)">
       <use xlink:href="#DejaVuSans-32"/>
       <use xlink:href="#DejaVuSans-35" x="63.623047"/>
       <use xlink:href="#DejaVuSans-30" x="127.246094"/>
       <use xlink:href="#DejaVuSans-30" x="190.869141"/>
      </g>
     </g>
    </g>
    <g id="xtick_7">
     <g id="line2d_7">
      <g>
       <use xlink:href="#mff40f5d639" x="493.592188" y="266.112" style="stroke: #000000; stroke-width: 0.8"/>
      </g>
     </g>
     <g id="text_7">
      <!-- 3000 -->
      <g transform="translate(480.867188 280.710438) scale(0.1 -0.1)">
       <defs>
        <path id="DejaVuSans-33" d="M 2597 2516 
Q 3050 2419 3304 2112 
Q 3559 1806 3559 1356 
Q 3559 666 3084 287 
Q 2609 -91 1734 -91 
Q 1441 -91 1130 -33 
Q 819 25 488 141 
L 488 750 
Q 750 597 1062 519 
Q 1375 441 1716 441 
Q 2309 441 2620 675 
Q 2931 909 2931 1356 
Q 2931 1769 2642 2001 
Q 2353 2234 1838 2234 
L 1294 2234 
L 1294 2753 
L 1863 2753 
Q 2328 2753 2575 2939 
Q 2822 3125 2822 3475 
Q 2822 3834 2567 4026 
Q 2313 4219 1838 4219 
Q 1578 4219 1281 4162 
Q 984 4106 628 3988 
L 628 4550 
Q 988 4650 1302 4700 
Q 1616 4750 1894 4750 
Q 2613 4750 3031 4423 
Q 3450 4097 3450 3541 
Q 3450 3153 3228 2886 
Q 3006 2619 2597 2516 
z
" transform="scale(0.015625)"/>
       </defs>
       <use xlink:href="#DejaVuSans-33"/>
       <use xlink:href="#DejaVuSans-30" x="63.623047"/>
       <use xlink:href="#DejaVuSans-30" x="127.246094"/>
       <use xlink:href="#DejaVuSans-30" x="190.869141"/>
      </g>
     </g>
    </g>
    <g id="xtick_8">
     <g id="line2d_8">
      <g>
       <use xlink:href="#mff40f5d639" x="563.342188" y="266.112" style="stroke: #000000; stroke-width: 0.8"/>
      </g>
     </g>
     <g id="text_8">
      <!-- 3500 -->
      <g transform="translate(550.617188 280.710438) scale(0.1 -0.1)">
       <use xlink:href="#DejaVuSans-33"/>
       <use xlink:href="#DejaVuSans-35" x="63.623047"/>
       <use xlink:href="#DejaVuSans-30" x="127.246094"/>
       <use xlink:href="#DejaVuSans-30" x="190.869141"/>
      </g>
     </g>
    </g>
    <g id="xtick_9">
     <g id="line2d_9">
      <g>
       <use xlink:href="#mff40f5d639" x="633.092188" y="266.112" style="stroke: #000000; stroke-width: 0.8"/>
      </g>
     </g>
     <g id="text_9">
      <!-- 4000 -->
      <g transform="translate(620.367188 280.710438) scale(0.1 -0.1)">
       <defs>
        <path id="DejaVuSans-34" d="M 2419 4116 
L 825 1625 
L 2419 1625 
L 2419 4116 
z
M 2253 4666 
L 3047 4666 
L 3047 1625 
L 3713 1625 
L 3713 1100 
L 3047 1100 
L 3047 0 
L 2419 0 
L 2419 1100 
L 313 1100 
L 313 1709 
L 2253 4666 
z
" transform="scale(0.015625)"/>
       </defs>
       <use xlink:href="#DejaVuSans-34"/>
       <use xlink:href="#DejaVuSans-30" x="63.623047"/>
       <use xlink:href="#DejaVuSans-30" x="127.246094"/>
       <use xlink:href="#DejaVuSans-30" x="190.869141"/>
      </g>
     </g>
    </g>
   </g>
   <g id="matplotlib.axis_2">
    <g id="ytick_1">
     <g id="line2d_10">
      <defs>
       <path id="m5eba14e327" d="M 0 0 
L -3.5 0 
" style="stroke: #000000; stroke-width: 0.8"/>
      </defs>
      <g>
       <use xlink:href="#m5eba14e327" x="47.192188" y="244.902002" style="stroke: #000000; stroke-width: 0.8"/>
      </g>
     </g>
     <g id="text_10">
      <!-- −40000 -->
      <g transform="translate(0 248.701221) scale(0.1 -0.1)">
       <defs>
        <path id="DejaVuSans-2212" d="M 678 2272 
L 4684 2272 
L 4684 1741 
L 678 1741 
L 678 2272 
z
" transform="scale(0.015625)"/>
       </defs>
       <use xlink:href="#DejaVuSans-2212"/>
       <use xlink:href="#DejaVuSans-34" x="83.789062"/>
       <use xlink:href="#DejaVuSans-30" x="147.412109"/>
       <use xlink:href="#DejaVuSans-30" x="211.035156"/>
       <use xlink:href="#DejaVuSans-30" x="274.658203"/>
       <use xlink:href="#DejaVuSans-30" x="338.28125"/>
      </g>
     </g>
    </g>
    <g id="ytick_2">
     <g id="line2d_11">
      <g>
       <use xlink:href="#m5eba14e327" x="47.192188" y="194.327919" style="stroke: #000000; stroke-width: 0.8"/>
      </g>
     </g>
     <g id="text_11">
      <!-- −20000 -->
      <g transform="translate(0 198.127138) scale(0.1 -0.1)">
       <use xlink:href="#DejaVuSans-2212"/>
       <use xlink:href="#DejaVuSans-32" x="83.789062"/>
       <use xlink:href="#DejaVuSans-30" x="147.412109"/>
       <use xlink:href="#DejaVuSans-30" x="211.035156"/>
       <use xlink:href="#DejaVuSans-30" x="274.658203"/>
       <use xlink:href="#DejaVuSans-30" x="338.28125"/>
      </g>
     </g>
    </g>
    <g id="ytick_3">
     <g id="line2d_12">
      <g>
       <use xlink:href="#m5eba14e327" x="47.192188" y="143.753836" style="stroke: #000000; stroke-width: 0.8"/>
      </g>
     </g>
     <g id="text_12">
      <!-- 0 -->
      <g transform="translate(33.829688 147.553055) scale(0.1 -0.1)">
       <use xlink:href="#DejaVuSans-30"/>
      </g>
     </g>
    </g>
    <g id="ytick_4">
     <g id="line2d_13">
      <g>
       <use xlink:href="#m5eba14e327" x="47.192188" y="93.179752" style="stroke: #000000; stroke-width: 0.8"/>
      </g>
     </g>
     <g id="text_13">
      <!-- 20000 -->
      <g transform="translate(8.379688 96.978971) scale(0.1 -0.1)">
       <use xlink:href="#DejaVuSans-32"/>
       <use xlink:href="#DejaVuSans-30" x="63.623047"/>
       <use xlink:href="#DejaVuSans-30" x="127.246094"/>
       <use xlink:href="#DejaVuSans-30" x="190.869141"/>
       <use xlink:href="#DejaVuSans-30" x="254.492188"/>
      </g>
     </g>
    </g>
    <g id="ytick_5">
     <g id="line2d_14">
      <g>
       <use xlink:href="#m5eba14e327" x="47.192188" y="42.605669" style="stroke: #000000; stroke-width: 0.8"/>
      </g>
     </g>
     <g id="text_14">
      <!-- 40000 -->
      <g transform="translate(8.379688 46.404888) scale(0.1 -0.1)">
       <use xlink:href="#DejaVuSans-34"/>
       <use xlink:href="#DejaVuSans-30" x="63.623047"/>
       <use xlink:href="#DejaVuSans-30" x="127.246094"/>
       <use xlink:href="#DejaVuSans-30" x="190.869141"/>
       <use xlink:href="#DejaVuSans-30" x="254.492188"/>
      </g>
     </g>
    </g>
   </g>
   <g id="line2d_15">
    <path d="M 75.092188 143.813892 
L 75.374148 143.69579 
L 75.656109 143.810088 
L 75.938069 143.699185 
L 76.22003 143.807054 
L 76.50199 143.701898 
L 76.783951 143.804629 
L 77.065912 143.704063 
L 77.347872 143.802701 
L 77.629833 143.705775 
L 77.911793 143.80119 
L 78.193754 143.707098 
L 78.475715 143.800042 
L 78.757675 143.708081 
L 79.039636 143.799217 
L 79.321596 143.708753 
L 79.603557 143.798693 
L 79.885517 143.709132 
L 80.167478 143.798457 
L 80.449439 143.709225 
L 80.731399 143.798507 
L 81.01336 143.70903 
L 81.29532 143.798853 
L 81.577281 143.708529 
L 81.859242 143.799515 
L 82.141202 143.707696 
L 82.423163 143.800529 
L 82.705123 143.706487 
L 82.987084 143.801951 
L 83.269044 143.704834 
L 83.551005 143.803859 
L 83.832966 143.702641 
L 84.114926 143.806372 
L 84.396887 143.699766 
L 84.678847 143.809662 
L 84.960808 143.695994 
L 85.242769 143.813997 
L 85.524729 143.690993 
L 85.80669 143.819797 
L 86.08865 143.684221 
L 86.370611 143.827768 
L 86.652572 143.674742 
L 86.934532 143.839183 
L 87.216493 143.660783 
L 87.498453 143.856583 
L 87.780414 143.638564 
L 88.062374 143.885858 
L 88.344335 143.598353 
L 88.626296 143.944379 
L 88.908256 143.505574 
L 89.190217 144.113542 
L 89.472177 143.100004 
L 89.754138 146.533539 
L 90.036099 153.191832 
L 90.318059 153.196946 
L 90.60002 154.363325 
L 90.88198 154.749354 
L 91.445901 158.309835 
L 91.727862 160.770766 
L 92.855704 166.152117 
L 93.137665 166.089837 
L 93.419626 164.28342 
L 93.701586 159.770686 
L 93.983547 151.325806 
L 95.111389 105.012309 
L 95.39335 99.419394 
L 95.67531 97.478916 
L 95.957271 99.089928 
L 96.239231 103.678008 
L 97.367074 130.231609 
L 97.930995 135.603105 
L 98.776877 139.685552 
L 99.340798 146.659899 
L 99.904719 153.561645 
L 100.18668 154.707598 
L 100.46864 154.023865 
L 101.032561 151.243516 
L 102.724325 146.281595 
L 103.006286 145.910671 
L 103.570207 146.739728 
L 103.852167 147.165514 
L 104.416088 149.083615 
L 104.98001 149.565227 
L 105.543931 153.482312 
L 105.825891 153.973702 
L 106.107852 153.093973 
L 106.389813 153.413546 
L 106.671773 155.082461 
L 106.953734 155.902368 
L 107.517655 154.297504 
L 107.799615 154.118705 
L 108.363537 154.090036 
L 109.209418 155.616769 
L 109.491379 156.29531 
L 110.0553 158.608085 
L 110.619221 159.524346 
L 111.747064 163.145628 
L 112.592945 166.233776 
L 112.874906 165.86737 
L 113.156867 162.354152 
L 113.438827 154.612357 
L 114.284709 117.521692 
L 114.84863 95.310426 
L 115.130591 89.764316 
L 115.412551 89.043629 
L 115.694512 92.324093 
L 116.258433 106.536015 
L 116.822354 121.41074 
L 117.386275 129.585877 
L 117.668236 132.337918 
L 117.950197 133.911597 
L 118.232157 134.67519 
L 118.514118 136.235927 
L 119.64196 149.881295 
L 119.923921 150.219334 
L 120.205881 149.03847 
L 120.769802 145.590945 
L 121.333724 144.164397 
L 121.615684 143.880896 
L 121.897645 144.119594 
L 122.461566 145.381964 
L 123.025487 145.452656 
L 123.307448 146.144615 
L 123.589408 147.16548 
L 123.871369 147.752358 
L 124.717251 147.705323 
L 124.999211 148.28726 
L 125.563132 150.221632 
L 125.845093 150.704162 
L 126.409014 150.723959 
L 128.100778 153.526114 
L 128.382738 154.410965 
L 129.22862 159.232493 
L 129.792541 160.072452 
L 130.356462 161.971166 
L 130.920384 160.606214 
L 131.484305 162.44221 
L 131.766265 162.197214 
L 132.048226 161.687342 
L 132.330186 162.723986 
L 132.612147 164.373206 
L 132.894108 164.034472 
L 133.176068 160.162155 
L 133.458029 152.283397 
L 134.867832 91.676875 
L 135.149792 85.999464 
L 135.431753 85.847933 
L 135.713714 91.571927 
L 136.841556 125.896773 
L 137.123516 130.535723 
L 137.405477 131.29091 
L 137.687438 130.263634 
L 137.969398 131.377223 
L 139.097241 149.634904 
L 139.379201 150.953787 
L 139.661162 151.592316 
L 139.943122 150.59157 
L 140.789004 141.783619 
L 141.070965 141.698013 
L 141.352925 141.780215 
L 141.634886 141.197734 
L 141.916846 141.077938 
L 142.480768 143.195776 
L 143.044689 143.961282 
L 143.60861 145.718371 
L 143.890571 146.000724 
L 144.172531 146.114942 
L 144.454492 146.580493 
L 145.300373 149.01263 
L 145.582334 149.347867 
L 145.864295 150.045707 
L 146.710176 154.561669 
L 146.992137 154.067923 
L 147.274098 153.845078 
L 148.119979 156.771252 
L 148.40194 157.052655 
L 148.965861 158.280734 
L 149.247822 158.500611 
L 149.529782 159.078347 
L 150.375664 163.153271 
L 150.657625 163.944037 
L 151.785467 170.298281 
L 152.067428 172.347658 
L 152.349388 171.349746 
L 152.631349 164.420543 
L 153.19527 138.381446 
L 154.041152 94.562127 
L 154.323112 85.430134 
L 154.605073 80.745277 
L 154.887033 80.368466 
L 155.168994 84.90074 
L 156.860757 135.871271 
L 158.552521 150.910132 
L 158.834482 151.43937 
L 159.116442 151.122008 
L 159.398403 149.997851 
L 160.244285 144.204584 
L 161.090166 140.584965 
L 161.372127 140.530152 
L 161.936048 142.077633 
L 162.218009 142.742345 
L 162.499969 144.781763 
L 162.78193 147.838915 
L 163.06389 149.652715 
L 163.627812 149.222633 
L 164.473693 152.398954 
L 164.755654 152.756335 
L 166.447417 160.116637 
L 167.011339 158.722938 
L 167.293299 159.700325 
L 167.85722 162.996147 
L 168.139181 163.520544 
L 168.421142 164.427799 
L 169.548984 170.598542 
L 169.830944 172.291311 
L 170.394866 174.251941 
L 170.958787 178.838917 
L 171.240747 179.300614 
L 171.522708 176.245426 
L 171.804669 169.465576 
L 172.086629 158.566121 
L 173.778393 73.238603 
L 174.060353 67.759297 
L 174.342314 66.155246 
L 174.624274 67.077889 
L 174.906235 70.529531 
L 175.188196 77.462877 
L 176.316038 119.686418 
L 177.16192 147.565067 
L 177.725841 159.295859 
L 178.007801 161.838164 
L 178.289762 161.778685 
L 178.571723 159.942343 
L 179.135644 154.179374 
L 179.981526 144.38427 
L 180.263486 143.675048 
L 180.545447 143.427448 
L 180.827407 142.701847 
L 181.109368 142.344363 
L 181.391328 143.426349 
L 181.673289 145.129123 
L 181.95525 145.921582 
L 182.23721 145.92126 
L 182.519171 146.424294 
L 183.083092 148.156489 
L 183.365053 148.303517 
L 183.647013 148.943313 
L 184.210934 151.056511 
L 184.492895 151.928196 
L 185.620737 158.125859 
L 186.466619 166.978334 
L 187.03054 168.349857 
L 187.876422 172.853886 
L 188.440343 173.998552 
L 189.004264 176.400905 
L 189.568185 180.117476 
L 190.414067 187.762299 
L 190.696028 188.905682 
L 190.977988 188.408095 
L 191.259949 183.826499 
L 191.54191 172.971689 
L 193.233673 79.680336 
L 193.797594 64.315205 
L 194.361515 57.105646 
L 194.643476 56.314118 
L 194.925437 58.97965 
L 195.207397 65.193184 
L 195.771318 84.92773 
L 196.33524 110.627053 
L 197.181121 157.296939 
L 197.463082 163.676597 
L 197.745042 165.119791 
L 198.027003 164.010937 
L 198.590924 157.157937 
L 198.872885 153.99182 
L 199.718767 148.732022 
L 200.282688 146.575373 
L 200.846609 144.507747 
L 201.12857 144.478872 
L 201.692491 145.92995 
L 202.820333 150.696713 
L 203.102294 151.229447 
L 203.948175 153.865676 
L 204.794057 158.787269 
L 205.639939 166.694231 
L 205.921899 167.444474 
L 206.20386 168.540937 
L 206.767781 174.561916 
L 207.049742 175.19534 
L 207.613663 172.429224 
L 207.895624 173.478813 
L 208.459545 177.677403 
L 209.023466 180.483413 
L 210.151308 192.550449 
L 210.433269 193.45224 
L 210.715229 190.547936 
L 210.99719 182.244971 
L 211.561111 154.6866 
L 213.252875 56.571283 
L 213.534835 48.052905 
L 213.816796 43.278665 
L 214.098756 41.392459 
L 214.380717 41.961383 
L 214.662678 46.267259 
L 215.226599 66.908957 
L 216.072481 107.646698 
L 216.918362 162.067481 
L 217.200323 170.213663 
L 217.482284 171.929836 
L 217.764244 170.519176 
L 219.174047 159.432885 
L 219.737968 155.517805 
L 220.019929 154.690807 
L 220.58385 153.977757 
L 220.865811 154.417781 
L 221.147771 155.076743 
L 221.429732 154.722809 
L 221.711692 153.940033 
L 221.993653 154.369209 
L 222.275613 155.409086 
L 222.557574 155.155028 
L 222.839535 153.910253 
L 223.121495 153.684216 
L 224.249338 157.973732 
L 224.813259 159.943085 
L 228.196786 182.637008 
L 229.606589 196.348195 
L 229.888549 196.945372 
L 230.17051 194.130795 
L 230.45247 186.185286 
L 231.016392 153.86221 
L 232.426195 56.741643 
L 232.990116 33.564423 
L 233.272076 27.801395 
L 233.554037 28.043742 
L 233.835998 33.861867 
L 234.681879 59.683831 
L 235.2458 83.382989 
L 235.809722 115.969118 
L 236.373643 157.570567 
L 236.655603 170.844484 
L 236.937564 174.953708 
L 237.219525 173.318612 
L 237.783446 169.078192 
L 238.347367 165.143336 
L 238.629327 163.101235 
L 239.193249 161.351989 
L 240.03913 158.822915 
L 240.603052 158.484414 
L 241.166973 158.509287 
L 241.448933 158.27968 
L 241.730894 158.305705 
L 242.576776 160.706618 
L 242.858736 160.409088 
L 243.140697 160.479221 
L 243.704618 161.808703 
L 243.986579 162.952388 
L 246.524224 179.263161 
L 247.088145 185.028932 
L 248.215987 199.401886 
L 249.061869 210.144594 
L 249.34383 210.713675 
L 249.62579 207.000844 
L 249.907751 197.934497 
L 250.471672 164.425044 
L 252.445396 16.133152 
L 252.727357 12.536466 
L 253.009317 17.263806 
L 253.573239 28.752894 
L 254.13716 38.786432 
L 254.701081 53.571752 
L 255.265002 79.040464 
L 256.674805 167.886744 
L 256.956766 175.105504 
L 257.238726 177.327545 
L 257.520687 176.706664 
L 258.366569 172.483494 
L 258.93049 169.390133 
L 259.776371 165.932495 
L 260.058332 165.996337 
L 260.340293 166.250178 
L 260.622253 166.013864 
L 260.904214 166.126443 
L 261.468135 167.672555 
L 262.032056 166.550094 
L 262.595977 167.623972 
L 262.877938 167.022797 
L 263.159898 165.939348 
L 263.441859 165.829658 
L 264.00578 168.26364 
L 265.133623 173.810198 
L 265.979504 181.920598 
L 266.543425 184.25033 
L 266.825386 186.435666 
L 267.953228 198.966314 
L 268.51715 204.585578 
L 268.79911 207.939912 
L 269.081071 209.60933 
L 269.363031 207.719263 
L 269.644992 200.830786 
L 270.208913 171.176136 
L 271.054795 102.745592 
L 271.900677 31.038269 
L 272.182637 16.543583 
L 272.464598 12.096 
L 272.746558 15.249109 
L 273.59244 30.250804 
L 274.438322 44.756423 
L 275.002243 64.101168 
L 275.566164 94.226955 
L 276.694007 163.050519 
L 276.975967 173.056422 
L 277.257928 178.034571 
L 277.539888 178.78253 
L 277.821849 176.649473 
L 278.38577 171.445882 
L 279.231652 167.666947 
L 279.513612 167.289468 
L 279.795573 167.145021 
L 280.641455 165.632636 
L 280.923415 165.421405 
L 281.205376 165.581425 
L 282.333218 168.917268 
L 282.897139 172.012689 
L 283.1791 172.016932 
L 283.461061 171.30748 
L 283.743021 171.062052 
L 284.306942 171.241344 
L 284.588903 171.978656 
L 286.562627 184.751275 
L 287.408509 194.162351 
L 287.97243 203.414715 
L 288.536351 212.796198 
L 288.818312 216.45365 
L 289.100272 218.549498 
L 289.382233 215.573741 
L 289.664194 205.924479 
L 290.228115 172.436979 
L 291.073996 93.302883 
L 291.637918 38.620724 
L 291.919878 20.287691 
L 292.201839 14.59261 
L 293.329681 28.084997 
L 294.457524 47.303401 
L 295.021445 67.65561 
L 296.995169 164.167911 
L 297.277129 171.583023 
L 297.55909 175.599255 
L 297.841051 175.899633 
L 298.404972 172.26292 
L 298.968893 171.31076 
L 300.096735 166.965442 
L 300.378696 166.954459 
L 300.942617 170.031933 
L 301.224578 169.879495 
L 301.506538 169.064385 
L 301.788499 169.34019 
L 302.35242 171.225917 
L 302.634381 171.397725 
L 302.916341 171.724197 
L 303.198302 172.298607 
L 303.480262 172.572645 
L 303.762223 172.466518 
L 304.044183 172.55039 
L 304.326144 173.286116 
L 305.172026 176.723575 
L 305.735947 183.133639 
L 306.299868 188.219193 
L 306.581829 190.147552 
L 306.863789 193.418326 
L 307.42771 204.187517 
L 308.273592 220.546856 
L 308.837513 226.714013 
L 309.119474 226.314374 
L 309.401435 221.954584 
L 309.683395 212.859476 
L 309.965356 197.842252 
L 310.529277 150.969121 
L 311.657119 36.841963 
L 311.93908 24.397826 
L 312.22104 22.762267 
L 312.784962 26.579889 
L 313.348883 27.314444 
L 313.630843 27.624247 
L 313.912804 28.40865 
L 314.194765 30.619555 
L 314.758686 39.428388 
L 315.322607 53.082981 
L 315.886528 75.920776 
L 316.73241 113.228177 
L 317.860252 152.901792 
L 318.424173 164.694086 
L 319.270055 179.037437 
L 319.552016 180.559465 
L 319.833976 181.093758 
L 320.115937 181.362371 
L 320.397897 181.260618 
L 320.679858 180.659383 
L 321.52574 177.462347 
L 321.8077 177.211945 
L 322.371622 177.521184 
L 322.653582 178.139577 
L 323.499464 182.004567 
L 323.781424 181.920776 
L 324.063385 181.501954 
L 324.345346 181.498225 
L 324.909267 182.466654 
L 325.191227 183.537213 
L 326.037109 189.44886 
L 326.31907 190.011557 
L 326.60103 191.157091 
L 327.164952 196.844785 
L 327.728873 204.207035 
L 329.138676 231.897438 
L 329.420636 233.572278 
L 329.702597 230.036879 
L 329.984557 220.859758 
L 330.548479 185.028652 
L 331.1124 132.699401 
L 331.958281 46.695048 
L 332.240242 37.284494 
L 332.804163 34.524689 
L 333.368084 30.143798 
L 333.650045 29.034381 
L 334.495927 20.278417 
L 334.777887 20.255359 
L 335.059848 22.541655 
L 335.341809 27.072901 
L 335.90573 43.649114 
L 337.315533 95.177519 
L 339.571217 171.284039 
L 340.135138 181.233173 
L 340.69906 185.254723 
L 341.262981 188.122037 
L 341.544941 188.231903 
L 342.108863 186.399289 
L 342.390823 186.70091 
L 342.672784 186.83718 
L 342.954744 186.56699 
L 343.236705 187.467678 
L 343.518666 189.68742 
L 343.800626 190.92809 
L 344.082587 189.833574 
L 344.364547 188.056754 
L 344.646508 187.461914 
L 345.210429 188.06286 
L 345.49239 188.675145 
L 346.620232 194.935642 
L 347.184153 200.617678 
L 347.748074 206.613042 
L 348.311995 216.138652 
L 349.721798 242.476052 
L 350.003759 241.24425 
L 350.28572 232.927948 
L 350.849641 196.351202 
L 351.413562 142.830267 
L 352.259444 54.612222 
L 352.541404 44.19705 
L 353.951207 22.936561 
L 354.233168 21.309304 
L 354.515128 21.26177 
L 354.797089 22.284327 
L 355.07905 24.741209 
L 355.924931 38.238734 
L 356.488852 54.064569 
L 358.180616 105.640258 
L 359.026498 126.436684 
L 360.436301 176.502953 
L 360.718261 181.381686 
L 361.000222 183.463249 
L 361.282182 184.563069 
L 361.846104 187.559464 
L 362.128064 186.510179 
L 362.410025 184.535236 
L 362.691985 183.948519 
L 363.255907 185.185623 
L 363.537867 185.507835 
L 363.819828 186.671832 
L 364.383749 189.8437 
L 364.665709 190.056209 
L 364.94767 189.850785 
L 365.229631 190.152863 
L 365.511591 191.298225 
L 366.075512 194.170456 
L 366.639434 195.255182 
L 366.921394 197.39147 
L 368.331197 217.132024 
L 369.741 244.193598 
L 370.022961 245.308619 
L 370.304921 241.430637 
L 370.586882 231.299272 
L 371.150803 193.352593 
L 371.714724 135.012327 
L 372.278645 73.456262 
L 372.560606 54.756974 
L 373.124527 36.748029 
L 373.688448 24.497853 
L 373.970409 23.192338 
L 374.53433 25.60741 
L 374.816291 26.102011 
L 375.098251 27.007777 
L 375.380212 29.76168 
L 375.662172 35.00738 
L 376.226094 53.008159 
L 377.917857 117.148284 
L 379.32766 164.667828 
L 381.019423 236.516922 
L 381.583345 250.512944 
L 381.865305 254.016 
L 382.147266 252.933913 
L 382.429226 244.581218 
L 382.711187 228.859474 
L 383.275108 178.83171 
L 384.12099 93.707131 
L 384.402951 80.80139 
L 384.966872 67.005819 
L 385.248832 63.049078 
L 385.530793 61.716065 
L 386.094714 61.574542 
L 386.376675 62.770636 
L 386.658635 66.83051 
L 390.324123 155.394737 
L 390.888044 163.619425 
L 391.451965 172.652244 
L 391.733926 173.668779 
L 392.015886 173.053643 
L 392.297847 173.173335 
L 392.579808 173.859638 
L 392.861768 173.398517 
L 393.425689 170.478317 
L 393.70765 169.48019 
L 394.271571 165.834831 
L 394.835492 162.325681 
L 395.399413 159.21742 
L 395.963335 155.667538 
L 396.245295 155.647874 
L 396.527256 156.490417 
L 396.809216 156.453922 
L 397.373137 154.726852 
L 397.937059 154.723653 
L 398.219019 154.953888 
L 398.78294 157.389132 
L 399.064901 157.740125 
L 399.346862 157.711518 
L 399.628822 158.097469 
L 399.910783 158.171921 
L 400.192743 157.111577 
L 400.756665 154.520029 
L 401.038625 154.171528 
L 401.320586 154.361292 
L 401.602546 155.203261 
L 402.730389 161.14116 
L 403.29431 165.696946 
L 404.140192 174.1373 
L 406.395876 204.25818 
L 407.523719 222.471399 
L 407.805679 224.579237 
L 408.08764 220.574864 
L 408.3696 207.166066 
L 408.933522 158.587203 
L 410.061364 41.220489 
L 410.343324 31.943926 
L 410.625285 29.4935 
L 410.907246 29.27233 
L 411.189206 30.07233 
L 411.471167 32.148255 
L 412.317049 42.108271 
L 412.88097 51.970051 
L 415.418615 122.17491 
L 415.982536 139.255805 
L 417.110379 159.403561 
L 417.95626 165.521986 
L 418.520181 168.554865 
L 418.802142 170.510896 
L 419.084103 171.300058 
L 419.648024 169.079264 
L 419.929984 169.059069 
L 420.211945 169.567353 
L 420.775866 169.942113 
L 421.621748 172.750506 
L 421.903708 174.323894 
L 422.46763 179.569829 
L 423.595472 190.97586 
L 423.877433 192.133932 
L 424.159393 194.513565 
L 425.287236 211.819034 
L 425.569196 214.508399 
L 426.978999 237.483782 
L 427.26096 234.693998 
L 427.54292 223.922252 
L 428.106841 186.09104 
L 429.234684 74.251379 
L 429.516644 66.724261 
L 429.798605 64.011581 
L 430.362526 54.754811 
L 430.644487 50.330751 
L 430.926447 47.747416 
L 431.208408 46.732348 
L 431.490368 46.944932 
L 431.772329 48.462767 
L 432.33625 55.357333 
L 432.900171 64.882298 
L 434.309974 93.656822 
L 435.437817 107.267187 
L 436.283698 121.942273 
L 437.693501 137.74956 
L 438.257422 143.16824 
L 438.821344 147.971744 
L 439.949186 162.347367 
L 440.231147 166.09914 
L 441.077028 181.864168 
L 441.358989 185.032245 
L 441.92291 197.161041 
L 442.486831 208.160604 
L 443.050752 214.274248 
L 443.614674 219.855733 
L 444.178595 225.16319 
L 444.460555 227.15427 
L 444.742516 231.398162 
L 445.306437 242.481298 
L 445.588398 245.32892 
L 445.870358 245.856152 
L 446.152319 242.168078 
L 446.434279 231.916544 
L 446.71624 214.29942 
L 447.280161 156.191864 
L 447.844082 99.305163 
L 448.126043 88.587719 
L 449.535846 69.218865 
L 449.817806 67.130054 
L 450.099767 65.939408 
L 450.381728 66.343675 
L 451.227609 69.787193 
L 451.791531 76.48187 
L 452.355452 86.289262 
L 452.919373 97.247186 
L 453.483294 104.228815 
L 453.765255 106.737319 
L 454.329176 108.926435 
L 454.611136 109.920216 
L 454.893097 109.608167 
L 455.175058 107.973075 
L 455.457018 108.487555 
L 457.430742 138.126323 
L 459.122506 162.366056 
L 460.250348 174.948977 
L 462.224072 197.01982 
L 463.069954 208.957332 
L 463.633875 220.097854 
L 464.479757 239.01267 
L 464.761718 244.45237 
L 465.043678 246.300361 
L 465.325639 240.574446 
L 465.607599 225.405931 
L 466.17152 166.446177 
L 466.735442 110.23205 
L 467.017402 101.567308 
L 467.299363 98.717152 
L 468.145245 85.279524 
L 468.709166 81.786417 
L 468.991126 80.89942 
L 469.273087 80.83501 
L 469.555048 81.263008 
L 469.837008 82.385462 
L 470.68289 88.101956 
L 470.96485 91.984143 
L 471.528772 103.033745 
L 472.656614 115.343808 
L 472.938575 117.122072 
L 473.220535 118.109337 
L 473.784456 120.878983 
L 474.348377 122.106299 
L 475.194259 127.723692 
L 475.47622 127.501513 
L 475.75818 128.815472 
L 476.604062 140.309755 
L 477.167983 145.262483 
L 478.013865 155.888268 
L 479.705629 172.466664 
L 480.26955 178.550001 
L 481.961313 190.903449 
L 483.089156 205.957816 
L 483.371116 210.389397 
L 483.653077 212.317476 
L 483.935037 209.488109 
L 484.216998 199.066525 
L 485.06288 146.723501 
L 486.754643 114.2204 
L 487.882486 98.574457 
L 488.164446 96.787341 
L 488.446407 96.227784 
L 488.728367 96.66822 
L 489.010328 98.036544 
L 489.574249 103.039582 
L 490.420131 113.157086 
L 491.266013 119.416864 
L 492.111894 126.130913 
L 492.957776 131.950274 
L 494.9315 141.338787 
L 495.495421 143.140815 
L 495.777382 143.42203 
L 496.059343 144.323998 
L 497.469146 156.181942 
L 498.033067 162.253195 
L 500.570712 185.310291 
L 501.134633 191.708215 
L 501.698554 197.100062 
L 502.262476 204.208181 
L 502.544436 203.219872 
L 502.826397 196.185865 
L 503.954239 150.539727 
L 504.800121 128.888582 
L 505.646003 112.516425 
L 506.773845 98.863578 
L 507.337766 95.227933 
L 507.619727 94.32136 
L 507.901687 94.995211 
L 508.465608 99.751053 
L 508.747569 102.926004 
L 509.593451 114.554778 
L 509.875411 115.618547 
L 510.157372 117.185419 
L 510.439333 119.41126 
L 510.721293 120.665212 
L 511.003254 121.155192 
L 511.285214 123.180188 
L 511.849135 130.779478 
L 513.82286 145.086855 
L 514.386781 148.32313 
L 516.078544 154.277796 
L 516.642465 157.803734 
L 519.462071 177.787051 
L 521.153835 198.936412 
L 521.435795 201.036543 
L 521.717756 199.535927 
L 521.999717 193.48523 
L 523.409519 142.532529 
L 524.255401 123.756336 
L 525.947165 100.552084 
L 526.511086 98.743021 
L 526.793047 97.88887 
L 527.075007 97.819799 
L 527.356968 99.839518 
L 528.202849 110.425546 
L 529.048731 119.038572 
L 530.176574 126.274438 
L 531.586376 133.835576 
L 532.432258 141.999165 
L 532.996179 144.481832 
L 533.27814 145.415977 
L 534.969904 153.207465 
L 535.533825 155.508009 
L 536.943628 164.10952 
L 538.353431 170.594687 
L 538.635391 172.510988 
L 539.481273 180.376331 
L 539.763233 182.734652 
L 540.609115 191.794945 
L 540.891076 190.034468 
L 541.173036 184.430954 
L 542.8648 133.924091 
L 543.710682 119.868847 
L 544.274603 112.668217 
L 544.556563 110.976065 
L 544.838524 110.757417 
L 545.120485 110.745915 
L 545.684406 108.829108 
L 545.966366 109.542364 
L 546.812248 117.062781 
L 547.094209 118.998168 
L 547.94009 126.360142 
L 548.504012 128.374072 
L 549.067933 131.719867 
L 549.631854 133.228685 
L 550.477736 137.271451 
L 551.323618 134.24411 
L 551.605578 134.57291 
L 551.887539 135.495674 
L 552.45146 140.060763 
L 553.015381 143.738248 
L 553.861263 147.730508 
L 554.143223 148.756248 
L 554.989105 153.77845 
L 555.553026 156.434838 
L 556.116947 159.467826 
L 556.680869 163.410377 
L 557.24479 166.043309 
L 558.654593 182.264176 
L 559.218514 191.44868 
L 559.500475 192.366883 
L 559.782435 191.44037 
L 560.064396 188.646602 
L 560.346356 182.750537 
L 561.474199 148.513633 
L 563.165962 116.213447 
L 563.447923 112.224331 
L 563.729883 110.516552 
L 564.575765 108.889226 
L 564.857726 107.985127 
L 565.139686 107.723788 
L 565.421647 109.120563 
L 565.985568 114.124803 
L 566.549489 117.448274 
L 567.395371 123.697007 
L 567.959292 127.171841 
L 569.933016 140.857538 
L 570.214977 141.507095 
L 570.778898 143.813256 
L 571.060859 143.876843 
L 571.342819 143.522396 
L 571.62478 143.975185 
L 571.90674 144.892064 
L 572.188701 145.25647 
L 572.470661 145.365514 
L 572.752622 146.313243 
L 573.880464 152.109436 
L 574.162425 152.98802 
L 574.444386 152.857188 
L 574.726346 152.935806 
L 575.008307 154.754222 
L 575.572228 159.982111 
L 576.136149 161.687686 
L 576.41811 164.176665 
L 576.982031 170.932194 
L 578.109873 178.284588 
L 578.673794 183.787473 
L 578.955755 185.521131 
L 579.237716 185.460056 
L 579.519676 183.01549 
L 579.801637 177.765567 
L 581.21144 139.84657 
L 582.903203 114.334957 
L 583.467124 112.007981 
L 584.031046 108.528695 
L 584.313006 108.451446 
L 584.594967 108.838697 
L 584.876927 108.897472 
L 585.158888 109.662777 
L 585.440848 112.354214 
L 586.00477 119.593883 
L 586.568691 123.403381 
L 587.132612 127.073279 
L 587.978494 135.891046 
L 588.260454 136.539586 
L 588.542415 137.578611 
L 588.824375 139.767977 
L 589.106336 141.078953 
L 589.388297 140.066217 
L 589.670257 138.615986 
L 589.952218 138.914113 
L 590.234178 140.361978 
L 590.516139 141.0201 
L 590.7981 140.776952 
L 591.08006 140.806574 
L 591.643981 142.821721 
L 593.053784 149.253186 
L 593.899666 153.386657 
L 594.181627 154.032614 
L 594.463587 155.06259 
L 595.027508 158.559322 
L 595.59143 160.587997 
L 598.129075 176.566058 
L 598.974957 185.162659 
L 599.256917 182.365383 
L 600.38476 152.626419 
L 600.948681 139.645506 
L 601.794562 127.376242 
L 602.640444 119.371806 
L 603.204365 115.039084 
L 603.486326 113.756218 
L 603.768287 113.077653 
L 604.050247 112.95942 
L 604.332208 113.2362 
L 604.614168 113.708364 
L 604.896129 114.987415 
L 606.869853 133.407252 
L 607.151814 134.01002 
L 607.433774 133.996655 
L 607.715735 135.11102 
L 608.279656 138.685156 
L 608.561617 138.718166 
L 608.843577 138.28952 
L 609.125538 138.589269 
L 609.689459 140.726156 
L 609.971419 141.17659 
L 610.25338 141.331496 
L 610.535341 141.895344 
L 611.099262 143.787822 
L 611.663183 143.980631 
L 611.945144 144.755421 
L 612.509065 146.902416 
L 612.791025 147.5692 
L 615.04671 156.938112 
L 615.610631 160.192466 
L 616.174552 162.425529 
L 617.020434 166.753467 
L 618.148276 176.329935 
L 618.430237 177.401155 
L 618.712198 176.01042 
L 618.994158 171.535118 
L 620.685922 133.976215 
L 621.249843 127.094349 
L 622.377685 119.461479 
L 622.941606 118.95797 
L 623.223567 118.258217 
L 623.505528 118.122188 
L 623.787488 119.306177 
L 625.197291 130.973729 
L 625.479252 132.707296 
L 625.761212 133.242372 
L 626.043173 132.881453 
L 626.325133 132.773898 
L 626.607094 132.906328 
L 626.889055 133.505054 
L 627.171015 134.425877 
L 628.580818 141.587954 
L 629.4267 143.916554 
L 629.70866 143.913407 
L 630.272582 141.6622 
L 630.554542 141.83905 
L 631.400424 147.511809 
L 631.682385 148.33311 
L 631.964345 149.549296 
L 632.246306 150.123452 
L 632.528266 151.756861 
L 632.810227 151.981338 
L 633.092188 154.19464 
L 633.092188 154.19464 
" clip-path="url(#p46c935ef65)" style="fill: none; stroke: #1f77b4; stroke-width: 1.5; stroke-linecap: square"/>
   </g>
   <g id="patch_3">
    <path d="M 47.192188 266.112 
L 47.192188 0 
" style="fill: none; stroke: #000000; stroke-width: 0.8; stroke-linejoin: miter; stroke-linecap: square"/>
   </g>
   <g id="patch_4">
    <path d="M 660.992188 266.112 
L 660.992188 0 
" style="fill: none; stroke: #000000; stroke-width: 0.8; stroke-linejoin: miter; stroke-linecap: square"/>
   </g>
   <g id="patch_5">
    <path d="M 47.192188 266.112 
L 660.992188 266.112 
" style="fill: none; stroke: #000000; stroke-width: 0.8; stroke-linejoin: miter; stroke-linecap: square"/>
   </g>
   <g id="patch_6">
    <path d="M 47.192188 0 
L 660.992188 0 
" style="fill: none; stroke: #000000; stroke-width: 0.8; stroke-linejoin: miter; stroke-linecap: square"/>
   </g>
  </g>
 </g>
 <defs>
  <clipPath id="p46c935ef65">
   <rect x="47.192188" y="0" width="613.8" height="266.112"/>
  </clipPath>
 </defs>
</svg>
