<?xml version="1.0" encoding="utf-8" standalone="no"?>
<!DOCTYPE svg PUBLIC "-//W3C//DTD SVG 1.1//EN"
  "http://www.w3.org/Graphics/SVG/1.1/DTD/svg11.dtd">
<svg xmlns:xlink="http://www.w3.org/1999/xlink" width="660.992188pt" height="282.790125pt" viewBox="0 0 660.992188 282.790125" xmlns="http://www.w3.org/2000/svg" version="1.1">
 <metadata>
  <rdf:RDF xmlns:dc="http://purl.org/dc/elements/1.1/" xmlns:cc="http://creativecommons.org/ns#" xmlns:rdf="http://www.w3.org/1999/02/22-rdf-syntax-ns#">
   <cc:Work>
    <dc:type rdf:resource="http://purl.org/dc/dcmitype/StillImage"/>
    <dc:date>2023-03-06T19:25:48.282984</dc:date>
    <dc:format>image/svg+xml</dc:format>
    <dc:creator>
     <cc:Agent>
      <dc:title>Matplotlib v3.6.3, https://matplotlib.org/</dc:title>
     </cc:Agent>
    </dc:creator>
   </cc:Work>
  </rdf:RDF>
 </metadata>
 <defs>
  <style type="text/css">*{stroke-linejoin: round; stroke-linecap: butt}</style>
 </defs>
 <g id="figure_1">
  <g id="patch_1">
   <path d="M -0 282.790125 
L 660.992188 282.790125 
L 660.992188 0 
L -0 0 
L -0 282.790125 
z
" style="fill: none"/>
  </g>
  <g id="axes_1">
   <g id="patch_2">
    <path d="M 47.192188 266.112 
L 660.992188 266.112 
L 660.992188 0 
L 47.192188 0 
L 47.192188 266.112 
z
" style="fill: none"/>
   </g>
   <g id="matplotlib.axis_1">
    <g id="xtick_1">
     <g id="line2d_1">
      <defs>
       <path id="mdcaea2ad30" d="M 0 0 
L 0 3.5 
" style="stroke: #000000; stroke-width: 0.8"/>
      </defs>
      <g>
       <use xlink:href="#mdcaea2ad30" x="75.092188" y="266.112" style="stroke: #000000; stroke-width: 0.8"/>
      </g>
     </g>
     <g id="text_1">
      <!-- 0 -->
      <g transform="translate(71.910938 280.710438) scale(0.1 -0.1)">
       <defs>
        <path id="DejaVuSans-30" d="M 2034 4250 
Q 1547 4250 1301 3770 
Q 1056 3291 1056 2328 
Q 1056 1369 1301 889 
Q 1547 409 2034 409 
Q 2525 409 2770 889 
Q 3016 1369 3016 2328 
Q 3016 3291 2770 3770 
Q 2525 4250 2034 4250 
z
M 2034 4750 
Q 2819 4750 3233 4129 
Q 3647 3509 3647 2328 
Q 3647 1150 3233 529 
Q 2819 -91 2034 -91 
Q 1250 -91 836 529 
Q 422 1150 422 2328 
Q 422 3509 836 4129 
Q 1250 4750 2034 4750 
z
" transform="scale(0.015625)"/>
       </defs>
       <use xlink:href="#DejaVuSans-30"/>
      </g>
     </g>
    </g>
    <g id="xtick_2">
     <g id="line2d_2">
      <g>
       <use xlink:href="#mdcaea2ad30" x="144.842188" y="266.112" style="stroke: #000000; stroke-width: 0.8"/>
      </g>
     </g>
     <g id="text_2">
      <!-- 500 -->
      <g transform="translate(135.298438 280.710438) scale(0.1 -0.1)">
       <defs>
        <path id="DejaVuSans-35" d="M 691 4666 
L 3169 4666 
L 3169 4134 
L 1269 4134 
L 1269 2991 
Q 1406 3038 1543 3061 
Q 1681 3084 1819 3084 
Q 2600 3084 3056 2656 
Q 3513 2228 3513 1497 
Q 3513 744 3044 326 
Q 2575 -91 1722 -91 
Q 1428 -91 1123 -41 
Q 819 9 494 109 
L 494 744 
Q 775 591 1075 516 
Q 1375 441 1709 441 
Q 2250 441 2565 725 
Q 2881 1009 2881 1497 
Q 2881 1984 2565 2268 
Q 2250 2553 1709 2553 
Q 1456 2553 1204 2497 
Q 953 2441 691 2322 
L 691 4666 
z
" transform="scale(0.015625)"/>
       </defs>
       <use xlink:href="#DejaVuSans-35"/>
       <use xlink:href="#DejaVuSans-30" x="63.623047"/>
       <use xlink:href="#DejaVuSans-30" x="127.246094"/>
      </g>
     </g>
    </g>
    <g id="xtick_3">
     <g id="line2d_3">
      <g>
       <use xlink:href="#mdcaea2ad30" x="214.592188" y="266.112" style="stroke: #000000; stroke-width: 0.8"/>
      </g>
     </g>
     <g id="text_3">
      <!-- 1000 -->
      <g transform="translate(201.867188 280.710438) scale(0.1 -0.1)">
       <defs>
        <path id="DejaVuSans-31" d="M 794 531 
L 1825 531 
L 1825 4091 
L 703 3866 
L 703 4441 
L 1819 4666 
L 2450 4666 
L 2450 531 
L 3481 531 
L 3481 0 
L 794 0 
L 794 531 
z
" transform="scale(0.015625)"/>
       </defs>
       <use xlink:href="#DejaVuSans-31"/>
       <use xlink:href="#DejaVuSans-30" x="63.623047"/>
       <use xlink:href="#DejaVuSans-30" x="127.246094"/>
       <use xlink:href="#DejaVuSans-30" x="190.869141"/>
      </g>
     </g>
    </g>
    <g id="xtick_4">
     <g id="line2d_4">
      <g>
       <use xlink:href="#mdcaea2ad30" x="284.342188" y="266.112" style="stroke: #000000; stroke-width: 0.8"/>
      </g>
     </g>
     <g id="text_4">
      <!-- 1500 -->
      <g transform="translate(271.617188 280.710438) scale(0.1 -0.1)">
       <use xlink:href="#DejaVuSans-31"/>
       <use xlink:href="#DejaVuSans-35" x="63.623047"/>
       <use xlink:href="#DejaVuSans-30" x="127.246094"/>
       <use xlink:href="#DejaVuSans-30" x="190.869141"/>
      </g>
     </g>
    </g>
    <g id="xtick_5">
     <g id="line2d_5">
      <g>
       <use xlink:href="#mdcaea2ad30" x="354.092188" y="266.112" style="stroke: #000000; stroke-width: 0.8"/>
      </g>
     </g>
     <g id="text_5">
      <!-- 2000 -->
      <g transform="translate(341.367188 280.710438) scale(0.1 -0.1)">
       <defs>
        <path id="DejaVuSans-32" d="M 1228 531 
L 3431 531 
L 3431 0 
L 469 0 
L 469 531 
Q 828 903 1448 1529 
Q 2069 2156 2228 2338 
Q 2531 2678 2651 2914 
Q 2772 3150 2772 3378 
Q 2772 3750 2511 3984 
Q 2250 4219 1831 4219 
Q 1534 4219 1204 4116 
Q 875 4013 500 3803 
L 500 4441 
Q 881 4594 1212 4672 
Q 1544 4750 1819 4750 
Q 2544 4750 2975 4387 
Q 3406 4025 3406 3419 
Q 3406 3131 3298 2873 
Q 3191 2616 2906 2266 
Q 2828 2175 2409 1742 
Q 1991 1309 1228 531 
z
" transform="scale(0.015625)"/>
       </defs>
       <use xlink:href="#DejaVuSans-32"/>
       <use xlink:href="#DejaVuSans-30" x="63.623047"/>
       <use xlink:href="#DejaVuSans-30" x="127.246094"/>
       <use xlink:href="#DejaVuSans-30" x="190.869141"/>
      </g>
     </g>
    </g>
    <g id="xtick_6">
     <g id="line2d_6">
      <g>
       <use xlink:href="#mdcaea2ad30" x="423.842188" y="266.112" style="stroke: #000000; stroke-width: 0.8"/>
      </g>
     </g>
     <g id="text_6">
      <!-- 2500 -->
      <g transform="translate(411.117188 280.710438) scale(0.1 -0.1)">
       <use xlink:href="#DejaVuSans-32"/>
       <use xlink:href="#DejaVuSans-35" x="63.623047"/>
       <use xlink:href="#DejaVuSans-30" x="127.246094"/>
       <use xlink:href="#DejaVuSans-30" x="190.869141"/>
      </g>
     </g>
    </g>
    <g id="xtick_7">
     <g id="line2d_7">
      <g>
       <use xlink:href="#mdcaea2ad30" x="493.592188" y="266.112" style="stroke: #000000; stroke-width: 0.8"/>
      </g>
     </g>
     <g id="text_7">
      <!-- 3000 -->
      <g transform="translate(480.867188 280.710438) scale(0.1 -0.1)">
       <defs>
        <path id="DejaVuSans-33" d="M 2597 2516 
Q 3050 2419 3304 2112 
Q 3559 1806 3559 1356 
Q 3559 666 3084 287 
Q 2609 -91 1734 -91 
Q 1441 -91 1130 -33 
Q 819 25 488 141 
L 488 750 
Q 750 597 1062 519 
Q 1375 441 1716 441 
Q 2309 441 2620 675 
Q 2931 909 2931 1356 
Q 2931 1769 2642 2001 
Q 2353 2234 1838 2234 
L 1294 2234 
L 1294 2753 
L 1863 2753 
Q 2328 2753 2575 2939 
Q 2822 3125 2822 3475 
Q 2822 3834 2567 4026 
Q 2313 4219 1838 4219 
Q 1578 4219 1281 4162 
Q 984 4106 628 3988 
L 628 4550 
Q 988 4650 1302 4700 
Q 1616 4750 1894 4750 
Q 2613 4750 3031 4423 
Q 3450 4097 3450 3541 
Q 3450 3153 3228 2886 
Q 3006 2619 2597 2516 
z
" transform="scale(0.015625)"/>
       </defs>
       <use xlink:href="#DejaVuSans-33"/>
       <use xlink:href="#DejaVuSans-30" x="63.623047"/>
       <use xlink:href="#DejaVuSans-30" x="127.246094"/>
       <use xlink:href="#DejaVuSans-30" x="190.869141"/>
      </g>
     </g>
    </g>
    <g id="xtick_8">
     <g id="line2d_8">
      <g>
       <use xlink:href="#mdcaea2ad30" x="563.342188" y="266.112" style="stroke: #000000; stroke-width: 0.8"/>
      </g>
     </g>
     <g id="text_8">
      <!-- 3500 -->
      <g transform="translate(550.617188 280.710438) scale(0.1 -0.1)">
       <use xlink:href="#DejaVuSans-33"/>
       <use xlink:href="#DejaVuSans-35" x="63.623047"/>
       <use xlink:href="#DejaVuSans-30" x="127.246094"/>
       <use xlink:href="#DejaVuSans-30" x="190.869141"/>
      </g>
     </g>
    </g>
    <g id="xtick_9">
     <g id="line2d_9">
      <g>
       <use xlink:href="#mdcaea2ad30" x="633.092188" y="266.112" style="stroke: #000000; stroke-width: 0.8"/>
      </g>
     </g>
     <g id="text_9">
      <!-- 4000 -->
      <g transform="translate(620.367188 280.710438) scale(0.1 -0.1)">
       <defs>
        <path id="DejaVuSans-34" d="M 2419 4116 
L 825 1625 
L 2419 1625 
L 2419 4116 
z
M 2253 4666 
L 3047 4666 
L 3047 1625 
L 3713 1625 
L 3713 1100 
L 3047 1100 
L 3047 0 
L 2419 0 
L 2419 1100 
L 313 1100 
L 313 1709 
L 2253 4666 
z
" transform="scale(0.015625)"/>
       </defs>
       <use xlink:href="#DejaVuSans-34"/>
       <use xlink:href="#DejaVuSans-30" x="63.623047"/>
       <use xlink:href="#DejaVuSans-30" x="127.246094"/>
       <use xlink:href="#DejaVuSans-30" x="190.869141"/>
      </g>
     </g>
    </g>
   </g>
   <g id="matplotlib.axis_2">
    <g id="ytick_1">
     <g id="line2d_10">
      <defs>
       <path id="mecfddd1eb7" d="M 0 0 
L -3.5 0 
" style="stroke: #000000; stroke-width: 0.8"/>
      </defs>
      <g>
       <use xlink:href="#mecfddd1eb7" x="47.192188" y="241.520634" style="stroke: #000000; stroke-width: 0.8"/>
      </g>
     </g>
     <g id="text_10">
      <!-- −20000 -->
      <g transform="translate(0 245.319853) scale(0.1 -0.1)">
       <defs>
        <path id="DejaVuSans-2212" d="M 678 2272 
L 4684 2272 
L 4684 1741 
L 678 1741 
L 678 2272 
z
" transform="scale(0.015625)"/>
       </defs>
       <use xlink:href="#DejaVuSans-2212"/>
       <use xlink:href="#DejaVuSans-32" x="83.789062"/>
       <use xlink:href="#DejaVuSans-30" x="147.412109"/>
       <use xlink:href="#DejaVuSans-30" x="211.035156"/>
       <use xlink:href="#DejaVuSans-30" x="274.658203"/>
       <use xlink:href="#DejaVuSans-30" x="338.28125"/>
      </g>
     </g>
    </g>
    <g id="ytick_2">
     <g id="line2d_11">
      <g>
       <use xlink:href="#mecfddd1eb7" x="47.192188" y="194.821549" style="stroke: #000000; stroke-width: 0.8"/>
      </g>
     </g>
     <g id="text_11">
      <!-- −10000 -->
      <g transform="translate(0 198.620768) scale(0.1 -0.1)">
       <use xlink:href="#DejaVuSans-2212"/>
       <use xlink:href="#DejaVuSans-31" x="83.789062"/>
       <use xlink:href="#DejaVuSans-30" x="147.412109"/>
       <use xlink:href="#DejaVuSans-30" x="211.035156"/>
       <use xlink:href="#DejaVuSans-30" x="274.658203"/>
       <use xlink:href="#DejaVuSans-30" x="338.28125"/>
      </g>
     </g>
    </g>
    <g id="ytick_3">
     <g id="line2d_12">
      <g>
       <use xlink:href="#mecfddd1eb7" x="47.192188" y="148.122463" style="stroke: #000000; stroke-width: 0.8"/>
      </g>
     </g>
     <g id="text_12">
      <!-- 0 -->
      <g transform="translate(33.829688 151.921682) scale(0.1 -0.1)">
       <use xlink:href="#DejaVuSans-30"/>
      </g>
     </g>
    </g>
    <g id="ytick_4">
     <g id="line2d_13">
      <g>
       <use xlink:href="#mecfddd1eb7" x="47.192188" y="101.423378" style="stroke: #000000; stroke-width: 0.8"/>
      </g>
     </g>
     <g id="text_13">
      <!-- 10000 -->
      <g transform="translate(8.379688 105.222597) scale(0.1 -0.1)">
       <use xlink:href="#DejaVuSans-31"/>
       <use xlink:href="#DejaVuSans-30" x="63.623047"/>
       <use xlink:href="#DejaVuSans-30" x="127.246094"/>
       <use xlink:href="#DejaVuSans-30" x="190.869141"/>
       <use xlink:href="#DejaVuSans-30" x="254.492188"/>
      </g>
     </g>
    </g>
    <g id="ytick_5">
     <g id="line2d_14">
      <g>
       <use xlink:href="#mecfddd1eb7" x="47.192188" y="54.724292" style="stroke: #000000; stroke-width: 0.8"/>
      </g>
     </g>
     <g id="text_14">
      <!-- 20000 -->
      <g transform="translate(8.379688 58.523511) scale(0.1 -0.1)">
       <use xlink:href="#DejaVuSans-32"/>
       <use xlink:href="#DejaVuSans-30" x="63.623047"/>
       <use xlink:href="#DejaVuSans-30" x="127.246094"/>
       <use xlink:href="#DejaVuSans-30" x="190.869141"/>
       <use xlink:href="#DejaVuSans-30" x="254.492188"/>
      </g>
     </g>
    </g>
    <g id="ytick_6">
     <g id="line2d_15">
      <g>
       <use xlink:href="#mecfddd1eb7" x="47.192188" y="8.025207" style="stroke: #000000; stroke-width: 0.8"/>
      </g>
     </g>
     <g id="text_15">
      <!-- 30000 -->
      <g transform="translate(8.379688 11.824426) scale(0.1 -0.1)">
       <use xlink:href="#DejaVuSans-33"/>
       <use xlink:href="#DejaVuSans-30" x="63.623047"/>
       <use xlink:href="#DejaVuSans-30" x="127.246094"/>
       <use xlink:href="#DejaVuSans-30" x="190.869141"/>
       <use xlink:href="#DejaVuSans-30" x="254.492188"/>
      </g>
     </g>
    </g>
   </g>
   <g id="line2d_16">
    <path d="M 75.092188 148.135818 
L 75.938069 148.106945 
L 76.783951 148.140131 
L 77.629833 148.102554 
L 78.475715 148.144804 
L 79.321596 148.097392 
L 80.167478 148.150696 
L 80.449439 148.093052 
L 80.731399 148.153129 
L 81.01336 148.090457 
L 81.29532 148.155906 
L 81.577281 148.087476 
L 81.859242 148.159121 
L 82.141202 148.083995 
L 82.423163 148.162905 
L 82.705123 148.079861 
L 82.987084 148.167444 
L 83.269044 148.07485 
L 83.551005 148.173008 
L 83.832966 148.068631 
L 84.114926 148.18001 
L 84.396887 148.060684 
L 84.678847 148.189113 
L 84.960808 148.050147 
L 85.242769 148.201459 
L 85.524729 148.035477 
L 85.80669 148.219187 
L 86.08865 148.013615 
L 86.370611 148.246829 
L 86.652572 147.977537 
L 86.934532 148.295909 
L 87.216493 147.906876 
L 87.498453 148.406366 
L 87.780414 147.710207 
L 88.062374 148.847915 
L 88.344335 139.999613 
L 88.626296 136.788631 
L 89.190217 142.441804 
L 89.754138 152.9583 
L 90.036099 154.51313 
L 90.60002 149.839814 
L 90.88198 149.52095 
L 91.163941 148.694952 
L 91.445901 145.631549 
L 91.727862 143.952991 
L 92.009823 144.612705 
L 92.291783 146.190946 
L 92.573744 146.96346 
L 92.855704 149.121562 
L 93.419626 156.493528 
L 93.701586 157.230018 
L 93.983547 157.184348 
L 94.547468 158.957666 
L 94.829429 156.838344 
L 95.111389 153.217842 
L 95.39335 151.163405 
L 95.957271 151.488539 
L 96.239231 152.343565 
L 96.803153 157.310905 
L 97.367074 158.412678 
L 97.649034 159.580298 
L 97.930995 159.191923 
L 98.212956 157.039833 
L 98.494916 156.157737 
L 98.776877 154.848552 
L 99.058837 148.511151 
L 99.622758 126.576276 
L 99.904719 119.49146 
L 100.18668 117.095846 
L 100.46864 119.343613 
L 101.032561 127.696958 
L 101.596483 132.849027 
L 101.878443 134.264184 
L 102.160404 134.894496 
L 102.442364 138.165649 
L 103.006286 148.439543 
L 103.288246 148.362516 
L 103.570207 146.532561 
L 103.852167 145.50075 
L 104.134128 145.007526 
L 104.416088 143.963323 
L 104.698049 143.493353 
L 105.26197 145.756257 
L 105.543931 145.794393 
L 105.825891 146.141109 
L 106.389813 149.987666 
L 106.671773 149.658119 
L 106.953734 149.703269 
L 107.799615 157.111401 
L 108.081576 157.607367 
L 108.363537 158.474159 
L 108.645497 158.019422 
L 109.209418 151.937945 
L 109.491379 150.523711 
L 109.77334 150.638771 
L 110.0553 151.358436 
L 110.337261 153.156 
L 111.183143 163.549853 
L 111.465103 163.617528 
L 111.747064 163.067929 
L 112.029024 162.876265 
L 112.310985 159.205876 
L 113.438827 120.088918 
L 113.720788 118.190914 
L 114.002748 121.284655 
L 114.284709 126.483844 
L 114.56667 129.563501 
L 115.694512 135.011475 
L 115.976472 138.422386 
L 116.540394 146.467666 
L 116.822354 146.794281 
L 117.104315 144.90216 
L 117.386275 141.833673 
L 117.668236 141.161635 
L 118.232157 146.897495 
L 118.514118 145.8947 
L 118.796078 145.694957 
L 119.078039 148.698873 
L 119.36 150.236542 
L 119.923921 144.472311 
L 120.205881 145.016678 
L 120.487842 147.064498 
L 120.769802 147.46994 
L 121.051763 146.875512 
L 121.333724 147.75484 
L 121.897645 154.192569 
L 122.179605 155.736228 
L 122.743527 154.935356 
L 123.025487 156.202951 
L 123.307448 158.590321 
L 123.589408 159.479984 
L 123.871369 158.850347 
L 124.153329 159.598357 
L 124.43529 161.605139 
L 124.717251 160.661693 
L 125.281172 153.720724 
L 125.563132 153.426386 
L 125.845093 150.577085 
L 126.409014 131.296681 
L 126.690975 122.292386 
L 126.972935 118.136838 
L 127.254896 119.108016 
L 127.818817 126.232949 
L 128.100778 131.36167 
L 128.664699 144.749461 
L 129.22862 146.912568 
L 129.792541 157.31457 
L 130.074502 153.774996 
L 130.356462 144.346002 
L 130.638423 139.484271 
L 130.920384 140.268073 
L 131.202344 139.243897 
L 131.484305 136.22876 
L 131.766265 137.867953 
L 132.048226 143.230349 
L 132.330186 145.839871 
L 132.612147 145.800859 
L 133.176068 148.956278 
L 133.458029 148.833391 
L 133.739989 148.448353 
L 134.02195 148.987684 
L 134.585871 149.212924 
L 134.867832 150.445237 
L 135.995674 157.722149 
L 136.277635 157.853256 
L 136.559595 158.886251 
L 136.841556 160.771832 
L 137.123516 161.207264 
L 137.687438 159.583877 
L 137.969398 159.204513 
L 138.251359 158.511292 
L 138.533319 158.704187 
L 138.81528 159.841392 
L 139.097241 158.46964 
L 139.379201 151.036224 
L 139.943122 129.051743 
L 140.225083 124.114337 
L 140.507043 122.309948 
L 140.789004 121.918105 
L 141.070965 124.695223 
L 141.352925 129.900894 
L 141.634886 132.468351 
L 141.916846 131.463109 
L 142.198807 132.11325 
L 142.762728 144.521261 
L 143.044689 150.677955 
L 143.326649 153.466079 
L 143.60861 151.453904 
L 143.890571 147.743545 
L 144.172531 147.401098 
L 144.454492 149.16316 
L 144.736452 148.629543 
L 145.018413 147.504005 
L 145.582334 152.262802 
L 145.864295 150.839411 
L 146.146255 147.874903 
L 146.428216 147.560023 
L 147.274098 153.764072 
L 147.556058 152.975733 
L 147.838019 149.566201 
L 148.119979 147.790907 
L 148.6839 150.492375 
L 148.965861 149.73349 
L 149.247822 150.794004 
L 149.811743 160.511601 
L 150.093703 162.102036 
L 150.375664 161.882898 
L 150.657625 163.116107 
L 150.939585 164.851192 
L 151.221546 163.082819 
L 151.503506 158.426069 
L 151.785467 156.18563 
L 152.067428 156.808901 
L 152.349388 153.935191 
L 153.19527 128.807357 
L 153.47723 123.098348 
L 153.759191 120.529746 
L 154.041152 123.921957 
L 154.605073 136.053441 
L 154.887033 139.744811 
L 155.168994 141.230785 
L 155.450955 139.830615 
L 155.732915 139.99387 
L 156.296836 152.016223 
L 156.578797 150.581038 
L 156.860757 144.964005 
L 157.142718 142.571584 
L 157.424679 143.069751 
L 157.706639 143.145705 
L 157.9886 143.428105 
L 158.552521 146.282663 
L 159.116442 150.303288 
L 159.398403 150.779876 
L 159.680363 150.573563 
L 160.244285 153.518238 
L 160.808206 151.935184 
L 161.372127 154.390887 
L 161.936048 153.04619 
L 162.78193 154.731274 
L 163.627812 159.220022 
L 163.909772 159.104099 
L 164.191733 159.742228 
L 164.473693 160.91859 
L 164.755654 160.207629 
L 165.037614 158.692219 
L 165.319575 159.799572 
L 165.601536 160.453876 
L 165.883496 153.504561 
L 166.447417 129.839204 
L 167.011339 119.948021 
L 167.293299 120.385716 
L 167.85722 131.403434 
L 168.703102 139.711453 
L 168.985063 138.647567 
L 169.267023 139.428368 
L 169.830944 150.806946 
L 170.112905 148.449409 
L 170.394866 144.2241 
L 170.676826 144.44539 
L 170.958787 146.687071 
L 171.522708 147.678393 
L 172.086629 151.259344 
L 172.36859 149.969041 
L 172.65055 147.113367 
L 172.932511 146.650211 
L 173.214471 149.165899 
L 173.496432 150.605467 
L 173.778393 149.593435 
L 174.060353 150.182475 
L 174.624274 156.191498 
L 175.188196 155.760163 
L 175.470156 156.126573 
L 175.752117 155.550395 
L 176.034077 155.342602 
L 176.597999 158.624096 
L 176.879959 159.320261 
L 177.16192 161.079136 
L 177.725841 166.709641 
L 178.007801 166.798348 
L 178.571723 165.141786 
L 178.853683 163.528646 
L 179.135644 158.350893 
L 180.263486 116.683432 
L 180.545447 114.2071 
L 180.827407 117.424845 
L 181.673289 142.805121 
L 181.95525 143.382568 
L 182.23721 144.366393 
L 182.801131 153.595023 
L 183.083092 152.267382 
L 183.365053 149.06335 
L 183.647013 148.070846 
L 183.928974 146.35951 
L 184.210934 142.149632 
L 184.492895 139.679008 
L 184.774856 140.745977 
L 185.338777 143.729421 
L 185.902698 148.651306 
L 186.466619 149.77849 
L 186.74858 150.95068 
L 187.594461 152.949906 
L 187.876422 153.868995 
L 188.158383 156.105717 
L 188.722304 162.839185 
L 189.004264 162.775013 
L 189.286225 163.323134 
L 189.568185 165.207925 
L 189.850146 164.942055 
L 190.132107 162.471336 
L 190.414067 161.50852 
L 190.977988 163.782059 
L 191.259949 164.301641 
L 191.54191 163.900902 
L 192.105831 160.262239 
L 192.387791 157.148308 
L 192.669752 148.608754 
L 193.515634 110.714779 
L 193.797594 104.816592 
L 194.079555 104.701209 
L 195.207397 126.571462 
L 195.771318 141.530624 
L 196.053279 147.083018 
L 196.6172 162.643846 
L 196.899161 159.746049 
L 197.463082 146.073824 
L 197.745042 143.904515 
L 198.027003 143.791705 
L 198.308964 145.275367 
L 198.590924 146.10375 
L 198.872885 144.895992 
L 199.154845 144.534116 
L 200.000727 152.179488 
L 200.282688 152.608751 
L 200.564648 154.268208 
L 201.12857 158.858062 
L 201.41053 159.251346 
L 201.974451 161.909107 
L 202.256412 160.610932 
L 202.538372 157.352216 
L 202.820333 157.348347 
L 203.102294 160.578146 
L 203.384254 161.872957 
L 203.666215 161.311171 
L 203.948175 163.681686 
L 204.230136 168.45822 
L 204.512097 170.787918 
L 205.357978 168.452489 
L 205.639939 164.646862 
L 205.921899 155.233879 
L 206.767781 114.271153 
L 207.049742 108.512765 
L 207.331702 106.114258 
L 207.613663 107.057736 
L 209.023466 131.504611 
L 209.869348 153.91905 
L 210.151308 155.73786 
L 210.99719 145.832585 
L 211.279151 143.922131 
L 211.561111 143.21826 
L 211.843072 145.590249 
L 212.125032 149.112105 
L 212.688954 151.865929 
L 213.534835 161.576475 
L 213.816796 161.499817 
L 214.098756 161.946443 
L 214.380717 162.918188 
L 214.662678 163.391984 
L 214.944638 163.394811 
L 215.226599 163.615422 
L 215.79052 164.827338 
L 216.072481 165.081977 
L 216.354441 166.385047 
L 216.918362 171.572859 
L 217.200323 172.751153 
L 217.764244 178.015395 
L 218.046205 177.402857 
L 218.328165 174.086621 
L 218.610126 172.560195 
L 218.892086 170.207582 
L 219.174047 159.567796 
L 219.737968 124.661305 
L 220.301889 104.83698 
L 220.58385 99.162072 
L 220.865811 96.976392 
L 221.147771 98.073852 
L 221.711692 105.376029 
L 221.993653 109.708602 
L 222.275613 116.258285 
L 223.403456 159.518239 
L 223.685416 156.877738 
L 224.249338 149.185807 
L 224.813259 144.955736 
L 225.095219 145.022691 
L 225.37718 146.912778 
L 226.223062 155.227504 
L 226.505022 156.73197 
L 226.786983 156.522581 
L 227.068943 155.46828 
L 227.350904 155.246831 
L 227.914825 157.391098 
L 228.196786 157.55528 
L 228.478746 158.215244 
L 229.606589 168.609873 
L 229.888549 169.973101 
L 230.17051 172.246278 
L 231.016392 185.322941 
L 231.580313 183.138049 
L 231.862273 184.573625 
L 232.144234 182.370687 
L 232.426195 170.876419 
L 233.554037 104.540379 
L 233.835998 94.534048 
L 234.117958 92.834321 
L 234.399919 94.454034 
L 234.681879 93.683263 
L 234.96384 92.051224 
L 235.2458 93.666966 
L 235.809722 103.960058 
L 236.091682 115.144736 
L 236.655603 149.806524 
L 236.937564 154.872674 
L 237.219525 151.641333 
L 237.501485 150.273847 
L 237.783446 152.302229 
L 238.065406 152.411451 
L 238.347367 150.346489 
L 238.629327 150.057655 
L 238.911288 152.344277 
L 239.475209 160.605711 
L 240.03913 167.450616 
L 240.603052 170.601206 
L 241.448933 173.031113 
L 242.012855 171.450812 
L 242.576776 177.121169 
L 242.858736 176.088434 
L 243.140697 174.081113 
L 243.422657 176.531256 
L 243.704618 180.456757 
L 243.986579 181.100259 
L 244.268539 181.419956 
L 244.83246 189.184608 
L 245.114421 190.272958 
L 245.396382 188.973248 
L 245.678342 184.398492 
L 245.960303 172.838668 
L 247.370106 83.418001 
L 247.934027 67.415106 
L 248.215987 63.886937 
L 248.497948 65.07088 
L 248.779909 69.760581 
L 249.061869 77.112198 
L 249.34383 89.653387 
L 250.189712 143.754716 
L 250.471672 149.555645 
L 250.753633 150.939991 
L 251.035593 150.451929 
L 251.317554 149.210106 
L 251.599514 150.167857 
L 252.445396 162.218254 
L 252.727357 164.533327 
L 253.291278 170.438215 
L 253.573239 169.867869 
L 253.855199 168.642068 
L 254.13716 169.583725 
L 254.41912 171.165067 
L 254.701081 170.697236 
L 254.983041 170.893471 
L 255.265002 176.274802 
L 255.546963 183.829996 
L 255.828923 187.198038 
L 256.110884 188.546595 
L 256.674805 198.129112 
L 256.956766 196.177424 
L 257.238726 191.528139 
L 257.520687 190.531944 
L 257.802647 191.384603 
L 258.084608 191.603155 
L 258.366569 193.00246 
L 258.648529 193.572793 
L 258.93049 187.820126 
L 259.494411 159.384409 
L 260.622253 84.486643 
L 260.904214 70.799242 
L 261.186174 63.15361 
L 261.468135 61.982354 
L 261.750096 61.429717 
L 262.032056 59.890132 
L 262.314017 63.632836 
L 262.595977 76.30145 
L 263.441859 128.391058 
L 263.72382 139.119885 
L 264.00578 142.556249 
L 264.287741 141.855679 
L 264.569701 143.224017 
L 265.133623 152.545916 
L 265.697544 154.620365 
L 267.107347 169.084409 
L 267.671268 172.894762 
L 267.953228 174.50107 
L 268.235189 175.068128 
L 268.51715 175.031864 
L 268.79911 176.178841 
L 269.081071 178.858934 
L 269.363031 182.644356 
L 270.208913 198.404858 
L 270.772834 201.829477 
L 271.336755 210.389152 
L 271.618716 212.671277 
L 271.900677 213.379217 
L 272.182637 211.879668 
L 272.464598 203.767194 
L 273.028519 165.203055 
L 274.156361 86.879366 
L 274.720282 65.752561 
L 275.284204 54.168904 
L 275.566164 50.843935 
L 275.848125 51.69982 
L 276.130085 60.504366 
L 276.975967 102.161518 
L 277.539888 121.836187 
L 278.949691 155.103954 
L 279.513612 164.083493 
L 279.795573 165.677545 
L 280.077534 165.152493 
L 280.359494 166.226099 
L 281.205376 176.814641 
L 281.769297 180.335355 
L 282.051258 180.97544 
L 282.333218 181.239365 
L 282.615179 182.997316 
L 283.1791 192.105053 
L 284.024982 209.909102 
L 284.588903 212.396075 
L 284.870864 214.509295 
L 285.152824 213.928931 
L 285.716745 206.130861 
L 285.998706 196.940825 
L 286.562627 158.685153 
L 287.690469 84.771983 
L 288.536351 63.019102 
L 289.100272 57.793486 
L 289.382233 59.057361 
L 289.664194 67.881588 
L 290.228115 92.661976 
L 291.637918 137.42897 
L 291.919878 142.720446 
L 293.329681 155.90801 
L 293.893602 165.206084 
L 295.021445 175.979987 
L 296.149287 185.211245 
L 296.431248 189.760315 
L 296.995169 202.173245 
L 297.55909 208.666681 
L 298.123011 216.535774 
L 298.404972 216.986924 
L 298.686932 216.651509 
L 298.968893 217.416353 
L 299.250853 216.751824 
L 299.532814 209.119906 
L 300.096735 169.215194 
L 300.942617 103.643793 
L 302.35242 33.545888 
L 302.634381 25.075927 
L 302.916341 26.419799 
L 303.480262 50.508568 
L 304.326144 93.018004 
L 305.172026 139.532212 
L 305.735947 159.16092 
L 306.017908 164.603406 
L 306.299868 167.064537 
L 307.14575 169.466599 
L 307.991632 174.952057 
L 308.273592 177.124394 
L 308.837513 183.75755 
L 309.119474 185.528573 
L 309.401435 188.298894 
L 310.811238 210.267793 
L 311.657119 219.433731 
L 311.93908 220.024354 
L 312.22104 219.967964 
L 312.503001 219.196618 
L 312.784962 212.234494 
L 313.066922 196.133051 
L 314.758686 65.722098 
L 315.040646 48.735399 
L 315.604567 33.20459 
L 315.886528 26.352372 
L 316.168489 28.003427 
L 317.578292 95.725322 
L 318.706134 162.258203 
L 318.988095 172.341166 
L 319.270055 176.467312 
L 319.552016 177.136851 
L 319.833976 177.092614 
L 320.115937 177.454964 
L 320.397897 176.13753 
L 320.679858 172.401303 
L 320.961819 170.488268 
L 321.243779 172.804868 
L 321.8077 179.965893 
L 322.371622 189.787992 
L 322.935543 192.266143 
L 323.781424 204.266891 
L 324.345346 215.653656 
L 324.909267 223.1337 
L 325.191227 228.308555 
L 325.473188 230.757638 
L 325.755149 228.125438 
L 326.037109 220.84125 
L 326.31907 207.85074 
L 326.882991 161.765607 
L 327.728873 86.048132 
L 328.574754 29.016768 
L 328.856715 19.382284 
L 329.138676 15.095148 
L 329.420636 13.688904 
L 329.702597 18.185992 
L 329.984557 31.906734 
L 331.676321 145.945624 
L 332.240242 170.297698 
L 332.522203 176.640636 
L 332.804163 179.14084 
L 333.086124 179.156678 
L 333.650045 178.434373 
L 333.932006 178.290468 
L 334.213966 178.808048 
L 334.495927 180.05019 
L 334.777887 180.765027 
L 335.059848 180.612204 
L 335.341809 181.077476 
L 335.623769 182.498683 
L 335.90573 183.094712 
L 336.18769 182.868517 
L 336.469651 184.284687 
L 337.315533 195.531915 
L 338.161414 212.365542 
L 339.007296 220.766114 
L 339.289257 221.037044 
L 339.571217 219.548708 
L 339.853178 214.177708 
L 340.135138 199.129274 
L 341.826902 48.295156 
L 342.108863 33.657098 
L 342.390823 25.519241 
L 342.672784 22.109992 
L 342.954744 22.583238 
L 343.236705 27.567299 
L 343.518666 38.647168 
L 344.928468 133.665116 
L 345.49239 168.250531 
L 345.77435 176.949444 
L 346.056311 181.518463 
L 346.338271 183.988028 
L 346.620232 183.516087 
L 347.184153 176.347608 
L 347.466114 174.950059 
L 347.748074 175.651456 
L 348.593956 181.417283 
L 348.875917 181.917265 
L 349.157877 181.868899 
L 349.721798 182.069744 
L 350.003759 182.616778 
L 350.28572 184.724322 
L 350.56768 188.830949 
L 351.695523 213.947517 
L 351.977483 216.54929 
L 352.541404 218.62408 
L 352.823365 219.482232 
L 353.105325 217.532056 
L 353.387286 206.510077 
L 353.951207 157.347467 
L 355.07905 55.732523 
L 355.642971 26.303369 
L 355.924931 18.37549 
L 356.206892 15.297699 
L 356.488852 16.596421 
L 356.770813 24.004859 
L 357.334734 58.127702 
L 358.462577 130.058465 
L 359.026498 152.701925 
L 360.15434 170.828431 
L 360.436301 172.650094 
L 360.718261 176.247143 
L 361.282182 186.596069 
L 361.846104 189.825902 
L 362.128064 190.39617 
L 362.410025 189.39757 
L 362.691985 192.490074 
L 362.973946 199.587588 
L 363.255907 201.883641 
L 363.537867 199.488737 
L 363.819828 202.708405 
L 364.101788 210.818702 
L 364.383749 212.72557 
L 364.665709 209.158071 
L 364.94767 210.546356 
L 365.229631 216.46723 
L 365.511591 218.827274 
L 365.793552 218.264411 
L 366.075512 220.485917 
L 366.357473 223.949809 
L 366.639434 221.233068 
L 366.921394 206.356584 
L 367.485315 145.262229 
L 368.331197 56.616985 
L 368.613158 35.240927 
L 368.895118 22.945146 
L 369.459039 13.327015 
L 369.741 12.096 
L 370.022961 17.791427 
L 370.586882 51.261423 
L 371.996685 139.019997 
L 372.842566 162.766741 
L 373.970409 179.777033 
L 374.816291 190.642638 
L 375.098251 191.321769 
L 375.380212 190.841022 
L 375.662172 191.630874 
L 376.226094 195.771054 
L 376.508054 196.899558 
L 376.790015 196.88211 
L 377.071975 196.586809 
L 377.353936 198.272637 
L 379.045699 224.769611 
L 379.32766 227.004528 
L 379.609621 226.743345 
L 379.891581 223.806566 
L 380.173542 214.975659 
L 380.455502 195.344158 
L 381.865305 49.674862 
L 382.147266 34.998299 
L 382.711187 20.59729 
L 382.993148 17.293534 
L 383.275108 19.355599 
L 383.557069 28.117501 
L 384.12099 59.376516 
L 384.966872 114.217776 
L 385.530793 135.123863 
L 386.094714 149.569476 
L 387.786478 172.112997 
L 388.91432 194.070172 
L 389.19628 200.301342 
L 389.478241 203.149354 
L 390.042162 203.159905 
L 390.606083 205.062626 
L 390.888044 207.288537 
L 392.015886 223.041164 
L 392.297847 223.981951 
L 392.579808 226.161308 
L 392.861768 230.944415 
L 393.143729 232.577646 
L 393.425689 226.112092 
L 393.70765 212.590197 
L 393.98961 190.29038 
L 395.117453 59.107854 
L 395.681374 29.311704 
L 395.963335 23.681931 
L 396.245295 20.687098 
L 396.527256 20.421704 
L 396.809216 27.547085 
L 397.373137 56.871978 
L 398.50098 120.577036 
L 399.064901 137.176676 
L 399.346862 142.045946 
L 399.910783 146.770761 
L 400.756665 152.130225 
L 401.038625 152.47961 
L 401.320586 156.487126 
L 401.884507 174.454781 
L 402.448428 186.858927 
L 403.012349 202.530925 
L 403.57627 207.043247 
L 405.268034 225.922508 
L 405.831955 230.320734 
L 406.113916 231.120765 
L 406.395876 231.531738 
L 406.677837 231.034642 
L 406.959797 225.399672 
L 407.241758 209.975246 
L 407.805679 146.250244 
L 408.3696 76.76938 
L 408.933522 38.799729 
L 409.215482 28.074616 
L 409.497443 21.824987 
L 409.779403 20.202654 
L 410.061364 23.850462 
L 410.343324 32.76301 
L 410.907246 62.270861 
L 411.753127 112.690608 
L 412.317049 137.340992 
L 412.599009 142.503892 
L 413.16293 144.510965 
L 413.444891 144.786779 
L 414.008812 142.273379 
L 414.290773 142.524688 
L 414.572733 143.335044 
L 414.854694 144.909868 
L 415.700576 155.066944 
L 415.982536 159.904384 
L 417.392339 202.859153 
L 417.95626 221.889149 
L 418.802142 243.787106 
L 419.084103 245.411146 
L 419.366063 244.916405 
L 419.929984 246.163378 
L 420.211945 243.46598 
L 420.493906 234.409082 
L 420.775866 215.572717 
L 421.339787 144.92399 
L 421.903708 75.236223 
L 422.185669 55.694511 
L 422.46763 44.79275 
L 422.74959 38.411483 
L 423.031551 34.587729 
L 423.313511 34.692521 
L 423.595472 39.872365 
L 423.877433 48.92087 
L 424.159393 61.876099 
L 425.005275 117.480268 
L 425.569196 135.076971 
L 425.851157 139.949519 
L 426.133117 140.072238 
L 426.415078 137.284646 
L 426.697038 136.150179 
L 426.978999 136.50039 
L 427.26096 134.978473 
L 427.54292 132.600414 
L 427.824881 133.272886 
L 428.388802 139.777398 
L 428.670763 141.917151 
L 428.952723 145.632488 
L 429.516644 159.162276 
L 430.362526 185.187496 
L 431.772329 213.499828 
L 432.618211 239.243848 
L 433.464093 254.016 
L 433.746053 253.67559 
L 434.028014 245.829703 
L 434.309974 228.216031 
L 434.873895 158.168144 
L 435.437817 86.688975 
L 436.001738 55.126558 
L 436.283698 45.372001 
L 436.565659 40.093364 
L 436.84762 41.405279 
L 437.12958 46.873411 
L 437.411541 54.657895 
L 437.693501 68.059907 
L 438.257422 104.964224 
L 438.821344 124.392794 
L 439.103304 133.030973 
L 439.385265 137.785984 
L 439.667225 138.231066 
L 439.949186 138.285752 
L 440.231147 137.617798 
L 440.795068 131.389914 
L 441.358989 129.403559 
L 441.64095 129.617583 
L 442.486831 138.296769 
L 443.332713 153.226995 
L 443.614674 161.643451 
L 444.178595 182.587056 
L 444.460555 184.604222 
L 444.742516 187.866963 
L 446.998201 246.075246 
L 447.280161 246.202447 
L 447.562122 242.71644 
L 447.844082 233.267818 
L 448.126043 209.799826 
L 448.971925 99.898313 
L 449.535846 62.286631 
L 449.817806 51.644196 
L 450.099767 45.650066 
L 450.381728 44.168229 
L 450.663688 49.686168 
L 451.227609 81.052264 
L 452.073491 128.69667 
L 452.355452 138.471915 
L 452.637412 139.332456 
L 452.919373 136.452996 
L 453.201334 136.387748 
L 453.483294 138.733283 
L 453.765255 139.301561 
L 454.611136 132.921943 
L 454.893097 134.06657 
L 455.175058 134.262966 
L 455.457018 133.30193 
L 455.738979 135.69906 
L 456.584861 156.326143 
L 457.148782 164.674643 
L 457.712703 174.433998 
L 458.558585 181.739388 
L 459.404466 201.419652 
L 460.532309 219.853299 
L 460.814269 221.010659 
L 461.09623 219.436507 
L 461.378191 208.34148 
L 461.942112 151.399777 
L 462.506033 100.720313 
L 463.069954 73.075054 
L 463.351915 66.923399 
L 463.633875 63.66889 
L 463.915836 64.08467 
L 464.197796 70.147552 
L 464.761718 93.200404 
L 465.607599 130.722501 
L 466.17152 139.66056 
L 466.735442 145.244041 
L 467.017402 146.675911 
L 467.299363 145.933409 
L 467.863284 140.204183 
L 468.145245 140.045185 
L 469.273087 147.769851 
L 469.555048 151.042631 
L 470.118969 162.118867 
L 470.68289 172.168704 
L 470.96485 173.699989 
L 471.528772 174.633998 
L 471.810732 174.682421 
L 472.092693 175.195141 
L 472.374653 178.424123 
L 474.066417 212.344374 
L 474.348377 214.472785 
L 474.630338 209.620953 
L 474.912299 192.960371 
L 475.75818 119.457325 
L 476.322102 93.264733 
L 476.604062 85.626927 
L 476.886023 82.276305 
L 477.167983 80.38914 
L 477.449944 79.891696 
L 477.731905 84.062865 
L 478.295826 104.446506 
L 479.141707 139.42395 
L 479.423668 145.88891 
L 479.705629 147.088536 
L 480.55151 143.616807 
L 480.833471 144.756483 
L 481.115432 147.0052 
L 481.397392 147.888032 
L 481.679353 147.591302 
L 482.243274 149.867556 
L 482.807195 147.059254 
L 483.089156 151.532057 
L 483.371116 158.811068 
L 483.653077 162.140748 
L 483.935037 162.991787 
L 484.216998 166.977952 
L 484.498959 172.732704 
L 484.780919 175.290896 
L 485.06288 175.509169 
L 485.34484 177.540979 
L 486.190722 189.243912 
L 487.036604 197.706753 
L 487.318564 198.156786 
L 487.600525 198.816142 
L 487.882486 198.198314 
L 488.164446 189.032216 
L 489.292289 110.903483 
L 489.85621 84.04545 
L 490.13817 78.971353 
L 490.420131 79.604382 
L 490.702091 82.329607 
L 490.984052 87.215659 
L 491.547973 102.593348 
L 492.393855 133.274027 
L 492.675816 135.574255 
L 492.957776 139.664791 
L 493.239737 147.211391 
L 493.521697 151.176174 
L 494.367579 146.602846 
L 494.64954 144.36426 
L 494.9315 144.249604 
L 495.777382 154.622479 
L 496.341303 165.445832 
L 496.623264 163.756989 
L 496.905224 160.4698 
L 497.187185 162.113931 
L 497.469146 166.101152 
L 497.751106 167.329104 
L 498.033067 167.5508 
L 498.315027 170.480003 
L 498.596988 174.752132 
L 498.878948 177.004788 
L 499.160909 177.921435 
L 499.44287 180.517124 
L 499.72483 184.571898 
L 500.006791 186.543529 
L 500.570712 184.971548 
L 500.852673 186.36377 
L 501.134633 186.621302 
L 501.416594 181.214531 
L 501.698554 168.136942 
L 502.544436 116.675741 
L 503.108357 99.062637 
L 503.390318 95.15591 
L 503.672278 94.764653 
L 503.954239 95.825322 
L 504.2362 97.634901 
L 504.51816 101.393297 
L 505.082081 116.447555 
L 505.646003 134.48801 
L 505.927963 139.678613 
L 506.209924 142.233743 
L 506.491884 142.361227 
L 507.055805 138.900562 
L 507.619727 142.704631 
L 508.183648 141.315423 
L 508.465608 142.776869 
L 509.02953 148.219291 
L 509.593451 155.823422 
L 509.875411 158.167714 
L 510.721293 167.151047 
L 511.003254 166.733628 
L 511.285214 166.57027 
L 511.567175 166.834316 
L 511.849135 167.305355 
L 512.413057 169.833236 
L 512.695017 169.437476 
L 512.976978 170.038006 
L 513.540899 176.950912 
L 513.82286 178.494526 
L 514.10482 179.169332 
L 514.386781 179.53062 
L 514.668741 177.167845 
L 514.950702 168.404117 
L 515.796584 123.931775 
L 516.924426 110.880423 
L 517.770308 116.695728 
L 518.334229 130.511788 
L 519.180111 151.220249 
L 519.462071 152.072888 
L 520.025992 147.705146 
L 520.589914 146.552837 
L 520.871874 145.70223 
L 521.153835 145.542822 
L 521.717756 147.086877 
L 521.999717 148.5771 
L 522.563638 155.835257 
L 522.845598 156.660721 
L 523.127559 154.889769 
L 523.409519 155.20757 
L 523.973441 161.220471 
L 524.255401 161.609671 
L 524.537362 161.355776 
L 524.819322 161.280147 
L 525.101283 161.48847 
L 525.383244 162.488966 
L 525.947165 166.934961 
L 526.793047 175.979454 
L 527.356968 180.236514 
L 527.638928 180.336814 
L 527.920889 178.80262 
L 528.202849 174.554537 
L 528.48481 164.036329 
L 529.330692 121.152468 
L 529.612652 112.75197 
L 529.894613 107.765878 
L 530.176574 108.246881 
L 530.740495 113.947069 
L 531.022455 115.841172 
L 531.586376 125.34376 
L 532.432258 139.841759 
L 532.714219 143.970686 
L 532.996179 146.431212 
L 533.560101 148.041183 
L 533.842061 149.947323 
L 534.124022 151.044208 
L 534.687943 148.775436 
L 534.969904 149.124242 
L 535.251864 148.410304 
L 535.533825 145.573589 
L 535.815785 144.82039 
L 536.379706 149.987128 
L 536.661667 149.597698 
L 536.943628 153.083613 
L 537.507549 170.348154 
L 537.789509 170.519445 
L 538.07147 168.856026 
L 538.353431 170.652222 
L 538.635391 171.323371 
L 539.199312 159.679345 
L 539.481273 159.660431 
L 539.763233 163.517315 
L 540.327155 167.127563 
L 541.173036 185.357528 
L 541.454997 182.871527 
L 541.736958 178.443149 
L 542.018918 168.709938 
L 542.8648 115.409269 
L 543.428721 104.500545 
L 543.710682 101.469074 
L 543.992642 102.445884 
L 545.402445 129.226398 
L 545.966366 142.439024 
L 546.248327 146.161076 
L 546.530288 147.050681 
L 547.094209 146.059128 
L 547.376169 144.646529 
L 547.94009 138.984601 
L 548.222051 139.733539 
L 548.504012 141.710362 
L 548.785972 142.300327 
L 549.067933 143.400343 
L 549.913815 157.290886 
L 550.477736 161.15378 
L 550.759696 163.239978 
L 551.041657 163.457492 
L 551.323618 162.765069 
L 551.605578 162.593258 
L 551.887539 162.592483 
L 552.169499 162.949855 
L 552.45146 163.961484 
L 552.73342 164.206888 
L 553.015381 163.235538 
L 553.297342 163.502004 
L 554.425184 172.930252 
L 554.707145 173.897809 
L 554.989105 172.505353 
L 555.271066 168.451058 
L 555.553026 160.615521 
L 556.398908 126.19989 
L 556.962829 113.674633 
L 557.24479 111.299677 
L 557.52675 111.481067 
L 557.808711 113.072843 
L 558.372632 120.179154 
L 558.936553 128.233229 
L 559.782435 145.714863 
L 560.064396 145.769205 
L 560.910277 140.403916 
L 561.192238 141.564557 
L 561.474199 143.278223 
L 562.03812 145.180635 
L 562.602041 147.739444 
L 562.884002 148.588833 
L 563.447923 153.284967 
L 564.575765 156.936577 
L 565.139686 156.713816 
L 565.421647 156.551792 
L 565.703607 156.038928 
L 565.985568 156.620914 
L 566.83145 161.811804 
L 567.677332 175.656423 
L 567.959292 176.256031 
L 568.241253 176.536066 
L 568.523213 177.158642 
L 568.805174 175.836796 
L 569.087134 170.016455 
L 570.496937 118.988886 
L 570.778898 115.667126 
L 571.060859 114.046592 
L 571.342819 114.176068 
L 571.62478 115.858906 
L 572.470661 123.42762 
L 572.752622 129.013876 
L 573.316543 144.601896 
L 573.598504 147.685592 
L 573.880464 146.757405 
L 574.444386 143.376 
L 575.008307 142.103633 
L 575.290267 141.694127 
L 575.572228 142.040796 
L 576.136149 143.888285 
L 576.41811 144.572686 
L 577.545952 153.379874 
L 578.109873 161.964144 
L 578.673794 162.506848 
L 578.955755 163.912223 
L 579.237716 162.633499 
L 579.519676 159.021081 
L 579.801637 158.19685 
L 580.083597 159.852878 
L 580.365558 160.460915 
L 580.647518 161.382851 
L 581.21144 167.700663 
L 581.4934 169.050216 
L 582.057321 172.844375 
L 582.339282 172.005781 
L 582.903203 168.650272 
L 583.185164 164.699465 
L 584.313006 127.770106 
L 584.876927 116.821886 
L 585.158888 116.299152 
L 586.00477 125.557773 
L 586.568691 137.475433 
L 587.132612 150.2031 
L 587.414573 153.578264 
L 587.696533 154.355575 
L 587.978494 151.939818 
L 588.542415 142.013033 
L 588.824375 140.825889 
L 589.106336 141.993418 
L 589.388297 142.566867 
L 589.670257 142.626771 
L 589.952218 143.662524 
L 590.516139 146.861451 
L 591.08006 150.827965 
L 591.643981 152.178245 
L 592.207903 155.783397 
L 592.489863 155.930399 
L 592.771824 155.338332 
L 593.053784 155.193205 
L 593.335745 154.897478 
L 593.617705 153.616408 
L 593.899666 153.421403 
L 594.463587 158.582741 
L 594.745548 158.043315 
L 595.027508 159.443843 
L 595.59143 175.388975 
L 595.87339 176.469704 
L 596.155351 175.004037 
L 596.437311 176.432448 
L 596.719272 175.683666 
L 597.001232 167.233541 
L 597.847114 133.508826 
L 598.129075 127.745126 
L 598.411035 125.018762 
L 598.692996 120.315146 
L 598.974957 113.299017 
L 599.256917 110.547474 
L 599.538878 114.94663 
L 600.102799 126.023286 
L 600.38476 129.659217 
L 601.230641 144.235037 
L 601.512602 142.868403 
L 601.794562 140.396679 
L 602.358484 138.178352 
L 602.640444 136.136297 
L 602.922405 136.236964 
L 603.486326 140.232382 
L 603.768287 140.907761 
L 604.050247 141.966432 
L 604.332208 143.579313 
L 604.896129 149.221441 
L 605.178089 149.106014 
L 605.46005 148.058809 
L 605.742011 153.201106 
L 606.023971 162.842471 
L 606.305932 166.891572 
L 606.869853 161.457273 
L 607.151814 161.699574 
L 607.433774 159.847487 
L 607.715735 156.649735 
L 607.997695 156.722558 
L 609.125538 167.386719 
L 609.407498 168.057997 
L 609.689459 168.103128 
L 610.25338 169.879287 
L 610.535341 168.40088 
L 610.817301 161.700611 
L 611.663183 129.249538 
L 611.945144 125.465092 
L 612.227104 123.59317 
L 612.509065 123.341867 
L 612.791025 124.868241 
L 613.354946 130.321152 
L 614.200828 138.788116 
L 615.04671 157.036776 
L 615.328671 155.71477 
L 615.610631 153.530822 
L 616.174552 152.497762 
L 616.456513 151.344018 
L 616.738474 150.800228 
L 617.020434 151.475675 
L 617.584355 153.61751 
L 617.866316 152.204664 
L 618.430237 142.494038 
L 618.712198 140.712864 
L 618.994158 140.931642 
L 619.558079 138.578019 
L 619.84004 141.203722 
L 620.403961 150.259745 
L 620.685922 150.991722 
L 620.967882 152.747889 
L 621.249843 156.384876 
L 621.531803 158.555489 
L 622.095725 157.209151 
L 622.659646 159.97895 
L 622.941606 159.771429 
L 623.223567 161.115046 
L 623.787488 172.848555 
L 624.069449 174.542828 
L 624.351409 172.085958 
L 624.63337 167.61664 
L 624.915331 158.533222 
L 625.479252 127.588979 
L 625.761212 120.372581 
L 626.043173 119.823079 
L 626.325133 120.801504 
L 626.607094 123.366568 
L 627.452976 137.17084 
L 628.016897 142.618748 
L 628.580818 149.267236 
L 628.862779 148.039838 
L 629.144739 144.236899 
L 630.272582 137.174151 
L 630.836503 150.703422 
L 631.118463 152.000078 
L 631.400424 151.564649 
L 631.682385 154.730642 
L 631.964345 156.51146 
L 632.246306 152.420949 
L 632.528266 146.509605 
L 632.810227 144.904722 
L 633.092188 145.810472 
L 633.092188 145.810472 
" clip-path="url(#p5eead9d1c8)" style="fill: none; stroke: #1f77b4; stroke-width: 1.5; stroke-linecap: square"/>
   </g>
   <g id="patch_3">
    <path d="M 47.192188 266.112 
L 47.192188 0 
" style="fill: none; stroke: #000000; stroke-width: 0.8; stroke-linejoin: miter; stroke-linecap: square"/>
   </g>
   <g id="patch_4">
    <path d="M 660.992188 266.112 
L 660.992188 0 
" style="fill: none; stroke: #000000; stroke-width: 0.8; stroke-linejoin: miter; stroke-linecap: square"/>
   </g>
   <g id="patch_5">
    <path d="M 47.192188 266.112 
L 660.992188 266.112 
" style="fill: none; stroke: #000000; stroke-width: 0.8; stroke-linejoin: miter; stroke-linecap: square"/>
   </g>
   <g id="patch_6">
    <path d="M 47.192188 0 
L 660.992188 0 
" style="fill: none; stroke: #000000; stroke-width: 0.8; stroke-linejoin: miter; stroke-linecap: square"/>
   </g>
  </g>
 </g>
 <defs>
  <clipPath id="p5eead9d1c8">
   <rect x="47.192188" y="0" width="613.8" height="266.112"/>
  </clipPath>
 </defs>
</svg>
