<?xml version="1.0" encoding="utf-8" standalone="no"?>
<!DOCTYPE svg PUBLIC "-//W3C//DTD SVG 1.1//EN"
  "http://www.w3.org/Graphics/SVG/1.1/DTD/svg11.dtd">
<svg xmlns:xlink="http://www.w3.org/1999/xlink" width="660.992188pt" height="286.248878pt" viewBox="0 0 660.992188 286.248878" xmlns="http://www.w3.org/2000/svg" version="1.1">
 <metadata>
  <rdf:RDF xmlns:dc="http://purl.org/dc/elements/1.1/" xmlns:cc="http://creativecommons.org/ns#" xmlns:rdf="http://www.w3.org/1999/02/22-rdf-syntax-ns#">
   <cc:Work>
    <dc:type rdf:resource="http://purl.org/dc/dcmitype/StillImage"/>
    <dc:date>2023-03-06T19:25:42.183112</dc:date>
    <dc:format>image/svg+xml</dc:format>
    <dc:creator>
     <cc:Agent>
      <dc:title>Matplotlib v3.6.3, https://matplotlib.org/</dc:title>
     </cc:Agent>
    </dc:creator>
   </cc:Work>
  </rdf:RDF>
 </metadata>
 <defs>
  <style type="text/css">*{stroke-linejoin: round; stroke-linecap: butt}</style>
 </defs>
 <g id="figure_1">
  <g id="patch_1">
   <path d="M -0 286.248878 
L 660.992188 286.248878 
L 660.992188 0 
L -0 0 
L -0 286.248878 
z
" style="fill: none"/>
  </g>
  <g id="axes_1">
   <g id="patch_2">
    <path d="M 47.192188 269.570753 
L 660.992188 269.570753 
L 660.992188 3.458753 
L 47.192188 3.458753 
L 47.192188 269.570753 
z
" style="fill: none"/>
   </g>
   <g id="matplotlib.axis_1">
    <g id="xtick_1">
     <g id="line2d_1">
      <defs>
       <path id="meb23e3bea5" d="M 0 0 
L 0 3.5 
" style="stroke: #000000; stroke-width: 0.8"/>
      </defs>
      <g>
       <use xlink:href="#meb23e3bea5" x="75.092188" y="269.570753" style="stroke: #000000; stroke-width: 0.8"/>
      </g>
     </g>
     <g id="text_1">
      <!-- 0 -->
      <g transform="translate(71.910938 284.16919) scale(0.1 -0.1)">
       <defs>
        <path id="DejaVuSans-30" d="M 2034 4250 
Q 1547 4250 1301 3770 
Q 1056 3291 1056 2328 
Q 1056 1369 1301 889 
Q 1547 409 2034 409 
Q 2525 409 2770 889 
Q 3016 1369 3016 2328 
Q 3016 3291 2770 3770 
Q 2525 4250 2034 4250 
z
M 2034 4750 
Q 2819 4750 3233 4129 
Q 3647 3509 3647 2328 
Q 3647 1150 3233 529 
Q 2819 -91 2034 -91 
Q 1250 -91 836 529 
Q 422 1150 422 2328 
Q 422 3509 836 4129 
Q 1250 4750 2034 4750 
z
" transform="scale(0.015625)"/>
       </defs>
       <use xlink:href="#DejaVuSans-30"/>
      </g>
     </g>
    </g>
    <g id="xtick_2">
     <g id="line2d_2">
      <g>
       <use xlink:href="#meb23e3bea5" x="144.842188" y="269.570753" style="stroke: #000000; stroke-width: 0.8"/>
      </g>
     </g>
     <g id="text_2">
      <!-- 500 -->
      <g transform="translate(135.298438 284.16919) scale(0.1 -0.1)">
       <defs>
        <path id="DejaVuSans-35" d="M 691 4666 
L 3169 4666 
L 3169 4134 
L 1269 4134 
L 1269 2991 
Q 1406 3038 1543 3061 
Q 1681 3084 1819 3084 
Q 2600 3084 3056 2656 
Q 3513 2228 3513 1497 
Q 3513 744 3044 326 
Q 2575 -91 1722 -91 
Q 1428 -91 1123 -41 
Q 819 9 494 109 
L 494 744 
Q 775 591 1075 516 
Q 1375 441 1709 441 
Q 2250 441 2565 725 
Q 2881 1009 2881 1497 
Q 2881 1984 2565 2268 
Q 2250 2553 1709 2553 
Q 1456 2553 1204 2497 
Q 953 2441 691 2322 
L 691 4666 
z
" transform="scale(0.015625)"/>
       </defs>
       <use xlink:href="#DejaVuSans-35"/>
       <use xlink:href="#DejaVuSans-30" x="63.623047"/>
       <use xlink:href="#DejaVuSans-30" x="127.246094"/>
      </g>
     </g>
    </g>
    <g id="xtick_3">
     <g id="line2d_3">
      <g>
       <use xlink:href="#meb23e3bea5" x="214.592188" y="269.570753" style="stroke: #000000; stroke-width: 0.8"/>
      </g>
     </g>
     <g id="text_3">
      <!-- 1000 -->
      <g transform="translate(201.867188 284.16919) scale(0.1 -0.1)">
       <defs>
        <path id="DejaVuSans-31" d="M 794 531 
L 1825 531 
L 1825 4091 
L 703 3866 
L 703 4441 
L 1819 4666 
L 2450 4666 
L 2450 531 
L 3481 531 
L 3481 0 
L 794 0 
L 794 531 
z
" transform="scale(0.015625)"/>
       </defs>
       <use xlink:href="#DejaVuSans-31"/>
       <use xlink:href="#DejaVuSans-30" x="63.623047"/>
       <use xlink:href="#DejaVuSans-30" x="127.246094"/>
       <use xlink:href="#DejaVuSans-30" x="190.869141"/>
      </g>
     </g>
    </g>
    <g id="xtick_4">
     <g id="line2d_4">
      <g>
       <use xlink:href="#meb23e3bea5" x="284.342188" y="269.570753" style="stroke: #000000; stroke-width: 0.8"/>
      </g>
     </g>
     <g id="text_4">
      <!-- 1500 -->
      <g transform="translate(271.617188 284.16919) scale(0.1 -0.1)">
       <use xlink:href="#DejaVuSans-31"/>
       <use xlink:href="#DejaVuSans-35" x="63.623047"/>
       <use xlink:href="#DejaVuSans-30" x="127.246094"/>
       <use xlink:href="#DejaVuSans-30" x="190.869141"/>
      </g>
     </g>
    </g>
    <g id="xtick_5">
     <g id="line2d_5">
      <g>
       <use xlink:href="#meb23e3bea5" x="354.092188" y="269.570753" style="stroke: #000000; stroke-width: 0.8"/>
      </g>
     </g>
     <g id="text_5">
      <!-- 2000 -->
      <g transform="translate(341.367188 284.16919) scale(0.1 -0.1)">
       <defs>
        <path id="DejaVuSans-32" d="M 1228 531 
L 3431 531 
L 3431 0 
L 469 0 
L 469 531 
Q 828 903 1448 1529 
Q 2069 2156 2228 2338 
Q 2531 2678 2651 2914 
Q 2772 3150 2772 3378 
Q 2772 3750 2511 3984 
Q 2250 4219 1831 4219 
Q 1534 4219 1204 4116 
Q 875 4013 500 3803 
L 500 4441 
Q 881 4594 1212 4672 
Q 1544 4750 1819 4750 
Q 2544 4750 2975 4387 
Q 3406 4025 3406 3419 
Q 3406 3131 3298 2873 
Q 3191 2616 2906 2266 
Q 2828 2175 2409 1742 
Q 1991 1309 1228 531 
z
" transform="scale(0.015625)"/>
       </defs>
       <use xlink:href="#DejaVuSans-32"/>
       <use xlink:href="#DejaVuSans-30" x="63.623047"/>
       <use xlink:href="#DejaVuSans-30" x="127.246094"/>
       <use xlink:href="#DejaVuSans-30" x="190.869141"/>
      </g>
     </g>
    </g>
    <g id="xtick_6">
     <g id="line2d_6">
      <g>
       <use xlink:href="#meb23e3bea5" x="423.842188" y="269.570753" style="stroke: #000000; stroke-width: 0.8"/>
      </g>
     </g>
     <g id="text_6">
      <!-- 2500 -->
      <g transform="translate(411.117188 284.16919) scale(0.1 -0.1)">
       <use xlink:href="#DejaVuSans-32"/>
       <use xlink:href="#DejaVuSans-35" x="63.623047"/>
       <use xlink:href="#DejaVuSans-30" x="127.246094"/>
       <use xlink:href="#DejaVuSans-30" x="190.869141"/>
      </g>
     </g>
    </g>
    <g id="xtick_7">
     <g id="line2d_7">
      <g>
       <use xlink:href="#meb23e3bea5" x="493.592188" y="269.570753" style="stroke: #000000; stroke-width: 0.8"/>
      </g>
     </g>
     <g id="text_7">
      <!-- 3000 -->
      <g transform="translate(480.867188 284.16919) scale(0.1 -0.1)">
       <defs>
        <path id="DejaVuSans-33" d="M 2597 2516 
Q 3050 2419 3304 2112 
Q 3559 1806 3559 1356 
Q 3559 666 3084 287 
Q 2609 -91 1734 -91 
Q 1441 -91 1130 -33 
Q 819 25 488 141 
L 488 750 
Q 750 597 1062 519 
Q 1375 441 1716 441 
Q 2309 441 2620 675 
Q 2931 909 2931 1356 
Q 2931 1769 2642 2001 
Q 2353 2234 1838 2234 
L 1294 2234 
L 1294 2753 
L 1863 2753 
Q 2328 2753 2575 2939 
Q 2822 3125 2822 3475 
Q 2822 3834 2567 4026 
Q 2313 4219 1838 4219 
Q 1578 4219 1281 4162 
Q 984 4106 628 3988 
L 628 4550 
Q 988 4650 1302 4700 
Q 1616 4750 1894 4750 
Q 2613 4750 3031 4423 
Q 3450 4097 3450 3541 
Q 3450 3153 3228 2886 
Q 3006 2619 2597 2516 
z
" transform="scale(0.015625)"/>
       </defs>
       <use xlink:href="#DejaVuSans-33"/>
       <use xlink:href="#DejaVuSans-30" x="63.623047"/>
       <use xlink:href="#DejaVuSans-30" x="127.246094"/>
       <use xlink:href="#DejaVuSans-30" x="190.869141"/>
      </g>
     </g>
    </g>
    <g id="xtick_8">
     <g id="line2d_8">
      <g>
       <use xlink:href="#meb23e3bea5" x="563.342188" y="269.570753" style="stroke: #000000; stroke-width: 0.8"/>
      </g>
     </g>
     <g id="text_8">
      <!-- 3500 -->
      <g transform="translate(550.617188 284.16919) scale(0.1 -0.1)">
       <use xlink:href="#DejaVuSans-33"/>
       <use xlink:href="#DejaVuSans-35" x="63.623047"/>
       <use xlink:href="#DejaVuSans-30" x="127.246094"/>
       <use xlink:href="#DejaVuSans-30" x="190.869141"/>
      </g>
     </g>
    </g>
    <g id="xtick_9">
     <g id="line2d_9">
      <g>
       <use xlink:href="#meb23e3bea5" x="633.092188" y="269.570753" style="stroke: #000000; stroke-width: 0.8"/>
      </g>
     </g>
     <g id="text_9">
      <!-- 4000 -->
      <g transform="translate(620.367188 284.16919) scale(0.1 -0.1)">
       <defs>
        <path id="DejaVuSans-34" d="M 2419 4116 
L 825 1625 
L 2419 1625 
L 2419 4116 
z
M 2253 4666 
L 3047 4666 
L 3047 1625 
L 3713 1625 
L 3713 1100 
L 3047 1100 
L 3047 0 
L 2419 0 
L 2419 1100 
L 313 1100 
L 313 1709 
L 2253 4666 
z
" transform="scale(0.015625)"/>
       </defs>
       <use xlink:href="#DejaVuSans-34"/>
       <use xlink:href="#DejaVuSans-30" x="63.623047"/>
       <use xlink:href="#DejaVuSans-30" x="127.246094"/>
       <use xlink:href="#DejaVuSans-30" x="190.869141"/>
      </g>
     </g>
    </g>
   </g>
   <g id="matplotlib.axis_2">
    <g id="ytick_1">
     <g id="line2d_10">
      <defs>
       <path id="m5e47b01bc4" d="M 0 0 
L -3.5 0 
" style="stroke: #000000; stroke-width: 0.8"/>
      </defs>
      <g>
       <use xlink:href="#m5e47b01bc4" x="47.192188" y="241.784524" style="stroke: #000000; stroke-width: 0.8"/>
      </g>
     </g>
     <g id="text_10">
      <!-- −20000 -->
      <g transform="translate(0 245.583743) scale(0.1 -0.1)">
       <defs>
        <path id="DejaVuSans-2212" d="M 678 2272 
L 4684 2272 
L 4684 1741 
L 678 1741 
L 678 2272 
z
" transform="scale(0.015625)"/>
       </defs>
       <use xlink:href="#DejaVuSans-2212"/>
       <use xlink:href="#DejaVuSans-32" x="83.789062"/>
       <use xlink:href="#DejaVuSans-30" x="147.412109"/>
       <use xlink:href="#DejaVuSans-30" x="211.035156"/>
       <use xlink:href="#DejaVuSans-30" x="274.658203"/>
       <use xlink:href="#DejaVuSans-30" x="338.28125"/>
      </g>
     </g>
    </g>
    <g id="ytick_2">
     <g id="line2d_11">
      <g>
       <use xlink:href="#m5e47b01bc4" x="47.192188" y="202.120307" style="stroke: #000000; stroke-width: 0.8"/>
      </g>
     </g>
     <g id="text_11">
      <!-- −10000 -->
      <g transform="translate(0 205.919525) scale(0.1 -0.1)">
       <use xlink:href="#DejaVuSans-2212"/>
       <use xlink:href="#DejaVuSans-31" x="83.789062"/>
       <use xlink:href="#DejaVuSans-30" x="147.412109"/>
       <use xlink:href="#DejaVuSans-30" x="211.035156"/>
       <use xlink:href="#DejaVuSans-30" x="274.658203"/>
       <use xlink:href="#DejaVuSans-30" x="338.28125"/>
      </g>
     </g>
    </g>
    <g id="ytick_3">
     <g id="line2d_12">
      <g>
       <use xlink:href="#m5e47b01bc4" x="47.192188" y="162.456089" style="stroke: #000000; stroke-width: 0.8"/>
      </g>
     </g>
     <g id="text_12">
      <!-- 0 -->
      <g transform="translate(33.829688 166.255308) scale(0.1 -0.1)">
       <use xlink:href="#DejaVuSans-30"/>
      </g>
     </g>
    </g>
    <g id="ytick_4">
     <g id="line2d_13">
      <g>
       <use xlink:href="#m5e47b01bc4" x="47.192188" y="122.791871" style="stroke: #000000; stroke-width: 0.8"/>
      </g>
     </g>
     <g id="text_13">
      <!-- 10000 -->
      <g transform="translate(8.379688 126.59109) scale(0.1 -0.1)">
       <use xlink:href="#DejaVuSans-31"/>
       <use xlink:href="#DejaVuSans-30" x="63.623047"/>
       <use xlink:href="#DejaVuSans-30" x="127.246094"/>
       <use xlink:href="#DejaVuSans-30" x="190.869141"/>
       <use xlink:href="#DejaVuSans-30" x="254.492188"/>
      </g>
     </g>
    </g>
    <g id="ytick_5">
     <g id="line2d_14">
      <g>
       <use xlink:href="#m5e47b01bc4" x="47.192188" y="83.127654" style="stroke: #000000; stroke-width: 0.8"/>
      </g>
     </g>
     <g id="text_14">
      <!-- 20000 -->
      <g transform="translate(8.379688 86.926873) scale(0.1 -0.1)">
       <use xlink:href="#DejaVuSans-32"/>
       <use xlink:href="#DejaVuSans-30" x="63.623047"/>
       <use xlink:href="#DejaVuSans-30" x="127.246094"/>
       <use xlink:href="#DejaVuSans-30" x="190.869141"/>
       <use xlink:href="#DejaVuSans-30" x="254.492188"/>
      </g>
     </g>
    </g>
    <g id="ytick_6">
     <g id="line2d_15">
      <g>
       <use xlink:href="#m5e47b01bc4" x="47.192188" y="43.463436" style="stroke: #000000; stroke-width: 0.8"/>
      </g>
     </g>
     <g id="text_15">
      <!-- 30000 -->
      <g transform="translate(8.379688 47.262655) scale(0.1 -0.1)">
       <use xlink:href="#DejaVuSans-33"/>
       <use xlink:href="#DejaVuSans-30" x="63.623047"/>
       <use xlink:href="#DejaVuSans-30" x="127.246094"/>
       <use xlink:href="#DejaVuSans-30" x="190.869141"/>
       <use xlink:href="#DejaVuSans-30" x="254.492188"/>
      </g>
     </g>
    </g>
    <g id="ytick_7">
     <g id="line2d_16">
      <g>
       <use xlink:href="#m5e47b01bc4" x="47.192188" y="3.799219" style="stroke: #000000; stroke-width: 0.8"/>
      </g>
     </g>
     <g id="text_16">
      <!-- 40000 -->
      <g transform="translate(8.379688 7.598438) scale(0.1 -0.1)">
       <use xlink:href="#DejaVuSans-34"/>
       <use xlink:href="#DejaVuSans-30" x="63.623047"/>
       <use xlink:href="#DejaVuSans-30" x="127.246094"/>
       <use xlink:href="#DejaVuSans-30" x="190.869141"/>
       <use xlink:href="#DejaVuSans-30" x="254.492188"/>
      </g>
     </g>
    </g>
   </g>
   <g id="line2d_17">
    <path d="M 75.092188 162.464536 
L 77.065912 162.447144 
L 79.039636 162.466086 
L 80.449439 162.44489 
L 81.859242 162.469062 
L 83.269044 162.440388 
L 84.114926 162.474209 
L 84.960808 162.434531 
L 85.80669 162.482881 
L 86.08865 162.426895 
L 86.370611 162.488182 
L 86.652572 162.420433 
L 86.934532 162.496228 
L 87.216493 162.410148 
L 87.498453 162.509824 
L 87.780414 162.391362 
L 88.062374 162.537406 
L 88.344335 162.347095 
L 88.626296 162.61934 
L 88.908256 162.148908 
L 89.190217 163.616503 
L 89.472177 171.189437 
L 89.754138 171.323781 
L 90.036099 172.111985 
L 90.318059 172.344623 
L 90.60002 172.00841 
L 90.88198 171.91702 
L 91.727862 176.925594 
L 92.009823 176.444863 
L 92.291783 177.044574 
L 92.573744 178.653473 
L 92.855704 178.945258 
L 93.137665 175.56771 
L 93.701586 159.094009 
L 94.265507 143.146146 
L 94.547468 142.965591 
L 95.111389 149.478581 
L 95.39335 148.825255 
L 96.239231 142.996712 
L 96.521192 141.435686 
L 96.803153 141.191327 
L 97.649034 143.591984 
L 98.776877 152.634505 
L 99.058837 157.249126 
L 99.622758 169.369833 
L 99.904719 170.627256 
L 100.46864 167.894178 
L 101.032561 165.722233 
L 101.314522 166.303334 
L 101.596483 167.413037 
L 101.878443 167.483426 
L 102.160404 166.715025 
L 102.442364 166.403356 
L 102.724325 166.536569 
L 103.006286 166.84731 
L 103.288246 167.327048 
L 103.570207 167.261354 
L 103.852167 166.231547 
L 104.134128 165.949843 
L 104.416088 166.917422 
L 104.698049 166.376164 
L 105.26197 160.963896 
L 105.825891 162.735725 
L 106.107852 161.919389 
L 106.389813 161.89234 
L 106.953734 166.747507 
L 107.235694 167.873843 
L 107.799615 168.868822 
L 108.081576 169.045602 
L 108.363537 169.538953 
L 108.927458 171.449554 
L 109.491379 171.603018 
L 110.0553 172.347598 
L 110.337261 173.416419 
L 110.901182 177.49571 
L 111.183143 177.386743 
L 111.465103 176.797356 
L 112.029024 178.465455 
L 112.310985 175.760488 
L 112.874906 157.859923 
L 113.156867 148.202379 
L 113.438827 142.824134 
L 113.720788 142.852527 
L 114.002748 145.2994 
L 114.284709 146.23231 
L 114.84863 143.537524 
L 115.130591 141.865805 
L 115.976472 134.850091 
L 116.258433 135.159459 
L 116.822354 138.509399 
L 117.950197 147.664091 
L 118.232157 151.372857 
L 119.078039 168.687774 
L 119.36 170.687341 
L 119.64196 169.833186 
L 120.487842 160.27805 
L 120.769802 159.88502 
L 121.333724 161.425499 
L 121.615684 161.628031 
L 121.897645 161.521988 
L 122.179605 161.718938 
L 122.461566 163.42373 
L 122.743527 166.159868 
L 123.025487 166.861612 
L 123.589408 162.866767 
L 123.871369 165.147951 
L 124.153329 169.207123 
L 124.43529 170.96348 
L 124.999211 169.244913 
L 125.281172 169.623122 
L 125.563132 170.291623 
L 125.845093 170.189319 
L 126.690975 166.841698 
L 126.972935 167.244397 
L 127.254896 168.177413 
L 127.536857 168.493612 
L 127.818817 168.332668 
L 128.100778 168.588596 
L 128.946659 171.00194 
L 129.22862 171.4376 
L 129.792541 171.659413 
L 130.074502 172.312842 
L 130.356462 173.386797 
L 131.202344 178.171701 
L 131.484305 176.838267 
L 132.330186 169.431294 
L 133.176068 140.684473 
L 133.458029 141.282697 
L 133.739989 144.134012 
L 134.02195 144.346221 
L 134.867832 139.988735 
L 135.431753 134.244935 
L 135.713714 133.383942 
L 135.995674 133.517179 
L 136.559595 133.368446 
L 136.841556 135.289964 
L 137.687438 147.810027 
L 137.969398 149.154123 
L 138.251359 153.393561 
L 138.81528 165.870179 
L 139.097241 167.12176 
L 139.379201 166.339586 
L 140.225083 162.150992 
L 140.507043 162.72711 
L 140.789004 161.465719 
L 141.070965 157.945855 
L 141.352925 156.801877 
L 141.916846 161.45818 
L 142.198807 161.088025 
L 142.480768 161.953941 
L 143.044689 167.205261 
L 143.326649 166.856325 
L 143.60861 166.277391 
L 144.172531 166.462227 
L 144.454492 166.488546 
L 145.018413 167.569534 
L 145.582334 167.88579 
L 145.864295 168.24884 
L 146.146255 168.42406 
L 146.428216 168.256351 
L 146.710176 168.234107 
L 146.992137 168.965698 
L 147.556058 171.154271 
L 148.119979 171.697465 
L 148.6839 172.795558 
L 148.965861 172.979021 
L 149.247822 173.807131 
L 149.811743 176.598911 
L 150.375664 177.414665 
L 151.503506 181.132316 
L 151.785467 181.336517 
L 152.067428 178.858134 
L 152.349388 171.607598 
L 152.913309 150.854534 
L 153.19527 144.653182 
L 153.47723 142.43741 
L 153.759191 142.792311 
L 154.041152 143.809413 
L 154.323112 143.66305 
L 154.887033 139.858272 
L 155.450955 135.326326 
L 155.732915 132.727311 
L 156.014876 131.708368 
L 156.296836 132.959095 
L 157.706639 147.268587 
L 157.9886 151.537737 
L 158.834482 168.555023 
L 159.116442 170.036171 
L 159.398403 169.285687 
L 159.680363 166.297854 
L 160.244285 158.035448 
L 160.526245 158.650375 
L 160.808206 161.564097 
L 161.090166 162.57108 
L 161.372127 161.991633 
L 161.654087 163.85131 
L 161.936048 168.111211 
L 162.218009 170.289186 
L 162.78193 168.133034 
L 163.06389 168.156759 
L 163.345851 167.124077 
L 163.627812 165.506776 
L 163.909772 165.917634 
L 164.191733 167.363608 
L 164.473693 167.033018 
L 164.755654 166.35303 
L 165.319575 170.192165 
L 165.601536 168.483707 
L 165.883496 165.037835 
L 166.165457 164.297262 
L 166.447417 165.353351 
L 167.011339 164.518289 
L 167.293299 167.152819 
L 167.57526 171.1056 
L 167.85722 172.916899 
L 168.139181 173.377377 
L 168.703102 176.51882 
L 168.985063 176.845865 
L 169.267023 176.87412 
L 170.676826 181.405096 
L 171.240747 181.805072 
L 171.522708 182.652824 
L 171.804669 180.925563 
L 172.086629 173.201085 
L 172.65055 150.671096 
L 173.214471 138.908674 
L 173.496432 136.791626 
L 173.778393 137.459638 
L 174.060353 138.863736 
L 174.342314 137.999774 
L 174.624274 135.32788 
L 174.906235 134.015913 
L 175.470156 135.902135 
L 175.752117 135.879107 
L 176.034077 136.295187 
L 177.16192 143.932788 
L 177.44388 147.839377 
L 178.571723 172.735152 
L 179.135644 167.564167 
L 179.417604 166.674622 
L 179.699565 167.096205 
L 180.263486 168.204156 
L 180.545447 167.690886 
L 181.109368 164.202607 
L 181.391328 164.101958 
L 181.673289 164.614255 
L 181.95525 164.372325 
L 182.23721 164.37349 
L 182.519171 166.255725 
L 182.801131 169.041824 
L 183.083092 170.449666 
L 183.647013 170.212242 
L 183.928974 170.412035 
L 184.210934 170.230383 
L 184.492895 169.782994 
L 185.056816 169.245835 
L 185.338777 168.786179 
L 185.620737 168.729896 
L 186.184658 169.366328 
L 186.466619 170.189006 
L 187.312501 175.741105 
L 187.876422 177.674799 
L 188.158383 177.092043 
L 188.440343 174.884395 
L 188.722304 173.789856 
L 189.004264 175.391896 
L 189.286225 177.820582 
L 189.568185 179.068635 
L 189.850146 179.327948 
L 190.132107 179.31045 
L 190.414067 179.62948 
L 190.977988 183.000826 
L 191.259949 180.255552 
L 192.387791 145.221291 
L 192.669752 142.075616 
L 192.951713 141.764634 
L 193.233673 143.325529 
L 193.515634 143.210611 
L 194.079555 138.939755 
L 194.361515 137.661459 
L 194.643476 134.055344 
L 195.207397 125.304287 
L 195.489358 125.166359 
L 195.771318 126.619979 
L 196.053279 129.616162 
L 198.027003 165.353858 
L 198.308964 167.039564 
L 198.590924 167.898931 
L 198.872885 166.92082 
L 199.154845 164.990012 
L 199.436806 165.026285 
L 200.000727 169.845262 
L 200.282688 170.52177 
L 200.846609 170.212284 
L 201.12857 169.945906 
L 201.41053 170.128535 
L 201.692491 170.853684 
L 201.974451 171.08952 
L 202.256412 170.575665 
L 202.538372 170.315043 
L 202.820333 170.520371 
L 203.102294 170.41102 
L 203.384254 170.041509 
L 203.666215 169.889686 
L 203.948175 169.565933 
L 204.230136 168.834587 
L 204.512097 168.522299 
L 205.076018 169.296324 
L 205.639939 168.845112 
L 206.20386 169.977386 
L 206.485821 169.74941 
L 206.767781 169.134335 
L 207.049742 169.778217 
L 207.331702 171.793016 
L 207.613663 172.971734 
L 207.895624 172.74817 
L 208.177584 173.871212 
L 208.741505 179.881148 
L 209.023466 179.863679 
L 209.305427 180.250235 
L 209.869348 185.044992 
L 210.151308 185.373816 
L 210.433269 185.48129 
L 211.279151 188.491923 
L 211.561111 185.968107 
L 211.843072 177.723969 
L 212.406993 153.831062 
L 212.970914 139.518078 
L 213.252875 135.665205 
L 213.534835 135.420427 
L 213.816796 136.411288 
L 214.098756 134.755253 
L 214.662678 127.905978 
L 215.226599 124.113644 
L 215.508559 121.156999 
L 215.79052 119.419553 
L 216.072481 120.275933 
L 216.354441 123.726446 
L 217.200323 141.485757 
L 217.764244 158.328231 
L 218.328165 174.477706 
L 218.610126 177.211867 
L 218.892086 176.060707 
L 219.456008 170.584794 
L 220.019929 168.165996 
L 220.301889 168.036495 
L 221.147771 173.507221 
L 221.429732 172.830689 
L 221.711692 172.51108 
L 221.993653 172.640865 
L 222.275613 172.042226 
L 222.557574 171.023621 
L 222.839535 170.575041 
L 223.403456 170.548257 
L 223.685416 170.379434 
L 224.249338 169.375333 
L 224.531298 169.589299 
L 224.813259 170.229313 
L 225.095219 170.019154 
L 225.37718 169.184996 
L 225.659141 169.068237 
L 225.941101 169.462152 
L 226.505022 168.965437 
L 226.786983 169.684244 
L 227.068943 170.810098 
L 227.632865 171.882534 
L 228.478746 174.871173 
L 229.042668 175.722248 
L 229.606589 177.928502 
L 231.016392 184.44484 
L 231.580313 191.364696 
L 231.862273 191.333471 
L 232.144234 183.329547 
L 232.990116 145.206585 
L 233.272076 138.089841 
L 233.554037 135.002103 
L 233.835998 134.997298 
L 234.117958 135.678555 
L 234.399919 135.677646 
L 234.681879 134.708281 
L 234.96384 132.213555 
L 235.809722 121.326706 
L 236.091682 118.463109 
L 236.373643 117.855992 
L 236.655603 121.470383 
L 237.783446 148.940274 
L 238.629327 176.968745 
L 238.911288 179.834537 
L 239.193249 178.053548 
L 239.75717 172.41909 
L 240.321091 168.396078 
L 240.603052 167.717144 
L 241.166973 169.959698 
L 241.448933 169.934206 
L 242.012855 168.998219 
L 242.576776 168.474858 
L 242.858736 168.108467 
L 243.140697 167.5415 
L 243.704618 165.603753 
L 243.986579 165.805281 
L 244.5505 169.017831 
L 244.83246 169.670696 
L 245.114421 169.784135 
L 245.960303 170.767646 
L 246.242263 170.854651 
L 246.806184 170.47346 
L 247.088145 171.00861 
L 247.652066 173.575232 
L 248.779909 175.898503 
L 249.061869 177.256266 
L 249.62579 180.750766 
L 249.907751 181.43804 
L 250.471672 185.829281 
L 250.753633 185.560354 
L 251.035593 183.258166 
L 251.317554 183.128369 
L 251.599514 184.800555 
L 251.881475 182.414522 
L 252.445396 160.82444 
L 253.009317 139.653608 
L 253.291278 133.236905 
L 253.573239 130.888193 
L 254.13716 131.075499 
L 254.41912 130.785661 
L 254.701081 130.263709 
L 254.983041 128.389684 
L 255.546963 122.055061 
L 255.828923 120.966755 
L 256.110884 120.581775 
L 256.392844 119.889723 
L 256.674805 120.026225 
L 256.956766 122.855922 
L 257.238726 129.054075 
L 257.802647 149.861193 
L 258.366569 174.918919 
L 258.648529 182.306077 
L 258.93049 183.147429 
L 259.776371 172.469638 
L 260.340293 169.448267 
L 260.622253 169.338468 
L 261.186174 171.407151 
L 261.468135 171.794356 
L 261.750096 171.889977 
L 262.314017 172.592749 
L 262.595977 171.965948 
L 263.159898 169.549538 
L 263.441859 169.551492 
L 263.72382 169.938552 
L 264.00578 169.932299 
L 264.287741 169.671319 
L 264.569701 169.723421 
L 264.851662 170.067295 
L 265.133623 170.11947 
L 265.415583 169.748362 
L 265.697544 169.653631 
L 266.543425 171.458491 
L 266.825386 172.59717 
L 267.671268 180.859518 
L 267.953228 181.416596 
L 268.235189 182.809656 
L 268.79911 187.28479 
L 269.081071 188.559649 
L 269.363031 190.497513 
L 269.926953 195.773941 
L 270.772834 199.458922 
L 271.054795 200.222565 
L 271.336755 197.384554 
L 271.618716 188.431137 
L 272.464598 147.853351 
L 273.028519 135.967847 
L 273.59244 130.81089 
L 273.874401 128.286233 
L 274.438322 119.78833 
L 275.848125 94.199615 
L 276.130085 93.262723 
L 276.412046 95.203217 
L 276.694007 99.092347 
L 276.975967 105.817588 
L 277.257928 118.811024 
L 278.10381 177.090421 
L 278.38577 184.455821 
L 278.667731 185.248129 
L 280.077534 175.08957 
L 280.359494 175.240878 
L 280.923415 178.010376 
L 281.205376 177.800919 
L 282.615179 174.844922 
L 282.897139 174.655722 
L 283.1791 174.3118 
L 283.743021 173.138058 
L 284.024982 172.418979 
L 284.306942 172.196942 
L 284.870864 173.537969 
L 285.152824 173.12583 
L 285.434785 172.424892 
L 285.716745 172.960604 
L 285.998706 174.304938 
L 286.562627 175.711711 
L 287.408509 180.685559 
L 287.690469 182.20608 
L 288.254391 187.180947 
L 288.536351 187.640626 
L 288.818312 189.023724 
L 289.382233 194.821652 
L 289.664194 196.574978 
L 291.073996 212.844516 
L 291.355957 212.043215 
L 291.637918 202.31399 
L 292.76576 143.095411 
L 293.047721 133.899309 
L 293.893602 116.530253 
L 294.739484 96.584467 
L 295.585366 69.142995 
L 295.867326 69.04884 
L 296.431248 74.946112 
L 296.713208 79.814231 
L 297.277129 96.662013 
L 297.55909 111.096039 
L 298.686932 195.397321 
L 298.968893 197.833204 
L 299.250853 196.572647 
L 300.378696 186.100811 
L 300.942617 184.214871 
L 301.506538 183.875298 
L 301.788499 183.359512 
L 302.35242 181.236981 
L 302.916341 178.456107 
L 303.480262 175.321032 
L 304.044183 173.797327 
L 304.326144 173.783598 
L 305.172026 176.112473 
L 305.453986 176.077304 
L 305.735947 176.30211 
L 306.017908 176.850152 
L 306.581829 177.401308 
L 306.863789 179.287658 
L 307.42771 184.684926 
L 307.709671 185.88105 
L 307.991632 187.944027 
L 308.555553 193.333559 
L 308.837513 194.299336 
L 309.119474 195.817761 
L 309.965356 204.179637 
L 310.529277 209.630773 
L 310.811238 211.220699 
L 311.093198 214.150749 
L 311.375159 215.640039 
L 311.657119 209.769972 
L 313.066922 143.444166 
L 313.348883 138.286818 
L 313.630843 136.535452 
L 313.912804 130.235393 
L 315.322607 73.942222 
L 315.604567 68.749866 
L 315.886528 68.383657 
L 316.168489 68.862748 
L 316.450449 68.994639 
L 316.73241 70.773362 
L 317.01437 75.522095 
L 317.578292 92.84816 
L 317.860252 107.709305 
L 318.988095 191.888939 
L 319.270055 191.79129 
L 319.552016 188.505856 
L 320.397897 182.556279 
L 320.679858 179.740395 
L 320.961819 179.105507 
L 321.8077 183.989954 
L 322.653582 180.685959 
L 322.935543 180.653741 
L 323.217503 180.437911 
L 323.499464 179.513685 
L 324.063385 177.282822 
L 324.627306 177.039312 
L 325.191227 175.690956 
L 325.473188 175.801318 
L 326.60103 179.107938 
L 327.164952 181.957206 
L 327.446912 183.322543 
L 328.010833 184.305295 
L 328.292794 186.130551 
L 329.138676 198.498162 
L 329.702597 203.174461 
L 329.984557 206.907142 
L 330.266518 209.040722 
L 330.548479 208.579121 
L 330.830439 208.498507 
L 331.39436 213.504743 
L 331.676321 210.886083 
L 331.958281 201.176465 
L 333.086124 143.067078 
L 335.341809 74.414879 
L 335.623769 72.650053 
L 335.90573 72.13807 
L 336.469651 68.879841 
L 336.751611 71.7128 
L 337.315533 86.124459 
L 337.597493 97.797986 
L 338.161414 146.991159 
L 338.443375 172.201449 
L 338.725336 186.711519 
L 339.007296 191.55137 
L 339.289257 191.536077 
L 340.98102 181.220221 
L 341.262981 180.739059 
L 341.544941 181.179018 
L 341.826902 180.360734 
L 342.108863 178.404227 
L 342.390823 177.838223 
L 342.954744 179.927272 
L 343.518666 178.883515 
L 343.800626 178.948181 
L 344.364547 177.683539 
L 344.928468 180.035142 
L 345.210429 179.501124 
L 345.49239 178.317013 
L 345.77435 178.728107 
L 346.620232 182.807397 
L 347.184153 188.445593 
L 347.466114 189.341557 
L 347.748074 190.912238 
L 350.28572 224.633254 
L 350.56768 229.256868 
L 350.849641 231.615743 
L 351.131601 229.86369 
L 351.413562 221.857913 
L 351.977483 187.850995 
L 352.541404 156.97505 
L 353.105325 131.930391 
L 353.669247 100.3647 
L 353.951207 91.269226 
L 355.642971 63.670037 
L 355.924931 60.977645 
L 356.206892 59.417947 
L 356.488852 58.597809 
L 356.770813 58.799677 
L 357.052774 62.137047 
L 357.334734 71.794281 
L 357.898655 110.932926 
L 358.462577 152.110715 
L 359.026498 177.514449 
L 359.308458 182.125704 
L 359.87238 184.499657 
L 360.15434 184.614727 
L 360.718261 181.256703 
L 361.000222 180.849327 
L 361.282182 180.663903 
L 361.846104 178.826957 
L 362.410025 181.148227 
L 362.691985 181.301484 
L 363.819828 179.888694 
L 364.101788 181.093558 
L 364.665709 186.13399 
L 364.94767 186.866886 
L 365.229631 187.211615 
L 365.511591 188.441781 
L 366.075512 192.884004 
L 366.639434 197.73513 
L 367.203355 202.005641 
L 367.767276 208.456027 
L 368.331197 212.871844 
L 369.741 233.713209 
L 370.586882 247.799109 
L 370.868842 245.489313 
L 371.150803 235.617668 
L 372.560606 150.535009 
L 373.124527 116.715856 
L 373.688448 96.935977 
L 374.252369 79.236417 
L 375.098251 44.423187 
L 375.662172 23.479077 
L 375.944133 19.992419 
L 376.226094 20.492432 
L 376.508054 24.246695 
L 376.790015 32.050471 
L 377.071975 44.752965 
L 377.635896 86.910885 
L 378.481778 165.500326 
L 378.763739 181.124168 
L 379.045699 188.434358 
L 379.32766 189.447787 
L 379.609621 188.723672 
L 379.891581 188.512975 
L 380.173542 187.330246 
L 380.737463 183.022275 
L 381.019423 182.107646 
L 381.301384 180.777176 
L 381.583345 180.453322 
L 382.429226 187.532021 
L 382.711187 187.200556 
L 383.275108 187.088736 
L 383.557069 186.778453 
L 383.839029 186.97086 
L 384.684911 189.251143 
L 385.248832 191.375382 
L 385.530793 192.321326 
L 386.094714 196.84613 
L 386.940596 204.551718 
L 387.222556 205.181013 
L 387.504517 204.180364 
L 387.786478 204.353336 
L 388.632359 214.380255 
L 388.91432 218.605901 
L 390.042162 245.158456 
L 390.606083 254.821655 
L 390.888044 251.457878 
L 391.170005 239.863306 
L 392.861768 132.272262 
L 393.425689 101.439756 
L 393.98961 74.388513 
L 394.553532 38.092671 
L 394.835492 25.6963 
L 395.117453 18.420728 
L 395.399413 15.554753 
L 395.681374 17.153763 
L 396.245295 26.603466 
L 396.527256 33.30076 
L 396.809216 45.739235 
L 397.655098 110.167283 
L 398.50098 175.71569 
L 398.78294 188.374926 
L 399.064901 194.711575 
L 399.346862 196.471544 
L 399.628822 195.69295 
L 400.192743 192.299185 
L 401.038625 186.000845 
L 401.602546 183.856475 
L 401.884507 183.586815 
L 402.166467 184.246335 
L 402.448428 185.394461 
L 402.730389 185.959466 
L 403.29431 184.946 
L 403.57627 184.932763 
L 403.858231 185.09126 
L 404.140192 184.915363 
L 404.422152 185.001047 
L 404.986073 187.308059 
L 405.268034 188.396286 
L 405.549994 190.05925 
L 407.241758 208.25679 
L 408.3696 219.990321 
L 409.497443 237.444356 
L 410.061364 246.134041 
L 410.343324 248.493006 
L 410.625285 247.456237 
L 410.907246 239.335153 
L 411.471167 199.617205 
L 412.317049 138.115624 
L 413.16293 90.636883 
L 413.726851 59.045584 
L 414.290773 24.45696 
L 414.572733 19.515948 
L 414.854694 18.890163 
L 415.136654 18.635847 
L 415.418615 21.93746 
L 416.264497 52.428002 
L 416.546457 66.033205 
L 417.392339 130.663329 
L 417.95626 174.265531 
L 418.238221 187.660541 
L 418.520181 193.988301 
L 418.802142 197.206382 
L 419.084103 198.603109 
L 419.366063 197.355526 
L 420.775866 184.450585 
L 421.339787 181.922945 
L 421.621748 181.323643 
L 422.185669 182.60913 
L 422.46763 181.9857 
L 422.74959 182.387021 
L 423.313511 186.498682 
L 423.595472 186.488401 
L 423.877433 186.595976 
L 424.159393 187.31848 
L 424.441354 187.400122 
L 424.723314 187.752037 
L 425.851157 197.514368 
L 426.415078 204.351605 
L 426.978999 209.297092 
L 428.106841 223.676984 
L 428.670763 233.694521 
L 429.798605 249.876532 
L 430.080565 247.514258 
L 430.362526 235.327314 
L 431.208408 170.224471 
L 432.05429 104.328159 
L 433.182132 37.012104 
L 433.464093 32.070125 
L 433.746053 29.782341 
L 434.028014 29.371042 
L 434.309974 31.656956 
L 434.873895 40.845926 
L 435.719777 61.050051 
L 436.001738 70.553666 
L 436.565659 108.194495 
L 437.12958 143.734245 
L 438.257422 194.578212 
L 438.821344 206.397665 
L 439.103304 207.859262 
L 439.385265 205.455218 
L 440.231147 196.410508 
L 440.795068 184.176109 
L 441.077028 181.498311 
L 441.92291 183.209631 
L 442.204871 185.665102 
L 442.486831 189.296066 
L 442.768792 190.907069 
L 443.332713 189.756018 
L 444.178595 191.795387 
L 444.460555 193.3024 
L 445.306437 201.556566 
L 446.152319 212.739112 
L 446.71624 218.101562 
L 447.280161 225.135658 
L 447.844082 236.435717 
L 448.408004 246.080635 
L 448.971925 254.210776 
L 449.253885 251.335109 
L 449.535846 237.246909 
L 450.381728 166.17487 
L 451.227609 94.747462 
L 451.791531 55.344957 
L 452.073491 45.392084 
L 452.355452 41.089225 
L 452.637412 38.773679 
L 452.919373 38.731142 
L 453.483294 44.370067 
L 453.765255 48.214706 
L 454.611136 65.099013 
L 454.893097 68.443993 
L 455.175058 74.035744 
L 455.738979 93.389563 
L 456.866821 146.067702 
L 458.276624 198.787711 
L 458.558585 206.11541 
L 458.840545 210.539846 
L 459.122506 211.5671 
L 459.404466 209.97434 
L 459.968388 203.624257 
L 460.814269 192.42939 
L 461.660151 186.59327 
L 461.942112 186.06473 
L 462.224072 186.650476 
L 462.506033 186.557903 
L 462.787993 185.958953 
L 463.069954 186.551729 
L 463.633875 189.918132 
L 464.197796 192.140945 
L 464.761718 196.32283 
L 465.325639 201.328322 
L 466.453481 214.437156 
L 466.735442 217.235619 
L 467.863284 235.64825 
L 468.709166 249.729308 
L 468.991126 251.206213 
L 469.273087 244.98389 
L 469.555048 229.526544 
L 470.118969 178.443556 
L 470.96485 99.393333 
L 471.528772 62.568697 
L 471.810732 54.237313 
L 472.374653 47.235105 
L 472.656614 45.966152 
L 472.938575 47.459609 
L 473.502496 54.137373 
L 474.630338 71.897261 
L 475.194259 80.988322 
L 475.47622 88.263818 
L 477.167983 152.158766 
L 478.859747 198.642731 
L 479.423668 208.380347 
L 479.705629 211.512272 
L 479.987589 210.914392 
L 481.397392 194.870002 
L 482.243274 191.540773 
L 482.525234 190.979568 
L 483.089156 191.052578 
L 483.371116 191.489957 
L 483.935037 194.959521 
L 485.06288 202.820601 
L 485.626801 209.746625 
L 485.908762 209.817583 
L 486.190722 208.36238 
L 486.472683 209.964167 
L 487.036604 219.228811 
L 487.318564 222.501668 
L 487.600525 227.683612 
L 488.446407 246.823647 
L 488.728367 249.48695 
L 489.010328 245.329094 
L 489.292289 230.314034 
L 490.13817 149.661301 
L 490.702091 95.346243 
L 490.984052 76.069745 
L 491.266013 64.964774 
L 491.547973 59.794662 
L 492.111894 54.469197 
L 492.393855 53.309946 
L 492.675816 54.50055 
L 493.239737 62.364373 
L 493.803658 69.250381 
L 494.085619 71.536538 
L 494.367579 74.732529 
L 494.64954 79.982602 
L 495.213461 97.370528 
L 496.341303 136.851357 
L 497.469146 161.777637 
L 498.033067 171.772617 
L 498.878948 194.186013 
L 499.44287 201.474443 
L 499.72483 205.686406 
L 500.006791 207.366881 
L 500.288751 206.165775 
L 502.262476 192.865762 
L 502.544436 192.918988 
L 503.390318 194.780661 
L 503.954239 198.518218 
L 505.082081 208.17346 
L 505.364042 210.825854 
L 505.927963 219.54577 
L 506.491884 228.104649 
L 507.337766 240.510506 
L 507.901687 247.420504 
L 508.183648 246.127392 
L 508.465608 233.438965 
L 509.02953 176.424081 
L 509.875411 91.548533 
L 510.157372 73.149113 
L 510.439333 64.904837 
L 511.285214 59.383193 
L 511.567175 59.213027 
L 511.849135 61.489446 
L 513.82286 86.814451 
L 514.10482 93.60312 
L 514.950702 128.886992 
L 515.514623 140.007056 
L 516.078544 147.81331 
L 516.360505 150.31827 
L 518.052268 172.478612 
L 518.61619 180.501175 
L 519.462071 196.147009 
L 520.025992 203.661792 
L 520.307953 205.131346 
L 520.589914 205.369643 
L 521.153835 206.402263 
L 521.435795 205.496544 
L 521.999717 202.154078 
L 522.563638 200.897177 
L 522.845598 200.626806 
L 523.127559 201.733101 
L 524.537362 216.813149 
L 525.383244 231.468493 
L 526.793047 251.4258 
L 527.075007 249.342734 
L 527.356968 237.208395 
L 527.638928 213.014484 
L 528.48481 112.293262 
L 529.048731 78.266445 
L 529.330692 71.782739 
L 529.612652 70.855918 
L 529.894613 71.959046 
L 530.176574 71.984847 
L 530.458534 72.258107 
L 531.304416 79.638905 
L 531.586376 80.891495 
L 532.714219 92.799016 
L 533.27814 102.735131 
L 533.842061 119.880941 
L 534.405982 134.649212 
L 534.969904 141.015512 
L 535.533825 145.769261 
L 536.379706 155.058073 
L 536.661667 156.662096 
L 538.353431 173.4439 
L 540.327155 208.787202 
L 540.609115 212.032064 
L 541.173036 214.817328 
L 541.454997 214.894804 
L 542.018918 213.127512 
L 542.582839 213.690365 
L 542.8648 213.302586 
L 543.146761 213.303738 
L 543.428721 214.719266 
L 543.992642 220.03437 
L 544.556563 229.012183 
L 545.684406 248.326434 
L 545.966366 252.434287 
L 546.248327 250.749424 
L 546.530288 238.938445 
L 547.094209 186.117372 
L 547.94009 96.49072 
L 548.222051 83.360313 
L 548.504012 77.680503 
L 549.067933 72.125659 
L 549.349893 71.505586 
L 549.631854 72.885986 
L 550.195775 77.726157 
L 550.759696 86.342812 
L 551.323618 94.982715 
L 551.887539 101.447524 
L 552.45146 110.412208 
L 553.015381 123.683342 
L 553.579302 136.919113 
L 554.143223 141.695735 
L 554.707145 145.329984 
L 554.989105 146.656019 
L 555.834987 152.837611 
L 556.116947 154.581948 
L 556.962829 164.809711 
L 557.24479 165.840019 
L 557.808711 170.832881 
L 558.654593 178.36401 
L 558.936553 179.578308 
L 559.218514 181.67941 
L 559.782435 189.261966 
L 560.064396 191.117932 
L 560.346356 194.281716 
L 560.910277 202.815474 
L 561.192238 205.057619 
L 562.03812 218.678824 
L 562.32008 218.646532 
L 562.602041 220.615106 
L 563.165962 227.048211 
L 563.447923 227.901825 
L 563.729883 229.947675 
L 565.421647 250.937581 
L 565.703607 251.884645 
L 565.985568 245.310067 
L 566.267529 225.445064 
L 567.395371 101.594549 
L 567.677332 89.328281 
L 567.959292 82.05523 
L 568.241253 77.890037 
L 568.523213 75.732036 
L 568.805174 75.083683 
L 569.087134 76.114845 
L 569.651056 80.088181 
L 569.933016 83.430804 
L 570.778898 101.015235 
L 571.060859 104.672911 
L 573.034583 140.703352 
L 573.316543 142.009844 
L 573.880464 148.763562 
L 574.162425 147.893204 
L 574.444386 146.226905 
L 574.726346 147.267738 
L 575.008307 149.326989 
L 575.572228 150.639393 
L 576.136149 153.552054 
L 576.41811 153.284984 
L 576.70007 154.063756 
L 577.827913 166.074901 
L 578.391834 175.890463 
L 578.955755 181.715347 
L 579.519676 192.598846 
L 580.365558 203.105005 
L 580.929479 212.331317 
L 582.057321 227.137006 
L 583.185164 232.387655 
L 583.467124 233.411529 
L 583.749085 234.984098 
L 584.313006 241.154477 
L 584.876927 248.568941 
L 585.158888 246.777932 
L 585.440848 234.724486 
L 586.00477 179.280523 
L 586.568691 113.655508 
L 586.850651 94.977598 
L 587.414573 81.692092 
L 587.696533 77.178592 
L 587.978494 75.80884 
L 588.824375 81.750227 
L 590.234178 100.314705 
L 590.516139 102.495056 
L 590.7981 106.056442 
L 591.362021 126.601117 
L 591.643981 136.296276 
L 592.207903 145.32211 
L 592.489863 147.989779 
L 592.771824 149.346081 
L 593.335745 150.436313 
L 593.617705 151.699524 
L 594.463587 158.436306 
L 594.745548 157.89496 
L 595.027508 158.871734 
L 595.309469 162.419868 
L 595.59143 164.521305 
L 596.155351 161.421984 
L 596.719272 163.325146 
L 597.001232 162.651053 
L 597.283193 163.364409 
L 598.129075 173.741387 
L 598.692996 178.66947 
L 598.974957 180.177195 
L 599.256917 182.562698 
L 599.820838 190.787139 
L 600.102799 193.015271 
L 600.38476 196.26403 
L 600.948681 205.945635 
L 601.512602 212.811485 
L 602.922405 239.662104 
L 603.204365 242.991366 
L 603.768287 255.889098 
L 604.050247 257.474753 
L 604.332208 248.3072 
L 604.614168 228.904355 
L 605.742011 110.233617 
L 606.023971 100.417042 
L 606.587892 92.181093 
L 606.869853 90.371496 
L 607.151814 89.74768 
L 607.433774 89.468479 
L 607.715735 90.567305 
L 608.279656 99.224294 
L 608.843577 106.203281 
L 609.407498 111.482408 
L 610.25338 123.772632 
L 611.099262 142.785703 
L 611.945144 151.208558 
L 612.227104 152.774295 
L 613.072986 154.561183 
L 613.354946 154.835131 
L 613.636907 155.515561 
L 614.200828 159.236956 
L 614.482789 159.917127 
L 614.764749 158.610955 
L 615.04671 156.761162 
L 615.328671 156.916545 
L 615.892592 161.565476 
L 616.174552 161.719205 
L 616.456513 162.694607 
L 617.020434 171.967931 
L 617.302395 173.738604 
L 617.584355 173.695906 
L 617.866316 175.476236 
L 618.430237 180.788408 
L 618.712198 181.852561 
L 618.994158 184.216427 
L 619.558079 190.347327 
L 619.84004 191.797082 
L 620.122001 194.243341 
L 620.967882 207.581462 
L 621.249843 209.045058 
L 621.531803 211.562425 
L 623.505528 245.986457 
L 623.787488 240.435561 
L 624.069449 222.738779 
L 624.915331 135.476459 
L 625.197291 120.438296 
L 625.479252 113.581714 
L 626.043173 106.910585 
L 626.607094 99.243424 
L 626.889055 99.401267 
L 627.734936 104.927543 
L 628.580818 118.38138 
L 629.4267 125.429554 
L 629.70866 129.611653 
L 630.554542 148.853459 
L 631.118463 155.323179 
L 631.400424 158.811986 
L 631.682385 158.918023 
L 632.246306 154.626585 
L 632.528266 154.930164 
L 633.092188 155.254227 
L 633.092188 155.254227 
" clip-path="url(#p5f25054cc1)" style="fill: none; stroke: #1f77b4; stroke-width: 1.5; stroke-linecap: square"/>
   </g>
   <g id="patch_3">
    <path d="M 47.192188 269.570753 
L 47.192188 3.458753 
" style="fill: none; stroke: #000000; stroke-width: 0.8; stroke-linejoin: miter; stroke-linecap: square"/>
   </g>
   <g id="patch_4">
    <path d="M 660.992188 269.570753 
L 660.992188 3.458753 
" style="fill: none; stroke: #000000; stroke-width: 0.8; stroke-linejoin: miter; stroke-linecap: square"/>
   </g>
   <g id="patch_5">
    <path d="M 47.192188 269.570753 
L 660.992188 269.570753 
" style="fill: none; stroke: #000000; stroke-width: 0.8; stroke-linejoin: miter; stroke-linecap: square"/>
   </g>
   <g id="patch_6">
    <path d="M 47.192188 3.458753 
L 660.992188 3.458753 
" style="fill: none; stroke: #000000; stroke-width: 0.8; stroke-linejoin: miter; stroke-linecap: square"/>
   </g>
  </g>
 </g>
 <defs>
  <clipPath id="p5f25054cc1">
   <rect x="47.192188" y="3.458753" width="613.8" height="266.112"/>
  </clipPath>
 </defs>
</svg>
