<?xml version="1.0" encoding="utf-8" standalone="no"?>
<!DOCTYPE svg PUBLIC "-//W3C//DTD SVG 1.1//EN"
  "http://www.w3.org/Graphics/SVG/1.1/DTD/svg11.dtd">
<svg xmlns:xlink="http://www.w3.org/1999/xlink" width="660.992188pt" height="282.790125pt" viewBox="0 0 660.992188 282.790125" xmlns="http://www.w3.org/2000/svg" version="1.1">
 <metadata>
  <rdf:RDF xmlns:dc="http://purl.org/dc/elements/1.1/" xmlns:cc="http://creativecommons.org/ns#" xmlns:rdf="http://www.w3.org/1999/02/22-rdf-syntax-ns#">
   <cc:Work>
    <dc:type rdf:resource="http://purl.org/dc/dcmitype/StillImage"/>
    <dc:date>2023-03-06T19:25:49.094972</dc:date>
    <dc:format>image/svg+xml</dc:format>
    <dc:creator>
     <cc:Agent>
      <dc:title>Matplotlib v3.6.3, https://matplotlib.org/</dc:title>
     </cc:Agent>
    </dc:creator>
   </cc:Work>
  </rdf:RDF>
 </metadata>
 <defs>
  <style type="text/css">*{stroke-linejoin: round; stroke-linecap: butt}</style>
 </defs>
 <g id="figure_1">
  <g id="patch_1">
   <path d="M -0 282.790125 
L 660.992188 282.790125 
L 660.992188 0 
L -0 0 
L -0 282.790125 
z
" style="fill: none"/>
  </g>
  <g id="axes_1">
   <g id="patch_2">
    <path d="M 47.192188 266.112 
L 660.992188 266.112 
L 660.992188 0 
L 47.192188 0 
L 47.192188 266.112 
z
" style="fill: none"/>
   </g>
   <g id="matplotlib.axis_1">
    <g id="xtick_1">
     <g id="line2d_1">
      <defs>
       <path id="md54ad07f4f" d="M 0 0 
L 0 3.5 
" style="stroke: #000000; stroke-width: 0.8"/>
      </defs>
      <g>
       <use xlink:href="#md54ad07f4f" x="75.092188" y="266.112" style="stroke: #000000; stroke-width: 0.8"/>
      </g>
     </g>
     <g id="text_1">
      <!-- 0 -->
      <g transform="translate(71.910938 280.710438) scale(0.1 -0.1)">
       <defs>
        <path id="DejaVuSans-30" d="M 2034 4250 
Q 1547 4250 1301 3770 
Q 1056 3291 1056 2328 
Q 1056 1369 1301 889 
Q 1547 409 2034 409 
Q 2525 409 2770 889 
Q 3016 1369 3016 2328 
Q 3016 3291 2770 3770 
Q 2525 4250 2034 4250 
z
M 2034 4750 
Q 2819 4750 3233 4129 
Q 3647 3509 3647 2328 
Q 3647 1150 3233 529 
Q 2819 -91 2034 -91 
Q 1250 -91 836 529 
Q 422 1150 422 2328 
Q 422 3509 836 4129 
Q 1250 4750 2034 4750 
z
" transform="scale(0.015625)"/>
       </defs>
       <use xlink:href="#DejaVuSans-30"/>
      </g>
     </g>
    </g>
    <g id="xtick_2">
     <g id="line2d_2">
      <g>
       <use xlink:href="#md54ad07f4f" x="144.842188" y="266.112" style="stroke: #000000; stroke-width: 0.8"/>
      </g>
     </g>
     <g id="text_2">
      <!-- 500 -->
      <g transform="translate(135.298438 280.710438) scale(0.1 -0.1)">
       <defs>
        <path id="DejaVuSans-35" d="M 691 4666 
L 3169 4666 
L 3169 4134 
L 1269 4134 
L 1269 2991 
Q 1406 3038 1543 3061 
Q 1681 3084 1819 3084 
Q 2600 3084 3056 2656 
Q 3513 2228 3513 1497 
Q 3513 744 3044 326 
Q 2575 -91 1722 -91 
Q 1428 -91 1123 -41 
Q 819 9 494 109 
L 494 744 
Q 775 591 1075 516 
Q 1375 441 1709 441 
Q 2250 441 2565 725 
Q 2881 1009 2881 1497 
Q 2881 1984 2565 2268 
Q 2250 2553 1709 2553 
Q 1456 2553 1204 2497 
Q 953 2441 691 2322 
L 691 4666 
z
" transform="scale(0.015625)"/>
       </defs>
       <use xlink:href="#DejaVuSans-35"/>
       <use xlink:href="#DejaVuSans-30" x="63.623047"/>
       <use xlink:href="#DejaVuSans-30" x="127.246094"/>
      </g>
     </g>
    </g>
    <g id="xtick_3">
     <g id="line2d_3">
      <g>
       <use xlink:href="#md54ad07f4f" x="214.592188" y="266.112" style="stroke: #000000; stroke-width: 0.8"/>
      </g>
     </g>
     <g id="text_3">
      <!-- 1000 -->
      <g transform="translate(201.867188 280.710438) scale(0.1 -0.1)">
       <defs>
        <path id="DejaVuSans-31" d="M 794 531 
L 1825 531 
L 1825 4091 
L 703 3866 
L 703 4441 
L 1819 4666 
L 2450 4666 
L 2450 531 
L 3481 531 
L 3481 0 
L 794 0 
L 794 531 
z
" transform="scale(0.015625)"/>
       </defs>
       <use xlink:href="#DejaVuSans-31"/>
       <use xlink:href="#DejaVuSans-30" x="63.623047"/>
       <use xlink:href="#DejaVuSans-30" x="127.246094"/>
       <use xlink:href="#DejaVuSans-30" x="190.869141"/>
      </g>
     </g>
    </g>
    <g id="xtick_4">
     <g id="line2d_4">
      <g>
       <use xlink:href="#md54ad07f4f" x="284.342188" y="266.112" style="stroke: #000000; stroke-width: 0.8"/>
      </g>
     </g>
     <g id="text_4">
      <!-- 1500 -->
      <g transform="translate(271.617188 280.710438) scale(0.1 -0.1)">
       <use xlink:href="#DejaVuSans-31"/>
       <use xlink:href="#DejaVuSans-35" x="63.623047"/>
       <use xlink:href="#DejaVuSans-30" x="127.246094"/>
       <use xlink:href="#DejaVuSans-30" x="190.869141"/>
      </g>
     </g>
    </g>
    <g id="xtick_5">
     <g id="line2d_5">
      <g>
       <use xlink:href="#md54ad07f4f" x="354.092188" y="266.112" style="stroke: #000000; stroke-width: 0.8"/>
      </g>
     </g>
     <g id="text_5">
      <!-- 2000 -->
      <g transform="translate(341.367188 280.710438) scale(0.1 -0.1)">
       <defs>
        <path id="DejaVuSans-32" d="M 1228 531 
L 3431 531 
L 3431 0 
L 469 0 
L 469 531 
Q 828 903 1448 1529 
Q 2069 2156 2228 2338 
Q 2531 2678 2651 2914 
Q 2772 3150 2772 3378 
Q 2772 3750 2511 3984 
Q 2250 4219 1831 4219 
Q 1534 4219 1204 4116 
Q 875 4013 500 3803 
L 500 4441 
Q 881 4594 1212 4672 
Q 1544 4750 1819 4750 
Q 2544 4750 2975 4387 
Q 3406 4025 3406 3419 
Q 3406 3131 3298 2873 
Q 3191 2616 2906 2266 
Q 2828 2175 2409 1742 
Q 1991 1309 1228 531 
z
" transform="scale(0.015625)"/>
       </defs>
       <use xlink:href="#DejaVuSans-32"/>
       <use xlink:href="#DejaVuSans-30" x="63.623047"/>
       <use xlink:href="#DejaVuSans-30" x="127.246094"/>
       <use xlink:href="#DejaVuSans-30" x="190.869141"/>
      </g>
     </g>
    </g>
    <g id="xtick_6">
     <g id="line2d_6">
      <g>
       <use xlink:href="#md54ad07f4f" x="423.842188" y="266.112" style="stroke: #000000; stroke-width: 0.8"/>
      </g>
     </g>
     <g id="text_6">
      <!-- 2500 -->
      <g transform="translate(411.117188 280.710438) scale(0.1 -0.1)">
       <use xlink:href="#DejaVuSans-32"/>
       <use xlink:href="#DejaVuSans-35" x="63.623047"/>
       <use xlink:href="#DejaVuSans-30" x="127.246094"/>
       <use xlink:href="#DejaVuSans-30" x="190.869141"/>
      </g>
     </g>
    </g>
    <g id="xtick_7">
     <g id="line2d_7">
      <g>
       <use xlink:href="#md54ad07f4f" x="493.592188" y="266.112" style="stroke: #000000; stroke-width: 0.8"/>
      </g>
     </g>
     <g id="text_7">
      <!-- 3000 -->
      <g transform="translate(480.867188 280.710438) scale(0.1 -0.1)">
       <defs>
        <path id="DejaVuSans-33" d="M 2597 2516 
Q 3050 2419 3304 2112 
Q 3559 1806 3559 1356 
Q 3559 666 3084 287 
Q 2609 -91 1734 -91 
Q 1441 -91 1130 -33 
Q 819 25 488 141 
L 488 750 
Q 750 597 1062 519 
Q 1375 441 1716 441 
Q 2309 441 2620 675 
Q 2931 909 2931 1356 
Q 2931 1769 2642 2001 
Q 2353 2234 1838 2234 
L 1294 2234 
L 1294 2753 
L 1863 2753 
Q 2328 2753 2575 2939 
Q 2822 3125 2822 3475 
Q 2822 3834 2567 4026 
Q 2313 4219 1838 4219 
Q 1578 4219 1281 4162 
Q 984 4106 628 3988 
L 628 4550 
Q 988 4650 1302 4700 
Q 1616 4750 1894 4750 
Q 2613 4750 3031 4423 
Q 3450 4097 3450 3541 
Q 3450 3153 3228 2886 
Q 3006 2619 2597 2516 
z
" transform="scale(0.015625)"/>
       </defs>
       <use xlink:href="#DejaVuSans-33"/>
       <use xlink:href="#DejaVuSans-30" x="63.623047"/>
       <use xlink:href="#DejaVuSans-30" x="127.246094"/>
       <use xlink:href="#DejaVuSans-30" x="190.869141"/>
      </g>
     </g>
    </g>
    <g id="xtick_8">
     <g id="line2d_8">
      <g>
       <use xlink:href="#md54ad07f4f" x="563.342188" y="266.112" style="stroke: #000000; stroke-width: 0.8"/>
      </g>
     </g>
     <g id="text_8">
      <!-- 3500 -->
      <g transform="translate(550.617188 280.710438) scale(0.1 -0.1)">
       <use xlink:href="#DejaVuSans-33"/>
       <use xlink:href="#DejaVuSans-35" x="63.623047"/>
       <use xlink:href="#DejaVuSans-30" x="127.246094"/>
       <use xlink:href="#DejaVuSans-30" x="190.869141"/>
      </g>
     </g>
    </g>
    <g id="xtick_9">
     <g id="line2d_9">
      <g>
       <use xlink:href="#md54ad07f4f" x="633.092188" y="266.112" style="stroke: #000000; stroke-width: 0.8"/>
      </g>
     </g>
     <g id="text_9">
      <!-- 4000 -->
      <g transform="translate(620.367188 280.710438) scale(0.1 -0.1)">
       <defs>
        <path id="DejaVuSans-34" d="M 2419 4116 
L 825 1625 
L 2419 1625 
L 2419 4116 
z
M 2253 4666 
L 3047 4666 
L 3047 1625 
L 3713 1625 
L 3713 1100 
L 3047 1100 
L 3047 0 
L 2419 0 
L 2419 1100 
L 313 1100 
L 313 1709 
L 2253 4666 
z
" transform="scale(0.015625)"/>
       </defs>
       <use xlink:href="#DejaVuSans-34"/>
       <use xlink:href="#DejaVuSans-30" x="63.623047"/>
       <use xlink:href="#DejaVuSans-30" x="127.246094"/>
       <use xlink:href="#DejaVuSans-30" x="190.869141"/>
      </g>
     </g>
    </g>
   </g>
   <g id="matplotlib.axis_2">
    <g id="ytick_1">
     <g id="line2d_10">
      <defs>
       <path id="me0f75bb8b7" d="M 0 0 
L -3.5 0 
" style="stroke: #000000; stroke-width: 0.8"/>
      </defs>
      <g>
       <use xlink:href="#me0f75bb8b7" x="47.192188" y="237.578724" style="stroke: #000000; stroke-width: 0.8"/>
      </g>
     </g>
     <g id="text_10">
      <!-- −30000 -->
      <g transform="translate(0 241.377943) scale(0.1 -0.1)">
       <defs>
        <path id="DejaVuSans-2212" d="M 678 2272 
L 4684 2272 
L 4684 1741 
L 678 1741 
L 678 2272 
z
" transform="scale(0.015625)"/>
       </defs>
       <use xlink:href="#DejaVuSans-2212"/>
       <use xlink:href="#DejaVuSans-33" x="83.789062"/>
       <use xlink:href="#DejaVuSans-30" x="147.412109"/>
       <use xlink:href="#DejaVuSans-30" x="211.035156"/>
       <use xlink:href="#DejaVuSans-30" x="274.658203"/>
       <use xlink:href="#DejaVuSans-30" x="338.28125"/>
      </g>
     </g>
    </g>
    <g id="ytick_2">
     <g id="line2d_11">
      <g>
       <use xlink:href="#me0f75bb8b7" x="47.192188" y="206.829087" style="stroke: #000000; stroke-width: 0.8"/>
      </g>
     </g>
     <g id="text_11">
      <!-- −20000 -->
      <g transform="translate(0 210.628306) scale(0.1 -0.1)">
       <use xlink:href="#DejaVuSans-2212"/>
       <use xlink:href="#DejaVuSans-32" x="83.789062"/>
       <use xlink:href="#DejaVuSans-30" x="147.412109"/>
       <use xlink:href="#DejaVuSans-30" x="211.035156"/>
       <use xlink:href="#DejaVuSans-30" x="274.658203"/>
       <use xlink:href="#DejaVuSans-30" x="338.28125"/>
      </g>
     </g>
    </g>
    <g id="ytick_3">
     <g id="line2d_12">
      <g>
       <use xlink:href="#me0f75bb8b7" x="47.192188" y="176.07945" style="stroke: #000000; stroke-width: 0.8"/>
      </g>
     </g>
     <g id="text_12">
      <!-- −10000 -->
      <g transform="translate(0 179.878669) scale(0.1 -0.1)">
       <use xlink:href="#DejaVuSans-2212"/>
       <use xlink:href="#DejaVuSans-31" x="83.789062"/>
       <use xlink:href="#DejaVuSans-30" x="147.412109"/>
       <use xlink:href="#DejaVuSans-30" x="211.035156"/>
       <use xlink:href="#DejaVuSans-30" x="274.658203"/>
       <use xlink:href="#DejaVuSans-30" x="338.28125"/>
      </g>
     </g>
    </g>
    <g id="ytick_4">
     <g id="line2d_13">
      <g>
       <use xlink:href="#me0f75bb8b7" x="47.192188" y="145.329813" style="stroke: #000000; stroke-width: 0.8"/>
      </g>
     </g>
     <g id="text_13">
      <!-- 0 -->
      <g transform="translate(33.829688 149.129032) scale(0.1 -0.1)">
       <use xlink:href="#DejaVuSans-30"/>
      </g>
     </g>
    </g>
    <g id="ytick_5">
     <g id="line2d_14">
      <g>
       <use xlink:href="#me0f75bb8b7" x="47.192188" y="114.580176" style="stroke: #000000; stroke-width: 0.8"/>
      </g>
     </g>
     <g id="text_14">
      <!-- 10000 -->
      <g transform="translate(8.379688 118.379395) scale(0.1 -0.1)">
       <use xlink:href="#DejaVuSans-31"/>
       <use xlink:href="#DejaVuSans-30" x="63.623047"/>
       <use xlink:href="#DejaVuSans-30" x="127.246094"/>
       <use xlink:href="#DejaVuSans-30" x="190.869141"/>
       <use xlink:href="#DejaVuSans-30" x="254.492188"/>
      </g>
     </g>
    </g>
    <g id="ytick_6">
     <g id="line2d_15">
      <g>
       <use xlink:href="#me0f75bb8b7" x="47.192188" y="83.830539" style="stroke: #000000; stroke-width: 0.8"/>
      </g>
     </g>
     <g id="text_15">
      <!-- 20000 -->
      <g transform="translate(8.379688 87.629758) scale(0.1 -0.1)">
       <use xlink:href="#DejaVuSans-32"/>
       <use xlink:href="#DejaVuSans-30" x="63.623047"/>
       <use xlink:href="#DejaVuSans-30" x="127.246094"/>
       <use xlink:href="#DejaVuSans-30" x="190.869141"/>
       <use xlink:href="#DejaVuSans-30" x="254.492188"/>
      </g>
     </g>
    </g>
    <g id="ytick_7">
     <g id="line2d_16">
      <g>
       <use xlink:href="#me0f75bb8b7" x="47.192188" y="53.080902" style="stroke: #000000; stroke-width: 0.8"/>
      </g>
     </g>
     <g id="text_16">
      <!-- 30000 -->
      <g transform="translate(8.379688 56.88012) scale(0.1 -0.1)">
       <use xlink:href="#DejaVuSans-33"/>
       <use xlink:href="#DejaVuSans-30" x="63.623047"/>
       <use xlink:href="#DejaVuSans-30" x="127.246094"/>
       <use xlink:href="#DejaVuSans-30" x="190.869141"/>
       <use xlink:href="#DejaVuSans-30" x="254.492188"/>
      </g>
     </g>
    </g>
    <g id="ytick_8">
     <g id="line2d_17">
      <g>
       <use xlink:href="#me0f75bb8b7" x="47.192188" y="22.331265" style="stroke: #000000; stroke-width: 0.8"/>
      </g>
     </g>
     <g id="text_17">
      <!-- 40000 -->
      <g transform="translate(8.379688 26.130483) scale(0.1 -0.1)">
       <use xlink:href="#DejaVuSans-34"/>
       <use xlink:href="#DejaVuSans-30" x="63.623047"/>
       <use xlink:href="#DejaVuSans-30" x="127.246094"/>
       <use xlink:href="#DejaVuSans-30" x="190.869141"/>
       <use xlink:href="#DejaVuSans-30" x="254.492188"/>
      </g>
     </g>
    </g>
   </g>
   <g id="line2d_18">
    <path d="M 75.092188 145.388727 
L 75.374148 145.273871 
L 75.656109 145.383052 
L 75.938069 145.279042 
L 76.22003 145.37832 
L 76.50199 145.28339 
L 76.783951 145.374313 
L 77.065912 145.287095 
L 77.347872 145.370875 
L 77.629833 145.290292 
L 77.911793 145.367895 
L 78.193754 145.293077 
L 78.475715 145.365286 
L 78.757675 145.295526 
L 79.039636 145.362984 
L 79.321596 145.297695 
L 79.603557 145.360938 
L 79.885517 145.299628 
L 80.167478 145.359108 
L 80.449439 145.301361 
L 81.01336 145.302922 
L 81.859242 145.35464 
L 82.705123 145.306761 
L 83.551005 145.351352 
L 84.396887 145.309519 
L 85.242769 145.34921 
L 86.08865 145.310693 
L 86.934532 145.35031 
L 87.780414 145.300508 
L 88.062374 145.369088 
L 88.344335 145.266242 
L 88.626296 145.473995 
L 88.908256 144.615545 
L 89.190217 133.73854 
L 89.472177 134.723163 
L 90.318059 151.277341 
L 90.60002 151.923888 
L 92.291783 139.862675 
L 92.573744 141.154344 
L 93.137665 145.871935 
L 94.265507 151.761185 
L 94.547468 151.768449 
L 94.829429 150.819499 
L 95.111389 150.522303 
L 95.39335 150.94619 
L 95.67531 150.534566 
L 95.957271 149.787035 
L 96.239231 150.580554 
L 96.521192 152.676391 
L 96.803153 153.452279 
L 97.085113 152.716065 
L 97.367074 152.628669 
L 97.649034 153.348403 
L 97.930995 152.402303 
L 98.212956 150.098198 
L 98.494916 149.345375 
L 98.776877 150.455367 
L 99.058837 150.694318 
L 99.340798 150.075976 
L 99.622758 150.828134 
L 99.904719 152.674149 
L 100.18668 153.477249 
L 100.46864 153.891572 
L 101.032561 156.10122 
L 101.314522 155.865221 
L 101.596483 156.983431 
L 102.160404 163.465365 
L 102.442364 163.988168 
L 102.724325 164.039008 
L 103.288246 166.126692 
L 103.570207 164.655867 
L 103.852167 159.052432 
L 104.416088 133.870927 
L 104.98001 113.244216 
L 105.26197 108.398545 
L 105.543931 106.452284 
L 105.825891 109.396636 
L 106.389813 123.735321 
L 106.953734 131.352167 
L 107.235694 134.60862 
L 107.517655 136.183071 
L 107.799615 134.975418 
L 108.081576 132.839888 
L 108.363537 132.814636 
L 108.645497 135.776027 
L 109.209418 144.18992 
L 109.491379 146.959543 
L 109.77334 148.192226 
L 110.0553 147.503775 
L 110.619221 144.239765 
L 110.901182 144.297733 
L 111.183143 144.499563 
L 111.747064 143.440568 
L 112.029024 143.689967 
L 112.592945 145.755797 
L 113.720788 150.528911 
L 114.002748 150.859901 
L 114.284709 150.505256 
L 114.84863 150.452281 
L 115.412551 149.472052 
L 115.976472 150.08125 
L 116.540394 149.187574 
L 117.104315 149.787709 
L 117.386275 149.857155 
L 117.950197 151.028154 
L 118.232157 150.961654 
L 118.514118 151.252482 
L 118.796078 152.234594 
L 119.078039 152.765311 
L 119.36 152.78999 
L 119.64196 153.545454 
L 119.923921 154.649806 
L 120.487842 155.648755 
L 121.051763 158.311036 
L 121.897645 161.046009 
L 122.179605 160.809979 
L 122.461566 160.834335 
L 122.743527 160.724307 
L 123.025487 156.425628 
L 123.589408 132.153759 
L 124.153329 111.148051 
L 124.43529 106.584447 
L 124.717251 107.799287 
L 125.845093 129.706063 
L 126.127054 132.062539 
L 126.409014 132.53303 
L 126.690975 132.031722 
L 126.972935 130.063322 
L 127.536857 123.864755 
L 127.818817 126.287744 
L 128.382738 136.745276 
L 129.22862 143.370031 
L 129.510581 143.552029 
L 130.074502 139.226544 
L 130.356462 138.784947 
L 130.638423 139.500105 
L 130.920384 139.818955 
L 131.202344 139.966379 
L 131.484305 141.318119 
L 131.766265 143.428961 
L 132.048226 144.551961 
L 132.330186 144.572137 
L 132.612147 145.013418 
L 133.176068 147.015919 
L 133.458029 147.362743 
L 134.02195 148.490939 
L 134.303911 147.897792 
L 134.867832 144.527831 
L 135.149792 144.705048 
L 135.431753 145.74386 
L 135.995674 146.690838 
L 136.559595 151.137743 
L 136.841556 151.862287 
L 137.123516 151.616924 
L 137.405477 152.596645 
L 137.969398 155.756112 
L 139.097241 157.885188 
L 141.070965 165.037008 
L 141.352925 164.793305 
L 141.634886 161.150595 
L 141.916846 152.133939 
L 142.762728 115.30533 
L 143.044689 107.879608 
L 143.326649 105.845468 
L 143.60861 109.015374 
L 144.736452 128.599925 
L 145.018413 130.587717 
L 145.300373 130.055315 
L 145.864295 127.852928 
L 146.146255 127.444983 
L 146.428216 128.276654 
L 146.710176 132.040253 
L 147.274098 143.515351 
L 147.556058 145.57855 
L 147.838019 145.18998 
L 148.40194 142.64126 
L 148.965861 139.844371 
L 149.247822 139.229174 
L 149.529782 139.079677 
L 149.811743 139.677867 
L 150.657625 145.229584 
L 151.221546 145.95351 
L 151.785467 148.583596 
L 152.067428 148.603864 
L 152.349388 148.259051 
L 152.631349 149.579571 
L 152.913309 152.068789 
L 153.19527 153.210916 
L 153.47723 152.681203 
L 153.759191 152.419753 
L 154.041152 152.906035 
L 154.605073 153.2605 
L 155.450955 155.871863 
L 155.732915 156.347178 
L 156.014876 156.37151 
L 156.578797 152.938597 
L 156.860757 153.450236 
L 157.424679 157.511233 
L 157.706639 159.106951 
L 158.27056 164.185112 
L 158.834482 166.118513 
L 159.398403 169.154178 
L 159.680363 169.05933 
L 159.962324 169.504901 
L 160.244285 170.702628 
L 160.526245 169.239582 
L 160.808206 162.159259 
L 161.372127 135.22159 
L 161.936048 107.247072 
L 162.218009 101.022315 
L 162.499969 102.078124 
L 163.909772 127.644161 
L 164.191733 129.165437 
L 164.473693 128.247684 
L 164.755654 125.809218 
L 165.037614 124.481861 
L 165.319575 126.57488 
L 166.447417 147.776083 
L 166.729378 147.955345 
L 168.139181 137.670126 
L 168.421142 137.530285 
L 168.985063 140.817458 
L 169.267023 141.432309 
L 169.548984 142.583197 
L 170.112905 146.041014 
L 170.676826 148.416714 
L 170.958787 149.113796 
L 171.240747 149.415218 
L 171.522708 150.557692 
L 172.086629 154.510513 
L 172.36859 154.722365 
L 172.65055 154.447494 
L 172.932511 154.71147 
L 173.778393 155.995529 
L 174.060353 156.92816 
L 174.342314 157.474038 
L 174.624274 157.305007 
L 174.906235 157.279796 
L 175.188196 158.201075 
L 175.752117 160.584018 
L 176.316038 162.249272 
L 177.725841 168.244099 
L 178.571723 169.833002 
L 178.853683 170.672522 
L 179.135644 170.384209 
L 179.417604 166.069181 
L 179.699565 155.713065 
L 180.545447 113.017358 
L 180.827407 103.875797 
L 181.109368 99.979941 
L 181.391328 101.456973 
L 181.95525 113.362003 
L 182.519171 126.97151 
L 182.801131 129.442044 
L 183.083092 129.346378 
L 183.365053 128.719347 
L 183.928974 126.544933 
L 184.210934 128.303841 
L 185.056816 147.918065 
L 185.338777 148.888916 
L 185.620737 147.844121 
L 186.74858 141.433322 
L 187.312501 135.80106 
L 187.594461 135.198189 
L 188.158383 139.496496 
L 188.722304 143.331044 
L 189.286225 145.878596 
L 190.132107 148.487487 
L 191.82387 155.4993 
L 192.387791 156.813387 
L 192.669752 157.483853 
L 193.233673 157.605024 
L 193.797594 158.677775 
L 194.361515 158.228415 
L 194.643476 159.21792 
L 195.207397 162.881751 
L 195.489358 163.602261 
L 195.771318 164.64728 
L 196.053279 167.517389 
L 196.6172 174.926817 
L 196.899161 176.293015 
L 197.463082 177.212787 
L 197.745042 177.083137 
L 198.027003 173.443238 
L 198.308964 163.695086 
L 199.436806 101.874055 
L 199.718767 94.198933 
L 200.000727 91.922847 
L 200.282688 94.320403 
L 200.846609 106.343125 
L 201.41053 119.219565 
L 201.692491 121.569169 
L 202.256412 121.558507 
L 202.820333 122.281476 
L 203.102294 125.637115 
L 203.948175 154.649231 
L 204.230136 153.930727 
L 204.512097 151.090244 
L 205.076018 147.84729 
L 205.639939 142.047046 
L 205.921899 140.357883 
L 206.20386 139.486158 
L 206.485821 139.624366 
L 207.613663 145.363892 
L 208.177584 148.946714 
L 208.459545 149.804634 
L 208.741505 149.498516 
L 209.023466 148.934426 
L 209.305427 149.21169 
L 210.151308 152.570195 
L 210.99719 157.664754 
L 211.843072 158.927635 
L 212.125032 158.860347 
L 212.406993 159.789196 
L 212.970914 164.514218 
L 213.534835 163.814603 
L 214.098756 167.584266 
L 214.380717 165.76444 
L 214.662678 162.504896 
L 214.944638 162.148284 
L 215.79052 169.231417 
L 216.354441 173.379325 
L 216.636402 174.395439 
L 217.200323 175.016995 
L 217.482284 173.789176 
L 217.764244 168.462257 
L 218.046205 157.24078 
L 219.174047 94.003084 
L 219.456008 85.955941 
L 219.737968 83.694177 
L 220.019929 87.098524 
L 221.429732 119.322752 
L 221.711692 120.9526 
L 221.993653 120.935934 
L 222.275613 120.745963 
L 222.557574 122.983342 
L 222.839535 130.345544 
L 223.403456 151.777924 
L 223.685416 156.129829 
L 223.967377 155.594272 
L 225.095219 145.600514 
L 225.659141 136.925039 
L 225.941101 136.816757 
L 226.223062 138.966842 
L 226.786983 140.555223 
L 227.632865 155.093975 
L 227.914825 155.121732 
L 228.478746 157.170179 
L 228.760707 155.876648 
L 229.042668 153.77553 
L 229.324628 153.331891 
L 229.606589 153.765835 
L 229.888549 154.56105 
L 230.45247 159.226145 
L 230.734431 159.039814 
L 231.016392 157.293312 
L 231.298352 156.993629 
L 231.580313 157.973063 
L 232.144234 158.804373 
L 232.708155 160.568255 
L 232.990116 160.791371 
L 233.272076 161.530498 
L 233.835998 164.09503 
L 234.399919 166.38244 
L 235.527761 172.891952 
L 235.809722 174.12253 
L 236.091682 176.784279 
L 236.655603 183.7556 
L 236.937564 181.248708 
L 237.219525 170.616974 
L 238.629327 87.606462 
L 238.911288 81.486329 
L 239.193249 82.254178 
L 240.03913 97.093228 
L 240.885012 113.519178 
L 241.448933 118.687893 
L 241.730894 124.633088 
L 242.576776 153.239491 
L 242.858736 157.329273 
L 243.140697 156.78547 
L 243.704618 152.663437 
L 243.986579 151.20338 
L 245.114421 143.25097 
L 245.396382 143.612744 
L 245.960303 145.62286 
L 246.242263 146.362148 
L 247.370106 151.484359 
L 247.934027 152.744559 
L 248.497948 154.938693 
L 248.779909 155.146018 
L 249.34383 153.096191 
L 249.62579 153.878115 
L 250.189712 155.828051 
L 250.471672 156.882326 
L 250.753633 158.375917 
L 251.599514 161.027713 
L 252.163436 163.949875 
L 252.445396 166.481957 
L 253.009317 173.239751 
L 253.573239 176.854917 
L 254.13716 183.347561 
L 254.701081 187.182205 
L 254.983041 189.920137 
L 255.265002 191.440155 
L 255.546963 188.267212 
L 255.828923 178.27891 
L 256.392844 142.445688 
L 257.238726 88.766511 
L 257.520687 79.83725 
L 257.802647 75.171484 
L 258.084608 73.030435 
L 258.366569 73.596924 
L 258.648529 77.630447 
L 259.494411 93.715372 
L 260.058332 101.404319 
L 260.340293 107.26196 
L 260.622253 117.253505 
L 261.468135 156.689281 
L 261.750096 162.154572 
L 262.032056 163.343103 
L 262.314017 161.396305 
L 262.877938 156.067683 
L 263.159898 154.346577 
L 264.00578 143.563033 
L 264.287741 143.885053 
L 265.697544 150.60791 
L 266.261465 152.531735 
L 266.543425 152.789381 
L 266.825386 152.848814 
L 267.107347 153.988279 
L 267.671268 157.611351 
L 269.081071 162.31752 
L 270.208913 169.463211 
L 270.490874 170.383338 
L 271.054795 168.146537 
L 271.336755 169.534682 
L 271.618716 171.907573 
L 272.182637 173.647622 
L 272.464598 178.701153 
L 273.028519 192.266536 
L 273.59244 195.974759 
L 273.874401 200.733829 
L 274.156361 203.342346 
L 274.438322 198.065354 
L 275.002243 166.72707 
L 276.130085 87.485312 
L 276.694007 65.607866 
L 276.975967 60.005501 
L 277.257928 58.489304 
L 277.539888 59.779518 
L 277.821849 63.394414 
L 278.38577 73.472456 
L 278.949691 79.444106 
L 279.231652 86.034488 
L 279.513612 97.072604 
L 280.641455 161.384939 
L 280.923415 165.398241 
L 281.205376 165.556351 
L 282.333218 160.645716 
L 283.461061 152.90342 
L 283.743021 151.255985 
L 284.024982 150.894392 
L 284.306942 152.002354 
L 284.588903 152.520011 
L 284.870864 151.880215 
L 285.152824 151.862376 
L 285.434785 152.666096 
L 285.716745 152.787289 
L 285.998706 152.476441 
L 286.280667 153.169323 
L 286.562627 154.205721 
L 287.126548 154.569714 
L 287.408509 156.534199 
L 287.97243 161.850755 
L 288.536351 163.735909 
L 288.818312 166.377692 
L 289.382233 174.77623 
L 289.946154 177.493081 
L 290.510075 182.03624 
L 290.792036 181.923691 
L 291.073996 182.284656 
L 291.919878 190.648787 
L 293.047721 203.053533 
L 293.329681 204.497764 
L 293.611642 198.873518 
L 293.893602 184.291569 
L 295.585366 64.940211 
L 295.867326 55.912015 
L 296.149287 53.735227 
L 296.713208 59.844446 
L 296.995169 61.14566 
L 297.277129 63.291341 
L 297.55909 66.342614 
L 297.841051 67.656141 
L 298.123011 67.659121 
L 298.404972 71.356141 
L 298.686932 83.433746 
L 299.814775 154.214502 
L 300.096735 162.651797 
L 300.378696 165.402802 
L 300.660656 164.611691 
L 300.942617 164.484518 
L 301.224578 165.386115 
L 301.506538 164.335469 
L 302.35242 154.526618 
L 302.634381 153.080671 
L 302.916341 153.468669 
L 303.198302 155.348633 
L 303.480262 156.41592 
L 304.044183 154.629954 
L 304.326144 154.619162 
L 304.890065 155.467427 
L 305.172026 156.953171 
L 305.735947 161.660866 
L 306.299868 164.041689 
L 306.863789 168.62974 
L 307.14575 168.217224 
L 307.42771 167.576944 
L 307.709671 169.44928 
L 308.273592 174.668521 
L 308.555553 176.328838 
L 309.683395 189.785435 
L 309.965356 192.416908 
L 311.093198 206.42894 
L 311.375159 208.865253 
L 311.93908 214.821118 
L 312.22104 210.955236 
L 312.503001 197.20615 
L 314.194765 67.757752 
L 314.476725 60.568547 
L 315.040646 58.012472 
L 315.322607 56.731435 
L 315.604567 56.583354 
L 315.886528 56.225918 
L 316.73241 49.376252 
L 317.01437 53.465581 
L 317.296331 63.995781 
L 318.424173 124.510363 
L 318.706134 133.760359 
L 320.115937 160.02149 
L 320.397897 162.108565 
L 320.679858 162.757796 
L 320.961819 162.510473 
L 321.243779 161.429589 
L 321.52574 160.879091 
L 321.8077 161.539831 
L 322.089661 161.698786 
L 322.653582 158.817911 
L 322.935543 158.880986 
L 323.217503 159.56674 
L 323.499464 159.570769 
L 323.781424 159.283499 
L 324.063385 159.62175 
L 324.627306 161.372108 
L 324.909267 163.386759 
L 325.473188 169.07018 
L 326.037109 173.00726 
L 326.60103 178.43303 
L 326.882991 179.672925 
L 327.164952 182.039556 
L 327.728873 189.345403 
L 328.292794 195.29496 
L 329.984557 221.678048 
L 330.548479 230.445359 
L 330.830439 229.010368 
L 331.1124 219.397976 
L 331.676321 174.954927 
L 332.522203 101.056185 
L 333.086124 72.841328 
L 333.650045 63.75422 
L 334.495927 50.481178 
L 335.623769 27.55333 
L 335.90573 28.600382 
L 336.18769 39.101448 
L 337.033572 82.084937 
L 338.443375 139.941142 
L 339.007296 155.574245 
L 339.571217 166.407705 
L 339.853178 166.988293 
L 340.135138 165.21505 
L 340.417099 164.747196 
L 340.69906 165.913245 
L 340.98102 166.367789 
L 341.544941 165.027932 
L 342.108863 164.367778 
L 342.390823 164.610287 
L 343.236705 167.968748 
L 343.800626 170.621565 
L 344.082587 171.56904 
L 344.646508 176.189305 
L 344.928468 176.888916 
L 345.210429 175.509624 
L 345.49239 174.859379 
L 345.77435 176.475505 
L 346.620232 185.624256 
L 347.466114 201.257599 
L 349.439838 235.63127 
L 349.721798 238.372014 
L 350.003759 234.483329 
L 350.28572 220.15541 
L 350.849641 168.56886 
L 351.695523 93.912364 
L 352.259444 66.839259 
L 353.105325 48.739263 
L 353.951207 21.112463 
L 354.233168 16.604222 
L 354.515128 14.451578 
L 354.797089 16.14737 
L 355.07905 24.325637 
L 355.924931 73.705774 
L 356.770813 121.29747 
L 357.616695 155.486918 
L 357.898655 160.361984 
L 358.462577 164.555626 
L 358.744537 166.970408 
L 359.026498 167.620618 
L 359.308458 167.752527 
L 359.590419 168.386206 
L 359.87238 168.060477 
L 360.15434 166.780602 
L 360.436301 166.379519 
L 360.718261 166.80587 
L 361.000222 166.807456 
L 361.282182 167.524675 
L 363.537867 190.421101 
L 364.101788 193.42004 
L 365.229631 199.812894 
L 365.511591 200.528862 
L 365.793552 202.962706 
L 366.921394 220.760192 
L 367.485315 234.678624 
L 367.767276 239.568803 
L 368.049237 242.035668 
L 368.331197 237.822861 
L 368.613158 222.899582 
L 369.177079 169.511755 
L 370.022961 89.156029 
L 371.150803 31.988615 
L 371.432764 22.163038 
L 371.714724 17.247408 
L 372.278645 13.086763 
L 372.560606 12.096 
L 372.842566 14.569811 
L 373.124527 22.202996 
L 373.688448 49.42431 
L 374.816291 110.86462 
L 375.380212 133.473251 
L 375.944133 148.280537 
L 376.226094 153.632344 
L 376.508054 156.798778 
L 376.790015 157.976022 
L 377.071975 158.308845 
L 377.353936 157.566917 
L 377.917857 153.86887 
L 378.199818 155.133867 
L 378.763739 161.261299 
L 380.173542 171.794137 
L 380.737463 182.522233 
L 381.301384 192.391902 
L 381.865305 195.769105 
L 382.147266 199.66022 
L 382.711187 209.683265 
L 383.275108 213.652556 
L 385.248832 240.401842 
L 385.812753 249.73361 
L 386.094714 250.219007 
L 386.376675 241.129555 
L 386.658635 221.208785 
L 388.350399 55.751776 
L 388.91432 26.665828 
L 389.478241 19.579808 
L 389.760202 15.990243 
L 390.042162 14.691506 
L 390.324123 16.868112 
L 390.888044 25.150995 
L 391.170005 32.970668 
L 391.733926 59.707161 
L 392.579808 104.087351 
L 393.143729 122.97561 
L 393.98961 142.253426 
L 394.271571 145.14963 
L 394.835492 147.756181 
L 395.681374 153.256671 
L 396.809216 159.675376 
L 397.373137 163.963784 
L 397.937059 168.996325 
L 399.064901 176.49446 
L 399.910783 185.421854 
L 400.756665 194.154194 
L 401.038625 196.582193 
L 403.29431 227.750961 
L 404.422152 246.658958 
L 404.704113 248.987064 
L 404.986073 243.839149 
L 405.268034 227.7101 
L 405.831955 166.3212 
L 406.395876 102.780766 
L 407.241758 36.905355 
L 407.523719 27.929318 
L 408.08764 23.967903 
L 408.3696 20.218237 
L 408.651561 19.652065 
L 409.215482 28.734953 
L 409.497443 33.616578 
L 409.779403 41.682214 
L 411.471167 115.902716 
L 412.317049 130.149707 
L 412.88097 137.81561 
L 413.16293 139.35636 
L 413.444891 140.057534 
L 413.726851 140.263645 
L 414.008812 140.96723 
L 415.700576 155.454685 
L 416.264497 161.902677 
L 417.6743 181.383179 
L 417.95626 182.603374 
L 418.238221 182.708579 
L 418.520181 183.917737 
L 418.802142 186.026145 
L 419.366063 188.38187 
L 420.493906 198.82789 
L 420.775866 200.736894 
L 421.621748 210.541836 
L 422.46763 223.296584 
L 423.313511 237.301611 
L 423.595472 243.709273 
L 423.877433 247.210304 
L 424.159393 242.073217 
L 424.441354 225.155178 
L 425.005275 163.191454 
L 425.851157 70.46927 
L 426.415078 39.760433 
L 426.697038 33.988772 
L 427.26096 28.311311 
L 427.54292 27.263534 
L 427.824881 28.567679 
L 428.106841 31.983116 
L 428.670763 44.045529 
L 429.234684 65.685501 
L 430.362526 116.708762 
L 430.644487 124.799785 
L 430.926447 129.34562 
L 431.490368 133.035545 
L 432.33625 136.329427 
L 432.618211 136.748066 
L 432.900171 136.396169 
L 433.182132 136.301018 
L 433.464093 136.650229 
L 433.746053 136.47949 
L 434.028014 136.508684 
L 434.309974 138.70452 
L 435.437817 155.117738 
L 437.975462 208.563661 
L 438.539383 214.083586 
L 439.103304 222.156939 
L 439.667225 226.312529 
L 440.513107 236.818404 
L 441.077028 247.533139 
L 441.358989 248.856483 
L 441.64095 241.239707 
L 441.92291 222.219503 
L 443.614674 55.117304 
L 443.896634 47.900444 
L 444.742516 38.028318 
L 445.024477 38.783579 
L 445.588398 46.427809 
L 446.152319 61.604957 
L 446.71624 83.37589 
L 447.562122 120.19404 
L 448.126043 131.614582 
L 448.408004 134.29924 
L 448.689964 134.527416 
L 449.253885 131.352102 
L 449.817806 126.332108 
L 450.099767 123.618712 
L 450.381728 122.527561 
L 450.663688 122.762585 
L 450.945649 123.311341 
L 451.227609 124.477926 
L 451.50957 127.583533 
L 452.919373 153.571756 
L 453.483294 170.024812 
L 454.611136 206.016928 
L 455.457018 228.49279 
L 456.020939 240.621679 
L 457.430742 253.493067 
L 457.712703 253.747021 
L 457.994663 249.788363 
L 458.276624 236.352473 
L 458.840545 173.665332 
L 459.404466 101.649452 
L 459.686427 77.494422 
L 459.968388 63.994427 
L 460.250348 58.154114 
L 461.09623 49.118682 
L 461.378191 49.231019 
L 461.660151 51.640073 
L 462.224072 61.094966 
L 462.787993 74.401678 
L 463.351915 96.876384 
L 463.915836 119.465223 
L 464.479757 132.965697 
L 464.761718 136.09777 
L 465.043678 136.574733 
L 465.325639 134.882965 
L 466.17152 127.784598 
L 466.453481 126.790244 
L 466.735442 126.735887 
L 467.017402 127.151956 
L 467.299363 127.347999 
L 467.581323 127.884372 
L 467.863284 130.331479 
L 468.991126 147.819123 
L 470.400929 182.257922 
L 473.220535 245.860299 
L 473.784456 250.881479 
L 474.066417 254.016 
L 474.348377 250.604273 
L 474.630338 233.217179 
L 475.194259 165.944766 
L 475.75818 94.632556 
L 476.040141 73.335852 
L 476.322102 64.687694 
L 477.167983 52.854033 
L 477.449944 52.484097 
L 477.731905 55.400637 
L 478.577786 71.678395 
L 478.859747 78.595672 
L 479.423668 102.557813 
L 479.987589 125.566971 
L 480.26955 132.684982 
L 480.55151 136.733729 
L 480.833471 138.268198 
L 481.115432 138.589391 
L 481.397392 138.387686 
L 481.679353 137.375886 
L 483.371116 128.04926 
L 483.653077 127.914358 
L 483.935037 128.661524 
L 484.216998 131.076565 
L 485.626801 154.742549 
L 486.754643 178.390687 
L 487.600525 188.70817 
L 488.164446 198.174871 
L 488.728367 206.989227 
L 490.420131 236.719856 
L 490.702091 236.256917 
L 490.984052 224.007645 
L 491.547973 155.707554 
L 491.829934 122.276597 
L 492.111894 102.205297 
L 492.675816 81.143742 
L 492.957776 73.439591 
L 493.239737 69.595543 
L 493.521697 68.195004 
L 493.803658 67.835785 
L 494.085619 70.374537 
L 496.623264 127.650481 
L 496.905224 129.479892 
L 497.187185 129.723646 
L 497.751106 128.141437 
L 498.033067 128.701403 
L 498.315027 128.706651 
L 498.878948 124.568228 
L 499.160909 125.229131 
L 499.44287 126.983499 
L 499.72483 126.893582 
L 500.006791 126.406728 
L 500.288751 128.81805 
L 500.852673 138.093955 
L 501.698554 148.558471 
L 502.544436 158.241285 
L 503.108357 163.540132 
L 503.954239 175.302086 
L 504.2362 176.77026 
L 504.51816 179.601178 
L 505.082081 186.135261 
L 505.364042 186.307208 
L 505.646003 187.239744 
L 506.491884 198.268089 
L 506.773845 202.906311 
L 507.619727 222.419129 
L 507.901687 226.125948 
L 508.183648 225.714631 
L 508.465608 214.882006 
L 509.02953 157.520922 
L 509.593451 110.979308 
L 510.157372 97.013635 
L 511.003254 81.078349 
L 511.285214 80.782808 
L 511.849135 86.165092 
L 512.131096 89.243541 
L 512.695017 99.697988 
L 513.258938 111.255826 
L 514.10482 131.656861 
L 514.668741 137.477524 
L 514.950702 138.321837 
L 515.514623 136.82144 
L 516.078544 135.530905 
L 516.924426 134.472924 
L 517.206387 134.964178 
L 517.488347 136.931438 
L 517.770308 138.002423 
L 518.052268 137.201763 
L 518.334229 137.895034 
L 518.89815 146.739858 
L 519.462071 149.187272 
L 520.307953 160.140653 
L 520.589914 161.174705 
L 521.153835 165.43743 
L 521.435795 165.917672 
L 521.717756 165.236516 
L 521.999717 165.251462 
L 522.281677 166.225892 
L 522.563638 167.829284 
L 523.409519 175.208958 
L 523.69148 176.304864 
L 523.973441 178.694306 
L 525.101283 196.081966 
L 525.947165 213.767507 
L 526.229125 211.596066 
L 526.511086 196.56498 
L 527.356968 119.927316 
L 527.920889 101.812479 
L 528.202849 97.052532 
L 528.766771 92.537868 
L 529.048731 91.409997 
L 529.330692 92.116761 
L 529.894613 97.72914 
L 531.022455 114.574464 
L 531.868337 133.520203 
L 532.150298 135.197173 
L 532.714219 137.276104 
L 532.996179 137.03088 
L 533.560101 133.275977 
L 533.842061 132.957606 
L 534.405982 133.160825 
L 534.687943 133.700099 
L 534.969904 135.121401 
L 535.815785 141.322641 
L 536.097746 141.811657 
L 536.379706 142.03229 
L 536.661667 143.867819 
L 536.943628 146.62253 
L 537.225588 148.078444 
L 537.507549 148.630128 
L 537.789509 151.113067 
L 538.353431 158.395875 
L 538.917352 160.558948 
L 539.199312 162.585725 
L 539.481273 163.696213 
L 539.763233 164.040868 
L 540.045194 165.536763 
L 540.891076 172.041014 
L 541.454997 175.608423 
L 541.736958 176.081526 
L 542.018918 177.432388 
L 542.582839 184.914247 
L 543.710682 200.117135 
L 543.992642 198.819469 
L 544.274603 187.1727 
L 545.120485 123.731111 
L 545.684406 107.149618 
L 545.966366 102.514198 
L 546.530288 98.111743 
L 546.812248 96.915611 
L 547.094209 97.232047 
L 547.65813 101.948698 
L 548.222051 110.086576 
L 549.349893 129.85893 
L 549.631854 135.58012 
L 549.913815 137.650588 
L 550.195775 137.594183 
L 550.477736 138.898474 
L 550.759696 141.619171 
L 551.041657 142.692823 
L 551.605578 140.408075 
L 551.887539 140.336246 
L 552.169499 139.959057 
L 552.45146 139.277894 
L 552.73342 139.54321 
L 553.015381 140.230763 
L 553.579302 139.364824 
L 554.143223 142.81448 
L 554.707145 143.452067 
L 555.271066 148.265676 
L 555.553026 149.123395 
L 555.834987 150.392964 
L 556.398908 156.3015 
L 556.962829 157.366797 
L 557.52675 160.735476 
L 557.808711 161.124008 
L 558.654593 163.449934 
L 558.936553 163.500031 
L 559.218514 165.326379 
L 559.782435 170.163464 
L 560.346356 173.67459 
L 560.910277 178.688589 
L 561.474199 185.11617 
L 561.756159 186.335619 
L 562.03812 188.192409 
L 562.32008 191.868568 
L 562.602041 191.520866 
L 562.884002 179.922878 
L 563.447923 141.093488 
L 564.011844 119.091476 
L 564.293804 111.446329 
L 564.575765 107.417967 
L 564.857726 106.118585 
L 565.421647 101.020131 
L 565.703607 101.122333 
L 566.267529 106.554925 
L 566.549489 107.943783 
L 566.83145 110.724433 
L 567.677332 125.474247 
L 568.241253 136.448937 
L 568.523213 139.402528 
L 568.805174 140.895379 
L 569.087134 141.573555 
L 569.369095 141.378681 
L 569.651056 140.787122 
L 569.933016 140.470639 
L 570.496937 138.939355 
L 570.778898 139.522803 
L 571.060859 141.461395 
L 571.342819 142.472419 
L 571.62478 142.499892 
L 571.90674 143.356401 
L 572.188701 144.593802 
L 572.470661 144.108906 
L 572.752622 142.930456 
L 573.034583 143.466386 
L 573.316543 145.328279 
L 573.598504 146.403551 
L 573.880464 146.779437 
L 574.444386 148.073011 
L 575.572228 149.128977 
L 575.854189 149.964647 
L 576.70007 156.505975 
L 576.982031 156.986857 
L 577.263991 157.820354 
L 577.827913 160.581513 
L 578.109873 160.728256 
L 578.391834 161.728416 
L 579.237716 169.798749 
L 579.519676 171.299757 
L 580.365558 178.100153 
L 580.929479 184.511532 
L 581.4934 190.916003 
L 581.775361 189.07341 
L 582.057321 177.385231 
L 582.903203 123.654708 
L 583.467124 113.374546 
L 583.749085 109.109786 
L 584.031046 106.64636 
L 584.313006 106.698874 
L 585.158888 110.196555 
L 586.28673 119.930202 
L 587.414573 136.591327 
L 587.696533 138.3211 
L 587.978494 138.944032 
L 588.260454 138.21367 
L 588.542415 137.924952 
L 589.388297 140.955706 
L 589.670257 141.012701 
L 589.952218 140.802681 
L 590.234178 140.407895 
L 590.516139 140.567035 
L 591.08006 143.061617 
L 591.643981 144.270305 
L 592.489863 148.476849 
L 592.771824 149.066427 
L 593.053784 148.783346 
L 593.335745 148.038632 
L 593.617705 148.058412 
L 593.899666 148.575373 
L 594.181627 148.459437 
L 594.463587 147.887977 
L 594.745548 148.616161 
L 595.309469 151.771577 
L 595.59143 151.780877 
L 595.87339 152.735358 
L 596.719272 161.042399 
L 597.283193 162.508673 
L 597.565154 163.42626 
L 597.847114 163.760299 
L 598.129075 164.320622 
L 598.411035 165.922987 
L 600.102799 181.438152 
L 600.38476 182.823517 
L 600.66672 177.751412 
L 601.794562 124.278455 
L 602.358484 115.227245 
L 602.922405 110.845617 
L 603.204365 110.884289 
L 603.486326 112.513629 
L 605.178089 127.381349 
L 606.305932 142.917189 
L 606.587892 145.369971 
L 606.869853 145.747613 
L 607.715735 139.565584 
L 607.997695 139.204607 
L 608.561617 137.693037 
L 608.843577 138.219584 
L 609.125538 138.267919 
L 609.407498 137.872768 
L 609.689459 138.811129 
L 609.971419 140.988739 
L 610.535341 143.022727 
L 611.381222 150.157409 
L 611.663183 150.26174 
L 612.509065 152.78827 
L 612.791025 153.420655 
L 613.354946 155.639312 
L 613.636907 155.601322 
L 613.918868 155.848534 
L 614.764749 157.491714 
L 615.610631 160.5128 
L 615.892592 161.52211 
L 616.456513 164.73011 
L 617.302395 171.133893 
L 618.148276 174.906536 
L 618.430237 171.773541 
L 618.712198 163.678135 
L 619.558079 128.977023 
L 619.84004 124.040574 
L 620.403961 121.398823 
L 620.685922 119.309073 
L 620.967882 118.577959 
L 621.249843 119.463049 
L 621.531803 119.529109 
L 621.813764 119.191849 
L 622.095725 120.32175 
L 622.377685 122.804528 
L 622.659646 123.968566 
L 622.941606 124.526347 
L 623.223567 127.240886 
L 624.069449 142.463927 
L 624.63337 146.2154 
L 624.915331 145.752344 
L 625.761212 139.15694 
L 626.043173 138.49325 
L 626.325133 138.590864 
L 627.171015 138.065685 
L 627.734936 139.640148 
L 628.580818 143.473882 
L 629.4267 150.75941 
L 629.70866 150.652028 
L 629.990621 150.828396 
L 630.272582 152.656697 
L 630.554542 152.620821 
L 631.118463 148.95309 
L 631.682385 151.266838 
L 631.964345 151.430399 
L 632.246306 151.307371 
L 632.528266 154.99929 
L 633.092188 159.663291 
L 633.092188 159.663291 
" clip-path="url(#pd7098b962f)" style="fill: none; stroke: #1f77b4; stroke-width: 1.5; stroke-linecap: square"/>
   </g>
   <g id="patch_3">
    <path d="M 47.192188 266.112 
L 47.192188 0 
" style="fill: none; stroke: #000000; stroke-width: 0.8; stroke-linejoin: miter; stroke-linecap: square"/>
   </g>
   <g id="patch_4">
    <path d="M 660.992188 266.112 
L 660.992188 0 
" style="fill: none; stroke: #000000; stroke-width: 0.8; stroke-linejoin: miter; stroke-linecap: square"/>
   </g>
   <g id="patch_5">
    <path d="M 47.192188 266.112 
L 660.992188 266.112 
" style="fill: none; stroke: #000000; stroke-width: 0.8; stroke-linejoin: miter; stroke-linecap: square"/>
   </g>
   <g id="patch_6">
    <path d="M 47.192188 0 
L 660.992188 0 
" style="fill: none; stroke: #000000; stroke-width: 0.8; stroke-linejoin: miter; stroke-linecap: square"/>
   </g>
  </g>
 </g>
 <defs>
  <clipPath id="pd7098b962f">
   <rect x="47.192188" y="0" width="613.8" height="266.112"/>
  </clipPath>
 </defs>
</svg>
