<?xml version="1.0" encoding="utf-8" standalone="no"?>
<!DOCTYPE svg PUBLIC "-//W3C//DTD SVG 1.1//EN"
  "http://www.w3.org/Graphics/SVG/1.1/DTD/svg11.dtd">
<svg xmlns:xlink="http://www.w3.org/1999/xlink" width="660.992188pt" height="282.790125pt" viewBox="0 0 660.992188 282.790125" xmlns="http://www.w3.org/2000/svg" version="1.1">
 <metadata>
  <rdf:RDF xmlns:dc="http://purl.org/dc/elements/1.1/" xmlns:cc="http://creativecommons.org/ns#" xmlns:rdf="http://www.w3.org/1999/02/22-rdf-syntax-ns#">
   <cc:Work>
    <dc:type rdf:resource="http://purl.org/dc/dcmitype/StillImage"/>
    <dc:date>2023-03-06T19:25:49.562974</dc:date>
    <dc:format>image/svg+xml</dc:format>
    <dc:creator>
     <cc:Agent>
      <dc:title>Matplotlib v3.6.3, https://matplotlib.org/</dc:title>
     </cc:Agent>
    </dc:creator>
   </cc:Work>
  </rdf:RDF>
 </metadata>
 <defs>
  <style type="text/css">*{stroke-linejoin: round; stroke-linecap: butt}</style>
 </defs>
 <g id="figure_1">
  <g id="patch_1">
   <path d="M -0 282.790125 
L 660.992188 282.790125 
L 660.992188 0 
L -0 0 
L -0 282.790125 
z
" style="fill: none"/>
  </g>
  <g id="axes_1">
   <g id="patch_2">
    <path d="M 47.192188 266.112 
L 660.992188 266.112 
L 660.992188 0 
L 47.192188 0 
L 47.192188 266.112 
z
" style="fill: none"/>
   </g>
   <g id="matplotlib.axis_1">
    <g id="xtick_1">
     <g id="line2d_1">
      <defs>
       <path id="me032abbdd9" d="M 0 0 
L 0 3.5 
" style="stroke: #000000; stroke-width: 0.8"/>
      </defs>
      <g>
       <use xlink:href="#me032abbdd9" x="75.092188" y="266.112" style="stroke: #000000; stroke-width: 0.8"/>
      </g>
     </g>
     <g id="text_1">
      <!-- 0 -->
      <g transform="translate(71.910938 280.710438) scale(0.1 -0.1)">
       <defs>
        <path id="DejaVuSans-30" d="M 2034 4250 
Q 1547 4250 1301 3770 
Q 1056 3291 1056 2328 
Q 1056 1369 1301 889 
Q 1547 409 2034 409 
Q 2525 409 2770 889 
Q 3016 1369 3016 2328 
Q 3016 3291 2770 3770 
Q 2525 4250 2034 4250 
z
M 2034 4750 
Q 2819 4750 3233 4129 
Q 3647 3509 3647 2328 
Q 3647 1150 3233 529 
Q 2819 -91 2034 -91 
Q 1250 -91 836 529 
Q 422 1150 422 2328 
Q 422 3509 836 4129 
Q 1250 4750 2034 4750 
z
" transform="scale(0.015625)"/>
       </defs>
       <use xlink:href="#DejaVuSans-30"/>
      </g>
     </g>
    </g>
    <g id="xtick_2">
     <g id="line2d_2">
      <g>
       <use xlink:href="#me032abbdd9" x="144.842188" y="266.112" style="stroke: #000000; stroke-width: 0.8"/>
      </g>
     </g>
     <g id="text_2">
      <!-- 500 -->
      <g transform="translate(135.298438 280.710438) scale(0.1 -0.1)">
       <defs>
        <path id="DejaVuSans-35" d="M 691 4666 
L 3169 4666 
L 3169 4134 
L 1269 4134 
L 1269 2991 
Q 1406 3038 1543 3061 
Q 1681 3084 1819 3084 
Q 2600 3084 3056 2656 
Q 3513 2228 3513 1497 
Q 3513 744 3044 326 
Q 2575 -91 1722 -91 
Q 1428 -91 1123 -41 
Q 819 9 494 109 
L 494 744 
Q 775 591 1075 516 
Q 1375 441 1709 441 
Q 2250 441 2565 725 
Q 2881 1009 2881 1497 
Q 2881 1984 2565 2268 
Q 2250 2553 1709 2553 
Q 1456 2553 1204 2497 
Q 953 2441 691 2322 
L 691 4666 
z
" transform="scale(0.015625)"/>
       </defs>
       <use xlink:href="#DejaVuSans-35"/>
       <use xlink:href="#DejaVuSans-30" x="63.623047"/>
       <use xlink:href="#DejaVuSans-30" x="127.246094"/>
      </g>
     </g>
    </g>
    <g id="xtick_3">
     <g id="line2d_3">
      <g>
       <use xlink:href="#me032abbdd9" x="214.592188" y="266.112" style="stroke: #000000; stroke-width: 0.8"/>
      </g>
     </g>
     <g id="text_3">
      <!-- 1000 -->
      <g transform="translate(201.867188 280.710438) scale(0.1 -0.1)">
       <defs>
        <path id="DejaVuSans-31" d="M 794 531 
L 1825 531 
L 1825 4091 
L 703 3866 
L 703 4441 
L 1819 4666 
L 2450 4666 
L 2450 531 
L 3481 531 
L 3481 0 
L 794 0 
L 794 531 
z
" transform="scale(0.015625)"/>
       </defs>
       <use xlink:href="#DejaVuSans-31"/>
       <use xlink:href="#DejaVuSans-30" x="63.623047"/>
       <use xlink:href="#DejaVuSans-30" x="127.246094"/>
       <use xlink:href="#DejaVuSans-30" x="190.869141"/>
      </g>
     </g>
    </g>
    <g id="xtick_4">
     <g id="line2d_4">
      <g>
       <use xlink:href="#me032abbdd9" x="284.342188" y="266.112" style="stroke: #000000; stroke-width: 0.8"/>
      </g>
     </g>
     <g id="text_4">
      <!-- 1500 -->
      <g transform="translate(271.617188 280.710438) scale(0.1 -0.1)">
       <use xlink:href="#DejaVuSans-31"/>
       <use xlink:href="#DejaVuSans-35" x="63.623047"/>
       <use xlink:href="#DejaVuSans-30" x="127.246094"/>
       <use xlink:href="#DejaVuSans-30" x="190.869141"/>
      </g>
     </g>
    </g>
    <g id="xtick_5">
     <g id="line2d_5">
      <g>
       <use xlink:href="#me032abbdd9" x="354.092188" y="266.112" style="stroke: #000000; stroke-width: 0.8"/>
      </g>
     </g>
     <g id="text_5">
      <!-- 2000 -->
      <g transform="translate(341.367188 280.710438) scale(0.1 -0.1)">
       <defs>
        <path id="DejaVuSans-32" d="M 1228 531 
L 3431 531 
L 3431 0 
L 469 0 
L 469 531 
Q 828 903 1448 1529 
Q 2069 2156 2228 2338 
Q 2531 2678 2651 2914 
Q 2772 3150 2772 3378 
Q 2772 3750 2511 3984 
Q 2250 4219 1831 4219 
Q 1534 4219 1204 4116 
Q 875 4013 500 3803 
L 500 4441 
Q 881 4594 1212 4672 
Q 1544 4750 1819 4750 
Q 2544 4750 2975 4387 
Q 3406 4025 3406 3419 
Q 3406 3131 3298 2873 
Q 3191 2616 2906 2266 
Q 2828 2175 2409 1742 
Q 1991 1309 1228 531 
z
" transform="scale(0.015625)"/>
       </defs>
       <use xlink:href="#DejaVuSans-32"/>
       <use xlink:href="#DejaVuSans-30" x="63.623047"/>
       <use xlink:href="#DejaVuSans-30" x="127.246094"/>
       <use xlink:href="#DejaVuSans-30" x="190.869141"/>
      </g>
     </g>
    </g>
    <g id="xtick_6">
     <g id="line2d_6">
      <g>
       <use xlink:href="#me032abbdd9" x="423.842188" y="266.112" style="stroke: #000000; stroke-width: 0.8"/>
      </g>
     </g>
     <g id="text_6">
      <!-- 2500 -->
      <g transform="translate(411.117188 280.710438) scale(0.1 -0.1)">
       <use xlink:href="#DejaVuSans-32"/>
       <use xlink:href="#DejaVuSans-35" x="63.623047"/>
       <use xlink:href="#DejaVuSans-30" x="127.246094"/>
       <use xlink:href="#DejaVuSans-30" x="190.869141"/>
      </g>
     </g>
    </g>
    <g id="xtick_7">
     <g id="line2d_7">
      <g>
       <use xlink:href="#me032abbdd9" x="493.592188" y="266.112" style="stroke: #000000; stroke-width: 0.8"/>
      </g>
     </g>
     <g id="text_7">
      <!-- 3000 -->
      <g transform="translate(480.867188 280.710438) scale(0.1 -0.1)">
       <defs>
        <path id="DejaVuSans-33" d="M 2597 2516 
Q 3050 2419 3304 2112 
Q 3559 1806 3559 1356 
Q 3559 666 3084 287 
Q 2609 -91 1734 -91 
Q 1441 -91 1130 -33 
Q 819 25 488 141 
L 488 750 
Q 750 597 1062 519 
Q 1375 441 1716 441 
Q 2309 441 2620 675 
Q 2931 909 2931 1356 
Q 2931 1769 2642 2001 
Q 2353 2234 1838 2234 
L 1294 2234 
L 1294 2753 
L 1863 2753 
Q 2328 2753 2575 2939 
Q 2822 3125 2822 3475 
Q 2822 3834 2567 4026 
Q 2313 4219 1838 4219 
Q 1578 4219 1281 4162 
Q 984 4106 628 3988 
L 628 4550 
Q 988 4650 1302 4700 
Q 1616 4750 1894 4750 
Q 2613 4750 3031 4423 
Q 3450 4097 3450 3541 
Q 3450 3153 3228 2886 
Q 3006 2619 2597 2516 
z
" transform="scale(0.015625)"/>
       </defs>
       <use xlink:href="#DejaVuSans-33"/>
       <use xlink:href="#DejaVuSans-30" x="63.623047"/>
       <use xlink:href="#DejaVuSans-30" x="127.246094"/>
       <use xlink:href="#DejaVuSans-30" x="190.869141"/>
      </g>
     </g>
    </g>
    <g id="xtick_8">
     <g id="line2d_8">
      <g>
       <use xlink:href="#me032abbdd9" x="563.342188" y="266.112" style="stroke: #000000; stroke-width: 0.8"/>
      </g>
     </g>
     <g id="text_8">
      <!-- 3500 -->
      <g transform="translate(550.617188 280.710438) scale(0.1 -0.1)">
       <use xlink:href="#DejaVuSans-33"/>
       <use xlink:href="#DejaVuSans-35" x="63.623047"/>
       <use xlink:href="#DejaVuSans-30" x="127.246094"/>
       <use xlink:href="#DejaVuSans-30" x="190.869141"/>
      </g>
     </g>
    </g>
    <g id="xtick_9">
     <g id="line2d_9">
      <g>
       <use xlink:href="#me032abbdd9" x="633.092188" y="266.112" style="stroke: #000000; stroke-width: 0.8"/>
      </g>
     </g>
     <g id="text_9">
      <!-- 4000 -->
      <g transform="translate(620.367188 280.710438) scale(0.1 -0.1)">
       <defs>
        <path id="DejaVuSans-34" d="M 2419 4116 
L 825 1625 
L 2419 1625 
L 2419 4116 
z
M 2253 4666 
L 3047 4666 
L 3047 1625 
L 3713 1625 
L 3713 1100 
L 3047 1100 
L 3047 0 
L 2419 0 
L 2419 1100 
L 313 1100 
L 313 1709 
L 2253 4666 
z
" transform="scale(0.015625)"/>
       </defs>
       <use xlink:href="#DejaVuSans-34"/>
       <use xlink:href="#DejaVuSans-30" x="63.623047"/>
       <use xlink:href="#DejaVuSans-30" x="127.246094"/>
       <use xlink:href="#DejaVuSans-30" x="190.869141"/>
      </g>
     </g>
    </g>
   </g>
   <g id="matplotlib.axis_2">
    <g id="ytick_1">
     <g id="line2d_10">
      <defs>
       <path id="m83a5b118ef" d="M 0 0 
L -3.5 0 
" style="stroke: #000000; stroke-width: 0.8"/>
      </defs>
      <g>
       <use xlink:href="#m83a5b118ef" x="47.192188" y="247.78134" style="stroke: #000000; stroke-width: 0.8"/>
      </g>
     </g>
     <g id="text_10">
      <!-- −15000 -->
      <g transform="translate(0 251.580559) scale(0.1 -0.1)">
       <defs>
        <path id="DejaVuSans-2212" d="M 678 2272 
L 4684 2272 
L 4684 1741 
L 678 1741 
L 678 2272 
z
" transform="scale(0.015625)"/>
       </defs>
       <use xlink:href="#DejaVuSans-2212"/>
       <use xlink:href="#DejaVuSans-31" x="83.789062"/>
       <use xlink:href="#DejaVuSans-35" x="147.412109"/>
       <use xlink:href="#DejaVuSans-30" x="211.035156"/>
       <use xlink:href="#DejaVuSans-30" x="274.658203"/>
       <use xlink:href="#DejaVuSans-30" x="338.28125"/>
      </g>
     </g>
    </g>
    <g id="ytick_2">
     <g id="line2d_11">
      <g>
       <use xlink:href="#m83a5b118ef" x="47.192188" y="215.954198" style="stroke: #000000; stroke-width: 0.8"/>
      </g>
     </g>
     <g id="text_11">
      <!-- −10000 -->
      <g transform="translate(0 219.753417) scale(0.1 -0.1)">
       <use xlink:href="#DejaVuSans-2212"/>
       <use xlink:href="#DejaVuSans-31" x="83.789062"/>
       <use xlink:href="#DejaVuSans-30" x="147.412109"/>
       <use xlink:href="#DejaVuSans-30" x="211.035156"/>
       <use xlink:href="#DejaVuSans-30" x="274.658203"/>
       <use xlink:href="#DejaVuSans-30" x="338.28125"/>
      </g>
     </g>
    </g>
    <g id="ytick_3">
     <g id="line2d_12">
      <g>
       <use xlink:href="#m83a5b118ef" x="47.192188" y="184.127056" style="stroke: #000000; stroke-width: 0.8"/>
      </g>
     </g>
     <g id="text_12">
      <!-- −5000 -->
      <g transform="translate(6.3625 187.926274) scale(0.1 -0.1)">
       <use xlink:href="#DejaVuSans-2212"/>
       <use xlink:href="#DejaVuSans-35" x="83.789062"/>
       <use xlink:href="#DejaVuSans-30" x="147.412109"/>
       <use xlink:href="#DejaVuSans-30" x="211.035156"/>
       <use xlink:href="#DejaVuSans-30" x="274.658203"/>
      </g>
     </g>
    </g>
    <g id="ytick_4">
     <g id="line2d_13">
      <g>
       <use xlink:href="#m83a5b118ef" x="47.192188" y="152.299913" style="stroke: #000000; stroke-width: 0.8"/>
      </g>
     </g>
     <g id="text_13">
      <!-- 0 -->
      <g transform="translate(33.829688 156.099132) scale(0.1 -0.1)">
       <use xlink:href="#DejaVuSans-30"/>
      </g>
     </g>
    </g>
    <g id="ytick_5">
     <g id="line2d_14">
      <g>
       <use xlink:href="#m83a5b118ef" x="47.192188" y="120.472771" style="stroke: #000000; stroke-width: 0.8"/>
      </g>
     </g>
     <g id="text_14">
      <!-- 5000 -->
      <g transform="translate(14.742188 124.27199) scale(0.1 -0.1)">
       <use xlink:href="#DejaVuSans-35"/>
       <use xlink:href="#DejaVuSans-30" x="63.623047"/>
       <use xlink:href="#DejaVuSans-30" x="127.246094"/>
       <use xlink:href="#DejaVuSans-30" x="190.869141"/>
      </g>
     </g>
    </g>
    <g id="ytick_6">
     <g id="line2d_15">
      <g>
       <use xlink:href="#m83a5b118ef" x="47.192188" y="88.645629" style="stroke: #000000; stroke-width: 0.8"/>
      </g>
     </g>
     <g id="text_15">
      <!-- 10000 -->
      <g transform="translate(8.379688 92.444847) scale(0.1 -0.1)">
       <use xlink:href="#DejaVuSans-31"/>
       <use xlink:href="#DejaVuSans-30" x="63.623047"/>
       <use xlink:href="#DejaVuSans-30" x="127.246094"/>
       <use xlink:href="#DejaVuSans-30" x="190.869141"/>
       <use xlink:href="#DejaVuSans-30" x="254.492188"/>
      </g>
     </g>
    </g>
    <g id="ytick_7">
     <g id="line2d_16">
      <g>
       <use xlink:href="#m83a5b118ef" x="47.192188" y="56.818486" style="stroke: #000000; stroke-width: 0.8"/>
      </g>
     </g>
     <g id="text_16">
      <!-- 15000 -->
      <g transform="translate(8.379688 60.617705) scale(0.1 -0.1)">
       <use xlink:href="#DejaVuSans-31"/>
       <use xlink:href="#DejaVuSans-35" x="63.623047"/>
       <use xlink:href="#DejaVuSans-30" x="127.246094"/>
       <use xlink:href="#DejaVuSans-30" x="190.869141"/>
       <use xlink:href="#DejaVuSans-30" x="254.492188"/>
      </g>
     </g>
    </g>
    <g id="ytick_8">
     <g id="line2d_17">
      <g>
       <use xlink:href="#m83a5b118ef" x="47.192188" y="24.991344" style="stroke: #000000; stroke-width: 0.8"/>
      </g>
     </g>
     <g id="text_17">
      <!-- 20000 -->
      <g transform="translate(8.379688 28.790563) scale(0.1 -0.1)">
       <use xlink:href="#DejaVuSans-32"/>
       <use xlink:href="#DejaVuSans-30" x="63.623047"/>
       <use xlink:href="#DejaVuSans-30" x="127.246094"/>
       <use xlink:href="#DejaVuSans-30" x="190.869141"/>
       <use xlink:href="#DejaVuSans-30" x="254.492188"/>
      </g>
     </g>
    </g>
   </g>
   <g id="line2d_18">
    <path d="M 75.092188 152.315504 
L 75.938069 152.282412 
L 76.783951 152.31945 
L 77.629833 152.278123 
L 78.475715 152.324273 
L 79.321596 152.272543 
L 79.603557 152.328412 
L 79.885517 152.270211 
L 80.167478 152.330903 
L 80.449439 152.267542 
L 80.731399 152.333772 
L 81.01336 152.264448 
L 81.29532 152.337121 
L 81.577281 152.260809 
L 81.859242 152.341092 
L 82.141202 152.256456 
L 82.423163 152.345886 
L 82.705123 152.251148 
L 82.987084 152.351798 
L 83.269044 152.244521 
L 83.551005 152.359281 
L 83.832966 152.236003 
L 84.114926 152.369067 
L 84.396887 152.22464 
L 84.678847 152.382424 
L 84.960808 152.208712 
L 85.242769 152.401746 
L 85.524729 152.18478 
L 85.80669 152.432159 
L 86.08865 152.144849 
L 86.370611 152.486879 
L 86.652572 152.065332 
L 86.934532 152.61274 
L 87.216493 151.83695 
L 87.498453 153.148448 
L 87.780414 149.2617 
L 88.062374 134.576576 
L 88.344335 139.441715 
L 88.626296 141.923715 
L 89.472177 156.02582 
L 89.754138 158.738793 
L 90.036099 165.673647 
L 90.318059 169.492402 
L 90.60002 164.547288 
L 90.88198 157.346958 
L 91.163941 156.769067 
L 91.445901 157.768885 
L 92.009823 153.981667 
L 92.291783 153.78524 
L 92.573744 151.255169 
L 92.855704 147.415742 
L 93.137665 146.190893 
L 93.701586 150.129363 
L 93.983547 151.219199 
L 94.265507 153.6925 
L 94.829429 164.132269 
L 95.111389 164.846755 
L 95.39335 162.744963 
L 95.67531 162.131272 
L 96.239231 164.050446 
L 96.803153 166.320345 
L 97.085113 165.924139 
L 98.212956 160.991336 
L 98.494916 156.862254 
L 99.340798 130.319398 
L 99.622758 128.228902 
L 99.904719 130.181537 
L 100.46864 140.865781 
L 100.750601 143.676783 
L 101.596483 146.745212 
L 101.878443 146.569731 
L 102.160404 149.145491 
L 102.442364 154.779376 
L 102.724325 157.799345 
L 103.006286 156.698831 
L 103.288246 156.239886 
L 103.570207 157.49127 
L 103.852167 155.02842 
L 104.134128 148.999798 
L 104.416088 145.934263 
L 104.698049 147.176376 
L 104.98001 146.969754 
L 105.26197 144.575397 
L 105.543931 144.969453 
L 106.107852 154.520683 
L 106.389813 156.909862 
L 106.671773 157.217315 
L 107.235694 156.698686 
L 107.517655 156.703212 
L 107.799615 157.636855 
L 108.363537 162.290086 
L 108.645497 162.211915 
L 108.927458 163.007102 
L 109.491379 170.100203 
L 109.77334 167.739945 
L 110.0553 164.105114 
L 110.619221 162.718839 
L 110.901182 159.327626 
L 111.183143 152.018745 
L 112.029024 112.308734 
L 112.310985 112.264567 
L 113.156867 124.07614 
L 113.720788 145.255085 
L 114.002748 149.623549 
L 114.284709 148.389679 
L 114.56667 148.86731 
L 115.130591 156.794823 
L 115.412551 157.332425 
L 115.694512 158.265979 
L 115.976472 159.861585 
L 116.258433 158.252531 
L 116.540394 154.468176 
L 116.822354 152.947569 
L 117.104315 153.717124 
L 117.386275 153.843632 
L 117.668236 153.524949 
L 118.232157 153.476379 
L 118.514118 154.117145 
L 118.796078 156.00171 
L 119.078039 157.027634 
L 119.36 156.705562 
L 119.64196 156.990945 
L 120.205881 159.430416 
L 120.487842 159.939447 
L 120.769802 159.33516 
L 121.051763 157.765739 
L 121.333724 156.896105 
L 121.615684 157.042497 
L 121.897645 156.578689 
L 122.179605 156.771351 
L 123.025487 165.223119 
L 123.307448 164.831974 
L 123.589408 163.472505 
L 123.871369 159.281447 
L 124.43529 136.043785 
L 124.717251 125.213341 
L 124.999211 121.470855 
L 125.281172 123.309783 
L 126.127054 134.693736 
L 126.409014 135.382892 
L 126.690975 137.935535 
L 126.972935 142.659365 
L 127.254896 144.648508 
L 127.536857 143.595135 
L 127.818817 145.936425 
L 128.100778 152.021715 
L 128.382738 154.057195 
L 128.946659 144.550733 
L 129.22862 144.822288 
L 129.792541 149.775258 
L 130.638423 152.800321 
L 131.202344 153.179152 
L 132.048226 154.556024 
L 132.612147 158.047276 
L 132.894108 157.259039 
L 133.176068 155.415797 
L 133.458029 156.018645 
L 134.02195 159.878043 
L 134.585871 163.161118 
L 134.867832 164.836355 
L 135.431753 170.093118 
L 135.713714 170.473173 
L 135.995674 170.645319 
L 136.277635 173.183532 
L 136.559595 171.496714 
L 137.405477 133.608297 
L 137.687438 130.268445 
L 137.969398 129.310307 
L 138.251359 128.886142 
L 138.533319 129.071535 
L 138.81528 130.95624 
L 139.379201 139.833929 
L 139.661162 141.295761 
L 139.943122 140.686057 
L 140.225083 141.358268 
L 140.507043 145.342786 
L 141.070965 156.512367 
L 141.352925 156.34118 
L 141.634886 153.765145 
L 141.916846 152.937359 
L 142.198807 153.324151 
L 142.480768 152.707388 
L 143.044689 150.402699 
L 143.326649 149.738743 
L 143.60861 149.70329 
L 143.890571 150.875539 
L 144.454492 157.138363 
L 144.736452 160.20122 
L 145.018413 161.055452 
L 145.300373 161.089297 
L 145.582334 162.34777 
L 146.146255 166.043187 
L 147.274098 178.895753 
L 147.838019 182.113736 
L 148.119979 183.194845 
L 148.6839 186.789818 
L 148.965861 185.423738 
L 149.247822 179.819887 
L 150.375664 144.450897 
L 150.657625 143.224367 
L 150.939585 145.052816 
L 151.503506 150.296434 
L 151.785467 151.060973 
L 152.067428 151.247574 
L 152.349388 151.205267 
L 152.631349 150.916664 
L 152.913309 151.855603 
L 153.47723 159.674754 
L 153.759191 159.461188 
L 154.041152 153.040219 
L 154.605073 135.618679 
L 154.887033 130.449809 
L 155.168994 127.937148 
L 155.450955 128.589685 
L 156.296836 137.720513 
L 156.860757 147.550135 
L 157.142718 148.281767 
L 157.424679 146.448445 
L 157.706639 147.469603 
L 157.9886 149.518239 
L 158.552521 145.919605 
L 158.834482 148.41858 
L 159.116442 152.512202 
L 159.680363 157.207431 
L 160.244285 166.646408 
L 160.526245 167.303886 
L 160.808206 164.053377 
L 161.372127 152.892434 
L 161.654087 149.234456 
L 161.936048 142.586773 
L 162.78193 108.910834 
L 163.06389 109.377807 
L 163.627812 117.373202 
L 163.909772 120.249176 
L 164.191733 125.670944 
L 164.473693 133.253123 
L 164.755654 137.363877 
L 165.319575 135.379497 
L 165.601536 137.016046 
L 165.883496 140.492461 
L 166.447417 151.558997 
L 166.729378 152.554601 
L 167.293299 146.048613 
L 167.57526 145.36995 
L 168.139181 140.938954 
L 168.421142 142.317395 
L 168.985063 146.263886 
L 169.267023 150.691394 
L 169.548984 157.428688 
L 169.830944 160.540915 
L 170.112905 160.19717 
L 170.394866 160.982747 
L 170.958787 165.993926 
L 171.240747 169.425254 
L 171.522708 169.929879 
L 171.804669 166.003441 
L 172.086629 164.566018 
L 172.65055 174.897351 
L 172.932511 175.787671 
L 173.214471 175.283275 
L 173.496432 175.201993 
L 173.778393 174.412981 
L 174.060353 172.834508 
L 174.342314 167.905122 
L 174.624274 155.230428 
L 175.188196 120.854166 
L 175.470156 111.970313 
L 175.752117 108.978034 
L 176.034077 110.107033 
L 176.879959 122.001215 
L 177.725841 126.783137 
L 178.007801 127.482199 
L 178.289762 130.36721 
L 179.135644 152.630577 
L 179.699565 157.202716 
L 179.981526 158.187317 
L 180.263486 157.861909 
L 180.545447 158.034889 
L 181.109368 162.799465 
L 181.673289 163.474371 
L 181.95525 164.881813 
L 182.23721 165.238686 
L 182.519171 165.309692 
L 183.083092 168.269507 
L 183.365053 168.689282 
L 183.647013 171.76175 
L 183.928974 177.042017 
L 184.210934 180.02044 
L 184.492895 180.811712 
L 185.056816 183.23844 
L 185.338777 183.116259 
L 185.620737 184.367151 
L 185.902698 186.147265 
L 186.184658 184.984545 
L 186.74858 179.619839 
L 187.03054 172.336351 
L 187.876422 131.353944 
L 188.158383 125.969951 
L 188.440343 125.530999 
L 189.004264 138.221604 
L 189.286225 139.616806 
L 189.568185 137.972233 
L 189.850146 138.777537 
L 190.132107 140.816799 
L 190.414067 141.814347 
L 190.696028 144.035538 
L 191.259949 156.67312 
L 191.54191 162.922368 
L 191.82387 164.742261 
L 192.387791 159.247227 
L 192.669752 159.170855 
L 192.951713 158.145115 
L 193.233673 155.437484 
L 193.515634 154.901001 
L 194.079555 159.922912 
L 194.925437 169.675276 
L 195.771318 174.077161 
L 196.053279 173.133971 
L 196.33524 171.681537 
L 196.6172 171.440018 
L 196.899161 172.187344 
L 197.181121 173.332667 
L 197.463082 173.819522 
L 197.745042 172.400003 
L 198.308964 167.713547 
L 198.590924 165.815817 
L 199.154845 158.638938 
L 199.436806 154.5989 
L 199.718767 146.818952 
L 200.564648 109.825152 
L 200.846609 108.017554 
L 201.12857 109.574887 
L 201.41053 112.603661 
L 202.538372 132.22079 
L 203.102294 135.974639 
L 203.948175 146.858348 
L 204.512097 143.429159 
L 204.794057 144.592602 
L 205.076018 147.190145 
L 205.357978 148.071125 
L 205.921899 146.096642 
L 206.20386 146.625693 
L 206.485821 148.912862 
L 207.049742 158.638471 
L 207.331702 163.400547 
L 207.613663 165.463602 
L 208.177584 164.496263 
L 208.459545 165.839937 
L 209.587387 177.033753 
L 209.869348 177.360811 
L 210.433269 172.43343 
L 210.715229 173.583669 
L 210.99719 175.229675 
L 211.279151 174.520774 
L 211.561111 171.747435 
L 211.843072 165.948673 
L 212.406993 138.231286 
L 212.688954 125.155275 
L 212.970914 119.707128 
L 213.252875 119.56996 
L 213.534835 121.260949 
L 213.816796 125.132844 
L 214.662678 142.640853 
L 214.944638 146.808361 
L 215.226599 148.8857 
L 215.508559 148.113096 
L 215.79052 148.486784 
L 216.072481 151.360889 
L 216.354441 152.186048 
L 216.918362 145.769866 
L 217.482284 139.33935 
L 217.764244 142.048399 
L 218.046205 147.840379 
L 218.328165 147.978177 
L 218.610126 142.788651 
L 218.892086 140.968875 
L 219.174047 143.323701 
L 219.456008 143.545348 
L 219.737968 142.172165 
L 220.019929 143.639596 
L 220.301889 145.752028 
L 220.58385 145.206673 
L 220.865811 145.814465 
L 221.429732 152.760801 
L 221.711692 151.693797 
L 221.993653 152.043658 
L 222.557574 160.595022 
L 222.839535 165.716228 
L 223.403456 178.436879 
L 223.685416 178.967258 
L 223.967377 174.926763 
L 224.249338 165.660338 
L 225.095219 125.188508 
L 225.37718 119.769759 
L 225.659141 117.156511 
L 225.941101 116.829164 
L 226.223062 117.412371 
L 226.505022 119.737968 
L 226.786983 126.684642 
L 227.350904 144.087758 
L 227.914825 157.94392 
L 228.478746 173.587589 
L 228.760707 178.015016 
L 229.042668 176.418785 
L 229.606589 161.842737 
L 229.888549 159.536459 
L 230.17051 158.670218 
L 230.45247 156.45238 
L 230.734431 155.621086 
L 231.016392 158.690442 
L 231.580313 166.48437 
L 232.144234 168.920021 
L 232.708155 171.897508 
L 232.990116 172.60791 
L 233.835998 176.006576 
L 235.2458 195.48138 
L 235.527761 197.494841 
L 236.091682 194.13544 
L 236.373643 189.251593 
L 236.655603 174.671956 
L 237.219525 131.100423 
L 237.783446 105.680092 
L 238.347367 89.078774 
L 238.629327 90.156989 
L 238.911288 95.073881 
L 239.193249 97.24257 
L 239.475209 98.535732 
L 240.321091 114.656656 
L 240.603052 128.305804 
L 241.166973 163.529751 
L 241.448933 166.829503 
L 242.012855 165.246564 
L 242.294815 162.783154 
L 242.858736 153.02562 
L 243.140697 153.221586 
L 243.704618 164.714567 
L 244.268539 159.394188 
L 244.5505 162.702898 
L 244.83246 167.407972 
L 245.396382 173.294178 
L 245.678342 176.294129 
L 245.960303 176.185106 
L 246.242263 177.960352 
L 246.806184 190.563146 
L 247.652066 198.601452 
L 247.934027 198.727243 
L 248.215987 196.689577 
L 248.497948 191.505102 
L 248.779909 179.13562 
L 250.189712 96.399693 
L 250.753633 80.891729 
L 251.035593 71.398692 
L 251.317554 67.528002 
L 251.599514 70.578137 
L 252.163436 79.298904 
L 252.445396 88.869081 
L 253.009317 127.414982 
L 253.573239 163.72578 
L 253.855199 168.320452 
L 254.41912 165.194822 
L 254.701081 166.058085 
L 254.983041 167.344726 
L 255.265002 169.890281 
L 255.546963 173.609439 
L 255.828923 175.521503 
L 256.110884 175.857845 
L 256.392844 178.275493 
L 256.674805 181.780063 
L 256.956766 182.418027 
L 257.238726 182.124444 
L 257.520687 185.776126 
L 257.802647 191.243554 
L 258.084608 193.456207 
L 258.366569 193.928272 
L 258.93049 199.46716 
L 259.21245 200.180316 
L 259.494411 201.564677 
L 260.058332 208.322516 
L 260.340293 208.618593 
L 260.622253 207.234403 
L 260.904214 200.799446 
L 261.186174 183.54486 
L 262.032056 115.18435 
L 262.877938 64.823999 
L 263.159898 56.64088 
L 263.441859 57.483982 
L 264.00578 69.342014 
L 264.287741 72.602649 
L 264.569701 79.862078 
L 266.261465 170.09381 
L 266.543425 172.65876 
L 266.825386 172.582546 
L 267.107347 174.426163 
L 267.389307 175.420287 
L 267.671268 174.71953 
L 267.953228 175.359171 
L 268.235189 176.869645 
L 268.51715 176.924666 
L 268.79911 177.328842 
L 269.363031 182.075415 
L 269.926953 184.637531 
L 270.490874 186.106683 
L 270.772834 189.376156 
L 271.336755 198.054153 
L 271.900677 202.043262 
L 272.182637 201.995574 
L 272.746558 199.858272 
L 273.028519 196.016144 
L 273.31048 184.068958 
L 275.002243 68.690136 
L 275.284204 57.275694 
L 275.566164 54.927928 
L 275.848125 57.707603 
L 276.130085 62.602163 
L 276.412046 70.854545 
L 276.975967 96.309122 
L 277.821849 156.343157 
L 278.10381 164.196221 
L 278.667731 168.911547 
L 278.949691 168.787613 
L 279.231652 168.083302 
L 279.513612 169.082419 
L 280.359494 173.535328 
L 280.923415 178.321189 
L 281.487337 184.883147 
L 281.769297 185.880788 
L 282.051258 187.730847 
L 282.897139 200.89465 
L 283.461061 204.956325 
L 283.743021 207.331435 
L 284.024982 206.954202 
L 284.306942 204.011816 
L 284.588903 203.554254 
L 284.870864 205.187363 
L 285.152824 200.441156 
L 285.716745 164.517295 
L 286.844588 80.03593 
L 287.408509 50.552286 
L 287.690469 48.653174 
L 287.97243 51.559128 
L 288.536351 54.003551 
L 288.818312 60.174297 
L 289.100272 72.112537 
L 290.792036 170.359844 
L 291.073996 178.503773 
L 292.483799 191.744069 
L 292.76576 190.354462 
L 293.047721 188.259999 
L 293.329681 188.08864 
L 294.175563 191.789566 
L 294.739484 198.635347 
L 295.585366 205.921942 
L 295.867326 205.163498 
L 296.149287 203.525965 
L 296.431248 205.214173 
L 296.995169 214.561283 
L 297.277129 210.306592 
L 297.55909 195.065771 
L 298.686932 95.201224 
L 299.250853 56.332819 
L 299.532814 52.191462 
L 300.096735 58.038354 
L 300.378696 59.765013 
L 300.942617 68.235907 
L 301.224578 72.896225 
L 301.506538 82.47405 
L 302.634381 138.59717 
L 303.480262 171.781532 
L 304.044183 188.349159 
L 304.326144 191.913532 
L 304.608105 193.287394 
L 304.890065 193.52997 
L 305.172026 195.382579 
L 305.453986 199.151333 
L 305.735947 201.066893 
L 306.017908 200.392137 
L 306.299868 200.293874 
L 306.581829 202.326457 
L 306.863789 206.9189 
L 307.42771 221.184425 
L 308.273592 229.976464 
L 308.555553 231.613748 
L 308.837513 228.973718 
L 309.401435 217.284146 
L 309.683395 203.785504 
L 310.811238 108.284988 
L 311.375159 61.533321 
L 311.657119 55.901327 
L 311.93908 55.095856 
L 312.22104 53.2143 
L 312.503001 54.014489 
L 312.784962 57.190752 
L 313.066922 58.421868 
L 313.348883 60.718584 
L 313.630843 69.789187 
L 314.758686 124.499144 
L 316.450449 181.534787 
L 316.73241 183.39488 
L 317.01437 184.226577 
L 317.296331 188.094622 
L 317.578292 190.348094 
L 317.860252 190.905916 
L 318.142213 195.789765 
L 318.424173 203.473552 
L 318.706134 207.472512 
L 318.988095 208.608301 
L 319.552016 212.491351 
L 319.833976 215.091225 
L 320.397897 225.848415 
L 320.679858 227.215158 
L 320.961819 227.257384 
L 321.243779 228.553489 
L 321.52574 225.580318 
L 321.8077 211.776545 
L 322.653582 133.330945 
L 323.217503 84.729219 
L 323.499464 68.607329 
L 323.781424 62.207774 
L 324.345346 62.705152 
L 324.627306 60.987399 
L 324.909267 60.291442 
L 325.191227 61.56247 
L 325.473188 64.635605 
L 325.755149 71.613048 
L 327.164952 124.208392 
L 328.010833 149.322797 
L 328.292794 155.971581 
L 329.420636 200.508194 
L 330.548479 208.375989 
L 330.830439 211.145381 
L 331.1124 212.068584 
L 331.39436 212.545638 
L 332.240242 221.703301 
L 332.522203 224.78317 
L 333.086124 234.805183 
L 333.368084 236.749997 
L 333.650045 232.314632 
L 333.932006 218.576571 
L 334.777887 146.708226 
L 335.341809 94.544301 
L 335.623769 79.780932 
L 336.18769 65.266084 
L 336.469651 59.577958 
L 337.315533 51.059273 
L 337.597493 51.737192 
L 337.879454 59.345837 
L 338.443375 81.79779 
L 339.007296 96.531335 
L 340.98102 178.993792 
L 341.544941 203.406011 
L 341.826902 208.302478 
L 342.390823 213.718591 
L 342.672784 214.128473 
L 342.954744 214.216817 
L 344.646508 231.369044 
L 344.928468 231.722904 
L 345.210429 232.328157 
L 345.49239 231.978563 
L 345.77435 226.239968 
L 346.056311 211.805565 
L 346.620232 162.064091 
L 347.466114 80.971886 
L 347.748074 67.468917 
L 348.311995 58.996153 
L 348.593956 56.115115 
L 348.875917 56.258287 
L 349.439838 58.035843 
L 349.721798 63.230636 
L 350.56768 94.576699 
L 351.413562 111.835721 
L 352.541404 153.583248 
L 353.105325 182.045105 
L 353.951207 215.573861 
L 354.233168 218.532109 
L 354.797089 215.094855 
L 355.642971 219.455172 
L 355.924931 220.406061 
L 356.206892 225.835628 
L 356.488852 233.776064 
L 356.770813 238.128767 
L 357.052774 238.057208 
L 357.334734 237.312083 
L 357.616695 233.233153 
L 357.898655 218.299426 
L 359.308458 93.651022 
L 360.436301 51.795225 
L 360.718261 50.147046 
L 361.000222 51.502328 
L 361.282182 52.08755 
L 361.564143 57.870121 
L 362.973946 117.506986 
L 363.819828 143.899904 
L 364.383749 156.437589 
L 364.94767 175.215826 
L 365.793552 206.554496 
L 366.075512 210.642051 
L 366.639434 212.660051 
L 366.921394 215.662569 
L 367.485315 224.58317 
L 368.049237 231.145793 
L 368.331197 235.21243 
L 368.613158 236.824148 
L 368.895118 237.371796 
L 369.177079 237.583687 
L 369.459039 231.191198 
L 369.741 213.739923 
L 370.586882 130.952178 
L 371.150803 79.57618 
L 371.714724 56.916449 
L 371.996685 52.268717 
L 372.278645 50.717258 
L 372.560606 50.501315 
L 372.842566 53.291529 
L 374.53433 102.376832 
L 377.071975 185.779011 
L 377.635896 208.631606 
L 378.199818 219.654536 
L 378.481778 224.682935 
L 378.763739 227.606089 
L 379.32766 224.647079 
L 379.891581 230.374114 
L 380.173542 230.8316 
L 380.737463 234.62265 
L 381.019423 228.94643 
L 381.583345 189.845415 
L 382.711187 77.307652 
L 382.993148 67.533176 
L 383.275108 62.152206 
L 383.557069 61.30028 
L 383.839029 62.835242 
L 384.12099 62.637234 
L 384.402951 63.106867 
L 384.684911 69.602075 
L 385.530793 99.046995 
L 386.094714 109.228714 
L 386.376675 114.425379 
L 387.222556 141.378307 
L 387.504517 144.772572 
L 388.350399 164.22025 
L 388.632359 164.669571 
L 388.91432 167.233944 
L 389.478241 179.296613 
L 390.042162 196.838584 
L 391.451965 245.193048 
L 392.015886 254.016 
L 392.297847 251.24996 
L 392.579808 239.061686 
L 393.143729 194.521288 
L 393.98961 95.962893 
L 394.271571 85.057725 
L 395.117453 73.635757 
L 395.399413 73.88563 
L 395.681374 75.41986 
L 395.963335 78.307597 
L 396.245295 84.865097 
L 397.091177 112.237831 
L 397.937059 129.30194 
L 398.50098 138.766066 
L 399.064901 148.116645 
L 400.192743 165.318465 
L 401.602546 184.791977 
L 402.166467 189.313398 
L 402.448428 193.757182 
L 403.012349 211.693948 
L 403.57627 228.935293 
L 403.858231 231.38193 
L 404.140192 228.347312 
L 404.422152 217.442662 
L 404.986073 159.94797 
L 405.268034 133.608776 
L 405.549994 121.991043 
L 406.395876 105.84976 
L 407.241758 99.240387 
L 407.523719 99.507825 
L 407.805679 101.426676 
L 408.651561 116.821003 
L 408.933522 118.772295 
L 409.497443 129.078906 
L 409.779403 130.284603 
L 410.061364 132.290749 
L 410.625285 147.353829 
L 410.907246 150.572813 
L 411.189206 151.299422 
L 411.471167 152.77213 
L 412.035088 156.79034 
L 412.317049 157.965666 
L 412.599009 160.912086 
L 413.16293 171.87202 
L 413.444891 173.738998 
L 413.726851 176.384753 
L 414.572733 195.804792 
L 415.700576 211.340887 
L 415.982536 202.659408 
L 416.828418 142.740225 
L 418.238221 120.648988 
L 418.802142 114.891281 
L 419.084103 109.502646 
L 419.366063 106.337146 
L 419.648024 110.625891 
L 419.929984 118.906952 
L 420.211945 123.811993 
L 420.493906 126.003775 
L 420.775866 131.446321 
L 421.339787 146.418847 
L 421.621748 147.914295 
L 421.903708 148.082801 
L 422.185669 149.771876 
L 422.74959 154.175888 
L 423.313511 156.684231 
L 423.595472 159.897024 
L 424.159393 170.069808 
L 424.441354 171.050708 
L 424.723314 169.203924 
L 425.005275 168.225828 
L 425.287236 170.223975 
L 426.978999 194.758507 
L 427.26096 199.593361 
L 427.54292 201.223262 
L 427.824881 192.302291 
L 428.388802 159.828393 
L 429.234684 138.462642 
L 429.516644 133.256758 
L 429.798605 130.819268 
L 430.080565 126.290331 
L 430.644487 113.567502 
L 430.926447 113.011613 
L 431.490368 118.869983 
L 431.772329 122.511679 
L 432.33625 132.478485 
L 432.618211 134.381498 
L 432.900171 134.325364 
L 433.182132 134.886886 
L 433.464093 136.298779 
L 433.746053 138.592686 
L 434.309974 145.264123 
L 434.591935 145.445816 
L 434.873895 146.026001 
L 436.283698 162.136298 
L 436.84762 164.396987 
L 437.12958 167.034383 
L 437.693501 170.108067 
L 438.539383 182.808491 
L 439.103304 186.244713 
L 439.385265 188.026676 
L 439.667225 188.686648 
L 439.949186 185.007672 
L 440.795068 152.17775 
L 441.358989 138.448936 
L 441.64095 131.602543 
L 441.92291 129.635504 
L 442.204871 129.043112 
L 442.768792 123.432687 
L 443.050752 125.24627 
L 443.332713 127.840106 
L 443.614674 128.361482 
L 443.896634 129.624451 
L 444.460555 136.043671 
L 444.742516 137.186046 
L 445.024477 137.806455 
L 445.306437 138.769816 
L 445.588398 141.814391 
L 446.152319 152.825351 
L 446.434279 150.919916 
L 446.71624 146.223216 
L 446.998201 146.518993 
L 447.280161 150.662208 
L 447.562122 151.847451 
L 447.844082 150.999741 
L 448.126043 154.816595 
L 448.408004 162.302509 
L 448.689964 166.642056 
L 448.971925 168.826703 
L 449.535846 182.010828 
L 449.817806 183.956589 
L 450.099767 184.077408 
L 450.663688 193.889422 
L 450.945649 194.107226 
L 451.227609 192.26828 
L 451.50957 192.593891 
L 451.791531 190.950145 
L 452.073491 181.079421 
L 452.637412 150.678547 
L 452.919373 144.512965 
L 453.201334 143.425283 
L 453.483294 141.186103 
L 454.329176 128.224969 
L 455.175058 121.582869 
L 455.457018 120.858839 
L 455.738979 122.674823 
L 456.584861 135.457338 
L 456.866821 133.896158 
L 457.148782 130.868221 
L 457.430742 130.65759 
L 459.122506 155.667591 
L 459.404466 156.295701 
L 459.686427 155.833282 
L 459.968388 158.869984 
L 460.250348 163.589992 
L 460.532309 164.228562 
L 461.09623 156.898203 
L 461.378191 159.755636 
L 461.942112 171.780639 
L 462.506033 176.465275 
L 463.351915 188.301297 
L 463.915836 193.17021 
L 464.197796 194.008963 
L 464.479757 190.728843 
L 465.88956 145.763777 
L 466.17152 141.588825 
L 466.453481 141.089727 
L 466.735442 141.007966 
L 467.017402 137.052131 
L 467.581323 125.583764 
L 468.427205 117.745247 
L 468.709166 118.724614 
L 469.837008 132.698162 
L 470.400929 134.985394 
L 471.246811 143.783446 
L 471.528772 145.191138 
L 472.092693 149.917437 
L 472.374653 150.08011 
L 472.656614 151.823292 
L 473.502496 166.594555 
L 473.784456 169.956257 
L 474.348377 181.437631 
L 474.630338 182.603113 
L 474.912299 181.626967 
L 475.194259 181.756349 
L 475.47622 182.702522 
L 475.75818 182.942195 
L 476.040141 182.518726 
L 476.322102 183.048544 
L 476.886023 189.260934 
L 477.167983 187.210583 
L 478.577786 139.766972 
L 478.859747 134.54307 
L 480.26955 118.095296 
L 480.55151 120.068887 
L 481.115432 127.271965 
L 481.397392 130.136086 
L 481.961313 138.11677 
L 482.243274 139.106845 
L 482.525234 137.133506 
L 482.807195 133.524938 
L 483.089156 132.863306 
L 483.371116 139.749571 
L 483.653077 150.102657 
L 483.935037 154.493003 
L 484.498959 150.526443 
L 484.780919 151.732336 
L 485.06288 151.297981 
L 485.626801 145.312617 
L 485.908762 144.166251 
L 486.190722 144.354646 
L 486.472683 146.293897 
L 487.036604 154.623418 
L 487.882486 172.441298 
L 488.164446 174.477374 
L 489.010328 186.698586 
L 489.292289 186.394071 
L 489.85621 190.472792 
L 490.13817 185.406145 
L 490.984052 157.117996 
L 491.547973 145.432538 
L 492.393855 131.378163 
L 492.957776 127.486615 
L 493.521697 124.39612 
L 493.803658 124.481478 
L 494.085619 128.897262 
L 494.367579 135.357215 
L 494.64954 137.675806 
L 495.213461 133.522892 
L 495.495421 134.438054 
L 496.059343 137.837926 
L 496.341303 140.004353 
L 496.623264 141.269876 
L 496.905224 141.489888 
L 497.469146 143.005752 
L 497.751106 142.322059 
L 498.033067 140.816458 
L 498.315027 140.450928 
L 498.596988 141.939451 
L 499.160909 148.229509 
L 499.44287 147.576064 
L 499.72483 144.106817 
L 500.006791 144.664878 
L 501.134633 168.109781 
L 501.698554 177.233364 
L 501.980515 180.744351 
L 502.262476 180.879246 
L 502.544436 172.240852 
L 503.108357 150.905214 
L 503.672278 138.018684 
L 503.954239 134.983805 
L 504.2362 136.37471 
L 504.51816 137.14978 
L 505.082081 134.965255 
L 505.364042 135.791948 
L 505.927963 140.253765 
L 506.209924 140.378181 
L 506.491884 141.17271 
L 507.055805 149.389148 
L 507.337766 151.380021 
L 507.619727 152.05884 
L 507.901687 150.098756 
L 508.183648 145.341896 
L 508.465608 143.063427 
L 508.747569 144.198329 
L 509.02953 143.088896 
L 509.31149 140.711149 
L 509.593451 143.599484 
L 509.875411 149.704368 
L 510.721293 158.539437 
L 511.003254 160.897118 
L 511.285214 160.791661 
L 511.567175 163.290389 
L 512.131096 174.892096 
L 512.695017 179.718511 
L 513.258938 188.767733 
L 513.540899 190.439726 
L 513.82286 188.902584 
L 514.668741 181.351904 
L 515.232662 163.36346 
L 515.796584 148.218476 
L 516.078544 145.196145 
L 516.642465 142.98556 
L 516.924426 142.061372 
L 517.206387 142.801374 
L 517.488347 147.124646 
L 518.052268 158.215848 
L 518.334229 157.198178 
L 518.61619 154.274629 
L 518.89815 153.032356 
L 519.180111 149.293338 
L 519.744032 128.70396 
L 520.025992 127.249852 
L 520.307953 130.636424 
L 520.589914 130.278636 
L 520.871874 127.919452 
L 521.153835 130.794395 
L 521.717756 144.32627 
L 522.563638 153.510363 
L 523.127559 160.509689 
L 523.409519 162.9802 
L 523.69148 163.36585 
L 523.973441 163.193344 
L 524.255401 165.38626 
L 525.101283 176.16314 
L 526.793047 188.814026 
L 527.075007 193.001737 
L 527.356968 193.657224 
L 528.48481 170.153572 
L 529.048731 160.667309 
L 529.330692 154.497496 
L 529.894613 133.696601 
L 530.458534 113.458286 
L 531.022455 101.743438 
L 531.304416 98.216951 
L 531.868337 94.780533 
L 532.150298 92.26466 
L 532.432258 92.801626 
L 533.27814 106.987223 
L 533.842061 122.166675 
L 534.405982 130.029998 
L 535.251864 161.226118 
L 535.533825 161.962989 
L 536.097746 167.779161 
L 536.379706 163.469604 
L 536.661667 156.358208 
L 536.943628 157.159297 
L 537.507549 174.699664 
L 537.789509 177.702277 
L 538.07147 179.334089 
L 538.353431 184.669958 
L 538.635391 192.332338 
L 538.917352 196.385952 
L 539.199312 194.339091 
L 539.763233 182.169148 
L 540.327155 166.074507 
L 540.609115 163.192872 
L 541.173036 164.578086 
L 541.454997 162.910105 
L 542.582839 147.185186 
L 542.8648 146.090992 
L 543.146761 145.836182 
L 543.710682 151.913443 
L 543.992642 146.867244 
L 544.556563 129.873607 
L 545.120485 127.310179 
L 545.402445 124.959895 
L 545.684406 126.748058 
L 546.530288 144.299821 
L 547.094209 151.416071 
L 547.65813 159.080006 
L 547.94009 162.403539 
L 548.504012 176.439557 
L 549.349893 194.386165 
L 549.631854 197.70872 
L 549.913815 198.476176 
L 550.195775 200.64224 
L 550.759696 208.740933 
L 551.041657 210.403174 
L 551.323618 210.251411 
L 551.605578 206.734603 
L 551.887539 200.713927 
L 552.169499 197.543396 
L 552.45146 199.899353 
L 552.73342 203.329509 
L 553.015381 203.563249 
L 553.297342 204.333162 
L 553.861263 217.981672 
L 554.143223 218.9854 
L 554.707145 212.513714 
L 554.989105 204.872446 
L 556.116947 143.913781 
L 556.962829 55.382082 
L 557.52675 22.780666 
L 557.808711 15.216869 
L 558.090672 12.153949 
L 558.372632 12.096 
L 558.654593 17.183816 
L 560.346356 94.018004 
L 561.474199 124.859779 
L 561.756159 124.861518 
L 562.32008 117.580679 
L 562.602041 115.725409 
L 562.884002 109.335989 
L 563.729883 72.538304 
L 564.011844 61.586476 
L 564.293804 61.791546 
L 564.575765 87.672702 
L 565.139686 148.300422 
L 565.985568 177.183856 
L 566.267529 183.481364 
L 567.11341 210.438571 
L 567.677332 219.086073 
L 567.959292 220.37179 
L 568.241253 219.147339 
L 568.523213 221.058087 
L 568.805174 221.164375 
L 569.087134 207.065342 
L 569.651056 165.654384 
L 569.933016 165.306286 
L 570.496937 189.109614 
L 570.778898 201.646502 
L 571.060859 206.130283 
L 571.62478 196.467023 
L 571.90674 197.971646 
L 572.470661 214.249415 
L 572.752622 217.211276 
L 573.034583 222.411718 
L 573.316543 231.760141 
L 573.598504 232.016204 
L 573.880464 220.446188 
L 574.162425 214.14177 
L 574.444386 217.023004 
L 574.726346 215.374638 
L 575.008307 209.83935 
L 575.290267 209.117314 
L 575.572228 207.384746 
L 575.854189 204.569828 
L 576.136149 211.465494 
L 576.41811 215.338136 
L 576.70007 191.485424 
L 577.545952 71.103888 
L 577.827913 67.552255 
L 578.109873 84.911869 
L 578.391834 88.298863 
L 578.955755 51.559604 
L 579.237716 52.886748 
L 579.519676 63.838863 
L 580.083597 118.287975 
L 580.365558 93.303676 
L 580.647518 38.99055 
L 580.929479 30.274147 
L 581.21144 63.639659 
L 581.4934 76.10989 
L 581.775361 64.846811 
L 582.057321 63.501726 
L 582.339282 65.060907 
L 582.621243 59.834923 
L 582.903203 70.088186 
L 583.467124 122.80911 
L 583.749085 126.232491 
L 584.031046 116.802006 
L 584.313006 103.605317 
L 584.594967 100.377225 
L 584.876927 116.106437 
L 585.440848 155.581315 
L 585.722809 162.231473 
L 586.00477 164.867064 
L 586.28673 165.319088 
L 586.568691 164.913262 
L 586.850651 165.566584 
L 587.132612 168.179179 
L 587.696533 178.234552 
L 587.978494 180.259741 
L 588.260454 178.624286 
L 588.542415 178.121233 
L 588.824375 181.914796 
L 589.670257 198.953589 
L 589.952218 209.778586 
L 590.516139 236.750938 
L 590.7981 232.893388 
L 591.362021 201.643191 
L 591.643981 196.187639 
L 591.925942 188.171495 
L 592.489863 154.7605 
L 592.771824 146.231341 
L 593.335745 137.999545 
L 593.617705 137.356045 
L 594.181627 142.277051 
L 594.463587 148.197317 
L 595.027508 169.321187 
L 595.309469 174.601134 
L 595.59143 176.862056 
L 595.87339 182.869645 
L 596.437311 206.13323 
L 596.719272 210.420309 
L 597.001232 208.047197 
L 597.565154 200.818598 
L 599.256917 165.288201 
L 599.820838 159.235304 
L 600.38476 151.665752 
L 601.230641 146.80119 
L 601.512602 147.205121 
L 601.794562 147.016104 
L 602.358484 143.553999 
L 602.640444 143.959037 
L 602.922405 145.152562 
L 603.204365 144.809594 
L 603.486326 143.463443 
L 603.768287 143.500382 
L 604.050247 144.471999 
L 604.332208 144.767536 
L 604.614168 146.884545 
L 605.178089 157.238796 
L 605.46005 157.729895 
L 605.742011 157.628618 
L 606.305932 161.335217 
L 606.587892 160.939119 
L 607.151814 158.483217 
L 607.433774 159.480115 
L 607.715735 161.328642 
L 608.279656 161.761974 
L 608.843577 169.660477 
L 609.125538 168.43299 
L 609.971419 151.855894 
L 610.535341 146.173704 
L 611.663183 135.353961 
L 611.945144 134.772455 
L 612.227104 135.228952 
L 612.509065 136.74598 
L 612.791025 139.019148 
L 613.354946 146.388359 
L 613.636907 146.777723 
L 613.918868 144.672903 
L 614.200828 144.189307 
L 614.482789 145.402915 
L 614.764749 145.619628 
L 615.04671 145.143991 
L 615.328671 145.818755 
L 616.174552 148.848503 
L 616.738474 152.409304 
L 617.020434 152.601966 
L 617.302395 153.480333 
L 618.148276 161.612698 
L 618.430237 162.597984 
L 618.994158 166.285884 
L 619.84004 174.088016 
L 620.122001 172.67129 
L 620.403961 168.821954 
L 621.249843 152.415916 
L 621.531803 151.332091 
L 621.813764 148.684486 
L 622.377685 136.931624 
L 622.941606 135.058647 
L 623.505528 129.187006 
L 623.787488 132.329919 
L 624.069449 137.639889 
L 624.351409 140.355306 
L 624.63337 140.570692 
L 624.915331 141.393968 
L 625.197291 143.231786 
L 625.479252 144.24029 
L 625.761212 143.739282 
L 626.607094 141.098447 
L 626.889055 141.229729 
L 627.171015 142.023176 
L 627.452976 141.072133 
L 628.016897 134.640104 
L 628.298858 133.097904 
L 628.580818 132.556698 
L 628.862779 134.843799 
L 629.4267 149.431241 
L 629.70866 152.637318 
L 629.990621 153.922816 
L 630.554542 160.596789 
L 630.836503 161.179118 
L 631.118463 162.901063 
L 631.400424 166.238786 
L 631.682385 165.655462 
L 632.246306 155.527782 
L 632.810227 151.514602 
L 633.092188 148.875056 
L 633.092188 148.875056 
" clip-path="url(#pd430f1f45b)" style="fill: none; stroke: #1f77b4; stroke-width: 1.5; stroke-linecap: square"/>
   </g>
   <g id="patch_3">
    <path d="M 47.192188 266.112 
L 47.192188 0 
" style="fill: none; stroke: #000000; stroke-width: 0.8; stroke-linejoin: miter; stroke-linecap: square"/>
   </g>
   <g id="patch_4">
    <path d="M 660.992188 266.112 
L 660.992188 0 
" style="fill: none; stroke: #000000; stroke-width: 0.8; stroke-linejoin: miter; stroke-linecap: square"/>
   </g>
   <g id="patch_5">
    <path d="M 47.192188 266.112 
L 660.992188 266.112 
" style="fill: none; stroke: #000000; stroke-width: 0.8; stroke-linejoin: miter; stroke-linecap: square"/>
   </g>
   <g id="patch_6">
    <path d="M 47.192188 0 
L 660.992188 0 
" style="fill: none; stroke: #000000; stroke-width: 0.8; stroke-linejoin: miter; stroke-linecap: square"/>
   </g>
  </g>
 </g>
 <defs>
  <clipPath id="pd430f1f45b">
   <rect x="47.192188" y="0" width="613.8" height="266.112"/>
  </clipPath>
 </defs>
</svg>
