<?xml version="1.0" encoding="utf-8" standalone="no"?>
<!DOCTYPE svg PUBLIC "-//W3C//DTD SVG 1.1//EN"
  "http://www.w3.org/Graphics/SVG/1.1/DTD/svg11.dtd">
<svg xmlns:xlink="http://www.w3.org/1999/xlink" width="660.992188pt" height="282.790125pt" viewBox="0 0 660.992188 282.790125" xmlns="http://www.w3.org/2000/svg" version="1.1">
 <metadata>
  <rdf:RDF xmlns:dc="http://purl.org/dc/elements/1.1/" xmlns:cc="http://creativecommons.org/ns#" xmlns:rdf="http://www.w3.org/1999/02/22-rdf-syntax-ns#">
   <cc:Work>
    <dc:type rdf:resource="http://purl.org/dc/dcmitype/StillImage"/>
    <dc:date>2023-03-06T19:25:49.679972</dc:date>
    <dc:format>image/svg+xml</dc:format>
    <dc:creator>
     <cc:Agent>
      <dc:title>Matplotlib v3.6.3, https://matplotlib.org/</dc:title>
     </cc:Agent>
    </dc:creator>
   </cc:Work>
  </rdf:RDF>
 </metadata>
 <defs>
  <style type="text/css">*{stroke-linejoin: round; stroke-linecap: butt}</style>
 </defs>
 <g id="figure_1">
  <g id="patch_1">
   <path d="M -0 282.790125 
L 660.992188 282.790125 
L 660.992188 0 
L -0 0 
L -0 282.790125 
z
" style="fill: none"/>
  </g>
  <g id="axes_1">
   <g id="patch_2">
    <path d="M 47.192188 266.112 
L 660.992188 266.112 
L 660.992188 0 
L 47.192188 0 
L 47.192188 266.112 
z
" style="fill: none"/>
   </g>
   <g id="matplotlib.axis_1">
    <g id="xtick_1">
     <g id="line2d_1">
      <defs>
       <path id="mb4e08e123e" d="M 0 0 
L 0 3.5 
" style="stroke: #000000; stroke-width: 0.8"/>
      </defs>
      <g>
       <use xlink:href="#mb4e08e123e" x="75.092188" y="266.112" style="stroke: #000000; stroke-width: 0.8"/>
      </g>
     </g>
     <g id="text_1">
      <!-- 0 -->
      <g transform="translate(71.910938 280.710438) scale(0.1 -0.1)">
       <defs>
        <path id="DejaVuSans-30" d="M 2034 4250 
Q 1547 4250 1301 3770 
Q 1056 3291 1056 2328 
Q 1056 1369 1301 889 
Q 1547 409 2034 409 
Q 2525 409 2770 889 
Q 3016 1369 3016 2328 
Q 3016 3291 2770 3770 
Q 2525 4250 2034 4250 
z
M 2034 4750 
Q 2819 4750 3233 4129 
Q 3647 3509 3647 2328 
Q 3647 1150 3233 529 
Q 2819 -91 2034 -91 
Q 1250 -91 836 529 
Q 422 1150 422 2328 
Q 422 3509 836 4129 
Q 1250 4750 2034 4750 
z
" transform="scale(0.015625)"/>
       </defs>
       <use xlink:href="#DejaVuSans-30"/>
      </g>
     </g>
    </g>
    <g id="xtick_2">
     <g id="line2d_2">
      <g>
       <use xlink:href="#mb4e08e123e" x="144.842188" y="266.112" style="stroke: #000000; stroke-width: 0.8"/>
      </g>
     </g>
     <g id="text_2">
      <!-- 500 -->
      <g transform="translate(135.298438 280.710438) scale(0.1 -0.1)">
       <defs>
        <path id="DejaVuSans-35" d="M 691 4666 
L 3169 4666 
L 3169 4134 
L 1269 4134 
L 1269 2991 
Q 1406 3038 1543 3061 
Q 1681 3084 1819 3084 
Q 2600 3084 3056 2656 
Q 3513 2228 3513 1497 
Q 3513 744 3044 326 
Q 2575 -91 1722 -91 
Q 1428 -91 1123 -41 
Q 819 9 494 109 
L 494 744 
Q 775 591 1075 516 
Q 1375 441 1709 441 
Q 2250 441 2565 725 
Q 2881 1009 2881 1497 
Q 2881 1984 2565 2268 
Q 2250 2553 1709 2553 
Q 1456 2553 1204 2497 
Q 953 2441 691 2322 
L 691 4666 
z
" transform="scale(0.015625)"/>
       </defs>
       <use xlink:href="#DejaVuSans-35"/>
       <use xlink:href="#DejaVuSans-30" x="63.623047"/>
       <use xlink:href="#DejaVuSans-30" x="127.246094"/>
      </g>
     </g>
    </g>
    <g id="xtick_3">
     <g id="line2d_3">
      <g>
       <use xlink:href="#mb4e08e123e" x="214.592188" y="266.112" style="stroke: #000000; stroke-width: 0.8"/>
      </g>
     </g>
     <g id="text_3">
      <!-- 1000 -->
      <g transform="translate(201.867188 280.710438) scale(0.1 -0.1)">
       <defs>
        <path id="DejaVuSans-31" d="M 794 531 
L 1825 531 
L 1825 4091 
L 703 3866 
L 703 4441 
L 1819 4666 
L 2450 4666 
L 2450 531 
L 3481 531 
L 3481 0 
L 794 0 
L 794 531 
z
" transform="scale(0.015625)"/>
       </defs>
       <use xlink:href="#DejaVuSans-31"/>
       <use xlink:href="#DejaVuSans-30" x="63.623047"/>
       <use xlink:href="#DejaVuSans-30" x="127.246094"/>
       <use xlink:href="#DejaVuSans-30" x="190.869141"/>
      </g>
     </g>
    </g>
    <g id="xtick_4">
     <g id="line2d_4">
      <g>
       <use xlink:href="#mb4e08e123e" x="284.342188" y="266.112" style="stroke: #000000; stroke-width: 0.8"/>
      </g>
     </g>
     <g id="text_4">
      <!-- 1500 -->
      <g transform="translate(271.617188 280.710438) scale(0.1 -0.1)">
       <use xlink:href="#DejaVuSans-31"/>
       <use xlink:href="#DejaVuSans-35" x="63.623047"/>
       <use xlink:href="#DejaVuSans-30" x="127.246094"/>
       <use xlink:href="#DejaVuSans-30" x="190.869141"/>
      </g>
     </g>
    </g>
    <g id="xtick_5">
     <g id="line2d_5">
      <g>
       <use xlink:href="#mb4e08e123e" x="354.092188" y="266.112" style="stroke: #000000; stroke-width: 0.8"/>
      </g>
     </g>
     <g id="text_5">
      <!-- 2000 -->
      <g transform="translate(341.367188 280.710438) scale(0.1 -0.1)">
       <defs>
        <path id="DejaVuSans-32" d="M 1228 531 
L 3431 531 
L 3431 0 
L 469 0 
L 469 531 
Q 828 903 1448 1529 
Q 2069 2156 2228 2338 
Q 2531 2678 2651 2914 
Q 2772 3150 2772 3378 
Q 2772 3750 2511 3984 
Q 2250 4219 1831 4219 
Q 1534 4219 1204 4116 
Q 875 4013 500 3803 
L 500 4441 
Q 881 4594 1212 4672 
Q 1544 4750 1819 4750 
Q 2544 4750 2975 4387 
Q 3406 4025 3406 3419 
Q 3406 3131 3298 2873 
Q 3191 2616 2906 2266 
Q 2828 2175 2409 1742 
Q 1991 1309 1228 531 
z
" transform="scale(0.015625)"/>
       </defs>
       <use xlink:href="#DejaVuSans-32"/>
       <use xlink:href="#DejaVuSans-30" x="63.623047"/>
       <use xlink:href="#DejaVuSans-30" x="127.246094"/>
       <use xlink:href="#DejaVuSans-30" x="190.869141"/>
      </g>
     </g>
    </g>
    <g id="xtick_6">
     <g id="line2d_6">
      <g>
       <use xlink:href="#mb4e08e123e" x="423.842188" y="266.112" style="stroke: #000000; stroke-width: 0.8"/>
      </g>
     </g>
     <g id="text_6">
      <!-- 2500 -->
      <g transform="translate(411.117188 280.710438) scale(0.1 -0.1)">
       <use xlink:href="#DejaVuSans-32"/>
       <use xlink:href="#DejaVuSans-35" x="63.623047"/>
       <use xlink:href="#DejaVuSans-30" x="127.246094"/>
       <use xlink:href="#DejaVuSans-30" x="190.869141"/>
      </g>
     </g>
    </g>
    <g id="xtick_7">
     <g id="line2d_7">
      <g>
       <use xlink:href="#mb4e08e123e" x="493.592188" y="266.112" style="stroke: #000000; stroke-width: 0.8"/>
      </g>
     </g>
     <g id="text_7">
      <!-- 3000 -->
      <g transform="translate(480.867188 280.710438) scale(0.1 -0.1)">
       <defs>
        <path id="DejaVuSans-33" d="M 2597 2516 
Q 3050 2419 3304 2112 
Q 3559 1806 3559 1356 
Q 3559 666 3084 287 
Q 2609 -91 1734 -91 
Q 1441 -91 1130 -33 
Q 819 25 488 141 
L 488 750 
Q 750 597 1062 519 
Q 1375 441 1716 441 
Q 2309 441 2620 675 
Q 2931 909 2931 1356 
Q 2931 1769 2642 2001 
Q 2353 2234 1838 2234 
L 1294 2234 
L 1294 2753 
L 1863 2753 
Q 2328 2753 2575 2939 
Q 2822 3125 2822 3475 
Q 2822 3834 2567 4026 
Q 2313 4219 1838 4219 
Q 1578 4219 1281 4162 
Q 984 4106 628 3988 
L 628 4550 
Q 988 4650 1302 4700 
Q 1616 4750 1894 4750 
Q 2613 4750 3031 4423 
Q 3450 4097 3450 3541 
Q 3450 3153 3228 2886 
Q 3006 2619 2597 2516 
z
" transform="scale(0.015625)"/>
       </defs>
       <use xlink:href="#DejaVuSans-33"/>
       <use xlink:href="#DejaVuSans-30" x="63.623047"/>
       <use xlink:href="#DejaVuSans-30" x="127.246094"/>
       <use xlink:href="#DejaVuSans-30" x="190.869141"/>
      </g>
     </g>
    </g>
    <g id="xtick_8">
     <g id="line2d_8">
      <g>
       <use xlink:href="#mb4e08e123e" x="563.342188" y="266.112" style="stroke: #000000; stroke-width: 0.8"/>
      </g>
     </g>
     <g id="text_8">
      <!-- 3500 -->
      <g transform="translate(550.617188 280.710438) scale(0.1 -0.1)">
       <use xlink:href="#DejaVuSans-33"/>
       <use xlink:href="#DejaVuSans-35" x="63.623047"/>
       <use xlink:href="#DejaVuSans-30" x="127.246094"/>
       <use xlink:href="#DejaVuSans-30" x="190.869141"/>
      </g>
     </g>
    </g>
    <g id="xtick_9">
     <g id="line2d_9">
      <g>
       <use xlink:href="#mb4e08e123e" x="633.092188" y="266.112" style="stroke: #000000; stroke-width: 0.8"/>
      </g>
     </g>
     <g id="text_9">
      <!-- 4000 -->
      <g transform="translate(620.367188 280.710438) scale(0.1 -0.1)">
       <defs>
        <path id="DejaVuSans-34" d="M 2419 4116 
L 825 1625 
L 2419 1625 
L 2419 4116 
z
M 2253 4666 
L 3047 4666 
L 3047 1625 
L 3713 1625 
L 3713 1100 
L 3047 1100 
L 3047 0 
L 2419 0 
L 2419 1100 
L 313 1100 
L 313 1709 
L 2253 4666 
z
" transform="scale(0.015625)"/>
       </defs>
       <use xlink:href="#DejaVuSans-34"/>
       <use xlink:href="#DejaVuSans-30" x="63.623047"/>
       <use xlink:href="#DejaVuSans-30" x="127.246094"/>
       <use xlink:href="#DejaVuSans-30" x="190.869141"/>
      </g>
     </g>
    </g>
   </g>
   <g id="matplotlib.axis_2">
    <g id="ytick_1">
     <g id="line2d_10">
      <defs>
       <path id="md5c22bc430" d="M 0 0 
L -3.5 0 
" style="stroke: #000000; stroke-width: 0.8"/>
      </defs>
      <g>
       <use xlink:href="#md5c22bc430" x="47.192188" y="249.871498" style="stroke: #000000; stroke-width: 0.8"/>
      </g>
     </g>
     <g id="text_10">
      <!-- −30000 -->
      <g transform="translate(0 253.670717) scale(0.1 -0.1)">
       <defs>
        <path id="DejaVuSans-2212" d="M 678 2272 
L 4684 2272 
L 4684 1741 
L 678 1741 
L 678 2272 
z
" transform="scale(0.015625)"/>
       </defs>
       <use xlink:href="#DejaVuSans-2212"/>
       <use xlink:href="#DejaVuSans-33" x="83.789062"/>
       <use xlink:href="#DejaVuSans-30" x="147.412109"/>
       <use xlink:href="#DejaVuSans-30" x="211.035156"/>
       <use xlink:href="#DejaVuSans-30" x="274.658203"/>
       <use xlink:href="#DejaVuSans-30" x="338.28125"/>
      </g>
     </g>
    </g>
    <g id="ytick_2">
     <g id="line2d_11">
      <g>
       <use xlink:href="#md5c22bc430" x="47.192188" y="216.568591" style="stroke: #000000; stroke-width: 0.8"/>
      </g>
     </g>
     <g id="text_11">
      <!-- −20000 -->
      <g transform="translate(0 220.36781) scale(0.1 -0.1)">
       <use xlink:href="#DejaVuSans-2212"/>
       <use xlink:href="#DejaVuSans-32" x="83.789062"/>
       <use xlink:href="#DejaVuSans-30" x="147.412109"/>
       <use xlink:href="#DejaVuSans-30" x="211.035156"/>
       <use xlink:href="#DejaVuSans-30" x="274.658203"/>
       <use xlink:href="#DejaVuSans-30" x="338.28125"/>
      </g>
     </g>
    </g>
    <g id="ytick_3">
     <g id="line2d_12">
      <g>
       <use xlink:href="#md5c22bc430" x="47.192188" y="183.265684" style="stroke: #000000; stroke-width: 0.8"/>
      </g>
     </g>
     <g id="text_12">
      <!-- −10000 -->
      <g transform="translate(0 187.064903) scale(0.1 -0.1)">
       <use xlink:href="#DejaVuSans-2212"/>
       <use xlink:href="#DejaVuSans-31" x="83.789062"/>
       <use xlink:href="#DejaVuSans-30" x="147.412109"/>
       <use xlink:href="#DejaVuSans-30" x="211.035156"/>
       <use xlink:href="#DejaVuSans-30" x="274.658203"/>
       <use xlink:href="#DejaVuSans-30" x="338.28125"/>
      </g>
     </g>
    </g>
    <g id="ytick_4">
     <g id="line2d_13">
      <g>
       <use xlink:href="#md5c22bc430" x="47.192188" y="149.962777" style="stroke: #000000; stroke-width: 0.8"/>
      </g>
     </g>
     <g id="text_13">
      <!-- 0 -->
      <g transform="translate(33.829688 153.761995) scale(0.1 -0.1)">
       <use xlink:href="#DejaVuSans-30"/>
      </g>
     </g>
    </g>
    <g id="ytick_5">
     <g id="line2d_14">
      <g>
       <use xlink:href="#md5c22bc430" x="47.192188" y="116.659869" style="stroke: #000000; stroke-width: 0.8"/>
      </g>
     </g>
     <g id="text_14">
      <!-- 10000 -->
      <g transform="translate(8.379688 120.459088) scale(0.1 -0.1)">
       <use xlink:href="#DejaVuSans-31"/>
       <use xlink:href="#DejaVuSans-30" x="63.623047"/>
       <use xlink:href="#DejaVuSans-30" x="127.246094"/>
       <use xlink:href="#DejaVuSans-30" x="190.869141"/>
       <use xlink:href="#DejaVuSans-30" x="254.492188"/>
      </g>
     </g>
    </g>
    <g id="ytick_6">
     <g id="line2d_15">
      <g>
       <use xlink:href="#md5c22bc430" x="47.192188" y="83.356962" style="stroke: #000000; stroke-width: 0.8"/>
      </g>
     </g>
     <g id="text_15">
      <!-- 20000 -->
      <g transform="translate(8.379688 87.156181) scale(0.1 -0.1)">
       <use xlink:href="#DejaVuSans-32"/>
       <use xlink:href="#DejaVuSans-30" x="63.623047"/>
       <use xlink:href="#DejaVuSans-30" x="127.246094"/>
       <use xlink:href="#DejaVuSans-30" x="190.869141"/>
       <use xlink:href="#DejaVuSans-30" x="254.492188"/>
      </g>
     </g>
    </g>
    <g id="ytick_7">
     <g id="line2d_16">
      <g>
       <use xlink:href="#md5c22bc430" x="47.192188" y="50.054055" style="stroke: #000000; stroke-width: 0.8"/>
      </g>
     </g>
     <g id="text_16">
      <!-- 30000 -->
      <g transform="translate(8.379688 53.853274) scale(0.1 -0.1)">
       <use xlink:href="#DejaVuSans-33"/>
       <use xlink:href="#DejaVuSans-30" x="63.623047"/>
       <use xlink:href="#DejaVuSans-30" x="127.246094"/>
       <use xlink:href="#DejaVuSans-30" x="190.869141"/>
       <use xlink:href="#DejaVuSans-30" x="254.492188"/>
      </g>
     </g>
    </g>
    <g id="ytick_8">
     <g id="line2d_17">
      <g>
       <use xlink:href="#md5c22bc430" x="47.192188" y="16.751148" style="stroke: #000000; stroke-width: 0.8"/>
      </g>
     </g>
     <g id="text_17">
      <!-- 40000 -->
      <g transform="translate(8.379688 20.550366) scale(0.1 -0.1)">
       <use xlink:href="#DejaVuSans-34"/>
       <use xlink:href="#DejaVuSans-30" x="63.623047"/>
       <use xlink:href="#DejaVuSans-30" x="127.246094"/>
       <use xlink:href="#DejaVuSans-30" x="190.869141"/>
       <use xlink:href="#DejaVuSans-30" x="254.492188"/>
      </g>
     </g>
    </g>
   </g>
   <g id="line2d_18">
    <path d="M 75.092188 149.973358 
L 76.50199 149.954059 
L 78.475715 149.969703 
L 81.01336 149.9575 
L 84.114926 149.96624 
L 88.626296 149.958205 
L 89.472177 149.962583 
L 89.754138 148.960876 
L 90.036099 149.331527 
L 90.318059 149.900579 
L 90.60002 151.11277 
L 91.163941 155.779767 
L 91.445901 156.356733 
L 91.727862 156.224902 
L 92.855704 158.400306 
L 93.701586 161.929879 
L 93.983547 162.76352 
L 94.265507 162.813391 
L 94.547468 162.176843 
L 94.829429 162.201546 
L 95.111389 161.310595 
L 95.39335 154.317429 
L 95.957271 124.952231 
L 96.239231 119.148208 
L 96.521192 123.150928 
L 97.085113 136.764922 
L 97.367074 140.112259 
L 97.649034 140.97119 
L 98.494916 137.819186 
L 98.776877 138.597141 
L 99.058837 141.508354 
L 99.904719 158.307239 
L 100.18668 157.937843 
L 100.750601 153.085593 
L 101.032561 151.541018 
L 101.314522 151.04069 
L 101.596483 152.04015 
L 101.878443 153.570779 
L 102.442364 155.242906 
L 103.006286 158.958571 
L 103.288246 159.358348 
L 103.570207 158.964335 
L 104.134128 158.995801 
L 104.416088 158.827312 
L 104.698049 159.542774 
L 104.98001 161.09719 
L 105.26197 161.688277 
L 105.543931 161.174799 
L 105.825891 161.417353 
L 106.107852 162.817406 
L 106.389813 163.583629 
L 107.235694 162.221323 
L 107.517655 162.260049 
L 107.799615 162.69169 
L 108.081576 161.530196 
L 108.363537 154.395549 
L 109.209418 116.157156 
L 109.491379 118.259516 
L 110.0553 133.671726 
L 110.337261 137.078262 
L 110.619221 136.715912 
L 111.183143 132.773448 
L 111.465103 131.600148 
L 111.747064 131.779749 
L 112.029024 134.32027 
L 112.592945 147.363845 
L 112.874906 154.353224 
L 113.156867 158.03779 
L 113.438827 157.639696 
L 114.002748 152.677922 
L 114.56667 149.782556 
L 114.84863 148.745307 
L 115.130591 148.846168 
L 115.694512 151.901034 
L 116.258433 154.932694 
L 116.822354 156.643059 
L 117.386275 157.019438 
L 117.950197 157.940086 
L 118.232157 157.805329 
L 118.514118 158.15526 
L 118.796078 160.387909 
L 119.078039 163.532556 
L 119.36 165.078445 
L 119.64196 165.011389 
L 119.923921 165.37003 
L 120.205881 166.395672 
L 120.487842 166.71279 
L 121.051763 166.79651 
L 121.333724 162.558378 
L 121.615684 149.105832 
L 122.179605 114.491141 
L 122.461566 110.915832 
L 123.025487 123.547704 
L 123.307448 128.964645 
L 123.589408 131.597388 
L 123.871369 130.936939 
L 124.43529 125.664129 
L 124.717251 127.050158 
L 125.281172 136.797692 
L 126.127054 157.437654 
L 126.409014 158.036185 
L 127.254896 150.696386 
L 127.536857 149.872438 
L 127.818817 150.404317 
L 128.946659 156.478987 
L 129.22862 157.333202 
L 129.792541 156.331583 
L 130.356462 157.314655 
L 130.920384 156.045708 
L 131.202344 156.051312 
L 131.484305 156.956653 
L 132.048226 159.619245 
L 132.330186 160.301271 
L 132.612147 161.743507 
L 133.176068 167.802165 
L 133.458029 167.780248 
L 133.739989 166.474557 
L 134.02195 166.766899 
L 134.303911 166.063465 
L 134.585871 157.869858 
L 135.149792 124.370947 
L 135.431753 116.016907 
L 135.713714 118.387587 
L 136.277635 133.85639 
L 136.559595 136.150174 
L 136.841556 133.960137 
L 137.123516 130.65337 
L 137.405477 128.736076 
L 137.687438 128.061919 
L 137.969398 128.009238 
L 138.251359 130.382483 
L 138.533319 137.493516 
L 139.097241 154.881067 
L 139.379201 155.597108 
L 139.943122 148.830461 
L 140.225083 147.528601 
L 140.789004 146.462754 
L 141.070965 147.563549 
L 141.916846 154.69134 
L 142.198807 155.119366 
L 143.044689 155.285381 
L 143.326649 155.477998 
L 145.300373 158.138155 
L 146.146255 161.796384 
L 146.428216 162.013845 
L 146.710176 161.714417 
L 147.274098 162.400363 
L 147.556058 158.806392 
L 147.838019 147.411857 
L 148.40194 117.172603 
L 148.6839 113.568936 
L 148.965861 118.696365 
L 149.529782 132.575428 
L 149.811743 135.09486 
L 150.093703 134.681666 
L 150.657625 131.480236 
L 150.939585 131.309252 
L 151.221546 133.646359 
L 151.503506 139.833559 
L 152.067428 156.649617 
L 152.349388 158.954567 
L 152.631349 155.371312 
L 153.19527 145.295018 
L 153.47723 144.970709 
L 153.759191 146.2659 
L 154.041152 146.852118 
L 154.323112 147.941455 
L 155.168994 158.412838 
L 155.450955 158.038555 
L 155.732915 158.536126 
L 156.014876 160.255917 
L 156.296836 160.987769 
L 156.578797 160.676973 
L 156.860757 161.326248 
L 157.142718 162.816292 
L 157.424679 163.354589 
L 157.706639 163.125888 
L 157.9886 163.928306 
L 158.27056 165.503492 
L 158.552521 165.880848 
L 159.116442 163.885159 
L 159.398403 163.972123 
L 159.680363 164.221483 
L 159.962324 164.202216 
L 160.244285 163.441437 
L 160.526245 158.869377 
L 160.808206 146.872981 
L 161.372127 115.068735 
L 161.654087 111.947598 
L 162.499969 135.181731 
L 162.78193 134.671531 
L 163.345851 128.936501 
L 163.627812 127.955673 
L 163.909772 127.558811 
L 164.191733 128.653121 
L 164.473693 133.99244 
L 165.037614 153.823292 
L 165.319575 158.544032 
L 165.601536 157.511766 
L 166.165457 151.72867 
L 166.447417 150.802785 
L 166.729378 151.576573 
L 167.57526 157.562684 
L 168.703102 160.718037 
L 168.985063 161.173265 
L 169.267023 161.351679 
L 169.548984 161.236532 
L 169.830944 161.455388 
L 170.958787 164.47642 
L 171.240747 165.529448 
L 171.804669 165.541461 
L 172.36859 168.855213 
L 172.65055 167.542722 
L 172.932511 164.767115 
L 173.496432 162.987074 
L 173.778393 154.622471 
L 174.624274 105.025914 
L 174.906235 104.388137 
L 175.752117 128.358528 
L 176.034077 128.602985 
L 176.316038 126.543272 
L 176.597999 126.215539 
L 177.44388 130.646865 
L 177.725841 136.418683 
L 178.289762 157.823031 
L 178.571723 161.439971 
L 178.853683 158.303406 
L 179.135644 153.663676 
L 179.417604 150.868534 
L 179.699565 149.413632 
L 179.981526 148.818645 
L 180.263486 149.86847 
L 181.391328 161.338527 
L 181.673289 161.973203 
L 181.95525 162.045641 
L 182.519171 162.816309 
L 182.801131 162.731279 
L 183.083092 162.926071 
L 183.647013 164.332139 
L 183.928974 164.900935 
L 184.210934 166.03926 
L 184.492895 166.58087 
L 185.056816 163.858781 
L 185.338777 164.739076 
L 185.620737 166.143243 
L 186.184658 164.999758 
L 186.466619 165.471003 
L 186.74858 162.070888 
L 187.03054 148.96164 
L 187.594461 110.468281 
L 187.876422 101.612944 
L 188.158383 103.608332 
L 189.004264 128.629349 
L 189.286225 128.872265 
L 189.850146 126.696332 
L 190.132107 125.944909 
L 190.414067 127.578518 
L 190.696028 134.814839 
L 191.259949 157.856324 
L 191.54191 163.86241 
L 191.82387 164.159356 
L 192.669752 155.766383 
L 192.951713 155.09149 
L 193.233673 155.190518 
L 193.515634 155.996781 
L 194.079555 158.645258 
L 194.361515 159.23487 
L 194.925437 159.57904 
L 195.207397 159.577906 
L 195.489358 159.362425 
L 195.771318 159.374787 
L 196.899161 161.499064 
L 197.181121 163.015857 
L 197.745042 167.183534 
L 198.027003 168.546533 
L 198.308964 169.214624 
L 198.590924 168.438517 
L 199.154845 164.257567 
L 199.436806 164.666233 
L 199.718767 163.792385 
L 200.000727 154.969357 
L 200.846609 106.297551 
L 201.12857 107.646237 
L 201.974451 134.959155 
L 202.256412 136.313162 
L 202.820333 134.453091 
L 203.102294 134.227273 
L 203.384254 134.572936 
L 203.666215 138.142361 
L 204.230136 155.732 
L 204.512097 159.533432 
L 204.794057 156.928241 
L 205.076018 152.399668 
L 205.357978 149.698701 
L 205.639939 148.675439 
L 205.921899 148.213536 
L 206.20386 148.773507 
L 206.485821 151.339905 
L 207.049742 158.741407 
L 207.331702 160.379201 
L 207.613663 161.01627 
L 207.895624 162.089169 
L 208.177584 163.62448 
L 208.459545 164.524282 
L 209.023466 164.623607 
L 209.869348 165.635961 
L 210.433269 167.296511 
L 210.715229 166.666615 
L 210.99719 165.452405 
L 211.279151 165.550124 
L 211.561111 166.902661 
L 211.843072 167.444413 
L 212.125032 166.827159 
L 212.406993 166.913041 
L 212.688954 167.120774 
L 212.970914 162.40534 
L 213.252875 148.819613 
L 213.816796 112.059659 
L 214.098756 104.562528 
L 214.380717 108.34463 
L 214.944638 128.133783 
L 215.226599 133.00777 
L 215.508559 133.886128 
L 215.79052 132.607622 
L 216.072481 130.434387 
L 216.354441 129.672492 
L 216.636402 133.252628 
L 217.482284 155.534745 
L 217.764244 157.725572 
L 218.046205 156.521077 
L 218.610126 150.370215 
L 218.892086 149.120823 
L 219.456008 148.660415 
L 219.737968 148.89396 
L 220.019929 150.468789 
L 220.58385 154.626012 
L 220.865811 154.928818 
L 221.147771 154.842198 
L 221.711692 156.142865 
L 222.275613 155.485979 
L 222.839535 157.323612 
L 223.121495 157.28484 
L 223.403456 157.727934 
L 224.249338 165.149034 
L 224.531298 166.126716 
L 224.813259 167.655078 
L 225.095219 168.240639 
L 225.659141 166.471424 
L 225.941101 163.482572 
L 226.223062 152.052171 
L 227.068943 97.023132 
L 227.350904 97.429047 
L 228.196786 129.991465 
L 228.478746 133.035483 
L 229.042668 134.974046 
L 229.324628 134.958829 
L 229.606589 134.789031 
L 229.888549 139.467927 
L 230.45247 159.156066 
L 230.734431 162.191095 
L 231.016392 160.40264 
L 231.580313 156.038096 
L 231.862273 155.437713 
L 232.144234 155.947466 
L 232.708155 157.683169 
L 233.554037 163.365258 
L 233.835998 163.270277 
L 234.117958 163.40163 
L 234.399919 163.752057 
L 234.681879 162.694249 
L 234.96384 160.760169 
L 235.2458 160.362785 
L 235.527761 161.450612 
L 235.809722 161.870121 
L 236.091682 161.695856 
L 236.373643 163.227892 
L 236.937564 169.766378 
L 237.501485 172.723197 
L 238.065406 174.694752 
L 238.629327 176.90447 
L 238.911288 174.382688 
L 239.193249 162.391129 
L 240.03913 97.944882 
L 240.321091 90.562183 
L 240.603052 91.210502 
L 240.885012 97.23709 
L 241.730894 124.178572 
L 242.012855 126.4411 
L 242.294815 127.501656 
L 242.576776 130.078947 
L 242.858736 134.608289 
L 243.422657 150.90651 
L 243.704618 160.270507 
L 243.986579 165.546811 
L 244.268539 165.198013 
L 245.114421 152.481112 
L 245.396382 152.228919 
L 245.960303 155.009085 
L 246.242263 156.006514 
L 246.524224 158.729803 
L 247.088145 165.692798 
L 247.370106 166.333466 
L 247.652066 166.180549 
L 248.215987 166.535239 
L 248.497948 166.389774 
L 249.061869 165.671784 
L 249.34383 166.61234 
L 249.907751 170.587322 
L 250.189712 171.150035 
L 250.471672 172.436097 
L 251.035593 178.28863 
L 251.317554 178.329356 
L 251.599514 177.815878 
L 251.881475 177.810808 
L 252.163436 172.588046 
L 252.445396 155.275138 
L 253.009317 103.092636 
L 253.291278 87.423746 
L 253.573239 81.728235 
L 253.855199 83.443977 
L 254.13716 90.961029 
L 254.983041 120.320959 
L 255.265002 125.978501 
L 256.110884 135.378973 
L 257.238726 164.146343 
L 257.520687 163.046627 
L 258.084608 156.433475 
L 258.366569 155.626696 
L 258.93049 157.25522 
L 259.21245 158.687164 
L 260.058332 165.697474 
L 260.340293 166.075389 
L 260.622253 166.248343 
L 260.904214 166.200078 
L 261.186174 165.914775 
L 261.468135 166.197165 
L 262.032056 168.275182 
L 262.314017 168.271473 
L 262.595977 168.510168 
L 264.287741 177.659526 
L 264.569701 177.512837 
L 264.851662 177.040737 
L 265.133623 175.071302 
L 265.415583 166.013211 
L 265.979504 120.355321 
L 266.261465 98.260751 
L 266.543425 86.129615 
L 266.825386 83.80885 
L 267.107347 88.305188 
L 267.671268 107.794614 
L 268.235189 126.924913 
L 268.51715 132.090048 
L 269.081071 137.964986 
L 269.363031 144.460091 
L 269.926953 164.790584 
L 270.208913 169.096223 
L 270.490874 165.930134 
L 271.054795 155.821125 
L 271.336755 155.356294 
L 271.900677 156.133511 
L 272.182637 157.621782 
L 273.028519 166.469979 
L 273.31048 167.427965 
L 273.59244 167.67974 
L 273.874401 167.504533 
L 274.156361 167.189474 
L 274.438322 167.103727 
L 274.720282 167.274742 
L 275.284204 167.316759 
L 275.566164 168.045287 
L 276.130085 170.918194 
L 276.694007 172.060906 
L 277.257928 174.523216 
L 277.821849 173.706803 
L 278.10381 174.113111 
L 278.38577 170.559044 
L 278.667731 156.8877 
L 279.513612 91.98307 
L 279.795573 82.811136 
L 280.077534 82.143321 
L 280.359494 90.546101 
L 280.923415 119.760267 
L 281.205376 128.493515 
L 281.487337 132.385875 
L 282.051258 136.5886 
L 282.333218 140.996521 
L 282.897139 158.778747 
L 283.1791 162.94132 
L 283.461061 160.508993 
L 283.743021 156.241191 
L 284.024982 153.860982 
L 284.306942 152.841705 
L 284.588903 152.306522 
L 284.870864 153.015156 
L 285.434785 156.120046 
L 285.998706 158.324434 
L 286.562627 160.822982 
L 286.844588 161.386932 
L 287.126548 161.551607 
L 287.408509 161.480934 
L 287.690469 162.001263 
L 287.97243 163.249929 
L 288.254391 163.972087 
L 288.818312 162.977696 
L 289.100272 163.424408 
L 289.664194 165.618964 
L 290.510075 169.960341 
L 291.073996 174.219116 
L 291.355957 170.673251 
L 291.637918 157.482751 
L 292.483799 92.573065 
L 292.76576 81.244181 
L 293.047721 79.347401 
L 293.329681 84.807029 
L 294.457524 124.516441 
L 295.021445 132.536365 
L 296.149287 166.98282 
L 296.431248 165.3108 
L 296.995169 157.470237 
L 297.277129 156.289419 
L 297.841051 158.874254 
L 298.123011 160.239698 
L 298.404972 163.191146 
L 298.968893 170.491215 
L 299.532814 171.47669 
L 299.814775 172.762355 
L 300.096735 173.446958 
L 300.378696 173.135411 
L 300.660656 173.546377 
L 301.788499 180.016582 
L 302.35242 185.049439 
L 302.634381 186.857319 
L 303.198302 192.598467 
L 303.480262 193.387764 
L 303.762223 193.662399 
L 304.044183 195.082984 
L 304.326144 193.408258 
L 304.608105 180.836378 
L 305.735947 76.913126 
L 306.017908 65.529896 
L 306.299868 59.323046 
L 306.581829 57.228499 
L 306.863789 59.135741 
L 307.42771 71.201742 
L 307.991632 86.145726 
L 308.273592 97.065944 
L 308.837513 138.485085 
L 309.119474 160.94033 
L 309.401435 173.170372 
L 309.683395 173.715398 
L 310.247316 166.235862 
L 310.529277 165.647763 
L 310.811238 165.53661 
L 311.093198 165.589238 
L 311.375159 166.835171 
L 312.503001 175.773856 
L 313.348883 181.620602 
L 313.630843 182.297783 
L 313.912804 182.533764 
L 314.194765 182.927646 
L 314.476725 183.718396 
L 314.758686 185.076213 
L 315.322607 189.515073 
L 316.168489 196.333887 
L 316.450449 197.933453 
L 317.01437 199.524932 
L 317.296331 199.771409 
L 317.578292 195.343045 
L 317.860252 179.774921 
L 318.988095 66.551229 
L 319.270055 53.906992 
L 319.552016 48.118805 
L 319.833976 48.802627 
L 320.961819 65.873522 
L 321.243779 73.489648 
L 321.52574 85.005983 
L 321.8077 104.35886 
L 322.371622 160.359541 
L 322.653582 176.328978 
L 322.935543 178.132779 
L 323.217503 174.195494 
L 323.499464 172.082198 
L 323.781424 171.970469 
L 324.063385 171.280382 
L 324.345346 170.137284 
L 324.627306 170.389665 
L 324.909267 172.602939 
L 325.755149 180.885661 
L 326.037109 181.694606 
L 326.60103 181.129979 
L 327.728873 182.874316 
L 328.574754 187.877613 
L 328.856715 190.89783 
L 329.420636 199.581246 
L 329.702597 200.506346 
L 329.984557 200.440584 
L 330.266518 201.474668 
L 330.548479 200.551788 
L 330.830439 190.504195 
L 331.1124 166.98482 
L 331.958281 77.151099 
L 332.522203 49.615952 
L 332.804163 45.527825 
L 333.086124 48.292455 
L 333.932006 65.765971 
L 334.495927 85.699593 
L 334.777887 103.640342 
L 335.341809 160.235803 
L 335.623769 175.337584 
L 335.90573 174.922248 
L 336.18769 170.40294 
L 336.469651 169.408789 
L 336.751611 169.621209 
L 337.033572 168.62671 
L 337.315533 168.772465 
L 339.007296 183.510042 
L 339.289257 183.988436 
L 339.571217 183.693389 
L 339.853178 183.742864 
L 340.135138 184.066364 
L 340.69906 184.10761 
L 340.98102 185.005934 
L 342.390823 194.556162 
L 342.672784 194.351373 
L 342.954744 193.298781 
L 343.236705 193.215094 
L 343.518666 193.795316 
L 343.800626 190.452 
L 344.082587 177.049921 
L 345.49239 55.136488 
L 345.77435 48.523928 
L 346.056311 50.454598 
L 346.620232 58.181016 
L 346.902193 61.787793 
L 347.466114 79.206352 
L 347.748074 91.127107 
L 348.030035 111.691295 
L 348.593956 167.423783 
L 348.875917 176.831811 
L 349.439838 170.364559 
L 349.721798 171.047809 
L 350.003759 172.125543 
L 350.28572 171.839989 
L 350.56768 171.898531 
L 350.849641 173.162187 
L 352.259444 182.026259 
L 352.823365 183.081587 
L 353.105325 183.402304 
L 353.387286 184.114687 
L 353.951207 186.060752 
L 354.233168 186.497707 
L 354.515128 187.640952 
L 355.642971 197.109288 
L 355.924931 198.211039 
L 356.206892 198.364783 
L 356.488852 197.746879 
L 356.770813 195.920223 
L 357.052774 188.626999 
L 357.334734 169.665904 
L 358.462577 58.570459 
L 358.744537 47.8774 
L 359.026498 45.829521 
L 359.87238 59.65409 
L 360.436301 74.029481 
L 360.718261 83.559403 
L 361.000222 99.215958 
L 361.846104 172.944304 
L 362.128064 175.400154 
L 362.691985 166.636612 
L 362.973946 167.101591 
L 363.537867 170.342105 
L 363.819828 170.777038 
L 364.101788 171.698699 
L 364.94767 177.928493 
L 365.511591 180.015763 
L 365.793552 180.154274 
L 366.075512 179.068068 
L 366.357473 179.460321 
L 366.921394 186.086209 
L 367.485315 188.501038 
L 368.895118 200.15755 
L 369.177079 200.763444 
L 369.459039 200.123255 
L 369.741 200.22064 
L 370.022961 197.294489 
L 370.304921 182.671248 
L 371.714724 44.54916 
L 371.996685 39.04064 
L 372.278645 42.427479 
L 372.842566 53.501644 
L 373.406488 61.792401 
L 373.688448 68.988587 
L 373.970409 81.380158 
L 374.53433 133.186577 
L 374.816291 160.299912 
L 375.098251 173.565921 
L 375.380212 173.500233 
L 375.662172 170.306717 
L 375.944133 171.385219 
L 376.226094 175.302979 
L 376.508054 177.501491 
L 377.071975 177.069466 
L 377.353936 179.031624 
L 377.917857 185.03134 
L 379.045699 190.160559 
L 379.609621 191.806924 
L 380.455502 195.858489 
L 381.019423 201.273528 
L 381.583345 207.310599 
L 381.865305 209.534932 
L 382.711187 213.368903 
L 382.993148 210.898706 
L 383.275108 197.834663 
L 383.839029 134.265486 
L 384.402951 62.348859 
L 384.684911 44.45695 
L 384.966872 40.565219 
L 385.248832 42.202172 
L 385.530793 42.58038 
L 385.812753 42.289544 
L 386.094714 43.580758 
L 386.658635 47.213034 
L 386.940596 52.227616 
L 387.222556 64.821216 
L 387.786478 115.804727 
L 388.350399 164.91331 
L 388.632359 172.599471 
L 388.91432 173.455835 
L 389.19628 174.784568 
L 389.760202 181.945745 
L 390.042162 183.887197 
L 390.606083 186.393638 
L 391.170005 190.331098 
L 392.579808 196.43274 
L 393.70765 203.660605 
L 394.271571 209.519136 
L 394.835492 211.647266 
L 395.681374 216.488509 
L 395.963335 216.461816 
L 396.245295 208.883999 
L 396.527256 186.827139 
L 397.655098 53.349756 
L 397.937059 43.367997 
L 398.219019 42.113198 
L 398.78294 44.302634 
L 399.346862 44.763529 
L 399.628822 45.308499 
L 399.910783 47.781589 
L 400.192743 54.591674 
L 400.474704 68.595103 
L 401.602546 161.380321 
L 401.884507 168.593919 
L 403.012349 183.167219 
L 403.57627 187.0668 
L 404.140192 190.095779 
L 404.422152 190.61366 
L 404.704113 190.413902 
L 404.986073 190.812976 
L 405.831955 195.410628 
L 406.113916 196.258957 
L 407.523719 207.021614 
L 408.08764 211.853446 
L 408.3696 213.652449 
L 408.651561 217.501002 
L 408.933522 219.679122 
L 409.215482 211.433938 
L 409.497443 188.178182 
L 410.625285 52.569919 
L 410.907246 42.44078 
L 411.189206 42.165086 
L 411.471167 43.104854 
L 412.035088 40.173142 
L 412.317049 40.026177 
L 412.599009 40.911529 
L 412.88097 43.120208 
L 413.16293 49.368901 
L 413.444891 63.256715 
L 414.572733 151.671191 
L 415.136654 165.461456 
L 415.982536 181.558878 
L 416.264497 184.971029 
L 417.6743 195.166374 
L 419.366063 212.59841 
L 419.929984 222.329415 
L 420.493906 227.970045 
L 421.057827 233.681102 
L 421.339787 235.326781 
L 421.621748 238.140245 
L 421.903708 237.678332 
L 422.185669 223.665442 
L 422.74959 146.71146 
L 423.313511 73.841987 
L 423.595472 59.161799 
L 424.159393 51.291393 
L 425.287236 21.153525 
L 425.569196 19.740916 
L 425.851157 22.579728 
L 426.133117 31.309331 
L 426.697038 68.763375 
L 427.54292 137.447933 
L 428.106841 165.062002 
L 428.388802 171.257836 
L 428.952723 179.177789 
L 429.516644 187.834827 
L 432.05429 211.29778 
L 433.182132 225.164456 
L 434.028014 235.966993 
L 434.591935 240.538158 
L 434.873895 240.317001 
L 435.155856 230.150316 
L 435.437817 203.664877 
L 436.283698 79.090166 
L 436.565659 60.248255 
L 437.12958 42.423866 
L 437.693501 20.049558 
L 437.975462 14.162178 
L 438.257422 12.096 
L 438.539383 12.721727 
L 438.821344 16.176851 
L 439.103304 24.608969 
L 439.385265 41.205893 
L 440.513107 133.43109 
L 441.077028 160.848526 
L 441.64095 174.6465 
L 442.486831 189.346314 
L 443.050752 195.313799 
L 443.332713 196.822603 
L 444.460555 206.450627 
L 444.742516 207.944692 
L 445.306437 212.875461 
L 446.152319 222.660273 
L 446.998201 237.382827 
L 447.280161 237.547796 
L 447.562122 238.468174 
L 447.844082 239.781848 
L 448.126043 233.184791 
L 448.408004 210.07318 
L 449.535846 67.875627 
L 450.663688 26.008644 
L 450.945649 23.121679 
L 451.227609 21.991041 
L 451.50957 21.724107 
L 451.791531 25.785098 
L 452.073491 36.913364 
L 452.637412 77.233727 
L 453.483294 141.539282 
L 454.047215 162.796815 
L 454.893097 180.68584 
L 455.457018 185.833943 
L 456.3029 190.296895 
L 457.430742 196.489063 
L 458.276624 204.31131 
L 459.404466 220.487668 
L 460.250348 229.659037 
L 460.814269 232.879158 
L 461.09623 230.317924 
L 461.378191 214.793177 
L 461.942112 139.018685 
L 462.506033 72.072338 
L 463.069954 46.405196 
L 463.633875 28.974183 
L 463.915836 24.814733 
L 464.197796 23.617273 
L 464.479757 24.193336 
L 464.761718 27.62711 
L 465.043678 37.089961 
L 465.607599 78.456044 
L 466.17152 122.984572 
L 466.735442 148.582893 
L 467.581323 166.10703 
L 468.145245 176.473781 
L 468.427205 178.31988 
L 468.709166 181.010812 
L 469.273087 189.917515 
L 470.400929 198.894407 
L 470.96485 202.219177 
L 471.528772 209.833008 
L 472.938575 228.749091 
L 473.502496 231.847771 
L 473.784456 232.012719 
L 474.066417 224.928617 
L 474.348377 201.182062 
L 475.194259 76.91449 
L 475.75818 44.999271 
L 476.322102 28.85573 
L 476.604062 25.892104 
L 476.886023 24.746618 
L 477.167983 25.754795 
L 477.449944 29.865089 
L 477.731905 36.806629 
L 478.013865 48.107097 
L 478.577786 91.011114 
L 479.141707 131.192003 
L 479.705629 153.539355 
L 480.55151 176.239434 
L 480.833471 181.835631 
L 481.115432 184.500382 
L 482.525234 192.377723 
L 486.190722 241.339008 
L 486.472683 243.795664 
L 486.754643 244.419726 
L 487.036604 234.283261 
L 487.318564 203.626316 
L 488.164446 76.699665 
L 488.728367 49.822916 
L 489.292289 33.442602 
L 489.574249 29.617242 
L 489.85621 28.296816 
L 490.13817 28.491968 
L 490.420131 30.608745 
L 490.702091 35.830522 
L 490.984052 44.954508 
L 491.547973 76.898764 
L 492.111894 117.147763 
L 492.393855 129.117574 
L 494.085619 168.283237 
L 495.213461 200.155714 
L 495.777382 207.888946 
L 496.341303 212.989386 
L 497.469146 220.59099 
L 498.033067 227.358667 
L 498.878948 238.24113 
L 499.160909 239.782559 
L 499.44287 240.497578 
L 499.72483 239.444416 
L 500.006791 228.334384 
L 500.288751 196.579635 
L 500.852673 100.035202 
L 501.134633 71.665556 
L 501.698554 51.040313 
L 502.262476 36.868756 
L 502.544436 34.875544 
L 502.826397 33.856425 
L 503.108357 33.815381 
L 503.390318 36.554857 
L 503.672278 42.529221 
L 503.954239 52.283278 
L 504.51816 87.486491 
L 505.082081 123.111943 
L 505.364042 133.114227 
L 505.927963 142.706395 
L 506.491884 151.054025 
L 507.055805 161.516741 
L 507.619727 177.17473 
L 508.183648 191.085866 
L 508.747569 198.950151 
L 509.875411 219.036112 
L 511.567175 241.080681 
L 512.131096 243.942968 
L 512.413057 247.004218 
L 512.695017 246.968696 
L 512.976978 233.249999 
L 513.258938 197.973869 
L 513.82286 100.650639 
L 514.10482 72.398013 
L 514.668741 52.311014 
L 515.232662 39.223881 
L 515.514623 36.982689 
L 515.796584 36.643069 
L 516.078544 37.901404 
L 516.360505 40.937178 
L 516.642465 46.780899 
L 516.924426 58.914048 
L 518.052268 131.690843 
L 518.334229 137.977185 
L 518.61619 140.490623 
L 518.89815 141.653917 
L 519.180111 144.899235 
L 520.307953 165.661877 
L 520.871874 180.558582 
L 521.717756 193.911955 
L 522.563638 206.635016 
L 523.973441 226.948533 
L 524.255401 230.191327 
L 524.537362 231.297437 
L 525.101283 231.179047 
L 525.383244 231.58904 
L 525.665204 230.266549 
L 525.947165 220.255242 
L 526.229125 192.891566 
L 527.075007 74.99103 
L 527.356968 62.397207 
L 528.48481 39.238228 
L 528.766771 37.266334 
L 529.048731 38.218256 
L 529.330692 42.446799 
L 529.612652 50.084564 
L 529.894613 62.773365 
L 530.740495 119.024579 
L 531.022455 128.173054 
L 531.586376 135.240417 
L 532.150298 142.883621 
L 532.996179 159.051411 
L 533.560101 170.659026 
L 534.124022 178.200499 
L 534.969904 197.79875 
L 536.379706 220.907413 
L 537.507549 242.864725 
L 537.789509 244.783794 
L 538.07147 245.355083 
L 538.353431 245.239058 
L 538.635391 238.195444 
L 538.917352 212.709459 
L 539.763233 87.322316 
L 540.045194 71.982626 
L 540.609115 55.610533 
L 540.891076 50.961643 
L 541.454997 47.9248 
L 541.736958 48.425752 
L 542.018918 52.582803 
L 542.582839 69.848924 
L 543.710682 129.60562 
L 543.992642 136.314764 
L 544.274603 139.331146 
L 544.556563 139.974927 
L 544.838524 141.681384 
L 545.684406 155.039859 
L 545.966366 157.090802 
L 547.94009 183.145918 
L 548.785972 199.669082 
L 549.349893 214.379625 
L 550.477736 246.989262 
L 550.759696 251.683873 
L 551.041657 253.43001 
L 551.323618 254.016 
L 551.605578 245.880095 
L 551.887539 215.751278 
L 552.45146 118.349571 
L 552.73342 90.705847 
L 553.297342 70.78012 
L 553.861263 56.749486 
L 554.143223 53.390777 
L 554.425184 51.84545 
L 554.707145 52.961608 
L 554.989105 56.420329 
L 555.271066 61.455305 
L 555.553026 70.242726 
L 556.680869 124.920105 
L 557.24479 134.552975 
L 557.808711 138.341612 
L 558.372632 149.503299 
L 558.936553 158.22922 
L 559.500475 163.945742 
L 561.192238 185.127535 
L 562.03812 199.460044 
L 563.165962 228.985365 
L 563.729883 242.21871 
L 564.011844 245.806952 
L 564.293804 246.404197 
L 564.575765 235.920474 
L 564.857726 204.746195 
L 565.421647 116.693407 
L 565.703607 93.67119 
L 566.267529 76.069415 
L 566.83145 62.943663 
L 567.11341 60.86806 
L 567.395371 60.545748 
L 567.677332 62.018165 
L 567.959292 65.849953 
L 568.241253 72.626129 
L 568.805174 98.907336 
L 569.369095 129.702522 
L 569.651056 140.101892 
L 569.933016 146.372433 
L 570.214977 148.300916 
L 570.496937 147.343729 
L 570.778898 146.978731 
L 571.060859 149.114695 
L 571.62478 154.363431 
L 572.188701 159.47362 
L 572.470661 161.789449 
L 572.752622 162.580743 
L 573.034583 163.930459 
L 573.880464 175.92679 
L 575.008307 193.90755 
L 576.41811 231.254927 
L 576.70007 237.796907 
L 576.982031 241.002932 
L 577.263991 242.429562 
L 577.545952 234.926583 
L 577.827913 206.623706 
L 578.391834 120.824519 
L 578.673794 98.329738 
L 579.519676 70.697094 
L 579.801637 66.062221 
L 580.083597 64.441485 
L 580.365558 65.194531 
L 580.647518 68.901014 
L 581.21144 80.910753 
L 581.4934 90.838761 
L 582.339282 132.579794 
L 582.621243 137.93627 
L 583.185164 143.625065 
L 584.031046 150.49907 
L 584.594967 156.384227 
L 585.440848 161.529901 
L 586.00477 166.141674 
L 586.28673 166.933915 
L 586.568691 167.353046 
L 586.850651 169.313914 
L 587.414573 178.089084 
L 588.542415 199.35243 
L 589.388297 221.021451 
L 589.952218 226.161875 
L 590.234178 222.548993 
L 590.516139 200.927711 
L 591.08006 122.620555 
L 591.362021 99.359639 
L 591.925942 82.554786 
L 592.489863 69.72107 
L 592.771824 66.297871 
L 593.053784 65.634821 
L 593.335745 68.010219 
L 593.617705 72.359206 
L 593.899666 79.090336 
L 594.181627 91.111314 
L 594.745548 123.960404 
L 595.027508 134.731225 
L 595.309469 141.167265 
L 595.59143 144.778124 
L 595.87339 146.273794 
L 596.155351 148.395054 
L 596.719272 158.591719 
L 597.001232 160.759436 
L 597.283193 161.39517 
L 598.411035 168.264729 
L 598.974957 175.740985 
L 599.538878 181.390325 
L 600.102799 188.15772 
L 600.38476 190.156228 
L 600.66672 193.488749 
L 602.076523 218.196775 
L 602.358484 221.820679 
L 602.640444 221.323299 
L 602.922405 206.965139 
L 603.768287 115.692217 
L 604.050247 103.686561 
L 604.896129 86.565742 
L 605.178089 83.036406 
L 605.46005 81.108531 
L 605.742011 81.544807 
L 606.023971 84.15466 
L 606.305932 87.915853 
L 606.587892 93.583782 
L 607.151814 116.176989 
L 607.715735 142.064736 
L 607.997695 148.066709 
L 608.279656 147.873697 
L 608.561617 145.365522 
L 608.843577 145.332259 
L 609.689459 153.091626 
L 609.971419 155.32621 
L 611.663183 174.195927 
L 612.227104 178.843983 
L 612.509065 179.28108 
L 612.791025 180.715635 
L 613.636907 194.111984 
L 614.482789 210.733016 
L 614.764749 212.587903 
L 615.04671 215.897329 
L 615.328671 217.158812 
L 615.610631 204.350575 
L 616.456513 119.169378 
L 617.020434 100.36447 
L 617.584355 88.669014 
L 617.866316 85.237758 
L 618.148276 84.081436 
L 618.430237 86.073543 
L 619.276119 94.477676 
L 619.558079 101.555682 
L 620.685922 141.931327 
L 620.967882 145.420294 
L 621.531803 147.17996 
L 622.095725 150.191855 
L 622.659646 150.897095 
L 622.941606 152.347979 
L 623.787488 159.147502 
L 624.351409 167.149495 
L 624.915331 175.980455 
L 625.479252 181.592963 
L 626.043173 189.775375 
L 626.607094 193.517277 
L 626.889055 197.358324 
L 627.734936 212.401758 
L 628.016897 213.213144 
L 628.298858 203.209002 
L 629.4267 113.367723 
L 630.272582 93.923183 
L 630.836503 86.77471 
L 631.118463 85.904253 
L 631.400424 87.419767 
L 631.964345 92.767867 
L 632.246306 98.397879 
L 633.092188 133.90787 
L 633.092188 133.90787 
" clip-path="url(#p707e2a559c)" style="fill: none; stroke: #1f77b4; stroke-width: 1.5; stroke-linecap: square"/>
   </g>
   <g id="patch_3">
    <path d="M 47.192188 266.112 
L 47.192188 0 
" style="fill: none; stroke: #000000; stroke-width: 0.8; stroke-linejoin: miter; stroke-linecap: square"/>
   </g>
   <g id="patch_4">
    <path d="M 660.992188 266.112 
L 660.992188 0 
" style="fill: none; stroke: #000000; stroke-width: 0.8; stroke-linejoin: miter; stroke-linecap: square"/>
   </g>
   <g id="patch_5">
    <path d="M 47.192188 266.112 
L 660.992188 266.112 
" style="fill: none; stroke: #000000; stroke-width: 0.8; stroke-linejoin: miter; stroke-linecap: square"/>
   </g>
   <g id="patch_6">
    <path d="M 47.192188 0 
L 660.992188 0 
" style="fill: none; stroke: #000000; stroke-width: 0.8; stroke-linejoin: miter; stroke-linecap: square"/>
   </g>
  </g>
 </g>
 <defs>
  <clipPath id="p707e2a559c">
   <rect x="47.192188" y="0" width="613.8" height="266.112"/>
  </clipPath>
 </defs>
</svg>
