<?xml version="1.0" encoding="utf-8" standalone="no"?>
<!DOCTYPE svg PUBLIC "-//W3C//DTD SVG 1.1//EN"
  "http://www.w3.org/Graphics/SVG/1.1/DTD/svg11.dtd">
<svg xmlns:xlink="http://www.w3.org/1999/xlink" width="660.992188pt" height="282.790125pt" viewBox="0 0 660.992188 282.790125" xmlns="http://www.w3.org/2000/svg" version="1.1">
 <metadata>
  <rdf:RDF xmlns:dc="http://purl.org/dc/elements/1.1/" xmlns:cc="http://creativecommons.org/ns#" xmlns:rdf="http://www.w3.org/1999/02/22-rdf-syntax-ns#">
   <cc:Work>
    <dc:type rdf:resource="http://purl.org/dc/dcmitype/StillImage"/>
    <dc:date>2023-03-06T19:25:49.905971</dc:date>
    <dc:format>image/svg+xml</dc:format>
    <dc:creator>
     <cc:Agent>
      <dc:title>Matplotlib v3.6.3, https://matplotlib.org/</dc:title>
     </cc:Agent>
    </dc:creator>
   </cc:Work>
  </rdf:RDF>
 </metadata>
 <defs>
  <style type="text/css">*{stroke-linejoin: round; stroke-linecap: butt}</style>
 </defs>
 <g id="figure_1">
  <g id="patch_1">
   <path d="M -0 282.790125 
L 660.992188 282.790125 
L 660.992188 0 
L -0 0 
L -0 282.790125 
z
" style="fill: none"/>
  </g>
  <g id="axes_1">
   <g id="patch_2">
    <path d="M 47.192188 266.112 
L 660.992188 266.112 
L 660.992188 0 
L 47.192188 0 
L 47.192188 266.112 
z
" style="fill: none"/>
   </g>
   <g id="matplotlib.axis_1">
    <g id="xtick_1">
     <g id="line2d_1">
      <defs>
       <path id="mdf65c10329" d="M 0 0 
L 0 3.5 
" style="stroke: #000000; stroke-width: 0.8"/>
      </defs>
      <g>
       <use xlink:href="#mdf65c10329" x="75.092188" y="266.112" style="stroke: #000000; stroke-width: 0.8"/>
      </g>
     </g>
     <g id="text_1">
      <!-- 0 -->
      <g transform="translate(71.910938 280.710438) scale(0.1 -0.1)">
       <defs>
        <path id="DejaVuSans-30" d="M 2034 4250 
Q 1547 4250 1301 3770 
Q 1056 3291 1056 2328 
Q 1056 1369 1301 889 
Q 1547 409 2034 409 
Q 2525 409 2770 889 
Q 3016 1369 3016 2328 
Q 3016 3291 2770 3770 
Q 2525 4250 2034 4250 
z
M 2034 4750 
Q 2819 4750 3233 4129 
Q 3647 3509 3647 2328 
Q 3647 1150 3233 529 
Q 2819 -91 2034 -91 
Q 1250 -91 836 529 
Q 422 1150 422 2328 
Q 422 3509 836 4129 
Q 1250 4750 2034 4750 
z
" transform="scale(0.015625)"/>
       </defs>
       <use xlink:href="#DejaVuSans-30"/>
      </g>
     </g>
    </g>
    <g id="xtick_2">
     <g id="line2d_2">
      <g>
       <use xlink:href="#mdf65c10329" x="144.842188" y="266.112" style="stroke: #000000; stroke-width: 0.8"/>
      </g>
     </g>
     <g id="text_2">
      <!-- 500 -->
      <g transform="translate(135.298438 280.710438) scale(0.1 -0.1)">
       <defs>
        <path id="DejaVuSans-35" d="M 691 4666 
L 3169 4666 
L 3169 4134 
L 1269 4134 
L 1269 2991 
Q 1406 3038 1543 3061 
Q 1681 3084 1819 3084 
Q 2600 3084 3056 2656 
Q 3513 2228 3513 1497 
Q 3513 744 3044 326 
Q 2575 -91 1722 -91 
Q 1428 -91 1123 -41 
Q 819 9 494 109 
L 494 744 
Q 775 591 1075 516 
Q 1375 441 1709 441 
Q 2250 441 2565 725 
Q 2881 1009 2881 1497 
Q 2881 1984 2565 2268 
Q 2250 2553 1709 2553 
Q 1456 2553 1204 2497 
Q 953 2441 691 2322 
L 691 4666 
z
" transform="scale(0.015625)"/>
       </defs>
       <use xlink:href="#DejaVuSans-35"/>
       <use xlink:href="#DejaVuSans-30" x="63.623047"/>
       <use xlink:href="#DejaVuSans-30" x="127.246094"/>
      </g>
     </g>
    </g>
    <g id="xtick_3">
     <g id="line2d_3">
      <g>
       <use xlink:href="#mdf65c10329" x="214.592188" y="266.112" style="stroke: #000000; stroke-width: 0.8"/>
      </g>
     </g>
     <g id="text_3">
      <!-- 1000 -->
      <g transform="translate(201.867188 280.710438) scale(0.1 -0.1)">
       <defs>
        <path id="DejaVuSans-31" d="M 794 531 
L 1825 531 
L 1825 4091 
L 703 3866 
L 703 4441 
L 1819 4666 
L 2450 4666 
L 2450 531 
L 3481 531 
L 3481 0 
L 794 0 
L 794 531 
z
" transform="scale(0.015625)"/>
       </defs>
       <use xlink:href="#DejaVuSans-31"/>
       <use xlink:href="#DejaVuSans-30" x="63.623047"/>
       <use xlink:href="#DejaVuSans-30" x="127.246094"/>
       <use xlink:href="#DejaVuSans-30" x="190.869141"/>
      </g>
     </g>
    </g>
    <g id="xtick_4">
     <g id="line2d_4">
      <g>
       <use xlink:href="#mdf65c10329" x="284.342188" y="266.112" style="stroke: #000000; stroke-width: 0.8"/>
      </g>
     </g>
     <g id="text_4">
      <!-- 1500 -->
      <g transform="translate(271.617188 280.710438) scale(0.1 -0.1)">
       <use xlink:href="#DejaVuSans-31"/>
       <use xlink:href="#DejaVuSans-35" x="63.623047"/>
       <use xlink:href="#DejaVuSans-30" x="127.246094"/>
       <use xlink:href="#DejaVuSans-30" x="190.869141"/>
      </g>
     </g>
    </g>
    <g id="xtick_5">
     <g id="line2d_5">
      <g>
       <use xlink:href="#mdf65c10329" x="354.092188" y="266.112" style="stroke: #000000; stroke-width: 0.8"/>
      </g>
     </g>
     <g id="text_5">
      <!-- 2000 -->
      <g transform="translate(341.367188 280.710438) scale(0.1 -0.1)">
       <defs>
        <path id="DejaVuSans-32" d="M 1228 531 
L 3431 531 
L 3431 0 
L 469 0 
L 469 531 
Q 828 903 1448 1529 
Q 2069 2156 2228 2338 
Q 2531 2678 2651 2914 
Q 2772 3150 2772 3378 
Q 2772 3750 2511 3984 
Q 2250 4219 1831 4219 
Q 1534 4219 1204 4116 
Q 875 4013 500 3803 
L 500 4441 
Q 881 4594 1212 4672 
Q 1544 4750 1819 4750 
Q 2544 4750 2975 4387 
Q 3406 4025 3406 3419 
Q 3406 3131 3298 2873 
Q 3191 2616 2906 2266 
Q 2828 2175 2409 1742 
Q 1991 1309 1228 531 
z
" transform="scale(0.015625)"/>
       </defs>
       <use xlink:href="#DejaVuSans-32"/>
       <use xlink:href="#DejaVuSans-30" x="63.623047"/>
       <use xlink:href="#DejaVuSans-30" x="127.246094"/>
       <use xlink:href="#DejaVuSans-30" x="190.869141"/>
      </g>
     </g>
    </g>
    <g id="xtick_6">
     <g id="line2d_6">
      <g>
       <use xlink:href="#mdf65c10329" x="423.842188" y="266.112" style="stroke: #000000; stroke-width: 0.8"/>
      </g>
     </g>
     <g id="text_6">
      <!-- 2500 -->
      <g transform="translate(411.117188 280.710438) scale(0.1 -0.1)">
       <use xlink:href="#DejaVuSans-32"/>
       <use xlink:href="#DejaVuSans-35" x="63.623047"/>
       <use xlink:href="#DejaVuSans-30" x="127.246094"/>
       <use xlink:href="#DejaVuSans-30" x="190.869141"/>
      </g>
     </g>
    </g>
    <g id="xtick_7">
     <g id="line2d_7">
      <g>
       <use xlink:href="#mdf65c10329" x="493.592188" y="266.112" style="stroke: #000000; stroke-width: 0.8"/>
      </g>
     </g>
     <g id="text_7">
      <!-- 3000 -->
      <g transform="translate(480.867188 280.710438) scale(0.1 -0.1)">
       <defs>
        <path id="DejaVuSans-33" d="M 2597 2516 
Q 3050 2419 3304 2112 
Q 3559 1806 3559 1356 
Q 3559 666 3084 287 
Q 2609 -91 1734 -91 
Q 1441 -91 1130 -33 
Q 819 25 488 141 
L 488 750 
Q 750 597 1062 519 
Q 1375 441 1716 441 
Q 2309 441 2620 675 
Q 2931 909 2931 1356 
Q 2931 1769 2642 2001 
Q 2353 2234 1838 2234 
L 1294 2234 
L 1294 2753 
L 1863 2753 
Q 2328 2753 2575 2939 
Q 2822 3125 2822 3475 
Q 2822 3834 2567 4026 
Q 2313 4219 1838 4219 
Q 1578 4219 1281 4162 
Q 984 4106 628 3988 
L 628 4550 
Q 988 4650 1302 4700 
Q 1616 4750 1894 4750 
Q 2613 4750 3031 4423 
Q 3450 4097 3450 3541 
Q 3450 3153 3228 2886 
Q 3006 2619 2597 2516 
z
" transform="scale(0.015625)"/>
       </defs>
       <use xlink:href="#DejaVuSans-33"/>
       <use xlink:href="#DejaVuSans-30" x="63.623047"/>
       <use xlink:href="#DejaVuSans-30" x="127.246094"/>
       <use xlink:href="#DejaVuSans-30" x="190.869141"/>
      </g>
     </g>
    </g>
    <g id="xtick_8">
     <g id="line2d_8">
      <g>
       <use xlink:href="#mdf65c10329" x="563.342188" y="266.112" style="stroke: #000000; stroke-width: 0.8"/>
      </g>
     </g>
     <g id="text_8">
      <!-- 3500 -->
      <g transform="translate(550.617188 280.710438) scale(0.1 -0.1)">
       <use xlink:href="#DejaVuSans-33"/>
       <use xlink:href="#DejaVuSans-35" x="63.623047"/>
       <use xlink:href="#DejaVuSans-30" x="127.246094"/>
       <use xlink:href="#DejaVuSans-30" x="190.869141"/>
      </g>
     </g>
    </g>
    <g id="xtick_9">
     <g id="line2d_9">
      <g>
       <use xlink:href="#mdf65c10329" x="633.092188" y="266.112" style="stroke: #000000; stroke-width: 0.8"/>
      </g>
     </g>
     <g id="text_9">
      <!-- 4000 -->
      <g transform="translate(620.367188 280.710438) scale(0.1 -0.1)">
       <defs>
        <path id="DejaVuSans-34" d="M 2419 4116 
L 825 1625 
L 2419 1625 
L 2419 4116 
z
M 2253 4666 
L 3047 4666 
L 3047 1625 
L 3713 1625 
L 3713 1100 
L 3047 1100 
L 3047 0 
L 2419 0 
L 2419 1100 
L 313 1100 
L 313 1709 
L 2253 4666 
z
" transform="scale(0.015625)"/>
       </defs>
       <use xlink:href="#DejaVuSans-34"/>
       <use xlink:href="#DejaVuSans-30" x="63.623047"/>
       <use xlink:href="#DejaVuSans-30" x="127.246094"/>
       <use xlink:href="#DejaVuSans-30" x="190.869141"/>
      </g>
     </g>
    </g>
   </g>
   <g id="matplotlib.axis_2">
    <g id="ytick_1">
     <g id="line2d_10">
      <defs>
       <path id="md83c3aad36" d="M 0 0 
L -3.5 0 
" style="stroke: #000000; stroke-width: 0.8"/>
      </defs>
      <g>
       <use xlink:href="#md83c3aad36" x="47.192188" y="250.233" style="stroke: #000000; stroke-width: 0.8"/>
      </g>
     </g>
     <g id="text_10">
      <!-- −30000 -->
      <g transform="translate(0 254.032219) scale(0.1 -0.1)">
       <defs>
        <path id="DejaVuSans-2212" d="M 678 2272 
L 4684 2272 
L 4684 1741 
L 678 1741 
L 678 2272 
z
" transform="scale(0.015625)"/>
       </defs>
       <use xlink:href="#DejaVuSans-2212"/>
       <use xlink:href="#DejaVuSans-33" x="83.789062"/>
       <use xlink:href="#DejaVuSans-30" x="147.412109"/>
       <use xlink:href="#DejaVuSans-30" x="211.035156"/>
       <use xlink:href="#DejaVuSans-30" x="274.658203"/>
       <use xlink:href="#DejaVuSans-30" x="338.28125"/>
      </g>
     </g>
    </g>
    <g id="ytick_2">
     <g id="line2d_11">
      <g>
       <use xlink:href="#md83c3aad36" x="47.192188" y="218.289631" style="stroke: #000000; stroke-width: 0.8"/>
      </g>
     </g>
     <g id="text_11">
      <!-- −20000 -->
      <g transform="translate(0 222.08885) scale(0.1 -0.1)">
       <use xlink:href="#DejaVuSans-2212"/>
       <use xlink:href="#DejaVuSans-32" x="83.789062"/>
       <use xlink:href="#DejaVuSans-30" x="147.412109"/>
       <use xlink:href="#DejaVuSans-30" x="211.035156"/>
       <use xlink:href="#DejaVuSans-30" x="274.658203"/>
       <use xlink:href="#DejaVuSans-30" x="338.28125"/>
      </g>
     </g>
    </g>
    <g id="ytick_3">
     <g id="line2d_12">
      <g>
       <use xlink:href="#md83c3aad36" x="47.192188" y="186.346262" style="stroke: #000000; stroke-width: 0.8"/>
      </g>
     </g>
     <g id="text_12">
      <!-- −10000 -->
      <g transform="translate(0 190.145481) scale(0.1 -0.1)">
       <use xlink:href="#DejaVuSans-2212"/>
       <use xlink:href="#DejaVuSans-31" x="83.789062"/>
       <use xlink:href="#DejaVuSans-30" x="147.412109"/>
       <use xlink:href="#DejaVuSans-30" x="211.035156"/>
       <use xlink:href="#DejaVuSans-30" x="274.658203"/>
       <use xlink:href="#DejaVuSans-30" x="338.28125"/>
      </g>
     </g>
    </g>
    <g id="ytick_4">
     <g id="line2d_13">
      <g>
       <use xlink:href="#md83c3aad36" x="47.192188" y="154.402894" style="stroke: #000000; stroke-width: 0.8"/>
      </g>
     </g>
     <g id="text_13">
      <!-- 0 -->
      <g transform="translate(33.829688 158.202112) scale(0.1 -0.1)">
       <use xlink:href="#DejaVuSans-30"/>
      </g>
     </g>
    </g>
    <g id="ytick_5">
     <g id="line2d_14">
      <g>
       <use xlink:href="#md83c3aad36" x="47.192188" y="122.459525" style="stroke: #000000; stroke-width: 0.8"/>
      </g>
     </g>
     <g id="text_14">
      <!-- 10000 -->
      <g transform="translate(8.379688 126.258744) scale(0.1 -0.1)">
       <use xlink:href="#DejaVuSans-31"/>
       <use xlink:href="#DejaVuSans-30" x="63.623047"/>
       <use xlink:href="#DejaVuSans-30" x="127.246094"/>
       <use xlink:href="#DejaVuSans-30" x="190.869141"/>
       <use xlink:href="#DejaVuSans-30" x="254.492188"/>
      </g>
     </g>
    </g>
    <g id="ytick_6">
     <g id="line2d_15">
      <g>
       <use xlink:href="#md83c3aad36" x="47.192188" y="90.516156" style="stroke: #000000; stroke-width: 0.8"/>
      </g>
     </g>
     <g id="text_15">
      <!-- 20000 -->
      <g transform="translate(8.379688 94.315375) scale(0.1 -0.1)">
       <use xlink:href="#DejaVuSans-32"/>
       <use xlink:href="#DejaVuSans-30" x="63.623047"/>
       <use xlink:href="#DejaVuSans-30" x="127.246094"/>
       <use xlink:href="#DejaVuSans-30" x="190.869141"/>
       <use xlink:href="#DejaVuSans-30" x="254.492188"/>
      </g>
     </g>
    </g>
    <g id="ytick_7">
     <g id="line2d_16">
      <g>
       <use xlink:href="#md83c3aad36" x="47.192188" y="58.572787" style="stroke: #000000; stroke-width: 0.8"/>
      </g>
     </g>
     <g id="text_16">
      <!-- 30000 -->
      <g transform="translate(8.379688 62.372006) scale(0.1 -0.1)">
       <use xlink:href="#DejaVuSans-33"/>
       <use xlink:href="#DejaVuSans-30" x="63.623047"/>
       <use xlink:href="#DejaVuSans-30" x="127.246094"/>
       <use xlink:href="#DejaVuSans-30" x="190.869141"/>
       <use xlink:href="#DejaVuSans-30" x="254.492188"/>
      </g>
     </g>
    </g>
    <g id="ytick_8">
     <g id="line2d_17">
      <g>
       <use xlink:href="#md83c3aad36" x="47.192188" y="26.629418" style="stroke: #000000; stroke-width: 0.8"/>
      </g>
     </g>
     <g id="text_17">
      <!-- 40000 -->
      <g transform="translate(8.379688 30.428637) scale(0.1 -0.1)">
       <use xlink:href="#DejaVuSans-34"/>
       <use xlink:href="#DejaVuSans-30" x="63.623047"/>
       <use xlink:href="#DejaVuSans-30" x="127.246094"/>
       <use xlink:href="#DejaVuSans-30" x="190.869141"/>
       <use xlink:href="#DejaVuSans-30" x="254.492188"/>
      </g>
     </g>
    </g>
   </g>
   <g id="line2d_18">
    <path d="M 75.092188 154.369924 
L 75.374148 154.436541 
L 75.656109 154.368556 
L 75.938069 154.437935 
L 76.22003 154.367129 
L 76.50199 154.439401 
L 76.783951 154.365619 
L 77.065912 154.440962 
L 77.347872 154.364002 
L 77.629833 154.442641 
L 77.911793 154.362254 
L 78.193754 154.444463 
L 78.475715 154.360351 
L 78.757675 154.446456 
L 79.039636 154.358261 
L 79.321596 154.448652 
L 79.603557 154.355949 
L 79.885517 154.45109 
L 80.167478 154.353373 
L 80.449439 154.453818 
L 80.731399 154.350479 
L 81.01336 154.456895 
L 81.29532 154.347199 
L 81.577281 154.460398 
L 81.859242 154.343448 
L 82.141202 154.464426 
L 82.423163 154.339112 
L 82.705123 154.469109 
L 82.987084 154.334038 
L 83.269044 154.474626 
L 83.551005 154.328017 
L 83.832966 154.481223 
L 84.114926 154.320755 
L 84.396887 154.489257 
L 84.678847 154.311819 
L 84.960808 154.499257 
L 85.242769 154.300553 
L 85.524729 154.512047 
L 85.80669 154.285907 
L 86.08865 154.528984 
L 86.370611 154.266095 
L 86.652572 154.552468 
L 86.934532 154.237815 
L 87.216493 154.587175 
L 87.498453 154.194227 
L 87.780414 154.643514 
L 88.062374 154.11868 
L 88.344335 154.749802 
L 88.626296 153.959359 
L 88.908256 155.007061 
L 89.190217 153.601555 
L 89.472177 177.077808 
L 89.754138 178.009769 
L 90.88198 125.060263 
L 91.163941 123.932526 
L 91.445901 126.718345 
L 92.291783 130.167879 
L 92.573744 130.197782 
L 93.419626 122.529005 
L 93.701586 122.667425 
L 93.983547 123.65745 
L 94.265507 127.237651 
L 94.547468 133.854572 
L 95.39335 161.832308 
L 95.67531 166.812149 
L 95.957271 167.138909 
L 96.803153 152.869544 
L 97.085113 152.560156 
L 97.367074 153.836435 
L 97.930995 157.764274 
L 98.494916 162.741869 
L 98.776877 164.326088 
L 99.058837 164.686477 
L 99.622758 164.093157 
L 100.18668 165.120769 
L 100.46864 165.160822 
L 100.750601 164.769513 
L 101.032561 164.925283 
L 101.314522 165.445233 
L 101.878443 167.553751 
L 102.160404 167.258085 
L 103.006286 157.104451 
L 103.570207 159.398718 
L 103.852167 158.151417 
L 104.134128 157.520673 
L 104.416088 160.528177 
L 104.698049 164.927003 
L 104.98001 167.260902 
L 105.26197 167.427117 
L 105.543931 168.040879 
L 106.671773 174.850544 
L 107.235694 178.787969 
L 107.799615 180.757591 
L 108.081576 181.23585 
L 108.363537 181.01621 
L 108.645497 177.173028 
L 108.927458 166.476692 
L 109.491379 135.022736 
L 109.77334 127.301048 
L 110.0553 126.38474 
L 110.337261 127.296058 
L 110.619221 127.246454 
L 111.183143 125.54263 
L 111.465103 123.528633 
L 112.310985 114.022397 
L 112.592945 115.3742 
L 113.438827 126.617905 
L 113.720788 133.965788 
L 114.56667 165.293055 
L 114.84863 166.570423 
L 115.130591 163.897866 
L 115.694512 156.433241 
L 115.976472 154.882174 
L 116.258433 155.214365 
L 117.104315 158.032697 
L 117.668236 161.211553 
L 117.950197 162.27446 
L 118.232157 162.651968 
L 118.514118 162.091205 
L 119.078039 158.810483 
L 119.36 158.172173 
L 120.205881 160.182406 
L 120.487842 161.103025 
L 121.051763 164.73426 
L 121.333724 165.576852 
L 121.615684 165.721884 
L 122.179605 166.292601 
L 122.743527 165.695779 
L 123.307448 166.716199 
L 123.589408 166.770451 
L 123.871369 167.496346 
L 124.153329 169.038875 
L 124.43529 169.227457 
L 124.999211 166.278857 
L 125.281172 168.259286 
L 125.845093 174.558829 
L 126.127054 175.58678 
L 126.409014 176.109395 
L 126.972935 177.544491 
L 127.254896 175.514338 
L 127.536857 167.16416 
L 128.382738 124.836503 
L 128.664699 120.853112 
L 128.946659 121.168686 
L 129.792541 128.145905 
L 130.074502 127.023207 
L 130.638423 123.097209 
L 131.202344 122.731493 
L 131.484305 122.714517 
L 131.766265 124.232691 
L 132.048226 129.360161 
L 132.894108 160.084152 
L 133.176068 163.721236 
L 133.458029 162.491226 
L 134.303911 153.926696 
L 134.585871 153.133266 
L 134.867832 153.586173 
L 136.277635 158.199574 
L 137.123516 158.298624 
L 137.405477 158.407459 
L 137.687438 158.3377 
L 137.969398 158.416009 
L 138.533319 159.543161 
L 139.097241 159.979379 
L 139.661162 161.2482 
L 139.943122 161.200026 
L 140.225083 160.841122 
L 140.507043 160.8044 
L 140.789004 161.142111 
L 141.352925 162.439794 
L 141.634886 163.440347 
L 141.916846 165.201896 
L 142.480768 170.491308 
L 142.762728 170.447635 
L 143.044689 168.323308 
L 143.326649 167.447383 
L 143.890571 171.126772 
L 144.172531 171.047902 
L 144.454492 171.389824 
L 144.736452 174.264971 
L 145.018413 175.837629 
L 145.300373 169.550806 
L 146.146255 126.315053 
L 146.428216 123.004891 
L 147.274098 126.871472 
L 147.838019 128.038629 
L 148.119979 126.286951 
L 148.40194 122.740378 
L 148.6839 121.218892 
L 148.965861 123.475879 
L 149.529782 130.422219 
L 149.811743 137.540983 
L 150.375664 160.081529 
L 150.657625 163.25198 
L 151.221546 155.512061 
L 151.785467 149.135978 
L 152.067428 147.041542 
L 152.349388 146.645579 
L 152.631349 148.188178 
L 153.47723 157.587656 
L 153.759191 157.423397 
L 154.041152 157.681309 
L 154.605073 161.899268 
L 154.887033 161.072202 
L 155.168994 159.231469 
L 155.450955 159.056698 
L 156.014876 161.434986 
L 157.142718 164.234099 
L 157.706639 164.547601 
L 157.9886 164.938969 
L 158.27056 165.590305 
L 159.116442 168.306563 
L 159.398403 169.074816 
L 159.680363 171.10626 
L 160.244285 177.036238 
L 160.808206 181.886949 
L 161.372127 188.474491 
L 161.654087 189.417194 
L 161.936048 189.172041 
L 162.218009 186.956819 
L 162.499969 179.140289 
L 163.06389 142.453256 
L 163.345851 124.912362 
L 163.627812 116.987256 
L 163.909772 117.739657 
L 164.191733 121.111237 
L 164.473693 123.08644 
L 164.755654 123.649167 
L 165.037614 122.807731 
L 165.319575 119.587688 
L 165.883496 112.017971 
L 166.165457 111.546697 
L 166.447417 113.104918 
L 166.729378 116.587482 
L 167.011339 122.329708 
L 167.57526 142.542633 
L 168.139181 165.400094 
L 168.421142 167.643617 
L 168.703102 164.385087 
L 169.548984 151.724437 
L 169.830944 150.452635 
L 170.394866 152.127434 
L 170.676826 153.126943 
L 171.522708 160.000899 
L 171.804669 159.820296 
L 172.086629 160.111668 
L 172.36859 161.520597 
L 172.65055 162.232814 
L 173.214471 161.011387 
L 174.906235 166.714925 
L 175.188196 166.793492 
L 175.470156 167.830717 
L 176.034077 170.967406 
L 176.316038 171.617651 
L 176.879959 174.420076 
L 177.44388 177.502216 
L 178.007801 180.555986 
L 178.289762 181.869474 
L 178.853683 185.742272 
L 179.135644 185.448442 
L 179.417604 183.676423 
L 179.699565 180.051923 
L 179.981526 171.291995 
L 180.827407 121.46569 
L 181.109368 115.968352 
L 181.391328 118.923228 
L 181.673289 124.12064 
L 181.95525 126.412725 
L 182.23721 126.120138 
L 182.519171 125.563525 
L 182.801131 123.695061 
L 183.647013 106.761645 
L 183.928974 106.478996 
L 184.210934 108.452664 
L 184.492895 112.533339 
L 184.774856 121.651106 
L 185.620737 164.592249 
L 185.902698 167.643444 
L 186.184658 165.829078 
L 187.312501 154.165669 
L 187.594461 153.809664 
L 187.876422 155.279939 
L 188.722304 161.962434 
L 189.004264 163.302411 
L 189.568185 167.451094 
L 189.850146 168.259767 
L 190.132107 168.024005 
L 190.414067 168.334612 
L 190.696028 169.137617 
L 190.977988 168.835331 
L 191.54191 165.60077 
L 191.82387 165.305767 
L 192.105831 165.94234 
L 193.797594 171.854811 
L 194.361515 173.323561 
L 195.207397 178.966432 
L 195.489358 179.030464 
L 195.771318 180.057223 
L 196.33524 184.356245 
L 196.6172 184.548777 
L 196.899161 184.116477 
L 197.181121 181.27671 
L 197.463082 171.184714 
L 198.308964 122.818298 
L 198.590924 117.573438 
L 198.872885 116.54577 
L 199.154845 118.291451 
L 199.436806 121.317509 
L 199.718767 122.758815 
L 200.000727 121.352695 
L 201.12857 110.269365 
L 201.41053 108.983883 
L 201.692491 110.126331 
L 201.974451 116.570155 
L 203.102294 169.513558 
L 203.384254 168.907777 
L 204.512097 156.044367 
L 204.794057 156.018093 
L 205.076018 156.956453 
L 205.357978 157.468005 
L 205.639939 157.743632 
L 205.921899 158.808979 
L 206.20386 160.411662 
L 206.485821 160.964325 
L 206.767781 160.259834 
L 207.049742 160.116732 
L 207.895624 164.461636 
L 208.177584 164.668243 
L 208.459545 165.455299 
L 209.305427 169.445407 
L 209.587387 171.091559 
L 209.869348 171.527193 
L 210.151308 170.563888 
L 210.433269 170.309131 
L 210.99719 175.125169 
L 211.279151 175.590679 
L 211.843072 172.417635 
L 212.125032 173.283865 
L 212.406993 174.783599 
L 212.970914 175.734471 
L 213.252875 177.003812 
L 213.534835 177.625657 
L 213.816796 176.948538 
L 214.098756 176.573075 
L 214.380717 174.772628 
L 214.662678 165.20346 
L 215.508559 113.698735 
L 215.79052 109.521153 
L 216.072481 109.497568 
L 216.354441 111.779952 
L 216.918362 118.646754 
L 217.200323 119.518901 
L 217.482284 117.958924 
L 218.046205 111.732181 
L 218.328165 111.383623 
L 218.610126 114.411338 
L 218.892086 121.385412 
L 219.737968 162.142686 
L 220.019929 165.278573 
L 221.429732 149.000142 
L 221.711692 148.517562 
L 221.993653 150.690455 
L 222.839535 162.104456 
L 223.121495 162.918617 
L 223.403456 163.051143 
L 223.685416 162.616404 
L 223.967377 161.483771 
L 224.249338 160.82022 
L 224.531298 161.41036 
L 225.095219 163.46057 
L 225.37718 165.745466 
L 225.941101 172.850937 
L 226.223062 174.450011 
L 227.632865 178.551117 
L 228.196786 180.663809 
L 228.478746 182.561671 
L 229.042668 187.775225 
L 229.606589 191.725644 
L 230.17051 197.679972 
L 230.45247 199.632353 
L 230.734431 199.807452 
L 231.016392 195.264052 
L 231.298352 183.011832 
L 232.144234 135.805397 
L 232.708155 125.314121 
L 233.554037 114.657073 
L 234.117958 100.683528 
L 235.2458 68.277912 
L 235.527761 69.972472 
L 235.809722 77.99627 
L 236.091682 94.401908 
L 236.937564 157.07662 
L 237.219525 163.091963 
L 237.501485 164.310017 
L 237.783446 163.372909 
L 238.347367 160.021795 
L 238.629327 160.196442 
L 239.193249 161.114168 
L 239.475209 162.403806 
L 240.03913 166.272693 
L 240.321091 167.15275 
L 240.603052 167.245073 
L 241.448933 165.072035 
L 242.012855 166.660912 
L 242.294815 167.211432 
L 242.576776 168.653099 
L 242.858736 170.791899 
L 243.140697 172.055738 
L 243.422657 172.693939 
L 243.704618 174.799821 
L 244.268539 181.316506 
L 244.83246 183.646954 
L 245.396382 188.291416 
L 245.678342 189.990926 
L 245.960303 193.154343 
L 246.524224 201.092287 
L 246.806184 203.332134 
L 247.652066 213.294729 
L 247.934027 213.273066 
L 248.215987 212.395089 
L 248.497948 207.837419 
L 248.779909 194.038863 
L 249.34383 150.920179 
L 249.62579 137.420675 
L 251.317554 89.198479 
L 252.163436 60.239132 
L 252.445396 55.143816 
L 252.727357 53.097436 
L 253.009317 52.843344 
L 253.291278 56.092408 
L 253.573239 67.270845 
L 254.701081 151.769398 
L 254.983041 158.441324 
L 255.265002 160.619205 
L 255.546963 161.286162 
L 255.828923 161.360056 
L 256.110884 161.198458 
L 256.392844 161.633962 
L 256.956766 164.263765 
L 257.520687 167.300052 
L 257.802647 167.948724 
L 258.366569 167.039029 
L 258.648529 168.004663 
L 258.93049 169.442032 
L 259.494411 171.082918 
L 260.340293 177.926926 
L 260.904214 179.200267 
L 261.468135 181.593021 
L 262.032056 182.272984 
L 262.314017 183.212723 
L 262.877938 186.01774 
L 263.441859 190.690907 
L 264.00578 194.890831 
L 264.287741 196.15506 
L 264.569701 198.638557 
L 265.133623 205.630864 
L 265.979504 212.329466 
L 266.261465 208.958338 
L 266.543425 196.173471 
L 267.389307 138.774269 
L 267.953228 118.694544 
L 269.081071 84.924373 
L 269.644992 72.743127 
L 269.926953 66.19309 
L 270.208913 62.274417 
L 270.490874 60.725221 
L 270.772834 60.834104 
L 271.054795 66.168624 
L 271.336755 81.569807 
L 272.182637 145.762371 
L 272.464598 154.109249 
L 272.746558 157.834291 
L 273.028519 159.197051 
L 273.59244 159.144464 
L 273.874401 160.704468 
L 274.438322 165.967006 
L 274.720282 166.944704 
L 275.002243 167.1394 
L 275.284204 167.724122 
L 275.566164 168.60236 
L 275.848125 168.358369 
L 276.412046 165.255403 
L 276.694007 165.213194 
L 276.975967 165.662156 
L 277.257928 165.682808 
L 277.539888 165.882538 
L 278.10381 167.43559 
L 278.38577 167.477237 
L 278.667731 167.841109 
L 279.513612 171.112205 
L 280.359494 173.723685 
L 280.641455 176.191386 
L 281.205376 184.387142 
L 281.487337 185.624364 
L 281.769297 186.158297 
L 282.051258 189.154991 
L 282.615179 199.035649 
L 284.588903 218.513687 
L 284.870864 217.474273 
L 285.152824 209.066987 
L 285.716745 168.733465 
L 286.280667 131.998729 
L 287.408509 93.792164 
L 287.97243 80.363845 
L 288.536351 63.653593 
L 288.818312 58.773184 
L 289.100272 56.086883 
L 289.382233 55.155435 
L 289.664194 57.693858 
L 289.946154 65.641299 
L 290.228115 80.239209 
L 291.073996 142.869261 
L 291.355957 152.496508 
L 292.483799 167.363282 
L 292.76576 168.295372 
L 293.329681 167.713629 
L 294.175563 169.054165 
L 294.457524 168.998259 
L 295.021445 169.955504 
L 295.303405 169.228523 
L 295.585366 167.864238 
L 295.867326 167.558799 
L 296.431248 168.975177 
L 296.713208 169.190397 
L 297.277129 169.993718 
L 297.55909 169.849393 
L 297.841051 170.136402 
L 298.404972 172.690725 
L 298.686932 172.706626 
L 298.968893 172.918112 
L 299.532814 175.696009 
L 300.096735 176.101924 
L 300.942617 181.061619 
L 302.070459 188.128865 
L 302.916341 194.691045 
L 303.480262 197.870154 
L 303.762223 199.078962 
L 304.044183 199.705133 
L 304.326144 197.266238 
L 304.608105 187.33273 
L 305.735947 119.447776 
L 306.581829 97.19306 
L 306.863789 92.855586 
L 307.42771 88.369178 
L 307.991632 80.461848 
L 308.273592 78.706167 
L 308.555553 78.339853 
L 308.837513 79.897121 
L 309.119474 88.561907 
L 309.965356 148.555598 
L 310.247316 156.95149 
L 310.529277 159.726469 
L 310.811238 159.52288 
L 311.093198 157.632601 
L 311.375159 156.830316 
L 311.93908 161.200502 
L 312.22104 161.356733 
L 312.503001 160.20262 
L 312.784962 159.932593 
L 313.066922 160.948781 
L 313.630843 163.397862 
L 313.912804 163.384791 
L 314.194765 163.763416 
L 314.758686 167.821808 
L 315.040646 167.539273 
L 315.322607 166.28346 
L 315.604567 166.684576 
L 315.886528 167.896853 
L 316.168489 167.845155 
L 316.450449 167.232204 
L 316.73241 167.813518 
L 317.01437 168.934288 
L 317.578292 170.040567 
L 318.142213 172.399468 
L 318.424173 174.086202 
L 318.988095 179.235753 
L 319.552016 182.204538 
L 320.115937 189.965278 
L 320.679858 196.589343 
L 322.371622 213.512903 
L 322.653582 213.099087 
L 322.935543 206.55266 
L 323.499464 168.356097 
L 324.063385 135.341143 
L 325.191227 94.207569 
L 326.60103 69.966518 
L 327.164952 65.179988 
L 327.446912 65.421514 
L 327.728873 70.520566 
L 328.010833 83.016911 
L 328.856715 133.327469 
L 329.420636 148.311884 
L 329.702597 151.417918 
L 331.39436 161.93163 
L 331.958281 164.478124 
L 332.522203 167.552075 
L 333.086124 169.33251 
L 333.650045 172.864985 
L 333.932006 173.340213 
L 334.495927 172.279817 
L 334.777887 173.042417 
L 335.341809 175.527422 
L 336.18769 178.281018 
L 336.469651 177.69186 
L 336.751611 175.864116 
L 337.033572 175.229474 
L 337.597493 178.921064 
L 337.879454 179.449246 
L 338.161414 180.374882 
L 338.443375 183.98375 
L 339.289257 197.842564 
L 341.544941 235.257623 
L 341.826902 234.321732 
L 342.108863 223.480608 
L 343.236705 148.576876 
L 344.082587 111.855841 
L 345.210429 84.813316 
L 346.056311 54.014792 
L 346.620232 30.784602 
L 346.902193 24.980286 
L 347.184153 29.718531 
L 348.030035 76.464109 
L 349.157877 141.345747 
L 349.721798 153.738311 
L 350.003759 156.197478 
L 350.56768 156.749104 
L 351.413562 159.590221 
L 352.259444 171.858949 
L 353.387286 177.632042 
L 354.233168 179.118334 
L 354.515128 179.188997 
L 354.797089 179.645879 
L 355.36101 181.947204 
L 355.924931 184.263587 
L 356.206892 185.043135 
L 356.488852 186.580912 
L 357.334734 194.257788 
L 357.616695 196.08834 
L 359.308458 215.17572 
L 359.87238 224.75225 
L 360.436301 231.887444 
L 360.718261 236.718541 
L 361.000222 238.220735 
L 361.282182 229.959795 
L 362.973946 124.288029 
L 363.819828 97.700299 
L 364.383749 72.983074 
L 365.511591 13.479243 
L 365.793552 12.096 
L 366.075512 18.844206 
L 366.357473 33.297547 
L 367.767276 133.888515 
L 368.331197 154.832886 
L 368.613158 160.994838 
L 368.895118 163.799005 
L 369.177079 164.507199 
L 369.459039 164.664607 
L 369.741 164.630203 
L 370.586882 162.902228 
L 370.868842 162.868573 
L 371.150803 163.293095 
L 371.432764 164.82061 
L 371.996685 168.468623 
L 372.278645 168.780345 
L 372.560606 169.352304 
L 372.842566 171.429908 
L 373.406488 178.026023 
L 373.688448 180.104048 
L 374.252369 182.786804 
L 374.53433 184.508962 
L 374.816291 185.265927 
L 375.098251 184.803681 
L 375.380212 184.668279 
L 375.944133 186.519175 
L 376.226094 186.676399 
L 376.508054 187.456824 
L 376.790015 190.115493 
L 377.917857 204.394965 
L 378.481778 212.226448 
L 379.045699 220.260876 
L 379.32766 222.175708 
L 379.891581 227.503099 
L 380.173542 223.735364 
L 380.455502 209.709835 
L 381.583345 131.347813 
L 382.147266 109.20262 
L 382.711187 96.123811 
L 383.275108 73.665633 
L 384.12099 38.845641 
L 384.402951 33.519724 
L 384.684911 35.820838 
L 384.966872 47.553797 
L 386.376675 130.854957 
L 386.940596 153.24297 
L 387.222556 159.133125 
L 387.504517 161.692938 
L 388.068438 164.338158 
L 388.350399 164.964902 
L 388.632359 163.893807 
L 389.19628 160.583738 
L 389.478241 160.453926 
L 390.324123 163.034664 
L 390.606083 164.053218 
L 391.451965 168.920926 
L 391.733926 169.277246 
L 392.015886 170.266716 
L 392.861768 176.127786 
L 394.553532 195.334175 
L 395.117453 203.844122 
L 395.963335 218.350338 
L 396.527256 226.402323 
L 397.091177 235.72624 
L 397.655098 242.904385 
L 397.937059 243.3862 
L 398.219019 235.150017 
L 398.78294 192.842879 
L 399.346862 148.076741 
L 401.038625 49.027644 
L 401.602546 31.296263 
L 401.884507 27.150284 
L 402.166467 26.279548 
L 402.448428 27.194556 
L 402.730389 29.337205 
L 403.012349 35.972666 
L 403.57627 67.352057 
L 404.140192 97.94079 
L 404.704113 120.866507 
L 405.549994 150.460274 
L 406.113916 167.063205 
L 406.395876 170.744044 
L 406.959797 174.272199 
L 407.523719 178.09297 
L 407.805679 178.671346 
L 408.08764 177.831779 
L 408.3696 178.064608 
L 408.933522 180.98712 
L 409.215482 181.093934 
L 409.497443 182.048258 
L 409.779403 183.71324 
L 410.061364 184.299467 
L 410.343324 184.425442 
L 411.753127 190.930292 
L 412.317049 194.227287 
L 412.599009 196.041526 
L 413.726851 209.954671 
L 414.572733 225.624479 
L 415.418615 242.825567 
L 415.982536 249.963001 
L 416.264497 248.293505 
L 416.546457 238.667511 
L 417.110379 193.441245 
L 417.95626 120.038237 
L 418.520181 78.191231 
L 418.802142 64.361436 
L 419.366063 50.164522 
L 419.929984 40.692966 
L 420.211945 39.31373 
L 420.493906 39.183126 
L 420.775866 40.74957 
L 421.057827 44.3786 
L 421.339787 49.541312 
L 421.621748 57.676392 
L 423.031551 117.252548 
L 423.595472 128.246561 
L 425.569196 149.392174 
L 425.851157 154.394365 
L 426.978999 181.599732 
L 427.54292 191.338038 
L 427.824881 194.070586 
L 428.106841 194.049936 
L 428.670763 192.034747 
L 429.234684 191.900507 
L 429.516644 192.362202 
L 430.644487 198.019806 
L 431.208408 201.540019 
L 431.490368 202.893592 
L 431.772329 205.303203 
L 432.900171 219.903308 
L 433.464093 228.949246 
L 434.028014 234.165938 
L 434.591935 241.357033 
L 434.873895 240.397059 
L 435.155856 232.031355 
L 435.437817 212.994626 
L 436.565659 111.192886 
L 437.12958 77.653961 
L 437.411541 68.940086 
L 438.257422 54.855147 
L 438.539383 52.513601 
L 438.821344 52.814688 
L 439.667225 57.201947 
L 439.949186 63.732844 
L 441.077028 111.397907 
L 441.64095 122.996493 
L 442.204871 130.127314 
L 442.768792 135.794599 
L 444.178595 147.426446 
L 445.024477 159.40443 
L 446.71624 191.816055 
L 446.998201 193.983012 
L 447.280161 194.121613 
L 447.562122 193.321186 
L 448.126043 190.04443 
L 448.408004 189.883422 
L 449.253885 193.797389 
L 449.535846 196.963185 
L 450.099767 205.562504 
L 451.50957 222.900611 
L 452.073491 233.90646 
L 452.637412 239.559582 
L 452.919373 239.883215 
L 453.201334 232.351406 
L 453.483294 211.693447 
L 454.329176 117.498329 
L 454.893097 84.903306 
L 455.175058 76.635125 
L 455.738979 68.327057 
L 456.3029 63.562651 
L 456.584861 62.541447 
L 456.866821 63.191633 
L 457.148782 65.81395 
L 457.712703 73.750902 
L 457.994663 80.481503 
L 458.840545 113.710604 
L 459.122506 117.9926 
L 460.814269 133.429176 
L 461.378191 136.014094 
L 462.224072 141.39174 
L 465.043678 184.568437 
L 465.325639 189.346174 
L 466.17152 212.527079 
L 466.453481 214.875596 
L 467.017402 217.372186 
L 467.581323 220.479371 
L 468.145245 223.158283 
L 468.427205 225.758961 
L 469.273087 240.328337 
L 470.118969 254.016 
L 470.400929 253.595211 
L 470.68289 247.177328 
L 470.96485 230.140726 
L 472.092693 108.724689 
L 472.656614 90.560588 
L 473.502496 73.898739 
L 473.784456 69.970197 
L 474.066417 68.146236 
L 474.348377 68.285193 
L 474.630338 69.648171 
L 475.194259 74.275057 
L 475.47622 77.732741 
L 475.75818 83.726861 
L 476.604062 108.455056 
L 476.886023 112.447856 
L 477.167983 114.345848 
L 478.295826 117.273129 
L 478.577786 117.144996 
L 478.859747 118.297153 
L 479.423668 122.923635 
L 479.705629 124.729492 
L 479.987589 128.414954 
L 480.55151 139.088411 
L 481.115432 146.547728 
L 481.961313 161.020827 
L 482.525234 171.153829 
L 483.089156 180.053803 
L 483.653077 188.459969 
L 484.498959 202.36646 
L 485.06288 209.884469 
L 485.626801 216.097872 
L 487.882486 249.290711 
L 488.446407 251.567934 
L 488.728367 253.645204 
L 489.010328 251.150706 
L 489.292289 235.557973 
L 490.420131 121.766548 
L 490.984052 100.281563 
L 492.111894 77.799422 
L 492.393855 73.793365 
L 492.675816 72.969696 
L 493.239737 74.271766 
L 493.521697 75.702284 
L 493.803658 79.351282 
L 494.085619 86.154884 
L 494.9315 114.498116 
L 495.213461 118.622843 
L 495.495421 119.959263 
L 495.777382 120.355625 
L 496.059343 121.06779 
L 496.341303 122.48935 
L 496.905224 126.316813 
L 497.187185 127.32147 
L 497.469146 127.808644 
L 497.751106 128.630047 
L 498.315027 131.811369 
L 499.160909 137.904915 
L 499.72483 143.951484 
L 501.980515 175.556761 
L 502.826397 185.287342 
L 503.390318 194.895529 
L 504.800121 220.775461 
L 506.773845 250.271003 
L 507.055805 251.73148 
L 507.337766 247.098977 
L 507.619727 230.043616 
L 508.747569 116.753232 
L 509.31149 102.832803 
L 510.157372 90.017706 
L 510.439333 84.88245 
L 510.721293 82.338418 
L 511.003254 82.346194 
L 511.567175 83.009439 
L 511.849135 86.32823 
L 512.976978 117.153419 
L 513.540899 121.713524 
L 513.82286 122.933001 
L 514.10482 123.368577 
L 514.386781 124.738348 
L 514.668741 127.114768 
L 514.950702 128.193623 
L 515.232662 128.081286 
L 515.514623 129.655991 
L 516.078544 136.36732 
L 516.642465 137.63051 
L 517.488347 145.661861 
L 518.052268 152.364134 
L 518.89815 164.361308 
L 519.462071 167.637553 
L 520.307953 177.628091 
L 520.589914 179.531006 
L 522.281677 206.535543 
L 522.845598 211.321626 
L 523.973441 230.77553 
L 524.255401 234.991551 
L 524.537362 234.096003 
L 524.819322 221.588162 
L 525.947165 130.801102 
L 526.511086 119.818772 
L 527.075007 109.131768 
L 527.638928 103.304667 
L 527.920889 100.657008 
L 528.202849 99.457061 
L 528.48481 101.470608 
L 528.766771 104.790918 
L 529.048731 105.860277 
L 529.330692 105.884989 
L 529.612652 109.915783 
L 530.176574 126.981211 
L 530.458534 128.537343 
L 530.740495 126.033383 
L 531.022455 125.257579 
L 531.586376 128.994343 
L 531.868337 129.980602 
L 532.150298 132.187614 
L 532.714219 138.49758 
L 533.27814 140.543019 
L 534.405982 147.456874 
L 537.507549 182.012547 
L 538.353431 188.81027 
L 538.635391 189.300855 
L 538.917352 191.18006 
L 540.891076 229.899599 
L 541.173036 225.747328 
L 541.736958 186.22703 
L 542.018918 167.740719 
L 542.582839 150.129769 
L 543.992642 122.886327 
L 545.120485 107.002013 
L 545.402445 106.660036 
L 546.248327 110.490496 
L 546.530288 114.438226 
L 547.094209 124.654559 
L 547.376169 125.033099 
L 547.65813 123.120601 
L 547.94009 122.583968 
L 548.504012 126.097225 
L 548.785972 126.539793 
L 549.067933 127.40762 
L 549.349893 130.568613 
L 549.913815 139.278443 
L 550.477736 147.127788 
L 551.041657 157.537109 
L 552.169499 170.132266 
L 552.45146 170.860526 
L 552.73342 170.306537 
L 553.015381 170.989293 
L 553.297342 172.688453 
L 553.579302 173.336022 
L 553.861263 172.920075 
L 554.143223 174.221503 
L 554.707145 184.611912 
L 555.553026 198.841608 
L 556.116947 206.613006 
L 556.962829 215.813686 
L 557.24479 212.812075 
L 557.52675 201.13255 
L 558.090672 168.308913 
L 558.654593 151.145421 
L 559.782435 128.784635 
L 560.346356 116.863455 
L 560.628317 113.667098 
L 561.756159 107.114675 
L 562.03812 107.643692 
L 562.32008 111.145225 
L 563.165962 129.024936 
L 563.447923 130.601395 
L 564.011844 130.123829 
L 564.293804 131.343346 
L 565.421647 141.713976 
L 565.985568 145.636694 
L 567.11341 155.426602 
L 567.677332 160.662668 
L 568.241253 164.191537 
L 569.369095 176.279498 
L 569.651056 177.988363 
L 569.933016 180.739721 
L 570.496937 187.726398 
L 570.778898 187.732378 
L 571.060859 186.735061 
L 571.342819 188.646362 
L 571.90674 196.329083 
L 572.470661 200.019522 
L 572.752622 199.909907 
L 573.034583 192.507433 
L 573.598504 166.872736 
L 574.162425 154.742673 
L 575.008307 141.442386 
L 575.572228 130.950518 
L 576.136149 125.281031 
L 576.70007 119.17617 
L 576.982031 115.998844 
L 577.263991 115.643098 
L 577.545952 118.588098 
L 578.109873 125.914509 
L 578.673794 130.140699 
L 578.955755 131.054298 
L 579.237716 131.484404 
L 580.083597 135.847479 
L 580.365558 136.335182 
L 580.647518 138.667636 
L 581.21144 145.906208 
L 581.775361 149.83347 
L 582.339282 156.439503 
L 582.903203 157.912487 
L 583.749085 165.784823 
L 584.031046 166.700426 
L 584.313006 168.554683 
L 584.594967 171.199595 
L 584.876927 172.542905 
L 585.158888 172.656007 
L 585.440848 173.532663 
L 586.00477 177.569146 
L 586.28673 178.830479 
L 586.568691 181.141308 
L 587.132612 187.490485 
L 587.696533 191.902596 
L 588.542415 200.577993 
L 588.824375 200.789216 
L 589.106336 194.440828 
L 589.952218 157.896557 
L 590.7981 147.505107 
L 591.925942 124.539627 
L 592.489863 116.199493 
L 592.771824 114.910614 
L 593.053784 115.845027 
L 593.335745 117.498604 
L 593.617705 120.553566 
L 594.181627 130.820861 
L 594.463587 133.516026 
L 594.745548 133.97949 
L 595.309469 132.776432 
L 595.59143 133.713898 
L 596.437311 142.901948 
L 596.719272 143.521145 
L 597.565154 146.473632 
L 598.692996 151.892782 
L 599.538878 157.14096 
L 600.102799 161.678881 
L 600.38476 164.068291 
L 600.948681 167.005117 
L 601.512602 171.880795 
L 601.794562 172.675696 
L 602.076523 172.890433 
L 602.358484 174.126786 
L 604.332208 191.692693 
L 604.896129 197.879429 
L 605.178089 199.880158 
L 605.46005 198.970099 
L 605.742011 191.691973 
L 606.305932 166.038218 
L 606.869853 153.308503 
L 608.561617 121.338689 
L 608.843577 118.457795 
L 609.125538 117.898199 
L 609.407498 118.422681 
L 609.689459 118.07406 
L 609.971419 118.547718 
L 610.25338 123.202894 
L 610.817301 137.434278 
L 611.099262 138.483944 
L 611.381222 137.142794 
L 611.663183 137.144843 
L 612.227104 140.740859 
L 612.509065 142.598894 
L 612.791025 143.712054 
L 613.072986 143.281176 
L 613.354946 142.269025 
L 613.636907 142.212743 
L 614.764749 147.246598 
L 615.610631 155.443243 
L 616.174552 156.89705 
L 617.020434 161.002943 
L 617.302395 160.202836 
L 617.584355 160.165252 
L 618.430237 167.942211 
L 618.712198 167.857571 
L 618.994158 169.587998 
L 619.84004 182.942522 
L 620.122001 184.67488 
L 621.249843 195.0011 
L 621.531803 196.532146 
L 621.813764 193.44382 
L 622.941606 159.968441 
L 624.351409 135.178179 
L 624.915331 126.5305 
L 625.197291 124.526117 
L 625.761212 123.390629 
L 626.043173 122.464405 
L 626.325133 123.259088 
L 627.171015 133.502724 
L 627.452976 132.779716 
L 627.734936 131.320195 
L 628.016897 131.461033 
L 629.144739 137.559378 
L 629.70866 144.335154 
L 629.990621 145.828186 
L 630.272582 146.219308 
L 630.554542 147.007307 
L 631.118463 149.67516 
L 631.400424 150.796405 
L 631.682385 152.925615 
L 632.246306 159.061598 
L 632.810227 162.201741 
L 633.092188 162.642241 
L 633.092188 162.642241 
" clip-path="url(#p4d7216a82d)" style="fill: none; stroke: #1f77b4; stroke-width: 1.5; stroke-linecap: square"/>
   </g>
   <g id="patch_3">
    <path d="M 47.192188 266.112 
L 47.192188 0 
" style="fill: none; stroke: #000000; stroke-width: 0.8; stroke-linejoin: miter; stroke-linecap: square"/>
   </g>
   <g id="patch_4">
    <path d="M 660.992188 266.112 
L 660.992188 0 
" style="fill: none; stroke: #000000; stroke-width: 0.8; stroke-linejoin: miter; stroke-linecap: square"/>
   </g>
   <g id="patch_5">
    <path d="M 47.192188 266.112 
L 660.992188 266.112 
" style="fill: none; stroke: #000000; stroke-width: 0.8; stroke-linejoin: miter; stroke-linecap: square"/>
   </g>
   <g id="patch_6">
    <path d="M 47.192188 0 
L 660.992188 0 
" style="fill: none; stroke: #000000; stroke-width: 0.8; stroke-linejoin: miter; stroke-linecap: square"/>
   </g>
  </g>
 </g>
 <defs>
  <clipPath id="p4d7216a82d">
   <rect x="47.192188" y="0" width="613.8" height="266.112"/>
  </clipPath>
 </defs>
</svg>
