<?xml version="1.0" encoding="utf-8" standalone="no"?>
<!DOCTYPE svg PUBLIC "-//W3C//DTD SVG 1.1//EN"
  "http://www.w3.org/Graphics/SVG/1.1/DTD/svg11.dtd">
<svg xmlns:xlink="http://www.w3.org/1999/xlink" width="660.992188pt" height="282.790125pt" viewBox="0 0 660.992188 282.790125" xmlns="http://www.w3.org/2000/svg" version="1.1">
 <metadata>
  <rdf:RDF xmlns:dc="http://purl.org/dc/elements/1.1/" xmlns:cc="http://creativecommons.org/ns#" xmlns:rdf="http://www.w3.org/1999/02/22-rdf-syntax-ns#">
   <cc:Work>
    <dc:type rdf:resource="http://purl.org/dc/dcmitype/StillImage"/>
    <dc:date>2023-03-06T19:25:42.403112</dc:date>
    <dc:format>image/svg+xml</dc:format>
    <dc:creator>
     <cc:Agent>
      <dc:title>Matplotlib v3.6.3, https://matplotlib.org/</dc:title>
     </cc:Agent>
    </dc:creator>
   </cc:Work>
  </rdf:RDF>
 </metadata>
 <defs>
  <style type="text/css">*{stroke-linejoin: round; stroke-linecap: butt}</style>
 </defs>
 <g id="figure_1">
  <g id="patch_1">
   <path d="M -0 282.790125 
L 660.992188 282.790125 
L 660.992188 0 
L -0 0 
L -0 282.790125 
z
" style="fill: none"/>
  </g>
  <g id="axes_1">
   <g id="patch_2">
    <path d="M 47.192188 266.112 
L 660.992188 266.112 
L 660.992188 0 
L 47.192188 0 
L 47.192188 266.112 
z
" style="fill: none"/>
   </g>
   <g id="matplotlib.axis_1">
    <g id="xtick_1">
     <g id="line2d_1">
      <defs>
       <path id="m46c4146ec4" d="M 0 0 
L 0 3.5 
" style="stroke: #000000; stroke-width: 0.8"/>
      </defs>
      <g>
       <use xlink:href="#m46c4146ec4" x="75.092188" y="266.112" style="stroke: #000000; stroke-width: 0.8"/>
      </g>
     </g>
     <g id="text_1">
      <!-- 0 -->
      <g transform="translate(71.910938 280.710438) scale(0.1 -0.1)">
       <defs>
        <path id="DejaVuSans-30" d="M 2034 4250 
Q 1547 4250 1301 3770 
Q 1056 3291 1056 2328 
Q 1056 1369 1301 889 
Q 1547 409 2034 409 
Q 2525 409 2770 889 
Q 3016 1369 3016 2328 
Q 3016 3291 2770 3770 
Q 2525 4250 2034 4250 
z
M 2034 4750 
Q 2819 4750 3233 4129 
Q 3647 3509 3647 2328 
Q 3647 1150 3233 529 
Q 2819 -91 2034 -91 
Q 1250 -91 836 529 
Q 422 1150 422 2328 
Q 422 3509 836 4129 
Q 1250 4750 2034 4750 
z
" transform="scale(0.015625)"/>
       </defs>
       <use xlink:href="#DejaVuSans-30"/>
      </g>
     </g>
    </g>
    <g id="xtick_2">
     <g id="line2d_2">
      <g>
       <use xlink:href="#m46c4146ec4" x="144.842188" y="266.112" style="stroke: #000000; stroke-width: 0.8"/>
      </g>
     </g>
     <g id="text_2">
      <!-- 500 -->
      <g transform="translate(135.298438 280.710438) scale(0.1 -0.1)">
       <defs>
        <path id="DejaVuSans-35" d="M 691 4666 
L 3169 4666 
L 3169 4134 
L 1269 4134 
L 1269 2991 
Q 1406 3038 1543 3061 
Q 1681 3084 1819 3084 
Q 2600 3084 3056 2656 
Q 3513 2228 3513 1497 
Q 3513 744 3044 326 
Q 2575 -91 1722 -91 
Q 1428 -91 1123 -41 
Q 819 9 494 109 
L 494 744 
Q 775 591 1075 516 
Q 1375 441 1709 441 
Q 2250 441 2565 725 
Q 2881 1009 2881 1497 
Q 2881 1984 2565 2268 
Q 2250 2553 1709 2553 
Q 1456 2553 1204 2497 
Q 953 2441 691 2322 
L 691 4666 
z
" transform="scale(0.015625)"/>
       </defs>
       <use xlink:href="#DejaVuSans-35"/>
       <use xlink:href="#DejaVuSans-30" x="63.623047"/>
       <use xlink:href="#DejaVuSans-30" x="127.246094"/>
      </g>
     </g>
    </g>
    <g id="xtick_3">
     <g id="line2d_3">
      <g>
       <use xlink:href="#m46c4146ec4" x="214.592188" y="266.112" style="stroke: #000000; stroke-width: 0.8"/>
      </g>
     </g>
     <g id="text_3">
      <!-- 1000 -->
      <g transform="translate(201.867188 280.710438) scale(0.1 -0.1)">
       <defs>
        <path id="DejaVuSans-31" d="M 794 531 
L 1825 531 
L 1825 4091 
L 703 3866 
L 703 4441 
L 1819 4666 
L 2450 4666 
L 2450 531 
L 3481 531 
L 3481 0 
L 794 0 
L 794 531 
z
" transform="scale(0.015625)"/>
       </defs>
       <use xlink:href="#DejaVuSans-31"/>
       <use xlink:href="#DejaVuSans-30" x="63.623047"/>
       <use xlink:href="#DejaVuSans-30" x="127.246094"/>
       <use xlink:href="#DejaVuSans-30" x="190.869141"/>
      </g>
     </g>
    </g>
    <g id="xtick_4">
     <g id="line2d_4">
      <g>
       <use xlink:href="#m46c4146ec4" x="284.342188" y="266.112" style="stroke: #000000; stroke-width: 0.8"/>
      </g>
     </g>
     <g id="text_4">
      <!-- 1500 -->
      <g transform="translate(271.617188 280.710438) scale(0.1 -0.1)">
       <use xlink:href="#DejaVuSans-31"/>
       <use xlink:href="#DejaVuSans-35" x="63.623047"/>
       <use xlink:href="#DejaVuSans-30" x="127.246094"/>
       <use xlink:href="#DejaVuSans-30" x="190.869141"/>
      </g>
     </g>
    </g>
    <g id="xtick_5">
     <g id="line2d_5">
      <g>
       <use xlink:href="#m46c4146ec4" x="354.092188" y="266.112" style="stroke: #000000; stroke-width: 0.8"/>
      </g>
     </g>
     <g id="text_5">
      <!-- 2000 -->
      <g transform="translate(341.367188 280.710438) scale(0.1 -0.1)">
       <defs>
        <path id="DejaVuSans-32" d="M 1228 531 
L 3431 531 
L 3431 0 
L 469 0 
L 469 531 
Q 828 903 1448 1529 
Q 2069 2156 2228 2338 
Q 2531 2678 2651 2914 
Q 2772 3150 2772 3378 
Q 2772 3750 2511 3984 
Q 2250 4219 1831 4219 
Q 1534 4219 1204 4116 
Q 875 4013 500 3803 
L 500 4441 
Q 881 4594 1212 4672 
Q 1544 4750 1819 4750 
Q 2544 4750 2975 4387 
Q 3406 4025 3406 3419 
Q 3406 3131 3298 2873 
Q 3191 2616 2906 2266 
Q 2828 2175 2409 1742 
Q 1991 1309 1228 531 
z
" transform="scale(0.015625)"/>
       </defs>
       <use xlink:href="#DejaVuSans-32"/>
       <use xlink:href="#DejaVuSans-30" x="63.623047"/>
       <use xlink:href="#DejaVuSans-30" x="127.246094"/>
       <use xlink:href="#DejaVuSans-30" x="190.869141"/>
      </g>
     </g>
    </g>
    <g id="xtick_6">
     <g id="line2d_6">
      <g>
       <use xlink:href="#m46c4146ec4" x="423.842188" y="266.112" style="stroke: #000000; stroke-width: 0.8"/>
      </g>
     </g>
     <g id="text_6">
      <!-- 2500 -->
      <g transform="translate(411.117188 280.710438) scale(0.1 -0.1)">
       <use xlink:href="#DejaVuSans-32"/>
       <use xlink:href="#DejaVuSans-35" x="63.623047"/>
       <use xlink:href="#DejaVuSans-30" x="127.246094"/>
       <use xlink:href="#DejaVuSans-30" x="190.869141"/>
      </g>
     </g>
    </g>
    <g id="xtick_7">
     <g id="line2d_7">
      <g>
       <use xlink:href="#m46c4146ec4" x="493.592188" y="266.112" style="stroke: #000000; stroke-width: 0.8"/>
      </g>
     </g>
     <g id="text_7">
      <!-- 3000 -->
      <g transform="translate(480.867188 280.710438) scale(0.1 -0.1)">
       <defs>
        <path id="DejaVuSans-33" d="M 2597 2516 
Q 3050 2419 3304 2112 
Q 3559 1806 3559 1356 
Q 3559 666 3084 287 
Q 2609 -91 1734 -91 
Q 1441 -91 1130 -33 
Q 819 25 488 141 
L 488 750 
Q 750 597 1062 519 
Q 1375 441 1716 441 
Q 2309 441 2620 675 
Q 2931 909 2931 1356 
Q 2931 1769 2642 2001 
Q 2353 2234 1838 2234 
L 1294 2234 
L 1294 2753 
L 1863 2753 
Q 2328 2753 2575 2939 
Q 2822 3125 2822 3475 
Q 2822 3834 2567 4026 
Q 2313 4219 1838 4219 
Q 1578 4219 1281 4162 
Q 984 4106 628 3988 
L 628 4550 
Q 988 4650 1302 4700 
Q 1616 4750 1894 4750 
Q 2613 4750 3031 4423 
Q 3450 4097 3450 3541 
Q 3450 3153 3228 2886 
Q 3006 2619 2597 2516 
z
" transform="scale(0.015625)"/>
       </defs>
       <use xlink:href="#DejaVuSans-33"/>
       <use xlink:href="#DejaVuSans-30" x="63.623047"/>
       <use xlink:href="#DejaVuSans-30" x="127.246094"/>
       <use xlink:href="#DejaVuSans-30" x="190.869141"/>
      </g>
     </g>
    </g>
    <g id="xtick_8">
     <g id="line2d_8">
      <g>
       <use xlink:href="#m46c4146ec4" x="563.342188" y="266.112" style="stroke: #000000; stroke-width: 0.8"/>
      </g>
     </g>
     <g id="text_8">
      <!-- 3500 -->
      <g transform="translate(550.617188 280.710438) scale(0.1 -0.1)">
       <use xlink:href="#DejaVuSans-33"/>
       <use xlink:href="#DejaVuSans-35" x="63.623047"/>
       <use xlink:href="#DejaVuSans-30" x="127.246094"/>
       <use xlink:href="#DejaVuSans-30" x="190.869141"/>
      </g>
     </g>
    </g>
    <g id="xtick_9">
     <g id="line2d_9">
      <g>
       <use xlink:href="#m46c4146ec4" x="633.092188" y="266.112" style="stroke: #000000; stroke-width: 0.8"/>
      </g>
     </g>
     <g id="text_9">
      <!-- 4000 -->
      <g transform="translate(620.367188 280.710438) scale(0.1 -0.1)">
       <defs>
        <path id="DejaVuSans-34" d="M 2419 4116 
L 825 1625 
L 2419 1625 
L 2419 4116 
z
M 2253 4666 
L 3047 4666 
L 3047 1625 
L 3713 1625 
L 3713 1100 
L 3047 1100 
L 3047 0 
L 2419 0 
L 2419 1100 
L 313 1100 
L 313 1709 
L 2253 4666 
z
" transform="scale(0.015625)"/>
       </defs>
       <use xlink:href="#DejaVuSans-34"/>
       <use xlink:href="#DejaVuSans-30" x="63.623047"/>
       <use xlink:href="#DejaVuSans-30" x="127.246094"/>
       <use xlink:href="#DejaVuSans-30" x="190.869141"/>
      </g>
     </g>
    </g>
   </g>
   <g id="matplotlib.axis_2">
    <g id="ytick_1">
     <g id="line2d_10">
      <defs>
       <path id="m2f7129e012" d="M 0 0 
L -3.5 0 
" style="stroke: #000000; stroke-width: 0.8"/>
      </defs>
      <g>
       <use xlink:href="#m2f7129e012" x="47.192188" y="249.223229" style="stroke: #000000; stroke-width: 0.8"/>
      </g>
     </g>
     <g id="text_10">
      <!-- −15000 -->
      <g transform="translate(0 253.022448) scale(0.1 -0.1)">
       <defs>
        <path id="DejaVuSans-2212" d="M 678 2272 
L 4684 2272 
L 4684 1741 
L 678 1741 
L 678 2272 
z
" transform="scale(0.015625)"/>
       </defs>
       <use xlink:href="#DejaVuSans-2212"/>
       <use xlink:href="#DejaVuSans-31" x="83.789062"/>
       <use xlink:href="#DejaVuSans-35" x="147.412109"/>
       <use xlink:href="#DejaVuSans-30" x="211.035156"/>
       <use xlink:href="#DejaVuSans-30" x="274.658203"/>
       <use xlink:href="#DejaVuSans-30" x="338.28125"/>
      </g>
     </g>
    </g>
    <g id="ytick_2">
     <g id="line2d_11">
      <g>
       <use xlink:href="#m2f7129e012" x="47.192188" y="217.509364" style="stroke: #000000; stroke-width: 0.8"/>
      </g>
     </g>
     <g id="text_11">
      <!-- −10000 -->
      <g transform="translate(0 221.308583) scale(0.1 -0.1)">
       <use xlink:href="#DejaVuSans-2212"/>
       <use xlink:href="#DejaVuSans-31" x="83.789062"/>
       <use xlink:href="#DejaVuSans-30" x="147.412109"/>
       <use xlink:href="#DejaVuSans-30" x="211.035156"/>
       <use xlink:href="#DejaVuSans-30" x="274.658203"/>
       <use xlink:href="#DejaVuSans-30" x="338.28125"/>
      </g>
     </g>
    </g>
    <g id="ytick_3">
     <g id="line2d_12">
      <g>
       <use xlink:href="#m2f7129e012" x="47.192188" y="185.795498" style="stroke: #000000; stroke-width: 0.8"/>
      </g>
     </g>
     <g id="text_12">
      <!-- −5000 -->
      <g transform="translate(6.3625 189.594717) scale(0.1 -0.1)">
       <use xlink:href="#DejaVuSans-2212"/>
       <use xlink:href="#DejaVuSans-35" x="83.789062"/>
       <use xlink:href="#DejaVuSans-30" x="147.412109"/>
       <use xlink:href="#DejaVuSans-30" x="211.035156"/>
       <use xlink:href="#DejaVuSans-30" x="274.658203"/>
      </g>
     </g>
    </g>
    <g id="ytick_4">
     <g id="line2d_13">
      <g>
       <use xlink:href="#m2f7129e012" x="47.192188" y="154.081633" style="stroke: #000000; stroke-width: 0.8"/>
      </g>
     </g>
     <g id="text_13">
      <!-- 0 -->
      <g transform="translate(33.829688 157.880852) scale(0.1 -0.1)">
       <use xlink:href="#DejaVuSans-30"/>
      </g>
     </g>
    </g>
    <g id="ytick_5">
     <g id="line2d_14">
      <g>
       <use xlink:href="#m2f7129e012" x="47.192188" y="122.367767" style="stroke: #000000; stroke-width: 0.8"/>
      </g>
     </g>
     <g id="text_14">
      <!-- 5000 -->
      <g transform="translate(14.742188 126.166986) scale(0.1 -0.1)">
       <use xlink:href="#DejaVuSans-35"/>
       <use xlink:href="#DejaVuSans-30" x="63.623047"/>
       <use xlink:href="#DejaVuSans-30" x="127.246094"/>
       <use xlink:href="#DejaVuSans-30" x="190.869141"/>
      </g>
     </g>
    </g>
    <g id="ytick_6">
     <g id="line2d_15">
      <g>
       <use xlink:href="#m2f7129e012" x="47.192188" y="90.653902" style="stroke: #000000; stroke-width: 0.8"/>
      </g>
     </g>
     <g id="text_15">
      <!-- 10000 -->
      <g transform="translate(8.379688 94.453121) scale(0.1 -0.1)">
       <use xlink:href="#DejaVuSans-31"/>
       <use xlink:href="#DejaVuSans-30" x="63.623047"/>
       <use xlink:href="#DejaVuSans-30" x="127.246094"/>
       <use xlink:href="#DejaVuSans-30" x="190.869141"/>
       <use xlink:href="#DejaVuSans-30" x="254.492188"/>
      </g>
     </g>
    </g>
    <g id="ytick_7">
     <g id="line2d_16">
      <g>
       <use xlink:href="#m2f7129e012" x="47.192188" y="58.940036" style="stroke: #000000; stroke-width: 0.8"/>
      </g>
     </g>
     <g id="text_16">
      <!-- 15000 -->
      <g transform="translate(8.379688 62.739255) scale(0.1 -0.1)">
       <use xlink:href="#DejaVuSans-31"/>
       <use xlink:href="#DejaVuSans-35" x="63.623047"/>
       <use xlink:href="#DejaVuSans-30" x="127.246094"/>
       <use xlink:href="#DejaVuSans-30" x="190.869141"/>
       <use xlink:href="#DejaVuSans-30" x="254.492188"/>
      </g>
     </g>
    </g>
    <g id="ytick_8">
     <g id="line2d_17">
      <g>
       <use xlink:href="#m2f7129e012" x="47.192188" y="27.226171" style="stroke: #000000; stroke-width: 0.8"/>
      </g>
     </g>
     <g id="text_17">
      <!-- 20000 -->
      <g transform="translate(8.379688 31.025389) scale(0.1 -0.1)">
       <use xlink:href="#DejaVuSans-32"/>
       <use xlink:href="#DejaVuSans-30" x="63.623047"/>
       <use xlink:href="#DejaVuSans-30" x="127.246094"/>
       <use xlink:href="#DejaVuSans-30" x="190.869141"/>
       <use xlink:href="#DejaVuSans-30" x="254.492188"/>
      </g>
     </g>
    </g>
   </g>
   <g id="line2d_18">
    <path d="M 75.092188 154.11722 
L 75.374148 154.045347 
L 75.656109 154.118649 
L 75.938069 154.043854 
L 76.22003 154.12021 
L 76.50199 154.042218 
L 76.783951 154.121926 
L 77.065912 154.040418 
L 77.347872 154.123818 
L 77.629833 154.038427 
L 77.911793 154.125914 
L 78.193754 154.036216 
L 78.475715 154.12825 
L 78.757675 154.033746 
L 79.039636 154.130865 
L 79.321596 154.030972 
L 79.603557 154.133812 
L 79.885517 154.027835 
L 80.167478 154.137157 
L 80.449439 154.024261 
L 80.731399 154.140985 
L 81.01336 154.020153 
L 81.29532 154.145406 
L 81.577281 154.015383 
L 81.859242 154.150566 
L 82.141202 154.009781 
L 82.423163 154.156669 
L 82.705123 154.003109 
L 82.987084 154.163994 
L 83.269044 153.995031 
L 83.551005 154.172947 
L 83.832966 153.985052 
L 84.114926 154.184137 
L 84.396887 153.972416 
L 84.678847 154.198519 
L 84.960808 153.955902 
L 85.242769 154.217677 
L 85.524729 153.933409 
L 85.80669 154.244459 
L 86.08865 153.900984 
L 86.370611 154.28452 
L 86.652572 153.850227 
L 86.934532 154.350919 
L 87.216493 153.759628 
L 87.498453 154.481926 
L 87.780414 153.553295 
L 88.062374 154.855521 
L 88.344335 152.661221 
L 88.908256 169.062097 
L 89.190217 165.02374 
L 89.472177 166.868785 
L 90.036099 167.55365 
L 90.318059 166.622655 
L 90.60002 168.254036 
L 90.88198 169.156976 
L 91.163941 169.423084 
L 91.445901 168.250852 
L 91.727862 168.839087 
L 92.009823 170.463435 
L 92.291783 172.821987 
L 92.855704 175.122918 
L 93.983547 180.552823 
L 94.265507 180.938396 
L 94.547468 181.934276 
L 94.829429 183.606724 
L 95.111389 183.656928 
L 95.39335 176.040292 
L 96.239231 131.538168 
L 96.521192 124.676507 
L 96.803153 123.105368 
L 97.367074 127.510358 
L 97.649034 127.215697 
L 97.930995 124.46201 
L 98.776877 112.168258 
L 99.058837 112.40859 
L 99.340798 114.731689 
L 99.622758 119.625797 
L 99.904719 129.242976 
L 100.46864 155.007224 
L 100.750601 159.987314 
L 101.032561 158.126987 
L 101.596483 146.992078 
L 101.878443 145.336691 
L 102.442364 150.802742 
L 102.724325 151.550726 
L 103.006286 154.885285 
L 103.570207 170.168114 
L 103.852167 170.813859 
L 104.134128 168.375241 
L 104.416088 168.413247 
L 104.698049 170.527913 
L 104.98001 170.506989 
L 105.543931 167.122363 
L 105.825891 168.03073 
L 106.107852 169.485359 
L 106.389813 170.078315 
L 106.671773 169.676066 
L 106.953734 169.914993 
L 107.517655 173.05241 
L 107.799615 173.432353 
L 108.081576 173.370363 
L 108.363537 174.099259 
L 109.77334 182.11202 
L 110.0553 183.074016 
L 110.337261 182.911973 
L 110.619221 181.385428 
L 110.901182 178.19938 
L 111.183143 170.342826 
L 112.029024 122.84773 
L 112.310985 119.276897 
L 113.156867 127.13308 
L 113.438827 127.423528 
L 113.720788 125.671408 
L 114.56667 108.241518 
L 114.84863 107.921178 
L 115.130591 110.949701 
L 115.412551 118.469771 
L 116.258433 160.287605 
L 116.540394 162.225993 
L 117.104315 157.7434 
L 117.386275 156.455692 
L 117.668236 155.959905 
L 117.950197 156.707898 
L 119.078039 164.608448 
L 119.36 164.874479 
L 119.64196 164.150624 
L 119.923921 163.017389 
L 120.205881 162.534123 
L 120.487842 163.848802 
L 120.769802 165.858337 
L 121.051763 166.774761 
L 121.333724 166.091882 
L 121.897645 162.728026 
L 122.179605 163.167698 
L 122.743527 167.867644 
L 123.025487 166.87558 
L 123.307448 166.593612 
L 123.871369 171.085776 
L 124.153329 171.334311 
L 124.43529 171.998506 
L 124.999211 174.767361 
L 125.281172 175.061551 
L 125.845093 174.865075 
L 126.127054 176.624152 
L 126.409014 179.221461 
L 126.690975 176.656559 
L 127.254896 150.909438 
L 127.818817 130.517181 
L 128.100778 127.425402 
L 128.382738 129.810745 
L 128.664699 133.417098 
L 128.946659 133.165139 
L 130.074502 116.001414 
L 130.356462 116.65252 
L 130.638423 119.93795 
L 130.920384 126.141368 
L 131.766265 155.885193 
L 132.048226 156.412038 
L 132.612147 149.834612 
L 132.894108 148.831571 
L 133.176068 150.094801 
L 133.458029 152.008823 
L 134.02195 153.351163 
L 134.585871 158.485523 
L 134.867832 158.616707 
L 135.149792 158.030845 
L 135.713714 160.144856 
L 135.995674 159.161889 
L 136.277635 160.318224 
L 136.841556 169.199515 
L 137.123516 168.981523 
L 137.405477 169.041832 
L 137.687438 171.10419 
L 137.969398 171.249457 
L 138.251359 168.624804 
L 138.533319 167.266227 
L 138.81528 167.882382 
L 139.097241 167.931967 
L 139.379201 167.460543 
L 139.661162 168.364465 
L 140.789004 175.753734 
L 141.352925 176.810085 
L 141.634886 177.027988 
L 141.916846 173.21321 
L 142.198807 161.268235 
L 142.762728 127.17084 
L 143.044689 117.75301 
L 143.326649 115.199107 
L 143.60861 116.760071 
L 143.890571 119.303862 
L 144.172531 120.596305 
L 144.454492 119.963493 
L 144.736452 117.951932 
L 145.582334 108.57103 
L 145.864295 109.056133 
L 146.146255 113.405515 
L 146.428216 123.026708 
L 146.992137 148.408629 
L 147.274098 152.451488 
L 147.556058 150.09539 
L 147.838019 146.708777 
L 148.119979 145.336276 
L 148.40194 145.689552 
L 148.6839 147.191918 
L 149.529782 153.743761 
L 149.811743 154.890844 
L 150.093703 156.6524 
L 150.657625 162.532918 
L 150.939585 162.893524 
L 151.221546 161.340538 
L 151.503506 161.114675 
L 152.067428 166.349595 
L 152.349388 166.420172 
L 152.631349 165.852556 
L 152.913309 168.534006 
L 153.19527 173.672082 
L 153.47723 176.521541 
L 153.759191 176.466508 
L 154.041152 177.712464 
L 154.323112 181.086932 
L 154.605073 181.254371 
L 155.168994 170.912592 
L 155.450955 171.964847 
L 155.732915 175.294607 
L 156.014876 174.923961 
L 156.296836 173.620999 
L 156.860757 180.863403 
L 157.142718 173.718045 
L 157.9886 126.153268 
L 158.27056 119.893185 
L 158.552521 117.590186 
L 159.116442 120.884618 
L 159.398403 119.61481 
L 160.526245 104.181388 
L 160.808206 103.792365 
L 161.090166 106.273088 
L 161.372127 112.63383 
L 162.218009 151.020799 
L 162.499969 153.087412 
L 163.345851 144.718149 
L 163.627812 143.358682 
L 163.909772 143.070531 
L 164.191733 144.204513 
L 165.037614 150.965187 
L 165.319575 152.576716 
L 166.165457 160.55039 
L 166.447417 161.08147 
L 166.729378 162.281091 
L 167.293299 167.765808 
L 167.57526 168.120813 
L 168.139181 162.921386 
L 168.421142 163.596312 
L 168.703102 165.271086 
L 169.267023 164.429627 
L 169.548984 168.273465 
L 169.830944 173.953905 
L 170.112905 177.240597 
L 170.394866 178.963797 
L 170.958787 184.431939 
L 171.240747 184.237802 
L 171.522708 181.7064 
L 171.804669 180.19473 
L 172.086629 180.344762 
L 172.36859 176.277888 
L 173.214471 129.00833 
L 173.496432 125.930858 
L 173.778393 125.561497 
L 174.060353 124.346012 
L 174.342314 124.860682 
L 174.624274 126.06937 
L 174.906235 123.221688 
L 175.752117 103.509628 
L 176.034077 101.339896 
L 176.316038 101.584572 
L 176.597999 104.70304 
L 176.879959 113.75668 
L 177.44388 146.409328 
L 177.725841 155.395176 
L 178.007801 155.803598 
L 178.853683 146.261249 
L 179.135644 147.485125 
L 179.981526 157.087182 
L 180.263486 158.821168 
L 180.545447 159.574217 
L 180.827407 159.608829 
L 181.109368 159.882897 
L 181.673289 161.867209 
L 182.23721 163.785979 
L 182.519171 163.976996 
L 182.801131 164.370115 
L 183.083092 166.150125 
L 183.647013 170.80291 
L 184.210934 171.773195 
L 185.056816 175.493992 
L 185.620737 179.994799 
L 185.902698 181.96548 
L 186.466619 184.2617 
L 187.312501 188.211636 
L 187.594461 190.691269 
L 187.876422 188.287403 
L 188.158383 175.911437 
L 189.004264 125.815803 
L 189.286225 117.973817 
L 189.568185 115.90675 
L 190.132107 118.663772 
L 190.414067 118.16819 
L 190.696028 116.648674 
L 190.977988 113.149798 
L 191.54191 105.168325 
L 191.82387 104.902505 
L 192.105831 106.532861 
L 192.387791 113.964715 
L 192.951713 147.240313 
L 193.233673 154.704087 
L 193.797594 152.948324 
L 194.079555 153.628537 
L 194.361515 153.503609 
L 194.643476 152.973476 
L 194.925437 153.986148 
L 195.771318 160.491359 
L 196.33524 162.059309 
L 196.6172 162.148169 
L 196.899161 160.881101 
L 197.181121 160.57939 
L 197.745042 166.721249 
L 198.027003 166.929104 
L 198.308964 166.152421 
L 198.872885 169.428525 
L 199.154845 169.106075 
L 199.436806 168.130786 
L 199.718767 169.050563 
L 200.282688 173.56883 
L 201.692491 181.100563 
L 202.256412 184.5696 
L 202.538372 185.47955 
L 202.820333 187.372169 
L 203.102294 188.044749 
L 203.384254 181.932422 
L 203.948175 147.01306 
L 204.512097 117.121853 
L 204.794057 112.352454 
L 205.076018 112.853746 
L 205.639939 116.825118 
L 205.921899 115.838983 
L 206.767781 103.780815 
L 207.049742 102.297161 
L 207.331702 102.444587 
L 207.613663 107.023933 
L 207.895624 119.752179 
L 208.459545 155.979458 
L 208.741505 162.856273 
L 209.023466 160.142543 
L 209.305427 156.111873 
L 209.587387 156.216065 
L 209.869348 157.499781 
L 210.151308 155.980007 
L 210.433269 153.74493 
L 210.715229 154.513549 
L 211.279151 159.435197 
L 211.843072 162.080289 
L 212.125032 162.520993 
L 212.406993 161.852791 
L 212.688954 161.887561 
L 213.252875 165.691875 
L 213.534835 166.303003 
L 213.816796 166.490806 
L 214.098756 168.356393 
L 214.662678 174.977751 
L 215.508559 179.546116 
L 216.072481 182.700621 
L 216.918362 191.433397 
L 217.764244 196.187965 
L 218.046205 197.119998 
L 218.328165 195.677644 
L 218.610126 186.765386 
L 219.456008 131.781017 
L 219.737968 123.032896 
L 220.019929 118.096356 
L 220.301889 115.727197 
L 220.58385 115.731502 
L 220.865811 116.266592 
L 221.147771 115.083791 
L 221.711692 106.806978 
L 221.993653 102.772961 
L 222.275613 100.666301 
L 222.557574 100.22441 
L 222.839535 103.591835 
L 223.121495 116.134375 
L 223.685416 158.442679 
L 223.967377 168.324508 
L 224.249338 168.514082 
L 224.813259 162.379985 
L 225.095219 160.794055 
L 225.37718 161.451059 
L 225.659141 162.545456 
L 225.941101 162.716048 
L 226.223062 164.062747 
L 226.505022 166.89547 
L 226.786983 167.07921 
L 227.350904 159.559354 
L 227.914825 155.92241 
L 228.196786 155.012611 
L 228.478746 155.882077 
L 228.760707 155.824592 
L 229.042668 153.220654 
L 229.324628 152.303546 
L 229.606589 156.81488 
L 230.17051 168.808069 
L 230.734431 177.493577 
L 231.016392 181.916878 
L 232.990116 195.827548 
L 233.272076 196.771742 
L 233.554037 197.322526 
L 233.835998 196.130587 
L 234.117958 186.67777 
L 234.96384 131.008022 
L 235.527761 112.626894 
L 236.091682 108.777318 
L 236.655603 98.897891 
L 236.937564 96.132413 
L 237.501485 85.171248 
L 237.783446 84.351755 
L 238.065406 89.234124 
L 238.347367 96.68715 
L 238.629327 109.600632 
L 239.475209 167.264119 
L 239.75717 168.03935 
L 240.321091 155.843038 
L 240.603052 154.520186 
L 240.885012 154.197581 
L 241.166973 152.40154 
L 241.448933 153.369507 
L 242.012855 165.85156 
L 242.294815 167.218984 
L 242.576776 167.469308 
L 242.858736 169.557145 
L 243.140697 170.248942 
L 243.422657 168.28938 
L 243.704618 167.393747 
L 244.268539 169.961297 
L 244.5505 170.307779 
L 245.396382 172.611821 
L 246.242263 178.609958 
L 246.524224 178.546551 
L 247.088145 182.889654 
L 247.370106 180.828873 
L 247.652066 177.942404 
L 247.934027 179.77984 
L 248.215987 183.938008 
L 248.497948 185.058231 
L 248.779909 184.782587 
L 249.061869 188.014803 
L 249.34383 193.850096 
L 249.62579 196.554098 
L 249.907751 191.477765 
L 250.189712 177.43109 
L 251.035593 122.349152 
L 251.317554 113.381629 
L 251.599514 109.727482 
L 251.881475 110.084019 
L 252.163436 111.782411 
L 252.445396 111.570686 
L 252.727357 107.749477 
L 253.291278 96.279848 
L 253.573239 94.11626 
L 253.855199 94.952141 
L 254.13716 99.891644 
L 254.41912 112.108874 
L 254.983041 148.20971 
L 255.265002 158.164502 
L 255.546963 160.143723 
L 256.110884 155.13851 
L 256.392844 156.280835 
L 256.674805 159.56302 
L 256.956766 160.871899 
L 257.238726 160.921572 
L 257.520687 163.38796 
L 257.802647 167.106146 
L 258.93049 174.765257 
L 259.21245 173.591138 
L 259.494411 173.470105 
L 259.776371 174.380518 
L 260.058332 172.962533 
L 260.340293 170.090303 
L 260.622253 168.773242 
L 260.904214 168.120517 
L 261.468135 165.343424 
L 261.750096 164.469773 
L 262.032056 162.96577 
L 262.314017 162.88472 
L 262.595977 166.749762 
L 263.159898 178.724404 
L 263.441859 182.682782 
L 263.72382 184.442894 
L 264.00578 184.385323 
L 264.287741 184.750238 
L 264.569701 187.291226 
L 264.851662 190.873297 
L 265.133623 191.559261 
L 265.415583 184.235836 
L 265.979504 146.140133 
L 266.543425 109.267083 
L 266.825386 95.851171 
L 267.107347 90.659243 
L 267.671268 97.252148 
L 267.953228 97.580032 
L 268.51715 94.673154 
L 268.79911 92.43942 
L 269.081071 91.122423 
L 269.363031 92.466662 
L 269.644992 97.563238 
L 269.926953 110.156537 
L 270.772834 172.310799 
L 271.054795 174.927053 
L 271.336755 173.76721 
L 271.618716 173.773984 
L 271.900677 171.953776 
L 272.464598 163.512095 
L 272.746558 163.610886 
L 273.31048 165.902641 
L 273.59244 167.004305 
L 274.156361 169.917753 
L 274.438322 170.461933 
L 275.002243 169.873428 
L 275.566164 171.785515 
L 276.130085 171.209135 
L 276.694007 175.182258 
L 276.975967 173.734423 
L 277.257928 172.879116 
L 277.539888 177.631218 
L 277.821849 184.91285 
L 278.667731 197.432039 
L 278.949691 205.164407 
L 279.231652 209.283518 
L 279.513612 208.357693 
L 279.795573 206.56636 
L 280.077534 207.577489 
L 280.359494 209.107745 
L 280.641455 204.58784 
L 280.923415 190.178248 
L 281.769297 127.230922 
L 282.333218 104.824577 
L 284.588903 61.625556 
L 284.870864 62.616455 
L 285.152824 69.678808 
L 285.434785 84.610769 
L 286.280667 146.016101 
L 286.562627 157.085542 
L 286.844588 163.06944 
L 287.126548 166.685471 
L 287.408509 168.649646 
L 287.690469 167.903476 
L 288.254391 162.126215 
L 288.536351 162.637453 
L 289.382233 172.594157 
L 289.664194 174.471683 
L 290.228115 176.228272 
L 290.792036 177.601738 
L 291.073996 177.268453 
L 291.355957 176.513249 
L 291.637918 177.185396 
L 292.201839 180.865441 
L 292.483799 181.957666 
L 292.76576 184.798391 
L 293.329681 192.291554 
L 294.175563 199.093706 
L 294.739484 196.072729 
L 295.021445 198.507512 
L 295.303405 201.984101 
L 295.585366 203.627975 
L 295.867326 205.963031 
L 296.149287 210.062135 
L 296.431248 210.052351 
L 296.713208 200.064733 
L 298.123011 108.123291 
L 299.814775 69.033802 
L 300.378696 65.309712 
L 300.660656 64.172464 
L 300.942617 66.447084 
L 301.224578 75.803306 
L 301.788499 114.504295 
L 302.35242 149.998347 
L 302.916341 171.019043 
L 303.198302 177.15524 
L 303.480262 178.959892 
L 304.326144 177.372618 
L 304.890065 172.359195 
L 305.172026 171.968658 
L 306.017908 178.111828 
L 306.299868 176.244593 
L 306.581829 172.322281 
L 306.863789 170.634436 
L 307.14575 172.01072 
L 307.42771 172.18214 
L 307.709671 170.285233 
L 307.991632 171.152268 
L 308.555553 179.790974 
L 308.837513 180.614015 
L 309.119474 181.962291 
L 309.965356 192.939705 
L 310.529277 195.630354 
L 311.375159 202.513671 
L 311.93908 205.696006 
L 312.22104 200.641132 
L 312.784962 167.084842 
L 313.630843 114.340931 
L 313.912804 107.157031 
L 314.194765 104.517912 
L 314.476725 98.89923 
L 315.040646 84.493425 
L 315.886528 68.30299 
L 316.168489 67.574595 
L 316.450449 73.725613 
L 316.73241 87.92877 
L 317.578292 150.872916 
L 317.860252 160.199253 
L 318.142213 163.373993 
L 318.424173 164.695429 
L 318.706134 165.175372 
L 318.988095 164.954055 
L 319.270055 166.640756 
L 319.833976 174.142841 
L 320.115937 174.669254 
L 320.397897 175.995283 
L 320.679858 178.643168 
L 320.961819 178.523556 
L 321.52574 172.781454 
L 321.8077 172.814362 
L 322.653582 174.724408 
L 322.935543 173.515651 
L 323.217503 170.692338 
L 323.499464 169.560117 
L 324.063385 174.036911 
L 324.345346 176.199071 
L 324.627306 180.347143 
L 325.191227 194.470961 
L 325.473188 197.911938 
L 325.755149 199.508002 
L 326.037109 202.74981 
L 326.882991 218.86926 
L 327.164952 217.835484 
L 327.446912 206.573365 
L 328.856715 104.622033 
L 329.420636 88.945246 
L 330.548479 70.003871 
L 331.1124 64.06275 
L 331.39436 62.603337 
L 331.676321 66.484198 
L 331.958281 78.944497 
L 332.804163 134.847585 
L 333.650045 163.58451 
L 334.213966 174.57138 
L 334.495927 176.131779 
L 334.777887 175.240025 
L 335.059848 174.928362 
L 335.341809 176.658093 
L 335.623769 176.746075 
L 335.90573 173.345548 
L 336.18769 171.814157 
L 336.751611 180.556519 
L 337.033572 181.056481 
L 337.315533 181.211821 
L 338.161414 195.303006 
L 338.443375 196.878553 
L 339.571217 206.790826 
L 340.135138 218.302668 
L 341.262981 231.949946 
L 341.544941 232.062454 
L 341.826902 226.836238 
L 342.108863 213.885835 
L 343.518666 110.651908 
L 344.082587 92.740553 
L 344.646508 79.308016 
L 345.210429 56.461599 
L 345.77435 34.80593 
L 346.056311 27.680183 
L 346.338271 25.950504 
L 346.620232 34.164274 
L 348.311995 138.809232 
L 348.875917 176.117494 
L 349.157877 187.066173 
L 349.439838 188.576227 
L 349.721798 187.356641 
L 350.003759 188.047149 
L 350.28572 187.36013 
L 350.849641 180.246045 
L 351.131601 182.164766 
L 351.695523 189.416221 
L 352.541404 198.0877 
L 352.823365 198.831901 
L 353.105325 200.741978 
L 353.669247 208.65205 
L 355.07905 229.579996 
L 355.642971 236.748186 
L 356.206892 245.741163 
L 356.488852 240.701291 
L 356.770813 222.138138 
L 357.898655 114.843638 
L 358.180616 99.24481 
L 359.026498 69.958765 
L 360.15434 15.976277 
L 360.436301 12.096 
L 360.718261 17.76991 
L 361.000222 27.9827 
L 361.282182 43.843163 
L 362.410025 136.847781 
L 362.973946 165.816011 
L 363.537867 180.370612 
L 363.819828 185.710779 
L 364.101788 187.091761 
L 364.383749 185.047425 
L 364.665709 184.911589 
L 364.94767 187.428877 
L 365.229631 188.720408 
L 365.511591 188.642371 
L 365.793552 190.020383 
L 366.357473 196.927317 
L 366.921394 205.30705 
L 367.203355 205.131323 
L 367.485315 202.778122 
L 367.767276 202.912074 
L 368.331197 209.34933 
L 368.613158 211.37076 
L 368.895118 215.302501 
L 369.459039 228.938245 
L 370.304921 238.253758 
L 370.586882 237.197338 
L 370.868842 225.38862 
L 371.432764 176.077534 
L 371.996685 123.362495 
L 372.560606 92.201026 
L 373.124527 76.890746 
L 373.970409 38.308111 
L 374.252369 32.484167 
L 374.53433 30.159764 
L 374.816291 33.157351 
L 375.098251 44.37424 
L 376.508054 131.481975 
L 377.353936 169.187583 
L 377.635896 174.19003 
L 377.917857 174.750551 
L 378.199818 175.696956 
L 378.763739 181.294222 
L 379.045699 181.280682 
L 379.32766 180.563474 
L 379.609621 182.818939 
L 379.891581 186.944858 
L 380.173542 188.369808 
L 380.455502 187.394818 
L 380.737463 188.800347 
L 381.301384 195.942115 
L 381.583345 197.162744 
L 381.865305 199.318127 
L 382.429226 206.527742 
L 383.557069 224.938737 
L 384.12099 231.881555 
L 384.402951 236.449043 
L 384.684911 238.659555 
L 384.966872 230.768089 
L 385.248832 208.495005 
L 386.094714 120.67777 
L 386.658635 90.515523 
L 387.222556 61.022678 
L 387.786478 31.481596 
L 388.068438 23.801859 
L 388.350399 21.164477 
L 388.632359 23.69969 
L 388.91432 28.712678 
L 389.19628 36.812132 
L 389.478241 53.776089 
L 390.042162 101.197067 
L 391.170005 153.338888 
L 392.297847 177.152818 
L 392.579808 179.533128 
L 392.861768 180.955179 
L 395.117453 205.622476 
L 395.399413 210.000094 
L 395.963335 213.822283 
L 396.527256 223.057666 
L 398.219019 248.760139 
L 398.50098 253.12203 
L 398.78294 252.692213 
L 399.064901 242.169296 
L 399.346862 217.832827 
L 400.192743 123.813868 
L 401.320586 44.949324 
L 401.884507 26.346213 
L 402.166467 24.804386 
L 403.012349 41.289722 
L 403.29431 47.714355 
L 403.858231 78.869825 
L 404.140192 93.340156 
L 405.831955 146.293151 
L 406.395876 169.499013 
L 406.959797 183.713618 
L 407.523719 192.241094 
L 407.805679 194.715834 
L 408.08764 196.178856 
L 408.3696 196.429993 
L 408.651561 197.511889 
L 409.215482 202.34156 
L 409.497443 202.725057 
L 409.779403 204.597859 
L 410.343324 211.746764 
L 410.625285 212.31192 
L 410.907246 213.774487 
L 411.471167 224.598569 
L 412.035088 234.403035 
L 412.317049 237.516077 
L 413.16293 251.346498 
L 413.444891 249.234698 
L 413.726851 236.094662 
L 414.290773 168.803876 
L 414.854694 114.446223 
L 415.700576 59.753824 
L 416.264497 42.968474 
L 416.546457 38.733548 
L 416.828418 38.001766 
L 417.110379 36.613446 
L 417.392339 34.163218 
L 417.6743 36.44314 
L 417.95626 45.772211 
L 418.520181 76.618361 
L 419.084103 111.775901 
L 419.648024 130.156009 
L 420.775866 156.787347 
L 421.339787 164.612622 
L 421.903708 176.927497 
L 422.185669 180.755933 
L 422.46763 186.867056 
L 423.031551 207.244873 
L 423.313511 210.283441 
L 423.595472 208.277541 
L 423.877433 207.207605 
L 424.159393 208.529398 
L 424.441354 208.784334 
L 424.723314 207.185391 
L 425.005275 207.349113 
L 425.851157 218.170306 
L 426.978999 243.462207 
L 427.54292 250.575632 
L 427.824881 250.415107 
L 428.106841 241.891705 
L 428.388802 219.262111 
L 429.234684 122.618777 
L 430.080565 59.169608 
L 430.644487 43.757815 
L 430.926447 38.774245 
L 431.208408 37.774013 
L 431.490368 39.884926 
L 431.772329 40.690106 
L 432.05429 42.190133 
L 432.33625 51.054662 
L 433.182132 103.210033 
L 434.309974 142.287449 
L 436.001738 165.857841 
L 436.84762 183.635319 
L 437.411541 193.502144 
L 437.975462 198.970945 
L 438.257422 201.054442 
L 438.821344 202.710362 
L 439.667225 210.146745 
L 440.795068 223.974883 
L 441.358989 238.261691 
L 441.92291 245.089752 
L 442.204871 247.842322 
L 442.486831 247.026409 
L 442.768792 234.564569 
L 443.332713 166.253499 
L 443.896634 102.703013 
L 444.460555 65.456708 
L 444.742516 51.868825 
L 445.024477 44.232425 
L 445.588398 38.278117 
L 445.870358 36.731955 
L 446.152319 37.71509 
L 446.434279 42.77313 
L 446.71624 52.843271 
L 447.844082 109.522976 
L 448.126043 116.431783 
L 448.408004 120.243003 
L 448.689964 121.252937 
L 448.971925 123.61934 
L 449.817806 142.265471 
L 450.099767 145.704653 
L 450.945649 168.133243 
L 452.637412 199.981255 
L 452.919373 202.791594 
L 453.483294 206.1352 
L 453.765255 208.719319 
L 455.175058 229.961388 
L 456.3029 249.825565 
L 456.584861 253.753017 
L 456.866821 254.016 
L 457.148782 249.495793 
L 457.430742 232.357886 
L 458.558585 92.441283 
L 459.122506 60.008358 
L 459.404466 53.236795 
L 459.686427 53.141448 
L 459.968388 52.356138 
L 460.250348 49.65266 
L 460.532309 49.789292 
L 461.09623 56.816342 
L 461.378191 61.809302 
L 461.660151 72.945371 
L 462.224072 103.266524 
L 462.787993 118.845624 
L 463.069954 122.750542 
L 463.633875 126.013461 
L 464.761718 139.720624 
L 465.325639 151.547444 
L 466.17152 171.654381 
L 466.735442 189.574097 
L 467.299363 201.472582 
L 468.145245 211.848757 
L 468.427205 214.480811 
L 468.709166 213.061423 
L 468.991126 209.391891 
L 469.273087 208.888226 
L 469.837008 214.333216 
L 470.118969 215.437533 
L 470.400929 219.874412 
L 470.96485 237.538952 
L 471.246811 242.163308 
L 471.528772 244.482256 
L 472.092693 252.177428 
L 472.374653 251.123062 
L 472.656614 236.064221 
L 474.066417 84.419459 
L 474.348377 71.430831 
L 474.912299 59.409208 
L 475.47622 51.594295 
L 475.75818 52.183831 
L 476.040141 53.94744 
L 476.322102 53.959071 
L 476.604062 54.421648 
L 476.886023 59.281188 
L 477.449944 80.824603 
L 478.295826 111.498526 
L 478.859747 121.691523 
L 479.423668 128.159723 
L 481.679353 165.480341 
L 481.961313 167.395894 
L 482.243274 171.539521 
L 482.807195 184.580296 
L 483.371116 190.542853 
L 484.216998 206.28757 
L 484.498959 207.594835 
L 484.780919 207.93056 
L 485.06288 207.771413 
L 485.34484 207.384014 
L 485.626801 207.803642 
L 485.908762 209.058678 
L 486.190722 210.848209 
L 486.472683 214.437852 
L 487.036604 225.983494 
L 488.164446 242.165424 
L 488.728367 249.973486 
L 489.010328 245.973959 
L 489.292289 226.305833 
L 490.420131 96.038361 
L 490.702091 79.38731 
L 490.984052 69.806267 
L 491.829934 54.562279 
L 492.111894 52.283547 
L 492.393855 53.377968 
L 492.675816 55.354868 
L 492.957776 55.900813 
L 493.239737 57.904066 
L 493.521697 66.914055 
L 494.085619 97.817684 
L 494.64954 112.992038 
L 495.495421 128.964342 
L 496.623264 142.912474 
L 497.469146 152.058485 
L 497.751106 156.520325 
L 498.315027 167.849596 
L 498.878948 173.149648 
L 500.288751 198.259795 
L 500.570712 202.921459 
L 500.852673 205.204969 
L 501.416594 204.666805 
L 501.698554 205.593785 
L 501.980515 205.206373 
L 502.262476 202.312069 
L 502.544436 201.871072 
L 503.108357 212.343551 
L 503.390318 214.909263 
L 503.672278 219.22887 
L 504.2362 233.633802 
L 504.51816 236.624277 
L 505.082081 244.469073 
L 505.364042 236.553469 
L 505.646003 211.574335 
L 506.491884 112.94881 
L 507.055805 77.982439 
L 507.619727 57.194452 
L 507.901687 52.681766 
L 508.183648 50.253632 
L 508.465608 49.352167 
L 508.747569 51.792118 
L 509.593451 68.860255 
L 510.721293 114.276626 
L 511.567175 126.521189 
L 512.131096 135.221505 
L 513.258938 146.216166 
L 513.82286 152.841371 
L 514.668741 169.213735 
L 516.642465 207.470959 
L 517.206387 214.583313 
L 517.770308 217.168108 
L 518.334229 224.350401 
L 518.61619 225.37745 
L 518.89815 224.273488 
L 519.180111 225.913523 
L 519.744032 235.16935 
L 520.307953 241.071122 
L 520.589914 241.224524 
L 520.871874 227.445821 
L 521.999717 102.369489 
L 522.563638 75.83947 
L 523.127559 61.129262 
L 523.409519 58.029675 
L 523.69148 56.749401 
L 523.973441 57.372984 
L 524.537362 64.260485 
L 524.819322 69.217494 
L 525.101283 78.682057 
L 525.665204 108.113876 
L 525.947165 115.185944 
L 526.511086 121.338027 
L 527.075007 128.425405 
L 527.920889 137.532026 
L 528.202849 138.921751 
L 528.48481 141.950005 
L 529.048731 150.400539 
L 529.330692 153.545521 
L 529.894613 164.507036 
L 531.586376 198.406039 
L 532.996179 218.238231 
L 533.560101 224.826474 
L 534.405982 235.110354 
L 534.969904 242.589379 
L 535.533825 249.732018 
L 535.815785 246.33103 
L 536.097746 229.232679 
L 537.225588 107.944746 
L 538.07147 71.187734 
L 538.635391 62.194985 
L 538.917352 60.078324 
L 539.199312 61.445019 
L 539.763233 69.254628 
L 540.045194 71.965729 
L 540.327155 76.267538 
L 540.891076 96.155065 
L 541.454997 113.63662 
L 542.300879 123.608215 
L 542.8648 134.724989 
L 543.992642 148.992299 
L 544.556563 153.672362 
L 546.530288 182.790281 
L 547.094209 189.614687 
L 547.65813 198.338223 
L 548.222051 210.71533 
L 549.067933 230.755238 
L 549.913815 247.946561 
L 550.195775 249.11695 
L 550.477736 249.597392 
L 550.759696 251.140315 
L 551.041657 244.269832 
L 551.323618 218.114179 
L 551.887539 144.178063 
L 552.45146 105.243207 
L 553.015381 81.446665 
L 553.579302 70.043632 
L 553.861263 68.350221 
L 554.707145 74.059562 
L 554.989105 78.039572 
L 556.680869 117.339716 
L 556.962829 117.658014 
L 557.24479 121.510371 
L 557.808711 141.112041 
L 558.090672 145.441436 
L 558.372632 145.771537 
L 558.654593 147.123604 
L 559.218514 151.995579 
L 559.500475 152.620879 
L 559.782435 154.446736 
L 561.192238 173.710482 
L 561.756159 182.796223 
L 562.03812 186.033805 
L 562.602041 196.472691 
L 562.884002 197.163564 
L 563.165962 195.282918 
L 563.447923 196.838738 
L 564.575765 219.013925 
L 565.139686 233.734923 
L 565.703607 242.886106 
L 565.985568 246.683618 
L 566.267529 248.175792 
L 566.549489 239.434074 
L 566.83145 213.328299 
L 567.395371 141.446149 
L 567.959292 103.534437 
L 568.523213 80.899231 
L 568.805174 73.517096 
L 569.087134 69.37835 
L 569.369095 68.749926 
L 569.651056 70.773367 
L 570.214977 77.415141 
L 570.496937 82.513856 
L 571.060859 102.02201 
L 571.62478 119.91871 
L 572.470661 129.40385 
L 573.034583 132.768788 
L 573.598504 138.646047 
L 573.880464 139.435745 
L 574.162425 141.763887 
L 574.726346 151.529424 
L 575.572228 160.268843 
L 575.854189 161.404693 
L 576.136149 161.925509 
L 576.41811 164.619796 
L 576.982031 171.971604 
L 577.263991 173.260366 
L 577.545952 176.186734 
L 578.391834 191.975338 
L 578.673794 194.808926 
L 579.801637 215.022258 
L 580.647518 237.08799 
L 580.929479 240.762556 
L 581.21144 241.733952 
L 581.4934 232.520433 
L 582.057321 170.051555 
L 582.339282 140.465785 
L 582.903203 109.184517 
L 583.467124 82.380908 
L 583.749085 75.840332 
L 584.031046 73.703246 
L 584.313006 74.475407 
L 585.158888 83.820195 
L 585.440848 87.916894 
L 585.722809 94.693795 
L 586.850651 132.875968 
L 587.132612 133.639924 
L 587.414573 135.685318 
L 587.978494 142.535877 
L 588.260454 143.725969 
L 588.542415 145.404715 
L 589.106336 150.653671 
L 589.670257 153.841679 
L 590.234178 159.60257 
L 590.516139 161.096893 
L 590.7981 163.308381 
L 591.362021 173.339091 
L 591.925942 178.717802 
L 592.489863 191.312166 
L 592.771824 192.886362 
L 593.053784 193.213171 
L 593.335745 197.254167 
L 593.899666 206.639519 
L 594.181627 209.977291 
L 595.027508 227.152302 
L 595.59143 237.405849 
L 595.87339 233.259056 
L 596.155351 212.806742 
L 596.719272 158.583308 
L 597.283193 124.961202 
L 597.847114 101.191122 
L 598.411035 88.269384 
L 598.692996 86.478887 
L 598.974957 87.048808 
L 599.256917 88.867829 
L 599.538878 91.647677 
L 599.820838 93.302335 
L 600.102799 92.693943 
L 600.38476 94.174604 
L 601.230641 120.050877 
L 601.512602 122.523851 
L 602.358484 137.705332 
L 602.640444 139.21161 
L 603.204365 146.281754 
L 603.486326 147.567974 
L 603.768287 148.066182 
L 604.050247 151.020369 
L 604.614168 159.029298 
L 605.178089 166.512838 
L 605.46005 170.653935 
L 605.742011 172.928803 
L 606.023971 173.691934 
L 606.305932 175.702481 
L 606.869853 182.619943 
L 607.151814 183.965092 
L 607.433774 186.226296 
L 607.997695 193.284624 
L 608.279656 195.351662 
L 608.561617 198.82749 
L 609.407498 212.732925 
L 609.971419 221.240524 
L 610.25338 226.187742 
L 610.535341 226.019389 
L 610.817301 213.300393 
L 611.663183 145.377776 
L 612.509065 106.073847 
L 612.791025 97.679391 
L 613.072986 93.953622 
L 613.354946 92.941834 
L 613.636907 92.949908 
L 613.918868 93.956988 
L 614.482789 97.114417 
L 614.764749 98.230267 
L 615.04671 103.045599 
L 615.892592 129.420695 
L 616.456513 139.037886 
L 616.738474 140.379327 
L 617.020434 141.146264 
L 617.866316 148.915888 
L 618.712198 153.208623 
L 618.994158 154.833605 
L 620.403961 168.222625 
L 620.685922 168.899838 
L 620.967882 170.082582 
L 621.813764 177.831954 
L 622.095725 178.848528 
L 622.377685 181.586166 
L 623.223567 194.527933 
L 623.787488 200.736297 
L 624.351409 209.497069 
L 624.63337 212.414686 
L 625.197291 220.48667 
L 625.479252 215.980117 
L 626.043173 173.892285 
L 626.607094 136.641698 
L 627.171015 109.82649 
L 627.452976 101.675334 
L 628.016897 93.587194 
L 628.298858 92.678604 
L 628.580818 95.005714 
L 629.144739 101.711311 
L 629.4267 104.682055 
L 629.70866 110.129396 
L 630.554542 133.128253 
L 630.836503 135.362387 
L 631.118463 135.973706 
L 631.400424 137.084786 
L 632.528266 145.671857 
L 633.092188 147.350241 
L 633.092188 147.350241 
" clip-path="url(#p539b73afe7)" style="fill: none; stroke: #1f77b4; stroke-width: 1.5; stroke-linecap: square"/>
   </g>
   <g id="patch_3">
    <path d="M 47.192188 266.112 
L 47.192188 0 
" style="fill: none; stroke: #000000; stroke-width: 0.8; stroke-linejoin: miter; stroke-linecap: square"/>
   </g>
   <g id="patch_4">
    <path d="M 660.992188 266.112 
L 660.992188 0 
" style="fill: none; stroke: #000000; stroke-width: 0.8; stroke-linejoin: miter; stroke-linecap: square"/>
   </g>
   <g id="patch_5">
    <path d="M 47.192188 266.112 
L 660.992188 266.112 
" style="fill: none; stroke: #000000; stroke-width: 0.8; stroke-linejoin: miter; stroke-linecap: square"/>
   </g>
   <g id="patch_6">
    <path d="M 47.192188 0 
L 660.992188 0 
" style="fill: none; stroke: #000000; stroke-width: 0.8; stroke-linejoin: miter; stroke-linecap: square"/>
   </g>
  </g>
 </g>
 <defs>
  <clipPath id="p539b73afe7">
   <rect x="47.192188" y="0" width="613.8" height="266.112"/>
  </clipPath>
 </defs>
</svg>
