<?xml version="1.0" encoding="utf-8" standalone="no"?>
<!DOCTYPE svg PUBLIC "-//W3C//DTD SVG 1.1//EN"
  "http://www.w3.org/Graphics/SVG/1.1/DTD/svg11.dtd">
<svg xmlns:xlink="http://www.w3.org/1999/xlink" width="660.992188pt" height="282.790125pt" viewBox="0 0 660.992188 282.790125" xmlns="http://www.w3.org/2000/svg" version="1.1">
 <metadata>
  <rdf:RDF xmlns:dc="http://purl.org/dc/elements/1.1/" xmlns:cc="http://creativecommons.org/ns#" xmlns:rdf="http://www.w3.org/1999/02/22-rdf-syntax-ns#">
   <cc:Work>
    <dc:type rdf:resource="http://purl.org/dc/dcmitype/StillImage"/>
    <dc:date>2023-03-06T19:25:51.832971</dc:date>
    <dc:format>image/svg+xml</dc:format>
    <dc:creator>
     <cc:Agent>
      <dc:title>Matplotlib v3.6.3, https://matplotlib.org/</dc:title>
     </cc:Agent>
    </dc:creator>
   </cc:Work>
  </rdf:RDF>
 </metadata>
 <defs>
  <style type="text/css">*{stroke-linejoin: round; stroke-linecap: butt}</style>
 </defs>
 <g id="figure_1">
  <g id="patch_1">
   <path d="M -0 282.790125 
L 660.992188 282.790125 
L 660.992188 0 
L -0 0 
L -0 282.790125 
z
" style="fill: none"/>
  </g>
  <g id="axes_1">
   <g id="patch_2">
    <path d="M 47.192188 266.112 
L 660.992188 266.112 
L 660.992188 0 
L 47.192188 0 
L 47.192188 266.112 
z
" style="fill: none"/>
   </g>
   <g id="matplotlib.axis_1">
    <g id="xtick_1">
     <g id="line2d_1">
      <defs>
       <path id="m5383cea2e2" d="M 0 0 
L 0 3.5 
" style="stroke: #000000; stroke-width: 0.8"/>
      </defs>
      <g>
       <use xlink:href="#m5383cea2e2" x="75.092188" y="266.112" style="stroke: #000000; stroke-width: 0.8"/>
      </g>
     </g>
     <g id="text_1">
      <!-- 0 -->
      <g transform="translate(71.910938 280.710438) scale(0.1 -0.1)">
       <defs>
        <path id="DejaVuSans-30" d="M 2034 4250 
Q 1547 4250 1301 3770 
Q 1056 3291 1056 2328 
Q 1056 1369 1301 889 
Q 1547 409 2034 409 
Q 2525 409 2770 889 
Q 3016 1369 3016 2328 
Q 3016 3291 2770 3770 
Q 2525 4250 2034 4250 
z
M 2034 4750 
Q 2819 4750 3233 4129 
Q 3647 3509 3647 2328 
Q 3647 1150 3233 529 
Q 2819 -91 2034 -91 
Q 1250 -91 836 529 
Q 422 1150 422 2328 
Q 422 3509 836 4129 
Q 1250 4750 2034 4750 
z
" transform="scale(0.015625)"/>
       </defs>
       <use xlink:href="#DejaVuSans-30"/>
      </g>
     </g>
    </g>
    <g id="xtick_2">
     <g id="line2d_2">
      <g>
       <use xlink:href="#m5383cea2e2" x="144.842188" y="266.112" style="stroke: #000000; stroke-width: 0.8"/>
      </g>
     </g>
     <g id="text_2">
      <!-- 500 -->
      <g transform="translate(135.298438 280.710438) scale(0.1 -0.1)">
       <defs>
        <path id="DejaVuSans-35" d="M 691 4666 
L 3169 4666 
L 3169 4134 
L 1269 4134 
L 1269 2991 
Q 1406 3038 1543 3061 
Q 1681 3084 1819 3084 
Q 2600 3084 3056 2656 
Q 3513 2228 3513 1497 
Q 3513 744 3044 326 
Q 2575 -91 1722 -91 
Q 1428 -91 1123 -41 
Q 819 9 494 109 
L 494 744 
Q 775 591 1075 516 
Q 1375 441 1709 441 
Q 2250 441 2565 725 
Q 2881 1009 2881 1497 
Q 2881 1984 2565 2268 
Q 2250 2553 1709 2553 
Q 1456 2553 1204 2497 
Q 953 2441 691 2322 
L 691 4666 
z
" transform="scale(0.015625)"/>
       </defs>
       <use xlink:href="#DejaVuSans-35"/>
       <use xlink:href="#DejaVuSans-30" x="63.623047"/>
       <use xlink:href="#DejaVuSans-30" x="127.246094"/>
      </g>
     </g>
    </g>
    <g id="xtick_3">
     <g id="line2d_3">
      <g>
       <use xlink:href="#m5383cea2e2" x="214.592188" y="266.112" style="stroke: #000000; stroke-width: 0.8"/>
      </g>
     </g>
     <g id="text_3">
      <!-- 1000 -->
      <g transform="translate(201.867188 280.710438) scale(0.1 -0.1)">
       <defs>
        <path id="DejaVuSans-31" d="M 794 531 
L 1825 531 
L 1825 4091 
L 703 3866 
L 703 4441 
L 1819 4666 
L 2450 4666 
L 2450 531 
L 3481 531 
L 3481 0 
L 794 0 
L 794 531 
z
" transform="scale(0.015625)"/>
       </defs>
       <use xlink:href="#DejaVuSans-31"/>
       <use xlink:href="#DejaVuSans-30" x="63.623047"/>
       <use xlink:href="#DejaVuSans-30" x="127.246094"/>
       <use xlink:href="#DejaVuSans-30" x="190.869141"/>
      </g>
     </g>
    </g>
    <g id="xtick_4">
     <g id="line2d_4">
      <g>
       <use xlink:href="#m5383cea2e2" x="284.342188" y="266.112" style="stroke: #000000; stroke-width: 0.8"/>
      </g>
     </g>
     <g id="text_4">
      <!-- 1500 -->
      <g transform="translate(271.617188 280.710438) scale(0.1 -0.1)">
       <use xlink:href="#DejaVuSans-31"/>
       <use xlink:href="#DejaVuSans-35" x="63.623047"/>
       <use xlink:href="#DejaVuSans-30" x="127.246094"/>
       <use xlink:href="#DejaVuSans-30" x="190.869141"/>
      </g>
     </g>
    </g>
    <g id="xtick_5">
     <g id="line2d_5">
      <g>
       <use xlink:href="#m5383cea2e2" x="354.092188" y="266.112" style="stroke: #000000; stroke-width: 0.8"/>
      </g>
     </g>
     <g id="text_5">
      <!-- 2000 -->
      <g transform="translate(341.367188 280.710438) scale(0.1 -0.1)">
       <defs>
        <path id="DejaVuSans-32" d="M 1228 531 
L 3431 531 
L 3431 0 
L 469 0 
L 469 531 
Q 828 903 1448 1529 
Q 2069 2156 2228 2338 
Q 2531 2678 2651 2914 
Q 2772 3150 2772 3378 
Q 2772 3750 2511 3984 
Q 2250 4219 1831 4219 
Q 1534 4219 1204 4116 
Q 875 4013 500 3803 
L 500 4441 
Q 881 4594 1212 4672 
Q 1544 4750 1819 4750 
Q 2544 4750 2975 4387 
Q 3406 4025 3406 3419 
Q 3406 3131 3298 2873 
Q 3191 2616 2906 2266 
Q 2828 2175 2409 1742 
Q 1991 1309 1228 531 
z
" transform="scale(0.015625)"/>
       </defs>
       <use xlink:href="#DejaVuSans-32"/>
       <use xlink:href="#DejaVuSans-30" x="63.623047"/>
       <use xlink:href="#DejaVuSans-30" x="127.246094"/>
       <use xlink:href="#DejaVuSans-30" x="190.869141"/>
      </g>
     </g>
    </g>
    <g id="xtick_6">
     <g id="line2d_6">
      <g>
       <use xlink:href="#m5383cea2e2" x="423.842188" y="266.112" style="stroke: #000000; stroke-width: 0.8"/>
      </g>
     </g>
     <g id="text_6">
      <!-- 2500 -->
      <g transform="translate(411.117188 280.710438) scale(0.1 -0.1)">
       <use xlink:href="#DejaVuSans-32"/>
       <use xlink:href="#DejaVuSans-35" x="63.623047"/>
       <use xlink:href="#DejaVuSans-30" x="127.246094"/>
       <use xlink:href="#DejaVuSans-30" x="190.869141"/>
      </g>
     </g>
    </g>
    <g id="xtick_7">
     <g id="line2d_7">
      <g>
       <use xlink:href="#m5383cea2e2" x="493.592188" y="266.112" style="stroke: #000000; stroke-width: 0.8"/>
      </g>
     </g>
     <g id="text_7">
      <!-- 3000 -->
      <g transform="translate(480.867188 280.710438) scale(0.1 -0.1)">
       <defs>
        <path id="DejaVuSans-33" d="M 2597 2516 
Q 3050 2419 3304 2112 
Q 3559 1806 3559 1356 
Q 3559 666 3084 287 
Q 2609 -91 1734 -91 
Q 1441 -91 1130 -33 
Q 819 25 488 141 
L 488 750 
Q 750 597 1062 519 
Q 1375 441 1716 441 
Q 2309 441 2620 675 
Q 2931 909 2931 1356 
Q 2931 1769 2642 2001 
Q 2353 2234 1838 2234 
L 1294 2234 
L 1294 2753 
L 1863 2753 
Q 2328 2753 2575 2939 
Q 2822 3125 2822 3475 
Q 2822 3834 2567 4026 
Q 2313 4219 1838 4219 
Q 1578 4219 1281 4162 
Q 984 4106 628 3988 
L 628 4550 
Q 988 4650 1302 4700 
Q 1616 4750 1894 4750 
Q 2613 4750 3031 4423 
Q 3450 4097 3450 3541 
Q 3450 3153 3228 2886 
Q 3006 2619 2597 2516 
z
" transform="scale(0.015625)"/>
       </defs>
       <use xlink:href="#DejaVuSans-33"/>
       <use xlink:href="#DejaVuSans-30" x="63.623047"/>
       <use xlink:href="#DejaVuSans-30" x="127.246094"/>
       <use xlink:href="#DejaVuSans-30" x="190.869141"/>
      </g>
     </g>
    </g>
    <g id="xtick_8">
     <g id="line2d_8">
      <g>
       <use xlink:href="#m5383cea2e2" x="563.342188" y="266.112" style="stroke: #000000; stroke-width: 0.8"/>
      </g>
     </g>
     <g id="text_8">
      <!-- 3500 -->
      <g transform="translate(550.617188 280.710438) scale(0.1 -0.1)">
       <use xlink:href="#DejaVuSans-33"/>
       <use xlink:href="#DejaVuSans-35" x="63.623047"/>
       <use xlink:href="#DejaVuSans-30" x="127.246094"/>
       <use xlink:href="#DejaVuSans-30" x="190.869141"/>
      </g>
     </g>
    </g>
    <g id="xtick_9">
     <g id="line2d_9">
      <g>
       <use xlink:href="#m5383cea2e2" x="633.092188" y="266.112" style="stroke: #000000; stroke-width: 0.8"/>
      </g>
     </g>
     <g id="text_9">
      <!-- 4000 -->
      <g transform="translate(620.367188 280.710438) scale(0.1 -0.1)">
       <defs>
        <path id="DejaVuSans-34" d="M 2419 4116 
L 825 1625 
L 2419 1625 
L 2419 4116 
z
M 2253 4666 
L 3047 4666 
L 3047 1625 
L 3713 1625 
L 3713 1100 
L 3047 1100 
L 3047 0 
L 2419 0 
L 2419 1100 
L 313 1100 
L 313 1709 
L 2253 4666 
z
" transform="scale(0.015625)"/>
       </defs>
       <use xlink:href="#DejaVuSans-34"/>
       <use xlink:href="#DejaVuSans-30" x="63.623047"/>
       <use xlink:href="#DejaVuSans-30" x="127.246094"/>
       <use xlink:href="#DejaVuSans-30" x="190.869141"/>
      </g>
     </g>
    </g>
   </g>
   <g id="matplotlib.axis_2">
    <g id="ytick_1">
     <g id="line2d_10">
      <defs>
       <path id="m481d28ccd4" d="M 0 0 
L -3.5 0 
" style="stroke: #000000; stroke-width: 0.8"/>
      </defs>
      <g>
       <use xlink:href="#m481d28ccd4" x="47.192188" y="252.943196" style="stroke: #000000; stroke-width: 0.8"/>
      </g>
     </g>
     <g id="text_10">
      <!-- −30000 -->
      <g transform="translate(0 256.742415) scale(0.1 -0.1)">
       <defs>
        <path id="DejaVuSans-2212" d="M 678 2272 
L 4684 2272 
L 4684 1741 
L 678 1741 
L 678 2272 
z
" transform="scale(0.015625)"/>
       </defs>
       <use xlink:href="#DejaVuSans-2212"/>
       <use xlink:href="#DejaVuSans-33" x="83.789062"/>
       <use xlink:href="#DejaVuSans-30" x="147.412109"/>
       <use xlink:href="#DejaVuSans-30" x="211.035156"/>
       <use xlink:href="#DejaVuSans-30" x="274.658203"/>
       <use xlink:href="#DejaVuSans-30" x="338.28125"/>
      </g>
     </g>
    </g>
    <g id="ytick_2">
     <g id="line2d_11">
      <g>
       <use xlink:href="#m481d28ccd4" x="47.192188" y="216.471324" style="stroke: #000000; stroke-width: 0.8"/>
      </g>
     </g>
     <g id="text_11">
      <!-- −20000 -->
      <g transform="translate(0 220.270542) scale(0.1 -0.1)">
       <use xlink:href="#DejaVuSans-2212"/>
       <use xlink:href="#DejaVuSans-32" x="83.789062"/>
       <use xlink:href="#DejaVuSans-30" x="147.412109"/>
       <use xlink:href="#DejaVuSans-30" x="211.035156"/>
       <use xlink:href="#DejaVuSans-30" x="274.658203"/>
       <use xlink:href="#DejaVuSans-30" x="338.28125"/>
      </g>
     </g>
    </g>
    <g id="ytick_3">
     <g id="line2d_12">
      <g>
       <use xlink:href="#m481d28ccd4" x="47.192188" y="179.999451" style="stroke: #000000; stroke-width: 0.8"/>
      </g>
     </g>
     <g id="text_12">
      <!-- −10000 -->
      <g transform="translate(0 183.79867) scale(0.1 -0.1)">
       <use xlink:href="#DejaVuSans-2212"/>
       <use xlink:href="#DejaVuSans-31" x="83.789062"/>
       <use xlink:href="#DejaVuSans-30" x="147.412109"/>
       <use xlink:href="#DejaVuSans-30" x="211.035156"/>
       <use xlink:href="#DejaVuSans-30" x="274.658203"/>
       <use xlink:href="#DejaVuSans-30" x="338.28125"/>
      </g>
     </g>
    </g>
    <g id="ytick_4">
     <g id="line2d_13">
      <g>
       <use xlink:href="#m481d28ccd4" x="47.192188" y="143.527578" style="stroke: #000000; stroke-width: 0.8"/>
      </g>
     </g>
     <g id="text_13">
      <!-- 0 -->
      <g transform="translate(33.829688 147.326797) scale(0.1 -0.1)">
       <use xlink:href="#DejaVuSans-30"/>
      </g>
     </g>
    </g>
    <g id="ytick_5">
     <g id="line2d_14">
      <g>
       <use xlink:href="#m481d28ccd4" x="47.192188" y="107.055706" style="stroke: #000000; stroke-width: 0.8"/>
      </g>
     </g>
     <g id="text_14">
      <!-- 10000 -->
      <g transform="translate(8.379688 110.854925) scale(0.1 -0.1)">
       <use xlink:href="#DejaVuSans-31"/>
       <use xlink:href="#DejaVuSans-30" x="63.623047"/>
       <use xlink:href="#DejaVuSans-30" x="127.246094"/>
       <use xlink:href="#DejaVuSans-30" x="190.869141"/>
       <use xlink:href="#DejaVuSans-30" x="254.492188"/>
      </g>
     </g>
    </g>
    <g id="ytick_6">
     <g id="line2d_15">
      <g>
       <use xlink:href="#m481d28ccd4" x="47.192188" y="70.583833" style="stroke: #000000; stroke-width: 0.8"/>
      </g>
     </g>
     <g id="text_15">
      <!-- 20000 -->
      <g transform="translate(8.379688 74.383052) scale(0.1 -0.1)">
       <use xlink:href="#DejaVuSans-32"/>
       <use xlink:href="#DejaVuSans-30" x="63.623047"/>
       <use xlink:href="#DejaVuSans-30" x="127.246094"/>
       <use xlink:href="#DejaVuSans-30" x="190.869141"/>
       <use xlink:href="#DejaVuSans-30" x="254.492188"/>
      </g>
     </g>
    </g>
    <g id="ytick_7">
     <g id="line2d_16">
      <g>
       <use xlink:href="#m481d28ccd4" x="47.192188" y="34.111961" style="stroke: #000000; stroke-width: 0.8"/>
      </g>
     </g>
     <g id="text_16">
      <!-- 30000 -->
      <g transform="translate(8.379688 37.91118) scale(0.1 -0.1)">
       <use xlink:href="#DejaVuSans-33"/>
       <use xlink:href="#DejaVuSans-30" x="63.623047"/>
       <use xlink:href="#DejaVuSans-30" x="127.246094"/>
       <use xlink:href="#DejaVuSans-30" x="190.869141"/>
       <use xlink:href="#DejaVuSans-30" x="254.492188"/>
      </g>
     </g>
    </g>
   </g>
   <g id="line2d_17">
    <path d="M 75.092188 143.549159 
L 75.938069 143.507702 
L 76.783951 143.546322 
L 77.629833 143.509536 
L 78.475715 143.545276 
L 79.321596 143.509904 
L 80.167478 143.545549 
L 81.01336 143.508963 
L 81.859242 143.547259 
L 82.705123 143.506287 
L 83.551005 143.551261 
L 84.396887 143.500288 
L 84.678847 143.556476 
L 84.960808 143.496796 
L 85.242769 143.560598 
L 85.524729 143.491874 
L 85.80669 143.566555 
L 86.08865 143.484542 
L 86.370611 143.575768 
L 86.652572 143.472657 
L 86.934532 143.591629 
L 87.216493 143.45052 
L 87.498453 143.624502 
L 87.780414 143.397047 
L 88.062374 143.725158 
L 88.344335 143.148059 
L 88.626296 145.015914 
L 88.908256 155.755354 
L 89.190217 156.074728 
L 89.754138 158.035403 
L 90.036099 157.593084 
L 90.318059 155.070027 
L 90.60002 151.216315 
L 91.163941 136.439164 
L 91.727862 124.538353 
L 92.009823 122.742996 
L 92.291783 124.624988 
L 92.855704 134.152044 
L 93.419626 138.642449 
L 93.701586 139.738918 
L 93.983547 138.439126 
L 94.265507 135.984273 
L 94.547468 135.552204 
L 95.39335 138.640107 
L 96.239231 148.121519 
L 96.521192 147.317436 
L 96.803153 145.85446 
L 97.085113 145.529734 
L 97.367074 145.714837 
L 97.649034 144.555354 
L 97.930995 142.470327 
L 98.212956 141.527901 
L 98.494916 142.577026 
L 99.058837 145.798221 
L 99.340798 146.337225 
L 99.622758 146.300332 
L 99.904719 146.488579 
L 100.18668 147.270279 
L 100.46864 147.651052 
L 101.032561 146.460608 
L 101.314522 146.459463 
L 101.878443 147.527071 
L 102.160404 147.549212 
L 102.724325 146.339393 
L 103.006286 146.982966 
L 104.134128 151.264055 
L 104.416088 151.823781 
L 104.698049 151.587078 
L 104.98001 151.6643 
L 105.26197 151.177102 
L 105.543931 147.250857 
L 106.389813 125.537348 
L 106.671773 121.885351 
L 106.953734 120.164713 
L 107.235694 121.762525 
L 107.799615 131.324447 
L 108.081576 133.333164 
L 108.363537 133.682978 
L 108.927458 134.651517 
L 109.209418 133.716969 
L 109.491379 132.079832 
L 109.77334 131.639845 
L 110.0553 133.169669 
L 110.337261 135.492573 
L 110.619221 136.804829 
L 111.183143 137.144148 
L 111.465103 137.913605 
L 111.747064 138.317144 
L 112.029024 137.663553 
L 112.310985 136.499215 
L 112.592945 136.006836 
L 112.874906 136.445675 
L 113.438827 137.991595 
L 113.720788 140.744258 
L 114.284709 148.451681 
L 114.56667 148.172184 
L 114.84863 147.193775 
L 115.412551 148.932203 
L 115.694512 148.976426 
L 115.976472 149.412815 
L 116.258433 149.638225 
L 116.822354 144.333111 
L 117.104315 144.080532 
L 117.386275 145.843541 
L 117.668236 146.416873 
L 117.950197 146.295215 
L 118.232157 147.886356 
L 118.796078 152.886932 
L 119.078039 153.513604 
L 119.36 151.631103 
L 119.923921 139.759207 
L 120.487842 128.15445 
L 120.769802 125.463152 
L 121.051763 126.324754 
L 122.179605 138.408447 
L 122.461566 139.230645 
L 122.743527 138.60403 
L 123.307448 135.811758 
L 123.589408 135.479698 
L 124.153329 139.046312 
L 124.43529 139.499229 
L 124.999211 138.061728 
L 125.281172 137.625688 
L 125.563132 136.720368 
L 126.409014 131.906049 
L 126.690975 132.005779 
L 126.972935 133.589206 
L 127.254896 135.84843 
L 127.536857 139.394905 
L 128.100778 148.102313 
L 128.382738 148.501947 
L 128.664699 147.513471 
L 128.946659 147.308091 
L 129.22862 147.376342 
L 129.510581 147.810659 
L 129.792541 150.332568 
L 130.356462 157.217155 
L 130.638423 157.576686 
L 130.920384 157.749422 
L 131.202344 159.080218 
L 131.484305 159.746525 
L 132.048226 156.164007 
L 132.330186 155.803764 
L 132.612147 154.711905 
L 132.894108 149.294905 
L 133.739989 126.844221 
L 134.02195 121.741696 
L 134.303911 120.984009 
L 135.431753 140.141226 
L 135.713714 142.058656 
L 135.995674 141.174122 
L 136.559595 137.774179 
L 136.841556 137.100125 
L 137.123516 137.503264 
L 137.687438 143.349106 
L 137.969398 144.030715 
L 138.251359 143.325766 
L 138.533319 143.705081 
L 138.81528 143.832895 
L 139.097241 140.867514 
L 139.379201 135.864847 
L 139.661162 133.31245 
L 139.943122 135.051666 
L 140.225083 137.677114 
L 140.507043 138.255035 
L 140.789004 140.026576 
L 141.352925 154.001352 
L 141.634886 155.703926 
L 141.916846 153.482228 
L 142.198807 152.976444 
L 142.480768 153.939933 
L 142.762728 152.756646 
L 143.326649 148.19471 
L 143.60861 147.950445 
L 143.890571 148.754972 
L 144.454492 151.216208 
L 145.018413 151.283169 
L 145.300373 152.155967 
L 146.146255 156.607651 
L 146.428216 155.853563 
L 146.710176 155.859771 
L 146.992137 157.559945 
L 147.274098 155.894387 
L 148.6839 116.274764 
L 148.965861 114.598328 
L 149.811743 130.585808 
L 150.093703 133.091483 
L 150.375664 134.383335 
L 150.657625 133.041479 
L 150.939585 130.665326 
L 151.221546 129.366756 
L 151.503506 128.742813 
L 151.785467 128.770829 
L 152.067428 131.484282 
L 152.913309 147.730563 
L 153.19527 147.40223 
L 153.47723 145.402497 
L 153.759191 145.222817 
L 154.041152 146.701177 
L 154.323112 147.115085 
L 154.605073 146.542222 
L 154.887033 147.389181 
L 155.168994 149.196979 
L 155.450955 149.766926 
L 155.732915 149.562213 
L 156.296836 150.662999 
L 156.860757 149.65039 
L 157.142718 149.729374 
L 157.424679 149.140991 
L 157.706639 147.995802 
L 157.9886 147.993401 
L 158.27056 149.22835 
L 158.552521 149.952199 
L 159.116442 149.539397 
L 159.962324 150.918266 
L 160.526245 152.11118 
L 160.808206 153.057524 
L 161.372127 156.759026 
L 161.654087 156.685364 
L 161.936048 156.086096 
L 162.218009 157.211952 
L 162.499969 157.652426 
L 162.78193 152.878646 
L 163.627812 128.371492 
L 163.909772 121.985474 
L 164.191733 118.328463 
L 164.473693 120.500829 
L 165.319575 137.92303 
L 165.601536 141.820718 
L 165.883496 143.738524 
L 166.165457 143.972788 
L 166.447417 143.339308 
L 167.011339 138.928653 
L 167.293299 138.468679 
L 167.85722 142.584066 
L 168.139181 142.230962 
L 168.985063 138.941076 
L 169.830944 132.329163 
L 170.112905 131.387116 
L 170.394866 132.555895 
L 170.958787 139.997054 
L 171.240747 141.545189 
L 171.522708 140.91981 
L 171.804669 141.128024 
L 172.086629 142.797851 
L 172.36859 143.089768 
L 172.65055 141.623447 
L 172.932511 142.401814 
L 173.496432 151.519582 
L 173.778393 153.109815 
L 174.060353 153.51419 
L 174.624274 155.636401 
L 174.906235 155.754457 
L 175.188196 156.176828 
L 175.752117 158.290898 
L 176.034077 158.792482 
L 176.316038 159.751176 
L 176.597999 159.447355 
L 176.879959 153.99222 
L 177.725841 123.34667 
L 178.007801 117.734133 
L 178.289762 115.284696 
L 178.571723 119.218579 
L 179.135644 138.199904 
L 179.417604 142.36265 
L 179.981526 145.719463 
L 180.263486 146.084448 
L 180.827407 137.99367 
L 181.109368 137.942011 
L 181.391328 141.191776 
L 181.673289 142.321604 
L 181.95525 140.846366 
L 182.23721 141.417692 
L 182.519171 145.022785 
L 182.801131 147.128837 
L 183.365053 143.966497 
L 183.647013 144.53569 
L 184.210934 147.423403 
L 185.056816 150.188962 
L 185.902698 151.114486 
L 186.74858 148.001256 
L 187.03054 148.704561 
L 187.594461 151.095937 
L 188.440343 152.735868 
L 188.722304 153.48227 
L 189.004264 152.492053 
L 189.850146 146.638566 
L 190.132107 138.768101 
L 190.696028 115.14839 
L 190.977988 108.360134 
L 191.259949 105.203659 
L 191.54191 106.215424 
L 191.82387 113.563726 
L 192.387791 137.506086 
L 192.669752 144.137745 
L 192.951713 145.563064 
L 193.515634 143.42003 
L 193.797594 144.40095 
L 195.207397 155.536007 
L 195.489358 153.979039 
L 196.053279 147.110984 
L 196.6172 144.520569 
L 196.899161 143.695299 
L 197.181121 144.455735 
L 197.745042 148.454298 
L 198.308964 150.261422 
L 198.590924 151.901959 
L 198.872885 152.863812 
L 199.436806 152.972747 
L 199.718767 152.523868 
L 200.000727 151.425303 
L 200.282688 151.558344 
L 200.846609 155.554379 
L 201.12857 156.211886 
L 201.41053 157.863363 
L 201.692491 160.513037 
L 201.974451 161.560732 
L 202.256412 161.730777 
L 202.538372 163.140537 
L 202.820333 162.132818 
L 203.102294 153.277753 
L 203.666215 127.863675 
L 204.512097 105.047906 
L 204.794057 108.287669 
L 205.639939 143.104389 
L 205.921899 144.680661 
L 207.049742 139.803664 
L 207.331702 140.807114 
L 207.895624 147.521751 
L 208.177584 148.250122 
L 208.459545 147.68722 
L 208.741505 147.827149 
L 209.023466 148.201865 
L 209.305427 147.146864 
L 209.587387 145.061952 
L 209.869348 143.831393 
L 210.151308 143.79303 
L 210.433269 143.517328 
L 210.715229 142.716985 
L 211.279151 142.029388 
L 211.561111 141.095557 
L 211.843072 140.743252 
L 212.125032 141.538789 
L 212.406993 141.238677 
L 212.688954 138.949627 
L 212.970914 137.755746 
L 213.816796 143.263449 
L 214.098756 146.615683 
L 214.662678 156.797897 
L 215.508559 164.302469 
L 215.79052 166.212102 
L 216.072481 166.627461 
L 216.354441 166.77168 
L 216.636402 167.529765 
L 216.918362 166.37388 
L 217.200323 159.798305 
L 218.046205 124.904424 
L 218.610126 100.177149 
L 218.892086 98.950393 
L 219.174047 107.798419 
L 219.737968 131.210677 
L 220.019929 137.641655 
L 220.301889 139.579068 
L 220.58385 138.351247 
L 221.147771 134.401543 
L 221.429732 135.288044 
L 222.275613 145.970137 
L 222.839535 147.509275 
L 223.121495 147.939986 
L 223.403456 147.245086 
L 223.685416 144.395202 
L 224.249338 136.653349 
L 224.531298 137.418274 
L 225.095219 142.819514 
L 225.37718 144.225323 
L 225.659141 146.551316 
L 226.223062 153.228057 
L 226.505022 153.820838 
L 226.786983 152.636209 
L 227.068943 153.05784 
L 227.350904 155.63473 
L 227.632865 156.805004 
L 227.914825 156.395255 
L 228.196786 159.385019 
L 228.760707 172.090942 
L 229.042668 174.04316 
L 229.324628 174.959286 
L 229.606589 175.092653 
L 229.888549 171.994471 
L 230.17051 164.346583 
L 230.734431 133.685905 
L 231.298352 103.003896 
L 231.580313 94.670271 
L 231.862273 93.387305 
L 232.144234 104.073383 
L 232.708155 138.278843 
L 232.990116 142.562551 
L 233.272076 140.759959 
L 234.117958 133.076936 
L 234.399919 134.223813 
L 234.96384 141.317859 
L 235.2458 140.680317 
L 235.809722 135.621664 
L 236.373643 133.426568 
L 236.655603 133.434891 
L 236.937564 135.917373 
L 237.501485 143.251267 
L 238.065406 147.214454 
L 238.629327 152.143433 
L 239.193249 155.54159 
L 239.475209 157.40697 
L 239.75717 158.112621 
L 240.03913 158.448763 
L 240.885012 162.148436 
L 241.166973 161.74265 
L 241.448933 162.396628 
L 242.012855 166.979263 
L 242.858736 170.524036 
L 243.140697 166.542933 
L 243.704618 142.213328 
L 244.5505 93.121903 
L 244.83246 86.096484 
L 245.114421 88.509817 
L 245.396382 99.048112 
L 245.960303 133.862675 
L 246.242263 142.596307 
L 246.524224 141.860291 
L 247.088145 135.546509 
L 247.370106 134.124442 
L 247.652066 137.132765 
L 248.215987 149.61392 
L 248.497948 150.349083 
L 248.779909 150.270921 
L 249.061869 150.789948 
L 249.34383 149.854522 
L 250.189712 143.982704 
L 250.471672 141.329637 
L 250.753633 141.832107 
L 251.035593 144.731387 
L 251.317554 146.136536 
L 251.599514 146.88528 
L 251.881475 150.975865 
L 252.163436 157.071359 
L 252.445396 159.955374 
L 252.727357 159.026742 
L 253.009317 158.4888 
L 253.573239 161.177836 
L 253.855199 161.050835 
L 254.13716 161.585547 
L 254.701081 164.763871 
L 254.983041 164.918677 
L 255.265002 165.472972 
L 255.828923 168.452527 
L 256.674805 170.705405 
L 256.956766 169.69335 
L 257.238726 163.891581 
L 257.520687 151.38121 
L 258.93049 69.803705 
L 259.21245 74.855872 
L 259.776371 104.994773 
L 260.340293 134.015101 
L 260.622253 137.371912 
L 261.186174 129.469396 
L 261.468135 129.602554 
L 261.750096 136.199934 
L 262.314017 152.093239 
L 262.595977 151.625527 
L 262.877938 148.88351 
L 264.00578 143.461418 
L 264.287741 143.220045 
L 264.569701 144.39004 
L 265.133623 149.037899 
L 265.415583 150.251102 
L 266.261465 155.761543 
L 266.543425 154.375672 
L 266.825386 154.233581 
L 267.107347 155.668482 
L 267.389307 155.526939 
L 267.671268 153.813668 
L 267.953228 153.871934 
L 268.235189 156.10078 
L 268.51715 157.408504 
L 268.79911 157.314921 
L 269.081071 158.605986 
L 269.644992 164.029607 
L 269.926953 164.365588 
L 270.208913 165.191182 
L 270.772834 169.614923 
L 271.336755 172.690741 
L 271.618716 174.340578 
L 272.182637 175.904905 
L 272.464598 175.851533 
L 272.746558 169.759295 
L 273.31048 134.007614 
L 274.156361 68.240967 
L 274.438322 57.23502 
L 274.720282 58.167396 
L 275.002243 67.819749 
L 275.566164 107.89902 
L 275.848125 129.239724 
L 276.130085 139.787189 
L 276.412046 139.529476 
L 276.694007 135.324792 
L 276.975967 133.321809 
L 277.257928 137.163912 
L 277.821849 154.304753 
L 278.10381 155.943617 
L 278.667731 150.70085 
L 279.231652 147.569166 
L 279.795573 144.431658 
L 280.077534 144.540157 
L 280.641455 147.383144 
L 281.487337 153.076428 
L 281.769297 153.120866 
L 282.051258 152.685247 
L 282.333218 153.113716 
L 282.615179 153.012815 
L 283.1791 150.139061 
L 283.461061 150.743497 
L 283.743021 151.928147 
L 284.306942 153.102708 
L 284.870864 155.116288 
L 285.152824 155.119534 
L 285.434785 155.514106 
L 286.280667 161.326573 
L 286.562627 161.545654 
L 287.408509 165.300444 
L 287.690469 166.989548 
L 288.254391 172.234026 
L 288.818312 175.297587 
L 289.100272 175.895152 
L 289.382233 176.043888 
L 289.664194 176.905281 
L 289.946154 175.394467 
L 290.228115 166.167785 
L 291.073996 111.21512 
L 291.637918 68.649669 
L 291.919878 57.020436 
L 292.201839 54.915992 
L 292.483799 61.321019 
L 292.76576 77.286987 
L 293.329681 120.77108 
L 293.611642 131.075653 
L 293.893602 131.74118 
L 294.175563 128.809133 
L 294.457524 128.469179 
L 294.739484 133.852159 
L 295.303405 147.23932 
L 295.585366 147.664887 
L 295.867326 147.362473 
L 296.149287 147.546824 
L 296.431248 145.774408 
L 296.713208 142.772711 
L 297.277129 140.034102 
L 297.55909 137.320928 
L 297.841051 137.117847 
L 298.404972 144.440163 
L 298.686932 144.699537 
L 298.968893 148.614727 
L 299.532814 163.942461 
L 299.814775 162.329561 
L 300.096735 158.927575 
L 300.378696 158.300888 
L 300.660656 157.990841 
L 300.942617 156.687302 
L 301.224578 156.733461 
L 301.788499 159.229794 
L 302.070459 160.182764 
L 302.634381 164.232403 
L 302.916341 163.653023 
L 303.198302 161.934256 
L 303.480262 161.230443 
L 304.044183 161.959425 
L 304.326144 162.737481 
L 305.453986 167.788036 
L 306.299868 171.237157 
L 306.581829 171.457874 
L 306.863789 166.980162 
L 307.14575 155.370534 
L 307.991632 99.87671 
L 308.555553 66.647979 
L 308.837513 63.475425 
L 309.119474 68.722834 
L 309.401435 80.989078 
L 310.247316 137.721996 
L 310.529277 140.036782 
L 310.811238 137.56179 
L 311.093198 137.378271 
L 311.93908 146.409627 
L 312.22104 146.512163 
L 312.784962 142.843185 
L 313.066922 141.936607 
L 313.630843 138.806077 
L 313.912804 138.927847 
L 314.194765 141.756365 
L 314.758686 151.451584 
L 315.040646 153.962536 
L 315.886528 156.162639 
L 316.450449 154.193462 
L 316.73241 154.258769 
L 317.296331 156.219603 
L 317.860252 159.167821 
L 318.142213 159.853755 
L 318.706134 162.477137 
L 319.270055 163.076086 
L 319.833976 166.09109 
L 320.115937 166.652307 
L 320.961819 167.296837 
L 321.243779 168.113143 
L 321.52574 168.124773 
L 321.8077 163.846499 
L 322.089661 153.897898 
L 322.653582 118.981483 
L 323.217503 78.132531 
L 323.499464 68.311276 
L 323.781424 66.270358 
L 324.063385 72.818251 
L 324.345346 90.660885 
L 324.909267 137.675502 
L 325.191227 147.83822 
L 325.473188 148.450961 
L 325.755149 147.357275 
L 326.037109 149.996491 
L 326.31907 155.00019 
L 326.60103 157.072164 
L 326.882991 154.182047 
L 327.164952 149.677385 
L 327.446912 147.039533 
L 328.010833 144.688089 
L 328.292794 144.265978 
L 328.574754 145.428137 
L 329.138676 148.926025 
L 329.984557 159.081955 
L 330.266518 159.555345 
L 330.830439 158.823349 
L 331.1124 157.084377 
L 331.39436 154.576153 
L 331.676321 153.812956 
L 332.522203 157.873505 
L 332.804163 160.379267 
L 333.368084 170.685438 
L 333.650045 173.292351 
L 333.932006 174.059717 
L 334.777887 178.01764 
L 335.341809 179.639958 
L 335.623769 176.830194 
L 335.90573 167.377379 
L 336.469651 132.150356 
L 337.315533 65.071489 
L 337.597493 54.003713 
L 337.879454 52.230532 
L 338.161414 61.611015 
L 339.289257 135.667099 
L 339.571217 142.749823 
L 339.853178 142.707378 
L 340.135138 143.083404 
L 340.98102 159.016885 
L 341.262981 158.151815 
L 342.108863 151.191552 
L 342.390823 152.52068 
L 342.672784 155.042255 
L 342.954744 156.104318 
L 343.236705 156.360521 
L 343.518666 157.197062 
L 343.800626 157.399509 
L 344.364547 154.178044 
L 344.646508 153.874675 
L 344.928468 153.006868 
L 345.49239 147.28153 
L 345.77435 147.170551 
L 346.338271 149.384455 
L 346.620232 152.009432 
L 348.030035 176.257995 
L 348.593956 183.183028 
L 348.875917 185.442814 
L 349.157877 183.468419 
L 349.439838 171.900081 
L 350.003759 124.052813 
L 350.56768 73.940011 
L 351.131601 44.299291 
L 351.413562 43.127038 
L 351.695523 53.425044 
L 352.823365 130.083591 
L 353.105325 137.707698 
L 353.387286 141.395028 
L 353.669247 148.252506 
L 353.951207 157.842039 
L 354.233168 163.427092 
L 354.515128 162.986087 
L 355.36101 154.849778 
L 355.642971 151.575205 
L 355.924931 150.483952 
L 356.206892 152.498324 
L 357.334734 169.052132 
L 357.616695 170.562816 
L 357.898655 171.349506 
L 358.180616 171.446497 
L 358.462577 171.417615 
L 358.744537 171.986266 
L 359.308458 174.296791 
L 359.590419 176.312228 
L 360.15434 181.773535 
L 360.436301 183.239801 
L 361.000222 184.837948 
L 361.282182 185.084737 
L 361.564143 182.757552 
L 361.846104 174.055594 
L 362.128064 155.771059 
L 363.537867 32.719926 
L 363.819828 32.399371 
L 364.383749 63.260456 
L 365.229631 110.698577 
L 365.511591 120.623658 
L 365.793552 125.523691 
L 366.075512 133.292979 
L 366.639434 161.666154 
L 366.921394 167.073558 
L 367.203355 165.898751 
L 368.331197 154.028428 
L 368.613158 152.906189 
L 368.895118 153.850541 
L 369.177079 160.153131 
L 369.741 177.727824 
L 370.022961 181.237754 
L 370.304921 182.990586 
L 370.586882 183.15058 
L 370.868842 181.565211 
L 371.150803 180.792441 
L 371.714724 183.656707 
L 371.996685 185.168774 
L 372.842566 192.164509 
L 373.406488 197.001817 
L 373.688448 197.844605 
L 373.970409 197.729936 
L 374.252369 192.67686 
L 374.53433 176.681806 
L 375.098251 119.239296 
L 375.944133 19.343917 
L 376.226094 16.065175 
L 377.917857 94.021648 
L 378.481778 101.105724 
L 378.763739 107.193661 
L 379.32766 133.774896 
L 379.891581 159.982916 
L 380.173542 166.562168 
L 380.455502 168.038639 
L 381.019423 161.712425 
L 381.301384 161.58914 
L 381.865305 168.017286 
L 382.429226 177.00459 
L 382.993148 186.043405 
L 383.557069 189.233061 
L 383.839029 190.189373 
L 384.684911 191.374431 
L 384.966872 191.5323 
L 385.248832 191.165243 
L 385.530793 190.543592 
L 385.812753 189.555625 
L 386.376675 185.579406 
L 386.940596 180.910547 
L 387.786478 170.886636 
L 388.068438 162.014125 
L 388.350399 143.01294 
L 389.478241 26.128969 
L 389.760202 19.024511 
L 390.042162 29.821357 
L 390.888044 76.549787 
L 391.170005 87.944507 
L 391.451965 94.80772 
L 391.733926 97.940274 
L 392.297847 100.718096 
L 392.579808 104.213052 
L 392.861768 113.476675 
L 393.425689 139.04892 
L 393.98961 154.401528 
L 394.271571 157.163789 
L 394.553532 155.965301 
L 394.835492 153.496942 
L 395.117453 152.443638 
L 395.399413 152.919385 
L 395.681374 155.232381 
L 395.963335 160.940712 
L 396.527256 175.675298 
L 396.809216 177.775675 
L 397.091177 178.154954 
L 397.655098 181.679722 
L 397.937059 181.455737 
L 398.219019 180.739214 
L 398.78294 181.979316 
L 399.346862 180.781187 
L 399.628822 181.890543 
L 400.756665 189.26976 
L 401.884507 203.301877 
L 402.166467 205.582544 
L 402.448428 201.889309 
L 402.730389 185.928565 
L 403.29431 129.155431 
L 404.140192 19.021939 
L 404.422152 13.914422 
L 406.113916 86.333876 
L 406.677837 88.917035 
L 406.959797 94.355279 
L 408.3696 153.074735 
L 408.651561 157.046032 
L 408.933522 154.901776 
L 409.497443 148.440671 
L 409.779403 147.376864 
L 410.061364 149.978299 
L 411.189206 185.651994 
L 411.471167 190.832748 
L 411.753127 193.519831 
L 412.035088 192.290513 
L 412.317049 190.30365 
L 412.599009 190.695275 
L 413.444891 195.981609 
L 415.700576 226.874226 
L 415.982536 225.502011 
L 416.264497 212.857825 
L 416.546457 188.91617 
L 417.110379 107.686006 
L 417.392339 62.425244 
L 417.6743 37.136963 
L 417.95626 36.690405 
L 419.648024 99.789301 
L 419.929984 103.047565 
L 420.211945 104.470556 
L 420.493906 108.127957 
L 421.339787 131.85553 
L 421.621748 132.346189 
L 421.903708 127.980093 
L 422.185669 120.211808 
L 423.031551 86.5284 
L 423.313511 81.6894 
L 423.595472 81.709174 
L 423.877433 85.861605 
L 424.159393 94.980121 
L 425.569196 156.583853 
L 426.978999 206.454883 
L 427.54292 222.001917 
L 427.824881 224.532816 
L 428.106841 225.918347 
L 428.388802 228.363642 
L 428.670763 229.202782 
L 429.234684 226.590833 
L 429.516644 225.551943 
L 429.798605 224.037235 
L 430.080565 224.243737 
L 430.362526 224.103646 
L 430.644487 215.348348 
L 430.926447 193.649646 
L 431.490368 119.042123 
L 432.05429 40.305005 
L 432.33625 30.516568 
L 432.618211 37.187256 
L 433.746053 72.843049 
L 434.028014 77.602124 
L 434.309974 78.296603 
L 434.591935 76.342455 
L 434.873895 75.178853 
L 435.155856 79.118 
L 436.565659 125.493541 
L 436.84762 130.704184 
L 437.12958 131.470404 
L 437.411541 129.962991 
L 437.693501 129.255806 
L 437.975462 130.444731 
L 438.257422 133.502996 
L 438.821344 144.471051 
L 439.385265 158.48226 
L 440.231147 184.71801 
L 440.795068 190.328151 
L 441.077028 191.644425 
L 441.92291 193.411411 
L 442.204871 193.625956 
L 442.486831 193.516961 
L 442.768792 193.764268 
L 443.050752 194.612371 
L 443.332713 196.17058 
L 443.896634 202.429851 
L 444.460555 210.808591 
L 445.024477 219.951543 
L 445.870358 222.932743 
L 446.152319 219.415084 
L 446.434279 204.322503 
L 446.71624 177.145847 
L 447.280161 90.035751 
L 447.562122 42.901642 
L 447.844082 15.654833 
L 448.126043 12.096 
L 448.689964 26.33596 
L 449.817806 64.73885 
L 450.945649 93.439629 
L 451.50957 119.878217 
L 452.073491 134.344611 
L 452.355452 138.491984 
L 452.637412 138.31804 
L 453.483294 125.607667 
L 453.765255 125.185755 
L 454.047215 128.416971 
L 454.611136 141.988326 
L 456.020939 189.013625 
L 456.3029 195.225551 
L 456.866821 200.302884 
L 457.148782 206.197767 
L 457.712703 220.432193 
L 458.276624 223.11088 
L 458.840545 231.207194 
L 459.122506 230.552625 
L 459.404466 228.933093 
L 459.686427 230.086027 
L 459.968388 229.357484 
L 460.250348 219.746916 
L 460.532309 199.590179 
L 460.814269 166.830731 
L 461.660151 41.046714 
L 461.942112 37.731013 
L 462.787993 53.828105 
L 463.351915 72.881938 
L 464.761718 94.183103 
L 465.88956 121.67507 
L 466.17152 122.548414 
L 466.453481 122.450968 
L 467.299363 119.885886 
L 467.581323 121.354795 
L 467.863284 125.928592 
L 468.991126 158.727155 
L 470.118969 194.294803 
L 470.96485 206.2787 
L 471.528772 209.029141 
L 472.656614 225.550237 
L 473.220535 235.677802 
L 473.784456 242.692068 
L 474.066417 242.566233 
L 474.348377 232.073385 
L 474.630338 208.242582 
L 475.194259 120.716328 
L 475.47622 77.476913 
L 475.75818 56.016647 
L 476.040141 52.898103 
L 476.604062 55.666332 
L 477.449944 70.998639 
L 478.013865 72.41083 
L 478.295826 72.218341 
L 478.577786 72.441732 
L 478.859747 75.882231 
L 479.423668 92.048909 
L 479.987589 107.413996 
L 480.26955 110.516287 
L 480.55151 111.941921 
L 480.833471 112.788281 
L 481.115432 112.801785 
L 481.397392 113.209351 
L 481.679353 115.955419 
L 482.243274 127.051389 
L 483.371116 155.16793 
L 483.935037 170.167697 
L 484.216998 174.609897 
L 484.498959 180.88214 
L 485.06288 197.57161 
L 485.908762 210.866002 
L 487.036604 231.664028 
L 487.318564 234.41434 
L 487.600525 235.464176 
L 488.164446 245.222129 
L 488.446407 244.201609 
L 488.728367 233.226759 
L 489.010328 213.120647 
L 489.292289 180.105478 
L 489.85621 88.459786 
L 490.13817 65.659422 
L 490.420131 63.608679 
L 490.702091 65.496243 
L 490.984052 64.711233 
L 491.266013 65.834647 
L 491.547973 68.436208 
L 491.829934 68.671576 
L 492.111894 69.054105 
L 492.675816 73.785211 
L 492.957776 74.208028 
L 493.239737 78.917552 
L 493.803658 96.596688 
L 494.64954 113.243298 
L 494.9315 114.390891 
L 495.213461 114.213352 
L 495.495421 116.219686 
L 496.341303 126.386574 
L 498.315027 167.351345 
L 499.160909 190.613486 
L 500.288751 217.368468 
L 500.852673 239.217409 
L 501.416594 251.608814 
L 501.698554 254.016 
L 501.980515 245.672979 
L 502.262476 220.060747 
L 503.108357 95.098737 
L 503.390318 79.045035 
L 503.954239 73.696328 
L 504.2362 69.100481 
L 504.51816 69.256113 
L 504.800121 73.060377 
L 505.082081 75.156168 
L 505.364042 76.217437 
L 505.927963 81.331315 
L 506.209924 86.238023 
L 507.055805 115.027883 
L 507.901687 120.744855 
L 508.183648 119.385899 
L 508.465608 116.718351 
L 508.747569 117.577096 
L 509.31149 131.727043 
L 509.593451 138.534086 
L 510.721293 154.382174 
L 511.567175 170.652369 
L 512.131096 183.990165 
L 512.695017 194.266543 
L 514.10482 228.129023 
L 514.950702 249.712445 
L 515.232662 245.925037 
L 515.514623 228.057759 
L 516.642465 93.658236 
L 517.488347 72.60743 
L 517.770308 72.782214 
L 518.052268 75.608999 
L 518.61619 77.417153 
L 519.180111 80.429039 
L 519.462071 81.634706 
L 519.744032 86.091557 
L 520.589914 109.66405 
L 520.871874 114.436804 
L 521.153835 117.18372 
L 521.435795 118.163086 
L 521.717756 118.088497 
L 521.999717 118.436015 
L 522.281677 120.185527 
L 522.845598 126.096713 
L 523.69148 136.639095 
L 524.255401 150.333853 
L 524.537362 156.805841 
L 525.101283 162.830797 
L 526.229125 181.980397 
L 526.511086 185.24811 
L 527.075007 187.621482 
L 527.356968 190.775754 
L 527.920889 205.462562 
L 528.766771 228.381196 
L 529.048731 234.451896 
L 529.330692 238.11822 
L 529.612652 236.511835 
L 529.894613 222.717388 
L 531.022455 98.319899 
L 531.868337 74.38203 
L 532.150298 74.405559 
L 532.432258 77.271048 
L 532.996179 79.642526 
L 533.560101 84.925901 
L 533.842061 86.106993 
L 534.124022 88.768296 
L 534.687943 105.277143 
L 535.251864 118.985158 
L 535.533825 122.732835 
L 535.815785 124.47057 
L 536.379706 123.99058 
L 536.661667 125.572636 
L 537.225588 130.327672 
L 537.789509 139.623873 
L 538.635391 152.405134 
L 539.763233 166.481102 
L 540.327155 168.291517 
L 540.609115 171.647953 
L 541.454997 189.475825 
L 542.300879 214.984108 
L 542.8648 223.722731 
L 543.146761 225.315199 
L 543.428721 215.93503 
L 543.992642 149.399574 
L 544.274603 117.714654 
L 544.556563 101.407959 
L 545.120485 86.249776 
L 545.402445 82.296674 
L 545.684406 83.296278 
L 545.966366 85.396134 
L 546.248327 86.235081 
L 546.530288 87.904543 
L 547.376169 98.014871 
L 547.94009 114.05439 
L 548.222051 121.856852 
L 548.504012 126.432397 
L 548.785972 128.371889 
L 549.067933 128.751109 
L 549.349893 127.988723 
L 549.913815 123.992491 
L 550.195775 123.303874 
L 550.477736 125.14042 
L 551.041657 132.352989 
L 551.323618 138.120153 
L 552.169499 161.970576 
L 552.73342 169.024279 
L 553.015381 172.143136 
L 554.143223 191.674884 
L 554.707145 204.652185 
L 555.271066 209.701041 
L 556.116947 222.766638 
L 556.398908 221.578349 
L 556.680869 205.735878 
L 557.52675 114.828777 
L 558.090672 100.201426 
L 558.654593 90.742918 
L 559.218514 86.213311 
L 559.500475 86.807235 
L 559.782435 88.900447 
L 560.346356 90.62118 
L 560.628317 95.017566 
L 561.474199 116.808522 
L 562.32008 130.860121 
L 562.602041 130.537146 
L 562.884002 128.602067 
L 563.165962 127.701687 
L 563.447923 128.112985 
L 563.729883 129.484886 
L 564.575765 136.095818 
L 565.703607 150.192171 
L 566.83145 164.234249 
L 567.395371 169.159742 
L 567.677332 171.367104 
L 568.805174 187.100118 
L 569.651056 209.232406 
L 570.496937 221.79102 
L 570.778898 215.093445 
L 571.060859 193.123376 
L 571.62478 136.850318 
L 572.188701 111.458201 
L 572.752622 96.230435 
L 573.034583 94.028118 
L 573.316543 94.63327 
L 573.598504 96.071142 
L 573.880464 96.553492 
L 574.162425 96.054038 
L 574.444386 96.783235 
L 575.290267 105.054635 
L 576.136149 122.638237 
L 576.41811 125.387422 
L 576.70007 126.969417 
L 576.982031 127.324826 
L 577.263991 127.280661 
L 577.545952 128.545277 
L 577.827913 130.580247 
L 578.391834 133.179586 
L 579.237716 144.235742 
L 579.519676 143.946016 
L 579.801637 144.174144 
L 580.647518 152.914886 
L 580.929479 153.076588 
L 581.21144 156.145388 
L 581.775361 166.667307 
L 582.339282 172.190431 
L 583.749085 196.355017 
L 584.313006 203.696198 
L 584.594967 205.417515 
L 584.876927 197.611672 
L 586.00477 116.631785 
L 586.568691 99.627352 
L 586.850651 95.837219 
L 587.132612 95.819112 
L 587.696533 99.606935 
L 588.824375 109.392903 
L 589.106336 113.534185 
L 589.952218 131.19879 
L 590.234178 134.209688 
L 590.516139 135.518864 
L 590.7981 134.945793 
L 591.362021 129.996407 
L 591.643981 129.008554 
L 591.925942 129.494332 
L 592.207903 131.7479 
L 593.617705 154.328986 
L 594.181627 158.079559 
L 596.155351 184.905914 
L 596.437311 189.655865 
L 597.001232 202.659571 
L 597.283193 206.510275 
L 597.565154 204.266393 
L 597.847114 190.876589 
L 598.692996 129.691963 
L 599.256917 107.118617 
L 599.538878 100.823628 
L 599.820838 99.200968 
L 600.38476 99.607275 
L 600.66672 100.72195 
L 601.230641 104.419082 
L 601.512602 104.905096 
L 601.794562 107.357633 
L 602.640444 123.505239 
L 603.486326 137.371097 
L 603.768287 136.382429 
L 604.050247 134.008127 
L 604.332208 133.756339 
L 604.896129 136.963165 
L 605.46005 142.052434 
L 606.023971 147.688975 
L 607.151814 165.003718 
L 607.715735 167.755759 
L 608.279656 173.273543 
L 608.843577 181.571938 
L 609.407498 192.427707 
L 609.689459 193.071637 
L 609.971419 193.255531 
L 610.25338 195.023031 
L 610.535341 191.394382 
L 610.817301 175.385173 
L 611.381222 135.693809 
L 611.945144 119.954852 
L 612.509065 109.397417 
L 612.791025 107.795402 
L 613.354946 106.509788 
L 613.636907 106.523192 
L 613.918868 106.859796 
L 614.200828 106.928356 
L 614.482789 107.547176 
L 614.764749 110.30276 
L 615.610631 124.596435 
L 616.174552 128.247847 
L 616.456513 129.263407 
L 616.738474 128.904351 
L 617.302395 125.461671 
L 617.584355 125.335096 
L 617.866316 126.364252 
L 618.148276 128.452918 
L 618.712198 136.680669 
L 618.994158 138.356035 
L 619.276119 138.317929 
L 619.558079 140.781355 
L 620.122001 149.11062 
L 620.403961 150.51917 
L 620.685922 154.47629 
L 621.249843 168.617371 
L 622.095725 179.661153 
L 622.659646 188.650913 
L 623.223567 194.916419 
L 623.505528 198.737106 
L 623.787488 198.017074 
L 624.069449 188.313515 
L 624.915331 140.340424 
L 625.479252 119.955899 
L 625.761212 115.131632 
L 626.043173 113.112147 
L 626.325133 112.245609 
L 626.607094 112.858839 
L 626.889055 114.911812 
L 627.171015 116.079344 
L 627.734936 115.528196 
L 628.016897 116.095653 
L 628.298858 117.025598 
L 628.580818 119.43501 
L 629.4267 132.215843 
L 629.70866 131.882237 
L 629.990621 130.569497 
L 630.272582 131.794316 
L 630.554542 134.559478 
L 630.836503 134.915167 
L 631.118463 132.510762 
L 631.400424 132.64429 
L 631.682385 135.798979 
L 631.964345 137.189214 
L 632.246306 135.285185 
L 632.528266 136.172915 
L 633.092188 145.760234 
L 633.092188 145.760234 
" clip-path="url(#pdf3534bd0a)" style="fill: none; stroke: #1f77b4; stroke-width: 1.5; stroke-linecap: square"/>
   </g>
   <g id="patch_3">
    <path d="M 47.192188 266.112 
L 47.192188 0 
" style="fill: none; stroke: #000000; stroke-width: 0.8; stroke-linejoin: miter; stroke-linecap: square"/>
   </g>
   <g id="patch_4">
    <path d="M 660.992188 266.112 
L 660.992188 0 
" style="fill: none; stroke: #000000; stroke-width: 0.8; stroke-linejoin: miter; stroke-linecap: square"/>
   </g>
   <g id="patch_5">
    <path d="M 47.192188 266.112 
L 660.992188 266.112 
" style="fill: none; stroke: #000000; stroke-width: 0.8; stroke-linejoin: miter; stroke-linecap: square"/>
   </g>
   <g id="patch_6">
    <path d="M 47.192188 0 
L 660.992188 0 
" style="fill: none; stroke: #000000; stroke-width: 0.8; stroke-linejoin: miter; stroke-linecap: square"/>
   </g>
  </g>
 </g>
 <defs>
  <clipPath id="pdf3534bd0a">
   <rect x="47.192188" y="0" width="613.8" height="266.112"/>
  </clipPath>
 </defs>
</svg>
