<?xml version="1.0" encoding="utf-8" standalone="no"?>
<!DOCTYPE svg PUBLIC "-//W3C//DTD SVG 1.1//EN"
  "http://www.w3.org/Graphics/SVG/1.1/DTD/svg11.dtd">
<svg xmlns:xlink="http://www.w3.org/1999/xlink" width="660.992188pt" height="282.790125pt" viewBox="0 0 660.992188 282.790125" xmlns="http://www.w3.org/2000/svg" version="1.1">
 <metadata>
  <rdf:RDF xmlns:dc="http://purl.org/dc/elements/1.1/" xmlns:cc="http://creativecommons.org/ns#" xmlns:rdf="http://www.w3.org/1999/02/22-rdf-syntax-ns#">
   <cc:Work>
    <dc:type rdf:resource="http://purl.org/dc/dcmitype/StillImage"/>
    <dc:date>2023-03-06T19:25:52.528975</dc:date>
    <dc:format>image/svg+xml</dc:format>
    <dc:creator>
     <cc:Agent>
      <dc:title>Matplotlib v3.6.3, https://matplotlib.org/</dc:title>
     </cc:Agent>
    </dc:creator>
   </cc:Work>
  </rdf:RDF>
 </metadata>
 <defs>
  <style type="text/css">*{stroke-linejoin: round; stroke-linecap: butt}</style>
 </defs>
 <g id="figure_1">
  <g id="patch_1">
   <path d="M -0 282.790125 
L 660.992188 282.790125 
L 660.992188 0 
L -0 0 
L -0 282.790125 
z
" style="fill: none"/>
  </g>
  <g id="axes_1">
   <g id="patch_2">
    <path d="M 47.192188 266.112 
L 660.992188 266.112 
L 660.992188 0 
L 47.192188 0 
L 47.192188 266.112 
z
" style="fill: none"/>
   </g>
   <g id="matplotlib.axis_1">
    <g id="xtick_1">
     <g id="line2d_1">
      <defs>
       <path id="mc4b5695c14" d="M 0 0 
L 0 3.5 
" style="stroke: #000000; stroke-width: 0.8"/>
      </defs>
      <g>
       <use xlink:href="#mc4b5695c14" x="75.092188" y="266.112" style="stroke: #000000; stroke-width: 0.8"/>
      </g>
     </g>
     <g id="text_1">
      <!-- 0 -->
      <g transform="translate(71.910938 280.710438) scale(0.1 -0.1)">
       <defs>
        <path id="DejaVuSans-30" d="M 2034 4250 
Q 1547 4250 1301 3770 
Q 1056 3291 1056 2328 
Q 1056 1369 1301 889 
Q 1547 409 2034 409 
Q 2525 409 2770 889 
Q 3016 1369 3016 2328 
Q 3016 3291 2770 3770 
Q 2525 4250 2034 4250 
z
M 2034 4750 
Q 2819 4750 3233 4129 
Q 3647 3509 3647 2328 
Q 3647 1150 3233 529 
Q 2819 -91 2034 -91 
Q 1250 -91 836 529 
Q 422 1150 422 2328 
Q 422 3509 836 4129 
Q 1250 4750 2034 4750 
z
" transform="scale(0.015625)"/>
       </defs>
       <use xlink:href="#DejaVuSans-30"/>
      </g>
     </g>
    </g>
    <g id="xtick_2">
     <g id="line2d_2">
      <g>
       <use xlink:href="#mc4b5695c14" x="144.842188" y="266.112" style="stroke: #000000; stroke-width: 0.8"/>
      </g>
     </g>
     <g id="text_2">
      <!-- 500 -->
      <g transform="translate(135.298438 280.710438) scale(0.1 -0.1)">
       <defs>
        <path id="DejaVuSans-35" d="M 691 4666 
L 3169 4666 
L 3169 4134 
L 1269 4134 
L 1269 2991 
Q 1406 3038 1543 3061 
Q 1681 3084 1819 3084 
Q 2600 3084 3056 2656 
Q 3513 2228 3513 1497 
Q 3513 744 3044 326 
Q 2575 -91 1722 -91 
Q 1428 -91 1123 -41 
Q 819 9 494 109 
L 494 744 
Q 775 591 1075 516 
Q 1375 441 1709 441 
Q 2250 441 2565 725 
Q 2881 1009 2881 1497 
Q 2881 1984 2565 2268 
Q 2250 2553 1709 2553 
Q 1456 2553 1204 2497 
Q 953 2441 691 2322 
L 691 4666 
z
" transform="scale(0.015625)"/>
       </defs>
       <use xlink:href="#DejaVuSans-35"/>
       <use xlink:href="#DejaVuSans-30" x="63.623047"/>
       <use xlink:href="#DejaVuSans-30" x="127.246094"/>
      </g>
     </g>
    </g>
    <g id="xtick_3">
     <g id="line2d_3">
      <g>
       <use xlink:href="#mc4b5695c14" x="214.592188" y="266.112" style="stroke: #000000; stroke-width: 0.8"/>
      </g>
     </g>
     <g id="text_3">
      <!-- 1000 -->
      <g transform="translate(201.867188 280.710438) scale(0.1 -0.1)">
       <defs>
        <path id="DejaVuSans-31" d="M 794 531 
L 1825 531 
L 1825 4091 
L 703 3866 
L 703 4441 
L 1819 4666 
L 2450 4666 
L 2450 531 
L 3481 531 
L 3481 0 
L 794 0 
L 794 531 
z
" transform="scale(0.015625)"/>
       </defs>
       <use xlink:href="#DejaVuSans-31"/>
       <use xlink:href="#DejaVuSans-30" x="63.623047"/>
       <use xlink:href="#DejaVuSans-30" x="127.246094"/>
       <use xlink:href="#DejaVuSans-30" x="190.869141"/>
      </g>
     </g>
    </g>
    <g id="xtick_4">
     <g id="line2d_4">
      <g>
       <use xlink:href="#mc4b5695c14" x="284.342188" y="266.112" style="stroke: #000000; stroke-width: 0.8"/>
      </g>
     </g>
     <g id="text_4">
      <!-- 1500 -->
      <g transform="translate(271.617188 280.710438) scale(0.1 -0.1)">
       <use xlink:href="#DejaVuSans-31"/>
       <use xlink:href="#DejaVuSans-35" x="63.623047"/>
       <use xlink:href="#DejaVuSans-30" x="127.246094"/>
       <use xlink:href="#DejaVuSans-30" x="190.869141"/>
      </g>
     </g>
    </g>
    <g id="xtick_5">
     <g id="line2d_5">
      <g>
       <use xlink:href="#mc4b5695c14" x="354.092188" y="266.112" style="stroke: #000000; stroke-width: 0.8"/>
      </g>
     </g>
     <g id="text_5">
      <!-- 2000 -->
      <g transform="translate(341.367188 280.710438) scale(0.1 -0.1)">
       <defs>
        <path id="DejaVuSans-32" d="M 1228 531 
L 3431 531 
L 3431 0 
L 469 0 
L 469 531 
Q 828 903 1448 1529 
Q 2069 2156 2228 2338 
Q 2531 2678 2651 2914 
Q 2772 3150 2772 3378 
Q 2772 3750 2511 3984 
Q 2250 4219 1831 4219 
Q 1534 4219 1204 4116 
Q 875 4013 500 3803 
L 500 4441 
Q 881 4594 1212 4672 
Q 1544 4750 1819 4750 
Q 2544 4750 2975 4387 
Q 3406 4025 3406 3419 
Q 3406 3131 3298 2873 
Q 3191 2616 2906 2266 
Q 2828 2175 2409 1742 
Q 1991 1309 1228 531 
z
" transform="scale(0.015625)"/>
       </defs>
       <use xlink:href="#DejaVuSans-32"/>
       <use xlink:href="#DejaVuSans-30" x="63.623047"/>
       <use xlink:href="#DejaVuSans-30" x="127.246094"/>
       <use xlink:href="#DejaVuSans-30" x="190.869141"/>
      </g>
     </g>
    </g>
    <g id="xtick_6">
     <g id="line2d_6">
      <g>
       <use xlink:href="#mc4b5695c14" x="423.842188" y="266.112" style="stroke: #000000; stroke-width: 0.8"/>
      </g>
     </g>
     <g id="text_6">
      <!-- 2500 -->
      <g transform="translate(411.117188 280.710438) scale(0.1 -0.1)">
       <use xlink:href="#DejaVuSans-32"/>
       <use xlink:href="#DejaVuSans-35" x="63.623047"/>
       <use xlink:href="#DejaVuSans-30" x="127.246094"/>
       <use xlink:href="#DejaVuSans-30" x="190.869141"/>
      </g>
     </g>
    </g>
    <g id="xtick_7">
     <g id="line2d_7">
      <g>
       <use xlink:href="#mc4b5695c14" x="493.592188" y="266.112" style="stroke: #000000; stroke-width: 0.8"/>
      </g>
     </g>
     <g id="text_7">
      <!-- 3000 -->
      <g transform="translate(480.867188 280.710438) scale(0.1 -0.1)">
       <defs>
        <path id="DejaVuSans-33" d="M 2597 2516 
Q 3050 2419 3304 2112 
Q 3559 1806 3559 1356 
Q 3559 666 3084 287 
Q 2609 -91 1734 -91 
Q 1441 -91 1130 -33 
Q 819 25 488 141 
L 488 750 
Q 750 597 1062 519 
Q 1375 441 1716 441 
Q 2309 441 2620 675 
Q 2931 909 2931 1356 
Q 2931 1769 2642 2001 
Q 2353 2234 1838 2234 
L 1294 2234 
L 1294 2753 
L 1863 2753 
Q 2328 2753 2575 2939 
Q 2822 3125 2822 3475 
Q 2822 3834 2567 4026 
Q 2313 4219 1838 4219 
Q 1578 4219 1281 4162 
Q 984 4106 628 3988 
L 628 4550 
Q 988 4650 1302 4700 
Q 1616 4750 1894 4750 
Q 2613 4750 3031 4423 
Q 3450 4097 3450 3541 
Q 3450 3153 3228 2886 
Q 3006 2619 2597 2516 
z
" transform="scale(0.015625)"/>
       </defs>
       <use xlink:href="#DejaVuSans-33"/>
       <use xlink:href="#DejaVuSans-30" x="63.623047"/>
       <use xlink:href="#DejaVuSans-30" x="127.246094"/>
       <use xlink:href="#DejaVuSans-30" x="190.869141"/>
      </g>
     </g>
    </g>
    <g id="xtick_8">
     <g id="line2d_8">
      <g>
       <use xlink:href="#mc4b5695c14" x="563.342188" y="266.112" style="stroke: #000000; stroke-width: 0.8"/>
      </g>
     </g>
     <g id="text_8">
      <!-- 3500 -->
      <g transform="translate(550.617188 280.710438) scale(0.1 -0.1)">
       <use xlink:href="#DejaVuSans-33"/>
       <use xlink:href="#DejaVuSans-35" x="63.623047"/>
       <use xlink:href="#DejaVuSans-30" x="127.246094"/>
       <use xlink:href="#DejaVuSans-30" x="190.869141"/>
      </g>
     </g>
    </g>
    <g id="xtick_9">
     <g id="line2d_9">
      <g>
       <use xlink:href="#mc4b5695c14" x="633.092188" y="266.112" style="stroke: #000000; stroke-width: 0.8"/>
      </g>
     </g>
     <g id="text_9">
      <!-- 4000 -->
      <g transform="translate(620.367188 280.710438) scale(0.1 -0.1)">
       <defs>
        <path id="DejaVuSans-34" d="M 2419 4116 
L 825 1625 
L 2419 1625 
L 2419 4116 
z
M 2253 4666 
L 3047 4666 
L 3047 1625 
L 3713 1625 
L 3713 1100 
L 3047 1100 
L 3047 0 
L 2419 0 
L 2419 1100 
L 313 1100 
L 313 1709 
L 2253 4666 
z
" transform="scale(0.015625)"/>
       </defs>
       <use xlink:href="#DejaVuSans-34"/>
       <use xlink:href="#DejaVuSans-30" x="63.623047"/>
       <use xlink:href="#DejaVuSans-30" x="127.246094"/>
       <use xlink:href="#DejaVuSans-30" x="190.869141"/>
      </g>
     </g>
    </g>
   </g>
   <g id="matplotlib.axis_2">
    <g id="ytick_1">
     <g id="line2d_10">
      <defs>
       <path id="m16d8d35434" d="M 0 0 
L -3.5 0 
" style="stroke: #000000; stroke-width: 0.8"/>
      </defs>
      <g>
       <use xlink:href="#m16d8d35434" x="47.192188" y="265.788889" style="stroke: #000000; stroke-width: 0.8"/>
      </g>
     </g>
     <g id="text_10">
      <!-- −30000 -->
      <g transform="translate(0 269.588108) scale(0.1 -0.1)">
       <defs>
        <path id="DejaVuSans-2212" d="M 678 2272 
L 4684 2272 
L 4684 1741 
L 678 1741 
L 678 2272 
z
" transform="scale(0.015625)"/>
       </defs>
       <use xlink:href="#DejaVuSans-2212"/>
       <use xlink:href="#DejaVuSans-33" x="83.789062"/>
       <use xlink:href="#DejaVuSans-30" x="147.412109"/>
       <use xlink:href="#DejaVuSans-30" x="211.035156"/>
       <use xlink:href="#DejaVuSans-30" x="274.658203"/>
       <use xlink:href="#DejaVuSans-30" x="338.28125"/>
      </g>
     </g>
    </g>
    <g id="ytick_2">
     <g id="line2d_11">
      <g>
       <use xlink:href="#m16d8d35434" x="47.192188" y="224.115255" style="stroke: #000000; stroke-width: 0.8"/>
      </g>
     </g>
     <g id="text_11">
      <!-- −20000 -->
      <g transform="translate(0 227.914474) scale(0.1 -0.1)">
       <use xlink:href="#DejaVuSans-2212"/>
       <use xlink:href="#DejaVuSans-32" x="83.789062"/>
       <use xlink:href="#DejaVuSans-30" x="147.412109"/>
       <use xlink:href="#DejaVuSans-30" x="211.035156"/>
       <use xlink:href="#DejaVuSans-30" x="274.658203"/>
       <use xlink:href="#DejaVuSans-30" x="338.28125"/>
      </g>
     </g>
    </g>
    <g id="ytick_3">
     <g id="line2d_12">
      <g>
       <use xlink:href="#m16d8d35434" x="47.192188" y="182.441621" style="stroke: #000000; stroke-width: 0.8"/>
      </g>
     </g>
     <g id="text_12">
      <!-- −10000 -->
      <g transform="translate(0 186.24084) scale(0.1 -0.1)">
       <use xlink:href="#DejaVuSans-2212"/>
       <use xlink:href="#DejaVuSans-31" x="83.789062"/>
       <use xlink:href="#DejaVuSans-30" x="147.412109"/>
       <use xlink:href="#DejaVuSans-30" x="211.035156"/>
       <use xlink:href="#DejaVuSans-30" x="274.658203"/>
       <use xlink:href="#DejaVuSans-30" x="338.28125"/>
      </g>
     </g>
    </g>
    <g id="ytick_4">
     <g id="line2d_13">
      <g>
       <use xlink:href="#m16d8d35434" x="47.192188" y="140.767987" style="stroke: #000000; stroke-width: 0.8"/>
      </g>
     </g>
     <g id="text_13">
      <!-- 0 -->
      <g transform="translate(33.829688 144.567206) scale(0.1 -0.1)">
       <use xlink:href="#DejaVuSans-30"/>
      </g>
     </g>
    </g>
    <g id="ytick_5">
     <g id="line2d_14">
      <g>
       <use xlink:href="#m16d8d35434" x="47.192188" y="99.094353" style="stroke: #000000; stroke-width: 0.8"/>
      </g>
     </g>
     <g id="text_14">
      <!-- 10000 -->
      <g transform="translate(8.379688 102.893572) scale(0.1 -0.1)">
       <use xlink:href="#DejaVuSans-31"/>
       <use xlink:href="#DejaVuSans-30" x="63.623047"/>
       <use xlink:href="#DejaVuSans-30" x="127.246094"/>
       <use xlink:href="#DejaVuSans-30" x="190.869141"/>
       <use xlink:href="#DejaVuSans-30" x="254.492188"/>
      </g>
     </g>
    </g>
    <g id="ytick_6">
     <g id="line2d_15">
      <g>
       <use xlink:href="#m16d8d35434" x="47.192188" y="57.42072" style="stroke: #000000; stroke-width: 0.8"/>
      </g>
     </g>
     <g id="text_15">
      <!-- 20000 -->
      <g transform="translate(8.379688 61.219938) scale(0.1 -0.1)">
       <use xlink:href="#DejaVuSans-32"/>
       <use xlink:href="#DejaVuSans-30" x="63.623047"/>
       <use xlink:href="#DejaVuSans-30" x="127.246094"/>
       <use xlink:href="#DejaVuSans-30" x="190.869141"/>
       <use xlink:href="#DejaVuSans-30" x="254.492188"/>
      </g>
     </g>
    </g>
    <g id="ytick_7">
     <g id="line2d_16">
      <g>
       <use xlink:href="#m16d8d35434" x="47.192188" y="15.747086" style="stroke: #000000; stroke-width: 0.8"/>
      </g>
     </g>
     <g id="text_16">
      <!-- 30000 -->
      <g transform="translate(8.379688 19.546304) scale(0.1 -0.1)">
       <use xlink:href="#DejaVuSans-33"/>
       <use xlink:href="#DejaVuSans-30" x="63.623047"/>
       <use xlink:href="#DejaVuSans-30" x="127.246094"/>
       <use xlink:href="#DejaVuSans-30" x="190.869141"/>
       <use xlink:href="#DejaVuSans-30" x="254.492188"/>
      </g>
     </g>
    </g>
   </g>
   <g id="line2d_17">
    <path d="M 75.092188 140.867694 
L 75.374148 140.671953 
L 75.656109 140.860732 
L 75.938069 140.678198 
L 76.22003 140.855119 
L 76.50199 140.68325 
L 76.783951 140.850567 
L 77.065912 140.687352 
L 77.347872 140.846873 
L 77.629833 140.690673 
L 77.911793 140.843895 
L 78.193754 140.693333 
L 78.475715 140.841532 
L 78.757675 140.695417 
L 79.039636 140.839713 
L 79.321596 140.696981 
L 79.603557 140.838394 
L 79.885517 140.698062 
L 80.167478 140.837549 
L 80.449439 140.698673 
L 80.731399 140.837173 
L 81.01336 140.69881 
L 81.29532 140.83728 
L 81.577281 140.69845 
L 81.859242 140.837906 
L 82.141202 140.697543 
L 82.423163 140.839114 
L 82.705123 140.696007 
L 82.987084 140.841008 
L 83.269044 140.693718 
L 83.551005 140.84374 
L 83.832966 140.690483 
L 84.114926 140.847551 
L 84.396887 140.686005 
L 84.678847 140.852814 
L 84.960808 140.679807 
L 85.242769 140.860142 
L 85.524729 140.671089 
L 85.80669 140.870599 
L 86.08865 140.658409 
L 86.370611 140.886191 
L 86.652572 140.638892 
L 86.934532 140.911184 
L 87.216493 140.60592 
L 87.498453 140.956446 
L 87.780414 140.540269 
L 88.062374 141.059645 
L 88.344335 140.356188 
L 88.626296 141.464856 
L 88.908256 132.151601 
L 89.190217 127.149817 
L 89.472177 127.246571 
L 90.036099 124.241794 
L 90.318059 123.037481 
L 90.60002 123.273274 
L 91.163941 122.204066 
L 91.445901 122.7514 
L 92.573744 134.141643 
L 93.419626 147.437803 
L 93.701586 148.247202 
L 93.983547 147.812651 
L 94.547468 146.189353 
L 95.111389 143.356453 
L 95.39335 142.618439 
L 95.67531 142.894204 
L 95.957271 143.488409 
L 96.521192 145.185169 
L 96.803153 145.325718 
L 97.085113 144.982311 
L 97.649034 145.570115 
L 97.930995 145.494019 
L 98.212956 145.728054 
L 98.494916 146.677097 
L 98.776877 146.567324 
L 99.058837 145.224852 
L 99.340798 145.25666 
L 99.904719 150.242143 
L 100.18668 150.857253 
L 100.46864 150.819042 
L 100.750601 151.227313 
L 101.032561 151.159655 
L 101.596483 149.032096 
L 101.878443 148.994742 
L 102.442364 150.171191 
L 102.724325 150.365331 
L 103.006286 150.697353 
L 103.570207 151.93726 
L 103.852167 152.24066 
L 104.134128 151.671305 
L 104.416088 148.846451 
L 105.543931 126.850563 
L 105.825891 125.743708 
L 106.107852 125.316474 
L 106.671773 125.616781 
L 107.235694 124.689137 
L 107.799615 125.1711 
L 108.081576 124.734575 
L 108.363537 125.273096 
L 109.209418 132.754885 
L 110.0553 146.382149 
L 110.619221 145.223504 
L 110.901182 145.699707 
L 111.183143 145.227955 
L 111.747064 142.539895 
L 112.029024 142.082807 
L 112.310985 141.892595 
L 112.592945 142.350533 
L 112.874906 143.119948 
L 113.438827 144.046384 
L 113.720788 144.78145 
L 114.002748 144.730049 
L 114.284709 144.353252 
L 114.84863 146.167498 
L 115.130591 145.234754 
L 115.412551 143.148197 
L 115.694512 142.176553 
L 115.976472 142.128094 
L 116.258433 141.723717 
L 116.540394 141.673648 
L 116.822354 143.197219 
L 117.386275 147.192317 
L 117.668236 147.795702 
L 118.232157 148.151197 
L 118.514118 148.528098 
L 118.796078 148.671289 
L 119.078039 148.58434 
L 119.36 148.968624 
L 119.64196 149.871023 
L 119.923921 150.283281 
L 120.205881 150.142984 
L 120.487842 150.601041 
L 120.769802 151.458877 
L 121.051763 150.75224 
L 121.333724 147.327396 
L 122.461566 125.777979 
L 123.025487 123.632887 
L 123.307448 123.129105 
L 123.871369 124.464999 
L 124.43529 121.715128 
L 124.717251 122.576663 
L 125.281172 126.836119 
L 125.845093 129.712522 
L 126.127054 133.243581 
L 126.690975 143.309355 
L 126.972935 144.634839 
L 127.254896 143.563411 
L 127.536857 143.015724 
L 127.818817 143.52282 
L 128.100778 143.312325 
L 128.664699 140.357158 
L 128.946659 140.33065 
L 129.22862 140.951094 
L 129.510581 140.989026 
L 129.792541 140.613595 
L 130.074502 140.611299 
L 130.638423 141.245047 
L 131.202344 142.93828 
L 131.484305 142.862437 
L 131.766265 142.357538 
L 132.048226 142.711052 
L 132.330186 142.876474 
L 132.894108 139.342749 
L 133.176068 139.709569 
L 133.458029 141.079706 
L 133.739989 140.95481 
L 134.02195 140.275552 
L 134.303911 141.262647 
L 134.585871 143.105287 
L 135.431753 145.563285 
L 135.713714 145.681841 
L 135.995674 144.64818 
L 136.277635 145.242223 
L 136.841556 152.227338 
L 137.123516 152.66552 
L 137.405477 151.718749 
L 137.687438 152.289806 
L 137.969398 153.757034 
L 138.251359 153.078936 
L 138.533319 148.751279 
L 139.379201 128.170378 
L 139.661162 125.248389 
L 139.943122 125.1712 
L 140.225083 125.879176 
L 140.789004 126.162562 
L 141.070965 126.56853 
L 141.352925 126.453561 
L 141.634886 125.663293 
L 141.916846 125.313251 
L 142.198807 125.997469 
L 142.762728 128.233067 
L 143.044689 130.048054 
L 143.326649 133.577232 
L 143.890571 143.60122 
L 144.172531 144.465636 
L 144.736452 138.332373 
L 145.018413 137.604748 
L 145.300373 137.34037 
L 145.864295 134.295157 
L 146.146255 135.908166 
L 146.428216 139.150293 
L 146.710176 140.872895 
L 146.992137 140.748549 
L 147.274098 140.981033 
L 147.556058 142.246842 
L 147.838019 142.9719 
L 148.40194 141.461864 
L 148.6839 141.36083 
L 148.965861 141.763575 
L 149.247822 141.800791 
L 149.811743 140.396697 
L 150.093703 141.548142 
L 150.657625 146.754672 
L 150.939585 147.044373 
L 151.221546 146.780446 
L 152.067428 148.142205 
L 152.349388 148.344606 
L 152.913309 149.394408 
L 153.19527 149.963639 
L 153.759191 150.51973 
L 154.041152 152.54874 
L 154.323112 155.903431 
L 154.605073 157.458449 
L 154.887033 155.768812 
L 155.450955 148.723382 
L 156.578797 121.583132 
L 157.142718 122.52997 
L 157.424679 122.597362 
L 157.706639 122.49112 
L 158.27056 121.545035 
L 158.834482 120.430428 
L 159.116442 120.793329 
L 159.680363 124.068387 
L 159.962324 127.383789 
L 160.808206 144.591721 
L 161.090166 145.527767 
L 161.654087 145.552858 
L 161.936048 144.478806 
L 162.218009 142.818625 
L 162.499969 141.848744 
L 163.06389 141.202206 
L 163.345851 141.459303 
L 163.627812 142.127374 
L 163.909772 142.434243 
L 164.191733 142.541344 
L 164.755654 143.590568 
L 165.319575 143.299407 
L 166.165457 144.104775 
L 166.729378 144.173339 
L 167.011339 144.69765 
L 167.57526 146.398852 
L 168.139181 145.991945 
L 168.703102 146.560538 
L 168.985063 147.246907 
L 169.830944 152.887116 
L 170.394866 153.940834 
L 170.676826 154.478118 
L 170.958787 154.614067 
L 171.240747 155.340481 
L 171.522708 156.955231 
L 171.804669 157.370972 
L 172.086629 154.305729 
L 173.496432 124.384091 
L 174.060353 122.815587 
L 174.342314 122.241073 
L 174.906235 121.942227 
L 175.470156 119.934186 
L 175.752117 119.676091 
L 176.034077 120.261249 
L 176.316038 121.461578 
L 176.597999 123.964082 
L 177.725841 141.213109 
L 178.007801 142.361126 
L 178.289762 142.107976 
L 179.135644 139.231548 
L 179.417604 139.360689 
L 179.981526 142.297361 
L 180.827407 145.845227 
L 181.109368 146.495507 
L 181.391328 145.724189 
L 181.673289 144.176118 
L 181.95525 143.387502 
L 182.23721 143.383495 
L 182.801131 142.514532 
L 183.083092 143.317569 
L 183.647013 148.570063 
L 183.928974 149.551849 
L 184.210934 149.066379 
L 184.492895 149.218448 
L 184.774856 150.407134 
L 185.056816 150.155139 
L 185.620737 145.30277 
L 185.902698 146.185192 
L 186.184658 148.314268 
L 186.466619 149.134779 
L 186.74858 149.067951 
L 187.03054 149.570407 
L 187.594461 151.109003 
L 187.876422 151.409593 
L 188.158383 152.573814 
L 188.722304 157.499192 
L 189.004264 156.603853 
L 189.286225 151.615667 
L 190.132107 126.199001 
L 190.414067 118.381718 
L 190.696028 114.795137 
L 190.977988 115.962969 
L 191.54191 121.715546 
L 191.82387 121.840404 
L 192.105831 121.001719 
L 192.387791 120.725664 
L 192.669752 120.756976 
L 193.233673 119.960405 
L 193.515634 120.853299 
L 193.797594 123.239617 
L 194.079555 127.117338 
L 194.643476 139.507855 
L 195.207397 150.487469 
L 195.489358 151.283675 
L 196.053279 147.583279 
L 196.33524 146.92908 
L 196.6172 145.444843 
L 197.181121 140.364709 
L 197.463082 140.006502 
L 197.745042 140.465943 
L 198.027003 141.888069 
L 198.308964 144.432065 
L 198.590924 145.652088 
L 199.154845 141.704837 
L 199.436806 141.381564 
L 199.718767 141.833386 
L 200.282688 141.368135 
L 200.564648 142.350318 
L 201.41053 148.58106 
L 201.692491 149.050881 
L 201.974451 149.25917 
L 202.538372 150.469644 
L 202.820333 150.834551 
L 204.794057 155.593579 
L 205.357978 157.237279 
L 205.639939 156.999091 
L 205.921899 154.741548 
L 206.20386 149.286752 
L 207.049742 125.498315 
L 207.613663 117.934082 
L 207.895624 116.767884 
L 208.177584 116.804493 
L 208.459545 116.29544 
L 208.741505 114.958371 
L 209.023466 114.355807 
L 209.587387 115.852283 
L 209.869348 115.798979 
L 210.151308 116.168752 
L 210.433269 118.72186 
L 210.715229 124.104962 
L 211.561111 146.707936 
L 211.843072 148.121817 
L 212.406993 145.294993 
L 212.688954 145.413119 
L 212.970914 144.482016 
L 213.534835 140.621556 
L 213.816796 140.332877 
L 214.098756 140.417937 
L 214.380717 141.041515 
L 215.226599 146.315856 
L 215.79052 147.513457 
L 216.072481 148.266053 
L 216.354441 148.491097 
L 216.918362 147.634708 
L 217.200323 148.258462 
L 217.764244 150.290023 
L 218.046205 150.5364 
L 218.328165 151.032768 
L 218.892086 152.38282 
L 220.019929 154.095451 
L 222.275613 162.29902 
L 222.557574 161.537745 
L 222.839535 156.013403 
L 223.685416 127.975436 
L 224.249338 118.061894 
L 224.813259 111.995458 
L 225.659141 107.482969 
L 226.223062 103.845865 
L 226.505022 102.529937 
L 226.786983 102.63948 
L 227.068943 105.182576 
L 227.350904 109.435359 
L 227.632865 116.243792 
L 228.478746 156.033574 
L 228.760707 157.764828 
L 229.042668 155.860186 
L 229.324628 155.897279 
L 229.606589 155.354968 
L 229.888549 150.574431 
L 230.45247 139.571794 
L 230.734431 138.452413 
L 231.016392 139.119329 
L 231.580313 142.156729 
L 232.426195 148.722641 
L 232.708155 148.876162 
L 232.990116 149.156432 
L 233.272076 150.108302 
L 233.554037 150.327137 
L 233.835998 149.727821 
L 234.117958 150.068582 
L 234.399919 151.402679 
L 234.681879 152.067872 
L 234.96384 152.305176 
L 235.527761 155.197129 
L 235.809722 154.708411 
L 236.091682 152.9389 
L 236.373643 152.932243 
L 236.937564 156.344979 
L 237.219525 155.848224 
L 237.501485 156.663186 
L 238.347367 172.529791 
L 239.193249 177.03089 
L 239.475209 174.202881 
L 239.75717 164.035309 
L 240.321091 137.214214 
L 240.885012 121.874839 
L 241.730894 102.695549 
L 242.858736 86.756714 
L 243.140697 83.750807 
L 243.422657 82.483057 
L 243.704618 84.295996 
L 243.986579 89.254732 
L 244.268539 96.247862 
L 244.5505 106.623178 
L 245.396382 156.080794 
L 245.678342 159.282753 
L 246.242263 155.972201 
L 246.524224 155.17787 
L 246.806184 153.037144 
L 247.370106 147.020296 
L 247.652066 145.832491 
L 247.934027 146.643344 
L 248.779909 151.238142 
L 249.061869 152.469713 
L 249.34383 152.321704 
L 249.907751 149.33813 
L 250.189712 149.580447 
L 250.471672 150.361013 
L 250.753633 150.462013 
L 251.035593 150.291741 
L 251.317554 151.267227 
L 252.163436 158.123319 
L 252.445396 158.685921 
L 253.009317 161.249397 
L 253.291278 161.449935 
L 253.573239 160.567079 
L 253.855199 160.666003 
L 254.983041 168.866807 
L 255.828923 181.880695 
L 256.110884 180.938038 
L 256.392844 175.777958 
L 258.084608 115.178099 
L 258.648529 102.891715 
L 258.93049 97.075015 
L 259.776371 73.55539 
L 260.340293 65.506064 
L 260.622253 64.114329 
L 260.904214 65.893232 
L 261.186174 73.370462 
L 261.468135 88.642974 
L 262.314017 150.022907 
L 262.595977 157.402153 
L 262.877938 158.536265 
L 263.159898 158.522765 
L 263.441859 158.293227 
L 263.72382 156.186536 
L 264.287741 150.650762 
L 264.851662 147.879561 
L 265.133623 148.110259 
L 265.697544 151.051849 
L 265.979504 150.883842 
L 266.261465 151.615786 
L 266.543425 153.658881 
L 266.825386 154.53413 
L 267.389307 151.464194 
L 267.671268 151.180505 
L 268.51715 153.972864 
L 268.79911 155.677107 
L 269.363031 161.370005 
L 270.208913 166.078493 
L 270.490874 169.301969 
L 270.772834 170.990477 
L 271.054795 171.214549 
L 271.336755 172.604057 
L 272.182637 182.04059 
L 272.464598 184.4514 
L 273.028519 191.125001 
L 273.31048 189.423515 
L 273.59244 181.697173 
L 276.130085 76.253895 
L 276.975967 47.451478 
L 277.257928 41.147645 
L 277.539888 39.307949 
L 277.821849 41.85449 
L 278.10381 47.254416 
L 278.38577 56.491487 
L 278.667731 72.925622 
L 279.513612 139.696663 
L 280.077534 162.636653 
L 280.359494 166.321382 
L 280.641455 165.657928 
L 281.205376 162.660249 
L 281.487337 161.21336 
L 282.051258 155.840689 
L 282.333218 154.648607 
L 282.615179 155.484093 
L 282.897139 157.056513 
L 283.1791 157.766252 
L 283.743021 157.516164 
L 284.024982 157.712354 
L 284.306942 158.089173 
L 284.588903 159.425435 
L 284.870864 161.504897 
L 285.152824 162.283037 
L 285.434785 161.323661 
L 285.716745 161.159622 
L 285.998706 162.711223 
L 286.280667 163.403394 
L 286.562627 162.198658 
L 286.844588 161.991635 
L 287.690469 168.557894 
L 287.97243 170.101679 
L 288.536351 175.877846 
L 289.100272 179.87699 
L 289.946154 189.605307 
L 290.510075 194.716519 
L 290.792036 194.308865 
L 291.073996 188.722071 
L 291.637918 165.089473 
L 293.329681 86.85447 
L 294.457524 43.150758 
L 294.739484 38.759669 
L 295.021445 37.130971 
L 295.303405 37.511938 
L 295.585366 39.826552 
L 295.867326 46.189239 
L 296.149287 59.580101 
L 297.55909 154.492833 
L 297.841051 165.206822 
L 298.123011 170.405125 
L 298.404972 171.65129 
L 298.686932 170.696 
L 300.096735 158.126359 
L 300.378696 154.434359 
L 300.660656 152.884397 
L 301.224578 154.764859 
L 301.506538 154.00663 
L 301.788499 154.020264 
L 302.35242 158.598971 
L 302.916341 159.789037 
L 303.762223 165.174989 
L 304.044183 166.208776 
L 305.453986 173.425791 
L 306.017908 175.947325 
L 307.14575 185.637497 
L 307.991632 193.905122 
L 308.273592 193.879946 
L 308.555553 188.792379 
L 309.119474 163.684126 
L 310.529277 96.176942 
L 311.93908 43.053695 
L 312.22104 40.878743 
L 312.503001 40.071033 
L 312.784962 40.746735 
L 313.066922 44.422052 
L 313.348883 52.911694 
L 313.912804 86.053633 
L 314.758686 143.216689 
L 315.322607 166.410142 
L 315.604567 170.252364 
L 315.886528 171.435553 
L 316.168489 171.239864 
L 316.450449 169.543517 
L 317.296331 160.779715 
L 317.860252 158.042021 
L 318.424173 156.201652 
L 318.706134 156.10612 
L 319.270055 156.713601 
L 319.552016 156.705753 
L 319.833976 157.25615 
L 320.679858 163.661706 
L 321.243779 164.870373 
L 322.089661 169.703638 
L 322.653582 175.076072 
L 324.909267 197.649744 
L 325.191227 198.509136 
L 325.473188 195.970178 
L 325.755149 188.370591 
L 326.31907 160.896249 
L 328.292794 60.621702 
L 328.856715 42.910906 
L 329.138676 38.442381 
L 329.420636 35.777831 
L 329.702597 34.84885 
L 329.984557 35.867451 
L 330.266518 39.940827 
L 330.548479 49.223661 
L 331.1124 83.498075 
L 331.958281 134.403995 
L 332.522203 161.132343 
L 332.804163 169.324944 
L 333.086124 172.686582 
L 333.368084 173.154782 
L 333.650045 172.514473 
L 333.932006 170.752708 
L 334.495927 166.577595 
L 334.777887 165.676672 
L 335.059848 163.48306 
L 335.623769 156.484 
L 335.90573 155.850275 
L 336.751611 158.470201 
L 337.033572 159.145087 
L 337.315533 160.245855 
L 338.161414 165.139627 
L 338.725336 166.939204 
L 339.007296 168.918329 
L 339.853178 176.983719 
L 340.417099 180.402975 
L 340.98102 185.028009 
L 341.544941 191.757372 
L 342.390823 202.510749 
L 342.672784 203.02829 
L 342.954744 198.870041 
L 343.236705 188.812003 
L 345.77435 57.046892 
L 346.338271 43.822228 
L 346.620232 40.060733 
L 346.902193 37.937737 
L 347.184153 38.081648 
L 347.466114 39.605754 
L 347.748074 43.386254 
L 348.030035 52.963175 
L 349.721798 144.760521 
L 350.28572 163.828576 
L 350.56768 169.98601 
L 350.849641 171.082681 
L 351.977483 163.172029 
L 352.823365 157.064724 
L 353.105325 156.145009 
L 353.951207 158.650419 
L 354.233168 158.741563 
L 354.797089 160.031111 
L 355.07905 161.217499 
L 355.642971 164.909312 
L 355.924931 166.13531 
L 356.206892 168.324888 
L 357.052774 179.854207 
L 357.898655 187.564474 
L 359.590419 207.177839 
L 359.87238 208.762968 
L 360.15434 205.234935 
L 360.436301 194.344345 
L 362.410025 83.163835 
L 362.973946 58.182613 
L 363.537867 47.845951 
L 364.101788 40.333293 
L 364.383749 39.72313 
L 364.665709 40.554865 
L 364.94767 42.767305 
L 365.229631 49.153486 
L 365.793552 75.133099 
L 367.203355 141.930046 
L 367.767276 159.99338 
L 368.049237 165.05774 
L 368.613158 169.756391 
L 368.895118 170.647376 
L 369.177079 170.067829 
L 370.022961 164.689789 
L 370.868842 162.934094 
L 371.150803 163.143471 
L 371.996685 166.383891 
L 373.124527 172.126133 
L 373.406488 174.044713 
L 374.816291 187.775308 
L 375.380212 196.075495 
L 376.226094 212.48555 
L 376.508054 219.179598 
L 376.790015 222.785761 
L 377.071975 219.286314 
L 377.353936 208.392357 
L 377.917857 173.447346 
L 379.045699 101.774684 
L 379.609621 70.498047 
L 380.455502 42.724594 
L 381.019423 27.551132 
L 381.583345 20.448469 
L 381.865305 19.629105 
L 382.147266 24.345305 
L 382.711187 49.91989 
L 383.839029 108.390408 
L 384.684911 156.794096 
L 385.248832 172.225363 
L 385.530793 176.619788 
L 385.812753 178.105193 
L 386.094714 177.48459 
L 386.376675 175.635522 
L 386.940596 170.639184 
L 387.504517 169.572666 
L 388.068438 164.198893 
L 388.350399 164.783212 
L 388.91432 170.019951 
L 389.478241 173.778588 
L 390.606083 182.20108 
L 391.733926 192.427526 
L 392.015886 193.526714 
L 392.297847 195.834226 
L 393.425689 211.944889 
L 393.70765 218.46595 
L 393.98961 222.174055 
L 394.271571 218.995997 
L 394.553532 208.534779 
L 395.681374 138.861453 
L 396.809216 68.37446 
L 398.219019 17.891352 
L 398.78294 12.096 
L 399.064901 12.740613 
L 399.346862 20.081296 
L 400.474704 78.024448 
L 401.320586 123.506336 
L 402.166467 156.444621 
L 402.730389 171.174381 
L 403.29431 176.721808 
L 403.57627 178.564221 
L 403.858231 179.328402 
L 404.140192 178.215905 
L 404.704113 174.404336 
L 405.268034 172.919414 
L 405.831955 171.655553 
L 406.113916 171.9504 
L 406.677837 174.256661 
L 407.241758 177.282431 
L 407.805679 182.078491 
L 410.061364 210.900673 
L 410.625285 220.549727 
L 410.907246 223.061268 
L 411.189206 222.199952 
L 411.471167 214.257674 
L 412.035088 175.959186 
L 413.444891 78.770802 
L 414.290773 38.200549 
L 415.136654 18.530906 
L 415.418615 13.979733 
L 415.700576 13.145882 
L 415.982536 16.887827 
L 416.264497 25.664666 
L 419.084103 154.150785 
L 419.648024 167.296588 
L 420.211945 172.344201 
L 420.493906 174.346595 
L 421.057827 175.770889 
L 421.621748 179.005628 
L 422.185669 177.919865 
L 422.74959 179.694315 
L 423.031551 180.624423 
L 423.595472 184.004794 
L 424.159393 189.166109 
L 426.697038 221.914621 
L 427.26096 230.735412 
L 427.54292 232.058278 
L 427.824881 226.709429 
L 428.106841 213.613699 
L 428.670763 172.143309 
L 429.798605 77.657491 
L 430.362526 45.905362 
L 430.926447 29.726614 
L 431.490368 17.925305 
L 431.772329 15.129344 
L 432.05429 14.807908 
L 432.33625 16.540771 
L 432.618211 21.413653 
L 433.182132 41.434786 
L 435.155856 123.483151 
L 436.565659 160.900462 
L 436.84762 163.25047 
L 437.975462 176.256809 
L 438.539383 179.684395 
L 438.821344 180.567713 
L 439.103304 180.801899 
L 439.385265 181.667312 
L 439.667225 182.954829 
L 439.949186 183.495013 
L 440.231147 184.688172 
L 441.077028 196.263798 
L 441.358989 196.685982 
L 441.64095 199.269651 
L 441.92291 203.362479 
L 442.204871 205.349184 
L 442.486831 205.73265 
L 442.768792 207.726447 
L 443.332713 217.112187 
L 444.178595 232.898864 
L 444.460555 235.873752 
L 444.742516 234.26361 
L 445.024477 224.148653 
L 445.588398 181.441539 
L 446.71624 82.646267 
L 447.280161 51.575844 
L 447.844082 32.261574 
L 448.408004 19.642242 
L 448.689964 17.037498 
L 448.971925 17.258949 
L 449.253885 19.492947 
L 449.535846 24.017849 
L 449.817806 32.368974 
L 451.50957 104.938195 
L 452.073491 121.162499 
L 452.919373 132.648118 
L 453.765255 141.982145 
L 454.611136 148.830534 
L 455.175058 160.452576 
L 456.020939 177.411644 
L 456.584861 185.275486 
L 459.404466 217.546472 
L 460.250348 224.88745 
L 461.09623 236.535699 
L 461.378191 236.92874 
L 461.660151 229.357929 
L 461.942112 212.723443 
L 462.787993 134.386357 
L 463.351915 87.71186 
L 463.915836 57.700252 
L 464.761718 33.716614 
L 465.043678 28.686733 
L 465.325639 27.639576 
L 465.88956 30.675695 
L 466.17152 33.253354 
L 466.453481 39.19724 
L 467.017402 62.952793 
L 467.581323 85.362931 
L 468.709166 115.756468 
L 469.273087 126.999691 
L 469.555048 129.936575 
L 469.837008 131.063171 
L 470.118969 132.823813 
L 470.68289 139.086144 
L 471.246811 141.770207 
L 471.528772 146.11846 
L 472.092693 159.67069 
L 473.220535 179.275741 
L 474.066417 193.314941 
L 474.912299 205.873485 
L 475.47622 214.927173 
L 476.040141 224.023352 
L 476.322102 225.798635 
L 476.604062 228.823653 
L 477.167983 237.76825 
L 477.731905 241.007146 
L 478.013865 242.072572 
L 478.295826 237.343219 
L 478.577786 222.488239 
L 479.141707 170.483601 
L 479.987589 92.014937 
L 480.55151 58.937378 
L 481.115432 36.164399 
L 481.397392 29.709997 
L 481.679353 26.165734 
L 481.961313 25.445334 
L 482.243274 26.959829 
L 482.525234 30.27839 
L 482.807195 35.998348 
L 483.371116 55.583774 
L 484.498959 99.210755 
L 485.06288 113.152234 
L 486.190722 129.918149 
L 486.472683 131.180342 
L 487.036604 132.082008 
L 487.318564 132.08204 
L 487.600525 131.677041 
L 487.882486 131.601988 
L 488.164446 132.396818 
L 488.446407 134.319493 
L 488.728367 137.661425 
L 489.292289 147.969744 
L 492.675816 219.455027 
L 492.957776 222.614647 
L 493.521697 224.267906 
L 494.085619 228.751372 
L 494.367579 229.791423 
L 494.64954 231.979812 
L 495.213461 242.998769 
L 495.495421 243.679883 
L 495.777382 234.291802 
L 496.341303 188.238287 
L 497.187185 105.435763 
L 497.751106 73.264908 
L 498.315027 48.482685 
L 498.878948 34.091747 
L 499.160909 30.394293 
L 499.44287 29.237367 
L 499.72483 31.701056 
L 500.288751 43.783989 
L 500.852673 63.125425 
L 501.698554 99.527985 
L 502.262476 112.20368 
L 503.108357 125.20133 
L 503.672278 132.132224 
L 504.2362 134.465892 
L 504.51816 135.206881 
L 505.082081 135.38272 
L 505.646003 137.535902 
L 505.927963 138.697316 
L 506.491884 143.156797 
L 507.055805 148.868849 
L 510.721293 214.359877 
L 511.285214 221.334502 
L 511.849135 231.670271 
L 512.695017 239.92822 
L 512.976978 238.912402 
L 513.258938 228.208567 
L 513.82286 178.922246 
L 514.386781 122.58016 
L 514.950702 85.334319 
L 515.514623 57.780053 
L 515.796584 49.338451 
L 516.360505 40.082895 
L 516.642465 36.880197 
L 516.924426 37.785802 
L 517.770308 51.440955 
L 518.052268 61.125175 
L 518.89815 99.293565 
L 519.744032 120.085959 
L 520.025992 124.453088 
L 520.307953 125.901472 
L 520.589914 125.422595 
L 520.871874 125.22741 
L 521.435795 127.241497 
L 521.717756 127.425584 
L 521.999717 127.297905 
L 522.281677 127.783951 
L 522.563638 129.161644 
L 523.69148 137.698581 
L 525.101283 155.96544 
L 528.202849 220.264986 
L 529.048731 239.628733 
L 529.612652 251.619959 
L 529.894613 254.016 
L 530.176574 249.785319 
L 530.458534 235.837747 
L 531.022455 181.962635 
L 531.586376 126.636004 
L 532.432258 68.998805 
L 532.714219 57.236994 
L 532.996179 50.591018 
L 533.27814 46.6067 
L 533.560101 44.299781 
L 533.842061 44.183784 
L 534.124022 46.066247 
L 534.405982 49.627412 
L 534.969904 62.350987 
L 535.533825 83.100323 
L 536.097746 104.048481 
L 536.661667 117.084094 
L 537.225588 126.829416 
L 537.507549 129.835689 
L 537.789509 131.399779 
L 538.353431 132.465427 
L 538.635391 132.898413 
L 539.199312 133.018129 
L 539.481273 134.253782 
L 540.045194 139.647107 
L 540.327155 140.835406 
L 540.609115 140.921331 
L 540.891076 141.804238 
L 541.454997 146.327159 
L 542.018918 148.263542 
L 542.300879 151.524225 
L 542.8648 160.106507 
L 543.428721 165.277354 
L 543.992642 176.691748 
L 544.556563 188.128872 
L 545.120485 199.574969 
L 545.684406 209.68152 
L 545.966366 213.36133 
L 547.376169 239.403926 
L 547.65813 235.664177 
L 547.94009 222.553496 
L 548.504012 167.478047 
L 549.067933 113.717878 
L 549.913815 72.163714 
L 550.195775 62.29505 
L 550.477736 56.618046 
L 550.759696 53.660908 
L 551.041657 52.473385 
L 551.323618 53.58298 
L 551.887539 61.021975 
L 552.45146 73.408994 
L 553.861263 116.969894 
L 554.143223 122.728478 
L 554.989105 131.509796 
L 555.271066 131.520672 
L 555.834987 127.742077 
L 556.116947 127.401267 
L 556.398908 128.349264 
L 556.962829 131.056661 
L 557.52675 133.245059 
L 558.090672 136.346037 
L 558.372632 138.501115 
L 558.936553 145.176767 
L 560.346356 166.050537 
L 560.910277 176.111368 
L 561.756159 181.938925 
L 562.884002 195.192791 
L 564.293804 224.952668 
L 564.575765 226.836991 
L 564.857726 220.749624 
L 565.139686 201.64732 
L 565.985568 124.093002 
L 566.83145 84.579234 
L 567.11341 77.577956 
L 567.677332 70.176535 
L 567.959292 68.407251 
L 568.241253 69.062703 
L 568.523213 71.253557 
L 568.805174 74.489699 
L 569.087134 79.860749 
L 570.778898 126.596553 
L 571.62478 133.648444 
L 571.90674 135.319749 
L 572.470661 136.644313 
L 573.316543 138.549321 
L 573.598504 138.303161 
L 573.880464 138.216819 
L 574.444386 140.374311 
L 574.726346 140.473033 
L 575.008307 139.783662 
L 575.290267 139.626872 
L 575.572228 140.707436 
L 576.41811 146.337491 
L 576.70007 149.584338 
L 577.263991 159.495722 
L 578.673794 174.086139 
L 579.519676 188.593403 
L 579.801637 190.600441 
L 580.647518 204.832434 
L 580.929479 205.025507 
L 581.21144 203.928854 
L 581.4934 197.262069 
L 582.903203 118.052223 
L 583.467124 99.302169 
L 584.031046 90.035506 
L 584.594967 84.732635 
L 584.876927 82.734642 
L 585.158888 83.088158 
L 586.00477 93.517405 
L 586.28673 98.731243 
L 587.132612 123.963866 
L 587.414573 128.28577 
L 587.978494 132.309668 
L 588.542415 134.625741 
L 588.824375 135.073441 
L 589.106336 135.098697 
L 589.388297 135.396903 
L 591.643981 143.246292 
L 592.207903 145.651657 
L 592.771824 148.394596 
L 593.617705 153.784581 
L 593.899666 156.173099 
L 594.181627 156.669106 
L 594.745548 153.262386 
L 595.027508 155.429305 
L 595.309469 159.073632 
L 595.87339 162.758652 
L 596.155351 168.288818 
L 596.719272 184.791429 
L 597.283193 192.032857 
L 597.847114 200.638402 
L 598.129075 201.627626 
L 598.411035 194.093482 
L 599.820838 122.066531 
L 600.38476 105.341196 
L 600.948681 95.628792 
L 601.230641 92.925053 
L 601.512602 91.913419 
L 601.794562 91.920374 
L 602.076523 92.138118 
L 602.358484 92.983933 
L 602.640444 96.382542 
L 604.332208 130.352714 
L 604.896129 135.293224 
L 605.178089 136.863236 
L 605.46005 137.725937 
L 606.023971 138.10811 
L 606.587892 139.206542 
L 606.869853 139.356403 
L 607.433774 138.677975 
L 607.715735 138.955492 
L 607.997695 139.058198 
L 608.279656 138.781802 
L 608.561617 139.213244 
L 609.125538 142.572428 
L 609.689459 144.083119 
L 611.663183 156.098406 
L 612.791025 164.93929 
L 613.354946 167.114596 
L 613.918868 173.052452 
L 614.764749 182.25989 
L 615.04671 187.093842 
L 615.328671 189.860654 
L 615.610631 185.898659 
L 616.174552 156.639688 
L 616.738474 131.775819 
L 617.584355 109.063872 
L 618.148276 101.455675 
L 618.430237 99.877693 
L 618.712198 99.031557 
L 618.994158 99.070729 
L 619.276119 99.812813 
L 619.558079 101.361377 
L 619.84004 103.588694 
L 620.403961 110.850586 
L 620.967882 122.391438 
L 621.531803 133.158102 
L 621.813764 135.151301 
L 622.659646 138.210155 
L 622.941606 137.888863 
L 623.223567 136.886645 
L 623.505528 137.588053 
L 624.069449 142.733756 
L 624.351409 142.222585 
L 624.63337 141.051123 
L 624.915331 141.563259 
L 625.197291 142.65318 
L 625.479252 141.371878 
L 625.761212 139.54729 
L 626.043173 139.335578 
L 626.889055 143.094604 
L 627.171015 145.541679 
L 627.452976 146.704453 
L 627.734936 145.476101 
L 628.016897 145.291217 
L 628.580818 148.897191 
L 628.862779 149.432672 
L 629.144739 151.338756 
L 629.990621 161.459461 
L 631.682385 174.334208 
L 632.528266 181.623616 
L 632.810227 178.518178 
L 633.092188 172.287101 
L 633.092188 172.287101 
" clip-path="url(#p0925a4ec30)" style="fill: none; stroke: #1f77b4; stroke-width: 1.5; stroke-linecap: square"/>
   </g>
   <g id="patch_3">
    <path d="M 47.192188 266.112 
L 47.192188 0 
" style="fill: none; stroke: #000000; stroke-width: 0.8; stroke-linejoin: miter; stroke-linecap: square"/>
   </g>
   <g id="patch_4">
    <path d="M 660.992188 266.112 
L 660.992188 0 
" style="fill: none; stroke: #000000; stroke-width: 0.8; stroke-linejoin: miter; stroke-linecap: square"/>
   </g>
   <g id="patch_5">
    <path d="M 47.192188 266.112 
L 660.992188 266.112 
" style="fill: none; stroke: #000000; stroke-width: 0.8; stroke-linejoin: miter; stroke-linecap: square"/>
   </g>
   <g id="patch_6">
    <path d="M 47.192188 0 
L 660.992188 0 
" style="fill: none; stroke: #000000; stroke-width: 0.8; stroke-linejoin: miter; stroke-linecap: square"/>
   </g>
  </g>
 </g>
 <defs>
  <clipPath id="p0925a4ec30">
   <rect x="47.192188" y="0" width="613.8" height="266.112"/>
  </clipPath>
 </defs>
</svg>
