<svg xmlns="http://www.w3.org/2000/svg" xmlns:xlink="http://www.w3.org/1999/xlink" width="913.477" height="377.053" viewBox="0 0 685.107 282.79"><defs><style>*{stroke-linejoin:round;stroke-linecap:butt}</style></defs><g id="figure_1"><path id="patch_1" d="M0 282.79h685.107V0H0v282.79z" style="fill:none"/><g id="axes_1"><path id="patch_2" d="M71.308 266.112h613.8V0h-613.8v266.112z" style="fill:none"/><g id="matplotlib.axis_1"><g id="xtick_1"><g id="line2d_1"><defs><path id="m224a0af89a" d="M0 0v3.5" style="stroke:gray;stroke-width:.8"/></defs><use xlink:href="#m224a0af89a" x="99.207" y="266.112" style="fill:gray;stroke:gray;stroke-width:.8"/></g><g id="text_1" style="fill:gray" transform="matrix(.1 0 0 -.1 96.026 280.71)"><defs><path id="DejaVuSans-30" d="M2034 4250q-487 0-733-480-245-479-245-1442 0-959 245-1439 246-480 733-480 491 0 736 480 246 480 246 1439 0 963-246 1442-245 480-736 480zm0 500q785 0 1199-621 414-620 414-1801 0-1178-414-1799Q2819-91 2034-91q-784 0-1198 620-414 621-414 1799 0 1181 414 1801 414 621 1198 621z" transform="scale(.01563)"/></defs><use xlink:href="#DejaVuSans-30"/></g></g><g id="xtick_2"><use xlink:href="#m224a0af89a" id="line2d_2" x="168.958" y="266.112" style="fill:gray;stroke:gray;stroke-width:.8"/><g id="text_2" style="fill:gray" transform="matrix(.1 0 0 -.1 159.414 280.71)"><defs><path id="DejaVuSans-35" d="M691 4666h2478v-532H1269V2991q137 47 274 70 138 23 276 23 781 0 1237-428 457-428 457-1159 0-753-469-1171Q2575-91 1722-91q-294 0-599 50Q819 9 494 109v635q281-153 581-228t634-75q541 0 856 284 316 284 316 772 0 487-316 771-315 285-856 285-253 0-505-56-251-56-513-175v2344z" transform="scale(.01563)"/></defs><use xlink:href="#DejaVuSans-35"/><use xlink:href="#DejaVuSans-30" x="63.623"/><use xlink:href="#DejaVuSans-30" x="127.246"/></g></g><g id="xtick_3"><use xlink:href="#m224a0af89a" id="line2d_3" x="238.708" y="266.112" style="fill:gray;stroke:gray;stroke-width:.8"/><g id="text_3" style="fill:gray" transform="matrix(.1 0 0 -.1 225.982 280.71)"><defs><path id="DejaVuSans-31" d="M794 531h1031v3560L703 3866v575l1116 225h631V531h1031V0H794v531z" transform="scale(.01563)"/></defs><use xlink:href="#DejaVuSans-31"/><use xlink:href="#DejaVuSans-30" x="63.623"/><use xlink:href="#DejaVuSans-30" x="127.246"/><use xlink:href="#DejaVuSans-30" x="190.869"/></g></g><g id="xtick_4"><use xlink:href="#m224a0af89a" id="line2d_4" x="308.457" y="266.112" style="fill:gray;stroke:gray;stroke-width:.8"/><g id="text_4" style="fill:gray" transform="matrix(.1 0 0 -.1 295.733 280.71)"><use xlink:href="#DejaVuSans-31"/><use xlink:href="#DejaVuSans-35" x="63.623"/><use xlink:href="#DejaVuSans-30" x="127.246"/><use xlink:href="#DejaVuSans-30" x="190.869"/></g></g><g id="xtick_5"><use xlink:href="#m224a0af89a" id="line2d_5" x="378.207" y="266.112" style="fill:gray;stroke:gray;stroke-width:.8"/><g id="text_5" style="fill:gray" transform="matrix(.1 0 0 -.1 365.483 280.71)"><defs><path id="DejaVuSans-32" d="M1228 531h2203V0H469v531q359 372 979 998 621 627 780 809 303 340 423 576 121 236 121 464 0 372-261 606-261 235-680 235-297 0-627-103-329-103-704-313v638q381 153 712 231 332 78 607 78 725 0 1156-363 431-362 431-968 0-288-108-546-107-257-392-607-78-91-497-524-418-433-1181-1211z" transform="scale(.01563)"/></defs><use xlink:href="#DejaVuSans-32"/><use xlink:href="#DejaVuSans-30" x="63.623"/><use xlink:href="#DejaVuSans-30" x="127.246"/><use xlink:href="#DejaVuSans-30" x="190.869"/></g></g><g id="xtick_6"><use xlink:href="#m224a0af89a" id="line2d_6" x="447.957" y="266.112" style="fill:gray;stroke:gray;stroke-width:.8"/><g id="text_6" style="fill:gray" transform="matrix(.1 0 0 -.1 435.233 280.71)"><use xlink:href="#DejaVuSans-32"/><use xlink:href="#DejaVuSans-35" x="63.623"/><use xlink:href="#DejaVuSans-30" x="127.246"/><use xlink:href="#DejaVuSans-30" x="190.869"/></g></g><g id="xtick_7"><use xlink:href="#m224a0af89a" id="line2d_7" x="517.707" y="266.112" style="fill:gray;stroke:gray;stroke-width:.8"/><g id="text_7" style="fill:gray" transform="matrix(.1 0 0 -.1 504.983 280.71)"><defs><path id="DejaVuSans-33" d="M2597 2516q453-97 707-404 255-306 255-756 0-690-475-1069Q2609-91 1734-91q-293 0-604 58T488 141v609q262-153 574-231 313-78 654-78 593 0 904 234t311 681q0 413-289 645-289 233-804 233h-544v519h569q465 0 712 186t247 536q0 359-255 551-254 193-729 193-260 0-557-57-297-56-653-174v562q360 100 674 150t592 50q719 0 1137-327 419-326 419-882 0-388-222-655t-631-370z" transform="scale(.01563)"/></defs><use xlink:href="#DejaVuSans-33"/><use xlink:href="#DejaVuSans-30" x="63.623"/><use xlink:href="#DejaVuSans-30" x="127.246"/><use xlink:href="#DejaVuSans-30" x="190.869"/></g></g><g id="xtick_8"><use xlink:href="#m224a0af89a" id="line2d_8" x="587.457" y="266.112" style="fill:gray;stroke:gray;stroke-width:.8"/><g id="text_8" style="fill:gray" transform="matrix(.1 0 0 -.1 574.732 280.71)"><use xlink:href="#DejaVuSans-33"/><use xlink:href="#DejaVuSans-35" x="63.623"/><use xlink:href="#DejaVuSans-30" x="127.246"/><use xlink:href="#DejaVuSans-30" x="190.869"/></g></g><g id="xtick_9"><use xlink:href="#m224a0af89a" id="line2d_9" x="657.207" y="266.112" style="fill:gray;stroke:gray;stroke-width:.8"/><g id="text_9" style="fill:gray" transform="matrix(.1 0 0 -.1 644.482 280.71)"><defs><path id="DejaVuSans-34" d="M2419 4116 825 1625h1594v2491zm-166 550h794V1625h666v-525h-666V0h-628v1100H313v609l1940 2957z" transform="scale(.01563)"/></defs><use xlink:href="#DejaVuSans-34"/><use xlink:href="#DejaVuSans-30" x="63.623"/><use xlink:href="#DejaVuSans-30" x="127.246"/><use xlink:href="#DejaVuSans-30" x="190.869"/></g></g></g><g id="matplotlib.axis_2"><g id="ytick_1"><g id="line2d_10"><defs><path id="m58c0df93e6" d="M0 0h-3.5" style="stroke:gray;stroke-width:.8"/></defs><use xlink:href="#m58c0df93e6" x="71.308" y="250.283" style="fill:gray;stroke:gray;stroke-width:.8"/></g><g id="text_10" style="fill:gray" transform="matrix(.16 0 0 -.16 0 256.362)"><defs><path id="DejaVuSans-2212" d="M678 2272h4006v-531H678v531z" transform="scale(.01563)"/></defs><use xlink:href="#DejaVuSans-2212"/><use xlink:href="#DejaVuSans-34" x="83.789"/><use xlink:href="#DejaVuSans-30" x="147.412"/><use xlink:href="#DejaVuSans-30" x="211.035"/><use xlink:href="#DejaVuSans-30" x="274.658"/><use xlink:href="#DejaVuSans-30" x="338.281"/></g></g><g id="ytick_2"><use xlink:href="#m58c0df93e6" id="line2d_11" x="71.308" y="202.266" style="fill:gray;stroke:gray;stroke-width:.8"/><g id="text_11" style="fill:gray" transform="matrix(.16 0 0 -.16 0 208.345)"><use xlink:href="#DejaVuSans-2212"/><use xlink:href="#DejaVuSans-32" x="83.789"/><use xlink:href="#DejaVuSans-30" x="147.412"/><use xlink:href="#DejaVuSans-30" x="211.035"/><use xlink:href="#DejaVuSans-30" x="274.658"/><use xlink:href="#DejaVuSans-30" x="338.281"/></g></g><g id="ytick_3"><use xlink:href="#m58c0df93e6" id="line2d_12" x="71.308" y="154.249" style="fill:gray;stroke:gray;stroke-width:.8"/><use xlink:href="#DejaVuSans-30" id="text_12" style="fill:gray" transform="matrix(.16 0 0 -.16 54.127 160.328)"/></g><g id="ytick_4"><use xlink:href="#m58c0df93e6" id="line2d_13" x="71.308" y="106.232" style="fill:gray;stroke:gray;stroke-width:.8"/><g id="text_13" style="fill:gray" transform="matrix(.16 0 0 -.16 13.408 112.311)"><use xlink:href="#DejaVuSans-32"/><use xlink:href="#DejaVuSans-30" x="63.623"/><use xlink:href="#DejaVuSans-30" x="127.246"/><use xlink:href="#DejaVuSans-30" x="190.869"/><use xlink:href="#DejaVuSans-30" x="254.492"/></g></g><g id="ytick_5"><use xlink:href="#m58c0df93e6" id="line2d_14" x="71.308" y="58.215" style="fill:gray;stroke:gray;stroke-width:.8"/><g id="text_14" style="fill:gray" transform="matrix(.16 0 0 -.16 13.408 64.294)"><use xlink:href="#DejaVuSans-34"/><use xlink:href="#DejaVuSans-30" x="63.623"/><use xlink:href="#DejaVuSans-30" x="127.246"/><use xlink:href="#DejaVuSans-30" x="190.869"/><use xlink:href="#DejaVuSans-30" x="254.492"/></g></g><g id="ytick_6"><use xlink:href="#m58c0df93e6" id="line2d_15" x="71.308" y="10.198" style="fill:gray;stroke:gray;stroke-width:.8"/><g id="text_15" style="fill:gray" transform="matrix(.16 0 0 -.16 13.408 16.277)"><defs><path id="DejaVuSans-36" d="M2113 2584q-425 0-674-291-248-290-248-796 0-503 248-796 249-292 674-292t673 292q248 293 248 796 0 506-248 796-248 291-673 291zm1253 1979v-575q-238 112-480 171-242 60-480 60-625 0-955-422-329-422-376-1275 184 272 462 417 279 145 613 145 703 0 1111-427 408-426 408-1160 0-719-425-1154Q2819-91 2113-91q-810 0-1238 620-428 621-428 1799 0 1106 525 1764t1409 658q238 0 480-47t505-140z" transform="scale(.01563)"/></defs><use xlink:href="#DejaVuSans-36"/><use xlink:href="#DejaVuSans-30" x="63.623"/><use xlink:href="#DejaVuSans-30" x="127.246"/><use xlink:href="#DejaVuSans-30" x="190.869"/><use xlink:href="#DejaVuSans-30" x="254.492"/></g></g></g><path id="line2d_16" d="m99.207 154.275.846-.054.282.057.282-.058.282.06.282-.062.282.063.282-.064.282.066.282-.068.282.07.282-.072.282.074.282-.076.282.078.282-.08.282.083.282-.086.282.088.282-.091.282.095.282-.099.282.102.282-.105.281.11.282-.115.282.12.282-.125.282.13.282-.136.282.142.282-.15.282.159.282-.168.282.178.282-.19.282.203.282-.218.282.236.282-.256.282.28.282-.31.282.347.282-.393.282.453.282-.535.282.653.282-.837.282 1.166.281-1.912.282 14.402.282 4.901.282-3.647.282-.447.282-2.32.282-.755.564-5.672.564-8.335.282-3.397.564-2.954.282-.54.282-1.076.564-.908.564.838.282.955.282 1.42.564 3.669.564 3.032.563 4.02 1.692 6.925.282.809.564.772.282.62.564 2.64.282.814.564-.28.282.266.846 2.489.564 2.943.564 1.363.563 2.028.282-.921.282-3.308.282-6.577.564-24.529 1.128-54.203.282-5.176.282 2.371.564 18.114 1.128 45.97.564 10.802.564 6.886.282 2.278 1.127 4.102.282-.691 1.128-6.313.564-3.14.846-6.135.282-.495.282-1.31.282-2.185.282-.953.282.395.282.097.282-.641.282.168.564 1.833.282.465.564 1.843.281.08.282-.372.282.177 1.41 2.216.282.153.282.344.282.65.846.994 1.128 3.88.564 2.26 1.128 2.74 1.41 6.574.281 1.576.282.529.282-2.203.282-5.628.282-9.508.564-30.01.564-31.373.564-18.312.282-2.015.282 3.592.564 18.971 1.128 49.07.564 12.194.563 7.05.564 3.703.282.327.282-.828.846-3.897 2.538-15.434.282-.763.282-.344.282-.106.282.058 1.128 1.074.563.961.282-.002.282-.134.846.473.282-.228.282-.034.282.49.846 2.866.282.136.564-.037.282.545.846 3.312.282.375.282.66 1.973 10.491.564 1.442.564 2.39.846 4.605.282-1.084.282-4.545.282-8.702.564-29.752.846-52.375.564-20.09.282-2.713.282 2.015.282 5.974.564 22.322 1.127 52.399.564 13.018.282 3.15.282 1.783.282.877.282.261.282-.749 1.128-7.995.564-6.471.282-.879.564 1.397.282-.07.282.578 1.127 4.952 1.692 12.02.846 8.858.282.047.564-2.253.564-2.608.564-1.37.564-1.136.282-.13.564.072.564.447.282.033.281.208.564 1.898.282.345.282.147.282.967.282 1.366.282.668.282-.013.282.347.564 2.026.846 3.791.564.385.282-.513.282-3.756.282-8.517.564-26.48 1.128-66.467.281-7.141.282-2.973.282 1.295.282 6.474.564 25.18.846 43.41.564 15.905.564 7.92.564 3.941.282.915.282-.05.282-1.037 1.41-8.184.564-4.33.563-3.229.564-3.806.282-.85.282-.445.282-.213.282.356.564 2.173 1.692 8.646 1.41 4.51.564 3.056.282-.066.282-.99.281.052.282.9.564.18.282 2.49.564 7.202.282.54.282.231 1.128 4.977 1.692 12.769.282-1.272.282-3.944.282-8.23.564-33.563 1.127-77.902.282-11.538.282-6.284.282-1.282.282 4.062.564 20.987.564 29.834.846 47.157.564 13.662.282 2.712.282.92.282-.414.282-1.94 1.973-22.5.282-.479.846 4.182.282.157.282 1.239.564 4.663.564 3.725 1.974 16.251.282 2.455.282.166.564-3.801.282.183.282-.403.282-1.442.282.074.281 1.979.282 1.153.282-.222.282.63.564 3.042.282.475.282 1.305 1.128 7.956.282.927.282.043.282 1.078.564 4.391.282.959.282 1.966.564 5.547.282-1.277.282-4.706.282-8.284.282-13.539.563-44.55.846-69.261.564-29.896.282-7.473.282-.586.282 5.386.564 20.645.564 27.943 1.41 81.993.282 6.15.282 2.476.564 1.131.564 2.702.281.59.282.3.282.103.282-.519.282-1.256.846-5.123.282-.34.282.18.564.069.282.219.282-.157.564-1.833.564-.706.282-.358.282-.155.282.027.564-.37.846.987.281 1.128.282 1.705.282.583.282-.66.282.346.282 1.836.282.902.282-.787.282.116.564 4.105.282.03.282-.293.282.891.846 4.84.564 4.575.846 4.84 1.127 9.36.564 2.24.282.294.282-1.738.282-4.93.282-9.666.564-37.016 1.128-92.248.564-24.11.282-4.539.282 2.112.282 9.54.846 45.91 1.128 72.164.281 9.998.282 5.757.282 2.758.282.861.282-1.343.564-5.961.282-1.313.282-2.15.564-6.341.282.883.282 1.73.282.03.282-.593.564.277.282-.507.282.23.564 2.674.282.795.282 1.463.564 3.997.282 1.268.563 3.607.282.048.282-1.592.282-.824.564 2.273.282.061.282-.489.564-.292.282.096.282.871.846 4.262.846 6.682.846 2.231.282 1.204 1.973 13.704.282-1.184.282-4.809.282-9.752.564-38.313 1.128-93.382.564-27.986.282-3.745.282 2.433.282 6.919.564 22.605.846 46.284.845 52.843.564 18.427.282 3.467.564 3.054.282.62.282-.145.282-.343.282-.124.282-.306.282-1.152.282-2.405.846-9.13.846-3.502.282.093.564 1.61.846.162.563-1.143.282.088 1.41 2.648.282.1.282.561 1.128 4.887.846 8.963.564 2.563 2.255 18.948 1.128 15.07.282 2.267.282-.593.282-5.369.282-11.402.564-43.414 1.41-131.627.282-10.93.282-2.074.282 3.253.564 11.592.564 19.25.845 38.851 1.41 79.193.564 14.849.282 2.319.282-.054.282-.82.282-1.446.846-8.077.282-3.643.564-12.213.282-2.412.282.256.282-.253.282-.518.282 1.588.564 5.57.563 2.659 1.41 10.947.564 3.34.564 4.566.282.48.282-.893.846-3.6.282-.72h.282l1.128 3.727.282 1.731 1.127 10.084.846 8.72.846 7.944.846 10.698.282 1.079.282-3.047.282-8.882.282-16.082.564-52.291.846-88.172.564-37 .282-4.891.282 1.692.282 4.768.563 15.979.846 34.022 1.974 101.422.282 5.305.282 1.579.282.5.846 3.461.282-.131.282-.628.564-2.524.846-4.45.282-.71.845-.472.564-.734.846-1.296.282-.873.564-2.272.282.194.282.62.282.06.282-.192.282.578.564 2.56.564 1.764.846 5.385 1.41 12.21 1.127 11.949.564 6.51 1.128 14.007.282-.452.282-5.46.282-11.622.564-43.031 1.41-132.76.282-10.375.282-1.8.282 3.026.563 11.776.564 19.98 1.41 61.808.846 39.362.564 14.696.564 8.113.282 1.816.282.98.282.231.282-.846.564-4.138.846-8.041 1.127-4.42.564.269.282.637.564 3.266.282.482.282.165.282 1.238.564 3.382.282 1.31.282 2.34 1.128 12.612.282 1.711.282.193.564-2.001.282-.29.282 1.116.563 6.22.846 9.099.846 9.608 1.692 24.448.282-1.853.282-8.14.282-16.453.564-53.786 1.128-122.563.282-11.292.282-3.164.281.618.282 2.553.846 12.495.564 12.022.564 19.396 1.692 66.525.564 14.261.564 8.583.282 1.943.282.745.282-.256.282.043.282 2.033.563 6.792 1.128 7.83.846 7.118.564 2.488.564 3.486.282.725.282 2.016.282 3.634.282 1.955.282-1.937.282-3.428.282-1.878.282-.878.282-1.852 1.128-10.036.282-1.492.281-.055.282.925.282 1.418.282 2.268.564 8.327.846 12.991.846 11.425 1.692 27.763.282 1.368.282-3.785.282-11.625.564-48.567 1.127-129.386.282-15.311.282-5.897.282-1.073.282.776.564 3.673.282 2.178.282 3.318.564 12.58.846 28.04 2.256 84.317.564 11.606.281 3.329.282 1.153.564.692.282-.344.564-1.908.282-.84.282-2.543.282-3.813.282-2.116.282.835.282 1.646.564 1.397.564 3.178.282.248.282-.187.282.588.846 3.01.846 3.224.281 2.3.564 5.806.282.308.282-.968.282-.444.282.543.564 2.1.282 1.707.564 5.623 1.41 16.06 1.128 18.92.282 3.484.282.846.282-4.178.282-11.318.563-43.898 1.128-120.554.282-16.29.282-7.49.282-2.04.282.575.564 4.23.282 2.706.282 3.966.564 14.293 2.256 72.63.845 13.533.564 5.083.846 4.404.282 3.398.564 9.145.564 4.246.564 3.771.846 7.362.282 2.116.564 5.604.564 1.866.564 4.086.282-1.097.563-6.43.282-1.524.282-.538.282.32 1.128 4.369.564 4.86 1.128 14.422 1.41 21.581.846 16.17.282 4.291.282 1.792.282-4.31.281-12.625.564-48.298 1.128-122.445.282-13.88.564-13.125.282-2.835.282-.186.846 3.309.282 3.78.846 17.523 1.974 53.647.281 3.256.282 5.455.846 24.211.846 17.223.564 5.543.564 3.98.564 2.215.282 1.528.282.709.564-.302.282.315.564 1.057.282.122.282-.131.282.142.282.393.281-.275.282-1.116.282-.57.282.96.282 1.45.564 1.706.282 2.75.846 12.586.564 5.013.564 2.253.564 4.292.564 5.193.564 7.535L463.783 241l.563 10.031.282 2.985.282-3.016.282-11.836.564-49.192 1.128-129.506.282-15.275.282-7.659.282-2.716.282.024.282 1.409.564 4.886.564 8.315.846 18.36 1.973 56.086.846 18.027.282 3.221.282 1.641.282.233.282-.223.282.31.282-.238.282-2.003.282-1.053.282 3.767.564 12.7 4.23 36.446.281-1.535.282-2.668.282-.82.282.439.282-.23.282.017.846 5.829.282.818.282 2.362 1.128 13.96 1.127 21.492.564 7.73.282 2.062.282-3.39.282-11.07.564-44.174 1.128-119.73.282-13.692.282-5.68.282-1.013.282.745.282 1.64.564 7.05.564 10.381.846 23.104.845 21.64.564 9.31.564 5.77.564 2.53.564.238.282 2.012.846 12.47 1.128 9.671.564 5.287.564 4.879 1.127 8.34.564 2.917.282.315.282-.4.282.134 1.41 5.473.564 5.018 1.41 15.405.564 7.38.564 7.088.282 2.952 1.691 23.737.282-3.578.282-10.937.282-18.505.564-62.115.564-56.075.282-13.066.282-6.945.282-3.95.282-2.045.282-.63.282.813.564 5.349.564 7.987 2.255 47.891.564 6.459.282 2.058.564 8.217.564 7.277.564 3.484.564 2.263.282.32.846-.398.282-.018.282.207.282.83.564 2.52.282.631.845.596.282.355.282.644.846 3.287.282.152.282.8.564 2.448.282.43.282 1.567.846 8.898 1.128 7.725.564 4.981.846 7.948.845 7.564 1.128 12.485.282-2.412.282-9.568.564-45.099.564-43.988.564-20.095.282-6.441.282-3.863.282-1.346.282.078.282.96.564 4.319.564 6.14.845 13.82 1.128 21.907.846 13.036.564 4.478.282.986.564-.386.282.486.282-.409 1.41-8.701.282.516.282 1.373.282.295.282.605.845 9.285.564 2.857.846 5.68.564 2.895.564 2.533.282 1.455.282.418.564-1.357.282-.044.282.537.282.95.846 4.707.564 4.06.282 2.449.282 1.195.282-.228.281-.085.282 1.32 1.128 9.056.846 10.028.282 2.368.282-.066.282-6.167.282-15.012.846-60.97.564-22.663.282-6.645.282-2.961.282-.319.282.916.282 1.726.564 5.61.845 11.718 1.128 19.045.564 10.878.282 3.584.564 3.512.282 1.36.282-.281.282-1.347.282.07.564 3.718.282.527.282.84.564 3.383.282.079.282-.557.282.007.282.778.563 1.991.282.353.564.123.846.985.282-.243.282-.48.282-.025.846 1.206.564 3.72.282.514.282-.261.282.767.282 1.323.282.375.282.18.282 1.938.564 5.868.563 3.153.282.739.282.387.282 1.464.564 4.966.282 1.77.846 9.511.282-1.68.282-6.405.564-27.15.564-29.576.564-16.72.282-5.459.282-2.837.282-.717.282-.016.282.596.282 1.75 1.127 10.67 1.974 28.557.564 3.305 1.128 3.11.282.037.282-.315.282.004.282.274.282-.265.564-1.27.282-.012.282-.2.281-.368.282-.16.282-.374.282-1.105.282-.636.282 1.085.282 1.835.282.738.282.045.282.967.564 3.718.564 1.628.282.372.282.05.282.306 1.128 3.649.282.802.564 4.356.563 3.74.846 4.177.282.912.282 1.727 1.128 9.848.282 2.149.282.057.282-4.571.564-21.237.846-31.144.564-13.92.282-4.219.282-2.46.282-.955.282.082.564 1.013.281.759.282 1.212.282 1.896.564 6.095 1.41 16.8 1.128 9.18.282.496.564-.042.282.064.564-.657.282-.568.846-3.486.282 1.28.563 3.42.564 1.181.282 1.01.282.43.282-.099.282.45.564 2.948.282.474.282.198.282 1.129.564 2.677 1.128.827.282-.045.564.683.282.386.282.598.282 1.23.563 4.015 1.692 13.325 1.128 3.58.564 2.309.282-.587.282-5.134 1.692-60.23.282-4.688.282-2.806.282-1.643.282-.36.281.914.564 2.587.282 1.154.564 4.156.564 5.004 1.692 17.862.564 3.126.282.608.282-.144.282.224.564 3.001.282-.106.282-.66.282.409.282.667.281.033.282.507.564 3.75.282.191.282-.225.846 2.395.282-.164.564.337.564-.359.282.02.282-.74.282-1.213.282-.316.282.902.282.529.282-.183.282.514.564 3.766 1.127 3.61.564 3.287.564 2.842 1.41 5.664.564 3.265.282 1.316.282 1.945.282 1.147.282-1.802.282-5.312.564-16.084 1.128-35.788.282-3.807.563-3.236.282-.93.282.745 1.128 9.294.846 9.783 1.41 12.928.282.631.282-.969.282-1.444.282-.282 1.128 3.207.282.166.281-.186.846-2.822.282.336.564 1.218.282 1.215.282 1.732.282.994.282.572.282 1.336.282 2.179.282 1.04.282-.023.282.557.282 1.363.282-.58.564-5.312.282.244.564 1.922.282.545.282 2.12.281 1.133h0" clip-path="url(#pe4bbff9209)" style="fill:none;stroke:#1f77b4;stroke-width:1.5;stroke-linecap:square"/><path id="patch_3" d="M71.308 266.112V0" style="fill:none;stroke:gray;stroke-width:.8;stroke-linejoin:miter;stroke-linecap:square"/><path id="patch_4" d="M685.107 266.112V0" style="fill:none;stroke:#000;stroke-width:.8;stroke-linejoin:miter;stroke-linecap:square"/><path id="patch_5" d="M71.308 266.112h613.8" style="fill:none;stroke:gray;stroke-width:.8;stroke-linejoin:miter;stroke-linecap:square"/><path id="patch_6" d="M71.308 0h613.8" style="fill:none;stroke:#000;stroke-width:.8;stroke-linejoin:miter;stroke-linecap:square"/></g></g><defs><clipPath id="pe4bbff9209"><path d="M71.308 0h613.8v266.112h-613.8z"/></clipPath></defs></svg>