<?xml version="1.0" encoding="utf-8" standalone="no"?>
<!DOCTYPE svg PUBLIC "-//W3C//DTD SVG 1.1//EN"
  "http://www.w3.org/Graphics/SVG/1.1/DTD/svg11.dtd">
<svg xmlns:xlink="http://www.w3.org/1999/xlink" width="660.992188pt" height="282.790125pt" viewBox="0 0 660.992188 282.790125" xmlns="http://www.w3.org/2000/svg" version="1.1">
 <metadata>
  <rdf:RDF xmlns:dc="http://purl.org/dc/elements/1.1/" xmlns:cc="http://creativecommons.org/ns#" xmlns:rdf="http://www.w3.org/1999/02/22-rdf-syntax-ns#">
   <cc:Work>
    <dc:type rdf:resource="http://purl.org/dc/dcmitype/StillImage"/>
    <dc:date>2023-03-06T21:29:35.105129</dc:date>
    <dc:format>image/svg+xml</dc:format>
    <dc:creator>
     <cc:Agent>
      <dc:title>Matplotlib v3.6.3, https://matplotlib.org/</dc:title>
     </cc:Agent>
    </dc:creator>
   </cc:Work>
  </rdf:RDF>
 </metadata>
 <defs>
  <style type="text/css">*{stroke-linejoin: round; stroke-linecap: butt}</style>
 </defs>
 <g id="figure_1">
  <g id="patch_1">
   <path d="M -0 282.790125 
L 660.992188 282.790125 
L 660.992188 0 
L -0 0 
L -0 282.790125 
z
" style="fill: none"/>
  </g>
  <g id="axes_1">
   <g id="patch_2">
    <path d="M 47.192188 266.112 
L 660.992188 266.112 
L 660.992188 0 
L 47.192188 0 
L 47.192188 266.112 
z
" style="fill: none"/>
   </g>
   <g id="matplotlib.axis_1">
    <g id="xtick_1">
     <g id="line2d_1">
      <defs>
       <path id="m98008ab90f" d="M 0 0 
L 0 3.5 
" style="stroke: #808080; stroke-width: 0.8"/>
      </defs>
      <g>
       <use xlink:href="#m98008ab90f" x="75.092188" y="266.112" style="fill: #808080; stroke: #808080; stroke-width: 0.8"/>
      </g>
     </g>
     <g id="text_1">
      <!-- 0 -->
      <g style="fill: #808080" transform="translate(71.910938 280.710438) scale(0.1 -0.1)">
       <defs>
        <path id="DejaVuSans-30" d="M 2034 4250 
Q 1547 4250 1301 3770 
Q 1056 3291 1056 2328 
Q 1056 1369 1301 889 
Q 1547 409 2034 409 
Q 2525 409 2770 889 
Q 3016 1369 3016 2328 
Q 3016 3291 2770 3770 
Q 2525 4250 2034 4250 
z
M 2034 4750 
Q 2819 4750 3233 4129 
Q 3647 3509 3647 2328 
Q 3647 1150 3233 529 
Q 2819 -91 2034 -91 
Q 1250 -91 836 529 
Q 422 1150 422 2328 
Q 422 3509 836 4129 
Q 1250 4750 2034 4750 
z
" transform="scale(0.015625)"/>
       </defs>
       <use xlink:href="#DejaVuSans-30"/>
      </g>
     </g>
    </g>
    <g id="xtick_2">
     <g id="line2d_2">
      <g>
       <use xlink:href="#m98008ab90f" x="144.842188" y="266.112" style="fill: #808080; stroke: #808080; stroke-width: 0.8"/>
      </g>
     </g>
     <g id="text_2">
      <!-- 500 -->
      <g style="fill: #808080" transform="translate(135.298438 280.710438) scale(0.1 -0.1)">
       <defs>
        <path id="DejaVuSans-35" d="M 691 4666 
L 3169 4666 
L 3169 4134 
L 1269 4134 
L 1269 2991 
Q 1406 3038 1543 3061 
Q 1681 3084 1819 3084 
Q 2600 3084 3056 2656 
Q 3513 2228 3513 1497 
Q 3513 744 3044 326 
Q 2575 -91 1722 -91 
Q 1428 -91 1123 -41 
Q 819 9 494 109 
L 494 744 
Q 775 591 1075 516 
Q 1375 441 1709 441 
Q 2250 441 2565 725 
Q 2881 1009 2881 1497 
Q 2881 1984 2565 2268 
Q 2250 2553 1709 2553 
Q 1456 2553 1204 2497 
Q 953 2441 691 2322 
L 691 4666 
z
" transform="scale(0.015625)"/>
       </defs>
       <use xlink:href="#DejaVuSans-35"/>
       <use xlink:href="#DejaVuSans-30" x="63.623047"/>
       <use xlink:href="#DejaVuSans-30" x="127.246094"/>
      </g>
     </g>
    </g>
    <g id="xtick_3">
     <g id="line2d_3">
      <g>
       <use xlink:href="#m98008ab90f" x="214.592188" y="266.112" style="fill: #808080; stroke: #808080; stroke-width: 0.8"/>
      </g>
     </g>
     <g id="text_3">
      <!-- 1000 -->
      <g style="fill: #808080" transform="translate(201.867188 280.710438) scale(0.1 -0.1)">
       <defs>
        <path id="DejaVuSans-31" d="M 794 531 
L 1825 531 
L 1825 4091 
L 703 3866 
L 703 4441 
L 1819 4666 
L 2450 4666 
L 2450 531 
L 3481 531 
L 3481 0 
L 794 0 
L 794 531 
z
" transform="scale(0.015625)"/>
       </defs>
       <use xlink:href="#DejaVuSans-31"/>
       <use xlink:href="#DejaVuSans-30" x="63.623047"/>
       <use xlink:href="#DejaVuSans-30" x="127.246094"/>
       <use xlink:href="#DejaVuSans-30" x="190.869141"/>
      </g>
     </g>
    </g>
    <g id="xtick_4">
     <g id="line2d_4">
      <g>
       <use xlink:href="#m98008ab90f" x="284.342188" y="266.112" style="fill: #808080; stroke: #808080; stroke-width: 0.8"/>
      </g>
     </g>
     <g id="text_4">
      <!-- 1500 -->
      <g style="fill: #808080" transform="translate(271.617188 280.710438) scale(0.1 -0.1)">
       <use xlink:href="#DejaVuSans-31"/>
       <use xlink:href="#DejaVuSans-35" x="63.623047"/>
       <use xlink:href="#DejaVuSans-30" x="127.246094"/>
       <use xlink:href="#DejaVuSans-30" x="190.869141"/>
      </g>
     </g>
    </g>
    <g id="xtick_5">
     <g id="line2d_5">
      <g>
       <use xlink:href="#m98008ab90f" x="354.092188" y="266.112" style="fill: #808080; stroke: #808080; stroke-width: 0.8"/>
      </g>
     </g>
     <g id="text_5">
      <!-- 2000 -->
      <g style="fill: #808080" transform="translate(341.367188 280.710438) scale(0.1 -0.1)">
       <defs>
        <path id="DejaVuSans-32" d="M 1228 531 
L 3431 531 
L 3431 0 
L 469 0 
L 469 531 
Q 828 903 1448 1529 
Q 2069 2156 2228 2338 
Q 2531 2678 2651 2914 
Q 2772 3150 2772 3378 
Q 2772 3750 2511 3984 
Q 2250 4219 1831 4219 
Q 1534 4219 1204 4116 
Q 875 4013 500 3803 
L 500 4441 
Q 881 4594 1212 4672 
Q 1544 4750 1819 4750 
Q 2544 4750 2975 4387 
Q 3406 4025 3406 3419 
Q 3406 3131 3298 2873 
Q 3191 2616 2906 2266 
Q 2828 2175 2409 1742 
Q 1991 1309 1228 531 
z
" transform="scale(0.015625)"/>
       </defs>
       <use xlink:href="#DejaVuSans-32"/>
       <use xlink:href="#DejaVuSans-30" x="63.623047"/>
       <use xlink:href="#DejaVuSans-30" x="127.246094"/>
       <use xlink:href="#DejaVuSans-30" x="190.869141"/>
      </g>
     </g>
    </g>
    <g id="xtick_6">
     <g id="line2d_6">
      <g>
       <use xlink:href="#m98008ab90f" x="423.842188" y="266.112" style="fill: #808080; stroke: #808080; stroke-width: 0.8"/>
      </g>
     </g>
     <g id="text_6">
      <!-- 2500 -->
      <g style="fill: #808080" transform="translate(411.117188 280.710438) scale(0.1 -0.1)">
       <use xlink:href="#DejaVuSans-32"/>
       <use xlink:href="#DejaVuSans-35" x="63.623047"/>
       <use xlink:href="#DejaVuSans-30" x="127.246094"/>
       <use xlink:href="#DejaVuSans-30" x="190.869141"/>
      </g>
     </g>
    </g>
    <g id="xtick_7">
     <g id="line2d_7">
      <g>
       <use xlink:href="#m98008ab90f" x="493.592188" y="266.112" style="fill: #808080; stroke: #808080; stroke-width: 0.8"/>
      </g>
     </g>
     <g id="text_7">
      <!-- 3000 -->
      <g style="fill: #808080" transform="translate(480.867188 280.710438) scale(0.1 -0.1)">
       <defs>
        <path id="DejaVuSans-33" d="M 2597 2516 
Q 3050 2419 3304 2112 
Q 3559 1806 3559 1356 
Q 3559 666 3084 287 
Q 2609 -91 1734 -91 
Q 1441 -91 1130 -33 
Q 819 25 488 141 
L 488 750 
Q 750 597 1062 519 
Q 1375 441 1716 441 
Q 2309 441 2620 675 
Q 2931 909 2931 1356 
Q 2931 1769 2642 2001 
Q 2353 2234 1838 2234 
L 1294 2234 
L 1294 2753 
L 1863 2753 
Q 2328 2753 2575 2939 
Q 2822 3125 2822 3475 
Q 2822 3834 2567 4026 
Q 2313 4219 1838 4219 
Q 1578 4219 1281 4162 
Q 984 4106 628 3988 
L 628 4550 
Q 988 4650 1302 4700 
Q 1616 4750 1894 4750 
Q 2613 4750 3031 4423 
Q 3450 4097 3450 3541 
Q 3450 3153 3228 2886 
Q 3006 2619 2597 2516 
z
" transform="scale(0.015625)"/>
       </defs>
       <use xlink:href="#DejaVuSans-33"/>
       <use xlink:href="#DejaVuSans-30" x="63.623047"/>
       <use xlink:href="#DejaVuSans-30" x="127.246094"/>
       <use xlink:href="#DejaVuSans-30" x="190.869141"/>
      </g>
     </g>
    </g>
    <g id="xtick_8">
     <g id="line2d_8">
      <g>
       <use xlink:href="#m98008ab90f" x="563.342188" y="266.112" style="fill: #808080; stroke: #808080; stroke-width: 0.8"/>
      </g>
     </g>
     <g id="text_8">
      <!-- 3500 -->
      <g style="fill: #808080" transform="translate(550.617188 280.710438) scale(0.1 -0.1)">
       <use xlink:href="#DejaVuSans-33"/>
       <use xlink:href="#DejaVuSans-35" x="63.623047"/>
       <use xlink:href="#DejaVuSans-30" x="127.246094"/>
       <use xlink:href="#DejaVuSans-30" x="190.869141"/>
      </g>
     </g>
    </g>
    <g id="xtick_9">
     <g id="line2d_9">
      <g>
       <use xlink:href="#m98008ab90f" x="633.092188" y="266.112" style="fill: #808080; stroke: #808080; stroke-width: 0.8"/>
      </g>
     </g>
     <g id="text_9">
      <!-- 4000 -->
      <g style="fill: #808080" transform="translate(620.367188 280.710438) scale(0.1 -0.1)">
       <defs>
        <path id="DejaVuSans-34" d="M 2419 4116 
L 825 1625 
L 2419 1625 
L 2419 4116 
z
M 2253 4666 
L 3047 4666 
L 3047 1625 
L 3713 1625 
L 3713 1100 
L 3047 1100 
L 3047 0 
L 2419 0 
L 2419 1100 
L 313 1100 
L 313 1709 
L 2253 4666 
z
" transform="scale(0.015625)"/>
       </defs>
       <use xlink:href="#DejaVuSans-34"/>
       <use xlink:href="#DejaVuSans-30" x="63.623047"/>
       <use xlink:href="#DejaVuSans-30" x="127.246094"/>
       <use xlink:href="#DejaVuSans-30" x="190.869141"/>
      </g>
     </g>
    </g>
   </g>
   <g id="matplotlib.axis_2">
    <g id="ytick_1">
     <g id="line2d_10">
      <defs>
       <path id="mc084e794b1" d="M 0 0 
L -3.5 0 
" style="stroke: #808080; stroke-width: 0.8"/>
      </defs>
      <g>
       <use xlink:href="#mc084e794b1" x="47.192188" y="245.895628" style="fill: #808080; stroke: #808080; stroke-width: 0.8"/>
      </g>
     </g>
     <g id="text_10">
      <!-- −10000 -->
      <g style="fill: #808080" transform="translate(0 249.694847) scale(0.1 -0.1)">
       <defs>
        <path id="DejaVuSans-2212" d="M 678 2272 
L 4684 2272 
L 4684 1741 
L 678 1741 
L 678 2272 
z
" transform="scale(0.015625)"/>
       </defs>
       <use xlink:href="#DejaVuSans-2212"/>
       <use xlink:href="#DejaVuSans-31" x="83.789062"/>
       <use xlink:href="#DejaVuSans-30" x="147.412109"/>
       <use xlink:href="#DejaVuSans-30" x="211.035156"/>
       <use xlink:href="#DejaVuSans-30" x="274.658203"/>
       <use xlink:href="#DejaVuSans-30" x="338.28125"/>
      </g>
     </g>
    </g>
    <g id="ytick_2">
     <g id="line2d_11">
      <g>
       <use xlink:href="#mc084e794b1" x="47.192188" y="195.625576" style="fill: #808080; stroke: #808080; stroke-width: 0.8"/>
      </g>
     </g>
     <g id="text_11">
      <!-- −5000 -->
      <g style="fill: #808080" transform="translate(6.3625 199.424795) scale(0.1 -0.1)">
       <use xlink:href="#DejaVuSans-2212"/>
       <use xlink:href="#DejaVuSans-35" x="83.789062"/>
       <use xlink:href="#DejaVuSans-30" x="147.412109"/>
       <use xlink:href="#DejaVuSans-30" x="211.035156"/>
       <use xlink:href="#DejaVuSans-30" x="274.658203"/>
      </g>
     </g>
    </g>
    <g id="ytick_3">
     <g id="line2d_12">
      <g>
       <use xlink:href="#mc084e794b1" x="47.192188" y="145.355524" style="fill: #808080; stroke: #808080; stroke-width: 0.8"/>
      </g>
     </g>
     <g id="text_12">
      <!-- 0 -->
      <g style="fill: #808080" transform="translate(33.829688 149.154743) scale(0.1 -0.1)">
       <use xlink:href="#DejaVuSans-30"/>
      </g>
     </g>
    </g>
    <g id="ytick_4">
     <g id="line2d_13">
      <g>
       <use xlink:href="#mc084e794b1" x="47.192188" y="95.085472" style="fill: #808080; stroke: #808080; stroke-width: 0.8"/>
      </g>
     </g>
     <g id="text_13">
      <!-- 5000 -->
      <g style="fill: #808080" transform="translate(14.742188 98.884691) scale(0.1 -0.1)">
       <use xlink:href="#DejaVuSans-35"/>
       <use xlink:href="#DejaVuSans-30" x="63.623047"/>
       <use xlink:href="#DejaVuSans-30" x="127.246094"/>
       <use xlink:href="#DejaVuSans-30" x="190.869141"/>
      </g>
     </g>
    </g>
    <g id="ytick_5">
     <g id="line2d_14">
      <g>
       <use xlink:href="#mc084e794b1" x="47.192188" y="44.81542" style="fill: #808080; stroke: #808080; stroke-width: 0.8"/>
      </g>
     </g>
     <g id="text_14">
      <!-- 10000 -->
      <g style="fill: #808080" transform="translate(8.379688 48.614639) scale(0.1 -0.1)">
       <use xlink:href="#DejaVuSans-31"/>
       <use xlink:href="#DejaVuSans-30" x="63.623047"/>
       <use xlink:href="#DejaVuSans-30" x="127.246094"/>
       <use xlink:href="#DejaVuSans-30" x="190.869141"/>
       <use xlink:href="#DejaVuSans-30" x="254.492188"/>
      </g>
     </g>
    </g>
   </g>
   <g id="line2d_15">
    <path d="M 75.092188 145.360906 
L 78.193754 145.35037 
L 81.29532 145.36282 
L 83.269044 145.344612 
L 84.678847 145.372279 
L 85.524729 145.331227 
L 85.80669 145.384011 
L 86.08865 145.321176 
L 86.370611 145.398628 
L 86.652572 145.298043 
L 86.934532 145.440041 
L 87.216493 145.217103 
L 87.498453 148.043739 
L 88.626296 165.804307 
L 88.908256 166.072163 
L 89.190217 161.334103 
L 90.036099 139.336145 
L 90.60002 120.860707 
L 90.88198 117.022759 
L 91.445901 123.644594 
L 92.009823 122.129974 
L 92.291783 124.432977 
L 92.573744 123.589553 
L 92.855704 117.792535 
L 93.137665 116.813381 
L 93.701586 130.767849 
L 93.983547 132.320069 
L 94.265507 138.89095 
L 94.547468 151.722958 
L 94.829429 159.279605 
L 95.111389 158.967314 
L 95.39335 159.155331 
L 95.67531 160.919082 
L 95.957271 157.602743 
L 96.239231 150.42715 
L 96.521192 146.761713 
L 96.803153 147.156061 
L 97.085113 146.141098 
L 97.367074 144.015113 
L 97.649034 145.447491 
L 98.212956 153.780916 
L 98.494916 155.675845 
L 98.776877 156.475825 
L 99.058837 156.691374 
L 99.340798 158.868869 
L 99.904719 168.326431 
L 100.46864 171.89417 
L 100.750601 171.600225 
L 101.032561 170.395153 
L 101.596483 174.383737 
L 102.160404 166.329925 
L 102.442364 166.999479 
L 102.724325 168.504392 
L 103.006286 168.890634 
L 103.570207 175.409562 
L 103.852167 175.079928 
L 104.134128 175.53924 
L 104.416088 177.215486 
L 104.698049 171.631007 
L 105.26197 149.061013 
L 105.543931 142.981566 
L 106.389813 114.218235 
L 106.671773 112.926651 
L 107.235694 103.910263 
L 107.517655 104.99878 
L 107.799615 107.842868 
L 108.081576 103.872295 
L 108.363537 97.216826 
L 108.645497 97.755953 
L 109.491379 115.324863 
L 110.0553 134.616076 
L 110.337261 135.611939 
L 110.619221 137.743638 
L 110.901182 141.760278 
L 111.183143 143.910138 
L 111.465103 148.424114 
L 111.747064 156.510681 
L 112.029024 159.894372 
L 112.310985 157.854806 
L 112.592945 158.803597 
L 112.874906 160.835334 
L 113.156867 155.510568 
L 113.438827 147.204469 
L 113.720788 146.403987 
L 114.002748 150.179584 
L 114.284709 149.264665 
L 114.56667 146.393573 
L 114.84863 150.439694 
L 115.130591 158.337865 
L 115.412551 160.568741 
L 115.694512 158.339375 
L 115.976472 159.080777 
L 116.258433 161.26607 
L 116.540394 159.678342 
L 116.822354 157.078783 
L 117.104315 158.280529 
L 117.668236 163.319461 
L 117.950197 163.736358 
L 118.232157 161.288942 
L 118.796078 150.762717 
L 119.078039 153.861429 
L 119.64196 167.010783 
L 120.205881 165.602251 
L 120.769802 173.822388 
L 121.051763 174.233223 
L 121.615684 166.559534 
L 121.897645 161.020542 
L 122.179605 152.614133 
L 123.025487 117.994456 
L 123.871369 103.708674 
L 124.153329 103.349443 
L 124.717251 106.070798 
L 125.281172 112.675917 
L 125.563132 113.95632 
L 125.845093 117.397684 
L 126.127054 123.331809 
L 126.690975 130.199393 
L 127.254896 150.176819 
L 127.536857 151.457034 
L 127.818817 148.728536 
L 128.100778 148.494133 
L 128.664699 150.711634 
L 128.946659 151.014024 
L 129.22862 149.945758 
L 129.510581 148.188685 
L 129.792541 148.158502 
L 130.074502 149.521613 
L 130.356462 149.977345 
L 130.638423 150.032269 
L 131.484305 153.846249 
L 131.766265 152.836522 
L 132.330186 142.138312 
L 132.612147 141.830488 
L 132.894108 146.501632 
L 133.176068 147.955512 
L 133.458029 146.604231 
L 133.739989 150.196696 
L 134.303911 162.701354 
L 134.867832 165.54765 
L 135.431753 170.463897 
L 135.713714 171.536363 
L 135.995674 173.092272 
L 136.277635 175.533872 
L 136.559595 176.37278 
L 136.841556 175.967218 
L 137.405477 178.536602 
L 137.687438 174.9033 
L 138.251359 163.330585 
L 139.379201 123.084263 
L 139.661162 116.879904 
L 139.943122 113.385883 
L 140.225083 112.380051 
L 140.789004 106.952274 
L 141.070965 108.203922 
L 142.198807 119.768835 
L 142.762728 116.851574 
L 143.044689 119.770497 
L 143.60861 129.734667 
L 143.890571 133.227369 
L 144.172531 134.913351 
L 144.454492 134.608785 
L 144.736452 135.312511 
L 145.018413 136.695981 
L 145.300373 135.837337 
L 145.582334 137.023982 
L 146.146255 154.640531 
L 146.428216 155.550624 
L 146.710176 153.21847 
L 147.274098 155.910631 
L 147.556058 154.680173 
L 147.838019 154.116523 
L 148.6839 158.799245 
L 149.247822 158.340982 
L 149.811743 160.601184 
L 150.093703 160.349342 
L 150.375664 161.002878 
L 150.657625 162.748794 
L 150.939585 162.882385 
L 151.221546 162.546487 
L 151.503506 164.606271 
L 151.785467 167.513139 
L 152.349388 171.382573 
L 152.913309 179.968076 
L 153.19527 179.927407 
L 153.47723 177.068476 
L 153.759191 175.963542 
L 154.041152 174.247235 
L 154.323112 164.036955 
L 154.887033 132.454871 
L 155.732915 104.9438 
L 156.014876 100.695013 
L 156.578797 98.759266 
L 156.860757 98.434833 
L 157.142718 99.593853 
L 157.424679 102.410051 
L 158.27056 114.804383 
L 159.962324 154.653659 
L 160.244285 156.200778 
L 160.526245 155.864875 
L 160.808206 156.928763 
L 161.090166 155.733474 
L 161.372127 152.215911 
L 161.654087 151.082093 
L 161.936048 150.853381 
L 162.218009 149.261326 
L 162.499969 150.951509 
L 162.78193 154.078049 
L 163.06389 148.340596 
L 163.345851 137.63012 
L 163.627812 136.656338 
L 163.909772 143.286607 
L 164.473693 147.295749 
L 165.037614 162.16565 
L 165.319575 161.337491 
L 165.601536 162.368362 
L 165.883496 167.548215 
L 166.165457 167.659686 
L 166.729378 157.548577 
L 167.011339 158.337886 
L 167.293299 160.107638 
L 167.57526 159.579049 
L 167.85722 157.492646 
L 168.139181 157.387057 
L 168.703102 163.153565 
L 169.267023 167.224788 
L 169.830944 174.256101 
L 170.112905 175.360761 
L 170.394866 170.317566 
L 171.240747 137.305533 
L 171.522708 125.81476 
L 172.36859 109.695597 
L 172.65055 106.35919 
L 172.932511 107.560613 
L 173.214471 103.769874 
L 173.496432 96.530025 
L 173.778393 97.12101 
L 174.342314 108.763362 
L 174.624274 112.187774 
L 174.906235 119.538965 
L 175.470156 139.490905 
L 175.752117 142.073395 
L 176.034077 141.573874 
L 176.597999 148.476446 
L 176.879959 147.786998 
L 177.16192 146.457988 
L 177.44388 147.784313 
L 177.725841 148.462551 
L 178.007801 148.809651 
L 178.289762 150.349762 
L 178.571723 149.868724 
L 178.853683 148.088631 
L 179.417604 149.825106 
L 179.699565 147.732537 
L 179.981526 146.842952 
L 180.263486 147.222677 
L 180.545447 145.984831 
L 180.827407 146.889642 
L 181.109368 150.561899 
L 181.391328 150.904093 
L 181.673289 151.924251 
L 182.23721 172.579047 
L 182.519171 172.458225 
L 182.801131 172.112434 
L 183.083092 178.357973 
L 183.365053 176.08927 
L 183.647013 161.773738 
L 183.928974 155.65846 
L 184.492895 169.069078 
L 184.774856 167.902447 
L 185.056816 169.724129 
L 185.338777 173.719696 
L 185.620737 173.899193 
L 185.902698 173.509585 
L 186.184658 174.603301 
L 186.466619 171.143854 
L 187.03054 153.490925 
L 187.312501 147.83706 
L 188.158383 122.084107 
L 188.440343 120.754959 
L 189.004264 112.838572 
L 189.286225 114.256805 
L 189.568185 118.09657 
L 189.850146 119.837809 
L 190.132107 119.171641 
L 190.414067 112.883764 
L 190.696028 102.008982 
L 190.977988 97.661288 
L 191.82387 112.266321 
L 192.387791 132.264595 
L 192.951713 138.267326 
L 193.233673 141.318767 
L 193.515634 142.25509 
L 193.797594 142.215143 
L 194.079555 142.725379 
L 194.361515 143.476333 
L 194.643476 146.960283 
L 194.925437 153.581196 
L 195.207397 157.469744 
L 195.771318 155.389721 
L 196.33524 159.251123 
L 196.6172 159.447097 
L 196.899161 158.310175 
L 197.181121 159.223208 
L 197.745042 165.966282 
L 198.027003 166.076113 
L 198.308964 167.880552 
L 198.590924 171.203093 
L 198.872885 169.312702 
L 199.154845 162.645627 
L 199.436806 160.011022 
L 200.000727 165.744842 
L 200.282688 166.432096 
L 201.12857 170.58166 
L 201.41053 173.539417 
L 201.692491 174.89144 
L 201.974451 171.868266 
L 202.538372 162.278069 
L 203.102294 141.917517 
L 203.948175 107.355528 
L 204.512097 107.379739 
L 204.794057 101.551652 
L 205.076018 98.468563 
L 205.357978 101.168938 
L 205.639939 102.020474 
L 205.921899 102.04488 
L 206.767781 118.056375 
L 207.331702 126.665537 
L 207.613663 128.004188 
L 207.895624 128.705958 
L 209.023466 143.722599 
L 209.305427 142.686198 
L 209.587387 140.226316 
L 210.151308 142.15365 
L 210.433269 139.793497 
L 210.715229 139.831822 
L 211.279151 150.392652 
L 211.561111 150.162685 
L 211.843072 149.131383 
L 212.125032 148.56402 
L 212.406993 149.73866 
L 212.970914 165.209801 
L 213.252875 165.829566 
L 213.534835 164.79545 
L 214.098756 175.386702 
L 214.662678 162.049146 
L 214.944638 160.876534 
L 215.226599 162.617147 
L 215.79052 169.0527 
L 216.072481 167.188845 
L 216.354441 161.694711 
L 216.636402 161.920322 
L 216.918362 166.951101 
L 217.200323 168.329884 
L 217.482284 167.885046 
L 217.764244 172.927659 
L 218.046205 180.987165 
L 218.328165 184.035642 
L 218.610126 180.889934 
L 218.892086 174.882062 
L 219.174047 165.576445 
L 220.019929 127.060007 
L 220.58385 112.175535 
L 221.147771 102.601023 
L 221.711692 91.057781 
L 222.557574 93.88382 
L 222.839535 100.860834 
L 223.403456 119.845106 
L 223.685416 124.344159 
L 224.531298 149.759419 
L 224.813259 147.483182 
L 225.095219 144.201617 
L 225.37718 144.32522 
L 225.659141 145.127673 
L 225.941101 144.792079 
L 226.223062 147.461884 
L 226.786983 159.938452 
L 227.068943 161.769947 
L 227.350904 162.691369 
L 227.632865 162.101159 
L 227.914825 159.113953 
L 228.196786 157.610976 
L 228.478746 158.680853 
L 228.760707 159.152824 
L 229.042668 159.080057 
L 230.17051 162.497945 
L 230.734431 160.051944 
L 231.016392 161.931795 
L 231.298352 162.880177 
L 231.862273 151.589474 
L 232.144234 152.497381 
L 232.708155 162.162169 
L 232.990116 164.829083 
L 233.272076 166.382215 
L 233.554037 166.821355 
L 233.835998 167.695105 
L 234.117958 169.005465 
L 234.399919 168.745859 
L 234.681879 168.320817 
L 234.96384 169.975981 
L 235.2458 168.544888 
L 235.527761 157.748312 
L 236.091682 130.342788 
L 236.937564 108.765153 
L 237.219525 105.601326 
L 237.501485 104.417072 
L 237.783446 106.102575 
L 238.065406 108.579786 
L 238.347367 105.441084 
L 238.629327 99.214817 
L 238.911288 100.935013 
L 239.475209 118.076579 
L 240.03913 131.034852 
L 240.603052 141.13287 
L 240.885012 145.427634 
L 241.166973 147.86666 
L 241.448933 146.414133 
L 241.730894 146.055632 
L 242.012855 147.617222 
L 242.294815 147.559466 
L 242.576776 148.852139 
L 242.858736 153.519189 
L 243.140697 155.093152 
L 243.422657 152.068062 
L 243.704618 151.345333 
L 243.986579 153.761906 
L 244.268539 154.300442 
L 244.5505 153.537111 
L 244.83246 154.466583 
L 245.396382 157.928649 
L 245.960303 163.488418 
L 246.242263 163.10466 
L 246.524224 163.437657 
L 246.806184 165.528372 
L 247.088145 164.838446 
L 247.370106 162.182809 
L 247.652066 162.972412 
L 247.934027 164.9011 
L 248.215987 164.032441 
L 248.497948 166.719577 
L 249.061869 183.89841 
L 249.34383 184.274405 
L 249.62579 184.397841 
L 249.907751 186.293697 
L 250.189712 184.489951 
L 251.035593 163.651564 
L 251.599514 138.186108 
L 251.881475 125.647374 
L 252.163436 118.732371 
L 252.727357 109.258516 
L 253.009317 103.274965 
L 253.291278 99.72399 
L 253.573239 98.671258 
L 253.855199 98.880788 
L 254.13716 99.28286 
L 254.41912 100.08712 
L 254.701081 104.672858 
L 255.265002 121.815545 
L 255.546963 120.998266 
L 255.828923 117.93362 
L 256.110884 122.263908 
L 256.392844 130.810218 
L 256.956766 138.8355 
L 257.520687 156.965181 
L 257.802647 160.170206 
L 258.366569 163.30037 
L 258.648529 161.874614 
L 258.93049 162.265899 
L 259.21245 167.338365 
L 259.494411 170.079249 
L 260.340293 162.978617 
L 260.904214 156.493473 
L 261.468135 150.904826 
L 261.750096 150.99952 
L 262.032056 153.5117 
L 262.314017 151.089119 
L 262.595977 144.476993 
L 262.877938 141.495845 
L 263.159898 144.745608 
L 263.72382 157.423956 
L 264.851662 171.602218 
L 265.133623 173.704266 
L 265.697544 182.956866 
L 265.979504 183.576409 
L 266.543425 178.886692 
L 266.825386 172.678413 
L 267.389307 147.69439 
L 267.953228 136.152284 
L 268.51715 116.914064 
L 268.79911 116.849088 
L 269.081071 113.953355 
L 269.644992 97.642965 
L 269.926953 98.871347 
L 270.208913 102.559817 
L 270.490874 104.606573 
L 270.772834 108.418472 
L 271.900677 141.9061 
L 272.182637 141.307088 
L 272.464598 142.238984 
L 273.028519 147.495419 
L 273.31048 148.477685 
L 273.874401 151.812032 
L 274.156361 149.194966 
L 274.438322 143.05373 
L 274.720282 139.399732 
L 275.002243 141.977436 
L 275.284204 146.693211 
L 275.566164 148.490322 
L 275.848125 148.547474 
L 276.412046 150.990497 
L 276.694007 151.21711 
L 277.257928 149.922163 
L 277.539888 150.826987 
L 277.821849 153.272907 
L 278.10381 153.745972 
L 278.38577 152.763344 
L 278.949691 156.896571 
L 279.231652 157.16772 
L 279.513612 161.800924 
L 279.795573 172.021712 
L 280.077534 177.459073 
L 280.359494 176.65963 
L 280.641455 179.196103 
L 280.923415 185.103655 
L 281.205376 188.257124 
L 281.769297 191.796984 
L 282.333218 191.403657 
L 282.615179 189.372765 
L 282.897139 177.246546 
L 283.461061 143.59986 
L 284.306942 111.763396 
L 285.152824 102.37788 
L 285.434785 101.686358 
L 285.998706 107.430034 
L 286.280667 107.4133 
L 286.562627 107.994911 
L 287.408509 114.656545 
L 287.690469 116.17538 
L 287.97243 123.427411 
L 288.536351 150.310405 
L 288.818312 153.585752 
L 289.100272 152.651801 
L 289.382233 153.796019 
L 289.664194 154.472 
L 289.946154 152.745247 
L 290.228115 151.98383 
L 290.510075 152.586574 
L 290.792036 152.664359 
L 291.073996 152.385804 
L 291.355957 149.845014 
L 291.919878 138.337478 
L 292.201839 138.045685 
L 292.483799 138.031332 
L 292.76576 135.984078 
L 293.047721 135.479181 
L 293.611642 137.679138 
L 293.893602 138.534047 
L 294.457524 140.536132 
L 294.739484 141.755185 
L 295.303405 147.31339 
L 295.867326 155.326445 
L 296.149287 157.339601 
L 296.431248 161.721361 
L 297.277129 194.515874 
L 297.55909 197.734034 
L 297.841051 198.879982 
L 298.123011 199.487621 
L 298.404972 196.298571 
L 298.686932 185.233697 
L 299.532814 141.405786 
L 299.814775 129.598785 
L 300.096735 123.362939 
L 300.378696 123.134789 
L 300.660656 120.953216 
L 300.942617 115.066608 
L 301.224578 112.688824 
L 301.788499 118.36046 
L 302.070459 118.625259 
L 302.35242 117.917587 
L 302.634381 118.488718 
L 302.916341 122.288287 
L 303.762223 138.82302 
L 305.172026 162.016036 
L 305.453986 161.185176 
L 306.017908 157.278967 
L 306.299868 157.293909 
L 306.581829 157.760938 
L 306.863789 153.772273 
L 307.14575 145.673479 
L 307.42771 141.232376 
L 307.709671 141.811963 
L 307.991632 141.475053 
L 308.273592 140.472596 
L 308.837513 142.735824 
L 309.119474 142.007463 
L 309.683395 144.016229 
L 309.965356 143.20895 
L 310.247316 144.330674 
L 310.529277 148.38849 
L 310.811238 150.675706 
L 311.093198 150.572094 
L 311.375159 151.277323 
L 311.657119 152.376404 
L 311.93908 152.36727 
L 312.22104 152.943461 
L 312.784962 157.217271 
L 313.066922 158.012816 
L 313.348883 160.595976 
L 313.912804 172.486254 
L 314.194765 172.161272 
L 314.758686 162.573258 
L 315.040646 153.750836 
L 315.886528 113.21937 
L 316.168489 104.618623 
L 316.450449 99.760699 
L 316.73241 97.648372 
L 317.01437 92.560599 
L 317.578292 77.629236 
L 317.860252 78.990841 
L 318.142213 82.022787 
L 318.424173 83.46717 
L 318.706134 86.539807 
L 320.679858 127.372806 
L 320.961819 135.497094 
L 321.243779 140.254066 
L 321.8077 143.267362 
L 322.371622 145.689137 
L 322.653582 144.892108 
L 322.935543 145.143883 
L 323.217503 151.126132 
L 323.499464 159.473775 
L 323.781424 162.486148 
L 324.063385 161.919223 
L 324.909267 166.627785 
L 325.191227 171.404845 
L 325.473188 178.155849 
L 325.755149 180.709747 
L 326.037109 180.961822 
L 326.60103 185.129514 
L 327.164952 186.992989 
L 327.446912 184.681737 
L 327.728873 178.051476 
L 328.010833 174.313013 
L 328.574754 177.994275 
L 328.856715 178.489552 
L 329.138676 180.024725 
L 329.420636 180.715661 
L 329.984557 175.896961 
L 330.548479 171.10171 
L 330.830439 169.754485 
L 331.1124 165.696602 
L 331.676321 138.142725 
L 332.522203 102.256144 
L 333.086124 82.859638 
L 333.368084 79.96714 
L 333.650045 81.340539 
L 335.059848 104.074201 
L 336.18769 132.622233 
L 336.469651 137.111771 
L 336.751611 144.144218 
L 337.033572 148.401443 
L 337.315533 146.788177 
L 337.597493 148.880001 
L 338.161414 165.522562 
L 338.725336 162.082457 
L 339.007296 164.510599 
L 339.289257 163.238515 
L 339.571217 158.195819 
L 339.853178 155.980219 
L 340.135138 156.731405 
L 340.417099 157.00169 
L 340.69906 157.824311 
L 340.98102 161.744755 
L 341.544941 173.905565 
L 341.826902 176.73114 
L 342.108863 175.744827 
L 342.672784 171.215396 
L 342.954744 170.979215 
L 343.236705 171.992551 
L 344.082587 178.658694 
L 344.364547 181.880552 
L 345.210429 196.402733 
L 345.49239 199.396111 
L 345.77435 204.977483 
L 346.056311 207.393669 
L 346.338271 199.486515 
L 346.902193 179.062973 
L 347.184153 168.40568 
L 347.748074 124.45168 
L 348.030035 113.69002 
L 348.311995 107.619172 
L 348.875917 89.565905 
L 349.439838 84.600608 
L 349.721798 79.812967 
L 350.003759 77.70316 
L 350.56768 79.681329 
L 350.849641 82.740183 
L 351.413562 95.039708 
L 351.695523 98.869436 
L 351.977483 104.638386 
L 352.541404 119.653723 
L 353.105325 122.889242 
L 354.515128 145.249958 
L 355.642971 156.636436 
L 356.206892 164.576419 
L 356.488852 164.368814 
L 357.616695 148.972514 
L 357.898655 151.066379 
L 358.180616 151.994321 
L 358.744537 137.245699 
L 359.026498 138.23654 
L 359.308458 142.111113 
L 359.590419 143.396635 
L 359.87238 149.578219 
L 360.436301 169.497302 
L 360.718261 171.382049 
L 361.000222 177.22802 
L 361.564143 193.214596 
L 362.128064 200.362725 
L 362.410025 203.665157 
L 362.691985 202.813612 
L 362.973946 198.506248 
L 363.255907 191.055753 
L 364.94767 124.407004 
L 365.511591 104.37614 
L 365.793552 99.345155 
L 366.075512 100.39582 
L 366.357473 99.335604 
L 366.639434 96.673657 
L 366.921394 103.400063 
L 367.203355 116.26791 
L 367.485315 119.857474 
L 367.767276 115.408824 
L 368.049237 116.886749 
L 368.331197 123.956525 
L 368.613158 127.073146 
L 368.895118 127.367119 
L 369.741 137.157985 
L 370.022961 138.657412 
L 370.586882 142.68159 
L 370.868842 142.8914 
L 371.150803 141.408238 
L 371.432764 140.953505 
L 371.714724 145.374393 
L 372.278645 159.904906 
L 372.560606 161.080109 
L 372.842566 161.164137 
L 373.406488 163.889516 
L 373.688448 163.811845 
L 373.970409 164.28476 
L 374.252369 165.213718 
L 374.53433 165.448926 
L 374.816291 165.302225 
L 375.098251 165.907495 
L 375.380212 168.667293 
L 375.662172 172.651499 
L 375.944133 174.431107 
L 376.226094 174.631256 
L 377.071975 181.9225 
L 377.353936 182.763364 
L 378.481778 194.27245 
L 378.763739 190.988807 
L 381.019423 100.570318 
L 381.301384 95.369093 
L 381.583345 93.784391 
L 381.865305 89.589669 
L 382.147266 87.907559 
L 382.711187 102.465951 
L 382.993148 102.91383 
L 383.275108 103.998086 
L 384.12099 117.717742 
L 384.684911 137.162333 
L 385.248832 147.291594 
L 385.530793 152.019622 
L 385.812753 148.485854 
L 386.094714 142.821113 
L 386.376675 141.838494 
L 386.658635 141.284897 
L 386.940596 140.008562 
L 387.504517 144.391626 
L 387.786478 143.953093 
L 388.068438 144.7928 
L 388.350399 147.738422 
L 389.19628 152.322493 
L 389.760202 153.582893 
L 390.042162 155.462905 
L 390.324123 155.864163 
L 390.606083 157.606599 
L 391.170005 175.477305 
L 391.451965 179.017883 
L 391.733926 179.796365 
L 392.861768 191.757999 
L 393.425689 210.161167 
L 393.98961 225.388478 
L 394.835492 244.254637 
L 395.117453 248.242054 
L 395.399413 249.438122 
L 395.681374 240.325055 
L 396.245295 209.660666 
L 396.527256 196.757083 
L 397.655098 112.112567 
L 398.219019 67.958107 
L 398.50098 55.976738 
L 399.064901 24.825522 
L 399.346862 23.426657 
L 399.628822 24.292528 
L 399.910783 22.568351 
L 400.192743 28.597699 
L 400.756665 58.812046 
L 401.602546 82.976589 
L 402.166467 92.626715 
L 402.730389 105.263386 
L 403.012349 110.792626 
L 403.29431 119.626049 
L 403.57627 124.306038 
L 403.858231 120.32219 
L 404.140192 118.20152 
L 404.422152 122.616524 
L 404.704113 124.559359 
L 404.986073 124.596518 
L 405.268034 132.071941 
L 405.831955 149.826096 
L 406.113916 156.83902 
L 406.677837 174.407312 
L 407.523719 190.478371 
L 407.805679 190.901504 
L 408.08764 195.977363 
L 408.3696 203.146017 
L 408.933522 207.74088 
L 409.215482 213.731077 
L 409.497443 214.41627 
L 409.779403 207.357924 
L 410.061364 203.75175 
L 410.343324 206.129004 
L 410.625285 203.862688 
L 410.907246 196.094855 
L 411.189206 195.144286 
L 411.471167 203.633654 
L 411.753127 208.238767 
L 412.317049 196.069576 
L 412.599009 193.842402 
L 412.88097 186.702708 
L 413.726851 143.991068 
L 414.290773 94.232577 
L 414.572733 84.291881 
L 414.854694 84.217357 
L 415.136654 85.60213 
L 415.418615 92.232045 
L 415.982536 114.039202 
L 416.546457 121.78392 
L 416.828418 123.944689 
L 417.110379 122.949334 
L 417.392339 120.546077 
L 417.6743 116.219378 
L 418.238221 97.188444 
L 418.802142 73.814047 
L 419.366063 51.368382 
L 419.929984 32.943086 
L 420.493906 12.096 
L 420.775866 12.192054 
L 421.903708 47.188997 
L 422.185669 67.307766 
L 422.46763 79.411537 
L 422.74959 86.740111 
L 424.723314 204.820231 
L 425.287236 222.403169 
L 425.569196 225.701843 
L 426.133117 241.538659 
L 426.415078 243.050931 
L 426.697038 243.631375 
L 427.26096 254.016 
L 427.54292 248.705927 
L 428.106841 231.446689 
L 428.388802 217.386815 
L 429.234684 159.890965 
L 430.080565 139.805588 
L 430.362526 142.168362 
L 430.644487 150.683898 
L 430.926447 154.093543 
L 431.208408 151.346474 
L 431.490368 150.019751 
L 431.772329 150.024266 
L 432.33625 144.336475 
L 432.618211 145.050356 
L 433.182132 147.773385 
L 434.028014 160.546446 
L 434.309974 162.587 
L 434.591935 166.930631 
L 434.873895 168.558089 
L 435.155856 166.78601 
L 435.437817 167.781149 
L 435.719777 169.864063 
L 436.283698 162.198321 
L 436.565659 165.734059 
L 436.84762 171.594086 
L 437.12958 172.366416 
L 437.411541 172.136406 
L 437.693501 172.934558 
L 437.975462 167.676972 
L 438.539383 137.410693 
L 439.103304 100.535243 
L 439.385265 90.038789 
L 439.667225 87.88358 
L 439.949186 87.221102 
L 440.231147 86.054722 
L 440.513107 87.269903 
L 441.077028 93.652799 
L 441.358989 99.005094 
L 441.92291 117.052293 
L 442.486831 140.550658 
L 443.050752 166.548497 
L 443.332713 175.331631 
L 443.614674 179.815565 
L 443.896634 178.525794 
L 444.460555 165.624275 
L 445.306437 143.802315 
L 445.588398 142.787488 
L 445.870358 143.855788 
L 446.152319 142.557255 
L 446.71624 133.066008 
L 446.998201 131.285511 
L 447.280161 126.473395 
L 447.562122 115.668886 
L 447.844082 109.627106 
L 448.408004 123.30449 
L 448.689964 123.94546 
L 448.971925 126.318104 
L 449.535846 146.853742 
L 449.817806 150.656878 
L 450.381728 152.761627 
L 450.663688 150.634317 
L 451.227609 139.797981 
L 451.50957 139.132411 
L 452.637412 146.697535 
L 453.201334 147.619245 
L 453.483294 148.377977 
L 453.765255 148.513148 
L 454.047215 150.346513 
L 454.893097 170.962953 
L 455.175058 171.778833 
L 455.457018 175.679543 
L 455.738979 183.119523 
L 456.020939 187.153924 
L 456.584861 183.999327 
L 456.866821 186.331092 
L 457.994663 201.99025 
L 458.276624 208.169311 
L 459.122506 232.805736 
L 459.404466 234.463154 
L 459.686427 233.178588 
L 459.968388 228.499091 
L 460.532309 208.287658 
L 461.942112 151.841344 
L 462.506033 119.044695 
L 463.069954 79.876964 
L 463.351915 68.465661 
L 463.915836 58.478114 
L 464.479757 53.386758 
L 464.761718 53.226786 
L 465.325639 58.029847 
L 465.88956 58.333473 
L 466.735442 68.380637 
L 467.299363 73.107275 
L 467.581323 69.826045 
L 467.863284 68.062505 
L 468.145245 75.980597 
L 469.555048 140.947502 
L 470.118969 167.589043 
L 470.68289 174.061341 
L 471.246811 197.82593 
L 471.528772 194.322074 
L 471.810732 189.008347 
L 472.374653 192.752252 
L 472.938575 185.380297 
L 473.220535 184.868363 
L 473.502496 185.326635 
L 473.784456 186.711399 
L 474.348377 192.653116 
L 474.630338 199.493633 
L 475.194259 220.059159 
L 475.47622 225.331541 
L 475.75818 227.104864 
L 476.040141 226.063699 
L 476.322102 221.329081 
L 476.886023 201.549267 
L 478.295826 125.948017 
L 478.859747 89.427387 
L 479.423668 53.67273 
L 479.705629 43.582836 
L 480.26955 33.683475 
L 480.55151 29.860471 
L 480.833471 35.15179 
L 481.397392 62.395531 
L 481.679353 65.188732 
L 481.961313 70.138955 
L 482.243274 79.320909 
L 482.807195 86.152922 
L 483.935037 132.049688 
L 484.498959 151.933432 
L 484.780919 159.300665 
L 485.626801 198.455747 
L 485.908762 202.417843 
L 486.190722 201.672173 
L 486.754643 190.664439 
L 487.318564 179.97999 
L 487.882486 167.544222 
L 488.728367 157.540153 
L 489.010328 156.627807 
L 489.292289 157.361154 
L 489.574249 160.499875 
L 490.13817 176.527258 
L 490.420131 184.365466 
L 490.702091 189.112336 
L 491.266013 193.499463 
L 491.829934 201.990312 
L 492.111894 201.936596 
L 492.393855 197.74784 
L 492.675816 187.533378 
L 493.521697 146.935483 
L 494.085619 123.986649 
L 494.367579 117.113283 
L 495.213461 106.504422 
L 495.777382 91.944307 
L 496.059343 90.806923 
L 496.905224 103.336803 
L 497.469146 130.47511 
L 497.751106 136.533763 
L 498.033067 134.929036 
L 498.315027 131.538364 
L 498.596988 129.661968 
L 498.878948 129.563316 
L 499.44287 129.709118 
L 499.72483 131.673324 
L 500.006791 134.66045 
L 500.570712 135.50053 
L 501.134633 143.227903 
L 501.416594 142.146489 
L 501.698554 141.902447 
L 501.980515 145.477737 
L 502.262476 147.439359 
L 502.544436 147.768019 
L 503.390318 158.978938 
L 503.672278 160.459993 
L 503.954239 163.645922 
L 504.2362 164.944786 
L 504.51816 164.909195 
L 504.800121 167.646508 
L 505.364042 175.628077 
L 505.646003 174.233624 
L 506.209924 163.105287 
L 506.491884 163.074375 
L 507.055805 169.025161 
L 507.337766 175.077555 
L 507.619727 185.107527 
L 507.901687 190.008009 
L 508.183648 182.964188 
L 509.02953 144.690231 
L 509.593451 109.778299 
L 510.439333 91.622262 
L 510.721293 94.658023 
L 511.003254 107.184971 
L 511.285214 114.203264 
L 511.567175 113.388309 
L 511.849135 116.649045 
L 512.131096 124.446266 
L 512.413057 127.377292 
L 512.695017 126.264423 
L 512.976978 128.123648 
L 513.540899 134.846832 
L 513.82286 137.33548 
L 514.386781 144.09779 
L 514.668741 143.448639 
L 514.950702 142.482022 
L 515.232662 142.767182 
L 515.796584 140.142189 
L 516.078544 145.883538 
L 516.360505 154.438035 
L 516.642465 156.036948 
L 516.924426 153.356088 
L 517.206387 153.604302 
L 517.488347 154.54086 
L 517.770308 154.893068 
L 518.61619 165.740022 
L 518.89815 167.628708 
L 519.180111 170.504256 
L 519.744032 171.812974 
L 520.025992 173.424834 
L 520.307953 173.692326 
L 520.589914 175.415666 
L 520.871874 179.982897 
L 521.153835 178.784218 
L 521.435795 170.041569 
L 521.717756 165.778377 
L 522.281677 172.454419 
L 522.563638 172.449008 
L 522.845598 179.592604 
L 523.127559 193.422731 
L 523.409519 201.403549 
L 523.69148 199.71668 
L 524.255401 192.349749 
L 524.537362 179.597034 
L 525.101283 140.526659 
L 525.947165 114.510801 
L 526.229125 110.176551 
L 526.511086 111.534056 
L 526.793047 112.048339 
L 527.356968 107.463849 
L 527.638928 106.561846 
L 528.48481 95.073055 
L 528.766771 96.070788 
L 529.330692 101.462867 
L 529.894613 112.605024 
L 530.458534 122.382481 
L 530.740495 126.429407 
L 531.022455 133.142298 
L 531.868337 159.194903 
L 532.150298 160.314726 
L 532.432258 163.693605 
L 532.714219 171.137893 
L 532.996179 173.004823 
L 533.27814 168.26854 
L 533.560101 167.539742 
L 533.842061 171.305 
L 534.124022 172.064671 
L 534.405982 172.348473 
L 534.969904 179.803091 
L 535.251864 181.771442 
L 535.815785 192.15016 
L 536.097746 193.936276 
L 536.379706 194.931802 
L 536.943628 201.645973 
L 538.07147 218.601068 
L 538.635391 240.756301 
L 538.917352 242.230032 
L 539.199312 236.246377 
L 539.481273 233.745128 
L 539.763233 229.606477 
L 540.045194 210.383357 
L 540.891076 120.69134 
L 541.454997 83.791086 
L 542.582839 56.027559 
L 542.8648 57.362147 
L 543.146761 60.485844 
L 543.428721 58.96027 
L 543.710682 56.141168 
L 543.992642 59.234951 
L 544.274603 64.947088 
L 544.556563 66.993563 
L 544.838524 70.131347 
L 546.530288 125.510487 
L 546.812248 131.111902 
L 547.094209 134.088938 
L 547.376169 134.55518 
L 547.94009 139.035756 
L 548.504012 135.423498 
L 548.785972 139.479657 
L 549.067933 140.73913 
L 549.631854 127.525525 
L 549.913815 129.807595 
L 550.195775 129.881031 
L 550.759696 119.010243 
L 551.041657 122.05697 
L 551.887539 138.832022 
L 552.73342 161.316123 
L 553.861263 199.773503 
L 554.425184 204.254128 
L 554.707145 206.730349 
L 554.989105 206.720094 
L 555.271066 208.189327 
L 555.834987 224.334685 
L 556.116947 220.094636 
L 556.680869 194.028672 
L 558.090672 97.58779 
L 558.372632 83.022468 
L 558.654593 75.160139 
L 558.936553 72.711211 
L 559.500475 63.423631 
L 559.782435 62.80953 
L 560.628317 72.154971 
L 561.192238 83.846516 
L 562.32008 120.734352 
L 563.165962 136.490006 
L 563.447923 134.866339 
L 563.729883 134.922306 
L 564.293804 142.785361 
L 564.575765 141.630721 
L 565.139686 136.224681 
L 565.421647 136.59307 
L 565.985568 143.553683 
L 566.267529 145.204614 
L 566.549489 147.75672 
L 567.11341 156.063127 
L 567.959292 179.079166 
L 568.241253 182.499459 
L 568.805174 191.713592 
L 569.369095 187.127536 
L 569.651056 191.144375 
L 571.060859 225.128055 
L 571.62478 231.273844 
L 571.90674 235.533561 
L 572.188701 236.865162 
L 572.470661 229.201781 
L 573.316543 180.821823 
L 573.880464 136.385849 
L 574.726346 95.251102 
L 575.008307 86.131832 
L 575.572228 77.489371 
L 575.854189 74.884813 
L 576.136149 73.894041 
L 576.41811 75.350586 
L 576.70007 79.074815 
L 576.982031 80.034927 
L 577.263991 76.460472 
L 577.545952 76.410986 
L 578.109873 87.153064 
L 578.391834 88.436657 
L 578.673794 96.76035 
L 579.237716 119.677734 
L 579.519676 123.169747 
L 579.801637 128.971854 
L 580.647518 152.201111 
L 581.21144 160.08148 
L 581.4934 162.601836 
L 581.775361 162.017322 
L 582.339282 153.482724 
L 582.621243 151.97159 
L 582.903203 147.377433 
L 583.185164 140.054028 
L 583.467124 137.1719 
L 583.749085 138.863574 
L 584.031046 139.051021 
L 584.313006 139.619262 
L 585.158888 160.626683 
L 585.440848 164.387549 
L 586.00477 177.520422 
L 586.28673 178.110981 
L 586.568691 181.234931 
L 587.414573 201.26586 
L 587.978494 222.366351 
L 588.542415 234.216097 
L 588.824375 234.087621 
L 589.106336 227.688527 
L 589.670257 206.875118 
L 590.7981 149.183344 
L 591.643981 114.953695 
L 592.207903 85.305874 
L 592.771824 67.676698 
L 593.053784 64.568808 
L 593.335745 64.684094 
L 593.617705 65.021771 
L 593.899666 66.028532 
L 594.181627 71.769279 
L 594.745548 93.824841 
L 595.027508 97.55141 
L 595.309469 97.164048 
L 595.59143 97.567835 
L 596.155351 96.863915 
L 596.437311 103.857547 
L 597.001232 133.199271 
L 598.129075 164.97711 
L 598.974957 184.03364 
L 599.256917 182.882829 
L 599.538878 181.252216 
L 600.102799 183.289443 
L 600.38476 182.552477 
L 600.66672 180.909026 
L 600.948681 180.164636 
L 601.512602 183.232743 
L 602.076523 178.009184 
L 602.358484 181.562124 
L 602.640444 187.97899 
L 602.922405 188.994294 
L 603.486326 178.465987 
L 603.768287 172.831198 
L 604.050247 171.18158 
L 604.332208 173.093902 
L 604.614168 169.471926 
L 605.46005 133.15897 
L 606.023971 118.885874 
L 606.305932 114.290847 
L 606.587892 112.618658 
L 607.151814 119.983317 
L 607.433774 116.719886 
L 607.715735 109.470565 
L 607.997695 107.357596 
L 608.279656 106.097294 
L 608.561617 99.257709 
L 608.843577 95.138665 
L 609.125538 100.09462 
L 610.25338 128.31374 
L 610.535341 131.815474 
L 611.099262 141.991553 
L 611.381222 142.662614 
L 611.663183 142.098427 
L 611.945144 146.469858 
L 612.227104 152.81938 
L 612.509065 154.156696 
L 612.791025 152.041315 
L 613.072986 154.307594 
L 613.354946 159.847975 
L 613.636907 157.494789 
L 613.918868 146.954075 
L 614.200828 141.637857 
L 614.482789 143.685197 
L 614.764749 142.418708 
L 615.04671 138.455651 
L 615.328671 139.458744 
L 615.610631 142.153825 
L 615.892592 143.468323 
L 616.738474 158.134167 
L 617.020434 158.553848 
L 617.302395 161.439032 
L 617.584355 162.618721 
L 617.866316 161.818729 
L 618.148276 164.926095 
L 618.430237 173.505273 
L 619.558079 220.705953 
L 619.84004 220.308951 
L 620.122001 222.4394 
L 620.403961 223.705033 
L 620.685922 215.617532 
L 621.813764 149.550792 
L 622.377685 112.76753 
L 622.941606 84.118858 
L 623.223567 70.936184 
L 623.505528 68.859135 
L 623.787488 69.487935 
L 624.351409 60.983045 
L 624.63337 63.942305 
L 625.197291 72.206711 
L 625.761212 81.518584 
L 626.043173 86.936607 
L 627.171015 122.475833 
L 628.016897 173.765391 
L 628.298858 177.995891 
L 628.580818 184.41854 
L 628.862779 188.049745 
L 629.70866 183.302899 
L 630.272582 173.908524 
L 630.554542 173.205278 
L 630.836503 170.739992 
L 631.400424 161.698017 
L 631.682385 160.308786 
L 632.246306 164.761119 
L 632.810227 160.633538 
L 633.092188 160.979507 
L 633.092188 160.979507 
" clip-path="url(#pa2d94ee6dd)" style="fill: none; stroke: #1f77b4; stroke-width: 1.5; stroke-linecap: square"/>
   </g>
   <g id="patch_3">
    <path d="M 47.192188 266.112 
L 47.192188 0 
" style="fill: none; stroke: #808080; stroke-width: 0.8; stroke-linejoin: miter; stroke-linecap: square"/>
   </g>
   <g id="patch_4">
    <path d="M 660.992188 266.112 
L 660.992188 0 
" style="fill: none; stroke: #000000; stroke-width: 0.8; stroke-linejoin: miter; stroke-linecap: square"/>
   </g>
   <g id="patch_5">
    <path d="M 47.192188 266.112 
L 660.992188 266.112 
" style="fill: none; stroke: #808080; stroke-width: 0.8; stroke-linejoin: miter; stroke-linecap: square"/>
   </g>
   <g id="patch_6">
    <path d="M 47.192188 0 
L 660.992188 0 
" style="fill: none; stroke: #000000; stroke-width: 0.8; stroke-linejoin: miter; stroke-linecap: square"/>
   </g>
  </g>
 </g>
 <defs>
  <clipPath id="pa2d94ee6dd">
   <rect x="47.192188" y="0" width="613.8" height="266.112"/>
  </clipPath>
 </defs>
</svg>
