<svg xmlns="http://www.w3.org/2000/svg" xmlns:xlink="http://www.w3.org/1999/xlink" width="913.477" height="377.053" viewBox="0 0 685.107 282.79"><defs><style>*{stroke-linejoin:round;stroke-linecap:butt}</style></defs><g id="figure_1"><path id="patch_1" d="M0 282.79h685.107V0H0v282.79z" style="fill:none"/><g id="axes_1"><path id="patch_2" d="M71.308 266.112h613.8V0h-613.8v266.112z" style="fill:none"/><g id="matplotlib.axis_1"><g id="xtick_1"><g id="line2d_1"><defs><path id="m8940a0cd2a" d="M0 0v3.5" style="stroke:gray;stroke-width:.8"/></defs><use xlink:href="#m8940a0cd2a" x="99.207" y="266.112" style="fill:gray;stroke:gray;stroke-width:.8"/></g><g id="text_1" style="fill:gray" transform="matrix(.1 0 0 -.1 96.026 280.71)"><defs><path id="DejaVuSans-30" d="M2034 4250q-487 0-733-480-245-479-245-1442 0-959 245-1439 246-480 733-480 491 0 736 480 246 480 246 1439 0 963-246 1442-245 480-736 480zm0 500q785 0 1199-621 414-620 414-1801 0-1178-414-1799Q2819-91 2034-91q-784 0-1198 620-414 621-414 1799 0 1181 414 1801 414 621 1198 621z" transform="scale(.01563)"/></defs><use xlink:href="#DejaVuSans-30"/></g></g><g id="xtick_2"><use xlink:href="#m8940a0cd2a" id="line2d_2" x="168.958" y="266.112" style="fill:gray;stroke:gray;stroke-width:.8"/><g id="text_2" style="fill:gray" transform="matrix(.1 0 0 -.1 159.414 280.71)"><defs><path id="DejaVuSans-35" d="M691 4666h2478v-532H1269V2991q137 47 274 70 138 23 276 23 781 0 1237-428 457-428 457-1159 0-753-469-1171Q2575-91 1722-91q-294 0-599 50Q819 9 494 109v635q281-153 581-228t634-75q541 0 856 284 316 284 316 772 0 487-316 771-315 285-856 285-253 0-505-56-251-56-513-175v2344z" transform="scale(.01563)"/></defs><use xlink:href="#DejaVuSans-35"/><use xlink:href="#DejaVuSans-30" x="63.623"/><use xlink:href="#DejaVuSans-30" x="127.246"/></g></g><g id="xtick_3"><use xlink:href="#m8940a0cd2a" id="line2d_3" x="238.708" y="266.112" style="fill:gray;stroke:gray;stroke-width:.8"/><g id="text_3" style="fill:gray" transform="matrix(.1 0 0 -.1 225.982 280.71)"><defs><path id="DejaVuSans-31" d="M794 531h1031v3560L703 3866v575l1116 225h631V531h1031V0H794v531z" transform="scale(.01563)"/></defs><use xlink:href="#DejaVuSans-31"/><use xlink:href="#DejaVuSans-30" x="63.623"/><use xlink:href="#DejaVuSans-30" x="127.246"/><use xlink:href="#DejaVuSans-30" x="190.869"/></g></g><g id="xtick_4"><use xlink:href="#m8940a0cd2a" id="line2d_4" x="308.457" y="266.112" style="fill:gray;stroke:gray;stroke-width:.8"/><g id="text_4" style="fill:gray" transform="matrix(.1 0 0 -.1 295.733 280.71)"><use xlink:href="#DejaVuSans-31"/><use xlink:href="#DejaVuSans-35" x="63.623"/><use xlink:href="#DejaVuSans-30" x="127.246"/><use xlink:href="#DejaVuSans-30" x="190.869"/></g></g><g id="xtick_5"><use xlink:href="#m8940a0cd2a" id="line2d_5" x="378.207" y="266.112" style="fill:gray;stroke:gray;stroke-width:.8"/><g id="text_5" style="fill:gray" transform="matrix(.1 0 0 -.1 365.483 280.71)"><defs><path id="DejaVuSans-32" d="M1228 531h2203V0H469v531q359 372 979 998 621 627 780 809 303 340 423 576 121 236 121 464 0 372-261 606-261 235-680 235-297 0-627-103-329-103-704-313v638q381 153 712 231 332 78 607 78 725 0 1156-363 431-362 431-968 0-288-108-546-107-257-392-607-78-91-497-524-418-433-1181-1211z" transform="scale(.01563)"/></defs><use xlink:href="#DejaVuSans-32"/><use xlink:href="#DejaVuSans-30" x="63.623"/><use xlink:href="#DejaVuSans-30" x="127.246"/><use xlink:href="#DejaVuSans-30" x="190.869"/></g></g><g id="xtick_6"><use xlink:href="#m8940a0cd2a" id="line2d_6" x="447.957" y="266.112" style="fill:gray;stroke:gray;stroke-width:.8"/><g id="text_6" style="fill:gray" transform="matrix(.1 0 0 -.1 435.233 280.71)"><use xlink:href="#DejaVuSans-32"/><use xlink:href="#DejaVuSans-35" x="63.623"/><use xlink:href="#DejaVuSans-30" x="127.246"/><use xlink:href="#DejaVuSans-30" x="190.869"/></g></g><g id="xtick_7"><use xlink:href="#m8940a0cd2a" id="line2d_7" x="517.707" y="266.112" style="fill:gray;stroke:gray;stroke-width:.8"/><g id="text_7" style="fill:gray" transform="matrix(.1 0 0 -.1 504.983 280.71)"><defs><path id="DejaVuSans-33" d="M2597 2516q453-97 707-404 255-306 255-756 0-690-475-1069Q2609-91 1734-91q-293 0-604 58T488 141v609q262-153 574-231 313-78 654-78 593 0 904 234t311 681q0 413-289 645-289 233-804 233h-544v519h569q465 0 712 186t247 536q0 359-255 551-254 193-729 193-260 0-557-57-297-56-653-174v562q360 100 674 150t592 50q719 0 1137-327 419-326 419-882 0-388-222-655t-631-370z" transform="scale(.01563)"/></defs><use xlink:href="#DejaVuSans-33"/><use xlink:href="#DejaVuSans-30" x="63.623"/><use xlink:href="#DejaVuSans-30" x="127.246"/><use xlink:href="#DejaVuSans-30" x="190.869"/></g></g><g id="xtick_8"><use xlink:href="#m8940a0cd2a" id="line2d_8" x="587.457" y="266.112" style="fill:gray;stroke:gray;stroke-width:.8"/><g id="text_8" style="fill:gray" transform="matrix(.1 0 0 -.1 574.732 280.71)"><use xlink:href="#DejaVuSans-33"/><use xlink:href="#DejaVuSans-35" x="63.623"/><use xlink:href="#DejaVuSans-30" x="127.246"/><use xlink:href="#DejaVuSans-30" x="190.869"/></g></g><g id="xtick_9"><use xlink:href="#m8940a0cd2a" id="line2d_9" x="657.207" y="266.112" style="fill:gray;stroke:gray;stroke-width:.8"/><g id="text_9" style="fill:gray" transform="matrix(.1 0 0 -.1 644.482 280.71)"><defs><path id="DejaVuSans-34" d="M2419 4116 825 1625h1594v2491zm-166 550h794V1625h666v-525h-666V0h-628v1100H313v609l1940 2957z" transform="scale(.01563)"/></defs><use xlink:href="#DejaVuSans-34"/><use xlink:href="#DejaVuSans-30" x="63.623"/><use xlink:href="#DejaVuSans-30" x="127.246"/><use xlink:href="#DejaVuSans-30" x="190.869"/></g></g></g><g id="matplotlib.axis_2"><g id="ytick_1"><g id="line2d_10"><defs><path id="mbb34a9e613" d="M0 0h-3.5" style="stroke:gray;stroke-width:.8"/></defs><use xlink:href="#mbb34a9e613" x="71.308" y="245.896" style="fill:gray;stroke:gray;stroke-width:.8"/></g><g id="text_10" style="fill:gray" transform="matrix(.16 0 0 -.16 0 251.974)"><defs><path id="DejaVuSans-2212" d="M678 2272h4006v-531H678v531z" transform="scale(.01563)"/></defs><use xlink:href="#DejaVuSans-2212"/><use xlink:href="#DejaVuSans-31" x="83.789"/><use xlink:href="#DejaVuSans-30" x="147.412"/><use xlink:href="#DejaVuSans-30" x="211.035"/><use xlink:href="#DejaVuSans-30" x="274.658"/><use xlink:href="#DejaVuSans-30" x="338.281"/></g></g><g id="ytick_2"><use xlink:href="#mbb34a9e613" id="line2d_11" x="71.308" y="195.626" style="fill:gray;stroke:gray;stroke-width:.8"/><g id="text_11" style="fill:gray" transform="matrix(.16 0 0 -.16 10.18 201.704)"><use xlink:href="#DejaVuSans-2212"/><use xlink:href="#DejaVuSans-35" x="83.789"/><use xlink:href="#DejaVuSans-30" x="147.412"/><use xlink:href="#DejaVuSans-30" x="211.035"/><use xlink:href="#DejaVuSans-30" x="274.658"/></g></g><g id="ytick_3"><use xlink:href="#mbb34a9e613" id="line2d_12" x="71.308" y="145.356" style="fill:gray;stroke:gray;stroke-width:.8"/><use xlink:href="#DejaVuSans-30" id="text_12" style="fill:gray" transform="matrix(.16 0 0 -.16 54.127 151.434)"/></g><g id="ytick_4"><use xlink:href="#mbb34a9e613" id="line2d_13" x="71.308" y="95.085" style="fill:gray;stroke:gray;stroke-width:.8"/><g id="text_13" style="fill:gray" transform="matrix(.16 0 0 -.16 23.587 101.164)"><use xlink:href="#DejaVuSans-35"/><use xlink:href="#DejaVuSans-30" x="63.623"/><use xlink:href="#DejaVuSans-30" x="127.246"/><use xlink:href="#DejaVuSans-30" x="190.869"/></g></g><g id="ytick_5"><use xlink:href="#mbb34a9e613" id="line2d_14" x="71.308" y="44.815" style="fill:gray;stroke:gray;stroke-width:.8"/><g id="text_14" style="fill:gray" transform="matrix(.16 0 0 -.16 13.408 50.894)"><use xlink:href="#DejaVuSans-31"/><use xlink:href="#DejaVuSans-30" x="63.623"/><use xlink:href="#DejaVuSans-30" x="127.246"/><use xlink:href="#DejaVuSans-30" x="190.869"/><use xlink:href="#DejaVuSans-30" x="254.492"/></g></g></g><path id="line2d_15" d="m99.207 145.36 3.102-.01 3.102.013 1.973-.018 1.41.027.846-.04.282.052.282-.063.282.078.282-.101.282.142.282-.223.282 2.827 1.128 17.76.282.268.282-4.738.845-21.998.564-18.475.282-3.838.564 6.622.564-1.515.282 2.303.282-.843.282-5.797.282-.98.564 13.955.282 1.552.282 6.571.282 12.832.282 7.557.282-.313.282.188.282 1.764.282-3.316.282-7.176.282-3.665.281.394.282-1.015.282-2.126.282 1.432.564 8.334.282 1.895.282.8.282.215.282 2.178.564 9.457.564 3.568.282-.294.282-1.205.564 3.989.564-8.054.282.67.282 1.504.282.387.564 6.519.281-.33.282.46.282 1.675.282-5.584.564-22.57.282-6.08.846-28.763.282-1.291.564-9.017.282 1.089.282 2.844.282-3.97.282-6.656.282.539.846 17.569.564 19.291.282.996.282 2.132.281 4.016.282 2.15.282 4.514.282 8.087.282 3.383.282-2.04.282.95.282 2.031.282-5.324.282-8.307.282-.8.282 3.776.282-.915.282-2.871.282 4.046.282 7.898.282 2.23.282-2.229.282.742.282 2.185.282-1.588.282-2.6.282 1.203.564 5.038.282.417.281-2.447.564-10.526.282 3.098.564 13.15.564-1.409.564 8.22.282.411.564-7.673.282-5.54.282-8.406.846-34.62.846-14.285.282-.36.564 2.722.563 6.605.282 1.28.282 3.442.282 5.934.564 6.867.564 19.978.282 1.28.282-2.728.282-.235.564 2.218.282.302.282-1.068.282-1.757.282-.03.282 1.363.282.455.282.055.846 3.814.282-1.01.563-10.698.282-.308.282 4.672.282 1.454.282-1.352.282 3.593.564 12.504.564 2.847.564 4.916.282 1.072.282 1.556.282 2.442.282.839.282-.406.564 2.57.282-3.634.564-11.572 1.128-40.247.281-6.204.282-3.494.282-1.006.564-5.428.282 1.252 1.128 11.565.564-2.917.282 2.918.564 9.965.282 3.492.282 1.686.282-.304.282.704.282 1.383.282-.859.282 1.187.564 17.617.282.91.281-2.333.564 2.693.282-1.23.282-.564.846 4.682.564-.458.564 2.26.282-.252.282.654.282 1.746.282.133.282-.336.282 2.06.282 2.907.564 3.87.564 8.585.282-.04.282-2.86.282-1.104.281-1.717.282-10.21.564-31.582.846-27.511.282-4.249.564-1.936.282-.324.282 1.159.282 2.816.846 12.394 1.692 39.85.282 1.547.282-.336.282 1.064.281-1.196.282-3.517.282-1.134.282-.229.282-1.592.282 1.69.282 3.127.282-5.737.282-10.71.282-.975.282 6.63.564 4.01.564 14.87.282-.829.282 1.031.282 5.18.282.112.564-10.111.282.789.282 1.77.282-.529.282-2.086.281-.106.564 5.767.564 4.07.564 7.032.282 1.105.282-5.043.846-33.012.282-11.491.846-16.12.282-3.336.282 1.202.282-3.791.282-7.24.282.591.564 11.642.282 3.425.282 7.351.563 19.952.282 2.582.282-.5.564 6.903.282-.689.282-1.329.282 1.326.282.679.282.347.282 1.54.282-.481.282-1.78.564 1.736.282-2.092.282-.89.282.38.282-1.238.282.905.282 3.672.282.342.282 1.02.564 20.655.281-.12.282-.347.282 6.246.282-2.269.282-14.315.282-6.116.564 13.411.282-1.167.282 1.822.282 3.996.282.18.282-.39.282 1.093.282-3.46.564-17.652.282-5.654.846-25.753.282-1.329.564-7.916.282 1.418.281 3.84.282 1.74.282-.665.282-6.288.282-10.875.282-4.348.846 14.605.564 19.999.564 6.002.282 3.052.282.936.282-.04.282.51.282.751.282 3.484.282 6.621.282 3.889.564-2.08.564 3.861.282.196.281-1.137.282.913.564 6.743.282.11.282 1.805.282 3.322.282-1.89.282-6.667.282-2.635.564 5.734.282.687.846 4.15.282 2.957.282 1.352.282-3.023.564-9.59.564-20.36.845-34.562.564.024.282-5.828.282-3.083.282 2.7.282.851.282.025.846 16.011.564 8.61.282 1.338.282.702 1.128 15.017.282-1.037.282-2.46.564 1.928.282-2.36.282.038.563 10.56.282-.23.282-1.03.282-.568.282 1.175.564 15.47.282.62.282-1.034.564 10.592.564-13.338.282-1.172.282 1.74.564 6.436.282-1.864.282-5.494.282.225.282 5.031.282 1.379.282-.445.282 5.043.282 8.06.281 3.048.282-3.146.282-6.008.282-9.306.846-38.516.564-14.884.564-9.575.564-11.543.846 2.826.282 6.977.564 18.984.282 4.5.846 25.414.282-2.276.282-3.281.281.123.282.803.282-.336.282 2.67.564 12.476.282 1.832.282.921.282-.59.282-2.987.282-1.503.282 1.07.282.472.282-.073 1.128 3.418.564-2.446.282 1.88.282.948.564-11.29.282.907.563 9.665.282 2.667.282 1.553.282.44.282.873.282 1.31.282-.26.282-.424.282 1.655.282-1.431.282-10.797.564-27.405.846-21.578.282-3.164.282-1.184.282 1.686.282 2.477.282-3.139.282-6.226.282 1.72.564 17.142.563 12.958.564 10.098.282 4.295.282 2.439.282-1.453.282-.358.282 1.561.282-.058.282 1.293.282 4.667.282 1.574.282-3.025.282-.723.282 2.417.282.538.282-.763.282.93.564 3.462.564 5.56.282-.384.282.333.281 2.09.282-.69.282-2.655.282.79.282 1.928.282-.869.282 2.688.564 17.178.282.376.282.124.282 1.896.282-1.804.846-20.838.564-25.466.282-12.539.282-6.915.564-9.473.282-5.984.282-3.551.282-1.053.282.21.281.402.282.804.282 4.586.564 17.143.282-.818.282-3.064.282 4.33.282 8.546.564 8.025.564 18.13.282 3.205.564 3.13.282-1.425.282.39.282 5.073.282 2.741.846-7.1.564-6.486.563-5.588.282.095.282 2.512.282-2.423.282-6.612.282-2.981.282 3.25.564 12.678 1.128 14.178.282 2.102.564 9.253.282.62.564-4.69.282-6.209.564-24.984.564-11.542.563-19.238.282-.065.282-2.896.564-16.31.282 1.228.282 3.689.282 2.047.282 3.811 1.128 33.488.282-.599.282.932.564 5.256.282.983.564 3.334.282-2.617.282-6.141.282-3.654.282 2.577.282 4.716.281 1.797.282.057.564 2.443.282.227.564-1.295.282.905.282 2.446.282.473.282-.983.564 4.134.282.27.282 4.634.282 10.22.282 5.438.282-.8.282 2.537.282 5.908.282 3.153.564 3.54.564-.393.281-2.031.282-12.126.564-33.647.846-31.837.846-9.385.282-.692.564 5.744.282-.017.282.582.846 6.662.282 1.518.282 7.252.564 26.883.282 3.276.282-.934.282 1.144.282.676.281-1.727.282-.761.282.603.282.077.282-.278.282-2.541.564-11.508.282-.291.282-.015.282-2.047.282-.505.564 2.2.282.855.564 2.002.282 1.22.564 5.557.564 8.013.282 2.014.282 4.381.845 32.795.282 3.218.282 1.146.282.608.282-3.19.282-11.064.846-43.828.282-11.807.282-6.236.282-.228.282-2.182.282-5.886.282-2.378.564 5.671.282.265.282-.707.282.57.282 3.8.846 16.535 1.41 23.193.281-.83.564-3.907.282.015.282.467.282-3.989.282-8.099.282-4.44.282.579.282-.337.282-1.002.564 2.263.282-.729.564 2.01.282-.808.282 1.122.282 4.057.282 2.288.282-.104.281.705.282 1.1.282-.01.282.576.564 4.274.282.796.282 2.583.564 11.89.282-.325.564-9.588.282-8.822.846-40.532.282-8.6.282-4.858.282-2.113.282-5.087.564-14.932.282 1.362.282 3.032.281 1.444.282 3.073 1.974 40.833.282 8.124.282 4.757.564 3.013.564 2.422.282-.797.282.252.282 5.982.282 8.348.282 3.012.282-.567.846 4.709.282 4.777.282 6.75.281 2.555.282.252.564 4.168.564 1.863.282-2.311.282-6.63.282-3.739.564 3.681.282.496.282 1.535.282.69.564-4.818.564-4.795.282-1.348.282-4.057.564-27.554.846-35.887.563-19.396.282-2.893.282 1.374 1.41 22.733 1.128 28.548.282 4.49.282 7.032.282 4.257.282-1.613.282 2.092.564 16.643.564-3.44.282 2.428.282-1.272.282-5.043.281-2.216.282.751.282.27.282.823.282 3.92.564 12.162.282 2.825.282-.986.564-4.53.282-.236.282 1.014.846 6.666.282 3.222.846 14.522.282 2.993.282 5.581.282 2.417.282-7.907.564-20.424.281-10.657.564-43.954.282-10.762.282-6.07.564-18.054.564-4.965.282-4.788.282-2.11.564 1.978.282 3.06.564 12.299.282 3.83.282 5.768.564 15.016.564 3.235 1.41 22.361 1.127 11.386.564 7.94.282-.207 1.128-15.396.282 2.093.282.928.564-14.748.282.99.282 3.875.282 1.286.282 6.181.564 19.92.282 1.884.282 5.846.563 15.987.564 7.148.282 3.302.282-.851.282-4.308.282-7.45 1.692-66.649.564-20.03.282-5.032.282 1.05.282-1.06.282-2.661.282 6.726.282 12.868.282 3.59.282-4.45.282 1.479.282 7.07.281 3.116.282.294.846 9.791.282 1.5.564 4.024.282.21.282-1.484.282-.454.282 4.42.564 14.53.282 1.176.282.084.564 2.726.282-.078.282.473.282.929.282.235.282-.147.282.605.282 2.76.281 3.984.282 1.78.282.2.846 7.292.282.84 1.128 11.51.282-3.284 2.256-90.419.282-5.2.282-1.586.282-4.194.282-1.682.563 14.558.282.448.282 1.084.846 13.72.564 19.444.564 10.13.282 4.728.282-3.534.282-5.665.282-.983.282-.553.282-1.276.564 4.383.282-.439.282.84.282 2.945.846 4.584.564 1.26.281 1.88.282.402.282 1.743.564 17.87.282 3.54.282.78 1.128 11.961.564 18.403.564 15.227.846 18.867.282 3.987.282 1.196.282-9.113.564-30.664.282-12.904 1.127-84.644.564-44.155.282-11.981.564-31.151.282-1.4.282.867.282-1.725.282 6.03.564 30.214.846 24.165.564 9.65.564 12.636.282 5.53.282 8.833.282 4.68.282-3.984.282-2.12.281 4.415.282 1.942.282.038.282 7.475.564 17.754.282 7.013.564 17.568.846 16.071.282.424.282 5.075.282 7.169.564 4.595.282 5.99.282.685.282-7.058.282-3.606.282 2.377.282-2.266.282-7.768.282-.95.281 8.489.282 4.605.564-12.17.282-2.227.282-7.14.846-42.71.564-49.76.282-9.94.282-.075.282 1.385.282 6.63.564 21.807.564 7.745.282 2.16.282-.995.282-2.403.282-4.327.564-19.03.563-23.375.564-22.446.564-18.425.564-20.847.282.096 1.128 34.997.282 20.119.282 12.104.282 7.328 1.974 118.08.564 17.583.282 3.299.563 15.837.282 1.512.282.58.564 10.385.282-5.31.564-17.26.282-14.06.846-57.495.846-20.085.282 2.362.282 8.516.282 3.41.282-2.748.282-1.326.282.004.564-5.688.282.714.563 2.723.846 12.773.282 2.041.282 4.344.282 1.627.282-1.772.282.995.282 2.083.564-7.666.282 3.536.282 5.86.282.772.282-.23.282.799.282-5.258.564-30.266.564-36.876.282-10.496.282-2.155.281-.663.282-1.166.282 1.215.564 6.383.282 5.352.564 18.047.564 23.499.564 25.997.282 8.784.282 4.484.282-1.29.564-12.902.846-21.822.282-1.015.282 1.069.282-1.299.564-9.491.282-1.78.281-4.813.282-10.804.282-6.042.564 13.677.282.641.282 2.373.564 20.536.282 3.803.564 2.105.282-2.128.564-10.836.282-.666 1.128 7.566.564.921.282.759.282.135.282 1.834.845 20.616.282.816.282 3.9.282 7.44.282 4.035.564-3.155.282 2.332 1.128 15.66.282 6.178.846 24.637.282 1.657.282-1.284.282-4.68.564-20.211 1.41-56.447.563-32.796.564-39.168.282-11.411.564-9.988.564-5.091.282-.16.564 4.803.564.303.846 10.048.564 4.726.282-3.281.282-1.763.282 7.918 1.41 64.967.563 26.641.564 6.472.564 23.765.282-3.504.282-5.314.564 3.744.564-7.372.282-.512.282.459.282 1.384.564 5.942.282 6.84.564 20.566.282 5.273.281 1.773.282-1.041.282-4.735.564-19.78 1.41-75.601.564-36.52.564-35.755.282-10.09.564-9.9.282-3.823.282 5.292.564 27.244.282 2.793.282 4.95.282 9.182.564 6.832 1.127 45.897.564 19.883.282 7.368.846 39.155.282 3.962.282-.746.564-11.008.564-10.684.564-12.436.846-10.004.282-.912.282.733.282 3.139.563 16.027.282 7.838.282 4.747.564 4.387.564 8.491.282-.053.282-4.19.282-10.214.846-40.598.564-22.948.282-6.874.846-10.609.564-14.56.282-1.137.846 12.53.563 27.138.282 6.059.282-1.605.282-3.39.282-1.877.282-.099.564.146.282 1.964.282 2.987.564.84.564 7.728.282-1.082.282-.244.282 3.576.282 1.961.282.329.846 11.21.282 1.482.282 3.186.282 1.299.281-.036.282 2.738.564 7.981.282-1.394.564-11.129.282-.03.564 5.95.282 6.053.282 10.03.282 4.9.282-7.044.846-38.274.564-34.912.846-18.156.282 3.036.282 12.527.282 7.018.281-.815.282 3.261.282 7.797.282 2.931.282-1.113.282 1.86.564 6.723.282 2.488.564 6.763.282-.65.282-.966.282.285.564-2.625.282 5.742.282 8.554.282 1.599.282-2.68.282.247.282.937.282.352.846 10.847.281 1.889.282 2.875.564 1.309.282 1.612.282.267.282 1.724.282 4.567.282-1.199.282-8.742.282-4.264.564 6.676.282-.005.282 7.144.282 13.83.282 7.98.282-1.686.564-7.367.282-12.753.564-39.07.845-26.016.282-4.334.282 1.357.282.514.564-4.584.282-.902.846-11.489.282.998.564 5.392.564 11.142.564 9.777.282 4.047.282 6.713.846 26.053.282 1.12.282 3.379.282 7.444.281 1.867.282-4.736.282-.73.282 3.766.282.76.282.283.564 7.455.282 1.968.564 10.38.282 1.785.282.996.564 6.714 1.128 16.955.564 22.155.282 1.474.282-5.984.282-2.5.282-4.14.282-19.223.845-89.692.564-36.9 1.128-27.763.282 1.334.282 3.124.282-1.526.282-2.819.282 3.094.282 5.712.282 2.047.282 3.137 1.692 55.38.282 5.6.282 2.978.281.466.564 4.48.564-3.612.282 4.057.282 1.26.564-13.214.282 2.282.282.073.564-10.87.282 3.046.846 16.775.846 22.484 1.128 38.458.563 4.48.282 2.476.282-.01.282 1.47.564 16.145.282-4.24.564-26.066 1.41-96.441.282-14.566.282-7.862.282-2.449.564-9.287.282-.614.846 9.345.564 11.692 1.127 36.887.846 15.756.282-1.624.282.056.564 7.863.282-1.154.564-5.406.282.368.564 6.96.282 1.652.282 2.552.564 8.306.846 23.016.282 3.42.563 9.215.564-4.586.282 4.016 1.41 33.984.564 6.146.282 4.26.282 1.331.282-7.663.846-48.38.564-44.436.846-41.135.282-9.12.564-8.642.282-2.604.281-.991.282 1.457.282 3.724.282.96.282-3.575.282-.049.564 10.742.282 1.284.282 8.323.564 22.918.282 3.492.282 5.802.846 23.23.564 7.88.282 2.52.282-.585.564-8.534.282-1.511.282-4.595.281-7.323.282-2.882.282 1.692.282.187.282.568.846 21.008.282 3.76.564 13.133.282.591.282 3.124.846 20.03.564 21.101.564 11.85.282-.128.282-6.4.564-20.813 1.127-57.692.846-34.23.564-29.647.564-17.63.282-3.107.282.115.282.338.282 1.007.282 5.74.564 22.056.282 3.726.282-.387.282.404.564-.704.282 6.994.564 29.341 1.127 31.778.846 19.057.282-1.151.282-1.63.564 2.036.282-.737.282-1.643.282-.744.564 3.068.564-5.224.282 3.553.282 6.417.282 1.015.564-10.528.282-5.635.282-1.65.282 1.913.281-3.622.846-36.313.564-14.273.282-4.595.282-1.672.564 7.364.282-3.263.282-7.25.282-2.112.282-1.26.282-6.84.282-4.12.282 4.957 1.128 28.219.282 3.501.564 10.177.282.67.281-.564.282 4.372.282 6.35.282 1.337.282-2.116.282 2.267.282 5.54.282-2.353.282-10.54.282-5.317.282 2.047.282-1.266.282-3.963.282 1.003.282 2.695.282 1.314.846 14.666.282.42.282 2.885.282 1.18.282-.8.282 3.107.282 8.58 1.127 47.2.282-.397.282 2.13.282 1.266.282-8.087 1.128-66.067.564-36.783.564-28.65.282-13.182.282-2.077.282.629.564-8.505.282 2.96.564 8.264.564 9.312.281 5.418 1.128 35.539.846 51.29.282 4.23.282 6.423.282 3.63.846-4.746.564-9.394.282-.704.282-2.465.564-9.042.282-1.39.564 4.453.564-4.127.281.346h0" clip-path="url(#p617ee2b14a)" style="fill:none;stroke:#1f77b4;stroke-width:1.5;stroke-linecap:square"/><path id="patch_3" d="M71.308 266.112V0" style="fill:none;stroke:gray;stroke-width:.8;stroke-linejoin:miter;stroke-linecap:square"/><path id="patch_4" d="M685.107 266.112V0" style="fill:none;stroke:#000;stroke-width:.8;stroke-linejoin:miter;stroke-linecap:square"/><path id="patch_5" d="M71.308 266.112h613.8" style="fill:none;stroke:gray;stroke-width:.8;stroke-linejoin:miter;stroke-linecap:square"/><path id="patch_6" d="M71.308 0h613.8" style="fill:none;stroke:#000;stroke-width:.8;stroke-linejoin:miter;stroke-linecap:square"/></g></g><defs><clipPath id="p617ee2b14a"><path d="M71.308 0h613.8v266.112h-613.8z"/></clipPath></defs></svg>