<svg xmlns="http://www.w3.org/2000/svg" xmlns:xlink="http://www.w3.org/1999/xlink" width="913.477" height="377.053" viewBox="0 0 685.107 282.79"><defs><style>*{stroke-linejoin:round;stroke-linecap:butt}</style></defs><g id="figure_1"><path id="patch_1" d="M0 282.79h685.107V0H0v282.79z" style="fill:none"/><g id="axes_1"><path id="patch_2" d="M71.308 266.112h613.8V0h-613.8v266.112z" style="fill:none"/><g id="matplotlib.axis_1"><g id="xtick_1"><g id="line2d_1"><defs><path id="mdd81dbdfad" d="M0 0v3.5" style="stroke:gray;stroke-width:.8"/></defs><use xlink:href="#mdd81dbdfad" x="99.207" y="266.112" style="fill:gray;stroke:gray;stroke-width:.8"/></g><g id="text_1" style="fill:gray" transform="matrix(.1 0 0 -.1 96.026 280.71)"><defs><path id="DejaVuSans-30" d="M2034 4250q-487 0-733-480-245-479-245-1442 0-959 245-1439 246-480 733-480 491 0 736 480 246 480 246 1439 0 963-246 1442-245 480-736 480zm0 500q785 0 1199-621 414-620 414-1801 0-1178-414-1799Q2819-91 2034-91q-784 0-1198 620-414 621-414 1799 0 1181 414 1801 414 621 1198 621z" transform="scale(.01563)"/></defs><use xlink:href="#DejaVuSans-30"/></g></g><g id="xtick_2"><use xlink:href="#mdd81dbdfad" id="line2d_2" x="168.958" y="266.112" style="fill:gray;stroke:gray;stroke-width:.8"/><g id="text_2" style="fill:gray" transform="matrix(.1 0 0 -.1 159.414 280.71)"><defs><path id="DejaVuSans-35" d="M691 4666h2478v-532H1269V2991q137 47 274 70 138 23 276 23 781 0 1237-428 457-428 457-1159 0-753-469-1171Q2575-91 1722-91q-294 0-599 50Q819 9 494 109v635q281-153 581-228t634-75q541 0 856 284 316 284 316 772 0 487-316 771-315 285-856 285-253 0-505-56-251-56-513-175v2344z" transform="scale(.01563)"/></defs><use xlink:href="#DejaVuSans-35"/><use xlink:href="#DejaVuSans-30" x="63.623"/><use xlink:href="#DejaVuSans-30" x="127.246"/></g></g><g id="xtick_3"><use xlink:href="#mdd81dbdfad" id="line2d_3" x="238.708" y="266.112" style="fill:gray;stroke:gray;stroke-width:.8"/><g id="text_3" style="fill:gray" transform="matrix(.1 0 0 -.1 225.982 280.71)"><defs><path id="DejaVuSans-31" d="M794 531h1031v3560L703 3866v575l1116 225h631V531h1031V0H794v531z" transform="scale(.01563)"/></defs><use xlink:href="#DejaVuSans-31"/><use xlink:href="#DejaVuSans-30" x="63.623"/><use xlink:href="#DejaVuSans-30" x="127.246"/><use xlink:href="#DejaVuSans-30" x="190.869"/></g></g><g id="xtick_4"><use xlink:href="#mdd81dbdfad" id="line2d_4" x="308.457" y="266.112" style="fill:gray;stroke:gray;stroke-width:.8"/><g id="text_4" style="fill:gray" transform="matrix(.1 0 0 -.1 295.733 280.71)"><use xlink:href="#DejaVuSans-31"/><use xlink:href="#DejaVuSans-35" x="63.623"/><use xlink:href="#DejaVuSans-30" x="127.246"/><use xlink:href="#DejaVuSans-30" x="190.869"/></g></g><g id="xtick_5"><use xlink:href="#mdd81dbdfad" id="line2d_5" x="378.207" y="266.112" style="fill:gray;stroke:gray;stroke-width:.8"/><g id="text_5" style="fill:gray" transform="matrix(.1 0 0 -.1 365.483 280.71)"><defs><path id="DejaVuSans-32" d="M1228 531h2203V0H469v531q359 372 979 998 621 627 780 809 303 340 423 576 121 236 121 464 0 372-261 606-261 235-680 235-297 0-627-103-329-103-704-313v638q381 153 712 231 332 78 607 78 725 0 1156-363 431-362 431-968 0-288-108-546-107-257-392-607-78-91-497-524-418-433-1181-1211z" transform="scale(.01563)"/></defs><use xlink:href="#DejaVuSans-32"/><use xlink:href="#DejaVuSans-30" x="63.623"/><use xlink:href="#DejaVuSans-30" x="127.246"/><use xlink:href="#DejaVuSans-30" x="190.869"/></g></g><g id="xtick_6"><use xlink:href="#mdd81dbdfad" id="line2d_6" x="447.957" y="266.112" style="fill:gray;stroke:gray;stroke-width:.8"/><g id="text_6" style="fill:gray" transform="matrix(.1 0 0 -.1 435.233 280.71)"><use xlink:href="#DejaVuSans-32"/><use xlink:href="#DejaVuSans-35" x="63.623"/><use xlink:href="#DejaVuSans-30" x="127.246"/><use xlink:href="#DejaVuSans-30" x="190.869"/></g></g><g id="xtick_7"><use xlink:href="#mdd81dbdfad" id="line2d_7" x="517.707" y="266.112" style="fill:gray;stroke:gray;stroke-width:.8"/><g id="text_7" style="fill:gray" transform="matrix(.1 0 0 -.1 504.983 280.71)"><defs><path id="DejaVuSans-33" d="M2597 2516q453-97 707-404 255-306 255-756 0-690-475-1069Q2609-91 1734-91q-293 0-604 58T488 141v609q262-153 574-231 313-78 654-78 593 0 904 234t311 681q0 413-289 645-289 233-804 233h-544v519h569q465 0 712 186t247 536q0 359-255 551-254 193-729 193-260 0-557-57-297-56-653-174v562q360 100 674 150t592 50q719 0 1137-327 419-326 419-882 0-388-222-655t-631-370z" transform="scale(.01563)"/></defs><use xlink:href="#DejaVuSans-33"/><use xlink:href="#DejaVuSans-30" x="63.623"/><use xlink:href="#DejaVuSans-30" x="127.246"/><use xlink:href="#DejaVuSans-30" x="190.869"/></g></g><g id="xtick_8"><use xlink:href="#mdd81dbdfad" id="line2d_8" x="587.457" y="266.112" style="fill:gray;stroke:gray;stroke-width:.8"/><g id="text_8" style="fill:gray" transform="matrix(.1 0 0 -.1 574.732 280.71)"><use xlink:href="#DejaVuSans-33"/><use xlink:href="#DejaVuSans-35" x="63.623"/><use xlink:href="#DejaVuSans-30" x="127.246"/><use xlink:href="#DejaVuSans-30" x="190.869"/></g></g><g id="xtick_9"><use xlink:href="#mdd81dbdfad" id="line2d_9" x="657.207" y="266.112" style="fill:gray;stroke:gray;stroke-width:.8"/><g id="text_9" style="fill:gray" transform="matrix(.1 0 0 -.1 644.482 280.71)"><defs><path id="DejaVuSans-34" d="M2419 4116 825 1625h1594v2491zm-166 550h794V1625h666v-525h-666V0h-628v1100H313v609l1940 2957z" transform="scale(.01563)"/></defs><use xlink:href="#DejaVuSans-34"/><use xlink:href="#DejaVuSans-30" x="63.623"/><use xlink:href="#DejaVuSans-30" x="127.246"/><use xlink:href="#DejaVuSans-30" x="190.869"/></g></g></g><g id="matplotlib.axis_2"><g id="ytick_1"><g id="line2d_10"><defs><path id="mdea26595ed" d="M0 0h-3.5" style="stroke:gray;stroke-width:.8"/></defs><use xlink:href="#mdea26595ed" x="71.308" y="220.791" style="fill:gray;stroke:gray;stroke-width:.8"/></g><g id="text_10" style="fill:gray" transform="matrix(.16 0 0 -.16 0 226.87)"><defs><path id="DejaVuSans-2212" d="M678 2272h4006v-531H678v531z" transform="scale(.01563)"/></defs><use xlink:href="#DejaVuSans-2212"/><use xlink:href="#DejaVuSans-31" x="83.789"/><use xlink:href="#DejaVuSans-30" x="147.412"/><use xlink:href="#DejaVuSans-30" x="211.035"/><use xlink:href="#DejaVuSans-30" x="274.658"/><use xlink:href="#DejaVuSans-30" x="338.281"/></g></g><g id="ytick_2"><use xlink:href="#mdea26595ed" id="line2d_11" x="71.308" y="164.825" style="fill:gray;stroke:gray;stroke-width:.8"/><use xlink:href="#DejaVuSans-30" id="text_11" style="fill:gray" transform="matrix(.16 0 0 -.16 54.127 170.903)"/></g><g id="ytick_3"><use xlink:href="#mdea26595ed" id="line2d_12" x="71.308" y="108.858" style="fill:gray;stroke:gray;stroke-width:.8"/><g id="text_12" style="fill:gray" transform="matrix(.16 0 0 -.16 13.408 114.937)"><use xlink:href="#DejaVuSans-31"/><use xlink:href="#DejaVuSans-30" x="63.623"/><use xlink:href="#DejaVuSans-30" x="127.246"/><use xlink:href="#DejaVuSans-30" x="190.869"/><use xlink:href="#DejaVuSans-30" x="254.492"/></g></g><g id="ytick_4"><use xlink:href="#mdea26595ed" id="line2d_13" x="71.308" y="52.891" style="fill:gray;stroke:gray;stroke-width:.8"/><g id="text_13" style="fill:gray" transform="matrix(.16 0 0 -.16 13.408 58.97)"><use xlink:href="#DejaVuSans-32"/><use xlink:href="#DejaVuSans-30" x="63.623"/><use xlink:href="#DejaVuSans-30" x="127.246"/><use xlink:href="#DejaVuSans-30" x="190.869"/><use xlink:href="#DejaVuSans-30" x="254.492"/></g></g></g><path id="line2d_14" d="m99.207 164.795.282.06.282-.06.282.06.282-.06.282.06.282-.06.282.06.282-.06.282.06.282-.062.282.063.282-.064.282.066.282-.067.282.068.282-.07.282.072.282-.073.282.075.282-.078.282.08.282-.082.282.085.282-.089.282.093.281-.097.282.102.282-.108.282.114.282-.12.282.128.282-.137.282.147.282-.16.282.175.282-.193.282.216.282-.244.282.281.282-.333.282.408.282-.526.282.74.282-1.25.282 3.975.282 11.853.282.448.282 1.273.282-2.992.282-4.453.281-2.653.282 1.387.282-.203.282-1.595.282.501.282 3.698.282 2.07.282-.144.282-.675.564.483.282.195.564-.148.564-2.182.282-2.542.282-5.185.846-23.194.564-6.736.282-1.344.282 1.177 1.41 20.527.281 5.554 1.128 11.812.282 1.767.282.376.282-.66.282-1.178.282.268.282.992.282-.296.282-.702.564 2.384.282-.827.282-1.548.282-.27.282.33.282.549.282 1.029.563 3.102.282 1.004.282-.383.564-3.687.564-4.15.282-3.607 1.128-23.985.282-2.22.282.578.846 6.411.282.174.282-1.643.282-.536.282 3.884.564 10.498.563 5.31.282 1.01.282-1.316.282 1.18.282 4.643.282 2.6.282-1.486.282-.795.282 1.28.282-.621.564-6.183.282.271.282.794.282-.215.282.163.282.825.282.17.282-.416.282.858 1.128 7.57.282-.708 1.41-28.06.281-6.233.282-2.137.564 3.615.564-4.288.282 3.007.564 13.375.564 2.855 1.128 12.567.282 1.492.846 1.022.282-.346.282-.897.281-.014.564 3.424.282.056.564-3.014.282.762.846 5.238 1.41 16.653.282 2.028.282-.269.282-1.065.282-1.803.564-8.789.282-1.966.282.007.282 1.88.845 16.82.564 5.196.282-.908.564-11.893.564-3.79.282-3.6.282-.19.282 5.25.282 1.776.282-10.636.846-53.53.282-11.506.282-5.25.282-1.271.564-5.614.282.362.282 1.375.282.424.282 1.947.281 3.267.282 1.457.282-1.615.282-5.343.846-26.777.564-31.304.564-23.561.564-15.6.282 3.008.282 7.4.282 2.377.282-.511.282 4.672.564 24.911.564 48.95.846 90.424.563 39.775.564 16.529.282 3.759.282.626.564-3.63.282-2.159.846-10.473.282-.878.282-2.34.564-9.265.282-.417.282 1.728.282.099.564-4.698 1.41-19.455.563-15.909.846-30.193.564-9.007.282-1.448.282.269.282.51.282 1.664 1.41 21.52.846 6.911.282 1.381.564 1.13.282-.604.564-5.031.281-.766.282-.341.564-3.41.282.078.282 1.263.282-.251.282-1.531.282-.214 1.128 4.513.282-.15.282-.686.282.763.282.04 1.128-11.743.564-14.741.564-5.933.281-1.89.282 1.489.564 6.994.282 1.572 1.128 15.741.564 7.214.282.857.282-.171.282-.43.564-2.39 1.128-1.684.564-4.268.282-.396.564 2.26.845 9.1.282-.434.282 2.215.282 3.295.282-.67.282-3.326.282-1.33.282.506.282-1.077.282-3.658.564-14.318.564-14.267.846-9.95.282.599.846 7.456.564 11.397.282-.58.281-1.09.564 6.421.282-.68.282-.13.846 12.036.564 3.62.282.796.564 2.758.282-1.542.282-2.328.282.752.282 2.333.846 3.56.282-.737.282-1.6.282.522.564 3.5.281.817.282-.08.282-2.397.564-10.638 1.128-27.75.282-3.981.282-1.845.282 1.347.846 7.474.564 14.582.846 11.181.282 1.891.282.928.564 3.48.282-.342.282.22.281.609.282-.365.282.008.282-.566.564-6.81.564 3.132.282-1.727.282-.099.564 7.678.564 2.152.282.495.282-.983.282.849.282 3.408.282 1.615.282-2.338.564-8.768.282-8.016.564-21.64.563-8.84.282-3.86.282.722.564 19.432.282 3.88.282 1.518.846 15.01.846 2.564.282-.005.282.341.282-.063.564-2.461.282.155.282-.666.282-1.982.282-.146.282 2.288.282.979.282-.879.281.413.282 1.597.564 1.14.846 5.922.564 2.62.282.114.282-.182.282-1.79.564-10.09 1.692-35.825.282-1.547.564 4.982.282 2.826.563 9.433.282 4.917.282 2.465.282-.134.282 1.658.564 8.48.282-1.357.282-.48.846 11.957.282-.999.282-2.354.282-1.169.282.441.282.202.282-.525.282.284.282 1.023.282.338.282-.43.282.061.282 1.25.282 1.892.281 1.132.564.026.282-.142.282-1.654.564-8.673.846-19.755.564-11.492.282-.734.282 1.328.564.368.282 2.797 1.41 22.884.846 10.51.282.543.281-.125.564 1.748.282-1.167.564-3.46.282-.962.564-2.223.282 1.036.846 7.107.282 1.659.564 2.167.564 4.395.282-.389.282-.796.282.034.282-2.824 1.41-39.209.281-3.68.282-1.47.282-.127.282.954.564 3.067.282-.454.282.697.846 14.512.282 2.317.846 20.238.564 4.583.282-.62.282-2.359.282-.173.282.574.282-1.319.282-.44.281 1.84.282.276.564-4.409.282 1.564.282 2.206.282.85.282 1.732.564 8.165.282-.105.282-3.514.282-5.906.564-16.086.564-12.054.564-19.624.846-12.198.282.756 1.127 27.312.282 1.179.282 3.664.564 11.732.564 6.025.564 4.312.282.71.282-3.238.282-5.397.282-.94.564 7.805.282.422.282.894 1.41 11.063.564 11.084.282.843.845-7.547.282-8.982.564-23.958.564-14.793.564-10.538.282.207.282 2.75.282.616.282-.147.846 10.598.282 4.58.564 12.44.282.402.282.865.282 2.014.564 1.508.282-.212.563-4.592.282 2.121.282 3.244.282.872.282-.004.282 1.4.846 7.119.282 1.255.564 5.519.564.513.564 7.626.282-2.484.564-13.454.564-20.759.564-20.729.282-4.828.281-1.438.564-.543.282 1.605 1.128 13.369 1.128 22.33.282.77.282-.526.282.938.846 4.014.282.442.282-.83.282.867.282 2.734.282 1.345.282.308.563 2.841.282.262.282 1.57.564 4.926.282 2.092.564 6.453.282-2.615.282-6.907 1.41-45.932.282-7.537.282-3.759.282.384.564 1.118.564 6.996.282 3.644.282 5.254 1.127 30.969.282 3.265.282.667.282 1.254.564 3.515.282.424.282-.545.846-6.772.282 1.035.282-.002.282-1.518.282-.534.282 1.894.564 4.956.564 4.233.282.38.282-2.918.282-6.31.563-21.607.564-23.047.282-8.035.282-4.472.282-1.101.282.376.282.722.282 1.276.282 2.214.282 4.401 1.692 45.194.846 13.16.282 1.187.282-2.563.282-1.27.282 1.57.282.923.281-1.068.564-3.102.282-.156.282.493.564-1.626.282 1.752.282 3.06.564 2.79.282 1.02.282-1.525.282-4.789.282-6.92.564-21.793.564-20.583.564-11.248.282-3.044.282-1.656.282.236.845 5.123.282 5.089.846 23.85.564 16.208.846 16.06 1.128 6.595.282.738.282-1.52.564-5.377.282-.313.564-1.162.564 2.049.282-.49.282-1.018.281-.162.564 1.376.282-1.533.282-7.168 1.128-44.145.282-7.713.564-7.304.282-1.624.282 1.33 1.128 12.05.282 5.205 1.41 35.08.564 10.095.281 2.848.282.68.846-6.362.282-.526.282-2 .282-.372.846 11.846.282.587.564 4.186.282.524.282.101.282 1.848.282 3.142.282.854.282-3.927.564-15.766 1.127-45.568.564-8.717.282-1.729.846 4.17.282 1.7.282 3.415.564 10.63 1.41 30.628.846 11.205.282 1.57.282-.37.282-.086.282.747.282-.186.282-.91.281-.211.282.206.282-.396.282-1.422.282-2.125.282-.529 1.41 11.472.282-2.084.282-7.941.564-25.494.564-23.76.282-5.175.282-3.078.282-1.534.282.058.282 1.017.282 2.151.846 9.387.563 7.908.282 1.691.282 3.593 1.41 28.631.282 1.938.282 1.003.564.88.282.197.564-.91.282 1.23.564 4.18.564 2.885.564 3.3.845 3.28.282.217.282-1.818.282-5.356.564-21.472.564-24.91.564-13.021.282-3.665.282-2.058.282-.818.282.176.282 2.13 1.41 19.489.282 4.296 1.128 24.48.281 2.27.282.193.282 1.007.564 4.166.282.41.564 1.67.564-.897.564-.25.282 1.433.282 3.016.846 6.17.282 3.748.282 1.578.282-.044.282-1.153.282-3.54.282-6.547.282-10.045.845-39.79.564-9.637.282-3.362.282-.498.282.618.564-1.84.564 5.593.282 2.646.282 5.488.564 16.683.846 17.582 1.128 8.389.282-.541.564 2.234.282-.514.281.924.282 3.098.282.873.282-1.685.282.356.282 2.272.282.17.282-.882.282 2.252.282 4.133.282 1.891.282-.169.282-.523.282-2.733.564-13.169.564-19.096.564-19.032.564-7.944.282-2.19.282.87.282.421.281-2.07.282-.994.282 3.128.846 14.936.564 10.148.564 10.529.564 8.249.282 1.354.282-1.264.282.028.282 1.735.282.058.282-.66.282 2.147.282 3.538.282 1.941.282 1.1.282.472.282-.834.282.901.563 7.302.282.515.282 2.96.282 5.18.282 1.66.282-2.32.282-5.12.282-11.653.564-32.796.564-16.312.282-4.594.846-3.088.282 1.29.282 2.334.282.002.282.906.564 7.12.282 2.699.282 8.72.282 12.601.281 7.363.282 1.743.282 3.064.282 4.826.282 1.615.564-4.51.282-.268.564 1.751.564.48.282-.152.282-.424.282.89.846 5.95.846 11.714.282 1.119.282 1.9.282.065.282-4.942.563-18.178.846-39.656.282-1.612.282 1.184.282-1.487.282-.61.282 2 .282-.432.282-2.84.282.423.282 3.216.564 3.975 1.128 18.411.564 9.404.564 6.31.845 5.34.282.317.282-.25.564 2.916.282.117.282-.494.282-.741.282-1.26.282-.002.846 6.892.564 7.446.282 1.01.282-.924.282-1.907.282-3.971.282-7.197 1.128-43.936.282-4.8.281-2.793.282-1.277.282-.219.282.269.564 1.21.282 1.632 3.384 45.52.282-.85.282.025.282 1.246.282.552.846-.232.281 1.375 2.256 22.716.282-4.178.564-15.593.564-25.471.564-21.272.282-4.614.282-1.805.282-.777.282-2.246.282-.835 1.41 20.293.563 6.655.564 11.757.846 10.379.282 1.157.564-3.511.282.665.282 1.074.282.414.282 1.175.846 8.628.282.68.282 1.043.282-.053.282-1.26.282.366.564 4.072.281.516.282-.232.282-2.217.282-5.382.564-21.147.564-20.974.564-11.143.282-2.906.564 3.328.282.287.282 2.585.564 12.236.846 8.656 1.128 16.664.282 1.37.282 2.29.281 3.356.282 1.125.282-.666.282.7.282 1.373.282-.09.564-1.133.282-1.286.282.098.564 5.52.282 1.375.282 3.582.564 9.43.846 3.477.282-1.76.282-4.333.282-7.49.564-28.225.563-22.791.564-8.887.282-3.55.282-1.089.564 4.143.282 2.154.564 7.665 1.41 20.949.564 12.87.282 3.803.846 5.537.282.284.282-.15.846 1.234.281.899.564 3.923.282-.156.282-1.433.282.34.846 7.495.564 3 .282.073.282-2.604.282-7.188.846-34.921.564-11.26.282-2.161.282-1.111.282-.463.282-.152.564-1.914.281 3.431.564 9.809.282 3.6.564 12.503.282 1.088.282.264 1.128 8.475.282.64.282-.424.282 1.132.282 1.906.282.217.282-.79.846-1.013.282.825.564 4.785.563 4.857.846 5.673.282-2.776.564-17.14.564-18.29.282-4.188.564-3.308.564-5.342.282.019.282 1.019.282.04.282-.226.282 2.857.564 12.254.564 4.117.564 7.257.282 1.52.845 6.457.282.026.564 2.718.282-.812.282-1.75.282-.562.564 1.819.282 1.076.282 1.821.846 9.163.282 1.142.564 1.343.282-.504.282-4.872.846-26.562.845-7.43.282-.89.282 2.106.282 1.139.564-4.97.282.857.564 4.27.564 3.197.282.75.282 1.123 1.128 10.618.282 1.266 1.128 7.735.845 11.862.282 1.171.564 4.288.564-2.83.282 3.039.564 12.521.282 1.025.564-3.057.282-3.51.282-8.646.564-22.261.564-9.954.282-3.596.282-2.168.282-.05.846 3.046.564 6.505.281-1.122.282-9.462.564-27.008.282-5.557.282 1.098.282 3.79.282 2.125.282-.664.282-1.008.564 1.31.282-1.414.282-2.96.282-1.453.564 2.987.282-.372.282-.66.282 2.974.282 7.725.564 24.683.564 33.001.281 10.4.564 9.782.282 2.855.282-4.795.564-24.737.282-6.844.564-7.953.564-10.26.846-8.339.282-5 .282-2.247.282.35.282-1.25.564-6.77.564-3.474.282-.27.282 1.767.282 3.215.563 10.492.846 20.472.564 12.874.282 2.635.282.297.282-1.659.564-4.739.282-1.818.282-3.175.564-9.615.282-.07.282 2.195.846 3.364.282-.997.282-3.884.282-2.124.282.13.281-2.66.564-12.768.282-2.206.282 1.001.846 7.018.564 1.743.282 3.574 1.128 19.86.282 2.01.564-3.638.282.5.282-1.355.282-2.276.282 1.163.282 2.413.282-.625.282-1.698.281-.453.564-1.817.564 4.729.282.285.282 2.043.282 4.84.282 1.752.282-2.15.282-.423.282.637.282-3.637.846-17.672.564-9.484.282-2.533.564-6.4.564 2.383.282-1.736.282-2.654.282-1.012.281.85 1.128 8.95.564 8.637.564 12.038.282 3.554.282.612.282-.01.282.601.282.24.282-.088.564 1.078.282-.58.282-.168.564 3.465.282.525.282 1.28.282 2.972.282 1.731.281-1.068.564-2.997.282-4.012.846-17.38.564-10.212.846-7.522.282-1.194.282 2.113.282.633.282-2.736.282-.491.846 12.11 1.973 19.903.282 1.51.282 2.21.282.715.282.143.564 2.94.282-1.064.282-1.758.564-1.488.282-1.134.564-1.066.282-1.004.282.031.282 1.322.282.787.282-.255.282-1.006.282-2.95 1.41-23.922.563-6.277.282-1.347.282 2.192.282 3.437.282 1.61.282.58.564 3.774.564 4.085.846 9.035.282 1.134.564.583.282 1.298.564 6.67.282 1.127 1.127-3.083.282.006.282-.498.282-.803.282.894.282 1.631.282-1.068.282-2.91.282-.554.282 2.789.564 7.604.282.481.282-4.35.564-10.468.282-3.517.564-10.891.282-1.029.282 1.143.282-.034.282-.372.282.38.564-.802.281 1.774.282 2.884.282.999.282.323.282 2.64.282 3.804.282 1.877.282.514.564 3.673.282.455.282.055.564 4.205.282.326.282-.276.282.202.282-1.07.282-1.909.282.133.564 2.588.564 3.433.282-1.224.281-3.408.282-.183.282 2.955.282 1.066.282-1.714.282-2.484.282-3.7.846-14.197.282-3.882.282-2.282.564-1.352.282-.097.282 1.03.282.309.282.87.564 11.068.282.673.282-1.631.564 5.125.282-1.351.281-2.276.282.637.564 3.361.282 2.877.282 1.64.564-2.997.564 2.808.282-.223.282-.527.282.561.846 2.566.564 4.202.282.947.564 3.628.282-.02.282-3.154 1.41-23.712.281-2.73.282-.135.282 1.216.282.123.282-.026 1.128 5.703 1.128 8.74.564 6.573.282-.423.282-2.211.282-.986.564 1.215.282.08.282-1.473.282-2.908.281-1.08.282 1.494.282.31.282-.77.282 2.332.282 4.092.282 1.437.282.198.564 5.148.564 4.82.282-1.07 1.128-22.458.564-13.3.282-3.82.282-1.509.282.602.282.256.282-1.694.282-.647.845 7.925.282 1.583.846 15.202.564 3.322.564 5.097.282.653.846-6.13.282-.188.564-3.165.564 2.658.282-.097.282.056.846 3.228.563 5.741.282.531.282-.77.282-.261.282-1.016 1.692-22.412.282-.703.846.859.564-2.4.282.847.282 2.5.282 1.335.282.39.282 1.797.564 5.369.563 4.4.282 2.378.282.65.282-.453.564.597.564-2.009.282 1.191.282.7.282-.862.282.266.282 1.899.564 1.724.564 4.307.282.738.282.347.282.157.282-1.068.564-7.083.846-12.557h0" clip-path="url(#pc7f096e28d)" style="fill:none;stroke:#1f77b4;stroke-width:1.5;stroke-linecap:square"/><path id="patch_3" d="M71.308 266.112V0" style="fill:none;stroke:gray;stroke-width:.8;stroke-linejoin:miter;stroke-linecap:square"/><path id="patch_4" d="M685.107 266.112V0" style="fill:none;stroke:#000;stroke-width:.8;stroke-linejoin:miter;stroke-linecap:square"/><path id="patch_5" d="M71.308 266.112h613.8" style="fill:none;stroke:gray;stroke-width:.8;stroke-linejoin:miter;stroke-linecap:square"/><path id="patch_6" d="M71.308 0h613.8" style="fill:none;stroke:#000;stroke-width:.8;stroke-linejoin:miter;stroke-linecap:square"/></g></g><defs><clipPath id="pc7f096e28d"><path d="M71.308 0h613.8v266.112h-613.8z"/></clipPath></defs></svg>