<svg xmlns="http://www.w3.org/2000/svg" xmlns:xlink="http://www.w3.org/1999/xlink" width="899.903" height="377.053" viewBox="0 0 674.928 282.79"><defs><style>*{stroke-linejoin:round;stroke-linecap:butt}</style></defs><g id="figure_1"><path id="patch_1" d="M0 282.79h674.928V0H0v282.79z" style="fill:none"/><g id="axes_1"><path id="patch_2" d="M61.127 266.112h613.8V0h-613.8v266.112z" style="fill:none"/><g id="matplotlib.axis_1"><g id="xtick_1"><g id="line2d_1"><defs><path id="m4a7bb20ea0" d="M0 0v3.5" style="stroke:gray;stroke-width:.8"/></defs><use xlink:href="#m4a7bb20ea0" x="89.028" y="266.112" style="fill:gray;stroke:gray;stroke-width:.8"/></g><g id="text_1" style="fill:gray" transform="matrix(.1 0 0 -.1 85.846 280.71)"><defs><path id="DejaVuSans-30" d="M2034 4250q-487 0-733-480-245-479-245-1442 0-959 245-1439 246-480 733-480 491 0 736 480 246 480 246 1439 0 963-246 1442-245 480-736 480zm0 500q785 0 1199-621 414-620 414-1801 0-1178-414-1799Q2819-91 2034-91q-784 0-1198 620-414 621-414 1799 0 1181 414 1801 414 621 1198 621z" transform="scale(.01563)"/></defs><use xlink:href="#DejaVuSans-30"/></g></g><g id="xtick_2"><use xlink:href="#m4a7bb20ea0" id="line2d_2" x="158.778" y="266.112" style="fill:gray;stroke:gray;stroke-width:.8"/><g id="text_2" style="fill:gray" transform="matrix(.1 0 0 -.1 149.234 280.71)"><defs><path id="DejaVuSans-35" d="M691 4666h2478v-532H1269V2991q137 47 274 70 138 23 276 23 781 0 1237-428 457-428 457-1159 0-753-469-1171Q2575-91 1722-91q-294 0-599 50Q819 9 494 109v635q281-153 581-228t634-75q541 0 856 284 316 284 316 772 0 487-316 771-315 285-856 285-253 0-505-56-251-56-513-175v2344z" transform="scale(.01563)"/></defs><use xlink:href="#DejaVuSans-35"/><use xlink:href="#DejaVuSans-30" x="63.623"/><use xlink:href="#DejaVuSans-30" x="127.246"/></g></g><g id="xtick_3"><use xlink:href="#m4a7bb20ea0" id="line2d_3" x="228.528" y="266.112" style="fill:gray;stroke:gray;stroke-width:.8"/><g id="text_3" style="fill:gray" transform="matrix(.1 0 0 -.1 215.803 280.71)"><defs><path id="DejaVuSans-31" d="M794 531h1031v3560L703 3866v575l1116 225h631V531h1031V0H794v531z" transform="scale(.01563)"/></defs><use xlink:href="#DejaVuSans-31"/><use xlink:href="#DejaVuSans-30" x="63.623"/><use xlink:href="#DejaVuSans-30" x="127.246"/><use xlink:href="#DejaVuSans-30" x="190.869"/></g></g><g id="xtick_4"><use xlink:href="#m4a7bb20ea0" id="line2d_4" x="298.277" y="266.112" style="fill:gray;stroke:gray;stroke-width:.8"/><g id="text_4" style="fill:gray" transform="matrix(.1 0 0 -.1 285.553 280.71)"><use xlink:href="#DejaVuSans-31"/><use xlink:href="#DejaVuSans-35" x="63.623"/><use xlink:href="#DejaVuSans-30" x="127.246"/><use xlink:href="#DejaVuSans-30" x="190.869"/></g></g><g id="xtick_5"><use xlink:href="#m4a7bb20ea0" id="line2d_5" x="368.027" y="266.112" style="fill:gray;stroke:gray;stroke-width:.8"/><g id="text_5" style="fill:gray" transform="matrix(.1 0 0 -.1 355.303 280.71)"><defs><path id="DejaVuSans-32" d="M1228 531h2203V0H469v531q359 372 979 998 621 627 780 809 303 340 423 576 121 236 121 464 0 372-261 606-261 235-680 235-297 0-627-103-329-103-704-313v638q381 153 712 231 332 78 607 78 725 0 1156-363 431-362 431-968 0-288-108-546-107-257-392-607-78-91-497-524-418-433-1181-1211z" transform="scale(.01563)"/></defs><use xlink:href="#DejaVuSans-32"/><use xlink:href="#DejaVuSans-30" x="63.623"/><use xlink:href="#DejaVuSans-30" x="127.246"/><use xlink:href="#DejaVuSans-30" x="190.869"/></g></g><g id="xtick_6"><use xlink:href="#m4a7bb20ea0" id="line2d_6" x="437.777" y="266.112" style="fill:gray;stroke:gray;stroke-width:.8"/><g id="text_6" style="fill:gray" transform="matrix(.1 0 0 -.1 425.053 280.71)"><use xlink:href="#DejaVuSans-32"/><use xlink:href="#DejaVuSans-35" x="63.623"/><use xlink:href="#DejaVuSans-30" x="127.246"/><use xlink:href="#DejaVuSans-30" x="190.869"/></g></g><g id="xtick_7"><use xlink:href="#m4a7bb20ea0" id="line2d_7" x="507.527" y="266.112" style="fill:gray;stroke:gray;stroke-width:.8"/><g id="text_7" style="fill:gray" transform="matrix(.1 0 0 -.1 494.803 280.71)"><defs><path id="DejaVuSans-33" d="M2597 2516q453-97 707-404 255-306 255-756 0-690-475-1069Q2609-91 1734-91q-293 0-604 58T488 141v609q262-153 574-231 313-78 654-78 593 0 904 234t311 681q0 413-289 645-289 233-804 233h-544v519h569q465 0 712 186t247 536q0 359-255 551-254 193-729 193-260 0-557-57-297-56-653-174v562q360 100 674 150t592 50q719 0 1137-327 419-326 419-882 0-388-222-655t-631-370z" transform="scale(.01563)"/></defs><use xlink:href="#DejaVuSans-33"/><use xlink:href="#DejaVuSans-30" x="63.623"/><use xlink:href="#DejaVuSans-30" x="127.246"/><use xlink:href="#DejaVuSans-30" x="190.869"/></g></g><g id="xtick_8"><use xlink:href="#m4a7bb20ea0" id="line2d_8" x="577.278" y="266.112" style="fill:gray;stroke:gray;stroke-width:.8"/><g id="text_8" style="fill:gray" transform="matrix(.1 0 0 -.1 564.553 280.71)"><use xlink:href="#DejaVuSans-33"/><use xlink:href="#DejaVuSans-35" x="63.623"/><use xlink:href="#DejaVuSans-30" x="127.246"/><use xlink:href="#DejaVuSans-30" x="190.869"/></g></g><g id="xtick_9"><use xlink:href="#m4a7bb20ea0" id="line2d_9" x="647.028" y="266.112" style="fill:gray;stroke:gray;stroke-width:.8"/><g id="text_9" style="fill:gray" transform="matrix(.1 0 0 -.1 634.303 280.71)"><defs><path id="DejaVuSans-34" d="M2419 4116 825 1625h1594v2491zm-166 550h794V1625h666v-525h-666V0h-628v1100H313v609l1940 2957z" transform="scale(.01563)"/></defs><use xlink:href="#DejaVuSans-34"/><use xlink:href="#DejaVuSans-30" x="63.623"/><use xlink:href="#DejaVuSans-30" x="127.246"/><use xlink:href="#DejaVuSans-30" x="190.869"/></g></g></g><g id="matplotlib.axis_2"><g id="ytick_1"><g id="line2d_10"><defs><path id="m027d22d558" d="M0 0h-3.5" style="stroke:gray;stroke-width:.8"/></defs><use xlink:href="#m027d22d558" x="61.127" y="224.872" style="fill:gray;stroke:gray;stroke-width:.8"/></g><g id="text_10" style="fill:gray" transform="matrix(.16 0 0 -.16 0 230.951)"><defs><path id="DejaVuSans-2212" d="M678 2272h4006v-531H678v531z" transform="scale(.01563)"/></defs><use xlink:href="#DejaVuSans-2212"/><use xlink:href="#DejaVuSans-35" x="83.789"/><use xlink:href="#DejaVuSans-30" x="147.412"/><use xlink:href="#DejaVuSans-30" x="211.035"/><use xlink:href="#DejaVuSans-30" x="274.658"/></g></g><g id="ytick_2"><use xlink:href="#m027d22d558" id="line2d_11" x="61.127" y="164.423" style="fill:gray;stroke:gray;stroke-width:.8"/><use xlink:href="#DejaVuSans-30" id="text_11" style="fill:gray" transform="matrix(.16 0 0 -.16 43.947 170.502)"/></g><g id="ytick_3"><use xlink:href="#m027d22d558" id="line2d_12" x="61.127" y="103.973" style="fill:gray;stroke:gray;stroke-width:.8"/><g id="text_12" style="fill:gray" transform="matrix(.16 0 0 -.16 13.408 110.052)"><use xlink:href="#DejaVuSans-35"/><use xlink:href="#DejaVuSans-30" x="63.623"/><use xlink:href="#DejaVuSans-30" x="127.246"/><use xlink:href="#DejaVuSans-30" x="190.869"/></g></g><g id="ytick_4"><use xlink:href="#m027d22d558" id="line2d_13" x="61.127" y="43.524" style="fill:gray;stroke:gray;stroke-width:.8"/><g id="text_13" style="fill:gray" transform="matrix(.16 0 0 -.16 3.228 49.602)"><use xlink:href="#DejaVuSans-31"/><use xlink:href="#DejaVuSans-30" x="63.623"/><use xlink:href="#DejaVuSans-30" x="127.246"/><use xlink:href="#DejaVuSans-30" x="190.869"/><use xlink:href="#DejaVuSans-30" x="254.492"/></g></g></g><path id="line2d_14" d="m89.028 164.408.845.028 1.41-.025 1.41.023 1.41-.022 1.41.022 1.41-.024 1.41.03.845-.046.282.067.282-.094.282.161.282-.512.282-2.031.282.703.282-.847.282-.364.282 1.675.282-.016.282-.445.282 6.43.282 11.58.282 6.443.281-.71.282-1.563.282-3.146.564-15.288.282 2.01.282 3.025.282-2.05.282 1.02.282 5.427.282-2.285.282-9.475.282-2.77.282 2.987.282-2.656.282-4.835.282 2.492.282 4.917.282.648.282 1.27.282 2.959.282-2.06.282-4.245.282.049.282-.785.282-4.493.281-1.328.282 1.148.282-1.168.282-.223.282.835.282-.704.282 2.476.282 3.664.282-1.817.282 2.424.564 21.306.282.11.282 2.659.282.273.564-16.665.282-.917.282-2.562.564-9.745.564-6.527.282-.601.282.714.281 1.393.282.706.282-1.03.282-.483.282 1.68.564 5.133.282.512.282-1.303.564-.632.564-8.333.282-1.234.282.222.564-.815.282-.784.282.244.564 3.69.282.866.564 7.947.563 2.765.282-1.538.282-3.545.282 4.734.282 9.905.282-.797.282-8.03.282-1.739.282-.287.282-5.383.282-2.995.282 1.722.282.5.282-.29.564 2.95.282-.149.282-.572.282.916.282 4.513.282 6.62.282 3.135.564-3.274.282.2.282-4.87.281-7.834.282-1.202.282 1.024.282-3.269.282 4.036.282 13.772.282 5.815.282-2.33.282 2.798.282-.474.564-18.338.282 2.74.282.304.282-1.12.564 9.928.282-3.72.564-11.984.282-4.02.564-12.144.282-.291.282 2.23.281.69.282 1.201.564 6.927.282-1.703.282.875.564 21.512.282 3.423.282-.736.282.803.282-1.004.846-15.06.282.32.282 3.972.846 15.746.282-.345.564-6.728.282 4.803.282 6.897.281-1.112.282-4.737.282-1.642.282-7.235.564-24.323.282-1.467.564-5.676.282 2.581.846 10.617.282 6.399.846 25.081.282-.49.282.011.282 1.482.846 1.937.282-.967.564-4.225.563-9.302.282-1.928.564-6.397.282.465.282-1.679.282-4.415.282 2.227.282 5.416.282-3.73.282-9.437.282-4.195.282-1.054.282-3.486.282.625.564 23.21.846 11.36.282-4.104.282-6.199.564 8.808.845-5.265 1.128-22.31.282-1.814.282-.946.282-1.587.282-.008.282 1.882.282 5.808.564 16.561.564 3.373.282-.31.282.851.564 15.85.282 1.738.282-1.321.282-2.433.282-4.917.563-14.848.282.43.282 2.055.564-15.541.282 5.233.282 2.89.282-3.267.282 7.631.282 12.47.282 1.198.282-.946.282 3.925.282-2.468.564-15.478.282-.497.282 1.286.282-.361.282-2.09.282 2.248.282 7.22.282 3.438.282-1.48.282.798.281 2.91.282.868.282.505.846 6.118.282.086.282-3.451.564-13.058.564-13.393.282-.475.282 1.39.282-.542.282.005.564 3.376.564 5.867.282-3.506.282.463.282 10.488.282 4.338.282-7.457.281-.933.282 7.842.282.489.282-5.55.282-.853.282 1.83.564 1.943.564 1.916.282.14.282-.9.282-1.456.564-5.836.564 7.879.282-2.377.282.17.282 5.944.282-1.023.564-14.889.282-3.26.282-1.26.282 2.436.281 1.15.282-2.065.282.19.846 7.644.282-.34.282-1.955.282 5.57.282 9.873.282.341.282-4.932.564 6.01.564-13.061.282-1.89.282 1.071.564 7.566.282-.296.282-.509.282.713.282-.877.282-.195.281.846.564-1.83.282-2.589.564-11.154.282-.012.282-1.637.846-8.89.282.327.282 4.01.564 3.366.282 4.099.282 1.768.564-10.633.282 2.522.564 17.413.564 7.667.282-.764.281-1.523.282 2.204.282-2.929.282-9.05.282-1.543.282 4.588.282 1.602.564 5.788.282-1.533.282-.825.282.616.282-.238.564 16.12.282-4.433.282-8.86.282-2.057.282-7.514.282-14.69.282-6.797.846 5.395.282-2.535.563-9.964.282-3.283.282-1.359.564 3.939.282-1.126.282 1.72.846 23.347.282 1.712.564 11.106.282.109.282 3.172.282 13.06.282 6.76.282-3.152.564 2.446.564-17.149.282.541.282-.997.563-9.136.846-22.333 1.128-9.505.564 2.924.282-.094.564 5.202.282.964.564 9.121.282 4.181.846 27.563.282.19.282 1.825.282-6.08.282-10.524.282-.4.282 3.566.281-1.246.282.811.282 1.993.282-1.408.564 1.581.282-1.775.282 6.054.282 10.467.282-1.433.846-26.555.282-16.495.282-7.58.564 2.866.564-2.422.282.742.846 11.65.845 7.063.282.766.282-.343.282 1.828.564 14.266.564-10.442.282 1.592.282-.218.282-5.515.282-1.583.282 1.604.282-.286.282 1.694.282 3.373.282.824.282 2.546.282 5.758.282 1.954.282-4.318 1.41-36.906.563 14.374.282-.993.282.936.282 6.491.282-1.165.282-5.505.282 1.201.282 2.592.282 1.531.282 3.52.282-1.196.282-5.02.282.227.282.95.282-.779.282 6.272.282 9.863.282 4.167.282 1.607.282 3.18.846 14.334.563-4.996.282.672.564 4.96.282-3.127.564-9.109.282-12.317.564-33.613.282-3.838.282-1.548.282 1.041.282.392.282-1.511.564 8.941.282-.698.282 6.552.282 14.916.282 5.963.282-1.384.846 8.756.281 1.396.282-1.046.282.175.282 2.1.282-5.608.282-10.237.282-2.882.282.533.282-2.022.282 2.369.846 27.277.282 3.266.282-.833.282-3.858.564-14.47 1.128-31.101.282-1.587.282-.22.282 1.438.845 9.49.564 11.526.282 2.077.282-.499.564 4.038.282-.271.282 1.69.564 7.369.846 8.334.282 3.298.282-.839.564-16.424.282 1.242.564-6.01.564 36.145.282.97.845-24.757.564-31.529.564-13.704.282-3.794.564-3.463.282 1.715.564 7.06.282 9.293.282 14.357.282 6.705.282-1.614.282 1.47.282 3.957.282-1.837.282-5.525.282-2.693.282.692.282 2.66.845 12.597.282 1.981.282 2.992.282 5.225.282 3.04.564-2.833.282 2.119.282 3.165.282 1.81.282-2.752.846-27.271.564-19.902.282-3.904.282-.593.282.796.282-1.654.282-7.606.282-4.239.282 5.56.282 2.953.282-3.358.281 5.296.564 23.673.564 3.217.564 6.587.282 3.371.282 1.047.282 1.59.282 2.902.282-1.745.282-5.653.282-.177.282 4.185.282-1.222.282-1.986.564 19.813.282 2.02.282-.7.282 2.769.282-3.03.845-33.323.846-17.004.282-.74.282 3.188.282.96.282.074.564 8.143.282.45.282.738.564 5.93.846 5.244.282-1.453.282.328.282 4.423.282 2.217.282-.144.564 7.248.282-.981.281 3.726.282 7.417.564 2.245.564 14.994.282-.456.282-2.726.282-4.886.564-22.575.564-21.154.282-3.564.282.204.282-2.56.564-17.405.564 12.095.282-.209.282 9.115.282 17.245.282 7.203.564-4.224 1.127-17.381.282-.527.282.668.282-.674.282 3.873.282 6.54.282.269.282.58.282 4.385.282-4.224.282-6.28.282 8.863.282 12.424.282 3.843.564 18.598.282-3.81.564-17.464.282-10.135.564-24.311.281-5.31.282.125.282 3.676.282-3.517.282-5.81.564 11.876.282-1.15.282 5.542.282 14.166.282 5.32.282-2.623.564 4.086.564-15.634.282 3.695.282 5.72.282.497.282 5.26.564 21.399.564-2.023.282 4.128.563 11.121.282-.415.564-14.326.564-25.03.282-12.47.564-11.913.282-5.119.282-2.622.282 1.724.282 2.644.282.627.282.92.282 4.655.282 6.787.282 3.632.282 1.168.564 7.543.564-8.51.564 5.76.281.174.282 8.368.282 13.325.282 7.284.282 1.527.282-.93.282-2.295.282-.607.282.26.282-.791.282 1.722.282 4.011.282.916.282-3.246.282-7.238.846-32.838.564-27.904.846-9.88.282 9.46.282 13.474.563 7.017.282 6.884.564 5.903.282 5.437.564 2.166.282 3.904.282-4.984.282-7.963.282 4.095.282 5.817.282-.057.282 7.718.282 13.51.282 5.807.564 3.934.282-2.514.282.535.282 5.884.282.376.564-6.36.282-13.214.281-23.075.282-13.923.282-4.73.564-14.779.564 16.983.282-1.554.282 1.569.282 7.576.282-.335.282-6.003.282.565.282 3.51.282-.023.282-.296.282 1.181.564 4.963.282-1.431.282.093.846 30.95.282 2.063.563 6.212.282 2.59.282 1.507.282-.8.282 1.889.282 4.577.282.854.282-3.385.282-6.68 1.128-44.973.282-5.67.282.587.282-.642.282-1.74 1.692 15.872.563 8.476.846 7.051.282-.477.282 1.712.564 6.388.282 3.354.282 1.486.282-5.204.282-1.242.282 7.118.282 1.015.282-.339.564 32.087.564-1.74.282 2.02.282-18.9.282-29.739.282-14.356.282-7.414.282-11.735.282-6.84.563-6.447.282 3.517.282 7.977.282 3.524.282 7.256.282 13.834.282 4.818.282-6.046.282-2.261.282 2.835.282.522.282.225.282 1.096.564-4.033.564 4.863.282.889.564 12.989.282 1.94.282.266.282 3.284.282 7.974.281 12.66.282 7.197.282-7.255.282-10.502.282-2.512.282-4.91.564-24.01.282-1.13.282-7.135.282-14.75.282-7.847.282-3.291.282-8.961.282-3.624.564 16.067.282 1.673 1.128 38.02.282 8.222.564 1.47.281 3.797.282-3.135.282-7.587.282-3.056.282.404.282 3.52.564 11.659.564 8.608.282-.086.282-3.443.282 5.097.282 11.504.282 3.536.564-16.498.282-11.26.564-38.795.282-6.502.282.525.282-3.346.282 2.595.282 12.413.282 6.448.281 1.277.564 13.858.282-5.607.282-2.002.282 2.408.564-14.057.564 3.938.282.07.282 13.34.282 20.09.282 8.362.282 1.081.282 3.777.282-.924.564-14.132.282-.483.282.405.282 3.048.282 4.546.282.61.563-3.395.282-7.94.564-21.329.846-23.051.282-1.614.564-10.81.282 4.397.846 20.875.564 21.684.564 8.63.282.131.282.298.282 2.329.282.26.282 1.191.282 5.474.282 1.223.281-5.571.282-2.105.282 2.118.282.25.282 3.69.564 17.258.282-1.295.282-.363.282 2.788.282-4.945.846-51.259 1.41-48.562.282-4.842.282 6.337.564 18.3.282 7.205.564 18.592.281 1.984 1.128 22.943.282 4.305.564-10.313 1.41 23.661.282.759.282 3.255.282.99.282-.2.564 20.862.282-2.001.564-12.34.282-14.492.564-35.616.563-19.847.282-9.366.282-.468.564 7.355.282 1.476.564 6.037.282 3.612 1.128 22.142.564 17.604.282.676.282-.739.282 2.66.564 10.208.282 1.235.282 3.714.282 8.954.282 2.762.282-6.93.281-2.467.564 11.255.282 2.438.282 1 .282-5.27.282-13.292.846-60.235.282-6.354.564-20.692.282-.428.282 1.894.282-6.506.282-3.743.564 11.94.282 8.471.564 26.622.564 4.374.563 8.263.564 13.528.564 3.347.564 10.101.282-.441.282 3.155.282 8.262.282 3.512.282-3.477.282-.76.282.94.282-8.45.846-35.735.282-21.839.282-12.175.282-2.953.282-6.548.282-2.248.564 17.233.281 1.855.282 3.044.564 11.227.564 17.824.564 4.225.564 9.288.846 4.023.282.707.282 1.934.564 8.913.282 2.2.282 1.232.282-2.27.282-5.178.282-.172.282 5.046.282 1.88.282.378.282 4.586.281 1.242.282-10.233.564-27.982.282-9.769.282-5.875.564-6.669.282-.387.846 22.41 1.41 24.435.282-1.401.282-3.095.282-.22.282-5.969.282-12.488.282-6.421.564 6.222.281 1.383.282 6.47.282 10.087.282 4.777.282 1.384.282 4.582.282 1.51.282-6.214.282-3.633.282 2.881.282-1.141.282-7.225.282-4.162.282-1.468.282-6.766.564-16.728.564-4.891.282.466.282 5.236.282 7.516.282 1.833.564-12.99.281 3.922.282 5.472.282 2.841.282 4.368.282 2.094.282-.713.282 2.639.282.31.282-2.497.282 9.025.282 14.607.564 6.664.282 8.266.282.448.282-4.96.282 1.19.564 4.639.282 1.596.282-7.265.282-12.865.564-16.177.282-14.722.282-5.29.281 3.987.282-2.606.282-5.413.282 1.405.282-2.77.282-12.024.282-3.63.564 16.963.282 2.763.846 26.57.282 2.43.282.78.282-3.59.282-.595.282 3.743.282-.027.282-.794.282 2.566.282-1.768.282-3.944.564 9.499.281-.682.282 5.083.282 13.375.282 7.037.282.181.282 1.719.282-4.985.564-36.212 1.128-25.61.564 8.592.282-3.9.282-1.57.282 2.5.564-6.344.282 6.975.282 10.622.564 10.104.564 23.78.281 1.561.846-11.345.564-19.03.282-4.231.282-1.973.282-.658.282 2.019.282.295.282 1.01.564 15.717.564-19.292.282-.024.282-3.831.282-11.308.282-2.047.282 5.31.282-4.712.282-9.613.282.454.282 2.024.281-6.945.282-2.508.564 14.325.282 2.674.564 28.788.282 3.598.282 1.46.282 3.92.564-2.506.282 3.665.564 3.574.282 4.066.282-2.402.282-5.347.564 8.47.282-4.068.282 6.57.564 37.062.282-.234.281-1.071.282-5.193.846-48.85.846-27.105.282-14.076.282-7.237.564 1.955.282 1.966 1.128 15.98.282 3.224.282 5.6.282 8.006.282 3.247.282-.763.282.111.282 2.988.564 19.589.563 6.399.282 7.332.282-.895.282-9.302.282-3.16.282 1.907.282-.674.282.257.282 2.277.282-.653.282-6.315.564-25.139.282-2.708.282 1.473.282-4.426.282-6.748.564-6.896.282.02.282 3.272.282 1.216.282-.238.282 3.963.281 6.377.282 3.07.282.806.282 3.892.564 13.12.282-.097.282-.987.564 3.736.282 3.592.282 6.355.282 3.125.282.55.564 8.188.282-2.526.282.878.282 5.57.282 1.88.282-.884.282-4.74 1.127-53.845.282-7.955.564-8.487.282-3.833.564 2.895.282 3.952.564 20.718.282-.044.282 3.175.282 4.922.564-11.408.564 8.217.282-3.25.282 5.742.564 37.345.282 2 .282 3.187.282 4.546.564-12.582.281 1.656.282 3.391.282 1.948.282.412.282-8.237.564-21.156.564-22.655.282-1.572.282 4.603.282-3.27.282-5.048.282.776.282 1.712.282 3.26.564 9.941.282 3.114.282-.445.564-28.54.282 3.11.282 8.191.282-.053.281 3.769.282 10.462.282 5.064.282.554.282 2.882.282 6.086.564 18.63.282 1.842.282.514.564 6.109.282 1.337.282 2.585.282-.968.564-11.787.564-18.466.282-8.41.564-9.383.564-18.337.282-3.693.563 4.627.282 4.037.564 16.533.564 2.899.282 5.07.282-.202.282-6.89.282-1.074.282 5.47.282 1.692.282 2.721.564 20.94.282.101.282 1.687.282 4.194.282-3.23.282-6.444.282-.687.282 1.692.282.481.282 1.5.282.814.281-4.204.846-31.09.282 2.012.282 4.518.564-3.73.282 2.218.282-2.798.282-10.589.282-4.976.564 8.8.564-3.08.282 1.099.564 3.61.282 4.377.564 19.275.282 3.955.282 1.363.282 4.045.281.597.282-5.361.282-1.66.282 4.133.282 1.141.282-1.186.282 5.814.282 10.063.282 2.512.282-3.768.282-1.456.282-5.302.564-31.01.846-14.839.282 2.415.282 6.393.564 5.435.564 1.776.564 8.53.282-.214.563 5.386.564-19.597.282.611.282 3.388.282.369.282-1.654.282-4.586.282-1.244.282 4.943.282 1.689.282 2.499.564 30.846.282 1.097.282-1.251.282 4.304.282-3.597.282-12.64.564-11.5.282-13.76.282-6.528.563 26.316.564-14.426.282 4.008.282-4.54.282-9.894.282.096.282 4.698.282 2.055.846 8.594.282 1.89.282.863.282-.06.282.268.282-.268.282.957.564 9.13.282 7.045.564 17.705.282-1.444.282 1.08.281 5.552.282-2.648.282-6.717.564 11.87.564-11.17.282 4.968.282-2.572.282-6.48.282 4.367.282-3.855.846-76.317.564-28.482.564-7.24.282-.342 1.128 26.16.282 3.497.282 9.706.563 29.353.564 19.536.282 11.767.282 5.665.282 2.58.564 16.197.282 2.432.282-.87.282-.475.282.361.282 6.867.282 11.798.282 2.303.564-19.236.564-8.948.282-8.127 1.128-52.677.563-19.246.282-4.669.564.06.282-2.147.282-.29.282 5.493 1.692 47.885.846 14.953.282.702.282-.663.282.96.282 4.655.282.096.282-6.17.282.36.282 4.202.563-10.076.282 4.317.282-.227.282-7.559.282-1.51.282-.535.564-20.974.282-.23.282.521.282-2.842.282 3.424.282 9.465.282 4.685.282.363.282 2.999.282 1.078.564-12.755.282-.27.282.433.282-.895.282 5.645.282 11.578.282 4.066.281-3.502.282 4.758.282 10.536.282-1.252.282-7.98.282-.247.282 1.281.282-1.028.564 15.24.282-1.949.846-20.6.846-13.12.282-4.392.564-4.403.282 1.008.846 15.013.282-.01.281-9.861.282-5.666.282 5.159.282.192.282-3.943.282 8.248.282 12.663.282 3.18.282.981.282 4.105.564 4.881.282 3.542.282-.088.846-10.475.282.68.282 2.142.282.456.282-2.125.282-8.22.564-25.764.564-8.451.281-1.61.564 13.796.282-.242.282-1.253 1.692 17.71.282 4.273.282 1.892.282-.845.282.83.282 3.12.282.937.564-11.124.282 1.23.282 8.212.282 4.754.282-.112.564 1.81.281-1.583.282-2.255.282 2.742.564 18.195.282-3.619 1.128-32.227.564-10.2.282.412.282 4.51.282-5.777.282-9.077.282 1.514.282 4.136.282 1.529.564 7.865.282 2.657.282 4.588.282 1.216.282 2.152.563 22.075.282.701.282 1.407.564 7.998.282 8.81.564 23.952.282 3.476.282 1.127.564 8.211.282 4.174.282 6.928.282-1.162.282-30.66.564-94.278.564-71.171.282-23.966.282-13.866.282-6.817.282 5.523.563 27.41 1.128 85.895.564 25.471 1.128 34.986.282 3.11.564-9.575.282-.112.282.572.282-.9.282 2.205.564 11.724.282.361.564-8.143.564-3.506.281-1.952.282-5.313.564-17.788.282 2.21.282-.452.282-5.91.282-.789.282 1.745.564-15.506.282.914.282 2.893.282-.232.282 7.668.282 12.993.282 3.723.282-2.292.282 1.24.282.627.282-.293.282 1.187.282-.509.282.034.282 3.335.282-3.724h0" clip-path="url(#p13ee763cab)" style="fill:none;stroke:#1f77b4;stroke-width:1.5;stroke-linecap:square"/><path id="patch_3" d="M61.127 266.112V0" style="fill:none;stroke:gray;stroke-width:.8;stroke-linejoin:miter;stroke-linecap:square"/><path id="patch_4" d="M674.928 266.112V0" style="fill:none;stroke:#000;stroke-width:.8;stroke-linejoin:miter;stroke-linecap:square"/><path id="patch_5" d="M61.127 266.112h613.8" style="fill:none;stroke:gray;stroke-width:.8;stroke-linejoin:miter;stroke-linecap:square"/><path id="patch_6" d="M61.127 0h613.8" style="fill:none;stroke:#000;stroke-width:.8;stroke-linejoin:miter;stroke-linecap:square"/></g></g><defs><clipPath id="p13ee763cab"><path d="M61.127 0h613.8v266.112h-613.8z"/></clipPath></defs></svg>