<svg xmlns="http://www.w3.org/2000/svg" xmlns:xlink="http://www.w3.org/1999/xlink" width="913.477" height="377.053" viewBox="0 0 685.107 282.79"><defs><style>*{stroke-linejoin:round;stroke-linecap:butt}</style></defs><g id="figure_1"><path id="patch_1" d="M0 282.79h685.107V0H0v282.79z" style="fill:none"/><g id="axes_1"><path id="patch_2" d="M71.308 266.112h613.8V0h-613.8v266.112z" style="fill:none"/><g id="matplotlib.axis_1"><g id="xtick_1"><g id="line2d_1"><defs><path id="m149aa8b7d5" d="M0 0v3.5" style="stroke:gray;stroke-width:.8"/></defs><use xlink:href="#m149aa8b7d5" x="99.207" y="266.112" style="fill:gray;stroke:gray;stroke-width:.8"/></g><g id="text_1" style="fill:gray" transform="matrix(.1 0 0 -.1 96.026 280.71)"><defs><path id="DejaVuSans-30" d="M2034 4250q-487 0-733-480-245-479-245-1442 0-959 245-1439 246-480 733-480 491 0 736 480 246 480 246 1439 0 963-246 1442-245 480-736 480zm0 500q785 0 1199-621 414-620 414-1801 0-1178-414-1799Q2819-91 2034-91q-784 0-1198 620-414 621-414 1799 0 1181 414 1801 414 621 1198 621z" transform="scale(.01563)"/></defs><use xlink:href="#DejaVuSans-30"/></g></g><g id="xtick_2"><use xlink:href="#m149aa8b7d5" id="line2d_2" x="168.958" y="266.112" style="fill:gray;stroke:gray;stroke-width:.8"/><g id="text_2" style="fill:gray" transform="matrix(.1 0 0 -.1 159.414 280.71)"><defs><path id="DejaVuSans-35" d="M691 4666h2478v-532H1269V2991q137 47 274 70 138 23 276 23 781 0 1237-428 457-428 457-1159 0-753-469-1171Q2575-91 1722-91q-294 0-599 50Q819 9 494 109v635q281-153 581-228t634-75q541 0 856 284 316 284 316 772 0 487-316 771-315 285-856 285-253 0-505-56-251-56-513-175v2344z" transform="scale(.01563)"/></defs><use xlink:href="#DejaVuSans-35"/><use xlink:href="#DejaVuSans-30" x="63.623"/><use xlink:href="#DejaVuSans-30" x="127.246"/></g></g><g id="xtick_3"><use xlink:href="#m149aa8b7d5" id="line2d_3" x="238.708" y="266.112" style="fill:gray;stroke:gray;stroke-width:.8"/><g id="text_3" style="fill:gray" transform="matrix(.1 0 0 -.1 225.982 280.71)"><defs><path id="DejaVuSans-31" d="M794 531h1031v3560L703 3866v575l1116 225h631V531h1031V0H794v531z" transform="scale(.01563)"/></defs><use xlink:href="#DejaVuSans-31"/><use xlink:href="#DejaVuSans-30" x="63.623"/><use xlink:href="#DejaVuSans-30" x="127.246"/><use xlink:href="#DejaVuSans-30" x="190.869"/></g></g><g id="xtick_4"><use xlink:href="#m149aa8b7d5" id="line2d_4" x="308.457" y="266.112" style="fill:gray;stroke:gray;stroke-width:.8"/><g id="text_4" style="fill:gray" transform="matrix(.1 0 0 -.1 295.733 280.71)"><use xlink:href="#DejaVuSans-31"/><use xlink:href="#DejaVuSans-35" x="63.623"/><use xlink:href="#DejaVuSans-30" x="127.246"/><use xlink:href="#DejaVuSans-30" x="190.869"/></g></g><g id="xtick_5"><use xlink:href="#m149aa8b7d5" id="line2d_5" x="378.207" y="266.112" style="fill:gray;stroke:gray;stroke-width:.8"/><g id="text_5" style="fill:gray" transform="matrix(.1 0 0 -.1 365.483 280.71)"><defs><path id="DejaVuSans-32" d="M1228 531h2203V0H469v531q359 372 979 998 621 627 780 809 303 340 423 576 121 236 121 464 0 372-261 606-261 235-680 235-297 0-627-103-329-103-704-313v638q381 153 712 231 332 78 607 78 725 0 1156-363 431-362 431-968 0-288-108-546-107-257-392-607-78-91-497-524-418-433-1181-1211z" transform="scale(.01563)"/></defs><use xlink:href="#DejaVuSans-32"/><use xlink:href="#DejaVuSans-30" x="63.623"/><use xlink:href="#DejaVuSans-30" x="127.246"/><use xlink:href="#DejaVuSans-30" x="190.869"/></g></g><g id="xtick_6"><use xlink:href="#m149aa8b7d5" id="line2d_6" x="447.957" y="266.112" style="fill:gray;stroke:gray;stroke-width:.8"/><g id="text_6" style="fill:gray" transform="matrix(.1 0 0 -.1 435.233 280.71)"><use xlink:href="#DejaVuSans-32"/><use xlink:href="#DejaVuSans-35" x="63.623"/><use xlink:href="#DejaVuSans-30" x="127.246"/><use xlink:href="#DejaVuSans-30" x="190.869"/></g></g><g id="xtick_7"><use xlink:href="#m149aa8b7d5" id="line2d_7" x="517.707" y="266.112" style="fill:gray;stroke:gray;stroke-width:.8"/><g id="text_7" style="fill:gray" transform="matrix(.1 0 0 -.1 504.983 280.71)"><defs><path id="DejaVuSans-33" d="M2597 2516q453-97 707-404 255-306 255-756 0-690-475-1069Q2609-91 1734-91q-293 0-604 58T488 141v609q262-153 574-231 313-78 654-78 593 0 904 234t311 681q0 413-289 645-289 233-804 233h-544v519h569q465 0 712 186t247 536q0 359-255 551-254 193-729 193-260 0-557-57-297-56-653-174v562q360 100 674 150t592 50q719 0 1137-327 419-326 419-882 0-388-222-655t-631-370z" transform="scale(.01563)"/></defs><use xlink:href="#DejaVuSans-33"/><use xlink:href="#DejaVuSans-30" x="63.623"/><use xlink:href="#DejaVuSans-30" x="127.246"/><use xlink:href="#DejaVuSans-30" x="190.869"/></g></g><g id="xtick_8"><use xlink:href="#m149aa8b7d5" id="line2d_8" x="587.457" y="266.112" style="fill:gray;stroke:gray;stroke-width:.8"/><g id="text_8" style="fill:gray" transform="matrix(.1 0 0 -.1 574.732 280.71)"><use xlink:href="#DejaVuSans-33"/><use xlink:href="#DejaVuSans-35" x="63.623"/><use xlink:href="#DejaVuSans-30" x="127.246"/><use xlink:href="#DejaVuSans-30" x="190.869"/></g></g><g id="xtick_9"><use xlink:href="#m149aa8b7d5" id="line2d_9" x="657.207" y="266.112" style="fill:gray;stroke:gray;stroke-width:.8"/><g id="text_9" style="fill:gray" transform="matrix(.1 0 0 -.1 644.482 280.71)"><defs><path id="DejaVuSans-34" d="M2419 4116 825 1625h1594v2491zm-166 550h794V1625h666v-525h-666V0h-628v1100H313v609l1940 2957z" transform="scale(.01563)"/></defs><use xlink:href="#DejaVuSans-34"/><use xlink:href="#DejaVuSans-30" x="63.623"/><use xlink:href="#DejaVuSans-30" x="127.246"/><use xlink:href="#DejaVuSans-30" x="190.869"/></g></g></g><g id="matplotlib.axis_2"><g id="ytick_1"><g id="line2d_10"><defs><path id="m8363c03bd3" d="M0 0h-3.5" style="stroke:gray;stroke-width:.8"/></defs><use xlink:href="#m8363c03bd3" x="71.308" y="237.096" style="fill:gray;stroke:gray;stroke-width:.8"/></g><g id="text_10" style="fill:gray" transform="matrix(.16 0 0 -.16 0 243.175)"><defs><path id="DejaVuSans-2212" d="M678 2272h4006v-531H678v531z" transform="scale(.01563)"/></defs><use xlink:href="#DejaVuSans-2212"/><use xlink:href="#DejaVuSans-32" x="83.789"/><use xlink:href="#DejaVuSans-30" x="147.412"/><use xlink:href="#DejaVuSans-30" x="211.035"/><use xlink:href="#DejaVuSans-30" x="274.658"/><use xlink:href="#DejaVuSans-30" x="338.281"/></g></g><g id="ytick_2"><use xlink:href="#m8363c03bd3" id="line2d_11" x="71.308" y="201.739" style="fill:gray;stroke:gray;stroke-width:.8"/><g id="text_11" style="fill:gray" transform="matrix(.16 0 0 -.16 0 207.817)"><use xlink:href="#DejaVuSans-2212"/><use xlink:href="#DejaVuSans-31" x="83.789"/><use xlink:href="#DejaVuSans-30" x="147.412"/><use xlink:href="#DejaVuSans-30" x="211.035"/><use xlink:href="#DejaVuSans-30" x="274.658"/><use xlink:href="#DejaVuSans-30" x="338.281"/></g></g><g id="ytick_3"><use xlink:href="#m8363c03bd3" id="line2d_12" x="71.308" y="166.381" style="fill:gray;stroke:gray;stroke-width:.8"/><use xlink:href="#DejaVuSans-30" id="text_12" style="fill:gray" transform="matrix(.16 0 0 -.16 54.127 172.46)"/></g><g id="ytick_4"><use xlink:href="#m8363c03bd3" id="line2d_13" x="71.308" y="131.024" style="fill:gray;stroke:gray;stroke-width:.8"/><g id="text_13" style="fill:gray" transform="matrix(.16 0 0 -.16 13.408 137.103)"><use xlink:href="#DejaVuSans-31"/><use xlink:href="#DejaVuSans-30" x="63.623"/><use xlink:href="#DejaVuSans-30" x="127.246"/><use xlink:href="#DejaVuSans-30" x="190.869"/><use xlink:href="#DejaVuSans-30" x="254.492"/></g></g><g id="ytick_5"><use xlink:href="#m8363c03bd3" id="line2d_14" x="71.308" y="95.667" style="fill:gray;stroke:gray;stroke-width:.8"/><g id="text_14" style="fill:gray" transform="matrix(.16 0 0 -.16 13.408 101.745)"><use xlink:href="#DejaVuSans-32"/><use xlink:href="#DejaVuSans-30" x="63.623"/><use xlink:href="#DejaVuSans-30" x="127.246"/><use xlink:href="#DejaVuSans-30" x="190.869"/><use xlink:href="#DejaVuSans-30" x="254.492"/></g></g><g id="ytick_6"><use xlink:href="#m8363c03bd3" id="line2d_15" x="71.308" y="60.309" style="fill:gray;stroke:gray;stroke-width:.8"/><g id="text_15" style="fill:gray" transform="matrix(.16 0 0 -.16 13.408 66.388)"><use xlink:href="#DejaVuSans-33"/><use xlink:href="#DejaVuSans-30" x="63.623"/><use xlink:href="#DejaVuSans-30" x="127.246"/><use xlink:href="#DejaVuSans-30" x="190.869"/><use xlink:href="#DejaVuSans-30" x="254.492"/></g></g><g id="ytick_7"><use xlink:href="#m8363c03bd3" id="line2d_16" x="71.308" y="24.952" style="fill:gray;stroke:gray;stroke-width:.8"/><g id="text_16" style="fill:gray" transform="matrix(.16 0 0 -.16 13.408 31.03)"><use xlink:href="#DejaVuSans-34"/><use xlink:href="#DejaVuSans-30" x="63.623"/><use xlink:href="#DejaVuSans-30" x="127.246"/><use xlink:href="#DejaVuSans-30" x="190.869"/><use xlink:href="#DejaVuSans-30" x="254.492"/></g></g></g><path id="line2d_17" d="m99.207 166.32.282.122.282-.12.282.118.282-.117.282.116.282-.115.282.114.282-.113.282.113.282-.113.282.112.282-.112.282.112.282-.112.282.113.282-.114.282.115.282-.115.282.116.282-.118.282.119.282-.12.282.122.282-.124.282.126.281-.129.282.132.282-.135.282.138.282-.141.282.145.282-.15.282.155.282-.16.282.167.282-.175.282.183.282-.192.282.203.282-.216.282.23.282-.247.282.267.282-.292.282.323.282-.362.282.413.282-.483.282.585.282-.745.281 1.035.282-1.722.282 5.605.282 10.3.282-2.51.846 3.882.282-.718.282 1.31.846 9.935.564 3.226.282 1.8.282-1.788.282-5.357.282-9.225.282-14.085 1.128-76.608.564-18.25.281-1.33.282 7.065.282 15.917.846 62.443.564 16.225.564 7.14 1.41 9.467.282 2.51.282.031 1.128-7.654.564-7.816.564-3.543.281-.954.282-.42.564.649.282.554.282.928.564 3.312.846 5.353.564 3.316.564 3.688.564 3.048 1.128 7.535.282.308.282.737.282 1.177.282-.955.281-5.756.564-24.608 1.692-111.394.282-4.642.282 5.52.282 13.216.564 43.494.564 44.48.564 18.508.282 4.845.282 2.45.282.96.846 5.058.282.514.282-.017.281-1.33.846-9.644.564-6.724.564-4.025.564-2.809.282-.088.282.576.282.88.564 3.739.282 1.768.282.93.282.387.564-.002.282 1.171.564 5.098.282.953.282-.075.281.278.282 1.003 1.41 7.072.564 4.525.282-1.628.282-7.216.564-28.505 1.41-92.024.282-3.583.282 4.57.282 12.564 1.41 92.595.563 10.517.282 3.647.282.859.282-.638.282-.18.564.632.282.004.282-.484.282-1.895.564-6.315 1.128-6.95.564-2.713.282-1.906.282-1.092.282.514.282.97.282.457.282 1.245.845 10.194.564 3.702.282 2.292.282.972.282-.372.282.033.282 1.612.564 4.86.564 2.876.282.406.282-1.433.282-3.934.282-7.176.282-12.434 1.692-106.075.281-2.402.282 6.602.282 12.134.564 41.037.564 42.4.282 8.053.564 6.058.282 1.99.282.256.282-1.483.282-2.158.282-.758.564 3.017.282-1.164.282-2.045.282.3.282 1.744.282-.154.282-2.009.282-1.112.282.175.282-.426.281-.952.282.415.282 1.589.282.547.282-.649.282.492.564 4.106.282-.49.282-1 .282 1.044 1.128 11.484 1.41 13.114.564 2.542.282-1.041.282-3.515.282-6.052.281-10.31.564-38.994 1.128-93.336.282-11.175.282-3.571.282 2.974.282 10.258.564 45.46.564 49.36.282 12.906.564 11.285.564 7.283 1.128 7.462.282.244.281-.205.282-1.034 1.128-10.713.846-3.406.846 3.766.282.376 1.128 4.38.564 2.775.282.879.282 1.913.564 6.2.282.919.282-.314.282.346.845 4.384.846 7.062.282-.288.282-.568.282-.857.282-5.77.282-14.891 1.692-132.364.282-8.19.282 1.124.282 8.807.282 15.795 1.128 92.88.281 7.064.282 3.967.564 11.435.282 3.073.846 2.411.282-.26.282-1.806.564-5.2.564-2.833.564-3.275 1.128-8.926.564 2.415.282.379.282 1.23 1.973 21.278.564 2.602.564 4.33 1.128 11.092.282.623.282-2.32.282-5.833.282-9.799.282-15.38 1.692-123.41.282-4.268.281 4.748.282 12.647.564 43.844.564 46.036.282 12.113.282 5.323.564 6.9.564 6.446.282 1.061.282-.132.282-1.437.564-4.277.564-1.11.282-2.07.564-5.28.282.038.282.224.282-1.467.281-2.086.282-.372.282 1.722.564 5.037.564 8.076.564 9.115.846 7.99 1.41 12.71.282.383.282-.872.282-2.123.282-5.898.282-12.044.564-40.212 1.127-102.746.282-12.693.282-4.624.282 3.897.282 12.21.564 46.65.564 52.798.282 14.373.564 11.956.564 10.173.282 3.458.282 1.649.282.217.564-.96.282-1.185.564-5.331.845-7.827.282-2.175.282-1.059.282.511.564 1.93.282.851.282 2.311.564 6.733.564 4.957.846 10.79.846 11.943.846 7.5.282 1.262.282.183.282-.495.282-2.26.281-6.496.282-12.972.564-47.86.846-91.75.564-34.968.282-4.305.282 5.831.282 14.469.564 46.23.846 78.273.282 11.339.846 13.753.282 3.128.282.363.846-2.887.845-7.292.564-6.86.282-3.306.282-1.121.282-.048.282-.319.282.36.564 5.328 1.128 11.046.564 6.948.564 7.23 1.973 14.691.282-.034.282.463.282 1.434.282-1.934.282-9.66.564-38.1.564-59.008.564-60.066.282-17.415.282-8.142.282-.04.282 6.928.282 13.52.564 49.743.564 55.525.282 14.606.564 11.484.563 7.85.282 2.38.282 1.28.282.631.282-.081.282-1.224.846-7.21.564-1.374.564-.999.846.531.282 1.14 1.128 10.864.846 9.756.845 9.555.564 3.688.564 3.776.282 2.157.282.618.564-2.485.282-2.526.282-7.313.282-15.415.564-53.182.846-86.365.564-32.1.282-2.334.282 8.968.564 35.245.563 50.356.564 46.635.282 9.802.564 8.87.564 6.268.282 1.926.282 1.114.282-.477.846-5.994.282-.817.282-.172.282.806 1.128 7.84.564 3.57.846 5.663 1.973 22.237.282.926.282-.172.282.391.846 5.384.282.35.282-1.831.282-6.502.282-13.39.564-48.024 1.128-120.606.282-12.078.282-3.289.281 2.574.282 6.218.282 9.524.282 14.32.564 47.391.564 47.59.282 11.968.282 5.514.564 6.426.846 11.866.282.171.282-.955.282.143.282.921.282.034.282-.422.564 1.264.282-1.294.282-1.891.281 1.022.282 3.661.282 2.178.282-.253.282 1.315.564 10.105.564 5.48.564 10.912.282 1.753.282-.48.282.923.846 8.296.564 6.532.282 1.11.282-1.223.282-4.868.282-11.377.564-45.638 1.41-148.595.281-8.034.282-.837.282 3.947.282 8.955.564 35.564 1.128 97.944.282 10.843.282 4.474 1.128 8.846.282.305.282-.467.282.205.564 2.217.281-.568.564-2.505.282.198.564 1.459.564-.396.282 1.098.846 6.073.564 10.28.564 8.498.564 3.31.846 2.955.564 6.297.564 5.958.281 1.464.282-1.13.282-6.393.282-13.281.564-47.12 1.128-123.938.282-14.537.282-7.17.282.145.282 6.05.282 9.328.282 13.406.564 50.913.564 52.74.282 13.574.564 14.217.282 4.255.282 2.107.845 2.294.282.332.282-.007.564.41.282-.898.282-1.306.282-.342.846 1.77.282 2.508.564 6.295.846 5.756.564 5.486.846 9.383.564 5.775.563 7.615.282 2.153.282.619.282.186.282-.273.282-3.27.282-9.643.282-17.497.564-55.751.846-100.968.282-20.834.282-10.608.282-3.238.282 1.095.282 5.04.282 10.08.564 34.32 1.41 112.324.563 9.26.846 8.89.282 1.542.282.071.846-3.285.282-1.493.282-.571.282 1.988.282 3.237.282 1.36.282-.69.282-.073.282 1.343.282.6.564-1.568.282 1.14.845 4.672.564 7.938 1.128 17.098 1.128 12.383.282.458.282-.202.282-2.067.282-8.264.282-17.3.564-56.578.846-106.184.282-20.15.282-10.445.282-4.457.282.396.281 5.338.282 9.521.564 32.575 1.41 116.626.282 7.718.846 12.043.282 1.246.282-1.093.846-5.704.282-2.077.846-8.18.282-.397.282.12.282-.13.282-.367.281.015.282 1.114.564 5.805 1.41 17.113.564 7.765.564 8.282.846 14.055.564 8.282.282 1.62.282-1.553.282-7.27.282-16.403.564-59.286.845-111.303.282-21.079.282-9.607.282-4.276.282-1.135.282 4.912.564 28.699.564 39.055.846 77.782.282 13.398.282 5.157.846 7.918.282.842.282.282.282.93.282 1.384.282.71.282-.795.563-2.687.282-.219.282-1.174.564-5.144.282.199.564 3.827.282 1.192.282 1.8.564 7.752.564 6.632.564 7.423.564 7.44.564 6.432.846 12.022.282 4.776.282 2.553.281-1.153.282-4.779.282-9.374.282-16.76.564-61.869.564-77.989.282-27.38.282-16.468.282-9.594.282-5.042.282.257.282 4.96.564 17.541.564 35.59 1.41 110.339.282 7.023.282 2.44.845 3.57.282-.463.846-3.355.564-4.72.282-.61.282.24.282-.745.282-1.672.282-.634.282 1.482.564 4.402.564 1.647.282 2.316 1.128 14.51.563 7.05.564 4.682 1.692 18.975.282.431.282-2.315.282-9.52.282-19.47.564-62.754.846-106.78.282-15.085.282-6.694.282-2.589.282 2.158.282 7.421.564 24.117.563 39.309 1.41 108.296.282 6.22.564 3.897.282-.498.282-4.04.846-15.895.564-8.402.564-5.665.282-1.741.282-.358.282.462.282.89.282 2.162 1.691 22.102 3.102 45.787.282.8.282-2.37.282-4.366.282-8.042.282-14.777.282-23.559.564-73.348.564-67.899.282-16.3.281-8.585.282-4.597.282-.402.282 4.326.282 8.19.564 27.264.846 61.241.846 64.287.282 11.518.282 5.658.564 3.811.282 1.288.282-.23.564-4.33.282-.88.282-.253.282-1.153.282-1.919.281-.937.282 1.002.564 3.44.282.59.282.234.282.087.282-.1.282.249.564 2.072.282.325.282.031.282.789 1.128 7.53.564 7.651.564 8.14.564 5.157.282.107.281-5.36.282-12.975.282-21.89.564-72.361.564-70.422.282-17.56.282-9.158.282-4.713.282-.436.282 4.29.564 16.964.564 26.26.846 61.252.846 57.967.282 10.5.282 4.624.282.925.845-1.69.282.656.282-.319.564-5.533 1.128-10.532.282-.86.282.042.282.605.564 3.692.564 3.768 1.41 16.597.282 5.01.282 2.237.282.338.281 1.821.846 12.592.564 7.076.282 4.268.282.559.282-7.512.282-17.795.564-64.394.564-77.227.282-26.5.282-15.368.282-7.927.282-3.33.282 1.175.282 5.546.564 19.402.564 29.595.845 58.91.564 42.391.282 13.815.282 7.752.282 3.52.282.941.282-.789.846-5.114.564-2.31.564-4.37.564-4.047.282-.681.282-.01.282.458.282 1.523.846 10.232.563 7.098.564 7.778.846 6.766.282.673.282 1.164 1.128 12.352.282 1.478.282-.536.282-6.793.282-17.135.564-68.176.564-75.049.282-22.745.282-12.877.282-6.455.282-2.157.282 1.041.281 3.518.282 5.75.564 18.473.564 28.979 1.692 112.395.282 6.543.282 1.566.282-.328.282-.88 1.692-10.995.282-1.768.282-.647.282-.084.282.176.281.87.564 3.127.564 4.646.846 8.342.564 7.2.564 1.883.282 3.864.564 9.198.282 1.963.282 3.211.564 10.413.282 3.133.282.277.282-4.025.282-10.934.282-21.267.563-76.988.564-72.05.282-16.98.282-9.158.282-5.269.282-1.456.282 2.387.564 10.79.564 18.008.564 29.658 1.692 102.267.282 9.89.282 5.213.282.668.564-3.34.563-1.69.282-2.35.846-11.25.564-3.564.282-.766.282.303 1.41 7.21.564 5.585 1.41 14.855.564 3.697.564 7.064 1.127 18.879.282.71.282-5.306.282-12.79.282-20.973.564-69.64.564-72.575.282-19.11.282-9.88.282-5.283.282-1.663.282 2.577.564 14.06.564 21.954 1.41 77.594.845 50.296.282 11.3.282 6.754.282 1.892.282-2.426.564-9.293L517.92 191l.282-.84.282.937.282.503.564-1.38.282.608.564 2.921.564 6.024 1.973 23.402.846 13.563.564 6.98.282.542.282-5.456.282-13.443.282-22.904 1.128-138.091.282-14.806.282-8.375.282-4.799.282-.641.564 5.604.282 4.757.281 9.123 1.41 67.726 1.41 75.894.282 7.6.282 4.438.282 1.269.282-1.316 1.692-13.159.282-.21.564-.961.282.285.281.565.282.287.282.691.846 4.706.282 1.695 1.41 21.07.564 10.367.564 6.742.282 1.424.282-2.04.282-6.992.282-14.842.282-26.66.846-109.977.564-34.885.281-9.104.282-5.33.282-1.069.282 2.762.564 12.91.564 21.237 1.41 69.7.846 42.338.564 16.817.282 4.733.282 1.479.282-1.078.282-2.612.564-10.567.282-5.61.563-5.09.564-5.208.282-.521 1.128 5.517.282.97.282 1.798 1.128 13.308 2.256 29.24 1.41 27.243.281 1.208.282-3.708.282-9.616.282-20.277 1.41-161.836.282-11.268.282-6.332.282-1.549.282 1.354.282 2.864.282 5.092.564 18.99 1.41 65.625.845 40.936.564 18.496.282 5.752.282 2.952.282.402.282-1.284 1.692-11.567.564-3.72.282.175.564 3.037.282-.39.282-1.304.282-.017.282 2.317 1.127 13.964.564 8.664.564 5.608 1.41 23.749.282 1.021.282-2.776.282-9.603.282-21.446 1.128-134.028.282-15.499.282-8.853.282-3.593.282.35.282 2.977.282 5.568.845 27.294.564 23.869.564 23.743.564 20.93.564 24.147.564 13.83.564 9.165.282 2.105.282.559.282-.336.282-.947.282-1.732 1.128-11.652.564-1.17.281-.348.282.674 1.128 6.164 1.128 9.327.282 2.908.564 9.1.846 15.39.282 3.453.282.986.282-4.466.282-13.918.564-54.876.564-52.607.282-16.552.281-9.89.282-4.614.282-2.004.282-.98.282 1.286.282 4.777.846 23.295 2.538 90.368.282 6.97.282 3.246.282-.424.564-7.457 1.41-18.619.281-.694.282-.251.564-4.142.282-.08 1.128 7.487 1.974 20.16.564 7.823.846 15.784.564 8.463.281-.228.282-6.402.282-15.903 1.128-92.221.564-20.48.282-5.711.282-3.27.282-1.487.282 1.08.846 12.756.282 5.39.564 19.773 1.692 60.914.563 11.38.282 2.126.282-.134.282-1.737.564-7.214.846-12.388.846-9.4.282-1.656.282-.274.282.949.564 3.066.564 1.546.282 1.683 1.128 12.403.845 10.797.282 2.858 1.128 16.767.564 4.491.282-3.553.282-13.254 1.128-83.036.564-21.7.282-6.14.282-3.294.282-.36.282 2.302.282 4.413.564 13.66.845 24.04.846 26.497.846 19.395.564 7.39.282.948.282-.884.564-4.544.564-5.752.564-4.401.564-8.312.282-1.193.282 1.088.282.333.282-.429.282 2.07.845 16.245.564 5.05.564 6.187.564 3.593.846 10.525.846 9.786.282-2.582.282-9.805 1.692-88.373.564-8.184.282-2.91.281-.785.282 1.425.282 2.54.282 4.195.564 16.215 1.41 40.726 1.128 16.235.282 1.348.282-.043.282-1.034.564-4.379 1.128-12.266.282-1.03.563-5.61.282-.351.846 5.962.282 1.722.564 7.685.564 6.455.564 2.972.564 5.599 1.974 21.857.282 1.1.282-4.006.282-5.754.281-13.319h0" clip-path="url(#p858b7721d4)" style="fill:none;stroke:#1f77b4;stroke-width:1.5;stroke-linecap:square"/><path id="patch_3" d="M71.308 266.112V0" style="fill:none;stroke:gray;stroke-width:.8;stroke-linejoin:miter;stroke-linecap:square"/><path id="patch_4" d="M685.107 266.112V0" style="fill:none;stroke:#000;stroke-width:.8;stroke-linejoin:miter;stroke-linecap:square"/><path id="patch_5" d="M71.308 266.112h613.8" style="fill:none;stroke:gray;stroke-width:.8;stroke-linejoin:miter;stroke-linecap:square"/><path id="patch_6" d="M71.308 0h613.8" style="fill:none;stroke:#000;stroke-width:.8;stroke-linejoin:miter;stroke-linecap:square"/></g></g><defs><clipPath id="p858b7721d4"><path d="M71.308 0h613.8v266.112h-613.8z"/></clipPath></defs></svg>