<svg xmlns="http://www.w3.org/2000/svg" xmlns:xlink="http://www.w3.org/1999/xlink" width="913.477" height="377.053" viewBox="0 0 685.107 282.79"><defs><style>*{stroke-linejoin:round;stroke-linecap:butt}</style></defs><g id="figure_1"><path id="patch_1" d="M0 282.79h685.107V0H0v282.79z" style="fill:none"/><g id="axes_1"><path id="patch_2" d="M71.308 266.112h613.8V0h-613.8v266.112z" style="fill:none"/><g id="matplotlib.axis_1"><g id="xtick_1"><g id="line2d_1"><defs><path id="mbf81852e08" d="M0 0v3.5" style="stroke:gray;stroke-width:.8"/></defs><use xlink:href="#mbf81852e08" x="99.207" y="266.112" style="fill:gray;stroke:gray;stroke-width:.8"/></g><g id="text_1" style="fill:gray" transform="matrix(.1 0 0 -.1 96.026 280.71)"><defs><path id="DejaVuSans-30" d="M2034 4250q-487 0-733-480-245-479-245-1442 0-959 245-1439 246-480 733-480 491 0 736 480 246 480 246 1439 0 963-246 1442-245 480-736 480zm0 500q785 0 1199-621 414-620 414-1801 0-1178-414-1799Q2819-91 2034-91q-784 0-1198 620-414 621-414 1799 0 1181 414 1801 414 621 1198 621z" transform="scale(.01563)"/></defs><use xlink:href="#DejaVuSans-30"/></g></g><g id="xtick_2"><use xlink:href="#mbf81852e08" id="line2d_2" x="168.958" y="266.112" style="fill:gray;stroke:gray;stroke-width:.8"/><g id="text_2" style="fill:gray" transform="matrix(.1 0 0 -.1 159.414 280.71)"><defs><path id="DejaVuSans-35" d="M691 4666h2478v-532H1269V2991q137 47 274 70 138 23 276 23 781 0 1237-428 457-428 457-1159 0-753-469-1171Q2575-91 1722-91q-294 0-599 50Q819 9 494 109v635q281-153 581-228t634-75q541 0 856 284 316 284 316 772 0 487-316 771-315 285-856 285-253 0-505-56-251-56-513-175v2344z" transform="scale(.01563)"/></defs><use xlink:href="#DejaVuSans-35"/><use xlink:href="#DejaVuSans-30" x="63.623"/><use xlink:href="#DejaVuSans-30" x="127.246"/></g></g><g id="xtick_3"><use xlink:href="#mbf81852e08" id="line2d_3" x="238.708" y="266.112" style="fill:gray;stroke:gray;stroke-width:.8"/><g id="text_3" style="fill:gray" transform="matrix(.1 0 0 -.1 225.982 280.71)"><defs><path id="DejaVuSans-31" d="M794 531h1031v3560L703 3866v575l1116 225h631V531h1031V0H794v531z" transform="scale(.01563)"/></defs><use xlink:href="#DejaVuSans-31"/><use xlink:href="#DejaVuSans-30" x="63.623"/><use xlink:href="#DejaVuSans-30" x="127.246"/><use xlink:href="#DejaVuSans-30" x="190.869"/></g></g><g id="xtick_4"><use xlink:href="#mbf81852e08" id="line2d_4" x="308.457" y="266.112" style="fill:gray;stroke:gray;stroke-width:.8"/><g id="text_4" style="fill:gray" transform="matrix(.1 0 0 -.1 295.733 280.71)"><use xlink:href="#DejaVuSans-31"/><use xlink:href="#DejaVuSans-35" x="63.623"/><use xlink:href="#DejaVuSans-30" x="127.246"/><use xlink:href="#DejaVuSans-30" x="190.869"/></g></g><g id="xtick_5"><use xlink:href="#mbf81852e08" id="line2d_5" x="378.207" y="266.112" style="fill:gray;stroke:gray;stroke-width:.8"/><g id="text_5" style="fill:gray" transform="matrix(.1 0 0 -.1 365.483 280.71)"><defs><path id="DejaVuSans-32" d="M1228 531h2203V0H469v531q359 372 979 998 621 627 780 809 303 340 423 576 121 236 121 464 0 372-261 606-261 235-680 235-297 0-627-103-329-103-704-313v638q381 153 712 231 332 78 607 78 725 0 1156-363 431-362 431-968 0-288-108-546-107-257-392-607-78-91-497-524-418-433-1181-1211z" transform="scale(.01563)"/></defs><use xlink:href="#DejaVuSans-32"/><use xlink:href="#DejaVuSans-30" x="63.623"/><use xlink:href="#DejaVuSans-30" x="127.246"/><use xlink:href="#DejaVuSans-30" x="190.869"/></g></g><g id="xtick_6"><use xlink:href="#mbf81852e08" id="line2d_6" x="447.957" y="266.112" style="fill:gray;stroke:gray;stroke-width:.8"/><g id="text_6" style="fill:gray" transform="matrix(.1 0 0 -.1 435.233 280.71)"><use xlink:href="#DejaVuSans-32"/><use xlink:href="#DejaVuSans-35" x="63.623"/><use xlink:href="#DejaVuSans-30" x="127.246"/><use xlink:href="#DejaVuSans-30" x="190.869"/></g></g><g id="xtick_7"><use xlink:href="#mbf81852e08" id="line2d_7" x="517.707" y="266.112" style="fill:gray;stroke:gray;stroke-width:.8"/><g id="text_7" style="fill:gray" transform="matrix(.1 0 0 -.1 504.983 280.71)"><defs><path id="DejaVuSans-33" d="M2597 2516q453-97 707-404 255-306 255-756 0-690-475-1069Q2609-91 1734-91q-293 0-604 58T488 141v609q262-153 574-231 313-78 654-78 593 0 904 234t311 681q0 413-289 645-289 233-804 233h-544v519h569q465 0 712 186t247 536q0 359-255 551-254 193-729 193-260 0-557-57-297-56-653-174v562q360 100 674 150t592 50q719 0 1137-327 419-326 419-882 0-388-222-655t-631-370z" transform="scale(.01563)"/></defs><use xlink:href="#DejaVuSans-33"/><use xlink:href="#DejaVuSans-30" x="63.623"/><use xlink:href="#DejaVuSans-30" x="127.246"/><use xlink:href="#DejaVuSans-30" x="190.869"/></g></g><g id="xtick_8"><use xlink:href="#mbf81852e08" id="line2d_8" x="587.457" y="266.112" style="fill:gray;stroke:gray;stroke-width:.8"/><g id="text_8" style="fill:gray" transform="matrix(.1 0 0 -.1 574.732 280.71)"><use xlink:href="#DejaVuSans-33"/><use xlink:href="#DejaVuSans-35" x="63.623"/><use xlink:href="#DejaVuSans-30" x="127.246"/><use xlink:href="#DejaVuSans-30" x="190.869"/></g></g><g id="xtick_9"><use xlink:href="#mbf81852e08" id="line2d_9" x="657.207" y="266.112" style="fill:gray;stroke:gray;stroke-width:.8"/><g id="text_9" style="fill:gray" transform="matrix(.1 0 0 -.1 644.482 280.71)"><defs><path id="DejaVuSans-34" d="M2419 4116 825 1625h1594v2491zm-166 550h794V1625h666v-525h-666V0h-628v1100H313v609l1940 2957z" transform="scale(.01563)"/></defs><use xlink:href="#DejaVuSans-34"/><use xlink:href="#DejaVuSans-30" x="63.623"/><use xlink:href="#DejaVuSans-30" x="127.246"/><use xlink:href="#DejaVuSans-30" x="190.869"/></g></g></g><g id="matplotlib.axis_2"><g id="ytick_1"><g id="line2d_10"><defs><path id="m3c5c125ccd" d="M0 0h-3.5" style="stroke:gray;stroke-width:.8"/></defs><use xlink:href="#m3c5c125ccd" x="71.308" y="232.683" style="fill:gray;stroke:gray;stroke-width:.8"/></g><g id="text_10" style="fill:gray" transform="matrix(.16 0 0 -.16 0 238.762)"><defs><path id="DejaVuSans-2212" d="M678 2272h4006v-531H678v531z" transform="scale(.01563)"/></defs><use xlink:href="#DejaVuSans-2212"/><use xlink:href="#DejaVuSans-31" x="83.789"/><use xlink:href="#DejaVuSans-30" x="147.412"/><use xlink:href="#DejaVuSans-30" x="211.035"/><use xlink:href="#DejaVuSans-30" x="274.658"/><use xlink:href="#DejaVuSans-30" x="338.281"/></g></g><g id="ytick_2"><use xlink:href="#m3c5c125ccd" id="line2d_11" x="71.308" y="184.016" style="fill:gray;stroke:gray;stroke-width:.8"/><g id="text_11" style="fill:gray" transform="matrix(.16 0 0 -.16 10.18 190.094)"><use xlink:href="#DejaVuSans-2212"/><use xlink:href="#DejaVuSans-35" x="83.789"/><use xlink:href="#DejaVuSans-30" x="147.412"/><use xlink:href="#DejaVuSans-30" x="211.035"/><use xlink:href="#DejaVuSans-30" x="274.658"/></g></g><g id="ytick_3"><use xlink:href="#m3c5c125ccd" id="line2d_12" x="71.308" y="135.348" style="fill:gray;stroke:gray;stroke-width:.8"/><use xlink:href="#DejaVuSans-30" id="text_12" style="fill:gray" transform="matrix(.16 0 0 -.16 54.127 141.427)"/></g><g id="ytick_4"><use xlink:href="#m3c5c125ccd" id="line2d_13" x="71.308" y="86.681" style="fill:gray;stroke:gray;stroke-width:.8"/><g id="text_13" style="fill:gray" transform="matrix(.16 0 0 -.16 23.587 92.76)"><use xlink:href="#DejaVuSans-35"/><use xlink:href="#DejaVuSans-30" x="63.623"/><use xlink:href="#DejaVuSans-30" x="127.246"/><use xlink:href="#DejaVuSans-30" x="190.869"/></g></g><g id="ytick_5"><use xlink:href="#m3c5c125ccd" id="line2d_14" x="71.308" y="38.013" style="fill:gray;stroke:gray;stroke-width:.8"/><g id="text_14" style="fill:gray" transform="matrix(.16 0 0 -.16 13.408 44.092)"><use xlink:href="#DejaVuSans-31"/><use xlink:href="#DejaVuSans-30" x="63.623"/><use xlink:href="#DejaVuSans-30" x="127.246"/><use xlink:href="#DejaVuSans-30" x="190.869"/><use xlink:href="#DejaVuSans-30" x="254.492"/></g></g></g><path id="line2d_15" d="m99.207 135.079.282.529.282-.51.282.493.282-.479.282.466.282-.454.282.443.282-.433.282.424.282-.416.282.41.282-.404.282.398.282-.394.282.39.282-.387.282.386.282-.385.282.384.282-.384.282.385.282-.387.282.39.282-.394.282.4.281-.406.282.413.282-.423.282.435.282-.449.282.465.282-.485.282.51.282-.54.282.576.282-.621.282.68.282-.76.282.869.282-1.026.282 1.277.282-1.733.282 2.813.282-9.151.282-13.55.282 6.227.282 1.036.282 2.444.282 3.943.282 6.334.281 2.773.564 7.7.282-.194.282-3.267.282-.064.564 3.743.282-1.583.564-6.924.282-1.17.282-4.832.282-7.145.282-3.869.282-.959.282-1.418.282.76.282 2.495.564 2.057.564 7.885.282 1.386 1.127 13.905.564 18.72.282 1.79.564 5.625.282-6.987.282-11.788.282-2.339.282 3.02.282-5.088.282-9.603.282-2.832.282 1.028.282-2.748.282-4.322.282-1.398.282-.25.282-1.863.564-5.656.282-1.234.282-2.282.845-18.77.282-1.302.282-.625.282 1.407.564 7.552.564-2.223.282.353.282-.458.282 3.322.564 28.22.564 25.518.282 8.859.282 2.672.282-1.171.282-2.79.282-6.746.846-27.126.282-3.309.281.055.282.576.282.04.282.633.282 1.659 1.128 11.788.282 8.55.282 4.98.282-3.12.282-1.777.282 4.49.282 2.465.564-5.05.282 1 .564 3.26.282-1.025.282-5.341 1.128-28.81.563-4.532.564-13.157.564-14.36.282-2.125.846 3.937.846 10.103.282 1.561.282 2.194.282 1.239.282.58.564 2.217.282 2.184.282 4.388.282 2.49.282-.194.282 1.456.282.785.281-1.541.282 5.968.282 14.314.282 7.294.282-2.504.564-2.301.564-15.064.282-2.253.564-8.476.282 1.065.564 11.699.564 16.482.282 2.188.282.618.282 3.166.846 14.317.282 3.222.282 1.555.281-1.527.282-5.301.564-17.839.564-15.863.846-9.926.564-7.408.282-6.177.564-19.031.282.888.282 7.956.564 7.894.564 25.8.282 2.05.282-.72.282 4.975.282.312.564-14.326.281 1.11.282 1.683.282 2.64.564 10.392.282 1.218.282-2.725.564-10.086.282.186.282-.332.282-1.427.282 2.703.282 4.205.282-.05.282.111.564 13.79.282 1.78.282-1.8.282-.35.564 1.407.282 1.74.845 10.603.282 1.518.282-1.846.282-3.566.282-.066.282 3.04.282.983.282-2.694.282-5.712.564-15.2.564-9.32.282-1.848.282 3.47.282.05.564-16.236.282-2.056.282-10.102.282-18.149.282-7.395.564 13.913.282 3.685.281 7.895.564 19.826.282 4.422.282-.017.282-1.5.282 2.86.282 5.456.282.893.282-1.279.564 8.555.282-5.809.282-12.298.282-5.898.282.38.564-3.794.282 7.266.564 22.339.564 5.662.282 1.725.282-1.638.281-2.43.282 2.644.282 3.96.282-2.842.282-1.591.564 28.018.282 1.139.282-4.726.282 2.44.282.782.564-13.813.282 1.995.282 2.949.282-.728.282-4.747.846-23.794.846-9.035.845-27.462.564-5.32.282.037.846 15.011.282-.719.282-4.673.282-2.177.564 8.038.282-1.892.282-1.056.282 3.11.282.36.282-2.847.282 1.86.564 10.13.282 3.216.846 13.579 1.691 51.815.282 1.31.282.336.564-1.013.282-.305.282-7.086.564-34.637.564-20.818.564-36.534.282.035.564 14.657.282 14.244.564 36.102.282.56.282-6.61 2.255-82.105.282-4.252.282 2.54.282 5.703.846 27.1.282-2.658.282 4.545.564 21.905.282 3.426.564 7.852.282.437.282.827.564-4.779.282 4.772.281 7.073.564.798.282 4.76.282-.504.282-7.739.282-3.884.282 4.858.564 13.105.282 2.361.282 5.056.282 8.247.282 3.274.282-3.272.282-1.954.282.18.282-1.73.282.216.282 4.012.282 1.607.282-1.202.282-.104.282-1.211.282-2.24.282.115.281-2.457.564-20.203.846-34.978.282 2.918.282-2.418.282-5.219.564 16.676.282-6.895.282-10.595.282-.874.282-2.403.282-8.156.282-1.01 1.41 38.428.564 2.589.845 13.064.564-6.327.282.713.282 3.288.564 8.504.282.743.564-2.427.282-2.022.282-.877.282.155.282-1.852.282-.159.564 13.994.282 2.74.282 6.16.282 11.931.282 6.675.282-2.343.564-12.11.563-16.903.282-6.335.564-26.54.564-24.755.282-4.936.282-.52.282-1.451.564-6.876.282.167.846 4.214.282 5.343.282 9.783.282 5.193.282-2.045.282 3.314.282 9.69.282 1.19.282-1.354.282 17.376.282 27.35.281 11.385.282-.813.282 5.877.282 8.663.282-1.144.564-16.054.282-3.82.282.36.846 7.023.282 3.762.846 5.669.282-6.036.564-20.012.282-3.845.282-7.85.564-23.137.282-6.717.282-2.274.281.112.282-1.03.282-3.41.846-16.357.282-.544.282-1.793.282-.607.282 5.597.282 2.78 1.128-34.498.282-7.33.282 1.917.846 23.97.282 14.242.846 27.687.282 12.889.282 7.783.281 14.48.282 21.829.282 11.439.846-6.764.282-12.188.564-38.328.564-13.638.282-11.445.282-3.023.564 32.063.564 13.133.564 30.412.564 15.587.282 5.936.564 5.431.282.933.281-3.245.282-9.403.564-42.145 1.128-86.967.846-29.267.282-3.038.282 2.505.282 6.688 1.128 60.442.564 52.432.282 7.948.282 4.23.282 1.894.282-8.912.282-14.79.281-8.697.282-3.036.564-8.409.282 1.677.282 6.123.282 3.315.282-.825.282 1.342.564 8.846.282.583.282 3.9.564 15.87.282 4.854.564 15.104.282.756.564-10.83.282-2.977.282-15.567.282-23.63.282-9.864.282 3.706.281-3.202.282-8.743.282 2.814.282 8.173.282-2.984.282-7.41.282.286.282.061.564-22.57 1.128-37.205.282-3.455.282.673.282 7.15.564 21.97 1.128 26.76.564 19.255.563 21.303.564 15.236.282 2.194 1.128-14.62.282-1.006.564 5.394.282.837.282 3.026.846 23.492.282-7.472.564-20.285.564-13.701.282 8.731.564 42.916.282 4.521.281-9.7.282-26.262.564-71.326.282-20.539.282-9.822.282-.804.282 1.676.282-4.826.282-8.64.282-4.092.282 2.21.282 9.415.846 48.547.564 20.955.282 7.168.282 4.024.282.664.282-3.353.564-11.134.282-2.917.281 2.959.564 10.723.282 4.794.564 14.12.282.408.282 2.418.282 5.33.282.17.564-15.205.564-13.458.282-2.693.282-.774.282.709.282 2.827.282 4.213.282 6.724.564 19.615.282 2.147.282-1.65.282-.074.281.9.282-2.15.282-7.18 1.692-58.413.282-6.974.564-23.56.564-22.812.282 4.746 1.41 71.235.846 29.41.282 3.812.282 5.922.282 2.058.563-27.496.282-2.662.282.432.564-15.044.564 20.486.282-1.04.282-4.227.282 3.77.282 6.49.282 3.327.282 4.722 1.128 31.616.282 3.486.282.128.282 1.882.564 6.785.282.282.282-1.624.281-5.496.282-10.309.846-44.234.564-10.64.564-18.71.282-5.473.282-9.904.564-29.816.282-5.954.282-.101.282 4.104.564 19.376 1.128 52.76.282 3.59.282-.596.563-9.203.282-1.058.282 2.252.282-1.136.282-3.656.282.248.282 2.086.282-1.055.282-.568.282 2.28.282.286.282-2.043.282-.121.564 1 .282 4.13 1.41 36.888.564 26.102.282 6.129.845-7.138.282-7.293.846-38.916.282-2.791.282-4.228.282-15.122.564-45.339.564-25.89.282-8.608.282-3.171.282 5.473.846 38.193.564 25.485 1.128 30.492.282 2.474.563 8.534.564 4.301.282 1.33.282-.91.282-2.13.282-.921.282-.518.282-1.568.282-.927.282.503.564-1.759.282 3.922.846 23.073.282 5.217.282 2.738.282-.235.282-.889.564-3.458.282 3.16.282 7.213.281 1.404.282-7.72.282-11.47.282-16.125.564-46.784 1.128-48.432.564-11.752.282-3.092.282 1.098.282 4.448.282 11.09.564 36.172.846 22.313.282 5.022.282.086.282 1.22.563 8.675.282 2.602.282 5.014.282 7.212.282 3.383 1.128-8.06.282-4.327.282-2.559.282 1.633.564 11.177.564 14.323.282 3.379.282-.1.282 1.873.282 3.513.282-1.36.282-5.266.282-1.675.282 2.003.282.96.281.334.282.889.282-2.378.564-16.653 1.128-32.735.564-16.004.564-22.576.564-27.63.282-3.17.282 1.333.282 4.974 1.692 56.502.282 4.71.563 17.591.282 3.427.282 5.196.846 30.247.282-.853.564-11.078.564-12.513.282.63.282 3.557.282-.02.282-.855.282 1.457.282-3.564.282-10.04.282-4.04.564 17.222 1.41 38.803.281 5.99.282 2.324.282-.659.282.06.282-2.885.564-24.56.564-29.405 1.128-70.513.564-31.216.282-10.55.282-5.354.282 2.317.282 9.072.846 42.726.282 5.542 1.41 55.125.281 12.404.282 2.482.282-.559.282-.06.282 1.247.564 7.71.282.69.282 3.164.564 9.32.282 10.396.564 26.463.564 9.519.282-8.937.564-36.949.282.335.282-1.145.282-8.313.281-4.187.282 1.332.282-5.103.564-35.562.846-64.503.282-5.537.282 3.513.282 1.366.282.225.282 5.429.564 13.542.564 4.271.846 14.96.282-.9.282 3.246.282 5.985.282.244.282-1.756.281 6.924.282 11.66.282 5.61.282 2.474 1.128 33.554.846 30.32.282 3.937.282.933.564 6.71.282-1.567.282-5.241.282-2.42.282-4.082.564-27.421.282-4.367.282 2.087.282-.983.845-11.603.564-23.323.846-37.4.282-16.36.282-9.643.282-1.87.282-.119.282-1.24.282-.16.282 2.856.282 5.455.564 19.303.846 35.451.282 7.97.282 2.56.282-3.111.564-10.825.845-29.322.282-6.21.282-2.24.282 8.559.846 46.632.564 44.376.282 5.166.564 5.69.564-2.388.282.169.564-7.813.282 2.517.282-1.654.564-24.2.846-8.446.281 1.725.282 3.61.282-2.777.846-29.673.282-2.777.282 2.747.282 4.916.282 2.912.282-.601.282-5.926.282-15.421.564-48.782.282-15.359.282-7.364.282-.774.282 8.902.564 29.235.846 25.049.282 1.976.282-1.088.281 4.09 1.128 36.619.846 21.418.282 2.87.282.066.282-3.029.564-11.406.282.712.564 4.759.282 7.985.282 12.328.282 7.351.282 3.898.282 7.297.282 3.734.564-12.536.282 2.238.281 4.066.564 5.087.282-.999.564-21.086.564-28.118 1.41-78.662.564-18.423.282-3.724.282-.218.282.407.282 4.62 1.41 61.786.845 17.19.282 8.097.564 2.273.282 5.34.282 2.18.282-.402.564 7.68.564-13.41.282-.672.282-2.851.282-7.323.282-1.63.282 4.037.282-1.249.282-4.602.282 6.026.564 36.711.846 31.212.282-2.38.281-7.694.282 1.925.282 10.681.282 5.535.282-3.522.282-7.47.282-12.1.564-47.722.846-68.654.564-29.921.282-5.302.282-.692.282 3.075.846 16.637.564 21.007.564 28.912.563 28.959.282 3.892.282-.083.282 2.332.282 4.289.846 7.884.282 1.164.282.477.282 6.736.282 10.376.282 3.358.846-10.549.564-12.337.282 4.911 1.41 68.196.282 6.782.281-3.394.564-19.475.564-31.253.564-29.316.282-9.949.846-46.282.846-57.657.282-6.802.564-17.606.282 6.21 1.41 63.258.564 22.307.282 5.225.281 7.589.564 30.788 1.974 35.512.282 2.113.282 6.174.282 3.56.564-10.03.564 8.946.564-.157.282 2.954.564 7.128.282-6.478.564-36.207.563-15.218.564-24.08.282-6.167.282-14.32.564-37.92.846-34.243.282 1.752.564 24.66.564 11.514.846 41.322 1.128 40.74.282 6.762.282-.488.282-4.012.281-1.75.282.106.282 1.256.564 9.02.564 12.247.564 5.12.846 29.26.282 3.051.846 18.676.282 2.49.282-.473.282-6.949.564-30.986 1.128-81.96.563-22.412.564-30.697.282-7.26.282-3.134.282-.625.282.786.282-3.629.282-5.717.282 5.7 1.692 108.774.564 11.359.282 6.297.282-1.128.282-7.03.282-3.738.564 3.742.281-1.072.282 4.2.282 8.512.282.841.846-21.122.564-26.018.282.841.282 5.012.282.224.282 4.762.564 30.421.564 10.118.282 8.584.282 2.773.282-7.918 1.128-47.02.282-8.247.563-26.846.564-22.36.282-5.976.282-3.454.282-.155.282 5.435.846 40.866.282 3.413.282-1.947.282-7.15.282-10.063.282-5.788.282 1.419 1.41 19.889 1.128 21.124.563 14.391.282 10.484.846 41.586.282 6.075.564 5.306.282.311.846-6.803.282-1.615.282-.428.282 1.339.282-3.956.846-46.216.846-50.08.564-21.198.563-31.728.282-5.37.282 1.409.282.292.282-.28.846 11.57.282.087.282 6.108.564 19.314.282 6.298.282 11.146.846 45.682.564 28.4.282 2.344.564-13.041.564-17.046.282-3.695.281 3.501.564 18.139.282 9.95.564 7.174.564 23.625.564 6.233.564 33.38.282-1.291.846-42.91.564-54.135.564-40.65.564-46.913.564-27.707.282-8.825.281-3.795.282-1.827.282 1.46.282 7.284.846 45.462.282 4.509.282 6.595.564 24.933.564 10.092.564 7.773.282 5.254.282 1.22.282-4.504.282-1.464.564 11.835.282 9.803.564 30.174.564 14.031.563 14.79.282 4.074.282 1.607.564 5.97.564-5.805.564 12.067.282-11.261.564-45.686.564-37.045.564-35.493.846-32.205.282-4.159.282-.912.282-.162.564-1.441.281-2.601.564-14.867.282 2.303.564 17.031.282 6.692.564 30.81.564 28.887 1.692 44.659.564-2.502.846 26.79.282 1.333.564 9.414.281 2.72.564 19.816.846 11.653.282-10.591.564-35.399.282-11.976 1.692-98.61 1.128-45.081.282-1.845.282 4.357.846 39.216.563 14.349.564 7.447.282 2.28.282-.596.282-1.03.564 4.254.282-.39.282 3.426.846 27.693.282 8 .564 21.581.282 1.078.282-1.922.282 1.367.282 4.718.282 7.6 1.128 44.164.281.086.564-11.327.282-10.487 1.41-80.478.282-3.26.282-5.832.564-20.461.282-4.234.282-9.283.282-13.468.282-6.848.846 5.872.282 6.449.564 18.15.282 4.233.282 7.06 1.127 41.802.846 13.533.282-1.094.282-7.638.282-2.177.564 11.519.282.172.282.769.282 2.712.564 2.714.282 3.427 1.692 43.703.282 4.285.282-2.51.281-12.338 1.41-101.668.846-20.815.282 1.936.282 6.818.282-2.262.282-5.004.282 7.576.282 13.37.282 3.919.282-.254.282 4.823.282 2.62.282-7.021.564-19.23.282-7.16.282-3.778.282.161.281 1.31.282 4.438 2.256 71.167.564 14.612.282 10.875.282 6.295.282-2.405.282-1.352.564 13.066.564 3.805.564 10.802.282-2.252.282-10.734 1.127-62.573.282-2.247.282-3.218.282-6.49.282-2.13.282-.346.282-8.542.282-12.601.282-4.626.846 5.015.564 3.308.282.968.282-2.023.282-4.53.282-.9.564 8.601 1.128 24.531.845 35.325.282 5.262.564 20.416.282 1.067.564-9.04.282-1.263.282-2.968.282-1.07.282 9.523.282 13.995.282 4.365.282-2.892.282 2.945.282 5.661.282-3.716.846-32.29.846-27.487.281-5.131.564-17.054.564-22.819.846-47.71.282-4.757.564-2.656.282 1.17.564 3.467.282 7.014 1.128 67.424.564 41.139.282.517.282-4.49.282-1.222.564.227.281.52.282-1.38.282-8.196.564-22.474.282-1.186.282 3.873.282 8.862 1.692 79.744.282 5.546.564 30.206.282-4.95.564-27.328.282-28.937.564-76.15.564-33.886.281-22.53.282-11.895.282 1.384.282-.387.282-5.155.282.962.282 7.66.282.227.282-8.943.282-3.007.564 21.51.282 13.062.282 27.913.564 78.427.282 19.904.282 9.087.282 1.303.282-7.124.564-22.938.564-25.01.282-8.929.845-50.508.564-9.058.282 1.275.282 14.675.846 82.913.564 45.143.282 6.943.282-1.694.564-16.195.564-30.74 1.41-101.587.282-7.38.282-2.864.282 2.225.281 4.367.282 2.355.282-1.264.282-2.214.564-7.699.282-.917.846 8.365.282 5.346.564 14.09.282 5.47.282 3.258.282 4.897.846 32.44.846 12.907.564-10.226.282 1.25.281 3.072.282 1.25.564 6.579.282.76.282 3.6.282 9.407.282 5.174.282 3.07.564 15.72.282-3.444.564-13.22.282-5.76.846-39.744.564-20.96.282-2.038.564-6.342.282-10.669.282-2.491.281-10.754h0" clip-path="url(#p686536282c)" style="fill:none;stroke:#1f77b4;stroke-width:1.5;stroke-linecap:square"/><path id="patch_3" d="M71.308 266.112V0" style="fill:none;stroke:gray;stroke-width:.8;stroke-linejoin:miter;stroke-linecap:square"/><path id="patch_4" d="M685.107 266.112V0" style="fill:none;stroke:#000;stroke-width:.8;stroke-linejoin:miter;stroke-linecap:square"/><path id="patch_5" d="M71.308 266.112h613.8" style="fill:none;stroke:gray;stroke-width:.8;stroke-linejoin:miter;stroke-linecap:square"/><path id="patch_6" d="M71.308 0h613.8" style="fill:none;stroke:#000;stroke-width:.8;stroke-linejoin:miter;stroke-linecap:square"/></g></g><defs><clipPath id="p686536282c"><path d="M71.308 0h613.8v266.112h-613.8z"/></clipPath></defs></svg>