<svg xmlns="http://www.w3.org/2000/svg" xmlns:xlink="http://www.w3.org/1999/xlink" width="913.477" height="377.053" viewBox="0 0 685.107 282.79"><defs><style>*{stroke-linejoin:round;stroke-linecap:butt}</style></defs><g id="figure_1"><path id="patch_1" d="M0 282.79h685.107V0H0v282.79z" style="fill:none"/><g id="axes_1"><path id="patch_2" d="M71.308 266.112h613.8V0h-613.8v266.112z" style="fill:none"/><g id="matplotlib.axis_1"><g id="xtick_1"><g id="line2d_1"><defs><path id="mba1c31ee3d" d="M0 0v3.5" style="stroke:gray;stroke-width:.8"/></defs><use xlink:href="#mba1c31ee3d" x="99.207" y="266.112" style="fill:gray;stroke:gray;stroke-width:.8"/></g><g id="text_1" style="fill:gray" transform="matrix(.1 0 0 -.1 96.026 280.71)"><defs><path id="DejaVuSans-30" d="M2034 4250q-487 0-733-480-245-479-245-1442 0-959 245-1439 246-480 733-480 491 0 736 480 246 480 246 1439 0 963-246 1442-245 480-736 480zm0 500q785 0 1199-621 414-620 414-1801 0-1178-414-1799Q2819-91 2034-91q-784 0-1198 620-414 621-414 1799 0 1181 414 1801 414 621 1198 621z" transform="scale(.01563)"/></defs><use xlink:href="#DejaVuSans-30"/></g></g><g id="xtick_2"><use xlink:href="#mba1c31ee3d" id="line2d_2" x="168.958" y="266.112" style="fill:gray;stroke:gray;stroke-width:.8"/><g id="text_2" style="fill:gray" transform="matrix(.1 0 0 -.1 159.414 280.71)"><defs><path id="DejaVuSans-35" d="M691 4666h2478v-532H1269V2991q137 47 274 70 138 23 276 23 781 0 1237-428 457-428 457-1159 0-753-469-1171Q2575-91 1722-91q-294 0-599 50Q819 9 494 109v635q281-153 581-228t634-75q541 0 856 284 316 284 316 772 0 487-316 771-315 285-856 285-253 0-505-56-251-56-513-175v2344z" transform="scale(.01563)"/></defs><use xlink:href="#DejaVuSans-35"/><use xlink:href="#DejaVuSans-30" x="63.623"/><use xlink:href="#DejaVuSans-30" x="127.246"/></g></g><g id="xtick_3"><use xlink:href="#mba1c31ee3d" id="line2d_3" x="238.708" y="266.112" style="fill:gray;stroke:gray;stroke-width:.8"/><g id="text_3" style="fill:gray" transform="matrix(.1 0 0 -.1 225.982 280.71)"><defs><path id="DejaVuSans-31" d="M794 531h1031v3560L703 3866v575l1116 225h631V531h1031V0H794v531z" transform="scale(.01563)"/></defs><use xlink:href="#DejaVuSans-31"/><use xlink:href="#DejaVuSans-30" x="63.623"/><use xlink:href="#DejaVuSans-30" x="127.246"/><use xlink:href="#DejaVuSans-30" x="190.869"/></g></g><g id="xtick_4"><use xlink:href="#mba1c31ee3d" id="line2d_4" x="308.457" y="266.112" style="fill:gray;stroke:gray;stroke-width:.8"/><g id="text_4" style="fill:gray" transform="matrix(.1 0 0 -.1 295.733 280.71)"><use xlink:href="#DejaVuSans-31"/><use xlink:href="#DejaVuSans-35" x="63.623"/><use xlink:href="#DejaVuSans-30" x="127.246"/><use xlink:href="#DejaVuSans-30" x="190.869"/></g></g><g id="xtick_5"><use xlink:href="#mba1c31ee3d" id="line2d_5" x="378.207" y="266.112" style="fill:gray;stroke:gray;stroke-width:.8"/><g id="text_5" style="fill:gray" transform="matrix(.1 0 0 -.1 365.483 280.71)"><defs><path id="DejaVuSans-32" d="M1228 531h2203V0H469v531q359 372 979 998 621 627 780 809 303 340 423 576 121 236 121 464 0 372-261 606-261 235-680 235-297 0-627-103-329-103-704-313v638q381 153 712 231 332 78 607 78 725 0 1156-363 431-362 431-968 0-288-108-546-107-257-392-607-78-91-497-524-418-433-1181-1211z" transform="scale(.01563)"/></defs><use xlink:href="#DejaVuSans-32"/><use xlink:href="#DejaVuSans-30" x="63.623"/><use xlink:href="#DejaVuSans-30" x="127.246"/><use xlink:href="#DejaVuSans-30" x="190.869"/></g></g><g id="xtick_6"><use xlink:href="#mba1c31ee3d" id="line2d_6" x="447.957" y="266.112" style="fill:gray;stroke:gray;stroke-width:.8"/><g id="text_6" style="fill:gray" transform="matrix(.1 0 0 -.1 435.233 280.71)"><use xlink:href="#DejaVuSans-32"/><use xlink:href="#DejaVuSans-35" x="63.623"/><use xlink:href="#DejaVuSans-30" x="127.246"/><use xlink:href="#DejaVuSans-30" x="190.869"/></g></g><g id="xtick_7"><use xlink:href="#mba1c31ee3d" id="line2d_7" x="517.707" y="266.112" style="fill:gray;stroke:gray;stroke-width:.8"/><g id="text_7" style="fill:gray" transform="matrix(.1 0 0 -.1 504.983 280.71)"><defs><path id="DejaVuSans-33" d="M2597 2516q453-97 707-404 255-306 255-756 0-690-475-1069Q2609-91 1734-91q-293 0-604 58T488 141v609q262-153 574-231 313-78 654-78 593 0 904 234t311 681q0 413-289 645-289 233-804 233h-544v519h569q465 0 712 186t247 536q0 359-255 551-254 193-729 193-260 0-557-57-297-56-653-174v562q360 100 674 150t592 50q719 0 1137-327 419-326 419-882 0-388-222-655t-631-370z" transform="scale(.01563)"/></defs><use xlink:href="#DejaVuSans-33"/><use xlink:href="#DejaVuSans-30" x="63.623"/><use xlink:href="#DejaVuSans-30" x="127.246"/><use xlink:href="#DejaVuSans-30" x="190.869"/></g></g><g id="xtick_8"><use xlink:href="#mba1c31ee3d" id="line2d_8" x="587.457" y="266.112" style="fill:gray;stroke:gray;stroke-width:.8"/><g id="text_8" style="fill:gray" transform="matrix(.1 0 0 -.1 574.732 280.71)"><use xlink:href="#DejaVuSans-33"/><use xlink:href="#DejaVuSans-35" x="63.623"/><use xlink:href="#DejaVuSans-30" x="127.246"/><use xlink:href="#DejaVuSans-30" x="190.869"/></g></g><g id="xtick_9"><use xlink:href="#mba1c31ee3d" id="line2d_9" x="657.207" y="266.112" style="fill:gray;stroke:gray;stroke-width:.8"/><g id="text_9" style="fill:gray" transform="matrix(.1 0 0 -.1 644.482 280.71)"><defs><path id="DejaVuSans-34" d="M2419 4116 825 1625h1594v2491zm-166 550h794V1625h666v-525h-666V0h-628v1100H313v609l1940 2957z" transform="scale(.01563)"/></defs><use xlink:href="#DejaVuSans-34"/><use xlink:href="#DejaVuSans-30" x="63.623"/><use xlink:href="#DejaVuSans-30" x="127.246"/><use xlink:href="#DejaVuSans-30" x="190.869"/></g></g></g><g id="matplotlib.axis_2"><g id="ytick_1"><g id="line2d_10"><defs><path id="mbfaed82ccf" d="M0 0h-3.5" style="stroke:gray;stroke-width:.8"/></defs><use xlink:href="#mbfaed82ccf" x="71.308" y="240.376" style="fill:gray;stroke:gray;stroke-width:.8"/></g><g id="text_10" style="fill:gray" transform="matrix(.16 0 0 -.16 0 246.455)"><defs><path id="DejaVuSans-2212" d="M678 2272h4006v-531H678v531z" transform="scale(.01563)"/></defs><use xlink:href="#DejaVuSans-2212"/><use xlink:href="#DejaVuSans-32" x="83.789"/><use xlink:href="#DejaVuSans-30" x="147.412"/><use xlink:href="#DejaVuSans-30" x="211.035"/><use xlink:href="#DejaVuSans-30" x="274.658"/><use xlink:href="#DejaVuSans-30" x="338.281"/></g></g><g id="ytick_2"><use xlink:href="#mbfaed82ccf" id="line2d_11" x="71.308" y="191.954" style="fill:gray;stroke:gray;stroke-width:.8"/><g id="text_11" style="fill:gray" transform="matrix(.16 0 0 -.16 0 198.033)"><use xlink:href="#DejaVuSans-2212"/><use xlink:href="#DejaVuSans-31" x="83.789"/><use xlink:href="#DejaVuSans-30" x="147.412"/><use xlink:href="#DejaVuSans-30" x="211.035"/><use xlink:href="#DejaVuSans-30" x="274.658"/><use xlink:href="#DejaVuSans-30" x="338.281"/></g></g><g id="ytick_3"><use xlink:href="#mbfaed82ccf" id="line2d_12" x="71.308" y="143.532" style="fill:gray;stroke:gray;stroke-width:.8"/><use xlink:href="#DejaVuSans-30" id="text_12" style="fill:gray" transform="matrix(.16 0 0 -.16 54.127 149.61)"/></g><g id="ytick_4"><use xlink:href="#mbfaed82ccf" id="line2d_13" x="71.308" y="95.11" style="fill:gray;stroke:gray;stroke-width:.8"/><g id="text_13" style="fill:gray" transform="matrix(.16 0 0 -.16 13.408 101.189)"><use xlink:href="#DejaVuSans-31"/><use xlink:href="#DejaVuSans-30" x="63.623"/><use xlink:href="#DejaVuSans-30" x="127.246"/><use xlink:href="#DejaVuSans-30" x="190.869"/><use xlink:href="#DejaVuSans-30" x="254.492"/></g></g><g id="ytick_5"><use xlink:href="#mbfaed82ccf" id="line2d_14" x="71.308" y="46.688" style="fill:gray;stroke:gray;stroke-width:.8"/><g id="text_14" style="fill:gray" transform="matrix(.16 0 0 -.16 13.408 52.766)"><use xlink:href="#DejaVuSans-32"/><use xlink:href="#DejaVuSans-30" x="63.623"/><use xlink:href="#DejaVuSans-30" x="127.246"/><use xlink:href="#DejaVuSans-30" x="190.869"/><use xlink:href="#DejaVuSans-30" x="254.492"/></g></g></g><path id="line2d_15" d="m99.207 143.553.846-.042.846.043.846-.044.846.045.846-.047.846.05.846-.053.846.056.282-.06.281.062.282-.063.282.065.282-.068.282.071.282-.074.282.078.282-.082.282.086.282-.09.282.095.282-.102.282.11.282-.118.282.128.282-.14.282.155.282-.175.282.2.282-.234.282.283.282-.36.282.497.282-.81.282 2.384.281 4.383.282-1.918.282-.04.282-.84.282 1.274.564 5.184 1.128 3.912.282.018.282-.313.282.252.282 1.807.846 8.995.282-.821.846-17.134.282-6.497 1.127-41.542.564-9.272.282.062.564 8.21.564 15.119.564 15.329.846 14.086.564 3.909.564 2.365.846.9.282-1.07.564-3.592.564-1.407.281-1.257.564-3.66.282.114.564 3.278.282.536.282 2.473.564 11.266.282 2.037.282-.209.282.802.564 4.063.282.65.282.146.282-.45.282-1.718.564-6.167.282-6.403.564-24.133.563-24.1.564-13.75.282-2.163.282.515.282 4.027 1.128 30.237.564 22.798.282 5.718.282 1.897.564 6.776.282-1.104.564-9.181.564-.456.282-1.92.282-.864.564 4.456.282.14.281-1.144.282.195.564 3.04.282.24.282.733.564 3.035.282-.018.282.512.282 1.385.282-.435.282-2.76.282-1.14.846 8.438.564 2.424.282-.536.282-3.434.282-5.084.282-7.545 1.41-55.584.281-6.33.282-1.275.282 1.929.282 2.808.282 5.26 1.41 41.031.564 9.067.282 3.37.282 2.033.282.58.282 1.456.564 6.703.282 1.186.282-.335.282-1.291.563-4.478.564-.914.564-4.846.282-.364.282.987.564.443.564 3.717.564.707.564 2.915.564.55.282 1.007.282 2.05.564 7.599.282 1.34.282-3.194.846-15.748 1.41-56.488.281-7.76.282-3.11.282 1.299.282 3.369.282 5.48 1.128 36.431.564 15.96.564 7.568.282 3.01.282 1.64.846 2.228.282-.997.282-1.597.281-.803.282-.391.282-1.137.564-2.805.564-.752.282-.228.282.41 1.128 3.85.282-.535.564-4.56.282 2.203.564 8.646.282.968.282.504.282.94.282-.476.282-3.207.282-5.444.282-7.594.563-23.956.564-27.116.282-9.79.282-5.421.282-.767.282 2.965.564 12.344.564 18.428.846 29.261.564 7.928.564 4.443.564 3.062.282.927.282.058.282-.27.563.375.282-.435.564-1.932.282-.52.564-.295.282-.828.564-3.21.282-.009.282.76.282.425.282.838.282 2.574.564 6.417.564 3.512.564 5.989.282 1.4.282-.775.282-2.961.282-5.734.281-9.493.564-29.412.846-43.373.282-7.73.282-2.822.282 1.342.282 4.183.282 6.84.846 32.848.564 20.735.282 6.263 1.128 12.584.282-1.387.282-.114.564 5.526.282.94.281-.83.846-5.654.564-2.007.282-.165.282.903h.282l.282-1.398.282-.458 1.128 6.65.282 1.994.282 1.14.282.593.282 1.31.564 3.195.282 1.335.846 8.687.281.245.282-2.734.282-6.578.564-23.742 1.128-63.953.564-12.34.282-2.737.282 3.754.564 25.643.846 35.373.846 20.796.282 5.553 1.127 8.69.282-1.981.282-3.833.282-2.158.282-.33.564.105.282-.453.846-4.546.282.609.282.884.282.508.564.196.282.786.564 2.632.564 3.255.282-1.673.282-4.495.282-1.944.564 7.68.281 1.142.282.547.282 2.57.282 1.458.282-3.546.282-8.519.564-26.665.846-40.98.282-9.418.282-4.791.282-.777.282 1.69.282 6.299 1.41 62.262.564 11.98.564 5.989.281 1.723.282-.285.564-2.036.282-.708.564-.898.564-2.888.282-.53.282-.279.564-2.036.282.654 1.128 5.95.282 1.696 1.128 3.529.282 1.753.564 6.334.563 6.684.282.947.282-1.09.282-3.135.282-6.702.564-26.83 1.128-59.505.282-8.245.282-2.3.282.788.282 2.209.282 5.346 1.974 69.202.563 8.208.564 4.55.282 1.037.282-.027.564-1.955.282-.352.282-.652.564-2.956.282-.364.564-1.636.282 1.682.282 3.907.282 1.883.282-1.308.282-.365.564 6.314.282.987.282.086.282 1.21.563 3.674.282 3.282.564 9.677.282 1.539.282-1.14.282-2.914.282-6.15.282-11.94 1.692-101.566.282-8.399.282-1.294.282 4.092.564 14.366.564 28.473.564 29.04 1.127 23.36.564 3.84.564 8.638.282-.27.282-3.06.282-.804.282 1.257.282-.808.564-6.133.846-1.865.282.68 1.128 14.344.564 2.374.282.483.282 1.168 1.127 10.877.282 4.526.282 1.99.282-3.42.846-20.776.564-33.168 1.128-66.7.282-9.788.282-5.299.282-2.567.282 1.131.282 6.752.564 27.155.845 44.078.564 22.553.282 6.65.564 5.693.282 1.64.564 1.986.282 1.592.282.86.564-1.065.282.197.282-.153.846-3.33.282.597.564 4.095.282-.815.282-2.606.282-1.219.282.797.282 1.307.281 2.237.846 12.59.282-.291.282-1.544.282-2.534.282-5.262.282-9.387.564-29.55 1.128-64.786.282-8.414.282-2.878.282-.205.282 1.502.282 6.167.564 28.253.846 41.3.563 16.692.564 10.755.282 1.378.282-.988.282.015.564 3.427.564-1.46.282 2.085.282 4.156.282 2.514.564-.648.564 3.188.282-1.12.282-1.93.282-.226.564 2.258.282 2.19 1.127 15.287.282.016.282-2.478.282-5.098.282-8.484.564-29.322 1.41-88.659.564-20.517.282-4.36.282 1.72.282 7.413.564 29.078 1.128 66.126.563 21.582.564 13.96.282 2.576.282 1.111.282 1.808.282.845.282-2.381.282-3.659.282-1.503.282.382.282.093.282-.097 1.128 3.638 1.128 7.546.564 3.965.282 3.228.845 15.038.282.483.282-4.207.564-21.282.564-29.568.564-45.95.564-48.93.564-31.742.282-9.566.282-.392.564 22.624.564 22.732 1.692 94.07.563 11.627.564 5.052.282.982.282.059.282-.487.282-.024.282.734.282.323.564-1.18.282.155.282.386.282.698.846 3.795.282 1.375 2.255 25.664.564 8.386.282-.943.282-4.451.282-6.298.282-11.637.564-46.358 1.41-117.297.282-10.617.282-1.993.282 4.59.564 17.266.564 26.14 1.41 84.584.563 18.778.564 5.333.282 2.33.282.894.282-.552.282.11.282.727.564-.184.282.862.282-.27.282-2.162.282-.707.846 6.558.282 2.32.564 9.186.282 1.365.282.536.282 3.013.563 9.279.282 1.215.282-.832.564-2.834.282-4.342.282-9.68.564-34.656 1.692-122.672.282-7.756.282-1.17.282 4.631.282 8.54.564 28.053 1.127 70.634.564 20.479.564 11.24.564 4.541.846 6.33.282 1.071.846 4.509.282.11.282.738.282 1.424.282.159.282-1.807.282-.809.846 7.28.282.973.282 6.418.563 16.654.846 4.48.282-2.775.282-9.973.564-32.892.846-68.764.846-63.178.282-12.316.282-5.214.282 2.04.846 20.866.282 10.726 1.973 106.564.564 14.816.282 3.822.282-1.798.282-4.803.282-2.737.282.78.282 1.642.282.277.282-.18.282 1.222.564 4.352.564 2.323 1.692 14.615.563 7.786.846 19.07.282 1.1.282-5.06.282-10.29.564-34.873 1.41-126.787.282-18.926.282-10.339.282 2.046.564 13.95.282 2.68.282 5.315.564 23.898 1.691 89.347.282 7.611.564 5.027.282 4.342.282 2.41.282-1.552.282-.8.564 9.173.282 1.084.282-1.742.282.214.564 5.275.564 2.61.564 5.157.846 8.984.282 4.945.563 13.651.282 4.32.282 1.57.282-1.128.282-5.592.282-12.43.564-43.818 1.41-124.223.282-12.113.282-4.923.282.111 1.128 16.884.282 9.886 1.127 59.124.564 37.182.564 17.549.564 11.44.282 1.412.282-.414.282.089.282.321.564-2.264.282 1.11.564 6.728.564 1.66.282 2.469.564 6.806.282 1.419.282.403.282 1.533.564 9.471.845 15.071.282 2.006.282-1.736.282-5.573.282-9.843.564-34.947 1.692-137.568.282-7.856.282-3.435.282-.317.282 3.496.564 15.07.564 22.446 1.41 80.58.281 10.178.846 16.58.282 5.014.282 2.898.282 1.409.282 2.418.564 7.855.564 4.607.564 6.88.282.596.282.922.564 6.943.564 11.355.282 5.99.282 2.636.281-.024.282-1.402.282-4.726.282-10.034.564-35.025 1.41-127.916.282-12.93.282-4.57.282-.657.564-2.992.282.847.282 4.378.846 21.314.282 10.206 1.41 71.287.563 21.554.564 12.467.846 16.279.282 5.799.282 3.34.282 1.77.282 3.436.564 8.755.282.15.282-.704.282 1.405.564 7.54.282 4.587 1.128 25.173.282-2.235.281-6.022.282-11.963.564-43.626 1.41-136.827.564-24.542.282-7.723.282-1.984.282-.18.282.906.282 5.574.846 28.761.564 18.748.846 37.28.564 23.476.563 23.659 1.128 29.323.564 9.756.564 7.234.846 23.08.282-.15.282.268.564 5.224.282.704.282 2.1.282 6.239.564 16.69.282 2.948.282-4.034.282-11.818.563-41.94 1.692-159.042.282-11.844.282-7.068.282-3.747.282-1.624.282 1.893.564 14.665 1.128 38.497 2.255 96.263.282 6.862.282 3.538.282.533.282 1.882.564 7.788.282.481.282 2.135 1.128 21.76.564 14.043.564 8.65.846 19.853.282.57.282-4.959.282-8.322.282-13.185.563-53.121.846-94.916.564-36.214.282-7.293.282-3.702.282-1.571.282.338.282 2.287.564 9.96.564 14.756.846 32.038 1.41 63.86.564 14.575.563 9.577 1.41 27.193.564 1.433.564 7.467.282.99.282 3.184.564 14.766.282 3.077.282 1.294.282.147.282-5.861.282-14.778.564-47.538.846-95.068.281-15.25.564-12.949.282-1.861.282-.763.282-2.388.282-1.356.282 3.767 1.128 26.861 1.692 71.15.564 17.247.564 12.704.564 19.402 1.41 27.853.281.312.282-.088.282 1.85.282 3.992.846 15.387.282.938.282-2.813.282-8.829.282-17.09.564-55.312.846-88.217.282-13.655.282-6.495.564-4.81.282-1.735.282-.263.281 3.772 1.692 45.7 1.974 59.741.564 10.014.846 10.835.564 5.714 1.128 15.367.282 2.597.845 11.11.282 3.277 1.692 37.13.282-.547.282-7.324.282-14.75.564-55.622.846-92.408.282-15.832.564-15.567.282-5.5.282-1.795.282 3.708.563 11.143.282 4.609.564 15.598 1.128 35.387.846 28.65.564 14.274 1.128 16.85.282 2.013.282-.515.282-1.49.282.591.564 5.835.282.931.282 1.386.845 9.554.846 12.807.282 3.275.564 17.772.564 13.62.282 4.684.282 1.56.282-5.725.282-13.037.282-19.261.564-61.792.564-53.977.564-22.921.282-7.723.282-3.735.564-2.42.281 1.412 1.128 22.994 1.692 53.211 1.692 34.62.564 6.057 1.41 14.547.563 7.531.846 7.206.282 3.257.564 12.366.564 12.874.282 3.9.282-1.09.282-8.1.564-31.76 1.128-96.53.846-26.983.282-3.194.282 1.059.282 1.586.282.269.281 1.495.282 5.52.564 14.132.282 5.865 1.41 42.82.564 13.644.846 11.186.564 5.797.564 5.187.564 4.71.846 5.455.282.957.282 2.783 1.691 32.186.282 2.394.282-.756.282-4.866.282-10.776.564-41 .564-46.606.564-24.15.564-17.054.282-2.62.282-.107.564-2.46.282 3.087 1.127 25.463.846 25.226.846 20.486.564 11.953.564 6.84.846 7.299.282 1.027.564-2.608.282 1.478.282 2.632.564 3.474.564 9.129.564 3.096.845 11.655.846 16.073.282-2.555.282-9.8.564-37.628.564-39.765.564-27.979.282-8.715.564-9.141.282-2.641.282-.163.282 1.979.282 3.282 1.128 20.398 1.127 28.487.564 13.703 1.128 11.91.282 2.02.282.888.282-.699.282-1.278.282.162.846 4.35.846 9.578.282 1.299 1.127 12.494.846 22.796.564 9.581.282-1.174.282-10.128.564-36.519.846-61.229.564-17.803.564-9.987.282-1.806.282-.789.282 1.018.846 9.69.282 6.892.564 18.332.281 5.732 1.128 15.15.282 5.379.564 6.108.564 11.02.282 1.063.282-.634.282 1.582.564 4.365.282 1.864.846 8.413.564 5.4.564 2.675.282 4.514.563 12.537.282 2.582.282-.077.282-2.495.282-7.187.564-33.773.564-34.677.846-35.712.282-5.496.564-4.993.282-.564.282 3.013.564 16.264.564 14.23.846 16.462.563 7.23 1.128 21.443.564 9.338.564 5.453 1.128 6.845.282.893.282.448.564 1.786.282.285.282 1.887.846 14.78.282 1.238.282.383.282-2.02.282-7.423 1.973-87.752.564-9.927.282-1.533.282 1.282.846 9.451.846 16.574.846 17.073.564 8.92.282 4.697.845 8.62.282.494.564-8.194.282.917.282 2.313.564-1.477.282 4.018.564 14.835.282 2.705.282.523.282.908.564 3.27.282 2.744.846 12.795.282-.36.282-4.103.282-8.54.846-41.316.563-28.07.282-7.29.282-.978.282.823.282-.174.282.754.564 5.506.282.487.282 1.028.282 4.152.846 15.804.564 7.462.282.052.282-.782.282 2.172.564 10.698.282 1.586.282-.604.282.295.281 1.077.282-.786.282-2.511.282-.728.564 5.286.282 1.224.282 2.666.564 13.472.282 2.07.564-6.11.282-.143.282 3.644.564 10.937.282 3.02.282.816.282-2.504.282-7.975.846-35.349.845-28.767.282-5.556.282-2.826.282-1.437.282-.4.282 1.613.282 4.95.564 12.114.564 2.832.564 6.497.564 2.26 1.128 11.554.282 1.888.564 5.858.282.147.282-.814.563.035.282-1.112.282-.069.282 2.963.564 7.22.282 2.13.282 1.28.564-1.03.564 4.627.282.1.282-.184.282 3.796.282 5.662.282 1.487.282-4.19.564-16.384.564-18.374.846-18.405.281-2.93.564-2.273.282.011.564 2.482.282 1.868.846 10.82.282.41.282 1.984.564 8.864.564 2.373.282 3.762.282 5.304.282 2.86.282-.207.282.144.564 3.432.564-1.134.281.613.846 3.126.282.424.282-1.932.282-2.974.282-.934.564 3.127.282 2.044.282 4.688.564 13.35.282 1.163.282-3.574.564-15.39.846-28.792.564-11.909 1.127-10.047.282.722.846 13.726.564 9.158.564 4.575.846 9.707.846 5.58.564 3.966.282-.038.564-1.285.282-.234.282.453.564 2.101.845.815.282-.244.282.765 1.692 19.687.282-2.71 1.128-32.686.564-19.645.282-5.727.846-9.078.282 1.593.564 10.357.282 2.633.281 4.964h0" clip-path="url(#p2a55db1411)" style="fill:none;stroke:#1f77b4;stroke-width:1.5;stroke-linecap:square"/><path id="patch_3" d="M71.308 266.112V0" style="fill:none;stroke:gray;stroke-width:.8;stroke-linejoin:miter;stroke-linecap:square"/><path id="patch_4" d="M685.107 266.112V0" style="fill:none;stroke:#000;stroke-width:.8;stroke-linejoin:miter;stroke-linecap:square"/><path id="patch_5" d="M71.308 266.112h613.8" style="fill:none;stroke:gray;stroke-width:.8;stroke-linejoin:miter;stroke-linecap:square"/><path id="patch_6" d="M71.308 0h613.8" style="fill:none;stroke:#000;stroke-width:.8;stroke-linejoin:miter;stroke-linecap:square"/></g></g><defs><clipPath id="p2a55db1411"><path d="M71.308 0h613.8v266.112h-613.8z"/></clipPath></defs></svg>