<svg xmlns="http://www.w3.org/2000/svg" xmlns:xlink="http://www.w3.org/1999/xlink" width="913.477" height="377.053" viewBox="0 0 685.107 282.79"><defs><style>*{stroke-linejoin:round;stroke-linecap:butt}</style></defs><g id="figure_1"><path id="patch_1" d="M0 282.79h685.107V0H0v282.79z" style="fill:none"/><g id="axes_1"><path id="patch_2" d="M71.308 266.112h613.8V0h-613.8v266.112z" style="fill:none"/><g id="matplotlib.axis_1"><g id="xtick_1"><g id="line2d_1"><defs><path id="m64eb53ff1f" d="M0 0v3.5" style="stroke:gray;stroke-width:.8"/></defs><use xlink:href="#m64eb53ff1f" x="99.207" y="266.112" style="fill:gray;stroke:gray;stroke-width:.8"/></g><g id="text_1" style="fill:gray" transform="matrix(.1 0 0 -.1 96.026 280.71)"><defs><path id="DejaVuSans-30" d="M2034 4250q-487 0-733-480-245-479-245-1442 0-959 245-1439 246-480 733-480 491 0 736 480 246 480 246 1439 0 963-246 1442-245 480-736 480zm0 500q785 0 1199-621 414-620 414-1801 0-1178-414-1799Q2819-91 2034-91q-784 0-1198 620-414 621-414 1799 0 1181 414 1801 414 621 1198 621z" transform="scale(.01563)"/></defs><use xlink:href="#DejaVuSans-30"/></g></g><g id="xtick_2"><use xlink:href="#m64eb53ff1f" id="line2d_2" x="168.958" y="266.112" style="fill:gray;stroke:gray;stroke-width:.8"/><g id="text_2" style="fill:gray" transform="matrix(.1 0 0 -.1 159.414 280.71)"><defs><path id="DejaVuSans-35" d="M691 4666h2478v-532H1269V2991q137 47 274 70 138 23 276 23 781 0 1237-428 457-428 457-1159 0-753-469-1171Q2575-91 1722-91q-294 0-599 50Q819 9 494 109v635q281-153 581-228t634-75q541 0 856 284 316 284 316 772 0 487-316 771-315 285-856 285-253 0-505-56-251-56-513-175v2344z" transform="scale(.01563)"/></defs><use xlink:href="#DejaVuSans-35"/><use xlink:href="#DejaVuSans-30" x="63.623"/><use xlink:href="#DejaVuSans-30" x="127.246"/></g></g><g id="xtick_3"><use xlink:href="#m64eb53ff1f" id="line2d_3" x="238.708" y="266.112" style="fill:gray;stroke:gray;stroke-width:.8"/><g id="text_3" style="fill:gray" transform="matrix(.1 0 0 -.1 225.982 280.71)"><defs><path id="DejaVuSans-31" d="M794 531h1031v3560L703 3866v575l1116 225h631V531h1031V0H794v531z" transform="scale(.01563)"/></defs><use xlink:href="#DejaVuSans-31"/><use xlink:href="#DejaVuSans-30" x="63.623"/><use xlink:href="#DejaVuSans-30" x="127.246"/><use xlink:href="#DejaVuSans-30" x="190.869"/></g></g><g id="xtick_4"><use xlink:href="#m64eb53ff1f" id="line2d_4" x="308.457" y="266.112" style="fill:gray;stroke:gray;stroke-width:.8"/><g id="text_4" style="fill:gray" transform="matrix(.1 0 0 -.1 295.733 280.71)"><use xlink:href="#DejaVuSans-31"/><use xlink:href="#DejaVuSans-35" x="63.623"/><use xlink:href="#DejaVuSans-30" x="127.246"/><use xlink:href="#DejaVuSans-30" x="190.869"/></g></g><g id="xtick_5"><use xlink:href="#m64eb53ff1f" id="line2d_5" x="378.207" y="266.112" style="fill:gray;stroke:gray;stroke-width:.8"/><g id="text_5" style="fill:gray" transform="matrix(.1 0 0 -.1 365.483 280.71)"><defs><path id="DejaVuSans-32" d="M1228 531h2203V0H469v531q359 372 979 998 621 627 780 809 303 340 423 576 121 236 121 464 0 372-261 606-261 235-680 235-297 0-627-103-329-103-704-313v638q381 153 712 231 332 78 607 78 725 0 1156-363 431-362 431-968 0-288-108-546-107-257-392-607-78-91-497-524-418-433-1181-1211z" transform="scale(.01563)"/></defs><use xlink:href="#DejaVuSans-32"/><use xlink:href="#DejaVuSans-30" x="63.623"/><use xlink:href="#DejaVuSans-30" x="127.246"/><use xlink:href="#DejaVuSans-30" x="190.869"/></g></g><g id="xtick_6"><use xlink:href="#m64eb53ff1f" id="line2d_6" x="447.957" y="266.112" style="fill:gray;stroke:gray;stroke-width:.8"/><g id="text_6" style="fill:gray" transform="matrix(.1 0 0 -.1 435.233 280.71)"><use xlink:href="#DejaVuSans-32"/><use xlink:href="#DejaVuSans-35" x="63.623"/><use xlink:href="#DejaVuSans-30" x="127.246"/><use xlink:href="#DejaVuSans-30" x="190.869"/></g></g><g id="xtick_7"><use xlink:href="#m64eb53ff1f" id="line2d_7" x="517.707" y="266.112" style="fill:gray;stroke:gray;stroke-width:.8"/><g id="text_7" style="fill:gray" transform="matrix(.1 0 0 -.1 504.983 280.71)"><defs><path id="DejaVuSans-33" d="M2597 2516q453-97 707-404 255-306 255-756 0-690-475-1069Q2609-91 1734-91q-293 0-604 58T488 141v609q262-153 574-231 313-78 654-78 593 0 904 234t311 681q0 413-289 645-289 233-804 233h-544v519h569q465 0 712 186t247 536q0 359-255 551-254 193-729 193-260 0-557-57-297-56-653-174v562q360 100 674 150t592 50q719 0 1137-327 419-326 419-882 0-388-222-655t-631-370z" transform="scale(.01563)"/></defs><use xlink:href="#DejaVuSans-33"/><use xlink:href="#DejaVuSans-30" x="63.623"/><use xlink:href="#DejaVuSans-30" x="127.246"/><use xlink:href="#DejaVuSans-30" x="190.869"/></g></g><g id="xtick_8"><use xlink:href="#m64eb53ff1f" id="line2d_8" x="587.457" y="266.112" style="fill:gray;stroke:gray;stroke-width:.8"/><g id="text_8" style="fill:gray" transform="matrix(.1 0 0 -.1 574.732 280.71)"><use xlink:href="#DejaVuSans-33"/><use xlink:href="#DejaVuSans-35" x="63.623"/><use xlink:href="#DejaVuSans-30" x="127.246"/><use xlink:href="#DejaVuSans-30" x="190.869"/></g></g><g id="xtick_9"><use xlink:href="#m64eb53ff1f" id="line2d_9" x="657.207" y="266.112" style="fill:gray;stroke:gray;stroke-width:.8"/><g id="text_9" style="fill:gray" transform="matrix(.1 0 0 -.1 644.482 280.71)"><defs><path id="DejaVuSans-34" d="M2419 4116 825 1625h1594v2491zm-166 550h794V1625h666v-525h-666V0h-628v1100H313v609l1940 2957z" transform="scale(.01563)"/></defs><use xlink:href="#DejaVuSans-34"/><use xlink:href="#DejaVuSans-30" x="63.623"/><use xlink:href="#DejaVuSans-30" x="127.246"/><use xlink:href="#DejaVuSans-30" x="190.869"/></g></g></g><g id="matplotlib.axis_2"><g id="ytick_1"><g id="line2d_10"><defs><path id="m628c200de2" d="M0 0h-3.5" style="stroke:gray;stroke-width:.8"/></defs><use xlink:href="#m628c200de2" x="71.308" y="243.46" style="fill:gray;stroke:gray;stroke-width:.8"/></g><g id="text_10" style="fill:gray" transform="matrix(.16 0 0 -.16 0 249.539)"><defs><path id="DejaVuSans-2212" d="M678 2272h4006v-531H678v531z" transform="scale(.01563)"/></defs><use xlink:href="#DejaVuSans-2212"/><use xlink:href="#DejaVuSans-32" x="83.789"/><use xlink:href="#DejaVuSans-30" x="147.412"/><use xlink:href="#DejaVuSans-30" x="211.035"/><use xlink:href="#DejaVuSans-30" x="274.658"/><use xlink:href="#DejaVuSans-30" x="338.281"/></g></g><g id="ytick_2"><use xlink:href="#m628c200de2" id="line2d_11" x="71.308" y="194.168" style="fill:gray;stroke:gray;stroke-width:.8"/><g id="text_11" style="fill:gray" transform="matrix(.16 0 0 -.16 0 200.247)"><use xlink:href="#DejaVuSans-2212"/><use xlink:href="#DejaVuSans-31" x="83.789"/><use xlink:href="#DejaVuSans-30" x="147.412"/><use xlink:href="#DejaVuSans-30" x="211.035"/><use xlink:href="#DejaVuSans-30" x="274.658"/><use xlink:href="#DejaVuSans-30" x="338.281"/></g></g><g id="ytick_3"><use xlink:href="#m628c200de2" id="line2d_12" x="71.308" y="144.876" style="fill:gray;stroke:gray;stroke-width:.8"/><use xlink:href="#DejaVuSans-30" id="text_12" style="fill:gray" transform="matrix(.16 0 0 -.16 54.127 150.955)"/></g><g id="ytick_4"><use xlink:href="#m628c200de2" id="line2d_13" x="71.308" y="95.584" style="fill:gray;stroke:gray;stroke-width:.8"/><g id="text_13" style="fill:gray" transform="matrix(.16 0 0 -.16 13.408 101.663)"><use xlink:href="#DejaVuSans-31"/><use xlink:href="#DejaVuSans-30" x="63.623"/><use xlink:href="#DejaVuSans-30" x="127.246"/><use xlink:href="#DejaVuSans-30" x="190.869"/><use xlink:href="#DejaVuSans-30" x="254.492"/></g></g><g id="ytick_5"><use xlink:href="#m628c200de2" id="line2d_14" x="71.308" y="46.292" style="fill:gray;stroke:gray;stroke-width:.8"/><g id="text_14" style="fill:gray" transform="matrix(.16 0 0 -.16 13.408 52.37)"><use xlink:href="#DejaVuSans-32"/><use xlink:href="#DejaVuSans-30" x="63.623"/><use xlink:href="#DejaVuSans-30" x="127.246"/><use xlink:href="#DejaVuSans-30" x="190.869"/><use xlink:href="#DejaVuSans-30" x="254.492"/></g></g></g><path id="line2d_15" d="m99.207 144.874 7.895.02.846-.04.846.049.282-.055.282.059.282-.064.282.07.282-.076.282.083.282-.093.282.105.282-.12.282.14.282-.166.282.204.282-.266.282.38.282-.638.845 16.675.282 2.994.564 2.228.282.641.282.055.564-2.615.564.791.282-.93.282-.368.282.354.282-1.277.564-6.587.282-2.726.846-16.395.282 1.029.282-.01.282-1.995.282 1.09.563 8.074.282-.1.282-.525.564.906.282.934.282 1.89.282.954.282-.566.282-.075.282 1.087.282.12.282-.419.282 1.901.282 3.911.282 1.807.564-2.87.282.345.282.63.282-.243.282-.435.282.13.282.515.563 2.038.282.1.282-1.077.282-.278.282 2.295.564 7.825 1.128 9.21.564 6.563.282 1.137.564-1.519.564 2.663.282-1.63.564-12.8.564-17.628 1.973-87.293.282-4.564.282-1.6.282-.263.282 3.335.282 10.081.564 27.763 1.128 36.303.564 10.54.846 9.574.282 1.653.564-.436.564 3.208h.281l.282-1.008.282-.09.564 1.51.564.17.282.753.282 1.589.564 4.47.282 1.378.282.81.846 3.777.282.367.282.82 1.128 4.993.282 1.543.282.302.282-.396.281-.983.282-2.562.564-9.51.282-7.277.564-24.982.846-37.255.564-20.051.282-4.536.282-.862.282.395.282.816.282 2.53.282 5.462.846 26.937 1.128 38.638 2.255 26.656.564 3.525.282.128.282-1.08.282-.552.564.81.282-.767.282-2.36.564-11.44.282-5.795.282-2.831.282-.222.282 1.15.282 1.98.845 9.165.282.23.282-1.832.282-.815.564 3.047.282-.822.846-6.21.282-7.986 1.128-46.528.564-19.588.846-14.563.282-1.326.564 2.766.282 3.187.282 9.508.563 27.436 1.128 36.891.564 10.254.564 6.214.282.31.846-5.137.282-.052.282-1.26.564-3.901.282.316.282.677.282-1.124.564-5.734.282.885.564 5.764.281.22.282-.092.282.457.282-.261 1.41-7.01.564 2.317.282-.98.282-2.856.282-1.669.564 1.334.564-2.634.282.113.846 3.118.282.232.282-1.102.563-4.106.282-.255.282 1.963.564 5.805.846 2.56.564.734.282 1.962.564 6.393.282 1.754.282 2.788.846 13.632.564 5.18.282 1.167.564-.01.564 2.298.281-.466.846-4.574.282-6.274.846-37.002 1.128-65.744.846-24.356.282-4.23.282.212.564 8.06.282 7.162.846 36.276.282 4.294.282 6.304.563 16.359.282 4.538.846 25.61 1.128 6.919.282-.084.282 1.079.282 2.106.282.73.282-.348.282.58.282.923.564-.66.282 1.473.564 5.052.564 1.955.845 4.972.564 1.864.564 2.531.846 9.327.282-.757.282-2.062.282-2.911.282-5.65.564-20.073.846-40.438.846-38.547.846-29.574.282-6.844.282-2.377.281 1.673.282 4.376.282 7.015.564 22.856 1.128 51.944.846 24.072.564 5.882.564 5.42 1.128 5.773.282.093.564 1.004.282-.628.282-.12.563 3.954.564-.21.564 4.133.282.266.282.495.282 2.655 1.128 16.5.282.292.282-4.609.564-20.575.846-39.171.846-37.449 1.127-42.432.282-7.955.282-3.376.282 1.277.282 4.394.282 7.317.846 33.882.846 34.399.846 20.804.564 10.15.282 2.981 1.41 7.265.564 1.282.282.87.281 1.49.282 3.882.282 5.61.282 2.937.282-1.31.282-.626.564 6.54.282 1.08.282 3.17.564 13.008.282 1.634.564 1.348.282-2.154.564-10.004.282-8.517 2.537-129.358.282-6.421.564-5.858.282-.642.282 2.217.282 5.926.564 22.897 1.128 48.129.564 15.18.282 5.444.282 2.922.282-.428.282-1.01.282-.108.282-1.24.564-5.476.563-2.551.282-.08.846 7.11.282 1.046.846 10.915.564-1.244.564 1.16.564-.415.282.527.282.207.564-1.093.282.245.282-.22.282-1.004.282-.236.282.839.282-.221.563-4.23.282-.05.282.288.564-1.581.564.745.282.044.564 1.778.282-1.093.282-.502.564 6.529.282.365.282-.799.846 3.024.282 1.807.564 5.118.282 1.86.563 6.932.282 2.218.846 10.279.564-5.877.564.87.282-1.723.564-6.37.846-18.302.564-20.166 1.692-73.044.564-16.42.281-4.018.282-.847.282 1.704.282 4.623.564 17.399.564 21.676.846 38.332 1.128 31.681.564 6.865.282 1.887.564 1.122.282 1.322.282.626.282-.17.282 1.48.282 3.125.282 1.317.281-1.42.282-.746.564 2.58.282.393.282 2.06.564 8.014.282 1.761.282.852.282 1.49 1.692 15 .282.378.282-2.334.282-5.029.564-18.167.846-40.404 1.691-90.066.564-13.193.282-1.919.282.35.282 2.682.282 6.243.846 31.561 1.692 66.925.846 23.456.564 8.35.563 3.821.282 1.074.282-.015.282-.521.282.767.564 3.738.282.126.282.513.846 5.791.282.007.282 1.322 1.692 21.75.564 4.314.282-.673.282-5.164.563-19.257.564-29.501 1.692-112.846.564-26.519.282-7.936.282-4.062.282-.74.282 3.338.564 17.458.564 26.683 1.128 59.74.563 22.585.282 5.162.564 6.17.564 6.738.282 2.56.564 9.038.282 1.419.282.195.564 4.959.282.29.282-.668.282 1.6.846 9.238.564 6.709 1.128 14.848.563 3.589.282 1.108.282 1.572.282 2.276.282 1.061.282-1.507.282-3.086.282-4.964.282-9.282 1.128-59.782 1.41-82.129.282-10.935.846-15.274.282-6.772.282.89 1.127 38.555.564 28.196 1.692 64.641.282 11.679.282 3.997.282 1.176.564 7.04.282-.783.282-2.74.282-.344.282 1.7.282.243.564-3.255.282-.76.282-2.935.845-16.236.846-9.834.282.08.282-.053.282-.768.282.682.282 2.074.282-.572.564-9.614.282.463.282 3.779.282 1.97.282.035.282 2.123.282 4.228.282 1.939.564-3.21.564 1.435.563-5.023.282.132.564 5.48.282 1.289.282 2.183.846 11.598.282-.133.282-1.073.282.246.282 3.17.846 18.857.846 18.832.564 4.75.564 8.084.282.854.282-2.186.281-5.297.282-10.204.846-51.054 1.41-85.663.564-25.424.564-14.838.282-4.076.282-2.138.282.897.282 4.048.564 14.598.846 34.9 1.41 66.587.563 17.861.564 9.935.846 9.118.564 3.011.846 8.453.564 1.553.564 2.456.282.59.282 1.92.564 4.93.282-.108.282.613.282 3.694.563 9.936.564 7.53.564 8.625.282-.34.282-4.338.564-17.234.564-28.4L361.995 71l.846-33.23.564-13.296.282-1.415.281 2.566.564 13.996 2.256 72.085 1.974 64.936 1.128 25.461.564 9.82.564 10.951.563 2.818.846 9.55.282 2.319.564 7.836.282-.43.564-8.659.282-6.627.564-23.734.564-36.27 1.41-104.28.564-26.554.564-16.745.281-2.465.282-.288.282 1.622.564 10.207.282 6.884 2.82 93.353 1.692 45.465.846 11.97.563 11.123.564 7.739.846 14.946.564 7.159 1.128 19.218.282 2.783.282.185.282-4.363.282-9.216.564-30.749 2.537-162.728.282-11.632.282-6.734.282-3.129.282-.005.282 3.71 2.538 62.627.846 21.038.564 14.689.564 13.815.564 10.417.563 11.52.846 11.138.282 1.6.282-.911.282-1.749.282.166.282 1.522.282.109.564-2.277.282-.7.564-3.195.282.023.282-.439.564-3.745.564.724.564-3.595.282.042.281.474.282-1.95.282-3.742.282-2.002.282.586.282.328.282-1.429.282-.823.564 3.04.282-.425.282-1.338.282-.09.564 2.33.564 1.197.282.509.282.798.282 1.62.564 4.907.564 6.713 2.537 37.774.564 12.222.564 11.928.282 2.077.282-2.432.282-6.833.564-22.62 2.256-135.7 1.41-47.864.281-3.902.282 1.311.564 7.616.846 21.031.846 34.91L426 120.854l1.128 20.06.564 11.419.845 19.012.564 7.218.282 3.097.282 4.538.846 18.476 1.41 24.136.564 11.568.846 9.733.282 1.422.282-3.005.282-7.515.564-28.152 1.41-89.928.845-47.731.564-20.932.564-10.218.282-1.964.282-.126.282 1.5.564 5.292.282 3.663 1.41 29.347 1.128 30.2.563 19.907.564 10.926.564 8.387 3.102 71.14.282 1.92.846 12.547.282 1.418.282 3.003.564 9.653.282-1.282.281-7.878.564-27.655.564-38.394.846-61.288.846-36.214.564-15.713.564-8.234.282-1.59.282.44.282 2.05.564 7.634.564 7.92.282 2.936.282 4.926.845 21.535 1.128 21.105 1.41 19.31.564 6.114.282 4.645 2.256 53.298 1.127 21.444.846 10.358.564 17.324.282.36.282-8.803.564-30.021.564-38.923.564-43.548.564-27.852.846-32.536.564-9.75.564-7.862.282-.959.282 3.286.563 8.73.282 3.943.846 18.866.564 7.96.564 8.892.282.36.282 1.69.564 12.021.564 3.726.282 5.753.564 15.781.564 6.939.282 2.724.282 1.174.282.537.282 1.282.563 4.578.282 2.645.282 1.347.282-.26.282.003.282 1.016.282.138.564-2.167.282-.606.282-2.016.564-5.3.564-2.093.282.139.564 1.871.282 2.024.564 5.917.282-.181.282-.9.564.339.282-.426.281.273.282 1.12.282.613.282.28.282 1.019 1.41 8.61.282 2.228.564 7.216.564 9.999 1.128 23.196.282 1.476.282 3.21.564 8.735.282-1.777.563-12.634.282-10.882.564-36.085.846-56.989.846-45.928.564-12.305.282-5.719.282-3.382.282.735.564 4.172.282 3.826.846 15.985.564 9.835 1.127 20.305.564 10.594.564 10.532 1.974 25.743.564 11.688.282 3.272.282 1.45.282 2.336.564 9.771 1.128 21.367.564 9.508 1.691 30.095.282-1.374.282-6.777.564-27.6 1.128-62.677.846-36.026.564-16.626.564-7.566.282-2.304.282-.84.282.732.563 3.255.282 2.96 1.128 16.805.282 3.407 1.692 29.56.564 2.925.846 8.618.282 1.781.282 3.287 2.255 43.176.564 11.785 1.128 16.011.282 2.406.282.243.282-2.735.282-7.306.846-40.94 1.41-61.582.846-22.104.282-4.375.282-2.006.281.215.564 3.348.564 7.21 1.974 27.201.846 9.967.564 9.84.564 1.777.564 4.643.564 2.018.282 3.72 1.973 42.693.282 2.324.846 12.13.282-.268.282 1.139.846 10.475.282-2.415.564-19.836.846-35.018.846-42.31 1.127-40.885.282-6.634.282-3.916.564-3.407.282.94.282 5.279.564 15.768 2.256 34.882.282 2.29.282 3.4.282 1.51.282-1.348.282 1.27.845 19.864.846 8.1.282 1.074.282-.245.564-3.428.282.458.282 1.416.282-.1.282-.77.564.378.282-.545.282.41.282 1.16.282-.512.282-1.89.282-.381.282 1.08.282.469.282.093.564 2.282.281-.047.282-.418.564.464.564.55.282-.469.846-6.148.282-.81.282.286.564 2.337.282.721.282 1.789.564 5.737.282 1.12.282 1.693.564 6.766.564 4.01.564 7.042 1.41 20.347.563 11.987.282 1.027.282-2.415.282-5.4.282-9.35 2.256-106.156.846-11.749.282-.858.564 1.189.281 1.352.282 2.128.564 2.29.282 4.501.564 15.013.564 8.099.282 5.61.282 3.246.282.313.282 1.48.564 6.78.282 1.757.564 5.049.564.829.564 5.476.282.93.564-.307.281.173.282 2.384.564 10.872.564 6.205.846 16.733 1.128 9.34.564 3.207.282-1.358.282-5.004 2.538-65.23.563-6.793.282-1.712.282-.238.282.26.282-.788.564-3.911.282-.704.282 1.145.564 3.535.282.499.282 1.96.564 6.77.282.635.282 1.42.846 12.705.564 6.746.564 6.733.281.932.282.11.282.636.282 2.075.846 8.16.846 7.043.846 9.177 1.128 14.73.282.3.282-3.41.564-13.284.846-24.947.845-15.232.564-6.255.846-14.912.282-3.48.282-1.635.564 1.353.282-.673.282.597.282 4.337 1.41 34.325.564 15.086.282 4.579.282 2.03.282-4.714 1.127-59.175.564-8.865.282 1.114.846 28.18.282 3.948.846 19.596 1.41 31.64.564 10.717.282 2.7.282.106.282-2.07.282-3.288.282-4.862.282-8.036.845-38.558.564-24.773.564-16.028.564-12.059.282-3.394.282-1.465.282.27.282 2.046.564 8.439.564 8.544 1.41 13.694.564 7.09.282.395.282-.566.281.71.282 1.504.282.556.282.828.282 3.755.846 17.889.564 8.035.564 5.017.564 9.187 1.128 10.54.282 3.157.564 14.06.282 2.034.846-9.565.281-5.819.846-21.49 1.692-29.538.282-2.976.282-1.248.282-.553.282-1.79.564-5.577.282-.583.564.487.282.62.564 2.263.282 1.027.282 2.892.563 9.328.564 5.198.282 2.004.282.326.564-2.09.282.519.282 1.535.282.813.564-3.061.282 1.33.564 6.055.282 1.92.564 7.106.282-3.721.564-13.508.564-2.347.564-4.494.282.571 1.127 10.525.282 1.39.564 3.572.282.478.282.256.282-.309.282-1.389.282-.64.564 1.704.564-3.983.282.402.282 2.497.282 1.366.282-.21.282.592.564 4.34.845 1.281.282-1.843.282-3.216.282-.142.564 6.875.282.569.282 3.095.564 15.671.282 1.71.282-.373.282 3.016.282 4.266.282 1.616.282-.437.282-.87.282-4.023 1.974-53.324.281-3.894h0" clip-path="url(#p0d8316d83a)" style="fill:none;stroke:#1f77b4;stroke-width:1.5;stroke-linecap:square"/><path id="patch_3" d="M71.308 266.112V0" style="fill:none;stroke:gray;stroke-width:.8;stroke-linejoin:miter;stroke-linecap:square"/><path id="patch_4" d="M685.107 266.112V0" style="fill:none;stroke:#000;stroke-width:.8;stroke-linejoin:miter;stroke-linecap:square"/><path id="patch_5" d="M71.308 266.112h613.8" style="fill:none;stroke:gray;stroke-width:.8;stroke-linejoin:miter;stroke-linecap:square"/><path id="patch_6" d="M71.308 0h613.8" style="fill:none;stroke:#000;stroke-width:.8;stroke-linejoin:miter;stroke-linecap:square"/></g></g><defs><clipPath id="p0d8316d83a"><path d="M71.308 0h613.8v266.112h-613.8z"/></clipPath></defs></svg>