<svg xmlns="http://www.w3.org/2000/svg" xmlns:xlink="http://www.w3.org/1999/xlink" width="913.477" height="377.053" viewBox="0 0 685.107 282.79"><defs><style>*{stroke-linejoin:round;stroke-linecap:butt}</style></defs><g id="figure_1"><path id="patch_1" d="M0 282.79h685.107V0H0v282.79z" style="fill:none"/><g id="axes_1"><path id="patch_2" d="M71.308 266.112h613.8V0h-613.8v266.112z" style="fill:none"/><g id="matplotlib.axis_1"><g id="xtick_1"><g id="line2d_1"><defs><path id="m87da32b593" d="M0 0v3.5" style="stroke:gray;stroke-width:.8"/></defs><use xlink:href="#m87da32b593" x="99.207" y="266.112" style="fill:gray;stroke:gray;stroke-width:.8"/></g><g id="text_1" style="fill:gray" transform="matrix(.1 0 0 -.1 96.026 280.71)"><defs><path id="DejaVuSans-30" d="M2034 4250q-487 0-733-480-245-479-245-1442 0-959 245-1439 246-480 733-480 491 0 736 480 246 480 246 1439 0 963-246 1442-245 480-736 480zm0 500q785 0 1199-621 414-620 414-1801 0-1178-414-1799Q2819-91 2034-91q-784 0-1198 620-414 621-414 1799 0 1181 414 1801 414 621 1198 621z" transform="scale(.01563)"/></defs><use xlink:href="#DejaVuSans-30"/></g></g><g id="xtick_2"><use xlink:href="#m87da32b593" id="line2d_2" x="168.958" y="266.112" style="fill:gray;stroke:gray;stroke-width:.8"/><g id="text_2" style="fill:gray" transform="matrix(.1 0 0 -.1 159.414 280.71)"><defs><path id="DejaVuSans-35" d="M691 4666h2478v-532H1269V2991q137 47 274 70 138 23 276 23 781 0 1237-428 457-428 457-1159 0-753-469-1171Q2575-91 1722-91q-294 0-599 50Q819 9 494 109v635q281-153 581-228t634-75q541 0 856 284 316 284 316 772 0 487-316 771-315 285-856 285-253 0-505-56-251-56-513-175v2344z" transform="scale(.01563)"/></defs><use xlink:href="#DejaVuSans-35"/><use xlink:href="#DejaVuSans-30" x="63.623"/><use xlink:href="#DejaVuSans-30" x="127.246"/></g></g><g id="xtick_3"><use xlink:href="#m87da32b593" id="line2d_3" x="238.708" y="266.112" style="fill:gray;stroke:gray;stroke-width:.8"/><g id="text_3" style="fill:gray" transform="matrix(.1 0 0 -.1 225.982 280.71)"><defs><path id="DejaVuSans-31" d="M794 531h1031v3560L703 3866v575l1116 225h631V531h1031V0H794v531z" transform="scale(.01563)"/></defs><use xlink:href="#DejaVuSans-31"/><use xlink:href="#DejaVuSans-30" x="63.623"/><use xlink:href="#DejaVuSans-30" x="127.246"/><use xlink:href="#DejaVuSans-30" x="190.869"/></g></g><g id="xtick_4"><use xlink:href="#m87da32b593" id="line2d_4" x="308.457" y="266.112" style="fill:gray;stroke:gray;stroke-width:.8"/><g id="text_4" style="fill:gray" transform="matrix(.1 0 0 -.1 295.733 280.71)"><use xlink:href="#DejaVuSans-31"/><use xlink:href="#DejaVuSans-35" x="63.623"/><use xlink:href="#DejaVuSans-30" x="127.246"/><use xlink:href="#DejaVuSans-30" x="190.869"/></g></g><g id="xtick_5"><use xlink:href="#m87da32b593" id="line2d_5" x="378.207" y="266.112" style="fill:gray;stroke:gray;stroke-width:.8"/><g id="text_5" style="fill:gray" transform="matrix(.1 0 0 -.1 365.483 280.71)"><defs><path id="DejaVuSans-32" d="M1228 531h2203V0H469v531q359 372 979 998 621 627 780 809 303 340 423 576 121 236 121 464 0 372-261 606-261 235-680 235-297 0-627-103-329-103-704-313v638q381 153 712 231 332 78 607 78 725 0 1156-363 431-362 431-968 0-288-108-546-107-257-392-607-78-91-497-524-418-433-1181-1211z" transform="scale(.01563)"/></defs><use xlink:href="#DejaVuSans-32"/><use xlink:href="#DejaVuSans-30" x="63.623"/><use xlink:href="#DejaVuSans-30" x="127.246"/><use xlink:href="#DejaVuSans-30" x="190.869"/></g></g><g id="xtick_6"><use xlink:href="#m87da32b593" id="line2d_6" x="447.957" y="266.112" style="fill:gray;stroke:gray;stroke-width:.8"/><g id="text_6" style="fill:gray" transform="matrix(.1 0 0 -.1 435.233 280.71)"><use xlink:href="#DejaVuSans-32"/><use xlink:href="#DejaVuSans-35" x="63.623"/><use xlink:href="#DejaVuSans-30" x="127.246"/><use xlink:href="#DejaVuSans-30" x="190.869"/></g></g><g id="xtick_7"><use xlink:href="#m87da32b593" id="line2d_7" x="517.707" y="266.112" style="fill:gray;stroke:gray;stroke-width:.8"/><g id="text_7" style="fill:gray" transform="matrix(.1 0 0 -.1 504.983 280.71)"><defs><path id="DejaVuSans-33" d="M2597 2516q453-97 707-404 255-306 255-756 0-690-475-1069Q2609-91 1734-91q-293 0-604 58T488 141v609q262-153 574-231 313-78 654-78 593 0 904 234t311 681q0 413-289 645-289 233-804 233h-544v519h569q465 0 712 186t247 536q0 359-255 551-254 193-729 193-260 0-557-57-297-56-653-174v562q360 100 674 150t592 50q719 0 1137-327 419-326 419-882 0-388-222-655t-631-370z" transform="scale(.01563)"/></defs><use xlink:href="#DejaVuSans-33"/><use xlink:href="#DejaVuSans-30" x="63.623"/><use xlink:href="#DejaVuSans-30" x="127.246"/><use xlink:href="#DejaVuSans-30" x="190.869"/></g></g><g id="xtick_8"><use xlink:href="#m87da32b593" id="line2d_8" x="587.457" y="266.112" style="fill:gray;stroke:gray;stroke-width:.8"/><g id="text_8" style="fill:gray" transform="matrix(.1 0 0 -.1 574.732 280.71)"><use xlink:href="#DejaVuSans-33"/><use xlink:href="#DejaVuSans-35" x="63.623"/><use xlink:href="#DejaVuSans-30" x="127.246"/><use xlink:href="#DejaVuSans-30" x="190.869"/></g></g><g id="xtick_9"><use xlink:href="#m87da32b593" id="line2d_9" x="657.207" y="266.112" style="fill:gray;stroke:gray;stroke-width:.8"/><g id="text_9" style="fill:gray" transform="matrix(.1 0 0 -.1 644.482 280.71)"><defs><path id="DejaVuSans-34" d="M2419 4116 825 1625h1594v2491zm-166 550h794V1625h666v-525h-666V0h-628v1100H313v609l1940 2957z" transform="scale(.01563)"/></defs><use xlink:href="#DejaVuSans-34"/><use xlink:href="#DejaVuSans-30" x="63.623"/><use xlink:href="#DejaVuSans-30" x="127.246"/><use xlink:href="#DejaVuSans-30" x="190.869"/></g></g></g><g id="matplotlib.axis_2"><g id="ytick_1"><g id="line2d_10"><defs><path id="ma7bca42dbc" d="M0 0h-3.5" style="stroke:gray;stroke-width:.8"/></defs><use xlink:href="#ma7bca42dbc" x="71.308" y="254.777" style="fill:gray;stroke:gray;stroke-width:.8"/></g><g id="text_10" style="fill:gray" transform="matrix(.16 0 0 -.16 0 260.856)"><defs><path id="DejaVuSans-2212" d="M678 2272h4006v-531H678v531z" transform="scale(.01563)"/></defs><use xlink:href="#DejaVuSans-2212"/><use xlink:href="#DejaVuSans-31" x="83.789"/><use xlink:href="#DejaVuSans-35" x="147.412"/><use xlink:href="#DejaVuSans-30" x="211.035"/><use xlink:href="#DejaVuSans-30" x="274.658"/><use xlink:href="#DejaVuSans-30" x="338.281"/></g></g><g id="ytick_2"><use xlink:href="#ma7bca42dbc" id="line2d_11" x="71.308" y="220.364" style="fill:gray;stroke:gray;stroke-width:.8"/><g id="text_11" style="fill:gray" transform="matrix(.16 0 0 -.16 0 226.442)"><use xlink:href="#DejaVuSans-2212"/><use xlink:href="#DejaVuSans-31" x="83.789"/><use xlink:href="#DejaVuSans-30" x="147.412"/><use xlink:href="#DejaVuSans-30" x="211.035"/><use xlink:href="#DejaVuSans-30" x="274.658"/><use xlink:href="#DejaVuSans-30" x="338.281"/></g></g><g id="ytick_3"><use xlink:href="#ma7bca42dbc" id="line2d_12" x="71.308" y="185.95" style="fill:gray;stroke:gray;stroke-width:.8"/><g id="text_12" style="fill:gray" transform="matrix(.16 0 0 -.16 10.18 192.029)"><use xlink:href="#DejaVuSans-2212"/><use xlink:href="#DejaVuSans-35" x="83.789"/><use xlink:href="#DejaVuSans-30" x="147.412"/><use xlink:href="#DejaVuSans-30" x="211.035"/><use xlink:href="#DejaVuSans-30" x="274.658"/></g></g><g id="ytick_4"><use xlink:href="#ma7bca42dbc" id="line2d_13" x="71.308" y="151.537" style="fill:gray;stroke:gray;stroke-width:.8"/><use xlink:href="#DejaVuSans-30" id="text_13" style="fill:gray" transform="matrix(.16 0 0 -.16 54.127 157.615)"/></g><g id="ytick_5"><use xlink:href="#ma7bca42dbc" id="line2d_14" x="71.308" y="117.123" style="fill:gray;stroke:gray;stroke-width:.8"/><g id="text_14" style="fill:gray" transform="matrix(.16 0 0 -.16 23.587 123.202)"><use xlink:href="#DejaVuSans-35"/><use xlink:href="#DejaVuSans-30" x="63.623"/><use xlink:href="#DejaVuSans-30" x="127.246"/><use xlink:href="#DejaVuSans-30" x="190.869"/></g></g><g id="ytick_6"><use xlink:href="#ma7bca42dbc" id="line2d_15" x="71.308" y="82.71" style="fill:gray;stroke:gray;stroke-width:.8"/><g id="text_15" style="fill:gray" transform="matrix(.16 0 0 -.16 13.408 88.788)"><use xlink:href="#DejaVuSans-31"/><use xlink:href="#DejaVuSans-30" x="63.623"/><use xlink:href="#DejaVuSans-30" x="127.246"/><use xlink:href="#DejaVuSans-30" x="190.869"/><use xlink:href="#DejaVuSans-30" x="254.492"/></g></g><g id="ytick_7"><use xlink:href="#ma7bca42dbc" id="line2d_16" x="71.308" y="48.296" style="fill:gray;stroke:gray;stroke-width:.8"/><g id="text_16" style="fill:gray" transform="matrix(.16 0 0 -.16 13.408 54.375)"><use xlink:href="#DejaVuSans-31"/><use xlink:href="#DejaVuSans-35" x="63.623"/><use xlink:href="#DejaVuSans-30" x="127.246"/><use xlink:href="#DejaVuSans-30" x="190.869"/><use xlink:href="#DejaVuSans-30" x="254.492"/></g></g><g id="ytick_8"><use xlink:href="#ma7bca42dbc" id="line2d_17" x="71.308" y="13.883" style="fill:gray;stroke:gray;stroke-width:.8"/><g id="text_17" style="fill:gray" transform="matrix(.16 0 0 -.16 13.408 19.961)"><use xlink:href="#DejaVuSans-32"/><use xlink:href="#DejaVuSans-30" x="63.623"/><use xlink:href="#DejaVuSans-30" x="127.246"/><use xlink:href="#DejaVuSans-30" x="190.869"/><use xlink:href="#DejaVuSans-30" x="254.492"/></g></g></g><path id="line2d_18" d="m99.207 151.69.282-.298.282.282.282-.267.282.252.282-.238.282.226.282-.214.282.203.282-.193.282.183.282-.174.282.165.282-.156.282.147.282-.139.282.131.282-.123.282.116.282-.109.282.102.282-.094.282.086.282-.08.282.073.282-.065.563.008.846.032 1.692-.037.282.064.282-.083.282.106.282-.133.282.165.282-.206.282.26.282-.333.282.438.282-.605.282.913.282-1.653.282 5.47.282 24.346.281 1.531.282 3.759.282 2.233.282.942.282-2.96.282-5.355.564-28.437.846-48.082.282-11.269.282-6.508.282-3.047.282-.843.282 5.535 1.128 37.955.564 29.042.282 8.182.282 4.185.564 3.048.281.601.282-.387.846-5.988.564-2.219.282-.355.564-1.424.282-.14.282 2.49.282 3.568.282 1.748.564-2.596.282-.021.282-2.384.564-10.853.282.24.282 1.082.282-.43.282 3.532.563 16.55.282 2.503.282.937.564 4.167.282-.879.282-2.296.282-1.17.282 2.177.282 3.385.282 1.025.564-4.039.282-3.325.282-10.226 1.41-86.802.282-11.1.282-4.51.282-.767.282 2.373.282 7.641.563 25.918 1.128 66.567.564 13.306.282 2.465.282 1.245.282.13.282-2.109.282-3.232.282.305.282 3.535.282 1.715.564-3.48.282.61.282-.81.282-3.582.282-2.116.282.927.282 1.614.282.086.282-1.047.281-3.162.564-13.86.564-23.145.564-25.408.282-5.383.282-2.3.282.977.282 6.25 1.41 54.073.282 3.561.564 3.637.282-.551.846-12.233.282-1.726.282-1.004.281-.096.282.086.564.585.282-.402.282-1.757.282-.606.564 3.14.564-1.97.564 2.193.282.254.282 1.938.564 7.469.282.933.282.294.282.985.846 5.216.282.824.282 1.475.563 4.295.282 1.271.846 8.677.282.748.564 3.418.282.027.282-1.45.282-2.067.282-5.824.282-12.521 1.974-121.043.564-11.228.282-.611.282 5.963.563 19.433.282 15.885.846 60.932.564 15.946.846 7.573.282 1.089.564-2.73.282.616.282-.169.282.073.282 1.914.282.97.564-3.628.282.947.282-.051.282-2.26.282-.776.563 2.653.282.301.282-.017.282-1.51.564-4.682.282-.89.564-2.434.282-.203.282-.603.282-1.79.282-.806.564 1.342.282.004.282 1.984.564 5.873.282-.274.564-1.458.282-1.416.282-.817.564 3.096.281-.134.564-2.466.282-4.246.846-21.615.282-1.994.282-.485.282 1.809 1.41 22.77.846 8.036.282.674.282.11.846 5.7.282.523.282 1.693.281 1.009.282-.353.282 1.013.564 5.159.282.507.282 2.02.564 7.148.846 8.246.282-.786.282-5.977.282-12.563.564-42.681.846-70.815.564-24.254.282-5.356.282.495.282 8.463.845 45.438.846 66.329.282 7.536.282 1.101.564 4.718.282.034.564-5 .282-1.353.282-.761.282-1.351.564-3.664.282 1.844.564 6.343 1.128 2.068.282 1.933.563 7.973.282 2.074.282.96.564 3.76.282 1.777.282.45.564-1.569.282.15.282.645.282-.206.282-1.067.282.096.282 2.15.564 5.829.846 5.587.564 7.298.282 1.863.282-.054.281-3.58.282-11.1.846-64.901.564-50.437.282-15.66.564-11.227.282-2.178.282 4.96.846 29.77.564 39.786.564 33.264.564 10.295.282 3.614.282 1.43.845-4.004.282-.268.282-.474.282.516.282 1.059.282-.796.282-2.21.282-1.176.282-.06.564-1.527.282 1.148 1.128 9.85.282.637.282-3.337.282-7.573.846-27.809.846-11.034.282 2.3 1.691 51.22.564 2.283.282.733.282-2.005.564-8.66.282-2.087.282-.782.282-1.72.282-2.855.282-.416.846 9.825.282 1.451 1.41 16.205.281 1.516.282 3.603.564 14.63.846 8.659.282-3.4.282-13.384.846-62.826.846-64.924.564-23.725.282-5 .282-1.712.282-.104.282 2.182.282 7.037.282 14.202 1.41 96.788.281 10.567.282 6.103.282 1.208.282-.88.282-.372.282-2.1.564-10.945.282-.6.282 1.01.282-1.559.282-2.501.282-.78.282-1.135.564-6.934.282-1.042.564 2.632.282-.21.282-.674.282 2.07.281 4.554.282 2.309.282-.288.282 2.884.564 15.053 1.128 11.335.282.924.564-2.702.282.661.564 6.608.564 2.489 1.128 16.156.564 10.45.282 1.089.281-5.498.282-13.06.564-48.173.846-72.404.564-37.434.282-5.327.282-3.159.564-12.618.282 1.833.282 6.966.282 9.891.282 17.24.846 71.614.564 22.85.282 5.358.564 4.313.282.911.281-1.16.282-1.737.282-.936.282-.362.282.039.282.184.564-1.731.282 1.452.282 2.941.282 1.002.282-.692.282.453.564 3.501.564 1.948.282-.09.282-.225.282 1.205.564 3.21.282 1.445 2.255 23.838.564 8.916.282 1.39.282-1.628.282-4.716.282-10.388.564-40.065.846-66.914.564-30.14.282-8.846.282-4.897.282-1.947.282.327.282 4.353.282 11.882.563 45.327.564 42.45.564 20.1.282 5.256.282 2.568.282-.151.282-2.142 1.128-14.429.282-1.463.282-.05.282.882.282.257.282-.518.282.902.564 5.807.846 4.055.282 2.75.281 4.85.564 13.423.282 2.443.282.207.564 2.612.282-2.87.282-5.977.282-2.706.282 3.156.564 7.714.282 4.218.846 22.982.282 1.334.282-4.337.282-12.826 1.128-94.253.563-42.75.282-14.347.282-6.364.846-7.508.282 4.995.564 18.87.282 14.44.846 66.726.564 17.113.282 7.45.282 3.657.282-.094.282.314.282 1.84.282 1.013.282-.437.282.077.564 2.795.282.2.281-.605.282.556.846 8.333.846-4.41.282-6.453.564-27.999 1.128-56.237.282-3.263.282 2.143.282 7.075.282 14.099.564 38.405.282 11.102.282 4.274.564 4.397.281.755.282-1.3.282-.586.564 3.834.282-.19.282-.896.282.215.282 1.144.846 6.615.282.32.282 2.726.282 4.317.282.363.282-3.152.282.678.564 11.79 1.128 10.95.282 3.746.563 10.785.282.592.282-2.29.282-4.896.282-12.012.564-50.866.846-85.162.564-34.238.564-14.248.282-3.794.282 1.244.282 6.703.282 11.597.564 38.29.846 65.404.282 9.933.563 9.306.282 3.12.282.97.282.426.564 2.28.564.229.282-.234.282-.671.282 1.598.282 4.108.282 2.45.282-.508.282-.079.282.704.282-1.084.282-1.711.564.362.282-.882.282.76.282 2.213.282-.346.282-2.083.281.913 1.974 26.928.282 2.678.282.57.282 2.175.564 8.696.282 2.573.846 14.273.564 4.029.282-5.377.282-17.038.564-53.097.845-87.607.846-42.942.282-5.605.564-4.174.282-.715.282 4.23.282 10.396.282 18.645.846 76.131.564 26.975.282 7.62.282 3.245.564 2.128.564.45.846 4.477.282.436.281 1.029.846 6.488.282-.191.282.267.282.8.564-.018.564 2.336.282-.363.282.785.564 6.308.282 1.49.282 2.706.564 7.53.282.875.282 2.143 1.128 19.663.281 2.021.282-2.086.282-7.924.282-14.267.564-44.539 1.128-98.205.564-24.506.282-8.175.282-2.824.282 3.847.564 18.261.282 14.298 1.41 96.251.282 10.148.282 4.404.282 1.414.281.564.282-1.632.282-3.68.282-2 .564 1.428.282-.38.282 1.873.282 4.302.282 2.603.564-1.353.282.98.846 5.93.282 1.903.564 2.154.564 4.166.282 2.547.282 3.865 1.41 27.292 1.127 12.603.282.527.282-6.005.282-13.271.564-42.154 1.128-103.874.564-29.743.282-10.407.282-4.924.282.313.282 2.837.282 4.444.282 8.563.563 34.309.846 68.613.282 12.739.846 12.556.282 3.097.282-.673.282-1.962.282.407.846 12.281.282.333.282 1.245.564 9.141.564 4.25 1.128 26.58.282.917.281-1.52.282-5.48.282-12.588.564-49.04.846-76.075.564-32.266.282-5.764.282-1.715.282.252.282 4.442.282 12.748 1.41 100.484.282 9.272.282 4.777.282 1.817.282.463.282-.499 1.127-5.897.846-9.113.282 1.381.846 9.247.564 8.774.282 1.057.282.183.564 3.565.282-2.029.282-3.392.282-.034.564 4.792.282.925.282 3.94.845 22.234.846 13.786.282 2.062.282-.01.282 1.121.564 7.086.282-2.18.282-10.09.282-17.567.564-55.65.846-91.527.564-33.104.282-8.178.282-2.425.282.18.282 1.08.282 3.445.282 7.096.281 10.985.564 35.837 1.128 83.807.282 8.863.564 8.61.282 1.787.564-3.065.282.568.564 2.21.564 5.124.282-1.57.282-2.933.282-.58.282-.31.564-5.312.282 1.255.845 8.387.282 1.927.282.3.282 2.018.564 11.26.282 1.965.282 5.426.564 24.088.564 7.056.564 13.048.282-3.047.564-12.318.282-13.285.564-60.505.564-60.365.563-44.083.564-29.345.282-6.317.282-2.005.282.951.282 5.174.564 22.256.282 16.783 1.128 88.885.564 14.738.282 3.862.282 2.01.282.6.282.159.282 2.26.564 8.225.282-.549.282-.868.282 1.41.281-.15.564-8.737.282 1.957.564 13.726.282 3.389.282 1.387.282 2.32.564 6.184.564-1.739.282 4.06.564 15.307.564 6.853.564 12.631.282 1.461.282-3.913.282-7.207.282-11.7.282-19.662 1.691-162.211.282-8.145.282-2.94.282-.882.282 1.149.282 4.386.564 15.108.564 24.9 1.41 81.878 1.41 30.004.563 8.651.282 1.387.282.33.282-.3.564-2.293.282.194.282.715.282.211.282-.133.282-.005.282.282.564 1.051.282.872.282 1.759.846 8.942.564 8.12.846 15.389.282 4.09.281.746.282-6.102.564-28.486.282-21.728 1.128-114.827.564-30.404.282-7.815.282-1.274.282 1.84.282 2.623.282 5.211.282 10.68 1.128 64.464.564 40.486.282 13.238.563 11.607.282 3.76.282 1.679.564-.147.282-.183.282-1.188.282-1.67.282-.86.282.511.282 2.171.846 12.36.564 4.118.564 8.24.564 7.824.282 3.227.564 9.418.282 2.102.282-.524.282 1.008.845 12.628.564 6.497.282-2.417.282-11.838.564-43.468 1.128-128.329.564-27.577.282-4.548.282.16.282.497.282.193.282 3.958.564 22.943 1.127 67.807.564 34.88.282 10.587.846 14.898.282 3.149.282 1.102.282 3.17.564 10.234.564 5.125.564 7.088.564 5.423.282 5.084.564 13.403.282 2.185.564.573.282-4.666.281-15.386.846-76.95.564-59.852.564-32.293.282-6.84.282-2.337.282.84.282 3.282.282 6.853.564 23.997 1.692 93.207.282 9.348.282 3.584.564 2.666.282.013.845-6.626.282.43.282.946.282-.06.282-1.028.282-.567.846.666.846 1.317.282 2.18.282 3.305.282 1.564.282-.238.282 1.484 1.128 16.875.564 8.158.281 5.88.846 25.809.846 14.993.282-3.364.282-14.61.564-55.934.846-114.444.282-21.906.282-12.079.282-6.1.282-1.98.282 1.377.846 7.554.282 6.303.564 24.192 1.691 92.247.282 5.959.282 2.602.846 13.53.282-.072.282.173.282 2.093.282 3.548.564 11.108.846 18.54 1.128 7.658.282-4.034.282-8.866.281-12.672.564-40.23 1.128-96.823.282-8.48.282-2.81.282.537.282 6.362.564 28.516 1.128 64.16.564 14.297.282 3.924.846 6.588.564 5.416.281.731.282-.33.564-2.307.564-2.67.282-.54.564.275.282 1.123.282 4.248.564 10.495.282.548.282.956.282 2.489.282-.181.564-7.192.282.508.282 1.305.282-.052.282.293.282 2.352.845 14.044.282 4.697.564 15.34.564 14.75.282 1.868.282-7.865.282-21.686 1.41-161.796.282-8.576.282-2.089.564-7.303.282 1.101.846 8.77.564 15.976.845 32.435.846 37.714.846 22.117.282 4.111.282.217.282 1.377.564 12.422.282 1.851.282.39.564 6.736.282-.464.282-1.222.282 3.371.564 10.994.846 6.673.845 3.804.282.038.282 1.21.282 5.482.564 12.468.564 3.632 1.41 19.378.282.746.282-1.86.282-9.004.282-21.184 1.41-157.857.282-9.367.282-3.034.281-.846.282.615.564 3.092.282 3.504.282 8.631 1.974 85.854.846 27.34 1.128 18.752.564 9.765 1.127 21.249.564 6.391.564 10.068.282 1.362.282-2.637.282-6.96.282-13.505.564-51.118.564-60.529.564-35.272.282-8.177.282-3.247.282.04.282 1.042.282 2.283.282 5.987.564 24.011 1.127 52.32.282 8.112.282 4.91.282 2.554.282-.324.564-4.571.282-.262.282.816.282 2.048 1.128 13.787.564 11.628.282.78.282.066.564 4.177.564-5.87.282 1.503.282 3.938.282 1.221.281.16.282 4.689.564 15.91.564 5.722.564 10.667.564 1.877.564 11.701.846 18.649.282-.769.282-12.464.282-24.226.564-83.044.282-42.84.282-25.087.282-9.073.564-8.398.281.699.282 2.964.282-.365.282-2.698.282.01.282 4.398.564 15.303.564 22.585.564 25.4.564 11.163.282 5.222.282 2.72.564-4.013.282 1.58.282 2.855.564 2.449.282 3.123.564 10.579.563 13.858.564 10.063.564 14.247 1.128 15.882.282 1.036.282 2.611.564 7.878.564 5.141.282 1.15.282-.581.282.925.846 11.245.282 4.744.282.182.282-9.605.282-18.855.563-60.521.564-61.194.282-12.622.564-10.514.282-1.711.282 1.068.282 1.99.282 2.935.282 4.567.282 6.599.564 21.144.564 17.278.564 7.768.846 16.915.282 3.032.845 11.603.282-.328.282 1.384.564 6.718.282.297.282 2.614 1.128 25.533.564 21.98.282 3.001.282-4.539.282-9.778.282-17.048 1.128-100.733.282-9.64.846-14.89.282-2.732.281 3.275.846 28.14.846 36.369.564 20.537.564 9.818.564 3.863.282 1.06.282.031.564-2.495.282.894 1.41 10.924.282 2.456.845 13.101.282.836.282 1.835.564 5.229.282 1.752.564 4.907.282 1.178.282 2.79.564 9.152.564 6.103 1.128 21.174.282 2.256.282-4.796.282-15.477.282-27.65 1.127-142.1.282-9.771.282-3.023.564-2.715.282 1.995 1.41 35.142.564 17.306.282 5.058.564 17.099.564 13.799.846 15.111.282.44.282 1.045.564 5.03.563 2.722 1.41 10.901 1.974 27.627.282 1.783 1.692 19.704.564 14.878.282 8.365.282 4.305.281-.43.282-6.55.282-16.504.564-66.044.564-64.593.282-15.33.282-4.466.282-.202.564-1.106.282 1.706.564 4.648.282.832.282 3.192.564 14.562.846 29.247.564 14.861.564 8.365.281 2.848.564 2.46 1.41 9.423 1.692 20.545.564 14.234.564 13.399 1.128 19.512.282 3.643.282.888.563-2.408.282 1.381.282 2.069.282.077.282-4.399.282-9.99.282-18.951.564-70.912.564-61.676.282-11.599.282-5.81.282-3.412.282-1.445.282.673.282 1.64.564 5.82.282 5.673.564 21.088 1.41 53.29.563 14.547.282 3.524.282 1.284.282.265.282-.494.282.2.564 1.013.282.286.282 2.409.564 6.994.282 2.35.282 4.325.846 15.987.846 11.354 1.41 20.462.563 10.64.564 6.644.282 4.922.282 1.999.282-4.814.282-14.691.564-60.08.564-62.536.282-15.326.282-8.954.282-4.128.282-.974.282-.114.282-1.724.282.803.846 12.365.563 16.996.564 15.908.564 14.023.564 15.12.282 4.113.846-.107.282.9.282-1.263.282 1.396.564 4.721.282-1.75.282 3.856.564 17.492.282 1.744.564 9.792.282 6.412.282-3.841.281 3.897h0" clip-path="url(#p3b46960c3d)" style="fill:none;stroke:#1f77b4;stroke-width:1.5;stroke-linecap:square"/><path id="patch_3" d="M71.308 266.112V0" style="fill:none;stroke:gray;stroke-width:.8;stroke-linejoin:miter;stroke-linecap:square"/><path id="patch_4" d="M685.107 266.112V0" style="fill:none;stroke:#000;stroke-width:.8;stroke-linejoin:miter;stroke-linecap:square"/><path id="patch_5" d="M71.308 266.112h613.8" style="fill:none;stroke:gray;stroke-width:.8;stroke-linejoin:miter;stroke-linecap:square"/><path id="patch_6" d="M71.308 0h613.8" style="fill:none;stroke:#000;stroke-width:.8;stroke-linejoin:miter;stroke-linecap:square"/></g></g><defs><clipPath id="p3b46960c3d"><path d="M71.308 0h613.8v266.112h-613.8z"/></clipPath></defs></svg>