<svg xmlns="http://www.w3.org/2000/svg" xmlns:xlink="http://www.w3.org/1999/xlink" width="913.477" height="377.053" viewBox="0 0 685.107 282.79"><defs><style>*{stroke-linejoin:round;stroke-linecap:butt}</style></defs><g id="figure_1"><path id="patch_1" d="M0 282.79h685.107V0H0v282.79z" style="fill:none"/><g id="axes_1"><path id="patch_2" d="M71.308 266.112h613.8V0h-613.8v266.112z" style="fill:none"/><g id="matplotlib.axis_1"><g id="xtick_1"><g id="line2d_1"><defs><path id="mc688513e53" d="M0 0v3.5" style="stroke:gray;stroke-width:.8"/></defs><use xlink:href="#mc688513e53" x="99.207" y="266.112" style="fill:gray;stroke:gray;stroke-width:.8"/></g><g id="text_1" style="fill:gray" transform="matrix(.1 0 0 -.1 96.026 280.71)"><defs><path id="DejaVuSans-30" d="M2034 4250q-487 0-733-480-245-479-245-1442 0-959 245-1439 246-480 733-480 491 0 736 480 246 480 246 1439 0 963-246 1442-245 480-736 480zm0 500q785 0 1199-621 414-620 414-1801 0-1178-414-1799Q2819-91 2034-91q-784 0-1198 620-414 621-414 1799 0 1181 414 1801 414 621 1198 621z" transform="scale(.01563)"/></defs><use xlink:href="#DejaVuSans-30"/></g></g><g id="xtick_2"><use xlink:href="#mc688513e53" id="line2d_2" x="168.958" y="266.112" style="fill:gray;stroke:gray;stroke-width:.8"/><g id="text_2" style="fill:gray" transform="matrix(.1 0 0 -.1 159.414 280.71)"><defs><path id="DejaVuSans-35" d="M691 4666h2478v-532H1269V2991q137 47 274 70 138 23 276 23 781 0 1237-428 457-428 457-1159 0-753-469-1171Q2575-91 1722-91q-294 0-599 50Q819 9 494 109v635q281-153 581-228t634-75q541 0 856 284 316 284 316 772 0 487-316 771-315 285-856 285-253 0-505-56-251-56-513-175v2344z" transform="scale(.01563)"/></defs><use xlink:href="#DejaVuSans-35"/><use xlink:href="#DejaVuSans-30" x="63.623"/><use xlink:href="#DejaVuSans-30" x="127.246"/></g></g><g id="xtick_3"><use xlink:href="#mc688513e53" id="line2d_3" x="238.708" y="266.112" style="fill:gray;stroke:gray;stroke-width:.8"/><g id="text_3" style="fill:gray" transform="matrix(.1 0 0 -.1 225.982 280.71)"><defs><path id="DejaVuSans-31" d="M794 531h1031v3560L703 3866v575l1116 225h631V531h1031V0H794v531z" transform="scale(.01563)"/></defs><use xlink:href="#DejaVuSans-31"/><use xlink:href="#DejaVuSans-30" x="63.623"/><use xlink:href="#DejaVuSans-30" x="127.246"/><use xlink:href="#DejaVuSans-30" x="190.869"/></g></g><g id="xtick_4"><use xlink:href="#mc688513e53" id="line2d_4" x="308.457" y="266.112" style="fill:gray;stroke:gray;stroke-width:.8"/><g id="text_4" style="fill:gray" transform="matrix(.1 0 0 -.1 295.733 280.71)"><use xlink:href="#DejaVuSans-31"/><use xlink:href="#DejaVuSans-35" x="63.623"/><use xlink:href="#DejaVuSans-30" x="127.246"/><use xlink:href="#DejaVuSans-30" x="190.869"/></g></g><g id="xtick_5"><use xlink:href="#mc688513e53" id="line2d_5" x="378.207" y="266.112" style="fill:gray;stroke:gray;stroke-width:.8"/><g id="text_5" style="fill:gray" transform="matrix(.1 0 0 -.1 365.483 280.71)"><defs><path id="DejaVuSans-32" d="M1228 531h2203V0H469v531q359 372 979 998 621 627 780 809 303 340 423 576 121 236 121 464 0 372-261 606-261 235-680 235-297 0-627-103-329-103-704-313v638q381 153 712 231 332 78 607 78 725 0 1156-363 431-362 431-968 0-288-108-546-107-257-392-607-78-91-497-524-418-433-1181-1211z" transform="scale(.01563)"/></defs><use xlink:href="#DejaVuSans-32"/><use xlink:href="#DejaVuSans-30" x="63.623"/><use xlink:href="#DejaVuSans-30" x="127.246"/><use xlink:href="#DejaVuSans-30" x="190.869"/></g></g><g id="xtick_6"><use xlink:href="#mc688513e53" id="line2d_6" x="447.957" y="266.112" style="fill:gray;stroke:gray;stroke-width:.8"/><g id="text_6" style="fill:gray" transform="matrix(.1 0 0 -.1 435.233 280.71)"><use xlink:href="#DejaVuSans-32"/><use xlink:href="#DejaVuSans-35" x="63.623"/><use xlink:href="#DejaVuSans-30" x="127.246"/><use xlink:href="#DejaVuSans-30" x="190.869"/></g></g><g id="xtick_7"><use xlink:href="#mc688513e53" id="line2d_7" x="517.707" y="266.112" style="fill:gray;stroke:gray;stroke-width:.8"/><g id="text_7" style="fill:gray" transform="matrix(.1 0 0 -.1 504.983 280.71)"><defs><path id="DejaVuSans-33" d="M2597 2516q453-97 707-404 255-306 255-756 0-690-475-1069Q2609-91 1734-91q-293 0-604 58T488 141v609q262-153 574-231 313-78 654-78 593 0 904 234t311 681q0 413-289 645-289 233-804 233h-544v519h569q465 0 712 186t247 536q0 359-255 551-254 193-729 193-260 0-557-57-297-56-653-174v562q360 100 674 150t592 50q719 0 1137-327 419-326 419-882 0-388-222-655t-631-370z" transform="scale(.01563)"/></defs><use xlink:href="#DejaVuSans-33"/><use xlink:href="#DejaVuSans-30" x="63.623"/><use xlink:href="#DejaVuSans-30" x="127.246"/><use xlink:href="#DejaVuSans-30" x="190.869"/></g></g><g id="xtick_8"><use xlink:href="#mc688513e53" id="line2d_8" x="587.457" y="266.112" style="fill:gray;stroke:gray;stroke-width:.8"/><g id="text_8" style="fill:gray" transform="matrix(.1 0 0 -.1 574.732 280.71)"><use xlink:href="#DejaVuSans-33"/><use xlink:href="#DejaVuSans-35" x="63.623"/><use xlink:href="#DejaVuSans-30" x="127.246"/><use xlink:href="#DejaVuSans-30" x="190.869"/></g></g><g id="xtick_9"><use xlink:href="#mc688513e53" id="line2d_9" x="657.207" y="266.112" style="fill:gray;stroke:gray;stroke-width:.8"/><g id="text_9" style="fill:gray" transform="matrix(.1 0 0 -.1 644.482 280.71)"><defs><path id="DejaVuSans-34" d="M2419 4116 825 1625h1594v2491zm-166 550h794V1625h666v-525h-666V0h-628v1100H313v609l1940 2957z" transform="scale(.01563)"/></defs><use xlink:href="#DejaVuSans-34"/><use xlink:href="#DejaVuSans-30" x="63.623"/><use xlink:href="#DejaVuSans-30" x="127.246"/><use xlink:href="#DejaVuSans-30" x="190.869"/></g></g></g><g id="matplotlib.axis_2"><g id="ytick_1"><g id="line2d_10"><defs><path id="m8e31c8c8ff" d="M0 0h-3.5" style="stroke:gray;stroke-width:.8"/></defs><use xlink:href="#m8e31c8c8ff" x="71.308" y="251.045" style="fill:gray;stroke:gray;stroke-width:.8"/></g><g id="text_10" style="fill:gray" transform="matrix(.16 0 0 -.16 0 257.124)"><defs><path id="DejaVuSans-2212" d="M678 2272h4006v-531H678v531z" transform="scale(.01563)"/></defs><use xlink:href="#DejaVuSans-2212"/><use xlink:href="#DejaVuSans-31" x="83.789"/><use xlink:href="#DejaVuSans-35" x="147.412"/><use xlink:href="#DejaVuSans-30" x="211.035"/><use xlink:href="#DejaVuSans-30" x="274.658"/><use xlink:href="#DejaVuSans-30" x="338.281"/></g></g><g id="ytick_2"><use xlink:href="#m8e31c8c8ff" id="line2d_11" x="71.308" y="213.505" style="fill:gray;stroke:gray;stroke-width:.8"/><g id="text_11" style="fill:gray" transform="matrix(.16 0 0 -.16 0 219.584)"><use xlink:href="#DejaVuSans-2212"/><use xlink:href="#DejaVuSans-31" x="83.789"/><use xlink:href="#DejaVuSans-30" x="147.412"/><use xlink:href="#DejaVuSans-30" x="211.035"/><use xlink:href="#DejaVuSans-30" x="274.658"/><use xlink:href="#DejaVuSans-30" x="338.281"/></g></g><g id="ytick_3"><use xlink:href="#m8e31c8c8ff" id="line2d_12" x="71.308" y="175.965" style="fill:gray;stroke:gray;stroke-width:.8"/><g id="text_12" style="fill:gray" transform="matrix(.16 0 0 -.16 10.18 182.044)"><use xlink:href="#DejaVuSans-2212"/><use xlink:href="#DejaVuSans-35" x="83.789"/><use xlink:href="#DejaVuSans-30" x="147.412"/><use xlink:href="#DejaVuSans-30" x="211.035"/><use xlink:href="#DejaVuSans-30" x="274.658"/></g></g><g id="ytick_4"><use xlink:href="#m8e31c8c8ff" id="line2d_13" x="71.308" y="138.425" style="fill:gray;stroke:gray;stroke-width:.8"/><use xlink:href="#DejaVuSans-30" id="text_13" style="fill:gray" transform="matrix(.16 0 0 -.16 54.127 144.504)"/></g><g id="ytick_5"><use xlink:href="#m8e31c8c8ff" id="line2d_14" x="71.308" y="100.885" style="fill:gray;stroke:gray;stroke-width:.8"/><g id="text_14" style="fill:gray" transform="matrix(.16 0 0 -.16 23.587 106.964)"><use xlink:href="#DejaVuSans-35"/><use xlink:href="#DejaVuSans-30" x="63.623"/><use xlink:href="#DejaVuSans-30" x="127.246"/><use xlink:href="#DejaVuSans-30" x="190.869"/></g></g><g id="ytick_6"><use xlink:href="#m8e31c8c8ff" id="line2d_15" x="71.308" y="63.345" style="fill:gray;stroke:gray;stroke-width:.8"/><g id="text_15" style="fill:gray" transform="matrix(.16 0 0 -.16 13.408 69.423)"><use xlink:href="#DejaVuSans-31"/><use xlink:href="#DejaVuSans-30" x="63.623"/><use xlink:href="#DejaVuSans-30" x="127.246"/><use xlink:href="#DejaVuSans-30" x="190.869"/><use xlink:href="#DejaVuSans-30" x="254.492"/></g></g><g id="ytick_7"><use xlink:href="#m8e31c8c8ff" id="line2d_16" x="71.308" y="25.805" style="fill:gray;stroke:gray;stroke-width:.8"/><g id="text_16" style="fill:gray" transform="matrix(.16 0 0 -.16 13.408 31.883)"><use xlink:href="#DejaVuSans-31"/><use xlink:href="#DejaVuSans-35" x="63.623"/><use xlink:href="#DejaVuSans-30" x="127.246"/><use xlink:href="#DejaVuSans-30" x="190.869"/><use xlink:href="#DejaVuSans-30" x="254.492"/></g></g></g><path id="line2d_17" d="m99.207 138.438 1.41-.023 1.692.003 2.256.002 3.101.008 3.384-.033.282.094.282-.24.282 1.136.282 15.017.282-.112.282-.527.564 5.927.281-1.672.846-12.76.846-21.485.564-17.786.282-.171.282-.562.282-3.39.282 1.864.564 15.697.564 5.308.564 7.66.282 1.488.282-1.187.282-1.82.282 1.641.282 3.438.282-.124.282-1.327.281 4.443.282 8.34.282 4.96.564 2.066.282-.185.564-3.725.282.24.282-.674.282-2.13.282-.887.282 1.12.282-.03.564-7.44.282-.353.282 1.589.282-1.898.282-4.093.282 1.234.564 13.232.282.66.282.031.281 1.66.282-.776.564-9.8.282 1.39.564 9.671.282-.455.282-1.157.564 1.517.282-.644.282-2.059.282-4.358 1.128-22.26.282-2.91.282-.004.282-2.298.282-4.85.282-.67.564 8.449.281 1.21.282 2.089.282 2.935.282.379.564-4.183.282.81.564 4.716.282.702.282 2.074.846 16.97.282-1.597.282.9.282 4.279.282.106.564-9.72.282-.085.282-.679.282-2.046.282-.404.282.606.282-.711.281-1.119.282.127.564 2.658 1.41 6.548.282-.794.282.559.282 2.153.282.021.282-1.876.282.465.282 1.387.564-3.48.282 4.087.564 10.962.564 4.113.282-1.19.282-4.34.563-17.89.282-8.368.564-10.552.564-13.231.282-1.411.564-6.124.282.533.564 4.998.282 1.821.564 6.189.564 9.768.282 2.038.282.841.282 4.593.564 13.31.282.627.282.133.563 5.085.282-1.588.282-3.862.282-1.49.846 5.946.282.34.282-.495.564-2.522.564 2.447.282-.205.282-.694.282.532.282.86.282-.206.282-.995.282-.504.282 1.202.564 4.923.282-.254.282-2.143.281-3.59 1.128-22.253.564-11.242.846-9.413.282.586.282 2.035.564 2.338.846 8.17.282 2.039.282 4.144.564 10.939.282 1.872.282.756.282 4.063.563 13.97.846 5.454.282-.98.564-11.862.282-.711.282 1.809.282.958.282-.57.282-1.271.282-.749.564.402.282-1.494.282-3.9 1.41-29.122.282-4.849.282-2.712.564-1.947.281-.113.282 2.21.564 7.333.282 2.242.846 8.675.282 1.417.282 2.714.282 1.004.282-1.562.282 1.72.564 14.03.564 3.293.564 8.815.282-2.707.282-7.203.282-4.02.282.252.282-2.303.282-6.502.281-2.914.846 12.847.282 2.712.564 9.314.282-2.867.564-16.32.282 1.187.282 4.945.282.934.282-1.625.282 2.624.564 13.82.282 3.336.282 1.034.282-1.469.282-5.012 1.691-45.687.564-20.839.282-9.86.282-3.583.282.013.282.497.282 3.306.564 11.585.282 3.334 1.128 24.306.564 23.91.282 4.291.282.447.564 3.425.282.127.282-3.461.282-5.875.282-3.063 1.127 6.777.282.088.564-6.006.282-.95.282-2.632.282-4.368.282-2.003.282 1.376.564 3.967.282.987.282.51.282.236.282-.456.282-.76.282 1.352.564 6.266.282-.242.282 1.494.563 11.802.282 1.356.282-1.943.282-.659.282 1.882.282.006.564-12.363.282-.479.282 4.178.282 1.751.282-.096.564 6.265.282-2.756.846-22.639.564-19.15.564-10.453.564-7.856.282.062.845 6.244 1.692 27.541.846 17.51.282-.336.282.477.282-.521.564-6.834.564 2.488.282-1.388.282.582.282 3.291.282 1.63.846-3.848.281-.165.282-.513.282-.904.564-3.058.282.334.282 1.193.282-.618.282-1.758.282-.516.564.402.282.776.282.183.564-3.239.282.876.282 1.349.282.492.282.214.282.6.282 3.348.564 13.489.282.697.281-1.34.564 1.45.282-1.234.282.028.846 7.528.282 1.596.282-.22.282-2.625.564-9.033.564-11.614.282-2.508.282-4.264.564-16.303.564-7.033 1.128-9.846.282.567.563 9.797.564 4.666.846 17.246.282 1.463.282-.757.282.758.564 8.143.282-2.508.282-4.5.282-.185.282.675.282-3.152.282-1.582.846 15.544.282-.49.282.537.282 1.437.282-.627.563-6.155.282-.342.282-2.374.282-6.427.282-3.107.282 5.542.282 7.764.282 2.702.282 1.002.846 14.412.564-3.695.282 1.095.282-.259.564-8.443.564-2.823.282-3.585.282.451.564 16.835.281 1.419.282-2.17.282.629.282.344.282-6.713.564-24.27.564-11.345.564-10.587.282-1.194.564 8.843.282-.892.282-4.62.282-1.098.282 3.017.282.785.282-2.315.282 1.728.846 24.495.282.944.282.023.845 1.968.282 1.368.282 1.957.282.764.282-.809.282.082.564 4.346.282-.168.282-.454.564 1.764.282.203.282-1.052.846-11.094.282 3.593.282 1.797.282-1.968.282 1.445.564 13.344.281-.951.282-2.15.564 3.738.282-2.374.282-4.325.282-1.947.282 1.032.282 1.541.282.202.282.652.282 4.538.282 6.41.282 2.565.282-.589.564 3.158.282-4.212.564-16.035.564-9.013.846-20.165.563-6.332.564-7.434.282-.794.564-2.98.282.765.282 3.46 1.41 27.9.564 11.736.282.41.282-.79.282.986.282 1.668.282.212.564-2.075.282.196.564 5.769.281-2.563.282-6.77.282-3.276.564 3.316.282 2.468.282 4.37.282 2.592.282.154.564 2.928.564-2.736.282.716.282-.256.282-1.064.564 1.513.282-1.739.282-.271.282 2.443.282.819.282-.875.282 2.012.282 4.061.281 1.139.282-.289.282 4.19.282 6.808.282-.04.846-24.67.282-8.175.564-28.268.282-5.092.282-2.09.564-10.58.282.924 1.692 26.152.846 19.165.282.958.281 2.231.282 3.537.282 2.049.282.808.846 4.977.282-.172.564 2.96.282-3.86.282-7.023.282-3.129.564 2.85.282-.455.564-.062.564-2.3.564 2.875.282-.156.282.063.282 1.076.281.409.282 1.253.564 10.129.282.148.282-1.85.282 1.152.282 2.205.282.44.282.16.282.961.282 1.94.846 14.827.282-3.371 1.128-25.417 1.128-32.73.282-4.446.281-7.012.564-18.083.282-.76.282 2.53.282.608.282 2.924.846 31.868.846 13.199.282.89.282 2.499.282 4.05.282 1.276.282.69.564 9.937.282-.83.564-9.555.282.334.282 2.108.282-.168.281-2.773.282-.35.564 10.763.282.641.282-1.385.564 2.693.564-2.646.282 1.026.846 5.289.282-2.927.282-7.306.282-3.968.282 1.563.282.31.282-2.714.282.182.846 15.82.282 1.116.281.516.282 1.652.282.565.564-6.825.282.198.282.628.282-5.187.564-16.95.564-8.498.564-14.632.564-8.513.282-5.624.282-2.317.846 5.943.564 16.852.282 2.868.282-.816.281 2.396.282 4.545.282 2.405.846 3.401.282 2.124.564 9.191.282.862.282-.154.282.883.282-.089.282-1.237.282-.226.282-.379.282-2.615.282-1.481.564 6.197.564-.842.564 6.883.282.575.563-3.03.282.842.282 3.161.282 1.782.282-1.49.282-.29.564 4.89.282-.06.564 2.962.282-1.918.282 1.629.564 13.726.282-3.822.846-18.735 1.128-38.436.564-12.713.563-11.978.282-2.844.282-.48.282.91.282 3.628.564 10.974.282 2.362.282 3.517.564 14.424.282 2.203.282.891.282 5.066.564 13.124.846 11.998.282 1.974.282.48.564-.868.282.115.563 1.743.282-1.546.564-11.994.282-1.92.282.099.282-1.11.282-.112.282 1.683.282-.119.282-1.059.564 3.92.282-1.021.282.584.846 17.568.282-.055.282-1.072.282.368.564 3.809.282-.406.282.796.845 8.122.282.747.282-4.207 1.128-32.133 1.128-37.699.846-17.835.564-5.008.282-3.802.282.438.846 23.924.564 18.721.281 10.945.282 5.53.282 1.778.564 8.708.282-.347.564-8.094.282-.43.564 3.616.282-1.066.282.86.564 16.911.282-.116.282-3.13.564 3.473.564-13.653.282-.822.282 1.87.282-1.086.282-2.05.282.964.563 7.36.282 1.84.282.511.282 1.244 1.128 11.242.282-.452.282-1.388.282 1.405.282 4.028.282-.469.282-6.528.282-3.676.282 2.71.282 1.45.564-4.532.282-.777.282-3.897.846-18.953 1.127-31.334.846-14.006.282-.842.282-.2.282-1.898.282 1.366 1.41 37.86 1.128 9.917.282-.798.282 2.25.564 14.43.282 2.394.281-1.727.282-.9.282.806.282-2.091.282-5.614.282-2.887.564 6.039.282-.389.282-.658.282 2.754.282 4.066.282 2.093.282.9.564 4.52.282.416.282.178.564 6.55.282-.543.282-1.1.564 5.237.282-.81.282.612.281 3.023.282 1 .282 1.539.282 5.147.282.885.846-27.622.846-28.135.282-7.9.564-21.659.846-21.96.564-6.259.282-1.617.282 1.92.564 12.157.282 7.648.845 35.28 1.128 19.173.282-.699.282.475.564 6.384.282.722.282-1.166.282-.14.282 3.198.282 4.973.282 2.8.282-1.133.282-2.866.282-1.451.282.827.564 2.936.282-.826.564-5.036.281.08.282-1.304.564-8.36.282 1.684.282 2.594.282-.01.282 1.036 1.128 20.834 1.128 10.14.282.347.282-.785.282.68.282 1.856.282-.235.282-3.63.564-12.176 1.41-48.547.563-30.879.564-12.342.564-10.54.282 2.92.564 12.774.282 4.905.282 6.97 1.41 48.81.564 4.01.282 3.122.282 1.799.282-1.95.282-3.053.281-.526.282.481.282-1.193.282-.411.282 3.774.564 10.178.282.631.846-3.36.282.121.282 1.033.282.569.282-.88.282-.207.282 1.557.282-.984.564-11.177.282 1.78.282 4.184.282.478.282-.295.282 4.711.845 24.512.564 8.661.282.04.282-1.908.564-1.595.282-5.544.846-23.9.846-39.493.282-7.865.846-33.827.282-5.001.282-2.96.282 1.694.564 9.609.282 3.796 1.691 42.216 1.128 18.628.282 2.385.564 7.684.282.269.282.452.282 1.332.282.171 1.41-4.747.282-.095.282-.397.282-1.545.281-.805.282 2.807.564 8.1.282 1.39.564 3.282.282.052.282 1.646.282 2.76.282-.243.282-1.265.282 2.803.282 4.161.282.97.282 2.602.564 15.356.282-.444.282-.791.282 3.774.282.246.282-9.484.564-24.373 1.127-42.752.564-22.06.564-15.383.282-8.238.564-7.033.282-3.273.282-.945.282 3.677.846 18.025 1.128 47.392.564 10.341.282 5.733.282 1.007.282-2.9.281-.068.282 3.348.282.784.282-1.492.282 2.92.564 12.757.282.425.846-3.976.282-3.887.282-5.52.282-3.297.282.802.282 1.785.282.17.282.38.564 3.415.282-.862.282.576.846 15.053.281 1.687.564 1.494.282 2.779.282 4.064.282 2.044.282-.262.282.367.282 1.176.282.417.282.17.282.385.282-.088.282.428.282.846.282-2.9 1.128-37.214 1.41-58.883.282-15.075.281-9.051.282-2.785.282-1.454.282-.376.282 6.189.564 23.124.564 9.064 1.41 43.163.282 3.253.282-1.463.282.025.564 5.585.282 1.218.282.705.282 4.214.564 12.718.282-.422.281.243.282 2.276.282-1.75.564-10.518.282.069.564 2.672.282.852.564 2.741.282.056.282-1.197.282.61.564 5.896.282 4.794.564 12.852.282 1.376.282 3.432.564 10.985.564 1.537.282-2.605 1.127-39.167.564-42.795.564-19.241.846-28.681.282-1.585.282-.155.564-7.916.282 1.94.846 24.23.564 17.302.564 14.83.282 8.548.282 3.895.281 1.123.282 3.464.846 17.43.282 2.356.564 2.249.282-.075.282-.842.282-.223.564 1.53.282-.419.282-.816.282 1.354.564 6.499.282-.164.282-.683.282.065.282.203.282.472.282.005.282-.877.281 2.566.564 16.802.282 2.3.282.078 1.41 11.631.564 6.423.282 1.519.282-.983.282-4.41 1.128-40.336.846-35.68.282-4.188.282-8.904.564-25.266.563-17.066.564-9.608.282-2.678.282.099 1.128 13.841.282 4.888 2.82 85.886.282 2.445.282 4.383.282 1.734.282-2.309.281-.107.282 2.996.282.487.846-7.5.282-.125.282 1.09.282-1 .282-2.33.282 2.605.282 7.741.282 4.253.564-4.757.564 6.07.282-3.226.282-5.389.282-.618.564 6.201 1.127 8.188.564 11.77.846 7.11.282-.388 1.128-28.805 1.128-39.129.846-31.69.282-8.697.846-40.14.282-2.139.282 1.057.282.015.282.705.281 5.312.846 24.762 1.128 29.303.846 27.475.564 8.593.564 19.323.282 4.195.282.891.564 3.7.282-.595.282-4.727.282-7.17.282-3.725.282 3.477.282 5.49.563 2.089.846 18.561.282.15.564 5.708.282-.962.282-2.456.282.617.846 13.034.564 8.338.282 1.22.282-1.62.282-3.35.282-6.66.846-34.042.282-8.285 1.127-51.749 1.128-57.665.846-18.316.282 4.87.564 17.953.282 4.39.564 15.807.846 22.904.846 23.21.564 14.75.282 1.765.282 3.56.563 15.791.564 6.604.564 4.77.564 2.7.282-.115.564-1.615.564-5.749.282 1.918.564 12.314.282.657.282-1.06.282.011.282 1.054.846 5.158.564.53.281 2.814.564 8.295.282.925.282 3.448.564 13.768.564 5.317.282.97.282-3.905.564-20.531 1.974-86.636.846-40.737.564-22.275.282-6.15.281-3.283.282-1.282.282 2.235.564 10.487 1.128 26.91.564 26.775.564 16.78.282 9.824.282 2.268.282-1.15.282 5.043.282 8.336.846 14.169.564 17.403.282 2.518.282.045.563 3.429.564-4.057.564 7.628.282-2.172.282-.673.282 2.076.282-3.35.282-7.103.282-1.491.282 3.04.282.998.282.58 1.692 20.87.282 2.578.282 4.992.564 13.99.281 3.713.282.928.282-1.03.282-4.002.564-16.785.564-26.896 1.41-68.218 1.692-64.815.282-5.776.282.818.564 7.546 1.41 34.511 1.691 43.94 1.128 20.614.846 19.552.846 8.113.282 4.656.564 18.71.282 2.927.282.155.564 9.296.281-1.523.282-4.905.282-.773.846 13.646.564 3.727.846 11.86.282.571.282-.618.282-3.13.282-8.461 2.256-107.039.846-45.425.563-20.782.282-5.34.282-2.727.282.125.282 4.42.564 13.106.282 1.513.282.6.282 4.626 2.82 84.765.846 40.75 1.691 43.702.846 21.892.282 6.543.282 2.396.282-3.151.282-5.894.282-8.709.564-31.483.564-38.356.846-71.49.846-40.597.282-7.766.282-1.615.281.222.282-.856.282 1.494 1.128 26.413.564 19.015.564 15.165 2.538 81.039.282 5.452 1.128 31.3.282 4.906.281-1.302.282-9.648.564-29.789.846-54.5.564-29.575.282-15.867 1.128-35.842.282-4.987.282 1.523.846 11.027.846 28.007.282 2.393.282 4.022.563 12.755 1.128 15.513.282 2.067.282.87.282 1.66.846 14.605.282 2.122.564 6.873.282.29.282.047.564 3.39.282.65.564 3.904.282-2.473.282-5.387.282-1.696.282 3.245.281 1.733.282-2.022.282 2.43.564 20.392.282 1.086.282-.485.564 7.058.282 2.14.846 14.238.282 2.16 2.256 47.086.282.293.282-6.762 1.127-53.291 1.692-112.388.846-55.59.282-5.722.282.255.282-2.604.282-.913.282 9.768.282 13.628.282 4.515.282-1.3.282 4.814.564 18.517.282 4.21 1.41 33.841.281 4.15.282 1.598.282 4.775.564 20.222.282 3.54.282 1.41.564 4.989.282-1.486.282.159 1.128 19.096.282 1.915.282-2.278.282-4.89.282-.564.846 16.415.281 2.226h0" clip-path="url(#p15854083ed)" style="fill:none;stroke:#1f77b4;stroke-width:1.5;stroke-linecap:square"/><path id="patch_3" d="M71.308 266.112V0" style="fill:none;stroke:gray;stroke-width:.8;stroke-linejoin:miter;stroke-linecap:square"/><path id="patch_4" d="M685.107 266.112V0" style="fill:none;stroke:#000;stroke-width:.8;stroke-linejoin:miter;stroke-linecap:square"/><path id="patch_5" d="M71.308 266.112h613.8" style="fill:none;stroke:gray;stroke-width:.8;stroke-linejoin:miter;stroke-linecap:square"/><path id="patch_6" d="M71.308 0h613.8" style="fill:none;stroke:#000;stroke-width:.8;stroke-linejoin:miter;stroke-linecap:square"/></g></g><defs><clipPath id="p15854083ed"><path d="M71.308 0h613.8v266.112h-613.8z"/></clipPath></defs></svg>