<svg xmlns="http://www.w3.org/2000/svg" xmlns:xlink="http://www.w3.org/1999/xlink" width="913.477" height="377.053" viewBox="0 0 685.107 282.79"><defs><style>*{stroke-linejoin:round;stroke-linecap:butt}</style></defs><g id="figure_1"><path id="patch_1" d="M0 282.79h685.107V0H0v282.79z" style="fill:none"/><g id="axes_1"><path id="patch_2" d="M71.308 266.112h613.8V0h-613.8v266.112z" style="fill:none"/><g id="matplotlib.axis_1"><g id="xtick_1"><g id="line2d_1"><defs><path id="mec8329dab7" d="M0 0v3.5" style="stroke:gray;stroke-width:.8"/></defs><use xlink:href="#mec8329dab7" x="99.207" y="266.112" style="fill:gray;stroke:gray;stroke-width:.8"/></g><g id="text_1" style="fill:gray" transform="matrix(.1 0 0 -.1 96.026 280.71)"><defs><path id="DejaVuSans-30" d="M2034 4250q-487 0-733-480-245-479-245-1442 0-959 245-1439 246-480 733-480 491 0 736 480 246 480 246 1439 0 963-246 1442-245 480-736 480zm0 500q785 0 1199-621 414-620 414-1801 0-1178-414-1799Q2819-91 2034-91q-784 0-1198 620-414 621-414 1799 0 1181 414 1801 414 621 1198 621z" transform="scale(.01563)"/></defs><use xlink:href="#DejaVuSans-30"/></g></g><g id="xtick_2"><use xlink:href="#mec8329dab7" id="line2d_2" x="168.958" y="266.112" style="fill:gray;stroke:gray;stroke-width:.8"/><g id="text_2" style="fill:gray" transform="matrix(.1 0 0 -.1 159.414 280.71)"><defs><path id="DejaVuSans-35" d="M691 4666h2478v-532H1269V2991q137 47 274 70 138 23 276 23 781 0 1237-428 457-428 457-1159 0-753-469-1171Q2575-91 1722-91q-294 0-599 50Q819 9 494 109v635q281-153 581-228t634-75q541 0 856 284 316 284 316 772 0 487-316 771-315 285-856 285-253 0-505-56-251-56-513-175v2344z" transform="scale(.01563)"/></defs><use xlink:href="#DejaVuSans-35"/><use xlink:href="#DejaVuSans-30" x="63.623"/><use xlink:href="#DejaVuSans-30" x="127.246"/></g></g><g id="xtick_3"><use xlink:href="#mec8329dab7" id="line2d_3" x="238.708" y="266.112" style="fill:gray;stroke:gray;stroke-width:.8"/><g id="text_3" style="fill:gray" transform="matrix(.1 0 0 -.1 225.982 280.71)"><defs><path id="DejaVuSans-31" d="M794 531h1031v3560L703 3866v575l1116 225h631V531h1031V0H794v531z" transform="scale(.01563)"/></defs><use xlink:href="#DejaVuSans-31"/><use xlink:href="#DejaVuSans-30" x="63.623"/><use xlink:href="#DejaVuSans-30" x="127.246"/><use xlink:href="#DejaVuSans-30" x="190.869"/></g></g><g id="xtick_4"><use xlink:href="#mec8329dab7" id="line2d_4" x="308.457" y="266.112" style="fill:gray;stroke:gray;stroke-width:.8"/><g id="text_4" style="fill:gray" transform="matrix(.1 0 0 -.1 295.733 280.71)"><use xlink:href="#DejaVuSans-31"/><use xlink:href="#DejaVuSans-35" x="63.623"/><use xlink:href="#DejaVuSans-30" x="127.246"/><use xlink:href="#DejaVuSans-30" x="190.869"/></g></g><g id="xtick_5"><use xlink:href="#mec8329dab7" id="line2d_5" x="378.207" y="266.112" style="fill:gray;stroke:gray;stroke-width:.8"/><g id="text_5" style="fill:gray" transform="matrix(.1 0 0 -.1 365.483 280.71)"><defs><path id="DejaVuSans-32" d="M1228 531h2203V0H469v531q359 372 979 998 621 627 780 809 303 340 423 576 121 236 121 464 0 372-261 606-261 235-680 235-297 0-627-103-329-103-704-313v638q381 153 712 231 332 78 607 78 725 0 1156-363 431-362 431-968 0-288-108-546-107-257-392-607-78-91-497-524-418-433-1181-1211z" transform="scale(.01563)"/></defs><use xlink:href="#DejaVuSans-32"/><use xlink:href="#DejaVuSans-30" x="63.623"/><use xlink:href="#DejaVuSans-30" x="127.246"/><use xlink:href="#DejaVuSans-30" x="190.869"/></g></g><g id="xtick_6"><use xlink:href="#mec8329dab7" id="line2d_6" x="447.957" y="266.112" style="fill:gray;stroke:gray;stroke-width:.8"/><g id="text_6" style="fill:gray" transform="matrix(.1 0 0 -.1 435.233 280.71)"><use xlink:href="#DejaVuSans-32"/><use xlink:href="#DejaVuSans-35" x="63.623"/><use xlink:href="#DejaVuSans-30" x="127.246"/><use xlink:href="#DejaVuSans-30" x="190.869"/></g></g><g id="xtick_7"><use xlink:href="#mec8329dab7" id="line2d_7" x="517.707" y="266.112" style="fill:gray;stroke:gray;stroke-width:.8"/><g id="text_7" style="fill:gray" transform="matrix(.1 0 0 -.1 504.983 280.71)"><defs><path id="DejaVuSans-33" d="M2597 2516q453-97 707-404 255-306 255-756 0-690-475-1069Q2609-91 1734-91q-293 0-604 58T488 141v609q262-153 574-231 313-78 654-78 593 0 904 234t311 681q0 413-289 645-289 233-804 233h-544v519h569q465 0 712 186t247 536q0 359-255 551-254 193-729 193-260 0-557-57-297-56-653-174v562q360 100 674 150t592 50q719 0 1137-327 419-326 419-882 0-388-222-655t-631-370z" transform="scale(.01563)"/></defs><use xlink:href="#DejaVuSans-33"/><use xlink:href="#DejaVuSans-30" x="63.623"/><use xlink:href="#DejaVuSans-30" x="127.246"/><use xlink:href="#DejaVuSans-30" x="190.869"/></g></g><g id="xtick_8"><use xlink:href="#mec8329dab7" id="line2d_8" x="587.457" y="266.112" style="fill:gray;stroke:gray;stroke-width:.8"/><g id="text_8" style="fill:gray" transform="matrix(.1 0 0 -.1 574.732 280.71)"><use xlink:href="#DejaVuSans-33"/><use xlink:href="#DejaVuSans-35" x="63.623"/><use xlink:href="#DejaVuSans-30" x="127.246"/><use xlink:href="#DejaVuSans-30" x="190.869"/></g></g><g id="xtick_9"><use xlink:href="#mec8329dab7" id="line2d_9" x="657.207" y="266.112" style="fill:gray;stroke:gray;stroke-width:.8"/><g id="text_9" style="fill:gray" transform="matrix(.1 0 0 -.1 644.482 280.71)"><defs><path id="DejaVuSans-34" d="M2419 4116 825 1625h1594v2491zm-166 550h794V1625h666v-525h-666V0h-628v1100H313v609l1940 2957z" transform="scale(.01563)"/></defs><use xlink:href="#DejaVuSans-34"/><use xlink:href="#DejaVuSans-30" x="63.623"/><use xlink:href="#DejaVuSans-30" x="127.246"/><use xlink:href="#DejaVuSans-30" x="190.869"/></g></g></g><g id="matplotlib.axis_2"><g id="ytick_1"><g id="line2d_10"><defs><path id="m2784df46a2" d="M0 0h-3.5" style="stroke:gray;stroke-width:.8"/></defs><use xlink:href="#m2784df46a2" x="71.308" y="254.816" style="fill:gray;stroke:gray;stroke-width:.8"/></g><g id="text_10" style="fill:gray" transform="matrix(.16 0 0 -.16 0 260.894)"><defs><path id="DejaVuSans-2212" d="M678 2272h4006v-531H678v531z" transform="scale(.01563)"/></defs><use xlink:href="#DejaVuSans-2212"/><use xlink:href="#DejaVuSans-33" x="83.789"/><use xlink:href="#DejaVuSans-30" x="147.412"/><use xlink:href="#DejaVuSans-30" x="211.035"/><use xlink:href="#DejaVuSans-30" x="274.658"/><use xlink:href="#DejaVuSans-30" x="338.281"/></g></g><g id="ytick_2"><use xlink:href="#m2784df46a2" id="line2d_11" x="71.308" y="220.982" style="fill:gray;stroke:gray;stroke-width:.8"/><g id="text_11" style="fill:gray" transform="matrix(.16 0 0 -.16 0 227.06)"><use xlink:href="#DejaVuSans-2212"/><use xlink:href="#DejaVuSans-32" x="83.789"/><use xlink:href="#DejaVuSans-30" x="147.412"/><use xlink:href="#DejaVuSans-30" x="211.035"/><use xlink:href="#DejaVuSans-30" x="274.658"/><use xlink:href="#DejaVuSans-30" x="338.281"/></g></g><g id="ytick_3"><use xlink:href="#m2784df46a2" id="line2d_12" x="71.308" y="187.148" style="fill:gray;stroke:gray;stroke-width:.8"/><g id="text_12" style="fill:gray" transform="matrix(.16 0 0 -.16 0 193.226)"><use xlink:href="#DejaVuSans-2212"/><use xlink:href="#DejaVuSans-31" x="83.789"/><use xlink:href="#DejaVuSans-30" x="147.412"/><use xlink:href="#DejaVuSans-30" x="211.035"/><use xlink:href="#DejaVuSans-30" x="274.658"/><use xlink:href="#DejaVuSans-30" x="338.281"/></g></g><g id="ytick_4"><use xlink:href="#m2784df46a2" id="line2d_13" x="71.308" y="153.314" style="fill:gray;stroke:gray;stroke-width:.8"/><use xlink:href="#DejaVuSans-30" id="text_13" style="fill:gray" transform="matrix(.16 0 0 -.16 54.127 159.392)"/></g><g id="ytick_5"><use xlink:href="#m2784df46a2" id="line2d_14" x="71.308" y="119.48" style="fill:gray;stroke:gray;stroke-width:.8"/><g id="text_14" style="fill:gray" transform="matrix(.16 0 0 -.16 13.408 125.558)"><use xlink:href="#DejaVuSans-31"/><use xlink:href="#DejaVuSans-30" x="63.623"/><use xlink:href="#DejaVuSans-30" x="127.246"/><use xlink:href="#DejaVuSans-30" x="190.869"/><use xlink:href="#DejaVuSans-30" x="254.492"/></g></g><g id="ytick_6"><use xlink:href="#m2784df46a2" id="line2d_15" x="71.308" y="85.646" style="fill:gray;stroke:gray;stroke-width:.8"/><g id="text_15" style="fill:gray" transform="matrix(.16 0 0 -.16 13.408 91.724)"><use xlink:href="#DejaVuSans-32"/><use xlink:href="#DejaVuSans-30" x="63.623"/><use xlink:href="#DejaVuSans-30" x="127.246"/><use xlink:href="#DejaVuSans-30" x="190.869"/><use xlink:href="#DejaVuSans-30" x="254.492"/></g></g><g id="ytick_7"><use xlink:href="#m2784df46a2" id="line2d_16" x="71.308" y="51.812" style="fill:gray;stroke:gray;stroke-width:.8"/><g id="text_16" style="fill:gray" transform="matrix(.16 0 0 -.16 13.408 57.89)"><use xlink:href="#DejaVuSans-33"/><use xlink:href="#DejaVuSans-30" x="63.623"/><use xlink:href="#DejaVuSans-30" x="127.246"/><use xlink:href="#DejaVuSans-30" x="190.869"/><use xlink:href="#DejaVuSans-30" x="254.492"/></g></g><g id="ytick_8"><use xlink:href="#m2784df46a2" id="line2d_17" x="71.308" y="17.978" style="fill:gray;stroke:gray;stroke-width:.8"/><g id="text_17" style="fill:gray" transform="matrix(.16 0 0 -.16 13.408 24.057)"><use xlink:href="#DejaVuSans-34"/><use xlink:href="#DejaVuSans-30" x="63.623"/><use xlink:href="#DejaVuSans-30" x="127.246"/><use xlink:href="#DejaVuSans-30" x="190.869"/><use xlink:href="#DejaVuSans-30" x="254.492"/></g></g></g><path id="line2d_18" d="m99.207 153.343.282-.058.282.057.282-.057h.564l.846.056.846-.055.846.056.282-.057.282.057.282-.057.282.058.282-.06.282.061.282-.061.282.062.282-.063.282.064.282-.066.281.068.282-.07.282.072.282-.073.282.075.282-.078.282.08.282-.083.282.087.282-.09.282.094.282-.099.282.104.282-.11.282.116.282-.123.282.132.282-.142.282.154.282-.17.282.189.282-.212.282.243.282-.285.282.345.281-.438.282.598.282-.884.564 21.223.564 7.478.564 1.854.282.491.282.84.282-.768.282-1.606.846-6.324.282-1.268.282-.676.282-.314.282-.725.282-.257.282.001.282-.468.564-3.177.282.445.281 1.97.282 1.161.282.102.282.599 1.41 13.61.564 5.943.282 1.702.282.11.282-2.375.282-5.031.282-7.845.564-26.647 1.128-68.658.564-16.712.282-2.226.281 1.647.282 5.517.564 20.593 1.41 60.599.564 14.062.564 8.831.282 2.072.282.39.282-1.124.564-3.782.564-1.85.564-1.639.846-3.729.281.23.564 1.62.282 1.292.564 4.405.282.93.282.33.564 2.312.564 1.874.282 1.783 1.128 10.668.282 1.055.282.051.282-1.704.282-4.303.282-7.436.564-26.015 1.127-72.392.564-17.846.282-3.015.282.56.282 3.39.282 7.1.564 29.152.846 44.913.564 16.886.564 5.891.564 3.94.564.703.282.272.282-.525.564-2.18.281-.633.564-1.84.564-.744.564-2.219.282-.157.282.328.564.02.282.707.564 2.857.564 4.558.846 8.377.846 10.732.282 1.438.282-.01.282-1.814.281-4.209.282-7.142.564-23.735 1.41-82.223.282-7.936.282-3.866.282-.164.282 3.623.282 7.77.564 25.468.846 39.636.564 18.166.564 10.992.564 6.463.282.944.281-.62.282-1.104.564-1.2.282-2.047.564-6.18.564-2.711.282-1.05.282.007.564 3.844.846 5.085.282.847.282-.152.282.463.282 2.435.564 6.347.564 5.649.563 7.707.564 3.961.282.785.282-.753.282-3.345.282-6.981.282-11.597.564-36.252.846-54.553.564-23.756.282-5.394.282-.881.282 3.014.282 7.336.564 25.872 1.41 71.73.281 4.991.564 4.787.282.914.282.056.282-.354.282-.851 1.128-5.063.282-1.682.282-.825.282-.476.282-.877.282-.236.282 1.733.564 4.519.282 1.095.282 2.036.564 5.406.564 4.94.563 5.11.282 1.207.282 2.075 1.128 12.398.282.952.282-1.11.282-3.818.282-7.3.564-27.08 1.41-94.212.564-17.969.282-4.555.282-.516.282 3.001.282 6.156.281 10.445.564 34.819.564 34.537.564 21.874.564 11.387.282 2.346.282 1.286.282.54.282-.258.282-.935 1.41-7.859.282-1.951.282-1.032.282.26.282.45.282.121.282.74.282 1.999.563 6.362.846 11.653.564 6.358.564 5.924 1.41 9.69.282.968.282-.986.282-3.855.282-7.2.282-11.319.564-35.461.846-60.931.563-26.678.282-8.008.282-4.186.282-.083.282 3.842.282 7.865.564 29.081.846 52.905.564 21.903.282 4.115.846 5.134.282.781.564-1.732.282-.014.282-.208.846-5.484.281.544.564 1.95.846 9.224.846 2.56.282.225.282-1.07.282-.401.282 1.795 1.974 20.87.282 2.123.282.356.282-2.167.282-4.385.282-7.493.563-29.91 1.41-96.303.564-20.129.282-3.588.282 1.368.282 6.42.564 26.509 1.128 71.875.282 10.705.282 5.8.564 5.938.282 1.378.282.158.282-.188.282-.49.563-2.785.282-.177.564 2.343.564 3.003.564 3.473.564 2.05.282.396.282.652.564 3.714 1.128 7.104.564 6.187.846 11.846.564 4.73.281 1.476.282-.085.282-2.27.282-5.364.282-9.868.564-33.632 1.41-102.442.564-23.024.282-4.461.282.06.282 3.41.282 6.791.282 11.652.564 38.533.846 59.994.282 11.237.281 5.473.564 3.19.282 1.655.282.66.282-.72.282-.286.282 1.077.282.552.564-2.736.282.91.282 2.096.282.89.282-.17.282.483.846 3.94.564 4.89.282 1.144.282.63.845 4.623.282.53.282 1.435.846 6.237.846 11.901.282.271.282-2.398.282-5.867.282-11.45.564-38.745 1.128-86.067.564-26.347.282-7.773.282-2.165.282 2.998.282 5.821.282 8.383.281 13.188 1.41 92.534.282 9.345.282 4.042.564 5.59.282 3.274.282 1.49.282-.186.282-.54.282-.286.282-.546.282-1.493.564-4.396.282-1.113.282-.374.282-.048.282.539 1.127 5.428.846 6.043.564 3.733.564 5.224.846 8.249.846 7.841.282-.184.282-2.972.282-6.047.282-10.289.564-34.19 1.128-79.356.563-26.102.282-7.394.282-2.384.282 1.758.282 5.014.282 9.132.564 33.176 1.128 76.903.282 8.187.564 6.132.282 1.893.282.83.282-.465.282-.815.564-.554.282-1.09.564-3.332.282.036 1.691 7.799.564 3.608.564 2.761.846 5.657 1.41 16.705.564 5.802.282 1.247.282.186.282-2.175.282-6.668.282-12.257.563-40.624.846-73.47.564-33.954.282-11.1.282-5.944.282-2.297.282-.1.282 2.949.282 6.94.564 22.59.564 39.672.564 39.748.282 10.296.564 9.812 1.41 13.177.563 2.655.282.144.282-.826.282-.063.564 3.662.282.522.282-.24.282.703.564 2.71.564.642.282.963.282 1.915.282 3.38 1.692 27.491.563 6.172.282 1.947.282-.088.282-3.21.282-7.484.282-13.853.846-70.032.846-65.475.564-24.894.564-12.112.282-1.568.282 2.472.282 5.544.282 9.066.564 32.876 1.127 77.466.282 8.77.282 4.204 1.128 8.527.282.7.282.1.564.853.282-.388.282-1.048.282-.11.282 1.68.564 4.11.564 1.8.564 5.379.282 2.454.282 1.279.282 1.868 1.127 17.39.564 11.685.282 1.57.282-2.718.846-12.658.564-17.642.282-15.217 1.692-123.42.564-20.021.564-9.21.282-.106.282 4.312.282 8.62.563 27.637 1.41 93.892.282 6.283.282 3.496.282 2.036 1.41 4.953.282.055.282-.116.282-.528.564-1.395.282-.22.282-.056.282.594.282 1.936 1.691 17.585.564 9.96 1.128 21.071.564 9.212.282 1.812.282-.944.282-4.685.282-9.597.564-35.027 1.692-136.644.563-23.019.282-5.266.282-1.06.282 1.594.282 3.204.282 5.74.282 10.162.564 35.369 1.128 83.938.282 8.499.282 4.191.564 4.222.564 1.592.282.643.282.106.564-.984.282-.099.282-.677.281-1.339.282-.352.282 1.672.564 4.19.282 1.627 1.128 11.703 1.41 20.507 1.41 21 .282-.346.282-5.15.282-9.421.282-14.667.564-44.987 1.127-101.658.564-29.801.282-7.713.282-3.713.282-.937.282 1.274.282 3.855.282 6.708.282 10.088.564 35.873.846 66.298.564 26.508.282 5.313.846 7.873.282-.222.281-1.136.282-.25.282-.03.282-1.57.564-4.757.282.582 1.128 9.347.564 3.735.564 5.513.846 11.504.846 14.485.846 16.657.282 2.732.281 1.135.282-.535.282-4.501.282-11.116.564-39.779 1.692-142.577.564-18.116.282-3.106.282.554.282 2.893.282 4.575.282 6.44.282 9.131.282 13.363.564 41.883.564 45.257.563 27.838.282 6.743.282 3.344.282.937.282-.65.846-3.94.564-4.859.282-.915.282.376.564 1.405.282 1.82 1.692 17.72.846 12.514 1.691 28.335.282 2.146.282 1.025.282.354.282-2.13.282-7.852.282-15.074.564-46.349 1.128-109.763.282-15.411.282-9.216.564-8.872.282-1.693.282.183.282 2.512.282 5.382.563 19.633.564 33.51.846 65.417.564 21.55.282 4.757.282 2.745.282 1.343.282.204.282-.307.282.048.564 1.09.564-.039.564.116.282.782 1.128 7.045.845 12.168.282 1.643.282 2.767.564 8.31.846 8.976.846 10.349.282 1.621.282-.65.282-3.717.282-8.381.282-15.176.564-49.115 1.128-105.507.282-12.318.563-10.209.564-5.362.282-.135.282 2.417.282 6.172.564 25.19.846 59.87.564 36.526.564 19.092.282 3.636.846 5.908.564 4.115.282.26.564-1.187.563-.547.282-.04.564 1.225.564-.21.282 1.381 1.128 10.174 1.128 17.49.564 10.449 1.128 14.452.282-2.14.282-7.936.282-15.185.563-47.272 1.128-110.63.564-20.034.564-10.987.282-2.04.282-.096.282 1.646.282 4.22.282 7.246.564 23.825.846 58.766.564 34.805.564 20.121.282 5.354.282 2.248.281.254.282.43.282 1.18.282.253.846-4.3.282-2.293.564-6.742.282-.721.282-.15.846-3.79.282-.75.564-3.105.282-.325.282.354.282-.113.282-.501.282.166.846 3.157.563-.836.564.665.282-.647.564-2.41.282-.141.282-.29.564-2.347.282-.083.564 1.717.282-.104.282-.308.282.13.282-.01.282-.988.564-2.72.282-.135.282.271.282-.025.282-.58.845-2.821.282-.007.564.546.282.167.282.411.282.878.846 4.31.846 4.95 1.128 9.827.846 8.079.564 4.393.845 10.628.846 11.34.846 16.965.564 4.067.282.08.282-4.68.282-12.471.564-48.559 1.128-118.097.282-17.993.282-9.34.282-3.909.282-2.251.282-.518.282 3.35.563 16.307.282 12.587.564 39.532.846 63.754.282 14.836.282 7.914.564 5.269.282 1.744.282.537.282-.07.564.96.282-.267.846-2.687.282-.176.846 1.281.282 2 .563 6.218.564 3.847 1.128 13.38 1.692 27.432.282 1.142.282-.416.282-2.707.282-6.662.282-12.049.564-41.22 1.128-101.346.281-12.899.564-11.095.564-7.706.282-1.203.282.716.282 2.464.282 5.604.564 21.855.564 30.102 1.128 70.52.282 9.185.282 4.8.282 1.145.282-.273.564-.29.282-.659.282-.344.282.262.281.035.282-.416.282.148.282 1.34.564 5.305.846 9.682.846 8.267.564 6.984.846 15.5.564 9.628.564 5.27.282-1.204.282-8.037.564-36.323.563-56.345.564-56 .282-15.378.564-16.604.564-11.672.282-3.047.282-.978.282 1.032.282 2.857.282 4.807.282 7.379.564 23.376.846 50.592.564 33.503.564 19.531.282 3.72.282 1.772.281.845.282-.389.564-2.291.282.48.282.79.564.385.282 1.36 1.41 11.653.564 5.552.564 7.241 1.692 27.468.282 2.632.281-.254.282-4.38.282-10.627.564-43.426.846-88.51.564-30.613.564-17.19.282-5.97.282-3.071.282-1.11.282.298.282 2.378.282 5.027.564 17.083.846 37.937 1.41 77.02.563 12.252.282 2.217.282-.264.564-1.528.282-.936.282-1.713.282-.957.282 1.042 1.128 8.573.564 4.407.282 2.242.564 11.258.564 9.728.564 9.966.563 9.783.564 5.976.282-.617.282-6.395.282-13.659.564-48.901.846-83.816.564-23.937.846-21.461.564-6.805.282-.558.282 1.898.282 4.142.564 12.917.563 19.456 1.128 52.918.564 29.11.564 17.438.282 4.606.282 2.551.282.605.282-.36.282-.162.282.42.282.852.282 1.48.564 5.89.564 5.003.564 3.017.564 5.618.563 7.76.564 11.882.564 13.326.564 9.134.282 2.948.282-1.586.282-8.56.564-35.15 1.128-109.188.846-33.256.564-12.578.846-9.753.282-2.716.281-.727.282 2.99.564 12.663.282 8.223.564 26.152 1.128 57.042.564 22.766.564 12.92.564 4.65.282 1.4.282.018.282-.91.282-.057.282 1.655.846 6.346.563 5.459 1.692 26.052.564 9.264.846 8.951.282-.182.282-6.075.282-12.488.564-45.928.564-58.465.564-31.75.846-31.265.282-6.681.281-3.713.282-1.851.282.057.282 2.731.846 14.572.564 16.845 1.128 43.88.846 34.823.564 13.416.564 10.06.282 1.819.282-.017.282.527.845 4.742 1.128 12.32 1.128 4.626.282 3.731 1.692 32.364.282 3.524.282-.644.282-6.238.282-13.498.564-53.188.564-55.812.563-27.98.564-19.717.564-11.51.564-6.823.282-1.403.282.201.282 2.202.282 4.851.564 16.91 1.974 66.965.564 16.056.564 10.159.845 11.52.564 3.537.846 9.158 1.128 13.844.282 2.27 1.128 14.22 1.692 29.413.282.266.282-4.272.282-10.677.282-19.779 1.127-105.582.564-29.042.564-16.23.564-10.792.282-1.657.564 1.13.282.369.282 2.583.564 12.347.846 28.973 1.41 44.98.845 20.304.564 7.988.564 5.73.564 3.16.282 2.736 1.128 18.4.282 1.324.564 1.398.282 1.546.564 5.534.564 8.836 1.128 20.67.281 4.288.282.433.282-5.003.282-11.378.282-19.96.846-85.266.564-27.7.564-21.435.564-12.906.282-4.571.282-2.494.282.162.282 1.823.282 3.053.282 5.078 1.41 38.854 1.41 42.05.563 10.823.846 6.974.282 1.788.564 1.583.282 2.533 1.128 17.043.564 11.225.846 11.41 2.255 43.823.282 1.2.282-4.478.282-10.51.282-17.592 1.128-99.689.846-36.514.564-16.692.282-5.236.282-2.805.282-1.088.282.053.282 1.741.282 4.215.563 14.114 2.256 63.519.282 5.654.282 3.051.282 1.506.846 6.178.282.007.282.69 1.128 11.145 1.973 26.333.564 11.038 1.41 38.923.282 4.75.282 1.003.282-3.834.282-11.687.564-49.375.564-46.354.846-43.478.564-17.25.564-10.724.282-2.983.281-1.02.282 1.133.564 5.54.282 4.218.564 16.622.564 18.027.846 19.632 1.41 26.279.282 2.45.282.96.564.42.282 1.09.564 4.234.563 7.615.564 7.516.564 2.699.564 4.469.282 1.424.282 2.103.564 9.543 1.41 29.537.282 3.033.282-.11.282-7.147.564-37.836.564-38.783.845-43.073.564-18.636.564-11.34.282-3.578.282-.807.564 2.697.282 2.03.282 4.409 1.128 29.585.564 16.877 1.128 22.684.564 3.324.282 2.716.282 1.547.282-.597.281-.242.282 2.213.564 5.862.564 4.21 1.692 16.845 1.128 13.294 1.41 23.019.282 1.52.282-1.527.282-5.801.282-11.229 1.691-92.402.564-19.593.564-10.387.282-2.475.282-1.104.282.518.282 2.684.564 10.085.564 13.748 1.41 40.857.282 6.95.282 3.99.281.14h0" clip-path="url(#p36762c0412)" style="fill:none;stroke:#1f77b4;stroke-width:1.5;stroke-linecap:square"/><path id="patch_3" d="M71.308 266.112V0" style="fill:none;stroke:gray;stroke-width:.8;stroke-linejoin:miter;stroke-linecap:square"/><path id="patch_4" d="M685.107 266.112V0" style="fill:none;stroke:#000;stroke-width:.8;stroke-linejoin:miter;stroke-linecap:square"/><path id="patch_5" d="M71.308 266.112h613.8" style="fill:none;stroke:gray;stroke-width:.8;stroke-linejoin:miter;stroke-linecap:square"/><path id="patch_6" d="M71.308 0h613.8" style="fill:none;stroke:#000;stroke-width:.8;stroke-linejoin:miter;stroke-linecap:square"/></g></g><defs><clipPath id="p36762c0412"><path d="M71.308 0h613.8v266.112h-613.8z"/></clipPath></defs></svg>