<svg xmlns="http://www.w3.org/2000/svg" xmlns:xlink="http://www.w3.org/1999/xlink" width="913.477" height="377.053" viewBox="0 0 685.107 282.79"><defs><style>*{stroke-linejoin:round;stroke-linecap:butt}</style></defs><g id="figure_1"><path id="patch_1" d="M0 282.79h685.107V0H0v282.79z" style="fill:none"/><g id="axes_1"><path id="patch_2" d="M71.308 266.112h613.8V0h-613.8v266.112z" style="fill:none"/><g id="matplotlib.axis_1"><g id="xtick_1"><g id="line2d_1"><defs><path id="mbf843e3601" d="M0 0v3.5" style="stroke:gray;stroke-width:.8"/></defs><use xlink:href="#mbf843e3601" x="99.207" y="266.112" style="fill:gray;stroke:gray;stroke-width:.8"/></g><g id="text_1" style="fill:gray" transform="matrix(.1 0 0 -.1 96.026 280.71)"><defs><path id="DejaVuSans-30" d="M2034 4250q-487 0-733-480-245-479-245-1442 0-959 245-1439 246-480 733-480 491 0 736 480 246 480 246 1439 0 963-246 1442-245 480-736 480zm0 500q785 0 1199-621 414-620 414-1801 0-1178-414-1799Q2819-91 2034-91q-784 0-1198 620-414 621-414 1799 0 1181 414 1801 414 621 1198 621z" transform="scale(.01563)"/></defs><use xlink:href="#DejaVuSans-30"/></g></g><g id="xtick_2"><use xlink:href="#mbf843e3601" id="line2d_2" x="168.958" y="266.112" style="fill:gray;stroke:gray;stroke-width:.8"/><g id="text_2" style="fill:gray" transform="matrix(.1 0 0 -.1 159.414 280.71)"><defs><path id="DejaVuSans-35" d="M691 4666h2478v-532H1269V2991q137 47 274 70 138 23 276 23 781 0 1237-428 457-428 457-1159 0-753-469-1171Q2575-91 1722-91q-294 0-599 50Q819 9 494 109v635q281-153 581-228t634-75q541 0 856 284 316 284 316 772 0 487-316 771-315 285-856 285-253 0-505-56-251-56-513-175v2344z" transform="scale(.01563)"/></defs><use xlink:href="#DejaVuSans-35"/><use xlink:href="#DejaVuSans-30" x="63.623"/><use xlink:href="#DejaVuSans-30" x="127.246"/></g></g><g id="xtick_3"><use xlink:href="#mbf843e3601" id="line2d_3" x="238.708" y="266.112" style="fill:gray;stroke:gray;stroke-width:.8"/><g id="text_3" style="fill:gray" transform="matrix(.1 0 0 -.1 225.982 280.71)"><defs><path id="DejaVuSans-31" d="M794 531h1031v3560L703 3866v575l1116 225h631V531h1031V0H794v531z" transform="scale(.01563)"/></defs><use xlink:href="#DejaVuSans-31"/><use xlink:href="#DejaVuSans-30" x="63.623"/><use xlink:href="#DejaVuSans-30" x="127.246"/><use xlink:href="#DejaVuSans-30" x="190.869"/></g></g><g id="xtick_4"><use xlink:href="#mbf843e3601" id="line2d_4" x="308.457" y="266.112" style="fill:gray;stroke:gray;stroke-width:.8"/><g id="text_4" style="fill:gray" transform="matrix(.1 0 0 -.1 295.733 280.71)"><use xlink:href="#DejaVuSans-31"/><use xlink:href="#DejaVuSans-35" x="63.623"/><use xlink:href="#DejaVuSans-30" x="127.246"/><use xlink:href="#DejaVuSans-30" x="190.869"/></g></g><g id="xtick_5"><use xlink:href="#mbf843e3601" id="line2d_5" x="378.207" y="266.112" style="fill:gray;stroke:gray;stroke-width:.8"/><g id="text_5" style="fill:gray" transform="matrix(.1 0 0 -.1 365.483 280.71)"><defs><path id="DejaVuSans-32" d="M1228 531h2203V0H469v531q359 372 979 998 621 627 780 809 303 340 423 576 121 236 121 464 0 372-261 606-261 235-680 235-297 0-627-103-329-103-704-313v638q381 153 712 231 332 78 607 78 725 0 1156-363 431-362 431-968 0-288-108-546-107-257-392-607-78-91-497-524-418-433-1181-1211z" transform="scale(.01563)"/></defs><use xlink:href="#DejaVuSans-32"/><use xlink:href="#DejaVuSans-30" x="63.623"/><use xlink:href="#DejaVuSans-30" x="127.246"/><use xlink:href="#DejaVuSans-30" x="190.869"/></g></g><g id="xtick_6"><use xlink:href="#mbf843e3601" id="line2d_6" x="447.957" y="266.112" style="fill:gray;stroke:gray;stroke-width:.8"/><g id="text_6" style="fill:gray" transform="matrix(.1 0 0 -.1 435.233 280.71)"><use xlink:href="#DejaVuSans-32"/><use xlink:href="#DejaVuSans-35" x="63.623"/><use xlink:href="#DejaVuSans-30" x="127.246"/><use xlink:href="#DejaVuSans-30" x="190.869"/></g></g><g id="xtick_7"><use xlink:href="#mbf843e3601" id="line2d_7" x="517.707" y="266.112" style="fill:gray;stroke:gray;stroke-width:.8"/><g id="text_7" style="fill:gray" transform="matrix(.1 0 0 -.1 504.983 280.71)"><defs><path id="DejaVuSans-33" d="M2597 2516q453-97 707-404 255-306 255-756 0-690-475-1069Q2609-91 1734-91q-293 0-604 58T488 141v609q262-153 574-231 313-78 654-78 593 0 904 234t311 681q0 413-289 645-289 233-804 233h-544v519h569q465 0 712 186t247 536q0 359-255 551-254 193-729 193-260 0-557-57-297-56-653-174v562q360 100 674 150t592 50q719 0 1137-327 419-326 419-882 0-388-222-655t-631-370z" transform="scale(.01563)"/></defs><use xlink:href="#DejaVuSans-33"/><use xlink:href="#DejaVuSans-30" x="63.623"/><use xlink:href="#DejaVuSans-30" x="127.246"/><use xlink:href="#DejaVuSans-30" x="190.869"/></g></g><g id="xtick_8"><use xlink:href="#mbf843e3601" id="line2d_8" x="587.457" y="266.112" style="fill:gray;stroke:gray;stroke-width:.8"/><g id="text_8" style="fill:gray" transform="matrix(.1 0 0 -.1 574.732 280.71)"><use xlink:href="#DejaVuSans-33"/><use xlink:href="#DejaVuSans-35" x="63.623"/><use xlink:href="#DejaVuSans-30" x="127.246"/><use xlink:href="#DejaVuSans-30" x="190.869"/></g></g><g id="xtick_9"><use xlink:href="#mbf843e3601" id="line2d_9" x="657.207" y="266.112" style="fill:gray;stroke:gray;stroke-width:.8"/><g id="text_9" style="fill:gray" transform="matrix(.1 0 0 -.1 644.482 280.71)"><defs><path id="DejaVuSans-34" d="M2419 4116 825 1625h1594v2491zm-166 550h794V1625h666v-525h-666V0h-628v1100H313v609l1940 2957z" transform="scale(.01563)"/></defs><use xlink:href="#DejaVuSans-34"/><use xlink:href="#DejaVuSans-30" x="63.623"/><use xlink:href="#DejaVuSans-30" x="127.246"/><use xlink:href="#DejaVuSans-30" x="190.869"/></g></g></g><g id="matplotlib.axis_2"><g id="ytick_1"><g id="line2d_10"><defs><path id="mbc802c838c" d="M0 0h-3.5" style="stroke:gray;stroke-width:.8"/></defs><use xlink:href="#mbc802c838c" x="71.308" y="218.844" style="fill:gray;stroke:gray;stroke-width:.8"/></g><g id="text_10" style="fill:gray" transform="matrix(.16 0 0 -.16 0 224.923)"><defs><path id="DejaVuSans-2212" d="M678 2272h4006v-531H678v531z" transform="scale(.01563)"/></defs><use xlink:href="#DejaVuSans-2212"/><use xlink:href="#DejaVuSans-32" x="83.789"/><use xlink:href="#DejaVuSans-30" x="147.412"/><use xlink:href="#DejaVuSans-30" x="211.035"/><use xlink:href="#DejaVuSans-30" x="274.658"/><use xlink:href="#DejaVuSans-30" x="338.281"/></g></g><g id="ytick_2"><use xlink:href="#mbc802c838c" id="line2d_11" x="71.308" y="165.768" style="fill:gray;stroke:gray;stroke-width:.8"/><use xlink:href="#DejaVuSans-30" id="text_11" style="fill:gray" transform="matrix(.16 0 0 -.16 54.127 171.847)"/></g><g id="ytick_3"><use xlink:href="#mbc802c838c" id="line2d_12" x="71.308" y="112.693" style="fill:gray;stroke:gray;stroke-width:.8"/><g id="text_12" style="fill:gray" transform="matrix(.16 0 0 -.16 13.408 118.772)"><use xlink:href="#DejaVuSans-32"/><use xlink:href="#DejaVuSans-30" x="63.623"/><use xlink:href="#DejaVuSans-30" x="127.246"/><use xlink:href="#DejaVuSans-30" x="190.869"/><use xlink:href="#DejaVuSans-30" x="254.492"/></g></g><g id="ytick_4"><use xlink:href="#mbc802c838c" id="line2d_13" x="71.308" y="59.617" style="fill:gray;stroke:gray;stroke-width:.8"/><g id="text_13" style="fill:gray" transform="matrix(.16 0 0 -.16 13.408 65.696)"><use xlink:href="#DejaVuSans-34"/><use xlink:href="#DejaVuSans-30" x="63.623"/><use xlink:href="#DejaVuSans-30" x="127.246"/><use xlink:href="#DejaVuSans-30" x="190.869"/><use xlink:href="#DejaVuSans-30" x="254.492"/></g></g><g id="ytick_5"><use xlink:href="#mbc802c838c" id="line2d_14" x="71.308" y="6.542" style="fill:gray;stroke:gray;stroke-width:.8"/><g id="text_14" style="fill:gray" transform="matrix(.16 0 0 -.16 13.408 12.62)"><defs><path id="DejaVuSans-36" d="M2113 2584q-425 0-674-291-248-290-248-796 0-503 248-796 249-292 674-292t673 292q248 293 248 796 0 506-248 796-248 291-673 291zm1253 1979v-575q-238 112-480 171-242 60-480 60-625 0-955-422-329-422-376-1275 184 272 462 417 279 145 613 145 703 0 1111-427 408-426 408-1160 0-719-425-1154Q2819-91 2113-91q-810 0-1238 620-428 621-428 1799 0 1106 525 1764t1409 658q238 0 480-47t505-140z" transform="scale(.01563)"/></defs><use xlink:href="#DejaVuSans-36"/><use xlink:href="#DejaVuSans-30" x="63.623"/><use xlink:href="#DejaVuSans-30" x="127.246"/><use xlink:href="#DejaVuSans-30" x="190.869"/><use xlink:href="#DejaVuSans-30" x="254.492"/></g></g></g><path id="line2d_15" d="m99.207 165.808.282-.077.282.074.282-.072.282.07.282-.068.282.067.282-.066.282.064.282-.063.282.062.282-.061.282.06.282-.06.282.06.282-.059.282.058.282-.058.282.058.282-.057.282.057.282-.057.282.057.282-.058.282.059.282-.06.281.06.282-.06.282.061.282-.062.282.063.282-.064.282.065.282-.066.282.068.282-.07.282.072.282-.075.282.078.282-.081.282.085.282-.09.282.096.282-.102.282.11.282-.12.282.131.282-.145.282.164.282-.191.282.23.281-.29.282.4.282-.66.282 2.155.282 3.385.282-.571.282.754.282.34.846 3.328.564 1.033.282.309.282.578.846.727.846 3.49.282.503.564 2.122.282.259.282-1.286.281-2.96.282-5.7.564-22.423.846-41.147.282-9.91.282-5.267.282.804.282 6.688.564 25.261.846 44.697.282 7.732.282 3.566.564 3.003.282.951.282-.236.846-3.7.281-.665.282-1.372.846-6.274.564-1.777.564-2.274.282.07.564.926.282.185.282.612 1.41 4.793.846 2.657.846 1.491.845 3.38.282.814.564 3.052.282-.595.282-4.05.282-7.233.564-24.321 1.128-64.944.282-8.04.282-3.055.282 3.38.282 10.235.564 35.802.564 39.705.282 12.957.282 6.89.282 2.926.281 1.133.282.052.282-.952 2.82-15.24.564-1.431.564-.958.282-.202.282-.011.282.13.282.788.846 4.568.282.185.281.87.564 4.327.282.934.282-.133.282.183.564 1.714.564-.279.564 2.833.282.161.282-1.622.282-2.741.282-4.67.282-8.823.564-31.175.846-48.016.282-8.2.282-2.962.282 2.42.281 8.555.564 34.398.564 36.412.564 18.688.282 3.558.282 1.314.282.257.282-.359.282-1.277.282-1.829.282-1.068.282.088.282-.256.564-3.281.282-.233.282.301.282-1.039.564-3.522.282.025.282-.135.563-3.132.282-.057 1.128 6.758.564 1.99.282.95.282.246.282-.278.282-.025 1.128 2.74.564 2.974.282.774.282.275.282.078.282-1.365.282-4.605.564-19.988 1.41-67.235.281-3.844.282 2.636.282 7.744.564 26.459.564 35.105.282 11.243.282 5.53.564 5.278.282.932.282-.443.846-2.745 1.41-7.388.281-.665.564-.657.846-1.648.282.326.564 2.276 1.128 5.43.564 3.868.282.289.282.039.282.38.282-.01.282-.634.282-.027 1.41 7.226.281-.045.282-2.49.282-5.051.282-8.124.564-29.369.846-48.74.282-9.775.282-5.016.282.433.282 5.888.282 11.444 1.41 79.888.282 3.616.282 1.421.282.417.282-.804.845-5.509.564-.466.564-1.195.282.272.564 2.305.282.326.564-1.969.282.121.282.609.282-.395.282-.861.282.56.564 3.345.282.388.282.77.564 2.758.282.746 1.127 5.247.564 4.016.564 3.35.282.956.282-.5.282-3.337.282-6.946.282-11.424.564-37.33.846-57.237.282-12.35.282-6.982.282-1.367.282 3.817.282 9.83.564 40.371.564 44.837.281 14.425.282 8.328.282 3.447.282.443.846-1.77.282-.108.282.17.564.502.282-.393.846-3.026.282-.714.846-5.498.282.011.564 1.553.282 1.229.845 4.803.564 3.486.564 2.832.282 1.325 1.41 11.094.846 6.29.282.676.282-.823.282-4.082.282-9.582.564-36.97 1.128-88.42.282-13.402.282-8.053.281-2.11.282 4.374.282 10.749.564 39.78.846 73.317.282 11.328.282 5.12.282 2.198.282.903.282.071.282-.35.282-.554.846-2.551.282-1.123.846-5.302.282-.56.282-.996.845-6.037.282-.636.282-.103.282.61 1.128 6.35.564 2.093 1.41 9.03 1.41 14.859.282 1.026.282-.857.282-4.15.282-9.544.563-36.728 1.128-85.381.282-12.738.282-7.443.282-2.395.282 3.435.282 9.957.564 38.997.846 74.513.282 10.971.282 4.354.282 1.582.282.541.282-.237.282-.824 1.128-5.316.845-4.537.282-.016.282-.696.564-4.824.282-.842.282.212.282-.329.282-.66.282.58 1.128 7.768.564 4.734.846 7.115.564 5.583 1.127 12.148.282.48.282-2.292.282-5.563.282-10.069.564-36.231 1.128-84.453.564-23.193.282-3.27.282 3.046.282 9.75.564 37.026.846 71.781.282 13.105.282 6.595.282 3.11.282 1.331.281.179.282-.442.282-.995.564-4.68.282-2.168.846-3.697.564-3.16.282-.149.564.753.282.196.282.688.846 4.537.282.76.282 1.242.564 5.026 1.691 18.379.564 7.374.282 1.332.282-.208.282-1.89.282-5.765.282-12.114.564-40.75 1.128-97.337.564-29.962.282-7.513.282.867.282 9.82.564 37.195 1.41 113.619.281 8.618.282 3.304.282-.077.564-2.206.282-.33.282-.528.564-2.441.564-3.027.564-3.69.282-1.321.282-.75.282.15.282.865.282.484.282-.308.282.161.282 1.852.563 4.983.282 1.792.282 3.024 1.128 19.538.564 8.45.282 4.548.282 2.27.282.027.282-.92.282-2.609.282-7.229.282-13.909.564-45.64 1.41-131.288.282-14.471.282-3.582.281 5.456.564 22.824.564 37.677 1.41 110.472.282 7.729.282 2.525.282.784.282.101.282-.792.564-3.802.564-4.118.564-1.664.564-2.188.282.811.282 1.767.282 1.035.281.133.282.704.846 5.256.282.788.282 1.39.846 6.846.564 7.63.846 14.729.564 4.713.282 1.728.282.09.282-4.544.282-10.588.564-38.1 1.691-154.792.282-11.553.282-.81.282 7.129.564 25.327.564 37.381 1.128 88.378.564 23.376.282 3.363.282-.386.282-1.034.282-.269.282-.625.564-3.781.282-.756.281-.145.846-1.571.846.754.282-.071.282-.428.282.193 1.128 7.132.564 6.109.846 10.432.564 8.723.564 4.235.282.847.282.15.282-.762.281-3.588.282-9.173.564-36.68L316.6 31.88l.282-11.01.282-1.212.282 6.786.564 24.085.564 35.586 1.128 84.952.564 22.639.282 4.027.282 1.41.281.131.282-.693.564-2.616.564-3.375.282-.7.846.925.282.686.564 2.284.282.377.282.605.846 3.833.846 6.24.564 6.417 1.691 19.078.282 1.862.282.317.282-3.445.282-8.864.282-14.89.564-47.236 1.41-134.534.282-11.512.282-.365.564 14.47.282 9.23.564 30.33 1.691 110.755.282 9.195.282 5.556.282 2.531.564 1.335.282.46.282-.423.282-1.013.282-.256.564 1.787.282.372.282.125.282.353.282.79.564 3.081.846 5.962.845 7.937 1.128 18.166.564 5.836.564 5.515.282.564.282-1.616.282-5.467.282-11.54.564-43.732 1.41-144.226.282-12.711.282-3.816.564-.554.282.548.282 3.199.281 6.822.564 25.239 1.974 115.754.564 14.666.564 5.85.564 2.429.282 1.32.564 4.905.282 1.2.282.224.282.877 2.82 20.925.845 9.708.564 4.063.846 9.363.282-1.131.282-5.077.282-10.164.282-17.295.564-52.818 1.128-112.719.281-11.457.564-11.257.282-4.179.282-.035.282 4.94.564 17.536.564 25.358 1.692 99.484.564 16.942.282 4.14.564 3.998.564 3.006.282.695.282.159.282.617.281 1.07.282.547.282.11.282 1.034.846 7.246.846 4.92 1.128 8.943.564 5.21.846 10.28.282 4.167.282 2.505.282-.62.282-4.45.282-9.83.563-39.907 1.41-134.901.564-23.057.282-7.24.282-2.426.282 3.433.564 15.41.564 21.633 1.128 63.398.846 47.265.564 16.574.563 6.504.564 4.105.282 1.064.282.229.282-.044.282.557.846 3.617.282.343.282.566.564 2.346.282 1.665.846 7.074.282 1.33.282 1.976 1.41 15.723.282 4.136.281 1.982.282-.503.282-4.107.282-10.22.564-39.736 1.41-127.357.564-21.903.282-3.307.282 1.064.282 4.04.564 15.117.846 33.009 1.128 44.303 1.127 36.371.564 10.57.564 6.153.282 2.272.846 4.161.846 6.404 1.974 20.484.282 2.32.282 1.275.282.293.281 1.116.564 7.536.846 11.617.282 1.264.282-3.974.282-10.018.564-36.774 1.41-139.753.282-10.587.282-4.703.282-1.53.282-.017.282 1.375.282 3.21.564 11.49.564 18.562 1.127 48.847.846 39.713.846 32.802.564 12.09.282 3.1.564 2.91.282.928.282.493.564-.343.282.21.564 1.498.846 2.987.845 3.622.846 4.72.282 2.455.564 8.977.564 9.321.282 1.248.282-3.277.282-9.605.282-16.98.564-56.42.846-96.096.282-13.817.282-6.298.564-6.565.282-.912.282 1.134.281 2.389.282 3.4.282 5.024.564 17.926 2.256 95.52 1.128 36.317.564 6.858.564 4.439.282 1.31.282.493.845.44.282-.187.564-.69.282.395.282 1.475.564 4.256.564 2.955 1.692 17.748.282 3.758.282 1.134.282-2.866.282-8.032.282-14.417.564-50.911.845-94.418.282-15.614.282-6.897.564-5.07.282-1.7.282-.012.282 2.536.564 10.07.564 14.414 1.128 40.848 1.974 81.211.564 12.864.282 3.714.281 1.892.282.8.564.717.564.663.282-.038.564-1.082.282.37.282.82.282.456.282.221.282.747.564 3.067.564 4.457.564 6.868.846 10.932.282 1.075.282-2.594.281-8.36.282-15.112.564-50.095.846-90.945.282-12.34.564-9.203.282-3.237.282-.728.282 1.717.282 2.941.564 9.931.564 14.902 1.692 57.41.845 31.069.846 24.246.564 11.137.564 5.953.564 2.49.846 1.902.846 3.787.282.974.846 6.486.282-.2.282-.485.282 1.45 1.691 22.019.282-.757.282-8.838.282-16.792.564-55.416.564-69.466.282-22.106.282-10.158.282-3.61.564-4.27.282-1.22.282.585.282 2.986.564 11.727 1.128 28.648 1.127 33.777.846 24.455.846 20.623 1.128 18.221 1.41 9.973.282 1.077 1.128 6.699.564 2.762.563 5.464.564 5.997.564 9.765.564 10.252.282 3.554.282.652.282-4.86.282-10.964.282-16.944.564-60.783.564-66.618.282-13.432 1.128-17.185.282-.817.282.923.282 2.032.281 3.46.564 12.283 1.692 50.207.846 28.318.564 12.13.846 15.149.282 2.034 1.41 4.47.845 1.849.282 1.493 2.256 23.58 1.128 17.371.846 15.918.282.814.282-5.136.282-11.677.282-19.403.564-65.402.564-58.048.282-10.18 1.127-13.495.282-.153.282 1.47.282 2.704.564 9.938.846 23.215.846 25.078 1.128 29.78 1.41 20.01.563 4.92.282 1.457.282.44.282.14.282.473.282 1.084.564 4.086 1.41 9.552.282 1.57.282 2.596 1.41 21.646.564 9.414.282 2.107.282.314.282-3.42.281-10.198.282-18.624 1.128-104.39.282-10.045.564-7.056.564-4.456.282-.327.282 1.172.564 5.99.282 4.103.564 13.856 1.692 47.09 1.127 20.394.282 2.527.564 2.208.564 3.193.282.704.282.096.282.396.564 2.516.564 2.98.564 3.767.846 3.055.564 3.796.846 9.271 1.127 13.004.282-.747.282-5.978.282-13.456.846-62.365.564-19.182.846-15.782.282-3.74.282-2.233.282-.31.282 1.466.282 2.831.564 9.156.564 11.835 1.127 29.027.846 15.883.282 3.09.564 3.135.564 2.193.564 2.83.282-.488.564-3.529.282.058.564 1.322.282.554 1.41 6.143.564 3.211.845 7.853.564 7.125.564 7.866.282 2.188.282-.815.282-6.254.564-29.148.564-27.268.564-16.643.564-10.855.846-10.35.282-1.089.282.063.282 1.019.282 3.134 1.41 30.738.845 16.879.564 6.991.564 4.596.282 1.6.282.482.564-.609.282.127.282-.555.564-2.884.282.333.282.905.282-.234.282-.823.282.595.563 4.677.564 2.666.564 4.753.846 6.676.564 4.62.846 9.515.282 1.474.282-.345.282-3.97.282-9.167 1.128-49.401.564-15.234.564-10.693.281-3.525.282-1.476.282-.124.282.253.282 1.396.282 3.851 2.256 43.479.846 9.663.282 2.314.282.792.564-1.06.282-.005.282-.35.282-.908.282-.48 1.127 1.497 1.128 3.262 1.128 5.035 1.128 8.603.846 8.104.564 5.212.282.726.282-2.379.282-7.105 1.41-55.263 1.127-17.615.282-2.942.282-1.1.282.352.282 1.511.282 2.741.564 8.64 1.41 26.75.564 7.742.846 6.58.282 1.181.281-.236.564-2.277.282-.241.282.705.564 2.285.282.27.282-.213.282.152.846 2.35.282.657 1.974 9.315.564 4.064.846 7.02.281 1.07.282-1.742.282-5.783 1.41-44.904.846-16.66.564-6.003.282-1.39.282-.47.282 1.013.564 6.653.846 14.142.846 12.878.845 11.915.282 1.001.282.155.564.722.282-.339.282-.76.282-.243.282.704.564 2.194.282.677.846 1.03.846 3.227.282 1.143 2.255 13.274.564 4.486.282 1.31.282-.425.282-3.036.282-6.245 1.41-42.607.564-10.37.846-10.586.282-.597.282.489.282.936.282 2.194.564 9.157 1.127 19.34.564 7.254.564 4.591.282 1.256.282.695 1.41 1.465.282.138.282-.067.564-.6.282.453.564 3.144.564 2.817.564 1.957.281 1.162.282.38.282-.35.282.292 1.128 6.118.846 7.495.282 1.034.282-.622.282-3.64.564-15.742.846-23.364.846-17.237.564-7.293.282-1.515.281-.298.282.733.282 1.943.564 6.973 1.692 28.43.564 4.957.564 2.768.282.26.564-.944.282.078 1.692 2.533.563.233.282.266 1.692 3.642.564 2.254.282 1.12.564.723.282 1.575.564 4.548.564 2.368.282.376.282-2.43.564-13.765.846-21.741.845-17.12.282-3.467.282-1.838.282-.93.282-.513.282 1.147.282 3.286 1.692 27.515.564 6.525.846 5.629.282.47.282-.178.282-.452.282.934.282-.134.281.333h0" clip-path="url(#p7bd063daeb)" style="fill:none;stroke:#1f77b4;stroke-width:1.5;stroke-linecap:square"/><path id="patch_3" d="M71.308 266.112V0" style="fill:none;stroke:gray;stroke-width:.8;stroke-linejoin:miter;stroke-linecap:square"/><path id="patch_4" d="M685.107 266.112V0" style="fill:none;stroke:#000;stroke-width:.8;stroke-linejoin:miter;stroke-linecap:square"/><path id="patch_5" d="M71.308 266.112h613.8" style="fill:none;stroke:gray;stroke-width:.8;stroke-linejoin:miter;stroke-linecap:square"/><path id="patch_6" d="M71.308 0h613.8" style="fill:none;stroke:#000;stroke-width:.8;stroke-linejoin:miter;stroke-linecap:square"/></g></g><defs><clipPath id="p7bd063daeb"><path d="M71.308 0h613.8v266.112h-613.8z"/></clipPath></defs></svg>