<svg xmlns="http://www.w3.org/2000/svg" xmlns:xlink="http://www.w3.org/1999/xlink" width="913.477" height="377.053" viewBox="0 0 685.107 282.79"><defs><style>*{stroke-linejoin:round;stroke-linecap:butt}</style></defs><g id="figure_1"><path id="patch_1" d="M0 282.79h685.107V0H0v282.79z" style="fill:none"/><g id="axes_1"><path id="patch_2" d="M71.308 266.112h613.8V0h-613.8v266.112z" style="fill:none"/><g id="matplotlib.axis_1"><g id="xtick_1"><g id="line2d_1"><defs><path id="mb2b50952df" d="M0 0v3.5" style="stroke:gray;stroke-width:.8"/></defs><use xlink:href="#mb2b50952df" x="99.207" y="266.112" style="fill:gray;stroke:gray;stroke-width:.8"/></g><g id="text_1" style="fill:gray" transform="matrix(.1 0 0 -.1 96.026 280.71)"><defs><path id="DejaVuSans-30" d="M2034 4250q-487 0-733-480-245-479-245-1442 0-959 245-1439 246-480 733-480 491 0 736 480 246 480 246 1439 0 963-246 1442-245 480-736 480zm0 500q785 0 1199-621 414-620 414-1801 0-1178-414-1799Q2819-91 2034-91q-784 0-1198 620-414 621-414 1799 0 1181 414 1801 414 621 1198 621z" transform="scale(.01563)"/></defs><use xlink:href="#DejaVuSans-30"/></g></g><g id="xtick_2"><use xlink:href="#mb2b50952df" id="line2d_2" x="168.958" y="266.112" style="fill:gray;stroke:gray;stroke-width:.8"/><g id="text_2" style="fill:gray" transform="matrix(.1 0 0 -.1 159.414 280.71)"><defs><path id="DejaVuSans-35" d="M691 4666h2478v-532H1269V2991q137 47 274 70 138 23 276 23 781 0 1237-428 457-428 457-1159 0-753-469-1171Q2575-91 1722-91q-294 0-599 50Q819 9 494 109v635q281-153 581-228t634-75q541 0 856 284 316 284 316 772 0 487-316 771-315 285-856 285-253 0-505-56-251-56-513-175v2344z" transform="scale(.01563)"/></defs><use xlink:href="#DejaVuSans-35"/><use xlink:href="#DejaVuSans-30" x="63.623"/><use xlink:href="#DejaVuSans-30" x="127.246"/></g></g><g id="xtick_3"><use xlink:href="#mb2b50952df" id="line2d_3" x="238.708" y="266.112" style="fill:gray;stroke:gray;stroke-width:.8"/><g id="text_3" style="fill:gray" transform="matrix(.1 0 0 -.1 225.982 280.71)"><defs><path id="DejaVuSans-31" d="M794 531h1031v3560L703 3866v575l1116 225h631V531h1031V0H794v531z" transform="scale(.01563)"/></defs><use xlink:href="#DejaVuSans-31"/><use xlink:href="#DejaVuSans-30" x="63.623"/><use xlink:href="#DejaVuSans-30" x="127.246"/><use xlink:href="#DejaVuSans-30" x="190.869"/></g></g><g id="xtick_4"><use xlink:href="#mb2b50952df" id="line2d_4" x="308.457" y="266.112" style="fill:gray;stroke:gray;stroke-width:.8"/><g id="text_4" style="fill:gray" transform="matrix(.1 0 0 -.1 295.733 280.71)"><use xlink:href="#DejaVuSans-31"/><use xlink:href="#DejaVuSans-35" x="63.623"/><use xlink:href="#DejaVuSans-30" x="127.246"/><use xlink:href="#DejaVuSans-30" x="190.869"/></g></g><g id="xtick_5"><use xlink:href="#mb2b50952df" id="line2d_5" x="378.207" y="266.112" style="fill:gray;stroke:gray;stroke-width:.8"/><g id="text_5" style="fill:gray" transform="matrix(.1 0 0 -.1 365.483 280.71)"><defs><path id="DejaVuSans-32" d="M1228 531h2203V0H469v531q359 372 979 998 621 627 780 809 303 340 423 576 121 236 121 464 0 372-261 606-261 235-680 235-297 0-627-103-329-103-704-313v638q381 153 712 231 332 78 607 78 725 0 1156-363 431-362 431-968 0-288-108-546-107-257-392-607-78-91-497-524-418-433-1181-1211z" transform="scale(.01563)"/></defs><use xlink:href="#DejaVuSans-32"/><use xlink:href="#DejaVuSans-30" x="63.623"/><use xlink:href="#DejaVuSans-30" x="127.246"/><use xlink:href="#DejaVuSans-30" x="190.869"/></g></g><g id="xtick_6"><use xlink:href="#mb2b50952df" id="line2d_6" x="447.957" y="266.112" style="fill:gray;stroke:gray;stroke-width:.8"/><g id="text_6" style="fill:gray" transform="matrix(.1 0 0 -.1 435.233 280.71)"><use xlink:href="#DejaVuSans-32"/><use xlink:href="#DejaVuSans-35" x="63.623"/><use xlink:href="#DejaVuSans-30" x="127.246"/><use xlink:href="#DejaVuSans-30" x="190.869"/></g></g><g id="xtick_7"><use xlink:href="#mb2b50952df" id="line2d_7" x="517.707" y="266.112" style="fill:gray;stroke:gray;stroke-width:.8"/><g id="text_7" style="fill:gray" transform="matrix(.1 0 0 -.1 504.983 280.71)"><defs><path id="DejaVuSans-33" d="M2597 2516q453-97 707-404 255-306 255-756 0-690-475-1069Q2609-91 1734-91q-293 0-604 58T488 141v609q262-153 574-231 313-78 654-78 593 0 904 234t311 681q0 413-289 645-289 233-804 233h-544v519h569q465 0 712 186t247 536q0 359-255 551-254 193-729 193-260 0-557-57-297-56-653-174v562q360 100 674 150t592 50q719 0 1137-327 419-326 419-882 0-388-222-655t-631-370z" transform="scale(.01563)"/></defs><use xlink:href="#DejaVuSans-33"/><use xlink:href="#DejaVuSans-30" x="63.623"/><use xlink:href="#DejaVuSans-30" x="127.246"/><use xlink:href="#DejaVuSans-30" x="190.869"/></g></g><g id="xtick_8"><use xlink:href="#mb2b50952df" id="line2d_8" x="587.457" y="266.112" style="fill:gray;stroke:gray;stroke-width:.8"/><g id="text_8" style="fill:gray" transform="matrix(.1 0 0 -.1 574.732 280.71)"><use xlink:href="#DejaVuSans-33"/><use xlink:href="#DejaVuSans-35" x="63.623"/><use xlink:href="#DejaVuSans-30" x="127.246"/><use xlink:href="#DejaVuSans-30" x="190.869"/></g></g><g id="xtick_9"><use xlink:href="#mb2b50952df" id="line2d_9" x="657.207" y="266.112" style="fill:gray;stroke:gray;stroke-width:.8"/><g id="text_9" style="fill:gray" transform="matrix(.1 0 0 -.1 644.482 280.71)"><defs><path id="DejaVuSans-34" d="M2419 4116 825 1625h1594v2491zm-166 550h794V1625h666v-525h-666V0h-628v1100H313v609l1940 2957z" transform="scale(.01563)"/></defs><use xlink:href="#DejaVuSans-34"/><use xlink:href="#DejaVuSans-30" x="63.623"/><use xlink:href="#DejaVuSans-30" x="127.246"/><use xlink:href="#DejaVuSans-30" x="190.869"/></g></g></g><g id="matplotlib.axis_2"><g id="ytick_1"><g id="line2d_10"><defs><path id="m3c209178bb" d="M0 0h-3.5" style="stroke:gray;stroke-width:.8"/></defs><use xlink:href="#m3c209178bb" x="71.308" y="236.199" style="fill:gray;stroke:gray;stroke-width:.8"/></g><g id="text_10" style="fill:gray" transform="matrix(.16 0 0 -.16 0 242.278)"><defs><path id="DejaVuSans-2212" d="M678 2272h4006v-531H678v531z" transform="scale(.01563)"/></defs><use xlink:href="#DejaVuSans-2212"/><use xlink:href="#DejaVuSans-32" x="83.789"/><use xlink:href="#DejaVuSans-30" x="147.412"/><use xlink:href="#DejaVuSans-30" x="211.035"/><use xlink:href="#DejaVuSans-30" x="274.658"/><use xlink:href="#DejaVuSans-30" x="338.281"/></g></g><g id="ytick_2"><use xlink:href="#m3c209178bb" id="line2d_11" x="71.308" y="200.712" style="fill:gray;stroke:gray;stroke-width:.8"/><g id="text_11" style="fill:gray" transform="matrix(.16 0 0 -.16 0 206.79)"><use xlink:href="#DejaVuSans-2212"/><use xlink:href="#DejaVuSans-31" x="83.789"/><use xlink:href="#DejaVuSans-30" x="147.412"/><use xlink:href="#DejaVuSans-30" x="211.035"/><use xlink:href="#DejaVuSans-30" x="274.658"/><use xlink:href="#DejaVuSans-30" x="338.281"/></g></g><g id="ytick_3"><use xlink:href="#m3c209178bb" id="line2d_12" x="71.308" y="165.224" style="fill:gray;stroke:gray;stroke-width:.8"/><use xlink:href="#DejaVuSans-30" id="text_12" style="fill:gray" transform="matrix(.16 0 0 -.16 54.127 171.302)"/></g><g id="ytick_4"><use xlink:href="#m3c209178bb" id="line2d_13" x="71.308" y="129.736" style="fill:gray;stroke:gray;stroke-width:.8"/><g id="text_13" style="fill:gray" transform="matrix(.16 0 0 -.16 13.408 135.815)"><use xlink:href="#DejaVuSans-31"/><use xlink:href="#DejaVuSans-30" x="63.623"/><use xlink:href="#DejaVuSans-30" x="127.246"/><use xlink:href="#DejaVuSans-30" x="190.869"/><use xlink:href="#DejaVuSans-30" x="254.492"/></g></g><g id="ytick_5"><use xlink:href="#m3c209178bb" id="line2d_14" x="71.308" y="94.248" style="fill:gray;stroke:gray;stroke-width:.8"/><g id="text_14" style="fill:gray" transform="matrix(.16 0 0 -.16 13.408 100.327)"><use xlink:href="#DejaVuSans-32"/><use xlink:href="#DejaVuSans-30" x="63.623"/><use xlink:href="#DejaVuSans-30" x="127.246"/><use xlink:href="#DejaVuSans-30" x="190.869"/><use xlink:href="#DejaVuSans-30" x="254.492"/></g></g><g id="ytick_6"><use xlink:href="#m3c209178bb" id="line2d_15" x="71.308" y="58.76" style="fill:gray;stroke:gray;stroke-width:.8"/><g id="text_15" style="fill:gray" transform="matrix(.16 0 0 -.16 13.408 64.839)"><use xlink:href="#DejaVuSans-33"/><use xlink:href="#DejaVuSans-30" x="63.623"/><use xlink:href="#DejaVuSans-30" x="127.246"/><use xlink:href="#DejaVuSans-30" x="190.869"/><use xlink:href="#DejaVuSans-30" x="254.492"/></g></g><g id="ytick_7"><use xlink:href="#m3c209178bb" id="line2d_16" x="71.308" y="23.272" style="fill:gray;stroke:gray;stroke-width:.8"/><g id="text_16" style="fill:gray" transform="matrix(.16 0 0 -.16 13.408 29.351)"><use xlink:href="#DejaVuSans-34"/><use xlink:href="#DejaVuSans-30" x="63.623"/><use xlink:href="#DejaVuSans-30" x="127.246"/><use xlink:href="#DejaVuSans-30" x="190.869"/><use xlink:href="#DejaVuSans-30" x="254.492"/></g></g></g><path id="line2d_17" d="m99.207 165.211 1.41.02 1.974-.01 6.203.025.846-.053.282.064.282-.07.282.078.282-.088.282.1.282-.114.282.13.282-.15.282.178.282-.216.282.27.282-.356.282.51.281-.869.564 11.32.282.592.564 2.755.564 5.533.282.801.282.023.564 2.43.564 3.398.282.174.282-2.467.282-3.885.282-6.318.564-24.47.564-25.823.564-18.084.282-4.906.282-1.577.281 2.015.282 5.976.564 23.726.564 25.977.564 14.877.282 3.263.282-.141.564-6.002.564-3.294.564-5.806.282.34 1.41 7.59.282.292.564 2.287.281-.636.282-1.787.282-.396.282 1.197.282.161.282-1.105.282-.57.282.684.282.24.564-1.27.282.879.564 2.855.282.183.282.565.846 6.17.564-1.214.282 1.24.282.718.282-1.49.282-2.357.563-1.643.282-2.847.564-13.306.564-20.445.846-32.475.282-6.757.282-1.42.282 5.364.846 31.696.564 27.635.282 7.765.282 2.418.564 2.383.282-.41.282-2.055.282-.9.563 2.707.282-.373.564-2.533.282.232.564 1.125.564.7.282-.435.564-2.004 1.41-1.808.282.254.282.55.282-.505.282-1.579.282-.767.282 1.495.282 2.12.563 2.192.846 7.967.282.48.282-.398.282-.656.282-.029.564 1.566.282-.02.282.215.564 2.788.282-.483.282-2.82.282-4.97.282-7.603.564-23.736.846-35.503.845-21.457.282-.983.282 6.622.846 32.393.564 30.927.282 9.126.846 9.401.282.81.282-.474.282.715.282 1.081.282-.19 1.41-5.415.564-4.032.282.186.563 4.437.282-.452.282.004.564 3.158.282-1.364.282-2.598.282-1.425.282.406.282.709.282-.638.564-4.51.282-.834.282.02.282-.49.282-.727.282-.049.846 2.643.282.239.282.877.282 2.606.563 6.989.282 1.149.282.224.282.44.282-.28.282-2.7.282-6.298.564-23.209.846-42.378.282-10.057.282-5.574.282-.095.282 5.552.564 24.162.846 38.971.564 13.793.282 3.94.282 1.934.282.18.281-.641.282.139.564 3.266.282.334.282-1.582.564-4.364 1.128-6.05.282-.427.282-.8 1.128-5.554.282-.416.282 1.83.564 4.945.282.556.282.275.282.984.563 3.396.282 1.053.282 1.713.846 10.75.282.84.282 1.6.564 4.545.282 1.628.846 6.308.282-.735.282-3.762.564-17.31.564-24.665 1.41-78.784.281-9.953.282-2.829.282 2.448.282 6.696.282 13.039 1.41 88.384.282 6.864.282 1.508.282.598.564 4.609.282-1.508 1.692-25.872.282-.007.282 1.35.563 1.002.282 2.246.564 5.284.282.25.564-.666.564-2.656.282-.34.282.481.282.013.282.248.282 2.618.846 11.656 1.128 14.906.282-.428.846-6.927.281.118.282-.026.282.387.282 2.536.282 3.825.282 1.557.282-2.433.282-5.566.282-8.49.282-13.517 1.41-94.17.282-9.856.282-4.007.282 1.96.282 7.36.282 13.366 1.128 78.202.282 10.845.281 6.5.282 2.5.282-.533.282-2.414.846-10.027.564-3.72.282-1.029.282-.368.282.265.282 1.77 1.128 16.147.282 1.633.282.88.282-1.4.846-10.992.282-.936.282-.003.282 1.481.563 7.55.846 11.113.282 1.777.282.874.564 3.148.282-1.115.282-3.032.282-1.302 1.41 6.487.282.228.282-2.573.282-5.463.282-9.622.564-33.235 1.127-71.123.282-10.855.282-4.841.282 1.766.282 8.63.564 34.783.564 40.61.564 24.35.282 5.82.282 3.267.282.975.282-.868.564-2.107.846-2.112.282-.143.282.007.282.155.564 1.585.281.078.282-.64.282-.125.282.475.282-.294.564-3.293.282-.248.282.169.282-.227.282 1.143.846 12.257.846 4.017.846 5.597.564 4.877.846 10.451.281-.594.282-1.98.282-.772.282-.227.282-2.863.564-15.128.564-23.097.564-41.168.846-65.846.282-17.128.282-8.785.282 1.469.564 17.695.282 12.919.564 42.58.564 42.218.563 26.616.282 6.005.282 1.631.564-.714.282.065.282-.253.564-1.64.282.935.282 1.506.282.003.282-1.113.282-.296.282.476.282-1.1.564-6.438.282-1.27.282.023.282-.17.282-.596.282.277 1.691 11.258.564 8.71.564 8.047.282.935.564 1.025.282-1.228.564-8.687.282-2.06.282.479.282 1.046.282.47.282-.863.282-3.325.282-6.823.564-24.959.846-60.774.563-36.58.282-11.31.282-5.2.282.633.282 7.574.282 15.967 1.128 84.747.564 26.402.282 3.657.564-.673.282.114.282-1.265.564-4.365.282.45.282 1.239.564 1.23.282 1.084.281.556.282-.771.564-1.896.564-1.114.564.116.282-.602.282.042.846 5.894.846 6.464.282-.416.282 1.36.564 8.31.564 5.67.564 7.937.564 4.572.281 1.376.564.688.282-.094.282-3.155.282-9.19.564-35.616.846-77.496.564-46.825.282-10.435.282-3.672.282.708.282 5.934.564 24.707.564 32.523.846 56.18.563 23.267.282 7.19.282 3.468.282.49.282-.462.564 1.126.282-1.327.282-2.99.282-1.467.282.81.282-.122.564-6.206.282-.257.282 1.447.282.249.282-.743.282.213.282 1.125.282.137.282-.966.282-.327.564 2.869.563 3.585 1.128 11.538.564 5.262.564 7.867.564 5.49.846 11.175.282.641.282-.256.282-.939.282-3.19.282-8.397.564-37.309 1.41-119.625.281-10.493.282-4.373.282-.302.282 3.633.564 15.576.564 27.35.564 31.719.564 21.553.282 7.146.846 13.072.564 8.966.282 2.966.846 11.369.564 3.549.281.284.846-3.262.564-3.01.282.152.282.83.282.227.282 1.022.564 4.585.564-2.561.282 1.244.282 2.124.282.386.282.841.282 4.352.564 11.104.564 7.673.564 8.36.845 7.296.282.164.282-3.271.282-7.176.282-11.249.564-38.202 1.128-103.164.564-27.48.282-4.594.282 1.225.282 5.16.564 17.87.564 30.179.846 52.922.563 19.965.564 15.089.282 3.461.282.367.282.072.564 2.245.282-1.195.282-2.291.282-.686.564 3.007.282-.499.282-1 .282 1.155.282 2.729.282 1.104.282-.628.282.688.282 2.593.282 1.383.282-.634.282-.035.282 1.235.281.034.282-1.283.282-.278.282.487.564-2.252.282 2.364.564 9.97.282 3.803.282 7.042.564 20.175.846 14.421.282 4.165.282-.444.282-5.872.282-10.44.564-36.432.846-88.25.563-49.617.564-27.269.282-8.627.282-3.037.282 1.605.282 3.978.282 7.542.564 31.929 1.41 99.83.564 12.972 1.128 11.078.282 1.18.282.077.564 1.509.281-.11.282-.615.282-.13.282-.49 1.128-6.221.564-8.202 1.128-8.074.282 1.517 1.128 16.287.564 13.036.564 10.353.564 12.867.845 14.295.282 1.259.564-3.367.282-3.287.282-8.326.564-36.104 1.41-122.155.564-22.749.282-3.88.282.436.282 4.76.282 9.588.564 29.361 1.127 71.693.564 15.485.282 5.95.282 2.354.564-3.429.282.536.282 1.2.282-.202.282-.602.282 1.084.564 3.706.282-.2.282-.528.564.04.564-1.705.282.269.846 5.953.282 2.993.845 12.694.282 2.669.846 13.13.282.973.282 1.703.564 10.832.846 14.334.282 4.123.282 2.345.282.816.282-.078.282-2.301.282-7.438.282-14.009.564-46.741 1.127-114.373.564-34.265.282-10.057.564-8.165.282-1.167.282 5.213.564 28.403.846 57.334.846 55.47.564 22.682.846 18.03.282 2.099.564-.69.282-.576.563-2.833.282-.755.282-2.048.564-7.958 1.128-6.355.282.584.282.985.282.423.282 1.267.282 1.96.564 2.025.282 3.988.564 9.264.282 2.67 1.128 18.964.281 2.935 1.41 24.354.282 2.46.282-.28.282-5.928.282-13.728.564-51.965 1.128-131.93.282-17.846.282-10.78.282-5.192.282-.288.282 5.114.846 30.023 1.127 65.003.846 47.56.564 12.266.846 17.366.282 1.685.282.957.564 5.09.282-.943.282-3.661.282-2.121.282-.152.282-1.363.282-2.257.282.687.282 3.186.282 1.337.282-1.09.282.258.563 4.59.282 1.498.846 7.744.282 1.06.564 5.406.282.882.282.173.282 2.846.846 14.972.564 7.522.282 2.246.282-.568.282-4.273.282-9.62.282-16.669.564-56.53.563-65.937.282-20.856.564-20.252.282-5.456.282-.795.846 10.51.564 14.428.564 16.142.564 26.502.846 41.17.564 22.01.564 11.275.564 8.065.282 1.987.282.326.281-1.421.282-2.135.282-.677.282.728.282-.259.282-1.435.282.64.564 6.122.564-.995.564 3.128.282-1.188.282-2.115.282-.075.564 3.086.282 1.07.282 2.218 1.128 14.6.563 10.367.846 8.735.564 7.197.564 3.852.282.837.282-2.285.282-10.016.282-21.183 1.41-147.953.564-24.558.282-4.88.282-2.42.282-.752.282 2.64.282 7.708 1.41 57.593.845 38.246.846 24.492.564 14.34.846 10.817.282 5.013.282 2.498.282.797.282 2.214.282 3.094.282.089.564-7.042.564-.844.563-4.976.282.847 1.692 16.92.282.471.564 2.21.564.439.282 1.5.564 6.977.846 15.556.282 5.308.282 2.73.282-1.5.282-6.108.282-11.882.282-20.257 1.127-118.146.564-26.833.282-7.149.282-3.65.282-1.118.282.37.282 2.126.282 4.773.564 14.644.564 23.156.846 41.157.846 33.272.846 16.055.845 9.852.282 2.134.564-3.582.282 1.625.282 3.593.282 1.08.282-1.436.282-.59.282.66.282-.094.282-.87.282.193.564 2.731.564 1.765.564 3.83 1.128 9.822.563 6.596.282-.058.282-.19.564 4.536.282.329.282-.572.282 1.91.564 8.847.282 2.219.282-.082.282-3.71.282-10.14.282-18.75 1.128-109.887.564-20.418.564-12.96.564-7.154.281-.286.282 3.194.846 16.64.564 21.722 1.692 74.773.564 14.282.846 11.639.564 5.517.282 1.161.564.9.282-.127.564-2.676 1.41-5.659.563-1.815.564.931.282-1.219.282-2.168.282-.414.846 3.877.846 7.238.282 2.026.564 8.508.564 11.349.564 15.2.281 2.114.282-2.238.282-6.634.282-14.294.564-57.69.564-59.557.564-28.198.282-6.992.282-2.617.564 1.877.282-.28.282 1.658.564 14.71.846 22.982 1.41 50.264.281 8.403.564 7.52.564 9.354.564 7.939.282 1.978.282.729.282.047.564.387.282.394.282 1.48.564 3.771.282.77.564 3.77.282-.358.282-2.147.282-.674.564 2.671.282.535.281 1.448.564 5.83.564 9.49 1.974 33.661.282 3.435.282 1.537.282-4.056.282-11.66.282-19.893 1.41-135.653.564-15.942.282-5.47.281-3.148.282-.034.564 5.364.564 7.716.564 13.594 1.128 36.497 1.128 40.195.282 9.432.282 4.207.282.568.282.988.282 1.974.282.917.282-.37.282-.62.282-.322.282.533 1.41 9.735.563 1.953 1.128 7.268.282 3.427.846 13.889 1.128 13.092.282.193.282-.191.282 1.355 1.127 11.737.564 4.889.282-.936.282-5.127.282-11.35.282-21.215 1.128-122.458.564-24.213.282-5.6.282-1.37.282 1.417.564 5.225.564 9.63 1.128 24.721.845 30.196.564 20.485.564 22.167.846 14.793.564 6.238.282 1.739.282.493.564-1.25.282-.28.282-1.68.564-4.985.846-1.054.282 1.921.564 8.354.563 4.248.846 5.885.282.158.282-.17.282 2.468.564 9.492.282 3.44.282 6.186.564 16.995.282 3.824.282 1.96.282.2.282-4.716.282-11.841.564-46.244.564-53.642.564-24.098.845-24.996.282-4.319.282-.547.282 1.278.282.512.282.964.282 4.567.564 10.694.282 1.965.282 4.255 1.128 26.203.564 10.892.564 5.402.282 3.97.282 2.047.282-.551.282.48.282 4.99.845 22.11.564 9.606.282 2.845.282.168.282-.85.282-.182.282.53.282 1.372.564 6.543.564 9.752.564 14.88.282 3.227.282-.128.282.09.846 5.336.282 2.804 1.41 22.863.281-.003.282-4.546.282-10.634.282-19.089.846-76.399.564-27.076.564-18.794.846-16.36.282-1.157.564 4.202.282 3.024.564 12.425.845 22.308 1.41 39.546 1.128 18.12.282.921.282-1.017 1.128-8.366.564-6.003.282-.744.282 1.659.846 7.903.564 6.227.282 1.334.281 2.385.564 7.764.564 4.479.564 8.029.564 3.21.282 4.673.846 19.582.564 8.098.282.572.282-4.831.282-11.106.564-40.206.564-47.067.564-25.854.845-18.978.282-2.859.282.693.282 2.125.564 1.999.282 3.132.564 9.464.282 2.832.282 4.4.846 22.142.564 11.385.564 12.209.282 2.907.282.771.282.023.282 1.123.845 8.602.564 1.603 1.128 4.798.282.652.282 1.031.564 4.026.282-.094.282-1.577.282-.27.846 6.225 1.41 16.527.846 12.063.563 7.592.282 1.043.282.023.282-1.243.282-4.057.282-7.54.282-11.32 1.128-62.964.564-8.896.846-18.184 1.128-14.615.282.008.282 1.06.282 2.8.564 10.57.281 6.494.564 20.635.564 16.514.846 9.786.282.94.282-.23.282-.037.564.43.564 1.415.282-.084.282-.866.282.079.846 6.065.282.266.282.017.282.56.282 1.48 1.41 12.16 1.691 25.02.282.078.282-1.593.282-.352.564 1.968.282.605.282 2.04.282 3.074.282.92.282-4.576.282-11.45 1.128-65.035.563-19.33.846-15.771.282-4.076.282-.77.846 4.514.282 5.092.564 13.043.564 8.465.846 19.294.846 13.416.564 5.091.564 3.55.281.482.282-.54.846-4.272.846-4.514.282 1.374.564 5.872.564 2.194 1.692 13.723 1.692 17.58.563 8.49.564 8.11.564 5.246.282-.55.282-4.793.282-9.345 1.41-66.872.564-13.175 1.128-17.518.846-4.132.282.546.564 7.511.563 9.05.846 15.555.564 7.123.564 4.047.282.347.564-1.933.282.294.282-.39.564-4.682.282 2.248.846 15.577 1.128 14.042 1.127 9.225.564.98.564 6.144.282.723.282-1.01.282.858.282 1.621.282-.946.282-1.53.282 2.69.564 8.976.282 1.754.282 4.695.564 12.238.282 2.02.282 1.176.282-1.748.282-9.226.845-44.243.846-28.603.846-20.168.846-13.007.282-1.644.282 1.625.564 7.62 1.41 21.995 1.41 12.057.282 1.558.563 1.408 1.128 6.716.846 3.27.564-1.133.282.93.846 9.047.564 3.848.564 4.936.564 4.69.282 1.352.564 9.068.282 5.83.281-2.489h0" clip-path="url(#pfeff6098e1)" style="fill:none;stroke:#1f77b4;stroke-width:1.5;stroke-linecap:square"/><path id="patch_3" d="M71.308 266.112V0" style="fill:none;stroke:gray;stroke-width:.8;stroke-linejoin:miter;stroke-linecap:square"/><path id="patch_4" d="M685.107 266.112V0" style="fill:none;stroke:#000;stroke-width:.8;stroke-linejoin:miter;stroke-linecap:square"/><path id="patch_5" d="M71.308 266.112h613.8" style="fill:none;stroke:gray;stroke-width:.8;stroke-linejoin:miter;stroke-linecap:square"/><path id="patch_6" d="M71.308 0h613.8" style="fill:none;stroke:#000;stroke-width:.8;stroke-linejoin:miter;stroke-linecap:square"/></g></g><defs><clipPath id="pfeff6098e1"><path d="M71.308 0h613.8v266.112h-613.8z"/></clipPath></defs></svg>