<svg xmlns="http://www.w3.org/2000/svg" xmlns:xlink="http://www.w3.org/1999/xlink" width="899.903" height="381.627" viewBox="0 0 674.928 286.22"><defs><style>*{stroke-linejoin:round;stroke-linecap:butt}</style></defs><g id="figure_1"><path id="patch_1" d="M0 286.22h674.928V0H0v286.22z" style="fill:none"/><g id="axes_1"><path id="patch_2" d="M61.127 269.542h613.8V3.43h-613.8v266.112z" style="fill:none"/><g id="matplotlib.axis_1"><g id="xtick_1"><g id="line2d_1"><defs><path id="mc7acfd98f1" d="M0 0v3.5" style="stroke:gray;stroke-width:.8"/></defs><use xlink:href="#mc7acfd98f1" x="89.028" y="269.542" style="fill:gray;stroke:gray;stroke-width:.8"/></g><g id="text_1" style="fill:gray" transform="matrix(.1 0 0 -.1 85.846 284.14)"><defs><path id="DejaVuSans-30" d="M2034 4250q-487 0-733-480-245-479-245-1442 0-959 245-1439 246-480 733-480 491 0 736 480 246 480 246 1439 0 963-246 1442-245 480-736 480zm0 500q785 0 1199-621 414-620 414-1801 0-1178-414-1799Q2819-91 2034-91q-784 0-1198 620-414 621-414 1799 0 1181 414 1801 414 621 1198 621z" transform="scale(.01563)"/></defs><use xlink:href="#DejaVuSans-30"/></g></g><g id="xtick_2"><use xlink:href="#mc7acfd98f1" id="line2d_2" x="158.778" y="269.542" style="fill:gray;stroke:gray;stroke-width:.8"/><g id="text_2" style="fill:gray" transform="matrix(.1 0 0 -.1 149.234 284.14)"><defs><path id="DejaVuSans-35" d="M691 4666h2478v-532H1269V2991q137 47 274 70 138 23 276 23 781 0 1237-428 457-428 457-1159 0-753-469-1171Q2575-91 1722-91q-294 0-599 50Q819 9 494 109v635q281-153 581-228t634-75q541 0 856 284 316 284 316 772 0 487-316 771-315 285-856 285-253 0-505-56-251-56-513-175v2344z" transform="scale(.01563)"/></defs><use xlink:href="#DejaVuSans-35"/><use xlink:href="#DejaVuSans-30" x="63.623"/><use xlink:href="#DejaVuSans-30" x="127.246"/></g></g><g id="xtick_3"><use xlink:href="#mc7acfd98f1" id="line2d_3" x="228.528" y="269.542" style="fill:gray;stroke:gray;stroke-width:.8"/><g id="text_3" style="fill:gray" transform="matrix(.1 0 0 -.1 215.803 284.14)"><defs><path id="DejaVuSans-31" d="M794 531h1031v3560L703 3866v575l1116 225h631V531h1031V0H794v531z" transform="scale(.01563)"/></defs><use xlink:href="#DejaVuSans-31"/><use xlink:href="#DejaVuSans-30" x="63.623"/><use xlink:href="#DejaVuSans-30" x="127.246"/><use xlink:href="#DejaVuSans-30" x="190.869"/></g></g><g id="xtick_4"><use xlink:href="#mc7acfd98f1" id="line2d_4" x="298.277" y="269.542" style="fill:gray;stroke:gray;stroke-width:.8"/><g id="text_4" style="fill:gray" transform="matrix(.1 0 0 -.1 285.553 284.14)"><use xlink:href="#DejaVuSans-31"/><use xlink:href="#DejaVuSans-35" x="63.623"/><use xlink:href="#DejaVuSans-30" x="127.246"/><use xlink:href="#DejaVuSans-30" x="190.869"/></g></g><g id="xtick_5"><use xlink:href="#mc7acfd98f1" id="line2d_5" x="368.027" y="269.542" style="fill:gray;stroke:gray;stroke-width:.8"/><g id="text_5" style="fill:gray" transform="matrix(.1 0 0 -.1 355.303 284.14)"><defs><path id="DejaVuSans-32" d="M1228 531h2203V0H469v531q359 372 979 998 621 627 780 809 303 340 423 576 121 236 121 464 0 372-261 606-261 235-680 235-297 0-627-103-329-103-704-313v638q381 153 712 231 332 78 607 78 725 0 1156-363 431-362 431-968 0-288-108-546-107-257-392-607-78-91-497-524-418-433-1181-1211z" transform="scale(.01563)"/></defs><use xlink:href="#DejaVuSans-32"/><use xlink:href="#DejaVuSans-30" x="63.623"/><use xlink:href="#DejaVuSans-30" x="127.246"/><use xlink:href="#DejaVuSans-30" x="190.869"/></g></g><g id="xtick_6"><use xlink:href="#mc7acfd98f1" id="line2d_6" x="437.777" y="269.542" style="fill:gray;stroke:gray;stroke-width:.8"/><g id="text_6" style="fill:gray" transform="matrix(.1 0 0 -.1 425.053 284.14)"><use xlink:href="#DejaVuSans-32"/><use xlink:href="#DejaVuSans-35" x="63.623"/><use xlink:href="#DejaVuSans-30" x="127.246"/><use xlink:href="#DejaVuSans-30" x="190.869"/></g></g><g id="xtick_7"><use xlink:href="#mc7acfd98f1" id="line2d_7" x="507.527" y="269.542" style="fill:gray;stroke:gray;stroke-width:.8"/><g id="text_7" style="fill:gray" transform="matrix(.1 0 0 -.1 494.803 284.14)"><defs><path id="DejaVuSans-33" d="M2597 2516q453-97 707-404 255-306 255-756 0-690-475-1069Q2609-91 1734-91q-293 0-604 58T488 141v609q262-153 574-231 313-78 654-78 593 0 904 234t311 681q0 413-289 645-289 233-804 233h-544v519h569q465 0 712 186t247 536q0 359-255 551-254 193-729 193-260 0-557-57-297-56-653-174v562q360 100 674 150t592 50q719 0 1137-327 419-326 419-882 0-388-222-655t-631-370z" transform="scale(.01563)"/></defs><use xlink:href="#DejaVuSans-33"/><use xlink:href="#DejaVuSans-30" x="63.623"/><use xlink:href="#DejaVuSans-30" x="127.246"/><use xlink:href="#DejaVuSans-30" x="190.869"/></g></g><g id="xtick_8"><use xlink:href="#mc7acfd98f1" id="line2d_8" x="577.278" y="269.542" style="fill:gray;stroke:gray;stroke-width:.8"/><g id="text_8" style="fill:gray" transform="matrix(.1 0 0 -.1 564.553 284.14)"><use xlink:href="#DejaVuSans-33"/><use xlink:href="#DejaVuSans-35" x="63.623"/><use xlink:href="#DejaVuSans-30" x="127.246"/><use xlink:href="#DejaVuSans-30" x="190.869"/></g></g><g id="xtick_9"><use xlink:href="#mc7acfd98f1" id="line2d_9" x="647.028" y="269.542" style="fill:gray;stroke:gray;stroke-width:.8"/><g id="text_9" style="fill:gray" transform="matrix(.1 0 0 -.1 634.303 284.14)"><defs><path id="DejaVuSans-34" d="M2419 4116 825 1625h1594v2491zm-166 550h794V1625h666v-525h-666V0h-628v1100H313v609l1940 2957z" transform="scale(.01563)"/></defs><use xlink:href="#DejaVuSans-34"/><use xlink:href="#DejaVuSans-30" x="63.623"/><use xlink:href="#DejaVuSans-30" x="127.246"/><use xlink:href="#DejaVuSans-30" x="190.869"/></g></g></g><g id="matplotlib.axis_2"><g id="ytick_1"><g id="line2d_10"><defs><path id="m4fd7e450c5" d="M0 0h-3.5" style="stroke:gray;stroke-width:.8"/></defs><use xlink:href="#m4fd7e450c5" x="61.127" y="246.466" style="fill:gray;stroke:gray;stroke-width:.8"/></g><g id="text_10" style="fill:gray" transform="matrix(.16 0 0 -.16 0 252.545)"><defs><path id="DejaVuSans-2212" d="M678 2272h4006v-531H678v531z" transform="scale(.01563)"/><path id="DejaVuSans-36" d="M2113 2584q-425 0-674-291-248-290-248-796 0-503 248-796 249-292 674-292t673 292q248 293 248 796 0 506-248 796-248 291-673 291zm1253 1979v-575q-238 112-480 171-242 60-480 60-625 0-955-422-329-422-376-1275 184 272 462 417 279 145 613 145 703 0 1111-427 408-426 408-1160 0-719-425-1154Q2819-91 2113-91q-810 0-1238 620-428 621-428 1799 0 1106 525 1764t1409 658q238 0 480-47t505-140z" transform="scale(.01563)"/></defs><use xlink:href="#DejaVuSans-2212"/><use xlink:href="#DejaVuSans-36" x="83.789"/><use xlink:href="#DejaVuSans-30" x="147.412"/><use xlink:href="#DejaVuSans-30" x="211.035"/><use xlink:href="#DejaVuSans-30" x="274.658"/></g></g><g id="ytick_2"><use xlink:href="#m4fd7e450c5" id="line2d_11" x="61.127" y="206.402" style="fill:gray;stroke:gray;stroke-width:.8"/><g id="text_11" style="fill:gray" transform="matrix(.16 0 0 -.16 0 212.48)"><use xlink:href="#DejaVuSans-2212"/><use xlink:href="#DejaVuSans-34" x="83.789"/><use xlink:href="#DejaVuSans-30" x="147.412"/><use xlink:href="#DejaVuSans-30" x="211.035"/><use xlink:href="#DejaVuSans-30" x="274.658"/></g></g><g id="ytick_3"><use xlink:href="#m4fd7e450c5" id="line2d_12" x="61.127" y="166.337" style="fill:gray;stroke:gray;stroke-width:.8"/><g id="text_12" style="fill:gray" transform="matrix(.16 0 0 -.16 0 172.416)"><use xlink:href="#DejaVuSans-2212"/><use xlink:href="#DejaVuSans-32" x="83.789"/><use xlink:href="#DejaVuSans-30" x="147.412"/><use xlink:href="#DejaVuSans-30" x="211.035"/><use xlink:href="#DejaVuSans-30" x="274.658"/></g></g><g id="ytick_4"><use xlink:href="#m4fd7e450c5" id="line2d_13" x="61.127" y="126.272" style="fill:gray;stroke:gray;stroke-width:.8"/><use xlink:href="#DejaVuSans-30" id="text_13" style="fill:gray" transform="matrix(.16 0 0 -.16 43.947 132.351)"/></g><g id="ytick_5"><use xlink:href="#m4fd7e450c5" id="line2d_14" x="61.127" y="86.208" style="fill:gray;stroke:gray;stroke-width:.8"/><g id="text_14" style="fill:gray" transform="matrix(.16 0 0 -.16 13.408 92.287)"><use xlink:href="#DejaVuSans-32"/><use xlink:href="#DejaVuSans-30" x="63.623"/><use xlink:href="#DejaVuSans-30" x="127.246"/><use xlink:href="#DejaVuSans-30" x="190.869"/></g></g><g id="ytick_6"><use xlink:href="#m4fd7e450c5" id="line2d_15" x="61.127" y="46.143" style="fill:gray;stroke:gray;stroke-width:.8"/><g id="text_15" style="fill:gray" transform="matrix(.16 0 0 -.16 13.408 52.222)"><use xlink:href="#DejaVuSans-34"/><use xlink:href="#DejaVuSans-30" x="63.623"/><use xlink:href="#DejaVuSans-30" x="127.246"/><use xlink:href="#DejaVuSans-30" x="190.869"/></g></g><g id="ytick_7"><use xlink:href="#m4fd7e450c5" id="line2d_16" x="61.127" y="6.079" style="fill:gray;stroke:gray;stroke-width:.8"/><g id="text_16" style="fill:gray" transform="matrix(.16 0 0 -.16 13.408 12.158)"><use xlink:href="#DejaVuSans-36"/><use xlink:href="#DejaVuSans-30" x="63.623"/><use xlink:href="#DejaVuSans-30" x="127.246"/><use xlink:href="#DejaVuSans-30" x="190.869"/></g></g></g><path id="line2d_17" d="m89.028 126.642.281-.723.282.693.282-.666.282.64.282-.617.282.597.282-.578.282.56.282-.544.282.53.282-.517.282.505.282-.494.282.484.282-.475.282.466.282-.458.282.452.282-.446.282.44.282-.436.282.434.282-.432.282.43.282-.43.281.431.282-.433.282.437.282-.443.282.451.282-.461.282.475.282-.493.282.517.282-.55.282.595.282-.659.282.755.282-.915.282 1.235.282-2.366.564 9.113.282 3.235.282 13.664.282 3.458.282.074.282 6.873.282-.55.563-24.471.564-15.967.282-2.07.282 2.93.564-4.754.282 5.708.282.407.846-50.402.564 4.651.282 5.726.846 62.183.282-.742.282-1.157.282 2.03.282.735.564-3.564.564-6.808.281-3.51.282.21.282 2.713.282-.064.282-1.268.282 2.594.282.808.282-.798.282 9.197.282 14.486.282-.205.282-10.374.282-1.146.282 4.984.282-5.146.282-12.297.282-7.402.564-3.055.282-.817.282 1.075.564 3.087.282.275.282-.233.281 5.12.564 23.22.282 1.25.282-3.175.282.84.564 11.895.282-1.83.282-3.964.282 1.893.282 3.317.282-1.691.564-11.162.564-31.083.564-23.798.282-8.499.282-3.19.564 12.645.564-12.976.281.208.282 1.181.282 1.89.282 7.185.282 2.752.282-6.398.282-3.19.564 12.677.564 15.323.282 2.578.282-2.384.282 4.344.564 26.774.282.729.282-5.62.282-.378.282 1.367.282-11.399.282-17.219.282-1.402.282 11.141.282 2.986.282-2.195.563 13.176.282-.308.564-11.14.282.586.282 7.61.282 3.175.564-10.168.282.363.282-.58.282.27.846 10.272.282-.032.282-2.864.282.708.282 4.37.564 2.235.282 3.276.282-.298.282-2.418.281 5.16.282 9.445.282 3.055.282-1.96.282.636.282-2.212.282-13.868 1.128-73.545.282-8.464.282-2.251.564-6.149.282 2.799.282 4.23.282.77.282-.505.282 3.098.282 9.007.846 39.404.282-.807.281 9.971.282 20.465.282 7.63.564-12.237.282-.095.282 2.372.282 4.882.282-.597.282-8.23.282-3.825.282 4.698.282.472.564-21.29.282-.79.282 2.163.282-1.718.282 1.328.564 17.815.282 2.38.282-5.731.282-2.866.282 9.295.282 4.668.563-26.182.564 6.3.282.137.564 24.799.846 15.011.282-1.668.282.096.282 4.385.282.864.282-.518.282 5.804.282 8.127.282-.302.282-14.352.564-37.613.282-12.698.564-35.468.282-6.09.281-1.658.282-5.726.282-3.374.282.696.282-1.984.282.966.564 22.084.564-4.473.564 17.048.282 4.958.564 19.234.564 15.7.282-.492.846-34.758.564 18.929.282.779.282-2.407.563 9.176.564-8.063.282.327.564 7.207.282-2.747.282-6.275.282-.613.282 2.11.282.423.282 6.796.282 13.133.282 6.368.282-1.016.282-.037.282-1.209.282-8.972.282-13.953.282-7.88.564 11.34.282-2.63.282 2.16.563 35.297.564-7.036.564 22.511.282-4.106.846-19.763.282-4.182.282-1.68.282-7.097 1.41-61.117.282-4.125.282-6.694.282-1.823.282 7.026.282 1.408.282-7.034.282 4.202.282 16.042.281 6.243.282-4.961.282-.083.564 9.603.564 6.719.282 1.812.282 4.154.282 6.101.282 3.551.282-1.573.282-3.817.282 2.069.282 8.276.282 1.06.282-8.196.282-2.676.282 4.93.282 1.303.282-1.373.282 3.32.564 10.75.282-2.858.282-6.859.281-1.615.282 1.541.282-4.156.282-.93.564 26.274.282-2.483.282-3.616.282 6.805.282 2.929.564-20.306.282-2.293.282 2.15 1.41 20.393.282-2.837.282-6.18.282 1.732.564 14.35.282 2.458.281.868.282-5.799.564-24.366.564-7.618.564-23.867.282-1.9.282 3.792.282-1.494.282-6.447.282-2.486.564 6.936.564-5.725.282 7.526.282 12.235.564 14.04.564 30.76.282-17.853.282-29.885.281-10.51.282 5.006.282-.232.282-.868.282 15.021.282 21.467.282 3.96.282-10.606.282-2.525.282 3.792.282-7.509.282-13.653.282-3.931.846 13.954.564-6.362.282 1.837.282-1.965.282-.901.564 25.128.282 1.045.282-3.311.282 1.317.281 2.484.282-.113.282-2.278.282.105.564 10.727.282-1.192.282 2.711.564 17.765.282-3.122.282-1.862.564 18.395.282.718.564-12.904.282-10.203.846-49.913.282-19.282.282-11.372.282-2.66.282-5.473.281-9.736.282-1.915.282 8.26.282 4.87.564-9.885.564 6.928.282 1.536.282 8.748.846 34.647.282 8.068.282-2.72.282.243.282 13.404.282 7.772.564-18.275.282 3.802.282.023.564-28.385.282 3.506.282 12.522.281 5.215.282 1.857.564 27.8.282 2.504.282-6.233.282.061.282-.967.564-21.262.282 7.824.282 2.817.282-11.325.282-3.075.282 7.748.282-2.838.282-7.258.564 15.027.282-5.357.282.76.282 11.25.282 1.8.282-.502.563 20.683.282-3.728.282 9.927.282 20.781.282 4.089.282-4.654.564 17.182.282-1.81.282-5.939.282-8.452.846-47.842.846-66.442.564-17.125.846-20.817.564 14.51.563-3.893.282 5.76.282 16.2.564 51.755.846 40.444.282-5.726.282-13.339.282-3.287.282-.02.282-6.226.282-3.276.282 2.734.282-1.156.282-5.326.282-1.175.282 2.203.282-.133.282-1.447.282 2.208.282 5.48.282 1.942.282-3.808.282-1.328.563 12.327.282 1.533.282.492.282-1.095.282-5.143.282-2.975.846 10.318.564-4.984.282 3.367.282 6.518.282-1.84.282-5.433.282 4.63.282 6.749.282-2.063.282 3.378.564 35.895.282 4.13.282 2.293.282 6.284.281-2.444 1.41-97.45.846-47.259.282-5.34.282 5.723.282 2.372.282-6.058.282 2.86.282 14.259.282 5.802.282-3.962.282 3.349 1.41 49.33.282-.524.282-.058.281 1.766.282.666.282.098.282-.304.282.032.282.774.282-.293.282 3.546.282 10.686.282 4.612.564-12.11.282 1.959.282-.524.282 3.782.282 10.65.282 1.867.282-5.147.282-.244.282-6.387.282-15.87.282-3.639.282 8.303.282-.965.282-4.91.282 8.502.563 27.984.282 5.193.282 1.142.564 3.583.564-16.5.282 9.02.282 14.938.564 6.434.282 12.045.282 5.9.282-6.412.564-21.65 1.128-79.782.846-28.079.563-13.84.564-9.218.282 2.718.282 5.72.282-2.05.282-6.158.282 4.457 1.128 52.048 1.128 24.19.282.528.282 6.207.282 3.22.282-6.618.282-2.973.282 3.903.282-.85.282-3.199.564 6.154.281.596.282 3.331.282 6.116.282 1.332.282-5.182.282-2.62.282 4.306.282.526.282-6.871.282.528.282 8.746.282-.664.282-5.415.564 19.168.282-6.853.282-11.325.282 4.797.282 13.058.282 4.213.282-2.85.282 2.585.282 8.278.282 2.366.282-4.87.281-.22.564 12.44.282 3.96.282 1.242.564-11.967.282 2.91.282.292 1.128-48.357.564-24.532.282-9.473.846-36.875.282-7.43.282-1.506.282 3.108.282 5.374.564 15.512.563 6.548.282 8.69.564 31.534.282 16.496.282 6.908.282 3.18.282 6.536.282 2.12.846-19.283.282-1.524.282-.575.282-2.556.282-.548.282 4.836.282 2.76.282.794.564 14.528.282-6.063.282-9.36.282-2.433.282-1.355.563-5.937.282-3.076.282-1.239.282 8.52.282 13.1.282 4.573.282-.866.564 10.277.282-.135.282-.727.564 3.92.282 6.706.282 9.916.282-4.871.282-20.564.282-8.497.564 33.076.564 8.182.564 18.333.281-3.352.564-20.724 1.128-66.847.846-38.588.282-2.608.282-1.3.282-2.257.282-4.439.282-2.426.282 2.213.282.034.282-1.483.282 7.887.564 22.781.282 7.577.564 19.427.282-.228.281-1.578.282-.853.282-.238.282 2.473.846 9.84.282.08.282-1.66.282 2.394.282.972.282-4.662.282.79.282 5.771.282-4.35.282-7.016.282 8.867.282 15.054.282 3.558.282.741.564 16.481.282-10.119.282-16.773.282-5.394.845 12.747.564 22.375.564-8.073.564 6.577.282.575.282 3.175.564 11.997.282 4.112.564 13.183.282-2.331.282-8.271.282-13.66 1.128-80.629.564-8.507.282-12.479.281-7.306.282-.02.846-16.298.282-6.79.282.762.282 9.952.282.018.282-5.377.282 10.495.564 33.348.564 17.316.282 7.248.282 12.066.282 7.098.282-1.961.282 2.626.282 5.192.282-6.917.282-10.329.282 2.179.282 8.007.282 1.046.281-2.76.282 4.281.564 20.813.282-1.763.282-.584.564 15.355.282-7.236.282-14.1.282-6.234.564 6.223.564-14.185.282.773.282 6.272.282 2.938.282.224.282 4.626.282 7.369.282.667.282-3.747.282 3.6.282 8.758.563 9.37.282 9.834.282 4.403.282-.04.282 9.066.282 12.703.282 2.85.282-1.419.282-2.684.282-16.818.564-46.832.282-13.456.564-39.659.564-18.19 1.41-33.971.282-6.835.282 1.623.563 18.733.282 1.423.282 9.226.564 30.78.282 8.386.564 21.332.564-5.936.282 7.724.282 2.745.282-6.705.282 5.853.282 17.866.282 5.94.282-4.18.282 1.52.282 2.862.282-2.413.282-3.536.282-2.038.282.267.282.901.563-8.415.282 2.838.564 10.5.282 2.5.282-.461.282.333.282 9.963.282 14.065.282 5.21.282-.326.282 3.148.282 1.354.282-9.05.282-14.169.282-6.889.282 3.674 1.128 29.292.564 9.574.282 1.902.282-6.916.563-39.216 1.128-88.367.282-18.126.282-8.973.282-1.504.282.144.564-5.573.282.73.282-2.292.282-7.64.282 2.995.846 57.392.564 29.463.564 18.136.282 2.098.282-3.584.281 5.412.564 27.836.564 14.96.282 3.656.282-2.963.564-14.814.282.098.282 3.377.282-3.33.282-5.34.282.253.564 2.685.282 3.444.282-4.89.282-11.28.282-.25.282 6.087.282-5.251.282-10.462.282-3.507.282-1.308.282-5.968.281-8.917.282-3.23.564 19.487.282-.89.282 4.257.564 45.128.282 8.812.282 3.857.282 8.916.564 22.873.282-6.4.846-52.643 1.128-99.8.564-6.154.564-14.837.281-4.095.564-14.177.282-1.706.282-3.478.282 5.287.846 63.056.846 41.25.282 2.066.282-5.359.282-2.531.564 8.908.564-5.046.282-3.568.846-34.675.282-2.76.282-1.638.281-2.609.282-.711.282.735.282 2.862.282 11.285.282 16.67.282 9.463.282 2.026.282 3.923.564 11.695.564 16.586.564-7.404.282 5.833.282 3.29.282-5.313.282 2.684.564 26.856 1.128 10.578.563 16.865.282-.101.282 4.036.282 12.886.282 5.82.564-17.585.282-10.454.564-42.775.564-56.785.564-64.785.282-13.451.846-14.428.282-.77.564 10.927.282.454.282-7.523.282-.963.563 43.284.564 6.686.564 40.43.282 7.18.846 30.634.564-3.796.282-6.686.282-9.73.282-4.288.282-.616.282.636.564 7.442.282.456.564-1.282.282-1.81.282-2.715.282 1.9.564 21.398.281 2.921.282.746.564 9.862.282 1.268.282 3.918.282 2.179.282-2.565.282 1.81.282 4.939.282-3.911.282-8.409.282-1.308.846 9.188.282 4.803.282 2.033.282 3.52.846 24.975.282 2.182.282-3.388.282-12.854.845-62.373.846-69.53.282-15.03.282-7.009.564-7.13.564 5.34.564-9.653.282 1.866.282 4.371.282 14.57.564 47.655.282 7.192.564 31.823.282 2.297.282-11.621.282-6.025.281 1.58.564 1.07.564 7.07.282-.67.282 1.999.564 12.663.282-1.257.282 2.071.282 5.419.282-1.853.564-12.788.282-3.959.282 2.01.282 12.31.282 7.228.282-5.028.282 1.248.282 9.686.282.145.282-.69.564 32.355.281 2.68.564-.11.564-16.664.282 3.143 1.128 40.552.282 16.63.282 1.59.564-40.626.282-22.438.846-93.03.564-20.344.282-18.34.282-8.716.564 18.932.563-16.684.282 1.193.282-1.764.282-5.37.282 4.904 1.128 45.393.282.633.282-3.41 1.41 17.325.282 2.835.564 24.364.564 4.219.282 6.564.282.605.282-2.134.282 1.816.281.86.282.385.282 2.979.282.654.282-1.087.282 1.073.282-1.966.282-3.852.282 2.257.846 18.684.282 1.88.282-2.322.564 5.875.282-4.69.282 1.7.564 23.043.564 8.772.282 3.324.282 7.517.282 10.846.845 17.583.282 1.752.282-8.56.282-13.702.282-22.394.564-57.206.282-8.521.282-1.758.282-6.195.564-15.393.282-6.75.846-46.823.282-2.563.564-10.038.564 3.848.282-.09.282 11.483.282 17.358.845 28.118.282 3.821.282.001.846 31.668.564-1.391.282 1.623.282 3.435.282.54.282-1.241.282 7.434.564 24.75.282.291.282-.949.282-.078.282-3.528.282-6.09.282-3.136.282-.722.282-.138.282 4.15.281 6.298.282-1.114.282-4.925.282 4.17.282 11.774.282 6.531.282-1.394.282-.578.282 6.522.282 9.147.282 4.824.282 2.408.282 6.59.564 18.077.564 10.617.282 6.442.282-2.158.282-16.48 1.691-141.862.282-14.742.282-7.125.282-3.505.564-10.333.282-3.193.564-13.684.282.425 1.41 60.434.282 15.682.282 4.607.282.306.564 10.271.282 2.668.564 18.53.282-1.573.282-6.076.281 4.196.282 7.773.564 3.55.564 11.432.282-2.757.282-5.132.282-.431.282 3.372.564 2.161.282 5.356.282 2.577.282-3.975.282-.306.282 5.55.282.251.282-4.93.282.897.564 13.69.282 2.059.282 5.64.564 19.15.281 2.725.282 7.487.564 23.488.282 6.815.282 3.996.282-10.816 1.41-136.155.282-6.647.564 7.635.846-23.735.282-5.961.564-30.767.282-2.171.564-7.778 1.127 39.717.282 10.831 1.128 21.715.564 1.476.282-1.608.282 1.802.846 33.695.282.765.282 5.216.282 11.554.282 1.547.282-11.49.282-5.366.282 5.434.282.921.282-4.71.282.161.281 4.041.282.37.282-2.875.282-.063.846 14.902.282 2.07.564 14.327.282 1.64.282-1.63.282.596.282 3.107.846 17.498.282 2.804.564 14.137.282 3.872.564 24.129.282-8.878.282-12.72.282-6.165.281-20.296.564-59.598.282-10.32.282-15.51.564-42.31.846-29.429.282-2.817.282 9.969.282 14.068.282 4.403.282-4.38.282.196.282 7.715.282 3.25.282-1.577.282 6.325.282 11.269.282 2.737.282.155.282 7.539.282 4.211.563-13.407.282 3.791.282 2.052.282-1.994.282 6.612.282 13.1.282 6.152.282 1.884.564 15.105.282-3.075.282-5.762.282 5.597.282 11.383.282-.394.282-7.923.282 5.033.282 10.96.564-4.104.282 14.068.282 7.697.282-6.202.282 7.496.282 20.942.281 5.659.282-2.385.564 24.053.282-10.728.282-16.467.282-.746.846 33.527.564 10.695.282 4.788.282-.776.282-14.85 1.41-134.104.564-24.804.282-4.161.564 22.335.281-5.27.282-13.62.282-3.966.282-1.588.564-23.93.282-.098.564 11.925.282 11.88.564 35.152.282 9.835.282 1.518.282-1.644.282 2.423.282 5.253.282 1.133.282-.511.282 2.662.282 1.212.282-2.184.282 3.586.282 9.196.563 9.029.564 14.733.282-2.014.282 1.506.564 12.88.282 2.753.564 7.978.282-.304.282-2.187.282 2.072.282 4.175.282-5.105.282-7.27.282 9.454.282 17.47.564 10.475.282 11.62.564 11.063.564 36.763.282 7.028.281-1.4.282-7.5.564-40.654.846-71.266.564-32.87.846-59.372.282-3.867.282.612.282-4.365.282 1.189.282 11.24.282 3.822.282-4.278.282 8.527.282 18.023.282 6.521.282-6.014.282-3.237.282 7.502.281 10.469.282-.718.282-3.887.282 12.903.282 18.556.282-.517.282-6.44.564 19.598.282-8.708.282-14.71.282-2.57 1.128 25.565.282 3.86.282-1.03.564-5.682.282 1.612.282 3.345.282-.885.282-2.827.563 10.663.282-2.577.282 1.309.564 31.817.564 1.437.564 13.55.564 11.815 1.128 25.695.282 10.782.282 6.458.282-4.657.564-21.635.564-49.955.282-5.876.282-3.011.564-42.199.563-14.173.564-43.58.282-6.052.282-2.162.564-15.446.282.888.564 17.56L579.64 92.2l.564 28.85.282.864.282-2.754.282 5.653.282 1.533.564-20.034.282 3.65.282 1.52.281-1.844.564 7.1.282-1.345.282-2.123.282-.299.564 2.844.282-2.884.282-4.043.282 6.566.282 12.742.282 3.257.282-2.46.282 10.4.282 20.069.282 9.228.282-4.479.282-.369.282 7.772.282 1.34.282-8.916.282-4.662.282 4.838.845 23.654.282-5.504.282-10.65.282 3.12.564 26.922.282 8.585.282 13.473.282 7.328.282-12.709.564-42.767.564-35.272.564-42.478.282-13.086.282-7.553.564-7.24.564-13.007 1.127-13.056.282.692.564 15 .282 1.237.282 6.283.282 14.649.282 6.8.564-17.183.282-1.486.282 5.5.564 20.001.564 25.719.282.735.282-2.939.282-.73.282-1.475.282-.737.282 1.813.282-4.317.282-8.91.282-3.072.563 6.219.846 12.229.564 10.492.282 2.696.282 8.034.564 21.589.564 17.649.846 36.23.564 6.112.282 4.677.282-1.522.564-17 .282-4.576.282-9.811.564-48.09.281-6.976.282 2.406.282-9.513.282-16.865.564-11.777.846-45.452.282-8.181.564-23.465.282-7.056.282-3.036.564 9.176.282 4.087.564 23.004.282 1.233.282-5.228.282 5.915.282 12.506.564 12.859.281 14.278.282 7.212.282.502.564 16.604.282-3.626.282.295.282 10.948.282 3.03.282-3.915.564 4.257.282-6.037.282.124.282 5.685.282-1.32.282-5.237.282.684.282 6.689.564 26.79.282 1.118.282 1.829.282 14.676.282 6.537.563-25.661.282 1.696.282 5.355.846 9.954.846 24.437.282 7 .282 12.21.282 7.1.282-7.59.564-30.833.564-42.69.282-7.79.282-.897.282-4.809.846-33.61.564-9.831 1.41-23.594.281-8.46.282-.736.846 22.502.282 6.767.564 24.324.846 19.205.282-.338.282-3.155.564 5.36.282.305.564 2.982 1.127-19.85.282 3.996.282 7.376.282-2.167.282 5.926.564 30.235.282-3.027.564 15.064.282-5.741.282-16.424.282-3.868.564 6.428.282-2.473.282 5.853.564 29.658.282 3.448.846 15.946.282-13.413.282 7.934h0" clip-path="url(#pd736b01d0c)" style="fill:none;stroke:#1f77b4;stroke-width:1.5;stroke-linecap:square"/><path id="patch_3" d="M61.127 269.542V3.43" style="fill:none;stroke:gray;stroke-width:.8;stroke-linejoin:miter;stroke-linecap:square"/><path id="patch_4" d="M674.928 269.542V3.43" style="fill:none;stroke:#000;stroke-width:.8;stroke-linejoin:miter;stroke-linecap:square"/><path id="patch_5" d="M61.127 269.542h613.8" style="fill:none;stroke:gray;stroke-width:.8;stroke-linejoin:miter;stroke-linecap:square"/><path id="patch_6" d="M61.127 3.43h613.8" style="fill:none;stroke:#000;stroke-width:.8;stroke-linejoin:miter;stroke-linecap:square"/></g></g><defs><clipPath id="pd736b01d0c"><path d="M61.127 3.43h613.8v266.112h-613.8z"/></clipPath></defs></svg>