<svg xmlns="http://www.w3.org/2000/svg" xmlns:xlink="http://www.w3.org/1999/xlink" width="913.477" height="377.053" viewBox="0 0 685.107 282.79"><defs><style>*{stroke-linejoin:round;stroke-linecap:butt}</style></defs><g id="figure_1"><path id="patch_1" d="M0 282.79h685.107V0H0v282.79z" style="fill:none"/><g id="axes_1"><path id="patch_2" d="M71.308 266.112h613.8V0h-613.8v266.112z" style="fill:none"/><g id="matplotlib.axis_1"><g id="xtick_1"><g id="line2d_1"><defs><path id="me23a985dd7" d="M0 0v3.5" style="stroke:gray;stroke-width:.8"/></defs><use xlink:href="#me23a985dd7" x="99.207" y="266.112" style="fill:gray;stroke:gray;stroke-width:.8"/></g><g id="text_1" style="fill:gray" transform="matrix(.1 0 0 -.1 96.026 280.71)"><defs><path id="DejaVuSans-30" d="M2034 4250q-487 0-733-480-245-479-245-1442 0-959 245-1439 246-480 733-480 491 0 736 480 246 480 246 1439 0 963-246 1442-245 480-736 480zm0 500q785 0 1199-621 414-620 414-1801 0-1178-414-1799Q2819-91 2034-91q-784 0-1198 620-414 621-414 1799 0 1181 414 1801 414 621 1198 621z" transform="scale(.01563)"/></defs><use xlink:href="#DejaVuSans-30"/></g></g><g id="xtick_2"><use xlink:href="#me23a985dd7" id="line2d_2" x="168.958" y="266.112" style="fill:gray;stroke:gray;stroke-width:.8"/><g id="text_2" style="fill:gray" transform="matrix(.1 0 0 -.1 159.414 280.71)"><defs><path id="DejaVuSans-35" d="M691 4666h2478v-532H1269V2991q137 47 274 70 138 23 276 23 781 0 1237-428 457-428 457-1159 0-753-469-1171Q2575-91 1722-91q-294 0-599 50Q819 9 494 109v635q281-153 581-228t634-75q541 0 856 284 316 284 316 772 0 487-316 771-315 285-856 285-253 0-505-56-251-56-513-175v2344z" transform="scale(.01563)"/></defs><use xlink:href="#DejaVuSans-35"/><use xlink:href="#DejaVuSans-30" x="63.623"/><use xlink:href="#DejaVuSans-30" x="127.246"/></g></g><g id="xtick_3"><use xlink:href="#me23a985dd7" id="line2d_3" x="238.708" y="266.112" style="fill:gray;stroke:gray;stroke-width:.8"/><g id="text_3" style="fill:gray" transform="matrix(.1 0 0 -.1 225.982 280.71)"><defs><path id="DejaVuSans-31" d="M794 531h1031v3560L703 3866v575l1116 225h631V531h1031V0H794v531z" transform="scale(.01563)"/></defs><use xlink:href="#DejaVuSans-31"/><use xlink:href="#DejaVuSans-30" x="63.623"/><use xlink:href="#DejaVuSans-30" x="127.246"/><use xlink:href="#DejaVuSans-30" x="190.869"/></g></g><g id="xtick_4"><use xlink:href="#me23a985dd7" id="line2d_4" x="308.457" y="266.112" style="fill:gray;stroke:gray;stroke-width:.8"/><g id="text_4" style="fill:gray" transform="matrix(.1 0 0 -.1 295.733 280.71)"><use xlink:href="#DejaVuSans-31"/><use xlink:href="#DejaVuSans-35" x="63.623"/><use xlink:href="#DejaVuSans-30" x="127.246"/><use xlink:href="#DejaVuSans-30" x="190.869"/></g></g><g id="xtick_5"><use xlink:href="#me23a985dd7" id="line2d_5" x="378.207" y="266.112" style="fill:gray;stroke:gray;stroke-width:.8"/><g id="text_5" style="fill:gray" transform="matrix(.1 0 0 -.1 365.483 280.71)"><defs><path id="DejaVuSans-32" d="M1228 531h2203V0H469v531q359 372 979 998 621 627 780 809 303 340 423 576 121 236 121 464 0 372-261 606-261 235-680 235-297 0-627-103-329-103-704-313v638q381 153 712 231 332 78 607 78 725 0 1156-363 431-362 431-968 0-288-108-546-107-257-392-607-78-91-497-524-418-433-1181-1211z" transform="scale(.01563)"/></defs><use xlink:href="#DejaVuSans-32"/><use xlink:href="#DejaVuSans-30" x="63.623"/><use xlink:href="#DejaVuSans-30" x="127.246"/><use xlink:href="#DejaVuSans-30" x="190.869"/></g></g><g id="xtick_6"><use xlink:href="#me23a985dd7" id="line2d_6" x="447.957" y="266.112" style="fill:gray;stroke:gray;stroke-width:.8"/><g id="text_6" style="fill:gray" transform="matrix(.1 0 0 -.1 435.233 280.71)"><use xlink:href="#DejaVuSans-32"/><use xlink:href="#DejaVuSans-35" x="63.623"/><use xlink:href="#DejaVuSans-30" x="127.246"/><use xlink:href="#DejaVuSans-30" x="190.869"/></g></g><g id="xtick_7"><use xlink:href="#me23a985dd7" id="line2d_7" x="517.707" y="266.112" style="fill:gray;stroke:gray;stroke-width:.8"/><g id="text_7" style="fill:gray" transform="matrix(.1 0 0 -.1 504.983 280.71)"><defs><path id="DejaVuSans-33" d="M2597 2516q453-97 707-404 255-306 255-756 0-690-475-1069Q2609-91 1734-91q-293 0-604 58T488 141v609q262-153 574-231 313-78 654-78 593 0 904 234t311 681q0 413-289 645-289 233-804 233h-544v519h569q465 0 712 186t247 536q0 359-255 551-254 193-729 193-260 0-557-57-297-56-653-174v562q360 100 674 150t592 50q719 0 1137-327 419-326 419-882 0-388-222-655t-631-370z" transform="scale(.01563)"/></defs><use xlink:href="#DejaVuSans-33"/><use xlink:href="#DejaVuSans-30" x="63.623"/><use xlink:href="#DejaVuSans-30" x="127.246"/><use xlink:href="#DejaVuSans-30" x="190.869"/></g></g><g id="xtick_8"><use xlink:href="#me23a985dd7" id="line2d_8" x="587.457" y="266.112" style="fill:gray;stroke:gray;stroke-width:.8"/><g id="text_8" style="fill:gray" transform="matrix(.1 0 0 -.1 574.732 280.71)"><use xlink:href="#DejaVuSans-33"/><use xlink:href="#DejaVuSans-35" x="63.623"/><use xlink:href="#DejaVuSans-30" x="127.246"/><use xlink:href="#DejaVuSans-30" x="190.869"/></g></g><g id="xtick_9"><use xlink:href="#me23a985dd7" id="line2d_9" x="657.207" y="266.112" style="fill:gray;stroke:gray;stroke-width:.8"/><g id="text_9" style="fill:gray" transform="matrix(.1 0 0 -.1 644.482 280.71)"><defs><path id="DejaVuSans-34" d="M2419 4116 825 1625h1594v2491zm-166 550h794V1625h666v-525h-666V0h-628v1100H313v609l1940 2957z" transform="scale(.01563)"/></defs><use xlink:href="#DejaVuSans-34"/><use xlink:href="#DejaVuSans-30" x="63.623"/><use xlink:href="#DejaVuSans-30" x="127.246"/><use xlink:href="#DejaVuSans-30" x="190.869"/></g></g></g><g id="matplotlib.axis_2"><g id="ytick_1"><g id="line2d_10"><defs><path id="mfb561a0bf2" d="M0 0h-3.5" style="stroke:gray;stroke-width:.8"/></defs><use xlink:href="#mfb561a0bf2" x="71.308" y="232.451" style="fill:gray;stroke:gray;stroke-width:.8"/></g><g id="text_10" style="fill:gray" transform="matrix(.16 0 0 -.16 0 238.53)"><defs><path id="DejaVuSans-2212" d="M678 2272h4006v-531H678v531z" transform="scale(.01563)"/></defs><use xlink:href="#DejaVuSans-2212"/><use xlink:href="#DejaVuSans-32" x="83.789"/><use xlink:href="#DejaVuSans-30" x="147.412"/><use xlink:href="#DejaVuSans-30" x="211.035"/><use xlink:href="#DejaVuSans-30" x="274.658"/><use xlink:href="#DejaVuSans-30" x="338.281"/></g></g><g id="ytick_2"><use xlink:href="#mfb561a0bf2" id="line2d_11" x="71.308" y="191.606" style="fill:gray;stroke:gray;stroke-width:.8"/><g id="text_11" style="fill:gray" transform="matrix(.16 0 0 -.16 0 197.685)"><use xlink:href="#DejaVuSans-2212"/><use xlink:href="#DejaVuSans-31" x="83.789"/><use xlink:href="#DejaVuSans-30" x="147.412"/><use xlink:href="#DejaVuSans-30" x="211.035"/><use xlink:href="#DejaVuSans-30" x="274.658"/><use xlink:href="#DejaVuSans-30" x="338.281"/></g></g><g id="ytick_3"><use xlink:href="#mfb561a0bf2" id="line2d_12" x="71.308" y="150.761" style="fill:gray;stroke:gray;stroke-width:.8"/><use xlink:href="#DejaVuSans-30" id="text_12" style="fill:gray" transform="matrix(.16 0 0 -.16 54.127 156.84)"/></g><g id="ytick_4"><use xlink:href="#mfb561a0bf2" id="line2d_13" x="71.308" y="109.915" style="fill:gray;stroke:gray;stroke-width:.8"/><g id="text_13" style="fill:gray" transform="matrix(.16 0 0 -.16 13.408 115.994)"><use xlink:href="#DejaVuSans-31"/><use xlink:href="#DejaVuSans-30" x="63.623"/><use xlink:href="#DejaVuSans-30" x="127.246"/><use xlink:href="#DejaVuSans-30" x="190.869"/><use xlink:href="#DejaVuSans-30" x="254.492"/></g></g><g id="ytick_5"><use xlink:href="#mfb561a0bf2" id="line2d_14" x="71.308" y="69.07" style="fill:gray;stroke:gray;stroke-width:.8"/><g id="text_14" style="fill:gray" transform="matrix(.16 0 0 -.16 13.408 75.149)"><use xlink:href="#DejaVuSans-32"/><use xlink:href="#DejaVuSans-30" x="63.623"/><use xlink:href="#DejaVuSans-30" x="127.246"/><use xlink:href="#DejaVuSans-30" x="190.869"/><use xlink:href="#DejaVuSans-30" x="254.492"/></g></g><g id="ytick_6"><use xlink:href="#mfb561a0bf2" id="line2d_15" x="71.308" y="28.225" style="fill:gray;stroke:gray;stroke-width:.8"/><g id="text_15" style="fill:gray" transform="matrix(.16 0 0 -.16 13.408 34.304)"><use xlink:href="#DejaVuSans-33"/><use xlink:href="#DejaVuSans-30" x="63.623"/><use xlink:href="#DejaVuSans-30" x="127.246"/><use xlink:href="#DejaVuSans-30" x="190.869"/><use xlink:href="#DejaVuSans-30" x="254.492"/></g></g></g><path id="line2d_16" d="m99.207 150.778.846-.034.846.034.846-.035.846.036.846-.037.846.039.846-.042.846.045.845-.05.846.056.282-.06.282.063.282-.066.282.07.282-.075.282.08.282-.085.282.091.282-.099.282.108.282-.119.282.133.282-.15.282.172.282-.203.282.248.282-.32.282.452.282-.772.563 7.56.282-.3.282-.631.282-2.053.564-1.473.282-.529.282-1.034.282-.048.846 1.279.282.576.282.026.282-.183.282.065.282.535.282-.163.564-1.468.282-.088.282-.238.846-1.577.282.47.563 1.585.282.291.282-.141.282.039.846 1.14.564 2.748.282.347.282-.687.282.76.564 4.013.282.393.282 1.676.564 5.449.282-.1.282-.385.282 1.191.282 2.402.282 1.15.282-2.139.845-15.297.282-10.23.846-43.997.564-11.085.282-3.64.282 1.218 1.41 37.598.564 17.16 1.41 26.69.282 1.497.282-.136.845-3.307.846-6.651.564-5.897.282-1.366.282-.203.282-1.486.282-2.56.282-.83.282.956.282.25.282-.801.282.15.564 2.523.564 1.12.282.33.282-.087.282.157.282 1.255.563 4.356.282.935.282-.559.282-1.024.282-.132.564 1.501.564.436.846 1.042.564 1.557.564.765.846 3.548.282.4.282 1.224.564 3.437.564 1.89.563 3.088.282.02.282-2.233.282-4.995.282-8.872.564-30.68.564-31.881.564-19.976.282-3.978.282.21.282 3.618.282 6.714.564 21.1.564 22.19.846 22.831.282 6.497.282 3.72.281 1.388.282 1.994.282 3.27.282 1.883.282-.486.282-.807.282-.172.282-.832.846-4.856.282-2.425.282-1.29.282 1.14.282 1.937.282.692.282-.222.282.017.282.435.282.147.282-1.176.846-8.975.282-.125.282.516.281.2.282-.024.564-.443.282.289.282.75.282.065.282-.947.282-.159.282 2.504.564 8.54.282 1.234.282-.54.282-.192.282-.004.282-1.42.282-1.996.282.243.564 4.766.564 2.268.282.068.563-4.778.282-.168.564 5.325.564 5.3.282.323.282-2.287.282-6.027.564-25.472 1.128-62.645.282-6.02.282-.879.282 3.805.564 17.945 1.692 62.454.563 12.047.282 2.416.282 1.15.282.312.282-.306.282-.913.282-1.82.846-8.406.564-6.577.564-3.607.282-.477.282.942.282 1.464.282.347.282-.789.282-.45.564 1.064.282.094.282.795.563 3.391.282.332.282.863.282 1.872.282.618.564-2.176.564 1.615.282.12.282.329.564 1.051.282.393.564 1.207.282-.002.282.251.282 1.23.564 4.18.282 1.086.564.738.563 1.611.282 1.998.846 10.579.282 1.034.282.166.282-2.218.282-7.615.564-33.962.846-53.581.282-10.863.282-6.379.282-1.834.282 1.54.282 4.101.282 7.377.564 25.585.846 37.732.563 19.336.282 6.143.282 2.1.564-1.278.282-.158.282-.866.564-3.349.282-.54.282-.99.846-5.272.564-2.825.846-1.869.282.278.282 1.604.282.924.564-1.338.281-.153.282-.59.282-.952.282-.162.564 1.008.282-.116.282-.344.282.304.282 2.166.282 3.486.282 2.055.282-.327.282-.108.564 3.097.282-.977.282-1.796.282-.674.282.154.282.44.282 1.147 1.41 8.47.281.551.282 1.084.846 5.93.564 3.75.282.704.282-1.19.282-3.462.282-7.897.564-33.183.846-54.139.282-12.887.282-7.773.282-3.461.282-.41.282 3.146.282 7.133.564 22.042 1.691 82.35.282 3.991.282 1.4.282.233.846-2.228.282-1.707.846-9.853.846-14.705.846-3.852.282-.746.282 1.505.563 4.559.282-.054.282-.33.282.405.282.106.282-.61.282.256.282 1.516.282.89.846-1.402.564-.719.282.53.564 2.84.282 1.759.282.9.282.528.282 2.746.564 7.989.282.041.282.93.563 6.5.282-.043.282-.398.282 1.294.564 4.412.564 6.504.282 1.363.564-.526.282-1.051.282-4.94.282-11.545 1.692-100.936.282-5.89.282-1.545.282 1.816.282 4.863.563 16.384.564 21.669 1.128 49.752.282 5.035.282 2.006.282.786.282.157.282-.873.846-6.572.282-1.192.846-4.642.282-.28.846-3.022.282-.094.282-.464.281.355.564 3.257.564-.321 1.41 3.99.282.278.282-.326.282.187.282.645.564.519.282 1.062.846 4.541.564 2.52.564 4.223 1.127 9.213.282 1.548.282.492.282.213.282.658.282 1.99.846 10.985.282.084.282-1.917.282-5.626.282-12.112.564-40.69.846-60.071.564-21.555.282-4.833.282-1.98.282.301.282 3.927.563 20.007.564 28.941 1.128 67.601.282 9.87.282 3.994.282.467.282.123.282-.817.564-5.149.282-1.178.282-2.156.564-6.205.282-.821.282-1.57.564-5.21 1.127-3.525.282-.026.564 1.062.282.273.282-.146.564-1.405.282.076.282.56.282.054.282-.067.282.936.282 1.384.282.412.282-.292.282.243.282 1.088.564 3.207.282.696.282-.133.282.822.564 6.086.845 12.189.564 3.555.564 7.514.282 2.297.282 3.48.564 11.921.282 2.954.282-.055.282-4.052.282-10.937.564-43.24.846-69.765.846-44.972.282-10.115.282-4.736.281 1.068.282 4.484.564 14.99.564 22.805.564 39.767.564 42.787.564 22.293.282 5.536.282 1.182.282-1.144.282-1.95.564-5.658.282-1.052.282-.313 1.128-4.93.564-3.752.281-.651.564-2.824.282-.197.282 1.198.282.274.282-1.186.282-.344.564 3.595.282.341.282-.426.282.325.282.971.282.542.282-.02.282.276.564 1.823.282.41.282.711.564 2.648.282.482.282 1.239.845 7.225.282 2.543.564 6.21.282 1.364.282 2.619.564 9.279 1.128 12.032.282-4.526.282-12.786.564-43.598 1.128-97.654.564-26.677.282-5.066.281-.422.282 2.395.282 4.457.282 6.52.282 9.157.564 30.81 1.41 96.464.282 8.583.282 3.855.282 1.48.282.087.282-.591.282-1.056.282-2.353.564-6.504.282-1.29.282-.735.564-3.154.563-3.915.846-7.493 1.128-5.687.282-.847.282-.019.282.81 1.974 10.572.282 2.342.282 1.291.282.677.282 1.514.846 7.73.563 6.391 1.41 12.205.846 15.083.846 11.616.282-5.88.282-13.993.564-46.28 1.128-101.022.564-31.029.282-6.025.282.417.563 9.538.564 13.726.564 23.361.564 34.765 1.128 76.15.282 9.076.282 2.184.282.292.282 1.57.282.768.282-2.21.564-6.12.282-2.206.564-8.184.564-8.649.563-5.372.846-6 .282-1.356.282-.706.282.386 1.128 5.522.564 4.158.282 1.265.564 1.477.846 3.404.846 4.077.282 2.39 1.41 18.629 1.41 21.384 1.409 18.567.282-2.366.282-7.806.282-16.392 1.974-173.422.282-9.17.282-2.248.282 2.781.281 1.386.564-5.098.282 4.173.564 18.277.564 27.331 1.41 100.534.564 17.22.282 4.124.282 1.856.282.631.282-.771 1.128-9.232 1.41-9.172.281-1.359.282 1.022.564 4.635.282.3.282-1.548.564-5.672.564-8.713.282-4.455.282-2.215.282-.335.282.317.282.931.282 1.36.564 1.476.282 2.157 1.127 13.434.564 8.839 1.41 17.818 1.41 29.229.282 1.65.282-4.671.282-11.763.564-46.188 1.128-120.003.282-16.152.282-8.321.282-4.551.282-1.823.281 1.243.564 3.934.282 2.05.282 4.488.282 7.58.564 26.85 1.41 92.376.564 20.295.282 4.52.282 2.316.282.783.282-1.401.282-2.746.282-1.369.282.328.282-1.134.564-8.297.281-1.423.282.366.282-.46.564-3.316.846-2.122.282-.8.282.087 1.41 3.208 1.128 5.754.282 1.933.282.896.282.293.282 1.826 1.691 20.914.282 4.23 1.692 39.29.282 2.162.282 1.054.282-4.122.282-13.983.564-50.015 1.128-121.231.564-36.337.282-5.992.282-.007.282-.161.281-1.252.282 2.045 1.128 24.565 1.128 53.685 1.128 68.732.282 12.212.282 6.913.282 2.501.282.506.282-.115.282.304.564 2.802.282.271.564-1.371.563-2.907 1.128-6.66.564-.878.282-.133.846 1.575.564 2.115.282-1.445.564-5.998.564-2.676.282-.49.564 1.522.282.778.282 2.208 1.41 20.66 1.973 35.236.564 11.104.282 2.867.282-1.967.282-10.178.564-46.562 1.128-125.291.282-19.382.282-11.566.282-5.51.563-4.022.282-1.104.282.376.564 4.598.282 3.129.282 5.666.564 21.183.564 25.644 1.41 87.075.564 19.5.282 3.762.282-.408.282-.838 1.128 2.47.281-1.708.564-11.59.282-1.983.282.378.282-1.612.282-3.317.282-1.495.846 3.326.282-.09.282-.366.564-1.493.282.068.846 5.316.282.19.282 1.563.564 5.018.282.544.282 1.319.845 11.45.564 6.91.282 1.46.282-.279.282 1.123.846 15.643.282 5.621.564 18.636.282 4.258.282-3.579.282-11.351.564-45.983 1.41-147.952.282-10.076.282-5.024.281-2.91.282-1.674.282-.95.282.031.282 1.56.282 2.708.282 4.009.282 7.16.564 24.984 1.692 82.987.564 17.059.282 5.331.564 4.925.846 7.193.282.505.281.74.282 1.092.282.626.564.368.282-.635.564-2.882.282.04.282.317.282-.87.282-1.57.282-.567.564 1.154.282-.052.282.512.564 2.106.282-.018.282.099.564 1.193.282 1.56.564 7.651 1.127 16.862 1.128 17.495 1.41 30.313.282 2.04.282-4.41.282-15.28.564-58.21 1.128-124.856.282-14.974.282-7.52.282-3.643.281-1.314.564-.136.282.75.282 2.96.564 10.641.564 15.463 1.128 42.488.846 31.49.846 28.448.564 10.167.564 6.097.845 4.112.564 1.417.282.299.282-.714.564-2.025.282-.905.564-2.733.846-1.178.282 1.107.282 2.011.282.59.282-.832.282.074.846 4.691.564 3.963.282.184.282.423.282 2.632 2.255 31.21 1.128 18.734.846 17.434.282-3.164.282-12.973.564-46.932 1.41-148.975.563-14.388.282-4.95.282-1.237.564 5 .282 1.348.282 3.588 1.128 28.486 1.128 46.13.564 26.997.564 14.787.564 10.945.564 8.18.282 2.65.564 2.243.281.695.282-.146.282-.669.282-.16.564.36.282.829.564 4.44.282-.173.282-1.684.282-.52.564 2.484.564.096.846 2.222.846 4.46.282-.32.282.566 1.127 9.696 1.128 14.947.564 5.378.564 13.049.846 20.65.282 3.45.282-2.529.282-11.206.564-49.76 1.128-131.513.282-16.625.282-8.18.281-3.45.282.284.282 1.702.282.512.282 1.487.846 16.108.282 6.927 1.692 62.708.846 23.574.564 9.237.282 3.576.282 1.992.282.986.282 1.691.564 6.033.563 6.539.282 1.312.564-.556.282.675 1.128 3.857.564 1.178.282 1.466.282.859.282-2.098.282-4.042.282-2.031.282 1.458.282 2.302.564 2.409 1.128 11.453.281.938.282 1.848 1.128 13.534 2.538 45.025.282-6.353.282-18.026.564-57.246.846-106.838.282-18.338.282-6.827.282-2.203.281-.213.282 2.107 1.128 12.57.846 19.403 1.128 34.947.846 26.155.564 12.191 1.128 14.814.282 2.236.282 1.12.282.543.563.005.282.76.282.283.564-2.071.846 1.308.282.922.282 1.584.282.55.282-.13.282.867.846 4.405.282 2.555.564 2.328.282 3.232.282 4.738.282 2.72.282 1.127.564 5.365.281-.09.282-1.572.282 1.022 1.128 16.908.846 18.665.564 11.838.846 12.67.282-1.624.282-10.406.282-20.473.564-70.115.564-72.385.282-17.527.282-7.045.282-2.376.282-.115.563 3.563.282 2.448.564 8.593 1.128 23.853.846 24.789 1.41 41.455.282 3.464.282 1.68.282.098.282-1.129.846-6.415.282-1.376.563-3.965.282-.22.282.337.564-2.096.282.512.282 1.171.282.336.282.544.282 1.43.282.774.282.073.282 1.574.282 2.726.564 2.971.846 13.857.282 1.147.282 2.402 1.41 15.718.281 2.1 1.692 21.67.564 10.62.846 16.868.282 3.723.282-3.933.282-14.544.564-55.599.564-72.071.282-20.139.282-7.215.564-5.067.282.38.281 2.227.282 1.26.282.698.282 2.57.564 10.916.846 20.147.846 23.074.564 11.426.564 13.962.282 3.51.282.958.282.02.282.229.282-.433.282-2.976.282-4.517.282-2.31.563 2.334.282-.202.846-1.5.282.51.564 6.017.282.59.282-.799.282.808.846 7.586.282.698.564.515.282-.003.564-2.083.282.852.564 5.171.282 1.1.282 1.943.563 5.645.282 1.454.282 2.837.564 6.932.282 3.189 1.128 22.255.282 4.104.846 17.521.282-.712.282-7.717.282-18.232.846-85.77.564-23.883.282-9.316.282-5.05.282-.793.563-.597.846 4.545.282 3.04 1.128 20.105.846 26.27 1.128 20.96.282 1.46.564-2.476.282-.452.282-.893.282-.47.282.618.282.124.563-1.665.282.002.282-.722.282-1.153.282-.285.282.057.282-.37.282.304.564 2.958.282-.19.282-.478.282.546.282.962.564 1.073.846 3.446.282.886.564 2.324.282-.062.282.223.563 2.536.282 1.66.564 7.607.564 6.68 1.692 17.718.846 14.814.282 1.92.282-4.725.282-14.042 1.128-81.411.564-13.353.563-6.764.282-.732.282.115.282.325.282 1.418.564 4.496.282 3.324.846 17.842.282 3.95 1.128 22.757.846 7.83.282.53.846-3.194.282-.242.563-2.149.282-.195.282.427.564 1.266.282-.817.564-4.444.564 3.95.282-1.044.282-2.883.282-1.359.282.68.282 1.848.846 7.14.282 2.243.564 6.299.282.588.282-.07.564 1.59.282-1.177.281-2.305.282-.449.846 7.587.282 1.334.846 12.307.282.866.282 2.428 1.128 12.794.282-2.724.282-10.048 1.128-54.283.282-5.999 1.127-13.333.282 1.398.282.522.564-5.631.282.51 1.974 25.746.564 9.44.564 3.819.282 1.496.282.306.282-.595.282.052.282.346.282-.133.282.342.282.875.281-.48.282-1.286.282 1.006.282 3.022.282 1.275.282-.918.282-.163.282.736.282-.601.282-1.12.282.438.282.797.564-1.224.846 3.419.282.388.282.169.282-.646.282-.264.846 3.751.282.477.845 4.707 2.256 18.018 1.41 11.894.282.81.282-4.894 1.41-63.149.564-15.05.282-.908.281.682.282-.894.282-1.86.282-1.05.282-.062.282.483.282 1.216.564 4.74.564 7.921 1.41 22.047.564 8.458.282 2.642.282.26.564-1.953.564-.947.282-.342.281-.017h0" clip-path="url(#p9791aa32ab)" style="fill:none;stroke:#1f77b4;stroke-width:1.5;stroke-linecap:square"/><path id="patch_3" d="M71.308 266.112V0" style="fill:none;stroke:gray;stroke-width:.8;stroke-linejoin:miter;stroke-linecap:square"/><path id="patch_4" d="M685.107 266.112V0" style="fill:none;stroke:#000;stroke-width:.8;stroke-linejoin:miter;stroke-linecap:square"/><path id="patch_5" d="M71.308 266.112h613.8" style="fill:none;stroke:gray;stroke-width:.8;stroke-linejoin:miter;stroke-linecap:square"/><path id="patch_6" d="M71.308 0h613.8" style="fill:none;stroke:#000;stroke-width:.8;stroke-linejoin:miter;stroke-linecap:square"/></g></g><defs><clipPath id="p9791aa32ab"><path d="M71.308 0h613.8v266.112h-613.8z"/></clipPath></defs></svg>