<svg xmlns="http://www.w3.org/2000/svg" xmlns:xlink="http://www.w3.org/1999/xlink" width="913.477" height="379.723" viewBox="0 0 685.107 284.792"><defs><style>*{stroke-linejoin:round;stroke-linecap:butt}</style></defs><g id="figure_1"><path id="patch_1" d="M0 284.792h685.107V0H0v284.792z" style="fill:none"/><g id="axes_1"><path id="patch_2" d="M71.308 268.114h613.8V2.002h-613.8v266.112z" style="fill:none"/><g id="matplotlib.axis_1"><g id="xtick_1"><g id="line2d_1"><defs><path id="mb9da481245" d="M0 0v3.5" style="stroke:gray;stroke-width:.8"/></defs><use xlink:href="#mb9da481245" x="99.207" y="268.114" style="fill:gray;stroke:gray;stroke-width:.8"/></g><g id="text_1" style="fill:gray" transform="matrix(.1 0 0 -.1 96.026 282.712)"><defs><path id="DejaVuSans-30" d="M2034 4250q-487 0-733-480-245-479-245-1442 0-959 245-1439 246-480 733-480 491 0 736 480 246 480 246 1439 0 963-246 1442-245 480-736 480zm0 500q785 0 1199-621 414-620 414-1801 0-1178-414-1799Q2819-91 2034-91q-784 0-1198 620-414 621-414 1799 0 1181 414 1801 414 621 1198 621z" transform="scale(.01563)"/></defs><use xlink:href="#DejaVuSans-30"/></g></g><g id="xtick_2"><use xlink:href="#mb9da481245" id="line2d_2" x="168.958" y="268.114" style="fill:gray;stroke:gray;stroke-width:.8"/><g id="text_2" style="fill:gray" transform="matrix(.1 0 0 -.1 159.414 282.712)"><defs><path id="DejaVuSans-35" d="M691 4666h2478v-532H1269V2991q137 47 274 70 138 23 276 23 781 0 1237-428 457-428 457-1159 0-753-469-1171Q2575-91 1722-91q-294 0-599 50Q819 9 494 109v635q281-153 581-228t634-75q541 0 856 284 316 284 316 772 0 487-316 771-315 285-856 285-253 0-505-56-251-56-513-175v2344z" transform="scale(.01563)"/></defs><use xlink:href="#DejaVuSans-35"/><use xlink:href="#DejaVuSans-30" x="63.623"/><use xlink:href="#DejaVuSans-30" x="127.246"/></g></g><g id="xtick_3"><use xlink:href="#mb9da481245" id="line2d_3" x="238.708" y="268.114" style="fill:gray;stroke:gray;stroke-width:.8"/><g id="text_3" style="fill:gray" transform="matrix(.1 0 0 -.1 225.982 282.712)"><defs><path id="DejaVuSans-31" d="M794 531h1031v3560L703 3866v575l1116 225h631V531h1031V0H794v531z" transform="scale(.01563)"/></defs><use xlink:href="#DejaVuSans-31"/><use xlink:href="#DejaVuSans-30" x="63.623"/><use xlink:href="#DejaVuSans-30" x="127.246"/><use xlink:href="#DejaVuSans-30" x="190.869"/></g></g><g id="xtick_4"><use xlink:href="#mb9da481245" id="line2d_4" x="308.457" y="268.114" style="fill:gray;stroke:gray;stroke-width:.8"/><g id="text_4" style="fill:gray" transform="matrix(.1 0 0 -.1 295.733 282.712)"><use xlink:href="#DejaVuSans-31"/><use xlink:href="#DejaVuSans-35" x="63.623"/><use xlink:href="#DejaVuSans-30" x="127.246"/><use xlink:href="#DejaVuSans-30" x="190.869"/></g></g><g id="xtick_5"><use xlink:href="#mb9da481245" id="line2d_5" x="378.207" y="268.114" style="fill:gray;stroke:gray;stroke-width:.8"/><g id="text_5" style="fill:gray" transform="matrix(.1 0 0 -.1 365.483 282.712)"><defs><path id="DejaVuSans-32" d="M1228 531h2203V0H469v531q359 372 979 998 621 627 780 809 303 340 423 576 121 236 121 464 0 372-261 606-261 235-680 235-297 0-627-103-329-103-704-313v638q381 153 712 231 332 78 607 78 725 0 1156-363 431-362 431-968 0-288-108-546-107-257-392-607-78-91-497-524-418-433-1181-1211z" transform="scale(.01563)"/></defs><use xlink:href="#DejaVuSans-32"/><use xlink:href="#DejaVuSans-30" x="63.623"/><use xlink:href="#DejaVuSans-30" x="127.246"/><use xlink:href="#DejaVuSans-30" x="190.869"/></g></g><g id="xtick_6"><use xlink:href="#mb9da481245" id="line2d_6" x="447.957" y="268.114" style="fill:gray;stroke:gray;stroke-width:.8"/><g id="text_6" style="fill:gray" transform="matrix(.1 0 0 -.1 435.233 282.712)"><use xlink:href="#DejaVuSans-32"/><use xlink:href="#DejaVuSans-35" x="63.623"/><use xlink:href="#DejaVuSans-30" x="127.246"/><use xlink:href="#DejaVuSans-30" x="190.869"/></g></g><g id="xtick_7"><use xlink:href="#mb9da481245" id="line2d_7" x="517.707" y="268.114" style="fill:gray;stroke:gray;stroke-width:.8"/><g id="text_7" style="fill:gray" transform="matrix(.1 0 0 -.1 504.983 282.712)"><defs><path id="DejaVuSans-33" d="M2597 2516q453-97 707-404 255-306 255-756 0-690-475-1069Q2609-91 1734-91q-293 0-604 58T488 141v609q262-153 574-231 313-78 654-78 593 0 904 234t311 681q0 413-289 645-289 233-804 233h-544v519h569q465 0 712 186t247 536q0 359-255 551-254 193-729 193-260 0-557-57-297-56-653-174v562q360 100 674 150t592 50q719 0 1137-327 419-326 419-882 0-388-222-655t-631-370z" transform="scale(.01563)"/></defs><use xlink:href="#DejaVuSans-33"/><use xlink:href="#DejaVuSans-30" x="63.623"/><use xlink:href="#DejaVuSans-30" x="127.246"/><use xlink:href="#DejaVuSans-30" x="190.869"/></g></g><g id="xtick_8"><use xlink:href="#mb9da481245" id="line2d_8" x="587.457" y="268.114" style="fill:gray;stroke:gray;stroke-width:.8"/><g id="text_8" style="fill:gray" transform="matrix(.1 0 0 -.1 574.732 282.712)"><use xlink:href="#DejaVuSans-33"/><use xlink:href="#DejaVuSans-35" x="63.623"/><use xlink:href="#DejaVuSans-30" x="127.246"/><use xlink:href="#DejaVuSans-30" x="190.869"/></g></g><g id="xtick_9"><use xlink:href="#mb9da481245" id="line2d_9" x="657.207" y="268.114" style="fill:gray;stroke:gray;stroke-width:.8"/><g id="text_9" style="fill:gray" transform="matrix(.1 0 0 -.1 644.482 282.712)"><defs><path id="DejaVuSans-34" d="M2419 4116 825 1625h1594v2491zm-166 550h794V1625h666v-525h-666V0h-628v1100H313v609l1940 2957z" transform="scale(.01563)"/></defs><use xlink:href="#DejaVuSans-34"/><use xlink:href="#DejaVuSans-30" x="63.623"/><use xlink:href="#DejaVuSans-30" x="127.246"/><use xlink:href="#DejaVuSans-30" x="190.869"/></g></g></g><g id="matplotlib.axis_2"><g id="ytick_1"><g id="line2d_10"><defs><path id="m574bd70001" d="M0 0h-3.5" style="stroke:gray;stroke-width:.8"/></defs><use xlink:href="#m574bd70001" x="71.308" y="235.235" style="fill:gray;stroke:gray;stroke-width:.8"/></g><g id="text_10" style="fill:gray" transform="matrix(.16 0 0 -.16 0 241.314)"><defs><path id="DejaVuSans-2212" d="M678 2272h4006v-531H678v531z" transform="scale(.01563)"/></defs><use xlink:href="#DejaVuSans-2212"/><use xlink:href="#DejaVuSans-31" x="83.789"/><use xlink:href="#DejaVuSans-30" x="147.412"/><use xlink:href="#DejaVuSans-30" x="211.035"/><use xlink:href="#DejaVuSans-30" x="274.658"/><use xlink:href="#DejaVuSans-30" x="338.281"/></g></g><g id="ytick_2"><use xlink:href="#m574bd70001" id="line2d_11" x="71.308" y="197.043" style="fill:gray;stroke:gray;stroke-width:.8"/><g id="text_11" style="fill:gray" transform="matrix(.16 0 0 -.16 10.18 203.121)"><use xlink:href="#DejaVuSans-2212"/><use xlink:href="#DejaVuSans-35" x="83.789"/><use xlink:href="#DejaVuSans-30" x="147.412"/><use xlink:href="#DejaVuSans-30" x="211.035"/><use xlink:href="#DejaVuSans-30" x="274.658"/></g></g><g id="ytick_3"><use xlink:href="#m574bd70001" id="line2d_12" x="71.308" y="158.85" style="fill:gray;stroke:gray;stroke-width:.8"/><use xlink:href="#DejaVuSans-30" id="text_12" style="fill:gray" transform="matrix(.16 0 0 -.16 54.127 164.929)"/></g><g id="ytick_4"><use xlink:href="#m574bd70001" id="line2d_13" x="71.308" y="120.657" style="fill:gray;stroke:gray;stroke-width:.8"/><g id="text_13" style="fill:gray" transform="matrix(.16 0 0 -.16 23.587 126.736)"><use xlink:href="#DejaVuSans-35"/><use xlink:href="#DejaVuSans-30" x="63.623"/><use xlink:href="#DejaVuSans-30" x="127.246"/><use xlink:href="#DejaVuSans-30" x="190.869"/></g></g><g id="ytick_5"><use xlink:href="#m574bd70001" id="line2d_14" x="71.308" y="82.464" style="fill:gray;stroke:gray;stroke-width:.8"/><g id="text_14" style="fill:gray" transform="matrix(.16 0 0 -.16 13.408 88.543)"><use xlink:href="#DejaVuSans-31"/><use xlink:href="#DejaVuSans-30" x="63.623"/><use xlink:href="#DejaVuSans-30" x="127.246"/><use xlink:href="#DejaVuSans-30" x="190.869"/><use xlink:href="#DejaVuSans-30" x="254.492"/></g></g><g id="ytick_6"><use xlink:href="#m574bd70001" id="line2d_15" x="71.308" y="44.272" style="fill:gray;stroke:gray;stroke-width:.8"/><g id="text_15" style="fill:gray" transform="matrix(.16 0 0 -.16 13.408 50.35)"><use xlink:href="#DejaVuSans-31"/><use xlink:href="#DejaVuSans-35" x="63.623"/><use xlink:href="#DejaVuSans-30" x="127.246"/><use xlink:href="#DejaVuSans-30" x="190.869"/><use xlink:href="#DejaVuSans-30" x="254.492"/></g></g><g id="ytick_7"><use xlink:href="#m574bd70001" id="line2d_16" x="71.308" y="6.079" style="fill:gray;stroke:gray;stroke-width:.8"/><g id="text_16" style="fill:gray" transform="matrix(.16 0 0 -.16 13.408 12.158)"><use xlink:href="#DejaVuSans-32"/><use xlink:href="#DejaVuSans-30" x="63.623"/><use xlink:href="#DejaVuSans-30" x="127.246"/><use xlink:href="#DejaVuSans-30" x="190.869"/><use xlink:href="#DejaVuSans-30" x="254.492"/></g></g></g><path id="line2d_17" d="m99.207 158.795.282.108.282-.104.282.1.282-.097.282.094.282-.09.282.087.282-.085.282.083.282-.081.282.08.282-.079.282.077.282-.075.282.074.282-.073.282.072.282-.072.282.071.282-.07.282.07.282-.07.282.07.282-.07.282.07.281-.07.282.07.282-.071.282.073.282-.075.282.076.282-.078.282.08.282-.083.282.087.282-.091.282.097.282-.104.282.113.282-.126.282.144.282-.17.282.212.282-.29.282.488.282-1.729.282-5.103.282 2.002.845 31.921.282-1.296.282-.086.282 2.506.282-2.805.564-22.972 1.128-50.631.282-7.74.282-2.727.282 4.752.846 25.081.564 24.27.846 14.324.564 6.574.282.997.282-1.654.281-2.395.564-2.66.564-5.359.564-3.468.282-2.217.282-1.243.564-1.02.282.411.282.842.282.194.282-.526.282-.168.282 1.068.564 3.052.564 2.876.282.453.564-2.113.282-.196.281-.486.282.046 1.128 7.81.282.487.564-2.624.282 1.374.564 5.647.282 1.83.282.545.282-.775.282-1.8.282-4.472.282-9.234 1.128-55.149.282-5.517.282-.257.282 3.733.281 8.212 1.128 43.005.282 1.664.282.22.282 3.233.564 9.088.282 2.098.282-.485.564-4.425.282.14.282-1.428.282-3.223.282-1.557.282-.095.564-2.921.282-.101.282.058.282-.673.282.14.282.597.281-1.025.282-1.496.282.843.282 2.014.282.395.282-.189.564 2.278.282-.555.282-.261.564 1.63.282 1.923 1.41 22.511.282-.76.282-2.275.282 2.304.282 3.541.282-3.001.282-7.264.282-2.809.281 1.676.282-1.324.564-13.968.282-8.87 1.128-54.765.282-2.31.282-.78.282 1.589.282 7.554.846 36.235.846 19.806.564 8.116.564 2.286.282.86.282-.578.563-5.66.846-10.024.282-2 .282-.183.564 2.508.564-1.043.282 1.665.846 11.578.282.92.564.605.282-.32.282.612.282 2.185.282.785.282-1.191.282.774.282 2.448.282-1.028.281-3.697.282-.359.564 6.26.282 1.082.282-.244.282-1.571.282-.65 1.128 8.44.282.755.282-1.616.564-6.857.282-7.359.564-31.138.846-46.938.282-8.01.282-.888.282 4.579.281 9.492.846 43.504.846 23.165.846 13.933.282 1.35.282-.516.282-.172.282-.806 1.128-11.421.282-3.076.282-1.346.282-2.032.282-3.668.282-1.768.282 1.257.282.566.282-.916.281 1.672.564 8.688.282.863.282 1.239.282 2.534.282.861.282-1.066.282.103.282 1.484.282.523.282.148.282 1.933.564 5.04.564 2.298.282.142.282.004.282.784.564 3.06.846 4.822.281.31.282-3.021.846-16.935.564-38.868.564-28.638.564-16.45.282 1.727.282 8.064.282 13.294.564 36.789.282 9.192.846 11.606.282.188.282 1.312.564 6.385.282.584.281-.623.282-2.169.564-5.204.282-1.012.282-1.518.564-4.124.282-1.082.564-.972.282-.237.564.57.282-.205.282.921.564 7.042.282 1.365.282-.593.282-.262.846 1.66 1.127 5.942.282 1.413.564 4.756.846 4.524.282-.128.282.12.282 2.805.564 6.969.282 1.004.282 1.42.282.666.282-2.524.282-5.105.282-8.102.282-14.942 1.41-101.237.281-3.83.282 2.007.282 3.683.282 8.356.564 33.547.846 53.157.282 7.257.846 10.828.282 1.358.282-.288.282-1.304.564-4.196.282-2.583.282-1.551.282.858.282 1.589.282-1.326.282-3.847.282-1.779.281.615.282-2.404.282-6.03.282-3.18.564 3.332.282.106.282 2.046.282 3.272.282.799.282-.965.282-.083.282.768.282 1.642.564 5.076.282-.333.282.364.564 5.595.282.902.282 2.29.564 8.761.282.13.282-1.13.281 1.917.282 4.377.282 1.671.282-1.937.282-.107.282 3.222.282.477.282-5.736.282-9.446.282-13.265.564-44.77.564-43.365.564-26.787.282-1.897.282 5.035.282 8.89.282 13.286 1.128 79.871.563 18.113.282 4.431.282 1.623.282.657.282-1.017 1.974-19.655.564-4.133.282-1.01.282.567.282.834.282-.531.282.115.846 10.32.282-1.89.282.96.564 11.076.281.598.282-1.06.282 2.64.282 4.137.282-.284.282-2.92.282.73.282 3.665.282 1.72.282.084.282 1.393.846 7.67.282 1.17.282-.58.282-1.195.282-1.805.282-4.95.282-10.942.564-39.123.846-62.967.281-12.664.282-6.214.282-.895.282 6.002 1.128 52.166.564 41.298.282 12.36.282 6.031.282 3.412.282 1.466.282.014.282-.152.282-.683 1.128-9.046.282-.784.282-1.215.282-2.472.563-5.942.282.758.282 1.417.282-.074.282.116.282.808.564-1.21.282 3.435.282 4.842.282.97.282-1.155.564 3.124.282-2.013.282-3.608.282.509.564 8.311.282 1.38.282 3.152.564 11.298.564 2.537.282 3.81.563 10.076.282 2.13.282.273.282.003.282-.996.282-5.43.282-12.167.564-44.32.846-82.681.282-17.638.282-8.557.282-.492.282 3.945.282 6.684.564 22.143.564 34.683.846 57.877.281 12.9.282 3.91.282.209.564 8.916.282-.959.282-3.267.282-.916.282-1.502.282-3.609.282-1.976.282-.3.564-3.829.282-.166.282-1.188.564-9.818.282-1.794.282.84.282.085.282-1.146.282 1.058.282 3.954.282 2.03.563-3.485.564 4.311.282.958.282 2.138.564 5.324.282 1.055.282 1.908.282 3.236.846 17.972.282-.67.282.076.564 9.922.282-.453.282-2.062.282.432.564 4.078.282-.226.282-7.278.282-17.038.563-52.456.846-81.568.282-12.173.282-2.273.564 4.917.282 5.609.564 24.445.564 31.464.564 47.31.282 15.185.564 15.118.282 6.174.282 2.922.564-1.339.282 1.134.282-.455.845-17.185.282-.727.282.171.282-1.052.564-6.14.282-.183.282 2.653.282.802.282-2.156.282-.69.282 1.851.282.146.564-4.974.282.5.564 4.178.846 7.73.564 6.93.845 6.022.282.66.282.994.282 5.263.564 16.903.282.06.282-4.037.282-.933.282 2.354.282-1.44.282-8.887.564-30.521.564-53.752.564-51.439.282-13.834.282-5.1.282 4.004.564 14.745.282 4.037.281 8.628 1.692 92.126.282 7.021.282 3.043.282-.352.282-.579.282.59.282-.58.564-4.432.282.689.564 4.999.282-.942.282-2.232.282.629.282 1.241.282-3.651.282-5.631.282-.609.281 2.798.282.302.282-1.395.282-.052.282-.236.282-1.28.282.359.282 2.074.282.848.282-.377.282.862.282 2.788.282 4.446.846 18.168.282 2.33.282.933.282 1.65.282 3.966.846 18.403.564 5.05.282.797.281-3.405.282-10.362.282-18.589.564-63.587.564-64.987.564-31.02.282-8.846.282-3.853.282-.487.282.26.282 3.47.282 10.66.564 34.641 1.41 102.625.282 8.268.282 3.509.282-.416.281-1.162.282.178.282.582.282-.169.282-.723.282-2.069.846-16.785.282.98.282 1.434.282-.716.282.722.564 8.846.282.949.282-.594.282.54.282.28.282-2.458.282-3.862.282-1.19.846 6.985.281 1.213 1.41 14.379.846 8.48.564 12.802.564 12.687.282 3.747.282 1.916.282-2.349.282-10.566.282-20.356.564-62.695.564-66.49.564-38.028.282-10.74.282-5.674.281-.606.282 3.912.564 19.504.564 29.727 1.41 101.364.282 7.994.282 1.825.282.84.282-.416.564-4.382.282-.338.564-2.745.564 2.369.282-.86.282-.129.282 1.454.281.202.282-1.155.564-.888.282-1.028.282-.116.282.128.564-3.76.282 2.303 1.128 23.087.564 11.806 1.128 13.173.564 14.171.282 2.383.282-2.64.282-4.182.282-5.936.281-11.34.282-18.769 1.41-133.12.564-23.673.564-8.784.282-1.512.282 3.714.282 8.408.282 12.24.564 38.426.846 61.33.282 14.274.564 14.19.564 10.647.281 2.464.282-1.553.282-2.494.282-.739.282-1.99 1.128-25.796.282 2.675.564 9.247.282 1.139.282.552.564 5.454.564 4.597.282 4.241.564 14.11 1.128 14.426.563-4.201.282 5.067.564 15.247.846 11.043.282-1.224.282-8.508.282-18.182.564-66.979.564-71.873.564-42.904.282-12.667.282-5.574.564-1.735.282-.042.282 5.353.846 37.99.281 19.14.846 72.936.564 25.504.282 9.315.282 4.066.282.43.564-1.067.564.513.282-2.434.846-16.943.282-.422.282.025.282-.92.282.898.564 8.382.282 1.184.282.073.563 2.177.282.403.282.665.282 1.939.564 6.752.282 4.36.564 16.16.282 8.065.282 2.959.282.895.282 4.456.282 6.945.282 3.38.282-1.085.282-.342.564 4.826.282-4.418.282-14.188.564-59.697.845-102.605.564-32.75.564-13.642.282-1.238.282 3.033.282 5.105.282 7.532.564 30.839 1.41 89.234.564 18.696.564 13.964.282 2.696.282-.364.282 1.21.564 7.172.281-2.714.282-3.935.564 2.074.282-7.5.282-12.244.282-4.705.564 5.687.282-.158.282 3.703.282 6.92.282 4.142.564 1.48.564 1.322.282 2.505.564 6.965.282 2.87.564 8.85.564 4.082.563 13.253.564 11.98.282 3.54.564 2.773.282-2.367.282-14.908.564-71.332.846-103.944.282-19.88.282-7.23.282-1.1.282-.345.282 2.265.282 7.53 1.41 55.657.563 37.316 1.41 61.79.282.84.282-.643.282.804.282-.211.564-8.366.282-1.215.282 1.346.282-.012.282-1.363.282.06.282 1.23.282.59.282-.095.282-1.323.282-3.335.282-1.202.845 15.53.282 2.114.564 16.657.282 1.748.282-1.461.282.462.282 2.624.282 6.99.564 24.295.282 5.6.564 6.797.282-2.22.282-13.204.564-51.366 1.128-126.93 1.127-26.58.846 12.006 1.128 34.074 1.692 70.605.564 19.66.282 3.333.564 3.697.282-1.957.564-10.817.564-2.321.282-2.7.282-.116.563 9.909.564 3.766.282 3.777.282 2.17.282-.515.282.177.282 1.494.282.27.282-.61.282.818.846 6.936 1.128 14.771.564 7.23.564 3.13.282 2.836.563 12.199.564 10.811.564 8.224.282 1.021.282-6.828.282-17.257.564-66.72.564-74.212.564-38.318.564-18.692.282-4.842.282-1.854.282 4.84 2.537 107.076.846 31.37.282 7.133.282 2.457.564-.01.282.08.282-.54.282-1.312.846-7.592.282 2.975.564 11.714.282.148.282-1.688.564 1.435.282-4.238.282-6.275.282-1.8.563 4.178.282 1.852.282 5.562.564 15.039.282 2.424.282.381.564 2.779.282-1.799.282-4.426.282-1.2.564 7.566.564 3.764.282 2.564.282 1.067.282 3.012.846 24.052.564 9.66.281.105.282-7.316.282-15.95.282-27.875.846-111.673.564-37.06.282-8.822.282-4.48.282.255.282 6.91.564 17.235.282 5.216.282 10.597.564 27.242.564 19.117.846 37.64.282 7.977.563 6.628.282 5.689.282 2.501.564-10.745.282-.503.282 1.584.282-.992.282-.197.846 14.11.282-1.015.282-.145.282 1.415.282-.919.564-9.867.282.457.282 3.45.564 3.36.564 9.768.282 2.467.281 4.402.564 15.953.846 9.048.282.171.282.952.846 18.355.282 3.132.282 5.009.282 2.118.282-6.382.282-14.874.282-23.354 1.128-131.891.564-25.891.282-6.886.282.889 1.127 23.638 1.692 70.112.846 26.02.282 2.275.282.025.282 2.606.282 1.367.564-4.007.282-.605.282-1.808.282-.425.282 1.96.564 1.495.563 7.06.282.264.282 1.352.282 2.603.564-.791.282 4.828.282 6.92.282 3.48.282 1.682.282 4.02.564 11.315.282 1.657.282.642.846 10.824.282.638.282 4.905.564 14.986.846 9.794.281-1.505.282-10.953.282-23.214 1.128-129.733.564-24.488.282-6.97.282-3.404.282-1.281.282.332.282 4.249.846 24.507 1.692 66.574.845 21.904.564 4.66.282.048.564-6.454.564-1.302.282-2.078.282.926.564 9.292.282.378.282.705.564 6.3.282-2.776.282-4.625.282-.779.564 4.735.282 2.004.282 5.526.846 28.928.563 7.972.564 8.158.564 5.754.564 13.787.282 2.705.282-3.696.282-12.845.564-57.625.564-61.404.564-36.086.282-5.41.282-.98.282-1.724.282-2.663.282.95.282 6.926 1.973 71.948.282 1.696.282-3.777.282.583.564 10.009.282.204.282 2.414.282 5.18.282 2.984.282-.403.282-1.088.282-.325.282.101.282-.15.282-.836.282-.121.282 2.848.564 8.374.563 2.626.564 4.157.282 1.23.282 3.4.564 9.608.564 6.355.564 3.87.282 5.74.564 14.313.564 5.472.282 1.598.282-5.143.282-15.978 1.128-90.016.564-27.16.282-7.315.281-3.359.282-.75.282 1.11.564 4.92.282 4.087.564 16.765.564 18.344 1.128 25.6.282 2.349.282.267.282 2.819.282 4.727.282.914.564-6.1.282.266.282-.932.282-2.412.282.026.281 2.312.564 2.04.564 4.965.282.97.282 1.475 1.128 10.393.564 5.584 1.41 16.471.282-.567.282 2.704.564 16.693.282 3.642.282 1.978.282.387.282-6.217.281-15.887.846-66.57.846-35.66.282-7.317.282-2.735.282 1.712.564 14.37.282 1.411.282-.266.282 6.656.282 10.422.282 5.257.282 1.682.282 5.62.282 8.345.282 4.82.282 1.568.564 5.866.563 4.91.282.856.564-6.519.282 1.583.282 5.123.282 1.625.282-2.374.282-.69.282 1.862.282-.29.564-5.542.282-.182.564-.657.282 2.32.564 7.065.282.377.282.807.282 3.024 1.127 16.495.282.848.282 1.65.282 4.984.564 12.412.564 5.438.282 3.865.282-.434.282-10.22 1.41-80.296.564-17.2.282-4.684.282-1.41.846 3.5.282 2.7.564 10.963.563 14.78.282 8.347.282 5.021.282 2.607.846 12.1.282.213.282-1.525.564-3.74.282-.968.564-2.92.564 1.302.282-1.07.282.141.282 1.95.282 1.12.282.513.564 4.582 1.127 9.39.846 8.432 1.128 9.554.564 15.272.282 3.081.282.614.282 1.077.282-1.205.282-7.662 1.692-79.331.282-6.919.845-7.7.282.128.846 23.614.282 3.31.846 17.44.282-.323.282.198.846 6.722.282.92.564 5.699.282-.041.282-2.787.282-1.166.282.948.282-1.493.564-10.522.282 1.041.563 8.199.282.204.282-.18.282.788.282 1.237.846 5.557.282.052.282.915.564 4.355 1.128 11.117.282.625.564 4.523.564 5.828.564 9.11.282 2.064.281.021.282-2.602.282-8.73.564-28.65 1.41-40.215.564-5.165.564-7.138.282 1.564 1.41 29.965.564 12.869.846 13.651.282.206 1.691-15.204.282-2.037.282.352.282.77.282-1.142.282-.386.282 1.87.282.866.282-.423.282.918.282 1.42.282.5.282.924.282.471.282-.98.282 1.046.564 7.443.282.886.563 4.857.282.553.282 2.145.282 4.969.282 2.813.282-.48.282.685.282 2.006.282.064.282-1.098.282 1.025.564 8.664.564 8.626.282 1.896.282-.469.282-4.936.564-24.091.846-46.215.282-7.934.845-13.608.282 3.157.282 5.355.564 2.456 1.41 27.281.564 10.183.564 6.678.282 2.125.282 1.188.282-.189.564-2.463.282-.526.564-1.389.282.431.282-.028.563-1.772.282.144.282.876.282 1.247.282.612.282.171.282 1.465.282 2.799.282 1.537.282.014.282.637.282.997.282-.666.282-.336.282 3.102.282 4.382.282 1.532.282.07.564 2.548.282-.532.282.817 1.127 16.214.282.618.282-.287.282-2.75.282-8.558.846-36.658.564-18.016.564-13.887.282-7.548.282-2.142.282 1.732.282.655.282 2.355.564 20.712.282 9.022.846 14.383.282 3.908.845 4.607.282.636.846-2.776.564-11.44.282-.928.282 2.656.282-.897.282-2.846.282 2.997.282 8.19.282 4.045.564-4.427.282 1.762.282.289.846-12.172.564 2.792.282.187.282 1.496.563 4.794.282 2.099.846 16.346.282 2.161.282.707.282-.713.282 1.266.564 10.063.282 1.445.282.143.282.62.282.255.282-2.342.282-7.186.564-22.874.846-20.818.282-7.749 1.41-19.761.281 2.488.846 12.502.564 12.588.846 8.915.282-.447.564-3.25.282-2.32.282-3.344.282-1.771.282-2.726.564-7.095.282 1.094.282 2.292.563 9.878h0" clip-path="url(#p5b4972632a)" style="fill:none;stroke:#1f77b4;stroke-width:1.5;stroke-linecap:square"/><path id="patch_3" d="M71.308 268.114V2.002" style="fill:none;stroke:gray;stroke-width:.8;stroke-linejoin:miter;stroke-linecap:square"/><path id="patch_4" d="M685.107 268.114V2.002" style="fill:none;stroke:#000;stroke-width:.8;stroke-linejoin:miter;stroke-linecap:square"/><path id="patch_5" d="M71.308 268.114h613.8" style="fill:none;stroke:gray;stroke-width:.8;stroke-linejoin:miter;stroke-linecap:square"/><path id="patch_6" d="M71.308 2.002h613.8" style="fill:none;stroke:#000;stroke-width:.8;stroke-linejoin:miter;stroke-linecap:square"/></g></g><defs><clipPath id="p5b4972632a"><path d="M71.308 2.002h613.8v266.112h-613.8z"/></clipPath></defs></svg>