<svg xmlns="http://www.w3.org/2000/svg" xmlns:xlink="http://www.w3.org/1999/xlink" width="913.477" height="377.053" viewBox="0 0 685.107 282.79"><defs><style>*{stroke-linejoin:round;stroke-linecap:butt}</style></defs><g id="figure_1"><path id="patch_1" d="M0 282.79h685.107V0H0v282.79z" style="fill:none"/><g id="axes_1"><path id="patch_2" d="M71.308 266.112h613.8V0h-613.8v266.112z" style="fill:none"/><g id="matplotlib.axis_1"><g id="xtick_1"><g id="line2d_1"><defs><path id="md0cea0b007" d="M0 0v3.5" style="stroke:gray;stroke-width:.8"/></defs><use xlink:href="#md0cea0b007" x="99.207" y="266.112" style="fill:gray;stroke:gray;stroke-width:.8"/></g><g id="text_1" style="fill:gray" transform="matrix(.1 0 0 -.1 96.026 280.71)"><defs><path id="DejaVuSans-30" d="M2034 4250q-487 0-733-480-245-479-245-1442 0-959 245-1439 246-480 733-480 491 0 736 480 246 480 246 1439 0 963-246 1442-245 480-736 480zm0 500q785 0 1199-621 414-620 414-1801 0-1178-414-1799Q2819-91 2034-91q-784 0-1198 620-414 621-414 1799 0 1181 414 1801 414 621 1198 621z" transform="scale(.01563)"/></defs><use xlink:href="#DejaVuSans-30"/></g></g><g id="xtick_2"><use xlink:href="#md0cea0b007" id="line2d_2" x="168.958" y="266.112" style="fill:gray;stroke:gray;stroke-width:.8"/><g id="text_2" style="fill:gray" transform="matrix(.1 0 0 -.1 159.414 280.71)"><defs><path id="DejaVuSans-35" d="M691 4666h2478v-532H1269V2991q137 47 274 70 138 23 276 23 781 0 1237-428 457-428 457-1159 0-753-469-1171Q2575-91 1722-91q-294 0-599 50Q819 9 494 109v635q281-153 581-228t634-75q541 0 856 284 316 284 316 772 0 487-316 771-315 285-856 285-253 0-505-56-251-56-513-175v2344z" transform="scale(.01563)"/></defs><use xlink:href="#DejaVuSans-35"/><use xlink:href="#DejaVuSans-30" x="63.623"/><use xlink:href="#DejaVuSans-30" x="127.246"/></g></g><g id="xtick_3"><use xlink:href="#md0cea0b007" id="line2d_3" x="238.708" y="266.112" style="fill:gray;stroke:gray;stroke-width:.8"/><g id="text_3" style="fill:gray" transform="matrix(.1 0 0 -.1 225.982 280.71)"><defs><path id="DejaVuSans-31" d="M794 531h1031v3560L703 3866v575l1116 225h631V531h1031V0H794v531z" transform="scale(.01563)"/></defs><use xlink:href="#DejaVuSans-31"/><use xlink:href="#DejaVuSans-30" x="63.623"/><use xlink:href="#DejaVuSans-30" x="127.246"/><use xlink:href="#DejaVuSans-30" x="190.869"/></g></g><g id="xtick_4"><use xlink:href="#md0cea0b007" id="line2d_4" x="308.457" y="266.112" style="fill:gray;stroke:gray;stroke-width:.8"/><g id="text_4" style="fill:gray" transform="matrix(.1 0 0 -.1 295.733 280.71)"><use xlink:href="#DejaVuSans-31"/><use xlink:href="#DejaVuSans-35" x="63.623"/><use xlink:href="#DejaVuSans-30" x="127.246"/><use xlink:href="#DejaVuSans-30" x="190.869"/></g></g><g id="xtick_5"><use xlink:href="#md0cea0b007" id="line2d_5" x="378.207" y="266.112" style="fill:gray;stroke:gray;stroke-width:.8"/><g id="text_5" style="fill:gray" transform="matrix(.1 0 0 -.1 365.483 280.71)"><defs><path id="DejaVuSans-32" d="M1228 531h2203V0H469v531q359 372 979 998 621 627 780 809 303 340 423 576 121 236 121 464 0 372-261 606-261 235-680 235-297 0-627-103-329-103-704-313v638q381 153 712 231 332 78 607 78 725 0 1156-363 431-362 431-968 0-288-108-546-107-257-392-607-78-91-497-524-418-433-1181-1211z" transform="scale(.01563)"/></defs><use xlink:href="#DejaVuSans-32"/><use xlink:href="#DejaVuSans-30" x="63.623"/><use xlink:href="#DejaVuSans-30" x="127.246"/><use xlink:href="#DejaVuSans-30" x="190.869"/></g></g><g id="xtick_6"><use xlink:href="#md0cea0b007" id="line2d_6" x="447.957" y="266.112" style="fill:gray;stroke:gray;stroke-width:.8"/><g id="text_6" style="fill:gray" transform="matrix(.1 0 0 -.1 435.233 280.71)"><use xlink:href="#DejaVuSans-32"/><use xlink:href="#DejaVuSans-35" x="63.623"/><use xlink:href="#DejaVuSans-30" x="127.246"/><use xlink:href="#DejaVuSans-30" x="190.869"/></g></g><g id="xtick_7"><use xlink:href="#md0cea0b007" id="line2d_7" x="517.707" y="266.112" style="fill:gray;stroke:gray;stroke-width:.8"/><g id="text_7" style="fill:gray" transform="matrix(.1 0 0 -.1 504.983 280.71)"><defs><path id="DejaVuSans-33" d="M2597 2516q453-97 707-404 255-306 255-756 0-690-475-1069Q2609-91 1734-91q-293 0-604 58T488 141v609q262-153 574-231 313-78 654-78 593 0 904 234t311 681q0 413-289 645-289 233-804 233h-544v519h569q465 0 712 186t247 536q0 359-255 551-254 193-729 193-260 0-557-57-297-56-653-174v562q360 100 674 150t592 50q719 0 1137-327 419-326 419-882 0-388-222-655t-631-370z" transform="scale(.01563)"/></defs><use xlink:href="#DejaVuSans-33"/><use xlink:href="#DejaVuSans-30" x="63.623"/><use xlink:href="#DejaVuSans-30" x="127.246"/><use xlink:href="#DejaVuSans-30" x="190.869"/></g></g><g id="xtick_8"><use xlink:href="#md0cea0b007" id="line2d_8" x="587.457" y="266.112" style="fill:gray;stroke:gray;stroke-width:.8"/><g id="text_8" style="fill:gray" transform="matrix(.1 0 0 -.1 574.732 280.71)"><use xlink:href="#DejaVuSans-33"/><use xlink:href="#DejaVuSans-35" x="63.623"/><use xlink:href="#DejaVuSans-30" x="127.246"/><use xlink:href="#DejaVuSans-30" x="190.869"/></g></g><g id="xtick_9"><use xlink:href="#md0cea0b007" id="line2d_9" x="657.207" y="266.112" style="fill:gray;stroke:gray;stroke-width:.8"/><g id="text_9" style="fill:gray" transform="matrix(.1 0 0 -.1 644.482 280.71)"><defs><path id="DejaVuSans-34" d="M2419 4116 825 1625h1594v2491zm-166 550h794V1625h666v-525h-666V0h-628v1100H313v609l1940 2957z" transform="scale(.01563)"/></defs><use xlink:href="#DejaVuSans-34"/><use xlink:href="#DejaVuSans-30" x="63.623"/><use xlink:href="#DejaVuSans-30" x="127.246"/><use xlink:href="#DejaVuSans-30" x="190.869"/></g></g></g><g id="matplotlib.axis_2"><g id="ytick_1"><g id="line2d_10"><defs><path id="m84034ce82e" d="M0 0h-3.5" style="stroke:gray;stroke-width:.8"/></defs><use xlink:href="#m84034ce82e" x="71.308" y="263.317" style="fill:gray;stroke:gray;stroke-width:.8"/></g><g id="text_10" style="fill:gray" transform="matrix(.16 0 0 -.16 0 269.396)"><defs><path id="DejaVuSans-2212" d="M678 2272h4006v-531H678v531z" transform="scale(.01563)"/></defs><use xlink:href="#DejaVuSans-2212"/><use xlink:href="#DejaVuSans-33" x="83.789"/><use xlink:href="#DejaVuSans-30" x="147.412"/><use xlink:href="#DejaVuSans-30" x="211.035"/><use xlink:href="#DejaVuSans-30" x="274.658"/><use xlink:href="#DejaVuSans-30" x="338.281"/></g></g><g id="ytick_2"><use xlink:href="#m84034ce82e" id="line2d_11" x="71.308" y="227.436" style="fill:gray;stroke:gray;stroke-width:.8"/><g id="text_11" style="fill:gray" transform="matrix(.16 0 0 -.16 0 233.514)"><use xlink:href="#DejaVuSans-2212"/><use xlink:href="#DejaVuSans-32" x="83.789"/><use xlink:href="#DejaVuSans-30" x="147.412"/><use xlink:href="#DejaVuSans-30" x="211.035"/><use xlink:href="#DejaVuSans-30" x="274.658"/><use xlink:href="#DejaVuSans-30" x="338.281"/></g></g><g id="ytick_3"><use xlink:href="#m84034ce82e" id="line2d_12" x="71.308" y="191.554" style="fill:gray;stroke:gray;stroke-width:.8"/><g id="text_12" style="fill:gray" transform="matrix(.16 0 0 -.16 0 197.633)"><use xlink:href="#DejaVuSans-2212"/><use xlink:href="#DejaVuSans-31" x="83.789"/><use xlink:href="#DejaVuSans-30" x="147.412"/><use xlink:href="#DejaVuSans-30" x="211.035"/><use xlink:href="#DejaVuSans-30" x="274.658"/><use xlink:href="#DejaVuSans-30" x="338.281"/></g></g><g id="ytick_4"><use xlink:href="#m84034ce82e" id="line2d_13" x="71.308" y="155.673" style="fill:gray;stroke:gray;stroke-width:.8"/><use xlink:href="#DejaVuSans-30" id="text_13" style="fill:gray" transform="matrix(.16 0 0 -.16 54.127 161.752)"/></g><g id="ytick_5"><use xlink:href="#m84034ce82e" id="line2d_14" x="71.308" y="119.792" style="fill:gray;stroke:gray;stroke-width:.8"/><g id="text_14" style="fill:gray" transform="matrix(.16 0 0 -.16 13.408 125.87)"><use xlink:href="#DejaVuSans-31"/><use xlink:href="#DejaVuSans-30" x="63.623"/><use xlink:href="#DejaVuSans-30" x="127.246"/><use xlink:href="#DejaVuSans-30" x="190.869"/><use xlink:href="#DejaVuSans-30" x="254.492"/></g></g><g id="ytick_6"><use xlink:href="#m84034ce82e" id="line2d_15" x="71.308" y="83.91" style="fill:gray;stroke:gray;stroke-width:.8"/><g id="text_15" style="fill:gray" transform="matrix(.16 0 0 -.16 13.408 89.989)"><use xlink:href="#DejaVuSans-32"/><use xlink:href="#DejaVuSans-30" x="63.623"/><use xlink:href="#DejaVuSans-30" x="127.246"/><use xlink:href="#DejaVuSans-30" x="190.869"/><use xlink:href="#DejaVuSans-30" x="254.492"/></g></g><g id="ytick_7"><use xlink:href="#m84034ce82e" id="line2d_16" x="71.308" y="48.029" style="fill:gray;stroke:gray;stroke-width:.8"/><g id="text_16" style="fill:gray" transform="matrix(.16 0 0 -.16 13.408 54.108)"><use xlink:href="#DejaVuSans-33"/><use xlink:href="#DejaVuSans-30" x="63.623"/><use xlink:href="#DejaVuSans-30" x="127.246"/><use xlink:href="#DejaVuSans-30" x="190.869"/><use xlink:href="#DejaVuSans-30" x="254.492"/></g></g><g id="ytick_8"><use xlink:href="#m84034ce82e" id="line2d_17" x="71.308" y="12.148" style="fill:gray;stroke:gray;stroke-width:.8"/><g id="text_17" style="fill:gray" transform="matrix(.16 0 0 -.16 13.408 18.226)"><use xlink:href="#DejaVuSans-34"/><use xlink:href="#DejaVuSans-30" x="63.623"/><use xlink:href="#DejaVuSans-30" x="127.246"/><use xlink:href="#DejaVuSans-30" x="190.869"/><use xlink:href="#DejaVuSans-30" x="254.492"/></g></g></g><path id="line2d_18" d="m99.207 155.679 2.82-.028.846.051.282-.06.282.065.282-.071.282.076.282-.081.282.087.282-.093.282.099.282-.105.282.11.282-.116.282.124.281-.132.282.14.282-.148.282.156.282-.165.282.175.282-.186.282.198.282-.211.282.225.282-.24.282.258.282-.278.282.3.282-.326.282.356.282-.39.282.43.282-.48.282.542.282-.62.282.72.282-.856.282 1.054.282-1.365.281 1.926.282-3.247.282 10.667.282 18.926.282-5.433.282.18.282-2.448.282.199.282-1.826.282.77.282.3.282 1.516.282-.494.282-.111.282-.564.282 2.106.846 7.736.282 2.87.846 13.71.564 5.601.282 4.068 1.127 8.55.282.107.282-1.83.282-5.307.282-11.16.564-44.427 1.128-97.198.282-16.807.282-8.55.282-2.984.282-.168.282.065.282.524.282 1.994.282 6.75.282 12.516.564 38.952.845 66.371.282 12.435.282 7.43.282 4.366.282 2.448.282.437.282.205.282.366.282-.087.282-2.001.564-5.68.282-1.22.282-.242.282.036.846-3.05.564-.258.282.296.282.861 1.41 6.884.281 2.456 1.41 21.086.564 5.385 1.128 5.427.282.482.282-.435.282-3.349.282-8.679.564-37.554 1.41-121.35.281-12.695.282-5.326.282-.511.282 1.353.564 5.336.282 5.813.282 10.888.564 40.989.846 68.796.282 13.272.282 7.035.282 2.519.846 4.59.282-.47 1.128-7.288 1.127-8.2 1.128-3.411.282.46.564 1.421.282.823.846 7.836.282 1.043.282 2.814 1.128 17.965.564 6.33.845 6.875.282.027.282-1.066.282.297.282-.358.282-6.693.282-16.426 1.974-153.681.282-6.004.282-.91.282 1.65.282 5.028.282 9.423.564 30.96 1.128 79.055.282 6.979.281 3.025.282 1.439.282.755.282.13 1.128-3.575.564-3.822.282 1.117.564 6.3.846 3.338.564 3.413 1.128 11.447.846 10.702.845 15.224.564 3.72.564 4.894.564 5.853.564 7.25.282 1.55.282-1.671.282-6.231.282-12.584.564-46.574 1.128-105.664.282-16.79.282-8.82.282-3.348.564-3.649.281-1.955.282-.136.282 4.239.282 9.799.564 31.854 1.128 72.9.282 4.96.282 1.444.282 2.914.564 10.951.282 2.887.282.834 1.128 1.835.564 2.595.564.9.563 2.084.564-.979.282 1.654.564 5.49.282 1.72.282 2.696 1.128 16.325 1.128 15.511 1.41 28.596.282 5.344.282.148.282-7.665.281-15.645.564-50.403 1.128-122.107.282-17.223.564-16.158.564-11.73.282-.989.282 2.585.282 5.365.282 8.242.282 12.699.564 43.324.846 68.694.282 13.608.282 7.797.282 2.833.282.45.281.108.282-.535.282-1.523.564-4.892 1.41-18.475.282-.754.282 2.477 1.41 22.345.282 2.41.282 4.099 1.128 22.517.564 11.26.563 14.716.564 8.861.846 7.484.282 2.18.282.57.282-2.307.282-5.583.282-9.85.282-16.944 1.974-167.627 1.128-28.316.282-.66.281 4.05.282 8.581.564 30.545 1.41 98.373.564 10.278.282 2.872.282-.092.282-1.536.282.613.564 6.56.282 1.077.282.222.846 3.383.282 1.436.564 6.128.282 1.327.281.637.564 3.943.282-.62.282-2.224.282.098.564 7.168.564 3.611.564 8.942.564 8.419.564 6.14.564 8.656.282 2.34.282-1.501.282-6.858.282-13.63.564-46.352 1.127-118.312.564-24.089.564-12.278.282-2.87.282-.939.282 1.245.282 4.35.564 18.36.564 34.029.846 70.719.564 27.65.282 8.504.282 4.412.282.77.282.255.564 3.348.281-.1.282-.522.282.929.282 1.511.282-.248 1.128-8.244.564-2.148.282.308.564 2.734.282 1.822.846 9.03.282 3.682.564 12.895.846 21.122.563 9.112.846 11.548.282-1.442.282-6.263.282-11.041.282-18.223.564-61.39.564-67.037.564-40.127.564-17.753.564-9.611.282-2.3.282-.23.282 2.948.282 7.157.564 27.17.563 42.902.846 69.67.564 17.436.282 5.229.282 3.112.282-.01.564-4.517.564-6.966.846-14.804.282-2.056.846-2.01.282.515.564 3.226.282 2.506.564 10.174 1.127 23.92.282 4.7.846 20.93.282 2.464.282.848.282 2.075.564 5.19.564 3.101.282 1.943.282-.214.282-4.718.282-11.209.282-19.179.564-60.01.564-64.339.563-38.675.564-16.436.564-6.8.282-1.402.282.999.282 5.123.564 19.792.564 33.277.846 65.89.564 25.217.564 14.21.564 7.179.282.863.282.007.282.478.563 2.18.282.212.846-.88.282-1.82.564-6.217.282-1.42.282.012.282 1.039.282 2.61 1.128 14.804.846 12.377.846 14.537.564 6.793.564 7.777.281.925.282-.337.282-2.882.282-9.88.564-45.972 1.41-140.354.564-14.746.564-9.408.282-.43.282 2.155.564 8.588.282 7.613.564 27.855 1.41 83.024.563 17.54.282 4.829.282 2.733.846 4.53.564.97.282 2.34.564 6.195.282-.469.282-1.944.282-.94.282 1.124.282 2.06.282.595.564-2.425.282 2.248.564 8.229.563 6.897 1.41 28.613.564 11.04.282 2.906.282-.18.282-5.683.282-11.94.564-41.105 1.128-125.482.282-16.54.564-16.14.564-10.502.282-1.832.282 1.948.281 5.138.282 8.074.564 25.77.846 58.534.564 36.536.564 22.394.282 4.072.846 6.651.282-.824.564-4.884.564-4.044.282-2.297.282-.79.846 1.376.281 1.013.846 5.054.846 8.413.564 8.467 1.41 28.697 1.128 8.299 1.128 12.393.282-1.27.282-5.435.282-12.626.563-49.744 1.128-130.678.282-12.976.564-9.84.564-7.677.282-2.753.282-.859.282 2.418.282 5.29.282 7.407.282 10.809.564 34.607 1.128 73.552.564 22.4.563 12.747.282 4.023.282 1.866.564 1.566.282.356.564-.41.282.573.282.917.282.267.282-.715.564-2.169.282-.354.282.193.564.68.282.154.282.42.282 1.242.564 5.308.845 9.535 1.41 24.114.564 9.778.564 6.607.282-.39.282-8.442.564-39.856.564-65.542.564-67.551.282-18.003.564-16.204.282-5.512.282-3.263.282-1.077.282-.217.282.789.281 3.878.564 18.718.564 28.266 1.128 75.17.564 26.098.282 7.481.282 3.098.564 2.394.282.002.282-.944.282-1.581.282-3.008.564-8.774.282-1.334.282.47.282-.531.282-2.111.281-1.224.282 2.081.564 9.09.846 9.284 2.256 34.044 2.256 20.059.282-.43.282-4.321.282-8.335.281-15.259.564-56.811.846-94.054.282-16.174.564-13.053.564-9.122.282-.392.282 2.346.564 8.463.282 7.42.564 22.636.846 41.485.846 45.223 1.127 34.59.282 4.27.282 1.64.282.315.282-.478.846-3.134.564-4.131.282-1.887 1.128-3.728.846-1.185.282.427.564 2.003.282 1.437.282 2.775 2.82 40.299.845 12.826.282 2.045.282-1.377.282-5.34.282-10.519.282-18.336.564-60.567.564-66.218.282-23.923.282-14.214.564-10.96.563-6.886.282-.629.282 2.222.282 5.53.564 19.538.564 26.542 1.692 88.552.564 11.84.282 4.574.282 2.52.282-.06.282-1.042.282-.205.282 1.006.564 3.818.563 4.603.282 1.126.282-.816.282-1.663.282-.21 1.128 7.866 1.692 24.9 1.128 9.696.564 5.886.282 2.083.282.515.282-2.999.281-8.863.282-16.084.564-54.316.846-92.158.282-12.665.846-17.571.282-3.848.282-1.626.282-.046.282 1.898.282 4.888.564 16.913.564 25.403 1.128 60.492.564 22.631.845 22.188.282 4.339.282.98.282-.411.282.091.282.452.282-.158 1.128-3.766.846-1.42.282-.008.282 1.08.564 3.15.564-.087.282 2.03 1.41 23.625.563 12.07 1.41 20.177.282.096.282-2.46.282-9.299.282-19.268.564-61.68.564-69.566.282-21.929.282-9.895.564-10.952.282-5.994.282-2.957.282-.05.563 2.21.282 2.386.282 4.969.564 18.007.564 20.885 1.41 61.516.564 20.516.564 9.566.282 2.898.282 1.17.564 1.084.282-.574.282-1.426.282.1.845 6.37.564 1.338.564 2.379.846 5.239.564 6.462.564 7.27.564 14.49.564 13.392.564 9.864.282 2.06.564-.087.282 1.051.564 3.639.282-1.843.281-7.708.282-14.043.282-21.274.564-69.881.564-62.21.282-12.267.846-19.473.564-7.554.282-2.274.282.103.282 3.186.564 11.705.564 19.155 1.41 61.667 1.41 44.668.563 11.097.564 5.067.564 3.756.282-.322.564-2.403.564-1.043.282.015.564 1.355.564-.304.282.234.282.57.282 1.23 1.127 9.957 1.974 28.676.846 11.248.282-1.61.282-4.411.282-6.713.282-10.976.282-17.47.564-57.214.564-62.282.282-15.433.282-5.91 1.127-13.66.282-.62.282.08.282 1.111.282 3.398.564 15.554.846 28.974.846 33.3.846 26.982.564 12.178.564 8.072.282 2.761.282 1.461.282-.083.282-.434.282.825.563 3.24.282.893.282 1.601.564 4.156.564 2.502.564 5.313.564 7.536 1.128 17.612.282 3.742.846 7.052.564 8.526.564 5.244.282-.688.281-6.464.282-13.93.282-23.073.846-101.575.282-17.699.846-26.321.282-4.828.846-6.924.282.22.282 2.862.846 17.41.282 5.815.564 21.525.564 21.282 1.127 33.942.846 22.116.564 7.179 1.41 12.402.282-.09.282-.721.282.694.282 1.256.282.316.282-.06.282.827.846 4.187.846 8.002.563 5.884.846 12.404 1.692 29.663.282 2.454.282-2.94.282-11.494.282-21.44L476.47 88.94l.282-12.316 1.128-27.998.563-3.416.282-.553.282 1.375.564 7.638.564 11.998.564 19.435.564 22.413 1.128 31.148 1.128 22.07.282 3.336.282 1.104.564-.573.282.843.282 1.82.563 6.2 1.128 14.49.282 2.572.564 2.86.564 8.168.564 7.066 1.41 15.667.846 6.935 1.41 17.15.281-1.64.282-7.934.282-13.523.282-21.384.846-99.52.282-15.375 1.128-29.362.846-6.788.282.057.282 2.297.282 3.617.282 5.063.846 23.44.846 26.378.563 15.942.846 16.947.564 6.7.564 6.802.564 8.233.564 4.625.846 4.004 1.41 3.462.846 3.51.282 1.762.563 6.011 1.692 21.646 1.41 23.865.564 7.56.282 2.426.282.376.282-4.333.282-11.638.282-21.041 1.128-116.081.845-22.862.564-10.496.564-7.94.282-.14.564 7.83.564 12.041 1.692 48.391.846 18.665.564 6.757.564 3.74.282.962.282 1.651 2.537 23.345.564 3.074 1.692 16.181.564 6.196.846 6.427.564 7.671.845 12.197 1.128 14.487.282 1.62.282-2.089.282-9.282.282-18.458 1.128-112.003.564-20.413.564-14.04.282-4.378.564-4.189.282-.495.282 1.343.282 3.1.282 4.83.563 15.722 1.41 40.68 1.128 23.71 1.41 15.807.564 2.469.282.014.282-.42.282.334.282.61.564.056.282 1.446.845 7.356.564 2.874.282 2.653.564 6.937.282-.102.282-.477.282 2.617.564 8.749.282 3.614 1.128 20.783.846 9.98.282 1.835.282-.263.282-4.638.282-9.8.282-14.83.563-52.341.564-53.352.282-10.653.846-14.604.564-3.179.282-1.013.282 1.215.564 7.877.564 12.768 1.692 40.436.282 2.39.564 7.532.563 3.231 1.128 12.456.564 2.626.282 1.224.564 5.282.564 4.06 1.41 6.505.846 7.198.282.223.282.579.282 2.89 1.41 24.168.563 14.869.564 10.168.282 3.55.282 1.18.282-4.504.282-13.83 1.128-91.028.564-20.737.846-23.023.282-3.754.282-1.581.282-.414.282.65.282 3.108 1.127 21.225 1.41 12.897.564 3.363.282 2.84.564 9.326.564 8.6 1.128 7.88.282.71.282-.398.564-1.736.282.448.563 2.714.282 1.053.282 2.04.564 5.238.282 1.719 1.41 14.874.846 16.13.564 8.266 1.41 28.607.282 2.168.282-2.68.282-10.188.564-39.072.563-40.678.564-22.46.564-10.828.564-8.106.282-1.803.282-.864.282-2.326.282-3.779.282-2.187.282 1.043.846 5.943 1.128 25.686.564 10.18.845 9.567.564 7.127 1.41 12.487.282 2.112.282 1.094.282.132.282-.213.282.077.564.633.564.81.564 1.136.282 1.146.564 4.913.564 4.92.282 2.331.563 9.045.564 8.67 1.41 18.785.564 6.704.282-.99.282-5.298.282-10.365 1.41-77.03.564-15.085 1.128-18.76.282-2.733.281-1.45.282-.365.282 1.198.564 7.969.564 10.273.846 18.994.846 10.578.282 1.264.282-.527.282.356.564 4.139.282 2.497.846 9.644.282 1.357 1.127 9.046.282 1.987.564 4.868.282.341.282.623.564 3.796.282.207.282-.38.282.538.564 3.116.564 5.79.282 2.738.282.636.282.125.282 1.785.564 5.782.282.104.282-2.891.282-6.407.563-23.342.564-24.143.846-25.395.564-11.561.564-5.832.282-1.686.282-.704.282 1.992 2.256 37.194.564 8.053.564 7.556.281 2.156.282 1.052.282-.195.282-.006.564 2.327.282-.358.282-1.046.282-.048.282.891.564.069.282 1.554.564 4.723.282 1.512.564 6.18.282 1.046.282-.381.282 1.26.282 3.027.282.904.564-3.665.281 1.405 1.128 13.06.564 8.717.564 4.676.564 3.46.282-1.813.282-8.252.846-38.419 1.41-46.8.564-7.18.564-4.391.282-.901.281.392.282.814.282 1.833.282 3.724 1.128 24.453.564 14.368.282 3.534.282 1.932.846 8.617.564-1.761.282.116.282.585.564-.208.282-.662.564-2.643.282 1.39.563 5.495.282-.18.282-.365.282.887.564 5.916.564 6.318.282 1.747.282.82.564 3.97.282 2.436.846 3.678.282 1.339.282.737.282 1.053.282.025.282.946.282.208.282-.165.563-12.501h0" clip-path="url(#p9193c4e83e)" style="fill:none;stroke:#1f77b4;stroke-width:1.5;stroke-linecap:square"/><path id="patch_3" d="M71.308 266.112V0" style="fill:none;stroke:gray;stroke-width:.8;stroke-linejoin:miter;stroke-linecap:square"/><path id="patch_4" d="M685.107 266.112V0" style="fill:none;stroke:#000;stroke-width:.8;stroke-linejoin:miter;stroke-linecap:square"/><path id="patch_5" d="M71.308 266.112h613.8" style="fill:none;stroke:gray;stroke-width:.8;stroke-linejoin:miter;stroke-linecap:square"/><path id="patch_6" d="M71.308 0h613.8" style="fill:none;stroke:#000;stroke-width:.8;stroke-linejoin:miter;stroke-linecap:square"/></g></g><defs><clipPath id="p9193c4e83e"><path d="M71.308 0h613.8v266.112h-613.8z"/></clipPath></defs></svg>