<svg xmlns="http://www.w3.org/2000/svg" xmlns:xlink="http://www.w3.org/1999/xlink" width="913.477" height="377.053" viewBox="0 0 685.107 282.79"><defs><style>*{stroke-linejoin:round;stroke-linecap:butt}</style></defs><g id="figure_1"><path id="patch_1" d="M0 282.79h685.107V0H0v282.79z" style="fill:none"/><g id="axes_1"><path id="patch_2" d="M71.308 266.112h613.8V0h-613.8v266.112z" style="fill:none"/><g id="matplotlib.axis_1"><g id="xtick_1"><g id="line2d_1"><defs><path id="m81118658cb" d="M0 0v3.5" style="stroke:gray;stroke-width:.8"/></defs><use xlink:href="#m81118658cb" x="99.207" y="266.112" style="fill:gray;stroke:gray;stroke-width:.8"/></g><g id="text_1" style="fill:gray" transform="matrix(.1 0 0 -.1 96.026 280.71)"><defs><path id="DejaVuSans-30" d="M2034 4250q-487 0-733-480-245-479-245-1442 0-959 245-1439 246-480 733-480 491 0 736 480 246 480 246 1439 0 963-246 1442-245 480-736 480zm0 500q785 0 1199-621 414-620 414-1801 0-1178-414-1799Q2819-91 2034-91q-784 0-1198 620-414 621-414 1799 0 1181 414 1801 414 621 1198 621z" transform="scale(.01563)"/></defs><use xlink:href="#DejaVuSans-30"/></g></g><g id="xtick_2"><use xlink:href="#m81118658cb" id="line2d_2" x="168.958" y="266.112" style="fill:gray;stroke:gray;stroke-width:.8"/><g id="text_2" style="fill:gray" transform="matrix(.1 0 0 -.1 159.414 280.71)"><defs><path id="DejaVuSans-35" d="M691 4666h2478v-532H1269V2991q137 47 274 70 138 23 276 23 781 0 1237-428 457-428 457-1159 0-753-469-1171Q2575-91 1722-91q-294 0-599 50Q819 9 494 109v635q281-153 581-228t634-75q541 0 856 284 316 284 316 772 0 487-316 771-315 285-856 285-253 0-505-56-251-56-513-175v2344z" transform="scale(.01563)"/></defs><use xlink:href="#DejaVuSans-35"/><use xlink:href="#DejaVuSans-30" x="63.623"/><use xlink:href="#DejaVuSans-30" x="127.246"/></g></g><g id="xtick_3"><use xlink:href="#m81118658cb" id="line2d_3" x="238.708" y="266.112" style="fill:gray;stroke:gray;stroke-width:.8"/><g id="text_3" style="fill:gray" transform="matrix(.1 0 0 -.1 225.982 280.71)"><defs><path id="DejaVuSans-31" d="M794 531h1031v3560L703 3866v575l1116 225h631V531h1031V0H794v531z" transform="scale(.01563)"/></defs><use xlink:href="#DejaVuSans-31"/><use xlink:href="#DejaVuSans-30" x="63.623"/><use xlink:href="#DejaVuSans-30" x="127.246"/><use xlink:href="#DejaVuSans-30" x="190.869"/></g></g><g id="xtick_4"><use xlink:href="#m81118658cb" id="line2d_4" x="308.457" y="266.112" style="fill:gray;stroke:gray;stroke-width:.8"/><g id="text_4" style="fill:gray" transform="matrix(.1 0 0 -.1 295.733 280.71)"><use xlink:href="#DejaVuSans-31"/><use xlink:href="#DejaVuSans-35" x="63.623"/><use xlink:href="#DejaVuSans-30" x="127.246"/><use xlink:href="#DejaVuSans-30" x="190.869"/></g></g><g id="xtick_5"><use xlink:href="#m81118658cb" id="line2d_5" x="378.207" y="266.112" style="fill:gray;stroke:gray;stroke-width:.8"/><g id="text_5" style="fill:gray" transform="matrix(.1 0 0 -.1 365.483 280.71)"><defs><path id="DejaVuSans-32" d="M1228 531h2203V0H469v531q359 372 979 998 621 627 780 809 303 340 423 576 121 236 121 464 0 372-261 606-261 235-680 235-297 0-627-103-329-103-704-313v638q381 153 712 231 332 78 607 78 725 0 1156-363 431-362 431-968 0-288-108-546-107-257-392-607-78-91-497-524-418-433-1181-1211z" transform="scale(.01563)"/></defs><use xlink:href="#DejaVuSans-32"/><use xlink:href="#DejaVuSans-30" x="63.623"/><use xlink:href="#DejaVuSans-30" x="127.246"/><use xlink:href="#DejaVuSans-30" x="190.869"/></g></g><g id="xtick_6"><use xlink:href="#m81118658cb" id="line2d_6" x="447.957" y="266.112" style="fill:gray;stroke:gray;stroke-width:.8"/><g id="text_6" style="fill:gray" transform="matrix(.1 0 0 -.1 435.233 280.71)"><use xlink:href="#DejaVuSans-32"/><use xlink:href="#DejaVuSans-35" x="63.623"/><use xlink:href="#DejaVuSans-30" x="127.246"/><use xlink:href="#DejaVuSans-30" x="190.869"/></g></g><g id="xtick_7"><use xlink:href="#m81118658cb" id="line2d_7" x="517.707" y="266.112" style="fill:gray;stroke:gray;stroke-width:.8"/><g id="text_7" style="fill:gray" transform="matrix(.1 0 0 -.1 504.983 280.71)"><defs><path id="DejaVuSans-33" d="M2597 2516q453-97 707-404 255-306 255-756 0-690-475-1069Q2609-91 1734-91q-293 0-604 58T488 141v609q262-153 574-231 313-78 654-78 593 0 904 234t311 681q0 413-289 645-289 233-804 233h-544v519h569q465 0 712 186t247 536q0 359-255 551-254 193-729 193-260 0-557-57-297-56-653-174v562q360 100 674 150t592 50q719 0 1137-327 419-326 419-882 0-388-222-655t-631-370z" transform="scale(.01563)"/></defs><use xlink:href="#DejaVuSans-33"/><use xlink:href="#DejaVuSans-30" x="63.623"/><use xlink:href="#DejaVuSans-30" x="127.246"/><use xlink:href="#DejaVuSans-30" x="190.869"/></g></g><g id="xtick_8"><use xlink:href="#m81118658cb" id="line2d_8" x="587.457" y="266.112" style="fill:gray;stroke:gray;stroke-width:.8"/><g id="text_8" style="fill:gray" transform="matrix(.1 0 0 -.1 574.732 280.71)"><use xlink:href="#DejaVuSans-33"/><use xlink:href="#DejaVuSans-35" x="63.623"/><use xlink:href="#DejaVuSans-30" x="127.246"/><use xlink:href="#DejaVuSans-30" x="190.869"/></g></g><g id="xtick_9"><use xlink:href="#m81118658cb" id="line2d_9" x="657.207" y="266.112" style="fill:gray;stroke:gray;stroke-width:.8"/><g id="text_9" style="fill:gray" transform="matrix(.1 0 0 -.1 644.482 280.71)"><defs><path id="DejaVuSans-34" d="M2419 4116 825 1625h1594v2491zm-166 550h794V1625h666v-525h-666V0h-628v1100H313v609l1940 2957z" transform="scale(.01563)"/></defs><use xlink:href="#DejaVuSans-34"/><use xlink:href="#DejaVuSans-30" x="63.623"/><use xlink:href="#DejaVuSans-30" x="127.246"/><use xlink:href="#DejaVuSans-30" x="190.869"/></g></g></g><g id="matplotlib.axis_2"><g id="ytick_1"><g id="line2d_10"><defs><path id="m71660bcc92" d="M0 0h-3.5" style="stroke:gray;stroke-width:.8"/></defs><use xlink:href="#m71660bcc92" x="71.308" y="261.973" style="fill:gray;stroke:gray;stroke-width:.8"/></g><g id="text_10" style="fill:gray" transform="matrix(.16 0 0 -.16 0 268.051)"><defs><path id="DejaVuSans-2212" d="M678 2272h4006v-531H678v531z" transform="scale(.01563)"/></defs><use xlink:href="#DejaVuSans-2212"/><use xlink:href="#DejaVuSans-32" x="83.789"/><use xlink:href="#DejaVuSans-30" x="147.412"/><use xlink:href="#DejaVuSans-30" x="211.035"/><use xlink:href="#DejaVuSans-30" x="274.658"/><use xlink:href="#DejaVuSans-30" x="338.281"/></g></g><g id="ytick_2"><use xlink:href="#m71660bcc92" id="line2d_11" x="71.308" y="206.555" style="fill:gray;stroke:gray;stroke-width:.8"/><g id="text_11" style="fill:gray" transform="matrix(.16 0 0 -.16 0 212.634)"><use xlink:href="#DejaVuSans-2212"/><use xlink:href="#DejaVuSans-31" x="83.789"/><use xlink:href="#DejaVuSans-30" x="147.412"/><use xlink:href="#DejaVuSans-30" x="211.035"/><use xlink:href="#DejaVuSans-30" x="274.658"/><use xlink:href="#DejaVuSans-30" x="338.281"/></g></g><g id="ytick_3"><use xlink:href="#m71660bcc92" id="line2d_12" x="71.308" y="151.138" style="fill:gray;stroke:gray;stroke-width:.8"/><use xlink:href="#DejaVuSans-30" id="text_12" style="fill:gray" transform="matrix(.16 0 0 -.16 54.127 157.217)"/></g><g id="ytick_4"><use xlink:href="#m71660bcc92" id="line2d_13" x="71.308" y="95.721" style="fill:gray;stroke:gray;stroke-width:.8"/><g id="text_13" style="fill:gray" transform="matrix(.16 0 0 -.16 13.408 101.8)"><use xlink:href="#DejaVuSans-31"/><use xlink:href="#DejaVuSans-30" x="63.623"/><use xlink:href="#DejaVuSans-30" x="127.246"/><use xlink:href="#DejaVuSans-30" x="190.869"/><use xlink:href="#DejaVuSans-30" x="254.492"/></g></g><g id="ytick_5"><use xlink:href="#m71660bcc92" id="line2d_14" x="71.308" y="40.303" style="fill:gray;stroke:gray;stroke-width:.8"/><g id="text_14" style="fill:gray" transform="matrix(.16 0 0 -.16 13.408 46.382)"><use xlink:href="#DejaVuSans-32"/><use xlink:href="#DejaVuSans-30" x="63.623"/><use xlink:href="#DejaVuSans-30" x="127.246"/><use xlink:href="#DejaVuSans-30" x="190.869"/><use xlink:href="#DejaVuSans-30" x="254.492"/></g></g></g><path id="line2d_15" d="m99.207 151.141 5.076-.03.282.056.282-.06.282.063.282-.067.282.072.282-.076.282.08.281-.085.282.091.282-.097.282.104.282-.111.282.118.282-.127.282.137.282-.147.282.158.282-.171.282.186.282-.203.282.223.282-.247.282.276.282-.312.282.357.282-.415.282.494.282-.607.282.783.282-1.096.282 1.806.282-5.092.281-11.111.282 10.277.846 17.511.282 3.457.282 1.153.564 4.325.282.913.282-1.573.564-1.793.282-1.78.282-3.246.282-1.29.564.368.846-4.041.564-1.375.846 2.374.281-.574.846.647.282.884.282 2.345.282 1.034.282-.677.282.177.564 4.626.564.025.282.938.564-.054.282 1.917.282 2.812.282.47.282-2.07.282-5.15.282-10.06 1.127-60.943.282-6.457.282-1.223.282 2.214.282 4.643.564 15.002 1.692 45.711.564 5.398.282 1.992.282.33.282-.948.282-.325.282-.118.282-1.136.846-6.681.282-.536.563.267.282-.37.282.693.564 4.662.282.046.282-1.321.282-.359.282.91.282-.28.282-1.346.282.343.564 5.443.282.989.282 1.545.282 2.892.282 1.734.282.214.282.38.282.856.282.122.282.32.845 3.802.282.266.282-3.085.282-10.133 1.41-81.423.282-6.066.282-1.31.282 5.505 1.41 53.755.282 6.506.282 1.735.282 4.35.564 14.268.282.111.282 2.313.282 6.986.281 4.158.564-4.9.282.73.282-1.044.846-16.663.282-.155.282-.672.282-1.178.282 1.31.564 9.824.282 1.257.282-.095.282 1.664.282.268.564-8.648.282.324.282 2.22.282.156.282-.002.563 4.47.282.476.282.728.846 5.14.282 1.49.564 1.067.282 1.77.282.15.846-10.158.282-11.473.564-39.592.846-33.267.282-5.27.282 3.808.846 26.317.563 20.217 1.128 29.017.564 5.174.282 2.882.282-.076.282-2.335.282-1.356.282.691.282.268.282-1.799.282-2.55.282-1.066.282.144.282-.243.282-1.037.282-.403.564 1.901.282-.028.282-.693.282-.018.563 3.386.282 1.493.282.688.282.294.282.128.282.663.564 3.731.282.516.282-.42.282.733.282 1.888.282.819.282-.194.282.607.282 1.312.564.937.564 4.192.282-.008.282-1.801.282-2.91.282-6.153.282-12.495.845-52.079.564-19.077.282-3.187.282 4.103 1.692 57.294.564 13.956.846 15.61.282 1.292.564-7.59.282-1.33.282-.498 1.691-11.256.846 1.725.282.324.282-.16.282.875.282 2.788.282 1.495.282-1 .282 2.899.564 16.642.282-.572.282-1.194.564 6.662.282-.106.564 2.65.564-6.45.281 1.362.282-1.06.564-17.775.282 3.72.282 6.493.282-3.622.846-36.1.564-31.703.282-9.705.282-4.283.282 1.077 1.41 36.054.564 17.992.564 10.088.564 15.665.281 2.322.282-.897.564 3.827.282-3.938.282-8.588.282-4.346.282 1.268.282-.047.282-2.759.282.916.564 9.631.282-.42.282.457.564 7.585.282-1.086.282-2.634.282-.033.564 3.257.282.513.564 2.265.281 1.249.846 5.414.282.196.282 1.211.564 3.403.564 2.775.282-.684.282-5.261.282-9.786.564-31.808.846-53.71.282-9.728.282-5.463.282-.574.282 4.372.564 18.739 1.41 53.712.563 13.045.282 3.633.564 3.31.282 1.18.282.387.564-2.916.282-.29.846 3.004.282.213.564-.005 1.128 1.976.845 3.809.282.93.282-.617.282-2.653.282-1.564.282 1.957.282 3.091.564 2.727.846 15.612.846-.814.282-4.9.564-27.604 1.41-89.327.282-7.162.282-2.413.281 3.424.564 12.307.282 12.088.564 38.614.846 34.072.282 7.162.282-.62.282-1.41.846 8.342.282-.861.282-1.42.564-4.13.564-1.139.564-3.35.282-.212.564 2.319.281-.633.282-.336.846 4.617.282 2.363.564 7.017.564 2.887.564 3.228.282.494.282 1.473.846 7.67.282.65.282-2.622.282-7.864.282-14.35 1.41-94.36.563-16.195.282-1.846.282 3.613.564 17.51.564 26.732.846 42.841.564 20.11.282 3.066.564 1.12.282-.201.282-.56.282-.212.282-.488.564-2.442.282-.254.282-.458.281-1.103.282-.629.282.399.564 2.022.282 1.815.846 8.911.282.37.282 2.01.564 7.295.282 1.333.564 5.184.282 2.213.282 3.928.564 14.859.282.374.282-4.998.282-8.936.282-17.147 1.41-123.554.281-15.007.564-14.723.282-2.479.282 2.263.282 6.102.282 9.464.282 15.11 1.41 105.487.282 6.337.564 6.876.282.48.564-4.383.282-.012.282-2.065.563-6.658.564-1.63.282-.078.846 5.1 1.128 11.856.282.985.282-1.045.282-2.12.282.026.564 5.196.282 3.437.282 7.33.564 18.913.564 8.363.282 3.224.282-.271.281-5.201.282-8.59.282-13.54.564-51.665.846-75.828.564-40.093.564-18.233.282-2.122.282 5.542.846 29.958.282 16.354 1.128 91.055.282 11.502.564 10.613.282 2.129.281.041.564-1.478.282-2.165.846-8.27.282-1.813.282.691.282 2.143.282-.527.282-2.037.282 2.65.564 11.684.282.553.282 3.376.282 6.99.282 2.89.564-6.311.282 1.194.564 3.967 1.127 13.503.564 6.516.282 3.073.282 1.538.282.206.282-.758.282-3.397.282-10.611.564-47.427 1.128-103.683.564-29.241.282-7.121.282-2.877.282 2.328.282 7.803.564 25.794.563 35.138.846 63.984.564 22.596.282 4.723.564.656.564 3.631.564-2.238.282.008.282.32.564.277.282-.274.282-.896.282-.322.282.768.282.315.282-.815.282-.46.282 1.04.563 2.963.282.83.564 1.034.282 1.956.564 5.793.282 1.468.282 2.346 1.128 15.003.564 14.97.282.761.282-8.17.282-16.558.846-78.423.564-51.219.563-32.176.564-17.385.282-1.233.282 5.216.564 18.828.564 35.622.846 59.85.846 34.689.282 10.553.282 5.582.282.035.282-1.372.282-.37.282-.751.564-4.515.846-3.527.281-1.731.282-.606.282.303.564-.405.282 1.505.282 3.135.282 1.648.282-1.558.282-2.319.282.388.564 5.693.282 1.594.282 2.325.564 7.778.564 4.76 1.128 15.185.282 1.219.282-3.121.281-9.48.564-38.43 1.41-126.999.282-15.55.282-7.865.282-1.115.282 2.65.282 4.393.282 6.993.564 27.018 1.128 79.517.564 33.175.282 7.62.564 7.233.281 1.145.282-1.514.282-2.347.282-1.37.564-1.5.846-3.38.282.08.282-.373.282-.962.282.815.282 2.806.282 1.637.282.636.282 4.276.282 7.445.282 3.758.282-1.426.282.16.282 4.133.282 2.316.282-1.97.282-.865.845 9.38.282 1.858.846 8.689.282-2.037.282-9.896.564-42.387 1.41-126.514.282-13.376.282-7.906.282-2.88.282 1.95.282 5.677.282 8.7.282 12.693.564 39.905 1.127 87.386.282 10.543.564 10.078.282 1.56.282-.571.564-.448.282-2.995.564-9.056.564-2.391.564-3.422.564-.403.564-1.052.282.827.564 5.1.282.869.282-.657.281.127.564 3.128.282.695.282 1.378 1.128 12.238 1.128 16.72.564 4.473.282.332.282-5.216.282-15.206 1.692-150.464.282-15.586.281-8.115.282-1.072.282 1.867.282 4.658.282 11.435 1.128 74.392.564 43.699.282 7.417.282 4.005.564 10.206.282 1.11.282.51.282 1.35.282-.097.282-1.7.282-.326.282.99.282-.624.282-1.905.282-.212.281.834.282-.83.282-1.441.282.862.282 2.202.282.93.282.346.282 2.378.846 12.604.564 6.783.564 7.52.282 2.305.846 13.897.282-2.256.282-3.45.282-5.425.282-14.508 1.973-168.852.282-8.157.282-2.91.282.716.282 4.122.564 13.65.564 22.866.564 34.427.846 62.98.282 9.709.564 10.406.282 2.886.282.765.282.044.282.285.282.076.563-.677.564.399.282-.205.282-.444.282.404 1.128 6.62 2.256 21.239.564 9.266.564 10.3.282 2.94.282.748.281-3.064.282-9.03.282-16.585.564-53.333 1.128-116.551.282-15.076.282-4.48.282-.61.282.602.282 5.13.564 16.14.282 4.922.282 8.272.564 30.034 1.692 99.214.281 1.203.282-1.648.282.385.282 1.882.282.801.282-.412.564-1.126.282.512.846 4.47.564 3.031 1.41 9.369.282 2.707.282 1.629.282.328.282 2.214.845 16.37.282 2.562.846 11.367.282.028.282-2.772.282-9.154.282-19.309.846-92.809.564-57.19.282-16.98.282-7.98.282-2.729.846-3.496.282 1.559.282 4.465.564 14.73.563 30.21 1.128 71.015.564 22.27.846 22.586.282 2.538.282 1.368.564 4.093.282-2.637.282-5.168.282-3.049.564-.479.282-.88.282.427.564 3.47.564 1.128.282 1.325.281 3.47 1.128 23.637.564 6.499.282 2.938.846 13.707.282-.875.282-3.692.282-11.968.564-63.067.846-93.252.282-23.337.282-12.21.564-6.608.282-2.968.282-.946.281.658.282 2.184.282 5.778.564 18.936.282 12.842 1.41 88.487.282 11.469.564 10.478.564 11.044.282 2.506.282.042.282.795.282 1.858.282.422.282-1.384.282-.632.846 3.398.281.978.564 5.271.564 4.224.282 1.88 1.41 17.09.564 7.954.282 2.985.564 8.54.282.13.282-7.158.282-16.642.564-60.13.846-92.955.282-20.965.281-11.371.846-16.639.282-.267.846 18.02.282 8.58.846 40.365 1.41 79.025.282 9.295.282 3.83.282 1.528.564 5.331.282.43.282.826.563 4.937.282.95.282 1.592.282.36.564-7.83.282 1.333.282 4.279.564 5.371.846 16.993.282 2.405.564 8.44.564 12.39.564 13.633.282 5.121.282 2.907.282-.108.282-4.345.282-12.28.563-53.417 1.128-134.405.282-13.375.564-12.16.282-3.389.282-.335.282-1.423.282-2.676.282 1.473.564 17.65.564 23.474 2.256 117.953.281 3.115.282.85.282 2.417.282.829.564-6.645.282.153.564 3.407.846 8.375.282 1.161.564 5.047.282.822.282 1.385 1.128 13.727.564 11.25.845 9.646.846 12.4.282.715.282-4.342.282-12.822.564-53.866 1.128-129.94.282-12.841.564-11.037.282-3.042.282.963.564 14.343.564 13.834 1.41 51.698.845 47.917.564 18.653.564 10.664.564 3.896.282 1.527.282-.883.564-6.932.282 2.926.282 4.373.564 1.804.564 9.725.282 1.13.282-.133.282 1.262.282.636.282-.468.281 1.67.846 12.547.564 7.444 1.41 23.304.282 3.533.282 1.354.282-6.53.282-17.383.564-57.715.846-100.696.282-19.93.282-10.432.282-5.684.282-2.451.282 1.985.282 3.881.281 1.375.282.799.282 6.391 1.41 65.289 1.128 58.276.564 10.102.282 3.552.282 1.311.282-.29.282.848.282 1.66.282.432.282-.196.846 1.946.282 2.322.563 9.568.282 2.708.282 1.001.282 1.526 1.692 18.496.564 6.2.846 11.073.282 1.954.282-2.717.282-10.47.282-18.127.564-60.367.564-71.341.282-20.588.281-11.321.282-5.985.282-1.803.282.028.282-.71.282.198.564 7.785.282 4.9.282 9.168 1.692 82.65.846 31.271.282 5.034.846 8.968.282.68.564 2.737.563-2.978.282 2.123.282 3.615.282.785.282-.191.282 2.693.282 4.026.564 4.16.564 8.877.564 7.967.564 6.42.846 15.44.564 6.289.282-3.11.282-15.496.564-59.487.845-111.601.282-13.703.564-5.994.282-4.249.282 1.065.564 11.59.564 7.045.564 14.61 2.256 79.317.564 11.576.563 8.099.564 9.51 1.41 4.246.282 4.076.564 14.123.282 3.497 1.41 9.043.282 3.366.846 13.148.564 7.674.564 7.01.563 5.746.282-3.77.282-14.224.564-56.42.846-103.752.282-11.55.564-9.569.282-2.63.282-.947.282-.218.282 3.047.564 13.843.282 3.625.282 7.057.564 24.772.564 8.328.845 27.314 1.41 22.757.846 10.681.564 8.04.564 2.709.564 5.194.282.878.282 2.265.564 7.927.564 2.736.564 4.494.282.737.282 1.17.563 4.882.846 12.473.282 1.826.282 3.28.564 9.307.564 5.531.282-.458.282-9.918.282-21.868.564-69.952.564-70.267.282-14.908.846-11.505.282 1.532.564 12.563.282 3.008.281 4.622 2.538 76.389 1.128 12.96.282.018.282 1.12 1.128 18.65.564 8.278.282 1.19.282-2.36.282-.22.845 15.544.564 4.143.564 7.308.846 6.573.564 7.137.282 1.96.282 4.26.564 10.69.564 5.8.282-1.806.282-15.59 1.41-146.072.282-9.095.563-7.585.282-1.88.282 1.29.564 3.691.282 4.543.564 14.853.564 10.396 1.692 41.91.564 9.117.564 3.08.282 1.039.282.257.282-.148.282 1.008.845 6.827.564 4.222.564 6.016.564 10.388.846 20.211.282 3.192.282 1.864.282 3.091 1.128 17.938 1.41 15.418.282-.744.281-6.43.282-13.767.282-23.925.846-95.188.282-14.036.564-15.304.282-4.08.282.072.564 2.393.282 2.764 1.128 20.816 1.41 33.686 1.127 17.405.282 2.078.846 3.243.564 4.284.564 1.409.564 2.18.282.976 1.128 10.294.282 4.807 1.128 28.584.564 5.333.564 9.862.563-.974.282 4.47.564 10.953.846 12.614.282-7.423.282-18.901 1.41-129.707.564-16.894.282-3.112.282 1.02.846 8.003.846 15.627 1.691 41.424.846 12.872.282 2.114.282.155.282.779.564 4.585 1.128 4.282.282 1.244.282.252.282-.827.282-.325.282 1.537.564 6.34 1.41 18.12 1.41 19.436 1.409 27.718.282.804.282-4.03.282-10.651.282-21.384.846-84.667.846-27.843.282-5.533.281.64.282 2.581.282 1.191.282 1.825 1.128 20.755 1.128 29.371 1.41 20.322.282 1.353.564.829.564 1.562.282 1.112.564 3.49.563 1.473.282.696.282-.045.564-3.755.282-2.482.282-5.057.846-25.611.282-3.755.282-1.301.282 1.938.564 6.952.282 1.425 1.128 9.882.846 16.558.282-.509.282-1.422.281.36.282 1.355.282.419.282-.401.282-.092.564 1.43.282.113.564-.964.282.597.282 1.231.282.126.282-.192.282 2.541.282 5.03.282 2.31.564-3.557.282 1.29.282-.489.564-10.87.282-1.35.845 6.189.282.095.282-.23.282.426.564 1.988.846 4.254.282 1.59.282 2.83.564 7.813.282 1.686.282.75.282 2.328 1.128 16.175.564 7.917.846 14.629.281 2.82.282.197.282-6.391.282-19.817 1.128-134.551.282-6.672.282.666.282 1.2.282-.382.282.81.282 3.872.564 9.723.282 3.927.282 6.487.846 25.172 1.128 24.664.563 6.648.564 4.35.282 2.578.282 1.161.282-.775.282-.191.282.186.282-1.125.282-2.587.282-1.215.282.1.282.337.282-.27.282.007.282-.522.282-.156.282.517.564 2.661.282 1.392.282.5.282.197.282-.176.281 4.078h0" clip-path="url(#p8c69f0de1d)" style="fill:none;stroke:#1f77b4;stroke-width:1.5;stroke-linecap:square"/><path id="patch_3" d="M71.308 266.112V0" style="fill:none;stroke:gray;stroke-width:.8;stroke-linejoin:miter;stroke-linecap:square"/><path id="patch_4" d="M685.107 266.112V0" style="fill:none;stroke:#000;stroke-width:.8;stroke-linejoin:miter;stroke-linecap:square"/><path id="patch_5" d="M71.308 266.112h613.8" style="fill:none;stroke:gray;stroke-width:.8;stroke-linejoin:miter;stroke-linecap:square"/><path id="patch_6" d="M71.308 0h613.8" style="fill:none;stroke:#000;stroke-width:.8;stroke-linejoin:miter;stroke-linecap:square"/></g></g><defs><clipPath id="p8c69f0de1d"><path d="M71.308 0h613.8v266.112h-613.8z"/></clipPath></defs></svg>