<svg xmlns="http://www.w3.org/2000/svg" xmlns:xlink="http://www.w3.org/1999/xlink" width="913.477" height="377.053" viewBox="0 0 685.107 282.79"><defs><style>*{stroke-linejoin:round;stroke-linecap:butt}</style></defs><g id="figure_1"><path id="patch_1" d="M0 282.79h685.107V0H0v282.79z" style="fill:none"/><g id="axes_1"><path id="patch_2" d="M71.308 266.112h613.8V0h-613.8v266.112z" style="fill:none"/><g id="matplotlib.axis_1"><g id="xtick_1"><g id="line2d_1"><defs><path id="mec73a6fbf2" d="M0 0v3.5" style="stroke:gray;stroke-width:.8"/></defs><use xlink:href="#mec73a6fbf2" x="99.207" y="266.112" style="fill:gray;stroke:gray;stroke-width:.8"/></g><g id="text_1" style="fill:gray" transform="matrix(.1 0 0 -.1 96.026 280.71)"><defs><path id="DejaVuSans-30" d="M2034 4250q-487 0-733-480-245-479-245-1442 0-959 245-1439 246-480 733-480 491 0 736 480 246 480 246 1439 0 963-246 1442-245 480-736 480zm0 500q785 0 1199-621 414-620 414-1801 0-1178-414-1799Q2819-91 2034-91q-784 0-1198 620-414 621-414 1799 0 1181 414 1801 414 621 1198 621z" transform="scale(.01563)"/></defs><use xlink:href="#DejaVuSans-30"/></g></g><g id="xtick_2"><use xlink:href="#mec73a6fbf2" id="line2d_2" x="168.958" y="266.112" style="fill:gray;stroke:gray;stroke-width:.8"/><g id="text_2" style="fill:gray" transform="matrix(.1 0 0 -.1 159.414 280.71)"><defs><path id="DejaVuSans-35" d="M691 4666h2478v-532H1269V2991q137 47 274 70 138 23 276 23 781 0 1237-428 457-428 457-1159 0-753-469-1171Q2575-91 1722-91q-294 0-599 50Q819 9 494 109v635q281-153 581-228t634-75q541 0 856 284 316 284 316 772 0 487-316 771-315 285-856 285-253 0-505-56-251-56-513-175v2344z" transform="scale(.01563)"/></defs><use xlink:href="#DejaVuSans-35"/><use xlink:href="#DejaVuSans-30" x="63.623"/><use xlink:href="#DejaVuSans-30" x="127.246"/></g></g><g id="xtick_3"><use xlink:href="#mec73a6fbf2" id="line2d_3" x="238.708" y="266.112" style="fill:gray;stroke:gray;stroke-width:.8"/><g id="text_3" style="fill:gray" transform="matrix(.1 0 0 -.1 225.982 280.71)"><defs><path id="DejaVuSans-31" d="M794 531h1031v3560L703 3866v575l1116 225h631V531h1031V0H794v531z" transform="scale(.01563)"/></defs><use xlink:href="#DejaVuSans-31"/><use xlink:href="#DejaVuSans-30" x="63.623"/><use xlink:href="#DejaVuSans-30" x="127.246"/><use xlink:href="#DejaVuSans-30" x="190.869"/></g></g><g id="xtick_4"><use xlink:href="#mec73a6fbf2" id="line2d_4" x="308.457" y="266.112" style="fill:gray;stroke:gray;stroke-width:.8"/><g id="text_4" style="fill:gray" transform="matrix(.1 0 0 -.1 295.733 280.71)"><use xlink:href="#DejaVuSans-31"/><use xlink:href="#DejaVuSans-35" x="63.623"/><use xlink:href="#DejaVuSans-30" x="127.246"/><use xlink:href="#DejaVuSans-30" x="190.869"/></g></g><g id="xtick_5"><use xlink:href="#mec73a6fbf2" id="line2d_5" x="378.207" y="266.112" style="fill:gray;stroke:gray;stroke-width:.8"/><g id="text_5" style="fill:gray" transform="matrix(.1 0 0 -.1 365.483 280.71)"><defs><path id="DejaVuSans-32" d="M1228 531h2203V0H469v531q359 372 979 998 621 627 780 809 303 340 423 576 121 236 121 464 0 372-261 606-261 235-680 235-297 0-627-103-329-103-704-313v638q381 153 712 231 332 78 607 78 725 0 1156-363 431-362 431-968 0-288-108-546-107-257-392-607-78-91-497-524-418-433-1181-1211z" transform="scale(.01563)"/></defs><use xlink:href="#DejaVuSans-32"/><use xlink:href="#DejaVuSans-30" x="63.623"/><use xlink:href="#DejaVuSans-30" x="127.246"/><use xlink:href="#DejaVuSans-30" x="190.869"/></g></g><g id="xtick_6"><use xlink:href="#mec73a6fbf2" id="line2d_6" x="447.957" y="266.112" style="fill:gray;stroke:gray;stroke-width:.8"/><g id="text_6" style="fill:gray" transform="matrix(.1 0 0 -.1 435.233 280.71)"><use xlink:href="#DejaVuSans-32"/><use xlink:href="#DejaVuSans-35" x="63.623"/><use xlink:href="#DejaVuSans-30" x="127.246"/><use xlink:href="#DejaVuSans-30" x="190.869"/></g></g><g id="xtick_7"><use xlink:href="#mec73a6fbf2" id="line2d_7" x="517.707" y="266.112" style="fill:gray;stroke:gray;stroke-width:.8"/><g id="text_7" style="fill:gray" transform="matrix(.1 0 0 -.1 504.983 280.71)"><defs><path id="DejaVuSans-33" d="M2597 2516q453-97 707-404 255-306 255-756 0-690-475-1069Q2609-91 1734-91q-293 0-604 58T488 141v609q262-153 574-231 313-78 654-78 593 0 904 234t311 681q0 413-289 645-289 233-804 233h-544v519h569q465 0 712 186t247 536q0 359-255 551-254 193-729 193-260 0-557-57-297-56-653-174v562q360 100 674 150t592 50q719 0 1137-327 419-326 419-882 0-388-222-655t-631-370z" transform="scale(.01563)"/></defs><use xlink:href="#DejaVuSans-33"/><use xlink:href="#DejaVuSans-30" x="63.623"/><use xlink:href="#DejaVuSans-30" x="127.246"/><use xlink:href="#DejaVuSans-30" x="190.869"/></g></g><g id="xtick_8"><use xlink:href="#mec73a6fbf2" id="line2d_8" x="587.457" y="266.112" style="fill:gray;stroke:gray;stroke-width:.8"/><g id="text_8" style="fill:gray" transform="matrix(.1 0 0 -.1 574.732 280.71)"><use xlink:href="#DejaVuSans-33"/><use xlink:href="#DejaVuSans-35" x="63.623"/><use xlink:href="#DejaVuSans-30" x="127.246"/><use xlink:href="#DejaVuSans-30" x="190.869"/></g></g><g id="xtick_9"><use xlink:href="#mec73a6fbf2" id="line2d_9" x="657.207" y="266.112" style="fill:gray;stroke:gray;stroke-width:.8"/><g id="text_9" style="fill:gray" transform="matrix(.1 0 0 -.1 644.482 280.71)"><defs><path id="DejaVuSans-34" d="M2419 4116 825 1625h1594v2491zm-166 550h794V1625h666v-525h-666V0h-628v1100H313v609l1940 2957z" transform="scale(.01563)"/></defs><use xlink:href="#DejaVuSans-34"/><use xlink:href="#DejaVuSans-30" x="63.623"/><use xlink:href="#DejaVuSans-30" x="127.246"/><use xlink:href="#DejaVuSans-30" x="190.869"/></g></g></g><g id="matplotlib.axis_2"><g id="ytick_1"><g id="line2d_10"><defs><path id="ma79af2d5a3" d="M0 0h-3.5" style="stroke:gray;stroke-width:.8"/></defs><use xlink:href="#ma79af2d5a3" x="71.308" y="250.709" style="fill:gray;stroke:gray;stroke-width:.8"/></g><g id="text_10" style="fill:gray" transform="matrix(.16 0 0 -.16 0 256.788)"><defs><path id="DejaVuSans-2212" d="M678 2272h4006v-531H678v531z" transform="scale(.01563)"/></defs><use xlink:href="#DejaVuSans-2212"/><use xlink:href="#DejaVuSans-32" x="83.789"/><use xlink:href="#DejaVuSans-30" x="147.412"/><use xlink:href="#DejaVuSans-30" x="211.035"/><use xlink:href="#DejaVuSans-30" x="274.658"/><use xlink:href="#DejaVuSans-30" x="338.281"/></g></g><g id="ytick_2"><use xlink:href="#ma79af2d5a3" id="line2d_11" x="71.308" y="207.255" style="fill:gray;stroke:gray;stroke-width:.8"/><g id="text_11" style="fill:gray" transform="matrix(.16 0 0 -.16 0 213.333)"><use xlink:href="#DejaVuSans-2212"/><use xlink:href="#DejaVuSans-31" x="83.789"/><use xlink:href="#DejaVuSans-30" x="147.412"/><use xlink:href="#DejaVuSans-30" x="211.035"/><use xlink:href="#DejaVuSans-30" x="274.658"/><use xlink:href="#DejaVuSans-30" x="338.281"/></g></g><g id="ytick_3"><use xlink:href="#ma79af2d5a3" id="line2d_12" x="71.308" y="163.801" style="fill:gray;stroke:gray;stroke-width:.8"/><use xlink:href="#DejaVuSans-30" id="text_12" style="fill:gray" transform="matrix(.16 0 0 -.16 54.127 169.88)"/></g><g id="ytick_4"><use xlink:href="#ma79af2d5a3" id="line2d_13" x="71.308" y="120.347" style="fill:gray;stroke:gray;stroke-width:.8"/><g id="text_13" style="fill:gray" transform="matrix(.16 0 0 -.16 13.408 126.425)"><use xlink:href="#DejaVuSans-31"/><use xlink:href="#DejaVuSans-30" x="63.623"/><use xlink:href="#DejaVuSans-30" x="127.246"/><use xlink:href="#DejaVuSans-30" x="190.869"/><use xlink:href="#DejaVuSans-30" x="254.492"/></g></g><g id="ytick_5"><use xlink:href="#ma79af2d5a3" id="line2d_14" x="71.308" y="76.893" style="fill:gray;stroke:gray;stroke-width:.8"/><g id="text_14" style="fill:gray" transform="matrix(.16 0 0 -.16 13.408 82.971)"><use xlink:href="#DejaVuSans-32"/><use xlink:href="#DejaVuSans-30" x="63.623"/><use xlink:href="#DejaVuSans-30" x="127.246"/><use xlink:href="#DejaVuSans-30" x="190.869"/><use xlink:href="#DejaVuSans-30" x="254.492"/></g></g><g id="ytick_6"><use xlink:href="#ma79af2d5a3" id="line2d_15" x="71.308" y="33.439" style="fill:gray;stroke:gray;stroke-width:.8"/><g id="text_15" style="fill:gray" transform="matrix(.16 0 0 -.16 13.408 39.517)"><use xlink:href="#DejaVuSans-33"/><use xlink:href="#DejaVuSans-30" x="63.623"/><use xlink:href="#DejaVuSans-30" x="127.246"/><use xlink:href="#DejaVuSans-30" x="190.869"/><use xlink:href="#DejaVuSans-30" x="254.492"/></g></g></g><path id="line2d_16" d="m99.207 163.782.846.039.846-.042.846.045.846-.049.846.053.282-.056.282.058.282-.06.282.062.282-.064.282.066.282-.068.282.07.282-.073.282.077.281-.08.282.083.282-.086.282.09.282-.095.282.1.282-.105.282.11.282-.117.282.125.282-.133.282.142.282-.153.282.166.282-.18.282.197.282-.219.282.246.282-.279.282.322.282-.381.282.467.282-.603.282.85.282-1.437.281 4.747.282 11.468.282 1.802.282 2.748.282.161.564 5.894.282 3.542.564 2.018.282-.337.282-2.452.282-8.721.564-36.943.564-39.942.564-25.017.282-4.003.282 1.129.282 7.044.282 14.493.846 65.428.563 21.92.282 4.585.282 2.75.282 1.652.282.643.564-1.864.282-1.616.282-3.51.564-11.7.282-3.401 1.128-5.733.282.302.282 2.717.282 3.911.282 2.013.282.26.282 1.153.282 2.646.282.877.563-3.072.282.935.282 1.448.564 1.369.564 2.686.282.24.282-.697.282-2.243.282-6.332.564-28.713.846-49.847.564-20.38.282-2.298.282 4.231.282 10.953 1.41 84.657.281 7.646.282 4.358.564 4.052.282.483.282-.925.564-2.947.282-2.783.564-7.044.564-.268.564-3.707.846-1.935.564 1.714.282-.284.282 1.038.564 6.9.281-1.696.282-2.523.282.802.282 1.853.564-.722.846 6.31.282-.63.282-1.72.282-5.36.282-11.682 1.41-83.405.282-8.02.282-1.103.282 6.016.564 23.706.564 33.103.563 30.88.282 4.464.282 2.67.564 12.364.282.738.564-4.169.282-2.319.564-7.66.564 3.234.564-7.639.282 1.2.282 2.883.282-1.437.282-4.546.282-1.893.846 5.444.282 1.149.281 3.312.564 9.601.282 2.701.564 1.863.282 2.756.282 4.201.282 1.6.282-4.478.564-20.064.282-13.409 1.128-69.281.282-5.372.282-2.819.282.306.282 5.095.282 11.707 1.128 72.38.563 14.314.282 3.559.282.843.564-.015.282-1.65.564-6.623.282-1.823.282-2.6.564-7.465.564-2.567.282-2.307.282-.738.564 3.558.564-1.35.282 2.294.564 7.356.563 2.862.282 3.774.564 12.03.282 2.038.282.98.564 5.45.282-1.989.282-7.088.282-11.722.564-41.356.564-43.489.564-33.687.282-11.376.282-1.51.282 7.845.564 27.99.564 47.872.564 41.54.281 8.799.564 8.614.564 2.607.282.274.282-2.173.564-8.12.564-4.058.564-7.938.282-3.865.282-1.902.282-.424.282-.059.282.626 1.128 8.742.564 6.686.282 1.63.281 2.905.846 18.868.564 6.826.282 2.23.282.042.282-4.314.282-11.647.564-43.447 1.128-95.494.282-11.243.282-4.955.282-1.533.282 2.836.282 9.08.564 35.567.845 70.242.282 12.203.564 12.46.282 3.997.282 1.137.564-1.913.282-.494.282-.907 1.128-5.697.564-3.986.282-.225.282.5.282.804.564 2.835.846 3.974.282 2.958.563 8.326.846 6.635 1.128 15.776.282-1.248.282-7.87.564-36.847 1.41-116.96.564-17.974.282-3.155.282 2.05.282 9.45.282 17.987 1.127 105.203.282 12.523.564 10.955.282 1.974.282-1.165.564-4.792.282-1.231.846-6.996.282 1.037.282.48.564-2.615.282.418.282.735.282-.715.282-2.753.564-6.967.282.802.282 2.927.563 3.22.282 7.22.564 19.923.282 2.087.282.596 1.41 10.85.282-5.427.564-27.799.564-48.766.564-52.403.564-32.675.282-11.486.282-3.624.282 3.765.282 8.784.282 15.838 1.127 101.308.282 14.452.282 6.759.282-.217.282-1.55.564 1.883.282-1.563.564-4.608.282-.14.282.504.282-.257.564-2.717.282-.01.282-.25.282-2.244.282-3.219.282-1.771.282.5.282 2.29.845 10.785.846 15.225.564 2.75 1.41 11.892.282.326.282-3.045.282-7.282.282-13.976.564-49.497.846-73.355.564-22.964.282-5.073.282.007.281 9.046.564 42.386.846 66.842.282 16.479.282 9.616.564 7.402.282 1.83.282.046.564-3.343.846-6.106.282-.888.564-2.592.564-1.302.564-3.557.282 2.17.563 10.204.282 1.841.282.96.846 6.738.282 1.417.846 6.627.282 1.614.564 5.883.282 1.003.282-2.957.282-8.465.564-36.158 1.128-96.249.564-22.555.281-6.81.282-2.603.282 6.325.282 16.58 1.41 116.025.282 10.04.282 4.22.282 1.946.282.757.282-.776 1.128-6.79.282-.695.282.149.282-.726.846-7.31.282-.454.282.762.563 2.772.564 4.674.564 7.876.564 8.428.564 4.905.846 11.315.564 5.342.282.543.282-5.058.282-12.93.564-48.143.846-80.197.845-56.917.282-7.402.282 5.279.846 47.494.564 54.731.564 51.5.282 9.633.564 10.92.282 1.845.564-3.723.282.71.282 1.115.282.255.282.774.282 1.246.282-.974.564-8.196.282-.825.563 4.334.564 1.122.282 2.46 1.692 20.257.846 24.307.282-1.279.282-9.821.564-42.353 1.128-108.773.564-32.757.282-6.807.282-2.117.281 1.448.282 5.404.282 11.25.564 38.217 1.128 82.506.282 9.831.564 9.72.282 2.213.282.368.282-.159.282-.627.564-2.809.282.67.564 3.476.282-.574.564-6.372.282.607.563 8.673.282 2.01.282 2.9.564 10.374.564 6.128.282 4.494.282 2.578.282-2.896.282-8.878.564-33.857 1.41-119.451.564-27.865.282-1.971.282 6.198.564 21.937.563 40.487.564 48.494.564 30.077.282 10.36.282 6.155.282 2.056.282.942.564 3.131.282-.476.564-1.897.282-2.423.564-8.798.282-.58.282 1.046.282.056.282.366.282 3.219 1.127 19.838.846 9.926.282 2.363.282-1.746.282-8.203.564-35.888 1.128-94.215.564-30.733.282-7.107.282-1.468.282 3.93.282 8.767.564 30.688 1.128 77.43.281 10.956.282 4.876.564 2.691.564 4.238.282-.121.282.555.846 10.465.282-.416.282-1.057.282-.025.564.715.282 2.116.564 7.998.564 4.327.564 8.459.564 9.515.282 2.423.281-2.422.282-9.46.564-38.25 1.41-127.245.282-13.72.282-7.128.282-1.012.282 3.011.282 7.304.282 14.344 1.692 117.507.282 8.971.564 8.234.282 2.69.281 1.391.282.269.564-1.12.282.008.282-.525.564-4.882.282.089.564 4.19.282.61.282 1.91.846 14.354.282 1.117.282 1.675.846 12.87.282-5.656.564-28.257.563-46.535.846-70.17.564-27.751.282-5.669.282-.77.282 3.051.282 6.742.282 10.75.564 34.547.846 62.838.564 19.153.564 12.57.282 3.576.564 4.51.282 3.257.282 1.508.563-1.79.282-.059.282.236.282.569.282 1.683 1.128 8.708.282 1.756.282 2.53.282 5.138.564 13.375.282 2.703.282-1.108.282-5.772.282-13.057.564-50.255 1.128-112.39.563-31.01.282-5.452.282-.439.282 4.386.564 20.026.564 35.427 1.128 80.379.282 14.77.282 7.962.846 10.37.282 2.356.564 1.923.282 3.25.564 8.568.282.084.282-1.172.282 1.262.281 2.892.282.62.282-1.52.282 1.19.564 9.48.282-.135.282.062.282 5.988.564 19.548.282 3.074.282-4.987.282-13.919.564-46.418.564-68.237.564-69.648.564-33.218.282-5.493.282 1.088.282 4.648.281 6.695.282 10.73.846 51.452 1.128 81.733.564 27.15.282 6.654.564 6.807.282.628.564-2.48.282-.358.282-1.334.564-4.793.282-1.388.282-.828.282.084.563 2.937.282 1.85.282 3.898.846 18.89.282 2.923.282 5.066.564 12.882.282 2.656.282-.141.282-4.92.282-13.016.564-49.986 1.128-137.013.282-17.788.282-9.278.282-4.415.282-.482.282 5.052.563 24.046.564 30.268 1.692 113.584.282 9.105.564 8.9.846 4.8.282.982.282-1.817.282-2.97.846-5.435.282-2.652.282-.655.564 1.482.281.61.564 2.955.282 1.66.282 2.68 1.41 22.271.846 17.314.282 4.228.282.487.282-7.192.282-15.332.564-50.29 1.128-133.882.282-17.107.282-9.02.281-1.711.282 3.175.564 12.373.282 9.937.564 32.75 1.41 100.79.282 13.9.282 8.056.564 6.64.282 2.666.282.762.282-.787.282-.248.282-.849.282-4.804.282-7.373.282-3.738.564 4.045.281-1.506.282-2.257.282.652.282 2.031.564 1.19.846 7.242.282 2.548 1.41 21.332 1.128 19.443.282-.918.282-7.573.282-15.993.564-54.173 1.127-116.497.282-13.43.282-6.765.282-2.401.282 1.78.282 5.813.564 20.67.564 33.617.846 58.964.846 36.774.282 9.08.282 3.672.282.556.564 2.475.282-1.699.563-5.383.282-2.534.282-3.977.282-2.212.282 1.8.282 2.647.282.282.282-.236.282 1.908.564 4.87.282 1.296.282 2.338.846 9.072.564 5.91.564 7.793 1.128 19.578.282 1.028.282-4.61.281-12.065.564-43.844L415.85 59.32l.564-26.757.282-3.528.282 1.638.282 3.973.282 6.585.564 24.08.564 36.405.846 56.758.564 26.686.282 4.153.282 1.906.563 6.662.282-.089.282-1.113.282-.185.282-.47.282-1.177.846-1.71.282.646.282 1.57.282-1.5.282-4.309.282-.562.564 11.349.564 3.33 1.128 15.518.564 9.159.282 3.693.845 18.757.282-1.841.282-12.056.564-50.318 1.128-143.265.282-14.304.282-6.31.282-2.447.282 2.515.564 16.205.564 21.3.846 46.12.846 63.256.563 24.399.282 7.568.282 4.121.282.393.282-2.896.564-7.806.564-2.453.564-5.5.282.39.846 9.64.282-.175.282.182.846 5.737.282 3.096 1.691 31.049.564 6.543.282.663.282-7.337.282-18.702.846-92.73.564-60.616.282-19.26.282-7.684.282-.016.564 3.295.282 4.894.564 17.638.564 25.381.846 47.832.563 35.858.846 28.375.282 3.787.282-1.169.282-.6.564 3.115.282-1.238.564-3.078.282-1.35.282-.786.564 2.006.282-1.043.564-4.852.282.508.846 3.488.845 9.245 1.128 20.416.282-3.282.282-13.397.846-76.542.846-80.505.282-8.677.282-2.312.282-.005.282 2.887.564 11.86.282 7.6.564 25.316 2.255 106.56.564 9.199.564 3.1.282.733.282.068.282-.815.282-2.113.564-8.094.564-7.95.282-1.859.282.334.282 1.2.282.669.282 1.192.282 3.586.564 9.83.563 8.334.564 13.14.282 3.523.282-1.533.282-8.147.282-16.615.564-57.545.564-61.252.282-20.8.282-11.825.282-4.173.282.474.282 2.613.564 9.197.564 17.65.846 37.802.845 38.583 1.128 37.92.564 8.504.564 4.644.282 1.211.282.186.282-.24.282-.427.282-.64.282-.286.564.942.282.79.282 1.636.282.974.564-3.563.282 2.566.564 11.732.563 4.282.282 1.038.282-5.863.282-16.858.564-56.67.564-61.215.282-20.273.282-8.576.282-.653.282 1.361.282 2.154.282 5.26.846 25.073 1.692 63.57 1.127 22.527 1.128 13.046.564 4.846.282 1.165.282.26.282 2.073.564 7.833.282-2.978.282-4.82.282.695.282 5.331.282 2.507.282-1.507.282 2.01.846 29.757.282 2.168.282-2.838.281-10.432.282-21.613 1.128-123.857.282-9.468.282-3.734.282-1.756.282.11.282 2.04.282 3.232.282 4.63.282 7.274.564 23.614 1.128 48.457.846 27.073.282 6.637.282.163.563-9.169.564 4.44.564-2.91.282 2.172.282 3.598.282 1.685.564 1.072.282-.288.282-.048.282 2.654.564 6.811.282 1.583.564 6.464.282 3.991.846 18.427.282-11.378.845-77.613.564-43.587.282-12.48.282-6.092.282-1.515.282.073.282.389.282 2.98 1.128 30.206 1.41 55.49.282 13.014.282 7.837.282 3.378.564 3.097.282.568.282-.372.281-1.243.564-4.83.564-4.905.282-.847.282-1.427.282-2.361.282-.526.846 7.796.564 3.478.282.205.282-.971.282 2.044.564 11.654.282 3.199.282 1.51.282-1.165.282-8.173.282-18.079.845-68.308.282-9.49.564-8.736.282-2.118.282.977.564 8.674.564 13.154 2.256 65.623.564 12.04.282.586.282-1.558.282.348.282 1.416.282-1.941.563-11.56.282-2.1.282.024.282-.4.564-2.125.282-.405.282.128.282.854.846 3.465.282 3.306.846 18.435.282 1.246.564.94.282-2.08.282-8.69.564-37.704.564-32.526.563-12.853.282-3.562.282-.103.846 7.988.282 6.654.564 16.363.564 6.355 1.128 30.113.564 6.528.282.29.564-2.7.282-.436.282-1.105.282-2.882.282-1.54.281 3.063.282 4.391.282.254.282-2.552.282-.4.282 1.483.564.88.564 5.568.564 2.214.846 7.414.846 13.583.282-5.165.282-12.479.846-56.578.282-9.587.563-10.546.282-2.748.282.435.282 1.196.282.084.282 1.128.282 5.192 1.974 58.88.564 4.92.564 3.295.282.253.282-.879.846-5.95.282-.432.282-1.4.845-8.442.282-1.635.282-.319.282 1.586.564 5.702.846 4.898 1.41 25.162.282 5.53.282-1.12.282-11.3.846-60.469.564-16.84.564-12.173.281.524.564 6.739.282 2.252.282 6.86.564 18.908.564 9.464.564 15.558.846 15.156.282 2.86.282.056.282-.752.282-1.278.846-7.174.282-1.836.564-4.564.282.019.281-.488.564-5.382.282.618.564 6.919 1.41 10.342 1.128 14.87.282-.245.282-6.125.564-32.06.564-26.645.564-11.25.282-3.649.282-1.644.282.31.281 1.301.282 2.614.564 11.653.846 20.404.846 25.414.282 4.466.282.385.564-5.466.282-1.004.282-1.59.564-4.656.282-.662.282-1.38.282-2.14.282-.985.282.15.282-.443.282-.882.281 1.03.846 11.86.564 2.996.564 5.744.282 1.243.282 1.837.846 13.078.282.814.282-1.737.282-6.931 1.128-53.758.564-13.313.564-9.842.282-3.052.282.8.563 8.873.846 17.23.282 1.82.282 2.559.846 21.155.282 2.076.282 4.906.282 7.737.282 4.052.282-2.068.282-3.31.564-1.579.564-5.04.282-.742.564.384.282.764.282 1.219.281.27.564-3.484.282-.101.564 6.07.282.728.282-.213.282 3.453.564 14.28.282 3.175.564 2.88.282-3.943.282-12.805.564-35.265.564-18.27.564-11.696.282-2.198.282 2.692.563 10.605.564 7.952.564 15.07.282 4.278.282 2.222 1.692 19.148.282-.411.564-6.078.282-1.542.282-.896.282-.454.282-1.027.282-3.496.282-5.113.282-2.319.564 4.188.282-1.322.281-.199.282 6.819.282 10.802.282 6.322.282.148.282-.556.564 3.666.282 2.082.564 6.956.282 1.316.282-1.61.282-5.408.564-23.555.564-21.168.564-12.453.282-1.77.282-.39.282-.122.282 1.563.563 6.604.282 2.225.282 3.703.564 11.469.282 2.771.564 1.475.564 4.372.282.105.564-2.257.282.089.846-.148.564-1.411.282 2.088.564 12.157.282 2.327.282-.093.282 1.204.563 5.742.282-.339.282-2.163.282-1.124.282.524.282.096.282-.797.282 1.47.282 4.552.282 2.343.282-5.002.564-19.125 1.41-31.662.282-.974.282.052.282 1.664.564 8.403.282 1.704.282-.425.281 1.939.564 11.336.282.61.282-.852.282 4.057.564 15.402.282.443.564-4.318.564-1.179.282-.053.282.578.282-.414.282-1.47.282-.692.564 1.177.282.113.282.656.564 3.133.563 6.35.282 3.241.564 3.314.564 6.959.282 1.057.282-3.571.564-16.668 1.128-39.499.564-11.61.282-1.384.282 3.028 1.128 18.058.564 12.74.563 3.332h0" clip-path="url(#p85b8057ebb)" style="fill:none;stroke:#1f77b4;stroke-width:1.5;stroke-linecap:square"/><path id="patch_3" d="M71.308 266.112V0" style="fill:none;stroke:gray;stroke-width:.8;stroke-linejoin:miter;stroke-linecap:square"/><path id="patch_4" d="M685.107 266.112V0" style="fill:none;stroke:#000;stroke-width:.8;stroke-linejoin:miter;stroke-linecap:square"/><path id="patch_5" d="M71.308 266.112h613.8" style="fill:none;stroke:gray;stroke-width:.8;stroke-linejoin:miter;stroke-linecap:square"/><path id="patch_6" d="M71.308 0h613.8" style="fill:none;stroke:#000;stroke-width:.8;stroke-linejoin:miter;stroke-linecap:square"/></g></g><defs><clipPath id="p85b8057ebb"><path d="M71.308 0h613.8v266.112h-613.8z"/></clipPath></defs></svg>