<?xml version="1.0" encoding="utf-8" standalone="no"?>
<!DOCTYPE svg PUBLIC "-//W3C//DTD SVG 1.1//EN"
  "http://www.w3.org/Graphics/SVG/1.1/DTD/svg11.dtd">
<svg xmlns:xlink="http://www.w3.org/1999/xlink" width="660.992188pt" height="282.790125pt" viewBox="0 0 660.992188 282.790125" xmlns="http://www.w3.org/2000/svg" version="1.1">
 <metadata>
  <rdf:RDF xmlns:dc="http://purl.org/dc/elements/1.1/" xmlns:cc="http://creativecommons.org/ns#" xmlns:rdf="http://www.w3.org/1999/02/22-rdf-syntax-ns#">
   <cc:Work>
    <dc:type rdf:resource="http://purl.org/dc/dcmitype/StillImage"/>
    <dc:date>2023-03-06T21:29:36.200079</dc:date>
    <dc:format>image/svg+xml</dc:format>
    <dc:creator>
     <cc:Agent>
      <dc:title>Matplotlib v3.6.3, https://matplotlib.org/</dc:title>
     </cc:Agent>
    </dc:creator>
   </cc:Work>
  </rdf:RDF>
 </metadata>
 <defs>
  <style type="text/css">*{stroke-linejoin: round; stroke-linecap: butt}</style>
 </defs>
 <g id="figure_1">
  <g id="patch_1">
   <path d="M -0 282.790125 
L 660.992188 282.790125 
L 660.992188 0 
L -0 0 
L -0 282.790125 
z
" style="fill: none"/>
  </g>
  <g id="axes_1">
   <g id="patch_2">
    <path d="M 47.192188 266.112 
L 660.992188 266.112 
L 660.992188 0 
L 47.192188 0 
L 47.192188 266.112 
z
" style="fill: none"/>
   </g>
   <g id="matplotlib.axis_1">
    <g id="xtick_1">
     <g id="line2d_1">
      <defs>
       <path id="m63b0310dab" d="M 0 0 
L 0 3.5 
" style="stroke: #808080; stroke-width: 0.8"/>
      </defs>
      <g>
       <use xlink:href="#m63b0310dab" x="75.092188" y="266.112" style="fill: #808080; stroke: #808080; stroke-width: 0.8"/>
      </g>
     </g>
     <g id="text_1">
      <!-- 0 -->
      <g style="fill: #808080" transform="translate(71.910938 280.710438) scale(0.1 -0.1)">
       <defs>
        <path id="DejaVuSans-30" d="M 2034 4250 
Q 1547 4250 1301 3770 
Q 1056 3291 1056 2328 
Q 1056 1369 1301 889 
Q 1547 409 2034 409 
Q 2525 409 2770 889 
Q 3016 1369 3016 2328 
Q 3016 3291 2770 3770 
Q 2525 4250 2034 4250 
z
M 2034 4750 
Q 2819 4750 3233 4129 
Q 3647 3509 3647 2328 
Q 3647 1150 3233 529 
Q 2819 -91 2034 -91 
Q 1250 -91 836 529 
Q 422 1150 422 2328 
Q 422 3509 836 4129 
Q 1250 4750 2034 4750 
z
" transform="scale(0.015625)"/>
       </defs>
       <use xlink:href="#DejaVuSans-30"/>
      </g>
     </g>
    </g>
    <g id="xtick_2">
     <g id="line2d_2">
      <g>
       <use xlink:href="#m63b0310dab" x="144.842188" y="266.112" style="fill: #808080; stroke: #808080; stroke-width: 0.8"/>
      </g>
     </g>
     <g id="text_2">
      <!-- 500 -->
      <g style="fill: #808080" transform="translate(135.298438 280.710438) scale(0.1 -0.1)">
       <defs>
        <path id="DejaVuSans-35" d="M 691 4666 
L 3169 4666 
L 3169 4134 
L 1269 4134 
L 1269 2991 
Q 1406 3038 1543 3061 
Q 1681 3084 1819 3084 
Q 2600 3084 3056 2656 
Q 3513 2228 3513 1497 
Q 3513 744 3044 326 
Q 2575 -91 1722 -91 
Q 1428 -91 1123 -41 
Q 819 9 494 109 
L 494 744 
Q 775 591 1075 516 
Q 1375 441 1709 441 
Q 2250 441 2565 725 
Q 2881 1009 2881 1497 
Q 2881 1984 2565 2268 
Q 2250 2553 1709 2553 
Q 1456 2553 1204 2497 
Q 953 2441 691 2322 
L 691 4666 
z
" transform="scale(0.015625)"/>
       </defs>
       <use xlink:href="#DejaVuSans-35"/>
       <use xlink:href="#DejaVuSans-30" x="63.623047"/>
       <use xlink:href="#DejaVuSans-30" x="127.246094"/>
      </g>
     </g>
    </g>
    <g id="xtick_3">
     <g id="line2d_3">
      <g>
       <use xlink:href="#m63b0310dab" x="214.592188" y="266.112" style="fill: #808080; stroke: #808080; stroke-width: 0.8"/>
      </g>
     </g>
     <g id="text_3">
      <!-- 1000 -->
      <g style="fill: #808080" transform="translate(201.867188 280.710438) scale(0.1 -0.1)">
       <defs>
        <path id="DejaVuSans-31" d="M 794 531 
L 1825 531 
L 1825 4091 
L 703 3866 
L 703 4441 
L 1819 4666 
L 2450 4666 
L 2450 531 
L 3481 531 
L 3481 0 
L 794 0 
L 794 531 
z
" transform="scale(0.015625)"/>
       </defs>
       <use xlink:href="#DejaVuSans-31"/>
       <use xlink:href="#DejaVuSans-30" x="63.623047"/>
       <use xlink:href="#DejaVuSans-30" x="127.246094"/>
       <use xlink:href="#DejaVuSans-30" x="190.869141"/>
      </g>
     </g>
    </g>
    <g id="xtick_4">
     <g id="line2d_4">
      <g>
       <use xlink:href="#m63b0310dab" x="284.342188" y="266.112" style="fill: #808080; stroke: #808080; stroke-width: 0.8"/>
      </g>
     </g>
     <g id="text_4">
      <!-- 1500 -->
      <g style="fill: #808080" transform="translate(271.617188 280.710438) scale(0.1 -0.1)">
       <use xlink:href="#DejaVuSans-31"/>
       <use xlink:href="#DejaVuSans-35" x="63.623047"/>
       <use xlink:href="#DejaVuSans-30" x="127.246094"/>
       <use xlink:href="#DejaVuSans-30" x="190.869141"/>
      </g>
     </g>
    </g>
    <g id="xtick_5">
     <g id="line2d_5">
      <g>
       <use xlink:href="#m63b0310dab" x="354.092188" y="266.112" style="fill: #808080; stroke: #808080; stroke-width: 0.8"/>
      </g>
     </g>
     <g id="text_5">
      <!-- 2000 -->
      <g style="fill: #808080" transform="translate(341.367188 280.710438) scale(0.1 -0.1)">
       <defs>
        <path id="DejaVuSans-32" d="M 1228 531 
L 3431 531 
L 3431 0 
L 469 0 
L 469 531 
Q 828 903 1448 1529 
Q 2069 2156 2228 2338 
Q 2531 2678 2651 2914 
Q 2772 3150 2772 3378 
Q 2772 3750 2511 3984 
Q 2250 4219 1831 4219 
Q 1534 4219 1204 4116 
Q 875 4013 500 3803 
L 500 4441 
Q 881 4594 1212 4672 
Q 1544 4750 1819 4750 
Q 2544 4750 2975 4387 
Q 3406 4025 3406 3419 
Q 3406 3131 3298 2873 
Q 3191 2616 2906 2266 
Q 2828 2175 2409 1742 
Q 1991 1309 1228 531 
z
" transform="scale(0.015625)"/>
       </defs>
       <use xlink:href="#DejaVuSans-32"/>
       <use xlink:href="#DejaVuSans-30" x="63.623047"/>
       <use xlink:href="#DejaVuSans-30" x="127.246094"/>
       <use xlink:href="#DejaVuSans-30" x="190.869141"/>
      </g>
     </g>
    </g>
    <g id="xtick_6">
     <g id="line2d_6">
      <g>
       <use xlink:href="#m63b0310dab" x="423.842188" y="266.112" style="fill: #808080; stroke: #808080; stroke-width: 0.8"/>
      </g>
     </g>
     <g id="text_6">
      <!-- 2500 -->
      <g style="fill: #808080" transform="translate(411.117188 280.710438) scale(0.1 -0.1)">
       <use xlink:href="#DejaVuSans-32"/>
       <use xlink:href="#DejaVuSans-35" x="63.623047"/>
       <use xlink:href="#DejaVuSans-30" x="127.246094"/>
       <use xlink:href="#DejaVuSans-30" x="190.869141"/>
      </g>
     </g>
    </g>
    <g id="xtick_7">
     <g id="line2d_7">
      <g>
       <use xlink:href="#m63b0310dab" x="493.592188" y="266.112" style="fill: #808080; stroke: #808080; stroke-width: 0.8"/>
      </g>
     </g>
     <g id="text_7">
      <!-- 3000 -->
      <g style="fill: #808080" transform="translate(480.867188 280.710438) scale(0.1 -0.1)">
       <defs>
        <path id="DejaVuSans-33" d="M 2597 2516 
Q 3050 2419 3304 2112 
Q 3559 1806 3559 1356 
Q 3559 666 3084 287 
Q 2609 -91 1734 -91 
Q 1441 -91 1130 -33 
Q 819 25 488 141 
L 488 750 
Q 750 597 1062 519 
Q 1375 441 1716 441 
Q 2309 441 2620 675 
Q 2931 909 2931 1356 
Q 2931 1769 2642 2001 
Q 2353 2234 1838 2234 
L 1294 2234 
L 1294 2753 
L 1863 2753 
Q 2328 2753 2575 2939 
Q 2822 3125 2822 3475 
Q 2822 3834 2567 4026 
Q 2313 4219 1838 4219 
Q 1578 4219 1281 4162 
Q 984 4106 628 3988 
L 628 4550 
Q 988 4650 1302 4700 
Q 1616 4750 1894 4750 
Q 2613 4750 3031 4423 
Q 3450 4097 3450 3541 
Q 3450 3153 3228 2886 
Q 3006 2619 2597 2516 
z
" transform="scale(0.015625)"/>
       </defs>
       <use xlink:href="#DejaVuSans-33"/>
       <use xlink:href="#DejaVuSans-30" x="63.623047"/>
       <use xlink:href="#DejaVuSans-30" x="127.246094"/>
       <use xlink:href="#DejaVuSans-30" x="190.869141"/>
      </g>
     </g>
    </g>
    <g id="xtick_8">
     <g id="line2d_8">
      <g>
       <use xlink:href="#m63b0310dab" x="563.342188" y="266.112" style="fill: #808080; stroke: #808080; stroke-width: 0.8"/>
      </g>
     </g>
     <g id="text_8">
      <!-- 3500 -->
      <g style="fill: #808080" transform="translate(550.617188 280.710438) scale(0.1 -0.1)">
       <use xlink:href="#DejaVuSans-33"/>
       <use xlink:href="#DejaVuSans-35" x="63.623047"/>
       <use xlink:href="#DejaVuSans-30" x="127.246094"/>
       <use xlink:href="#DejaVuSans-30" x="190.869141"/>
      </g>
     </g>
    </g>
    <g id="xtick_9">
     <g id="line2d_9">
      <g>
       <use xlink:href="#m63b0310dab" x="633.092188" y="266.112" style="fill: #808080; stroke: #808080; stroke-width: 0.8"/>
      </g>
     </g>
     <g id="text_9">
      <!-- 4000 -->
      <g style="fill: #808080" transform="translate(620.367188 280.710438) scale(0.1 -0.1)">
       <defs>
        <path id="DejaVuSans-34" d="M 2419 4116 
L 825 1625 
L 2419 1625 
L 2419 4116 
z
M 2253 4666 
L 3047 4666 
L 3047 1625 
L 3713 1625 
L 3713 1100 
L 3047 1100 
L 3047 0 
L 2419 0 
L 2419 1100 
L 313 1100 
L 313 1709 
L 2253 4666 
z
" transform="scale(0.015625)"/>
       </defs>
       <use xlink:href="#DejaVuSans-34"/>
       <use xlink:href="#DejaVuSans-30" x="63.623047"/>
       <use xlink:href="#DejaVuSans-30" x="127.246094"/>
       <use xlink:href="#DejaVuSans-30" x="190.869141"/>
      </g>
     </g>
    </g>
   </g>
   <g id="matplotlib.axis_2">
    <g id="ytick_1">
     <g id="line2d_10">
      <defs>
       <path id="m9599c7c91b" d="M 0 0 
L -3.5 0 
" style="stroke: #808080; stroke-width: 0.8"/>
      </defs>
      <g>
       <use xlink:href="#m9599c7c91b" x="47.192188" y="232.708439" style="fill: #808080; stroke: #808080; stroke-width: 0.8"/>
      </g>
     </g>
     <g id="text_10">
      <!-- −20000 -->
      <g style="fill: #808080" transform="translate(0 236.507657) scale(0.1 -0.1)">
       <defs>
        <path id="DejaVuSans-2212" d="M 678 2272 
L 4684 2272 
L 4684 1741 
L 678 1741 
L 678 2272 
z
" transform="scale(0.015625)"/>
       </defs>
       <use xlink:href="#DejaVuSans-2212"/>
       <use xlink:href="#DejaVuSans-32" x="83.789062"/>
       <use xlink:href="#DejaVuSans-30" x="147.412109"/>
       <use xlink:href="#DejaVuSans-30" x="211.035156"/>
       <use xlink:href="#DejaVuSans-30" x="274.658203"/>
       <use xlink:href="#DejaVuSans-30" x="338.28125"/>
      </g>
     </g>
    </g>
    <g id="ytick_2">
     <g id="line2d_11">
      <g>
       <use xlink:href="#m9599c7c91b" x="47.192188" y="195.227678" style="fill: #808080; stroke: #808080; stroke-width: 0.8"/>
      </g>
     </g>
     <g id="text_11">
      <!-- −10000 -->
      <g style="fill: #808080" transform="translate(0 199.026897) scale(0.1 -0.1)">
       <use xlink:href="#DejaVuSans-2212"/>
       <use xlink:href="#DejaVuSans-31" x="83.789062"/>
       <use xlink:href="#DejaVuSans-30" x="147.412109"/>
       <use xlink:href="#DejaVuSans-30" x="211.035156"/>
       <use xlink:href="#DejaVuSans-30" x="274.658203"/>
       <use xlink:href="#DejaVuSans-30" x="338.28125"/>
      </g>
     </g>
    </g>
    <g id="ytick_3">
     <g id="line2d_12">
      <g>
       <use xlink:href="#m9599c7c91b" x="47.192188" y="157.746918" style="fill: #808080; stroke: #808080; stroke-width: 0.8"/>
      </g>
     </g>
     <g id="text_12">
      <!-- 0 -->
      <g style="fill: #808080" transform="translate(33.829688 161.546136) scale(0.1 -0.1)">
       <use xlink:href="#DejaVuSans-30"/>
      </g>
     </g>
    </g>
    <g id="ytick_4">
     <g id="line2d_13">
      <g>
       <use xlink:href="#m9599c7c91b" x="47.192188" y="120.266157" style="fill: #808080; stroke: #808080; stroke-width: 0.8"/>
      </g>
     </g>
     <g id="text_13">
      <!-- 10000 -->
      <g style="fill: #808080" transform="translate(8.379688 124.065376) scale(0.1 -0.1)">
       <use xlink:href="#DejaVuSans-31"/>
       <use xlink:href="#DejaVuSans-30" x="63.623047"/>
       <use xlink:href="#DejaVuSans-30" x="127.246094"/>
       <use xlink:href="#DejaVuSans-30" x="190.869141"/>
       <use xlink:href="#DejaVuSans-30" x="254.492188"/>
      </g>
     </g>
    </g>
    <g id="ytick_5">
     <g id="line2d_14">
      <g>
       <use xlink:href="#m9599c7c91b" x="47.192188" y="82.785396" style="fill: #808080; stroke: #808080; stroke-width: 0.8"/>
      </g>
     </g>
     <g id="text_14">
      <!-- 20000 -->
      <g style="fill: #808080" transform="translate(8.379688 86.584615) scale(0.1 -0.1)">
       <use xlink:href="#DejaVuSans-32"/>
       <use xlink:href="#DejaVuSans-30" x="63.623047"/>
       <use xlink:href="#DejaVuSans-30" x="127.246094"/>
       <use xlink:href="#DejaVuSans-30" x="190.869141"/>
       <use xlink:href="#DejaVuSans-30" x="254.492188"/>
      </g>
     </g>
    </g>
    <g id="ytick_6">
     <g id="line2d_15">
      <g>
       <use xlink:href="#m9599c7c91b" x="47.192188" y="45.304636" style="fill: #808080; stroke: #808080; stroke-width: 0.8"/>
      </g>
     </g>
     <g id="text_15">
      <!-- 30000 -->
      <g style="fill: #808080" transform="translate(8.379688 49.103854) scale(0.1 -0.1)">
       <use xlink:href="#DejaVuSans-33"/>
       <use xlink:href="#DejaVuSans-30" x="63.623047"/>
       <use xlink:href="#DejaVuSans-30" x="127.246094"/>
       <use xlink:href="#DejaVuSans-30" x="190.869141"/>
       <use xlink:href="#DejaVuSans-30" x="254.492188"/>
      </g>
     </g>
    </g>
    <g id="ytick_7">
     <g id="line2d_16">
      <g>
       <use xlink:href="#m9599c7c91b" x="47.192188" y="7.823875" style="fill: #808080; stroke: #808080; stroke-width: 0.8"/>
      </g>
     </g>
     <g id="text_16">
      <!-- 40000 -->
      <g style="fill: #808080" transform="translate(8.379688 11.623094) scale(0.1 -0.1)">
       <use xlink:href="#DejaVuSans-34"/>
       <use xlink:href="#DejaVuSans-30" x="63.623047"/>
       <use xlink:href="#DejaVuSans-30" x="127.246094"/>
       <use xlink:href="#DejaVuSans-30" x="190.869141"/>
       <use xlink:href="#DejaVuSans-30" x="254.492188"/>
      </g>
     </g>
    </g>
   </g>
   <g id="line2d_17">
    <path d="M 75.092188 157.766518 
L 75.938069 157.725535 
L 76.783951 157.770188 
L 77.629833 157.721603 
L 78.475715 157.774491 
L 78.757675 157.718532 
L 79.039636 157.776149 
L 79.321596 157.716802 
L 79.603557 157.777959 
L 79.885517 157.714905 
L 80.167478 157.779951 
L 80.449439 157.712809 
L 80.731399 157.782162 
L 81.01336 157.710471 
L 81.29532 157.784639 
L 81.577281 157.70784 
L 81.859242 157.787441 
L 82.141202 157.704848 
L 82.423163 157.790644 
L 82.705123 157.701408 
L 82.987084 157.79435 
L 83.269044 157.697403 
L 83.551005 157.798695 
L 83.832966 157.692672 
L 84.114926 157.803868 
L 84.396887 157.68699 
L 84.678847 157.810139 
L 84.960808 157.680031 
L 85.242769 157.817908 
L 85.524729 157.671299 
L 85.80669 157.827796 
L 86.08865 157.660009 
L 86.370611 157.84081 
L 86.652572 157.644842 
L 86.934532 157.858712 
L 87.216493 157.623397 
L 87.498453 157.884856 
L 87.780414 157.590847 
L 88.062374 157.926424 
L 88.344335 157.536106 
L 88.626296 158.001142 
L 88.908256 157.430727 
L 89.190217 158.142984 
L 89.472177 157.52759 
L 89.754138 185.516769 
L 90.036099 193.593975 
L 90.318059 195.316149 
L 90.60002 199.779533 
L 90.88198 201.100253 
L 91.163941 200.325404 
L 91.727862 189.000589 
L 92.009823 181.454104 
L 92.291783 169.784214 
L 93.419626 91.475206 
L 93.983547 70.363156 
L 94.265507 63.348422 
L 94.547468 61.61668 
L 94.829429 65.550275 
L 95.111389 75.853318 
L 95.957271 129.175413 
L 96.803153 176.216351 
L 97.085113 182.983887 
L 97.367074 184.771968 
L 97.649034 185.60138 
L 97.930995 187.200442 
L 98.212956 187.124563 
L 99.340798 178.53252 
L 99.904719 176.784783 
L 100.18668 174.807108 
L 100.46864 172.020167 
L 100.750601 170.35162 
L 101.032561 169.984797 
L 101.314522 170.293115 
L 101.596483 170.874591 
L 101.878443 171.828218 
L 102.160404 171.721519 
L 102.724325 169.66094 
L 103.288246 171.681311 
L 103.570207 171.855854 
L 103.852167 171.633031 
L 104.134128 171.909833 
L 104.416088 172.596685 
L 104.698049 174.297663 
L 105.26197 178.727386 
L 105.543931 179.149729 
L 105.825891 179.336999 
L 106.107852 180.254304 
L 106.671773 184.114993 
L 107.517655 193.225647 
L 108.363537 198.129465 
L 108.645497 197.536171 
L 108.927458 193.536998 
L 109.209418 184.947434 
L 109.77334 150.614089 
L 110.619221 82.898307 
L 111.183143 62.911164 
L 111.465103 57.530673 
L 111.747064 55.563709 
L 112.029024 60.448881 
L 112.592945 85.622101 
L 113.156867 119.955439 
L 113.720788 157.064731 
L 114.002748 168.111055 
L 114.56667 179.229424 
L 114.84863 181.87575 
L 115.130591 182.620553 
L 115.412551 182.258178 
L 115.976472 179.948183 
L 117.386275 172.543959 
L 117.950197 170.789358 
L 118.232157 169.934224 
L 118.514118 169.561845 
L 119.078039 169.350801 
L 119.36 169.823974 
L 119.923921 171.353854 
L 120.205881 171.818738 
L 120.487842 173.518099 
L 121.051763 178.483671 
L 121.615684 179.817558 
L 122.179605 183.923036 
L 122.461566 184.192028 
L 122.743527 183.355876 
L 123.025487 183.864054 
L 124.153329 195.796918 
L 124.999211 204.558517 
L 125.281172 206.635587 
L 125.563132 207.794914 
L 125.845093 207.452113 
L 126.127054 204.637233 
L 126.409014 196.306305 
L 126.690975 179.709096 
L 128.100778 71.703897 
L 128.664699 49.911231 
L 128.946659 46.664724 
L 129.22862 48.476658 
L 129.510581 55.470876 
L 130.074502 82.11502 
L 131.202344 147.630196 
L 131.484305 156.304173 
L 131.766265 160.734525 
L 132.330186 165.001565 
L 132.894108 170.654615 
L 133.176068 171.992587 
L 133.458029 172.651502 
L 133.739989 172.847707 
L 134.02195 172.40446 
L 134.585871 170.499114 
L 134.867832 170.882478 
L 135.431753 174.804257 
L 135.713714 174.930644 
L 135.995674 174.196103 
L 136.277635 175.132748 
L 136.841556 179.017619 
L 137.123516 178.970838 
L 137.405477 179.088504 
L 137.687438 179.696924 
L 137.969398 179.785263 
L 138.251359 179.533175 
L 138.533319 180.15476 
L 139.097241 182.202363 
L 139.661162 182.773767 
L 139.943122 182.589557 
L 140.225083 181.829064 
L 140.507043 181.801955 
L 140.789004 183.801079 
L 141.352925 188.619015 
L 141.634886 190.390488 
L 141.916846 194.859042 
L 142.480768 205.714241 
L 142.762728 204.630704 
L 143.326649 195.797002 
L 143.60861 185.544098 
L 144.172531 139.011778 
L 144.736452 90.030448 
L 145.300373 59.274032 
L 145.582334 51.171032 
L 145.864295 48.349623 
L 146.146255 50.964336 
L 146.428216 59.01729 
L 146.992137 89.150707 
L 148.119979 164.37845 
L 148.40194 174.228054 
L 148.6839 178.842337 
L 148.965861 179.601344 
L 149.247822 179.850297 
L 149.811743 182.018756 
L 150.093703 180.827828 
L 150.375664 179.022964 
L 150.939585 176.943793 
L 151.503506 173.498111 
L 151.785467 173.490879 
L 152.067428 174.008639 
L 152.349388 173.549778 
L 152.631349 172.633228 
L 152.913309 172.902209 
L 153.19527 174.44392 
L 153.47723 175.30751 
L 154.041152 173.663247 
L 154.323112 174.466663 
L 154.605073 175.646221 
L 154.887033 175.018451 
L 155.168994 173.302587 
L 155.450955 173.15402 
L 156.014876 176.40712 
L 156.296836 177.307344 
L 156.578797 178.703279 
L 157.424679 185.11764 
L 157.9886 190.904776 
L 158.552521 193.685999 
L 159.398403 200.79516 
L 159.680363 200.737381 
L 159.962324 198.772072 
L 160.244285 193.22246 
L 160.526245 181.383023 
L 162.499969 54.489565 
L 162.78193 51.116218 
L 163.06389 54.631398 
L 163.627812 67.958531 
L 163.909772 80.350454 
L 165.037614 151.040672 
L 165.601536 171.893697 
L 165.883496 176.921673 
L 166.165457 177.031724 
L 166.447417 175.918667 
L 166.729378 176.181197 
L 167.011339 176.709148 
L 167.57526 175.812188 
L 168.421142 176.307896 
L 168.703102 176.40799 
L 168.985063 176.226511 
L 169.267023 175.433449 
L 169.548984 175.113042 
L 170.112905 177.38237 
L 170.394866 177.703138 
L 170.676826 177.793739 
L 170.958787 178.79275 
L 171.240747 180.28386 
L 171.522708 181.030285 
L 172.086629 180.7075 
L 172.36859 181.223551 
L 173.214471 184.865244 
L 174.060353 189.643335 
L 174.624274 194.762789 
L 174.906235 197.228403 
L 175.470156 199.454841 
L 176.316038 205.820417 
L 176.597999 204.685866 
L 176.879959 200.547865 
L 177.16192 191.22918 
L 177.44388 174.113813 
L 178.853683 57.639534 
L 179.135644 43.357393 
L 179.417604 36.431561 
L 179.699565 35.67091 
L 179.981526 38.339981 
L 180.263486 44.063015 
L 180.545447 54.170464 
L 181.109368 87.781795 
L 181.95525 151.618534 
L 182.519171 173.340405 
L 183.083092 183.57959 
L 183.365053 185.728491 
L 183.647013 185.46957 
L 183.928974 184.438342 
L 184.210934 183.894397 
L 184.492895 182.896616 
L 185.620737 172.567388 
L 186.466619 170.223635 
L 186.74858 170.657026 
L 187.594461 172.904103 
L 187.876422 173.795395 
L 188.158383 174.179193 
L 188.440343 174.859799 
L 188.722304 177.279159 
L 189.286225 184.116748 
L 189.850146 187.53338 
L 190.414067 192.131458 
L 190.696028 191.974077 
L 190.977988 191.168783 
L 191.259949 192.546799 
L 192.105831 203.032318 
L 193.233673 214.445784 
L 193.515634 216.031644 
L 193.797594 215.917054 
L 194.079555 210.933404 
L 194.361515 199.047148 
L 194.925437 156.734532 
L 196.053279 60.288619 
L 196.6172 35.510971 
L 196.899161 31.518938 
L 197.181121 32.660283 
L 197.463082 38.603942 
L 198.027003 62.665311 
L 198.590924 98.905752 
L 199.436806 156.153495 
L 199.718767 166.195323 
L 200.000727 172.040919 
L 200.282688 175.376344 
L 200.564648 177.301554 
L 200.846609 178.352415 
L 201.12857 178.678094 
L 201.41053 178.34645 
L 201.974451 176.808675 
L 202.256412 175.082496 
L 202.820333 169.141929 
L 203.102294 167.75154 
L 203.384254 167.414642 
L 203.948175 165.883919 
L 204.230136 166.801626 
L 204.512097 168.996628 
L 204.794057 170.243375 
L 205.357978 169.41871 
L 205.639939 170.491299 
L 206.20386 174.36215 
L 206.767781 177.384055 
L 207.331702 182.341107 
L 207.613663 184.10552 
L 207.895624 186.873097 
L 209.587387 216.229823 
L 209.869348 218.913929 
L 210.151308 219.860626 
L 210.715229 219.381533 
L 210.99719 218.919172 
L 211.279151 215.072399 
L 211.561111 202.946143 
L 212.125032 155.740112 
L 213.252875 60.806416 
L 213.534835 48.423235 
L 213.816796 41.871733 
L 214.098756 38.9576 
L 214.380717 39.151267 
L 214.662678 42.522583 
L 214.944638 48.942617 
L 215.226599 59.003714 
L 215.79052 91.790317 
L 216.636402 148.635136 
L 216.918362 159.000835 
L 217.200323 164.224901 
L 217.482284 166.87498 
L 217.764244 168.164563 
L 218.046205 168.132078 
L 218.610126 166.698908 
L 218.892086 165.487394 
L 219.456008 161.283557 
L 219.737968 160.473598 
L 220.019929 161.57486 
L 220.301889 163.682511 
L 220.58385 164.948264 
L 220.865811 165.301668 
L 221.147771 167.328363 
L 221.711692 174.548945 
L 221.993653 172.694244 
L 222.275613 169.885276 
L 222.557574 171.091049 
L 222.839535 174.735975 
L 223.121495 176.403176 
L 223.403456 177.054617 
L 223.685416 181.024966 
L 224.249338 194.414577 
L 225.659141 210.791809 
L 226.223062 210.060401 
L 226.505022 211.818414 
L 227.350904 220.28196 
L 227.914825 225.43968 
L 228.196786 225.717274 
L 228.478746 221.101124 
L 228.760707 209.185924 
L 229.324628 163.944018 
L 230.45247 62.953546 
L 230.734431 48.69319 
L 231.016392 41.436445 
L 231.298352 38.168506 
L 231.580313 37.162143 
L 231.862273 38.936073 
L 232.144234 44.204018 
L 232.426195 53.483739 
L 232.708155 68.05087 
L 233.835998 145.92536 
L 234.399919 159.501137 
L 234.681879 162.827738 
L 234.96384 163.780547 
L 235.2458 163.941006 
L 236.937564 170.096728 
L 237.219525 170.078536 
L 237.501485 171.484697 
L 237.783446 174.02227 
L 238.065406 175.229253 
L 238.347367 174.889996 
L 238.629327 175.044518 
L 238.911288 175.865325 
L 239.193249 176.18051 
L 239.475209 177.222044 
L 240.321091 187.258896 
L 240.603052 187.587543 
L 240.885012 189.292136 
L 241.166973 191.945253 
L 241.448933 192.870838 
L 241.730894 192.58435 
L 242.012855 194.072002 
L 242.576776 200.900712 
L 243.140697 205.944757 
L 244.5505 225.037217 
L 244.83246 226.655208 
L 245.114421 226.555916 
L 245.396382 224.036271 
L 245.678342 215.69193 
L 245.960303 198.199391 
L 247.652066 49.832741 
L 248.215987 34.436152 
L 248.497948 29.746362 
L 248.779909 28.413874 
L 249.061869 32.698637 
L 249.62579 55.087103 
L 250.189712 95.486022 
L 250.753633 141.451283 
L 251.317554 165.755764 
L 251.599514 171.181099 
L 251.881475 173.048982 
L 252.163436 173.595352 
L 252.727357 176.824094 
L 253.009317 176.916726 
L 253.291278 175.987022 
L 253.855199 175.48795 
L 254.41912 172.554738 
L 254.701081 172.099515 
L 254.983041 170.93161 
L 255.546963 164.633691 
L 255.828923 165.719632 
L 256.392844 172.551702 
L 256.674805 174.429439 
L 256.956766 177.638149 
L 257.520687 186.278464 
L 258.084608 191.804312 
L 259.776371 213.89929 
L 260.622253 229.823207 
L 261.468135 237.397968 
L 261.750096 238.603275 
L 262.032056 237.683639 
L 262.314017 232.726666 
L 262.595977 220.695133 
L 263.159898 172.218409 
L 264.00578 82.43672 
L 264.569701 47.466179 
L 265.133623 27.324634 
L 265.415583 24.258663 
L 265.697544 25.476945 
L 265.979504 29.219816 
L 266.261465 36.230443 
L 266.825386 64.337192 
L 267.389307 108.725364 
L 267.953228 155.812343 
L 268.235189 171.041978 
L 268.51715 179.450123 
L 268.79911 181.804027 
L 269.081071 179.591596 
L 269.644992 169.764309 
L 270.208913 158.101479 
L 270.490874 154.511548 
L 271.054795 150.508331 
L 271.336755 149.712975 
L 271.618716 151.069234 
L 272.182637 154.452676 
L 272.464598 157.931377 
L 273.31048 176.693692 
L 273.59244 179.239492 
L 274.156361 189.716571 
L 274.720282 198.867093 
L 275.848125 214.746715 
L 276.130085 217.766719 
L 276.412046 219.051373 
L 276.694007 219.116822 
L 276.975967 220.512365 
L 277.539888 228.808068 
L 278.38577 243.150982 
L 278.667731 244.030797 
L 278.949691 243.353283 
L 279.231652 243.372979 
L 279.513612 239.670514 
L 279.795573 224.526775 
L 280.641455 135.08017 
L 281.487337 48.275056 
L 281.769297 33.100528 
L 282.051258 24.687186 
L 282.333218 19.619474 
L 282.615179 17.452322 
L 282.897139 18.545771 
L 283.1791 22.499624 
L 283.461061 29.793049 
L 284.024982 58.513169 
L 285.716745 172.516507 
L 285.998706 178.453953 
L 286.280667 182.007865 
L 286.562627 184.077334 
L 286.844588 184.679347 
L 287.408509 183.821344 
L 287.690469 183.956428 
L 287.97243 183.366371 
L 288.818312 175.606155 
L 289.100272 175.415642 
L 289.382233 174.756969 
L 289.664194 173.725466 
L 289.946154 173.858073 
L 290.228115 174.56728 
L 290.510075 174.435159 
L 290.792036 174.579579 
L 291.637918 181.326745 
L 291.919878 183.848366 
L 294.175563 218.40162 
L 294.739484 230.172665 
L 295.585366 241.203416 
L 295.867326 242.999648 
L 296.149287 243.606275 
L 296.431248 242.31573 
L 296.713208 234.656119 
L 296.995169 216.41411 
L 297.55909 154.292702 
L 298.404972 60.582172 
L 298.968893 34.401213 
L 299.532814 18.607075 
L 299.814775 13.283113 
L 300.096735 12.096 
L 300.378696 14.924019 
L 300.660656 20.283434 
L 300.942617 27.977108 
L 301.224578 39.778889 
L 301.788499 78.625991 
L 302.634381 145.593554 
L 302.916341 158.050418 
L 303.480262 170.537039 
L 304.044183 180.409739 
L 304.326144 183.426866 
L 304.608105 184.461977 
L 304.890065 183.777822 
L 306.017908 177.422819 
L 306.299868 177.886473 
L 306.863789 181.543604 
L 308.273592 194.026087 
L 309.119474 205.300276 
L 309.401435 208.025174 
L 309.683395 208.855381 
L 309.965356 207.989266 
L 310.247316 208.075934 
L 310.811238 212.513417 
L 311.093198 212.541826 
L 311.375159 212.880226 
L 312.503001 225.069804 
L 313.066922 230.811364 
L 313.348883 231.643567 
L 313.630843 228.9604 
L 313.912804 221.463116 
L 314.194765 206.129572 
L 314.758686 149.054749 
L 315.604567 54.528896 
L 315.886528 34.514088 
L 316.168489 24.197465 
L 316.450449 21.013412 
L 316.73241 20.51301 
L 317.01437 21.243546 
L 317.296331 24.903823 
L 317.860252 43.121406 
L 318.424173 69.721375 
L 318.988095 105.620485 
L 319.833976 168.229013 
L 320.115937 180.388132 
L 320.397897 186.32871 
L 321.243779 193.916073 
L 321.52574 195.692647 
L 321.8077 196.105399 
L 322.089661 195.880729 
L 322.371622 196.01869 
L 322.935543 196.935531 
L 323.217503 196.357973 
L 323.499464 194.242436 
L 324.627306 179.148642 
L 324.909267 179.325378 
L 325.191227 177.817507 
L 325.755149 172.145105 
L 326.037109 173.554747 
L 326.31907 176.300895 
L 326.882991 179.547946 
L 329.702597 227.430673 
L 329.984557 230.613632 
L 330.266518 231.829491 
L 330.548479 231.096746 
L 330.830439 225.395471 
L 331.1124 210.492601 
L 331.676321 152.128827 
L 332.522203 54.409505 
L 332.804163 41.377858 
L 333.086124 35.471959 
L 333.368084 31.918866 
L 333.650045 30.549345 
L 333.932006 32.263208 
L 334.213966 36.134291 
L 334.495927 41.612508 
L 335.059848 60.22911 
L 335.623769 90.670683 
L 336.751611 165.040585 
L 337.033572 177.09646 
L 337.315533 183.891959 
L 337.879454 190.081767 
L 338.161414 191.343839 
L 338.443375 190.326684 
L 338.725336 188.686292 
L 339.007296 187.832885 
L 339.289257 186.331768 
L 339.853178 181.381775 
L 340.135138 181.799557 
L 340.417099 182.595393 
L 340.69906 181.521703 
L 340.98102 179.403216 
L 341.262981 178.271933 
L 341.544941 178.592336 
L 341.826902 179.732216 
L 342.108863 181.432491 
L 342.954744 188.465352 
L 343.518666 191.157665 
L 344.364547 200.526871 
L 344.646508 205.092456 
L 345.49239 226.071286 
L 346.056311 235.659588 
L 346.338271 241.243071 
L 346.620232 242.826052 
L 347.184153 239.07526 
L 347.466114 238.498077 
L 347.748074 231.739571 
L 348.030035 212.807821 
L 348.593956 148.056632 
L 349.439838 47.742122 
L 349.721798 34.697579 
L 350.003759 30.139725 
L 350.28572 27.805919 
L 350.56768 26.61179 
L 350.849641 27.71493 
L 351.131601 30.489441 
L 351.413562 34.712926 
L 351.977483 51.051819 
L 352.541404 75.729628 
L 353.669247 141.171163 
L 354.233168 169.620068 
L 354.515128 174.958535 
L 355.07905 173.467147 
L 355.36101 174.280022 
L 355.642971 173.586009 
L 355.924931 171.400606 
L 356.206892 171.840886 
L 357.052774 185.742506 
L 357.334734 185.601138 
L 357.616695 186.128965 
L 358.180616 190.343221 
L 358.462577 189.764597 
L 358.744537 189.615701 
L 359.026498 192.388476 
L 359.590419 199.160719 
L 360.718261 205.305914 
L 361.000222 206.100377 
L 361.564143 206.711645 
L 361.846104 207.748354 
L 362.410025 210.346466 
L 362.691985 211.387406 
L 362.973946 214.116454 
L 364.101788 231.824586 
L 364.383749 233.632806 
L 364.665709 230.049964 
L 364.94767 218.83492 
L 365.229631 196.613135 
L 366.357473 58.649978 
L 366.639434 46.530558 
L 366.921394 39.763573 
L 367.203355 36.4567 
L 367.485315 37.111458 
L 367.767276 39.643181 
L 368.049237 40.911286 
L 368.331197 41.598094 
L 368.613158 45.092688 
L 369.177079 61.460255 
L 369.741 84.403104 
L 371.150803 160.37085 
L 371.714724 177.006062 
L 371.996685 182.410367 
L 372.278645 185.1899 
L 372.560606 185.699803 
L 372.842566 186.732737 
L 373.124527 189.170295 
L 373.406488 190.619563 
L 373.688448 190.107316 
L 373.970409 189.989616 
L 374.53433 192.603266 
L 374.816291 192.75757 
L 375.380212 193.341056 
L 375.662172 191.976738 
L 376.226094 186.443831 
L 376.508054 185.66916 
L 376.790015 185.82147 
L 377.071975 185.819548 
L 377.353936 185.935406 
L 377.635896 187.464474 
L 379.609621 213.784952 
L 380.173542 223.586344 
L 381.019423 241.031511 
L 381.301384 245.229529 
L 381.583345 244.349965 
L 381.865305 235.248616 
L 382.147266 217.221149 
L 382.711187 150.062404 
L 383.275108 72.480825 
L 383.557069 52.026889 
L 384.12099 34.434505 
L 384.402951 30.972059 
L 384.684911 31.675137 
L 385.248832 38.126456 
L 385.530793 43.10114 
L 386.094714 61.70133 
L 386.940596 100.241133 
L 387.786478 142.184458 
L 388.91432 180.337671 
L 389.19628 180.684476 
L 389.478241 178.870917 
L 389.760202 178.094865 
L 390.042162 178.154269 
L 390.324123 177.93879 
L 390.606083 177.116059 
L 391.170005 173.642793 
L 391.451965 173.459356 
L 392.015886 178.078345 
L 392.579808 180.006047 
L 393.143729 183.156802 
L 393.425689 183.849337 
L 393.70765 185.661658 
L 394.835492 199.615819 
L 395.117453 204.665327 
L 395.399413 206.843537 
L 395.681374 206.950713 
L 395.963335 209.157774 
L 396.809216 223.917702 
L 397.655098 233.374877 
L 398.50098 238.169396 
L 398.78294 236.736914 
L 399.064901 228.042323 
L 399.346862 208.664412 
L 399.910783 136.603261 
L 400.474704 65.366635 
L 400.756665 47.56994 
L 401.320586 32.153657 
L 401.602546 29.302447 
L 401.884507 30.539274 
L 402.730389 42.773933 
L 403.012349 48.683568 
L 403.57627 71.798801 
L 405.549994 162.90448 
L 405.831955 169.677017 
L 406.395876 175.577584 
L 406.959797 180.493918 
L 407.241758 180.146703 
L 407.523719 178.834161 
L 407.805679 178.839537 
L 408.651561 183.241944 
L 409.215482 182.148837 
L 409.497443 182.597794 
L 410.061364 184.520417 
L 410.343324 186.075804 
L 410.907246 190.480253 
L 411.189206 191.672805 
L 411.471167 193.77024 
L 412.035088 199.104439 
L 412.317049 199.946323 
L 412.599009 202.145665 
L 413.16293 209.813873 
L 413.444891 212.827012 
L 413.726851 218.625819 
L 414.290773 234.871085 
L 414.854694 245.067638 
L 415.136654 251.559721 
L 415.418615 254.016 
L 415.700576 248.045986 
L 415.982536 233.287657 
L 416.264497 208.910315 
L 417.392339 68.380115 
L 417.6743 57.962708 
L 418.238221 47.343589 
L 418.520181 44.212371 
L 418.802142 45.401558 
L 419.648024 57.132677 
L 420.211945 74.935049 
L 422.74959 157.060094 
L 423.313511 161.434121 
L 423.877433 168.656026 
L 424.159393 169.843053 
L 424.441354 171.765397 
L 425.005275 180.261782 
L 425.287236 182.463916 
L 425.851157 184.518709 
L 426.133117 185.626748 
L 426.415078 186.021011 
L 426.697038 186.611935 
L 427.26096 191.400054 
L 428.106841 198.804501 
L 428.388802 201.992768 
L 428.670763 203.409864 
L 428.952723 204.245205 
L 429.234684 207.340884 
L 429.798605 216.560872 
L 430.362526 225.039154 
L 430.926447 235.396101 
L 431.772329 247.840954 
L 432.05429 247.867011 
L 432.33625 244.264469 
L 432.618211 234.372612 
L 432.900171 212.000097 
L 434.028014 71.294933 
L 434.309974 58.22597 
L 434.873895 46.071821 
L 435.155856 43.809744 
L 435.437817 44.457464 
L 435.719777 47.502963 
L 436.283698 57.842318 
L 436.84762 72.645276 
L 437.693501 100.860838 
L 438.539383 131.207164 
L 439.103304 145.924231 
L 439.667225 154.494017 
L 440.231147 159.221424 
L 440.513107 160.685767 
L 440.795068 161.289062 
L 441.077028 162.265269 
L 441.64095 166.327698 
L 441.92291 169.045707 
L 442.486831 177.71353 
L 444.742516 221.068164 
L 445.306437 228.667902 
L 446.434279 245.771385 
L 446.71624 245.863373 
L 446.998201 244.58945 
L 447.280161 241.597788 
L 448.689964 212.433733 
L 448.971925 209.394213 
L 449.253885 204.860713 
L 449.535846 194.668192 
L 449.817806 175.097667 
L 450.381728 106.844614 
L 450.945649 40.722375 
L 451.227609 27.619201 
L 451.50957 24.199521 
L 451.791531 23.438039 
L 452.073491 23.393468 
L 452.355452 25.370318 
L 452.637412 29.646687 
L 453.201334 43.23246 
L 453.765255 61.763502 
L 455.738979 140.572469 
L 456.020939 146.254232 
L 456.3029 146.932226 
L 456.584861 147.101759 
L 457.712703 155.723873 
L 457.994663 158.367876 
L 458.558585 160.691345 
L 458.840545 163.62373 
L 459.404466 171.36615 
L 459.686427 174.679016 
L 460.532309 189.824125 
L 461.09623 196.791324 
L 461.660151 206.422048 
L 462.506033 218.014784 
L 463.069954 226.087531 
L 463.915836 233.817488 
L 464.479757 237.723405 
L 465.043678 242.913736 
L 466.17152 249.413907 
L 466.453481 246.967582 
L 466.735442 237.758365 
L 467.017402 216.55647 
L 468.145245 78.337579 
L 468.427205 67.610352 
L 468.709166 61.618134 
L 468.991126 58.047043 
L 469.273087 57.018249 
L 469.555048 56.756991 
L 469.837008 56.128029 
L 470.118969 57.505469 
L 470.68289 70.798739 
L 471.246811 87.092566 
L 472.092693 122.983664 
L 472.656614 138.733834 
L 473.220535 155.244741 
L 473.784456 163.079069 
L 474.066417 165.956836 
L 474.348377 166.821146 
L 475.47622 162.296248 
L 475.75818 161.169392 
L 476.040141 160.534463 
L 476.886023 159.435581 
L 477.167983 158.523622 
L 477.449944 156.799897 
L 477.731905 155.790917 
L 478.013865 157.692061 
L 478.577786 165.973673 
L 478.859747 168.566995 
L 479.141707 172.812551 
L 479.987589 194.880831 
L 480.55151 202.572867 
L 481.679353 224.667569 
L 482.243274 234.222608 
L 483.371116 249.216055 
L 483.653077 250.028674 
L 483.935037 244.252334 
L 484.216998 226.606669 
L 484.780919 154.447045 
L 485.34484 94.0206 
L 485.626801 81.211923 
L 485.908762 74.289967 
L 486.190722 70.176471 
L 486.472683 68.526533 
L 486.754643 69.078564 
L 487.318564 72.762902 
L 487.600525 76.009618 
L 488.164446 89.757492 
L 489.010328 116.584305 
L 489.574249 138.627478 
L 490.420131 155.757367 
L 490.702091 159.696019 
L 490.984052 159.430681 
L 492.393855 143.955639 
L 492.675816 142.565631 
L 492.957776 142.500917 
L 493.239737 142.566219 
L 493.521697 142.764026 
L 493.803658 144.092226 
L 494.64954 152.040548 
L 496.059343 178.266836 
L 496.623264 192.075218 
L 497.469146 207.250029 
L 498.315027 222.290455 
L 498.878948 231.041168 
L 499.160909 232.647568 
L 499.44287 235.069511 
L 500.006791 245.883365 
L 500.288751 248.23895 
L 500.570712 246.22918 
L 500.852673 237.917171 
L 501.134633 218.260166 
L 502.262476 98.014404 
L 502.826397 79.934364 
L 503.108357 75.756294 
L 503.390318 74.816878 
L 503.672278 76.525745 
L 504.2362 81.944683 
L 504.51816 86.003409 
L 505.082081 100.302924 
L 507.055805 151.143476 
L 507.337766 155.112758 
L 507.619727 156.231362 
L 507.901687 155.745673 
L 508.183648 155.969474 
L 509.02953 159.99873 
L 509.31149 160.659064 
L 509.593451 160.811175 
L 510.157372 160.73733 
L 510.439333 159.753078 
L 511.003254 155.354766 
L 511.285214 155.426017 
L 512.131096 160.57704 
L 512.976978 169.266372 
L 513.540899 176.546017 
L 514.950702 199.510932 
L 515.514623 213.912313 
L 516.078544 227.505135 
L 516.642465 238.624557 
L 516.924426 244.36053 
L 517.206387 247.373422 
L 517.488347 246.864997 
L 517.770308 240.001548 
L 518.052268 221.194874 
L 518.89815 130.527666 
L 519.180111 114.958059 
L 519.744032 99.337079 
L 520.307953 92.598353 
L 520.871874 86.680835 
L 521.153835 84.944543 
L 521.435795 84.543595 
L 521.717756 85.416749 
L 521.999717 88.48618 
L 522.563638 103.963643 
L 523.127559 117.728624 
L 523.973441 133.085203 
L 524.255401 133.724301 
L 524.537362 133.023645 
L 524.819322 134.528374 
L 525.101283 136.955314 
L 525.383244 137.373646 
L 525.665204 137.281001 
L 525.947165 139.571174 
L 526.511086 145.443648 
L 527.075007 147.595512 
L 527.638928 151.360106 
L 531.304416 196.968832 
L 531.586376 201.42036 
L 531.868337 203.418044 
L 532.150298 203.948824 
L 532.432258 205.209978 
L 533.560101 214.137719 
L 534.124022 222.706083 
L 534.405982 224.78263 
L 534.687943 224.261098 
L 534.969904 215.699896 
L 535.251864 193.425631 
L 535.815785 133.749034 
L 536.097746 117.65212 
L 536.661667 103.870141 
L 536.943628 99.545996 
L 537.225588 98.607659 
L 537.507549 99.24757 
L 537.789509 98.479802 
L 538.07147 97.015109 
L 538.353431 97.379146 
L 538.917352 102.585484 
L 539.199312 105.905636 
L 539.481273 111.871965 
L 540.609115 146.456785 
L 541.173036 155.108821 
L 541.454997 156.962116 
L 541.736958 156.660781 
L 542.300879 154.083676 
L 542.582839 154.677302 
L 543.992642 164.485046 
L 544.274603 165.986658 
L 544.556563 166.541472 
L 544.838524 167.806278 
L 545.120485 171.31572 
L 545.966366 186.523071 
L 546.248327 189.497164 
L 546.530288 189.088253 
L 547.094209 179.264028 
L 547.65813 171.495349 
L 548.504012 164.741885 
L 548.785972 164.161353 
L 549.067933 164.918247 
L 549.349893 166.151537 
L 549.631854 167.9727 
L 549.913815 171.271105 
L 550.477736 182.108076 
L 551.605578 210.487054 
L 551.887539 214.510554 
L 552.169499 209.678453 
L 553.579302 124.968719 
L 553.861263 114.157741 
L 554.143223 108.930399 
L 554.425184 108.270457 
L 554.707145 107.312113 
L 554.989105 105.893874 
L 555.271066 107.631996 
L 556.116947 121.412151 
L 556.398908 124.562303 
L 556.962829 136.859554 
L 558.090672 163.559688 
L 558.936553 172.722731 
L 559.218514 172.519065 
L 560.064396 156.412166 
L 560.346356 154.965831 
L 560.910277 150.715037 
L 561.192238 150.356473 
L 561.756159 151.565617 
L 562.03812 151.49519 
L 562.32008 149.960072 
L 562.602041 147.345367 
L 562.884002 146.668235 
L 563.165962 150.022717 
L 564.011844 165.131013 
L 564.293804 167.980094 
L 564.575765 169.51605 
L 564.857726 169.441508 
L 565.421647 167.782238 
L 565.703607 168.774212 
L 566.267529 173.961839 
L 566.549489 177.34732 
L 567.677332 195.30856 
L 567.959292 196.068187 
L 568.523213 195.78484 
L 568.805174 195.715395 
L 569.087134 192.437658 
L 569.369095 181.128512 
L 570.214977 125.168248 
L 570.778898 105.954298 
L 571.060859 100.629004 
L 571.342819 98.112692 
L 571.62478 98.068147 
L 571.90674 100.208996 
L 573.034583 117.141207 
L 573.598504 127.991808 
L 574.726346 157.143018 
L 575.290267 168.106478 
L 575.572228 169.788174 
L 575.854189 170.12882 
L 576.136149 171.080316 
L 576.41811 171.412034 
L 576.70007 169.135408 
L 577.263991 163.155993 
L 577.545952 160.546921 
L 578.109873 152.762143 
L 578.391834 151.874318 
L 579.801637 156.170467 
L 580.083597 156.220675 
L 580.365558 157.489975 
L 581.4934 169.403594 
L 582.339282 174.973164 
L 582.903203 179.780037 
L 583.185164 181.703518 
L 584.313006 192.740756 
L 585.158888 208.451349 
L 585.440848 210.409643 
L 585.722809 211.068848 
L 586.00477 207.323416 
L 586.568691 181.91927 
L 587.414573 144.375255 
L 587.978494 128.268809 
L 588.824375 115.296674 
L 589.106336 113.813071 
L 589.388297 114.61202 
L 589.952218 119.005064 
L 590.516139 124.690818 
L 591.08006 134.629535 
L 591.643981 145.106986 
L 592.489863 153.053087 
L 592.771824 155.281313 
L 593.053784 155.831465 
L 593.617705 154.26208 
L 593.899666 154.1989 
L 594.745548 155.083878 
L 595.309469 156.407818 
L 596.155351 158.809204 
L 596.719272 164.141107 
L 597.001232 164.942382 
L 597.283193 164.876397 
L 597.565154 166.236872 
L 597.847114 168.56638 
L 598.129075 169.217987 
L 598.692996 167.21251 
L 598.974957 167.935813 
L 599.256917 169.054217 
L 599.538878 169.479623 
L 599.820838 169.652198 
L 600.102799 171.658233 
L 600.948681 187.262837 
L 601.512602 192.163147 
L 602.076523 199.297717 
L 602.640444 203.745655 
L 602.922405 201.938451 
L 603.204365 194.092179 
L 604.050247 154.350717 
L 604.614168 127.237268 
L 604.896129 120.256646 
L 605.46005 114.334919 
L 605.742011 113.206879 
L 606.023971 113.304351 
L 606.305932 113.944485 
L 606.587892 115.401645 
L 607.715735 129.19521 
L 608.279656 141.836786 
L 608.843577 151.894216 
L 609.689459 159.915603 
L 609.971419 159.672819 
L 610.535341 156.828844 
L 610.817301 157.22461 
L 611.099262 157.915333 
L 611.381222 158.213343 
L 611.663183 158.143968 
L 611.945144 158.201055 
L 612.227104 158.750904 
L 612.791025 160.430303 
L 613.072986 160.799682 
L 613.354946 162.298667 
L 613.918868 167.647565 
L 614.200828 168.160067 
L 614.482789 168.006587 
L 614.764749 168.578217 
L 616.174552 172.818508 
L 616.456513 174.452789 
L 617.020434 178.841957 
L 617.302395 180.411689 
L 617.584355 183.018838 
L 618.712198 196.625347 
L 619.558079 202.769729 
L 620.122001 209.487024 
L 620.403961 205.41874 
L 620.967882 176.057604 
L 621.531803 146.557192 
L 622.095725 124.361766 
L 622.377685 117.565405 
L 622.659646 114.90213 
L 623.223567 113.323277 
L 623.505528 113.382779 
L 623.787488 115.545866 
L 624.915331 128.960187 
L 626.325133 153.78349 
L 626.607094 156.78251 
L 626.889055 156.018779 
L 627.171015 152.56857 
L 628.016897 139.144673 
L 628.862779 133.188149 
L 629.144739 132.652979 
L 629.4267 135.269702 
L 629.990621 142.678346 
L 630.554542 147.327348 
L 631.400424 156.438433 
L 632.810227 173.147196 
L 633.092188 173.339831 
L 633.092188 173.339831 
" clip-path="url(#p0a736f958c)" style="fill: none; stroke: #1f77b4; stroke-width: 1.5; stroke-linecap: square"/>
   </g>
   <g id="patch_3">
    <path d="M 47.192188 266.112 
L 47.192188 0 
" style="fill: none; stroke: #808080; stroke-width: 0.8; stroke-linejoin: miter; stroke-linecap: square"/>
   </g>
   <g id="patch_4">
    <path d="M 660.992188 266.112 
L 660.992188 0 
" style="fill: none; stroke: #000000; stroke-width: 0.8; stroke-linejoin: miter; stroke-linecap: square"/>
   </g>
   <g id="patch_5">
    <path d="M 47.192188 266.112 
L 660.992188 266.112 
" style="fill: none; stroke: #808080; stroke-width: 0.8; stroke-linejoin: miter; stroke-linecap: square"/>
   </g>
   <g id="patch_6">
    <path d="M 47.192188 0 
L 660.992188 0 
" style="fill: none; stroke: #000000; stroke-width: 0.8; stroke-linejoin: miter; stroke-linecap: square"/>
   </g>
  </g>
 </g>
 <defs>
  <clipPath id="p0a736f958c">
   <rect x="47.192188" y="0" width="613.8" height="266.112"/>
  </clipPath>
 </defs>
</svg>
