<svg xmlns="http://www.w3.org/2000/svg" xmlns:xlink="http://www.w3.org/1999/xlink" width="913.477" height="377.053" viewBox="0 0 685.107 282.79"><defs><style>*{stroke-linejoin:round;stroke-linecap:butt}</style></defs><g id="figure_1"><path id="patch_1" d="M0 282.79h685.107V0H0v282.79z" style="fill:none"/><g id="axes_1"><path id="patch_2" d="M71.308 266.112h613.8V0h-613.8v266.112z" style="fill:none"/><g id="matplotlib.axis_1"><g id="xtick_1"><g id="line2d_1"><defs><path id="m018b28a53e" d="M0 0v3.5" style="stroke:gray;stroke-width:.8"/></defs><use xlink:href="#m018b28a53e" x="99.207" y="266.112" style="fill:gray;stroke:gray;stroke-width:.8"/></g><g id="text_1" style="fill:gray" transform="matrix(.1 0 0 -.1 96.026 280.71)"><defs><path id="DejaVuSans-30" d="M2034 4250q-487 0-733-480-245-479-245-1442 0-959 245-1439 246-480 733-480 491 0 736 480 246 480 246 1439 0 963-246 1442-245 480-736 480zm0 500q785 0 1199-621 414-620 414-1801 0-1178-414-1799Q2819-91 2034-91q-784 0-1198 620-414 621-414 1799 0 1181 414 1801 414 621 1198 621z" transform="scale(.01563)"/></defs><use xlink:href="#DejaVuSans-30"/></g></g><g id="xtick_2"><use xlink:href="#m018b28a53e" id="line2d_2" x="168.958" y="266.112" style="fill:gray;stroke:gray;stroke-width:.8"/><g id="text_2" style="fill:gray" transform="matrix(.1 0 0 -.1 159.414 280.71)"><defs><path id="DejaVuSans-35" d="M691 4666h2478v-532H1269V2991q137 47 274 70 138 23 276 23 781 0 1237-428 457-428 457-1159 0-753-469-1171Q2575-91 1722-91q-294 0-599 50Q819 9 494 109v635q281-153 581-228t634-75q541 0 856 284 316 284 316 772 0 487-316 771-315 285-856 285-253 0-505-56-251-56-513-175v2344z" transform="scale(.01563)"/></defs><use xlink:href="#DejaVuSans-35"/><use xlink:href="#DejaVuSans-30" x="63.623"/><use xlink:href="#DejaVuSans-30" x="127.246"/></g></g><g id="xtick_3"><use xlink:href="#m018b28a53e" id="line2d_3" x="238.708" y="266.112" style="fill:gray;stroke:gray;stroke-width:.8"/><g id="text_3" style="fill:gray" transform="matrix(.1 0 0 -.1 225.982 280.71)"><defs><path id="DejaVuSans-31" d="M794 531h1031v3560L703 3866v575l1116 225h631V531h1031V0H794v531z" transform="scale(.01563)"/></defs><use xlink:href="#DejaVuSans-31"/><use xlink:href="#DejaVuSans-30" x="63.623"/><use xlink:href="#DejaVuSans-30" x="127.246"/><use xlink:href="#DejaVuSans-30" x="190.869"/></g></g><g id="xtick_4"><use xlink:href="#m018b28a53e" id="line2d_4" x="308.457" y="266.112" style="fill:gray;stroke:gray;stroke-width:.8"/><g id="text_4" style="fill:gray" transform="matrix(.1 0 0 -.1 295.733 280.71)"><use xlink:href="#DejaVuSans-31"/><use xlink:href="#DejaVuSans-35" x="63.623"/><use xlink:href="#DejaVuSans-30" x="127.246"/><use xlink:href="#DejaVuSans-30" x="190.869"/></g></g><g id="xtick_5"><use xlink:href="#m018b28a53e" id="line2d_5" x="378.207" y="266.112" style="fill:gray;stroke:gray;stroke-width:.8"/><g id="text_5" style="fill:gray" transform="matrix(.1 0 0 -.1 365.483 280.71)"><defs><path id="DejaVuSans-32" d="M1228 531h2203V0H469v531q359 372 979 998 621 627 780 809 303 340 423 576 121 236 121 464 0 372-261 606-261 235-680 235-297 0-627-103-329-103-704-313v638q381 153 712 231 332 78 607 78 725 0 1156-363 431-362 431-968 0-288-108-546-107-257-392-607-78-91-497-524-418-433-1181-1211z" transform="scale(.01563)"/></defs><use xlink:href="#DejaVuSans-32"/><use xlink:href="#DejaVuSans-30" x="63.623"/><use xlink:href="#DejaVuSans-30" x="127.246"/><use xlink:href="#DejaVuSans-30" x="190.869"/></g></g><g id="xtick_6"><use xlink:href="#m018b28a53e" id="line2d_6" x="447.957" y="266.112" style="fill:gray;stroke:gray;stroke-width:.8"/><g id="text_6" style="fill:gray" transform="matrix(.1 0 0 -.1 435.233 280.71)"><use xlink:href="#DejaVuSans-32"/><use xlink:href="#DejaVuSans-35" x="63.623"/><use xlink:href="#DejaVuSans-30" x="127.246"/><use xlink:href="#DejaVuSans-30" x="190.869"/></g></g><g id="xtick_7"><use xlink:href="#m018b28a53e" id="line2d_7" x="517.707" y="266.112" style="fill:gray;stroke:gray;stroke-width:.8"/><g id="text_7" style="fill:gray" transform="matrix(.1 0 0 -.1 504.983 280.71)"><defs><path id="DejaVuSans-33" d="M2597 2516q453-97 707-404 255-306 255-756 0-690-475-1069Q2609-91 1734-91q-293 0-604 58T488 141v609q262-153 574-231 313-78 654-78 593 0 904 234t311 681q0 413-289 645-289 233-804 233h-544v519h569q465 0 712 186t247 536q0 359-255 551-254 193-729 193-260 0-557-57-297-56-653-174v562q360 100 674 150t592 50q719 0 1137-327 419-326 419-882 0-388-222-655t-631-370z" transform="scale(.01563)"/></defs><use xlink:href="#DejaVuSans-33"/><use xlink:href="#DejaVuSans-30" x="63.623"/><use xlink:href="#DejaVuSans-30" x="127.246"/><use xlink:href="#DejaVuSans-30" x="190.869"/></g></g><g id="xtick_8"><use xlink:href="#m018b28a53e" id="line2d_8" x="587.457" y="266.112" style="fill:gray;stroke:gray;stroke-width:.8"/><g id="text_8" style="fill:gray" transform="matrix(.1 0 0 -.1 574.732 280.71)"><use xlink:href="#DejaVuSans-33"/><use xlink:href="#DejaVuSans-35" x="63.623"/><use xlink:href="#DejaVuSans-30" x="127.246"/><use xlink:href="#DejaVuSans-30" x="190.869"/></g></g><g id="xtick_9"><use xlink:href="#m018b28a53e" id="line2d_9" x="657.207" y="266.112" style="fill:gray;stroke:gray;stroke-width:.8"/><g id="text_9" style="fill:gray" transform="matrix(.1 0 0 -.1 644.482 280.71)"><defs><path id="DejaVuSans-34" d="M2419 4116 825 1625h1594v2491zm-166 550h794V1625h666v-525h-666V0h-628v1100H313v609l1940 2957z" transform="scale(.01563)"/></defs><use xlink:href="#DejaVuSans-34"/><use xlink:href="#DejaVuSans-30" x="63.623"/><use xlink:href="#DejaVuSans-30" x="127.246"/><use xlink:href="#DejaVuSans-30" x="190.869"/></g></g></g><g id="matplotlib.axis_2"><g id="ytick_1"><g id="line2d_10"><defs><path id="m1b422372a9" d="M0 0h-3.5" style="stroke:gray;stroke-width:.8"/></defs><use xlink:href="#m1b422372a9" x="71.308" y="237.496" style="fill:gray;stroke:gray;stroke-width:.8"/></g><g id="text_10" style="fill:gray" transform="matrix(.16 0 0 -.16 0 243.575)"><defs><path id="DejaVuSans-2212" d="M678 2272h4006v-531H678v531z" transform="scale(.01563)"/></defs><use xlink:href="#DejaVuSans-2212"/><use xlink:href="#DejaVuSans-31" x="83.789"/><use xlink:href="#DejaVuSans-30" x="147.412"/><use xlink:href="#DejaVuSans-30" x="211.035"/><use xlink:href="#DejaVuSans-30" x="274.658"/><use xlink:href="#DejaVuSans-30" x="338.281"/></g></g><g id="ytick_2"><use xlink:href="#m1b422372a9" id="line2d_11" x="71.308" y="201.042" style="fill:gray;stroke:gray;stroke-width:.8"/><g id="text_11" style="fill:gray" transform="matrix(.16 0 0 -.16 10.18 207.12)"><use xlink:href="#DejaVuSans-2212"/><use xlink:href="#DejaVuSans-35" x="83.789"/><use xlink:href="#DejaVuSans-30" x="147.412"/><use xlink:href="#DejaVuSans-30" x="211.035"/><use xlink:href="#DejaVuSans-30" x="274.658"/></g></g><g id="ytick_3"><use xlink:href="#m1b422372a9" id="line2d_12" x="71.308" y="164.587" style="fill:gray;stroke:gray;stroke-width:.8"/><use xlink:href="#DejaVuSans-30" id="text_12" style="fill:gray" transform="matrix(.16 0 0 -.16 54.127 170.666)"/></g><g id="ytick_4"><use xlink:href="#m1b422372a9" id="line2d_13" x="71.308" y="128.133" style="fill:gray;stroke:gray;stroke-width:.8"/><g id="text_13" style="fill:gray" transform="matrix(.16 0 0 -.16 23.587 134.212)"><use xlink:href="#DejaVuSans-35"/><use xlink:href="#DejaVuSans-30" x="63.623"/><use xlink:href="#DejaVuSans-30" x="127.246"/><use xlink:href="#DejaVuSans-30" x="190.869"/></g></g><g id="ytick_5"><use xlink:href="#m1b422372a9" id="line2d_14" x="71.308" y="91.679" style="fill:gray;stroke:gray;stroke-width:.8"/><g id="text_14" style="fill:gray" transform="matrix(.16 0 0 -.16 13.408 97.757)"><use xlink:href="#DejaVuSans-31"/><use xlink:href="#DejaVuSans-30" x="63.623"/><use xlink:href="#DejaVuSans-30" x="127.246"/><use xlink:href="#DejaVuSans-30" x="190.869"/><use xlink:href="#DejaVuSans-30" x="254.492"/></g></g><g id="ytick_6"><use xlink:href="#m1b422372a9" id="line2d_15" x="71.308" y="55.224" style="fill:gray;stroke:gray;stroke-width:.8"/><g id="text_15" style="fill:gray" transform="matrix(.16 0 0 -.16 13.408 61.303)"><use xlink:href="#DejaVuSans-31"/><use xlink:href="#DejaVuSans-35" x="63.623"/><use xlink:href="#DejaVuSans-30" x="127.246"/><use xlink:href="#DejaVuSans-30" x="190.869"/><use xlink:href="#DejaVuSans-30" x="254.492"/></g></g><g id="ytick_7"><use xlink:href="#m1b422372a9" id="line2d_16" x="71.308" y="18.77" style="fill:gray;stroke:gray;stroke-width:.8"/><g id="text_16" style="fill:gray" transform="matrix(.16 0 0 -.16 13.408 24.849)"><use xlink:href="#DejaVuSans-32"/><use xlink:href="#DejaVuSans-30" x="63.623"/><use xlink:href="#DejaVuSans-30" x="127.246"/><use xlink:href="#DejaVuSans-30" x="190.869"/><use xlink:href="#DejaVuSans-30" x="254.492"/></g></g></g><path id="line2d_17" d="m99.207 164.923.282-.666.282.657.282-.65.282.645.282-.641.282.638.282-.637.282.637.282-.638.282.64.282-.643.282.647.282-.653.282.66.282-.667.282.676.282-.687.282.698.282-.71.282.725.282-.741.282.758.282-.778.282.8.282-.823.281.849.282-.878.282.91.282-.946.282.985.282-1.03.282 1.08.282-1.136.282 1.2.282-1.273.282 1.359.282-1.458.282 1.575.282-1.715.282 1.884.282-2.094.282 2.361.282-2.711.282 3.19.282-3.883.282 4.975.282-6.95.282 11.593.282-36.09.282-85.84.281 16.073.282-3.24.564 16.314 1.128 80.559.282 12.379.282 5.285.282 8.097.564 7.834.282 1.353.282 3.208.564-3.048.282-.442.282 2.062.282-1.21.282.892.282.275.282-1.76.282-6.148.282-2.102.282.972.281 3.043.564 2.831.564-3.627.282 1.22.282 4.61.564 2.673.282 4.686.282 8.233.282 4.381.564 4.29.282 4.114.282.622.282-3.268.282-8.19.282-12.328.564-40.898.846-74.403.282-15.067.281-7.106.282-2.417.282-1.371.282 2.202.846 13.207.282 10.383.564 32.115.846 56.072.282 7.119.846 3.758.282 1.835.282.175.564-2.547.282.775.282.092.564-3.02.281.892.564-.105.282 3.121.282 6.028.282 2.505.282-.4.282.54.282 2.481.564 2.164.846 5.945.564 5.027.282-1.05.282-1.72.282 1.935.564 6.36.282 1.811.282-.253.282-5.796.282-10.468.563-34.496.846-70.897.564-28.4.282-5.509.282-.54.564 3.425.282 3.657.564 12.674.282 8.056.282 13.24.846 65.423.282 10.17.282 4.08.564 3.972.564 3.613.282.39.281-1.328.282-.763.282-1.338.282-3.344.564-7.554.282-1.085.282.352.282 1.239 1.692 13.97.564 7.67.564 4.23.564 7.413.564 4.019.564 7.545.281-.425.282-3.724.282-6.465.282-13.985.846-74.826.564-49.054.282-12.84.282-2.645.564.566.282 1.403.564 6.062.282 6.33.564 25.398 1.41 84.962.282 4.01.282-.487.281 1.725.282 2.871.282-1.385.564-10.033.282-.548.282-.255.564-4.04.282.591.282 1.202.282-.965.282.047.564 10.794.282-.505.282-4.837.282-.815.564 9.156.282 2.664.282 4.2.846 19.805 1.41 21.345.281-4.791.282-11.21.282-18.11 1.41-121.035.282-7.421.282-1.645.282-3.32.282-5.677.282-1.71.282 2.665.282 4.15.282 6.583.564 25.144.564 34.395.563 34.075.282 4.215.282.47.564 2.82.282 1.982.282 1.01.564-1.654.282.657.282-.688.282-2.45.282.022.282 3.875.282 1.736.282-2.149.282-1.287 1.128 9.057.846 12.307.845 9.403 1.41 24.435.282 2.059.282-.13.282-.52.282-1.617.282-5.797.282-12.57.564-50.723.846-78.947.282-15.149.282-5.03.282.027.564-3.682.282 1.224.282 3.557.281 5.252.564 22.334.564 30.492.564 37.751.282 9.739.564 9.994.282-.395.564-8.95.282.342.282 1.572.282.706.282.162.282 1.206.564 5.27.282 1.151.282 1.785.564 12.246.282 1.864.282-1.434.281 1.368.282 4.176.282 1.517.282-.332.282 1.851.282 3.288.282 1.048.282.377.564 3.217.282.425.282 2.437.564 7.175.282-.657.564-3.546.282-4.79.282-9.187.564-31.877 1.128-82.008.281-7.997.846-12.106.282-1.772.282 1.1.282 4.622.846 22.234.282 14.163.564 45.08.282 11.152.282 3.8.282 6.257.282 9.144.282 4.46.282-.608.282-.12.282 1.053.282-2.703.282-5.648.282-3.414.563.087.282-.4.564.447.282-.197.282 1.953 1.128 16.61.282 6.728.282 3.413.282 1.481.564 8.343.282 1.11.282-1.648.282.713.564 8.293.282 1.375.282.468.282-.241.282-5.683.282-15.716.845-78.004.564-49.113.282-10.386.282-4.483.282-2.043.282.61.282-.127.282-2.357.282 1.772.846 31.689.282 14.546.846 62.827.564 17.074.282.845.282-2.866.282-1.026.282.637.563-3.094.564.147 1.128-6.064.282-.227.846 5.436.564 7.634.282.53.282 1.006 1.692 34.676.282 1.572.282-.526.282 2.037.282 3.736.282.603.281-3.955.282-8.244.282-13.416.564-48.657.564-61.022.282-19.331.282-6.558.282.33.282-.788.282-2.769.282 1.157.564 9.634.282 1.57.282 4.872.564 22.436.564 32.928.564 28.93.564 8.285.281 2.245.282-.171.282-.529.564 4.052.282-.577.282-2.643.282-1.13.282 1.072.846 5.327.564.77.282 3.994.564 13.582.282-.033.282-1.753.282.06.282-.34.282-1.5.282-.868.282.59.282 2.568.563 13.642.282-.917.282-7.522.282-2.306.282 5.59.282 3.097.282-5.712.564-18.86.282-18.11.846-82.944.282-12.474.564-12.321.282-2.647.282-.376.282 1.54.282 3.744.564 12.306.564 21.591.563 28.732.846 49.901.282 7.707.282 1.834.564-2.562.282 1.23.282-.314.282-3.285.282-1.503.564 6.624.846 2.48.282-.876.282-1.506.282 1.091.564 5.52.564 4.95.563 4.555 1.41 11.044.564 5.945.564 3.974.564 5.34.282-.008.282-4.593.282-12.993.564-51.24.846-78.156.282-11.943.282-4.093.282-.866.282-.09.282.139.281 1.238.282 3.182.564 9.879.282 9.046.846 48.993.564 40.357.282 9.774.564-7.46.282 4.167.282 2.012.564-10.144.282.5.282-.81.282-3.882.282-1.004.282 2.176.282 1.075.282.077.282 2.461.282 3.597.281 1.804.282-.23.282.295.282 2.414.564 7.953 1.128 10.98.282 1.675.846 12.902.564 14.904.282 1.852.282-7.95.282-13.282.282-19.053.846-83.812.564-17.65.281-6.622.282-3.567.282-.885.282.277.282 2.698.564 14.317.564 17.808.564 23.59.564 33.514.564 35.943.282 9.887.282 1.109.282-6.011.846-25.05.282-2.066.282-.177.282-1.737.282-2.909.282-.416.281.562.282-3.34.282-6.423.282-2.718.564 3.32.282 1.021.282 6.284.282 9.874.282 4.478.282-4.068.564-9.423.282-5.56.564-21.266.282-5.91.564-4.003.564-8.943.282-5.739.282-8.613.282-14.174.563-48.87.564-44.684.282-4.816.282 6.66.564 29.64 1.128 67.733 1.128 48.787.564 27.64.564 23.148.564 26.18.282 5.119.282 1.4.282-2.752 1.127-27.319.564-8.93.564-3.067.282-1.865.282-.429.564 1.674.564 1.223.282.45.282 1.653.564 6.882.282.568.282 1.958.564 12.998.282 1.676.282-.48.564 2.707.282-2.22.281-4.483.282-7.102.282-16.272 1.128-106.147.846-33.565.282-5.803.282-1.746.282.892.282 4.015 1.128 30.456.564 26.085 1.41 66.697.281 6.414.282 1.567.282.192.282-1.217.282-2.306.282-.84.846 5.492.282.98.846 7.96.282.845.282 1.223.282 2.02.564 7.418.564 6.547.282 3.308.846 19.747.282.91.281-1.549.282-5.294.282-14.498.564-61.51.564-68.334.282-22.195.282-12.33.564-13.399.282-3.492.282 3.58.282 7.148.282 2.913.282.037.282 4.81.846 35.277 1.41 80.548.563 12.67.564 10.11.282-.427.282-1.963.282.251.282.894.282-1.411.282-3.483.282-1.61.282 2.722.282 4.653.564 4.806.564 14.628.282 1.873.282-2.092.282 1.474.282 4.434.282.357.282-2.538.282 2.625.564 18.29.281.324.282-7.738.282-13.29.282-22.366.846-101.064.846-35.212.282-7.358.282-1.724.564-1.758.282 2.676.564 9.499.282 11.079 1.128 67.653.846 43.787.282 9.43.281 5.12.282.51.564-4.323.282-.548.282 1.614.282-.466.564-9.197.564 2.02.282-3.19.282-.19 1.128 26.032.564 16.451.846 9.751.564-2.382.282 2.646.281 1.238.282-4.38.282-10.986.282-20.628.846-92.58.564-32.119.564-19.835.282-2.835.564-1.45.282-2.43.282-.445.282 6.175.846 34.103.846 62.74.282 6.673.563 22.067.282 3.06.282-4.658.282-2.502.282 1.76.282.327.564-5.03.282-.768.282.685.564 3.553.282 2.385.846 9.599.282 2.153.564 7.669 2.255 31.684.282.474.282-2.273.282-5.61.282-12.926.564-60.369.564-46.902.846-38.83.846-12.324.282-.196.564 9.07.282 6.336.564 22.502 1.691 74.14.846 12.899.564-6.937.282 1.897.282 4.073.282.468.564-3.547.282.004.282 3.038.564 14.305.282 3.409.282.574.282.088.282.715.282 2.34.564 7.101.282 2.115.563 7.767.282 1.354.282-.084.282 1.965.564 6.356.282 2.61.282 1.419.282-3.09.282-9.81.282-17.7 1.128-107.503.846-27.289.846-10.673.282-2.79.282 2.216.564 12.215.282 7.942.563 27.383.846 45.316 1.128 45.008.282 1.341.282-2.376.282-.624.282 1.187.282-1.47.282-3.994.282-2.163.564 2.078.564-1.275.282 1.474.564 4.738.564 2.367.563 4.26.564 2.017.282 2.597.846 10.294.282 3.341.846 16.231.282 1.446.282-1.868.282-5.16.282-12.69.564-57.735.564-52.391.564-28.927.564-16.927.282-3.314.281.088.282 4.492.564 11.778.282 4.754.564 20.41 2.538 92.356.282 1.058.282-1.573.564-4.026.282.423.282.992.282.509.282-.129.282-.314.282.262 1.127 6.995.282 1.333.564 5.863.564 5.13.564 4.882.846 7.796.846 14.334.282 2.734.282.694.282-5.12.282-15.099 1.41-127.47.563-24.34.282-5.774.282-2.2.282-.266.282 1.056.282 2.998.564 10.213.564 17.267 2.256 92.824.282 3.216.282.58.282 1.388.282.644.564-5.89.281 2.434.282 5.18.282 1.86.282-1.296.282-.756.564 1.04.282.516.282 1.397 1.128 9.48 1.41 13.533.282 4.941.846 19.472.282 2.817.282 1.642.282-.717.281-8.125.282-20.753.846-89.557.564-36.69.564-24.525.282-4.676.282-.39.282-.023.282-.357.282 2.397.564 9.52.282 4.06.282 9.849.564 27.047.564 21.67.564 22.944 1.127 28.366.282 2.99.282 1.226.282-1.683.282-.724.846 11.697.282 2.264.282 3.748.282.698.564-5.54.282-.994.564-4.895.282 1.522.564 6.193.282 1.659.846 8.06.282 1.44.281 2.734.846 12.521.846 9.466.282-1.14.282-6.662.282-15.22 1.128-106.074.564-32.384.282-9.925.282-3.001.564-3.077.282 1.192.846 11.169.845 20.25 1.128 39.717.846 53.5.846 12.4.282 1.558.564-5.935.282-.384.282-.023.282-.63.282.958.282 2.446.282 1.143.564-1.596.282.49.282 1.017.281 3.131.564 11.962.564 2.057.282 5.385.282 2.977.564-10.984.282 1.438.564 8.666.282 4.264.564 13.555.282-1.491.282-11.97.564-56.53.564-55.502.564-36.186.282-10.844.282-5.12.563-4.622.282.917.564 6.577.282 4.145.282 7.42.564 29.007.564 24.565 1.128 38.33.282 1.706.846 14.018.282.17.564 5.573.282-1.086.282-2.169.282 3.034.282 5.846.281 2.269.282.36.564 9.92.282 1.248.282-.805.282 2.36.282 3.509.282 1.694.282 2.373.846 13.787.846 6.1.282 3.298.282 1.846.282-3.254.282-11.031.282-20.666.846-85.842.564-35.423.281-12.03.282-5.17.846-6.405.564 7.355.282 1.416.282 3.433.564 17.206.564 23.26.564 28.162.846 27.257.282 2.638.282 1.465.564 10.924.282 1.616.282-1.022.282-2.328.563-8.82.282 1.562.282 3.802.282 1.18.282 2.318.564 12.305.564-1.472.564 11.208.282.645.282-2.716.282.363.564 7.628.282 1.934.282 5.682.564 21.617.282 4.303.282 2.117.282 4.23.282.926.281-10.835.564-52 .846-81.02.282-16.779.282-8.838.564-9.479.282-2.507.282.15.282-.401.282-2.526.282-.768.282 3.72.846 21.045.564 16.56 1.128 43.461.845 27.299.282 2.478.282.57.282.26.282-.38.282-.172.564 1.496.282.797.282 1.287.282.23.282-2.99.282-4.44.282-.76.846 11.221.282 6.553.564 18.676.846 13.323.282 1.823.281-1.78.282-.733.282 3.275.564 10.378.564 5.61.282.788.282-6.27.282-18.03 1.41-133.801.282-14.373.282-6.579.564-5.582.282-3.67.282-1.335.282 2.497.564 9.025.282 7.694 1.973 74.928.846 21.039.282 5.295.282 2.16.282-.279.846-2.07.282-1.252.282-.292.282.589.564.487.282 1.504.846 12.141 1.127 16.085.564 9.508.564 8.816.282 2.908 1.128 20.395.282 2.36.282.606.282-10.963 1.692-158.736.282-9.83.564-4.951.282-.806.281 1.97 1.128 15.817.564 13.274 1.128 42.722 1.128 29.788.282 2.5.282-1.278.282-.46.564 6.245.282.764.282.176.282.444.282-.553.282.559 1.127 19.209.282 3.79.282 1.066.564-5.118.282 1.622.564 7.29.282 5.949.846 28.526.282 4.407.564 3.595.282-2.927.282-13.535 1.41-121.148.563-20.037.282-6.128.282-2.598.282-.245.282-1.024.282-2.521.282-.911.282 2.776.846 15.966 1.41 45.51.564 20.556.282 3.795.846 3.935.282.452.282.158.282 2.749.281 5.328.282 3.155.564-2.883.564 3.337.564-5.372.282 2.504.282 4.793.282 1.744.282 1.007.282 5.65.564 13.585.282 3.308.846 19.379.282 2.729 1.128 18.687.282.147.282-11.552.845-75.08.564-50.99.282-17.065.282-9.373.564-9.712.282-2.198.282-.095.282 1.274.282 2.216.282 4.111 1.692 42.291.564 19.704 1.127 25.96.282 3.035.564 2.105.282.743.282-.426.282-1.139.282-.542.564.886.282-.207.282.718.564 5.207.282.635.282.314.282 2.25 1.41 15.907.564 4.687 1.127 18.245.564 10.263.282 2.604.282-.192.282-4.692.282-12.507 1.41-103.581.564-18.254.282-3.253.282-1.13.846-8.098.282 2.995.564 10.081L586.153 127l.564 16.688.564 16.515.846 16.433.282 2.25.846.86.282-.042.282.102.564-.77.282 1.903.282 2.883.282-.303.282-2.47.282.741.282 3.71.282 2.104.282 1.087.845 11.024.282 2.502.846 14.462.564 7.641.564 10.271.282 1.998.282-8.133.846-61.029.846-63.031.282-10.314.282-5.76.282-2.995.282-.229.282 1.859.282 3.834.563 10.784.564 5.95.564 13.99 1.692 41.617.564 9.099.282 2.65.282-.594.282-2.553.282-.996.564 1.897.282-.025.282.502.846 3.538.563.047.282 2.487 1.128 20.266.282 6.517.282 3.09.282 1.543.564 8.61.282 1.251.282-.63.282 2.064.564 10.047.282 2.534.282-1.34.282-6.941.564-30.832 1.128-79.822.563-11.561.282-4.24.282-1.775.282 1.806 1.128 15.63.846 18.673.282 4.473.846 19.98.564 3.429.282 4.092.282.793 1.41-27.347.282.39.563 3.604.282 4.21.282 7.487.282 4.248.282-.64.282 1.45.564 10.705.282 3.345.846 16.237.564 6.936 1.128 18.646.282 1.602.564 5.911.282 2.862.564 8.006.281-4.018.564-34.807.564-41.666.564-44.727.282-9.137.564-6.293.282.1.846 10.685.282 2.187.564 7.377.564 9.698.846 26.05.564 18.443.282 4.313.281 1.045.282 1.857.282 2.902.282-.156.564-7.377.282-.14.564 2.407 1.41 2.016.282 2.494.846 16.018.282-.054.282-1.105.282 1.058.564 6.83 1.973 25.634.282 1.007.282-3.45.282-8.869.564-32.78.846-62.84.282-12.193.282-6.997.282-3.63.282-1.764.282.587 1.41 15.609.282 4.818.282 2.214.282.648.281 4.302.564 21.264.846 18.764.282 9.542.282 4.02.282-1.349.282.182.282 1.212.282-.201.282-2.118.282.59.282 1.915.846 8.39.282.392.564 2.888.282 3.758.282-.088.282 3.765.282 1.617.281 8.382h0" clip-path="url(#paf57083bf4)" style="fill:none;stroke:#1f77b4;stroke-width:1.5;stroke-linecap:square"/><path id="patch_3" d="M71.308 266.112V0" style="fill:none;stroke:gray;stroke-width:.8;stroke-linejoin:miter;stroke-linecap:square"/><path id="patch_4" d="M685.107 266.112V0" style="fill:none;stroke:#000;stroke-width:.8;stroke-linejoin:miter;stroke-linecap:square"/><path id="patch_5" d="M71.308 266.112h613.8" style="fill:none;stroke:gray;stroke-width:.8;stroke-linejoin:miter;stroke-linecap:square"/><path id="patch_6" d="M71.308 0h613.8" style="fill:none;stroke:#000;stroke-width:.8;stroke-linejoin:miter;stroke-linecap:square"/></g></g><defs><clipPath id="paf57083bf4"><path d="M71.308 0h613.8v266.112h-613.8z"/></clipPath></defs></svg>