<svg xmlns="http://www.w3.org/2000/svg" xmlns:xlink="http://www.w3.org/1999/xlink" width="913.477" height="377.053" viewBox="0 0 685.107 282.79"><defs><style>*{stroke-linejoin:round;stroke-linecap:butt}</style></defs><g id="figure_1"><path id="patch_1" d="M0 282.79h685.107V0H0v282.79z" style="fill:none"/><g id="axes_1"><path id="patch_2" d="M71.308 266.112h613.8V0h-613.8v266.112z" style="fill:none"/><g id="matplotlib.axis_1"><g id="xtick_1"><g id="line2d_1"><defs><path id="mbd29560327" d="M0 0v3.5" style="stroke:gray;stroke-width:.8"/></defs><use xlink:href="#mbd29560327" x="99.207" y="266.112" style="fill:gray;stroke:gray;stroke-width:.8"/></g><g id="text_1" style="fill:gray" transform="matrix(.1 0 0 -.1 96.026 280.71)"><defs><path id="DejaVuSans-30" d="M2034 4250q-487 0-733-480-245-479-245-1442 0-959 245-1439 246-480 733-480 491 0 736 480 246 480 246 1439 0 963-246 1442-245 480-736 480zm0 500q785 0 1199-621 414-620 414-1801 0-1178-414-1799Q2819-91 2034-91q-784 0-1198 620-414 621-414 1799 0 1181 414 1801 414 621 1198 621z" transform="scale(.01563)"/></defs><use xlink:href="#DejaVuSans-30"/></g></g><g id="xtick_2"><use xlink:href="#mbd29560327" id="line2d_2" x="168.958" y="266.112" style="fill:gray;stroke:gray;stroke-width:.8"/><g id="text_2" style="fill:gray" transform="matrix(.1 0 0 -.1 159.414 280.71)"><defs><path id="DejaVuSans-35" d="M691 4666h2478v-532H1269V2991q137 47 274 70 138 23 276 23 781 0 1237-428 457-428 457-1159 0-753-469-1171Q2575-91 1722-91q-294 0-599 50Q819 9 494 109v635q281-153 581-228t634-75q541 0 856 284 316 284 316 772 0 487-316 771-315 285-856 285-253 0-505-56-251-56-513-175v2344z" transform="scale(.01563)"/></defs><use xlink:href="#DejaVuSans-35"/><use xlink:href="#DejaVuSans-30" x="63.623"/><use xlink:href="#DejaVuSans-30" x="127.246"/></g></g><g id="xtick_3"><use xlink:href="#mbd29560327" id="line2d_3" x="238.708" y="266.112" style="fill:gray;stroke:gray;stroke-width:.8"/><g id="text_3" style="fill:gray" transform="matrix(.1 0 0 -.1 225.982 280.71)"><defs><path id="DejaVuSans-31" d="M794 531h1031v3560L703 3866v575l1116 225h631V531h1031V0H794v531z" transform="scale(.01563)"/></defs><use xlink:href="#DejaVuSans-31"/><use xlink:href="#DejaVuSans-30" x="63.623"/><use xlink:href="#DejaVuSans-30" x="127.246"/><use xlink:href="#DejaVuSans-30" x="190.869"/></g></g><g id="xtick_4"><use xlink:href="#mbd29560327" id="line2d_4" x="308.457" y="266.112" style="fill:gray;stroke:gray;stroke-width:.8"/><g id="text_4" style="fill:gray" transform="matrix(.1 0 0 -.1 295.733 280.71)"><use xlink:href="#DejaVuSans-31"/><use xlink:href="#DejaVuSans-35" x="63.623"/><use xlink:href="#DejaVuSans-30" x="127.246"/><use xlink:href="#DejaVuSans-30" x="190.869"/></g></g><g id="xtick_5"><use xlink:href="#mbd29560327" id="line2d_5" x="378.207" y="266.112" style="fill:gray;stroke:gray;stroke-width:.8"/><g id="text_5" style="fill:gray" transform="matrix(.1 0 0 -.1 365.483 280.71)"><defs><path id="DejaVuSans-32" d="M1228 531h2203V0H469v531q359 372 979 998 621 627 780 809 303 340 423 576 121 236 121 464 0 372-261 606-261 235-680 235-297 0-627-103-329-103-704-313v638q381 153 712 231 332 78 607 78 725 0 1156-363 431-362 431-968 0-288-108-546-107-257-392-607-78-91-497-524-418-433-1181-1211z" transform="scale(.01563)"/></defs><use xlink:href="#DejaVuSans-32"/><use xlink:href="#DejaVuSans-30" x="63.623"/><use xlink:href="#DejaVuSans-30" x="127.246"/><use xlink:href="#DejaVuSans-30" x="190.869"/></g></g><g id="xtick_6"><use xlink:href="#mbd29560327" id="line2d_6" x="447.957" y="266.112" style="fill:gray;stroke:gray;stroke-width:.8"/><g id="text_6" style="fill:gray" transform="matrix(.1 0 0 -.1 435.233 280.71)"><use xlink:href="#DejaVuSans-32"/><use xlink:href="#DejaVuSans-35" x="63.623"/><use xlink:href="#DejaVuSans-30" x="127.246"/><use xlink:href="#DejaVuSans-30" x="190.869"/></g></g><g id="xtick_7"><use xlink:href="#mbd29560327" id="line2d_7" x="517.707" y="266.112" style="fill:gray;stroke:gray;stroke-width:.8"/><g id="text_7" style="fill:gray" transform="matrix(.1 0 0 -.1 504.983 280.71)"><defs><path id="DejaVuSans-33" d="M2597 2516q453-97 707-404 255-306 255-756 0-690-475-1069Q2609-91 1734-91q-293 0-604 58T488 141v609q262-153 574-231 313-78 654-78 593 0 904 234t311 681q0 413-289 645-289 233-804 233h-544v519h569q465 0 712 186t247 536q0 359-255 551-254 193-729 193-260 0-557-57-297-56-653-174v562q360 100 674 150t592 50q719 0 1137-327 419-326 419-882 0-388-222-655t-631-370z" transform="scale(.01563)"/></defs><use xlink:href="#DejaVuSans-33"/><use xlink:href="#DejaVuSans-30" x="63.623"/><use xlink:href="#DejaVuSans-30" x="127.246"/><use xlink:href="#DejaVuSans-30" x="190.869"/></g></g><g id="xtick_8"><use xlink:href="#mbd29560327" id="line2d_8" x="587.457" y="266.112" style="fill:gray;stroke:gray;stroke-width:.8"/><g id="text_8" style="fill:gray" transform="matrix(.1 0 0 -.1 574.732 280.71)"><use xlink:href="#DejaVuSans-33"/><use xlink:href="#DejaVuSans-35" x="63.623"/><use xlink:href="#DejaVuSans-30" x="127.246"/><use xlink:href="#DejaVuSans-30" x="190.869"/></g></g><g id="xtick_9"><use xlink:href="#mbd29560327" id="line2d_9" x="657.207" y="266.112" style="fill:gray;stroke:gray;stroke-width:.8"/><g id="text_9" style="fill:gray" transform="matrix(.1 0 0 -.1 644.482 280.71)"><defs><path id="DejaVuSans-34" d="M2419 4116 825 1625h1594v2491zm-166 550h794V1625h666v-525h-666V0h-628v1100H313v609l1940 2957z" transform="scale(.01563)"/></defs><use xlink:href="#DejaVuSans-34"/><use xlink:href="#DejaVuSans-30" x="63.623"/><use xlink:href="#DejaVuSans-30" x="127.246"/><use xlink:href="#DejaVuSans-30" x="190.869"/></g></g></g><g id="matplotlib.axis_2"><g id="ytick_1"><g id="line2d_10"><defs><path id="m9221f8c8d4" d="M0 0h-3.5" style="stroke:gray;stroke-width:.8"/></defs><use xlink:href="#m9221f8c8d4" x="71.308" y="236.927" style="fill:gray;stroke:gray;stroke-width:.8"/></g><g id="text_10" style="fill:gray" transform="matrix(.16 0 0 -.16 0 243.006)"><defs><path id="DejaVuSans-2212" d="M678 2272h4006v-531H678v531z" transform="scale(.01563)"/></defs><use xlink:href="#DejaVuSans-2212"/><use xlink:href="#DejaVuSans-32" x="83.789"/><use xlink:href="#DejaVuSans-30" x="147.412"/><use xlink:href="#DejaVuSans-30" x="211.035"/><use xlink:href="#DejaVuSans-30" x="274.658"/><use xlink:href="#DejaVuSans-30" x="338.281"/></g></g><g id="ytick_2"><use xlink:href="#m9221f8c8d4" id="line2d_11" x="71.308" y="192.094" style="fill:gray;stroke:gray;stroke-width:.8"/><g id="text_11" style="fill:gray" transform="matrix(.16 0 0 -.16 0 198.173)"><use xlink:href="#DejaVuSans-2212"/><use xlink:href="#DejaVuSans-31" x="83.789"/><use xlink:href="#DejaVuSans-30" x="147.412"/><use xlink:href="#DejaVuSans-30" x="211.035"/><use xlink:href="#DejaVuSans-30" x="274.658"/><use xlink:href="#DejaVuSans-30" x="338.281"/></g></g><g id="ytick_3"><use xlink:href="#m9221f8c8d4" id="line2d_12" x="71.308" y="147.261" style="fill:gray;stroke:gray;stroke-width:.8"/><use xlink:href="#DejaVuSans-30" id="text_12" style="fill:gray" transform="matrix(.16 0 0 -.16 54.127 153.34)"/></g><g id="ytick_4"><use xlink:href="#m9221f8c8d4" id="line2d_13" x="71.308" y="102.428" style="fill:gray;stroke:gray;stroke-width:.8"/><g id="text_13" style="fill:gray" transform="matrix(.16 0 0 -.16 13.408 108.507)"><use xlink:href="#DejaVuSans-31"/><use xlink:href="#DejaVuSans-30" x="63.623"/><use xlink:href="#DejaVuSans-30" x="127.246"/><use xlink:href="#DejaVuSans-30" x="190.869"/><use xlink:href="#DejaVuSans-30" x="254.492"/></g></g><g id="ytick_5"><use xlink:href="#m9221f8c8d4" id="line2d_14" x="71.308" y="57.595" style="fill:gray;stroke:gray;stroke-width:.8"/><g id="text_14" style="fill:gray" transform="matrix(.16 0 0 -.16 13.408 63.674)"><use xlink:href="#DejaVuSans-32"/><use xlink:href="#DejaVuSans-30" x="63.623"/><use xlink:href="#DejaVuSans-30" x="127.246"/><use xlink:href="#DejaVuSans-30" x="190.869"/><use xlink:href="#DejaVuSans-30" x="254.492"/></g></g><g id="ytick_6"><use xlink:href="#m9221f8c8d4" id="line2d_15" x="71.308" y="12.762" style="fill:gray;stroke:gray;stroke-width:.8"/><g id="text_15" style="fill:gray" transform="matrix(.16 0 0 -.16 13.408 18.84)"><use xlink:href="#DejaVuSans-33"/><use xlink:href="#DejaVuSans-30" x="63.623"/><use xlink:href="#DejaVuSans-30" x="127.246"/><use xlink:href="#DejaVuSans-30" x="190.869"/><use xlink:href="#DejaVuSans-30" x="254.492"/></g></g></g><path id="line2d_16" d="m99.207 147.53.282-.543.282.554.282-.565.282.575.282-.586.282.597.282-.608.282.62.282-.633.282.646.282-.66.282.674.282-.688.282.703.282-.718.282.734.282-.751.282.77.282-.789.282.808.282-.828.282.849.282-.871.282.895.282-.92.281.946.282-.974.282 1.003.282-1.034.282 1.067.282-1.103.282 1.141.282-1.181.282 1.224.282-1.27.282 1.32.282-1.375.282 1.434.282-1.498.282 1.568.282-1.644.282 1.729.282-1.823.282 1.927.282-2.044.282 2.176.282-2.326.282 2.498.282-2.698.282 2.933.281-3.212.282 3.549.282-3.965.282 4.492.282-5.18.282 6.117.282-7.47.282 9.593.282-13.42.282 22.501.564-149.7.282 55.576.282 10.466.282 32.996.282 16.616.282 28.916.282 14.899.282 23.895.846 35.95.282 11.046.564 10.682.282-3.229.281 2.155.282.765.282 1.187.564-32.484.282-21.597.564-21.063.564-9.09.564 3.346.564 9.62.846 33.88.564 8.024.282.771.282 2.453.282.07.282.886.564-7.504.563-13.005.846-14.794.846-11.405.282-3.253.282-.81.282-1.321.282-.274.282-2.395.564-1.72.282 1.575.282.394.282 1.195.282.023.282 1.414.282.36.282 1.574.282.773.282 2.023.563 1.264.564-2.162.564-6.182.564-17.59 1.128-59.13.564-30.513.282-9.182.282-3.81.282-2.005.282 1.247.282 4.235 1.128 38.454 1.128 45.264.281 6.006.564 6.731.846 4.858.282 2.062.564.937.282-.887.282-.488.564-2.33.282-1.246.282.417.282 1.414.564 5.42.282.712.282-.886.282 1.456.564 6.359.282-.537.282-1.725.281-.646.564 4.296.282.69.282-.247.564 4.988.282 2.211.846-2.33.282.478.282-1.983.282-4.556.564-15.953.564-27.99.564-32.748.846-34.131.282-5.377.282-.331.845 11.658.282 6.456.846 31.717 1.128 41.84.564 11.239.564 4.79.564 3.44.282.464.282.152.282-.326.282.192.282-.467.564-.446.845 2.557.282.98.846 4.853.846 3.352.846 4.854.564 4.342.564 4.301.282.708.282.12.282-.895.282-1.524.282-3.92.282-6.55.564-22.532 1.691-88.943.282-6.89.564-6.354.282-.504.282 1.941.564 12.426.564 17.921 1.974 76.628.564 7.02.282 2.004.282.268.845-6.7.282.212.564-.401.282.397 1.128 8.803.846 3.342 1.692 9.219.846 6.388.282 1.28.564.554.282-.65.281-2.318.282-6.605.846-35.41.564-29.828.564-35.035.564-20.033.564-14.94.282-2.702.282 1.778.564 8.824.282 6.438.564 20.29 1.41 68.071.563 14.655.282 3.66.282 1.978.282.728.282-.106.564-3.88.564-4.518.846-13.034.564-.105.564-3.789.282 1.556.564 9.213.282 1.849.282.939.846 3.917.282.892.281 2.492.564 10.677.846 17.824.282 2.186.282-1.63.282-5.641.564-19.659.564-30.342.846-52.438.564-20.874.564-11.976.282-1.588.282.918.282 1.605.282 2.565.282 4.044.563 15.244 1.974 77.562.846 20.377.564 14.18.564 5.792.282 2.476.282 1.454.282-.021.564-2.14.282-2.491.846-11.879.281-.802.282-1.212.282-2.523.282-.813.282 2.31.282 3.55.282.993.564-1.995.282 1.511.846 6.606.564 7.534.282.6.282-2.58.282-3.794.282-5.51.282-8.899.846-44.61 1.41-77.257.281-7.623.282-2.461.282 1.08.564 5.29.282 4.001.564 13.607.564 18.2 1.692 63.924.564 6.403.564 6.152.282-.317.282-2.185.282-.22.845 10.67.282.75.282 1.734.564 4.427.282.676.282 1.235.564 3.201.564-1.136.282 1.041.846 7.228.846 5.945.282-.234.282-1.694.282-2.55.282-4.792.282-7.997.563-24.889.846-53.69.846-51.675.282-12.374.282-6.08.282-.687.564 2.891.282 4.017.564 20.183.846 36.895.846 40.941.846 24.027.563 9.974.564 5.326.564 4.338.282 1.378.282-.245.282-1.638.564-4.235.282-.913.282.055.282.267.282.642.846 2.975.282-.486.282-.175.282 2.318.846 11.873.564 5.709.281 3.556.282 1.98.282-.297.282-2.346.282-3.695.282-5.935.282-9.101.564-28.096.846-59.898.564-36.811.282-9.254.564-8.394.282-1.702.282 1.115.564 7.78.282 5.857.564 21.363.845 36.888 1.692 57.493.564 7.933.282 1.713.282.899.564.507.282-.362.564-1.422.282-.152.282.327.846 2.672.282.336.282.567.282 1.268.563 3.093.564.58.282 1.37 1.128 8.775.282-.105.846-1.486.282-3.168.282-7.688.564-29.202 1.41-90.098.282-6.848.282-1.508.282.28.282-1.402.281-2.346.282-.28.282 3.589.282 6.312.282 8.916.564 29.81.564 31.45 1.41 57.639.564 10.433.282 3.144.282-.112.846-6.985.282-4.494.564-18.375.845-29.581.564-12.073.282-.784.846 9.38.282-1.99.564-7.9.282-2.141.282.097.282 2.77.282 5.22.564 18.717.846 40.006.282 6.66.282.288.282-7.32.282-15.7 1.41-110.198.281-9.624.282-5.587.282-2.18.282.105.282 1.554.564 5.23.564 8.474.564 13.028.564 21.369 1.128 50.587.564 18.332.564 11.223.282 2.03.282.468.281.097.282 1.033.564 4.732.564 4.462.564 2.768.564 1.454.282.258.564-.544.282 1.002 1.128 11.188.282 1.402.282.526.282-3.432.282-9.174.564-28.966.563-38.548.564-45.299.282-14.999.564-14.772.846-16.722.282-1.742.282.386.282 2.113.282 4.263.564 14.808.564 21.85 1.41 58.34.564 16.586.845 21.604.282 2.759.564-2.55.282.791.282 1.406.282-.465.282-1.897.282-.088.846 9.658.846 2.889.564 3.6.846 5.808.282 1.15.282 2.118.846 11.348.281.849.282-1.38.282-4.481.282-8.982.564-33.584 1.128-83.418.564-23.688.564-15.204.564-8.954.282-.514.282 2.618.564 9.079.282 5.728.564 18.492.845 31.643.846 40.665 1.41 37.3.282 2.311.846 3.322.282.399.282-.074.282-.605.846-2.856.282-.102.282.235.282-.255.564-1.79.282.712.845 6.567.282 1.71.564 7.032.564 5.488.282.939.282-.172.282-2.024.282-3.975.282-6.108.282-9.683.564-36.56.846-60.634.564-25.285.564-14.419.564-6.934.282-.804.281 1.861.282 4.882 1.128 30.671.564 25.005.564 22.99 1.692 41.764.564 9.829.846 12.162.282 1.864.282.163.282.419.282 1.036.281-.099.564-4.568.282.302.564 4.921.564 1.172.282 2.402.564 7.449.564 4.617.282 1.817.282.557.282-1.78.282-3.964.282-6.186.282-9.8.564-35.048.846-56.988.845-43.341.282-6.714.564-7.117.282-1.286.282 3.073 1.974 52.137.846 31.677.564 18.661 1.128 27.959 1.41 15.088.563 3.15.282 1.995.282 1.092h.282l.282.178.846 3.697.282.195.282.646 1.41 8.838.564 7.798.282 1.279.282-2.132.282-5.255.282-8.047.563-27.887 1.128-78.528.846-37.051.282-6.864.282-2.905.282-.141.282.911.282 1.423.282 2.421.564 9.684 1.41 33.028 1.128 42.029.845 24.156.282 4.48.564 4.315.564 6.237.282.556.282-1.047.282-.183.282 2.043.564 5.141.282.882.282 1.353.846 10.242.282.834.282.112.282 1.397.564 4.168.282-.487.282-1.105.281.544 1.41 13.287.282-.059.282-2.594.282-5.282.282-8.528.282-13.275 1.41-88.554.846-32.234.282-6.691.282-3.564.564-3.767.282-.606.282 1.353.563 6.213.282 4.196.282 6.353 2.256 68.82.564 7.141.846 8.719.564 2.137.282 2.563.846 15.125.846 9.74.563 7.432 1.41 11.568.282.715.282.107.282-1.584.564-6.46.282.038.846 7.657.282 1.52.564 5.528.282.428.282-3.982.282-9.116.564-31.997.845-51.905.846-35.43.282-8.011.282-4.383 1.128-7.579.282 2.52.846 17.535.564 15.794 1.974 70.69.563 13.063.282 2.941.564.893.564 3.635.282-1.473.564-7.865.282-1.231.282.304.282-.071.282-.785.282-.203.282 1.516 1.128 11.393.282 2.443.564 7.287.282 1.606.564-1.796.563.71.282-3.534.564-21.065 1.128-53.679.564-30.598.564-16.854.282-2.632.282.246.564 2.637.282 2.071.282 4.182 1.128 24.496.846 22.696.563 11.613.846 18.83.564 8.33.282 1.863.282.441.564.168.282.101.282.342.564 1.748.564.552.564 2.122.282.167.282-.545.282.478.846 6.402.282.635.281.935 1.41 7.19.564 2.355.564 5.902.282 2.766.282.741.282-.946.282-1.567.282-2.353.282-5.354.282-10.428 1.41-69.97.564-23.373.282-6.402.281-2.54.282-.92.282-.443.282.672.564 4.727.282 3.428.564 11.823.564 10.16.282 3.967.564 13.514 1.128 33.49.564 13.665.564 5.356.282 1.209.282.393.845-.21.282-.382.564-1.852.564-1.78.846-1.066.564.134.282-1.018.282-1.79.282-.326.282 2.5.282 3.643.282 1.742.282-.257.282.627 1.128 13.94.845 5.505.282-2.113.282-5.929.564-20.596 1.692-78.056.282-5.87.282-2.893.282-1.015.282.346.282 1.202.564 4.082.564 8.655 1.128 21.2.563 13.982 1.41 26.517.564 6.374.564 8.645.282 2.049.282-.08.282-.774.564-.781.846-3.473.282.141.282-.416.282-1.209.282-.46.564 1.744.282-.207.281.053.282 1.92.282 3.02.282 1.795.282.549.282 1.6.846 12.48.846 5.041.282 1.183.282-.95.282-4.318.282-8.596.564-27.504.846-43.482.282-9.568.282-4.804.282-1.109.282.213.282-.055.281.104.282.761.564 2.65.282 2.778 1.974 31.811.846 6.618 1.974 31.91.282 1.424.564 1.929.281.257.282-1.154.564-3.058.564-1.473.564-1.577.282-.104.282.397.282.789.846 3.526.282.639.282 1.135.282 2.107.846 8.848.282 1.672.282.452.282-1.794.282-5.087.564-19.253 1.41-57.945.281-4.288 1.128-5.939.282 1.834 1.128 11.2 1.128 19.511.846 16.809.846 13.152.845 8.21.282 1.5.282-.233.282-.984.282-.417.564.064.282.462.846 4.344.846 1.406.564.208.282.845.846 4.443.564 2.135.282 1.216.281.317 1.128-2.29.282-2.547.564-12.093.846-28.41.564-17.41.564-11.033.282-3.514.282-1.986.282-.346.282.862.282 2.154.564 7.697.564 7.917.564 6.393.563 8.92.846 12.78.846 8.517.564 3.007.564 2.893.564 2.966.282.626.282-.14.564-2.33.564-2.245.564-1.65.282-.462.282.568.563 2.68.564 1.218.282 1.883.564 6.039.564 3.893 1.128 12.57.282 1.05.282-.5.282-2.855.564-12.405.564-19.69.564-22.968.564-13.302.564-8.606.281-1.048.564 2.21.564.466.282 1.746.564 7.093 2.82 45.057.282.467.282-.034.282.272.282.587.282-.109.282-1.087 1.127-7.604.564-4.854.282.614.846 8.858.282.613.282.269.282-.769.282-3.111.564-10.233.282-1.46.282 2.053.846 9.63.846 16.52.282.225.845-7.49.282-4.183 1.41-30.764 1.128-15.032.282-1.89.282.109.564 2.127.282 1.52.282 3.525.846 14.385.564 3.808.564 7.334.564 7.697.281 1.204.282-.076.282.715.564 2.91.282-.941.282-1.696.282-.36.564 2.81.282-.174.282-1.133.282-.463.564.379.564-.834.282-.502.282-.231.282-.042.282.675.282 1.404.564 5.272.563 4.937.846 3.97.282 2.017.282.495.282-2.624 1.41-24.013.564-13 .846-6.828.564-7.046.282-.265 1.41 5.612 1.127 10.505 1.692 17.004.564 2.744.846 7.138.282-1.757.282-2.5.282-.843.282.693.282-.853.564-7.154.282-1.267.282 1.28.282 2.057.845 3.316.846 8.034.282.977.564.778.282.962.846 3.827.282.005.564-1.055.282-1.458.282-3.543.564-14.846.564-13.691 1.128-15.808.281-1.21.846 7.297.564-.612.282 1.305 1.128 11.295.564 5.21.564 6.447.282 1.75.282.022.564-.93.564 1.098.282-.183.282-.99.282.094.282 1.902.281 2.907.282 1.455.282.026.282-.095.282.977.282.517.564-1.276.282.975.282 1.733.282.994.564-.86.282.083.564 1.59.564 3.065.282.822.282.288.564 2.008.282-.385 1.127-8.117 2.538-39.397.282-1.705.282.774.564 5.486.282.78.282.12.282 1.697 1.41 13.086.846 7.176.845 5.224.282 1.493.282.74.282.197.282-.266.282.166.282-.235.282-.847.282-1.443.282-.509.282.191.282.444.282-.134.282.285.564 1.008.564-.642.282.106.282.572.282.151.282.559.845 2.666.282.301.282.741.564 2.784.282.26.282-.55.282.182.282 1.06.564 3.407.282.371.564-2.364.282-2.32.282-4.093 1.128-26.112.564-9.572.282-2.966.282-.006.563 2.647.282.26.282.463.282.821.846 4.266.282.803.282 1.292.282 1.92.564 5.178.564 3.255.846 10.04.282.404.282 1.1.564 6.213.282-.22.564-6.998.282-.826.563 1.366.282-.472.564-.55.282-.31.282-.651.282.408.564 1.205.282-.718.282.317.282 2.176.282 3.629.282 2.164.282.603.282-.164.564 1.266.282.015.282-.296.282 1.328.564 4.176.282.095.282-.735.845-3.577.282-2.829 1.41-22.078.564-5.093.282-1.042.282-.598.282.244.564.015.282-.53.282.799.282 2.407.564 7.073 1.691 12.397.282.854.282-.019.564.46.282.965.282-.426.282-2.157.564-6.36.282-1.09.282.02.846-3.3.846 6.415.282-.93.282.06.282 2.365.282 4.264.282 2.486.282.963.281.508.282 1.845.282.944.282-.035.282-.347.282 2.045.564 5.427.564.807.564-.329.282-1.623.282-2.356.564-9.897.564-10.751.282-3.03 1.128-6.634.282-.07.282-.47.282.26.281.073.564 1.043.282 2.412.846 10.675.282.99.282.42.846 5.543.282.852.282 1.679.564 1.547.282-.733.282-.282.282-1.27.282-1.937.564-6.298.282-1.457.282.591.282-.01.563.696.564 5.002.282 1.664.282-.545.282.496.282 1.412.282 2.632.564 1.603.282.455.282 1.322.282-.713.564-1.787.564 3.536.282.766.282-1.395.282-.656.564-3.072.846-8.11h0" clip-path="url(#pb7411dce0d)" style="fill:none;stroke:#1f77b4;stroke-width:1.5;stroke-linecap:square"/><path id="patch_3" d="M71.308 266.112V0" style="fill:none;stroke:gray;stroke-width:.8;stroke-linejoin:miter;stroke-linecap:square"/><path id="patch_4" d="M685.107 266.112V0" style="fill:none;stroke:#000;stroke-width:.8;stroke-linejoin:miter;stroke-linecap:square"/><path id="patch_5" d="M71.308 266.112h613.8" style="fill:none;stroke:gray;stroke-width:.8;stroke-linejoin:miter;stroke-linecap:square"/><path id="patch_6" d="M71.308 0h613.8" style="fill:none;stroke:#000;stroke-width:.8;stroke-linejoin:miter;stroke-linecap:square"/></g></g><defs><clipPath id="pb7411dce0d"><path d="M71.308 0h613.8v266.112h-613.8z"/></clipPath></defs></svg>