<svg xmlns="http://www.w3.org/2000/svg" xmlns:xlink="http://www.w3.org/1999/xlink" width="913.477" height="377.053" viewBox="0 0 685.107 282.79"><defs><style>*{stroke-linejoin:round;stroke-linecap:butt}</style></defs><g id="figure_1"><path id="patch_1" d="M0 282.79h685.107V0H0v282.79z" style="fill:none"/><g id="axes_1"><path id="patch_2" d="M71.308 266.112h613.8V0h-613.8v266.112z" style="fill:none"/><g id="matplotlib.axis_1"><g id="xtick_1"><g id="line2d_1"><defs><path id="m11024145e9" d="M0 0v3.5" style="stroke:gray;stroke-width:.8"/></defs><use xlink:href="#m11024145e9" x="99.207" y="266.112" style="fill:gray;stroke:gray;stroke-width:.8"/></g><g id="text_1" style="fill:gray" transform="matrix(.1 0 0 -.1 96.026 280.71)"><defs><path id="DejaVuSans-30" d="M2034 4250q-487 0-733-480-245-479-245-1442 0-959 245-1439 246-480 733-480 491 0 736 480 246 480 246 1439 0 963-246 1442-245 480-736 480zm0 500q785 0 1199-621 414-620 414-1801 0-1178-414-1799Q2819-91 2034-91q-784 0-1198 620-414 621-414 1799 0 1181 414 1801 414 621 1198 621z" transform="scale(.01563)"/></defs><use xlink:href="#DejaVuSans-30"/></g></g><g id="xtick_2"><use xlink:href="#m11024145e9" id="line2d_2" x="168.958" y="266.112" style="fill:gray;stroke:gray;stroke-width:.8"/><g id="text_2" style="fill:gray" transform="matrix(.1 0 0 -.1 159.414 280.71)"><defs><path id="DejaVuSans-35" d="M691 4666h2478v-532H1269V2991q137 47 274 70 138 23 276 23 781 0 1237-428 457-428 457-1159 0-753-469-1171Q2575-91 1722-91q-294 0-599 50Q819 9 494 109v635q281-153 581-228t634-75q541 0 856 284 316 284 316 772 0 487-316 771-315 285-856 285-253 0-505-56-251-56-513-175v2344z" transform="scale(.01563)"/></defs><use xlink:href="#DejaVuSans-35"/><use xlink:href="#DejaVuSans-30" x="63.623"/><use xlink:href="#DejaVuSans-30" x="127.246"/></g></g><g id="xtick_3"><use xlink:href="#m11024145e9" id="line2d_3" x="238.708" y="266.112" style="fill:gray;stroke:gray;stroke-width:.8"/><g id="text_3" style="fill:gray" transform="matrix(.1 0 0 -.1 225.982 280.71)"><defs><path id="DejaVuSans-31" d="M794 531h1031v3560L703 3866v575l1116 225h631V531h1031V0H794v531z" transform="scale(.01563)"/></defs><use xlink:href="#DejaVuSans-31"/><use xlink:href="#DejaVuSans-30" x="63.623"/><use xlink:href="#DejaVuSans-30" x="127.246"/><use xlink:href="#DejaVuSans-30" x="190.869"/></g></g><g id="xtick_4"><use xlink:href="#m11024145e9" id="line2d_4" x="308.457" y="266.112" style="fill:gray;stroke:gray;stroke-width:.8"/><g id="text_4" style="fill:gray" transform="matrix(.1 0 0 -.1 295.733 280.71)"><use xlink:href="#DejaVuSans-31"/><use xlink:href="#DejaVuSans-35" x="63.623"/><use xlink:href="#DejaVuSans-30" x="127.246"/><use xlink:href="#DejaVuSans-30" x="190.869"/></g></g><g id="xtick_5"><use xlink:href="#m11024145e9" id="line2d_5" x="378.207" y="266.112" style="fill:gray;stroke:gray;stroke-width:.8"/><g id="text_5" style="fill:gray" transform="matrix(.1 0 0 -.1 365.483 280.71)"><defs><path id="DejaVuSans-32" d="M1228 531h2203V0H469v531q359 372 979 998 621 627 780 809 303 340 423 576 121 236 121 464 0 372-261 606-261 235-680 235-297 0-627-103-329-103-704-313v638q381 153 712 231 332 78 607 78 725 0 1156-363 431-362 431-968 0-288-108-546-107-257-392-607-78-91-497-524-418-433-1181-1211z" transform="scale(.01563)"/></defs><use xlink:href="#DejaVuSans-32"/><use xlink:href="#DejaVuSans-30" x="63.623"/><use xlink:href="#DejaVuSans-30" x="127.246"/><use xlink:href="#DejaVuSans-30" x="190.869"/></g></g><g id="xtick_6"><use xlink:href="#m11024145e9" id="line2d_6" x="447.957" y="266.112" style="fill:gray;stroke:gray;stroke-width:.8"/><g id="text_6" style="fill:gray" transform="matrix(.1 0 0 -.1 435.233 280.71)"><use xlink:href="#DejaVuSans-32"/><use xlink:href="#DejaVuSans-35" x="63.623"/><use xlink:href="#DejaVuSans-30" x="127.246"/><use xlink:href="#DejaVuSans-30" x="190.869"/></g></g><g id="xtick_7"><use xlink:href="#m11024145e9" id="line2d_7" x="517.707" y="266.112" style="fill:gray;stroke:gray;stroke-width:.8"/><g id="text_7" style="fill:gray" transform="matrix(.1 0 0 -.1 504.983 280.71)"><defs><path id="DejaVuSans-33" d="M2597 2516q453-97 707-404 255-306 255-756 0-690-475-1069Q2609-91 1734-91q-293 0-604 58T488 141v609q262-153 574-231 313-78 654-78 593 0 904 234t311 681q0 413-289 645-289 233-804 233h-544v519h569q465 0 712 186t247 536q0 359-255 551-254 193-729 193-260 0-557-57-297-56-653-174v562q360 100 674 150t592 50q719 0 1137-327 419-326 419-882 0-388-222-655t-631-370z" transform="scale(.01563)"/></defs><use xlink:href="#DejaVuSans-33"/><use xlink:href="#DejaVuSans-30" x="63.623"/><use xlink:href="#DejaVuSans-30" x="127.246"/><use xlink:href="#DejaVuSans-30" x="190.869"/></g></g><g id="xtick_8"><use xlink:href="#m11024145e9" id="line2d_8" x="587.457" y="266.112" style="fill:gray;stroke:gray;stroke-width:.8"/><g id="text_8" style="fill:gray" transform="matrix(.1 0 0 -.1 574.732 280.71)"><use xlink:href="#DejaVuSans-33"/><use xlink:href="#DejaVuSans-35" x="63.623"/><use xlink:href="#DejaVuSans-30" x="127.246"/><use xlink:href="#DejaVuSans-30" x="190.869"/></g></g><g id="xtick_9"><use xlink:href="#m11024145e9" id="line2d_9" x="657.207" y="266.112" style="fill:gray;stroke:gray;stroke-width:.8"/><g id="text_9" style="fill:gray" transform="matrix(.1 0 0 -.1 644.482 280.71)"><defs><path id="DejaVuSans-34" d="M2419 4116 825 1625h1594v2491zm-166 550h794V1625h666v-525h-666V0h-628v1100H313v609l1940 2957z" transform="scale(.01563)"/></defs><use xlink:href="#DejaVuSans-34"/><use xlink:href="#DejaVuSans-30" x="63.623"/><use xlink:href="#DejaVuSans-30" x="127.246"/><use xlink:href="#DejaVuSans-30" x="190.869"/></g></g></g><g id="matplotlib.axis_2"><g id="ytick_1"><g id="line2d_10"><defs><path id="mecebc370d2" d="M0 0h-3.5" style="stroke:gray;stroke-width:.8"/></defs><use xlink:href="#mecebc370d2" x="71.308" y="241.441" style="fill:gray;stroke:gray;stroke-width:.8"/></g><g id="text_10" style="fill:gray" transform="matrix(.16 0 0 -.16 0 247.52)"><defs><path id="DejaVuSans-2212" d="M678 2272h4006v-531H678v531z" transform="scale(.01563)"/></defs><use xlink:href="#DejaVuSans-2212"/><use xlink:href="#DejaVuSans-31" x="83.789"/><use xlink:href="#DejaVuSans-30" x="147.412"/><use xlink:href="#DejaVuSans-30" x="211.035"/><use xlink:href="#DejaVuSans-30" x="274.658"/><use xlink:href="#DejaVuSans-30" x="338.281"/></g></g><g id="ytick_2"><use xlink:href="#mecebc370d2" id="line2d_11" x="71.308" y="200.072" style="fill:gray;stroke:gray;stroke-width:.8"/><g id="text_11" style="fill:gray" transform="matrix(.16 0 0 -.16 10.18 206.15)"><use xlink:href="#DejaVuSans-2212"/><use xlink:href="#DejaVuSans-35" x="83.789"/><use xlink:href="#DejaVuSans-30" x="147.412"/><use xlink:href="#DejaVuSans-30" x="211.035"/><use xlink:href="#DejaVuSans-30" x="274.658"/></g></g><g id="ytick_3"><use xlink:href="#mecebc370d2" id="line2d_12" x="71.308" y="158.703" style="fill:gray;stroke:gray;stroke-width:.8"/><use xlink:href="#DejaVuSans-30" id="text_12" style="fill:gray" transform="matrix(.16 0 0 -.16 54.127 164.782)"/></g><g id="ytick_4"><use xlink:href="#mecebc370d2" id="line2d_13" x="71.308" y="117.334" style="fill:gray;stroke:gray;stroke-width:.8"/><g id="text_13" style="fill:gray" transform="matrix(.16 0 0 -.16 23.587 123.413)"><use xlink:href="#DejaVuSans-35"/><use xlink:href="#DejaVuSans-30" x="63.623"/><use xlink:href="#DejaVuSans-30" x="127.246"/><use xlink:href="#DejaVuSans-30" x="190.869"/></g></g><g id="ytick_5"><use xlink:href="#mecebc370d2" id="line2d_14" x="71.308" y="75.965" style="fill:gray;stroke:gray;stroke-width:.8"/><g id="text_14" style="fill:gray" transform="matrix(.16 0 0 -.16 13.408 82.044)"><use xlink:href="#DejaVuSans-31"/><use xlink:href="#DejaVuSans-30" x="63.623"/><use xlink:href="#DejaVuSans-30" x="127.246"/><use xlink:href="#DejaVuSans-30" x="190.869"/><use xlink:href="#DejaVuSans-30" x="254.492"/></g></g><g id="ytick_6"><use xlink:href="#mecebc370d2" id="line2d_15" x="71.308" y="34.596" style="fill:gray;stroke:gray;stroke-width:.8"/><g id="text_15" style="fill:gray" transform="matrix(.16 0 0 -.16 13.408 40.675)"><use xlink:href="#DejaVuSans-31"/><use xlink:href="#DejaVuSans-35" x="63.623"/><use xlink:href="#DejaVuSans-30" x="127.246"/><use xlink:href="#DejaVuSans-30" x="190.869"/><use xlink:href="#DejaVuSans-30" x="254.492"/></g></g></g><path id="line2d_16" d="m99.207 158.973.282-.528.282.505.282-.484.282.464.282-.446.282.43.282-.415.282.4.282-.387.282.376.282-.365.282.355.282-.346.282.337.282-.329.282.322.282-.315.282.308.282-.302.282.297.282-.292.282.288.282-.285.282.282.282-.279.281.276.282-.274.282.273.282-.273.282.274.282-.275.282.277.282-.28.282.284.282-.29.282.298.282-.309.282.323.282-.341.282.367.282-.403.282.455.282-.536.282.672.282-.942.282 1.65.282-5.502.282-45.538.282-3.192.282 3.684.563 14.11 1.128 41.72.564 25.943.564 8.569.282 2.753.282-7.115.282-13.572.282-5.974.282 2.277.282-.32.282-3.887.282 1.077.282 5.843.282 3.356.564-1.622.282.136.282.79.564 3.349.281.716.564 2.65.282-1.33.564-9.655.282.487.282 2.144.282-.899.846-7.588.282-10.932.564-39.974.282-11.398.564-12.59.282-1.48.564 16.262.846 24.06.845 30.029.282 4.037.282-.93.282.907.564 7.22.282.917.282-.315.282-1.297.282-.583.282.814.282.077.282-1.403.282-.501.282-1.05.564-9.488.282.847.282 4.119.282 1.575.282.886.564 11.997.282-1.732 1.127-38.305.564-30.146.564-13.115.282-2.45.282 3.686.846 23.6 1.128 42.22.282 3.258.564 2.481.282.422.282-1.148.282-2.043.282-.768.282.857.282.375.563-2.66.282 2.156.282 3.557.282 1.287.282-.265.282.84.282 1.732.282.195.282-2.189.846-10.67.282-9.58.564-38.034.282-9.765.564-5.89.282.971 1.691 61.792.564 10.092.282 3.478.282.474.282-.605.282.224.282-.549.282-1.592.282-.767.282-.261.846-4.408.282-.08.282-.26.282.412.282 1.11.282.536.282-.156.282 1.137.846 9.557.282-.944.563-8.009.282-6.765.282-11.196.846-49.033.282-8.91.282-2.819.282 3.07 1.128 30.498.846 32.83.564 13.479.282 2.926.282-.52.282-.834.564 1.268.282-1.044.282-.578.281.184.564-2.393.564 2.693.282-2.198.282-3.994.282-.715.282 2.146.282 1.173.282-.356.282-.684.282-2.673.282-6.681.564-22.21.564-27.49.282-5.925.282-.396.282-.68.282 1 .282 8.55.564 21.259.845 25.246.564-12.351.846 23.506.282-1.962.282-.054.564 1.528.282 1.85.282 1.084.282-.016.564 4.378.282-2.826.564-12.34.282-3.5.282-7.853.564-24.805.564-13.893.281-2.362.282 2.805.564 14.161 1.128 43.24.564 8.788.282 1.651.282.368.282.648.282-.192.282-2.36.846-13.438.564-2.103.282-2.234.282-.723.282.941.282-3.166.845-24.17.564-10.338.282 1.678.564 17.742.564 19.036.282 1.27.282-2.946.282-.3.282.965.564-6.905.282 5.19.282 10.499.282 4.713.564-4.584.282 2.22.282 3.509.282 1.647.282-.64.282-1.373.281-.529.282-.195.282-.967.282-.169.282 2.068.282.98.282-4.84.564-24.984.846-45.039.564-14.797.282-2.893.282 1.619.282 6.657.564 25.72.564 29.097.564 15.487.564 8.734.282 1.858.281-.328.282-2.203.282-.032.564 11.083.282-.237.282-4.133.282-1.33.564 3.677.282-.823.846-5.495.282-1.305.282-3.372.282-7.577 1.41-55.77.282-1.831.282 1.916.282 4.027.281 7.633 1.128 50.016.282 6.314.282 2.381.282-2.466.282-3.761.282-1.429.282 1.578.564 5.507h.282l.282-1.026.282-.366.564.834.282-.913.564-8.906.282.036.564 7.436.563 1.866.282-1.607.282-6.39.564-24.005.564-28.862.282-7.881.564-7.915.282-.678.282 3.982.564 18.932.846 36.182.564 14.632.564 9.34.564 5.594.282 1.896.282-1.423.563-9.7.282-.011.282 1.222.282-1.97.282-3.713.564-3.616.282-5.664.564-20.704.846-37.22.282-3.452.282 2.321.282 5.855.564 23.34.564 21.188.282 8.925.282 4.916.282-.12.282 1.57.563 10.014.282.158.282 1.397.282 2.613.282-.451.282-1.626.282.82.282.413.846-6.857.282-4.86.564-17.224.846-35.802.282-5.62.282-3.39.282 1.284.564 18.818 1.128 43.16.281 2.466.282.415.282-3.412.282-5.78.282-1.695.282 2.752.282 1.52.282-.07.564 4.742.282-1.477.846-16.516.282-8.975.846-41.663.282-.348.282 4.692.282 7.738.846 49.106.282 5.137.563 6.157.282.914.282-.833.282-.31.282-.563.282-1.139.564-.017.846-8.084.282 1.218.282.695.282 1.134.564 9.633.282-.69.564-15.094.282-11.175.846-53.837.282-5.88.281-1.999.282 2.694.282 10.09.846 40.564.564 16.832.282 3.184.282 1.575.282.578.564.412.282-.78.564-3.183.846-2.055.282-.164.282-.44.282.762.846 13.17.282.878.281 1.677.564 5.392.282.808.282.103.282 1.4.846 9.893.282 1.513.282 3.41 1.41 22.664.282 1.48.282.476.282-3.347.282-14.253 1.691-144.543.846-31.07.282-6.247.282-1.778.282 3.228.282 10.69.564 40.206.846 76.861.564 26.31.282 4.44.564-1.382.564 6.75.282.223.564-3.007.564-7.178.281-.143.282 2.01.282-.404.282-2.378.282.31.282 1.823.282-2.395.282-5.49.282-1.43.282 1.829.282-2.19.282-5.714.282-2.55.282-1.527.282-8.558.564-29.423.282-9.026.282-4.507.282-.025.282 4.505.564 18.455.846 38.052.281 7.462.282 4.198.282 1.361.564-.241.282-.566.564-3.096.564-4.183.282-.385.846 7.005.282.548.282.798.282-.09.564-2.358.282-4.306.282-10.078.564-30.327.845-50.943.564-12.374.282-3.32.282 7.049 1.692 96.37.564 8.368.282 2.346.564 1.546.282.174.282-.665.282.398.564 5.013.282-.043.282-2.8.564-8.185.282.543.563 5.349.282 4.634.564 16.49.282 2.677.282.002.282-.73.282-5.451.282-13.216 1.974-127.027.282-8.74.282-5.062.282-1.59.282 4.695.282 13.493.846 64.668.563 45.485.282 10.144.282 3.362.282 1.997.282.544.564-2.045.282-.375.564-3.086.564-.734.282-1.01.282-1.73.282-5.312 1.974-63.105.282-4.43.282 2.177.563 25.753.564 24.038.282 9.343.282 4.265.564-1.75.846 7.892.282-.155.282 1.05.282 2.21.282 1.162.282-.586.282-1.678.282-2.54.282-4.79.282-8.356.564-25.7.564-28.481.282-9.792.282-4.086.281.194.282 4.366.282 10.938.846 47.196.564 18.035.282 3.883.564 3.977.564 4.147.282 1.695.282.398.282-1.941.564-4.844.282.49.846 12.464.564-6.874.282-7.992.563-44.84.846-58.266.564-30.12.282-7.376.282-2.25.282 4.53.282 10.602.282 15.597.564 49.446.564 44.932.282 11.218.282 5.025.564 3.34.846 5.166.282-.255.845-10.658.282-.262.282-.818.564-3.275.282-.07.282-2.04.282-8.003 1.128-50.995.282-8.426.282-3.582.282 2.196.282 6.88.282 12.554.846 51.085.846 18.905.282-.936.282-5.949.281-3 .282-.134.282-3.688.282-5.174.282.59.282 4.592.282.653.282-3.083.282-1.45.282-.777.282-5.564.564-25.045.846-44.003.564-15.668.282-.042.282 7.055.564 26.503.564 40.823.282 9.798.281 1.874.282 2.971.282 5.12.282 2.186.282.572.282 4.034.564 11.476 1.128 6.9.282.104.282.962.282 3.165.282 1.513.282-3.348.564-11.43.282-10.54 1.128-71.701.845-67.874.282-13.738.282-8.246.282-2.217.282 4.22.282 12.042.564 46.353.846 69.661.282 12.552.564 10.064.564 8.636.564 3.414.564 6.595.564-.244.564 3.536.282.48.281 4.034.564 12.584.846 7.604.282-2.52.282-6.147.282-10.188.564-36.617 1.41-110.512.564-20.83.282-3.648.282 1.752.282 8.912.564 44.917.845 66.258.282 13.849.282 8.115.282 4.605.282 2.454.282 1.23.282 2.047.282.63.282-4.652.282-6.504.282-1.588.282 1.29.282-.541.282.88.564 13.317.282 2.636.282.514.282 1.447.282 2.405.846 12.983.282 1.32.564 5.912.281-.77.282-1.604.282 1.294.282-1.637.282-11.239.846-54.563 1.128-90.085.564-26.29.282-4.898.282-2.96.282 1.04.564 18.192.282 11.735.282 19.86.564 54.657 1.127 55.275.282 2.138.282.058.564 5.966.282.453.282.957.282 1.5.282-.255.282-.971.564 1.412.846-6.778.282-5.322.564-29.686 1.128-60.583.564-23.473.281-.15.564 19.255.282 11.865 1.128 65.39.564 10.252.282 2.349.564 1.455.282.212.282-.086.282-.822.282-1.542.282-.38.564 4.993.282.253.282 2.088.564 13.483.282-.191.282-1.722.281 2.445 1.128 17.007.564 7.737.282 1.628.282-3.601.564-21.309.564-36.334 1.41-122.387.282-11.105.282-6.709.282-3.277.282-.607.282 4.832.282 13.307.845 59.439.564 46.564.564 23.842.282 7.292.282 3.247.282.131.282-.339.282-1.315.282-2.262.282-1.295.282.005.282-.12.282 1.069 1.128 14.054.282 2.46.282 1.05.282.124.282 2.22.282 3.756.281 2.151.282 1.165.282 3.763.564 9.173.282 3.19.564 9.047.282 2.762.282-.092.282-6.235.564-35.495.846-80.778.564-44.773.564-30.313.282-8.682.282-4.896.282-.849.282 4.557.564 21.247.563 41.044.846 70.611.282 17.417.282 10.183.564 8.757.282 7.765.282 3.741.282-1.324.282.856.282 2.23.282-3.565.282-5.953.282.642.282 3.041.282-2.593.282-3.63.564 3.483.282-5.563.564-24.37 1.41-80.408.563-16.263.282-3.01.282 5.666.564 24.449.282 16.992.564 44.405L426 194.486l.282-.853.282 2.586.564 15.751.564-.748.282 1.942.282.607.281-.63.282.588.282.037.282-1.314.564-.459.282-6.294.846-34.01 1.41-86.916.282-15.9.282-9.46.564-6.22.282 1.812.282 10.701 1.691 107.52.282 3.482.282 1.36.564 7.063.282-2.6.282-4.577.282-1.54.282-.036.282-.173.282 2.477.564 10.312.282 1.28.282 2.85.282 5.86.282 2.625.282-2.686.282-1.11.564 9.754.282 2.449.282 5.21.845 30.131.564 8.659.282-1.457.282-7.216.282-13.942.564-51.509 1.41-144.429.564-18.204.282-5.163.282 2.172.564 18.64.282 5.254.282 8.206.564 39.501 1.41 110.38.281 7.225.282-.9.282-.339.282 2.695.282.756.282-2.673.282.026.564 7.623.564-4.017.282 1.98.282.446.282-6.857.846-34.512.846-43.892.845-25.774.282 2.814.846 31.222.282 17.744.564 44.12.282 6.671.282 3.25.282 5.518.282 2.111.282-2.784.282-1.292.282 1.983.282.43.282-1.207.282.918.282 2.627.282-.364.282-5.5.564-22.487.564-35.788 1.127-80.48.282-9.016.282-.379.282 5.29.282 11.472.846 42.851.846 42.842.282 8.408.846 34.121.846 9.783.282.432.282 2.6.282 5.772.282 3.172.282-1.574.281-3.64.282-5.899.282-11.416.564-36.15.846-73.243.564-19.132.282-7.111.282-2.432.282 4.543.564 12.725.282 10.638 1.692 107.644.564 15.147.563 9.88.564 6.302.282 1.377.282.594.282 1.748.282.909.282-3.462.282-6.722.282-9.634.282-16.296.846-80.69.564-48.995.282-13.94.282-8.066.282-2.66.282 5.038.564 25.697.564 37.253.845 56.08.564 29.535.564 13.2.282 4.965.282 2.557.282 1.114.282 3.288.564 10.572.282 3.156.282 1.573.282-1.682.282-7.319.282-13.47.564-45.72.846-89.52.564-28.114.282-5.83.282 2.67.563 18.542 1.128 62.709 1.128 64.953.846 14.698.282 3.242.564 2.435.282.199.282-2.188.564-11.362.564-20.331.564-35.178.563-40.097.282-13.068.282-5.037.282 1.996.282 7.263.564 27.368 1.128 62.426.282 2.636.282-.285 1.692 16.445.564.32.282-.087.564.082.282-4.425.282-13.956 1.691-126.513.282-8.86.282-2.61.282 3.463.282 8.762 1.41 77.6.282 19.054.282 10.92.282 6.526.564 18.764.846 13.41.282 1.283.282-1.685.281.638.282 3.113.282 1.278.282.25.282 2.356 1.974 30.737.282-.722.282-6.113.282-11.975.282-21.968 1.41-152.8.282-14.74.282-6.934.282-2.744.282-.087.281 3.2.564 10.934.282 7.2.564 23.25 2.256 112.298.282 7.203.564 2.208.564 7.853.564 2.475.564 9.924.282 1.573.282-.173.282.95.563 2.631.846 8.11.282-.255.282-1.396.282-5.855.282-14.482.846-73.957.564-50.911.564-28.25.282-6.787.282-2.188.282 4.593.846 30.312.564 33.14.845 51.797.564 19.62 1.128 26.895.282 1.5.564 4.598.282 1.547.564 6.637.282.705.282-.604.282-.026.282-1.558.282-5.854.282-9.775.564-35.119 1.41-108.974.563-14.595.282-1.166.564 10.403.282 6.706.282 13.403 1.128 70 .564 26.76.564 18.84.564 12.108.564 19.476.282 2.922.282 1.578.564 6.809.282 2.293.563 5.513.282.263.282-1.169.282-7.313.282-19.429.846-86.669.564-61.305.564-27.628.282-6.277.282-1.07.282 2.467.282 5.754 1.128 46.043.846 47.165 1.41 53.563.281 2.69.282-2.735.282.65.564 13.124.282.822.282 3.432.282 7.645.282 4.173.282.025.282 1.273.282 2.538.282.996.282 2.622.564 9.005.282 1.52.282 3.202.282.197.282-10.737.845-60.579.846-78.017.564-29.95.282-9.114.282.725.282 4.625.282 2.536.282 1.15.282 4.156.282 9.11 1.128 57.184 1.128 54.967.282 5.812.282.903.282 2.288.563 7.987.282 2.196.846 11.25.564 2.85.282.24.282-2.96.282-7.882.282-14.6 1.128-76.413.564-28.954.282-5.066.282-.053.282 1.264.282 1.795.282 2.76.282 6.363 1.127 49.553.846 44.678 1.41 38.398.846 11.41.282 3.275.282-3.213.564-23.293.282-16.35.564-53.948.564-51.567.564-29.806.282-6 .282-.852.281-.287.282 2.384.846 29.65.282 9.842 1.128 51.75.846 30.282.564 13.131.282 3.645.564 10.468.282 1.213.282 2.018.564 14.68.282 3.113.282 1.076.563 4.297.282-2.486.282-8.01.282-14.488.564-47.11.846-76.206.282-14.039.564-11.408.282-.938.282 5.733 1.41 56.533.564 27.203.564 19.08 1.127 28.221.564 9.274.282 1.291.282 2.436.564 7.983.282 1.97.564 8.979.282.597.282-6.087.282-12.442.564-49.646.564-48.494.564-31.023.282-8.53.282-2.124h.282l.282.718.282 4.431.282 11.713.845 43.89.564 20.425.846 33.988.282 9.226.282 5.376.282 1.8.282 2.84.846 13.64.564 9.527.282.112.282-7.658.282-13.767.564-45.973.564-49.408.282-12.37 1.127-25.326.282 1.454.282 6.274.846 28.51.564 25.379.564 27.857.846 24.978.282 2.2.282-.97.282 2.51.282 5.097.282 2.987.282 1.632.282 4.097.282 2.286.282-4.682.282-11.347.563-37.293.564-35.331.564-17.61.282-1.713.564 10.698.282.162.282 3.135 1.41 45.273.282 4.113 1.974 48.937.282 1.333.281-.719.282-4.081.564-23.511 1.41-78.177.282-5.352.282-.15.282 4.644.564 14.517 1.41 42.784.846 18.34.846 16.013 1.41 33.805.281.826.282-1.714.282-9.303.282-19.665 1.128-112.965.282-11.444.282-2.177.282.481.282.892.282.454.282 3.199 1.128 31.177 1.691 66.676.564 3.789.846 13.627.282 2.878.564 2.333.282-.247.282-3.08.564-16.337.564-33.862.564-32.193.564-21.016.282-3.778.282 1.773.282-.168.282 2.574.845 29.522.846 26.13.282 4.4.564 13.347.564 6.413.282 6.612.282 3.097.282.988.282-.782.282 2.863.282 1.56.282 3.673.282 1.03.282 3.464.282 1.135.282 6.111.282 1.372.282 5.239.282-2.137.281 9.998h0" clip-path="url(#p25723d22d2)" style="fill:none;stroke:#1f77b4;stroke-width:1.5;stroke-linecap:square"/><path id="patch_3" d="M71.308 266.112V0" style="fill:none;stroke:gray;stroke-width:.8;stroke-linejoin:miter;stroke-linecap:square"/><path id="patch_4" d="M685.107 266.112V0" style="fill:none;stroke:#000;stroke-width:.8;stroke-linejoin:miter;stroke-linecap:square"/><path id="patch_5" d="M71.308 266.112h613.8" style="fill:none;stroke:gray;stroke-width:.8;stroke-linejoin:miter;stroke-linecap:square"/><path id="patch_6" d="M71.308 0h613.8" style="fill:none;stroke:#000;stroke-width:.8;stroke-linejoin:miter;stroke-linecap:square"/></g></g><defs><clipPath id="p25723d22d2"><path d="M71.308 0h613.8v266.112h-613.8z"/></clipPath></defs></svg>