<?xml version="1.0" encoding="utf-8" standalone="no"?>
<!DOCTYPE svg PUBLIC "-//W3C//DTD SVG 1.1//EN"
  "http://www.w3.org/Graphics/SVG/1.1/DTD/svg11.dtd">
<svg xmlns:xlink="http://www.w3.org/1999/xlink" width="660.992188pt" height="282.790125pt" viewBox="0 0 660.992188 282.790125" xmlns="http://www.w3.org/2000/svg" version="1.1">
 <metadata>
  <rdf:RDF xmlns:dc="http://purl.org/dc/elements/1.1/" xmlns:cc="http://creativecommons.org/ns#" xmlns:rdf="http://www.w3.org/1999/02/22-rdf-syntax-ns#">
   <cc:Work>
    <dc:type rdf:resource="http://purl.org/dc/dcmitype/StillImage"/>
    <dc:date>2023-03-06T21:29:36.772191</dc:date>
    <dc:format>image/svg+xml</dc:format>
    <dc:creator>
     <cc:Agent>
      <dc:title>Matplotlib v3.6.3, https://matplotlib.org/</dc:title>
     </cc:Agent>
    </dc:creator>
   </cc:Work>
  </rdf:RDF>
 </metadata>
 <defs>
  <style type="text/css">*{stroke-linejoin: round; stroke-linecap: butt}</style>
 </defs>
 <g id="figure_1">
  <g id="patch_1">
   <path d="M -0 282.790125 
L 660.992188 282.790125 
L 660.992188 0 
L -0 0 
L -0 282.790125 
z
" style="fill: none"/>
  </g>
  <g id="axes_1">
   <g id="patch_2">
    <path d="M 47.192188 266.112 
L 660.992188 266.112 
L 660.992188 0 
L 47.192188 0 
L 47.192188 266.112 
z
" style="fill: none"/>
   </g>
   <g id="matplotlib.axis_1">
    <g id="xtick_1">
     <g id="line2d_1">
      <defs>
       <path id="mfbedfbd780" d="M 0 0 
L 0 3.5 
" style="stroke: #808080; stroke-width: 0.8"/>
      </defs>
      <g>
       <use xlink:href="#mfbedfbd780" x="75.092188" y="266.112" style="fill: #808080; stroke: #808080; stroke-width: 0.8"/>
      </g>
     </g>
     <g id="text_1">
      <!-- 0 -->
      <g style="fill: #808080" transform="translate(71.910938 280.710438) scale(0.1 -0.1)">
       <defs>
        <path id="DejaVuSans-30" d="M 2034 4250 
Q 1547 4250 1301 3770 
Q 1056 3291 1056 2328 
Q 1056 1369 1301 889 
Q 1547 409 2034 409 
Q 2525 409 2770 889 
Q 3016 1369 3016 2328 
Q 3016 3291 2770 3770 
Q 2525 4250 2034 4250 
z
M 2034 4750 
Q 2819 4750 3233 4129 
Q 3647 3509 3647 2328 
Q 3647 1150 3233 529 
Q 2819 -91 2034 -91 
Q 1250 -91 836 529 
Q 422 1150 422 2328 
Q 422 3509 836 4129 
Q 1250 4750 2034 4750 
z
" transform="scale(0.015625)"/>
       </defs>
       <use xlink:href="#DejaVuSans-30"/>
      </g>
     </g>
    </g>
    <g id="xtick_2">
     <g id="line2d_2">
      <g>
       <use xlink:href="#mfbedfbd780" x="144.842188" y="266.112" style="fill: #808080; stroke: #808080; stroke-width: 0.8"/>
      </g>
     </g>
     <g id="text_2">
      <!-- 500 -->
      <g style="fill: #808080" transform="translate(135.298438 280.710438) scale(0.1 -0.1)">
       <defs>
        <path id="DejaVuSans-35" d="M 691 4666 
L 3169 4666 
L 3169 4134 
L 1269 4134 
L 1269 2991 
Q 1406 3038 1543 3061 
Q 1681 3084 1819 3084 
Q 2600 3084 3056 2656 
Q 3513 2228 3513 1497 
Q 3513 744 3044 326 
Q 2575 -91 1722 -91 
Q 1428 -91 1123 -41 
Q 819 9 494 109 
L 494 744 
Q 775 591 1075 516 
Q 1375 441 1709 441 
Q 2250 441 2565 725 
Q 2881 1009 2881 1497 
Q 2881 1984 2565 2268 
Q 2250 2553 1709 2553 
Q 1456 2553 1204 2497 
Q 953 2441 691 2322 
L 691 4666 
z
" transform="scale(0.015625)"/>
       </defs>
       <use xlink:href="#DejaVuSans-35"/>
       <use xlink:href="#DejaVuSans-30" x="63.623047"/>
       <use xlink:href="#DejaVuSans-30" x="127.246094"/>
      </g>
     </g>
    </g>
    <g id="xtick_3">
     <g id="line2d_3">
      <g>
       <use xlink:href="#mfbedfbd780" x="214.592188" y="266.112" style="fill: #808080; stroke: #808080; stroke-width: 0.8"/>
      </g>
     </g>
     <g id="text_3">
      <!-- 1000 -->
      <g style="fill: #808080" transform="translate(201.867188 280.710438) scale(0.1 -0.1)">
       <defs>
        <path id="DejaVuSans-31" d="M 794 531 
L 1825 531 
L 1825 4091 
L 703 3866 
L 703 4441 
L 1819 4666 
L 2450 4666 
L 2450 531 
L 3481 531 
L 3481 0 
L 794 0 
L 794 531 
z
" transform="scale(0.015625)"/>
       </defs>
       <use xlink:href="#DejaVuSans-31"/>
       <use xlink:href="#DejaVuSans-30" x="63.623047"/>
       <use xlink:href="#DejaVuSans-30" x="127.246094"/>
       <use xlink:href="#DejaVuSans-30" x="190.869141"/>
      </g>
     </g>
    </g>
    <g id="xtick_4">
     <g id="line2d_4">
      <g>
       <use xlink:href="#mfbedfbd780" x="284.342188" y="266.112" style="fill: #808080; stroke: #808080; stroke-width: 0.8"/>
      </g>
     </g>
     <g id="text_4">
      <!-- 1500 -->
      <g style="fill: #808080" transform="translate(271.617188 280.710438) scale(0.1 -0.1)">
       <use xlink:href="#DejaVuSans-31"/>
       <use xlink:href="#DejaVuSans-35" x="63.623047"/>
       <use xlink:href="#DejaVuSans-30" x="127.246094"/>
       <use xlink:href="#DejaVuSans-30" x="190.869141"/>
      </g>
     </g>
    </g>
    <g id="xtick_5">
     <g id="line2d_5">
      <g>
       <use xlink:href="#mfbedfbd780" x="354.092188" y="266.112" style="fill: #808080; stroke: #808080; stroke-width: 0.8"/>
      </g>
     </g>
     <g id="text_5">
      <!-- 2000 -->
      <g style="fill: #808080" transform="translate(341.367188 280.710438) scale(0.1 -0.1)">
       <defs>
        <path id="DejaVuSans-32" d="M 1228 531 
L 3431 531 
L 3431 0 
L 469 0 
L 469 531 
Q 828 903 1448 1529 
Q 2069 2156 2228 2338 
Q 2531 2678 2651 2914 
Q 2772 3150 2772 3378 
Q 2772 3750 2511 3984 
Q 2250 4219 1831 4219 
Q 1534 4219 1204 4116 
Q 875 4013 500 3803 
L 500 4441 
Q 881 4594 1212 4672 
Q 1544 4750 1819 4750 
Q 2544 4750 2975 4387 
Q 3406 4025 3406 3419 
Q 3406 3131 3298 2873 
Q 3191 2616 2906 2266 
Q 2828 2175 2409 1742 
Q 1991 1309 1228 531 
z
" transform="scale(0.015625)"/>
       </defs>
       <use xlink:href="#DejaVuSans-32"/>
       <use xlink:href="#DejaVuSans-30" x="63.623047"/>
       <use xlink:href="#DejaVuSans-30" x="127.246094"/>
       <use xlink:href="#DejaVuSans-30" x="190.869141"/>
      </g>
     </g>
    </g>
    <g id="xtick_6">
     <g id="line2d_6">
      <g>
       <use xlink:href="#mfbedfbd780" x="423.842188" y="266.112" style="fill: #808080; stroke: #808080; stroke-width: 0.8"/>
      </g>
     </g>
     <g id="text_6">
      <!-- 2500 -->
      <g style="fill: #808080" transform="translate(411.117188 280.710438) scale(0.1 -0.1)">
       <use xlink:href="#DejaVuSans-32"/>
       <use xlink:href="#DejaVuSans-35" x="63.623047"/>
       <use xlink:href="#DejaVuSans-30" x="127.246094"/>
       <use xlink:href="#DejaVuSans-30" x="190.869141"/>
      </g>
     </g>
    </g>
    <g id="xtick_7">
     <g id="line2d_7">
      <g>
       <use xlink:href="#mfbedfbd780" x="493.592188" y="266.112" style="fill: #808080; stroke: #808080; stroke-width: 0.8"/>
      </g>
     </g>
     <g id="text_7">
      <!-- 3000 -->
      <g style="fill: #808080" transform="translate(480.867188 280.710438) scale(0.1 -0.1)">
       <defs>
        <path id="DejaVuSans-33" d="M 2597 2516 
Q 3050 2419 3304 2112 
Q 3559 1806 3559 1356 
Q 3559 666 3084 287 
Q 2609 -91 1734 -91 
Q 1441 -91 1130 -33 
Q 819 25 488 141 
L 488 750 
Q 750 597 1062 519 
Q 1375 441 1716 441 
Q 2309 441 2620 675 
Q 2931 909 2931 1356 
Q 2931 1769 2642 2001 
Q 2353 2234 1838 2234 
L 1294 2234 
L 1294 2753 
L 1863 2753 
Q 2328 2753 2575 2939 
Q 2822 3125 2822 3475 
Q 2822 3834 2567 4026 
Q 2313 4219 1838 4219 
Q 1578 4219 1281 4162 
Q 984 4106 628 3988 
L 628 4550 
Q 988 4650 1302 4700 
Q 1616 4750 1894 4750 
Q 2613 4750 3031 4423 
Q 3450 4097 3450 3541 
Q 3450 3153 3228 2886 
Q 3006 2619 2597 2516 
z
" transform="scale(0.015625)"/>
       </defs>
       <use xlink:href="#DejaVuSans-33"/>
       <use xlink:href="#DejaVuSans-30" x="63.623047"/>
       <use xlink:href="#DejaVuSans-30" x="127.246094"/>
       <use xlink:href="#DejaVuSans-30" x="190.869141"/>
      </g>
     </g>
    </g>
    <g id="xtick_8">
     <g id="line2d_8">
      <g>
       <use xlink:href="#mfbedfbd780" x="563.342188" y="266.112" style="fill: #808080; stroke: #808080; stroke-width: 0.8"/>
      </g>
     </g>
     <g id="text_8">
      <!-- 3500 -->
      <g style="fill: #808080" transform="translate(550.617188 280.710438) scale(0.1 -0.1)">
       <use xlink:href="#DejaVuSans-33"/>
       <use xlink:href="#DejaVuSans-35" x="63.623047"/>
       <use xlink:href="#DejaVuSans-30" x="127.246094"/>
       <use xlink:href="#DejaVuSans-30" x="190.869141"/>
      </g>
     </g>
    </g>
    <g id="xtick_9">
     <g id="line2d_9">
      <g>
       <use xlink:href="#mfbedfbd780" x="633.092188" y="266.112" style="fill: #808080; stroke: #808080; stroke-width: 0.8"/>
      </g>
     </g>
     <g id="text_9">
      <!-- 4000 -->
      <g style="fill: #808080" transform="translate(620.367188 280.710438) scale(0.1 -0.1)">
       <defs>
        <path id="DejaVuSans-34" d="M 2419 4116 
L 825 1625 
L 2419 1625 
L 2419 4116 
z
M 2253 4666 
L 3047 4666 
L 3047 1625 
L 3713 1625 
L 3713 1100 
L 3047 1100 
L 3047 0 
L 2419 0 
L 2419 1100 
L 313 1100 
L 313 1709 
L 2253 4666 
z
" transform="scale(0.015625)"/>
       </defs>
       <use xlink:href="#DejaVuSans-34"/>
       <use xlink:href="#DejaVuSans-30" x="63.623047"/>
       <use xlink:href="#DejaVuSans-30" x="127.246094"/>
       <use xlink:href="#DejaVuSans-30" x="190.869141"/>
      </g>
     </g>
    </g>
   </g>
   <g id="matplotlib.axis_2">
    <g id="ytick_1">
     <g id="line2d_10">
      <defs>
       <path id="mce42fda879" d="M 0 0 
L -3.5 0 
" style="stroke: #808080; stroke-width: 0.8"/>
      </defs>
      <g>
       <use xlink:href="#mce42fda879" x="47.192188" y="230.893355" style="fill: #808080; stroke: #808080; stroke-width: 0.8"/>
      </g>
     </g>
     <g id="text_10">
      <!-- −10000 -->
      <g style="fill: #808080" transform="translate(0 234.692573) scale(0.1 -0.1)">
       <defs>
        <path id="DejaVuSans-2212" d="M 678 2272 
L 4684 2272 
L 4684 1741 
L 678 1741 
L 678 2272 
z
" transform="scale(0.015625)"/>
       </defs>
       <use xlink:href="#DejaVuSans-2212"/>
       <use xlink:href="#DejaVuSans-31" x="83.789062"/>
       <use xlink:href="#DejaVuSans-30" x="147.412109"/>
       <use xlink:href="#DejaVuSans-30" x="211.035156"/>
       <use xlink:href="#DejaVuSans-30" x="274.658203"/>
       <use xlink:href="#DejaVuSans-30" x="338.28125"/>
      </g>
     </g>
    </g>
    <g id="ytick_2">
     <g id="line2d_11">
      <g>
       <use xlink:href="#mce42fda879" x="47.192188" y="183.732093" style="fill: #808080; stroke: #808080; stroke-width: 0.8"/>
      </g>
     </g>
     <g id="text_11">
      <!-- −5000 -->
      <g style="fill: #808080" transform="translate(6.3625 187.531312) scale(0.1 -0.1)">
       <use xlink:href="#DejaVuSans-2212"/>
       <use xlink:href="#DejaVuSans-35" x="83.789062"/>
       <use xlink:href="#DejaVuSans-30" x="147.412109"/>
       <use xlink:href="#DejaVuSans-30" x="211.035156"/>
       <use xlink:href="#DejaVuSans-30" x="274.658203"/>
      </g>
     </g>
    </g>
    <g id="ytick_3">
     <g id="line2d_12">
      <g>
       <use xlink:href="#mce42fda879" x="47.192188" y="136.570832" style="fill: #808080; stroke: #808080; stroke-width: 0.8"/>
      </g>
     </g>
     <g id="text_12">
      <!-- 0 -->
      <g style="fill: #808080" transform="translate(33.829688 140.37005) scale(0.1 -0.1)">
       <use xlink:href="#DejaVuSans-30"/>
      </g>
     </g>
    </g>
    <g id="ytick_4">
     <g id="line2d_13">
      <g>
       <use xlink:href="#mce42fda879" x="47.192188" y="89.40957" style="fill: #808080; stroke: #808080; stroke-width: 0.8"/>
      </g>
     </g>
     <g id="text_13">
      <!-- 5000 -->
      <g style="fill: #808080" transform="translate(14.742188 93.208789) scale(0.1 -0.1)">
       <use xlink:href="#DejaVuSans-35"/>
       <use xlink:href="#DejaVuSans-30" x="63.623047"/>
       <use xlink:href="#DejaVuSans-30" x="127.246094"/>
       <use xlink:href="#DejaVuSans-30" x="190.869141"/>
      </g>
     </g>
    </g>
    <g id="ytick_5">
     <g id="line2d_14">
      <g>
       <use xlink:href="#mce42fda879" x="47.192188" y="42.248309" style="fill: #808080; stroke: #808080; stroke-width: 0.8"/>
      </g>
     </g>
     <g id="text_14">
      <!-- 10000 -->
      <g style="fill: #808080" transform="translate(8.379688 46.047527) scale(0.1 -0.1)">
       <use xlink:href="#DejaVuSans-31"/>
       <use xlink:href="#DejaVuSans-30" x="63.623047"/>
       <use xlink:href="#DejaVuSans-30" x="127.246094"/>
       <use xlink:href="#DejaVuSans-30" x="190.869141"/>
       <use xlink:href="#DejaVuSans-30" x="254.492188"/>
      </g>
     </g>
    </g>
   </g>
   <g id="line2d_15">
    <path d="M 75.092188 136.560021 
L 76.50199 136.589523 
L 77.347872 136.547603 
L 78.193754 136.598782 
L 78.475715 136.541223 
L 78.757675 136.602156 
L 79.039636 136.537721 
L 79.321596 136.605809 
L 79.603557 136.533893 
L 79.885517 136.60984 
L 80.167478 136.529627 
L 80.449439 136.614376 
L 80.731399 136.524781 
L 81.01336 136.61958 
L 81.29532 136.519164 
L 81.577281 136.625676 
L 81.859242 136.512509 
L 82.141202 136.632985 
L 82.423163 136.504429 
L 82.705123 136.641981 
L 82.987084 136.494336 
L 83.269044 136.653403 
L 83.551005 136.481283 
L 83.832966 136.668483 
L 84.114926 136.463641 
L 84.396887 136.689426 
L 84.678847 136.438347 
L 84.960808 136.72062 
L 85.242769 136.398875 
L 85.524729 136.772222 
L 85.80669 136.328468 
L 86.08865 136.874101 
L 86.370611 136.167785 
L 86.652572 137.165435 
L 86.934532 135.476158 
L 87.498453 152.009208 
L 87.780414 149.104308 
L 88.344335 149.671189 
L 88.626296 145.912049 
L 89.190217 124.212169 
L 90.318059 95.509578 
L 90.60002 96.917246 
L 90.88198 100.468389 
L 91.163941 102.529625 
L 91.445901 105.702518 
L 92.291783 129.668394 
L 92.573744 132.507351 
L 92.855704 138.979572 
L 93.137665 140.62105 
L 93.419626 134.062442 
L 93.701586 132.153582 
L 93.983547 136.630109 
L 94.265507 138.369653 
L 94.547468 137.202729 
L 94.829429 138.575009 
L 95.111389 139.126758 
L 95.67531 134.781308 
L 96.239231 132.721991 
L 96.521192 133.123168 
L 97.085113 139.904225 
L 97.367074 140.180122 
L 97.649034 138.701594 
L 97.930995 138.263598 
L 98.212956 136.565284 
L 98.494916 130.919551 
L 98.776877 127.569079 
L 99.340798 132.84489 
L 99.622758 131.493191 
L 99.904719 131.624865 
L 100.750601 142.938283 
L 101.032561 141.673487 
L 101.314522 139.513659 
L 101.596483 139.526176 
L 101.878443 140.059492 
L 102.160404 139.503161 
L 102.442364 139.859411 
L 102.724325 141.781359 
L 103.288246 143.218435 
L 103.570207 144.771853 
L 103.852167 144.001625 
L 104.134128 140.850223 
L 104.416088 140.905843 
L 104.698049 143.817028 
L 104.98001 144.670875 
L 105.26197 143.744198 
L 105.825891 144.51788 
L 106.107852 144.127244 
L 106.389813 146.248426 
L 106.953734 155.07839 
L 107.235694 155.853998 
L 107.799615 154.622325 
L 108.081576 152.227054 
L 108.363537 146.935631 
L 108.927458 127.75134 
L 109.491379 107.388644 
L 109.77334 101.291103 
L 110.0553 98.298303 
L 110.337261 97.928945 
L 111.183143 104.418126 
L 111.465103 108.622369 
L 112.029024 118.977912 
L 112.310985 121.342576 
L 113.156867 133.489258 
L 113.720788 144.267725 
L 114.284709 149.044773 
L 114.56667 151.053213 
L 114.84863 150.975241 
L 115.130591 151.254125 
L 115.412551 151.976303 
L 115.694512 146.565835 
L 115.976472 136.878378 
L 116.258433 133.620008 
L 116.540394 135.773793 
L 116.822354 135.853145 
L 117.104315 135.065231 
L 117.386275 135.345114 
L 117.668236 134.161086 
L 117.950197 134.163548 
L 118.232157 136.302597 
L 118.514118 135.633141 
L 118.796078 133.844906 
L 119.078039 135.679755 
L 119.36 136.617414 
L 119.64196 134.914191 
L 119.923921 136.057399 
L 120.205881 138.162207 
L 120.769802 133.547645 
L 121.051763 134.558656 
L 121.333724 134.011728 
L 121.615684 130.467727 
L 121.897645 128.443764 
L 122.179605 128.674184 
L 122.461566 128.60661 
L 122.743527 127.480126 
L 123.025487 127.210065 
L 123.307448 128.637579 
L 123.589408 129.134458 
L 123.871369 127.420248 
L 124.153329 129.330895 
L 124.717251 147.716476 
L 124.999211 150.369716 
L 125.281172 150.553089 
L 125.563132 152.470603 
L 125.845093 152.143536 
L 126.690975 137.104577 
L 126.972935 135.900096 
L 127.536857 135.2581 
L 127.818817 133.907888 
L 128.100778 133.110018 
L 129.22862 141.210495 
L 129.510581 145.131544 
L 129.792541 146.147102 
L 130.074502 142.931609 
L 130.356462 137.721865 
L 131.202344 112.886316 
L 131.766265 109.585444 
L 132.048226 106.961056 
L 132.330186 106.507141 
L 132.612147 108.306466 
L 133.739989 119.107508 
L 135.149792 140.24555 
L 135.995674 149.463228 
L 136.277635 149.805049 
L 136.559595 149.744209 
L 136.841556 148.348752 
L 137.123516 144.660116 
L 137.405477 143.076462 
L 137.687438 143.597835 
L 137.969398 138.396152 
L 138.251359 129.130784 
L 138.533319 126.19897 
L 138.81528 128.849649 
L 139.097241 128.625363 
L 139.379201 126.938283 
L 139.661162 129.124877 
L 140.225083 136.950312 
L 140.507043 138.556771 
L 140.789004 138.464738 
L 141.070965 139.067798 
L 141.634886 146.340123 
L 141.916846 145.156929 
L 142.198807 142.21815 
L 142.762728 141.535872 
L 143.326649 137.116264 
L 143.60861 136.953697 
L 143.890571 135.772267 
L 144.172531 135.547174 
L 144.454492 138.094381 
L 144.736452 138.390899 
L 145.018413 135.035671 
L 145.300373 133.354634 
L 145.582334 133.454477 
L 146.146255 128.865747 
L 146.428216 129.615932 
L 146.710176 134.452841 
L 147.274098 149.538586 
L 147.556058 150.951301 
L 147.838019 151.514301 
L 148.119979 153.651567 
L 148.40194 151.346185 
L 148.6839 146.118922 
L 148.965861 147.107084 
L 149.247822 151.884036 
L 149.529782 152.304212 
L 149.811743 150.570158 
L 150.093703 151.126414 
L 150.375664 149.949763 
L 150.657625 142.473862 
L 151.785467 96.320166 
L 152.067428 86.077565 
L 152.349388 80.062572 
L 152.631349 79.983586 
L 153.19527 83.303819 
L 153.47723 89.288265 
L 154.041152 106.78469 
L 154.605073 114.657556 
L 155.732915 144.755174 
L 156.296836 150.988345 
L 156.578797 150.26317 
L 156.860757 149.126933 
L 157.142718 149.901134 
L 157.424679 149.074947 
L 157.9886 139.129036 
L 158.552521 140.259021 
L 159.116442 127.816652 
L 159.398403 126.944346 
L 159.680363 129.383275 
L 160.244285 127.741944 
L 160.526245 132.66901 
L 160.808206 139.952138 
L 161.090166 142.767147 
L 161.372127 142.139567 
L 161.654087 141.824269 
L 161.936048 139.801839 
L 162.499969 127.550747 
L 162.78193 126.995386 
L 163.06389 128.633106 
L 163.627812 125.163564 
L 163.909772 129.421616 
L 164.473693 144.039759 
L 164.755654 147.198436 
L 165.037614 148.811283 
L 165.601536 150.082184 
L 166.447417 154.177192 
L 167.011339 160.499965 
L 167.293299 159.099372 
L 167.57526 155.169968 
L 167.85722 153.462354 
L 168.139181 155.200217 
L 168.421142 154.935151 
L 168.985063 145.63912 
L 169.267023 145.942775 
L 169.548984 140.958535 
L 170.112905 114.718944 
L 170.676826 105.379799 
L 170.958787 103.255811 
L 171.240747 103.809487 
L 171.522708 104.918061 
L 171.804669 107.433101 
L 172.086629 112.774998 
L 172.36859 115.470832 
L 172.932511 109.301508 
L 173.214471 111.760543 
L 173.496432 115.234112 
L 173.778393 116.831178 
L 174.060353 122.178472 
L 174.624274 144.567171 
L 174.906235 145.07877 
L 175.188196 141.595413 
L 175.470156 141.296895 
L 175.752117 139.727491 
L 176.316038 125.595584 
L 176.597999 124.825299 
L 176.879959 126.05566 
L 177.16192 124.565089 
L 177.44388 123.719212 
L 177.725841 128.466453 
L 178.007801 135.377462 
L 178.289762 137.612442 
L 178.571723 136.198025 
L 178.853683 136.491512 
L 179.135644 138.213681 
L 179.417604 138.626575 
L 179.699565 138.191963 
L 179.981526 138.055952 
L 180.263486 138.695858 
L 181.109368 143.767855 
L 181.391328 144.945575 
L 181.673289 144.757417 
L 181.95525 143.892526 
L 182.23721 146.716295 
L 182.519171 151.843602 
L 182.801131 153.976998 
L 183.083092 154.31479 
L 183.365053 155.459687 
L 183.647013 155.968383 
L 183.928974 157.112748 
L 184.210934 159.504816 
L 184.492895 159.163682 
L 184.774856 157.672692 
L 185.902698 166.178169 
L 186.184658 163.885953 
L 186.466619 154.876715 
L 186.74858 150.831974 
L 187.03054 155.269478 
L 187.312501 157.372297 
L 187.594461 156.28245 
L 187.876422 157.254861 
L 188.158383 153.598791 
L 189.004264 114.070618 
L 189.568185 85.814151 
L 190.414067 73.644682 
L 190.696028 74.159073 
L 190.977988 75.16032 
L 191.259949 77.072432 
L 192.951713 130.134767 
L 194.361515 155.371513 
L 194.643476 157.219342 
L 194.925437 156.360933 
L 195.207397 156.154359 
L 195.489358 155.062325 
L 196.053279 149.26828 
L 196.33524 148.788294 
L 196.6172 143.756358 
L 196.899161 135.012828 
L 197.181121 131.790148 
L 197.463082 133.458817 
L 197.745042 129.844851 
L 198.027003 123.853224 
L 198.308964 128.603563 
L 198.590924 141.156169 
L 198.872885 146.851187 
L 199.154845 145.56237 
L 199.436806 147.191138 
L 199.718767 151.604745 
L 200.564648 159.425109 
L 200.846609 159.276628 
L 201.12857 158.352079 
L 201.41053 158.961294 
L 201.692491 156.392167 
L 201.974451 149.83809 
L 202.256412 147.145767 
L 202.538372 149.34544 
L 202.820333 148.075806 
L 203.102294 142.723206 
L 203.384254 140.571252 
L 203.666215 140.87405 
L 203.948175 136.895432 
L 204.512097 124.476193 
L 204.794057 122.073936 
L 205.076018 120.642126 
L 205.357978 120.652257 
L 205.921899 122.220034 
L 206.20386 123.89475 
L 207.049742 135.071822 
L 207.613663 144.035026 
L 207.895624 146.916254 
L 208.459545 157.590364 
L 208.741505 159.114555 
L 209.023466 158.393217 
L 209.587387 165.787052 
L 209.869348 162.651936 
L 210.151308 155.611276 
L 210.715229 147.166717 
L 211.279151 121.149595 
L 211.843072 99.745008 
L 212.406993 82.107025 
L 212.688954 79.208123 
L 212.970914 82.515618 
L 213.534835 92.910483 
L 214.944638 132.013028 
L 215.508559 136.792696 
L 216.354441 157.769411 
L 216.636402 156.5494 
L 216.918362 157.560654 
L 217.200323 156.129563 
L 217.764244 140.10327 
L 218.328165 138.256909 
L 218.610126 135.478475 
L 218.892086 136.040069 
L 219.174047 138.849013 
L 219.456008 138.29046 
L 219.737968 135.763464 
L 220.019929 134.965348 
L 220.58385 134.766106 
L 220.865811 135.191485 
L 221.147771 135.365652 
L 221.429732 135.906864 
L 221.711692 138.025669 
L 221.993653 138.893819 
L 222.275613 138.55612 
L 222.557574 142.971868 
L 222.839535 149.33217 
L 223.121495 147.425169 
L 223.403456 141.857949 
L 223.685416 144.65224 
L 223.967377 149.417092 
L 224.531298 138.844479 
L 224.813259 139.230245 
L 225.095219 140.004508 
L 225.37718 138.714328 
L 225.941101 141.332527 
L 226.223062 140.221962 
L 226.505022 140.989325 
L 226.786983 144.21886 
L 227.068943 145.777398 
L 227.350904 146.648563 
L 227.632865 150.441883 
L 228.196786 159.842408 
L 228.760707 160.789951 
L 229.042668 162.71986 
L 229.324628 162.961297 
L 229.606589 162.32448 
L 229.888549 165.444379 
L 230.17051 170.336604 
L 231.016392 178.526829 
L 231.298352 176.218536 
L 231.862273 154.482422 
L 232.426195 126.196391 
L 233.272076 68.291931 
L 233.554037 64.495464 
L 233.835998 65.5027 
L 234.117958 64.488861 
L 234.399919 67.01193 
L 235.809722 114.847806 
L 236.937564 145.824203 
L 237.219525 149.503732 
L 237.501485 150.768458 
L 238.065406 151.520161 
L 238.347367 151.262859 
L 238.911288 150.56476 
L 239.193249 147.979424 
L 239.475209 144.211559 
L 239.75717 145.772134 
L 240.03913 151.420111 
L 240.321091 152.130361 
L 240.603052 148.038576 
L 240.885012 146.240337 
L 241.166973 145.692265 
L 241.730894 138.903599 
L 242.012855 139.22877 
L 242.294815 140.897494 
L 242.576776 140.850036 
L 243.140697 137.768374 
L 243.422657 137.422707 
L 243.704618 136.635321 
L 243.986579 135.292002 
L 244.268539 136.003552 
L 244.5505 138.644378 
L 244.83246 139.485009 
L 245.114421 138.111989 
L 245.396382 137.766745 
L 245.678342 138.611165 
L 245.960303 138.289827 
L 246.242263 137.49009 
L 246.524224 137.906248 
L 247.088145 140.190059 
L 247.370106 141.696201 
L 247.652066 140.990193 
L 247.934027 138.669897 
L 248.497948 137.854489 
L 248.779909 134.797603 
L 249.061869 133.862961 
L 249.34383 136.18242 
L 249.62579 136.454245 
L 249.907751 138.642039 
L 250.471672 161.222317 
L 250.753633 161.572295 
L 251.035593 157.8078 
L 251.317554 160.019617 
L 251.881475 168.668052 
L 252.445396 172.408325 
L 252.727357 173.170018 
L 253.009317 172.307401 
L 253.291278 167.741303 
L 253.573239 157.245473 
L 254.983041 84.173706 
L 255.546963 69.86705 
L 255.828923 68.740246 
L 256.392844 76.523612 
L 256.674805 81.709912 
L 258.648529 143.01055 
L 259.21245 150.918014 
L 259.776371 158.036272 
L 260.058332 157.113689 
L 260.340293 154.121713 
L 260.622253 152.771926 
L 260.904214 152.642721 
L 261.186174 151.624673 
L 261.750096 146.330144 
L 262.877938 134.701756 
L 263.159898 135.433178 
L 263.441859 137.766784 
L 263.72382 135.154438 
L 264.00578 127.92356 
L 264.287741 124.316571 
L 264.569701 126.340189 
L 264.851662 126.664574 
L 265.133623 123.725798 
L 265.415583 125.535475 
L 265.979504 139.418597 
L 266.543425 137.837691 
L 266.825386 139.523561 
L 267.107347 139.079935 
L 267.389307 136.269084 
L 267.671268 136.721006 
L 267.953228 140.133354 
L 268.235189 140.625446 
L 268.51715 139.089489 
L 268.79911 141.876368 
L 269.363031 154.69429 
L 270.208913 163.295268 
L 270.490874 164.297969 
L 271.054795 155.298085 
L 271.336755 156.384055 
L 271.618716 161.243615 
L 271.900677 162.380489 
L 272.182637 162.881511 
L 272.746558 179.162931 
L 273.028519 181.307532 
L 273.59244 176.481979 
L 273.874401 170.420749 
L 274.438322 136.476582 
L 275.284204 89.247997 
L 275.566164 79.093371 
L 275.848125 74.704227 
L 276.130085 72.626068 
L 276.412046 71.766353 
L 276.694007 73.49885 
L 276.975967 77.885633 
L 277.257928 86.767308 
L 277.821849 112.63742 
L 279.513612 146.558906 
L 279.795573 149.183291 
L 280.923415 140.65566 
L 281.205376 142.954595 
L 281.487337 147.740098 
L 281.769297 147.685134 
L 282.051258 145.298192 
L 282.333218 145.568253 
L 282.615179 142.96713 
L 282.897139 134.832968 
L 283.1791 129.913281 
L 283.743021 134.165953 
L 284.024982 134.064534 
L 284.306942 134.213654 
L 284.870864 135.422681 
L 285.434785 139.074567 
L 285.716745 137.818092 
L 285.998706 137.86586 
L 286.562627 148.980368 
L 286.844588 150.04711 
L 287.126548 148.610161 
L 287.408509 149.341358 
L 287.690469 149.749253 
L 288.536351 137.246207 
L 288.818312 138.599013 
L 289.382233 134.641414 
L 289.664194 139.830026 
L 289.946154 148.05839 
L 290.228115 150.693206 
L 290.510075 150.202394 
L 290.792036 152.064399 
L 291.073996 152.463293 
L 291.355957 149.516518 
L 291.637918 149.432094 
L 291.919878 152.10948 
L 292.201839 152.421319 
L 292.483799 154.97969 
L 292.76576 163.283449 
L 293.047721 166.348273 
L 293.329681 159.456413 
L 293.611642 156.3295 
L 294.175563 167.92279 
L 294.457524 167.956452 
L 294.739484 172.250661 
L 295.021445 180.039723 
L 295.303405 181.388523 
L 295.585366 175.409508 
L 295.867326 166.721132 
L 296.149287 152.971444 
L 296.995169 87.405781 
L 297.55909 65.139357 
L 297.841051 57.959776 
L 298.123011 58.31512 
L 298.968893 79.359134 
L 299.532814 99.754714 
L 300.096735 113.320139 
L 300.660656 136.669643 
L 301.224578 153.031825 
L 301.506538 157.010784 
L 301.788499 156.254427 
L 302.35242 157.136222 
L 302.916341 148.655423 
L 303.198302 150.277908 
L 303.480262 147.740125 
L 303.762223 139.108001 
L 304.044183 136.43237 
L 304.326144 140.170667 
L 304.608105 138.989073 
L 304.890065 134.723245 
L 305.172026 137.204089 
L 305.453986 143.313648 
L 305.735947 144.875245 
L 306.017908 144.041661 
L 306.581829 147.07715 
L 306.863789 143.654389 
L 307.14575 137.396238 
L 307.42771 134.640758 
L 307.709671 136.216758 
L 307.991632 136.147109 
L 308.273592 133.165076 
L 308.555553 134.283398 
L 309.119474 146.60066 
L 309.401435 146.182067 
L 309.683395 144.872478 
L 309.965356 144.402438 
L 310.247316 141.037636 
L 310.529277 135.53498 
L 310.811238 133.633536 
L 311.93908 144.690985 
L 312.22104 149.808762 
L 312.503001 151.974041 
L 312.784962 150.823685 
L 313.066922 151.306091 
L 313.348883 155.403075 
L 313.630843 157.72133 
L 314.194765 147.828344 
L 314.476725 149.097273 
L 314.758686 153.420924 
L 315.040646 154.30328 
L 315.322607 159.215215 
L 315.886528 187.22925 
L 316.168489 187.343252 
L 316.73241 174.952413 
L 317.296331 143.275677 
L 318.424173 78.192703 
L 318.988095 67.796205 
L 319.270055 65.728067 
L 319.833976 72.313359 
L 320.115937 76.908704 
L 320.679858 92.363966 
L 321.243779 113.112662 
L 321.8077 133.852706 
L 322.935543 165.9728 
L 323.217503 162.394428 
L 323.499464 160.80773 
L 323.781424 161.714115 
L 324.063385 157.345396 
L 324.345346 149.222635 
L 324.627306 146.470253 
L 324.909267 147.473549 
L 325.191227 144.795476 
L 325.473188 140.870225 
L 325.755149 141.167218 
L 326.037109 143.447837 
L 326.31907 144.185908 
L 326.60103 143.165038 
L 327.164952 137.741901 
L 327.446912 137.792811 
L 327.728873 138.828345 
L 328.292794 136.931442 
L 328.574754 136.873917 
L 328.856715 136.685301 
L 329.138676 138.990258 
L 329.702597 151.689988 
L 329.984557 151.672132 
L 330.266518 149.36255 
L 330.830439 147.357625 
L 331.1124 146.911076 
L 331.676321 147.879776 
L 331.958281 150.897579 
L 332.240242 157.122516 
L 332.522203 159.510562 
L 333.086124 148.557155 
L 333.368084 151.128122 
L 333.650045 155.73242 
L 333.932006 155.355865 
L 334.213966 155.858575 
L 334.777887 172.147267 
L 335.059848 170.605069 
L 335.341809 165.948912 
L 335.623769 168.065529 
L 335.90573 172.091528 
L 336.469651 169.164287 
L 337.033572 175.232694 
L 337.315533 174.167306 
L 337.597493 169.498854 
L 338.161414 153.079092 
L 338.443375 139.610931 
L 339.289257 87.315203 
L 339.853178 58.935074 
L 340.135138 51.425363 
L 340.417099 51.861583 
L 340.69906 53.984893 
L 340.98102 57.378882 
L 341.544941 71.990431 
L 342.108863 97.268104 
L 342.672784 122.264532 
L 343.236705 136.925507 
L 343.518666 140.664744 
L 344.082587 150.718945 
L 344.364547 150.726949 
L 344.646508 148.489593 
L 344.928468 148.975445 
L 345.210429 151.930479 
L 345.49239 152.799575 
L 346.056311 146.223864 
L 346.338271 145.776988 
L 346.620232 144.808995 
L 347.184153 139.287273 
L 347.466114 138.224193 
L 347.748074 135.204224 
L 348.030035 134.767399 
L 348.593956 148.108018 
L 348.875917 147.088193 
L 349.157877 144.274876 
L 349.721798 146.430878 
L 350.003759 144.895407 
L 350.28572 144.864956 
L 351.131601 151.671272 
L 351.413562 151.072086 
L 351.977483 138.21229 
L 352.259444 135.890987 
L 352.541404 136.210223 
L 352.823365 135.881811 
L 353.105325 137.276804 
L 353.669247 147.265901 
L 353.951207 149.835871 
L 354.515128 151.424702 
L 355.07905 155.412193 
L 355.924931 163.765049 
L 356.206892 168.318602 
L 357.334734 194.086996 
L 357.616695 198.113037 
L 357.898655 197.06101 
L 358.180616 190.791766 
L 358.462577 181.209227 
L 359.026498 149.548349 
L 360.436301 61.864021 
L 360.718261 53.658296 
L 361.000222 49.353361 
L 361.282182 51.404431 
L 361.564143 55.575948 
L 361.846104 55.261032 
L 362.128064 53.654393 
L 362.410025 59.487728 
L 362.973946 81.558602 
L 363.255907 90.042997 
L 363.537867 106.105287 
L 364.101788 146.916537 
L 364.383749 153.552456 
L 364.665709 156.095506 
L 364.94767 160.4269 
L 365.229631 162.271747 
L 365.511591 157.326085 
L 365.793552 149.88284 
L 366.075512 145.662796 
L 366.357473 144.619035 
L 366.639434 144.248221 
L 366.921394 143.403454 
L 367.203355 142.062557 
L 367.485315 141.425104 
L 368.049237 143.086515 
L 368.331197 143.358131 
L 368.895118 145.295002 
L 369.177079 145.400421 
L 369.741 145.246559 
L 370.304921 142.36855 
L 370.586882 142.674851 
L 370.868842 141.244 
L 371.150803 137.275391 
L 371.432764 135.548497 
L 371.714724 136.007327 
L 371.996685 135.468132 
L 372.278645 138.150906 
L 372.842566 153.721325 
L 373.406488 156.035388 
L 373.688448 158.512655 
L 373.970409 159.601182 
L 374.53433 166.34543 
L 374.816291 166.090469 
L 375.098251 166.141752 
L 375.380212 171.825421 
L 375.662172 174.606434 
L 375.944133 169.250051 
L 376.226094 166.781483 
L 376.790015 181.869421 
L 377.071975 184.819998 
L 377.353936 189.457306 
L 377.917857 209.594186 
L 378.199818 207.288197 
L 378.763739 181.715537 
L 379.045699 163.006463 
L 379.891581 85.924495 
L 380.737463 38.033705 
L 381.019423 31.27072 
L 381.301384 30.22432 
L 381.583345 31.357993 
L 381.865305 34.262027 
L 382.429226 48.23649 
L 382.993148 69.062995 
L 384.402951 140.953349 
L 384.684911 140.583447 
L 384.966872 141.808538 
L 385.530793 158.648664 
L 385.812753 158.99425 
L 386.094714 161.085205 
L 386.376675 169.50418 
L 386.658635 172.762568 
L 387.504517 147.87159 
L 387.786478 144.448908 
L 388.350399 132.283463 
L 388.91432 131.089887 
L 389.19628 131.192248 
L 390.324123 145.103011 
L 390.606083 151.72936 
L 390.888044 155.337814 
L 391.451965 150.037766 
L 391.733926 149.591115 
L 392.015886 147.707449 
L 392.579808 137.584915 
L 392.861768 141.86515 
L 393.143729 149.304833 
L 393.425689 151.272696 
L 393.70765 150.651183 
L 394.271571 160.389328 
L 394.553532 158.658474 
L 394.835492 153.107854 
L 395.117453 151.673227 
L 395.399413 152.499523 
L 395.681374 149.364333 
L 395.963335 144.181743 
L 396.245295 144.246875 
L 396.809216 154.94477 
L 397.091177 155.874602 
L 397.373137 157.854978 
L 397.937059 167.581902 
L 398.219019 166.090277 
L 398.50098 163.316177 
L 398.78294 168.368944 
L 399.346862 195.44868 
L 399.910783 206.567262 
L 400.192743 210.640219 
L 400.474704 204.54751 
L 401.038625 166.879169 
L 402.166467 79.497367 
L 403.012349 12.096 
L 403.29431 16.457192 
L 403.57627 23.727732 
L 403.858231 26.424059 
L 404.704113 44.209026 
L 404.986073 53.617089 
L 406.677837 156.777579 
L 406.959797 161.407808 
L 407.241758 168.983838 
L 407.523719 171.354828 
L 407.805679 168.048758 
L 408.08764 167.610646 
L 408.3696 166.650121 
L 408.933522 154.034712 
L 409.779403 147.758124 
L 410.343324 149.734039 
L 410.625285 149.790778 
L 410.907246 148.245951 
L 411.471167 130.815861 
L 411.753127 130.797052 
L 412.035088 140.450011 
L 412.317049 145.482362 
L 412.599009 143.213116 
L 412.88097 144.536766 
L 413.16293 149.931518 
L 413.444891 149.538693 
L 414.008812 138.029314 
L 414.290773 136.917947 
L 414.572733 139.05862 
L 415.136654 146.335878 
L 415.418615 149.65023 
L 415.700576 155.797732 
L 415.982536 159.031698 
L 416.546457 148.970449 
L 416.828418 149.635937 
L 417.110379 149.431043 
L 417.392339 144.53642 
L 417.6743 142.071522 
L 418.520181 149.542183 
L 418.802142 155.370079 
L 419.366063 172.177309 
L 419.929984 177.982442 
L 420.211945 183.581083 
L 420.493906 186.904786 
L 420.775866 186.604016 
L 421.057827 190.709536 
L 421.621748 211.859269 
L 421.903708 213.874047 
L 422.185669 210.954339 
L 422.46763 203.294633 
L 423.031551 171.758461 
L 423.595472 128.272923 
L 424.159393 83.925025 
L 425.005275 27.093849 
L 425.287236 21.280412 
L 425.569196 23.334517 
L 426.133117 30.640289 
L 426.697038 42.1844 
L 427.26096 62.996335 
L 428.388802 126.722938 
L 428.952723 161.553813 
L 429.234684 170.187385 
L 429.516644 171.986479 
L 429.798605 169.985958 
L 430.080565 163.760965 
L 430.644487 143.327309 
L 431.490368 103.563193 
L 432.33625 87.13798 
L 432.618211 91.37268 
L 433.464093 112.506978 
L 433.746053 124.338365 
L 434.028014 130.058957 
L 434.591935 125.816386 
L 434.873895 128.569834 
L 435.155856 129.028686 
L 435.437817 125.38296 
L 435.719777 125.211825 
L 436.001738 133.975169 
L 436.565659 157.564558 
L 437.12958 164.953933 
L 437.411541 168.24467 
L 437.693501 168.223601 
L 437.975462 164.8351 
L 438.257422 163.498609 
L 439.385265 176.022541 
L 439.949186 197.005174 
L 440.231147 202.130647 
L 440.513107 204.671688 
L 441.077028 214.142429 
L 441.358989 214.716123 
L 441.64095 218.097187 
L 441.92291 225.493725 
L 442.204871 226.408931 
L 442.768792 209.413137 
L 443.050752 198.787056 
L 443.896634 142.233134 
L 444.742516 52.684826 
L 445.024477 40.91014 
L 445.588398 29.70219 
L 445.870358 28.583521 
L 446.152319 28.036585 
L 446.71624 19.7488 
L 446.998201 24.246453 
L 447.844082 59.13251 
L 448.689964 123.136561 
L 448.971925 127.901419 
L 449.253885 129.666454 
L 449.817806 142.790577 
L 450.099767 143.676958 
L 450.381728 145.127591 
L 450.663688 150.795136 
L 450.945649 153.532396 
L 451.227609 153.669531 
L 451.791531 168.190125 
L 452.073491 168.100412 
L 452.355452 167.508785 
L 452.919373 179.426024 
L 453.483294 167.808135 
L 453.765255 168.982568 
L 454.047215 169.222853 
L 454.329176 163.01068 
L 455.175058 133.29134 
L 455.738979 123.127614 
L 456.020939 119.522386 
L 456.3029 118.023656 
L 456.584861 117.967784 
L 456.866821 118.251949 
L 457.148782 121.154924 
L 458.276624 146.218166 
L 458.840545 170.348228 
L 459.404466 181.290929 
L 459.686427 189.610936 
L 459.968388 194.08316 
L 460.250348 192.549394 
L 460.532309 192.467068 
L 460.814269 197.984823 
L 461.378191 214.073479 
L 462.224072 251.88951 
L 462.506033 254.016 
L 462.787993 247.766189 
L 463.069954 237.881952 
L 463.351915 221.915899 
L 463.915836 155.823595 
L 464.479757 96.174703 
L 465.043678 56.990269 
L 465.325639 52.754734 
L 465.607599 55.331154 
L 465.88956 53.57004 
L 466.17152 48.07688 
L 466.453481 47.423319 
L 466.735442 49.979355 
L 467.017402 47.445665 
L 467.299363 43.146941 
L 467.581323 46.454736 
L 468.145245 69.049817 
L 468.709166 95.549479 
L 469.837008 123.200545 
L 470.118969 123.082206 
L 470.400929 128.452428 
L 470.68289 138.430856 
L 470.96485 144.010755 
L 471.246811 145.540113 
L 471.528772 148.4816 
L 472.092693 158.318294 
L 472.374653 164.608052 
L 472.656614 167.063702 
L 473.220535 161.137162 
L 473.502496 161.747525 
L 473.784456 157.298952 
L 474.066417 147.583269 
L 474.348377 142.907469 
L 474.912299 148.419726 
L 475.194259 149.403898 
L 475.47622 151.392236 
L 475.75818 155.118823 
L 476.040141 156.88035 
L 476.322102 151.413459 
L 476.604062 141.276712 
L 476.886023 137.899481 
L 477.449944 148.031416 
L 477.731905 148.50119 
L 478.013865 152.284956 
L 478.295826 158.043106 
L 478.859747 164.82477 
L 479.141707 170.225308 
L 479.423668 170.905002 
L 479.987589 167.540712 
L 480.26955 156.147563 
L 480.55151 135.505272 
L 480.833471 128.13803 
L 481.397392 154.976931 
L 481.679353 161.659271 
L 482.525234 195.466183 
L 483.089156 184.92162 
L 483.371116 175.606387 
L 483.935037 138.137741 
L 484.780919 78.167154 
L 485.34484 57.077751 
L 485.626801 43.959032 
L 485.908762 36.990638 
L 486.190722 34.180995 
L 486.754643 26.293943 
L 487.036604 27.232566 
L 487.318564 29.052681 
L 487.600525 35.453953 
L 488.446407 80.905857 
L 488.728367 87.754465 
L 489.574249 117.24864 
L 490.420131 150.279139 
L 490.984052 159.15926 
L 491.266013 160.561134 
L 491.547973 156.50563 
L 492.111894 146.9327 
L 492.393855 144.512158 
L 492.675816 140.322312 
L 493.239737 129.911997 
L 493.521697 127.866377 
L 493.803658 127.099287 
L 494.085619 128.819528 
L 494.64954 135.679593 
L 494.9315 136.68555 
L 495.213461 137.060597 
L 495.495421 134.333729 
L 495.777382 129.026666 
L 496.059343 126.44435 
L 496.341303 128.069658 
L 496.623264 133.598839 
L 497.469146 162.519898 
L 497.751106 169.791738 
L 498.033067 173.802344 
L 498.596988 167.843644 
L 498.878948 171.816507 
L 499.44287 182.70098 
L 500.570712 217.657026 
L 500.852673 224.145235 
L 501.416594 246.226765 
L 501.698554 246.304288 
L 502.262476 233.258219 
L 502.826397 230.592367 
L 503.108357 229.857611 
L 503.390318 229.795474 
L 503.672278 227.68649 
L 503.954239 219.053416 
L 504.2362 196.222454 
L 505.082081 101.899906 
L 505.927963 29.224412 
L 506.209924 20.114364 
L 506.491884 15.663718 
L 506.773845 16.607486 
L 507.337766 26.037994 
L 507.619727 34.998247 
L 508.183648 60.05989 
L 508.465608 60.604261 
L 508.747569 60.045741 
L 509.02953 69.007828 
L 509.593451 101.223864 
L 509.875411 110.335143 
L 510.721293 125.20377 
L 511.003254 127.918307 
L 511.285214 129.073555 
L 511.567175 132.095787 
L 512.131096 148.507571 
L 512.413057 151.875874 
L 512.695017 152.716575 
L 512.976978 155.200237 
L 513.258938 156.038772 
L 514.386781 143.090097 
L 514.668741 142.043878 
L 514.950702 144.909061 
L 515.232662 143.908971 
L 515.796584 127.765476 
L 516.078544 127.650888 
L 516.360505 129.614033 
L 516.642465 130.682963 
L 517.206387 136.69407 
L 517.488347 137.413643 
L 518.052268 140.40374 
L 518.334229 140.48439 
L 518.61619 143.799048 
L 518.89815 150.884478 
L 519.180111 154.540825 
L 519.462071 155.116524 
L 519.744032 158.330841 
L 520.025992 163.029068 
L 520.307953 169.708749 
L 520.871874 194.454825 
L 521.153835 200.167172 
L 521.435795 203.297968 
L 521.999717 213.354354 
L 522.845598 232.05773 
L 523.127559 232.365627 
L 523.409519 226.963314 
L 523.69148 213.670689 
L 524.255401 170.158832 
L 524.819322 118.228335 
L 525.383244 86.556618 
L 525.947165 64.979438 
L 526.229125 62.043716 
L 526.793047 61.55928 
L 527.075007 61.780542 
L 527.356968 63.972211 
L 527.920889 73.481659 
L 530.458534 138.864152 
L 531.304416 148.438239 
L 531.868337 141.215323 
L 532.150298 141.20632 
L 532.432258 137.315781 
L 532.996179 121.703102 
L 533.27814 121.029512 
L 533.560101 119.108289 
L 533.842061 116.105673 
L 534.124022 118.928362 
L 534.687943 132.775896 
L 534.969904 134.122032 
L 535.815785 135.734124 
L 536.097746 137.785594 
L 536.379706 137.844281 
L 536.943628 129.59754 
L 537.507549 134.248642 
L 537.789509 134.768874 
L 538.353431 141.479874 
L 538.635391 141.727861 
L 538.917352 144.285036 
L 539.481273 162.605115 
L 540.327155 173.352282 
L 540.609115 178.314468 
L 540.891076 178.620814 
L 541.454997 171.851533 
L 541.736958 172.916583 
L 542.018918 177.106011 
L 542.582839 181.417282 
L 542.8648 193.527156 
L 543.146761 214.495336 
L 543.428721 227.139998 
L 543.710682 226.322543 
L 543.992642 223.079888 
L 544.274603 215.637344 
L 544.838524 163.040537 
L 545.402445 111.258364 
L 545.684406 93.988221 
L 546.248327 76.63421 
L 546.530288 63.472108 
L 546.812248 57.912062 
L 547.094209 60.974313 
L 547.376169 60.972173 
L 547.65813 58.793813 
L 547.94009 64.831407 
L 548.504012 84.473896 
L 548.785972 87.955981 
L 549.067933 94.252101 
L 549.631854 109.889036 
L 550.195775 112.344397 
L 550.759696 120.199799 
L 551.323618 124.295254 
L 551.605578 126.426854 
L 551.887539 125.883564 
L 552.169499 126.326986 
L 552.45146 130.437462 
L 552.73342 131.724248 
L 553.015381 129.801246 
L 553.297342 135.235638 
L 553.579302 146.566234 
L 553.861263 150.018322 
L 554.143223 146.692756 
L 554.425184 146.962233 
L 554.707145 148.192121 
L 554.989105 145.49781 
L 555.271066 143.882647 
L 555.553026 144.284257 
L 556.398908 139.141897 
L 556.680869 138.737769 
L 556.962829 139.143579 
L 557.24479 139.850034 
L 557.52675 139.058654 
L 557.808711 139.873264 
L 558.090672 143.547643 
L 558.372632 143.227676 
L 558.654593 137.976044 
L 558.936553 136.867143 
L 559.218514 141.932605 
L 559.500475 144.945038 
L 559.782435 144.580005 
L 560.064396 147.933429 
L 560.346356 154.84277 
L 560.628317 157.657258 
L 560.910277 156.886887 
L 561.192238 158.736576 
L 561.474199 161.838187 
L 561.756159 162.881943 
L 562.03812 165.92408 
L 562.602041 176.362461 
L 562.884002 180.57666 
L 563.447923 193.6014 
L 563.729883 194.51832 
L 564.011844 196.743896 
L 564.575765 206.899711 
L 564.857726 205.680484 
L 565.139686 201.556387 
L 565.421647 194.27932 
L 565.703607 175.997141 
L 566.549489 80.75652 
L 566.83145 68.254726 
L 567.11341 62.84178 
L 567.959292 54.607999 
L 568.241253 54.773377 
L 568.805174 56.025178 
L 569.087134 60.370275 
L 569.651056 73.372894 
L 569.933016 79.151775 
L 570.214977 89.618012 
L 570.778898 117.857296 
L 571.62478 137.234867 
L 571.90674 141.145301 
L 572.188701 136.571083 
L 572.470661 129.139868 
L 572.752622 126.116027 
L 573.034583 126.214934 
L 573.316543 126.863967 
L 573.880464 129.55433 
L 574.162425 129.171477 
L 574.726346 125.385935 
L 575.008307 125.257786 
L 575.290267 126.739491 
L 575.572228 126.191628 
L 575.854189 124.669377 
L 576.136149 128.614244 
L 576.41811 136.030148 
L 576.70007 138.167812 
L 576.982031 136.329582 
L 577.263991 139.240269 
L 577.545952 145.374305 
L 577.827913 146.94429 
L 578.109873 144.401292 
L 578.391834 143.613428 
L 578.955755 147.619989 
L 579.237716 148.372743 
L 579.519676 148.552054 
L 579.801637 149.393314 
L 580.083597 151.70928 
L 580.365558 154.975473 
L 580.647518 156.46428 
L 581.21144 149.431301 
L 581.4934 151.627293 
L 581.775361 156.946973 
L 582.057321 158.821668 
L 582.339282 162.217057 
L 582.903203 182.858561 
L 583.467124 195.815129 
L 583.749085 203.28811 
L 584.031046 206.217276 
L 584.313006 207.852488 
L 584.594967 210.469819 
L 584.876927 206.52001 
L 586.850651 109.550554 
L 587.696533 84.691379 
L 587.978494 78.202773 
L 588.260454 75.223547 
L 588.542415 74.567233 
L 589.106336 81.976073 
L 589.670257 81.361798 
L 590.234178 94.846455 
L 590.516139 97.649654 
L 590.7981 103.596962 
L 591.643981 140.861816 
L 591.925942 142.901074 
L 592.489863 149.592883 
L 592.771824 145.736613 
L 593.053784 136.41569 
L 593.335745 133.725744 
L 593.617705 137.104143 
L 593.899666 136.533507 
L 594.181627 133.875591 
L 594.463587 133.970439 
L 594.745548 131.898923 
L 595.027508 126.443565 
L 595.309469 124.8518 
L 595.87339 131.283462 
L 596.155351 135.360604 
L 596.437311 137.238582 
L 596.719272 134.493225 
L 597.001232 133.141447 
L 597.283193 135.24767 
L 597.565154 135.039733 
L 597.847114 135.568878 
L 598.411035 152.169115 
L 598.692996 149.973318 
L 598.974957 145.375163 
L 599.256917 146.043617 
L 599.538878 145.669411 
L 599.820838 141.592304 
L 600.102799 139.617162 
L 600.38476 140.81877 
L 600.66672 141.359519 
L 600.948681 140.76481 
L 601.230641 141.484732 
L 601.512602 146.783376 
L 601.794562 154.859536 
L 602.076523 158.731486 
L 602.358484 158.587705 
L 602.922405 165.265103 
L 603.204365 162.158711 
L 603.486326 157.562982 
L 603.768287 157.78881 
L 604.332208 158.900407 
L 604.614168 165.733745 
L 605.178089 183.315774 
L 605.742011 192.100556 
L 606.023971 190.56531 
L 606.305932 184.463719 
L 606.587892 175.342858 
L 607.433774 134.645944 
L 607.715735 126.070069 
L 608.561617 90.617867 
L 608.843577 85.313279 
L 609.125538 84.214674 
L 609.407498 85.480062 
L 609.971419 84.543573 
L 611.099262 98.950756 
L 611.663183 109.651708 
L 611.945144 114.391122 
L 612.509065 127.468679 
L 613.918868 147.013463 
L 614.200828 146.325925 
L 614.482789 146.161454 
L 614.764749 147.952503 
L 615.04671 148.368962 
L 615.328671 146.454977 
L 615.610631 146.077567 
L 615.892592 146.945596 
L 616.174552 145.641017 
L 617.302395 133.66055 
L 617.584355 135.070566 
L 617.866316 141.559826 
L 618.148276 144.644997 
L 618.712198 140.898084 
L 618.994158 140.610866 
L 619.276119 140.948212 
L 620.122001 149.634474 
L 620.967882 174.869528 
L 621.249843 176.831738 
L 621.531803 182.749843 
L 621.813764 180.414449 
L 622.659646 117.789232 
L 623.223567 101.292521 
L 623.505528 97.550814 
L 624.63337 103.025934 
L 624.915331 105.261517 
L 625.197291 111.735084 
L 626.043173 153.96766 
L 626.607094 164.606179 
L 626.889055 165.904641 
L 627.171015 156.255076 
L 627.734936 128.329228 
L 628.580818 107.687677 
L 628.862779 105.65805 
L 629.4267 125.520248 
L 629.70866 127.959793 
L 629.990621 124.708094 
L 630.272582 123.860756 
L 630.554542 123.92698 
L 631.118463 118.878623 
L 631.400424 120.44193 
L 632.246306 128.731445 
L 632.810227 144.940961 
L 633.092188 147.385778 
L 633.092188 147.385778 
" clip-path="url(#p3d117440a8)" style="fill: none; stroke: #1f77b4; stroke-width: 1.5; stroke-linecap: square"/>
   </g>
   <g id="patch_3">
    <path d="M 47.192188 266.112 
L 47.192188 0 
" style="fill: none; stroke: #808080; stroke-width: 0.8; stroke-linejoin: miter; stroke-linecap: square"/>
   </g>
   <g id="patch_4">
    <path d="M 660.992188 266.112 
L 660.992188 0 
" style="fill: none; stroke: #000000; stroke-width: 0.8; stroke-linejoin: miter; stroke-linecap: square"/>
   </g>
   <g id="patch_5">
    <path d="M 47.192188 266.112 
L 660.992188 266.112 
" style="fill: none; stroke: #808080; stroke-width: 0.8; stroke-linejoin: miter; stroke-linecap: square"/>
   </g>
   <g id="patch_6">
    <path d="M 47.192188 0 
L 660.992188 0 
" style="fill: none; stroke: #000000; stroke-width: 0.8; stroke-linejoin: miter; stroke-linecap: square"/>
   </g>
  </g>
 </g>
 <defs>
  <clipPath id="p3d117440a8">
   <rect x="47.192188" y="0" width="613.8" height="266.112"/>
  </clipPath>
 </defs>
</svg>
