<svg xmlns="http://www.w3.org/2000/svg" xmlns:xlink="http://www.w3.org/1999/xlink" width="913.477" height="379.139" viewBox="0 0 685.107 284.354"><defs><style>*{stroke-linejoin:round;stroke-linecap:butt}</style></defs><g id="figure_1"><path id="patch_1" d="M0 284.354h685.107V0H0v284.354z" style="fill:none"/><g id="axes_1"><path id="patch_2" d="M71.308 267.676h613.8V1.564h-613.8v266.112z" style="fill:none"/><g id="matplotlib.axis_1"><g id="xtick_1"><g id="line2d_1"><defs><path id="m7bddeff0be" d="M0 0v3.5" style="stroke:gray;stroke-width:.8"/></defs><use xlink:href="#m7bddeff0be" x="99.207" y="267.676" style="fill:gray;stroke:gray;stroke-width:.8"/></g><g id="text_1" style="fill:gray" transform="matrix(.1 0 0 -.1 96.026 282.274)"><defs><path id="DejaVuSans-30" d="M2034 4250q-487 0-733-480-245-479-245-1442 0-959 245-1439 246-480 733-480 491 0 736 480 246 480 246 1439 0 963-246 1442-245 480-736 480zm0 500q785 0 1199-621 414-620 414-1801 0-1178-414-1799Q2819-91 2034-91q-784 0-1198 620-414 621-414 1799 0 1181 414 1801 414 621 1198 621z" transform="scale(.01563)"/></defs><use xlink:href="#DejaVuSans-30"/></g></g><g id="xtick_2"><use xlink:href="#m7bddeff0be" id="line2d_2" x="168.958" y="267.676" style="fill:gray;stroke:gray;stroke-width:.8"/><g id="text_2" style="fill:gray" transform="matrix(.1 0 0 -.1 159.414 282.274)"><defs><path id="DejaVuSans-35" d="M691 4666h2478v-532H1269V2991q137 47 274 70 138 23 276 23 781 0 1237-428 457-428 457-1159 0-753-469-1171Q2575-91 1722-91q-294 0-599 50Q819 9 494 109v635q281-153 581-228t634-75q541 0 856 284 316 284 316 772 0 487-316 771-315 285-856 285-253 0-505-56-251-56-513-175v2344z" transform="scale(.01563)"/></defs><use xlink:href="#DejaVuSans-35"/><use xlink:href="#DejaVuSans-30" x="63.623"/><use xlink:href="#DejaVuSans-30" x="127.246"/></g></g><g id="xtick_3"><use xlink:href="#m7bddeff0be" id="line2d_3" x="238.708" y="267.676" style="fill:gray;stroke:gray;stroke-width:.8"/><g id="text_3" style="fill:gray" transform="matrix(.1 0 0 -.1 225.982 282.274)"><defs><path id="DejaVuSans-31" d="M794 531h1031v3560L703 3866v575l1116 225h631V531h1031V0H794v531z" transform="scale(.01563)"/></defs><use xlink:href="#DejaVuSans-31"/><use xlink:href="#DejaVuSans-30" x="63.623"/><use xlink:href="#DejaVuSans-30" x="127.246"/><use xlink:href="#DejaVuSans-30" x="190.869"/></g></g><g id="xtick_4"><use xlink:href="#m7bddeff0be" id="line2d_4" x="308.457" y="267.676" style="fill:gray;stroke:gray;stroke-width:.8"/><g id="text_4" style="fill:gray" transform="matrix(.1 0 0 -.1 295.733 282.274)"><use xlink:href="#DejaVuSans-31"/><use xlink:href="#DejaVuSans-35" x="63.623"/><use xlink:href="#DejaVuSans-30" x="127.246"/><use xlink:href="#DejaVuSans-30" x="190.869"/></g></g><g id="xtick_5"><use xlink:href="#m7bddeff0be" id="line2d_5" x="378.207" y="267.676" style="fill:gray;stroke:gray;stroke-width:.8"/><g id="text_5" style="fill:gray" transform="matrix(.1 0 0 -.1 365.483 282.274)"><defs><path id="DejaVuSans-32" d="M1228 531h2203V0H469v531q359 372 979 998 621 627 780 809 303 340 423 576 121 236 121 464 0 372-261 606-261 235-680 235-297 0-627-103-329-103-704-313v638q381 153 712 231 332 78 607 78 725 0 1156-363 431-362 431-968 0-288-108-546-107-257-392-607-78-91-497-524-418-433-1181-1211z" transform="scale(.01563)"/></defs><use xlink:href="#DejaVuSans-32"/><use xlink:href="#DejaVuSans-30" x="63.623"/><use xlink:href="#DejaVuSans-30" x="127.246"/><use xlink:href="#DejaVuSans-30" x="190.869"/></g></g><g id="xtick_6"><use xlink:href="#m7bddeff0be" id="line2d_6" x="447.957" y="267.676" style="fill:gray;stroke:gray;stroke-width:.8"/><g id="text_6" style="fill:gray" transform="matrix(.1 0 0 -.1 435.233 282.274)"><use xlink:href="#DejaVuSans-32"/><use xlink:href="#DejaVuSans-35" x="63.623"/><use xlink:href="#DejaVuSans-30" x="127.246"/><use xlink:href="#DejaVuSans-30" x="190.869"/></g></g><g id="xtick_7"><use xlink:href="#m7bddeff0be" id="line2d_7" x="517.707" y="267.676" style="fill:gray;stroke:gray;stroke-width:.8"/><g id="text_7" style="fill:gray" transform="matrix(.1 0 0 -.1 504.983 282.274)"><defs><path id="DejaVuSans-33" d="M2597 2516q453-97 707-404 255-306 255-756 0-690-475-1069Q2609-91 1734-91q-293 0-604 58T488 141v609q262-153 574-231 313-78 654-78 593 0 904 234t311 681q0 413-289 645-289 233-804 233h-544v519h569q465 0 712 186t247 536q0 359-255 551-254 193-729 193-260 0-557-57-297-56-653-174v562q360 100 674 150t592 50q719 0 1137-327 419-326 419-882 0-388-222-655t-631-370z" transform="scale(.01563)"/></defs><use xlink:href="#DejaVuSans-33"/><use xlink:href="#DejaVuSans-30" x="63.623"/><use xlink:href="#DejaVuSans-30" x="127.246"/><use xlink:href="#DejaVuSans-30" x="190.869"/></g></g><g id="xtick_8"><use xlink:href="#m7bddeff0be" id="line2d_8" x="587.457" y="267.676" style="fill:gray;stroke:gray;stroke-width:.8"/><g id="text_8" style="fill:gray" transform="matrix(.1 0 0 -.1 574.732 282.274)"><use xlink:href="#DejaVuSans-33"/><use xlink:href="#DejaVuSans-35" x="63.623"/><use xlink:href="#DejaVuSans-30" x="127.246"/><use xlink:href="#DejaVuSans-30" x="190.869"/></g></g><g id="xtick_9"><use xlink:href="#m7bddeff0be" id="line2d_9" x="657.207" y="267.676" style="fill:gray;stroke:gray;stroke-width:.8"/><g id="text_9" style="fill:gray" transform="matrix(.1 0 0 -.1 644.482 282.274)"><defs><path id="DejaVuSans-34" d="M2419 4116 825 1625h1594v2491zm-166 550h794V1625h666v-525h-666V0h-628v1100H313v609l1940 2957z" transform="scale(.01563)"/></defs><use xlink:href="#DejaVuSans-34"/><use xlink:href="#DejaVuSans-30" x="63.623"/><use xlink:href="#DejaVuSans-30" x="127.246"/><use xlink:href="#DejaVuSans-30" x="190.869"/></g></g></g><g id="matplotlib.axis_2"><g id="ytick_1"><g id="line2d_10"><defs><path id="m06bf3d3e91" d="M0 0h-3.5" style="stroke:gray;stroke-width:.8"/></defs><use xlink:href="#m06bf3d3e91" x="71.308" y="241.122" style="fill:gray;stroke:gray;stroke-width:.8"/></g><g id="text_10" style="fill:gray" transform="matrix(.16 0 0 -.16 0 247.2)"><defs><path id="DejaVuSans-2212" d="M678 2272h4006v-531H678v531z" transform="scale(.01563)"/></defs><use xlink:href="#DejaVuSans-2212"/><use xlink:href="#DejaVuSans-32" x="83.789"/><use xlink:href="#DejaVuSans-30" x="147.412"/><use xlink:href="#DejaVuSans-30" x="211.035"/><use xlink:href="#DejaVuSans-30" x="274.658"/><use xlink:href="#DejaVuSans-30" x="338.281"/></g></g><g id="ytick_2"><use xlink:href="#m06bf3d3e91" id="line2d_11" x="71.308" y="201.948" style="fill:gray;stroke:gray;stroke-width:.8"/><g id="text_11" style="fill:gray" transform="matrix(.16 0 0 -.16 0 208.027)"><use xlink:href="#DejaVuSans-2212"/><use xlink:href="#DejaVuSans-31" x="83.789"/><use xlink:href="#DejaVuSans-30" x="147.412"/><use xlink:href="#DejaVuSans-30" x="211.035"/><use xlink:href="#DejaVuSans-30" x="274.658"/><use xlink:href="#DejaVuSans-30" x="338.281"/></g></g><g id="ytick_3"><use xlink:href="#m06bf3d3e91" id="line2d_12" x="71.308" y="162.774" style="fill:gray;stroke:gray;stroke-width:.8"/><use xlink:href="#DejaVuSans-30" id="text_12" style="fill:gray" transform="matrix(.16 0 0 -.16 54.127 168.853)"/></g><g id="ytick_4"><use xlink:href="#m06bf3d3e91" id="line2d_13" x="71.308" y="123.6" style="fill:gray;stroke:gray;stroke-width:.8"/><g id="text_13" style="fill:gray" transform="matrix(.16 0 0 -.16 13.408 129.679)"><use xlink:href="#DejaVuSans-31"/><use xlink:href="#DejaVuSans-30" x="63.623"/><use xlink:href="#DejaVuSans-30" x="127.246"/><use xlink:href="#DejaVuSans-30" x="190.869"/><use xlink:href="#DejaVuSans-30" x="254.492"/></g></g><g id="ytick_5"><use xlink:href="#m06bf3d3e91" id="line2d_14" x="71.308" y="84.426" style="fill:gray;stroke:gray;stroke-width:.8"/><g id="text_14" style="fill:gray" transform="matrix(.16 0 0 -.16 13.408 90.505)"><use xlink:href="#DejaVuSans-32"/><use xlink:href="#DejaVuSans-30" x="63.623"/><use xlink:href="#DejaVuSans-30" x="127.246"/><use xlink:href="#DejaVuSans-30" x="190.869"/><use xlink:href="#DejaVuSans-30" x="254.492"/></g></g><g id="ytick_6"><use xlink:href="#m06bf3d3e91" id="line2d_15" x="71.308" y="45.253" style="fill:gray;stroke:gray;stroke-width:.8"/><g id="text_15" style="fill:gray" transform="matrix(.16 0 0 -.16 13.408 51.331)"><use xlink:href="#DejaVuSans-33"/><use xlink:href="#DejaVuSans-30" x="63.623"/><use xlink:href="#DejaVuSans-30" x="127.246"/><use xlink:href="#DejaVuSans-30" x="190.869"/><use xlink:href="#DejaVuSans-30" x="254.492"/></g></g><g id="ytick_7"><use xlink:href="#m06bf3d3e91" id="line2d_16" x="71.308" y="6.079" style="fill:gray;stroke:gray;stroke-width:.8"/><g id="text_16" style="fill:gray" transform="matrix(.16 0 0 -.16 13.408 12.158)"><use xlink:href="#DejaVuSans-34"/><use xlink:href="#DejaVuSans-30" x="63.623"/><use xlink:href="#DejaVuSans-30" x="127.246"/><use xlink:href="#DejaVuSans-30" x="190.869"/><use xlink:href="#DejaVuSans-30" x="254.492"/></g></g></g><path id="line2d_17" d="m99.207 162.884.282-.219.282.216.282-.213.282.212.282-.21.282.208.282-.208.282.208.282-.208.282.208.282-.208.282.208.282-.209.282.21.282-.21.282.212.282-.215.282.217.282-.219.282.221.282-.224.282.227.282-.23.282.234.282-.238.281.243.282-.249.282.255.282-.26.282.266.282-.274.282.283.282-.292.282.302.282-.314.282.326.282-.34.282.356.282-.374.282.395.282-.42.282.448.282-.48.282.52.282-.568.282.627.282-.703.282.802.282-.937.282 1.133.281-1.443.282 2.01.282-3.377.564 27.94.282-3.42.282 1.359.282-1.984.282-.45.282-4.251.282-6.231.564-27.543.564-30.55.564-22.154.282-6.862.282.783.282 7.387.564 29.33.564 38 .282 12.473.563 10.936.564 8.085.282 1.99.282 1.083.282-.592.282-1.922.564-4.895.564-3.808.846-3.554.282-.735.282.931.282 1.589.282-.303.282-.988.282.936.564 5.467.564 1.176.282 1.008.281-2.38.282-8.822.846-46.373.846-55.19.282-9.734.282-1.775.282 3.565.282 8.477.282 15.47 1.128 89.624.282 8.293.282 4.568.282 2.75.282.396 1.128-5.468.563-5.644.282-1.184.282-.645.846-3.685.564.599.282.132.282 1.442.564 4.621.564.97.282 1.508.282.752.282-2.319.282-5.158.282-7.459.282-11.73 1.41-84.37.281-3.813.282.367.282 6.239.282 14.123.846 62.208.282 10.442.564 8.942.282 2.359.564 2.397.282.704.282-.274.564-3.343.564-4.541.282-1.214.282.662.282 1.411.282.325.282-.589.282.478.563 3.33.282-.506.282-.937.282.012.282-.252.846-6.053.282-.606.282-2.84.282-6.994.564-23.361.846-36.838.282-7.073.282-1.007.282 5.513.564 25.945.846 47.68.281 5.925.564 3.98.282.854.282-.985 1.128-10.552.282-1.073.564-3.365.282.765.564 4.318.282-.008.282.27.564 3.827.282.858.282-.035.282-.306.564-.983.282.912.563 3.798.282-1.802.282-6.84.564-27.27.846-45.718.282-9.812.282-4.527.282 3.039.282 10.976 1.41 75.856.282 7.142.282 2.142.282.332.282.63.282.182.282-1.663.845-8.361.282-.642.282-.01.282-.92.846-6.672.282.397.564 1.986.564.353.282 1.225.282 2.758.564 7.241.282.783.282-3.352.282-7.648.564-26.165.846-47.305.564-17.766.281-2.139.282 4.326.282 10.882.564 38.061.564 43 .282 12.278.282 5.764.282 2.089.282-.184.846-6.263.846-9.933.282 1.223.282 1.726.282.186.282.457.564 4.591.282.258.282-.82.281-.125.282.745.282 1.479.846 9.625.282-3.202.282-7.905.564-25.832 1.692-100.942.282-3.057.282 4.97.282 11.097.564 42.656.564 47.888.282 14.586.282 8.422.281 3.257.282-.82.282-2.257.282-1.23.282.345.282.845.282.402.282-.418.564-1.844.564-2.898.282-.282.564 2.73.282-.748.282-1.083.282 1.023.564 4.373.282.935.282.362.282-2.21.282-7.439.564-27.16 1.41-81.409.281-5.568.282.776.282 7.682.282 15.66 1.128 84.793.282 6.345.282 2.87.282 1.663.282.876.564.365.282.896.282 1.376.282.396.282-1.552.282-2.37.282-.62.845 4.28.282 1.024.564 4.95.282.203.564-2.939.282.358.282.865.282.087.282-1.179.282-2.8.282-5.8.282-10.097.564-33.144.846-52.918.282-8.533.282-2.734.282 4.672.282 14.105.845 63.267.564 21.005.282 4.839.282 1.316.282-.8.564-2.933.564-4.497.282-.17.282 1.765.564 4.542.282.686.846-1.458.282.14.282.853.282 2.423.564 10.019.282 4.998.281 2.406.282-.703.282-2.309.282-3.348.282-6.853.282-13.683 1.692-111.921.282-6.608.282.205.282 6.284.282 12.342.564 45.561.564 45.735.282 9.529.564 6.253.282 2.14.282.958.281.563.846 4.826.564-1.292.282.591.282 1.336.282-.116.564-4.656.282-.47.846 2.543.282 2.377.564 7.47.282 2.048.282-.005.282-3.317.282-8.42.564-31.9 1.41-98.388.281-7.662.282-1.166.282 6.413.282 15.39 1.128 92.927.564 19.98.564 10.957.282 1.647.282-.206.282-.6.282-1.614 1.41-16.178.282-.712.281 1.808 1.128 13.079.282 3.64.282 1.493.282.018.282.325.282-.134.282-2.48.282-5.01.282-7.012.282-11.242.564-41.527.564-44.046.564-28.718.282-5.228.282 2.535.282 10.086.564 41.654.563 49.196.282 15.622.282 9.065.282 4.759.564 4.573.282 1.408.282.442.282-.47.564-1.616.282-.491.282-.15.282-.573.282-2.22.564-6.78.282.41.846 7.713.846 7.93.282-1.004.563-3.143.282-3.718.282-8.472.564-26.634 1.41-79.187.282-5.616.282 1.63.282 13.2 1.128 92.704.282 7.73.282 1.812.282-1.39 1.128-8.84.281-1.036.282-.405.282-.014.282-.446.282-1.57.282-2.235.282-.314.282 3.418.282 5.251.282 2.897.282-.01.282.519.564 4.88.564-1.693.282 3.009.564 9.466.282-2.603.282-10.113.564-37.158.845-54.188.282-12.848.282-7.649.282-.115.282 7.688.564 34.972.846 60.901.282 9.249.564 9.397.564 6.209.282.372.282-2.15.564-5.97.282-.276.282.372.282-1.166.282-2.555.282-1.404.282.991.282 2.097.281 1.052.282-.101.282.222.282 1.814.564 5.03.282.77.282-1.288.282-4.689.282-9.147.564-30.088 1.692-117.89.282-6.401.282 3.038.282 12.532.564 48.256.564 58.004.281 18.701.564 19.039.564 11.707.564 5.562.282.298.846-4.612.282.971.846 5.641.564 6.81.564 6.353.564 3.063.282-.175.282-3.123.282-7.233.282-11.872.563-38.183 1.41-109.91.282-15.194.282-7.964.282-.851.282 4.262.282 8.482.282 13.816.564 46.595.846 72.348.564 22.936.564 10.004.282 4.095.282 2.427.282-1.202.845-13.152.564-4.448.282-.068.282 4.565.564 13.846 1.128 14.333.282-1.005.282-6.25.282-12.078.564-39.596 1.692-144.982.282-7.539.282 1.093.281 6.804.282 10.498.282 16.26.564 53.301.564 55.99.282 18.026.282 8.486.282 1.799.282.569.564 3.043.564.147.282.898.564 4.279 1.128 11.1.564 7.808.282 1.804.282.728.281.283.282-.59.282-1.26.282-2.46.282-7.14.282-16.302 1.692-143.626.282-8.07.564-7.394.282.288.282 7.945.282 16.13.564 50.796.564 53.124.564 27.855.563 12.97.564 6.139.564 7.603.564 3.304.282.248.282-3.286.282-5.368.282-2.658.282 2.095.846 11.197.564 12.735.282 3.295.282-1.123.282-6.63.282-13.902.564-48.745L328.44 50.91l.282-16.523.282-9.949.282-4.417.282.052.282 4.077.282 9.409.282 17.08.846 82.056.564 53.971.282 15.758.282 6.915 1.128 14.189 1.973 6.948.282 2.392.564 6.865.564 4.41.282 2.919.282-.489.282-7.65.564-33.391.564-59.112.564-72.9.564-41.094.282-10.847.282-6.262.282-.969.282 3.559.282 5.812.282 8.161.282 13.62.563 50.963.846 85.212.564 28.452.564 10.227.564 4.398.564 2.079.564.674.282.618.564 2.424.282 2.573.846 10.662.564 3.655.282.682.282-4.3.282-11.743.563-44.295 1.41-155.027.282-11.376.282-6.106.282-1.148.282 3.047.282 6.519.282 10.479.564 38.554 1.128 108 .564 29.394.282 6.446.282 1.663.282.159.563 1.697.282-.147.282-.394.282.242.282.96.282 1.517.846 6.683.282 3.339.564 10.082.282 1.771.282-1.11.282-2.235.282-4.695.282-11.06.282-20.104.564-61.695.846-92.616.282-16.467.282-9.325.281-4.217.282.493.282 4.703.564 18.386.282 16.612.564 55.998.564 56.254.564 32.274.282 7.84.282 2.31.282-1.819.282-2.662.282-1.076.846 1.713.282 1.221.564 6.257.564 6.553.282 2.117.281.968.282.175.282-.394.564-.947.282-.115.282-2.166.282-7.243.282-14.023.564-48.678.846-91.81.564-34.928.282-6.542.282 1.019.282 5.584.282 9.157.282 15.42.846 77.914.563 47.676.282 14.583.564 14.922.282 5.917.282 2.37.282-1.157.282-.668.564 4.031.282.486.282-.126.282.549.282 1.045.282 1.867.846 9.496.282.967.282-.005.564.308.282-1.764.282-6.826.282-13.63.563-48.11.846-99.054.564-34.803.282-8.25.282-3.76.282 1.458.282 6.377.282 10.678.564 35.881 1.41 124.499.282 12.447.282 6.23.564 5.457.282 1.886.282.106.282-.5.281.932.282 2.14.282 1.113.282.005.282.846 1.974 17.579.282.58.282-3.166.282-11.236.564-49.795 1.128-135.554.564-25.752.282-5.79.282.455.563 11.885.282 7.938.282 13.967.564 45.269 1.128 100.217.564 19.664.282 4.362.282 1.03.282-.148.282 1.624.564 5.271.282-.129.282-.514.282.636.564 2.475.282 1.84.563 6.584.846 11.944.282 1.104.282-5.765.282-13.895.564-45.855 1.41-151.104.282-6.13.564-5.543.282 1.24.282 7.033.564 27.866.564 40.406 1.127 95.196.282 11.207.564 9.124.564 7.07.282.394.564-2.35.282.5.564 1.442.282 1.72.564 5.29.282.464.282.096.282 1.942.564 4.967.282-.22.282-1.996.282-5.485.282-11.647.563-41.245.564-62.065.564-64.814.282-17.174.282-7.448.282-2.531.282.81.282 4.749.282 9.525.564 35.697L426 187.05l.282 14.618.282 7.26.564 4.416.564 2.733.845 1.8.282-.295.564-2.516.282.238.564 3.26.282 1.918 1.128 10.492.282 2.037.282-.388.282-7.155.282-15.622.564-50.19.846-101.266.282-19.143.282-9.766.282-4.303.282.19.281 4.36.282 7.638.282 11.201.564 39.056 1.128 93.586.564 26.095.282 5.287.564 3.916.282 1.778.282.83.282-.407.282.464.564 4.973.282.892.282.285.282 1.256.282 1.813.282.774.281-.099.282.39.282 2.086.282 3.2.282 1.893.282-3.052.282-10.108.282-17.76.564-61.002.564-75.616.282-24.742.282-13.946.282-7.639.282-3.989.282.45.282 5.282.564 20.044.564 35.811 1.128 98.438.563 30.666.282 5.314.564 1.271.564 3.72.282.454.282.693.564 2.234.282.764.282 1.527.846 7.424.564 6.02.282 1.92.282.885.282-1.794.282-8.585.282-17.948.564-58.364.845-99.067.282-16.035.282-6.81.282-3.188.282-1.64.282 1.776.282 5.923.564 21.415.564 37.74 1.128 86.947.282 14.928.282 8.7.846 14.947.282 2.31.282.222.282.078.281.576.282.309.282.839.282 2.497.564 6.634.564 4.734.282 1.103.282-.421.282-.781.282-1.996.282-6.844.282-14.49.564-49.001 1.128-121.869.282-11.714.282-6.023.282-1.624.282 2.276.282 5.783.282 9.671.563 32.545.564 45.498.564 50.515.564 29.074.564 15.732.282 2.361.282.46.282 2.05.564 6.56.846 3.717.282 1.294.282.46.282-.799.564-3.228.564-1.87.281-1.25.282-.332.282-1.352.282-8.03.282-18.751.564-59.46.846-96.53.282-14.066.282-4.867.282-1.99.282.515.282 6.021.564 26.376.564 38.585 1.41 110.003.282 10.762.563 9.744.564 6.844.282 1.224.282-.677.564-4.266.282-.667.564 1.253.282-.11.282 1.165.846 10.457.282 1.221.282-2.711.282-10.256.564-45.914 1.128-123.434.282-11.135.563-10.117.282-1.412.282 3.202.564 15.543.564 29.704 1.974 125.876.564 14.243.282 3.085.282 1.725.846 2.866.282-.54.282-1.682.282.1 1.691 21.077.282-.65.282-9.05.282-17.053.564-59.412.564-79.267.282-24.333.282-11.597.564-10.496.282-1.81.282.802.282 2.52.282 5.592.282 11.139.846 50.943 1.127 71.921.564 25.87.282 8.284.282 4.512.282 1.736.282.785.282 1.76.564 5.37.564 2.788.282 3.364.846 16.492.846 6.047.282-5.105.282-13.666.564-49.229.845-113.291.282-18.401.564-13.846.282-3.9.282-.065.564 7.664.282 5.875.282 9.156.564 30.442 1.41 88.14.564 23.734.564 11.338.564 5.77.845 6.405.564 8.248.564 6.289.564 8.422.282.253.564-2.86.282-4.712.282-10.946.282-17.95.564-61.2.564-75.286.282-22.844.282-12.748.282-7.18.282-2.823.282 1.867.564 10.84.281 8.62.564 29.808 1.41 85.543.564 25.88.564 19.417.282 5.856 1.128 10.778.564 1.813.846 5.588.564 1.439.282.281.281.005.282-.277.282-1.726.282-5.125.282-9.952.282-18.214.564-71.975.564-67.097.564-25.596.282-6.982.282.655.846 27.05.282 12.236 1.41 81.188.564 24.188.563 15.778 1.128 22.653 1.41 12.755 1.692 10.396.282 1.667.282-.642.282-5.578.282-13.45.282-23.696 1.128-123.328.563-21.625.282-5.403.282-1.362.282 1.83.282 5.221.564 21.541.846 42.368.846 46.745.564 21.446.564 13.592.846 12.94.282 3.82.282 2.172.282.586.282 1.225.563 5.1.282.693.282 1.694.846 12.493.282 1.666.282.838.282-3.058.282-12.009.282-24.646.846-105.148.282-19.728.282-10.734.282-6.21.282-3.576.282-1.602.282.319.282 2.822.282 6.11.564 19.307.563 28.99.846 46.686.564 16.981 1.128 21.932.282 3.14.282 4.434.846 16.505 1.128 7.59.564.905.282 2.848.564 8.8.282-1.822.281-9.477.282-19.254 1.128-113.37.564-21.039.282-7.085.282-4.032.282-1.183.282 1.555.282 4.37.564 14.31.282 10.418 1.692 85.176.282 6.881.564 5 .845 7.796.564 1.99.282-.078.282-.744.282-.389.282.913.564 3.205.282 3.008.846 16.94.282 2.926.282 1.095.282-4.995.282-16.591 1.128-102.005.564-25.013.563-12.14.282-1.396.282 2.83.564 13.923.564 21.442 1.692 71.703.846 21.159.282 3.892.282 1.589.282.158.282-.592.282-.976.846-6.257.282 1.45 1.127 13.356.564 12.726.282 3.094.282.655.282-1.787.282-7.842.282-18.533.846-81.388.564-29.551.564-16.34.282-3.068.282.07.282 2.958.282 6.422.564 22.055 1.691 80.832.282 5.957.846 8.975.282 1.38.282-.952.282-1.995.282-.553.564 1.99.282-.118.282-.274.282.097.282.365.282.875.282 2.556 1.41 20.19.281-2.03.282-12.103 1.41-101.413.282-12.23.282-6.583.282-2.23.282-.994.282.31.282 4.522.846 25.773.564 26.759.564 29.713.564 17.698.564 11.546.282 1.582.845-3.717.282-.459.564-3.11.282 1.057.564 4.529.282-.119.282-.475.282 1.006.564 4.688.564 2.387.282.928.282-2.855.282-12.31.846-62.195.846-32.796.282-5.5.281-1.09.282.076.282-.251.282 1.853.282 5.818.564 20.252.846 35.231 1.128 33.773.282 1.724.282.493.282 2.323.282 3.526.282 1.748.282-.51.282-1.026.564-.8.282-.56.282.135.281 1.406.564 4.5 1.128 10.787.282-1.928.282-9.14 1.692-92.96.282-5.056.564-4.878.282.5.282 3.69.564 12.258.846 24.666 1.127 36.496.564 9.254.564 6.639.282.985.282-.727.846-3.737.846-6.447.282 1.41.564 5.254.282 4.052.846 16.739.282.875.282-2.142.282-7.39.563-32.033.846-48.49.282-8.922.846-9.922.282-1.2.282 4.488.564 11.193.282 5.425.564 22.503.846 31.511.282 7.697.282 3.584.282.693.282-.414.282-1.941.563-6.068.282-.626.282.413.282.628.282 1.041.846 5.15.282 2.882.846 10.984.564 6.26.282 3.086.282.594.282-4.757.282-9.784.564-32.513.564-34.246.564-21.988.282-8.978.281 5.041h0" clip-path="url(#ped2279eefc)" style="fill:none;stroke:#1f77b4;stroke-width:1.5;stroke-linecap:square"/><path id="patch_3" d="M71.308 267.676V1.564" style="fill:none;stroke:gray;stroke-width:.8;stroke-linejoin:miter;stroke-linecap:square"/><path id="patch_4" d="M685.107 267.676V1.564" style="fill:none;stroke:#000;stroke-width:.8;stroke-linejoin:miter;stroke-linecap:square"/><path id="patch_5" d="M71.308 267.676h613.8" style="fill:none;stroke:gray;stroke-width:.8;stroke-linejoin:miter;stroke-linecap:square"/><path id="patch_6" d="M71.308 1.564h613.8" style="fill:none;stroke:#000;stroke-width:.8;stroke-linejoin:miter;stroke-linecap:square"/></g></g><defs><clipPath id="ped2279eefc"><path d="M71.308 1.564h613.8v266.112h-613.8z"/></clipPath></defs></svg>