<?xml version="1.0" encoding="utf-8" standalone="no"?>
<!DOCTYPE svg PUBLIC "-//W3C//DTD SVG 1.1//EN"
  "http://www.w3.org/Graphics/SVG/1.1/DTD/svg11.dtd">
<svg xmlns:xlink="http://www.w3.org/1999/xlink" width="660.992188pt" height="283.009079pt" viewBox="0 0 660.992188 283.009079" xmlns="http://www.w3.org/2000/svg" version="1.1">
 <metadata>
  <rdf:RDF xmlns:dc="http://purl.org/dc/elements/1.1/" xmlns:cc="http://creativecommons.org/ns#" xmlns:rdf="http://www.w3.org/1999/02/22-rdf-syntax-ns#">
   <cc:Work>
    <dc:type rdf:resource="http://purl.org/dc/dcmitype/StillImage"/>
    <dc:date>2023-03-06T21:29:37.122189</dc:date>
    <dc:format>image/svg+xml</dc:format>
    <dc:creator>
     <cc:Agent>
      <dc:title>Matplotlib v3.6.3, https://matplotlib.org/</dc:title>
     </cc:Agent>
    </dc:creator>
   </cc:Work>
  </rdf:RDF>
 </metadata>
 <defs>
  <style type="text/css">*{stroke-linejoin: round; stroke-linecap: butt}</style>
 </defs>
 <g id="figure_1">
  <g id="patch_1">
   <path d="M -0 283.009079 
L 660.992188 283.009079 
L 660.992188 0 
L -0 0 
L -0 283.009079 
z
" style="fill: none"/>
  </g>
  <g id="axes_1">
   <g id="patch_2">
    <path d="M 47.192188 266.330954 
L 660.992188 266.330954 
L 660.992188 0.218954 
L 47.192188 0.218954 
L 47.192188 266.330954 
z
" style="fill: none"/>
   </g>
   <g id="matplotlib.axis_1">
    <g id="xtick_1">
     <g id="line2d_1">
      <defs>
       <path id="m2607afc352" d="M 0 0 
L 0 3.5 
" style="stroke: #808080; stroke-width: 0.8"/>
      </defs>
      <g>
       <use xlink:href="#m2607afc352" x="75.092188" y="266.330954" style="fill: #808080; stroke: #808080; stroke-width: 0.8"/>
      </g>
     </g>
     <g id="text_1">
      <!-- 0 -->
      <g style="fill: #808080" transform="translate(71.910938 280.929391) scale(0.1 -0.1)">
       <defs>
        <path id="DejaVuSans-30" d="M 2034 4250 
Q 1547 4250 1301 3770 
Q 1056 3291 1056 2328 
Q 1056 1369 1301 889 
Q 1547 409 2034 409 
Q 2525 409 2770 889 
Q 3016 1369 3016 2328 
Q 3016 3291 2770 3770 
Q 2525 4250 2034 4250 
z
M 2034 4750 
Q 2819 4750 3233 4129 
Q 3647 3509 3647 2328 
Q 3647 1150 3233 529 
Q 2819 -91 2034 -91 
Q 1250 -91 836 529 
Q 422 1150 422 2328 
Q 422 3509 836 4129 
Q 1250 4750 2034 4750 
z
" transform="scale(0.015625)"/>
       </defs>
       <use xlink:href="#DejaVuSans-30"/>
      </g>
     </g>
    </g>
    <g id="xtick_2">
     <g id="line2d_2">
      <g>
       <use xlink:href="#m2607afc352" x="144.842188" y="266.330954" style="fill: #808080; stroke: #808080; stroke-width: 0.8"/>
      </g>
     </g>
     <g id="text_2">
      <!-- 500 -->
      <g style="fill: #808080" transform="translate(135.298438 280.929391) scale(0.1 -0.1)">
       <defs>
        <path id="DejaVuSans-35" d="M 691 4666 
L 3169 4666 
L 3169 4134 
L 1269 4134 
L 1269 2991 
Q 1406 3038 1543 3061 
Q 1681 3084 1819 3084 
Q 2600 3084 3056 2656 
Q 3513 2228 3513 1497 
Q 3513 744 3044 326 
Q 2575 -91 1722 -91 
Q 1428 -91 1123 -41 
Q 819 9 494 109 
L 494 744 
Q 775 591 1075 516 
Q 1375 441 1709 441 
Q 2250 441 2565 725 
Q 2881 1009 2881 1497 
Q 2881 1984 2565 2268 
Q 2250 2553 1709 2553 
Q 1456 2553 1204 2497 
Q 953 2441 691 2322 
L 691 4666 
z
" transform="scale(0.015625)"/>
       </defs>
       <use xlink:href="#DejaVuSans-35"/>
       <use xlink:href="#DejaVuSans-30" x="63.623047"/>
       <use xlink:href="#DejaVuSans-30" x="127.246094"/>
      </g>
     </g>
    </g>
    <g id="xtick_3">
     <g id="line2d_3">
      <g>
       <use xlink:href="#m2607afc352" x="214.592188" y="266.330954" style="fill: #808080; stroke: #808080; stroke-width: 0.8"/>
      </g>
     </g>
     <g id="text_3">
      <!-- 1000 -->
      <g style="fill: #808080" transform="translate(201.867188 280.929391) scale(0.1 -0.1)">
       <defs>
        <path id="DejaVuSans-31" d="M 794 531 
L 1825 531 
L 1825 4091 
L 703 3866 
L 703 4441 
L 1819 4666 
L 2450 4666 
L 2450 531 
L 3481 531 
L 3481 0 
L 794 0 
L 794 531 
z
" transform="scale(0.015625)"/>
       </defs>
       <use xlink:href="#DejaVuSans-31"/>
       <use xlink:href="#DejaVuSans-30" x="63.623047"/>
       <use xlink:href="#DejaVuSans-30" x="127.246094"/>
       <use xlink:href="#DejaVuSans-30" x="190.869141"/>
      </g>
     </g>
    </g>
    <g id="xtick_4">
     <g id="line2d_4">
      <g>
       <use xlink:href="#m2607afc352" x="284.342188" y="266.330954" style="fill: #808080; stroke: #808080; stroke-width: 0.8"/>
      </g>
     </g>
     <g id="text_4">
      <!-- 1500 -->
      <g style="fill: #808080" transform="translate(271.617188 280.929391) scale(0.1 -0.1)">
       <use xlink:href="#DejaVuSans-31"/>
       <use xlink:href="#DejaVuSans-35" x="63.623047"/>
       <use xlink:href="#DejaVuSans-30" x="127.246094"/>
       <use xlink:href="#DejaVuSans-30" x="190.869141"/>
      </g>
     </g>
    </g>
    <g id="xtick_5">
     <g id="line2d_5">
      <g>
       <use xlink:href="#m2607afc352" x="354.092188" y="266.330954" style="fill: #808080; stroke: #808080; stroke-width: 0.8"/>
      </g>
     </g>
     <g id="text_5">
      <!-- 2000 -->
      <g style="fill: #808080" transform="translate(341.367188 280.929391) scale(0.1 -0.1)">
       <defs>
        <path id="DejaVuSans-32" d="M 1228 531 
L 3431 531 
L 3431 0 
L 469 0 
L 469 531 
Q 828 903 1448 1529 
Q 2069 2156 2228 2338 
Q 2531 2678 2651 2914 
Q 2772 3150 2772 3378 
Q 2772 3750 2511 3984 
Q 2250 4219 1831 4219 
Q 1534 4219 1204 4116 
Q 875 4013 500 3803 
L 500 4441 
Q 881 4594 1212 4672 
Q 1544 4750 1819 4750 
Q 2544 4750 2975 4387 
Q 3406 4025 3406 3419 
Q 3406 3131 3298 2873 
Q 3191 2616 2906 2266 
Q 2828 2175 2409 1742 
Q 1991 1309 1228 531 
z
" transform="scale(0.015625)"/>
       </defs>
       <use xlink:href="#DejaVuSans-32"/>
       <use xlink:href="#DejaVuSans-30" x="63.623047"/>
       <use xlink:href="#DejaVuSans-30" x="127.246094"/>
       <use xlink:href="#DejaVuSans-30" x="190.869141"/>
      </g>
     </g>
    </g>
    <g id="xtick_6">
     <g id="line2d_6">
      <g>
       <use xlink:href="#m2607afc352" x="423.842188" y="266.330954" style="fill: #808080; stroke: #808080; stroke-width: 0.8"/>
      </g>
     </g>
     <g id="text_6">
      <!-- 2500 -->
      <g style="fill: #808080" transform="translate(411.117188 280.929391) scale(0.1 -0.1)">
       <use xlink:href="#DejaVuSans-32"/>
       <use xlink:href="#DejaVuSans-35" x="63.623047"/>
       <use xlink:href="#DejaVuSans-30" x="127.246094"/>
       <use xlink:href="#DejaVuSans-30" x="190.869141"/>
      </g>
     </g>
    </g>
    <g id="xtick_7">
     <g id="line2d_7">
      <g>
       <use xlink:href="#m2607afc352" x="493.592188" y="266.330954" style="fill: #808080; stroke: #808080; stroke-width: 0.8"/>
      </g>
     </g>
     <g id="text_7">
      <!-- 3000 -->
      <g style="fill: #808080" transform="translate(480.867188 280.929391) scale(0.1 -0.1)">
       <defs>
        <path id="DejaVuSans-33" d="M 2597 2516 
Q 3050 2419 3304 2112 
Q 3559 1806 3559 1356 
Q 3559 666 3084 287 
Q 2609 -91 1734 -91 
Q 1441 -91 1130 -33 
Q 819 25 488 141 
L 488 750 
Q 750 597 1062 519 
Q 1375 441 1716 441 
Q 2309 441 2620 675 
Q 2931 909 2931 1356 
Q 2931 1769 2642 2001 
Q 2353 2234 1838 2234 
L 1294 2234 
L 1294 2753 
L 1863 2753 
Q 2328 2753 2575 2939 
Q 2822 3125 2822 3475 
Q 2822 3834 2567 4026 
Q 2313 4219 1838 4219 
Q 1578 4219 1281 4162 
Q 984 4106 628 3988 
L 628 4550 
Q 988 4650 1302 4700 
Q 1616 4750 1894 4750 
Q 2613 4750 3031 4423 
Q 3450 4097 3450 3541 
Q 3450 3153 3228 2886 
Q 3006 2619 2597 2516 
z
" transform="scale(0.015625)"/>
       </defs>
       <use xlink:href="#DejaVuSans-33"/>
       <use xlink:href="#DejaVuSans-30" x="63.623047"/>
       <use xlink:href="#DejaVuSans-30" x="127.246094"/>
       <use xlink:href="#DejaVuSans-30" x="190.869141"/>
      </g>
     </g>
    </g>
    <g id="xtick_8">
     <g id="line2d_8">
      <g>
       <use xlink:href="#m2607afc352" x="563.342188" y="266.330954" style="fill: #808080; stroke: #808080; stroke-width: 0.8"/>
      </g>
     </g>
     <g id="text_8">
      <!-- 3500 -->
      <g style="fill: #808080" transform="translate(550.617188 280.929391) scale(0.1 -0.1)">
       <use xlink:href="#DejaVuSans-33"/>
       <use xlink:href="#DejaVuSans-35" x="63.623047"/>
       <use xlink:href="#DejaVuSans-30" x="127.246094"/>
       <use xlink:href="#DejaVuSans-30" x="190.869141"/>
      </g>
     </g>
    </g>
    <g id="xtick_9">
     <g id="line2d_9">
      <g>
       <use xlink:href="#m2607afc352" x="633.092188" y="266.330954" style="fill: #808080; stroke: #808080; stroke-width: 0.8"/>
      </g>
     </g>
     <g id="text_9">
      <!-- 4000 -->
      <g style="fill: #808080" transform="translate(620.367188 280.929391) scale(0.1 -0.1)">
       <defs>
        <path id="DejaVuSans-34" d="M 2419 4116 
L 825 1625 
L 2419 1625 
L 2419 4116 
z
M 2253 4666 
L 3047 4666 
L 3047 1625 
L 3713 1625 
L 3713 1100 
L 3047 1100 
L 3047 0 
L 2419 0 
L 2419 1100 
L 313 1100 
L 313 1709 
L 2253 4666 
z
" transform="scale(0.015625)"/>
       </defs>
       <use xlink:href="#DejaVuSans-34"/>
       <use xlink:href="#DejaVuSans-30" x="63.623047"/>
       <use xlink:href="#DejaVuSans-30" x="127.246094"/>
       <use xlink:href="#DejaVuSans-30" x="190.869141"/>
      </g>
     </g>
    </g>
   </g>
   <g id="matplotlib.axis_2">
    <g id="ytick_1">
     <g id="line2d_10">
      <defs>
       <path id="m157de37479" d="M 0 0 
L -3.5 0 
" style="stroke: #808080; stroke-width: 0.8"/>
      </defs>
      <g>
       <use xlink:href="#m157de37479" x="47.192188" y="235.659094" style="fill: #808080; stroke: #808080; stroke-width: 0.8"/>
      </g>
     </g>
     <g id="text_10">
      <!-- −10000 -->
      <g style="fill: #808080" transform="translate(0 239.458313) scale(0.1 -0.1)">
       <defs>
        <path id="DejaVuSans-2212" d="M 678 2272 
L 4684 2272 
L 4684 1741 
L 678 1741 
L 678 2272 
z
" transform="scale(0.015625)"/>
       </defs>
       <use xlink:href="#DejaVuSans-2212"/>
       <use xlink:href="#DejaVuSans-31" x="83.789062"/>
       <use xlink:href="#DejaVuSans-30" x="147.412109"/>
       <use xlink:href="#DejaVuSans-30" x="211.035156"/>
       <use xlink:href="#DejaVuSans-30" x="274.658203"/>
       <use xlink:href="#DejaVuSans-30" x="338.28125"/>
      </g>
     </g>
    </g>
    <g id="ytick_2">
     <g id="line2d_11">
      <g>
       <use xlink:href="#m157de37479" x="47.192188" y="189.287119" style="fill: #808080; stroke: #808080; stroke-width: 0.8"/>
      </g>
     </g>
     <g id="text_11">
      <!-- −5000 -->
      <g style="fill: #808080" transform="translate(6.3625 193.086338) scale(0.1 -0.1)">
       <use xlink:href="#DejaVuSans-2212"/>
       <use xlink:href="#DejaVuSans-35" x="83.789062"/>
       <use xlink:href="#DejaVuSans-30" x="147.412109"/>
       <use xlink:href="#DejaVuSans-30" x="211.035156"/>
       <use xlink:href="#DejaVuSans-30" x="274.658203"/>
      </g>
     </g>
    </g>
    <g id="ytick_3">
     <g id="line2d_12">
      <g>
       <use xlink:href="#m157de37479" x="47.192188" y="142.915144" style="fill: #808080; stroke: #808080; stroke-width: 0.8"/>
      </g>
     </g>
     <g id="text_12">
      <!-- 0 -->
      <g style="fill: #808080" transform="translate(33.829688 146.714363) scale(0.1 -0.1)">
       <use xlink:href="#DejaVuSans-30"/>
      </g>
     </g>
    </g>
    <g id="ytick_4">
     <g id="line2d_13">
      <g>
       <use xlink:href="#m157de37479" x="47.192188" y="96.543169" style="fill: #808080; stroke: #808080; stroke-width: 0.8"/>
      </g>
     </g>
     <g id="text_13">
      <!-- 5000 -->
      <g style="fill: #808080" transform="translate(14.742188 100.342388) scale(0.1 -0.1)">
       <use xlink:href="#DejaVuSans-35"/>
       <use xlink:href="#DejaVuSans-30" x="63.623047"/>
       <use xlink:href="#DejaVuSans-30" x="127.246094"/>
       <use xlink:href="#DejaVuSans-30" x="190.869141"/>
      </g>
     </g>
    </g>
    <g id="ytick_5">
     <g id="line2d_14">
      <g>
       <use xlink:href="#m157de37479" x="47.192188" y="50.171194" style="fill: #808080; stroke: #808080; stroke-width: 0.8"/>
      </g>
     </g>
     <g id="text_14">
      <!-- 10000 -->
      <g style="fill: #808080" transform="translate(8.379688 53.970413) scale(0.1 -0.1)">
       <use xlink:href="#DejaVuSans-31"/>
       <use xlink:href="#DejaVuSans-30" x="63.623047"/>
       <use xlink:href="#DejaVuSans-30" x="127.246094"/>
       <use xlink:href="#DejaVuSans-30" x="190.869141"/>
       <use xlink:href="#DejaVuSans-30" x="254.492188"/>
      </g>
     </g>
    </g>
    <g id="ytick_6">
     <g id="line2d_15">
      <g>
       <use xlink:href="#m157de37479" x="47.192188" y="3.799219" style="fill: #808080; stroke: #808080; stroke-width: 0.8"/>
      </g>
     </g>
     <g id="text_15">
      <!-- 15000 -->
      <g style="fill: #808080" transform="translate(8.379688 7.598438) scale(0.1 -0.1)">
       <use xlink:href="#DejaVuSans-31"/>
       <use xlink:href="#DejaVuSans-35" x="63.623047"/>
       <use xlink:href="#DejaVuSans-30" x="127.246094"/>
       <use xlink:href="#DejaVuSans-30" x="190.869141"/>
       <use xlink:href="#DejaVuSans-30" x="254.492188"/>
      </g>
     </g>
    </g>
   </g>
   <g id="line2d_16">
    <path d="M 75.092188 142.922587 
L 77.065912 142.906014 
L 78.475715 142.925779 
L 79.885517 142.902517 
L 81.29532 142.930622 
L 82.141202 142.897252 
L 82.987084 142.936348 
L 83.832966 142.889104 
L 84.678847 142.94892 
L 84.960808 142.877643 
L 85.242769 142.957303 
L 85.524729 142.867 
L 85.80669 142.971263 
L 86.08865 142.847884 
L 86.370611 142.999026 
L 86.652572 142.803937 
L 86.934532 143.078835 
L 87.216493 142.618502 
L 87.780414 149.431103 
L 88.062374 149.390355 
L 88.344335 146.18577 
L 88.908256 132.952196 
L 89.190217 132.750678 
L 90.036099 148.460428 
L 90.60002 169.108763 
L 90.88198 173.062723 
L 91.163941 173.349608 
L 91.445901 174.527861 
L 91.727862 173.358443 
L 92.573744 154.080631 
L 92.855704 156.156068 
L 93.419626 164.02836 
L 93.983547 172.504695 
L 94.265507 170.492974 
L 94.829429 156.931922 
L 95.39335 137.137912 
L 95.957271 118.42563 
L 96.521192 103.104164 
L 97.085113 96.375974 
L 97.367074 93.96772 
L 97.649034 94.936191 
L 98.494916 109.691768 
L 99.340798 135.630105 
L 99.622758 136.830082 
L 99.904719 138.834501 
L 100.46864 148.561158 
L 101.032561 146.693296 
L 101.596483 151.647765 
L 102.160404 148.3169 
L 102.724325 147.093525 
L 103.006286 147.461074 
L 103.288246 148.480752 
L 103.570207 147.385856 
L 104.134128 143.135523 
L 104.416088 141.421162 
L 104.698049 140.444552 
L 104.98001 141.142947 
L 105.26197 139.122401 
L 105.543931 133.482633 
L 105.825891 133.410212 
L 106.389813 151.205849 
L 106.671773 153.707927 
L 106.953734 155.064896 
L 107.235694 158.44844 
L 107.517655 159.569579 
L 107.799615 154.633094 
L 108.081576 146.918979 
L 108.363537 142.995933 
L 108.645497 143.004049 
L 109.209418 139.221212 
L 109.491379 144.967016 
L 109.77334 155.352691 
L 110.0553 159.558196 
L 110.337261 157.601633 
L 110.619221 157.984732 
L 111.183143 166.834741 
L 111.747064 172.283069 
L 112.310985 179.581378 
L 112.592945 178.020972 
L 113.156867 166.912421 
L 113.720788 148.463972 
L 114.84863 107.083969 
L 115.412551 93.940611 
L 115.694512 89.120296 
L 115.976472 88.481448 
L 116.258433 91.231045 
L 116.822354 93.033208 
L 117.104315 100.119053 
L 117.668236 121.7682 
L 118.232157 134.610656 
L 118.514118 138.011732 
L 119.078039 139.66821 
L 119.36 141.3526 
L 119.923921 146.871716 
L 120.205881 147.537903 
L 120.769802 141.865143 
L 121.333724 142.394355 
L 121.615684 141.747632 
L 121.897645 144.732185 
L 122.179605 151.754373 
L 122.461566 155.176429 
L 123.025487 149.590112 
L 123.307448 150.258614 
L 123.589408 146.738728 
L 123.871369 138.776279 
L 124.153329 135.375687 
L 124.43529 137.014916 
L 124.717251 136.543411 
L 124.999211 135.585643 
L 125.281172 140.28829 
L 125.563132 148.12779 
L 125.845093 152.869476 
L 126.127054 154.147797 
L 126.409014 154.883953 
L 126.690975 156.109981 
L 126.972935 155.846875 
L 127.254896 151.519754 
L 127.536857 145.340437 
L 127.818817 143.015664 
L 128.382738 145.82905 
L 128.664699 146.211911 
L 129.22862 150.730034 
L 129.510581 150.69533 
L 129.792541 149.41954 
L 130.074502 149.459032 
L 130.920384 155.790956 
L 131.202344 154.035935 
L 131.484305 153.587717 
L 132.048226 159.042388 
L 132.330186 163.368724 
L 132.894108 178.299989 
L 133.176068 181.931876 
L 133.458029 180.419142 
L 133.739989 177.155085 
L 134.02195 171.894041 
L 134.303911 159.275246 
L 134.867832 125.552309 
L 135.713714 95.885158 
L 135.995674 92.141501 
L 136.277635 91.897493 
L 136.841556 85.411784 
L 137.123516 85.930481 
L 137.405477 90.76733 
L 137.969398 106.576187 
L 139.097241 150.076862 
L 139.379201 151.061783 
L 139.943122 142.710662 
L 140.225083 142.056664 
L 140.507043 143.366602 
L 140.789004 141.71596 
L 141.070965 139.299034 
L 141.352925 139.282006 
L 141.634886 138.441437 
L 141.916846 136.680104 
L 142.480768 139.142944 
L 142.762728 137.470197 
L 143.044689 140.04891 
L 143.60861 154.885402 
L 143.890571 153.79034 
L 144.172531 154.036221 
L 144.454492 156.515359 
L 144.736452 155.052404 
L 145.018413 151.567643 
L 145.300373 151.508449 
L 145.582334 152.588251 
L 146.428216 149.963153 
L 147.274098 140.568045 
L 147.556058 141.912666 
L 147.838019 144.437795 
L 148.119979 149.465235 
L 148.6839 163.222421 
L 148.965861 162.215357 
L 149.529782 146.869761 
L 149.811743 144.16369 
L 150.375664 145.575659 
L 150.657625 147.577583 
L 152.349388 187.330875 
L 152.631349 185.733758 
L 153.19527 172.854862 
L 153.47723 163.827107 
L 154.605073 114.224929 
L 155.168994 92.003431 
L 155.450955 84.711276 
L 155.732915 82.253333 
L 156.296836 80.513765 
L 156.578797 84.845617 
L 157.142718 100.650804 
L 157.424679 105.265305 
L 157.9886 123.594739 
L 159.116442 137.023465 
L 159.398403 137.729443 
L 159.962324 149.867858 
L 160.244285 150.025666 
L 160.526245 147.448478 
L 160.808206 151.445532 
L 161.090166 159.743566 
L 161.372127 162.983737 
L 162.218009 155.276911 
L 162.78193 143.267198 
L 163.06389 142.607183 
L 163.345851 144.585495 
L 163.627812 145.193874 
L 164.191733 145.430829 
L 164.473693 144.332682 
L 164.755654 143.898451 
L 165.319575 147.405819 
L 165.601536 147.336513 
L 165.883496 149.386625 
L 166.447417 161.182313 
L 166.729378 160.558166 
L 167.011339 158.277448 
L 167.293299 159.553556 
L 167.57526 159.966591 
L 168.139181 150.800337 
L 168.421142 153.840389 
L 168.985063 167.853871 
L 169.267023 169.598696 
L 169.548984 170.145059 
L 170.112905 177.991891 
L 170.394866 178.524488 
L 170.676826 177.929804 
L 170.958787 179.390138 
L 171.240747 178.856672 
L 171.804669 169.323479 
L 172.086629 162.989595 
L 172.65055 137.949577 
L 173.778393 87.823821 
L 174.342314 69.174447 
L 174.624274 66.316125 
L 175.188196 70.602534 
L 175.470156 75.258336 
L 177.16192 135.682641 
L 177.725841 145.606905 
L 178.007801 145.633298 
L 178.289762 148.297349 
L 178.853683 163.324475 
L 179.135644 163.198114 
L 179.417604 162.681391 
L 179.699565 164.514014 
L 179.981526 163.057323 
L 180.263486 157.46518 
L 180.545447 154.295964 
L 180.827407 155.289282 
L 181.109368 155.662822 
L 181.391328 154.429649 
L 181.673289 153.858812 
L 181.95525 151.698445 
L 182.23721 146.281623 
L 182.519171 143.191522 
L 182.801131 145.069789 
L 183.083092 145.559835 
L 183.365053 143.522334 
L 183.647013 147.421823 
L 183.928974 157.352988 
L 184.210934 161.990766 
L 184.492895 158.903584 
L 184.774856 157.931692 
L 185.056816 161.344546 
L 185.338777 160.296724 
L 185.620737 152.998557 
L 185.902698 148.660304 
L 186.466619 153.327693 
L 186.74858 152.511097 
L 187.03054 154.240467 
L 187.312501 159.559463 
L 187.594461 162.098535 
L 187.876422 162.164239 
L 188.158383 166.989631 
L 188.440343 175.426096 
L 188.722304 180.019561 
L 189.004264 181.48345 
L 189.568185 187.622745 
L 189.850146 186.643981 
L 190.132107 182.179857 
L 190.696028 164.767766 
L 191.259949 141.081415 
L 192.387791 85.434305 
L 192.669752 76.384808 
L 193.515634 68.876486 
L 193.797594 69.848861 
L 194.079555 77.230343 
L 195.771318 145.009059 
L 196.053279 148.753569 
L 196.899161 151.050671 
L 197.463082 147.244901 
L 197.745042 146.53158 
L 198.027003 145.349788 
L 198.590924 141.246126 
L 198.872885 141.067826 
L 199.436806 145.066237 
L 199.718767 145.379922 
L 200.000727 144.027311 
L 200.282688 144.455053 
L 200.564648 146.565054 
L 200.846609 147.194862 
L 201.12857 148.472731 
L 201.692491 162.30534 
L 201.974451 163.923963 
L 202.256412 162.904936 
L 202.538372 165.097815 
L 202.820333 165.39557 
L 203.384254 151.006054 
L 203.666215 151.761424 
L 203.948175 154.527377 
L 204.512097 150.854925 
L 205.076018 158.82392 
L 205.639939 159.48541 
L 205.921899 162.26365 
L 206.20386 163.754807 
L 206.485821 164.166224 
L 207.331702 175.536645 
L 207.613663 176.936686 
L 208.177584 194.84328 
L 208.459545 195.216202 
L 209.023466 184.815166 
L 209.305427 177.023573 
L 209.869348 150.124729 
L 210.433269 112.741741 
L 210.715229 93.295088 
L 211.561111 63.015905 
L 211.843072 53.762202 
L 212.125032 54.054222 
L 212.970914 71.991718 
L 213.534835 103.811188 
L 214.098756 130.076014 
L 214.944638 153.179905 
L 215.226599 152.577507 
L 215.508559 153.450748 
L 215.79052 158.56777 
L 216.072481 160.944642 
L 216.354441 158.817197 
L 216.918362 156.47113 
L 217.764244 139.257742 
L 218.610126 140.154665 
L 218.892086 142.37646 
L 219.456008 148.912911 
L 220.019929 150.992112 
L 220.301889 151.220138 
L 220.865811 146.9364 
L 221.147771 147.46439 
L 221.429732 148.326081 
L 221.993653 140.279029 
L 222.275613 141.550167 
L 222.557574 143.981891 
L 222.839535 142.326178 
L 223.121495 143.455649 
L 223.685416 156.969287 
L 223.967377 158.476021 
L 224.249338 165.468116 
L 224.531298 177.265806 
L 224.813259 183.587173 
L 225.095219 184.101767 
L 225.37718 185.346089 
L 225.941101 193.249008 
L 226.223062 197.430816 
L 226.505022 197.609648 
L 226.786983 195.97579 
L 227.068943 198.824719 
L 227.350904 202.838626 
L 227.632865 198.6395 
L 228.478746 156.733239 
L 229.324628 113.332677 
L 230.45247 63.198863 
L 231.016392 49.700054 
L 231.298352 46.313042 
L 231.580313 46.502903 
L 231.862273 53.106777 
L 232.426195 83.50276 
L 232.990116 113.362367 
L 233.835998 147.635345 
L 234.96384 163.581909 
L 235.2458 160.597286 
L 235.527761 160.43481 
L 235.809722 161.690902 
L 236.373643 157.639378 
L 236.655603 158.101649 
L 236.937564 156.381793 
L 237.219525 153.279579 
L 237.501485 153.093269 
L 237.783446 152.596477 
L 238.065406 149.804123 
L 238.347367 150.893313 
L 238.629327 156.546499 
L 238.911288 159.192392 
L 239.75717 153.572162 
L 240.03913 154.720228 
L 240.603052 164.063526 
L 240.885012 162.129947 
L 241.166973 161.241538 
L 241.448933 165.136941 
L 241.730894 165.746554 
L 242.294815 151.751051 
L 242.576776 150.270289 
L 243.140697 155.137781 
L 243.422657 155.110545 
L 243.704618 154.311042 
L 243.986579 157.228577 
L 244.268539 163.209494 
L 244.5505 166.212426 
L 244.83246 166.328327 
L 245.114421 170.109343 
L 245.678342 183.998155 
L 246.242263 191.721715 
L 246.806184 201.239836 
L 247.088145 200.032745 
L 247.934027 177.593382 
L 248.215987 169.892857 
L 248.779909 142.054858 
L 249.907751 81.058888 
L 250.753633 54.732573 
L 251.035593 49.252128 
L 251.317554 46.428402 
L 251.599514 49.602364 
L 252.163436 67.663728 
L 253.291278 131.618242 
L 253.855199 150.969568 
L 254.41912 160.797991 
L 254.701081 164.203872 
L 254.983041 165.608746 
L 255.546963 166.110754 
L 255.828923 165.692258 
L 256.110884 164.080477 
L 256.674805 155.92109 
L 256.956766 154.919742 
L 257.238726 156.516125 
L 257.520687 154.981128 
L 257.802647 150.986225 
L 258.084608 149.640481 
L 258.366569 150.440737 
L 258.648529 150.33041 
L 259.21245 148.825807 
L 259.494411 149.183918 
L 259.776371 150.852996 
L 260.058332 151.35831 
L 260.340293 149.731367 
L 260.622253 149.883205 
L 261.186174 156.280325 
L 261.468135 157.363861 
L 261.750096 159.243141 
L 262.314017 164.98704 
L 262.595977 165.661187 
L 262.877938 167.537752 
L 263.441859 175.323028 
L 263.72382 175.477068 
L 264.00578 177.021078 
L 264.569701 184.599092 
L 264.851662 187.241431 
L 265.415583 195.517266 
L 265.697544 196.036441 
L 266.261465 200.598792 
L 266.543425 194.598016 
L 267.389307 156.991679 
L 268.79911 82.702543 
L 269.644992 50.037328 
L 269.926953 45.30593 
L 270.208913 43.314312 
L 270.490874 46.038683 
L 271.054795 62.695878 
L 272.746558 132.559537 
L 273.59244 148.821508 
L 274.438322 158.9608 
L 275.002243 160.861109 
L 275.284204 163.002305 
L 275.566164 163.481331 
L 275.848125 162.341334 
L 276.412046 163.493361 
L 276.694007 161.542173 
L 277.257928 157.098495 
L 277.539888 156.293767 
L 277.821849 155.892304 
L 278.38577 153.243424 
L 278.667731 153.882046 
L 278.949691 155.488673 
L 279.231652 154.77438 
L 279.513612 154.507439 
L 280.077534 160.019575 
L 280.359494 158.456919 
L 280.641455 160.301167 
L 281.205376 175.105218 
L 281.487337 175.32912 
L 281.769297 175.288353 
L 282.333218 181.811141 
L 282.897139 180.52668 
L 284.024982 193.87689 
L 284.588903 212.778336 
L 284.870864 215.486537 
L 285.434785 205.642794 
L 285.716745 196.276286 
L 287.408509 90.981422 
L 288.254391 54.762659 
L 288.818312 38.893947 
L 289.100272 33.211573 
L 289.382233 29.875327 
L 289.664194 32.138808 
L 290.228115 54.980209 
L 291.355957 102.978651 
L 291.919878 128.459764 
L 292.483799 140.842043 
L 293.047721 148.242929 
L 294.457524 157.548742 
L 295.021445 163.978001 
L 295.303405 162.94464 
L 295.585366 161.400066 
L 295.867326 162.498552 
L 296.431248 162.739969 
L 296.995169 178.554108 
L 297.277129 179.272877 
L 297.55909 177.249818 
L 297.841051 180.92855 
L 298.123011 182.60767 
L 298.686932 171.701511 
L 298.968893 172.508736 
L 299.250853 174.295583 
L 299.532814 176.87962 
L 299.814775 181.412933 
L 300.096735 183.80732 
L 300.378696 183.033334 
L 300.660656 183.072981 
L 300.942617 185.312629 
L 301.224578 188.552559 
L 301.506538 190.487609 
L 301.788499 186.290435 
L 302.35242 164.142152 
L 302.634381 160.512206 
L 302.916341 160.65193 
L 303.198302 160.663444 
L 303.480262 162.767956 
L 303.762223 166.46293 
L 304.044183 166.259209 
L 304.608105 156.084324 
L 304.890065 148.848096 
L 305.735947 120.286985 
L 307.709671 67.190191 
L 308.273592 59.942443 
L 308.555553 58.82625 
L 309.119474 61.25065 
L 309.401435 65.922653 
L 310.811238 122.191074 
L 311.93908 165.804319 
L 312.503001 170.628074 
L 313.066922 177.556538 
L 313.348883 179.797067 
L 313.630843 177.616543 
L 314.194765 155.57502 
L 314.476725 154.678037 
L 314.758686 157.934232 
L 315.040646 157.782919 
L 315.322607 156.778629 
L 315.604567 156.534418 
L 315.886528 154.606238 
L 316.450449 149.647436 
L 316.73241 147.519611 
L 317.01437 147.69438 
L 317.578292 153.460356 
L 317.860252 152.712609 
L 318.142213 154.644979 
L 318.424173 159.849815 
L 318.706134 161.957643 
L 318.988095 161.279161 
L 319.270055 164.149705 
L 319.552016 169.361077 
L 319.833976 170.930175 
L 320.115937 169.81045 
L 320.397897 170.499287 
L 320.961819 175.718839 
L 321.52574 183.974873 
L 322.089661 194.034997 
L 322.653582 208.909602 
L 322.935543 210.068188 
L 323.217503 205.993466 
L 323.499464 198.803248 
L 324.063385 170.381922 
L 326.037109 62.173481 
L 326.60103 44.317605 
L 326.882991 37.908277 
L 327.164952 36.857328 
L 327.446912 43.455785 
L 328.010833 66.346257 
L 328.856715 105.404847 
L 329.420636 125.025013 
L 329.984557 149.165019 
L 330.548479 158.185943 
L 330.830439 162.165682 
L 331.1124 164.03339 
L 331.39436 164.938813 
L 331.958281 171.260315 
L 332.240242 170.146505 
L 332.522203 169.652492 
L 332.804163 171.681319 
L 333.086124 170.06589 
L 334.213966 145.298217 
L 334.495927 142.586674 
L 335.341809 146.629784 
L 335.623769 147.613971 
L 335.90573 147.693717 
L 336.18769 146.964782 
L 336.469651 147.021379 
L 336.751611 147.458107 
L 337.033572 148.471871 
L 337.315533 152.173626 
L 337.879454 161.343406 
L 338.161414 164.121932 
L 338.443375 168.074863 
L 338.725336 174.461373 
L 339.289257 199.801882 
L 339.853178 220.413512 
L 340.417099 237.791199 
L 340.69906 237.382602 
L 341.544941 212.91951 
L 341.826902 200.078088 
L 342.390823 157.075733 
L 343.518666 68.598693 
L 344.082587 36.604077 
L 344.646508 14.906295 
L 344.928468 12.314954 
L 345.210429 14.352435 
L 345.49239 19.816605 
L 345.77435 29.780454 
L 346.902193 83.574863 
L 347.466114 98.61349 
L 348.311995 125.334229 
L 348.875917 136.325961 
L 349.157877 139.14966 
L 350.56768 146.883469 
L 350.849641 147.797661 
L 351.131601 150.685425 
L 351.695523 163.237343 
L 351.977483 164.649391 
L 352.259444 167.416295 
L 352.541404 174.56016 
L 352.823365 178.323396 
L 353.105325 176.424067 
L 353.387286 176.715511 
L 353.669247 180.311795 
L 353.951207 181.638567 
L 354.233168 182.36773 
L 354.515128 185.694868 
L 354.797089 185.698888 
L 355.36101 167.068299 
L 355.642971 163.849752 
L 356.206892 167.653784 
L 356.488852 169.424361 
L 357.052774 178.260965 
L 357.334734 179.285796 
L 357.616695 183.166446 
L 358.180616 196.034728 
L 358.462577 199.536862 
L 359.026498 211.781009 
L 359.308458 214.812151 
L 359.590419 216.05011 
L 359.87238 213.513768 
L 360.436301 191.436175 
L 361.000222 161.969707 
L 361.564143 119.272054 
L 362.410025 76.691905 
L 362.691985 58.509939 
L 362.973946 49.875896 
L 363.255907 48.444699 
L 363.537867 48.215186 
L 363.819828 51.142559 
L 364.665709 72.347406 
L 364.94767 85.472362 
L 365.229631 93.314123 
L 365.511591 93.258743 
L 365.793552 97.028777 
L 366.357473 115.235478 
L 366.921394 122.892323 
L 367.203355 124.715576 
L 367.485315 124.977962 
L 368.049237 130.483112 
L 368.331197 129.813853 
L 368.613158 131.520092 
L 368.895118 136.11284 
L 369.177079 136.907216 
L 369.459039 136.205484 
L 369.741 141.001205 
L 370.022961 147.95064 
L 371.432764 164.408405 
L 371.996685 166.363361 
L 372.842566 181.771047 
L 373.124527 182.279642 
L 373.406488 184.792245 
L 373.688448 184.141021 
L 373.970409 179.230809 
L 374.252369 179.599462 
L 374.53433 184.943609 
L 374.816291 184.3951 
L 375.098251 179.53892 
L 375.380212 179.554349 
L 375.944133 184.77429 
L 376.226094 192.143516 
L 376.790015 213.079346 
L 377.353936 225.268663 
L 377.635896 225.727322 
L 378.481778 188.274201 
L 378.763739 175.564279 
L 380.455502 73.628753 
L 381.019423 50.340605 
L 381.301384 54.05349 
L 381.583345 63.762875 
L 382.147266 72.264458 
L 382.711187 88.618404 
L 382.993148 90.323622 
L 383.275108 90.071876 
L 383.557069 93.123103 
L 384.12099 102.471658 
L 384.402951 105.491255 
L 384.684911 111.31975 
L 385.248832 126.006137 
L 385.530793 126.389406 
L 385.812753 127.270694 
L 386.094714 131.881938 
L 386.376675 134.628165 
L 386.940596 126.596235 
L 387.222556 128.643132 
L 387.786478 144.12076 
L 388.350399 151.353405 
L 388.632359 157.095471 
L 388.91432 160.317066 
L 389.19628 159.96106 
L 389.478241 160.816434 
L 389.760202 164.286696 
L 390.042162 165.921101 
L 390.324123 165.120898 
L 390.606083 166.888807 
L 390.888044 171.156891 
L 391.170005 172.512845 
L 391.451965 172.288871 
L 391.733926 176.207398 
L 392.297847 186.636645 
L 392.861768 193.930302 
L 393.143729 191.831732 
L 393.425689 190.613858 
L 394.271571 208.789688 
L 395.117453 232.784041 
L 395.399413 237.407082 
L 395.681374 244.857581 
L 395.963335 245.484988 
L 396.245295 234.160654 
L 396.809216 199.554909 
L 397.655098 126.863975 
L 398.50098 84.874372 
L 399.064901 70.533924 
L 399.346862 61.130389 
L 399.628822 57.148658 
L 399.910783 58.073745 
L 400.192743 58.280609 
L 400.474704 62.927336 
L 401.320586 98.897263 
L 402.730389 135.905435 
L 403.012349 137.404219 
L 403.29431 132.00443 
L 403.57627 129.635844 
L 403.858231 132.998141 
L 404.140192 134.009874 
L 404.422152 125.545024 
L 405.268034 83.21335 
L 405.831955 64.398501 
L 406.395876 55.053996 
L 406.677837 55.012319 
L 406.959797 60.896517 
L 407.241758 70.269151 
L 407.523719 83.643094 
L 408.3696 137.357751 
L 409.215482 176.321993 
L 409.779403 180.496438 
L 410.343324 194.524223 
L 410.625285 197.287124 
L 410.907246 201.840395 
L 411.471167 216.763496 
L 412.035088 228.775435 
L 412.317049 234.404325 
L 412.599009 235.903962 
L 412.88097 236.251149 
L 413.444891 240.00405 
L 414.008812 245.161439 
L 414.290773 242.354376 
L 414.854694 219.674663 
L 415.418615 188.689718 
L 416.264497 133.116673 
L 417.392339 92.695373 
L 417.95626 82.417386 
L 418.520181 76.161225 
L 419.366063 69.131219 
L 419.648024 69.189758 
L 419.929984 70.804564 
L 420.211945 74.686152 
L 420.775866 88.645711 
L 421.057827 92.054606 
L 421.621748 91.084888 
L 421.903708 91.313689 
L 422.46763 87.998847 
L 422.74959 89.380595 
L 423.313511 94.735043 
L 423.595472 99.925697 
L 424.159393 114.98788 
L 424.441354 117.635435 
L 426.415078 152.825225 
L 426.978999 157.413851 
L 427.824881 160.201472 
L 428.106841 159.723807 
L 428.388802 160.420116 
L 428.952723 166.906485 
L 429.798605 179.392428 
L 430.644487 196.813416 
L 432.33625 252.75063 
L 432.618211 254.234954 
L 432.900171 252.674615 
L 433.182132 246.722319 
L 433.464093 232.727708 
L 435.437817 95.161391 
L 436.001738 78.214903 
L 436.283698 64.723143 
L 436.565659 56.712212 
L 437.12958 63.096018 
L 437.411541 61.359872 
L 437.693501 68.631398 
L 437.975462 82.747457 
L 438.257422 88.863368 
L 438.539383 90.873972 
L 439.103304 105.135275 
L 439.385265 104.818252 
L 439.667225 107.243778 
L 439.949186 113.180229 
L 440.231147 115.161989 
L 440.513107 116.027908 
L 440.795068 119.090979 
L 441.077028 119.794416 
L 441.358989 119.800741 
L 441.92291 129.652012 
L 442.486831 133.654121 
L 442.768792 136.389943 
L 443.614674 140.55598 
L 443.896634 141.25692 
L 445.024477 145.579528 
L 445.870358 157.41914 
L 446.71624 164.529893 
L 447.844082 179.413905 
L 448.126043 180.083521 
L 448.408004 180.189087 
L 449.253885 185.719468 
L 449.535846 188.503606 
L 450.945649 219.870883 
L 451.227609 219.270413 
L 452.073491 188.778235 
L 452.355452 175.278802 
L 452.919373 137.988108 
L 453.483294 117.463951 
L 454.047215 88.314478 
L 454.329176 82.947683 
L 454.611136 82.106215 
L 454.893097 82.435681 
L 455.175058 85.805794 
L 456.020939 115.042376 
L 456.3029 116.214915 
L 456.866821 122.846968 
L 457.148782 120.096341 
L 457.430742 113.368616 
L 457.712703 110.405773 
L 457.994663 109.76544 
L 458.276624 108.412598 
L 458.840545 108.691496 
L 459.122506 106.692029 
L 459.404466 108.293735 
L 459.968388 119.108414 
L 460.250348 120.513656 
L 460.814269 127.972276 
L 461.09623 128.415873 
L 461.378191 130.567806 
L 461.942112 138.33801 
L 462.224072 140.843582 
L 463.351915 155.2057 
L 463.633875 156.969118 
L 463.915836 157.437578 
L 464.197796 163.013162 
L 464.479757 172.115552 
L 464.761718 176.955106 
L 465.043678 177.426956 
L 465.607599 182.282191 
L 465.88956 180.186418 
L 466.17152 175.310833 
L 466.453481 174.768556 
L 467.299363 183.254516 
L 467.863284 198.709302 
L 468.145245 202.837884 
L 468.427205 205.146444 
L 468.709166 201.777652 
L 470.68289 120.105584 
L 471.528772 93.778804 
L 472.092693 87.713579 
L 472.374653 85.936307 
L 472.656614 88.616772 
L 472.938575 93.280646 
L 473.502496 97.962476 
L 474.066417 107.045908 
L 474.348377 108.873932 
L 474.912299 116.035034 
L 475.194259 117.812534 
L 475.47622 124.464503 
L 475.75818 134.675923 
L 476.040141 137.897986 
L 476.322102 135.396903 
L 476.604062 136.494903 
L 476.886023 138.597802 
L 477.167983 136.284127 
L 477.449944 135.633963 
L 478.013865 144.382013 
L 478.295826 143.909037 
L 478.577786 144.104504 
L 478.859747 146.04916 
L 479.141707 146.643044 
L 479.423668 146.461469 
L 479.705629 147.00691 
L 479.987589 146.908429 
L 480.26955 146.656163 
L 480.55151 149.223956 
L 481.115432 156.942939 
L 481.397392 157.081571 
L 481.679353 157.914853 
L 481.961313 163.310972 
L 482.243274 170.912257 
L 482.525234 172.389126 
L 483.089156 162.714374 
L 483.371116 164.040173 
L 483.653077 161.360933 
L 483.935037 155.412555 
L 484.216998 156.683603 
L 484.498959 162.716381 
L 485.06288 166.793869 
L 485.34484 173.132625 
L 485.626801 176.183275 
L 485.908762 176.365165 
L 486.190722 183.995145 
L 486.472683 195.083113 
L 486.754643 196.571785 
L 487.036604 191.251733 
L 487.318564 188.238867 
L 487.600525 181.907379 
L 488.164446 151.948643 
L 488.446407 144.727141 
L 488.728367 134.591506 
L 489.010328 119.852126 
L 489.292289 112.571266 
L 489.574249 110.117708 
L 490.13817 85.260598 
L 490.420131 84.174688 
L 490.702091 88.103713 
L 490.984052 85.31172 
L 491.266013 84.72851 
L 491.829934 104.782097 
L 492.675816 116.602646 
L 492.957776 118.783276 
L 493.239737 116.688362 
L 493.803658 107.826532 
L 494.085619 113.011234 
L 494.367579 122.899624 
L 495.213461 140.017476 
L 495.495421 146.96827 
L 495.777382 148.890062 
L 496.059343 154.210879 
L 496.341303 164.307218 
L 496.623264 168.574111 
L 496.905224 166.495366 
L 497.187185 167.051713 
L 497.469146 168.067098 
L 498.315027 152.016738 
L 498.596988 154.777496 
L 498.878948 154.227515 
L 499.160909 149.858148 
L 499.44287 147.260231 
L 500.006791 150.150566 
L 500.288751 145.952182 
L 500.570712 138.580939 
L 500.852673 134.769189 
L 501.134633 138.193583 
L 501.698554 156.016208 
L 502.262476 165.124511 
L 502.826397 181.468817 
L 503.108357 177.408841 
L 503.390318 175.027957 
L 503.672278 180.703004 
L 503.954239 181.696445 
L 504.2362 175.136229 
L 504.51816 174.855079 
L 504.800121 181.228825 
L 505.082081 182.134117 
L 505.364042 179.042381 
L 505.646003 178.888246 
L 505.927963 176.556731 
L 506.773845 145.45553 
L 507.337766 126.667678 
L 508.183648 111.606808 
L 508.747569 100.506957 
L 509.02953 100.177873 
L 509.593451 113.939721 
L 510.157372 115.461051 
L 510.721293 128.096573 
L 511.285214 118.495903 
L 511.849135 125.456975 
L 512.131096 126.405645 
L 512.695017 130.396753 
L 513.258938 124.953894 
L 513.540899 131.78631 
L 513.82286 142.774301 
L 514.10482 149.230892 
L 514.386781 150.356159 
L 514.950702 150.068367 
L 515.232662 149.916851 
L 515.514623 151.593408 
L 515.796584 154.975896 
L 516.078544 155.093509 
L 516.360505 151.80279 
L 516.642465 152.32312 
L 516.924426 155.039845 
L 517.206387 149.662314 
L 517.488347 139.690782 
L 517.770308 138.985894 
L 518.052268 145.700691 
L 518.334229 147.804462 
L 518.61619 145.765707 
L 518.89815 145.862525 
L 519.180111 146.666791 
L 519.462071 146.668188 
L 519.744032 147.072335 
L 520.025992 146.099524 
L 520.307953 144.611124 
L 520.589914 146.941586 
L 520.871874 150.47092 
L 521.153835 151.227462 
L 521.435795 153.0071 
L 521.717756 155.792266 
L 521.999717 154.091277 
L 522.281677 153.992409 
L 523.127559 181.860447 
L 523.409519 183.965156 
L 523.69148 189.806952 
L 523.973441 190.597268 
L 524.537362 170.163263 
L 525.947165 123.056308 
L 526.793047 100.807906 
L 527.356968 93.657521 
L 527.638928 94.394366 
L 528.202849 109.45588 
L 528.48481 110.823742 
L 528.766771 114.830246 
L 529.048731 125.162232 
L 529.330692 127.545763 
L 529.894613 107.650692 
L 530.458534 114.591962 
L 530.740495 112.458283 
L 531.022455 112.278046 
L 531.304416 121.783608 
L 531.868337 144.893703 
L 532.150298 144.994484 
L 532.432258 143.156069 
L 532.996179 145.605233 
L 533.560101 142.55762 
L 534.124022 145.525116 
L 534.405982 144.256756 
L 534.687943 141.959936 
L 534.969904 142.112909 
L 535.251864 144.207556 
L 535.533825 144.509868 
L 535.815785 142.864053 
L 536.097746 143.094773 
L 536.379706 145.552042 
L 536.661667 146.603528 
L 536.943628 146.664739 
L 537.225588 149.199918 
L 537.507549 152.753524 
L 538.07147 154.709146 
L 538.635391 166.658581 
L 538.917352 165.929042 
L 539.199312 162.8343 
L 539.481273 166.786231 
L 539.763233 172.430479 
L 540.045194 168.24511 
L 540.327155 160.307313 
L 540.609115 162.009149 
L 540.891076 169.522994 
L 541.173036 172.221546 
L 541.454997 172.566687 
L 542.300879 182.880338 
L 542.582839 182.813851 
L 542.8648 181.853144 
L 543.146761 179.064409 
L 543.428721 170.549291 
L 544.274603 129.230076 
L 544.838524 109.974038 
L 545.120485 100.399132 
L 545.402445 96.721415 
L 545.966366 96.326583 
L 546.530288 92.029813 
L 546.812248 94.497183 
L 547.376169 107.494222 
L 547.94009 111.263093 
L 548.504012 123.037093 
L 549.067933 135.32839 
L 549.349893 138.333657 
L 550.195775 150.720254 
L 550.477736 149.635343 
L 550.759696 152.886659 
L 551.041657 157.978406 
L 551.323618 156.144271 
L 551.605578 150.181255 
L 551.887539 149.029083 
L 552.169499 150.154442 
L 552.45146 143.896734 
L 552.73342 131.039901 
L 553.015381 123.475275 
L 553.297342 126.745082 
L 553.579302 132.143931 
L 553.861263 133.072859 
L 554.143223 136.404595 
L 554.707145 152.802403 
L 554.989105 152.88206 
L 555.271066 155.992307 
L 555.553026 164.167235 
L 555.834987 166.506269 
L 556.398908 154.242989 
L 556.680869 153.83875 
L 556.962829 153.845979 
L 557.24479 151.426248 
L 557.52675 150.964082 
L 558.090672 158.354719 
L 558.654593 152.074568 
L 559.218514 159.862277 
L 559.782435 152.887213 
L 560.064396 156.121964 
L 560.346356 161.071648 
L 560.628317 163.79777 
L 560.910277 169.118541 
L 561.474199 188.23973 
L 561.756159 193.023188 
L 562.03812 191.749427 
L 562.32008 186.32716 
L 562.602041 178.637946 
L 562.884002 165.517103 
L 563.447923 130.681657 
L 564.293804 108.154577 
L 564.857726 98.823209 
L 565.139686 95.903749 
L 565.421647 96.201602 
L 565.985568 104.652959 
L 567.11341 130.116697 
L 567.959292 140.198229 
L 568.241253 143.908004 
L 568.523213 145.246867 
L 568.805174 144.516473 
L 569.087134 143.373698 
L 569.369095 142.73985 
L 569.651056 142.68803 
L 569.933016 141.902271 
L 570.214977 139.75937 
L 570.496937 138.660737 
L 570.778898 139.625251 
L 571.060859 139.915356 
L 571.342819 139.762428 
L 571.90674 146.468454 
L 572.188701 146.695893 
L 572.470661 145.596942 
L 573.034583 150.073884 
L 573.316543 150.013058 
L 573.880464 150.673796 
L 574.444386 144.158262 
L 575.008307 148.319378 
L 575.572228 143.276255 
L 575.854189 145.981184 
L 576.136149 150.565871 
L 576.70007 153.78335 
L 577.263991 162.643877 
L 577.827913 165.544336 
L 578.109873 169.481863 
L 578.391834 171.789594 
L 578.673794 171.469946 
L 578.955755 174.469762 
L 579.237716 180.028993 
L 579.519676 180.182472 
L 579.801637 176.185815 
L 580.083597 175.92984 
L 580.365558 176.960439 
L 580.647518 170.752737 
L 581.4934 138.512122 
L 582.057321 121.541259 
L 582.903203 107.933869 
L 583.467124 102.231838 
L 583.749085 97.773191 
L 584.031046 99.458198 
L 584.594967 116.677288 
L 584.876927 119.187259 
L 585.158888 124.10588 
L 585.440848 133.068816 
L 585.722809 137.361686 
L 586.28673 129.416316 
L 586.568691 130.490442 
L 587.132612 137.569813 
L 587.414573 139.082834 
L 587.696533 139.878858 
L 587.978494 138.952654 
L 588.260454 137.213295 
L 588.542415 137.798416 
L 588.824375 139.55534 
L 589.106336 138.113599 
L 589.388297 135.990581 
L 589.670257 139.623534 
L 589.952218 146.134225 
L 590.234178 147.841767 
L 590.516139 147.075694 
L 591.08006 153.137641 
L 591.362021 152.804372 
L 591.643981 151.947032 
L 591.925942 152.21719 
L 592.207903 152.080277 
L 592.771824 153.190381 
L 593.335745 145.474623 
L 593.617705 146.511764 
L 593.899666 150.592101 
L 594.181627 152.308939 
L 594.463587 151.063749 
L 594.745548 148.846722 
L 595.027508 149.056995 
L 595.59143 156.493152 
L 595.87339 156.268009 
L 596.155351 156.652372 
L 596.437311 159.250028 
L 596.719272 160.774731 
L 597.565154 161.150719 
L 597.847114 162.942682 
L 598.129075 165.811195 
L 598.411035 165.981138 
L 598.692996 164.535554 
L 598.974957 163.716716 
L 599.256917 159.381359 
L 599.820838 145.131431 
L 600.102799 140.464189 
L 600.66672 126.995402 
L 600.948681 125.726159 
L 601.230641 122.851975 
L 601.794562 109.318912 
L 602.076523 106.880004 
L 602.358484 105.761842 
L 602.922405 102.599177 
L 603.204365 105.591984 
L 603.768287 121.351947 
L 604.050247 125.606756 
L 604.614168 129.845597 
L 605.178089 129.785166 
L 605.46005 130.855546 
L 605.742011 130.674245 
L 606.023971 129.066418 
L 606.305932 128.659802 
L 606.869853 129.798012 
L 607.151814 131.201654 
L 607.715735 136.231629 
L 607.997695 137.572894 
L 608.561617 143.208369 
L 608.843577 139.71875 
L 609.125538 134.624722 
L 609.407498 134.939699 
L 609.689459 137.90408 
L 609.971419 138.999638 
L 610.535341 142.42249 
L 610.817301 141.873239 
L 611.099262 144.102876 
L 611.381222 151.788188 
L 611.663183 155.205131 
L 611.945144 151.652425 
L 612.227104 152.718528 
L 612.509065 160.550492 
L 612.791025 164.411658 
L 613.072986 163.002921 
L 613.354946 162.561029 
L 613.636907 161.511619 
L 613.918868 158.385267 
L 614.200828 158.897835 
L 614.482789 163.188906 
L 614.764749 165.405069 
L 615.04671 166.280857 
L 615.610631 171.269482 
L 615.892592 171.795251 
L 616.456513 174.205205 
L 616.738474 173.477013 
L 617.020434 174.147626 
L 617.302395 175.784899 
L 617.584355 173.615678 
L 618.430237 157.951941 
L 618.994158 133.524129 
L 620.122001 115.499985 
L 620.403961 119.034948 
L 620.685922 124.208309 
L 620.967882 125.174351 
L 621.249843 124.069388 
L 621.531803 124.687413 
L 622.095725 129.615415 
L 622.941606 138.456116 
L 623.505528 147.833291 
L 623.787488 148.98799 
L 624.069449 149.210051 
L 624.63337 154.796163 
L 624.915331 150.821378 
L 625.479252 137.748997 
L 626.325133 122.953706 
L 627.171015 139.560062 
L 627.734936 128.177052 
L 628.016897 127.746624 
L 628.298858 128.064261 
L 628.580818 124.625871 
L 628.862779 123.902137 
L 629.4267 138.544903 
L 629.70866 141.018817 
L 629.990621 141.259612 
L 630.836503 141.224229 
L 632.246306 141.24792 
L 633.092188 141.281549 
L 633.092188 141.281549 
" clip-path="url(#p3437463cd6)" style="fill: none; stroke: #1f77b4; stroke-width: 1.5; stroke-linecap: square"/>
   </g>
   <g id="patch_3">
    <path d="M 47.192188 266.330954 
L 47.192188 0.218954 
" style="fill: none; stroke: #808080; stroke-width: 0.8; stroke-linejoin: miter; stroke-linecap: square"/>
   </g>
   <g id="patch_4">
    <path d="M 660.992188 266.330954 
L 660.992188 0.218954 
" style="fill: none; stroke: #000000; stroke-width: 0.8; stroke-linejoin: miter; stroke-linecap: square"/>
   </g>
   <g id="patch_5">
    <path d="M 47.192188 266.330954 
L 660.992188 266.330954 
" style="fill: none; stroke: #808080; stroke-width: 0.8; stroke-linejoin: miter; stroke-linecap: square"/>
   </g>
   <g id="patch_6">
    <path d="M 47.192188 0.218954 
L 660.992188 0.218954 
" style="fill: none; stroke: #000000; stroke-width: 0.8; stroke-linejoin: miter; stroke-linecap: square"/>
   </g>
  </g>
 </g>
 <defs>
  <clipPath id="p3437463cd6">
   <rect x="47.192188" y="0.218954" width="613.8" height="266.112"/>
  </clipPath>
 </defs>
</svg>
