<?xml version="1.0" encoding="utf-8" standalone="no"?>
<!DOCTYPE svg PUBLIC "-//W3C//DTD SVG 1.1//EN"
  "http://www.w3.org/Graphics/SVG/1.1/DTD/svg11.dtd">
<svg xmlns:xlink="http://www.w3.org/1999/xlink" width="660.992188pt" height="282.790125pt" viewBox="0 0 660.992188 282.790125" xmlns="http://www.w3.org/2000/svg" version="1.1">
 <metadata>
  <rdf:RDF xmlns:dc="http://purl.org/dc/elements/1.1/" xmlns:cc="http://creativecommons.org/ns#" xmlns:rdf="http://www.w3.org/1999/02/22-rdf-syntax-ns#">
   <cc:Work>
    <dc:type rdf:resource="http://purl.org/dc/dcmitype/StillImage"/>
    <dc:date>2023-03-06T19:23:06.252970</dc:date>
    <dc:format>image/svg+xml</dc:format>
    <dc:creator>
     <cc:Agent>
      <dc:title>Matplotlib v3.6.3, https://matplotlib.org/</dc:title>
     </cc:Agent>
    </dc:creator>
   </cc:Work>
  </rdf:RDF>
 </metadata>
 <defs>
  <style type="text/css">*{stroke-linejoin: round; stroke-linecap: butt}</style>
 </defs>
 <g id="figure_1">
  <g id="patch_1">
   <path d="M -0 282.790125 
L 660.992188 282.790125 
L 660.992188 0 
L -0 0 
L -0 282.790125 
z
" style="fill: none"/>
  </g>
  <g id="axes_1">
   <g id="patch_2">
    <path d="M 47.192188 266.112 
L 660.992188 266.112 
L 660.992188 0 
L 47.192188 0 
L 47.192188 266.112 
z
" style="fill: none"/>
   </g>
   <g id="matplotlib.axis_1">
    <g id="xtick_1">
     <g id="line2d_1">
      <defs>
       <path id="mb6508405dc" d="M 0 0 
L 0 3.5 
" style="stroke: #000000; stroke-width: 0.8"/>
      </defs>
      <g>
       <use xlink:href="#mb6508405dc" x="75.092188" y="266.112" style="stroke: #000000; stroke-width: 0.8"/>
      </g>
     </g>
     <g id="text_1">
      <!-- 0 -->
      <g transform="translate(71.910938 280.710438) scale(0.1 -0.1)">
       <defs>
        <path id="DejaVuSans-30" d="M 2034 4250 
Q 1547 4250 1301 3770 
Q 1056 3291 1056 2328 
Q 1056 1369 1301 889 
Q 1547 409 2034 409 
Q 2525 409 2770 889 
Q 3016 1369 3016 2328 
Q 3016 3291 2770 3770 
Q 2525 4250 2034 4250 
z
M 2034 4750 
Q 2819 4750 3233 4129 
Q 3647 3509 3647 2328 
Q 3647 1150 3233 529 
Q 2819 -91 2034 -91 
Q 1250 -91 836 529 
Q 422 1150 422 2328 
Q 422 3509 836 4129 
Q 1250 4750 2034 4750 
z
" transform="scale(0.015625)"/>
       </defs>
       <use xlink:href="#DejaVuSans-30"/>
      </g>
     </g>
    </g>
    <g id="xtick_2">
     <g id="line2d_2">
      <g>
       <use xlink:href="#mb6508405dc" x="144.842188" y="266.112" style="stroke: #000000; stroke-width: 0.8"/>
      </g>
     </g>
     <g id="text_2">
      <!-- 500 -->
      <g transform="translate(135.298438 280.710438) scale(0.1 -0.1)">
       <defs>
        <path id="DejaVuSans-35" d="M 691 4666 
L 3169 4666 
L 3169 4134 
L 1269 4134 
L 1269 2991 
Q 1406 3038 1543 3061 
Q 1681 3084 1819 3084 
Q 2600 3084 3056 2656 
Q 3513 2228 3513 1497 
Q 3513 744 3044 326 
Q 2575 -91 1722 -91 
Q 1428 -91 1123 -41 
Q 819 9 494 109 
L 494 744 
Q 775 591 1075 516 
Q 1375 441 1709 441 
Q 2250 441 2565 725 
Q 2881 1009 2881 1497 
Q 2881 1984 2565 2268 
Q 2250 2553 1709 2553 
Q 1456 2553 1204 2497 
Q 953 2441 691 2322 
L 691 4666 
z
" transform="scale(0.015625)"/>
       </defs>
       <use xlink:href="#DejaVuSans-35"/>
       <use xlink:href="#DejaVuSans-30" x="63.623047"/>
       <use xlink:href="#DejaVuSans-30" x="127.246094"/>
      </g>
     </g>
    </g>
    <g id="xtick_3">
     <g id="line2d_3">
      <g>
       <use xlink:href="#mb6508405dc" x="214.592188" y="266.112" style="stroke: #000000; stroke-width: 0.8"/>
      </g>
     </g>
     <g id="text_3">
      <!-- 1000 -->
      <g transform="translate(201.867188 280.710438) scale(0.1 -0.1)">
       <defs>
        <path id="DejaVuSans-31" d="M 794 531 
L 1825 531 
L 1825 4091 
L 703 3866 
L 703 4441 
L 1819 4666 
L 2450 4666 
L 2450 531 
L 3481 531 
L 3481 0 
L 794 0 
L 794 531 
z
" transform="scale(0.015625)"/>
       </defs>
       <use xlink:href="#DejaVuSans-31"/>
       <use xlink:href="#DejaVuSans-30" x="63.623047"/>
       <use xlink:href="#DejaVuSans-30" x="127.246094"/>
       <use xlink:href="#DejaVuSans-30" x="190.869141"/>
      </g>
     </g>
    </g>
    <g id="xtick_4">
     <g id="line2d_4">
      <g>
       <use xlink:href="#mb6508405dc" x="284.342188" y="266.112" style="stroke: #000000; stroke-width: 0.8"/>
      </g>
     </g>
     <g id="text_4">
      <!-- 1500 -->
      <g transform="translate(271.617188 280.710438) scale(0.1 -0.1)">
       <use xlink:href="#DejaVuSans-31"/>
       <use xlink:href="#DejaVuSans-35" x="63.623047"/>
       <use xlink:href="#DejaVuSans-30" x="127.246094"/>
       <use xlink:href="#DejaVuSans-30" x="190.869141"/>
      </g>
     </g>
    </g>
    <g id="xtick_5">
     <g id="line2d_5">
      <g>
       <use xlink:href="#mb6508405dc" x="354.092188" y="266.112" style="stroke: #000000; stroke-width: 0.8"/>
      </g>
     </g>
     <g id="text_5">
      <!-- 2000 -->
      <g transform="translate(341.367188 280.710438) scale(0.1 -0.1)">
       <defs>
        <path id="DejaVuSans-32" d="M 1228 531 
L 3431 531 
L 3431 0 
L 469 0 
L 469 531 
Q 828 903 1448 1529 
Q 2069 2156 2228 2338 
Q 2531 2678 2651 2914 
Q 2772 3150 2772 3378 
Q 2772 3750 2511 3984 
Q 2250 4219 1831 4219 
Q 1534 4219 1204 4116 
Q 875 4013 500 3803 
L 500 4441 
Q 881 4594 1212 4672 
Q 1544 4750 1819 4750 
Q 2544 4750 2975 4387 
Q 3406 4025 3406 3419 
Q 3406 3131 3298 2873 
Q 3191 2616 2906 2266 
Q 2828 2175 2409 1742 
Q 1991 1309 1228 531 
z
" transform="scale(0.015625)"/>
       </defs>
       <use xlink:href="#DejaVuSans-32"/>
       <use xlink:href="#DejaVuSans-30" x="63.623047"/>
       <use xlink:href="#DejaVuSans-30" x="127.246094"/>
       <use xlink:href="#DejaVuSans-30" x="190.869141"/>
      </g>
     </g>
    </g>
    <g id="xtick_6">
     <g id="line2d_6">
      <g>
       <use xlink:href="#mb6508405dc" x="423.842188" y="266.112" style="stroke: #000000; stroke-width: 0.8"/>
      </g>
     </g>
     <g id="text_6">
      <!-- 2500 -->
      <g transform="translate(411.117188 280.710438) scale(0.1 -0.1)">
       <use xlink:href="#DejaVuSans-32"/>
       <use xlink:href="#DejaVuSans-35" x="63.623047"/>
       <use xlink:href="#DejaVuSans-30" x="127.246094"/>
       <use xlink:href="#DejaVuSans-30" x="190.869141"/>
      </g>
     </g>
    </g>
    <g id="xtick_7">
     <g id="line2d_7">
      <g>
       <use xlink:href="#mb6508405dc" x="493.592188" y="266.112" style="stroke: #000000; stroke-width: 0.8"/>
      </g>
     </g>
     <g id="text_7">
      <!-- 3000 -->
      <g transform="translate(480.867188 280.710438) scale(0.1 -0.1)">
       <defs>
        <path id="DejaVuSans-33" d="M 2597 2516 
Q 3050 2419 3304 2112 
Q 3559 1806 3559 1356 
Q 3559 666 3084 287 
Q 2609 -91 1734 -91 
Q 1441 -91 1130 -33 
Q 819 25 488 141 
L 488 750 
Q 750 597 1062 519 
Q 1375 441 1716 441 
Q 2309 441 2620 675 
Q 2931 909 2931 1356 
Q 2931 1769 2642 2001 
Q 2353 2234 1838 2234 
L 1294 2234 
L 1294 2753 
L 1863 2753 
Q 2328 2753 2575 2939 
Q 2822 3125 2822 3475 
Q 2822 3834 2567 4026 
Q 2313 4219 1838 4219 
Q 1578 4219 1281 4162 
Q 984 4106 628 3988 
L 628 4550 
Q 988 4650 1302 4700 
Q 1616 4750 1894 4750 
Q 2613 4750 3031 4423 
Q 3450 4097 3450 3541 
Q 3450 3153 3228 2886 
Q 3006 2619 2597 2516 
z
" transform="scale(0.015625)"/>
       </defs>
       <use xlink:href="#DejaVuSans-33"/>
       <use xlink:href="#DejaVuSans-30" x="63.623047"/>
       <use xlink:href="#DejaVuSans-30" x="127.246094"/>
       <use xlink:href="#DejaVuSans-30" x="190.869141"/>
      </g>
     </g>
    </g>
    <g id="xtick_8">
     <g id="line2d_8">
      <g>
       <use xlink:href="#mb6508405dc" x="563.342188" y="266.112" style="stroke: #000000; stroke-width: 0.8"/>
      </g>
     </g>
     <g id="text_8">
      <!-- 3500 -->
      <g transform="translate(550.617188 280.710438) scale(0.1 -0.1)">
       <use xlink:href="#DejaVuSans-33"/>
       <use xlink:href="#DejaVuSans-35" x="63.623047"/>
       <use xlink:href="#DejaVuSans-30" x="127.246094"/>
       <use xlink:href="#DejaVuSans-30" x="190.869141"/>
      </g>
     </g>
    </g>
    <g id="xtick_9">
     <g id="line2d_9">
      <g>
       <use xlink:href="#mb6508405dc" x="633.092188" y="266.112" style="stroke: #000000; stroke-width: 0.8"/>
      </g>
     </g>
     <g id="text_9">
      <!-- 4000 -->
      <g transform="translate(620.367188 280.710438) scale(0.1 -0.1)">
       <defs>
        <path id="DejaVuSans-34" d="M 2419 4116 
L 825 1625 
L 2419 1625 
L 2419 4116 
z
M 2253 4666 
L 3047 4666 
L 3047 1625 
L 3713 1625 
L 3713 1100 
L 3047 1100 
L 3047 0 
L 2419 0 
L 2419 1100 
L 313 1100 
L 313 1709 
L 2253 4666 
z
" transform="scale(0.015625)"/>
       </defs>
       <use xlink:href="#DejaVuSans-34"/>
       <use xlink:href="#DejaVuSans-30" x="63.623047"/>
       <use xlink:href="#DejaVuSans-30" x="127.246094"/>
       <use xlink:href="#DejaVuSans-30" x="190.869141"/>
      </g>
     </g>
    </g>
   </g>
   <g id="matplotlib.axis_2">
    <g id="ytick_1">
     <g id="line2d_10">
      <defs>
       <path id="m4611ba3aad" d="M 0 0 
L -3.5 0 
" style="stroke: #000000; stroke-width: 0.8"/>
      </defs>
      <g>
       <use xlink:href="#m4611ba3aad" x="47.192188" y="232.528348" style="stroke: #000000; stroke-width: 0.8"/>
      </g>
     </g>
     <g id="text_10">
      <!-- −20000 -->
      <g transform="translate(0 236.327566) scale(0.1 -0.1)">
       <defs>
        <path id="DejaVuSans-2212" d="M 678 2272 
L 4684 2272 
L 4684 1741 
L 678 1741 
L 678 2272 
z
" transform="scale(0.015625)"/>
       </defs>
       <use xlink:href="#DejaVuSans-2212"/>
       <use xlink:href="#DejaVuSans-32" x="83.789062"/>
       <use xlink:href="#DejaVuSans-30" x="147.412109"/>
       <use xlink:href="#DejaVuSans-30" x="211.035156"/>
       <use xlink:href="#DejaVuSans-30" x="274.658203"/>
       <use xlink:href="#DejaVuSans-30" x="338.28125"/>
      </g>
     </g>
    </g>
    <g id="ytick_2">
     <g id="line2d_11">
      <g>
       <use xlink:href="#m4611ba3aad" x="47.192188" y="185.465669" style="stroke: #000000; stroke-width: 0.8"/>
      </g>
     </g>
     <g id="text_11">
      <!-- −10000 -->
      <g transform="translate(0 189.264888) scale(0.1 -0.1)">
       <use xlink:href="#DejaVuSans-2212"/>
       <use xlink:href="#DejaVuSans-31" x="83.789062"/>
       <use xlink:href="#DejaVuSans-30" x="147.412109"/>
       <use xlink:href="#DejaVuSans-30" x="211.035156"/>
       <use xlink:href="#DejaVuSans-30" x="274.658203"/>
       <use xlink:href="#DejaVuSans-30" x="338.28125"/>
      </g>
     </g>
    </g>
    <g id="ytick_3">
     <g id="line2d_12">
      <g>
       <use xlink:href="#m4611ba3aad" x="47.192188" y="138.40299" style="stroke: #000000; stroke-width: 0.8"/>
      </g>
     </g>
     <g id="text_12">
      <!-- 0 -->
      <g transform="translate(33.829688 142.202209) scale(0.1 -0.1)">
       <use xlink:href="#DejaVuSans-30"/>
      </g>
     </g>
    </g>
    <g id="ytick_4">
     <g id="line2d_13">
      <g>
       <use xlink:href="#m4611ba3aad" x="47.192188" y="91.340311" style="stroke: #000000; stroke-width: 0.8"/>
      </g>
     </g>
     <g id="text_13">
      <!-- 10000 -->
      <g transform="translate(8.379688 95.13953) scale(0.1 -0.1)">
       <use xlink:href="#DejaVuSans-31"/>
       <use xlink:href="#DejaVuSans-30" x="63.623047"/>
       <use xlink:href="#DejaVuSans-30" x="127.246094"/>
       <use xlink:href="#DejaVuSans-30" x="190.869141"/>
       <use xlink:href="#DejaVuSans-30" x="254.492188"/>
      </g>
     </g>
    </g>
    <g id="ytick_5">
     <g id="line2d_14">
      <g>
       <use xlink:href="#m4611ba3aad" x="47.192188" y="44.277632" style="stroke: #000000; stroke-width: 0.8"/>
      </g>
     </g>
     <g id="text_14">
      <!-- 20000 -->
      <g transform="translate(8.379688 48.076851) scale(0.1 -0.1)">
       <use xlink:href="#DejaVuSans-32"/>
       <use xlink:href="#DejaVuSans-30" x="63.623047"/>
       <use xlink:href="#DejaVuSans-30" x="127.246094"/>
       <use xlink:href="#DejaVuSans-30" x="190.869141"/>
       <use xlink:href="#DejaVuSans-30" x="254.492188"/>
      </g>
     </g>
    </g>
   </g>
   <g id="line2d_15">
    <path d="M 75.092188 138.889556 
L 75.374148 137.937592 
L 75.656109 138.849246 
L 75.938069 137.974109 
L 76.22003 138.816051 
L 76.50199 138.004373 
L 76.783951 138.788386 
L 77.065912 138.029718 
L 77.347872 138.765126 
L 77.629833 138.051095 
L 77.911793 138.745458 
L 78.193754 138.069203 
L 78.475715 138.728784 
L 78.757675 138.084553 
L 79.039636 138.714664 
L 79.321596 138.097524 
L 79.603557 138.702774 
L 79.885517 138.108389 
L 80.167478 138.692886 
L 80.449439 138.117339 
L 80.731399 138.684846 
L 81.01336 138.124489 
L 81.29532 138.678574 
L 81.577281 138.129886 
L 81.859242 138.674058 
L 82.141202 138.133504 
L 82.423163 138.671366 
L 82.705123 138.135229 
L 82.987084 138.670663 
L 83.269044 138.134836 
L 83.551005 138.672246 
L 83.832966 138.131943 
L 84.114926 138.676606 
L 84.396887 138.125917 
L 84.678847 138.684552 
L 84.960808 138.11572 
L 85.242769 138.697435 
L 85.524729 138.099571 
L 85.80669 138.717635 
L 86.08865 138.074231 
L 86.370611 138.749672 
L 86.652572 138.033202 
L 86.934532 138.803214 
L 87.216493 137.96145 
L 87.498453 138.903017 
L 87.780414 137.815021 
L 88.062374 139.135781 
L 88.344335 137.393268 
L 88.626296 140.11783 
L 88.908256 132.656776 
L 89.190217 112.500476 
L 89.472177 121.516327 
L 90.036099 125.467852 
L 90.318059 126.732919 
L 90.60002 130.562114 
L 90.88198 131.924199 
L 91.163941 132.382776 
L 91.445901 133.915906 
L 91.727862 136.99512 
L 93.983547 147.744682 
L 94.829429 146.114425 
L 95.111389 146.209521 
L 95.67531 148.55266 
L 95.957271 148.899811 
L 96.239231 149.454704 
L 96.803153 153.502315 
L 97.085113 154.072603 
L 97.367074 153.811073 
L 97.649034 154.144122 
L 97.930995 155.005214 
L 98.494916 158.528478 
L 98.776877 160.591992 
L 99.622758 163.722652 
L 99.904719 164.84348 
L 100.18668 164.41171 
L 100.46864 161.211544 
L 101.596483 136.867361 
L 102.442364 113.486092 
L 103.006286 105.041835 
L 103.570207 100.603359 
L 103.852167 100.876951 
L 104.134128 103.872538 
L 105.26197 122.251569 
L 105.825891 135.763719 
L 106.107852 138.59866 
L 106.389813 140.158568 
L 106.953734 145.838983 
L 107.235694 146.937452 
L 107.517655 146.301634 
L 107.799615 146.34601 
L 108.363537 148.520761 
L 108.645497 148.149262 
L 109.209418 145.275825 
L 109.491379 143.98915 
L 109.77334 143.709797 
L 110.0553 144.248733 
L 110.337261 143.719346 
L 110.619221 142.391122 
L 110.901182 142.647467 
L 111.465103 147.198132 
L 111.747064 145.848471 
L 112.029024 143.519138 
L 112.310985 143.513771 
L 112.874906 146.146604 
L 113.156867 146.019965 
L 113.438827 146.027011 
L 113.720788 147.15154 
L 114.56667 154.303926 
L 114.84863 156.045252 
L 115.412551 161.434468 
L 115.694512 162.836887 
L 116.258433 164.175988 
L 116.540394 164.157839 
L 116.822354 161.802249 
L 117.104315 156.098471 
L 117.950197 128.878222 
L 118.796078 101.684772 
L 119.078039 97.052541 
L 119.36 94.517056 
L 119.64196 93.188729 
L 119.923921 93.220182 
L 120.205881 95.248719 
L 120.769802 103.209334 
L 121.615684 120.380989 
L 122.461566 137.925499 
L 122.743527 141.76581 
L 123.025487 143.3979 
L 123.589408 143.1552 
L 124.153329 145.004033 
L 124.717251 144.354111 
L 124.999211 145.333468 
L 125.563132 149.095879 
L 125.845093 148.94774 
L 126.409014 145.918267 
L 126.690975 145.813258 
L 127.254896 148.252298 
L 127.536857 148.534243 
L 127.818817 148.432707 
L 128.100778 149.074705 
L 128.382738 150.761182 
L 128.946659 154.865046 
L 129.22862 154.565585 
L 129.510581 153.465492 
L 129.792541 154.182315 
L 130.356462 158.663514 
L 130.920384 160.126811 
L 131.484305 162.613853 
L 132.048226 165.525467 
L 132.330186 165.511969 
L 132.612147 163.117515 
L 133.176068 152.42592 
L 133.739989 134.965271 
L 134.585871 108.522291 
L 135.149792 99.685862 
L 135.431753 97.325946 
L 135.713714 95.917345 
L 135.995674 96.453184 
L 136.277635 99.043985 
L 136.841556 107.420344 
L 138.251359 133.866379 
L 138.81528 140.191688 
L 139.379201 143.517538 
L 139.661162 144.311672 
L 139.943122 143.810581 
L 140.225083 142.981201 
L 140.507043 142.952542 
L 141.070965 143.221729 
L 141.352925 144.149507 
L 141.916846 147.580731 
L 142.198807 147.893392 
L 142.480768 147.958492 
L 142.762728 148.208067 
L 143.044689 148.235256 
L 143.326649 148.719349 
L 143.60861 149.839069 
L 143.890571 150.432372 
L 144.172531 149.954826 
L 144.454492 149.767137 
L 145.300373 151.169507 
L 146.146255 155.953936 
L 146.710176 159.912631 
L 147.556058 162.28661 
L 147.838019 162.64152 
L 148.119979 161.488078 
L 148.40194 159.538617 
L 148.6839 156.214815 
L 149.247822 142.430325 
L 150.657625 102.927503 
L 151.221546 95.886806 
L 151.503506 95.893129 
L 152.067428 101.725086 
L 152.631349 110.710529 
L 153.759191 133.285058 
L 154.323112 140.84951 
L 154.605073 143.97847 
L 154.887033 145.561885 
L 155.168994 144.632145 
L 155.732915 140.022173 
L 156.014876 138.795536 
L 156.296836 138.304539 
L 156.578797 138.173773 
L 156.860757 137.872232 
L 157.424679 136.131806 
L 157.706639 136.361157 
L 158.27056 138.484885 
L 158.552521 140.104258 
L 159.116442 144.218435 
L 159.398403 144.306477 
L 159.680363 144.749226 
L 159.962324 147.761071 
L 160.526245 155.622914 
L 162.218009 168.002024 
L 162.78193 170.089519 
L 163.627812 173.726252 
L 163.909772 171.875784 
L 164.191733 165.349664 
L 165.883496 108.913253 
L 166.729378 90.766398 
L 167.011339 89.075829 
L 167.293299 89.702026 
L 167.57526 90.776497 
L 167.85722 93.699729 
L 170.112905 141.009154 
L 170.394866 142.568101 
L 170.676826 141.574529 
L 170.958787 141.830497 
L 171.522708 145.9502 
L 171.804669 146.710168 
L 172.36859 150.073212 
L 172.65055 148.707746 
L 172.932511 146.266329 
L 173.214471 146.219809 
L 173.496432 147.628173 
L 173.778393 147.858092 
L 174.060353 147.338739 
L 174.342314 147.724739 
L 174.624274 148.896813 
L 174.906235 150.681371 
L 176.316038 164.360213 
L 177.16192 170.575793 
L 177.44388 170.55538 
L 178.289762 166.255883 
L 178.853683 165.939039 
L 179.135644 164.001327 
L 179.417604 159.001989 
L 179.981526 141.332102 
L 181.109368 99.133085 
L 181.673289 87.420701 
L 182.23721 83.325909 
L 182.519171 82.38133 
L 182.801131 83.890478 
L 183.083092 88.055907 
L 183.647013 103.758131 
L 184.210934 120.828176 
L 185.056816 136.315076 
L 185.338777 137.575687 
L 185.620737 138.020728 
L 186.184658 141.778932 
L 186.74858 143.068151 
L 187.03054 143.885663 
L 187.312501 143.205096 
L 187.594461 142.024197 
L 187.876422 142.929984 
L 189.004264 154.131916 
L 189.850146 156.976003 
L 190.132107 157.126942 
L 190.696028 155.769733 
L 190.977988 156.017982 
L 191.54191 157.427225 
L 191.82387 157.676895 
L 192.105831 158.742929 
L 193.233673 168.095357 
L 193.515634 172.430546 
L 193.797594 174.985817 
L 194.079555 174.705952 
L 194.361515 173.916043 
L 194.643476 171.977395 
L 194.925437 165.191548 
L 195.771318 136.589468 
L 197.181121 93.657105 
L 197.463082 88.919356 
L 197.745042 87.303849 
L 198.027003 87.49782 
L 198.308964 88.57949 
L 198.590924 91.496821 
L 199.154845 104.973246 
L 199.718767 119.813446 
L 200.282688 129.683833 
L 200.846609 142.269968 
L 201.12857 145.365003 
L 201.41053 146.731691 
L 201.692491 147.022692 
L 201.974451 145.306427 
L 202.538372 139.972318 
L 202.820333 138.213493 
L 203.666215 131.17284 
L 203.948175 130.839748 
L 204.230136 130.885949 
L 204.512097 130.796179 
L 204.794057 129.760034 
L 205.076018 127.972669 
L 205.357978 127.751356 
L 207.049742 144.139744 
L 207.613663 145.866486 
L 209.305427 160.549971 
L 209.587387 161.656179 
L 209.869348 161.314052 
L 210.151308 158.471833 
L 210.715229 145.461689 
L 211.279151 127.363218 
L 211.843072 105.16536 
L 212.406993 94.011821 
L 212.688954 89.495989 
L 212.970914 87.689288 
L 213.252875 89.125913 
L 213.816796 93.867145 
L 214.098756 99.67298 
L 214.944638 123.3793 
L 215.79052 139.376276 
L 216.072481 140.877749 
L 216.354441 141.019363 
L 216.636402 142.268183 
L 217.200323 148.642067 
L 217.482284 149.242439 
L 218.046205 146.671849 
L 218.328165 146.744977 
L 218.610126 146.168074 
L 219.174047 142.139914 
L 219.456008 142.42345 
L 220.019929 146.423877 
L 220.58385 148.437172 
L 221.993653 156.959625 
L 223.685416 172.215449 
L 224.813259 176.19233 
L 225.095219 175.783202 
L 225.37718 172.524767 
L 225.941101 158.932224 
L 226.505022 139.87458 
L 227.068943 115.900852 
L 227.914825 95.47967 
L 228.196786 90.830602 
L 228.478746 88.498603 
L 228.760707 88.17478 
L 229.042668 90.054496 
L 229.606589 98.879305 
L 231.298352 136.938382 
L 231.580313 137.685893 
L 231.862273 136.105988 
L 232.144234 136.1253 
L 232.426195 136.912284 
L 232.990116 134.684954 
L 233.554037 137.649856 
L 234.117958 138.016878 
L 234.96384 141.980237 
L 235.527761 144.962828 
L 235.809722 145.915432 
L 236.655603 153.274966 
L 236.937564 153.130344 
L 237.219525 155.506764 
L 237.501485 159.724574 
L 237.783446 161.484611 
L 238.065406 160.704917 
L 238.347367 161.396494 
L 238.911288 166.094365 
L 239.193249 166.553428 
L 239.475209 167.677648 
L 240.03913 171.283555 
L 240.321091 171.975293 
L 240.603052 171.963048 
L 240.885012 169.923853 
L 241.166973 165.025813 
L 241.730894 149.420876 
L 243.140697 94.80366 
L 243.422657 86.545001 
L 243.704618 81.785214 
L 243.986579 80.858601 
L 244.268539 80.400526 
L 244.5505 80.240154 
L 244.83246 83.384653 
L 245.960303 110.5821 
L 246.524224 122.557707 
L 247.370106 133.585579 
L 247.934027 137.47711 
L 248.215987 138.002918 
L 248.497948 137.302798 
L 248.779909 137.412688 
L 249.061869 140.282174 
L 249.34383 144.29338 
L 249.62579 146.572517 
L 249.907751 147.048101 
L 250.189712 147.822891 
L 250.753633 150.233428 
L 251.035593 150.811532 
L 251.599514 152.975126 
L 251.881475 153.382765 
L 252.163436 154.155557 
L 253.573239 164.203238 
L 253.855199 164.31354 
L 254.13716 164.650415 
L 254.41912 167.723415 
L 254.983041 175.384124 
L 256.110884 182.29935 
L 256.392844 180.749491 
L 256.674805 174.364007 
L 257.520687 144.311477 
L 258.366569 105.921405 
L 259.21245 82.647403 
L 259.494411 78.757103 
L 259.776371 76.81216 
L 260.058332 76.091031 
L 260.340293 78.886426 
L 260.904214 95.874445 
L 261.750096 123.606036 
L 262.595977 140.308917 
L 262.877938 141.632361 
L 263.441859 137.759999 
L 263.72382 138.814193 
L 264.287741 142.642336 
L 265.697544 150.563401 
L 266.261465 155.584049 
L 266.543425 156.323412 
L 266.825386 156.432023 
L 267.107347 157.749243 
L 267.389307 159.955267 
L 267.671268 161.032849 
L 267.953228 161.09745 
L 268.235189 162.899745 
L 268.79911 169.309746 
L 269.081071 168.94522 
L 269.363031 167.404428 
L 269.644992 167.186292 
L 269.926953 169.371904 
L 270.490874 176.128936 
L 271.054795 178.818354 
L 271.618716 183.118072 
L 271.900677 183.146708 
L 272.182637 180.936775 
L 272.464598 176.364039 
L 272.746558 168.89672 
L 273.31048 143.683566 
L 274.156361 91.200569 
L 274.720282 70.85158 
L 275.002243 64.981419 
L 275.284204 61.469352 
L 275.566164 59.549542 
L 275.848125 59.467254 
L 276.130085 62.722254 
L 276.694007 77.006601 
L 277.821849 106.867674 
L 278.949691 130.958006 
L 279.513612 140.646408 
L 280.077534 144.49483 
L 280.641455 148.104596 
L 281.205376 152.887337 
L 281.487337 153.996899 
L 281.769297 154.187652 
L 282.051258 154.5846 
L 283.461061 160.683198 
L 283.743021 163.444077 
L 284.306942 170.717841 
L 284.588903 172.880227 
L 285.716745 178.380663 
L 286.844588 186.187117 
L 287.126548 186.744213 
L 287.408509 186.387085 
L 287.690469 183.707592 
L 287.97243 176.992225 
L 288.536351 153.297379 
L 289.664194 102.21314 
L 290.228115 82.077684 
L 290.510075 74.940831 
L 290.792036 70.779801 
L 291.073996 68.924126 
L 291.355957 69.094852 
L 291.637918 71.305028 
L 291.919878 76.448769 
L 293.611642 130.477919 
L 294.175563 137.121543 
L 295.585366 154.986375 
L 295.867326 153.689141 
L 296.149287 150.935863 
L 296.431248 151.357599 
L 296.713208 153.937992 
L 296.995169 154.691858 
L 297.277129 153.256469 
L 297.55909 152.537185 
L 297.841051 153.503764 
L 298.123011 154.873162 
L 298.404972 155.189466 
L 298.686932 154.594812 
L 298.968893 154.533763 
L 299.250853 156.507184 
L 299.814775 162.453062 
L 300.096735 163.533776 
L 300.378696 163.920817 
L 300.660656 164.702758 
L 301.224578 168.803474 
L 301.788499 174.633162 
L 302.35242 181.163042 
L 302.634381 181.165228 
L 302.916341 178.449844 
L 303.198302 174.055525 
L 303.480262 167.17616 
L 304.044183 142.567923 
L 304.890065 104.577886 
L 306.299868 58.447452 
L 306.581829 56.216266 
L 306.863789 55.335632 
L 307.14575 55.642396 
L 307.42771 59.429758 
L 307.991632 77.818744 
L 308.555553 97.592287 
L 308.837513 104.182764 
L 309.683395 116.808225 
L 309.965356 121.72575 
L 310.247316 123.238123 
L 310.811238 118.366037 
L 311.093198 117.936947 
L 311.657119 122.056406 
L 311.93908 122.393337 
L 312.22104 123.093371 
L 312.503001 126.433864 
L 313.066922 134.407175 
L 313.630843 137.655144 
L 314.194765 146.652215 
L 315.040646 163.355191 
L 315.604567 179.742481 
L 316.168489 199.299751 
L 317.296331 219.909548 
L 317.578292 220.943582 
L 317.860252 221.032774 
L 318.142213 222.528421 
L 318.424173 223.225692 
L 318.706134 220.73181 
L 318.988095 216.231716 
L 319.270055 209.55985 
L 319.552016 198.008097 
L 320.961819 123.804463 
L 321.52574 97.873441 
L 322.089661 81.710796 
L 322.371622 77.230698 
L 322.653582 74.654198 
L 322.935543 73.609909 
L 323.217503 75.142989 
L 323.499464 80.983635 
L 324.627306 118.392144 
L 325.191227 129.833377 
L 325.755149 136.215782 
L 326.31907 144.447341 
L 326.60103 145.742476 
L 326.882991 145.782194 
L 327.164952 147.627964 
L 327.728873 155.667926 
L 328.010833 155.875402 
L 328.292794 154.234688 
L 328.574754 154.584996 
L 329.138676 159.979301 
L 329.702597 162.623675 
L 330.266518 166.447561 
L 330.548479 167.19623 
L 330.830439 168.397698 
L 331.676321 175.251949 
L 332.522203 178.711311 
L 333.086124 183.045047 
L 333.932006 186.484362 
L 334.495927 190.127507 
L 334.777887 188.531093 
L 335.059848 180.439128 
L 336.18769 124.957136 
L 337.033572 78.224952 
L 337.597493 58.28858 
L 337.879454 52.906192 
L 338.161414 51.144883 
L 338.443375 53.429512 
L 338.725336 60.035158 
L 339.289257 81.023662 
L 340.135138 117.42596 
L 340.417099 124.747214 
L 341.262981 136.605499 
L 342.108863 145.735131 
L 342.672784 149.060359 
L 342.954744 150.836907 
L 343.800626 157.732686 
L 344.928468 165.569533 
L 345.210429 166.827541 
L 345.49239 166.79496 
L 345.77435 167.250631 
L 346.338271 173.198284 
L 346.620232 173.395028 
L 347.184153 167.502897 
L 347.466114 166.385357 
L 347.748074 167.77899 
L 348.875917 179.381775 
L 349.721798 191.434429 
L 350.003759 192.328063 
L 350.28572 191.450673 
L 350.56768 186.685316 
L 350.849641 173.929962 
L 351.977483 98.801086 
L 352.823365 57.315574 
L 353.387286 38.585101 
L 353.669247 33.306549 
L 353.951207 33.249735 
L 354.233168 36.299158 
L 354.515128 41.044075 
L 354.797089 49.347019 
L 355.36101 81.433821 
L 355.924931 112.402931 
L 357.052774 142.369737 
L 357.334734 145.212812 
L 357.616695 144.725942 
L 357.898655 144.640124 
L 358.180616 145.803914 
L 358.744537 150.140908 
L 359.026498 152.871416 
L 359.308458 154.402835 
L 359.590419 155.212247 
L 360.718261 160.458634 
L 361.282182 163.414801 
L 361.846104 166.52992 
L 363.255907 171.80953 
L 363.537867 175.683497 
L 364.101788 188.680796 
L 365.229631 200.194131 
L 365.511591 200.536118 
L 365.793552 198.993262 
L 366.075512 193.985016 
L 366.639434 169.099069 
L 367.767276 108.827619 
L 368.613158 63.207233 
L 369.177079 45.756061 
L 369.459039 42.326794 
L 369.741 41.677747 
L 370.022961 44.601683 
L 370.304921 51.946896 
L 370.868842 74.944935 
L 371.714724 111.018261 
L 372.560606 131.818365 
L 373.124527 140.060177 
L 373.688448 145.677953 
L 374.53433 149.289743 
L 374.816291 151.203027 
L 375.098251 150.784395 
L 375.662172 146.918908 
L 375.944133 148.913136 
L 376.508054 159.458702 
L 376.790015 161.165701 
L 377.071975 160.898948 
L 377.353936 163.40563 
L 377.917857 174.388263 
L 378.199818 175.318672 
L 378.481778 174.536914 
L 378.763739 174.873144 
L 379.045699 176.221511 
L 379.32766 178.334569 
L 379.891581 186.087117 
L 380.737463 199.293568 
L 381.019423 200.958991 
L 381.301384 200.966257 
L 381.583345 198.877242 
L 381.865305 192.20925 
L 382.993148 142.233059 
L 384.402951 68.064032 
L 384.966872 51.693405 
L 385.248832 46.947131 
L 385.530793 47.406869 
L 385.812753 53.92267 
L 386.658635 82.405803 
L 387.786478 111.762842 
L 388.350399 117.989907 
L 388.91432 124.737572 
L 389.760202 127.463557 
L 390.042162 126.715114 
L 390.324123 126.392962 
L 390.606083 129.520972 
L 391.170005 139.411719 
L 391.733926 146.34312 
L 392.579808 162.366685 
L 393.143729 168.418854 
L 393.98961 185.997567 
L 394.835492 192.543906 
L 395.117453 192.555011 
L 395.399413 191.307279 
L 395.681374 191.437998 
L 396.245295 195.453731 
L 396.809216 199.149815 
L 397.091177 199.238734 
L 397.373137 196.038692 
L 397.655098 188.040781 
L 398.50098 147.900969 
L 399.910783 72.448438 
L 400.474704 57.228514 
L 400.756665 52.585667 
L 401.038625 50.002405 
L 401.320586 50.177205 
L 401.602546 53.357893 
L 401.884507 59.236225 
L 402.448428 79.07585 
L 403.012349 99.474321 
L 404.140192 123.672462 
L 404.422152 125.897229 
L 404.986073 124.648905 
L 405.831955 129.386707 
L 406.113916 130.042195 
L 406.395876 132.610184 
L 406.959797 142.562668 
L 407.523719 155.308118 
L 408.3696 166.383127 
L 408.933522 176.588809 
L 410.907246 193.980342 
L 411.471167 195.710879 
L 411.753127 199.450629 
L 412.317049 210.86974 
L 412.599009 213.647342 
L 412.88097 213.491119 
L 413.16293 209.693809 
L 413.444891 201.681765 
L 414.008812 175.451548 
L 415.700576 75.467317 
L 416.264497 53.806871 
L 417.110379 36.293764 
L 417.392339 35.536064 
L 417.6743 40.966982 
L 419.366063 96.078267 
L 420.775866 143.756512 
L 421.339787 152.269101 
L 422.185669 163.77508 
L 422.46763 163.732112 
L 422.74959 162.827547 
L 423.031551 162.592228 
L 423.595472 164.828556 
L 423.877433 164.648104 
L 424.159393 163.04511 
L 424.441354 163.58747 
L 425.287236 177.440083 
L 425.851157 180.830341 
L 426.415078 185.59134 
L 426.697038 186.320573 
L 426.978999 186.252955 
L 427.26096 187.780243 
L 427.54292 192.55896 
L 428.106841 203.845755 
L 428.388802 204.119261 
L 428.670763 201.300592 
L 428.952723 196.417022 
L 429.234684 186.786746 
L 430.080565 133.841768 
L 431.208408 62.582261 
L 431.772329 45.172243 
L 432.05429 39.911574 
L 432.33625 38.798193 
L 432.618211 40.323352 
L 432.900171 45.413209 
L 433.464093 68.892336 
L 434.591935 115.656407 
L 435.437817 135.202968 
L 436.001738 142.297627 
L 436.84762 151.371402 
L 437.12958 152.565581 
L 437.411541 152.880013 
L 437.693501 153.42633 
L 438.539383 157.452523 
L 438.821344 157.754578 
L 439.103304 158.238307 
L 439.385265 159.580678 
L 439.949186 164.66591 
L 440.231147 166.090854 
L 440.513107 166.935641 
L 441.077028 170.959544 
L 442.486831 185.227877 
L 443.332713 201.66313 
L 444.178595 212.378049 
L 444.460555 211.364633 
L 444.742516 206.504492 
L 445.024477 197.182848 
L 445.588398 166.634301 
L 446.998201 78.479245 
L 447.562122 54.0101 
L 448.126043 39.634088 
L 448.408004 35.523563 
L 448.689964 34.976505 
L 448.971925 38.924789 
L 449.535846 56.098967 
L 451.227609 118.618492 
L 451.791531 129.377302 
L 452.355452 136.753778 
L 452.919373 142.646711 
L 453.765255 149.328366 
L 454.329176 154.987718 
L 454.611136 156.693774 
L 455.457018 167.807535 
L 455.738979 169.178287 
L 456.020939 171.909267 
L 456.584861 181.375821 
L 456.866821 183.444048 
L 457.148782 184.644309 
L 457.430742 187.346657 
L 457.994663 194.647067 
L 458.558585 196.558558 
L 459.404466 202.874232 
L 459.686427 203.512809 
L 459.968388 203.77754 
L 460.250348 202.937181 
L 460.532309 199.80126 
L 460.814269 192.306312 
L 461.378191 163.773993 
L 462.224072 111.63961 
L 462.787993 75.109324 
L 463.633875 44.092899 
L 463.915836 38.437948 
L 464.197796 38.343768 
L 464.761718 46.970329 
L 465.043678 54.250935 
L 467.017402 128.351442 
L 467.581323 138.972568 
L 468.145245 146.151417 
L 468.709166 154.922131 
L 469.273087 154.565838 
L 470.68289 165.082072 
L 470.96485 165.564694 
L 471.246811 165.52827 
L 471.528772 167.350064 
L 471.810732 170.200819 
L 472.374653 172.846604 
L 473.502496 186.133372 
L 474.066417 194.394525 
L 474.348377 196.57391 
L 474.630338 200.595005 
L 475.194259 215.4246 
L 475.47622 219.000585 
L 475.75818 218.437519 
L 476.040141 213.221625 
L 476.604062 189.593868 
L 477.167983 153.59802 
L 478.013865 95.608921 
L 478.859747 53.602935 
L 479.141707 44.465169 
L 479.423668 39.053647 
L 480.26955 30.548617 
L 480.55151 31.877423 
L 480.833471 39.274241 
L 482.807195 109.880897 
L 483.653077 133.594862 
L 484.498959 151.878946 
L 485.06288 156.169459 
L 485.626801 164.080409 
L 485.908762 164.964828 
L 486.190722 165.106884 
L 486.754643 168.929944 
L 487.318564 170.51456 
L 487.882486 175.577931 
L 489.292289 192.373439 
L 489.85621 200.872915 
L 490.13817 204.636734 
L 490.984052 222.858726 
L 491.266013 226.74932 
L 491.547973 227.394677 
L 491.829934 220.416616 
L 492.675816 178.596327 
L 494.367579 62.726438 
L 494.9315 39.676159 
L 495.495421 25.27996 
L 495.777382 20.772858 
L 496.059343 21.06956 
L 496.341303 26.791141 
L 497.187185 57.630913 
L 498.315027 104.265965 
L 499.160909 125.670682 
L 499.72483 134.75565 
L 500.006791 139.05829 
L 500.570712 152.899853 
L 500.852673 156.242118 
L 501.134633 158.153813 
L 501.416594 162.717055 
L 501.698554 169.136054 
L 501.980515 172.305161 
L 502.544436 171.067195 
L 502.826397 173.577492 
L 504.51816 195.338826 
L 505.646003 207.495903 
L 506.773845 224.912431 
L 507.055805 226.847256 
L 507.337766 225.554671 
L 507.619727 218.46058 
L 508.183648 187.994917 
L 510.439333 50.493099 
L 511.003254 22.574737 
L 511.285214 15.634629 
L 511.567175 14.118403 
L 511.849135 17.174814 
L 512.131096 24.524989 
L 512.695017 49.560328 
L 513.540899 90.158722 
L 514.386781 115.033557 
L 514.950702 123.414225 
L 515.514623 131.48871 
L 516.078544 142.508397 
L 516.360505 145.48927 
L 516.642465 147.048975 
L 516.924426 151.100804 
L 517.488347 163.003647 
L 517.770308 167.339579 
L 518.61619 184.384622 
L 519.180111 182.25043 
L 519.462071 183.020031 
L 519.744032 185.815487 
L 520.307953 195.788866 
L 520.871874 207.412038 
L 522.281677 225.686989 
L 522.563638 227.136805 
L 522.845598 227.653953 
L 523.127559 225.194849 
L 523.409519 217.94421 
L 523.69148 205.917004 
L 524.255401 166.307901 
L 525.101283 103.888785 
L 525.947165 55.234367 
L 526.511086 30.598857 
L 526.793047 23.590958 
L 527.075007 19.702671 
L 527.356968 20.105496 
L 527.920889 33.398039 
L 528.202849 42.907653 
L 529.048731 79.550554 
L 529.330692 85.78772 
L 530.176574 117.314242 
L 530.740495 127.37997 
L 531.022455 134.515968 
L 531.304416 138.46439 
L 531.586376 139.508412 
L 531.868337 141.239146 
L 533.27814 164.047044 
L 533.842061 173.715168 
L 534.405982 180.3532 
L 535.251864 195.89392 
L 535.533825 199.06931 
L 535.815785 204.34646 
L 536.379706 219.515071 
L 536.943628 227.187273 
L 537.507549 234.097408 
L 537.789509 235.257018 
L 538.07147 233.090406 
L 538.353431 227.833598 
L 538.635391 218.574905 
L 539.199312 185.170425 
L 541.173036 44.537575 
L 541.736958 21.051647 
L 542.018918 14.597048 
L 542.300879 12.700164 
L 542.582839 15.785342 
L 543.146761 34.049841 
L 543.992642 71.008099 
L 544.556563 95.395193 
L 545.120485 111.724379 
L 545.684406 123.829311 
L 546.248327 130.529759 
L 546.530288 134.158954 
L 547.094209 145.193001 
L 547.65813 152.342899 
L 548.222051 164.705975 
L 548.504012 167.438623 
L 548.785972 169.074435 
L 549.631854 177.295515 
L 550.477736 181.905208 
L 550.759696 181.702609 
L 551.041657 182.232152 
L 551.887539 190.604918 
L 552.169499 191.910851 
L 552.45146 194.938962 
L 554.425184 228.14811 
L 554.707145 230.432494 
L 554.989105 229.031553 
L 555.271066 221.877447 
L 555.834987 187.775611 
L 557.52675 62.088064 
L 558.090672 26.806011 
L 558.372632 16.622418 
L 558.654593 13.488854 
L 558.936553 13.363547 
L 559.218514 14.825637 
L 559.500475 20.152474 
L 560.346356 57.168934 
L 561.756159 112.620931 
L 562.03812 118.584 
L 562.602041 125.516032 
L 563.165962 133.550759 
L 563.447923 135.096633 
L 563.729883 137.915119 
L 564.575765 155.269999 
L 565.139686 161.323126 
L 565.703607 170.609303 
L 565.985568 173.66632 
L 566.267529 175.030912 
L 566.549489 175.631411 
L 566.83145 175.570162 
L 567.11341 176.376159 
L 567.959292 183.165614 
L 568.241253 183.953208 
L 568.523213 186.260269 
L 569.651056 205.056898 
L 570.214977 217.972541 
L 570.496937 221.186799 
L 570.778898 221.438478 
L 571.060859 217.462395 
L 571.342819 205.664942 
L 573.598504 57.049833 
L 574.162425 35.361738 
L 574.444386 31.229709 
L 574.726346 29.62554 
L 575.008307 31.233766 
L 575.290267 37.382784 
L 575.854189 61.801742 
L 576.41811 88.348514 
L 577.263991 112.191435 
L 577.545952 120.143998 
L 577.827913 124.122615 
L 578.109873 123.856126 
L 578.391834 124.982933 
L 578.955755 133.256601 
L 579.519676 136.939845 
L 580.365558 145.473293 
L 582.339282 172.928802 
L 583.185164 186.368279 
L 583.749085 191.811079 
L 584.031046 197.50595 
L 584.876927 220.195146 
L 585.440848 228.197383 
L 585.722809 234.235647 
L 586.00477 236.428178 
L 586.28673 232.811096 
L 586.850651 217.510116 
L 587.414573 186.237036 
L 589.388297 43.966553 
L 589.670257 34.0097 
L 589.952218 28.360645 
L 590.234178 26.625258 
L 590.516139 27.560421 
L 591.08006 35.672551 
L 591.643981 51.155304 
L 592.489863 82.886694 
L 593.053784 104.198248 
L 593.899666 120.334803 
L 596.437311 154.067372 
L 597.001232 164.506653 
L 599.256917 193.433461 
L 599.820838 202.769241 
L 600.102799 205.631473 
L 600.66672 215.11913 
L 601.230641 224.270808 
L 601.794562 232.700728 
L 602.076523 234.149859 
L 602.358484 229.856933 
L 602.640444 219.669672 
L 603.204365 181.298306 
L 604.614168 72.757571 
L 605.178089 45.806729 
L 605.46005 41.908064 
L 605.742011 41.137673 
L 606.023971 39.636529 
L 606.305932 37.481881 
L 606.587892 39.995075 
L 607.715735 67.7134 
L 608.279656 84.319249 
L 609.971419 116.106206 
L 611.099262 137.676995 
L 611.663183 150.646793 
L 614.200828 185.412477 
L 614.764749 194.541268 
L 615.328671 200.966095 
L 615.610631 206.518769 
L 616.738474 238.800244 
L 617.584355 254.016 
L 617.866316 250.450498 
L 618.148276 239.670147 
L 618.712198 204.219483 
L 619.558079 128.517751 
L 620.403961 58.92581 
L 620.967882 29.702062 
L 622.095725 12.096 
L 622.377685 12.633708 
L 622.659646 15.447005 
L 623.223567 33.909044 
L 624.915331 96.061386 
L 625.761212 118.546889 
L 626.043173 121.6103 
L 627.452976 147.385699 
L 627.734936 149.957394 
L 628.016897 153.594565 
L 628.298858 155.703786 
L 628.580818 160.350577 
L 628.862779 162.41188 
L 629.144739 166.296777 
L 629.4267 168.248314 
L 630.554542 190.021334 
L 630.836503 198.856721 
L 631.118463 201.955035 
L 631.400424 207.675437 
L 631.682385 208.703951 
L 631.964345 218.332051 
L 632.246306 220.284399 
L 632.528266 228.605245 
L 632.810227 223.840822 
L 633.092188 241.720336 
L 633.092188 241.720336 
" clip-path="url(#pfef3cd64b3)" style="fill: none; stroke: #1f77b4; stroke-width: 1.5; stroke-linecap: square"/>
   </g>
   <g id="patch_3">
    <path d="M 47.192188 266.112 
L 47.192188 0 
" style="fill: none; stroke: #000000; stroke-width: 0.8; stroke-linejoin: miter; stroke-linecap: square"/>
   </g>
   <g id="patch_4">
    <path d="M 660.992188 266.112 
L 660.992188 0 
" style="fill: none; stroke: #000000; stroke-width: 0.8; stroke-linejoin: miter; stroke-linecap: square"/>
   </g>
   <g id="patch_5">
    <path d="M 47.192188 266.112 
L 660.992188 266.112 
" style="fill: none; stroke: #000000; stroke-width: 0.8; stroke-linejoin: miter; stroke-linecap: square"/>
   </g>
   <g id="patch_6">
    <path d="M 47.192188 0 
L 660.992188 0 
" style="fill: none; stroke: #000000; stroke-width: 0.8; stroke-linejoin: miter; stroke-linecap: square"/>
   </g>
  </g>
 </g>
 <defs>
  <clipPath id="pfef3cd64b3">
   <rect x="47.192188" y="0" width="613.8" height="266.112"/>
  </clipPath>
 </defs>
</svg>
