<svg xmlns="http://www.w3.org/2000/svg" xmlns:xlink="http://www.w3.org/1999/xlink" width="913.477" height="377.053" viewBox="0 0 685.107 282.79"><defs><style>*{stroke-linejoin:round;stroke-linecap:butt}</style></defs><g id="figure_1"><path id="patch_1" d="M0 282.79h685.107V0H0v282.79z" style="fill:none"/><g id="axes_1"><path id="patch_2" d="M71.308 266.112h613.8V0h-613.8v266.112z" style="fill:none"/><g id="matplotlib.axis_1"><g id="xtick_1"><g id="line2d_1"><defs><path id="m2c40709e67" d="M0 0v3.5" style="stroke:gray;stroke-width:.8"/></defs><use xlink:href="#m2c40709e67" x="99.207" y="266.112" style="fill:gray;stroke:gray;stroke-width:.8"/></g><g id="text_1" style="fill:gray" transform="matrix(.1 0 0 -.1 96.026 280.71)"><defs><path id="DejaVuSans-30" d="M2034 4250q-487 0-733-480-245-479-245-1442 0-959 245-1439 246-480 733-480 491 0 736 480 246 480 246 1439 0 963-246 1442-245 480-736 480zm0 500q785 0 1199-621 414-620 414-1801 0-1178-414-1799Q2819-91 2034-91q-784 0-1198 620-414 621-414 1799 0 1181 414 1801 414 621 1198 621z" transform="scale(.01563)"/></defs><use xlink:href="#DejaVuSans-30"/></g></g><g id="xtick_2"><use xlink:href="#m2c40709e67" id="line2d_2" x="168.958" y="266.112" style="fill:gray;stroke:gray;stroke-width:.8"/><g id="text_2" style="fill:gray" transform="matrix(.1 0 0 -.1 159.414 280.71)"><defs><path id="DejaVuSans-35" d="M691 4666h2478v-532H1269V2991q137 47 274 70 138 23 276 23 781 0 1237-428 457-428 457-1159 0-753-469-1171Q2575-91 1722-91q-294 0-599 50Q819 9 494 109v635q281-153 581-228t634-75q541 0 856 284 316 284 316 772 0 487-316 771-315 285-856 285-253 0-505-56-251-56-513-175v2344z" transform="scale(.01563)"/></defs><use xlink:href="#DejaVuSans-35"/><use xlink:href="#DejaVuSans-30" x="63.623"/><use xlink:href="#DejaVuSans-30" x="127.246"/></g></g><g id="xtick_3"><use xlink:href="#m2c40709e67" id="line2d_3" x="238.708" y="266.112" style="fill:gray;stroke:gray;stroke-width:.8"/><g id="text_3" style="fill:gray" transform="matrix(.1 0 0 -.1 225.982 280.71)"><defs><path id="DejaVuSans-31" d="M794 531h1031v3560L703 3866v575l1116 225h631V531h1031V0H794v531z" transform="scale(.01563)"/></defs><use xlink:href="#DejaVuSans-31"/><use xlink:href="#DejaVuSans-30" x="63.623"/><use xlink:href="#DejaVuSans-30" x="127.246"/><use xlink:href="#DejaVuSans-30" x="190.869"/></g></g><g id="xtick_4"><use xlink:href="#m2c40709e67" id="line2d_4" x="308.457" y="266.112" style="fill:gray;stroke:gray;stroke-width:.8"/><g id="text_4" style="fill:gray" transform="matrix(.1 0 0 -.1 295.733 280.71)"><use xlink:href="#DejaVuSans-31"/><use xlink:href="#DejaVuSans-35" x="63.623"/><use xlink:href="#DejaVuSans-30" x="127.246"/><use xlink:href="#DejaVuSans-30" x="190.869"/></g></g><g id="xtick_5"><use xlink:href="#m2c40709e67" id="line2d_5" x="378.207" y="266.112" style="fill:gray;stroke:gray;stroke-width:.8"/><g id="text_5" style="fill:gray" transform="matrix(.1 0 0 -.1 365.483 280.71)"><defs><path id="DejaVuSans-32" d="M1228 531h2203V0H469v531q359 372 979 998 621 627 780 809 303 340 423 576 121 236 121 464 0 372-261 606-261 235-680 235-297 0-627-103-329-103-704-313v638q381 153 712 231 332 78 607 78 725 0 1156-363 431-362 431-968 0-288-108-546-107-257-392-607-78-91-497-524-418-433-1181-1211z" transform="scale(.01563)"/></defs><use xlink:href="#DejaVuSans-32"/><use xlink:href="#DejaVuSans-30" x="63.623"/><use xlink:href="#DejaVuSans-30" x="127.246"/><use xlink:href="#DejaVuSans-30" x="190.869"/></g></g><g id="xtick_6"><use xlink:href="#m2c40709e67" id="line2d_6" x="447.957" y="266.112" style="fill:gray;stroke:gray;stroke-width:.8"/><g id="text_6" style="fill:gray" transform="matrix(.1 0 0 -.1 435.233 280.71)"><use xlink:href="#DejaVuSans-32"/><use xlink:href="#DejaVuSans-35" x="63.623"/><use xlink:href="#DejaVuSans-30" x="127.246"/><use xlink:href="#DejaVuSans-30" x="190.869"/></g></g><g id="xtick_7"><use xlink:href="#m2c40709e67" id="line2d_7" x="517.707" y="266.112" style="fill:gray;stroke:gray;stroke-width:.8"/><g id="text_7" style="fill:gray" transform="matrix(.1 0 0 -.1 504.983 280.71)"><defs><path id="DejaVuSans-33" d="M2597 2516q453-97 707-404 255-306 255-756 0-690-475-1069Q2609-91 1734-91q-293 0-604 58T488 141v609q262-153 574-231 313-78 654-78 593 0 904 234t311 681q0 413-289 645-289 233-804 233h-544v519h569q465 0 712 186t247 536q0 359-255 551-254 193-729 193-260 0-557-57-297-56-653-174v562q360 100 674 150t592 50q719 0 1137-327 419-326 419-882 0-388-222-655t-631-370z" transform="scale(.01563)"/></defs><use xlink:href="#DejaVuSans-33"/><use xlink:href="#DejaVuSans-30" x="63.623"/><use xlink:href="#DejaVuSans-30" x="127.246"/><use xlink:href="#DejaVuSans-30" x="190.869"/></g></g><g id="xtick_8"><use xlink:href="#m2c40709e67" id="line2d_8" x="587.457" y="266.112" style="fill:gray;stroke:gray;stroke-width:.8"/><g id="text_8" style="fill:gray" transform="matrix(.1 0 0 -.1 574.732 280.71)"><use xlink:href="#DejaVuSans-33"/><use xlink:href="#DejaVuSans-35" x="63.623"/><use xlink:href="#DejaVuSans-30" x="127.246"/><use xlink:href="#DejaVuSans-30" x="190.869"/></g></g><g id="xtick_9"><use xlink:href="#m2c40709e67" id="line2d_9" x="657.207" y="266.112" style="fill:gray;stroke:gray;stroke-width:.8"/><g id="text_9" style="fill:gray" transform="matrix(.1 0 0 -.1 644.482 280.71)"><defs><path id="DejaVuSans-34" d="M2419 4116 825 1625h1594v2491zm-166 550h794V1625h666v-525h-666V0h-628v1100H313v609l1940 2957z" transform="scale(.01563)"/></defs><use xlink:href="#DejaVuSans-34"/><use xlink:href="#DejaVuSans-30" x="63.623"/><use xlink:href="#DejaVuSans-30" x="127.246"/><use xlink:href="#DejaVuSans-30" x="190.869"/></g></g></g><g id="matplotlib.axis_2"><g id="ytick_1"><g id="line2d_10"><defs><path id="m163a2694ea" d="M0 0h-3.5" style="stroke:gray;stroke-width:.8"/></defs><use xlink:href="#m163a2694ea" x="71.308" y="264.307" style="fill:gray;stroke:gray;stroke-width:.8"/></g><g id="text_10" style="fill:gray" transform="matrix(.16 0 0 -.16 0 270.386)"><defs><path id="DejaVuSans-2212" d="M678 2272h4006v-531H678v531z" transform="scale(.01563)"/></defs><use xlink:href="#DejaVuSans-2212"/><use xlink:href="#DejaVuSans-31" x="83.789"/><use xlink:href="#DejaVuSans-35" x="147.412"/><use xlink:href="#DejaVuSans-30" x="211.035"/><use xlink:href="#DejaVuSans-30" x="274.658"/><use xlink:href="#DejaVuSans-30" x="338.281"/></g></g><g id="ytick_2"><use xlink:href="#m163a2694ea" id="line2d_11" x="71.308" y="225.718" style="fill:gray;stroke:gray;stroke-width:.8"/><g id="text_11" style="fill:gray" transform="matrix(.16 0 0 -.16 0 231.797)"><use xlink:href="#DejaVuSans-2212"/><use xlink:href="#DejaVuSans-31" x="83.789"/><use xlink:href="#DejaVuSans-30" x="147.412"/><use xlink:href="#DejaVuSans-30" x="211.035"/><use xlink:href="#DejaVuSans-30" x="274.658"/><use xlink:href="#DejaVuSans-30" x="338.281"/></g></g><g id="ytick_3"><use xlink:href="#m163a2694ea" id="line2d_12" x="71.308" y="187.129" style="fill:gray;stroke:gray;stroke-width:.8"/><g id="text_12" style="fill:gray" transform="matrix(.16 0 0 -.16 10.18 193.208)"><use xlink:href="#DejaVuSans-2212"/><use xlink:href="#DejaVuSans-35" x="83.789"/><use xlink:href="#DejaVuSans-30" x="147.412"/><use xlink:href="#DejaVuSans-30" x="211.035"/><use xlink:href="#DejaVuSans-30" x="274.658"/></g></g><g id="ytick_4"><use xlink:href="#m163a2694ea" id="line2d_13" x="71.308" y="148.54" style="fill:gray;stroke:gray;stroke-width:.8"/><use xlink:href="#DejaVuSans-30" id="text_13" style="fill:gray" transform="matrix(.16 0 0 -.16 54.127 154.619)"/></g><g id="ytick_5"><use xlink:href="#m163a2694ea" id="line2d_14" x="71.308" y="109.951" style="fill:gray;stroke:gray;stroke-width:.8"/><g id="text_14" style="fill:gray" transform="matrix(.16 0 0 -.16 23.587 116.03)"><use xlink:href="#DejaVuSans-35"/><use xlink:href="#DejaVuSans-30" x="63.623"/><use xlink:href="#DejaVuSans-30" x="127.246"/><use xlink:href="#DejaVuSans-30" x="190.869"/></g></g><g id="ytick_6"><use xlink:href="#m163a2694ea" id="line2d_15" x="71.308" y="71.362" style="fill:gray;stroke:gray;stroke-width:.8"/><g id="text_15" style="fill:gray" transform="matrix(.16 0 0 -.16 13.408 77.44)"><use xlink:href="#DejaVuSans-31"/><use xlink:href="#DejaVuSans-30" x="63.623"/><use xlink:href="#DejaVuSans-30" x="127.246"/><use xlink:href="#DejaVuSans-30" x="190.869"/><use xlink:href="#DejaVuSans-30" x="254.492"/></g></g><g id="ytick_7"><use xlink:href="#m163a2694ea" id="line2d_16" x="71.308" y="32.772" style="fill:gray;stroke:gray;stroke-width:.8"/><g id="text_16" style="fill:gray" transform="matrix(.16 0 0 -.16 13.408 38.851)"><use xlink:href="#DejaVuSans-31"/><use xlink:href="#DejaVuSans-35" x="63.623"/><use xlink:href="#DejaVuSans-30" x="127.246"/><use xlink:href="#DejaVuSans-30" x="190.869"/><use xlink:href="#DejaVuSans-30" x="254.492"/></g></g></g><path id="line2d_17" d="m99.207 148.69.282-.287.282.261.282-.237.282.215.282-.194.282.174.282-.155.282.137.282-.12.282.103.282-.086.282.07.564-.015 1.128-.031.846.054.282-.087.282.104.282-.122.282.141.281-.161.282.182.282-.204.282.228.282-.254.282.282.282-.313.282.347.282-.384.282.426.282-.474.282.528.282-.59.282.665.282-.755.282.865.282-1.003.282 1.182.282-1.425.282 1.774.282-2.318.282 3.287.282-5.518.564 38.495.563-53.894.564-35.248.282-14.891.282-3.293.282-1.51.282 3.793.282 12.382.282 24.277.282 14.531.282-3.688 1.41-83.985.282-.06.282 2.72.564 7.363.282 2.418.282-1.354.564-7.822.282 1.15.281 8.735 1.128 56.874.564 24.378.282 4.434.282-7.245.564-21.437.564-8.838.564-11.175.282-.042.282.7.282 2.396.282 5.766.564 26.714.564 30.455.564 21.243.563 27.777.282 7.107.564 5.158.282-.723.282-4.183.564-14.14.564-16.045.282-3.546.282-1.21.282.203.564 9.177.282-2.055.564-14.733.846-12.255.282.226.282 3.2.845 16.236.282-3.945.282-7.616.282-2.76.282 2.865.282 1.106.282.497.282 5.463.564 19.717.282 6.023.282 3.47.282-1.436.282-11.766.564-47.163.564-46.846.282-13.492.282-7.404.282-3.717.282.32.282 8.597.845 40.65.846 13.559.564 15.674.846 26.152.282-.28.846-10.42.564-15.227.564-6.464.282-1.761.282.896.564 7.744.282 2.818.282 4.863.282 7.121.282 4.237.563 1.842.282 1.862.282-1.287.282-3.36.282-1.112.564 4.213.282 1.254.282 2.43.564 7.633.282 1.534.282-.993.282-1.56.282.745 1.128 19.94.282.964.282-2.917.282-11.053.564-48.418.563-46.715.564-29.665.282-7.633.282-1.936.282.083.282.867.282 4.385 1.41 49.672.846 44.963.564 16.418.564 8.568.564 1.52.282 2.68.282 1.316.282-2.394.563-6.48.282-2.056.282.254.282 3.466.282 1.426.282-7.392.564-21.887.564-8.928 1.128-12.228.282 3.58.564 11.725.282 3.24.282 9.102.564 22.185.282.783.282-2.42.282-1.243.281 2.129.282 3.996.282 1.04.564-11.722.282-8.825.282-18.896.564-54.798.846-36.555.282-10.635.282-2.238.282 3.544.282 6.926 1.974 80.957.564 11.248 1.41 10.35 1.127 12.97.282-1.413.564-7.961.282.127 1.128 11.878.564 9.604.282.302.282-1.003.282 1.128.282.532.564-6.95.282-.713.281.271.282.823.282 5.449.282 9.342.282 5.559.282 2.616.282 7.84.282 11.413.282 2.942.846-21.35.282-12.975 1.128-93.92 1.41-47.454.282-2.401.282.482.282 3.253.563 17.532.564 23.808.846 50.766 1.128 41.8.282-.759.282 1.495.282 4.342.282 1.402.282-.83.282 3.066.564 8.557.282 4.028.282 7.251.282 3.015 1.128-21.59.281-3.924.282-1.123.282 1.922.564 1.32.564 6.541.282-1.88.564-10.893.282-2.886.282-.23.282 3.204 1.128 21.673.564 15.062.282-2.149.282-15.528 1.691-155.174.282-10.143.282-1.653.282 1.9.282 4.978.564 18.287.282 2.784.282-.73.282 2.77.564 16.752.282 14.952.846 61.767.564 21.284.282 1.154.564-14.653.846-7.517.281-.101.282 4.246.846 18.26.282 1.673.282-1.814.282.145.846 11.378.564 13.109.282-1.314.282-4.702.282-2.042.282 1.275.282 2.848.564 8.495.564 6.305.282 4.006.282-.816.845-22.738.282-9.686.282-15.3.564-48.48.564-48.177.564-22.957.564-17.96.846-19.815.282 1.651.282 9.408.564 30.74.564 43.063.564 47.092.282 12.26.282 4.292.563 3.5.282 2.068.282.272.282-.661.282.864.564 4.189.282 1.068.282 4.43.564 13.903.282-1.811.564-13.785.282-3.738.282-.314.282 2.806 1.128 19.61.282 7.593.282 4.441.282-1.168.845-12.644.282-2.863.282-1.07.282 2.252.564 7.77.282 5.626.564 15.497.282-8.061 1.974-153.012.282-9.882.282-5.895.282-.82.282.388.282-.907.282 2.104.564 18.68.281 9.973.282 15.301.564 45.057.564 22.984.564 13.576.282.204.846-11.51.282 1.305.564 5.908.282 1.86.846 12.693.282 1.807.564 8.635.282.702.845-10.967.282-.427.282.97.282 1.981.282 2.8 1.128 17.26.282 1.522.282 2.427.282 1.132.282-2.11.564-6.53.282-2.25.282-3.38.282-8.028.564-35.874 1.128-74.816.282-8.732 1.127-6.98.282 1.839.846 7.992.282 9.575.846 46.829.564 37.295.282 4.302.282-4.502.282-1.45.564 7.423.282-1.28.282-2.595.282-.794.282 1.216.282 2.017.282 2.825.563 8.551.282 1.88.282.13.564 1.638.564-2.516.282 1.414.282.492.282-1.281.282 2.548.282 6.456.282 1.986.564-10.718.282.162.282 1.52.282-1.663.282-2.987.282-.558.282 2.7.564 9.975.564 15.17.281-2.59.282-16.19 1.128-94.714.564-25.592.564-15.878.564-9.366.282-1.601.282 3.517.564 14.212.282 10.356.564 40.366.564 35.668.564 15.065.564 7.572.282 2.014 1.41 14.08.281 1.345.282-3.089.564-7.917.282-3.194.282-1.664.282 3.031.564 10.071.564 6.98.282-1.511.282-5.313.282-3.017.282-.206.282-.961.282 1.64.846 21.756.281 4.21.564 17.27.282 1.098.564-4.03.282-5.62.282-16.275 1.41-124.956.564-23.381.564-13.224.282-3.881.282-1.887.282.661.282 3.658.564 12.94.282 10.745.564 34.54 1.127 88.41.282 10.767.282 4.614.564 2.96.564 5.555.282-.47.282-1.527.282-.671.282-1.586.282-4.818.846-22.118.282-3.6.282-1.745.282-.327.282 1.866.564 7.922.282 2.322.563 2.536.282.698.282.182.282-.04.282.367.282 1.762.564 8.285.282 5.356.564 18.1.564 18.844.282-.424.282-14.696.564-65.66.564-63.753.564-35.814.564-13.165.282.023 1.127 28.808.564 12.046.282 4.566.282 10.529.846 40.574.564 20.241.846 10.17.282.984.846-13.503.282.803.846 6.944.282 3.749.563 11.172.282 2.588.282-2.013.282-3.353.282-.616.564 4.745.282 2.682.282 4.447.564 13.838.282 2.84.282-2.14.282-3.118.282-.23.282 2.124.282 3.187.564 10.96.846 20.344.282-3.56.282-23.368.845-102.655.564-39.905.282-9.351.282-3.987.282-1.726.282.77.282 2.613.282.996.282-1.454.282-.302.282 2.591.282 4.054.282 6.534.282 13.43 1.128 85.477.282 8.004.282-.558.564-10.088.282-1.333.563 2.772.282-1.282.282-2.723.282-1.414.564-.078.282 1.268.564 7.893.282 1.366.282.62.282 3.315.564 10.146.564 8.777.564 12.158.282-.39.564-8.806.282-.677.282 1.365.282 2.772.282 5.01 1.127 26.514.282-8.903.564-46.978.846-92.89.282-16.234.282-9.684.282-4.945.282.707.282 2.377.282-1.552.282-3.963.282-1.93.282.706.282 3.759.564 19.995.564 23.557 1.127 67.501.282 5.459.282 1.646.282 2.517.282 4.49.282 1.976.282-1.468.282-.03.282 1.71.282-1.794.564-10.162.282-.78.282 1.564.282 3.312.846 12.673.846 7.13.282 1.593.282.549.282 1.047.281 3.366.564 8.567.564 6.594.282 4.177.846 20.045.282 1.565.282-1.087.282-5.26.282-16.568 1.692-169.803.564-11.068.282-4.486.282-1.903.282 1.09.563 3.644.282 3.102.282 5.916.564 20.97.564 31.68.564 44.738.282 10.17.564 1.42.564 6.18.282.292.282 3.307.846 20.667.564 9.958.282-.059.564-9.847.282-1.087.563 4.54.282.437.282 2.954.846 23.075.846-1.257.282-3.272.282-4.68.282-1.076.282 3.201.564 10.217.564 15.35.282 2.075.282-1.645.282-3.066.282-9.022.282-21.54 1.41-158.052.281-14.38.282-7.287.282-2.246.282.24.282 1.015.282 3.323 1.128 32.492.564 22.22.564 33.995.846 61.558.846 28.803 1.127 26.864.282-2.15.846-20.87.282-2.594.282 1.768.282 2.584.282-1.313.564-7.128.282-1.001.282-1.99.564-7.287.282-1.059.282 3.366.564 14.756.282 3.624.282.303.282-.227.282 1.308.845 11.98.282-1.603.282-.949.282 3.618.282 1.645.282-11.272.564-59.064.846-87.293.282-14.262.564-11.171.282-4.726.282-2.817.282 1.445 1.41 27.43.564 19.763 1.691 85.52.846 16.016.282 2.589.282-2.366.564-8.74.282-3.288.282-1.75.282 1.132.282 3.291.564 11.087.282 5.72.282 1.671.282-.913.282-.242.282-.86.282-2.826.282-.994.282 3.849.845 20.5.282 7.754.282 3.692.282-1.212.564-5.4.564-2.164.846-3.043.282-6.452.282-16.875 1.41-123.39.282-11.027.282-3.861.282-1.436.845-6.484h.282l.282 2.814.846 18.254.282 9.096.564 33.497.846 57.892.564 16.698.282 3.959.282 1.493.282.128.282-1.607.564-9.228.282.726.282 4.602.282 1.494.564-5.744.282-.544.281-1.177.282-2.144.282-.864.282.294.282.464.282 2.229.282 5.794 1.128 30.49.282-1.649.282-5.91.282-2.976.564 4.648.282-.574.282 3.28.846 30.136.282.845.282-3.418.282-15.204.563-72.251.564-67.825.282-20.174.282-10.471.282-3.93.282-1.204.282 1.423.564 9.087.282 1.915.282.598.282 1.408.282 2.45.282 4.697.282 10.347.564 38.099.564 38.152.282 11.438.282 4.734.282.5.846-1.46.281 1.249.564 7.911.564 7.54.282.752.282-2.842.564-7.444.282-.875.282-.146.282 1.292.846 11.853.846 6.075.282-.764.282-.095.282 2.452.846 11.642.563 13.9.282 7.383.282 4.183.282-.59.564-4.914.282-1.396.282-6.12.282-15.865 1.41-123.872.846-32.583.282-4.77.282-2.038.282.517.282 4.51.846 21.988 1.127 44.827.564 31.5.846 29.983.564 11.773.282 1.155.846-3.628.846-5.942.564 4.234.282.092.846-6.416.282-.812.282 1.371.845 19.565.564 3.82.564 6.725.282 1.379.282 2.148.564 11.066.282 5.264.282 1.999.282.64.282 3.347.282 5.955.282 3.393.282-4.222.282-13.54.564-52.201.846-88.06.282-15.89.282-7.723.281-2.945 1.128-6.227.282 2.855.564 16.253.282 3.804.282-.617.282 1.084.564 12.959.564 15.893.564 20.201.564 13.178.846 25.991.282.13.282-1.459.282 2.371.563 10.346.282 3.367.846 15.387.564-1.494.282.558.282 1.176.282 2.937.564 10.293.282 2.05.564 2.581.282-.124.282-1.372.282.84.282 4.696.564 17.396.282 10.732.282 6.313.282-.406.563-4.02.282-9.255.282-25.182.846-96.456.564-35.567.564-22.762.282-5.983.282-3.046.282.613.564 7.656.564 14.956.846 26.852.846 36.915.564 28.7.281 14.825.282 7.845.282.486.282-1.884.282 1.838.282 4.884.282 1.622.282-2.672.282-1.102.282-.04.282-7.516.564-31.526 1.128-31.154.282-1.613.564 5.568.282 5.43 1.128 39.119.845 44.688.564 21.827.282 4.166.282-.554.282.71.564 7.065.282.763.282-3.63.282-12.447.564-54.705.564-53.287.564-33.327.282-10.574.282-5.929.282-1.828.282.753.564 3.616.282.87.281-.542.282-1.225.282.356.282 4.9.282 10.786.846 54.999.564 28.847.564 14.292.564 6.508.282 1.533.282-3.562.564-13.23.564-2.772.564-7.28.564-2.487.845-12.282.282 3.297.564 16.926.564 16.716.564 10.553.282 3.825.282 1.212.282-.443.282.826.282 2.517.282 3.683.564 14.188.846 19.55.282 3.719.282-6.795.282-20.07.846-98.821.281-29.664.282-17.451.282-6.831.564-7.339.564-10.36.282-3.044.282.028.564 3.822.282 3.057.282 7.143 1.41 57.668.564 20.75.564 27.447.564 12.374.563 12.078.282.784.564-8.893.564-9.486.282-1.987.282 1.087.846 8.318.846 13.318.282-.289.564-5.073.282-.147.282.302.282 2.12.282 6.43.564 17.624.282 4.457.563 3.833.282.503.564-2.905.564 1.614.282-6.96.282-21.155.846-90.505.564-39.878.282-13.758.282-8.123.282-2.308.282 2.258.846 12.749.846 21.31.564 5.37.282 6.85.563 21.912 1.128 51.267.846 28.396.282 1.361.564-3.672.282-.347.282 1.737.846 9.679.564 9.357.282.592.282-1.416.282-.528.564.864.282 1.076.281 2.833.282 5.606.564 16.76.282 4.651.282.462.282-3.134.282-10.166.282-22.027L539.066 77.3l.282-10.48.282-4.92.564-14.61.282-.4.564 7.882.282.842.282 3.176.564 11.28.282 10.542.845 39.528.564 23.4 1.128 27.36.282 1.986.282.49.282.103.282-1.022.282-1.548.282-.692.282-.065.282 1.338.846 10.571.282-.381.282-4.87.564-16.95.282-4.086.282-.466.281 1.62.846 11.091.282.245.564-3.034.282 1.512.564 8.66.282 7.82.564 21.665.282 3.572.282.014.282 1.43.564 5.005.282 4.813.564 13.232.282 2.156.282-3.915.282-18.22 1.127-141.658.564-24.582.282-3.822.282-.12.282 1.337.564 3.98.282.033.282-.548.282 1.237.282 4.493.282 8.288 1.41 57.203.282 7.632.564 4.118 1.127 22.821.564 11.426.282 2.987.282 1.035.282 2.167.564 6.149.282-.23.282.43.282 3.883.282 5.523.282 3.222.564 1.83.846 6.625.282 1.045.282 2.845.564 11.455.282 2.484.282.452.282 1.554.281 2.232.282-.942.564-6.356.282 1.37.282 2.106.282-1.13.282-7.42.282-16.674 1.41-132.317.282-9.32.282-3.484.282 1.97.846 13.1.282-.583.282-2.056.282.63.564 8.547.281 7.04 1.128 40.119 1.41 39.878 1.128 20.36.282 1.762.282.085.282-.436.282-1.595.564-5.084.282.367.282 1.247.846 1.286.282 1.936 1.41 18.057.281 2.01.282.258.282-.044.282 1.332.282 3.407.564 10.843.846 19.829.282 7.187.282 2.664.282-6.663.282-19.799 1.128-123.15.564-28.599.563-9.238.282-2.982.282-1.103.564 1.319.282 1.958.564 9.662.564 15.723.564 22.125.846 39.484.564 5.993.282 5.743.282 1.316.282-2.277.282 2.104.564 11.924.282-.413.282-1.13.281.91.282 1.732.846 6.415.282 1.688.564 5.813.846 5.189.282.928.282.542.282.845.282 2.407.846 12.91.564 3.88.846 9.036 1.127 23.431.282-.754.282-13.998 1.128-118.833.564-26.069.564-15.955.282-3.099.564-2.896.282-.2.282 2.082.564 6.192.564 11.123.846 17.25.563 21.006.564 7.534.846 29.738.564 6.78.282 2.849.282.327.564-3.443.282.102.282 2.053.564 7.13.282 1.799.282.558.282 1.927.564 5.022.282.137.282 1.163.846 10.175.563 10.971.282 6.01.846 8.881.846 16.47.564 4.672.282 1.191.282-.29.282-8.532.282-22.008.846-91.825.564-38.359.282-11.457.282-6.768.282-4.048.282-1.904.282 1.806.845 8.47.282 2.577.282.846.282.412.282 2.772.564 18.265 1.128 43.827.564 14.063.564 10.823.282 2.784.282-.273.282.166.282 1.795.564 4.524.564 6.058.281 3.452.564 2.287 1.128 8.473.282 1.673.564 6.689.564 9.027.564 5.274.564 9.125.282 2.628.282 3.98 1.41 31.618.282-5.165.282-15.228.282-28.995.845-121.93.564-37.494.282-8.666.282-2.283.282.687.564 3.902.564 7.544.282 4.818.564 5.906.282 7.44 1.692 80.093.282 3.905.564 2.784.281-.323.282 1.512.282 2.217.282 3.161.282 1.51.564 6.433.282.938.846-15.498.564 5.749.564 6.197.846 24.374.282-.67.846 8.55.282-6.098.282 1.089.282-.182.281 11.67h0" clip-path="url(#p0694c73226)" style="fill:none;stroke:#1f77b4;stroke-width:1.5;stroke-linecap:square"/><path id="patch_3" d="M71.308 266.112V0" style="fill:none;stroke:gray;stroke-width:.8;stroke-linejoin:miter;stroke-linecap:square"/><path id="patch_4" d="M685.107 266.112V0" style="fill:none;stroke:#000;stroke-width:.8;stroke-linejoin:miter;stroke-linecap:square"/><path id="patch_5" d="M71.308 266.112h613.8" style="fill:none;stroke:gray;stroke-width:.8;stroke-linejoin:miter;stroke-linecap:square"/><path id="patch_6" d="M71.308 0h613.8" style="fill:none;stroke:#000;stroke-width:.8;stroke-linejoin:miter;stroke-linecap:square"/></g></g><defs><clipPath id="p0694c73226"><path d="M71.308 0h613.8v266.112h-613.8z"/></clipPath></defs></svg>