<svg xmlns="http://www.w3.org/2000/svg" xmlns:xlink="http://www.w3.org/1999/xlink" width="913.477" height="377.053" viewBox="0 0 685.107 282.79"><defs><style>*{stroke-linejoin:round;stroke-linecap:butt}</style></defs><g id="figure_1"><path id="patch_1" d="M0 282.79h685.107V0H0v282.79z" style="fill:none"/><g id="axes_1"><path id="patch_2" d="M71.308 266.112h613.8V0h-613.8v266.112z" style="fill:none"/><g id="matplotlib.axis_1"><g id="xtick_1"><g id="line2d_1"><defs><path id="m60c67f7106" d="M0 0v3.5" style="stroke:gray;stroke-width:.8"/></defs><use xlink:href="#m60c67f7106" x="99.207" y="266.112" style="fill:gray;stroke:gray;stroke-width:.8"/></g><g id="text_1" style="fill:gray" transform="matrix(.1 0 0 -.1 96.026 280.71)"><defs><path id="DejaVuSans-30" d="M2034 4250q-487 0-733-480-245-479-245-1442 0-959 245-1439 246-480 733-480 491 0 736 480 246 480 246 1439 0 963-246 1442-245 480-736 480zm0 500q785 0 1199-621 414-620 414-1801 0-1178-414-1799Q2819-91 2034-91q-784 0-1198 620-414 621-414 1799 0 1181 414 1801 414 621 1198 621z" transform="scale(.01563)"/></defs><use xlink:href="#DejaVuSans-30"/></g></g><g id="xtick_2"><use xlink:href="#m60c67f7106" id="line2d_2" x="168.958" y="266.112" style="fill:gray;stroke:gray;stroke-width:.8"/><g id="text_2" style="fill:gray" transform="matrix(.1 0 0 -.1 159.414 280.71)"><defs><path id="DejaVuSans-35" d="M691 4666h2478v-532H1269V2991q137 47 274 70 138 23 276 23 781 0 1237-428 457-428 457-1159 0-753-469-1171Q2575-91 1722-91q-294 0-599 50Q819 9 494 109v635q281-153 581-228t634-75q541 0 856 284 316 284 316 772 0 487-316 771-315 285-856 285-253 0-505-56-251-56-513-175v2344z" transform="scale(.01563)"/></defs><use xlink:href="#DejaVuSans-35"/><use xlink:href="#DejaVuSans-30" x="63.623"/><use xlink:href="#DejaVuSans-30" x="127.246"/></g></g><g id="xtick_3"><use xlink:href="#m60c67f7106" id="line2d_3" x="238.708" y="266.112" style="fill:gray;stroke:gray;stroke-width:.8"/><g id="text_3" style="fill:gray" transform="matrix(.1 0 0 -.1 225.982 280.71)"><defs><path id="DejaVuSans-31" d="M794 531h1031v3560L703 3866v575l1116 225h631V531h1031V0H794v531z" transform="scale(.01563)"/></defs><use xlink:href="#DejaVuSans-31"/><use xlink:href="#DejaVuSans-30" x="63.623"/><use xlink:href="#DejaVuSans-30" x="127.246"/><use xlink:href="#DejaVuSans-30" x="190.869"/></g></g><g id="xtick_4"><use xlink:href="#m60c67f7106" id="line2d_4" x="308.457" y="266.112" style="fill:gray;stroke:gray;stroke-width:.8"/><g id="text_4" style="fill:gray" transform="matrix(.1 0 0 -.1 295.733 280.71)"><use xlink:href="#DejaVuSans-31"/><use xlink:href="#DejaVuSans-35" x="63.623"/><use xlink:href="#DejaVuSans-30" x="127.246"/><use xlink:href="#DejaVuSans-30" x="190.869"/></g></g><g id="xtick_5"><use xlink:href="#m60c67f7106" id="line2d_5" x="378.207" y="266.112" style="fill:gray;stroke:gray;stroke-width:.8"/><g id="text_5" style="fill:gray" transform="matrix(.1 0 0 -.1 365.483 280.71)"><defs><path id="DejaVuSans-32" d="M1228 531h2203V0H469v531q359 372 979 998 621 627 780 809 303 340 423 576 121 236 121 464 0 372-261 606-261 235-680 235-297 0-627-103-329-103-704-313v638q381 153 712 231 332 78 607 78 725 0 1156-363 431-362 431-968 0-288-108-546-107-257-392-607-78-91-497-524-418-433-1181-1211z" transform="scale(.01563)"/></defs><use xlink:href="#DejaVuSans-32"/><use xlink:href="#DejaVuSans-30" x="63.623"/><use xlink:href="#DejaVuSans-30" x="127.246"/><use xlink:href="#DejaVuSans-30" x="190.869"/></g></g><g id="xtick_6"><use xlink:href="#m60c67f7106" id="line2d_6" x="447.957" y="266.112" style="fill:gray;stroke:gray;stroke-width:.8"/><g id="text_6" style="fill:gray" transform="matrix(.1 0 0 -.1 435.233 280.71)"><use xlink:href="#DejaVuSans-32"/><use xlink:href="#DejaVuSans-35" x="63.623"/><use xlink:href="#DejaVuSans-30" x="127.246"/><use xlink:href="#DejaVuSans-30" x="190.869"/></g></g><g id="xtick_7"><use xlink:href="#m60c67f7106" id="line2d_7" x="517.707" y="266.112" style="fill:gray;stroke:gray;stroke-width:.8"/><g id="text_7" style="fill:gray" transform="matrix(.1 0 0 -.1 504.983 280.71)"><defs><path id="DejaVuSans-33" d="M2597 2516q453-97 707-404 255-306 255-756 0-690-475-1069Q2609-91 1734-91q-293 0-604 58T488 141v609q262-153 574-231 313-78 654-78 593 0 904 234t311 681q0 413-289 645-289 233-804 233h-544v519h569q465 0 712 186t247 536q0 359-255 551-254 193-729 193-260 0-557-57-297-56-653-174v562q360 100 674 150t592 50q719 0 1137-327 419-326 419-882 0-388-222-655t-631-370z" transform="scale(.01563)"/></defs><use xlink:href="#DejaVuSans-33"/><use xlink:href="#DejaVuSans-30" x="63.623"/><use xlink:href="#DejaVuSans-30" x="127.246"/><use xlink:href="#DejaVuSans-30" x="190.869"/></g></g><g id="xtick_8"><use xlink:href="#m60c67f7106" id="line2d_8" x="587.457" y="266.112" style="fill:gray;stroke:gray;stroke-width:.8"/><g id="text_8" style="fill:gray" transform="matrix(.1 0 0 -.1 574.732 280.71)"><use xlink:href="#DejaVuSans-33"/><use xlink:href="#DejaVuSans-35" x="63.623"/><use xlink:href="#DejaVuSans-30" x="127.246"/><use xlink:href="#DejaVuSans-30" x="190.869"/></g></g><g id="xtick_9"><use xlink:href="#m60c67f7106" id="line2d_9" x="657.207" y="266.112" style="fill:gray;stroke:gray;stroke-width:.8"/><g id="text_9" style="fill:gray" transform="matrix(.1 0 0 -.1 644.482 280.71)"><defs><path id="DejaVuSans-34" d="M2419 4116 825 1625h1594v2491zm-166 550h794V1625h666v-525h-666V0h-628v1100H313v609l1940 2957z" transform="scale(.01563)"/></defs><use xlink:href="#DejaVuSans-34"/><use xlink:href="#DejaVuSans-30" x="63.623"/><use xlink:href="#DejaVuSans-30" x="127.246"/><use xlink:href="#DejaVuSans-30" x="190.869"/></g></g></g><g id="matplotlib.axis_2"><g id="ytick_1"><g id="line2d_10"><defs><path id="m46c4d70fd4" d="M0 0h-3.5" style="stroke:gray;stroke-width:.8"/></defs><use xlink:href="#m46c4d70fd4" x="71.308" y="260.151" style="fill:gray;stroke:gray;stroke-width:.8"/></g><g id="text_10" style="fill:gray" transform="matrix(.16 0 0 -.16 0 266.23)"><defs><path id="DejaVuSans-2212" d="M678 2272h4006v-531H678v531z" transform="scale(.01563)"/></defs><use xlink:href="#DejaVuSans-2212"/><use xlink:href="#DejaVuSans-33" x="83.789"/><use xlink:href="#DejaVuSans-30" x="147.412"/><use xlink:href="#DejaVuSans-30" x="211.035"/><use xlink:href="#DejaVuSans-30" x="274.658"/><use xlink:href="#DejaVuSans-30" x="338.281"/></g></g><g id="ytick_2"><use xlink:href="#m46c4d70fd4" id="line2d_11" x="71.308" y="224.113" style="fill:gray;stroke:gray;stroke-width:.8"/><g id="text_11" style="fill:gray" transform="matrix(.16 0 0 -.16 0 230.192)"><use xlink:href="#DejaVuSans-2212"/><use xlink:href="#DejaVuSans-32" x="83.789"/><use xlink:href="#DejaVuSans-30" x="147.412"/><use xlink:href="#DejaVuSans-30" x="211.035"/><use xlink:href="#DejaVuSans-30" x="274.658"/><use xlink:href="#DejaVuSans-30" x="338.281"/></g></g><g id="ytick_3"><use xlink:href="#m46c4d70fd4" id="line2d_12" x="71.308" y="188.075" style="fill:gray;stroke:gray;stroke-width:.8"/><g id="text_12" style="fill:gray" transform="matrix(.16 0 0 -.16 0 194.154)"><use xlink:href="#DejaVuSans-2212"/><use xlink:href="#DejaVuSans-31" x="83.789"/><use xlink:href="#DejaVuSans-30" x="147.412"/><use xlink:href="#DejaVuSans-30" x="211.035"/><use xlink:href="#DejaVuSans-30" x="274.658"/><use xlink:href="#DejaVuSans-30" x="338.281"/></g></g><g id="ytick_4"><use xlink:href="#m46c4d70fd4" id="line2d_13" x="71.308" y="152.037" style="fill:gray;stroke:gray;stroke-width:.8"/><use xlink:href="#DejaVuSans-30" id="text_13" style="fill:gray" transform="matrix(.16 0 0 -.16 54.127 158.116)"/></g><g id="ytick_5"><use xlink:href="#m46c4d70fd4" id="line2d_14" x="71.308" y="115.999" style="fill:gray;stroke:gray;stroke-width:.8"/><g id="text_14" style="fill:gray" transform="matrix(.16 0 0 -.16 13.408 122.078)"><use xlink:href="#DejaVuSans-31"/><use xlink:href="#DejaVuSans-30" x="63.623"/><use xlink:href="#DejaVuSans-30" x="127.246"/><use xlink:href="#DejaVuSans-30" x="190.869"/><use xlink:href="#DejaVuSans-30" x="254.492"/></g></g><g id="ytick_6"><use xlink:href="#m46c4d70fd4" id="line2d_15" x="71.308" y="79.961" style="fill:gray;stroke:gray;stroke-width:.8"/><g id="text_15" style="fill:gray" transform="matrix(.16 0 0 -.16 13.408 86.04)"><use xlink:href="#DejaVuSans-32"/><use xlink:href="#DejaVuSans-30" x="63.623"/><use xlink:href="#DejaVuSans-30" x="127.246"/><use xlink:href="#DejaVuSans-30" x="190.869"/><use xlink:href="#DejaVuSans-30" x="254.492"/></g></g><g id="ytick_7"><use xlink:href="#m46c4d70fd4" id="line2d_16" x="71.308" y="43.924" style="fill:gray;stroke:gray;stroke-width:.8"/><g id="text_16" style="fill:gray" transform="matrix(.16 0 0 -.16 13.408 50.002)"><use xlink:href="#DejaVuSans-33"/><use xlink:href="#DejaVuSans-30" x="63.623"/><use xlink:href="#DejaVuSans-30" x="127.246"/><use xlink:href="#DejaVuSans-30" x="190.869"/><use xlink:href="#DejaVuSans-30" x="254.492"/></g></g><g id="ytick_8"><use xlink:href="#m46c4d70fd4" id="line2d_17" x="71.308" y="7.886" style="fill:gray;stroke:gray;stroke-width:.8"/><g id="text_17" style="fill:gray" transform="matrix(.16 0 0 -.16 13.408 13.964)"><use xlink:href="#DejaVuSans-34"/><use xlink:href="#DejaVuSans-30" x="63.623"/><use xlink:href="#DejaVuSans-30" x="127.246"/><use xlink:href="#DejaVuSans-30" x="190.869"/><use xlink:href="#DejaVuSans-30" x="254.492"/></g></g></g><path id="line2d_18" d="m99.207 151.982.282.11.282-.108.282.106.282-.105.282.104.282-.103.282.102.282-.1.282.099.282-.1.282.1.282-.099.282.098.282-.098.282.098.282-.098.282.099.282-.1.282.1.282-.1.282.1.282-.1.282.102.282-.104.282.105.281-.106.282.108.282-.11.282.112.282-.114.282.117.282-.12.282.123.282-.127.282.131.282-.136.282.142.282-.149.282.157.282-.166.282.176.282-.188.282.203.282-.222.282.246.282-.278.282.321.282-.382.282.479.282-.65.281 1.032.282-2.659.282-6.003.282 9.326 1.128 16.89.282 1.156.564.148.282-.033.846-4.975.282.217.564 1.868.282-.252.282.35.282 1.267.282.744.282-1.065.564-2.51.282-.585 1.127-4.227.282-.074.564 1.354.282.102.282-1.53.282-3.892.564-15.608.846-27.138.282-5.64.282-1.899.282 2.225.564 12.564.846 21.944.564 10.15.563 7.278.282 2.858.282 1.613.282-.448.564-2.94.282.35.282.82.282.253.282-.04.282.258.282.476.282.237.282-.516.846-5.21.282-.189.282-.045.282-1.324.564-4.164.282.287.282 2.36.563 6.027.282.892.282-1.78.282-4.671.564-17.419.846-33.401.282-4.109.282-.228.282 1.39.282 2.692.282 5.527 1.692 46.984.282 4.601.282 1.695.282.256.282-.883.563-4.678.282-.829.282-.37.282-1.996.282-2.884.282-1.372.564.741.282-.396.282.896.846 10.646.282.193.282-.391.282.026.282-.46.564-2.466.282 1.005.282 1.722.282.073.282-2.205.282-4.38.282-7.387.845-31.796.564-11.931.282-2.757.282 1.213.564 10.863.564 15.691.564 15.66.564 8.316.282 3.429.282 1.985.282.432.564-.51.282-.449.282-.13.282.42.564 1.328.563 3.071 1.128 5.891.282.835.282.051.282-.585.846-4.102.282.127.564.956.282.704.282.01.282-2.834.564-14.877.564-21.203.564-20.8.282-2.923.282.485.281.987.282 2.741.564 16.84.564 13.808 1.41 23.813.282.747.564-2.175.282.11.282-.527.564-3.027.564 1.814.564-.6.564 2.66.282.164.281-.844.282-.117.564 1.175.564-.946.282 1.036.846 10.531.282.553.282-1.402.282-4.23.282-8.644 1.128-48.007.282-8.68.282-4.677.282-.837.282 2.377.282 6.105 1.41 45.708.281 5.413.564 4.99.282 1.766.564 1.684.282 1.525.282.812.282-.437.282.442.282 1.783.282.634.564-2.459.282.193.282-.049.846-2.321.564-4.485.564-1.224.281-1.002.282 1.086.564 7.658.282.599.282-2.067.282-4.072.564-16.465 1.128-42.676.282-4.05.282-.82.282 1.36.282 4.94 1.692 53.413.282 2.385.282.465.281 2.24.564 6.498.282-.12.282-.865.564.274.282-1.387.564-5.086.282-.306 1.41 6.859.282.977.282-.05.282-.892.282-.3.564 1.125.282.275.564 3.13.282-.637.281-4.86.564-17.78 1.128-52.9.282-5.654.282-1.986.282 1.647.282 5.757 1.692 54.216.564 6.964.564 4.25.564 2.944.282.88.282.297.281.007.564-.17.282.17.282.436.282.03.564-1.218.282.325.564 1.33.282.212.282.001.564-1.236.282-.112.282.535.282.153.282-.713.282-1.516.282-2.59.282-4.845.282-8.09 1.127-44.88.282-5.11.282-2.127.282 1.759.282 6.763 1.128 38.252.564 11.876 1.41 20.747.282 1.066.282-.268.282-.78.282-1.957.564-5.094.846-3.37.281-.075.564 3 .846 5.686.846 7.68.564 1.937.282 1.244.282-1.102.282-4.829.564-15.852 1.692-63.849.282-6.922.282-2.3.282 3.137.563 14.98 1.128 34.61.282 2.4.564 1.663.282.377.282-1.058.564-3.558.282.349.282.827.282.292.282 1.163.564 7.764.564 6.59.564 4.425.282.61.282-.196.282-.482.281-.253.282.69.846 5.707.282-1.166.282-3.891.282-6.991.564-23.66.846-40.366.282-4.08.282 3 .282 9.186.846 43.612.564 26.935.282 6.608.282 1.344.282-2.389.282-5.458.563-14.675.282-4.01.846-6.054.282 1.523.282 2.857.282 1.628.564 1.395.564 2.388.846 5.815.564.432.282 1.503.282 3.478.846 16.076.282 2.062.282-.42.281-3.627.282-8.39.564-28.704.564-29.846.564-14.75.282-4.224.282-1.603.282 4.617.846 33.67.564 26.542.282 6.895.282 1.257.282.277.282.906.282.078.564-1.334.282-.62.282-1.126.282-.542.563 1.718.846 3.109.564-1.971.282-.188.282-.915.564-4.88.282.814.846 7.771.564 7.137.282-1.533.282-6.705.564-25.468.846-56.65.282-9.489.563-8.42.282.715.282 7.398 1.974 85.345 1.128 11.68.282-.269.282.539.564 8.347.282 1.18.564-4.358.564-.639.563-2.51.282.42.282.102.282-1.537.282-.856.282 2.312.564 7.77.564 3.686.282-.133.282-4.556.282-9.914.564-32.988.846-52.948.564-19.302.282-4.057.282-.097.282 4.483.564 23.154 1.41 63.666.563 7.438.564 8.392.282 1.92.282 1.048.282 3.082.564 7.34.564 1.31.282.282.282-2.357.564-10.19.282-2.43.282-.801.282-.429.282.69.282 2.693.845 11.936.282 2.147.282 1.12.282-1.166.282-6.036.282-12.486.846-59.516.564-36.044.564-17.807.282-2.931.282 2.151.282 7.242.564 26.24.846 49.667.564 20.242.282 5.096.563 6.36.564 7.375.846 4.78.282.79.282-.493.282-.788.282-.41.282-.771.282-1.128.282-.376.846 2.658.282-.08.564-1.213.282.033.564 2.434.282-.093.282-1.194.282-2.21.281-5.103.282-10.427.846-52.221.564-33.642.282-11.672.282-6.998.282-2.887.282.926.282 5.05.282 9.751.846 47.272.564 26.71.564 14.298.564 8.31.282 2.388.282.75.563-.033.282.424.564 2.744.282.222.846-5.771.282 1.228.564 4.434.564 5.234.282 1.228.564.33.282.558.282 1.574.564 4.24.282-.47.282-2.908.282-5.513.282-9.727.564-35.016.845-53.388.564-22.114.282-5.428.282.675.282 7.176.564 26.654 1.128 61.773.564 14.019.564 4.127.282 1.972.282.936.564-2.392.282.75.282 1.123.563-.778.282.679.282.265.282-1.078.282-.244 1.41 8.613.564 1.671.282 2.301.564 6.54.282 1.572.282-1.08.282-4.842.282-8.452.564-28.926.846-60.256.563-26.956.282-6.872.282-.168.282 4.827.282 8.276.564 29.961.846 51.398.564 16.792.282 3.817.282 1.77.282.272.282.619 1.128 8.052.564 2.472.282-.52.564-1.702.282-.548.281-.834.282-.342.282.758.846 4.103.282 1.369 1.41 9.75.282-1.487.282-4.716.282-7.654.282-10.794.564-34.733.564-38.44.564-24.295.282-5.251.282-.413.282 4.156.281 8.94 1.692 72.45.282 5.471.282 2.203.282.031.846-3.01.846-1.52.282-.03.564.756.282-.257.282-.104.282.863.564 3.406.282 2.98.845 15.307.282 1.836.282 2.612.564 6.21.282.556.282.21.282-.072.282-2.113.282-4.93.282-8.518.564-32.191.846-53.39.564-21.4.282-3.854.282.242.282 5.457.564 27.35 1.127 67.584.282 9.318.564 8.977.282 2.035.564 2.57.282 1.432.282-.311.564-2.93.282-2.282.846-13.95.282-.055.282.115.282-.69.282.128.846 5.122.282 1.13.563 3.806.564 5.734.282 1.259.282-1.164.282-3.3.282-6.823.282-12.715 1.41-86.483.282-9.667.282-4.977.282-1.317.282 3.263.282 9.333.846 46.868.564 31.13.564 15.67.281 3.949.282 1.161.282.054.282 1.798.282 3.31.282 1.904.282.091.282.286 1.41 5.595.282.182.282.418.282 1.245.282.33.564-4.83.282-.253 1.41 11.392.281-1.981.282-7.051.564-27.137 1.128-75.24.564-16.713.282-1.674.282 2.102.282 5.39.282 10.5 1.41 75.429.282 10.554 1.41 20.122.281.323 1.41 6.282.282-.19.564-6.922 1.128-12.99.564-3.348.282-.807.282.53.564 3.221.282-.024.282-2.25.282-4.868.282-8.253.564-31.27.563-38.062.564-22.76.282-7.138.282-3.742.282 1.045.282 5.583.564 19.428 1.974 93.086.282 4.065 1.41 5.06.846 5.897.845.743.282.2.282.43.564 1.335.282 1.058.282 2.237.564 9.714.564 9.69.282 1.273.282-2.647.282-9.13.564-40.658 1.128-91.088.564-25.438.282-5.52.281-1.369.282 3.695.282 8.827.564 27.226 1.41 79.216.282 7.865 1.974 27.34.282 1.158.282-1.052.564-2.903.564-2.324.282-.175.282 1.27.563 4.713.564 7.772.564 9.565.282 2.023.282-1.788.282-6.678.282-12.393.564-41.867.846-69.18.564-26.545.282-8.837.282-4.102.282.664.282 3.964.282 6.734.564 25.045 1.41 79.551.563 14.595 1.692 19.034.564 3.472.846 4.579.282-.333.282-.963.282-.336.282.391.282.686.282 1.15.282 2.479.564 6.727.281 1.452.282-.956.282-4.777.282-10.474.564-38.962 1.128-93.114.564-31.089.282-7.13.282 1.065.564 15.728.282 11.337.564 37.695.846 55.305.564 29.613.563 16.308.282 3.895.282 1.498.282.298.564 2.02.282.16.564-1.729.846-.973.282.526.564 2.97.564 1.195.282 2.069.846 12.108.282-1.326.282-5.098.282-9.28.282-14.87.845-70.204.846-67.915.282-15.022.282-7.722.282-2.03.282 3.005.282 8.877.846 46.59 1.692 87.867.564 13.672.282 2.39.282.347.282 2.115.563 9.635.282 1.297.282.476.282 2.861.282 4.133.282 2.495.564.968.564 2.04.282.348.282 1.34.564 4.52.282-.093.282-.936.282-2.277.282-7.888.564-39.066 1.691-134.307.282-13.53.282-5.514.282 3.749.564 25.67 1.128 69.312.846 52.532.564 20.515.564 9.885.282 3.533.282 1.52.282-.211.282-.831.846-4.099.845 3.535.282-.518.282.058.564 2.392.282 1.258.282 2.215.564 8.697.282 1.682.282-3.336.282-7.954.282-12.144.564-39.784 1.128-91.495.564-29.354.282-7.284.282-.355.282 7.089.845 39.075 1.41 80.484.564 21.723.564 15.597.282 4.217.846 5.235.282 2.128.564 1.3.282 2.853.564 7.103.282 1.38.282 2.166.564 6.427.563 1.473.564 5.346.282-2.335.282-7.781.564-27.408.564-45.357 1.128-101.31.282-16.191.282-9.22.282-1.891.282 5.075.564 23.423 1.128 62.29 1.127 58.41.564 18.457.564 11.417.282 3.477.282 1.386.282.05.282.487 1.128 6.932.282 2.166.282.58.282-.763.282-.049.282 1.677.564 6.254.564 8.947.282.076.282-5.207.281-10.168.282-15.65.846-74.267.846-68.456.282-15.634.282-8.712.282-1.002.282 6.015 1.128 41.98 1.974 93.648.564 14.72.563 7.977.282 3.57.846 14.186.846 8.657.282 1.27.282-.2.564-2.655.282.501.564 5.465.846 9.032.282-3.073.282-10.778.564-42.66 1.41-134.844.281-15.801.282-7.347.282.976.564 15.342.564 21.52 2.256 110.39 1.41 41.833.282 7.267.282 4.238.845 6.397.282 1.1.564-1.005.282.333.282.153.282-.117.282 1.495.564 7.465.282-.007.282-4.18.282-8.355.282-14.958.564-52.857 1.128-115.49.282-17.937.282-7.788.282-.163.282 4.388.563 17.534 1.128 41.903 1.128 47.45.846 35.837 1.692 49.582.846 16.685.282 1.26.282.585.564 3.94.563 5.833.846 11.93.282 1.789.282-1.21.282-5.689.282-12.258.564-49.883 1.128-121.454.282-16.855.282-7.333.282-3.022.282-1.475.282 1.842.564 13.274.564 14.876 3.665 123.954.564 11.769 1.41 22.689.846 11.495.564 11.594.282 5.945.282 3.063.281-1.682.282-7.829.282-14.8.564-46.718 1.128-114.373.282-15.93.282-6.961.282-1.256.282.012.282.81.282 3.682.564 9.3.282 2.817.282 6.473 2.82 107.124.563 11.045.846 18.086.846 19.626.564 10.848.846 10.686.564 8.623.282 2.299.282-1.353.282-6.153.282-11.15.282-17.274.563-55.053.846-89.528.282-21.506.282-12.65.282-3.735.282 1.21.282 2.287.282 3.477.564 14.911 1.41 45.978 1.41 47.589 1.128 30.648 2.82 56.432.563 4.373.564 6.911.282-1.25.282-5.878.282-9.64.282-14.381.564-46.827 1.128-106.132.282-14.507.281-8.252.282-3.876.282-.329.282 2.642.564 10.719.846 22.174 1.128 40.04.846 30.835 2.256 62.205 1.127 18.47.282 3.552.564 2.68.282 3.139.564 7.95.282 1.663.282-.569.282-4.336.282-10.506.564-40.578 1.41-130.71.282-9.738.282-5.468.282-2.069.282 2.2.564 13.27 1.127 29.597 1.692 55.023.564 11.97.282 4.018 1.41 31.639.564 14.29 1.691 29.117.846 19.47.282 2.006.282-3.003.282-9.216.564-38.85 1.41-131.63.282-9.76.282-4.383.282-1.905.282.535.564 6.372.282 4.563.564 15.89 2.82 85.814 1.691 40.658.846 17.766.282 2.26.282-1.112.564-7.135.282-1.634.282 1.73.282 4.03.282 1.948.282-4.395.281-11.18.564-36.51 1.41-123.71.282-6.557.282-.2.564 7.6.282 5.492.846 26.487.846 27.132.564 19.54 1.691 42.558 1.128 18.862 1.128 10.55.564 3.488.282 4.084 1.692 35.192.282-2.24.282-8.727.282-14.854.564-52.748.564-59.102.563-30.561.282-7.039.282-2.884.282.585 1.128 9.963.282 3.747.846 17.65 1.41 33.05.846 24.546 1.128 26.633.563 5.56.846 13.335.282 2.749.564 10.199.846 19.043.282 7.662.282 2.941.282-3.688.282-9.225.282-15.034.564-49.711.564-50 .282-15.542.282-8.396.564-8.87.563-10.706.282-1.508.282 1.385.282 3.182.564 10.136.564 13.875 2.538 71.744.282 6.182.282 2.699.282-.29.282.09.846 6.968.282.003.282 1.683.563 9.58.564 14.367.846 24.129.282 2.008.282-5.65.282-15.04.564-52.487.564-54.815.282-17.617.282-10.215.282-5.315.564-4.709.282-.859.282.623.282 2.265.564 7.97 1.127 26.176 1.128 26.481.846 17.285 1.692 25.259.564 10.195.282 6.06.282 3.541.282 1.879.282 1.04.846 9.668.281-3.383h0" clip-path="url(#p452a0e11f2)" style="fill:none;stroke:#1f77b4;stroke-width:1.5;stroke-linecap:square"/><path id="patch_3" d="M71.308 266.112V0" style="fill:none;stroke:gray;stroke-width:.8;stroke-linejoin:miter;stroke-linecap:square"/><path id="patch_4" d="M685.107 266.112V0" style="fill:none;stroke:#000;stroke-width:.8;stroke-linejoin:miter;stroke-linecap:square"/><path id="patch_5" d="M71.308 266.112h613.8" style="fill:none;stroke:gray;stroke-width:.8;stroke-linejoin:miter;stroke-linecap:square"/><path id="patch_6" d="M71.308 0h613.8" style="fill:none;stroke:#000;stroke-width:.8;stroke-linejoin:miter;stroke-linecap:square"/></g></g><defs><clipPath id="p452a0e11f2"><path d="M71.308 0h613.8v266.112h-613.8z"/></clipPath></defs></svg>