<?xml version="1.0" encoding="utf-8" standalone="no"?>
<!DOCTYPE svg PUBLIC "-//W3C//DTD SVG 1.1//EN"
  "http://www.w3.org/Graphics/SVG/1.1/DTD/svg11.dtd">
<svg xmlns:xlink="http://www.w3.org/1999/xlink" width="660.992188pt" height="282.790125pt" viewBox="0 0 660.992188 282.790125" xmlns="http://www.w3.org/2000/svg" version="1.1">
 <metadata>
  <rdf:RDF xmlns:dc="http://purl.org/dc/elements/1.1/" xmlns:cc="http://creativecommons.org/ns#" xmlns:rdf="http://www.w3.org/1999/02/22-rdf-syntax-ns#">
   <cc:Work>
    <dc:type rdf:resource="http://purl.org/dc/dcmitype/StillImage"/>
    <dc:date>2023-03-06T19:23:07.483968</dc:date>
    <dc:format>image/svg+xml</dc:format>
    <dc:creator>
     <cc:Agent>
      <dc:title>Matplotlib v3.6.3, https://matplotlib.org/</dc:title>
     </cc:Agent>
    </dc:creator>
   </cc:Work>
  </rdf:RDF>
 </metadata>
 <defs>
  <style type="text/css">*{stroke-linejoin: round; stroke-linecap: butt}</style>
 </defs>
 <g id="figure_1">
  <g id="patch_1">
   <path d="M -0 282.790125 
L 660.992188 282.790125 
L 660.992188 0 
L -0 0 
L -0 282.790125 
z
" style="fill: none"/>
  </g>
  <g id="axes_1">
   <g id="patch_2">
    <path d="M 47.192188 266.112 
L 660.992188 266.112 
L 660.992188 0 
L 47.192188 0 
L 47.192188 266.112 
z
" style="fill: none"/>
   </g>
   <g id="matplotlib.axis_1">
    <g id="xtick_1">
     <g id="line2d_1">
      <defs>
       <path id="mde5bbe6303" d="M 0 0 
L 0 3.5 
" style="stroke: #000000; stroke-width: 0.8"/>
      </defs>
      <g>
       <use xlink:href="#mde5bbe6303" x="75.092188" y="266.112" style="stroke: #000000; stroke-width: 0.8"/>
      </g>
     </g>
     <g id="text_1">
      <!-- 0 -->
      <g transform="translate(71.910938 280.710438) scale(0.1 -0.1)">
       <defs>
        <path id="DejaVuSans-30" d="M 2034 4250 
Q 1547 4250 1301 3770 
Q 1056 3291 1056 2328 
Q 1056 1369 1301 889 
Q 1547 409 2034 409 
Q 2525 409 2770 889 
Q 3016 1369 3016 2328 
Q 3016 3291 2770 3770 
Q 2525 4250 2034 4250 
z
M 2034 4750 
Q 2819 4750 3233 4129 
Q 3647 3509 3647 2328 
Q 3647 1150 3233 529 
Q 2819 -91 2034 -91 
Q 1250 -91 836 529 
Q 422 1150 422 2328 
Q 422 3509 836 4129 
Q 1250 4750 2034 4750 
z
" transform="scale(0.015625)"/>
       </defs>
       <use xlink:href="#DejaVuSans-30"/>
      </g>
     </g>
    </g>
    <g id="xtick_2">
     <g id="line2d_2">
      <g>
       <use xlink:href="#mde5bbe6303" x="144.842188" y="266.112" style="stroke: #000000; stroke-width: 0.8"/>
      </g>
     </g>
     <g id="text_2">
      <!-- 500 -->
      <g transform="translate(135.298438 280.710438) scale(0.1 -0.1)">
       <defs>
        <path id="DejaVuSans-35" d="M 691 4666 
L 3169 4666 
L 3169 4134 
L 1269 4134 
L 1269 2991 
Q 1406 3038 1543 3061 
Q 1681 3084 1819 3084 
Q 2600 3084 3056 2656 
Q 3513 2228 3513 1497 
Q 3513 744 3044 326 
Q 2575 -91 1722 -91 
Q 1428 -91 1123 -41 
Q 819 9 494 109 
L 494 744 
Q 775 591 1075 516 
Q 1375 441 1709 441 
Q 2250 441 2565 725 
Q 2881 1009 2881 1497 
Q 2881 1984 2565 2268 
Q 2250 2553 1709 2553 
Q 1456 2553 1204 2497 
Q 953 2441 691 2322 
L 691 4666 
z
" transform="scale(0.015625)"/>
       </defs>
       <use xlink:href="#DejaVuSans-35"/>
       <use xlink:href="#DejaVuSans-30" x="63.623047"/>
       <use xlink:href="#DejaVuSans-30" x="127.246094"/>
      </g>
     </g>
    </g>
    <g id="xtick_3">
     <g id="line2d_3">
      <g>
       <use xlink:href="#mde5bbe6303" x="214.592188" y="266.112" style="stroke: #000000; stroke-width: 0.8"/>
      </g>
     </g>
     <g id="text_3">
      <!-- 1000 -->
      <g transform="translate(201.867188 280.710438) scale(0.1 -0.1)">
       <defs>
        <path id="DejaVuSans-31" d="M 794 531 
L 1825 531 
L 1825 4091 
L 703 3866 
L 703 4441 
L 1819 4666 
L 2450 4666 
L 2450 531 
L 3481 531 
L 3481 0 
L 794 0 
L 794 531 
z
" transform="scale(0.015625)"/>
       </defs>
       <use xlink:href="#DejaVuSans-31"/>
       <use xlink:href="#DejaVuSans-30" x="63.623047"/>
       <use xlink:href="#DejaVuSans-30" x="127.246094"/>
       <use xlink:href="#DejaVuSans-30" x="190.869141"/>
      </g>
     </g>
    </g>
    <g id="xtick_4">
     <g id="line2d_4">
      <g>
       <use xlink:href="#mde5bbe6303" x="284.342188" y="266.112" style="stroke: #000000; stroke-width: 0.8"/>
      </g>
     </g>
     <g id="text_4">
      <!-- 1500 -->
      <g transform="translate(271.617188 280.710438) scale(0.1 -0.1)">
       <use xlink:href="#DejaVuSans-31"/>
       <use xlink:href="#DejaVuSans-35" x="63.623047"/>
       <use xlink:href="#DejaVuSans-30" x="127.246094"/>
       <use xlink:href="#DejaVuSans-30" x="190.869141"/>
      </g>
     </g>
    </g>
    <g id="xtick_5">
     <g id="line2d_5">
      <g>
       <use xlink:href="#mde5bbe6303" x="354.092188" y="266.112" style="stroke: #000000; stroke-width: 0.8"/>
      </g>
     </g>
     <g id="text_5">
      <!-- 2000 -->
      <g transform="translate(341.367188 280.710438) scale(0.1 -0.1)">
       <defs>
        <path id="DejaVuSans-32" d="M 1228 531 
L 3431 531 
L 3431 0 
L 469 0 
L 469 531 
Q 828 903 1448 1529 
Q 2069 2156 2228 2338 
Q 2531 2678 2651 2914 
Q 2772 3150 2772 3378 
Q 2772 3750 2511 3984 
Q 2250 4219 1831 4219 
Q 1534 4219 1204 4116 
Q 875 4013 500 3803 
L 500 4441 
Q 881 4594 1212 4672 
Q 1544 4750 1819 4750 
Q 2544 4750 2975 4387 
Q 3406 4025 3406 3419 
Q 3406 3131 3298 2873 
Q 3191 2616 2906 2266 
Q 2828 2175 2409 1742 
Q 1991 1309 1228 531 
z
" transform="scale(0.015625)"/>
       </defs>
       <use xlink:href="#DejaVuSans-32"/>
       <use xlink:href="#DejaVuSans-30" x="63.623047"/>
       <use xlink:href="#DejaVuSans-30" x="127.246094"/>
       <use xlink:href="#DejaVuSans-30" x="190.869141"/>
      </g>
     </g>
    </g>
    <g id="xtick_6">
     <g id="line2d_6">
      <g>
       <use xlink:href="#mde5bbe6303" x="423.842188" y="266.112" style="stroke: #000000; stroke-width: 0.8"/>
      </g>
     </g>
     <g id="text_6">
      <!-- 2500 -->
      <g transform="translate(411.117188 280.710438) scale(0.1 -0.1)">
       <use xlink:href="#DejaVuSans-32"/>
       <use xlink:href="#DejaVuSans-35" x="63.623047"/>
       <use xlink:href="#DejaVuSans-30" x="127.246094"/>
       <use xlink:href="#DejaVuSans-30" x="190.869141"/>
      </g>
     </g>
    </g>
    <g id="xtick_7">
     <g id="line2d_7">
      <g>
       <use xlink:href="#mde5bbe6303" x="493.592188" y="266.112" style="stroke: #000000; stroke-width: 0.8"/>
      </g>
     </g>
     <g id="text_7">
      <!-- 3000 -->
      <g transform="translate(480.867188 280.710438) scale(0.1 -0.1)">
       <defs>
        <path id="DejaVuSans-33" d="M 2597 2516 
Q 3050 2419 3304 2112 
Q 3559 1806 3559 1356 
Q 3559 666 3084 287 
Q 2609 -91 1734 -91 
Q 1441 -91 1130 -33 
Q 819 25 488 141 
L 488 750 
Q 750 597 1062 519 
Q 1375 441 1716 441 
Q 2309 441 2620 675 
Q 2931 909 2931 1356 
Q 2931 1769 2642 2001 
Q 2353 2234 1838 2234 
L 1294 2234 
L 1294 2753 
L 1863 2753 
Q 2328 2753 2575 2939 
Q 2822 3125 2822 3475 
Q 2822 3834 2567 4026 
Q 2313 4219 1838 4219 
Q 1578 4219 1281 4162 
Q 984 4106 628 3988 
L 628 4550 
Q 988 4650 1302 4700 
Q 1616 4750 1894 4750 
Q 2613 4750 3031 4423 
Q 3450 4097 3450 3541 
Q 3450 3153 3228 2886 
Q 3006 2619 2597 2516 
z
" transform="scale(0.015625)"/>
       </defs>
       <use xlink:href="#DejaVuSans-33"/>
       <use xlink:href="#DejaVuSans-30" x="63.623047"/>
       <use xlink:href="#DejaVuSans-30" x="127.246094"/>
       <use xlink:href="#DejaVuSans-30" x="190.869141"/>
      </g>
     </g>
    </g>
    <g id="xtick_8">
     <g id="line2d_8">
      <g>
       <use xlink:href="#mde5bbe6303" x="563.342188" y="266.112" style="stroke: #000000; stroke-width: 0.8"/>
      </g>
     </g>
     <g id="text_8">
      <!-- 3500 -->
      <g transform="translate(550.617188 280.710438) scale(0.1 -0.1)">
       <use xlink:href="#DejaVuSans-33"/>
       <use xlink:href="#DejaVuSans-35" x="63.623047"/>
       <use xlink:href="#DejaVuSans-30" x="127.246094"/>
       <use xlink:href="#DejaVuSans-30" x="190.869141"/>
      </g>
     </g>
    </g>
    <g id="xtick_9">
     <g id="line2d_9">
      <g>
       <use xlink:href="#mde5bbe6303" x="633.092188" y="266.112" style="stroke: #000000; stroke-width: 0.8"/>
      </g>
     </g>
     <g id="text_9">
      <!-- 4000 -->
      <g transform="translate(620.367188 280.710438) scale(0.1 -0.1)">
       <defs>
        <path id="DejaVuSans-34" d="M 2419 4116 
L 825 1625 
L 2419 1625 
L 2419 4116 
z
M 2253 4666 
L 3047 4666 
L 3047 1625 
L 3713 1625 
L 3713 1100 
L 3047 1100 
L 3047 0 
L 2419 0 
L 2419 1100 
L 313 1100 
L 313 1709 
L 2253 4666 
z
" transform="scale(0.015625)"/>
       </defs>
       <use xlink:href="#DejaVuSans-34"/>
       <use xlink:href="#DejaVuSans-30" x="63.623047"/>
       <use xlink:href="#DejaVuSans-30" x="127.246094"/>
       <use xlink:href="#DejaVuSans-30" x="190.869141"/>
      </g>
     </g>
    </g>
   </g>
   <g id="matplotlib.axis_2">
    <g id="ytick_1">
     <g id="line2d_10">
      <defs>
       <path id="m733f74f0ea" d="M 0 0 
L -3.5 0 
" style="stroke: #000000; stroke-width: 0.8"/>
      </defs>
      <g>
       <use xlink:href="#m733f74f0ea" x="47.192188" y="242.313541" style="stroke: #000000; stroke-width: 0.8"/>
      </g>
     </g>
     <g id="text_10">
      <!-- −20000 -->
      <g transform="translate(0 246.11276) scale(0.1 -0.1)">
       <defs>
        <path id="DejaVuSans-2212" d="M 678 2272 
L 4684 2272 
L 4684 1741 
L 678 1741 
L 678 2272 
z
" transform="scale(0.015625)"/>
       </defs>
       <use xlink:href="#DejaVuSans-2212"/>
       <use xlink:href="#DejaVuSans-32" x="83.789062"/>
       <use xlink:href="#DejaVuSans-30" x="147.412109"/>
       <use xlink:href="#DejaVuSans-30" x="211.035156"/>
       <use xlink:href="#DejaVuSans-30" x="274.658203"/>
       <use xlink:href="#DejaVuSans-30" x="338.28125"/>
      </g>
     </g>
    </g>
    <g id="ytick_2">
     <g id="line2d_11">
      <g>
       <use xlink:href="#m733f74f0ea" x="47.192188" y="194.912321" style="stroke: #000000; stroke-width: 0.8"/>
      </g>
     </g>
     <g id="text_11">
      <!-- −10000 -->
      <g transform="translate(0 198.71154) scale(0.1 -0.1)">
       <use xlink:href="#DejaVuSans-2212"/>
       <use xlink:href="#DejaVuSans-31" x="83.789062"/>
       <use xlink:href="#DejaVuSans-30" x="147.412109"/>
       <use xlink:href="#DejaVuSans-30" x="211.035156"/>
       <use xlink:href="#DejaVuSans-30" x="274.658203"/>
       <use xlink:href="#DejaVuSans-30" x="338.28125"/>
      </g>
     </g>
    </g>
    <g id="ytick_3">
     <g id="line2d_12">
      <g>
       <use xlink:href="#m733f74f0ea" x="47.192188" y="147.511101" style="stroke: #000000; stroke-width: 0.8"/>
      </g>
     </g>
     <g id="text_12">
      <!-- 0 -->
      <g transform="translate(33.829688 151.31032) scale(0.1 -0.1)">
       <use xlink:href="#DejaVuSans-30"/>
      </g>
     </g>
    </g>
    <g id="ytick_4">
     <g id="line2d_13">
      <g>
       <use xlink:href="#m733f74f0ea" x="47.192188" y="100.109881" style="stroke: #000000; stroke-width: 0.8"/>
      </g>
     </g>
     <g id="text_13">
      <!-- 10000 -->
      <g transform="translate(8.379688 103.9091) scale(0.1 -0.1)">
       <use xlink:href="#DejaVuSans-31"/>
       <use xlink:href="#DejaVuSans-30" x="63.623047"/>
       <use xlink:href="#DejaVuSans-30" x="127.246094"/>
       <use xlink:href="#DejaVuSans-30" x="190.869141"/>
       <use xlink:href="#DejaVuSans-30" x="254.492188"/>
      </g>
     </g>
    </g>
    <g id="ytick_5">
     <g id="line2d_14">
      <g>
       <use xlink:href="#m733f74f0ea" x="47.192188" y="52.708661" style="stroke: #000000; stroke-width: 0.8"/>
      </g>
     </g>
     <g id="text_14">
      <!-- 20000 -->
      <g transform="translate(8.379688 56.50788) scale(0.1 -0.1)">
       <use xlink:href="#DejaVuSans-32"/>
       <use xlink:href="#DejaVuSans-30" x="63.623047"/>
       <use xlink:href="#DejaVuSans-30" x="127.246094"/>
       <use xlink:href="#DejaVuSans-30" x="190.869141"/>
       <use xlink:href="#DejaVuSans-30" x="254.492188"/>
      </g>
     </g>
    </g>
    <g id="ytick_6">
     <g id="line2d_15">
      <g>
       <use xlink:href="#m733f74f0ea" x="47.192188" y="5.307441" style="stroke: #000000; stroke-width: 0.8"/>
      </g>
     </g>
     <g id="text_15">
      <!-- 30000 -->
      <g transform="translate(8.379688 9.10666) scale(0.1 -0.1)">
       <use xlink:href="#DejaVuSans-33"/>
       <use xlink:href="#DejaVuSans-30" x="63.623047"/>
       <use xlink:href="#DejaVuSans-30" x="127.246094"/>
       <use xlink:href="#DejaVuSans-30" x="190.869141"/>
       <use xlink:href="#DejaVuSans-30" x="254.492188"/>
      </g>
     </g>
    </g>
   </g>
   <g id="line2d_16">
    <path d="M 75.092188 147.555231 
L 75.374148 147.468502 
L 75.656109 147.55233 
L 75.938069 147.471105 
L 76.22003 147.54999 
L 76.50199 147.473212 
L 76.783951 147.548091 
L 77.065912 147.474923 
L 77.347872 147.546549 
L 77.629833 147.47631 
L 77.911793 147.545305 
L 78.193754 147.477422 
L 78.475715 147.544316 
L 78.757675 147.478296 
L 79.039636 147.54355 
L 79.321596 147.478958 
L 79.603557 147.542989 
L 79.885517 147.479423 
L 80.167478 147.542619 
L 80.449439 147.479699 
L 80.731399 147.542435 
L 81.01336 147.47979 
L 81.29532 147.542438 
L 81.577281 147.47969 
L 81.859242 147.542639 
L 82.141202 147.479385 
L 82.423163 147.543053 
L 82.705123 147.478854 
L 82.987084 147.54371 
L 83.269044 147.478062 
L 83.551005 147.54465 
L 83.832966 147.476957 
L 84.114926 147.545939 
L 84.396887 147.475462 
L 84.678847 147.547668 
L 84.960808 147.473463 
L 85.242769 147.549981 
L 85.524729 147.470781 
L 85.80669 147.553102 
L 86.08865 147.467129 
L 86.370611 147.557405 
L 86.652572 147.462016 
L 86.934532 147.563547 
L 87.216493 147.454537 
L 87.498453 147.572806 
L 87.780414 147.442836 
L 88.062374 147.587981 
L 88.344335 147.422501 
L 88.626296 147.616362 
L 88.908256 147.38104 
L 89.190217 147.677305 
L 89.472177 147.369875 
L 89.754138 156.73787 
L 90.036099 160.09796 
L 90.318059 158.857344 
L 90.88198 155.34116 
L 91.163941 155.665522 
L 91.727862 159.026844 
L 92.009823 159.315102 
L 92.291783 160.242056 
L 92.573744 163.87693 
L 92.855704 169.053945 
L 93.137665 171.948431 
L 93.701586 172.811196 
L 94.547468 178.594986 
L 94.829429 179.92136 
L 95.39335 184.493105 
L 95.957271 189.954848 
L 96.239231 190.130622 
L 96.521192 187.259251 
L 96.803153 181.59975 
L 97.367074 161.415877 
L 99.340798 61.354461 
L 99.622758 57.513854 
L 99.904719 56.101213 
L 100.18668 56.418534 
L 100.46864 61.501846 
L 101.596483 108.429697 
L 102.442364 162.239957 
L 102.724325 171.357236 
L 103.006286 175.070006 
L 103.288246 176.024458 
L 103.570207 175.918666 
L 103.852167 175.50029 
L 104.134128 174.581249 
L 105.26197 166.887997 
L 106.107852 163.681863 
L 106.389813 163.522802 
L 106.671773 162.473898 
L 107.517655 152.968749 
L 107.799615 153.22051 
L 108.081576 154.65904 
L 108.645497 154.980015 
L 108.927458 157.543449 
L 109.209418 161.57999 
L 109.491379 163.809221 
L 109.77334 164.033863 
L 110.0553 164.437251 
L 110.337261 165.204887 
L 110.619221 165.508819 
L 110.901182 166.449204 
L 111.465103 171.537693 
L 112.592945 176.832329 
L 112.874906 179.296592 
L 113.438827 186.251943 
L 113.720788 188.231101 
L 114.002748 188.652162 
L 114.284709 186.702254 
L 114.56667 180.888678 
L 115.130591 160.381711 
L 115.694512 131.668619 
L 116.540394 85.714271 
L 117.104315 68.217212 
L 117.386275 63.645536 
L 117.668236 61.291401 
L 117.950197 60.159906 
L 118.232157 61.087713 
L 118.514118 65.793665 
L 119.078039 84.034097 
L 119.64196 113.139829 
L 120.487842 171.034253 
L 120.769802 178.614019 
L 121.051763 180.401511 
L 121.333724 180.307868 
L 121.615684 180.359851 
L 121.897645 179.858437 
L 122.179605 177.707778 
L 122.743527 171.492967 
L 123.307448 167.728955 
L 124.153329 164.070984 
L 124.43529 163.525372 
L 124.717251 163.580451 
L 124.999211 163.158284 
L 125.281172 160.916543 
L 125.845093 154.56761 
L 126.127054 154.744387 
L 126.409014 156.197632 
L 126.690975 156.02878 
L 126.972935 154.783025 
L 127.254896 155.988723 
L 127.818817 163.720532 
L 128.100778 163.970662 
L 128.382738 163.438017 
L 128.664699 164.825473 
L 129.22862 168.958226 
L 130.356462 172.595759 
L 131.766265 182.792396 
L 132.048226 182.709884 
L 132.330186 181.121208 
L 132.612147 178.829645 
L 132.894108 173.130176 
L 133.458029 148.717658 
L 134.02195 120.331872 
L 134.585871 85.433892 
L 134.867832 75.454469 
L 135.431753 63.960542 
L 135.713714 60.899506 
L 135.995674 62.631261 
L 136.559595 72.845847 
L 136.841556 81.255011 
L 137.405477 110.292244 
L 138.251359 159.613335 
L 138.533319 168.18793 
L 138.81528 170.958766 
L 139.379201 173.378006 
L 139.661162 172.21149 
L 140.225083 164.515652 
L 141.352925 158.872083 
L 141.634886 158.803211 
L 142.198807 161.495263 
L 142.480768 161.879173 
L 143.044689 160.122911 
L 143.60861 161.141013 
L 143.890571 160.512806 
L 144.172531 160.664519 
L 144.736452 164.072011 
L 145.300373 163.227208 
L 146.146255 166.147726 
L 146.428216 166.633332 
L 146.710176 167.56697 
L 146.992137 169.129572 
L 147.556058 173.011155 
L 147.838019 171.85831 
L 148.119979 169.272733 
L 148.40194 169.452396 
L 148.965861 176.971552 
L 149.247822 177.494499 
L 149.529782 176.637097 
L 149.811743 176.181082 
L 150.093703 174.111137 
L 150.375664 167.250079 
L 150.939585 139.414148 
L 151.785467 90.682328 
L 152.349388 71.164099 
L 152.631349 65.335291 
L 152.913309 62.009345 
L 153.19527 61.541921 
L 153.47723 64.0627 
L 154.041152 75.570898 
L 154.323112 84.082558 
L 154.605073 96.458767 
L 155.732915 163.197936 
L 156.014876 166.567403 
L 156.578797 164.937918 
L 156.860757 165.186682 
L 157.142718 165.229713 
L 157.424679 163.688333 
L 157.9886 158.94789 
L 158.552521 154.702633 
L 158.834482 152.288791 
L 159.116442 150.914748 
L 159.680363 149.235185 
L 159.962324 150.044374 
L 160.808206 163.75165 
L 161.372127 165.084231 
L 161.936048 168.023961 
L 162.218009 168.20906 
L 162.499969 169.327849 
L 163.06389 173.733522 
L 163.345851 175.195603 
L 164.191733 181.378418 
L 164.755654 177.791936 
L 165.037614 178.705791 
L 165.601536 184.813312 
L 166.165457 186.978186 
L 166.447417 187.468612 
L 166.729378 186.03698 
L 167.011339 181.504923 
L 167.293299 174.109777 
L 167.85722 149.487039 
L 168.985063 83.158539 
L 169.548984 58.154499 
L 169.830944 51.399061 
L 170.112905 47.762183 
L 170.394866 45.985741 
L 170.676826 47.063312 
L 170.958787 51.817003 
L 171.522708 66.010862 
L 171.804669 76.053338 
L 172.36859 111.22033 
L 172.932511 142.376235 
L 173.214471 147.32123 
L 173.778393 149.46162 
L 174.060353 151.297945 
L 174.342314 151.600695 
L 174.906235 147.991493 
L 175.188196 148.332705 
L 175.470156 148.960293 
L 175.752117 146.538865 
L 176.316038 136.904433 
L 176.597999 137.736383 
L 177.725841 155.607408 
L 178.007801 162.364876 
L 178.289762 166.411885 
L 178.853683 168.457895 
L 179.135644 170.038448 
L 179.417604 169.891801 
L 179.699565 168.273666 
L 179.981526 167.920085 
L 180.263486 168.960935 
L 180.545447 168.737813 
L 181.109368 165.152109 
L 181.391328 166.704621 
L 181.95525 173.283973 
L 182.23721 174.851103 
L 182.519171 177.81314 
L 183.365053 196.649113 
L 183.647013 200.096065 
L 184.210934 210.594775 
L 184.492895 211.974017 
L 184.774856 207.094473 
L 185.338777 183.618645 
L 186.184658 127.366407 
L 186.74858 91.705501 
L 187.312501 68.634573 
L 187.594461 59.800713 
L 187.876422 54.859333 
L 188.158383 53.682277 
L 188.440343 54.2717 
L 188.722304 57.104965 
L 189.004264 64.152519 
L 189.568185 84.438063 
L 189.850146 98.045756 
L 190.977988 180.173122 
L 191.259949 183.681723 
L 191.54191 183.836567 
L 191.82387 182.532378 
L 192.669752 174.923397 
L 193.797594 156.931499 
L 194.079555 156.566119 
L 194.643476 152.064634 
L 194.925437 152.804148 
L 195.489358 160.392075 
L 195.771318 160.51777 
L 196.053279 159.847551 
L 196.33524 161.371309 
L 196.6172 163.661691 
L 196.899161 163.38098 
L 197.463082 158.814834 
L 197.745042 159.694782 
L 198.027003 161.503653 
L 198.590924 162.501285 
L 198.872885 166.383066 
L 199.436806 182.261614 
L 199.718767 186.48808 
L 201.12857 193.041705 
L 202.256412 203.576942 
L 202.538372 203.675184 
L 202.820333 199.566009 
L 203.384254 180.635129 
L 203.948175 147.274814 
L 204.794057 85.641309 
L 205.357978 55.742091 
L 205.639939 46.62891 
L 205.921899 42.192985 
L 206.20386 40.875135 
L 206.485821 41.625645 
L 206.767781 44.869745 
L 207.049742 50.957453 
L 207.613663 71.394713 
L 208.177584 110.720716 
L 208.741505 152.256607 
L 209.023466 161.406116 
L 209.305427 162.212089 
L 209.869348 157.222961 
L 210.151308 158.136354 
L 210.433269 159.788038 
L 210.715229 159.885916 
L 212.125032 154.68322 
L 212.406993 154.542236 
L 212.688954 154.061093 
L 212.970914 152.414287 
L 213.252875 151.767359 
L 213.534835 154.603451 
L 213.816796 159.27119 
L 214.098756 161.800659 
L 214.380717 161.768913 
L 214.662678 162.134914 
L 214.944638 163.701612 
L 215.226599 164.603538 
L 215.508559 164.951104 
L 215.79052 166.767236 
L 216.918362 180.498286 
L 217.200323 184.586407 
L 217.764244 189.154631 
L 218.610126 199.565154 
L 219.174047 205.436529 
L 219.456008 205.725731 
L 219.737968 201.100744 
L 220.301889 183.758913 
L 220.58385 171.283061 
L 221.147771 131.904701 
L 221.711692 92.479553 
L 222.557574 52.275025 
L 222.839535 43.37661 
L 223.121495 38.410776 
L 223.403456 38.141526 
L 223.685416 41.216101 
L 224.249338 51.399298 
L 224.531298 60.219811 
L 225.095219 90.278269 
L 226.223062 175.232879 
L 226.505022 178.190332 
L 226.786983 178.224505 
L 227.068943 178.958528 
L 227.350904 179.345718 
L 227.632865 177.305614 
L 228.478746 162.354735 
L 229.606589 154.73159 
L 229.888549 156.164038 
L 230.17051 159.26751 
L 230.45247 160.893781 
L 230.734431 161.198664 
L 231.016392 162.310776 
L 231.862273 169.590393 
L 232.426195 174.648558 
L 232.708155 176.755492 
L 232.990116 181.010465 
L 233.554037 191.676348 
L 234.117958 196.832966 
L 235.527761 215.357569 
L 235.809722 217.427421 
L 236.091682 217.790824 
L 236.373643 216.645534 
L 236.655603 214.999786 
L 236.937564 212.00884 
L 237.219525 204.430671 
L 237.783446 173.65077 
L 238.347367 133.767578 
L 239.193249 63.111482 
L 239.75717 40.057637 
L 240.321091 29.999385 
L 240.603052 28.559749 
L 240.885012 30.508558 
L 241.730894 38.839324 
L 242.012855 48.6802 
L 242.576776 88.368351 
L 243.422657 158.299155 
L 243.704618 166.55265 
L 243.986579 166.954698 
L 244.268539 165.699476 
L 244.5505 165.030613 
L 245.114421 162.836141 
L 245.396382 162.773524 
L 245.960303 164.324418 
L 246.242263 166.100097 
L 246.806184 170.806516 
L 247.088145 171.168197 
L 247.370106 171.171035 
L 247.934027 172.324848 
L 248.497948 171.104129 
L 248.779909 171.486874 
L 249.061869 173.318118 
L 250.189712 185.017426 
L 250.471672 185.453551 
L 250.753633 185.513194 
L 251.035593 186.885253 
L 251.599514 192.046702 
L 252.163436 196.09559 
L 253.009317 206.918794 
L 253.573239 214.857126 
L 253.855199 216.55459 
L 254.13716 216.4253 
L 254.41912 214.577177 
L 254.701081 208.72857 
L 254.983041 197.063257 
L 255.546963 160.286723 
L 256.674805 67.762477 
L 257.238726 43.843725 
L 257.520687 38.742885 
L 258.084608 36.083405 
L 258.366569 33.573887 
L 258.648529 32.29483 
L 258.93049 33.789169 
L 259.21245 38.007879 
L 259.494411 45.359506 
L 259.776371 56.892171 
L 260.340293 96.695558 
L 260.904214 146.750095 
L 261.186174 161.733794 
L 261.468135 167.868193 
L 261.750096 169.1196 
L 262.032056 169.153754 
L 262.595977 169.424563 
L 262.877938 168.885205 
L 263.441859 166.722956 
L 264.287741 160.981996 
L 264.569701 160.907668 
L 264.851662 160.405245 
L 265.415583 155.824897 
L 265.697544 156.365611 
L 266.543425 163.644707 
L 267.671268 184.48165 
L 268.235189 187.987519 
L 268.51715 190.351327 
L 269.926953 207.7995 
L 270.490874 216.570229 
L 271.054795 223.765775 
L 271.336755 228.607557 
L 271.618716 231.470329 
L 271.900677 231.195229 
L 272.182637 229.203206 
L 272.464598 224.514605 
L 272.746558 212.794999 
L 273.31048 168.12479 
L 274.720282 45.118156 
L 275.002243 38.691239 
L 275.284204 37.398813 
L 275.566164 35.378991 
L 276.130085 26.907535 
L 276.412046 25.861609 
L 276.694007 26.86549 
L 276.975967 28.95427 
L 277.257928 34.737269 
L 277.539888 47.230657 
L 278.10381 88.86676 
L 278.949691 159.329724 
L 279.231652 166.01807 
L 279.795573 167.278345 
L 280.077534 167.576172 
L 280.359494 167.132868 
L 280.641455 167.83233 
L 280.923415 169.867193 
L 281.205376 170.772427 
L 281.487337 170.305566 
L 281.769297 170.837534 
L 282.333218 174.54309 
L 282.615179 174.915366 
L 282.897139 173.964781 
L 283.461061 170.38254 
L 283.743021 171.391522 
L 284.306942 177.254144 
L 284.870864 181.064924 
L 285.434785 187.820536 
L 286.844588 198.429041 
L 287.126548 200.672228 
L 287.690469 208.189782 
L 288.254391 216.572374 
L 288.818312 221.796346 
L 289.100272 222.478535 
L 289.382233 221.720395 
L 289.664194 216.664661 
L 289.946154 202.764857 
L 290.792036 129.556831 
L 291.637918 51.233274 
L 291.919878 39.656996 
L 292.76576 18.491196 
L 293.047721 16.677286 
L 293.611642 20.727337 
L 293.893602 24.693624 
L 294.175563 33.332465 
L 294.739484 61.957818 
L 295.303405 112.064569 
L 295.867326 155.162087 
L 296.149287 163.39758 
L 296.431248 166.733176 
L 296.713208 167.222476 
L 296.995169 167.014296 
L 297.277129 169.31027 
L 297.841051 176.978826 
L 298.123011 176.846596 
L 298.404972 175.71051 
L 298.968893 174.242207 
L 299.250853 173.376102 
L 299.814775 173.137309 
L 300.378696 171.686803 
L 300.660656 173.280446 
L 301.224578 180.000076 
L 301.788499 183.376591 
L 302.35242 190.110785 
L 303.480262 204.801994 
L 303.762223 204.780252 
L 304.044183 205.462971 
L 304.326144 211.972991 
L 304.890065 231.912545 
L 305.172026 235.578095 
L 305.453986 236.467194 
L 305.735947 235.353574 
L 306.017908 227.975211 
L 306.299868 211.11153 
L 307.14575 132.138385 
L 307.709671 75.910103 
L 308.273592 45.028418 
L 309.119474 15.844768 
L 309.401435 12.096 
L 309.683395 14.748251 
L 309.965356 18.772959 
L 310.247316 20.726689 
L 310.529277 24.64104 
L 310.811238 35.768905 
L 311.657119 89.625515 
L 312.503001 171.464617 
L 312.784962 178.420432 
L 313.348883 182.435691 
L 313.630843 181.145315 
L 314.194765 171.400604 
L 314.476725 170.065138 
L 314.758686 169.777067 
L 315.040646 168.045902 
L 315.604567 163.111847 
L 315.886528 164.375485 
L 316.450449 172.06132 
L 317.01437 173.698088 
L 317.578292 178.475111 
L 317.860252 179.504953 
L 318.142213 181.989843 
L 318.706134 193.42833 
L 319.270055 199.961669 
L 319.833976 208.747923 
L 320.115937 209.277185 
L 320.397897 210.239181 
L 321.8077 230.495291 
L 322.089661 233.305404 
L 322.371622 233.843319 
L 322.653582 232.100504 
L 322.935543 226.407572 
L 323.217503 214.025954 
L 323.781424 167.3517 
L 324.627306 71.539473 
L 325.191227 37.452991 
L 325.755149 20.435933 
L 326.037109 16.860337 
L 326.31907 15.845978 
L 326.60103 16.255147 
L 326.882991 18.217095 
L 327.446912 25.551765 
L 327.728873 30.527259 
L 328.010833 39.766839 
L 328.574754 75.460913 
L 329.702597 165.788545 
L 329.984557 176.624576 
L 330.266518 177.396546 
L 330.830439 168.644904 
L 331.1124 168.702747 
L 331.39436 170.707356 
L 331.676321 171.277474 
L 331.958281 170.760396 
L 332.240242 171.821131 
L 332.804163 175.923797 
L 333.086124 176.546012 
L 333.650045 178.394269 
L 333.932006 178.211896 
L 334.213966 178.70597 
L 334.777887 183.302188 
L 335.341809 185.34683 
L 335.90573 189.494433 
L 336.18769 190.225681 
L 336.469651 191.948813 
L 337.879454 206.542038 
L 338.443375 212.060914 
L 339.853178 234.903332 
L 340.135138 236.93969 
L 340.417099 233.045877 
L 340.69906 221.746642 
L 341.262981 182.849148 
L 341.826902 117.262922 
L 342.390823 55.091057 
L 342.672784 41.133898 
L 343.236705 25.960941 
L 343.518666 20.997137 
L 343.800626 19.208303 
L 344.082587 18.783765 
L 344.364547 19.058788 
L 344.646508 21.764705 
L 345.49239 37.864194 
L 345.77435 49.808693 
L 346.902193 126.924646 
L 347.466114 168.682425 
L 347.748074 178.717941 
L 348.030035 180.242704 
L 348.311995 178.846463 
L 348.593956 178.848412 
L 349.157877 181.492225 
L 349.439838 180.667945 
L 349.721798 179.039367 
L 350.003759 178.420469 
L 350.28572 178.375945 
L 350.56768 176.443102 
L 351.131601 167.970767 
L 351.413562 167.217147 
L 351.977483 170.261138 
L 352.259444 170.453427 
L 352.541404 171.301614 
L 353.387286 177.993595 
L 353.951207 181.394148 
L 354.515128 188.027384 
L 355.924931 210.199429 
L 356.488852 214.198631 
L 356.770813 220.079246 
L 357.334734 234.20941 
L 357.616695 235.615314 
L 357.898655 235.651885 
L 358.180616 232.685706 
L 358.462577 222.00795 
L 359.026498 179.888173 
L 360.436301 35.17601 
L 360.718261 24.165125 
L 361.000222 17.499101 
L 361.282182 14.826262 
L 361.564143 14.182358 
L 361.846104 14.817958 
L 362.128064 17.652033 
L 362.973946 31.883544 
L 363.537867 56.791824 
L 364.101788 91.843814 
L 364.94767 156.954183 
L 365.229631 167.914073 
L 365.511591 170.791653 
L 365.793552 170.1483 
L 366.075512 170.080333 
L 366.639434 171.983039 
L 366.921394 174.013582 
L 367.485315 181.769906 
L 367.767276 182.369004 
L 368.049237 180.847188 
L 368.331197 180.639037 
L 368.613158 182.160069 
L 368.895118 182.459661 
L 369.459039 176.89288 
L 369.741 176.042311 
L 370.022961 177.753956 
L 370.868842 185.203819 
L 371.432764 195.790254 
L 371.714724 200.882769 
L 371.996685 203.403893 
L 372.278645 204.707669 
L 372.560606 207.102105 
L 373.124527 213.53233 
L 373.688448 216.277497 
L 373.970409 219.823874 
L 374.53433 228.759389 
L 374.816291 228.435958 
L 375.098251 224.067507 
L 375.380212 215.986138 
L 375.662172 201.395964 
L 376.226094 142.056993 
L 376.790015 73.631303 
L 377.353936 31.940488 
L 377.635896 19.909765 
L 377.917857 13.499945 
L 378.199818 12.122046 
L 378.481778 13.561457 
L 379.045699 18.760598 
L 379.609621 28.829632 
L 380.173542 42.800003 
L 380.737463 67.808418 
L 381.583345 122.553618 
L 382.429226 174.443965 
L 382.711187 182.881393 
L 382.993148 185.097782 
L 383.275108 184.616073 
L 383.839029 184.70491 
L 384.12099 184.030817 
L 384.402951 183.87937 
L 384.684911 184.860801 
L 384.966872 185.186099 
L 386.094714 180.440639 
L 386.376675 180.325065 
L 387.504517 185.959823 
L 388.068438 191.73855 
L 388.632359 200.097608 
L 389.19628 209.346157 
L 389.760202 215.701574 
L 390.324123 227.86167 
L 390.888044 239.573742 
L 391.170005 242.44969 
L 391.451965 243.239345 
L 391.733926 238.942304 
L 392.015886 226.138277 
L 392.579808 174.92383 
L 393.425689 69.871885 
L 393.70765 48.684395 
L 393.98961 38.273636 
L 394.553532 30.924264 
L 394.835492 28.841886 
L 395.117453 29.047708 
L 395.399413 31.210559 
L 395.681374 32.318332 
L 395.963335 31.209083 
L 396.245295 31.0323 
L 396.527256 34.503272 
L 397.091177 47.706194 
L 397.655098 73.261712 
L 398.50098 120.845135 
L 399.064901 158.276748 
L 399.628822 176.342545 
L 399.910783 181.24557 
L 400.192743 183.894704 
L 400.474704 183.797286 
L 401.320586 177.77607 
L 401.602546 178.383539 
L 401.884507 179.829311 
L 402.166467 180.190417 
L 402.448428 180.07824 
L 402.730389 181.165875 
L 403.29431 184.18117 
L 403.858231 186.907372 
L 404.140192 186.143418 
L 404.422152 184.430973 
L 404.704113 186.05322 
L 405.268034 196.458759 
L 405.831955 202.151133 
L 406.395876 211.722102 
L 406.959797 215.657449 
L 407.805679 226.108536 
L 408.651561 244.143684 
L 408.933522 243.629172 
L 409.215482 237.154492 
L 409.497443 224.350022 
L 409.779403 202.680263 
L 410.343324 131.349791 
L 410.907246 63.855615 
L 411.189206 45.600165 
L 411.471167 36.299309 
L 412.317049 23.512299 
L 412.599009 20.057409 
L 412.88097 19.481267 
L 413.16293 22.041833 
L 414.008812 33.147077 
L 414.290773 40.636254 
L 415.136654 75.374562 
L 415.700576 107.133469 
L 416.264497 139.457736 
L 417.110379 174.062094 
L 417.392339 180.745857 
L 417.6743 183.747617 
L 417.95626 184.167478 
L 418.238221 183.570588 
L 418.520181 183.588558 
L 418.802142 184.283993 
L 419.084103 184.149808 
L 419.366063 183.076475 
L 419.648024 182.761351 
L 419.929984 183.194073 
L 420.211945 182.633148 
L 420.493906 181.737179 
L 420.775866 182.859502 
L 421.057827 185.125746 
L 421.339787 185.783287 
L 421.621748 185.639223 
L 422.185669 188.855869 
L 422.46763 187.026813 
L 422.74959 183.337825 
L 423.031551 182.765747 
L 424.441354 201.42338 
L 425.287236 212.68176 
L 426.415078 235.186574 
L 426.697038 239.550697 
L 426.978999 239.892693 
L 427.26096 234.29182 
L 427.54292 222.642694 
L 427.824881 202.948339 
L 428.388802 132.750804 
L 428.952723 67.706315 
L 429.516644 38.36949 
L 429.798605 31.214586 
L 430.080565 28.794733 
L 430.362526 28.2816 
L 430.926447 24.967632 
L 431.208408 25.722098 
L 431.772329 31.785339 
L 432.05429 36.004198 
L 432.618211 51.039482 
L 433.182132 75.196561 
L 434.028014 114.443453 
L 435.155856 158.082464 
L 435.719777 168.421412 
L 436.001738 170.120895 
L 436.283698 169.586999 
L 436.565659 169.906319 
L 436.84762 173.033012 
L 437.411541 182.094625 
L 437.693501 184.801267 
L 437.975462 186.1917 
L 438.257422 186.738339 
L 438.539383 186.892844 
L 438.821344 187.356743 
L 439.385265 189.756994 
L 439.949186 190.322352 
L 440.231147 192.342623 
L 440.513107 195.283807 
L 440.795068 196.245302 
L 441.077028 194.709787 
L 441.358989 193.857049 
L 441.64095 196.083277 
L 442.204871 201.956174 
L 442.486831 202.967551 
L 442.768792 205.000114 
L 443.896634 219.749074 
L 444.460555 228.61989 
L 444.742516 231.9446 
L 445.306437 239.730671 
L 445.588398 234.165578 
L 445.870358 217.671252 
L 446.434279 162.343008 
L 447.280161 51.423427 
L 447.562122 32.904238 
L 447.844082 24.488403 
L 448.126043 20.505152 
L 448.408004 18.317266 
L 448.689964 17.645911 
L 448.971925 19.128588 
L 450.381728 39.201764 
L 450.663688 47.751745 
L 451.50957 90.032026 
L 452.637412 146.498324 
L 453.201334 163.142779 
L 453.765255 173.607427 
L 454.047215 175.056141 
L 454.329176 174.390342 
L 454.611136 175.12889 
L 455.175058 181.482002 
L 455.457018 180.809489 
L 455.738979 178.426414 
L 456.020939 177.676951 
L 456.3029 178.255807 
L 456.584861 178.155122 
L 456.866821 177.630445 
L 457.148782 177.491834 
L 457.430742 176.696592 
L 457.712703 175.183051 
L 457.994663 175.627439 
L 458.840545 184.925659 
L 459.122506 187.473009 
L 461.09623 217.029217 
L 461.660151 232.023738 
L 461.942112 239.268128 
L 462.224072 242.817317 
L 462.506033 242.722679 
L 462.787993 238.354569 
L 463.069954 227.233124 
L 463.351915 207.32972 
L 463.915836 142.676736 
L 464.479757 73.05099 
L 464.761718 51.907193 
L 465.043678 40.687592 
L 465.607599 30.903781 
L 465.88956 28.156052 
L 466.17152 27.555888 
L 466.453481 29.808994 
L 467.863284 50.468324 
L 468.427205 68.032236 
L 470.400929 146.861663 
L 471.246811 163.330376 
L 471.528772 163.856757 
L 471.810732 164.925445 
L 472.374653 171.932275 
L 472.656614 173.943261 
L 473.502496 184.999427 
L 473.784456 183.604094 
L 474.066417 183.211323 
L 475.75818 199.479457 
L 476.040141 201.331941 
L 477.449944 214.217341 
L 478.013865 223.134648 
L 478.577786 228.257256 
L 479.423668 239.876262 
L 479.705629 241.781701 
L 479.987589 240.94956 
L 480.26955 232.189957 
L 480.55151 212.051005 
L 481.115432 147.117693 
L 481.679353 76.642076 
L 481.961313 57.034119 
L 482.243274 49.6689 
L 483.089156 38.823751 
L 483.371116 39.595006 
L 483.653077 41.103993 
L 483.935037 41.971464 
L 484.216998 43.464404 
L 484.780919 50.049627 
L 485.34484 61.216338 
L 485.908762 76.677888 
L 487.882486 149.188877 
L 488.164446 153.819549 
L 488.728367 159.333466 
L 489.010328 160.851081 
L 489.292289 160.686233 
L 489.574249 161.061806 
L 489.85621 162.553457 
L 490.13817 162.116265 
L 490.420131 159.185583 
L 490.702091 158.449198 
L 491.266013 165.420133 
L 491.547973 165.758005 
L 491.829934 167.285072 
L 492.675816 184.116547 
L 492.957776 186.786101 
L 493.803658 198.4356 
L 494.367579 200.57004 
L 494.64954 201.600597 
L 494.9315 203.708504 
L 496.059343 216.666989 
L 496.905224 236.8484 
L 497.751106 248.972555 
L 498.033067 247.793729 
L 498.315027 239.963185 
L 498.596988 224.742894 
L 498.878948 199.449376 
L 500.006791 62.920204 
L 500.288751 50.80211 
L 500.570712 45.075592 
L 500.852673 42.319628 
L 501.134633 40.938469 
L 501.416594 40.82691 
L 501.698554 42.133557 
L 502.262476 46.05835 
L 502.544436 49.239586 
L 503.672278 69.621465 
L 504.51816 99.342639 
L 505.082081 115.840923 
L 505.646003 131.958468 
L 507.055805 145.922733 
L 507.619727 149.114409 
L 508.183648 153.382066 
L 508.747569 156.953361 
L 509.31149 162.615079 
L 509.593451 164.448068 
L 509.875411 167.047667 
L 510.439333 176.543081 
L 510.721293 179.103595 
L 511.003254 180.462981 
L 511.285214 183.444232 
L 511.849135 192.189669 
L 512.976978 203.695647 
L 513.258938 205.738651 
L 514.668741 223.588651 
L 515.232662 238.667165 
L 516.078544 251.13512 
L 516.360505 254.016 
L 516.642465 247.635627 
L 516.924426 230.336916 
L 517.488347 172.905333 
L 518.334229 67.745187 
L 518.61619 53.943175 
L 518.89815 50.338414 
L 519.180111 49.931518 
L 519.462071 48.671164 
L 519.744032 46.823484 
L 520.025992 46.452088 
L 520.589914 48.973759 
L 520.871874 48.979312 
L 521.153835 49.419368 
L 521.435795 52.115815 
L 521.717756 57.399338 
L 522.281677 74.753794 
L 523.69148 130.608388 
L 524.537362 145.932305 
L 524.819322 148.099376 
L 525.101283 148.467721 
L 525.383244 148.208011 
L 525.665204 147.583738 
L 526.229125 145.675684 
L 527.075007 143.453321 
L 527.356968 144.416283 
L 527.920889 150.606523 
L 528.48481 159.734935 
L 529.612652 183.260721 
L 531.022455 207.111682 
L 531.586376 217.792236 
L 532.996179 245.25093 
L 533.27814 246.740327 
L 533.842061 244.631443 
L 534.124022 240.04307 
L 534.405982 225.464097 
L 534.969904 166.067395 
L 535.533825 100.620236 
L 535.815785 77.938153 
L 536.097746 64.86657 
L 536.379706 59.227835 
L 537.225588 52.206663 
L 537.507549 49.310425 
L 537.789509 48.610931 
L 538.07147 51.129833 
L 539.199312 72.031565 
L 539.763233 86.942042 
L 541.173036 129.894363 
L 541.736958 138.927539 
L 542.018918 141.280673 
L 542.300879 141.643608 
L 542.582839 142.224974 
L 543.146761 145.588864 
L 543.428721 145.551255 
L 543.710682 146.345832 
L 544.556563 154.743037 
L 545.120485 157.436045 
L 545.684406 161.072784 
L 546.248327 168.880943 
L 547.65813 191.075777 
L 548.222051 202.851963 
L 549.631854 226.264543 
L 550.477736 247.656143 
L 550.759696 251.019299 
L 551.041657 249.547868 
L 551.323618 239.785336 
L 551.605578 219.328131 
L 552.73342 100.135571 
L 553.015381 87.074057 
L 554.143223 63.342228 
L 554.425184 63.155569 
L 554.989105 65.765188 
L 555.271066 67.009341 
L 555.834987 73.220405 
L 556.398908 80.591185 
L 556.962829 95.379363 
L 558.654593 149.635924 
L 558.936553 152.878783 
L 559.218514 154.577166 
L 559.500475 154.799723 
L 560.064396 152.343727 
L 560.910277 149.291754 
L 561.192238 148.552491 
L 561.474199 148.506721 
L 561.756159 148.889323 
L 562.03812 149.028374 
L 562.32008 149.299696 
L 562.602041 150.840663 
L 563.729883 161.167311 
L 564.293804 169.598411 
L 564.857726 176.084435 
L 565.703607 190.215374 
L 566.549489 207.228989 
L 567.395371 223.374374 
L 568.241253 240.572789 
L 568.523213 241.316736 
L 568.805174 236.924166 
L 569.087134 226.311115 
L 569.369095 206.095564 
L 570.214977 115.005352 
L 570.496937 100.646988 
L 571.060859 85.939547 
L 571.342819 81.458318 
L 571.62478 79.797193 
L 571.90674 79.232303 
L 572.188701 79.036445 
L 573.316543 82.226043 
L 574.162425 89.296511 
L 574.444386 92.630583 
L 575.008307 107.539986 
L 575.854189 130.033832 
L 576.136149 133.973326 
L 576.41811 135.811196 
L 576.982031 137.958545 
L 577.263991 138.584431 
L 577.827913 138.028181 
L 578.109873 139.403689 
L 578.673794 146.190639 
L 578.955755 147.190725 
L 579.237716 147.124408 
L 579.519676 148.652251 
L 579.801637 151.178706 
L 580.083597 151.757475 
L 580.647518 148.266202 
L 580.929479 148.619065 
L 581.775361 153.471315 
L 582.057321 156.826736 
L 583.185164 182.898299 
L 583.467124 185.778361 
L 584.031046 195.399958 
L 584.313006 197.720897 
L 584.594967 197.668433 
L 584.876927 198.790396 
L 586.28673 221.744919 
L 586.850651 234.068203 
L 587.132612 230.004904 
L 587.414573 215.464992 
L 588.260454 140.112921 
L 588.824375 97.529504 
L 589.106336 85.54049 
L 589.388297 78.915026 
L 589.670257 75.908346 
L 590.516139 72.340071 
L 590.7981 73.044644 
L 591.643981 82.614698 
L 591.925942 84.191994 
L 592.207903 88.047676 
L 592.771824 107.244516 
L 593.335745 126.860234 
L 594.463587 155.567406 
L 594.745548 154.802745 
L 595.027508 152.530586 
L 595.309469 151.987711 
L 595.59143 152.021779 
L 595.87339 149.998625 
L 596.437311 144.444381 
L 596.719272 143.935593 
L 597.001232 143.121861 
L 597.283193 141.894247 
L 597.565154 142.129288 
L 598.129075 145.104425 
L 598.411035 146.248768 
L 598.692996 149.836743 
L 599.256917 159.873775 
L 599.538878 160.618269 
L 599.820838 160.62038 
L 600.102799 162.425924 
L 600.948681 170.260191 
L 601.512602 178.652356 
L 602.076523 185.146805 
L 602.640444 193.240452 
L 602.922405 192.627255 
L 603.204365 190.963812 
L 603.486326 192.139791 
L 604.614168 209.107129 
L 605.178089 221.51845 
L 605.46005 221.404535 
L 605.742011 214.111053 
L 606.023971 199.036778 
L 607.433774 94.208883 
L 607.997695 81.227135 
L 608.279656 77.448877 
L 608.561617 75.173495 
L 608.843577 75.612654 
L 609.125538 79.443813 
L 609.689459 88.531394 
L 610.25338 91.576169 
L 610.535341 94.706184 
L 611.099262 105.797672 
L 612.791025 147.986079 
L 613.072986 148.493533 
L 613.354946 146.877225 
L 613.636907 145.958192 
L 613.918868 146.41594 
L 614.482789 147.89377 
L 614.764749 147.81554 
L 615.328671 146.229164 
L 615.610631 147.796454 
L 615.892592 150.660379 
L 616.174552 152.020435 
L 616.456513 151.215978 
L 616.738474 150.863882 
L 617.020434 152.824891 
L 617.866316 162.840568 
L 618.430237 166.362972 
L 618.994158 171.818674 
L 619.276119 172.600524 
L 619.558079 172.092565 
L 619.84004 173.167135 
L 620.685922 182.261458 
L 620.967882 185.172526 
L 622.377685 210.242715 
L 622.659646 212.907292 
L 622.941606 212.133386 
L 623.223567 203.39382 
L 623.787488 161.021415 
L 624.351409 122.549951 
L 624.915331 99.866298 
L 625.197291 92.131757 
L 625.479252 88.924884 
L 625.761212 89.776315 
L 626.043173 91.009608 
L 626.325133 90.719866 
L 626.607094 90.786535 
L 627.171015 96.516078 
L 627.452976 96.137581 
L 627.734936 93.973256 
L 628.016897 95.256858 
L 628.862779 111.847166 
L 629.70866 131.767392 
L 630.554542 143.14573 
L 631.118463 146.152992 
L 631.682385 153.710383 
L 631.964345 155.394587 
L 632.246306 154.680465 
L 632.528266 154.64375 
L 632.810227 154.24507 
L 633.092188 155.578221 
L 633.092188 155.578221 
" clip-path="url(#pc6a517d35e)" style="fill: none; stroke: #1f77b4; stroke-width: 1.5; stroke-linecap: square"/>
   </g>
   <g id="patch_3">
    <path d="M 47.192188 266.112 
L 47.192188 0 
" style="fill: none; stroke: #000000; stroke-width: 0.8; stroke-linejoin: miter; stroke-linecap: square"/>
   </g>
   <g id="patch_4">
    <path d="M 660.992188 266.112 
L 660.992188 0 
" style="fill: none; stroke: #000000; stroke-width: 0.8; stroke-linejoin: miter; stroke-linecap: square"/>
   </g>
   <g id="patch_5">
    <path d="M 47.192188 266.112 
L 660.992188 266.112 
" style="fill: none; stroke: #000000; stroke-width: 0.8; stroke-linejoin: miter; stroke-linecap: square"/>
   </g>
   <g id="patch_6">
    <path d="M 47.192188 0 
L 660.992188 0 
" style="fill: none; stroke: #000000; stroke-width: 0.8; stroke-linejoin: miter; stroke-linecap: square"/>
   </g>
  </g>
 </g>
 <defs>
  <clipPath id="pc6a517d35e">
   <rect x="47.192188" y="0" width="613.8" height="266.112"/>
  </clipPath>
 </defs>
</svg>
