<svg xmlns="http://www.w3.org/2000/svg" xmlns:xlink="http://www.w3.org/1999/xlink" width="913.477" height="377.053" viewBox="0 0 685.107 282.79"><defs><style>*{stroke-linejoin:round;stroke-linecap:butt}</style></defs><g id="figure_1"><path id="patch_1" d="M0 282.79h685.107V0H0v282.79z" style="fill:none"/><g id="axes_1"><path id="patch_2" d="M71.308 266.112h613.8V0h-613.8v266.112z" style="fill:none"/><g id="matplotlib.axis_1"><g id="xtick_1"><g id="line2d_1"><defs><path id="mbb986f5317" d="M0 0v3.5" style="stroke:gray;stroke-width:.8"/></defs><use xlink:href="#mbb986f5317" x="99.207" y="266.112" style="fill:gray;stroke:gray;stroke-width:.8"/></g><g id="text_1" style="fill:gray" transform="matrix(.1 0 0 -.1 96.026 280.71)"><defs><path id="DejaVuSans-30" d="M2034 4250q-487 0-733-480-245-479-245-1442 0-959 245-1439 246-480 733-480 491 0 736 480 246 480 246 1439 0 963-246 1442-245 480-736 480zm0 500q785 0 1199-621 414-620 414-1801 0-1178-414-1799Q2819-91 2034-91q-784 0-1198 620-414 621-414 1799 0 1181 414 1801 414 621 1198 621z" transform="scale(.01563)"/></defs><use xlink:href="#DejaVuSans-30"/></g></g><g id="xtick_2"><use xlink:href="#mbb986f5317" id="line2d_2" x="168.958" y="266.112" style="fill:gray;stroke:gray;stroke-width:.8"/><g id="text_2" style="fill:gray" transform="matrix(.1 0 0 -.1 159.414 280.71)"><defs><path id="DejaVuSans-35" d="M691 4666h2478v-532H1269V2991q137 47 274 70 138 23 276 23 781 0 1237-428 457-428 457-1159 0-753-469-1171Q2575-91 1722-91q-294 0-599 50Q819 9 494 109v635q281-153 581-228t634-75q541 0 856 284 316 284 316 772 0 487-316 771-315 285-856 285-253 0-505-56-251-56-513-175v2344z" transform="scale(.01563)"/></defs><use xlink:href="#DejaVuSans-35"/><use xlink:href="#DejaVuSans-30" x="63.623"/><use xlink:href="#DejaVuSans-30" x="127.246"/></g></g><g id="xtick_3"><use xlink:href="#mbb986f5317" id="line2d_3" x="238.708" y="266.112" style="fill:gray;stroke:gray;stroke-width:.8"/><g id="text_3" style="fill:gray" transform="matrix(.1 0 0 -.1 225.982 280.71)"><defs><path id="DejaVuSans-31" d="M794 531h1031v3560L703 3866v575l1116 225h631V531h1031V0H794v531z" transform="scale(.01563)"/></defs><use xlink:href="#DejaVuSans-31"/><use xlink:href="#DejaVuSans-30" x="63.623"/><use xlink:href="#DejaVuSans-30" x="127.246"/><use xlink:href="#DejaVuSans-30" x="190.869"/></g></g><g id="xtick_4"><use xlink:href="#mbb986f5317" id="line2d_4" x="308.457" y="266.112" style="fill:gray;stroke:gray;stroke-width:.8"/><g id="text_4" style="fill:gray" transform="matrix(.1 0 0 -.1 295.733 280.71)"><use xlink:href="#DejaVuSans-31"/><use xlink:href="#DejaVuSans-35" x="63.623"/><use xlink:href="#DejaVuSans-30" x="127.246"/><use xlink:href="#DejaVuSans-30" x="190.869"/></g></g><g id="xtick_5"><use xlink:href="#mbb986f5317" id="line2d_5" x="378.207" y="266.112" style="fill:gray;stroke:gray;stroke-width:.8"/><g id="text_5" style="fill:gray" transform="matrix(.1 0 0 -.1 365.483 280.71)"><defs><path id="DejaVuSans-32" d="M1228 531h2203V0H469v531q359 372 979 998 621 627 780 809 303 340 423 576 121 236 121 464 0 372-261 606-261 235-680 235-297 0-627-103-329-103-704-313v638q381 153 712 231 332 78 607 78 725 0 1156-363 431-362 431-968 0-288-108-546-107-257-392-607-78-91-497-524-418-433-1181-1211z" transform="scale(.01563)"/></defs><use xlink:href="#DejaVuSans-32"/><use xlink:href="#DejaVuSans-30" x="63.623"/><use xlink:href="#DejaVuSans-30" x="127.246"/><use xlink:href="#DejaVuSans-30" x="190.869"/></g></g><g id="xtick_6"><use xlink:href="#mbb986f5317" id="line2d_6" x="447.957" y="266.112" style="fill:gray;stroke:gray;stroke-width:.8"/><g id="text_6" style="fill:gray" transform="matrix(.1 0 0 -.1 435.233 280.71)"><use xlink:href="#DejaVuSans-32"/><use xlink:href="#DejaVuSans-35" x="63.623"/><use xlink:href="#DejaVuSans-30" x="127.246"/><use xlink:href="#DejaVuSans-30" x="190.869"/></g></g><g id="xtick_7"><use xlink:href="#mbb986f5317" id="line2d_7" x="517.707" y="266.112" style="fill:gray;stroke:gray;stroke-width:.8"/><g id="text_7" style="fill:gray" transform="matrix(.1 0 0 -.1 504.983 280.71)"><defs><path id="DejaVuSans-33" d="M2597 2516q453-97 707-404 255-306 255-756 0-690-475-1069Q2609-91 1734-91q-293 0-604 58T488 141v609q262-153 574-231 313-78 654-78 593 0 904 234t311 681q0 413-289 645-289 233-804 233h-544v519h569q465 0 712 186t247 536q0 359-255 551-254 193-729 193-260 0-557-57-297-56-653-174v562q360 100 674 150t592 50q719 0 1137-327 419-326 419-882 0-388-222-655t-631-370z" transform="scale(.01563)"/></defs><use xlink:href="#DejaVuSans-33"/><use xlink:href="#DejaVuSans-30" x="63.623"/><use xlink:href="#DejaVuSans-30" x="127.246"/><use xlink:href="#DejaVuSans-30" x="190.869"/></g></g><g id="xtick_8"><use xlink:href="#mbb986f5317" id="line2d_8" x="587.457" y="266.112" style="fill:gray;stroke:gray;stroke-width:.8"/><g id="text_8" style="fill:gray" transform="matrix(.1 0 0 -.1 574.732 280.71)"><use xlink:href="#DejaVuSans-33"/><use xlink:href="#DejaVuSans-35" x="63.623"/><use xlink:href="#DejaVuSans-30" x="127.246"/><use xlink:href="#DejaVuSans-30" x="190.869"/></g></g><g id="xtick_9"><use xlink:href="#mbb986f5317" id="line2d_9" x="657.207" y="266.112" style="fill:gray;stroke:gray;stroke-width:.8"/><g id="text_9" style="fill:gray" transform="matrix(.1 0 0 -.1 644.482 280.71)"><defs><path id="DejaVuSans-34" d="M2419 4116 825 1625h1594v2491zm-166 550h794V1625h666v-525h-666V0h-628v1100H313v609l1940 2957z" transform="scale(.01563)"/></defs><use xlink:href="#DejaVuSans-34"/><use xlink:href="#DejaVuSans-30" x="63.623"/><use xlink:href="#DejaVuSans-30" x="127.246"/><use xlink:href="#DejaVuSans-30" x="190.869"/></g></g></g><g id="matplotlib.axis_2"><g id="ytick_1"><g id="line2d_10"><defs><path id="mfe3330ef9d" d="M0 0h-3.5" style="stroke:gray;stroke-width:.8"/></defs><use xlink:href="#mfe3330ef9d" x="71.308" y="237.363" style="fill:gray;stroke:gray;stroke-width:.8"/></g><g id="text_10" style="fill:gray" transform="matrix(.16 0 0 -.16 0 243.442)"><defs><path id="DejaVuSans-2212" d="M678 2272h4006v-531H678v531z" transform="scale(.01563)"/></defs><use xlink:href="#DejaVuSans-2212"/><use xlink:href="#DejaVuSans-32" x="83.789"/><use xlink:href="#DejaVuSans-30" x="147.412"/><use xlink:href="#DejaVuSans-30" x="211.035"/><use xlink:href="#DejaVuSans-30" x="274.658"/><use xlink:href="#DejaVuSans-30" x="338.281"/></g></g><g id="ytick_2"><use xlink:href="#mfe3330ef9d" id="line2d_11" x="71.308" y="200.663" style="fill:gray;stroke:gray;stroke-width:.8"/><g id="text_11" style="fill:gray" transform="matrix(.16 0 0 -.16 0 206.742)"><use xlink:href="#DejaVuSans-2212"/><use xlink:href="#DejaVuSans-31" x="83.789"/><use xlink:href="#DejaVuSans-30" x="147.412"/><use xlink:href="#DejaVuSans-30" x="211.035"/><use xlink:href="#DejaVuSans-30" x="274.658"/><use xlink:href="#DejaVuSans-30" x="338.281"/></g></g><g id="ytick_3"><use xlink:href="#mfe3330ef9d" id="line2d_12" x="71.308" y="163.963" style="fill:gray;stroke:gray;stroke-width:.8"/><use xlink:href="#DejaVuSans-30" id="text_12" style="fill:gray" transform="matrix(.16 0 0 -.16 54.127 170.042)"/></g><g id="ytick_4"><use xlink:href="#mfe3330ef9d" id="line2d_13" x="71.308" y="127.264" style="fill:gray;stroke:gray;stroke-width:.8"/><g id="text_13" style="fill:gray" transform="matrix(.16 0 0 -.16 13.408 133.342)"><use xlink:href="#DejaVuSans-31"/><use xlink:href="#DejaVuSans-30" x="63.623"/><use xlink:href="#DejaVuSans-30" x="127.246"/><use xlink:href="#DejaVuSans-30" x="190.869"/><use xlink:href="#DejaVuSans-30" x="254.492"/></g></g><g id="ytick_5"><use xlink:href="#mfe3330ef9d" id="line2d_14" x="71.308" y="90.564" style="fill:gray;stroke:gray;stroke-width:.8"/><g id="text_14" style="fill:gray" transform="matrix(.16 0 0 -.16 13.408 96.643)"><use xlink:href="#DejaVuSans-32"/><use xlink:href="#DejaVuSans-30" x="63.623"/><use xlink:href="#DejaVuSans-30" x="127.246"/><use xlink:href="#DejaVuSans-30" x="190.869"/><use xlink:href="#DejaVuSans-30" x="254.492"/></g></g><g id="ytick_6"><use xlink:href="#mfe3330ef9d" id="line2d_15" x="71.308" y="53.864" style="fill:gray;stroke:gray;stroke-width:.8"/><g id="text_15" style="fill:gray" transform="matrix(.16 0 0 -.16 13.408 59.943)"><use xlink:href="#DejaVuSans-33"/><use xlink:href="#DejaVuSans-30" x="63.623"/><use xlink:href="#DejaVuSans-30" x="127.246"/><use xlink:href="#DejaVuSans-30" x="190.869"/><use xlink:href="#DejaVuSans-30" x="254.492"/></g></g><g id="ytick_7"><use xlink:href="#mfe3330ef9d" id="line2d_16" x="71.308" y="17.164" style="fill:gray;stroke:gray;stroke-width:.8"/><g id="text_16" style="fill:gray" transform="matrix(.16 0 0 -.16 13.408 23.243)"><use xlink:href="#DejaVuSans-34"/><use xlink:href="#DejaVuSans-30" x="63.623"/><use xlink:href="#DejaVuSans-30" x="127.246"/><use xlink:href="#DejaVuSans-30" x="190.869"/><use xlink:href="#DejaVuSans-30" x="254.492"/></g></g></g><path id="line2d_17" d="m99.207 163.94.846.05.282-.055.282.059.282-.062.282.065.282-.069.282.072.282-.075.282.079.282-.083.282.087.282-.09.282.094.282-.1.282.104.282-.108.282.113.282-.118.282.124.282-.13.282.136.282-.142.282.149.281-.157.282.165.282-.173.282.182.282-.192.282.202.282-.214.282.227.282-.24.282.255.282-.272.282.29.282-.31.282.334.282-.362.282.393.282-.428.282.47.282-.519.282.577.282-.65.282.743.282-.864.282 1.028.282-1.263.281 1.631.282-2.29.282 3.83.564-21.938.282 14.442.282 4.434.282 6.676.282 3.1.282 6.059.564 6.693.564-.813.282-1.627.282.183.282-.565.282.558.282-.22.282.604.282-.413.282.529.282-.015.282.416.282-.505.282.972.845 3.75.282.395.282.14.846 3.524.282-.528.282-1.657.282-4.376.282-8.44.564-36.275.564-37.157.282-10.306.282-3.88.282 2.2.282 9.143 1.128 52.393.563 9.779.282 3.26.564 8.652.282 2.126.282.292.564 1.49.282.128.282-.189.564 2.641.282-.13.282-1.045.282 1.031.564 4.384.282.52.282.224.564-.842.282.032.564 1.815.282 1.034.281 2.114.282 3.265.282 1.674.282-.952.282-4.665.282-9.346.564-35.194.564-38.558.282-13.87.282-7.283.282-.62.282 5.688.282 11.124.846 47.706.564 14.406.564 6.4.282 2.893.846 15.855.281.578.282-.766.282.478.282 1.924.282-.31.846-11.205.282.18.282-.07.282-1.457.282-.298.564 2.872.282.398.282.746.564 2.05.282-.28.282.452.564 2.433.282-1.04.282-3.137.282-7.085.281-12.976 1.128-67.601.282-11.7.282-4.85.282 3.63.564 22.103.846 37.092.564 14.729.564 15.975.564 6.28.282 2.025.282 1.135.282.416.846 3.888 1.127-3.776.282-.246.564.841.282-.217.282-.815.282-.084.282 1.07.564 4.117.282 1.24.282.626.564 2.699.564 3.47.282 1.176.282-.441.282-3.813.282-9.834.564-37.58.845-58.121.282-10.852.282-4.241.282 4.328.564 32.036.564 31.383.564 20.364.564 11.98.564 6.951.282 1.62.564-.835.282.015.282-.419.564-3.159.282-.528.282-1.296.563-8.027.282-1.199.564 3.846 1.128 4.222.282.654.282 2.086.564 5.83.564 2.78.564 4.07.564 2.821.564 3.894.282.228.282-1.058.282-2.521.282-6.886.282-13.686 1.127-78.938.282-11.165.282-5.055.282 2.138.282 10.4 1.128 61.744.846 23.644.282 4.468.564 3.99.282.202.282-.94.846-4.855 1.127-9.636 1.128-11.01.282.202.282.406.282.653.282 1.517 1.41 13.795.564 2.947.282 1.139.564 5.83.282 2.9.564 2.394.564 3.995.282-.365.281-1.592.282-.707.282.856.282.47.282-1.543.282-5.32.282-10.157.564-32.883.564-34.92.282-12.409.282-5.558.282 1.81.282 8.663 1.128 54.596.564 13.487.282 4.747.282 2.585.846 3.422.281-.106.564-1.742.564-1.492.846-2.922.846-2.297.282.214 1.692 6.128.282.882.282 1.577.564 4.552.282.108.282-.662.282.817.281 1.554.282.303.564-2.273.282.342.282.55.282-.967.282-3.37.282-7.502.564-28.107.564-30.045.282-11.107.282-6.63.282.053.282 6.784 1.41 58.58 1.127 16.614.282 2.511.282.958.282-.002.282-.261.564-.866.282-.34.282-.747.846-4.46.846-2.336.282.185 1.128 3.65.846 4.927 1.127 8.668.282 1.724.282.928.282-.948.282-2.848.282-5.647.282-10.2 1.41-74.373.282-3.25.282 3.444.564 25.167.564 26.166.282 7.925.282 4.285.564 4.985.564 6.47.282 1.145.281.403.282 1.517.564 3.767 1.128 2.882.282-.212.282-.422.564-1.51.282-.373.564.518.282.415.282.68.846 3.36.564 1.29.564.277.282-.233.282-1.93.281-6.567.564-28.116.846-46.768.282-10.728.282-2.053.282 6.532.846 35.333.564 22.733.282 5.158.564 6.736.564 7.734.564 1.858.846 7.337.282-.216.563-1.774.282-.449.564-1.318.282.033.564 2.039.564 2.158.564 1.174.564 3.74.564 3.911.282 1.01.282-.16.282-1.39.282-4.07.282-9.07.564-34.887.564-36.5.563-22.548.282-3.358.282 2.743.282 9.261 1.128 56.51 1.128 31.438.564 2.72.282 1.008.564-.334.564.929.846-.435.282.105.282-.347.563-1.821.282-.025.846 3.401.282.726.282 2.742.564 8.838.282 1.353.282-1.216.282-3.436.282-7.947.282-14.635 1.128-82.608.282-11.585.282-6.61.282-.886.282 7.267.564 34.46.563 33.114.564 23.676.282 6.835.564 6.763.282 2.49.282 1.46.282.585.846.386.282-.025.564-.658.282-.495.282.091 1.128 2.553 1.128 5.569.563 7.691.282 1.467.282-1.937.282-4.62.282-8.277.282-15.255 1.128-81.419.564-23.512.282-2.767.282 4.382.282 9.997.564 33.777.564 37.615.564 20.095.564 10.663.564 4.278.281 1.063.282.596.564.145.282.127.282-.12.282-.502.282.16.282 1.212 1.128 7.457.282 2.985.282 1.405.564-1.779.282 1.342.564 4.795.282-.18.282-1.004.282-3.117.282-9.645.563-44.928.846-67.1.564-29.56.282-3.977.282 5.166.564 30.451 1.128 79.154.282 10.963.282 6.556.564 6.336.846 5.615.846 2.398.282.21.282-.57.281.524 1.128 9.523.564 2.907.564 4.026.846 6.036.282 1.59.282.111.282-3.747.282-10.097.282-17.764 1.41-124.427.282-13.207.282-6.647.282 2.807.281 10.85.564 35.89.846 65.606.564 21.385.282 5.424.282 3.067 1.41 6.974.282.221.282.574.564 2.233.564 1.29.846 3.976.563 3.997.846 7.063.564 4.87.282 1.117.282-2.091.282-7.34.282-14.051.564-48 .846-75.348.564-26.747.282-1.43.282 6.94.564 24.394.564 40.282.564 38.94.563 20.275.282 3.014.282.153h.282l.564 2.558.282-.094.564-3.183.282 1.216.282 3.21.282 1.665.282-1.053.282-1.7.282-.665.282-1.687.564-10.652.564-8.316.282-1.503.282-.352.282 1.083.282 2.809.845 14.029.282.97.846-1.2.846-3.19.282-.543.564-2.056.282.432.282 1.2.282-.47.564-3.684.282 1.39.282 2.527.282 1.345.282.223.282 1.43.846 10.052 1.41 8.717.563 5.217 1.692 19.975.846 9.75.282.378.282-3.82.282-10.647.282-21.546 1.41-157.888.282-17.029.281-5.433.282 5.717.564 26.402.564 33.632 1.128 89.003.282 8.141.846 13.484.846 5.785.564 6.126.282 1.584.846 2.023.282.26.282-1.593.281-2.663.282-.83.846 4.434.282.664.282 2.391.846 12.32.282.614.282-3.293.282-8.999.282-16.261.564-53.121.564-54.645.564-35.127.282-9.22.282-1.286.282 6.949.846 41.843.563 40.264.564 39.68.282 9.928.564 9.34.564 6.762.846 4.204.564 5.21.282.774.282-.29.282.32.282 2.25.564 6.122.564 4.834.846 7.839.845 7.034.282-.997.282-5.722.282-12.965.564-48.867.846-84.387.564-36.955.282-5.558.282 2.265.282 7.004.564 23.203.564 36.781.846 62.864.282 10.517.563 10.14.564 5.573.564 4.74.282 1.381.282.447.282.806.564 2.481.282.211.282.704 1.128 9.139 1.128 12.132.846 11.145.282-.164.282-3.953.282-10.547.563-48.151 1.128-120.323.282-18.445.282-6.89.282.91.282 4.508.282 7.1.564 22.622.564 35.24.846 67.781.282 9.867.282 4.504 1.41 10.831.281.199.564-.241.282-.225.282 1.192.846 8.52.282 1.358.282 3.547.846 17.166.564 6.866.846 11.313.564 2.833.282.098.282-4.152.282-12.403.564-54.159.845-102.12.564-40.246.282-5.587.282-.163.282 1.976.282 4.152.564 18.23.564 31.664 1.128 91.913.282 7.65 1.128 12.494.282 1.338.564-3.303.282.206.563 2.771.282.224.282 1.528.846 10.737.564 4.54.846 10.813 1.974 29.953.282.707.282-4.064.282-11.926.282-22.368 1.691-183.53.282-11.419.282-4.348.282.58.282 3.31.282 5.635.282 8.677.282 13.21.564 42.89.846 73.685.282 10.927.282 3.898.282 1.462.282 2.33.564 7.526 1.41 11.76.281 1.172.282 2.037.564 5.269.282 1.753.846 8.69.282-1.341.282-.638.282 2.741.564 8.49.846 7.888.282 3.039.282-.007.282-6.022.282-12.506.282-19.106.564-62.885.563-69.49.282-20.644.282-12.43.282-7.032.282-1.98.282 3.182.846 21.244.282 9.646.282 14.77 1.128 83.163.282 12.125.282 6.938.282 2.635.282 1.465.846 10.002.282.288.282-.226.282.56.281 1.95.564 7.318.846 12.389 1.41 15.375.282 1.731 1.41 21.166.282-1.444.282-10.415.564-44.508 1.128-137.695.563-27.681.282-7.063.282-1.634.282 3.343.846 19.817.282 10.116.282 15.935 1.41 108.618.282 5.976.846 9.994.282 3.686.282.92.282-.864.282.588.564 6.703.282 1.429.281.342.564 2.271.282 1.242.282 2.208.846 10.313.282 2.99 1.128 17.08.282 2.117.282-2.369.282-9.46.282-18.256.564-65.81.564-73.02.564-37.52.282-9.702.282-4.045.281 1.68.564 10.061.282 7.25.564 24.26.564 42.816.564 52.949.282 17.3.282 9.714.282 5.52.282 3.3.564 3.218.282 1.167.282-.224.846-6.14.282.817.846 4.178.282 3.588.845 14.217.564 8.148.564 9.38.564 4.031.282-.111.282-5.107.282-13.768.282-23.963 1.41-159.717.282-11.516.282-6.341.282-1.218.282 3.732.564 16.758.563 23.696.564 38.456.846 75.82.282 14.373.282 7.106 1.128 11.174.282-.963.564-7.206.282-.029.282 1.771.282.872.282-.013.282 1.767.564 8.205.282 2.055.564 1.229.281 1.695.282 3.053.846 13.062.282-2.51.282-9.256.282-16.969.564-62.366.564-75.269.564-39.298.282-8.589.282-2.984.282 2.617.564 12.116.282 8.199.564 26.887.564 40.708.845 77.895.282 11.018.282 3.307.282.803.846 5.396.282-1.193.282-1.976.282-.692 1.128 4.05.282 3.01.564 9.78.846 7.671.564 11.486.282 2.88.282-.24.282-1.764.281-4.737.282-12.871.282-25.434 1.128-135.202.564-34.153.282-4.966.282 1.436.564 9.33.282 7.468.564 23.886.564 36.468.846 74.923.282 10.864.564 8.435.282 2.844.282 1.458.281.586.282 1.322.846 6.278.282-.194.282-.589.282.574.564 2.792.282 2.066.846 9.442.282 2.479.564 10.239.282 1.785.564-3.832.282-4.78.282-14.624.564-66.828.563-68.934.564-40.344.282-9.295.282-2.393.282 1.78.282 3.655.282 5.506.564 20.31.564 30.809 1.128 94.728.282 7.831.564 4.963.564 3.07.282.706 1.127 3.976.282.688.282 1.198.564 4.988 1.692 16.998 1.128 13.871.282-3.97.282-11.948.282-21.848.564-70.694.564-70.206.282-22.603.282-13.172.282-5.175.282.69.281 3.98.564 13.615.564 23.475.564 38.613.846 76.295.282 14.477.282 5.12.282.682.282 1.427.564 4.324.564.4 1.41 4.174.282 1.39.282.777.281-.43.282-.76.282 1.14 1.692 20.642.282-.098.282-8.522.282-19.244.564-64.236.564-67.703.282-23.18.282-13.77.282-5.683.282-.25.282 3.203.282 5.704.564 19.03.563 27.684.564 42.517.564 45.953.282 12.912.282 6.386.564 5.51.846 4.04.282.164.282-.667.282.222 1.41 11.315.846 7.992 1.41 16.919.281-1.21.282-6.567.282-12.375.282-21.35 1.41-156.582.282-8.201.282-3.191.282 1.026.282 4.336.564 14.1.564 22.642.564 41.86.846 69.743.282 9.619.281 3.556.564 4.569.564 4.403.282 1.16.282.468.282.1.282.753 1.128 5.355.564 4.913 1.692 20.76.282.315.282-5.235.282-13.965.282-25.434 1.127-137.974.282-17.902.282-9.15.282-1.37.282 3.326.564 10.7.564 16.73.564 23.918.564 45.291.564 46.82.282 14.317.282 8.188.564 7.039.564 5.976.282.803.282-.515.563-.379.564-3.768.282.422 1.41 17.08 1.128 15.529.282 1.19.282-3.337.282-10.017.282-20.938 1.41-160.522.282-11.684.282-4.995.281.161.282 2.997.564 11.67.564 14.354.282 10.47.282 17.643 1.128 95.45.282 12.492.282 6.874.282 2.645.564.57 1.974 8.37.282.435.282 1.34 1.127 11.62 1.128 19.048.282 1.22.282-1.871.282-8.407.282-20.514.564-76.928.564-71.332.282-21.046.282-11.935.282-4.478.282-.545.282.598.282 2.38.564 14.273.563 17.187.282 14.063.564 44.235.564 47.506.282 16.698.282 8.875.846 10.68.282 4.538.282 2.239.282-.095.282-.584.564 1.09.282-1.024.282-2.534.282-1.346.282 1.425 1.128 12.503 1.41 20.77.281-.946.282-5.69.282-15.701.564-72.527.564-75.072.564-36.313.282-6.58.282-1.176.282 1.58.282 3.267.564 13.164.564 16.897.564 30.785 1.127 84.049.282 10.076.564 8.025.564 7.684.282 2.207.282.516.282-.283.282.322.846 4.585.564 3.78.846 7.589.564 5.79.282.97.282 1.501.845 10.246.282-.163.282-3.13.282-9.465.282-21.286.564-77.296.564-72.88.282-19.222.282-7.951.282-.932.282 1.536.282 2.296.282 3.852.564 13.35.564 19.738.564 34.983.846 63.377.282 14.55.282 8.055.563 5.877.564 4.343.282-.061.282-.768.282.1.564 1.735.282.488.282 1.218 1.128 8.55 1.41 19.1.564 8.487.282 1.956.282-.844.282-6.459.281-17.048.564-70.742.564-73.436.282-21.628.282-11.756.282-5.186.282-1.335.282 1.539.564 10.268.564 11.356.282 8.737.564 31.718 1.41 99.329.282 8.112.282 4.215.282 1.04.281-.967.282-.146.282 2.608.282 3.896.282 2.192.564-.057.282 1.391.564 3.363.282.315.282-.145.282.373.282 1.937.846 9.02.282 1.136.282-1.369.282-9.121.282-22.262 1.128-137.765.282-17.032.281-8.327.282-2.735.282.386.282 2.864.564 11.25.564 17.88.846 43.808 1.41 86.013.282 6.075.282 3.31 1.128 5.591.564.315.563 1.346.282 1.037.564 4.051.282 3.135 1.128 17.375.282.988.282-.983.282-6.763.282-18.108.564-71.217.564-71.765.282-20.191.282-9.787.282-4.032.282-2.382.282-.886.282 2.446.564 12.375.281 7.865.282 11.525.564 36.412 1.128 86.149.564 22.839.282 4.975.282 1.737.282.491 1.128 3.173.282.851.282.218.282-.507.282.162.282.857.282-.063.282-1.52.282-.312.282 3.047.281 5.067.282 2.905.282-3.068.282-12.711.282-25.013 1.128-140.586.282-15.866.282-7.05.282-1.337.282 1.861.282 3.569.564 12.035.564 16.468.564 30.153 1.41 100.388.563 17.361.282 4.223.282 1.641.282.555.282 2.193.564 5.348.282.637.282.972 1.128 6.247.282 1.864.846 8.201.282-2.027.282-6.688.282-16.152.282-28.12.846-117.374.281-11.288h0" clip-path="url(#pfce10b3451)" style="fill:none;stroke:#1f77b4;stroke-width:1.5;stroke-linecap:square"/><path id="patch_3" d="M71.308 266.112V0" style="fill:none;stroke:gray;stroke-width:.8;stroke-linejoin:miter;stroke-linecap:square"/><path id="patch_4" d="M685.107 266.112V0" style="fill:none;stroke:#000;stroke-width:.8;stroke-linejoin:miter;stroke-linecap:square"/><path id="patch_5" d="M71.308 266.112h613.8" style="fill:none;stroke:gray;stroke-width:.8;stroke-linejoin:miter;stroke-linecap:square"/><path id="patch_6" d="M71.308 0h613.8" style="fill:none;stroke:#000;stroke-width:.8;stroke-linejoin:miter;stroke-linecap:square"/></g></g><defs><clipPath id="pfce10b3451"><path d="M71.308 0h613.8v266.112h-613.8z"/></clipPath></defs></svg>