<svg xmlns="http://www.w3.org/2000/svg" xmlns:xlink="http://www.w3.org/1999/xlink" width="913.477" height="378.31" viewBox="0 0 685.107 283.733"><defs><style>*{stroke-linejoin:round;stroke-linecap:butt}</style></defs><g id="figure_1"><path id="patch_1" d="M0 283.733h685.107V0H0v283.733z" style="fill:none"/><g id="axes_1"><path id="patch_2" d="M71.308 267.055h613.8V.943h-613.8v266.112z" style="fill:none"/><g id="matplotlib.axis_1"><g id="xtick_1"><g id="line2d_1"><defs><path id="m29638aace8" d="M0 0v3.5" style="stroke:gray;stroke-width:.8"/></defs><use xlink:href="#m29638aace8" x="99.207" y="267.055" style="fill:gray;stroke:gray;stroke-width:.8"/></g><g id="text_1" style="fill:gray" transform="matrix(.1 0 0 -.1 96.026 281.653)"><defs><path id="DejaVuSans-30" d="M2034 4250q-487 0-733-480-245-479-245-1442 0-959 245-1439 246-480 733-480 491 0 736 480 246 480 246 1439 0 963-246 1442-245 480-736 480zm0 500q785 0 1199-621 414-620 414-1801 0-1178-414-1799Q2819-91 2034-91q-784 0-1198 620-414 621-414 1799 0 1181 414 1801 414 621 1198 621z" transform="scale(.01563)"/></defs><use xlink:href="#DejaVuSans-30"/></g></g><g id="xtick_2"><use xlink:href="#m29638aace8" id="line2d_2" x="168.958" y="267.055" style="fill:gray;stroke:gray;stroke-width:.8"/><g id="text_2" style="fill:gray" transform="matrix(.1 0 0 -.1 159.414 281.653)"><defs><path id="DejaVuSans-35" d="M691 4666h2478v-532H1269V2991q137 47 274 70 138 23 276 23 781 0 1237-428 457-428 457-1159 0-753-469-1171Q2575-91 1722-91q-294 0-599 50Q819 9 494 109v635q281-153 581-228t634-75q541 0 856 284 316 284 316 772 0 487-316 771-315 285-856 285-253 0-505-56-251-56-513-175v2344z" transform="scale(.01563)"/></defs><use xlink:href="#DejaVuSans-35"/><use xlink:href="#DejaVuSans-30" x="63.623"/><use xlink:href="#DejaVuSans-30" x="127.246"/></g></g><g id="xtick_3"><use xlink:href="#m29638aace8" id="line2d_3" x="238.708" y="267.055" style="fill:gray;stroke:gray;stroke-width:.8"/><g id="text_3" style="fill:gray" transform="matrix(.1 0 0 -.1 225.982 281.653)"><defs><path id="DejaVuSans-31" d="M794 531h1031v3560L703 3866v575l1116 225h631V531h1031V0H794v531z" transform="scale(.01563)"/></defs><use xlink:href="#DejaVuSans-31"/><use xlink:href="#DejaVuSans-30" x="63.623"/><use xlink:href="#DejaVuSans-30" x="127.246"/><use xlink:href="#DejaVuSans-30" x="190.869"/></g></g><g id="xtick_4"><use xlink:href="#m29638aace8" id="line2d_4" x="308.457" y="267.055" style="fill:gray;stroke:gray;stroke-width:.8"/><g id="text_4" style="fill:gray" transform="matrix(.1 0 0 -.1 295.733 281.653)"><use xlink:href="#DejaVuSans-31"/><use xlink:href="#DejaVuSans-35" x="63.623"/><use xlink:href="#DejaVuSans-30" x="127.246"/><use xlink:href="#DejaVuSans-30" x="190.869"/></g></g><g id="xtick_5"><use xlink:href="#m29638aace8" id="line2d_5" x="378.207" y="267.055" style="fill:gray;stroke:gray;stroke-width:.8"/><g id="text_5" style="fill:gray" transform="matrix(.1 0 0 -.1 365.483 281.653)"><defs><path id="DejaVuSans-32" d="M1228 531h2203V0H469v531q359 372 979 998 621 627 780 809 303 340 423 576 121 236 121 464 0 372-261 606-261 235-680 235-297 0-627-103-329-103-704-313v638q381 153 712 231 332 78 607 78 725 0 1156-363 431-362 431-968 0-288-108-546-107-257-392-607-78-91-497-524-418-433-1181-1211z" transform="scale(.01563)"/></defs><use xlink:href="#DejaVuSans-32"/><use xlink:href="#DejaVuSans-30" x="63.623"/><use xlink:href="#DejaVuSans-30" x="127.246"/><use xlink:href="#DejaVuSans-30" x="190.869"/></g></g><g id="xtick_6"><use xlink:href="#m29638aace8" id="line2d_6" x="447.957" y="267.055" style="fill:gray;stroke:gray;stroke-width:.8"/><g id="text_6" style="fill:gray" transform="matrix(.1 0 0 -.1 435.233 281.653)"><use xlink:href="#DejaVuSans-32"/><use xlink:href="#DejaVuSans-35" x="63.623"/><use xlink:href="#DejaVuSans-30" x="127.246"/><use xlink:href="#DejaVuSans-30" x="190.869"/></g></g><g id="xtick_7"><use xlink:href="#m29638aace8" id="line2d_7" x="517.707" y="267.055" style="fill:gray;stroke:gray;stroke-width:.8"/><g id="text_7" style="fill:gray" transform="matrix(.1 0 0 -.1 504.983 281.653)"><defs><path id="DejaVuSans-33" d="M2597 2516q453-97 707-404 255-306 255-756 0-690-475-1069Q2609-91 1734-91q-293 0-604 58T488 141v609q262-153 574-231 313-78 654-78 593 0 904 234t311 681q0 413-289 645-289 233-804 233h-544v519h569q465 0 712 186t247 536q0 359-255 551-254 193-729 193-260 0-557-57-297-56-653-174v562q360 100 674 150t592 50q719 0 1137-327 419-326 419-882 0-388-222-655t-631-370z" transform="scale(.01563)"/></defs><use xlink:href="#DejaVuSans-33"/><use xlink:href="#DejaVuSans-30" x="63.623"/><use xlink:href="#DejaVuSans-30" x="127.246"/><use xlink:href="#DejaVuSans-30" x="190.869"/></g></g><g id="xtick_8"><use xlink:href="#m29638aace8" id="line2d_8" x="587.457" y="267.055" style="fill:gray;stroke:gray;stroke-width:.8"/><g id="text_8" style="fill:gray" transform="matrix(.1 0 0 -.1 574.732 281.653)"><use xlink:href="#DejaVuSans-33"/><use xlink:href="#DejaVuSans-35" x="63.623"/><use xlink:href="#DejaVuSans-30" x="127.246"/><use xlink:href="#DejaVuSans-30" x="190.869"/></g></g><g id="xtick_9"><use xlink:href="#m29638aace8" id="line2d_9" x="657.207" y="267.055" style="fill:gray;stroke:gray;stroke-width:.8"/><g id="text_9" style="fill:gray" transform="matrix(.1 0 0 -.1 644.482 281.653)"><defs><path id="DejaVuSans-34" d="M2419 4116 825 1625h1594v2491zm-166 550h794V1625h666v-525h-666V0h-628v1100H313v609l1940 2957z" transform="scale(.01563)"/></defs><use xlink:href="#DejaVuSans-34"/><use xlink:href="#DejaVuSans-30" x="63.623"/><use xlink:href="#DejaVuSans-30" x="127.246"/><use xlink:href="#DejaVuSans-30" x="190.869"/></g></g></g><g id="matplotlib.axis_2"><g id="ytick_1"><g id="line2d_10"><defs><path id="m76436e7324" d="M0 0h-3.5" style="stroke:gray;stroke-width:.8"/></defs><use xlink:href="#m76436e7324" x="71.308" y="230.582" style="fill:gray;stroke:gray;stroke-width:.8"/></g><g id="text_10" style="fill:gray" transform="matrix(.16 0 0 -.16 0 236.661)"><defs><path id="DejaVuSans-2212" d="M678 2272h4006v-531H678v531z" transform="scale(.01563)"/></defs><use xlink:href="#DejaVuSans-2212"/><use xlink:href="#DejaVuSans-32" x="83.789"/><use xlink:href="#DejaVuSans-30" x="147.412"/><use xlink:href="#DejaVuSans-30" x="211.035"/><use xlink:href="#DejaVuSans-30" x="274.658"/><use xlink:href="#DejaVuSans-30" x="338.281"/></g></g><g id="ytick_2"><use xlink:href="#m76436e7324" id="line2d_11" x="71.308" y="193.165" style="fill:gray;stroke:gray;stroke-width:.8"/><g id="text_11" style="fill:gray" transform="matrix(.16 0 0 -.16 0 199.244)"><use xlink:href="#DejaVuSans-2212"/><use xlink:href="#DejaVuSans-31" x="83.789"/><use xlink:href="#DejaVuSans-30" x="147.412"/><use xlink:href="#DejaVuSans-30" x="211.035"/><use xlink:href="#DejaVuSans-30" x="274.658"/><use xlink:href="#DejaVuSans-30" x="338.281"/></g></g><g id="ytick_3"><use xlink:href="#m76436e7324" id="line2d_12" x="71.308" y="155.748" style="fill:gray;stroke:gray;stroke-width:.8"/><use xlink:href="#DejaVuSans-30" id="text_12" style="fill:gray" transform="matrix(.16 0 0 -.16 54.127 161.827)"/></g><g id="ytick_4"><use xlink:href="#m76436e7324" id="line2d_13" x="71.308" y="118.331" style="fill:gray;stroke:gray;stroke-width:.8"/><g id="text_13" style="fill:gray" transform="matrix(.16 0 0 -.16 13.408 124.41)"><use xlink:href="#DejaVuSans-31"/><use xlink:href="#DejaVuSans-30" x="63.623"/><use xlink:href="#DejaVuSans-30" x="127.246"/><use xlink:href="#DejaVuSans-30" x="190.869"/><use xlink:href="#DejaVuSans-30" x="254.492"/></g></g><g id="ytick_5"><use xlink:href="#m76436e7324" id="line2d_14" x="71.308" y="80.913" style="fill:gray;stroke:gray;stroke-width:.8"/><g id="text_14" style="fill:gray" transform="matrix(.16 0 0 -.16 13.408 86.992)"><use xlink:href="#DejaVuSans-32"/><use xlink:href="#DejaVuSans-30" x="63.623"/><use xlink:href="#DejaVuSans-30" x="127.246"/><use xlink:href="#DejaVuSans-30" x="190.869"/><use xlink:href="#DejaVuSans-30" x="254.492"/></g></g><g id="ytick_6"><use xlink:href="#m76436e7324" id="line2d_15" x="71.308" y="43.496" style="fill:gray;stroke:gray;stroke-width:.8"/><g id="text_15" style="fill:gray" transform="matrix(.16 0 0 -.16 13.408 49.575)"><use xlink:href="#DejaVuSans-33"/><use xlink:href="#DejaVuSans-30" x="63.623"/><use xlink:href="#DejaVuSans-30" x="127.246"/><use xlink:href="#DejaVuSans-30" x="190.869"/><use xlink:href="#DejaVuSans-30" x="254.492"/></g></g><g id="ytick_7"><use xlink:href="#m76436e7324" id="line2d_16" x="71.308" y="6.079" style="fill:gray;stroke:gray;stroke-width:.8"/><g id="text_16" style="fill:gray" transform="matrix(.16 0 0 -.16 13.408 12.158)"><use xlink:href="#DejaVuSans-34"/><use xlink:href="#DejaVuSans-30" x="63.623"/><use xlink:href="#DejaVuSans-30" x="127.246"/><use xlink:href="#DejaVuSans-30" x="190.869"/><use xlink:href="#DejaVuSans-30" x="254.492"/></g></g></g><path id="line2d_17" d="m99.207 155.83.282-.16.282.152.282-.145.282.138.282-.132.282.127.282-.122.282.117.282-.113.282.11.282-.106.282.102.282-.099.282.096.282-.093.282.09.282-.087.282.084.282-.082.282.08.282-.078.282.076.282-.074.282.072.282-.07.281.068.282-.066.282.065.282-.064.282.062.282-.06.282.059.282-.058.564.002.846.052.846-.048.846.044.846-.039.846.026 1.127.045.282-.407.282 1.605.564 8.625.282 1.19.282.074.564 3.636.282-.88.564-4.835.282.4.564 1.35.846 5.545.564.26.282-.749.282-4.358.563-18.502 1.128-46.05.282-4.838.282.264.282 5.114 1.974 53.976.564 8.969.282 2.766.282.916.282.268.282-.017.282-.397 1.41-3.087.281-.008.846-2.535.282-1.352.282-2.09.282-.261.564 5.556.282-.218.282-1.743.282-.364.282.94.282.217.564-1.277.564-.542.282.229 1.128 1.769.281.63.282.997.282 2.532.564 7.865.282 1.847.282.596.282.143.282-1.81.282-5.932.564-23.218.846-38.602.282-7.56.282-1.773.282 1.484.282 2.09.282 4.854.846 29.16.282 4.333.282 7.148.563 18.608.282 3.15.282 1.542.564 5.312.282.623.282-.956.282-1.825 1.128-11.083.564-11.362.282-2.906.282.482.282.883.282-.417.282.002.282 2.593.564 7.088.846 3.327.281-.229.564-3.152.282.916.564 3.14.282.736.282.32.564-1.098.282.793.564 2.883.282 1.237.282 2.123.282 1.072.282-2.052.282-4.747.282-7.301 1.41-56.705.282-7.323.281.161 1.974 50.195.846 14.384.846 3.746h.282l.282.647.282 1.36.282-.52.282-2.191.282-.573.282.482.282-1.915.282-3.22.282.02.282 2.651.282.47.563-4.706.846-1.128.282.53.846 4.797.846 6.515.282.808.282.387.282.771.282 1.487.282.8.564-2.574.282 1.2.564 6.217.564 2.196.282 1.344.281-1.396.282-5.803.564-20.385 1.128-58.59.282-6.718.282-3.255.282 1.315.282 6.87 1.692 60.855.282 3.594.846 14.34.564-3.563.564-.156.281-.618.282.122.282.63.282-.325 1.128-4.03.282-.277.282-.07.282-.571.282.114.282 1.17.282-.461.564-5.88.282.448.564 2.852.282 1.215 1.41 10.204.281.622.282 1.5.846 11.913.282.272.282-.129.282.71.282-.508.282-4.503.564-18.764.564-26.392.564-30.984.282-10.194.282-6.175.282-2.175.282 3.38 2.255 68.077.564 5.9.282 1.113.282-.155.564-1.651.282-.343.282 1.216.564 5.238.282-.02.282-1.327.282-.554.282.039.564-1.612.282.21.564 1.764.282-.252.282-1.38.845-7.601.282.134.282.49.282.128.282 1.385.846 10.336.282.232.282 1.17.846 10.29.564 2.638.282.602.282-.904.282-3.729.282-7.848.564-27.787 1.128-60.116.281-6.946.282-1.527.282 2.981.282 6.975.564 25.385.564 25.72.564 17.2.282 5.5.564 5.811.846 14.706.282 1.979.282.328.282-1.473 1.692-17.394.563-3.639.282-.764.282.086.282-.235.282-.666.282.58.282 2.15.282 1.224.282-1.461.282-2.136.282-.1 1.41 7.506.282.106.282.645.564 3.322.282 2.268 1.128 15.7.281 1.691.282-.974.282-6.41.564-25.078 1.41-82.297.282-8.2.282-2.554.282 3.016.282 7.64.564 28.906.846 45.65.564 18.644.282 3.805.564 3.965.282.685.281-.133.282-.268.282-.975.564-3.572.282-.677.282-1.272.564-4.826.564-1.746.282-.878.282-.077.282.751.282.157.282-.66.282.115.564 2.96.282-.324.282-1.197.282-.123 1.691 7.947.282 1.101.282 1.824.282 2.586.282 3.842.846 17.377.282.96.282-.648.282-1.077.282-4.833.282-12.698 1.692-113.291.282-8.945.282-3.73.282 1.744.282 6.574.282 11.069.563 38.686.564 40.44.564 16.714.282 4.76.282 2.539.282-.587.564-4.407.846-2.61.282-1.416.282.436.282 2.131.282 1.175.564-1.74.282.013.282-1.066.564-6.737.282-1.593.281.107.282 1.435.564 5.098.282.7.282.333 1.128 7.386.564 7.995.282 1.658.282.62.282 3.053.282 4.64.282 2.182.282-1.378.564-4.874.282-3.835.282-7.777.564-27.817.845-52.357.564-35.076.282-7.875.282-1.91.282 2.54.282 7.817.564 29.3 1.128 68.358.282 7.159.564 6.993.282 1.472.282-.012.282-.267.282-.047.282-.525.282-.765.282.292.282 1.26.282.462.845-3.438 1.128-5.529.564-4.975.282-.428.846 3.688.282.212.282.647 1.128 6.88.282 2.736 1.41 21.748.845 6.918.282-1.173.282-7.265.564-29.376 1.692-118.344.282-7.596.282-1.812.282 1.766.282 5.792.282 11.905.846 58.694.564 33.896.564 15.196.282 4.85.281 1.986.282-1.528.282-.603.846 10.636 1.41-10.997.282-1.034.564-.229.282.33.282.52.282.136.282.736.564 4.592.282.882.282.41.282.671.282-.632.563-4.39.282 1.05.564 5.648.564 3.416.282 4.036.846 19.513.282 1.288.282-.3.282-1.31.282-5.046.282-11.492.564-39.527.846-66.03.564-32.342.282-10.907.282-4.07.282 2.604.282 6.856.281 10.225.564 35.099.846 67.492.282 12.335.282 5.864.282 2.844.282 1.316.282-1.266.282-3.076.282-1.281.564 4.338.282-.135.282-1.333.564-.797.282-2.196.282-3.18.282-1.905.282-.161.282.287.282-.292.281-.732.282-.268.282.98.564 2.783.282.374.846 2.212.282 1.208 1.41 17.287.564 10.088.564 6.028.282 1.286.282-2.319.282-6.102.282-10.907.564-42.128.845-68.824.564-27.342.564-12.005.282.028.282 7.01.846 36.038.846 63.519.282 9.042.564 10.045.282 2.684.282-.188.564-3.368.282-.896.282.416.564 1.868.281 1.842.564 7.872.282 1.464.282.21.282.946.282.16.564-4.857.282-.37.282-.655.564-6.701.282 1.101.564 6.635.282 1.829.282 3.94.564 11.31.846 12.7.564 8.468.281.604.282-1.637.282-2.708.282-5.438.282-12.119.564-43.563 1.41-111.47.282-9.715.282-2.474.282 2.803.282 6.034.282 9.296.564 29.174.846 57.56.564 33.697.563 16.122.282 2.71.282.586.282.996.282 1.443.282.034.282-1.172.282-.67.282-.292.282-.964.282-1.497.282-2.114.846-10.091.282-1.31.564-4.781.282.15.282 1.74.282.646.282.243.282 1.981 1.41 16.52.281 4.677 1.41 30.973.282 4.462.282.932.282-2.116.282-3.833.282-7.569.282-14.976.564-51.347.846-83.921.564-35.096.282-5.848.282.615.282 4.963.563 18.913.564 27.683 1.128 75.421.564 24.923.282 4.939.282.025.282.627.282 3.057.282 1.793.564-3.118.564.606.564-3.813.282-.33.282.316.282-.049.282.716.564 2.971.281.06.282.315.282.512.282-.68.282-1.037.282.991.564 5.804 1.128 7.168.282 1.278.282 2.632 1.128 15.666.282 2.765.282.253.282-4.94.282-10.88.564-38.847 1.127-108.879.564-28.935.282-3.324.282 2.832.564 14.345.564 25.689 1.692 99.52.564 11.525.282 2.902.282 1.103.282 1.67.564 6.777.282-.606.281-2.386.282.045.282 2.389.282 1.054.564-2.562.282-.495.282-1.328.846-8.116.282-.632.282.924.564 4.473.564 6.13.564 6.57.564 5.045.282 3.875.564 14.966.282 7.424.282 4.32.281 2.189.282.767.282-3.356.282-11.16.564-46.634 1.128-121.773.282-16.053.282-9.475.282-3.374.282 1.74.564 9.977.564 15.764.564 29.061 1.128 81.29.282 8.845.563 7.208.282 3.154.282 1.49.564-1.146.282.332.846 3.555.282-.347.564-3.354.564-3.573.282.107.564 4.378.282.65.282 1.763.846 15.916.282 2.1.563 2.161.282 2.401.846 13.533.846 15.08.282 2.85.282 1.701.282-.782.282-6.832.282-15.243.564-52.321.846-93.362.564-34.418.564-13.076.282-5.722.282-2.403.282 3.492.563 16.936.282 13.126 1.692 112.173.282 7.594.846 11.592.282 1.162.282.442.846 4.458.282-.033.282-.46.282.162.564 1.965.282-1.048.564-4.468.281.72.564 5.827.564 8.797.564 9.503 1.974 25.615 1.128 16.713.282-5.657.282-12.211.282-17.405.564-56.328.845-94.623.564-34.369.282-7.738.282-4.32.282-2.341.282.53.282 4.067.282 7.036.564 23.728 1.128 72.97.564 36.415.282 10.442.564 10.706.282 4.135.282 2.337.564 2.26.282 1.598.282.575.281-.061.282.88.282 1.497.282.358.282-.348.282 1.17.282 2.456.282.763.282-1.35.282.206.564 7.988.282 1.237.282.63.846 10.418.282-.469.282 1.852.564 7.076.282.047.282 1.11.282 3.609.282 2.18.281-3.927.282-11.69.564-46.55.846-91.926.564-35.167.282-6.31.564-3.329.282-1.539.282.375.282 3.355.564 11.983.564 21.947.846 47.733.564 31.05.845 28.35.564 9.185.846 12.294.282.317.564.35.282-1.463.564-5.828.282-.142.564 3.282.282.895.282 1.45.846 9.95.282.929.282 1.99 1.127 14.65.846 17.04.564 8.078.282-1.837.282-10.585.564-46.285 1.41-152.92.282-9.586.564-9.69.282-1.228.282 1.39.282 2.995.282 4.856.564 18.45.845 39.484 1.974 101.39.282 7.224.282 2.946.282.253h.282l.282.173.282-.42.846-2.428.282-1.273.282-.383.282.244.282-.661.282-1.265.282.419 1.41 13 1.973 31.268.564 12.067.282 3.583.282-.57.282-7.732.282-17.81.564-66.11.564-73.907.282-26.563.282-15.967.282-6.876.845-10.457.282-.195.282 2.49.282 4.628.564 19.618.564 24.795 1.128 60.722 1.128 43.884.564 11.245.282 1.385.282-.673.282.513.282 1.176.282-.882.282-1.938.282.707.281 3.19.282 1.928.564-1.095.282.567.282.87.282 1.79.282 4.567.564 11.726.282 2.18.282 1.113.282 2.808 1.692 28.79.282-1.368.282-6.537.282-12.141.282-19.923.564-67.169.563-71.246.282-22.212.282-12.858.564-12.395.282-2.11.282.901.564 6.17.282 5.513.564 18.591.564 26.482 1.41 80.566.564 22.09.282 5.97.282 3.02.282 1.54.282.566.281-.836.282-1.93.282-.985.282 1.768.564 6.765.564 2.842.282.815.282-1.329.282-2.213.282.597.564 5.927.282.858.282 3.033.564 11.026.564 8.28 1.128 23.188.282 4.186.282-5.448.281-15.936.564-58.055.846-108.005.282-14.687.564-15.099.282-4.333.282-1.415.282.422.282 1.322.282 3.053.282 6.386 1.41 48.207 1.128 43.977.845 28.015.564 13.39.564 11.046.282 6.678.282 3.68.282.97.282 1.63.282 2.338.282-.285.564-5.532.282.98.282 1.551.282-.33.282.079.282 4.005.564 13.844.564 5.857.564 6.228.281 1.16.282-.688.282-.045.846 5.767.282-2.569.282-9.963.282-21.618 1.128-131.33.282-14.977.564-13.259.564-9.672.282-1.136.282 2.541.564 11.335.564 20.036.845 36.784 1.692 57.283 1.41 32.148.846 8.193.282-.493.282-3 .282-1.467.282.993.282.533.282.05.282 2.913.564 10.23.563 3.535.564 4.553.282 1.054.282 3.11.846 15.47.564 8.176.282.627.282-3.938.282-9.645.282-18.171.564-65.528.564-66.62.282-19.23.564-16.925.564-9 .282.677.563 10.63.564 13.497 2.538 80.765 1.128 28.073 1.128 18.374.564 7.899.282 1.568.282-.437.282.446.845 6.224.282 1.364.282 2.32.846 9.168.282 1.418.282.572.282-.014.282 1.125.846 10.126.564 3.718.282-.306.282-9.373.282-22.852.846-103.347.564-31.64.563-17.725.282-3.94.282-.61.282 1.15.282 3.32.846 18.571.564 21.512.564 20.573.846 22.036.846 26.945.564 11.538.564 13.433.282.69.282-1.582.282-.004.282 1.128.281-.147.282-.871.282.408.564 3.17.564 1.926 1.128 6.284.846 3.272.282 2.28.564 9.491.846 16.472.564 5.26.282-1.647.282-11.03.563-56.21.564-53.834.564-23.769.564-21.33.282-4.485.282.57.282 1.714.282 2.821.282 6.698.564 17.716.564 15.033.564 17.457.564 10.987.846 23.314.845 16.85.282 7.73.282 4.516.282.606.282.208.282 1.428.282-.178.564-6.71.282-1.385.282.148.564 1.247.564 2.068.564 3.23.282.544.282.897.846 8.42.282 3.969.564 12.284.563 6.094.282 2.176.282-.24.282-6.902.282-16.837.846-76.274.564-23.91.564-17.677.282-2.59.282-.305.282-.059.282 2.105.846 15.66 1.128 28.515.564 17.682.563 13.203.846 12.074.282 1.68 1.41 12.063.282 1.638.282-.846.282-2.27.282-.839.282 1.233.564 4.608.846 9.58.564 8.02.282 1.968.282-.907.563-3.824.282.83.282 4.2.564 10.81.846 9.047.282-5.67.564-43.37.564-43.101.564-25.848.564-10.977.282-3.543.282-1.625.282.803.282 1.712.564 1.958.282 2.69.563 12.92L587 141.939l1.128 43.71.282 2.912.282-1.055.282-4.428.282-7.89.564-27.12.564-29.091.282-3.272.282 3.824.282 6.881.282 10.505 1.128 61.054.563 11.533.282.581.564-6.623.282-4.716.564-13.404.282.414.282 4.595.282 2.41.282-.546.282-.005.282-1.454.282-8.913.846-48.753.564-18.999.282-4.766.846-5.564.282-1.009.282-.036.281.595.282 1.948.564 9.977 1.692 32.983.564 6.95 1.41 13.552.282 1.085.564-2.211.564 2.395.282.024.282-.183.282.774.281.312.282-.526.282.393.282 1.223.282-1.04.282-3.224.282-1.147.564 5.736.282.818.282 1.327 1.128 16.176.846 8.776.282 1.78.282-.92.282-7.363 1.128-60.927.563-24.934.282-5.502.564-4.707.282-.79.282 1.41.564 5.505.564 10.05.564 11.13 1.128 32.882.564 5.79.282 1.705.282.975.564.761.282 1.339.564 7.022.281-.395.282-2.902.564-2.148.846-11.44.564 3.624.282.63.846 4.243.282 1.336.564 4.564.564 3.468.282 1.68.282.414.282 1.788.846 13.973.282 3.145.281.402.282-7.904.846-48.818.564-19.155.282-5.083.846-8.11.282-.489.282 1.172.282-.017.282-1.042.282 2.046.564 16.439.846 23.68.564 9.993.564 4.473.281 1.796.282 1.01.282-.646.282-1.894.282-.247.564 5.81.282.728.564-1.694.282.01.564-1.146.282.49.564 2.444.282.118.282-.694.282-.2.282.96.282 1.574.282.425.282.066.564 2.264.563-1.711.282 3.242.564 10.384.282 1.157.282 2.45.282 3.715.282-2.912.564-31.968.564-27.92.564-21.259.282-5.885.282-1.915.282.716.282 2.05.846 11.21 1.691 36.684.282 7.33.282 3.592.282.025.282 1.338.282 2.658.282.236.564-9.003.282.102.282 2.34.282-1.337.282-2.57.282.45.282 4.528.282 2.221.282-.79.282-1.995.564 1.718.564 3.112.282 3.474.282.414.281 3.366h0" clip-path="url(#p27ae433402)" style="fill:none;stroke:#1f77b4;stroke-width:1.5;stroke-linecap:square"/><path id="patch_3" d="M71.308 267.055V.943" style="fill:none;stroke:gray;stroke-width:.8;stroke-linejoin:miter;stroke-linecap:square"/><path id="patch_4" d="M685.107 267.055V.943" style="fill:none;stroke:#000;stroke-width:.8;stroke-linejoin:miter;stroke-linecap:square"/><path id="patch_5" d="M71.308 267.055h613.8" style="fill:none;stroke:gray;stroke-width:.8;stroke-linejoin:miter;stroke-linecap:square"/><path id="patch_6" d="M71.308.943h613.8" style="fill:none;stroke:#000;stroke-width:.8;stroke-linejoin:miter;stroke-linecap:square"/></g></g><defs><clipPath id="p27ae433402"><path d="M71.308.943h613.8v266.112h-613.8z"/></clipPath></defs></svg>