<svg xmlns="http://www.w3.org/2000/svg" xmlns:xlink="http://www.w3.org/1999/xlink" width="913.477" height="377.053" viewBox="0 0 685.107 282.79"><defs><style>*{stroke-linejoin:round;stroke-linecap:butt}</style></defs><g id="figure_1"><path id="patch_1" d="M0 282.79h685.107V0H0v282.79z" style="fill:none"/><g id="axes_1"><path id="patch_2" d="M71.308 266.112h613.8V0h-613.8v266.112z" style="fill:none"/><g id="matplotlib.axis_1"><g id="xtick_1"><g id="line2d_1"><defs><path id="m690fd77c0e" d="M0 0v3.5" style="stroke:gray;stroke-width:.8"/></defs><use xlink:href="#m690fd77c0e" x="99.207" y="266.112" style="fill:gray;stroke:gray;stroke-width:.8"/></g><g id="text_1" style="fill:gray" transform="matrix(.1 0 0 -.1 96.026 280.71)"><defs><path id="DejaVuSans-30" d="M2034 4250q-487 0-733-480-245-479-245-1442 0-959 245-1439 246-480 733-480 491 0 736 480 246 480 246 1439 0 963-246 1442-245 480-736 480zm0 500q785 0 1199-621 414-620 414-1801 0-1178-414-1799Q2819-91 2034-91q-784 0-1198 620-414 621-414 1799 0 1181 414 1801 414 621 1198 621z" transform="scale(.01563)"/></defs><use xlink:href="#DejaVuSans-30"/></g></g><g id="xtick_2"><use xlink:href="#m690fd77c0e" id="line2d_2" x="168.958" y="266.112" style="fill:gray;stroke:gray;stroke-width:.8"/><g id="text_2" style="fill:gray" transform="matrix(.1 0 0 -.1 159.414 280.71)"><defs><path id="DejaVuSans-35" d="M691 4666h2478v-532H1269V2991q137 47 274 70 138 23 276 23 781 0 1237-428 457-428 457-1159 0-753-469-1171Q2575-91 1722-91q-294 0-599 50Q819 9 494 109v635q281-153 581-228t634-75q541 0 856 284 316 284 316 772 0 487-316 771-315 285-856 285-253 0-505-56-251-56-513-175v2344z" transform="scale(.01563)"/></defs><use xlink:href="#DejaVuSans-35"/><use xlink:href="#DejaVuSans-30" x="63.623"/><use xlink:href="#DejaVuSans-30" x="127.246"/></g></g><g id="xtick_3"><use xlink:href="#m690fd77c0e" id="line2d_3" x="238.708" y="266.112" style="fill:gray;stroke:gray;stroke-width:.8"/><g id="text_3" style="fill:gray" transform="matrix(.1 0 0 -.1 225.982 280.71)"><defs><path id="DejaVuSans-31" d="M794 531h1031v3560L703 3866v575l1116 225h631V531h1031V0H794v531z" transform="scale(.01563)"/></defs><use xlink:href="#DejaVuSans-31"/><use xlink:href="#DejaVuSans-30" x="63.623"/><use xlink:href="#DejaVuSans-30" x="127.246"/><use xlink:href="#DejaVuSans-30" x="190.869"/></g></g><g id="xtick_4"><use xlink:href="#m690fd77c0e" id="line2d_4" x="308.457" y="266.112" style="fill:gray;stroke:gray;stroke-width:.8"/><g id="text_4" style="fill:gray" transform="matrix(.1 0 0 -.1 295.733 280.71)"><use xlink:href="#DejaVuSans-31"/><use xlink:href="#DejaVuSans-35" x="63.623"/><use xlink:href="#DejaVuSans-30" x="127.246"/><use xlink:href="#DejaVuSans-30" x="190.869"/></g></g><g id="xtick_5"><use xlink:href="#m690fd77c0e" id="line2d_5" x="378.207" y="266.112" style="fill:gray;stroke:gray;stroke-width:.8"/><g id="text_5" style="fill:gray" transform="matrix(.1 0 0 -.1 365.483 280.71)"><defs><path id="DejaVuSans-32" d="M1228 531h2203V0H469v531q359 372 979 998 621 627 780 809 303 340 423 576 121 236 121 464 0 372-261 606-261 235-680 235-297 0-627-103-329-103-704-313v638q381 153 712 231 332 78 607 78 725 0 1156-363 431-362 431-968 0-288-108-546-107-257-392-607-78-91-497-524-418-433-1181-1211z" transform="scale(.01563)"/></defs><use xlink:href="#DejaVuSans-32"/><use xlink:href="#DejaVuSans-30" x="63.623"/><use xlink:href="#DejaVuSans-30" x="127.246"/><use xlink:href="#DejaVuSans-30" x="190.869"/></g></g><g id="xtick_6"><use xlink:href="#m690fd77c0e" id="line2d_6" x="447.957" y="266.112" style="fill:gray;stroke:gray;stroke-width:.8"/><g id="text_6" style="fill:gray" transform="matrix(.1 0 0 -.1 435.233 280.71)"><use xlink:href="#DejaVuSans-32"/><use xlink:href="#DejaVuSans-35" x="63.623"/><use xlink:href="#DejaVuSans-30" x="127.246"/><use xlink:href="#DejaVuSans-30" x="190.869"/></g></g><g id="xtick_7"><use xlink:href="#m690fd77c0e" id="line2d_7" x="517.707" y="266.112" style="fill:gray;stroke:gray;stroke-width:.8"/><g id="text_7" style="fill:gray" transform="matrix(.1 0 0 -.1 504.983 280.71)"><defs><path id="DejaVuSans-33" d="M2597 2516q453-97 707-404 255-306 255-756 0-690-475-1069Q2609-91 1734-91q-293 0-604 58T488 141v609q262-153 574-231 313-78 654-78 593 0 904 234t311 681q0 413-289 645-289 233-804 233h-544v519h569q465 0 712 186t247 536q0 359-255 551-254 193-729 193-260 0-557-57-297-56-653-174v562q360 100 674 150t592 50q719 0 1137-327 419-326 419-882 0-388-222-655t-631-370z" transform="scale(.01563)"/></defs><use xlink:href="#DejaVuSans-33"/><use xlink:href="#DejaVuSans-30" x="63.623"/><use xlink:href="#DejaVuSans-30" x="127.246"/><use xlink:href="#DejaVuSans-30" x="190.869"/></g></g><g id="xtick_8"><use xlink:href="#m690fd77c0e" id="line2d_8" x="587.457" y="266.112" style="fill:gray;stroke:gray;stroke-width:.8"/><g id="text_8" style="fill:gray" transform="matrix(.1 0 0 -.1 574.732 280.71)"><use xlink:href="#DejaVuSans-33"/><use xlink:href="#DejaVuSans-35" x="63.623"/><use xlink:href="#DejaVuSans-30" x="127.246"/><use xlink:href="#DejaVuSans-30" x="190.869"/></g></g><g id="xtick_9"><use xlink:href="#m690fd77c0e" id="line2d_9" x="657.207" y="266.112" style="fill:gray;stroke:gray;stroke-width:.8"/><g id="text_9" style="fill:gray" transform="matrix(.1 0 0 -.1 644.482 280.71)"><defs><path id="DejaVuSans-34" d="M2419 4116 825 1625h1594v2491zm-166 550h794V1625h666v-525h-666V0h-628v1100H313v609l1940 2957z" transform="scale(.01563)"/></defs><use xlink:href="#DejaVuSans-34"/><use xlink:href="#DejaVuSans-30" x="63.623"/><use xlink:href="#DejaVuSans-30" x="127.246"/><use xlink:href="#DejaVuSans-30" x="190.869"/></g></g></g><g id="matplotlib.axis_2"><g id="ytick_1"><g id="line2d_10"><defs><path id="md30a4756e0" d="M0 0h-3.5" style="stroke:gray;stroke-width:.8"/></defs><use xlink:href="#md30a4756e0" x="71.308" y="239.247" style="fill:gray;stroke:gray;stroke-width:.8"/></g><g id="text_10" style="fill:gray" transform="matrix(.16 0 0 -.16 0 245.326)"><defs><path id="DejaVuSans-2212" d="M678 2272h4006v-531H678v531z" transform="scale(.01563)"/></defs><use xlink:href="#DejaVuSans-2212"/><use xlink:href="#DejaVuSans-32" x="83.789"/><use xlink:href="#DejaVuSans-30" x="147.412"/><use xlink:href="#DejaVuSans-30" x="211.035"/><use xlink:href="#DejaVuSans-30" x="274.658"/><use xlink:href="#DejaVuSans-30" x="338.281"/></g></g><g id="ytick_2"><use xlink:href="#md30a4756e0" id="line2d_11" x="71.308" y="198.95" style="fill:gray;stroke:gray;stroke-width:.8"/><g id="text_11" style="fill:gray" transform="matrix(.16 0 0 -.16 0 205.03)"><use xlink:href="#DejaVuSans-2212"/><use xlink:href="#DejaVuSans-31" x="83.789"/><use xlink:href="#DejaVuSans-30" x="147.412"/><use xlink:href="#DejaVuSans-30" x="211.035"/><use xlink:href="#DejaVuSans-30" x="274.658"/><use xlink:href="#DejaVuSans-30" x="338.281"/></g></g><g id="ytick_3"><use xlink:href="#md30a4756e0" id="line2d_12" x="71.308" y="158.654" style="fill:gray;stroke:gray;stroke-width:.8"/><use xlink:href="#DejaVuSans-30" id="text_12" style="fill:gray" transform="matrix(.16 0 0 -.16 54.127 164.732)"/></g><g id="ytick_4"><use xlink:href="#md30a4756e0" id="line2d_13" x="71.308" y="118.357" style="fill:gray;stroke:gray;stroke-width:.8"/><g id="text_13" style="fill:gray" transform="matrix(.16 0 0 -.16 13.408 124.436)"><use xlink:href="#DejaVuSans-31"/><use xlink:href="#DejaVuSans-30" x="63.623"/><use xlink:href="#DejaVuSans-30" x="127.246"/><use xlink:href="#DejaVuSans-30" x="190.869"/><use xlink:href="#DejaVuSans-30" x="254.492"/></g></g><g id="ytick_5"><use xlink:href="#md30a4756e0" id="line2d_14" x="71.308" y="78.06" style="fill:gray;stroke:gray;stroke-width:.8"/><g id="text_14" style="fill:gray" transform="matrix(.16 0 0 -.16 13.408 84.14)"><use xlink:href="#DejaVuSans-32"/><use xlink:href="#DejaVuSans-30" x="63.623"/><use xlink:href="#DejaVuSans-30" x="127.246"/><use xlink:href="#DejaVuSans-30" x="190.869"/><use xlink:href="#DejaVuSans-30" x="254.492"/></g></g><g id="ytick_6"><use xlink:href="#md30a4756e0" id="line2d_15" x="71.308" y="37.764" style="fill:gray;stroke:gray;stroke-width:.8"/><g id="text_15" style="fill:gray" transform="matrix(.16 0 0 -.16 13.408 43.842)"><use xlink:href="#DejaVuSans-33"/><use xlink:href="#DejaVuSans-30" x="63.623"/><use xlink:href="#DejaVuSans-30" x="127.246"/><use xlink:href="#DejaVuSans-30" x="190.869"/><use xlink:href="#DejaVuSans-30" x="254.492"/></g></g></g><path id="line2d_16" d="m99.207 158.621.282.064.282-.062.282.06.282-.058.564.002.846.052.846-.048.846.044.846-.04.846.036.846-.033.845.03 1.128-.003 1.41-.018 2.256.017.846-.04.282.072.282-.106.282.17.281-.326.282 1.137.282 6.06.564 2.349.282.216.846 2.473.282 1.529.564 4.253.564 1.293.282 1.253.282.154.564-3.665.282-.431.282.382.282-.443.564-4.015.282-2.626.282-5.411.563-24.612.564-24.334.564-15.948.282-4.866.282.261.282 5.115.564 16.982 1.128 42.291.564 10.18.564 6.246.564 3.72.282.624.282-.504.846-3.697.281-.91.846-4.933.564 2.32.282-.332.282-.65.282.211 1.128 4.577.846 2.217.282.154.282.773.564 3.237.282.285.282-.201.564.206.282-.639.281-1.474.282-3.067.282-6.058.564-23.71.846-37.211.564-15.806.282-1.878.282 2.725.564 12.606.564 24.588.564 22.087.846 18.194.282 2.573.282.135.282-.76.282-.21.563.42.846-.832.282-.589 1.128-5.094.282-.401.564.653.282.54.564 1.96.564.737.564 2.895.282-.39.282-.77.282 1.057.564 3.842.282.806.563 2.524.282.087.282-.195.282-.007.282-.927.282-3.294.282-5.906.564-21.194 1.128-48.402.282-7.694.282-1.943.282 2.443.282 5.454.564 20.786.564 23.54.564 13.955 1.127 12.564.282 1.05.282.17.282-.061.282-.56.282-.885.282.08.282.53.282-.55.564-3.555.564-2.294.282-.598 1.128 2.5 1.128 10.11.282.065.563.413.282-.66.282-1.203.282-.656.282.895.282 1.598.282.923.282-.009.282.566.282 1.459.282.514.282-3.223.282-7.695.564-23.95 1.128-53.915.282-6.11.282-1.778.282 1.2.282 5.098 1.41 51.664.563 17.556.282 2.943.282.797.282.349.282.025.282.481.846 3.56.282-.05.282-.804.564-2.918.564-.913.564-2.513.282.481.846 4.631.563 4.46.564 2.183.564 2.303.282 1.553 1.128 8.389.846 10.9.282-1.681.282-4.6.282-7.634.564-30.715.564-34.569.564-20.6.282-6.462.282-3.316.282 1.194.281 6.86 1.692 64.23.564 8.77.564 4.976.564 2.072.282-.458.282-1.409.282-.72.282.345.282-.455.282-1.318.282-.144.282 1.571.282.892.282-.43.282.09.563 2.851.564.885.846 3.16 1.128 4.272.564 2.69.282.406.282.622.846 3.205.282-.117.282-1.323.282-2.861.282-5.695.282-9.895 1.41-70.503.563-13.948.282-1.888.282 2.162.282 6.811.564 26.508.564 24.853.846 23.956.282 4.016 1.128 3.796.282-.54.846-2.841.282-1.424.282-.79.563-.656.282-.586.282.098.564.902.282.18.846 3.114.282.305.564 1.685.564 2.611.564 3.037.282.825.282 1.783.846 9.114.282.815.282-.394.282-1.647.282-4.195.281-9.504 1.692-87.646.282-8.84.282-4.076.282.146.282 3.586.282 8.263.564 31.693.564 28.954.564 15.219.564 8.144.564 3.914.282 1.06.282-.04.282-.333.282.113.281-.507.846-5.899.282-.552.282-.805.282-1.369.282-.446.282 1.275 1.41 10.471.564 3.53 2.256 10.165.282.563.281-1.245.282-4.226.282-8.095.564-27.5 1.128-60.414.564-18.662.282-2.132.282 3 .282 6.86.282 11.45.846 48.16.846 25.547.282 4.286.564 3.813.282 2.612.282.489.281-.06.564 3.743.282-1.407.282-2.733.282-.992.282.011.282-.645.282.344.564 3.877.282-.022.282.381 1.692 11.177.282.667.846 4.98.564-.217.281.898.282 1.432.282.778.282-.515.282-2.812.282-6.56.564-26.862 1.41-85.5.282-9.603.282-5.723.282-1.197.282 3.93.282 9.577.564 33.898.564 32.31.564 16.268.563 10.336.846 6.455.282 1.494.282.15.282-.345.564-.031.564-1.502.282-.137.564 1.246.282.844.564 3.144.564 3.177.282.68.282.284.282.691 1.128 5.956.563 5.088 1.128 5.725.282-.089.282-2.85.282-6.214.564-24.49 1.692-92.124.282-7.762.282-4.093.282-.935.282 3.497.282 9.927.564 37.126.563 37.044.564 21.188.564 6.948.564 5.459.282.406.282-.806.282-.056.282-.17.282-2.325.564-6.58.282-.221.282.362.564-1.525.282.401 1.128 6.933.282 1.803.282 1.056.281 1.795.846 11.27.282.795.282 1.568.564 5.652.282 1.209.282-.13.282-2.784.282-7.99.564-29.294 1.692-93.563.282-7.553.282-3.763.282.319.282 4.901.282 10.707.563 39 .564 40.334.282 11.99.282 6.065.282 1.746.282.533.564 3.42.282.343.282-.77.282.332.564 3.967.282-.08.564-2.762.282-.415.282.466.564 2.212 1.128 5.636.281.45.282.775.846 5.28.564 4.49.564 5.207.282 1.043.282.247.282-.405.282-3.34.282-9.347 1.128-66.836.846-54.882.564-22.437.282-5.03.282 1.971.282 7.782.281 12.1.564 39.865.564 41.747.564 22.149.282 5.855.282 3.482 1.128 7.688.282.348.564-2.865.282-.211.282-.65.282-1.53.282-.21.282 1.442.282.849.282-.453.282.868.563 5.997.846 4.11.564 4.48.564 4.89.564 1.818.564 3.528.282-.865.282-3.34.282-6.345.282-11.653 1.41-90.934.564-32.672.564-17.474.281-1.02.282 6.006.564 24.934.564 44.202.564 37.711.564 13.046.564 6.073.564 3.655.282.7.282-.14.282-.419.282-.771.282-1.18.282-.418.282.143.282-1.034.282-2.371.282-.799 1.127 8.236.564 7.394.282.946.282.243.564 3.39.282-.24.282-.621.282 1.195.846 6.65.846 10.77.564 4.866.282 1.074.282-2.353.282-7.042.564-29.992 1.973-139.197.282-8.41.282.086.282 6.554.564 22.693.564 45.154.564 45.268.564 19.064.564 9.705.282 1.983.282.985.282.481.282-.47 2.255-11.248.282-.09.282-.371.846-5.334.846 1.144.564.542.282-.135.282.426.282 1.423.846 5.556.282 1.244.282 1.75 1.41 12.054.845 4.154.564 3.01.282.411.282.87.282 2.108.846 9.26.282 1.634.282.354.282-.512.282-1.532.282-5.25.282-11.552.846-55.4 1.127-78.387.564-25.321.282-2.914.282 3.994.564 19.786.564 37.629.564 45.918.564 25.926.564 13.795.282 3.48.564 2.067.282.365.282-.761.846-4.173.564-2.408.563-1.057.846-2.75.282.406 1.128 6.341.564 2.227.564 3.009.564 6.462.846 13.305.564 4.116.564 4.797.282.533.282-2.704.281-5.876.282-9.695.564-32.903 1.128-71.115.564-25.48.282-8.37.282-3.555.282 2.97.564 18.747.282 15.433.846 64.664.564 17.325.564 9.512.282.684.282-.07.281.76.282.322.282-1.13 1.128-8.348.846-4.484.282 1.176.564 4.807.282 1.835.564 7.974.564 6.75.564 5.107 1.973 26.65.282.298.282-3.965.282-7.74.564-25.854.846-59.683.846-59.508.564-25.106.282-3.967.282 1.12.282 5.031.282 8.129.282 12.134.564 40.656.564 44.438.282 13.663.282 6.946 1.127 8.458.564-3.966.282 1.269.282 3.867.282 1.642.282-1.805.282-2.678.282-1.53.282-.144.282 2.093.564 8.193.564 4.26.564 6.614.564 3.951 1.41 17.703.281 3.458.282 1.785.282.558.282-2.085.282-7.854.564-32.626 1.128-81.581.564-39.219.282-14.006.282-6.388.282 2.108.564 17.783.564 31.524.846 61.587.282 12.7.281 6.836 1.128 7.914.564-4.2.282 1.815.282 4.517.282 2.12.564-2.422.282.531.564 1.525.282 1.663.564 5.015.564 4.337 1.128 11.03.563 7.361.564 6.036.564 7.112.282 1.21.282-1.572.282-5.694.282-11.278.564-37.714 1.41-106.564.564-21.494.282-6.028.282-2.334.282 1.429.282 4.2.282 7.749.282 14.41 1.127 82.68.564 21.858.564 9.242.282 2.423.564 2.38.282.936.282-.738.282-2.108.282-.927 1.128 6.615.846 7.005 1.128 14.344 2.255 25.813.282-1.296.282-7.444.564-29.687.564-41.43.846-80.24.564-25.655.564-13.67.282-1.217.282 2.755.282 5.72.282 9.408.563 34.158.846 64.5.564 22.033.564 10.058 1.128 9.92.282 1.429.564.292.282 1.13 1.128 7.249 1.41 10.43.845 8.354.564 7.194.846 7.34.282-1.402.282-6.675.282-11.515.564-36.72 1.692-127.485.564-15.186.282-4.683.282.365.282 4.517.282 7.395.282 11.568.563 37.448.846 58.784.282 11.048.564 9.988 1.41 14.733.282.501.282.064.282.782.846 5.344.564 4.474.846 8.193.563 5.693.564 4.261 1.692 20.462.282 1.243.282-.761.282-3.306.282-8.088.564-32.478.846-69.232.564-48.091.564-29.92.282-10.063.282-5.976.282-.352.282 4.024.563 13.505.564 28.082 1.41 94.532.564 12.908.564 7.744.564 6.75.282 3.964 1.128 10.133.564 4.923.846 13.211.281-.706.564-5.323.282-5.765.282-11.937.846-56.145.846-64.873.564-26.156.282-7.043.282-2.754.282 1.217.282 5.752.282 11.25.564 36.948.846 60.926.282 10.15.282 4.076.845 3.966.282.613.564-.922.564.255.846-2.322.282.359.564-.21.564 1.002.282-.33.282.093.282 1.682.846 8.97 1.128 16.334.845 13.542.564 10.14.564 9.873.564 9.596.282 2.26.282 1.332.282-2.95.282-11.39.564-43.564 1.692-169.525.282-9.394.282-4.037.282-1.06.282 1.017.281 3.316.564 10.36.564 17.899.564 29.966.846 59.41.564 21.883.282 5.083.282 1.431.282-.81.564-3.026.282-2.131.282-1.202.282 1.73 1.973 33.535 1.128 14.2 1.128 19.87.846 19.346.282.842.282-1.146.282-.423.282.239.282-.165.282-1.002.282-2.795.282-7.51.564-31.984.846-67.427.845-65.22.564-24.023.282-3.552.282.83.282 3.09.282 4.833.564 16.89.564 26.51 1.128 70.01.282 8.995.282 3.952.282.562.282-.43.282.296.282.959.564 3.125.281 1.82.282 1.038.282.592.282.97.564 3.526 2.538 27.794 1.128 18.228.282 3.004.564 2.997.282.113.282-4.473.282-11.225.563-37.248.846-79.202.564-47.276.564-23.504.282-4.714.282-.488.564 6.26.282 3.985.282 6.526.846 32.415 1.692 88.828.282 4.272.563 2.568 2.538 17.138 1.128 12.827.282 1.718.846 8.91.846 10.918.846 8.022.282.69.281-2.087.282-6.859.282-13.897.846-66.308.846-76.523.282-15.07.282-7.3.564-6.686.282-.059.282 2.736.564 8.974.282 8.158.564 24.375.564 31.534.564 34.563.564 22.498.281 5.992.282 1.46.282-1.142.282-.569.846 3.999.282.486.282 1.995.846 12.788.282.805.282 2.75.564 10.284.282.639.282-.538.282 1.98 1.41 17.774 1.127 10.3.282-3.686.282-9.823.564-32.91.564-52.41.564-56.829.282-19.788.282-11.53.282-5.132.564-4.754.282-.092.282 2.993.564 8.871.282 6.045.564 18.796.564 23.791 1.127 54.565.282 7.065.282 1.972.282.291.282 2.825.282 4.778.282 2.794.282.298.282.682.846 6.745.282 1.702.282 2.984 1.128 16.765.564 6.406.564 6.692.563 5.388.564 6.408.282 1.805.282.71.282-1.035.282-4.516.282-10.141.564-38.222 1.128-106.11.282-12.65.282-5.68.846-9.88.282-1.237.282 1.218.282 3.718.564 14.362.563 19.452.564 26.929.846 42.439.564 15.018.282 2.05.282.86.282 2.145.564 5.026.282 1.18.282 1.81.846 8.572 1.128 17.93.846 8.5.845 10.464.846 7.976.282.619.282-1.91.282-4.669.282-8.369.282-13.438.564-48.76.564-59.664.564-31.983.564-15.344.282-2.41.282.018.282.876.282 2.239.564 10.054.563 15.961 2.256 90.464.282 5.099.282 2.948.282-.079.282-1.759.282-.85.282 1.144.564 5.05 3.101 36.92.846 16.246.564 4.71.282 3.443.282.548.282-4.923.282-9.475.564-31.57.564-55.674.564-54.043.282-15.039.564-14.701.282-4.346.282-1.488.282 1.73.845 10.277.282 6.11 1.128 38.294 1.41 51.813.564 11.578.282 2.643.282.052.282-2.06.282-1.133.282 2.582.564 8.26.282 2.18.282 3.113.564 8.367.845 9.217.846 10.784.564 8.574.564 7.848.564 4.823.282 1.322.282-1.1.282-4.595.282-8.864.282-14.606.564-50.288.564-58.186.282-17.89.564-18.9.282-6.746.282-3.14.282.312.563 2.665.282 3.251.564 12.083.846 25.324 2.256 70.53.282 2.878.282 1.351.564 4.617.564 6.251 1.41 18.515.845 9.212 1.41 17.083 1.128 12.178.282-1.498.282-6.803.282-12.92.564-44.658.564-53.78.564-33.509.564-19.543.563-5.522.282-3.187.282-1.312.282 3.927 1.41 35.59 2.256 66.285.564 11.665.282 3.011.282-.185.282-1.885.282-.53.282 2.491.563 7.072.564 4.905 1.128 14.017.564 5.967 1.692 23.795.564 7.699.282.369.282-4.511.282-10.622.564-37.008 1.127-98.93.564-17.892.282-6.571.282-2.803.282.32.282 1.475.282 2.864 1.41 25.593 1.974 52.253.564 11.638.282 3.379.564 2.53.281 2.838 1.41 22.211.564 8.267.282.188.282-.624.282 2.214.564 7.494.282 2.51 1.974 25.866.282.313.282-2.111.282-6.247.282-11.265.282-16.643 1.127-95.119.564-16.512.564-12.468.282-2.341.282-.742.282.794.564 5.41.282 3.366.564 13.64.846 21.49.564 16.531.564 6.405.845 18.405.282 2.591.282 1.473.282.003.282.517.282 2.918 1.692 29.192.564 9.002.564 4.544 1.974 27.562.282.787.282 1.133.281-11.793h0" clip-path="url(#pab6e97fd15)" style="fill:none;stroke:#1f77b4;stroke-width:1.5;stroke-linecap:square"/><path id="patch_3" d="M71.308 266.112V0" style="fill:none;stroke:gray;stroke-width:.8;stroke-linejoin:miter;stroke-linecap:square"/><path id="patch_4" d="M685.107 266.112V0" style="fill:none;stroke:#000;stroke-width:.8;stroke-linejoin:miter;stroke-linecap:square"/><path id="patch_5" d="M71.308 266.112h613.8" style="fill:none;stroke:gray;stroke-width:.8;stroke-linejoin:miter;stroke-linecap:square"/><path id="patch_6" d="M71.308 0h613.8" style="fill:none;stroke:#000;stroke-width:.8;stroke-linejoin:miter;stroke-linecap:square"/></g></g><defs><clipPath id="pab6e97fd15"><path d="M71.308 0h613.8v266.112h-613.8z"/></clipPath></defs></svg>