<svg xmlns="http://www.w3.org/2000/svg" xmlns:xlink="http://www.w3.org/1999/xlink" width="913.477" height="377.053" viewBox="0 0 685.107 282.79"><defs><style>*{stroke-linejoin:round;stroke-linecap:butt}</style></defs><g id="figure_1"><path id="patch_1" d="M0 282.79h685.107V0H0v282.79z" style="fill:none"/><g id="axes_1"><path id="patch_2" d="M71.308 266.112h613.8V0h-613.8v266.112z" style="fill:none"/><g id="matplotlib.axis_1"><g id="xtick_1"><g id="line2d_1"><defs><path id="maa3c2ed04f" d="M0 0v3.5" style="stroke:gray;stroke-width:.8"/></defs><use xlink:href="#maa3c2ed04f" x="99.207" y="266.112" style="fill:gray;stroke:gray;stroke-width:.8"/></g><g id="text_1" style="fill:gray" transform="matrix(.1 0 0 -.1 96.026 280.71)"><defs><path id="DejaVuSans-30" d="M2034 4250q-487 0-733-480-245-479-245-1442 0-959 245-1439 246-480 733-480 491 0 736 480 246 480 246 1439 0 963-246 1442-245 480-736 480zm0 500q785 0 1199-621 414-620 414-1801 0-1178-414-1799Q2819-91 2034-91q-784 0-1198 620-414 621-414 1799 0 1181 414 1801 414 621 1198 621z" transform="scale(.01563)"/></defs><use xlink:href="#DejaVuSans-30"/></g></g><g id="xtick_2"><use xlink:href="#maa3c2ed04f" id="line2d_2" x="168.958" y="266.112" style="fill:gray;stroke:gray;stroke-width:.8"/><g id="text_2" style="fill:gray" transform="matrix(.1 0 0 -.1 159.414 280.71)"><defs><path id="DejaVuSans-35" d="M691 4666h2478v-532H1269V2991q137 47 274 70 138 23 276 23 781 0 1237-428 457-428 457-1159 0-753-469-1171Q2575-91 1722-91q-294 0-599 50Q819 9 494 109v635q281-153 581-228t634-75q541 0 856 284 316 284 316 772 0 487-316 771-315 285-856 285-253 0-505-56-251-56-513-175v2344z" transform="scale(.01563)"/></defs><use xlink:href="#DejaVuSans-35"/><use xlink:href="#DejaVuSans-30" x="63.623"/><use xlink:href="#DejaVuSans-30" x="127.246"/></g></g><g id="xtick_3"><use xlink:href="#maa3c2ed04f" id="line2d_3" x="238.708" y="266.112" style="fill:gray;stroke:gray;stroke-width:.8"/><g id="text_3" style="fill:gray" transform="matrix(.1 0 0 -.1 225.982 280.71)"><defs><path id="DejaVuSans-31" d="M794 531h1031v3560L703 3866v575l1116 225h631V531h1031V0H794v531z" transform="scale(.01563)"/></defs><use xlink:href="#DejaVuSans-31"/><use xlink:href="#DejaVuSans-30" x="63.623"/><use xlink:href="#DejaVuSans-30" x="127.246"/><use xlink:href="#DejaVuSans-30" x="190.869"/></g></g><g id="xtick_4"><use xlink:href="#maa3c2ed04f" id="line2d_4" x="308.457" y="266.112" style="fill:gray;stroke:gray;stroke-width:.8"/><g id="text_4" style="fill:gray" transform="matrix(.1 0 0 -.1 295.733 280.71)"><use xlink:href="#DejaVuSans-31"/><use xlink:href="#DejaVuSans-35" x="63.623"/><use xlink:href="#DejaVuSans-30" x="127.246"/><use xlink:href="#DejaVuSans-30" x="190.869"/></g></g><g id="xtick_5"><use xlink:href="#maa3c2ed04f" id="line2d_5" x="378.207" y="266.112" style="fill:gray;stroke:gray;stroke-width:.8"/><g id="text_5" style="fill:gray" transform="matrix(.1 0 0 -.1 365.483 280.71)"><defs><path id="DejaVuSans-32" d="M1228 531h2203V0H469v531q359 372 979 998 621 627 780 809 303 340 423 576 121 236 121 464 0 372-261 606-261 235-680 235-297 0-627-103-329-103-704-313v638q381 153 712 231 332 78 607 78 725 0 1156-363 431-362 431-968 0-288-108-546-107-257-392-607-78-91-497-524-418-433-1181-1211z" transform="scale(.01563)"/></defs><use xlink:href="#DejaVuSans-32"/><use xlink:href="#DejaVuSans-30" x="63.623"/><use xlink:href="#DejaVuSans-30" x="127.246"/><use xlink:href="#DejaVuSans-30" x="190.869"/></g></g><g id="xtick_6"><use xlink:href="#maa3c2ed04f" id="line2d_6" x="447.957" y="266.112" style="fill:gray;stroke:gray;stroke-width:.8"/><g id="text_6" style="fill:gray" transform="matrix(.1 0 0 -.1 435.233 280.71)"><use xlink:href="#DejaVuSans-32"/><use xlink:href="#DejaVuSans-35" x="63.623"/><use xlink:href="#DejaVuSans-30" x="127.246"/><use xlink:href="#DejaVuSans-30" x="190.869"/></g></g><g id="xtick_7"><use xlink:href="#maa3c2ed04f" id="line2d_7" x="517.707" y="266.112" style="fill:gray;stroke:gray;stroke-width:.8"/><g id="text_7" style="fill:gray" transform="matrix(.1 0 0 -.1 504.983 280.71)"><defs><path id="DejaVuSans-33" d="M2597 2516q453-97 707-404 255-306 255-756 0-690-475-1069Q2609-91 1734-91q-293 0-604 58T488 141v609q262-153 574-231 313-78 654-78 593 0 904 234t311 681q0 413-289 645-289 233-804 233h-544v519h569q465 0 712 186t247 536q0 359-255 551-254 193-729 193-260 0-557-57-297-56-653-174v562q360 100 674 150t592 50q719 0 1137-327 419-326 419-882 0-388-222-655t-631-370z" transform="scale(.01563)"/></defs><use xlink:href="#DejaVuSans-33"/><use xlink:href="#DejaVuSans-30" x="63.623"/><use xlink:href="#DejaVuSans-30" x="127.246"/><use xlink:href="#DejaVuSans-30" x="190.869"/></g></g><g id="xtick_8"><use xlink:href="#maa3c2ed04f" id="line2d_8" x="587.457" y="266.112" style="fill:gray;stroke:gray;stroke-width:.8"/><g id="text_8" style="fill:gray" transform="matrix(.1 0 0 -.1 574.732 280.71)"><use xlink:href="#DejaVuSans-33"/><use xlink:href="#DejaVuSans-35" x="63.623"/><use xlink:href="#DejaVuSans-30" x="127.246"/><use xlink:href="#DejaVuSans-30" x="190.869"/></g></g><g id="xtick_9"><use xlink:href="#maa3c2ed04f" id="line2d_9" x="657.207" y="266.112" style="fill:gray;stroke:gray;stroke-width:.8"/><g id="text_9" style="fill:gray" transform="matrix(.1 0 0 -.1 644.482 280.71)"><defs><path id="DejaVuSans-34" d="M2419 4116 825 1625h1594v2491zm-166 550h794V1625h666v-525h-666V0h-628v1100H313v609l1940 2957z" transform="scale(.01563)"/></defs><use xlink:href="#DejaVuSans-34"/><use xlink:href="#DejaVuSans-30" x="63.623"/><use xlink:href="#DejaVuSans-30" x="127.246"/><use xlink:href="#DejaVuSans-30" x="190.869"/></g></g></g><g id="matplotlib.axis_2"><g id="ytick_1"><g id="line2d_10"><defs><path id="m8101797288" d="M0 0h-3.5" style="stroke:gray;stroke-width:.8"/></defs><use xlink:href="#m8101797288" x="71.308" y="216.802" style="fill:gray;stroke:gray;stroke-width:.8"/></g><g id="text_10" style="fill:gray" transform="matrix(.16 0 0 -.16 0 222.881)"><defs><path id="DejaVuSans-2212" d="M678 2272h4006v-531H678v531z" transform="scale(.01563)"/></defs><use xlink:href="#DejaVuSans-2212"/><use xlink:href="#DejaVuSans-31" x="83.789"/><use xlink:href="#DejaVuSans-30" x="147.412"/><use xlink:href="#DejaVuSans-30" x="211.035"/><use xlink:href="#DejaVuSans-30" x="274.658"/><use xlink:href="#DejaVuSans-30" x="338.281"/></g></g><g id="ytick_2"><use xlink:href="#m8101797288" id="line2d_11" x="71.308" y="154.483" style="fill:gray;stroke:gray;stroke-width:.8"/><use xlink:href="#DejaVuSans-30" id="text_11" style="fill:gray" transform="matrix(.16 0 0 -.16 54.127 160.561)"/></g><g id="ytick_3"><use xlink:href="#m8101797288" id="line2d_12" x="71.308" y="92.163" style="fill:gray;stroke:gray;stroke-width:.8"/><g id="text_12" style="fill:gray" transform="matrix(.16 0 0 -.16 13.408 98.242)"><use xlink:href="#DejaVuSans-31"/><use xlink:href="#DejaVuSans-30" x="63.623"/><use xlink:href="#DejaVuSans-30" x="127.246"/><use xlink:href="#DejaVuSans-30" x="190.869"/><use xlink:href="#DejaVuSans-30" x="254.492"/></g></g><g id="ytick_4"><use xlink:href="#m8101797288" id="line2d_13" x="71.308" y="29.843" style="fill:gray;stroke:gray;stroke-width:.8"/><g id="text_13" style="fill:gray" transform="matrix(.16 0 0 -.16 13.408 35.922)"><use xlink:href="#DejaVuSans-32"/><use xlink:href="#DejaVuSans-30" x="63.623"/><use xlink:href="#DejaVuSans-30" x="127.246"/><use xlink:href="#DejaVuSans-30" x="190.869"/><use xlink:href="#DejaVuSans-30" x="254.492"/></g></g></g><path id="line2d_14" d="m99.207 154.45.282.065.282-.065.282.066.282-.068.282.07.282-.071.282.072.282-.074.282.076.282-.077.282.079.282-.082.282.084.282-.086.282.088.282-.09.282.093.282-.097.282.1.282-.103.282.108.282-.113.282.117.282-.122.282.128.281-.133.282.139.282-.147.282.155.282-.164.282.174.282-.185.282.198.282-.213.282.23.282-.25.282.275.282-.305.282.341.282-.387.282.449.282-.533.282.655.282-.85.282 1.204.282-2.05.282 6.673.282 17.36.282-3.776.282-.526.563 2.307.282-3.163.282.222.564 7.437.282.313.282-1.231.282-4.071.282-6.724.564-24.831.564-31.254.564-18.525.282-3.515.282 3.742.846 23.957.564 25.5.564 13.726.563 11.675.282.337.282-4.04.282-2.015.564 3.947.282-3.587.282-1.994.564 14.441.282.132.282-4.722.282-1.394.282.349.282-4.49.282-6.562.282-2.707.282.91.282.236.564-1.984.282.38.282.966.282.254.282-.668.281.466.564 2.574.282.368.564 2.214.846 4.726.282-.678.282-.259.564 1.126.282.087.282.771.282-.009.282-.926.282.233.282 1.597.282.134.282-1.185.282-.145.282 1.909.564 7.367.281 4.297.282 2.205.282-1.183.282-3.487.282-5.464.282-9.139.564-33.263.564-30.951.282-7.654.282-2.245.282 2.142.282 5.921 1.974 60.708.564 9.45.282 1.239.282.609.563 4.235.282-1.567.564-5.025.846-11.416.282-.415.282-1.452.564-4.099.564-1.513.282-1.175.282-.47.564 2.662.282-.366.282-.098.564 4.211.564-.627.282.674.563-1.199.282 1.714 1.128 10.326.282.433.282-2.168.282-.845.282.963.282.567.282-1.248.564-5.873.564-1.97.564-7.534.282 4.467.564 15.142.282 1.094.282-1.744.282-4.697.563-15.703.564-28.957.282-15.134.282-7.537.282-1.605.282.09.282 3.015 1.128 31.326 1.128 45.574.564 10.34.282-.123.282-1.763.282-1.06.282-2.264 1.128-15.71.281-2.059.282-.5.564-3.161.282 1.017.282 1.92.282-.415.564-3.622.282.988.564 6.93.282-.757.282-1.913.282 1.701.282 2.602.282-2.199.282-4.035.282.494.282 3.218.282-.256.282-2.465.282 1.369.564 8.865.563-1.493.282 2.73.282 1.58.282-3.903.282-5.794.282-1.325.564 6.815.564 6.87.282.357.282-2.995.282-4.215.282-5.961.564-25.14.846-34.827.282-10.585.282-5.085.282.705.564 3.298.282 6.397 1.127 50.84.564 23.202.282 4.933.282 2.003.282 4.062.282 2.386.282-3.964.564-10.608.564-5.14.282-1.745.282-4.077.564-13.471.282.262.282.687.282-1.954.282.723.564 10.015.281.692.282-.69.282-.26.282.243.564 2.367.282 1.036.564 3.165.282-.167.282-2.026.282-.466.282 2.644.564 7.713.282 1.941.282-.92.282-2.386.282-.794.282.974.282.197.282-.402.564 2.045.282-1.084.281-2.118.282-.406.282 1.348.282 2.192.282 4.298.564 12.483.282 3.384.282.798.282-3.382.282-9.31.564-29.73 1.128-68.486.282-5.693.282-.533.282 4.45.564 16.403.846 31.841.563 23.675.282 7.019.846 12.363.282 2.2.282.219.282-1.94.846-12.493.282-2.08.282-.936.282.227.282.59.564-1.475.282 2.312.282 5.292.282 2.955.564-2.226.282 1.463.282-1.105.563-9.947.282-.717.282.365.282-.044.564.515.282.005.282.597.282-.261.282-2.317.282-.99.282 4.032.282 6.38.282 3.615.282.353.282.65.282 2.252.282 1.242.282-1.606.282-.738.282 5.234.564 16.895.845 12.018.282-2.257.564-24.608.564-36.876.564-40.794.282-8.705.282-2.727.282.915.282 4.994.564 19.041 1.41 59.184.282 3.954.282 2.197.564 2.091.282-.097.282-2 .563-7.895.282-1.688.282-.845.564-2.729.282-.295.564-1.435.564 2.237.282-1.206.564-3.015.282-1.312.282.311.282 2.298.282.735.282-.907.282 1.704.282 3.066.282.312.282-.394.564 3.409.282.208.281 1.202.282.569.282-1.654.282.318.282 3.222.282 1.277.282-.321.564 5.885.282.647.282 1.05.564 5.825.282 2.556.564 9.999.282-.7.282-3.42.282-5.177.282-11.237.846-55.41.564-40.795.282-10.952.563-9.64.282 1.414.564 15.853.282 9.718.564 33.024.564 36.393.564 17.859.282 5.874.282 3.085.282.25.282-.15.282-1.102.846-10.57 1.128-3.684.563-7.166.564-1.087.564-4.938.564-2.464.282.017.282 1.124.282.114.282.39.564 5.764.282.05.282.729.564 7.095.564 1.885.282.385.282-2.431.282-3.845.282-1.458 1.127 5.317.564 4.48.282-1.218.282-2.316.282 1.07.564 11.624.564 14.12.282 3.588.282-.42.282-2.088.282-5.355.282-13.856 1.692-127.311.282-7.152.282-1.246.282 1.588.282 5.67.281 12.783 1.692 112.936.282 6.246.564 4.7.282.421.564-6.37.282 1.067.282.528.564-8.685.282-1.161.282-.376.282-4.565.564-12.8.282-1.248.282-.375.282-.948.281.504.282 1.958.282.677.282-.448.282 1.57.564 6.991.282 5.731.564 17.573.282 1.715.282-.894.282-.327.282-3.37.282-6.582.282-3.169.564 5.216.282 2.568 2.255 33.68.282-.229.282-6.057.564-23.028.564-38.044.846-66.458.564-27.51.282-8.21.282-.062.564 13.751.564 21.796.846 51.788.564 34.385.564 17.109.281 4.361.282 1.512.564-4.568.282.225.282-.379.564-8.066.282.746.282 1.726.282-1.562.282-2.44.282-1.014.282-2.586.564-12.472.282-3.034.282-.243.282.375.282-.196.282-.74.282-.196.282 1.017.845 4.5.564 6.123 1.128 6.493.282-.444.282 1.872.564 10.516.282.51.282-.448.282 1.207.282-.766.564-7.856.282 3.022.846 23.335.564 16.46.282 1.627.282-4.39.282-9.72.281-15.374.564-49.669.846-81.894.282-18.229.282-9.758.564-9.415.282.695.564 12.541.282 12.053.564 51.718.564 46.333.564 28.04.282 4.32.282-.491.564-5.96.282-.581.281-.255.564-6.122.564-2.017.282-1.27.282 2.079.282 3.383.282-.468.282-2.215.564.778.564-3.774.846 2.695.846 5.347.846 9.648.282.753 1.127 5.522.282 1.874.282-.16.564-1.725.564-6.245.282 3.265 1.128 35.582.282 6.528.282 2.12.282-2.797.282-8.42.564-37.071 1.41-115.354.563-21.557.282-2.027.564 2.596.282 3.206.282 10.164.846 52.032.846 62.911.282 10.207.282 2.79.282-.345.282.499.282 1.424.282-1.012.564-9.287.564-3.403.564-11.744.282.634.281 4.9.282 1.625.282-2.02.282.715.282 4.176.282 1.046.564-8.982.282-.168.282.386.564-4.95.282 3.35.564 13.884.282.812.282-1.273.282 1.068.282 2.122.282-1.43.282-4.234.282-.524.846 15.704.563 2.916.282-.251.282-1.145.282 1.27.282 5.713.846 23.065.282 1.893.282-2.38.282-8.3.564-34.97 1.41-121.48.564-23.084.282-4.694.282.271.282.94.282 2.251.282 8.97.563 39.02 1.128 83.595.282 11.418.282 6.87.282 3.186.282-2.766.282-6.515.282-3.787.282.74.846 4.929.282 3.622.282 2.054.282-.77.564-5.578.564-6.1.282-.828.282.59.281.063.282-.365.282 1.507.564 5.77.282-.294.282.047.282 1.52.282.12.282-.995.282 2.752.564 11.542.282 1.175.282 1.814.564 7.583 1.128 22.63.564 14.522.282-1.485.564-14.217.281-5.727.282-13.142.846-65.686 1.128-93.995.282-10.154.282-5.03.282-2.085.282.337.282 3.387.282 6.882.564 20.699.564 32.827.846 58.677.564 33.815.282 8.7.281.211.282-2.223.282-1.076.282-2.051.846-15.272.564-2.122.282-1.287.564 1.53.846-5.104.282-.73.282-.242.282 3.709.282 5.832.282 2.413.282-.155.564 3.791.282-2.188.282-4.427.281-1.22.282 2.154.282 1.09.282-1.203.282.414 1.692 30.359.282-.211.282-2.997.282.01.282 4.862 1.128 30.488.282 3.46.282-2.03.282-8.73.564-37.076 1.691-149.26.564-22.39.282-6.945.282.97.564 10.364.282 9.386.564 39.117 1.41 98.731.282 3.182.282 1.298.282 1.836.282.524.282-1.989.282-.782.563 7.688.282-.978.282-2.345.282 1.048.282-.296.846-19.475.282-1.769.282-2.622.282-1.54.282.177.282-.053.282-.39.282-.04.282.291.282 2.225.564 8.425.564 1.034 1.128 10.345.563 7.83.564 8.157.846 7.874.282 4.272.564 15.953.564 14.824.282 3.953.282-2.055.282-9.318.564-34.948 1.41-132.626.282-15.081.282-8.932.282-3.687.282.102.281 1.936.282 2.912.282 5.26.282 9.353.564 30.443 1.41 86.88.282 7.765.282 4.091.282 1.19.564-2.981.282.2.564 4.261.282 2.717.282 1.569.282-1.056.846-6.517.563-10.552.282-1.355.282-.542.846-9.497.564-.83.282.06.564 2.145.282 1.857.846 10.111.564 3.99.564 6.951.564 8.33.846 9.009.563 9.926.564 14.734.282 8.72.282 4.924.282.066.282-4.056.282-9.845.564-40.72 1.41-137.685.282-12.263.282-7.043.282-2.963.282 1.393.846 16.262.282 7.124.845 39.34.564 34.445.564 36.651.564 25.338.282 6.968.282 1.66.564-4.828.846-7.12.282-.9.282-2.213.282-4.197.282-2.496.282.335.282-.49.564-3.975.282-.136.282.171.282.474.281-1.002.564-8.52.282.878.282 2.69.282.611.282 2.12.564 14.277.282 2.541.282-1.127.282-.09.564 5.359.282-1.173.282-1.723.564 5.141.282-.24.282 1.472.564 20.657.564 19.263.282 6.267.282 1.762.281-.405.282-3.504.282-15.27 1.692-182.13.282-10.999.846-12.274.282 2.233.564 17.485.564 25.127 1.974 113.598.281 6.272.282 3.086.282.05.282-.835.282-.441.282-.106.564.809.282-1.66.282-2.456.564-2.921.564-6.387.282-1.237.564-1.194.282-.182.282.809.282 3.86.564 14.926.282 3.495.564 2.198.281.384.282.933.564 5.864.282 1.464.282 2.07 1.692 23.909.564 14.468.282 2.332.282-3.022.282-4.821.282-7.114.282-14.568.564-52.805.846-99.064.282-18.216.563-16.711.282-2.55.564 8.362.282 1.179.282 3.624 1.128 42.144 1.692 98.991.282 6.402.282 1.078.282.075.282-.774.282-3.65.564-9.865.282-.334.282.97.281-.802.282-.305.564 8.193.282.13.282-2.27.282.067.282.804.282-2.12.282-3.415.282-1.887.282-.414.282 1.26.846 9.532.564 3.31.564-.7.564 5.618.282.84.282 1.949.563 10.851.282 2.447.282 4.952.564 20.92.846 18.538.282 1.32.282-7.65.564-30.055.564-55.472.846-93.245.282-17.065.282-9.319.282-5.097.282-2.303.282 2.526.846 21.567.282 5.228 1.127 38.8.846 41.903.846 28.736.282 4.349.564 2.688.282.63.282-1.531.564-5.242.282-.225.282.356.282-.378.282-1.108.846-5.162.563 3.54.282-.14.282 1.344.564 10.127.564 5.139.282 4.093.282 1.319.564-9.42.282-.415.282 2.84.282 1.615.282.74.282 3.826.564 14.359.282 3.066.282 1.536.282 4.32.564 11.736.282 3.698.564 11.464.281-.223.282-7.372.282-12.8.282-21.623 1.128-134.329.564-28.936.282-5.653.282-.333.282 2.889.282 4.163.282 6.253.846 32.723.564 29.598.564 28.586.846 29.127.563 11.528.282 1.547.846-11.992.282.44.282-.362.282-.772.282 2.403.282 5.857.282 3.467.564-4.618.564 5.67.564-5.845.282 1.965.564 6.831.282 2.616.846 10.355.281 2.369.564.696.282 3.074.564 7.14.282 2.315.564 6.223.282 2.19.282 3.663 1.128 23.2.282 2.853.282.928.282-3.954.282-13.87.564-57.786.846-95.99.282-20.732.282-10.095.281-1.392.282 2.385.282 4.016 1.41 37.017.564 18.986.564 15.157.846 30.84.564 10.99.564 12.715.282-.23.282-1.866.282-.477.282-3.063.564-11.786.563 2.136.282-1.863.282-.766.282 1.68.282.673.282-.863.282.078.282.935.564.399.282 2.47.846 13.726 1.41 9.892.282 3.262 1.128 19.3.281 3.361 1.128 22.926.846 22.591.282.925.282-7.184.564-33.617.564-61.447.564-64.006.564-28.515.282-7.985.282.05.282 4.108.564 3.774 1.127 27.29.846 38.127.846 27.205.282 4.427.282 2.14.282-.15.282.834.564 6.942.564-6.108.282.92.282-.362.564-11.519.282-1.182.282-.368.564-4.037.845 3.157.564 2.418.282 1.489.282 2.88.564 7.993 1.128 11.101.564 1.778.282 1.625.282 2.613.846 10.783.282 1.218.564.368.282.738.282 2.693.282 7.694.845 36.745.282 4.666.282.902.282-6.772.282-18.93 1.41-148.844.282-11.812.282-3.025.282 4.137.564 12.787.564 7.517.282 9.23.564 23.59.282 6.479.846 29.814.563 5.414.282 4.192.282 1.744.282.346.282.961.282.497.564-.312.564-2.22.282.488.282-1.385.564-10.93.564-2.005.282-2.582.282.031.564 7.093.282 1.991.282.802.282-.711.282.727.845 16.29.282.324.564 5.383.282.46.282.812.564 5.473.282 2.378.564 13.153.282.734.282-3.098.282 1.483.564 11.25.282 4.603.846 27.243.282-.137.282-7.578.282-15.967.564-56.209.563-60.29.282-19.255.282-7.903.282.91.282 2.925.282 1.462.282 2.734.846 15.957.564 9.317.564 14.193 1.41 45.153.282 6.272.282.668.282-.738.282-.138.282-2.616.563-13.114.282-2.865.564-1.49.282.721.282 1.09.282-1.347.282-2.672.846-3.51.282 2.165.564 12.14.564 3.117.282 4 .282 1.714.564-4.462.282 2.489.282 3.667.282 1.674.845 1.322.282 2.428.282 3.728.282 2.033.282.83.282 2.97.564 7.665.282 2.925.564 11.297.846 17.48.282.558.282-6.693.282-14.475.564-46.02.564-50.162.282-16.941.282-7.382.282-.604.845 4.533.282 2.396.846 9.848.282 8.054.564 23.47.564 13.684.282 9.097.282 5.129.282-1.86.282-3.002.282 1.741.282 3.786.282-.072.282-2.373.282 2.223.282 6.373.282 2.522.282-2.849.282-1.511.282.78.281-2.95.564-10.756.282-.385.282.211.282-.088.282-.567.282-1.655.282-.291.564 6.273.564 1.641.282 2.322.564 2.451.282 2.746.282.924.564-7.479.282 2.632.282 4.022.282.117.282.28.564 6.957.563-4.62.282 1.458.282 5.128.564 20.255.564 15.92.282 5.059.282 2.613.282-3.96.282-10.941.564-38.958.564-42.897.282-11.623.282-5.209.282-.179.282 1.26.282.109.282 1.918.564 11.05.563 5.452.564 9.717.282 3.647 1.128 19.868.282 2.297.282.868.282-.488.846-4.021.282-.114.564-1.59.282.524.282-.036.282-.795.282 1.8.282 3.68.282.068.282-3.185.282-1.074.281.583.282-1.329.282-.632.564 4.797.282-.159.282 1.867.282 3.66.282.235.282-2.4.282.425.564 5.265.282.232.282-.246.282.328.282 2.483.282 4.053.282 2.143.282.342.282 3.446.282 6.677.282 3.398.282-1.696.282-.232 1.127 17.815.282 1.762.282-4.076.564-26.788.846-51.532.282-10.39.282-6.198.282-2.972.282.097 1.128 8.597.564 8.265.282 1.311h.282l.282 2.931 1.127 25.792.564 5.93.282 1.192.282-.897.282-2.39.564-3.043.564-8.153.282 1.358.282 2.395.282-.062.282 4.454.564 20.905.564-3.305.282 5.083.282.527.564-19.371.282-.424.282 1.29.281-2.255.282-1.26.564 3.967.282 1.208.564 4.015.282-.087.282.216.564 3.922.282.47.282-.057.282.465.564 1.967.846 4.036.282-.371.282.596.282 5.424.564 20.42.282 5.098.282 1.409.281-.103.282-5.466.564-36.612.564-32.67.564-21.473.282-3.956.282.11.282.508.282.15.846 2.8.282.763.282 2.666.282 4.552.564 15.61.564 16.962.846 10.452.281-.499.564-6.019.564-2.203.282-.058.282-.357.282-1.626.282-.525.564 6.728.282.696 1.128-6.383.282-.419.282.59.282-.054.282.272.282 1.708.282.453.564-4.817.563 6.224h0" clip-path="url(#p23087a9c33)" style="fill:none;stroke:#1f77b4;stroke-width:1.5;stroke-linecap:square"/><path id="patch_3" d="M71.308 266.112V0" style="fill:none;stroke:gray;stroke-width:.8;stroke-linejoin:miter;stroke-linecap:square"/><path id="patch_4" d="M685.107 266.112V0" style="fill:none;stroke:#000;stroke-width:.8;stroke-linejoin:miter;stroke-linecap:square"/><path id="patch_5" d="M71.308 266.112h613.8" style="fill:none;stroke:gray;stroke-width:.8;stroke-linejoin:miter;stroke-linecap:square"/><path id="patch_6" d="M71.308 0h613.8" style="fill:none;stroke:#000;stroke-width:.8;stroke-linejoin:miter;stroke-linecap:square"/></g></g><defs><clipPath id="p23087a9c33"><path d="M71.308 0h613.8v266.112h-613.8z"/></clipPath></defs></svg>