<?xml version="1.0" encoding="utf-8" standalone="no"?>
<!DOCTYPE svg PUBLIC "-//W3C//DTD SVG 1.1//EN"
  "http://www.w3.org/Graphics/SVG/1.1/DTD/svg11.dtd">
<svg xmlns:xlink="http://www.w3.org/1999/xlink" width="660.992188pt" height="282.790125pt" viewBox="0 0 660.992188 282.790125" xmlns="http://www.w3.org/2000/svg" version="1.1">
 <metadata>
  <rdf:RDF xmlns:dc="http://purl.org/dc/elements/1.1/" xmlns:cc="http://creativecommons.org/ns#" xmlns:rdf="http://www.w3.org/1999/02/22-rdf-syntax-ns#">
   <cc:Work>
    <dc:type rdf:resource="http://purl.org/dc/dcmitype/StillImage"/>
    <dc:date>2023-03-06T19:23:09.314972</dc:date>
    <dc:format>image/svg+xml</dc:format>
    <dc:creator>
     <cc:Agent>
      <dc:title>Matplotlib v3.6.3, https://matplotlib.org/</dc:title>
     </cc:Agent>
    </dc:creator>
   </cc:Work>
  </rdf:RDF>
 </metadata>
 <defs>
  <style type="text/css">*{stroke-linejoin: round; stroke-linecap: butt}</style>
 </defs>
 <g id="figure_1">
  <g id="patch_1">
   <path d="M -0 282.790125 
L 660.992188 282.790125 
L 660.992188 0 
L -0 0 
L -0 282.790125 
z
" style="fill: none"/>
  </g>
  <g id="axes_1">
   <g id="patch_2">
    <path d="M 47.192188 266.112 
L 660.992188 266.112 
L 660.992188 0 
L 47.192188 0 
L 47.192188 266.112 
z
" style="fill: none"/>
   </g>
   <g id="matplotlib.axis_1">
    <g id="xtick_1">
     <g id="line2d_1">
      <defs>
       <path id="m48044ed8b1" d="M 0 0 
L 0 3.5 
" style="stroke: #000000; stroke-width: 0.8"/>
      </defs>
      <g>
       <use xlink:href="#m48044ed8b1" x="75.092188" y="266.112" style="stroke: #000000; stroke-width: 0.8"/>
      </g>
     </g>
     <g id="text_1">
      <!-- 0 -->
      <g transform="translate(71.910938 280.710438) scale(0.1 -0.1)">
       <defs>
        <path id="DejaVuSans-30" d="M 2034 4250 
Q 1547 4250 1301 3770 
Q 1056 3291 1056 2328 
Q 1056 1369 1301 889 
Q 1547 409 2034 409 
Q 2525 409 2770 889 
Q 3016 1369 3016 2328 
Q 3016 3291 2770 3770 
Q 2525 4250 2034 4250 
z
M 2034 4750 
Q 2819 4750 3233 4129 
Q 3647 3509 3647 2328 
Q 3647 1150 3233 529 
Q 2819 -91 2034 -91 
Q 1250 -91 836 529 
Q 422 1150 422 2328 
Q 422 3509 836 4129 
Q 1250 4750 2034 4750 
z
" transform="scale(0.015625)"/>
       </defs>
       <use xlink:href="#DejaVuSans-30"/>
      </g>
     </g>
    </g>
    <g id="xtick_2">
     <g id="line2d_2">
      <g>
       <use xlink:href="#m48044ed8b1" x="144.842188" y="266.112" style="stroke: #000000; stroke-width: 0.8"/>
      </g>
     </g>
     <g id="text_2">
      <!-- 500 -->
      <g transform="translate(135.298438 280.710438) scale(0.1 -0.1)">
       <defs>
        <path id="DejaVuSans-35" d="M 691 4666 
L 3169 4666 
L 3169 4134 
L 1269 4134 
L 1269 2991 
Q 1406 3038 1543 3061 
Q 1681 3084 1819 3084 
Q 2600 3084 3056 2656 
Q 3513 2228 3513 1497 
Q 3513 744 3044 326 
Q 2575 -91 1722 -91 
Q 1428 -91 1123 -41 
Q 819 9 494 109 
L 494 744 
Q 775 591 1075 516 
Q 1375 441 1709 441 
Q 2250 441 2565 725 
Q 2881 1009 2881 1497 
Q 2881 1984 2565 2268 
Q 2250 2553 1709 2553 
Q 1456 2553 1204 2497 
Q 953 2441 691 2322 
L 691 4666 
z
" transform="scale(0.015625)"/>
       </defs>
       <use xlink:href="#DejaVuSans-35"/>
       <use xlink:href="#DejaVuSans-30" x="63.623047"/>
       <use xlink:href="#DejaVuSans-30" x="127.246094"/>
      </g>
     </g>
    </g>
    <g id="xtick_3">
     <g id="line2d_3">
      <g>
       <use xlink:href="#m48044ed8b1" x="214.592188" y="266.112" style="stroke: #000000; stroke-width: 0.8"/>
      </g>
     </g>
     <g id="text_3">
      <!-- 1000 -->
      <g transform="translate(201.867188 280.710438) scale(0.1 -0.1)">
       <defs>
        <path id="DejaVuSans-31" d="M 794 531 
L 1825 531 
L 1825 4091 
L 703 3866 
L 703 4441 
L 1819 4666 
L 2450 4666 
L 2450 531 
L 3481 531 
L 3481 0 
L 794 0 
L 794 531 
z
" transform="scale(0.015625)"/>
       </defs>
       <use xlink:href="#DejaVuSans-31"/>
       <use xlink:href="#DejaVuSans-30" x="63.623047"/>
       <use xlink:href="#DejaVuSans-30" x="127.246094"/>
       <use xlink:href="#DejaVuSans-30" x="190.869141"/>
      </g>
     </g>
    </g>
    <g id="xtick_4">
     <g id="line2d_4">
      <g>
       <use xlink:href="#m48044ed8b1" x="284.342188" y="266.112" style="stroke: #000000; stroke-width: 0.8"/>
      </g>
     </g>
     <g id="text_4">
      <!-- 1500 -->
      <g transform="translate(271.617188 280.710438) scale(0.1 -0.1)">
       <use xlink:href="#DejaVuSans-31"/>
       <use xlink:href="#DejaVuSans-35" x="63.623047"/>
       <use xlink:href="#DejaVuSans-30" x="127.246094"/>
       <use xlink:href="#DejaVuSans-30" x="190.869141"/>
      </g>
     </g>
    </g>
    <g id="xtick_5">
     <g id="line2d_5">
      <g>
       <use xlink:href="#m48044ed8b1" x="354.092188" y="266.112" style="stroke: #000000; stroke-width: 0.8"/>
      </g>
     </g>
     <g id="text_5">
      <!-- 2000 -->
      <g transform="translate(341.367188 280.710438) scale(0.1 -0.1)">
       <defs>
        <path id="DejaVuSans-32" d="M 1228 531 
L 3431 531 
L 3431 0 
L 469 0 
L 469 531 
Q 828 903 1448 1529 
Q 2069 2156 2228 2338 
Q 2531 2678 2651 2914 
Q 2772 3150 2772 3378 
Q 2772 3750 2511 3984 
Q 2250 4219 1831 4219 
Q 1534 4219 1204 4116 
Q 875 4013 500 3803 
L 500 4441 
Q 881 4594 1212 4672 
Q 1544 4750 1819 4750 
Q 2544 4750 2975 4387 
Q 3406 4025 3406 3419 
Q 3406 3131 3298 2873 
Q 3191 2616 2906 2266 
Q 2828 2175 2409 1742 
Q 1991 1309 1228 531 
z
" transform="scale(0.015625)"/>
       </defs>
       <use xlink:href="#DejaVuSans-32"/>
       <use xlink:href="#DejaVuSans-30" x="63.623047"/>
       <use xlink:href="#DejaVuSans-30" x="127.246094"/>
       <use xlink:href="#DejaVuSans-30" x="190.869141"/>
      </g>
     </g>
    </g>
    <g id="xtick_6">
     <g id="line2d_6">
      <g>
       <use xlink:href="#m48044ed8b1" x="423.842188" y="266.112" style="stroke: #000000; stroke-width: 0.8"/>
      </g>
     </g>
     <g id="text_6">
      <!-- 2500 -->
      <g transform="translate(411.117188 280.710438) scale(0.1 -0.1)">
       <use xlink:href="#DejaVuSans-32"/>
       <use xlink:href="#DejaVuSans-35" x="63.623047"/>
       <use xlink:href="#DejaVuSans-30" x="127.246094"/>
       <use xlink:href="#DejaVuSans-30" x="190.869141"/>
      </g>
     </g>
    </g>
    <g id="xtick_7">
     <g id="line2d_7">
      <g>
       <use xlink:href="#m48044ed8b1" x="493.592188" y="266.112" style="stroke: #000000; stroke-width: 0.8"/>
      </g>
     </g>
     <g id="text_7">
      <!-- 3000 -->
      <g transform="translate(480.867188 280.710438) scale(0.1 -0.1)">
       <defs>
        <path id="DejaVuSans-33" d="M 2597 2516 
Q 3050 2419 3304 2112 
Q 3559 1806 3559 1356 
Q 3559 666 3084 287 
Q 2609 -91 1734 -91 
Q 1441 -91 1130 -33 
Q 819 25 488 141 
L 488 750 
Q 750 597 1062 519 
Q 1375 441 1716 441 
Q 2309 441 2620 675 
Q 2931 909 2931 1356 
Q 2931 1769 2642 2001 
Q 2353 2234 1838 2234 
L 1294 2234 
L 1294 2753 
L 1863 2753 
Q 2328 2753 2575 2939 
Q 2822 3125 2822 3475 
Q 2822 3834 2567 4026 
Q 2313 4219 1838 4219 
Q 1578 4219 1281 4162 
Q 984 4106 628 3988 
L 628 4550 
Q 988 4650 1302 4700 
Q 1616 4750 1894 4750 
Q 2613 4750 3031 4423 
Q 3450 4097 3450 3541 
Q 3450 3153 3228 2886 
Q 3006 2619 2597 2516 
z
" transform="scale(0.015625)"/>
       </defs>
       <use xlink:href="#DejaVuSans-33"/>
       <use xlink:href="#DejaVuSans-30" x="63.623047"/>
       <use xlink:href="#DejaVuSans-30" x="127.246094"/>
       <use xlink:href="#DejaVuSans-30" x="190.869141"/>
      </g>
     </g>
    </g>
    <g id="xtick_8">
     <g id="line2d_8">
      <g>
       <use xlink:href="#m48044ed8b1" x="563.342188" y="266.112" style="stroke: #000000; stroke-width: 0.8"/>
      </g>
     </g>
     <g id="text_8">
      <!-- 3500 -->
      <g transform="translate(550.617188 280.710438) scale(0.1 -0.1)">
       <use xlink:href="#DejaVuSans-33"/>
       <use xlink:href="#DejaVuSans-35" x="63.623047"/>
       <use xlink:href="#DejaVuSans-30" x="127.246094"/>
       <use xlink:href="#DejaVuSans-30" x="190.869141"/>
      </g>
     </g>
    </g>
    <g id="xtick_9">
     <g id="line2d_9">
      <g>
       <use xlink:href="#m48044ed8b1" x="633.092188" y="266.112" style="stroke: #000000; stroke-width: 0.8"/>
      </g>
     </g>
     <g id="text_9">
      <!-- 4000 -->
      <g transform="translate(620.367188 280.710438) scale(0.1 -0.1)">
       <defs>
        <path id="DejaVuSans-34" d="M 2419 4116 
L 825 1625 
L 2419 1625 
L 2419 4116 
z
M 2253 4666 
L 3047 4666 
L 3047 1625 
L 3713 1625 
L 3713 1100 
L 3047 1100 
L 3047 0 
L 2419 0 
L 2419 1100 
L 313 1100 
L 313 1709 
L 2253 4666 
z
" transform="scale(0.015625)"/>
       </defs>
       <use xlink:href="#DejaVuSans-34"/>
       <use xlink:href="#DejaVuSans-30" x="63.623047"/>
       <use xlink:href="#DejaVuSans-30" x="127.246094"/>
       <use xlink:href="#DejaVuSans-30" x="190.869141"/>
      </g>
     </g>
    </g>
   </g>
   <g id="matplotlib.axis_2">
    <g id="ytick_1">
     <g id="line2d_10">
      <defs>
       <path id="m2d76f5a5be" d="M 0 0 
L -3.5 0 
" style="stroke: #000000; stroke-width: 0.8"/>
      </defs>
      <g>
       <use xlink:href="#m2d76f5a5be" x="47.192188" y="247.67404" style="stroke: #000000; stroke-width: 0.8"/>
      </g>
     </g>
     <g id="text_10">
      <!-- −15000 -->
      <g transform="translate(0 251.473258) scale(0.1 -0.1)">
       <defs>
        <path id="DejaVuSans-2212" d="M 678 2272 
L 4684 2272 
L 4684 1741 
L 678 1741 
L 678 2272 
z
" transform="scale(0.015625)"/>
       </defs>
       <use xlink:href="#DejaVuSans-2212"/>
       <use xlink:href="#DejaVuSans-31" x="83.789062"/>
       <use xlink:href="#DejaVuSans-35" x="147.412109"/>
       <use xlink:href="#DejaVuSans-30" x="211.035156"/>
       <use xlink:href="#DejaVuSans-30" x="274.658203"/>
       <use xlink:href="#DejaVuSans-30" x="338.28125"/>
      </g>
     </g>
    </g>
    <g id="ytick_2">
     <g id="line2d_11">
      <g>
       <use xlink:href="#m2d76f5a5be" x="47.192188" y="215.274168" style="stroke: #000000; stroke-width: 0.8"/>
      </g>
     </g>
     <g id="text_11">
      <!-- −10000 -->
      <g transform="translate(0 219.073387) scale(0.1 -0.1)">
       <use xlink:href="#DejaVuSans-2212"/>
       <use xlink:href="#DejaVuSans-31" x="83.789062"/>
       <use xlink:href="#DejaVuSans-30" x="147.412109"/>
       <use xlink:href="#DejaVuSans-30" x="211.035156"/>
       <use xlink:href="#DejaVuSans-30" x="274.658203"/>
       <use xlink:href="#DejaVuSans-30" x="338.28125"/>
      </g>
     </g>
    </g>
    <g id="ytick_3">
     <g id="line2d_12">
      <g>
       <use xlink:href="#m2d76f5a5be" x="47.192188" y="182.874297" style="stroke: #000000; stroke-width: 0.8"/>
      </g>
     </g>
     <g id="text_12">
      <!-- −5000 -->
      <g transform="translate(6.3625 186.673516) scale(0.1 -0.1)">
       <use xlink:href="#DejaVuSans-2212"/>
       <use xlink:href="#DejaVuSans-35" x="83.789062"/>
       <use xlink:href="#DejaVuSans-30" x="147.412109"/>
       <use xlink:href="#DejaVuSans-30" x="211.035156"/>
       <use xlink:href="#DejaVuSans-30" x="274.658203"/>
      </g>
     </g>
    </g>
    <g id="ytick_4">
     <g id="line2d_13">
      <g>
       <use xlink:href="#m2d76f5a5be" x="47.192188" y="150.474425" style="stroke: #000000; stroke-width: 0.8"/>
      </g>
     </g>
     <g id="text_13">
      <!-- 0 -->
      <g transform="translate(33.829688 154.273644) scale(0.1 -0.1)">
       <use xlink:href="#DejaVuSans-30"/>
      </g>
     </g>
    </g>
    <g id="ytick_5">
     <g id="line2d_14">
      <g>
       <use xlink:href="#m2d76f5a5be" x="47.192188" y="118.074554" style="stroke: #000000; stroke-width: 0.8"/>
      </g>
     </g>
     <g id="text_14">
      <!-- 5000 -->
      <g transform="translate(14.742188 121.873773) scale(0.1 -0.1)">
       <use xlink:href="#DejaVuSans-35"/>
       <use xlink:href="#DejaVuSans-30" x="63.623047"/>
       <use xlink:href="#DejaVuSans-30" x="127.246094"/>
       <use xlink:href="#DejaVuSans-30" x="190.869141"/>
      </g>
     </g>
    </g>
    <g id="ytick_6">
     <g id="line2d_15">
      <g>
       <use xlink:href="#m2d76f5a5be" x="47.192188" y="85.674683" style="stroke: #000000; stroke-width: 0.8"/>
      </g>
     </g>
     <g id="text_15">
      <!-- 10000 -->
      <g transform="translate(8.379688 89.473901) scale(0.1 -0.1)">
       <use xlink:href="#DejaVuSans-31"/>
       <use xlink:href="#DejaVuSans-30" x="63.623047"/>
       <use xlink:href="#DejaVuSans-30" x="127.246094"/>
       <use xlink:href="#DejaVuSans-30" x="190.869141"/>
       <use xlink:href="#DejaVuSans-30" x="254.492188"/>
      </g>
     </g>
    </g>
    <g id="ytick_7">
     <g id="line2d_16">
      <g>
       <use xlink:href="#m2d76f5a5be" x="47.192188" y="53.274811" style="stroke: #000000; stroke-width: 0.8"/>
      </g>
     </g>
     <g id="text_16">
      <!-- 15000 -->
      <g transform="translate(8.379688 57.07403) scale(0.1 -0.1)">
       <use xlink:href="#DejaVuSans-31"/>
       <use xlink:href="#DejaVuSans-35" x="63.623047"/>
       <use xlink:href="#DejaVuSans-30" x="127.246094"/>
       <use xlink:href="#DejaVuSans-30" x="190.869141"/>
       <use xlink:href="#DejaVuSans-30" x="254.492188"/>
      </g>
     </g>
    </g>
    <g id="ytick_8">
     <g id="line2d_17">
      <g>
       <use xlink:href="#m2d76f5a5be" x="47.192188" y="20.87494" style="stroke: #000000; stroke-width: 0.8"/>
      </g>
     </g>
     <g id="text_17">
      <!-- 20000 -->
      <g transform="translate(8.379688 24.674159) scale(0.1 -0.1)">
       <use xlink:href="#DejaVuSans-32"/>
       <use xlink:href="#DejaVuSans-30" x="63.623047"/>
       <use xlink:href="#DejaVuSans-30" x="127.246094"/>
       <use xlink:href="#DejaVuSans-30" x="190.869141"/>
       <use xlink:href="#DejaVuSans-30" x="254.492188"/>
      </g>
     </g>
    </g>
   </g>
   <g id="line2d_18">
    <path d="M 75.092188 150.965574 
L 75.374148 150.003857 
L 75.656109 150.926411 
L 75.938069 150.039276 
L 76.22003 150.894274 
L 76.50199 150.068516 
L 76.783951 150.867609 
L 77.065912 150.09288 
L 77.347872 150.845314 
L 77.629833 150.113302 
L 77.911793 150.826596 
L 78.193754 150.13046 
L 78.475715 150.810875 
L 78.757675 150.144851 
L 79.039636 150.797725 
L 79.321596 150.156837 
L 79.603557 150.786838 
L 79.885517 150.166677 
L 80.167478 150.778001 
L 80.449439 150.174545 
L 80.731399 150.771078 
L 81.01336 150.180539 
L 81.29532 150.766005 
L 81.577281 150.184687 
L 81.859242 150.762794 
L 82.141202 150.18694 
L 82.423163 150.761535 
L 82.705123 150.187157 
L 82.987084 150.762423 
L 83.269044 150.185084 
L 83.551005 150.765785 
L 83.832966 150.180301 
L 84.114926 150.772153 
L 84.396887 150.172141 
L 84.678847 150.782368 
L 84.960808 150.159536 
L 85.242769 150.797796 
L 85.524729 150.140718 
L 85.80669 150.820757 
L 86.08865 150.112595 
L 86.370611 150.855455 
L 86.652572 150.069307 
L 86.934532 150.910304 
L 87.216493 149.998328 
L 87.498453 151.004813 
L 87.780414 149.867458 
L 88.062374 151.196414 
L 88.344335 149.562427 
L 88.626296 151.754322 
L 88.908256 148.216689 
L 89.190217 160.616227 
L 89.472177 179.279624 
L 89.754138 182.563464 
L 90.036099 190.230796 
L 90.318059 192.091956 
L 90.88198 196.343475 
L 91.163941 198.20929 
L 91.445901 196.318627 
L 91.727862 192.914208 
L 92.009823 187.283989 
L 92.291783 179.094635 
L 92.855704 147.006727 
L 93.419626 113.574621 
L 93.983547 95.798075 
L 94.265507 93.016349 
L 94.547468 94.928428 
L 95.111389 100.756174 
L 95.39335 101.060269 
L 95.67531 102.434611 
L 95.957271 107.394509 
L 97.367074 148.093312 
L 97.930995 167.167959 
L 99.058837 182.211962 
L 99.340798 181.081972 
L 99.622758 178.369765 
L 100.18668 175.358286 
L 101.314522 165.066039 
L 101.596483 163.902973 
L 101.878443 165.333276 
L 102.160404 167.950885 
L 102.724325 169.780497 
L 103.006286 175.152836 
L 103.570207 189.75146 
L 103.852167 191.300101 
L 104.416088 190.375424 
L 104.698049 188.901014 
L 104.98001 184.945601 
L 105.26197 179.211312 
L 105.543931 175.988134 
L 106.107852 179.574421 
L 106.389813 176.196777 
L 106.953734 161.69278 
L 107.235694 150.87891 
L 108.081576 99.136163 
L 108.645497 84.940024 
L 108.927458 80.961933 
L 109.209418 82.680522 
L 110.0553 101.339819 
L 111.747064 145.24778 
L 112.310985 158.651362 
L 112.874906 164.544765 
L 113.156867 167.461025 
L 113.438827 168.664633 
L 114.002748 165.759697 
L 114.284709 166.471958 
L 114.56667 166.716841 
L 114.84863 165.595786 
L 115.130591 165.448445 
L 115.412551 165.859838 
L 115.976472 164.658292 
L 116.258433 165.226169 
L 116.540394 164.227464 
L 116.822354 162.29651 
L 117.104315 165.155373 
L 117.668236 179.334453 
L 117.950197 178.175527 
L 118.232157 175.922739 
L 118.796078 179.262879 
L 119.078039 177.919936 
L 119.36 175.967256 
L 119.64196 176.41627 
L 120.487842 181.694614 
L 120.769802 181.375273 
L 121.051763 177.123746 
L 121.333724 168.921675 
L 121.897645 141.624275 
L 122.461566 112.055147 
L 123.025487 97.497727 
L 123.307448 93.35122 
L 123.589408 90.969287 
L 123.871369 91.766883 
L 124.153329 97.650496 
L 124.717251 116.808515 
L 126.127054 145.404121 
L 126.690975 149.055 
L 126.972935 150.847291 
L 127.254896 151.267606 
L 127.536857 150.10683 
L 127.818817 150.106896 
L 128.664699 160.610683 
L 128.946659 159.634575 
L 129.510581 155.856714 
L 130.356462 152.507168 
L 130.638423 152.153212 
L 130.920384 153.161446 
L 131.202344 154.961103 
L 131.484305 157.519613 
L 132.330186 168.955896 
L 132.612147 170.467636 
L 132.894108 173.925443 
L 133.458029 183.616282 
L 134.02195 186.88843 
L 134.303911 189.342913 
L 134.585871 190.273329 
L 134.867832 189.466027 
L 135.149792 187.637656 
L 135.431753 182.77727 
L 135.713714 171.726745 
L 137.123516 92.066253 
L 137.405477 84.439882 
L 137.687438 82.3548 
L 137.969398 86.397437 
L 138.533319 100.816132 
L 139.097241 111.42613 
L 141.070965 159.473969 
L 141.352925 162.231499 
L 141.634886 161.720272 
L 141.916846 159.636282 
L 142.198807 159.730435 
L 142.480768 161.477044 
L 142.762728 161.033001 
L 143.044689 158.238051 
L 143.326649 158.061197 
L 143.890571 167.195833 
L 144.172531 168.49936 
L 144.454492 168.352473 
L 145.018413 171.234179 
L 145.582334 171.125763 
L 146.710176 176.716265 
L 146.992137 177.43819 
L 147.556058 173.466191 
L 147.838019 174.671694 
L 148.119979 178.283065 
L 148.40194 179.883716 
L 148.6839 179.501182 
L 148.965861 181.010609 
L 149.247822 184.420647 
L 149.529782 186.032041 
L 149.811743 183.03391 
L 150.093703 174.766097 
L 150.657625 143.932239 
L 151.503506 83.738603 
L 151.785467 73.042222 
L 152.349388 67.210625 
L 152.631349 65.98289 
L 152.913309 71.308406 
L 154.605073 139.884694 
L 154.887033 147.983586 
L 155.450955 156.078937 
L 156.014876 161.414443 
L 156.578797 164.7637 
L 157.142718 172.293982 
L 157.424679 173.436498 
L 157.706639 172.145888 
L 157.9886 171.551305 
L 158.27056 172.047354 
L 158.552521 172.175904 
L 158.834482 171.734366 
L 159.116442 170.899621 
L 159.398403 169.181707 
L 159.680363 168.325151 
L 160.244285 172.607514 
L 160.526245 172.147871 
L 160.808206 171.334285 
L 161.090166 173.739106 
L 161.372127 177.432424 
L 161.654087 179.133569 
L 161.936048 180.095587 
L 162.499969 183.186281 
L 162.78193 184.062017 
L 163.345851 188.392868 
L 163.627812 188.586253 
L 163.909772 187.706729 
L 164.191733 185.674425 
L 164.473693 177.833835 
L 166.165457 82.424842 
L 166.447417 80.249995 
L 167.011339 84.096048 
L 167.293299 84.668038 
L 167.57526 87.302819 
L 168.139181 95.809559 
L 168.421142 97.578452 
L 168.703102 100.696188 
L 168.985063 108.605276 
L 170.112905 156.477617 
L 170.676826 172.686622 
L 170.958787 175.861655 
L 171.522708 173.862035 
L 171.804669 174.303871 
L 172.086629 172.559881 
L 172.65055 160.767157 
L 172.932511 159.169553 
L 173.214471 159.946284 
L 173.778393 158.808284 
L 174.060353 162.149863 
L 174.624274 175.042782 
L 174.906235 177.14435 
L 175.188196 177.406521 
L 175.470156 178.424743 
L 176.316038 183.669131 
L 176.879959 188.613907 
L 177.16192 190.044628 
L 177.44388 190.758787 
L 177.725841 191.153087 
L 178.007801 190.189729 
L 178.289762 186.227759 
L 178.571723 178.687333 
L 179.135644 154.026365 
L 180.263486 91.955163 
L 180.827407 76.664794 
L 181.109368 75.248779 
L 181.95525 80.435679 
L 182.23721 85.021559 
L 182.801131 100.19347 
L 183.365053 121.278187 
L 184.210934 158.468655 
L 184.492895 166.497046 
L 184.774856 170.827064 
L 185.056816 173.201016 
L 185.338777 174.409684 
L 185.620737 172.670908 
L 186.184658 163.396373 
L 186.466619 162.215206 
L 186.74858 161.960358 
L 187.03054 160.582731 
L 187.312501 160.034752 
L 189.004264 171.494774 
L 189.568185 179.13579 
L 189.850146 182.738461 
L 190.132107 184.110498 
L 190.696028 184.698414 
L 191.259949 183.820209 
L 191.54191 185.033232 
L 192.105831 189.687824 
L 192.387791 189.775444 
L 192.669752 188.12027 
L 192.951713 183.14975 
L 193.233673 172.775283 
L 193.797594 139.678796 
L 194.643476 85.279534 
L 195.207397 63.152741 
L 195.489358 57.120057 
L 195.771318 55.279219 
L 196.053279 57.400124 
L 196.33524 63.142029 
L 196.899161 85.607722 
L 198.027003 134.371317 
L 198.590924 167.627405 
L 198.872885 177.975483 
L 199.154845 181.658954 
L 199.436806 179.224675 
L 199.718767 175.067958 
L 200.564648 168.166779 
L 200.846609 167.489379 
L 201.692491 178.858379 
L 201.974451 179.198158 
L 202.256412 181.739931 
L 202.538372 185.849534 
L 202.820333 188.005978 
L 203.102294 187.184561 
L 203.948175 181.344507 
L 204.230136 178.519564 
L 204.512097 177.003654 
L 204.794057 178.915162 
L 205.357978 186.576809 
L 205.921899 191.273383 
L 206.485821 196.9406 
L 206.767781 197.809102 
L 207.049742 198.307487 
L 207.331702 196.9819 
L 207.613663 189.55448 
L 208.177584 153.603449 
L 209.023466 94.513812 
L 209.587387 73.55293 
L 209.869348 68.675877 
L 210.151308 66.831815 
L 210.433269 67.785279 
L 210.715229 69.729748 
L 210.99719 72.768209 
L 211.279151 80.758706 
L 212.688954 148.500286 
L 213.534835 169.995553 
L 213.816796 173.674069 
L 214.098756 173.78613 
L 214.380717 173.547206 
L 214.944638 178.216807 
L 215.226599 178.046559 
L 215.79052 172.57494 
L 216.072481 171.233645 
L 216.354441 170.483256 
L 216.918362 167.893287 
L 217.200323 167.619289 
L 217.482284 167.783344 
L 217.764244 167.135867 
L 218.046205 166.902789 
L 218.328165 169.593149 
L 218.892086 177.906694 
L 219.174047 179.096908 
L 219.456008 181.257515 
L 219.737968 185.53821 
L 220.019929 188.109787 
L 220.58385 185.460163 
L 220.865811 188.930657 
L 221.147771 194.157238 
L 221.429732 195.139414 
L 221.711692 191.444478 
L 221.993653 186.252871 
L 222.275613 178.529945 
L 222.557574 164.193215 
L 223.403456 104.434335 
L 224.249338 65.963236 
L 224.531298 57.38693 
L 224.813259 55.402362 
L 225.095219 60.369489 
L 225.659141 77.569574 
L 226.223062 108.061658 
L 226.786983 138.832167 
L 227.632865 168.654223 
L 227.914825 168.329642 
L 228.196786 163.578886 
L 228.478746 162.3025 
L 228.760707 164.718891 
L 229.042668 164.923461 
L 229.324628 161.829746 
L 229.606589 160.101268 
L 229.888549 161.883736 
L 230.45247 166.406607 
L 230.734431 168.824466 
L 231.298352 175.949602 
L 231.580313 176.903573 
L 232.144234 175.05709 
L 232.426195 174.720567 
L 232.708155 174.974352 
L 232.990116 176.018974 
L 233.554037 180.754475 
L 234.96384 196.445739 
L 235.2458 198.708899 
L 235.527761 198.105226 
L 235.809722 192.954474 
L 236.373643 177.599733 
L 236.655603 166.466217 
L 237.219525 127.03287 
L 238.065406 72.585152 
L 238.347367 61.871278 
L 238.629327 55.871604 
L 238.911288 53.001478 
L 239.193249 54.526587 
L 239.475209 62.675604 
L 241.730894 153.968131 
L 242.012855 160.663212 
L 242.858736 171.178154 
L 243.140697 171.827644 
L 243.422657 171.57189 
L 243.704618 172.437254 
L 243.986579 172.490362 
L 244.268539 170.838198 
L 244.5505 170.176031 
L 244.83246 170.659717 
L 245.114421 169.197745 
L 245.396382 166.574226 
L 245.678342 167.434729 
L 246.242263 175.4753 
L 246.806184 175.719941 
L 247.370106 180.301462 
L 247.652066 180.448884 
L 247.934027 180.159181 
L 248.215987 181.985345 
L 248.779909 187.258985 
L 249.061869 189.886128 
L 249.907751 205.079632 
L 250.189712 205.986504 
L 250.471672 204.70558 
L 250.753633 198.708824 
L 251.035593 184.594414 
L 252.445396 86.114612 
L 253.009317 64.946952 
L 253.291278 57.673606 
L 253.573239 53.805801 
L 253.855199 54.927346 
L 254.41912 62.839859 
L 254.701081 71.208203 
L 256.110884 149.078402 
L 256.392844 162.90594 
L 256.674805 168.925293 
L 256.956766 167.700139 
L 257.238726 167.59348 
L 257.802647 175.949429 
L 258.084608 175.864311 
L 258.366569 174.018467 
L 258.648529 173.897245 
L 258.93049 175.472541 
L 259.21245 176.332444 
L 259.494411 174.48724 
L 260.340293 162.767895 
L 260.622253 164.423042 
L 261.186174 172.341087 
L 261.468135 174.122149 
L 261.750096 176.927372 
L 262.314017 185.736166 
L 262.595977 184.73678 
L 262.877938 182.48412 
L 263.159898 183.885252 
L 263.441859 187.523796 
L 263.72382 188.79196 
L 264.00578 187.94984 
L 264.287741 189.816017 
L 264.851662 201.309374 
L 265.133623 200.933019 
L 265.415583 193.991127 
L 265.979504 167.017314 
L 267.107347 92.958053 
L 267.671268 74.247365 
L 268.235189 65.410904 
L 268.51715 62.871978 
L 268.79911 63.325713 
L 269.081071 69.024406 
L 269.644992 89.842995 
L 270.208913 119.676551 
L 270.772834 149.692431 
L 271.336755 163.462217 
L 271.900677 170.708036 
L 272.182637 170.758653 
L 272.464598 168.863315 
L 272.746558 168.354374 
L 273.31048 172.867765 
L 273.59244 172.68203 
L 273.874401 171.78937 
L 274.156361 172.3844 
L 274.720282 174.645955 
L 275.002243 175.301013 
L 275.284204 175.204758 
L 275.566164 174.392639 
L 275.848125 175.387955 
L 276.412046 184.046864 
L 276.694007 185.688746 
L 276.975967 185.912197 
L 277.539888 187.417893 
L 277.821849 187.71148 
L 278.10381 188.500804 
L 278.667731 192.118388 
L 279.231652 198.280857 
L 279.513612 198.35367 
L 279.795573 193.294232 
L 280.077534 182.613996 
L 280.641455 144.809438 
L 281.205376 105.593272 
L 281.769297 76.853009 
L 282.333218 60.833324 
L 282.615179 57.516528 
L 282.897139 58.093766 
L 283.743021 71.491836 
L 284.024982 79.798453 
L 284.870864 126.039652 
L 285.434785 147.057531 
L 285.998706 166.762849 
L 286.562627 176.262832 
L 286.844588 178.490123 
L 287.126548 177.609452 
L 287.408509 176.331154 
L 287.690469 176.075752 
L 287.97243 175.230346 
L 288.254391 173.575035 
L 288.536351 173.127195 
L 288.818312 173.827138 
L 289.100272 174.133554 
L 289.382233 174.667351 
L 290.228115 181.67515 
L 290.510075 182.767754 
L 291.355957 193.702999 
L 291.919878 189.160485 
L 293.047721 198.197754 
L 293.611642 211.586081 
L 293.893602 211.87273 
L 294.175563 209.072107 
L 294.457524 203.167367 
L 294.739484 190.023096 
L 296.431248 68.45021 
L 296.995169 52.763245 
L 297.277129 47.834526 
L 297.55909 47.720907 
L 297.841051 51.472055 
L 298.123011 58.778888 
L 298.686932 85.774261 
L 299.814775 139.578116 
L 300.378696 157.929297 
L 300.660656 162.706409 
L 301.224578 166.615011 
L 301.506538 168.250941 
L 301.788499 168.320262 
L 302.35242 162.958514 
L 302.634381 163.561808 
L 304.044183 182.686854 
L 304.326144 184.572867 
L 304.608105 185.128498 
L 305.172026 184.500567 
L 305.453986 185.162165 
L 305.735947 186.823892 
L 306.581829 195.09703 
L 307.709671 209.388222 
L 307.991632 209.942279 
L 308.273592 211.325359 
L 308.555553 209.263706 
L 308.837513 200.7682 
L 309.401435 174.172636 
L 309.965356 132.062361 
L 310.529277 94.224105 
L 311.657119 52.24343 
L 311.93908 48.254149 
L 312.22104 47.438963 
L 312.503001 48.645906 
L 312.784962 53.41346 
L 313.348883 74.415069 
L 313.912804 108.57259 
L 314.476725 143.587199 
L 315.040646 163.523369 
L 315.322607 170.657687 
L 315.604567 174.020716 
L 316.450449 177.519391 
L 316.73241 177.48984 
L 317.01437 178.524398 
L 317.578292 182.79303 
L 317.860252 182.534715 
L 318.142213 180.37907 
L 318.424173 177.331535 
L 318.706134 175.558718 
L 318.988095 176.621083 
L 319.270055 178.269922 
L 319.552016 178.13407 
L 319.833976 178.417497 
L 320.115937 182.624063 
L 320.679858 193.017045 
L 320.961819 193.947383 
L 321.243779 195.320846 
L 321.8077 200.687268 
L 322.089661 199.011511 
L 322.371622 196.146398 
L 322.653582 196.615241 
L 322.935543 199.994835 
L 323.217503 200.773998 
L 323.499464 195.725354 
L 324.063385 174.349611 
L 324.627306 139.196088 
L 325.473188 83.106026 
L 326.037109 60.796389 
L 326.31907 53.938354 
L 326.60103 50.482884 
L 326.882991 50.932833 
L 327.164952 54.64452 
L 327.728873 66.167474 
L 328.010833 74.906568 
L 328.574754 108.820931 
L 329.138676 146.112937 
L 329.420636 157.287375 
L 329.702597 163.82146 
L 330.266518 169.378222 
L 330.830439 172.926906 
L 331.1124 174.317758 
L 331.39436 177.309239 
L 331.958281 187.206812 
L 332.240242 189.11588 
L 332.522203 189.694036 
L 332.804163 190.749073 
L 333.086124 190.991466 
L 333.650045 186.941832 
L 333.932006 186.776007 
L 334.495927 188.415706 
L 335.623769 194.866967 
L 336.18769 201.675742 
L 336.751611 204.987299 
L 337.315533 210.925767 
L 337.597493 211.332141 
L 337.879454 208.301641 
L 338.161414 199.055054 
L 338.725336 160.990001 
L 340.135138 53.729796 
L 340.69906 38.005343 
L 340.98102 35.593344 
L 341.262981 36.46877 
L 341.544941 38.869344 
L 341.826902 44.363328 
L 342.390823 67.287591 
L 342.954744 101.819523 
L 343.518666 147.955792 
L 343.800626 161.600478 
L 344.646508 183.09982 
L 344.928468 183.413099 
L 345.49239 174.901035 
L 345.77435 175.516766 
L 346.056311 177.676987 
L 346.338271 177.129915 
L 346.620232 175.208024 
L 346.902193 175.456485 
L 347.466114 179.516012 
L 347.748074 179.58052 
L 348.030035 177.47463 
L 348.311995 173.69666 
L 348.593956 171.912941 
L 348.875917 175.853673 
L 349.439838 187.02367 
L 349.721798 189.41255 
L 350.003759 194.477054 
L 350.56768 206.454561 
L 351.131601 208.389895 
L 351.977483 219.090075 
L 352.259444 219.637147 
L 352.541404 217.005772 
L 352.823365 207.326335 
L 353.387286 162.388459 
L 354.233168 92.047331 
L 354.797089 60.071714 
L 355.36101 40.145321 
L 355.642971 37.095886 
L 355.924931 36.738558 
L 356.206892 37.091185 
L 356.488852 39.198302 
L 356.770813 45.617294 
L 357.052774 57.857544 
L 357.616695 99.587773 
L 358.180616 137.855234 
L 358.744537 157.829471 
L 359.026498 164.43172 
L 359.308458 168.145185 
L 360.15434 173.724553 
L 361.000222 187.640842 
L 361.564143 182.01381 
L 361.846104 182.563954 
L 362.128064 183.532535 
L 362.410025 180.608872 
L 362.691985 176.283245 
L 362.973946 176.397674 
L 363.537867 182.655074 
L 363.819828 183.177169 
L 364.101788 186.739338 
L 364.665709 200.125557 
L 364.94767 201.986266 
L 365.229631 202.77091 
L 365.511591 205.63848 
L 366.639434 220.81772 
L 366.921394 223.265505 
L 367.203355 219.228688 
L 367.485315 207.087048 
L 368.049237 168.720745 
L 369.177079 76.388963 
L 369.741 49.800654 
L 370.304921 32.445503 
L 370.586882 29.328692 
L 370.868842 31.095779 
L 371.150803 35.414032 
L 371.432764 41.578573 
L 371.714724 53.201606 
L 373.124527 152.679199 
L 373.688448 167.493873 
L 374.252369 175.161465 
L 374.53433 176.251394 
L 374.816291 177.82749 
L 375.380212 184.298222 
L 375.662172 183.49841 
L 376.226094 178.864799 
L 376.508054 178.489212 
L 376.790015 179.370122 
L 377.635896 185.170059 
L 377.917857 186.143966 
L 378.199818 187.880848 
L 379.891581 204.003906 
L 380.455502 209.876846 
L 381.019423 215.493234 
L 381.301384 216.361639 
L 381.583345 212.815276 
L 381.865305 203.89335 
L 382.429226 169.608797 
L 383.557069 83.896273 
L 384.12099 55.201285 
L 384.402951 48.008378 
L 384.684911 46.505274 
L 384.966872 46.66135 
L 385.248832 46.487773 
L 385.530793 49.804905 
L 386.094714 71.251363 
L 386.658635 98.557488 
L 387.222556 139.465495 
L 387.504517 150.841391 
L 388.350399 162.08061 
L 388.632359 163.099723 
L 388.91432 162.509122 
L 389.19628 165.12557 
L 389.478241 169.85296 
L 389.760202 171.471371 
L 390.042162 171.147689 
L 390.324123 173.673257 
L 390.606083 177.890087 
L 390.888044 178.844268 
L 391.451965 175.511288 
L 391.733926 175.029356 
L 392.015886 176.327583 
L 393.143729 198.119121 
L 393.70765 212.591541 
L 393.98961 211.441587 
L 394.271571 207.660901 
L 394.553532 209.382657 
L 394.835492 213.030082 
L 395.117453 211.796174 
L 395.399413 209.301314 
L 395.963335 213.642154 
L 396.245295 207.321134 
L 396.809216 179.720159 
L 397.373137 134.143342 
L 397.937059 94.870302 
L 398.78294 49.037008 
L 399.064901 44.875499 
L 399.346862 43.85281 
L 399.910783 36.968414 
L 400.192743 41.311528 
L 401.038625 71.374228 
L 401.602546 110.757819 
L 402.166467 144.151431 
L 402.730389 160.202585 
L 403.29431 176.753091 
L 403.858231 179.691451 
L 404.422152 185.819912 
L 404.704113 184.203135 
L 404.986073 181.454955 
L 405.268034 180.969959 
L 405.549994 181.77019 
L 406.113916 182.382147 
L 406.677837 184.722552 
L 406.959797 186.60862 
L 408.08764 196.733984 
L 409.215482 206.253308 
L 410.343324 221.637651 
L 410.625285 221.55789 
L 410.907246 218.652117 
L 411.189206 210.302114 
L 411.471167 194.053575 
L 413.16293 59.841758 
L 413.726851 42.284728 
L 414.008812 38.923326 
L 414.290773 38.600826 
L 414.572733 38.672201 
L 414.854694 40.12678 
L 415.136654 44.709235 
L 415.418615 51.604619 
L 415.700576 62.094349 
L 416.546457 118.626078 
L 417.110379 138.958278 
L 417.6743 164.271584 
L 418.520181 178.498534 
L 418.802142 179.66403 
L 419.366063 173.180431 
L 419.648024 172.107363 
L 419.929984 176.068343 
L 420.493906 188.315658 
L 420.775866 188.145865 
L 421.057827 188.607317 
L 421.339787 192.270495 
L 421.621748 193.827214 
L 422.185669 187.666481 
L 422.46763 190.144213 
L 423.031551 199.276861 
L 423.595472 205.071591 
L 424.441354 212.094415 
L 424.723314 214.470694 
L 425.005275 215.65246 
L 425.287236 215.970284 
L 425.569196 214.586428 
L 425.851157 207.809533 
L 426.415078 174.946304 
L 427.26096 113.295869 
L 427.824881 76.115746 
L 428.388802 59.379896 
L 428.952723 36.696021 
L 429.234684 33.612984 
L 429.798605 34.32301 
L 430.080565 37.485072 
L 430.362526 47.319242 
L 430.926447 83.117933 
L 432.05429 157.951454 
L 432.33625 166.839367 
L 432.900171 174.149606 
L 433.182132 175.604257 
L 433.464093 175.023357 
L 433.746053 173.747104 
L 434.028014 174.291312 
L 434.873895 179.682791 
L 435.155856 181.248549 
L 435.437817 181.45099 
L 436.001738 179.412157 
L 436.283698 179.892268 
L 436.84762 179.726983 
L 437.12958 182.960998 
L 437.693501 195.342866 
L 438.257422 199.158112 
L 438.821344 211.630892 
L 439.385265 223.222869 
L 439.667225 227.113054 
L 439.949186 228.254596 
L 440.231147 223.216302 
L 440.513107 208.302181 
L 441.64095 121.432668 
L 442.204871 81.947649 
L 443.050752 47.756578 
L 443.332713 37.249738 
L 443.614674 32.966196 
L 443.896634 33.413081 
L 444.178595 34.640557 
L 444.460555 38.018431 
L 444.742516 48.493209 
L 445.306437 93.079245 
L 445.870358 141.063351 
L 446.434279 166.288111 
L 446.71624 173.144768 
L 446.998201 174.430894 
L 447.280161 172.262306 
L 447.562122 172.697642 
L 448.126043 178.298392 
L 448.408004 179.048426 
L 448.689964 182.70225 
L 448.971925 188.61696 
L 449.253885 192.067613 
L 449.535846 191.796754 
L 449.817806 191.011414 
L 450.099767 190.736525 
L 450.381728 189.211222 
L 451.227609 177.882223 
L 451.50957 179.4605 
L 452.355452 193.239352 
L 453.201334 222.942289 
L 454.329176 237.970895 
L 454.611136 232.348768 
L 455.175058 210.890615 
L 455.457018 194.647887 
L 457.148782 54.374573 
L 457.712703 35.903029 
L 458.276624 25.24087 
L 458.558585 26.38307 
L 459.404466 40.501576 
L 459.686427 54.1462 
L 460.814269 132.225792 
L 461.378191 156.785036 
L 462.224072 175.206556 
L 462.506033 177.787953 
L 462.787993 177.817212 
L 463.069954 178.237303 
L 463.351915 179.74957 
L 463.633875 180.412191 
L 463.915836 180.751669 
L 464.197796 183.402965 
L 464.761718 193.391905 
L 465.043678 195.420662 
L 465.88956 198.160125 
L 466.17152 198.672144 
L 466.453481 201.443594 
L 467.017402 211.094811 
L 467.581323 217.008018 
L 468.145245 225.873483 
L 468.427205 228.564399 
L 468.991126 231.2092 
L 469.273087 230.614908 
L 469.555048 226.474492 
L 469.837008 215.578101 
L 470.400929 170.883189 
L 471.528772 66.485055 
L 472.092693 35.662879 
L 472.374653 26.961261 
L 472.656614 21.727766 
L 472.938575 19.27069 
L 473.220535 18.895903 
L 473.502496 20.822769 
L 473.784456 24.300478 
L 474.066417 29.305451 
L 474.348377 38.669261 
L 474.912299 78.193057 
L 475.75818 141.008086 
L 476.322102 166.794219 
L 476.886023 177.807176 
L 477.731905 189.32302 
L 478.295826 195.247207 
L 478.577786 195.776633 
L 479.423668 194.430689 
L 479.705629 194.432783 
L 479.987589 195.04362 
L 480.26955 196.252214 
L 480.55151 198.156778 
L 481.115432 203.666967 
L 481.397392 202.359062 
L 481.679353 198.258435 
L 481.961313 196.970402 
L 482.525234 205.862708 
L 482.807195 209.765297 
L 483.089156 215.461793 
L 483.653077 232.475737 
L 483.935037 235.026791 
L 484.216998 232.441113 
L 484.498959 224.70088 
L 484.780919 209.551838 
L 485.626801 136.11788 
L 486.472683 66.219812 
L 487.036604 44.732229 
L 487.600525 27.517388 
L 487.882486 23.570907 
L 488.164446 24.083059 
L 488.446407 28.279064 
L 488.728367 35.993622 
L 489.010328 47.581463 
L 489.574249 84.086769 
L 490.420131 143.247157 
L 490.984052 164.274269 
L 491.547973 172.476245 
L 492.393855 178.371025 
L 492.675816 179.491751 
L 492.957776 181.45712 
L 493.521697 189.313796 
L 493.803658 189.755567 
L 494.085619 188.073818 
L 494.367579 188.512861 
L 494.64954 190.891407 
L 494.9315 191.552093 
L 495.213461 190.053003 
L 495.495421 190.811432 
L 496.059343 197.862257 
L 496.341303 198.092967 
L 496.623264 199.80268 
L 497.187185 211.068972 
L 497.751106 217.817644 
L 498.315027 230.022995 
L 498.596988 231.826869 
L 498.878948 229.867766 
L 499.160909 222.571437 
L 499.44287 206.637053 
L 500.288751 127.211546 
L 500.852673 75.123541 
L 501.416594 46.848242 
L 501.980515 32.669532 
L 502.826397 19.444344 
L 503.108357 20.163463 
L 503.390318 27.258475 
L 503.954239 55.936819 
L 504.800121 120.056868 
L 505.364042 157.328273 
L 505.927963 174.177681 
L 506.491884 188.188981 
L 506.773845 192.263875 
L 507.055805 193.593848 
L 507.337766 194.243661 
L 507.901687 195.981415 
L 508.183648 194.766465 
L 508.747569 190.440644 
L 509.02953 190.338102 
L 509.31149 190.952855 
L 509.875411 193.16164 
L 510.157372 194.180679 
L 510.721293 193.076246 
L 511.003254 194.413182 
L 511.849135 202.04503 
L 512.131096 208.543755 
L 512.695017 228.124707 
L 512.976978 233.082465 
L 513.258938 234.820099 
L 513.540899 235.336988 
L 513.82286 231.914989 
L 514.10482 219.541978 
L 514.668741 169.749039 
L 515.796584 62.201452 
L 516.078544 48.866778 
L 516.924426 28.605916 
L 517.206387 24.907955 
L 517.488347 24.414534 
L 517.770308 25.768043 
L 518.052268 30.297741 
L 518.61619 46.732746 
L 518.89815 56.875563 
L 519.180111 72.290084 
L 520.307953 158.047634 
L 520.871874 179.992377 
L 521.153835 187.571609 
L 521.435795 191.179085 
L 521.717756 190.94374 
L 521.999717 190.284295 
L 522.281677 190.441805 
L 522.563638 189.906008 
L 522.845598 188.040343 
L 523.127559 187.532862 
L 523.409519 189.522762 
L 523.973441 194.680739 
L 524.537362 196.309766 
L 524.819322 198.517046 
L 525.383244 205.201545 
L 525.665204 203.948623 
L 525.947165 201.230685 
L 526.229125 201.241438 
L 526.793047 205.455618 
L 527.075007 206.932868 
L 527.356968 210.624866 
L 528.48481 230.590479 
L 528.766771 229.816314 
L 529.048731 218.88065 
L 529.612652 178.024231 
L 530.740495 66.041422 
L 531.304416 40.796384 
L 531.586376 33.880958 
L 532.150298 26.996154 
L 532.432258 25.226946 
L 532.714219 26.567175 
L 533.27814 30.891406 
L 533.560101 35.373892 
L 533.842061 47.862222 
L 534.687943 114.287403 
L 535.251864 155.410195 
L 535.533825 169.527384 
L 535.815785 177.940212 
L 536.943628 193.091403 
L 537.225588 191.719919 
L 537.507549 188.271433 
L 537.789509 189.127729 
L 538.07147 192.521346 
L 538.353431 192.866222 
L 538.635391 190.633274 
L 538.917352 191.393036 
L 539.481273 198.520041 
L 540.045194 199.383457 
L 540.609115 204.314507 
L 540.891076 204.34142 
L 541.454997 199.244431 
L 541.736958 202.103009 
L 542.300879 210.951971 
L 542.582839 215.068276 
L 543.428721 236.807353 
L 543.710682 233.473396 
L 543.992642 224.383831 
L 544.274603 210.072454 
L 544.838524 159.073998 
L 545.684406 72.247108 
L 546.248327 35.553416 
L 546.530288 25.949976 
L 546.812248 23.147703 
L 547.376169 22.270328 
L 547.65813 22.927648 
L 547.94009 27.479118 
L 548.785972 52.118467 
L 549.067933 65.444688 
L 550.195775 145.172314 
L 551.041657 175.072207 
L 551.605578 187.76419 
L 551.887539 191.258833 
L 552.169499 191.91974 
L 552.45146 192.132093 
L 553.015381 193.002223 
L 553.297342 194.030938 
L 553.579302 196.138295 
L 553.861263 196.877944 
L 554.143223 195.761754 
L 554.425184 195.11655 
L 554.989105 197.964733 
L 555.271066 198.839944 
L 555.553026 200.520139 
L 556.962829 216.921701 
L 557.24479 218.861297 
L 558.090672 227.791367 
L 558.372632 227.006968 
L 558.654593 223.373493 
L 558.936553 215.314196 
L 559.218514 199.729042 
L 560.064396 120.592645 
L 560.628317 68.922225 
L 561.192238 39.189063 
L 561.756159 21.267439 
L 562.03812 19.713456 
L 562.884002 31.065725 
L 563.165962 36.644413 
L 563.447923 46.276375 
L 564.011844 76.867819 
L 565.421647 160.869279 
L 566.267529 182.194162 
L 566.549489 186.054737 
L 567.395371 188.299808 
L 567.959292 192.183566 
L 568.241253 195.071504 
L 568.523213 196.794558 
L 568.805174 197.641817 
L 569.369095 201.154653 
L 569.651056 200.200525 
L 570.214977 191.274792 
L 570.496937 191.41956 
L 571.342819 201.578089 
L 571.62478 207.950935 
L 572.470661 238.700749 
L 573.034583 247.309053 
L 573.316543 250.090693 
L 573.598504 247.019789 
L 573.880464 235.553503 
L 574.444386 191.497662 
L 575.572228 74.544041 
L 576.136149 48.650042 
L 576.70007 29.185706 
L 576.982031 24.815865 
L 577.263991 23.501268 
L 577.545952 23.306145 
L 577.827913 24.279458 
L 578.109873 26.579714 
L 578.391834 32.202865 
L 578.955755 54.648562 
L 579.519676 86.470631 
L 580.365558 142.481651 
L 580.929479 167.841389 
L 581.21144 176.404668 
L 582.057321 188.816509 
L 582.339282 191.832747 
L 582.621243 193.148559 
L 582.903203 193.875843 
L 583.185164 193.51215 
L 583.467124 193.423181 
L 583.749085 194.274124 
L 584.031046 194.635851 
L 584.594967 189.414797 
L 584.876927 188.747242 
L 585.158888 190.994649 
L 585.440848 195.343947 
L 586.28673 214.148314 
L 587.414573 230.327607 
L 587.978494 231.750926 
L 588.542415 234.13564 
L 588.824375 229.888071 
L 589.106336 218.596868 
L 589.670257 177.67398 
L 590.516139 92.781026 
L 591.362021 41.404083 
L 591.643981 31.081737 
L 592.207903 22.802103 
L 592.489863 17.548867 
L 592.771824 18.725724 
L 593.335745 33.505743 
L 593.617705 34.610822 
L 593.899666 39.579376 
L 594.463587 75.536125 
L 595.87339 169.575603 
L 596.437311 184.420315 
L 596.719272 187.092873 
L 597.565154 189.422151 
L 597.847114 191.490205 
L 598.692996 205.318207 
L 598.974957 205.303586 
L 599.256917 206.566056 
L 599.538878 208.383412 
L 599.820838 209.200329 
L 600.102799 208.98307 
L 600.38476 209.658705 
L 600.66672 209.970179 
L 600.948681 209.981759 
L 601.230641 210.526587 
L 601.512602 213.57579 
L 602.640444 232.210258 
L 603.204365 238.14713 
L 603.486326 237.526007 
L 603.768287 230.691682 
L 604.050247 215.334454 
L 604.614168 164.804086 
L 605.742011 65.021291 
L 606.305932 37.113235 
L 606.869853 19.400379 
L 607.151814 14.520886 
L 607.433774 12.096 
L 607.715735 13.412518 
L 607.997695 19.586015 
L 608.561617 43.989528 
L 609.125538 77.009808 
L 610.25338 149.964863 
L 610.817301 170.052397 
L 611.099262 175.945888 
L 611.945144 184.522473 
L 612.227104 189.162105 
L 613.354946 199.767853 
L 613.636907 200.60138 
L 613.918868 199.102511 
L 614.200828 195.985371 
L 614.482789 195.114964 
L 614.764749 196.323569 
L 615.04671 198.25595 
L 615.328671 198.432502 
L 615.610631 200.696851 
L 615.892592 206.765525 
L 616.456513 222.561677 
L 617.584355 248.442328 
L 617.866316 249.850846 
L 618.148276 246.418919 
L 618.430237 239.624828 
L 618.712198 226.251471 
L 618.994158 204.705575 
L 620.403961 61.046903 
L 620.967882 34.524743 
L 621.531803 20.17729 
L 621.813764 16.513722 
L 622.095725 15.027277 
L 622.659646 22.475744 
L 623.223567 33.252437 
L 623.787488 58.539339 
L 624.63337 107.919045 
L 625.479252 160.434801 
L 626.043173 185.210716 
L 626.325133 191.051696 
L 626.607094 193.166835 
L 626.889055 197.799616 
L 627.171015 199.649585 
L 627.452976 198.802495 
L 627.734936 194.60332 
L 628.016897 194.820641 
L 628.298858 196.053075 
L 628.580818 199.662699 
L 628.862779 200.736566 
L 629.144739 204.051019 
L 629.4267 205.440534 
L 629.70866 209.921543 
L 629.990621 211.846279 
L 630.272582 216.263983 
L 630.554542 217.635404 
L 630.836503 223.630552 
L 631.118463 225.222934 
L 631.400424 228.952152 
L 631.682385 226.793605 
L 631.964345 232.047245 
L 632.246306 230.233387 
L 632.528266 237.066019 
L 632.810227 234.466835 
L 633.092188 254.016 
L 633.092188 254.016 
" clip-path="url(#pafbd549ff4)" style="fill: none; stroke: #1f77b4; stroke-width: 1.5; stroke-linecap: square"/>
   </g>
   <g id="patch_3">
    <path d="M 47.192188 266.112 
L 47.192188 0 
" style="fill: none; stroke: #000000; stroke-width: 0.8; stroke-linejoin: miter; stroke-linecap: square"/>
   </g>
   <g id="patch_4">
    <path d="M 660.992188 266.112 
L 660.992188 0 
" style="fill: none; stroke: #000000; stroke-width: 0.8; stroke-linejoin: miter; stroke-linecap: square"/>
   </g>
   <g id="patch_5">
    <path d="M 47.192188 266.112 
L 660.992188 266.112 
" style="fill: none; stroke: #000000; stroke-width: 0.8; stroke-linejoin: miter; stroke-linecap: square"/>
   </g>
   <g id="patch_6">
    <path d="M 47.192188 0 
L 660.992188 0 
" style="fill: none; stroke: #000000; stroke-width: 0.8; stroke-linejoin: miter; stroke-linecap: square"/>
   </g>
  </g>
 </g>
 <defs>
  <clipPath id="pafbd549ff4">
   <rect x="47.192188" y="0" width="613.8" height="266.112"/>
  </clipPath>
 </defs>
</svg>
