<?xml version="1.0" encoding="utf-8" standalone="no"?>
<!DOCTYPE svg PUBLIC "-//W3C//DTD SVG 1.1//EN"
  "http://www.w3.org/Graphics/SVG/1.1/DTD/svg11.dtd">
<svg xmlns:xlink="http://www.w3.org/1999/xlink" width="660.992188pt" height="282.790125pt" viewBox="0 0 660.992188 282.790125" xmlns="http://www.w3.org/2000/svg" version="1.1">
 <metadata>
  <rdf:RDF xmlns:dc="http://purl.org/dc/elements/1.1/" xmlns:cc="http://creativecommons.org/ns#" xmlns:rdf="http://www.w3.org/1999/02/22-rdf-syntax-ns#">
   <cc:Work>
    <dc:type rdf:resource="http://purl.org/dc/dcmitype/StillImage"/>
    <dc:date>2023-03-06T21:29:41.067364</dc:date>
    <dc:format>image/svg+xml</dc:format>
    <dc:creator>
     <cc:Agent>
      <dc:title>Matplotlib v3.6.3, https://matplotlib.org/</dc:title>
     </cc:Agent>
    </dc:creator>
   </cc:Work>
  </rdf:RDF>
 </metadata>
 <defs>
  <style type="text/css">*{stroke-linejoin: round; stroke-linecap: butt}</style>
 </defs>
 <g id="figure_1">
  <g id="patch_1">
   <path d="M -0 282.790125 
L 660.992188 282.790125 
L 660.992188 0 
L -0 0 
L -0 282.790125 
z
" style="fill: none"/>
  </g>
  <g id="axes_1">
   <g id="patch_2">
    <path d="M 47.192188 266.112 
L 660.992188 266.112 
L 660.992188 0 
L 47.192188 0 
L 47.192188 266.112 
z
" style="fill: none"/>
   </g>
   <g id="matplotlib.axis_1">
    <g id="xtick_1">
     <g id="line2d_1">
      <defs>
       <path id="m4bc38e4a62" d="M 0 0 
L 0 3.5 
" style="stroke: #808080; stroke-width: 0.8"/>
      </defs>
      <g>
       <use xlink:href="#m4bc38e4a62" x="75.092188" y="266.112" style="fill: #808080; stroke: #808080; stroke-width: 0.8"/>
      </g>
     </g>
     <g id="text_1">
      <!-- 0 -->
      <g style="fill: #808080" transform="translate(71.910938 280.710438) scale(0.1 -0.1)">
       <defs>
        <path id="DejaVuSans-30" d="M 2034 4250 
Q 1547 4250 1301 3770 
Q 1056 3291 1056 2328 
Q 1056 1369 1301 889 
Q 1547 409 2034 409 
Q 2525 409 2770 889 
Q 3016 1369 3016 2328 
Q 3016 3291 2770 3770 
Q 2525 4250 2034 4250 
z
M 2034 4750 
Q 2819 4750 3233 4129 
Q 3647 3509 3647 2328 
Q 3647 1150 3233 529 
Q 2819 -91 2034 -91 
Q 1250 -91 836 529 
Q 422 1150 422 2328 
Q 422 3509 836 4129 
Q 1250 4750 2034 4750 
z
" transform="scale(0.015625)"/>
       </defs>
       <use xlink:href="#DejaVuSans-30"/>
      </g>
     </g>
    </g>
    <g id="xtick_2">
     <g id="line2d_2">
      <g>
       <use xlink:href="#m4bc38e4a62" x="144.842188" y="266.112" style="fill: #808080; stroke: #808080; stroke-width: 0.8"/>
      </g>
     </g>
     <g id="text_2">
      <!-- 500 -->
      <g style="fill: #808080" transform="translate(135.298438 280.710438) scale(0.1 -0.1)">
       <defs>
        <path id="DejaVuSans-35" d="M 691 4666 
L 3169 4666 
L 3169 4134 
L 1269 4134 
L 1269 2991 
Q 1406 3038 1543 3061 
Q 1681 3084 1819 3084 
Q 2600 3084 3056 2656 
Q 3513 2228 3513 1497 
Q 3513 744 3044 326 
Q 2575 -91 1722 -91 
Q 1428 -91 1123 -41 
Q 819 9 494 109 
L 494 744 
Q 775 591 1075 516 
Q 1375 441 1709 441 
Q 2250 441 2565 725 
Q 2881 1009 2881 1497 
Q 2881 1984 2565 2268 
Q 2250 2553 1709 2553 
Q 1456 2553 1204 2497 
Q 953 2441 691 2322 
L 691 4666 
z
" transform="scale(0.015625)"/>
       </defs>
       <use xlink:href="#DejaVuSans-35"/>
       <use xlink:href="#DejaVuSans-30" x="63.623047"/>
       <use xlink:href="#DejaVuSans-30" x="127.246094"/>
      </g>
     </g>
    </g>
    <g id="xtick_3">
     <g id="line2d_3">
      <g>
       <use xlink:href="#m4bc38e4a62" x="214.592188" y="266.112" style="fill: #808080; stroke: #808080; stroke-width: 0.8"/>
      </g>
     </g>
     <g id="text_3">
      <!-- 1000 -->
      <g style="fill: #808080" transform="translate(201.867188 280.710438) scale(0.1 -0.1)">
       <defs>
        <path id="DejaVuSans-31" d="M 794 531 
L 1825 531 
L 1825 4091 
L 703 3866 
L 703 4441 
L 1819 4666 
L 2450 4666 
L 2450 531 
L 3481 531 
L 3481 0 
L 794 0 
L 794 531 
z
" transform="scale(0.015625)"/>
       </defs>
       <use xlink:href="#DejaVuSans-31"/>
       <use xlink:href="#DejaVuSans-30" x="63.623047"/>
       <use xlink:href="#DejaVuSans-30" x="127.246094"/>
       <use xlink:href="#DejaVuSans-30" x="190.869141"/>
      </g>
     </g>
    </g>
    <g id="xtick_4">
     <g id="line2d_4">
      <g>
       <use xlink:href="#m4bc38e4a62" x="284.342188" y="266.112" style="fill: #808080; stroke: #808080; stroke-width: 0.8"/>
      </g>
     </g>
     <g id="text_4">
      <!-- 1500 -->
      <g style="fill: #808080" transform="translate(271.617188 280.710438) scale(0.1 -0.1)">
       <use xlink:href="#DejaVuSans-31"/>
       <use xlink:href="#DejaVuSans-35" x="63.623047"/>
       <use xlink:href="#DejaVuSans-30" x="127.246094"/>
       <use xlink:href="#DejaVuSans-30" x="190.869141"/>
      </g>
     </g>
    </g>
    <g id="xtick_5">
     <g id="line2d_5">
      <g>
       <use xlink:href="#m4bc38e4a62" x="354.092188" y="266.112" style="fill: #808080; stroke: #808080; stroke-width: 0.8"/>
      </g>
     </g>
     <g id="text_5">
      <!-- 2000 -->
      <g style="fill: #808080" transform="translate(341.367188 280.710438) scale(0.1 -0.1)">
       <defs>
        <path id="DejaVuSans-32" d="M 1228 531 
L 3431 531 
L 3431 0 
L 469 0 
L 469 531 
Q 828 903 1448 1529 
Q 2069 2156 2228 2338 
Q 2531 2678 2651 2914 
Q 2772 3150 2772 3378 
Q 2772 3750 2511 3984 
Q 2250 4219 1831 4219 
Q 1534 4219 1204 4116 
Q 875 4013 500 3803 
L 500 4441 
Q 881 4594 1212 4672 
Q 1544 4750 1819 4750 
Q 2544 4750 2975 4387 
Q 3406 4025 3406 3419 
Q 3406 3131 3298 2873 
Q 3191 2616 2906 2266 
Q 2828 2175 2409 1742 
Q 1991 1309 1228 531 
z
" transform="scale(0.015625)"/>
       </defs>
       <use xlink:href="#DejaVuSans-32"/>
       <use xlink:href="#DejaVuSans-30" x="63.623047"/>
       <use xlink:href="#DejaVuSans-30" x="127.246094"/>
       <use xlink:href="#DejaVuSans-30" x="190.869141"/>
      </g>
     </g>
    </g>
    <g id="xtick_6">
     <g id="line2d_6">
      <g>
       <use xlink:href="#m4bc38e4a62" x="423.842188" y="266.112" style="fill: #808080; stroke: #808080; stroke-width: 0.8"/>
      </g>
     </g>
     <g id="text_6">
      <!-- 2500 -->
      <g style="fill: #808080" transform="translate(411.117188 280.710438) scale(0.1 -0.1)">
       <use xlink:href="#DejaVuSans-32"/>
       <use xlink:href="#DejaVuSans-35" x="63.623047"/>
       <use xlink:href="#DejaVuSans-30" x="127.246094"/>
       <use xlink:href="#DejaVuSans-30" x="190.869141"/>
      </g>
     </g>
    </g>
    <g id="xtick_7">
     <g id="line2d_7">
      <g>
       <use xlink:href="#m4bc38e4a62" x="493.592188" y="266.112" style="fill: #808080; stroke: #808080; stroke-width: 0.8"/>
      </g>
     </g>
     <g id="text_7">
      <!-- 3000 -->
      <g style="fill: #808080" transform="translate(480.867188 280.710438) scale(0.1 -0.1)">
       <defs>
        <path id="DejaVuSans-33" d="M 2597 2516 
Q 3050 2419 3304 2112 
Q 3559 1806 3559 1356 
Q 3559 666 3084 287 
Q 2609 -91 1734 -91 
Q 1441 -91 1130 -33 
Q 819 25 488 141 
L 488 750 
Q 750 597 1062 519 
Q 1375 441 1716 441 
Q 2309 441 2620 675 
Q 2931 909 2931 1356 
Q 2931 1769 2642 2001 
Q 2353 2234 1838 2234 
L 1294 2234 
L 1294 2753 
L 1863 2753 
Q 2328 2753 2575 2939 
Q 2822 3125 2822 3475 
Q 2822 3834 2567 4026 
Q 2313 4219 1838 4219 
Q 1578 4219 1281 4162 
Q 984 4106 628 3988 
L 628 4550 
Q 988 4650 1302 4700 
Q 1616 4750 1894 4750 
Q 2613 4750 3031 4423 
Q 3450 4097 3450 3541 
Q 3450 3153 3228 2886 
Q 3006 2619 2597 2516 
z
" transform="scale(0.015625)"/>
       </defs>
       <use xlink:href="#DejaVuSans-33"/>
       <use xlink:href="#DejaVuSans-30" x="63.623047"/>
       <use xlink:href="#DejaVuSans-30" x="127.246094"/>
       <use xlink:href="#DejaVuSans-30" x="190.869141"/>
      </g>
     </g>
    </g>
    <g id="xtick_8">
     <g id="line2d_8">
      <g>
       <use xlink:href="#m4bc38e4a62" x="563.342188" y="266.112" style="fill: #808080; stroke: #808080; stroke-width: 0.8"/>
      </g>
     </g>
     <g id="text_8">
      <!-- 3500 -->
      <g style="fill: #808080" transform="translate(550.617188 280.710438) scale(0.1 -0.1)">
       <use xlink:href="#DejaVuSans-33"/>
       <use xlink:href="#DejaVuSans-35" x="63.623047"/>
       <use xlink:href="#DejaVuSans-30" x="127.246094"/>
       <use xlink:href="#DejaVuSans-30" x="190.869141"/>
      </g>
     </g>
    </g>
    <g id="xtick_9">
     <g id="line2d_9">
      <g>
       <use xlink:href="#m4bc38e4a62" x="633.092188" y="266.112" style="fill: #808080; stroke: #808080; stroke-width: 0.8"/>
      </g>
     </g>
     <g id="text_9">
      <!-- 4000 -->
      <g style="fill: #808080" transform="translate(620.367188 280.710438) scale(0.1 -0.1)">
       <defs>
        <path id="DejaVuSans-34" d="M 2419 4116 
L 825 1625 
L 2419 1625 
L 2419 4116 
z
M 2253 4666 
L 3047 4666 
L 3047 1625 
L 3713 1625 
L 3713 1100 
L 3047 1100 
L 3047 0 
L 2419 0 
L 2419 1100 
L 313 1100 
L 313 1709 
L 2253 4666 
z
" transform="scale(0.015625)"/>
       </defs>
       <use xlink:href="#DejaVuSans-34"/>
       <use xlink:href="#DejaVuSans-30" x="63.623047"/>
       <use xlink:href="#DejaVuSans-30" x="127.246094"/>
       <use xlink:href="#DejaVuSans-30" x="190.869141"/>
      </g>
     </g>
    </g>
   </g>
   <g id="matplotlib.axis_2">
    <g id="ytick_1">
     <g id="line2d_10">
      <defs>
       <path id="m756ccc9792" d="M 0 0 
L -3.5 0 
" style="stroke: #808080; stroke-width: 0.8"/>
      </defs>
      <g>
       <use xlink:href="#m756ccc9792" x="47.192188" y="249.126203" style="fill: #808080; stroke: #808080; stroke-width: 0.8"/>
      </g>
     </g>
     <g id="text_10">
      <!-- −10000 -->
      <g style="fill: #808080" transform="translate(0 252.925422) scale(0.1 -0.1)">
       <defs>
        <path id="DejaVuSans-2212" d="M 678 2272 
L 4684 2272 
L 4684 1741 
L 678 1741 
L 678 2272 
z
" transform="scale(0.015625)"/>
       </defs>
       <use xlink:href="#DejaVuSans-2212"/>
       <use xlink:href="#DejaVuSans-31" x="83.789062"/>
       <use xlink:href="#DejaVuSans-30" x="147.412109"/>
       <use xlink:href="#DejaVuSans-30" x="211.035156"/>
       <use xlink:href="#DejaVuSans-30" x="274.658203"/>
       <use xlink:href="#DejaVuSans-30" x="338.28125"/>
      </g>
     </g>
    </g>
    <g id="ytick_2">
     <g id="line2d_11">
      <g>
       <use xlink:href="#m756ccc9792" x="47.192188" y="209.897966" style="fill: #808080; stroke: #808080; stroke-width: 0.8"/>
      </g>
     </g>
     <g id="text_11">
      <!-- −5000 -->
      <g style="fill: #808080" transform="translate(6.3625 213.697184) scale(0.1 -0.1)">
       <use xlink:href="#DejaVuSans-2212"/>
       <use xlink:href="#DejaVuSans-35" x="83.789062"/>
       <use xlink:href="#DejaVuSans-30" x="147.412109"/>
       <use xlink:href="#DejaVuSans-30" x="211.035156"/>
       <use xlink:href="#DejaVuSans-30" x="274.658203"/>
      </g>
     </g>
    </g>
    <g id="ytick_3">
     <g id="line2d_12">
      <g>
       <use xlink:href="#m756ccc9792" x="47.192188" y="170.669728" style="fill: #808080; stroke: #808080; stroke-width: 0.8"/>
      </g>
     </g>
     <g id="text_12">
      <!-- 0 -->
      <g style="fill: #808080" transform="translate(33.829688 174.468947) scale(0.1 -0.1)">
       <use xlink:href="#DejaVuSans-30"/>
      </g>
     </g>
    </g>
    <g id="ytick_4">
     <g id="line2d_13">
      <g>
       <use xlink:href="#m756ccc9792" x="47.192188" y="131.441491" style="fill: #808080; stroke: #808080; stroke-width: 0.8"/>
      </g>
     </g>
     <g id="text_13">
      <!-- 5000 -->
      <g style="fill: #808080" transform="translate(14.742188 135.240709) scale(0.1 -0.1)">
       <use xlink:href="#DejaVuSans-35"/>
       <use xlink:href="#DejaVuSans-30" x="63.623047"/>
       <use xlink:href="#DejaVuSans-30" x="127.246094"/>
       <use xlink:href="#DejaVuSans-30" x="190.869141"/>
      </g>
     </g>
    </g>
    <g id="ytick_5">
     <g id="line2d_14">
      <g>
       <use xlink:href="#m756ccc9792" x="47.192188" y="92.213253" style="fill: #808080; stroke: #808080; stroke-width: 0.8"/>
      </g>
     </g>
     <g id="text_14">
      <!-- 10000 -->
      <g style="fill: #808080" transform="translate(8.379688 96.012472) scale(0.1 -0.1)">
       <use xlink:href="#DejaVuSans-31"/>
       <use xlink:href="#DejaVuSans-30" x="63.623047"/>
       <use xlink:href="#DejaVuSans-30" x="127.246094"/>
       <use xlink:href="#DejaVuSans-30" x="190.869141"/>
       <use xlink:href="#DejaVuSans-30" x="254.492188"/>
      </g>
     </g>
    </g>
    <g id="ytick_6">
     <g id="line2d_15">
      <g>
       <use xlink:href="#m756ccc9792" x="47.192188" y="52.985016" style="fill: #808080; stroke: #808080; stroke-width: 0.8"/>
      </g>
     </g>
     <g id="text_15">
      <!-- 15000 -->
      <g style="fill: #808080" transform="translate(8.379688 56.784234) scale(0.1 -0.1)">
       <use xlink:href="#DejaVuSans-31"/>
       <use xlink:href="#DejaVuSans-35" x="63.623047"/>
       <use xlink:href="#DejaVuSans-30" x="127.246094"/>
       <use xlink:href="#DejaVuSans-30" x="190.869141"/>
       <use xlink:href="#DejaVuSans-30" x="254.492188"/>
      </g>
     </g>
    </g>
    <g id="ytick_7">
     <g id="line2d_16">
      <g>
       <use xlink:href="#m756ccc9792" x="47.192188" y="13.756778" style="fill: #808080; stroke: #808080; stroke-width: 0.8"/>
      </g>
     </g>
     <g id="text_16">
      <!-- 20000 -->
      <g style="fill: #808080" transform="translate(8.379688 17.555997) scale(0.1 -0.1)">
       <use xlink:href="#DejaVuSans-32"/>
       <use xlink:href="#DejaVuSans-30" x="63.623047"/>
       <use xlink:href="#DejaVuSans-30" x="127.246094"/>
       <use xlink:href="#DejaVuSans-30" x="190.869141"/>
       <use xlink:href="#DejaVuSans-30" x="254.492188"/>
      </g>
     </g>
    </g>
   </g>
   <g id="line2d_17">
    <path d="M 75.092188 170.692173 
L 75.938069 170.648481 
L 76.783951 170.690325 
L 77.629833 170.649349 
L 78.475715 170.690264 
L 79.321596 170.648672 
L 80.167478 170.691692 
L 81.01336 170.646403 
L 81.859242 170.69499 
L 82.705123 170.641742 
L 82.987084 170.698855 
L 83.269044 170.639312 
L 83.551005 170.701604 
L 83.832966 170.636189 
L 84.114926 170.705174 
L 84.396887 170.632082 
L 84.678847 170.709935 
L 84.960808 170.626509 
L 85.242769 170.716531 
L 85.524729 170.6186 
L 85.80669 170.726169 
L 86.08865 170.606624 
L 86.370611 170.741409 
L 86.652572 170.586638 
L 86.934532 170.768635 
L 87.216493 170.547713 
L 87.498453 170.82753 
L 87.780414 170.457247 
L 88.062374 170.786451 
L 88.344335 157.988051 
L 88.908256 116.467596 
L 89.190217 101.538755 
L 89.472177 94.466659 
L 89.754138 95.178646 
L 90.036099 107.277087 
L 91.163941 189.153435 
L 91.445901 193.181232 
L 91.727862 193.636395 
L 92.009823 195.813208 
L 92.291783 195.562142 
L 92.855704 179.308758 
L 93.137665 178.186185 
L 93.419626 180.242546 
L 93.701586 178.067482 
L 93.983547 173.970858 
L 94.265507 172.726331 
L 94.547468 173.682366 
L 95.39335 175.537859 
L 95.67531 176.623631 
L 95.957271 178.981408 
L 96.239231 182.705462 
L 96.521192 184.772396 
L 96.803153 183.28677 
L 97.085113 180.027899 
L 97.367074 178.299809 
L 97.649034 178.816796 
L 98.494916 183.142703 
L 98.776877 183.644849 
L 99.058837 183.640011 
L 99.340798 184.581053 
L 100.46864 196.019296 
L 100.750601 196.342381 
L 101.032561 188.139697 
L 103.006286 93.158779 
L 103.288246 93.13626 
L 103.570207 100.968666 
L 104.134128 142.756714 
L 104.416088 163.098183 
L 104.698049 172.765105 
L 104.98001 175.535255 
L 105.26197 180.760312 
L 105.543931 188.837284 
L 105.825891 192.667034 
L 106.107852 191.390944 
L 106.389813 189.283794 
L 106.671773 185.198265 
L 106.953734 178.63222 
L 107.235694 176.005195 
L 107.517655 178.837404 
L 107.799615 179.726523 
L 108.081576 177.772156 
L 108.363537 178.62013 
L 108.645497 179.95218 
L 109.209418 174.658833 
L 109.77334 181.957414 
L 110.337261 179.528709 
L 110.619221 179.625485 
L 110.901182 178.8207 
L 111.183143 178.61588 
L 111.465103 179.876058 
L 111.747064 178.147785 
L 112.029024 174.24794 
L 112.310985 176.731775 
L 112.874906 198.414078 
L 113.156867 202.296611 
L 113.438827 202.070405 
L 113.720788 201.4001 
L 114.002748 199.078121 
L 114.284709 193.260431 
L 114.56667 184.116843 
L 115.130591 153.606584 
L 115.976472 94.168272 
L 116.258433 84.403868 
L 116.540394 83.945132 
L 116.822354 94.050493 
L 117.668236 155.058247 
L 118.232157 188.55712 
L 118.514118 191.724623 
L 118.796078 187.848494 
L 119.078039 186.259233 
L 119.36 187.13742 
L 119.64196 182.555266 
L 119.923921 173.441189 
L 120.205881 168.375752 
L 120.487842 167.19171 
L 121.051763 158.489832 
L 121.333724 158.946705 
L 121.897645 167.969471 
L 122.179605 170.01983 
L 122.743527 171.187625 
L 123.307448 174.657807 
L 123.589408 175.222024 
L 123.871369 178.355549 
L 124.153329 184.014492 
L 124.43529 185.701253 
L 124.717251 182.113935 
L 124.999211 181.124904 
L 125.563132 192.521857 
L 125.845093 193.849285 
L 126.127054 192.225164 
L 126.409014 191.815644 
L 126.690975 194.360979 
L 126.972935 198.111734 
L 127.254896 200.097087 
L 127.536857 199.026685 
L 127.818817 194.771332 
L 128.100778 185.285723 
L 128.664699 145.476536 
L 129.22862 103.762441 
L 129.510581 92.369389 
L 129.792541 87.231382 
L 130.074502 89.20874 
L 130.356462 103.468131 
L 131.202344 177.632904 
L 131.484305 180.744516 
L 131.766265 181.468463 
L 132.048226 182.820671 
L 132.330186 180.356752 
L 132.612147 176.538784 
L 132.894108 177.552457 
L 133.176068 180.475957 
L 133.458029 178.855683 
L 134.02195 170.452014 
L 134.303911 168.116802 
L 134.585871 167.170114 
L 135.149792 170.177924 
L 135.431753 169.763039 
L 135.713714 170.558248 
L 135.995674 173.726417 
L 136.277635 175.319345 
L 136.559595 175.126607 
L 136.841556 177.384748 
L 137.123516 181.17946 
L 137.687438 185.518526 
L 138.251359 198.273966 
L 138.533319 200.895985 
L 138.81528 202.100041 
L 139.097241 203.96797 
L 139.379201 204.070907 
L 139.943122 197.76385 
L 140.225083 198.071027 
L 140.507043 201.730017 
L 140.789004 202.471583 
L 141.070965 193.28157 
L 141.634886 151.414366 
L 142.480768 90.45313 
L 142.762728 76.638183 
L 143.044689 74.135177 
L 143.326649 91.447757 
L 143.890571 150.386354 
L 144.454492 187.292155 
L 144.736452 197.018393 
L 145.018413 187.750032 
L 145.300373 169.140429 
L 145.582334 161.537471 
L 145.864295 164.565574 
L 146.146255 163.260341 
L 146.428216 156.798864 
L 146.710176 155.551195 
L 146.992137 159.598629 
L 147.274098 161.196902 
L 147.556058 159.988688 
L 147.838019 159.933682 
L 148.119979 160.678787 
L 148.40194 162.007218 
L 148.6839 167.329039 
L 149.247822 183.164551 
L 150.093703 191.675113 
L 150.375664 193.462226 
L 150.657625 194.155375 
L 151.503506 199.164526 
L 151.785467 201.187921 
L 152.349388 207.387944 
L 153.19527 219.139628 
L 153.47723 220.70826 
L 153.759191 220.36896 
L 154.041152 217.402092 
L 154.323112 210.352438 
L 154.605073 197.715422 
L 155.168994 153.160512 
L 156.014876 76.599332 
L 156.296836 66.237343 
L 156.578797 71.277988 
L 157.142718 111.20293 
L 157.9886 178.168824 
L 158.27056 186.172293 
L 158.552521 187.569223 
L 159.116442 192.920671 
L 159.398403 188.815784 
L 159.962324 164.960369 
L 160.244285 160.117496 
L 160.808206 157.143806 
L 161.090166 158.398679 
L 161.372127 161.499898 
L 161.936048 164.528576 
L 163.06389 179.511421 
L 163.627812 191.723289 
L 163.909772 193.261104 
L 164.191733 195.431284 
L 164.755654 205.175326 
L 165.037614 206.197452 
L 165.601536 202.559777 
L 165.883496 203.474791 
L 166.447417 208.789825 
L 166.729378 208.548386 
L 167.011339 206.514943 
L 167.293299 202.444293 
L 167.57526 193.758571 
L 167.85722 178.404403 
L 169.267023 70.927969 
L 169.548984 64.686962 
L 169.830944 66.956496 
L 170.112905 79.502236 
L 170.676826 130.689108 
L 171.240747 174.617276 
L 171.522708 181.06721 
L 171.804669 181.647522 
L 172.086629 181.137288 
L 172.36859 180.984431 
L 172.65055 181.268728 
L 173.214471 183.654986 
L 173.496432 182.712548 
L 174.060353 172.577711 
L 174.342314 171.646464 
L 174.906235 179.824463 
L 175.188196 181.261645 
L 175.470156 181.460632 
L 175.752117 182.424225 
L 176.316038 186.554867 
L 176.879959 190.085725 
L 177.16192 190.122147 
L 177.44388 189.986596 
L 177.725841 191.311135 
L 178.289762 196.54524 
L 178.571723 200.223264 
L 179.135644 209.027941 
L 179.417604 209.223791 
L 179.699565 210.465549 
L 180.263486 219.573278 
L 180.545447 217.791594 
L 180.827407 208.979935 
L 181.109368 192.309548 
L 181.95525 110.716637 
L 182.519171 60.041257 
L 182.801131 48.032249 
L 183.083092 46.685068 
L 183.365053 56.453271 
L 183.647013 79.699011 
L 184.492895 175.892311 
L 184.774856 188.392487 
L 185.056816 189.38635 
L 185.338777 187.405631 
L 185.620737 186.479077 
L 185.902698 183.874804 
L 186.184658 180.084524 
L 186.466619 179.816466 
L 186.74858 182.351908 
L 187.03054 183.090172 
L 187.594461 180.774515 
L 188.158383 177.708347 
L 188.440343 178.777015 
L 188.722304 180.502251 
L 189.004264 180.744445 
L 189.286225 182.21232 
L 189.850146 192.617797 
L 190.132107 194.573727 
L 190.414067 194.865632 
L 190.696028 197.667641 
L 191.259949 206.192015 
L 191.54191 207.928456 
L 192.387791 219.385204 
L 192.669752 219.823451 
L 193.233673 223.977729 
L 193.515634 222.465493 
L 193.797594 218.669098 
L 194.079555 211.624738 
L 194.361515 196.81488 
L 194.925437 147.268752 
L 195.771318 54.526629 
L 196.053279 39.670411 
L 196.33524 38.143742 
L 196.6172 48.246564 
L 196.899161 69.203725 
L 198.027003 178.251967 
L 198.308964 184.263095 
L 198.590924 182.217179 
L 198.872885 178.582343 
L 199.154845 176.9189 
L 199.436806 177.383317 
L 199.718767 179.129919 
L 200.282688 184.786343 
L 200.564648 185.387974 
L 201.12857 180.66773 
L 201.41053 181.746897 
L 201.692491 184.447472 
L 202.256412 187.784711 
L 203.102294 203.343151 
L 203.666215 207.891906 
L 204.230136 211.841982 
L 204.794057 216.60103 
L 205.357978 218.196909 
L 205.921899 223.080307 
L 206.20386 222.995528 
L 206.485821 224.028041 
L 206.767781 226.740427 
L 207.049742 223.62595 
L 207.331702 209.869663 
L 207.895624 163.401081 
L 209.023466 24.008568 
L 209.305427 21.138083 
L 209.587387 29.42638 
L 210.151308 66.232485 
L 210.715229 128.834209 
L 211.279151 185.509877 
L 211.561111 193.882622 
L 211.843072 193.071063 
L 212.406993 186.740863 
L 212.970914 186.807708 
L 213.534835 181.726174 
L 213.816796 183.834466 
L 214.380717 191.917738 
L 214.662678 193.686188 
L 215.226599 200.45563 
L 215.508559 198.858106 
L 215.79052 194.481287 
L 216.072481 193.601849 
L 216.354441 196.173167 
L 216.636402 196.895358 
L 216.918362 196.381119 
L 217.200323 199.712505 
L 217.482284 205.489543 
L 218.046205 211.118125 
L 218.610126 221.947181 
L 219.174047 224.690468 
L 219.737968 231.813258 
L 220.019929 230.711723 
L 220.301889 226.303367 
L 220.58385 215.970129 
L 220.865811 193.197561 
L 221.429732 106.65885 
L 221.993653 28.920514 
L 222.275613 15.884443 
L 222.557574 17.608493 
L 222.839535 31.23198 
L 223.685416 102.126979 
L 224.531298 198.205027 
L 224.813259 202.892392 
L 225.37718 190.151172 
L 226.786983 180.122486 
L 227.068943 177.225512 
L 227.350904 178.131005 
L 227.914825 188.179646 
L 228.196786 189.438323 
L 228.478746 189.293365 
L 228.760707 191.390794 
L 229.324628 201.237803 
L 230.17051 208.496536 
L 230.734431 215.611949 
L 231.016392 219.248074 
L 231.580313 228.24282 
L 231.862273 226.708643 
L 232.144234 224.032017 
L 232.426195 225.162013 
L 232.708155 228.388071 
L 232.990116 228.723362 
L 233.272076 225.111493 
L 233.554037 218.0235 
L 233.835998 204.115524 
L 234.399919 146.473117 
L 235.2458 29.823459 
L 235.527761 16.955531 
L 235.809722 22.545671 
L 236.373643 47.603445 
L 236.937564 91.389796 
L 238.065406 203.06994 
L 238.347367 208.063762 
L 238.629327 205.559969 
L 239.475209 193.767781 
L 239.75717 192.320933 
L 240.03913 191.825577 
L 240.885012 189.007634 
L 241.166973 189.22709 
L 241.448933 189.984185 
L 241.730894 191.271476 
L 243.422657 204.584557 
L 243.704618 205.002133 
L 243.986579 206.047209 
L 244.83246 216.891823 
L 245.114421 219.279343 
L 245.678342 227.752072 
L 245.960303 232.089258 
L 246.242263 233.529608 
L 246.524224 230.357521 
L 246.806184 222.512454 
L 247.088145 207.265259 
L 247.370106 179.081456 
L 248.497948 27.593837 
L 248.779909 21.933208 
L 249.34383 38.032404 
L 249.62579 48.979145 
L 249.907751 66.617734 
L 250.471672 121.143324 
L 251.035593 180.628753 
L 251.317554 199.328727 
L 251.599514 206.435942 
L 251.881475 205.951793 
L 252.445396 197.571888 
L 252.727357 193.263809 
L 253.009317 190.689871 
L 253.573239 189.319673 
L 254.13716 184.784506 
L 254.41912 184.139311 
L 254.701081 184.856589 
L 254.983041 186.467382 
L 255.828923 197.054778 
L 256.110884 198.364303 
L 256.392844 201.480138 
L 256.956766 208.981581 
L 257.238726 210.502466 
L 257.520687 214.011692 
L 258.084608 227.180702 
L 258.366569 228.231951 
L 258.648529 225.432941 
L 258.93049 225.930652 
L 259.494411 239.444503 
L 259.776371 238.390073 
L 260.058332 227.299229 
L 260.340293 206.490509 
L 260.904214 129.996829 
L 261.468135 45.743735 
L 261.750096 27.418533 
L 262.032056 28.07723 
L 262.595977 52.094361 
L 262.877938 58.937277 
L 263.159898 69.029518 
L 263.72382 118.715145 
L 264.851662 216.068285 
L 265.133623 216.95686 
L 265.697544 207.376128 
L 265.979504 204.138125 
L 266.825386 182.907828 
L 267.107347 183.577341 
L 267.389307 187.326795 
L 267.671268 189.390489 
L 267.953228 190.551105 
L 268.51715 194.267575 
L 268.79911 197.339002 
L 269.363031 209.065022 
L 269.644992 209.925498 
L 269.926953 209.156152 
L 270.208913 210.073471 
L 270.490874 213.142767 
L 271.336755 232.016505 
L 272.182637 236.319627 
L 272.464598 235.491394 
L 272.746558 235.373065 
L 273.028519 234.404544 
L 273.31048 226.642903 
L 273.59244 209.650088 
L 273.874401 181.362826 
L 275.002243 15.877003 
L 275.284204 12.096 
L 275.566164 16.012618 
L 275.848125 23.220146 
L 276.412046 50.164799 
L 276.975967 90.235662 
L 277.821849 177.750233 
L 278.10381 191.842392 
L 278.38577 197.477122 
L 278.667731 198.336533 
L 279.231652 195.13997 
L 279.513612 194.064946 
L 279.795573 190.999205 
L 280.359494 182.589899 
L 280.641455 182.781517 
L 280.923415 185.498328 
L 281.205376 190.071171 
L 282.051258 207.625042 
L 282.333218 209.302264 
L 282.615179 212.929382 
L 282.897139 218.672167 
L 283.1791 222.138107 
L 283.461061 222.81368 
L 283.743021 225.092597 
L 284.024982 229.652157 
L 284.306942 231.869645 
L 284.870864 229.64992 
L 285.152824 230.946978 
L 285.434785 231.668296 
L 285.716745 231.473068 
L 286.280667 234.269031 
L 286.562627 230.186154 
L 286.844588 217.592474 
L 287.126548 194.205278 
L 287.690469 103.259782 
L 287.97243 56.86118 
L 288.254391 33.316787 
L 288.536351 29.522612 
L 288.818312 31.772087 
L 289.100272 36.595998 
L 289.382233 48.367657 
L 290.228115 101.832054 
L 290.792036 151.149599 
L 291.355957 201.557332 
L 291.637918 209.776273 
L 291.919878 204.386337 
L 292.483799 189.622466 
L 293.047721 179.814766 
L 293.329681 179.100163 
L 293.893602 185.77445 
L 294.175563 184.985926 
L 294.457524 186.554079 
L 295.021445 204.29244 
L 295.303405 207.771537 
L 295.585366 206.114145 
L 295.867326 205.607301 
L 296.713208 211.755938 
L 297.277129 217.187919 
L 297.55909 217.295549 
L 297.841051 218.285411 
L 298.968893 234.802913 
L 299.250853 240.424996 
L 299.532814 242.088207 
L 299.814775 237.156429 
L 300.096735 227.124564 
L 300.378696 208.860344 
L 300.660656 173.706528 
L 301.224578 73.918476 
L 301.506538 42.178784 
L 301.788499 28.34265 
L 302.070459 26.635242 
L 302.35242 33.49649 
L 303.198302 71.14356 
L 304.044183 134.822518 
L 304.608105 189.593761 
L 304.890065 205.331514 
L 305.172026 210.468312 
L 305.453986 211.286535 
L 305.735947 208.946135 
L 307.14575 180.730008 
L 307.42771 179.009994 
L 307.709671 179.865705 
L 307.991632 182.472982 
L 309.401435 206.924346 
L 309.965356 209.190453 
L 310.529277 215.218844 
L 311.093198 215.822391 
L 311.375159 219.427131 
L 311.93908 230.773954 
L 312.22104 234.01323 
L 312.503001 234.110221 
L 313.066922 229.805309 
L 313.348883 225.497338 
L 313.630843 214.99723 
L 313.912804 193.036027 
L 314.476725 104.30629 
L 314.758686 59.29456 
L 315.040646 36.38304 
L 315.322607 33.582611 
L 315.604567 38.820611 
L 316.168489 57.786139 
L 317.01437 101.20764 
L 317.578292 141.276539 
L 318.142213 195.460517 
L 318.424173 212.573717 
L 318.706134 218.958203 
L 318.988095 218.165664 
L 319.833976 199.362514 
L 320.115937 198.468519 
L 320.397897 197.057158 
L 320.961819 191.334566 
L 321.243779 190.760422 
L 321.52574 193.866306 
L 322.089661 204.156948 
L 322.371622 207.151176 
L 322.653582 211.484976 
L 323.499464 232.264879 
L 323.781424 234.824808 
L 324.063385 230.750384 
L 325.191227 190.904275 
L 325.473188 187.620325 
L 325.755149 186.027872 
L 326.037109 189.057359 
L 326.31907 195.074278 
L 326.60103 196.146161 
L 326.882991 188.136187 
L 327.164952 171.228229 
L 327.446912 141.380881 
L 328.010833 56.818672 
L 328.292794 36.524779 
L 328.574754 36.110944 
L 329.420636 52.016139 
L 329.702597 63.331198 
L 330.548479 122.280807 
L 331.676321 212.453975 
L 331.958281 222.470048 
L 332.240242 226.650565 
L 332.522203 223.950082 
L 334.213966 187.630843 
L 334.495927 186.008989 
L 334.777887 186.964981 
L 335.059848 189.444143 
L 335.341809 190.223988 
L 335.623769 190.606004 
L 336.18769 197.110041 
L 336.469651 197.454267 
L 336.751611 200.00125 
L 337.315533 215.404802 
L 337.597493 216.604978 
L 337.879454 215.997431 
L 338.161414 218.884301 
L 338.443375 223.520312 
L 338.725336 225.314605 
L 339.007296 224.048412 
L 339.289257 224.712286 
L 339.853178 233.597698 
L 340.135138 227.21994 
L 340.69906 191.089318 
L 340.98102 161.401497 
L 341.826902 46.938236 
L 342.108863 39.12713 
L 342.390823 42.100405 
L 342.672784 48.873049 
L 343.236705 72.526649 
L 343.800626 102.863631 
L 345.210429 210.640536 
L 345.49239 219.673562 
L 345.77435 218.854453 
L 346.902193 192.305268 
L 348.030035 177.581615 
L 348.311995 175.356464 
L 348.593956 178.117621 
L 349.439838 195.860236 
L 350.003759 204.566395 
L 350.28572 206.613146 
L 350.849641 208.838628 
L 351.131601 211.034201 
L 351.977483 223.754435 
L 352.259444 224.169819 
L 352.541404 226.423931 
L 353.105325 233.355638 
L 353.387286 231.15886 
L 353.669247 222.601592 
L 353.951207 206.717341 
L 354.233168 180.586896 
L 355.07905 59.004208 
L 355.36101 44.187933 
L 355.642971 44.014898 
L 355.924931 47.733758 
L 356.206892 53.637889 
L 356.770813 79.480472 
L 357.334734 111.941602 
L 358.744537 212.10635 
L 359.308458 226.579081 
L 359.590419 228.369635 
L 359.87238 226.155397 
L 360.436301 209.327079 
L 361.564143 176.415064 
L 362.128064 154.092784 
L 362.410025 154.411016 
L 362.691985 159.219061 
L 362.973946 160.560078 
L 363.255907 159.832691 
L 363.537867 163.023457 
L 364.94767 191.573426 
L 365.229631 195.828294 
L 366.075512 223.949008 
L 366.921394 239.899375 
L 367.203355 233.648449 
L 367.485315 211.234513 
L 368.613158 56.976321 
L 368.895118 55.504897 
L 369.741 70.12116 
L 370.304921 95.441903 
L 370.868842 130.38721 
L 371.714724 195.582311 
L 371.996685 207.672735 
L 372.278645 213.982617 
L 372.560606 215.777819 
L 372.842566 213.647813 
L 373.688448 201.238463 
L 374.252369 186.855825 
L 374.53433 183.889091 
L 375.098251 182.986883 
L 375.380212 184.555472 
L 375.662172 187.496901 
L 375.944133 187.077998 
L 376.226094 184.426188 
L 376.508054 185.864667 
L 377.071975 194.408915 
L 377.353936 196.292688 
L 378.199818 210.372636 
L 378.481778 217.032856 
L 379.045699 236.408769 
L 379.891581 248.910736 
L 380.173542 249.131544 
L 380.455502 239.719481 
L 380.737463 218.385227 
L 381.019423 180.594391 
L 381.583345 73.400486 
L 381.865305 42.43539 
L 382.147266 35.548417 
L 382.429226 37.789643 
L 382.711187 41.770131 
L 382.993148 52.503533 
L 384.966872 171.60239 
L 385.530793 197.775021 
L 385.812753 205.241016 
L 386.094714 204.950347 
L 386.376675 202.216079 
L 386.658635 200.808746 
L 386.940596 198.329062 
L 387.786478 177.23364 
L 388.068438 175.499174 
L 388.350399 175.228491 
L 388.91432 172.019908 
L 389.19628 173.813086 
L 390.324123 193.698795 
L 390.606083 202.306542 
L 390.888044 206.755275 
L 391.170005 207.830236 
L 391.451965 213.564683 
L 392.015886 233.149095 
L 392.861768 254.016 
L 393.143729 252.321266 
L 393.70765 242.423044 
L 393.98961 222.152959 
L 395.117453 51.685835 
L 395.399413 36.370204 
L 395.681374 40.049607 
L 396.245295 67.169352 
L 397.091177 95.011697 
L 398.50098 181.981528 
L 398.78294 201.008487 
L 399.064901 210.244783 
L 399.346862 210.022058 
L 399.628822 207.032259 
L 399.910783 202.155581 
L 400.474704 187.164097 
L 401.602546 171.914978 
L 401.884507 170.662326 
L 402.166467 170.926803 
L 402.448428 171.797295 
L 402.730389 173.885356 
L 403.57627 188.218394 
L 403.858231 193.479641 
L 404.422152 206.603686 
L 404.704113 207.405961 
L 404.986073 209.528186 
L 405.549994 221.780766 
L 405.831955 224.68861 
L 406.677837 244.037116 
L 406.959797 244.610148 
L 407.241758 240.851214 
L 407.523719 220.86811 
L 408.651561 62.409534 
L 408.933522 52.759948 
L 409.215482 56.329787 
L 410.061364 74.401374 
L 410.625285 99.532842 
L 410.907246 116.435338 
L 411.471167 164.78467 
L 412.317049 203.255437 
L 412.599009 212.768504 
L 412.88097 212.828353 
L 413.444891 199.60923 
L 414.572733 165.514802 
L 414.854694 165.936388 
L 415.136654 171.43799 
L 415.418615 174.577647 
L 415.700576 173.553878 
L 415.982536 174.064468 
L 416.264497 176.859265 
L 416.546457 177.227127 
L 416.828418 176.685841 
L 417.110379 180.192149 
L 417.392339 185.354201 
L 417.95626 189.241778 
L 418.238221 194.075226 
L 418.520181 202.729745 
L 419.366063 238.506157 
L 419.648024 241.87471 
L 419.929984 242.276434 
L 420.211945 242.256959 
L 420.493906 239.984947 
L 420.775866 229.571772 
L 421.057827 202.622158 
L 421.903708 84.607192 
L 422.185669 73.750881 
L 422.46763 71.008149 
L 422.74959 71.618461 
L 423.031551 76.158029 
L 423.313511 85.354508 
L 424.723314 152.6748 
L 425.851157 205.303901 
L 426.133117 211.550271 
L 426.415078 212.288764 
L 426.697038 207.519338 
L 427.26096 190.527255 
L 427.824881 185.56071 
L 428.670763 162.187001 
L 429.234684 158.974412 
L 429.516644 158.560135 
L 429.798605 160.864795 
L 430.926447 174.24091 
L 431.490368 171.570433 
L 431.772329 175.741313 
L 432.900171 211.458233 
L 433.464093 236.919254 
L 433.746053 237.404108 
L 434.028014 234.717484 
L 434.309974 226.544893 
L 434.591935 199.872614 
L 435.155856 108.823122 
L 435.437817 83.190138 
L 435.719777 78.039861 
L 436.283698 89.960275 
L 436.84762 104.982839 
L 437.975462 155.556842 
L 438.821344 196.896686 
L 439.385265 208.430823 
L 439.667225 213.721364 
L 439.949186 214.471693 
L 440.231147 205.100854 
L 440.795068 180.716104 
L 441.358989 171.350857 
L 441.64095 168.406165 
L 441.92291 167.397525 
L 442.204871 167.083045 
L 442.486831 167.663143 
L 442.768792 168.864722 
L 443.050752 167.824658 
L 443.332713 165.821983 
L 443.614674 168.785773 
L 443.896634 175.743551 
L 444.178595 179.336768 
L 444.460555 178.958304 
L 444.742516 179.593706 
L 445.024477 181.626546 
L 445.306437 184.863729 
L 446.152319 205.161152 
L 446.434279 207.966509 
L 446.998201 221.799549 
L 447.280161 223.005872 
L 447.562122 218.121222 
L 447.844082 203.963336 
L 448.689964 124.480221 
L 448.971925 110.969683 
L 449.253885 104.818063 
L 449.535846 106.16949 
L 449.817806 110.409275 
L 450.381728 114.12988 
L 450.945649 130.562771 
L 451.50957 150.050071 
L 452.073491 174.928102 
L 452.637412 186.017361 
L 452.919373 190.623599 
L 453.201334 190.987489 
L 453.483294 186.079294 
L 454.329176 164.881109 
L 454.611136 160.860598 
L 454.893097 158.850828 
L 455.175058 158.826798 
L 455.457018 162.686451 
L 455.738979 169.1152 
L 456.020939 172.68586 
L 456.3029 172.5004 
L 456.584861 173.111796 
L 457.148782 177.424626 
L 457.430742 182.221736 
L 457.712703 190.496682 
L 457.994663 194.439767 
L 458.558585 187.672221 
L 458.840545 192.940023 
L 459.122506 200.40082 
L 459.404466 203.341024 
L 459.686427 204.244438 
L 460.250348 209.881599 
L 460.532309 210.578043 
L 460.814269 209.275496 
L 461.09623 203.395832 
L 461.378191 186.713094 
L 462.224072 113.661771 
L 462.506033 108.136607 
L 462.787993 108.463653 
L 463.351915 112.28388 
L 463.633875 116.17205 
L 463.915836 123.583023 
L 464.761718 152.190456 
L 465.043678 159.148926 
L 465.88956 192.231869 
L 466.17152 196.418545 
L 466.453481 195.404999 
L 467.017402 185.857379 
L 467.863284 170.924876 
L 468.709166 164.128073 
L 468.991126 164.848731 
L 469.555048 180.629922 
L 470.118969 185.78308 
L 470.400929 191.385452 
L 470.68289 194.012274 
L 471.246811 179.170509 
L 471.528772 177.655306 
L 471.810732 181.810865 
L 472.374653 195.919891 
L 472.656614 203.765346 
L 472.938575 205.710593 
L 473.220535 203.694076 
L 473.502496 204.357576 
L 473.784456 207.307834 
L 474.066417 207.482042 
L 474.348377 202.54024 
L 474.630338 189.912645 
L 475.47622 123.957517 
L 475.75818 115.614621 
L 476.040141 112.940295 
L 476.322102 113.466389 
L 476.604062 114.866397 
L 476.886023 114.888884 
L 477.167983 116.842677 
L 477.449944 126.229986 
L 478.013865 155.245131 
L 478.577786 170.952108 
L 479.141707 180.903236 
L 479.705629 187.223679 
L 479.987589 187.661201 
L 480.26955 183.165906 
L 480.833471 168.292794 
L 481.115432 164.399741 
L 481.397392 162.725284 
L 481.679353 165.241229 
L 482.243274 176.317646 
L 482.525234 176.940806 
L 483.089156 179.286781 
L 483.371116 178.003722 
L 483.653077 177.905985 
L 484.216998 187.516071 
L 485.06288 193.201636 
L 485.626801 185.049169 
L 485.908762 187.2834 
L 486.472683 198.842116 
L 487.036604 202.435801 
L 487.318564 202.013411 
L 487.600525 196.781367 
L 487.882486 185.220712 
L 489.010328 124.478837 
L 489.292289 115.529793 
L 489.574249 112.933607 
L 489.85621 118.234824 
L 492.111894 186.980369 
L 492.393855 194.216359 
L 492.675816 193.860647 
L 492.957776 191.071293 
L 493.239737 190.78591 
L 493.521697 188.280447 
L 494.367579 166.691154 
L 494.9315 163.541383 
L 495.213461 164.426372 
L 495.777382 173.876318 
L 496.059343 174.98056 
L 496.623264 168.406625 
L 496.905224 170.760677 
L 497.469146 180.319656 
L 498.033067 185.828687 
L 498.315027 186.299195 
L 498.596988 187.530397 
L 499.160909 193.696545 
L 499.44287 195.084036 
L 500.570712 202.418014 
L 500.852673 201.769547 
L 501.134633 193.563651 
L 502.262476 134.394311 
L 502.544436 128.572328 
L 502.826397 127.160671 
L 503.108357 126.90246 
L 503.390318 127.969922 
L 504.2362 140.002173 
L 504.51816 148.242039 
L 505.082081 168.847064 
L 505.646003 179.631654 
L 505.927963 182.59935 
L 506.773845 179.847505 
L 507.055805 176.264956 
L 507.619727 167.674913 
L 507.901687 166.943734 
L 508.183648 168.16332 
L 508.747569 173.988561 
L 509.02953 174.416176 
L 509.31149 175.116388 
L 510.157372 183.703683 
L 510.439333 185.202531 
L 510.721293 185.401546 
L 511.003254 185.772688 
L 511.567175 189.697105 
L 512.131096 188.05119 
L 512.413057 189.764715 
L 513.540899 198.775029 
L 513.82286 198.709019 
L 514.10482 194.268295 
L 514.386781 184.244075 
L 515.232662 143.720029 
L 516.078544 130.925243 
L 516.360505 127.583392 
L 516.642465 125.85293 
L 516.924426 128.110505 
L 517.770308 153.048045 
L 518.334229 163.011797 
L 519.744032 190.960446 
L 520.025992 192.274197 
L 520.307953 191.222288 
L 520.871874 184.585483 
L 521.153835 183.99761 
L 521.435795 181.591101 
L 521.999717 168.725489 
L 522.281677 168.525176 
L 522.563638 170.522609 
L 522.845598 171.155692 
L 523.127559 172.670007 
L 523.69148 180.201813 
L 524.255401 183.981647 
L 524.819322 188.141544 
L 525.101283 189.132451 
L 525.665204 192.784823 
L 525.947165 193.235975 
L 526.229125 192.89152 
L 526.511086 193.253169 
L 526.793047 195.983329 
L 527.356968 206.936889 
L 527.638928 202.931629 
L 528.766771 150.196314 
L 529.048731 135.476439 
L 529.330692 128.073245 
L 530.176574 120.737422 
L 530.458534 121.930258 
L 530.740495 125.012474 
L 531.022455 130.024744 
L 532.150298 160.532527 
L 532.714219 180.575291 
L 532.996179 183.97962 
L 533.27814 184.654607 
L 533.560101 182.202561 
L 534.124022 174.895947 
L 534.405982 173.891342 
L 534.687943 174.026305 
L 534.969904 175.236292 
L 535.251864 174.93593 
L 535.533825 171.633057 
L 535.815785 170.852593 
L 536.379706 184.372644 
L 536.661667 186.639451 
L 536.943628 187.483951 
L 537.225588 191.207782 
L 537.507549 193.144986 
L 538.07147 182.71089 
L 538.353431 182.232977 
L 538.917352 187.825518 
L 539.199312 188.784016 
L 539.763233 193.430974 
L 540.045194 193.792775 
L 540.327155 194.620339 
L 540.609115 196.235569 
L 540.891076 193.696343 
L 542.582839 145.929429 
L 543.428721 136.196028 
L 543.710682 135.586804 
L 543.992642 141.322341 
L 544.556563 154.718773 
L 544.838524 156.911193 
L 545.120485 160.543057 
L 545.966366 179.579301 
L 546.530288 182.57595 
L 546.812248 182.512011 
L 547.94009 172.629774 
L 548.222051 171.360135 
L 548.504012 172.118848 
L 548.785972 174.475534 
L 549.067933 175.474569 
L 549.631854 172.68666 
L 550.195775 169.409817 
L 550.477736 170.161991 
L 551.041657 177.24224 
L 551.323618 177.951214 
L 551.605578 178.226057 
L 551.887539 177.765088 
L 552.45146 169.939173 
L 552.73342 172.089813 
L 553.297342 185.759392 
L 553.861263 193.411544 
L 554.143223 192.529941 
L 554.425184 186.691967 
L 554.989105 166.695996 
L 555.553026 145.737599 
L 556.116947 134.376968 
L 556.398908 132.924312 
L 556.680869 133.287054 
L 556.962829 132.544165 
L 557.24479 132.223995 
L 557.52675 135.26503 
L 558.090672 145.494588 
L 559.500475 184.082222 
L 559.782435 189.103896 
L 560.064396 189.477438 
L 560.628317 186.611701 
L 562.03812 170.87502 
L 562.32008 168.529296 
L 562.602041 168.687831 
L 562.884002 170.987909 
L 563.447923 183.713944 
L 563.729883 185.712457 
L 564.011844 182.531486 
L 564.293804 181.400537 
L 564.857726 188.220344 
L 565.139686 187.457005 
L 565.985568 178.47771 
L 566.267529 178.206514 
L 566.549489 179.612808 
L 567.677332 187.327933 
L 567.959292 186.36292 
L 568.241253 182.589431 
L 569.087134 163.375511 
L 569.651056 148.791291 
L 570.214977 143.867167 
L 570.778898 133.859202 
L 571.060859 133.978522 
L 572.188701 149.513388 
L 572.470661 157.979409 
L 573.034583 180.063934 
L 573.316543 182.921031 
L 573.880464 179.241859 
L 574.162425 178.545603 
L 574.444386 175.654444 
L 575.008307 167.646777 
L 575.290267 166.207099 
L 575.572228 166.329616 
L 575.854189 168.208931 
L 576.136149 171.050798 
L 576.41811 172.64696 
L 576.70007 171.369456 
L 577.263991 163.485229 
L 577.545952 163.837944 
L 578.109873 172.688347 
L 578.673794 175.224685 
L 578.955755 177.177406 
L 579.237716 177.048766 
L 579.519676 176.189046 
L 579.801637 178.863604 
L 580.083597 183.765956 
L 580.365558 186.520987 
L 580.929479 188.167881 
L 581.21144 187.765678 
L 581.775361 185.216714 
L 582.057321 182.242374 
L 582.621243 163.056925 
L 583.185164 144.275204 
L 583.467124 139.108458 
L 583.749085 138.13864 
L 584.031046 138.153079 
L 584.313006 137.188757 
L 584.594967 138.982702 
L 585.722809 166.538627 
L 586.00477 168.52469 
L 586.28673 169.208929 
L 586.568691 172.667257 
L 587.414573 190.939042 
L 587.696533 189.015539 
L 588.260454 170.047204 
L 588.542415 166.444261 
L 588.824375 165.738056 
L 589.388297 156.69754 
L 589.670257 155.951083 
L 589.952218 156.651283 
L 590.516139 153.686749 
L 590.7981 154.745791 
L 591.362021 159.158777 
L 592.489863 172.883776 
L 592.771824 173.947785 
L 593.053784 176.406527 
L 593.617705 186.235691 
L 593.899666 186.237792 
L 594.181627 185.693516 
L 594.745548 192.766071 
L 595.027508 193.693062 
L 595.309469 193.965008 
L 595.59143 195.491207 
L 595.87339 194.859038 
L 596.155351 188.19111 
L 597.283193 137.722965 
L 597.565154 137.820307 
L 598.129075 148.154145 
L 598.411035 149.456783 
L 598.692996 153.532104 
L 599.256917 168.161646 
L 599.538878 167.757644 
L 599.820838 167.811933 
L 600.38476 175.675819 
L 601.230641 179.76592 
L 601.512602 177.620707 
L 602.076523 170.300449 
L 602.640444 161.600351 
L 602.922405 163.021523 
L 603.486326 172.037116 
L 603.768287 174.485509 
L 604.050247 175.697165 
L 604.614168 174.809842 
L 605.46005 179.855806 
L 605.742011 180.737635 
L 606.023971 181.143889 
L 606.305932 180.069577 
L 606.587892 181.194818 
L 607.151814 191.356667 
L 607.433774 189.820919 
L 607.715735 190.543907 
L 607.997695 198.260221 
L 608.279656 201.923364 
L 608.843577 184.313688 
L 609.407498 178.807496 
L 611.099262 141.487 
L 611.381222 141.418978 
L 611.663183 141.189336 
L 611.945144 145.29931 
L 612.509065 162.578045 
L 613.918868 179.34136 
L 614.200828 180.288962 
L 614.482789 180.643002 
L 614.764749 180.705396 
L 615.04671 180.538822 
L 615.328671 178.608208 
L 615.892592 170.252628 
L 616.174552 169.742 
L 616.456513 170.99994 
L 616.738474 171.155941 
L 617.020434 170.301819 
L 617.302395 170.26453 
L 617.584355 172.375409 
L 618.148276 179.690572 
L 618.430237 179.906569 
L 618.712198 179.333008 
L 618.994158 180.889032 
L 619.276119 183.266014 
L 619.84004 185.8556 
L 620.403961 189.476226 
L 620.967882 190.316996 
L 621.249843 191.760584 
L 621.531803 193.933767 
L 621.813764 192.860282 
L 622.095725 184.672061 
L 622.659646 161.893708 
L 622.941606 156.206658 
L 623.223567 153.932895 
L 623.505528 154.569008 
L 623.787488 156.525542 
L 624.069449 156.625443 
L 624.351409 153.3957 
L 624.915331 138.990881 
L 625.197291 132.229433 
L 625.479252 131.650266 
L 626.043173 143.234085 
L 626.607094 161.427507 
L 627.171015 178.137259 
L 627.734936 185.305576 
L 628.016897 186.200887 
L 628.298858 187.717863 
L 628.580818 191.191908 
L 628.862779 191.882533 
L 629.990621 171.534638 
L 630.272582 170.068331 
L 630.554542 171.458553 
L 630.836503 173.489059 
L 631.118463 173.214677 
L 631.400424 172.480601 
L 631.964345 173.348307 
L 632.246306 173.121935 
L 632.528266 174.451786 
L 633.092188 181.131645 
L 633.092188 181.131645 
" clip-path="url(#pad83c4de6a)" style="fill: none; stroke: #1f77b4; stroke-width: 1.5; stroke-linecap: square"/>
   </g>
   <g id="patch_3">
    <path d="M 47.192188 266.112 
L 47.192188 0 
" style="fill: none; stroke: #808080; stroke-width: 0.8; stroke-linejoin: miter; stroke-linecap: square"/>
   </g>
   <g id="patch_4">
    <path d="M 660.992188 266.112 
L 660.992188 0 
" style="fill: none; stroke: #000000; stroke-width: 0.8; stroke-linejoin: miter; stroke-linecap: square"/>
   </g>
   <g id="patch_5">
    <path d="M 47.192188 266.112 
L 660.992188 266.112 
" style="fill: none; stroke: #808080; stroke-width: 0.8; stroke-linejoin: miter; stroke-linecap: square"/>
   </g>
   <g id="patch_6">
    <path d="M 47.192188 0 
L 660.992188 0 
" style="fill: none; stroke: #000000; stroke-width: 0.8; stroke-linejoin: miter; stroke-linecap: square"/>
   </g>
  </g>
 </g>
 <defs>
  <clipPath id="pad83c4de6a">
   <rect x="47.192188" y="0" width="613.8" height="266.112"/>
  </clipPath>
 </defs>
</svg>
