<svg xmlns="http://www.w3.org/2000/svg" xmlns:xlink="http://www.w3.org/1999/xlink" width="913.477" height="379.752" viewBox="0 0 685.107 284.814"><defs><style>*{stroke-linejoin:round;stroke-linecap:butt}</style></defs><g id="figure_1"><path id="patch_1" d="M0 284.814h685.107V0H0v284.814z" style="fill:none"/><g id="axes_1"><path id="patch_2" d="M71.308 268.136h613.8V2.024h-613.8v266.112z" style="fill:none"/><g id="matplotlib.axis_1"><g id="xtick_1"><g id="line2d_1"><defs><path id="m458291283e" d="M0 0v3.5" style="stroke:gray;stroke-width:.8"/></defs><use xlink:href="#m458291283e" x="99.207" y="268.136" style="fill:gray;stroke:gray;stroke-width:.8"/></g><g id="text_1" style="fill:gray" transform="matrix(.1 0 0 -.1 96.026 282.734)"><defs><path id="DejaVuSans-30" d="M2034 4250q-487 0-733-480-245-479-245-1442 0-959 245-1439 246-480 733-480 491 0 736 480 246 480 246 1439 0 963-246 1442-245 480-736 480zm0 500q785 0 1199-621 414-620 414-1801 0-1178-414-1799Q2819-91 2034-91q-784 0-1198 620-414 621-414 1799 0 1181 414 1801 414 621 1198 621z" transform="scale(.01563)"/></defs><use xlink:href="#DejaVuSans-30"/></g></g><g id="xtick_2"><use xlink:href="#m458291283e" id="line2d_2" x="168.958" y="268.136" style="fill:gray;stroke:gray;stroke-width:.8"/><g id="text_2" style="fill:gray" transform="matrix(.1 0 0 -.1 159.414 282.734)"><defs><path id="DejaVuSans-35" d="M691 4666h2478v-532H1269V2991q137 47 274 70 138 23 276 23 781 0 1237-428 457-428 457-1159 0-753-469-1171Q2575-91 1722-91q-294 0-599 50Q819 9 494 109v635q281-153 581-228t634-75q541 0 856 284 316 284 316 772 0 487-316 771-315 285-856 285-253 0-505-56-251-56-513-175v2344z" transform="scale(.01563)"/></defs><use xlink:href="#DejaVuSans-35"/><use xlink:href="#DejaVuSans-30" x="63.623"/><use xlink:href="#DejaVuSans-30" x="127.246"/></g></g><g id="xtick_3"><use xlink:href="#m458291283e" id="line2d_3" x="238.708" y="268.136" style="fill:gray;stroke:gray;stroke-width:.8"/><g id="text_3" style="fill:gray" transform="matrix(.1 0 0 -.1 225.982 282.734)"><defs><path id="DejaVuSans-31" d="M794 531h1031v3560L703 3866v575l1116 225h631V531h1031V0H794v531z" transform="scale(.01563)"/></defs><use xlink:href="#DejaVuSans-31"/><use xlink:href="#DejaVuSans-30" x="63.623"/><use xlink:href="#DejaVuSans-30" x="127.246"/><use xlink:href="#DejaVuSans-30" x="190.869"/></g></g><g id="xtick_4"><use xlink:href="#m458291283e" id="line2d_4" x="308.457" y="268.136" style="fill:gray;stroke:gray;stroke-width:.8"/><g id="text_4" style="fill:gray" transform="matrix(.1 0 0 -.1 295.733 282.734)"><use xlink:href="#DejaVuSans-31"/><use xlink:href="#DejaVuSans-35" x="63.623"/><use xlink:href="#DejaVuSans-30" x="127.246"/><use xlink:href="#DejaVuSans-30" x="190.869"/></g></g><g id="xtick_5"><use xlink:href="#m458291283e" id="line2d_5" x="378.207" y="268.136" style="fill:gray;stroke:gray;stroke-width:.8"/><g id="text_5" style="fill:gray" transform="matrix(.1 0 0 -.1 365.483 282.734)"><defs><path id="DejaVuSans-32" d="M1228 531h2203V0H469v531q359 372 979 998 621 627 780 809 303 340 423 576 121 236 121 464 0 372-261 606-261 235-680 235-297 0-627-103-329-103-704-313v638q381 153 712 231 332 78 607 78 725 0 1156-363 431-362 431-968 0-288-108-546-107-257-392-607-78-91-497-524-418-433-1181-1211z" transform="scale(.01563)"/></defs><use xlink:href="#DejaVuSans-32"/><use xlink:href="#DejaVuSans-30" x="63.623"/><use xlink:href="#DejaVuSans-30" x="127.246"/><use xlink:href="#DejaVuSans-30" x="190.869"/></g></g><g id="xtick_6"><use xlink:href="#m458291283e" id="line2d_6" x="447.957" y="268.136" style="fill:gray;stroke:gray;stroke-width:.8"/><g id="text_6" style="fill:gray" transform="matrix(.1 0 0 -.1 435.233 282.734)"><use xlink:href="#DejaVuSans-32"/><use xlink:href="#DejaVuSans-35" x="63.623"/><use xlink:href="#DejaVuSans-30" x="127.246"/><use xlink:href="#DejaVuSans-30" x="190.869"/></g></g><g id="xtick_7"><use xlink:href="#m458291283e" id="line2d_7" x="517.707" y="268.136" style="fill:gray;stroke:gray;stroke-width:.8"/><g id="text_7" style="fill:gray" transform="matrix(.1 0 0 -.1 504.983 282.734)"><defs><path id="DejaVuSans-33" d="M2597 2516q453-97 707-404 255-306 255-756 0-690-475-1069Q2609-91 1734-91q-293 0-604 58T488 141v609q262-153 574-231 313-78 654-78 593 0 904 234t311 681q0 413-289 645-289 233-804 233h-544v519h569q465 0 712 186t247 536q0 359-255 551-254 193-729 193-260 0-557-57-297-56-653-174v562q360 100 674 150t592 50q719 0 1137-327 419-326 419-882 0-388-222-655t-631-370z" transform="scale(.01563)"/></defs><use xlink:href="#DejaVuSans-33"/><use xlink:href="#DejaVuSans-30" x="63.623"/><use xlink:href="#DejaVuSans-30" x="127.246"/><use xlink:href="#DejaVuSans-30" x="190.869"/></g></g><g id="xtick_8"><use xlink:href="#m458291283e" id="line2d_8" x="587.457" y="268.136" style="fill:gray;stroke:gray;stroke-width:.8"/><g id="text_8" style="fill:gray" transform="matrix(.1 0 0 -.1 574.732 282.734)"><use xlink:href="#DejaVuSans-33"/><use xlink:href="#DejaVuSans-35" x="63.623"/><use xlink:href="#DejaVuSans-30" x="127.246"/><use xlink:href="#DejaVuSans-30" x="190.869"/></g></g><g id="xtick_9"><use xlink:href="#m458291283e" id="line2d_9" x="657.207" y="268.136" style="fill:gray;stroke:gray;stroke-width:.8"/><g id="text_9" style="fill:gray" transform="matrix(.1 0 0 -.1 644.482 282.734)"><defs><path id="DejaVuSans-34" d="M2419 4116 825 1625h1594v2491zm-166 550h794V1625h666v-525h-666V0h-628v1100H313v609l1940 2957z" transform="scale(.01563)"/></defs><use xlink:href="#DejaVuSans-34"/><use xlink:href="#DejaVuSans-30" x="63.623"/><use xlink:href="#DejaVuSans-30" x="127.246"/><use xlink:href="#DejaVuSans-30" x="190.869"/></g></g></g><g id="matplotlib.axis_2"><g id="ytick_1"><g id="line2d_10"><defs><path id="mdec0792847" d="M0 0h-3.5" style="stroke:gray;stroke-width:.8"/></defs><use xlink:href="#mdec0792847" x="71.308" y="260.848" style="fill:gray;stroke:gray;stroke-width:.8"/></g><g id="text_10" style="fill:gray" transform="matrix(.16 0 0 -.16 0 266.926)"><defs><path id="DejaVuSans-2212" d="M678 2272h4006v-531H678v531z" transform="scale(.01563)"/></defs><use xlink:href="#DejaVuSans-2212"/><use xlink:href="#DejaVuSans-32" x="83.789"/><use xlink:href="#DejaVuSans-30" x="147.412"/><use xlink:href="#DejaVuSans-30" x="211.035"/><use xlink:href="#DejaVuSans-30" x="274.658"/><use xlink:href="#DejaVuSans-30" x="338.281"/></g></g><g id="ytick_2"><use xlink:href="#mdec0792847" id="line2d_11" x="71.308" y="209.894" style="fill:gray;stroke:gray;stroke-width:.8"/><g id="text_11" style="fill:gray" transform="matrix(.16 0 0 -.16 0 215.973)"><use xlink:href="#DejaVuSans-2212"/><use xlink:href="#DejaVuSans-31" x="83.789"/><use xlink:href="#DejaVuSans-30" x="147.412"/><use xlink:href="#DejaVuSans-30" x="211.035"/><use xlink:href="#DejaVuSans-30" x="274.658"/><use xlink:href="#DejaVuSans-30" x="338.281"/></g></g><g id="ytick_3"><use xlink:href="#mdec0792847" id="line2d_12" x="71.308" y="158.94" style="fill:gray;stroke:gray;stroke-width:.8"/><use xlink:href="#DejaVuSans-30" id="text_12" style="fill:gray" transform="matrix(.16 0 0 -.16 54.127 165.019)"/></g><g id="ytick_4"><use xlink:href="#mdec0792847" id="line2d_13" x="71.308" y="107.986" style="fill:gray;stroke:gray;stroke-width:.8"/><g id="text_13" style="fill:gray" transform="matrix(.16 0 0 -.16 13.408 114.065)"><use xlink:href="#DejaVuSans-31"/><use xlink:href="#DejaVuSans-30" x="63.623"/><use xlink:href="#DejaVuSans-30" x="127.246"/><use xlink:href="#DejaVuSans-30" x="190.869"/><use xlink:href="#DejaVuSans-30" x="254.492"/></g></g><g id="ytick_5"><use xlink:href="#mdec0792847" id="line2d_14" x="71.308" y="57.033" style="fill:gray;stroke:gray;stroke-width:.8"/><g id="text_14" style="fill:gray" transform="matrix(.16 0 0 -.16 13.408 63.111)"><use xlink:href="#DejaVuSans-32"/><use xlink:href="#DejaVuSans-30" x="63.623"/><use xlink:href="#DejaVuSans-30" x="127.246"/><use xlink:href="#DejaVuSans-30" x="190.869"/><use xlink:href="#DejaVuSans-30" x="254.492"/></g></g><g id="ytick_6"><use xlink:href="#mdec0792847" id="line2d_15" x="71.308" y="6.079" style="fill:gray;stroke:gray;stroke-width:.8"/><g id="text_15" style="fill:gray" transform="matrix(.16 0 0 -.16 13.408 12.158)"><use xlink:href="#DejaVuSans-33"/><use xlink:href="#DejaVuSans-30" x="63.623"/><use xlink:href="#DejaVuSans-30" x="127.246"/><use xlink:href="#DejaVuSans-30" x="190.869"/><use xlink:href="#DejaVuSans-30" x="254.492"/></g></g></g><path id="line2d_16" d="m99.207 158.978.282-.074.282.07.282-.066.282.062.564-.004.846-.047.846.038.846-.03 1.41.018 3.383-.023.846.045.282-.057.282.064.282-.072.282.081.282-.092.282.104.282-.118.282.135.282-.154.282.177.282-.206.282.242.282-.287.282.34.282-.367.281-.122.282-28.128.282 6.832.282 12.302.846 18.634.282 3.478.564 2.634.282 1.282.282 2.102.282.782.282-.731.564-5.256.282-.844.282.837.282.113.564-.714.564 1.305.282.102.282-.42.282.528.563 1.253.282-.187.282 1.047.564 4.46.564 2.177.282.362.282-.642.564-3.267.282-4.962.282-10.556 1.128-59.361.282-9.381.282-2.905.282 1.506.282 3.761.282 6.28.564 24.635.563 23.33.846 19.124.282 4.652.282 1.148.282-.89.564.427.282-1.985.564-7.71.282-1.793.564-1.912.564-.42.282-.815.282-1.233.282.359.564 3.46.282-.1.282.78.563 7.488.282 1.184.282-.693.282.351.282 1.727.282.445.564-1.718.282-.639.282-3.12.282-6.922.564-24.332.846-41.317.282-6.071.282-.72.282 4.208.564 16.803 1.41 48.22.281 2.735.282 1.378 1.128 8.223.282.252.282-.378.282-.168.282-.025.282-.248.564-2.083.282-.411.282.967.282 1.441.282.185.564-4.52.282.337.564 5.588.564 1.496.281 3.214.564 8.5.282 1.48.282.26.282-.027.282-.805.282-3.563.282-7.11.564-23.884 1.128-63.215.282-4.213.282 1.762.282 5.325.564 19.071 1.128 47.175.563 10.114.564 6.67.282.804.564-.67.282-.797.564-2.621.564.525.564-1.003.282.742.564 2.673.282.706.282.317.282.019.282.372.282 1.03.564 4.23.846 6.737.281 1.639.282.162.564-3.708.564-5.112.282-5.386.282-8.714.564-29.685.846-49.517.282-7.17.282-2.202.282 1.95.282 6.17.282 11.499 1.128 61.89.564 12.18.282 2.895.281 1.452.564.723.282-.234.282-1.44.564-4.751.282-.384.282.439.282-.68.282-1.53.282-.578.282 1.53.564 4.206.564 2.303.564 3.218.564 2.175.564 3.424.564 2.38.563 3.699.282.302.282-.19.282-.754.282-3.241.282-7.886.564-29.452.846-51.838.282-9.246.282-4.167.282.885.282 5.584.282 9.16.564 28.838.564 29.056.564 15.246.282 4.136.282 1.685.282.545.281.18.282-.427.282-.91.282-.357.282-.797.282-3.034.564-8.357.282-.6.282.752.282-.727.282-2.236.282-.912.282 2.863.564 8.298.564 2.987.282 2.229.282 1.202.564-1.998.282.608.564 4.232.281.144.282-.295.282.96.282.44.282-3.454.282-8.925.564-30.762.564-35.846.282-11.418.282-5.536.282-.376.282 4.155.564 19.71.846 35.548.846 22.606.282 1.611.282-.038.282 2.289.282 3.387.281 1.025.564-2.047.282-.387.846-3.766.564-.601.282.036.564 1.31.282.009.282.228.846 2.78.282.449.282 1.079.282 2.345.564 7.269.282 2.042.282.214.282-.214.281.078.282-.712.282-4.087.282-9.262.564-34.009.846-56.017.282-8.718.282-2.838.282 2.568.282 7.695.564 27.02.846 41.045.564 17.506.282 5.066.282 2.439.846 3.262.281.218.564-1.573.282-.19.564.369.282-.189.564-1.28.282.146.564.734.282.882.564 2.792.282.47.282 1.307.564 4.805.846 4.355.282-1.374.282-2.56.282-.312.282.634.281-4.338.564-28.943 1.41-81.465.282-3.176.282 1.043.282 5.18.282 10.092 1.692 84.392.282 5.966.282 2.499.564 1.25.282-.007 1.41-6.29.281.594.282 1.75.282.685.282-.368.282.666.282 1.439 1.128 3.368.282-.258.282.007 1.41 7.805.282.548.282-.272.282-.7.282-1.806.282-4.662.282-8.99.563-34.803.564-40.858.564-23.993.282-6.105.282-.234.282 6.111.564 21.542.564 28.585.564 34.456.282 11.64.282 6.47.282 3.402.282 1.446.282-.388.282-1.428.282-.806.282-.443.564-3.036.281.247.282 1.83.282.707.564-2.569.282.247.282.78.282.226.282.031.282.207.564 1.495.564 1.673.282 1.895.846 9.961.282 1.842.282.667.282-.072.282-.202.282-1.258.282-5.794.282-12.584.845-61.34.564-36.947.282-9.11.282-2.214.282 2.708.282 6.261.282 10.584 1.692 88.194.282 6.227.564 5.24.282-.192.564-5.546.282-.032.282.297.564-3.785.281.612.564 4.49.282-.674.282-1.917.282-.837.282.773.282 1.21.564.787.282.944.282 1.638.282 2.317.564 7.032.282 1.389.564-2.667.282.033.282-.11.282-2.613.282-5.474.282-9.041.282-14.684 1.127-81.454.282-10.528.282-4.773.282.458.282 5.722.282 11.542 1.692 93.794.282 6.927.282 3.018.282 1.105.564-.136.282.59.282.28 1.128-3.814.281-.942.282.004.564 1.67.282.303.282.848.564 3.46 1.974 12.715.282 1.308.282-.007.282-2.569.846-13.63.282-12.73 1.41-100.688.281-11.036.282-4.555.282.552.282 4.733.282 9.558.564 29.843 1.128 66.81.282 8.272.282 4.674.282 1.642.282.44.564 1.879.282-.34.564-1.739.564-.585.564.094.281-.496.282-.2.282 2.046.564 7.456.564 3.395.846 4.1 1.41 11.256.282.796.282-1.3.282-4.15.282-8.64.282-15.352.564-48.853.564-50.41.564-29.886.281-5.723.282-.3.282 4.687.282 9.654.564 33.604.846 55.519.564 25.04.564 12.472.282 2.863.282 1.62.282.244.846-2.525.846-2.71.282-.35.564-.187.281-.05.282.076.282-.391.564-1.99.282 1.712.564 6.478.282 1.282.282 2.864.564 10.34.282 1.427.564-.899.282-2.212.282-7.468.282-14.626.564-47.177.846-68.237.282-13.225.282-6.914.281-.996.282 4.104.282 9.449.564 32.23 1.128 71.767.564 18.541.564 10.53.282.898.282-1.83.564-4.536.282-1.02.564-.055.282-.344.282.376.564 3.301.282-.12.282.01.563 2.808.282-.084.282.11.846 4.104.564 7.419.282 1.545.282.034.564 1.55.282-3.188.282-9.052.282-15.61 1.692-124.296.282-6.48.282.817.563 13.218.282 11.168.564 37.294.564 36.564.564 26.685.282 9.621.282 5.208.282 1.65.282.361.282-.106.282-.796.564-3.68.564-3.947.282.828.564 5.987.282 1.164.282.127.282.634.563 3.24.846 4.973.564 8.296.282 3.693.282.837.282-.017.564 2.468.282-4.428.282-11.515.564-38.099 1.128-106.055.282-11.584.282-6.755.282-2.365.282 2.514.282 7.235.282 12.89 1.691 111.654.564 17.973.282 4.463.282 1.398.564-3.089.282.134.282 1.187.282.101.282-.324.282 1.06.282 1.822.282.598.282.004.282 1.14.282 1.828.282.653.282-.272.282.438.282 1.924.845 9.451 1.128 16.438.282-.343.282-5.023.282-10.333.282-16.818.564-54.375.564-58.23.564-37.172.282-9.991.282-3.572.282 2.353.282 7.849.564 32.418 1.127 76.37.564 26.376.564 18.349.282 4.363.282 2.124.282.838.282-1.177.282-2.435.282-1.257.282.522.282.167.282-.795.282-.299.282.518.282-.218.282-.752.282.456.846 5.01.282 4.027.564 11.398.281 2.081.282.754.564 3.001.282-1.42.282-6.409.282-12.84.564-47.196.846-81.186.564-39.812.282-10.18.282-.464.282 7.212.564 25.217 1.692 111 .563 21.095.564 8.586.282 2.412.282.909.282.28.282.855.282.494.282-1.385.282-2.656.282-1.285.282.903.282 1.282.564.431.282 1.838 2.256 23.645.282-.244.281-1.487.282-2.601.282-6.906.282-14.246.564-48.225.846-83.021.564-33.234.282-5.114.282.703.282 4.616.282 9.067.564 32.696 1.41 90.268.564 18.572.563 10.926.282 1.249 1.41-2.202.282.061.282.781.282-.24.564-3.579.282 1.399.564 6.23.282 1.525.282 2.598 1.128 17.005.564 5.688.282.174.282-1.575.281-4.132.282-9.715.282-18.492 1.692-149.83.282-9.27.282-2.97.282 3.812.564 22.13.564 36.618.564 43.042.564 29.317.282 10.82.282 6.223 1.128 9.102.281-.682.282-1.252.282-.152.564 1.981.564-1.4.282 1.293.564 5.022.282 1.225.564 4.288.846 7.688 1.41 14.9.282.714.282-1.002.282-5.092.282-10.646.281-16.196.564-56.801.564-65.062.564-34.239.282-11.687.282-4.835.282 2.686.282 7.074.282 11.511.564 43.252.564 43.433.564 29.515 1.128 36.051.282 7.148.282 3.607.282 1.126.281.275.282.438.282.2.282-.952.564-4.172.282-.216.282 1.161.282.514.282-.716.282-.124.282 2.38.564 6.94.564 4.22.564 7.423.282 1.653.282-.879.282-2.17.282-3.176.282-7.569.282-16.082.845-81.655.564-50.155.564-33.1.282-7.005.282.81.282 6.695.564 22.533.846 56.447.846 50.934.564 20.502.282 7.336.564 6.974.564 4.824.564.665 1.127 5.974.282.226.282-1.374.282-.012.846 7.634.282 2.007.846 9.54.564 7.265.282.887.564-.945.282-2.337.282-9.016.282-19.208 1.691-161.258.282-10.023.282-5.305.282.627.282 6.607.564 20.745.564 33.744.846 56.39.846 33.657.564 15.403.846 10.064.282.908.282-.784.282-.399.845.968.846 3.947 1.128 9.469.564 6.612.846 9.928.282 2.224.282 1.248.282-.842.282-5.578.282-13.813.564-53.819.846-91.584.563-41.162.282-7.092.282-1.055.282 1.52.282 5.214.282 11.11.846 54.326.846 52.114.564 26.428.564 16.005.846 13.752.282 1.43.282.138.564 1.48.282-.29.282-.535.282 1.189.281 2.441.282 1.404.282.41.282 1.01.846 4.24 1.128 15.31.564 5.265.282.5.282-2.345.282-6.512.282-14.317.564-57.403.846-88.972.564-31.732.282-6.015.281-1.816.282 2.381.282 6.835.564 24.775 1.41 94.435.564 18.553 1.128 23.252.564 6.42.846 5 .564 5.724.282-.956.282-2.46.281-.827.282 1.333.564 3.263.282 1.488.282 2.447.564 9.51.282 4.788.282 2.32.282.64.282.347.282-1.468.282-7.138.282-15.098.564-53.782.846-91.687.564-33.773.282-8.647.282-2.432.282 2.859.282 6.545.563 23.421 1.692 101.574.564 19.056.564 12.317.846 14.083.564 4.661.564 4.324.564 2.74 1.41 10.231.845 8.449.564 8.603.564 5.02.282.693.282-3.916.282-12.398.564-51.201 1.128-126.16.282-18.711.282-11.312.282-5.28.282-.042.282 4.487.282 8.29.564 27.538 1.691 97.79.846 31.663.564 11.355.846 11.932.846 6.572.282.239.564-3.125.282 1.481 1.128 12.841.563 11.689.564 6.544.282 2.274.282.846.282-3.4.282-10.384.282-18.597.564-59.446.564-65.347.564-44.618.282-15.774.282-8.335.282.336.564 12.143.282 7.804.564 26.158.564 30.837 1.41 57.377 1.973 38.658.846 18.344.282 1.817.282 3.339.564 9.38.282 1.124.282.58.282 1.865 1.41 14.496.281 2.406.282-.244.282-7.353.282-16.965.564-61.834.846-98.49.564-32.43.282-5.035.282-1.068.282 1.11.282 4.654.846 27.93.564 31.02.846 47.927.564 23.415 1.127 31.706.846 14.408.564 6.028.282 3.558.282 2.067.282.79.282 1.66.564 4.824.564 3.517.282 2.335.282 3.446.846 14.746.282.327.282-.347.282-3.048.281-11.865.564-54.006 1.128-125.951.564-31.926.282-7.044.282-.312.282 5.814.564 21.44.564 26.3 1.41 80.449.564 24.385.564 12.206.845 15.556.564 5.578 1.128 7.688.564 1.477.564 3.738.282 2.305.282 3.325.846 14.17.564 3.82.282 1.138.282-2.155.282-8.784.282-18.288.564-62.872.563-66.43.564-42.397.282-10.285.282-4.64.282-.736.282 2.026.282 4.45.282 7.307.564 23.655 1.128 55.87.564 27.501.846 26.344.564 12.436 1.691 30.831.282 3.914.846 4.692 1.974 21.818.282 1.577.282.6.282-2.902.282-9.982.282-19.22.564-64.319.564-70.452.564-40.836.281-10.012.282-4.29.282.487.282 3.732.564 13.009.564 16.787.564 27.262.846 41.763.564 24.606.564 16.139.564 11.24 1.128 16.795 1.41 13.052.845 9.868.846 17.164 1.128 12.985.282.246.282-5.167.282-13.61.564-54.877.846-104.216.564-35.501.282-7.694.282-2.555.282 1.473.281 3.83.282 5.524.564 18.04 2.82 111.92.564 11.289.564 12.03.564 10.704.564 5.039.282 3.349.282 1.844.282.191.281.767.282 2.612.564 9.297.846 20.896.564 5.552.282 1.509.282-1.248.282-7.03.282-16.775.564-65.811.564-67.43.564-43.057.282-12.295.282-5.181.282-.41.282 2.006.282 4.373.563 14.617.564 19.166 1.128 46.826.564 26.904.846 23.091.564 9.405 1.41 20.904.564 7.104.564 5.345.846 11.87.281 3.112.846 13.09.564 4.488.282-.5.282-5.322.282-12.536.282-22.586 1.128-126.747.564-31.754.282-6.324.282-1.051.282 1.98.282 4.19.564 14.683.846 28.373 1.41 56.902.563 15.375.564 10.585 1.128 14.156.564 6.121 1.128 19.616 1.41 21.542.564 10.331.281.858.282-.588.282-1.24.282-3.717.282-10.352.282-21.16 1.128-123.747.564-32.807.282-5.418.282.004.282 1.782.282 2.715.282 4.865.846 23.303 1.973 69.862.846 20.923 1.41 26.431.564 5.492.564 4.033.282 1.46.282 2.326.846 11.308 1.128 16.878.282 2.742.282.886.281-2.676.282-10.087.282-20.724 1.41-136.042.282-11.852.282-3.664.564-1.538.282 1.53.282 5.488 1.128 34.682 1.692 51.787.564 11.818.563 14.176 1.128 17.736.846 9.029.846 6.202.564 6.582.564 5.14.846 11.083.564 2.812.282-1.217.282-8.799.564-44.526 1.127-99.565.282-13.345.282-6.074.282-1.782.282 1.136.282 3.764.846 18.275 1.692 52.61.564 18.257.564 10.628.846 13.389 1.127 12.94.564 3.485 1.128 11.924.846 17.964.564 7.366.564 8.227.282.975.282-1.624.282-6.404.282-14.801.564-55.195.564-57.448.563-35.756.282-6.693.282-.692.282 1.579.282 2.685.282 4.656 1.128 28.683.846 35.721 1.41 34.5.282 5.556.846 8.132.282 4.915.282 2.419.282.452.281 1.415.564 7.121.846 6.752 1.692 24.597.564 3.06.282-3.175.282-10.603.564-42.033 1.128-98.786.282-9.606.282-1.662.282-3.568.281 10.651h0" clip-path="url(#pa079a48ad4)" style="fill:none;stroke:#1f77b4;stroke-width:1.5;stroke-linecap:square"/><path id="patch_3" d="M71.308 268.136V2.024" style="fill:none;stroke:gray;stroke-width:.8;stroke-linejoin:miter;stroke-linecap:square"/><path id="patch_4" d="M685.107 268.136V2.024" style="fill:none;stroke:#000;stroke-width:.8;stroke-linejoin:miter;stroke-linecap:square"/><path id="patch_5" d="M71.308 268.136h613.8" style="fill:none;stroke:gray;stroke-width:.8;stroke-linejoin:miter;stroke-linecap:square"/><path id="patch_6" d="M71.308 2.024h613.8" style="fill:none;stroke:#000;stroke-width:.8;stroke-linejoin:miter;stroke-linecap:square"/></g></g><defs><clipPath id="pa079a48ad4"><path d="M71.308 2.024h613.8v266.112h-613.8z"/></clipPath></defs></svg>