<?xml version="1.0" encoding="utf-8" standalone="no"?>
<!DOCTYPE svg PUBLIC "-//W3C//DTD SVG 1.1//EN"
  "http://www.w3.org/Graphics/SVG/1.1/DTD/svg11.dtd">
<svg xmlns:xlink="http://www.w3.org/1999/xlink" width="660.992188pt" height="282.790125pt" viewBox="0 0 660.992188 282.790125" xmlns="http://www.w3.org/2000/svg" version="1.1">
 <metadata>
  <rdf:RDF xmlns:dc="http://purl.org/dc/elements/1.1/" xmlns:cc="http://creativecommons.org/ns#" xmlns:rdf="http://www.w3.org/1999/02/22-rdf-syntax-ns#">
   <cc:Work>
    <dc:type rdf:resource="http://purl.org/dc/dcmitype/StillImage"/>
    <dc:date>2023-03-06T21:29:41.557999</dc:date>
    <dc:format>image/svg+xml</dc:format>
    <dc:creator>
     <cc:Agent>
      <dc:title>Matplotlib v3.6.3, https://matplotlib.org/</dc:title>
     </cc:Agent>
    </dc:creator>
   </cc:Work>
  </rdf:RDF>
 </metadata>
 <defs>
  <style type="text/css">*{stroke-linejoin: round; stroke-linecap: butt}</style>
 </defs>
 <g id="figure_1">
  <g id="patch_1">
   <path d="M -0 282.790125 
L 660.992188 282.790125 
L 660.992188 0 
L -0 0 
L -0 282.790125 
z
" style="fill: none"/>
  </g>
  <g id="axes_1">
   <g id="patch_2">
    <path d="M 47.192188 266.112 
L 660.992188 266.112 
L 660.992188 0 
L 47.192188 0 
L 47.192188 266.112 
z
" style="fill: none"/>
   </g>
   <g id="matplotlib.axis_1">
    <g id="xtick_1">
     <g id="line2d_1">
      <defs>
       <path id="m740c06ab8a" d="M 0 0 
L 0 3.5 
" style="stroke: #808080; stroke-width: 0.8"/>
      </defs>
      <g>
       <use xlink:href="#m740c06ab8a" x="75.092188" y="266.112" style="fill: #808080; stroke: #808080; stroke-width: 0.8"/>
      </g>
     </g>
     <g id="text_1">
      <!-- 0 -->
      <g style="fill: #808080" transform="translate(71.910938 280.710438) scale(0.1 -0.1)">
       <defs>
        <path id="DejaVuSans-30" d="M 2034 4250 
Q 1547 4250 1301 3770 
Q 1056 3291 1056 2328 
Q 1056 1369 1301 889 
Q 1547 409 2034 409 
Q 2525 409 2770 889 
Q 3016 1369 3016 2328 
Q 3016 3291 2770 3770 
Q 2525 4250 2034 4250 
z
M 2034 4750 
Q 2819 4750 3233 4129 
Q 3647 3509 3647 2328 
Q 3647 1150 3233 529 
Q 2819 -91 2034 -91 
Q 1250 -91 836 529 
Q 422 1150 422 2328 
Q 422 3509 836 4129 
Q 1250 4750 2034 4750 
z
" transform="scale(0.015625)"/>
       </defs>
       <use xlink:href="#DejaVuSans-30"/>
      </g>
     </g>
    </g>
    <g id="xtick_2">
     <g id="line2d_2">
      <g>
       <use xlink:href="#m740c06ab8a" x="144.842188" y="266.112" style="fill: #808080; stroke: #808080; stroke-width: 0.8"/>
      </g>
     </g>
     <g id="text_2">
      <!-- 500 -->
      <g style="fill: #808080" transform="translate(135.298438 280.710438) scale(0.1 -0.1)">
       <defs>
        <path id="DejaVuSans-35" d="M 691 4666 
L 3169 4666 
L 3169 4134 
L 1269 4134 
L 1269 2991 
Q 1406 3038 1543 3061 
Q 1681 3084 1819 3084 
Q 2600 3084 3056 2656 
Q 3513 2228 3513 1497 
Q 3513 744 3044 326 
Q 2575 -91 1722 -91 
Q 1428 -91 1123 -41 
Q 819 9 494 109 
L 494 744 
Q 775 591 1075 516 
Q 1375 441 1709 441 
Q 2250 441 2565 725 
Q 2881 1009 2881 1497 
Q 2881 1984 2565 2268 
Q 2250 2553 1709 2553 
Q 1456 2553 1204 2497 
Q 953 2441 691 2322 
L 691 4666 
z
" transform="scale(0.015625)"/>
       </defs>
       <use xlink:href="#DejaVuSans-35"/>
       <use xlink:href="#DejaVuSans-30" x="63.623047"/>
       <use xlink:href="#DejaVuSans-30" x="127.246094"/>
      </g>
     </g>
    </g>
    <g id="xtick_3">
     <g id="line2d_3">
      <g>
       <use xlink:href="#m740c06ab8a" x="214.592188" y="266.112" style="fill: #808080; stroke: #808080; stroke-width: 0.8"/>
      </g>
     </g>
     <g id="text_3">
      <!-- 1000 -->
      <g style="fill: #808080" transform="translate(201.867188 280.710438) scale(0.1 -0.1)">
       <defs>
        <path id="DejaVuSans-31" d="M 794 531 
L 1825 531 
L 1825 4091 
L 703 3866 
L 703 4441 
L 1819 4666 
L 2450 4666 
L 2450 531 
L 3481 531 
L 3481 0 
L 794 0 
L 794 531 
z
" transform="scale(0.015625)"/>
       </defs>
       <use xlink:href="#DejaVuSans-31"/>
       <use xlink:href="#DejaVuSans-30" x="63.623047"/>
       <use xlink:href="#DejaVuSans-30" x="127.246094"/>
       <use xlink:href="#DejaVuSans-30" x="190.869141"/>
      </g>
     </g>
    </g>
    <g id="xtick_4">
     <g id="line2d_4">
      <g>
       <use xlink:href="#m740c06ab8a" x="284.342188" y="266.112" style="fill: #808080; stroke: #808080; stroke-width: 0.8"/>
      </g>
     </g>
     <g id="text_4">
      <!-- 1500 -->
      <g style="fill: #808080" transform="translate(271.617188 280.710438) scale(0.1 -0.1)">
       <use xlink:href="#DejaVuSans-31"/>
       <use xlink:href="#DejaVuSans-35" x="63.623047"/>
       <use xlink:href="#DejaVuSans-30" x="127.246094"/>
       <use xlink:href="#DejaVuSans-30" x="190.869141"/>
      </g>
     </g>
    </g>
    <g id="xtick_5">
     <g id="line2d_5">
      <g>
       <use xlink:href="#m740c06ab8a" x="354.092188" y="266.112" style="fill: #808080; stroke: #808080; stroke-width: 0.8"/>
      </g>
     </g>
     <g id="text_5">
      <!-- 2000 -->
      <g style="fill: #808080" transform="translate(341.367188 280.710438) scale(0.1 -0.1)">
       <defs>
        <path id="DejaVuSans-32" d="M 1228 531 
L 3431 531 
L 3431 0 
L 469 0 
L 469 531 
Q 828 903 1448 1529 
Q 2069 2156 2228 2338 
Q 2531 2678 2651 2914 
Q 2772 3150 2772 3378 
Q 2772 3750 2511 3984 
Q 2250 4219 1831 4219 
Q 1534 4219 1204 4116 
Q 875 4013 500 3803 
L 500 4441 
Q 881 4594 1212 4672 
Q 1544 4750 1819 4750 
Q 2544 4750 2975 4387 
Q 3406 4025 3406 3419 
Q 3406 3131 3298 2873 
Q 3191 2616 2906 2266 
Q 2828 2175 2409 1742 
Q 1991 1309 1228 531 
z
" transform="scale(0.015625)"/>
       </defs>
       <use xlink:href="#DejaVuSans-32"/>
       <use xlink:href="#DejaVuSans-30" x="63.623047"/>
       <use xlink:href="#DejaVuSans-30" x="127.246094"/>
       <use xlink:href="#DejaVuSans-30" x="190.869141"/>
      </g>
     </g>
    </g>
    <g id="xtick_6">
     <g id="line2d_6">
      <g>
       <use xlink:href="#m740c06ab8a" x="423.842188" y="266.112" style="fill: #808080; stroke: #808080; stroke-width: 0.8"/>
      </g>
     </g>
     <g id="text_6">
      <!-- 2500 -->
      <g style="fill: #808080" transform="translate(411.117188 280.710438) scale(0.1 -0.1)">
       <use xlink:href="#DejaVuSans-32"/>
       <use xlink:href="#DejaVuSans-35" x="63.623047"/>
       <use xlink:href="#DejaVuSans-30" x="127.246094"/>
       <use xlink:href="#DejaVuSans-30" x="190.869141"/>
      </g>
     </g>
    </g>
    <g id="xtick_7">
     <g id="line2d_7">
      <g>
       <use xlink:href="#m740c06ab8a" x="493.592188" y="266.112" style="fill: #808080; stroke: #808080; stroke-width: 0.8"/>
      </g>
     </g>
     <g id="text_7">
      <!-- 3000 -->
      <g style="fill: #808080" transform="translate(480.867188 280.710438) scale(0.1 -0.1)">
       <defs>
        <path id="DejaVuSans-33" d="M 2597 2516 
Q 3050 2419 3304 2112 
Q 3559 1806 3559 1356 
Q 3559 666 3084 287 
Q 2609 -91 1734 -91 
Q 1441 -91 1130 -33 
Q 819 25 488 141 
L 488 750 
Q 750 597 1062 519 
Q 1375 441 1716 441 
Q 2309 441 2620 675 
Q 2931 909 2931 1356 
Q 2931 1769 2642 2001 
Q 2353 2234 1838 2234 
L 1294 2234 
L 1294 2753 
L 1863 2753 
Q 2328 2753 2575 2939 
Q 2822 3125 2822 3475 
Q 2822 3834 2567 4026 
Q 2313 4219 1838 4219 
Q 1578 4219 1281 4162 
Q 984 4106 628 3988 
L 628 4550 
Q 988 4650 1302 4700 
Q 1616 4750 1894 4750 
Q 2613 4750 3031 4423 
Q 3450 4097 3450 3541 
Q 3450 3153 3228 2886 
Q 3006 2619 2597 2516 
z
" transform="scale(0.015625)"/>
       </defs>
       <use xlink:href="#DejaVuSans-33"/>
       <use xlink:href="#DejaVuSans-30" x="63.623047"/>
       <use xlink:href="#DejaVuSans-30" x="127.246094"/>
       <use xlink:href="#DejaVuSans-30" x="190.869141"/>
      </g>
     </g>
    </g>
    <g id="xtick_8">
     <g id="line2d_8">
      <g>
       <use xlink:href="#m740c06ab8a" x="563.342188" y="266.112" style="fill: #808080; stroke: #808080; stroke-width: 0.8"/>
      </g>
     </g>
     <g id="text_8">
      <!-- 3500 -->
      <g style="fill: #808080" transform="translate(550.617188 280.710438) scale(0.1 -0.1)">
       <use xlink:href="#DejaVuSans-33"/>
       <use xlink:href="#DejaVuSans-35" x="63.623047"/>
       <use xlink:href="#DejaVuSans-30" x="127.246094"/>
       <use xlink:href="#DejaVuSans-30" x="190.869141"/>
      </g>
     </g>
    </g>
    <g id="xtick_9">
     <g id="line2d_9">
      <g>
       <use xlink:href="#m740c06ab8a" x="633.092188" y="266.112" style="fill: #808080; stroke: #808080; stroke-width: 0.8"/>
      </g>
     </g>
     <g id="text_9">
      <!-- 4000 -->
      <g style="fill: #808080" transform="translate(620.367188 280.710438) scale(0.1 -0.1)">
       <defs>
        <path id="DejaVuSans-34" d="M 2419 4116 
L 825 1625 
L 2419 1625 
L 2419 4116 
z
M 2253 4666 
L 3047 4666 
L 3047 1625 
L 3713 1625 
L 3713 1100 
L 3047 1100 
L 3047 0 
L 2419 0 
L 2419 1100 
L 313 1100 
L 313 1709 
L 2253 4666 
z
" transform="scale(0.015625)"/>
       </defs>
       <use xlink:href="#DejaVuSans-34"/>
       <use xlink:href="#DejaVuSans-30" x="63.623047"/>
       <use xlink:href="#DejaVuSans-30" x="127.246094"/>
       <use xlink:href="#DejaVuSans-30" x="190.869141"/>
      </g>
     </g>
    </g>
   </g>
   <g id="matplotlib.axis_2">
    <g id="ytick_1">
     <g id="line2d_10">
      <defs>
       <path id="me2007ba957" d="M 0 0 
L -3.5 0 
" style="stroke: #808080; stroke-width: 0.8"/>
      </defs>
      <g>
       <use xlink:href="#me2007ba957" x="47.192188" y="252.50269" style="fill: #808080; stroke: #808080; stroke-width: 0.8"/>
      </g>
     </g>
     <g id="text_10">
      <!-- −30000 -->
      <g style="fill: #808080" transform="translate(0 256.301908) scale(0.1 -0.1)">
       <defs>
        <path id="DejaVuSans-2212" d="M 678 2272 
L 4684 2272 
L 4684 1741 
L 678 1741 
L 678 2272 
z
" transform="scale(0.015625)"/>
       </defs>
       <use xlink:href="#DejaVuSans-2212"/>
       <use xlink:href="#DejaVuSans-33" x="83.789062"/>
       <use xlink:href="#DejaVuSans-30" x="147.412109"/>
       <use xlink:href="#DejaVuSans-30" x="211.035156"/>
       <use xlink:href="#DejaVuSans-30" x="274.658203"/>
       <use xlink:href="#DejaVuSans-30" x="338.28125"/>
      </g>
     </g>
    </g>
    <g id="ytick_2">
     <g id="line2d_11">
      <g>
       <use xlink:href="#me2007ba957" x="47.192188" y="222.029973" style="fill: #808080; stroke: #808080; stroke-width: 0.8"/>
      </g>
     </g>
     <g id="text_11">
      <!-- −20000 -->
      <g style="fill: #808080" transform="translate(0 225.829192) scale(0.1 -0.1)">
       <use xlink:href="#DejaVuSans-2212"/>
       <use xlink:href="#DejaVuSans-32" x="83.789062"/>
       <use xlink:href="#DejaVuSans-30" x="147.412109"/>
       <use xlink:href="#DejaVuSans-30" x="211.035156"/>
       <use xlink:href="#DejaVuSans-30" x="274.658203"/>
       <use xlink:href="#DejaVuSans-30" x="338.28125"/>
      </g>
     </g>
    </g>
    <g id="ytick_3">
     <g id="line2d_12">
      <g>
       <use xlink:href="#me2007ba957" x="47.192188" y="191.557256" style="fill: #808080; stroke: #808080; stroke-width: 0.8"/>
      </g>
     </g>
     <g id="text_12">
      <!-- −10000 -->
      <g style="fill: #808080" transform="translate(0 195.356475) scale(0.1 -0.1)">
       <use xlink:href="#DejaVuSans-2212"/>
       <use xlink:href="#DejaVuSans-31" x="83.789062"/>
       <use xlink:href="#DejaVuSans-30" x="147.412109"/>
       <use xlink:href="#DejaVuSans-30" x="211.035156"/>
       <use xlink:href="#DejaVuSans-30" x="274.658203"/>
       <use xlink:href="#DejaVuSans-30" x="338.28125"/>
      </g>
     </g>
    </g>
    <g id="ytick_4">
     <g id="line2d_13">
      <g>
       <use xlink:href="#me2007ba957" x="47.192188" y="161.08454" style="fill: #808080; stroke: #808080; stroke-width: 0.8"/>
      </g>
     </g>
     <g id="text_13">
      <!-- 0 -->
      <g style="fill: #808080" transform="translate(33.829688 164.883758) scale(0.1 -0.1)">
       <use xlink:href="#DejaVuSans-30"/>
      </g>
     </g>
    </g>
    <g id="ytick_5">
     <g id="line2d_14">
      <g>
       <use xlink:href="#me2007ba957" x="47.192188" y="130.611823" style="fill: #808080; stroke: #808080; stroke-width: 0.8"/>
      </g>
     </g>
     <g id="text_14">
      <!-- 10000 -->
      <g style="fill: #808080" transform="translate(8.379688 134.411042) scale(0.1 -0.1)">
       <use xlink:href="#DejaVuSans-31"/>
       <use xlink:href="#DejaVuSans-30" x="63.623047"/>
       <use xlink:href="#DejaVuSans-30" x="127.246094"/>
       <use xlink:href="#DejaVuSans-30" x="190.869141"/>
       <use xlink:href="#DejaVuSans-30" x="254.492188"/>
      </g>
     </g>
    </g>
    <g id="ytick_6">
     <g id="line2d_15">
      <g>
       <use xlink:href="#me2007ba957" x="47.192188" y="100.139106" style="fill: #808080; stroke: #808080; stroke-width: 0.8"/>
      </g>
     </g>
     <g id="text_15">
      <!-- 20000 -->
      <g style="fill: #808080" transform="translate(8.379688 103.938325) scale(0.1 -0.1)">
       <use xlink:href="#DejaVuSans-32"/>
       <use xlink:href="#DejaVuSans-30" x="63.623047"/>
       <use xlink:href="#DejaVuSans-30" x="127.246094"/>
       <use xlink:href="#DejaVuSans-30" x="190.869141"/>
       <use xlink:href="#DejaVuSans-30" x="254.492188"/>
      </g>
     </g>
    </g>
    <g id="ytick_7">
     <g id="line2d_16">
      <g>
       <use xlink:href="#me2007ba957" x="47.192188" y="69.66639" style="fill: #808080; stroke: #808080; stroke-width: 0.8"/>
      </g>
     </g>
     <g id="text_16">
      <!-- 30000 -->
      <g style="fill: #808080" transform="translate(8.379688 73.465608) scale(0.1 -0.1)">
       <use xlink:href="#DejaVuSans-33"/>
       <use xlink:href="#DejaVuSans-30" x="63.623047"/>
       <use xlink:href="#DejaVuSans-30" x="127.246094"/>
       <use xlink:href="#DejaVuSans-30" x="190.869141"/>
       <use xlink:href="#DejaVuSans-30" x="254.492188"/>
      </g>
     </g>
    </g>
    <g id="ytick_8">
     <g id="line2d_17">
      <g>
       <use xlink:href="#me2007ba957" x="47.192188" y="39.193673" style="fill: #808080; stroke: #808080; stroke-width: 0.8"/>
      </g>
     </g>
     <g id="text_17">
      <!-- 40000 -->
      <g style="fill: #808080" transform="translate(8.379688 42.992892) scale(0.1 -0.1)">
       <use xlink:href="#DejaVuSans-34"/>
       <use xlink:href="#DejaVuSans-30" x="63.623047"/>
       <use xlink:href="#DejaVuSans-30" x="127.246094"/>
       <use xlink:href="#DejaVuSans-30" x="190.869141"/>
       <use xlink:href="#DejaVuSans-30" x="254.492188"/>
      </g>
     </g>
    </g>
    <g id="ytick_9">
     <g id="line2d_18">
      <g>
       <use xlink:href="#me2007ba957" x="47.192188" y="8.720956" style="fill: #808080; stroke: #808080; stroke-width: 0.8"/>
      </g>
     </g>
     <g id="text_18">
      <!-- 50000 -->
      <g style="fill: #808080" transform="translate(8.379688 12.520175) scale(0.1 -0.1)">
       <use xlink:href="#DejaVuSans-35"/>
       <use xlink:href="#DejaVuSans-30" x="63.623047"/>
       <use xlink:href="#DejaVuSans-30" x="127.246094"/>
       <use xlink:href="#DejaVuSans-30" x="190.869141"/>
       <use xlink:href="#DejaVuSans-30" x="254.492188"/>
      </g>
     </g>
    </g>
   </g>
   <g id="line2d_19">
    <path d="M 75.092188 161.08682 
L 82.423163 161.069888 
L 83.269044 161.102712 
L 84.114926 161.061755 
L 84.960808 161.113721 
L 85.242769 161.052623 
L 85.524729 161.119611 
L 85.80669 161.045784 
L 86.08865 161.127656 
L 86.370611 161.036179 
L 86.652572 161.139329 
L 86.934532 161.021688 
L 87.216493 161.157795 
L 87.498453 160.997364 
L 87.780414 161.191239 
L 88.062374 160.94863 
L 88.344335 161.26842 
L 88.626296 160.80947 
L 88.908256 161.585241 
L 89.190217 159.514322 
L 89.472177 149.818946 
L 89.754138 164.855806 
L 90.036099 173.710214 
L 90.318059 178.564965 
L 90.60002 180.776397 
L 91.163941 182.357441 
L 92.009823 189.038311 
L 92.855704 185.95959 
L 93.137665 183.387798 
L 93.701586 170.174656 
L 94.547468 150.532324 
L 95.111389 142.317712 
L 95.67531 140.060059 
L 95.957271 139.424191 
L 96.239231 140.073747 
L 96.803153 146.431442 
L 97.085113 147.873457 
L 97.367074 148.284529 
L 97.930995 151.899771 
L 98.212956 152.262391 
L 98.494916 152.894928 
L 98.776877 156.856217 
L 99.340798 166.970654 
L 99.904719 172.960415 
L 100.46864 180.888717 
L 100.750601 182.108311 
L 101.032561 181.561512 
L 101.314522 181.487522 
L 101.878443 184.532642 
L 102.442364 182.805931 
L 102.724325 185.194891 
L 103.288246 193.378817 
L 103.570207 193.857007 
L 103.852167 193.56027 
L 104.134128 194.419504 
L 104.416088 195.657588 
L 104.698049 194.965236 
L 104.98001 193.264564 
L 105.26197 194.311669 
L 106.671773 219.369737 
L 106.953734 222.082258 
L 107.235694 218.160538 
L 107.517655 207.907727 
L 107.799615 191.065544 
L 108.363537 134.071267 
L 108.927458 76.129367 
L 109.209418 55.423256 
L 109.491379 43.280526 
L 109.77334 40.684433 
L 110.0553 43.807165 
L 110.337261 48.448419 
L 110.619221 55.595404 
L 111.183143 81.252261 
L 111.747064 117.13084 
L 112.310985 156.451622 
L 112.592945 165.73251 
L 112.874906 169.644615 
L 113.156867 171.992501 
L 113.438827 173.247982 
L 113.720788 172.730281 
L 115.694512 163.14411 
L 115.976472 163.248219 
L 116.540394 167.661062 
L 116.822354 168.150428 
L 117.104315 167.576588 
L 117.386275 167.420004 
L 117.668236 167.893539 
L 118.796078 171.537292 
L 119.36 174.749 
L 119.64196 174.386386 
L 120.205881 169.678122 
L 120.487842 168.647567 
L 120.769802 167.070347 
L 121.051763 164.429516 
L 121.333724 163.269113 
L 122.179605 167.198569 
L 122.461566 168.246048 
L 123.307448 175.065265 
L 123.589408 175.996788 
L 124.153329 179.245819 
L 124.43529 179.881166 
L 124.999211 179.090176 
L 125.281172 179.883681 
L 125.845093 183.267188 
L 126.127054 185.965943 
L 126.972935 196.506026 
L 127.536857 201.075764 
L 128.946659 216.351405 
L 129.510581 226.628659 
L 129.792541 229.465913 
L 130.074502 229.15085 
L 130.356462 225.105667 
L 130.638423 214.981941 
L 130.920384 195.414928 
L 132.330186 48.67454 
L 132.612147 38.27966 
L 132.894108 35.304474 
L 133.458029 33.773659 
L 133.739989 36.267024 
L 134.02195 44.279761 
L 134.585871 73.539702 
L 135.713714 150.546137 
L 136.277635 167.757306 
L 136.559595 170.867196 
L 137.123516 172.842168 
L 137.405477 174.260477 
L 137.687438 174.776349 
L 137.969398 174.258173 
L 138.251359 173.202407 
L 139.661162 164.98309 
L 139.943122 164.787047 
L 140.225083 166.466516 
L 140.507043 167.449712 
L 141.070965 166.012838 
L 141.352925 166.833814 
L 141.634886 167.118057 
L 142.198807 164.581091 
L 142.480768 166.323972 
L 142.762728 169.306378 
L 143.044689 170.50065 
L 143.326649 170.672995 
L 143.60861 172.872058 
L 143.890571 176.664809 
L 144.172531 177.85264 
L 145.018413 170.691236 
L 145.864295 165.749865 
L 146.428216 167.376117 
L 146.710176 167.769558 
L 147.274098 171.526234 
L 147.556058 171.808877 
L 147.838019 171.209765 
L 148.119979 171.63654 
L 148.6839 174.026572 
L 148.965861 176.47388 
L 149.811743 188.297621 
L 150.375664 193.991423 
L 150.657625 194.672899 
L 150.939585 193.166325 
L 151.221546 192.314401 
L 151.503506 194.752154 
L 152.067428 207.854004 
L 153.19527 233.585039 
L 153.47723 235.697629 
L 153.759191 230.505533 
L 154.041152 217.610426 
L 154.605073 171.90251 
L 155.732915 54.046584 
L 156.014876 38.606305 
L 156.296836 30.603989 
L 156.578797 27.815851 
L 156.860757 28.379702 
L 157.142718 32.992197 
L 157.424679 44.14981 
L 157.9886 83.520857 
L 159.116442 167.819896 
L 159.398403 178.390178 
L 159.680363 184.729604 
L 159.962324 188.517771 
L 160.244285 190.345675 
L 160.526245 190.825923 
L 160.808206 190.313318 
L 161.090166 188.290598 
L 162.499969 173.795087 
L 163.345851 168.961165 
L 163.627812 168.596234 
L 163.909772 168.73122 
L 164.191733 168.548159 
L 164.473693 169.148159 
L 164.755654 171.184 
L 165.037614 172.072301 
L 165.883496 165.822679 
L 166.729378 163.997373 
L 167.293299 165.420753 
L 167.57526 165.367086 
L 167.85722 165.759557 
L 168.985063 170.728647 
L 169.267023 170.284812 
L 169.830944 169.045757 
L 170.112905 168.665287 
L 170.394866 168.685289 
L 171.240747 170.099949 
L 171.522708 172.423446 
L 172.086629 178.75792 
L 172.36859 180.446738 
L 172.65055 183.110837 
L 173.214471 190.090025 
L 173.778393 193.742079 
L 174.342314 202.641948 
L 174.906235 213.374381 
L 175.752117 233.546415 
L 176.034077 235.7658 
L 176.316038 232.523325 
L 176.597999 222.736876 
L 176.879959 205.239912 
L 177.44388 144.302031 
L 178.007801 73.996477 
L 178.571723 35.990138 
L 178.853683 26.30188 
L 179.135644 21.940846 
L 179.417604 23.506448 
L 179.699565 29.353665 
L 179.981526 38.368152 
L 180.545447 67.272871 
L 181.109368 106.610794 
L 181.95525 172.64892 
L 182.23721 183.357123 
L 182.519171 189.403356 
L 182.801131 191.946698 
L 183.083092 191.14879 
L 183.647013 186.352518 
L 183.928974 184.930219 
L 184.492895 183.205695 
L 185.338777 178.548104 
L 185.620737 177.501704 
L 186.184658 172.022079 
L 186.466619 171.032615 
L 186.74858 170.707724 
L 187.312501 166.357824 
L 187.594461 166.738443 
L 187.876422 169.126753 
L 188.158383 170.324017 
L 188.440343 169.996646 
L 188.722304 170.21682 
L 189.004264 171.261982 
L 189.286225 171.134562 
L 189.568185 169.033654 
L 190.132107 163.530843 
L 190.414067 162.211761 
L 190.696028 162.165319 
L 190.977988 162.415525 
L 191.54191 162.038249 
L 191.82387 162.97402 
L 192.669752 166.831613 
L 193.797594 176.264561 
L 194.925437 184.447124 
L 195.771318 192.989325 
L 196.6172 203.445777 
L 198.027003 218.201879 
L 198.872885 230.815718 
L 199.154845 234.023143 
L 199.436806 235.015492 
L 199.718767 230.132192 
L 200.000727 215.889825 
L 200.564648 158.765563 
L 201.41053 53.337539 
L 201.692491 32.019076 
L 201.974451 19.754748 
L 202.256412 15.069868 
L 202.538372 16.753099 
L 203.102294 29.328728 
L 203.384254 38.298372 
L 203.948175 67.42194 
L 204.512097 103.230964 
L 205.357978 170.707286 
L 205.921899 189.696115 
L 206.20386 194.507953 
L 206.485821 195.449493 
L 207.613663 184.539046 
L 208.459545 172.729031 
L 209.023466 163.908492 
L 209.305427 162.999432 
L 209.869348 164.565127 
L 210.151308 166.180627 
L 210.715229 171.25334 
L 210.99719 172.252269 
L 211.279151 172.320794 
L 211.561111 172.642828 
L 211.843072 173.238963 
L 212.125032 173.105064 
L 212.688954 170.361546 
L 212.970914 170.573369 
L 213.534835 174.021034 
L 214.098756 175.357989 
L 214.662678 176.841962 
L 214.944638 177.083494 
L 215.226599 176.897428 
L 215.508559 176.482189 
L 216.354441 174.142133 
L 216.636402 173.945237 
L 216.918362 174.535473 
L 217.200323 176.416246 
L 217.764244 181.886494 
L 218.046205 182.697361 
L 218.328165 182.829077 
L 218.610126 184.23325 
L 219.174047 189.509307 
L 220.58385 198.556758 
L 221.147771 208.184973 
L 222.275613 232.142105 
L 222.557574 235.326555 
L 222.839535 234.682629 
L 223.121495 227.51219 
L 223.403456 211.510758 
L 223.967377 154.409888 
L 224.813259 53.530471 
L 225.095219 33.136382 
L 225.37718 21.007866 
L 225.659141 16.902102 
L 225.941101 19.828988 
L 226.505022 33.750362 
L 226.786983 43.907765 
L 227.914825 104.577471 
L 228.760707 166.836722 
L 229.324628 188.633522 
L 229.606589 192.50824 
L 229.888549 193.574851 
L 230.17051 193.894872 
L 230.45247 193.585503 
L 230.734431 191.941895 
L 231.298352 187.561118 
L 231.862273 183.27275 
L 232.708155 175.266129 
L 233.554037 170.550452 
L 234.117958 169.436605 
L 234.96384 162.814575 
L 235.2458 162.595694 
L 235.527761 162.538067 
L 236.091682 161.748348 
L 236.655603 162.308996 
L 236.937564 162.750123 
L 237.219525 163.677522 
L 237.501485 165.424466 
L 238.065406 171.318709 
L 239.193249 184.627945 
L 239.75717 188.881388 
L 240.603052 195.143255 
L 241.166973 196.286144 
L 242.576776 207.807223 
L 243.422657 220.009223 
L 243.704618 222.165714 
L 243.986579 223.190263 
L 244.268539 223.440021 
L 244.5505 221.937987 
L 244.83246 216.908446 
L 245.114421 207.186018 
L 245.396382 192.09351 
L 245.960303 139.199856 
L 246.806184 42.133048 
L 247.088145 24.125162 
L 247.370106 14.316886 
L 247.652066 12.096 
L 247.934027 15.648856 
L 248.497948 30.401681 
L 249.061869 52.498614 
L 249.62579 83.174102 
L 250.753633 157.94159 
L 251.317554 183.45555 
L 251.599514 189.172759 
L 251.881475 191.304203 
L 252.163436 191.514126 
L 252.445396 189.824918 
L 253.009317 182.798206 
L 253.573239 174.900101 
L 253.855199 172.733747 
L 254.13716 172.844891 
L 254.41912 173.309325 
L 255.828923 170.123215 
L 256.110884 172.013821 
L 256.674805 177.965651 
L 257.520687 182.805198 
L 257.802647 182.453628 
L 258.084608 182.521886 
L 258.648529 185.730446 
L 258.93049 184.613942 
L 259.21245 182.947874 
L 260.058332 180.550067 
L 260.340293 180.815715 
L 260.622253 181.317524 
L 260.904214 181.15352 
L 261.186174 181.527532 
L 261.468135 182.72351 
L 262.032056 183.900124 
L 262.314017 186.663195 
L 262.877938 193.885031 
L 263.159898 196.783687 
L 263.72382 205.350558 
L 264.287741 209.860118 
L 264.851662 222.64757 
L 265.979504 249.624569 
L 266.261465 253.630629 
L 266.543425 253.178711 
L 266.825386 244.413299 
L 267.107347 224.314883 
L 267.671268 154.708522 
L 268.235189 76.939785 
L 268.51715 49.939099 
L 268.79911 34.129144 
L 269.081071 26.201057 
L 269.363031 21.913882 
L 269.644992 20.099255 
L 269.926953 21.677897 
L 270.490874 32.934366 
L 271.054795 52.777246 
L 271.900677 96.5458 
L 273.028519 168.105427 
L 273.59244 186.815173 
L 273.874401 191.59186 
L 274.156361 192.851841 
L 274.438322 191.180973 
L 275.002243 183.249156 
L 275.848125 167.56958 
L 276.130085 164.948743 
L 276.412046 163.506991 
L 277.539888 155.598526 
L 277.821849 155.343103 
L 278.10381 155.819148 
L 278.38577 157.782942 
L 278.949691 163.119768 
L 280.077534 169.821708 
L 281.487337 177.584759 
L 282.051258 179.790361 
L 283.1791 183.464168 
L 283.743021 186.064232 
L 285.152824 194.328972 
L 287.690469 214.899131 
L 288.818312 237.455392 
L 289.382233 243.600753 
L 289.664194 242.273974 
L 289.946154 232.109126 
L 290.228115 212.188563 
L 290.792036 146.067687 
L 291.355957 64.617479 
L 291.637918 37.5711 
L 291.919878 23.57017 
L 292.201839 17.431862 
L 292.483799 15.295107 
L 292.76576 17.533245 
L 293.611642 39.779664 
L 294.175563 58.560163 
L 295.021445 102.918364 
L 296.149287 165.971352 
L 296.713208 181.972993 
L 296.995169 183.930513 
L 297.277129 182.906128 
L 297.841051 177.842529 
L 298.404972 173.052009 
L 298.686932 172.452251 
L 298.968893 172.49944 
L 299.814775 172.325221 
L 300.096735 171.709824 
L 300.660656 169.715414 
L 300.942617 169.071068 
L 301.224578 168.981459 
L 301.506538 170.277635 
L 302.634381 180.618195 
L 302.916341 182.441528 
L 303.198302 183.373887 
L 303.480262 183.42244 
L 303.762223 182.466271 
L 304.326144 179.502924 
L 304.608105 179.387735 
L 304.890065 178.601085 
L 305.453986 174.292149 
L 305.735947 175.042762 
L 306.017908 176.386137 
L 306.581829 175.946846 
L 307.42771 180.785405 
L 307.709671 181.150944 
L 307.991632 182.022692 
L 308.273592 183.355173 
L 308.555553 185.813885 
L 309.401435 198.979298 
L 309.965356 200.844447 
L 310.247316 201.433622 
L 310.529277 201.537226 
L 310.811238 202.789654 
L 311.093198 207.051652 
L 312.503001 238.945447 
L 312.784962 241.731626 
L 313.066922 238.341872 
L 313.348883 225.626205 
L 313.630843 202.453636 
L 314.194765 130.409966 
L 314.758686 59.25647 
L 315.040646 40.916395 
L 315.322607 32.886743 
L 315.604567 30.436269 
L 315.886528 32.268328 
L 316.73241 48.885057 
L 317.01437 56.255815 
L 317.860252 92.758855 
L 319.552016 179.347399 
L 319.833976 188.550597 
L 320.115937 193.706319 
L 320.397897 196.145745 
L 320.679858 196.600087 
L 320.961819 194.823019 
L 321.52574 185.258849 
L 322.653582 162.538599 
L 322.935543 159.077713 
L 323.217503 157.880132 
L 323.781424 158.573517 
L 324.063385 158.571418 
L 324.345346 159.44185 
L 324.909267 163.088945 
L 325.755149 166.828369 
L 326.037109 168.093372 
L 326.31907 168.517856 
L 326.882991 167.5797 
L 327.164952 167.958706 
L 328.292794 174.255335 
L 328.574754 174.776931 
L 328.856715 175.747589 
L 329.138676 177.623504 
L 330.548479 191.400101 
L 331.1124 199.87071 
L 331.39436 202.949695 
L 331.676321 204.450391 
L 331.958281 204.191747 
L 332.240242 204.193698 
L 332.804163 208.36236 
L 333.086124 210.724327 
L 333.368084 216.220856 
L 333.932006 234.657619 
L 334.777887 249.776808 
L 335.059848 246.843522 
L 335.341809 230.84881 
L 335.90573 168.185686 
L 336.751611 59.215917 
L 337.033572 44.314363 
L 337.315533 39.503247 
L 337.597493 39.584973 
L 338.161414 45.337151 
L 338.725336 53.151451 
L 339.289257 64.341668 
L 339.853178 80.389162 
L 340.69906 119.5701 
L 341.826902 170.926764 
L 342.390823 184.035576 
L 342.672784 186.919928 
L 342.954744 187.203527 
L 343.518666 184.591209 
L 343.800626 183.972243 
L 344.082587 182.845631 
L 344.646508 180.096854 
L 344.928468 178.794328 
L 346.338271 167.541912 
L 346.620232 166.931397 
L 347.466114 169.491417 
L 347.748074 168.968372 
L 348.030035 167.855984 
L 348.593956 163.506676 
L 348.875917 162.610538 
L 349.157877 163.728382 
L 349.439838 165.40846 
L 349.721798 166.161498 
L 350.003759 166.136384 
L 350.28572 166.924721 
L 350.849641 171.857 
L 351.131601 172.408905 
L 351.413562 172.181838 
L 351.695523 174.054713 
L 351.977483 177.434853 
L 352.259444 178.88596 
L 352.541404 178.539994 
L 352.823365 179.832229 
L 353.387286 185.876926 
L 353.669247 187.640029 
L 353.951207 190.874828 
L 355.07905 209.329888 
L 355.36101 211.530369 
L 355.642971 212.049894 
L 356.206892 210.951254 
L 356.488852 211.522061 
L 356.770813 214.179359 
L 357.334734 223.25237 
L 357.898655 237.937562 
L 358.180616 239.77064 
L 358.462577 232.235698 
L 358.744537 216.075897 
L 359.026498 190.43236 
L 360.15434 54.735042 
L 360.436301 43.774529 
L 360.718261 39.555363 
L 361.000222 40.585663 
L 361.564143 51.360904 
L 362.691985 83.646251 
L 363.255907 102.509056 
L 365.229631 181.65505 
L 365.511591 183.071994 
L 366.357473 173.289725 
L 366.921394 164.513379 
L 367.203355 159.463233 
L 367.485315 156.584561 
L 367.767276 157.017031 
L 368.049237 158.859354 
L 368.331197 159.541264 
L 368.613158 159.195593 
L 368.895118 159.264403 
L 369.177079 159.112254 
L 369.741 156.635638 
L 370.022961 156.968247 
L 370.586882 158.280734 
L 370.868842 160.387683 
L 371.432764 167.584242 
L 372.278645 171.10569 
L 372.560606 172.848727 
L 374.53433 180.019306 
L 375.098251 183.831713 
L 375.662172 187.489941 
L 375.944133 188.352595 
L 376.226094 189.626297 
L 377.353936 198.919494 
L 378.199818 212.829084 
L 379.045699 218.018947 
L 379.32766 218.161608 
L 379.609621 217.069313 
L 379.891581 218.481286 
L 380.455502 228.494446 
L 380.737463 230.699553 
L 381.301384 233.083347 
L 381.583345 232.479897 
L 381.865305 225.883998 
L 382.147266 209.763943 
L 382.711187 142.219881 
L 383.275108 61.438828 
L 383.557069 35.028144 
L 383.839029 20.324975 
L 384.12099 15.280547 
L 384.402951 16.527556 
L 384.684911 21.270791 
L 385.248832 38.407128 
L 386.094714 68.7217 
L 388.068438 165.345176 
L 388.632359 181.249959 
L 388.91432 185.136796 
L 389.19628 186.580139 
L 389.478241 186.992702 
L 389.760202 186.28475 
L 390.042162 183.410866 
L 390.606083 175.024551 
L 391.733926 164.744752 
L 392.297847 155.635166 
L 392.579808 154.119987 
L 392.861768 154.281617 
L 393.143729 154.187662 
L 393.425689 153.432078 
L 393.70765 153.559902 
L 394.271571 157.608618 
L 395.963335 170.521846 
L 396.527256 176.901122 
L 397.091177 181.833281 
L 397.373137 182.823683 
L 398.219019 178.118606 
L 398.50098 178.123526 
L 398.78294 178.779468 
L 399.064901 180.931581 
L 400.756665 201.084277 
L 401.038625 202.94741 
L 401.320586 205.617787 
L 401.884507 216.234537 
L 403.57627 252.569538 
L 403.858231 254.016 
L 404.140192 247.172369 
L 404.422152 229.534666 
L 404.986073 163.987712 
L 405.549994 90.122022 
L 405.831955 69.223825 
L 406.113916 58.651229 
L 406.395876 53.023852 
L 406.677837 51.57906 
L 406.959797 55.852221 
L 408.08764 87.835309 
L 408.651561 102.126078 
L 410.061364 147.619288 
L 410.625285 164.05718 
L 410.907246 169.386461 
L 411.189206 172.326305 
L 411.471167 173.040049 
L 412.035088 171.987036 
L 412.317049 171.283349 
L 412.88097 168.233728 
L 413.726851 163.12178 
L 414.572733 156.104798 
L 414.854694 154.735095 
L 415.136654 155.202612 
L 415.700576 160.147103 
L 415.982536 160.585571 
L 416.264497 159.816004 
L 416.546457 159.760356 
L 416.828418 160.163109 
L 417.110379 159.624861 
L 417.392339 158.710081 
L 417.6743 158.828134 
L 419.084103 164.417012 
L 419.366063 167.91543 
L 419.929984 177.941593 
L 420.211945 178.875988 
L 420.775866 176.036703 
L 421.057827 176.285123 
L 421.621748 178.366592 
L 421.903708 179.891426 
L 422.185669 182.123855 
L 423.031551 192.664752 
L 423.877433 202.576333 
L 424.441354 205.80688 
L 424.723314 210.055093 
L 426.133117 241.858837 
L 426.415078 240.153628 
L 426.697038 228.769162 
L 426.978999 205.409723 
L 427.824881 105.60483 
L 428.106841 88.995012 
L 428.670763 73.157572 
L 428.952723 69.397861 
L 429.234684 71.199534 
L 429.798605 80.609179 
L 430.080565 83.646918 
L 430.362526 88.974978 
L 431.490368 122.013359 
L 432.33625 150.752162 
L 433.182132 173.437153 
L 433.746053 180.242297 
L 434.028014 181.266505 
L 434.309974 179.83221 
L 434.873895 174.834049 
L 435.437817 171.202689 
L 435.719777 167.285452 
L 436.84762 147.097099 
L 437.411541 142.86341 
L 437.693501 142.275941 
L 437.975462 142.907797 
L 438.821344 148.99318 
L 439.103304 150.904938 
L 439.949186 158.806511 
L 440.231147 160.224289 
L 441.077028 168.648522 
L 441.358989 168.157389 
L 441.64095 168.539518 
L 441.92291 170.658315 
L 442.204871 171.430912 
L 442.486831 170.205644 
L 442.768792 170.668524 
L 443.332713 177.181162 
L 443.614674 179.196939 
L 443.896634 182.51914 
L 444.460555 191.040686 
L 445.024477 196.396422 
L 445.588398 201.360389 
L 446.152319 204.421186 
L 446.434279 206.8685 
L 446.71624 210.581296 
L 448.126043 235.018003 
L 448.408004 236.765584 
L 448.689964 232.962957 
L 448.971925 221.114734 
L 449.535846 169.407902 
L 450.099767 112.938051 
L 450.663688 84.946421 
L 450.945649 78.964352 
L 451.227609 76.571483 
L 451.50957 76.569993 
L 451.791531 78.711724 
L 452.919373 97.372275 
L 453.483294 113.325068 
L 454.611136 147.107181 
L 455.175058 158.503779 
L 455.738979 162.333334 
L 456.020939 163.49163 
L 456.3029 163.30906 
L 457.430742 154.225059 
L 457.712703 153.306741 
L 457.994663 153.519361 
L 458.840545 159.885515 
L 459.122506 160.702225 
L 459.686427 162.812186 
L 459.968388 161.950208 
L 460.250348 160.157071 
L 460.532309 159.096934 
L 460.814269 159.206831 
L 461.09623 159.999658 
L 461.660151 162.360729 
L 461.942112 162.889472 
L 462.224072 163.146789 
L 463.351915 166.495595 
L 463.633875 168.309798 
L 464.197796 174.234788 
L 464.479757 175.647394 
L 464.761718 176.104788 
L 465.043678 176.79025 
L 465.607599 179.555375 
L 465.88956 181.549017 
L 466.453481 187.138583 
L 466.735442 188.655809 
L 467.299363 189.657793 
L 467.581323 191.201385 
L 468.145245 196.687995 
L 468.709166 205.74477 
L 469.555048 222.892101 
L 469.837008 224.713348 
L 470.118969 223.48281 
L 470.400929 215.734037 
L 470.96485 174.680335 
L 471.528772 134.261879 
L 472.092693 111.024525 
L 472.656614 99.812402 
L 472.938575 96.082205 
L 473.220535 94.657798 
L 473.502496 96.662981 
L 474.630338 114.846245 
L 476.886023 159.462418 
L 477.449944 164.243501 
L 477.731905 165.081366 
L 478.295826 165.248239 
L 478.577786 165.721769 
L 478.859747 165.684575 
L 479.705629 161.436819 
L 479.987589 161.634202 
L 480.26955 161.159393 
L 480.55151 159.891689 
L 480.833471 159.982512 
L 481.397392 164.301214 
L 481.961313 164.580135 
L 482.243274 165.939695 
L 482.525234 166.282219 
L 483.089156 160.498684 
L 483.371116 160.406317 
L 483.653077 162.311859 
L 483.935037 162.944669 
L 484.216998 162.46281 
L 484.498959 163.78446 
L 485.06288 170.101992 
L 485.626801 173.970552 
L 486.190722 181.184668 
L 487.318564 198.606748 
L 487.600525 197.886108 
L 487.882486 198.476426 
L 488.164446 200.423739 
L 488.446407 201.052129 
L 488.728367 200.265779 
L 489.010328 201.215262 
L 489.85621 211.812587 
L 490.13817 210.890857 
L 490.420131 205.801588 
L 490.702091 194.386906 
L 491.829934 127.435648 
L 492.393855 108.841983 
L 492.675816 105.970379 
L 492.957776 105.615644 
L 493.239737 106.157328 
L 493.521697 108.014604 
L 494.085619 112.851763 
L 494.367579 113.706506 
L 494.64954 115.46042 
L 495.213461 123.83441 
L 495.777382 134.850406 
L 496.623264 160.770342 
L 497.187185 169.120772 
L 497.469146 171.355543 
L 497.751106 170.504613 
L 498.878948 157.369019 
L 499.160909 154.988599 
L 499.44287 154.409044 
L 499.72483 154.633363 
L 500.570712 152.99678 
L 500.852673 153.017877 
L 501.416594 152.124333 
L 501.698554 152.038766 
L 501.980515 152.182023 
L 502.262476 153.25394 
L 503.108357 160.290547 
L 503.390318 160.969671 
L 503.672278 160.817638 
L 503.954239 160.046877 
L 504.2362 159.608846 
L 504.51816 160.162947 
L 505.082081 162.425463 
L 506.491884 172.861355 
L 507.337766 184.247189 
L 507.901687 185.623852 
L 508.465608 188.465762 
L 509.02953 189.775312 
L 509.31149 191.207881 
L 509.593451 193.769497 
L 510.157372 202.12166 
L 511.003254 214.896693 
L 511.285214 216.746594 
L 511.567175 211.874108 
L 512.131096 182.474372 
L 513.258938 118.383939 
L 513.540899 110.118389 
L 513.82286 106.668371 
L 514.10482 105.258035 
L 514.386781 105.576397 
L 514.950702 109.535726 
L 515.232662 112.422927 
L 515.796584 125.171778 
L 516.924426 148.61723 
L 517.488347 157.966133 
L 518.052268 164.60787 
L 518.334229 165.233553 
L 518.61619 163.850598 
L 519.180111 159.373713 
L 519.744032 157.075266 
L 520.025992 155.863641 
L 520.589914 151.406972 
L 520.871874 149.084223 
L 521.153835 148.355751 
L 521.435795 149.71382 
L 521.717756 151.757188 
L 521.999717 152.888069 
L 522.281677 153.395013 
L 522.563638 154.394168 
L 523.127559 158.452503 
L 523.69148 163.261674 
L 523.973441 164.541203 
L 524.537362 165.460316 
L 525.383244 166.64297 
L 525.947165 168.829484 
L 526.511086 172.443225 
L 526.793047 173.371218 
L 527.075007 173.169576 
L 527.356968 173.170149 
L 527.638928 173.833788 
L 527.920889 173.545188 
L 528.48481 169.725296 
L 528.766771 170.734006 
L 529.330692 175.075058 
L 529.612652 175.708144 
L 529.894613 177.77659 
L 530.740495 190.124585 
L 531.022455 191.692053 
L 531.304416 192.152839 
L 531.586376 190.339915 
L 532.432258 178.2936 
L 532.714219 178.555621 
L 532.996179 180.917636 
L 533.560101 189.639704 
L 534.405982 204.832375 
L 534.687943 201.403714 
L 535.251864 174.464887 
L 536.379706 111.855561 
L 536.661667 104.954467 
L 536.943628 101.772554 
L 537.225588 101.000683 
L 537.507549 102.44563 
L 538.07147 108.309458 
L 538.635391 117.774713 
L 540.609115 159.139876 
L 541.173036 165.580114 
L 541.736958 170.376984 
L 542.018918 169.78057 
L 542.300879 168.330432 
L 542.582839 167.904849 
L 542.8648 167.15227 
L 544.556563 150.457023 
L 544.838524 149.792121 
L 545.120485 149.849661 
L 545.402445 150.507395 
L 546.248327 154.250421 
L 546.530288 155.170715 
L 547.094209 158.559016 
L 547.94009 164.646321 
L 548.222051 165.070904 
L 548.785972 164.193601 
L 549.067933 164.023774 
L 549.349893 163.712005 
L 549.631854 163.699366 
L 549.913815 164.5757 
L 550.477736 166.791979 
L 551.323618 168.502255 
L 551.887539 167.068223 
L 552.169499 167.869096 
L 553.861263 182.631833 
L 554.143223 183.105147 
L 554.707145 179.962645 
L 554.989105 180.107196 
L 555.271066 183.359656 
L 556.116947 198.487943 
L 556.680869 206.067123 
L 556.962829 208.008355 
L 557.24479 205.101926 
L 557.808711 185.336891 
L 559.218514 124.45258 
L 559.500475 120.0025 
L 559.782435 117.722025 
L 560.064396 118.264615 
L 560.628317 122.315857 
L 560.910277 123.48199 
L 561.474199 128.158083 
L 561.756159 131.201661 
L 562.03812 136.100874 
L 562.884002 155.442467 
L 563.729883 165.737771 
L 564.011844 167.665862 
L 564.293804 168.417712 
L 564.575765 168.173729 
L 565.421647 163.403063 
L 565.985568 163.193678 
L 567.11341 160.529103 
L 567.395371 160.178759 
L 567.677332 158.858941 
L 568.241253 153.596784 
L 568.523213 152.414883 
L 568.805174 152.439887 
L 569.087134 152.340651 
L 569.369095 152.655124 
L 569.651056 155.164309 
L 569.933016 158.744784 
L 570.214977 159.548271 
L 571.060859 150.763786 
L 571.342819 149.648707 
L 571.90674 146.780362 
L 572.188701 148.079053 
L 573.034583 156.235007 
L 574.162425 166.135554 
L 575.290267 177.532033 
L 575.854189 185.244165 
L 576.136149 186.481942 
L 576.41811 186.741124 
L 576.70007 188.296625 
L 578.109873 201.771536 
L 578.391834 203.986716 
L 578.673794 205.002688 
L 578.955755 202.27957 
L 579.237716 193.272136 
L 580.647518 127.554109 
L 580.929479 118.851851 
L 581.21144 115.05945 
L 581.4934 114.961737 
L 581.775361 117.243425 
L 582.339282 127.139293 
L 582.903203 135.97775 
L 583.749085 143.752264 
L 584.313006 150.805527 
L 585.722809 173.690302 
L 586.00477 174.34299 
L 586.28673 172.686942 
L 587.414573 161.451324 
L 587.978494 155.255078 
L 588.542415 151.781811 
L 588.824375 151.72933 
L 589.106336 153.339734 
L 589.952218 161.346595 
L 590.7981 164.787636 
L 591.362021 166.629171 
L 592.207903 168.015086 
L 592.771824 169.423325 
L 593.617705 170.053978 
L 593.899666 169.70614 
L 594.181627 170.321627 
L 594.745548 174.938325 
L 595.027508 174.886517 
L 595.59143 170.809557 
L 596.155351 165.113981 
L 596.719272 160.171469 
L 597.001232 159.460127 
L 597.283193 159.892784 
L 598.411035 165.257374 
L 599.256917 168.283087 
L 599.538878 171.341885 
L 600.102799 180.445358 
L 600.66672 187.576465 
L 601.230641 196.212299 
L 601.512602 194.854744 
L 601.794562 189.222163 
L 602.358484 168.84684 
L 603.204365 131.887624 
L 603.768287 120.023786 
L 604.050247 117.158171 
L 604.332208 117.397811 
L 604.896129 123.527226 
L 605.46005 130.338597 
L 606.587892 150.322157 
L 608.279656 178.26005 
L 608.561617 178.654631 
L 608.843577 177.668286 
L 609.125538 175.547363 
L 609.971419 166.320347 
L 610.25338 165.417748 
L 610.535341 165.981415 
L 610.817301 167.32818 
L 611.663183 172.59287 
L 611.945144 170.356402 
L 612.791025 154.66383 
L 613.636907 145.233587 
L 613.918868 144.092434 
L 614.200828 145.006516 
L 614.482789 147.015275 
L 614.764749 147.763022 
L 615.04671 146.857126 
L 615.328671 146.763632 
L 616.174552 151.768006 
L 616.738474 155.861997 
L 617.020434 156.31863 
L 617.302395 155.486889 
L 617.584355 155.749987 
L 617.866316 156.645514 
L 618.148276 156.085665 
L 618.430237 155.106322 
L 618.712198 156.034728 
L 619.84004 166.709765 
L 620.403961 174.062598 
L 620.685922 174.779033 
L 621.531803 170.239575 
L 621.813764 171.588227 
L 622.095725 174.639891 
L 623.505528 195.228572 
L 623.787488 196.740854 
L 624.069449 194.138657 
L 624.63337 178.289317 
L 626.043173 131.443666 
L 626.607094 122.308753 
L 626.889055 121.347973 
L 627.171015 123.439577 
L 627.734936 130.291121 
L 628.016897 135.168799 
L 628.862779 156.105221 
L 629.4267 163.19617 
L 629.990621 168.389426 
L 630.272582 169.493905 
L 630.554542 169.590548 
L 630.836503 169.301393 
L 631.118463 168.747163 
L 631.400424 167.737213 
L 631.964345 163.730402 
L 632.246306 163.220551 
L 632.528266 163.758144 
L 633.092188 162.704349 
L 633.092188 162.704349 
" clip-path="url(#p4e1796f7bd)" style="fill: none; stroke: #1f77b4; stroke-width: 1.5; stroke-linecap: square"/>
   </g>
   <g id="patch_3">
    <path d="M 47.192188 266.112 
L 47.192188 0 
" style="fill: none; stroke: #808080; stroke-width: 0.8; stroke-linejoin: miter; stroke-linecap: square"/>
   </g>
   <g id="patch_4">
    <path d="M 660.992188 266.112 
L 660.992188 0 
" style="fill: none; stroke: #000000; stroke-width: 0.8; stroke-linejoin: miter; stroke-linecap: square"/>
   </g>
   <g id="patch_5">
    <path d="M 47.192188 266.112 
L 660.992188 266.112 
" style="fill: none; stroke: #808080; stroke-width: 0.8; stroke-linejoin: miter; stroke-linecap: square"/>
   </g>
   <g id="patch_6">
    <path d="M 47.192188 0 
L 660.992188 0 
" style="fill: none; stroke: #000000; stroke-width: 0.8; stroke-linejoin: miter; stroke-linecap: square"/>
   </g>
  </g>
 </g>
 <defs>
  <clipPath id="p4e1796f7bd">
   <rect x="47.192188" y="0" width="613.8" height="266.112"/>
  </clipPath>
 </defs>
</svg>
