<?xml version="1.0" encoding="utf-8" standalone="no"?>
<!DOCTYPE svg PUBLIC "-//W3C//DTD SVG 1.1//EN"
  "http://www.w3.org/Graphics/SVG/1.1/DTD/svg11.dtd">
<svg xmlns:xlink="http://www.w3.org/1999/xlink" width="660.992188pt" height="282.790125pt" viewBox="0 0 660.992188 282.790125" xmlns="http://www.w3.org/2000/svg" version="1.1">
 <metadata>
  <rdf:RDF xmlns:dc="http://purl.org/dc/elements/1.1/" xmlns:cc="http://creativecommons.org/ns#" xmlns:rdf="http://www.w3.org/1999/02/22-rdf-syntax-ns#">
   <cc:Work>
    <dc:type rdf:resource="http://purl.org/dc/dcmitype/StillImage"/>
    <dc:date>2023-03-06T19:23:10.903968</dc:date>
    <dc:format>image/svg+xml</dc:format>
    <dc:creator>
     <cc:Agent>
      <dc:title>Matplotlib v3.6.3, https://matplotlib.org/</dc:title>
     </cc:Agent>
    </dc:creator>
   </cc:Work>
  </rdf:RDF>
 </metadata>
 <defs>
  <style type="text/css">*{stroke-linejoin: round; stroke-linecap: butt}</style>
 </defs>
 <g id="figure_1">
  <g id="patch_1">
   <path d="M -0 282.790125 
L 660.992188 282.790125 
L 660.992188 0 
L -0 0 
L -0 282.790125 
z
" style="fill: none"/>
  </g>
  <g id="axes_1">
   <g id="patch_2">
    <path d="M 47.192188 266.112 
L 660.992188 266.112 
L 660.992188 0 
L 47.192188 0 
L 47.192188 266.112 
z
" style="fill: none"/>
   </g>
   <g id="matplotlib.axis_1">
    <g id="xtick_1">
     <g id="line2d_1">
      <defs>
       <path id="mcfe208a3e8" d="M 0 0 
L 0 3.5 
" style="stroke: #000000; stroke-width: 0.8"/>
      </defs>
      <g>
       <use xlink:href="#mcfe208a3e8" x="75.092188" y="266.112" style="stroke: #000000; stroke-width: 0.8"/>
      </g>
     </g>
     <g id="text_1">
      <!-- 0 -->
      <g transform="translate(71.910938 280.710438) scale(0.1 -0.1)">
       <defs>
        <path id="DejaVuSans-30" d="M 2034 4250 
Q 1547 4250 1301 3770 
Q 1056 3291 1056 2328 
Q 1056 1369 1301 889 
Q 1547 409 2034 409 
Q 2525 409 2770 889 
Q 3016 1369 3016 2328 
Q 3016 3291 2770 3770 
Q 2525 4250 2034 4250 
z
M 2034 4750 
Q 2819 4750 3233 4129 
Q 3647 3509 3647 2328 
Q 3647 1150 3233 529 
Q 2819 -91 2034 -91 
Q 1250 -91 836 529 
Q 422 1150 422 2328 
Q 422 3509 836 4129 
Q 1250 4750 2034 4750 
z
" transform="scale(0.015625)"/>
       </defs>
       <use xlink:href="#DejaVuSans-30"/>
      </g>
     </g>
    </g>
    <g id="xtick_2">
     <g id="line2d_2">
      <g>
       <use xlink:href="#mcfe208a3e8" x="144.842188" y="266.112" style="stroke: #000000; stroke-width: 0.8"/>
      </g>
     </g>
     <g id="text_2">
      <!-- 500 -->
      <g transform="translate(135.298438 280.710438) scale(0.1 -0.1)">
       <defs>
        <path id="DejaVuSans-35" d="M 691 4666 
L 3169 4666 
L 3169 4134 
L 1269 4134 
L 1269 2991 
Q 1406 3038 1543 3061 
Q 1681 3084 1819 3084 
Q 2600 3084 3056 2656 
Q 3513 2228 3513 1497 
Q 3513 744 3044 326 
Q 2575 -91 1722 -91 
Q 1428 -91 1123 -41 
Q 819 9 494 109 
L 494 744 
Q 775 591 1075 516 
Q 1375 441 1709 441 
Q 2250 441 2565 725 
Q 2881 1009 2881 1497 
Q 2881 1984 2565 2268 
Q 2250 2553 1709 2553 
Q 1456 2553 1204 2497 
Q 953 2441 691 2322 
L 691 4666 
z
" transform="scale(0.015625)"/>
       </defs>
       <use xlink:href="#DejaVuSans-35"/>
       <use xlink:href="#DejaVuSans-30" x="63.623047"/>
       <use xlink:href="#DejaVuSans-30" x="127.246094"/>
      </g>
     </g>
    </g>
    <g id="xtick_3">
     <g id="line2d_3">
      <g>
       <use xlink:href="#mcfe208a3e8" x="214.592188" y="266.112" style="stroke: #000000; stroke-width: 0.8"/>
      </g>
     </g>
     <g id="text_3">
      <!-- 1000 -->
      <g transform="translate(201.867188 280.710438) scale(0.1 -0.1)">
       <defs>
        <path id="DejaVuSans-31" d="M 794 531 
L 1825 531 
L 1825 4091 
L 703 3866 
L 703 4441 
L 1819 4666 
L 2450 4666 
L 2450 531 
L 3481 531 
L 3481 0 
L 794 0 
L 794 531 
z
" transform="scale(0.015625)"/>
       </defs>
       <use xlink:href="#DejaVuSans-31"/>
       <use xlink:href="#DejaVuSans-30" x="63.623047"/>
       <use xlink:href="#DejaVuSans-30" x="127.246094"/>
       <use xlink:href="#DejaVuSans-30" x="190.869141"/>
      </g>
     </g>
    </g>
    <g id="xtick_4">
     <g id="line2d_4">
      <g>
       <use xlink:href="#mcfe208a3e8" x="284.342188" y="266.112" style="stroke: #000000; stroke-width: 0.8"/>
      </g>
     </g>
     <g id="text_4">
      <!-- 1500 -->
      <g transform="translate(271.617188 280.710438) scale(0.1 -0.1)">
       <use xlink:href="#DejaVuSans-31"/>
       <use xlink:href="#DejaVuSans-35" x="63.623047"/>
       <use xlink:href="#DejaVuSans-30" x="127.246094"/>
       <use xlink:href="#DejaVuSans-30" x="190.869141"/>
      </g>
     </g>
    </g>
    <g id="xtick_5">
     <g id="line2d_5">
      <g>
       <use xlink:href="#mcfe208a3e8" x="354.092188" y="266.112" style="stroke: #000000; stroke-width: 0.8"/>
      </g>
     </g>
     <g id="text_5">
      <!-- 2000 -->
      <g transform="translate(341.367188 280.710438) scale(0.1 -0.1)">
       <defs>
        <path id="DejaVuSans-32" d="M 1228 531 
L 3431 531 
L 3431 0 
L 469 0 
L 469 531 
Q 828 903 1448 1529 
Q 2069 2156 2228 2338 
Q 2531 2678 2651 2914 
Q 2772 3150 2772 3378 
Q 2772 3750 2511 3984 
Q 2250 4219 1831 4219 
Q 1534 4219 1204 4116 
Q 875 4013 500 3803 
L 500 4441 
Q 881 4594 1212 4672 
Q 1544 4750 1819 4750 
Q 2544 4750 2975 4387 
Q 3406 4025 3406 3419 
Q 3406 3131 3298 2873 
Q 3191 2616 2906 2266 
Q 2828 2175 2409 1742 
Q 1991 1309 1228 531 
z
" transform="scale(0.015625)"/>
       </defs>
       <use xlink:href="#DejaVuSans-32"/>
       <use xlink:href="#DejaVuSans-30" x="63.623047"/>
       <use xlink:href="#DejaVuSans-30" x="127.246094"/>
       <use xlink:href="#DejaVuSans-30" x="190.869141"/>
      </g>
     </g>
    </g>
    <g id="xtick_6">
     <g id="line2d_6">
      <g>
       <use xlink:href="#mcfe208a3e8" x="423.842188" y="266.112" style="stroke: #000000; stroke-width: 0.8"/>
      </g>
     </g>
     <g id="text_6">
      <!-- 2500 -->
      <g transform="translate(411.117188 280.710438) scale(0.1 -0.1)">
       <use xlink:href="#DejaVuSans-32"/>
       <use xlink:href="#DejaVuSans-35" x="63.623047"/>
       <use xlink:href="#DejaVuSans-30" x="127.246094"/>
       <use xlink:href="#DejaVuSans-30" x="190.869141"/>
      </g>
     </g>
    </g>
    <g id="xtick_7">
     <g id="line2d_7">
      <g>
       <use xlink:href="#mcfe208a3e8" x="493.592188" y="266.112" style="stroke: #000000; stroke-width: 0.8"/>
      </g>
     </g>
     <g id="text_7">
      <!-- 3000 -->
      <g transform="translate(480.867188 280.710438) scale(0.1 -0.1)">
       <defs>
        <path id="DejaVuSans-33" d="M 2597 2516 
Q 3050 2419 3304 2112 
Q 3559 1806 3559 1356 
Q 3559 666 3084 287 
Q 2609 -91 1734 -91 
Q 1441 -91 1130 -33 
Q 819 25 488 141 
L 488 750 
Q 750 597 1062 519 
Q 1375 441 1716 441 
Q 2309 441 2620 675 
Q 2931 909 2931 1356 
Q 2931 1769 2642 2001 
Q 2353 2234 1838 2234 
L 1294 2234 
L 1294 2753 
L 1863 2753 
Q 2328 2753 2575 2939 
Q 2822 3125 2822 3475 
Q 2822 3834 2567 4026 
Q 2313 4219 1838 4219 
Q 1578 4219 1281 4162 
Q 984 4106 628 3988 
L 628 4550 
Q 988 4650 1302 4700 
Q 1616 4750 1894 4750 
Q 2613 4750 3031 4423 
Q 3450 4097 3450 3541 
Q 3450 3153 3228 2886 
Q 3006 2619 2597 2516 
z
" transform="scale(0.015625)"/>
       </defs>
       <use xlink:href="#DejaVuSans-33"/>
       <use xlink:href="#DejaVuSans-30" x="63.623047"/>
       <use xlink:href="#DejaVuSans-30" x="127.246094"/>
       <use xlink:href="#DejaVuSans-30" x="190.869141"/>
      </g>
     </g>
    </g>
    <g id="xtick_8">
     <g id="line2d_8">
      <g>
       <use xlink:href="#mcfe208a3e8" x="563.342188" y="266.112" style="stroke: #000000; stroke-width: 0.8"/>
      </g>
     </g>
     <g id="text_8">
      <!-- 3500 -->
      <g transform="translate(550.617188 280.710438) scale(0.1 -0.1)">
       <use xlink:href="#DejaVuSans-33"/>
       <use xlink:href="#DejaVuSans-35" x="63.623047"/>
       <use xlink:href="#DejaVuSans-30" x="127.246094"/>
       <use xlink:href="#DejaVuSans-30" x="190.869141"/>
      </g>
     </g>
    </g>
    <g id="xtick_9">
     <g id="line2d_9">
      <g>
       <use xlink:href="#mcfe208a3e8" x="633.092188" y="266.112" style="stroke: #000000; stroke-width: 0.8"/>
      </g>
     </g>
     <g id="text_9">
      <!-- 4000 -->
      <g transform="translate(620.367188 280.710438) scale(0.1 -0.1)">
       <defs>
        <path id="DejaVuSans-34" d="M 2419 4116 
L 825 1625 
L 2419 1625 
L 2419 4116 
z
M 2253 4666 
L 3047 4666 
L 3047 1625 
L 3713 1625 
L 3713 1100 
L 3047 1100 
L 3047 0 
L 2419 0 
L 2419 1100 
L 313 1100 
L 313 1709 
L 2253 4666 
z
" transform="scale(0.015625)"/>
       </defs>
       <use xlink:href="#DejaVuSans-34"/>
       <use xlink:href="#DejaVuSans-30" x="63.623047"/>
       <use xlink:href="#DejaVuSans-30" x="127.246094"/>
       <use xlink:href="#DejaVuSans-30" x="190.869141"/>
      </g>
     </g>
    </g>
   </g>
   <g id="matplotlib.axis_2">
    <g id="ytick_1">
     <g id="line2d_10">
      <defs>
       <path id="m0fc9ad6abf" d="M 0 0 
L -3.5 0 
" style="stroke: #000000; stroke-width: 0.8"/>
      </defs>
      <g>
       <use xlink:href="#m0fc9ad6abf" x="47.192188" y="261.422783" style="stroke: #000000; stroke-width: 0.8"/>
      </g>
     </g>
     <g id="text_10">
      <!-- −20000 -->
      <g transform="translate(0 265.222002) scale(0.1 -0.1)">
       <defs>
        <path id="DejaVuSans-2212" d="M 678 2272 
L 4684 2272 
L 4684 1741 
L 678 1741 
L 678 2272 
z
" transform="scale(0.015625)"/>
       </defs>
       <use xlink:href="#DejaVuSans-2212"/>
       <use xlink:href="#DejaVuSans-32" x="83.789062"/>
       <use xlink:href="#DejaVuSans-30" x="147.412109"/>
       <use xlink:href="#DejaVuSans-30" x="211.035156"/>
       <use xlink:href="#DejaVuSans-30" x="274.658203"/>
       <use xlink:href="#DejaVuSans-30" x="338.28125"/>
      </g>
     </g>
    </g>
    <g id="ytick_2">
     <g id="line2d_11">
      <g>
       <use xlink:href="#m0fc9ad6abf" x="47.192188" y="206.574794" style="stroke: #000000; stroke-width: 0.8"/>
      </g>
     </g>
     <g id="text_11">
      <!-- −10000 -->
      <g transform="translate(0 210.374012) scale(0.1 -0.1)">
       <use xlink:href="#DejaVuSans-2212"/>
       <use xlink:href="#DejaVuSans-31" x="83.789062"/>
       <use xlink:href="#DejaVuSans-30" x="147.412109"/>
       <use xlink:href="#DejaVuSans-30" x="211.035156"/>
       <use xlink:href="#DejaVuSans-30" x="274.658203"/>
       <use xlink:href="#DejaVuSans-30" x="338.28125"/>
      </g>
     </g>
    </g>
    <g id="ytick_3">
     <g id="line2d_12">
      <g>
       <use xlink:href="#m0fc9ad6abf" x="47.192188" y="151.726804" style="stroke: #000000; stroke-width: 0.8"/>
      </g>
     </g>
     <g id="text_12">
      <!-- 0 -->
      <g transform="translate(33.829688 155.526023) scale(0.1 -0.1)">
       <use xlink:href="#DejaVuSans-30"/>
      </g>
     </g>
    </g>
    <g id="ytick_4">
     <g id="line2d_13">
      <g>
       <use xlink:href="#m0fc9ad6abf" x="47.192188" y="96.878814" style="stroke: #000000; stroke-width: 0.8"/>
      </g>
     </g>
     <g id="text_13">
      <!-- 10000 -->
      <g transform="translate(8.379688 100.678033) scale(0.1 -0.1)">
       <use xlink:href="#DejaVuSans-31"/>
       <use xlink:href="#DejaVuSans-30" x="63.623047"/>
       <use xlink:href="#DejaVuSans-30" x="127.246094"/>
       <use xlink:href="#DejaVuSans-30" x="190.869141"/>
       <use xlink:href="#DejaVuSans-30" x="254.492188"/>
      </g>
     </g>
    </g>
    <g id="ytick_5">
     <g id="line2d_14">
      <g>
       <use xlink:href="#m0fc9ad6abf" x="47.192188" y="42.030825" style="stroke: #000000; stroke-width: 0.8"/>
      </g>
     </g>
     <g id="text_14">
      <!-- 20000 -->
      <g transform="translate(8.379688 45.830043) scale(0.1 -0.1)">
       <use xlink:href="#DejaVuSans-32"/>
       <use xlink:href="#DejaVuSans-30" x="63.623047"/>
       <use xlink:href="#DejaVuSans-30" x="127.246094"/>
       <use xlink:href="#DejaVuSans-30" x="190.869141"/>
       <use xlink:href="#DejaVuSans-30" x="254.492188"/>
      </g>
     </g>
    </g>
   </g>
   <g id="line2d_15">
    <path d="M 75.092188 151.765081 
L 75.374148 151.687905 
L 75.656109 151.766376 
L 75.938069 151.686507 
L 76.22003 151.767876 
L 76.50199 151.684906 
L 76.783951 151.76958 
L 77.065912 151.683096 
L 77.347872 151.771499 
L 77.629833 151.681063 
L 77.911793 151.773652 
L 78.193754 151.678784 
L 78.475715 151.776066 
L 78.757675 151.676225 
L 79.039636 151.77878 
L 79.321596 151.673345 
L 79.603557 151.78184 
L 79.885517 151.670089 
L 80.167478 151.78531 
L 80.449439 151.666386 
L 80.731399 151.789268 
L 81.01336 151.662145 
L 81.29532 151.793821 
L 81.577281 151.657246 
L 81.859242 151.799106 
L 82.141202 151.651528 
L 82.423163 151.805312 
L 82.705123 151.644771 
L 82.987084 151.812696 
L 83.269044 151.636668 
L 83.551005 151.821626 
L 83.832966 151.62678 
L 84.114926 151.832636 
L 84.396887 151.614447 
L 84.678847 151.846545 
L 84.960808 151.598641 
L 85.242769 151.864664 
L 85.524729 151.577661 
L 85.80669 151.889236 
L 86.08865 151.548488 
L 86.370611 151.924434 
L 86.652572 151.505189 
L 86.934532 151.978991 
L 87.216493 151.434337 
L 87.498453 152.0747 
L 87.780414 151.297962 
L 88.062374 152.284462 
L 88.344335 150.934835 
L 88.626296 153.048531 
L 88.908256 135.27479 
L 89.190217 140.002048 
L 89.472177 156.170022 
L 89.754138 163.324442 
L 90.036099 166.471223 
L 90.318059 164.979251 
L 90.60002 166.398535 
L 90.88198 166.776761 
L 91.163941 165.859483 
L 91.445901 162.853575 
L 91.727862 161.89035 
L 92.009823 161.337983 
L 92.291783 161.770366 
L 92.573744 161.504104 
L 92.855704 160.602745 
L 93.137665 158.040615 
L 93.419626 157.321974 
L 93.701586 158.032799 
L 93.983547 158.197817 
L 94.265507 156.424806 
L 94.547468 156.625667 
L 95.111389 159.652388 
L 95.39335 159.262792 
L 95.67531 160.360749 
L 96.239231 163.300617 
L 96.803153 166.565961 
L 97.085113 164.71979 
L 97.649034 154.935651 
L 97.930995 155.951781 
L 98.212956 157.62968 
L 98.776877 156.28914 
L 99.058837 159.757962 
L 99.622758 169.915084 
L 99.904719 170.942689 
L 100.18668 170.641233 
L 100.46864 170.907358 
L 100.750601 172.039201 
L 101.032561 171.918458 
L 101.314522 170.798359 
L 101.596483 170.158263 
L 101.878443 171.00411 
L 102.724325 174.971564 
L 103.006286 171.878873 
L 103.852167 145.810615 
L 104.98001 106.412857 
L 105.26197 101.598188 
L 105.543931 99.206611 
L 105.825891 100.970206 
L 106.389813 109.668924 
L 106.671773 115.323201 
L 107.235694 138.0935 
L 107.799615 157.031663 
L 108.363537 169.13623 
L 108.645497 171.660889 
L 108.927458 168.548554 
L 109.209418 164.195681 
L 109.491379 162.554036 
L 109.77334 161.961872 
L 110.337261 158.181648 
L 110.619221 158.653536 
L 110.901182 158.463202 
L 111.183143 156.345434 
L 111.465103 155.693347 
L 111.747064 157.058683 
L 112.029024 157.63035 
L 112.310985 157.117668 
L 112.592945 157.939147 
L 112.874906 158.060283 
L 113.438827 150.548706 
L 113.720788 151.009963 
L 114.002748 154.249828 
L 114.284709 155.270864 
L 114.56667 153.537837 
L 114.84863 152.684456 
L 115.412551 154.824136 
L 115.694512 154.856406 
L 115.976472 154.331752 
L 116.258433 154.854433 
L 116.540394 158.341117 
L 117.104315 168.019119 
L 117.386275 169.199783 
L 117.668236 169.822909 
L 118.232157 174.086215 
L 118.514118 173.246327 
L 119.078039 166.995869 
L 119.36 167.505 
L 119.923921 172.875334 
L 120.487842 175.079998 
L 120.769802 175.669367 
L 121.051763 174.379398 
L 121.333724 169.843322 
L 121.897645 153.413781 
L 123.307448 98.863594 
L 123.589408 95.519478 
L 123.871369 95.120231 
L 124.153329 97.37145 
L 124.717251 105.035775 
L 124.999211 110.374545 
L 125.563132 128.133952 
L 126.409014 161.625093 
L 126.690975 167.718807 
L 126.972935 169.449786 
L 127.254896 169.745179 
L 127.536857 169.246265 
L 128.382738 163.516481 
L 128.664699 162.358362 
L 129.22862 158.93088 
L 129.510581 158.837944 
L 129.792541 158.102371 
L 130.356462 154.415199 
L 130.920384 155.723142 
L 131.202344 155.261965 
L 131.484305 155.572418 
L 131.766265 157.526404 
L 132.048226 158.57413 
L 132.612147 157.090389 
L 132.894108 158.111095 
L 133.458029 162.091909 
L 133.739989 162.572611 
L 134.02195 160.274512 
L 134.303911 156.995378 
L 134.585871 155.704782 
L 134.867832 155.446469 
L 135.149792 154.563034 
L 135.431753 154.687067 
L 135.995674 158.833871 
L 136.277635 160.401989 
L 137.123516 171.750106 
L 137.405477 170.286867 
L 137.687438 171.463638 
L 137.969398 175.308861 
L 138.251359 177.10341 
L 138.533319 177.168401 
L 139.097241 180.489922 
L 139.379201 177.957554 
L 140.225083 161.453677 
L 141.352925 105.31395 
L 142.198807 79.27443 
L 142.480768 78.548146 
L 142.762728 80.775656 
L 143.044689 81.922014 
L 143.326649 85.314465 
L 143.60861 96.466975 
L 144.736452 161.638833 
L 145.018413 169.782798 
L 145.300373 171.461142 
L 145.582334 170.965422 
L 146.146255 174.749915 
L 146.428216 174.541346 
L 146.710176 172.968775 
L 146.992137 172.544778 
L 147.274098 171.787939 
L 147.556058 167.128425 
L 148.119979 152.700787 
L 148.40194 151.363729 
L 148.6839 151.949463 
L 149.247822 148.428598 
L 149.529782 150.303046 
L 150.093703 158.704091 
L 150.375664 158.206029 
L 150.657625 157.334098 
L 151.221546 160.246155 
L 151.785467 160.863959 
L 152.067428 161.782505 
L 152.349388 161.691472 
L 152.631349 160.822167 
L 153.19527 161.24171 
L 153.47723 158.152116 
L 153.759191 153.28703 
L 154.041152 151.808029 
L 154.887033 160.970289 
L 155.168994 162.744257 
L 155.450955 168.441747 
L 155.732915 176.706645 
L 156.014876 181.525005 
L 156.296836 181.452369 
L 156.578797 183.602061 
L 157.142718 197.349758 
L 157.424679 193.689197 
L 157.706639 186.480558 
L 158.27056 179.777493 
L 158.552521 168.166546 
L 159.116442 136.672001 
L 160.526245 86.091749 
L 161.372127 74.404867 
L 161.654087 76.623736 
L 162.218009 83.790765 
L 162.499969 93.696413 
L 163.345851 144.835891 
L 163.909772 162.615447 
L 164.191733 165.810275 
L 164.473693 165.959858 
L 165.037614 168.736632 
L 165.319575 166.614815 
L 165.601536 163.567893 
L 166.165457 162.48239 
L 166.729378 156.94382 
L 167.011339 156.511557 
L 167.293299 155.565156 
L 167.57526 153.862245 
L 167.85722 154.84656 
L 168.139181 157.191478 
L 168.421142 156.368996 
L 168.703102 154.987696 
L 168.985063 160.04356 
L 169.267023 169.119281 
L 169.548984 172.884591 
L 170.112905 168.3728 
L 170.394866 169.909137 
L 170.676826 170.332238 
L 171.522708 162.943109 
L 171.804669 162.2735 
L 172.086629 162.5699 
L 172.65055 165.100797 
L 173.214471 166.239942 
L 173.496432 168.028926 
L 174.060353 174.253061 
L 174.342314 175.28196 
L 174.624274 175.555584 
L 174.906235 177.714332 
L 175.470156 186.370248 
L 175.752117 188.342414 
L 176.034077 187.486566 
L 176.879959 179.382107 
L 177.16192 175.093226 
L 177.44388 165.49964 
L 178.571723 100.717765 
L 179.417604 84.620799 
L 179.699565 82.574596 
L 180.263486 86.125423 
L 180.545447 89.707935 
L 181.673289 134.003519 
L 182.23721 159.691273 
L 182.519171 159.822161 
L 182.801131 154.215971 
L 183.083092 152.210771 
L 183.365053 153.06161 
L 183.647013 152.053634 
L 183.928974 149.724571 
L 184.210934 149.582264 
L 185.056816 158.20522 
L 185.620737 153.679642 
L 185.902698 154.163198 
L 186.466619 155.80886 
L 187.312501 162.402491 
L 187.594461 162.023522 
L 188.158383 165.150399 
L 188.440343 162.140185 
L 188.722304 157.283526 
L 189.004264 156.053448 
L 189.286225 158.334427 
L 189.568185 159.643191 
L 189.850146 158.718444 
L 190.132107 158.723064 
L 190.414067 162.509414 
L 190.977988 174.385288 
L 191.54191 181.131903 
L 191.82387 183.508087 
L 192.105831 182.374051 
L 192.669752 174.715357 
L 192.951713 175.270007 
L 193.233673 177.330694 
L 193.797594 179.166655 
L 194.079555 181.715616 
L 194.361515 185.737661 
L 194.643476 187.314465 
L 194.925437 182.025446 
L 195.489358 156.92941 
L 196.053279 122.8663 
L 196.6172 83.525264 
L 197.181121 69.024943 
L 197.463082 65.476516 
L 197.745042 66.905791 
L 198.308964 77.917595 
L 198.590924 86.613569 
L 199.154845 124.347194 
L 199.718767 158.045058 
L 200.282688 173.473119 
L 200.564648 176.86011 
L 200.846609 175.872537 
L 201.41053 169.829496 
L 201.692491 168.488017 
L 201.974451 164.228967 
L 202.256412 158.131414 
L 202.538372 155.155775 
L 202.820333 155.067266 
L 203.102294 153.856271 
L 203.384254 151.994264 
L 204.230136 150.871469 
L 204.512097 152.403942 
L 204.794057 155.494815 
L 205.076018 156.382656 
L 205.357978 155.127888 
L 205.639939 154.735071 
L 205.921899 155.387626 
L 206.20386 156.35054 
L 208.177584 171.508792 
L 208.741505 178.697065 
L 209.023466 178.806067 
L 209.305427 177.588599 
L 209.587387 180.503945 
L 210.151308 191.704752 
L 210.433269 193.90516 
L 210.715229 197.150025 
L 211.279151 205.288195 
L 211.561111 203.956608 
L 211.843072 197.985257 
L 212.406993 177.487562 
L 212.970914 148.967625 
L 214.098756 80.702458 
L 214.662678 62.254899 
L 214.944638 57.456029 
L 215.226599 55.686565 
L 215.508559 58.464866 
L 216.072481 70.947727 
L 216.354441 79.71056 
L 216.918362 117.240944 
L 217.482284 150.316165 
L 217.764244 155.682318 
L 218.046205 157.022483 
L 218.328165 156.922685 
L 218.610126 156.52907 
L 218.892086 156.390715 
L 219.456008 157.073257 
L 220.019929 156.612819 
L 220.301889 156.841056 
L 220.58385 157.56258 
L 220.865811 159.055772 
L 221.429732 162.768187 
L 221.711692 163.464246 
L 222.275613 166.208918 
L 222.839535 167.164415 
L 223.121495 169.561404 
L 223.403456 170.98777 
L 223.685416 168.487116 
L 223.967377 164.884192 
L 224.249338 164.016031 
L 224.813259 165.652069 
L 225.095219 168.544017 
L 226.223062 188.690876 
L 226.786983 197.439381 
L 227.068943 197.950069 
L 227.350904 195.985406 
L 227.632865 195.014729 
L 227.914825 198.195216 
L 228.478746 207.15353 
L 228.760707 209.339821 
L 229.324628 216.45734 
L 229.606589 212.110904 
L 230.17051 184.855378 
L 231.862273 76.347691 
L 232.144234 65.055316 
L 232.990116 45.303408 
L 233.272076 36.483862 
L 233.554037 32.345856 
L 233.835998 36.661621 
L 234.399919 61.15023 
L 234.96384 101.669187 
L 235.527761 142.358909 
L 235.809722 149.096596 
L 236.091682 151.824864 
L 236.373643 152.77783 
L 236.937564 150.543899 
L 237.219525 150.429705 
L 237.501485 148.960711 
L 238.065406 141.940795 
L 238.347367 141.347945 
L 238.629327 143.553759 
L 239.475209 153.611702 
L 240.03913 159.671228 
L 240.321091 161.194578 
L 240.603052 162.065157 
L 240.885012 164.656645 
L 241.448933 173.019472 
L 242.858736 200.208289 
L 243.140697 201.804679 
L 243.422657 201.209987 
L 243.704618 200.929075 
L 244.5505 205.633258 
L 245.396382 214.743451 
L 245.678342 215.716083 
L 245.960303 218.831459 
L 246.806184 232.350398 
L 247.088145 234.132473 
L 247.370106 232.936159 
L 247.652066 227.333199 
L 247.934027 215.709175 
L 248.497948 171.740458 
L 249.34383 98.785331 
L 249.907751 68.549135 
L 250.189712 57.510749 
L 250.471672 50.83423 
L 251.035593 44.409254 
L 251.317554 39.755235 
L 251.599514 37.266633 
L 251.881475 39.917498 
L 252.163436 47.707357 
L 252.445396 61.005352 
L 253.573239 138.759354 
L 253.855199 149.001586 
L 254.13716 153.360069 
L 254.41912 153.529712 
L 254.701081 154.223259 
L 255.265002 160.456064 
L 255.546963 161.43212 
L 255.828923 161.01413 
L 256.110884 158.097545 
L 256.674805 146.102237 
L 256.956766 145.360265 
L 257.238726 147.321546 
L 257.520687 148.420043 
L 257.802647 150.505162 
L 258.084608 156.734343 
L 258.648529 173.937672 
L 259.21245 182.657829 
L 259.776371 189.692989 
L 260.058332 188.819929 
L 260.622253 178.452343 
L 260.904214 179.719389 
L 261.186174 183.077813 
L 261.750096 187.031151 
L 262.595977 204.403794 
L 262.877938 205.421226 
L 263.159898 202.981299 
L 263.441859 201.517574 
L 263.72382 202.554654 
L 264.00578 202.401075 
L 264.287741 200.797147 
L 264.569701 202.9606 
L 264.851662 208.777862 
L 265.133623 210.90703 
L 265.697544 201.896061 
L 265.979504 194.961129 
L 266.261465 180.688164 
L 267.671268 76.913566 
L 268.235189 52.872291 
L 268.51715 46.054604 
L 269.081071 36.605083 
L 269.363031 29.141868 
L 269.644992 27.470553 
L 269.926953 37.912387 
L 270.772834 96.452073 
L 271.336755 144.569634 
L 271.618716 157.1243 
L 271.900677 163.096619 
L 272.182637 166.422246 
L 272.464598 168.176487 
L 272.746558 170.785859 
L 273.028519 175.090075 
L 273.31048 176.966859 
L 273.59244 175.050492 
L 273.874401 174.553015 
L 274.156361 176.939497 
L 274.438322 176.752738 
L 274.720282 173.059816 
L 275.002243 171.946912 
L 275.284204 174.317427 
L 275.566164 173.82584 
L 276.130085 164.350299 
L 276.412046 164.141866 
L 276.694007 165.275684 
L 277.257928 165.435575 
L 278.38577 169.554099 
L 278.949691 174.492056 
L 279.231652 178.5674 
L 280.077534 204.207902 
L 280.641455 206.500711 
L 281.205376 214.832186 
L 281.487337 214.190843 
L 281.769297 212.598236 
L 282.051258 214.507974 
L 282.333218 218.357956 
L 282.615179 219.470145 
L 282.897139 216.250212 
L 283.461061 201.68394 
L 283.743021 188.927713 
L 284.306942 143.15403 
L 284.870864 89.893432 
L 285.716745 39.717357 
L 285.998706 28.296639 
L 286.280667 22.560332 
L 286.562627 20.803228 
L 286.844588 21.252058 
L 287.126548 26.320967 
L 287.408509 39.226187 
L 289.100272 151.726732 
L 289.382233 159.849601 
L 289.664194 164.709288 
L 289.946154 165.687794 
L 290.228115 165.581083 
L 290.510075 167.069541 
L 290.792036 167.850384 
L 291.073996 164.171399 
L 291.355957 157.616986 
L 291.637918 153.757835 
L 291.919878 155.035814 
L 292.201839 158.054918 
L 292.483799 158.767363 
L 292.76576 158.050057 
L 293.047721 159.961741 
L 293.611642 169.119113 
L 294.175563 173.984113 
L 294.739484 181.822293 
L 295.867326 191.938139 
L 296.713208 197.195654 
L 296.995169 200.640896 
L 297.55909 212.836153 
L 297.841051 214.258359 
L 298.123011 214.78227 
L 298.686932 221.984777 
L 298.968893 222.376058 
L 299.250853 221.85175 
L 299.814775 226.455064 
L 300.096735 225.461803 
L 300.378696 219.413184 
L 300.660656 208.059961 
L 301.224578 164.656175 
L 302.070459 90.25476 
L 302.634381 56.314097 
L 303.198302 38.286851 
L 303.762223 24.991074 
L 304.044183 21.662573 
L 304.326144 21.998602 
L 304.608105 27.170915 
L 304.890065 37.730568 
L 305.453986 70.935328 
L 306.299868 127.894403 
L 307.14575 164.75074 
L 307.42771 168.194365 
L 307.709671 170.052764 
L 308.273592 178.598521 
L 308.555553 175.871621 
L 309.119474 163.916676 
L 309.401435 160.536384 
L 309.683395 159.098482 
L 309.965356 158.371786 
L 310.529277 154.108812 
L 310.811238 154.498072 
L 311.657119 164.142813 
L 311.93908 164.524953 
L 312.22104 166.342956 
L 313.066922 182.683207 
L 313.348883 183.759386 
L 313.630843 185.745115 
L 314.194765 192.241202 
L 314.476725 194.541953 
L 314.758686 199.207069 
L 315.322607 212.996152 
L 315.886528 220.455746 
L 316.168489 223.252085 
L 316.73241 232.470096 
L 317.296331 239.704559 
L 317.860252 243.680069 
L 318.142213 239.179599 
L 318.424173 224.90633 
L 318.988095 175.782379 
L 319.833976 89.521472 
L 320.397897 57.072977 
L 320.961819 35.582961 
L 321.52574 21.899038 
L 321.8077 18.914371 
L 322.089661 17.805819 
L 322.371622 19.460287 
L 322.653582 25.963605 
L 323.217503 49.720661 
L 323.781424 86.434752 
L 324.345346 131.573913 
L 324.909267 153.569634 
L 325.473188 163.766541 
L 325.755149 166.906933 
L 326.60103 179.589037 
L 326.882991 179.102857 
L 327.446912 176.428745 
L 328.010833 175.135092 
L 328.574754 173.347464 
L 328.856715 173.370967 
L 329.138676 174.379196 
L 329.420636 174.886146 
L 329.702597 174.367543 
L 329.984557 175.258152 
L 330.830439 187.822613 
L 331.39436 187.791095 
L 331.676321 189.367086 
L 333.086124 203.72836 
L 333.368084 209.4046 
L 333.650045 212.710274 
L 333.932006 212.136434 
L 334.213966 210.906003 
L 334.495927 212.263353 
L 335.90573 226.802631 
L 336.18769 223.268153 
L 336.469651 214.782584 
L 336.751611 202.291008 
L 337.315533 155.808761 
L 337.879454 105.760285 
L 338.725336 49.718986 
L 339.289257 35.110689 
L 340.135138 12.096 
L 340.417099 14.28175 
L 340.98102 36.332594 
L 341.544941 63.831262 
L 342.672784 144.279446 
L 343.236705 164.972956 
L 344.082587 174.523447 
L 344.364547 174.895036 
L 344.928468 166.778032 
L 345.49239 172.763996 
L 345.77435 169.80936 
L 346.056311 165.150366 
L 346.338271 165.881372 
L 346.620232 169.10076 
L 346.902193 169.147095 
L 347.184153 168.979151 
L 347.466114 173.606021 
L 347.748074 180.173771 
L 348.030035 183.430656 
L 348.311995 184.381291 
L 348.593956 186.948654 
L 348.875917 191.105339 
L 349.157877 193.13692 
L 349.439838 190.634907 
L 349.721798 185.800846 
L 350.003759 183.404174 
L 350.56768 185.773777 
L 350.849641 185.657469 
L 351.131601 187.39736 
L 352.259444 205.635626 
L 352.541404 209.12018 
L 352.823365 211.067769 
L 353.105325 215.576747 
L 353.669247 233.676018 
L 353.951207 236.852803 
L 354.233168 235.898752 
L 354.515128 232.450046 
L 354.797089 222.400556 
L 355.07905 201.596882 
L 356.488852 63.79807 
L 356.770813 49.89139 
L 357.334734 35.377865 
L 357.898655 24.063204 
L 358.180616 22.553632 
L 358.462577 24.511225 
L 358.744537 29.761442 
L 359.026498 39.499251 
L 359.590419 69.8405 
L 361.000222 154.849534 
L 361.282182 166.909938 
L 361.564143 173.065815 
L 362.128064 178.84838 
L 362.410025 181.505626 
L 362.691985 180.007992 
L 362.973946 176.97199 
L 363.255907 175.926679 
L 363.537867 174.386145 
L 363.819828 170.503649 
L 364.101788 168.62316 
L 364.383749 170.966881 
L 364.665709 172.3418 
L 365.229631 164.956589 
L 365.511591 165.142747 
L 365.793552 168.042901 
L 366.075512 169.31404 
L 366.357473 168.487435 
L 366.639434 169.565331 
L 366.921394 175.750483 
L 367.203355 184.462339 
L 367.485315 189.638088 
L 367.767276 190.153337 
L 368.049237 191.806747 
L 368.613158 204.024099 
L 368.895118 204.965916 
L 369.177079 203.489821 
L 369.459039 204.397106 
L 369.741 206.94117 
L 370.304921 210.285965 
L 370.868842 221.801909 
L 371.432764 231.836856 
L 371.714724 233.817686 
L 371.996685 231.122171 
L 372.278645 222.510034 
L 372.560606 207.895023 
L 372.842566 185.299392 
L 373.970409 70.672371 
L 374.53433 44.622654 
L 375.098251 31.661672 
L 375.380212 27.678588 
L 375.662172 25.830045 
L 375.944133 28.874218 
L 376.508054 45.686287 
L 376.790015 56.074985 
L 377.353936 91.095089 
L 377.917857 128.700346 
L 378.763739 166.784201 
L 379.045699 173.790384 
L 379.609621 178.979706 
L 379.891581 181.321023 
L 380.173542 182.309974 
L 380.455502 180.557502 
L 381.019423 172.432602 
L 381.301384 171.95572 
L 381.583345 172.637544 
L 382.147266 168.947626 
L 382.429226 171.791849 
L 382.711187 176.36199 
L 382.993148 176.887441 
L 383.275108 175.35984 
L 383.557069 176.939877 
L 383.839029 179.817507 
L 384.12099 179.584378 
L 384.402951 178.675848 
L 384.684911 182.077681 
L 385.248832 193.257473 
L 386.094714 202.977928 
L 386.376675 202.049619 
L 386.658635 202.269522 
L 387.222556 210.307088 
L 387.504517 212.239669 
L 387.786478 215.92432 
L 388.350399 229.914651 
L 388.632359 232.343172 
L 388.91432 231.918609 
L 389.19628 230.197331 
L 389.478241 225.305473 
L 389.760202 212.090661 
L 390.042162 184.754085 
L 390.888044 77.329551 
L 391.451965 49.379369 
L 391.733926 39.845009 
L 392.015886 35.283747 
L 392.297847 34.714373 
L 392.579808 34.473678 
L 392.861768 33.450323 
L 393.143729 34.042964 
L 393.425689 38.908495 
L 394.553532 73.197921 
L 395.399413 120.930514 
L 396.527256 154.665672 
L 397.373137 167.74213 
L 397.937059 170.15138 
L 398.50098 176.381505 
L 398.78294 176.574865 
L 399.064901 177.494274 
L 399.346862 180.140846 
L 399.628822 179.402817 
L 400.192743 169.833156 
L 400.474704 170.095395 
L 400.756665 171.77364 
L 401.038625 175.008883 
L 401.884507 196.740293 
L 402.448428 201.297005 
L 402.730389 201.876014 
L 403.012349 201.39753 
L 403.29431 201.96829 
L 403.858231 205.072696 
L 404.986073 218.13123 
L 406.113916 239.593159 
L 406.395876 240.861996 
L 406.677837 237.74687 
L 406.959797 227.507994 
L 407.241758 208.833531 
L 407.805679 144.048824 
L 408.3696 79.740729 
L 408.933522 53.433627 
L 409.497443 37.85206 
L 409.779403 32.761017 
L 410.061364 29.899954 
L 410.343324 29.512829 
L 410.625285 32.11112 
L 410.907246 37.78005 
L 411.471167 55.574756 
L 412.035088 78.007827 
L 412.88097 118.78975 
L 414.008812 158.324171 
L 414.290773 159.408801 
L 414.572733 161.151943 
L 414.854694 163.968241 
L 415.136654 165.05766 
L 415.700576 163.031269 
L 415.982536 162.96533 
L 416.264497 163.706169 
L 417.6743 170.02051 
L 417.95626 172.848799 
L 419.648024 203.614038 
L 420.211945 207.059893 
L 420.775866 218.479964 
L 421.057827 219.537486 
L 421.339787 217.682411 
L 421.621748 218.817211 
L 422.185669 226.883744 
L 422.74959 231.090175 
L 423.313511 236.699509 
L 423.595472 235.825254 
L 423.877433 228.879866 
L 424.159393 213.32226 
L 424.723314 154.556922 
L 425.287236 86.140416 
L 425.569196 67.170705 
L 426.415078 39.124771 
L 426.697038 33.652271 
L 426.978999 34.244974 
L 427.824881 43.325265 
L 428.106841 49.014084 
L 428.388802 58.597632 
L 429.798605 123.709395 
L 430.362526 136.577044 
L 430.926447 146.762199 
L 431.208408 148.93992 
L 431.490368 149.118112 
L 431.772329 151.209089 
L 432.33625 160.410704 
L 432.618211 161.758615 
L 432.900171 162.228707 
L 433.182132 164.259764 
L 434.028014 174.173153 
L 434.309974 178.498212 
L 434.591935 181.067861 
L 434.873895 182.449785 
L 435.155856 186.598815 
L 435.719777 199.578996 
L 436.283698 208.226828 
L 436.565659 213.236025 
L 436.84762 214.818545 
L 437.12958 215.250705 
L 438.257422 229.157244 
L 439.103304 247.257841 
L 439.385265 245.002233 
L 439.667225 236.479872 
L 439.949186 221.074592 
L 440.513107 164.157045 
L 441.077028 99.2009 
L 441.358989 81.498581 
L 441.92291 63.546978 
L 442.768792 42.608272 
L 443.050752 39.814608 
L 443.332713 42.136823 
L 443.614674 47.532813 
L 443.896634 55.245034 
L 444.178595 67.973624 
L 445.306437 133.66543 
L 445.870358 150.794532 
L 446.434279 157.787124 
L 446.71624 160.30832 
L 446.998201 161.063448 
L 447.280161 158.759179 
L 447.844082 149.481513 
L 448.126043 147.328919 
L 448.408004 148.172673 
L 448.971925 151.95212 
L 449.253885 152.808651 
L 449.535846 155.00977 
L 450.099767 162.203249 
L 450.381728 162.396014 
L 450.663688 161.900697 
L 450.945649 164.60048 
L 451.791531 183.412462 
L 452.919373 221.732392 
L 453.765255 237.046193 
L 454.047215 238.477238 
L 454.329176 238.705694 
L 454.611136 239.51878 
L 454.893097 241.003391 
L 455.175058 240.847721 
L 455.457018 235.076098 
L 455.738979 221.861458 
L 456.3029 173.994988 
L 456.866821 105.018026 
L 457.148782 83.265181 
L 457.712703 64.192217 
L 457.994663 55.995254 
L 458.276624 51.140829 
L 458.558585 49.314397 
L 458.840545 48.511947 
L 459.122506 49.95186 
L 459.686427 60.098246 
L 459.968388 66.814215 
L 460.532309 89.677235 
L 461.09623 115.627222 
L 461.942112 141.922229 
L 462.224072 153.835249 
L 462.506033 159.7987 
L 462.787993 158.822399 
L 463.069954 158.590844 
L 463.351915 161.955257 
L 463.633875 161.684846 
L 464.479757 139.362416 
L 464.761718 141.097857 
L 465.043678 141.465641 
L 465.325639 139.675642 
L 465.607599 141.446718 
L 466.453481 162.392637 
L 467.017402 168.892659 
L 467.581323 176.987609 
L 470.118969 238.710822 
L 471.246811 254.016 
L 471.528772 252.260523 
L 471.810732 241.576157 
L 472.374653 205.576929 
L 472.938575 135.525123 
L 473.220535 99.157051 
L 473.502496 80.777333 
L 474.066417 71.915158 
L 474.630338 57.087545 
L 474.912299 55.41858 
L 475.47622 57.156791 
L 475.75818 59.679244 
L 476.040141 66.447166 
L 477.449944 123.782755 
L 478.577786 140.407217 
L 478.859747 141.027743 
L 479.141707 141.142279 
L 479.423668 141.462594 
L 479.987589 141.15423 
L 480.26955 141.335996 
L 480.55151 141.031248 
L 480.833471 141.137653 
L 481.397392 145.104008 
L 481.679353 145.892513 
L 481.961313 147.451332 
L 482.525234 153.256946 
L 482.807195 155.489464 
L 483.935037 171.771656 
L 484.216998 178.62013 
L 484.498959 182.011651 
L 484.780919 182.760471 
L 485.06288 189.151334 
L 485.626801 212.991322 
L 487.600525 243.969856 
L 487.882486 249.409387 
L 488.164446 251.983742 
L 488.446407 249.988139 
L 488.728367 240.95109 
L 489.010328 221.030801 
L 490.13817 94.366741 
L 490.702091 67.144709 
L 490.984052 58.077265 
L 491.266013 52.930814 
L 491.547973 49.877106 
L 491.829934 49.380623 
L 492.111894 53.350495 
L 492.675816 67.261193 
L 492.957776 76.618272 
L 494.085619 126.26035 
L 495.213461 153.501547 
L 495.495421 155.940195 
L 495.777382 154.983624 
L 496.059343 155.193946 
L 496.341303 157.942486 
L 496.623264 158.540478 
L 497.469146 144.655742 
L 498.033067 144.168101 
L 498.315027 143.07334 
L 498.596988 144.234624 
L 499.44287 159.853304 
L 499.72483 162.336465 
L 500.288751 170.527961 
L 500.570712 170.001929 
L 500.852673 166.740337 
L 501.134633 165.76673 
L 501.416594 168.709644 
L 501.980515 178.658385 
L 502.544436 193.399234 
L 503.108357 209.049092 
L 504.51816 235.204744 
L 504.800121 243.441808 
L 505.082081 247.672583 
L 505.364042 244.127175 
L 505.646003 232.677891 
L 505.927963 211.41749 
L 507.055805 95.250044 
L 507.337766 84.202597 
L 507.901687 73.826775 
L 508.465608 66.808648 
L 509.02953 63.902411 
L 509.31149 64.630361 
L 509.593451 70.792855 
L 510.721293 115.406522 
L 511.285214 136.195667 
L 511.567175 141.822818 
L 511.849135 144.842965 
L 512.131096 145.716861 
L 512.413057 146.06684 
L 512.695017 146.997678 
L 512.976978 147.042138 
L 513.540899 143.799321 
L 513.82286 144.347012 
L 514.10482 145.549211 
L 515.232662 147.478204 
L 515.514623 149.419901 
L 516.078544 156.531182 
L 516.360505 156.685765 
L 516.642465 157.551741 
L 517.488347 170.368043 
L 517.770308 173.77131 
L 518.334229 191.981103 
L 518.61619 200.896127 
L 519.180111 209.117254 
L 519.744032 219.036878 
L 520.307953 226.795227 
L 521.153835 236.199749 
L 521.435795 229.95497 
L 521.717756 214.18501 
L 522.845598 116.117336 
L 523.69148 82.053144 
L 523.973441 77.446034 
L 524.537362 80.899294 
L 524.819322 79.97344 
L 525.101283 80.996071 
L 525.665204 90.656448 
L 525.947165 97.736894 
L 527.356968 145.816962 
L 527.638928 150.313221 
L 527.920889 147.6922 
L 528.202849 143.757515 
L 528.48481 143.681025 
L 528.766771 145.333772 
L 529.048731 144.351603 
L 529.330692 141.456485 
L 529.612652 141.2223 
L 530.176574 148.626528 
L 530.458534 149.44783 
L 530.740495 149.003885 
L 531.022455 149.932291 
L 531.304416 151.49111 
L 531.586376 150.960944 
L 532.150298 144.690807 
L 532.432258 145.019631 
L 533.560101 164.006424 
L 534.405982 182.708947 
L 534.687943 184.928961 
L 534.969904 188.617492 
L 535.815785 203.355473 
L 536.379706 213.984003 
L 537.507549 236.141743 
L 537.789509 233.756559 
L 538.07147 227.925948 
L 538.353431 217.695735 
L 538.635391 196.639039 
L 539.199312 134.408161 
L 539.481273 116.496332 
L 540.327155 94.78806 
L 540.609115 89.699264 
L 541.454997 81.912379 
L 541.736958 77.834475 
L 542.018918 77.255719 
L 542.582839 87.88511 
L 542.8648 93.387784 
L 543.146761 103.04706 
L 543.710682 131.454944 
L 544.274603 143.32613 
L 544.838524 153.560335 
L 545.120485 155.135188 
L 545.402445 155.084382 
L 545.684406 154.819947 
L 545.966366 153.526168 
L 546.530288 148.493107 
L 546.812248 146.772909 
L 547.094209 142.412963 
L 547.65813 125.818625 
L 547.94009 124.97215 
L 548.222051 129.310773 
L 548.504012 131.852849 
L 548.785972 131.86102 
L 549.067933 134.923691 
L 549.631854 149.958428 
L 550.759696 169.343952 
L 551.041657 171.311799 
L 551.887539 180.396177 
L 552.169499 180.521792 
L 552.45146 183.12041 
L 553.015381 192.225464 
L 553.579302 195.630664 
L 554.143223 204.890165 
L 554.707145 216.031952 
L 555.271066 230.064719 
L 555.553026 231.306334 
L 555.834987 220.812097 
L 556.962829 133.241798 
L 557.52675 113.247146 
L 558.090672 99.038555 
L 558.654593 95.43766 
L 559.218514 85.278481 
L 559.500475 84.589525 
L 560.064396 94.966284 
L 560.628317 109.822488 
L 561.474199 143.505399 
L 562.32008 153.578863 
L 562.602041 155.597476 
L 563.447923 144.166157 
L 563.729883 144.326316 
L 564.293804 140.745355 
L 564.575765 141.790226 
L 565.421647 146.510557 
L 565.703607 147.349968 
L 566.267529 144.627286 
L 566.549489 146.833777 
L 567.11341 155.476981 
L 567.677332 161.654098 
L 568.241253 169.156143 
L 568.523213 169.054042 
L 569.087134 162.790823 
L 569.369095 164.412392 
L 569.933016 171.61797 
L 570.214977 174.170545 
L 570.496937 180.083437 
L 571.060859 196.403667 
L 571.62478 202.930069 
L 572.188701 211.127143 
L 572.752622 219.439024 
L 573.034583 221.514897 
L 573.316543 219.9733 
L 573.598504 210.564654 
L 575.008307 115.564798 
L 575.290267 105.743584 
L 575.854189 96.834012 
L 576.41811 90.637434 
L 576.70007 90.637067 
L 576.982031 91.238787 
L 577.263991 90.934133 
L 577.545952 92.020563 
L 577.827913 97.573122 
L 578.673794 122.023543 
L 579.519676 141.001774 
L 579.801637 143.799269 
L 580.083597 144.843076 
L 580.365558 144.149081 
L 580.647518 143.116572 
L 580.929479 144.367232 
L 581.4934 149.067854 
L 581.775361 150.654849 
L 582.339282 155.632728 
L 582.903203 153.537869 
L 583.749085 158.333766 
L 584.031046 158.828374 
L 584.313006 160.039021 
L 584.594967 160.041842 
L 584.876927 159.567954 
L 585.158888 161.743162 
L 585.440848 165.718816 
L 585.722809 167.437816 
L 586.00477 167.883581 
L 586.28673 171.233013 
L 586.568691 176.174983 
L 587.132612 179.920524 
L 587.696533 192.783144 
L 587.978494 193.328563 
L 588.260454 189.791005 
L 588.542415 189.51011 
L 589.388297 200.154343 
L 589.670257 205.553299 
L 589.952218 204.982722 
L 590.234178 193.15936 
L 591.362021 127.791808 
L 591.643981 114.72637 
L 592.207903 101.841711 
L 592.489863 97.041728 
L 592.771824 94.735424 
L 593.335745 93.904353 
L 593.617705 96.455488 
L 595.59143 155.034316 
L 595.87339 159.269993 
L 596.155351 160.423703 
L 596.719272 157.369966 
L 597.283193 158.932853 
L 597.565154 156.230633 
L 598.129075 148.622653 
L 598.411035 147.938105 
L 598.692996 147.601384 
L 598.974957 147.43812 
L 599.256917 148.540641 
L 599.538878 151.835148 
L 600.102799 162.254036 
L 600.38476 163.913956 
L 600.66672 162.781345 
L 600.948681 162.554251 
L 601.230641 163.898616 
L 601.512602 163.532899 
L 602.076523 158.809447 
L 602.358484 160.404941 
L 604.050247 186.962257 
L 604.332208 186.663522 
L 604.614168 184.919241 
L 604.896129 185.522029 
L 605.742011 194.809645 
L 606.023971 190.716786 
L 606.587892 169.017864 
L 607.433774 132.643342 
L 608.561617 112.554313 
L 609.125538 113.996371 
L 609.407498 112.94249 
L 609.689459 115.47841 
L 609.971419 119.757944 
L 610.25338 119.801459 
L 610.535341 118.80232 
L 610.817301 124.007319 
L 611.099262 132.05597 
L 611.381222 135.284315 
L 611.663183 134.932667 
L 611.945144 136.96071 
L 612.227104 140.378604 
L 612.509065 141.044562 
L 612.791025 140.045533 
L 613.072986 141.553274 
L 613.636907 148.985241 
L 613.918868 150.1879 
L 614.200828 149.190478 
L 614.764749 142.600929 
L 615.04671 141.887017 
L 616.174552 154.547157 
L 617.866316 169.098288 
L 618.148276 170.572955 
L 618.994158 178.591232 
L 619.558079 175.467411 
L 620.403961 180.598923 
L 620.685922 183.625035 
L 621.249843 195.539372 
L 621.531803 196.091498 
L 621.813764 190.376282 
L 622.377685 167.826766 
L 623.505528 116.782796 
L 623.787488 111.875799 
L 624.351409 107.492653 
L 624.915331 105.047159 
L 625.197291 104.874415 
L 625.479252 106.630896 
L 626.607094 120.156697 
L 627.171015 136.023527 
L 627.452976 140.044878 
L 627.734936 140.704348 
L 628.016897 139.992168 
L 628.298858 138.398355 
L 628.580818 134.917657 
L 629.4267 118.311837 
L 629.70866 119.4563 
L 630.272582 126.757864 
L 630.554542 130.29123 
L 631.400424 155.389616 
L 631.682385 157.035208 
L 631.964345 159.428379 
L 632.528266 166.026609 
L 633.092188 170.715875 
L 633.092188 170.715875 
" clip-path="url(#p41e6bc2a9f)" style="fill: none; stroke: #1f77b4; stroke-width: 1.5; stroke-linecap: square"/>
   </g>
   <g id="patch_3">
    <path d="M 47.192188 266.112 
L 47.192188 0 
" style="fill: none; stroke: #000000; stroke-width: 0.8; stroke-linejoin: miter; stroke-linecap: square"/>
   </g>
   <g id="patch_4">
    <path d="M 660.992188 266.112 
L 660.992188 0 
" style="fill: none; stroke: #000000; stroke-width: 0.8; stroke-linejoin: miter; stroke-linecap: square"/>
   </g>
   <g id="patch_5">
    <path d="M 47.192188 266.112 
L 660.992188 266.112 
" style="fill: none; stroke: #000000; stroke-width: 0.8; stroke-linejoin: miter; stroke-linecap: square"/>
   </g>
   <g id="patch_6">
    <path d="M 47.192188 0 
L 660.992188 0 
" style="fill: none; stroke: #000000; stroke-width: 0.8; stroke-linejoin: miter; stroke-linecap: square"/>
   </g>
  </g>
 </g>
 <defs>
  <clipPath id="p41e6bc2a9f">
   <rect x="47.192188" y="0" width="613.8" height="266.112"/>
  </clipPath>
 </defs>
</svg>
