<svg xmlns="http://www.w3.org/2000/svg" xmlns:xlink="http://www.w3.org/1999/xlink" width="913.477" height="377.053" viewBox="0 0 685.107 282.79"><defs><style>*{stroke-linejoin:round;stroke-linecap:butt}</style></defs><g id="figure_1"><path id="patch_1" d="M0 282.79h685.107V0H0v282.79z" style="fill:none"/><g id="axes_1"><path id="patch_2" d="M71.308 266.112h613.8V0h-613.8v266.112z" style="fill:none"/><g id="matplotlib.axis_1"><g id="xtick_1"><g id="line2d_1"><defs><path id="m7377bc345a" d="M0 0v3.5" style="stroke:gray;stroke-width:.8"/></defs><use xlink:href="#m7377bc345a" x="99.207" y="266.112" style="fill:gray;stroke:gray;stroke-width:.8"/></g><g id="text_1" style="fill:gray" transform="matrix(.1 0 0 -.1 96.026 280.71)"><defs><path id="DejaVuSans-30" d="M2034 4250q-487 0-733-480-245-479-245-1442 0-959 245-1439 246-480 733-480 491 0 736 480 246 480 246 1439 0 963-246 1442-245 480-736 480zm0 500q785 0 1199-621 414-620 414-1801 0-1178-414-1799Q2819-91 2034-91q-784 0-1198 620-414 621-414 1799 0 1181 414 1801 414 621 1198 621z" transform="scale(.01563)"/></defs><use xlink:href="#DejaVuSans-30"/></g></g><g id="xtick_2"><use xlink:href="#m7377bc345a" id="line2d_2" x="168.958" y="266.112" style="fill:gray;stroke:gray;stroke-width:.8"/><g id="text_2" style="fill:gray" transform="matrix(.1 0 0 -.1 159.414 280.71)"><defs><path id="DejaVuSans-35" d="M691 4666h2478v-532H1269V2991q137 47 274 70 138 23 276 23 781 0 1237-428 457-428 457-1159 0-753-469-1171Q2575-91 1722-91q-294 0-599 50Q819 9 494 109v635q281-153 581-228t634-75q541 0 856 284 316 284 316 772 0 487-316 771-315 285-856 285-253 0-505-56-251-56-513-175v2344z" transform="scale(.01563)"/></defs><use xlink:href="#DejaVuSans-35"/><use xlink:href="#DejaVuSans-30" x="63.623"/><use xlink:href="#DejaVuSans-30" x="127.246"/></g></g><g id="xtick_3"><use xlink:href="#m7377bc345a" id="line2d_3" x="238.708" y="266.112" style="fill:gray;stroke:gray;stroke-width:.8"/><g id="text_3" style="fill:gray" transform="matrix(.1 0 0 -.1 225.982 280.71)"><defs><path id="DejaVuSans-31" d="M794 531h1031v3560L703 3866v575l1116 225h631V531h1031V0H794v531z" transform="scale(.01563)"/></defs><use xlink:href="#DejaVuSans-31"/><use xlink:href="#DejaVuSans-30" x="63.623"/><use xlink:href="#DejaVuSans-30" x="127.246"/><use xlink:href="#DejaVuSans-30" x="190.869"/></g></g><g id="xtick_4"><use xlink:href="#m7377bc345a" id="line2d_4" x="308.457" y="266.112" style="fill:gray;stroke:gray;stroke-width:.8"/><g id="text_4" style="fill:gray" transform="matrix(.1 0 0 -.1 295.733 280.71)"><use xlink:href="#DejaVuSans-31"/><use xlink:href="#DejaVuSans-35" x="63.623"/><use xlink:href="#DejaVuSans-30" x="127.246"/><use xlink:href="#DejaVuSans-30" x="190.869"/></g></g><g id="xtick_5"><use xlink:href="#m7377bc345a" id="line2d_5" x="378.207" y="266.112" style="fill:gray;stroke:gray;stroke-width:.8"/><g id="text_5" style="fill:gray" transform="matrix(.1 0 0 -.1 365.483 280.71)"><defs><path id="DejaVuSans-32" d="M1228 531h2203V0H469v531q359 372 979 998 621 627 780 809 303 340 423 576 121 236 121 464 0 372-261 606-261 235-680 235-297 0-627-103-329-103-704-313v638q381 153 712 231 332 78 607 78 725 0 1156-363 431-362 431-968 0-288-108-546-107-257-392-607-78-91-497-524-418-433-1181-1211z" transform="scale(.01563)"/></defs><use xlink:href="#DejaVuSans-32"/><use xlink:href="#DejaVuSans-30" x="63.623"/><use xlink:href="#DejaVuSans-30" x="127.246"/><use xlink:href="#DejaVuSans-30" x="190.869"/></g></g><g id="xtick_6"><use xlink:href="#m7377bc345a" id="line2d_6" x="447.957" y="266.112" style="fill:gray;stroke:gray;stroke-width:.8"/><g id="text_6" style="fill:gray" transform="matrix(.1 0 0 -.1 435.233 280.71)"><use xlink:href="#DejaVuSans-32"/><use xlink:href="#DejaVuSans-35" x="63.623"/><use xlink:href="#DejaVuSans-30" x="127.246"/><use xlink:href="#DejaVuSans-30" x="190.869"/></g></g><g id="xtick_7"><use xlink:href="#m7377bc345a" id="line2d_7" x="517.707" y="266.112" style="fill:gray;stroke:gray;stroke-width:.8"/><g id="text_7" style="fill:gray" transform="matrix(.1 0 0 -.1 504.983 280.71)"><defs><path id="DejaVuSans-33" d="M2597 2516q453-97 707-404 255-306 255-756 0-690-475-1069Q2609-91 1734-91q-293 0-604 58T488 141v609q262-153 574-231 313-78 654-78 593 0 904 234t311 681q0 413-289 645-289 233-804 233h-544v519h569q465 0 712 186t247 536q0 359-255 551-254 193-729 193-260 0-557-57-297-56-653-174v562q360 100 674 150t592 50q719 0 1137-327 419-326 419-882 0-388-222-655t-631-370z" transform="scale(.01563)"/></defs><use xlink:href="#DejaVuSans-33"/><use xlink:href="#DejaVuSans-30" x="63.623"/><use xlink:href="#DejaVuSans-30" x="127.246"/><use xlink:href="#DejaVuSans-30" x="190.869"/></g></g><g id="xtick_8"><use xlink:href="#m7377bc345a" id="line2d_8" x="587.457" y="266.112" style="fill:gray;stroke:gray;stroke-width:.8"/><g id="text_8" style="fill:gray" transform="matrix(.1 0 0 -.1 574.732 280.71)"><use xlink:href="#DejaVuSans-33"/><use xlink:href="#DejaVuSans-35" x="63.623"/><use xlink:href="#DejaVuSans-30" x="127.246"/><use xlink:href="#DejaVuSans-30" x="190.869"/></g></g><g id="xtick_9"><use xlink:href="#m7377bc345a" id="line2d_9" x="657.207" y="266.112" style="fill:gray;stroke:gray;stroke-width:.8"/><g id="text_9" style="fill:gray" transform="matrix(.1 0 0 -.1 644.482 280.71)"><defs><path id="DejaVuSans-34" d="M2419 4116 825 1625h1594v2491zm-166 550h794V1625h666v-525h-666V0h-628v1100H313v609l1940 2957z" transform="scale(.01563)"/></defs><use xlink:href="#DejaVuSans-34"/><use xlink:href="#DejaVuSans-30" x="63.623"/><use xlink:href="#DejaVuSans-30" x="127.246"/><use xlink:href="#DejaVuSans-30" x="190.869"/></g></g></g><g id="matplotlib.axis_2"><g id="ytick_1"><g id="line2d_10"><defs><path id="m2473ff32a7" d="M0 0h-3.5" style="stroke:gray;stroke-width:.8"/></defs><use xlink:href="#m2473ff32a7" x="71.308" y="251.992" style="fill:gray;stroke:gray;stroke-width:.8"/></g><g id="text_10" style="fill:gray" transform="matrix(.16 0 0 -.16 0 258.07)"><defs><path id="DejaVuSans-2212" d="M678 2272h4006v-531H678v531z" transform="scale(.01563)"/></defs><use xlink:href="#DejaVuSans-2212"/><use xlink:href="#DejaVuSans-32" x="83.789"/><use xlink:href="#DejaVuSans-30" x="147.412"/><use xlink:href="#DejaVuSans-30" x="211.035"/><use xlink:href="#DejaVuSans-30" x="274.658"/><use xlink:href="#DejaVuSans-30" x="338.281"/></g></g><g id="ytick_2"><use xlink:href="#m2473ff32a7" id="line2d_11" x="71.308" y="205.139" style="fill:gray;stroke:gray;stroke-width:.8"/><g id="text_11" style="fill:gray" transform="matrix(.16 0 0 -.16 0 211.218)"><use xlink:href="#DejaVuSans-2212"/><use xlink:href="#DejaVuSans-31" x="83.789"/><use xlink:href="#DejaVuSans-30" x="147.412"/><use xlink:href="#DejaVuSans-30" x="211.035"/><use xlink:href="#DejaVuSans-30" x="274.658"/><use xlink:href="#DejaVuSans-30" x="338.281"/></g></g><g id="ytick_3"><use xlink:href="#m2473ff32a7" id="line2d_12" x="71.308" y="158.286" style="fill:gray;stroke:gray;stroke-width:.8"/><use xlink:href="#DejaVuSans-30" id="text_12" style="fill:gray" transform="matrix(.16 0 0 -.16 54.127 164.364)"/></g><g id="ytick_4"><use xlink:href="#m2473ff32a7" id="line2d_13" x="71.308" y="111.432" style="fill:gray;stroke:gray;stroke-width:.8"/><g id="text_13" style="fill:gray" transform="matrix(.16 0 0 -.16 13.408 117.511)"><use xlink:href="#DejaVuSans-31"/><use xlink:href="#DejaVuSans-30" x="63.623"/><use xlink:href="#DejaVuSans-30" x="127.246"/><use xlink:href="#DejaVuSans-30" x="190.869"/><use xlink:href="#DejaVuSans-30" x="254.492"/></g></g><g id="ytick_5"><use xlink:href="#m2473ff32a7" id="line2d_14" x="71.308" y="64.579" style="fill:gray;stroke:gray;stroke-width:.8"/><g id="text_14" style="fill:gray" transform="matrix(.16 0 0 -.16 13.408 70.658)"><use xlink:href="#DejaVuSans-32"/><use xlink:href="#DejaVuSans-30" x="63.623"/><use xlink:href="#DejaVuSans-30" x="127.246"/><use xlink:href="#DejaVuSans-30" x="190.869"/><use xlink:href="#DejaVuSans-30" x="254.492"/></g></g><g id="ytick_6"><use xlink:href="#m2473ff32a7" id="line2d_15" x="71.308" y="17.726" style="fill:gray;stroke:gray;stroke-width:.8"/><g id="text_15" style="fill:gray" transform="matrix(.16 0 0 -.16 13.408 23.805)"><use xlink:href="#DejaVuSans-33"/><use xlink:href="#DejaVuSans-30" x="63.623"/><use xlink:href="#DejaVuSans-30" x="127.246"/><use xlink:href="#DejaVuSans-30" x="190.869"/><use xlink:href="#DejaVuSans-30" x="254.492"/></g></g></g><path id="line2d_16" d="m99.207 158.07.282.423.282-.408.282.396.282-.385.282.374.282-.365.282.357.282-.35.282.343.282-.336.282.33.282-.325.282.321.282-.317.282.314.282-.311.282.308.282-.307.282.306.282-.305.282.304.282-.303.282.304.282-.305.282.306.281-.308.282.31.282-.313.282.318.282-.323.282.328.282-.334.282.342.282-.351.282.36.282-.372.282.387.282-.403.282.422.282-.445.282.473.282-.507.282.548.282-.6.282.666.282-.748.282.843.282-.876.282-.275.282-59.345.281-3.502 1.692 70.087.564 14.333.282 3.149.282.805.282 1.589.282.716.282-1.431.564-5.916 1.128-8.328.846-10.746.846.926.281 1.97.564 5.318.282.764.282.431.282-.014.282-.735.282.175.564 2.855.282-.024.282-.666.282-1.277.564-3.095.282.202.282.356.282-.02.282.549.846 3.355.564 8.29.282 4.122.281 2.29.282-.01.282-.738.282 1.13.282 1.699.282-1.537.282-3.742.564-2.89.282-7.46 1.41-67.063.564-13.376.282-1.073.282 3.096.846 15.688.564 22.25.563 20.652.846 24.35.282 3.264.282.391.282-.463.282-1.215.564-3.93.564-2.598.564-3.24.282-1.28.282-2.425.564-7.338.282-1.563.564.576.282-1.053.282-.15.282 2.773.282 3.991.282 1.99.281.012.282-.253.564.039.564 1.198.282-.577.282-.926.282.447.282.955.282-.102.282-.433.564 1.603.282-.18.564-1.234.282-.38.282-.012.282.934.564 4.054.846 7.965.281 1.363.282-.018.282-2.488.282-5.339.282-8.43.564-29.37.564-26.417.564-11.51.282-3.832.282 1.057.846 16.802.564 17.05.846 31.532.564 9.78.282 3.331.282.933.563-5.083.282-.404.282-.013.282-2.076.564-5.478.846-3.766.282-.293.282.463.282 1.644.846 7.831.282.226.282.564.846 6.196.282.655.846 3.371.282-.65.563-4.364.282-.648.282 1.191.282.624.282-1.236.282-.376.282 2.568.564 5.94.846 4.588.282-.39.282-.903.282-.289.282.763.564 4.439.282.599.846-4.673.282-6.734 1.41-70.502.563-23.994.282-4.9.282-1.473.282 1.939.282 4.906.564 16.214 1.692 66.86.282 3.225.282 1.596.282.158.564-1.315.564.415.282.092.281.229.282-.455.282-1.208.282.024.282 1.125.282-.286.282-1.731.282-.14.282 1.066.282-.67.282-1.214.282 2.17.282 3.826.282.774.282-1.778.282-.214.564 2.51.282.611.282.329.282-1.533.282-2.743.282-1.226.564 1.783.281.342.282.995.846 7.811.282.861.282.246.282 1.092.564 5.657.846 9.996.564 3.592.282.773.282-.77.282-2.687.282-5.32.282-9.802.564-32.598.846-50.714.563-20.777.282-3.85.282-1.276.282 1.074.282 4.172.564 11.939.282 8.721.564 34.463.564 27.92.564 11.134.282 1.81.564.34.282-.867.282-2.095.282-.958.564 2.56.282-1.61.282-2.57.282-1.08.281-.169.282-.604.564-1.8.564-.673.282-1.045.564-3.3.282.104.846 6.821.282-.162.282.588.282 2.211.282 1.243.282-.68.282.197.846 7.755.282.889.845 4.613.282 1.457.846 6.614.282 1.596.564 4.455.282.81.846-1.41.282-1.973.282-5.227.282-9.959.564-35.025.846-51.496.564-24.236.282-5.477.282-.74.282 1.365.281 2.878.282 7.466.564 31.707.846 45.792.564 21.204.282 3.982.282.596.282-.307.282-.926.846-5.6.846-7.824.282.179.282-.692.282-1.718.282-.372.282 1.167.282.465.282-.077.281 1.137.564 4.173.564 2.476.282.291.564-1.108.282.778.564 3.254.564.822.282 2.512.564 8.879.846 7.489.282 1.26.282-.224.282.933.564 6.743.563 3.66.846 13.104.282-2.934.282-9.909.564-37.943.846-59.562.564-31.792.564-19.826.564-14.262.282-1.511.282 5.793.564 19.16.282 14.949.846 68.002.563 21.776.282 7.199.282 2.906.564.734.282-1.104.564-6.033.282-.987.282-.267.282-.966.282-2.6.564-7.413.282.06.282 1.994.282.345.282-1.446.282.024.564 4.353 1.128 4.534.281 1.63 1.128 12.076.564 2.691.282 1.265.282.597.282 1.444 1.41 17.203.846 13.237.282 2.527.282.378.564-1.982.282-2.794.282-9.725.845-59.74 1.41-95.676.282-7.77.564-5.76.282-2.517.282-.607.282 3.305.282 7.727.564 26.345.564 36.84.564 37.3.282 9.211.564 10.028.282 3.466.564 1.809.281.947.282-.942.282-2.225.282-.512.282.733.282-1.383.282-2.835.282-1.053.282.45.282-.534.282-.072.564 6.313.282-.201.282-1.931.282 1.194.282 3.446.282.3.282-2.808.282-.824.282 2.2.282.823.282-1.446.282.268.563 7.044.282 1.828.282 3.155 1.128 28.916.282 1.533.282 2.336 1.692 20.471.282-.815.282-7.782.564-36.042 1.41-115.185.845-34.409.564-12.125.282-3.928.282-.136.282 5.078.564 19.76.564 42.818.564 45.493.564 24.66.282 4.436.282.307.282.023.564 3.376.282-.243.564-3.69.282-.099.282-1.02.845-14.109.282 1.5.282-.945.282-3.113.282.372.282 3.508.282 1.105.282-.436.282 3.154.564 9.42.282 1.988.282 4.228.564 10.35.282 2.08.564 2.71.564 5.907 1.41 14.471.281 1.959.564 9.193 1.128 20.586.282 1.18.282-2.815.282-8.271.282-15.335.564-51.924.846-80.06.564-36.497.282-12.696.282-6.656.282-2.575.282-1.377.282-.792.282 1.216.282 6.036.563 28.63.564 36.826.564 44.771.282 14.497.282 6.638.846 10.317.282.85.282-.63.564-3.739.282-.48.282.232.282-1.057.282-2.127.282-1.24.282-.617.564-2.9.282.231.282 2.131.563 7.538.282 3.921.282 1.714.282.096.282.895.282 1.7.282.116.282-.767.282 1.275.282 3.023.282 1.747.282 1.013.282 3.232.564 9.39.846 7.333.282 4.262.846 17.899.564 5.801.563 12.344.282 2.133.282-3.875.282-7.69.282-11.237.282-18.754 1.692-159.872.564-23.596.282-4.68.282-.63.282 2.672.282 5.252.564 15.95.564 24.406.846 51.344.563 39.055.282 8.636.564 8.43.282.043.282-3.676.282-1.329.282 1.689.282-.597.282-3.346.282-1.263.282 1.3.282.475.564-2.94.282-1.524.282-.648.282.798.282 1.257.282.663.282 1.05.564 3.699.845 3.001.282 2.381.846 10.347.846 7.88.282 1.086.282 2.085.846 9.728.282 4.336.282 2.37.282-.292.282 1.222 1.692 31.512.282 1.17.281-.81.282-5.473.282-15.533.846-83.17.846-82.423.564-28.498.564-16.701.282-3.584.282-.555.282 2.355.282 6.348.564 22.111.564 33.944.846 68.546.564 28.552.281 5.446.282.359.564-3.49.282-2.932.846-12.38.564-4.402.282-.704.282 2.702.282 4.053.282 1.921.282.904.564 7.13.282 1.19.282-.195.564 3.129.282 1.785.282 4.065.282 5.98.282 3.601.281.94.282 2.248.282 3.67.282.676.564-5.277.282.478.846 6.352.564 5.46.846 12.58.564 5.108.282 4.958.846 22.833.282 1.876.282-3.637.282-8.114.282-15.021.563-59.982.564-61.432.564-46.1.282-16.481.564-16.032.282-4.645.282-1.583.282 2.511.564 9.279.282 8.321.564 31.595 1.41 86.11.282 9.788.282 5.587.282 1.029.563-3.652.846-7.784.282.13.846 3.38 1.128 7.348.282.8.564.428.282 1.017.564 3.87.564 5.332.282 1.368.282-.157.282.06.564 4.232.281.771.282.204.846 4.854.282 2.902.846 13.947.564 7.525.846 13.603.282 2.41.282-.06.282-1.77.282-4.924.282-12.66.564-50.36 1.128-107.668.282-16.455.281-9.072.282-5.365.282-2.305.282 1.28.564 7.3.282 5.524.564 18.798.564 27.498 1.41 80.922.282 7.205.282 1.142.282-2.507.564-9.962.282-5.317.282-1.715.564 4.23.281.872.282 1.745.846 9.837.846 3.944.564 3.954.282.996.282 2.177.282 3.906.282 2.362.282-1.529.282-2.306.282.35.282 1.395.282-.661.282-1.103.282 2.193.564 10.188 1.127 11.567.564 8.747 1.128 23.357.282 4.826.282 1.597.282-2.58.282-6.928.282-12.66.564-47.878 1.128-118.819.564-23.76.282-4.398.282-.996.282.171.282.567.282 2.073.563 9.832.564 16.482.846 35.987 1.41 68.127.282 5.116.282 1.904.282.386.282-.703.282-.224.564 2.915.282.08.282-.275.282.856.846 4.615.563 1.297.282.155.282.384.282 1.794.564 7.01.282.856.282-.721.282-.13.282.152.282-.435.282.098.564 3.24.282.339.282 1.164.846 11.133.282 2.53 1.691 25.627.846 12.498.282-.174.282-4.575.282-10.269.282-18.432.564-60.181.846-92.547.282-13.623.282-5.777.282-2.73.282-1.189.282.418.282 1.103.282 2.137.282 4.567.846 21.238 1.41 50.301.563 25.081.282 7.25.282 2.52.282 4.386.564 13.07.564 2.747.282 2.406.282-.006.282-2.234.282-.47.564 3.115.282.136.282.49.846 5.131.282.341.281.598.564 3.362.282-.72.282-1.37.282.585.282 1.893.282.965.282-.016.282 1.035.846 7.822.564 3.352.282 3.422.564 10.47.564 6.978.846 22.178.564 7.601.282 1.69.281-4.706.282-12.306.282-21.29 1.41-155.991.282-12.482.282-4.774.282-2.027.282-1.204.282.494.282 2.248.282 3.493.564 11.916.564 16.868 1.128 47.522.564 24.998.563 13.53.564 9.542.564 3.896.564 2.746.282.029.564-1.357.282-.019.282.832.846 5.731.282.9.282 1.623.564 4.443.282.568.282.094.564 1.131.282-.051.563-1.748.282.036.282 1.459 1.128 9.285.564 9.754 1.974 35.796.282 6.323.282 3.314.282 1.968.282.079.282-8.04.282-20.745 1.691-169.61.282-3.877.282-.232.564.935.282 1.145.282 1.95.282 3.091.282 4.698.564 14.322 1.128 36.13.846 27.552 1.128 21.044.282 1.216.563-7.67.282-.847.282 1.212.282-.223.282-1.81.282-.18.846 9.082.282.926.282 1.362.564 4.621.282.58.282-.344.282 1.064.846 9.823.282.517.282 3.204.564 12.156.282 2.295.845 3.064.282 1.997.564 9.651.282-.018.282-1.248.282 3.187.282 5.97.282 2.872.282-.349.282.91 1.41 16.927.282.05.282-5.64.282-11.373.282-19.46.564-72.665.564-62.262.281-11.09.282-4.72.282-2.111.282.367.564 4.55.564 7.248.564 7.861.282 6.265.846 28.99 1.128 43.504.282 6.038.282 3.285.282-1.211.282-3.325.282-1.818.282-.959.563-4.686.282-.59.282-1.448.846-13.723.282.618.282 2.011.282 3.052.564 12.256.564 11.74.846 12.45.846 11.14.564 6.52.846 11.928.282.996.563-.518.282 1.387.564 5.924.564 4.8.564 6.719.282 1.43.282 3.097.846 18.615.282 3.322.282.345.282-4.532.282-12.71.282-24.528.846-101.03.564-32.058.282-5.813.282-.652.281.962.282-.489.282-1.96.282-1.027.282 2.292.846 20.173.564 14.757 1.128 31.33.564 9.587.564 6.072.282-.088.846-10.042.846-11.446.281.693.564 4.25 1.128 10.39.846 11.544.846 9.698.846 14.696.564 5.999.282 3.595.564 2.942.282 4.02.564 10.003.282 3.073.845 13.36.282 2.407.282 3.467 1.128 17.7.282 4.311.282 2.048.282-2.895.282-10.435.282-20.916 1.128-125.595.564-22.531.282-4.709.282.826.564 7.403.564 3.534.563 6.97.564 11.293 1.974 56.833.282 2.287.282.483.282-.918 1.41-11.665.282-.263.564 4.926.282.3.282-.02.282.854.281 1.704.282 3.366.564 9.496 1.128 8.283.282-2.173.564-8.987.282.55.846 13.955.282 3.154.564 13.95.282 3.257.282.005.282.842.564 5.7.282 3.886 1.127 20.855 1.41 19.135.282-1.165.282-7.124.282-15.92.564-65.453.564-61.063.282-9.916.564-2.655.282-2.659.282.105.564 6.773.282.476.282 1.913.845 14.525 1.128 33.405.564 9.846.564 4.813.282 1.49.282-.513.564-3.306.564-1.053.282.124.564 1.218.282.1.282.385.564 1.437.282 2.211.564 7.676.282.902.281.258.564 5.123.282-.234.282-2.677.282-1.605.282 1.155.564 5.81.846 4.99.282 2.66.282 1.188.282.239.282 2.098.564 6.53.282-.495.282-.752.282 2.148 1.41 24.765.845 17.226.282 2.04.282-2.869.282-9.758.282-18.611.846-74.06.564-22.908.564-10.738.282-2.908.282-1.396.282.612.846 5.025.282 4.09 1.973 45.346.846 8.906.282 1.646.282-.472.282-1.162.282.003.282 1.058.282-.035.282-1.634.282-.767.564 2.45.282-1.35.282-2.238.282-1.04.282.072.564.687.282.014.282.587 1.127 9.179.564 5.156.282 1.313.282 2.262.282 3.179.282 1.79.282.149.282.523.846 5.274.564 1.685.282 2.631.564 10.62.282 2.865.564 1.435.282 2.308 1.127 15.931.282.535.282-3.467.282-11.48 1.128-78.418.564-19.59.282-4.688.282-2.667.282-.73.282.145.564-1.208.282 1.307.564 5.911.282 5.308 1.41 37.898.563 10.224.282 2.58.282 1.055.282-.404.282-.652.282-.194.282-.509.564-2.968.846-6.273.282-.641.282-.064.282.254.282 1.499.564 3.846.282 1.1.846 9.387.282.365.282 1.885.281 2.83.282 1.067.282.541.564 4.876.282-.2.282-1.028.282.336.564 1.448.846 4.882.282.6.282 2.358.564 6.56.846 7.874.846 10.4.282-.478.282-4.83.281-10.093 1.128-56.511.564-16.767.564-7.116.564-4.808.282-.675.564-.5.282.335.282 2.388.564 10.683.564 10.34.846 11.096.564 11.145.282 2.105.281-.316.282.213.564 3.426.282-.488.846-5.682.282-2.127.282-.254.564 2.554.282.447.282 1.589.282 2.343.282.966.282-.381.282.145.564 1.435.282.338.282.828.846 3.938.563-.882.282 1.923.282 3.145.282 1.47.282.215.282 2.029.564 6.526.282.397.282-.098.282 1.267 1.41 16.744.564 6.981.564 2.106.282.589.282-2.67.282-7.964 1.691-71.601.564-8.781.282-2.71.282-1.306.564.698.282-.584.282-.098.282 2.873.564 8.013.282.53.282 2.21.846 17.078.282 1.256.282 3.04.282 4.419.282 2.287.282-.426.281-.913.282.12.282.433.282-.314.564-2.804.282-.143.846 3.774.282.501.282 1.35.564 3.58.282.837.282 1.226.564 3.51.564 2.053.282 1.3.282.14.282-.98.282-.048.563 2.478.282.208.282-.198.846-1.55.282 1.644.564 5.535.564 2.7.282 2.614.564 7.307.564 6.24.564 8.856.282 1.795.282-1.36.282-5.813.564-24.167.845-43.69.564-15.337.282-3.729.282-.004.282 2.915.282 1.634.282.26.282 2.255.564 8.056.282 1.724.282 2.811.846 18.16.564 8.92.564 1.35.564 4.483.282-.649 1.127-11.967.282-1.752.282-.408.282.448.282-.094.282.845.564 3.94.564-.173.282.907.846 5.802.564.054.282.93.282 2.043.282.656.282-.012.282.687.282 2.23.282 1.042.282.097.282.317.563 5.473 1.692 17.6.282-.069.282-.907.564 1.763.282 1.531.564 1.392.282-2.976.282-6.118 1.128-41.209.282-9.194.564-9.423.282.408.281-7.424h0" clip-path="url(#p5ab565a4bb)" style="fill:none;stroke:#1f77b4;stroke-width:1.5;stroke-linecap:square"/><path id="patch_3" d="M71.308 266.112V0" style="fill:none;stroke:gray;stroke-width:.8;stroke-linejoin:miter;stroke-linecap:square"/><path id="patch_4" d="M685.107 266.112V0" style="fill:none;stroke:#000;stroke-width:.8;stroke-linejoin:miter;stroke-linecap:square"/><path id="patch_5" d="M71.308 266.112h613.8" style="fill:none;stroke:gray;stroke-width:.8;stroke-linejoin:miter;stroke-linecap:square"/><path id="patch_6" d="M71.308 0h613.8" style="fill:none;stroke:#000;stroke-width:.8;stroke-linejoin:miter;stroke-linecap:square"/></g></g><defs><clipPath id="p5ab565a4bb"><path d="M71.308 0h613.8v266.112h-613.8z"/></clipPath></defs></svg>