<svg xmlns="http://www.w3.org/2000/svg" xmlns:xlink="http://www.w3.org/1999/xlink" width="913.477" height="377.053" viewBox="0 0 685.107 282.79"><defs><style>*{stroke-linejoin:round;stroke-linecap:butt}</style></defs><g id="figure_1"><path id="patch_1" d="M0 282.79h685.107V0H0v282.79z" style="fill:none"/><g id="axes_1"><path id="patch_2" d="M71.308 266.112h613.8V0h-613.8v266.112z" style="fill:none"/><g id="matplotlib.axis_1"><g id="xtick_1"><g id="line2d_1"><defs><path id="mbecd7a9d25" d="M0 0v3.5" style="stroke:gray;stroke-width:.8"/></defs><use xlink:href="#mbecd7a9d25" x="99.207" y="266.112" style="fill:gray;stroke:gray;stroke-width:.8"/></g><g id="text_1" style="fill:gray" transform="matrix(.1 0 0 -.1 96.026 280.71)"><defs><path id="DejaVuSans-30" d="M2034 4250q-487 0-733-480-245-479-245-1442 0-959 245-1439 246-480 733-480 491 0 736 480 246 480 246 1439 0 963-246 1442-245 480-736 480zm0 500q785 0 1199-621 414-620 414-1801 0-1178-414-1799Q2819-91 2034-91q-784 0-1198 620-414 621-414 1799 0 1181 414 1801 414 621 1198 621z" transform="scale(.01563)"/></defs><use xlink:href="#DejaVuSans-30"/></g></g><g id="xtick_2"><use xlink:href="#mbecd7a9d25" id="line2d_2" x="168.958" y="266.112" style="fill:gray;stroke:gray;stroke-width:.8"/><g id="text_2" style="fill:gray" transform="matrix(.1 0 0 -.1 159.414 280.71)"><defs><path id="DejaVuSans-35" d="M691 4666h2478v-532H1269V2991q137 47 274 70 138 23 276 23 781 0 1237-428 457-428 457-1159 0-753-469-1171Q2575-91 1722-91q-294 0-599 50Q819 9 494 109v635q281-153 581-228t634-75q541 0 856 284 316 284 316 772 0 487-316 771-315 285-856 285-253 0-505-56-251-56-513-175v2344z" transform="scale(.01563)"/></defs><use xlink:href="#DejaVuSans-35"/><use xlink:href="#DejaVuSans-30" x="63.623"/><use xlink:href="#DejaVuSans-30" x="127.246"/></g></g><g id="xtick_3"><use xlink:href="#mbecd7a9d25" id="line2d_3" x="238.708" y="266.112" style="fill:gray;stroke:gray;stroke-width:.8"/><g id="text_3" style="fill:gray" transform="matrix(.1 0 0 -.1 225.982 280.71)"><defs><path id="DejaVuSans-31" d="M794 531h1031v3560L703 3866v575l1116 225h631V531h1031V0H794v531z" transform="scale(.01563)"/></defs><use xlink:href="#DejaVuSans-31"/><use xlink:href="#DejaVuSans-30" x="63.623"/><use xlink:href="#DejaVuSans-30" x="127.246"/><use xlink:href="#DejaVuSans-30" x="190.869"/></g></g><g id="xtick_4"><use xlink:href="#mbecd7a9d25" id="line2d_4" x="308.457" y="266.112" style="fill:gray;stroke:gray;stroke-width:.8"/><g id="text_4" style="fill:gray" transform="matrix(.1 0 0 -.1 295.733 280.71)"><use xlink:href="#DejaVuSans-31"/><use xlink:href="#DejaVuSans-35" x="63.623"/><use xlink:href="#DejaVuSans-30" x="127.246"/><use xlink:href="#DejaVuSans-30" x="190.869"/></g></g><g id="xtick_5"><use xlink:href="#mbecd7a9d25" id="line2d_5" x="378.207" y="266.112" style="fill:gray;stroke:gray;stroke-width:.8"/><g id="text_5" style="fill:gray" transform="matrix(.1 0 0 -.1 365.483 280.71)"><defs><path id="DejaVuSans-32" d="M1228 531h2203V0H469v531q359 372 979 998 621 627 780 809 303 340 423 576 121 236 121 464 0 372-261 606-261 235-680 235-297 0-627-103-329-103-704-313v638q381 153 712 231 332 78 607 78 725 0 1156-363 431-362 431-968 0-288-108-546-107-257-392-607-78-91-497-524-418-433-1181-1211z" transform="scale(.01563)"/></defs><use xlink:href="#DejaVuSans-32"/><use xlink:href="#DejaVuSans-30" x="63.623"/><use xlink:href="#DejaVuSans-30" x="127.246"/><use xlink:href="#DejaVuSans-30" x="190.869"/></g></g><g id="xtick_6"><use xlink:href="#mbecd7a9d25" id="line2d_6" x="447.957" y="266.112" style="fill:gray;stroke:gray;stroke-width:.8"/><g id="text_6" style="fill:gray" transform="matrix(.1 0 0 -.1 435.233 280.71)"><use xlink:href="#DejaVuSans-32"/><use xlink:href="#DejaVuSans-35" x="63.623"/><use xlink:href="#DejaVuSans-30" x="127.246"/><use xlink:href="#DejaVuSans-30" x="190.869"/></g></g><g id="xtick_7"><use xlink:href="#mbecd7a9d25" id="line2d_7" x="517.707" y="266.112" style="fill:gray;stroke:gray;stroke-width:.8"/><g id="text_7" style="fill:gray" transform="matrix(.1 0 0 -.1 504.983 280.71)"><defs><path id="DejaVuSans-33" d="M2597 2516q453-97 707-404 255-306 255-756 0-690-475-1069Q2609-91 1734-91q-293 0-604 58T488 141v609q262-153 574-231 313-78 654-78 593 0 904 234t311 681q0 413-289 645-289 233-804 233h-544v519h569q465 0 712 186t247 536q0 359-255 551-254 193-729 193-260 0-557-57-297-56-653-174v562q360 100 674 150t592 50q719 0 1137-327 419-326 419-882 0-388-222-655t-631-370z" transform="scale(.01563)"/></defs><use xlink:href="#DejaVuSans-33"/><use xlink:href="#DejaVuSans-30" x="63.623"/><use xlink:href="#DejaVuSans-30" x="127.246"/><use xlink:href="#DejaVuSans-30" x="190.869"/></g></g><g id="xtick_8"><use xlink:href="#mbecd7a9d25" id="line2d_8" x="587.457" y="266.112" style="fill:gray;stroke:gray;stroke-width:.8"/><g id="text_8" style="fill:gray" transform="matrix(.1 0 0 -.1 574.732 280.71)"><use xlink:href="#DejaVuSans-33"/><use xlink:href="#DejaVuSans-35" x="63.623"/><use xlink:href="#DejaVuSans-30" x="127.246"/><use xlink:href="#DejaVuSans-30" x="190.869"/></g></g><g id="xtick_9"><use xlink:href="#mbecd7a9d25" id="line2d_9" x="657.207" y="266.112" style="fill:gray;stroke:gray;stroke-width:.8"/><g id="text_9" style="fill:gray" transform="matrix(.1 0 0 -.1 644.482 280.71)"><defs><path id="DejaVuSans-34" d="M2419 4116 825 1625h1594v2491zm-166 550h794V1625h666v-525h-666V0h-628v1100H313v609l1940 2957z" transform="scale(.01563)"/></defs><use xlink:href="#DejaVuSans-34"/><use xlink:href="#DejaVuSans-30" x="63.623"/><use xlink:href="#DejaVuSans-30" x="127.246"/><use xlink:href="#DejaVuSans-30" x="190.869"/></g></g></g><g id="matplotlib.axis_2"><g id="ytick_1"><g id="line2d_10"><defs><path id="m49843f3d11" d="M0 0h-3.5" style="stroke:gray;stroke-width:.8"/></defs><use xlink:href="#m49843f3d11" x="71.308" y="239.367" style="fill:gray;stroke:gray;stroke-width:.8"/></g><g id="text_10" style="fill:gray" transform="matrix(.16 0 0 -.16 0 245.446)"><defs><path id="DejaVuSans-2212" d="M678 2272h4006v-531H678v531z" transform="scale(.01563)"/></defs><use xlink:href="#DejaVuSans-2212"/><use xlink:href="#DejaVuSans-32" x="83.789"/><use xlink:href="#DejaVuSans-30" x="147.412"/><use xlink:href="#DejaVuSans-30" x="211.035"/><use xlink:href="#DejaVuSans-30" x="274.658"/><use xlink:href="#DejaVuSans-30" x="338.281"/></g></g><g id="ytick_2"><use xlink:href="#m49843f3d11" id="line2d_11" x="71.308" y="196.805" style="fill:gray;stroke:gray;stroke-width:.8"/><g id="text_11" style="fill:gray" transform="matrix(.16 0 0 -.16 0 202.883)"><use xlink:href="#DejaVuSans-2212"/><use xlink:href="#DejaVuSans-31" x="83.789"/><use xlink:href="#DejaVuSans-30" x="147.412"/><use xlink:href="#DejaVuSans-30" x="211.035"/><use xlink:href="#DejaVuSans-30" x="274.658"/><use xlink:href="#DejaVuSans-30" x="338.281"/></g></g><g id="ytick_3"><use xlink:href="#m49843f3d11" id="line2d_12" x="71.308" y="154.242" style="fill:gray;stroke:gray;stroke-width:.8"/><use xlink:href="#DejaVuSans-30" id="text_12" style="fill:gray" transform="matrix(.16 0 0 -.16 54.127 160.32)"/></g><g id="ytick_4"><use xlink:href="#m49843f3d11" id="line2d_13" x="71.308" y="111.679" style="fill:gray;stroke:gray;stroke-width:.8"/><g id="text_13" style="fill:gray" transform="matrix(.16 0 0 -.16 13.408 117.758)"><use xlink:href="#DejaVuSans-31"/><use xlink:href="#DejaVuSans-30" x="63.623"/><use xlink:href="#DejaVuSans-30" x="127.246"/><use xlink:href="#DejaVuSans-30" x="190.869"/><use xlink:href="#DejaVuSans-30" x="254.492"/></g></g><g id="ytick_5"><use xlink:href="#m49843f3d11" id="line2d_14" x="71.308" y="69.117" style="fill:gray;stroke:gray;stroke-width:.8"/><g id="text_14" style="fill:gray" transform="matrix(.16 0 0 -.16 13.408 75.195)"><use xlink:href="#DejaVuSans-32"/><use xlink:href="#DejaVuSans-30" x="63.623"/><use xlink:href="#DejaVuSans-30" x="127.246"/><use xlink:href="#DejaVuSans-30" x="190.869"/><use xlink:href="#DejaVuSans-30" x="254.492"/></g></g><g id="ytick_6"><use xlink:href="#m49843f3d11" id="line2d_15" x="71.308" y="26.554" style="fill:gray;stroke:gray;stroke-width:.8"/><g id="text_15" style="fill:gray" transform="matrix(.16 0 0 -.16 13.408 32.633)"><use xlink:href="#DejaVuSans-33"/><use xlink:href="#DejaVuSans-30" x="63.623"/><use xlink:href="#DejaVuSans-30" x="127.246"/><use xlink:href="#DejaVuSans-30" x="190.869"/><use xlink:href="#DejaVuSans-30" x="254.492"/></g></g></g><path id="line2d_16" d="m99.207 154.367.282-.245.282.235.282-.226.282.218.282-.21.282.203.282-.197.282.19.282-.184.282.18.282-.176.282.172.282-.168.282.164.282-.16.282.157.282-.155.282.153.282-.151.282.149.282-.147.282.146.282-.145.282.143.282-.142.281.142.282-.142.282.142.282-.142.282.142.282-.142.282.143.282-.145.282.147.282-.149.282.151.282-.154.282.158.282-.163.282.17.282-.177.282.185.282-.196.282.21.282-.228.282.252.282-.285.282.332.282-.406.282.54.281-.853.282 2.548.282 3.724.282-1.294.282.48.282-.589.282.363.282.546.282.117.282-.697.282 1.625.564 8.515.282 1.03.282-.073.282 1.66.282 2.801.282.267.564-5.947.282-.305.282.605.282-1.216.564-5.903.282-4.452.563-18.769.564-20.302.564-11.114.282-1.5.282 2.809.564 19.58.564 19.67.564 12.431.564 2.322.564 6.49.282-.192.282-.457.282 1.228.282.38.282-1.612.282-.852.282.772.281.188.282-.572.282.536.282.874.282-.881.282-1.807.282-.417.282.81.282.304.564-1.315.282.28 1.692 7.353.282.204.282-1.555.282-4.586.564-19.187.564-28.998.563-29.79.282-6.239.282-1.422.282 2.62.282 8.815 1.128 59.974.282 7.54.282 4.028.282 1.984.564 1.448.282 1.972.564 6.473.282-.144.282-1.18.564.326.282-2.17.564-7.495.282-1.548.281-.278.282.04.282-.08.282.185.282.918.564 2.428.282.825.846 3.29.282.849.282 1.387.282.688.282-1.668.282-4 .282-6.014.564-21.125 1.128-54.398.282-6.069.282-.502.281 3.785.282 8.22.564 31.522.564 29.066.282 6.73.564 5.81.282 1.413.282.197.282-.348.564.07.282-.99.564-3.092.282-1.084.282-.557.282.064.282-.394.282-1.454.282-.05.282 3.916.282 5.908.281 3.488.282.246.282-.12.282 1.548.564 4.858.282.91.282-.222.564-.709.282-.82.282-1.766.282-3.475.282-7.295.564-27.539.846-44.294.282-9.947.282-4.22.282.989.282 6.467.564 29.578.563 28.324.564 15.06.282 1.992.282.62.564 2.247.282.428.564 1.955.282-.435.282-1.55.282-.445.282.457.282-.993.282-2.41.282-1.076.282 1.558.282 2.431.282 1.2.282-.398.282-.696.282.311.282.836.282-.525.281-1.903.282-.67.564 3.799.282.554.564.655.282-1.738.564-11.597.282-8.269.564-27.458.282-13.8.282-8.222.282-3.138.282-.278.282 2.602.282 7.773 1.128 56.134.282 4.565.564 4.194.281.786.282-.136.282-1.148.282-2.666.564-6.607.282-.426.282 1.02.282.474.282.146.282 1.787.564 5.735.282.134.282-.486.282.296 1.41 3.077.282 2.133.282 3.05.282 1.42.282-.493.281.036.282.913.282-.794.282-3.727.282-6.228.282-9.794 1.692-84.606.282-3.924.282.636.282 7.564.564 37.887.564 37.91.564 22.223.282 3.862.282-.356.564-5.042.281-.453.282 1.345.282.247.564-4.634.282-.213.282.499.282-.705.564-2.062.564-1.2.282.47.846 3.346.846 6.1.282 3.877.564 10.16.282 1.393.282-.579.282-1 .282-2.326.281-6.693.282-13.533 1.128-73.73.564-25.525.282-5.416.282-.489.282 3.486.282 8.93.564 35.568.564 36.518.282 9.798.564 7.29.564 5.504.564 2.69.282 1.589.282-.098.281-.71.564 1.709.564-3.401.282 1.943.564 7.482.282-.171.282-.537.282.966.282 1.454.282-.09.564-3.822.282.826.282 2.502.282 1.026.282-.985.282-.506.282.466.282-1.894.282-6.993.564-25.188 1.41-78.45.281-5.278.282-.664.282 4.75.282 11.062 1.128 70.555.282 7.804.282 3.639.282 1.51.282 2.3.846 14.88.564-2.22.282.11.282-.926.282-2.458.282-1.353.845 1.593.282 1.509.282 2.272.282.874.282-1.25.282-2.022.282-1.1.282.802.564 3.994.282-.156.282-.602.282.943.282 1.505.282-1.066.282-5.195.564-20.313 1.41-76.586.281-6.601.282-2.25.282 2.986.282 9.138.564 34.589.564 35.255.282 9.258.564 8.93.564 6.592.282 1.116.282.094.282-.108.282.184.282.376.282-.124.282-1.094.564-3.063.282-.882.282-.43 1.127-.817.282.255.282.578.282 1.16 1.128 6.674.282.847.282.293.282-.443.282-2.33.282-5.757.564-21.272 1.41-74.93.282-7.584.282-3.821.282 2.711.282 10.166 1.41 81.7.281 7.2.282 3.167.282.928.282 1.547.282 2.462.282 1.13.846-2.172.564-2.12.564-.445.564-2.004.564-.169.564-1.078.282.385.281 1.22.564 3.533.282.819.282 1.195.564 5.538.282.799.282.345.282 1.067.282-2.004.282-9.565 1.692-94.63.282-5.18.282-.205.282 5.869.564 29.852.846 51.585.281 7.924.564 5.97.282 4.614.282 2.724.282-1.739.282-3.221.282-.806.282.947.282-.038.282-.738.282.484.282 1.26.282.218.282-.514.282.252.564 1.965.282 1.515.564 4.485.282 1.4.282 2.152.564 6.243.563 4.285.282 3.166.282 1.621.282-1.624.282-4.897.282-9.166.564-35.808 1.128-88.11.564-25.837.282-5.924.282.176.282 8.416.564 38.292.846 68.306.282 12.742.282 6.44.563 6.143 1.41 11.765.282 1.505.282.184.282-.383.282.25.846 2.288.282 3.078.282 4.48.282 2.68.282.13.282.7.564 5.28.282-.427.282-1.154.282.575.282 1.124.282-.415.281-1.794.282-3.996.282-9.975.564-40.437 1.128-92.758.564-26.39.282-6.919.282 1.818.282 12.78.846 64.609.564 45.518.282 14.683.282 7.453.564 6.012.845 6.423.564 6.756.282-.405.282-1.484.282 1.04.282 2.67.282.408.282-2.16.282-1.205.564 1.746.282-.195.282.781.282 2.977.846 12.06.282 1.938.564 1.865.282 1.3.282-.883.282-5.603.282-11.473.563-39.825 1.128-94.97.564-25.694.282-4.536.282 3.036.282 12.09.564 42.85.846 65.285.282 11.914.564 12.93.564 9.54.282 1.417.282.07.282.484.282.883.282-.196.563-2.722.564-.1.564-1.646.564-.99.282-.44.282 1.26 1.41 15.245.282 2.1.282 1.055.282-.129.282-1.638.282-4.36.282-9.283.564-37.654.845-63.722.564-30.066.282-8.702.282-3.327.282 2.861.282 9.725.564 38.71.564 46.64.564 25.921.564 9.628.564 4.21.282.576.282-.538.282.235.282 2.722.282 3.941.282 2.268.282.017.282-.4.563.93.282-1.279.564-5.023.282.895.564 4.154.282.718.282 1.828.564 4.916.846 4.014.282-4.317.564-21.544.564-33.306.846-64.879.846-38.184.281-2.713.282 8.364.564 36.602 1.128 85.8.282 10.744.846 11.367.282 3.034.282-1.6.282-2.734.282.603.282 2.235.282.116.282-1.052.282.347.564 1.969 1.127 4.255.564 5.424.282 1.325.282 2.22.564 8.382.564 2.185.282 2.167.282-.778.282-7.371.282-13.49.564-44.454 1.128-106.942.282-20.73.282-10.524.282.831.282 7.18.564 23.447.845 54.913.846 57.015.564 20.686.846 13.788.282 2.817.564 2.532.282 2.038.282 1.004.282-.102.282.87.282 2.112.282 1.166.282-.187.282.431.282 1.5.282.745.282-.18.282 1.058 1.127 12.481.282 2.353.282 1.012.282-2.34.282-7.72.282-14.546.564-47.122 1.128-106.605.282-17.629.282-7.913.282.432.564 9.057.282 8.158.282 15.04 1.41 98.25.563 24.07.564 11.476.282 3.6.282 1.633.564.85.282.268.282.809.846 6.283.282.415.282 1.027 1.128 10.803.282 1.595.846 7.557.563 2.142.282-.16.282-2.715.282-7.287.282-14.94.564-54.23.846-78.319.564-41.345.282-5.714.282 1.875.282 5.44.282 9.714.846 46.465 1.128 74.36.564 20.287 1.127 20.42.282 2.976.282.494.282.201.564.88.282.065.282-.715.282-1.193.282.1 1.692 12.482.282 2.382.564 6.102.282.577.282-.583.282-2.141.282-7.484.563-36.329 1.692-143.488.282-8.755.282-1.902.282 5.445.564 21.45.564 30.383 1.128 69.964.564 25.037.282 7.048.564 6.914.845 8.268.564 2.654.846 5.239.846 2.5.846 5.37.282 1.31.846 7.165.564 1.835.282-.7.282-4.07.282-8.673.282-14.523.564-48.07 1.127-105.84.282-15.885.282-5.434.282 3.55.282 10.046 1.41 76.084.564 32.824 1.128 36.635.846 16.194.282 2.84 1.127 4.043.282.056.282 1.036.846 4.505.846 10.246.282 1.223.282 2.023.846 8.408.282 1.271.282-1.296.282-6.355.564-28.537.564-46.322.846-89.76.282-17.22.281-10.253.282-5.87.282-.467.282 6.214.846 31.585 1.692 95.28.564 20.852.282 4.367.282 2.239.282 3.21.846 13.839.282 1.776.282.704.282 1.787 1.41 16.777.563 4.423.846 11.03.846 8.174.282-2.987.282-8.849.282-16.388.564-55.589 1.128-110.32.282-12.126.846-18.469.282-1.005.281 3.203.282 6.002.564 22.225 1.128 55.425 1.128 69.109.846 23.986.282 3.925.282.85.282.276.282 1.914.846 8.827.282 2.08.282 4.065.563 12.874.846 10.614.282 6.027.282 2.337.282-2.18.282-3.114.282-4.566.282-11.941.564-50.31 1.128-116.77.564-32.676.282-10.085.282-5.978.282.136.282 6.42.846 28.413 2.255 107.565.564 32.556.282 8.802 1.128 14.158.282 1.261.282.61.282 2.01.564 8.031.282 2.025.282.64.282 2.615.564 9.844.282.313.281-.974.564 3.947.282-3.93.282-12.338.564-39.028L438.97 38.87l.282-12.09.282-6.524.282-.541.282 6.172 2.537 98.726 1.128 56.51.564 26.558.846 16.456.282 3.051.282-.882.282-1.295.282 1.337.564 4.52.282 1.513.564 5.92.846 9.493.282.753.282-1.631.282-4.914.282-11.182.281-20.302.846-96.528.564-59.566.282-17.134.282-9.817.282-5.933.282-2.594.282 1.082.282 3.476.282 5.17.282 8.597 2.538 112.78.564 26.9 1.127 34.656.282 2.57.282.051.282-.092.282 1.722 1.128 13.029.564 11.258 1.128 12.992.282.878.282-2.527.282-8.494.282-16.352.564-55.996.845-97.839.282-18.74.282-11.162.282-5.848.564-5.783.282-.027.282 3.86.564 14.015.564 21.603.846 38.452 2.538 88.879 1.127 24.224.846 8.546.564 2.425 1.692 14.04.282-1.312.282-5.987.282-12.254.282-20.42 1.41-142.435.282-12.838.282-7.25.281-1.574.282.068.282-3.101.282-4.579.282.438.846 22.598.282 9.932 1.128 54.742 1.692 59.18.564 12.763.564 8.645.564 13.543 1.127 18.488.282 1.553.282.922.846 7.425.564 3.68.282-.74.282-6.479.282-13.129.282-22.384 1.128-136.032.564-29.69.282-4.748.282.679.564 4.258.282 4.38.845 24.046.564 22.377.846 37.084.846 27.79.564 12.322.846 26.01.846 20.244.282 2.466.282.58.282-.565.564-4.24.282.763.281 4.757.846 19.776.564 8.739.282.328.282-8.454.282-20.086 1.41-146.41.282-13.466.564-10.302.282-3.005.282-.525.282 1.324.282 2.946.282 6.375 2.82 96.91 1.691 43.862.846 13.856.564 9.381.564 7.433.846 10.824.564 6.71.563 2.698.282-.36.282-6.377.282-15.765.564-57.858.564-66.815.282-20.563.282-9.745.846-17.006.282-1.343.564 2.295.282 2.12.282 6.143 1.974 59.024.845 23.647 1.692 47.313.564 8.367.846 9.753.846 12.74 1.41 28.074.282 1.378.282-4.89.282-11.82.282-20.46 1.127-122.976.282-13.014.846-21.487.282-2.86.282 1.693.564 5.661.282 6.458 2.256 69.479.846 19.532 1.127 22.77 1.128 18.786.564 14.392.564 6.478.846 11.237.282.82.282 1.325.282 3.214.282 1.784.282-4.263.282-11.595.282-18.831 1.128-107.841.563-21.26.564-12.218.282-2.958.282-.706.282 2.738.846 19.483 2.256 63.623.846 17.691.564 7.617 1.691 30.688 1.974 19.818.846 9.636.282 2.078.282-4.39.282-15.08 1.41-121.833.282-11.054.564-11.138.563-6.883.282.973.282 6.104.846 26.416.564 15.339 1.41 45.152.846 18.356.846 12.35.564 5.445.282 1.604.282.444.282.231.282 1.708.563 5.345.282 1.245.282 1.924 1.128 11.338.282 2.156.282-2.422.282-9.005.564-37.462.564-44.288.564-24.92.564-16.206.282-4.2.282-2.38.282-1.13.282 1.277.282 4.032.564 13.181.845 21.55.564 14.813.564 20.269.564 9.35.564 12.41.282 5.643.282 1.884.282.102.282 1.26 3.101 26.437.564 4.908.282 1.21.282-.663.282-6.079.282-15.093.846-58.247.846-34.24.564-15.59.282-4.91.282-.434.564 6.688.564 9.712 2.82 62.828 1.127 21.99.282 1.527.846 7.938.564-3 .282.653.564 3.674.282 2.86.846 13.27.282 2.899.282 1.693.282-1.344.281-6.316.282-12.954 1.128-69.19.846-28.787.282-5.331.282-1.38.282 2.154.564 5.884.282 2.888 1.41 27.531.564 14.968 1.128 19.79.563 6.052.282 3.27 1.974 14.046.564 4.246.282 1.9.282 3.877.564 12.211.282 2.566.282.551.564 3.82.282-3.624.282-12.386 1.127-66.76.564-19.325.564-14.817.282-4.183.282-.454.564 2.935.282 3.358.846 18.207 1.128 26.32.564 9.181.282 2.162.282-.205.282-.677.282-.219.282-.058.282.132.281 2.06 1.128 17.52.846 6.502.282-.28.282 1.282.564 8.131.846 7.192.282-.029.282-6 .564-24.57.846-41.244.282-7.394.564-8.756.282-5.66.281-1.43.846 11.437.282 2.048.282 4.569.846 17.614 1.692 28.147.564 5.903.282 3.03.282 1.535.282.072.282.54.846 6.154.282.325.281 1.349.564 5.048.282 1.829.846 6.99.282.175.564 2.514.282-2.582.282-9.496.846-42.263.846-27.923.846-13.674.282-1.589.846 5.483.281 2.796 1.128 25.016.564 11.526.564 7.76.564 7.625.282 1.532.846 6.213.282.95.564 3.218.282.653.282 1.196.564 7.933.282 1.595.282-.267.282 1.968.563 6.885.282 1.217.564 6.59.282-1.058.282-8.819 1.974-83 .564-9.143.282-4.205.282-.145.282 6.927.282 10.346.282 6.199.282 2.7.282 4.069.564 12.71.282 2.561.281 1.408.564 8.048.564 9.326.282 2.212.282.75.564 5.635.282 3.156.846 3.362.282 1.871.282.635.564 3.694.282 3.08.282 1.202.564 3.694.282 4.416.564 5.49.563-6.412h0" clip-path="url(#p6848842469)" style="fill:none;stroke:#1f77b4;stroke-width:1.5;stroke-linecap:square"/><path id="patch_3" d="M71.308 266.112V0" style="fill:none;stroke:gray;stroke-width:.8;stroke-linejoin:miter;stroke-linecap:square"/><path id="patch_4" d="M685.107 266.112V0" style="fill:none;stroke:#000;stroke-width:.8;stroke-linejoin:miter;stroke-linecap:square"/><path id="patch_5" d="M71.308 266.112h613.8" style="fill:none;stroke:gray;stroke-width:.8;stroke-linejoin:miter;stroke-linecap:square"/><path id="patch_6" d="M71.308 0h613.8" style="fill:none;stroke:#000;stroke-width:.8;stroke-linejoin:miter;stroke-linecap:square"/></g></g><defs><clipPath id="p6848842469"><path d="M71.308 0h613.8v266.112h-613.8z"/></clipPath></defs></svg>