<?xml version="1.0" encoding="utf-8" standalone="no"?>
<!DOCTYPE svg PUBLIC "-//W3C//DTD SVG 1.1//EN"
  "http://www.w3.org/Graphics/SVG/1.1/DTD/svg11.dtd">
<svg xmlns:xlink="http://www.w3.org/1999/xlink" width="660.992188pt" height="286.305501pt" viewBox="0 0 660.992188 286.305501" xmlns="http://www.w3.org/2000/svg" version="1.1">
 <metadata>
  <rdf:RDF xmlns:dc="http://purl.org/dc/elements/1.1/" xmlns:cc="http://creativecommons.org/ns#" xmlns:rdf="http://www.w3.org/1999/02/22-rdf-syntax-ns#">
   <cc:Work>
    <dc:type rdf:resource="http://purl.org/dc/dcmitype/StillImage"/>
    <dc:date>2023-03-06T19:23:11.368968</dc:date>
    <dc:format>image/svg+xml</dc:format>
    <dc:creator>
     <cc:Agent>
      <dc:title>Matplotlib v3.6.3, https://matplotlib.org/</dc:title>
     </cc:Agent>
    </dc:creator>
   </cc:Work>
  </rdf:RDF>
 </metadata>
 <defs>
  <style type="text/css">*{stroke-linejoin: round; stroke-linecap: butt}</style>
 </defs>
 <g id="figure_1">
  <g id="patch_1">
   <path d="M -0 286.305501 
L 660.992188 286.305501 
L 660.992188 0 
L -0 0 
L -0 286.305501 
z
" style="fill: none"/>
  </g>
  <g id="axes_1">
   <g id="patch_2">
    <path d="M 47.192188 269.627376 
L 660.992188 269.627376 
L 660.992188 3.515376 
L 47.192188 3.515376 
L 47.192188 269.627376 
z
" style="fill: none"/>
   </g>
   <g id="matplotlib.axis_1">
    <g id="xtick_1">
     <g id="line2d_1">
      <defs>
       <path id="m353ddba90a" d="M 0 0 
L 0 3.5 
" style="stroke: #000000; stroke-width: 0.8"/>
      </defs>
      <g>
       <use xlink:href="#m353ddba90a" x="75.092188" y="269.627376" style="stroke: #000000; stroke-width: 0.8"/>
      </g>
     </g>
     <g id="text_1">
      <!-- 0 -->
      <g transform="translate(71.910938 284.225814) scale(0.1 -0.1)">
       <defs>
        <path id="DejaVuSans-30" d="M 2034 4250 
Q 1547 4250 1301 3770 
Q 1056 3291 1056 2328 
Q 1056 1369 1301 889 
Q 1547 409 2034 409 
Q 2525 409 2770 889 
Q 3016 1369 3016 2328 
Q 3016 3291 2770 3770 
Q 2525 4250 2034 4250 
z
M 2034 4750 
Q 2819 4750 3233 4129 
Q 3647 3509 3647 2328 
Q 3647 1150 3233 529 
Q 2819 -91 2034 -91 
Q 1250 -91 836 529 
Q 422 1150 422 2328 
Q 422 3509 836 4129 
Q 1250 4750 2034 4750 
z
" transform="scale(0.015625)"/>
       </defs>
       <use xlink:href="#DejaVuSans-30"/>
      </g>
     </g>
    </g>
    <g id="xtick_2">
     <g id="line2d_2">
      <g>
       <use xlink:href="#m353ddba90a" x="144.842188" y="269.627376" style="stroke: #000000; stroke-width: 0.8"/>
      </g>
     </g>
     <g id="text_2">
      <!-- 500 -->
      <g transform="translate(135.298438 284.225814) scale(0.1 -0.1)">
       <defs>
        <path id="DejaVuSans-35" d="M 691 4666 
L 3169 4666 
L 3169 4134 
L 1269 4134 
L 1269 2991 
Q 1406 3038 1543 3061 
Q 1681 3084 1819 3084 
Q 2600 3084 3056 2656 
Q 3513 2228 3513 1497 
Q 3513 744 3044 326 
Q 2575 -91 1722 -91 
Q 1428 -91 1123 -41 
Q 819 9 494 109 
L 494 744 
Q 775 591 1075 516 
Q 1375 441 1709 441 
Q 2250 441 2565 725 
Q 2881 1009 2881 1497 
Q 2881 1984 2565 2268 
Q 2250 2553 1709 2553 
Q 1456 2553 1204 2497 
Q 953 2441 691 2322 
L 691 4666 
z
" transform="scale(0.015625)"/>
       </defs>
       <use xlink:href="#DejaVuSans-35"/>
       <use xlink:href="#DejaVuSans-30" x="63.623047"/>
       <use xlink:href="#DejaVuSans-30" x="127.246094"/>
      </g>
     </g>
    </g>
    <g id="xtick_3">
     <g id="line2d_3">
      <g>
       <use xlink:href="#m353ddba90a" x="214.592188" y="269.627376" style="stroke: #000000; stroke-width: 0.8"/>
      </g>
     </g>
     <g id="text_3">
      <!-- 1000 -->
      <g transform="translate(201.867188 284.225814) scale(0.1 -0.1)">
       <defs>
        <path id="DejaVuSans-31" d="M 794 531 
L 1825 531 
L 1825 4091 
L 703 3866 
L 703 4441 
L 1819 4666 
L 2450 4666 
L 2450 531 
L 3481 531 
L 3481 0 
L 794 0 
L 794 531 
z
" transform="scale(0.015625)"/>
       </defs>
       <use xlink:href="#DejaVuSans-31"/>
       <use xlink:href="#DejaVuSans-30" x="63.623047"/>
       <use xlink:href="#DejaVuSans-30" x="127.246094"/>
       <use xlink:href="#DejaVuSans-30" x="190.869141"/>
      </g>
     </g>
    </g>
    <g id="xtick_4">
     <g id="line2d_4">
      <g>
       <use xlink:href="#m353ddba90a" x="284.342188" y="269.627376" style="stroke: #000000; stroke-width: 0.8"/>
      </g>
     </g>
     <g id="text_4">
      <!-- 1500 -->
      <g transform="translate(271.617188 284.225814) scale(0.1 -0.1)">
       <use xlink:href="#DejaVuSans-31"/>
       <use xlink:href="#DejaVuSans-35" x="63.623047"/>
       <use xlink:href="#DejaVuSans-30" x="127.246094"/>
       <use xlink:href="#DejaVuSans-30" x="190.869141"/>
      </g>
     </g>
    </g>
    <g id="xtick_5">
     <g id="line2d_5">
      <g>
       <use xlink:href="#m353ddba90a" x="354.092188" y="269.627376" style="stroke: #000000; stroke-width: 0.8"/>
      </g>
     </g>
     <g id="text_5">
      <!-- 2000 -->
      <g transform="translate(341.367188 284.225814) scale(0.1 -0.1)">
       <defs>
        <path id="DejaVuSans-32" d="M 1228 531 
L 3431 531 
L 3431 0 
L 469 0 
L 469 531 
Q 828 903 1448 1529 
Q 2069 2156 2228 2338 
Q 2531 2678 2651 2914 
Q 2772 3150 2772 3378 
Q 2772 3750 2511 3984 
Q 2250 4219 1831 4219 
Q 1534 4219 1204 4116 
Q 875 4013 500 3803 
L 500 4441 
Q 881 4594 1212 4672 
Q 1544 4750 1819 4750 
Q 2544 4750 2975 4387 
Q 3406 4025 3406 3419 
Q 3406 3131 3298 2873 
Q 3191 2616 2906 2266 
Q 2828 2175 2409 1742 
Q 1991 1309 1228 531 
z
" transform="scale(0.015625)"/>
       </defs>
       <use xlink:href="#DejaVuSans-32"/>
       <use xlink:href="#DejaVuSans-30" x="63.623047"/>
       <use xlink:href="#DejaVuSans-30" x="127.246094"/>
       <use xlink:href="#DejaVuSans-30" x="190.869141"/>
      </g>
     </g>
    </g>
    <g id="xtick_6">
     <g id="line2d_6">
      <g>
       <use xlink:href="#m353ddba90a" x="423.842188" y="269.627376" style="stroke: #000000; stroke-width: 0.8"/>
      </g>
     </g>
     <g id="text_6">
      <!-- 2500 -->
      <g transform="translate(411.117188 284.225814) scale(0.1 -0.1)">
       <use xlink:href="#DejaVuSans-32"/>
       <use xlink:href="#DejaVuSans-35" x="63.623047"/>
       <use xlink:href="#DejaVuSans-30" x="127.246094"/>
       <use xlink:href="#DejaVuSans-30" x="190.869141"/>
      </g>
     </g>
    </g>
    <g id="xtick_7">
     <g id="line2d_7">
      <g>
       <use xlink:href="#m353ddba90a" x="493.592188" y="269.627376" style="stroke: #000000; stroke-width: 0.8"/>
      </g>
     </g>
     <g id="text_7">
      <!-- 3000 -->
      <g transform="translate(480.867188 284.225814) scale(0.1 -0.1)">
       <defs>
        <path id="DejaVuSans-33" d="M 2597 2516 
Q 3050 2419 3304 2112 
Q 3559 1806 3559 1356 
Q 3559 666 3084 287 
Q 2609 -91 1734 -91 
Q 1441 -91 1130 -33 
Q 819 25 488 141 
L 488 750 
Q 750 597 1062 519 
Q 1375 441 1716 441 
Q 2309 441 2620 675 
Q 2931 909 2931 1356 
Q 2931 1769 2642 2001 
Q 2353 2234 1838 2234 
L 1294 2234 
L 1294 2753 
L 1863 2753 
Q 2328 2753 2575 2939 
Q 2822 3125 2822 3475 
Q 2822 3834 2567 4026 
Q 2313 4219 1838 4219 
Q 1578 4219 1281 4162 
Q 984 4106 628 3988 
L 628 4550 
Q 988 4650 1302 4700 
Q 1616 4750 1894 4750 
Q 2613 4750 3031 4423 
Q 3450 4097 3450 3541 
Q 3450 3153 3228 2886 
Q 3006 2619 2597 2516 
z
" transform="scale(0.015625)"/>
       </defs>
       <use xlink:href="#DejaVuSans-33"/>
       <use xlink:href="#DejaVuSans-30" x="63.623047"/>
       <use xlink:href="#DejaVuSans-30" x="127.246094"/>
       <use xlink:href="#DejaVuSans-30" x="190.869141"/>
      </g>
     </g>
    </g>
    <g id="xtick_8">
     <g id="line2d_8">
      <g>
       <use xlink:href="#m353ddba90a" x="563.342188" y="269.627376" style="stroke: #000000; stroke-width: 0.8"/>
      </g>
     </g>
     <g id="text_8">
      <!-- 3500 -->
      <g transform="translate(550.617188 284.225814) scale(0.1 -0.1)">
       <use xlink:href="#DejaVuSans-33"/>
       <use xlink:href="#DejaVuSans-35" x="63.623047"/>
       <use xlink:href="#DejaVuSans-30" x="127.246094"/>
       <use xlink:href="#DejaVuSans-30" x="190.869141"/>
      </g>
     </g>
    </g>
    <g id="xtick_9">
     <g id="line2d_9">
      <g>
       <use xlink:href="#m353ddba90a" x="633.092188" y="269.627376" style="stroke: #000000; stroke-width: 0.8"/>
      </g>
     </g>
     <g id="text_9">
      <!-- 4000 -->
      <g transform="translate(620.367188 284.225814) scale(0.1 -0.1)">
       <defs>
        <path id="DejaVuSans-34" d="M 2419 4116 
L 825 1625 
L 2419 1625 
L 2419 4116 
z
M 2253 4666 
L 3047 4666 
L 3047 1625 
L 3713 1625 
L 3713 1100 
L 3047 1100 
L 3047 0 
L 2419 0 
L 2419 1100 
L 313 1100 
L 313 1709 
L 2253 4666 
z
" transform="scale(0.015625)"/>
       </defs>
       <use xlink:href="#DejaVuSans-34"/>
       <use xlink:href="#DejaVuSans-30" x="63.623047"/>
       <use xlink:href="#DejaVuSans-30" x="127.246094"/>
       <use xlink:href="#DejaVuSans-30" x="190.869141"/>
      </g>
     </g>
    </g>
   </g>
   <g id="matplotlib.axis_2">
    <g id="ytick_1">
     <g id="line2d_10">
      <defs>
       <path id="mdfb45fa30f" d="M 0 0 
L -3.5 0 
" style="stroke: #000000; stroke-width: 0.8"/>
      </defs>
      <g>
       <use xlink:href="#mdfb45fa30f" x="47.192188" y="247.586535" style="stroke: #000000; stroke-width: 0.8"/>
      </g>
     </g>
     <g id="text_10">
      <!-- −20000 -->
      <g transform="translate(0 251.385754) scale(0.1 -0.1)">
       <defs>
        <path id="DejaVuSans-2212" d="M 678 2272 
L 4684 2272 
L 4684 1741 
L 678 1741 
L 678 2272 
z
" transform="scale(0.015625)"/>
       </defs>
       <use xlink:href="#DejaVuSans-2212"/>
       <use xlink:href="#DejaVuSans-32" x="83.789062"/>
       <use xlink:href="#DejaVuSans-30" x="147.412109"/>
       <use xlink:href="#DejaVuSans-30" x="211.035156"/>
       <use xlink:href="#DejaVuSans-30" x="274.658203"/>
       <use xlink:href="#DejaVuSans-30" x="338.28125"/>
      </g>
     </g>
    </g>
    <g id="ytick_2">
     <g id="line2d_11">
      <g>
       <use xlink:href="#mdfb45fa30f" x="47.192188" y="206.955316" style="stroke: #000000; stroke-width: 0.8"/>
      </g>
     </g>
     <g id="text_11">
      <!-- −10000 -->
      <g transform="translate(0 210.754535) scale(0.1 -0.1)">
       <use xlink:href="#DejaVuSans-2212"/>
       <use xlink:href="#DejaVuSans-31" x="83.789062"/>
       <use xlink:href="#DejaVuSans-30" x="147.412109"/>
       <use xlink:href="#DejaVuSans-30" x="211.035156"/>
       <use xlink:href="#DejaVuSans-30" x="274.658203"/>
       <use xlink:href="#DejaVuSans-30" x="338.28125"/>
      </g>
     </g>
    </g>
    <g id="ytick_3">
     <g id="line2d_12">
      <g>
       <use xlink:href="#mdfb45fa30f" x="47.192188" y="166.324097" style="stroke: #000000; stroke-width: 0.8"/>
      </g>
     </g>
     <g id="text_12">
      <!-- 0 -->
      <g transform="translate(33.829688 170.123315) scale(0.1 -0.1)">
       <use xlink:href="#DejaVuSans-30"/>
      </g>
     </g>
    </g>
    <g id="ytick_4">
     <g id="line2d_13">
      <g>
       <use xlink:href="#mdfb45fa30f" x="47.192188" y="125.692877" style="stroke: #000000; stroke-width: 0.8"/>
      </g>
     </g>
     <g id="text_13">
      <!-- 10000 -->
      <g transform="translate(8.379688 129.492096) scale(0.1 -0.1)">
       <use xlink:href="#DejaVuSans-31"/>
       <use xlink:href="#DejaVuSans-30" x="63.623047"/>
       <use xlink:href="#DejaVuSans-30" x="127.246094"/>
       <use xlink:href="#DejaVuSans-30" x="190.869141"/>
       <use xlink:href="#DejaVuSans-30" x="254.492188"/>
      </g>
     </g>
    </g>
    <g id="ytick_5">
     <g id="line2d_14">
      <g>
       <use xlink:href="#mdfb45fa30f" x="47.192188" y="85.061658" style="stroke: #000000; stroke-width: 0.8"/>
      </g>
     </g>
     <g id="text_14">
      <!-- 20000 -->
      <g transform="translate(8.379688 88.860876) scale(0.1 -0.1)">
       <use xlink:href="#DejaVuSans-32"/>
       <use xlink:href="#DejaVuSans-30" x="63.623047"/>
       <use xlink:href="#DejaVuSans-30" x="127.246094"/>
       <use xlink:href="#DejaVuSans-30" x="190.869141"/>
       <use xlink:href="#DejaVuSans-30" x="254.492188"/>
      </g>
     </g>
    </g>
    <g id="ytick_6">
     <g id="line2d_15">
      <g>
       <use xlink:href="#mdfb45fa30f" x="47.192188" y="44.430438" style="stroke: #000000; stroke-width: 0.8"/>
      </g>
     </g>
     <g id="text_15">
      <!-- 30000 -->
      <g transform="translate(8.379688 48.229657) scale(0.1 -0.1)">
       <use xlink:href="#DejaVuSans-33"/>
       <use xlink:href="#DejaVuSans-30" x="63.623047"/>
       <use xlink:href="#DejaVuSans-30" x="127.246094"/>
       <use xlink:href="#DejaVuSans-30" x="190.869141"/>
       <use xlink:href="#DejaVuSans-30" x="254.492188"/>
      </g>
     </g>
    </g>
    <g id="ytick_7">
     <g id="line2d_16">
      <g>
       <use xlink:href="#mdfb45fa30f" x="47.192188" y="3.799219" style="stroke: #000000; stroke-width: 0.8"/>
      </g>
     </g>
     <g id="text_16">
      <!-- 40000 -->
      <g transform="translate(8.379688 7.598437) scale(0.1 -0.1)">
       <use xlink:href="#DejaVuSans-34"/>
       <use xlink:href="#DejaVuSans-30" x="63.623047"/>
       <use xlink:href="#DejaVuSans-30" x="127.246094"/>
       <use xlink:href="#DejaVuSans-30" x="190.869141"/>
       <use xlink:href="#DejaVuSans-30" x="254.492188"/>
      </g>
     </g>
    </g>
   </g>
   <g id="line2d_17">
    <path d="M 75.092188 166.223316 
L 75.374148 166.426425 
L 75.656109 166.220126 
L 75.938069 166.429805 
L 76.22003 166.216553 
L 76.50199 166.433577 
L 76.783951 166.212575 
L 77.065912 166.43777 
L 77.347872 166.208157 
L 77.629833 166.442423 
L 77.911793 166.203255 
L 78.193754 166.447589 
L 78.475715 166.197808 
L 78.757675 166.453336 
L 79.039636 166.191741 
L 79.321596 166.459747 
L 79.603557 166.184958 
L 79.885517 166.46693 
L 80.167478 166.177342 
L 80.449439 166.475018 
L 80.731399 166.168741 
L 81.01336 166.484179 
L 81.29532 166.158966 
L 81.577281 166.494631 
L 81.859242 166.147768 
L 82.141202 166.506655 
L 82.423163 166.134824 
L 82.705123 166.520625 
L 82.987084 166.119704 
L 83.269044 166.537042 
L 83.551005 166.101817 
L 83.832966 166.556602 
L 84.114926 166.08034 
L 84.396887 166.58029 
L 84.678847 166.054084 
L 84.960808 166.609553 
L 85.242769 166.021268 
L 85.524729 166.646609 
L 85.80669 165.979097 
L 86.08865 166.695028 
L 86.370611 165.922932 
L 86.652572 166.760957 
L 86.934532 165.844457 
L 87.216493 166.855934 
L 87.498453 165.727165 
L 87.780414 167.004449 
L 88.062374 165.533042 
L 88.344335 167.26901 
L 88.626296 165.151144 
L 88.908256 167.86884 
L 89.190217 164.07061 
L 89.472177 170.415366 
L 89.754138 133.569149 
L 90.036099 119.829335 
L 90.318059 134.829186 
L 90.60002 136.824937 
L 91.727862 172.905596 
L 92.573744 192.273516 
L 92.855704 195.238753 
L 93.419626 206.779295 
L 93.701586 208.970026 
L 94.265507 200.366772 
L 94.547468 200.060775 
L 94.829429 201.662425 
L 95.67531 194.573993 
L 95.957271 194.964234 
L 96.239231 195.544443 
L 96.521192 197.510339 
L 96.803153 198.607564 
L 97.367074 201.747094 
L 97.930995 210.603918 
L 98.494916 221.533989 
L 98.776877 221.675458 
L 99.340798 215.191521 
L 99.622758 214.493864 
L 99.904719 214.496054 
L 100.18668 213.193152 
L 100.46864 213.396938 
L 101.032561 215.399332 
L 101.314522 214.406218 
L 101.596483 214.535967 
L 102.442364 218.208139 
L 102.724325 221.272405 
L 103.570207 239.13916 
L 103.852167 241.076312 
L 104.134128 238.513247 
L 104.416088 228.436065 
L 104.698049 206.417969 
L 106.107852 46.562199 
L 106.389813 28.752551 
L 106.671773 19.763181 
L 106.953734 19.344991 
L 107.235694 25.864839 
L 107.799615 47.122984 
L 108.363537 80.406992 
L 109.491379 163.430103 
L 110.0553 178.92554 
L 110.337261 183.209852 
L 110.619221 185.601652 
L 110.901182 185.348218 
L 111.747064 181.744672 
L 112.310985 180.434015 
L 112.592945 178.716208 
L 113.156867 172.978493 
L 113.720788 167.023654 
L 114.002748 166.394013 
L 115.694512 171.874805 
L 115.976472 171.451213 
L 116.258433 171.959544 
L 116.822354 175.420311 
L 117.104315 177.420261 
L 117.668236 182.666529 
L 118.232157 185.537985 
L 118.796078 192.627089 
L 119.078039 193.484688 
L 119.36 192.910489 
L 120.205881 193.877312 
L 120.487842 194.471389 
L 121.615684 200.467587 
L 122.179605 204.523296 
L 122.461566 206.405452 
L 123.307448 213.646193 
L 123.871369 218.954321 
L 124.153329 221.892717 
L 124.43529 223.500794 
L 124.717251 223.262777 
L 124.999211 218.729407 
L 125.281172 206.952244 
L 125.845093 158.126545 
L 126.690975 77.627117 
L 127.254896 45.62602 
L 127.536857 37.528283 
L 127.818817 36.178347 
L 128.100778 40.165605 
L 128.382738 47.107352 
L 128.946659 70.786096 
L 129.792541 131.03703 
L 130.356462 164.897597 
L 130.638423 174.093188 
L 130.920384 179.558717 
L 131.766265 187.160488 
L 132.048226 189.036925 
L 132.330186 187.296617 
L 132.894108 178.922475 
L 133.176068 177.895167 
L 133.458029 176.366794 
L 134.02195 169.498876 
L 134.303911 170.049362 
L 134.867832 175.047822 
L 135.149792 175.380569 
L 135.431753 175.480668 
L 135.995674 176.560705 
L 136.277635 176.714205 
L 136.559595 177.661984 
L 137.123516 181.199441 
L 137.405477 181.507316 
L 137.687438 182.31326 
L 138.251359 185.789693 
L 138.533319 185.374947 
L 138.81528 185.39257 
L 139.379201 188.176393 
L 139.661162 187.56973 
L 139.943122 187.28884 
L 140.507043 189.387154 
L 140.789004 189.336949 
L 141.070965 189.471153 
L 141.634886 190.309671 
L 141.916846 190.717103 
L 143.044689 196.785977 
L 143.890571 206.26961 
L 144.454492 211.195816 
L 145.300373 222.557187 
L 146.146255 234.143226 
L 146.428216 234.575921 
L 146.710176 227.675963 
L 146.992137 209.618266 
L 147.556058 148.841286 
L 148.40194 53.525525 
L 148.6839 33.756325 
L 148.965861 23.584591 
L 149.247822 20.267725 
L 149.529782 21.357791 
L 149.811743 26.217745 
L 150.375664 46.855414 
L 150.939585 75.38473 
L 152.349388 164.586676 
L 152.913309 180.135695 
L 153.19527 184.67539 
L 153.47723 186.574004 
L 154.041152 184.966197 
L 154.323112 185.702493 
L 154.605073 187.09481 
L 154.887033 186.138602 
L 155.450955 179.714809 
L 155.732915 179.604199 
L 156.014876 181.086316 
L 156.296836 181.763551 
L 156.578797 181.115818 
L 156.860757 181.164291 
L 157.424679 185.677349 
L 157.706639 186.211101 
L 158.27056 183.684598 
L 158.552521 184.727632 
L 158.834482 186.705128 
L 159.116442 187.740221 
L 159.398403 186.97675 
L 159.962324 183.712509 
L 160.244285 183.476911 
L 160.526245 183.76789 
L 160.808206 183.640588 
L 161.090166 183.650054 
L 161.372127 185.399606 
L 161.936048 190.168894 
L 162.218009 190.894021 
L 162.499969 192.086355 
L 164.191733 205.531677 
L 164.755654 210.087099 
L 165.037614 210.970692 
L 165.319575 212.32997 
L 166.447417 226.182207 
L 167.293299 246.167725 
L 167.57526 241.459968 
L 167.85722 225.989914 
L 168.421142 169.670232 
L 169.548984 46.146374 
L 169.830944 32.060634 
L 170.112905 27.024188 
L 170.394866 26.091218 
L 170.676826 25.829209 
L 170.958787 27.140889 
L 171.240747 32.431562 
L 171.804669 54.17634 
L 172.36859 86.783017 
L 173.214471 150.504953 
L 173.778393 174.71878 
L 174.060353 180.835604 
L 175.188196 190.930744 
L 175.470156 190.84508 
L 176.034077 188.479431 
L 176.597999 186.463411 
L 177.16192 183.780316 
L 178.007801 178.181853 
L 178.289762 177.43758 
L 178.571723 177.137302 
L 178.853683 177.055453 
L 179.135644 177.625233 
L 179.699565 181.241671 
L 179.981526 181.838215 
L 180.263486 180.610319 
L 181.109368 173.853951 
L 181.391328 174.964231 
L 181.673289 177.779781 
L 181.95525 179.035027 
L 182.519171 176.733124 
L 183.083092 178.815371 
L 183.365053 177.222998 
L 183.647013 174.130123 
L 183.928974 172.910652 
L 184.210934 174.497972 
L 184.774856 179.352001 
L 185.338777 182.529512 
L 185.902698 184.62222 
L 186.184658 187.153444 
L 186.74858 194.820075 
L 187.876422 204.352563 
L 188.158383 205.078641 
L 188.440343 205.393599 
L 188.722304 207.485823 
L 189.568185 220.840515 
L 191.259949 250.178724 
L 191.54191 251.251785 
L 191.82387 246.4429 
L 192.105831 231.930061 
L 192.669752 168.012823 
L 193.515634 61.492329 
L 193.797594 41.455561 
L 194.079555 29.685106 
L 194.361515 23.583103 
L 194.643476 20.621919 
L 194.925437 19.743865 
L 195.207397 21.102164 
L 195.489358 24.583693 
L 195.771318 30.190411 
L 196.053279 38.552649 
L 196.6172 64.764338 
L 197.181121 103.438204 
L 197.745042 150.014653 
L 198.308964 176.178289 
L 198.590924 182.954559 
L 198.872885 186.887184 
L 199.154845 187.727775 
L 199.436806 187.201334 
L 200.000727 187.524947 
L 200.564648 186.315156 
L 200.846609 187.768616 
L 201.41053 193.394683 
L 201.692491 193.612473 
L 201.974451 192.740307 
L 202.538372 193.060577 
L 202.820333 189.992586 
L 203.384254 180.610884 
L 203.666215 181.017831 
L 203.948175 181.93043 
L 204.230136 181.474055 
L 204.512097 181.635426 
L 204.794057 182.55953 
L 205.076018 181.44538 
L 205.357978 178.686361 
L 205.639939 177.445532 
L 205.921899 177.651187 
L 206.485821 176.38117 
L 206.767781 178.640838 
L 207.049742 181.945832 
L 207.331702 182.561431 
L 208.741505 174.217109 
L 209.587387 180.28481 
L 209.869348 180.392145 
L 210.433269 183.556021 
L 210.715229 183.577877 
L 210.99719 182.064375 
L 211.279151 181.69102 
L 211.561111 183.958057 
L 212.688954 198.560031 
L 213.252875 212.531222 
L 214.098756 220.832574 
L 214.662678 229.409828 
L 214.944638 231.766025 
L 215.226599 235.726208 
L 215.79052 246.766878 
L 216.072481 247.352677 
L 216.354441 240.153294 
L 216.636402 222.188854 
L 217.200323 157.686624 
L 218.046205 61.180902 
L 218.328165 43.370163 
L 218.610126 33.396379 
L 218.892086 28.488685 
L 219.174047 26.244905 
L 219.456008 25.130221 
L 219.737968 24.791139 
L 220.019929 27.501034 
L 220.301889 35.879434 
L 220.865811 63.604272 
L 221.429732 100.428522 
L 221.993653 141.20409 
L 222.557574 169.726017 
L 222.839535 179.2007 
L 223.121495 183.952562 
L 223.685416 188.637814 
L 223.967377 189.668646 
L 224.249338 188.167006 
L 224.531298 185.853356 
L 224.813259 184.475919 
L 225.37718 183.290733 
L 225.659141 183.350572 
L 225.941101 183.538587 
L 226.505022 183.342808 
L 227.068943 184.059397 
L 227.632865 184.261617 
L 227.914825 184.348363 
L 228.196786 184.209035 
L 228.478746 184.459683 
L 229.042668 185.540581 
L 229.324628 185.900628 
L 229.606589 186.805905 
L 229.888549 187.257364 
L 230.45247 185.072548 
L 230.734431 185.655501 
L 231.016392 187.063273 
L 231.298352 187.428312 
L 231.580313 187.043878 
L 231.862273 187.388675 
L 232.708155 190.787305 
L 233.835998 198.297927 
L 234.117958 202.377207 
L 235.527761 230.543467 
L 237.219525 254.386845 
L 237.501485 255.586979 
L 237.783446 250.328471 
L 238.065406 233.542804 
L 238.629327 170.721829 
L 239.475209 69.38033 
L 240.03913 36.40988 
L 240.603052 18.319053 
L 240.885012 15.977101 
L 241.166973 17.934415 
L 241.448933 21.59292 
L 241.730894 27.154727 
L 242.294815 46.730849 
L 242.858736 73.85059 
L 244.5505 179.747262 
L 245.114421 191.633231 
L 245.678342 197.591271 
L 246.242263 201.491804 
L 246.524224 201.331043 
L 247.088145 197.31322 
L 248.215987 188.321856 
L 248.497948 189.28255 
L 248.779909 189.806579 
L 249.34383 187.597723 
L 249.62579 187.691395 
L 249.907751 188.074692 
L 250.189712 186.983182 
L 250.471672 185.020489 
L 250.753633 184.184609 
L 251.035593 184.443116 
L 251.317554 184.026876 
L 251.599514 182.966165 
L 251.881475 182.878567 
L 252.163436 183.778985 
L 252.445396 184.232672 
L 252.727357 184.418711 
L 253.009317 185.651072 
L 254.41912 196.528679 
L 255.828923 211.320636 
L 256.392844 225.018844 
L 257.238726 233.778909 
L 257.520687 238.280438 
L 257.802647 239.484195 
L 258.084608 239.319685 
L 258.366569 242.497934 
L 258.648529 247.914755 
L 258.93049 247.561526 
L 259.21245 234.657688 
L 259.776371 177.199776 
L 260.622253 69.771861 
L 261.186174 30.976316 
L 261.468135 22.252805 
L 261.750096 19.293816 
L 262.032056 21.328052 
L 262.595977 29.413466 
L 262.877938 35.255468 
L 263.441859 54.202352 
L 264.00578 81.692262 
L 264.851662 137.511511 
L 265.415583 177.021538 
L 265.697544 186.278356 
L 266.261465 194.579502 
L 266.543425 197.399227 
L 267.107347 199.715039 
L 267.389307 200.310184 
L 267.671268 199.50791 
L 268.79911 191.939998 
L 269.363031 187.249084 
L 269.926953 184.700955 
L 270.490874 183.562723 
L 270.772834 182.233868 
L 271.336755 178.604311 
L 271.618716 178.020701 
L 271.900677 178.206973 
L 272.182637 178.236453 
L 273.028519 176.592973 
L 273.59244 177.713005 
L 273.874401 177.857928 
L 274.156361 177.680338 
L 274.438322 177.917227 
L 275.002243 179.957316 
L 275.284204 180.139571 
L 275.848125 179.304347 
L 276.130085 179.774686 
L 276.412046 181.048087 
L 276.975967 184.864443 
L 277.257928 185.520546 
L 277.539888 184.927176 
L 277.821849 184.818949 
L 278.10381 186.700252 
L 279.513612 203.861909 
L 280.359494 218.056236 
L 280.923415 225.502605 
L 282.333218 255.395178 
L 282.615179 257.531376 
L 282.897139 255.220242 
L 283.1791 246.149132 
L 283.461061 224.872502 
L 284.870864 51.410937 
L 285.152824 34.018576 
L 285.434785 24.755545 
L 285.716745 21.997227 
L 285.998706 21.993958 
L 286.280667 23.311878 
L 286.562627 26.543171 
L 287.126548 36.297487 
L 287.408509 42.563732 
L 287.690469 52.220736 
L 288.536351 98.431443 
L 289.946154 180.403315 
L 290.228115 187.143668 
L 290.792036 193.702489 
L 291.355957 197.418274 
L 291.637918 198.123348 
L 291.919878 197.930565 
L 292.483799 196.555578 
L 292.76576 195.418839 
L 293.329681 191.806447 
L 293.893602 188.678862 
L 294.457524 187.6978 
L 296.149287 182.934923 
L 296.995169 178.853843 
L 297.277129 178.58239 
L 297.55909 178.041794 
L 298.404972 174.524014 
L 298.686932 174.391395 
L 298.968893 174.712614 
L 299.250853 174.733741 
L 299.814775 173.851062 
L 300.378696 174.051231 
L 300.660656 174.321889 
L 300.942617 175.801318 
L 301.224578 178.106444 
L 301.506538 179.41542 
L 301.788499 179.432026 
L 302.070459 179.882613 
L 302.35242 181.115601 
L 302.634381 181.183525 
L 302.916341 179.426106 
L 303.198302 178.439856 
L 303.480262 180.607961 
L 304.044183 187.257955 
L 304.326144 188.336549 
L 304.608105 190.982737 
L 305.453986 207.335082 
L 305.735947 210.182922 
L 306.581829 223.293043 
L 306.863789 224.310673 
L 307.14575 225.964439 
L 307.709671 233.947276 
L 308.837513 254.004194 
L 309.119474 252.843577 
L 309.401435 241.227488 
L 309.683395 215.075499 
L 310.811238 63.220226 
L 311.375159 26.018699 
L 311.657119 18.237127 
L 311.93908 15.611376 
L 312.22104 16.470957 
L 312.503001 20.849587 
L 313.630843 54.996607 
L 314.194765 80.33992 
L 315.322607 144.615876 
L 315.886528 175.88775 
L 316.450449 193.746715 
L 317.01437 200.364516 
L 317.296331 202.499143 
L 317.578292 202.828904 
L 318.424173 198.311539 
L 318.988095 192.613473 
L 319.552016 187.236111 
L 320.397897 183.245496 
L 320.961819 178.363013 
L 321.243779 177.872443 
L 321.52574 178.488242 
L 321.8077 178.5003 
L 322.089661 177.95244 
L 322.371622 177.943927 
L 322.653582 178.223222 
L 322.935543 178.160605 
L 323.217503 178.240421 
L 323.781424 179.314939 
L 324.063385 179.353503 
L 324.345346 179.988488 
L 324.909267 182.44472 
L 325.191227 182.890072 
L 325.473188 183.891742 
L 326.037109 187.142583 
L 326.31907 188.420199 
L 327.446912 197.012154 
L 328.010833 204.854146 
L 329.138676 221.032268 
L 329.702597 226.185917 
L 330.266518 235.124533 
L 331.1124 248.318633 
L 331.39436 249.284122 
L 331.676321 243.723956 
L 331.958281 227.727211 
L 332.522203 161.457572 
L 333.086124 86.180175 
L 333.650045 42.561118 
L 333.932006 32.871311 
L 334.213966 29.732048 
L 334.495927 30.294511 
L 335.059848 33.622098 
L 335.341809 37.40102 
L 335.90573 48.867106 
L 336.469651 66.216588 
L 337.033572 94.407597 
L 338.161414 160.639919 
L 338.725336 180.051128 
L 339.289257 192.734853 
L 339.571217 195.956518 
L 339.853178 196.397087 
L 340.98102 190.392594 
L 341.262981 189.748453 
L 341.544941 190.036036 
L 341.826902 189.807579 
L 342.390823 186.424788 
L 342.672784 185.653579 
L 342.954744 184.52829 
L 343.518666 181.090962 
L 343.800626 181.267518 
L 344.082587 181.152039 
L 344.364547 180.063571 
L 344.646508 179.446345 
L 344.928468 179.409664 
L 345.49239 177.88966 
L 345.77435 179.819348 
L 346.056311 183.178427 
L 346.338271 184.25359 
L 347.184153 179.735939 
L 347.748074 177.626937 
L 348.311995 176.874427 
L 348.875917 175.490726 
L 349.157877 175.79465 
L 349.439838 176.277828 
L 350.003759 176.446383 
L 350.28572 176.464221 
L 350.56768 176.767539 
L 350.849641 177.874764 
L 351.413562 180.581815 
L 351.695523 181.240932 
L 351.977483 182.575333 
L 352.823365 190.174085 
L 354.233168 206.957025 
L 355.36101 223.709478 
L 355.924931 230.861443 
L 356.770813 245.878388 
L 357.334734 256.684467 
L 357.616695 255.228801 
L 357.898655 243.418474 
L 358.180616 218.624094 
L 359.590419 36.1928 
L 359.87238 23.193782 
L 360.15434 16.168993 
L 360.436301 16.052611 
L 360.718261 19.217576 
L 361.000222 21.032632 
L 361.282182 23.875655 
L 361.564143 32.7362 
L 362.128064 55.692943 
L 362.410025 63.216933 
L 362.691985 73.729189 
L 364.665709 179.869378 
L 365.229631 194.244243 
L 365.511591 196.935089 
L 365.793552 198.088983 
L 366.075512 198.246247 
L 366.357473 197.71227 
L 366.639434 197.558908 
L 366.921394 198.124596 
L 367.203355 197.555848 
L 368.049237 188.944165 
L 368.613158 186.560924 
L 368.895118 186.25269 
L 369.459039 187.373866 
L 369.741 186.661354 
L 370.304921 184.149701 
L 371.150803 182.071976 
L 371.714724 178.870275 
L 371.996685 178.174027 
L 372.278645 178.571539 
L 372.560606 179.351955 
L 372.842566 180.474616 
L 373.124527 182.929844 
L 373.688448 190.044958 
L 373.970409 191.441401 
L 374.252369 191.636883 
L 374.53433 192.289524 
L 375.662172 198.015272 
L 376.508054 206.771715 
L 377.635896 224.302535 
L 379.045699 246.826941 
L 379.32766 247.830317 
L 379.609621 246.42669 
L 379.891581 242.441993 
L 380.173542 229.147145 
L 380.455502 200.110798 
L 381.301384 87.277007 
L 381.865305 47.611075 
L 382.147266 39.076996 
L 382.429226 35.561909 
L 382.711187 34.472327 
L 382.993148 34.996929 
L 383.275108 37.075089 
L 383.557069 40.461149 
L 384.12099 52.638343 
L 384.966872 79.068178 
L 385.812753 112.400104 
L 387.222556 180.414998 
L 387.504517 190.53325 
L 387.786478 195.957222 
L 388.350399 199.973374 
L 388.632359 200.932361 
L 388.91432 199.907954 
L 389.478241 193.709663 
L 389.760202 192.492904 
L 390.042162 192.718834 
L 390.324123 192.08977 
L 390.606083 190.520146 
L 390.888044 190.254018 
L 391.170005 191.45637 
L 391.451965 191.131693 
L 392.015886 185.622759 
L 392.579808 184.01362 
L 393.143729 181.083307 
L 393.425689 180.688867 
L 393.70765 180.06002 
L 393.98961 179.095595 
L 394.271571 178.881325 
L 394.553532 179.06954 
L 394.835492 177.84158 
L 395.117453 175.407667 
L 395.399413 174.121678 
L 395.963335 175.801561 
L 396.245295 175.437364 
L 396.527256 175.358581 
L 396.809216 177.31893 
L 397.091177 180.094488 
L 397.373137 181.433467 
L 397.655098 181.282606 
L 397.937059 181.465404 
L 398.50098 183.495742 
L 399.064901 184.032449 
L 399.346862 185.20431 
L 400.474704 192.875561 
L 401.602546 205.823578 
L 402.730389 220.653926 
L 404.140192 246.584505 
L 404.422152 252.206915 
L 404.704113 255.35112 
L 404.986073 252.615267 
L 405.268034 238.973823 
L 405.549994 211.030267 
L 406.677837 65.147823 
L 406.959797 49.939021 
L 407.241758 41.469994 
L 407.523719 36.578951 
L 407.805679 34.400939 
L 408.08764 34.979929 
L 408.933522 42.489989 
L 409.215482 47.322283 
L 410.343324 78.59579 
L 411.753127 150.054275 
L 412.317049 174.158354 
L 413.444891 190.274579 
L 413.726851 192.460348 
L 414.008812 192.999019 
L 414.854694 193.682983 
L 415.136654 192.577677 
L 415.700576 189.245817 
L 415.982536 189.179418 
L 416.264497 188.945979 
L 416.828418 186.009424 
L 417.392339 185.337033 
L 417.6743 184.412951 
L 417.95626 184.016183 
L 418.238221 185.83668 
L 418.520181 188.893096 
L 418.802142 190.668377 
L 419.084103 190.470304 
L 419.366063 190.416958 
L 419.648024 192.110188 
L 420.211945 196.230955 
L 420.493906 197.524578 
L 421.057827 203.288723 
L 421.903708 210.564706 
L 423.031551 220.374321 
L 423.595472 227.119588 
L 423.877433 230.018654 
L 424.159393 234.87453 
L 425.005275 254.644145 
L 425.287236 256.310034 
L 425.569196 252.079289 
L 425.851157 237.647845 
L 426.133117 209.485559 
L 426.978999 91.325436 
L 427.26096 66.644022 
L 427.54292 52.209588 
L 427.824881 45.087738 
L 428.106841 42.479665 
L 428.388802 42.634309 
L 428.952723 46.807939 
L 429.234684 49.381871 
L 429.516644 53.061756 
L 430.080565 67.721157 
L 431.490368 117.615591 
L 433.182132 182.122987 
L 433.464093 188.054092 
L 433.746053 190.835693 
L 434.028014 190.461203 
L 434.309974 188.611533 
L 434.591935 187.773301 
L 434.873895 187.890907 
L 435.155856 186.974088 
L 435.437817 184.814817 
L 435.719777 183.875715 
L 436.283698 186.799045 
L 436.565659 186.926413 
L 437.12958 184.410655 
L 438.539383 177.526985 
L 438.821344 177.733686 
L 439.103304 178.549947 
L 439.385265 177.938538 
L 439.667225 176.495926 
L 439.949186 176.517174 
L 440.513107 179.369616 
L 440.795068 179.13332 
L 441.077028 178.683777 
L 441.358989 178.990862 
L 442.204871 181.522161 
L 442.486831 180.560669 
L 442.768792 178.853385 
L 443.050752 178.520721 
L 443.332713 179.367045 
L 443.614674 178.917328 
L 444.178595 174.322592 
L 444.460555 174.230165 
L 445.306437 177.461305 
L 445.588398 178.801058 
L 445.870358 179.13385 
L 446.152319 178.847428 
L 446.434279 179.603846 
L 447.280161 185.338728 
L 447.844082 191.707925 
L 448.408004 200.555932 
L 448.971925 210.278885 
L 449.535846 218.48665 
L 450.381728 233.297383 
L 451.791531 254.652122 
L 452.073491 253.047441 
L 452.355452 239.929855 
L 452.637412 212.60478 
L 453.765255 71.827891 
L 454.047215 56.485654 
L 454.329176 47.934438 
L 454.611136 44.028237 
L 454.893097 43.47596 
L 455.175058 44.504222 
L 455.457018 46.525095 
L 455.738979 50.515407 
L 457.148782 83.237056 
L 459.686427 169.433154 
L 460.250348 179.368702 
L 460.532309 182.058128 
L 460.814269 183.071735 
L 461.378191 182.620447 
L 461.660151 182.71526 
L 462.224072 180.992715 
L 462.506033 181.857859 
L 464.761718 203.582043 
L 465.325639 213.132492 
L 465.88956 224.922236 
L 467.017402 240.554486 
L 467.299363 241.911155 
L 467.581323 241.861533 
L 467.863284 244.204004 
L 468.427205 254.56971 
L 468.709166 253.228324 
L 468.991126 244.590207 
L 469.273087 228.420208 
L 469.837008 167.699878 
L 470.400929 105.561567 
L 470.68289 90.47335 
L 471.246811 75.741842 
L 471.528772 73.131459 
L 471.810732 73.295949 
L 472.092693 74.281392 
L 472.374653 75.934175 
L 473.220535 84.517067 
L 473.502496 88.673303 
L 474.066417 104.09385 
L 474.912299 136.123926 
L 475.75818 163.565402 
L 476.322102 177.884721 
L 476.604062 182.577449 
L 476.886023 183.934209 
L 477.167983 182.123891 
L 478.013865 174.426517 
L 478.577786 170.320778 
L 478.859747 169.271391 
L 479.141707 169.046593 
L 479.423668 170.042972 
L 479.987589 174.137366 
L 480.833471 176.807558 
L 481.115432 177.652427 
L 481.397392 179.008136 
L 481.961313 185.414732 
L 482.525234 191.134918 
L 483.371116 195.046942 
L 484.216998 202.628576 
L 485.626801 220.528574 
L 487.600525 255.026594 
L 487.882486 253.94455 
L 488.164446 245.81464 
L 488.446407 226.386828 
L 489.574249 97.619607 
L 490.13817 71.239193 
L 490.420131 64.59814 
L 490.702091 63.38485 
L 491.829934 75.617857 
L 492.393855 86.789416 
L 492.957776 93.960155 
L 493.521697 107.911439 
L 494.9315 146.984596 
L 495.777382 165.505168 
L 496.059343 169.368993 
L 496.341303 170.758389 
L 496.623264 171.131063 
L 496.905224 171.169766 
L 497.187185 170.042809 
L 497.469146 167.901441 
L 497.751106 167.475892 
L 498.315027 172.034858 
L 498.596988 171.602441 
L 498.878948 170.629095 
L 499.160909 171.83886 
L 499.44287 174.078394 
L 499.72483 174.63653 
L 500.006791 174.056917 
L 500.288751 173.90912 
L 500.570712 173.92203 
L 500.852673 173.679374 
L 501.134633 174.875255 
L 501.698554 180.238451 
L 501.980515 181.527598 
L 502.826397 187.69174 
L 503.108357 186.328783 
L 503.390318 186.153039 
L 503.954239 189.634997 
L 504.2362 190.466603 
L 504.51816 192.670444 
L 506.209924 215.001862 
L 507.055805 232.578683 
L 508.183648 246.776357 
L 508.747569 253.429127 
L 509.02953 254.387533 
L 509.31149 246.855189 
L 509.593451 226.827853 
L 510.721293 105.156278 
L 511.285214 79.579182 
L 511.567175 73.534421 
L 511.849135 72.257105 
L 512.413057 73.58786 
L 512.695017 75.084358 
L 513.82286 89.851541 
L 514.10482 95.485672 
L 516.642465 166.846314 
L 516.924426 170.305946 
L 517.206387 171.772211 
L 517.770308 176.757675 
L 518.052268 176.78326 
L 518.61619 173.140866 
L 519.180111 170.9588 
L 519.462071 170.626076 
L 520.025992 172.425395 
L 520.589914 172.999748 
L 520.871874 173.875704 
L 521.153835 174.364934 
L 521.717756 174.31225 
L 521.999717 174.938246 
L 522.845598 179.367987 
L 523.127559 179.496174 
L 523.409519 179.759813 
L 523.69148 181.755359 
L 524.255401 186.79918 
L 525.383244 192.766239 
L 525.665204 194.671698 
L 526.793047 207.002983 
L 527.920889 222.630443 
L 528.766771 232.682144 
L 529.330692 239.233899 
L 529.612652 237.773452 
L 529.894613 226.616464 
L 530.458534 175.193246 
L 531.022455 125.496131 
L 531.586376 98.023842 
L 531.868337 91.895671 
L 532.150298 88.725769 
L 532.432258 87.355104 
L 532.714219 88.393023 
L 533.27814 93.370983 
L 533.560101 94.834098 
L 533.842061 98.052937 
L 536.661667 156.549766 
L 536.943628 159.487479 
L 537.507549 162.918541 
L 538.07147 166.602981 
L 538.635391 168.643735 
L 538.917352 168.997567 
L 539.199312 169.541321 
L 539.763233 172.447242 
L 540.045194 172.468032 
L 540.327155 171.88234 
L 540.891076 172.58325 
L 541.454997 171.5499 
L 541.736958 173.239306 
L 542.018918 175.87367 
L 542.300879 177.340376 
L 542.582839 177.402124 
L 542.8648 177.230792 
L 543.146761 176.621203 
L 543.992642 172.847739 
L 544.274603 172.537606 
L 544.556563 172.550681 
L 544.838524 172.24902 
L 545.402445 170.381822 
L 545.684406 170.385716 
L 545.966366 170.540138 
L 546.248327 170.026299 
L 546.530288 170.097839 
L 547.094209 174.845015 
L 547.376169 174.94912 
L 548.222051 169.991642 
L 548.504012 168.507606 
L 548.785972 167.900009 
L 549.067933 168.288043 
L 549.349893 167.608471 
L 549.913815 164.270965 
L 550.195775 165.014583 
L 550.759696 167.883648 
L 551.323618 169.656004 
L 551.887539 169.64187 
L 552.169499 170.453309 
L 552.73342 173.151804 
L 553.015381 173.862302 
L 553.297342 175.536117 
L 554.143223 185.834749 
L 554.425184 186.256296 
L 554.707145 188.294011 
L 554.989105 191.837766 
L 555.271066 193.961083 
L 555.553026 194.141833 
L 555.834987 195.345324 
L 556.962829 208.056573 
L 558.372632 228.982502 
L 559.218514 244.777884 
L 559.500475 246.762368 
L 559.782435 241.962994 
L 560.064396 224.86409 
L 561.192238 108.328556 
L 561.756159 87.655036 
L 562.03812 82.872839 
L 562.32008 81.560877 
L 562.602041 82.903047 
L 563.165962 86.335752 
L 563.447923 86.939982 
L 563.729883 89.107593 
L 564.575765 103.577223 
L 565.139686 117.099612 
L 565.985568 142.239379 
L 567.11341 168.499361 
L 567.395371 171.7406 
L 567.677332 173.101223 
L 568.241253 174.794585 
L 569.087134 178.493467 
L 569.369095 178.822581 
L 569.651056 179.410659 
L 569.933016 180.316876 
L 570.214977 178.92266 
L 570.778898 169.088235 
L 571.060859 167.118366 
L 571.342819 167.386578 
L 571.62478 167.003671 
L 572.188701 164.157611 
L 572.470661 164.507724 
L 572.752622 165.251212 
L 573.034583 165.016964 
L 573.316543 164.465019 
L 573.598504 165.030293 
L 574.726346 175.383106 
L 575.572228 185.986341 
L 576.70007 192.258086 
L 577.545952 207.395156 
L 578.391834 213.003053 
L 578.673794 215.492557 
L 578.955755 216.050853 
L 579.237716 215.915403 
L 579.519676 217.044184 
L 579.801637 216.460082 
L 580.083597 209.121694 
L 580.929479 160.251257 
L 581.4934 128.874081 
L 581.775361 118.380474 
L 582.339282 109.292192 
L 582.621243 106.592147 
L 582.903203 105.693393 
L 583.185164 106.048946 
L 583.467124 106.719243 
L 583.749085 108.505905 
L 584.313006 118.829549 
L 585.440848 140.417436 
L 586.568691 156.520603 
L 587.414573 165.235658 
L 587.978494 167.214135 
L 589.106336 170.236665 
L 589.670257 169.443165 
L 589.952218 170.341253 
L 590.234178 171.975627 
L 590.516139 171.965283 
L 590.7981 170.478556 
L 591.08006 169.600053 
L 591.362021 170.143802 
L 591.643981 170.085287 
L 591.925942 169.047292 
L 592.207903 168.791791 
L 592.489863 170.862627 
L 593.053784 176.129554 
L 593.335745 176.511132 
L 594.181627 174.195236 
L 594.463587 173.808641 
L 594.745548 172.090911 
L 595.027508 169.451233 
L 595.309469 168.56999 
L 595.87339 171.479094 
L 596.155351 171.833267 
L 596.437311 173.107143 
L 597.283193 182.454853 
L 597.565154 183.227429 
L 597.847114 185.443544 
L 598.129075 188.567821 
L 598.411035 189.268011 
L 598.692996 187.847573 
L 598.974957 187.841835 
L 600.66672 207.379025 
L 601.230641 212.601206 
L 602.076523 222.98415 
L 602.358484 221.192974 
L 602.640444 212.390081 
L 603.204365 173.570379 
L 603.768287 136.457798 
L 604.332208 115.907085 
L 604.614168 109.561461 
L 604.896129 107.047916 
L 605.46005 106.257691 
L 605.742011 106.629407 
L 606.869853 117.324117 
L 607.715735 130.209194 
L 608.279656 141.163166 
L 609.407498 163.486347 
L 610.535341 176.825036 
L 610.817301 178.611001 
L 611.099262 177.320626 
L 611.381222 174.911062 
L 611.945144 173.237798 
L 612.791025 166.717751 
L 613.072986 167.366405 
L 613.354946 167.515668 
L 613.636907 166.507676 
L 613.918868 166.413438 
L 614.200828 167.082743 
L 614.482789 167.220044 
L 614.764749 166.345362 
L 615.04671 165.930054 
L 615.328671 165.980061 
L 615.610631 166.618016 
L 615.892592 168.014309 
L 616.456513 172.22842 
L 618.148276 178.733676 
L 619.276119 187.991662 
L 619.84004 193.664299 
L 620.122001 194.642646 
L 620.403961 194.553426 
L 620.685922 194.653598 
L 620.967882 194.545722 
L 621.249843 194.784301 
L 621.531803 196.550996 
L 622.095725 207.671073 
L 622.377685 212.971506 
L 622.659646 213.800979 
L 622.941606 208.386834 
L 623.505528 181.182647 
L 624.351409 136.568388 
L 624.63337 127.528835 
L 624.915331 122.463672 
L 625.197291 119.848175 
L 625.479252 118.398681 
L 625.761212 119.101854 
L 626.325133 121.986529 
L 626.607094 122.036266 
L 626.889055 122.932873 
L 627.171015 124.643279 
L 627.734936 130.316166 
L 629.70866 163.78896 
L 630.272582 168.442571 
L 630.836503 169.90781 
L 631.400424 172.540135 
L 631.682385 172.567368 
L 631.964345 171.7667 
L 632.528266 167.678202 
L 632.810227 165.438754 
L 633.092188 164.748822 
L 633.092188 164.748822 
" clip-path="url(#pabdc53f073)" style="fill: none; stroke: #1f77b4; stroke-width: 1.5; stroke-linecap: square"/>
   </g>
   <g id="patch_3">
    <path d="M 47.192188 269.627376 
L 47.192188 3.515376 
" style="fill: none; stroke: #000000; stroke-width: 0.8; stroke-linejoin: miter; stroke-linecap: square"/>
   </g>
   <g id="patch_4">
    <path d="M 660.992188 269.627376 
L 660.992188 3.515376 
" style="fill: none; stroke: #000000; stroke-width: 0.8; stroke-linejoin: miter; stroke-linecap: square"/>
   </g>
   <g id="patch_5">
    <path d="M 47.192188 269.627376 
L 660.992188 269.627376 
" style="fill: none; stroke: #000000; stroke-width: 0.8; stroke-linejoin: miter; stroke-linecap: square"/>
   </g>
   <g id="patch_6">
    <path d="M 47.192188 3.515376 
L 660.992188 3.515376 
" style="fill: none; stroke: #000000; stroke-width: 0.8; stroke-linejoin: miter; stroke-linecap: square"/>
   </g>
  </g>
 </g>
 <defs>
  <clipPath id="pabdc53f073">
   <rect x="47.192188" y="3.515376" width="613.8" height="266.112"/>
  </clipPath>
 </defs>
</svg>
