<svg xmlns="http://www.w3.org/2000/svg" xmlns:xlink="http://www.w3.org/1999/xlink" width="913.477" height="377.053" viewBox="0 0 685.107 282.79"><defs><style>*{stroke-linejoin:round;stroke-linecap:butt}</style></defs><g id="figure_1"><path id="patch_1" d="M0 282.79h685.107V0H0v282.79z" style="fill:none"/><g id="axes_1"><path id="patch_2" d="M71.308 266.112h613.8V0h-613.8v266.112z" style="fill:none"/><g id="matplotlib.axis_1"><g id="xtick_1"><g id="line2d_1"><defs><path id="m746d78716f" d="M0 0v3.5" style="stroke:gray;stroke-width:.8"/></defs><use xlink:href="#m746d78716f" x="99.207" y="266.112" style="fill:gray;stroke:gray;stroke-width:.8"/></g><g id="text_1" style="fill:gray" transform="matrix(.1 0 0 -.1 96.026 280.71)"><defs><path id="DejaVuSans-30" d="M2034 4250q-487 0-733-480-245-479-245-1442 0-959 245-1439 246-480 733-480 491 0 736 480 246 480 246 1439 0 963-246 1442-245 480-736 480zm0 500q785 0 1199-621 414-620 414-1801 0-1178-414-1799Q2819-91 2034-91q-784 0-1198 620-414 621-414 1799 0 1181 414 1801 414 621 1198 621z" transform="scale(.01563)"/></defs><use xlink:href="#DejaVuSans-30"/></g></g><g id="xtick_2"><use xlink:href="#m746d78716f" id="line2d_2" x="168.958" y="266.112" style="fill:gray;stroke:gray;stroke-width:.8"/><g id="text_2" style="fill:gray" transform="matrix(.1 0 0 -.1 159.414 280.71)"><defs><path id="DejaVuSans-35" d="M691 4666h2478v-532H1269V2991q137 47 274 70 138 23 276 23 781 0 1237-428 457-428 457-1159 0-753-469-1171Q2575-91 1722-91q-294 0-599 50Q819 9 494 109v635q281-153 581-228t634-75q541 0 856 284 316 284 316 772 0 487-316 771-315 285-856 285-253 0-505-56-251-56-513-175v2344z" transform="scale(.01563)"/></defs><use xlink:href="#DejaVuSans-35"/><use xlink:href="#DejaVuSans-30" x="63.623"/><use xlink:href="#DejaVuSans-30" x="127.246"/></g></g><g id="xtick_3"><use xlink:href="#m746d78716f" id="line2d_3" x="238.708" y="266.112" style="fill:gray;stroke:gray;stroke-width:.8"/><g id="text_3" style="fill:gray" transform="matrix(.1 0 0 -.1 225.982 280.71)"><defs><path id="DejaVuSans-31" d="M794 531h1031v3560L703 3866v575l1116 225h631V531h1031V0H794v531z" transform="scale(.01563)"/></defs><use xlink:href="#DejaVuSans-31"/><use xlink:href="#DejaVuSans-30" x="63.623"/><use xlink:href="#DejaVuSans-30" x="127.246"/><use xlink:href="#DejaVuSans-30" x="190.869"/></g></g><g id="xtick_4"><use xlink:href="#m746d78716f" id="line2d_4" x="308.457" y="266.112" style="fill:gray;stroke:gray;stroke-width:.8"/><g id="text_4" style="fill:gray" transform="matrix(.1 0 0 -.1 295.733 280.71)"><use xlink:href="#DejaVuSans-31"/><use xlink:href="#DejaVuSans-35" x="63.623"/><use xlink:href="#DejaVuSans-30" x="127.246"/><use xlink:href="#DejaVuSans-30" x="190.869"/></g></g><g id="xtick_5"><use xlink:href="#m746d78716f" id="line2d_5" x="378.207" y="266.112" style="fill:gray;stroke:gray;stroke-width:.8"/><g id="text_5" style="fill:gray" transform="matrix(.1 0 0 -.1 365.483 280.71)"><defs><path id="DejaVuSans-32" d="M1228 531h2203V0H469v531q359 372 979 998 621 627 780 809 303 340 423 576 121 236 121 464 0 372-261 606-261 235-680 235-297 0-627-103-329-103-704-313v638q381 153 712 231 332 78 607 78 725 0 1156-363 431-362 431-968 0-288-108-546-107-257-392-607-78-91-497-524-418-433-1181-1211z" transform="scale(.01563)"/></defs><use xlink:href="#DejaVuSans-32"/><use xlink:href="#DejaVuSans-30" x="63.623"/><use xlink:href="#DejaVuSans-30" x="127.246"/><use xlink:href="#DejaVuSans-30" x="190.869"/></g></g><g id="xtick_6"><use xlink:href="#m746d78716f" id="line2d_6" x="447.957" y="266.112" style="fill:gray;stroke:gray;stroke-width:.8"/><g id="text_6" style="fill:gray" transform="matrix(.1 0 0 -.1 435.233 280.71)"><use xlink:href="#DejaVuSans-32"/><use xlink:href="#DejaVuSans-35" x="63.623"/><use xlink:href="#DejaVuSans-30" x="127.246"/><use xlink:href="#DejaVuSans-30" x="190.869"/></g></g><g id="xtick_7"><use xlink:href="#m746d78716f" id="line2d_7" x="517.707" y="266.112" style="fill:gray;stroke:gray;stroke-width:.8"/><g id="text_7" style="fill:gray" transform="matrix(.1 0 0 -.1 504.983 280.71)"><defs><path id="DejaVuSans-33" d="M2597 2516q453-97 707-404 255-306 255-756 0-690-475-1069Q2609-91 1734-91q-293 0-604 58T488 141v609q262-153 574-231 313-78 654-78 593 0 904 234t311 681q0 413-289 645-289 233-804 233h-544v519h569q465 0 712 186t247 536q0 359-255 551-254 193-729 193-260 0-557-57-297-56-653-174v562q360 100 674 150t592 50q719 0 1137-327 419-326 419-882 0-388-222-655t-631-370z" transform="scale(.01563)"/></defs><use xlink:href="#DejaVuSans-33"/><use xlink:href="#DejaVuSans-30" x="63.623"/><use xlink:href="#DejaVuSans-30" x="127.246"/><use xlink:href="#DejaVuSans-30" x="190.869"/></g></g><g id="xtick_8"><use xlink:href="#m746d78716f" id="line2d_8" x="587.457" y="266.112" style="fill:gray;stroke:gray;stroke-width:.8"/><g id="text_8" style="fill:gray" transform="matrix(.1 0 0 -.1 574.732 280.71)"><use xlink:href="#DejaVuSans-33"/><use xlink:href="#DejaVuSans-35" x="63.623"/><use xlink:href="#DejaVuSans-30" x="127.246"/><use xlink:href="#DejaVuSans-30" x="190.869"/></g></g><g id="xtick_9"><use xlink:href="#m746d78716f" id="line2d_9" x="657.207" y="266.112" style="fill:gray;stroke:gray;stroke-width:.8"/><g id="text_9" style="fill:gray" transform="matrix(.1 0 0 -.1 644.482 280.71)"><defs><path id="DejaVuSans-34" d="M2419 4116 825 1625h1594v2491zm-166 550h794V1625h666v-525h-666V0h-628v1100H313v609l1940 2957z" transform="scale(.01563)"/></defs><use xlink:href="#DejaVuSans-34"/><use xlink:href="#DejaVuSans-30" x="63.623"/><use xlink:href="#DejaVuSans-30" x="127.246"/><use xlink:href="#DejaVuSans-30" x="190.869"/></g></g></g><g id="matplotlib.axis_2"><g id="ytick_1"><g id="line2d_10"><defs><path id="m315a9aee84" d="M0 0h-3.5" style="stroke:gray;stroke-width:.8"/></defs><use xlink:href="#m315a9aee84" x="71.308" y="258.764" style="fill:gray;stroke:gray;stroke-width:.8"/></g><g id="text_10" style="fill:gray" transform="matrix(.16 0 0 -.16 0 264.843)"><defs><path id="DejaVuSans-2212" d="M678 2272h4006v-531H678v531z" transform="scale(.01563)"/></defs><use xlink:href="#DejaVuSans-2212"/><use xlink:href="#DejaVuSans-32" x="83.789"/><use xlink:href="#DejaVuSans-30" x="147.412"/><use xlink:href="#DejaVuSans-30" x="211.035"/><use xlink:href="#DejaVuSans-30" x="274.658"/><use xlink:href="#DejaVuSans-30" x="338.281"/></g></g><g id="ytick_2"><use xlink:href="#m315a9aee84" id="line2d_11" x="71.308" y="206.662" style="fill:gray;stroke:gray;stroke-width:.8"/><g id="text_11" style="fill:gray" transform="matrix(.16 0 0 -.16 0 212.74)"><use xlink:href="#DejaVuSans-2212"/><use xlink:href="#DejaVuSans-31" x="83.789"/><use xlink:href="#DejaVuSans-30" x="147.412"/><use xlink:href="#DejaVuSans-30" x="211.035"/><use xlink:href="#DejaVuSans-30" x="274.658"/><use xlink:href="#DejaVuSans-30" x="338.281"/></g></g><g id="ytick_3"><use xlink:href="#m315a9aee84" id="line2d_12" x="71.308" y="154.56" style="fill:gray;stroke:gray;stroke-width:.8"/><use xlink:href="#DejaVuSans-30" id="text_12" style="fill:gray" transform="matrix(.16 0 0 -.16 54.127 160.638)"/></g><g id="ytick_4"><use xlink:href="#m315a9aee84" id="line2d_13" x="71.308" y="102.457" style="fill:gray;stroke:gray;stroke-width:.8"/><g id="text_13" style="fill:gray" transform="matrix(.16 0 0 -.16 13.408 108.536)"><use xlink:href="#DejaVuSans-31"/><use xlink:href="#DejaVuSans-30" x="63.623"/><use xlink:href="#DejaVuSans-30" x="127.246"/><use xlink:href="#DejaVuSans-30" x="190.869"/><use xlink:href="#DejaVuSans-30" x="254.492"/></g></g><g id="ytick_5"><use xlink:href="#m315a9aee84" id="line2d_14" x="71.308" y="50.355" style="fill:gray;stroke:gray;stroke-width:.8"/><g id="text_14" style="fill:gray" transform="matrix(.16 0 0 -.16 13.408 56.434)"><use xlink:href="#DejaVuSans-32"/><use xlink:href="#DejaVuSans-30" x="63.623"/><use xlink:href="#DejaVuSans-30" x="127.246"/><use xlink:href="#DejaVuSans-30" x="190.869"/><use xlink:href="#DejaVuSans-30" x="254.492"/></g></g></g><path id="line2d_15" d="m99.207 154.637.282-.15.282.141.282-.134.282.127.282-.12.282.114.282-.109.282.104.282-.099.282.094.282-.09.282.086.282-.081.282.077.282-.073.282.07.282-.067.282.063.282-.06.564.004.846.047.845-.037.846.026 1.692-.015 1.974.053.282-.113.282.152.282-.212.282.322.282-.586.282 2.045.282 5.399.281-.847.282.05.564-.534.846-2.507.282.018.564.665.282-.21.282.175.282.332.846 2.75.282-.09.564-1.65.282.735.564 3.504.282.569.282 1.06.282 1.83.282.831.563-3.76.282.204.564 4.074.282.7.282-.36.282.417.282 2.534.564 7.506.282 1.44.282-.86.282-3.662.564-15.287.564-27.32.564-30.518.564-12.094.282-3.66.282.447.282 6.059.845 27.474 1.692 41.428.282 2.18.282-.463.282-.086.282 1.363.282.536.846-2.732.564-1.309.282-.425.282-.784.564-3.25.564-4.036.281 1.116.282 3.577.282 2.097.564-1.505.564 1.968.282.113.282-1.358.564-4.526.282-.74.282-.195.564-1.658.282.233.282 1.084.564 3.567.564 3.662.282 1.704.564 5.265.282.87.563-2.836.282 1.177.282 2.786.282 1.16.282-1.005.282.472.564 6.464.282-2.698.564-20.171 1.41-61.565.282-6.613.282-1.92.282 4.166 1.128 25.996.845 26.779.564 16.088.564 8.81.282 2.979.282 1.092.282-.652.282-1.298 1.41-8.685.564-1.465.846-6.794.564-1.192.282 1.845.564 9.768.282.072.281-1.33.282 1.04.282 1.77.564.743.282 1.426.282.61.282-.718.282-.124.564 2.17.282-.96.282-2.213.282-.898.564 4.592.282-.141.282-1.164.282 2.406.282 5.26.282 2.806.282-.047.282 1.375.282 3.486.282 2.1.282.443.281 1.513.282 2.24.282-.777.282-5.08.564-16.856.282-13.507.846-55.738.282-9.116.564-8.59.282-2.796.282 1.473.564 13.322.564 15.782 1.692 63.044.563 4.016.282.44 1.128-6.236.564-4.656.282-.564.282-.952.846-7.16.564-2.537.282 1.03.564 6.126.282-.641.282-.955.282 1.04.564 2.76.564 1.928.281-.13.282.253 1.41 8.694.282.36.282.06.564 1.943.564 2.274.282-.163.564-3.85.282.92.564 5.727.564 9.28.564 9.332.282-.125.282-5.82.563-28.71 1.128-70.498.282-11.748.282-6.46.282-.905.846 6.635.282 7.046 1.692 71.818.282 7.304.282 4.193.282 1.671.282-.319.564-2.218 1.127-5.755.564.29.282-2.03.282-4.022.282-2.152.564 2.916.282-1.258.282-1.82.282.443.564 3.065.564.704.282.652.282.12.282-.06.282 1.881.564 9.75.282 1.074.282-1.79.281-.991.564.648.282-.03 1.128 2.15.282-.045.564-1.977.282.497.282 2.66.846 12.169.282 1.945.564 9.747.282.036.282-8.03.564-27.54 1.41-92.6.281-6.61.282-3.164.282-.082.282 4.176.564 20.855.846 36.815.564 29.844.564 18.714.564 8.24.282 1.679.282-.114.282-2.026.564-7.251.564-8.962.281-2.185.282-1.08.564-2.823.282 1.26.282 2.851.282 1.708.282.406.282 1.084.282 1.547.282.125.282-1.006.282.31.846 6.495.282.115.282.889.564 5.493.282.915.282-.28.564.13.282.47.282 2.62.281 4.313.282 2.345.282-1.298.564-5.01.564-4.407.282-3.14.282-1.804.282 1.689.282 3.863.282 2.264.282.784.564 5.713.282-1.881.282-8.517.564-28.643 1.128-71.386.564-18.337.281-3.851.282-.874.282 1.923.282 4.455.282 7.102.564 24.136.564 29.235.846 50.84.282 5.924.564 5.69.282.045.282-.662.282.254.282-.335.564-3.24.282-.363.282-1.072.564-5.842.563-6.35.282-.643.282.38.282-1.333.282-2.349.282.441.564 7.955.282 1.27.282-.614.282-.269.282.827.282.096.564-6.155.282-.514.564 4.218.282.04.282 1.54.282 3.245.282 1.95.282.482 1.127 5.828.564 10.744.282 4.754.564 5.849.564 8.594.282 1.13.282-4.405.564-22.262.564-35.048.846-62.912.564-22.203.564-14.643.282-.02.845 7.03.282 9.745.846 50.39.564 34.032.564 18.617.282 4.538.282 2.247.282.36.282-.433.282.409.564 4.492.282-.022.564-4.298.282-.135.282-1.55.564-10.268.282-2.06.282.153.282-.553.281-1.261.282-.306.282.376.564-.248.564.868.282-.425.282-.733.282-.006.282.864 1.41 6.103.282 2.154.846 11.237 1.41 11.044 1.41 18.707.281 1.648.282-2.993.282-8.143.282-14.423 1.974-136.873.282-8.438.282-3.58.282-.317.282 1.964.282 5.99.846 35.926.563 37.104.564 36.339.282 7.568.564 9.285.564 9.633.282.61.846-2.645.564-5.119.846-8.557.564 2.598.564-1.305.564 1.743.282-.406.282-1.287.563-4.501.282-.129.282 1.025.282-.691.282-1.191.282 2.143.564 8.742.846 5.581 1.128 9.046.564 4.069.846 8.907.564 7.659.564 7.361.282 1.435.281.298.282-3.495.282-11.725 1.128-87.208.564-41.294.564-25.502.564-13.493.282-3.749.282.714.564 11.907.282 7.589.282 11.042.564 39.594.564 37.057.846 41.4.281 5.58.846 3.363 1.692-12.198.282-1.216.282-2.843.846-12.653.282-1.892.282-.664.564-2.226.282 1.32.564 7.716.282.755.282.132.563 2.543.282 1.605.846 9.795.564 2.945 1.692 12.106 1.128 12.18.846 14.09.282 1.493.282-2.614.282-8.027.564-32.496 1.41-111.615.563-28.518.282-9.269.282-3.764.282-.269.282 1.872.282 4.766.282 8.29.282 12.323.564 39.174.846 59.582.282 13.197.282 6.961.846 9.297.282.62.282-.874.281-1.935.564-5.917.564-1.103.846-6.8.282-1.552.564-4.24.282.584.282 1.878.282.524.282-1.688.282-.614.282 4.228.564 11.813.282.394.282-.412.282 1.039.846 6.007.281.576.282-.712.282.656.564 6.03.282-.078.282-1.524.282.138.282 2.432.564 7.665.846 17.415.564 8.5.282 1.356.282-1.04.282-7.14.564-37.994.846-71.452.563-47.035.564-27.232.282-9.457.282-4.993.282-.951.282 1.91.282 3.909.282 5.616.282 9.55.564 37.634.846 61.944.564 27.827.564 17.113.282 3.093.282-.138.282.81.282 1.28.282-2.46.564-12.387.281-2.384.282.078.282-.437.564-3.279.282-1.078.564-6.129.282.669.282 3.846.282 1.653.282-.382.282 2.336.282 4.386.282 2.246.282 1.216.564 6.535.282.613.282.141.282 2.045 1.128 10.655.563 3.27.846 8.716.564 8.643.564 10.79.282 2.492.282-.137.282-1.888.282-5.822.282-13.406.846-69.071.846-77.797.564-32.316.282-8.752.282-3.89.282.03.563 5.44.282 4.514.282 8.042.846 40.636 1.41 77.221.564 16.825.282 5.388.282 3.017.282 1.135.282-.78.282-1.583.282.248.564 5.425.282-.483.282-2.194.282-.69.282.639.281-1.253.564-7.776.282-1.477.282.059.282.22.282-.04.282-.2.282.392.282 2.05.564 5.652.846 2.976 1.128 11.797 1.128 13.226.564 13.8.845 18.245.282 5.764.282 3.255.282-1.281.282-7.226.564-32.85.564-48.682.846-82.312.564-36.295.564-18.579.282-5.636.282-1.325.282 2.83.564 9.505.564 15.84.282 10.694.563 37.655.564 33.025.846 38.754 1.128 13.661.282.948.282 4.414.282 6.837.282 3.322.282-2 .282-3.216.282-.883.282.918.282.278.282-1.668.282-2.38.282-.561.564 2.528.563-2.211.282.119.282-.648.564-3.988.846 2.178.282 2.715.564 8.455.282 2.405.282 4.47.564 12.642 1.128 18.966.282 1.669.846 11.829.282-.749.281-6.112.282-14.252.564-49.786 1.128-109.748.564-31.99.564-12.435.282-1.635.282 1.506.564 7.677.564 14.77.564 25.313 1.41 67.877.845 20.6.282 5.345.282 3.166.282 5.746.564 14.242.282 1.88.282.642.282.331.282.133.282 1.357.282 2.179.282.543.564-1.99.282.464.282.835.282.156.282-1.31.282-2.166.282-1.05.846 2.07.281 1.32 2.256 19.17.846 11.381 1.128 27.514.564 8.233.282-2.98.282-11.88.564-42.589 1.41-132.76.563-34.49.282-9.865.282-5.065.282-1.85.282-.441.282.32.282 2.536.282 6.128.564 18.456.564 25.42.846 40.394 1.41 52.43.282 3.841.845 19.79.282 1.733.564 6.778.282.833.282-.204.564 1.777.564-1.261.282-.084.282-.783.846-3.683.564-4.44.282.106.282 1.421.846 7.88.564.587.282 2.186.845 11.19.564 9.737.564 13.888.846 12.552.282 6.682.282 2.69.282-3.198.282-7.556.282-11.415.564-39.398 1.41-134.573.282-16.65.282-9.773.282-3.267.282.62.281 2.887.564 8.765.564 4.903.282 7.406.564 19.462.564 14.666.846 28.795.564 17.793 1.128 39.846.846 16.258.282 1.563.282-.213.282.587.281 1.125.282-.197.564-2.466.564-.868.282-1.27.564-4.984.282-1.025.282.542.282.14.282-.726.282.42.564 6.609 2.538 29.11.281.154.282-1.378.282-.442.282 1.764.564 8.508.846 16.325.282.56.282-6.516.282-15.082.564-49.615.846-83.62.846-47.788.282-6.985.564-4.833.282-3.448.282.844 1.127 28.048.564 28.907.564 24.508.564 16.913.564 15.799.846 20.114.282 2.201.282 3.526.564 10.625.282.069.282 1.764.564 8.531.282 1.413.564 3.413.281-2.316.282-3.815.282-1.644.282.408.564 2.158.282.367.282-.582.282-.31.564.424.282 1.917 1.692 26.399.282 1.682.282 3.3.564 9.373.282 1.69.282 2.697.845 15.586.282 1.16.282-4.712.282-11.325.282-18.149.564-57.096.564-59.136.564-37.85.564-16.341.282-4.231.282-1.685.282.686.282 1.657.282 2.435.564 9.457.564 15.661 1.973 70.065.564 13.812.282 4.694.282 2.188.282-.38.282.022.564 6.284.282.861.282-.082.282 2.56.282 4.384.282 2.379.282-.191.282-.385.282.334.282.715.282 2.462.846 13.782.281.996.564 3.804.282-.395.564-5.028.282 1.522.282 3.125.282 1.391.282.094.282 2.229.564 8.71.564 2.819 1.692 27.96.282 2.485.282-2.784.282-9.7.282-17.982 1.41-127.617.563-21.245.282-4.02.282-.326.564 2.755.564 2.633.282.267.282 2.218 1.974 47.903.564 15.978.564 16.688.845 16.568.282 3.427.846 4.708.564 4.811.282-.354.564-3.736.282-.105.282-1.864.564-8.578.282 1.094.282 3.31.564 3.397 1.41 24.988.845 12.651.564 8.713.282 1.045.282-.34.564-3.083.282.238.846 7.494.564 8.724.564 8.267.282-1.108.282-8.677.564-40.362 1.128-101.083.282-16.863.281-9.385.282-3.194.282-1.756.564-7.974.282-.633.282 5.282.564 17.052.564 13.335 1.128 37.286.846 22.391.564 11.609.282 3.251.282.236.282-1.487.282-.385.563 4.55.282-.158.282-1.942.282-.848.282 1.001 1.128 7.167 1.41 13.092.282.028.282-.524.282 1.383.564 6.583 1.128 18.868.282 1.737.845 7.512.282 1.747.282 4.285.564 15.788 1.128 16.265.282-4.903.282-15.878.564-48.784.846-88.402.564-23.628.282-6.148.282-1.994.282.2.282-.721.282-.336.282 2.893.845 17.146 1.128 34.412.564 17.966 1.128 18.149.282 2.476.282-.016.564-3.486.282 1.476.282 2.417.282.12.282-1.677.282-.123.564 4.478.282.668.282-.104.281.397.846 4.03.282-1.05.282-.38.564 3.475.282.44.282 2.897.564 14.716.282 3.16.282 1.217.282 2.82.564 7.094.564 3.838.564 6.669 1.41 20.656.281 3.131.282 6.064.282 3.637.282-5.094.564-32.59 1.41-116.233.282-9.063.564-6.531.282-1.9.282-.134.282 1.453.282 2.679.282 5.052 1.973 51.29.846 17.125.282 2.276.282 1.243.564 5.821.282 2.956.282 1.739.282.036.564-2.698.282-.122.564 1.29.282-.152.282-1.608.282-2.324.282-.697.564 3.575.282-.463.282-.711.282 1.711.281 2.752.282 1.358.282.713 1.128 6.949.846 13.377 1.974 17.133.282 2.796 1.128 15.354.282 2.22.282 4.082.282 1.771.282-5.69.281-14.574 1.128-87.8.846-28.375.282-3.993.282.432.282 1.034.282.554.282 1.804 1.128 13.409.846 20.38.564 13.93.564 8.232.282.975.281-.624.282.804.282 2.797.282 1.183.564-2.723.846 6.115.564-1.709.282-.262.282.487.846 2.946.282 1.34.282 1.98.846 7.862.564-1.106.282 1.356.282 2.424.563 1.862.282 3.009.564 9.293.282 1.454.282.627.846 3.965.282 2.034.564 7.368.846 12.477.282-1.055.282-8.382 1.41-69.72.564-13.485.563-6.79.564-3.783.282-.746.282.417.846 5.032.282 3.202.846 18.38.282 2.232.564.844.282 1.583.564 3.917.282.154.282-.594.282.058 1.128 5.179.563 5.956.282 1.112.282-.275.282.324.564 2.272.564 1.373.282 1.703.846 9.693.564 1.424.282 1.302.282.498.282-.376.282.481.282 1.305.282.68.282.25.564 3.599.282-.157.282-1.734.281.265.564 3.888.282.37.282 3.066.846 18.374.282 1.273.282-3.2.282-8.542 1.41-58.706.564-14.114.564-8.378.564-3.601.282-.54.282.312.282.828.281 1.369.282 2.605.564 9.265.846 15.342 1.41 16.96.282 1.11.282-.094.282.056.282.434.282-.149.846-2.018.282.107.846 3.497.282.018.563-1.04.282.144.282 1.373.564 3.229.564.78 1.41 4.02.282 2.043.564 6.773.564 2.443.282 2.591.282 1.112.564-3.936.282.57.564 3.256.282 2.467.845 10.553.282 1.727.282-2.102.282-7.373 1.128-40.321.564-11.067.564-13.13.282-1.418.282-2.194.564-8.906.282-.204.282 1.097.282.354.282 1.407.282 5.01.845 21.837.564 7.136.564 6.876.282.088.282-2.643.282-1.422.282.14.282-.995.282-2.07.282-.082.846 4.06.564 6.621.282 1.274.564.656.282-.467.282-.205.282 1.859.282 2.703h.282l.281-1.84.282-.01.564 5.33.282.602.282.251.846 4.721.282-.305.282.114 1.128 4.719.564 7.288.282 1.085.282-1.154.282.347.564 6.444.564 3.262.282.683.282-4.308 1.691-57.932.564-8.4.282-2.338 1.128-3.45.282 1.588.564 5.996 1.128 18.014.282-.093.282.338.564 3.306.282-.41.281-1.587.282.667.564 5.26.564-.423.282.84.282 1.692.282.383.282.177.282-.209.282.86.282 2.056.282 3.986.282 2.034.282-.06.282-.916.564 2.67.282 1.232.282.655.282 2.27.282-.48.282.652.282.055.281 5.51h0" clip-path="url(#pc59c0d83e3)" style="fill:none;stroke:#1f77b4;stroke-width:1.5;stroke-linecap:square"/><path id="patch_3" d="M71.308 266.112V0" style="fill:none;stroke:gray;stroke-width:.8;stroke-linejoin:miter;stroke-linecap:square"/><path id="patch_4" d="M685.107 266.112V0" style="fill:none;stroke:#000;stroke-width:.8;stroke-linejoin:miter;stroke-linecap:square"/><path id="patch_5" d="M71.308 266.112h613.8" style="fill:none;stroke:gray;stroke-width:.8;stroke-linejoin:miter;stroke-linecap:square"/><path id="patch_6" d="M71.308 0h613.8" style="fill:none;stroke:#000;stroke-width:.8;stroke-linejoin:miter;stroke-linecap:square"/></g></g><defs><clipPath id="pc59c0d83e3"><path d="M71.308 0h613.8v266.112h-613.8z"/></clipPath></defs></svg>