<?xml version="1.0" encoding="utf-8" standalone="no"?>
<!DOCTYPE svg PUBLIC "-//W3C//DTD SVG 1.1//EN"
  "http://www.w3.org/Graphics/SVG/1.1/DTD/svg11.dtd">
<svg xmlns:xlink="http://www.w3.org/1999/xlink" width="660.992188pt" height="282.790125pt" viewBox="0 0 660.992188 282.790125" xmlns="http://www.w3.org/2000/svg" version="1.1">
 <metadata>
  <rdf:RDF xmlns:dc="http://purl.org/dc/elements/1.1/" xmlns:cc="http://creativecommons.org/ns#" xmlns:rdf="http://www.w3.org/1999/02/22-rdf-syntax-ns#">
   <cc:Work>
    <dc:type rdf:resource="http://purl.org/dc/dcmitype/StillImage"/>
    <dc:date>2023-03-06T19:23:11.831973</dc:date>
    <dc:format>image/svg+xml</dc:format>
    <dc:creator>
     <cc:Agent>
      <dc:title>Matplotlib v3.6.3, https://matplotlib.org/</dc:title>
     </cc:Agent>
    </dc:creator>
   </cc:Work>
  </rdf:RDF>
 </metadata>
 <defs>
  <style type="text/css">*{stroke-linejoin: round; stroke-linecap: butt}</style>
 </defs>
 <g id="figure_1">
  <g id="patch_1">
   <path d="M -0 282.790125 
L 660.992188 282.790125 
L 660.992188 0 
L -0 0 
L -0 282.790125 
z
" style="fill: none"/>
  </g>
  <g id="axes_1">
   <g id="patch_2">
    <path d="M 47.192188 266.112 
L 660.992188 266.112 
L 660.992188 0 
L 47.192188 0 
L 47.192188 266.112 
z
" style="fill: none"/>
   </g>
   <g id="matplotlib.axis_1">
    <g id="xtick_1">
     <g id="line2d_1">
      <defs>
       <path id="m80df40bd78" d="M 0 0 
L 0 3.5 
" style="stroke: #000000; stroke-width: 0.8"/>
      </defs>
      <g>
       <use xlink:href="#m80df40bd78" x="75.092188" y="266.112" style="stroke: #000000; stroke-width: 0.8"/>
      </g>
     </g>
     <g id="text_1">
      <!-- 0 -->
      <g transform="translate(71.910938 280.710438) scale(0.1 -0.1)">
       <defs>
        <path id="DejaVuSans-30" d="M 2034 4250 
Q 1547 4250 1301 3770 
Q 1056 3291 1056 2328 
Q 1056 1369 1301 889 
Q 1547 409 2034 409 
Q 2525 409 2770 889 
Q 3016 1369 3016 2328 
Q 3016 3291 2770 3770 
Q 2525 4250 2034 4250 
z
M 2034 4750 
Q 2819 4750 3233 4129 
Q 3647 3509 3647 2328 
Q 3647 1150 3233 529 
Q 2819 -91 2034 -91 
Q 1250 -91 836 529 
Q 422 1150 422 2328 
Q 422 3509 836 4129 
Q 1250 4750 2034 4750 
z
" transform="scale(0.015625)"/>
       </defs>
       <use xlink:href="#DejaVuSans-30"/>
      </g>
     </g>
    </g>
    <g id="xtick_2">
     <g id="line2d_2">
      <g>
       <use xlink:href="#m80df40bd78" x="144.842188" y="266.112" style="stroke: #000000; stroke-width: 0.8"/>
      </g>
     </g>
     <g id="text_2">
      <!-- 500 -->
      <g transform="translate(135.298438 280.710438) scale(0.1 -0.1)">
       <defs>
        <path id="DejaVuSans-35" d="M 691 4666 
L 3169 4666 
L 3169 4134 
L 1269 4134 
L 1269 2991 
Q 1406 3038 1543 3061 
Q 1681 3084 1819 3084 
Q 2600 3084 3056 2656 
Q 3513 2228 3513 1497 
Q 3513 744 3044 326 
Q 2575 -91 1722 -91 
Q 1428 -91 1123 -41 
Q 819 9 494 109 
L 494 744 
Q 775 591 1075 516 
Q 1375 441 1709 441 
Q 2250 441 2565 725 
Q 2881 1009 2881 1497 
Q 2881 1984 2565 2268 
Q 2250 2553 1709 2553 
Q 1456 2553 1204 2497 
Q 953 2441 691 2322 
L 691 4666 
z
" transform="scale(0.015625)"/>
       </defs>
       <use xlink:href="#DejaVuSans-35"/>
       <use xlink:href="#DejaVuSans-30" x="63.623047"/>
       <use xlink:href="#DejaVuSans-30" x="127.246094"/>
      </g>
     </g>
    </g>
    <g id="xtick_3">
     <g id="line2d_3">
      <g>
       <use xlink:href="#m80df40bd78" x="214.592188" y="266.112" style="stroke: #000000; stroke-width: 0.8"/>
      </g>
     </g>
     <g id="text_3">
      <!-- 1000 -->
      <g transform="translate(201.867188 280.710438) scale(0.1 -0.1)">
       <defs>
        <path id="DejaVuSans-31" d="M 794 531 
L 1825 531 
L 1825 4091 
L 703 3866 
L 703 4441 
L 1819 4666 
L 2450 4666 
L 2450 531 
L 3481 531 
L 3481 0 
L 794 0 
L 794 531 
z
" transform="scale(0.015625)"/>
       </defs>
       <use xlink:href="#DejaVuSans-31"/>
       <use xlink:href="#DejaVuSans-30" x="63.623047"/>
       <use xlink:href="#DejaVuSans-30" x="127.246094"/>
       <use xlink:href="#DejaVuSans-30" x="190.869141"/>
      </g>
     </g>
    </g>
    <g id="xtick_4">
     <g id="line2d_4">
      <g>
       <use xlink:href="#m80df40bd78" x="284.342188" y="266.112" style="stroke: #000000; stroke-width: 0.8"/>
      </g>
     </g>
     <g id="text_4">
      <!-- 1500 -->
      <g transform="translate(271.617188 280.710438) scale(0.1 -0.1)">
       <use xlink:href="#DejaVuSans-31"/>
       <use xlink:href="#DejaVuSans-35" x="63.623047"/>
       <use xlink:href="#DejaVuSans-30" x="127.246094"/>
       <use xlink:href="#DejaVuSans-30" x="190.869141"/>
      </g>
     </g>
    </g>
    <g id="xtick_5">
     <g id="line2d_5">
      <g>
       <use xlink:href="#m80df40bd78" x="354.092188" y="266.112" style="stroke: #000000; stroke-width: 0.8"/>
      </g>
     </g>
     <g id="text_5">
      <!-- 2000 -->
      <g transform="translate(341.367188 280.710438) scale(0.1 -0.1)">
       <defs>
        <path id="DejaVuSans-32" d="M 1228 531 
L 3431 531 
L 3431 0 
L 469 0 
L 469 531 
Q 828 903 1448 1529 
Q 2069 2156 2228 2338 
Q 2531 2678 2651 2914 
Q 2772 3150 2772 3378 
Q 2772 3750 2511 3984 
Q 2250 4219 1831 4219 
Q 1534 4219 1204 4116 
Q 875 4013 500 3803 
L 500 4441 
Q 881 4594 1212 4672 
Q 1544 4750 1819 4750 
Q 2544 4750 2975 4387 
Q 3406 4025 3406 3419 
Q 3406 3131 3298 2873 
Q 3191 2616 2906 2266 
Q 2828 2175 2409 1742 
Q 1991 1309 1228 531 
z
" transform="scale(0.015625)"/>
       </defs>
       <use xlink:href="#DejaVuSans-32"/>
       <use xlink:href="#DejaVuSans-30" x="63.623047"/>
       <use xlink:href="#DejaVuSans-30" x="127.246094"/>
       <use xlink:href="#DejaVuSans-30" x="190.869141"/>
      </g>
     </g>
    </g>
    <g id="xtick_6">
     <g id="line2d_6">
      <g>
       <use xlink:href="#m80df40bd78" x="423.842188" y="266.112" style="stroke: #000000; stroke-width: 0.8"/>
      </g>
     </g>
     <g id="text_6">
      <!-- 2500 -->
      <g transform="translate(411.117188 280.710438) scale(0.1 -0.1)">
       <use xlink:href="#DejaVuSans-32"/>
       <use xlink:href="#DejaVuSans-35" x="63.623047"/>
       <use xlink:href="#DejaVuSans-30" x="127.246094"/>
       <use xlink:href="#DejaVuSans-30" x="190.869141"/>
      </g>
     </g>
    </g>
    <g id="xtick_7">
     <g id="line2d_7">
      <g>
       <use xlink:href="#m80df40bd78" x="493.592188" y="266.112" style="stroke: #000000; stroke-width: 0.8"/>
      </g>
     </g>
     <g id="text_7">
      <!-- 3000 -->
      <g transform="translate(480.867188 280.710438) scale(0.1 -0.1)">
       <defs>
        <path id="DejaVuSans-33" d="M 2597 2516 
Q 3050 2419 3304 2112 
Q 3559 1806 3559 1356 
Q 3559 666 3084 287 
Q 2609 -91 1734 -91 
Q 1441 -91 1130 -33 
Q 819 25 488 141 
L 488 750 
Q 750 597 1062 519 
Q 1375 441 1716 441 
Q 2309 441 2620 675 
Q 2931 909 2931 1356 
Q 2931 1769 2642 2001 
Q 2353 2234 1838 2234 
L 1294 2234 
L 1294 2753 
L 1863 2753 
Q 2328 2753 2575 2939 
Q 2822 3125 2822 3475 
Q 2822 3834 2567 4026 
Q 2313 4219 1838 4219 
Q 1578 4219 1281 4162 
Q 984 4106 628 3988 
L 628 4550 
Q 988 4650 1302 4700 
Q 1616 4750 1894 4750 
Q 2613 4750 3031 4423 
Q 3450 4097 3450 3541 
Q 3450 3153 3228 2886 
Q 3006 2619 2597 2516 
z
" transform="scale(0.015625)"/>
       </defs>
       <use xlink:href="#DejaVuSans-33"/>
       <use xlink:href="#DejaVuSans-30" x="63.623047"/>
       <use xlink:href="#DejaVuSans-30" x="127.246094"/>
       <use xlink:href="#DejaVuSans-30" x="190.869141"/>
      </g>
     </g>
    </g>
    <g id="xtick_8">
     <g id="line2d_8">
      <g>
       <use xlink:href="#m80df40bd78" x="563.342188" y="266.112" style="stroke: #000000; stroke-width: 0.8"/>
      </g>
     </g>
     <g id="text_8">
      <!-- 3500 -->
      <g transform="translate(550.617188 280.710438) scale(0.1 -0.1)">
       <use xlink:href="#DejaVuSans-33"/>
       <use xlink:href="#DejaVuSans-35" x="63.623047"/>
       <use xlink:href="#DejaVuSans-30" x="127.246094"/>
       <use xlink:href="#DejaVuSans-30" x="190.869141"/>
      </g>
     </g>
    </g>
    <g id="xtick_9">
     <g id="line2d_9">
      <g>
       <use xlink:href="#m80df40bd78" x="633.092188" y="266.112" style="stroke: #000000; stroke-width: 0.8"/>
      </g>
     </g>
     <g id="text_9">
      <!-- 4000 -->
      <g transform="translate(620.367188 280.710438) scale(0.1 -0.1)">
       <defs>
        <path id="DejaVuSans-34" d="M 2419 4116 
L 825 1625 
L 2419 1625 
L 2419 4116 
z
M 2253 4666 
L 3047 4666 
L 3047 1625 
L 3713 1625 
L 3713 1100 
L 3047 1100 
L 3047 0 
L 2419 0 
L 2419 1100 
L 313 1100 
L 313 1709 
L 2253 4666 
z
" transform="scale(0.015625)"/>
       </defs>
       <use xlink:href="#DejaVuSans-34"/>
       <use xlink:href="#DejaVuSans-30" x="63.623047"/>
       <use xlink:href="#DejaVuSans-30" x="127.246094"/>
       <use xlink:href="#DejaVuSans-30" x="190.869141"/>
      </g>
     </g>
    </g>
   </g>
   <g id="matplotlib.axis_2">
    <g id="ytick_1">
     <g id="line2d_10">
      <defs>
       <path id="m38463f513f" d="M 0 0 
L -3.5 0 
" style="stroke: #000000; stroke-width: 0.8"/>
      </defs>
      <g>
       <use xlink:href="#m38463f513f" x="47.192188" y="256.836435" style="stroke: #000000; stroke-width: 0.8"/>
      </g>
     </g>
     <g id="text_10">
      <!-- −15000 -->
      <g transform="translate(0 260.635653) scale(0.1 -0.1)">
       <defs>
        <path id="DejaVuSans-2212" d="M 678 2272 
L 4684 2272 
L 4684 1741 
L 678 1741 
L 678 2272 
z
" transform="scale(0.015625)"/>
       </defs>
       <use xlink:href="#DejaVuSans-2212"/>
       <use xlink:href="#DejaVuSans-31" x="83.789062"/>
       <use xlink:href="#DejaVuSans-35" x="147.412109"/>
       <use xlink:href="#DejaVuSans-30" x="211.035156"/>
       <use xlink:href="#DejaVuSans-30" x="274.658203"/>
       <use xlink:href="#DejaVuSans-30" x="338.28125"/>
      </g>
     </g>
    </g>
    <g id="ytick_2">
     <g id="line2d_11">
      <g>
       <use xlink:href="#m38463f513f" x="47.192188" y="221.247724" style="stroke: #000000; stroke-width: 0.8"/>
      </g>
     </g>
     <g id="text_11">
      <!-- −10000 -->
      <g transform="translate(0 225.046942) scale(0.1 -0.1)">
       <use xlink:href="#DejaVuSans-2212"/>
       <use xlink:href="#DejaVuSans-31" x="83.789062"/>
       <use xlink:href="#DejaVuSans-30" x="147.412109"/>
       <use xlink:href="#DejaVuSans-30" x="211.035156"/>
       <use xlink:href="#DejaVuSans-30" x="274.658203"/>
       <use xlink:href="#DejaVuSans-30" x="338.28125"/>
      </g>
     </g>
    </g>
    <g id="ytick_3">
     <g id="line2d_12">
      <g>
       <use xlink:href="#m38463f513f" x="47.192188" y="185.659013" style="stroke: #000000; stroke-width: 0.8"/>
      </g>
     </g>
     <g id="text_12">
      <!-- −5000 -->
      <g transform="translate(6.3625 189.458231) scale(0.1 -0.1)">
       <use xlink:href="#DejaVuSans-2212"/>
       <use xlink:href="#DejaVuSans-35" x="83.789062"/>
       <use xlink:href="#DejaVuSans-30" x="147.412109"/>
       <use xlink:href="#DejaVuSans-30" x="211.035156"/>
       <use xlink:href="#DejaVuSans-30" x="274.658203"/>
      </g>
     </g>
    </g>
    <g id="ytick_4">
     <g id="line2d_13">
      <g>
       <use xlink:href="#m38463f513f" x="47.192188" y="150.070302" style="stroke: #000000; stroke-width: 0.8"/>
      </g>
     </g>
     <g id="text_13">
      <!-- 0 -->
      <g transform="translate(33.829688 153.86952) scale(0.1 -0.1)">
       <use xlink:href="#DejaVuSans-30"/>
      </g>
     </g>
    </g>
    <g id="ytick_5">
     <g id="line2d_14">
      <g>
       <use xlink:href="#m38463f513f" x="47.192188" y="114.481591" style="stroke: #000000; stroke-width: 0.8"/>
      </g>
     </g>
     <g id="text_14">
      <!-- 5000 -->
      <g transform="translate(14.742188 118.280809) scale(0.1 -0.1)">
       <use xlink:href="#DejaVuSans-35"/>
       <use xlink:href="#DejaVuSans-30" x="63.623047"/>
       <use xlink:href="#DejaVuSans-30" x="127.246094"/>
       <use xlink:href="#DejaVuSans-30" x="190.869141"/>
      </g>
     </g>
    </g>
    <g id="ytick_6">
     <g id="line2d_15">
      <g>
       <use xlink:href="#m38463f513f" x="47.192188" y="78.89288" style="stroke: #000000; stroke-width: 0.8"/>
      </g>
     </g>
     <g id="text_15">
      <!-- 10000 -->
      <g transform="translate(8.379688 82.692098) scale(0.1 -0.1)">
       <use xlink:href="#DejaVuSans-31"/>
       <use xlink:href="#DejaVuSans-30" x="63.623047"/>
       <use xlink:href="#DejaVuSans-30" x="127.246094"/>
       <use xlink:href="#DejaVuSans-30" x="190.869141"/>
       <use xlink:href="#DejaVuSans-30" x="254.492188"/>
      </g>
     </g>
    </g>
    <g id="ytick_7">
     <g id="line2d_16">
      <g>
       <use xlink:href="#m38463f513f" x="47.192188" y="43.304169" style="stroke: #000000; stroke-width: 0.8"/>
      </g>
     </g>
     <g id="text_16">
      <!-- 15000 -->
      <g transform="translate(8.379688 47.103387) scale(0.1 -0.1)">
       <use xlink:href="#DejaVuSans-31"/>
       <use xlink:href="#DejaVuSans-35" x="63.623047"/>
       <use xlink:href="#DejaVuSans-30" x="127.246094"/>
       <use xlink:href="#DejaVuSans-30" x="190.869141"/>
       <use xlink:href="#DejaVuSans-30" x="254.492188"/>
      </g>
     </g>
    </g>
    <g id="ytick_8">
     <g id="line2d_17">
      <g>
       <use xlink:href="#m38463f513f" x="47.192188" y="7.715458" style="stroke: #000000; stroke-width: 0.8"/>
      </g>
     </g>
     <g id="text_17">
      <!-- 20000 -->
      <g transform="translate(8.379688 11.514676) scale(0.1 -0.1)">
       <use xlink:href="#DejaVuSans-32"/>
       <use xlink:href="#DejaVuSans-30" x="63.623047"/>
       <use xlink:href="#DejaVuSans-30" x="127.246094"/>
       <use xlink:href="#DejaVuSans-30" x="190.869141"/>
       <use xlink:href="#DejaVuSans-30" x="254.492188"/>
      </g>
     </g>
    </g>
   </g>
   <g id="line2d_18">
    <path d="M 75.092188 150.06846 
L 83.551005 150.108123 
L 83.832966 150.029563 
L 84.114926 150.114319 
L 84.396887 150.022567 
L 84.678847 150.122294 
L 84.960808 150.013375 
L 85.242769 150.133022 
L 85.524729 150.000672 
L 85.80669 150.148324 
L 86.08865 149.981858 
L 86.370611 150.172047 
L 86.652572 149.950974 
L 86.934532 150.213968 
L 87.216493 149.890724 
L 87.498453 150.308119 
L 87.780414 149.722171 
L 88.062374 150.703372 
L 88.344335 146.634465 
L 88.626296 145.894599 
L 88.908256 151.066068 
L 89.472177 156.746431 
L 90.60002 168.093002 
L 90.88198 168.695173 
L 91.163941 167.856345 
L 91.445901 164.439719 
L 91.727862 156.898188 
L 93.137665 92.147605 
L 93.419626 86.083555 
L 93.701586 84.000797 
L 93.983547 83.426542 
L 94.265507 85.903605 
L 95.67531 132.777687 
L 96.239231 156.882549 
L 96.521192 161.906315 
L 96.803153 163.701406 
L 97.649034 170.690417 
L 98.212956 167.104699 
L 98.776877 165.77312 
L 99.340798 162.749625 
L 99.622758 163.120997 
L 100.18668 168.90424 
L 100.46864 168.258652 
L 100.750601 164.935127 
L 101.032561 163.122761 
L 101.314522 163.231438 
L 101.596483 160.653357 
L 102.160404 151.61152 
L 102.442364 152.741833 
L 102.724325 154.992363 
L 103.006286 155.796236 
L 103.288246 155.237993 
L 103.570207 154.326525 
L 103.852167 154.114341 
L 104.134128 155.132178 
L 104.416088 155.437252 
L 104.698049 154.830926 
L 104.98001 155.931568 
L 105.543931 161.577366 
L 106.107852 163.036105 
L 106.389813 163.033456 
L 106.671773 162.489783 
L 106.953734 162.579303 
L 107.235694 162.336147 
L 107.517655 162.326119 
L 107.799615 165.951509 
L 108.081576 172.310535 
L 108.363537 175.853339 
L 108.645497 177.967699 
L 109.209418 191.508179 
L 109.491379 191.889441 
L 110.0553 179.697786 
L 110.337261 167.239936 
L 111.183143 109.708587 
L 111.747064 86.549105 
L 112.029024 80.181646 
L 112.310985 78.025262 
L 112.874906 68.363676 
L 113.156867 73.416423 
L 114.56667 140.974312 
L 114.84863 147.962049 
L 115.130591 151.88216 
L 115.694512 165.22373 
L 115.976472 166.828996 
L 116.258433 166.045335 
L 116.540394 166.26221 
L 116.822354 166.723034 
L 117.104315 165.173605 
L 117.668236 159.248831 
L 117.950197 159.108553 
L 118.232157 158.174796 
L 118.514118 155.698463 
L 118.796078 154.926063 
L 119.078039 154.482038 
L 119.36 151.168564 
L 119.64196 149.692262 
L 120.205881 160.245931 
L 120.487842 160.814232 
L 120.769802 163.989647 
L 121.051763 172.77832 
L 121.333724 177.512775 
L 121.897645 173.047148 
L 122.179605 173.593157 
L 122.461566 171.42008 
L 122.743527 168.370414 
L 123.025487 168.453594 
L 123.307448 168.125768 
L 123.589408 164.652239 
L 123.871369 162.834259 
L 124.717251 168.61823 
L 124.999211 171.3699 
L 125.281172 172.829105 
L 125.563132 172.333903 
L 125.845093 173.987566 
L 126.409014 182.599237 
L 126.972935 188.013464 
L 127.254896 190.949492 
L 127.536857 191.35127 
L 127.818817 189.848398 
L 128.100778 185.466997 
L 128.382738 174.436731 
L 130.074502 76.980572 
L 130.638423 62.571535 
L 130.920384 56.722885 
L 131.202344 54.080909 
L 131.484305 56.020456 
L 131.766265 62.710214 
L 132.330186 90.38634 
L 133.458029 153.063926 
L 134.02195 162.851697 
L 134.303911 166.798411 
L 134.585871 166.986967 
L 134.867832 163.543405 
L 135.149792 161.832408 
L 136.277635 167.020574 
L 136.559595 166.239713 
L 137.405477 159.835414 
L 137.687438 159.057505 
L 137.969398 162.346507 
L 138.251359 167.164185 
L 138.533319 168.11346 
L 138.81528 166.26234 
L 139.097241 166.859964 
L 139.379201 168.389508 
L 139.661162 165.231706 
L 139.943122 158.83722 
L 140.225083 156.248604 
L 140.789004 160.934169 
L 141.070965 161.458207 
L 141.352925 162.477449 
L 141.634886 164.157744 
L 142.198807 165.796558 
L 142.762728 170.640796 
L 143.044689 171.395403 
L 143.326649 173.461248 
L 143.890571 181.428671 
L 144.454492 182.572158 
L 145.582334 191.817013 
L 145.864295 192.874691 
L 146.146255 193.330844 
L 146.428216 191.62401 
L 146.710176 183.723309 
L 147.274098 150.539885 
L 148.40194 75.09643 
L 148.965861 56.385726 
L 149.247822 51.345324 
L 149.529782 51.055325 
L 149.811743 53.505222 
L 150.093703 57.81769 
L 150.375664 65.366045 
L 150.657625 76.802049 
L 151.221546 112.666557 
L 151.785467 144.076889 
L 152.349388 160.93652 
L 152.631349 163.067005 
L 152.913309 161.559093 
L 153.19527 162.202183 
L 153.47723 163.204798 
L 154.041152 157.056765 
L 154.605073 165.647364 
L 154.887033 165.582649 
L 155.168994 164.484849 
L 155.450955 165.52459 
L 155.732915 165.361247 
L 156.014876 163.464701 
L 156.578797 161.64345 
L 156.860757 160.951881 
L 157.424679 164.961471 
L 157.9886 161.749813 
L 158.552521 165.680694 
L 158.834482 164.339493 
L 159.116442 165.694434 
L 159.398403 170.578714 
L 159.680363 171.978909 
L 159.962324 168.802757 
L 160.244285 167.063265 
L 160.526245 168.706801 
L 161.372127 175.116978 
L 161.654087 175.273607 
L 161.936048 175.631534 
L 162.78193 183.12529 
L 163.909772 196.780843 
L 164.191733 199.119926 
L 164.473693 198.44159 
L 164.755654 190.678081 
L 165.319575 164.515723 
L 167.011339 61.66 
L 167.293299 52.778317 
L 167.57526 47.778092 
L 167.85722 46.250468 
L 168.139181 49.118636 
L 168.703102 64.69233 
L 168.985063 76.074687 
L 170.394866 153.483235 
L 170.676826 158.971522 
L 170.958787 161.638034 
L 171.522708 163.242375 
L 171.804669 164.616265 
L 172.086629 164.902687 
L 172.65055 161.793219 
L 172.932511 161.337422 
L 173.214471 161.76463 
L 173.496432 161.601131 
L 174.060353 158.679546 
L 174.342314 159.54432 
L 174.906235 164.044686 
L 175.188196 163.712719 
L 175.470156 163.185154 
L 175.752117 164.164463 
L 176.597999 169.664969 
L 176.879959 172.687709 
L 177.16192 174.451644 
L 177.44388 174.76985 
L 177.725841 175.665497 
L 178.007801 177.143565 
L 178.289762 177.46485 
L 178.571723 177.541472 
L 179.417604 182.32377 
L 179.699565 182.465646 
L 179.981526 183.305049 
L 180.263486 185.746158 
L 181.391328 202.803412 
L 182.23721 211.981198 
L 182.519171 209.845981 
L 182.801131 203.131831 
L 183.365053 180.560673 
L 183.647013 160.095903 
L 184.210934 104.790577 
L 185.620737 26.459097 
L 185.902698 24.756808 
L 186.184658 26.975567 
L 186.466619 33.046315 
L 186.74858 44.789978 
L 187.312501 82.859238 
L 188.158383 142.32229 
L 188.722304 168.228517 
L 189.004264 171.626229 
L 189.568185 172.922235 
L 189.850146 173.892969 
L 190.132107 174.3239 
L 190.414067 173.032065 
L 191.82387 158.61052 
L 192.387791 159.601641 
L 192.951713 156.07971 
L 193.233673 156.902651 
L 194.361515 165.010905 
L 194.643476 165.850007 
L 195.207397 170.468446 
L 195.489358 171.290697 
L 195.771318 173.073629 
L 196.33524 181.02779 
L 196.6172 180.183424 
L 196.899161 178.663355 
L 197.181121 179.637969 
L 197.745042 183.131121 
L 198.308964 185.411113 
L 198.590924 186.286993 
L 198.872885 188.281302 
L 200.000727 201.017222 
L 200.282688 200.964022 
L 200.564648 200.739611 
L 200.846609 201.253966 
L 201.12857 198.546687 
L 201.41053 189.132895 
L 201.974451 155.097558 
L 202.820333 87.821115 
L 203.666215 45.984175 
L 203.948175 37.136165 
L 204.230136 34.6544 
L 204.512097 36.422305 
L 204.794057 40.896664 
L 205.076018 48.963811 
L 205.639939 79.249257 
L 206.485821 136.159678 
L 207.049742 160.434142 
L 207.331702 168.933907 
L 207.613663 172.234379 
L 207.895624 172.481609 
L 208.459545 174.47863 
L 208.741505 172.723088 
L 210.151308 153.806613 
L 210.433269 155.378302 
L 210.715229 159.212141 
L 210.99719 160.627279 
L 211.279151 160.488766 
L 211.843072 162.344996 
L 212.125032 162.460747 
L 212.406993 163.499445 
L 212.970914 167.316223 
L 213.534835 169.829554 
L 213.816796 170.492024 
L 214.098756 171.768448 
L 215.226599 186.080329 
L 215.508559 189.331322 
L 215.79052 190.459837 
L 216.072481 189.016068 
L 216.354441 188.860947 
L 216.636402 191.852431 
L 217.482284 203.339217 
L 218.328165 210.640354 
L 218.610126 207.148177 
L 218.892086 196.556985 
L 219.456008 162.305027 
L 220.58385 72.504293 
L 221.147771 43.237373 
L 221.429732 32.476308 
L 221.711692 26.651584 
L 221.993653 27.954577 
L 222.557574 43.127271 
L 222.839535 56.092471 
L 224.249338 152.263625 
L 224.531298 165.183915 
L 224.813259 171.781396 
L 225.095219 172.704462 
L 225.37718 172.426662 
L 225.659141 174.016495 
L 225.941101 176.474702 
L 226.223062 177.641916 
L 226.505022 177.170355 
L 226.786983 175.457143 
L 227.350904 168.524686 
L 227.914825 162.509028 
L 228.196786 161.560989 
L 228.478746 161.579422 
L 228.760707 161.710086 
L 229.042668 162.167633 
L 229.324628 163.434101 
L 229.606589 163.760021 
L 229.888549 162.117791 
L 230.17051 162.985436 
L 230.734431 177.106707 
L 231.016392 177.028978 
L 231.298352 174.669855 
L 231.862273 182.080247 
L 232.144234 180.231519 
L 232.426195 176.99066 
L 232.708155 179.816453 
L 232.990116 185.630419 
L 233.272076 188.658376 
L 233.554037 190.382749 
L 234.681879 202.3157 
L 235.2458 211.699884 
L 235.527761 213.839245 
L 235.809722 214.726156 
L 236.091682 212.857395 
L 236.373643 204.033143 
L 236.937564 162.668681 
L 237.783446 93.982778 
L 238.629327 39.760449 
L 238.911288 28.86436 
L 239.193249 25.537466 
L 239.475209 26.664653 
L 239.75717 29.687127 
L 240.03913 35.380594 
L 240.321091 45.988975 
L 242.012855 142.774864 
L 242.294815 152.271039 
L 242.858736 163.152807 
L 243.140697 169.191128 
L 243.422657 171.819214 
L 243.986579 174.114681 
L 244.268539 173.535116 
L 244.5505 172.027046 
L 244.83246 172.536315 
L 245.114421 173.651687 
L 245.396382 172.091946 
L 245.678342 169.127515 
L 245.960303 168.101418 
L 246.524224 169.863096 
L 246.806184 169.27213 
L 247.370106 166.907083 
L 247.934027 165.425724 
L 248.215987 164.660223 
L 248.497948 165.023005 
L 248.779909 165.699451 
L 249.061869 164.705181 
L 249.34383 162.591294 
L 249.62579 161.838726 
L 249.907751 162.156729 
L 250.189712 160.657825 
L 250.471672 157.561793 
L 250.753633 156.860077 
L 251.317554 162.143024 
L 251.599514 162.244037 
L 251.881475 163.416957 
L 252.727357 175.89857 
L 253.009317 178.626025 
L 253.573239 186.127286 
L 254.13716 191.287974 
L 254.41912 194.836082 
L 254.701081 196.745267 
L 254.983041 197.823145 
L 255.265002 201.176773 
L 255.828923 210.9543 
L 256.392844 215.813179 
L 256.674805 216.240777 
L 256.956766 211.811454 
L 257.238726 200.29468 
L 257.802647 156.615522 
L 258.93049 56.834614 
L 259.494411 27.020864 
L 259.776371 19.495937 
L 260.058332 17.383644 
L 260.340293 17.062293 
L 260.622253 17.907788 
L 260.904214 26.502327 
L 262.877938 154.887024 
L 263.441859 173.33875 
L 263.72382 178.746168 
L 264.00578 181.291796 
L 264.287741 182.344751 
L 264.569701 181.33081 
L 265.415583 165.79274 
L 265.697544 164.894813 
L 266.261465 154.934872 
L 266.543425 157.874829 
L 266.825386 166.621936 
L 267.107347 168.589448 
L 267.389307 163.461548 
L 267.671268 162.853498 
L 267.953228 167.54329 
L 268.235189 167.005796 
L 268.51715 160.396802 
L 268.79911 157.345168 
L 269.363031 162.334549 
L 269.644992 163.117255 
L 271.054795 177.350218 
L 271.336755 180.629429 
L 271.900677 184.415809 
L 272.746558 193.02788 
L 273.028519 195.079933 
L 273.59244 197.016363 
L 274.156361 203.876145 
L 275.284204 217.11936 
L 275.566164 216.444116 
L 275.848125 210.370927 
L 276.130085 197.801871 
L 276.694007 153.994282 
L 277.539888 78.512679 
L 278.10381 42.465322 
L 278.38577 30.619004 
L 278.667731 24.946883 
L 278.949691 24.01458 
L 279.231652 26.865063 
L 279.795573 39.027412 
L 280.077534 47.50095 
L 280.641455 79.689307 
L 282.051258 162.254998 
L 282.333218 170.13169 
L 282.615179 173.320376 
L 283.1791 175.015819 
L 283.461061 175.361227 
L 283.743021 174.227943 
L 284.306942 170.02053 
L 284.588903 166.460497 
L 285.152824 158.001149 
L 286.280667 154.669004 
L 287.126548 156.823304 
L 287.690469 160.938418 
L 287.97243 163.171827 
L 288.254391 164.229477 
L 288.536351 163.793668 
L 288.818312 164.667669 
L 289.382233 174.567207 
L 289.664194 176.109522 
L 289.946154 178.586996 
L 290.792036 203.122216 
L 291.073996 203.808866 
L 291.355957 205.042228 
L 291.637918 205.528836 
L 292.201839 202.127839 
L 292.483799 203.400385 
L 292.76576 207.418296 
L 293.611642 224.622509 
L 294.175563 228.195642 
L 294.457524 225.083004 
L 294.739484 213.185621 
L 295.303405 167.375495 
L 296.431248 65.061248 
L 296.713208 42.116605 
L 296.995169 28.338572 
L 297.277129 23.422495 
L 297.841051 17.984773 
L 298.123011 19.950578 
L 298.686932 36.882302 
L 299.250853 62.119279 
L 300.942617 152.086816 
L 301.506538 166.626348 
L 302.070459 173.440748 
L 302.35242 173.228344 
L 302.634381 171.287114 
L 302.916341 170.577642 
L 303.198302 170.709732 
L 303.480262 170.022383 
L 303.762223 168.832637 
L 304.044183 166.7758 
L 304.608105 159.747405 
L 304.890065 159.405555 
L 305.172026 159.510938 
L 305.453986 158.033643 
L 305.735947 157.828767 
L 306.299868 164.260365 
L 306.581829 165.250396 
L 306.863789 165.18094 
L 307.14575 166.683962 
L 307.709671 176.655235 
L 308.273592 184.561922 
L 308.555553 188.294486 
L 309.401435 206.772401 
L 309.683395 207.747493 
L 309.965356 207.238307 
L 310.247316 207.034716 
L 310.529277 209.154919 
L 311.375159 226.425993 
L 311.657119 233.648339 
L 312.22104 254.016 
L 312.503001 253.239247 
L 312.784962 240.879817 
L 313.348883 196.641042 
L 314.758686 48.04088 
L 315.322607 25.934836 
L 315.886528 13.524483 
L 316.168489 12.096 
L 316.450449 14.942061 
L 317.01437 25.609099 
L 317.296331 34.15723 
L 317.860252 61.101164 
L 319.552016 146.53695 
L 320.115937 163.461094 
L 320.397897 168.659426 
L 320.679858 171.729267 
L 321.243779 186.231454 
L 321.52574 188.102966 
L 321.8077 185.527745 
L 322.089661 185.693181 
L 322.371622 186.648233 
L 322.653582 181.790004 
L 323.217503 167.034713 
L 323.499464 166.002235 
L 324.063385 167.847353 
L 324.345346 167.686611 
L 324.627306 167.826978 
L 324.909267 169.904822 
L 325.473188 178.606192 
L 325.755149 179.995402 
L 326.31907 176.032482 
L 326.60103 179.058593 
L 328.010833 205.120696 
L 329.138676 215.900622 
L 329.420636 220.749521 
L 330.266518 238.794562 
L 330.548479 242.292976 
L 330.830439 243.117055 
L 331.1124 239.353086 
L 331.39436 228.699244 
L 331.676321 208.097876 
L 333.086124 64.363427 
L 333.650045 29.982547 
L 333.932006 20.923572 
L 334.213966 17.311695 
L 334.495927 15.777455 
L 334.777887 14.895003 
L 335.059848 18.567936 
L 335.623769 35.373077 
L 335.90573 39.318683 
L 336.18769 45.593025 
L 337.033572 87.283816 
L 338.161414 135.818536 
L 338.725336 152.213949 
L 339.007296 161.168746 
L 339.289257 173.705923 
L 339.571217 181.143386 
L 339.853178 181.09342 
L 340.135138 181.757859 
L 340.417099 184.851916 
L 340.69906 183.140226 
L 340.98102 176.488329 
L 341.262981 172.557937 
L 341.826902 173.681732 
L 342.390823 173.161305 
L 342.954744 171.280875 
L 343.236705 172.134216 
L 343.800626 175.541767 
L 344.082587 176.662708 
L 344.928468 183.366852 
L 345.49239 190.396594 
L 345.77435 192.689966 
L 346.056311 197.2201 
L 346.620232 214.749419 
L 346.902193 218.449217 
L 347.184153 219.42663 
L 347.466114 221.63384 
L 348.030035 229.286409 
L 349.157877 249.297985 
L 349.439838 249.843229 
L 349.721798 242.943532 
L 350.003759 227.00092 
L 350.56768 171.417054 
L 351.413562 70.176055 
L 351.977483 33.935699 
L 352.259444 23.742399 
L 352.541404 17.774564 
L 352.823365 15.859446 
L 353.105325 17.291787 
L 353.951207 26.301984 
L 354.515128 44.206478 
L 355.07905 70.052301 
L 355.642971 99.592074 
L 357.898655 167.22136 
L 358.180616 169.120718 
L 359.026498 178.872628 
L 359.308458 179.048922 
L 359.87238 177.670273 
L 360.15434 178.030252 
L 360.436301 178.999699 
L 360.718261 178.07827 
L 361.000222 176.557789 
L 361.282182 177.917124 
L 361.564143 180.702579 
L 361.846104 181.450123 
L 362.128064 181.252484 
L 362.410025 181.239901 
L 362.691985 178.643719 
L 362.973946 174.254325 
L 363.255907 173.978336 
L 363.819828 181.612587 
L 364.101788 183.236736 
L 364.94767 192.603027 
L 365.229631 197.241015 
L 365.511591 203.72148 
L 366.357473 216.03571 
L 366.639434 222.807372 
L 366.921394 226.695835 
L 367.203355 232.344033 
L 367.767276 247.496424 
L 368.331197 248.289174 
L 368.613158 245.212766 
L 368.895118 231.041209 
L 369.459039 183.612052 
L 370.586882 46.070337 
L 371.150803 21.190888 
L 371.432764 15.646611 
L 372.560606 26.118445 
L 373.124527 36.480271 
L 373.688448 63.599258 
L 374.53433 104.95362 
L 375.098251 124.124874 
L 376.226094 144.621299 
L 377.071975 155.035617 
L 377.635896 167.245295 
L 378.199818 175.293147 
L 378.481778 180.3074 
L 378.763739 180.120125 
L 379.045699 175.265405 
L 379.32766 172.788464 
L 379.609621 172.351151 
L 380.173542 160.957394 
L 380.455502 162.451251 
L 380.737463 169.516997 
L 381.019423 172.404734 
L 381.301384 171.005315 
L 381.583345 170.725875 
L 382.147266 171.750961 
L 382.429226 175.955209 
L 382.993148 186.611792 
L 383.275108 191.066192 
L 384.12099 214.333013 
L 384.966872 223.604338 
L 385.248832 223.997467 
L 385.530793 223.755114 
L 385.812753 226.427584 
L 386.658635 243.7245 
L 386.940596 247.00048 
L 387.222556 248.111464 
L 387.504517 238.90119 
L 388.068438 186.044596 
L 389.19628 59.216226 
L 389.760202 40.806934 
L 390.042162 36.552563 
L 390.324123 36.167268 
L 390.606083 33.920384 
L 390.888044 29.728536 
L 391.170005 29.588809 
L 391.733926 38.241661 
L 392.015886 45.920244 
L 392.861768 78.675037 
L 394.835492 148.744469 
L 395.399413 163.690187 
L 395.681374 171.935134 
L 395.963335 172.908377 
L 396.527256 165.808615 
L 396.809216 164.377837 
L 397.091177 161.062687 
L 397.373137 159.144092 
L 397.937059 165.004706 
L 398.219019 164.808545 
L 398.50098 163.950151 
L 398.78294 165.418349 
L 399.346862 170.906865 
L 399.628822 172.125783 
L 399.910783 172.071834 
L 400.192743 172.752567 
L 401.038625 180.356876 
L 401.602546 183.615494 
L 401.884507 185.925975 
L 403.29431 205.61609 
L 403.858231 218.77172 
L 404.422152 226.998903 
L 404.986073 234.568682 
L 405.549994 244.057794 
L 405.831955 246.50271 
L 406.113916 245.142043 
L 406.395876 234.719649 
L 406.959797 184.486157 
L 407.805679 87.909616 
L 408.3696 62.220951 
L 408.651561 50.824786 
L 408.933522 44.696653 
L 409.215482 46.274547 
L 409.497443 47.171197 
L 410.061364 40.159892 
L 410.343324 43.310708 
L 410.907246 61.380077 
L 412.317049 107.102204 
L 412.88097 123.401828 
L 413.726851 151.832515 
L 414.008812 156.017758 
L 414.290773 155.419085 
L 414.572733 153.293316 
L 414.854694 154.072513 
L 415.136654 156.594616 
L 415.418615 157.235007 
L 415.700576 156.920544 
L 415.982536 158.007943 
L 416.546457 160.529093 
L 416.828418 161.679624 
L 417.110379 162.357676 
L 417.6743 160.388647 
L 417.95626 160.899815 
L 418.520181 163.673456 
L 418.802142 164.424942 
L 419.084103 164.659286 
L 419.366063 166.450953 
L 420.211945 182.700249 
L 420.775866 184.885446 
L 421.057827 187.745502 
L 421.903708 199.607604 
L 422.185669 202.386781 
L 423.031551 219.091299 
L 423.313511 219.096859 
L 423.595472 222.526114 
L 423.877433 228.857 
L 424.159393 230.732016 
L 424.441354 228.532767 
L 424.723314 230.298096 
L 425.005275 236.553434 
L 425.287236 238.614626 
L 425.569196 231.162577 
L 425.851157 215.401796 
L 426.415078 162.287016 
L 427.26096 72.966335 
L 427.54292 56.304755 
L 427.824881 47.134871 
L 428.106841 42.931695 
L 428.388802 42.125092 
L 428.670763 43.132913 
L 428.952723 43.146622 
L 429.234684 42.868247 
L 429.516644 47.46041 
L 430.080565 67.573777 
L 430.644487 77.771972 
L 432.33625 129.944376 
L 433.746053 159.840884 
L 434.028014 159.867247 
L 434.309974 157.698507 
L 434.591935 157.699673 
L 434.873895 157.880697 
L 435.155856 154.153025 
L 435.437817 148.739204 
L 435.719777 146.621422 
L 436.001738 146.948068 
L 436.283698 146.697421 
L 436.565659 148.35361 
L 437.12958 161.365914 
L 437.411541 164.414208 
L 437.693501 166.233987 
L 438.257422 174.920599 
L 438.539383 176.039994 
L 439.103304 169.334379 
L 439.385265 168.96024 
L 439.949186 177.538224 
L 440.231147 181.967358 
L 441.358989 207.024302 
L 441.64095 209.792249 
L 441.92291 214.012121 
L 442.204871 215.608116 
L 442.486831 213.325298 
L 442.768792 212.657474 
L 443.614674 224.358836 
L 444.178595 239.258872 
L 444.460555 240.945012 
L 444.742516 231.542383 
L 445.024477 213.760569 
L 445.588398 157.798629 
L 446.152319 102.23735 
L 446.71624 68.822701 
L 446.998201 61.410197 
L 447.562122 54.665347 
L 447.844082 57.76835 
L 448.126043 65.515489 
L 448.408004 69.943791 
L 448.689964 70.907525 
L 448.971925 75.621459 
L 449.253885 82.991801 
L 449.535846 86.40437 
L 449.817806 87.809971 
L 450.099767 93.378783 
L 450.663688 107.724579 
L 450.945649 111.840389 
L 451.227609 117.764211 
L 451.791531 134.414096 
L 452.073491 138.964478 
L 452.919373 147.372161 
L 453.201334 147.713336 
L 453.483294 147.737209 
L 453.765255 148.932725 
L 454.047215 149.290511 
L 454.611136 146.919853 
L 455.175058 146.96773 
L 455.457018 146.76033 
L 455.738979 146.911678 
L 456.020939 148.379238 
L 456.584861 156.600234 
L 457.430742 172.666966 
L 457.712703 175.157862 
L 457.994663 176.371643 
L 459.122506 187.07801 
L 460.250348 203.109811 
L 461.378191 214.730512 
L 461.942112 226.225309 
L 462.224072 232.60339 
L 462.506033 233.900539 
L 462.787993 227.921084 
L 463.069954 214.818428 
L 464.197796 125.882434 
L 465.043678 88.844554 
L 465.325639 85.597879 
L 465.607599 84.222125 
L 466.17152 73.617652 
L 466.453481 74.273216 
L 466.735442 78.86502 
L 467.017402 81.143723 
L 467.299363 81.9917 
L 467.581323 88.238507 
L 468.145245 109.670433 
L 469.273087 127.839862 
L 470.400929 144.443944 
L 470.68289 146.083638 
L 471.246811 151.159308 
L 471.528772 151.974882 
L 471.810732 151.335078 
L 472.092693 149.926594 
L 472.374653 149.42931 
L 472.656614 149.157428 
L 472.938575 145.887251 
L 473.220535 140.990542 
L 473.502496 140.479858 
L 474.066417 148.456026 
L 474.348377 147.700431 
L 474.630338 147.456696 
L 474.912299 152.588671 
L 475.47622 166.159549 
L 475.75818 167.327953 
L 476.040141 169.472313 
L 476.604062 178.456023 
L 477.167983 186.381304 
L 477.449944 189.937568 
L 477.731905 191.418963 
L 478.013865 195.67754 
L 478.295826 202.320748 
L 478.577786 203.867053 
L 478.859747 201.221216 
L 479.141707 202.941599 
L 479.705629 214.678214 
L 480.26955 221.992137 
L 480.55151 219.738743 
L 481.115432 203.943608 
L 481.397392 188.957838 
L 482.243274 126.194168 
L 482.807195 103.562313 
L 483.089156 95.931436 
L 483.371116 92.435889 
L 483.935037 88.893839 
L 484.498959 86.508833 
L 484.780919 86.244185 
L 485.06288 88.573215 
L 485.626801 94.181139 
L 485.908762 95.922886 
L 486.190722 99.425742 
L 487.318564 119.661861 
L 487.882486 128.902985 
L 488.728367 148.25804 
L 489.010328 149.954241 
L 489.292289 149.412246 
L 489.574249 150.834691 
L 489.85621 153.825386 
L 490.13817 154.090168 
L 490.420131 152.272454 
L 490.702091 153.114396 
L 490.984052 155.170437 
L 491.266013 153.072123 
L 491.547973 148.654502 
L 491.829934 147.821984 
L 492.111894 149.324043 
L 492.675816 147.990229 
L 492.957776 150.480691 
L 493.239737 154.227075 
L 493.521697 156.08724 
L 493.803658 156.870735 
L 494.085619 158.729607 
L 495.213461 172.77607 
L 495.777382 182.072236 
L 496.341303 186.350998 
L 496.623264 192.845549 
L 497.187185 211.012748 
L 498.315027 226.87497 
L 498.596988 222.868253 
L 498.878948 211.506396 
L 499.72483 157.01069 
L 500.288751 122.075353 
L 500.570712 109.787761 
L 500.852673 103.53099 
L 501.134633 101.734081 
L 501.416594 101.305235 
L 501.698554 101.593604 
L 502.262476 104.717633 
L 502.544436 104.73169 
L 502.826397 104.376175 
L 503.108357 105.189625 
L 503.390318 107.586484 
L 504.800121 128.646976 
L 505.082081 130.596778 
L 505.364042 130.272747 
L 505.646003 130.372448 
L 506.491884 136.468447 
L 506.773845 136.004424 
L 507.055805 134.994704 
L 507.337766 137.019631 
L 507.901687 150.77964 
L 508.183648 152.273039 
L 508.465608 151.140138 
L 509.02953 153.416679 
L 509.593451 151.666569 
L 510.157372 155.676073 
L 510.721293 156.849983 
L 511.285214 160.736266 
L 512.131096 168.316258 
L 512.413057 170.118435 
L 512.976978 177.024574 
L 513.540899 183.365508 
L 514.668741 193.416341 
L 515.232662 201.216721 
L 515.514623 203.709529 
L 515.796584 204.735447 
L 516.078544 203.800088 
L 516.360505 198.383596 
L 516.642465 185.62163 
L 517.488347 134.650027 
L 518.052268 120.04464 
L 518.89815 107.943603 
L 519.180111 106.621948 
L 519.462071 105.891848 
L 519.744032 106.47995 
L 520.307953 111.361155 
L 520.589914 111.17758 
L 520.871874 112.385175 
L 521.435795 117.925038 
L 521.717756 120.013944 
L 522.281677 129.588601 
L 522.563638 132.089427 
L 523.127559 140.266991 
L 523.409519 140.393626 
L 523.69148 140.706483 
L 524.255401 154.032843 
L 524.537362 153.377425 
L 524.819322 150.458448 
L 525.101283 150.737029 
L 525.383244 150.366532 
L 525.665204 147.929468 
L 525.947165 148.027893 
L 526.229125 150.544959 
L 527.075007 155.035059 
L 527.356968 152.336309 
L 527.638928 146.457981 
L 527.920889 144.668197 
L 528.202849 147.336319 
L 528.48481 148.502045 
L 528.766771 147.661706 
L 529.048731 148.23221 
L 529.330692 149.376797 
L 529.612652 149.536167 
L 529.894613 150.520233 
L 530.458534 154.539485 
L 530.740495 155.222486 
L 531.022455 155.281318 
L 531.304416 154.164284 
L 531.586376 153.694769 
L 531.868337 156.73802 
L 532.150298 161.371034 
L 532.432258 163.700851 
L 532.996179 164.047992 
L 533.27814 165.601173 
L 534.124022 176.073405 
L 534.405982 176.759968 
L 535.251864 189.44016 
L 535.533825 191.426377 
L 536.097746 203.397942 
L 536.379706 203.93134 
L 536.943628 200.118497 
L 537.225588 195.524563 
L 537.507549 185.46427 
L 538.635391 127.139093 
L 539.199312 118.689749 
L 540.045194 106.897718 
L 540.327155 105.538952 
L 540.609115 105.016783 
L 540.891076 104.01172 
L 541.173036 103.894065 
L 541.454997 106.723083 
L 542.018918 114.134381 
L 542.300879 115.992628 
L 542.582839 118.993942 
L 544.274603 144.638704 
L 544.556563 144.200396 
L 544.838524 145.188984 
L 545.120485 147.913804 
L 545.402445 148.119756 
L 545.684406 146.446511 
L 545.966366 147.804451 
L 546.530288 155.265657 
L 546.812248 156.998174 
L 547.094209 156.933863 
L 547.376169 153.236129 
L 547.65813 147.825746 
L 547.94009 145.252564 
L 548.504012 145.692781 
L 548.785972 146.412441 
L 549.067933 149.952445 
L 549.631854 159.153013 
L 549.913815 160.804746 
L 550.477736 160.170691 
L 550.759696 161.782843 
L 551.041657 164.160742 
L 551.605578 167.242535 
L 552.169499 172.474583 
L 552.45146 172.627861 
L 552.73342 174.385213 
L 553.297342 182.409438 
L 553.861263 187.865837 
L 554.143223 189.004156 
L 554.425184 189.081108 
L 554.707145 190.587379 
L 554.989105 190.594516 
L 555.271066 183.1426 
L 555.834987 160.84334 
L 556.398908 144.265818 
L 556.962829 125.089909 
L 557.52675 117.473841 
L 558.090672 112.742878 
L 558.654593 110.575176 
L 558.936553 112.423738 
L 559.500475 121.951372 
L 560.064396 128.307757 
L 560.346356 132.934053 
L 560.628317 135.375695 
L 560.910277 135.640821 
L 561.192238 138.069099 
L 561.474199 142.169814 
L 561.756159 143.315724 
L 562.03812 142.186044 
L 562.32008 142.755091 
L 562.602041 144.031324 
L 562.884002 144.390469 
L 563.447923 147.916871 
L 563.729883 145.691399 
L 564.011844 141.042227 
L 564.293804 139.780117 
L 565.421647 148.210175 
L 565.703607 147.763216 
L 565.985568 147.676726 
L 566.549489 152.275131 
L 566.83145 150.724242 
L 567.11341 151.328294 
L 567.677332 163.416717 
L 568.805174 175.905526 
L 569.087134 175.883287 
L 569.651056 173.790486 
L 569.933016 174.548494 
L 570.496937 178.840624 
L 570.778898 179.671475 
L 571.060859 181.435208 
L 571.62478 190.066295 
L 571.90674 191.636255 
L 572.188701 190.223048 
L 572.470661 187.135126 
L 572.752622 181.74349 
L 574.444386 129.136602 
L 574.726346 123.729575 
L 575.008307 121.46512 
L 575.290267 120.319567 
L 576.136149 114.235656 
L 576.41811 114.382682 
L 576.982031 117.155969 
L 577.263991 118.731429 
L 577.545952 121.409509 
L 577.827913 126.334179 
L 578.673794 146.909448 
L 578.955755 147.671866 
L 579.237716 145.977878 
L 579.519676 146.54477 
L 579.801637 149.213597 
L 580.083597 149.807157 
L 580.647518 146.0815 
L 580.929479 145.750814 
L 581.21144 146.478381 
L 581.4934 146.77373 
L 581.775361 143.370832 
L 582.057321 137.093468 
L 582.339282 134.849095 
L 582.903203 143.706059 
L 583.185164 143.854615 
L 583.467124 143.485056 
L 584.313006 148.72663 
L 584.876927 150.965017 
L 585.158888 151.654145 
L 586.00477 154.634032 
L 586.28673 158.460509 
L 586.850651 171.276334 
L 587.132612 172.198276 
L 587.414573 172.477623 
L 587.696533 175.061335 
L 587.978494 176.111334 
L 588.542415 171.386116 
L 588.824375 175.961781 
L 589.388297 191.235882 
L 589.670257 194.041732 
L 590.234178 196.875346 
L 590.516139 193.746482 
L 592.207903 127.53176 
L 592.489863 122.07237 
L 592.771824 119.936833 
L 593.335745 114.432787 
L 593.617705 114.28606 
L 593.899666 113.635535 
L 594.181627 112.248231 
L 594.463587 112.820321 
L 595.59143 122.517367 
L 595.87339 125.105012 
L 596.437311 133.528068 
L 596.719272 134.103415 
L 597.001232 136.082229 
L 597.565154 148.538744 
L 597.847114 148.242623 
L 598.129075 150.287789 
L 598.411035 157.047004 
L 598.692996 159.411464 
L 598.974957 156.468705 
L 599.256917 156.240668 
L 599.538878 157.73155 
L 599.820838 155.738598 
L 600.102799 155.286007 
L 600.38476 159.395887 
L 600.66672 159.832516 
L 600.948681 154.167548 
L 601.230641 151.074387 
L 601.512602 151.465063 
L 601.794562 148.594967 
L 602.076523 144.388767 
L 602.358484 145.277918 
L 602.640444 148.647023 
L 602.922405 149.862814 
L 603.204365 150.494993 
L 603.486326 151.782277 
L 604.050247 151.385625 
L 604.332208 154.317923 
L 604.896129 165.97861 
L 605.178089 169.444354 
L 605.46005 169.487191 
L 605.742011 168.504717 
L 606.023971 169.868651 
L 606.305932 172.81864 
L 606.869853 176.778938 
L 607.433774 185.719337 
L 607.715735 186.328966 
L 607.997695 183.978039 
L 608.279656 179.734474 
L 609.125538 160.948053 
L 609.407498 157.109979 
L 611.381222 116.259704 
L 611.663183 118.128967 
L 611.945144 118.580875 
L 612.227104 116.699774 
L 612.509065 118.473148 
L 613.354946 136.210136 
L 613.918868 143.205172 
L 614.482789 146.654542 
L 614.764749 146.992871 
L 615.04671 145.946119 
L 615.328671 145.712363 
L 615.892592 151.013092 
L 616.174552 150.716447 
L 616.738474 143.936937 
L 617.020434 144.612 
L 617.302395 146.610703 
L 617.584355 145.936121 
L 617.866316 143.593361 
L 618.148276 143.641574 
L 618.430237 145.084878 
L 618.712198 144.177139 
L 618.994158 141.634051 
L 619.276119 141.14464 
L 619.558079 141.893816 
L 620.122001 140.839312 
L 620.403961 143.186965 
L 620.685922 146.467335 
L 620.967882 147.645459 
L 621.249843 147.666895 
L 622.095725 152.816525 
L 622.377685 155.142475 
L 622.941606 163.839174 
L 623.223567 164.872868 
L 623.505528 164.874625 
L 624.069449 167.148747 
L 624.351409 167.400997 
L 624.63337 169.436024 
L 625.197291 180.099744 
L 625.479252 181.970554 
L 625.761212 180.038269 
L 626.325133 172.713391 
L 627.171015 153.849308 
L 627.452976 152.520568 
L 627.734936 149.421394 
L 628.016897 142.203848 
L 628.298858 138.008298 
L 628.580818 139.044627 
L 628.862779 136.375657 
L 629.4267 117.243956 
L 629.70866 117.946888 
L 629.990621 120.726068 
L 630.272582 119.711846 
L 630.554542 120.759654 
L 631.118463 133.195976 
L 631.682385 137.714112 
L 631.964345 139.672034 
L 632.528266 145.519214 
L 632.810227 147.017622 
L 633.092188 145.695334 
L 633.092188 145.695334 
" clip-path="url(#peb36d6ac02)" style="fill: none; stroke: #1f77b4; stroke-width: 1.5; stroke-linecap: square"/>
   </g>
   <g id="patch_3">
    <path d="M 47.192188 266.112 
L 47.192188 0 
" style="fill: none; stroke: #000000; stroke-width: 0.8; stroke-linejoin: miter; stroke-linecap: square"/>
   </g>
   <g id="patch_4">
    <path d="M 660.992188 266.112 
L 660.992188 0 
" style="fill: none; stroke: #000000; stroke-width: 0.8; stroke-linejoin: miter; stroke-linecap: square"/>
   </g>
   <g id="patch_5">
    <path d="M 47.192188 266.112 
L 660.992188 266.112 
" style="fill: none; stroke: #000000; stroke-width: 0.8; stroke-linejoin: miter; stroke-linecap: square"/>
   </g>
   <g id="patch_6">
    <path d="M 47.192188 0 
L 660.992188 0 
" style="fill: none; stroke: #000000; stroke-width: 0.8; stroke-linejoin: miter; stroke-linecap: square"/>
   </g>
  </g>
 </g>
 <defs>
  <clipPath id="peb36d6ac02">
   <rect x="47.192188" y="0" width="613.8" height="266.112"/>
  </clipPath>
 </defs>
</svg>
