<?xml version="1.0" encoding="utf-8" standalone="no"?>
<!DOCTYPE svg PUBLIC "-//W3C//DTD SVG 1.1//EN"
  "http://www.w3.org/Graphics/SVG/1.1/DTD/svg11.dtd">
<svg xmlns:xlink="http://www.w3.org/1999/xlink" width="660.992188pt" height="282.790125pt" viewBox="0 0 660.992188 282.790125" xmlns="http://www.w3.org/2000/svg" version="1.1">
 <metadata>
  <rdf:RDF xmlns:dc="http://purl.org/dc/elements/1.1/" xmlns:cc="http://creativecommons.org/ns#" xmlns:rdf="http://www.w3.org/1999/02/22-rdf-syntax-ns#">
   <cc:Work>
    <dc:type rdf:resource="http://purl.org/dc/dcmitype/StillImage"/>
    <dc:date>2023-03-06T21:29:43.512888</dc:date>
    <dc:format>image/svg+xml</dc:format>
    <dc:creator>
     <cc:Agent>
      <dc:title>Matplotlib v3.6.3, https://matplotlib.org/</dc:title>
     </cc:Agent>
    </dc:creator>
   </cc:Work>
  </rdf:RDF>
 </metadata>
 <defs>
  <style type="text/css">*{stroke-linejoin: round; stroke-linecap: butt}</style>
 </defs>
 <g id="figure_1">
  <g id="patch_1">
   <path d="M -0 282.790125 
L 660.992188 282.790125 
L 660.992188 0 
L -0 0 
L -0 282.790125 
z
" style="fill: none"/>
  </g>
  <g id="axes_1">
   <g id="patch_2">
    <path d="M 47.192188 266.112 
L 660.992188 266.112 
L 660.992188 0 
L 47.192188 0 
L 47.192188 266.112 
z
" style="fill: none"/>
   </g>
   <g id="matplotlib.axis_1">
    <g id="xtick_1">
     <g id="line2d_1">
      <defs>
       <path id="m2154b4f020" d="M 0 0 
L 0 3.5 
" style="stroke: #808080; stroke-width: 0.8"/>
      </defs>
      <g>
       <use xlink:href="#m2154b4f020" x="75.092188" y="266.112" style="fill: #808080; stroke: #808080; stroke-width: 0.8"/>
      </g>
     </g>
     <g id="text_1">
      <!-- 0 -->
      <g style="fill: #808080" transform="translate(71.910938 280.710438) scale(0.1 -0.1)">
       <defs>
        <path id="DejaVuSans-30" d="M 2034 4250 
Q 1547 4250 1301 3770 
Q 1056 3291 1056 2328 
Q 1056 1369 1301 889 
Q 1547 409 2034 409 
Q 2525 409 2770 889 
Q 3016 1369 3016 2328 
Q 3016 3291 2770 3770 
Q 2525 4250 2034 4250 
z
M 2034 4750 
Q 2819 4750 3233 4129 
Q 3647 3509 3647 2328 
Q 3647 1150 3233 529 
Q 2819 -91 2034 -91 
Q 1250 -91 836 529 
Q 422 1150 422 2328 
Q 422 3509 836 4129 
Q 1250 4750 2034 4750 
z
" transform="scale(0.015625)"/>
       </defs>
       <use xlink:href="#DejaVuSans-30"/>
      </g>
     </g>
    </g>
    <g id="xtick_2">
     <g id="line2d_2">
      <g>
       <use xlink:href="#m2154b4f020" x="144.842188" y="266.112" style="fill: #808080; stroke: #808080; stroke-width: 0.8"/>
      </g>
     </g>
     <g id="text_2">
      <!-- 500 -->
      <g style="fill: #808080" transform="translate(135.298438 280.710438) scale(0.1 -0.1)">
       <defs>
        <path id="DejaVuSans-35" d="M 691 4666 
L 3169 4666 
L 3169 4134 
L 1269 4134 
L 1269 2991 
Q 1406 3038 1543 3061 
Q 1681 3084 1819 3084 
Q 2600 3084 3056 2656 
Q 3513 2228 3513 1497 
Q 3513 744 3044 326 
Q 2575 -91 1722 -91 
Q 1428 -91 1123 -41 
Q 819 9 494 109 
L 494 744 
Q 775 591 1075 516 
Q 1375 441 1709 441 
Q 2250 441 2565 725 
Q 2881 1009 2881 1497 
Q 2881 1984 2565 2268 
Q 2250 2553 1709 2553 
Q 1456 2553 1204 2497 
Q 953 2441 691 2322 
L 691 4666 
z
" transform="scale(0.015625)"/>
       </defs>
       <use xlink:href="#DejaVuSans-35"/>
       <use xlink:href="#DejaVuSans-30" x="63.623047"/>
       <use xlink:href="#DejaVuSans-30" x="127.246094"/>
      </g>
     </g>
    </g>
    <g id="xtick_3">
     <g id="line2d_3">
      <g>
       <use xlink:href="#m2154b4f020" x="214.592188" y="266.112" style="fill: #808080; stroke: #808080; stroke-width: 0.8"/>
      </g>
     </g>
     <g id="text_3">
      <!-- 1000 -->
      <g style="fill: #808080" transform="translate(201.867188 280.710438) scale(0.1 -0.1)">
       <defs>
        <path id="DejaVuSans-31" d="M 794 531 
L 1825 531 
L 1825 4091 
L 703 3866 
L 703 4441 
L 1819 4666 
L 2450 4666 
L 2450 531 
L 3481 531 
L 3481 0 
L 794 0 
L 794 531 
z
" transform="scale(0.015625)"/>
       </defs>
       <use xlink:href="#DejaVuSans-31"/>
       <use xlink:href="#DejaVuSans-30" x="63.623047"/>
       <use xlink:href="#DejaVuSans-30" x="127.246094"/>
       <use xlink:href="#DejaVuSans-30" x="190.869141"/>
      </g>
     </g>
    </g>
    <g id="xtick_4">
     <g id="line2d_4">
      <g>
       <use xlink:href="#m2154b4f020" x="284.342188" y="266.112" style="fill: #808080; stroke: #808080; stroke-width: 0.8"/>
      </g>
     </g>
     <g id="text_4">
      <!-- 1500 -->
      <g style="fill: #808080" transform="translate(271.617188 280.710438) scale(0.1 -0.1)">
       <use xlink:href="#DejaVuSans-31"/>
       <use xlink:href="#DejaVuSans-35" x="63.623047"/>
       <use xlink:href="#DejaVuSans-30" x="127.246094"/>
       <use xlink:href="#DejaVuSans-30" x="190.869141"/>
      </g>
     </g>
    </g>
    <g id="xtick_5">
     <g id="line2d_5">
      <g>
       <use xlink:href="#m2154b4f020" x="354.092188" y="266.112" style="fill: #808080; stroke: #808080; stroke-width: 0.8"/>
      </g>
     </g>
     <g id="text_5">
      <!-- 2000 -->
      <g style="fill: #808080" transform="translate(341.367188 280.710438) scale(0.1 -0.1)">
       <defs>
        <path id="DejaVuSans-32" d="M 1228 531 
L 3431 531 
L 3431 0 
L 469 0 
L 469 531 
Q 828 903 1448 1529 
Q 2069 2156 2228 2338 
Q 2531 2678 2651 2914 
Q 2772 3150 2772 3378 
Q 2772 3750 2511 3984 
Q 2250 4219 1831 4219 
Q 1534 4219 1204 4116 
Q 875 4013 500 3803 
L 500 4441 
Q 881 4594 1212 4672 
Q 1544 4750 1819 4750 
Q 2544 4750 2975 4387 
Q 3406 4025 3406 3419 
Q 3406 3131 3298 2873 
Q 3191 2616 2906 2266 
Q 2828 2175 2409 1742 
Q 1991 1309 1228 531 
z
" transform="scale(0.015625)"/>
       </defs>
       <use xlink:href="#DejaVuSans-32"/>
       <use xlink:href="#DejaVuSans-30" x="63.623047"/>
       <use xlink:href="#DejaVuSans-30" x="127.246094"/>
       <use xlink:href="#DejaVuSans-30" x="190.869141"/>
      </g>
     </g>
    </g>
    <g id="xtick_6">
     <g id="line2d_6">
      <g>
       <use xlink:href="#m2154b4f020" x="423.842188" y="266.112" style="fill: #808080; stroke: #808080; stroke-width: 0.8"/>
      </g>
     </g>
     <g id="text_6">
      <!-- 2500 -->
      <g style="fill: #808080" transform="translate(411.117188 280.710438) scale(0.1 -0.1)">
       <use xlink:href="#DejaVuSans-32"/>
       <use xlink:href="#DejaVuSans-35" x="63.623047"/>
       <use xlink:href="#DejaVuSans-30" x="127.246094"/>
       <use xlink:href="#DejaVuSans-30" x="190.869141"/>
      </g>
     </g>
    </g>
    <g id="xtick_7">
     <g id="line2d_7">
      <g>
       <use xlink:href="#m2154b4f020" x="493.592188" y="266.112" style="fill: #808080; stroke: #808080; stroke-width: 0.8"/>
      </g>
     </g>
     <g id="text_7">
      <!-- 3000 -->
      <g style="fill: #808080" transform="translate(480.867188 280.710438) scale(0.1 -0.1)">
       <defs>
        <path id="DejaVuSans-33" d="M 2597 2516 
Q 3050 2419 3304 2112 
Q 3559 1806 3559 1356 
Q 3559 666 3084 287 
Q 2609 -91 1734 -91 
Q 1441 -91 1130 -33 
Q 819 25 488 141 
L 488 750 
Q 750 597 1062 519 
Q 1375 441 1716 441 
Q 2309 441 2620 675 
Q 2931 909 2931 1356 
Q 2931 1769 2642 2001 
Q 2353 2234 1838 2234 
L 1294 2234 
L 1294 2753 
L 1863 2753 
Q 2328 2753 2575 2939 
Q 2822 3125 2822 3475 
Q 2822 3834 2567 4026 
Q 2313 4219 1838 4219 
Q 1578 4219 1281 4162 
Q 984 4106 628 3988 
L 628 4550 
Q 988 4650 1302 4700 
Q 1616 4750 1894 4750 
Q 2613 4750 3031 4423 
Q 3450 4097 3450 3541 
Q 3450 3153 3228 2886 
Q 3006 2619 2597 2516 
z
" transform="scale(0.015625)"/>
       </defs>
       <use xlink:href="#DejaVuSans-33"/>
       <use xlink:href="#DejaVuSans-30" x="63.623047"/>
       <use xlink:href="#DejaVuSans-30" x="127.246094"/>
       <use xlink:href="#DejaVuSans-30" x="190.869141"/>
      </g>
     </g>
    </g>
    <g id="xtick_8">
     <g id="line2d_8">
      <g>
       <use xlink:href="#m2154b4f020" x="563.342188" y="266.112" style="fill: #808080; stroke: #808080; stroke-width: 0.8"/>
      </g>
     </g>
     <g id="text_8">
      <!-- 3500 -->
      <g style="fill: #808080" transform="translate(550.617188 280.710438) scale(0.1 -0.1)">
       <use xlink:href="#DejaVuSans-33"/>
       <use xlink:href="#DejaVuSans-35" x="63.623047"/>
       <use xlink:href="#DejaVuSans-30" x="127.246094"/>
       <use xlink:href="#DejaVuSans-30" x="190.869141"/>
      </g>
     </g>
    </g>
    <g id="xtick_9">
     <g id="line2d_9">
      <g>
       <use xlink:href="#m2154b4f020" x="633.092188" y="266.112" style="fill: #808080; stroke: #808080; stroke-width: 0.8"/>
      </g>
     </g>
     <g id="text_9">
      <!-- 4000 -->
      <g style="fill: #808080" transform="translate(620.367188 280.710438) scale(0.1 -0.1)">
       <defs>
        <path id="DejaVuSans-34" d="M 2419 4116 
L 825 1625 
L 2419 1625 
L 2419 4116 
z
M 2253 4666 
L 3047 4666 
L 3047 1625 
L 3713 1625 
L 3713 1100 
L 3047 1100 
L 3047 0 
L 2419 0 
L 2419 1100 
L 313 1100 
L 313 1709 
L 2253 4666 
z
" transform="scale(0.015625)"/>
       </defs>
       <use xlink:href="#DejaVuSans-34"/>
       <use xlink:href="#DejaVuSans-30" x="63.623047"/>
       <use xlink:href="#DejaVuSans-30" x="127.246094"/>
       <use xlink:href="#DejaVuSans-30" x="190.869141"/>
      </g>
     </g>
    </g>
   </g>
   <g id="matplotlib.axis_2">
    <g id="ytick_1">
     <g id="line2d_10">
      <defs>
       <path id="m75ccdfb322" d="M 0 0 
L -3.5 0 
" style="stroke: #808080; stroke-width: 0.8"/>
      </defs>
      <g>
       <use xlink:href="#m75ccdfb322" x="47.192188" y="255.592495" style="fill: #808080; stroke: #808080; stroke-width: 0.8"/>
      </g>
     </g>
     <g id="text_10">
      <!-- −10000 -->
      <g style="fill: #808080" transform="translate(0 259.391714) scale(0.1 -0.1)">
       <defs>
        <path id="DejaVuSans-2212" d="M 678 2272 
L 4684 2272 
L 4684 1741 
L 678 1741 
L 678 2272 
z
" transform="scale(0.015625)"/>
       </defs>
       <use xlink:href="#DejaVuSans-2212"/>
       <use xlink:href="#DejaVuSans-31" x="83.789062"/>
       <use xlink:href="#DejaVuSans-30" x="147.412109"/>
       <use xlink:href="#DejaVuSans-30" x="211.035156"/>
       <use xlink:href="#DejaVuSans-30" x="274.658203"/>
       <use xlink:href="#DejaVuSans-30" x="338.28125"/>
      </g>
     </g>
    </g>
    <g id="ytick_2">
     <g id="line2d_11">
      <g>
       <use xlink:href="#m75ccdfb322" x="47.192188" y="203.148535" style="fill: #808080; stroke: #808080; stroke-width: 0.8"/>
      </g>
     </g>
     <g id="text_11">
      <!-- −5000 -->
      <g style="fill: #808080" transform="translate(6.3625 206.947754) scale(0.1 -0.1)">
       <use xlink:href="#DejaVuSans-2212"/>
       <use xlink:href="#DejaVuSans-35" x="83.789062"/>
       <use xlink:href="#DejaVuSans-30" x="147.412109"/>
       <use xlink:href="#DejaVuSans-30" x="211.035156"/>
       <use xlink:href="#DejaVuSans-30" x="274.658203"/>
      </g>
     </g>
    </g>
    <g id="ytick_3">
     <g id="line2d_12">
      <g>
       <use xlink:href="#m75ccdfb322" x="47.192188" y="150.704576" style="fill: #808080; stroke: #808080; stroke-width: 0.8"/>
      </g>
     </g>
     <g id="text_12">
      <!-- 0 -->
      <g style="fill: #808080" transform="translate(33.829688 154.503794) scale(0.1 -0.1)">
       <use xlink:href="#DejaVuSans-30"/>
      </g>
     </g>
    </g>
    <g id="ytick_4">
     <g id="line2d_13">
      <g>
       <use xlink:href="#m75ccdfb322" x="47.192188" y="98.260616" style="fill: #808080; stroke: #808080; stroke-width: 0.8"/>
      </g>
     </g>
     <g id="text_13">
      <!-- 5000 -->
      <g style="fill: #808080" transform="translate(14.742188 102.059835) scale(0.1 -0.1)">
       <use xlink:href="#DejaVuSans-35"/>
       <use xlink:href="#DejaVuSans-30" x="63.623047"/>
       <use xlink:href="#DejaVuSans-30" x="127.246094"/>
       <use xlink:href="#DejaVuSans-30" x="190.869141"/>
      </g>
     </g>
    </g>
    <g id="ytick_5">
     <g id="line2d_14">
      <g>
       <use xlink:href="#m75ccdfb322" x="47.192188" y="45.816656" style="fill: #808080; stroke: #808080; stroke-width: 0.8"/>
      </g>
     </g>
     <g id="text_14">
      <!-- 10000 -->
      <g style="fill: #808080" transform="translate(8.379688 49.615875) scale(0.1 -0.1)">
       <use xlink:href="#DejaVuSans-31"/>
       <use xlink:href="#DejaVuSans-30" x="63.623047"/>
       <use xlink:href="#DejaVuSans-30" x="127.246094"/>
       <use xlink:href="#DejaVuSans-30" x="190.869141"/>
       <use xlink:href="#DejaVuSans-30" x="254.492188"/>
      </g>
     </g>
    </g>
   </g>
   <g id="line2d_15">
    <path d="M 75.092188 150.752675 
L 75.374148 150.657713 
L 75.656109 150.750384 
L 75.938069 150.659659 
L 76.22003 150.748745 
L 76.50199 150.661022 
L 76.783951 150.747635 
L 77.065912 150.661899 
L 77.347872 150.746975 
L 77.629833 150.662354 
L 77.911793 150.746715 
L 78.193754 150.662425 
L 78.475715 150.746829 
L 78.757675 150.662128 
L 79.039636 150.74731 
L 79.321596 150.661461 
L 79.603557 150.748167 
L 79.885517 150.660407 
L 80.167478 150.749427 
L 80.449439 150.658928 
L 80.731399 150.75114 
L 81.01336 150.656963 
L 81.29532 150.75338 
L 81.577281 150.65442 
L 81.859242 150.756261 
L 82.141202 150.651161 
L 82.423163 150.759947 
L 82.705123 150.646986 
L 82.987084 150.764688 
L 83.269044 150.641585 
L 83.551005 150.770867 
L 83.832966 150.634475 
L 84.114926 150.779106 
L 84.396887 150.624849 
L 84.678847 150.790466 
L 84.960808 150.611276 
L 85.242769 150.806925 
L 85.524729 150.590952 
L 85.80669 150.832594 
L 86.08865 150.557597 
L 86.370611 150.877561 
L 86.652572 150.493959 
L 86.934532 150.973678 
L 87.216493 150.33665 
L 87.498453 151.207671 
L 87.780414 138.117764 
L 88.062374 137.881519 
L 88.344335 147.02984 
L 88.626296 152.062729 
L 89.754138 162.669183 
L 90.036099 164.654623 
L 90.318059 164.085351 
L 90.60002 164.243774 
L 91.163941 171.523445 
L 91.445901 169.819942 
L 91.727862 166.354591 
L 92.009823 165.421719 
L 92.291783 165.707761 
L 92.573744 164.483506 
L 92.855704 164.180949 
L 93.419626 166.19522 
L 93.701586 164.611299 
L 93.983547 161.775898 
L 94.829429 151.101518 
L 95.111389 148.964108 
L 95.39335 145.722782 
L 95.67531 143.890216 
L 95.957271 144.908283 
L 96.239231 144.925418 
L 96.803153 136.39359 
L 97.085113 136.221114 
L 97.367074 136.982562 
L 97.649034 136.761989 
L 97.930995 140.768987 
L 98.494916 155.976062 
L 98.776877 156.412987 
L 99.058837 157.129572 
L 99.622758 162.844185 
L 99.904719 162.774802 
L 100.46864 166.467931 
L 101.032561 163.927434 
L 101.314522 165.409258 
L 101.596483 164.707341 
L 102.160404 152.067027 
L 102.442364 153.378108 
L 102.724325 157.35594 
L 103.006286 157.962932 
L 103.288246 157.467882 
L 103.852167 161.615107 
L 104.134128 160.054549 
L 104.416088 157.183899 
L 104.698049 157.211151 
L 105.26197 163.326402 
L 105.543931 163.792642 
L 105.825891 164.683799 
L 106.389813 170.730416 
L 106.953734 166.015745 
L 107.517655 170.743055 
L 107.799615 170.296999 
L 108.081576 171.335862 
L 108.363537 172.90506 
L 108.645497 169.600504 
L 109.209418 158.69579 
L 110.901182 132.784688 
L 111.183143 131.778718 
L 111.465103 128.28644 
L 111.747064 122.501046 
L 112.029024 121.828815 
L 112.310985 124.552695 
L 112.874906 122.941372 
L 113.156867 127.822053 
L 114.002748 147.76364 
L 114.284709 151.796731 
L 114.56667 151.056835 
L 114.84863 152.557398 
L 115.412551 168.716969 
L 115.694512 171.012887 
L 115.976472 170.757926 
L 116.258433 170.897414 
L 116.540394 169.048012 
L 117.104315 156.412712 
L 117.386275 155.137032 
L 117.668236 156.954044 
L 117.950197 155.2096 
L 118.232157 152.07888 
L 118.796078 154.540468 
L 119.078039 151.522613 
L 119.36 151.654443 
L 119.64196 157.30447 
L 119.923921 159.057936 
L 120.205881 156.291741 
L 120.487842 157.808832 
L 120.769802 160.44927 
L 121.051763 158.001478 
L 121.333724 157.352677 
L 121.615684 162.025847 
L 121.897645 163.00428 
L 122.179605 160.119685 
L 122.461566 162.225785 
L 122.743527 167.623371 
L 123.025487 169.906023 
L 123.307448 171.114262 
L 123.589408 171.105901 
L 124.717251 148.330366 
L 124.999211 141.62193 
L 125.845093 129.808722 
L 126.127054 127.247522 
L 126.409014 126.948769 
L 126.690975 125.701866 
L 126.972935 126.546987 
L 127.254896 131.658938 
L 127.536857 134.499973 
L 127.818817 134.005489 
L 128.100778 139.370387 
L 128.664699 164.662759 
L 128.946659 168.378098 
L 129.22862 168.031787 
L 129.510581 169.305173 
L 129.792541 171.302301 
L 130.074502 168.986951 
L 130.638423 157.799768 
L 130.920384 160.212089 
L 131.202344 163.67779 
L 131.484305 161.580261 
L 132.048226 151.89582 
L 132.330186 152.505509 
L 132.612147 152.416524 
L 133.176068 145.140339 
L 133.458029 147.465486 
L 133.739989 147.5864 
L 134.303911 133.053236 
L 134.585871 133.196004 
L 135.149792 138.746313 
L 135.713714 153.702197 
L 135.995674 154.907787 
L 136.277635 153.23277 
L 136.559595 154.171674 
L 137.123516 160.469516 
L 137.687438 174.419028 
L 137.969398 176.390931 
L 138.81528 158.402548 
L 139.661162 139.789383 
L 139.943122 138.327739 
L 140.507043 130.98534 
L 140.789004 130.36288 
L 141.070965 130.646388 
L 141.352925 130.391293 
L 141.634886 133.927881 
L 141.916846 139.992463 
L 142.480768 145.442203 
L 143.044689 156.998283 
L 143.326649 154.774848 
L 143.60861 149.372334 
L 143.890571 147.102523 
L 144.454492 151.193484 
L 144.736452 151.418868 
L 145.018413 150.905059 
L 145.582334 153.859937 
L 145.864295 152.408664 
L 146.146255 150.229027 
L 146.428216 151.956884 
L 146.992137 161.114673 
L 147.274098 159.359037 
L 147.556058 155.48883 
L 147.838019 154.623881 
L 148.119979 155.519345 
L 148.40194 154.698446 
L 148.6839 154.802323 
L 148.965861 159.772176 
L 149.529782 173.934464 
L 149.811743 173.907757 
L 150.093703 170.811691 
L 150.375664 172.285396 
L 150.657625 176.928611 
L 150.939585 174.684188 
L 151.221546 166.596393 
L 151.503506 164.667479 
L 151.785467 168.798528 
L 152.067428 169.71368 
L 152.349388 168.705272 
L 152.631349 170.409994 
L 152.913309 169.090192 
L 153.759191 148.114397 
L 154.323112 135.569917 
L 154.605073 133.501934 
L 154.887033 134.702164 
L 155.168994 135.083962 
L 155.450955 132.011632 
L 155.732915 127.156645 
L 156.014876 124.821189 
L 156.296836 124.459377 
L 156.578797 123.31778 
L 156.860757 124.746251 
L 157.424679 138.137654 
L 158.27056 147.56984 
L 158.552521 144.818229 
L 158.834482 140.531944 
L 159.398403 139.016755 
L 159.680363 136.287665 
L 159.962324 136.374824 
L 160.244285 140.610169 
L 160.808206 152.0545 
L 161.090166 153.800176 
L 161.372127 151.844873 
L 161.654087 152.301911 
L 161.936048 156.07573 
L 162.218009 157.215299 
L 162.499969 155.860978 
L 163.06389 157.684496 
L 163.345851 155.957012 
L 163.627812 155.590941 
L 164.191733 164.07315 
L 165.037614 177.75247 
L 165.319575 177.873824 
L 165.601536 178.330357 
L 165.883496 178.290499 
L 166.447417 173.47077 
L 166.729378 175.575232 
L 167.011339 175.704243 
L 167.85722 161.326492 
L 168.703102 138.53885 
L 168.985063 135.875023 
L 169.548984 128.169066 
L 169.830944 125.783574 
L 170.112905 121.768225 
L 170.394866 119.350409 
L 170.958787 124.448096 
L 171.240747 124.075441 
L 171.522708 125.345366 
L 172.65055 145.45539 
L 173.214471 158.59179 
L 173.496432 158.870836 
L 173.778393 156.470611 
L 174.060353 155.121781 
L 174.342314 157.197714 
L 174.624274 161.26221 
L 174.906235 163.210831 
L 175.470156 160.961878 
L 175.752117 161.827261 
L 176.034077 162.281643 
L 176.597999 158.03027 
L 176.879959 159.668091 
L 177.16192 162.751117 
L 177.44388 160.991863 
L 178.007801 149.880747 
L 178.571723 152.407028 
L 178.853683 149.160284 
L 179.135644 148.17905 
L 179.981526 167.910719 
L 180.263486 167.897037 
L 181.109368 175.133576 
L 181.673289 179.318691 
L 181.95525 176.47751 
L 183.365053 139.457987 
L 184.210934 129.131683 
L 184.492895 128.14318 
L 184.774856 126.231033 
L 185.338777 117.292422 
L 185.620737 115.501335 
L 185.902698 117.719818 
L 186.74858 133.307668 
L 187.03054 144.068016 
L 187.594461 169.729916 
L 187.876422 172.572689 
L 188.158383 172.580408 
L 188.440343 169.286726 
L 189.004264 152.519454 
L 189.286225 151.948363 
L 189.568185 155.128437 
L 189.850146 156.053497 
L 190.132107 156.392172 
L 190.414067 158.492892 
L 190.696028 157.479801 
L 191.259949 144.885617 
L 191.54191 144.609737 
L 192.669752 153.655451 
L 192.951713 153.950706 
L 193.233673 155.043342 
L 193.797594 159.540407 
L 194.079555 159.699519 
L 194.643476 161.888093 
L 195.207397 160.904361 
L 195.771318 164.862399 
L 196.053279 165.151871 
L 196.33524 165.78434 
L 196.6172 165.732902 
L 196.899161 161.467819 
L 197.745042 141.086638 
L 198.027003 132.464396 
L 198.308964 133.346801 
L 198.590924 141.56803 
L 198.872885 141.869347 
L 199.154845 132.818606 
L 199.436806 129.404887 
L 199.718767 133.875993 
L 200.000727 131.995168 
L 200.564648 107.411157 
L 200.846609 105.017307 
L 201.12857 110.0748 
L 201.974451 136.624772 
L 202.256412 145.999995 
L 202.538372 151.282479 
L 202.820333 151.712948 
L 203.102294 152.377589 
L 203.384254 155.457304 
L 203.666215 156.686589 
L 203.948175 155.256246 
L 204.230136 154.940572 
L 204.512097 155.774991 
L 204.794057 155.714494 
L 205.076018 155.875752 
L 205.357978 156.166815 
L 205.639939 155.195316 
L 205.921899 154.631783 
L 206.485821 156.374099 
L 206.767781 156.779128 
L 207.049742 157.545111 
L 207.331702 157.50978 
L 207.613663 157.920596 
L 208.177584 163.821148 
L 208.459545 163.978925 
L 208.741505 164.65495 
L 209.023466 166.385202 
L 209.305427 165.526069 
L 209.587387 163.414142 
L 209.869348 164.157772 
L 210.715229 171.783503 
L 210.99719 172.206298 
L 211.279151 167.62638 
L 212.125032 143.642518 
L 213.252875 123.237815 
L 213.534835 122.69313 
L 213.816796 127.447865 
L 214.098756 128.889366 
L 214.662678 117.812556 
L 214.944638 119.234784 
L 215.226599 122.949723 
L 215.508559 121.801952 
L 215.79052 118.093912 
L 216.072481 120.949088 
L 216.636402 139.438844 
L 216.918362 138.61655 
L 217.200323 138.662394 
L 217.764244 156.875301 
L 218.046205 158.893316 
L 218.328165 157.246315 
L 218.892086 158.421099 
L 219.174047 157.549025 
L 219.456008 158.171108 
L 219.737968 160.932399 
L 220.019929 162.287534 
L 220.301889 162.492107 
L 220.865811 167.659999 
L 221.147771 162.563368 
L 221.429732 151.853175 
L 221.711692 147.310475 
L 222.275613 159.150605 
L 222.557574 160.307755 
L 222.839535 160.458807 
L 223.121495 161.96485 
L 223.403456 161.26226 
L 223.685416 158.940996 
L 223.967377 159.359075 
L 224.531298 165.519542 
L 225.095219 176.121113 
L 225.37718 177.91581 
L 225.659141 177.181787 
L 225.941101 176.828792 
L 226.223062 172.720218 
L 226.786983 153.934644 
L 227.350904 144.727688 
L 228.478746 120.514714 
L 228.760707 117.143519 
L 229.042668 117.7013 
L 229.606589 116.394181 
L 229.888549 119.760271 
L 230.734431 139.579282 
L 231.298352 151.797391 
L 231.862273 159.074118 
L 232.144234 161.154479 
L 232.426195 160.786768 
L 232.708155 159.979755 
L 232.990116 160.333402 
L 233.554037 162.61267 
L 233.835998 161.586014 
L 234.117958 157.891708 
L 235.527761 126.5667 
L 235.809722 123.505136 
L 236.091682 124.201218 
L 236.937564 131.465195 
L 238.065406 154.651621 
L 238.347367 159.551763 
L 238.629327 160.376705 
L 238.911288 161.72249 
L 239.75717 178.373448 
L 240.321091 191.680937 
L 240.603052 193.176856 
L 240.885012 188.584795 
L 241.730894 169.132163 
L 242.576776 114.241132 
L 242.858736 116.577335 
L 243.140697 116.033992 
L 243.422657 108.011606 
L 243.704618 105.372519 
L 244.268539 115.234991 
L 244.5505 116.048121 
L 244.83246 119.308418 
L 245.960303 142.122834 
L 246.242263 143.843795 
L 246.524224 144.811213 
L 246.806184 147.184153 
L 247.088145 148.587927 
L 247.370106 149.05455 
L 247.652066 151.612479 
L 247.934027 155.246216 
L 248.215987 157.004051 
L 249.34383 160.843539 
L 249.62579 163.18832 
L 249.907751 162.508701 
L 250.189712 158.994626 
L 250.471672 159.368556 
L 250.753633 163.929635 
L 251.035593 165.658859 
L 251.317554 164.152405 
L 251.881475 163.658714 
L 252.163436 161.600478 
L 252.445396 160.927432 
L 253.009317 164.883082 
L 253.291278 168.086776 
L 253.855199 179.624151 
L 254.41912 185.631986 
L 254.701081 187.554639 
L 254.983041 183.255805 
L 255.828923 144.402381 
L 256.674805 129.549868 
L 257.238726 120.576549 
L 257.520687 118.420255 
L 258.084608 117.186827 
L 258.648529 111.847154 
L 258.93049 112.984712 
L 259.494411 118.670965 
L 259.776371 125.471465 
L 260.340293 146.184454 
L 260.622253 148.058602 
L 260.904214 152.03878 
L 261.186174 160.892371 
L 261.468135 165.459103 
L 261.750096 163.055647 
L 262.032056 162.955449 
L 262.314017 168.438453 
L 262.595977 170.984704 
L 263.441859 155.06459 
L 263.72382 155.372815 
L 264.287741 150.56529 
L 264.569701 152.66499 
L 264.851662 157.375399 
L 265.133623 158.57164 
L 265.415583 157.31398 
L 265.697544 158.905992 
L 266.825386 174.665935 
L 267.107347 176.144282 
L 267.389307 175.364596 
L 267.671268 175.915178 
L 268.235189 181.226313 
L 268.51715 184.215195 
L 268.79911 185.768133 
L 269.081071 184.375532 
L 269.363031 180.746637 
L 269.644992 174.193613 
L 270.208913 157.020164 
L 270.490874 152.728761 
L 270.772834 145.735498 
L 271.336755 127.545662 
L 271.900677 116.767584 
L 272.182637 110.633564 
L 272.464598 108.145788 
L 272.746558 107.677909 
L 273.028519 108.098422 
L 273.31048 110.485722 
L 273.59244 113.981068 
L 273.874401 119.255023 
L 274.438322 136.308565 
L 274.720282 139.759469 
L 275.002243 140.981151 
L 275.566164 144.378362 
L 275.848125 145.88259 
L 276.130085 148.314098 
L 276.412046 149.057311 
L 276.694007 149.00291 
L 277.257928 155.878029 
L 277.539888 156.709139 
L 277.821849 159.164634 
L 278.10381 165.368375 
L 278.38577 168.612154 
L 278.667731 166.956068 
L 278.949691 166.499114 
L 279.231652 168.062411 
L 279.513612 168.350522 
L 279.795573 169.049375 
L 280.077534 171.847683 
L 280.359494 173.240101 
L 280.641455 172.891065 
L 280.923415 175.602945 
L 281.205376 181.320993 
L 281.487337 182.761509 
L 282.051258 168.209902 
L 282.333218 166.4043 
L 282.615179 169.131206 
L 282.897139 169.923233 
L 283.1791 170.071727 
L 283.743021 177.648001 
L 284.024982 173.351522 
L 284.588903 159.443682 
L 284.870864 153.802581 
L 286.562627 105.845799 
L 287.126548 95.370741 
L 287.408509 94.680922 
L 288.254391 115.536095 
L 288.536351 119.446988 
L 289.664194 159.264024 
L 289.946154 163.674265 
L 290.228115 165.912208 
L 290.510075 166.306915 
L 290.792036 167.29388 
L 291.073996 167.158305 
L 291.919878 156.29008 
L 292.201839 157.49735 
L 292.483799 159.383548 
L 292.76576 160.059212 
L 293.329681 157.35381 
L 293.611642 157.955908 
L 293.893602 159.455565 
L 294.175563 158.340448 
L 294.457524 155.692022 
L 294.739484 157.682623 
L 295.303405 172.834933 
L 295.585366 174.139 
L 295.867326 173.270447 
L 296.431248 175.671425 
L 296.995169 174.568015 
L 297.277129 176.535264 
L 297.841051 182.841104 
L 298.404972 187.110683 
L 298.686932 184.60295 
L 299.814775 145.05219 
L 300.942617 120.626383 
L 301.506538 105.469887 
L 302.070459 98.335813 
L 302.35242 98.393281 
L 303.198302 111.36557 
L 304.044183 137.619589 
L 304.890065 155.85125 
L 305.172026 155.792705 
L 305.453986 155.244758 
L 305.735947 155.058226 
L 306.017908 153.35647 
L 306.299868 154.126535 
L 306.863789 162.126575 
L 307.42771 161.415779 
L 307.709671 159.216908 
L 307.991632 155.862647 
L 308.273592 159.329813 
L 308.555553 168.653784 
L 308.837513 173.138414 
L 309.119474 172.012094 
L 309.401435 173.290695 
L 309.683395 176.620936 
L 309.965356 175.984333 
L 310.529277 167.254397 
L 310.811238 167.574747 
L 311.093198 170.406762 
L 311.375159 171.110515 
L 311.657119 171.003929 
L 312.503001 181.645808 
L 312.784962 183.051078 
L 313.066922 187.200894 
L 313.348883 188.007888 
L 313.912804 174.815607 
L 315.040646 139.178207 
L 315.604567 122.417964 
L 316.450449 108.912103 
L 316.73241 105.614595 
L 317.01437 105.296541 
L 317.296331 107.171206 
L 317.578292 110.098831 
L 317.860252 115.334502 
L 318.706134 140.545178 
L 318.988095 142.186333 
L 319.270055 142.362648 
L 319.552016 143.622634 
L 319.833976 145.762965 
L 320.115937 146.628112 
L 320.679858 144.088796 
L 321.243779 148.470549 
L 321.52574 147.510267 
L 321.8077 145.344643 
L 322.089661 145.559496 
L 322.653582 149.611561 
L 323.217503 147.908776 
L 324.345346 155.683191 
L 324.627306 158.698633 
L 324.909267 158.790772 
L 325.191227 161.513099 
L 325.755149 187.981431 
L 326.037109 192.222517 
L 326.31907 190.129549 
L 326.60103 191.25518 
L 326.882991 194.854091 
L 327.164952 195.096522 
L 328.292794 182.754692 
L 329.420636 150.103635 
L 330.830439 102.824219 
L 331.39436 93.182861 
L 331.676321 89.909121 
L 331.958281 89.86305 
L 332.522203 92.805795 
L 332.804163 99.319021 
L 333.650045 137.533489 
L 334.213966 148.828476 
L 335.623769 166.912659 
L 335.90573 166.512476 
L 336.469651 170.479834 
L 336.751611 165.817115 
L 337.033572 157.477789 
L 337.315533 153.872651 
L 337.597493 155.87622 
L 338.161414 162.73554 
L 338.443375 167.372194 
L 338.725336 169.278008 
L 339.007296 168.928186 
L 339.571217 171.577968 
L 339.853178 169.584611 
L 340.135138 168.852988 
L 340.69906 178.714451 
L 340.98102 179.611103 
L 341.262981 178.72701 
L 341.544941 180.038639 
L 342.390823 191.864013 
L 342.672784 187.076068 
L 342.954744 178.510081 
L 343.518666 168.545457 
L 344.082587 142.383952 
L 344.364547 137.333803 
L 344.646508 137.599245 
L 344.928468 131.738115 
L 345.49239 111.75695 
L 346.056311 98.093872 
L 346.338271 93.857809 
L 346.902193 89.327563 
L 347.184153 89.755417 
L 347.466114 97.406248 
L 348.593956 142.272888 
L 349.157877 149.469144 
L 349.439838 153.014661 
L 349.721798 153.722025 
L 350.003759 151.363381 
L 350.28572 152.395223 
L 350.849641 162.630451 
L 351.131601 161.723228 
L 351.413562 159.371551 
L 351.695523 158.527648 
L 351.977483 158.593907 
L 352.823365 159.660425 
L 353.105325 160.882398 
L 353.669247 164.542293 
L 354.515128 167.824392 
L 355.07905 171.091047 
L 355.36101 171.579978 
L 355.642971 174.906991 
L 356.206892 188.374834 
L 356.488852 188.962994 
L 356.770813 189.036673 
L 357.334734 197.452467 
L 357.616695 194.729999 
L 358.462577 168.130212 
L 359.026498 145.617636 
L 359.87238 119.477004 
L 360.436301 104.418077 
L 361.282182 80.954416 
L 361.564143 81.111413 
L 361.846104 83.747373 
L 362.128064 88.482331 
L 362.691985 112.105276 
L 363.255907 136.39803 
L 363.537867 143.359112 
L 363.819828 145.269205 
L 364.383749 146.789324 
L 364.665709 144.299623 
L 364.94767 143.969132 
L 365.511591 163.518232 
L 365.793552 166.623637 
L 366.075512 164.916338 
L 366.357473 164.666267 
L 366.639434 165.515679 
L 366.921394 167.617273 
L 367.203355 171.300283 
L 367.485315 172.333428 
L 367.767276 170.287796 
L 368.049237 171.312403 
L 368.331197 174.602672 
L 368.613158 173.587814 
L 368.895118 170.906949 
L 369.177079 173.734127 
L 369.459039 178.621824 
L 369.741 179.329729 
L 370.022961 179.275784 
L 370.586882 184.458502 
L 370.868842 183.264093 
L 371.150803 183.70698 
L 371.714724 189.170744 
L 372.278645 195.161552 
L 372.560606 192.712476 
L 373.970409 136.594374 
L 375.380212 86.960612 
L 375.662172 77.965384 
L 375.944133 73.118676 
L 376.508054 68.250188 
L 376.790015 73.317104 
L 378.199818 146.810829 
L 378.481778 151.352416 
L 378.763739 151.303948 
L 379.891581 158.473227 
L 380.173542 159.413036 
L 380.455502 162.188203 
L 380.737463 166.122283 
L 381.019423 166.371394 
L 381.301384 164.251789 
L 381.583345 164.313009 
L 381.865305 163.805923 
L 382.147266 161.882963 
L 382.429226 164.053295 
L 382.711187 167.860773 
L 382.993148 166.174837 
L 383.275108 163.666023 
L 383.839029 167.816824 
L 384.12099 167.530814 
L 384.402951 173.188567 
L 384.684911 183.14206 
L 384.966872 187.245991 
L 385.248832 185.261431 
L 385.530793 184.244902 
L 385.812753 185.538501 
L 386.094714 188.140357 
L 386.658635 197.538493 
L 386.940596 198.413375 
L 387.222556 195.991412 
L 387.504517 192.028851 
L 387.786478 184.407454 
L 388.91432 135.021477 
L 390.606083 77.397489 
L 390.888044 71.647364 
L 391.170005 69.702496 
L 391.451965 75.345466 
L 392.015886 96.704335 
L 393.143729 152.387992 
L 393.425689 156.494369 
L 393.70765 157.910763 
L 393.98961 158.248831 
L 394.835492 162.261215 
L 395.681374 160.090578 
L 395.963335 161.424449 
L 396.245295 164.083001 
L 396.527256 165.455113 
L 397.091177 163.815892 
L 397.373137 166.068495 
L 397.655098 169.854951 
L 397.937059 172.059812 
L 398.219019 171.612563 
L 398.50098 170.275132 
L 398.78294 170.521587 
L 399.064901 173.503927 
L 399.628822 181.116259 
L 399.910783 181.967838 
L 400.192743 181.575881 
L 400.474704 183.186532 
L 401.320586 198.05957 
L 401.884507 200.602476 
L 402.166467 196.642934 
L 403.57627 134.349926 
L 404.422152 99.927996 
L 404.986073 78.572164 
L 405.549994 63.915809 
L 405.831955 61.361056 
L 406.113916 63.02593 
L 406.395876 65.833352 
L 406.677837 74.93936 
L 407.805679 160.659445 
L 408.3696 173.07676 
L 408.651561 174.063384 
L 409.215482 163.034845 
L 409.497443 163.892359 
L 409.779403 168.69234 
L 410.061364 168.525444 
L 410.343324 165.185628 
L 410.625285 168.876107 
L 410.907246 179.174885 
L 411.189206 184.684978 
L 411.471167 182.674019 
L 411.753127 182.60665 
L 412.317049 192.605866 
L 412.599009 188.936817 
L 412.88097 183.354312 
L 413.16293 182.591679 
L 413.444891 185.185976 
L 413.726851 186.480605 
L 414.008812 184.911908 
L 414.290773 182.404242 
L 414.572733 181.25792 
L 415.136654 181.51231 
L 415.418615 182.788504 
L 416.264497 189.662069 
L 416.546457 190.786191 
L 416.828418 185.30455 
L 417.6743 152.596003 
L 417.95626 140.905978 
L 419.084103 79.972574 
L 419.648024 61.231193 
L 419.929984 52.350366 
L 420.211945 50.981033 
L 420.493906 52.464792 
L 420.775866 52.263641 
L 421.057827 55.263272 
L 421.339787 66.882689 
L 422.46763 143.712777 
L 422.74959 150.662991 
L 423.031551 160.760616 
L 423.313511 166.709017 
L 423.595472 165.15145 
L 423.877433 164.945943 
L 424.441354 174.668339 
L 425.287236 181.315069 
L 425.569196 179.132317 
L 426.133117 167.819971 
L 426.415078 165.884958 
L 426.978999 170.137836 
L 427.26096 169.321796 
L 427.54292 172.937508 
L 428.106841 194.330028 
L 428.670763 198.880578 
L 428.952723 203.614406 
L 429.234684 204.876031 
L 429.516644 203.502839 
L 429.798605 205.287807 
L 430.080565 208.62532 
L 430.362526 209.812193 
L 430.644487 209.926204 
L 430.926447 208.249151 
L 431.208408 202.036527 
L 431.772329 179.859752 
L 433.182132 109.935191 
L 433.464093 101.385296 
L 433.746053 96.547221 
L 434.028014 89.177835 
L 434.591935 66.031439 
L 435.155856 54.690713 
L 435.437817 44.977973 
L 435.719777 40.053088 
L 436.001738 49.427821 
L 437.411541 148.38231 
L 437.693501 158.449469 
L 437.975462 163.455181 
L 438.257422 165.352433 
L 438.539383 165.998329 
L 439.103304 169.080191 
L 439.385265 169.666452 
L 439.667225 171.953664 
L 439.949186 175.332456 
L 440.231147 175.500712 
L 440.513107 175.021123 
L 440.795068 180.535708 
L 441.358989 197.083787 
L 441.64095 199.897655 
L 441.92291 199.045235 
L 442.204871 196.175837 
L 442.486831 195.791937 
L 442.768792 197.465344 
L 443.050752 195.518847 
L 443.332713 191.991115 
L 443.614674 194.210296 
L 443.896634 199.079288 
L 444.178595 199.225418 
L 444.460555 198.381594 
L 444.742516 204.10973 
L 445.306437 219.820114 
L 445.588398 219.388668 
L 445.870358 213.348569 
L 446.71624 182.221043 
L 447.280161 152.262935 
L 448.689964 75.487165 
L 449.535846 37.775619 
L 450.099767 27.300613 
L 450.381728 30.279022 
L 451.227609 87.085957 
L 452.073491 147.183533 
L 452.355452 154.547817 
L 452.637412 156.600626 
L 452.919373 157.147175 
L 453.201334 157.374588 
L 453.483294 160.10484 
L 454.047215 170.975195 
L 454.329176 173.115103 
L 454.611136 172.100163 
L 454.893097 169.97853 
L 455.175058 168.992988 
L 455.738979 168.046468 
L 456.020939 172.389315 
L 456.584861 189.811032 
L 456.866821 192.490249 
L 457.148782 196.415953 
L 457.430742 203.099168 
L 457.712703 207.060212 
L 457.994663 206.530972 
L 458.276624 203.333605 
L 458.558585 198.516371 
L 458.840545 196.802601 
L 459.122506 203.030653 
L 459.686427 219.372677 
L 459.968388 223.413023 
L 460.250348 225.639274 
L 460.532309 221.935533 
L 461.09623 201.466147 
L 461.660151 172.303376 
L 463.915836 41.6901 
L 464.479757 24.459521 
L 464.761718 20.31067 
L 465.043678 22.726054 
L 465.325639 33.178524 
L 465.88956 64.784902 
L 467.299363 163.474122 
L 467.581323 169.560959 
L 467.863284 170.828554 
L 468.427205 177.45275 
L 468.709166 176.604859 
L 468.991126 174.594572 
L 469.837008 176.877461 
L 470.400929 186.047333 
L 470.68289 186.836074 
L 470.96485 185.901921 
L 471.246811 188.855241 
L 471.528772 193.050706 
L 472.374653 198.615526 
L 472.656614 199.000965 
L 472.938575 200.048119 
L 473.502496 206.843298 
L 473.784456 209.582906 
L 474.348377 224.129048 
L 474.630338 223.291644 
L 474.912299 218.704145 
L 475.194259 218.981218 
L 475.47622 218.205052 
L 475.75818 206.097667 
L 476.322102 170.922445 
L 476.604062 157.92014 
L 477.167983 115.154172 
L 477.731905 73.429601 
L 478.577786 31.069241 
L 479.141707 16.51673 
L 479.423668 15.012654 
L 479.705629 22.772502 
L 480.26955 52.78418 
L 481.961313 159.576041 
L 482.525234 169.111691 
L 482.807195 171.359613 
L 483.371116 173.312692 
L 484.216998 180.913924 
L 484.498959 181.388687 
L 484.780919 180.502296 
L 485.06288 180.563504 
L 485.908762 186.443319 
L 486.190722 188.151178 
L 486.754643 192.982988 
L 487.036604 195.322404 
L 487.318564 202.281716 
L 487.600525 212.336023 
L 487.882486 217.419993 
L 488.164446 216.279859 
L 488.446407 217.259358 
L 489.010328 232.455495 
L 489.292289 235.225709 
L 489.574249 233.522909 
L 489.85621 228.319492 
L 490.13817 217.470766 
L 491.266013 150.985945 
L 491.829934 111.893259 
L 492.393855 77.466973 
L 492.957776 41.883306 
L 493.521697 20.699533 
L 493.803658 20.257108 
L 494.367579 31.117918 
L 494.64954 41.500045 
L 496.059343 127.74323 
L 496.623264 159.36414 
L 496.905224 166.932316 
L 497.187185 168.594091 
L 497.469146 171.585273 
L 497.751106 177.472588 
L 498.033067 180.556364 
L 498.315027 180.121395 
L 498.596988 180.707271 
L 499.160909 184.585276 
L 499.44287 188.463192 
L 499.72483 193.903617 
L 500.006791 196.976611 
L 500.288751 198.558687 
L 500.852673 204.590127 
L 501.134633 203.967045 
L 501.416594 204.631895 
L 501.980515 212.674104 
L 502.826397 218.231147 
L 503.390318 215.026243 
L 503.954239 219.464265 
L 504.2362 219.349179 
L 504.51816 216.622616 
L 504.800121 210.081089 
L 505.364042 186.107186 
L 505.927963 149.047886 
L 506.773845 88.109939 
L 507.901687 23.558349 
L 508.183648 16.440476 
L 508.465608 15.583274 
L 508.747569 15.225599 
L 509.02953 19.53309 
L 510.439333 102.341029 
L 511.003254 144.405491 
L 511.285214 149.985157 
L 511.567175 151.954331 
L 512.131096 170.00821 
L 513.258938 184.341481 
L 513.540899 183.065753 
L 513.82286 183.028075 
L 514.10482 183.806583 
L 514.386781 182.168923 
L 514.668741 182.695313 
L 515.232662 195.329934 
L 515.514623 196.582581 
L 515.796584 196.955469 
L 516.642465 206.218249 
L 517.206387 200.859274 
L 517.488347 202.513683 
L 517.770308 207.773313 
L 518.334229 212.576367 
L 518.61619 222.46349 
L 518.89815 237.166176 
L 519.180111 244.005571 
L 519.462071 239.91371 
L 519.744032 230.396165 
L 520.025992 216.110218 
L 520.589914 171.443145 
L 521.153835 122.910696 
L 522.563638 37.231561 
L 523.127559 23.759949 
L 523.409519 24.893873 
L 523.973441 32.416391 
L 524.255401 40.505903 
L 525.383244 100.154282 
L 525.947165 132.30581 
L 526.793047 168.383083 
L 527.075007 171.023763 
L 527.356968 171.598032 
L 527.920889 175.489594 
L 528.202849 176.121467 
L 528.766771 174.473121 
L 529.048731 176.094104 
L 529.894613 186.889749 
L 530.740495 210.135649 
L 531.022455 212.905197 
L 531.586376 223.618232 
L 531.868337 224.304934 
L 532.150298 219.156225 
L 532.432258 216.15498 
L 532.714219 219.536697 
L 533.560101 239.63627 
L 533.842061 241.204265 
L 534.124022 235.317024 
L 534.687943 214.442004 
L 535.251864 173.958512 
L 536.097746 117.482002 
L 536.943628 66.478503 
L 537.507549 49.431318 
L 538.07147 33.485949 
L 538.635391 16.744605 
L 538.917352 12.096 
L 539.199312 13.83176 
L 539.481273 25.948048 
L 540.891076 124.115424 
L 541.173036 140.005282 
L 541.454997 149.453691 
L 541.736958 149.954638 
L 542.018918 149.265412 
L 542.300879 156.352346 
L 542.582839 167.79902 
L 542.8648 174.539978 
L 543.146761 178.029822 
L 543.992642 203.233086 
L 544.274603 201.738995 
L 544.556563 202.913913 
L 544.838524 207.792868 
L 545.120485 207.797821 
L 545.684406 197.429387 
L 545.966366 199.008399 
L 546.248327 202.987924 
L 547.094209 222.694258 
L 547.376169 223.474959 
L 547.65813 225.890289 
L 548.222051 239.426188 
L 548.504012 239.126945 
L 548.785972 234.511517 
L 549.067933 226.454345 
L 549.631854 190.897822 
L 550.477736 134.035259 
L 551.323618 81.492868 
L 551.887539 40.807267 
L 552.169499 34.320511 
L 552.45146 33.911935 
L 553.015381 35.437089 
L 553.297342 35.766377 
L 553.579302 38.099052 
L 553.861263 46.538675 
L 554.989105 103.390202 
L 555.834987 146.947796 
L 556.398908 165.195413 
L 557.24479 183.993257 
L 557.52675 185.637017 
L 558.090672 180.939455 
L 558.372632 185.771349 
L 558.654593 194.935097 
L 558.936553 199.658403 
L 559.500475 197.458098 
L 560.346356 205.535542 
L 561.192238 217.693595 
L 561.474199 218.24354 
L 561.756159 222.486372 
L 562.03812 229.560409 
L 562.32008 232.34387 
L 562.602041 230.27292 
L 562.884002 229.193427 
L 563.165962 229.307772 
L 563.447923 224.245636 
L 564.575765 172.634932 
L 565.139686 130.554786 
L 566.267529 54.790753 
L 566.549489 41.685089 
L 567.11341 29.652354 
L 567.677332 18.421573 
L 567.959292 24.115469 
L 568.523213 55.23128 
L 568.805174 63.625525 
L 569.651056 100.671933 
L 569.933016 107.180075 
L 570.778898 149.016359 
L 571.62478 181.723479 
L 571.90674 184.629401 
L 572.470661 194.664198 
L 572.752622 192.828612 
L 573.034583 191.967857 
L 573.598504 197.916244 
L 573.880464 199.358498 
L 574.444386 203.595341 
L 574.726346 204.17969 
L 575.008307 206.700147 
L 576.136149 224.322765 
L 576.70007 228.437223 
L 576.982031 233.606848 
L 577.545952 245.467788 
L 577.827913 244.576282 
L 578.109873 237.843261 
L 578.391834 224.998857 
L 578.955755 184.529466 
L 579.801637 122.152102 
L 580.647518 69.734166 
L 581.4934 42.063251 
L 581.775361 34.571529 
L 582.057321 31.191291 
L 582.339282 31.974886 
L 582.903203 40.264183 
L 583.185164 45.056475 
L 583.467124 52.370084 
L 584.031046 76.052 
L 585.158888 136.594029 
L 585.722809 168.983349 
L 586.00477 172.260745 
L 586.28673 172.718223 
L 586.850651 184.232193 
L 587.414573 174.415768 
L 587.696533 176.719582 
L 589.388297 206.284849 
L 590.234178 217.69033 
L 590.7981 219.949975 
L 591.362021 227.714965 
L 591.643981 233.236339 
L 592.207903 251.949364 
L 592.489863 253.901699 
L 592.771824 248.757232 
L 593.053784 239.114143 
L 593.617705 202.552407 
L 594.745548 111.849067 
L 595.309469 84.259511 
L 595.59143 68.056548 
L 596.719272 35.347382 
L 597.001232 32.672892 
L 597.283193 34.508822 
L 597.565154 38.699063 
L 598.129075 55.629105 
L 599.538878 102.570473 
L 600.102799 121.876916 
L 600.66672 139.76904 
L 600.948681 145.025102 
L 601.794562 167.763251 
L 602.640444 188.073913 
L 602.922405 190.282091 
L 603.486326 203.083018 
L 603.768287 202.089348 
L 604.050247 203.444713 
L 604.614168 217.998579 
L 604.896129 219.630619 
L 605.46005 229.066039 
L 605.742011 230.109967 
L 606.023971 230.338069 
L 606.305932 234.361125 
L 607.151814 251.681976 
L 607.433774 254.016 
L 607.715735 248.391369 
L 607.997695 233.485745 
L 609.971419 81.455211 
L 610.535341 60.515481 
L 611.381222 46.649473 
L 611.663183 44.033641 
L 611.945144 45.164679 
L 612.227104 47.322651 
L 612.509065 50.509867 
L 613.072986 62.995453 
L 613.918868 86.356743 
L 614.200828 90.94642 
L 614.764749 110.809662 
L 615.04671 115.331012 
L 615.328671 122.050829 
L 615.892592 154.457068 
L 617.020434 183.396468 
L 617.302395 185.157172 
L 617.584355 188.990845 
L 618.148276 198.459527 
L 618.712198 204.34556 
L 619.276119 213.608284 
L 619.558079 218.823713 
L 619.84004 221.631465 
L 620.403961 225.156639 
L 620.967882 232.044305 
L 621.531803 241.459969 
L 622.095725 252.237942 
L 622.377685 248.478707 
L 622.941606 221.427493 
L 623.505528 176.583731 
L 624.351409 109.918124 
L 624.915331 81.317794 
L 625.479252 67.843634 
L 626.043173 57.1956 
L 626.325133 53.996633 
L 627.171015 49.930089 
L 627.452976 55.757609 
L 628.016897 74.301127 
L 628.298858 77.731022 
L 629.144739 100.128632 
L 629.4267 103.194837 
L 630.272582 132.235975 
L 631.118463 142.250712 
L 631.964345 162.772347 
L 632.246306 164.760205 
L 633.092188 192.794253 
L 633.092188 192.794253 
" clip-path="url(#pb447389c61)" style="fill: none; stroke: #1f77b4; stroke-width: 1.5; stroke-linecap: square"/>
   </g>
   <g id="patch_3">
    <path d="M 47.192188 266.112 
L 47.192188 0 
" style="fill: none; stroke: #808080; stroke-width: 0.8; stroke-linejoin: miter; stroke-linecap: square"/>
   </g>
   <g id="patch_4">
    <path d="M 660.992188 266.112 
L 660.992188 0 
" style="fill: none; stroke: #000000; stroke-width: 0.8; stroke-linejoin: miter; stroke-linecap: square"/>
   </g>
   <g id="patch_5">
    <path d="M 47.192188 266.112 
L 660.992188 266.112 
" style="fill: none; stroke: #808080; stroke-width: 0.8; stroke-linejoin: miter; stroke-linecap: square"/>
   </g>
   <g id="patch_6">
    <path d="M 47.192188 0 
L 660.992188 0 
" style="fill: none; stroke: #000000; stroke-width: 0.8; stroke-linejoin: miter; stroke-linecap: square"/>
   </g>
  </g>
 </g>
 <defs>
  <clipPath id="pb447389c61">
   <rect x="47.192188" y="0" width="613.8" height="266.112"/>
  </clipPath>
 </defs>
</svg>
