<svg xmlns="http://www.w3.org/2000/svg" xmlns:xlink="http://www.w3.org/1999/xlink" width="913.477" height="377.053" viewBox="0 0 685.107 282.79"><defs><style>*{stroke-linejoin:round;stroke-linecap:butt}</style></defs><g id="figure_1"><path id="patch_1" d="M0 282.79h685.107V0H0v282.79z" style="fill:none"/><g id="axes_1"><path id="patch_2" d="M71.308 266.112h613.8V0h-613.8v266.112z" style="fill:none"/><g id="matplotlib.axis_1"><g id="xtick_1"><g id="line2d_1"><defs><path id="m143de773ac" d="M0 0v3.5" style="stroke:gray;stroke-width:.8"/></defs><use xlink:href="#m143de773ac" x="99.207" y="266.112" style="fill:gray;stroke:gray;stroke-width:.8"/></g><g id="text_1" style="fill:gray" transform="matrix(.1 0 0 -.1 96.026 280.71)"><defs><path id="DejaVuSans-30" d="M2034 4250q-487 0-733-480-245-479-245-1442 0-959 245-1439 246-480 733-480 491 0 736 480 246 480 246 1439 0 963-246 1442-245 480-736 480zm0 500q785 0 1199-621 414-620 414-1801 0-1178-414-1799Q2819-91 2034-91q-784 0-1198 620-414 621-414 1799 0 1181 414 1801 414 621 1198 621z" transform="scale(.01563)"/></defs><use xlink:href="#DejaVuSans-30"/></g></g><g id="xtick_2"><use xlink:href="#m143de773ac" id="line2d_2" x="168.958" y="266.112" style="fill:gray;stroke:gray;stroke-width:.8"/><g id="text_2" style="fill:gray" transform="matrix(.1 0 0 -.1 159.414 280.71)"><defs><path id="DejaVuSans-35" d="M691 4666h2478v-532H1269V2991q137 47 274 70 138 23 276 23 781 0 1237-428 457-428 457-1159 0-753-469-1171Q2575-91 1722-91q-294 0-599 50Q819 9 494 109v635q281-153 581-228t634-75q541 0 856 284 316 284 316 772 0 487-316 771-315 285-856 285-253 0-505-56-251-56-513-175v2344z" transform="scale(.01563)"/></defs><use xlink:href="#DejaVuSans-35"/><use xlink:href="#DejaVuSans-30" x="63.623"/><use xlink:href="#DejaVuSans-30" x="127.246"/></g></g><g id="xtick_3"><use xlink:href="#m143de773ac" id="line2d_3" x="238.708" y="266.112" style="fill:gray;stroke:gray;stroke-width:.8"/><g id="text_3" style="fill:gray" transform="matrix(.1 0 0 -.1 225.982 280.71)"><defs><path id="DejaVuSans-31" d="M794 531h1031v3560L703 3866v575l1116 225h631V531h1031V0H794v531z" transform="scale(.01563)"/></defs><use xlink:href="#DejaVuSans-31"/><use xlink:href="#DejaVuSans-30" x="63.623"/><use xlink:href="#DejaVuSans-30" x="127.246"/><use xlink:href="#DejaVuSans-30" x="190.869"/></g></g><g id="xtick_4"><use xlink:href="#m143de773ac" id="line2d_4" x="308.457" y="266.112" style="fill:gray;stroke:gray;stroke-width:.8"/><g id="text_4" style="fill:gray" transform="matrix(.1 0 0 -.1 295.733 280.71)"><use xlink:href="#DejaVuSans-31"/><use xlink:href="#DejaVuSans-35" x="63.623"/><use xlink:href="#DejaVuSans-30" x="127.246"/><use xlink:href="#DejaVuSans-30" x="190.869"/></g></g><g id="xtick_5"><use xlink:href="#m143de773ac" id="line2d_5" x="378.207" y="266.112" style="fill:gray;stroke:gray;stroke-width:.8"/><g id="text_5" style="fill:gray" transform="matrix(.1 0 0 -.1 365.483 280.71)"><defs><path id="DejaVuSans-32" d="M1228 531h2203V0H469v531q359 372 979 998 621 627 780 809 303 340 423 576 121 236 121 464 0 372-261 606-261 235-680 235-297 0-627-103-329-103-704-313v638q381 153 712 231 332 78 607 78 725 0 1156-363 431-362 431-968 0-288-108-546-107-257-392-607-78-91-497-524-418-433-1181-1211z" transform="scale(.01563)"/></defs><use xlink:href="#DejaVuSans-32"/><use xlink:href="#DejaVuSans-30" x="63.623"/><use xlink:href="#DejaVuSans-30" x="127.246"/><use xlink:href="#DejaVuSans-30" x="190.869"/></g></g><g id="xtick_6"><use xlink:href="#m143de773ac" id="line2d_6" x="447.957" y="266.112" style="fill:gray;stroke:gray;stroke-width:.8"/><g id="text_6" style="fill:gray" transform="matrix(.1 0 0 -.1 435.233 280.71)"><use xlink:href="#DejaVuSans-32"/><use xlink:href="#DejaVuSans-35" x="63.623"/><use xlink:href="#DejaVuSans-30" x="127.246"/><use xlink:href="#DejaVuSans-30" x="190.869"/></g></g><g id="xtick_7"><use xlink:href="#m143de773ac" id="line2d_7" x="517.707" y="266.112" style="fill:gray;stroke:gray;stroke-width:.8"/><g id="text_7" style="fill:gray" transform="matrix(.1 0 0 -.1 504.983 280.71)"><defs><path id="DejaVuSans-33" d="M2597 2516q453-97 707-404 255-306 255-756 0-690-475-1069Q2609-91 1734-91q-293 0-604 58T488 141v609q262-153 574-231 313-78 654-78 593 0 904 234t311 681q0 413-289 645-289 233-804 233h-544v519h569q465 0 712 186t247 536q0 359-255 551-254 193-729 193-260 0-557-57-297-56-653-174v562q360 100 674 150t592 50q719 0 1137-327 419-326 419-882 0-388-222-655t-631-370z" transform="scale(.01563)"/></defs><use xlink:href="#DejaVuSans-33"/><use xlink:href="#DejaVuSans-30" x="63.623"/><use xlink:href="#DejaVuSans-30" x="127.246"/><use xlink:href="#DejaVuSans-30" x="190.869"/></g></g><g id="xtick_8"><use xlink:href="#m143de773ac" id="line2d_8" x="587.457" y="266.112" style="fill:gray;stroke:gray;stroke-width:.8"/><g id="text_8" style="fill:gray" transform="matrix(.1 0 0 -.1 574.732 280.71)"><use xlink:href="#DejaVuSans-33"/><use xlink:href="#DejaVuSans-35" x="63.623"/><use xlink:href="#DejaVuSans-30" x="127.246"/><use xlink:href="#DejaVuSans-30" x="190.869"/></g></g><g id="xtick_9"><use xlink:href="#m143de773ac" id="line2d_9" x="657.207" y="266.112" style="fill:gray;stroke:gray;stroke-width:.8"/><g id="text_9" style="fill:gray" transform="matrix(.1 0 0 -.1 644.482 280.71)"><defs><path id="DejaVuSans-34" d="M2419 4116 825 1625h1594v2491zm-166 550h794V1625h666v-525h-666V0h-628v1100H313v609l1940 2957z" transform="scale(.01563)"/></defs><use xlink:href="#DejaVuSans-34"/><use xlink:href="#DejaVuSans-30" x="63.623"/><use xlink:href="#DejaVuSans-30" x="127.246"/><use xlink:href="#DejaVuSans-30" x="190.869"/></g></g></g><g id="matplotlib.axis_2"><g id="ytick_1"><g id="line2d_10"><defs><path id="m717cd12e2c" d="M0 0h-3.5" style="stroke:gray;stroke-width:.8"/></defs><use xlink:href="#m717cd12e2c" x="71.308" y="228.773" style="fill:gray;stroke:gray;stroke-width:.8"/></g><g id="text_10" style="fill:gray" transform="matrix(.16 0 0 -.16 0 234.852)"><defs><path id="DejaVuSans-2212" d="M678 2272h4006v-531H678v531z" transform="scale(.01563)"/></defs><use xlink:href="#DejaVuSans-2212"/><use xlink:href="#DejaVuSans-32" x="83.789"/><use xlink:href="#DejaVuSans-30" x="147.412"/><use xlink:href="#DejaVuSans-30" x="211.035"/><use xlink:href="#DejaVuSans-30" x="274.658"/><use xlink:href="#DejaVuSans-30" x="338.281"/></g></g><g id="ytick_2"><use xlink:href="#m717cd12e2c" id="line2d_11" x="71.308" y="187.7" style="fill:gray;stroke:gray;stroke-width:.8"/><g id="text_11" style="fill:gray" transform="matrix(.16 0 0 -.16 0 193.779)"><use xlink:href="#DejaVuSans-2212"/><use xlink:href="#DejaVuSans-31" x="83.789"/><use xlink:href="#DejaVuSans-30" x="147.412"/><use xlink:href="#DejaVuSans-30" x="211.035"/><use xlink:href="#DejaVuSans-30" x="274.658"/><use xlink:href="#DejaVuSans-30" x="338.281"/></g></g><g id="ytick_3"><use xlink:href="#m717cd12e2c" id="line2d_12" x="71.308" y="146.627" style="fill:gray;stroke:gray;stroke-width:.8"/><use xlink:href="#DejaVuSans-30" id="text_12" style="fill:gray" transform="matrix(.16 0 0 -.16 54.127 152.705)"/></g><g id="ytick_4"><use xlink:href="#m717cd12e2c" id="line2d_13" x="71.308" y="105.554" style="fill:gray;stroke:gray;stroke-width:.8"/><g id="text_13" style="fill:gray" transform="matrix(.16 0 0 -.16 13.408 111.632)"><use xlink:href="#DejaVuSans-31"/><use xlink:href="#DejaVuSans-30" x="63.623"/><use xlink:href="#DejaVuSans-30" x="127.246"/><use xlink:href="#DejaVuSans-30" x="190.869"/><use xlink:href="#DejaVuSans-30" x="254.492"/></g></g><g id="ytick_5"><use xlink:href="#m717cd12e2c" id="line2d_14" x="71.308" y="64.48" style="fill:gray;stroke:gray;stroke-width:.8"/><g id="text_14" style="fill:gray" transform="matrix(.16 0 0 -.16 13.408 70.56)"><use xlink:href="#DejaVuSans-32"/><use xlink:href="#DejaVuSans-30" x="63.623"/><use xlink:href="#DejaVuSans-30" x="127.246"/><use xlink:href="#DejaVuSans-30" x="190.869"/><use xlink:href="#DejaVuSans-30" x="254.492"/></g></g><g id="ytick_6"><use xlink:href="#m717cd12e2c" id="line2d_15" x="71.308" y="23.407" style="fill:gray;stroke:gray;stroke-width:.8"/><g id="text_15" style="fill:gray" transform="matrix(.16 0 0 -.16 13.408 29.486)"><use xlink:href="#DejaVuSans-33"/><use xlink:href="#DejaVuSans-30" x="63.623"/><use xlink:href="#DejaVuSans-30" x="127.246"/><use xlink:href="#DejaVuSans-30" x="190.869"/><use xlink:href="#DejaVuSans-30" x="254.492"/></g></g></g><path id="line2d_16" d="m99.207 146.69.282-.121.282.11.282-.1.282.092.282-.084.282.076.282-.069.282.062.564-.007.846-.036 1.41.013 3.665.046.282-.095.282.104.282-.114.282.126.282-.139.282.153.282-.169.282.186.282-.205.282.228.282-.255.282.286.282-.323.282.369.282-.426.282.5.282-.601.282.745.282-.969.281 1.365.282-2.257.564 12.619 1.128-74.045.282-12.586.282-5.945.282-1.94.282 4.302.282 8.614 1.41 63.626.846 20.287.282 3.643.564 2.299.564 1.221.281-.63.282-1.428.564-5.24.282-.771.564 2.452.282.56.282-.123.282.028.846-1.835.282.042.282.547.282 2.79.564 8.82 1.128 9.574.564 5.286.282 1.142.281.094.282-2.512.282-6.38.282-12.318.564-40.559.564-41.285.282-13.13.282-7.408.282-2.75.282-.11.282 3.411.282 9.138 1.128 60.11.564 16.865.564 11.49.282 4.482.282 2.186.282-.866.281-1.945.282.296.282 1.428.282-.065.564-3.201.282-.71.564-3.122.282-.054.282.659.282-.56.282-1.505.282.272.282 1.39.282.033.282-1.445.282.68.564 6.78.282.667.282.197.282 2.09.846 11.526.281.686.282-3.366.282-8.318.564-29.246 1.128-71.226.282-9.707.282-4.186.282 1.522.282 5.886.564 24.255.564 29.177 1.128 41.369.564 5.664.282 1.935.282-1.272.563-8.856.282-.539.282 1.313.282.7.282.13.282 1.306.564 4.048.846 2.598.564 3.69.282.85.282.105.282.931 1.128 8.012.282 1.332.564 4.485.563 5.1.282-.134.282-5.626.282-12.022.564-37.27.846-61.235.564-21.613.282-4.125.282 1.622.564 17.738.564 24.972.846 43.668.846 26.263.282 4.333.282-.237.845-4.657.282-1.121.564.7.282-2.408.282-4.355.282-2.438.282.696 1.41 10.3.564 4.759.282.572.282.284.282 2.41.564 9.328.564 3.224.845 10.68.282-.333.282-3.774.282-8.363.564-33.72.846-63.021.564-27.429.282-5.57.282 1.517.564 17.536.846 34.237.564 29.04.564 15.293.564 13.343.282 3.206.282-1.184.281-2.251.846-3.812.564-2.71 1.128-1.897.282.18.282.698.282.39.282-.09.282.473.282.725.282.407.282 1.843 1.128 22.532.282 2.324 1.127 13.737.282-2.143.282-8.02.282-14.401 1.692-115.394.282-4.595.282 2.936.564 12.546.282 8.988 1.41 67.879.564 10.577.282 2.642.282.976.281-.945.282-1.478.282.264 1.41 9.12.282 1.156.282.217.282.597.846 4.413.282.063.282.53.282 1.133.282.296.282-.563.282.413 1.128 9.478.845 14.797.282-1.418.282-7.563.282-13.619.564-42.849.846-67.004.282-14.42.282-7.788.282-.108.282 6.087.846 25.92.564 27.807.564 29.979.564 13.956.564 10.848.282 2.212.281-.625.282-1.11.282-.173.282.752 1.128 5.237.564 3.948.846 5.86.282 3.418.282 1.857.564-1.979.282 1.305.564 5.316.282 1.863.564 7.289.564 7.16.281 1.723.282-.419.282-3.725.282-9.032.282-16.257 1.41-111.79.282-11.527.282-3.885.282-.014.282.972.282 3.172.564 14.155.282 11.5 1.128 63.43.564 10.59.282 2.685.282.866.281.146.282-.518.282-.825.282-.012.282.762.564.375.282 2.094.846 10.188 1.128 12.428 1.41 14.873.282 4.63.282 2.687.564.566.563 4.097.282-.96.282-4.326.282-7.504.282-12.59.564-42.559.846-65.33.282-13.164.282-6.562.282-1.24.282 2.056.282 3.878.282 5.416.282 7.724.564 27.79.564 33.692.564 17.729.564 9.997.282 2.388.281-.204.282-1.006.282-.034.282.87.282.293.282-1.14.564-4.42.282-.584.282 1.589.846 9.048.846 11.073.282 1.708.282 2.548.564 6.238.282.825.282 1.561 1.127 16.675.282 1.19.282-1.825.282-8.274.282-16.415 1.41-112.848.282-7.833.564-6.635.282-1.412.282 2.125.564 11.677.282 10.365 1.128 62.818.564 11.1.282 2.833.281.39.282.652.282 1.376.282.219.282-.298.282 2.175.564 7.05.564 1.218.282.39.282-.198.282 1.11.564 7.488.564 2.04 1.128 14.253.564 8.207.564 7.229.282 5.03.281 2.292.282-2.523.282-7.108.282-11.955.564-41.312.846-74.535.282-14.192.564-13.353.282-5.01.282-2.843.282.866.282 4.643.282 8.984.564 35.165.564 38.566.564 20.121.564 11.475.281 1.832.282.261.282.78.282 1.389.282.639.564-1.492.282.378.846 5.849.564 5.702.282 2.972.282 1.599.282.82.282 1.62.564 6.19 1.973 24.307.282.077.282-3.698.282-8.526.282-14.843.564-47.51.564-47.663.564-30.78.564-20.062.282-5.075.282-1.986.282 1.334.282 5.36.282 9.472.564 31.878.846 57.623.564 14.95.282 4.295.281 2.125.564 2.144.282 1.328.282.405.282.056.282.831 1.692 10.288.564 3.746.282 1.093.282 1.6.846 6.95.564 9.307.564 8.315.563 5.619.282 1.602.282.366.282-2.298.282-8.396.564-39.492 1.128-96.038.564-23.885.564-14.065.282-1.16.282 2.453.282 5.307.282 8.587.282 13.621.564 46.03.564 39.206.282 7.816.282 3.914.281 1.884.282.299.282.546.282 1.686.282 1.006.282-.687.282-.292.564 2.369.282-.056.282.607 1.128 8.998.564 5.641.564 3.162.564 4.02.282 2.993 1.41 24.935.563 7.024.282-.318.282-4.388.282-9.326.282-16.241.564-55.464.564-53.878.564-30.9.282-9.53.282-5.201.282-1.607.282 1.26.282 4.337.282 7.388.282 10.605.282 15.999.846 65.762.281 10.558.564 10.064.282 1.571.282-.494.282-.09.282.957.282.272.282-.642.282.144.564 3.039.282 1.993.564 5.844.282.598.282-.918.282.043.846 4.907.564 2.347.282 1.663.845 8.254.282.98.282 2.968.564 10.49.282 1.524.282-.536.282-2.283.282-7.43.282-15.387.564-47.909.846-70.916.564-21.098.282-4.9.282-.393.282 3.474.282 6.004.282 9.214.564 34.32.563 42.972.282 13.957.564 11.638.564 8.397.282 1.478.564.936.282-1.24.564-6.625.282.122.564 4.885.846 8.494.564 3.501.564 3.22.282 1.606 1.127 14.866 1.128 20.747.282 2.514.282 1.239.282-2.213.282-9.156.564-41.592.846-84.028.282-17.563.282-8.896.564-8.626.564-5.162.282-1.83.282 1.302.282 7.19.564 30.276.845 63.669.282 8.315.564 6.54.282 2.14.282.55.282 1.102.564 4.053.282.581.282 2.019.282 3.578.282 1.75.564-2.232.564 4.745.282.496.282-.109.282 2.465.564 8.508.563 6.748 1.692 28.236.282 1.22.282-3.141.282-10.49.564-45.567.846-87.192.564-31.62.564-14.146.282-2.771.282-.396.282 2.021.282 3.969.282 5.734.282 9.99.563 42.99.564 45.648.564 21.857.282 4.245.564 3.755.282 1.303.282.078.282-.202.564.888.282-.179.282 1.258.564 6.034.282.817.282 1.39.564 6.493.282.695.282.322.282 2.142 1.41 17.365 1.127 15.965.282-.551.282-4.966.282-11.928.564-49.8.846-87.609.282-16.718.282-10.004.564-10.078.282-3.36.282-1.275.282 2.109.282 5.057.282 7.64.281 12.314.564 43.499.564 40.446.282 10.906.282 5.953.282 2.338.282.34.282.971.282 3.613.564 9.518.282 1.515.282.829.846 5.457.282.62.846 5.92.282.743.282 1.563 1.127 9.91.564 6.726.282 2.623.282 3.844.564 10.461.282 2.37.282-.365.282-3.85.282-10.958.564-49.705.846-87.722.564-31.31.564-11.48.282-2.825.282-.656.282 1.61.282 4.91.281 9.816.564 33.614.846 63.75.282 11.916.282 5.88.564 6.182.282 1.295.282-.045.282.304 1.41 7.753.282 1.278.282.364.282 1.34.564 8.03.282 1.696.282.211.281 1.707 1.692 21.436 1.128 16.084.282.063.282-3.226.282-9.718.282-18.967 1.692-154.125.282-8.652.282-3.525.282-1.308.282-.565.282 1.733.281 6.099.564 24.4.564 39.663.564 43.417.282 11.892.282 4.651 1.128 5.98.282.703.282.226.564-1.065.282 1.68.564 5.547.282 1.436.282 2.992.564 8.96.563 5.28 1.692 26.714.846 11.928.282 1.055.282-.783.282-3.158.282-9.011.282-18.212.564-59.52.564-60.189.564-30.888.564-14.79.282-3.976.282-.572.281 1.78.282 3.557.282 6.647.564 26.264 1.41 91.964.282 2.866.846 5.13.846 9.66.282.247.282.714.282 1.898.282-.257.564-5.946.282 2.715.564 8.848.281 2.357.282 4.18.846 16.487 1.128 16.163.564 9.514.282 1.697.282-2.34.282-8.346.282-17.336.564-63.944.564-61.471.564-30.086.564-16.905.564-9.083.281-1.609.282 2.323.282 5.697.282 8.132.282 12.31.564 44.421.564 46.45.282 13.578.282 7.794.282 3.714.282.425.282-1.394.282-.489.564 3.925.282.364.282-.683.282.4.564 4.098.846 6.966.282 1.6.281 3.767.564 10.863.564 6.513.846 14.005.846 17.274.282 1.49.282-1.948.282-7.666.282-16.594.564-61.02.564-66.81.564-32.796.846-26.002.282-3.76.281-.948.282 1.69.282 4.823.282 8.607.282 13.41.564 41.932.564 44.16.564 25.648.282 4.856.564 3.397 1.128 12.068.564 2.66.564 1.97 1.691 10.434.282 1.15.282 3.119.564 8.873.282 1.313.282.567.282 2.703.846 13.312.282.735.282-3.516.282-11.641.282-22.63 1.128-122.407.282-15.77.564-15.986.564-9.004.281-.099.282 2.529.282 3.998.282 6.192.282 10.26.564 34.298.846 61.143.282 13.67.282 7.181.282 2.274.282.955 1.974 13.542.846 4.316 1.127 6.534.282 3.328.564 12.32.564 12.034.846 11.978.282 2.73.282 1.302.282-3.243.282-11.826.564-52.26.846-94.368.282-14.932 1.128-32.537.281-.673.564 2.655.282 3.471.282 8.818.564 33.105 1.128 78.816.282 9.608.846 10.567.282 3.48.282 1.639.282.769.282 1.658.564 5.008.282 1.68.282 2.711.564 13.042.563 10.617.564 8.352.846 16.19.282 3.059.282-1.272.282-7.379.282-15.22.282-25.8.846-106.207.564-29.606.564-19.494.282-3.545.564 1.812.282-.523.282 1.62.282 6.477.563 24.83 1.41 89.403.282 7.487.282 2.967.282.06.282-.2.282 1.383.282 2.177.282 1.045.282.075.282 1.61.564 7.296.282 1.092.282.346.846 4.386.282 2.714.564 6.836.282 2.158.563 8.458.846 11.964.564 10.239.282 4.346.564 12.099.282 1.285.282-4.538.282-9.831.282-18.891.564-74.708.564-60.967 1.128-50.067.564-9.065.282-3.65.281-2.129.282 1.93.282 6.042.564 19.236.564 33.175.846 57.838.564 22.958.282 7.205.282 3.365.282 1.692.282 3.223.564 8.427.282.756.282-.02.282 2.022.564 7.596 1.127 8.41.846 6.44 1.128 14.63.564 12.204.564 12.469.282 2.214.282-3.62.282-12.817.282-25.128.846-105.7.564-36.786.564-21.517.282-6.765.282-3.89.281-1.371.282.002.282 1.278.282 4.436.564 19.491.564 27.554.846 51.69.846 37.146.282 3.101.282 1.123.564 6.435.564 1.973.564 3.78.282 1.279.845 6.409.282.966 1.128 8.929.846 12.707.282 2.86 1.41 21.26.282-.99.282-8.085.282-19.476 1.41-149.298.564-20.713.563-9.213.282-2.795.282-1.453.282 1.595.282 4.611.564 16.137.564 27.666 1.41 72.288.846 15.403.282 4.074.846 7.073.564 6.127.282 2.153.563 8.73.282 4.113 1.41 11.433.282 1.358.564 7.385 1.128 18.098.282.184.282-1.447.282-4.028.282-12.922.564-65.52.564-61.646.846-40.991.281-10.08.282-5.455.564-3.918.282-.915.282 1.32.282 4.825.564 19.673.846 45.146.846 47.173.282 8.306.846 13.32.282 3.177.846 5.686.564 5.54 1.127 13.89.564 4.507 1.128 14.975 1.128 19.432.564 7.37.282-1.41.282-7.242.282-14.815.282-26.163.846-106.03.564-28.367.563-18.424.282-5.297.282-2.736.282-1.259.282-.356.282.015.282 1.319.282 4.733.564 21.199 1.692 84.964.564 14.996.564 9.97 1.128 13.294.563 1.692 1.692 18.416.282 1.382.282 2.885 1.692 28.17.846 18.288.282-3.442.282-12.755.282-23.368 1.128-131.718.845-42.18.282-7.148.846-5.703.282.282.282 4.787.564 17.735.564 23.67.846 40.648.846 29.146 1.128 27.592.564 9.443.563 4.604.564 4.862.282.263.282.888.564 4.634.564.93.282 2.351.282 4.686 1.692 38.835.282 4.83.282 1.145.282-1.37.282-4.346.282-14.415.564-70.798.563-68.092.564-35.44.564-19.65.282-7.835.282-3.416.282 2.802.846 14.825.564 20.717 2.256 98.62 1.41 19.057.563 5.098.282.545.282-.143.282 1.759.282 2.876.282 1.26.282.633.282 2.815 1.692 29.191.564 7.162.564 11.09.282.86.282-4.516.282-12.319.282-24.659.845-99.245.564-34.247.564-21.348.564-10.921.282-2.024.282 1.836.564 7.247.282 6.895.846 34.39 1.128 49.742 2.82 67.605.281 3.506.282.685.282 1.574.564 5.772.564.991.564 5.329.846 10.713.282 2.464.846 12.294.282-2.78.282-9.393.282-20.04 1.127-128.63.564-25.598.282-9.208.564-7.454.564-5.59.282-.414.282 1.264.282 3.368.564 13.99.564 22.995.564 30.342 1.128 38.408.564 9.718.564 9.777 2.255 49.924 1.692 25.888.282 1.765.282.313.282 2.885.282 4.512.282 1.782.282-2.681.282-6.176.282-13.392.282-26.666.846-108.194.563-33.384.282-9.649.282-5.662.282-2.443.282-1.243.282-.34.282 1.163.282 3.336.564 10.77.564 15.857 1.41 49.068.564 10.582.564 9.62.564 10.191.845 9.71.564 16.922.564 14.36.564 8.179.564 8.357.282 1.926.282 3.266 1.974 40.326.282.023.282-5.9.282-15.568.564-68.35.563-64.706.564-31.088.564-21.21.282-5.227.282-1.941.282-.49.282-.091.282-.411.282.985.282 4.395.282 9.493 1.41 64.465.564 17.01.282 2.967.282 1.244.564 4.602.845 8.49.282 3.848.564 12.107.564 13.13 3.102 57.36.564 13.076.282.037.282-10.044.282-24.799.846-102.635.563-38.802.564-25.434.564-12.2.282-2.91.282-.24.282 1.166.282 4.24.282 7.37 1.128 46.953.564 22.48.846 23.752.564 13.152.564 3.352.282.49.281 7.267h0" clip-path="url(#p7a8289d567)" style="fill:none;stroke:#1f77b4;stroke-width:1.5;stroke-linecap:square"/><path id="patch_3" d="M71.308 266.112V0" style="fill:none;stroke:gray;stroke-width:.8;stroke-linejoin:miter;stroke-linecap:square"/><path id="patch_4" d="M685.107 266.112V0" style="fill:none;stroke:#000;stroke-width:.8;stroke-linejoin:miter;stroke-linecap:square"/><path id="patch_5" d="M71.308 266.112h613.8" style="fill:none;stroke:gray;stroke-width:.8;stroke-linejoin:miter;stroke-linecap:square"/><path id="patch_6" d="M71.308 0h613.8" style="fill:none;stroke:#000;stroke-width:.8;stroke-linejoin:miter;stroke-linecap:square"/></g></g><defs><clipPath id="p7a8289d567"><path d="M71.308 0h613.8v266.112h-613.8z"/></clipPath></defs></svg>