<?xml version="1.0" encoding="utf-8" standalone="no"?>
<!DOCTYPE svg PUBLIC "-//W3C//DTD SVG 1.1//EN"
  "http://www.w3.org/Graphics/SVG/1.1/DTD/svg11.dtd">
<svg xmlns:xlink="http://www.w3.org/1999/xlink" width="660.992188pt" height="282.790125pt" viewBox="0 0 660.992188 282.790125" xmlns="http://www.w3.org/2000/svg" version="1.1">
 <metadata>
  <rdf:RDF xmlns:dc="http://purl.org/dc/elements/1.1/" xmlns:cc="http://creativecommons.org/ns#" xmlns:rdf="http://www.w3.org/1999/02/22-rdf-syntax-ns#">
   <cc:Work>
    <dc:type rdf:resource="http://purl.org/dc/dcmitype/StillImage"/>
    <dc:date>2023-03-06T21:29:44.618822</dc:date>
    <dc:format>image/svg+xml</dc:format>
    <dc:creator>
     <cc:Agent>
      <dc:title>Matplotlib v3.6.3, https://matplotlib.org/</dc:title>
     </cc:Agent>
    </dc:creator>
   </cc:Work>
  </rdf:RDF>
 </metadata>
 <defs>
  <style type="text/css">*{stroke-linejoin: round; stroke-linecap: butt}</style>
 </defs>
 <g id="figure_1">
  <g id="patch_1">
   <path d="M -0 282.790125 
L 660.992188 282.790125 
L 660.992188 0 
L -0 0 
L -0 282.790125 
z
" style="fill: none"/>
  </g>
  <g id="axes_1">
   <g id="patch_2">
    <path d="M 47.192188 266.112 
L 660.992188 266.112 
L 660.992188 0 
L 47.192188 0 
L 47.192188 266.112 
z
" style="fill: none"/>
   </g>
   <g id="matplotlib.axis_1">
    <g id="xtick_1">
     <g id="line2d_1">
      <defs>
       <path id="mbeb59558eb" d="M 0 0 
L 0 3.5 
" style="stroke: #808080; stroke-width: 0.8"/>
      </defs>
      <g>
       <use xlink:href="#mbeb59558eb" x="75.092188" y="266.112" style="fill: #808080; stroke: #808080; stroke-width: 0.8"/>
      </g>
     </g>
     <g id="text_1">
      <!-- 0 -->
      <g style="fill: #808080" transform="translate(71.910938 280.710438) scale(0.1 -0.1)">
       <defs>
        <path id="DejaVuSans-30" d="M 2034 4250 
Q 1547 4250 1301 3770 
Q 1056 3291 1056 2328 
Q 1056 1369 1301 889 
Q 1547 409 2034 409 
Q 2525 409 2770 889 
Q 3016 1369 3016 2328 
Q 3016 3291 2770 3770 
Q 2525 4250 2034 4250 
z
M 2034 4750 
Q 2819 4750 3233 4129 
Q 3647 3509 3647 2328 
Q 3647 1150 3233 529 
Q 2819 -91 2034 -91 
Q 1250 -91 836 529 
Q 422 1150 422 2328 
Q 422 3509 836 4129 
Q 1250 4750 2034 4750 
z
" transform="scale(0.015625)"/>
       </defs>
       <use xlink:href="#DejaVuSans-30"/>
      </g>
     </g>
    </g>
    <g id="xtick_2">
     <g id="line2d_2">
      <g>
       <use xlink:href="#mbeb59558eb" x="144.842188" y="266.112" style="fill: #808080; stroke: #808080; stroke-width: 0.8"/>
      </g>
     </g>
     <g id="text_2">
      <!-- 500 -->
      <g style="fill: #808080" transform="translate(135.298438 280.710438) scale(0.1 -0.1)">
       <defs>
        <path id="DejaVuSans-35" d="M 691 4666 
L 3169 4666 
L 3169 4134 
L 1269 4134 
L 1269 2991 
Q 1406 3038 1543 3061 
Q 1681 3084 1819 3084 
Q 2600 3084 3056 2656 
Q 3513 2228 3513 1497 
Q 3513 744 3044 326 
Q 2575 -91 1722 -91 
Q 1428 -91 1123 -41 
Q 819 9 494 109 
L 494 744 
Q 775 591 1075 516 
Q 1375 441 1709 441 
Q 2250 441 2565 725 
Q 2881 1009 2881 1497 
Q 2881 1984 2565 2268 
Q 2250 2553 1709 2553 
Q 1456 2553 1204 2497 
Q 953 2441 691 2322 
L 691 4666 
z
" transform="scale(0.015625)"/>
       </defs>
       <use xlink:href="#DejaVuSans-35"/>
       <use xlink:href="#DejaVuSans-30" x="63.623047"/>
       <use xlink:href="#DejaVuSans-30" x="127.246094"/>
      </g>
     </g>
    </g>
    <g id="xtick_3">
     <g id="line2d_3">
      <g>
       <use xlink:href="#mbeb59558eb" x="214.592188" y="266.112" style="fill: #808080; stroke: #808080; stroke-width: 0.8"/>
      </g>
     </g>
     <g id="text_3">
      <!-- 1000 -->
      <g style="fill: #808080" transform="translate(201.867188 280.710438) scale(0.1 -0.1)">
       <defs>
        <path id="DejaVuSans-31" d="M 794 531 
L 1825 531 
L 1825 4091 
L 703 3866 
L 703 4441 
L 1819 4666 
L 2450 4666 
L 2450 531 
L 3481 531 
L 3481 0 
L 794 0 
L 794 531 
z
" transform="scale(0.015625)"/>
       </defs>
       <use xlink:href="#DejaVuSans-31"/>
       <use xlink:href="#DejaVuSans-30" x="63.623047"/>
       <use xlink:href="#DejaVuSans-30" x="127.246094"/>
       <use xlink:href="#DejaVuSans-30" x="190.869141"/>
      </g>
     </g>
    </g>
    <g id="xtick_4">
     <g id="line2d_4">
      <g>
       <use xlink:href="#mbeb59558eb" x="284.342188" y="266.112" style="fill: #808080; stroke: #808080; stroke-width: 0.8"/>
      </g>
     </g>
     <g id="text_4">
      <!-- 1500 -->
      <g style="fill: #808080" transform="translate(271.617188 280.710438) scale(0.1 -0.1)">
       <use xlink:href="#DejaVuSans-31"/>
       <use xlink:href="#DejaVuSans-35" x="63.623047"/>
       <use xlink:href="#DejaVuSans-30" x="127.246094"/>
       <use xlink:href="#DejaVuSans-30" x="190.869141"/>
      </g>
     </g>
    </g>
    <g id="xtick_5">
     <g id="line2d_5">
      <g>
       <use xlink:href="#mbeb59558eb" x="354.092188" y="266.112" style="fill: #808080; stroke: #808080; stroke-width: 0.8"/>
      </g>
     </g>
     <g id="text_5">
      <!-- 2000 -->
      <g style="fill: #808080" transform="translate(341.367188 280.710438) scale(0.1 -0.1)">
       <defs>
        <path id="DejaVuSans-32" d="M 1228 531 
L 3431 531 
L 3431 0 
L 469 0 
L 469 531 
Q 828 903 1448 1529 
Q 2069 2156 2228 2338 
Q 2531 2678 2651 2914 
Q 2772 3150 2772 3378 
Q 2772 3750 2511 3984 
Q 2250 4219 1831 4219 
Q 1534 4219 1204 4116 
Q 875 4013 500 3803 
L 500 4441 
Q 881 4594 1212 4672 
Q 1544 4750 1819 4750 
Q 2544 4750 2975 4387 
Q 3406 4025 3406 3419 
Q 3406 3131 3298 2873 
Q 3191 2616 2906 2266 
Q 2828 2175 2409 1742 
Q 1991 1309 1228 531 
z
" transform="scale(0.015625)"/>
       </defs>
       <use xlink:href="#DejaVuSans-32"/>
       <use xlink:href="#DejaVuSans-30" x="63.623047"/>
       <use xlink:href="#DejaVuSans-30" x="127.246094"/>
       <use xlink:href="#DejaVuSans-30" x="190.869141"/>
      </g>
     </g>
    </g>
    <g id="xtick_6">
     <g id="line2d_6">
      <g>
       <use xlink:href="#mbeb59558eb" x="423.842188" y="266.112" style="fill: #808080; stroke: #808080; stroke-width: 0.8"/>
      </g>
     </g>
     <g id="text_6">
      <!-- 2500 -->
      <g style="fill: #808080" transform="translate(411.117188 280.710438) scale(0.1 -0.1)">
       <use xlink:href="#DejaVuSans-32"/>
       <use xlink:href="#DejaVuSans-35" x="63.623047"/>
       <use xlink:href="#DejaVuSans-30" x="127.246094"/>
       <use xlink:href="#DejaVuSans-30" x="190.869141"/>
      </g>
     </g>
    </g>
    <g id="xtick_7">
     <g id="line2d_7">
      <g>
       <use xlink:href="#mbeb59558eb" x="493.592188" y="266.112" style="fill: #808080; stroke: #808080; stroke-width: 0.8"/>
      </g>
     </g>
     <g id="text_7">
      <!-- 3000 -->
      <g style="fill: #808080" transform="translate(480.867188 280.710438) scale(0.1 -0.1)">
       <defs>
        <path id="DejaVuSans-33" d="M 2597 2516 
Q 3050 2419 3304 2112 
Q 3559 1806 3559 1356 
Q 3559 666 3084 287 
Q 2609 -91 1734 -91 
Q 1441 -91 1130 -33 
Q 819 25 488 141 
L 488 750 
Q 750 597 1062 519 
Q 1375 441 1716 441 
Q 2309 441 2620 675 
Q 2931 909 2931 1356 
Q 2931 1769 2642 2001 
Q 2353 2234 1838 2234 
L 1294 2234 
L 1294 2753 
L 1863 2753 
Q 2328 2753 2575 2939 
Q 2822 3125 2822 3475 
Q 2822 3834 2567 4026 
Q 2313 4219 1838 4219 
Q 1578 4219 1281 4162 
Q 984 4106 628 3988 
L 628 4550 
Q 988 4650 1302 4700 
Q 1616 4750 1894 4750 
Q 2613 4750 3031 4423 
Q 3450 4097 3450 3541 
Q 3450 3153 3228 2886 
Q 3006 2619 2597 2516 
z
" transform="scale(0.015625)"/>
       </defs>
       <use xlink:href="#DejaVuSans-33"/>
       <use xlink:href="#DejaVuSans-30" x="63.623047"/>
       <use xlink:href="#DejaVuSans-30" x="127.246094"/>
       <use xlink:href="#DejaVuSans-30" x="190.869141"/>
      </g>
     </g>
    </g>
    <g id="xtick_8">
     <g id="line2d_8">
      <g>
       <use xlink:href="#mbeb59558eb" x="563.342188" y="266.112" style="fill: #808080; stroke: #808080; stroke-width: 0.8"/>
      </g>
     </g>
     <g id="text_8">
      <!-- 3500 -->
      <g style="fill: #808080" transform="translate(550.617188 280.710438) scale(0.1 -0.1)">
       <use xlink:href="#DejaVuSans-33"/>
       <use xlink:href="#DejaVuSans-35" x="63.623047"/>
       <use xlink:href="#DejaVuSans-30" x="127.246094"/>
       <use xlink:href="#DejaVuSans-30" x="190.869141"/>
      </g>
     </g>
    </g>
    <g id="xtick_9">
     <g id="line2d_9">
      <g>
       <use xlink:href="#mbeb59558eb" x="633.092188" y="266.112" style="fill: #808080; stroke: #808080; stroke-width: 0.8"/>
      </g>
     </g>
     <g id="text_9">
      <!-- 4000 -->
      <g style="fill: #808080" transform="translate(620.367188 280.710438) scale(0.1 -0.1)">
       <defs>
        <path id="DejaVuSans-34" d="M 2419 4116 
L 825 1625 
L 2419 1625 
L 2419 4116 
z
M 2253 4666 
L 3047 4666 
L 3047 1625 
L 3713 1625 
L 3713 1100 
L 3047 1100 
L 3047 0 
L 2419 0 
L 2419 1100 
L 313 1100 
L 313 1709 
L 2253 4666 
z
" transform="scale(0.015625)"/>
       </defs>
       <use xlink:href="#DejaVuSans-34"/>
       <use xlink:href="#DejaVuSans-30" x="63.623047"/>
       <use xlink:href="#DejaVuSans-30" x="127.246094"/>
       <use xlink:href="#DejaVuSans-30" x="190.869141"/>
      </g>
     </g>
    </g>
   </g>
   <g id="matplotlib.axis_2">
    <g id="ytick_1">
     <g id="line2d_10">
      <defs>
       <path id="mfc7c733969" d="M 0 0 
L -3.5 0 
" style="stroke: #808080; stroke-width: 0.8"/>
      </defs>
      <g>
       <use xlink:href="#mfc7c733969" x="47.192188" y="265.633073" style="fill: #808080; stroke: #808080; stroke-width: 0.8"/>
      </g>
     </g>
     <g id="text_10">
      <!-- −20000 -->
      <g style="fill: #808080" transform="translate(0 269.432291) scale(0.1 -0.1)">
       <defs>
        <path id="DejaVuSans-2212" d="M 678 2272 
L 4684 2272 
L 4684 1741 
L 678 1741 
L 678 2272 
z
" transform="scale(0.015625)"/>
       </defs>
       <use xlink:href="#DejaVuSans-2212"/>
       <use xlink:href="#DejaVuSans-32" x="83.789062"/>
       <use xlink:href="#DejaVuSans-30" x="147.412109"/>
       <use xlink:href="#DejaVuSans-30" x="211.035156"/>
       <use xlink:href="#DejaVuSans-30" x="274.658203"/>
       <use xlink:href="#DejaVuSans-30" x="338.28125"/>
      </g>
     </g>
    </g>
    <g id="ytick_2">
     <g id="line2d_11">
      <g>
       <use xlink:href="#mfc7c733969" x="47.192188" y="208.898458" style="fill: #808080; stroke: #808080; stroke-width: 0.8"/>
      </g>
     </g>
     <g id="text_11">
      <!-- −10000 -->
      <g style="fill: #808080" transform="translate(0 212.697677) scale(0.1 -0.1)">
       <use xlink:href="#DejaVuSans-2212"/>
       <use xlink:href="#DejaVuSans-31" x="83.789062"/>
       <use xlink:href="#DejaVuSans-30" x="147.412109"/>
       <use xlink:href="#DejaVuSans-30" x="211.035156"/>
       <use xlink:href="#DejaVuSans-30" x="274.658203"/>
       <use xlink:href="#DejaVuSans-30" x="338.28125"/>
      </g>
     </g>
    </g>
    <g id="ytick_3">
     <g id="line2d_12">
      <g>
       <use xlink:href="#mfc7c733969" x="47.192188" y="152.163843" style="fill: #808080; stroke: #808080; stroke-width: 0.8"/>
      </g>
     </g>
     <g id="text_12">
      <!-- 0 -->
      <g style="fill: #808080" transform="translate(33.829688 155.963062) scale(0.1 -0.1)">
       <use xlink:href="#DejaVuSans-30"/>
      </g>
     </g>
    </g>
    <g id="ytick_4">
     <g id="line2d_13">
      <g>
       <use xlink:href="#mfc7c733969" x="47.192188" y="95.429229" style="fill: #808080; stroke: #808080; stroke-width: 0.8"/>
      </g>
     </g>
     <g id="text_13">
      <!-- 10000 -->
      <g style="fill: #808080" transform="translate(8.379688 99.228447) scale(0.1 -0.1)">
       <use xlink:href="#DejaVuSans-31"/>
       <use xlink:href="#DejaVuSans-30" x="63.623047"/>
       <use xlink:href="#DejaVuSans-30" x="127.246094"/>
       <use xlink:href="#DejaVuSans-30" x="190.869141"/>
       <use xlink:href="#DejaVuSans-30" x="254.492188"/>
      </g>
     </g>
    </g>
    <g id="ytick_5">
     <g id="line2d_14">
      <g>
       <use xlink:href="#mfc7c733969" x="47.192188" y="38.694614" style="fill: #808080; stroke: #808080; stroke-width: 0.8"/>
      </g>
     </g>
     <g id="text_14">
      <!-- 20000 -->
      <g style="fill: #808080" transform="translate(8.379688 42.493833) scale(0.1 -0.1)">
       <use xlink:href="#DejaVuSans-32"/>
       <use xlink:href="#DejaVuSans-30" x="63.623047"/>
       <use xlink:href="#DejaVuSans-30" x="127.246094"/>
       <use xlink:href="#DejaVuSans-30" x="190.869141"/>
       <use xlink:href="#DejaVuSans-30" x="254.492188"/>
      </g>
     </g>
    </g>
   </g>
   <g id="line2d_15">
    <path d="M 75.092188 152.256925 
L 75.374148 152.076818 
L 75.656109 152.245303 
L 75.938069 152.087525 
L 76.22003 152.235388 
L 76.50199 152.096751 
L 76.783951 152.226761 
L 77.065912 152.104856 
L 77.347872 152.219115 
L 77.629833 152.112101 
L 77.911793 152.21222 
L 78.193754 152.118689 
L 78.475715 152.205898 
L 78.757675 152.12478 
L 79.039636 152.200005 
L 79.321596 152.130507 
L 79.603557 152.194417 
L 80.167478 152.189027 
L 81.01336 152.146594 
L 81.859242 152.17303 
L 83.551005 152.154792 
L 84.960808 152.193744 
L 85.242769 152.128546 
L 85.524729 152.205168 
L 85.80669 152.115706 
L 86.08865 152.219779 
L 86.370611 152.098847 
L 86.652572 152.239545 
L 86.934532 152.075239 
L 87.216493 152.26837 
L 87.498453 152.039089 
L 87.780414 152.315253 
L 88.062374 151.97558 
L 88.344335 152.406544 
L 88.626296 151.832501 
L 88.908256 152.664311 
L 89.190217 151.225456 
L 89.754138 167.331514 
L 90.036099 169.021954 
L 90.318059 173.042006 
L 90.60002 172.818174 
L 90.88198 171.540163 
L 91.445901 162.91308 
L 92.291783 137.921471 
L 93.701586 85.193721 
L 93.983547 82.681622 
L 94.265507 87.344852 
L 94.829429 105.999913 
L 95.39335 118.299895 
L 95.957271 140.345836 
L 96.239231 144.828119 
L 96.521192 147.417503 
L 97.367074 162.00086 
L 97.649034 163.890646 
L 98.212956 170.426883 
L 98.494916 170.886879 
L 98.776877 171.865391 
L 99.058837 173.791996 
L 99.340798 174.250242 
L 99.904719 170.774568 
L 100.750601 167.062902 
L 101.032561 167.21869 
L 101.314522 166.661017 
L 101.878443 164.384065 
L 102.160404 164.746016 
L 102.442364 165.631816 
L 103.006286 168.504496 
L 103.288246 169.227362 
L 103.570207 171.112658 
L 104.134128 181.73068 
L 104.416088 182.929001 
L 104.698049 181.366582 
L 104.98001 182.458783 
L 105.26197 185.162038 
L 105.543931 184.329124 
L 105.825891 179.624992 
L 106.107852 177.335627 
L 106.671773 181.187429 
L 106.953734 179.759911 
L 107.235694 176.72489 
L 107.517655 171.433666 
L 107.799615 161.179494 
L 109.491379 79.019719 
L 110.0553 72.190662 
L 110.337261 71.74899 
L 110.619221 76.462797 
L 111.183143 96.503934 
L 112.310985 154.801998 
L 112.874906 167.826107 
L 113.156867 171.346834 
L 113.438827 172.548556 
L 113.720788 172.686733 
L 114.284709 174.492618 
L 114.56667 174.558355 
L 115.130591 171.25425 
L 115.694512 169.599126 
L 116.258433 164.540142 
L 116.540394 164.095224 
L 116.822354 165.381675 
L 117.104315 165.096996 
L 117.668236 161.274548 
L 117.950197 161.669787 
L 118.232157 161.730364 
L 118.514118 160.927017 
L 118.796078 161.217583 
L 119.078039 162.967985 
L 119.36 163.682377 
L 119.64196 163.564038 
L 120.205881 165.392183 
L 120.487842 164.846707 
L 120.769802 166.017977 
L 121.333724 177.340829 
L 121.615684 178.241891 
L 121.897645 177.186365 
L 122.179605 178.910513 
L 122.461566 181.409272 
L 122.743527 179.711221 
L 123.307448 170.868015 
L 123.589408 167.365268 
L 123.871369 160.664705 
L 124.43529 135.550189 
L 125.281172 98.233822 
L 125.845093 82.363066 
L 126.127054 79.973247 
L 126.409014 82.447928 
L 126.690975 88.109028 
L 126.972935 96.295803 
L 127.536857 124.521789 
L 128.100778 149.705473 
L 128.664699 159.426034 
L 128.946659 163.02392 
L 129.22862 163.80694 
L 129.510581 163.528949 
L 130.074502 167.076767 
L 130.356462 166.337387 
L 130.638423 164.13191 
L 130.920384 163.415946 
L 131.202344 163.571523 
L 131.484305 162.524729 
L 131.766265 160.304642 
L 132.048226 159.378319 
L 132.330186 161.393205 
L 132.894108 168.76471 
L 133.176068 169.388446 
L 133.458029 168.742872 
L 133.739989 168.6582 
L 134.02195 168.822631 
L 134.303911 169.282419 
L 135.149792 173.910533 
L 135.431753 174.479876 
L 137.687438 187.35928 
L 137.969398 188.030545 
L 138.251359 183.804214 
L 138.81528 170.829943 
L 139.097241 166.757553 
L 139.379201 157.389603 
L 140.507043 98.077185 
L 141.070965 71.859421 
L 141.634886 57.659195 
L 141.916846 55.862324 
L 142.198807 59.44682 
L 142.762728 79.945668 
L 143.326649 112.977848 
L 143.890571 148.146859 
L 144.172531 157.48509 
L 144.454492 161.712738 
L 145.018413 166.686039 
L 145.300373 169.616637 
L 145.582334 171.111519 
L 146.146255 169.809958 
L 146.428216 169.978613 
L 146.710176 169.860429 
L 147.274098 167.186593 
L 147.556058 167.380286 
L 147.838019 166.972871 
L 148.119979 164.757121 
L 148.40194 163.586176 
L 148.965861 165.930313 
L 149.247822 164.382271 
L 149.529782 164.221796 
L 150.375664 176.110093 
L 150.657625 175.925641 
L 150.939585 176.015078 
L 151.221546 177.212243 
L 152.631349 187.07597 
L 153.19527 192.862533 
L 153.47723 192.116997 
L 153.759191 189.659402 
L 154.041152 188.282171 
L 154.323112 188.180651 
L 154.605073 187.041675 
L 154.887033 182.446258 
L 155.168994 173.821666 
L 155.732915 144.484439 
L 156.578797 88.151013 
L 157.142718 62.884496 
L 157.424679 54.460379 
L 157.706639 51.531587 
L 157.9886 52.594523 
L 158.27056 55.77564 
L 158.552521 63.003859 
L 159.116442 91.999629 
L 160.244285 150.339728 
L 160.526245 154.685545 
L 160.808206 155.452467 
L 161.090166 159.965762 
L 161.654087 175.22444 
L 161.936048 175.084889 
L 162.218009 173.47158 
L 162.78193 176.303095 
L 163.06389 173.263876 
L 163.345851 168.153923 
L 163.627812 165.305327 
L 164.191733 163.779572 
L 164.473693 164.243417 
L 164.755654 166.311011 
L 165.037614 167.531228 
L 165.319575 166.883208 
L 165.601536 166.929048 
L 166.165457 171.114231 
L 166.447417 170.388564 
L 166.729378 170.374766 
L 167.011339 174.909831 
L 167.293299 181.310837 
L 167.57526 184.305842 
L 167.85722 184.181662 
L 168.139181 185.012062 
L 168.421142 186.775264 
L 168.985063 187.787098 
L 169.548984 191.771876 
L 170.112905 189.819427 
L 170.394866 189.868421 
L 170.676826 184.604658 
L 171.240747 152.888156 
L 172.65055 68.468079 
L 173.214471 56.577423 
L 173.496432 55.114672 
L 173.778393 58.185938 
L 174.060353 65.862548 
L 174.624274 95.268115 
L 175.470156 148.463839 
L 175.752117 154.911586 
L 176.034077 156.117049 
L 176.316038 158.664404 
L 176.879959 171.966747 
L 177.16192 174.044737 
L 177.44388 173.870161 
L 178.007801 175.846667 
L 178.571723 174.28328 
L 178.853683 175.029692 
L 179.135644 174.309306 
L 179.417604 171.389162 
L 179.699565 170.285843 
L 180.263486 174.231921 
L 180.545447 172.174516 
L 180.827407 169.27085 
L 181.109368 168.70128 
L 181.673289 171.517656 
L 182.23721 175.866371 
L 182.801131 180.029533 
L 183.365053 182.645464 
L 183.928974 187.61978 
L 184.492895 192.237206 
L 185.056816 196.504007 
L 185.620737 200.656977 
L 185.902698 200.447569 
L 186.184658 196.95489 
L 186.466619 189.202324 
L 186.74858 175.675226 
L 188.722304 39.323728 
L 189.004264 31.532623 
L 189.286225 28.451777 
L 189.568185 30.33652 
L 189.850146 38.407792 
L 190.414067 67.075474 
L 191.82387 158.749202 
L 192.105831 164.793817 
L 192.669752 167.228927 
L 193.233673 172.255643 
L 193.515634 172.711623 
L 193.797594 172.179341 
L 194.079555 172.708081 
L 194.643476 175.366593 
L 194.925437 174.892967 
L 195.489358 171.970587 
L 195.771318 171.168428 
L 196.053279 170.978934 
L 196.33524 170.994469 
L 196.899161 170.306173 
L 197.181121 170.544341 
L 197.745042 173.384968 
L 198.590924 178.854553 
L 199.154845 183.434932 
L 200.000727 191.196849 
L 200.564648 194.593815 
L 201.692491 204.739041 
L 201.974451 204.9129 
L 202.256412 201.432866 
L 202.538372 193.127102 
L 203.102294 164.478971 
L 203.666215 122.067358 
L 204.230136 78.458562 
L 204.794057 53.186539 
L 205.076018 43.576937 
L 205.357978 40.2306 
L 205.639939 44.779604 
L 206.20386 60.666592 
L 206.485821 73.76404 
L 207.331702 128.001503 
L 208.177584 162.141321 
L 208.459545 167.249264 
L 209.023466 171.755638 
L 209.305427 172.855489 
L 209.587387 172.007564 
L 209.869348 171.540259 
L 210.151308 172.521139 
L 210.433269 172.430144 
L 210.715229 170.274796 
L 210.99719 169.815437 
L 211.561111 177.202832 
L 211.843072 176.294175 
L 212.125032 173.921784 
L 212.406993 175.308192 
L 212.688954 177.515096 
L 212.970914 174.074548 
L 213.252875 167.199716 
L 213.534835 164.517206 
L 214.098756 168.062605 
L 214.380717 168.20072 
L 214.662678 170.199158 
L 215.226599 176.079656 
L 215.508559 177.83756 
L 216.636402 188.257861 
L 217.200323 197.135497 
L 217.764244 205.711001 
L 218.046205 205.901312 
L 218.328165 203.423124 
L 218.610126 197.434643 
L 218.892086 184.097811 
L 220.301889 79.112171 
L 220.58385 64.062586 
L 220.865811 56.028294 
L 221.429732 48.857318 
L 221.711692 48.341065 
L 221.993653 53.212734 
L 222.275613 62.451613 
L 222.557574 75.389082 
L 223.121495 118.21794 
L 223.685416 156.32878 
L 224.249338 174.40822 
L 224.531298 175.140164 
L 224.813259 171.305683 
L 225.095219 169.66775 
L 225.37718 172.025029 
L 225.659141 173.209847 
L 226.223062 169.829059 
L 226.505022 170.05245 
L 226.786983 168.357433 
L 227.068943 165.07097 
L 227.350904 164.29752 
L 227.632865 165.616451 
L 227.914825 165.38998 
L 228.196786 164.594463 
L 228.478746 166.59734 
L 228.760707 169.782203 
L 229.042668 170.415994 
L 229.324628 169.612093 
L 229.606589 170.71201 
L 230.45247 178.254404 
L 231.298352 190.488067 
L 231.862273 197.117186 
L 233.272076 217.133113 
L 233.554037 218.650018 
L 233.835998 218.849311 
L 234.117958 216.014362 
L 234.399919 208.368979 
L 234.681879 195.436207 
L 235.2458 154.320694 
L 236.373643 52.536628 
L 236.655603 34.419779 
L 236.937564 24.726721 
L 237.219525 22.086263 
L 237.501485 21.210538 
L 237.783446 22.011223 
L 238.065406 30.165862 
L 238.911288 81.980378 
L 239.75717 145.058873 
L 240.03913 153.521579 
L 240.603052 161.350651 
L 240.885012 163.582665 
L 241.730894 167.096275 
L 242.012855 166.96637 
L 242.294815 167.725948 
L 242.576776 169.521234 
L 242.858736 169.507075 
L 243.140697 167.871858 
L 243.422657 168.904737 
L 243.986579 179.60478 
L 244.268539 181.762291 
L 244.5505 181.311947 
L 244.83246 181.088736 
L 245.396382 183.218681 
L 245.678342 182.063689 
L 245.960303 179.732149 
L 246.242263 179.039532 
L 247.934027 188.187898 
L 248.215987 190.643862 
L 248.779909 197.21057 
L 249.061869 198.773947 
L 249.34383 201.049415 
L 249.907751 207.15368 
L 250.189712 208.70072 
L 250.471672 208.290591 
L 250.753633 202.920695 
L 251.317554 175.248919 
L 251.881475 136.784174 
L 252.727357 74.466054 
L 253.573239 38.624341 
L 253.855199 33.427154 
L 254.13716 34.352811 
L 254.41912 39.198727 
L 254.701081 46.576786 
L 254.983041 59.211921 
L 256.392844 159.722812 
L 256.674805 168.123606 
L 256.956766 171.930104 
L 257.802647 176.553058 
L 258.084608 177.504511 
L 258.648529 180.037341 
L 258.93049 178.559351 
L 259.494411 170.950722 
L 259.776371 169.842139 
L 260.058332 169.251001 
L 260.340293 167.462512 
L 260.622253 166.565777 
L 260.904214 169.55607 
L 261.468135 179.998019 
L 261.750096 181.770464 
L 262.314017 183.346445 
L 262.877938 185.003124 
L 263.159898 187.463863 
L 264.00578 199.189256 
L 264.569701 204.210144 
L 264.851662 208.87542 
L 265.415583 221.789817 
L 265.697544 225.423847 
L 265.979504 226.755103 
L 266.261465 226.723645 
L 266.543425 223.080905 
L 266.825386 211.489176 
L 267.389307 164.209113 
L 268.51715 65.035445 
L 269.081071 42.79852 
L 269.644992 27.250346 
L 269.926953 26.785836 
L 270.772834 41.529511 
L 271.054795 52.051741 
L 271.618716 91.584484 
L 272.464598 155.729665 
L 272.746558 168.745544 
L 273.028519 176.071832 
L 273.31048 176.961643 
L 273.59244 173.955462 
L 273.874401 172.27858 
L 274.156361 172.414327 
L 274.438322 170.114481 
L 274.720282 165.545284 
L 275.002243 163.695816 
L 275.284204 164.719407 
L 275.566164 163.847841 
L 275.848125 160.870918 
L 276.130085 159.908606 
L 276.412046 160.743551 
L 276.694007 159.969677 
L 276.975967 158.762614 
L 277.257928 161.239421 
L 278.667731 190.497185 
L 278.949691 193.528964 
L 279.231652 195.234787 
L 280.077534 205.023276 
L 280.359494 204.660647 
L 280.641455 205.23632 
L 280.923415 209.070388 
L 281.487337 219.822043 
L 282.051258 225.934148 
L 282.333218 228.198751 
L 282.615179 229.422052 
L 282.897139 227.581128 
L 283.1791 220.132737 
L 283.461061 205.268109 
L 284.024982 155.859599 
L 285.152824 54.5739 
L 285.716745 24.784866 
L 285.998706 16.431559 
L 286.280667 13.002186 
L 286.562627 16.318996 
L 287.408509 35.347733 
L 287.690469 49.083548 
L 288.818312 129.948204 
L 289.100272 153.506992 
L 289.382233 167.704614 
L 290.228115 181.452753 
L 290.510075 183.737383 
L 290.792036 181.015259 
L 291.355957 172.653673 
L 291.637918 173.037467 
L 292.201839 181.282493 
L 292.483799 181.987999 
L 292.76576 180.629603 
L 293.047721 180.634419 
L 293.329681 181.598159 
L 293.611642 181.22106 
L 293.893602 180.374661 
L 294.175563 181.277492 
L 295.303405 189.497608 
L 295.585366 189.663162 
L 295.867326 186.665579 
L 296.149287 185.423109 
L 296.431248 190.330533 
L 296.713208 198.081149 
L 296.995169 202.590801 
L 297.277129 204.573305 
L 297.55909 209.61803 
L 297.841051 217.684679 
L 298.123011 222.364045 
L 298.404972 221.162898 
L 298.686932 219.401874 
L 298.968893 220.887242 
L 299.250853 220.558425 
L 299.532814 210.893097 
L 300.378696 149.906034 
L 301.506538 58.458571 
L 302.070459 30.711868 
L 302.35242 22.993593 
L 302.634381 22.352557 
L 302.916341 25.622079 
L 303.198302 31.345796 
L 303.762223 52.679966 
L 304.326144 86.097968 
L 304.890065 130.401437 
L 305.453986 157.660538 
L 306.017908 175.830739 
L 306.299868 180.012677 
L 306.863789 183.181909 
L 307.709671 186.699025 
L 307.991632 184.82751 
L 308.555553 175.379423 
L 308.837513 174.359451 
L 309.683395 183.446165 
L 309.965356 181.687423 
L 310.247316 182.244086 
L 310.811238 190.084445 
L 311.375159 183.974182 
L 311.657119 185.697659 
L 311.93908 190.275959 
L 312.22104 192.1553 
L 312.503001 193.081598 
L 312.784962 198.779482 
L 313.348883 214.903988 
L 313.912804 219.115741 
L 314.476725 227.138145 
L 314.758686 227.357691 
L 315.322607 225.601073 
L 315.604567 221.285858 
L 315.886528 207.709455 
L 316.73241 132.477643 
L 317.578292 50.556416 
L 317.860252 34.898654 
L 318.424173 19.579964 
L 318.706134 14.447375 
L 318.988095 12.096 
L 319.270055 13.057266 
L 319.552016 18.063003 
L 319.833976 28.382329 
L 320.679858 73.828736 
L 322.371622 177.193796 
L 322.653582 186.283477 
L 322.935543 190.283838 
L 323.499464 188.59215 
L 324.063385 194.141347 
L 324.345346 192.364287 
L 324.627306 186.966103 
L 324.909267 184.043688 
L 325.191227 184.604836 
L 325.473188 183.981195 
L 326.037109 179.022111 
L 326.31907 179.229554 
L 326.60103 179.261049 
L 326.882991 178.835909 
L 327.164952 179.462152 
L 327.728873 182.479573 
L 328.574754 188.480252 
L 328.856715 189.248911 
L 329.138676 192.264794 
L 329.984557 206.089191 
L 330.548479 222.124895 
L 330.830439 226.277497 
L 331.1124 228.506475 
L 331.676321 235.808054 
L 331.958281 233.110424 
L 332.240242 222.464301 
L 332.804163 184.117381 
L 334.495927 30.316165 
L 334.777887 20.71698 
L 335.059848 16.859717 
L 335.341809 15.300046 
L 335.623769 15.697578 
L 335.90573 20.663148 
L 336.751611 52.118011 
L 337.315533 85.796147 
L 338.725336 170.399986 
L 339.007296 182.051282 
L 339.289257 184.423365 
L 339.571217 184.18744 
L 340.135138 192.715222 
L 340.417099 193.11504 
L 340.69906 190.101828 
L 340.98102 189.834033 
L 341.262981 191.727255 
L 341.544941 189.397025 
L 341.826902 183.015164 
L 342.108863 179.764304 
L 342.672784 183.587596 
L 343.236705 183.400094 
L 343.518666 183.724728 
L 343.800626 183.678189 
L 344.082587 184.71655 
L 344.646508 188.843247 
L 344.928468 190.685293 
L 346.056311 210.545537 
L 346.620232 217.601998 
L 346.902193 218.419473 
L 347.184153 220.631679 
L 347.466114 225.569735 
L 347.748074 228.342169 
L 348.030035 226.103022 
L 348.311995 221.145152 
L 348.593956 212.581211 
L 348.875917 194.924734 
L 350.56768 33.358555 
L 350.849641 23.206214 
L 351.131601 21.295604 
L 352.259444 35.239436 
L 353.387286 76.240439 
L 353.951207 111.635509 
L 354.515128 142.999648 
L 355.07905 170.396903 
L 355.36101 186.338215 
L 355.642971 192.878573 
L 355.924931 190.680795 
L 356.206892 189.732282 
L 356.488852 192.578329 
L 356.770813 192.001379 
L 357.334734 182.276988 
L 357.616695 182.667865 
L 357.898655 181.889427 
L 358.180616 178.791039 
L 358.462577 178.909512 
L 358.744537 182.981745 
L 359.026498 185.425907 
L 359.308458 185.04525 
L 359.590419 186.404243 
L 359.87238 189.938402 
L 360.15434 191.476194 
L 360.436301 190.923586 
L 360.718261 192.219735 
L 361.282182 197.778639 
L 361.564143 199.617504 
L 362.410025 207.070788 
L 362.691985 212.067789 
L 363.255907 226.394608 
L 363.819828 233.095152 
L 364.101788 238.019899 
L 364.383749 239.688266 
L 364.665709 233.986968 
L 364.94767 220.773418 
L 365.511591 176.082397 
L 366.639434 48.226231 
L 366.921394 35.951517 
L 367.485315 23.101013 
L 367.767276 18.735371 
L 368.049237 17.400858 
L 368.331197 16.635814 
L 368.613158 15.493165 
L 368.895118 17.819574 
L 369.177079 26.947765 
L 370.304921 86.308024 
L 371.150803 137.361943 
L 371.714724 164.70747 
L 372.560606 191.736307 
L 372.842566 197.10907 
L 373.124527 198.735402 
L 373.970409 196.995651 
L 374.53433 196.282741 
L 374.816291 196.373786 
L 375.098251 197.025666 
L 375.380212 197.037087 
L 375.944133 194.50321 
L 376.508054 196.778235 
L 376.790015 196.165623 
L 377.071975 195.966511 
L 377.635896 201.22918 
L 377.917857 200.551488 
L 378.199818 198.948684 
L 378.481778 200.302825 
L 379.045699 206.067714 
L 379.32766 208.05902 
L 379.891581 217.004054 
L 380.173542 221.228241 
L 380.737463 225.253845 
L 381.019423 225.20853 
L 381.301384 219.717171 
L 381.583345 205.865108 
L 382.147266 161.039909 
L 383.275108 49.050118 
L 383.839029 31.378989 
L 384.12099 26.515682 
L 384.402951 24.20276 
L 384.684911 24.508587 
L 384.966872 27.618131 
L 385.812753 46.125775 
L 386.094714 56.256024 
L 388.632359 184.383744 
L 388.91432 190.08815 
L 389.478241 192.544315 
L 389.760202 193.3355 
L 390.042162 192.457613 
L 390.606083 189.11657 
L 391.170005 186.998585 
L 391.451965 188.371891 
L 392.015886 196.437804 
L 392.297847 197.874905 
L 392.579808 198.231565 
L 393.143729 200.983033 
L 393.425689 200.079306 
L 393.70765 198.128024 
L 393.98961 198.2866 
L 394.553532 204.930421 
L 396.527256 228.52776 
L 396.809216 229.717276 
L 397.091177 227.857598 
L 397.373137 221.872874 
L 397.655098 208.861947 
L 397.937059 185.73673 
L 399.064901 60.475528 
L 399.628822 28.809673 
L 399.910783 21.386085 
L 400.192743 19.252239 
L 400.474704 19.698276 
L 400.756665 21.361058 
L 401.038625 25.09156 
L 401.602546 40.621656 
L 402.448428 78.394128 
L 404.422152 180.133683 
L 404.704113 187.406479 
L 404.986073 188.714689 
L 405.268034 188.415193 
L 405.549994 189.03662 
L 405.831955 189.15096 
L 406.113916 188.267414 
L 406.395876 188.383015 
L 406.677837 189.57492 
L 406.959797 189.692285 
L 407.241758 188.560118 
L 407.523719 188.371034 
L 407.805679 189.390807 
L 408.08764 189.849288 
L 408.3696 189.645974 
L 408.651561 190.801516 
L 409.215482 196.265424 
L 409.779403 199.209479 
L 410.907246 211.94018 
L 411.471167 220.504669 
L 412.035088 225.718596 
L 412.599009 234.945463 
L 412.88097 236.733922 
L 413.16293 233.337106 
L 413.444891 222.633545 
L 413.726851 202.72385 
L 415.136654 59.540167 
L 415.418615 46.11392 
L 415.982536 32.570272 
L 416.546457 22.281558 
L 416.828418 20.435903 
L 417.110379 23.333369 
L 417.6743 37.477221 
L 418.238221 59.172064 
L 420.775866 172.579763 
L 421.903708 191.981099 
L 422.185669 193.340825 
L 422.74959 198.084476 
L 423.313511 194.68363 
L 423.877433 198.601248 
L 424.159393 195.785014 
L 424.441354 191.24233 
L 424.723314 190.57936 
L 425.005275 192.511594 
L 425.569196 194.127232 
L 426.415078 203.244809 
L 426.697038 204.548748 
L 427.54292 212.615075 
L 427.824881 217.721179 
L 428.388802 235.588235 
L 428.670763 239.279412 
L 428.952723 239.022413 
L 429.234684 239.285828 
L 429.516644 237.134925 
L 429.798605 223.203128 
L 430.644487 130.109636 
L 431.208408 70.631493 
L 431.490368 53.669657 
L 432.33625 29.443704 
L 432.618211 27.224346 
L 433.746053 37.723728 
L 434.028014 46.343718 
L 435.437817 112.801444 
L 436.001738 139.134723 
L 436.565659 156.495964 
L 437.12958 172.110783 
L 437.693501 180.850243 
L 438.257422 189.950682 
L 438.821344 193.20662 
L 439.667225 196.014116 
L 440.231147 196.513738 
L 440.513107 197.816705 
L 440.795068 198.344517 
L 441.077028 196.958243 
L 441.358989 197.845754 
L 442.204871 215.068602 
L 442.486831 216.308839 
L 443.332713 229.646628 
L 443.614674 229.429504 
L 443.896634 231.681181 
L 444.460555 239.15549 
L 444.742516 240.6696 
L 445.024477 240.11711 
L 445.306437 233.244317 
L 445.588398 215.908012 
L 446.152319 154.897045 
L 446.998201 57.291917 
L 447.280161 40.879269 
L 447.562122 31.39149 
L 447.844082 25.874219 
L 448.126043 24.008172 
L 448.408004 25.343167 
L 448.971925 31.00935 
L 449.253885 35.554443 
L 449.817806 51.334109 
L 450.663688 83.783984 
L 451.791531 130.288457 
L 452.355452 152.917548 
L 452.919373 165.655558 
L 453.483294 174.07597 
L 453.765255 177.199054 
L 454.047215 178.789497 
L 454.611136 180.389056 
L 454.893097 181.588635 
L 455.457018 182.682526 
L 455.738979 184.365022 
L 456.584861 192.35294 
L 457.430742 199.137366 
L 458.558585 211.955138 
L 458.840545 217.145485 
L 459.404466 231.040677 
L 460.532309 244.274749 
L 460.814269 245.635938 
L 461.09623 244.642236 
L 461.378191 239.21139 
L 461.660151 223.980117 
L 462.224072 162.337449 
L 463.069954 66.439217 
L 463.351915 49.176918 
L 463.915836 31.571552 
L 464.197796 27.417469 
L 464.479757 29.144781 
L 465.043678 38.820066 
L 465.325639 42.352355 
L 465.88956 56.868949 
L 467.017402 89.764143 
L 468.145245 140.280952 
L 468.991126 161.900212 
L 469.273087 167.030043 
L 469.555048 169.738752 
L 469.837008 171.292886 
L 470.118969 174.775686 
L 470.68289 183.744224 
L 470.96485 183.333691 
L 471.246811 182.280648 
L 471.528772 184.16428 
L 471.810732 187.376835 
L 472.092693 187.605103 
L 472.374653 184.796221 
L 472.656614 183.336932 
L 472.938575 186.071068 
L 473.502496 194.205408 
L 473.784456 196.809801 
L 474.348377 206.243328 
L 475.47622 227.415528 
L 476.040141 234.204655 
L 476.604062 242.623302 
L 476.886023 243.728801 
L 477.167983 242.577533 
L 477.449944 238.56003 
L 477.731905 228.504061 
L 478.013865 209.208733 
L 478.577786 143.866428 
L 479.141707 79.427518 
L 479.705629 48.38619 
L 480.26955 33.735795 
L 480.55151 30.707118 
L 480.833471 31.876477 
L 481.397392 40.991344 
L 481.679353 46.67739 
L 482.243274 66.249815 
L 483.653077 125.812154 
L 484.216998 147.993149 
L 485.06288 166.928512 
L 485.34484 170.707439 
L 485.908762 174.915191 
L 486.190722 177.614648 
L 486.754643 179.689832 
L 487.036604 181.903014 
L 487.318564 182.845915 
L 487.882486 178.131209 
L 488.164446 179.117373 
L 488.446407 180.876547 
L 488.728367 181.687928 
L 489.010328 184.133514 
L 489.574249 192.096158 
L 489.85621 194.881733 
L 490.420131 208.895213 
L 490.984052 219.73855 
L 492.393855 244.00472 
L 492.675816 247.262808 
L 492.957776 246.769166 
L 493.239737 244.349317 
L 493.521697 236.158561 
L 493.803658 214.524594 
L 494.9315 81.791212 
L 495.495421 45.550141 
L 495.777382 37.201576 
L 496.059343 34.915386 
L 496.341303 34.745065 
L 496.623264 35.409721 
L 496.905224 38.292695 
L 497.469146 49.398028 
L 498.033067 65.500339 
L 499.160909 107.493915 
L 499.72483 129.076613 
L 500.288751 144.783695 
L 500.852673 157.929678 
L 501.416594 172.285914 
L 501.698554 175.472581 
L 501.980515 177.263092 
L 502.262476 177.355346 
L 502.826397 173.044304 
L 503.390318 174.961181 
L 503.672278 174.300707 
L 503.954239 175.275347 
L 504.2362 178.402442 
L 504.51816 178.96285 
L 504.800121 175.727927 
L 505.082081 173.903694 
L 505.364042 175.8946 
L 505.927963 182.462193 
L 507.901687 219.262472 
L 508.183648 223.472607 
L 508.465608 230.646769 
L 509.02953 249.727882 
L 509.31149 254.016 
L 509.593451 252.708708 
L 509.875411 245.81556 
L 510.157372 231.106585 
L 510.439333 204.383191 
L 511.285214 91.999067 
L 511.849135 55.025054 
L 512.131096 45.994858 
L 512.413057 43.48876 
L 513.258938 48.405334 
L 513.540899 51.832223 
L 514.386781 71.300117 
L 514.950702 90.443503 
L 515.796584 127.091929 
L 516.360505 139.870037 
L 516.924426 151.279047 
L 517.488347 161.308901 
L 518.334229 168.748533 
L 518.89815 169.362845 
L 519.180111 170.210117 
L 519.462071 170.698557 
L 519.744032 170.928412 
L 520.025992 170.961879 
L 520.307953 170.369326 
L 520.589914 170.306929 
L 521.153835 175.286697 
L 521.435795 174.595383 
L 521.717756 172.854625 
L 521.999717 174.79519 
L 522.563638 182.558713 
L 522.845598 185.470474 
L 523.973441 203.773714 
L 524.537362 222.228542 
L 525.101283 230.07274 
L 525.383244 236.478803 
L 525.665204 239.717187 
L 525.947165 235.689797 
L 526.229125 224.400409 
L 526.511086 205.427901 
L 527.920889 76.550064 
L 528.48481 56.600602 
L 528.766771 52.121727 
L 529.048731 50.836175 
L 529.330692 53.503843 
L 530.176574 67.761364 
L 531.586376 116.697982 
L 532.150298 139.278231 
L 533.27814 162.61548 
L 533.842061 169.969929 
L 534.124022 171.412553 
L 534.405982 170.833858 
L 534.687943 171.028159 
L 534.969904 172.457413 
L 535.251864 171.91583 
L 535.815785 165.014812 
L 536.097746 164.383866 
L 536.661667 166.985861 
L 536.943628 169.1154 
L 538.07147 184.81478 
L 538.917352 193.851092 
L 539.199312 199.672736 
L 539.763233 215.561557 
L 540.327155 222.315213 
L 540.891076 233.910765 
L 541.173036 234.216809 
L 541.454997 230.383068 
L 541.736958 223.330819 
L 542.018918 208.726736 
L 543.710682 70.558403 
L 543.992642 61.372584 
L 544.274603 56.443922 
L 544.556563 54.739332 
L 544.838524 56.210541 
L 545.120485 60.897954 
L 549.349893 166.219507 
L 549.631854 168.229779 
L 549.913815 168.332792 
L 550.195775 169.902965 
L 550.477736 170.312451 
L 551.041657 160.815106 
L 551.323618 160.098906 
L 551.605578 162.625959 
L 551.887539 163.624476 
L 552.169499 163.882074 
L 552.45146 167.355109 
L 552.73342 172.330905 
L 553.015381 174.714427 
L 553.297342 175.046662 
L 553.579302 176.696666 
L 554.707145 189.104314 
L 555.553026 200.117745 
L 556.116947 209.327258 
L 556.680869 216.418411 
L 557.24479 225.085493 
L 557.52675 226.109346 
L 557.808711 222.182589 
L 558.090672 211.336315 
L 558.372632 190.779499 
L 559.218514 110.997643 
L 560.064396 70.964264 
L 560.346356 67.298589 
L 560.910277 72.171266 
L 561.192238 73.243821 
L 561.474199 76.059194 
L 562.602041 98.30405 
L 563.165962 116.093466 
L 563.729883 128.959024 
L 564.293804 146.106302 
L 564.575765 150.942584 
L 565.139686 157.173215 
L 565.421647 160.894117 
L 565.703607 162.028171 
L 565.985568 161.818777 
L 566.267529 163.17604 
L 566.549489 165.460958 
L 566.83145 165.526652 
L 567.11341 164.051843 
L 567.395371 164.328719 
L 567.959292 170.066405 
L 568.241253 171.526879 
L 569.087134 173.397621 
L 569.369095 174.602633 
L 571.342819 193.319434 
L 571.62478 194.995307 
L 573.034583 210.338833 
L 573.316543 207.6296 
L 573.598504 197.300163 
L 574.162425 159.917054 
L 574.726346 119.004842 
L 575.290267 94.7349 
L 575.572228 86.361891 
L 575.854189 81.791396 
L 576.136149 80.811992 
L 576.41811 80.470285 
L 576.70007 80.813534 
L 576.982031 83.849625 
L 578.109873 107.409606 
L 579.237716 136.761975 
L 580.083597 150.674433 
L 580.647518 154.850933 
L 581.4934 160.105039 
L 581.775361 161.358174 
L 582.339282 165.871976 
L 582.621243 166.012017 
L 582.903203 164.053945 
L 583.185164 163.431932 
L 583.467124 166.924201 
L 583.749085 171.820975 
L 584.031046 174.374323 
L 584.313006 175.026282 
L 584.594967 176.904493 
L 584.876927 179.548213 
L 585.440848 182.182834 
L 586.28673 190.501362 
L 587.132612 200.599655 
L 587.414573 199.933465 
L 587.696533 199.934602 
L 588.260454 207.303275 
L 588.542415 206.29876 
L 588.824375 200.44163 
L 589.106336 191.966806 
L 589.388297 179.185905 
L 590.516139 108.608841 
L 591.08006 93.698659 
L 591.643981 89.148369 
L 591.925942 87.246537 
L 592.207903 87.075339 
L 593.053784 95.633083 
L 593.335745 97.474392 
L 593.899666 110.998263 
L 594.745548 130.362602 
L 595.309469 149.749033 
L 595.59143 155.003799 
L 596.155351 161.251799 
L 596.437311 165.212436 
L 596.719272 166.364042 
L 597.283193 162.919746 
L 597.565154 163.337104 
L 597.847114 163.521488 
L 598.129075 162.876735 
L 598.411035 162.956743 
L 598.692996 163.889562 
L 599.256917 163.482001 
L 599.820838 166.845704 
L 600.102799 166.302618 
L 600.38476 166.254175 
L 600.948681 171.791218 
L 601.230641 172.205457 
L 601.512602 173.493046 
L 602.076523 181.640427 
L 602.358484 182.449525 
L 602.640444 183.78712 
L 603.486326 197.936339 
L 603.768287 200.641104 
L 604.332208 207.874901 
L 604.614168 205.081225 
L 604.896129 196.245631 
L 605.46005 166.206749 
L 606.023971 128.608892 
L 606.587892 105.56399 
L 606.869853 96.733344 
L 607.151814 91.591513 
L 607.433774 90.356727 
L 607.997695 90.002642 
L 608.279656 92.573908 
L 609.407498 111.357752 
L 610.535341 138.187454 
L 610.817301 142.069097 
L 611.099262 142.761924 
L 611.381222 145.533404 
L 611.945144 156.859463 
L 612.509065 163.955001 
L 612.791025 166.262221 
L 613.354946 165.146165 
L 613.636907 165.457224 
L 613.918868 165.558337 
L 614.200828 164.965621 
L 614.764749 166.392868 
L 615.04671 166.210819 
L 615.328671 166.4089 
L 615.610631 168.324925 
L 615.892592 168.322545 
L 616.456513 162.679621 
L 616.738474 165.317061 
L 617.020434 169.503683 
L 617.302395 171.045945 
L 617.584355 171.408554 
L 617.866316 176.187339 
L 618.430237 190.819469 
L 618.994158 194.532471 
L 619.558079 201.675433 
L 619.84004 199.532567 
L 620.122001 191.756156 
L 620.685922 165.536296 
L 621.531803 120.666793 
L 622.095725 102.21634 
L 622.377685 96.846609 
L 622.659646 93.649166 
L 623.223567 90.812897 
L 623.505528 91.70863 
L 623.787488 97.36115 
L 624.351409 113.178255 
L 624.915331 121.640312 
L 626.325133 156.51957 
L 627.171015 164.345623 
L 627.452976 167.324833 
L 628.016897 168.079442 
L 628.862779 165.980322 
L 629.144739 167.233676 
L 629.4267 165.65784 
L 629.990621 158.14546 
L 630.836503 160.422494 
L 631.118463 160.820268 
L 631.400424 164.123529 
L 632.246306 167.581733 
L 632.528266 171.316591 
L 632.810227 171.744718 
L 633.092188 177.521557 
L 633.092188 177.521557 
" clip-path="url(#p6ab7160725)" style="fill: none; stroke: #1f77b4; stroke-width: 1.5; stroke-linecap: square"/>
   </g>
   <g id="patch_3">
    <path d="M 47.192188 266.112 
L 47.192188 0 
" style="fill: none; stroke: #808080; stroke-width: 0.8; stroke-linejoin: miter; stroke-linecap: square"/>
   </g>
   <g id="patch_4">
    <path d="M 660.992188 266.112 
L 660.992188 0 
" style="fill: none; stroke: #000000; stroke-width: 0.8; stroke-linejoin: miter; stroke-linecap: square"/>
   </g>
   <g id="patch_5">
    <path d="M 47.192188 266.112 
L 660.992188 266.112 
" style="fill: none; stroke: #808080; stroke-width: 0.8; stroke-linejoin: miter; stroke-linecap: square"/>
   </g>
   <g id="patch_6">
    <path d="M 47.192188 0 
L 660.992188 0 
" style="fill: none; stroke: #000000; stroke-width: 0.8; stroke-linejoin: miter; stroke-linecap: square"/>
   </g>
  </g>
 </g>
 <defs>
  <clipPath id="p6ab7160725">
   <rect x="47.192188" y="0" width="613.8" height="266.112"/>
  </clipPath>
 </defs>
</svg>
