<?xml version="1.0" encoding="utf-8" standalone="no"?>
<!DOCTYPE svg PUBLIC "-//W3C//DTD SVG 1.1//EN"
  "http://www.w3.org/Graphics/SVG/1.1/DTD/svg11.dtd">
<svg xmlns:xlink="http://www.w3.org/1999/xlink" width="660.992188pt" height="282.790125pt" viewBox="0 0 660.992188 282.790125" xmlns="http://www.w3.org/2000/svg" version="1.1">
 <metadata>
  <rdf:RDF xmlns:dc="http://purl.org/dc/elements/1.1/" xmlns:cc="http://creativecommons.org/ns#" xmlns:rdf="http://www.w3.org/1999/02/22-rdf-syntax-ns#">
   <cc:Work>
    <dc:type rdf:resource="http://purl.org/dc/dcmitype/StillImage"/>
    <dc:date>2023-03-06T19:23:13.040968</dc:date>
    <dc:format>image/svg+xml</dc:format>
    <dc:creator>
     <cc:Agent>
      <dc:title>Matplotlib v3.6.3, https://matplotlib.org/</dc:title>
     </cc:Agent>
    </dc:creator>
   </cc:Work>
  </rdf:RDF>
 </metadata>
 <defs>
  <style type="text/css">*{stroke-linejoin: round; stroke-linecap: butt}</style>
 </defs>
 <g id="figure_1">
  <g id="patch_1">
   <path d="M -0 282.790125 
L 660.992188 282.790125 
L 660.992188 0 
L -0 0 
L -0 282.790125 
z
" style="fill: none"/>
  </g>
  <g id="axes_1">
   <g id="patch_2">
    <path d="M 47.192188 266.112 
L 660.992188 266.112 
L 660.992188 0 
L 47.192188 0 
L 47.192188 266.112 
z
" style="fill: none"/>
   </g>
   <g id="matplotlib.axis_1">
    <g id="xtick_1">
     <g id="line2d_1">
      <defs>
       <path id="mff726ac11b" d="M 0 0 
L 0 3.5 
" style="stroke: #000000; stroke-width: 0.8"/>
      </defs>
      <g>
       <use xlink:href="#mff726ac11b" x="75.092188" y="266.112" style="stroke: #000000; stroke-width: 0.8"/>
      </g>
     </g>
     <g id="text_1">
      <!-- 0 -->
      <g transform="translate(71.910938 280.710438) scale(0.1 -0.1)">
       <defs>
        <path id="DejaVuSans-30" d="M 2034 4250 
Q 1547 4250 1301 3770 
Q 1056 3291 1056 2328 
Q 1056 1369 1301 889 
Q 1547 409 2034 409 
Q 2525 409 2770 889 
Q 3016 1369 3016 2328 
Q 3016 3291 2770 3770 
Q 2525 4250 2034 4250 
z
M 2034 4750 
Q 2819 4750 3233 4129 
Q 3647 3509 3647 2328 
Q 3647 1150 3233 529 
Q 2819 -91 2034 -91 
Q 1250 -91 836 529 
Q 422 1150 422 2328 
Q 422 3509 836 4129 
Q 1250 4750 2034 4750 
z
" transform="scale(0.015625)"/>
       </defs>
       <use xlink:href="#DejaVuSans-30"/>
      </g>
     </g>
    </g>
    <g id="xtick_2">
     <g id="line2d_2">
      <g>
       <use xlink:href="#mff726ac11b" x="144.842188" y="266.112" style="stroke: #000000; stroke-width: 0.8"/>
      </g>
     </g>
     <g id="text_2">
      <!-- 500 -->
      <g transform="translate(135.298438 280.710438) scale(0.1 -0.1)">
       <defs>
        <path id="DejaVuSans-35" d="M 691 4666 
L 3169 4666 
L 3169 4134 
L 1269 4134 
L 1269 2991 
Q 1406 3038 1543 3061 
Q 1681 3084 1819 3084 
Q 2600 3084 3056 2656 
Q 3513 2228 3513 1497 
Q 3513 744 3044 326 
Q 2575 -91 1722 -91 
Q 1428 -91 1123 -41 
Q 819 9 494 109 
L 494 744 
Q 775 591 1075 516 
Q 1375 441 1709 441 
Q 2250 441 2565 725 
Q 2881 1009 2881 1497 
Q 2881 1984 2565 2268 
Q 2250 2553 1709 2553 
Q 1456 2553 1204 2497 
Q 953 2441 691 2322 
L 691 4666 
z
" transform="scale(0.015625)"/>
       </defs>
       <use xlink:href="#DejaVuSans-35"/>
       <use xlink:href="#DejaVuSans-30" x="63.623047"/>
       <use xlink:href="#DejaVuSans-30" x="127.246094"/>
      </g>
     </g>
    </g>
    <g id="xtick_3">
     <g id="line2d_3">
      <g>
       <use xlink:href="#mff726ac11b" x="214.592188" y="266.112" style="stroke: #000000; stroke-width: 0.8"/>
      </g>
     </g>
     <g id="text_3">
      <!-- 1000 -->
      <g transform="translate(201.867188 280.710438) scale(0.1 -0.1)">
       <defs>
        <path id="DejaVuSans-31" d="M 794 531 
L 1825 531 
L 1825 4091 
L 703 3866 
L 703 4441 
L 1819 4666 
L 2450 4666 
L 2450 531 
L 3481 531 
L 3481 0 
L 794 0 
L 794 531 
z
" transform="scale(0.015625)"/>
       </defs>
       <use xlink:href="#DejaVuSans-31"/>
       <use xlink:href="#DejaVuSans-30" x="63.623047"/>
       <use xlink:href="#DejaVuSans-30" x="127.246094"/>
       <use xlink:href="#DejaVuSans-30" x="190.869141"/>
      </g>
     </g>
    </g>
    <g id="xtick_4">
     <g id="line2d_4">
      <g>
       <use xlink:href="#mff726ac11b" x="284.342188" y="266.112" style="stroke: #000000; stroke-width: 0.8"/>
      </g>
     </g>
     <g id="text_4">
      <!-- 1500 -->
      <g transform="translate(271.617188 280.710438) scale(0.1 -0.1)">
       <use xlink:href="#DejaVuSans-31"/>
       <use xlink:href="#DejaVuSans-35" x="63.623047"/>
       <use xlink:href="#DejaVuSans-30" x="127.246094"/>
       <use xlink:href="#DejaVuSans-30" x="190.869141"/>
      </g>
     </g>
    </g>
    <g id="xtick_5">
     <g id="line2d_5">
      <g>
       <use xlink:href="#mff726ac11b" x="354.092188" y="266.112" style="stroke: #000000; stroke-width: 0.8"/>
      </g>
     </g>
     <g id="text_5">
      <!-- 2000 -->
      <g transform="translate(341.367188 280.710438) scale(0.1 -0.1)">
       <defs>
        <path id="DejaVuSans-32" d="M 1228 531 
L 3431 531 
L 3431 0 
L 469 0 
L 469 531 
Q 828 903 1448 1529 
Q 2069 2156 2228 2338 
Q 2531 2678 2651 2914 
Q 2772 3150 2772 3378 
Q 2772 3750 2511 3984 
Q 2250 4219 1831 4219 
Q 1534 4219 1204 4116 
Q 875 4013 500 3803 
L 500 4441 
Q 881 4594 1212 4672 
Q 1544 4750 1819 4750 
Q 2544 4750 2975 4387 
Q 3406 4025 3406 3419 
Q 3406 3131 3298 2873 
Q 3191 2616 2906 2266 
Q 2828 2175 2409 1742 
Q 1991 1309 1228 531 
z
" transform="scale(0.015625)"/>
       </defs>
       <use xlink:href="#DejaVuSans-32"/>
       <use xlink:href="#DejaVuSans-30" x="63.623047"/>
       <use xlink:href="#DejaVuSans-30" x="127.246094"/>
       <use xlink:href="#DejaVuSans-30" x="190.869141"/>
      </g>
     </g>
    </g>
    <g id="xtick_6">
     <g id="line2d_6">
      <g>
       <use xlink:href="#mff726ac11b" x="423.842188" y="266.112" style="stroke: #000000; stroke-width: 0.8"/>
      </g>
     </g>
     <g id="text_6">
      <!-- 2500 -->
      <g transform="translate(411.117188 280.710438) scale(0.1 -0.1)">
       <use xlink:href="#DejaVuSans-32"/>
       <use xlink:href="#DejaVuSans-35" x="63.623047"/>
       <use xlink:href="#DejaVuSans-30" x="127.246094"/>
       <use xlink:href="#DejaVuSans-30" x="190.869141"/>
      </g>
     </g>
    </g>
    <g id="xtick_7">
     <g id="line2d_7">
      <g>
       <use xlink:href="#mff726ac11b" x="493.592188" y="266.112" style="stroke: #000000; stroke-width: 0.8"/>
      </g>
     </g>
     <g id="text_7">
      <!-- 3000 -->
      <g transform="translate(480.867188 280.710438) scale(0.1 -0.1)">
       <defs>
        <path id="DejaVuSans-33" d="M 2597 2516 
Q 3050 2419 3304 2112 
Q 3559 1806 3559 1356 
Q 3559 666 3084 287 
Q 2609 -91 1734 -91 
Q 1441 -91 1130 -33 
Q 819 25 488 141 
L 488 750 
Q 750 597 1062 519 
Q 1375 441 1716 441 
Q 2309 441 2620 675 
Q 2931 909 2931 1356 
Q 2931 1769 2642 2001 
Q 2353 2234 1838 2234 
L 1294 2234 
L 1294 2753 
L 1863 2753 
Q 2328 2753 2575 2939 
Q 2822 3125 2822 3475 
Q 2822 3834 2567 4026 
Q 2313 4219 1838 4219 
Q 1578 4219 1281 4162 
Q 984 4106 628 3988 
L 628 4550 
Q 988 4650 1302 4700 
Q 1616 4750 1894 4750 
Q 2613 4750 3031 4423 
Q 3450 4097 3450 3541 
Q 3450 3153 3228 2886 
Q 3006 2619 2597 2516 
z
" transform="scale(0.015625)"/>
       </defs>
       <use xlink:href="#DejaVuSans-33"/>
       <use xlink:href="#DejaVuSans-30" x="63.623047"/>
       <use xlink:href="#DejaVuSans-30" x="127.246094"/>
       <use xlink:href="#DejaVuSans-30" x="190.869141"/>
      </g>
     </g>
    </g>
    <g id="xtick_8">
     <g id="line2d_8">
      <g>
       <use xlink:href="#mff726ac11b" x="563.342188" y="266.112" style="stroke: #000000; stroke-width: 0.8"/>
      </g>
     </g>
     <g id="text_8">
      <!-- 3500 -->
      <g transform="translate(550.617188 280.710438) scale(0.1 -0.1)">
       <use xlink:href="#DejaVuSans-33"/>
       <use xlink:href="#DejaVuSans-35" x="63.623047"/>
       <use xlink:href="#DejaVuSans-30" x="127.246094"/>
       <use xlink:href="#DejaVuSans-30" x="190.869141"/>
      </g>
     </g>
    </g>
    <g id="xtick_9">
     <g id="line2d_9">
      <g>
       <use xlink:href="#mff726ac11b" x="633.092188" y="266.112" style="stroke: #000000; stroke-width: 0.8"/>
      </g>
     </g>
     <g id="text_9">
      <!-- 4000 -->
      <g transform="translate(620.367188 280.710438) scale(0.1 -0.1)">
       <defs>
        <path id="DejaVuSans-34" d="M 2419 4116 
L 825 1625 
L 2419 1625 
L 2419 4116 
z
M 2253 4666 
L 3047 4666 
L 3047 1625 
L 3713 1625 
L 3713 1100 
L 3047 1100 
L 3047 0 
L 2419 0 
L 2419 1100 
L 313 1100 
L 313 1709 
L 2253 4666 
z
" transform="scale(0.015625)"/>
       </defs>
       <use xlink:href="#DejaVuSans-34"/>
       <use xlink:href="#DejaVuSans-30" x="63.623047"/>
       <use xlink:href="#DejaVuSans-30" x="127.246094"/>
       <use xlink:href="#DejaVuSans-30" x="190.869141"/>
      </g>
     </g>
    </g>
   </g>
   <g id="matplotlib.axis_2">
    <g id="ytick_1">
     <g id="line2d_10">
      <defs>
       <path id="m66008c7984" d="M 0 0 
L -3.5 0 
" style="stroke: #000000; stroke-width: 0.8"/>
      </defs>
      <g>
       <use xlink:href="#m66008c7984" x="47.192188" y="216.23654" style="stroke: #000000; stroke-width: 0.8"/>
      </g>
     </g>
     <g id="text_10">
      <!-- −20000 -->
      <g transform="translate(0 220.035759) scale(0.1 -0.1)">
       <defs>
        <path id="DejaVuSans-2212" d="M 678 2272 
L 4684 2272 
L 4684 1741 
L 678 1741 
L 678 2272 
z
" transform="scale(0.015625)"/>
       </defs>
       <use xlink:href="#DejaVuSans-2212"/>
       <use xlink:href="#DejaVuSans-32" x="83.789062"/>
       <use xlink:href="#DejaVuSans-30" x="147.412109"/>
       <use xlink:href="#DejaVuSans-30" x="211.035156"/>
       <use xlink:href="#DejaVuSans-30" x="274.658203"/>
       <use xlink:href="#DejaVuSans-30" x="338.28125"/>
      </g>
     </g>
    </g>
    <g id="ytick_2">
     <g id="line2d_11">
      <g>
       <use xlink:href="#m66008c7984" x="47.192188" y="159.912165" style="stroke: #000000; stroke-width: 0.8"/>
      </g>
     </g>
     <g id="text_11">
      <!-- 0 -->
      <g transform="translate(33.829688 163.711384) scale(0.1 -0.1)">
       <use xlink:href="#DejaVuSans-30"/>
      </g>
     </g>
    </g>
    <g id="ytick_3">
     <g id="line2d_12">
      <g>
       <use xlink:href="#m66008c7984" x="47.192188" y="103.58779" style="stroke: #000000; stroke-width: 0.8"/>
      </g>
     </g>
     <g id="text_12">
      <!-- 20000 -->
      <g transform="translate(8.379688 107.387009) scale(0.1 -0.1)">
       <use xlink:href="#DejaVuSans-32"/>
       <use xlink:href="#DejaVuSans-30" x="63.623047"/>
       <use xlink:href="#DejaVuSans-30" x="127.246094"/>
       <use xlink:href="#DejaVuSans-30" x="190.869141"/>
       <use xlink:href="#DejaVuSans-30" x="254.492188"/>
      </g>
     </g>
    </g>
    <g id="ytick_4">
     <g id="line2d_13">
      <g>
       <use xlink:href="#m66008c7984" x="47.192188" y="47.263415" style="stroke: #000000; stroke-width: 0.8"/>
      </g>
     </g>
     <g id="text_13">
      <!-- 40000 -->
      <g transform="translate(8.379688 51.062633) scale(0.1 -0.1)">
       <use xlink:href="#DejaVuSans-34"/>
       <use xlink:href="#DejaVuSans-30" x="63.623047"/>
       <use xlink:href="#DejaVuSans-30" x="127.246094"/>
       <use xlink:href="#DejaVuSans-30" x="190.869141"/>
       <use xlink:href="#DejaVuSans-30" x="254.492188"/>
      </g>
     </g>
    </g>
   </g>
   <g id="line2d_14">
    <path d="M 75.092188 159.919621 
L 77.065912 159.905111 
L 79.039636 159.919369 
L 81.01336 159.904397 
L 82.987084 159.920994 
L 84.960808 159.901477 
L 86.370611 159.92496 
L 87.780414 159.897717 
L 88.908256 159.933853 
L 89.190217 159.79486 
L 89.472177 160.794627 
L 89.754138 179.572155 
L 90.036099 182.066682 
L 90.60002 180.991263 
L 91.163941 177.988093 
L 92.009823 173.271838 
L 92.573744 169.494273 
L 93.419626 162.37816 
L 93.701586 161.68349 
L 94.547468 161.536928 
L 94.829429 161.641123 
L 95.111389 161.437617 
L 95.39335 160.800079 
L 95.67531 160.443262 
L 95.957271 160.720262 
L 96.239231 161.191596 
L 96.521192 161.107893 
L 97.085113 160.357381 
L 97.367074 160.480693 
L 97.649034 160.822396 
L 98.212956 162.438385 
L 98.494916 162.591116 
L 98.776877 162.037449 
L 99.058837 162.559391 
L 99.622758 166.945101 
L 99.904719 167.05898 
L 100.18668 166.542899 
L 100.750601 167.869809 
L 101.032561 167.153799 
L 101.314522 165.615032 
L 101.596483 164.960867 
L 101.878443 165.543427 
L 102.160404 166.429379 
L 102.442364 166.905746 
L 102.724325 166.856938 
L 103.006286 166.936699 
L 103.288246 168.201321 
L 104.698049 180.879915 
L 104.98001 182.174942 
L 105.26197 181.710339 
L 105.543931 179.306584 
L 105.825891 174.873873 
L 106.389813 158.568655 
L 107.799615 99.328763 
L 108.081576 96.112327 
L 108.363537 98.831749 
L 108.645497 106.084142 
L 109.209418 128.760113 
L 109.77334 154.832888 
L 110.0553 163.780109 
L 110.619221 172.369713 
L 111.183143 176.394023 
L 111.747064 177.722033 
L 112.029024 178.123493 
L 112.310985 177.885333 
L 113.438827 172.390331 
L 113.720788 169.656204 
L 114.284709 162.71523 
L 114.56667 161.288093 
L 115.130591 159.850424 
L 115.412551 159.812353 
L 115.694512 160.12957 
L 115.976472 159.909472 
L 116.258433 159.423362 
L 116.540394 159.672563 
L 116.822354 160.370541 
L 117.104315 160.447934 
L 117.386275 160.094795 
L 117.668236 160.453446 
L 118.232157 162.800714 
L 119.078039 164.854786 
L 119.36 165.101911 
L 119.64196 164.795275 
L 120.487842 162.322802 
L 120.769802 162.888877 
L 121.051763 164.002341 
L 121.615684 164.996127 
L 121.897645 166.800788 
L 122.461566 172.093519 
L 122.743527 172.532296 
L 123.025487 172.610688 
L 123.589408 174.536284 
L 123.871369 174.76326 
L 124.153329 175.314352 
L 124.43529 177.471713 
L 125.281172 186.126332 
L 125.845093 190.618114 
L 126.127054 189.645201 
L 126.409014 185.160584 
L 126.972935 167.667051 
L 127.536857 139.137957 
L 128.382738 94.094523 
L 128.664699 85.278216 
L 128.946659 82.454182 
L 129.22862 84.867502 
L 129.510581 91.147417 
L 129.792541 101.522545 
L 130.920384 159.518415 
L 131.202344 167.342536 
L 131.484305 171.786494 
L 132.048226 176.59091 
L 132.330186 177.905367 
L 132.612147 177.524491 
L 133.176068 175.301315 
L 133.458029 174.292361 
L 134.303911 169.60869 
L 135.431753 161.425881 
L 135.995674 158.982011 
L 136.277635 158.686749 
L 136.841556 159.546157 
L 137.405477 159.807067 
L 137.687438 160.054762 
L 138.251359 160.211288 
L 138.533319 160.677124 
L 138.81528 161.430475 
L 139.097241 161.744633 
L 139.379201 161.469861 
L 139.661162 161.371846 
L 140.507043 162.645413 
L 140.789004 163.065612 
L 141.352925 164.205547 
L 141.916846 164.313789 
L 142.198807 164.718671 
L 142.480768 164.816809 
L 142.762728 163.958319 
L 143.326649 161.153439 
L 143.60861 161.134437 
L 143.890571 161.749831 
L 144.454492 162.235015 
L 144.736452 163.956894 
L 145.300373 170.002135 
L 145.582334 171.350185 
L 145.864295 172.00731 
L 146.146255 173.310688 
L 146.710176 176.394462 
L 146.992137 175.807262 
L 147.274098 174.219832 
L 147.556058 173.702574 
L 147.838019 175.425374 
L 149.247822 190.113403 
L 149.529782 191.678796 
L 149.811743 190.101157 
L 150.093703 184.715065 
L 150.375664 175.167504 
L 150.939585 143.628281 
L 151.785467 91.307448 
L 152.067428 79.607115 
L 152.349388 72.985851 
L 152.631349 72.670303 
L 152.913309 77.918625 
L 153.47723 99.221361 
L 154.605073 156.477873 
L 154.887033 162.287475 
L 155.168994 165.071249 
L 156.014876 168.275839 
L 156.296836 170.070071 
L 156.578797 170.758603 
L 157.424679 169.285684 
L 157.706639 168.183464 
L 158.27056 163.532095 
L 159.116442 160.029428 
L 159.398403 159.175694 
L 159.962324 159.574434 
L 160.526245 157.62379 
L 160.808206 157.928692 
L 161.372127 159.842657 
L 161.936048 163.436962 
L 162.218009 164.049343 
L 162.499969 163.675968 
L 162.78193 164.077257 
L 163.06389 165.261259 
L 163.345851 165.538764 
L 163.909772 163.543262 
L 164.191733 163.33901 
L 164.755654 164.116807 
L 165.037614 164.517898 
L 165.319575 165.186327 
L 166.165457 169.325544 
L 166.447417 169.274412 
L 166.729378 169.625705 
L 167.293299 171.639754 
L 167.57526 171.192635 
L 167.85722 170.443757 
L 168.139181 170.379414 
L 168.703102 171.357311 
L 168.985063 172.327652 
L 169.548984 175.292494 
L 169.830944 175.613783 
L 170.394866 173.783984 
L 170.676826 174.417741 
L 171.804669 184.22003 
L 172.65055 192.101069 
L 172.932511 193.746525 
L 173.214471 194.008661 
L 173.496432 192.090685 
L 173.778393 187.313345 
L 174.060353 178.776637 
L 174.624274 148.748996 
L 175.470156 92.295498 
L 175.752117 79.932444 
L 176.034077 73.295381 
L 176.316038 71.953169 
L 176.597999 75.793302 
L 176.879959 84.890952 
L 178.571723 160.564794 
L 178.853683 164.730295 
L 179.699565 170.289683 
L 179.981526 171.599562 
L 180.263486 170.589713 
L 180.827407 165.739729 
L 181.109368 165.128855 
L 181.391328 164.948097 
L 182.23721 163.429474 
L 183.083092 162.115512 
L 183.647013 162.474737 
L 184.210934 162.923888 
L 184.774856 162.420497 
L 185.056816 162.766776 
L 185.338777 163.467878 
L 185.620737 163.545745 
L 185.902698 162.862244 
L 186.184658 162.646774 
L 186.466619 163.986422 
L 187.03054 168.066868 
L 187.312501 167.911543 
L 187.594461 166.911151 
L 187.876422 166.69442 
L 188.158383 167.134733 
L 188.440343 167.077897 
L 188.722304 166.718651 
L 189.286225 167.546023 
L 189.850146 166.717187 
L 190.132107 167.531326 
L 190.414067 168.855962 
L 190.696028 169.295096 
L 190.977988 169.167426 
L 191.259949 169.383142 
L 191.82387 170.208979 
L 192.387791 172.291171 
L 192.669752 172.392477 
L 192.951713 171.750566 
L 193.233673 171.708112 
L 193.515634 172.302587 
L 194.079555 172.501147 
L 194.361515 174.397224 
L 195.207397 186.154047 
L 196.053279 192.11198 
L 196.33524 191.080831 
L 196.6172 187.709527 
L 196.899161 182.366625 
L 197.181121 173.733121 
L 197.745042 143.737193 
L 198.590924 95.720796 
L 198.872885 85.128592 
L 199.154845 78.827939 
L 199.436806 77.662528 
L 199.718767 82.042797 
L 200.000727 91.319184 
L 200.564648 120.432491 
L 201.12857 151.039117 
L 201.41053 159.58858 
L 201.974451 167.204507 
L 202.256412 169.159878 
L 203.384254 172.714249 
L 203.666215 172.3879 
L 203.948175 171.10411 
L 205.639939 158.996102 
L 205.921899 158.63265 
L 206.485821 159.863517 
L 207.049742 160.70882 
L 207.331702 160.679007 
L 207.613663 160.08037 
L 207.895624 160.159333 
L 208.459545 162.177279 
L 208.741505 162.522175 
L 209.023466 163.336856 
L 209.587387 165.824227 
L 209.869348 166.394206 
L 210.151308 167.457945 
L 210.715229 170.131314 
L 211.279151 171.339026 
L 211.843072 173.614392 
L 212.688954 175.507758 
L 214.098756 182.249181 
L 214.380717 184.076541 
L 214.662678 185.142523 
L 214.944638 185.48269 
L 215.226599 186.687199 
L 215.79052 194.145391 
L 216.636402 203.826013 
L 216.918362 206.182776 
L 217.200323 206.746824 
L 217.482284 205.477795 
L 217.764244 202.497421 
L 218.046205 195.911633 
L 218.328165 183.029478 
L 219.174047 117.808 
L 219.737968 78.792288 
L 220.301889 56.902723 
L 220.58385 51.939912 
L 220.865811 52.034324 
L 221.147771 58.392919 
L 221.711692 82.708563 
L 222.275613 116.427317 
L 222.839535 150.707831 
L 223.121495 160.717523 
L 223.403456 166.475795 
L 223.967377 171.839726 
L 224.531298 174.18166 
L 224.813259 174.318466 
L 225.095219 173.580302 
L 225.37718 171.785452 
L 225.941101 167.174714 
L 226.223062 166.9876 
L 226.505022 167.92242 
L 226.786983 168.187011 
L 227.350904 166.740421 
L 227.632865 166.722565 
L 227.914825 166.552883 
L 228.478746 164.613636 
L 228.760707 164.582629 
L 229.324628 165.963512 
L 229.606589 166.268456 
L 229.888549 167.093726 
L 230.45247 170.086195 
L 230.734431 170.951989 
L 231.016392 171.277213 
L 231.298352 170.985332 
L 231.862273 169.56101 
L 232.144234 169.924614 
L 232.990116 173.156936 
L 233.554037 173.465363 
L 234.117958 175.309587 
L 234.399919 175.120126 
L 234.681879 174.462301 
L 234.96384 175.133158 
L 236.091682 182.921795 
L 236.655603 187.25784 
L 236.937564 189.519724 
L 237.501485 196.522484 
L 238.065406 200.628645 
L 238.629327 209.729927 
L 239.475209 223.037695 
L 239.75717 225.212646 
L 240.03913 225.626569 
L 240.321091 224.261007 
L 240.603052 218.912578 
L 240.885012 206.570204 
L 241.448933 162.330674 
L 242.576776 61.263682 
L 242.858736 44.924481 
L 243.140697 36.429808 
L 243.422657 34.204632 
L 243.704618 35.373119 
L 243.986579 38.928576 
L 244.268539 45.556407 
L 244.83246 66.723659 
L 245.396382 99.388399 
L 245.960303 136.886018 
L 246.524224 160.868901 
L 247.088145 173.969252 
L 247.370106 176.016908 
L 247.652066 176.534862 
L 247.934027 176.408451 
L 248.215987 175.636301 
L 249.061869 171.728364 
L 250.753633 162.259312 
L 251.035593 161.352737 
L 251.317554 161.039601 
L 251.599514 161.512705 
L 252.163436 163.884429 
L 252.445396 165.490372 
L 252.727357 166.443132 
L 253.009317 165.654617 
L 253.291278 163.988873 
L 253.573239 163.605967 
L 254.13716 165.878137 
L 254.41912 166.115571 
L 254.701081 166.723841 
L 255.265002 170.568701 
L 255.828923 174.683167 
L 256.110884 174.96482 
L 256.392844 174.428148 
L 256.674805 174.987023 
L 256.956766 176.370341 
L 257.238726 176.304518 
L 257.520687 174.835955 
L 257.802647 174.746313 
L 258.366569 178.347659 
L 258.648529 178.482251 
L 258.93049 179.289153 
L 259.494411 186.862138 
L 260.058332 192.397082 
L 260.622253 197.180193 
L 261.186174 202.232766 
L 261.468135 204.331335 
L 261.750096 207.433656 
L 262.314017 216.916137 
L 263.159898 231.929779 
L 263.441859 234.477982 
L 263.72382 234.70054 
L 264.00578 232.024024 
L 264.287741 224.94384 
L 264.569701 211.199132 
L 265.133623 161.88372 
L 266.261465 54.811318 
L 266.543425 39.003668 
L 266.825386 30.76168 
L 267.107347 27.821336 
L 267.389307 27.940803 
L 267.671268 30.771135 
L 267.953228 36.448743 
L 268.51715 56.365089 
L 269.081071 90.900786 
L 269.926953 148.314445 
L 270.208913 159.614615 
L 270.490874 166.075591 
L 270.772834 169.340275 
L 271.054795 170.5561 
L 271.336755 170.781887 
L 271.618716 171.373969 
L 272.182637 173.527341 
L 272.464598 173.365434 
L 273.59244 171.061229 
L 273.874401 171.252523 
L 274.156361 171.62127 
L 274.438322 171.229215 
L 275.002243 169.897896 
L 275.284204 169.516375 
L 275.848125 168.440276 
L 276.130085 168.146561 
L 276.694007 166.902916 
L 276.975967 166.908128 
L 277.257928 167.29609 
L 277.539888 167.321764 
L 278.10381 166.907841 
L 278.667731 165.860527 
L 278.949691 166.512109 
L 279.513612 170.000222 
L 280.077534 171.485177 
L 281.205376 177.986791 
L 281.769297 179.250528 
L 282.051258 180.675954 
L 284.024982 194.352795 
L 284.588903 204.4095 
L 285.998706 228.719701 
L 286.280667 231.255269 
L 286.562627 232.665974 
L 286.844588 230.965336 
L 287.126548 224.256752 
L 287.408509 211.849393 
L 287.97243 168.544621 
L 289.100272 65.176939 
L 289.664194 39.206262 
L 289.946154 32.993302 
L 290.228115 30.636735 
L 290.510075 32.559949 
L 290.792036 38.781602 
L 291.355957 60.617296 
L 291.919878 94.766688 
L 292.76576 153.32743 
L 293.047721 163.214077 
L 293.329681 169.013852 
L 293.611642 172.412035 
L 293.893602 173.703698 
L 294.457524 172.695858 
L 294.739484 173.173485 
L 295.021445 174.231389 
L 295.303405 174.192958 
L 295.585366 172.292699 
L 296.149287 167.71259 
L 297.277129 164.099722 
L 297.55909 164.777286 
L 297.841051 166.207485 
L 298.123011 166.826308 
L 298.404972 166.536571 
L 298.686932 167.243419 
L 299.250853 172.738194 
L 299.532814 173.670892 
L 299.814775 174.051832 
L 300.378696 178.27962 
L 300.660656 178.941272 
L 300.942617 178.393318 
L 301.224578 178.483261 
L 302.35242 181.851268 
L 302.916341 184.593791 
L 303.762223 192.4688 
L 304.608105 199.841338 
L 304.890065 202.142542 
L 305.172026 206.268045 
L 306.863789 239.672435 
L 307.14575 242.706014 
L 307.42771 243.195729 
L 307.709671 240.222672 
L 307.991632 231.656046 
L 308.273592 215.399628 
L 308.837513 163.109432 
L 309.965356 44.835727 
L 310.247316 30.710155 
L 310.529277 22.715509 
L 310.811238 18.595 
L 311.093198 19.003119 
L 311.657119 30.115238 
L 312.22104 46.611969 
L 312.784962 73.677749 
L 313.348883 109.726477 
L 314.194765 163.351642 
L 314.758686 180.275288 
L 315.040646 182.537281 
L 315.322607 182.112656 
L 315.886528 179.285889 
L 316.450449 175.152676 
L 316.73241 174.883104 
L 317.01437 175.873985 
L 317.296331 176.186029 
L 318.142213 172.699178 
L 318.706134 171.750878 
L 318.988095 171.548892 
L 319.270055 171.86036 
L 319.552016 172.625638 
L 320.115937 174.751942 
L 320.679858 175.729437 
L 321.243779 178.985307 
L 321.52574 179.108341 
L 322.089661 174.653656 
L 322.371622 173.796322 
L 322.653582 174.239834 
L 322.935543 174.290361 
L 323.217503 173.477031 
L 323.499464 173.409969 
L 324.345346 179.473624 
L 324.627306 180.042777 
L 324.909267 181.691923 
L 325.473188 186.421571 
L 325.755149 188.221314 
L 326.31907 194.929043 
L 327.164952 204.157318 
L 328.292794 217.028538 
L 329.702597 246.268332 
L 329.984557 248.603998 
L 330.266518 245.914253 
L 330.548479 237.308255 
L 330.830439 221.482311 
L 331.39436 164.841298 
L 332.240242 60.25695 
L 332.522203 38.046323 
L 332.804163 24.655631 
L 333.086124 17.881015 
L 333.368084 15.52701 
L 333.650045 16.228607 
L 333.932006 19.097238 
L 334.495927 28.170771 
L 334.777887 35.027806 
L 335.341809 61.257305 
L 336.469651 130.766226 
L 337.033572 168.165567 
L 337.597493 186.17089 
L 337.879454 189.300324 
L 338.161414 189.700572 
L 338.443375 189.073954 
L 338.725336 188.147363 
L 340.135138 180.713697 
L 340.98102 174.101264 
L 341.544941 170.521874 
L 342.108863 168.612094 
L 342.390823 168.390444 
L 342.672784 169.210553 
L 342.954744 170.525782 
L 343.236705 171.086652 
L 343.518666 170.79812 
L 343.800626 170.836003 
L 344.082587 171.632889 
L 344.364547 172.026697 
L 344.928468 170.866912 
L 345.210429 171.597412 
L 345.77435 173.985035 
L 346.056311 174.746488 
L 346.902193 177.93832 
L 347.184153 178.284291 
L 347.466114 178.349329 
L 347.748074 178.697135 
L 348.030035 179.912756 
L 349.157877 187.622141 
L 350.003759 196.756932 
L 350.28572 198.943986 
L 350.56768 202.047611 
L 351.977483 224.141915 
L 352.823365 241.077334 
L 353.105325 243.887742 
L 353.387286 244.804755 
L 353.669247 243.162616 
L 353.951207 236.296863 
L 354.233168 220.713841 
L 354.797089 161.139853 
L 355.642971 54.188169 
L 355.924931 32.415484 
L 356.206892 19.822487 
L 356.488852 13.615323 
L 356.770813 12.096 
L 357.052774 14.923041 
L 357.898655 34.472137 
L 358.462577 52.560733 
L 359.026498 80.772815 
L 360.718261 179.373238 
L 361.000222 184.562507 
L 361.282182 185.797258 
L 361.846104 183.602297 
L 362.128064 183.537083 
L 362.410025 183.357265 
L 362.973946 180.681633 
L 363.255907 181.133154 
L 363.537867 182.278815 
L 363.819828 182.171945 
L 364.383749 179.644607 
L 365.229631 177.662722 
L 366.075512 173.010426 
L 366.357473 173.310388 
L 366.639434 173.355436 
L 367.203355 171.421639 
L 367.485315 171.723139 
L 368.049237 172.858689 
L 368.331197 173.162002 
L 368.613158 173.144504 
L 368.895118 172.807876 
L 369.177079 173.176037 
L 369.741 176.169336 
L 370.304921 177.218178 
L 370.868842 179.906888 
L 371.714724 185.01131 
L 371.996685 185.515872 
L 372.278645 186.469306 
L 373.688448 200.002072 
L 374.252369 209.560416 
L 375.662172 236.931389 
L 375.944133 238.23299 
L 376.226094 236.779434 
L 376.508054 232.994001 
L 376.790015 223.970123 
L 377.071975 206.019521 
L 377.635896 147.296455 
L 378.481778 50.082732 
L 378.763739 32.39765 
L 379.045699 23.363872 
L 379.32766 18.70507 
L 379.609621 17.182055 
L 379.891581 19.860584 
L 380.737463 40.507464 
L 381.301384 62.18497 
L 382.147266 113.269667 
L 382.993148 167.024623 
L 383.557069 185.911088 
L 383.839029 189.705006 
L 384.12099 191.429841 
L 384.402951 191.975217 
L 384.684911 191.539875 
L 384.966872 189.486914 
L 385.530793 182.821271 
L 386.094714 178.344306 
L 386.658635 170.371883 
L 386.940596 169.520886 
L 387.504517 171.015481 
L 388.068438 171.828118 
L 388.350399 171.544641 
L 388.632359 170.480381 
L 388.91432 170.172494 
L 389.478241 172.73166 
L 390.042162 175.686513 
L 390.888044 183.251127 
L 391.733926 192.913426 
L 392.297847 199.005061 
L 393.143729 203.111055 
L 393.70765 209.108672 
L 393.98961 210.687362 
L 394.271571 213.177344 
L 395.117453 229.250587 
L 395.681374 239.926653 
L 395.963335 243.339693 
L 396.245295 243.89128 
L 396.527256 240.718463 
L 396.809216 231.040978 
L 397.091177 212.062287 
L 397.655098 149.742694 
L 398.50098 49.896916 
L 398.78294 35.255144 
L 399.064901 28.16319 
L 399.346862 24.649725 
L 399.628822 24.450533 
L 399.910783 27.38864 
L 400.474704 36.595206 
L 401.038625 51.864954 
L 401.602546 70.705546 
L 402.448428 114.672369 
L 403.858231 185.967148 
L 404.140192 192.337573 
L 404.422152 196.09334 
L 404.704113 196.608583 
L 404.986073 194.099332 
L 405.831955 183.427819 
L 406.959797 172.440725 
L 407.241758 171.619828 
L 407.805679 173.14827 
L 408.3696 171.596921 
L 408.651561 171.824253 
L 408.933522 172.488976 
L 409.215482 172.533236 
L 409.497443 172.390113 
L 409.779403 173.03569 
L 411.189206 180.105569 
L 411.753127 183.338002 
L 413.16293 190.651412 
L 414.008812 199.502234 
L 414.290773 201.725492 
L 415.136654 211.786484 
L 415.700576 214.175917 
L 415.982536 217.085339 
L 416.828418 233.288246 
L 417.6743 247.125354 
L 417.95626 247.288731 
L 418.238221 240.48275 
L 418.520181 224.690659 
L 419.084103 164.622986 
L 419.929984 54.268438 
L 420.211945 35.918843 
L 420.493906 25.870703 
L 420.775866 21.122063 
L 421.057827 20.892824 
L 421.339787 24.155037 
L 422.185669 40.238346 
L 422.74959 54.370448 
L 423.595472 83.406232 
L 425.569196 171.141168 
L 425.851157 178.204494 
L 426.133117 182.068835 
L 426.415078 183.030878 
L 426.697038 181.931938 
L 427.26096 178.917845 
L 427.54292 178.239242 
L 428.106841 177.560134 
L 428.670763 176.094777 
L 428.952723 176.037146 
L 429.516644 177.29031 
L 429.798605 177.56326 
L 430.080565 178.724303 
L 430.362526 180.659438 
L 430.644487 181.764534 
L 430.926447 181.784866 
L 431.208408 182.053417 
L 432.05429 184.871349 
L 432.33625 185.060977 
L 432.618211 183.916684 
L 432.900171 182.063444 
L 433.182132 181.426562 
L 433.464093 181.93084 
L 433.746053 181.48619 
L 434.028014 179.926217 
L 434.309974 179.465399 
L 435.437817 184.057848 
L 436.001738 189.305775 
L 437.12958 204.328497 
L 437.975462 211.396254 
L 438.539383 218.038978 
L 439.103304 228.762687 
L 439.949186 246.441167 
L 440.231147 249.575033 
L 440.513107 248.641831 
L 440.795068 241.032548 
L 441.077028 224.201343 
L 441.64095 159.548899 
L 442.486831 49.917448 
L 442.768792 32.797967 
L 443.050752 24.817507 
L 443.332713 22.301935 
L 443.614674 23.243692 
L 444.178595 31.691099 
L 444.742516 42.957901 
L 445.588398 67.111697 
L 446.152319 87.935681 
L 447.844082 168.05655 
L 448.408004 185.51349 
L 448.689964 188.234392 
L 449.253885 188.336654 
L 449.535846 188.489048 
L 449.817806 186.930038 
L 450.381728 181.391284 
L 450.945649 177.602918 
L 451.50957 172.870533 
L 452.073491 170.366233 
L 452.355452 169.920492 
L 452.637412 170.27087 
L 452.919373 170.394034 
L 453.201334 170.016531 
L 453.483294 170.335615 
L 454.047215 172.432353 
L 454.329176 172.510156 
L 454.611136 173.165228 
L 455.738979 180.145797 
L 456.3029 182.467481 
L 456.866821 185.127455 
L 457.430742 187.091081 
L 458.276624 190.878482 
L 458.840545 196.279526 
L 459.404466 198.77392 
L 460.532309 208.517915 
L 461.09623 219.543526 
L 461.942112 237.315923 
L 462.224072 241.425303 
L 462.506033 243.476101 
L 462.787993 242.019134 
L 463.069954 234.015678 
L 463.351915 216.659551 
L 463.915836 154.786548 
L 464.761718 52.492567 
L 465.043678 36.044528 
L 465.325639 28.488641 
L 465.607599 25.917242 
L 465.88956 26.392488 
L 466.17152 29.67402 
L 467.017402 45.892554 
L 467.581323 64.933031 
L 468.709166 112.873717 
L 469.555048 149.439801 
L 470.118969 166.83286 
L 470.68289 178.166607 
L 470.96485 180.296269 
L 471.246811 180.165087 
L 471.528772 179.131256 
L 471.810732 177.181159 
L 472.374653 171.422288 
L 472.656614 170.881823 
L 472.938575 171.41064 
L 473.220535 171.365272 
L 473.502496 171.138691 
L 474.066417 172.039854 
L 474.348377 171.879485 
L 474.630338 172.29906 
L 475.47622 177.455823 
L 475.75818 177.589177 
L 476.040141 178.561071 
L 476.604062 183.802425 
L 477.449944 191.933556 
L 477.731905 193.232429 
L 478.013865 193.53978 
L 478.295826 194.361234 
L 479.423668 202.541598 
L 479.987589 210.048624 
L 480.833471 217.536073 
L 481.679353 234.198426 
L 482.525234 250.748771 
L 482.807195 251.349345 
L 483.089156 246.050001 
L 483.371116 232.758744 
L 483.653077 210.070733 
L 484.216998 138.347403 
L 484.780919 70.147988 
L 485.06288 52.2859 
L 485.34484 43.230157 
L 485.626801 39.634345 
L 485.908762 39.998337 
L 486.190722 43.261226 
L 487.036604 58.81415 
L 487.600525 71.910057 
L 488.728367 105.593302 
L 489.574249 139.091294 
L 490.420131 163.288272 
L 490.984052 171.531419 
L 491.266013 173.480944 
L 491.547973 173.875619 
L 491.829934 172.595562 
L 492.675816 165.304023 
L 492.957776 164.118543 
L 493.239737 163.830172 
L 493.521697 163.377897 
L 494.085619 160.813939 
L 494.367579 161.247581 
L 494.9315 164.725359 
L 495.213461 164.715921 
L 495.495421 164.422289 
L 495.777382 165.534264 
L 496.341303 169.503028 
L 496.905224 171.746392 
L 497.751106 177.968595 
L 498.033067 178.62754 
L 498.315027 179.839346 
L 499.160909 187.218418 
L 500.570712 201.902751 
L 501.134633 211.255878 
L 502.544436 225.5859 
L 502.826397 227.971246 
L 503.390318 236.745896 
L 503.954239 246.501007 
L 504.2362 249.991876 
L 504.51816 249.682461 
L 504.800121 242.169534 
L 505.082081 225.013269 
L 505.646003 159.883499 
L 506.209924 85.500494 
L 506.491884 62.954555 
L 506.773845 50.848454 
L 507.055805 45.503555 
L 507.337766 44.793199 
L 507.619727 47.572917 
L 508.465608 62.597524 
L 509.593451 89.507429 
L 510.157372 106.734226 
L 511.567175 153.095059 
L 512.131096 164.803956 
L 512.695017 171.005524 
L 512.976978 171.980273 
L 514.10482 169.587863 
L 514.950702 162.779875 
L 515.514623 162.093963 
L 516.924426 157.398248 
L 517.206387 157.017799 
L 517.488347 157.009987 
L 518.334229 157.700849 
L 518.61619 158.174019 
L 520.025992 164.021069 
L 521.717756 177.950831 
L 523.973441 205.193339 
L 524.537362 212.928925 
L 525.101283 216.917851 
L 525.383244 220.48689 
L 527.075007 253.666559 
L 527.356968 254.016 
L 527.638928 246.982899 
L 527.920889 230.083041 
L 528.48481 162.753314 
L 529.048731 88.445857 
L 529.330692 67.732376 
L 529.612652 56.803256 
L 529.894613 51.96095 
L 530.176574 51.725792 
L 530.458534 54.723421 
L 531.022455 64.275833 
L 532.150298 89.860539 
L 532.996179 114.275917 
L 534.124022 151.659435 
L 534.687943 165.548665 
L 534.969904 169.824872 
L 535.251864 172.25112 
L 535.533825 173.469407 
L 535.815785 173.547516 
L 536.097746 172.502357 
L 536.661667 168.700081 
L 537.789509 156.042901 
L 538.353431 153.780949 
L 538.917352 151.162218 
L 539.199312 151.123768 
L 539.763233 151.95967 
L 540.045194 152.106902 
L 540.327155 152.508718 
L 540.609115 153.45685 
L 541.173036 156.72394 
L 541.736958 160.446508 
L 542.300879 163.732349 
L 543.146761 171.146866 
L 543.710682 173.797805 
L 544.556563 179.445048 
L 545.120485 184.99072 
L 547.376169 212.024309 
L 547.65813 215.531326 
L 549.067933 241.907425 
L 549.349893 245.715493 
L 549.631854 245.562046 
L 549.913815 237.208267 
L 550.195775 219.94786 
L 550.759696 160.232932 
L 551.323618 93.554913 
L 551.605578 75.280672 
L 551.887539 66.191011 
L 552.169499 62.167929 
L 552.45146 61.895771 
L 552.73342 64.619016 
L 553.579302 77.683995 
L 554.425184 96.158451 
L 555.271066 124.20178 
L 556.116947 150.469813 
L 556.680869 162.246506 
L 556.962829 165.166567 
L 557.24479 166.460472 
L 557.52675 166.863852 
L 557.808711 166.752573 
L 558.372632 165.671986 
L 559.218514 162.557885 
L 560.064396 159.167768 
L 560.346356 159.740588 
L 560.628317 160.652897 
L 560.910277 160.58304 
L 561.192238 160.046166 
L 561.474199 160.31529 
L 562.03812 161.821292 
L 562.32008 162.117383 
L 562.602041 162.758345 
L 564.011844 168.045733 
L 565.139686 175.0252 
L 565.421647 177.447966 
L 566.267529 188.327141 
L 567.11341 195.81202 
L 567.395371 196.206106 
L 567.677332 197.778564 
L 568.523213 211.988684 
L 569.369095 225.369786 
L 569.651056 226.078928 
L 569.933016 220.934517 
L 570.214977 206.92645 
L 571.342819 114.401705 
L 571.90674 92.647711 
L 572.188701 89.004031 
L 572.470661 88.645005 
L 572.752622 89.776317 
L 573.034583 92.179069 
L 573.598504 100.77761 
L 575.008307 127.602715 
L 575.854189 147.674812 
L 576.70007 163.1475 
L 576.982031 166.152017 
L 577.263991 167.871487 
L 577.545952 168.79998 
L 577.827913 168.56503 
L 578.955755 163.682199 
L 579.519676 160.250089 
L 579.801637 160.292503 
L 580.083597 160.450796 
L 580.647518 159.064699 
L 580.929479 159.691427 
L 581.21144 161.271417 
L 581.4934 161.845898 
L 582.339282 157.887824 
L 582.903203 159.858909 
L 583.185164 160.313108 
L 583.467124 161.008833 
L 584.031046 165.050114 
L 584.313006 167.126385 
L 584.594967 168.222139 
L 584.876927 168.786134 
L 585.158888 170.019664 
L 585.722809 173.502517 
L 586.00477 173.161261 
L 586.28673 172.478229 
L 586.568691 173.381981 
L 587.414573 181.316113 
L 587.978494 187.079049 
L 589.388297 196.952294 
L 589.952218 203.670145 
L 590.7981 216.303774 
L 591.08006 217.40222 
L 591.362021 212.840997 
L 591.643981 200.724728 
L 593.053784 111.886454 
L 593.335745 104.271363 
L 593.617705 101.064321 
L 594.463587 98.555962 
L 594.745548 100.760538 
L 595.309469 108.263261 
L 595.59143 110.750034 
L 596.155351 120.148886 
L 597.001232 134.966285 
L 597.847114 156.438607 
L 598.974957 173.047938 
L 599.256917 173.773474 
L 599.538878 171.79844 
L 600.102799 166.654027 
L 601.512602 159.603806 
L 602.076523 157.870394 
L 602.922405 155.957783 
L 603.204365 156.056451 
L 604.050247 158.379315 
L 604.332208 158.730586 
L 605.46005 160.956755 
L 606.023971 163.203772 
L 606.305932 163.593204 
L 606.587892 163.583723 
L 606.869853 164.192943 
L 607.433774 165.797562 
L 607.715735 166.264017 
L 609.125538 170.509217 
L 609.689459 172.023081 
L 609.971419 173.683793 
L 610.817301 180.72559 
L 612.227104 189.479402 
L 613.354946 204.186855 
L 613.636907 208.896996 
L 613.918868 211.242407 
L 614.200828 209.643105 
L 614.482789 203.725982 
L 614.764749 192.200223 
L 615.892592 122.988822 
L 616.456513 105.597226 
L 616.738474 101.020305 
L 617.020434 100.864618 
L 617.584355 108.418251 
L 619.84004 140.947811 
L 620.403961 151.525792 
L 621.249843 162.723322 
L 621.531803 164.486889 
L 621.813764 165.306087 
L 622.095725 165.583602 
L 622.377685 164.90284 
L 623.223567 160.080876 
L 623.505528 159.390159 
L 623.787488 159.213807 
L 624.069449 159.292826 
L 624.351409 159.036771 
L 624.915331 157.581627 
L 625.197291 157.956619 
L 625.479252 158.565789 
L 626.043173 158.150749 
L 626.325133 159.089488 
L 626.607094 160.631918 
L 626.889055 161.244811 
L 627.171015 161.158163 
L 627.452976 161.765508 
L 628.016897 163.991367 
L 628.298858 164.318961 
L 629.144739 165.900943 
L 629.4267 165.9377 
L 629.990621 166.976389 
L 630.272582 166.997724 
L 630.554542 166.729082 
L 630.836503 167.051382 
L 631.118463 167.841871 
L 631.400424 167.91334 
L 631.964345 166.039486 
L 632.246306 166.067511 
L 632.528266 166.953128 
L 632.810227 168.704139 
L 633.092188 169.745638 
L 633.092188 169.745638 
" clip-path="url(#p939451db0a)" style="fill: none; stroke: #1f77b4; stroke-width: 1.5; stroke-linecap: square"/>
   </g>
   <g id="patch_3">
    <path d="M 47.192188 266.112 
L 47.192188 0 
" style="fill: none; stroke: #000000; stroke-width: 0.8; stroke-linejoin: miter; stroke-linecap: square"/>
   </g>
   <g id="patch_4">
    <path d="M 660.992188 266.112 
L 660.992188 0 
" style="fill: none; stroke: #000000; stroke-width: 0.8; stroke-linejoin: miter; stroke-linecap: square"/>
   </g>
   <g id="patch_5">
    <path d="M 47.192188 266.112 
L 660.992188 266.112 
" style="fill: none; stroke: #000000; stroke-width: 0.8; stroke-linejoin: miter; stroke-linecap: square"/>
   </g>
   <g id="patch_6">
    <path d="M 47.192188 0 
L 660.992188 0 
" style="fill: none; stroke: #000000; stroke-width: 0.8; stroke-linejoin: miter; stroke-linecap: square"/>
   </g>
  </g>
 </g>
 <defs>
  <clipPath id="p939451db0a">
   <rect x="47.192188" y="0" width="613.8" height="266.112"/>
  </clipPath>
 </defs>
</svg>
