<?xml version="1.0" encoding="utf-8" standalone="no"?>
<!DOCTYPE svg PUBLIC "-//W3C//DTD SVG 1.1//EN"
  "http://www.w3.org/Graphics/SVG/1.1/DTD/svg11.dtd">
<svg xmlns:xlink="http://www.w3.org/1999/xlink" width="660.992188pt" height="282.790125pt" viewBox="0 0 660.992188 282.790125" xmlns="http://www.w3.org/2000/svg" version="1.1">
 <metadata>
  <rdf:RDF xmlns:dc="http://purl.org/dc/elements/1.1/" xmlns:cc="http://creativecommons.org/ns#" xmlns:rdf="http://www.w3.org/1999/02/22-rdf-syntax-ns#">
   <cc:Work>
    <dc:type rdf:resource="http://purl.org/dc/dcmitype/StillImage"/>
    <dc:date>2023-03-06T21:29:45.080824</dc:date>
    <dc:format>image/svg+xml</dc:format>
    <dc:creator>
     <cc:Agent>
      <dc:title>Matplotlib v3.6.3, https://matplotlib.org/</dc:title>
     </cc:Agent>
    </dc:creator>
   </cc:Work>
  </rdf:RDF>
 </metadata>
 <defs>
  <style type="text/css">*{stroke-linejoin: round; stroke-linecap: butt}</style>
 </defs>
 <g id="figure_1">
  <g id="patch_1">
   <path d="M -0 282.790125 
L 660.992188 282.790125 
L 660.992188 0 
L -0 0 
L -0 282.790125 
z
" style="fill: none"/>
  </g>
  <g id="axes_1">
   <g id="patch_2">
    <path d="M 47.192188 266.112 
L 660.992188 266.112 
L 660.992188 0 
L 47.192188 0 
L 47.192188 266.112 
z
" style="fill: none"/>
   </g>
   <g id="matplotlib.axis_1">
    <g id="xtick_1">
     <g id="line2d_1">
      <defs>
       <path id="m06d2ddc807" d="M 0 0 
L 0 3.5 
" style="stroke: #808080; stroke-width: 0.8"/>
      </defs>
      <g>
       <use xlink:href="#m06d2ddc807" x="75.092188" y="266.112" style="fill: #808080; stroke: #808080; stroke-width: 0.8"/>
      </g>
     </g>
     <g id="text_1">
      <!-- 0 -->
      <g style="fill: #808080" transform="translate(71.910938 280.710438) scale(0.1 -0.1)">
       <defs>
        <path id="DejaVuSans-30" d="M 2034 4250 
Q 1547 4250 1301 3770 
Q 1056 3291 1056 2328 
Q 1056 1369 1301 889 
Q 1547 409 2034 409 
Q 2525 409 2770 889 
Q 3016 1369 3016 2328 
Q 3016 3291 2770 3770 
Q 2525 4250 2034 4250 
z
M 2034 4750 
Q 2819 4750 3233 4129 
Q 3647 3509 3647 2328 
Q 3647 1150 3233 529 
Q 2819 -91 2034 -91 
Q 1250 -91 836 529 
Q 422 1150 422 2328 
Q 422 3509 836 4129 
Q 1250 4750 2034 4750 
z
" transform="scale(0.015625)"/>
       </defs>
       <use xlink:href="#DejaVuSans-30"/>
      </g>
     </g>
    </g>
    <g id="xtick_2">
     <g id="line2d_2">
      <g>
       <use xlink:href="#m06d2ddc807" x="144.842188" y="266.112" style="fill: #808080; stroke: #808080; stroke-width: 0.8"/>
      </g>
     </g>
     <g id="text_2">
      <!-- 500 -->
      <g style="fill: #808080" transform="translate(135.298438 280.710438) scale(0.1 -0.1)">
       <defs>
        <path id="DejaVuSans-35" d="M 691 4666 
L 3169 4666 
L 3169 4134 
L 1269 4134 
L 1269 2991 
Q 1406 3038 1543 3061 
Q 1681 3084 1819 3084 
Q 2600 3084 3056 2656 
Q 3513 2228 3513 1497 
Q 3513 744 3044 326 
Q 2575 -91 1722 -91 
Q 1428 -91 1123 -41 
Q 819 9 494 109 
L 494 744 
Q 775 591 1075 516 
Q 1375 441 1709 441 
Q 2250 441 2565 725 
Q 2881 1009 2881 1497 
Q 2881 1984 2565 2268 
Q 2250 2553 1709 2553 
Q 1456 2553 1204 2497 
Q 953 2441 691 2322 
L 691 4666 
z
" transform="scale(0.015625)"/>
       </defs>
       <use xlink:href="#DejaVuSans-35"/>
       <use xlink:href="#DejaVuSans-30" x="63.623047"/>
       <use xlink:href="#DejaVuSans-30" x="127.246094"/>
      </g>
     </g>
    </g>
    <g id="xtick_3">
     <g id="line2d_3">
      <g>
       <use xlink:href="#m06d2ddc807" x="214.592188" y="266.112" style="fill: #808080; stroke: #808080; stroke-width: 0.8"/>
      </g>
     </g>
     <g id="text_3">
      <!-- 1000 -->
      <g style="fill: #808080" transform="translate(201.867188 280.710438) scale(0.1 -0.1)">
       <defs>
        <path id="DejaVuSans-31" d="M 794 531 
L 1825 531 
L 1825 4091 
L 703 3866 
L 703 4441 
L 1819 4666 
L 2450 4666 
L 2450 531 
L 3481 531 
L 3481 0 
L 794 0 
L 794 531 
z
" transform="scale(0.015625)"/>
       </defs>
       <use xlink:href="#DejaVuSans-31"/>
       <use xlink:href="#DejaVuSans-30" x="63.623047"/>
       <use xlink:href="#DejaVuSans-30" x="127.246094"/>
       <use xlink:href="#DejaVuSans-30" x="190.869141"/>
      </g>
     </g>
    </g>
    <g id="xtick_4">
     <g id="line2d_4">
      <g>
       <use xlink:href="#m06d2ddc807" x="284.342188" y="266.112" style="fill: #808080; stroke: #808080; stroke-width: 0.8"/>
      </g>
     </g>
     <g id="text_4">
      <!-- 1500 -->
      <g style="fill: #808080" transform="translate(271.617188 280.710438) scale(0.1 -0.1)">
       <use xlink:href="#DejaVuSans-31"/>
       <use xlink:href="#DejaVuSans-35" x="63.623047"/>
       <use xlink:href="#DejaVuSans-30" x="127.246094"/>
       <use xlink:href="#DejaVuSans-30" x="190.869141"/>
      </g>
     </g>
    </g>
    <g id="xtick_5">
     <g id="line2d_5">
      <g>
       <use xlink:href="#m06d2ddc807" x="354.092188" y="266.112" style="fill: #808080; stroke: #808080; stroke-width: 0.8"/>
      </g>
     </g>
     <g id="text_5">
      <!-- 2000 -->
      <g style="fill: #808080" transform="translate(341.367188 280.710438) scale(0.1 -0.1)">
       <defs>
        <path id="DejaVuSans-32" d="M 1228 531 
L 3431 531 
L 3431 0 
L 469 0 
L 469 531 
Q 828 903 1448 1529 
Q 2069 2156 2228 2338 
Q 2531 2678 2651 2914 
Q 2772 3150 2772 3378 
Q 2772 3750 2511 3984 
Q 2250 4219 1831 4219 
Q 1534 4219 1204 4116 
Q 875 4013 500 3803 
L 500 4441 
Q 881 4594 1212 4672 
Q 1544 4750 1819 4750 
Q 2544 4750 2975 4387 
Q 3406 4025 3406 3419 
Q 3406 3131 3298 2873 
Q 3191 2616 2906 2266 
Q 2828 2175 2409 1742 
Q 1991 1309 1228 531 
z
" transform="scale(0.015625)"/>
       </defs>
       <use xlink:href="#DejaVuSans-32"/>
       <use xlink:href="#DejaVuSans-30" x="63.623047"/>
       <use xlink:href="#DejaVuSans-30" x="127.246094"/>
       <use xlink:href="#DejaVuSans-30" x="190.869141"/>
      </g>
     </g>
    </g>
    <g id="xtick_6">
     <g id="line2d_6">
      <g>
       <use xlink:href="#m06d2ddc807" x="423.842188" y="266.112" style="fill: #808080; stroke: #808080; stroke-width: 0.8"/>
      </g>
     </g>
     <g id="text_6">
      <!-- 2500 -->
      <g style="fill: #808080" transform="translate(411.117188 280.710438) scale(0.1 -0.1)">
       <use xlink:href="#DejaVuSans-32"/>
       <use xlink:href="#DejaVuSans-35" x="63.623047"/>
       <use xlink:href="#DejaVuSans-30" x="127.246094"/>
       <use xlink:href="#DejaVuSans-30" x="190.869141"/>
      </g>
     </g>
    </g>
    <g id="xtick_7">
     <g id="line2d_7">
      <g>
       <use xlink:href="#m06d2ddc807" x="493.592188" y="266.112" style="fill: #808080; stroke: #808080; stroke-width: 0.8"/>
      </g>
     </g>
     <g id="text_7">
      <!-- 3000 -->
      <g style="fill: #808080" transform="translate(480.867188 280.710438) scale(0.1 -0.1)">
       <defs>
        <path id="DejaVuSans-33" d="M 2597 2516 
Q 3050 2419 3304 2112 
Q 3559 1806 3559 1356 
Q 3559 666 3084 287 
Q 2609 -91 1734 -91 
Q 1441 -91 1130 -33 
Q 819 25 488 141 
L 488 750 
Q 750 597 1062 519 
Q 1375 441 1716 441 
Q 2309 441 2620 675 
Q 2931 909 2931 1356 
Q 2931 1769 2642 2001 
Q 2353 2234 1838 2234 
L 1294 2234 
L 1294 2753 
L 1863 2753 
Q 2328 2753 2575 2939 
Q 2822 3125 2822 3475 
Q 2822 3834 2567 4026 
Q 2313 4219 1838 4219 
Q 1578 4219 1281 4162 
Q 984 4106 628 3988 
L 628 4550 
Q 988 4650 1302 4700 
Q 1616 4750 1894 4750 
Q 2613 4750 3031 4423 
Q 3450 4097 3450 3541 
Q 3450 3153 3228 2886 
Q 3006 2619 2597 2516 
z
" transform="scale(0.015625)"/>
       </defs>
       <use xlink:href="#DejaVuSans-33"/>
       <use xlink:href="#DejaVuSans-30" x="63.623047"/>
       <use xlink:href="#DejaVuSans-30" x="127.246094"/>
       <use xlink:href="#DejaVuSans-30" x="190.869141"/>
      </g>
     </g>
    </g>
    <g id="xtick_8">
     <g id="line2d_8">
      <g>
       <use xlink:href="#m06d2ddc807" x="563.342188" y="266.112" style="fill: #808080; stroke: #808080; stroke-width: 0.8"/>
      </g>
     </g>
     <g id="text_8">
      <!-- 3500 -->
      <g style="fill: #808080" transform="translate(550.617188 280.710438) scale(0.1 -0.1)">
       <use xlink:href="#DejaVuSans-33"/>
       <use xlink:href="#DejaVuSans-35" x="63.623047"/>
       <use xlink:href="#DejaVuSans-30" x="127.246094"/>
       <use xlink:href="#DejaVuSans-30" x="190.869141"/>
      </g>
     </g>
    </g>
    <g id="xtick_9">
     <g id="line2d_9">
      <g>
       <use xlink:href="#m06d2ddc807" x="633.092188" y="266.112" style="fill: #808080; stroke: #808080; stroke-width: 0.8"/>
      </g>
     </g>
     <g id="text_9">
      <!-- 4000 -->
      <g style="fill: #808080" transform="translate(620.367188 280.710438) scale(0.1 -0.1)">
       <defs>
        <path id="DejaVuSans-34" d="M 2419 4116 
L 825 1625 
L 2419 1625 
L 2419 4116 
z
M 2253 4666 
L 3047 4666 
L 3047 1625 
L 3713 1625 
L 3713 1100 
L 3047 1100 
L 3047 0 
L 2419 0 
L 2419 1100 
L 313 1100 
L 313 1709 
L 2253 4666 
z
" transform="scale(0.015625)"/>
       </defs>
       <use xlink:href="#DejaVuSans-34"/>
       <use xlink:href="#DejaVuSans-30" x="63.623047"/>
       <use xlink:href="#DejaVuSans-30" x="127.246094"/>
       <use xlink:href="#DejaVuSans-30" x="190.869141"/>
      </g>
     </g>
    </g>
   </g>
   <g id="matplotlib.axis_2">
    <g id="ytick_1">
     <g id="line2d_10">
      <defs>
       <path id="m098dfa0887" d="M 0 0 
L -3.5 0 
" style="stroke: #808080; stroke-width: 0.8"/>
      </defs>
      <g>
       <use xlink:href="#m098dfa0887" x="47.192188" y="232.882062" style="fill: #808080; stroke: #808080; stroke-width: 0.8"/>
      </g>
     </g>
     <g id="text_10">
      <!-- −20000 -->
      <g style="fill: #808080" transform="translate(0 236.68128) scale(0.1 -0.1)">
       <defs>
        <path id="DejaVuSans-2212" d="M 678 2272 
L 4684 2272 
L 4684 1741 
L 678 1741 
L 678 2272 
z
" transform="scale(0.015625)"/>
       </defs>
       <use xlink:href="#DejaVuSans-2212"/>
       <use xlink:href="#DejaVuSans-32" x="83.789062"/>
       <use xlink:href="#DejaVuSans-30" x="147.412109"/>
       <use xlink:href="#DejaVuSans-30" x="211.035156"/>
       <use xlink:href="#DejaVuSans-30" x="274.658203"/>
       <use xlink:href="#DejaVuSans-30" x="338.28125"/>
      </g>
     </g>
    </g>
    <g id="ytick_2">
     <g id="line2d_11">
      <g>
       <use xlink:href="#m098dfa0887" x="47.192188" y="195.272231" style="fill: #808080; stroke: #808080; stroke-width: 0.8"/>
      </g>
     </g>
     <g id="text_11">
      <!-- −10000 -->
      <g style="fill: #808080" transform="translate(0 199.07145) scale(0.1 -0.1)">
       <use xlink:href="#DejaVuSans-2212"/>
       <use xlink:href="#DejaVuSans-31" x="83.789062"/>
       <use xlink:href="#DejaVuSans-30" x="147.412109"/>
       <use xlink:href="#DejaVuSans-30" x="211.035156"/>
       <use xlink:href="#DejaVuSans-30" x="274.658203"/>
       <use xlink:href="#DejaVuSans-30" x="338.28125"/>
      </g>
     </g>
    </g>
    <g id="ytick_3">
     <g id="line2d_12">
      <g>
       <use xlink:href="#m098dfa0887" x="47.192188" y="157.6624" style="fill: #808080; stroke: #808080; stroke-width: 0.8"/>
      </g>
     </g>
     <g id="text_12">
      <!-- 0 -->
      <g style="fill: #808080" transform="translate(33.829688 161.461619) scale(0.1 -0.1)">
       <use xlink:href="#DejaVuSans-30"/>
      </g>
     </g>
    </g>
    <g id="ytick_4">
     <g id="line2d_13">
      <g>
       <use xlink:href="#m098dfa0887" x="47.192188" y="120.05257" style="fill: #808080; stroke: #808080; stroke-width: 0.8"/>
      </g>
     </g>
     <g id="text_13">
      <!-- 10000 -->
      <g style="fill: #808080" transform="translate(8.379688 123.851788) scale(0.1 -0.1)">
       <use xlink:href="#DejaVuSans-31"/>
       <use xlink:href="#DejaVuSans-30" x="63.623047"/>
       <use xlink:href="#DejaVuSans-30" x="127.246094"/>
       <use xlink:href="#DejaVuSans-30" x="190.869141"/>
       <use xlink:href="#DejaVuSans-30" x="254.492188"/>
      </g>
     </g>
    </g>
    <g id="ytick_5">
     <g id="line2d_14">
      <g>
       <use xlink:href="#m098dfa0887" x="47.192188" y="82.442739" style="fill: #808080; stroke: #808080; stroke-width: 0.8"/>
      </g>
     </g>
     <g id="text_14">
      <!-- 20000 -->
      <g style="fill: #808080" transform="translate(8.379688 86.241958) scale(0.1 -0.1)">
       <use xlink:href="#DejaVuSans-32"/>
       <use xlink:href="#DejaVuSans-30" x="63.623047"/>
       <use xlink:href="#DejaVuSans-30" x="127.246094"/>
       <use xlink:href="#DejaVuSans-30" x="190.869141"/>
       <use xlink:href="#DejaVuSans-30" x="254.492188"/>
      </g>
     </g>
    </g>
    <g id="ytick_6">
     <g id="line2d_15">
      <g>
       <use xlink:href="#m098dfa0887" x="47.192188" y="44.832908" style="fill: #808080; stroke: #808080; stroke-width: 0.8"/>
      </g>
     </g>
     <g id="text_15">
      <!-- 30000 -->
      <g style="fill: #808080" transform="translate(8.379688 48.632127) scale(0.1 -0.1)">
       <use xlink:href="#DejaVuSans-33"/>
       <use xlink:href="#DejaVuSans-30" x="63.623047"/>
       <use xlink:href="#DejaVuSans-30" x="127.246094"/>
       <use xlink:href="#DejaVuSans-30" x="190.869141"/>
       <use xlink:href="#DejaVuSans-30" x="254.492188"/>
      </g>
     </g>
    </g>
    <g id="ytick_7">
     <g id="line2d_16">
      <g>
       <use xlink:href="#m098dfa0887" x="47.192188" y="7.223077" style="fill: #808080; stroke: #808080; stroke-width: 0.8"/>
      </g>
     </g>
     <g id="text_16">
      <!-- 40000 -->
      <g style="fill: #808080" transform="translate(8.379688 11.022296) scale(0.1 -0.1)">
       <use xlink:href="#DejaVuSans-34"/>
       <use xlink:href="#DejaVuSans-30" x="63.623047"/>
       <use xlink:href="#DejaVuSans-30" x="127.246094"/>
       <use xlink:href="#DejaVuSans-30" x="190.869141"/>
       <use xlink:href="#DejaVuSans-30" x="254.492188"/>
      </g>
     </g>
    </g>
   </g>
   <g id="line2d_17">
    <path d="M 75.092188 157.470407 
L 75.374148 157.846285 
L 75.656109 157.485843 
L 75.938069 157.832314 
L 76.22003 157.49853 
L 76.50199 157.820757 
L 76.783951 157.509084 
L 77.065912 157.8111 
L 77.347872 157.517936 
L 77.629833 157.802975 
L 77.911793 157.525401 
L 78.193754 157.796112 
L 78.475715 157.53171 
L 78.757675 157.790315 
L 79.039636 157.537033 
L 79.321596 157.785436 
L 79.603557 157.541495 
L 79.885517 157.781369 
L 80.167478 157.545185 
L 80.449439 157.778039 
L 80.731399 157.548165 
L 81.01336 157.7754 
L 81.29532 157.550469 
L 81.577281 157.77343 
L 81.859242 157.552105 
L 82.141202 157.772131 
L 82.423163 157.553058 
L 82.705123 157.771537 
L 82.987084 157.553278 
L 83.269044 157.771715 
L 83.551005 157.552673 
L 83.832966 157.772781 
L 84.114926 157.551098 
L 84.396887 157.774923 
L 84.678847 157.548317 
L 84.960808 157.778435 
L 85.242769 157.543956 
L 85.524729 157.783797 
L 85.80669 157.537395 
L 86.08865 157.791818 
L 86.370611 157.527561 
L 86.652572 157.803953 
L 86.934532 157.512435 
L 87.216493 157.823083 
L 87.498453 157.487762 
L 87.780414 157.855759 
L 88.062374 157.442899 
L 88.344335 157.920516 
L 88.626296 157.342446 
L 88.908256 158.093919 
L 89.190217 157.006136 
L 89.472177 168.186633 
L 89.754138 170.872229 
L 90.036099 169.172283 
L 90.60002 176.719143 
L 90.88198 180.663114 
L 91.163941 181.155341 
L 91.445901 179.472635 
L 91.727862 175.111738 
L 92.009823 168.192099 
L 92.573744 146.51859 
L 93.419626 110.307319 
L 93.701586 102.388334 
L 93.983547 99.930319 
L 94.265507 103.811397 
L 95.111389 128.259851 
L 95.67531 145.983155 
L 96.803153 166.389984 
L 97.930995 175.494111 
L 98.212956 175.526002 
L 98.776877 172.632662 
L 99.340798 168.228594 
L 99.904719 166.000699 
L 100.46864 159.819006 
L 100.750601 159.014039 
L 101.032561 160.859174 
L 101.596483 166.240331 
L 101.878443 167.115349 
L 102.442364 165.200595 
L 102.724325 166.242052 
L 103.006286 168.57321 
L 103.288246 169.345594 
L 104.134128 165.548413 
L 104.416088 164.801535 
L 104.698049 163.712194 
L 104.98001 164.388649 
L 105.825891 175.783694 
L 106.389813 179.408917 
L 106.671773 177.964591 
L 107.517655 161.79657 
L 107.799615 153.988015 
L 108.645497 123.196501 
L 108.927458 117.15054 
L 109.209418 113.621708 
L 109.491379 112.387432 
L 109.77334 113.081165 
L 110.0553 116.015617 
L 110.619221 128.434874 
L 111.465103 149.878992 
L 112.029024 156.810444 
L 112.592945 174.563694 
L 112.874906 175.954294 
L 113.438827 161.75937 
L 113.720788 161.138896 
L 114.002748 162.678576 
L 114.284709 161.082262 
L 114.84863 153.687848 
L 115.130591 155.197046 
L 115.412551 159.377625 
L 115.694512 161.57346 
L 116.258433 159.549226 
L 116.540394 160.947886 
L 117.104315 164.521664 
L 117.668236 166.52024 
L 117.950197 166.29862 
L 118.232157 165.916076 
L 118.514118 165.967945 
L 119.078039 165.172842 
L 119.36 167.305569 
L 119.923921 174.304725 
L 120.205881 174.715712 
L 120.487842 175.990411 
L 120.769802 178.546689 
L 121.051763 178.682017 
L 121.333724 174.266442 
L 121.897645 159.488952 
L 123.025487 124.681084 
L 123.589408 119.687855 
L 123.871369 117.999833 
L 124.153329 118.067667 
L 124.43529 121.122028 
L 124.999211 132.420671 
L 126.127054 161.40769 
L 126.409014 162.349001 
L 126.690975 164.226284 
L 127.254896 169.147334 
L 127.536857 169.675348 
L 127.818817 169.880098 
L 128.100778 169.459243 
L 128.664699 167.142446 
L 129.22862 167.943916 
L 129.510581 167.311916 
L 130.074502 164.285374 
L 130.920384 156.849017 
L 131.202344 157.455453 
L 131.766265 161.161667 
L 132.048226 162.320259 
L 132.330186 164.444456 
L 133.176068 175.068705 
L 133.739989 178.982972 
L 134.02195 181.278016 
L 134.303911 181.827541 
L 134.585871 180.431989 
L 134.867832 177.684464 
L 135.149792 173.444967 
L 135.713714 159.366731 
L 137.123516 115.012758 
L 137.405477 111.702695 
L 137.687438 111.112676 
L 137.969398 112.609682 
L 138.251359 116.042086 
L 138.81528 129.605309 
L 139.661162 149.837223 
L 140.225083 158.200734 
L 140.789004 161.404444 
L 141.070965 162.07276 
L 141.352925 161.344269 
L 142.198807 156.949129 
L 142.480768 156.081579 
L 142.762728 156.207385 
L 143.326649 157.843632 
L 143.60861 159.323413 
L 144.454492 167.707368 
L 145.018413 169.351398 
L 145.300373 169.92574 
L 145.582334 168.909552 
L 145.864295 167.165545 
L 146.146255 167.659828 
L 146.710176 174.450343 
L 146.992137 176.036284 
L 147.556058 177.210731 
L 147.838019 177.683432 
L 148.119979 180.16516 
L 148.965861 196.181137 
L 149.529782 201.74148 
L 149.811743 201.212415 
L 150.093703 193.990434 
L 152.067428 113.645443 
L 152.349388 111.039825 
L 152.913309 108.823394 
L 153.19527 110.851335 
L 153.759191 124.75097 
L 154.605073 148.719935 
L 155.168994 163.11367 
L 155.732915 172.612746 
L 156.014876 175.202405 
L 156.296836 174.235529 
L 157.142718 168.585558 
L 157.706639 161.654664 
L 157.9886 161.036062 
L 158.27056 161.863362 
L 158.552521 163.327603 
L 159.116442 167.150264 
L 159.398403 167.207713 
L 159.680363 166.494721 
L 159.962324 164.643295 
L 160.526245 154.8234 
L 160.808206 154.405556 
L 161.372127 161.454801 
L 161.654087 161.748503 
L 161.936048 162.42071 
L 162.499969 166.53909 
L 163.345851 169.173979 
L 163.909772 168.583876 
L 164.191733 170.097908 
L 164.755654 178.413959 
L 165.319575 186.810108 
L 165.601536 187.193141 
L 165.883496 183.776717 
L 166.447417 168.705759 
L 168.139181 112.324691 
L 168.421142 107.863505 
L 168.703102 106.523449 
L 168.985063 109.253616 
L 169.548984 123.536223 
L 170.676826 153.811254 
L 171.240747 164.621295 
L 171.522708 166.059821 
L 172.086629 165.25169 
L 172.36859 165.407364 
L 172.65055 164.820725 
L 172.932511 163.365108 
L 173.214471 162.721636 
L 173.496432 163.859813 
L 173.778393 165.488778 
L 174.060353 166.125151 
L 174.342314 165.292994 
L 175.188196 158.915621 
L 175.470156 160.317926 
L 175.752117 162.565742 
L 176.597999 166.08161 
L 177.44388 174.140552 
L 177.725841 177.299306 
L 178.007801 177.447774 
L 178.571723 171.32639 
L 178.853683 172.04185 
L 179.135644 174.224077 
L 179.699565 176.755896 
L 179.981526 179.063366 
L 180.263486 179.952118 
L 180.545447 177.255704 
L 181.109368 164.590836 
L 182.23721 124.546029 
L 182.801131 114.948037 
L 183.083092 112.907047 
L 183.365053 113.385325 
L 183.647013 116.014737 
L 183.928974 120.604829 
L 185.902698 165.591151 
L 186.184658 169.16239 
L 186.466619 170.632481 
L 186.74858 170.601708 
L 187.876422 168.522452 
L 188.440343 166.54586 
L 188.722304 164.483583 
L 189.286225 158.807307 
L 189.568185 157.601492 
L 189.850146 157.708742 
L 190.132107 159.896625 
L 190.414067 165.904483 
L 190.977988 182.215738 
L 191.259949 185.953218 
L 191.54191 187.272091 
L 191.82387 187.834413 
L 192.105831 187.475394 
L 192.669752 183.679357 
L 193.233673 179.974104 
L 193.515634 178.818751 
L 193.797594 177.173259 
L 194.079555 173.816088 
L 194.643476 162.205701 
L 195.207397 142.6605 
L 195.771318 119.922202 
L 196.053279 113.689098 
L 196.33524 110.986077 
L 196.899161 108.470348 
L 197.181121 109.0956 
L 197.463082 113.134555 
L 198.308964 136.491715 
L 199.154845 160.880647 
L 199.436806 164.581455 
L 200.282688 170.752638 
L 200.564648 171.988328 
L 200.846609 171.394138 
L 201.12857 170.390168 
L 201.41053 170.873706 
L 201.692491 171.743423 
L 201.974451 170.400219 
L 202.256412 167.926106 
L 202.538372 167.892085 
L 202.820333 170.162059 
L 203.102294 170.933596 
L 203.666215 167.260335 
L 204.512097 164.532579 
L 204.794057 165.995324 
L 206.485821 185.301535 
L 206.767781 186.400817 
L 207.049742 186.697114 
L 207.331702 185.807667 
L 207.613663 182.533259 
L 207.895624 176.507171 
L 208.459545 156.485742 
L 209.587387 100.217814 
L 209.869348 93.112298 
L 210.151308 89.440199 
L 210.433269 88.399409 
L 210.715229 91.301047 
L 210.99719 99.744233 
L 212.688954 169.445635 
L 213.252875 179.979473 
L 214.098756 192.518887 
L 214.380717 195.577066 
L 214.662678 195.757207 
L 215.226599 187.949741 
L 215.79052 179.458214 
L 216.354441 167.253784 
L 216.636402 163.274039 
L 216.918362 161.049155 
L 217.200323 160.073181 
L 217.764244 159.611845 
L 218.046205 159.162301 
L 218.328165 159.300252 
L 218.610126 160.284008 
L 218.892086 162.499848 
L 219.737968 174.754101 
L 220.019929 175.593182 
L 220.301889 178.187428 
L 220.58385 182.08946 
L 220.865811 183.313051 
L 221.147771 182.291894 
L 221.429732 182.944262 
L 221.711692 184.328888 
L 221.993653 181.923924 
L 222.839535 160.986115 
L 223.403456 138.665911 
L 224.249338 104.222797 
L 224.813259 91.076332 
L 225.095219 87.669519 
L 225.37718 87.980651 
L 225.659141 91.278212 
L 225.941101 96.446831 
L 226.223062 105.619232 
L 227.350904 166.949686 
L 227.914825 175.908082 
L 228.196786 178.832366 
L 228.478746 180.366368 
L 228.760707 180.112818 
L 229.042668 178.928762 
L 229.324628 178.440225 
L 229.606589 179.491979 
L 230.45247 185.726344 
L 230.734431 186.973555 
L 231.016392 187.053179 
L 231.580313 185.424802 
L 231.862273 185.307686 
L 232.144234 184.47662 
L 232.426195 181.61551 
L 232.990116 171.538232 
L 233.554037 157.866335 
L 233.835998 154.703681 
L 234.117958 156.760434 
L 234.681879 168.843576 
L 235.2458 181.231704 
L 235.527761 181.287014 
L 235.809722 175.755909 
L 236.373643 156.192672 
L 237.501485 101.870661 
L 237.783446 95.082218 
L 238.065406 92.036553 
L 238.347367 91.197764 
L 238.629327 92.2184 
L 238.911288 96.200671 
L 239.193249 103.653989 
L 239.75717 128.152491 
L 240.321091 159.370644 
L 240.603052 169.129837 
L 240.885012 174.237511 
L 241.166973 176.979968 
L 241.448933 177.321634 
L 242.294815 169.201591 
L 242.576776 168.413922 
L 243.140697 165.933633 
L 243.422657 166.10831 
L 243.986579 168.470614 
L 244.83246 169.517532 
L 245.114421 168.661871 
L 245.396382 166.517305 
L 245.678342 165.309864 
L 245.960303 166.581727 
L 246.242263 168.386343 
L 246.524224 168.188494 
L 246.806184 167.623205 
L 247.088145 170.545125 
L 247.652066 182.174418 
L 248.215987 188.634793 
L 248.497948 193.10544 
L 248.779909 195.526526 
L 249.061869 193.357491 
L 249.34383 186.714178 
L 249.62579 175.573796 
L 250.471672 130.544033 
L 251.599514 99.532834 
L 252.163436 92.429812 
L 252.445396 92.746839 
L 252.727357 99.043193 
L 253.291278 126.974337 
L 254.13716 180.633437 
L 254.41912 188.218669 
L 254.701081 185.436432 
L 255.546963 155.601403 
L 255.828923 153.914216 
L 256.392844 165.842782 
L 256.674805 166.10498 
L 256.956766 164.349725 
L 257.238726 165.520154 
L 258.084608 174.671432 
L 258.366569 176.683336 
L 258.648529 175.872025 
L 259.21245 171.557419 
L 259.494411 169.966358 
L 260.058332 164.77071 
L 260.340293 164.10295 
L 260.622253 166.09986 
L 260.904214 171.245348 
L 261.468135 185.301856 
L 262.314017 199.026104 
L 262.595977 204.81317 
L 262.877938 207.105066 
L 263.159898 204.150936 
L 263.441859 196.021088 
L 264.287741 163.053417 
L 264.569701 154.569431 
L 265.133623 126.107069 
L 265.697544 99.681486 
L 266.261465 83.794759 
L 266.543425 78.137469 
L 266.825386 76.324451 
L 267.107347 78.888891 
L 267.389307 86.183467 
L 267.953228 115.315265 
L 268.51715 148.472022 
L 268.79911 159.019688 
L 269.081071 164.688085 
L 269.926953 173.827997 
L 270.208913 175.355477 
L 270.490874 175.683952 
L 270.772834 175.193183 
L 271.054795 174.404551 
L 271.336755 174.287767 
L 271.618716 174.951914 
L 271.900677 175.074746 
L 272.182637 173.955106 
L 273.028519 168.524695 
L 273.59244 165.377035 
L 273.874401 164.17867 
L 274.156361 163.518019 
L 274.438322 164.823385 
L 275.002243 169.249707 
L 275.284204 169.42389 
L 275.566164 169.942385 
L 276.694007 176.370813 
L 277.539888 184.611294 
L 278.10381 194.376931 
L 278.667731 203.943066 
L 279.231652 209.925982 
L 279.513612 208.388088 
L 279.795573 202.086942 
L 280.359494 179.817898 
L 282.333218 71.900175 
L 282.615179 68.17581 
L 282.897139 66.047781 
L 283.1791 66.869837 
L 283.461061 72.654671 
L 284.024982 96.234821 
L 285.152824 158.579139 
L 285.434785 166.024467 
L 285.716745 169.872262 
L 286.280667 173.481168 
L 286.562627 174.108961 
L 286.844588 172.983525 
L 287.126548 172.816153 
L 287.690469 177.069083 
L 288.254391 173.608608 
L 288.536351 173.677854 
L 288.818312 173.267745 
L 289.664194 165.358253 
L 290.228115 160.417956 
L 290.510075 159.956881 
L 291.073996 163.332784 
L 291.355957 163.420006 
L 291.637918 163.858626 
L 291.919878 165.139277 
L 292.201839 165.505433 
L 292.483799 164.362762 
L 292.76576 163.892636 
L 293.047721 165.969272 
L 294.457524 183.54397 
L 294.739484 184.850988 
L 295.021445 185.59984 
L 295.303405 188.025232 
L 295.867326 195.987397 
L 296.713208 216.063937 
L 296.995169 216.093163 
L 297.277129 215.400826 
L 297.55909 215.875117 
L 297.841051 213.037863 
L 298.123011 203.096709 
L 298.686932 168.884739 
L 299.814775 77.674697 
L 300.096735 67.055597 
L 300.378696 61.380921 
L 300.660656 60.282045 
L 300.942617 63.994832 
L 301.788499 85.691483 
L 302.070459 99.414477 
L 303.198302 174.055904 
L 303.480262 183.71403 
L 303.762223 188.121052 
L 304.044183 186.454602 
L 304.608105 171.958657 
L 305.172026 159.181653 
L 305.453986 157.895722 
L 305.735947 160.958727 
L 306.299868 171.115599 
L 306.581829 173.79555 
L 306.863789 174.7033 
L 307.14575 174.168242 
L 307.42771 171.759378 
L 308.273592 158.197873 
L 308.555553 156.861702 
L 308.837513 157.245852 
L 309.119474 158.800166 
L 310.247316 170.442986 
L 310.529277 171.538393 
L 311.093198 174.497372 
L 312.503001 179.68895 
L 313.066922 182.793083 
L 313.348883 185.613996 
L 314.194765 199.892619 
L 314.476725 203.067644 
L 314.758686 204.82179 
L 315.040646 202.255809 
L 315.322607 194.613534 
L 315.886528 168.652824 
L 316.73241 111.653846 
L 317.296331 88.291314 
L 317.860252 73.960873 
L 318.142213 70.297251 
L 318.424173 68.631195 
L 318.706134 71.943174 
L 319.270055 95.023207 
L 319.833976 127.891825 
L 320.397897 162.684026 
L 320.679858 170.728758 
L 320.961819 172.982232 
L 321.52574 174.942333 
L 321.8077 175.172051 
L 322.089661 175.024079 
L 322.371622 176.164235 
L 322.653582 178.067674 
L 322.935543 178.643813 
L 323.217503 178.054926 
L 323.781424 177.858178 
L 324.063385 175.52812 
L 324.627306 167.522981 
L 325.191227 163.215886 
L 325.473188 162.244088 
L 325.755149 162.574193 
L 326.31907 164.965738 
L 326.60103 167.534261 
L 327.446912 178.283539 
L 328.010833 183.303052 
L 329.420636 197.267131 
L 329.702597 197.070756 
L 330.266518 192.803715 
L 330.548479 189.625974 
L 330.830439 183.992939 
L 331.1124 174.398504 
L 331.958281 128.328932 
L 332.522203 101.010199 
L 333.086124 85.317343 
L 333.368084 81.949784 
L 333.650045 81.208328 
L 333.932006 83.132715 
L 334.213966 88.435329 
L 334.495927 98.043292 
L 335.059848 128.216563 
L 335.90573 172.256047 
L 336.18769 180.149587 
L 336.469651 183.709542 
L 336.751611 183.872582 
L 337.033572 181.712551 
L 337.597493 174.780025 
L 337.879454 173.113543 
L 338.161414 173.979291 
L 338.443375 176.194029 
L 338.725336 177.103575 
L 339.007296 174.968821 
L 339.571217 168.449907 
L 340.417099 166.454602 
L 340.69906 167.821711 
L 341.262981 176.800444 
L 341.544941 178.463726 
L 342.108863 177.775811 
L 342.390823 177.78198 
L 342.672784 177.938589 
L 342.954744 179.650059 
L 343.236705 184.527087 
L 344.082587 206.627854 
L 344.364547 208.785602 
L 344.646508 208.256332 
L 344.928468 206.081391 
L 345.210429 199.880524 
L 345.49239 186.416065 
L 346.620232 116.310293 
L 347.184153 89.753752 
L 348.030035 71.581937 
L 348.311995 69.403966 
L 348.593956 71.547564 
L 348.875917 77.384784 
L 349.157877 88.405749 
L 350.28572 155.669651 
L 350.849641 174.267408 
L 351.131601 178.26125 
L 351.413562 178.192779 
L 351.695523 177.119529 
L 352.259444 176.406773 
L 352.823365 172.747175 
L 353.105325 171.153572 
L 353.387286 170.507545 
L 353.669247 170.665844 
L 353.951207 171.48536 
L 354.515128 175.42575 
L 354.797089 177.252437 
L 355.07905 177.566384 
L 355.36101 177.301402 
L 355.642971 178.496457 
L 356.206892 183.013441 
L 356.488852 183.836017 
L 356.770813 186.42761 
L 357.616695 203.568419 
L 357.898655 205.655021 
L 358.180616 205.880848 
L 358.462577 203.139198 
L 358.744537 196.288639 
L 359.590419 162.24136 
L 360.718261 109.155921 
L 361.846104 71.125972 
L 362.128064 69.464831 
L 362.410025 71.989363 
L 362.691985 79.260156 
L 363.255907 107.720715 
L 364.101788 157.436128 
L 364.383749 166.179324 
L 364.665709 170.070285 
L 365.229631 174.57933 
L 365.793552 180.910403 
L 366.075512 182.718142 
L 366.357473 183.20799 
L 366.639434 183.293487 
L 366.921394 182.891357 
L 367.203355 180.848647 
L 367.485315 177.584978 
L 367.767276 175.6506 
L 368.049237 176.113727 
L 368.613158 178.952041 
L 368.895118 181.662094 
L 369.741 193.0472 
L 370.586882 212.115273 
L 370.868842 214.890868 
L 371.150803 216.102313 
L 371.432764 214.909425 
L 371.714724 208.912321 
L 372.278645 184.096367 
L 373.970409 89.506415 
L 374.53433 70.357099 
L 374.816291 64.184844 
L 375.098251 61.656454 
L 375.380212 64.444148 
L 375.662172 72.778647 
L 376.226094 100.506481 
L 377.353936 161.318664 
L 377.635896 170.756658 
L 377.917857 175.708902 
L 378.199818 177.559204 
L 378.763739 178.729986 
L 379.045699 180.01198 
L 379.891581 187.38358 
L 380.173542 187.075903 
L 380.737463 184.976848 
L 381.019423 185.340182 
L 381.583345 187.735481 
L 381.865305 188.076068 
L 382.147266 189.288887 
L 382.711187 196.843266 
L 383.275108 209.954117 
L 383.839029 224.392583 
L 384.12099 226.876108 
L 384.402951 227.03889 
L 384.684911 223.742676 
L 384.966872 214.353549 
L 385.530793 180.625795 
L 386.940596 75.153294 
L 387.504517 56.075935 
L 387.786478 53.454671 
L 388.068438 55.416247 
L 388.632359 63.654001 
L 388.91432 70.348285 
L 389.478241 97.393837 
L 390.606083 160.96485 
L 390.888044 169.027331 
L 391.451965 177.322076 
L 391.733926 183.021959 
L 392.015886 185.880528 
L 392.297847 185.213933 
L 392.579808 185.952787 
L 393.143729 193.706798 
L 393.425689 193.492468 
L 393.70765 191.929942 
L 393.98961 191.361164 
L 394.271571 190.455687 
L 394.835492 184.511877 
L 395.399413 176.775899 
L 396.245295 165.295118 
L 396.527256 163.943861 
L 396.809216 167.775232 
L 397.091177 178.248311 
L 398.219019 236.654396 
L 398.50098 241.71733 
L 398.78294 240.328335 
L 399.064901 231.99333 
L 399.346862 215.731231 
L 401.038625 82.02489 
L 401.884507 53.685213 
L 402.166467 50.60121 
L 402.448428 51.422263 
L 402.730389 55.35009 
L 403.012349 63.211515 
L 403.57627 90.443121 
L 404.422152 133.35073 
L 404.986073 154.24388 
L 405.268034 160.128156 
L 406.113916 169.675095 
L 406.395876 170.954237 
L 406.677837 171.102475 
L 406.959797 172.724099 
L 407.805679 183.334221 
L 408.08764 184.052893 
L 408.3696 183.861062 
L 408.651561 183.294073 
L 408.933522 183.21688 
L 410.061364 186.67081 
L 410.343324 188.916061 
L 410.907246 195.786104 
L 411.753127 202.188671 
L 412.88097 219.987406 
L 413.16293 222.36995 
L 413.444891 221.794826 
L 413.726851 218.763531 
L 414.008812 213.306097 
L 414.290773 203.238766 
L 415.136654 154.16649 
L 416.264497 83.158707 
L 417.110379 47.348802 
L 417.392339 47.636304 
L 417.95626 66.594532 
L 419.366063 119.682038 
L 419.929984 144.730318 
L 421.057827 180.037793 
L 421.339787 184.070864 
L 422.46763 191.394501 
L 422.74959 191.033705 
L 423.313511 189.428886 
L 423.595472 190.239941 
L 424.441354 197.817083 
L 425.005275 205.945428 
L 425.851157 221.021648 
L 427.26096 254.00343 
L 427.54292 254.016 
L 427.824881 248.920651 
L 428.106841 238.651353 
L 428.670763 203.973132 
L 429.516644 137.882698 
L 430.644487 71.894807 
L 432.05429 16.679466 
L 432.33625 12.096 
L 432.618211 13.670502 
L 432.900171 23.029797 
L 435.155856 152.192472 
L 435.437817 159.740513 
L 436.001738 167.374918 
L 436.565659 176.317812 
L 437.411541 192.50132 
L 437.975462 205.985526 
L 438.539383 214.12719 
L 438.821344 215.066501 
L 439.667225 211.714723 
L 439.949186 211.582037 
L 440.513107 213.637529 
L 440.795068 213.626989 
L 441.077028 214.210062 
L 441.358989 219.67969 
L 441.92291 239.155285 
L 442.204871 244.797576 
L 442.486831 248.16268 
L 442.768792 248.390846 
L 443.050752 241.510286 
L 443.614674 208.322186 
L 444.178595 160.99161 
L 445.024477 87.488056 
L 445.306437 72.796289 
L 445.588398 65.138749 
L 445.870358 63.009569 
L 446.152319 63.091206 
L 446.71624 63.651131 
L 446.998201 63.754154 
L 447.280161 64.531939 
L 447.562122 68.268796 
L 448.408004 92.806182 
L 450.381728 160.110619 
L 450.663688 163.441653 
L 450.945649 165.048114 
L 452.073491 176.230444 
L 452.637412 186.089371 
L 453.483294 194.429456 
L 453.765255 194.290648 
L 454.329176 189.308367 
L 454.611136 189.829908 
L 455.175058 192.737451 
L 455.457018 195.828202 
L 456.020939 206.444722 
L 456.3029 208.803334 
L 456.584861 208.89029 
L 456.866821 209.569241 
L 457.430742 215.085811 
L 458.276624 226.422734 
L 458.558585 226.976971 
L 458.840545 226.479936 
L 459.122506 224.358211 
L 459.404466 215.828102 
L 460.532309 145.693226 
L 461.378191 89.568015 
L 461.942112 67.052149 
L 462.224072 59.187415 
L 462.506033 54.859597 
L 462.787993 53.82391 
L 463.069954 55.41939 
L 463.351915 58.97198 
L 463.915836 70.719917 
L 464.761718 101.774192 
L 465.325639 123.269898 
L 465.88956 152.370578 
L 466.17152 161.575386 
L 467.299363 182.025348 
L 467.581323 181.297903 
L 467.863284 179.941756 
L 468.145245 180.686061 
L 468.709166 183.420891 
L 468.991126 184.726746 
L 469.273087 188.342543 
L 470.118969 205.348535 
L 470.68289 212.156113 
L 471.528772 219.843195 
L 472.092693 229.928066 
L 472.656614 236.132497 
L 472.938575 238.333368 
L 473.220535 238.392884 
L 473.502496 234.805345 
L 473.784456 226.558247 
L 474.348377 196.032108 
L 475.194259 129.554994 
L 475.75818 89.6054 
L 476.322102 65.976391 
L 476.604062 57.978029 
L 476.886023 53.193489 
L 477.167983 51.39852 
L 477.449944 52.742488 
L 477.731905 57.676043 
L 478.295826 73.609426 
L 478.859747 95.239877 
L 479.705629 129.979208 
L 480.26955 145.552422 
L 481.115432 162.344 
L 481.961313 173.150401 
L 482.525234 179.381103 
L 482.807195 181.0217 
L 483.089156 183.398497 
L 484.780919 205.107914 
L 485.34484 212.897558 
L 486.190722 223.343908 
L 486.754643 234.630995 
L 487.318564 246.445432 
L 487.600525 248.69541 
L 487.882486 247.290487 
L 488.164446 240.600503 
L 488.728367 211.320662 
L 489.574249 139.42716 
L 490.13817 95.164726 
L 490.702091 67.928685 
L 491.266013 53.861598 
L 491.547973 51.781375 
L 491.829934 54.546832 
L 492.957776 76.173993 
L 493.521697 91.48248 
L 494.085619 108.296231 
L 494.64954 121.454798 
L 495.213461 138.474109 
L 496.623264 163.477419 
L 497.187185 176.930519 
L 498.596988 196.605293 
L 500.006791 210.715809 
L 500.570712 213.373954 
L 500.852673 215.716971 
L 501.416594 225.955419 
L 501.980515 236.742313 
L 502.262476 240.507233 
L 502.544436 242.642353 
L 502.826397 241.326233 
L 503.108357 235.209686 
L 503.390318 223.904041 
L 503.954239 185.905715 
L 505.082081 99.947295 
L 505.646003 74.767242 
L 506.209924 60.667098 
L 506.491884 56.306789 
L 506.773845 56.924609 
L 507.619727 73.242994 
L 508.183648 87.828428 
L 510.439333 152.637137 
L 511.003254 163.845278 
L 511.285214 169.865829 
L 511.567175 173.257344 
L 512.131096 175.963291 
L 512.413057 179.237616 
L 513.540899 199.23314 
L 514.10482 208.763786 
L 514.668741 216.58611 
L 515.796584 241.541661 
L 516.078544 245.351065 
L 516.360505 246.721103 
L 516.642465 242.486666 
L 516.924426 231.398816 
L 517.488347 195.319999 
L 518.61619 110.766363 
L 519.180111 87.803629 
L 519.744032 73.750783 
L 520.025992 70.383906 
L 520.307953 71.497829 
L 520.871874 79.064256 
L 521.153835 85.998699 
L 522.281677 123.375562 
L 522.845598 140.382313 
L 523.409519 150.768513 
L 523.69148 153.050434 
L 523.973441 153.204532 
L 524.255401 153.53631 
L 524.819322 156.271392 
L 525.101283 157.53069 
L 525.665204 164.95638 
L 525.947165 165.37747 
L 526.229125 164.986599 
L 526.511086 169.7055 
L 527.075007 185.564843 
L 527.638928 195.117352 
L 528.202849 210.133489 
L 529.894613 241.773596 
L 530.176574 243.686512 
L 530.458534 241.687717 
L 530.740495 234.602783 
L 531.022455 222.204462 
L 531.586376 181.715016 
L 532.432258 108.228911 
L 532.714219 94.203786 
L 533.27814 83.39217 
L 533.560101 79.68087 
L 533.842061 77.712587 
L 534.124022 77.751644 
L 534.405982 78.096583 
L 534.687943 80.008459 
L 535.815785 103.455139 
L 536.661667 128.980406 
L 537.789509 151.36748 
L 539.199312 167.810807 
L 539.481273 169.620091 
L 539.763233 169.347543 
L 540.045194 169.340196 
L 540.609115 171.660081 
L 540.891076 172.039308 
L 541.173036 174.405396 
L 542.300879 194.407484 
L 542.582839 200.466715 
L 543.428721 211.635516 
L 544.274603 233.266235 
L 544.838524 243.828341 
L 545.120485 245.804592 
L 545.402445 242.963563 
L 545.684406 234.405022 
L 545.966366 219.780932 
L 546.530288 173.724674 
L 547.094209 124.831703 
L 547.65813 96.389357 
L 548.222051 81.636202 
L 548.504012 77.025945 
L 548.785972 74.513061 
L 549.067933 72.99797 
L 549.349893 72.256775 
L 549.631854 74.227607 
L 549.913815 80.855436 
L 551.605578 137.68618 
L 552.169499 146.463943 
L 552.73342 154.151994 
L 553.297342 157.845256 
L 553.579302 160.139811 
L 553.861263 161.01614 
L 554.143223 161.01359 
L 554.425184 163.043831 
L 554.989105 170.005718 
L 555.271066 172.643493 
L 556.680869 190.615272 
L 557.24479 196.445631 
L 557.808711 207.256583 
L 558.654593 222.332972 
L 558.936553 224.975663 
L 559.218514 222.718284 
L 559.500475 215.098296 
L 560.064396 186.904234 
L 560.910277 138.509899 
L 561.474199 119.344824 
L 562.03812 110.553759 
L 562.884002 99.519654 
L 563.165962 99.796491 
L 563.447923 102.119222 
L 563.729883 106.36709 
L 564.293804 121.72722 
L 565.139686 145.631257 
L 565.421647 150.941566 
L 565.703607 152.633967 
L 565.985568 152.948559 
L 566.267529 155.410496 
L 566.83145 168.189419 
L 567.11341 174.605113 
L 567.395371 177.815918 
L 567.677332 178.447266 
L 567.959292 179.993935 
L 568.241253 182.546298 
L 568.523213 182.409221 
L 569.933016 162.123956 
L 570.214977 161.980105 
L 571.62478 190.511935 
L 572.188701 204.148566 
L 572.752622 212.322696 
L 573.034583 212.112743 
L 573.316543 204.804308 
L 573.880464 178.09489 
L 575.008307 113.234225 
L 575.290267 108.38353 
L 576.136149 101.473538 
L 576.70007 97.361339 
L 576.982031 98.399627 
L 577.827913 113.283952 
L 578.391834 125.438474 
L 579.237716 146.615959 
L 579.801637 156.461061 
L 580.083597 158.633719 
L 580.647518 159.963171 
L 581.21144 162.172104 
L 581.4934 163.240234 
L 582.339282 169.494358 
L 582.621243 169.115935 
L 582.903203 167.554964 
L 583.185164 166.713584 
L 583.467124 167.999277 
L 584.876927 185.103266 
L 585.440848 196.359267 
L 586.00477 210.177156 
L 586.28673 214.406561 
L 587.132612 221.7585 
L 587.414573 221.676184 
L 587.696533 216.90661 
L 588.260454 197.58747 
L 588.824375 163.024122 
L 589.388297 128.725895 
L 589.952218 108.279689 
L 590.516139 97.032461 
L 590.7981 93.400912 
L 591.08006 91.25616 
L 591.362021 91.74309 
L 591.925942 97.298428 
L 592.207903 101.887467 
L 593.899666 144.693317 
L 594.463587 151.770858 
L 594.745548 153.247719 
L 595.027508 153.538284 
L 595.309469 152.776628 
L 595.59143 152.472609 
L 595.87339 154.069955 
L 596.437311 160.366356 
L 596.719272 161.117887 
L 597.001232 161.279634 
L 597.847114 166.443606 
L 598.129075 167.561593 
L 598.692996 176.031704 
L 599.256917 182.37926 
L 600.38476 193.894071 
L 601.230641 207.30245 
L 601.794562 210.652581 
L 602.076523 209.298694 
L 602.358484 202.987585 
L 602.922405 179.132457 
L 603.768287 137.306357 
L 604.050247 130.009108 
L 604.614168 123.876619 
L 605.178089 117.737022 
L 605.742011 110.652913 
L 606.023971 109.154694 
L 606.305932 109.449073 
L 606.587892 111.578447 
L 607.715735 127.543731 
L 609.125538 166.071549 
L 609.407498 170.053456 
L 609.689459 170.132496 
L 609.971419 168.786132 
L 610.25338 168.204285 
L 610.535341 166.199785 
L 611.099262 159.275843 
L 611.381222 159.970407 
L 611.945144 168.48939 
L 612.509065 176.747973 
L 613.636907 186.091986 
L 614.200828 194.008745 
L 615.04671 206.255388 
L 615.328671 206.958679 
L 615.610631 203.305915 
L 615.892592 195.620571 
L 616.456513 169.585745 
L 617.020434 141.497923 
L 617.302395 134.789998 
L 617.866316 130.4767 
L 618.994158 113.30285 
L 619.558079 108.823083 
L 619.84004 111.410986 
L 620.685922 132.300213 
L 621.531803 152.041831 
L 622.095725 158.681605 
L 622.659646 163.136979 
L 623.505528 167.002374 
L 623.787488 168.996859 
L 624.069449 169.915073 
L 624.351409 169.941867 
L 624.63337 168.982592 
L 624.915331 168.471112 
L 625.479252 164.574999 
L 625.761212 163.91767 
L 626.325133 173.368501 
L 626.889055 182.554639 
L 627.734936 205.848114 
L 628.298858 210.068496 
L 628.580818 210.450772 
L 628.862779 207.355989 
L 629.4267 186.602581 
L 630.554542 131.550183 
L 630.836503 123.792228 
L 631.400424 115.176368 
L 631.682385 113.440868 
L 631.964345 109.625297 
L 632.246306 109.020048 
L 632.528266 106.078988 
L 632.810227 109.960263 
L 633.092188 109.274696 
L 633.092188 109.274696 
" clip-path="url(#p7c1d75d7fc)" style="fill: none; stroke: #1f77b4; stroke-width: 1.5; stroke-linecap: square"/>
   </g>
   <g id="patch_3">
    <path d="M 47.192188 266.112 
L 47.192188 0 
" style="fill: none; stroke: #808080; stroke-width: 0.8; stroke-linejoin: miter; stroke-linecap: square"/>
   </g>
   <g id="patch_4">
    <path d="M 660.992188 266.112 
L 660.992188 0 
" style="fill: none; stroke: #000000; stroke-width: 0.8; stroke-linejoin: miter; stroke-linecap: square"/>
   </g>
   <g id="patch_5">
    <path d="M 47.192188 266.112 
L 660.992188 266.112 
" style="fill: none; stroke: #808080; stroke-width: 0.8; stroke-linejoin: miter; stroke-linecap: square"/>
   </g>
   <g id="patch_6">
    <path d="M 47.192188 0 
L 660.992188 0 
" style="fill: none; stroke: #000000; stroke-width: 0.8; stroke-linejoin: miter; stroke-linecap: square"/>
   </g>
  </g>
 </g>
 <defs>
  <clipPath id="p7c1d75d7fc">
   <rect x="47.192188" y="0" width="613.8" height="266.112"/>
  </clipPath>
 </defs>
</svg>
