<?xml version="1.0" encoding="utf-8" standalone="no"?>
<!DOCTYPE svg PUBLIC "-//W3C//DTD SVG 1.1//EN"
  "http://www.w3.org/Graphics/SVG/1.1/DTD/svg11.dtd">
<svg xmlns:xlink="http://www.w3.org/1999/xlink" width="660.992188pt" height="282.790125pt" viewBox="0 0 660.992188 282.790125" xmlns="http://www.w3.org/2000/svg" version="1.1">
 <metadata>
  <rdf:RDF xmlns:dc="http://purl.org/dc/elements/1.1/" xmlns:cc="http://creativecommons.org/ns#" xmlns:rdf="http://www.w3.org/1999/02/22-rdf-syntax-ns#">
   <cc:Work>
    <dc:type rdf:resource="http://purl.org/dc/dcmitype/StillImage"/>
    <dc:date>2023-03-06T21:29:45.200821</dc:date>
    <dc:format>image/svg+xml</dc:format>
    <dc:creator>
     <cc:Agent>
      <dc:title>Matplotlib v3.6.3, https://matplotlib.org/</dc:title>
     </cc:Agent>
    </dc:creator>
   </cc:Work>
  </rdf:RDF>
 </metadata>
 <defs>
  <style type="text/css">*{stroke-linejoin: round; stroke-linecap: butt}</style>
 </defs>
 <g id="figure_1">
  <g id="patch_1">
   <path d="M -0 282.790125 
L 660.992188 282.790125 
L 660.992188 0 
L -0 0 
L -0 282.790125 
z
" style="fill: none"/>
  </g>
  <g id="axes_1">
   <g id="patch_2">
    <path d="M 47.192188 266.112 
L 660.992188 266.112 
L 660.992188 0 
L 47.192188 0 
L 47.192188 266.112 
z
" style="fill: none"/>
   </g>
   <g id="matplotlib.axis_1">
    <g id="xtick_1">
     <g id="line2d_1">
      <defs>
       <path id="m304d4abab4" d="M 0 0 
L 0 3.5 
" style="stroke: #808080; stroke-width: 0.8"/>
      </defs>
      <g>
       <use xlink:href="#m304d4abab4" x="75.092188" y="266.112" style="fill: #808080; stroke: #808080; stroke-width: 0.8"/>
      </g>
     </g>
     <g id="text_1">
      <!-- 0 -->
      <g style="fill: #808080" transform="translate(71.910938 280.710438) scale(0.1 -0.1)">
       <defs>
        <path id="DejaVuSans-30" d="M 2034 4250 
Q 1547 4250 1301 3770 
Q 1056 3291 1056 2328 
Q 1056 1369 1301 889 
Q 1547 409 2034 409 
Q 2525 409 2770 889 
Q 3016 1369 3016 2328 
Q 3016 3291 2770 3770 
Q 2525 4250 2034 4250 
z
M 2034 4750 
Q 2819 4750 3233 4129 
Q 3647 3509 3647 2328 
Q 3647 1150 3233 529 
Q 2819 -91 2034 -91 
Q 1250 -91 836 529 
Q 422 1150 422 2328 
Q 422 3509 836 4129 
Q 1250 4750 2034 4750 
z
" transform="scale(0.015625)"/>
       </defs>
       <use xlink:href="#DejaVuSans-30"/>
      </g>
     </g>
    </g>
    <g id="xtick_2">
     <g id="line2d_2">
      <g>
       <use xlink:href="#m304d4abab4" x="144.842188" y="266.112" style="fill: #808080; stroke: #808080; stroke-width: 0.8"/>
      </g>
     </g>
     <g id="text_2">
      <!-- 500 -->
      <g style="fill: #808080" transform="translate(135.298438 280.710438) scale(0.1 -0.1)">
       <defs>
        <path id="DejaVuSans-35" d="M 691 4666 
L 3169 4666 
L 3169 4134 
L 1269 4134 
L 1269 2991 
Q 1406 3038 1543 3061 
Q 1681 3084 1819 3084 
Q 2600 3084 3056 2656 
Q 3513 2228 3513 1497 
Q 3513 744 3044 326 
Q 2575 -91 1722 -91 
Q 1428 -91 1123 -41 
Q 819 9 494 109 
L 494 744 
Q 775 591 1075 516 
Q 1375 441 1709 441 
Q 2250 441 2565 725 
Q 2881 1009 2881 1497 
Q 2881 1984 2565 2268 
Q 2250 2553 1709 2553 
Q 1456 2553 1204 2497 
Q 953 2441 691 2322 
L 691 4666 
z
" transform="scale(0.015625)"/>
       </defs>
       <use xlink:href="#DejaVuSans-35"/>
       <use xlink:href="#DejaVuSans-30" x="63.623047"/>
       <use xlink:href="#DejaVuSans-30" x="127.246094"/>
      </g>
     </g>
    </g>
    <g id="xtick_3">
     <g id="line2d_3">
      <g>
       <use xlink:href="#m304d4abab4" x="214.592188" y="266.112" style="fill: #808080; stroke: #808080; stroke-width: 0.8"/>
      </g>
     </g>
     <g id="text_3">
      <!-- 1000 -->
      <g style="fill: #808080" transform="translate(201.867188 280.710438) scale(0.1 -0.1)">
       <defs>
        <path id="DejaVuSans-31" d="M 794 531 
L 1825 531 
L 1825 4091 
L 703 3866 
L 703 4441 
L 1819 4666 
L 2450 4666 
L 2450 531 
L 3481 531 
L 3481 0 
L 794 0 
L 794 531 
z
" transform="scale(0.015625)"/>
       </defs>
       <use xlink:href="#DejaVuSans-31"/>
       <use xlink:href="#DejaVuSans-30" x="63.623047"/>
       <use xlink:href="#DejaVuSans-30" x="127.246094"/>
       <use xlink:href="#DejaVuSans-30" x="190.869141"/>
      </g>
     </g>
    </g>
    <g id="xtick_4">
     <g id="line2d_4">
      <g>
       <use xlink:href="#m304d4abab4" x="284.342188" y="266.112" style="fill: #808080; stroke: #808080; stroke-width: 0.8"/>
      </g>
     </g>
     <g id="text_4">
      <!-- 1500 -->
      <g style="fill: #808080" transform="translate(271.617188 280.710438) scale(0.1 -0.1)">
       <use xlink:href="#DejaVuSans-31"/>
       <use xlink:href="#DejaVuSans-35" x="63.623047"/>
       <use xlink:href="#DejaVuSans-30" x="127.246094"/>
       <use xlink:href="#DejaVuSans-30" x="190.869141"/>
      </g>
     </g>
    </g>
    <g id="xtick_5">
     <g id="line2d_5">
      <g>
       <use xlink:href="#m304d4abab4" x="354.092188" y="266.112" style="fill: #808080; stroke: #808080; stroke-width: 0.8"/>
      </g>
     </g>
     <g id="text_5">
      <!-- 2000 -->
      <g style="fill: #808080" transform="translate(341.367188 280.710438) scale(0.1 -0.1)">
       <defs>
        <path id="DejaVuSans-32" d="M 1228 531 
L 3431 531 
L 3431 0 
L 469 0 
L 469 531 
Q 828 903 1448 1529 
Q 2069 2156 2228 2338 
Q 2531 2678 2651 2914 
Q 2772 3150 2772 3378 
Q 2772 3750 2511 3984 
Q 2250 4219 1831 4219 
Q 1534 4219 1204 4116 
Q 875 4013 500 3803 
L 500 4441 
Q 881 4594 1212 4672 
Q 1544 4750 1819 4750 
Q 2544 4750 2975 4387 
Q 3406 4025 3406 3419 
Q 3406 3131 3298 2873 
Q 3191 2616 2906 2266 
Q 2828 2175 2409 1742 
Q 1991 1309 1228 531 
z
" transform="scale(0.015625)"/>
       </defs>
       <use xlink:href="#DejaVuSans-32"/>
       <use xlink:href="#DejaVuSans-30" x="63.623047"/>
       <use xlink:href="#DejaVuSans-30" x="127.246094"/>
       <use xlink:href="#DejaVuSans-30" x="190.869141"/>
      </g>
     </g>
    </g>
    <g id="xtick_6">
     <g id="line2d_6">
      <g>
       <use xlink:href="#m304d4abab4" x="423.842188" y="266.112" style="fill: #808080; stroke: #808080; stroke-width: 0.8"/>
      </g>
     </g>
     <g id="text_6">
      <!-- 2500 -->
      <g style="fill: #808080" transform="translate(411.117188 280.710438) scale(0.1 -0.1)">
       <use xlink:href="#DejaVuSans-32"/>
       <use xlink:href="#DejaVuSans-35" x="63.623047"/>
       <use xlink:href="#DejaVuSans-30" x="127.246094"/>
       <use xlink:href="#DejaVuSans-30" x="190.869141"/>
      </g>
     </g>
    </g>
    <g id="xtick_7">
     <g id="line2d_7">
      <g>
       <use xlink:href="#m304d4abab4" x="493.592188" y="266.112" style="fill: #808080; stroke: #808080; stroke-width: 0.8"/>
      </g>
     </g>
     <g id="text_7">
      <!-- 3000 -->
      <g style="fill: #808080" transform="translate(480.867188 280.710438) scale(0.1 -0.1)">
       <defs>
        <path id="DejaVuSans-33" d="M 2597 2516 
Q 3050 2419 3304 2112 
Q 3559 1806 3559 1356 
Q 3559 666 3084 287 
Q 2609 -91 1734 -91 
Q 1441 -91 1130 -33 
Q 819 25 488 141 
L 488 750 
Q 750 597 1062 519 
Q 1375 441 1716 441 
Q 2309 441 2620 675 
Q 2931 909 2931 1356 
Q 2931 1769 2642 2001 
Q 2353 2234 1838 2234 
L 1294 2234 
L 1294 2753 
L 1863 2753 
Q 2328 2753 2575 2939 
Q 2822 3125 2822 3475 
Q 2822 3834 2567 4026 
Q 2313 4219 1838 4219 
Q 1578 4219 1281 4162 
Q 984 4106 628 3988 
L 628 4550 
Q 988 4650 1302 4700 
Q 1616 4750 1894 4750 
Q 2613 4750 3031 4423 
Q 3450 4097 3450 3541 
Q 3450 3153 3228 2886 
Q 3006 2619 2597 2516 
z
" transform="scale(0.015625)"/>
       </defs>
       <use xlink:href="#DejaVuSans-33"/>
       <use xlink:href="#DejaVuSans-30" x="63.623047"/>
       <use xlink:href="#DejaVuSans-30" x="127.246094"/>
       <use xlink:href="#DejaVuSans-30" x="190.869141"/>
      </g>
     </g>
    </g>
    <g id="xtick_8">
     <g id="line2d_8">
      <g>
       <use xlink:href="#m304d4abab4" x="563.342188" y="266.112" style="fill: #808080; stroke: #808080; stroke-width: 0.8"/>
      </g>
     </g>
     <g id="text_8">
      <!-- 3500 -->
      <g style="fill: #808080" transform="translate(550.617188 280.710438) scale(0.1 -0.1)">
       <use xlink:href="#DejaVuSans-33"/>
       <use xlink:href="#DejaVuSans-35" x="63.623047"/>
       <use xlink:href="#DejaVuSans-30" x="127.246094"/>
       <use xlink:href="#DejaVuSans-30" x="190.869141"/>
      </g>
     </g>
    </g>
    <g id="xtick_9">
     <g id="line2d_9">
      <g>
       <use xlink:href="#m304d4abab4" x="633.092188" y="266.112" style="fill: #808080; stroke: #808080; stroke-width: 0.8"/>
      </g>
     </g>
     <g id="text_9">
      <!-- 4000 -->
      <g style="fill: #808080" transform="translate(620.367188 280.710438) scale(0.1 -0.1)">
       <defs>
        <path id="DejaVuSans-34" d="M 2419 4116 
L 825 1625 
L 2419 1625 
L 2419 4116 
z
M 2253 4666 
L 3047 4666 
L 3047 1625 
L 3713 1625 
L 3713 1100 
L 3047 1100 
L 3047 0 
L 2419 0 
L 2419 1100 
L 313 1100 
L 313 1709 
L 2253 4666 
z
" transform="scale(0.015625)"/>
       </defs>
       <use xlink:href="#DejaVuSans-34"/>
       <use xlink:href="#DejaVuSans-30" x="63.623047"/>
       <use xlink:href="#DejaVuSans-30" x="127.246094"/>
       <use xlink:href="#DejaVuSans-30" x="190.869141"/>
      </g>
     </g>
    </g>
   </g>
   <g id="matplotlib.axis_2">
    <g id="ytick_1">
     <g id="line2d_10">
      <defs>
       <path id="m878acb3d04" d="M 0 0 
L -3.5 0 
" style="stroke: #808080; stroke-width: 0.8"/>
      </defs>
      <g>
       <use xlink:href="#m878acb3d04" x="47.192188" y="262.439677" style="fill: #808080; stroke: #808080; stroke-width: 0.8"/>
      </g>
     </g>
     <g id="text_10">
      <!-- −15000 -->
      <g style="fill: #808080" transform="translate(0 266.238896) scale(0.1 -0.1)">
       <defs>
        <path id="DejaVuSans-2212" d="M 678 2272 
L 4684 2272 
L 4684 1741 
L 678 1741 
L 678 2272 
z
" transform="scale(0.015625)"/>
       </defs>
       <use xlink:href="#DejaVuSans-2212"/>
       <use xlink:href="#DejaVuSans-31" x="83.789062"/>
       <use xlink:href="#DejaVuSans-35" x="147.412109"/>
       <use xlink:href="#DejaVuSans-30" x="211.035156"/>
       <use xlink:href="#DejaVuSans-30" x="274.658203"/>
       <use xlink:href="#DejaVuSans-30" x="338.28125"/>
      </g>
     </g>
    </g>
    <g id="ytick_2">
     <g id="line2d_11">
      <g>
       <use xlink:href="#m878acb3d04" x="47.192188" y="221.132007" style="fill: #808080; stroke: #808080; stroke-width: 0.8"/>
      </g>
     </g>
     <g id="text_11">
      <!-- −10000 -->
      <g style="fill: #808080" transform="translate(0 224.931226) scale(0.1 -0.1)">
       <use xlink:href="#DejaVuSans-2212"/>
       <use xlink:href="#DejaVuSans-31" x="83.789062"/>
       <use xlink:href="#DejaVuSans-30" x="147.412109"/>
       <use xlink:href="#DejaVuSans-30" x="211.035156"/>
       <use xlink:href="#DejaVuSans-30" x="274.658203"/>
       <use xlink:href="#DejaVuSans-30" x="338.28125"/>
      </g>
     </g>
    </g>
    <g id="ytick_3">
     <g id="line2d_12">
      <g>
       <use xlink:href="#m878acb3d04" x="47.192188" y="179.824338" style="fill: #808080; stroke: #808080; stroke-width: 0.8"/>
      </g>
     </g>
     <g id="text_12">
      <!-- −5000 -->
      <g style="fill: #808080" transform="translate(6.3625 183.623556) scale(0.1 -0.1)">
       <use xlink:href="#DejaVuSans-2212"/>
       <use xlink:href="#DejaVuSans-35" x="83.789062"/>
       <use xlink:href="#DejaVuSans-30" x="147.412109"/>
       <use xlink:href="#DejaVuSans-30" x="211.035156"/>
       <use xlink:href="#DejaVuSans-30" x="274.658203"/>
      </g>
     </g>
    </g>
    <g id="ytick_4">
     <g id="line2d_13">
      <g>
       <use xlink:href="#m878acb3d04" x="47.192188" y="138.516668" style="fill: #808080; stroke: #808080; stroke-width: 0.8"/>
      </g>
     </g>
     <g id="text_13">
      <!-- 0 -->
      <g style="fill: #808080" transform="translate(33.829688 142.315887) scale(0.1 -0.1)">
       <use xlink:href="#DejaVuSans-30"/>
      </g>
     </g>
    </g>
    <g id="ytick_5">
     <g id="line2d_14">
      <g>
       <use xlink:href="#m878acb3d04" x="47.192188" y="97.208999" style="fill: #808080; stroke: #808080; stroke-width: 0.8"/>
      </g>
     </g>
     <g id="text_14">
      <!-- 5000 -->
      <g style="fill: #808080" transform="translate(14.742188 101.008217) scale(0.1 -0.1)">
       <use xlink:href="#DejaVuSans-35"/>
       <use xlink:href="#DejaVuSans-30" x="63.623047"/>
       <use xlink:href="#DejaVuSans-30" x="127.246094"/>
       <use xlink:href="#DejaVuSans-30" x="190.869141"/>
      </g>
     </g>
    </g>
    <g id="ytick_6">
     <g id="line2d_15">
      <g>
       <use xlink:href="#m878acb3d04" x="47.192188" y="55.901329" style="fill: #808080; stroke: #808080; stroke-width: 0.8"/>
      </g>
     </g>
     <g id="text_15">
      <!-- 10000 -->
      <g style="fill: #808080" transform="translate(8.379688 59.700548) scale(0.1 -0.1)">
       <use xlink:href="#DejaVuSans-31"/>
       <use xlink:href="#DejaVuSans-30" x="63.623047"/>
       <use xlink:href="#DejaVuSans-30" x="127.246094"/>
       <use xlink:href="#DejaVuSans-30" x="190.869141"/>
       <use xlink:href="#DejaVuSans-30" x="254.492188"/>
      </g>
     </g>
    </g>
    <g id="ytick_7">
     <g id="line2d_16">
      <g>
       <use xlink:href="#m878acb3d04" x="47.192188" y="14.593659" style="fill: #808080; stroke: #808080; stroke-width: 0.8"/>
      </g>
     </g>
     <g id="text_16">
      <!-- 15000 -->
      <g style="fill: #808080" transform="translate(8.379688 18.392878) scale(0.1 -0.1)">
       <use xlink:href="#DejaVuSans-31"/>
       <use xlink:href="#DejaVuSans-35" x="63.623047"/>
       <use xlink:href="#DejaVuSans-30" x="127.246094"/>
       <use xlink:href="#DejaVuSans-30" x="190.869141"/>
       <use xlink:href="#DejaVuSans-30" x="254.492188"/>
      </g>
     </g>
    </g>
   </g>
   <g id="line2d_17">
    <path d="M 75.092188 138.548046 
L 75.374148 138.484276 
L 75.656109 138.550092 
L 75.938069 138.482189 
L 76.22003 138.552231 
L 76.50199 138.479989 
L 76.783951 138.554501 
L 77.065912 138.477638 
L 77.347872 138.556944 
L 77.629833 138.475093 
L 77.911793 138.559603 
L 78.193754 138.472308 
L 78.475715 138.562527 
L 78.757675 138.46923 
L 79.039636 138.565775 
L 79.321596 138.465793 
L 79.603557 138.569421 
L 79.885517 138.461916 
L 80.167478 138.573555 
L 80.449439 138.457496 
L 80.731399 138.578296 
L 81.01336 138.452395 
L 81.29532 138.583801 
L 81.577281 138.446433 
L 81.859242 138.590283 
L 82.141202 138.439357 
L 82.423163 138.598039 
L 82.705123 138.430814 
L 82.987084 138.607499 
L 83.269044 138.420279 
L 83.551005 138.619307 
L 83.832966 138.406951 
L 84.114926 138.634472 
L 84.396887 138.389537 
L 84.678847 138.65468 
L 84.960808 138.3658 
L 85.242769 138.682961 
L 85.524729 138.331524 
L 85.80669 138.725369 
L 86.08865 138.277695 
L 86.370611 138.795961 
L 86.652572 138.181057 
L 86.934532 138.936328 
L 87.216493 137.958608 
L 87.498453 139.342503 
L 87.780414 136.981515 
L 88.062374 145.11799 
L 88.344335 163.804077 
L 88.626296 165.684669 
L 88.908256 170.770451 
L 89.190217 173.275757 
L 89.472177 174.197236 
L 89.754138 168.161754 
L 90.036099 156.107651 
L 91.163941 70.150447 
L 92.009823 50.955692 
L 92.291783 52.786909 
L 92.855704 64.007605 
L 93.137665 71.988421 
L 93.701586 102.029017 
L 94.547468 149.44214 
L 94.829429 161.545534 
L 95.111389 168.274751 
L 95.39335 167.541706 
L 95.67531 164.330797 
L 96.239231 160.828121 
L 96.803153 150.590104 
L 97.085113 149.418136 
L 97.367074 148.957112 
L 97.649034 147.35152 
L 97.930995 147.649482 
L 98.212956 148.281658 
L 98.494916 147.60906 
L 98.776877 148.664494 
L 99.058837 152.792984 
L 99.340798 154.307919 
L 99.622758 152.810896 
L 99.904719 152.415258 
L 100.18668 152.256082 
L 101.032561 139.6215 
L 101.596483 136.58603 
L 101.878443 136.246469 
L 102.160404 138.868588 
L 102.724325 149.097532 
L 103.288246 152.085252 
L 103.570207 156.326708 
L 103.852167 157.304584 
L 104.416088 146.705035 
L 104.98001 154.055501 
L 105.26197 152.94748 
L 105.543931 152.701929 
L 106.389813 167.038992 
L 107.235694 172.94169 
L 107.517655 176.859121 
L 108.081576 188.54574 
L 108.645497 191.377134 
L 108.927458 190.817073 
L 109.209418 184.969591 
L 109.491379 174.850893 
L 109.77334 159.321766 
L 110.337261 92.899152 
L 110.619221 61.857848 
L 110.901182 48.873342 
L 111.747064 41.01188 
L 112.029024 41.919082 
L 112.592945 49.809095 
L 112.874906 51.130091 
L 113.156867 54.111409 
L 113.438827 63.394556 
L 115.130591 153.274443 
L 115.412551 155.087766 
L 115.694512 155.245864 
L 115.976472 155.172061 
L 116.258433 149.309073 
L 116.540394 140.573015 
L 116.822354 138.46534 
L 117.104315 142.420964 
L 117.386275 143.226363 
L 117.668236 141.054152 
L 117.950197 143.154027 
L 118.232157 148.818094 
L 118.514118 150.561825 
L 119.078039 146.293793 
L 119.64196 147.629414 
L 120.205881 147.539529 
L 120.487842 146.253417 
L 120.769802 144.009297 
L 121.051763 143.839546 
L 121.333724 144.38409 
L 121.615684 141.209065 
L 121.897645 135.704374 
L 122.179605 133.879006 
L 122.461566 135.225158 
L 122.743527 135.558184 
L 123.025487 136.153584 
L 123.589408 143.675001 
L 123.871369 142.829464 
L 124.153329 139.904715 
L 124.43529 139.051878 
L 124.717251 140.276212 
L 125.563132 147.144807 
L 125.845093 147.571051 
L 126.127054 147.792587 
L 126.409014 147.445582 
L 126.690975 145.722363 
L 126.972935 144.688958 
L 127.536857 147.937028 
L 127.818817 146.944015 
L 128.100778 147.653368 
L 128.946659 162.433307 
L 129.792541 172.66485 
L 130.074502 174.601343 
L 130.638423 187.154355 
L 130.920384 186.148511 
L 131.202344 181.243682 
L 131.484305 174.335685 
L 131.766265 155.81895 
L 132.612147 58.133831 
L 132.894108 47.721366 
L 133.176068 44.465849 
L 133.458029 43.94161 
L 133.739989 44.206365 
L 134.02195 45.197258 
L 134.303911 48.848663 
L 135.149792 68.380756 
L 135.431753 80.787544 
L 136.277635 132.396095 
L 136.841556 155.292621 
L 137.123516 159.761576 
L 137.405477 160.397346 
L 137.687438 159.575923 
L 137.969398 157.304715 
L 138.533319 151.733226 
L 140.225083 140.358224 
L 140.507043 140.002046 
L 140.789004 137.219245 
L 141.070965 131.37043 
L 141.352925 127.883078 
L 141.634886 129.14568 
L 141.916846 131.169786 
L 142.198807 131.497973 
L 142.480768 132.783888 
L 143.326649 144.11299 
L 143.890571 153.289135 
L 144.172531 154.454014 
L 144.454492 154.426287 
L 145.018413 156.262184 
L 145.582334 154.99022 
L 146.428216 156.146003 
L 147.274098 161.105833 
L 147.556058 162.047532 
L 148.119979 166.492487 
L 148.40194 167.490882 
L 148.6839 170.399821 
L 149.247822 179.037528 
L 150.093703 184.193773 
L 150.375664 183.856912 
L 150.657625 183.938178 
L 150.939585 183.550451 
L 151.221546 176.261674 
L 151.503506 156.939457 
L 152.349388 74.359723 
L 152.631349 61.970811 
L 152.913309 55.99407 
L 153.19527 53.711391 
L 153.47723 53.545972 
L 153.759191 53.962159 
L 154.041152 55.960865 
L 154.887033 72.45006 
L 155.450955 94.479975 
L 156.578797 135.934101 
L 156.860757 141.18623 
L 157.424679 145.000389 
L 157.706639 143.783846 
L 157.9886 140.252645 
L 158.27056 138.810648 
L 158.552521 139.557162 
L 158.834482 139.672754 
L 159.116442 139.544581 
L 159.962324 143.973384 
L 160.244285 142.928098 
L 160.526245 143.667254 
L 161.090166 149.174721 
L 161.654087 145.727346 
L 161.936048 148.945098 
L 162.218009 153.82867 
L 162.499969 156.091179 
L 162.78193 156.774879 
L 163.06389 157.071614 
L 163.627812 154.648109 
L 164.191733 157.036883 
L 164.755654 155.558205 
L 165.037614 156.915484 
L 165.319575 158.890729 
L 165.601536 159.460709 
L 165.883496 158.964904 
L 166.165457 159.450974 
L 166.729378 165.024732 
L 167.011339 164.34628 
L 167.293299 161.189441 
L 167.57526 161.086629 
L 168.139181 169.093609 
L 168.421142 171.114534 
L 168.703102 175.13102 
L 169.267023 187.047471 
L 170.112905 195.537088 
L 170.394866 195.561553 
L 170.676826 196.919452 
L 170.958787 197.441784 
L 171.240747 184.232937 
L 172.086629 93.619909 
L 172.932511 46.970021 
L 173.496432 37.673987 
L 173.778393 35.266854 
L 174.060353 36.725499 
L 174.624274 44.266434 
L 174.906235 51.599057 
L 175.470156 73.623841 
L 176.034077 107.69163 
L 176.597999 140.682059 
L 177.16192 154.141701 
L 177.44388 158.753053 
L 177.725841 158.236538 
L 178.007801 154.077351 
L 178.289762 151.657985 
L 178.571723 151.666489 
L 178.853683 150.413752 
L 179.135644 148.567089 
L 179.417604 150.152242 
L 179.699565 154.293245 
L 179.981526 155.842484 
L 180.545447 151.974986 
L 180.827407 151.68221 
L 181.109368 149.612861 
L 181.673289 140.118359 
L 181.95525 140.746483 
L 182.23721 142.540289 
L 182.519171 141.777426 
L 182.801131 142.053796 
L 183.365053 149.891435 
L 183.647013 149.533033 
L 183.928974 150.037099 
L 184.492895 155.588808 
L 184.774856 155.974066 
L 185.056816 158.144389 
L 185.620737 163.30553 
L 186.466619 170.521298 
L 186.74858 170.969786 
L 187.03054 173.17256 
L 188.158383 184.603536 
L 188.440343 184.264514 
L 188.722304 185.644641 
L 189.286225 193.59192 
L 189.568185 193.844662 
L 189.850146 194.554178 
L 190.132107 197.074232 
L 190.414067 195.946244 
L 190.696028 182.440479 
L 191.82387 69.650146 
L 192.387791 44.227744 
L 192.951713 36.406288 
L 193.233673 33.848345 
L 193.515634 34.516714 
L 193.797594 38.536239 
L 194.361515 51.974947 
L 194.925437 70.728482 
L 195.207397 87.019486 
L 195.771318 131.429256 
L 196.33524 155.355396 
L 196.6172 161.969973 
L 196.899161 161.456272 
L 197.181121 155.891477 
L 197.463082 152.831122 
L 198.027003 155.272635 
L 198.308964 154.682217 
L 198.872885 152.047037 
L 199.436806 148.933872 
L 199.718767 145.524588 
L 200.282688 134.904578 
L 200.564648 134.718307 
L 201.692491 144.770095 
L 201.974451 144.364868 
L 202.256412 144.679034 
L 203.666215 161.523572 
L 203.948175 162.098349 
L 204.230136 159.283472 
L 204.512097 159.791166 
L 204.794057 164.055159 
L 205.076018 166.230666 
L 205.357978 166.11591 
L 205.639939 167.799142 
L 206.485821 176.492792 
L 206.767781 180.43032 
L 207.049742 180.706763 
L 207.331702 182.971055 
L 208.177584 214.876674 
L 208.459545 217.446095 
L 209.023466 224.032959 
L 209.305427 222.592527 
L 209.587387 216.9884 
L 209.869348 199.763177 
L 210.715229 98.71319 
L 211.561111 42.532895 
L 212.125032 26.763249 
L 212.406993 23.437715 
L 212.688954 22.779354 
L 212.970914 22.462016 
L 213.252875 23.762441 
L 213.534835 30.996763 
L 214.380717 68.687407 
L 215.226599 129.288266 
L 215.79052 154.169057 
L 216.072481 161.597753 
L 216.354441 164.045091 
L 216.636402 163.692638 
L 216.918362 162.888996 
L 217.482284 162.124023 
L 217.764244 160.336777 
L 218.610126 151.477265 
L 219.456008 145.716451 
L 219.737968 147.981826 
L 220.019929 152.075207 
L 220.301889 154.038727 
L 220.58385 153.706184 
L 220.865811 155.095624 
L 221.147771 158.412265 
L 221.429732 158.713869 
L 221.993653 150.670981 
L 222.275613 151.363854 
L 222.557574 153.963314 
L 222.839535 155.001723 
L 223.121495 155.214799 
L 223.403456 156.295248 
L 224.249338 160.667155 
L 224.813259 162.571891 
L 225.095219 165.140295 
L 225.659141 174.244746 
L 226.223062 181.524315 
L 227.068943 192.937328 
L 227.632865 205.745442 
L 228.478746 218.42639 
L 228.760707 218.087627 
L 229.042668 215.053497 
L 229.324628 206.127011 
L 229.606589 182.732888 
L 230.45247 85.976827 
L 231.016392 49.445563 
L 231.580313 28.017321 
L 231.862273 22.780443 
L 232.144234 20.391288 
L 232.426195 19.790707 
L 232.708155 21.480987 
L 233.272076 33.805495 
L 233.554037 41.255239 
L 233.835998 53.853456 
L 234.96384 123.082948 
L 235.2458 140.546837 
L 235.527761 150.323339 
L 236.373643 155.363727 
L 236.655603 154.686914 
L 236.937564 152.96688 
L 237.219525 152.996091 
L 238.065406 156.196946 
L 238.347367 155.630153 
L 238.629327 153.329413 
L 238.911288 152.726451 
L 239.475209 159.437667 
L 239.75717 160.042292 
L 240.03913 158.469287 
L 240.321091 158.340576 
L 240.603052 159.435778 
L 240.885012 158.15053 
L 241.166973 155.020259 
L 241.448933 154.198044 
L 242.012855 157.633981 
L 242.294815 158.567038 
L 242.576776 158.798514 
L 242.858736 157.390572 
L 243.140697 156.576623 
L 243.704618 160.538843 
L 243.986579 160.758892 
L 244.268539 164.302355 
L 244.83246 177.622778 
L 245.114421 181.605367 
L 245.678342 193.640671 
L 245.960303 196.512092 
L 246.242263 200.881499 
L 246.806184 213.352717 
L 247.088145 216.411366 
L 247.652066 224.555717 
L 247.934027 221.763143 
L 248.215987 212.880789 
L 248.497948 195.888167 
L 249.061869 125.896104 
L 249.34383 92.192554 
L 249.907751 59.830948 
L 250.471672 34.85149 
L 250.753633 28.589146 
L 251.035593 26.177435 
L 251.599514 16.937032 
L 251.881475 17.009596 
L 252.163436 22.772504 
L 252.445396 30.979049 
L 252.727357 42.813381 
L 254.41912 147.465283 
L 254.701081 153.720524 
L 254.983041 156.015849 
L 255.265002 156.662405 
L 255.546963 155.771094 
L 256.392844 150.094722 
L 256.956766 142.97798 
L 257.238726 142.448014 
L 257.802647 147.970713 
L 258.084608 148.712184 
L 258.366569 152.090862 
L 258.648529 158.597563 
L 258.93049 162.421147 
L 259.21245 162.378685 
L 259.494411 163.503179 
L 259.776371 166.308142 
L 260.058332 167.183038 
L 260.340293 167.536541 
L 260.904214 172.043606 
L 261.186174 172.665307 
L 261.468135 174.371249 
L 261.750096 175.390411 
L 262.314017 168.581697 
L 262.595977 170.052596 
L 263.441859 186.852402 
L 264.00578 190.934878 
L 264.569701 202.351199 
L 265.415583 217.58335 
L 265.697544 219.61901 
L 265.979504 220.389159 
L 266.261465 217.350355 
L 266.543425 201.431221 
L 267.671268 82.865214 
L 268.235189 45.89115 
L 268.79911 23.768685 
L 269.081071 19.92698 
L 269.363031 19.46759 
L 269.926953 19.792403 
L 270.208913 21.142975 
L 270.490874 27.255678 
L 271.900677 93.648842 
L 272.464598 125.261599 
L 273.028519 146.756834 
L 273.31048 151.453494 
L 273.59244 152.708296 
L 273.874401 152.964736 
L 274.156361 151.526276 
L 274.438322 149.120067 
L 274.720282 149.244586 
L 275.002243 151.515843 
L 275.284204 151.965233 
L 275.566164 151.393993 
L 275.848125 153.633479 
L 276.130085 157.0242 
L 276.412046 157.142323 
L 276.694007 155.360298 
L 276.975967 155.81404 
L 277.539888 159.648931 
L 277.821849 161.123801 
L 278.38577 168.35739 
L 278.949691 175.07173 
L 279.795573 184.177217 
L 280.077534 184.661381 
L 280.359494 185.503267 
L 280.923415 192.948951 
L 281.205376 192.224952 
L 281.487337 190.868056 
L 281.769297 193.457166 
L 282.333218 205.619531 
L 282.897139 218.75132 
L 283.743021 230.42315 
L 284.024982 229.656661 
L 284.306942 217.521146 
L 284.870864 154.840768 
L 285.434785 94.145403 
L 285.998706 47.705676 
L 286.280667 32.271944 
L 286.844588 18.354363 
L 287.126548 12.949065 
L 287.408509 12.096 
L 287.97243 15.792056 
L 288.254391 19.384799 
L 288.818312 38.609066 
L 289.382233 59.530874 
L 289.946154 90.868688 
L 290.510075 128.385066 
L 291.355957 154.572409 
L 291.637918 159.278892 
L 291.919878 156.924868 
L 292.201839 153.203173 
L 292.76576 150.230786 
L 293.047721 147.479455 
L 293.329681 146.890622 
L 294.175563 153.826757 
L 294.739484 155.851238 
L 295.585366 163.054518 
L 295.867326 164.16534 
L 296.431248 165.180546 
L 296.713208 167.515674 
L 296.995169 171.718261 
L 297.277129 174.201685 
L 297.55909 175.229607 
L 297.841051 178.722791 
L 298.404972 187.992163 
L 299.532814 198.587436 
L 300.660656 222.887762 
L 300.942617 229.047837 
L 301.224578 231.582594 
L 301.506538 232.639475 
L 301.788499 231.571398 
L 302.070459 220.713569 
L 302.634381 165.754339 
L 303.480262 72.440172 
L 304.326144 23.073197 
L 304.608105 15.906735 
L 305.172026 12.262133 
L 305.453986 14.040992 
L 306.299868 39.992257 
L 306.863789 64.045228 
L 307.709671 101.271 
L 308.555553 134.030728 
L 309.119474 144.494386 
L 309.401435 145.629129 
L 309.683395 144.478661 
L 309.965356 144.338075 
L 310.247316 145.421901 
L 310.529277 144.936613 
L 310.811238 144.115452 
L 311.657119 149.582994 
L 311.93908 150.121067 
L 312.503001 153.924752 
L 312.784962 157.883713 
L 313.066922 163.625967 
L 313.348883 165.960019 
L 313.630843 164.651873 
L 313.912804 166.719465 
L 314.194765 172.021647 
L 314.476725 172.833756 
L 314.758686 170.142428 
L 315.040646 172.08322 
L 315.322607 177.706099 
L 315.886528 182.673142 
L 316.450449 194.212753 
L 316.73241 196.348016 
L 317.01437 199.494353 
L 317.578292 210.78355 
L 317.860252 215.311235 
L 318.706134 242.546658 
L 319.270055 247.536247 
L 319.552016 236.970632 
L 320.115937 167.311915 
L 320.961819 71.059109 
L 321.243779 50.328741 
L 321.8077 27.903527 
L 322.089661 20.534225 
L 322.371622 17.521544 
L 322.653582 15.938951 
L 322.935543 15.028176 
L 323.217503 18.134312 
L 324.063385 36.081029 
L 324.909267 70.393474 
L 325.755149 124.918801 
L 326.60103 146.709896 
L 326.882991 145.597424 
L 327.164952 142.890926 
L 327.446912 143.516928 
L 327.728873 145.167169 
L 328.292794 146.450525 
L 328.856715 148.446861 
L 329.420636 151.070571 
L 329.702597 151.506766 
L 330.266518 152.984491 
L 330.548479 153.982756 
L 330.830439 157.416147 
L 331.1124 162.550893 
L 331.39436 165.427213 
L 331.676321 166.045445 
L 331.958281 167.713934 
L 333.932006 186.964852 
L 334.495927 195.25813 
L 335.341809 211.437553 
L 336.18769 240.145767 
L 336.469651 242.773747 
L 337.033572 250.106809 
L 337.315533 241.35791 
L 337.879454 182.601925 
L 338.725336 78.921089 
L 339.289257 40.720417 
L 339.571217 30.404035 
L 340.135138 21.616397 
L 340.417099 17.789346 
L 340.69906 16.015563 
L 340.98102 17.339721 
L 341.262981 20.687057 
L 341.826902 33.363193 
L 342.390823 50.056958 
L 343.518666 105.761115 
L 344.082587 121.675894 
L 344.928468 141.814528 
L 345.210429 142.656189 
L 345.49239 144.643041 
L 345.77435 147.826829 
L 346.056311 145.993384 
L 346.338271 140.571575 
L 346.620232 139.137118 
L 347.184153 144.228898 
L 347.466114 144.680451 
L 347.748074 147.972129 
L 348.311995 163.717422 
L 348.593956 166.001265 
L 348.875917 165.595817 
L 349.439838 168.899162 
L 349.721798 166.110944 
L 350.003759 164.609916 
L 350.56768 173.416411 
L 351.131601 177.817259 
L 351.413562 181.06887 
L 351.977483 183.945214 
L 353.387286 207.081817 
L 353.951207 219.628093 
L 354.515128 234.272677 
L 355.36101 245.937317 
L 355.642971 242.466923 
L 355.924931 224.365823 
L 357.334734 73.864745 
L 357.616695 56.185769 
L 358.180616 40.201151 
L 358.744537 23.939551 
L 359.026498 21.762778 
L 359.308458 25.917622 
L 360.15434 44.829524 
L 360.718261 63.015362 
L 361.282182 69.240102 
L 362.410025 98.92279 
L 362.691985 103.974888 
L 363.255907 118.43902 
L 363.537867 122.130937 
L 363.819828 122.385173 
L 364.101788 124.514365 
L 364.665709 134.490644 
L 364.94767 134.851657 
L 365.229631 137.048128 
L 365.793552 148.348721 
L 366.075512 149.809142 
L 366.357473 150.468656 
L 367.203355 153.881252 
L 367.485315 155.35775 
L 368.049237 154.446606 
L 368.613158 157.487835 
L 368.895118 155.6441 
L 369.177079 154.649491 
L 369.741 159.161613 
L 370.022961 158.669454 
L 370.304921 159.098526 
L 371.150803 170.951944 
L 371.714724 171.532263 
L 371.996685 173.374203 
L 372.278645 173.833826 
L 372.560606 171.050366 
L 372.842566 169.472098 
L 375.380212 200.622699 
L 375.944133 211.18877 
L 376.790015 232.586487 
L 377.071975 235.364446 
L 377.353936 236.590116 
L 377.635896 232.9855 
L 377.917857 217.029645 
L 378.481778 149.208436 
L 379.045699 84.053671 
L 379.609621 41.490006 
L 379.891581 28.490185 
L 380.173542 21.360829 
L 380.455502 18.863688 
L 380.737463 19.767293 
L 381.301384 24.636162 
L 381.583345 26.788427 
L 381.865305 32.864045 
L 382.993148 74.481378 
L 383.557069 102.726943 
L 384.12099 116.400079 
L 384.684911 133.150086 
L 384.966872 130.975006 
L 385.248832 127.097848 
L 385.530793 128.470113 
L 385.812753 131.084223 
L 386.376675 128.332645 
L 387.222556 134.228271 
L 387.504517 135.373111 
L 387.786478 137.812786 
L 388.068438 138.925273 
L 388.632359 135.588663 
L 388.91432 138.129822 
L 389.19628 142.145516 
L 389.478241 143.755898 
L 389.760202 146.719033 
L 390.324123 166.049773 
L 390.606083 170.24906 
L 390.888044 170.886475 
L 391.451965 174.424799 
L 391.733926 174.832679 
L 392.015886 175.876234 
L 392.579808 181.204627 
L 393.143729 187.339844 
L 393.425689 189.095067 
L 393.98961 197.278905 
L 394.271571 198.299409 
L 394.553532 197.075753 
L 394.835492 198.377474 
L 395.117453 201.004091 
L 395.399413 202.396615 
L 395.681374 206.014554 
L 396.245295 219.862757 
L 397.091177 230.053123 
L 397.373137 225.821813 
L 397.655098 210.764949 
L 398.219019 156.008697 
L 398.78294 92.288957 
L 399.346862 55.983834 
L 399.628822 45.298697 
L 399.910783 39.82377 
L 400.756665 32.309675 
L 401.038625 35.953346 
L 401.884507 52.142054 
L 403.29431 102.785256 
L 403.858231 119.851673 
L 404.140192 130.484903 
L 404.422152 136.510971 
L 404.986073 139.404202 
L 405.268034 141.129722 
L 405.549994 139.057317 
L 405.831955 135.431647 
L 406.113916 135.184441 
L 406.395876 135.756553 
L 406.959797 126.771746 
L 407.241758 126.809983 
L 408.3696 148.411192 
L 409.215482 154.447514 
L 409.497443 154.586835 
L 410.061364 152.108978 
L 410.343324 151.649014 
L 410.625285 152.451932 
L 411.189206 155.908668 
L 411.471167 155.748632 
L 411.753127 158.560422 
L 412.317049 175.928999 
L 412.599009 179.332729 
L 412.88097 181.228007 
L 413.444891 195.622896 
L 413.726851 196.589564 
L 414.008812 193.227968 
L 414.290773 194.273937 
L 414.854694 205.13594 
L 415.136654 209.020139 
L 416.546457 239.952013 
L 416.828418 238.830914 
L 417.110379 221.713121 
L 417.95626 120.220163 
L 418.520181 65.303992 
L 419.084103 42.767273 
L 419.366063 36.127175 
L 419.648024 33.600528 
L 419.929984 33.572331 
L 420.211945 33.290491 
L 420.493906 35.131259 
L 421.339787 52.062952 
L 421.903708 73.275727 
L 422.74959 100.070762 
L 423.313511 113.184059 
L 424.159393 127.091412 
L 425.005275 132.571024 
L 425.287236 133.803363 
L 425.851157 140.177171 
L 426.133117 140.275917 
L 426.415078 139.925882 
L 426.697038 140.28044 
L 426.978999 138.548226 
L 427.26096 135.507648 
L 427.54292 134.962488 
L 427.824881 136.333803 
L 428.106841 136.903029 
L 428.388802 137.786268 
L 428.952723 143.40298 
L 429.516644 145.934449 
L 429.798605 149.313932 
L 430.926447 170.464547 
L 431.208408 172.10837 
L 431.490368 172.584083 
L 431.772329 175.415489 
L 432.05429 180.007789 
L 432.33625 182.74372 
L 432.618211 183.760467 
L 432.900171 186.475992 
L 434.309974 214.123106 
L 434.873895 232.01315 
L 435.155856 236.833007 
L 435.437817 239.640489 
L 435.719777 241.182887 
L 436.001738 235.392472 
L 436.283698 215.365899 
L 437.411541 85.531924 
L 437.693501 69.04937 
L 438.257422 53.779077 
L 438.539383 49.732494 
L 439.103304 45.867301 
L 439.385265 45.486593 
L 439.667225 48.07055 
L 440.795068 70.791318 
L 441.358989 86.239047 
L 442.204871 112.462228 
L 443.050752 130.477948 
L 443.614674 136.550078 
L 443.896634 137.630255 
L 444.742516 135.686112 
L 445.306437 133.131637 
L 445.870358 134.874758 
L 446.152319 133.051731 
L 446.434279 130.351307 
L 446.71624 130.663316 
L 447.280161 136.77762 
L 447.562122 137.972778 
L 447.844082 138.088391 
L 448.126043 138.759376 
L 449.253885 146.993023 
L 450.099767 159.21324 
L 450.663688 170.204742 
L 451.50957 179.61007 
L 452.355452 194.871913 
L 454.329176 249.171664 
L 454.611136 253.301389 
L 454.893097 254.016 
L 455.175058 247.246478 
L 455.457018 228.212609 
L 456.584861 97.470448 
L 457.148782 67.947543 
L 457.430742 58.71934 
L 457.712703 54.776305 
L 457.994663 54.795682 
L 458.276624 57.276105 
L 458.840545 63.553706 
L 459.122506 65.763051 
L 459.686427 75.810576 
L 459.968388 76.926536 
L 460.250348 74.430733 
L 460.532309 74.456356 
L 460.814269 79.124329 
L 461.378191 94.946582 
L 461.942112 112.66772 
L 462.224072 116.430003 
L 462.787993 120.299981 
L 463.069954 120.380751 
L 463.351915 118.247421 
L 463.633875 116.973174 
L 464.197796 121.049643 
L 464.479757 121.01823 
L 464.761718 120.365645 
L 465.325639 123.851512 
L 465.607599 123.368468 
L 465.88956 122.2774 
L 466.17152 123.299083 
L 466.735442 127.224463 
L 467.863284 140.686482 
L 469.555048 167.119307 
L 469.837008 170.410442 
L 470.68289 189.163787 
L 470.96485 189.139424 
L 471.246811 189.681207 
L 471.810732 194.445457 
L 472.092693 198.447215 
L 473.220535 225.924888 
L 473.502496 229.53723 
L 473.784456 227.894531 
L 474.066417 216.200292 
L 474.630338 156.655105 
L 475.194259 100.179426 
L 475.75818 68.843724 
L 476.040141 65.96812 
L 476.322102 66.271901 
L 476.886023 60.359921 
L 477.167983 61.413854 
L 478.295826 74.612425 
L 478.859747 87.958874 
L 479.141707 95.32707 
L 479.423668 98.820651 
L 479.705629 100.626295 
L 479.987589 106.47499 
L 480.55151 122.982255 
L 481.115432 130.700295 
L 481.397392 132.945941 
L 481.961313 134.143463 
L 482.243274 134.195482 
L 482.525234 132.136018 
L 482.807195 131.738276 
L 483.371116 138.674426 
L 483.653077 136.539352 
L 483.935037 135.309409 
L 484.498959 141.585916 
L 485.06288 136.18281 
L 485.34484 135.874662 
L 485.626801 136.125281 
L 485.908762 136.193694 
L 486.190722 137.906083 
L 487.318564 150.516939 
L 487.882486 153.474548 
L 488.446407 158.32636 
L 488.728367 159.500923 
L 489.574249 166.466717 
L 489.85621 170.151916 
L 490.420131 189.468799 
L 490.702091 193.388922 
L 490.984052 195.167233 
L 491.547973 206.404306 
L 492.111894 209.41109 
L 492.957776 221.201012 
L 493.239737 217.689771 
L 493.521697 203.714456 
L 494.64954 103.843206 
L 494.9315 90.203442 
L 495.213461 83.60338 
L 495.777382 77.837735 
L 496.059343 73.582684 
L 496.341303 71.110015 
L 496.905224 69.581913 
L 497.187185 70.64747 
L 497.751106 79.17085 
L 498.033067 84.378435 
L 499.72483 134.627369 
L 500.006791 138.866046 
L 500.288751 140.891272 
L 500.852673 147.65145 
L 501.416594 149.191459 
L 501.698554 148.662298 
L 502.544436 136.643334 
L 503.108357 136.939691 
L 503.390318 137.637891 
L 505.364042 159.336207 
L 505.646003 158.169083 
L 505.927963 159.16346 
L 506.209924 162.793243 
L 506.491884 164.795612 
L 506.773845 164.743115 
L 507.055805 165.484037 
L 507.337766 165.849598 
L 507.619727 163.725249 
L 507.901687 163.095529 
L 508.183648 168.786588 
L 508.465608 177.356269 
L 508.747569 182.146239 
L 509.02953 184.517194 
L 509.31149 190.917473 
L 509.593451 200.21741 
L 509.875411 205.346831 
L 510.157372 206.952796 
L 510.721293 218.274454 
L 511.003254 216.112458 
L 511.567175 188.3315 
L 512.131096 137.77568 
L 512.413057 110.0315 
L 512.695017 94.031199 
L 513.258938 78.028068 
L 513.82286 58.19591 
L 514.10482 53.889183 
L 514.386781 53.208552 
L 514.668741 53.315592 
L 514.950702 53.103026 
L 515.232662 56.061445 
L 516.078544 81.114607 
L 516.360505 83.437101 
L 516.642465 87.056339 
L 518.052268 115.270559 
L 519.462071 133.471349 
L 519.744032 132.923107 
L 520.025992 129.157896 
L 520.307953 127.534956 
L 520.589914 127.67894 
L 521.153835 125.698123 
L 521.435795 127.097557 
L 521.717756 129.3752 
L 521.999717 133.673352 
L 522.563638 145.365321 
L 522.845598 147.849283 
L 523.69148 160.569154 
L 524.255401 164.004639 
L 524.819322 159.623197 
L 525.101283 164.846683 
L 525.383244 173.984764 
L 525.947165 180.868183 
L 526.511086 199.89098 
L 526.793047 203.651311 
L 527.075007 204.724742 
L 527.920889 218.074917 
L 528.202849 216.462092 
L 528.48481 209.722385 
L 528.766771 193.820627 
L 529.894613 105.832877 
L 530.176574 94.13408 
L 530.458534 91.282473 
L 530.740495 90.809784 
L 531.586376 74.764031 
L 531.868337 73.641806 
L 532.432258 69.066899 
L 532.714219 72.106749 
L 534.405982 119.320483 
L 534.687943 121.942606 
L 535.533825 124.923897 
L 535.815785 125.667014 
L 537.225588 133.488323 
L 538.07147 142.174355 
L 538.353431 141.186838 
L 538.635391 139.510147 
L 538.917352 141.557343 
L 539.481273 151.83317 
L 539.763233 152.96207 
L 540.045194 153.622845 
L 540.609115 157.451239 
L 541.173036 155.257715 
L 541.454997 157.555072 
L 541.736958 161.238391 
L 542.018918 163.326438 
L 542.582839 164.09153 
L 543.146761 167.12286 
L 543.428721 168.907261 
L 543.710682 172.58862 
L 543.992642 180.43593 
L 544.838524 212.49226 
L 545.120485 217.082361 
L 545.402445 216.685488 
L 545.684406 211.866353 
L 545.966366 202.034772 
L 546.530288 162.734281 
L 547.094209 122.257046 
L 547.65813 93.605939 
L 547.94009 87.700155 
L 548.222051 87.633866 
L 548.504012 87.358113 
L 549.067933 81.699736 
L 549.631854 80.29147 
L 549.913815 79.696005 
L 550.195775 81.281461 
L 550.477736 85.906593 
L 551.605578 109.228323 
L 551.887539 114.226945 
L 552.45146 129.40129 
L 552.73342 133.025753 
L 553.579302 134.126898 
L 554.143223 132.091421 
L 554.425184 132.714387 
L 554.707145 133.744407 
L 554.989105 135.287275 
L 555.553026 143.054717 
L 555.834987 143.9063 
L 556.116947 143.932879 
L 556.680869 149.724397 
L 557.24479 147.056551 
L 558.372632 154.48753 
L 558.936553 161.672536 
L 559.218514 162.94954 
L 559.500475 165.884399 
L 560.064396 175.475602 
L 561.756159 193.307274 
L 562.03812 200.079743 
L 562.602041 218.283241 
L 562.884002 221.453677 
L 563.165962 219.58932 
L 563.447923 213.521195 
L 563.729883 200.560047 
L 564.293804 151.506585 
L 564.857726 104.706365 
L 565.421647 74.754801 
L 565.985568 59.842926 
L 566.267529 55.24832 
L 566.549489 52.622855 
L 566.83145 52.768908 
L 567.11341 54.822256 
L 567.395371 58.595903 
L 567.959292 73.250007 
L 568.523213 90.408989 
L 569.369095 123.747648 
L 570.214977 142.229535 
L 570.496937 144.600152 
L 571.060859 140.062981 
L 571.62478 139.452948 
L 572.188701 134.653537 
L 572.470661 133.949076 
L 572.752622 134.195857 
L 573.034583 134.900854 
L 573.598504 137.03356 
L 573.880464 137.817211 
L 574.726346 143.736625 
L 575.290267 145.894604 
L 575.572228 145.246335 
L 575.854189 146.670476 
L 576.41811 158.13568 
L 576.70007 157.533338 
L 576.982031 157.236271 
L 577.263991 160.658364 
L 577.545952 160.910305 
L 577.827913 155.811961 
L 578.109873 153.272795 
L 578.673794 158.238512 
L 578.955755 159.571819 
L 580.083597 175.819242 
L 580.647518 184.622835 
L 580.929479 187.780094 
L 581.775361 212.410415 
L 582.057321 210.739063 
L 582.339282 208.209845 
L 582.621243 201.649158 
L 582.903203 182.873062 
L 583.467124 134.565013 
L 584.313006 92.276432 
L 584.876927 83.73251 
L 585.440848 75.92752 
L 586.00477 73.648296 
L 586.28673 73.216652 
L 586.568691 74.559365 
L 586.850651 77.779211 
L 587.696533 92.893411 
L 587.978494 100.918389 
L 588.542415 126.294845 
L 588.824375 132.856952 
L 589.388297 136.986049 
L 589.670257 139.498996 
L 589.952218 137.627558 
L 590.234178 132.32399 
L 590.516139 130.555463 
L 590.7981 133.464012 
L 591.08006 134.407883 
L 591.362021 131.75352 
L 591.643981 132.666792 
L 592.207903 143.226642 
L 592.771824 141.387145 
L 593.053784 143.884047 
L 593.335745 145.024258 
L 593.899666 138.962193 
L 594.181627 139.140151 
L 594.463587 140.526593 
L 595.027508 138.107257 
L 595.309469 143.06475 
L 595.59143 151.59415 
L 595.87339 155.014613 
L 596.155351 154.135847 
L 596.719272 157.293464 
L 597.283193 145.096193 
L 597.565154 144.242965 
L 597.847114 145.505302 
L 598.411035 142.357197 
L 599.256917 149.183039 
L 600.66672 168.134691 
L 600.948681 169.481729 
L 601.794562 178.489182 
L 602.076523 183.822123 
L 602.640444 204.776977 
L 603.486326 217.593761 
L 603.768287 212.270526 
L 604.332208 171.675064 
L 605.178089 110.17947 
L 606.023971 76.709109 
L 606.305932 70.911579 
L 606.587892 69.23156 
L 607.151814 61.24948 
L 607.433774 63.439146 
L 607.997695 80.991606 
L 608.561617 91.782468 
L 609.125538 105.563387 
L 609.407498 108.921486 
L 610.25338 124.831519 
L 611.099262 134.015585 
L 611.381222 133.972787 
L 611.663183 135.490952 
L 611.945144 138.991507 
L 612.227104 140.713908 
L 612.791025 140.302587 
L 613.072986 139.228217 
L 613.354946 136.899354 
L 613.636907 136.025122 
L 614.200828 137.227214 
L 614.482789 140.124365 
L 615.04671 151.842366 
L 615.610631 149.21919 
L 615.892592 150.678602 
L 616.174552 147.302955 
L 616.738474 128.972912 
L 617.020434 131.476791 
L 617.302395 136.714679 
L 617.584355 139.327179 
L 617.866316 143.746094 
L 618.430237 157.497783 
L 619.276119 163.327584 
L 619.558079 162.953061 
L 619.84004 162.387639 
L 620.122001 163.97536 
L 620.967882 171.140319 
L 622.377685 193.216161 
L 622.659646 194.23812 
L 622.941606 193.550193 
L 623.223567 192.173245 
L 623.505528 185.746201 
L 624.069449 151.569233 
L 624.63337 117.14911 
L 624.915331 106.554216 
L 626.043173 84.884746 
L 626.325133 82.892679 
L 626.889055 84.735941 
L 627.171015 86.561342 
L 627.734936 95.909724 
L 628.580818 113.560924 
L 629.4267 130.007678 
L 629.70866 133.538632 
L 629.990621 134.655261 
L 630.272582 134.637944 
L 630.554542 136.061779 
L 631.118463 139.874329 
L 631.682385 141.442167 
L 631.964345 140.340642 
L 632.528266 132.719757 
L 632.810227 132.491088 
L 633.092188 133.455734 
L 633.092188 133.455734 
" clip-path="url(#p8778cb1e1c)" style="fill: none; stroke: #1f77b4; stroke-width: 1.5; stroke-linecap: square"/>
   </g>
   <g id="patch_3">
    <path d="M 47.192188 266.112 
L 47.192188 0 
" style="fill: none; stroke: #808080; stroke-width: 0.8; stroke-linejoin: miter; stroke-linecap: square"/>
   </g>
   <g id="patch_4">
    <path d="M 660.992188 266.112 
L 660.992188 0 
" style="fill: none; stroke: #000000; stroke-width: 0.8; stroke-linejoin: miter; stroke-linecap: square"/>
   </g>
   <g id="patch_5">
    <path d="M 47.192188 266.112 
L 660.992188 266.112 
" style="fill: none; stroke: #808080; stroke-width: 0.8; stroke-linejoin: miter; stroke-linecap: square"/>
   </g>
   <g id="patch_6">
    <path d="M 47.192188 0 
L 660.992188 0 
" style="fill: none; stroke: #000000; stroke-width: 0.8; stroke-linejoin: miter; stroke-linecap: square"/>
   </g>
  </g>
 </g>
 <defs>
  <clipPath id="p8778cb1e1c">
   <rect x="47.192188" y="0" width="613.8" height="266.112"/>
  </clipPath>
 </defs>
</svg>
