<svg xmlns="http://www.w3.org/2000/svg" xmlns:xlink="http://www.w3.org/1999/xlink" width="913.477" height="377.053" viewBox="0 0 685.107 282.79"><defs><style>*{stroke-linejoin:round;stroke-linecap:butt}</style></defs><g id="figure_1"><path id="patch_1" d="M0 282.79h685.107V0H0v282.79z" style="fill:none"/><g id="axes_1"><path id="patch_2" d="M71.308 266.112h613.8V0h-613.8v266.112z" style="fill:none"/><g id="matplotlib.axis_1"><g id="xtick_1"><g id="line2d_1"><defs><path id="m116702b8ee" d="M0 0v3.5" style="stroke:gray;stroke-width:.8"/></defs><use xlink:href="#m116702b8ee" x="99.207" y="266.112" style="fill:gray;stroke:gray;stroke-width:.8"/></g><g id="text_1" style="fill:gray" transform="matrix(.1 0 0 -.1 96.026 280.71)"><defs><path id="DejaVuSans-30" d="M2034 4250q-487 0-733-480-245-479-245-1442 0-959 245-1439 246-480 733-480 491 0 736 480 246 480 246 1439 0 963-246 1442-245 480-736 480zm0 500q785 0 1199-621 414-620 414-1801 0-1178-414-1799Q2819-91 2034-91q-784 0-1198 620-414 621-414 1799 0 1181 414 1801 414 621 1198 621z" transform="scale(.01563)"/></defs><use xlink:href="#DejaVuSans-30"/></g></g><g id="xtick_2"><use xlink:href="#m116702b8ee" id="line2d_2" x="168.958" y="266.112" style="fill:gray;stroke:gray;stroke-width:.8"/><g id="text_2" style="fill:gray" transform="matrix(.1 0 0 -.1 159.414 280.71)"><defs><path id="DejaVuSans-35" d="M691 4666h2478v-532H1269V2991q137 47 274 70 138 23 276 23 781 0 1237-428 457-428 457-1159 0-753-469-1171Q2575-91 1722-91q-294 0-599 50Q819 9 494 109v635q281-153 581-228t634-75q541 0 856 284 316 284 316 772 0 487-316 771-315 285-856 285-253 0-505-56-251-56-513-175v2344z" transform="scale(.01563)"/></defs><use xlink:href="#DejaVuSans-35"/><use xlink:href="#DejaVuSans-30" x="63.623"/><use xlink:href="#DejaVuSans-30" x="127.246"/></g></g><g id="xtick_3"><use xlink:href="#m116702b8ee" id="line2d_3" x="238.708" y="266.112" style="fill:gray;stroke:gray;stroke-width:.8"/><g id="text_3" style="fill:gray" transform="matrix(.1 0 0 -.1 225.982 280.71)"><defs><path id="DejaVuSans-31" d="M794 531h1031v3560L703 3866v575l1116 225h631V531h1031V0H794v531z" transform="scale(.01563)"/></defs><use xlink:href="#DejaVuSans-31"/><use xlink:href="#DejaVuSans-30" x="63.623"/><use xlink:href="#DejaVuSans-30" x="127.246"/><use xlink:href="#DejaVuSans-30" x="190.869"/></g></g><g id="xtick_4"><use xlink:href="#m116702b8ee" id="line2d_4" x="308.457" y="266.112" style="fill:gray;stroke:gray;stroke-width:.8"/><g id="text_4" style="fill:gray" transform="matrix(.1 0 0 -.1 295.733 280.71)"><use xlink:href="#DejaVuSans-31"/><use xlink:href="#DejaVuSans-35" x="63.623"/><use xlink:href="#DejaVuSans-30" x="127.246"/><use xlink:href="#DejaVuSans-30" x="190.869"/></g></g><g id="xtick_5"><use xlink:href="#m116702b8ee" id="line2d_5" x="378.207" y="266.112" style="fill:gray;stroke:gray;stroke-width:.8"/><g id="text_5" style="fill:gray" transform="matrix(.1 0 0 -.1 365.483 280.71)"><defs><path id="DejaVuSans-32" d="M1228 531h2203V0H469v531q359 372 979 998 621 627 780 809 303 340 423 576 121 236 121 464 0 372-261 606-261 235-680 235-297 0-627-103-329-103-704-313v638q381 153 712 231 332 78 607 78 725 0 1156-363 431-362 431-968 0-288-108-546-107-257-392-607-78-91-497-524-418-433-1181-1211z" transform="scale(.01563)"/></defs><use xlink:href="#DejaVuSans-32"/><use xlink:href="#DejaVuSans-30" x="63.623"/><use xlink:href="#DejaVuSans-30" x="127.246"/><use xlink:href="#DejaVuSans-30" x="190.869"/></g></g><g id="xtick_6"><use xlink:href="#m116702b8ee" id="line2d_6" x="447.957" y="266.112" style="fill:gray;stroke:gray;stroke-width:.8"/><g id="text_6" style="fill:gray" transform="matrix(.1 0 0 -.1 435.233 280.71)"><use xlink:href="#DejaVuSans-32"/><use xlink:href="#DejaVuSans-35" x="63.623"/><use xlink:href="#DejaVuSans-30" x="127.246"/><use xlink:href="#DejaVuSans-30" x="190.869"/></g></g><g id="xtick_7"><use xlink:href="#m116702b8ee" id="line2d_7" x="517.707" y="266.112" style="fill:gray;stroke:gray;stroke-width:.8"/><g id="text_7" style="fill:gray" transform="matrix(.1 0 0 -.1 504.983 280.71)"><defs><path id="DejaVuSans-33" d="M2597 2516q453-97 707-404 255-306 255-756 0-690-475-1069Q2609-91 1734-91q-293 0-604 58T488 141v609q262-153 574-231 313-78 654-78 593 0 904 234t311 681q0 413-289 645-289 233-804 233h-544v519h569q465 0 712 186t247 536q0 359-255 551-254 193-729 193-260 0-557-57-297-56-653-174v562q360 100 674 150t592 50q719 0 1137-327 419-326 419-882 0-388-222-655t-631-370z" transform="scale(.01563)"/></defs><use xlink:href="#DejaVuSans-33"/><use xlink:href="#DejaVuSans-30" x="63.623"/><use xlink:href="#DejaVuSans-30" x="127.246"/><use xlink:href="#DejaVuSans-30" x="190.869"/></g></g><g id="xtick_8"><use xlink:href="#m116702b8ee" id="line2d_8" x="587.457" y="266.112" style="fill:gray;stroke:gray;stroke-width:.8"/><g id="text_8" style="fill:gray" transform="matrix(.1 0 0 -.1 574.732 280.71)"><use xlink:href="#DejaVuSans-33"/><use xlink:href="#DejaVuSans-35" x="63.623"/><use xlink:href="#DejaVuSans-30" x="127.246"/><use xlink:href="#DejaVuSans-30" x="190.869"/></g></g><g id="xtick_9"><use xlink:href="#m116702b8ee" id="line2d_9" x="657.207" y="266.112" style="fill:gray;stroke:gray;stroke-width:.8"/><g id="text_9" style="fill:gray" transform="matrix(.1 0 0 -.1 644.482 280.71)"><defs><path id="DejaVuSans-34" d="M2419 4116 825 1625h1594v2491zm-166 550h794V1625h666v-525h-666V0h-628v1100H313v609l1940 2957z" transform="scale(.01563)"/></defs><use xlink:href="#DejaVuSans-34"/><use xlink:href="#DejaVuSans-30" x="63.623"/><use xlink:href="#DejaVuSans-30" x="127.246"/><use xlink:href="#DejaVuSans-30" x="190.869"/></g></g></g><g id="matplotlib.axis_2"><g id="ytick_1"><g id="line2d_10"><defs><path id="m743cd888ad" d="M0 0h-3.5" style="stroke:gray;stroke-width:.8"/></defs><use xlink:href="#m743cd888ad" x="71.308" y="229.654" style="fill:gray;stroke:gray;stroke-width:.8"/></g><g id="text_10" style="fill:gray" transform="matrix(.16 0 0 -.16 0 235.732)"><defs><path id="DejaVuSans-2212" d="M678 2272h4006v-531H678v531z" transform="scale(.01563)"/></defs><use xlink:href="#DejaVuSans-2212"/><use xlink:href="#DejaVuSans-32" x="83.789"/><use xlink:href="#DejaVuSans-30" x="147.412"/><use xlink:href="#DejaVuSans-30" x="211.035"/><use xlink:href="#DejaVuSans-30" x="274.658"/><use xlink:href="#DejaVuSans-30" x="338.281"/></g></g><g id="ytick_2"><use xlink:href="#m743cd888ad" id="line2d_11" x="71.308" y="164.382" style="fill:gray;stroke:gray;stroke-width:.8"/><use xlink:href="#DejaVuSans-30" id="text_11" style="fill:gray" transform="matrix(.16 0 0 -.16 54.127 170.46)"/></g><g id="ytick_3"><use xlink:href="#m743cd888ad" id="line2d_12" x="71.308" y="99.111" style="fill:gray;stroke:gray;stroke-width:.8"/><g id="text_12" style="fill:gray" transform="matrix(.16 0 0 -.16 13.408 105.19)"><use xlink:href="#DejaVuSans-32"/><use xlink:href="#DejaVuSans-30" x="63.623"/><use xlink:href="#DejaVuSans-30" x="127.246"/><use xlink:href="#DejaVuSans-30" x="190.869"/><use xlink:href="#DejaVuSans-30" x="254.492"/></g></g><g id="ytick_4"><use xlink:href="#m743cd888ad" id="line2d_13" x="71.308" y="33.839" style="fill:gray;stroke:gray;stroke-width:.8"/><g id="text_13" style="fill:gray" transform="matrix(.16 0 0 -.16 13.408 39.918)"><use xlink:href="#DejaVuSans-34"/><use xlink:href="#DejaVuSans-30" x="63.623"/><use xlink:href="#DejaVuSans-30" x="127.246"/><use xlink:href="#DejaVuSans-30" x="190.869"/><use xlink:href="#DejaVuSans-30" x="254.492"/></g></g></g><path id="line2d_14" d="m99.207 164.299.282.168.282-.17.282.172.282-.176.282.18.282-.183.282.186.282-.19.282.194.282-.197.282.201.282-.206.282.21.282-.215.282.22.282-.225.282.232.282-.239.282.245.282-.252.282.26.282-.268.282.277.282-.286.282.296.281-.307.282.318.282-.33.282.344.282-.36.282.376.282-.394.282.415.282-.437.282.462.282-.49.282.522.282-.56.282.604.282-.655.282.715.282-.787.282.877.282-.991.282 1.14.282-1.342.282 1.631.282-2.083.282 2.884.282-4.664.281 36.945.282 8.806.564-34.985 1.128-101.99.564-29.443.282-5.902.282 1.695.282 4.478.564 19.651.564 33.107.846 63.849.564 25.596.564 13.89.282 1.562.282.087.563-4.108 1.41-14.98.282-1.615 1.128-8.4.282-.855.564-.173.564 2.153.282 1.25.282.246.282.988.846 4.62.564 2.663.281 1.51.282.166.282-.224.846-1.753.564 1.165.564 2.182.564 3.914.564 3.37.846 6.14.564 5.214 1.692 19.545.281.872.282-4.659.282-12.826.564-48.572 1.128-113.024.282-16.528.282-8.39.282-1.746.282 2.202.282 7.119.564 31.497 1.128 82.452.564 33.768.564 16.373.282 3.91.282 1.638.281-.835.564-5.31.282-1.018.282-.467 1.128-4.019.282-1.867.282-.887.282.602.282-.497.564-4.885.282-.721.282.418.282 1.37.846 7.458.282.123.282-.535.564-.082.281-.431.282-.13.564 2.081.282-1.788.564-8.145.282-1.823.564-2.033.282.15.846 4.09.564 7.29.564 5.887.282 2.447.564 8.816 1.128 19.551.281 3.981.282-.955.282-8.229.282-14.982.564-48.876.846-78.68.564-33.135.282-6.45.282.031.282 4.106.282 7.298.564 24.74.846 54.9.564 34.145.564 23.178.282 6.743.282 3.878.281 2.085.282.33.282-1.956 1.128-12.421.564-9.791.564-6.79.564-4.128.282-1.11.282-.436.282 1.051.564 3.48.564 1.493.282 1.765 1.128 9.956.563 2.814 1.974 17.868.846 4.492.282-.052.282-1.251.282-.186.282 2.14.564 5.66.282 2.26.282 4.081.564 11.97 1.128 15.31.281-.47.282-5.665.282-11.788.282-21.039 1.41-149.55.282-18.824.282-8.417.282-.716.564 3.05.282 4.602.282 8.963.564 29.685 1.41 91.535.282 7.311.563 6.791.282 2.296.282.035.564-4.013.564-1.514.282-2.248.564-5.382.282-.595.282.264.282.033.282-.185.282.329.282 1.562 1.41 13.754.564 7.066.282 1.213.282 1.75.563 9.211.282 1.232.846-7.196.564-.923.282-.05.564 1.518.282.801.282 1.517 1.128 9.416.564 7.546 1.128 8.343.282.018.282.27.563 4.94.282-1.023.282-6.698.282-14.046.564-54.331.846-88.053.564-33.277.282-5.883.282-1.9.282-.432.282 1.676.282 5.605.564 24.556.846 57.749.846 58.678.563 21.719.282 6.422.282 1.901 1.41-8.11.282-.292.282.342.282-1.244 1.974-20.63.282-1.61.282.033.564 3.307.282.422.282-.1.282.234.845 1.732.282.985.282 1.543 1.974 15.755.564 5.603.846 6.58.564 8.123 1.692 24.757.563 8.561.282 1.718.282-3.246.282-10.09.282-18.976.846-93.22.564-57.79.282-18.238.564-18.43.282-6.036.282-2.572.282 1.362.282 3.75.282 6.198.282 10.413.564 34.494 1.128 82.715.563 22.744.564 11.593.282 3.235.282.916.282-.752.564-3.178 1.128-10.627.846-10.848.282-2.102.564-2.126.282-.519.282.747.846 6.299.282.904.563 2.7.564 1.008.564 2.278.282 1.517.564 5.812.564 4.595.282 2.102 1.128 12.778.282 2.563 1.128 13.51.564 6.55.564 8.934.563 9.3.282 3.093.282.615.282-6.161.282-16.94.564-59.533.846-95.406.564-37.567.282-11.404.282-6.654.282-2.39.282.107.282 2.03.282 5.042.564 18.822.564 33.591 1.127 83.097.564 23.172.564 9.899.282 2.641.282.607.282-.512.282-1.76 1.128-16.186.564-2.91.282-.636.564.478.282.109.282.573.564 2.475.564 5.117 1.127 10.217.282 1.566.282-1.476.282-2.284.282-.004.846 5.839.564 9.819.564 9.452.564 6.616.282.476.282-.565.282.31.282 1.713.564 5.853.282 3.236.282 1.889.282-.035.282-.574.563.96.282-2.496.282-8.808.282-17.054.564-58.065.846-96.177.282-21.282.282-12.87.282-5.146.282-.546.282 1.433.282 3.241.282 5.56.564 17.411.564 23.824.564 35.989.845 61.46.564 28.063.282 5.314.282-.592.282-1.051.564 1.725.564-2.677.564.533.282-1.215.564-2.75.564-1.882.564-2.527.564-2.897.282-.137.282.43.282-.07.564-1.256.281.067.282 1.025.846 4.518.282 1.07.282.298.564-1.479.282 1.224.846 5.366.846 12.578.282 2.598.846 12.712.564 4.865 1.127 16.513.282 4.442.282 2.404.282-2.952.282-12.22.564-55.8.846-106.167.282-23.873.282-14.26.282-7.12.282-2.704.282.576.846 7.67.282 6.573.564 25.636.564 32.694 1.127 79.277.564 20.835.282 5.67.282 1.316.846-3.722.846-5.875.282-1.095.282-2.96.564-7.833.564-6.929.282-3.595.282-2.073.282-1.116.282-.595.282.848.282 1.837.282 1.092.282.275.281.866.564 3.384 1.692 12.044.846 5.051.564 4.494.846 9.631.846 7.613.282 1.099.282 2.199 1.127 19.325.564 9.447.282.114.282-8.198.282-18.093.564-59.19.846-98.861.282-16.663.282-8.737.282-3.885.282-.964.282.647.282 1.972.282 4.283.564 15.835.564 23.82.564 34.186.845 54.526.564 21.92.564 12.327.282 2.69.282.831.282.006.282.187.846 1.923.282 1.866.564 4.59.282.608.282 1.42.846 10.002.564 2.13.282-.592.282-5.943.282-13.1.563-43.23.846-71.051.282-15.2.282-8.997.282-3.748.282-.224.282 2.407.564 11.87.564 16.914.564 24.693.846 43.278.282 9.063.564 7.656.564 5.877.563 1.222.846 5.929.282-.423.564-1.557.282-.531.282-1.608.282-3.937.846-17.206.564-8.124.282-2.416.282-.594.282.055.282-.385.282-.132.282.924.846 4.008.564 7.854.563 6.926 1.41 15.904 1.128 16.327.282 3.206.846 5.242.846 12.185.846 16.62.564 5.756.282 1.017.282-5.008.281-15.24.282-27.523 1.128-150.758.282-12.734.282-4.252.282-1.114.282.938.564 5.081.282 1.413.282 2.405.564 11.588.564 21.177 1.692 88.845.282 6.16.282 2.551.281.585.282-.426.282-.94.564-3.356.564-4.418.282-1.185.282.583.564 3.628.564 1.468.564 3.035.282.268.564-.866.282.022.282.207.282.671.282 1.487.564 5.723.563 4.843.282.549.282-.375.282-1.083.564-4.134.564-5.373.564-5.789.282-1.244.564-.346.282-.887.282-1.339.282-.734.282.566.564 3.173.282 2.376.564 10.187.564 9.532.563 7.405.282 1.6.282.916.282 2.435 1.128 16.132.564 10.45.846 10.088.282 2.554.282-2.248.282-11.62.282-22.728.564-72.632.564-74.383.282-19.692.282-8.448.282-3.393.282-.948.282 1.962.563 10.002.564 15.78.846 31.344 1.41 69.845.564 21.293.282 4.27.282 1.31.282.163.282-.5.282-1.28.564-3.892.282-.959.282-.543.564-2.728.281-.3.282.656.282-.17.564-2.03.564 1.264.282-.196.282-.61.282.708.846 6.72.282.08.282.575.282 1.22.282.507.282-.132.282.358.846 3.019 1.41 8.658.563 5.813.282 1.28.564-1.615.282 1.951.564 6.618.564 5.094.564 6.51.564 6.194.564 8.888.282 1.063.282-5.847.282-15.705.564-61.315.564-70.397.282-21.158.281-9.8.282-2.982.564-.89.282-.188.282 1.8.846 15.812.282 6.687.564 23.84 1.692 73.224.282 7.386.282 4.244.564 3.236.282 1 .282-.173.563-2.292.282-1.698 1.692-17.057.282.132.846 4.961.564 4.52.282.383.282-.558.282.658.846 8.2.564 6.445.564 6.205.282.811.281-1.624.564-5.702.282-1.366.282-.573.282.219.282 1.652.564 6.451 1.41 21.948 1.41 30.587.282 2.505.282-8.072.282-19.815.564-66.787.564-69.825.281-17.187.282-6.055.282-1.633.282-.808.282.074.564 1.632.282 2.162.282 4.988.846 23.546 1.692 61.89.846 19.79.282 4.503.282 1.069.282-1.373.282-2.097.845-8.11.282-.51.846-3.209.282-.677.282-1.814.282-.171.564 6.808.282.027.282-1.908.282-.778.564.753.282 1.177.846 8.146.564 2.8 1.127 9.601.846 9.482.564 7.406.564 4.426 1.692 23.888.564 4.25.282 3.053.282 1.43.282-3.16.282-10.405.282-21.53.846-102.321.282-17.805.281-8.04.282-3.494.282-1.326.282-.344.282.023.282.868.564 5.062.282 3.134.282 4.98.846 25.645 1.41 47.871.564 9.74.564 4.212.282.954.282 1.521.563 6.515.282.69.282-2.455 1.41-18.225.282-.75.564.374.282-.464.846-4.85.564-3.598.282-.324.282 1.503 1.128 9.025.846 10.724.563 6.507.564 8.265.846 9.55 1.692 23.885.846 15.479.282 3.996.282 1.38.282-5.532.282-16.091.564-62.254.564-53.168.282-10.074.845-16.367.282-1.379.282.688.282 1.963.564 9.277.564 11.56 1.974 53.737.564 8.286.564 3.97.282.746.282.208.282-.246.282-.749.845-3.811.846-2.438.564-2.627.282-.318.564.151.282.92 1.41 11.016.564 5.541.846 7.04 1.41 12.47.281 1.275.282-1.921.846-11.844.282-2.396.282-.834.282 1.137.564 3.842.282 3.498 1.41 25.465.282.354.282-8.562.564-44.923.564-42.473.564-16.083.563-7.18.282-.912.282.199.282 1.072.282 2.17.282 4.056.846 20.123.846 24.21.564 14.505.564 8.268.282 2.276.282 1.361.282-.246.564-3.974 1.128-8.8.563-1.495.564-2.245.282.402.564 2.131.564-.631 1.128 2.926.282 1.942.564 5.527.564 3.324.846 3.919.282.731.564.879.282 1.227 1.127 8.225.282 1.277.564 5.987 1.41 16.812.282 1.553.564 4.55.282.648.282-2.766.282-9.071 1.128-71.207.564-13.873.282-4.718.281-2.518.282-1.457.282-2.26.846-11.508.282-.346.282 2.686.564 11.33 1.974 48.839.282 2.967.564 2.795.282.936.282-.491.564-2.63.845-1.054.564-1.893.282-.141.282.253.282-.601.564-2.426.564-.248.282.109.282 1.373.564 5.49.564 2.933.564 2.532.282.53.282.255.564 1.091.282.926.282 1.592 1.41 11.31.281 1.362.564 6.101 1.41 15.071.564 3.003.282 1.056.282-.323.282-5.522.564-31.212.564-30.52.564-20.14.282-5.216.563-5.228.282-3.471.282-1.79.282.328.564 2.339.282 3.214 1.128 22.58.846 24.97.282 2.626.282-.238.564-1.837.282-.149.282-.634.564-2.685.282.742.282 1.25.282.263.563-.8.282-1.744.282-2.617.282-1.556.282-.24.564-1.772.282.172.564 3.133 2.538 17.263 1.128 7 .845 5.945.846 3.711.846 10.285.282-.22.846-7.336.564-4.151.282-.018.282.935.282-3.964.564-27.848.564-26.809.564-16.7.282-2.558.282-.241.282 1.041.563 6.493.846 9.629.564 3.974.564 2.852.282 2.617.564 10.388.282 5.241.282 2.77.282.804.282.324.564 1.69.282.18.282-.445.282.291.564 3.196.282.591.282.257.282 1.04.563 3.086.564 2.222 1.128 5.89.282 2.16.282.256.282-2.115.846-8.807.282-1.468.564-.716.282-2.202.564-5.86.846-5.858.282.492.845 6.325.282 3.712 1.128 23.928 1.128 14.594.846 3.48.282-3.752.282-9.66 1.128-53.38.564-16.68.282-4.19.282-2.486.282-1.125.282.969.563 5.53.564 7.87.564 11.75 1.128 27.1.564 8.724.282 2.394.282-.518.564-2.564.282-1.475.564-4.396.564-.86.282-1.768.846-8.634.281-1.664.846-2.513.282-.458.282.653.564 2.76.282.703.282.067.282.246.282 1.14.564 3.695.564 3.445.564 4.702.564 3.88 1.128 9.534.282.307.281-1.257.282-.37 1.128 7.14.564 5.913.282 1.319.282-.23.282-.623.564.009.282-1.892.282-6.027 1.41-46.895.564-10.398.564-6.187.845-5.448.282-.217.282 2.043 1.128 14.898.846 18.348.846 14.74.282 1.779.282.068.282-.515.564-2.177.282-.305.564 1.832.282-.212.282-2.188 1.127-13.814.282-1.936.282-1.017.282.106 1.128 2.258.564 2.246.282 1.235.282 1.783.564 6.047 1.41 14.655.846 7.659.564 2.379.563 1.742.846 3.092.282.59.564 3.298.282-.229 1.128-11.164.282-5.98.564-19.614.846-30.068.282-4.628.282-2.205.564-1.825.282.533.845 7.28.282 2.561.564 9.643 1.128 23.482.846 11.836.282 2.27.282.222.282-1.253.282-3.395.846-15.504.846-8.443.282-.8.564-.496.282.39.563 2.29.564.129.282 1.392.564 5.619.564 6.708.282 1.819.846 2.243.282.745.282-.143.282-.733.564-.546.282.145.282.808.564 2.725.282.876.846 4.142.281.365.282.693.564 3.225.564 5.937.282 3.117.282 1.346.564.394.282-.04.282-2.184.282-5.748.564-21.229.564-21.974.564-14.94.282-4.295.282-2.111.282-.83.282.267.282 1.547 1.127 13.99 1.692 27.111.282 2.306.564 2.579.282.025.564-3.151.282-.02.564 2.174.564.483.564 1.162.282-.27.564-.873.281.34.564 1.26.282-.413.282-1.699.846-6.925.282-.895.282.596.282 1.865.282.835.282-1.11.282-1.793.282.001.564 2.686.282.404.282 1.157.564 3.973 1.128 2.829.282.296.845 2.68.282 1.796 1.692 18.468.282-.588.282-4.214.282-7.364 1.128-38.573.564-9.103.282-2.201.282-.427.282-.013.282.167.282.815.282 2.67 1.41 17.46 1.127 13.778.282 2.229.282.574.282-.555.564-2.98.282-.484.282.218.282-.941.282-1.518.282-.217.564 5.048.564 4.84.282 1.455.282.202.281-1.447h0" clip-path="url(#p42cbdb4bb7)" style="fill:none;stroke:#1f77b4;stroke-width:1.5;stroke-linecap:square"/><path id="patch_3" d="M71.308 266.112V0" style="fill:none;stroke:gray;stroke-width:.8;stroke-linejoin:miter;stroke-linecap:square"/><path id="patch_4" d="M685.107 266.112V0" style="fill:none;stroke:#000;stroke-width:.8;stroke-linejoin:miter;stroke-linecap:square"/><path id="patch_5" d="M71.308 266.112h613.8" style="fill:none;stroke:gray;stroke-width:.8;stroke-linejoin:miter;stroke-linecap:square"/><path id="patch_6" d="M71.308 0h613.8" style="fill:none;stroke:#000;stroke-width:.8;stroke-linejoin:miter;stroke-linecap:square"/></g></g><defs><clipPath id="p42cbdb4bb7"><path d="M71.308 0h613.8v266.112h-613.8z"/></clipPath></defs></svg>