<svg xmlns="http://www.w3.org/2000/svg" xmlns:xlink="http://www.w3.org/1999/xlink" width="913.477" height="377.053" viewBox="0 0 685.107 282.79"><defs><style>*{stroke-linejoin:round;stroke-linecap:butt}</style></defs><g id="figure_1"><path id="patch_1" d="M0 282.79h685.107V0H0v282.79z" style="fill:none"/><g id="axes_1"><path id="patch_2" d="M71.308 266.112h613.8V0h-613.8v266.112z" style="fill:none"/><g id="matplotlib.axis_1"><g id="xtick_1"><g id="line2d_1"><defs><path id="m6cf25db8b6" d="M0 0v3.5" style="stroke:gray;stroke-width:.8"/></defs><use xlink:href="#m6cf25db8b6" x="99.207" y="266.112" style="fill:gray;stroke:gray;stroke-width:.8"/></g><g id="text_1" style="fill:gray" transform="matrix(.1 0 0 -.1 96.026 280.71)"><defs><path id="DejaVuSans-30" d="M2034 4250q-487 0-733-480-245-479-245-1442 0-959 245-1439 246-480 733-480 491 0 736 480 246 480 246 1439 0 963-246 1442-245 480-736 480zm0 500q785 0 1199-621 414-620 414-1801 0-1178-414-1799Q2819-91 2034-91q-784 0-1198 620-414 621-414 1799 0 1181 414 1801 414 621 1198 621z" transform="scale(.01563)"/></defs><use xlink:href="#DejaVuSans-30"/></g></g><g id="xtick_2"><use xlink:href="#m6cf25db8b6" id="line2d_2" x="168.958" y="266.112" style="fill:gray;stroke:gray;stroke-width:.8"/><g id="text_2" style="fill:gray" transform="matrix(.1 0 0 -.1 159.414 280.71)"><defs><path id="DejaVuSans-35" d="M691 4666h2478v-532H1269V2991q137 47 274 70 138 23 276 23 781 0 1237-428 457-428 457-1159 0-753-469-1171Q2575-91 1722-91q-294 0-599 50Q819 9 494 109v635q281-153 581-228t634-75q541 0 856 284 316 284 316 772 0 487-316 771-315 285-856 285-253 0-505-56-251-56-513-175v2344z" transform="scale(.01563)"/></defs><use xlink:href="#DejaVuSans-35"/><use xlink:href="#DejaVuSans-30" x="63.623"/><use xlink:href="#DejaVuSans-30" x="127.246"/></g></g><g id="xtick_3"><use xlink:href="#m6cf25db8b6" id="line2d_3" x="238.708" y="266.112" style="fill:gray;stroke:gray;stroke-width:.8"/><g id="text_3" style="fill:gray" transform="matrix(.1 0 0 -.1 225.982 280.71)"><defs><path id="DejaVuSans-31" d="M794 531h1031v3560L703 3866v575l1116 225h631V531h1031V0H794v531z" transform="scale(.01563)"/></defs><use xlink:href="#DejaVuSans-31"/><use xlink:href="#DejaVuSans-30" x="63.623"/><use xlink:href="#DejaVuSans-30" x="127.246"/><use xlink:href="#DejaVuSans-30" x="190.869"/></g></g><g id="xtick_4"><use xlink:href="#m6cf25db8b6" id="line2d_4" x="308.457" y="266.112" style="fill:gray;stroke:gray;stroke-width:.8"/><g id="text_4" style="fill:gray" transform="matrix(.1 0 0 -.1 295.733 280.71)"><use xlink:href="#DejaVuSans-31"/><use xlink:href="#DejaVuSans-35" x="63.623"/><use xlink:href="#DejaVuSans-30" x="127.246"/><use xlink:href="#DejaVuSans-30" x="190.869"/></g></g><g id="xtick_5"><use xlink:href="#m6cf25db8b6" id="line2d_5" x="378.207" y="266.112" style="fill:gray;stroke:gray;stroke-width:.8"/><g id="text_5" style="fill:gray" transform="matrix(.1 0 0 -.1 365.483 280.71)"><defs><path id="DejaVuSans-32" d="M1228 531h2203V0H469v531q359 372 979 998 621 627 780 809 303 340 423 576 121 236 121 464 0 372-261 606-261 235-680 235-297 0-627-103-329-103-704-313v638q381 153 712 231 332 78 607 78 725 0 1156-363 431-362 431-968 0-288-108-546-107-257-392-607-78-91-497-524-418-433-1181-1211z" transform="scale(.01563)"/></defs><use xlink:href="#DejaVuSans-32"/><use xlink:href="#DejaVuSans-30" x="63.623"/><use xlink:href="#DejaVuSans-30" x="127.246"/><use xlink:href="#DejaVuSans-30" x="190.869"/></g></g><g id="xtick_6"><use xlink:href="#m6cf25db8b6" id="line2d_6" x="447.957" y="266.112" style="fill:gray;stroke:gray;stroke-width:.8"/><g id="text_6" style="fill:gray" transform="matrix(.1 0 0 -.1 435.233 280.71)"><use xlink:href="#DejaVuSans-32"/><use xlink:href="#DejaVuSans-35" x="63.623"/><use xlink:href="#DejaVuSans-30" x="127.246"/><use xlink:href="#DejaVuSans-30" x="190.869"/></g></g><g id="xtick_7"><use xlink:href="#m6cf25db8b6" id="line2d_7" x="517.707" y="266.112" style="fill:gray;stroke:gray;stroke-width:.8"/><g id="text_7" style="fill:gray" transform="matrix(.1 0 0 -.1 504.983 280.71)"><defs><path id="DejaVuSans-33" d="M2597 2516q453-97 707-404 255-306 255-756 0-690-475-1069Q2609-91 1734-91q-293 0-604 58T488 141v609q262-153 574-231 313-78 654-78 593 0 904 234t311 681q0 413-289 645-289 233-804 233h-544v519h569q465 0 712 186t247 536q0 359-255 551-254 193-729 193-260 0-557-57-297-56-653-174v562q360 100 674 150t592 50q719 0 1137-327 419-326 419-882 0-388-222-655t-631-370z" transform="scale(.01563)"/></defs><use xlink:href="#DejaVuSans-33"/><use xlink:href="#DejaVuSans-30" x="63.623"/><use xlink:href="#DejaVuSans-30" x="127.246"/><use xlink:href="#DejaVuSans-30" x="190.869"/></g></g><g id="xtick_8"><use xlink:href="#m6cf25db8b6" id="line2d_8" x="587.457" y="266.112" style="fill:gray;stroke:gray;stroke-width:.8"/><g id="text_8" style="fill:gray" transform="matrix(.1 0 0 -.1 574.732 280.71)"><use xlink:href="#DejaVuSans-33"/><use xlink:href="#DejaVuSans-35" x="63.623"/><use xlink:href="#DejaVuSans-30" x="127.246"/><use xlink:href="#DejaVuSans-30" x="190.869"/></g></g><g id="xtick_9"><use xlink:href="#m6cf25db8b6" id="line2d_9" x="657.207" y="266.112" style="fill:gray;stroke:gray;stroke-width:.8"/><g id="text_9" style="fill:gray" transform="matrix(.1 0 0 -.1 644.482 280.71)"><defs><path id="DejaVuSans-34" d="M2419 4116 825 1625h1594v2491zm-166 550h794V1625h666v-525h-666V0h-628v1100H313v609l1940 2957z" transform="scale(.01563)"/></defs><use xlink:href="#DejaVuSans-34"/><use xlink:href="#DejaVuSans-30" x="63.623"/><use xlink:href="#DejaVuSans-30" x="127.246"/><use xlink:href="#DejaVuSans-30" x="190.869"/></g></g></g><g id="matplotlib.axis_2"><g id="ytick_1"><g id="line2d_10"><defs><path id="mc1f144e793" d="M0 0h-3.5" style="stroke:gray;stroke-width:.8"/></defs><use xlink:href="#mc1f144e793" x="71.308" y="241.963" style="fill:gray;stroke:gray;stroke-width:.8"/></g><g id="text_10" style="fill:gray" transform="matrix(.16 0 0 -.16 0 248.042)"><defs><path id="DejaVuSans-2212" d="M678 2272h4006v-531H678v531z" transform="scale(.01563)"/></defs><use xlink:href="#DejaVuSans-2212"/><use xlink:href="#DejaVuSans-32" x="83.789"/><use xlink:href="#DejaVuSans-30" x="147.412"/><use xlink:href="#DejaVuSans-30" x="211.035"/><use xlink:href="#DejaVuSans-30" x="274.658"/><use xlink:href="#DejaVuSans-30" x="338.281"/></g></g><g id="ytick_2"><use xlink:href="#mc1f144e793" id="line2d_11" x="71.308" y="194.906" style="fill:gray;stroke:gray;stroke-width:.8"/><g id="text_11" style="fill:gray" transform="matrix(.16 0 0 -.16 0 200.984)"><use xlink:href="#DejaVuSans-2212"/><use xlink:href="#DejaVuSans-31" x="83.789"/><use xlink:href="#DejaVuSans-30" x="147.412"/><use xlink:href="#DejaVuSans-30" x="211.035"/><use xlink:href="#DejaVuSans-30" x="274.658"/><use xlink:href="#DejaVuSans-30" x="338.281"/></g></g><g id="ytick_3"><use xlink:href="#mc1f144e793" id="line2d_12" x="71.308" y="147.848" style="fill:gray;stroke:gray;stroke-width:.8"/><use xlink:href="#DejaVuSans-30" id="text_12" style="fill:gray" transform="matrix(.16 0 0 -.16 54.127 153.927)"/></g><g id="ytick_4"><use xlink:href="#mc1f144e793" id="line2d_13" x="71.308" y="100.791" style="fill:gray;stroke:gray;stroke-width:.8"/><g id="text_13" style="fill:gray" transform="matrix(.16 0 0 -.16 13.408 106.87)"><use xlink:href="#DejaVuSans-31"/><use xlink:href="#DejaVuSans-30" x="63.623"/><use xlink:href="#DejaVuSans-30" x="127.246"/><use xlink:href="#DejaVuSans-30" x="190.869"/><use xlink:href="#DejaVuSans-30" x="254.492"/></g></g><g id="ytick_5"><use xlink:href="#mc1f144e793" id="line2d_14" x="71.308" y="53.734" style="fill:gray;stroke:gray;stroke-width:.8"/><g id="text_14" style="fill:gray" transform="matrix(.16 0 0 -.16 13.408 59.813)"><use xlink:href="#DejaVuSans-32"/><use xlink:href="#DejaVuSans-30" x="63.623"/><use xlink:href="#DejaVuSans-30" x="127.246"/><use xlink:href="#DejaVuSans-30" x="190.869"/><use xlink:href="#DejaVuSans-30" x="254.492"/></g></g><g id="ytick_6"><use xlink:href="#mc1f144e793" id="line2d_15" x="71.308" y="6.676" style="fill:gray;stroke:gray;stroke-width:.8"/><g id="text_15" style="fill:gray" transform="matrix(.16 0 0 -.16 13.408 12.755)"><use xlink:href="#DejaVuSans-33"/><use xlink:href="#DejaVuSans-30" x="63.623"/><use xlink:href="#DejaVuSans-30" x="127.246"/><use xlink:href="#DejaVuSans-30" x="190.869"/><use xlink:href="#DejaVuSans-30" x="254.492"/></g></g></g><path id="line2d_16" d="m99.207 147.87.846-.038.846.027 1.692-.009 7.331-.05.282.103.282-.115.282.128.282-.143.282.162.282-.186.282.216.282-.257.282.314.282-.4.282.539.282-.718.281 14.011.282 5.136.564.632.282-2.204.282-.826.282.467.282 1.8.282.742.282 1.262 1.128 7.396.564 4.687.282-1.223.282-4.503.282-9.607.564-37.49.564-43.184.282-12.333.282-4.978.282-.315.281 2.79.282 7.816 1.974 82.465.564 6.804.564 4.05.282 1.557.282-.62.564-5.248.282-1.187.282-2.496.564-8.354.282-1.023.282-.087.282-.684.282-.158.281 2.098.282 3.009.282 1.703.282.177.282.84.282 1.931.282.946.564-3.693.282-.5.282-.113.282-1.65.282-.899.282 2.698.282 4.356.282 1.81.282.473.282 3.202.282 5.288.282 2.82.282.454.282 1.839.282 3.171.282.146.282-4.367.281-7.693.282-11.737.564-39.631.564-38.073.282-11.565.282-5.607.282-.405.282 3.053.282 5.57.282 9.078 1.692 75.62.282 5.31.282 2.701.282.568.282-.558.564-2.004.282-1.686.282-3.127.563-8.77.282-2.075.282.506.564 3.4.564 1.976.564 3.817.282-.543.282-1.3.282.866.282 2.7.282 1.362.282-.031.282 1.85.564 8.654.282 1.403.282.719.564 3.434.282.673.282 1.625.845 10.46.282 1.792.282.845.282-3.364.282-10.18.564-36.626.846-65.327.282-13.786.282-7.498.282-2.427.282.855.282 3.479.282 6.52.564 21.1 1.41 67.01.563 10.535.282 2.662.282-.767.282-1.896.564-1.32.846-4.57.282.012.282-.135.282-.286.282.262.282.42.282.166.282.797 1.128 8.522.846 2.315.845 4.038.846 10.697.564 1.68.564 5.08.282.468.282-.503.282.54.282.806.282-1.902.282-7.085.282-14.01 1.41-108.475.282-10.497.282-4.747.282-.1.282 3.324.282 6.601.563 21.54.564 33.88.564 35.19.564 16.36.564 6.989.282 1.342.282.128.564-2.114.282-1.011.846-4.349.282.045.282-.606.282-1.425.282-.324.282.75.282-.844.282-2.766.282-1.325.281 2.065.564 5.804.564 4.809 1.41 12.799 1.128 8.409.564 7.01.282 1.518.282-.426.282-3.124.282-8.55.282-16.229 1.41-109.287.281-10.255.282-4.219.282 1.04.282 3.953.282 6.534.282 11.8 1.41 83.36.282 10.195.282 2.897.282-.203.564 1.247.282-1.176 2.537-16.74.282.16.846 6.297.282.9.282 3.213.846 15.333 1.692 15.41 1.128 10.152.846 3.893.282-2.671.282-8.812.281-16.278 1.41-118.484.282-11.258.282-5.915.282.108.282 4.803.282 7.62.564 25.716 1.41 80.998.282 7.253.282 1.419.282.275.282.785.282-1.093.564-7.283.563-3.088.564-4.312.282 1.029.282 1.815.564 2.497.564 3.887.282.318.282 1.585.564 7.385.564 4.546 1.692 20.658.564 3.568.563 4.97.564 2.098.282-1.475.282-8.352.564-40.873 1.128-98.309.564-19.549.282-4.665.282-.96.282 4.077.564 19.625.564 30.918.846 47.174.564 20.132.282 4.615.845 8.325.282-.082.564-3.356.282.28.564 1.78.282.247.282.011.282.729.564 3.517.282.026.282-.46.282 1.692.846 11.8.846 9.467.845 5.045.282 1.671.282 3.41.564 10.613.282 3.035.282 1.097.282-1.837.282-8.114.282-16.693.564-55.537.564-59.055.564-34.942.282-11.186.282-4.998.282 1.137.282 3.783.282 5.735.282 10.302 1.973 96.78.564 11.044.564 5.334.846 5.672.282.982.282.278.564.312.282.173.282.435.282 1.215 1.692 10.695 1.127 10.06.846 9.957.282 3.106.846 14.632.846 5.969.282-5.615.282-14.524.564-53.067.846-84.395.564-33.931.282-7.625.282-1.744.282 1.232.282 3.683.281 7.695.564 25.433 1.41 79.166.564 15.641.564 8.072.282 1.117.282.046.282 1.771.282 3.12.282 1.341.282-.272.282 1.25.282 2.33.282-.026.564-4.347.282-.199.282.633.282 1.59.563 4.553.282 1.204.282 1.897.564 5.666.564 4.43.564 5.945.564 4.346 1.128 16.061.282 3.105.282-.817.282-9.838.564-48L263.59 47.74l.281-14.467.282-7.706.282-3.795.282.031.282 5.62.564 24.119.846 48.601.564 28.187.846 32.091.282 5.601.282 2.16.282.939.564 2.69.282.047.282-.645.282.07.282-.08.282-2.348.281-3.514.282-1.304.564 2.023.282-.167.282 1.56 1.692 24.61.564 6.225 1.128 16.233.564 9.006.282.908.282.074.282-2.002.282-10.152.564-52.223.845-88.827.564-34.743.564-14.606.282-3.909.282.676.282 6.613.564 24.939 1.692 95.571.564 15.195.564 8.252.282 2.947.282.403.563-2.287.282-.225.282-1.058.564-3.746.282-.735.282-.217.282.695.282 2.788.846 12.956.282 1.974.846 8.508.282.883.282 2.133 1.128 17.747.564 10.256.564 6.646.281.028.282-7.968.282-17.251.564-54.56.846-92.317.564-31.465.282-9.32.282-4.012.282 1.76.282 6.006.564 20.656.564 35.803.564 37.892.846 39.589.282 8.94.282 3.658.281 1.35.564 3.725.282.38.282-.424.282-.792.846-4.712.564 1.681.282-.155.564-1.929.282.563.282 2.946 1.41 22.867.846 13.737.845 12.14.282 2.868.564 3.527.282 2.644.282 1.14.282-4.192.282-12.77.282-23.128 1.128-129.01.564-33.1.282-6.496.282-1.4.282 1.3.282 3.512.564 15.004.564 26.082 1.127 67.773.564 24.567.282 7.024.282 3.26.564 3.371.282.533.282-.353.282.219.846 4.036.564.434.282.327.282.752.282 1.757.564 4.658.564 3.926 1.127 10.999.564 7.94.564 4.862.564 8.973.564 8.019.282.637.282-3.569.282-10.24.282-19.062.564-62.319.564-63.962.564-36.792.282-8.616.282-3.372.282.608.282 4.08.563 16.875.564 22.77 1.128 60.63.564 22.066.564 13.023.282 5.336.282 2.943.282.628.282 1.31.282 2.689.282 1.342.282-.634.282-.163.282.972.282.14.282-.608.282 1.079.564 5.778.563 2.867 1.41 11.55.282 3.239.564 10.3.564 5.95.564 8.948.282 2.376.282 1.194.282-.386.282-5.943.282-14.985.564-58.392.564-69.919.564-38.406.282-10.008.281-4.814.282-.447.282 1.41.282 2.403.282 4.295.282 6.427.282 9.472.564 32.806.846 47.384.564 19.802.564 12.36.564 12.944.282 1.384.282.273.564 1.825 1.41 1.505.281.954.282 2.086.846 8.051.282 1.197.564 4.296.282.782.282.088.282 2.778.846 15.474.846 12.793.564 5.205.282-2.31.282-13.891.564-56.815.845-91.715.282-15.507.564-14.573.282-4.556.282-1.89.282-.257.282.612.282 3.32.564 16.807.564 25.524.846 44.108.846 30.74.564 10.973.564 8.165.563 5.262.282.792.282-.15.282.064.564 1.306.282 1.951.564 7.868.282 2.002.282.995.282 2.346.282 3.31.282 1.917.282.721.282 2.126 2.256 36.156.282.47.282-5.72.281-15.838.564-65.617.564-67.468.564-34.47.564-15.888.564-8.717.282-1.945.282 3.452.846 24.654.564 29.546.564 31.713.846 35.929.282 7.854 1.127 16.056.282 1.182.282-.141.282 1.456.282 2.476.282 1.137.282-.177.282.473.846 4.817 1.692 17.743.846 14.8 1.41 25.644.281 2.6.282-1.77.282-11.707.282-25.514 1.128-130.307.282-17.013.282-9.133 1.128-16.715.282 2.273.564 10.025.282 6.859.564 24.866 1.128 52.835.563 17.533.564 8.67.564 4.55 1.41 9.93.282.72.282 1.104.282 2.995.846 13.62 1.974 27.69 1.973 32.238.282-1.91.282-10.66.282-21.223 1.41-149.945.564-21.81.564-12.69.282-1.125.282 1.879.282 3.678.282 5.494.282 8.454.845 40.094 1.41 59.292.846 12.057.282 2.79.282-.551.282-1.838.282-.257.846 4.53.282 2.428 2.256 30.165 2.537 54.525.282 3.879.282.067.282-5.52.282-15.09.564-66.725.564-68.908.564-37.52.564-21.691.282-5.847.282-1.655.282 1.066.282 2.108.282 3.813.563 16.377 1.128 45.065.564 25.254.564 15.35.564 8.718.564 4.295.282.99.282.406.282-.395.282-.588.282.948.282 4.176.564 12.23 1.41 15.465.281.403.282 2.335 1.128 21.067 1.128 22.662.846 16.146.282 3.009.282-7.015.282-22.583 1.128-124.492.564-34.361.564-19.558.281-1.911.564 2.316.282 2.694.564 13.81.564 18.027 1.128 38.83.846 24.618.564 11.127.282 1.806.282.712.282 1.324 1.973 17.933.846 9.714 1.128 12.204.282.637.846-1.99.282.355.282 1.923.564 7.424.564 13.749.282 7.747.282 4.156.282-2.037.282-10.993.282-22.965.845-99.399.564-33.583.564-19.158.282-2.566.282.34.282 1.465.282 2.534.282 4.257.564 15.705 1.128 40.935.564 21.637.564 13.925.564 8.31.564 7.112.282 1.576.281.752.564 2.506 1.41 8.58.564 7.775.564 1.361.564 5.045.282.27.282.84.564 8.289 1.128 17.224 1.127 26.22.282 2.283.282-1.69.282-12.88 1.692-154.518.282-13.806.282-7.412.282-1.453.846 3.746.282 4.634.846 23.822 1.41 49.005.563 15.833.846 11.788.564 6.646.282.636.282-.29.282.577.282.832.282-.861.282-1.784.282-.35.564 1.753.282.944.282 2.953.564 7.433.564 5.669.846 12.24.845 18.922.564 6.366 1.128 19.787.282-.809.282-10.334.282-22.048 1.128-119.997.564-26.454.282-5.674.282-1.2.282.234.282-.254.282.745.282 3.206.564 11.671 1.691 57.898 1.128 27.96.282 2.263.564 1.538.282-.133.282-1.169.282-.606.282.159.282-.224.282-.542.282.81.282 2.958.846 11.558 1.127 9.823.564 2.135.564 7.09.564 7.943.846 25.368.282 2.609.282 4.169.564 10.648.282-1.465.282-7.92.282-17.358 1.41-130.863.282-12.885.282-6.966.281-2.576.282-.047.282.985.282.393.282.726.282 3.838.564 11.862.282 4.6.564 17.301 1.128 32.764 1.128 17.991.564 3.297.846 11.116.282-.752.845-4.893.282-1.044.282.23.282 2.544.846 11.575 1.128 15.484.564 10.771.282 2.372.282.908.282 2.576.564 7.568.564 6.114.282 4.13.282 2.175.282-3.495.282-11.689.563-46.05.564-52.329.564-32.39.564-15.055.282-2.57.282.045.282 1.244.282 2.105.282 4.11.564 16.414 1.128 32.71.282 7.393.282 4.176.282 2.443.282 3.455 1.127 20.033.564 4.01.282 1.645.282.84.282.232.282.554.564 2.639.564 3.263.282-.095.282-1.068.282.83.564 6.451.282 1.95.282 2.997 1.692 29.8 1.41 13.55.281-.46.282-6.309.282-14.52.564-51.117.564-49.107.564-23.633.282-5.433.282-3.248.282-1.724.282-.134.282 1.1.282 2.06.282 4.057 2.537 63.705.564 6.836.564 4.386.282-.079.282-.99.282-.126.846 2.634.564.705.282 1.03.282 2.73 1.128 13.886 1.128 11.098.563 6.588 1.974 34.263.282 1.084.282-1.006.282-2.322.282-8.021.282-18.494.846-73.7.564-26.906.282-3.88.564 2.277.282-1.942.282-2.97.282-.725.563 4.607.282 2.52.282 4.075 1.41 30.187.564 8.24.564 3.747.564.885.564 3.966.282.695.282-.305.282.475.282 2.585.846 13.16.563 4.38.564 6.36.846 3.178.564 5.7.846 10.902.564 9.759.564 5.984.564 9.782.282 2.703.282.994.282-2.906.282-11.825.564-48.736.564-46.327.282-12.254.281-4.847 1.128-5.86.282-.37.282.957.564 6.519.564 10.855.846 19.913.564 9.737.282 3.276 1.128 6.306 1.41 6.076.281.671.564 2.923.282 1.845.846 8.393.282 1.254 1.128 8.12.846 9.107.564 7.112.846 10.337.564 8.863.282 1.95.282-.206.281-5.874.282-14.824.846-66.345.282-12.142.282-5.77.846-8.844.282-1.112.282.385.282 1.27.564 4.144.564 8.75 1.128 19.74 1.41 15.961 1.127 4.904.282-.307.282.365.846 3.72.282.845.564 2.667 1.41 8.108.846 7.017 2.537 33.705.282-.861.282-7.973.564-37.944.564-36.684.282-7.777.846-10.85.564-3.92.282-1.14.282.204.282 2.25.846 10.76.846 16.021.563 11.308.564 4.652.564 3.184.564 1.45.282 1.136.282.527.282-.15.282.112.282-.043.282-.614.282-.128 1.128 6.137.846 6.356.564 5.035.282 1.153.282 1.91 1.973 26.554.282 1.342.282.266.282-1.34.282-6.141.564-30.83.564-29.57.564-13.542.564-7.472.282-2.126.846-3.155.282.564.563 5.72.564 7.81.564 8.17.564 7.643.564 7.33.564 3.39.282.985.282.576.846.892.282.735.282.34.564-.9.282 1.21.846 7.026.564 2.8.563 3.255.282 1.17.282 2.575.564 6.69 1.128 9.414.282 3.508.564 10.58.282 2.216.282.82.282-2.079.282-9.594.846-47.936.564-16.25 1.127-16.507.282-1.88.282.377.282.585.282 1 .282 3.47 1.128 20.655.564 4.563.564 4.76.282 1.11.282.387.282 1.238.282 2.076.282 1.009.282-.093.282.353 1.128 7.554.563 3.99.282.75.282.431.282 1.055.564 3.505.564 3.88.282.921.282 1.475.846 6.921.564 3.91.846 6.376.282.782.282-3.482.282-9.453.846-36.795.563-15.6.282-4.19.282-.187.282 1.05.282-.882.564-4.761.282-.229.564.947.282 2.422.846 15.1.282 2.477.282 3.539.564 9.162.282.683.282-.114.282 1.469.282.794.564-3.088.282.715.281 1.797.282.995.282-.009.282.953.564 3.815.282.532.282.01.282.83.846 8.575.282.723.282 1.943.564 5.57.282 1.486.282 3.164.564 9.277.564 3.057.282 2.177.282.53.282-7.842.281-12.332h0" clip-path="url(#p4d8408c002)" style="fill:none;stroke:#1f77b4;stroke-width:1.5;stroke-linecap:square"/><path id="patch_3" d="M71.308 266.112V0" style="fill:none;stroke:gray;stroke-width:.8;stroke-linejoin:miter;stroke-linecap:square"/><path id="patch_4" d="M685.107 266.112V0" style="fill:none;stroke:#000;stroke-width:.8;stroke-linejoin:miter;stroke-linecap:square"/><path id="patch_5" d="M71.308 266.112h613.8" style="fill:none;stroke:gray;stroke-width:.8;stroke-linejoin:miter;stroke-linecap:square"/><path id="patch_6" d="M71.308 0h613.8" style="fill:none;stroke:#000;stroke-width:.8;stroke-linejoin:miter;stroke-linecap:square"/></g></g><defs><clipPath id="p4d8408c002"><path d="M71.308 0h613.8v266.112h-613.8z"/></clipPath></defs></svg>