<svg xmlns="http://www.w3.org/2000/svg" xmlns:xlink="http://www.w3.org/1999/xlink" width="913.477" height="380.222" viewBox="0 0 685.107 285.166"><defs><style>*{stroke-linejoin:round;stroke-linecap:butt}</style></defs><g id="figure_1"><path id="patch_1" d="M0 285.166h685.107V0H0v285.166z" style="fill:none"/><g id="axes_1"><path id="patch_2" d="M71.308 268.488h613.8V2.376h-613.8v266.112z" style="fill:none"/><g id="matplotlib.axis_1"><g id="xtick_1"><g id="line2d_1"><defs><path id="m39b7289a57" d="M0 0v3.5" style="stroke:gray;stroke-width:.8"/></defs><use xlink:href="#m39b7289a57" x="99.207" y="268.488" style="fill:gray;stroke:gray;stroke-width:.8"/></g><g id="text_1" style="fill:gray" transform="matrix(.1 0 0 -.1 96.026 283.087)"><defs><path id="DejaVuSans-30" d="M2034 4250q-487 0-733-480-245-479-245-1442 0-959 245-1439 246-480 733-480 491 0 736 480 246 480 246 1439 0 963-246 1442-245 480-736 480zm0 500q785 0 1199-621 414-620 414-1801 0-1178-414-1799Q2819-91 2034-91q-784 0-1198 620-414 621-414 1799 0 1181 414 1801 414 621 1198 621z" transform="scale(.01563)"/></defs><use xlink:href="#DejaVuSans-30"/></g></g><g id="xtick_2"><use xlink:href="#m39b7289a57" id="line2d_2" x="168.958" y="268.488" style="fill:gray;stroke:gray;stroke-width:.8"/><g id="text_2" style="fill:gray" transform="matrix(.1 0 0 -.1 159.414 283.087)"><defs><path id="DejaVuSans-35" d="M691 4666h2478v-532H1269V2991q137 47 274 70 138 23 276 23 781 0 1237-428 457-428 457-1159 0-753-469-1171Q2575-91 1722-91q-294 0-599 50Q819 9 494 109v635q281-153 581-228t634-75q541 0 856 284 316 284 316 772 0 487-316 771-315 285-856 285-253 0-505-56-251-56-513-175v2344z" transform="scale(.01563)"/></defs><use xlink:href="#DejaVuSans-35"/><use xlink:href="#DejaVuSans-30" x="63.623"/><use xlink:href="#DejaVuSans-30" x="127.246"/></g></g><g id="xtick_3"><use xlink:href="#m39b7289a57" id="line2d_3" x="238.708" y="268.488" style="fill:gray;stroke:gray;stroke-width:.8"/><g id="text_3" style="fill:gray" transform="matrix(.1 0 0 -.1 225.982 283.087)"><defs><path id="DejaVuSans-31" d="M794 531h1031v3560L703 3866v575l1116 225h631V531h1031V0H794v531z" transform="scale(.01563)"/></defs><use xlink:href="#DejaVuSans-31"/><use xlink:href="#DejaVuSans-30" x="63.623"/><use xlink:href="#DejaVuSans-30" x="127.246"/><use xlink:href="#DejaVuSans-30" x="190.869"/></g></g><g id="xtick_4"><use xlink:href="#m39b7289a57" id="line2d_4" x="308.457" y="268.488" style="fill:gray;stroke:gray;stroke-width:.8"/><g id="text_4" style="fill:gray" transform="matrix(.1 0 0 -.1 295.733 283.087)"><use xlink:href="#DejaVuSans-31"/><use xlink:href="#DejaVuSans-35" x="63.623"/><use xlink:href="#DejaVuSans-30" x="127.246"/><use xlink:href="#DejaVuSans-30" x="190.869"/></g></g><g id="xtick_5"><use xlink:href="#m39b7289a57" id="line2d_5" x="378.207" y="268.488" style="fill:gray;stroke:gray;stroke-width:.8"/><g id="text_5" style="fill:gray" transform="matrix(.1 0 0 -.1 365.483 283.087)"><defs><path id="DejaVuSans-32" d="M1228 531h2203V0H469v531q359 372 979 998 621 627 780 809 303 340 423 576 121 236 121 464 0 372-261 606-261 235-680 235-297 0-627-103-329-103-704-313v638q381 153 712 231 332 78 607 78 725 0 1156-363 431-362 431-968 0-288-108-546-107-257-392-607-78-91-497-524-418-433-1181-1211z" transform="scale(.01563)"/></defs><use xlink:href="#DejaVuSans-32"/><use xlink:href="#DejaVuSans-30" x="63.623"/><use xlink:href="#DejaVuSans-30" x="127.246"/><use xlink:href="#DejaVuSans-30" x="190.869"/></g></g><g id="xtick_6"><use xlink:href="#m39b7289a57" id="line2d_6" x="447.957" y="268.488" style="fill:gray;stroke:gray;stroke-width:.8"/><g id="text_6" style="fill:gray" transform="matrix(.1 0 0 -.1 435.233 283.087)"><use xlink:href="#DejaVuSans-32"/><use xlink:href="#DejaVuSans-35" x="63.623"/><use xlink:href="#DejaVuSans-30" x="127.246"/><use xlink:href="#DejaVuSans-30" x="190.869"/></g></g><g id="xtick_7"><use xlink:href="#m39b7289a57" id="line2d_7" x="517.707" y="268.488" style="fill:gray;stroke:gray;stroke-width:.8"/><g id="text_7" style="fill:gray" transform="matrix(.1 0 0 -.1 504.983 283.087)"><defs><path id="DejaVuSans-33" d="M2597 2516q453-97 707-404 255-306 255-756 0-690-475-1069Q2609-91 1734-91q-293 0-604 58T488 141v609q262-153 574-231 313-78 654-78 593 0 904 234t311 681q0 413-289 645-289 233-804 233h-544v519h569q465 0 712 186t247 536q0 359-255 551-254 193-729 193-260 0-557-57-297-56-653-174v562q360 100 674 150t592 50q719 0 1137-327 419-326 419-882 0-388-222-655t-631-370z" transform="scale(.01563)"/></defs><use xlink:href="#DejaVuSans-33"/><use xlink:href="#DejaVuSans-30" x="63.623"/><use xlink:href="#DejaVuSans-30" x="127.246"/><use xlink:href="#DejaVuSans-30" x="190.869"/></g></g><g id="xtick_8"><use xlink:href="#m39b7289a57" id="line2d_8" x="587.457" y="268.488" style="fill:gray;stroke:gray;stroke-width:.8"/><g id="text_8" style="fill:gray" transform="matrix(.1 0 0 -.1 574.732 283.087)"><use xlink:href="#DejaVuSans-33"/><use xlink:href="#DejaVuSans-35" x="63.623"/><use xlink:href="#DejaVuSans-30" x="127.246"/><use xlink:href="#DejaVuSans-30" x="190.869"/></g></g><g id="xtick_9"><use xlink:href="#m39b7289a57" id="line2d_9" x="657.207" y="268.488" style="fill:gray;stroke:gray;stroke-width:.8"/><g id="text_9" style="fill:gray" transform="matrix(.1 0 0 -.1 644.482 283.087)"><defs><path id="DejaVuSans-34" d="M2419 4116 825 1625h1594v2491zm-166 550h794V1625h666v-525h-666V0h-628v1100H313v609l1940 2957z" transform="scale(.01563)"/></defs><use xlink:href="#DejaVuSans-34"/><use xlink:href="#DejaVuSans-30" x="63.623"/><use xlink:href="#DejaVuSans-30" x="127.246"/><use xlink:href="#DejaVuSans-30" x="190.869"/></g></g></g><g id="matplotlib.axis_2"><g id="ytick_1"><g id="line2d_10"><defs><path id="m25d00c27dc" d="M0 0h-3.5" style="stroke:gray;stroke-width:.8"/></defs><use xlink:href="#m25d00c27dc" x="71.308" y="245.359" style="fill:gray;stroke:gray;stroke-width:.8"/></g><g id="text_10" style="fill:gray" transform="matrix(.16 0 0 -.16 0 251.438)"><defs><path id="DejaVuSans-2212" d="M678 2272h4006v-531H678v531z" transform="scale(.01563)"/></defs><use xlink:href="#DejaVuSans-2212"/><use xlink:href="#DejaVuSans-31" x="83.789"/><use xlink:href="#DejaVuSans-30" x="147.412"/><use xlink:href="#DejaVuSans-30" x="211.035"/><use xlink:href="#DejaVuSans-30" x="274.658"/><use xlink:href="#DejaVuSans-30" x="338.281"/></g></g><g id="ytick_2"><use xlink:href="#m25d00c27dc" id="line2d_11" x="71.308" y="205.479" style="fill:gray;stroke:gray;stroke-width:.8"/><g id="text_11" style="fill:gray" transform="matrix(.16 0 0 -.16 10.18 211.558)"><use xlink:href="#DejaVuSans-2212"/><use xlink:href="#DejaVuSans-35" x="83.789"/><use xlink:href="#DejaVuSans-30" x="147.412"/><use xlink:href="#DejaVuSans-30" x="211.035"/><use xlink:href="#DejaVuSans-30" x="274.658"/></g></g><g id="ytick_3"><use xlink:href="#m25d00c27dc" id="line2d_12" x="71.308" y="165.599" style="fill:gray;stroke:gray;stroke-width:.8"/><use xlink:href="#DejaVuSans-30" id="text_12" style="fill:gray" transform="matrix(.16 0 0 -.16 54.127 171.678)"/></g><g id="ytick_4"><use xlink:href="#m25d00c27dc" id="line2d_13" x="71.308" y="125.719" style="fill:gray;stroke:gray;stroke-width:.8"/><g id="text_13" style="fill:gray" transform="matrix(.16 0 0 -.16 23.587 131.798)"><use xlink:href="#DejaVuSans-35"/><use xlink:href="#DejaVuSans-30" x="63.623"/><use xlink:href="#DejaVuSans-30" x="127.246"/><use xlink:href="#DejaVuSans-30" x="190.869"/></g></g><g id="ytick_5"><use xlink:href="#m25d00c27dc" id="line2d_14" x="71.308" y="85.839" style="fill:gray;stroke:gray;stroke-width:.8"/><g id="text_14" style="fill:gray" transform="matrix(.16 0 0 -.16 13.408 91.918)"><use xlink:href="#DejaVuSans-31"/><use xlink:href="#DejaVuSans-30" x="63.623"/><use xlink:href="#DejaVuSans-30" x="127.246"/><use xlink:href="#DejaVuSans-30" x="190.869"/><use xlink:href="#DejaVuSans-30" x="254.492"/></g></g><g id="ytick_6"><use xlink:href="#m25d00c27dc" id="line2d_15" x="71.308" y="45.959" style="fill:gray;stroke:gray;stroke-width:.8"/><g id="text_15" style="fill:gray" transform="matrix(.16 0 0 -.16 13.408 52.038)"><use xlink:href="#DejaVuSans-31"/><use xlink:href="#DejaVuSans-35" x="63.623"/><use xlink:href="#DejaVuSans-30" x="127.246"/><use xlink:href="#DejaVuSans-30" x="190.869"/><use xlink:href="#DejaVuSans-30" x="254.492"/></g></g><g id="ytick_7"><use xlink:href="#m25d00c27dc" id="line2d_16" x="71.308" y="6.079" style="fill:gray;stroke:gray;stroke-width:.8"/><g id="text_16" style="fill:gray" transform="matrix(.16 0 0 -.16 13.408 12.158)"><use xlink:href="#DejaVuSans-32"/><use xlink:href="#DejaVuSans-30" x="63.623"/><use xlink:href="#DejaVuSans-30" x="127.246"/><use xlink:href="#DejaVuSans-30" x="190.869"/><use xlink:href="#DejaVuSans-30" x="254.492"/></g></g></g><path id="line2d_17" d="m99.207 165.587 1.41.022 1.41-.02 1.41.02 1.41-.02 1.41.022 1.41-.026.845.03.846-.036.846.047.282-.058.282.067.282-.078.282.095.282-.123.282.175.282-.306.282 1.674 1.691 16.528.846 7.467.282-2.941.282-6.778.564-22.533 1.128-58.806.282-3.674.282-.249.282 1.326.282 6.79 1.41 66.225.564 9.696.282 2.56.281-.007.282-1.798.282-.133.564 4.74.282-2.741.282-4.564.282-1.587.282-.899.564-11.293.282-1.222.282 1.16.564-5.134.282 1.945.564 9.023.564 3.817.282 1.08.282-.857.564-5.519.282.433.281 2.803.282 1.414.282.509.282 3.645.282 5.811.282 3.055.282.398.282.743.282.353.282-.633.282 1.231.564 4.743.282 2.225.282 3.95.282-1.125 1.128-39 .846-51.68.564-22.34.281-6.412.282.22.282 6.626.564 29.376.846 47.784.564 15.607.564 12.81.282 2.567.846-3.345.282-4.904.282-6.937.282-3.751.282-1.32.564-9.564.282.21.282 5.702.282 2.882.282-1.926.281.049.282 3.244.282-.283.282-4.678.282-2.697.564 2.66.846 3.374.282.205.564 4.18.282-.268.282.338.564 7.26.282.929.282.46.564 4.124.282.13.282-.384.282 1.62.563 6.365.282-.198.282-2.315.282-3.549.282-6.505.282-11.51.564-36.563.846-61.719.282-9.426.282-3.285.282 2.09.282 8.576.564 34.091.846 53.483.564 19.255.282 7.885.282 3.928.563-1.254.282.678.282-1.056.846-12.568.282-4.519.282-2.372.282-.625.282-2.124.282-3.626.282-2.103.282-.212.282.121.282.597.282 1.358.282.62.282-.44.282.466.564 3.108.282-.07.282 1.41.564 8.062.282.891.281.03.564 3.844.282-1.085.282-2.012.282 1.952.564 8.53.282.238.282 1.266.282 2.561.564 1.829.564 7.287.282.57.282.236.282.871.282-3.422.282-10.47.564-32.756 1.127-93.343.282-10.426.282-2.355.282 3.92.282 9.412.564 34.251.846 59.397.282 10.104.564 10.765.282 3.736.282.704.282-.28.282 2.867.282 4.257.282.134.564-6.56.282-2.699.846-16.851.282-2.21.281-1.223.282-.308.282.943.846 7.513.282-.331.282.985.282 1.618.282-1.782.282-3.54.282-.38.282 1.674.282.547.282 1.038.282 2.206.282.558.282.256.564 8.493.282 1.337.282.651.564 6.023.282.84.281 1.593.282 2.502.282.53.282-.357.282 1.935.564 5.332.282 1.594.282 2.63.282 1.386.282-3.187.282-7.918.282-11.78.564-40.299.846-67.51.282-14.197.282-8.59.282-1.95.282 5.466.282 13.982 1.41 99.166.281 12.153.282 7.22.282 3.946.282 1.206.564-.863.282-2.107.846-18.68.282-2.41.846-11.842.846-6.288.282 1.587.282 2.47.564 2.654.564 7.694.563 6.55.564 4.59.282 2.453.282.135.282-1.663.282.285.564 5.465.846.942.282-.402.282-.693.282.315.282.642.564-.502.282 1.574.846 12.024.564 4.077.281 1.068.282-2.214.282-7.344.564-27.944 1.41-92.109.282-7.856.282-1.464.282 6.853.564 29.24 1.128 74.17.564 15.24.282 5.19.282 1.571.282-.703.282-1.562 1.127-11.59.846-11.162.846-7.256.282-.01.282.938.282.268.282-.578.282.255.564 3.666.282-.076.282.592.564 6.086.282.757.282.289.564 3.201.563 4.027 1.128 9.626.846 5.957.282-.197.282 3.156.564 14.149.282 2.383.282.295.282-1.628.282-5.66.282-9.399.282-13.697.846-70.335.846-65.934.282-10.396.281-1.09.282 2.912.282 8.457.282 19.209.846 79.163.564 26.97.282 6.948.282 3.38.564 3.316.282.368.282-2.897.282-4.268.564-4.328.564-8.137.282-.68.282.655.282-1.168.564-3.376.282-.916.281.368 1.128 10.527.282 3.935.282 1.514.282-1.386.282-.672.564 5.381.282.673.282-.035 1.128 8.108.564 7.463.282 2.548.564 7.487.282.12.282-.297.563 8.875.282-1.228.282-7.437.564-25.124.564-47.363.846-78.21.282-19.097.282-11.113.282-.047.564 18.57.282 11.869.564 41.28.564 40.893.564 30.887.282 8.733.282 2.435.282.991.281 1.746.282.118.846-4.769.564-6.317.282-1.137.282-2.112.282-3.179.282.351.282 3.711.282 1.139.282-1.994.282.204.282 2.98.282 1.205.564-2.45.564.004.282.943.846 7.268.282.695.281 1.616 1.128 10.828.564 7.48.282 1.557 1.128 9.767 1.128 20.084.282-.134.282-4.17.282-9.66.282-16.614.564-55.73.846-84.57.281-20.535.282-11.459.282-2.809.282 1.457.282 4.005.282 7.658.564 27.938 1.41 94.54.564 12.048.282 3.801.282 1.743.564-1.23.564 2.306.282-1.055.564-4.08.282-.927.845-3.945.282-.683.282-1.179.282-.156.564 2.865.282-1.037.282-.571.282 1.258.282.707.282.083.282 2.51.282 3.905.282.98.282-1.314.282 1.074.564 7.051.282 2.336 1.128 12.455.845 6.044.564 11.188.282 5.005.282 2.484.282 1.418.282-.102.282-4.51.282-10.47.564-39.286 1.41-129.641.282-10.53.282-3.062.282-.12.282 1.436.282 6.618.564 35.073 1.41 100.272.281 4.552.846 8.44.282.359.282-1.33.564-5.612.282-.913.282-1.687.564-5.732.282-1.498.564-7.467.282-.245.282 1.276.282.243.282 1.509.564 7.127.563 3.714.282.924.282.373.282 1.73.564 5.462.564 4.627.564 6.5.846 12.911.846 9.992.564 8.14.564 9.684.282-.199.282-3.83.282-5.824.282-10.97.282-20.671 1.691-168.758.282-7.04.282-2.227.282 1.32.282 7.02.564 25.73.564 35.25 1.128 84.822.282 13.1.282 4.56.564.852.282-1.076.564-8.19.281-2.04.564-2.365.564-5.145.282-2.733.846-3.961.282.223.282 3.159.564 8.883.282 1.437.564-.584.282.712.564 2.825 1.41 8.903 1.127 13.452.282 4.378.282 1.784.282-1.097.282 1.554.564 11.234.282 2.565.282 5.182.282 8.487.282 4.85.282-2.36.282-7.066.282-12.143.282-21.439 1.41-154.406.846-33.655.282-.888.563 16.363.282 11.359.564 43.301 1.128 83.635.282 14.475.282 7.93.564 8.12.282.987.564-2.486.282-.082.282-1.543 1.128-12.342.282-2.59.845-3.271.282-.02.282-.37.564-2.622.282.356.282.695.282 1.931.564 7.851.282-1.205.282-2.886.282.696.282 3.292.282 1.762.282.656.282 2.964 1.128 20.646.846 5.817.564 5.202.281 2.162.564 8.983.282-.574.282-6.387.564-22.552.282-20.307 1.41-134.318.282-13.18.282-6.916.282-2.097.282-.281.282 2.05.282 7.765.564 30.298 1.691 116.558.282 7.948.846 12.309.282-1.323.282-2.928.282-.314.282.46.282-3.509.564-12.241.564-4.537.282-3.222.282-.465.564 5.74.282-.248.282.053.282 1.405.282-.385.282-2.697.282-1.558.282 1.018.563 3.31.282 1.216.282 2.457.564 10.122.282 1.255.282-.993.282 2.405.282 5.501.282 3.134.282.717.282 3.729.564 15.436.846 12.425.282 2.53.282-3.832.282-11.366.564-40.66 1.41-149.967.281-10.402.282-2.042.282 3.353.282 7.438 1.41 61.54 1.41 85.157.282 12.461.282 6.034.282 3.477.282.747 1.128-7.99.845-7.37.564-5.664.564-5.65.282-2.8.564-9.676.282 1.881.282 4.815.282 1.136.282-.878.564 4.856.282-1.885.282-3.888.282.523.564 9.391.564 3.844.846 12.773.281 2.878.846 12.453.282 2.587.282 4.099 1.128 27.159.282 2.724.282-.838.282-7.306.282-15.706.564-57.564.846-101.34.564-33.336.282-6.814.282-.256.282 3.888.563 13.965.564 24.145.846 49.729 1.128 65.2.564 14.507.282 2.93.282.084.282-.932.282-.063.282-.786.564-5.82.282-1.735.282-3.08.564-7.544.845-4.705.282.353.282.597.282.074.282.27.564.055.282 1.589.564 4.69.282 1.393.846 6.067.564 7.943.564 15.151.282 6.717.282.774.282-.596.846 10.623.282.895.563 5.716.282-2.513.282-9.163.282-16.386.564-56.495.564-70.48.564-39.86.282-7.86.282-2.281.282 1.634.282 3.658.282 6.198.564 23.476 1.128 60.533.564 32.708.564 20.194.563 16.441.282 3.869.282.24.564-3.91.564-5.513.564-9.086.282-1.523.282.946.282.074.564-3.138.282-.46.564-1.656.282.258.282 1.024.282.11.282-.446.282.973.564 3.591.281 1.11.846 6.335.282 7.308.564 19.834.846 12.775.282 1.104.282.549.282 4.257.846 17.752.282.974.282-8.895.282-19.622.564-68.22.564-83.135.282-26.366.282-15.897.282-9.23.281-4.137.282.617.282 5.305.846 22.798.282 13.088.846 50.337 1.41 63.848.564 13.489.282 2.147.564 1.056.282.029.282-.989.564-3.68.563-5.152.282-1.796.564-5.492.282.447.282 3.462.282 1.887.282-.727.282-.374.564 1.137.282 1.238.564 3.8.282 1.382.564 3.595.564-2.034.282 2.978.564 13.344.564 8.754.564 14.039 1.127 17.477.282-4.476.282-8.658.282-12.798.282-21.054 1.41-148.258.282-11.067.282-4.587.282.729.564 7.233.282 7.234.564 25.41 2.255 108.254.282 5.367.846 6.755.282-.161.564-3.188 1.41-13.94.282-1.164.564 4.04.564-.771.282.805.564.516.563 4.255.282.472.282 1.417.282 3.484.282 1.096.282-2.388.282.65.564 13.4 1.41 17.521.846 14.25.564 9.896.282-.694.282-8.045.282-14.527.282-22.576 1.127-135.084.282-16.977.282-9.744.282-3.733.282.334.282 3.07.564 12.792.282 9.307 2.538 117.982.282 5.662.282 3.36.282 1.862.282-.254.282.765.564 10.446.281-1.385.564-11.484.282-3.588.846-13.815.282.255.282-.592.282-1.443.282 2.13.282 5.758.282 3.425.282-.292.282 1.353.282 3.848.282.978.282-2.22.282-.243 1.128 10.54 1.127 20.078.564 4.042 1.41 23.66.282.863.282-4.463.282-7.659.282-15.093.564-67.611.564-65.868.564-29.706.282-5.784.282-.703.282 3.635.846 14.784.282 9.08 1.691 76.371.846 28.44.282 6.09.282 2.282.282-.165.282.034.282.986.282.534.282-.308.282.725.282 2.12.282.297.564-5.374.282 1.058.282-.135.564-10.209.281.456.282 3.152.564 3.792.564 6.025.282 2.51.282 3.919.282 1.737.564-7.43.564-1.264.282-2.449.282-.387.564 4.833.282 1.093.282 4.425 1.41 38.013.282-.692.282-5.425.281-10.95.282-22.845.846-103.186.564-34.852.282-6.401.282-1.69.282 3.098 1.128 33.929.846 35.313.564 17.71.564 22.189.564 13.011.282 8.423.282 4.104.845-3.93.282-3.16.564-9.336 1.128-6.227.282 1.55.564 6.596.564 2.336.846 6.773 1.128 8.69.282 2.762.564 2.27.845 13.947.282 2.006.282 5.876.564 16.718.564 11.67.282 2.546.282-1.166.282-4.853.282-12.549.564-53.898.846-87.056.282-14.003.282-5.977.282-3.13.282 1.245.564 12.902.282 3.143.282 6.245 2.255 88.365.282 5.8.846 8.324.282.424.564-5.504.282-.998.282-4.363.564-13.402.564-2.192.282-2.71.282.323.564 9.95.281 1.037.282.228.564 5.25.282-1.488.282-2.917.282.799.564 7.346.282 2.783 1.128 20.03.564 5.915.282 5.4.846 23.728.282 3.592.282 1.743.282-7.243.564-48.671.845-81.972.282-18.42.282-9.209.282-4.544.282-2.356.282 2.06.564 15.706.564 19.9.846 34.487.564 15.455.282 4.302.564 5.068.282 3.38.282 1.209.282-1.13 1.41-9.093.281-1.045.564 1.3.282-.739.282-1.258.282-.336.282-.104.282-.533.282-.208.282.476.282.8.564 3.164 1.41 8.132.564 4.892 1.691 19.734 1.41 25.215.282 1.353.282-3.246.282-9.674.564-41.54.846-65.479.282-12.61.282-3.91.282 1.291.564 4.774.282 3.488.282 4.903.282 8.472.564 23.902 1.127 28.802.282 1.595.282.01.564 3.268.564-3.31.282 2.926.282 5.114.282 1.12.564-4.315.282-.688.282-1.382.282-.794.282.004.282-1.013.282-.283.282 2.486.282 1.472.564-4.979.281.5.282 1.001.282.554 1.128 7.362.564 3.034.282 3.303.846 21.637.282 1.582.282-.518.564-3.585.282-.41.282 1.848.564 6.945.282 1.223.282-2.714.282-7.995.563-33.183.564-32.819.846-34.064.282-3.641.282 1.966.564 6.758.846 22.005 1.974 54.039.282 3.585.282 1.133.282-1.046 1.127-10.812.564-10.934.282-1.608.282.203.564-3.97.282 2.409.282 5.594.282 2.74.282-.407.564.693.282-2.68.282-3.804.282-.58.282 3.523 1.128 19.702.282 3.811 1.127 4.81.282.436.564 6.038.282-1.053.282-3.073.282.405.282 2.512.282.53.282.837.564 10.96.282-.494.282-8.781.564-26.413 1.128-63.608.282-.49.282 1.924.282 3.026.282 6.253.845 25.654 1.128 15.536.564 15.54.282.818 1.41-25.297 1.128-14.81.282-.455.564-.2.282.532.282 1.52.282 4.022.564 13.44.563 7.036.282 2.903.564 3.405.564 4.504.282.306.282.68.282 2.084.564 6.135.282.84.282-1.523.282.155.282 3.147.282 1.34.282-2.402.282-1.298.282 1.857.282.95.282-.881.282 2.145.564 13.15.563 5.942.282 1.028.282-5.095.564-31.024.846-47.778.564-15.978.282-4.22.282-1.858.282 1.71.564 8.526.564 13.088.564 14.454.564 10.815.846 22.25.282 2.412.281-.346.282-1.124.282-1.951.282-4.676.564-14.508.282-2.317.282.656.282.222.282 1.117.564 9.489.282 1.144.282-.756.282 1.502.282 2.601.282-.405.282-2.977.282-1.108.846 6.45.282 3.95.564 10.625.281-.241.282-.507.282.9.282-.145.282-.671.282 1.154.282 1.657.282.828.564 3.972.282-1.717.282-3.583.282.777.564 10.268.282 2.379.282.035.282-4.31.564-23.462.846-35.286.564-12.781.281-3.961.282-1.634.282 2.098.564 7.574.282 5.623.846 23.574.564 9.11.846 8.63.282 1.767.282-.207.282-1.321.282-2.7.564-7.377.564-3.258.282-.71.282-.313.564-2.679.281.452.282.02.282-1.488.282.743.564 6.903.282 1.533.564 5.085.564.156.564 2.782.282 1.119.282 2.026.282 1.084.282-.443.282.7.564 3.21.282 1.686.282 2.704.282.095.282-2.963.282-1.128.281 1.778.282.866.282-.06.282 1.875.846 8.139.282 2.18.282-2.056.282-7.73 1.692-65.717.282-4.244.564-2.24.282.466.282 3.568.564 13.49.564 16.163.563 8.317.564 13.165.846 9.095.282-.151.282-1.662.282-.579.282-1.432.564-8.785.282-.333.282.714.564-4.2.282 1.882.282 3.568.282.92.282-.818.564.954.282-1.56.282-2.19.282-.343.281.674.282.071.282.413.564 3.723.564 1.253.282 1.791.282.99.282-.534.282-.022.564 2.921.282.75.282 1.795.564 5.173.282.025.282.65.564 5.828.282 1.598.282 2.39.282 3.397.282.51.281-4.585.564-20.648.564-24.214.846-19.774.282-3.902.564-1.378.282-1.956.282.125.282 5.068.846 23.492.846 12.978.282 2.109.282 1.14.282.195.282-1.778.563-6.585h0" clip-path="url(#p4b7cf8868b)" style="fill:none;stroke:#1f77b4;stroke-width:1.5;stroke-linecap:square"/><path id="patch_3" d="M71.308 268.488V2.376" style="fill:none;stroke:gray;stroke-width:.8;stroke-linejoin:miter;stroke-linecap:square"/><path id="patch_4" d="M685.107 268.488V2.376" style="fill:none;stroke:#000;stroke-width:.8;stroke-linejoin:miter;stroke-linecap:square"/><path id="patch_5" d="M71.308 268.488h613.8" style="fill:none;stroke:gray;stroke-width:.8;stroke-linejoin:miter;stroke-linecap:square"/><path id="patch_6" d="M71.308 2.376h613.8" style="fill:none;stroke:#000;stroke-width:.8;stroke-linejoin:miter;stroke-linecap:square"/></g></g><defs><clipPath id="p4b7cf8868b"><path d="M71.308 2.376h613.8v266.112h-613.8z"/></clipPath></defs></svg>