<svg xmlns="http://www.w3.org/2000/svg" xmlns:xlink="http://www.w3.org/1999/xlink" width="913.477" height="377.053" viewBox="0 0 685.107 282.79"><defs><style>*{stroke-linejoin:round;stroke-linecap:butt}</style></defs><g id="figure_1"><path id="patch_1" d="M0 282.79h685.107V0H0v282.79z" style="fill:none"/><g id="axes_1"><path id="patch_2" d="M71.308 266.112h613.8V0h-613.8v266.112z" style="fill:none"/><g id="matplotlib.axis_1"><g id="xtick_1"><g id="line2d_1"><defs><path id="m4383f30ca1" d="M0 0v3.5" style="stroke:gray;stroke-width:.8"/></defs><use xlink:href="#m4383f30ca1" x="99.207" y="266.112" style="fill:gray;stroke:gray;stroke-width:.8"/></g><g id="text_1" style="fill:gray" transform="matrix(.1 0 0 -.1 96.026 280.71)"><defs><path id="DejaVuSans-30" d="M2034 4250q-487 0-733-480-245-479-245-1442 0-959 245-1439 246-480 733-480 491 0 736 480 246 480 246 1439 0 963-246 1442-245 480-736 480zm0 500q785 0 1199-621 414-620 414-1801 0-1178-414-1799Q2819-91 2034-91q-784 0-1198 620-414 621-414 1799 0 1181 414 1801 414 621 1198 621z" transform="scale(.01563)"/></defs><use xlink:href="#DejaVuSans-30"/></g></g><g id="xtick_2"><use xlink:href="#m4383f30ca1" id="line2d_2" x="168.958" y="266.112" style="fill:gray;stroke:gray;stroke-width:.8"/><g id="text_2" style="fill:gray" transform="matrix(.1 0 0 -.1 159.414 280.71)"><defs><path id="DejaVuSans-35" d="M691 4666h2478v-532H1269V2991q137 47 274 70 138 23 276 23 781 0 1237-428 457-428 457-1159 0-753-469-1171Q2575-91 1722-91q-294 0-599 50Q819 9 494 109v635q281-153 581-228t634-75q541 0 856 284 316 284 316 772 0 487-316 771-315 285-856 285-253 0-505-56-251-56-513-175v2344z" transform="scale(.01563)"/></defs><use xlink:href="#DejaVuSans-35"/><use xlink:href="#DejaVuSans-30" x="63.623"/><use xlink:href="#DejaVuSans-30" x="127.246"/></g></g><g id="xtick_3"><use xlink:href="#m4383f30ca1" id="line2d_3" x="238.708" y="266.112" style="fill:gray;stroke:gray;stroke-width:.8"/><g id="text_3" style="fill:gray" transform="matrix(.1 0 0 -.1 225.982 280.71)"><defs><path id="DejaVuSans-31" d="M794 531h1031v3560L703 3866v575l1116 225h631V531h1031V0H794v531z" transform="scale(.01563)"/></defs><use xlink:href="#DejaVuSans-31"/><use xlink:href="#DejaVuSans-30" x="63.623"/><use xlink:href="#DejaVuSans-30" x="127.246"/><use xlink:href="#DejaVuSans-30" x="190.869"/></g></g><g id="xtick_4"><use xlink:href="#m4383f30ca1" id="line2d_4" x="308.457" y="266.112" style="fill:gray;stroke:gray;stroke-width:.8"/><g id="text_4" style="fill:gray" transform="matrix(.1 0 0 -.1 295.733 280.71)"><use xlink:href="#DejaVuSans-31"/><use xlink:href="#DejaVuSans-35" x="63.623"/><use xlink:href="#DejaVuSans-30" x="127.246"/><use xlink:href="#DejaVuSans-30" x="190.869"/></g></g><g id="xtick_5"><use xlink:href="#m4383f30ca1" id="line2d_5" x="378.207" y="266.112" style="fill:gray;stroke:gray;stroke-width:.8"/><g id="text_5" style="fill:gray" transform="matrix(.1 0 0 -.1 365.483 280.71)"><defs><path id="DejaVuSans-32" d="M1228 531h2203V0H469v531q359 372 979 998 621 627 780 809 303 340 423 576 121 236 121 464 0 372-261 606-261 235-680 235-297 0-627-103-329-103-704-313v638q381 153 712 231 332 78 607 78 725 0 1156-363 431-362 431-968 0-288-108-546-107-257-392-607-78-91-497-524-418-433-1181-1211z" transform="scale(.01563)"/></defs><use xlink:href="#DejaVuSans-32"/><use xlink:href="#DejaVuSans-30" x="63.623"/><use xlink:href="#DejaVuSans-30" x="127.246"/><use xlink:href="#DejaVuSans-30" x="190.869"/></g></g><g id="xtick_6"><use xlink:href="#m4383f30ca1" id="line2d_6" x="447.957" y="266.112" style="fill:gray;stroke:gray;stroke-width:.8"/><g id="text_6" style="fill:gray" transform="matrix(.1 0 0 -.1 435.233 280.71)"><use xlink:href="#DejaVuSans-32"/><use xlink:href="#DejaVuSans-35" x="63.623"/><use xlink:href="#DejaVuSans-30" x="127.246"/><use xlink:href="#DejaVuSans-30" x="190.869"/></g></g><g id="xtick_7"><use xlink:href="#m4383f30ca1" id="line2d_7" x="517.707" y="266.112" style="fill:gray;stroke:gray;stroke-width:.8"/><g id="text_7" style="fill:gray" transform="matrix(.1 0 0 -.1 504.983 280.71)"><defs><path id="DejaVuSans-33" d="M2597 2516q453-97 707-404 255-306 255-756 0-690-475-1069Q2609-91 1734-91q-293 0-604 58T488 141v609q262-153 574-231 313-78 654-78 593 0 904 234t311 681q0 413-289 645-289 233-804 233h-544v519h569q465 0 712 186t247 536q0 359-255 551-254 193-729 193-260 0-557-57-297-56-653-174v562q360 100 674 150t592 50q719 0 1137-327 419-326 419-882 0-388-222-655t-631-370z" transform="scale(.01563)"/></defs><use xlink:href="#DejaVuSans-33"/><use xlink:href="#DejaVuSans-30" x="63.623"/><use xlink:href="#DejaVuSans-30" x="127.246"/><use xlink:href="#DejaVuSans-30" x="190.869"/></g></g><g id="xtick_8"><use xlink:href="#m4383f30ca1" id="line2d_8" x="587.457" y="266.112" style="fill:gray;stroke:gray;stroke-width:.8"/><g id="text_8" style="fill:gray" transform="matrix(.1 0 0 -.1 574.732 280.71)"><use xlink:href="#DejaVuSans-33"/><use xlink:href="#DejaVuSans-35" x="63.623"/><use xlink:href="#DejaVuSans-30" x="127.246"/><use xlink:href="#DejaVuSans-30" x="190.869"/></g></g><g id="xtick_9"><use xlink:href="#m4383f30ca1" id="line2d_9" x="657.207" y="266.112" style="fill:gray;stroke:gray;stroke-width:.8"/><g id="text_9" style="fill:gray" transform="matrix(.1 0 0 -.1 644.482 280.71)"><defs><path id="DejaVuSans-34" d="M2419 4116 825 1625h1594v2491zm-166 550h794V1625h666v-525h-666V0h-628v1100H313v609l1940 2957z" transform="scale(.01563)"/></defs><use xlink:href="#DejaVuSans-34"/><use xlink:href="#DejaVuSans-30" x="63.623"/><use xlink:href="#DejaVuSans-30" x="127.246"/><use xlink:href="#DejaVuSans-30" x="190.869"/></g></g></g><g id="matplotlib.axis_2"><g id="ytick_1"><g id="line2d_10"><defs><path id="ma1f08be1b2" d="M0 0h-3.5" style="stroke:gray;stroke-width:.8"/></defs><use xlink:href="#ma1f08be1b2" x="71.308" y="235.833" style="fill:gray;stroke:gray;stroke-width:.8"/></g><g id="text_10" style="fill:gray" transform="matrix(.16 0 0 -.16 0 241.912)"><defs><path id="DejaVuSans-2212" d="M678 2272h4006v-531H678v531z" transform="scale(.01563)"/></defs><use xlink:href="#DejaVuSans-2212"/><use xlink:href="#DejaVuSans-32" x="83.789"/><use xlink:href="#DejaVuSans-30" x="147.412"/><use xlink:href="#DejaVuSans-30" x="211.035"/><use xlink:href="#DejaVuSans-30" x="274.658"/><use xlink:href="#DejaVuSans-30" x="338.281"/></g></g><g id="ytick_2"><use xlink:href="#ma1f08be1b2" id="line2d_11" x="71.308" y="195.077" style="fill:gray;stroke:gray;stroke-width:.8"/><g id="text_11" style="fill:gray" transform="matrix(.16 0 0 -.16 0 201.156)"><use xlink:href="#DejaVuSans-2212"/><use xlink:href="#DejaVuSans-31" x="83.789"/><use xlink:href="#DejaVuSans-30" x="147.412"/><use xlink:href="#DejaVuSans-30" x="211.035"/><use xlink:href="#DejaVuSans-30" x="274.658"/><use xlink:href="#DejaVuSans-30" x="338.281"/></g></g><g id="ytick_3"><use xlink:href="#ma1f08be1b2" id="line2d_12" x="71.308" y="154.322" style="fill:gray;stroke:gray;stroke-width:.8"/><use xlink:href="#DejaVuSans-30" id="text_12" style="fill:gray" transform="matrix(.16 0 0 -.16 54.127 160.4)"/></g><g id="ytick_4"><use xlink:href="#ma1f08be1b2" id="line2d_13" x="71.308" y="113.566" style="fill:gray;stroke:gray;stroke-width:.8"/><g id="text_13" style="fill:gray" transform="matrix(.16 0 0 -.16 13.408 119.645)"><use xlink:href="#DejaVuSans-31"/><use xlink:href="#DejaVuSans-30" x="63.623"/><use xlink:href="#DejaVuSans-30" x="127.246"/><use xlink:href="#DejaVuSans-30" x="190.869"/><use xlink:href="#DejaVuSans-30" x="254.492"/></g></g><g id="ytick_5"><use xlink:href="#ma1f08be1b2" id="line2d_14" x="71.308" y="72.811" style="fill:gray;stroke:gray;stroke-width:.8"/><g id="text_14" style="fill:gray" transform="matrix(.16 0 0 -.16 13.408 78.89)"><use xlink:href="#DejaVuSans-32"/><use xlink:href="#DejaVuSans-30" x="63.623"/><use xlink:href="#DejaVuSans-30" x="127.246"/><use xlink:href="#DejaVuSans-30" x="190.869"/><use xlink:href="#DejaVuSans-30" x="254.492"/></g></g><g id="ytick_6"><use xlink:href="#ma1f08be1b2" id="line2d_15" x="71.308" y="32.055" style="fill:gray;stroke:gray;stroke-width:.8"/><g id="text_15" style="fill:gray" transform="matrix(.16 0 0 -.16 13.408 38.134)"><use xlink:href="#DejaVuSans-33"/><use xlink:href="#DejaVuSans-30" x="63.623"/><use xlink:href="#DejaVuSans-30" x="127.246"/><use xlink:href="#DejaVuSans-30" x="190.869"/><use xlink:href="#DejaVuSans-30" x="254.492"/></g></g></g><path id="line2d_16" d="m99.207 154.244.282.158.282-.163.282.167.282-.171.282.176.282-.18.282.185.282-.19.282.195.282-.201.282.206.282-.212.282.218.282-.224.282.23.282-.237.282.245.282-.252.282.26.282-.27.282.28.282-.289.282.299.282-.31.282.322.281-.335.282.349.282-.364.282.38.282-.399.282.42.282-.442.282.466.282-.493.282.525.282-.56.282.6.282-.648.282.703.282-.768.282.848.282-.946.282 1.069.282-1.23.282 1.448.282-1.76.282 2.246.282-3.109.282 5.063.282-34.008.281-.531.282 24.276.846 32.816.282 6.269.282-.54.282.685.282-.807.282-.41.846-14.651 1.41-8.665.282-1.073.282.277.282-.452.282.146.282.006.846 5.202.281-.342.282.844.846 5.065.282-.184.282-.453.282.594.282.3 1.41 4.942.564 2.645.282.585.282 1.299.282.573.282-.962.282-3.267.282-5.46.282-11.15 1.127-66 .564-18.026.282-1.979.282 3.48.564 17.14.564 32.025.564 35.314.282 8.58.564 6.328.282.983.282-.255.282-1.495 1.128-8.527.282-1.796.564-4.96.563-2.54.282-.677.564.832.282.54.282.84.282 1.426.282.356.282-1.326.282-2.206.282-.52.564 2.098.282-.746.282.731.846 11.716.282-.84.282-.042.282 1.668.282.466.564-2.929.282-.008.845 2.26.282.043.282-1.345.282-4.976.282-11.772 1.128-67.709.282-11.233.282-5.761.282 1.139.282 5.924.282 9.729.564 30.394.846 46.272.282 7.317.282 2.194.282.78.282.29.281-1.407.564-4.933.282-2.188.846-8.784.846-5.724.282-.576.564-.127.564-1.656.282.984.564 4.349.282 1.386.282 4.62.564 11.914.282.306.282-.1 1.973 13.232.564 4.89.282-.832.282-2.312.282-1.22.282-.036.282-3 .282-9.55.564-34.25.846-56.352.564-19.18.282-2.82.282 4.422.564 21.752.563 33.169.564 35.677.282 6.494.564 4.872.282-.132 1.41-11.79.282-2.827.282-1.221.282-.389.282-.022.282.219.282.522.282 1.02.564 5.095.846 8.928.563 8.496 1.128 7.15.282-.108.282-.721.282-.262.282.344.282 1.151.846 6.432.282.79 1.41 7.287.282-.935.282-4.527.282-8.724.282-14.383 1.41-101.517.281-11.619.282-6.259.282-2.061.282 2.083.282 7.576.564 29.157 1.128 78.962.282 6.432.282 2.91.282 1.418.282-.323.564-2.847.282-1.155.282-2.103.846-8.776.563-3.339.564-2.53.282-.44.564.994.282 1.129.846 10.545.282 1.092 1.128 8.286 1.974 25.03.282 1.258.282.099.282.615.563 2.814.282-.857.282-3.79.282-8.082.282-14.128.846-67.575.564-40.497.564-26.11.282-5.811.282.447.282 6.507.564 27.865 1.41 97.311.282 5.202.282.39.563-2.842.564-4.71 1.128-13.426.282-1.972.282-.145 1.41 6.753.846 9.81.282 1.354 1.41 14.862.282 3.377.563 1.988.846 9.016.282 1.347.564 4.91.282-.33.282-.607.564 3.076.282-1.106.282-5.169.282-10.07.564-38.093 1.128-91.564.564-28.748.282-5.432.282 2.538.563 21.394.564 34.818.846 65.554.282 14.307.282 7.702.282 2.11.846-1.122.282-.514.282-1.266.846-7.348.564-5.839.282-1.483.282-.075.282-.336.282.396.282 3.57.282 5.008.282 2.388.281.608.282 2.812.282 4.396.282 1.828.282-1.024.282-.496.282 1.49 1.41 11.892.564 7.35.564 4.908.564 8.023.282 1.082.282-.225.282-1.73.282-6.724.282-13.933.564-44.338.845-78.242.564-32.453.282-8.343.282-1.289.282 4.899.564 20.938.564 36.912.846 64.453.282 12.307.282 6.718.282 1.435.282-.886.282.23.282.472.282-2.265.282-3.803.282-1.633.282.163.282-1.513.281-3.343.282-1.871.564 1.929.564-.791.282 1.326.564 4.929.564 4.508.282 2.585.564 3.01.564 11.418 1.41 24.39.282-.574.282.258.282 2.13.282 1.131.281-.451.282.553.282 1.697.282-.586.282-5.33.282-10.086.564-36.342 1.128-98.013.564-31.653.282-8.278.282-1.252.282 4.27.564 14.537.282 13.66 1.41 103.764.281 7.28.282 2.985.282-.066.282-1.517.282-.658.282.408.282-.79.282-2.262.282-.975.282.831.282.208.282-.376.282 1.657.282 3.234.282 1.828.282.383.282 1.266.282 1.964.282.529.846-3.191.282.748 1.127 8.381.564 5.652 1.128 14.453.564 15.57.282 3.872.564 1.662.282-1.897.282-9.809.564-42.52 1.41-124.125.282-12.224.282-6.245.282-3.286.282-.899.281 3.56.282 9.695.564 34.792 1.128 85.688.282 11.984.282 5.936.282 2.566.282.669.282-1.385.282-2.22.564-2.144.282-2.56.564-6.248.564-2.83.282-.733.282.246.564 2.014.281 1.665 1.128 10.077.564 8.108.564 7.271.282 3.343 1.41 27.465.564 7.378.282 1.73.282-.267.282-1.3.282-2.505.282-6.865.282-14.682.564-50.052.845-84.418.564-33.347.564-17.227.282-3.359.282 2.416.282 7.857.564 26.67.564 44.421.564 45.638.564 25.044.282 3.316.282.028.282.612.282 1.36.282-.844.564-5.978.282-.07.563 2.344.564 1.582.282 1.307 1.974 13.976.564 5.174 1.974 21.045.564 8.41.846 9.157.281 1.405.282-1.437.282-7.1.282-15.289.564-49.652 1.128-110.326.282-18.25.282-10.925.282-4.596.282-.116.282 3.706.282 8.28.564 28.059.564 38.835 1.128 84.534.282 10.17.281 3.18.846-3.939.282-2.109.564-9.088.282-2.437.564-1.279.282-.106.564 1.61.282-.246.282-.097.282 1.208.846 6.082 1.973 20.665.282 1.072.282 2.37.846 12.354.846 13.964.282-.924.282-6.016.282-13.145.564-49.236 1.128-111.893.564-25.91.282-6.381.282-1.53.282 3.796.564 17.977.563 31.12 1.41 102.507.282 8.327.282 4.304.282 1.282.282-.501.564-3.02.846-5.075.846-2.167.282.849.564 5.947.564 2.591.282 1.07.282.035.281-.815.282-.275.282.527.282.854.282 1.987 1.41 18.703.846 14.84.282 2.964.282-.181.282-5.866.282-12.652.564-44.837L327.314 43.9l.282-15.742.282-9 .281-2.387.282 2.354.564 10.515.282 8.996.564 33.968.846 62.61.564 32.682.282 9.253.282 3.922.282 1.168.282-.007.282-1.054.564-3.33.282-.961.282.301.282 1.093.564.912.282 1.86.282 2.685.281 1.087.282-.095.282 1.164.846 7.88 1.128 20.08 1.41 22.889.846 8.747.282-.25.282-5.477.282-13.2.564-52.927 1.127-133.542.282-16.071.282-8.453.282-3.475.282.736.564 9.981.282 7.086.564 23.898 1.128 63.963.564 34.642.564 20.363.282 4.753.282 1.928.282.146.564-.853.564.51.281.063.282.356.564 1.806.282 1.662.846 8.704.282 1.634.846 8.862 1.41 17.106.846 13.366.846 11.687.282 1.319.282-3.725.281-11.41.282-19.722.564-65.71.564-78.659.282-24.694.282-13.295.282-6.616.282-2.576.282.49.282 2.411.282 3.674.282 5.72.564 17.946.564 24.018 1.692 86.886.563 15.144.282 3.668.564 2.769.282.816.282-.436.282-.882.282-.037.282.176.282-.835.282-.363.282 2.023.282 3.202.282 1.736.282.764.282 2.006.564 5.613.282 1.571.282 2.415 1.41 19.267.845 17.508.564 9.118.282 1.834.282-2.725.282-10.572.282-20.22.564-64.04.564-76.779.282-25.837.282-12.179.282-4.584.282-2.47.282.321.846 11.588.282 7.163 2.82 122.17.281 5.352.282 2.378.282.436.282-1.03.564-4.75.846-9.186.282-1.006.282-.067.282.434.282.968.282 2.102.564 7.157.564 8.935 1.41 30.467 1.973 38.8.282 2.781.282.78.282-4.506.282-11.963.282-19.287.564-65.914.564-81.336.282-21.133.282-7.97.564-4.982.282.773.845 12.99.282 4.946.564 17.264.846 38.477.564 25.793.564 18.341.564 10.458.282 1.409.282-2.223.564-8.59.846-4.398.282 1.717.564 9.358.845 6.56.282 3.232.282 4.547.846 17.923.282 3.997.564 11.616.282 2.802.282 1.151.282 3.074 1.128 20.116.564 9.46.282 3.059.282.681.282-4.228.282-12.454.282-22.44.563-72.99.564-72.286.282-18.18.282-8.148.282-3.454.282-.98.282 1.194.282 3.468.564 13.667.846 30.206 1.692 68.282.564 15.637.282 3.318.282 1.909.282.542.282-1.687.563-4.231.282-.912.846-5.07.282-.162.282.442.282 1.035.846 5.523.564 5.959.564 8.984 1.692 37.756 1.127 14.634.282 1.256.282.712.282-2.192.282-8.929.282-17.594.564-66.852.564-73.646.282-18.581.282-9.955.282-5.702.282-1.327.282 2.308.282 4.157.282 6.455.846 31.355.564 25.734.564 26.255.845 27.952.564 11.216.282 2.55.282.136.282-1.081.282-1.737.564-6.828.564-5.31.564-4.134.282.534 1.128 12.189.564 11.257.564 6.508 1.973 38.832.846 21.707.282 5.068.282 3.034.282-2.833.282-12.194.282-22.537 1.128-134.129.282-14.032.282-7.137.282-3.646.282.002.282 3.449.846 16.389.563 15.892 1.974 65.281.564 10.73.282 2.349.282.184.282-1.658.846-9.304.564-2.45.282-.611.282.219.282 1.066.564 3.569.846 7.19.563 3.072.564 4.773.282 3.1.564 12.216 1.974 44.401.282 4.714.282-.356.282-8.287.282-18.729 1.128-123.882.282-10.861.282-6.4.282-3.24.281.124.564 3.705.282 3.919.846 20.555.564 16.745.846 31.894.564 15.157.282 5.354.282 2.584.282.91.282.178.282-.952.564-5.437.564-6.018.282-1.755.563-1.664.282-.82.282.575.846 5.74.846 11.43.282 1.635.282 2.301.564 7.785.846 13.622.846 17.82.564 10.123.282 5.59.282.634.282-9.626.564-51.287.563-52.58.564-25.633.282-6.033.282-2.666.282.624 1.128 11.777.564 13.222 1.692 50.47.282 4.995.564 3.884.282.411.282-1.758.845-9.192.282-1.281.564-1.518.282-.985.282-.169.564 1.208.282.376.282 1.686.564 5.458.282 1.824.564 6.164 1.41 18.864 1.128 17.287.845 16.719.282-1.727.282-9.79.564-43.562.564-44.958.564-22.169.282-5.983.282-2.803.282.298.564 2.386.282 2.424.846 15.563 1.128 29.483.564 16.925.281 4.325.282-.06.564-2.438.282-1.33.846-7.204.282-1.156.846-1.891.282.445 1.41 10.806.564 5.632 1.128 9.425.282 3.039 1.127 19.872.564 6.317.564 6.897.282.89.282-2.14.282-8.25.564-39.718.564-35.954.564-21.52.282-7.9.282-4.178.282-.64.846 4.198.282 4.513 1.973 52.678.564 8.391.282 1.48.282.069.282-1.06.564-4.842.564-4.913.282-1.425.282-.386.282.401.282 1.303.564 5.973.282 1.498.282.736.282 2.419.282 3.382.282 2.014.563.67.282 1.07.282 2.173.564 6.124.282 1.455.282.756.282 1.653 1.692 16.711.282-3.518.282-10.818 1.128-61.82.564-11.963.564-6.143.281.661.846 6.46.564 10.628 1.41 29.594.564 7.878.282 1.833.282.024.282.172.282 1.05.282-.37.564-5.633.282-.672.282.09.564-2.28.282.526.563 2.621.282.762.564 2.63.564-.042 1.128 6.469.846 13.798.282 1.543.846 9.002.282 1.31.564 6.223.282-2.516.282-10.094 1.41-67.607.563-9.92.282-2.187.282-.35.282 1.159.564 5.543.564 9.28.564 12.22.846 21.66.564 6.84.282 2.059.282.384.564-2.37.564-3.885.564-3.313.563-2.848.282-.466 1.128 3.697.564 3.13.564 1.606.846 5.208.282 1.306.846 9.373.282 1.454.564 5.604.564 4.37.282 1.364.282.088.281-3.115.282-7.899.846-39.796.564-22.7.282-5.82.282-3.094.282-1.845.282.635.564 8.26.564 8.936 1.692 30.495.846 8.277.282.557.563-3.967.564-3.825.282-.745.564 2.23.564-.375.564 4.464.282.62.282.082.564 2.538.282.488.282 1.508.564 5.428.564 4.943.282 2.663.282 1.448.282 2.18.564 6.362.563 1.472.282-.004.282-2.825.282-6.56.564-22.047.564-27.467.564-15.772.282-5.866.282-2.728.282 2.15.282 3.765.564 3.812 1.41 21.225.564 11.176.563 8.57.282 4.76.282 2.714.282.739.282-.22.282-1.179.282-1.684.282-2.358.564-7.367.282-1.278.564 1.433.282.063.282 1.763.282 2.51.564 2.2.564 4.893.282 1.133.282.533.564 1.316.282.758.563 3.291.282 2.647.846 15.95.564 1.8.282-.079.282-3.156.282-7.071.564-23.68.564-24.161.564-14.176.282-4.466.282-1.748.282.03.282.465.282 1.217.282 2.073.282 3.338.845 16.127 1.128 22.49.564 4.08.282.427.564-1.928.846-4.757.282-.06.282.337.282.632.564 3.02.282.408.564-1.1.282.114.282-.483.282-1.103.282-.313.845 5.165.282-.17.282 1.083.564 4.179.564 2.342.282 1.717.846 8.68.282.305.282-2.127.282-4.926.564-19.414.564-19.569.282-6.616.282-3.95.846-4.8.282.84.281 2.04.282-.472.282-1.57.282 1.86 1.41 26.904.282 2.486.564 2.134.282-.1.282-1.57.282.39.564 4.995.282-.79.282-1.393.282-.523.282.246.282.679.282 1.145.564 1.206.845 4.741.282.1.282.877.564 3.012.564 1.384.282 1.508.282 2.555.564 6.576.846 4.575.282 2.077.282.678.282-.67.282-1.296.282-3.479.282-7.014 1.41-49.124.563-9.255.282-2.048.282.717.846 7.951.282 2.39.564 10.18.846 16.558.564 6.482.564 3.923.282-1.61.564-6.648.282-.262.282-.498.564-3.467.281-.029.846 1.352.846 3.596.282.616.846 5.524.282.312.282 1.343 1.128 9.2.564 3.23.282 1.317.282 1.961.282.946.282-.004.282.203.282-.015.281-3.054.564-12.996.564-18.345.564-16.088.564-6.279.282-1.844.282.186.564 3.179.282 2.843.846 13.096.282 2.456.846 11.189.282.5.282 1.377.282 2.586.282.974.281-.945.564-2.876.282-.872.564.214.282-.64.282-.992.282.618 1.128 6.957.282 2.23.282 1.25.282.509.564 1.784.564 1.075 1.128 7.443.282 2.692.845 11.186.282.36.282-.5.282-1.326.282-6.067 1.41-52.242.282-5.044.846-6.878.282.14.564 3.505 1.128 11.836.846 17.059.281 2.473.564 11.051.282 2.379.564-3.062.282.392.282-1.156.564-12.344.282-2.368.282 1.544.282.521.282-.345.282 1.491.564 7.498.564 3.676.282 1.334.282.45 1.128 4.591.281 1.874h0" clip-path="url(#pb79ea88c89)" style="fill:none;stroke:#1f77b4;stroke-width:1.5;stroke-linecap:square"/><path id="patch_3" d="M71.308 266.112V0" style="fill:none;stroke:gray;stroke-width:.8;stroke-linejoin:miter;stroke-linecap:square"/><path id="patch_4" d="M685.107 266.112V0" style="fill:none;stroke:#000;stroke-width:.8;stroke-linejoin:miter;stroke-linecap:square"/><path id="patch_5" d="M71.308 266.112h613.8" style="fill:none;stroke:gray;stroke-width:.8;stroke-linejoin:miter;stroke-linecap:square"/><path id="patch_6" d="M71.308 0h613.8" style="fill:none;stroke:#000;stroke-width:.8;stroke-linejoin:miter;stroke-linecap:square"/></g></g><defs><clipPath id="pb79ea88c89"><path d="M71.308 0h613.8v266.112h-613.8z"/></clipPath></defs></svg>