<svg xmlns="http://www.w3.org/2000/svg" xmlns:xlink="http://www.w3.org/1999/xlink" width="913.477" height="377.053" viewBox="0 0 685.107 282.79"><defs><style>*{stroke-linejoin:round;stroke-linecap:butt}</style></defs><g id="figure_1"><path id="patch_1" d="M0 282.79h685.107V0H0v282.79z" style="fill:none"/><g id="axes_1"><path id="patch_2" d="M71.308 266.112h613.8V0h-613.8v266.112z" style="fill:none"/><g id="matplotlib.axis_1"><g id="xtick_1"><g id="line2d_1"><defs><path id="m659fe38dd0" d="M0 0v3.5" style="stroke:gray;stroke-width:.8"/></defs><use xlink:href="#m659fe38dd0" x="99.207" y="266.112" style="fill:gray;stroke:gray;stroke-width:.8"/></g><g id="text_1" style="fill:gray" transform="matrix(.1 0 0 -.1 96.026 280.71)"><defs><path id="DejaVuSans-30" d="M2034 4250q-487 0-733-480-245-479-245-1442 0-959 245-1439 246-480 733-480 491 0 736 480 246 480 246 1439 0 963-246 1442-245 480-736 480zm0 500q785 0 1199-621 414-620 414-1801 0-1178-414-1799Q2819-91 2034-91q-784 0-1198 620-414 621-414 1799 0 1181 414 1801 414 621 1198 621z" transform="scale(.01563)"/></defs><use xlink:href="#DejaVuSans-30"/></g></g><g id="xtick_2"><use xlink:href="#m659fe38dd0" id="line2d_2" x="168.958" y="266.112" style="fill:gray;stroke:gray;stroke-width:.8"/><g id="text_2" style="fill:gray" transform="matrix(.1 0 0 -.1 159.414 280.71)"><defs><path id="DejaVuSans-35" d="M691 4666h2478v-532H1269V2991q137 47 274 70 138 23 276 23 781 0 1237-428 457-428 457-1159 0-753-469-1171Q2575-91 1722-91q-294 0-599 50Q819 9 494 109v635q281-153 581-228t634-75q541 0 856 284 316 284 316 772 0 487-316 771-315 285-856 285-253 0-505-56-251-56-513-175v2344z" transform="scale(.01563)"/></defs><use xlink:href="#DejaVuSans-35"/><use xlink:href="#DejaVuSans-30" x="63.623"/><use xlink:href="#DejaVuSans-30" x="127.246"/></g></g><g id="xtick_3"><use xlink:href="#m659fe38dd0" id="line2d_3" x="238.708" y="266.112" style="fill:gray;stroke:gray;stroke-width:.8"/><g id="text_3" style="fill:gray" transform="matrix(.1 0 0 -.1 225.982 280.71)"><defs><path id="DejaVuSans-31" d="M794 531h1031v3560L703 3866v575l1116 225h631V531h1031V0H794v531z" transform="scale(.01563)"/></defs><use xlink:href="#DejaVuSans-31"/><use xlink:href="#DejaVuSans-30" x="63.623"/><use xlink:href="#DejaVuSans-30" x="127.246"/><use xlink:href="#DejaVuSans-30" x="190.869"/></g></g><g id="xtick_4"><use xlink:href="#m659fe38dd0" id="line2d_4" x="308.457" y="266.112" style="fill:gray;stroke:gray;stroke-width:.8"/><g id="text_4" style="fill:gray" transform="matrix(.1 0 0 -.1 295.733 280.71)"><use xlink:href="#DejaVuSans-31"/><use xlink:href="#DejaVuSans-35" x="63.623"/><use xlink:href="#DejaVuSans-30" x="127.246"/><use xlink:href="#DejaVuSans-30" x="190.869"/></g></g><g id="xtick_5"><use xlink:href="#m659fe38dd0" id="line2d_5" x="378.207" y="266.112" style="fill:gray;stroke:gray;stroke-width:.8"/><g id="text_5" style="fill:gray" transform="matrix(.1 0 0 -.1 365.483 280.71)"><defs><path id="DejaVuSans-32" d="M1228 531h2203V0H469v531q359 372 979 998 621 627 780 809 303 340 423 576 121 236 121 464 0 372-261 606-261 235-680 235-297 0-627-103-329-103-704-313v638q381 153 712 231 332 78 607 78 725 0 1156-363 431-362 431-968 0-288-108-546-107-257-392-607-78-91-497-524-418-433-1181-1211z" transform="scale(.01563)"/></defs><use xlink:href="#DejaVuSans-32"/><use xlink:href="#DejaVuSans-30" x="63.623"/><use xlink:href="#DejaVuSans-30" x="127.246"/><use xlink:href="#DejaVuSans-30" x="190.869"/></g></g><g id="xtick_6"><use xlink:href="#m659fe38dd0" id="line2d_6" x="447.957" y="266.112" style="fill:gray;stroke:gray;stroke-width:.8"/><g id="text_6" style="fill:gray" transform="matrix(.1 0 0 -.1 435.233 280.71)"><use xlink:href="#DejaVuSans-32"/><use xlink:href="#DejaVuSans-35" x="63.623"/><use xlink:href="#DejaVuSans-30" x="127.246"/><use xlink:href="#DejaVuSans-30" x="190.869"/></g></g><g id="xtick_7"><use xlink:href="#m659fe38dd0" id="line2d_7" x="517.707" y="266.112" style="fill:gray;stroke:gray;stroke-width:.8"/><g id="text_7" style="fill:gray" transform="matrix(.1 0 0 -.1 504.983 280.71)"><defs><path id="DejaVuSans-33" d="M2597 2516q453-97 707-404 255-306 255-756 0-690-475-1069Q2609-91 1734-91q-293 0-604 58T488 141v609q262-153 574-231 313-78 654-78 593 0 904 234t311 681q0 413-289 645-289 233-804 233h-544v519h569q465 0 712 186t247 536q0 359-255 551-254 193-729 193-260 0-557-57-297-56-653-174v562q360 100 674 150t592 50q719 0 1137-327 419-326 419-882 0-388-222-655t-631-370z" transform="scale(.01563)"/></defs><use xlink:href="#DejaVuSans-33"/><use xlink:href="#DejaVuSans-30" x="63.623"/><use xlink:href="#DejaVuSans-30" x="127.246"/><use xlink:href="#DejaVuSans-30" x="190.869"/></g></g><g id="xtick_8"><use xlink:href="#m659fe38dd0" id="line2d_8" x="587.457" y="266.112" style="fill:gray;stroke:gray;stroke-width:.8"/><g id="text_8" style="fill:gray" transform="matrix(.1 0 0 -.1 574.732 280.71)"><use xlink:href="#DejaVuSans-33"/><use xlink:href="#DejaVuSans-35" x="63.623"/><use xlink:href="#DejaVuSans-30" x="127.246"/><use xlink:href="#DejaVuSans-30" x="190.869"/></g></g><g id="xtick_9"><use xlink:href="#m659fe38dd0" id="line2d_9" x="657.207" y="266.112" style="fill:gray;stroke:gray;stroke-width:.8"/><g id="text_9" style="fill:gray" transform="matrix(.1 0 0 -.1 644.482 280.71)"><defs><path id="DejaVuSans-34" d="M2419 4116 825 1625h1594v2491zm-166 550h794V1625h666v-525h-666V0h-628v1100H313v609l1940 2957z" transform="scale(.01563)"/></defs><use xlink:href="#DejaVuSans-34"/><use xlink:href="#DejaVuSans-30" x="63.623"/><use xlink:href="#DejaVuSans-30" x="127.246"/><use xlink:href="#DejaVuSans-30" x="190.869"/></g></g></g><g id="matplotlib.axis_2"><g id="ytick_1"><g id="line2d_10"><defs><path id="m9525269407" d="M0 0h-3.5" style="stroke:gray;stroke-width:.8"/></defs><use xlink:href="#m9525269407" x="71.308" y="253.081" style="fill:gray;stroke:gray;stroke-width:.8"/></g><g id="text_10" style="fill:gray" transform="matrix(.16 0 0 -.16 0 259.16)"><defs><path id="DejaVuSans-2212" d="M678 2272h4006v-531H678v531z" transform="scale(.01563)"/></defs><use xlink:href="#DejaVuSans-2212"/><use xlink:href="#DejaVuSans-32" x="83.789"/><use xlink:href="#DejaVuSans-30" x="147.412"/><use xlink:href="#DejaVuSans-30" x="211.035"/><use xlink:href="#DejaVuSans-30" x="274.658"/><use xlink:href="#DejaVuSans-30" x="338.281"/></g></g><g id="ytick_2"><use xlink:href="#m9525269407" id="line2d_11" x="71.308" y="201.824" style="fill:gray;stroke:gray;stroke-width:.8"/><g id="text_11" style="fill:gray" transform="matrix(.16 0 0 -.16 0 207.903)"><use xlink:href="#DejaVuSans-2212"/><use xlink:href="#DejaVuSans-31" x="83.789"/><use xlink:href="#DejaVuSans-30" x="147.412"/><use xlink:href="#DejaVuSans-30" x="211.035"/><use xlink:href="#DejaVuSans-30" x="274.658"/><use xlink:href="#DejaVuSans-30" x="338.281"/></g></g><g id="ytick_3"><use xlink:href="#m9525269407" id="line2d_12" x="71.308" y="150.568" style="fill:gray;stroke:gray;stroke-width:.8"/><use xlink:href="#DejaVuSans-30" id="text_12" style="fill:gray" transform="matrix(.16 0 0 -.16 54.127 156.646)"/></g><g id="ytick_4"><use xlink:href="#m9525269407" id="line2d_13" x="71.308" y="99.311" style="fill:gray;stroke:gray;stroke-width:.8"/><g id="text_13" style="fill:gray" transform="matrix(.16 0 0 -.16 13.408 105.39)"><use xlink:href="#DejaVuSans-31"/><use xlink:href="#DejaVuSans-30" x="63.623"/><use xlink:href="#DejaVuSans-30" x="127.246"/><use xlink:href="#DejaVuSans-30" x="190.869"/><use xlink:href="#DejaVuSans-30" x="254.492"/></g></g><g id="ytick_5"><use xlink:href="#m9525269407" id="line2d_14" x="71.308" y="48.055" style="fill:gray;stroke:gray;stroke-width:.8"/><g id="text_14" style="fill:gray" transform="matrix(.16 0 0 -.16 13.408 54.133)"><use xlink:href="#DejaVuSans-32"/><use xlink:href="#DejaVuSans-30" x="63.623"/><use xlink:href="#DejaVuSans-30" x="127.246"/><use xlink:href="#DejaVuSans-30" x="190.869"/><use xlink:href="#DejaVuSans-30" x="254.492"/></g></g></g><path id="line2d_15" d="m99.207 150.54.282.057.282-.06.282.064.282-.069.282.073.282-.077.282.08.282-.084.282.089.282-.093.282.097.282-.1.282.104.282-.11.282.115.282-.119.282.124.282-.129.282.134.282-.14.282.146.282-.152.282.159.282-.166.282.173.281-.181.282.19.282-.2.282.21.282-.222.282.235.282-.248.282.264.282-.282.282.301.282-.323.282.348.282-.377.282.411.282-.451.282.5.282-.56.282.637.282-.738.282.874.282-1.07.282 1.379.282-1.936.282 3.263.282-14.788.281-6.776.282 11.01.282 6.596.282 9.433.846 16.08.846 16.589.564 7.773.282.15.282-2.903.564-21.745.846-44.11.564-27.878.564-11.186.282-.598.282 4.049.563 18.476 1.128 50.737.282 5.825.282 3.097.282 1.752.282.383.282-.424.282-1.267.282-.206.282.064.282-.916.564-3.749.846-3.082.282-.023.282-2.296.564-8.838.282 1.166.282 2.503.281-.227.282-1.847.282 1.075.282 2.995.282 1.18.282-1.692.282-.868.846 3.298.282-.02.282.44.282.745.564-.058.282.32.564 1.892.282-.58.282-1.485.282-.108.846 4.162.845 7.374.282.171.282.85.564 3.245.846 9.19.282-.842.282-2.994.282-4.588.282-8.358.564-31.013.846-53.683.282-10.531.282-6.328.282-2.558.282 2.28.282 7.252.564 24.226 1.127 55.126.282 5.582.282 2.7.282 1.286.564.033.282.304.282-.184.564-3.057.564-4.416.282.687.282 3.312.282 1.595.282-2.071.282-2.916.282-.41.564 2.674.282-.918.282-2.455.282-1.44.281 1.472.282 2.119.282.268.282-1.007.564-.957.282-.708.282.183.564 3.194.846 2.915.564 1.855.282.015.282-.696.282-1.137.282.242.282 3.052.282 4.6.282 2.501.564-.216.282.517.281-1.975.564-7.31.282 1.948.846 13.46.282 2.907.282-.258.282-4.92.282-10.278.564-31.21 1.128-69.07.282-3.787.282 1.68.282 5.674.564 21.95 1.128 50.447.563 9.32.564 7.323.564 4.894.282.761.282-.496.282 1.794.282 3.458.282-.361.282-3.905.282-1.893.282.733.282-1.116.282-2.856.282-1.31.564.326.564 2.119.282-1.462.564-6.405.282.458.281.935.282-.418.282-.941.282-.414.282.21.282-.411.282-1.544.282-.87.282 2.076.282 3.189.282.919.282-.917.282.464.282 1.54.282.485.282.814.282 4.323.564 10.033.282 1.55.282 2.662.282 3.905.282 2.335.564.039.563 3.058.282.131.564-3.086.282-2.124.282-7.065.564-34.136 1.128-70.367.282-6.5.282-3.588.282-1.84.282 3.75.564 20.302.282 13.485.846 55.705.282 9.18.282 2.323.563-5.87.564 3.254.564-3.24.564 4.233.564-4.19.564 1.06.282.044.564 1.278.564-1.21.282.124.564-.395.282.183.282-.686.282-1.565.282-.445.282 1.071.282.514.563-.88.282.763.846 4.454.282.098.564-.947.282.056.282 1.11.282 1.646.282.754.282.054.282 1.868.564 7.921.282 1.075.282-.095.282.89.846 6.29.846 9.709.281-.924.282-4.18.282-8.896.564-34.534 1.128-77.486.282-11.417.282-3.566.282 2.677.282 7.536.564 23.618 1.41 65.192.846 14.456.845 5.91.282 1.34.282-.156.282-1.002.282-1.913.846-7.344.282-2.198.564-6.075.282-1.743.846-3.16.282-.218.282.629.564 1.52.282.1.282-.396.282.308.846 6.197.281.258.564 5.212.282-.321.282-3.139.282-1.421.282 1.185.282.392.282-.734.282 1.622.846 15.842 1.128 8.662.282 1.234.282-.592.282.877.564 5.717.282-2.201.564-9.887.282-10.898 1.691-112.587.282-4.656.282 1.864.282 4.024.282 7.102.282 13.808.846 54.576.564 22.254.282 5.812.282-.154.282-2.049.282.376.282 1.661.564 1.294.282 1.837.282.652.281-1.166.282-.522.282.016.282-2.093.282-3.19.282.146.564 6.62.282-.586.282-1.544.282-.275.282-.531.846-8.378.564 2.261.564-1.616.282 1.133.282 1.885.282.691.282.132.282 1.414.564 3.526.281.853.564 3.51.564 1.225.282 2.581.564 7.202.564 3.344.846 3.3.564-1.702.564 3.273.282-1.408.564-7.745.282-7.058.282-14.045 1.41-96.907.281-7.608.282-3.4.282-.267.282 2.537.282 5.958.282 10.503.846 49.543.564 34.917.282 11.295.282 5.504.282 2.1.282.692.846-.131.282-.287.282-.832.282-1.188.282-1.752.845-8.05.282-1 .282-.222.564-.793.282.184.282-.052.282-.837.282-.468.282.404.282.169.282-.272.282.392.282.715.282-.06.282-.392.282.063.282.345.282 1.457.564 7.567.282 1.706.282.308.282 1.066 1.127 6.2.282.776.282 1.64.282 2.494.282.874.282-.298.282 1.835.282 3.345.564 2.445.564 8.54.282-.838.564-13.08.282-12.249.564-45.313.846-69.128.282-11.658.282-5.697.281-1.221.282 3.353.282 8.063L265 78.16l1.128 71.206.282 12.157.282 5.68.846 4.928.282-.173.282-1.377.282-2.8.564-7.924.564-4.043.282-2.97.282.438.282 3.9.282 1.606.281-2.4.282-1.169.282 1.958.282.684.282-1.557.282 1.29.564 8.787.282-.821.282-1.634.282-.321.282-.871.282-1.529.282.232.282 1.741.282.881.282.022.282.724.282 1.127.282.393.282-.107.282.483.282 1.734 1.973 22.045.282 1.057.282 2.16.846 16.296.282-.096.282-3.761.282-8.92.564-34.693.564-48.429.564-51.355.564-25.663.282-5.652.282-.468.282 3.075.282 5.491.282 10.087.845 50.275.564 38.132.282 12.276.282 6.13.564 5.951.282 1.247.282.183.564-.658.282.053.282-.312.564-1.802.564.64.282-.094.564.72.564-1.27.282.42.282.118.281-.375.282 1.113.282 2.347.282.917.282-.257.282 1.076.282 1.705.282-.204.282-1.056.282.544.282 1.148.282-.074.282.112.564 2.932.282-.189.282.087.282 1.717.564 5.733.846 9.363.564 5.014.563 1.898.282 3.538.564 9.242.282 2.007.282-.307.282-3.63.282-8.555.282-15.492.564-53.958.564-54.023.564-35.477.282-7.736.282.798.846 12.402.846 42.674 1.691 76.91.282 3.709.846 3.228.282-.636.282-.244.846 5.966.282-.278.282-2.299.564-6.699.282-2.082.564-7.675.282-.586.282 2.135.282-.192.282-2.762.282-1.101.281.848.282-.096.282-.259.564 3.053.564-2.24 1.128 5.6.564 11.889.564 12.102.846 10.147.282.755.282-2.202.282-1.26.282 2.82.564 7.261.282 2.417.563 7.969.282-.711.282-7.005.282-13.18.564-45.104.846-81.284.564-29.121.282-5.86.282-2.148.282-.08.282 3.477.282 10.266L326.75 115l.564 34.412.282 8.614.563 8.637.282.91.282-.76.282.214.282.75.282-.744.282-1.066.564.797.282-1.05.282.013.282 2.053.282.786.564-3.52.282-.242.282-.793.282-1.147.282.523.282 1.387.282.025.282-.867.282-.231.282.15.282-.153.563-.524.282.594.846 6.895.282.399.282.786 1.128 5.735.282 3.387.564 10.426.564 4.985.846 14.827.282 1.322.282 2.284.282.962.282-3.84.564-18.418.281-15.891.564-51.043.846-74.308.282-13.411.282-7.44.282-4.466.282-2.52.282.467.282 3.93.282 7.503.564 27.15.846 55.16.564 39.694.282 10.038.282 5.761.282 3.35.282-.286.564-5.155.281.173.282-.094.564-3.69.282 1.711.282 3.25.282.35.282-2.186.282.018.282 2.188.282-1.449.564-11.17.282.34.282 1.584.282-1.366.282-2.236.282 1.122.564 6.844.282-.123.282 1.148.564 9.034.282-.864.281-2.558.282.648.564 6.355.564 7.411.282-.359.282-1.938.282.656.282 1.023.564-5.077.282 3.439.564 13.048.564 6.095.282 1.963.282-1.244.282-6.868.282-14.935.564-51.327.845-83.378.282-14.864.282-7.78.282-4.612.282-1.446.282 2.786.282 5.683.282 8.355.564 29.815 1.41 85.345.564 15.792.282 3.468.282 1.388.564 5.373.282.31 1.128-9.3.281.995.282 1.458.282.063 1.128-5.024.282-1.741.564-7.728.282-.246.282 1.643.282-.367.282-.59.282 3.215.282 4.827.282 1.936.282.273.564 4.3.564 1.065.846 8.143 1.41 13.492.845 4.646.846 11.088.282.14.282-.996.282-3.643.282-9.934.564-36.173.564-53.417.564-48.793.846-29.958.282-4.571.281 2.31.564 12.426.564 22.056.564 26.421 1.41 73.657.282 9.904.282 4.472.282.96.564-.737.282.216.282-.28.564-3.221.282-.165.282.332.282-.537.564-2.548.563-3.046 1.41-3.144.282-.18.282.454.564 2.274.282.247.282 1.463.564 8.537.282 1.34.282-.705.282.875 1.128 11.46.564 9.105.563 4.66.282.218.282-1.629.282-.455.846 7.813.564 2.47.282-2.426.282-8.54.282-14.374.282-21.445 1.128-122.58.282-16.073.282-9.71.282-3.785.282.467.282 3.27.282 6.786.564 23.357.563 28.75 1.128 62.441.846 33.432.282 7.717.282 3.376.564-1.32.282.35.282-1.906.564-9.442.282-.457.282-.238.564-4.67.282 1.162.282 1.963.282-.437.564-4.041.281.946.564 4.749.282-1.016.282-1.928.282-.314.282.543.564-1.11.282.85.846 5.446.564 3.143.282 2.613.564 8.274.846 14.123.846 12.07.845 11.758.282 2.832.282.862.282-2.146.282-7.707.282-15.887.564-53.205.846-102.766.282-16.306.564-12.5.282-1.29.282 3.836.282 7.962.564 25.013 1.692 78.959.845 31.785.282 6.65.282 3.59.282.178.282-.93.282.98.282 1.94.282-.167 1.128-11.03.282-.818.282-1.447.282.07.564 8.896.282.519.282-2.046.282.52.282 1.89.282-1.327.282-3.543.281-1.442.282.535.282.005.282.208.282 2.351.564 5.356.564 2.501.564 5.635 1.974 25.497.564 13.786.282 6.437.282 3.216.282 1.115.282-.973.282-5.426.281-12.896.282-22.653 1.128-121.43.564-30.505.282-8.155.282-4.623.282-1.878.282 1.938.564 13.525.564 20.012.846 38.87.846 40.393.564 15.032.564 9.146.563 4.137.846 3.022.282.436.282-.722.846-4.282.564-.206.564-1.736.282 1.268.564 5.08 1.41 6.898.846 3.444.281.34.564-.828.282.842.564 5.008.564 5.989.846 11.33.564 4.537.564 8.666.282 6.528.564 17.396.282 1.607.282-7.408.282-15 .564-50.189.845-103.164.282-18.63.564-18.754.282-4.11.282 1.826.564 7.763.282 6.693.564 22.177.564 15.279 1.692 64.518.282 8.239.282 4.767.282 1.274.282-.375.282.612.564 5.89.281 2.877.564 3.693.564 7.968.282 1.5.282-.712.282-.325.282.364.282-.224.282-.718.282-.32.282.098.282.679.846 5.28.282-1.813.564-8.917.282-1.806.282-.356.282-.931.282.755.282 6.047.563 16.33.564 6.885.846 14.594.282 4.968.846 20.72.282 1.985.282-5.94.282-14.749.564-49.384.846-94.283.564-28.611.282-7.633.282-3.323.282-.595.282.912.282 3.692.845 20.749 2.256 79.14.564 11.106.282 2.944.282 1.501.282.023.282-.793.282-.384.846 1.067.282 1.397.846 9.68.563.683.564 4.285.282.234.282.522.282 2.172.282-.047.564-6.925.282 2.9.282 4.477.564 3.156 1.41 17.035.564 6.05.564 7.386.282 1.633.282 3.093 1.41 24.282.281.31.282-7.066.282-15.482.564-62.626.564-67.315.564-35.977.282-9.226.282-4.538.282-1.975.282-.7.282 1.398.282 4.088.564 14.152.564 22.612.845 36.22.564 17.91.564 9.15.564 5.74.564 2.585.282.584.282-.29.282.36.282 1.486.282.734.282.379.282 2.533.282 3.847.564 4.46.564 8.121.564-.632.564 9.442.281.955.282-.943.282 1.052.282 1.927.282.008.846-5.738.282 1.135.564 7.422.282.758.282-1.006.282-.35.282 1.546.564 5.202.282.873.282 1.534 1.128 15.72.845 23.46.282 8.413.282 3.33.282-6.696.282-16.77.564-63.966.564-73.663.564-32.08.282-9.141.282-5.006.282-1.06.282.924.282 2.877.564 13.811.846 28.266.846 35.014.845 15.908.564 9.229.564 5.908.282 1.413.282.04.564-.576.282.395.282 2.085.564 5.148.564 3.217 1.692 10.932.564 4.176.282.51.563 2.25.564-.404.846 8.857.282-.3.846 4.061.282 2.515.564 9.13.282 3.475.564 13.915.564 11.557 1.128 17.714.282-2.236.282-7.777.282-14.059.282-24.835.845-110.34.564-32.78.282-11.882.282-7.137.282-3.424.282-2.02.282 1.07.564 10.827.282 6.996 1.128 45.332.846 31.521.564 11.334.282 1.271.282-.55.282.765.281 1.848.282.44.282-.211.282 1.512.564 4.99 1.128 6.924.564 3.864.282.85.282 1.577.564 6.476.282.91.282-.145.564.595.282-.047.282.822.282 1.398.282-.33.282-1.736.281.266.564 5.805.282.052.282 2.288.846 25.485.282 1.724.282 3.621.282 5.443.282 1.906.282-1.969.282.035 1.41 22.441.282-.45.282-7.645.282-18.486 1.128-119.351.563-30.781.282-7.482.282-1.97.564-.568.282 2.288.564 15.076 1.974 60.92.564 7.397 1.41 14.155.564 7.093.281 1.129.282-.049.282-1.036.846-4.645.564-5.573.846-3.33.282.603.846 12.876.564 4.767 1.128 13.195.564 5.31 1.127 14.877.282 5.54.282 2.564.282-.86.564-3.067.282-2.1.282-.437.846 9.016.282 2.816.564 14.128.282-.697.282-8.028.282-14.06.282-23.832.846-89.779.564-24.563.282-7.855.282-2.991.281 1.371.564 7.489L587 74.55l.564 21.188.846 34.581.282 3.952.564 3.705.564 1.958.846 7.168.282.961.282-.112.282-1.04.282-.492.564 1.513.282-.089.281-.336.282.512.282 2.12.846 8.553.564 4.578.564 4.436.282.547.282.087.282.992.564 3.013.282-.142.282.146.282 1.394.846 5.77.282.453.282-.456.282.679.564 5.642.563 7.956.564 8.734.564 7.525.846 14.488.282.742.282-3.243.282-9.128.282-18.993.846-85.546.564-26.716.564-14.862.282-2.402.564-2.398.282.53.282 5.048 1.41 46.658.281 7.473.846 9.07.564 8.266.564 4.205.282.446.282.887.282 2.224.282 1.226.282-.54.282-.115.564 2.574.282.43.564 1.655.282-.389.281-1.15.282-.14.846 5.184.282-.428.282-.08.564 2.913.564 1.132.846 7.278.282 4.327.564 15.928.282 3 .282.313.564 3.938.564-5.442.282 3.428.282 7.184.282 3.446.281 1.759.282 7.95.564 25.04.846 16.799.282-2.759.282-20.623 1.128-140.477.564-37.572.282-6.945.282-4.054.282-2.211.282 2.193.846 16.199.564 22.215 1.127 43.182.564 14.634.282 8.909.282 4.678.282.231.282.46.282 2.271.282 1.032.282-.234.282.781.282 1.362.282-.533.564-2.661.282-.652.282-.205.564 3.318.282-.614.282-1.706.282.867.282 2.467.281 1.163.282-.03.564 1.619.282.186.282.541.282 1.41.846 2.744.282 1.518.282.353.282.118.282.732.282 1.741 1.128 12.046.564 8.63.282.86.282-1.522.282 1.943.564 12.034.281 3.539.564 11.308.282-2.118.282-14.64 1.128-84.93.564-29.015.282-5.73.282-.384.282.314.282.032.282 3.173.564 16.119 1.128 18.992.564 3.9 1.41 22.475.281 2.09.282-.044.564-.779.282-1.881.282-.37.846 7.462.282 1.055.564 3.626.282-.9.282-.299.564 2.617.282.167.282 1.1.282.233.282-1.993.282-4.252.281-.419h0" clip-path="url(#pecb00e5dec)" style="fill:none;stroke:#1f77b4;stroke-width:1.5;stroke-linecap:square"/><path id="patch_3" d="M71.308 266.112V0" style="fill:none;stroke:gray;stroke-width:.8;stroke-linejoin:miter;stroke-linecap:square"/><path id="patch_4" d="M685.107 266.112V0" style="fill:none;stroke:#000;stroke-width:.8;stroke-linejoin:miter;stroke-linecap:square"/><path id="patch_5" d="M71.308 266.112h613.8" style="fill:none;stroke:gray;stroke-width:.8;stroke-linejoin:miter;stroke-linecap:square"/><path id="patch_6" d="M71.308 0h613.8" style="fill:none;stroke:#000;stroke-width:.8;stroke-linejoin:miter;stroke-linecap:square"/></g></g><defs><clipPath id="pecb00e5dec"><path d="M71.308 0h613.8v266.112h-613.8z"/></clipPath></defs></svg>