<svg xmlns="http://www.w3.org/2000/svg" xmlns:xlink="http://www.w3.org/1999/xlink" width="913.477" height="377.053" viewBox="0 0 685.107 282.79"><defs><style>*{stroke-linejoin:round;stroke-linecap:butt}</style></defs><g id="figure_1"><path id="patch_1" d="M0 282.79h685.107V0H0v282.79z" style="fill:none"/><g id="axes_1"><path id="patch_2" d="M71.308 266.112h613.8V0h-613.8v266.112z" style="fill:none"/><g id="matplotlib.axis_1"><g id="xtick_1"><g id="line2d_1"><defs><path id="m53c0cf9524" d="M0 0v3.5" style="stroke:gray;stroke-width:.8"/></defs><use xlink:href="#m53c0cf9524" x="99.207" y="266.112" style="fill:gray;stroke:gray;stroke-width:.8"/></g><g id="text_1" style="fill:gray" transform="matrix(.1 0 0 -.1 96.026 280.71)"><defs><path id="DejaVuSans-30" d="M2034 4250q-487 0-733-480-245-479-245-1442 0-959 245-1439 246-480 733-480 491 0 736 480 246 480 246 1439 0 963-246 1442-245 480-736 480zm0 500q785 0 1199-621 414-620 414-1801 0-1178-414-1799Q2819-91 2034-91q-784 0-1198 620-414 621-414 1799 0 1181 414 1801 414 621 1198 621z" transform="scale(.01563)"/></defs><use xlink:href="#DejaVuSans-30"/></g></g><g id="xtick_2"><use xlink:href="#m53c0cf9524" id="line2d_2" x="168.958" y="266.112" style="fill:gray;stroke:gray;stroke-width:.8"/><g id="text_2" style="fill:gray" transform="matrix(.1 0 0 -.1 159.414 280.71)"><defs><path id="DejaVuSans-35" d="M691 4666h2478v-532H1269V2991q137 47 274 70 138 23 276 23 781 0 1237-428 457-428 457-1159 0-753-469-1171Q2575-91 1722-91q-294 0-599 50Q819 9 494 109v635q281-153 581-228t634-75q541 0 856 284 316 284 316 772 0 487-316 771-315 285-856 285-253 0-505-56-251-56-513-175v2344z" transform="scale(.01563)"/></defs><use xlink:href="#DejaVuSans-35"/><use xlink:href="#DejaVuSans-30" x="63.623"/><use xlink:href="#DejaVuSans-30" x="127.246"/></g></g><g id="xtick_3"><use xlink:href="#m53c0cf9524" id="line2d_3" x="238.708" y="266.112" style="fill:gray;stroke:gray;stroke-width:.8"/><g id="text_3" style="fill:gray" transform="matrix(.1 0 0 -.1 225.982 280.71)"><defs><path id="DejaVuSans-31" d="M794 531h1031v3560L703 3866v575l1116 225h631V531h1031V0H794v531z" transform="scale(.01563)"/></defs><use xlink:href="#DejaVuSans-31"/><use xlink:href="#DejaVuSans-30" x="63.623"/><use xlink:href="#DejaVuSans-30" x="127.246"/><use xlink:href="#DejaVuSans-30" x="190.869"/></g></g><g id="xtick_4"><use xlink:href="#m53c0cf9524" id="line2d_4" x="308.457" y="266.112" style="fill:gray;stroke:gray;stroke-width:.8"/><g id="text_4" style="fill:gray" transform="matrix(.1 0 0 -.1 295.733 280.71)"><use xlink:href="#DejaVuSans-31"/><use xlink:href="#DejaVuSans-35" x="63.623"/><use xlink:href="#DejaVuSans-30" x="127.246"/><use xlink:href="#DejaVuSans-30" x="190.869"/></g></g><g id="xtick_5"><use xlink:href="#m53c0cf9524" id="line2d_5" x="378.207" y="266.112" style="fill:gray;stroke:gray;stroke-width:.8"/><g id="text_5" style="fill:gray" transform="matrix(.1 0 0 -.1 365.483 280.71)"><defs><path id="DejaVuSans-32" d="M1228 531h2203V0H469v531q359 372 979 998 621 627 780 809 303 340 423 576 121 236 121 464 0 372-261 606-261 235-680 235-297 0-627-103-329-103-704-313v638q381 153 712 231 332 78 607 78 725 0 1156-363 431-362 431-968 0-288-108-546-107-257-392-607-78-91-497-524-418-433-1181-1211z" transform="scale(.01563)"/></defs><use xlink:href="#DejaVuSans-32"/><use xlink:href="#DejaVuSans-30" x="63.623"/><use xlink:href="#DejaVuSans-30" x="127.246"/><use xlink:href="#DejaVuSans-30" x="190.869"/></g></g><g id="xtick_6"><use xlink:href="#m53c0cf9524" id="line2d_6" x="447.957" y="266.112" style="fill:gray;stroke:gray;stroke-width:.8"/><g id="text_6" style="fill:gray" transform="matrix(.1 0 0 -.1 435.233 280.71)"><use xlink:href="#DejaVuSans-32"/><use xlink:href="#DejaVuSans-35" x="63.623"/><use xlink:href="#DejaVuSans-30" x="127.246"/><use xlink:href="#DejaVuSans-30" x="190.869"/></g></g><g id="xtick_7"><use xlink:href="#m53c0cf9524" id="line2d_7" x="517.707" y="266.112" style="fill:gray;stroke:gray;stroke-width:.8"/><g id="text_7" style="fill:gray" transform="matrix(.1 0 0 -.1 504.983 280.71)"><defs><path id="DejaVuSans-33" d="M2597 2516q453-97 707-404 255-306 255-756 0-690-475-1069Q2609-91 1734-91q-293 0-604 58T488 141v609q262-153 574-231 313-78 654-78 593 0 904 234t311 681q0 413-289 645-289 233-804 233h-544v519h569q465 0 712 186t247 536q0 359-255 551-254 193-729 193-260 0-557-57-297-56-653-174v562q360 100 674 150t592 50q719 0 1137-327 419-326 419-882 0-388-222-655t-631-370z" transform="scale(.01563)"/></defs><use xlink:href="#DejaVuSans-33"/><use xlink:href="#DejaVuSans-30" x="63.623"/><use xlink:href="#DejaVuSans-30" x="127.246"/><use xlink:href="#DejaVuSans-30" x="190.869"/></g></g><g id="xtick_8"><use xlink:href="#m53c0cf9524" id="line2d_8" x="587.457" y="266.112" style="fill:gray;stroke:gray;stroke-width:.8"/><g id="text_8" style="fill:gray" transform="matrix(.1 0 0 -.1 574.732 280.71)"><use xlink:href="#DejaVuSans-33"/><use xlink:href="#DejaVuSans-35" x="63.623"/><use xlink:href="#DejaVuSans-30" x="127.246"/><use xlink:href="#DejaVuSans-30" x="190.869"/></g></g><g id="xtick_9"><use xlink:href="#m53c0cf9524" id="line2d_9" x="657.207" y="266.112" style="fill:gray;stroke:gray;stroke-width:.8"/><g id="text_9" style="fill:gray" transform="matrix(.1 0 0 -.1 644.482 280.71)"><defs><path id="DejaVuSans-34" d="M2419 4116 825 1625h1594v2491zm-166 550h794V1625h666v-525h-666V0h-628v1100H313v609l1940 2957z" transform="scale(.01563)"/></defs><use xlink:href="#DejaVuSans-34"/><use xlink:href="#DejaVuSans-30" x="63.623"/><use xlink:href="#DejaVuSans-30" x="127.246"/><use xlink:href="#DejaVuSans-30" x="190.869"/></g></g></g><g id="matplotlib.axis_2"><g id="ytick_1"><g id="line2d_10"><defs><path id="m5969e67814" d="M0 0h-3.5" style="stroke:gray;stroke-width:.8"/></defs><use xlink:href="#m5969e67814" x="71.308" y="216.028" style="fill:gray;stroke:gray;stroke-width:.8"/></g><g id="text_10" style="fill:gray" transform="matrix(.16 0 0 -.16 0 222.107)"><defs><path id="DejaVuSans-2212" d="M678 2272h4006v-531H678v531z" transform="scale(.01563)"/></defs><use xlink:href="#DejaVuSans-2212"/><use xlink:href="#DejaVuSans-31" x="83.789"/><use xlink:href="#DejaVuSans-30" x="147.412"/><use xlink:href="#DejaVuSans-30" x="211.035"/><use xlink:href="#DejaVuSans-30" x="274.658"/><use xlink:href="#DejaVuSans-30" x="338.281"/></g></g><g id="ytick_2"><use xlink:href="#m5969e67814" id="line2d_11" x="71.308" y="160.249" style="fill:gray;stroke:gray;stroke-width:.8"/><use xlink:href="#DejaVuSans-30" id="text_11" style="fill:gray" transform="matrix(.16 0 0 -.16 54.127 166.327)"/></g><g id="ytick_3"><use xlink:href="#m5969e67814" id="line2d_12" x="71.308" y="104.469" style="fill:gray;stroke:gray;stroke-width:.8"/><g id="text_12" style="fill:gray" transform="matrix(.16 0 0 -.16 13.408 110.548)"><use xlink:href="#DejaVuSans-31"/><use xlink:href="#DejaVuSans-30" x="63.623"/><use xlink:href="#DejaVuSans-30" x="127.246"/><use xlink:href="#DejaVuSans-30" x="190.869"/><use xlink:href="#DejaVuSans-30" x="254.492"/></g></g><g id="ytick_4"><use xlink:href="#m5969e67814" id="line2d_13" x="71.308" y="48.689" style="fill:gray;stroke:gray;stroke-width:.8"/><g id="text_13" style="fill:gray" transform="matrix(.16 0 0 -.16 13.408 54.768)"><use xlink:href="#DejaVuSans-32"/><use xlink:href="#DejaVuSans-30" x="63.623"/><use xlink:href="#DejaVuSans-30" x="127.246"/><use xlink:href="#DejaVuSans-30" x="190.869"/><use xlink:href="#DejaVuSans-30" x="254.492"/></g></g></g><path id="line2d_14" d="m99.207 160.262 1.41-.012 4.23-.04.282.079.282-.084.282.09.282-.096.282.102.281-.109.282.116.282-.123.282.132.282-.141.282.15.282-.16.282.172.282-.186.282.2.282-.216.282.234.282-.254.282.278.282-.306.282.339.282-.379.282.428.282-.49.282.57.282-.679.282.837.282-1.086.282 1.537.282-2.616.563 19.998.282-3.951.282 1.584.282-1.302.282-.251.282-1.849.282-.418.282-2.206.564-1.458.282.693.282-.48.282.873.282 1.54.282 2.258 1.128 3.368.282.545.282.274.282-1.565.282-.484.282 2.752.563 8.876.846 6.053.282-.569.282-3.057.282-6.307.282-10.561 1.692-87.049.282 1.25.282 5.38.282 8.019 1.128 45.73.846 21.84.563 2.818.564 8.087.282.637.564-2.544.282.167.282-.882.282-1.64.282-.798.282-.043.564-4.761.282-.14.282 1.343.282-3.61.282-8.218.282-4.572.564 7.52.282-.43.282-.062.846 20.26.281-.24.282 1.18.282 3.062.282 1.691.282-.663.846-2.831.282-.42.282-.936.282-5.091.564-24.133 1.128-63.257.282-6.753.282-3.166.282.47.282 6.58 1.691 76.658.282 7.818.564 6.218.282 2.387.282.826.282-.723.282-.244.282.288.282-.547.564-4.21.282-3.113.564-9.691.282-1.293.282 1.874.282 1.018.282-1.203.282.875.564 11.33.282 2.282.282-.251.282.923.281 2.606.282.935.564-4.017.282.857.846 7.949.564 8.25.282 1.04.282-1.835.282-3.544.282-7.304.282-13.534 1.41-91.1.282-6.755.282-2.317.282 2.208.282 7.895.563 32.686.564 33.611.564 18.595.846 16.956.282 2.952.282-.475.282-2.169.282-.612.282.383.282-1.31.846-8.327.564-4.727.282-.51.282-.781.282-1.745.282-.891.282 1.229.564 4.351.845 10.293.564 1.903.564 4.07.282-.792.282-1.583.282.571.282 1.8.282-.009.282-1.285.282 1.887.282 5.428.282 3.264.282-3.525.564-19.84.564-34.74.564-37.517.282-12.077.282-6.461.281.63.564 13.393.282 8.457.564 29.716.564 26.427.564 13.392.564 4.993.564 3.937.282-.318.282-.666.282-.097.282-.88.564-4.75.564-8.645.282-4.465.282-1.767 1.127 2.152.564 3.154.282.678.282 1.146.282 3.736.564 9.146.282 1.01.282.047.282 1.721.846 14.752.282.09.282-.241.282.453.282-2.625.564-18.682.564-27.803.845-57.857.282-8.803.282-4.68.282-1.925.282 2.287.282 8.673 1.41 68.294.282 7.691.564 9.417.282 6.505.282 3.42.564-2.273.282 3.709.282 5.195.282.66.564-7.51.282-1.543.282-2.424.563-9.28.282-1.218 2.538 12.386 1.974 24.605.282 1.224.564-.432.282-.44.282-4.091.282-12.008 1.691-118.105.282-5.265.282 2.66.564 12.396.564 26.89.846 50.825.282 11.029.564 8.125.564 8.043.282.795.846-1.961.564-3.62.281-.764.282-2.113.564-6.19.282.498.282 1.762.282.335.282-.738.282 1.482.846 14.479.282.998.564 4.742.282.28.282-.1.564 4.856.282.686.282-.2.282.199.282-.452.564-2.627.281-3.778.282-8.947.564-33.588.846-69.563.564-27.691.282-7.06.282-1.872.282 1.588.282 6.393.282 14.955 1.128 84.232.282 13.77.282 7.62.846 12.94.282 1.184.282-.24.282-1.256.563-5.215.564-1.577.564-4 .282 1.316.282 1.883.564.728.282 1.363.282.672.282-.008.282 2.186.564 9.423.282 1.306.282.58.564 6.407.282.782.282-1.405.282.825.564 7.136.281.94.282 1.856.282 2.928.282-1.162.282-8.19.564-31.284 1.41-111.888.282-13.054.282-5.54.282.08.282 5.537.282 14.258 1.128 84.659.564 24.704.846 17.306.281 1.07.282-.275.564 2.985.282-2.637.564-9.624.564-2.962.282-1.317.282-.54.282.834.846 4.114 1.128 10.172.282 2.87.282.57.282-1.737.282-.936.564 3.387.281-.364.282-1.42.282-.001.564 3.187.282.556.282-.765.282-3.366.282-8.343.564-34.276 1.128-83.478.282-8.462.282-4.871.282-2.311.282 4.73.564 31.864 1.41 85.735.563 12.033.282.674.564-5.59.282.939.282.44.564-5.522.282.442.282 1.944.282.66.282-.228.282.14.564.64.564 1.594.282-.08.282-.811.282-.138.282 1.334.282 2.872.564 9.733.563 8.749.846 7.854.282-.022.282-1.563.282-.325.282.707.282-2.46.282-8.674.564-33.57 1.128-91.268.564-29.327.282-.795.564 15.982.564 22.14 1.127 73.4.564 13.414.564 9.076.282.89.282-1.545.564-4.023.282.299.282 1.064.282.163.282-.018.282 1.425.564 4.295.564 1.836.282.243.282.487 1.127 6.971.846 9.39.282.92.282 2.59.564 9.564.846 7.405.282.048.282-2.827.282-4.453.282-8.782.282-18.655 1.128-104.6.564-33.8.282-5.505.282 1.615.564 12.57.281 9.654.282 15.096 1.128 76.952.564 20.567.282 3.602.282 1.31.564 5.49.282-.593.564-7.745.282-1.058.282-.308.282-.725.282-.107.282-.229.564-6.794.282-.081.282 3.724.282 1.938.281-1.032.282 1.582.564 13.379 1.128 14.5.282 2.06.282 5.31.282 7.62.282 3.867.282-.285.282 1.624.282 4.273.282-.336.282-9.025.564-32.633.564-51.528.564-52.879.564-34.926.282-6.678.281-.047.282 3.289.282 5.156.282 8.408.282 13.828 1.128 76.949.564 19.14.282 2.891.282.61.282 1.908.282 3.238.282 1.31.282-1.239.282-.267.564 5.365.282.026.282-1.6.282-.593.564 1.363.281-.406.282-.16.282 2.104.564 7.32.282 1.378.282 3.116.564 13.745.282 2.347.282.597.282 3.394.282 4.994.282 2.93.564 1.766.564 1.076.282.944.282-2.06.282-10.663.564-45.012 1.127-111.687.282-14.551.282-5.951.282.051.282 2.657.282 3.967.282 8.101.564 34.29.846 50.747.282 13.11.282 7.024.282 3.047.282 5.736.564 19.926.282 3.796.282.688.564 3.452.282-2.883.564-10.164.281.285.282 1.247.282.006.282.577.564 4.44.282.732.282 1.532.564 6.187.282 1.51.282 3.264.564 12.566.564 6.872.564 9.74.282.723.564-2.228.282-3.294.282-9.303.564-35.757.563-58.35.564-58.32.282-16.574.282-9.954.282-5.114.282.25.282 5.216.564 18.884.564 33.436.846 55.249.564 17.3.564 11.507.282 2.494.282.366.282-.01.564.892.563-.677.282 1.533.564 9.328.282 4.451.282 2.53.846 4.008.282-.02.282-.897.282.04.282 2.07.564 5.795.282 2.01.282 3.65.564 13.688.282 2.956.282.102.282 2.087.282 3.66.282-.804.282-7.786.563-27.307.564-49.561.846-75.639.282-16.025.282-9.26.282-4.587.282-2.176.282 1.05.282 6.352.564 28.08 1.41 93.063.282 3.654.282 1.289.846 12.984.563 2.571.282-.281 1.128-9.142.282-1.172.282 1.041.564 7.911.282-.18.282-1.647.282 1.337.282 2.575.282-.814.282-2.635.282.716 1.974 28.84.563 10.415.282.584.282-1.496.282-5.814.282-13.836.564-46.305.846-81.398.564-29.071.564-13.289.282-.128.282 5.833.846 31.171 1.692 104.505.281 6.992.846 6.667.282-.696.282-2.039.282-.488.282.169.564-2.638.282.292.282 1.292.282.421.282-.422.282.175.282 1.349.846 5.408.564 2.793.564 5.64.564 6.025.563 12.584.282 6.505.282 3.722.564 2.862.282-.521.282-5.2.282-11.961.564-42.018 1.128-105.37.846-35.014.282-1.859.282 5.02.564 19.347.564 35.193.845 65.292.282 11.752.564 11.192.846 15.4.282 1.156.564-1.116.282-1.677.846-10.459.282.133.846 3.41.564.496.282.745.282 1.529.282 3.316.845 14.611.282 2.717 1.128 15.15.846 7.406.282-2.418.282-8.81.564-38.193 1.128-108.076.564-25.742.282-6.798.282-.665.282 6.62.846 35.923.563 40.916.564 39.16.282 10.825.282 4.991.282.316.282-.513.282 1.359.282.012.846-15.488.282.157.282-1.062.282-2.4.282-.634.282 1.173.282.678.282.107.282 1.314.846 7.053.282 5.302.845 29.568.846 16.485.564 4.27.564 8.209.282 1.068.282-.605.282-3.442.282-9.903.564-40.486 1.128-124.12.564-24.458.282-4.839.282 1.772.564 7.378.281 8.742.564 35.67 1.128 76.757.564 26.226.282 7.817.282 3.277.564 3.297.282-.201.282-1.643.282-.893.282.15.564-.057.282.244.282-.25.564-1.822.282.497.563 2.013.282 1.834.564 5.596.564 2.342.282 2.433 1.692 27.376.282 2.42.282-1.697.282-8.473.282-16.897.564-55.156.846-92.436.282-18.662.282-8.296.282-2.356.282-.438.281 2.247.282 6.617.564 23.043 1.128 64.006.564 36.113.282 6.457.282.703.282 2.014.564 7.846.282.732.564-1.597.282.614.564 3.91.564 1.32.282 1.38.282 2.431.845 11.145.282-1.523.282-3.843.282-2.132.282.615.282 1.219.282.17.282-.023.282 1.77.282 4.657 1.128 24.649.282 3.39.282.102.282-7.365.282-18.986.564-66.96.846-95.765.282-17.457.281-8.99.282-3.855.282-.715.282 3.218.282 7.714.564 26.15.846 58.096.564 39.64.564 27.24.564 17.357.282 3.187.282.457 1.128-5.079.564-7.271.282 1.4.563 11.611.282.405.282-.724.564 1.967.282-.86.282-1.23.282.425.282 2.604 1.128 17.767.846 21.58.564 9.939.282.688.282-7.619.282-15.797.564-51.992.845-95.17.282-18.548.282-9.522.282-4.013.282-1.872.282 1.172.282 6.198 1.128 36.056 1.692 86.55.282 4.872.282 2.212.282.776.282.015.282-.642.282-.009.282 2.495.282 3.518.281.591.282-2.003.282-.356.282 1.695.282-.228.282-2.528.282-.932.282 2.207.846 8.703.282 1.712.282 3.13 1.128 25.181.564 9.684.282 2.54.282.333.282-1.352.282-6.773.282-16.933.563-60.073.564-62.864.564-37.556.282-8.656.282-3.187.282-1.07.282-1.87.282.042.282 6.617.846 32.312 1.692 104.075.282 9.744.282 4.991.282 2.574.282.764.563-.923.282-1.46.282-3.051.282-1 .564 5.925.282-.787.282.396.564 8.619.282-1.758.282-2.875.282.925.846 8.84.282 5.022.282 2.876.282.718.282 2.944.564 9.928.564 3.06.282 2.177.282-3.18.281-13.448.564-56.217.846-104.042.282-13.964.564-11.592.282-1.885.282 3.191.564 8.487.282 3.482.282 8.945 1.41 77.268.564 43.188.282 10.768.564 9.354.281 2.518.282-1.835.564-7.328.282.227.282.535.282-.295.282.301.282 1.188.282.568.282-.165.282.12.282.332.282.132.282 1.07.564 6.295 1.41 19.061.846 21.569.282 1.377.281-.511.282-4.644.282-13.777.564-59.412.846-103.069.282-17.272.282-7.968.282-1.107.564 3.94.282 3.197.564 18.138.564 19.474.564 30.732 1.128 63.855.282 9.71.563 9.002.282 2.4.282.863.282.152.282-.28.282-1.781.282-2.593.282-1.023.282.835.282.36.282-.533.282.797.564 4.932.564 1.558.564 3.654.282 3.529 1.128 25.744.845 10.55.282-1.945.282-7.555.282-11.256.282-17.352.564-67.187.564-59.659.564-24.233.282-7.513.282-3.243.282.55.282 2.65.564 8.065.282 5.443.282 8.978.846 44.37 1.127 55.52.564 18.405.282 2.878.564 1.528.282.028.564-2.335.282-.364.282 1.273.846 12.747.564-.235.282 1.916.282.895.282-1.831.282-1.1.282 3.066.564 10.479.564 8.052.845 18.376.282 2.554.282-2.516.282-9.259.282-17.877.564-63.285.564-68.958.564-36.763.282-7.184.282-1.864.282 1.56.564 7.846.564 12.932.564 20.936.846 42.187.845 45.487.564 16.58.564 6.143.282 1.355.282-.735.564-3.706.282-.702.282.002.282 1.313.846 6.958.564 8.991.282 1.948.282.317.282 1.97.846 10.047.845 10.64.564 13.141.282 3.033.282-1.856.282-4.315.282-6.042.282-10.436.282-18.506.564-66.73.564-69.719.282-18.834.282-11.104.282-6.628.282-1.65.282 2.876.564 9.407.564 15.477.564 20.66 1.127 56.183.846 44.463.564 16.017.282 3.47.282.91.282.188.282-.356.282-.97.282.27.564 6.184.282.594.282-.923.282.52.282 1.156.282-.901.282-2.022.282.207.845 5.55 1.128 16.43.564 14.061.282.184.282-.96.282-.498.282-6.374.564-37.27.564-64.545.564-69.273.282-14.935.564-11.782.282-2.17.282 1.692.564 9.624.563 13.715.846 40.008.564 27 .846 45.235.564 18.196.282 4.894.282 1.858.282.005.282-.395.564-.109.846-2.354.282-.37.282-.634.282.521.282 1.475.282.354.281-.455.282 1.28.282 2.127.282 1.091.282 3.148 1.41 41.524.282 7.748.282 3.573.282 1.406.282.725.282-5.758.282-18.794.564-72.735.564-75.986.282-21.663.564-21.039.282-4.125.282 1.245.563 7.77.282 5.465.564 18.54.564 29.314.846 48.492.846 33.997.564 15.6.282 3.793.282 1.337.564.31.282.593.282 1.202.282.118.846-5.706.282-1.345.563-8.071.282-.084.564 5.741.282 2.286.282 4.928.564 12.74.564 9.401.564 13.06.564 6.926.282.673.282-5.715.282-14.306.282-23.406 1.128-137.334.282-13.348.282-6.83.281-2.59.282 1.09.282 2.882.282 4.474.564 16.072.564 20.103 1.128 52.4.564 19.86.846 22.944.282 2.243.282 1.094.282 1.58.282-.085.282-1.576.282-.257.282.707.564-2.79.281 1.478.564 5.672.282 1.731 1.128 15.373.282 1.726.564 8.384.564 10.56.564 12.436.846 11.3.282-.464.282-9.62.564-42.003 1.127-127.452.282-7.558.564-7.286.282-1.282.282.87.282 2.92.282 6.619 1.41 53.87.564 19.38.564 14.365.564 16.504.564 10.828.564 6.491.282 2.147.282 1.289.282-.827.281-1.25.282.518.282.962.282-.893.282-.233.564 8.132.282.27.282-2.179.282 1.634.564 11.56.564 4.598.846 16.788.564 3.993.282 1.593.282.402.282-3.818.282-12.658.564-56.308.563-62.2.564-35 .282-6.443.282-1.977.282.937.282 3.658.564 13.676 1.974 69.517.564 14.426 1.41 24.701.563 3.928.282.83.282-.605.846-4.43.282-.69.282.336.282 1.735 1.974 20.59.564 13.173.564 13.073.846 13.467.282.754.282-5.034.282-15.303.563-59.135.564-57.5.282-19.448.282-11.373.564-8.546.282-3.427.282.271.564 13.113.564 15.781 1.128 39.455.564 21.202 1.41 33.774.281 2.428.282-1.487.564-9.38.564-5.823.282-1.605.282 1.033.282 1.521.282-.054.282.21.564 5.269.282-1.9.282-4.443.282-2.135.282.743.282 2.194.282 3.683.846 18.452.846 23.011.281 1.863.282-.642.282-5.373.282-16.767.846-82.424.564-26.542.282-9.232.282-5.404.282-.421.564 7.34.564 10.825.564 14.15.846 25.82.282 4.05.282 9.176.564 28.218.282 5.647.845 7.582.282-1.463.846-8.558.282-1.099.282 1.046.282.137.282-.64.282 1.478.282 3.909.282 1.883.282-.4.282.64.282 2.67.282 1.009.282-.59.282.774.846 9.788.282 5.71.563 14.008.282 3.014.282 1.608.282-1.429.282-11.583 1.128-81.835.564-29.496.282-7.032.564-4.296.282-1.607.282 1.687.564 9.467.282 5.534.564 20.414.564 23.843.564 14.459.281 7.92h0" clip-path="url(#p187dcc0231)" style="fill:none;stroke:#1f77b4;stroke-width:1.5;stroke-linecap:square"/><path id="patch_3" d="M71.308 266.112V0" style="fill:none;stroke:gray;stroke-width:.8;stroke-linejoin:miter;stroke-linecap:square"/><path id="patch_4" d="M685.107 266.112V0" style="fill:none;stroke:#000;stroke-width:.8;stroke-linejoin:miter;stroke-linecap:square"/><path id="patch_5" d="M71.308 266.112h613.8" style="fill:none;stroke:gray;stroke-width:.8;stroke-linejoin:miter;stroke-linecap:square"/><path id="patch_6" d="M71.308 0h613.8" style="fill:none;stroke:#000;stroke-width:.8;stroke-linejoin:miter;stroke-linecap:square"/></g></g><defs><clipPath id="p187dcc0231"><path d="M71.308 0h613.8v266.112h-613.8z"/></clipPath></defs></svg>