<svg xmlns="http://www.w3.org/2000/svg" xmlns:xlink="http://www.w3.org/1999/xlink" width="913.477" height="377.053" viewBox="0 0 685.107 282.79"><defs><style>*{stroke-linejoin:round;stroke-linecap:butt}</style></defs><g id="figure_1"><path id="patch_1" d="M0 282.79h685.107V0H0v282.79z" style="fill:none"/><g id="axes_1"><path id="patch_2" d="M71.308 266.112h613.8V0h-613.8v266.112z" style="fill:none"/><g id="matplotlib.axis_1"><g id="xtick_1"><g id="line2d_1"><defs><path id="m8602b60fc4" d="M0 0v3.5" style="stroke:gray;stroke-width:.8"/></defs><use xlink:href="#m8602b60fc4" x="99.207" y="266.112" style="fill:gray;stroke:gray;stroke-width:.8"/></g><g id="text_1" style="fill:gray" transform="matrix(.1 0 0 -.1 96.026 280.71)"><defs><path id="DejaVuSans-30" d="M2034 4250q-487 0-733-480-245-479-245-1442 0-959 245-1439 246-480 733-480 491 0 736 480 246 480 246 1439 0 963-246 1442-245 480-736 480zm0 500q785 0 1199-621 414-620 414-1801 0-1178-414-1799Q2819-91 2034-91q-784 0-1198 620-414 621-414 1799 0 1181 414 1801 414 621 1198 621z" transform="scale(.01563)"/></defs><use xlink:href="#DejaVuSans-30"/></g></g><g id="xtick_2"><use xlink:href="#m8602b60fc4" id="line2d_2" x="168.958" y="266.112" style="fill:gray;stroke:gray;stroke-width:.8"/><g id="text_2" style="fill:gray" transform="matrix(.1 0 0 -.1 159.414 280.71)"><defs><path id="DejaVuSans-35" d="M691 4666h2478v-532H1269V2991q137 47 274 70 138 23 276 23 781 0 1237-428 457-428 457-1159 0-753-469-1171Q2575-91 1722-91q-294 0-599 50Q819 9 494 109v635q281-153 581-228t634-75q541 0 856 284 316 284 316 772 0 487-316 771-315 285-856 285-253 0-505-56-251-56-513-175v2344z" transform="scale(.01563)"/></defs><use xlink:href="#DejaVuSans-35"/><use xlink:href="#DejaVuSans-30" x="63.623"/><use xlink:href="#DejaVuSans-30" x="127.246"/></g></g><g id="xtick_3"><use xlink:href="#m8602b60fc4" id="line2d_3" x="238.708" y="266.112" style="fill:gray;stroke:gray;stroke-width:.8"/><g id="text_3" style="fill:gray" transform="matrix(.1 0 0 -.1 225.982 280.71)"><defs><path id="DejaVuSans-31" d="M794 531h1031v3560L703 3866v575l1116 225h631V531h1031V0H794v531z" transform="scale(.01563)"/></defs><use xlink:href="#DejaVuSans-31"/><use xlink:href="#DejaVuSans-30" x="63.623"/><use xlink:href="#DejaVuSans-30" x="127.246"/><use xlink:href="#DejaVuSans-30" x="190.869"/></g></g><g id="xtick_4"><use xlink:href="#m8602b60fc4" id="line2d_4" x="308.457" y="266.112" style="fill:gray;stroke:gray;stroke-width:.8"/><g id="text_4" style="fill:gray" transform="matrix(.1 0 0 -.1 295.733 280.71)"><use xlink:href="#DejaVuSans-31"/><use xlink:href="#DejaVuSans-35" x="63.623"/><use xlink:href="#DejaVuSans-30" x="127.246"/><use xlink:href="#DejaVuSans-30" x="190.869"/></g></g><g id="xtick_5"><use xlink:href="#m8602b60fc4" id="line2d_5" x="378.207" y="266.112" style="fill:gray;stroke:gray;stroke-width:.8"/><g id="text_5" style="fill:gray" transform="matrix(.1 0 0 -.1 365.483 280.71)"><defs><path id="DejaVuSans-32" d="M1228 531h2203V0H469v531q359 372 979 998 621 627 780 809 303 340 423 576 121 236 121 464 0 372-261 606-261 235-680 235-297 0-627-103-329-103-704-313v638q381 153 712 231 332 78 607 78 725 0 1156-363 431-362 431-968 0-288-108-546-107-257-392-607-78-91-497-524-418-433-1181-1211z" transform="scale(.01563)"/></defs><use xlink:href="#DejaVuSans-32"/><use xlink:href="#DejaVuSans-30" x="63.623"/><use xlink:href="#DejaVuSans-30" x="127.246"/><use xlink:href="#DejaVuSans-30" x="190.869"/></g></g><g id="xtick_6"><use xlink:href="#m8602b60fc4" id="line2d_6" x="447.957" y="266.112" style="fill:gray;stroke:gray;stroke-width:.8"/><g id="text_6" style="fill:gray" transform="matrix(.1 0 0 -.1 435.233 280.71)"><use xlink:href="#DejaVuSans-32"/><use xlink:href="#DejaVuSans-35" x="63.623"/><use xlink:href="#DejaVuSans-30" x="127.246"/><use xlink:href="#DejaVuSans-30" x="190.869"/></g></g><g id="xtick_7"><use xlink:href="#m8602b60fc4" id="line2d_7" x="517.707" y="266.112" style="fill:gray;stroke:gray;stroke-width:.8"/><g id="text_7" style="fill:gray" transform="matrix(.1 0 0 -.1 504.983 280.71)"><defs><path id="DejaVuSans-33" d="M2597 2516q453-97 707-404 255-306 255-756 0-690-475-1069Q2609-91 1734-91q-293 0-604 58T488 141v609q262-153 574-231 313-78 654-78 593 0 904 234t311 681q0 413-289 645-289 233-804 233h-544v519h569q465 0 712 186t247 536q0 359-255 551-254 193-729 193-260 0-557-57-297-56-653-174v562q360 100 674 150t592 50q719 0 1137-327 419-326 419-882 0-388-222-655t-631-370z" transform="scale(.01563)"/></defs><use xlink:href="#DejaVuSans-33"/><use xlink:href="#DejaVuSans-30" x="63.623"/><use xlink:href="#DejaVuSans-30" x="127.246"/><use xlink:href="#DejaVuSans-30" x="190.869"/></g></g><g id="xtick_8"><use xlink:href="#m8602b60fc4" id="line2d_8" x="587.457" y="266.112" style="fill:gray;stroke:gray;stroke-width:.8"/><g id="text_8" style="fill:gray" transform="matrix(.1 0 0 -.1 574.732 280.71)"><use xlink:href="#DejaVuSans-33"/><use xlink:href="#DejaVuSans-35" x="63.623"/><use xlink:href="#DejaVuSans-30" x="127.246"/><use xlink:href="#DejaVuSans-30" x="190.869"/></g></g><g id="xtick_9"><use xlink:href="#m8602b60fc4" id="line2d_9" x="657.207" y="266.112" style="fill:gray;stroke:gray;stroke-width:.8"/><g id="text_9" style="fill:gray" transform="matrix(.1 0 0 -.1 644.482 280.71)"><defs><path id="DejaVuSans-34" d="M2419 4116 825 1625h1594v2491zm-166 550h794V1625h666v-525h-666V0h-628v1100H313v609l1940 2957z" transform="scale(.01563)"/></defs><use xlink:href="#DejaVuSans-34"/><use xlink:href="#DejaVuSans-30" x="63.623"/><use xlink:href="#DejaVuSans-30" x="127.246"/><use xlink:href="#DejaVuSans-30" x="190.869"/></g></g></g><g id="matplotlib.axis_2"><g id="ytick_1"><g id="line2d_10"><defs><path id="m3b57c5a34f" d="M0 0h-3.5" style="stroke:gray;stroke-width:.8"/></defs><use xlink:href="#m3b57c5a34f" x="71.308" y="261.992" style="fill:gray;stroke:gray;stroke-width:.8"/></g><g id="text_10" style="fill:gray" transform="matrix(.16 0 0 -.16 0 268.07)"><defs><path id="DejaVuSans-2212" d="M678 2272h4006v-531H678v531z" transform="scale(.01563)"/></defs><use xlink:href="#DejaVuSans-2212"/><use xlink:href="#DejaVuSans-32" x="83.789"/><use xlink:href="#DejaVuSans-30" x="147.412"/><use xlink:href="#DejaVuSans-30" x="211.035"/><use xlink:href="#DejaVuSans-30" x="274.658"/><use xlink:href="#DejaVuSans-30" x="338.281"/></g></g><g id="ytick_2"><use xlink:href="#m3b57c5a34f" id="line2d_11" x="71.308" y="207.732" style="fill:gray;stroke:gray;stroke-width:.8"/><g id="text_11" style="fill:gray" transform="matrix(.16 0 0 -.16 0 213.81)"><use xlink:href="#DejaVuSans-2212"/><use xlink:href="#DejaVuSans-31" x="83.789"/><use xlink:href="#DejaVuSans-30" x="147.412"/><use xlink:href="#DejaVuSans-30" x="211.035"/><use xlink:href="#DejaVuSans-30" x="274.658"/><use xlink:href="#DejaVuSans-30" x="338.281"/></g></g><g id="ytick_3"><use xlink:href="#m3b57c5a34f" id="line2d_12" x="71.308" y="153.472" style="fill:gray;stroke:gray;stroke-width:.8"/><use xlink:href="#DejaVuSans-30" id="text_12" style="fill:gray" transform="matrix(.16 0 0 -.16 54.127 159.55)"/></g><g id="ytick_4"><use xlink:href="#m3b57c5a34f" id="line2d_13" x="71.308" y="99.212" style="fill:gray;stroke:gray;stroke-width:.8"/><g id="text_13" style="fill:gray" transform="matrix(.16 0 0 -.16 13.408 105.29)"><use xlink:href="#DejaVuSans-31"/><use xlink:href="#DejaVuSans-30" x="63.623"/><use xlink:href="#DejaVuSans-30" x="127.246"/><use xlink:href="#DejaVuSans-30" x="190.869"/><use xlink:href="#DejaVuSans-30" x="254.492"/></g></g><g id="ytick_5"><use xlink:href="#m3b57c5a34f" id="line2d_14" x="71.308" y="44.952" style="fill:gray;stroke:gray;stroke-width:.8"/><g id="text_14" style="fill:gray" transform="matrix(.16 0 0 -.16 13.408 51.03)"><use xlink:href="#DejaVuSans-32"/><use xlink:href="#DejaVuSans-30" x="63.623"/><use xlink:href="#DejaVuSans-30" x="127.246"/><use xlink:href="#DejaVuSans-30" x="190.869"/><use xlink:href="#DejaVuSans-30" x="254.492"/></g></g></g><path id="line2d_15" d="m99.207 153.46 1.41.024 1.41-.026 1.41.029.846-.032.846.035.846-.038.845.043.846-.05.846.059.282-.066.282.07.282-.076.282.083.282-.091.282.101.282-.113.282.129.282-.15.282.177.282-.217.282.282.282-.4.282.682.282-2.144.282-6.252 1.127 14.492.282 1.217.282 1.91.282 3.307.282 1.764.282-.495 1.692-8.676.282-.072.564 4.166.282-.459.282-1.706.282.073.282.264.564-2.54.282.542.282.089.282-.81.281.235.282 1.066.282-.742.282-1.804.282-.054.564 3.498.282.171.282-.185.564.942.282-.636.564-5.616.282-2.908.282-1.195.282 1.033 1.128 10.984.564 7.471.845 8.355.282-.457.282-3.825.282-6.413.564-22.047.564-23.36.564-11.346.282-2.446.282-.808.282.602.282 2.36 1.41 21.459.564 20.221.564 22.82.282 7.177.282 2.805.281-.994.564-6.244.282-.866.282.37.282-.606.846-6.382.846-9.427.282-1.172.282-.557.282.296.846 4.217.282.155.282-.157.564-1.015.282.05.282.27.282-.473.563-2.546.282-2.156 2.82-31.625.282-2.089.282.269.282 3.179.846 16.873.846 16.306.282 2.18.564 1.11.282-.016.845-5.024.282.455.282-.378.564-1.808.282-.962.564-2.92.282-.044.282-.503.282-1.094.282.179.564 3.244.282.25.282-.234.846-.08.282-.458.282-.154.282.502.282.101.845-4.15.282-.285.282-.09.282.153.282-.33.564-3.066.282-.639.282.054.282.505.282 1.481.282 2.119.282.885.282-1.36.282-2.041.282-.208.564 2.626.282.622.282 3.084.564 9.304.564 1.799 1.973 20.354.282 1.315.282.544.282-.765.564-4.717.282-3.766.282-7.129 1.128-48.044.564-27.431.282-7.57.282-2.55.282-.978.282.03.282 3.129 1.41 32.224.563 20.641.564 21.662.282 6.082.282 2.49.282-.428.564-3.537.564-1.463.564-2.502.282-.429.282-.97.564-3.908.282-.06.564 4.066.563 4.088 1.41 5.965.564-.256.282.012.282-1.015.282-2.672.564-7.574.564-3.483.282-4.317.846-19.6.564-9.317.282-2.208.282 1.93.564 11.86.563 12.872.282 3.109.846 3.12.282.754.282-1.214.282-2.384.282-.971.282.454.282-.368.282-1.026.282.394.282 1.004.282-.47.282-.984.282.637.564 3.547.282 1.014.564.658.564 1.93.563-.371.282.49.282-.19.282-1.084.282-.536.282-.125.282-.634.282-.038.282.996.282-.06.564-3.06.282.545.846 3.19.282.162.564-.707.282.066.282.505.846 4.418.282-.189.281.63.846 4.078.282.538.564-2.038.282 1.385.846 15.354.282.976.282.316 1.128 7.788.282-.689.282-4.486.564-20.386.564-35.111.564-33.55.563-19.098.282-2.974.282-.533.564-2.589.282 2.062.564 11.339.564 15.372.564 21.41.846 39.852.282 4.177.282.868.282 1.345.282-.035.564-5.584.564 1.572.282-1.098.281.038.282.928.282-1.07.282-2.043.282-1.132.564-3.093.282 2.179.282 3.809.282.741.282.006.564 8.83.282 1.198.846-3.231.282-2.092.282.185.282 1.44.282-.2.282-.553.282 1.672.564 6.269.845 13.555.564 4.062.564 5.63.282.238.282-2.084.282-3.29.282-4.796.282-8.628.846-45.102.564-29.22.564-17.069.282-5.027.282-2.352.282 1.697.564 6.295.282.588.282 1.93.563 9.906.282 7.08.564 27.544.282 13.158.282 7.568.282 3.8.282 1.779.282.08.564-1.966.564-2.84.282.223.282.595.282-.1.282.067.282.449.564-.544.282 1.427.564 4.327.282.652.282 1.374.281 2.137.282 1.246.282.412.282 2.01.564 6.842.282-.703.282-1.273.282 1.194.282 1.884.282.31.282 1.076 1.974 29.035.282 2.239.282-.032.282-1.105.282-1.597.282-4.823.282-10.676.845-49.704.564-32.084.564-20.98 1.41-30.49.846-13.052.282.029.282 4.804.282 11.18 1.41 83.948.282 6.758.563 5.36 1.128 6.2.282.393.282-.482.282 1.226.564 8.465.564 6.996.846 6.757.282-1.787.282-2.937.282.063.282 2.523.282.744.846-5.265.282-4.583.564-20.775.845-32.827.564-11.619.282-2.438.282 2.942.564 16.162 1.128 34.149.282 1.393.564.861.282-1.028.564-5.525.282-.435.282.744.282-.878.282-1.804.282 1.11.282 4.083.281 2.157.564-4.383.282 1.409.282 2.477.282-1.347.282-4.25.282-1.744.564 3.727.564-3.08.564.05.846-3.52.282-.16.282.904.282 1.372.282.4.282-.57.282.032.282.977.282.368.563-2.543.282-.348 1.128 1.124.564-1.31.282 1.7.282 2.724.282 1.052.282.34.282 2.498.564 7.167.846 4.134.564 6.956.564 6.88.282 3.02.282 4.608.563 12.354 1.128 15.403.282-.467.282-4.903.282-8.868.282-14.696 1.41-100.632.564-22.515.846-22.76.564-19 .282-6.54.282-3.533.282.794.282 5.614.281 10.385.564 37.2.846 64.447.564 25.045.282 6.163.282 3.31.282.238.282-1.157.282.124.282.548.282-1.438.282-2.197.282.043.282 1.82.282.927.564-1.268.282.534.564 3.192.282.766.282 1.218.845 9.244.282.149.282 1.35.564 5.896.564 1.415.282.772.282.087.282.312.282 2.937.564 9.578.564 7.39.564 9.954.282 3.048.282 1.372.282-.504.282-2.435.282-5.164.282-9.891.845-50.287.846-53.367 1.692-76.927.282-8.248.282-4.078.282-1.723.282 1.534.282 6.249.282 10.576.564 36.495.846 68.324.564 26.263.281 5.388.282 2.816.282 1.55.282.27.564-.247.282-.848.282-1.282.282.025.282.958.564.478.564 2.34.282-.462.282.77.282 1.905.282-.823.282-2.825.282.232.282 2.88.282.946.282.082.564 4.66.563-3.887.282 3.826.282 5.478.564 3.922 1.128 19.4 1.41 23.14.282 1.503.282-1.579.282-5.643.282-11.126.564-39.702.846-60.653 1.41-71.488.281-9.596.564-8.55.282-1.773.282.685.282 4.141.282 9.334.846 45.82 1.128 91.788.282 11.241.282 5.08.282-.903.282-2.771.282-1.39.282-2.233.282-4.127.282-1.248.563 8.385.282.165.846-4.72.846-9.212.282-1.399.282.124.282.444.282-1.536.564-8.169.282-7.558.846-37.563.564-10.888.282-4.126.282-.803.282 5.433.845 29.105.564 12.447.282 3.154.282.713.282-1.337 1.41-13.87.282.021.282 1.134.282-2.112.564-9.935.282.059.282.811.282-1.355.282-.74.282 3.148.564 8.304.282.366.563-1.43.282.158.564 1.953.282 1.003.282.145.282-.776.282.033.564 4.323.282.078.282-.973.282.426.282 1.473.282.59.282-.162.282.984.564 5.438 1.128 5.732.564-4.247.282.38.281 1.575.282-.458.282-1.442.282 1.743.564 11.65.282 1.755.282-.974.282.953.564 6.56.564-3.277.282 2.285.564 9.544.282 3.513.282 6.516.564 16.49 1.128 15.358.563 3.641.282-.768.282-6.531.564-31.586 1.692-122.649.846-44.907.564-8.81.282-3.44.282.464.564 10.48.282 6.507.282 9.439.564 31.73 1.41 96.346.281 8.832.282 3.791.282 2.055.282.17.564-3.379.282.328.282.055.564-2.795.282.01.846 2.074.282.37.282.713.564 1.957.282.547.282 1.846.282 3.267.282 1.834.563-2.644.282.749.282.27.564-4.727.282 2.101.282 3.392.282 1.797.282 3.811 1.128 33.495.564 11.368.846 12.874.282-3.317.282-8.627.282-13.018.564-43.509.845-67.174.846-60 .282-13.687.564-13.077.282-3.937.282-2.18.282 1.033.564 8.381.282 5.72.282 8.83.564 28.835.846 54.475.564 30.406.564 12.491.282 2.672.563-1.036.282 1.454.282.242.564-3.213.282.186.282-.578.846-6.268.282 1.747.282 4.056.282 2.231.282-.391.282 1.58.564 8.901.282.075.282-.5.564 1.565.282-.75.282-.108.282 2.324 1.127 15.844.846 26.137.282 3.987.846 14.724.282-2.387.282-4.864.282-7.485.282-13.186.846-65.041 1.41-117.818.564-16.07.282-3.923.281-1.634.282-.225.282.52.282 1.758.282 3.926.282 7.243.564 27.403 1.692 103.37.564 13.252.282 1.813.282.464.282 1.93.564 9.805.564 8.305.564 7.481.563 6.83.564 3.87.282 2.098.282.327.564-2.303.282-2.484.282-6.612.564-27.655 1.692-100.908.282-6.656.282-2.506.282-.133.282 5.368.846 43.214.563 24.781.846 23.651.282 4.46.282.041.282-.313.282 1.744.282 1.047.282-1.318.564-3.35.282-.553.282.3.282-.452.282-2.185.282-.681.564 7.122.282-1.002.282-3.207.282-.398.282 1.092.282-2.24.563-9.21.282-.155.282 1.285.282.463.282-.392.564-1.331.282-.165.564 1.907.282.178.282.007.282 2.038.282 3.817.282 1.94.564-4.666.282.128.282 1.551.282-.693.282-2.713.282-1.428.282 1.088.282 1.71.282.67.282.201.281 1.398 1.128 11.737.564 4.887.564 7.44.846 15.366 1.692 42.975.282 3.371.282 1.55.282-2 .282-10.633.564-43.384 1.691-156.207.282-12.655.564-11.413.282-2.734.282.418.564 4.768.282 4.692.846 26.625.564 25.86 1.128 55.759.564 16.075.563 7.184.282 1.187.282 2.064.564 9.342.282 1.342.282.387.846 7.717.282.163.282 1.154.564 5.745.282 3 .282 1.631.282.364.282.655.564 2.675.282-.099.282-.536.282.155.282.64.564.342.281 1.444.564 6.93.564 9.777.564 12.517.564 11.007.564 13.221.282 3.497.282 1.916.282-.899.282-5.656.282-10.657.282-16.426.564-51.85 1.128-103.192.564-24.078.281-5.66.564-4.763.282-2.45.282-.884.282 2.979.564 10.811.282 7.655.846 38.99 1.128 48.523.282 7.07.282 4.128.564 3.177 1.691 17.66.282 2.311.564 11.466.282 2.616.282.747.282 1.41.282.7.282-.386.282.625.282.91.282-.03.282 2.115.282 4.954.282 2.4.282-1.208.282 1.072.282 3.607.282.253.282-2.248.282 1.285.564 9.47.564 15.557.845 19.209.282 6.336.282 3.039.282.903.282-.081.282-4.505.282-11.98.564-43.346 1.128-111.51.282-18.018.564-16.438.282-5.293.282-2.245 1.128 7.291.282 5.259.563 17.388 2.256 81.596.282 3.406.282-1.002.282-.042.846 12.09.282 2.465 3.101 57.239.282-.705.282-4.35.282-8.922.564-35.777 1.128-88.051.282-10.767.282-5.723.282-1.71.282 1.834.282 4.951.282 8.23 1.974 78.836.564 10.252.281 1.547.282.123.282.35.282-.404.564-3.08.282.088.282.323.282-.03.282.15.282.49.282.196.282-1.214.846-9.096.564-2.222.564-1.827.282-1.125.282.348.282 1.84.282.561.282-1.266.281-.17.282 1.629.282.831.282-.58.282-.13.564 1.065.282-.065.282-.378.846-2.024.564-1.154.282.175.282.43.282-.898.282-2.267.282-1.202.282 1.996.282 3.626.282 1.843.282.635.282 3.444.282 5.984.282 3.284.281-.595.282.149.564 4.981.282 1.56.564 6.65.282 4.41 2.256 51.602.282 2.998.282-1.149.282-8.676.282-16.39.564-55.448.846-97.982.281-22.519.282-13.579.282-6.757.282-3.91.282-.685.564 7.225.282 1.016.282 2.355.846 22.372.282 9.203 1.41 60.175.564 13.603.282 2.3.282 1.236.846 5.01.563 1.39.282-.955.282-2.38.282.438 1.692 30.767.282 2.593.282.87.564 3.699 1.692 12.46.564 7.482.564 4.468.282 3.383.563 11.2.564 11.988.282 1.264.282-.01.282 2.032.282 3.627.282 1.432.282-2.493.282-4.75.282-7.69.282-15.473 1.41-121.658.564-16.882.282-6.498.282-3.252.282.94.564 3.303.281 4.292 1.128 25.049 1.41 43.67.564 8.382.282 2.854.282.158.282-2.022.282-.54.564 3.196.282-1.136.282-.308.564 5.705.282.444.282-.448.282.823 1.127 5.314.282.781.282.249.282.956.282 2.094.846 9.894 1.128 14.968.846 9.516.282 3.581.846 18.413.846 16.265.563 5.936.282-1.013.282-7.96.282-15.336.564-49.126.564-52.946.564-28.04.564-13.74.282-3.694.282-2.101.282-.041 1.128 8.026.282 3.105.282 6.145 1.128 36.34.563 20.579.564 8.868.564 5.416.564 3.317.564.99.282 1.7.564 4.216.564 1.766.282 1.419 1.692 12.095.282-.013.282-.628.282-1.444.282-4.837.563-19.715.846-31.053.282-6.323.564-5.603.282-1.5.282 1.228.564 11.008.564 11.153.846 26.288.282 3.644.282 1.036.282.565.282-.469.282-3.775.564-11.3.563-2.954.564-5.338.282 1.284.564 5.056.564 2.616.564 2.868.282-.135.282-.569.282.205.282.473.282.023.282.867.564 4.101.564-.1.282.488.282-.028.282-.388.564.318.563-.541.282-.06.282.164.282.673.282-.217.564-4.837.282.36.282.783.282-1.239.282-.455 1.128 11.017.846 4.28 1.128 13.282.282.246.282.692.282 2.161.563 7.768 1.692 35.625.564 2.57.282 1.31.282-3.042.282-11.458.564-48.183.564-60.633.564-31.904.564-18.648.282-3.755.282-.613.282 1.217.282 2.768.563 8.996.846 19.07.846 25.06.846 27.383.564 9.17.846 8.625.282.568.282-.037.282 1.12.282.519.564-3.285.564 2.05.564-4.059.281 1 .282 1.654.282.232.282.552.564 2.95.282.087.282 1.031.282 1.854.282.216.282-.958.282 1.46.564 8.02.282.573.282.127.846 6.749.282 3.533.564 10.994.564 4.008.845 13.1.282.888.282-1.396.282-7.21 1.692-85.361.564-14.35.564-7.53.282-5.164.282-2.831.282 1.316.282 2.262.282.692.282 1.926.564 14.8 1.127 27.084.564 10.575.846 8.695.564 3.791.564 1.491.282.335.282-1.112.564-4.044.282-.46.564.01.282.792.846 4.83.282.273.282-.082.282.796.282 1.145.563-.12.564 4.26.282-1.447.282-4.323.282-2.208.282 1.838.564 4.798.282 2.261.564 11.82.564 9.333.846 12.94.282 1.418.282-.385.282-3.501.282-8.749 1.41-68.717.563-14.79.282-4.066.564-3.298.282-.378.282.854.564 2.656.282.961.282 1.99.564 9.94.846 19.673.846 18.271.282 3.618 1.127 5.996.282-.456.282-1.183.282-.7.282-.182.564.194.282-.256.282.784.564 4.217.282.414.282 1.174.564 5.453.282.298.282-1.634.282-3.532 1.128-21.415.564-16.52.845-11.401.282-1.356.282 3.096.846 15.62.846 17.926.564 7.348.282.956.282-.063.282-.768.564-4.799.564-4.98.846-11.79.564.922.282.012.282 2.089.563 10.877.282 1.857.282-.637.282.045.282.737.282-.674.282-1.892.282-1.035.282.523.282.947.282.348.564-.281.282.117.282-.07.282-.234.282.146.564 1.014.282-.477.564-3.805.282-.665.282 1.291.281.63h0" clip-path="url(#pefc0709637)" style="fill:none;stroke:#1f77b4;stroke-width:1.5;stroke-linecap:square"/><path id="patch_3" d="M71.308 266.112V0" style="fill:none;stroke:gray;stroke-width:.8;stroke-linejoin:miter;stroke-linecap:square"/><path id="patch_4" d="M685.107 266.112V0" style="fill:none;stroke:#000;stroke-width:.8;stroke-linejoin:miter;stroke-linecap:square"/><path id="patch_5" d="M71.308 266.112h613.8" style="fill:none;stroke:gray;stroke-width:.8;stroke-linejoin:miter;stroke-linecap:square"/><path id="patch_6" d="M71.308 0h613.8" style="fill:none;stroke:#000;stroke-width:.8;stroke-linejoin:miter;stroke-linecap:square"/></g></g><defs><clipPath id="pefc0709637"><path d="M71.308 0h613.8v266.112h-613.8z"/></clipPath></defs></svg>