<svg xmlns="http://www.w3.org/2000/svg" xmlns:xlink="http://www.w3.org/1999/xlink" width="913.477" height="377.053" viewBox="0 0 685.107 282.79"><defs><style>*{stroke-linejoin:round;stroke-linecap:butt}</style></defs><g id="figure_1"><path id="patch_1" d="M0 282.79h685.107V0H0v282.79z" style="fill:none"/><g id="axes_1"><path id="patch_2" d="M71.308 266.112h613.8V0h-613.8v266.112z" style="fill:none"/><g id="matplotlib.axis_1"><g id="xtick_1"><g id="line2d_1"><defs><path id="mbddfadb184" d="M0 0v3.5" style="stroke:gray;stroke-width:.8"/></defs><use xlink:href="#mbddfadb184" x="99.207" y="266.112" style="fill:gray;stroke:gray;stroke-width:.8"/></g><g id="text_1" style="fill:gray" transform="matrix(.1 0 0 -.1 96.026 280.71)"><defs><path id="DejaVuSans-30" d="M2034 4250q-487 0-733-480-245-479-245-1442 0-959 245-1439 246-480 733-480 491 0 736 480 246 480 246 1439 0 963-246 1442-245 480-736 480zm0 500q785 0 1199-621 414-620 414-1801 0-1178-414-1799Q2819-91 2034-91q-784 0-1198 620-414 621-414 1799 0 1181 414 1801 414 621 1198 621z" transform="scale(.01563)"/></defs><use xlink:href="#DejaVuSans-30"/></g></g><g id="xtick_2"><use xlink:href="#mbddfadb184" id="line2d_2" x="168.958" y="266.112" style="fill:gray;stroke:gray;stroke-width:.8"/><g id="text_2" style="fill:gray" transform="matrix(.1 0 0 -.1 159.414 280.71)"><defs><path id="DejaVuSans-35" d="M691 4666h2478v-532H1269V2991q137 47 274 70 138 23 276 23 781 0 1237-428 457-428 457-1159 0-753-469-1171Q2575-91 1722-91q-294 0-599 50Q819 9 494 109v635q281-153 581-228t634-75q541 0 856 284 316 284 316 772 0 487-316 771-315 285-856 285-253 0-505-56-251-56-513-175v2344z" transform="scale(.01563)"/></defs><use xlink:href="#DejaVuSans-35"/><use xlink:href="#DejaVuSans-30" x="63.623"/><use xlink:href="#DejaVuSans-30" x="127.246"/></g></g><g id="xtick_3"><use xlink:href="#mbddfadb184" id="line2d_3" x="238.708" y="266.112" style="fill:gray;stroke:gray;stroke-width:.8"/><g id="text_3" style="fill:gray" transform="matrix(.1 0 0 -.1 225.982 280.71)"><defs><path id="DejaVuSans-31" d="M794 531h1031v3560L703 3866v575l1116 225h631V531h1031V0H794v531z" transform="scale(.01563)"/></defs><use xlink:href="#DejaVuSans-31"/><use xlink:href="#DejaVuSans-30" x="63.623"/><use xlink:href="#DejaVuSans-30" x="127.246"/><use xlink:href="#DejaVuSans-30" x="190.869"/></g></g><g id="xtick_4"><use xlink:href="#mbddfadb184" id="line2d_4" x="308.457" y="266.112" style="fill:gray;stroke:gray;stroke-width:.8"/><g id="text_4" style="fill:gray" transform="matrix(.1 0 0 -.1 295.733 280.71)"><use xlink:href="#DejaVuSans-31"/><use xlink:href="#DejaVuSans-35" x="63.623"/><use xlink:href="#DejaVuSans-30" x="127.246"/><use xlink:href="#DejaVuSans-30" x="190.869"/></g></g><g id="xtick_5"><use xlink:href="#mbddfadb184" id="line2d_5" x="378.207" y="266.112" style="fill:gray;stroke:gray;stroke-width:.8"/><g id="text_5" style="fill:gray" transform="matrix(.1 0 0 -.1 365.483 280.71)"><defs><path id="DejaVuSans-32" d="M1228 531h2203V0H469v531q359 372 979 998 621 627 780 809 303 340 423 576 121 236 121 464 0 372-261 606-261 235-680 235-297 0-627-103-329-103-704-313v638q381 153 712 231 332 78 607 78 725 0 1156-363 431-362 431-968 0-288-108-546-107-257-392-607-78-91-497-524-418-433-1181-1211z" transform="scale(.01563)"/></defs><use xlink:href="#DejaVuSans-32"/><use xlink:href="#DejaVuSans-30" x="63.623"/><use xlink:href="#DejaVuSans-30" x="127.246"/><use xlink:href="#DejaVuSans-30" x="190.869"/></g></g><g id="xtick_6"><use xlink:href="#mbddfadb184" id="line2d_6" x="447.957" y="266.112" style="fill:gray;stroke:gray;stroke-width:.8"/><g id="text_6" style="fill:gray" transform="matrix(.1 0 0 -.1 435.233 280.71)"><use xlink:href="#DejaVuSans-32"/><use xlink:href="#DejaVuSans-35" x="63.623"/><use xlink:href="#DejaVuSans-30" x="127.246"/><use xlink:href="#DejaVuSans-30" x="190.869"/></g></g><g id="xtick_7"><use xlink:href="#mbddfadb184" id="line2d_7" x="517.707" y="266.112" style="fill:gray;stroke:gray;stroke-width:.8"/><g id="text_7" style="fill:gray" transform="matrix(.1 0 0 -.1 504.983 280.71)"><defs><path id="DejaVuSans-33" d="M2597 2516q453-97 707-404 255-306 255-756 0-690-475-1069Q2609-91 1734-91q-293 0-604 58T488 141v609q262-153 574-231 313-78 654-78 593 0 904 234t311 681q0 413-289 645-289 233-804 233h-544v519h569q465 0 712 186t247 536q0 359-255 551-254 193-729 193-260 0-557-57-297-56-653-174v562q360 100 674 150t592 50q719 0 1137-327 419-326 419-882 0-388-222-655t-631-370z" transform="scale(.01563)"/></defs><use xlink:href="#DejaVuSans-33"/><use xlink:href="#DejaVuSans-30" x="63.623"/><use xlink:href="#DejaVuSans-30" x="127.246"/><use xlink:href="#DejaVuSans-30" x="190.869"/></g></g><g id="xtick_8"><use xlink:href="#mbddfadb184" id="line2d_8" x="587.457" y="266.112" style="fill:gray;stroke:gray;stroke-width:.8"/><g id="text_8" style="fill:gray" transform="matrix(.1 0 0 -.1 574.732 280.71)"><use xlink:href="#DejaVuSans-33"/><use xlink:href="#DejaVuSans-35" x="63.623"/><use xlink:href="#DejaVuSans-30" x="127.246"/><use xlink:href="#DejaVuSans-30" x="190.869"/></g></g><g id="xtick_9"><use xlink:href="#mbddfadb184" id="line2d_9" x="657.207" y="266.112" style="fill:gray;stroke:gray;stroke-width:.8"/><g id="text_9" style="fill:gray" transform="matrix(.1 0 0 -.1 644.482 280.71)"><defs><path id="DejaVuSans-34" d="M2419 4116 825 1625h1594v2491zm-166 550h794V1625h666v-525h-666V0h-628v1100H313v609l1940 2957z" transform="scale(.01563)"/></defs><use xlink:href="#DejaVuSans-34"/><use xlink:href="#DejaVuSans-30" x="63.623"/><use xlink:href="#DejaVuSans-30" x="127.246"/><use xlink:href="#DejaVuSans-30" x="190.869"/></g></g></g><g id="matplotlib.axis_2"><g id="ytick_1"><g id="line2d_10"><defs><path id="m898f02de73" d="M0 0h-3.5" style="stroke:gray;stroke-width:.8"/></defs><use xlink:href="#m898f02de73" x="71.308" y="226.715" style="fill:gray;stroke:gray;stroke-width:.8"/></g><g id="text_10" style="fill:gray" transform="matrix(.16 0 0 -.16 0 232.794)"><defs><path id="DejaVuSans-2212" d="M678 2272h4006v-531H678v531z" transform="scale(.01563)"/></defs><use xlink:href="#DejaVuSans-2212"/><use xlink:href="#DejaVuSans-32" x="83.789"/><use xlink:href="#DejaVuSans-30" x="147.412"/><use xlink:href="#DejaVuSans-30" x="211.035"/><use xlink:href="#DejaVuSans-30" x="274.658"/><use xlink:href="#DejaVuSans-30" x="338.281"/></g></g><g id="ytick_2"><use xlink:href="#m898f02de73" id="line2d_11" x="71.308" y="183.04" style="fill:gray;stroke:gray;stroke-width:.8"/><g id="text_11" style="fill:gray" transform="matrix(.16 0 0 -.16 0 189.119)"><use xlink:href="#DejaVuSans-2212"/><use xlink:href="#DejaVuSans-31" x="83.789"/><use xlink:href="#DejaVuSans-30" x="147.412"/><use xlink:href="#DejaVuSans-30" x="211.035"/><use xlink:href="#DejaVuSans-30" x="274.658"/><use xlink:href="#DejaVuSans-30" x="338.281"/></g></g><g id="ytick_3"><use xlink:href="#m898f02de73" id="line2d_12" x="71.308" y="139.366" style="fill:gray;stroke:gray;stroke-width:.8"/><use xlink:href="#DejaVuSans-30" id="text_12" style="fill:gray" transform="matrix(.16 0 0 -.16 54.127 145.444)"/></g><g id="ytick_4"><use xlink:href="#m898f02de73" id="line2d_13" x="71.308" y="95.691" style="fill:gray;stroke:gray;stroke-width:.8"/><g id="text_13" style="fill:gray" transform="matrix(.16 0 0 -.16 13.408 101.77)"><use xlink:href="#DejaVuSans-31"/><use xlink:href="#DejaVuSans-30" x="63.623"/><use xlink:href="#DejaVuSans-30" x="127.246"/><use xlink:href="#DejaVuSans-30" x="190.869"/><use xlink:href="#DejaVuSans-30" x="254.492"/></g></g><g id="ytick_5"><use xlink:href="#m898f02de73" id="line2d_14" x="71.308" y="52.016" style="fill:gray;stroke:gray;stroke-width:.8"/><g id="text_14" style="fill:gray" transform="matrix(.16 0 0 -.16 13.408 58.095)"><use xlink:href="#DejaVuSans-32"/><use xlink:href="#DejaVuSans-30" x="63.623"/><use xlink:href="#DejaVuSans-30" x="127.246"/><use xlink:href="#DejaVuSans-30" x="190.869"/><use xlink:href="#DejaVuSans-30" x="254.492"/></g></g><g id="ytick_6"><use xlink:href="#m898f02de73" id="line2d_15" x="71.308" y="8.342" style="fill:gray;stroke:gray;stroke-width:.8"/><g id="text_15" style="fill:gray" transform="matrix(.16 0 0 -.16 13.408 14.42)"><use xlink:href="#DejaVuSans-33"/><use xlink:href="#DejaVuSans-30" x="63.623"/><use xlink:href="#DejaVuSans-30" x="127.246"/><use xlink:href="#DejaVuSans-30" x="190.869"/><use xlink:href="#DejaVuSans-30" x="254.492"/></g></g></g><path id="line2d_16" d="m99.207 139.384.846-.024 3.384.041.282-.074.282.081.282-.088.282.095.282-.103.282.111.282-.119.282.128.282-.137.282.146.281-.156.282.167.282-.179.282.191.282-.204.282.219.282-.235.282.253.282-.273.282.295.282-.32.282.348.282-.38.282.418.282-.464.282.52.282-.587.282.671.282-.782.282.933.282-1.15.282 1.49.282-2.1.282 3.532.282-11.635.281-18.72.282 5.588.282.032.282 6.327.564 6.534.282-.253.564 8.505.282 5.674.282 1.821.282 1.03.282.218.282 1.61.282-.543.564-4.427.564.841.282-.025.282.108.564 5.25.282-.268.282-1.92.282-.246.563-1.013.282-.844.282.154.282-.323.564.223.564 2.272.282 1.316.564-.73.282 1.736.282 3.28.282 1 .282-.167.282.702.564 3.46.282 1.21.282-.323.564-5.134.282-.31.282-1.598 1.127-23.044 1.128-15.722.564-3.868.282-.768.564-3.32.282.143.564 6.217 1.41 21.683.564 4.345.282 1.032.845 6.678.282-1.176.282.635.564 5.673.282-.152.282-.775.282-.219.282-.013.282-.92.282-1.544.846-6.963.282-.551.282-.28.282.09.282.73.564 3.577.282.273.564-4.53.282-.194.563 3.25.282 1.394.846 9.608.282.262.282.507.282 1.47.282.677.564-.126.282.112.282-1.341.282-3.17.564-10.43.846-19.407.282-2.12.282-3.715.564-11.607.564-3.799.281-3.323.282-1.036.564 8.883.564 9.545.564 9.849.564 3.695.282 1.337.282-.24.282-.087.282 2.15.564 7.146.564 3.088.564 3.031.282.937.282.511.846 2.833.281.543.282.916.282.375.564-.521.282-.162.282-1.97.282-3.023.282-1.644.282.044.282-.305.282.215.846 6.256.282.272.846 5.126.282.93.846 6.287.282.242.282-1.544.282-3.731.563-15.016.564-16.962 1.41-24.226.564-3.506.282-.497.282 2.37.564 8.17.564 14.176.564 12.63.564 7.45.282 1.776.282.12.282.475.845 5.099.282-.552.564-3.344.282-.583.282-.961.282-1.563.282-.424.282.523.282.064.282-.202.282 1.143.564 3.109.564 2.464.282-1.276.282-2.88.282-1.047.282 1.353.282.438.282-.632.282 1.485.564 8.488.281 1.86.282.638.282 1 .564 3.932.282 1.8.282.755.282.161.564.93.282-.714.282-2.455.282-4.303.564-13.985.846-20.37 1.41-28.395.282-3.293.282-1.497.281.26.282 2.078.282 4.566 1.41 37.24.282 4.064.564 2.543.846 11.004.282.122.564 1.271.282-1.94.564-6.235.846-3.41.282.115.282.586.281-.008.564-1.233.282-.12.282 1.075.564 3.314.564.487.564 1.767.282.144.282 1.162.564 5.384.282.899.282.34.846 3.609.564 1.965.282-.2.564-1.083.282-1.914.563-11.83 1.974-46.46.846-11.04.282-.853.282 1.62.282 3.332.282 5.911.846 26.897.564 8.088.282 1.878.564.917.563 1.939.282 1.763.564 5.484.282.454.282-.072.564 1.842.282-.212.282-.65.282-.337.282.155.282 1.073.564 3.994.846 1.726.282-.87.564-4.102.282.41.282.11.282-.944.282.244.845 8.998.564 2.125.282 2.355.846 9.612.282 1.502.282-.612.282-4.169 1.41-37.454.846-25.592 1.128-27.745.282-2.62.282 1.574.281 6.822 1.128 42.45.564 9.754 1.128 10.112.282.933.564.168.282.436.282.117.282-.476.846-2.583.282.032.564 2.511.282-.528.282-1.085.281 1.512.564 9.304.282 2.1.282 1.12.282 1.87.282.798.282-2.15.282-3.274.282-.886 2.256 14.9.564 2.27.282-.364.282-2.567.564-11.855.845-24.757 1.128-38.54.564-19.504.282-6.268.282-3.733.282-1.606.282 1.193.282 5.8.846 33.42.564 23.656.282 7.302 1.41 11.147.282.403.282 1.797.845 7.132.282.569.282-.317.282.63.282 1.785.282.718.846-2.948.564-1.862.282.495 1.128 10.898 1.128 8.59.846 2.693.281.499.282-2.838 1.41-39.855.564-16.822.564-13.36.564-17.557.564-11.68.282-3.425.282.613.282 4.62.282 7.852.846 34.139.564 6.756.564 6.253.281 1.35.282 3.444.564 10.843.846 6.245.564 1.96.282 1.675.282.42.564-3.27.282-.52.282.102.282 1.185.564 4.569.846 2.077.282.812.564.674.282.446.281.842.282 2.11.564 5.6.282 1.1.282-.688.282-3.35.564-13.194.846-25.611.846-29.36.846-33.325.282-7.531.282-4.043.282.514.282 5.247.564 21.37.845 42.825.282 8.264.564 9.007.564 11.742.564 7.662.282 2.742.282 1.205.282.264.282-.381.282-1.901.564-5.316.282-.078.282.14.564-2.575.282-.174.564 1.006.282 1.641.564 9.453.563 8.254.846 10.068.564 5.496.282.363.282-2.41.282-4.105.282-6.538.564-24.112 1.128-57.75.846-41.935.282-9.828.282-5.807.282-2.136.282 1.257.282 5.528.281 11.028.564 36.383.564 36.135.564 20.284.282 5.047.282 2.003.282.654.564 2.304.282-1.39.282-2.968.282-1.724.282-.605.564-2.88.282.115.564 1.992.846 6.404.282.748.282 3.288.563 7.956.282 1.777.846 7.616.564 2.993.282.227.282-.56.282 1.09.282 1.832.282-.733.282-4.04.282-6.066.564-19.68 2.537-102.215.282-6.23.564-5.734.282 2.092.282 9.369 1.692 81.68 1.692 25.685.282 1.827.282.667.282 1.102.282 1.976.282.413.282-3.193.282-4.504.281-1.549.282 1.217.282.452.282-.187.282 3.069.564 12.69.846 12.022.564 3.634.564 4.267.564 4.77.282.694.282-1.566.282-2.911.282-4.99.564-21.69.564-27.747 1.41-81.33.563-20.134.282-5.526.282-1.458.282 3.31.564 15.36.564 24.954 1.128 60.556.282 9.04.282 1.084.282-1.501.282 1.846.564 6.622.282 2.231.564 9.547.281 1.33.282-.751.282.498.282 1.446.846 2.536.282.126.282-.377.564 1.6.282-.844.282-.365.282 3.204.282 4.886.282 2.84.282 1.654.282 4.014.846 17.84.564 6.41.282.64.282-2.51.563-14.892 1.974-60.325 1.41-63.35.282-6.85.282-3.744.282.46.282 7.358.846 38.184.564 17.363.282 2.558.282-4.748 1.691-56.82.564-10.195.282-1.996.282.976.282 2.543.282 3.926.282 7.484.564 29.358 1.41 84.168 1.41 47.49.845 12.602.282.808.282-2.656.282-6.275.564-22.426.846-42.63 1.692-104.162.282-9.123.282-5.385.282-1.034.282 2.913.282 6.293.564 23.407 1.127 55.218.564 17.343.282 2.115.282.135.282.742.282 1.12.564 1.244.564 2.32.282.269.282.549.282 1.121.282.612.282-.456.282-.934.282-.364.282.873.282 1.512.282.595.282-.323.282.783.564 6.992 1.41 19.104.563 9.117.282.429.282-3.873.564-18.343.564-24.578 2.256-120.6.282-4.901.282-1.124.282 2.942.282 7.028.845 32.81 1.41 68.064.282 8.926.282 5.302.564 7.01.564 8.83.282 1.114.282.357.282.55.282.186.282-.715.846-3.421.282-.163.282 1.14.564 7.336.563 5.668.282 2.405 1.41 16.996.564 4.784.282 1.857.282 1.031.282-2.14.282-7.343.564-25.13.846-49.842 1.128-69.314.564-17.948.281-3.074.282 1.5.564 8.647.282 6.346.846 31.574 1.41 55.72.564 14.795 1.128 11.003.282 1.09.282.333.282 1.119.564 3.488.282-.073.281.347.564 3.19.282 1.076.846 5.624.282 1.21 1.128 12.828.564 6.88.846 15.08.282.606.282-2.57.282-5.325.282-11.404 1.973-129.398.564-15.273.564-12.08.282-3.713.282-1.76.282 1.122.282 4.28.564 13.695.564 21.597 1.692 69.68.564 7.091.282 3.198.845 12.03.564 5.996.282 1.171.282-1.108.564-2.949.282-.86.282.488 1.128 9.401 1.41 16.905.846 8.212.564 7.958.564 9.611.281 1.057.282-5.101.564-22.962.564-35.572 1.128-76.124.564-22.266.846-23.708.846-10.762.282 3.67.564 15.932.564 24.188 1.127 50.297.564 18.05 1.128 19.925 1.41 16.436 1.128 8.112.846 5.964.564 4.74.282.703.282-.428.282.558.845 5.815.282 2.688.282.902.282-3.725.564-16.526.564-31.614.564-31.707.564-26.99.564-29.92.564-15.078.282-3.576.282-1.888.282-.38.282 2.062.282 5.419.846 23.64.563 25.239.564 24.235.846 23.483.846 15.268.564 4.697.564 8.23 1.128 7.89.282-.459.846-4.4.282-1.495.282.368.282 3.226 1.41 21.347.563 7.988.282.733.282-3.722.282-6.765.282-10.603 1.128-70.69.564-33.788.282-9.372.564-9.327.282-3.234.282-.959.282.135.282.626.282 1.89.282 3.243.281 4.657 2.256 55.411.564 16.363.846 16.958.282.483.564-5.101.564-.214.282.237.564 2.93.564-2.526.282 1.345.845 10.364 1.974 32.672 1.128 17.795.282-4.265.282-10.169.846-48.507.846-49.565 1.691-66.997.282-3.746.282-1.477.282 4.758.846 28.022 1.41 40.72 1.128 34.27.282 7.719 1.41 17.275.282 1.545.563 4.79.282-.081.282-.36.282.885.564 3.561.564 6.012.564 8.935.564 8.915.564 6.434.846 15.098.282 2.535.282-1.56.282-7.603.564-27.946.564-36.975.845-56.89.846-40.88.282-9.19.282-5.332.282-1.958.282 1.218.282 4.025.846 20.047.564 17.957.846 28.091 1.41 43.237.282 5.395.282 3.183.563.796.564 3.253.564 1.57.282-.294.282-1.007.282-.316.282.178.282-.626.282-.326.564 3.215.282 1.668.282 4.212 1.128 28.11.564 11.205.846 8.58.282-1.13.282-6.569.563-26.733.564-40.713.846-60.398.564-26.234.282-8.792.282-5.067.282-2.38.282-.475.282 1.48.282 3.85.846 20.526.564 18.944.846 31.958.564 16.1.281 4.567.564 6.511 1.128 22.38.846 9.97.282.344.282-.263.282 1.661.846 11.705.282 1.536.282 2.224.282 4.863.564 13.023.564 6.396.282 2.191.282-.036.281-4.497.282-9.353.564-31.482 1.128-78.274.564-26.344.564-14.437.282-3.61.282-1.185.282.404.282 1.6.282 3.8 1.128 26.126.282 3.584 1.128 23.485.563 16.606.564 14.454.564 7.694.846 15.265.564 11.408.846 9.97.564 9.239 1.692 20.466.564 6.855.282 1.187.281-3.964.282-10.268.564-35.432 1.128-82.002.564-22.553.564-10.407.282-2.56.282-.722.282.165.282 1.3.282 3.144 1.692 29.21 2.537 55.881.282 4.432.846 17.821.282 3.99.846 14.918.282 5.078.564 12.919 1.128 12.647.282 1.33.282 2.95.282 4.183.282 2.287.281-1.49.282-5.463.282-9.353.282-13.965.564-45.835.564-48.751.564-27.65.564-20.109.282-3.8.564-3.42.282 1.028 1.128 20.22.564 12.622 1.41 35.385 1.973 28.064.564 6.292.564 9.604.282 2.917.564 3.757 1.41 11.916.282 3.9.564 11.159.845 8.662.282 4.334.282 2.124.282.626.282 1.01.282.04.282-4.736.282-11.312.564-38.36.846-61.874.564-26.622.282-6.61.282-3.1.282-1.395.282.092.282 2.294.282 4.507 1.128 26.234.281 2.712.564 7.995.564 2.716.282 3.854 1.692 35.493.564 6.519.282 4.209.282 5.88.846 23.944.564 13.485.282 5.971.282.393.282-.62.282 4.864.563 14.26.282 4.536 1.128 25.44.282 1.425.282-5.989.282-18.11.846-97.008.564-58.554.564-35.008.564-16.927.564-8.867.282-1.457.282 1.796.282 5.986 1.127 37.67 1.128 39.505 1.41 41.331 1.128 27.492.282 3.23.282.914.846 3.732.282.785.282 3.334 1.973 37.159.564 4.127.564 9.276.282.94.282-4.353.282-8.676.282-14.266 1.41-101.317.564-17.765.846-16.327.282-2.456.282-.663.282.506.281 1.681.282 3.379 1.41 26.398.564 16.657.846 13.84.282 3.481.282 2.03.282 3.107.564 8.853.846 9.386 1.692 20.477 1.41 27.427.563 14.421.564 6.392.282 1.129.282-4.016.282-11.501.564-39.141.846-62.192.564-19.715.564-11.535.282-3.315.282-1.36.282-.068.282 1.548.281 4.393.846 17.941.846 11.287.846 10.864 1.692 26.617.846 10.508.564 11.104.846 10.103.282 1.039.282-.976.281-.208.282 1.996.846 10.385.846 17.732.282 3.013.282.09.282-4.143.282-10.135 1.41-76.143.564-13.224.564-9.804.846-10.42.282-.928.281.978.564 5.722.564 10.401.564 11.054 1.128 16.992.282 1.34.564-2.154.282 1.362.846 11.183 1.128 18.88.564 2.967.282 3.258.563 9.84.846 7.084.564 10.312.564 11.259.564 6.993.282-1.392.282-9.171 1.128-64.677.564-18.968 1.128-19.847.564-7.77.282-3.19.281-1.181.282 1.319.564 5.677.846 13.47.282 2.956.846 14.217.282 2.289 1.128 20.427 1.692 15.472.846 4.89.281-1.271.282-2.907.282-.952.282 2.5.846 11.582 1.128 26.513.282 2.525.282.41.282-4.253.282-12.03 1.41-87.806.564-15.316.282-5.365.282-2.893.282-1.56.281-.46.282 1.402.564 8.6 1.692 34.038.282 5.482.282 2.151.282.794.846 4.65.564 1.656.564 2.254.282 3.36.564 8.469.564 4.188 1.691 20.672.564 4.612 1.128 12.833.282 1.506.564 5.243.282-1.258.282-7.388.564-24.116.564-26.82.282-7.513.564-7.716.564-11.355.563-6.41.282-4.722.282-2.056.282 1.232.846 8.892.846 5.692 3.384 29.72.846 12.719h0" clip-path="url(#ped89b113c7)" style="fill:none;stroke:#1f77b4;stroke-width:1.5;stroke-linecap:square"/><path id="patch_3" d="M71.308 266.112V0" style="fill:none;stroke:gray;stroke-width:.8;stroke-linejoin:miter;stroke-linecap:square"/><path id="patch_4" d="M685.107 266.112V0" style="fill:none;stroke:#000;stroke-width:.8;stroke-linejoin:miter;stroke-linecap:square"/><path id="patch_5" d="M71.308 266.112h613.8" style="fill:none;stroke:gray;stroke-width:.8;stroke-linejoin:miter;stroke-linecap:square"/><path id="patch_6" d="M71.308 0h613.8" style="fill:none;stroke:#000;stroke-width:.8;stroke-linejoin:miter;stroke-linecap:square"/></g></g><defs><clipPath id="ped89b113c7"><path d="M71.308 0h613.8v266.112h-613.8z"/></clipPath></defs></svg>