<svg xmlns="http://www.w3.org/2000/svg" xmlns:xlink="http://www.w3.org/1999/xlink" width="927.05" height="377.053" viewBox="0 0 695.288 282.79"><defs><style>*{stroke-linejoin:round;stroke-linecap:butt}</style></defs><g id="figure_1"><path id="patch_1" d="M0 282.79h695.288V0H0v282.79z" style="fill:none"/><g id="axes_1"><path id="patch_2" d="M81.487 266.112h613.8V0h-613.8v266.112z" style="fill:none"/><g id="matplotlib.axis_1"><g id="xtick_1"><g id="line2d_1"><defs><path id="m01d02f65e8" d="M0 0v3.5" style="stroke:gray;stroke-width:.8"/></defs><use xlink:href="#m01d02f65e8" x="109.388" y="266.112" style="fill:gray;stroke:gray;stroke-width:.8"/></g><g id="text_1" style="fill:gray" transform="matrix(.1 0 0 -.1 106.206 280.71)"><defs><path id="DejaVuSans-30" d="M2034 4250q-487 0-733-480-245-479-245-1442 0-959 245-1439 246-480 733-480 491 0 736 480 246 480 246 1439 0 963-246 1442-245 480-736 480zm0 500q785 0 1199-621 414-620 414-1801 0-1178-414-1799Q2819-91 2034-91q-784 0-1198 620-414 621-414 1799 0 1181 414 1801 414 621 1198 621z" transform="scale(.01563)"/></defs><use xlink:href="#DejaVuSans-30"/></g></g><g id="xtick_2"><use xlink:href="#m01d02f65e8" id="line2d_2" x="179.137" y="266.112" style="fill:gray;stroke:gray;stroke-width:.8"/><g id="text_2" style="fill:gray" transform="matrix(.1 0 0 -.1 169.594 280.71)"><defs><path id="DejaVuSans-35" d="M691 4666h2478v-532H1269V2991q137 47 274 70 138 23 276 23 781 0 1237-428 457-428 457-1159 0-753-469-1171Q2575-91 1722-91q-294 0-599 50Q819 9 494 109v635q281-153 581-228t634-75q541 0 856 284 316 284 316 772 0 487-316 771-315 285-856 285-253 0-505-56-251-56-513-175v2344z" transform="scale(.01563)"/></defs><use xlink:href="#DejaVuSans-35"/><use xlink:href="#DejaVuSans-30" x="63.623"/><use xlink:href="#DejaVuSans-30" x="127.246"/></g></g><g id="xtick_3"><use xlink:href="#m01d02f65e8" id="line2d_3" x="248.887" y="266.112" style="fill:gray;stroke:gray;stroke-width:.8"/><g id="text_3" style="fill:gray" transform="matrix(.1 0 0 -.1 236.162 280.71)"><defs><path id="DejaVuSans-31" d="M794 531h1031v3560L703 3866v575l1116 225h631V531h1031V0H794v531z" transform="scale(.01563)"/></defs><use xlink:href="#DejaVuSans-31"/><use xlink:href="#DejaVuSans-30" x="63.623"/><use xlink:href="#DejaVuSans-30" x="127.246"/><use xlink:href="#DejaVuSans-30" x="190.869"/></g></g><g id="xtick_4"><use xlink:href="#m01d02f65e8" id="line2d_4" x="318.637" y="266.112" style="fill:gray;stroke:gray;stroke-width:.8"/><g id="text_4" style="fill:gray" transform="matrix(.1 0 0 -.1 305.913 280.71)"><use xlink:href="#DejaVuSans-31"/><use xlink:href="#DejaVuSans-35" x="63.623"/><use xlink:href="#DejaVuSans-30" x="127.246"/><use xlink:href="#DejaVuSans-30" x="190.869"/></g></g><g id="xtick_5"><use xlink:href="#m01d02f65e8" id="line2d_5" x="388.387" y="266.112" style="fill:gray;stroke:gray;stroke-width:.8"/><g id="text_5" style="fill:gray" transform="matrix(.1 0 0 -.1 375.663 280.71)"><defs><path id="DejaVuSans-32" d="M1228 531h2203V0H469v531q359 372 979 998 621 627 780 809 303 340 423 576 121 236 121 464 0 372-261 606-261 235-680 235-297 0-627-103-329-103-704-313v638q381 153 712 231 332 78 607 78 725 0 1156-363 431-362 431-968 0-288-108-546-107-257-392-607-78-91-497-524-418-433-1181-1211z" transform="scale(.01563)"/></defs><use xlink:href="#DejaVuSans-32"/><use xlink:href="#DejaVuSans-30" x="63.623"/><use xlink:href="#DejaVuSans-30" x="127.246"/><use xlink:href="#DejaVuSans-30" x="190.869"/></g></g><g id="xtick_6"><use xlink:href="#m01d02f65e8" id="line2d_6" x="458.137" y="266.112" style="fill:gray;stroke:gray;stroke-width:.8"/><g id="text_6" style="fill:gray" transform="matrix(.1 0 0 -.1 445.413 280.71)"><use xlink:href="#DejaVuSans-32"/><use xlink:href="#DejaVuSans-35" x="63.623"/><use xlink:href="#DejaVuSans-30" x="127.246"/><use xlink:href="#DejaVuSans-30" x="190.869"/></g></g><g id="xtick_7"><use xlink:href="#m01d02f65e8" id="line2d_7" x="527.888" y="266.112" style="fill:gray;stroke:gray;stroke-width:.8"/><g id="text_7" style="fill:gray" transform="matrix(.1 0 0 -.1 515.163 280.71)"><defs><path id="DejaVuSans-33" d="M2597 2516q453-97 707-404 255-306 255-756 0-690-475-1069Q2609-91 1734-91q-293 0-604 58T488 141v609q262-153 574-231 313-78 654-78 593 0 904 234t311 681q0 413-289 645-289 233-804 233h-544v519h569q465 0 712 186t247 536q0 359-255 551-254 193-729 193-260 0-557-57-297-56-653-174v562q360 100 674 150t592 50q719 0 1137-327 419-326 419-882 0-388-222-655t-631-370z" transform="scale(.01563)"/></defs><use xlink:href="#DejaVuSans-33"/><use xlink:href="#DejaVuSans-30" x="63.623"/><use xlink:href="#DejaVuSans-30" x="127.246"/><use xlink:href="#DejaVuSans-30" x="190.869"/></g></g><g id="xtick_8"><use xlink:href="#m01d02f65e8" id="line2d_8" x="597.638" y="266.112" style="fill:gray;stroke:gray;stroke-width:.8"/><g id="text_8" style="fill:gray" transform="matrix(.1 0 0 -.1 584.913 280.71)"><use xlink:href="#DejaVuSans-33"/><use xlink:href="#DejaVuSans-35" x="63.623"/><use xlink:href="#DejaVuSans-30" x="127.246"/><use xlink:href="#DejaVuSans-30" x="190.869"/></g></g><g id="xtick_9"><use xlink:href="#m01d02f65e8" id="line2d_9" x="667.388" y="266.112" style="fill:gray;stroke:gray;stroke-width:.8"/><g id="text_9" style="fill:gray" transform="matrix(.1 0 0 -.1 654.663 280.71)"><defs><path id="DejaVuSans-34" d="M2419 4116 825 1625h1594v2491zm-166 550h794V1625h666v-525h-666V0h-628v1100H313v609l1940 2957z" transform="scale(.01563)"/></defs><use xlink:href="#DejaVuSans-34"/><use xlink:href="#DejaVuSans-30" x="63.623"/><use xlink:href="#DejaVuSans-30" x="127.246"/><use xlink:href="#DejaVuSans-30" x="190.869"/></g></g></g><g id="matplotlib.axis_2"><g id="ytick_1"><g id="line2d_10"><defs><path id="me904a58857" d="M0 0h-3.5" style="stroke:gray;stroke-width:.8"/></defs><use xlink:href="#me904a58857" x="81.487" y="251.1" style="fill:gray;stroke:gray;stroke-width:.8"/></g><g id="text_10" style="fill:gray" transform="matrix(.16 0 0 -.16 0 257.178)"><defs><path id="DejaVuSans-2212" d="M678 2272h4006v-531H678v531z" transform="scale(.01563)"/></defs><use xlink:href="#DejaVuSans-2212"/><use xlink:href="#DejaVuSans-31" x="83.789"/><use xlink:href="#DejaVuSans-30" x="147.412"/><use xlink:href="#DejaVuSans-30" x="211.035"/><use xlink:href="#DejaVuSans-30" x="274.658"/><use xlink:href="#DejaVuSans-30" x="338.281"/><use xlink:href="#DejaVuSans-30" x="401.904"/></g></g><g id="ytick_2"><use xlink:href="#me904a58857" id="line2d_11" x="81.487" y="203.748" style="fill:gray;stroke:gray;stroke-width:.8"/><g id="text_11" style="fill:gray" transform="matrix(.16 0 0 -.16 10.18 209.826)"><use xlink:href="#DejaVuSans-2212"/><use xlink:href="#DejaVuSans-35" x="83.789"/><use xlink:href="#DejaVuSans-30" x="147.412"/><use xlink:href="#DejaVuSans-30" x="211.035"/><use xlink:href="#DejaVuSans-30" x="274.658"/><use xlink:href="#DejaVuSans-30" x="338.281"/></g></g><g id="ytick_3"><use xlink:href="#me904a58857" id="line2d_12" x="81.487" y="156.396" style="fill:gray;stroke:gray;stroke-width:.8"/><use xlink:href="#DejaVuSans-30" id="text_12" style="fill:gray" transform="matrix(.16 0 0 -.16 64.308 162.474)"/></g><g id="ytick_4"><use xlink:href="#me904a58857" id="line2d_13" x="81.487" y="109.044" style="fill:gray;stroke:gray;stroke-width:.8"/><g id="text_13" style="fill:gray" transform="matrix(.16 0 0 -.16 23.587 115.122)"><use xlink:href="#DejaVuSans-35"/><use xlink:href="#DejaVuSans-30" x="63.623"/><use xlink:href="#DejaVuSans-30" x="127.246"/><use xlink:href="#DejaVuSans-30" x="190.869"/><use xlink:href="#DejaVuSans-30" x="254.492"/></g></g><g id="ytick_5"><use xlink:href="#me904a58857" id="line2d_14" x="81.487" y="61.691" style="fill:gray;stroke:gray;stroke-width:.8"/><g id="text_14" style="fill:gray" transform="matrix(.16 0 0 -.16 13.408 67.77)"><use xlink:href="#DejaVuSans-31"/><use xlink:href="#DejaVuSans-30" x="63.623"/><use xlink:href="#DejaVuSans-30" x="127.246"/><use xlink:href="#DejaVuSans-30" x="190.869"/><use xlink:href="#DejaVuSans-30" x="254.492"/><use xlink:href="#DejaVuSans-30" x="318.115"/></g></g><g id="ytick_6"><use xlink:href="#me904a58857" id="line2d_15" x="81.487" y="14.339" style="fill:gray;stroke:gray;stroke-width:.8"/><g id="text_15" style="fill:gray" transform="matrix(.16 0 0 -.16 13.408 20.418)"><use xlink:href="#DejaVuSans-31"/><use xlink:href="#DejaVuSans-35" x="63.623"/><use xlink:href="#DejaVuSans-30" x="127.246"/><use xlink:href="#DejaVuSans-30" x="190.869"/><use xlink:href="#DejaVuSans-30" x="254.492"/><use xlink:href="#DejaVuSans-30" x="318.115"/></g></g></g><path id="line2d_16" d="m109.388 156.39 3.101.01 3.102-.01 2.537.015 1.41-.025.846.043.282-.063.282.087.282-.145.564 1.7.564.197.282-.11.282-.237.845-1.969.282-.495.282-.095.282.07.282-.422.282-.173.564 1.02.282-.108.282.31.282.75.282.268.564-.768.282.089.564.924.846.408.282-.052.282.182.282.483.282.06.282-.383.282.117.281.52.564.4.282-.034.564-.991.564.245.564-.526.282-.184.282-.46.282-.121.282.372.282.019 1.128-2.2 1.128.605.845-.507.282.025.282-.335.282-.154.564.836.564.366.846 2.208.564.215.282-.044.564-1.511.282-.112.282.338h.282l.846-1.12.564.742.282-.001.281.464.564 2.16.564-.021.282.069.282-.365.282-.172.282.166.282-.312.564-1.257.846-.694.564-.7.282-.668.846-2.977.282-.035.564.196.282.329.845 2.508.282.353.282.635.282.14.564-1.472.282.167.846.98.282.703.282.324.564-.536.564 1.072.282-.304.282-.515.564-.09.282.188.564 2.032.282.351.845-.012.282-.174.282.001.282-.253.846-1.553.564-2.112 1.128-1.884.282-.245 1.128.726.282.444.282.152.282-.313.282-.002.563 1.101.282.134.282.419.282.705.282.248.282-.249.282.044.564 1.438.282.2.564-.305.282-.141.564-1.2.282.305.282.806.282.2.282-.264.282.217.282.648.282.37.282-.045.564-.549.282-.292.845-.335.564-.703.564-.873.282-.132.282.032.282-.269.564-.832.564-.504.282.09.564.988.282.056.564.484.564-1.138.282.036.564.482.281.79.564 1.964.282.026.564-.297.564-.616.282.186.282.451.282.24.846-.128.282.3.282.068.564-.62.282.03.282-.121.282-.318.564-.154.846-.34.845-1.144.282-.012.282-.442.564-1.62.282-.1 1.128 1.473.564.262.564-.227.564.897.564 1.045.282.612.282.016.282-.346.282-.005 1.127 1.188 1.41-.564 1.128.367.282-.518.282-.798.282-.071.282.051.564-1.132.564 1.13.846-1.187.564-.485.845-.865.846-.054.282.173 1.128 1.51.282.034.564-.724 1.128 1.671.282.53.282-.175.282-.408.282.27.282.538.846.544.845-.436.564.856.282.14.564-.347.282-.361.564-1.672.846-.707.282.065.282.5.282-.053.564-1.244.282-.387.564-1.599.282.082.564.7.281.122.282-.005.282.142.564 1.342.282-.127.282.142.564 2.004.846 1.26.282-.085.564.194.564-.733.282-.025.282-.218.282-.05 1.128 2.573.282.11.281-.61.282-.884.564-.75.282-.353.282.052.282.372.282-.194.564-1.244.282-.213.564-.905.846-1.941.846-.747.282.184 1.128 1.673.282.222.563.856.564.306.564.706.846-.094.564-.273.564-.084.564.798 1.974.794.564.393.282-.278.282-.436.281.063.282-.123.564-2.127.282-.155.282.023.564-.628.282.072.282-.18.564-.898.564-.126.564.073.282.209.282.42.564 1.266.564.537.846.93.282-.04.563-.322.282.079.564.585.282.038.564-.77.846.1.282.308.282.752.282.384.282-.07.282.185.282.36.564.033.282.001.564-.65.282-.442.845-2.566.282-.03.564-.324.564.609.564-1.015.282-.083.564.416.564-.158.282.18.282.507.282.277.564-.452.564.313.282-.102.282.094.564 1.004.563-.077.846 1.128.846.51.564-.346.282.174.564.68.846.262.282.101.282-.174.564-.662 1.128-1.903.282-.233.564-.163.563-.877.564-.33.282.01.846 1.166.846.44.564.797.282-.006 1.128-.805.282.116.282.464.282.22.564-.001.282-.191.282-.41.281.035.564.996 1.41.191.282.264.846.34.282-.156.282-.482.282-.2.282.082.282-.11.282-.397.564-1.58.282-.759.282-.215.846.55.281-.166.282.092.282.597.282.263.282-.465.282-.218.564.858.846-.413.282.08 1.128 1.423.282.902.282.372.282-.276.282.097.282.454.282-.283.282-.724.282.104.282.567.282-.146.281-.313.282.652.282 1.047.282.349.564-.2.282-.438.564-1.798.564-.76.282-.045.282.276.282-.111 1.128-2.966.282-.564.282-.031.564.638.846 1.553.563-.658.564-.14.282.032 1.41 1.79.282-.116.282.118.846 1.667.846.195.282.175.564.047.564.86.564.012.282-.195.563-1.277.846-.848.282.388.282.138.282-.663.846-2.77.282-.484.282.09.564.287.282.106.282.242.564.946.564.904 1.128.496.845-.204 1.128.906.282.02.564-.323 1.128.272.564.201.282.007.282.256.564.963.282-.092.564-1.123.845-.386.846-.846 1.128-1.442.282-.083.564-.707.282.06.564.667 1.128 2.177 1.128.681.564-.191.845-.515.282.08.282.234.282.085.564-.81.282.03.564.879.282.024.282.148.564.457.282.049.564-.403.282.346.282.54.282-.232.282-.716.282-.246.282.072.564-.391 1.127-1.265.564-2.385.282-.486.564-.207.282.298.564.99.564.653.564-.195.282.714.564 2.074.564.933.282-.333.282-.845.282-.26.282.443.282-.018.281-.51.282.201.282.825.282.332.282-.063.846.508.282.144.282-.01.282-.316.282.022.282.37.282-.321.564-1.855.282-.331.564-1.167.564-.26.564-.228.564-.912.282.274.281.779.282.167.282-.017.564 1.576.282-.19.282-.53.282.188.282.66.282.298.282-.08.282.156.564.727 1.128.622.282-.101.846-.938.282.05.564-1.309.281.353.282.576.564-.304.564 1.636.564-.318.282.513.282-.198.564-2.374.564-.485.282-.138.564 1.17.282-.065.564-1.066.282-.331.282-.104.282.212.282.443 1.127 2.933.564 2.915 1.41 8.198.564 5.885.564 7.609 1.128 21.793 2.256 49.339.281-3.79 1.128-65.461 1.128-69.771 1.128-44.556.846-27.614.564-12.249 1.41-14.713.282-2.595.282-1.171.281 1.102.282 6.42.846 44.666.564 29.78.564 16.152.846 54.694.846 18.283.846 16.399.282 5.94 1.41 44.87.282-2.298.563-21.948 1.128-23.202.564-5.813.282-1.822 1.41-15.968 1.128-9.494.846-6.441.846-4.883.564-1.767.281-.292.282.417.564 1.991.564.63.282.25.282-.277.282-.597.282-.29.282.058.282.358.564 1.241.564.335.282.06.282-.277.282-1.012.564-3.463.282-.761.282-.273.564-1.042.281-.091 1.128.467.564.89.282-.24.282-.644.282-.06 2.256 4.597.564.271.282.373.282-.04.282-.477.282-.021.282.521.282.256.563-.103.282.002.282-.256.846-1.268.564.427.846-1.523.846 1.093.282-.185.846-1.518.282-.242.564-.238.282-.136.564.436.563-.625.282.208.282-.029.282-.592.282-.284.282.58.564 1.495.282.038.282-.313.564-.855.282.272.564 1.487.282-.058.564-.607.282-.443.282-.133.282.089.282-.106.282.03.563.608 1.128-.245.282.188.282-.297.282-.746.282-.003.282.584.282-.129.282-.403.564.607.564-1.373.282.175.282-.115.282-.441.282.098.282.281.282-.08.282.09.282.383.282.026.563-.495.282-.095.282.085.846 1.612.564.228.282.334.282-.026.564-.76.564.27.282.087.846 1.56.846-.258.282-.286.282-.471.282-.055.282.445.281.226.282-.075.282.309.564 1.292.282.406.282.097.564-.86.564.063.564-.216.282-.09.282-.92.564-2.726 1.692-2.086.282-.11.564.15.281.857.282 1.316.282.51.282-.22.282.238.282.553.564.032.282.405.282.19.282-.303.282-.106.564.41.564-.09.282-.143.282.19.564 1.795.282-.027.282-.623.282-.314.282-.058.282-.247.281-.052.282.418.282.072.282-.603.282-.265.282.399.282.1 1.41-2.3.282-.086 1.41-1.9.282.275.282.523.564 1.763.282.312.282-.396.282-.192 1.127 1.207.282.119.282.248.282.083.282-.221.282.118.282.538.282.163.282-.22.564-.088.282-.185.282.057.282.197.282-.03.846-.73.282.418.282.73.282.215.282-.032.563.452.846-.987 1.128-1.119.846-1.787.282-.28.282-.095.564-.926.282-.021.846.759.564 2.06.282.416.282.142.282.015.563-.358.282.043.282.255.564.829.282.03.846-.869.282-.012.564.686.564-.72.564.785.282-.385.282.15.282 1.01.282.587.564-.497.564-.081.282-.129.281-.356.282-.58.282-.27.282-.048.282-.628.564-1.873 1.128-1.413.282-.298.282-.052.564.209.282.545.564 2.439.282.166.282-.053.564.702.282.156.564.622.845.139.282-.387.282-.756.282-.227.564.41.282.265.564 1.692.564.452.282.265.282-.068.564-1.304.282-.224.282-.037.564-.431.282.111.282-.132.282-.406.282-.072.282.12.281-.246.564-1.036.846-2.46.282-.175.282.077.564.85.564.954.282.293.564.041.564.572.564.64.282.119.846-.087 1.127-.531.282.165.564.553.564.128.282.198.564.881 1.128.711.846-.345 1.128-1.592.846-2.182.282-1.186.282-.374.281.018.564-.68.564.014.282.308.846 2.091.564 2.427.846 1.775.846-.381.282.06.564-.112.846.345.282-.17.282.103.563.66.846-.157.282-.035.282.101.282-.387.282-.856.282-.225.282.312.282-.373.282-.656.282.305.282.669.282-.137.564-.894 1.128-1.913.564-1.14.282-.268.563-1.05.282.301.282.67.564.454.564 2.13.282-.047.282-.216.846 1.077.282.139.564-.117.282.19.282-.144.282-.673.282-.25.564.591.282.068.564.417.282-.004.563.546.282-.02.282.329.282.661.282.198.564-.631.564-.95.564-.194.564-1.318.846-2.091.282-.178.564-.1.846-.564.282.303 1.127 1.877.282-.14.282.118.564.872.282.243.564.85.564.336.282.477.282.237.564-.793.282.223.282.44.564-.126.564 1.42.282.146.282-.062.282.206.282-.003.845-1.589.282-.371.846-1.617 1.128-1.742.282-.647.564.225.564-.817.282.107.282.386.564 1.355.564.418.564 1.374.563-.828.282.265.282.075.282-.19.282.366.564 1.32.282-.012.282-.157.282-.01.564.213.282.019.846.62.846-.207.282.223.564.771.846-.125.282-.303.563-1.217.564-1.66.564-1.06.564-.729.564-.951.282-.188.564-.607.282.261.564 1.27.282.391 1.41 1.03.564.924.282.019.281.369.564 1.483.282-.044.564-.34.282-.008.564.496.282.343.564.909.564-.267.564.743.564.235.282-.424.564-1.661 1.691-2.684.282-.495.564-1.604.282.06.282.348.564-.769.282.11.564.798.846.901.846 1.687.282.209.282-.131.282.124.564 1.058.564-.129.282.132.281-.014.564.272.564-1.024.564.801.282-.33.282.13.564 2.441.282.094.282-.307.564-.233.282-.284 1.41-2.507.564-1.04 1.127-2.568.282-.266.846.054.564.68 1.41 3.258.282.321.564-.306.282.177.564-.566.282.322.282.563.564.323.282.423.282.172.845-1.629.282.205.282-.106.282.025.846 2.513.282.109.282.26.282.035 1.41-1.532.282-.404.564-1.327.564-1.72.564-.621.564-2.297.281-.086.282.411.282-.038.282.33.564 2.461.282.32.282.1 1.41 1.523.564.908.564-.232.564.506.846-.145.282-.35.282.048 1.41 1.62.281-.061.564.156.282.186.282.387.282.042.564-1.169.564-1.478.282-.336.282-.028.282-.277 1.128-2.045.282-.677.282-.38.282-.006.282.165.282-.113.563-.985.282.286.564 1.177.282.504.564 1.66.564-.418.564.875.282.303.282.73.282.39.282-.298.282-.109.282.013.564-.824.564.399.282.128 1.127 2.895.282.034.564-.63.564.41.282-.478.846-2.05.564-2.006.282-.35 1.692-3.282.564-.848.282.584.282 1.26.282.73.281.39.564 1.484.564.55.564.608.564.616.564-.117.564.612.846 1.183.282.025.564-.245.846-.051.282.176.564.82.563.093.282.371.282-.065.564-1.096.282-.444.846-2.441.564-1.136.564-.214.846-1.353.282-.213.564.161.564-.864.282.492.282.843.564.755.563 1.862.282.139.282-.15 1.128.664.564.537.282.127.564.75.564-.465.282.24.282.41.282-.023.282-.168.564.693.564-.3.564 1.32.281-.176.282-.66.282-.162.282-.322.564-2.84.846-2.099.282-.88.282-.265.846.278.282-.207.282.246.564 1.493.282.3.564.98.564.297.282.303.564-.434.563.686.282.004.282.177.564 1.01.282-.088.282.043.282.257.564.141.564.939.282-.064.564-1.757.282-.003.282.587.564.18.564 2.17.282-.316.282-.716.282-.38.563-1.216.564-.215.282-.409.282-.732.564-3.186.282-.632.282.07.282-.211.282.019.282.595.282.33.282.073.846.893.564 2.36.282.21.282-.262.282.285.282.106.564-.948h0" clip-path="url(#pba74ffcbf0)" style="fill:none;stroke:#1f77b4;stroke-width:1.5;stroke-linecap:square"/><path id="patch_3" d="M81.487 266.112V0" style="fill:none;stroke:gray;stroke-width:.8;stroke-linejoin:miter;stroke-linecap:square"/><path id="patch_4" d="M695.288 266.112V0" style="fill:none;stroke:#000;stroke-width:.8;stroke-linejoin:miter;stroke-linecap:square"/><path id="patch_5" d="M81.487 266.112h613.8" style="fill:none;stroke:gray;stroke-width:.8;stroke-linejoin:miter;stroke-linecap:square"/><path id="patch_6" d="M81.487 0h613.8" style="fill:none;stroke:#000;stroke-width:.8;stroke-linejoin:miter;stroke-linecap:square"/></g></g><defs><clipPath id="pba74ffcbf0"><path d="M81.487 0h613.8v266.112h-613.8z"/></clipPath></defs></svg>