<svg xmlns="http://www.w3.org/2000/svg" xmlns:xlink="http://www.w3.org/1999/xlink" width="913.477" height="377.053" viewBox="0 0 685.107 282.79"><defs><style>*{stroke-linejoin:round;stroke-linecap:butt}</style></defs><g id="figure_1"><path id="patch_1" d="M0 282.79h685.107V0H0v282.79z" style="fill:none"/><g id="axes_1"><path id="patch_2" d="M71.308 266.112h613.8V0h-613.8v266.112z" style="fill:none"/><g id="matplotlib.axis_1"><g id="xtick_1"><g id="line2d_1"><defs><path id="md204b37fe6" d="M0 0v3.5" style="stroke:gray;stroke-width:.8"/></defs><use xlink:href="#md204b37fe6" x="99.207" y="266.112" style="fill:gray;stroke:gray;stroke-width:.8"/></g><g id="text_1" style="fill:gray" transform="matrix(.1 0 0 -.1 96.026 280.71)"><defs><path id="DejaVuSans-30" d="M2034 4250q-487 0-733-480-245-479-245-1442 0-959 245-1439 246-480 733-480 491 0 736 480 246 480 246 1439 0 963-246 1442-245 480-736 480zm0 500q785 0 1199-621 414-620 414-1801 0-1178-414-1799Q2819-91 2034-91q-784 0-1198 620-414 621-414 1799 0 1181 414 1801 414 621 1198 621z" transform="scale(.01563)"/></defs><use xlink:href="#DejaVuSans-30"/></g></g><g id="xtick_2"><use xlink:href="#md204b37fe6" id="line2d_2" x="168.958" y="266.112" style="fill:gray;stroke:gray;stroke-width:.8"/><g id="text_2" style="fill:gray" transform="matrix(.1 0 0 -.1 159.414 280.71)"><defs><path id="DejaVuSans-35" d="M691 4666h2478v-532H1269V2991q137 47 274 70 138 23 276 23 781 0 1237-428 457-428 457-1159 0-753-469-1171Q2575-91 1722-91q-294 0-599 50Q819 9 494 109v635q281-153 581-228t634-75q541 0 856 284 316 284 316 772 0 487-316 771-315 285-856 285-253 0-505-56-251-56-513-175v2344z" transform="scale(.01563)"/></defs><use xlink:href="#DejaVuSans-35"/><use xlink:href="#DejaVuSans-30" x="63.623"/><use xlink:href="#DejaVuSans-30" x="127.246"/></g></g><g id="xtick_3"><use xlink:href="#md204b37fe6" id="line2d_3" x="238.708" y="266.112" style="fill:gray;stroke:gray;stroke-width:.8"/><g id="text_3" style="fill:gray" transform="matrix(.1 0 0 -.1 225.982 280.71)"><defs><path id="DejaVuSans-31" d="M794 531h1031v3560L703 3866v575l1116 225h631V531h1031V0H794v531z" transform="scale(.01563)"/></defs><use xlink:href="#DejaVuSans-31"/><use xlink:href="#DejaVuSans-30" x="63.623"/><use xlink:href="#DejaVuSans-30" x="127.246"/><use xlink:href="#DejaVuSans-30" x="190.869"/></g></g><g id="xtick_4"><use xlink:href="#md204b37fe6" id="line2d_4" x="308.457" y="266.112" style="fill:gray;stroke:gray;stroke-width:.8"/><g id="text_4" style="fill:gray" transform="matrix(.1 0 0 -.1 295.733 280.71)"><use xlink:href="#DejaVuSans-31"/><use xlink:href="#DejaVuSans-35" x="63.623"/><use xlink:href="#DejaVuSans-30" x="127.246"/><use xlink:href="#DejaVuSans-30" x="190.869"/></g></g><g id="xtick_5"><use xlink:href="#md204b37fe6" id="line2d_5" x="378.207" y="266.112" style="fill:gray;stroke:gray;stroke-width:.8"/><g id="text_5" style="fill:gray" transform="matrix(.1 0 0 -.1 365.483 280.71)"><defs><path id="DejaVuSans-32" d="M1228 531h2203V0H469v531q359 372 979 998 621 627 780 809 303 340 423 576 121 236 121 464 0 372-261 606-261 235-680 235-297 0-627-103-329-103-704-313v638q381 153 712 231 332 78 607 78 725 0 1156-363 431-362 431-968 0-288-108-546-107-257-392-607-78-91-497-524-418-433-1181-1211z" transform="scale(.01563)"/></defs><use xlink:href="#DejaVuSans-32"/><use xlink:href="#DejaVuSans-30" x="63.623"/><use xlink:href="#DejaVuSans-30" x="127.246"/><use xlink:href="#DejaVuSans-30" x="190.869"/></g></g><g id="xtick_6"><use xlink:href="#md204b37fe6" id="line2d_6" x="447.957" y="266.112" style="fill:gray;stroke:gray;stroke-width:.8"/><g id="text_6" style="fill:gray" transform="matrix(.1 0 0 -.1 435.233 280.71)"><use xlink:href="#DejaVuSans-32"/><use xlink:href="#DejaVuSans-35" x="63.623"/><use xlink:href="#DejaVuSans-30" x="127.246"/><use xlink:href="#DejaVuSans-30" x="190.869"/></g></g><g id="xtick_7"><use xlink:href="#md204b37fe6" id="line2d_7" x="517.707" y="266.112" style="fill:gray;stroke:gray;stroke-width:.8"/><g id="text_7" style="fill:gray" transform="matrix(.1 0 0 -.1 504.983 280.71)"><defs><path id="DejaVuSans-33" d="M2597 2516q453-97 707-404 255-306 255-756 0-690-475-1069Q2609-91 1734-91q-293 0-604 58T488 141v609q262-153 574-231 313-78 654-78 593 0 904 234t311 681q0 413-289 645-289 233-804 233h-544v519h569q465 0 712 186t247 536q0 359-255 551-254 193-729 193-260 0-557-57-297-56-653-174v562q360 100 674 150t592 50q719 0 1137-327 419-326 419-882 0-388-222-655t-631-370z" transform="scale(.01563)"/></defs><use xlink:href="#DejaVuSans-33"/><use xlink:href="#DejaVuSans-30" x="63.623"/><use xlink:href="#DejaVuSans-30" x="127.246"/><use xlink:href="#DejaVuSans-30" x="190.869"/></g></g><g id="xtick_8"><use xlink:href="#md204b37fe6" id="line2d_8" x="587.457" y="266.112" style="fill:gray;stroke:gray;stroke-width:.8"/><g id="text_8" style="fill:gray" transform="matrix(.1 0 0 -.1 574.732 280.71)"><use xlink:href="#DejaVuSans-33"/><use xlink:href="#DejaVuSans-35" x="63.623"/><use xlink:href="#DejaVuSans-30" x="127.246"/><use xlink:href="#DejaVuSans-30" x="190.869"/></g></g><g id="xtick_9"><use xlink:href="#md204b37fe6" id="line2d_9" x="657.207" y="266.112" style="fill:gray;stroke:gray;stroke-width:.8"/><g id="text_9" style="fill:gray" transform="matrix(.1 0 0 -.1 644.482 280.71)"><defs><path id="DejaVuSans-34" d="M2419 4116 825 1625h1594v2491zm-166 550h794V1625h666v-525h-666V0h-628v1100H313v609l1940 2957z" transform="scale(.01563)"/></defs><use xlink:href="#DejaVuSans-34"/><use xlink:href="#DejaVuSans-30" x="63.623"/><use xlink:href="#DejaVuSans-30" x="127.246"/><use xlink:href="#DejaVuSans-30" x="190.869"/></g></g></g><g id="matplotlib.axis_2"><g id="ytick_1"><g id="line2d_10"><defs><path id="mb389ed7511" d="M0 0h-3.5" style="stroke:gray;stroke-width:.8"/></defs><use xlink:href="#mb389ed7511" x="71.308" y="218.586" style="fill:gray;stroke:gray;stroke-width:.8"/></g><g id="text_10" style="fill:gray" transform="matrix(.16 0 0 -.16 0 224.664)"><defs><path id="DejaVuSans-2212" d="M678 2272h4006v-531H678v531z" transform="scale(.01563)"/></defs><use xlink:href="#DejaVuSans-2212"/><use xlink:href="#DejaVuSans-31" x="83.789"/><use xlink:href="#DejaVuSans-30" x="147.412"/><use xlink:href="#DejaVuSans-30" x="211.035"/><use xlink:href="#DejaVuSans-30" x="274.658"/><use xlink:href="#DejaVuSans-30" x="338.281"/></g></g><g id="ytick_2"><use xlink:href="#mb389ed7511" id="line2d_11" x="71.308" y="152.779" style="fill:gray;stroke:gray;stroke-width:.8"/><use xlink:href="#DejaVuSans-30" id="text_11" style="fill:gray" transform="matrix(.16 0 0 -.16 54.127 158.858)"/></g><g id="ytick_3"><use xlink:href="#mb389ed7511" id="line2d_12" x="71.308" y="86.972" style="fill:gray;stroke:gray;stroke-width:.8"/><g id="text_12" style="fill:gray" transform="matrix(.16 0 0 -.16 13.408 93.05)"><use xlink:href="#DejaVuSans-31"/><use xlink:href="#DejaVuSans-30" x="63.623"/><use xlink:href="#DejaVuSans-30" x="127.246"/><use xlink:href="#DejaVuSans-30" x="190.869"/><use xlink:href="#DejaVuSans-30" x="254.492"/></g></g><g id="ytick_4"><use xlink:href="#mb389ed7511" id="line2d_13" x="71.308" y="21.165" style="fill:gray;stroke:gray;stroke-width:.8"/><g id="text_13" style="fill:gray" transform="matrix(.16 0 0 -.16 13.408 27.244)"><use xlink:href="#DejaVuSans-32"/><use xlink:href="#DejaVuSans-30" x="63.623"/><use xlink:href="#DejaVuSans-30" x="127.246"/><use xlink:href="#DejaVuSans-30" x="190.869"/><use xlink:href="#DejaVuSans-30" x="254.492"/></g></g></g><path id="line2d_14" d="m99.207 152.784 3.384-.007 5.921.022.846-.047.282.057.282-.064.282.071.282-.08.282.091.282-.105.282.124.282-.149.282.185.282-.242.282.345.282-.592.282 2.166.282 3.067.563-2.98.282-1.123.282 1.733.564 5.38.282-.617.282.52.564 4.902.282-.315.282.069.282 1.548.282.351.564-6.755.282-.73.846 4.652.282 5.463.564 13.295.282 2.04.564 1.571.281-1.184.282-3.688.282-5.34.282-7.563.564-24.853.846-42.241.282-7.557.282-2.193.282-.432.282 1.946.564 16.67.564 17.861.564 20.91.564 8.815.564 11.472.282.493.282.133.281 1.13.282.122.846-1.951.564-4.28.564-1.913.282-.171.282.812.282.447.282-.21.282.608.282 1.047.282-1.47.282-3.465.282-1.214.846 8.305.282 3.768.564 10.174.845 9.093.282.733.282-2.556 1.128-23.726.564-31.625.564-30.871.564-22.71.282-4.238.282 1.805.282 4.521.282 6.697.564 23.762.846 42.277.282 2.807.282-1.218.282 1.442.281 3.13.282.039.282-2.243h.282l.564 4.298.282-.068.564-3.528.846-5.064.282.22.564 6.02.282-.339.282-.028.846 12.138.282-.58.282.945.282 2.337.282.574.282-1.395.281-.18.846 6.885.282 1.5.564 4.888.282-.887.564-8.672.282-5.477.282-9.966 1.41-78.24.282-8.461.282-3.356.282.842.282 4.981.564 21.834.564 24.904.563 30.623.282 4.683.282 1.09.564 10.157.282.533.282-2.245.282-.314.282.842.282-1.29.846-9.983.282.403.282 1.784.282.734.282-.399.282.156.846 4.55.282.305.282.788.564 4.4.281-1.37.282-2.749.282.09.282 2.49.282 1.22.282-.034.282.974.846 5.095.282 2.473.282-.443.564-6.144.282-1.133.282-5.672 1.128-55.692.564-27.881.282-5.786.282-1.658.282 2.074.281 9.17 1.128 55.433.282 10.356.282 6.014.564 5.013.282.616.282.202.564 3.53.564-2.055.564 7.188.282-.635.282-4.313.282-2.505.282.008.282-1.764.282-4.1.282-1.946.282 1.53.282.491.281-1.518.282 2.148.564 14.638 1.128 9.562.282-.79.282.677.564 5.837.564 2.72.282.01.282-2.166.282-3.83.282-6.257.564-23.432.564-34.237.564-41.08.282-11.825.563-10.707.282-1.728.282 5.496.564 30.354 1.128 64.203.846 11.56.282 3.095.564-.35.282.82.282-.912.564-4.767.282-1.318.282-1.857.282-.36.845 7.533.564 1.984.282-.24.282-1.993.564-5.058.282 1.152.282 3.114.564 2.91.282 4.033.564 10.968.564 5.45.282 3.868.282 1.478.282-2.827.564-8.418.282-3.896.282-9.914 1.127-73.995.564-34.737.564-15.473.282-6.472.282-.828.282 8.235.564 33.104 1.128 77.412.282 5.226.282 2.67.564 8.234.282-2.371.282-3.6.282-.324.282.868.282-.613.282-.997.282-.465.281-1.16.846-5.647.282.543.282 1.566.282.429.282-.206.282 1.647.282 2.369.282-.103.282-.39.282 3.495.282 5.154.282 1.978.282-.031.564 2.572.282 1.697.282 5.185.282 7.674.282 4.095.282-1.326.564-3.897.281-4.358.282-11.26 1.692-107.332.282-6.06.564.599.282 2.398.282 11.14.846 48.229.564 28.126.282 5.977.282 1.72.282 3.31.564 10.091.282 1.392.282-1.445.845-5.86.564-9.191.282.203.282.836.282-1.025.282 1.046.564 10.206.282.61.282-1.386.282-.449.282.123.282-.804.564-5.5.282-.279.564 5.406.282 1.256.282 3.856.564 10.966.282.893.281 1.371.282 2.39.282.35.282-1.551.282-2.644.282-7.144.564-32.032 1.41-91.61.282-7.151.282-1.97.282 5.89.564 27.582 1.128 72.437.564 19.69.282 5.569.282.999.281.17.282-.007.282-2.372.282-3.337.282-1.56.282-.832.846-5.397.282-.464.282.56.564 3.267.282.366.282.623.282 1.126.282.478.282.703.846 6.337.282 1.357.564 5.653.282 1.67.281 2.74.564 8.547.282 1.374.282-.171.282-1.189.282-3.245.282-6.503.282-11.41.564-39.505 1.128-83.594.564-16.706.282-3.62.282 3.423.564 24.439.564 40.769.564 41.981.563 14.833.564 10.732.564 4.63.282.855.846-4.09.564-7.512.282 2.435.282 6.375.282 2.728.282-1.923.282-1.019.564 3.226.282.42.564 1.527.282.992.846 4.635.281 3.441.564 9.32.846 9.214.282-.495.282-.92.282-.237.282-2.445.282-6.66.282-10.833.282-16.899 1.41-116.002.564-26.193.282-3.121.282 3.611.282 9.2.564 33.12 1.127 80.915.564 16.866.564 6.819.846 9.167.282-.155.282-1.204.282-.161.282-.475 1.128-9.654.282-1.602.282-.221.282.457.282-.014.282.75 1.127 11.928.564 1.172.282 2.1.564 6.071.282.738.282 1.543.564 6.822.282.613.282-.248.282-1.739.282-7.66.846-48.75 1.128-77.506.564-21.839.282-5.742.281 3.722.564 25.875.564 39.636.564 40.137.564 21.606.282 3.624.282 2.123.282 3.071.282 1.631.564-1.898.282-1.772.564-14.028.282-1.984.282.573.564-5.286.282 5.34.282 8.988.282 5.212.281 1.519.282.692.282.182.282.582.564 4.163.282-.052.282-.66.282.036.282.883.282 2.878.564 8.277.282 2.332.846 10.468.282-1.766.282-4.336.282-7.954.564-30.122.846-69.01.563-37.355.282-10.825.282-6.358.282-1.266.282 5.289.282 11.991.564 36.64.846 54.935.564 20.37.282 4.306.282 1.38.282 2.477.282 3.814.282 1.9.564-.294.282.35.282 1.155.282 2.191.282-.55.563-11.18.282.022.282 1.464.282-.96.282.31.282 3.02.282.786.282-1.592.282 1.423.282 3.983.564 3.87 1.41 29.55.282.427.282-2.294.564 2.539.282-11.113 1.127-104.255.564-53.175.282-15.242.282-5.453.282 2.537.564 13.53.564 23.301.846 48.081.564 37.362.282 11.815.564 11.896.282 4.468.282 1.8.564-7.203.282.913.282 2.717.282-1.098.282-2.872.281-.598.282-.128.564-2.352.282-.419.282-1.658.282.094.846 15.246.282 1.454 1.41 11.447.282 5.138.846 20.178.282-.98.282-2.89.282-1.472.282-2.976.282-10.288.563-40.46.846-77.316.564-46.508.282-8.742.282-2.109.282.04.282 1.739.282 5.911.564 26.44 1.41 88.721.564 18.672.282 4.464.282.503.282-.795.282 1.334.281 1.877.282-1.055.282-1.613.282 2.225.282 3.71.282-.128.564-5.09.282-.125.282.847.564 5.264.282.215.282-1.363.282 1.273.564 7.738.564 1.8.282 3.231.564 8.804 1.128 8.055.281.373.282.17.282-1.348.282-8.365.846-56.651 1.128-91.696.564-19.714.282-2.444.282 3.776.282 8.292.564 27.397 1.41 87.876.282 8.782.563 2.497.282 4.292.282 1.858.282-2.316.282-.702.564 6.115.282-.21.282-.5.564 1.673.846 3.873.282.244.282 1.916.282 3.158.282 1.076.564-6.018.282.408.564 9.777.282 1.933.282 3.52.563 19.6.282 3.804.282-.596.282.741.282-.837.282-9.641.846-56.773 1.128-95.436.564-21.925.282-7.074.282-1.257.846 10.81.282 9.833.846 51.2.845 57.106.564 15.718.564 6.734.282 1.098.282.343.282.843.282 1.613.282.928.282-.202.282.855.282 2.542.282 1.133.282-1.728.282-.685.846 8.97.282.514.846 11.028.282 1.28.281 4.698.564 13.674.282 2.472.564.448.282-.972.282-8.132.282-20.61 1.41-141.081.282-17.765.846-17.389.282-5 .282.073.282 3.884.564 14.233.282 11.654.564 36.512 1.127 75.836.282 8.943.564 8.461.282 1.56.282-1.424.282.317.282 3.04.282 1.272.282-.88.282.617.282 1.392.564-.494.564 3.95.282 2.41.846 15.403.564 4.424.563 5.358.282 1.354.282-.044.282.984.846 13.483.282-1.118.282-4.6.282-10.55.564-39.794.564-60.01.564-57.002.846-32.702.282-8.549.282-3.463.282.884.282 5.389.563 26.254 1.974 112.925.564 14.82.564 7.868.564 3.225.846 10.155.282-2.198.282-3.72.282-1.598.282.609.282-.822.282-3.353.282-1.193.845 12.6.282-.507.282 1.032.282 2.228.564 2.296 1.128 16.736.564 6.223.282-1.053.282-5.585.282-11.034.564-41.215 1.41-122.852.564-14.792.563-8.303.282 1.472.282 9.65.846 45.17.846 59.295.564 25.309.282 14.155.282 6.793.282 2.697.564 7.905.846 4.305.282-3.004.282-4.396.282-.635.282 1.707.282-.402.282-1.543.281.67.564 3.725.282 1.834 1.128 14.867.846 18.08.564 6.967.282.445.282-5.17.564-18.26.282-12.613.564-44.73.846-80.733.564-34.215.282-10.157.281-5.163.282-2.181.282-.382.282 2.767.282 7.013.564 23.93 1.128 60.414.564 33.057.846 27.181.564 11.527.282 3.604.282.878.282 1.364.564 8.256.282-1.432.282-2.539.281 1.581.282 2.96.282-.432.282-1.73.282 1.824.564 7.959.282.755.282 2.005.564 14.581.282 6.586.564 7.169.282 2.102.282-1.67.282-6.291.282-10.869.282-17.54.846-86.073.846-81.395.563-20.224.282-5.316.282-1.036.282 2.877.282 4.905.282 7.895.846 36.16 1.128 74.331.846 37.82.282 3.583.282 1.66.282 2.935.282 1.706.282-.83.282-.387.282 2.672.564 7.898.281-.01.282-2.243.282-.945.282 2.137.282 3.007.564 3.173.846 8.728.282 1.418.282 2.906 1.41 20.445.282 3.432.282.62.282-6.024.564-29.046.564-51.18.563-65 .564-40.411.564-21.429.282-4.18.282-.21.282 2.104.282 4.565.282 9.906 1.974 105.184.564 20.52.282 3.295.282 1.392.564 9.055.564-1.37.282 6.646.281 10.129.282 4.481.282-.682.282.403.282 1.722.282-.096.282-.279.282 3.092.564 10.979.846 7.807.564 10.521.564 6.47.564 8.449.282-2.291.282-8.36.282-14.764.564-52.107 1.127-118.485.282-14.596.564-10.668.282-2.632.282 2.956.564 14.046.846 33.593.564 31.325.282 15.843 1.41 41.899.564 9.089.564 8.226.281 3.068.282.268.282-2.732.282-1.058.282 3.488.564 8.96.282 2.638.282 5.011.564 15.798.282-.246.282-4.85.282-.915.282 3.68.282 1.465.282-.945.282 4.018.564 21.782.282 5.816.282 1.953.282.126.282-4.55.282-15.338.563-64.134.846-99.982.282-20.405.282-5.892.282.616.564-3.768.282 5.826.564 16.61.282 7.248.846 33.109.282 6.816.564 23.172.564 11.197.846 31.604.563 4.18.282 1.352.282.683.282 1.948.282 2.795.564 2.592.846 14.405.282 1.567.564 6.092.846 8.47.282.465.282.124.282 1.945.564 8.304.564 11.86.564 11.133.282-4.065.281-15.305.564-47.402 1.128-105.87.564-31.908.282-6.914.282-.825.282 1.007.282 3.519.282 9.265.846 36.962.564 18.618.846 34.768.564 12.412.563 5.91 1.974 28.677.282-.775.282.76.282 3.074.282.714.564-6.911.282 2.238.564 9.626.282 4.262.564 20.712.282 9.65.564 10.292.564 16.28.281-.357.564-19.649.282-13.903.564-54.051.846-84.32.282-18.641.282-9.941.282-3.328.564-2.977.282 1.377.282 4.346.564 16.68.564 19.175.846 36.944.564 15.953.282 8.404.281 1.266.282-1.53.282 3.3.282 4.745.282.143.282-.543.564 4.996.282-1.49.282 1.282.282 5.503.282 3.314.282.821.282 4.753.564 13.2.282 2.59.282 5.046.564 13.351 1.128 19.6.563 13.284.282 1.366.282-3.698.282-7.834.282-11.82.282-17.555.564-57.987.564-53.599.564-26.294.282-6.685.282-3.121.282-1.166.282 1.083.564 8.045.282 6.46.846 36.701.564 10.509.563 18.79.564 11.123.282 3.985.282 1.61.282.72.564 2.529.564.622.282.072.282-.062.282 2.05.564 6.86.282.714.282 2.419.564 8.875 1.128 9.168.564 11.62.563 16.378.564 17.61.282 2.838.282 1.253.282-.932.282-6.846.282-13.715.564-45.571.564-52.047.564-32.44.282-9.92.282-3.952.282.07.282.618.282.963.282 3.258.564 13.867 1.691 54.756.282 6.772.282.574.282-3.01.282-1.413.564 1.502.282-.034.282.619.282 3.009.564 12.652.282 3.018.282.206.282 1.745.282 3.634.282 1.988.282-.09.282.87.846 10.082.282.658.282-.526.281 1.55 1.41 20.242.282 1.678.282.863.282 1.4.282-3.514.564-25.69.564-36.28.564-45.19.564-16.55.564-13.12.282-.632.282 1.157.282 2.613.282 6.6 1.691 59.549.282 5.393.282 2.31.564-1.864.282 2.766.282 4.873.282 2.317.282.931.846 12.202.282-.826.282 1.071.282 2.355.282-.402.282-2.438.282-.63.282 1.31.564 1.105.281 3.437.846 19.713.564 6.151.564 7.02.846 6.576.282-.915.282-6.012.282-11.783.564-40.844.564-40.529.564-23.009.282-8.357.282-4.117.282-.51.282-.083.282-.74.282.326.281 3.228.564 15.768.846 24.994 1.41 36.15.282 2.07.282-.162.282 1.263.282 1.992.282.045.282-.74.282 1.02.282 1.65.282.402.282.603.564 3.852.282.793.845 3.584.282 1.239.564 6.748.282 1.028.282 1.764.846 11.8.282 3.626.564 9.416.282.868.282-3.954.282-10.092.846-51.661.564-30.12.846-27.982.282-5.897.281-1.58.282.017.282 1.015.282 3.822.846 20.125.564 14.243.282 4.782.282 10.105.564 25.341.282 1.934.282-.285.564 4.108.282-.61.564-2.01.564-3.974.564 4.297.282-2.231.282-3.354.281 1.318.282 3.405.282-.282.282-1.175.282 4.401.282 7.693.282 4.132.282 1.142.282 3.076.282 4.366.846 7.709 1.128 18.994.282-.91.282-6.604.282-11.54 1.128-67.228.845-32.694.282-4.682.564-2.477.282.22.282 3.063.282 6.319.564 20.337.564 18.655.282 3.506.282 1.463.282 3.385.564 12.788.282 2.559.282.824.846 8.457 1.128-5.282.281-1.406.282.483.564 4.005.282.71.282-.576.282-.03.564 3.511.564 1.367.282 1.368.282-.144.282-1.077.282 2.013.846 15.642.282 1.837.282 1.062.282.107.282-1.546.282-4.338.564-18.814 1.41-63.784.563-12.809.282.03.564 10.688.282 2.808.282 4.674.564 17.614.564 7.55.564 13.662.564 3.79.846 11.951.564 3.305.281-.499.282-1.393.282.008.564 1.952.282-.016.564-2.414.282.267.282 1.76.564 1.625.282 2.884.564 7.33.846 4.906.282.454.282 2.81.282 4.564.282 1.44.564-3.688.282-.032.282-3.509.563-21.802.846-33.434.564-16.55.282-5.77.282-2.96.564-2.61.282.285.282 1.847.282 3.184.282 5.489.846 21.2.846 17.308.564 4.92.282 3.314.282 1.334.563-1.675.282.964.282 1.41.282-.052.846-5.013.564.397.564-1.245.282.82 1.128 10.022.846 14.77.282.829.282 1.375.282 2.48.282 3.714.563 10.02.282.047.564-9.278.282-9.39 1.128-62.113.846-20.762.282-1.57.282.063.282.636.282 1.39.282 2.715.282 5.348.846 26.068 1.691 24.27.282.648.282-1.224.282-.445.282.493.282-.043.282-.435.282-.655.282-1.08.282-.092.564 4.238.282-.13.282.506.564 6.34.282.518.282 1.262.564 7.11.282.111.282-.45.282 2.236.564 7.108.281-1.497.282-3.252.282.778.282 5.084.282 2.121.564-6.217.282 1.153.282-2.169.564-26.104.564-20.045.846-24.23.282-3.19.282.403 1.128 10.385 1.127 22.976h0" clip-path="url(#p5d6827e70d)" style="fill:none;stroke:#1f77b4;stroke-width:1.5;stroke-linecap:square"/><path id="patch_3" d="M71.308 266.112V0" style="fill:none;stroke:gray;stroke-width:.8;stroke-linejoin:miter;stroke-linecap:square"/><path id="patch_4" d="M685.107 266.112V0" style="fill:none;stroke:#000;stroke-width:.8;stroke-linejoin:miter;stroke-linecap:square"/><path id="patch_5" d="M71.308 266.112h613.8" style="fill:none;stroke:gray;stroke-width:.8;stroke-linejoin:miter;stroke-linecap:square"/><path id="patch_6" d="M71.308 0h613.8" style="fill:none;stroke:#000;stroke-width:.8;stroke-linejoin:miter;stroke-linecap:square"/></g></g><defs><clipPath id="p5d6827e70d"><path d="M71.308 0h613.8v266.112h-613.8z"/></clipPath></defs></svg>