<svg xmlns="http://www.w3.org/2000/svg" xmlns:xlink="http://www.w3.org/1999/xlink" width="899.903" height="377.053" viewBox="0 0 674.928 282.79"><defs><style>*{stroke-linejoin:round;stroke-linecap:butt}</style></defs><g id="figure_1"><path id="patch_1" d="M0 282.79h674.928V0H0v282.79z" style="fill:none"/><g id="axes_1"><path id="patch_2" d="M61.127 266.112h613.8V0h-613.8v266.112z" style="fill:none"/><g id="matplotlib.axis_1"><g id="xtick_1"><g id="line2d_1"><defs><path id="me2dd559768" d="M0 0v3.5" style="stroke:gray;stroke-width:.8"/></defs><use xlink:href="#me2dd559768" x="89.028" y="266.112" style="fill:gray;stroke:gray;stroke-width:.8"/></g><g id="text_1" style="fill:gray" transform="matrix(.1 0 0 -.1 85.846 280.71)"><defs><path id="DejaVuSans-30" d="M2034 4250q-487 0-733-480-245-479-245-1442 0-959 245-1439 246-480 733-480 491 0 736 480 246 480 246 1439 0 963-246 1442-245 480-736 480zm0 500q785 0 1199-621 414-620 414-1801 0-1178-414-1799Q2819-91 2034-91q-784 0-1198 620-414 621-414 1799 0 1181 414 1801 414 621 1198 621z" transform="scale(.01563)"/></defs><use xlink:href="#DejaVuSans-30"/></g></g><g id="xtick_2"><use xlink:href="#me2dd559768" id="line2d_2" x="158.778" y="266.112" style="fill:gray;stroke:gray;stroke-width:.8"/><g id="text_2" style="fill:gray" transform="matrix(.1 0 0 -.1 149.234 280.71)"><defs><path id="DejaVuSans-35" d="M691 4666h2478v-532H1269V2991q137 47 274 70 138 23 276 23 781 0 1237-428 457-428 457-1159 0-753-469-1171Q2575-91 1722-91q-294 0-599 50Q819 9 494 109v635q281-153 581-228t634-75q541 0 856 284 316 284 316 772 0 487-316 771-315 285-856 285-253 0-505-56-251-56-513-175v2344z" transform="scale(.01563)"/></defs><use xlink:href="#DejaVuSans-35"/><use xlink:href="#DejaVuSans-30" x="63.623"/><use xlink:href="#DejaVuSans-30" x="127.246"/></g></g><g id="xtick_3"><use xlink:href="#me2dd559768" id="line2d_3" x="228.528" y="266.112" style="fill:gray;stroke:gray;stroke-width:.8"/><g id="text_3" style="fill:gray" transform="matrix(.1 0 0 -.1 215.803 280.71)"><defs><path id="DejaVuSans-31" d="M794 531h1031v3560L703 3866v575l1116 225h631V531h1031V0H794v531z" transform="scale(.01563)"/></defs><use xlink:href="#DejaVuSans-31"/><use xlink:href="#DejaVuSans-30" x="63.623"/><use xlink:href="#DejaVuSans-30" x="127.246"/><use xlink:href="#DejaVuSans-30" x="190.869"/></g></g><g id="xtick_4"><use xlink:href="#me2dd559768" id="line2d_4" x="298.277" y="266.112" style="fill:gray;stroke:gray;stroke-width:.8"/><g id="text_4" style="fill:gray" transform="matrix(.1 0 0 -.1 285.553 280.71)"><use xlink:href="#DejaVuSans-31"/><use xlink:href="#DejaVuSans-35" x="63.623"/><use xlink:href="#DejaVuSans-30" x="127.246"/><use xlink:href="#DejaVuSans-30" x="190.869"/></g></g><g id="xtick_5"><use xlink:href="#me2dd559768" id="line2d_5" x="368.027" y="266.112" style="fill:gray;stroke:gray;stroke-width:.8"/><g id="text_5" style="fill:gray" transform="matrix(.1 0 0 -.1 355.303 280.71)"><defs><path id="DejaVuSans-32" d="M1228 531h2203V0H469v531q359 372 979 998 621 627 780 809 303 340 423 576 121 236 121 464 0 372-261 606-261 235-680 235-297 0-627-103-329-103-704-313v638q381 153 712 231 332 78 607 78 725 0 1156-363 431-362 431-968 0-288-108-546-107-257-392-607-78-91-497-524-418-433-1181-1211z" transform="scale(.01563)"/></defs><use xlink:href="#DejaVuSans-32"/><use xlink:href="#DejaVuSans-30" x="63.623"/><use xlink:href="#DejaVuSans-30" x="127.246"/><use xlink:href="#DejaVuSans-30" x="190.869"/></g></g><g id="xtick_6"><use xlink:href="#me2dd559768" id="line2d_6" x="437.777" y="266.112" style="fill:gray;stroke:gray;stroke-width:.8"/><g id="text_6" style="fill:gray" transform="matrix(.1 0 0 -.1 425.053 280.71)"><use xlink:href="#DejaVuSans-32"/><use xlink:href="#DejaVuSans-35" x="63.623"/><use xlink:href="#DejaVuSans-30" x="127.246"/><use xlink:href="#DejaVuSans-30" x="190.869"/></g></g><g id="xtick_7"><use xlink:href="#me2dd559768" id="line2d_7" x="507.527" y="266.112" style="fill:gray;stroke:gray;stroke-width:.8"/><g id="text_7" style="fill:gray" transform="matrix(.1 0 0 -.1 494.803 280.71)"><defs><path id="DejaVuSans-33" d="M2597 2516q453-97 707-404 255-306 255-756 0-690-475-1069Q2609-91 1734-91q-293 0-604 58T488 141v609q262-153 574-231 313-78 654-78 593 0 904 234t311 681q0 413-289 645-289 233-804 233h-544v519h569q465 0 712 186t247 536q0 359-255 551-254 193-729 193-260 0-557-57-297-56-653-174v562q360 100 674 150t592 50q719 0 1137-327 419-326 419-882 0-388-222-655t-631-370z" transform="scale(.01563)"/></defs><use xlink:href="#DejaVuSans-33"/><use xlink:href="#DejaVuSans-30" x="63.623"/><use xlink:href="#DejaVuSans-30" x="127.246"/><use xlink:href="#DejaVuSans-30" x="190.869"/></g></g><g id="xtick_8"><use xlink:href="#me2dd559768" id="line2d_8" x="577.278" y="266.112" style="fill:gray;stroke:gray;stroke-width:.8"/><g id="text_8" style="fill:gray" transform="matrix(.1 0 0 -.1 564.553 280.71)"><use xlink:href="#DejaVuSans-33"/><use xlink:href="#DejaVuSans-35" x="63.623"/><use xlink:href="#DejaVuSans-30" x="127.246"/><use xlink:href="#DejaVuSans-30" x="190.869"/></g></g><g id="xtick_9"><use xlink:href="#me2dd559768" id="line2d_9" x="647.028" y="266.112" style="fill:gray;stroke:gray;stroke-width:.8"/><g id="text_9" style="fill:gray" transform="matrix(.1 0 0 -.1 634.303 280.71)"><defs><path id="DejaVuSans-34" d="M2419 4116 825 1625h1594v2491zm-166 550h794V1625h666v-525h-666V0h-628v1100H313v609l1940 2957z" transform="scale(.01563)"/></defs><use xlink:href="#DejaVuSans-34"/><use xlink:href="#DejaVuSans-30" x="63.623"/><use xlink:href="#DejaVuSans-30" x="127.246"/><use xlink:href="#DejaVuSans-30" x="190.869"/></g></g></g><g id="matplotlib.axis_2"><g id="ytick_1"><g id="line2d_10"><defs><path id="m028dbbf5ad" d="M0 0h-3.5" style="stroke:gray;stroke-width:.8"/></defs><use xlink:href="#m028dbbf5ad" x="61.127" y="234.116" style="fill:gray;stroke:gray;stroke-width:.8"/></g><g id="text_10" style="fill:gray" transform="matrix(.16 0 0 -.16 0 240.195)"><defs><path id="DejaVuSans-2212" d="M678 2272h4006v-531H678v531z" transform="scale(.01563)"/></defs><use xlink:href="#DejaVuSans-2212"/><use xlink:href="#DejaVuSans-34" x="83.789"/><use xlink:href="#DejaVuSans-30" x="147.412"/><use xlink:href="#DejaVuSans-30" x="211.035"/><use xlink:href="#DejaVuSans-30" x="274.658"/></g></g><g id="ytick_2"><use xlink:href="#m028dbbf5ad" id="line2d_11" x="61.127" y="181.957" style="fill:gray;stroke:gray;stroke-width:.8"/><g id="text_11" style="fill:gray" transform="matrix(.16 0 0 -.16 0 188.036)"><use xlink:href="#DejaVuSans-2212"/><use xlink:href="#DejaVuSans-32" x="83.789"/><use xlink:href="#DejaVuSans-30" x="147.412"/><use xlink:href="#DejaVuSans-30" x="211.035"/><use xlink:href="#DejaVuSans-30" x="274.658"/></g></g><g id="ytick_3"><use xlink:href="#m028dbbf5ad" id="line2d_12" x="61.127" y="129.798" style="fill:gray;stroke:gray;stroke-width:.8"/><use xlink:href="#DejaVuSans-30" id="text_12" style="fill:gray" transform="matrix(.16 0 0 -.16 43.947 135.877)"/></g><g id="ytick_4"><use xlink:href="#m028dbbf5ad" id="line2d_13" x="61.127" y="77.64" style="fill:gray;stroke:gray;stroke-width:.8"/><g id="text_13" style="fill:gray" transform="matrix(.16 0 0 -.16 13.408 83.718)"><use xlink:href="#DejaVuSans-32"/><use xlink:href="#DejaVuSans-30" x="63.623"/><use xlink:href="#DejaVuSans-30" x="127.246"/><use xlink:href="#DejaVuSans-30" x="190.869"/></g></g><g id="ytick_5"><use xlink:href="#m028dbbf5ad" id="line2d_14" x="61.127" y="25.481" style="fill:gray;stroke:gray;stroke-width:.8"/><g id="text_14" style="fill:gray" transform="matrix(.16 0 0 -.16 13.408 31.56)"><use xlink:href="#DejaVuSans-34"/><use xlink:href="#DejaVuSans-30" x="63.623"/><use xlink:href="#DejaVuSans-30" x="127.246"/><use xlink:href="#DejaVuSans-30" x="190.869"/></g></g></g><path id="line2d_15" d="m89.028 129.791 1.973.025.846-.04.846.048.846-.056.282.062.282-.065.282.069.282-.073.282.076.282-.08.282.085.282-.09.282.096.281-.102.282.109.282-.117.282.126.282-.137.282.15.282-.164.282.181.282-.203.282.228.282-.25.564.54.282 26.466.282-2.937.282-6.702.282-9.994.282-2.708.282 4.275.282-1.882.282-10.201.282-16.528.282-7.584.282-1.58.282-9.198.281-4.924.846 29.87.282 2.188.282.71.282 10.522.282-2.04.282-23.355.282-2.373.282 17.803.282 1.164.282 3.564.564 45.132.282-3.197.846-33.576.564-14.654.282 1.366.564 27.699.282 1.525.282.113.281-.59.564-8.573.282 8.236.282 15.895.282 2.64.564-24.977.282-7.26.564-38.066.282 7.66.282 2.628.282-11.72.282 9.002.282 22.37.282-.042.282-7.284.282 4.414.282-1.36.282-3.243.564 23.323.282 2.886.282.224.281-3.578.282-5.287.282-1.41.282 2.78.564 22.001.282-2.16.282-7.662.282-2.197.282-7.341.282-12.924.282-3.482.282 3.061.282-1.325.282.406.564 16.31.564 34.088.282-6.972.282-25.33.282-3.571.282 7.364.564-34.761.281-.184.282-.496.282-7.36.282-.463.282 2.086.564-6.677.282.173.282 4.825.282 10.921.282 4.027.564-25.178.282.526.282-3.78.282-6.95.282 3.454.282-1.423.282-11.606.282-.891.282 2.109.282-10.253.282 2.707.564 45.589.282.595.563 7.502.846-41.152.282 2.29.282 5.19.282 15.488.564 59.771.282 11.04.282-9.057.564-31.015.282-20.527.282-10.427.564 4.417.282 4.79.282 10.82.282 2.999.282-3.917.282-.772.282-4.14.282-.91.563 25 .846-35.712.564-54.725.282-3.802.846 27.205.282.563.282 10.013.282 20.08.282 7.409.282-1.747.282 1.377.564-3.965.282.158.564-15.363.282.768.282.18.282 6.355.563 34.004.282 8.753.282 4.614.282-14.669.282-27.142.282-10.347.564 14.718.282 1.009.282 5.503.282 11.682.282 5.859.282-3.101.282 1.364.282 6.718.282.186.282-.884.282 8.104.282 4.204.564-21.984.564-9.767.282-2.16.563 12.964.564-2.739.282 2.485.846 20.056.282 6.454.282 10.41.282-.63.564-42.185.282.214.282-3.96.282-17.163.282 7.411.282 37.88.282 20.279.282-4.873.564 12.288.564-59.098.282 2.933.282 8.969.281-9.05.282-.163.282 15.072.282 1.129.282-7.69.564 24.21.282-6.231.282-9.9.282 1.762.282.591.846-19.63.282-9.169.282-3.376.282 4.435 1.128 37.77.282 1.22.282-6.021.564-15.6.282-5.892.281-1.086.282 3.652.282.866.282.348.564 13.12.282 3.246.282 10.092.282 15.47.282 6.446.282-.566.282-.269.282-12.064.282-25.647.282-15.314.564 8.047.564-6.18.282-.082.282-6.692.564-25.437.282 1.567.563 6.912.564 14.084.282-1.759.282-10.823.282-4.023.564 40.618.282 4.987.282 1.853.282 14.395.282 6.029.564-23.89.282-.396.282 1.5.564-7.64.564 14.512.282-4.642.282-8.769.282-1.484.282-3.529.282-10.631.281-4.358.564 31.405.282-2.155.282-9.333.282 6.202.282 1.608.282-14.31.282 1.892.282 24.093.282 14.309.564-4.989.282 2.017.282-7.56.564-33.022.282 1.606.282-2.147.282-3.61.282 5.58.282-1.694.282-15.509.282-7.986.564 7.174.281 1.413.564 8.321.282-.714.282 2.337.282 1.054.282-7.59.282-1.849.564 22.103.282 3.653.282 5.494.282-2.375.282-9.999.846-13.985.282 9.986 1.128 59.712.282 1.458.282-6.118.563-27.93.282 10.134.282 4.089.564-35.965.282 3.13.564-14.276.282 7.765.282-1.06.282-16.68.282-1.393.282 15.196.282 1.222.282-13.822.282-7.442.282 2.643.564 7.2.282 2.281.282 6.336.282 9.044.282 3.07 1.127-13.864.282 3.692.282 8.405.564 5.803.282 9.718.282.819.282-11.547.282-1.008.282 4.003.564-26.064.564 28.45.282-3.726.282-8.533.282 1.622.564 17.382.282-2.752.282-8.646.282-4.582.282-1.32.845-7.272.282 1.23.282 1.962.282.023.282-5.099.564-26.297.282 4.879.282 13.823.282 5.425.282 7.768.282 14.747.282-1.035.282-15.178.282-4.762.282 3.29.282-3.352.282-5.338.282.896.564 11.857.282.3.564-10.73.563-12.389.282 9.273.564 32.315.282 3.165.564 20.154.282-13.062.282-19.508.282 1.894.282 12.431.282 3.496.282-2.297.846-11.89.846-21.662.282-.59.564 10.528.282-9.778.282-15.067.845-18.273.564 27.618.282 1.368.282-.818.282-1.28.282-2.988.564 3.772.282-3.07.282-1.09.282 7.13.564 27.476.282-.89.282-3.462.282.668.282 1.88.564 31.11.282-2.272.282-4.863.282 2.258.282-21.71.282-31.269.281 1.828.282 18.653.282 8.762.282 4.866.282-1.553.564-15.007.564-20.925.282 7.653.282 2.531.282-6.559.282 3.903.282 1.319.564-21.251.282-.002.282 2.095.846 20.431.564 30.545.282-1.663.282-3.839.281-9.365.564-32.035.282 1.451.846 13.916.282-.823.564-16.881.282 2.073.564 36.453.282-.634.564-5.01.564-30.731.282 1.331.282 10.88.282.166.282-3.641.564 22.01.282-2.256.282-4.303.281 1.775.282-7.176.282-13.163.282-2.728.282.022 1.128-34.32.282 4.33.564 14.88.282 5.565.564 18.206.282-2.549.282-3.816.282 2.06.282.696.282-3.768.282-.502.564 7.67.282-2.249.282-4.193.281-2.229.282.483.282 7.884.846 54.207.282 25.32.282 4.529.564-28.281.564-8.556.564 1.095.282-2.635.282.41.282-7.682.282-18.333.282-10.046.282-.082.282-3.462.846-30.852.845-40.834.282 1.21.282 2.498.282 10.478.282 17.648.282 10.099.282 2.974.564 7.776.564-2.04.282 5.335.282 7.784.282 1.83.282.735.282 4.053.282-.622.282-3.938.282 2.518.846 36.214.282 1.588.282 5.308.282-8.776.281-21.396.282 6.04.282 23.88.282-.556.282-6.367.282 12.835.282 5.631.564-22.358.282-2.848.282-13.338.282-21.815.282-6.81.282 7.726.282-5.975.282-15.072.282 6.223.282 16.858.564 11.9.282 11.979.282-6.442.282-17.363.282-3.043.282 1.848.281-4.753.282 3.817.282 7.484.282-3.518.282 3.53.282 13.823.282-1.86.282-7.04.282 6.255.282 1.353.282.152.564 39.736.282-.144.282.711.282 2.91.564-24.082.282 10.17.564 53.153.282 2.05.282.868.282 2.016.282-17.86 1.41-127.917.281-10.366.564-39.514.282-9.998.282.893.564 39.97.564 45.247.564 19.705.564 44.887.282 3.64.282.186.282-2.307.564-12.801.282-17.021.282-25.998.282-6.437.281 4.15.282-8.635.282 3.017.564 41.804.282 10.557.282 15.643.282.002.282-8.563.282 7.384.282 3.465.846-38.584.282-12.26.846-12.769.564 23.837.282-7.094.564 4.091.564-53.91.281.739.282 6.694.282 3.325.282 4.806.282-.235.282-3.008.564-2.912.282 1.269.282 2.587.282-.402.282 6.063.564 22.578.846 12.379.282-7.074.282-15.154.282-5.835.564 20.833.282 1.284.564 22.223.563-19.522.564 17.04.282 1.505.564 18.733.282.824.564 6.464.282-15.305.282-22.552.282-10.404.282-4.64.846-25.68.282-6.187.282.192.282 9.962 1.128 61.51.282 5.691.563-18.624.282-8.846.282-4.746.564 24.137.282-9.349 1.128-90.181.282-1.339.282 11.934.846 57.328.282 11.863.282 1.159.282-8.72.282 1.06.282 18.516.564 50.078.282 2.988.564-25.894.845-102.747.282-2.62.282-16.615.282-1.053.282 24.322.282 9.096.282-5.92.282 9.298.282 15.743.282 9.18.564 33.541.282 1.979.564-26.595.564 19.203.282-1.34.282-.769.282 7.927.282-.857.282-12.854.282-5.54.282 2.478.563-8.352.564 15.744.564-3.497.282-.947.282-7.526.282-4.048.564 20.048.282 2.183.282-.495.282 3.2.846 16.544.282 12.619.282 1.156.282-16.089.282-8.53.282.095.282-26.857.282-41.625.282-5.795.281 17.95.282-.95.282-1.466.282 20.738.282 11.58.564-22.351.282-4.2.282-9.119.282-4.416 1.128 17.405.282-.95.282 5.206.282 16.309.282 3.877.282-9.504.282 7.191.282 20.426.282 6.35.282-.533.282-1.613.564-35.61.281 12.445.282 5.511.282-18.417.282-4.167.282 7.487.564-23.545.282-.8.564-16.61.282-.553.282 2.61.564 14.188.282-4.57.282-2.17.282 7.114.282-3.942.282-10.726.282 3.403.282 8.88.282 4.355.564 16.313.282-.879.281 3.913.282 7.316.282.367.282 2.747.282-.818.282-16.468.282-4.393.282 17.083.564 12.194.282 30.243.282 10.282.282-15.633.282 9.506.282 13.336.564-37.846.564 26.825.282-.254.282-7.86.564-30.18 1.127-41.3.282-6.559.564 35.181.282-3.189.282-6.439.282-1.927.282-5.678.282-2.762.282-1.559.282-4.282.282 9.601.282 18.04.282 2.444.282-1.954.282 10.005.282 3.268.282-8.646.282.667.282 7.237.282-3.707.564-18.865.282-7.673.282-2.45.281 7.746 1.128 63.213.282 4.848.564-33.364.282 11.193.282 21.214.282 2.386.846-30.962.564-22.534.846-20.412.282 4.676.564 22.675.282-6.363.564-23.375.563-18.675.282 5.027.282 7.045.282-2.154.282-4.235.282-1.319.282 6.701.282 15.367.282 9.106.282 2.134.282 7.193.282 4.22.564-6.749.282-9.558.282-2.557.564 38.413.282 6.033.282 10.112.282 2.792.282-9.241.282 4.843.282 12.17.563-1.718.282 2.217.282-10.17.564-33.678.282-6.67.282-3.287.282-15.294.282-25.37.282-12.41.282 1.095.564-6 .282 9.75.282 18.432.282 10.615.282 2.064.282 8.755.282 12.306.282.836.282-2.637.282 2.983.282-3.792.282-6.96.563 7.752.282-.972.282 5.62.282 3.324.564-30.25.282-1.931 1.41 82.728.282-7.262.282-30.6.282-6.59.282 18.233.282-1.16.282-20.168.282-4.06.282 2.26.282-16.333.282-7.218.282 21.607.282 9.103.282-16.29.281-4.483.282 2.313.846-58.782.282 2.67.282 1.083.282 10.113.564 50.186.282-3.224.282-5.108.282 7.499.282-11.03.282-28.014.282-1.46.282 15.545.564-8.066.282 13.054.282.794.282-12.95.282 9.984.282 30.14.282 15.68.281.74.564 12.566.564-36.587.282 25.342.282 37.357.282 7.631.282-2.45.282-4.341.564-49.82.282-3.528.564-9.408.282 5.927.282-9.335.282-18.987.282-6.56.564-20.796.564 14.004.282-10.183.282-5.113.563 14.323.282-1.234.282-4.975.282-.52.282 8.08.846 37.681.846 11.822.564-.17.564 13.44.282-3.736.282-.883.282.138.282-8.883.282-2.955.564 24.068.282 4.396.282-3.46.563-46.135.564-17.755.282-8.51.564 38.507.282-2.206.282-6.564.282-3.939.282-20.923.564-68.816.282.294.846 52.065.282 18.852.282 7.19.564-7.354.282.496.564 35.492.282.158.282-.789.282 7.502.281-4.739.282-10.144.282.62.282 8.284.564 30.606.846-25.555.564-35.783.564 17.645.282-1.235.564 27.044.564-12.5.282 6.119.282-3.348.564-24.402.282-11.323.845-53.285.282-1.69.564 13.841.282 7.208.564 26.588.564 8.408.282.914.282-3.577.282-1.258.282 2.95.282-.261.282-3.951.282 1.303.282 4.634.282-5.154.282-7.695.282 12.281.564 52.17.564 29.14.282 4.105.563-24.358.282-1.258.282.316.282-1.528.282 1.198.282.084.282-5.23.846-28.77.282-14.914.564-42.854.282-.588.282-10.438.282-20.333.282.135.282 16.587.282 7.467.282 4.007.846 42.773.282 3.582.563 9.336.282 2.482.564 2.497.282 2.849.282-.538.846-16.265.282-7.992.282 10.392.564 40.072.282 16.53.282 28.48.282 13.607.564-33.394.282 1.242.564 25.028.282-.396.282-3.373.282.812.282-10.896.563-46.407.282-8.473 1.128-57.875.282-26.924.282-14.586.282-4.83.564-13.722.282 4.256.564 22.932.282 6.679.282 14.765.282 22.374.282 11.012.282 5.706.282 18.17.282 3.507.564-64.343.845 4.371.846 105.978.282 3.872.282 9.557.282-4.675.282-16.165.282-.621.564 22.564.282-1.76.564-6.2.282-17.325.282-24.535.282-12.027.282-5.875.282-2.095.282 14.86.282 6.12.564-52.228.282-6.948.563-34.258.282 18.088.564 42.608.564 36.016.282-11.11.564-46.136.282-2.954.282 1.057.564-16.77.282 2.04.282 4.977.282 2.673.282 5.747.564 20.139.282 15.178.564 42.274.282 6.48.282-2.777.282 6.545.281 17.586.282 9.705.564-6.796.282-1.2.282-16.252.282-24.36.282-5.149.282 4.074.564-33.476.282-4.76.282-19.312.564-63.714.282-.996.282 9.514.846 52.012.282 10.654.282 6.366.282 1.579.564 22.18.282 3.012.281 6.528.282 12.243.846 21.458.282-18.92.282-28.428.282-10.798.282-3.902.282-6.948.282 2.694.282 8.916.282 4.443.282 1.628.282-8.884.282-20.615.282-.119.282 26.952.282 13.635.282-1.749.564 45.357.282-7.231.282-16.102.282-1.847.281-13.97.564-56.016 1.128-43.849.282-.77.282.138.282 8.299 1.128 59.651.564-2.31.282 10.718.282-9.681.282-24.843.282 2.206.282 10.663.282-9.781.282-.734.282 17.11.563 14.637.564 49.736.564 16.078.282 5.851.282-10.79.282-22.668.282-.71.564 51.52.282-.62.564-15.332.846-38.297.846-45.613.282-4.134.282-10.755.564-31.926.282-.757.282-4.309.281-9.52.282-1.202 1.41 57.764.564 11.28.564 17.217.282 5.08.282 1.457.846-17.831.282-.99.282 4.39 1.128 67.994.282.688.564-14.39.281 4.158.282 8.947.282 4.926.282 1.96.282-.487.282-4.347.282-2.022.282-3.81.846-67.715.282-12.655.282-27.323.282-13.091.282 2.798.282-15.945.282-28.455.282-9.27.564 11.995.282-2.183.282.282.846 26.474.563 37.822.282 3.072.282 5.974.282 10.633.564 3.288.282 4.188.282-.911.282 6.466.564 39.456.564 30.086.282 1.775.282-14.364.282-8.648.282 4.95.564 29.642.282 1.608.282-8.123.282.814.282-3.127.564-29.699.281-6.156.282-17.905.282-10.272.282-.455.564-33.857.282-6.09.564-39.103.282 2.09.564 17.708.282 6.518.564-18.256.564 31.319.282-.019.282 5.677.282 9.298.564-4.685.564 10.961.282 1.862.281 9.78.564 45.22.564 15.517.282 4.902.564-17.787.282 15.299.282 22.705.282 7.843.564-7.72.282-11.852.282-26.958.282-15.93.282 9.56.282-.196.564-36.31.282-15.541.564-55.567.282-11.978.282-4.508.563 20.315.282-7.057.282-2.854.282 7.525.282.978.282-1.918.282 5.251.564 14.9.282 7.23.564 29.084.282 1.41.282-2.175.564 15.15.282 4.242 1.128 54.295.282 10.128.282-13.68.282-24.17.282 6.104.281 29.944.282 17.649.564 9.407.282-4.255 2.256-129.599.564-46.093.282-12.41.282-5.666.282-2.267.846 18.142.564 11.952.282-.112.282 5.948.563 15.976.564 9.512.282 2.601.282 4.735.282 2.476.282.665.282 8.414.564 39.267.564 44.523.564 26.51.282-7.658.282-19.289.282 8.682.282 33.89.282 17.13.282-2.46.282 3.799.282-.419 1.127-94.724.564-47.052.564-39.078.282-27.208.282-15.406.282-.924.282 3.816.564 14.042.282 3.44.564 10.339.282 1.186.282 8.204.282 13.636.282 2.75.282-.396 1.128 28.645.564-7.09.281 3.932.282 7.238.846 52.657.282 19.083.282 26.718.282-2.77.282-15.023.282 8.11.282 13.394.282 3.89.564 10.477.282-.648.282-3.63.282-19.64.564-65.031.846-54.834.846-50.609.281-2.661.564 12.247.282 3.632.564 12.028.282 2.965.282 8.541.282 14.066.282 4.565.282-4.488.282 3.837.282 10.693.282 3.69.282-1.222.282.825.282-.928.282-1.645.282 5.491.282 17.265.564 75.45.282 35.794.282 11.992.282-12.3.563-37.076.282 3.348.564 18.885.282 5.427.282-.77.282-8.754.282-18.193.564-49.177.282-13.309.282-21.084.564-58.548.564-36.647.282-5.59.282-2.753.282-4.591.282 6.537.564 27.656.282 10.84.564 27 .281 4.047.282 2.139.282 6.328.564 26.356.282 1.089.846-25.591.282 5.49.564 47.825.564 15.576.282 6.665.282-11.077.282-15.465.282 8.938.282 22.306.564 19.932.282 3.443.282-10.718.564-27.357.563-16.862.564-13.676.282-9.71.564-30.347.846-10.738.282 17.906.282 26.476.282 4.473.282-8.067.282-1.98.282-3.502.564-22.337.282 3.327.282 7.66.282 1.282.282 8.358.282 19.716.282 6.657.282-8.075.282 4.474.281 15.719.282 4.742.282-4.5.282 4.41.282 12.717.282 1.393.282-7.442.282 15.655.282 36.484.282 17.596.282-7.001.282-9.863.282-14.954.846-74.596.282-9.728.282-.831.282-4.093.282-6.438.282-9.195.564-35.331.564-6.526.281-.248.282 9.195.564 7.61.564 35.266.282-3.317.282 3.684.282 8.67.564-23.886.282 5.174.282 7.538.282.629.282 2.715.282.76.282 3.313.846 60.305.564 16.102.282-10.72.282-23.857.282-1.812.563 32.302.564 11.948.282-3.526 1.128-53.491.282-13.18.282-6.98.282-11.17.846-43.878.564-11.076.282 5.62.564 47.839.282 1.356.282 2.534.282 7.766.282-6.236.282-12.492.282-.992.845 16.198.282-.431.282-.07.282 2.43.282-1.038.282 4.52 1.128 71.54.282 4.183.282-14.76.282-3.392.564 17.839.564 18.828.282-7.655.564-30.65.564-26.322.845-24.153.564-32.3.564-34.312.282-3.37.846 34.378.282 6.645.282 2.561.282-6.508.282-1.07.282 4.718.564-10.637.282 4.63.282.506.282-.805.282 3.548.282-6.079.282-.737.564 46.858.282 12.639.563 43.898.282-1.498.564-16.763.282-11.317.564 4.7.282-11.683.282-4.201.282 8.532.282 3.037.564-3.289.282-5.646.564-22.167.282-11.208.282-6.127.282-10.434.564-33.307.282-5.463.282 1.657 1.127 22.398.282 1.255.282-.207.282 5.675.282 2.87.282.613.564 17.534.564-11.553.282-.724.282-9.831.282 2.478.564 53.752.564 21.461.282 3.733.282-11.48.282-2.599.846 29.281.282-6.508h0" clip-path="url(#pdfc01b9dec)" style="fill:none;stroke:#1f77b4;stroke-width:1.5;stroke-linecap:square"/><path id="patch_3" d="M61.127 266.112V0" style="fill:none;stroke:gray;stroke-width:.8;stroke-linejoin:miter;stroke-linecap:square"/><path id="patch_4" d="M674.928 266.112V0" style="fill:none;stroke:#000;stroke-width:.8;stroke-linejoin:miter;stroke-linecap:square"/><path id="patch_5" d="M61.127 266.112h613.8" style="fill:none;stroke:gray;stroke-width:.8;stroke-linejoin:miter;stroke-linecap:square"/><path id="patch_6" d="M61.127 0h613.8" style="fill:none;stroke:#000;stroke-width:.8;stroke-linejoin:miter;stroke-linecap:square"/></g></g><defs><clipPath id="pdfc01b9dec"><path d="M61.127 0h613.8v266.112h-613.8z"/></clipPath></defs></svg>