<svg xmlns="http://www.w3.org/2000/svg" xmlns:xlink="http://www.w3.org/1999/xlink" width="913.477" height="377.053" viewBox="0 0 685.107 282.79"><defs><style>*{stroke-linejoin:round;stroke-linecap:butt}</style></defs><g id="figure_1"><path id="patch_1" d="M0 282.79h685.107V0H0v282.79z" style="fill:none"/><g id="axes_1"><path id="patch_2" d="M71.308 266.112h613.8V0h-613.8v266.112z" style="fill:none"/><g id="matplotlib.axis_1"><g id="xtick_1"><g id="line2d_1"><defs><path id="m9c70569cae" d="M0 0v3.5" style="stroke:gray;stroke-width:.8"/></defs><use xlink:href="#m9c70569cae" x="99.207" y="266.112" style="fill:gray;stroke:gray;stroke-width:.8"/></g><g id="text_1" style="fill:gray" transform="matrix(.1 0 0 -.1 96.026 280.71)"><defs><path id="DejaVuSans-30" d="M2034 4250q-487 0-733-480-245-479-245-1442 0-959 245-1439 246-480 733-480 491 0 736 480 246 480 246 1439 0 963-246 1442-245 480-736 480zm0 500q785 0 1199-621 414-620 414-1801 0-1178-414-1799Q2819-91 2034-91q-784 0-1198 620-414 621-414 1799 0 1181 414 1801 414 621 1198 621z" transform="scale(.01563)"/></defs><use xlink:href="#DejaVuSans-30"/></g></g><g id="xtick_2"><use xlink:href="#m9c70569cae" id="line2d_2" x="168.958" y="266.112" style="fill:gray;stroke:gray;stroke-width:.8"/><g id="text_2" style="fill:gray" transform="matrix(.1 0 0 -.1 159.414 280.71)"><defs><path id="DejaVuSans-35" d="M691 4666h2478v-532H1269V2991q137 47 274 70 138 23 276 23 781 0 1237-428 457-428 457-1159 0-753-469-1171Q2575-91 1722-91q-294 0-599 50Q819 9 494 109v635q281-153 581-228t634-75q541 0 856 284 316 284 316 772 0 487-316 771-315 285-856 285-253 0-505-56-251-56-513-175v2344z" transform="scale(.01563)"/></defs><use xlink:href="#DejaVuSans-35"/><use xlink:href="#DejaVuSans-30" x="63.623"/><use xlink:href="#DejaVuSans-30" x="127.246"/></g></g><g id="xtick_3"><use xlink:href="#m9c70569cae" id="line2d_3" x="238.708" y="266.112" style="fill:gray;stroke:gray;stroke-width:.8"/><g id="text_3" style="fill:gray" transform="matrix(.1 0 0 -.1 225.982 280.71)"><defs><path id="DejaVuSans-31" d="M794 531h1031v3560L703 3866v575l1116 225h631V531h1031V0H794v531z" transform="scale(.01563)"/></defs><use xlink:href="#DejaVuSans-31"/><use xlink:href="#DejaVuSans-30" x="63.623"/><use xlink:href="#DejaVuSans-30" x="127.246"/><use xlink:href="#DejaVuSans-30" x="190.869"/></g></g><g id="xtick_4"><use xlink:href="#m9c70569cae" id="line2d_4" x="308.457" y="266.112" style="fill:gray;stroke:gray;stroke-width:.8"/><g id="text_4" style="fill:gray" transform="matrix(.1 0 0 -.1 295.733 280.71)"><use xlink:href="#DejaVuSans-31"/><use xlink:href="#DejaVuSans-35" x="63.623"/><use xlink:href="#DejaVuSans-30" x="127.246"/><use xlink:href="#DejaVuSans-30" x="190.869"/></g></g><g id="xtick_5"><use xlink:href="#m9c70569cae" id="line2d_5" x="378.207" y="266.112" style="fill:gray;stroke:gray;stroke-width:.8"/><g id="text_5" style="fill:gray" transform="matrix(.1 0 0 -.1 365.483 280.71)"><defs><path id="DejaVuSans-32" d="M1228 531h2203V0H469v531q359 372 979 998 621 627 780 809 303 340 423 576 121 236 121 464 0 372-261 606-261 235-680 235-297 0-627-103-329-103-704-313v638q381 153 712 231 332 78 607 78 725 0 1156-363 431-362 431-968 0-288-108-546-107-257-392-607-78-91-497-524-418-433-1181-1211z" transform="scale(.01563)"/></defs><use xlink:href="#DejaVuSans-32"/><use xlink:href="#DejaVuSans-30" x="63.623"/><use xlink:href="#DejaVuSans-30" x="127.246"/><use xlink:href="#DejaVuSans-30" x="190.869"/></g></g><g id="xtick_6"><use xlink:href="#m9c70569cae" id="line2d_6" x="447.957" y="266.112" style="fill:gray;stroke:gray;stroke-width:.8"/><g id="text_6" style="fill:gray" transform="matrix(.1 0 0 -.1 435.233 280.71)"><use xlink:href="#DejaVuSans-32"/><use xlink:href="#DejaVuSans-35" x="63.623"/><use xlink:href="#DejaVuSans-30" x="127.246"/><use xlink:href="#DejaVuSans-30" x="190.869"/></g></g><g id="xtick_7"><use xlink:href="#m9c70569cae" id="line2d_7" x="517.707" y="266.112" style="fill:gray;stroke:gray;stroke-width:.8"/><g id="text_7" style="fill:gray" transform="matrix(.1 0 0 -.1 504.983 280.71)"><defs><path id="DejaVuSans-33" d="M2597 2516q453-97 707-404 255-306 255-756 0-690-475-1069Q2609-91 1734-91q-293 0-604 58T488 141v609q262-153 574-231 313-78 654-78 593 0 904 234t311 681q0 413-289 645-289 233-804 233h-544v519h569q465 0 712 186t247 536q0 359-255 551-254 193-729 193-260 0-557-57-297-56-653-174v562q360 100 674 150t592 50q719 0 1137-327 419-326 419-882 0-388-222-655t-631-370z" transform="scale(.01563)"/></defs><use xlink:href="#DejaVuSans-33"/><use xlink:href="#DejaVuSans-30" x="63.623"/><use xlink:href="#DejaVuSans-30" x="127.246"/><use xlink:href="#DejaVuSans-30" x="190.869"/></g></g><g id="xtick_8"><use xlink:href="#m9c70569cae" id="line2d_8" x="587.457" y="266.112" style="fill:gray;stroke:gray;stroke-width:.8"/><g id="text_8" style="fill:gray" transform="matrix(.1 0 0 -.1 574.732 280.71)"><use xlink:href="#DejaVuSans-33"/><use xlink:href="#DejaVuSans-35" x="63.623"/><use xlink:href="#DejaVuSans-30" x="127.246"/><use xlink:href="#DejaVuSans-30" x="190.869"/></g></g><g id="xtick_9"><use xlink:href="#m9c70569cae" id="line2d_9" x="657.207" y="266.112" style="fill:gray;stroke:gray;stroke-width:.8"/><g id="text_9" style="fill:gray" transform="matrix(.1 0 0 -.1 644.482 280.71)"><defs><path id="DejaVuSans-34" d="M2419 4116 825 1625h1594v2491zm-166 550h794V1625h666v-525h-666V0h-628v1100H313v609l1940 2957z" transform="scale(.01563)"/></defs><use xlink:href="#DejaVuSans-34"/><use xlink:href="#DejaVuSans-30" x="63.623"/><use xlink:href="#DejaVuSans-30" x="127.246"/><use xlink:href="#DejaVuSans-30" x="190.869"/></g></g></g><g id="matplotlib.axis_2"><g id="ytick_1"><g id="line2d_10"><defs><path id="md2ae9e4e13" d="M0 0h-3.5" style="stroke:gray;stroke-width:.8"/></defs><use xlink:href="#md2ae9e4e13" x="71.308" y="237.112" style="fill:gray;stroke:gray;stroke-width:.8"/></g><g id="text_10" style="fill:gray" transform="matrix(.16 0 0 -.16 0 243.19)"><defs><path id="DejaVuSans-2212" d="M678 2272h4006v-531H678v531z" transform="scale(.01563)"/></defs><use xlink:href="#DejaVuSans-2212"/><use xlink:href="#DejaVuSans-31" x="83.789"/><use xlink:href="#DejaVuSans-30" x="147.412"/><use xlink:href="#DejaVuSans-30" x="211.035"/><use xlink:href="#DejaVuSans-30" x="274.658"/><use xlink:href="#DejaVuSans-30" x="338.281"/></g></g><g id="ytick_2"><use xlink:href="#md2ae9e4e13" id="line2d_11" x="71.308" y="196.762" style="fill:gray;stroke:gray;stroke-width:.8"/><g id="text_11" style="fill:gray" transform="matrix(.16 0 0 -.16 10.18 202.84)"><use xlink:href="#DejaVuSans-2212"/><use xlink:href="#DejaVuSans-35" x="83.789"/><use xlink:href="#DejaVuSans-30" x="147.412"/><use xlink:href="#DejaVuSans-30" x="211.035"/><use xlink:href="#DejaVuSans-30" x="274.658"/></g></g><g id="ytick_3"><use xlink:href="#md2ae9e4e13" id="line2d_12" x="71.308" y="156.412" style="fill:gray;stroke:gray;stroke-width:.8"/><use xlink:href="#DejaVuSans-30" id="text_12" style="fill:gray" transform="matrix(.16 0 0 -.16 54.127 162.49)"/></g><g id="ytick_4"><use xlink:href="#md2ae9e4e13" id="line2d_13" x="71.308" y="116.062" style="fill:gray;stroke:gray;stroke-width:.8"/><g id="text_13" style="fill:gray" transform="matrix(.16 0 0 -.16 23.587 122.14)"><use xlink:href="#DejaVuSans-35"/><use xlink:href="#DejaVuSans-30" x="63.623"/><use xlink:href="#DejaVuSans-30" x="127.246"/><use xlink:href="#DejaVuSans-30" x="190.869"/></g></g><g id="ytick_5"><use xlink:href="#md2ae9e4e13" id="line2d_14" x="71.308" y="75.712" style="fill:gray;stroke:gray;stroke-width:.8"/><g id="text_14" style="fill:gray" transform="matrix(.16 0 0 -.16 13.408 81.79)"><use xlink:href="#DejaVuSans-31"/><use xlink:href="#DejaVuSans-30" x="63.623"/><use xlink:href="#DejaVuSans-30" x="127.246"/><use xlink:href="#DejaVuSans-30" x="190.869"/><use xlink:href="#DejaVuSans-30" x="254.492"/></g></g><g id="ytick_6"><use xlink:href="#md2ae9e4e13" id="line2d_15" x="71.308" y="35.362" style="fill:gray;stroke:gray;stroke-width:.8"/><g id="text_15" style="fill:gray" transform="matrix(.16 0 0 -.16 13.408 41.44)"><use xlink:href="#DejaVuSans-31"/><use xlink:href="#DejaVuSans-35" x="63.623"/><use xlink:href="#DejaVuSans-30" x="127.246"/><use xlink:href="#DejaVuSans-30" x="190.869"/><use xlink:href="#DejaVuSans-30" x="254.492"/></g></g></g><path id="line2d_16" d="m99.207 156.516.282-.204.282.196.282-.188.282.181.282-.175.282.17.282-.165.282.16.282-.156.282.152.282-.148.282.145.282-.143.282.14.282-.137.282.135.282-.133.282.131.282-.13.282.129.282-.127.282.126.282-.126.282.125.282-.124.281.124.282-.124.282.124.282-.125.282.126.282-.127.282.129.282-.13.282.132.282-.136.282.14.282-.144.282.148.282-.154.282.162.282-.171.282.183.282-.199.282.22.282-.248.282.288.282-.351.282.46.282-.665.282 8.068.281 4.188.282.697.564 4.738.564 5.984.846 8.579 1.41 18.183.564 12.509.564 3.896.282 3.415.282 1.07.282-5.905.282-13.83.564-49.61.845-90.021.282-15.761.282-7.167.282-2.711.282-.276.282 5.205 1.692 77.062.564 23.2.846 22.798.282 2.71.282-.333.282.157.564 3.801.564 1.073.282 1.549.281.768.282-2.959.282-5.43.282-2.789.282 1.982.282 2.99.282 1.085.282 1.814 1.128 22.055.282 2.345.564 8.75.282 1.391.282-.847.282.918.564 7.319.282 1.688.282-.428.282-3.906.282-9.518.282-16.855.563-61.934.564-63.748.564-28.257.282-6.158.282.373.564 11.95.564 17.914 1.41 67.542.564 39.054.282 11.5.282 2.901.282-.436.282 1.206.282 1.9.282-1.925.563-12.277.282-.724.564 5.557.282-.523.282-1.657.282-.761.282.542.282 1.717.846 7.535.282 6.65.564 19.631.282 2.142.282.2.564 7.01.282-1.609.282-3.676.282.361.564 7.09.282-2.044.281-8.205.282-14.874.564-50.751.846-86.518.282-12.222.282-3.323.282 2.166.564 9.35.282 8.333.846 33.103.282 9.675 1.128 59.794.564 16.86.282 5.39.282.24 1.691-22.206.282.175.846 6.807.564 11.674.282 2.71.282 1.418.846 11.637.282 1.514.846 13.726.282 1.736.564 7.036.282-.647.563-5.893.282-1.56.282-6.765.282-15.992.564-57.155.564-65.385.282-19.966.282-9.491.282-4.235.282-1.791.282 3.663 1.41 61.37.564 26.368.564 21.837.564 20.645.563 6.3.564 9.269.282.113.282-2.76.282-1.364.564 2.573.282.323.846 1.942.282.175.282 1.154.282.558.564-2.808.282-.01.282 2.586.846 14.964.282 3.049 1.41 22.178.281 1.902.282-1.241.282-2.674.282-7.691.282-17.664.564-57.267.564-67.212.282-22.323.282-11.108.282-6.233.282-3.026.282 2.782.564 14.88.846 31.47.282 11.105.564 38.21.563 35.521.564 16.215.564 7.085.282 1.266.282-.654.282-.967.282.106.282.557.282-.462.564-3.26.282-.272.282.018.282-.458.282.716.282 1.635.282-1.739.282-4.952.282-.534.564 12.577.282 1.032.282 1.477.563 9.108.282 2.132.846 12.037.282.87.282-.85.282-6.755.282-16.667.564-57.745.564-62.003.282-16.4.282-6.678.282-2.827.282-.26.282 4.68.846 26.515 1.973 83.74.282 2.61.282 1.383.846 7.047.564 2.273.564 3.14.282.243.282-.073.564 2.243h.564l.564 2.23.282-.93.282-.401.282 4.055.564 15.766.281 3.954.564 2.971 1.128 10.75.564 14.172.282-.028.282-12.679.564-60.94.846-95.44.564-30.508.282-8.821.282-5.186.282 3.677.564 23.047.282 7.35.282 12.464.845 65.33.564 20.43.564 28.3.282 5.402.282-.964.282-1.628.282.996.282 1.877.282-.09 1.128-8.467.282.131.282-1.387.282-3.54.282-1.535.282 3.781.282 5.835.282 3.006.282 1.561.563 8.91.282.517.282-2.877.282-.486 1.41 17.362.846 14.897.282.644.282-5.996.282-12.967.282-21.908 1.128-121.343.564-29.386.282-.5.845 26.837 1.128 50.787.564 11.61 1.692 66.726.282 2.688.282-2.765.282-1.61.282 1.762.282-.189.564-12.125.282-2.224.282.592.282-.927.282-1.693.282 2.065.845 20.592 1.128 7.688.564-5.202.282 4.116.564 13.938.282 1.446.282 4.146.282 7.351.282 1.838.282-10.123.282-21.711 1.41-147.011.282-13.981.282-7.243.282 1.507.563 7.982.282 8.844.846 47.832.846 31.682.846 51.221.846 13.925.282-1.676.282-6.023.282-2.855.282.447.282-.892.282-1.478.564.769.282-1.156.282-.039.281 1.566.282.3.282-.709.282 2.182.846 16.224.564 4.718 1.692 24.803.282 1.996.282-1.168.282-5.778.282-14.685.564-65.931.564-65.023.846-52.295.281-7.73.282 1.39.282 6.814.282 10.853.564 38.623.564 35.685.564 20.935.846 38.854.564 16.851.282 4.05.282-3.149.282-5.476.282-2.62.282-1.116.564-4.734.282.871.564 6.061.281-.061.282-.685.282 1.22.282 1.76.282.374.282 1.473.564 8.159.282.92.282 3 .564 11.36.282.323.282 2.077.564 12.07.564 6.984.282.599.282-5.579.282-15.13.282-28.987.846-114.318.563-40.844.282-11.897.282-3.302.282.279.282 3.697.282 14.162.846 67.24.564 23.928.564 21.195.564 23.813.282 5.363.282 7.808.282 11.12.282 6.285.282-.988.282-.39.282 3.627.282.193.564-15.629.281-.067.282 4.84.282 2.126.564-2.525.282 1.088.564 3.618.564 4.882.282-.142.282 1.71.846 21.79.282 2.562.564 14.065.282 2.113.282-3.331.282-7.005.282-17.229 1.691-179.835.282-10.82.564-9.97.282 4.307.282 15.113 1.128 82.393.564 16.384.846 34.971.564 16.664.282 8.18.282 3.14.282.102.282.821.282 1.212.282-1.99.563-13.952.282-2.629.282 1.17.282-.987.282-3.566.282.72.564 14.195.282 1.094.282-1.43.282.417.282 2.56.282 5.027 1.41 42.113.282 10.468.282 4.989.282.434.282-3.44.282-12.832.282-27.277 1.127-143.08.564-39.92.282-12.754.282-2.268.846 18.384.282 15.156.846 69.362.564 24.85 1.128 32.669.846 18.194.282 3.986.282.357.281-4.494.564-12.51.282-1.08.282-.318.282-1.92.282.074.282 5.95.282 8.911.282 5.37.282.4.282.032 1.128 11.829.564 10.445.282 3.902.564 12.36.282 1.698.564-3.85.282-7.014.282-22.253 1.127-132.11.564-38.443.282-6.087.282-2.056.282.767.282 5.749.282 11.34.564 35.94.564 33.282.564 24.796.564 32.135.564 14.529.564 9.02.282.19.563-5.14.564-3.164.846-7.193.282-.248.564 2.349.282.21.282 1.256.282 5.276.564 16.525.564 8.678.282 4.469.564 13.449.282 3.163.282.685.282 2.299.282 4.011.282 1.002.282-6.435.281-16.638.564-65.717.564-71.128.564-47.18.282-13.317.282-4.37.282 3.184.282 7.791.564 25.81 1.41 83.473 1.41 42.658.564 7.383.282-1.563.281-2.751.282 1.617.282 2.61.564-5.656.282 2.443.282 4.343.282.15.282-.418.564 9.552.282 1.411.282.257.564 6.76.282.618.282-1.215.282.491.564 7.809.564 8.927.282 8.004.564 19.932.281-4.005.282-16.633.564-53.5.846-107.59.564-37.609.282-12.828.282-3.135.282 4.531.282 6.573.282 9.848.564 37.786.846 59.012.564 22.433.564 17.71.846 19.736.281 2.976.564-1.132.282.204.282-1.662.564-5.447.564-2.655.564-4.526.282-.918.282 2.066.564 5.783.282 2.659 1.128 21.5.564 20.727.564 11.204.282 4.281.281-1.392.282-12.73.564-58.439.846-97.877.564-40.368.282-6.422.282-.114.282 1.277.282 3.187.282 7.992.564 24.565.564 38.667.564 35.383.846 22.734.564 13.536.563 5.79.846 4.611.282 2.746.282 1.531.282-.5.282-.745.282.033.282-1.49.564-9.03.282 1.655.564 10.511.282 2.129.282 6.47.564 23.647.282 4.973.282 2.802.564 10.293.282 2.65.282.598.281-1.036.282-4.988.282-12.234.282-22.572 1.41-161.061.282-16.248.282-7.007.282-.438.564 3.484.282 4.418.282 9.61.282 17.877 1.128 93.847.564 20.037.845 15.892.282 3.057.282 1.657.282.803.282-.745 1.41-10.625.282.033.282 1.475.282.274.282-1.356.282 1.13.282 7.19.564 17.93 1.41 19.14.845 13.526.282 1.704.282-3.676.282-14.91.564-61.01.846-96.671.282-23.287.282-9.5.282.238.282.44.282-1.375.282 2.174.282 7.758.282 11.418.282 16.222 1.128 83.16.564 15.924.564 10.119.281 5.691.282 3.172.282.437.564-2.063.282.857.564 6.07.282-.417.282-1.032.282.375.282-.53.282-2.354.282-.593.564 6.921.282 1.28.282.763.282 4.868.564 19.851 1.128 22.833.281 2.588.282-4.397.282-10.201.282-16.322.564-54.77.846-103.532.282-20.105.282-11.588.282-6.035.282-2.72.282-.57.282 3.702.282 10.798.846 48.083.846 67.16.564 16.734.282 5.633.281 2.405.282.741.282 2.326.564 8.108.282 1.267.282-.521.282 1.007.846 11.335 1.128 4.56.282.08.282.25.282 1.394.564 7.78 1.41 19.839.563 8.13.282 1.013.282-1.842.282-4.199.282-11.582.564-57.715.846-95.385.564-30.246.564-19.535.282-.754.564 14.8.282 11.314.564 41.045.846 64.783.282 10.45.563 10.24.564 17.135.282 4.215.846 6.668.282.011.282-.767.564-.33.282.194.282 1.717.282.774.282-3.938.282-6.013.282-1.336.846 11.186.282 3.132 1.128 17.492.282 6.724.281 3.38.282.606.282.153.282-3.772.282-14.293.564-59.868.846-95.352.564-29.114.282-6.463.282-1.296.282 2.618.282 6.364.282 11.661.564 34.865 1.41 99.204.282 6.368.281 1.933.282.733.564 6.723.282-.546.564-8.91.282.233.282 1.433.282-.424.282-.867.282.5.564 1.556 1.128 8.32.846 20.45.282 1.842.846 12.314.281 1.271.282 2.5.564 6.982.282-4.66.282-15.406.846-78.429.564-64.798.282-21.02.846-29.498.282-4.55.282 3.09.564 17.63.564 29.105 1.128 84.19.282 7.276.563 7.73.846 19.079.282 6.292.282 2.124.564-2.687.282.152.282-.127.282-.487.282.197.282.48.282-.01.282.225.282 1.494.564 6.15 2.82 36.18.281-1.644.282-8.737.564-33.405.564-62.961.564-64.51.282-16.54.564-17.8.282-5.418.282-.122.282 5.448.564 22.01.564 37.216 1.127 76.89.282 9.28.282 3.67.282 1.963.564 5.35.282-.512.564-6.709.282.196.282 2.052.282.954.282.166 1.41 6.34.282.427.282.183.282 4.744.564 16.66.282 1.613.282.873.845 12.543.282 2.982.564 6.889.282-2.267.282-8.327.282-16.59.564-63.89.564-68.939.564-38.132.282-8.593.282-2.94.282 1.699.564 9.423.282 8.433.846 47.448.564 36.277.563 36.201.564 11.656.282 4.15.282 1.49.282.045.564 2.198.564.092.282-.253.564-3.127.282.779.282 1.297.564-.579.846 4.277.282 2.496.564 6.734.564 4.68.563 8.678.846 22.374.564 7.527.282.643.282-6.982.282-17.736.564-67.56.564-74.759.564-40.252.282-10.354.282-4.316.282 1.134.282 4.923.564 17.97.564 25.76.563 34.654.846 71.983.282 12.168.282 4.583.282 1.843.282-1.305.564-12.305.282-.94.282 2.193.282-.488.282-3.12.282-1.532.282 1.028.564 3.572 1.128 11.696.564 12.666.282 1.956.281.66.564 5.617.564 6.751.564 10.766.282 3.384.282 1.898.282-1.268.282-8.487.282-18.58.564-63.187.564-64.328.564-39.865.282-11.281.282-4.642.282.197.282 2.585.282 4.393.282 7.084.282 12.078.845 63.08.846 59.355.282 5.65.282-1.695.282.6.282 3.966.282 1.212.282-1.737.282 1.242.564 9.036.282-.418.282-1.393.564.408.564-2.505 1.128 6.98.563 6.06.282.3.282.964.282 4.29.564 10.94.282 4.143.282 6.295.564 16.064.282-2.428.282-12.374.282-18.878.564-63.897.564-72.942.564-35.924.282-8.298.846-5.914.282 2.739.563 24.484.564 28.925 1.41 103.07.282 8.22.282 2.096.564-5.828.282-.003.282.284.282-1.046.282.826.282 2.477.282-1.733.282-6.145.282-3.587.564 1.952.282.191.282 1.685.282.824.282-1.423.281 2.459.564 17.058.564 3.626.564 10.065.282 3.115.564 8.15.282 1.067.282 3.98.282 7.483.282-.37.282-14.92.564-54.134.846-111.518.282-20.576.282-11.076.282-3.755.282.298.282 2.087.281 6.518.846 37.196.564 39.628.846 57.247.282 12.723.282 5.102.282 2.78.282 4.193.282 1.353.846-13.359.282 1.689.282.734.282-1.416.282.225.564 7.633.282.505.282.139.563 6.163.564 2.388.846 12.763.282 2.629.846 12.167.282 2.272.564 7.84.282-2.837.282-10.06.282-16.881.564-62.246.564-64.945.282-17.795.282-10.435.282-5.426.282-1.872.282.457.281 3.264.564 15.784 1.128 42.135.564 33.376.564 34.473.282 6.589.282 1.037.282-.3.282.064.282-.643.282-1.48.282-.619.564 1.408.282 1.228.564 4.368.282-1.575.282-.339.281 5.752.282 8.193.282 4.26.282 1.606.846 9 .282 1.562.564 4.99.282 1.34.282 3.002.846 14.675.282 5.206.282-4.397.282-18.84.564-58.053.846-101.79.282-13.558.282-5.144.282-2.075.281 1.533.846 9.43.846 27.812.282 13.335 1.128 71.587.564 22.98.282 3.374.282 1.26.282.008 1.41-7.667.564-3.692.282-.835.845 2.866.282 3.822.564 11.798.282 1.856.282 2.848.282 4.277.564 4.845.846 24.606.282 1.845.564 9.551.282-1.282.282-12.567.564-47.808L578.259 46.9l.281-9.172.282 1.076.564 6.307.282 2.446.282 4.322.282 7.915.846 36.228.846 46.597.564 27.615.282 8.61.282 4.427.282 1.476.282.33.282-.722.282-3.25.282-4.782.282-2.625.564 1.325.282-1.027.281 1.338.846 18.416.282.21.282 1.028.846 9.944.282 2.134.564 9.237.564 7.026.282 3.846.564 10.173.282-1.983.282-10.109.282-18.53.564-64.436.564-70.656.282-16.907.281-6.88.282-4.029.282-1.019 1.128 16.472.846 29.34.282 12.991.846 50.843.846 35.899.282 2.402.564-8.696.282.915.282.275.564-8.067.282-.716.282.477.281-.048.282.935.846 6.208.846 5.217.564 9.993.564 3.907.282 7.497.564 18.904.846 10.604.282.918.282-7.091.282-15.461.282-23.992L607.3 67.65l.564-15.462.282-4.963.282-1.287.282 1.252.282 2.043.282 5.64 2.82 112.713.282 9.276.282 4.474.282 1.353.282-.442.846-5.542.563-5.354.282 3.48.282 5.27.282-.117.282-3.472.282 1.13.282 4.918.282 2.33.282.992.282 6.028.564 16.072 1.41 11.14 1.128 15.809.282-3.702.282-15.602.564-55.595.845-88.025.282-10.118.564-9.775.282-5.06.282.47 1.128 25.708.564 25.18.846 40.612.564 22.768.564 27.464.282 5.897.282 1.246.282.388.282-1.269.563-8.145.282-.753.282-.353.282-1.99.282-.764.282 1.355.282.005.564-6.481.282.89 1.128 21.033.564 17.512 1.128 18.16.282-3.065.282-11.412.282-18.559.563-67.163.564-55.711.564-24.174.282-5.755.282.555.564 6.375.282 6.744 3.102 115.818.564 10.437.282 1.18.282-4.5.563-10.868.564-3.49.282-1.45.282-.833.282.054.282 2.337.564 7.617.564 4.412.282 4.538.846 18.964.282 3.063.564 12.516.282 5.763.282 2.436.282-.03.282-4.98.282-13.872.564-59.644.563-56.014.282-11.717.564-12.509.282-.533.282 1.74.282-1.482.282-3.514.282 3.343.564 17.432.282 5.116 1.974 61.747.282 3.854.282 5.734.282 1.57.282-.495.282-.762.281 7.737h0" clip-path="url(#p8834f07f25)" style="fill:none;stroke:#1f77b4;stroke-width:1.5;stroke-linecap:square"/><path id="patch_3" d="M71.308 266.112V0" style="fill:none;stroke:gray;stroke-width:.8;stroke-linejoin:miter;stroke-linecap:square"/><path id="patch_4" d="M685.107 266.112V0" style="fill:none;stroke:#000;stroke-width:.8;stroke-linejoin:miter;stroke-linecap:square"/><path id="patch_5" d="M71.308 266.112h613.8" style="fill:none;stroke:gray;stroke-width:.8;stroke-linejoin:miter;stroke-linecap:square"/><path id="patch_6" d="M71.308 0h613.8" style="fill:none;stroke:#000;stroke-width:.8;stroke-linejoin:miter;stroke-linecap:square"/></g></g><defs><clipPath id="p8834f07f25"><path d="M71.308 0h613.8v266.112h-613.8z"/></clipPath></defs></svg>