<svg xmlns="http://www.w3.org/2000/svg" xmlns:xlink="http://www.w3.org/1999/xlink" width="913.477" height="377.053" viewBox="0 0 685.107 282.79"><defs><style>*{stroke-linejoin:round;stroke-linecap:butt}</style></defs><g id="figure_1"><path id="patch_1" d="M0 282.79h685.107V0H0v282.79z" style="fill:none"/><g id="axes_1"><path id="patch_2" d="M71.308 266.112h613.8V0h-613.8v266.112z" style="fill:none"/><g id="matplotlib.axis_1"><g id="xtick_1"><g id="line2d_1"><defs><path id="m38ba6f178a" d="M0 0v3.5" style="stroke:gray;stroke-width:.8"/></defs><use xlink:href="#m38ba6f178a" x="99.207" y="266.112" style="fill:gray;stroke:gray;stroke-width:.8"/></g><g id="text_1" style="fill:gray" transform="matrix(.1 0 0 -.1 96.026 280.71)"><defs><path id="DejaVuSans-30" d="M2034 4250q-487 0-733-480-245-479-245-1442 0-959 245-1439 246-480 733-480 491 0 736 480 246 480 246 1439 0 963-246 1442-245 480-736 480zm0 500q785 0 1199-621 414-620 414-1801 0-1178-414-1799Q2819-91 2034-91q-784 0-1198 620-414 621-414 1799 0 1181 414 1801 414 621 1198 621z" transform="scale(.01563)"/></defs><use xlink:href="#DejaVuSans-30"/></g></g><g id="xtick_2"><use xlink:href="#m38ba6f178a" id="line2d_2" x="168.958" y="266.112" style="fill:gray;stroke:gray;stroke-width:.8"/><g id="text_2" style="fill:gray" transform="matrix(.1 0 0 -.1 159.414 280.71)"><defs><path id="DejaVuSans-35" d="M691 4666h2478v-532H1269V2991q137 47 274 70 138 23 276 23 781 0 1237-428 457-428 457-1159 0-753-469-1171Q2575-91 1722-91q-294 0-599 50Q819 9 494 109v635q281-153 581-228t634-75q541 0 856 284 316 284 316 772 0 487-316 771-315 285-856 285-253 0-505-56-251-56-513-175v2344z" transform="scale(.01563)"/></defs><use xlink:href="#DejaVuSans-35"/><use xlink:href="#DejaVuSans-30" x="63.623"/><use xlink:href="#DejaVuSans-30" x="127.246"/></g></g><g id="xtick_3"><use xlink:href="#m38ba6f178a" id="line2d_3" x="238.708" y="266.112" style="fill:gray;stroke:gray;stroke-width:.8"/><g id="text_3" style="fill:gray" transform="matrix(.1 0 0 -.1 225.982 280.71)"><defs><path id="DejaVuSans-31" d="M794 531h1031v3560L703 3866v575l1116 225h631V531h1031V0H794v531z" transform="scale(.01563)"/></defs><use xlink:href="#DejaVuSans-31"/><use xlink:href="#DejaVuSans-30" x="63.623"/><use xlink:href="#DejaVuSans-30" x="127.246"/><use xlink:href="#DejaVuSans-30" x="190.869"/></g></g><g id="xtick_4"><use xlink:href="#m38ba6f178a" id="line2d_4" x="308.457" y="266.112" style="fill:gray;stroke:gray;stroke-width:.8"/><g id="text_4" style="fill:gray" transform="matrix(.1 0 0 -.1 295.733 280.71)"><use xlink:href="#DejaVuSans-31"/><use xlink:href="#DejaVuSans-35" x="63.623"/><use xlink:href="#DejaVuSans-30" x="127.246"/><use xlink:href="#DejaVuSans-30" x="190.869"/></g></g><g id="xtick_5"><use xlink:href="#m38ba6f178a" id="line2d_5" x="378.207" y="266.112" style="fill:gray;stroke:gray;stroke-width:.8"/><g id="text_5" style="fill:gray" transform="matrix(.1 0 0 -.1 365.483 280.71)"><defs><path id="DejaVuSans-32" d="M1228 531h2203V0H469v531q359 372 979 998 621 627 780 809 303 340 423 576 121 236 121 464 0 372-261 606-261 235-680 235-297 0-627-103-329-103-704-313v638q381 153 712 231 332 78 607 78 725 0 1156-363 431-362 431-968 0-288-108-546-107-257-392-607-78-91-497-524-418-433-1181-1211z" transform="scale(.01563)"/></defs><use xlink:href="#DejaVuSans-32"/><use xlink:href="#DejaVuSans-30" x="63.623"/><use xlink:href="#DejaVuSans-30" x="127.246"/><use xlink:href="#DejaVuSans-30" x="190.869"/></g></g><g id="xtick_6"><use xlink:href="#m38ba6f178a" id="line2d_6" x="447.957" y="266.112" style="fill:gray;stroke:gray;stroke-width:.8"/><g id="text_6" style="fill:gray" transform="matrix(.1 0 0 -.1 435.233 280.71)"><use xlink:href="#DejaVuSans-32"/><use xlink:href="#DejaVuSans-35" x="63.623"/><use xlink:href="#DejaVuSans-30" x="127.246"/><use xlink:href="#DejaVuSans-30" x="190.869"/></g></g><g id="xtick_7"><use xlink:href="#m38ba6f178a" id="line2d_7" x="517.707" y="266.112" style="fill:gray;stroke:gray;stroke-width:.8"/><g id="text_7" style="fill:gray" transform="matrix(.1 0 0 -.1 504.983 280.71)"><defs><path id="DejaVuSans-33" d="M2597 2516q453-97 707-404 255-306 255-756 0-690-475-1069Q2609-91 1734-91q-293 0-604 58T488 141v609q262-153 574-231 313-78 654-78 593 0 904 234t311 681q0 413-289 645-289 233-804 233h-544v519h569q465 0 712 186t247 536q0 359-255 551-254 193-729 193-260 0-557-57-297-56-653-174v562q360 100 674 150t592 50q719 0 1137-327 419-326 419-882 0-388-222-655t-631-370z" transform="scale(.01563)"/></defs><use xlink:href="#DejaVuSans-33"/><use xlink:href="#DejaVuSans-30" x="63.623"/><use xlink:href="#DejaVuSans-30" x="127.246"/><use xlink:href="#DejaVuSans-30" x="190.869"/></g></g><g id="xtick_8"><use xlink:href="#m38ba6f178a" id="line2d_8" x="587.457" y="266.112" style="fill:gray;stroke:gray;stroke-width:.8"/><g id="text_8" style="fill:gray" transform="matrix(.1 0 0 -.1 574.732 280.71)"><use xlink:href="#DejaVuSans-33"/><use xlink:href="#DejaVuSans-35" x="63.623"/><use xlink:href="#DejaVuSans-30" x="127.246"/><use xlink:href="#DejaVuSans-30" x="190.869"/></g></g><g id="xtick_9"><use xlink:href="#m38ba6f178a" id="line2d_9" x="657.207" y="266.112" style="fill:gray;stroke:gray;stroke-width:.8"/><g id="text_9" style="fill:gray" transform="matrix(.1 0 0 -.1 644.482 280.71)"><defs><path id="DejaVuSans-34" d="M2419 4116 825 1625h1594v2491zm-166 550h794V1625h666v-525h-666V0h-628v1100H313v609l1940 2957z" transform="scale(.01563)"/></defs><use xlink:href="#DejaVuSans-34"/><use xlink:href="#DejaVuSans-30" x="63.623"/><use xlink:href="#DejaVuSans-30" x="127.246"/><use xlink:href="#DejaVuSans-30" x="190.869"/></g></g></g><g id="matplotlib.axis_2"><g id="ytick_1"><g id="line2d_10"><defs><path id="m2c8d109af4" d="M0 0h-3.5" style="stroke:gray;stroke-width:.8"/></defs><use xlink:href="#m2c8d109af4" x="71.308" y="233.512" style="fill:gray;stroke:gray;stroke-width:.8"/></g><g id="text_10" style="fill:gray" transform="matrix(.16 0 0 -.16 0 239.59)"><defs><path id="DejaVuSans-2212" d="M678 2272h4006v-531H678v531z" transform="scale(.01563)"/></defs><use xlink:href="#DejaVuSans-2212"/><use xlink:href="#DejaVuSans-32" x="83.789"/><use xlink:href="#DejaVuSans-30" x="147.412"/><use xlink:href="#DejaVuSans-30" x="211.035"/><use xlink:href="#DejaVuSans-30" x="274.658"/><use xlink:href="#DejaVuSans-30" x="338.281"/></g></g><g id="ytick_2"><use xlink:href="#m2c8d109af4" id="line2d_11" x="71.308" y="198.434" style="fill:gray;stroke:gray;stroke-width:.8"/><g id="text_11" style="fill:gray" transform="matrix(.16 0 0 -.16 0 204.513)"><use xlink:href="#DejaVuSans-2212"/><use xlink:href="#DejaVuSans-31" x="83.789"/><use xlink:href="#DejaVuSans-30" x="147.412"/><use xlink:href="#DejaVuSans-30" x="211.035"/><use xlink:href="#DejaVuSans-30" x="274.658"/><use xlink:href="#DejaVuSans-30" x="338.281"/></g></g><g id="ytick_3"><use xlink:href="#m2c8d109af4" id="line2d_12" x="71.308" y="163.357" style="fill:gray;stroke:gray;stroke-width:.8"/><use xlink:href="#DejaVuSans-30" id="text_12" style="fill:gray" transform="matrix(.16 0 0 -.16 54.127 169.435)"/></g><g id="ytick_4"><use xlink:href="#m2c8d109af4" id="line2d_13" x="71.308" y="128.279" style="fill:gray;stroke:gray;stroke-width:.8"/><g id="text_13" style="fill:gray" transform="matrix(.16 0 0 -.16 13.408 134.358)"><use xlink:href="#DejaVuSans-31"/><use xlink:href="#DejaVuSans-30" x="63.623"/><use xlink:href="#DejaVuSans-30" x="127.246"/><use xlink:href="#DejaVuSans-30" x="190.869"/><use xlink:href="#DejaVuSans-30" x="254.492"/></g></g><g id="ytick_5"><use xlink:href="#m2c8d109af4" id="line2d_14" x="71.308" y="93.201" style="fill:gray;stroke:gray;stroke-width:.8"/><g id="text_14" style="fill:gray" transform="matrix(.16 0 0 -.16 13.408 99.28)"><use xlink:href="#DejaVuSans-32"/><use xlink:href="#DejaVuSans-30" x="63.623"/><use xlink:href="#DejaVuSans-30" x="127.246"/><use xlink:href="#DejaVuSans-30" x="190.869"/><use xlink:href="#DejaVuSans-30" x="254.492"/></g></g><g id="ytick_6"><use xlink:href="#m2c8d109af4" id="line2d_15" x="71.308" y="58.123" style="fill:gray;stroke:gray;stroke-width:.8"/><g id="text_15" style="fill:gray" transform="matrix(.16 0 0 -.16 13.408 64.202)"><use xlink:href="#DejaVuSans-33"/><use xlink:href="#DejaVuSans-30" x="63.623"/><use xlink:href="#DejaVuSans-30" x="127.246"/><use xlink:href="#DejaVuSans-30" x="190.869"/><use xlink:href="#DejaVuSans-30" x="254.492"/></g></g><g id="ytick_7"><use xlink:href="#m2c8d109af4" id="line2d_16" x="71.308" y="23.045" style="fill:gray;stroke:gray;stroke-width:.8"/><g id="text_16" style="fill:gray" transform="matrix(.16 0 0 -.16 13.408 29.124)"><use xlink:href="#DejaVuSans-34"/><use xlink:href="#DejaVuSans-30" x="63.623"/><use xlink:href="#DejaVuSans-30" x="127.246"/><use xlink:href="#DejaVuSans-30" x="190.869"/><use xlink:href="#DejaVuSans-30" x="254.492"/></g></g></g><path id="line2d_17" d="m99.207 163.281.282.152.282-.154.282.157.282-.16.282.163.282-.166.282.169.282-.172.282.175.282-.18.282.184.282-.187.282.191.282-.196.282.201.282-.206.282.212.282-.217.282.223.282-.23.282.236.282-.243.282.25.282-.258.282.268.281-.277.282.287.282-.298.282.31.282-.323.282.336.282-.351.282.368.282-.387.282.407.282-.43.282.456.282-.484.282.517.282-.555.282.599.282-.65.282.711.282-.786.282.878.282-.994.282 1.147.282-1.356.282 1.658.282-2.137.281 3.01.282-5.115.564 46.272.282-4.712.282 1.018 2.538-53.44.282-1.97.282-.167.282 5 1.41 37.19.282 3.416.564 2.225.281-.097.282-.773.564-5.63.282-1.905.282-.104.282-.3.564 1.04.282-.336.282-5.25.282-10.69.564-37.12.564-44.87.282-14.166.282-6.092.282-.255.282 8.09.282 19.118.846 81.741.282 14.59.281 6.794.282.186.564-7.19 1.41-20.608.846-8.938.846-11.383.282-.205.282 2.41.282 4.152 1.692 36.507 1.127 11.738.282.84.282-1.032.282-1.952.282-4.155.282-7.241.564-25.447.564-43.72.564-45.346.282-14.429.282-8.42.282-2.016.282 7.796.282 19.545.846 81.961.282 13.399.282 5.366.282.355.282-1.461.281-.833.282 2.279.564 12.893.564 12.145.282 1.855.282-2.758.564-18.777.564-16.748.282-3.26.282-.692.282 1.866.282 5.423.846 23.693.282 4.987.282 2.356.282.12.282-1.631.845-7.209.282-1.232.282-.208.282.2.282-.361.282-3.54.282-8.89.564-34.697.846-68.67.282-13.773.282-6.673.282.216.282 8.969.564 46.817.564 46.336.282 10.038.282 2.94.282.412.282.823.282 1.652.281.983.282-.01.282-.313.282.325.846 2.03.282-.867.846-8.736.282-.102.282 2.84.282 6.247 1.41 43.116.282 4.824.282.95.282-2.017.564-7.204 1.127-22.101.282-7.777.282-11.663.564-38.056.846-68.224.282-13.384.282-7.448.282-.409.282 8.405.564 38.952.564 42.858.282 9.556.282-1.239.564-11.61.564-20.33.282-1.889.845 35.01.282-.604.282 4.946.846 38.968.564 31.97.282 9.107.282.941.282-4.06.564-16.126.846-27.568.564-10.394.564-6.095.282-2.049.282.732.564 5.29.282.712.281-.45.282-2.87.282-7.734 1.41-62.397.282-5.59.282-.446.282 6.957.564 36.03.564 32.016.282 7.53.282 4.05.282 1.36.282-.498.564-2.969.564-4.549.282-3.029 1.127-16.007.282.603.282 3.073.282 6.231.846 24.932.282 2.743.282.926.846 3.814.282-.383.282.472 1.128 9.204.564.91.282-1.608.282-6.514.282-12.91.563-42.038.846-72.065.282-12.178.282-4.206.282 2.66.282 11.427.564 52.475.564 51.036.282 13.514.282 7.361.282 2.594.282-.86.564-6.39.846-10.798.564-4.44.282-.147.282 1.04.281.194.282-.808.282.663 2.256 24.048.282 1.26.282-.387 1.128-5.165.282-2.48.282-4.764.282-9.2.564-30.522.564-42.104.845-66.789.282-11.6.282-3.349.282 5.183.282 13.973.564 53.221.564 56.091.282 15.942.282 8.955.282 4.482.282 1.322.282-.881.564-4.798.564-5.583.282-1.21.282.688.282 3.376 1.127 24.232.564 13.377.282 4.331.282 2.133.564 2.84.282 1.75.282.453.282-2.257 1.41-21.384.282-3.37.282-5.274.282-8.854.282-14.119.564-47.76.846-72.186.564-29.856.281-3.144.282 6.8.282 15.624.564 55.85.564 62.585.282 19.604.282 10.84.282 4.816.282 1.733.282.508.564.298 1.128 1.313.282-.498.282-2.241.564-6.378.282-.727.282 1.37.563 7.215 2.538 38.507.282 2.646.282-1.11.282-4.838.282-8.104.282-13.167.282-21.629 1.41-144.03.282-15.508.282-6.73.282 3.78.282 12.292.563 40.518.846 80.894.282 15.199.282 6.49.564 4.137.282 1.219.282.355.282.585.846 4.66.282-.545.846-3.694.282.256.846 3.22.564 5.332.563 5.406 1.128 17.189.564 3.224.282.931.282.186.282-1.705.282-5.655.282-11.18.282-17.386.564-55.333.846-91.532.282-18.384.282-9.41.282-.172.282 6.869.282 11.918.564 41.693.845 74.825.564 26.84.282 5.812.282 2.426.564 2.384.282.47.282-.042.282.143.282.737.564 3.284.846 6.246 1.128 11.862.564 4.347.564 3.723.563 8.132.564 8.631.282 2.271.282.59.282-1.375.282-3.814.282-6.797.282-11.008.282-17.821.564-58.435.846-90.394.282-20.155.282-9.83.282.266.282 6.756.282 11.34.564 40.02.845 74.625.282 13.58.846 19.951.282 4.182.282 1.295.282.472.564 1.775.282-.025.282-.204.282-.57.564-3.285.282-.255.564 2.353.282 1.586.282 3.083 1.128 17.327.563 7.533.564 8.84.846 9.217.282.765.282-3.415.282-7.7.282-12.432.282-19.961 1.692-165.731.282-7.136.282 2.967.282 9.303.282 13.644.564 44.571.564 50.916.563 26.668.564 9.987.564 5.46 1.128 8.678.282.543.282-.603.846-2.864.282-1.177.282.016.282 1.705.564 4.488.564 3.882.564 5.508.282 1.45.282.86.281 2.181.846 12.508.282 1.688.282.497.282-1.162.282-4.645.282-10.415.564-41.265 1.41-131.965.282-9.882.282.094.282 8.053.564 35.62 1.128 89.503.282 9.674 1.127 19.72.846 4.95.282 1.311.282-.584.564-3.171.282.169 1.692 5.103 1.692 11.205.845 6.777.282.586.282.16.282 1.252.282.18.282-4.341.564-20.284.282-16.234 1.692-131.262.282-4.424.282 4.807.282 12.462.564 44.514.564 45.638.564 25.853.281 6.187.282 1.779.282.26.282 1.508.564 3.905.564 1.12.282.025.846-1.913.564-1.672.282.156.846 1.844.282 1.748.564 5.407 1.128 14.888.282 1.023.281-.036.564-1.403.282-1.127.282-2.597.282-4.934.282-8.023.282-12.846.564-42.11.846-65.852.282-15.537.282-7.408.282 1.824.282 9.804.564 40.261.564 48.881.282 16.655.282 9.911.282 4.881 1.127 9.266.564 3.265.282 1.97.282 1.04.282-.241.564-1.373.282-.34.282.172.564.985.282-.06.282.603.282 2.17.846 10.724 1.41 20.996.281 2.721.282 1.04.282-.27.282-2.292.282-7.065.282-14.716.564-51.092 1.128-111.47.282-13.086.282-4.309.282 1.026.282 4.994.282 10.57.564 37.565.846 59.156.564 20.258.845 19.769 1.128 17.158.564 2.94.564 1.903.282.708.564 2.155.282.414.282-.212.282.567.564 5.145.564 6.53 1.41 21.443.282 1.707.281-1.123.282-4.898.282-10.866.564-43.266 1.41-143.305.564-21.528.282-2.162.282 4.47.282 10.205.564 35.98.846 61.76.564 29.861.564 20.354.564 13.922.845 14.725.282 2.137.846 1.726.282.202.282-.686.282-1.297.282-.702.282 1.165.564 6.815.564 8.32.846 15.659.282 3.159.282 1.793.282.336.282-1.38.282-4.357.282-9.75.563-40.156 1.41-140.82.564-25.335.282-3.99.282 3.496.282 10.696.564 34.143 1.41 90.384.564 17.851.846 18.105.563 6.882.282 1.897.282 1.002.282.369.282-.63.564-3.271.282.271.846 5.888.564 5.113 1.41 16.679.846 5.123.282-.539.282-4.106.282-9.784.282-16.632.563-52.562.846-86.57.564-31.197.282-7.092.282 2.107.282 10.757.564 32.033 1.128 74.13 1.128 37.51.564 14.203.564 8.53.564 3.404.281 1.406.282.735.282.247.282.826.564 3.164.564 1.316.282 1.894.846 10.963 1.128 15.692.282.95.282-.372.282-2.953.282-9.414.282-19.147.846-94.052.563-58.772.282-17.997.282-10.626.282-6.048.282-1.322.282 4.908.846 32.551.564 34.287.846 50.598.846 38.33.846 18.882.282 3.882.564 1.932.846 10.36.281.548.282 1.922.564 6.137.282 1.847.282 2.832 1.128 15.116.564 6.292.282 1.145.282-.982.282-4.624.282-10.844.282-19.836.564-67.949.564-74.978.564-46.632.282-8.835.282-.675.563 7.244.282 6.081.564 24.595 2.538 126.905.564 17.021.282 3.535 1.974 13.404.282.807.845 8.105.282.517.282 2.353.846 14.197.846 10.437.282-.139.282-6.665.282-15.327.564-56.685.846-105.635.282-21.92.282-12.5.282-5.23.282.245.282 4.073.564 14.512.563 24.164 2.256 106.023.564 15.743.564 9.209.564 4.314.564 3.142.282.69.282 1.776.564 6.677.282.724.282-.268.282 1.593.563 7.234.846 7.112.564 8.028.282 1.623.282-2.462.282-7.574.282-13.929.282-22.229 1.41-155.284.282-10.717.282-4.399.282.245.282 3.98.564 16.507.564 24.932 1.41 74.633.563 22.131.564 13.792.564 9.679.282 2.127.282.087.282-.135.282 1.204.846 7.389 1.41 14.704.564 7.098.282 1.997 1.127 11.45.282-.48.282-4.48.282-11.338.564-44.905 1.128-121.27.282-14.862.282-6.471.282-.055.282 4.366.564 15.983 1.41 65.846.845 35.21.846 27.094.564 9.969.564 5.966.564 4.175.282 1.336.282.758.282 1.142.564 3.54.282 2.59.282 4.869.846 19.725.846 12.285.282 1.157.282-1.698.281-5.407.282-11.315.282-19.899.564-66.04.564-70.173.282-20.9.282-10.329.282-3.759.282-.785.282.985.282 3.574.282 7.871 2.256 93.21.846 23.508 1.691 24.584.564 3.358.564 4.01.564 5.873.846 13.715 1.128 20.275.564 9.124.282 1.486.282-6.441.282-14.95.282-23.096L464.91 79.53l.564-24.27.282-4.55.282 2.354.846 17.22 1.974 76.637.846 20.146.564 12.616.282 4.097.564 3.182.281.974.282.065.282-.851.282-.331.282.722.282 1.269.282 2.097.564 8.785.846 15.503 1.128 21.955.282 4.7.282 1.34.282-3.705.282-11.258.282-21.829 1.128-114.538.281-14.327.282-8.06.282-3.334.282-.567.282 2.24.282 6.337.846 32.777 1.128 42.061.846 17.062.564 8.561 1.128 9.695.282 1.917.282.796.282-.031.282-.22.281.284.564 1.844.282 1.068.282 1.876.282 3.438.564 11.105.564 11.306.564 6.136.564 5.188.282-1.206.282-7.76.282-15.594.564-53.473.564-54.25.282-14.299.282-7.482.282-4.252.282-1.36.281 2.433.282 5.911.564 20.026.846 39.512.846 25.992.564 10.8.564 5.673.282 1.912.282.754.564-.651.282.62.282 1.351.282.633.564-.998.282 1.52.282 2.475.281 1.282.282.38.282 2.366 1.692 29.368.282 2.266.282.18.282-3.471.282-10.979.564-46.235.564-47.803.564-26.801.282-5.19.282-1.532.282 1.26.282 4.473.564 17.42 1.41 50.539.563 11.249.564 7.39 1.128 8.672.282.762.282.119.282.717.564 3.313.282.118.282-.725.282.274.846 5.52.282 3.025 1.127 19.27.564 5.804.282 1.194.282-2.797.282-10.136.564-42.477.564-43.607.564-24.458.282-5.885.282-2.369.282.797.564 5.989.282 4.537.564 17.955.564 17.278.845 21.356.282 3.289 1.692 11.104.282.871.282.464.282.925.846 6.327.564 4.091.564 2.124.282 2.552 1.128 20.315.564 7.26.281 2.07.282-.333.282-3.628.282-10.143.564-44.252.564-41.522.564-21.424.282-6.551.282-3.075.282 1.324.564 10.927.564 15.579.846 35.79.564 10.846.564 7.826.845 4.93.564 4.423.282.288.282-.754.282-.078.564 1.865.282.467.282 1.423.282 2.263.282 1.135.282.1.282 1.102.564 4.623.282 1.833.282 3.438.564 9.176.564 4.323.282.544.282-3.858.282-10.218.563-35.521.564-38.615.564-22.2.282-4.261.282-1.245.282.57.282 2.746.282 6.193 1.692 56.777.846 12.007.282 2.19.282-.126 1.127-5.249.564-.345.564-1.377.282.867.282 1.688.282.678.282-.41.282.158.282 2.253 1.128 16.821.564 10.972.282 3.295.282 1.364.282.462.282-1.386.282-6.82.564-32.861.845-48.527.564-18.38.282-1.536.282 2.946.564 10.945.564 17.08.564 19.34.564 11.91.564 8.256.564 5.188.282 1.48.282-.149.564-1.776.282-.889.564-3.165.282.261.281.712.282-.067.282.246 1.128 7.609 1.41 21.447.282 2.986.564 2.525.282.385.282-3.47.282-9.721 1.41-74.298.282-6.24.282-3.73.281-2.04.282.784.564 9.764.564 14.568.846 27.265.564 11.115.282 3.062.564 2.92.564 1.812.282.924.846 4.7.282.485.282.746.564 2.397.282-.206.281-.886.282.24.564 4.521.282 2.522.564 8.479.282 4.105.282.73.282-2.15.564-7.817.282-7.286.564-24.217 1.128-58.32.282-6.9.282-4.159.282-2.004.282.565.282 3.967.564 15.816 1.41 46.445.563 8.996.282 2.028.282.927.282 1.907.564 5.192.282-.141.282-.508.282.396.282.172.564-2.54.282-.457.282.1.282.543.282 1.982.564 5.231.563 3.456 1.41 14.138.282.02.282-1.843.282-4.83.282-9.692 1.41-67.387.564-10.48.282-1.797.282 1.557.564 10.51.564 14.447.846 24.376.563 13.929.282 4.151.282 1.414.846 1.731.282.096.282.575.282.974.282.407.282-.69.282-.34.564 2.04.282-.509.282-1.305.282-.201.846 4.439.564 5.56.845 8.56.282 1.572.282-.127.282-1.652.282-4.802.282-9.794 1.128-54.5.282-9.001.282-5.18.282-2.655.282-1.13.282 1.19.282 4.685.846 23.785.564 15.213.564 10.017.282 3.279.282 1.402.563 1.16.846 1.94.282.38.282-.362.282-.129.564 3.758.282.392.282-.696.282.89.282 2.126.282 1.088.282-.45.282.367.282 2.2.564 5.845.564 3.562.564 2.283.282.576.282-1.232.281-4.422.282-8.875 1.41-62.522.282-6.996.282-3.348.282.164.282 3.137.564 12.37.846 28.302.564 15.44.564 7.67.282 2.725.282 1.455.846 2.197.281-.168.282-.4.282-.06.282.265.564-.362.282.166.564 1.236.282 1.355.846 5.943.282 3.147.564 8.788.282.562.282-2.785.846-12.414.282-6.903.564-23.216.845-39.6.282-7.939.282-4.479.282-1.238.282 1.216.282 3.552.564 12.212.846 26.217.564 14.862.564 9.187.282 3.076.282.97.564-.795.846 1.672.282-.155.282.813.563 4.119.282.51.282-.441.282-.091.564 1.352.282.104.282.438.282 1.801 1.692 15.986.282.398.282-3.178.282-7.062.564-23.246.846-42.606.282-6.71.563-6.144.282.724.282 4.902 1.41 38.175.282 6.684.282 4.044.846 3.838.282.656.282-.214.282.326.282 1.13.282 1.673.282.937.282-.098.282-.753.282.4.282 1.45.282.488.563-3.25h0" clip-path="url(#pc91bb42a0a)" style="fill:none;stroke:#1f77b4;stroke-width:1.5;stroke-linecap:square"/><path id="patch_3" d="M71.308 266.112V0" style="fill:none;stroke:gray;stroke-width:.8;stroke-linejoin:miter;stroke-linecap:square"/><path id="patch_4" d="M685.107 266.112V0" style="fill:none;stroke:#000;stroke-width:.8;stroke-linejoin:miter;stroke-linecap:square"/><path id="patch_5" d="M71.308 266.112h613.8" style="fill:none;stroke:gray;stroke-width:.8;stroke-linejoin:miter;stroke-linecap:square"/><path id="patch_6" d="M71.308 0h613.8" style="fill:none;stroke:#000;stroke-width:.8;stroke-linejoin:miter;stroke-linecap:square"/></g></g><defs><clipPath id="pc91bb42a0a"><path d="M71.308 0h613.8v266.112h-613.8z"/></clipPath></defs></svg>