<svg xmlns="http://www.w3.org/2000/svg" xmlns:xlink="http://www.w3.org/1999/xlink" width="913.477" height="377.053" viewBox="0 0 685.107 282.79"><defs><style>*{stroke-linejoin:round;stroke-linecap:butt}</style></defs><g id="figure_1"><path id="patch_1" d="M0 282.79h685.107V0H0v282.79z" style="fill:none"/><g id="axes_1"><path id="patch_2" d="M71.308 266.112h613.8V0h-613.8v266.112z" style="fill:none"/><g id="matplotlib.axis_1"><g id="xtick_1"><g id="line2d_1"><defs><path id="m4a9cd49ae3" d="M0 0v3.5" style="stroke:gray;stroke-width:.8"/></defs><use xlink:href="#m4a9cd49ae3" x="99.207" y="266.112" style="fill:gray;stroke:gray;stroke-width:.8"/></g><g id="text_1" style="fill:gray" transform="matrix(.1 0 0 -.1 96.026 280.71)"><defs><path id="DejaVuSans-30" d="M2034 4250q-487 0-733-480-245-479-245-1442 0-959 245-1439 246-480 733-480 491 0 736 480 246 480 246 1439 0 963-246 1442-245 480-736 480zm0 500q785 0 1199-621 414-620 414-1801 0-1178-414-1799Q2819-91 2034-91q-784 0-1198 620-414 621-414 1799 0 1181 414 1801 414 621 1198 621z" transform="scale(.01563)"/></defs><use xlink:href="#DejaVuSans-30"/></g></g><g id="xtick_2"><use xlink:href="#m4a9cd49ae3" id="line2d_2" x="168.958" y="266.112" style="fill:gray;stroke:gray;stroke-width:.8"/><g id="text_2" style="fill:gray" transform="matrix(.1 0 0 -.1 159.414 280.71)"><defs><path id="DejaVuSans-35" d="M691 4666h2478v-532H1269V2991q137 47 274 70 138 23 276 23 781 0 1237-428 457-428 457-1159 0-753-469-1171Q2575-91 1722-91q-294 0-599 50Q819 9 494 109v635q281-153 581-228t634-75q541 0 856 284 316 284 316 772 0 487-316 771-315 285-856 285-253 0-505-56-251-56-513-175v2344z" transform="scale(.01563)"/></defs><use xlink:href="#DejaVuSans-35"/><use xlink:href="#DejaVuSans-30" x="63.623"/><use xlink:href="#DejaVuSans-30" x="127.246"/></g></g><g id="xtick_3"><use xlink:href="#m4a9cd49ae3" id="line2d_3" x="238.708" y="266.112" style="fill:gray;stroke:gray;stroke-width:.8"/><g id="text_3" style="fill:gray" transform="matrix(.1 0 0 -.1 225.982 280.71)"><defs><path id="DejaVuSans-31" d="M794 531h1031v3560L703 3866v575l1116 225h631V531h1031V0H794v531z" transform="scale(.01563)"/></defs><use xlink:href="#DejaVuSans-31"/><use xlink:href="#DejaVuSans-30" x="63.623"/><use xlink:href="#DejaVuSans-30" x="127.246"/><use xlink:href="#DejaVuSans-30" x="190.869"/></g></g><g id="xtick_4"><use xlink:href="#m4a9cd49ae3" id="line2d_4" x="308.457" y="266.112" style="fill:gray;stroke:gray;stroke-width:.8"/><g id="text_4" style="fill:gray" transform="matrix(.1 0 0 -.1 295.733 280.71)"><use xlink:href="#DejaVuSans-31"/><use xlink:href="#DejaVuSans-35" x="63.623"/><use xlink:href="#DejaVuSans-30" x="127.246"/><use xlink:href="#DejaVuSans-30" x="190.869"/></g></g><g id="xtick_5"><use xlink:href="#m4a9cd49ae3" id="line2d_5" x="378.207" y="266.112" style="fill:gray;stroke:gray;stroke-width:.8"/><g id="text_5" style="fill:gray" transform="matrix(.1 0 0 -.1 365.483 280.71)"><defs><path id="DejaVuSans-32" d="M1228 531h2203V0H469v531q359 372 979 998 621 627 780 809 303 340 423 576 121 236 121 464 0 372-261 606-261 235-680 235-297 0-627-103-329-103-704-313v638q381 153 712 231 332 78 607 78 725 0 1156-363 431-362 431-968 0-288-108-546-107-257-392-607-78-91-497-524-418-433-1181-1211z" transform="scale(.01563)"/></defs><use xlink:href="#DejaVuSans-32"/><use xlink:href="#DejaVuSans-30" x="63.623"/><use xlink:href="#DejaVuSans-30" x="127.246"/><use xlink:href="#DejaVuSans-30" x="190.869"/></g></g><g id="xtick_6"><use xlink:href="#m4a9cd49ae3" id="line2d_6" x="447.957" y="266.112" style="fill:gray;stroke:gray;stroke-width:.8"/><g id="text_6" style="fill:gray" transform="matrix(.1 0 0 -.1 435.233 280.71)"><use xlink:href="#DejaVuSans-32"/><use xlink:href="#DejaVuSans-35" x="63.623"/><use xlink:href="#DejaVuSans-30" x="127.246"/><use xlink:href="#DejaVuSans-30" x="190.869"/></g></g><g id="xtick_7"><use xlink:href="#m4a9cd49ae3" id="line2d_7" x="517.707" y="266.112" style="fill:gray;stroke:gray;stroke-width:.8"/><g id="text_7" style="fill:gray" transform="matrix(.1 0 0 -.1 504.983 280.71)"><defs><path id="DejaVuSans-33" d="M2597 2516q453-97 707-404 255-306 255-756 0-690-475-1069Q2609-91 1734-91q-293 0-604 58T488 141v609q262-153 574-231 313-78 654-78 593 0 904 234t311 681q0 413-289 645-289 233-804 233h-544v519h569q465 0 712 186t247 536q0 359-255 551-254 193-729 193-260 0-557-57-297-56-653-174v562q360 100 674 150t592 50q719 0 1137-327 419-326 419-882 0-388-222-655t-631-370z" transform="scale(.01563)"/></defs><use xlink:href="#DejaVuSans-33"/><use xlink:href="#DejaVuSans-30" x="63.623"/><use xlink:href="#DejaVuSans-30" x="127.246"/><use xlink:href="#DejaVuSans-30" x="190.869"/></g></g><g id="xtick_8"><use xlink:href="#m4a9cd49ae3" id="line2d_8" x="587.457" y="266.112" style="fill:gray;stroke:gray;stroke-width:.8"/><g id="text_8" style="fill:gray" transform="matrix(.1 0 0 -.1 574.732 280.71)"><use xlink:href="#DejaVuSans-33"/><use xlink:href="#DejaVuSans-35" x="63.623"/><use xlink:href="#DejaVuSans-30" x="127.246"/><use xlink:href="#DejaVuSans-30" x="190.869"/></g></g><g id="xtick_9"><use xlink:href="#m4a9cd49ae3" id="line2d_9" x="657.207" y="266.112" style="fill:gray;stroke:gray;stroke-width:.8"/><g id="text_9" style="fill:gray" transform="matrix(.1 0 0 -.1 644.482 280.71)"><defs><path id="DejaVuSans-34" d="M2419 4116 825 1625h1594v2491zm-166 550h794V1625h666v-525h-666V0h-628v1100H313v609l1940 2957z" transform="scale(.01563)"/></defs><use xlink:href="#DejaVuSans-34"/><use xlink:href="#DejaVuSans-30" x="63.623"/><use xlink:href="#DejaVuSans-30" x="127.246"/><use xlink:href="#DejaVuSans-30" x="190.869"/></g></g></g><g id="matplotlib.axis_2"><g id="ytick_1"><g id="line2d_10"><defs><path id="m18167acd50" d="M0 0h-3.5" style="stroke:gray;stroke-width:.8"/></defs><use xlink:href="#m18167acd50" x="71.308" y="227.961" style="fill:gray;stroke:gray;stroke-width:.8"/></g><g id="text_10" style="fill:gray" transform="matrix(.16 0 0 -.16 0 234.04)"><defs><path id="DejaVuSans-2212" d="M678 2272h4006v-531H678v531z" transform="scale(.01563)"/></defs><use xlink:href="#DejaVuSans-2212"/><use xlink:href="#DejaVuSans-31" x="83.789"/><use xlink:href="#DejaVuSans-30" x="147.412"/><use xlink:href="#DejaVuSans-30" x="211.035"/><use xlink:href="#DejaVuSans-30" x="274.658"/><use xlink:href="#DejaVuSans-30" x="338.281"/></g></g><g id="ytick_2"><use xlink:href="#m18167acd50" id="line2d_11" x="71.308" y="189.67" style="fill:gray;stroke:gray;stroke-width:.8"/><g id="text_11" style="fill:gray" transform="matrix(.16 0 0 -.16 10.18 195.749)"><use xlink:href="#DejaVuSans-2212"/><use xlink:href="#DejaVuSans-35" x="83.789"/><use xlink:href="#DejaVuSans-30" x="147.412"/><use xlink:href="#DejaVuSans-30" x="211.035"/><use xlink:href="#DejaVuSans-30" x="274.658"/></g></g><g id="ytick_3"><use xlink:href="#m18167acd50" id="line2d_12" x="71.308" y="151.379" style="fill:gray;stroke:gray;stroke-width:.8"/><use xlink:href="#DejaVuSans-30" id="text_12" style="fill:gray" transform="matrix(.16 0 0 -.16 54.127 157.458)"/></g><g id="ytick_4"><use xlink:href="#m18167acd50" id="line2d_13" x="71.308" y="113.088" style="fill:gray;stroke:gray;stroke-width:.8"/><g id="text_13" style="fill:gray" transform="matrix(.16 0 0 -.16 23.587 119.166)"><use xlink:href="#DejaVuSans-35"/><use xlink:href="#DejaVuSans-30" x="63.623"/><use xlink:href="#DejaVuSans-30" x="127.246"/><use xlink:href="#DejaVuSans-30" x="190.869"/></g></g><g id="ytick_5"><use xlink:href="#m18167acd50" id="line2d_14" x="71.308" y="74.796" style="fill:gray;stroke:gray;stroke-width:.8"/><g id="text_14" style="fill:gray" transform="matrix(.16 0 0 -.16 13.408 80.875)"><use xlink:href="#DejaVuSans-31"/><use xlink:href="#DejaVuSans-30" x="63.623"/><use xlink:href="#DejaVuSans-30" x="127.246"/><use xlink:href="#DejaVuSans-30" x="190.869"/><use xlink:href="#DejaVuSans-30" x="254.492"/></g></g><g id="ytick_6"><use xlink:href="#m18167acd50" id="line2d_15" x="71.308" y="36.505" style="fill:gray;stroke:gray;stroke-width:.8"/><g id="text_15" style="fill:gray" transform="matrix(.16 0 0 -.16 13.408 42.584)"><use xlink:href="#DejaVuSans-31"/><use xlink:href="#DejaVuSans-35" x="63.623"/><use xlink:href="#DejaVuSans-30" x="127.246"/><use xlink:href="#DejaVuSans-30" x="190.869"/><use xlink:href="#DejaVuSans-30" x="254.492"/></g></g></g><path id="line2d_16" d="m99.207 151.379 7.05-.056.281.115.282-.122.282.13.282-.139.282.148.282-.158.282.17.282-.183.282.197.282-.213.282.232.282-.254.282.28.282-.312.282.352.282-.403.282.469.282-.559.282.69.282-.897.282 1.274.282-2.17.282 6.716.282 24.253.282-2.415.281-.57.282-3.846.282-5.414.564-20.473 1.128-48.68.282-11.581.282-2.689.564 11.75.282 6.654.282 13.885.564 35.84.564 14.34.564 9.34.282 2.04.282.55.564-3.597.282.066.281-.247.564-9.193.282-1.285.282.757.282-.76.282.22.564 4.952.282.287.282 1.416.282 2.595.282 1.047.282-1.002.282-.491.282-1.215.282-4.382.564-17.614 1.128-43.735.564-14.78.281-.357.282 4.45.282 6.394.564 22.92.564 19.801.846 15.59.564 5.008.846 5.633.282 1.11.282-.748.564-3.982.282.404.564 3.274.282-.056.282 1.82.282 4.246.281 1.987.564-5.623.282-.353.282.129.282-.008.282-.122.282-5.874.846-38.162.846-32.654.564-5.247.282-4.236.282-.021.282 6.219.282 10.802.846 44.492.564 12.587.282 7.057.281.81.282-4.315.282-2.03.282 1.065.282-.083.564-3.02.564-1.156.846-3.116.282 1.003 1.128 11.825.564 6.216.282.382.564-4.93.282-2.712.282-6.838.563-23.689.564-14.25.564-18.63.282-4.664.282-2.79.282-.02.282 5.582 1.692 54.604.564 10.298.282 3.43.282 1.897.282-1.081.564-6.774.282-1.148.282-.388.282.175.563 1.706.282.48.564 2.726.282.212.282.771.564 3.191.282.768.564 4.486.282-1.42.564-13.624.564-19.716 1.128-46.589.282-7.357.282-4.107.282-.248.282 3.135.282 7.858 1.127 55.176 1.128 16.271.282 1.631.282-.043.564.614.282-2.805.564-9.032.564-3.262.282.736.282 2.318.282-.905.282-2.808.282 1.765.282 4.5.282.451.282-.28.563 12.776.282.426.282-3.107.282-1.255.282-2.106.564-14.87 1.974-68.64.282.726.282 8.456.846 37.659.846 21.28.282 2.125.282 3.179.563 12.14.282-.572.282-2.393.282-.217.282.9.282 1.59.282 2.612.282.733.564-4.149.282.659.282-.096.282.074.564 7.142.282-.748.282.05.282 4.624.282 2.384.846-12.203.282-10.207.564-25.36.281-7.494.846-38.186.282-2.19.282 1.465.282 5.21.564 24.193.564 26.098.564 16.75.282 5.838.282 3.114.282.216.282.697.282 2.026.282-.425.282-3.155.282-1.056.282 1.518.282-.644.282-3.285.282-1.802.281-.124.282-1.848.282-3.332.282-.731.282 3.938.846 17.457.564 6.737.282.534.282-3.065.282-7.735 1.692-70.773.564-9.765.282-3.781.282.158.282 5 .564 17.433.845 30.496.564 13.233.282 2.573.564 1.774.282.645.282.277.282-.58.282-1.305.282-.1.564 2.921.282.036.282.22.282-.769.282-2.028.282 1.286.282 4.757.282.636.282-3.919.282 1.644.563 15.781.282-.734.282-3.273.282-4.682.564-20.302 1.692-59.59.282-6.432.282-1.183.282 6.462.846 35.131.564 34.904.282 9.695.282 2.416.282 1.227.564 4.534.281-1.007.282-2.552.282-.345.564 6.247.282-1.163.282-2.836.282-1.443.282-2.393.282-4.36.282-.86.564 12.492.282 1.226.282-2 .282-.237.282.894.282-1.99.846-17.198.282-10.377.564-27.608.845-21.418.282-6.288.282-1.31.282 2.075.282 3.188.282 7.066.846 38.633.564 11.065.564 6.994.282 1.832.282.376.564-3.836.282 3.61.282 5.843.282.995.564-5.512.282-2.967.845-31.811.846-9.885.282 4.605.282 7.095.282 2.273.282.109.282 4.577.564 13.225.282 1.679.282.676.564 2.668.282-.576.564-4.031.282.826.564 3.702.282.299.282-.311.282 1.12.564 5.529.281-.861.282-.312.282 2.15.282-.748.564-11.233.282.503.846 8.437.282 1.59.282-.114.282 2.12.282 4.405.282 1.87.282.78.564 12.232.282 1.152.846-11.354.564-17.741.563-29.829 1.128-62.225.282-7.11.282 1.449.282 5.385.282 9.725 1.128 69.023.282 5.725.282 2.354.282 3.482.564 8.656.282.069.282-1.543.282-.592.282 2.448.564 9.63.282.143.281-1.457.282 1 .282 2.62.282.697.564-3.592.282-.24.564 1.18.564.165.282-.31.282-2.583.282-6.29 2.256-72.577.282-4.51.282 5.579 1.41 63.303.563 7.84.564 11.774.282-.9.282-2.882.282-.716.282.168.282-.195.282.84.282 1.384.282-.235.282-.644.282 1.891.846 10.812.282 2.276.282.065.282-1.196.282.143.282-.075.281-4.672.564-21.272.846-40.096.846-42.753.282-8.043.282-3.25.282 1.136.282 7.454.564 31.958.846 47.663 1.128 24.735.282-.426.282-3.016.282-.963.281.514.564.143.282-.301.282-1.132.282.406.564 4.876.282-.612.282 1.666.564 10.407.282.123.282-1.988.282-3.541.282-7.605.564-23.742 1.128-63.903.564-28.7.282-5.06.282 3.381.281 9.383.564 35.27.564 30.662.564 21.858.846 18.039.282 7.543.282 2.086.282.373.282 2.724.282 1.115.564-7.254.282.35 1.128 11.304.564 4.076.282-.426.563-5.936.282-5.85.564-27.11.846-56.535.564-35.781.564-21.556.282-3.83.282 3.864.282 11.127 1.974 110.927.564 16.908.282 3.694.282 2.138.281 3.039.282 1.024.564-7.875.282-.429.846 5.533.564 10.27.564 5.393.282 1.791.282-1.686.282-6.207.564-22.11.846-52.58 1.128-80.766.282-9.508.281-4.706.282 3.743.282 14.306.846 62.18.846 46.762.282 8.846.282 4.867.846 20.963.282 1.91.564 6.614.282-1.017.282-4.856.282-1.357.564 7.996.282 2.118.845 13.109.282-2.64.282-3.996.282-6.482.564-25.806.564-37.137 1.128-91.688.282-19.592.282-8.35.282 3.703.564 22.065.564 41.987.846 62.815.282 19.288.282 11.202.282 1.106.282-.194.281 3.932.282 1.71.282-3.881.282-1.337.564 10.687.282.832.282 3.682.564 16.573.846 5.792.282.84.282-.88.282-2.28.282-7.82.564-34.147.564-42.06 1.128-101.21.281-17.934.282-5.012.282 7.946.846 39.8.846 63.403 1.128 54.878.564 11.686.282 4.32.282 1.82.282-.095.282-.608.282.209.282 2.681.564 9.594.564 5.564.281 4.364.282 2.093.282-.494.282 1.304.282 2.787.282-2.431.564-21.036.282-11.794.564-39.717 1.41-128.241.282-9.023.282 2.407.282 7.302.282 11.518.564 46.99.564 46.468.564 32.35 1.127 35.167.282.784.282-1.263.282.79.846 6.171.282 1.024.564.632.282-.329.282-.847.282.308.564 6.112.282 2.807.282 1.24.282-.398.282-2.73.282-6.82.564-27.902.563-43.911.846-77.761.564-36.967.282-.899.564 24.003.564 38.456.564 41.745.846 40.276.564 12.576.564 10.556.846 8.385.564 4.295.563 6.588.282 1.772.282 2.61.564 8.206.282-.778.282-2.531.282-.148.282 1.732.282-.593.282-5.393.282-9.972.564-32.398.846-78.757.564-44.455.282-12.642.282-4.992.282 3.346.564 21.447.563 32.937.846 62.344.282 16.453.282 9.09.282 1.161.282 2.692.564 16.565.282.678.282 2.003.564 14.42.564-2.217.564 10.67.282.16.282-1.35.282 3.455.282 6.333.282 2.674.282-2.426.563-8.819.282-8.702.282-16.165 1.128-98.93.564-45.795.282-12.774.282-7.126.282-.55.282 8.62.846 39.85.846 57.725.564 22.697.564 23.223.845 18.448.564 8.287.564 4.072 1.128 13.1.564 5.159.564 2.858.282.082.282-2.333.282-5.64.282-9.834.282-15.99.846-75.985.846-75.616.282-10.422.563-1.935.282-.963.282 5.717.846 45.23 1.41 81.542.564 19.753.282 3.152.282.635.282 2.427.564 9.427.564 2.775.282 4.574.564 12.154.282 3.648.563 11 .282 1.683.564-2.573.282-4.106.282-10.688.564-33.285.564-48.66.846-76.368.282-17.689.282-8.135.282-.403.282 2.993.282 6.64.564 28.39 1.128 73.032 1.691 35.39.564 10.854.846 8.073.282 3.952.846 22.642.282-.204.282 1.94.282 4.024.282-.234.564-10.213.282-8.53.564-37.322 1.691-130.58.282-7.495.282-1.013.282 2.712.282 5.722.282 10.94 1.41 77.897.564 20.262.564 16.078.564 18.738.564 10.288.564 11.992.563 5.374 1.128 15.266.282 2.923.282.677.282-3.214.564-10.41.282-11.302.846-70.949 1.128-92.206.564-14.892.282-1.42.282 5.475.564 21.323.564 31.978.845 53.052.846 32.035.282 1.68.282.022.282 2.828.282 4.048.282 2.006.282-.53.282-2.993.564-12.556.846-28.427.282-3.598.282-.297.282.389.282 3.061.846 22.525.281 3.617.846 5.91.282 1.41.282.107.282.397.564 4.45.282.609.282-.152.282.145.282-.134.282-.433.282.555 1.41 8.555.282.43.282-.268.564-1.422.282.338.282 2.054.281 4.045.564 14.948.564 16.263.282 4.736.282 2.46.282-1.427.282-6.423.564-22.778.564-45.53.846-84.29.564-36.377.282-7.932.282-4.681.282-2.342.282 1.397.564 11.644.563 18.348.564 33.388.846 56.19.564 21.88.564 13.873.846 22.434.846 12.566.282 1.889.282.093.282-.344.282.627.564 3.053.282 2.135.282 3.195.282 1.824.281-3.162.282-8.25.282-11.547.282-17.226 1.128-97.841.564-30.934.282-3.612.282 1.835.282 5.008.846 24.803.564 32.234.564 26.874.564 18.187.282 5.594.282 7.825.564 22.915.845 11.455.846 16.681 1.128 15.992.282-2.83.846-19.073.564-41.201 1.41-124.706.282-10.258.282-4.267.282-.65.282.957.281 5.221 1.41 60.475.564 33.966.564 21.492.846 27.66 1.128 21.913.282 1.612.282 4.598.282 7.137.282 3.415.282.733.282 5.117.282 8.687.282 4.323.281-1.72.282-4.562.282-9.401.564-42.66 1.128-104.266.282-12.954 1.128-19.134.282 3.139.564 10.848.282 4.53.282 8.725.846 41.242.846 46.393.563 19.9.282 4.991.282 2.34.282 4.172 1.692 43.886.282 7.059.282 3.646.564 3.67.282-1.068.282-10.622.846-63.365 1.128-102.977.845-38.36.282-7.063.282-3.286.282 1.166.282 6.204.564 22.19.564 31.089 1.41 92.826.564 17.827.846 14.579.282 3.1.564 3.36.282 4.087.564 11.244.563 6.105.282 1.071.282-.348.282-2.155.282-5.1.282-8.14.282-11.845.282-20.502.846-98.397 1.128-56.91.282.447.282 5.863.282 3.011.282.08.282 2.74.282 8.968 1.41 69.841.563 33.53.564 21.785.564 13.887.282 4.11.846 20.38.282 2.082.282 4.584.282 7.117.282 2.905.282-2.122.282-.19.282 3.539.282 2.041.282-2.664.282-7.179.282-12.75.564-44.849.845-87.528.564-26.756.564-20.584.282-6.358.282-2.317.282 2.525.282 7.083.564 23.681.846 39.926.846 59.636.846 34.01.564 3.6.564 10.422.282.353.281 1.036.846 17.22.282.352 1.128 2.726.282-2.057.282-8.323.282-16.279.564-53.8.564-58.745.564-34.046.564-23.667.282-2.433.282 2.635.282 4.43.282 6.72.563 22.386 1.128 52.804.564 37.874.282 9.47.282 3.355.282 5.925.564 16.631.282 3.937.282 5.716.564 15.765 1.41 20.554.282.494.564 8.939.282-1.363.281-12.31.282-23.064 1.128-128.851.564-35.448.564-17.77.282-7.2.282-1.724.282 6.561 1.41 51.171.282 14.544.564 40.48 1.128 45.518.563 12.765.564 17.803.282 2.874.282 4.676.564 15.153.282 1.1.282.337.564 9.372.282.702.282-4.12.282-5.912.282-10.275.282-21.345.846-86.11.846-57.556.564-19.864.282-7.001.281.789 2.256 92.446.564 23.506 1.128 37.058.846 27.403.564 11.42.564 12.375.846 11.592.282 1.176.281-3.032.282-8.705.282-13.915.564-46.708.564-59.422.846-47.758.564-25.632.282-5.061.282-.7.282 2.021.282 4.152.564 16.802.846 31.24 1.128 55.42.563 17.596.564 21.48.564 8.536 1.128 26.896.282 5.425.282 2.925.282 4.157.564 15.682.282-.13.282-4.48.282-7.39.282-17.92 1.128-118.134.564-34.355.563-17.479.282-6.027.282-2.572.282 3.058.846 21.464.846 32.021 1.692 69.057.564 16.564.564 14.193.846 12.5.564 14.263.563 7.517.282 5.05.282.907.846-8.823.282-13.226 1.41-132.02.564-32.705.564-14.239.282-3.17.282 5.029 1.41 60.429.282 7.45.281 3.067.282 7.87.564 26.847 1.692 47.1.564 11.68.846 31.24.846 11.989.282-3.174.564-15.732.282-11.139.564-50.572.563-52.015.564-33.097.564-25.942.282-8.609.282-.792.846 17.434.564 17.884 1.41 43.01.282 5.818.282 8.886.564 23.172.564 12.014.564 17.748.563 9.09.846 20.983 1.128 21.536.282-1.808.282-10.07.564-45.97.846-67.574.564-27.474.846-34.458.282-2.814.282 1.515.282 3.029.282 7.057.563 24.611.564 14.61.564 23.213.564 7.855.846 25.324.846 19.76.282 2.323.282 4.57.846 22.56 1.41 26.268.282-.805.282-7.15.282-18.27.563-53.922 1.128-67.209.564-20.43.282-7.923.282-2.993.282 3.361.564 11.406 1.41 43.586.564 16.83.564 13.809.846 23.111.563 9.487.564 9.945 1.41 34.58.282 3.975.282 1.398.282.13.282-2.899.282-11.723 1.41-100.954.564-25.5.564-17.43.564-9.873.281-1.209.282 5.31.846 25.544.564 28.602.846 23.073.282 9.633.846 15.328.846 12.856.564-3.172.282 4.269.282 6.319.282 2.016.282.625.846 11.842.281-.299.282-3.97.282-13.056.564-39.115.846-34.954.564-16.694.282-5.302.282-2.588.282 1.534.564 12.74 1.974 45.873.846 12.343.281 2.846.564 3.597.564 5.836.282 1.352.282 2.743.564 14.245.564 14.865.564 8.667.282 3.505.282.41.282-6.22.564-27.446.846-43.693.846-31.937.563-14.028.282-4.492.282-.472.282.686.282-1.221.282 2.335.846 28.361.282 5.937.564 17.084 1.41 21.189.564 18.36.846 10.368 1.691 27.794.282 1.157.282-8.162 1.692-93.919 1.128-37.874.282-5.45.282-.452 1.128 25.415.564 20.433.564 16.046 1.973 44.015.282.78.282.077 1.41 19.86.564 13.631.282.627.282-2.816.282-6.984.282-12.403.846-51.154.846-31.138.281-10.015h0" clip-path="url(#pea942a68bc)" style="fill:none;stroke:#1f77b4;stroke-width:1.5;stroke-linecap:square"/><path id="patch_3" d="M71.308 266.112V0" style="fill:none;stroke:gray;stroke-width:.8;stroke-linejoin:miter;stroke-linecap:square"/><path id="patch_4" d="M685.107 266.112V0" style="fill:none;stroke:#000;stroke-width:.8;stroke-linejoin:miter;stroke-linecap:square"/><path id="patch_5" d="M71.308 266.112h613.8" style="fill:none;stroke:gray;stroke-width:.8;stroke-linejoin:miter;stroke-linecap:square"/><path id="patch_6" d="M71.308 0h613.8" style="fill:none;stroke:#000;stroke-width:.8;stroke-linejoin:miter;stroke-linecap:square"/></g></g><defs><clipPath id="pea942a68bc"><path d="M71.308 0h613.8v266.112h-613.8z"/></clipPath></defs></svg>