<?xml version="1.0" encoding="utf-8" standalone="no"?>
<!DOCTYPE svg PUBLIC "-//W3C//DTD SVG 1.1//EN"
  "http://www.w3.org/Graphics/SVG/1.1/DTD/svg11.dtd">
<svg xmlns:xlink="http://www.w3.org/1999/xlink" width="660.992188pt" height="282.790125pt" viewBox="0 0 660.992188 282.790125" xmlns="http://www.w3.org/2000/svg" version="1.1">
 <metadata>
  <rdf:RDF xmlns:dc="http://purl.org/dc/elements/1.1/" xmlns:cc="http://creativecommons.org/ns#" xmlns:rdf="http://www.w3.org/1999/02/22-rdf-syntax-ns#">
   <cc:Work>
    <dc:type rdf:resource="http://purl.org/dc/dcmitype/StillImage"/>
    <dc:date>2023-03-06T19:30:26.692762</dc:date>
    <dc:format>image/svg+xml</dc:format>
    <dc:creator>
     <cc:Agent>
      <dc:title>Matplotlib v3.6.3, https://matplotlib.org/</dc:title>
     </cc:Agent>
    </dc:creator>
   </cc:Work>
  </rdf:RDF>
 </metadata>
 <defs>
  <style type="text/css">*{stroke-linejoin: round; stroke-linecap: butt}</style>
 </defs>
 <g id="figure_1">
  <g id="patch_1">
   <path d="M -0 282.790125 
L 660.992188 282.790125 
L 660.992188 0 
L -0 0 
L -0 282.790125 
z
" style="fill: none"/>
  </g>
  <g id="axes_1">
   <g id="patch_2">
    <path d="M 47.192188 266.112 
L 660.992188 266.112 
L 660.992188 0 
L 47.192188 0 
L 47.192188 266.112 
z
" style="fill: none"/>
   </g>
   <g id="matplotlib.axis_1">
    <g id="xtick_1">
     <g id="line2d_1">
      <defs>
       <path id="md03a604fe3" d="M 0 0 
L 0 3.5 
" style="stroke: #000000; stroke-width: 0.8"/>
      </defs>
      <g>
       <use xlink:href="#md03a604fe3" x="75.092188" y="266.112" style="stroke: #000000; stroke-width: 0.8"/>
      </g>
     </g>
     <g id="text_1">
      <!-- 0 -->
      <g transform="translate(71.910938 280.710438) scale(0.1 -0.1)">
       <defs>
        <path id="DejaVuSans-30" d="M 2034 4250 
Q 1547 4250 1301 3770 
Q 1056 3291 1056 2328 
Q 1056 1369 1301 889 
Q 1547 409 2034 409 
Q 2525 409 2770 889 
Q 3016 1369 3016 2328 
Q 3016 3291 2770 3770 
Q 2525 4250 2034 4250 
z
M 2034 4750 
Q 2819 4750 3233 4129 
Q 3647 3509 3647 2328 
Q 3647 1150 3233 529 
Q 2819 -91 2034 -91 
Q 1250 -91 836 529 
Q 422 1150 422 2328 
Q 422 3509 836 4129 
Q 1250 4750 2034 4750 
z
" transform="scale(0.015625)"/>
       </defs>
       <use xlink:href="#DejaVuSans-30"/>
      </g>
     </g>
    </g>
    <g id="xtick_2">
     <g id="line2d_2">
      <g>
       <use xlink:href="#md03a604fe3" x="144.842188" y="266.112" style="stroke: #000000; stroke-width: 0.8"/>
      </g>
     </g>
     <g id="text_2">
      <!-- 500 -->
      <g transform="translate(135.298438 280.710438) scale(0.1 -0.1)">
       <defs>
        <path id="DejaVuSans-35" d="M 691 4666 
L 3169 4666 
L 3169 4134 
L 1269 4134 
L 1269 2991 
Q 1406 3038 1543 3061 
Q 1681 3084 1819 3084 
Q 2600 3084 3056 2656 
Q 3513 2228 3513 1497 
Q 3513 744 3044 326 
Q 2575 -91 1722 -91 
Q 1428 -91 1123 -41 
Q 819 9 494 109 
L 494 744 
Q 775 591 1075 516 
Q 1375 441 1709 441 
Q 2250 441 2565 725 
Q 2881 1009 2881 1497 
Q 2881 1984 2565 2268 
Q 2250 2553 1709 2553 
Q 1456 2553 1204 2497 
Q 953 2441 691 2322 
L 691 4666 
z
" transform="scale(0.015625)"/>
       </defs>
       <use xlink:href="#DejaVuSans-35"/>
       <use xlink:href="#DejaVuSans-30" x="63.623047"/>
       <use xlink:href="#DejaVuSans-30" x="127.246094"/>
      </g>
     </g>
    </g>
    <g id="xtick_3">
     <g id="line2d_3">
      <g>
       <use xlink:href="#md03a604fe3" x="214.592188" y="266.112" style="stroke: #000000; stroke-width: 0.8"/>
      </g>
     </g>
     <g id="text_3">
      <!-- 1000 -->
      <g transform="translate(201.867188 280.710438) scale(0.1 -0.1)">
       <defs>
        <path id="DejaVuSans-31" d="M 794 531 
L 1825 531 
L 1825 4091 
L 703 3866 
L 703 4441 
L 1819 4666 
L 2450 4666 
L 2450 531 
L 3481 531 
L 3481 0 
L 794 0 
L 794 531 
z
" transform="scale(0.015625)"/>
       </defs>
       <use xlink:href="#DejaVuSans-31"/>
       <use xlink:href="#DejaVuSans-30" x="63.623047"/>
       <use xlink:href="#DejaVuSans-30" x="127.246094"/>
       <use xlink:href="#DejaVuSans-30" x="190.869141"/>
      </g>
     </g>
    </g>
    <g id="xtick_4">
     <g id="line2d_4">
      <g>
       <use xlink:href="#md03a604fe3" x="284.342188" y="266.112" style="stroke: #000000; stroke-width: 0.8"/>
      </g>
     </g>
     <g id="text_4">
      <!-- 1500 -->
      <g transform="translate(271.617188 280.710438) scale(0.1 -0.1)">
       <use xlink:href="#DejaVuSans-31"/>
       <use xlink:href="#DejaVuSans-35" x="63.623047"/>
       <use xlink:href="#DejaVuSans-30" x="127.246094"/>
       <use xlink:href="#DejaVuSans-30" x="190.869141"/>
      </g>
     </g>
    </g>
    <g id="xtick_5">
     <g id="line2d_5">
      <g>
       <use xlink:href="#md03a604fe3" x="354.092188" y="266.112" style="stroke: #000000; stroke-width: 0.8"/>
      </g>
     </g>
     <g id="text_5">
      <!-- 2000 -->
      <g transform="translate(341.367188 280.710438) scale(0.1 -0.1)">
       <defs>
        <path id="DejaVuSans-32" d="M 1228 531 
L 3431 531 
L 3431 0 
L 469 0 
L 469 531 
Q 828 903 1448 1529 
Q 2069 2156 2228 2338 
Q 2531 2678 2651 2914 
Q 2772 3150 2772 3378 
Q 2772 3750 2511 3984 
Q 2250 4219 1831 4219 
Q 1534 4219 1204 4116 
Q 875 4013 500 3803 
L 500 4441 
Q 881 4594 1212 4672 
Q 1544 4750 1819 4750 
Q 2544 4750 2975 4387 
Q 3406 4025 3406 3419 
Q 3406 3131 3298 2873 
Q 3191 2616 2906 2266 
Q 2828 2175 2409 1742 
Q 1991 1309 1228 531 
z
" transform="scale(0.015625)"/>
       </defs>
       <use xlink:href="#DejaVuSans-32"/>
       <use xlink:href="#DejaVuSans-30" x="63.623047"/>
       <use xlink:href="#DejaVuSans-30" x="127.246094"/>
       <use xlink:href="#DejaVuSans-30" x="190.869141"/>
      </g>
     </g>
    </g>
    <g id="xtick_6">
     <g id="line2d_6">
      <g>
       <use xlink:href="#md03a604fe3" x="423.842188" y="266.112" style="stroke: #000000; stroke-width: 0.8"/>
      </g>
     </g>
     <g id="text_6">
      <!-- 2500 -->
      <g transform="translate(411.117188 280.710438) scale(0.1 -0.1)">
       <use xlink:href="#DejaVuSans-32"/>
       <use xlink:href="#DejaVuSans-35" x="63.623047"/>
       <use xlink:href="#DejaVuSans-30" x="127.246094"/>
       <use xlink:href="#DejaVuSans-30" x="190.869141"/>
      </g>
     </g>
    </g>
    <g id="xtick_7">
     <g id="line2d_7">
      <g>
       <use xlink:href="#md03a604fe3" x="493.592188" y="266.112" style="stroke: #000000; stroke-width: 0.8"/>
      </g>
     </g>
     <g id="text_7">
      <!-- 3000 -->
      <g transform="translate(480.867188 280.710438) scale(0.1 -0.1)">
       <defs>
        <path id="DejaVuSans-33" d="M 2597 2516 
Q 3050 2419 3304 2112 
Q 3559 1806 3559 1356 
Q 3559 666 3084 287 
Q 2609 -91 1734 -91 
Q 1441 -91 1130 -33 
Q 819 25 488 141 
L 488 750 
Q 750 597 1062 519 
Q 1375 441 1716 441 
Q 2309 441 2620 675 
Q 2931 909 2931 1356 
Q 2931 1769 2642 2001 
Q 2353 2234 1838 2234 
L 1294 2234 
L 1294 2753 
L 1863 2753 
Q 2328 2753 2575 2939 
Q 2822 3125 2822 3475 
Q 2822 3834 2567 4026 
Q 2313 4219 1838 4219 
Q 1578 4219 1281 4162 
Q 984 4106 628 3988 
L 628 4550 
Q 988 4650 1302 4700 
Q 1616 4750 1894 4750 
Q 2613 4750 3031 4423 
Q 3450 4097 3450 3541 
Q 3450 3153 3228 2886 
Q 3006 2619 2597 2516 
z
" transform="scale(0.015625)"/>
       </defs>
       <use xlink:href="#DejaVuSans-33"/>
       <use xlink:href="#DejaVuSans-30" x="63.623047"/>
       <use xlink:href="#DejaVuSans-30" x="127.246094"/>
       <use xlink:href="#DejaVuSans-30" x="190.869141"/>
      </g>
     </g>
    </g>
    <g id="xtick_8">
     <g id="line2d_8">
      <g>
       <use xlink:href="#md03a604fe3" x="563.342188" y="266.112" style="stroke: #000000; stroke-width: 0.8"/>
      </g>
     </g>
     <g id="text_8">
      <!-- 3500 -->
      <g transform="translate(550.617188 280.710438) scale(0.1 -0.1)">
       <use xlink:href="#DejaVuSans-33"/>
       <use xlink:href="#DejaVuSans-35" x="63.623047"/>
       <use xlink:href="#DejaVuSans-30" x="127.246094"/>
       <use xlink:href="#DejaVuSans-30" x="190.869141"/>
      </g>
     </g>
    </g>
    <g id="xtick_9">
     <g id="line2d_9">
      <g>
       <use xlink:href="#md03a604fe3" x="633.092188" y="266.112" style="stroke: #000000; stroke-width: 0.8"/>
      </g>
     </g>
     <g id="text_9">
      <!-- 4000 -->
      <g transform="translate(620.367188 280.710438) scale(0.1 -0.1)">
       <defs>
        <path id="DejaVuSans-34" d="M 2419 4116 
L 825 1625 
L 2419 1625 
L 2419 4116 
z
M 2253 4666 
L 3047 4666 
L 3047 1625 
L 3713 1625 
L 3713 1100 
L 3047 1100 
L 3047 0 
L 2419 0 
L 2419 1100 
L 313 1100 
L 313 1709 
L 2253 4666 
z
" transform="scale(0.015625)"/>
       </defs>
       <use xlink:href="#DejaVuSans-34"/>
       <use xlink:href="#DejaVuSans-30" x="63.623047"/>
       <use xlink:href="#DejaVuSans-30" x="127.246094"/>
       <use xlink:href="#DejaVuSans-30" x="190.869141"/>
      </g>
     </g>
    </g>
   </g>
   <g id="matplotlib.axis_2">
    <g id="ytick_1">
     <g id="line2d_10">
      <defs>
       <path id="mb582a13e6f" d="M 0 0 
L -3.5 0 
" style="stroke: #000000; stroke-width: 0.8"/>
      </defs>
      <g>
       <use xlink:href="#mb582a13e6f" x="47.192188" y="255.499982" style="stroke: #000000; stroke-width: 0.8"/>
      </g>
     </g>
     <g id="text_10">
      <!-- −30000 -->
      <g transform="translate(0 259.2992) scale(0.1 -0.1)">
       <defs>
        <path id="DejaVuSans-2212" d="M 678 2272 
L 4684 2272 
L 4684 1741 
L 678 1741 
L 678 2272 
z
" transform="scale(0.015625)"/>
       </defs>
       <use xlink:href="#DejaVuSans-2212"/>
       <use xlink:href="#DejaVuSans-33" x="83.789062"/>
       <use xlink:href="#DejaVuSans-30" x="147.412109"/>
       <use xlink:href="#DejaVuSans-30" x="211.035156"/>
       <use xlink:href="#DejaVuSans-30" x="274.658203"/>
       <use xlink:href="#DejaVuSans-30" x="338.28125"/>
      </g>
     </g>
    </g>
    <g id="ytick_2">
     <g id="line2d_11">
      <g>
       <use xlink:href="#mb582a13e6f" x="47.192188" y="218.591643" style="stroke: #000000; stroke-width: 0.8"/>
      </g>
     </g>
     <g id="text_11">
      <!-- −20000 -->
      <g transform="translate(0 222.390862) scale(0.1 -0.1)">
       <use xlink:href="#DejaVuSans-2212"/>
       <use xlink:href="#DejaVuSans-32" x="83.789062"/>
       <use xlink:href="#DejaVuSans-30" x="147.412109"/>
       <use xlink:href="#DejaVuSans-30" x="211.035156"/>
       <use xlink:href="#DejaVuSans-30" x="274.658203"/>
       <use xlink:href="#DejaVuSans-30" x="338.28125"/>
      </g>
     </g>
    </g>
    <g id="ytick_3">
     <g id="line2d_12">
      <g>
       <use xlink:href="#mb582a13e6f" x="47.192188" y="181.683305" style="stroke: #000000; stroke-width: 0.8"/>
      </g>
     </g>
     <g id="text_12">
      <!-- −10000 -->
      <g transform="translate(0 185.482523) scale(0.1 -0.1)">
       <use xlink:href="#DejaVuSans-2212"/>
       <use xlink:href="#DejaVuSans-31" x="83.789062"/>
       <use xlink:href="#DejaVuSans-30" x="147.412109"/>
       <use xlink:href="#DejaVuSans-30" x="211.035156"/>
       <use xlink:href="#DejaVuSans-30" x="274.658203"/>
       <use xlink:href="#DejaVuSans-30" x="338.28125"/>
      </g>
     </g>
    </g>
    <g id="ytick_4">
     <g id="line2d_13">
      <g>
       <use xlink:href="#mb582a13e6f" x="47.192188" y="144.774966" style="stroke: #000000; stroke-width: 0.8"/>
      </g>
     </g>
     <g id="text_13">
      <!-- 0 -->
      <g transform="translate(33.829688 148.574185) scale(0.1 -0.1)">
       <use xlink:href="#DejaVuSans-30"/>
      </g>
     </g>
    </g>
    <g id="ytick_5">
     <g id="line2d_14">
      <g>
       <use xlink:href="#mb582a13e6f" x="47.192188" y="107.866627" style="stroke: #000000; stroke-width: 0.8"/>
      </g>
     </g>
     <g id="text_14">
      <!-- 10000 -->
      <g transform="translate(8.379688 111.665846) scale(0.1 -0.1)">
       <use xlink:href="#DejaVuSans-31"/>
       <use xlink:href="#DejaVuSans-30" x="63.623047"/>
       <use xlink:href="#DejaVuSans-30" x="127.246094"/>
       <use xlink:href="#DejaVuSans-30" x="190.869141"/>
       <use xlink:href="#DejaVuSans-30" x="254.492188"/>
      </g>
     </g>
    </g>
    <g id="ytick_6">
     <g id="line2d_15">
      <g>
       <use xlink:href="#mb582a13e6f" x="47.192188" y="70.958289" style="stroke: #000000; stroke-width: 0.8"/>
      </g>
     </g>
     <g id="text_15">
      <!-- 20000 -->
      <g transform="translate(8.379688 74.757508) scale(0.1 -0.1)">
       <use xlink:href="#DejaVuSans-32"/>
       <use xlink:href="#DejaVuSans-30" x="63.623047"/>
       <use xlink:href="#DejaVuSans-30" x="127.246094"/>
       <use xlink:href="#DejaVuSans-30" x="190.869141"/>
       <use xlink:href="#DejaVuSans-30" x="254.492188"/>
      </g>
     </g>
    </g>
    <g id="ytick_7">
     <g id="line2d_16">
      <g>
       <use xlink:href="#mb582a13e6f" x="47.192188" y="34.04995" style="stroke: #000000; stroke-width: 0.8"/>
      </g>
     </g>
     <g id="text_16">
      <!-- 30000 -->
      <g transform="translate(8.379688 37.849169) scale(0.1 -0.1)">
       <use xlink:href="#DejaVuSans-33"/>
       <use xlink:href="#DejaVuSans-30" x="63.623047"/>
       <use xlink:href="#DejaVuSans-30" x="127.246094"/>
       <use xlink:href="#DejaVuSans-30" x="190.869141"/>
       <use xlink:href="#DejaVuSans-30" x="254.492188"/>
      </g>
     </g>
    </g>
   </g>
   <g id="line2d_17">
    <path d="M 75.092188 144.8763 
L 75.374148 144.680548 
L 75.656109 144.863017 
L 75.938069 144.692809 
L 76.22003 144.851638 
L 76.50199 144.703425 
L 76.783951 144.841685 
L 77.065912 144.7128 
L 77.347872 144.832813 
L 77.629833 144.721235 
L 77.911793 144.824758 
L 78.193754 144.728961 
L 78.475715 144.817315 
L 78.757675 144.736162 
L 79.039636 144.810316 
L 79.321596 144.742994 
L 79.603557 144.803618 
L 80.167478 144.797091 
L 81.01336 144.762583 
L 82.705123 144.783577 
L 84.114926 144.744181 
L 84.396887 144.811179 
L 84.678847 144.732836 
L 84.960808 144.823603 
L 85.242769 144.719105 
L 85.524729 144.838929 
L 85.80669 144.701811 
L 86.08865 144.858684 
L 86.370611 144.678933 
L 86.652572 144.8856 
L 86.934532 144.646676 
L 87.216493 144.925117 
L 87.498453 144.596949 
L 87.780414 144.989837 
L 88.062374 144.508929 
L 88.344335 145.116968 
L 88.626296 144.308414 
L 88.908256 145.481781 
L 89.190217 143.430688 
L 89.472177 151.009663 
L 89.754138 165.253452 
L 90.036099 166.631383 
L 90.318059 170.97624 
L 90.88198 174.561827 
L 91.163941 173.37548 
L 91.445901 170.687698 
L 91.727862 162.562825 
L 92.291783 131.328986 
L 93.137665 81.265157 
L 93.419626 68.936013 
L 93.701586 63.015694 
L 93.983547 63.084538 
L 94.265507 68.480796 
L 94.547468 77.008552 
L 95.111389 103.297138 
L 95.957271 144.953382 
L 96.521192 159.512626 
L 97.085113 167.734397 
L 97.367074 169.186647 
L 97.649034 168.452691 
L 98.494916 159.35885 
L 98.776877 157.789781 
L 99.340798 148.281683 
L 99.622758 147.192659 
L 100.18668 156.177377 
L 100.46864 157.289419 
L 100.750601 157.277952 
L 101.032561 158.633751 
L 101.314522 159.276354 
L 101.596483 159.23045 
L 101.878443 159.821137 
L 102.160404 161.31133 
L 102.724325 161.746072 
L 103.006286 162.992093 
L 103.288246 165.141369 
L 103.570207 166.258048 
L 104.134128 167.52058 
L 104.98001 171.184919 
L 105.26197 171.109633 
L 105.543931 170.440481 
L 105.825891 170.246556 
L 106.389813 172.015946 
L 106.671773 173.712524 
L 107.235694 179.391696 
L 107.517655 178.902295 
L 108.363537 172.229096 
L 108.645497 166.576945 
L 108.927458 155.052909 
L 109.491379 115.208536 
L 110.0553 74.74267 
L 110.619221 53.202265 
L 110.901182 48.15027 
L 111.183143 50.763237 
L 111.747064 75.790335 
L 113.438827 154.392852 
L 113.720788 161.292537 
L 114.002748 164.333231 
L 114.56667 165.793302 
L 114.84863 165.781324 
L 115.130591 163.776635 
L 115.412551 160.492022 
L 115.694512 158.55143 
L 115.976472 157.535425 
L 116.258433 155.511903 
L 116.540394 152.453242 
L 116.822354 151.592055 
L 117.386275 156.589958 
L 117.668236 157.09671 
L 117.950197 156.512571 
L 118.232157 156.724298 
L 118.514118 157.473887 
L 118.796078 156.366086 
L 119.36 151.166213 
L 119.64196 151.201152 
L 120.487842 154.665216 
L 121.051763 157.519218 
L 121.897645 164.642004 
L 122.461566 166.10161 
L 122.743527 168.817153 
L 123.307448 176.372509 
L 123.871369 179.149743 
L 124.153329 180.272162 
L 124.999211 181.971819 
L 125.281172 180.875079 
L 125.563132 176.094524 
L 125.845093 167.209944 
L 126.127054 153.254561 
L 126.690975 107.584702 
L 127.254896 67.731906 
L 127.536857 59.45745 
L 127.818817 54.73846 
L 128.100778 51.990701 
L 128.382738 52.934002 
L 128.664699 59.210382 
L 129.22862 82.79217 
L 130.638423 156.131411 
L 130.920384 161.907692 
L 131.202344 162.997782 
L 131.484305 162.601967 
L 132.048226 162.507183 
L 132.330186 161.193454 
L 132.894108 154.27071 
L 133.176068 151.1576 
L 133.458029 149.826498 
L 133.739989 149.144639 
L 134.303911 146.206097 
L 134.585871 146.728939 
L 134.867832 148.162109 
L 135.431753 148.969665 
L 135.713714 150.187375 
L 136.559595 156.01066 
L 136.841556 158.132051 
L 137.123516 159.185927 
L 137.405477 159.356309 
L 137.687438 159.945706 
L 137.969398 161.140485 
L 138.81528 165.70226 
L 139.097241 166.607149 
L 139.943122 174.11703 
L 140.225083 173.686843 
L 140.507043 174.4641 
L 141.070965 178.547902 
L 141.352925 178.635981 
L 141.916846 179.974518 
L 142.198807 179.2318 
L 142.480768 176.204372 
L 142.762728 169.325136 
L 143.044689 154.842328 
L 144.172531 72.910971 
L 144.454492 61.177671 
L 144.736452 54.869151 
L 145.018413 53.410047 
L 145.300373 55.569558 
L 145.582334 62.824903 
L 146.146255 92.582591 
L 146.992137 140.147469 
L 147.556058 157.860356 
L 147.838019 162.332709 
L 148.119979 164.639251 
L 148.40194 164.530644 
L 148.6839 163.769593 
L 148.965861 164.466669 
L 149.247822 164.682897 
L 149.529782 161.211995 
L 150.093703 149.014635 
L 150.375664 147.12654 
L 150.657625 147.155951 
L 151.221546 145.784784 
L 151.503506 147.49714 
L 152.067428 153.233023 
L 152.631349 153.624879 
L 153.19527 157.181962 
L 153.759191 161.77242 
L 154.041152 163.024044 
L 154.323112 162.97579 
L 154.605073 163.510951 
L 154.887033 164.6627 
L 155.168994 164.574901 
L 155.450955 163.344184 
L 155.732915 163.472951 
L 156.296836 166.22436 
L 156.578797 167.214352 
L 156.860757 169.65678 
L 157.9886 185.107905 
L 158.27056 184.806758 
L 158.552521 183.622119 
L 158.834482 183.627928 
L 159.116442 181.821621 
L 159.398403 173.584396 
L 159.962324 141.970269 
L 161.090166 63.497457 
L 161.654087 54.853337 
L 161.936048 53.341987 
L 162.218009 56.460076 
L 162.499969 64.399803 
L 163.06389 91.926903 
L 163.627812 126.719007 
L 164.191733 149.081996 
L 164.473693 157.282406 
L 164.755654 161.144274 
L 165.037614 159.636075 
L 165.319575 156.697143 
L 165.601536 155.985784 
L 165.883496 156.444005 
L 166.165457 155.21083 
L 166.447417 153.31052 
L 166.729378 153.465758 
L 167.011339 155.18509 
L 167.293299 155.601471 
L 167.57526 154.884134 
L 168.139181 155.06284 
L 168.703102 152.391889 
L 168.985063 154.42606 
L 169.267023 157.637186 
L 169.548984 158.314047 
L 169.830944 157.683255 
L 170.112905 158.668033 
L 170.394866 160.486789 
L 170.958787 161.566891 
L 171.804669 167.583204 
L 172.36859 170.315743 
L 172.932511 171.020026 
L 173.214471 173.04679 
L 173.778393 178.632673 
L 174.060353 180.318495 
L 174.906235 186.771732 
L 175.188196 186.433304 
L 175.470156 186.378412 
L 175.752117 186.631993 
L 176.034077 183.717697 
L 176.316038 173.233119 
L 176.879959 130.830737 
L 177.44388 85.34256 
L 178.007801 55.537629 
L 178.571723 41.113099 
L 178.853683 39.538741 
L 179.135644 43.113787 
L 179.417604 52.211367 
L 180.545447 110.058843 
L 181.109368 138.754122 
L 181.391328 147.401162 
L 181.95525 154.281677 
L 182.23721 156.999202 
L 182.519171 158.31978 
L 182.801131 157.898398 
L 183.365053 155.742054 
L 183.647013 155.247826 
L 183.928974 156.539845 
L 184.492895 161.184621 
L 184.774856 161.157559 
L 185.056816 160.779907 
L 185.338777 160.912918 
L 185.620737 160.466077 
L 186.184658 156.904944 
L 186.466619 156.454613 
L 187.03054 157.771356 
L 187.312501 157.418859 
L 187.594461 157.669385 
L 187.876422 160.675276 
L 188.440343 169.984447 
L 189.004264 175.202843 
L 189.286225 176.954158 
L 189.568185 177.591824 
L 189.850146 178.842157 
L 190.414067 185.069162 
L 190.696028 185.458425 
L 190.977988 185.411084 
L 191.259949 188.291968 
L 191.82387 196.608243 
L 192.387791 198.537088 
L 192.669752 201.317125 
L 192.951713 202.058433 
L 193.233673 194.141145 
L 193.797594 151.54631 
L 194.925437 56.423468 
L 195.489358 35.034987 
L 195.771318 30.609276 
L 196.053279 32.044491 
L 196.6172 47.929978 
L 197.181121 75.724495 
L 198.308964 143.356426 
L 198.590924 151.546082 
L 198.872885 154.321566 
L 199.154845 155.345398 
L 200.000727 163.150875 
L 200.564648 161.173862 
L 201.12857 164.144201 
L 201.41053 163.125759 
L 201.974451 157.973172 
L 202.820333 156.121637 
L 203.384254 155.799569 
L 203.666215 155.466556 
L 203.948175 155.844962 
L 204.512097 157.930226 
L 204.794057 158.96307 
L 205.076018 162.099615 
L 205.639939 171.441026 
L 206.20386 176.066048 
L 206.767781 178.881558 
L 207.049742 180.259138 
L 208.177584 190.681115 
L 208.741505 198.812942 
L 209.023466 199.689123 
L 209.305427 198.93305 
L 209.587387 199.203926 
L 209.869348 199.243399 
L 210.151308 193.809907 
L 210.433269 180.119167 
L 211.279151 116.708818 
L 212.125032 54.523567 
L 212.688954 35.223289 
L 212.970914 32.425167 
L 213.252875 35.754109 
L 213.816796 51.772317 
L 214.098756 62.592992 
L 214.662678 98.016047 
L 215.226599 138.101982 
L 215.508559 149.853271 
L 216.072481 160.293209 
L 216.354441 162.065994 
L 216.636402 160.016817 
L 216.918362 156.030839 
L 217.200323 154.082395 
L 217.482284 154.264597 
L 217.764244 153.83085 
L 218.046205 152.475349 
L 218.328165 152.072508 
L 218.610126 152.393433 
L 219.174047 152.082305 
L 220.019929 155.761709 
L 221.429732 161.938539 
L 221.711692 162.468549 
L 221.993653 162.601144 
L 222.275613 164.727792 
L 222.839535 174.695362 
L 224.249338 187.099158 
L 224.531298 188.685181 
L 225.941101 199.722639 
L 226.223062 199.067556 
L 227.068943 194.439829 
L 227.350904 188.296451 
L 227.632865 174.59193 
L 228.196786 124.079736 
L 228.760707 74.844585 
L 229.324628 42.770763 
L 229.606589 32.854301 
L 229.888549 30.51455 
L 230.17051 34.683168 
L 231.016392 57.18148 
L 231.580313 86.798927 
L 232.426195 142.687519 
L 232.708155 152.806654 
L 232.990116 158.565779 
L 233.272076 161.212642 
L 233.554037 161.432892 
L 233.835998 159.568287 
L 234.399919 154.767084 
L 234.96384 154.204645 
L 235.2458 153.408311 
L 235.527761 154.142705 
L 236.091682 160.731166 
L 236.373643 160.945965 
L 236.655603 160.530177 
L 237.219525 164.469222 
L 237.783446 165.18861 
L 238.347367 168.439102 
L 238.629327 169.419784 
L 238.911288 171.749329 
L 239.193249 175.082438 
L 239.475209 176.378147 
L 239.75717 175.490462 
L 240.03913 175.062114 
L 240.321091 175.552752 
L 240.603052 175.450163 
L 240.885012 175.476831 
L 241.166973 177.238462 
L 242.012855 186.524633 
L 242.858736 197.752011 
L 243.140697 200.759886 
L 243.422657 201.546601 
L 243.704618 199.396032 
L 243.986579 195.630216 
L 244.268539 188.773067 
L 244.5505 173.655427 
L 245.960303 58.712361 
L 246.242263 43.3915 
L 246.524224 35.128377 
L 246.806184 31.701421 
L 247.088145 31.51471 
L 247.370106 34.926153 
L 247.934027 49.593149 
L 248.215987 63.17134 
L 249.061869 120.593362 
L 249.62579 141.297936 
L 249.907751 147.526439 
L 250.471672 153.570209 
L 250.753633 155.765818 
L 251.035593 155.937369 
L 251.317554 154.871706 
L 251.599514 155.299531 
L 251.881475 156.95097 
L 252.163436 157.420828 
L 252.445396 156.678567 
L 252.727357 156.493694 
L 253.009317 156.785438 
L 253.291278 156.830309 
L 253.573239 157.461665 
L 253.855199 159.091597 
L 254.13716 160.054114 
L 254.41912 159.870686 
L 254.701081 161.003811 
L 255.546963 171.765089 
L 255.828923 172.164517 
L 256.110884 174.219669 
L 256.392844 178.144879 
L 256.674805 179.883468 
L 257.238726 174.099 
L 257.520687 175.835686 
L 258.084608 184.185732 
L 258.366569 186.069188 
L 258.648529 191.68117 
L 259.21245 210.756453 
L 259.494411 215.231322 
L 260.340293 220.017944 
L 260.622253 218.911057 
L 260.904214 211.682336 
L 261.186174 195.347342 
L 262.877938 48.332824 
L 263.441859 26.360889 
L 263.72382 18.904444 
L 264.00578 14.547876 
L 264.287741 16.2534 
L 264.851662 32.834546 
L 265.415583 61.65657 
L 266.825386 155.52852 
L 267.107347 162.026678 
L 267.671268 166.794404 
L 267.953228 168.172011 
L 268.51715 166.918073 
L 268.79911 167.689538 
L 269.363031 170.396846 
L 269.644992 170.813635 
L 269.926953 168.765499 
L 270.490874 161.195506 
L 270.772834 160.615814 
L 271.054795 160.965913 
L 271.336755 161.067699 
L 271.618716 161.89156 
L 272.464598 166.045306 
L 273.028519 173.02566 
L 273.59244 179.857507 
L 273.874401 181.858747 
L 274.156361 181.953167 
L 274.438322 181.760233 
L 274.720282 183.70906 
L 277.257928 214.670553 
L 277.539888 215.097196 
L 277.821849 212.831338 
L 278.10381 203.566467 
L 278.38577 183.665815 
L 279.795573 45.772972 
L 280.359494 21.698192 
L 280.641455 17.468454 
L 280.923415 16.266689 
L 281.205376 16.300145 
L 281.487337 20.281445 
L 282.051258 44.710083 
L 282.615179 70.822256 
L 283.743021 150.789046 
L 284.306942 168.322932 
L 284.588903 171.305017 
L 285.152824 174.009822 
L 285.434785 173.926226 
L 285.716745 173.462498 
L 285.998706 173.386819 
L 286.280667 172.514565 
L 286.844588 169.044861 
L 287.126548 168.132716 
L 287.690469 164.799736 
L 287.97243 164.975694 
L 288.254391 166.023479 
L 288.536351 166.545964 
L 288.818312 167.804061 
L 289.100272 170.136048 
L 289.382233 170.557243 
L 289.946154 165.877873 
L 290.510075 166.555427 
L 290.792036 165.290158 
L 291.073996 166.299824 
L 291.919878 182.67389 
L 292.201839 184.763859 
L 292.483799 188.566506 
L 293.611642 208.650874 
L 294.175563 215.019367 
L 294.457524 217.363858 
L 294.739484 217.553236 
L 295.021445 209.55024 
L 295.585366 164.804166 
L 296.713208 48.402084 
L 297.277129 20.717029 
L 297.55909 13.408134 
L 297.841051 12.096 
L 298.404972 18.057458 
L 298.686932 22.780565 
L 298.968893 34.193897 
L 300.942617 156.698695 
L 301.506538 168.831309 
L 302.070459 174.235932 
L 302.35242 175.451676 
L 302.634381 173.858325 
L 303.198302 166.055906 
L 303.480262 164.154177 
L 304.608105 160.340378 
L 304.890065 159.447033 
L 305.172026 159.757604 
L 305.735947 163.666911 
L 306.299868 164.878743 
L 306.863789 168.973293 
L 307.42771 173.963506 
L 307.991632 180.451201 
L 308.273592 182.43959 
L 308.555553 186.771968 
L 309.119474 199.198245 
L 309.683395 203.382638 
L 310.247316 210.139334 
L 310.811238 206.960852 
L 311.093198 208.256971 
L 311.375159 210.758737 
L 311.657119 211.159742 
L 311.93908 208.255321 
L 312.22104 199.67054 
L 312.503001 181.331429 
L 313.912804 39.694812 
L 314.194765 26.827758 
L 314.476725 23.112976 
L 314.758686 22.960876 
L 315.040646 23.044039 
L 315.322607 24.668922 
L 315.604567 29.068307 
L 315.886528 35.846169 
L 316.168489 45.699288 
L 316.73241 76.045232 
L 318.142213 160.620682 
L 318.706134 172.08717 
L 318.988095 174.554111 
L 319.552016 175.978801 
L 319.833976 175.322283 
L 320.679858 163.398945 
L 320.961819 164.074674 
L 321.243779 162.519347 
L 321.52574 159.399303 
L 321.8077 159.144173 
L 322.371622 163.762416 
L 322.653582 163.890003 
L 322.935543 164.522939 
L 323.499464 169.855175 
L 324.063385 176.037851 
L 324.909267 183.03307 
L 325.191227 186.765324 
L 325.473188 188.828693 
L 325.755149 188.827387 
L 326.037109 189.300659 
L 326.60103 195.487411 
L 327.164952 202.475029 
L 328.010833 217.972682 
L 328.292794 220.36095 
L 328.574754 219.530267 
L 328.856715 212.143033 
L 329.138676 195.643115 
L 329.702597 136.835675 
L 330.266518 67.81996 
L 330.830439 29.83225 
L 331.1124 22.238299 
L 331.39436 20.680938 
L 331.958281 28.21833 
L 332.240242 31.753377 
L 332.522203 36.924093 
L 333.086124 57.664309 
L 333.650045 84.41423 
L 334.777887 150.702972 
L 335.059848 161.650051 
L 335.341809 167.884372 
L 335.623769 168.643296 
L 335.90573 167.25631 
L 336.18769 166.965077 
L 336.469651 166.493102 
L 337.033572 162.205023 
L 337.597493 165.384377 
L 337.879454 164.345238 
L 338.725336 156.628103 
L 339.007296 156.322007 
L 339.289257 160.256523 
L 339.571217 166.157762 
L 339.853178 169.325729 
L 340.135138 170.042769 
L 340.417099 172.107092 
L 340.98102 177.990192 
L 341.544941 180.382433 
L 342.108863 185.179182 
L 342.672784 192.332594 
L 343.236705 195.478846 
L 343.518666 198.857876 
L 344.082587 208.586767 
L 344.646508 213.087523 
L 345.210429 225.677938 
L 345.49239 226.108967 
L 345.77435 215.2929 
L 346.056311 194.437796 
L 346.620232 128.336223 
L 347.184153 57.919753 
L 347.466114 40.152348 
L 347.748074 32.045317 
L 348.030035 28.701812 
L 348.311995 28.397795 
L 348.875917 30.654592 
L 349.157877 33.75124 
L 349.721798 48.098673 
L 350.003759 56.751023 
L 350.28572 69.499816 
L 351.977483 170.883791 
L 352.823365 193.106235 
L 353.105325 196.382116 
L 353.387286 192.488824 
L 353.669247 186.610744 
L 353.951207 184.083295 
L 354.233168 182.743767 
L 354.515128 177.303389 
L 355.07905 158.682513 
L 355.924931 142.345134 
L 356.488852 134.867682 
L 357.052774 129.424666 
L 357.334734 126.132217 
L 357.616695 124.777568 
L 357.898655 125.94181 
L 358.462577 129.42056 
L 358.744537 133.554637 
L 359.308458 155.555907 
L 361.282182 236.941772 
L 361.846104 249.774091 
L 362.128064 254.016 
L 362.410025 253.721396 
L 362.691985 243.220419 
L 362.973946 220.815742 
L 363.537867 152.255234 
L 364.101788 81.511415 
L 364.665709 46.966827 
L 364.94767 37.48127 
L 365.229631 31.872117 
L 365.511591 32.044696 
L 366.075512 37.800499 
L 366.357473 39.11025 
L 366.639434 43.063069 
L 367.203355 60.584643 
L 367.767276 84.079188 
L 368.613158 135.129106 
L 369.177079 155.442985 
L 369.459039 161.667214 
L 369.741 164.249855 
L 370.304921 165.393654 
L 370.586882 164.919516 
L 370.868842 163.430241 
L 371.150803 163.380574 
L 371.432764 164.773261 
L 371.714724 163.607478 
L 372.278645 156.39023 
L 372.842566 160.175128 
L 373.124527 159.710524 
L 373.406488 159.605234 
L 373.688448 163.041958 
L 373.970409 167.920282 
L 374.252369 170.807817 
L 374.816291 173.164442 
L 375.662172 179.693717 
L 376.508054 189.444963 
L 377.635896 204.255787 
L 377.917857 206.281279 
L 379.045699 219.735811 
L 379.32766 218.738806 
L 379.609621 211.873459 
L 379.891581 194.528607 
L 380.455502 129.567344 
L 381.019423 62.239577 
L 381.301384 42.32017 
L 381.583345 32.485917 
L 381.865305 29.120973 
L 382.147266 28.83979 
L 382.429226 29.556781 
L 382.711187 30.885734 
L 382.993148 34.690059 
L 383.557069 53.830378 
L 384.684911 97.363179 
L 385.812753 150.905305 
L 386.376675 166.246918 
L 386.658635 169.536226 
L 386.940596 170.049659 
L 387.504517 168.088872 
L 387.786478 167.594849 
L 388.068438 166.078172 
L 388.632359 162.621666 
L 388.91432 161.367458 
L 389.19628 159.045202 
L 389.478241 157.733798 
L 389.760202 159.742525 
L 390.324123 165.366488 
L 390.606083 167.160674 
L 392.015886 184.539079 
L 392.297847 186.799861 
L 392.579808 190.138264 
L 393.143729 198.451511 
L 393.425689 199.248361 
L 393.98961 198.375232 
L 394.271571 196.971828 
L 394.553532 194.870639 
L 394.835492 194.969239 
L 395.963335 206.262039 
L 396.245295 208.292214 
L 396.527256 202.300491 
L 396.809216 185.402081 
L 397.373137 132.022757 
L 397.937059 68.053369 
L 398.219019 48.073039 
L 398.50098 43.137342 
L 398.78294 45.573134 
L 399.064901 46.160307 
L 399.346862 43.985127 
L 399.628822 43.201507 
L 399.910783 45.283753 
L 400.192743 49.484425 
L 400.756665 65.132006 
L 401.602546 98.8043 
L 402.166467 123.467797 
L 403.29431 154.675112 
L 404.140192 162.477409 
L 404.422152 161.645126 
L 404.704113 158.826272 
L 404.986073 158.60898 
L 405.268034 160.393744 
L 405.549994 159.570587 
L 405.831955 157.134169 
L 406.113916 159.085594 
L 406.677837 170.696212 
L 406.959797 170.767601 
L 407.241758 170.35376 
L 407.523719 172.055457 
L 407.805679 172.946481 
L 408.08764 172.180272 
L 408.3696 173.383388 
L 408.933522 180.353813 
L 409.215482 181.479535 
L 409.497443 183.94454 
L 409.779403 187.674413 
L 410.061364 189.085299 
L 410.343324 188.875888 
L 410.625285 191.379779 
L 411.189206 200.104058 
L 411.471167 201.323822 
L 411.753127 203.52563 
L 412.599009 215.468049 
L 412.88097 216.375577 
L 413.16293 212.949954 
L 413.444891 201.760997 
L 413.726851 179.790354 
L 414.854694 54.904084 
L 415.136654 44.780187 
L 415.418615 38.949825 
L 415.700576 35.558366 
L 415.982536 36.174986 
L 416.546457 46.881728 
L 417.6743 72.695551 
L 418.520181 97.378696 
L 419.366063 133.325709 
L 419.648024 139.84524 
L 420.775866 153.951711 
L 421.339787 156.335226 
L 421.903708 162.42433 
L 422.185669 163.763196 
L 422.46763 164.417848 
L 423.313511 168.939922 
L 424.441354 172.417863 
L 425.005275 176.544353 
L 425.287236 175.856625 
L 425.569196 172.801222 
L 425.851157 171.934573 
L 426.978999 184.013885 
L 427.824881 203.552546 
L 428.106841 206.857857 
L 428.952723 219.974397 
L 429.234684 221.35281 
L 429.516644 220.706614 
L 429.798605 214.878893 
L 430.080565 200.250931 
L 430.644487 140.114812 
L 431.208408 70.661869 
L 431.490368 53.386186 
L 431.772329 46.618514 
L 432.05429 43.551264 
L 432.33625 42.064668 
L 432.618211 42.908506 
L 432.900171 45.521296 
L 433.182132 49.252941 
L 433.746053 61.796917 
L 434.591935 84.437166 
L 435.719777 122.612103 
L 436.283698 135.018964 
L 437.12958 147.627497 
L 437.411541 148.223008 
L 437.693501 148.265719 
L 437.975462 148.459275 
L 438.257422 147.846988 
L 438.539383 148.061245 
L 438.821344 151.729373 
L 439.385265 161.258687 
L 439.667225 163.594263 
L 440.513107 173.766682 
L 440.795068 174.160186 
L 441.077028 173.095198 
L 441.64095 168.483136 
L 441.92291 169.402293 
L 442.768792 181.581613 
L 443.050752 184.22179 
L 443.332713 188.202895 
L 444.178595 203.886602 
L 444.742516 207.767988 
L 445.588398 219.245845 
L 446.152319 224.564252 
L 446.434279 224.272147 
L 446.71624 218.729374 
L 446.998201 206.238573 
L 447.280161 182.767419 
L 448.126043 82.635338 
L 448.408004 69.561438 
L 448.971925 57.87514 
L 449.253885 56.181705 
L 449.535846 59.602522 
L 450.099767 70.067021 
L 450.381728 71.852459 
L 450.663688 71.751996 
L 450.945649 72.322559 
L 451.227609 76.102247 
L 451.791531 92.523409 
L 453.201334 136.742043 
L 453.765255 145.355901 
L 454.329176 150.18756 
L 454.611136 151.22934 
L 454.893097 151.053332 
L 455.457018 148.084901 
L 455.738979 148.39791 
L 456.020939 147.697067 
L 456.3029 144.695078 
L 456.584861 143.916397 
L 458.558585 176.205679 
L 458.840545 176.573889 
L 459.122506 178.345787 
L 459.686427 184.616018 
L 460.250348 195.63638 
L 460.532309 197.907711 
L 460.814269 197.994865 
L 461.09623 199.69422 
L 461.378191 202.247057 
L 461.942112 203.582499 
L 462.224072 207.26649 
L 462.787993 217.910371 
L 463.069954 221.534697 
L 463.351915 222.676414 
L 463.633875 218.596122 
L 463.915836 207.412809 
L 464.197796 186.829688 
L 465.325639 71.306453 
L 465.88956 58.631477 
L 466.17152 55.074173 
L 466.453481 56.064927 
L 466.735442 57.916232 
L 467.017402 57.920373 
L 467.299363 59.345935 
L 467.581323 64.655179 
L 468.427205 89.836918 
L 469.837008 134.152098 
L 470.118969 139.205756 
L 470.96485 148.296734 
L 471.246811 146.145561 
L 471.528772 142.414715 
L 471.810732 141.322715 
L 472.938575 145.051981 
L 473.220535 145.432528 
L 473.502496 145.442301 
L 473.784456 147.285321 
L 474.912299 162.426695 
L 475.75818 171.81103 
L 476.604062 178.528403 
L 477.167983 186.257083 
L 477.731905 190.83831 
L 478.295826 199.083267 
L 478.859747 202.970945 
L 479.423668 211.212587 
L 479.987589 215.366145 
L 480.26955 216.201559 
L 480.55151 214.608929 
L 480.833471 210.30999 
L 481.115432 201.018298 
L 481.397392 180.333823 
L 482.243274 80.760865 
L 482.525234 66.792862 
L 483.089156 53.858254 
L 483.371116 50.541388 
L 483.653077 50.3821 
L 483.935037 52.3143 
L 484.216998 56.108364 
L 484.780919 70.275311 
L 486.754643 127.366716 
L 487.882486 142.387325 
L 488.164446 143.995782 
L 488.446407 143.412396 
L 489.010328 138.026795 
L 489.292289 138.633462 
L 489.574249 141.575317 
L 489.85621 143.293168 
L 490.13817 143.061617 
L 490.420131 144.026665 
L 490.984052 150.06835 
L 491.266013 151.390018 
L 491.547973 153.743677 
L 492.111894 161.370632 
L 492.393855 163.194876 
L 492.675816 165.915635 
L 494.085619 185.851464 
L 494.367579 186.57141 
L 494.64954 186.499033 
L 494.9315 189.568399 
L 495.495421 198.498632 
L 495.777382 201.225813 
L 496.905224 219.258963 
L 497.187185 220.720892 
L 497.469146 218.540375 
L 497.751106 209.088914 
L 498.033067 188.579759 
L 498.878948 93.625261 
L 499.160909 76.445634 
L 499.72483 59.134552 
L 500.006791 57.022439 
L 500.570712 63.224283 
L 500.852673 66.053861 
L 501.134633 70.194164 
L 502.262476 95.865935 
L 503.672278 138.648136 
L 504.2362 150.786263 
L 504.51816 153.44021 
L 505.082081 155.249434 
L 505.364042 155.045631 
L 505.927963 153.103614 
L 506.773845 152.226267 
L 507.337766 151.172318 
L 507.619727 151.45108 
L 507.901687 152.068676 
L 508.183648 151.111477 
L 508.465608 148.84779 
L 508.747569 148.423972 
L 509.593451 157.090787 
L 509.875411 158.693799 
L 510.439333 166.183572 
L 511.567175 181.292548 
L 512.413057 198.800122 
L 512.976978 205.973522 
L 513.82286 225.574598 
L 514.10482 226.777649 
L 514.386781 223.832486 
L 514.668741 214.552864 
L 514.950702 191.658067 
L 515.796584 94.958287 
L 516.360505 76.239391 
L 516.642465 70.165788 
L 516.924426 67.870354 
L 517.488347 68.280219 
L 517.770308 69.064001 
L 518.052268 71.864166 
L 518.61619 81.517142 
L 519.180111 98.284187 
L 519.744032 115.633873 
L 520.871874 138.285129 
L 521.153835 141.302311 
L 521.435795 142.949644 
L 521.717756 143.690656 
L 521.999717 143.085416 
L 522.281677 141.827166 
L 522.563638 141.764651 
L 522.845598 142.371268 
L 523.127559 142.015014 
L 523.409519 141.18814 
L 523.69148 141.649669 
L 524.537362 145.448774 
L 524.819322 144.807269 
L 525.383244 138.785023 
L 525.665204 139.586061 
L 525.947165 142.276563 
L 526.511086 145.059875 
L 526.793047 150.884333 
L 527.356968 166.482211 
L 528.202849 177.474448 
L 529.048731 188.211123 
L 529.612652 198.912603 
L 530.176574 211.88467 
L 530.740495 220.044384 
L 531.022455 222.849439 
L 531.304416 222.216149 
L 531.586376 214.233275 
L 531.868337 195.244826 
L 532.714219 110.151237 
L 532.996179 94.876852 
L 533.27814 86.287096 
L 533.560101 81.278398 
L 533.842061 78.739322 
L 534.124022 77.904674 
L 534.405982 78.728598 
L 535.533825 89.276976 
L 536.097746 104.416474 
L 536.661667 118.62914 
L 537.507549 135.475967 
L 538.07147 142.671042 
L 538.635391 148.533429 
L 538.917352 150.0909 
L 539.481273 148.558248 
L 539.763233 149.008547 
L 540.045194 148.633544 
L 540.891076 138.11681 
L 541.173036 138.36806 
L 541.736958 137.586363 
L 542.018918 139.128749 
L 543.428721 153.672264 
L 543.710682 155.584763 
L 543.992642 158.772756 
L 544.556563 168.110469 
L 545.402445 175.628352 
L 545.684406 179.362066 
L 545.966366 180.888217 
L 546.248327 181.271533 
L 546.530288 183.483415 
L 547.094209 195.222586 
L 547.65813 205.781713 
L 547.94009 207.996249 
L 548.222051 208.62437 
L 548.504012 205.964544 
L 548.785972 194.981582 
L 550.195775 98.599186 
L 550.477736 90.637432 
L 551.041657 84.559805 
L 551.323618 83.286017 
L 551.605578 84.390929 
L 552.45146 92.03128 
L 553.579302 114.090663 
L 554.143223 131.840907 
L 554.425184 136.193805 
L 555.271066 143.065165 
L 555.553026 141.319661 
L 555.834987 138.102884 
L 556.116947 136.737861 
L 556.398908 137.782222 
L 556.680869 138.230161 
L 557.24479 135.764233 
L 557.52675 138.654863 
L 558.090672 147.258619 
L 558.372632 147.841624 
L 558.654593 148.134895 
L 559.218514 151.452078 
L 559.782435 155.047643 
L 561.192238 166.690656 
L 562.03812 175.400706 
L 562.32008 177.482979 
L 562.884002 183.454185 
L 563.165962 184.002809 
L 563.729883 180.246938 
L 564.011844 181.523666 
L 564.575765 186.219447 
L 564.857726 187.349108 
L 565.139686 187.772113 
L 565.421647 185.422064 
L 565.703607 176.87365 
L 567.11341 105.099056 
L 567.677332 95.690813 
L 567.959292 93.495737 
L 568.241253 94.175075 
L 568.805174 98.123853 
L 569.087134 100.797003 
L 569.933016 113.73879 
L 571.060859 135.34447 
L 571.62478 144.516249 
L 572.188701 149.770443 
L 573.316543 157.03038 
L 573.598504 157.118381 
L 573.880464 154.117159 
L 575.008307 135.447023 
L 575.572228 130.301343 
L 575.854189 128.684131 
L 576.136149 128.308575 
L 576.41811 129.424112 
L 576.70007 131.844536 
L 576.982031 135.277732 
L 578.109873 153.514872 
L 578.673794 158.402417 
L 579.237716 162.221295 
L 579.801637 167.850814 
L 580.083597 169.728144 
L 580.365558 173.494273 
L 580.929479 186.631664 
L 581.21144 189.811722 
L 582.057321 192.457756 
L 582.339282 189.223036 
L 582.621243 180.031766 
L 583.749085 123.619313 
L 584.313006 107.662966 
L 584.594967 103.579513 
L 584.876927 102.652597 
L 585.158888 103.577484 
L 586.00477 107.983788 
L 586.28673 108.42347 
L 586.568691 110.185491 
L 587.414573 124.778743 
L 587.696533 127.018422 
L 588.542415 137.536653 
L 589.106336 140.770569 
L 589.388297 141.4606 
L 589.670257 141.399907 
L 589.952218 142.323441 
L 590.516139 147.05357 
L 590.7981 147.861458 
L 591.643981 147.064199 
L 592.207903 147.802946 
L 592.489863 147.697143 
L 592.771824 147.375968 
L 593.053784 147.69281 
L 593.617705 148.482004 
L 593.899666 148.24902 
L 594.181627 148.288493 
L 594.463587 149.69055 
L 595.027508 156.842334 
L 595.309469 158.648629 
L 595.59143 159.035624 
L 595.87339 160.234403 
L 597.001232 168.411526 
L 597.283193 171.638611 
L 597.847114 182.614765 
L 598.129075 188.268147 
L 598.411035 190.542883 
L 598.692996 190.506738 
L 598.974957 189.263439 
L 599.256917 184.842652 
L 599.820838 160.309553 
L 600.38476 135.279465 
L 600.948681 115.666017 
L 601.230641 109.110513 
L 601.512602 106.350866 
L 601.794562 106.033112 
L 602.076523 106.36667 
L 602.358484 106.143757 
L 602.640444 106.653208 
L 603.204365 110.959086 
L 603.486326 111.002479 
L 603.768287 110.123896 
L 604.050247 112.016556 
L 604.614168 123.511243 
L 605.178089 131.2009 
L 605.742011 144.712535 
L 606.023971 145.710768 
L 606.305932 144.178841 
L 606.869853 144.413035 
L 607.151814 143.129252 
L 607.433774 142.717178 
L 607.715735 144.480319 
L 607.997695 144.594104 
L 608.279656 142.555543 
L 608.561617 142.18139 
L 609.125538 147.383081 
L 609.407498 148.208587 
L 609.689459 149.51379 
L 609.971419 151.745897 
L 610.817301 155.695111 
L 611.099262 155.461915 
L 611.381222 152.720541 
L 611.663183 151.771996 
L 612.791025 160.728691 
L 613.354946 169.057669 
L 613.918868 172.270042 
L 614.482789 175.141184 
L 614.764749 177.160168 
L 615.328671 183.393644 
L 615.610631 185.124285 
L 615.892592 185.100649 
L 616.174552 184.425341 
L 616.456513 180.932412 
L 616.738474 171.65397 
L 617.584355 127.916205 
L 618.148276 108.963368 
L 618.430237 103.159768 
L 618.712198 101.532923 
L 619.276119 103.670843 
L 619.84004 107.074247 
L 620.122001 107.27734 
L 620.403961 108.232446 
L 621.813764 132.662779 
L 622.095725 135.576905 
L 622.659646 137.951394 
L 623.223567 144.090098 
L 623.505528 144.041727 
L 623.787488 143.540886 
L 624.351409 146.541669 
L 624.63337 147.323141 
L 624.915331 147.578656 
L 625.197291 148.459767 
L 625.479252 148.652741 
L 626.325133 151.856412 
L 626.889055 148.546114 
L 627.171015 148.887412 
L 627.452976 151.260511 
L 627.734936 152.225421 
L 628.016897 154.086974 
L 628.298858 158.602582 
L 628.580818 166.011964 
L 628.862779 170.35675 
L 629.144739 171.676823 
L 629.4267 171.797644 
L 629.990621 176.154859 
L 630.272582 176.811036 
L 630.554542 175.478195 
L 630.836503 175.944975 
L 631.118463 176.100254 
L 631.400424 178.337021 
L 631.682385 178.827093 
L 631.964345 179.589149 
L 632.246306 176.172617 
L 632.528266 175.31014 
L 632.810227 172.215676 
L 633.092188 176.177891 
L 633.092188 176.177891 
" clip-path="url(#p46dcc78713)" style="fill: none; stroke: #1f77b4; stroke-width: 1.5; stroke-linecap: square"/>
   </g>
   <g id="patch_3">
    <path d="M 47.192188 266.112 
L 47.192188 0 
" style="fill: none; stroke: #000000; stroke-width: 0.8; stroke-linejoin: miter; stroke-linecap: square"/>
   </g>
   <g id="patch_4">
    <path d="M 660.992188 266.112 
L 660.992188 0 
" style="fill: none; stroke: #000000; stroke-width: 0.8; stroke-linejoin: miter; stroke-linecap: square"/>
   </g>
   <g id="patch_5">
    <path d="M 47.192188 266.112 
L 660.992188 266.112 
" style="fill: none; stroke: #000000; stroke-width: 0.8; stroke-linejoin: miter; stroke-linecap: square"/>
   </g>
   <g id="patch_6">
    <path d="M 47.192188 0 
L 660.992188 0 
" style="fill: none; stroke: #000000; stroke-width: 0.8; stroke-linejoin: miter; stroke-linecap: square"/>
   </g>
  </g>
 </g>
 <defs>
  <clipPath id="p46dcc78713">
   <rect x="47.192188" y="0" width="613.8" height="266.112"/>
  </clipPath>
 </defs>
</svg>
