<svg xmlns="http://www.w3.org/2000/svg" xmlns:xlink="http://www.w3.org/1999/xlink" width="913.477" height="377.053" viewBox="0 0 685.107 282.79"><defs><style>*{stroke-linejoin:round;stroke-linecap:butt}</style></defs><g id="figure_1"><path id="patch_1" d="M0 282.79h685.107V0H0v282.79z" style="fill:none"/><g id="axes_1"><path id="patch_2" d="M71.308 266.112h613.8V0h-613.8v266.112z" style="fill:none"/><g id="matplotlib.axis_1"><g id="xtick_1"><g id="line2d_1"><defs><path id="md6218359e2" d="M0 0v3.5" style="stroke:gray;stroke-width:.8"/></defs><use xlink:href="#md6218359e2" x="99.207" y="266.112" style="fill:gray;stroke:gray;stroke-width:.8"/></g><g id="text_1" style="fill:gray" transform="matrix(.1 0 0 -.1 96.026 280.71)"><defs><path id="DejaVuSans-30" d="M2034 4250q-487 0-733-480-245-479-245-1442 0-959 245-1439 246-480 733-480 491 0 736 480 246 480 246 1439 0 963-246 1442-245 480-736 480zm0 500q785 0 1199-621 414-620 414-1801 0-1178-414-1799Q2819-91 2034-91q-784 0-1198 620-414 621-414 1799 0 1181 414 1801 414 621 1198 621z" transform="scale(.01563)"/></defs><use xlink:href="#DejaVuSans-30"/></g></g><g id="xtick_2"><use xlink:href="#md6218359e2" id="line2d_2" x="168.958" y="266.112" style="fill:gray;stroke:gray;stroke-width:.8"/><g id="text_2" style="fill:gray" transform="matrix(.1 0 0 -.1 159.414 280.71)"><defs><path id="DejaVuSans-35" d="M691 4666h2478v-532H1269V2991q137 47 274 70 138 23 276 23 781 0 1237-428 457-428 457-1159 0-753-469-1171Q2575-91 1722-91q-294 0-599 50Q819 9 494 109v635q281-153 581-228t634-75q541 0 856 284 316 284 316 772 0 487-316 771-315 285-856 285-253 0-505-56-251-56-513-175v2344z" transform="scale(.01563)"/></defs><use xlink:href="#DejaVuSans-35"/><use xlink:href="#DejaVuSans-30" x="63.623"/><use xlink:href="#DejaVuSans-30" x="127.246"/></g></g><g id="xtick_3"><use xlink:href="#md6218359e2" id="line2d_3" x="238.708" y="266.112" style="fill:gray;stroke:gray;stroke-width:.8"/><g id="text_3" style="fill:gray" transform="matrix(.1 0 0 -.1 225.982 280.71)"><defs><path id="DejaVuSans-31" d="M794 531h1031v3560L703 3866v575l1116 225h631V531h1031V0H794v531z" transform="scale(.01563)"/></defs><use xlink:href="#DejaVuSans-31"/><use xlink:href="#DejaVuSans-30" x="63.623"/><use xlink:href="#DejaVuSans-30" x="127.246"/><use xlink:href="#DejaVuSans-30" x="190.869"/></g></g><g id="xtick_4"><use xlink:href="#md6218359e2" id="line2d_4" x="308.457" y="266.112" style="fill:gray;stroke:gray;stroke-width:.8"/><g id="text_4" style="fill:gray" transform="matrix(.1 0 0 -.1 295.733 280.71)"><use xlink:href="#DejaVuSans-31"/><use xlink:href="#DejaVuSans-35" x="63.623"/><use xlink:href="#DejaVuSans-30" x="127.246"/><use xlink:href="#DejaVuSans-30" x="190.869"/></g></g><g id="xtick_5"><use xlink:href="#md6218359e2" id="line2d_5" x="378.207" y="266.112" style="fill:gray;stroke:gray;stroke-width:.8"/><g id="text_5" style="fill:gray" transform="matrix(.1 0 0 -.1 365.483 280.71)"><defs><path id="DejaVuSans-32" d="M1228 531h2203V0H469v531q359 372 979 998 621 627 780 809 303 340 423 576 121 236 121 464 0 372-261 606-261 235-680 235-297 0-627-103-329-103-704-313v638q381 153 712 231 332 78 607 78 725 0 1156-363 431-362 431-968 0-288-108-546-107-257-392-607-78-91-497-524-418-433-1181-1211z" transform="scale(.01563)"/></defs><use xlink:href="#DejaVuSans-32"/><use xlink:href="#DejaVuSans-30" x="63.623"/><use xlink:href="#DejaVuSans-30" x="127.246"/><use xlink:href="#DejaVuSans-30" x="190.869"/></g></g><g id="xtick_6"><use xlink:href="#md6218359e2" id="line2d_6" x="447.957" y="266.112" style="fill:gray;stroke:gray;stroke-width:.8"/><g id="text_6" style="fill:gray" transform="matrix(.1 0 0 -.1 435.233 280.71)"><use xlink:href="#DejaVuSans-32"/><use xlink:href="#DejaVuSans-35" x="63.623"/><use xlink:href="#DejaVuSans-30" x="127.246"/><use xlink:href="#DejaVuSans-30" x="190.869"/></g></g><g id="xtick_7"><use xlink:href="#md6218359e2" id="line2d_7" x="517.707" y="266.112" style="fill:gray;stroke:gray;stroke-width:.8"/><g id="text_7" style="fill:gray" transform="matrix(.1 0 0 -.1 504.983 280.71)"><defs><path id="DejaVuSans-33" d="M2597 2516q453-97 707-404 255-306 255-756 0-690-475-1069Q2609-91 1734-91q-293 0-604 58T488 141v609q262-153 574-231 313-78 654-78 593 0 904 234t311 681q0 413-289 645-289 233-804 233h-544v519h569q465 0 712 186t247 536q0 359-255 551-254 193-729 193-260 0-557-57-297-56-653-174v562q360 100 674 150t592 50q719 0 1137-327 419-326 419-882 0-388-222-655t-631-370z" transform="scale(.01563)"/></defs><use xlink:href="#DejaVuSans-33"/><use xlink:href="#DejaVuSans-30" x="63.623"/><use xlink:href="#DejaVuSans-30" x="127.246"/><use xlink:href="#DejaVuSans-30" x="190.869"/></g></g><g id="xtick_8"><use xlink:href="#md6218359e2" id="line2d_8" x="587.457" y="266.112" style="fill:gray;stroke:gray;stroke-width:.8"/><g id="text_8" style="fill:gray" transform="matrix(.1 0 0 -.1 574.732 280.71)"><use xlink:href="#DejaVuSans-33"/><use xlink:href="#DejaVuSans-35" x="63.623"/><use xlink:href="#DejaVuSans-30" x="127.246"/><use xlink:href="#DejaVuSans-30" x="190.869"/></g></g><g id="xtick_9"><use xlink:href="#md6218359e2" id="line2d_9" x="657.207" y="266.112" style="fill:gray;stroke:gray;stroke-width:.8"/><g id="text_9" style="fill:gray" transform="matrix(.1 0 0 -.1 644.482 280.71)"><defs><path id="DejaVuSans-34" d="M2419 4116 825 1625h1594v2491zm-166 550h794V1625h666v-525h-666V0h-628v1100H313v609l1940 2957z" transform="scale(.01563)"/></defs><use xlink:href="#DejaVuSans-34"/><use xlink:href="#DejaVuSans-30" x="63.623"/><use xlink:href="#DejaVuSans-30" x="127.246"/><use xlink:href="#DejaVuSans-30" x="190.869"/></g></g></g><g id="matplotlib.axis_2"><g id="ytick_1"><g id="line2d_10"><defs><path id="m9d55a481d3" d="M0 0h-3.5" style="stroke:gray;stroke-width:.8"/></defs><use xlink:href="#m9d55a481d3" x="71.308" y="250.653" style="fill:gray;stroke:gray;stroke-width:.8"/></g><g id="text_10" style="fill:gray" transform="matrix(.16 0 0 -.16 0 256.732)"><defs><path id="DejaVuSans-2212" d="M678 2272h4006v-531H678v531z" transform="scale(.01563)"/></defs><use xlink:href="#DejaVuSans-2212"/><use xlink:href="#DejaVuSans-34" x="83.789"/><use xlink:href="#DejaVuSans-30" x="147.412"/><use xlink:href="#DejaVuSans-30" x="211.035"/><use xlink:href="#DejaVuSans-30" x="274.658"/><use xlink:href="#DejaVuSans-30" x="338.281"/></g></g><g id="ytick_2"><use xlink:href="#m9d55a481d3" id="line2d_11" x="71.308" y="203.69" style="fill:gray;stroke:gray;stroke-width:.8"/><g id="text_11" style="fill:gray" transform="matrix(.16 0 0 -.16 0 209.769)"><use xlink:href="#DejaVuSans-2212"/><use xlink:href="#DejaVuSans-32" x="83.789"/><use xlink:href="#DejaVuSans-30" x="147.412"/><use xlink:href="#DejaVuSans-30" x="211.035"/><use xlink:href="#DejaVuSans-30" x="274.658"/><use xlink:href="#DejaVuSans-30" x="338.281"/></g></g><g id="ytick_3"><use xlink:href="#m9d55a481d3" id="line2d_12" x="71.308" y="156.727" style="fill:gray;stroke:gray;stroke-width:.8"/><use xlink:href="#DejaVuSans-30" id="text_12" style="fill:gray" transform="matrix(.16 0 0 -.16 54.127 162.806)"/></g><g id="ytick_4"><use xlink:href="#m9d55a481d3" id="line2d_13" x="71.308" y="109.764" style="fill:gray;stroke:gray;stroke-width:.8"/><g id="text_13" style="fill:gray" transform="matrix(.16 0 0 -.16 13.408 115.843)"><use xlink:href="#DejaVuSans-32"/><use xlink:href="#DejaVuSans-30" x="63.623"/><use xlink:href="#DejaVuSans-30" x="127.246"/><use xlink:href="#DejaVuSans-30" x="190.869"/><use xlink:href="#DejaVuSans-30" x="254.492"/></g></g><g id="ytick_5"><use xlink:href="#m9d55a481d3" id="line2d_14" x="71.308" y="62.801" style="fill:gray;stroke:gray;stroke-width:.8"/><g id="text_14" style="fill:gray" transform="matrix(.16 0 0 -.16 13.408 68.88)"><use xlink:href="#DejaVuSans-34"/><use xlink:href="#DejaVuSans-30" x="63.623"/><use xlink:href="#DejaVuSans-30" x="127.246"/><use xlink:href="#DejaVuSans-30" x="190.869"/><use xlink:href="#DejaVuSans-30" x="254.492"/></g></g><g id="ytick_6"><use xlink:href="#m9d55a481d3" id="line2d_15" x="71.308" y="15.838" style="fill:gray;stroke:gray;stroke-width:.8"/><g id="text_15" style="fill:gray" transform="matrix(.16 0 0 -.16 13.408 21.917)"><defs><path id="DejaVuSans-36" d="M2113 2584q-425 0-674-291-248-290-248-796 0-503 248-796 249-292 674-292t673 292q248 293 248 796 0 506-248 796-248 291-673 291zm1253 1979v-575q-238 112-480 171-242 60-480 60-625 0-955-422-329-422-376-1275 184 272 462 417 279 145 613 145 703 0 1111-427 408-426 408-1160 0-719-425-1154Q2819-91 2113-91q-810 0-1238 620-428 621-428 1799 0 1106 525 1764t1409 658q238 0 480-47t505-140z" transform="scale(.01563)"/></defs><use xlink:href="#DejaVuSans-36"/><use xlink:href="#DejaVuSans-30" x="63.623"/><use xlink:href="#DejaVuSans-30" x="127.246"/><use xlink:href="#DejaVuSans-30" x="190.869"/><use xlink:href="#DejaVuSans-30" x="254.492"/></g></g></g><path id="line2d_16" d="m99.207 156.762.282-.069.282.066.282-.063.282.061.282-.06.564.003.846.052.846-.048.846.044.846-.04.846.038.846-.036.845.034.846-.033.846.03.846-.028 1.41.026 1.41-.022 1.691.01.282-.01.564.15.282-.24.282.249.564 1.623.564-.104.282.715.282 1.286.282.636.282.326.282.916 1.128 6.09.282 2.277.282.536.282-.544.282.205.563 2.981.282 2.102.564 6.462.282 1.336.282-.548.282-1.943.282-4.676.564-21.365 1.41-56.152.282-4.606.282-1.651.282 1.494.282 5.763 1.973 62.48.846 8.053.564 2.896.282 1.16.282.426.282-.575 1.128-4.861.564-3.858.282-1.275.564-1.07.846-3.306.282.897.282 1.486.282.74.563-.068.282.365.282.098.282-.841.564-2.838.282.132 1.41 5.435.846 2.199.282.52.282-.015.282.125.282.924.564 3.661.564 4.921.282 1.416.282-.22.282-1.132.281-1.766.282-3.592.282-7.126 1.974-70.19.282-.53.282 4.155.564 16.137 1.128 38.153.282 5.818.282 3.35.564 3.886.564 4.052.282.238.281-.289.564-.294.282-.972.564-2.835.846-2.58 1.128-4.504.282-.324.282 1.483.282 2.28.282 1.279.282-.182.282-.42.564.08.282-.783.564-2.367.282-.067.563 1.874.564 2.308.282 1.377.282.772.282-.432.282-.923.282-.275.282.907.564 4.242.846 8.517.282 1.355.282-.467.282-2.43.282-4.303.282-6.32.564-20.292.846-34.71.282-7.917.281-4.762.282-1.383.282 1.438.282 4.09.282 7.115 1.41 48.438.564 8.505.564 4.753.564 2.61.282.211.282-.488.846-2.734.846-2.475.845-4.533.846-1.69.564-1.504.282.003.564 1.258.282-.002.282-.236.282.263.282.711.282 1.027.564 3.809.282 1.728.282.463.282-.262.282.043.846.996.282 1.702 1.127 10.867.282.384.282-1.462.282-3.313.282-5.255.564-18.142 1.41-62.465.282-6.896.282-3.18.282 1.12.282 4.977.282 8.28.564 25.996.564 26.693.564 16.201.281 5.625.282 3.218.282.895.282-.042.282-.242.282-.607.564-2.025.564-1.09.564-.472.282-.232.282-.445.282-.936.564-3.714.564-3.773.564-2.464.282-.582.282-.116.282.224.282.604.563 1.946.564.541.282 1.144.564 3.002.282.526.282.84.564 3.247.282.63.282-.107.282.031.282.84.282 1.815 1.128 12.094.282 1.082.282-.42.282-2.661.282-5.787.564-21.189 1.41-68.744.281-7.457.282-3.903.282.517.282 4.92.564 18.63 1.41 60.705.564 7.55.564 3.556.846 4.968.282.47.282.006.281-.47.564-2.825.564-3.397.564-3.756.282-.045.282.7.282.092.282-.529.282-.014.282.663.282.362.282-.703.282-1.177.282-.49.282.822.282 1.392.282.777.282-.127.282.057.282 1.044.845 5.615.564 5.495.282 1.09.282-.273.282-1.02.282-2.7.282-6.573.564-24.305 1.128-55.895.282-8.707.282-4.844.282-.923.282 4.045.564 20.428 1.41 58.997.563 9.364.564 4.563.282.832.282.256h.282l.282.214.282.575.282.282.282-.974.564-3.695.846-2.826.564-1.182.564-.965.282-.098.564.859.564 1.6.563 1.47.564.994.564.296.282.879.564 4.942.846 7.361.282 1.012.282-.612.282-2.608.282-5.607.564-22.614 1.41-70.213.282-8.176.282-4.004.282.162.282 4.507.563 19.556 1.41 63.991.282 5.6.282 2.314.846 3.54.282.418.282-.075.282-.817.846-4.846.846-2.146.846-3.437.282-.059.563.891.564.081.282.456.564 1.355.282.475.282.89.282 1.858.564 4.892.282 1.204.564.9.282-.05.564-1.872.282.342.564 4.178.564 5.173.282 1.514.282-.788.281-3.403.564-13.19.564-23.023 1.128-54.063.564-16.296.282-1.6.282 4.261.564 15.855.564 22.834.846 40.597.564 10.388.846 10.021.282.606.563.134.282-.528.564-2.268.282-.747.564-3.226.564-2.483.846-3.375.564-.647.282.042.564 1.081.282.207.282.434.564 2.206.564 3.575 1.973 16.28.846 8.96.282 1.012.282.489.282.234.282-1.134.282-4.2.282-8.32.564-28.908L269.794 70l.282-9.39.282-4.722.282-.517.281 3.441.282 7.774.564 26.505 1.41 77.817.282 4.281.282 2.372.282 1.35.282.21.282-.154.282-.019.282-.658.846-6.313.846-6.554.564 2.11.282-.748.282-2.035.281-.993.564 1.893.282-.116.564-1.676.282.271.564 2.314 1.128 7.057.846 5.836.282.577.282 1.03.564 3.713.282.623.282.245.282 1.13.845 6.452.846 9.08.282.656.282-1.654.282-4.14.282-7.542.564-28.135 1.41-95.816.564-19.23.282-3.32.282 1.337.282 5.561.564 21.47.564 35.811.845 54.484.282 9.95.282 5.563.564 5.653.282 1.495.564 1.398.282 1.02.282.038.282-1.7 2.256-20.604.282-.824.564-.661.282.081.282.25.282-.26.281-.568.282.239.564 1.96.282.154.282.428.282 1.641 1.974 18.929.564-.066.282 1.05.846 4.652.846 8.16.282.213.282-.877.281-2.484.282-5.586.282-9.665.564-31.38 1.41-92.99.282-9.99.282-3.912.282.797.282 4.072.282 7.65.564 28.412 1.128 72.511.282 11.36.282 6.461.282 2.708.282.714.282.275.281 1.182.564 4.666.282.324 1.41-8.826.564-7.646.282-2.156.282-.74.282-.087.282.03.564-.484.282.095.846 2.696.282.09.282.224.282.965.563 4.655.564 4.736 1.41 8.196.564 5.6 1.128 14.5.282 1.675.282.074.282-2.527.282-5.867.564-21.037.564-37.024.846-59.675.563-29.396.282-8.481.282-2.78.282 1.302.282 3.981.282 7.259.282 11.748.564 36.173.846 57.534.282 11.666.282 6.896.282 3.604.282 1.864.282.664.282-.363 1.128-4.008 1.691-8.512.564-1.735.282-.145.564.496.564-.053.282.42.282.905.564 3.222.564 3.192.282 1.263.282 2.033.846 7.953 1.128 5.989.281 1.558.564 5.59 1.128 14.286.282 1.472.282-.575.282-3.849.282-8.876.564-33.732 1.692-125.1.564-18.097.282-2.56.282 1.566.282 5.05.282 8.434.563 27.829.846 58.295.564 40.957.282 13.158.282 7.518.282 3.455.282.684.564-1.308.282-.002.282-.958 1.128-10.912.564-4.093.564-4.787.282-1.21.282.098.282.705.281.354.282-.037.282.402 1.128 4.113.564 4.177 1.128 10.798.564 6.974.282 1.686.282.704.282 1.413.564 6.542 1.128 15.745.282.848.281-1.575.282-5.196.282-9.754.564-33.094 1.692-130.406.282-11.675.282-7.047.282-2.323.282 1.77.282 4.862.564 17.098.564 29.927 1.41 97.098.282 8.586.281 4.251.564 4.352.282.749.282-.416.564-1.173.282-.42.564-2.002 1.128-5.504.282.275.282.628.282-.178.564-2.119.564-.437.282-1.245.282-2.126.282-1.277.282.578.563 3.617.564 5.88.564 5.236.282 1.604.564 5.237.564 6.326 1.128 21.806.282 1.408.282-.57.282-3.816.282-9.024.564-33.646L385.96 36.94l.282-8.243.282-4.332.282-.89.282 2.025.282 5.236.564 20.408.564 32.333 1.128 80.22.282 13.92.282 8.058.282 2.299.846-1.771.564-2.798.845-4.758.282-.853.564-.377.846-3.18.282-.044.282.078.564-.958.282.46.282 1.916.846 9.345.846 10.954.282 2.155.564 2.338.564 4.86.845 9.738.846 10.293.282-.657.282-4.232.282-7.262.282-10.89.564-39.305 1.128-92.113.564-33.293.282-9.139.282-5.528.282-2.666.282.9.282 4.75.282 8.26.564 25.863 1.127 67.788.564 38.48.282 12.225.282 6.924.564 6.861.282 2.443.282 1.362.282-.107.564-2.331 1.974-10.482.846-1.77.282-.441.281.103.564 1.042.282 1.133.564 4.354 1.128 8.684.564 3.83.564 7.507.564 11.29.564 13.031.282 4.191.282 1.642.282-1.477.282-5.958.282-11.547.564-37.299 1.691-146.062.282-13.451.282-7.578.282-2.351.282.53.282 2.472.282 4.808.564 15.278.564 22.95.846 51.954.846 53.712.564 25.326.282 6.567.282 2.44.281.34.282-.902.846-5.959.564-.416.564-1.853.846-3.572.564-1.06.282-.718.282.123 1.41 7.305 1.128 9.41.563 3.799.846 7.16.564 10.74.564 11.719.564 6.46.282.97.282-3.405.282-10.646.564-41.388 1.692-148.64.564-17.383.282-3.841.281-1.462.282.538.282 2.612.282 4.934.564 14.993.564 23.07 1.41 87.612.564 33.549.564 17.145.282 3.133.282.322.564-2.53.846-4.2.564-1.943 1.691-10.151.282-.664.282-.213.564.142.282-.028.282.263.282 1.222.564 5.381.564 6.232.564 3.563.282 1.639.282 2.947.846 14.138.845 14.343.282 1.66.282-1.635.282-5.893.282-10.652.564-36.802 1.41-124.458.564-27.423.282-5.224.282-1.9.282-.932.282-.035.282 2.6.282 6.492.846 32.824.563 26.557.846 46.581 1.128 46.627.564 12.814.564 7.766.282.728.564-.851.282-.359.846-2.518.282-.449.564-1.678.846-2.979.282.428.563 2.445.282.9.282 2.264.564 6.664.564 2.375.282 2.533.846 12.415.846 15.392.282 2.918.282.444.282-3.828.282-10.022.564-40.122 1.41-132.828.281-15.255.282-8.943.564-8.719.282-3.862.282-1.977.282 1.617.564 10.85.564 17.55.846 37.225 1.41 72.943.564 23.106.564 15.099.282 4.616.282 2.505.281.82.282-.151.282-.721.282-1.196.564-4.22.564-4.32.282-.864.282-.454 1.41-3.219.282.067.282.798.564 3.84 1.973 17.764.564 5.29.564 9.261 1.128 21.416.282-.04.282-4.268.282-9.576.282-16.698.564-53.609.846-90.484.564-37.457.282-9.097.282-5.37.282-2.762.282-.746.282.516.281 1.77.282 4.097.564 14.785.564 18.875 2.82 122.954.564 16.094.282 5.193.282 1.743.282-.052.282.641.282 1.357.282.253.564-2.834.563-.908.282-1.547.564-4.003 1.128-4.139.282.345.282.799.282 1.225.564 4.683.564 3.986.282 1.704.282 2.49.564 8.29 1.41 29.5.281.187.282-4.742.282-9.413.282-14.54.564-49.222.846-83.953.564-37.732.282-10.158.564-7.997.282-3.185.282-1.72.282 1.643.282 4.816.564 15.283 1.128 43.068 1.41 60.697.845 25.244.564 9.919.564 4.87.846 6.189.564 3.653.282 1.108.282.465.282-.115.282-.285.282-.117.846.342.282.599.563 2.921.564 4.965.564 5.164.846 3.67.282 2.845.564 12.242.564 12.164.564 9.406.282 1.357.282-5.83.564-29.738.564-51.668.846-86.054.563-37.965.282-10.526.282-5.402.282-2.99.282-.968.282 1.956.564 9.192.564 14.122 1.128 38.57 2.256 80.75.564 10.058.845 10.958.282 1.949.282.746.282-.246.846-2.912.564-2.635.564-3.376.282-1.151.282-.454.282.268 1.128 2.761.564 3.88.564 4.686.564 7.942.563 9.518 1.128 14.351.564 8.963.846 18.304.282 2.457.282-1.605.282-7.249.282-14.571.564-50.498 1.128-113.256.564-27.84.282-6.72.282-2.55.282.81.563 5.7.282 4.682 1.692 43.771 2.256 76.52.564 11.73.846 12.292.282 1.407.564-.248.282.153.281-.365.564-2.425.282.387.282 1.075.282-.37.564-4.05.282.06.282.336.282-1.938.282-3.656.282-2.151.282.711.282 1.57.282.731.282 1.387.282 4.203.564 11.89 1.128 13.58.563 7.35.564 10.676.846 20.345.282 4.21.282 1.132.282-2.979.282-8.795.282-16.086.564-50.156.846-84.35.564-32.181.564-13.74.282-3.956.282-1.164.282 1.058.282 2.033.282 3.13.281 5.324.846 24.632 2.256 76.693 1.128 20.8.564 6.947.846 5.606.282 1.37.282.717.282.114.282-.067.282.237.281.47.282.067.564-1.318.282-.159.282.408.282.685.282 1.065.564 4.247 1.41 12.027.282 1.418.282 2.478.564 10.62.846 17.574.282 3.46.282-.704.282-5.923.281-11.897.564-41.75 1.128-94.369.282-13.142.282-6.925.564-7.473.282-1.28.282 1.886 1.128 16.018.282 5.43 1.128 33.912 1.691 45.612.564 10.668.846 9.896.282 1.273.282-.385.282-.75.282-.279.282-.553.846-5.147.846-1.872.282-.304.564-.175.282.316.564 1.6.282 1.246.563 5.86 1.692 16.574.282 1.65.564 6.533.564 7.792 1.128 21.721.282-.25.282-5.011.282-10.932.564-38.087 1.127-88.982.564-21.548.282-7.129.282-3.436.282.52.282 2.78.564 9.188 1.692 40.163 1.974 52.694.564 8.816.282 3.166.282 1.91.563 1.69.282.129.282-.654.846-3.68 1.692-10.867.282-.925.282-.261.846-.085.282.958 1.128 7.023.564 5.179 1.127 13.452 1.128 13.368.564 11.042.564 10.935.282 3.113.282-.001.282-4.94.282-10.637.564-35.75.846-67.82.564-24.288.564-14.11.281-1.15 1.128 10.647 1.41 26.736 1.692 43.343 1.128 17.113 1.692 9.5.281 1.376.282.413.564-1.906.282-1.113.564-3.933.282-.593.564 1.47.564-.699.282.072.282-.173.282.205.282 1.758.564 5.306.282 1.211.282 1.792 1.41 17.557.563 9.82.282 1.919.282-.567.282-3.618.282-7.268.564-26.994.846-51.824.564-21.807.564-10.834.282-1.194.282.29.282.795.282.409.282 2.206.282 4.144 1.128 26.036.281 11.734h0" clip-path="url(#p822503ed9c)" style="fill:none;stroke:#1f77b4;stroke-width:1.5;stroke-linecap:square"/><path id="patch_3" d="M71.308 266.112V0" style="fill:none;stroke:gray;stroke-width:.8;stroke-linejoin:miter;stroke-linecap:square"/><path id="patch_4" d="M685.107 266.112V0" style="fill:none;stroke:#000;stroke-width:.8;stroke-linejoin:miter;stroke-linecap:square"/><path id="patch_5" d="M71.308 266.112h613.8" style="fill:none;stroke:gray;stroke-width:.8;stroke-linejoin:miter;stroke-linecap:square"/><path id="patch_6" d="M71.308 0h613.8" style="fill:none;stroke:#000;stroke-width:.8;stroke-linejoin:miter;stroke-linecap:square"/></g></g><defs><clipPath id="p822503ed9c"><path d="M71.308 0h613.8v266.112h-613.8z"/></clipPath></defs></svg>