<svg xmlns="http://www.w3.org/2000/svg" xmlns:xlink="http://www.w3.org/1999/xlink" width="913.477" height="377.053" viewBox="0 0 685.107 282.79"><defs><style>*{stroke-linejoin:round;stroke-linecap:butt}</style></defs><g id="figure_1"><path id="patch_1" d="M0 282.79h685.107V0H0v282.79z" style="fill:none"/><g id="axes_1"><path id="patch_2" d="M71.308 266.112h613.8V0h-613.8v266.112z" style="fill:none"/><g id="matplotlib.axis_1"><g id="xtick_1"><g id="line2d_1"><defs><path id="mc6a86c6497" d="M0 0v3.5" style="stroke:gray;stroke-width:.8"/></defs><use xlink:href="#mc6a86c6497" x="99.207" y="266.112" style="fill:gray;stroke:gray;stroke-width:.8"/></g><g id="text_1" style="fill:gray" transform="matrix(.1 0 0 -.1 96.026 280.71)"><defs><path id="DejaVuSans-30" d="M2034 4250q-487 0-733-480-245-479-245-1442 0-959 245-1439 246-480 733-480 491 0 736 480 246 480 246 1439 0 963-246 1442-245 480-736 480zm0 500q785 0 1199-621 414-620 414-1801 0-1178-414-1799Q2819-91 2034-91q-784 0-1198 620-414 621-414 1799 0 1181 414 1801 414 621 1198 621z" transform="scale(.01563)"/></defs><use xlink:href="#DejaVuSans-30"/></g></g><g id="xtick_2"><use xlink:href="#mc6a86c6497" id="line2d_2" x="168.958" y="266.112" style="fill:gray;stroke:gray;stroke-width:.8"/><g id="text_2" style="fill:gray" transform="matrix(.1 0 0 -.1 159.414 280.71)"><defs><path id="DejaVuSans-35" d="M691 4666h2478v-532H1269V2991q137 47 274 70 138 23 276 23 781 0 1237-428 457-428 457-1159 0-753-469-1171Q2575-91 1722-91q-294 0-599 50Q819 9 494 109v635q281-153 581-228t634-75q541 0 856 284 316 284 316 772 0 487-316 771-315 285-856 285-253 0-505-56-251-56-513-175v2344z" transform="scale(.01563)"/></defs><use xlink:href="#DejaVuSans-35"/><use xlink:href="#DejaVuSans-30" x="63.623"/><use xlink:href="#DejaVuSans-30" x="127.246"/></g></g><g id="xtick_3"><use xlink:href="#mc6a86c6497" id="line2d_3" x="238.708" y="266.112" style="fill:gray;stroke:gray;stroke-width:.8"/><g id="text_3" style="fill:gray" transform="matrix(.1 0 0 -.1 225.982 280.71)"><defs><path id="DejaVuSans-31" d="M794 531h1031v3560L703 3866v575l1116 225h631V531h1031V0H794v531z" transform="scale(.01563)"/></defs><use xlink:href="#DejaVuSans-31"/><use xlink:href="#DejaVuSans-30" x="63.623"/><use xlink:href="#DejaVuSans-30" x="127.246"/><use xlink:href="#DejaVuSans-30" x="190.869"/></g></g><g id="xtick_4"><use xlink:href="#mc6a86c6497" id="line2d_4" x="308.457" y="266.112" style="fill:gray;stroke:gray;stroke-width:.8"/><g id="text_4" style="fill:gray" transform="matrix(.1 0 0 -.1 295.733 280.71)"><use xlink:href="#DejaVuSans-31"/><use xlink:href="#DejaVuSans-35" x="63.623"/><use xlink:href="#DejaVuSans-30" x="127.246"/><use xlink:href="#DejaVuSans-30" x="190.869"/></g></g><g id="xtick_5"><use xlink:href="#mc6a86c6497" id="line2d_5" x="378.207" y="266.112" style="fill:gray;stroke:gray;stroke-width:.8"/><g id="text_5" style="fill:gray" transform="matrix(.1 0 0 -.1 365.483 280.71)"><defs><path id="DejaVuSans-32" d="M1228 531h2203V0H469v531q359 372 979 998 621 627 780 809 303 340 423 576 121 236 121 464 0 372-261 606-261 235-680 235-297 0-627-103-329-103-704-313v638q381 153 712 231 332 78 607 78 725 0 1156-363 431-362 431-968 0-288-108-546-107-257-392-607-78-91-497-524-418-433-1181-1211z" transform="scale(.01563)"/></defs><use xlink:href="#DejaVuSans-32"/><use xlink:href="#DejaVuSans-30" x="63.623"/><use xlink:href="#DejaVuSans-30" x="127.246"/><use xlink:href="#DejaVuSans-30" x="190.869"/></g></g><g id="xtick_6"><use xlink:href="#mc6a86c6497" id="line2d_6" x="447.957" y="266.112" style="fill:gray;stroke:gray;stroke-width:.8"/><g id="text_6" style="fill:gray" transform="matrix(.1 0 0 -.1 435.233 280.71)"><use xlink:href="#DejaVuSans-32"/><use xlink:href="#DejaVuSans-35" x="63.623"/><use xlink:href="#DejaVuSans-30" x="127.246"/><use xlink:href="#DejaVuSans-30" x="190.869"/></g></g><g id="xtick_7"><use xlink:href="#mc6a86c6497" id="line2d_7" x="517.707" y="266.112" style="fill:gray;stroke:gray;stroke-width:.8"/><g id="text_7" style="fill:gray" transform="matrix(.1 0 0 -.1 504.983 280.71)"><defs><path id="DejaVuSans-33" d="M2597 2516q453-97 707-404 255-306 255-756 0-690-475-1069Q2609-91 1734-91q-293 0-604 58T488 141v609q262-153 574-231 313-78 654-78 593 0 904 234t311 681q0 413-289 645-289 233-804 233h-544v519h569q465 0 712 186t247 536q0 359-255 551-254 193-729 193-260 0-557-57-297-56-653-174v562q360 100 674 150t592 50q719 0 1137-327 419-326 419-882 0-388-222-655t-631-370z" transform="scale(.01563)"/></defs><use xlink:href="#DejaVuSans-33"/><use xlink:href="#DejaVuSans-30" x="63.623"/><use xlink:href="#DejaVuSans-30" x="127.246"/><use xlink:href="#DejaVuSans-30" x="190.869"/></g></g><g id="xtick_8"><use xlink:href="#mc6a86c6497" id="line2d_8" x="587.457" y="266.112" style="fill:gray;stroke:gray;stroke-width:.8"/><g id="text_8" style="fill:gray" transform="matrix(.1 0 0 -.1 574.732 280.71)"><use xlink:href="#DejaVuSans-33"/><use xlink:href="#DejaVuSans-35" x="63.623"/><use xlink:href="#DejaVuSans-30" x="127.246"/><use xlink:href="#DejaVuSans-30" x="190.869"/></g></g><g id="xtick_9"><use xlink:href="#mc6a86c6497" id="line2d_9" x="657.207" y="266.112" style="fill:gray;stroke:gray;stroke-width:.8"/><g id="text_9" style="fill:gray" transform="matrix(.1 0 0 -.1 644.482 280.71)"><defs><path id="DejaVuSans-34" d="M2419 4116 825 1625h1594v2491zm-166 550h794V1625h666v-525h-666V0h-628v1100H313v609l1940 2957z" transform="scale(.01563)"/></defs><use xlink:href="#DejaVuSans-34"/><use xlink:href="#DejaVuSans-30" x="63.623"/><use xlink:href="#DejaVuSans-30" x="127.246"/><use xlink:href="#DejaVuSans-30" x="190.869"/></g></g></g><g id="matplotlib.axis_2"><g id="ytick_1"><g id="line2d_10"><defs><path id="md69e1ed9f0" d="M0 0h-3.5" style="stroke:gray;stroke-width:.8"/></defs><use xlink:href="#md69e1ed9f0" x="71.308" y="242.164" style="fill:gray;stroke:gray;stroke-width:.8"/></g><g id="text_10" style="fill:gray" transform="matrix(.16 0 0 -.16 0 248.242)"><defs><path id="DejaVuSans-2212" d="M678 2272h4006v-531H678v531z" transform="scale(.01563)"/></defs><use xlink:href="#DejaVuSans-2212"/><use xlink:href="#DejaVuSans-31" x="83.789"/><use xlink:href="#DejaVuSans-30" x="147.412"/><use xlink:href="#DejaVuSans-30" x="211.035"/><use xlink:href="#DejaVuSans-30" x="274.658"/><use xlink:href="#DejaVuSans-30" x="338.281"/></g></g><g id="ytick_2"><use xlink:href="#md69e1ed9f0" id="line2d_11" x="71.308" y="197.303" style="fill:gray;stroke:gray;stroke-width:.8"/><g id="text_11" style="fill:gray" transform="matrix(.16 0 0 -.16 10.18 203.382)"><use xlink:href="#DejaVuSans-2212"/><use xlink:href="#DejaVuSans-35" x="83.789"/><use xlink:href="#DejaVuSans-30" x="147.412"/><use xlink:href="#DejaVuSans-30" x="211.035"/><use xlink:href="#DejaVuSans-30" x="274.658"/></g></g><g id="ytick_3"><use xlink:href="#md69e1ed9f0" id="line2d_12" x="71.308" y="152.443" style="fill:gray;stroke:gray;stroke-width:.8"/><use xlink:href="#DejaVuSans-30" id="text_12" style="fill:gray" transform="matrix(.16 0 0 -.16 54.127 158.522)"/></g><g id="ytick_4"><use xlink:href="#md69e1ed9f0" id="line2d_13" x="71.308" y="107.583" style="fill:gray;stroke:gray;stroke-width:.8"/><g id="text_13" style="fill:gray" transform="matrix(.16 0 0 -.16 23.587 113.661)"><use xlink:href="#DejaVuSans-35"/><use xlink:href="#DejaVuSans-30" x="63.623"/><use xlink:href="#DejaVuSans-30" x="127.246"/><use xlink:href="#DejaVuSans-30" x="190.869"/></g></g><g id="ytick_5"><use xlink:href="#md69e1ed9f0" id="line2d_14" x="71.308" y="62.722" style="fill:gray;stroke:gray;stroke-width:.8"/><g id="text_14" style="fill:gray" transform="matrix(.16 0 0 -.16 13.408 68.801)"><use xlink:href="#DejaVuSans-31"/><use xlink:href="#DejaVuSans-30" x="63.623"/><use xlink:href="#DejaVuSans-30" x="127.246"/><use xlink:href="#DejaVuSans-30" x="190.869"/><use xlink:href="#DejaVuSans-30" x="254.492"/></g></g><g id="ytick_6"><use xlink:href="#md69e1ed9f0" id="line2d_15" x="71.308" y="17.862" style="fill:gray;stroke:gray;stroke-width:.8"/><g id="text_15" style="fill:gray" transform="matrix(.16 0 0 -.16 13.408 23.94)"><use xlink:href="#DejaVuSans-31"/><use xlink:href="#DejaVuSans-35" x="63.623"/><use xlink:href="#DejaVuSans-30" x="127.246"/><use xlink:href="#DejaVuSans-30" x="190.869"/><use xlink:href="#DejaVuSans-30" x="254.492"/></g></g></g><path id="line2d_16" d="m99.207 152.443 7.613-.042.282.086.282-.091.282.097.282-.103.282.11.282-.118.282.126.282-.136.282.149.282-.164.282.182.282-.204.282.233.282-.274.282.332.282-.424.282.591.282-.99.282 3.534.282 5.951.564-.604.282-.357.563 5.238.564 6.295.564.72.282 1.576.282-1.527.282-4.302.282-2.547.282-.955.282-2.5.282-.798.282 2.029.282.438.282-2.07.282-.237.282.78.564-2.515.282.857.282 1.411.282.597.282-.382.282-2.303.563-11.09.564-15.307.282-8.496.282-4.382.282.657.564 4.395.282 6.14.282 9.123.282 5.44.282.64.282 1.613.564 6.516.282 6.354.564 19.995.282-2.013.282-3.75.282 1.673.282.907.564-7.202.563 5.652.282.336.282-2.104.846-17.332.282-.622.564-4.585.282 3.328.564 17.093.282 3.005.282.79.282-.457.282-1.414.282 1.288.282 4.946.282 2.507.282-5 1.128-38.365.563-7.167.282-2.576.564-1.394.282-2.382.564-6.57.282 1.229.846 23.741.282 2.475.282.153.282-1.703.846-7.06.282 5.904.564 32.09.282.481.282-6.264.282-.698.282-1.282.564-21.986.281-1.97.846 9.984.282 5.61.282 2.178.846-2.348.282-1.3.282 2.226.564 9.423.282.345.282-4.08 1.692-51.723.282-2.937.282 1.25.564 12.274.563 3.456.846 23.242.564 7.605.282.233.282-.574.564 5.869.282.458.282-.191.564 4.014.282-.87.564-4.055.282-1.284.282-.635.282-.33.282-1.252.282-.36.564 6.063.281.188.282 1.196.564 9.348.846 1.58.282-5.23 1.41-59.48.282-5.397.282 3.223.282 4.6.282-.515.282-.92.564 10.534.282.472.282-1.205.282 3.379.282 6.323.282 3.825.282 1.949.281 5.334.564 17.113.846 7.474.282.646.564-3.89.282-.645.564-2.887.564-4.52.282.856.282 4.472.282 2.27.282.04.282 3.719.564 10.918.282 1.43.282.375.564-3.477.281.212.282-1.892 1.128-36.088.846-27.603.282-2.438.282.66.564 7.02.846 15.477.564 2.144.846 16.845.282 3.916.564 14.548.564-3.62.563 9.38.282-4.63.282-8.133.282-2.72.282-.06.282-3.983.282-5.875.282-1.753.282 1.586.282.837.564-1.393.282-.977.282.685.282 5.086.564 13.16.282 1.993.282 3.15.282 4.99.282 1.912.282-3.287.282-7.376 1.41-61.921.281-17.144.282-6.667.564 11.194.282 2.512.282 6.242.846 31.313 1.41 29.182.282 1.425.282-.58 1.128-8.538.563-8.788.564 6.052.282-1.005.282 1.629.564 18.959.282.073.282-1.82.564 10.22.282-3.596.282-8.497.282-3.64.282 1.36.282-.387.846-8.43.564-19.103.846-30.113.282-.598.563 15.605.282.888.282.193.846 13.586.282 2.895.564 8.95.564 6.5.564 8.065.282 1.247.564-.574.282.144.282-1.445.846-12.78.282.913.282-.48.282-1.104.282 3.9.563 17.389.282 2.991.282-.073.282-.37.282-1.072.564-5.69.282-.912.282.572.282-.062.282-1.76.282-3.915.282-6.407.564-20.455.564-19.718.846-17.282.282-.758.846 14.075.845 23.858.846 12.192.282-1.222.282 1.624.564 12.12.282.013.282 1.055.564 7.276.564 4.439.282 2.283.282.913.282.35.282-1.251.282-2.708.282-.989.564 2.568.282-.33.282-.517.563-2.302.282-.074.282.245.282-.415.282-.05.282-.64.282-4.623.564-14.907.282-10.417.564-28.783.846-23.437.282-3.377.282 2.328.846 13.46.846 39.702.282 5.898.845 23.213.282-5.558.282-1.76.282 6.54.282 3.824.282-3.897.282-1.933.564 8.937.282-5.986.282-9.488.282-5.193.282-1.608.282-.438.282 1.07.564 4.082.282 1.836.564 5.238.282-.106.282-.78.282.955.845 7.937.282-4.005.564-20.299.564-12.075.564-21.448.282-2.46.282.189.564-5.908.282 2.064.846 16.231 1.128 29.266.282 4.353.846 6.06.281-1.58.282-3.487.282-.529.846 9.113.282 1.05.282.507.282 1.576.564 4.423.282-.642.564-3.21.282-1.866.282-.357.282-.03.282-4.633.282-7.539.282-2.346.282 3.808.282 2.231.282-.579.282 2.355.282 4.593.281-1.131.564-21.134.564-18.957.282-4.878.282-2.534.282-1.392.282 1.784.564 14.26.282.306.282-2.4.282 3.941.282 8.124.282 4.513.282 2.05.846 13.463.282 3.153.282 4.68.282.023.564-11.452.563.371.564-8.668.564.982.564-11.958.282-.424.564 5.997.282 2.134.564 9.944.564 11.333.564 7.717.282 2.06.282-5.211 1.692-69.706.281.36.282 1.395.564-2.592.282 3.222.564 13.62.282 3.556.282 5.203.564 17.03.282 1.997.282 4.08.564 15.145.282-1.622.282-2.588.282-.637.564-3.573.282.45.282.689.564-2.373.282 1.366.845 7.02.282.47.282-.5.282.046 1.128 3.957.282 1.045.282.511.282-.01.282-.75.282-4.873.846-26.378.282-8.528.564-21.618.282-1.55.282-.59.564-6.997.282 2.391.281 5.06.282 2.558.282-1.56.282-.37.282 6.17.282 9.283.564 10.408.846 29.268.282 2.059.564 5.338.282-2.722.282-5.386.282-1.902.564 6.108.564-6.126.564 9.953.282-.27.282-2.528.281.27.846 3.375.282 1.577.282.717.282 1.174.282.23.282-1.52.282-.47.282.863.282-2.243.282-6.304.564-21.06.564-27.038.564-12.04.282-4.863.282-.589.282 2.41.282.086.282-1.357.282 4.19.845 27.344.564 13.165 1.128 15.714.282-1.457.282.942.564 9.946.282-.59.282.143.282.97.282-4.652.282-7.414.282-.762.564 10.13.564 6.692.282 3.586.564 3.444.281.812.282-1.94.846-11.175.282-2.818.282-4.345 1.128-30.853.564-17.975.564-9.38.282-5.076.282-.46.282 3.03.282 4.373.846 17.368.282 5.84.564 17.27.845 11.896.282 4.435.282 1.507.282-.04.564 1.736.282-2.349.564-15.055.282-.49.282 3 .282-.487.282-.876.282 5.465.282 8.459.282 2.71.282-2.187.282-.11.564 5.129.282 1.426.564 5.663.282-3.607.281-5.856.282-1.43.282.767.282-4.287.564-18.399.564-27.269.564-24.133.564-10.548.282-.933.282 2.507.282 5.965.846 25.781.846 38.411.846 14.077.282 3.67.281-2.157.564-10.168.282-.517.282-.249.282-.786.282 1.81.564 7.655.282-.77.282-1.49.282-.558.564-2.91.282 3.901.282 6.005.282-1.264.282-7.232.282-3 .282 1.028.282-3.997.282-5.943.282 2.876.282 9.956.282 5.2.281-2.814.846-16.05.846-52.824.564-11.04.282-3.704.282 3.798 1.974 70.547.282 2.82.282 1.146.564 6.662.282-.588.282.579.282-.732.563-12.697.282 3.741.282 6.788.282 2.302.282.36.282-.443.564-6.041.282-.877.564-7.042.282 2.9.282 7.508.282 2.98.282.6.564 14.438.282-.003.282-5.758.282-2.284.282-.08.282-6.7 1.127-48.96.564-15.686.282-3.168.282 1.036.564 8.245.846 22.073.282.92.282 3.496.282 5.088.564 4.759.564 12.493.282 1.268.564-6.52.282-.248.282 2.652.282-.322.564-8.802.563 3.858.282-.236.282.438.564 6.585.282 1.078.282-.114.282.455.282 2.28.282 6.148.564 16.132.282.753.282-1.61.282.709.282-.414.282-9.75.564-37.054.564-16.371.564-13.111.282 3.426.282 5.942.281-.567.282-5.146.282-1.924.282 2.44.282 4.757.846 21.956.564 8.241.564 11.269.282-.418.282-1.05.282 1.404.282-.002.282-2.306.282 1.84.564 13.417.282.523.282 2.744.282 6.503.282 1.87.563-8.522.282-1.401.564-4.39.564 1.806.282-1.781.282-.7.846 9.39.282.502.282-.355.282-2.035.282-6.561 1.692-72.21.564-11.174.282-3.199.282.738.282 5.597.563 17.657 1.128 46.702 1.128 13.966.564 6.302.282.717.282-.31.282-.569.282-3.706.282-5.952.282-1.965.282 3.115.564 9.557.282 2.677.282-1.497.564-5.008.281-5.233.282-8.356.282-4.778.282-.337.282-1.916.282-4.364.282.07.846 21.981.282-2.07.282-6.35.564-22.4.564-25.15.282-8.793.282-3.169.282 2.69.846 13.798 1.127 34.005.564 16.642.282 3.434.564 1.18.282 1.005.564-1.658.282 1.81.282.856.282-2.66.282-1.094.282 2.872.282-.217.282-5.376.282-2.063.564 10.321.282-1.726.282-3.013.282 2.08.282 3.311.282-1.326.282-3.322.282.318.281 2.183.282.985.282 1.726.282 2.757.282-1.197.564-12.991.282-10.33.846-54.058.282-5.672.564-5.754.282 1.533.846 31.105.282 5.07.564 13.708 1.691 16.192.282 1.248.282-.833.282.122.564 5.197.282.781.282-.794.282 1.927.564 13.18.282.432.282-1.107.282 1.733.282.083.564-11.255.282-1.54.564 3.608.282.13.282 2.746.564 16.603.281 3.107.282-4.938.564-25.84 1.128-59.012.282-5.081.564-5.823.282.414.846 13.137 1.128 34.77.282 6.644.282 9.599.282 5.787.282-.778.282-.187.845 17.752.282 1.29.564 5.066.282-2.912.564-12.614.564-4.191.282-3.18.282-.58.846 14.814.282 1.381.564 1.38.564 2.723.282-.975.564-5.187.282-6.051.845-36.87.846-38.9.846-16.216.282 4.007 2.256 74.074.282 4.984.282 7.536.282 3.88.282-.382.282 1.059.846 7.3.282 2.313.282-1.591 1.41-20.967.281 2.45.282 5.53.564 15.95.282 2.94.564 2.202.564-4.342.564 4.682.282-1.982.282-4.866.282-6.95.564-29.21.846-47.766.282-9.725.563-13.37.282-6.69.282 2.397.846 28.685.846 47.653.846 15.562.282 1.807.282.41.282 2.41.282 3.481.282 2.06.282 1.053.282 2.576.564 6.351.846 2.559.281 1.214.282-.47.282-3.537.564-9.704.282-.71.282.917.282 1.529.564 4.824.282-.044.282-.557.282-1.256.282-6.208.564-20.547.564-17.499.564-25.557.282-6.786.282-3.933.282-1.61.282 1.952.564 8.395.281 7.137 1.692 62.363.282 3.3.282-1.649.564-13.925.282-.552.282.065.282-3.451.282-.083.564 9.392.282 1.058.564 4.55.282 1.471.564 8.733.282.81.282-.064.563 4.48.282.294.564 3.51.282-1.908.564-16.06.564-17.2.282-15.088.564-43.094.846-34.067.282 1.283.282 7.369.282 2.308.282.4.282 6.711.564 23.72.845 39.571.564 12.262.846 11.508.282 6.273.282 1.426.282-.338.564 5.682.564-2.123.282.25.282-.975.282-2.192.282-.057.564 3.304.282.871.282.13.282-.126.564 3.723.282-2.53.282-4.569.281 1.119.282 4.921.282-1.572.564-20.745.282-4.804.282-7.299 1.128-66.552.564-28.067.282-3.135.564 16.106 1.128 38.239.846 37.882.282 7.62.845 32.126.282 3.652.282-.665.846-7.221.282-5.997.282-3.358.282 3.582.282 6.424.282 3.883.564 3.542.282 2.049.282.241.282-1.223.282-.14.564 2.318.282-.132.282.991.282 1.84.282-1.952.564-19.547.563-24.824.846-54.785.846-30.16.282-3.114.282 2.522.564 15.209.282 12.355.846 57.713.564 14.197.282 8.596.282 1.325.282-1.984.282 2.882.282 4.48.282.449.282-2.052.281-.87.282 2.216.564 12.772.282.164.282-1.822.564 7.421.282-1.81.282-2.78.564 4.643.564-4.452.282 1.07.282 2.739.282 1.448.282-1.748.282-5.514.282-8.81.282-12.3.564-40.057.845-58.112.282-12.406.282-6.482.282-1.103.282 3.185.282 8.322.846 41.253.846 42.697.846 24.795.282-1.514.282-4.427.282.4.564 7.433.282.803.282 3.89.564 15.139.282 2.813.282.895.281 1.381.282.332.282-3.461.564-9.573.282 1.74.282 3.702.282 1.66.282 2.385.564 15.214.282 2.238.282-2.22.282-4.784.282-10.634.846-53.253.564-44.64.564-27.22.564-17.946.563-6.218.282 1.919.564 22.369.564 29.023.564 36.235.564 21.801.564 14.79.564 11.921.564 5.404.282 3.618.282-1.91.282-6.074.282-1.105.282 3.511.282-1.164.282-4.947.282-1.172.282 1.672.281-.526.282-.884.282.425.282.884.282 5.87.564 29.137.282 4.393.282.427.282 2.923.282-4.303.564-47.225 1.128-90.65.564-22.63.282-8.26.282-4.252.282 1.183.282 5.662.282 10.063.564 33.08.845 51.005.564 25.625.282 1.982.282-3.707.282-.038.282 3.913.282 1.919.282.457.564 5.057.282-.634.282.7.282 3.162.282.466.282-1.613.282 1.132.846 8.552.282 5.62.282 2.156.282.184.281 5.873.282 9.436.282 4.865.282-.328.282-2.547.282-8.119.564-34.035.564-46.478.564-49.632.564-28.775.564-14.69.282.449.282 11.103.564 27.569.282 10.067.846 48.252.564 20.12.281 11.16 1.128 22.561.282-.356.282.31.564 11.177.564-11.724.282-.669.282 1.075.282-1.61.282.266 1.692 25.262.282 1.623.282-1.784.845-15.17.282-12.61.846-58.572.564-43.001.564-24.38.846-19.428.282 4.665 2.538 115.133.846 18.581.281 2.015.564 5.753.282.315.564 5.79.564-.645.282 2.461.282-.413.282-4.94.282-1.75.564 13.692.846 16.7.282 2.592.282-.123.282-1.454.282-2.843.282-5.676.282-9.519.564-34.158 1.41-110.503.845-40.197.282 3.364.846 18.79 2.256 136.473 1.41 31.647.282 3.101.281-.026.564-2.054.282-.436.282 1.16.564 8.624.564 2.487.282 2.884.282-.23.282-4.25.282-1.498.564 7.742.282-.47.282-3.39.282-8.36.564-40.826 1.128-87 .563-34.68.282-11.026.282-4.829.282-1.011.282 5.084.564 32.682 1.974 116.006.282 4.512.282-.923.564-4.752.282-4.046.564-12.049.564-4.522.282.2.845 14.73.282 2.45 1.692 41.035.282-1.516.282 2.022.282 3.6.282-4.99.846-45.648L591.51 38.98l.282-9.96.282-3.84.282-2.305.282 4.242.563 36.847 1.128 65.87.282 15.329.846 23.691.282 11.737.282 6.44.282 3.344.564 13.324.282.895.564-9.564.282-2.249.282-1.281.282.095.564 7.724.564 8.783.563 14.494.564 7.007.282 3.714.564 9.422.282-4.833.564-42.135L604.2 59.366l.564-29.595.282-4.365.282-2.63.282-.949.282 5.31.846 35.16.563 34.255.846 54.119.564 23.543.564 17.192.282-.77.282-5.594.282-.085.282 4.988.282 2.311.282.303.564 7.316.282 1.224.282 3.221.282 6.032.282 3.264.282 1.865.564 11.299.564 4.106.563 6.56.282-2.957.282-8.656.564-34.828 1.41-112.591.846-42.523.282-4.439.564-2.365.282.727.282 7.222 2.255 120.468.282 10.173 1.128 23.357.282.078.282 1.764.282 5.122.282 2.653.282-.746.282 1.51.282 3.44.282 1.336.282.203.282 4.082.846 24.496.282-1.065.282.53.282 5.16.282-1.402 1.127-63.311.846-73.727.846-49.233.564-17.017.282-2.078.282 7.239 1.41 64.02.846 38.578.564 14.639.282 8.325.282 4.21.282 2.277.281 5.402.846 26.856 1.128 20.389.564 3.665.564 7.655 1.128 5.314.564 12.618.282-7.908 1.41-136.974.564-42.443.563-33.813.564-18.021.282-2.761.282 4.69 1.128 36.735.846 53.945.564 34.219 1.974 62.207.282 3.884.564 13.337.281 1.86.564-6.136.282-2.806.282-4.592.282-1.42.282 3.002.282-.143.282-3.19.282.142.564 7.991.564 11.764.282-6.126.846-43.712.846-69.512.846-41.918.282-6.836.281-.539h0" clip-path="url(#p8d3379c990)" style="fill:none;stroke:#1f77b4;stroke-width:1.5;stroke-linecap:square"/><path id="patch_3" d="M71.308 266.112V0" style="fill:none;stroke:gray;stroke-width:.8;stroke-linejoin:miter;stroke-linecap:square"/><path id="patch_4" d="M685.107 266.112V0" style="fill:none;stroke:#000;stroke-width:.8;stroke-linejoin:miter;stroke-linecap:square"/><path id="patch_5" d="M71.308 266.112h613.8" style="fill:none;stroke:gray;stroke-width:.8;stroke-linejoin:miter;stroke-linecap:square"/><path id="patch_6" d="M71.308 0h613.8" style="fill:none;stroke:#000;stroke-width:.8;stroke-linejoin:miter;stroke-linecap:square"/></g></g><defs><clipPath id="p8d3379c990"><path d="M71.308 0h613.8v266.112h-613.8z"/></clipPath></defs></svg>