<svg xmlns="http://www.w3.org/2000/svg" xmlns:xlink="http://www.w3.org/1999/xlink" width="913.477" height="377.053" viewBox="0 0 685.107 282.79"><defs><style>*{stroke-linejoin:round;stroke-linecap:butt}</style></defs><g id="figure_1"><path id="patch_1" d="M0 282.79h685.107V0H0v282.79z" style="fill:none"/><g id="axes_1"><path id="patch_2" d="M71.308 266.112h613.8V0h-613.8v266.112z" style="fill:none"/><g id="matplotlib.axis_1"><g id="xtick_1"><g id="line2d_1"><defs><path id="m78666240a9" d="M0 0v3.5" style="stroke:gray;stroke-width:.8"/></defs><use xlink:href="#m78666240a9" x="99.207" y="266.112" style="fill:gray;stroke:gray;stroke-width:.8"/></g><g id="text_1" style="fill:gray" transform="matrix(.1 0 0 -.1 96.026 280.71)"><defs><path id="DejaVuSans-30" d="M2034 4250q-487 0-733-480-245-479-245-1442 0-959 245-1439 246-480 733-480 491 0 736 480 246 480 246 1439 0 963-246 1442-245 480-736 480zm0 500q785 0 1199-621 414-620 414-1801 0-1178-414-1799Q2819-91 2034-91q-784 0-1198 620-414 621-414 1799 0 1181 414 1801 414 621 1198 621z" transform="scale(.01563)"/></defs><use xlink:href="#DejaVuSans-30"/></g></g><g id="xtick_2"><use xlink:href="#m78666240a9" id="line2d_2" x="168.958" y="266.112" style="fill:gray;stroke:gray;stroke-width:.8"/><g id="text_2" style="fill:gray" transform="matrix(.1 0 0 -.1 159.414 280.71)"><defs><path id="DejaVuSans-35" d="M691 4666h2478v-532H1269V2991q137 47 274 70 138 23 276 23 781 0 1237-428 457-428 457-1159 0-753-469-1171Q2575-91 1722-91q-294 0-599 50Q819 9 494 109v635q281-153 581-228t634-75q541 0 856 284 316 284 316 772 0 487-316 771-315 285-856 285-253 0-505-56-251-56-513-175v2344z" transform="scale(.01563)"/></defs><use xlink:href="#DejaVuSans-35"/><use xlink:href="#DejaVuSans-30" x="63.623"/><use xlink:href="#DejaVuSans-30" x="127.246"/></g></g><g id="xtick_3"><use xlink:href="#m78666240a9" id="line2d_3" x="238.708" y="266.112" style="fill:gray;stroke:gray;stroke-width:.8"/><g id="text_3" style="fill:gray" transform="matrix(.1 0 0 -.1 225.982 280.71)"><defs><path id="DejaVuSans-31" d="M794 531h1031v3560L703 3866v575l1116 225h631V531h1031V0H794v531z" transform="scale(.01563)"/></defs><use xlink:href="#DejaVuSans-31"/><use xlink:href="#DejaVuSans-30" x="63.623"/><use xlink:href="#DejaVuSans-30" x="127.246"/><use xlink:href="#DejaVuSans-30" x="190.869"/></g></g><g id="xtick_4"><use xlink:href="#m78666240a9" id="line2d_4" x="308.457" y="266.112" style="fill:gray;stroke:gray;stroke-width:.8"/><g id="text_4" style="fill:gray" transform="matrix(.1 0 0 -.1 295.733 280.71)"><use xlink:href="#DejaVuSans-31"/><use xlink:href="#DejaVuSans-35" x="63.623"/><use xlink:href="#DejaVuSans-30" x="127.246"/><use xlink:href="#DejaVuSans-30" x="190.869"/></g></g><g id="xtick_5"><use xlink:href="#m78666240a9" id="line2d_5" x="378.207" y="266.112" style="fill:gray;stroke:gray;stroke-width:.8"/><g id="text_5" style="fill:gray" transform="matrix(.1 0 0 -.1 365.483 280.71)"><defs><path id="DejaVuSans-32" d="M1228 531h2203V0H469v531q359 372 979 998 621 627 780 809 303 340 423 576 121 236 121 464 0 372-261 606-261 235-680 235-297 0-627-103-329-103-704-313v638q381 153 712 231 332 78 607 78 725 0 1156-363 431-362 431-968 0-288-108-546-107-257-392-607-78-91-497-524-418-433-1181-1211z" transform="scale(.01563)"/></defs><use xlink:href="#DejaVuSans-32"/><use xlink:href="#DejaVuSans-30" x="63.623"/><use xlink:href="#DejaVuSans-30" x="127.246"/><use xlink:href="#DejaVuSans-30" x="190.869"/></g></g><g id="xtick_6"><use xlink:href="#m78666240a9" id="line2d_6" x="447.957" y="266.112" style="fill:gray;stroke:gray;stroke-width:.8"/><g id="text_6" style="fill:gray" transform="matrix(.1 0 0 -.1 435.233 280.71)"><use xlink:href="#DejaVuSans-32"/><use xlink:href="#DejaVuSans-35" x="63.623"/><use xlink:href="#DejaVuSans-30" x="127.246"/><use xlink:href="#DejaVuSans-30" x="190.869"/></g></g><g id="xtick_7"><use xlink:href="#m78666240a9" id="line2d_7" x="517.707" y="266.112" style="fill:gray;stroke:gray;stroke-width:.8"/><g id="text_7" style="fill:gray" transform="matrix(.1 0 0 -.1 504.983 280.71)"><defs><path id="DejaVuSans-33" d="M2597 2516q453-97 707-404 255-306 255-756 0-690-475-1069Q2609-91 1734-91q-293 0-604 58T488 141v609q262-153 574-231 313-78 654-78 593 0 904 234t311 681q0 413-289 645-289 233-804 233h-544v519h569q465 0 712 186t247 536q0 359-255 551-254 193-729 193-260 0-557-57-297-56-653-174v562q360 100 674 150t592 50q719 0 1137-327 419-326 419-882 0-388-222-655t-631-370z" transform="scale(.01563)"/></defs><use xlink:href="#DejaVuSans-33"/><use xlink:href="#DejaVuSans-30" x="63.623"/><use xlink:href="#DejaVuSans-30" x="127.246"/><use xlink:href="#DejaVuSans-30" x="190.869"/></g></g><g id="xtick_8"><use xlink:href="#m78666240a9" id="line2d_8" x="587.457" y="266.112" style="fill:gray;stroke:gray;stroke-width:.8"/><g id="text_8" style="fill:gray" transform="matrix(.1 0 0 -.1 574.732 280.71)"><use xlink:href="#DejaVuSans-33"/><use xlink:href="#DejaVuSans-35" x="63.623"/><use xlink:href="#DejaVuSans-30" x="127.246"/><use xlink:href="#DejaVuSans-30" x="190.869"/></g></g><g id="xtick_9"><use xlink:href="#m78666240a9" id="line2d_9" x="657.207" y="266.112" style="fill:gray;stroke:gray;stroke-width:.8"/><g id="text_9" style="fill:gray" transform="matrix(.1 0 0 -.1 644.482 280.71)"><defs><path id="DejaVuSans-34" d="M2419 4116 825 1625h1594v2491zm-166 550h794V1625h666v-525h-666V0h-628v1100H313v609l1940 2957z" transform="scale(.01563)"/></defs><use xlink:href="#DejaVuSans-34"/><use xlink:href="#DejaVuSans-30" x="63.623"/><use xlink:href="#DejaVuSans-30" x="127.246"/><use xlink:href="#DejaVuSans-30" x="190.869"/></g></g></g><g id="matplotlib.axis_2"><g id="ytick_1"><g id="line2d_10"><defs><path id="mc7ac26391f" d="M0 0h-3.5" style="stroke:gray;stroke-width:.8"/></defs><use xlink:href="#mc7ac26391f" x="71.308" y="245.225" style="fill:gray;stroke:gray;stroke-width:.8"/></g><g id="text_10" style="fill:gray" transform="matrix(.16 0 0 -.16 0 251.304)"><defs><path id="DejaVuSans-2212" d="M678 2272h4006v-531H678v531z" transform="scale(.01563)"/></defs><use xlink:href="#DejaVuSans-2212"/><use xlink:href="#DejaVuSans-31" x="83.789"/><use xlink:href="#DejaVuSans-30" x="147.412"/><use xlink:href="#DejaVuSans-30" x="211.035"/><use xlink:href="#DejaVuSans-30" x="274.658"/><use xlink:href="#DejaVuSans-30" x="338.281"/></g></g><g id="ytick_2"><use xlink:href="#mc7ac26391f" id="line2d_11" x="71.308" y="208.818" style="fill:gray;stroke:gray;stroke-width:.8"/><g id="text_11" style="fill:gray" transform="matrix(.16 0 0 -.16 10.18 214.897)"><use xlink:href="#DejaVuSans-2212"/><use xlink:href="#DejaVuSans-35" x="83.789"/><use xlink:href="#DejaVuSans-30" x="147.412"/><use xlink:href="#DejaVuSans-30" x="211.035"/><use xlink:href="#DejaVuSans-30" x="274.658"/></g></g><g id="ytick_3"><use xlink:href="#mc7ac26391f" id="line2d_12" x="71.308" y="172.412" style="fill:gray;stroke:gray;stroke-width:.8"/><use xlink:href="#DejaVuSans-30" id="text_12" style="fill:gray" transform="matrix(.16 0 0 -.16 54.127 178.49)"/></g><g id="ytick_4"><use xlink:href="#mc7ac26391f" id="line2d_13" x="71.308" y="136.005" style="fill:gray;stroke:gray;stroke-width:.8"/><g id="text_13" style="fill:gray" transform="matrix(.16 0 0 -.16 23.587 142.083)"><use xlink:href="#DejaVuSans-35"/><use xlink:href="#DejaVuSans-30" x="63.623"/><use xlink:href="#DejaVuSans-30" x="127.246"/><use xlink:href="#DejaVuSans-30" x="190.869"/></g></g><g id="ytick_5"><use xlink:href="#mc7ac26391f" id="line2d_14" x="71.308" y="99.598" style="fill:gray;stroke:gray;stroke-width:.8"/><g id="text_14" style="fill:gray" transform="matrix(.16 0 0 -.16 13.408 105.677)"><use xlink:href="#DejaVuSans-31"/><use xlink:href="#DejaVuSans-30" x="63.623"/><use xlink:href="#DejaVuSans-30" x="127.246"/><use xlink:href="#DejaVuSans-30" x="190.869"/><use xlink:href="#DejaVuSans-30" x="254.492"/></g></g><g id="ytick_6"><use xlink:href="#mc7ac26391f" id="line2d_15" x="71.308" y="63.191" style="fill:gray;stroke:gray;stroke-width:.8"/><g id="text_15" style="fill:gray" transform="matrix(.16 0 0 -.16 13.408 69.27)"><use xlink:href="#DejaVuSans-31"/><use xlink:href="#DejaVuSans-35" x="63.623"/><use xlink:href="#DejaVuSans-30" x="127.246"/><use xlink:href="#DejaVuSans-30" x="190.869"/><use xlink:href="#DejaVuSans-30" x="254.492"/></g></g><g id="ytick_7"><use xlink:href="#mc7ac26391f" id="line2d_16" x="71.308" y="26.784" style="fill:gray;stroke:gray;stroke-width:.8"/><g id="text_16" style="fill:gray" transform="matrix(.16 0 0 -.16 13.408 32.863)"><use xlink:href="#DejaVuSans-32"/><use xlink:href="#DejaVuSans-30" x="63.623"/><use xlink:href="#DejaVuSans-30" x="127.246"/><use xlink:href="#DejaVuSans-30" x="190.869"/><use xlink:href="#DejaVuSans-30" x="254.492"/></g></g></g><path id="line2d_17" d="m99.207 172.444.282-.065.282.064.282-.063.282.063.282-.062.282.061.282-.06.282.06.282-.06.282.06.282-.06.282.06.282-.06.282.06.282-.06.282.06.282-.061.282.061.282-.062.282.063.282-.064.282.065.282-.066.282.068.282-.07.281.071.282-.072.282.075.282-.078.282.08.282-.084.282.089.282-.094.282.1.282-.107.282.116.282-.127.282.142.282-.162.282.19.282-.235.282.314.282-.488.282 1.332.282.637.282-1.35.282 1.449.282.137.282.573.282 2.718.281 3.871.282 1.095.282-.584.282 1.017.282 2.966.282 1.659.282.26.282.767.564 3.094.282.832.282-.41.282-.764.564.475.564-4.01.282-2.466.564-13.218.564-14.772.282-9.436.282-4.242.282 1.332.282-.368.281-2.091.282.675.282.213.282-2.656.282 1.111.564 11.504.282 2.901.846 21.833.846 4.394.282-.056.282 2.033.282.712.282-2.592.282.481.282 3.58.282-3.086.282-8.888.282-3.895.282.748.563-3.488.282.768.282-.811.282-2.185.282.706.282 1.834.282.81.282 1.403.282.766.282-.594.282 1.622.282 2.656.282.229.282 2.38.282 7.32.282 4.246.282-1.788.282-.44.282 2.05.282-2.076.282-5.866.282-3.086.564 2.231.282.187.281 3.448.564 12.513.564-1.183.282.91.282-3.754 1.41-39.671.282-6.797.564-19.234.282-1.706.282-.917.282-3.155.282 2.69.564 20.438.282 6.988.564 20.56.282 2.702.282-3.845.281-1.272.282 2.866.282 1.552.282-.096.282 1.099.282.45.282-1.866.282-.93.282.206.282-1.614.282-.704.564 8.18.282.216.282-.754.282.704.282.369.282.107.282.41.282-1.016.282-2.455.282-1.114.564 2.174.282.081.563-1.829.564-.99.282-.046.564 3.25.282-.108.282-1.107.282.26.564 3.678.282-.266.282-.61.282.954.282.006.564-9.218.282-.329.282 2.796.282 1.485.282 3.569.564 19.329.282.197.281-1.837.564 7.317.846-16.274.282-5.234.846-26.932.564-14.743.564-8.231.282-4.984.282-1.193.564 5.214.282 4.244 1.128 23.365.564 8.907.282 2.177.281.02.282 2.645.282 6.53.282 3.725.564-4.166.282.293.282-.152.282-.833.564-.197.282.116.282.537.282-.235.282-.49.564.661.564.095.282-3.21.282-6.463.282-3.504.846 3.066.563 5.667.282-.408.282-.058.564 3.203.282-.475.282.078.564 3.45.564-.484.282 4.093.564 12.456.282 1.805.564 5.465.282-3.09.282-6.256.282-2.5.282-.044.282-3.891 1.41-40.976.563-14.164.282-3.812.564-3.467.282-.383.282.545.282 2.948.282 9.078.564 24.185.564 7.92.282 3.196.282.534.282-.252.564 4.397.282 2.71.282 4.343.282.5.564-12.101.281.86.282-.046.282-3.13.282-1.029.282-.379.282-2.242.282-.451.282.903.282-1.313.282.948.564 9.854.282.643.282 4.216.282 6.127.282 1.26.282-.51.282 2.734.282.493.564-13.236.564-2.67.282-5.13.282-2.17.563 9.76.282 1.08.282 4.162.282 7.979.282 3.957.282 1.23.564 9.525.564-9.322.282.175.282-1.094 1.692-47.703.564-15.403.282-1.373.282.478.564-5.692.282 4.565.281 6.618.564 4.499.564 14.163.564 6.837.564 19.1.282 2.68.282.698.282 3.33.282.87.846-15.472.282-2.358.282-4.442.282-2.186.564 9.48.282.068.282-1.93.282 3.897.282 5.693.281-2.711.282-7.333.282-.37.282 5.026.282 1.036.282-1.076.282 4.142.282 6.282.282.705.282-2.547.282 1.139.282 2.203.282-4.173.282-7.342.282-1.645.282 2.867.282.834.282.18.846 7.395.282 4.284.282 2.581.282-.787.282 2.363.281 7.043.282 4.052.282-1.319.282-2.957.282-5.15 2.256-69.698.564-5.353.282-.037.282 3.733.564 11.904.564 17.077.282 2.19.282.636 1.127 21.439.564 8.862.282-2.247.564-12.159.282-.36.282-.07.282-3.137.282-.399.564 9.47.282-.873.282.303.282 2.416.282.25.282-.042.282 1.177.282-2.527.282-6.48.282-3.28.282 2.118 1.41 19.804.281-.747.564-12.557.282 1.449.282 4.75.282.976.282 1.388.564 16.16.282.995.282 1.576.282 6.827.282 2.359.282-4.852.282-2.568.282-.156.282-5.598 1.41-45.085.564-20.768.563-21.438.564-11.693.282-3.06.282-1.58.282 4.268 2.256 81.671.282 5.182.282-.417.282.565.282.02.564-4.239.282-.521.282-1.86.282-1.021.282-.08.281-3.479.282-4.933.282-.645.282.445.282-2.558.282.257.564 11.865.282.571.282.183.282.392.282-1.314.282-.076.282 1.464.282-.961.282-1.525.282 1.922.282.829.564-11.018.282-1.213.282 2.897.846 12.938.563 10.61.564 4.042.282 4.205.282 2.303.282-.19.282 1.358.282 2.035.282-1.31.282-4.567.564-15.322 2.256-80.433.282-5.457.846-7.822.282 3.335.563 20.973.564 27.469.282 15.849.282 9.147.282 1.879.282.823.564 5.126.282.238.282 1.388.564 7.831.282-.718.282-2.113.282.461.282 1.557.282-.526.282-1.47.282-.686.282-1.516.564-5.354.282.076.281-.119.282-1.252.282-.64.282-.355.564-3.29.564.254.282-1.067.282.08.282 2.422.282 1.213.282-1.414.282-.11.282 2.438.282.639.282-1.311.282 1.702.564 7.543.282 3.498.564 12.558.845 7.963.282.527.282.048.282.729.564-1.358.282.512.282-5.946.846-47.592 1.128-41.775.846-19.024.282-.748.564 10.4.282 7.745 1.41 56.215.281 7.958.564 4.667.282 1.147.282-1.34.282-.789.282.294.564-5.149.282 1.877.282 3.428.282-.135.282-1.583.282-.021.282.332.846-1.214.282.231.846 1.145.282-.209.563-7.262.282-.677.282 1.18.282-.032.282 2.097.564 13.2.282 1.821.282.371.846 5.197.564 2.798.564 7.222 1.128 12.29.282 1.647.282-2.714.564-13.39.282-8.028.563-28.267 1.41-70.222.846-17.26.282 4.548.846 26.569 1.128 40.218.846 21.747.282 1.268.282 1.844.564 7.885.563 1.197.282.27.564-2.477.846-4.587.282-.594.282-.878.282.248.564 3.76.282.7.282.042.282-2.473.282-4.366.282-1.221.282 2.782.282 1.64.282.693.282 4.772.282 6.709.282 2.222.282-.203.563 5.245.282-.167.282.572.846 10.051.564 8.183.282 1.851.564 7.586.282.758.282-2.357.282-4.448.564-17.608.564-25.265.846-41.742.846-30.775.282-6.906.563-19.716.282-1.639.846 17.816.282 9.852.846 42.51.564 18.44.282 4.616.282-.255.282-.022.564 5.222.282-.037.282 3.882.564 13.926.282-1.466.282-2.435.282.48.282-.46.563-9.277.282-1.015.282.31.282-1.626.282-.41.564 9.597.282-1.094.282-3.792.282 1.198.282 4.805.282 1.932.282-.68.564 1.907.564-1.955.282.683.282 1.945 1.128 16.838.564 14.159.281 3.666.564 13.701.282-1.784.564-17.748.282-4.615.282-7.485 1.41-60.46.564-34.317.564-20.813.282-12.897.282-4.76.282 1.433.282.438.282 2.527.282 10.17.846 39.598 1.127 29.567.282 4.906.564 12.858.282 3.183 1.128 16.872.564 4.836.282 1.179.282-.394.564-4.258.282-.912.282-2.639.564-7.81.564-2.685.282.406.281.744.282-3.67.282-6.083.282-.536.282 4.84.282 2.898.282 1.335.282 6.993.282 10.744.282 5.128.282-.338.282 2.621.282 4.33.282-1.875.282-5.136.282.08.282 2.846.282.51.282 1.889.282 4.84.282 1.888.282-1.913.282-3.48.282-8.934.564-26.262.563-19.793 1.128-52.197.564-11.956.282-5.141.282 1.168.282 6.653.282 3.04.282 1.132.282 7.813.846 34.744.564 15.019.846 14.916.564 5.775.845 4.22.564.097.282.352.282-.428.282.15.282 1.589.282.317.282-1.003.282 2.6.282 5.829.282 2.061.282-2.342.282.61.282 3.646.282-1.856.282-7.996.282-4.053 1.128 14.787.564 14.048.281 1.119.282 1.966.564 11.355.282-2.018.282-.948.564 9.155.564-4.736.282.064.282-4.84.846-46.152.564-36.296.564-37.195.564-23.518.282-4.42.564 4.526.282.538.282 6.931.563 21.605 1.128 29.53 1.692 29.787.564 5.793.846 6.414.282 2.34.282 1.2.282.07.282.684.564 2.979.282 1.434.563 7.173.282-2.597.282-7.213.282-4.247.282.575.282 1.123.282 2.472.564 12.716.564.15.282 4.444.282 2.162.282-3.955.282-2.138 1.41 21.663.282 1.79.846 8.215.282-.716.281 1.662.282-.892.282-11.857 1.41-89.046.846-34.653.282-10.587.282-4.605.282-.704.282 1.702.846 15.064.282 11.02.564 27.082.564 9.218.282 6.754.282 2.42.282-1.818.281.298.282 2.552.282.7.282.222.282 1.755.282.847.282.142.282 3.715.564 11.095.282 4.981.564 13.077.564 4.503.282 3.648.282 1.53.282-.25.564-.046.282.869.282 2.734.282-.27.564-9.702.281 1.401.282 1.975.282.542.282 2.241.564 7.41.564 11.222.282 2.704.282 3.801.564 14.605.282 1.23.282-1.895.282-4.932.564-22.985 1.974-107.663.563-14.797.282-.982.282 5.028.846 25.718.564 12.325.282 2.822.564-5.575.564 8.244.282 1.146.282 5.483.564 20.594.282.82.282-.2.282 3.228.282.912.564-9.265.282 1.573.845 10.94.282 5.686.282 2.55.564.898.282-.303.282 1.497.564 15.836.282 2.128.282-2.739.282-1.152.282 3.351.564 11.093.282 1.691.282 3.028.282 5.71.282 3.02.282.306.282 3.344.282 5.299.282 1.926.282-.024.563 2.406.282.11.282-1.13.282-6.615 1.974-101.585.282-6.756.846-27.822.282.08.564 2.827.282 4.2 1.128 25.139.564 5.991.563 7.59.282 2.797.564 8.346.282.607.282-.87.282-1.304.282-2.14.282-.105.564 6.928.282-.138.282-1.035.282 1.69.564 9.697.564 4.91.564 14.291.282.714.282-.146.564 11.479.563 9.583.282 3.587.282 1.234.282-1.327.282-2.876.282-.678.564 9.686.282 5.264.846 26.021.282 1.205.564 3.616.282-2.324.282-5.845.282-9.26.564-32.232.564-34.94 1.127-31.473.282-4.263.846-22.698.564 5.705.282 1.476.846 9.735.846 6.904.282 3.326.282 5.497.564 16.48.282 2.67.282-1.32.282.604.282 2.14.282.406.282-.216.282-.798.282-2.538.281 1.53.564 14.652.564-4.26.282 3.165.282.823.282-3.144.282-.927.282 1.486.282.745.282 1.09.282 1.82.282.213.282-.194.846 4.992.282 6.506.564 17.236.564 7.615.845 14.849.564 13.223.846 14.69.282-3.654.564-15.15.564-27.33.846-54.198 1.128-29.896.564 9.535.282-1.655.282.346.564 10.358.563-2.818.282 2.993.564 7.802.282 2.164.282 1.234.282-2.45.282-3.485.282 1.684.282 3.241.282-3.479.282-5.785.282 1.073.282 2.588.564-7.653.282 3.11.846 14.485.282 8.167.564 5.53.564 16.656.282 1.322.281.111.282 5.21.282 1.977.564-18.8.282 1.394.282 4.682.282-.464.282 1.388.564 14.436.564 4.05.564 3.25.846 9.192.282 1.143.282.506.282 2.7.282 6 .282 1.93.282-9.395.845-44.5.564-20.167 1.128-22.87.564-3.706.282-.622.282 5.205.564 16.426.282 1.83.564 7.69.282-2.033.282-3.569.564 4.065.282-1.932.282-.378.564 8.441.282-.248.281 2.418.282 6.526.282 3.4.282-1.451.282-.201.564 5.576.564.624.846 5.198.282.82.282 1.605.564 3.842.282-.345.282-1.71.564-5.663.564-2.259.282-.592.282 3.555.563 18.671.282 5.24.564 5.321.846 2.943.282-1.365.282-5.597.564-17.948.564-19.336.846-18.051.846-13.155.282-5.337.282-2.886.282.16.846 4.6.563 7.223.846 11.603.282 2.672.282.548.282.212.282 2.307.282 3.394.282 1.505.282.218.282 1.38.282 1.986.282.89.282.318.282.038.282-.162.282.926.282 1.403.282-.331.282.012.282 2.734.282 1.515.282-1.921.282.883.563 9.678.282-1.42.282-.507.564 4.479.564.537.282-1.29.564-6.645.282 1.843.282 2.905.282 1.296.282 3.738.564 18.56.282 4.623.846 7.15.282-5.33.846-25.67 1.127-42.72 1.41-16.012.564 1.828.282-.18.282.377.282 4.363.564 17.104.282 4.6.282 2.143.282.465.282-.808.282.62.282 1.37.282-.634.282.048.282 2.823.281.612.282-2.178.282 1.255.564 8.325.564 3.992.564.323.282 1.123.282-.358.282-.704.282.881.282-.204.282-2.152.846-3.481.282.064.282 2.016.564 1.751.282 1.613.282.017.282-.5.845 6.882.282 1.078.564 5.029.282 5.677.564 15.353.282.498h.282l.282 1.836.282-.883.846-14.164 1.692-56.811.564-8.856.282.899.563 14.017.282-.242.282.544 1.41 14.809.282 1.954.282 3.67.282-2.056.282-8.13.282-3.762.282 2.391.282 1.078.282-.188.564 6.079.282.047.282.33.282 2.362.282 1.42.282-.062.282.552.282 1.167.282.36.281-.378.282.233.282 2.408.564 7.003.282.156.282-.582.282 1.11.846 8.41.282-.04.846-2.948.282-.664.282-.101.282.816.564 4.803.282.471.564-5.11.282 1.88.282 3.764.563 4.945.282 5.956.282 3.512.282-4.538.564-13.922.282-6.125.846-32.669.846-15.91.564 5.866.282-1.368.282-2.012.282 2.287.564 9.462 1.128 12.141.281 1.226.282-1.413.282-.46.282 1.274.282 2.068.564 6.517.282-1.158.282-2.668.282.47.282 1.548.282-.189.282 1.682.564 9.716.282.073.282-1.03.282.383.282-.394.564-5.832.282 1.001.564 5.08.282 1.984.282 5.208.563 13.397.564 5.607.282.283.846-11.838.282 2.915.282.328.282-2.138.282-.316.564 2.861.564 5.913.564 1.143.282.106.282-2.922.564-11.276.282-6.965.282-3.377.282 1.21.281-2.893.564-17.35.282-3.904.846-23.915.564 4.286.282.155.282 1.757 2.538 32.411.282.014.282-2.113.282 4.363.282 8.228.282.682.281-5.528.282-2.605.282-1.29.564-8.356.564-6.223.282 1.485.282 5.658.282-1.085.282-6.254.282 1.425.282 6.98.564 3.598.846 26.303.282-.2.564-2.4.282.145.282 1.318.282-1.144.564-7.67.281.974.282 1.993.564-.641.282 3.868.564 10.484.564 6.597.282 4.03.282 2.35.282-.124.282-3.255.282-8.562.846-36.671.282-7.895.564-19.357.282 2.02.282 3.273.564-7.912.282 1.237.845 11.623.564 10.897.282 2.882.282.918.282 1.999.282 4.263.282 2.473.282-1.694 1.41-13.609.282-1.08.282-1.555.282-2.816.282-.934.282 4.622.564 15.485.282 5.48.282 2.312.563-4.586.564 5.135.282-2.289.282-3.262.282-.495.564 1.03.282-.642.282-2.254.282-.415 1.128 17.342.282 1.41.282.494.282 1.732.282 3.109.564 3.395.282 3.802.282 1.77.282-4.607.282-6.676.281-2.815.282-.287.282-1.975.564-10.131.564-14.883.564-14.946.564-7.576.564-4.494.282-3.906.282-1.659.282 4.097.846 26.171.564 6.953.282 2.584.282-2.875.282-6.293.282-1.551.281 2.082.282-1.384.282-2.938.282 1.29.282 3.372.282.704.564-4.495.282 1.648.564 10.203.564 4.449.282 2.833.564 2.838.282.233.282-.916.282 2.572.282 5.534.282 1.818.282.183.564 7.68.282-1.472.282-.085.281 1.712.282-3.915.282-6.795.282-.987.282 2.72.564 1.686.846 9.17.564 4.46.282.74.282-.12.282-1.965 1.128-21.47.564-14.975 1.128-15.994.281-1.88.564 5.282.564-4.675.282 2.963.282.54.282-4.635.282-.302.282 5.485.282 1.78.282-1.91.282 3.131.282 7.58.282 4.03.564-3.267.282-.115.282-2.953.282-7.871.282-4.525.282 5.726.282 9.697.282 4.94.282.501.281-.404.282.682.282 2.295.282 1.224.282-.425.282 3.415.282 6.97.282 1.945.282-3.201.282-.191.282 2.39.282-.564.282-1.493.282 1.174.282 1.682.282.26.282-.438.282-.66.282.366.564 3.828.282-.116.282.841.564 4.798.282.763.281 2.69.282 4.797.282 2.196.282-2.962.564-7.792.282-1.14.282-.087.282-.62.282-3.485.282-5.126.282-3.091.282-.869.282-.088.282 2.388.564 9.283.564 2.822.564 7.71 1.128 22.376.281 1.441.282 2.31.282 1.23.282-2.649.846-12.779.282-16.394 1.692-155.9.564-24.404.282-3.929.282 3.934.564 20.729.564 27.94.564 38.41.282 10.229.281 16.706h0" clip-path="url(#pa81b28bd0e)" style="fill:none;stroke:#1f77b4;stroke-width:1.5;stroke-linecap:square"/><path id="patch_3" d="M71.308 266.112V0" style="fill:none;stroke:gray;stroke-width:.8;stroke-linejoin:miter;stroke-linecap:square"/><path id="patch_4" d="M685.107 266.112V0" style="fill:none;stroke:#000;stroke-width:.8;stroke-linejoin:miter;stroke-linecap:square"/><path id="patch_5" d="M71.308 266.112h613.8" style="fill:none;stroke:gray;stroke-width:.8;stroke-linejoin:miter;stroke-linecap:square"/><path id="patch_6" d="M71.308 0h613.8" style="fill:none;stroke:#000;stroke-width:.8;stroke-linejoin:miter;stroke-linecap:square"/></g></g><defs><clipPath id="pa81b28bd0e"><path d="M71.308 0h613.8v266.112h-613.8z"/></clipPath></defs></svg>