<?xml version="1.0" encoding="utf-8" standalone="no"?>
<!DOCTYPE svg PUBLIC "-//W3C//DTD SVG 1.1//EN"
  "http://www.w3.org/Graphics/SVG/1.1/DTD/svg11.dtd">
<svg xmlns:xlink="http://www.w3.org/1999/xlink" width="660.992188pt" height="282.790125pt" viewBox="0 0 660.992188 282.790125" xmlns="http://www.w3.org/2000/svg" version="1.1">
 <metadata>
  <rdf:RDF xmlns:dc="http://purl.org/dc/elements/1.1/" xmlns:cc="http://creativecommons.org/ns#" xmlns:rdf="http://www.w3.org/1999/02/22-rdf-syntax-ns#">
   <cc:Work>
    <dc:type rdf:resource="http://purl.org/dc/dcmitype/StillImage"/>
    <dc:date>2023-03-06T21:26:14.841340</dc:date>
    <dc:format>image/svg+xml</dc:format>
    <dc:creator>
     <cc:Agent>
      <dc:title>Matplotlib v3.6.3, https://matplotlib.org/</dc:title>
     </cc:Agent>
    </dc:creator>
   </cc:Work>
  </rdf:RDF>
 </metadata>
 <defs>
  <style type="text/css">*{stroke-linejoin: round; stroke-linecap: butt}</style>
 </defs>
 <g id="figure_1">
  <g id="patch_1">
   <path d="M -0 282.790125 
L 660.992188 282.790125 
L 660.992188 0 
L -0 0 
L -0 282.790125 
z
" style="fill: none"/>
  </g>
  <g id="axes_1">
   <g id="patch_2">
    <path d="M 47.192188 266.112 
L 660.992188 266.112 
L 660.992188 0 
L 47.192188 0 
L 47.192188 266.112 
z
" style="fill: none"/>
   </g>
   <g id="matplotlib.axis_1">
    <g id="xtick_1">
     <g id="line2d_1">
      <defs>
       <path id="m980f7e4983" d="M 0 0 
L 0 3.5 
" style="stroke: #808080; stroke-width: 0.8"/>
      </defs>
      <g>
       <use xlink:href="#m980f7e4983" x="75.092188" y="266.112" style="fill: #808080; stroke: #808080; stroke-width: 0.8"/>
      </g>
     </g>
     <g id="text_1">
      <!-- 0 -->
      <g style="fill: #808080" transform="translate(71.910938 280.710438) scale(0.1 -0.1)">
       <defs>
        <path id="DejaVuSans-30" d="M 2034 4250 
Q 1547 4250 1301 3770 
Q 1056 3291 1056 2328 
Q 1056 1369 1301 889 
Q 1547 409 2034 409 
Q 2525 409 2770 889 
Q 3016 1369 3016 2328 
Q 3016 3291 2770 3770 
Q 2525 4250 2034 4250 
z
M 2034 4750 
Q 2819 4750 3233 4129 
Q 3647 3509 3647 2328 
Q 3647 1150 3233 529 
Q 2819 -91 2034 -91 
Q 1250 -91 836 529 
Q 422 1150 422 2328 
Q 422 3509 836 4129 
Q 1250 4750 2034 4750 
z
" transform="scale(0.015625)"/>
       </defs>
       <use xlink:href="#DejaVuSans-30"/>
      </g>
     </g>
    </g>
    <g id="xtick_2">
     <g id="line2d_2">
      <g>
       <use xlink:href="#m980f7e4983" x="144.842188" y="266.112" style="fill: #808080; stroke: #808080; stroke-width: 0.8"/>
      </g>
     </g>
     <g id="text_2">
      <!-- 500 -->
      <g style="fill: #808080" transform="translate(135.298438 280.710438) scale(0.1 -0.1)">
       <defs>
        <path id="DejaVuSans-35" d="M 691 4666 
L 3169 4666 
L 3169 4134 
L 1269 4134 
L 1269 2991 
Q 1406 3038 1543 3061 
Q 1681 3084 1819 3084 
Q 2600 3084 3056 2656 
Q 3513 2228 3513 1497 
Q 3513 744 3044 326 
Q 2575 -91 1722 -91 
Q 1428 -91 1123 -41 
Q 819 9 494 109 
L 494 744 
Q 775 591 1075 516 
Q 1375 441 1709 441 
Q 2250 441 2565 725 
Q 2881 1009 2881 1497 
Q 2881 1984 2565 2268 
Q 2250 2553 1709 2553 
Q 1456 2553 1204 2497 
Q 953 2441 691 2322 
L 691 4666 
z
" transform="scale(0.015625)"/>
       </defs>
       <use xlink:href="#DejaVuSans-35"/>
       <use xlink:href="#DejaVuSans-30" x="63.623047"/>
       <use xlink:href="#DejaVuSans-30" x="127.246094"/>
      </g>
     </g>
    </g>
    <g id="xtick_3">
     <g id="line2d_3">
      <g>
       <use xlink:href="#m980f7e4983" x="214.592188" y="266.112" style="fill: #808080; stroke: #808080; stroke-width: 0.8"/>
      </g>
     </g>
     <g id="text_3">
      <!-- 1000 -->
      <g style="fill: #808080" transform="translate(201.867188 280.710438) scale(0.1 -0.1)">
       <defs>
        <path id="DejaVuSans-31" d="M 794 531 
L 1825 531 
L 1825 4091 
L 703 3866 
L 703 4441 
L 1819 4666 
L 2450 4666 
L 2450 531 
L 3481 531 
L 3481 0 
L 794 0 
L 794 531 
z
" transform="scale(0.015625)"/>
       </defs>
       <use xlink:href="#DejaVuSans-31"/>
       <use xlink:href="#DejaVuSans-30" x="63.623047"/>
       <use xlink:href="#DejaVuSans-30" x="127.246094"/>
       <use xlink:href="#DejaVuSans-30" x="190.869141"/>
      </g>
     </g>
    </g>
    <g id="xtick_4">
     <g id="line2d_4">
      <g>
       <use xlink:href="#m980f7e4983" x="284.342188" y="266.112" style="fill: #808080; stroke: #808080; stroke-width: 0.8"/>
      </g>
     </g>
     <g id="text_4">
      <!-- 1500 -->
      <g style="fill: #808080" transform="translate(271.617188 280.710438) scale(0.1 -0.1)">
       <use xlink:href="#DejaVuSans-31"/>
       <use xlink:href="#DejaVuSans-35" x="63.623047"/>
       <use xlink:href="#DejaVuSans-30" x="127.246094"/>
       <use xlink:href="#DejaVuSans-30" x="190.869141"/>
      </g>
     </g>
    </g>
    <g id="xtick_5">
     <g id="line2d_5">
      <g>
       <use xlink:href="#m980f7e4983" x="354.092188" y="266.112" style="fill: #808080; stroke: #808080; stroke-width: 0.8"/>
      </g>
     </g>
     <g id="text_5">
      <!-- 2000 -->
      <g style="fill: #808080" transform="translate(341.367188 280.710438) scale(0.1 -0.1)">
       <defs>
        <path id="DejaVuSans-32" d="M 1228 531 
L 3431 531 
L 3431 0 
L 469 0 
L 469 531 
Q 828 903 1448 1529 
Q 2069 2156 2228 2338 
Q 2531 2678 2651 2914 
Q 2772 3150 2772 3378 
Q 2772 3750 2511 3984 
Q 2250 4219 1831 4219 
Q 1534 4219 1204 4116 
Q 875 4013 500 3803 
L 500 4441 
Q 881 4594 1212 4672 
Q 1544 4750 1819 4750 
Q 2544 4750 2975 4387 
Q 3406 4025 3406 3419 
Q 3406 3131 3298 2873 
Q 3191 2616 2906 2266 
Q 2828 2175 2409 1742 
Q 1991 1309 1228 531 
z
" transform="scale(0.015625)"/>
       </defs>
       <use xlink:href="#DejaVuSans-32"/>
       <use xlink:href="#DejaVuSans-30" x="63.623047"/>
       <use xlink:href="#DejaVuSans-30" x="127.246094"/>
       <use xlink:href="#DejaVuSans-30" x="190.869141"/>
      </g>
     </g>
    </g>
    <g id="xtick_6">
     <g id="line2d_6">
      <g>
       <use xlink:href="#m980f7e4983" x="423.842188" y="266.112" style="fill: #808080; stroke: #808080; stroke-width: 0.8"/>
      </g>
     </g>
     <g id="text_6">
      <!-- 2500 -->
      <g style="fill: #808080" transform="translate(411.117188 280.710438) scale(0.1 -0.1)">
       <use xlink:href="#DejaVuSans-32"/>
       <use xlink:href="#DejaVuSans-35" x="63.623047"/>
       <use xlink:href="#DejaVuSans-30" x="127.246094"/>
       <use xlink:href="#DejaVuSans-30" x="190.869141"/>
      </g>
     </g>
    </g>
    <g id="xtick_7">
     <g id="line2d_7">
      <g>
       <use xlink:href="#m980f7e4983" x="493.592188" y="266.112" style="fill: #808080; stroke: #808080; stroke-width: 0.8"/>
      </g>
     </g>
     <g id="text_7">
      <!-- 3000 -->
      <g style="fill: #808080" transform="translate(480.867188 280.710438) scale(0.1 -0.1)">
       <defs>
        <path id="DejaVuSans-33" d="M 2597 2516 
Q 3050 2419 3304 2112 
Q 3559 1806 3559 1356 
Q 3559 666 3084 287 
Q 2609 -91 1734 -91 
Q 1441 -91 1130 -33 
Q 819 25 488 141 
L 488 750 
Q 750 597 1062 519 
Q 1375 441 1716 441 
Q 2309 441 2620 675 
Q 2931 909 2931 1356 
Q 2931 1769 2642 2001 
Q 2353 2234 1838 2234 
L 1294 2234 
L 1294 2753 
L 1863 2753 
Q 2328 2753 2575 2939 
Q 2822 3125 2822 3475 
Q 2822 3834 2567 4026 
Q 2313 4219 1838 4219 
Q 1578 4219 1281 4162 
Q 984 4106 628 3988 
L 628 4550 
Q 988 4650 1302 4700 
Q 1616 4750 1894 4750 
Q 2613 4750 3031 4423 
Q 3450 4097 3450 3541 
Q 3450 3153 3228 2886 
Q 3006 2619 2597 2516 
z
" transform="scale(0.015625)"/>
       </defs>
       <use xlink:href="#DejaVuSans-33"/>
       <use xlink:href="#DejaVuSans-30" x="63.623047"/>
       <use xlink:href="#DejaVuSans-30" x="127.246094"/>
       <use xlink:href="#DejaVuSans-30" x="190.869141"/>
      </g>
     </g>
    </g>
    <g id="xtick_8">
     <g id="line2d_8">
      <g>
       <use xlink:href="#m980f7e4983" x="563.342188" y="266.112" style="fill: #808080; stroke: #808080; stroke-width: 0.8"/>
      </g>
     </g>
     <g id="text_8">
      <!-- 3500 -->
      <g style="fill: #808080" transform="translate(550.617188 280.710438) scale(0.1 -0.1)">
       <use xlink:href="#DejaVuSans-33"/>
       <use xlink:href="#DejaVuSans-35" x="63.623047"/>
       <use xlink:href="#DejaVuSans-30" x="127.246094"/>
       <use xlink:href="#DejaVuSans-30" x="190.869141"/>
      </g>
     </g>
    </g>
    <g id="xtick_9">
     <g id="line2d_9">
      <g>
       <use xlink:href="#m980f7e4983" x="633.092188" y="266.112" style="fill: #808080; stroke: #808080; stroke-width: 0.8"/>
      </g>
     </g>
     <g id="text_9">
      <!-- 4000 -->
      <g style="fill: #808080" transform="translate(620.367188 280.710438) scale(0.1 -0.1)">
       <defs>
        <path id="DejaVuSans-34" d="M 2419 4116 
L 825 1625 
L 2419 1625 
L 2419 4116 
z
M 2253 4666 
L 3047 4666 
L 3047 1625 
L 3713 1625 
L 3713 1100 
L 3047 1100 
L 3047 0 
L 2419 0 
L 2419 1100 
L 313 1100 
L 313 1709 
L 2253 4666 
z
" transform="scale(0.015625)"/>
       </defs>
       <use xlink:href="#DejaVuSans-34"/>
       <use xlink:href="#DejaVuSans-30" x="63.623047"/>
       <use xlink:href="#DejaVuSans-30" x="127.246094"/>
       <use xlink:href="#DejaVuSans-30" x="190.869141"/>
      </g>
     </g>
    </g>
   </g>
   <g id="matplotlib.axis_2">
    <g id="ytick_1">
     <g id="line2d_10">
      <defs>
       <path id="m0c26f1dfbe" d="M 0 0 
L -3.5 0 
" style="stroke: #808080; stroke-width: 0.8"/>
      </defs>
      <g>
       <use xlink:href="#m0c26f1dfbe" x="47.192188" y="234.773068" style="fill: #808080; stroke: #808080; stroke-width: 0.8"/>
      </g>
     </g>
     <g id="text_10">
      <!-- −10000 -->
      <g style="fill: #808080" transform="translate(0 238.572287) scale(0.1 -0.1)">
       <defs>
        <path id="DejaVuSans-2212" d="M 678 2272 
L 4684 2272 
L 4684 1741 
L 678 1741 
L 678 2272 
z
" transform="scale(0.015625)"/>
       </defs>
       <use xlink:href="#DejaVuSans-2212"/>
       <use xlink:href="#DejaVuSans-31" x="83.789062"/>
       <use xlink:href="#DejaVuSans-30" x="147.412109"/>
       <use xlink:href="#DejaVuSans-30" x="211.035156"/>
       <use xlink:href="#DejaVuSans-30" x="274.658203"/>
       <use xlink:href="#DejaVuSans-30" x="338.28125"/>
      </g>
     </g>
    </g>
    <g id="ytick_2">
     <g id="line2d_11">
      <g>
       <use xlink:href="#m0c26f1dfbe" x="47.192188" y="190.706728" style="fill: #808080; stroke: #808080; stroke-width: 0.8"/>
      </g>
     </g>
     <g id="text_11">
      <!-- −5000 -->
      <g style="fill: #808080" transform="translate(6.3625 194.505947) scale(0.1 -0.1)">
       <use xlink:href="#DejaVuSans-2212"/>
       <use xlink:href="#DejaVuSans-35" x="83.789062"/>
       <use xlink:href="#DejaVuSans-30" x="147.412109"/>
       <use xlink:href="#DejaVuSans-30" x="211.035156"/>
       <use xlink:href="#DejaVuSans-30" x="274.658203"/>
      </g>
     </g>
    </g>
    <g id="ytick_3">
     <g id="line2d_12">
      <g>
       <use xlink:href="#m0c26f1dfbe" x="47.192188" y="146.640388" style="fill: #808080; stroke: #808080; stroke-width: 0.8"/>
      </g>
     </g>
     <g id="text_12">
      <!-- 0 -->
      <g style="fill: #808080" transform="translate(33.829688 150.439607) scale(0.1 -0.1)">
       <use xlink:href="#DejaVuSans-30"/>
      </g>
     </g>
    </g>
    <g id="ytick_4">
     <g id="line2d_13">
      <g>
       <use xlink:href="#m0c26f1dfbe" x="47.192188" y="102.574048" style="fill: #808080; stroke: #808080; stroke-width: 0.8"/>
      </g>
     </g>
     <g id="text_13">
      <!-- 5000 -->
      <g style="fill: #808080" transform="translate(14.742188 106.373267) scale(0.1 -0.1)">
       <use xlink:href="#DejaVuSans-35"/>
       <use xlink:href="#DejaVuSans-30" x="63.623047"/>
       <use xlink:href="#DejaVuSans-30" x="127.246094"/>
       <use xlink:href="#DejaVuSans-30" x="190.869141"/>
      </g>
     </g>
    </g>
    <g id="ytick_5">
     <g id="line2d_14">
      <g>
       <use xlink:href="#m0c26f1dfbe" x="47.192188" y="58.507708" style="fill: #808080; stroke: #808080; stroke-width: 0.8"/>
      </g>
     </g>
     <g id="text_14">
      <!-- 10000 -->
      <g style="fill: #808080" transform="translate(8.379688 62.306927) scale(0.1 -0.1)">
       <use xlink:href="#DejaVuSans-31"/>
       <use xlink:href="#DejaVuSans-30" x="63.623047"/>
       <use xlink:href="#DejaVuSans-30" x="127.246094"/>
       <use xlink:href="#DejaVuSans-30" x="190.869141"/>
       <use xlink:href="#DejaVuSans-30" x="254.492188"/>
      </g>
     </g>
    </g>
    <g id="ytick_6">
     <g id="line2d_15">
      <g>
       <use xlink:href="#m0c26f1dfbe" x="47.192188" y="14.441368" style="fill: #808080; stroke: #808080; stroke-width: 0.8"/>
      </g>
     </g>
     <g id="text_15">
      <!-- 15000 -->
      <g style="fill: #808080" transform="translate(8.379688 18.240587) scale(0.1 -0.1)">
       <use xlink:href="#DejaVuSans-31"/>
       <use xlink:href="#DejaVuSans-35" x="63.623047"/>
       <use xlink:href="#DejaVuSans-30" x="127.246094"/>
       <use xlink:href="#DejaVuSans-30" x="190.869141"/>
       <use xlink:href="#DejaVuSans-30" x="254.492188"/>
      </g>
     </g>
    </g>
   </g>
   <g id="line2d_16">
    <path d="M 75.092188 146.589859 
L 75.374148 146.688997 
L 75.656109 146.593499 
L 75.938069 146.685735 
L 76.22003 146.596427 
L 76.50199 146.683104 
L 76.783951 146.59879 
L 77.065912 146.680982 
L 77.347872 146.600693 
L 77.629833 146.679282 
L 77.911793 146.602205 
L 78.193754 146.677945 
L 78.475715 146.603377 
L 78.757675 146.676929 
L 79.039636 146.604242 
L 79.321596 146.67621 
L 79.603557 146.604819 
L 79.885517 146.675775 
L 80.167478 146.605112 
L 80.449439 146.675624 
L 80.731399 146.605117 
L 81.01336 146.67577 
L 81.29532 146.604813 
L 81.577281 146.676243 
L 81.859242 146.604161 
L 82.141202 146.677089 
L 82.423163 146.6031 
L 82.705123 146.678388 
L 82.987084 146.601534 
L 83.269044 146.680259 
L 83.551005 146.599312 
L 83.832966 146.682891 
L 84.114926 146.596194 
L 84.396887 146.686592 
L 84.678847 146.59178 
L 84.960808 146.691894 
L 85.242769 146.585354 
L 85.524729 146.699777 
L 85.80669 146.575529 
L 86.08865 146.71227 
L 86.370611 146.559229 
L 86.652572 146.734265 
L 86.934532 146.528176 
L 87.216493 146.780953 
L 87.498453 146.451177 
L 87.780414 146.928207 
L 88.062374 146.080591 
L 88.344335 148.845768 
L 88.626296 168.20575 
L 88.908256 166.563984 
L 89.754138 154.632025 
L 90.036099 154.076089 
L 90.318059 153.990892 
L 90.60002 153.491028 
L 90.88198 153.734646 
L 91.163941 152.53768 
L 91.445901 149.595224 
L 91.727862 148.767133 
L 92.009823 150.32754 
L 92.291783 148.948976 
L 92.573744 148.454698 
L 92.855704 159.01307 
L 93.137665 176.896578 
L 93.419626 186.801469 
L 93.701586 186.971323 
L 93.983547 187.936136 
L 94.265507 191.052515 
L 94.547468 188.844637 
L 95.111389 176.754182 
L 95.67531 170.682375 
L 95.957271 163.294254 
L 96.239231 148.336809 
L 97.085113 87.23408 
L 97.367074 78.685353 
L 97.649034 73.693908 
L 97.930995 73.632171 
L 98.212956 82.331794 
L 99.058837 122.923206 
L 99.622758 144.211243 
L 99.904719 149.401962 
L 100.18668 149.552747 
L 100.46864 151.663889 
L 101.032561 161.517472 
L 101.596483 163.33111 
L 101.878443 163.383165 
L 102.442364 159.647232 
L 102.724325 158.667922 
L 103.288246 150.794349 
L 103.570207 152.234413 
L 103.852167 156.673061 
L 104.134128 157.428837 
L 104.416088 156.291215 
L 104.98001 159.236002 
L 105.26197 159.333445 
L 105.825891 162.722861 
L 106.389813 159.923671 
L 107.517655 172.175144 
L 107.799615 177.13888 
L 108.081576 178.584058 
L 108.363537 178.184674 
L 108.645497 179.720892 
L 108.927458 179.516105 
L 109.209418 173.932638 
L 109.77334 155.924384 
L 110.337261 116.60007 
L 110.901182 83.204866 
L 111.183143 73.554236 
L 111.465103 68.382597 
L 111.747064 69.043465 
L 112.029024 75.175455 
L 112.592945 101.482 
L 113.156867 127.551805 
L 113.720788 143.465417 
L 114.284709 154.987244 
L 114.56667 159.357112 
L 114.84863 161.202077 
L 115.412551 159.486166 
L 115.694512 161.217186 
L 115.976472 161.819997 
L 116.540394 154.313162 
L 116.822354 153.319506 
L 117.104315 153.180727 
L 117.668236 149.409744 
L 118.232157 151.457806 
L 118.514118 150.879346 
L 118.796078 150.615631 
L 119.64196 155.628665 
L 119.923921 159.271558 
L 120.205881 164.441714 
L 120.487842 166.932766 
L 120.769802 166.880211 
L 121.333724 168.854672 
L 121.897645 161.882458 
L 122.179605 163.028219 
L 122.461566 165.779055 
L 122.743527 166.545907 
L 123.307448 169.564265 
L 123.589408 160.67718 
L 124.717251 88.312126 
L 124.999211 75.022781 
L 125.281172 69.262543 
L 125.563132 70.422881 
L 125.845093 76.059278 
L 126.409014 98.784896 
L 127.254896 133.969077 
L 127.818817 148.542401 
L 128.100778 153.694027 
L 128.664699 158.660159 
L 129.22862 170.799961 
L 129.510581 170.024444 
L 129.792541 166.476689 
L 130.356462 162.662648 
L 130.638423 159.858537 
L 131.202344 158.552844 
L 131.484305 155.091622 
L 131.766265 153.099668 
L 132.048226 154.926576 
L 132.330186 154.346572 
L 132.612147 149.476861 
L 132.894108 147.347366 
L 133.458029 153.590259 
L 134.02195 155.521459 
L 134.303911 156.032243 
L 134.585871 157.375854 
L 135.431753 168.853902 
L 135.995674 170.767863 
L 136.277635 170.970138 
L 136.559595 170.921346 
L 136.841556 168.916591 
L 137.123516 159.770808 
L 138.533319 74.281439 
L 138.81528 70.950146 
L 139.097241 73.452017 
L 139.379201 80.212905 
L 141.070965 138.679887 
L 141.916846 164.626308 
L 142.198807 165.471704 
L 142.480768 167.076159 
L 142.762728 170.924713 
L 143.044689 169.592534 
L 143.60861 156.376309 
L 143.890571 155.748417 
L 144.172531 153.460286 
L 144.454492 148.920205 
L 144.736452 148.525015 
L 145.018413 151.71848 
L 145.300373 152.22333 
L 145.582334 150.756746 
L 145.864295 151.936174 
L 146.146255 154.760184 
L 146.992137 160.323968 
L 148.119979 168.269643 
L 148.40194 169.345706 
L 148.965861 173.280733 
L 149.529782 174.887082 
L 149.811743 176.240423 
L 150.093703 175.461951 
L 150.375664 169.497803 
L 150.657625 157.35643 
L 152.067428 71.71629 
L 152.349388 66.35455 
L 152.631349 67.023739 
L 152.913309 71.027729 
L 153.19527 77.622593 
L 155.168994 148.072267 
L 155.450955 150.795816 
L 155.732915 158.209063 
L 156.296836 179.722078 
L 156.578797 179.993276 
L 156.860757 179.711125 
L 157.142718 182.010392 
L 157.424679 178.787627 
L 157.9886 157.12418 
L 158.27056 154.374805 
L 158.552521 154.340382 
L 158.834482 153.032901 
L 159.116442 152.614972 
L 159.398403 153.626799 
L 159.680363 153.422213 
L 159.962324 152.165497 
L 160.244285 152.333235 
L 160.526245 153.624059 
L 161.090166 155.328687 
L 161.372127 158.70443 
L 161.936048 169.535737 
L 162.218009 171.681097 
L 162.499969 172.950979 
L 163.06389 181.096609 
L 163.345851 182.278252 
L 164.191733 177.239334 
L 164.473693 170.179315 
L 165.037614 135.754987 
L 165.883496 75.382962 
L 166.165457 65.919728 
L 166.447417 63.019453 
L 166.729378 65.015438 
L 167.011339 70.461476 
L 167.57526 89.185101 
L 168.139181 115.236458 
L 168.703102 144.657942 
L 168.985063 152.285398 
L 169.267023 156.405796 
L 169.830944 169.608707 
L 170.112905 170.776516 
L 170.676826 163.729832 
L 170.958787 163.815417 
L 171.240747 162.787616 
L 171.522708 159.316117 
L 171.804669 157.835043 
L 172.36859 165.141092 
L 172.65055 164.921459 
L 172.932511 163.611688 
L 173.496432 169.190891 
L 173.778393 165.512783 
L 174.060353 158.478383 
L 174.342314 156.140463 
L 174.624274 157.874619 
L 174.906235 158.325972 
L 175.188196 158.308978 
L 176.316038 169.428616 
L 176.879959 175.486012 
L 177.16192 178.026827 
L 177.725841 189.569072 
L 178.007801 187.852599 
L 178.571723 169.8435 
L 178.853683 156.016706 
L 179.981526 76.951744 
L 180.263486 68.438195 
L 180.545447 64.444891 
L 180.827407 66.207763 
L 181.109368 73.492842 
L 181.95525 107.525928 
L 182.519171 134.00943 
L 182.801131 141.715375 
L 183.365053 149.854238 
L 183.928974 158.046719 
L 184.210934 159.837692 
L 184.774856 166.085297 
L 185.056816 166.300734 
L 185.338777 163.82835 
L 185.620737 162.441314 
L 185.902698 163.392091 
L 186.184658 163.572239 
L 186.74858 159.932998 
L 187.312501 163.671767 
L 187.876422 164.457907 
L 188.158383 164.886194 
L 188.440343 164.364579 
L 188.722304 164.563881 
L 189.286225 169.23369 
L 189.568185 169.810659 
L 189.850146 173.222922 
L 190.414067 186.60342 
L 190.977988 188.224816 
L 191.259949 191.075298 
L 191.54191 191.820513 
L 191.82387 188.18812 
L 192.105831 181.836973 
L 192.387791 171.584316 
L 192.951713 132.234153 
L 193.797594 74.538078 
L 194.361515 56.187009 
L 194.643476 51.585473 
L 194.925437 53.003081 
L 195.489358 75.703762 
L 196.053279 101.258172 
L 196.899161 143.052914 
L 197.463082 166.218736 
L 197.745042 170.760339 
L 198.027003 169.976184 
L 198.308964 170.889158 
L 198.590924 173.933054 
L 198.872885 172.793879 
L 199.436806 162.864185 
L 199.718767 165.12454 
L 200.000727 169.04704 
L 200.282688 169.534801 
L 200.564648 167.765416 
L 200.846609 167.429339 
L 201.41053 170.735899 
L 201.974451 175.043681 
L 202.256412 173.92904 
L 202.538372 170.626727 
L 202.820333 169.14604 
L 203.102294 171.066762 
L 204.230136 185.82421 
L 204.512097 187.378343 
L 204.794057 187.886606 
L 205.076018 186.587205 
L 205.357978 184.441226 
L 205.639939 183.741733 
L 205.921899 182.444773 
L 206.20386 174.55498 
L 206.767781 137.667781 
L 207.613663 78.615421 
L 207.895624 64.912932 
L 208.177584 56.816661 
L 208.459545 54.147717 
L 208.741505 55.186932 
L 209.023466 58.50812 
L 209.305427 64.99432 
L 209.587387 76.25314 
L 210.99719 150.659224 
L 211.561111 162.160919 
L 212.125032 167.935073 
L 212.406993 168.424594 
L 212.688954 167.333476 
L 213.252875 163.44293 
L 213.534835 160.900914 
L 213.816796 159.989429 
L 214.380717 163.905409 
L 214.662678 163.641338 
L 214.944638 164.051856 
L 215.508559 171.039857 
L 216.072481 172.904777 
L 216.636402 179.509993 
L 216.918362 180.815504 
L 217.200323 181.448275 
L 219.174047 195.160939 
L 219.456008 192.369543 
L 219.737968 183.485834 
L 220.301889 145.880495 
L 221.147771 80.196843 
L 221.429732 64.97704 
L 221.711692 57.059647 
L 221.993653 54.217743 
L 222.275613 55.479622 
L 222.557574 61.561163 
L 223.403456 94.788597 
L 223.967377 125.21726 
L 224.531298 159.524213 
L 224.813259 168.200616 
L 225.095219 172.036786 
L 225.37718 174.349696 
L 225.659141 175.08243 
L 225.941101 174.878696 
L 226.505022 176.52862 
L 227.068943 173.91384 
L 227.350904 173.428315 
L 227.914825 170.123231 
L 228.196786 170.515959 
L 228.478746 169.155239 
L 228.760707 164.533292 
L 229.042668 163.005467 
L 229.606589 170.357672 
L 229.888549 171.339278 
L 230.17051 174.202993 
L 231.016392 187.824074 
L 231.580313 202.504097 
L 232.144234 204.99461 
L 232.426195 204.262258 
L 232.708155 198.335514 
L 232.990116 189.394467 
L 233.272076 176.414964 
L 233.835998 119.146753 
L 234.117958 92.866279 
L 234.96384 47.502764 
L 235.2458 39.415998 
L 235.527761 37.629006 
L 235.809722 38.161894 
L 236.091682 45.217724 
L 238.347367 168.357328 
L 238.629327 170.390559 
L 238.911288 169.615454 
L 239.193249 169.716983 
L 239.475209 168.908 
L 239.75717 165.851607 
L 240.03913 164.674469 
L 240.321091 166.674962 
L 240.885012 168.501048 
L 241.448933 180.775197 
L 241.730894 182.368446 
L 242.012855 181.119229 
L 242.294815 183.600793 
L 242.576776 187.648212 
L 242.858736 187.582159 
L 243.140697 185.731311 
L 243.422657 187.322936 
L 243.986579 194.21247 
L 244.5505 199.539964 
L 245.114421 202.40844 
L 245.678342 210.20418 
L 245.960303 203.602303 
L 246.524224 166.690989 
L 248.215987 41.33313 
L 248.497948 36.064992 
L 248.779909 35.865213 
L 249.061869 38.752333 
L 249.34383 46.751173 
L 250.753633 112.15575 
L 251.599514 162.889861 
L 251.881475 170.085352 
L 252.445396 174.925194 
L 252.727357 177.925577 
L 253.009317 178.101927 
L 253.573239 175.194966 
L 254.13716 173.151456 
L 254.41912 173.777734 
L 255.828923 185.684826 
L 256.110884 186.342375 
L 256.392844 186.224669 
L 256.674805 187.582399 
L 256.956766 191.136553 
L 257.802647 205.008459 
L 258.366569 210.500002 
L 258.93049 217.622048 
L 259.21245 216.676991 
L 259.494411 207.959801 
L 259.776371 189.484828 
L 261.186174 58.072691 
L 261.750096 27.710532 
L 262.032056 24.743214 
L 262.314017 27.248058 
L 262.595977 32.266217 
L 263.159898 50.684954 
L 263.72382 74.98852 
L 265.133623 152.236021 
L 265.697544 173.944526 
L 265.979504 179.009687 
L 266.261465 179.559576 
L 266.543425 179.487089 
L 266.825386 179.917633 
L 267.107347 180.084405 
L 267.389307 180.084898 
L 267.671268 179.92329 
L 268.235189 179.298335 
L 268.51715 179.214003 
L 268.79911 179.996452 
L 269.081071 184.904242 
L 269.644992 199.344773 
L 269.926953 200.865467 
L 270.208913 204.552775 
L 270.490874 210.245743 
L 270.772834 209.12865 
L 271.054795 202.140085 
L 271.336755 200.769713 
L 271.618716 205.879767 
L 271.900677 207.549988 
L 272.182637 204.902791 
L 272.464598 204.50308 
L 272.746558 202.888989 
L 273.028519 191.013935 
L 273.59244 141.739509 
L 274.438322 57.9188 
L 275.002243 33.022657 
L 275.284204 25.828406 
L 275.566164 25.072819 
L 275.848125 31.287992 
L 276.975967 69.344205 
L 278.38577 161.717703 
L 278.667731 169.07099 
L 278.949691 172.492229 
L 279.231652 174.436892 
L 279.513612 175.141207 
L 279.795573 175.465557 
L 280.077534 177.57093 
L 280.641455 183.935503 
L 281.487337 188.932045 
L 282.051258 192.118272 
L 282.333218 193.199297 
L 282.615179 194.721054 
L 284.306942 211.745393 
L 284.870864 220.350966 
L 285.152824 220.108811 
L 285.434785 216.028229 
L 285.716745 209.433828 
L 285.998706 196.557762 
L 286.562627 142.752122 
L 287.408509 68.555532 
L 287.97243 31.557705 
L 288.254391 26.152571 
L 288.536351 27.071731 
L 289.100272 32.892001 
L 289.382233 38.553037 
L 289.664194 47.103007 
L 290.228115 75.524748 
L 291.073996 132.738628 
L 291.919878 165.688212 
L 292.201839 171.644242 
L 292.483799 172.401289 
L 292.76576 171.171097 
L 293.047721 172.399533 
L 293.329681 175.680052 
L 293.611642 177.201163 
L 293.893602 177.213808 
L 294.175563 179.352004 
L 294.457524 183.191051 
L 294.739484 184.863121 
L 295.021445 184.662945 
L 295.303405 185.347496 
L 295.585366 186.447122 
L 295.867326 188.076797 
L 296.713208 204.926345 
L 296.995169 206.13862 
L 297.55909 214.562654 
L 298.123011 209.122904 
L 298.404972 212.160147 
L 298.686932 213.910991 
L 298.968893 207.608352 
L 299.532814 186.249881 
L 299.814775 167.160064 
L 300.942617 56.316212 
L 301.224578 39.375267 
L 301.506538 30.545264 
L 301.788499 27.670292 
L 302.070459 29.250876 
L 302.634381 41.371694 
L 303.198302 56.104309 
L 303.480262 66.59766 
L 304.044183 102.649804 
L 304.608105 141.290949 
L 305.172026 163.531369 
L 305.453986 168.044756 
L 306.299868 174.070197 
L 306.581829 174.343063 
L 306.863789 175.684223 
L 308.273592 190.255554 
L 308.837513 195.412279 
L 309.401435 202.201628 
L 309.683395 204.650225 
L 309.965356 209.990094 
L 310.529277 223.812577 
L 311.375159 237.321608 
L 311.657119 236.621882 
L 311.93908 229.066462 
L 312.22104 211.322387 
L 312.784962 142.414163 
L 313.348883 76.97294 
L 313.912804 36.564709 
L 314.194765 29.943015 
L 314.758686 24.133296 
L 315.040646 24.119418 
L 315.604567 33.234689 
L 315.886528 39.932168 
L 316.450449 69.322306 
L 317.860252 156.258465 
L 318.142213 166.341043 
L 318.424173 171.953053 
L 318.706134 172.18779 
L 318.988095 172.126038 
L 319.270055 174.321002 
L 319.552016 174.999631 
L 319.833976 174.119148 
L 320.115937 176.877464 
L 320.961819 197.136256 
L 321.52574 205.102451 
L 322.089661 214.056486 
L 322.653582 218.058279 
L 323.217503 228.984623 
L 324.063385 243.391194 
L 324.345346 244.199935 
L 324.627306 238.514716 
L 324.909267 222.55057 
L 325.473188 161.934743 
L 326.31907 60.818725 
L 326.60103 39.2854 
L 327.164952 23.332472 
L 327.728873 12.096 
L 328.010833 13.175691 
L 328.292794 18.277384 
L 328.856715 34.133967 
L 329.138676 45.63308 
L 329.702597 81.692522 
L 330.830439 152.128273 
L 331.958281 182.701095 
L 332.240242 185.983068 
L 332.522203 187.562673 
L 333.368084 195.283327 
L 333.650045 200.108591 
L 333.932006 202.818055 
L 334.213966 201.310026 
L 334.495927 200.87512 
L 335.059848 206.106544 
L 335.341809 211.809973 
L 335.90573 242.322368 
L 336.18769 248.575145 
L 336.469651 249.252086 
L 336.751611 253.121585 
L 337.033572 254.016 
L 337.315533 242.389377 
L 337.879454 198.607218 
L 339.289257 54.653849 
L 339.571217 39.464828 
L 339.853178 30.641625 
L 340.417099 22.322534 
L 340.69906 20.798321 
L 341.262981 23.967317 
L 341.544941 26.584573 
L 341.826902 34.774213 
L 342.954744 98.037209 
L 343.518666 137.574571 
L 344.082587 158.703121 
L 344.646508 172.978352 
L 345.210429 179.871223 
L 345.77435 190.903053 
L 346.338271 197.704154 
L 346.620232 200.18812 
L 347.184153 203.043291 
L 347.748074 211.35077 
L 350.003759 250.730607 
L 350.28572 248.322363 
L 350.56768 237.594614 
L 350.849641 216.5749 
L 351.413562 146.68032 
L 351.977483 70.510599 
L 352.259444 47.524785 
L 352.823365 27.001429 
L 353.387286 16.028863 
L 353.669247 15.591735 
L 353.951207 17.861724 
L 354.233168 22.192715 
L 354.515128 29.394103 
L 355.07905 53.402735 
L 357.052774 157.077587 
L 357.334734 165.941761 
L 357.616695 171.019858 
L 357.898655 173.188731 
L 358.180616 176.369574 
L 358.744537 186.014634 
L 359.308458 191.727561 
L 361.000222 218.716136 
L 361.846104 237.597185 
L 362.973946 251.650657 
L 363.255907 249.48842 
L 363.537867 239.528726 
L 363.819828 218.001141 
L 364.383749 142.529919 
L 364.94767 70.395411 
L 365.229631 50.862876 
L 365.793552 31.136952 
L 366.075512 25.453567 
L 366.357473 22.084447 
L 366.639434 21.124626 
L 366.921394 23.142416 
L 367.485315 34.291048 
L 367.767276 43.449655 
L 368.331197 71.52981 
L 370.022961 161.342097 
L 370.586882 172.255963 
L 371.150803 180.960377 
L 371.996685 198.852254 
L 372.560606 203.560288 
L 372.842566 205.546772 
L 373.124527 203.979441 
L 373.406488 199.72221 
L 373.688448 200.114877 
L 374.816291 229.491897 
L 375.380212 239.214493 
L 375.944133 248.141159 
L 376.226094 249.139536 
L 376.508054 239.90012 
L 376.790015 219.53482 
L 377.353936 146.534267 
L 377.917857 70.236963 
L 378.481778 41.43357 
L 379.045699 25.029818 
L 379.32766 24.301647 
L 379.891581 26.50408 
L 380.173542 29.963762 
L 380.737463 50.008231 
L 381.301384 75.904149 
L 382.429226 135.684338 
L 383.275108 165.756871 
L 384.684911 192.998939 
L 384.966872 194.591602 
L 385.812753 205.215503 
L 386.094714 207.087764 
L 386.658635 217.007161 
L 387.222556 225.440081 
L 388.068438 237.868887 
L 388.632359 246.300191 
L 388.91432 247.245478 
L 389.19628 241.883648 
L 389.478241 225.760869 
L 390.042162 159.80783 
L 390.606083 87.624943 
L 391.170005 49.736927 
L 391.733926 29.762582 
L 392.015886 26.507713 
L 392.297847 26.755 
L 392.579808 28.83096 
L 392.861768 33.040374 
L 393.425689 48.21114 
L 393.98961 69.637094 
L 395.681374 151.84847 
L 396.245295 163.871325 
L 396.527256 166.845483 
L 397.091177 162.837702 
L 397.655098 171.279501 
L 397.937059 172.347818 
L 398.219019 179.701059 
L 398.78294 214.5605 
L 399.064901 216.987136 
L 399.346862 218.050445 
L 399.910783 233.12174 
L 400.474704 224.073455 
L 400.756665 227.599932 
L 401.320586 243.290287 
L 401.884507 251.520734 
L 402.166467 249.007944 
L 402.448428 233.961105 
L 403.012349 162.461999 
L 403.57627 92.225082 
L 404.140192 55.839917 
L 404.704113 37.242805 
L 404.986073 32.759284 
L 405.268034 30.650698 
L 405.549994 30.22884 
L 405.831955 32.252906 
L 406.395876 43.341161 
L 406.677837 51.462351 
L 407.241758 81.880637 
L 408.08764 130.485032 
L 408.651561 152.120269 
L 409.215482 166.033634 
L 409.497443 170.105167 
L 410.061364 174.017964 
L 410.625285 176.777208 
L 411.471167 184.084328 
L 411.753127 187.08202 
L 412.317049 199.672532 
L 412.88097 210.90499 
L 413.444891 220.514215 
L 414.572733 244.492798 
L 414.854694 248.064303 
L 415.136654 245.787916 
L 415.418615 231.31599 
L 415.982536 166.469003 
L 416.546457 101.653666 
L 417.110379 62.572842 
L 417.6743 40.436789 
L 417.95626 39.704566 
L 419.648024 65.589853 
L 419.929984 76.916405 
L 420.493906 109.724805 
L 421.057827 127.212764 
L 421.621748 146.597694 
L 422.185669 150.630022 
L 423.031551 164.372645 
L 423.595472 175.028249 
L 424.159393 178.979446 
L 424.723314 185.287104 
L 425.005275 187.159321 
L 425.287236 191.654895 
L 425.851157 203.255732 
L 426.133117 206.885079 
L 427.824881 239.621689 
L 428.106841 237.437678 
L 428.388802 223.644956 
L 428.952723 164.901107 
L 429.516644 102.85672 
L 430.080565 68.405913 
L 430.644487 49.413989 
L 430.926447 47.836692 
L 431.772329 54.100052 
L 432.05429 57.931401 
L 432.33625 63.369479 
L 432.900171 81.936908 
L 433.746053 118.114152 
L 434.309974 144.807111 
L 434.873895 160.65861 
L 435.719777 175.249222 
L 436.001738 178.772881 
L 436.565659 179.644053 
L 437.12958 184.946277 
L 437.693501 187.737823 
L 437.975462 187.416133 
L 438.257422 185.345826 
L 438.539383 185.704675 
L 439.103304 192.173009 
L 439.385265 195.029042 
L 439.667225 202.533916 
L 440.231147 223.111694 
L 440.513107 227.870767 
L 440.795068 229.900533 
L 441.077028 230.219776 
L 441.358989 225.802307 
L 441.64095 210.645043 
L 443.050752 76.103892 
L 443.332713 61.351172 
L 443.614674 54.107299 
L 443.896634 53.673518 
L 444.178595 53.63913 
L 444.460555 52.543063 
L 444.742516 54.261792 
L 445.588398 69.453605 
L 446.152319 88.866888 
L 447.280161 139.846026 
L 447.844082 154.669078 
L 448.126043 160.141785 
L 448.408004 163.28498 
L 448.971925 166.404479 
L 449.253885 167.143826 
L 449.535846 168.537481 
L 450.381728 177.512596 
L 450.663688 179.038431 
L 450.945649 181.780062 
L 452.073491 197.645653 
L 452.355452 200.368738 
L 452.637412 204.765849 
L 453.201334 216.799206 
L 454.047215 226.548159 
L 454.329176 221.078481 
L 454.611136 201.144798 
L 455.457018 116.526666 
L 456.020939 78.893606 
L 456.3029 67.680046 
L 456.584861 62.956679 
L 456.866821 62.578957 
L 457.148782 63.802935 
L 457.430742 66.391841 
L 457.994663 78.05114 
L 458.558585 90.157219 
L 459.122506 111.605768 
L 459.686427 130.29421 
L 460.250348 143.807649 
L 461.09623 157.126119 
L 461.378191 156.452545 
L 461.660151 153.572128 
L 461.942112 154.742449 
L 462.506033 162.902474 
L 462.787993 163.79142 
L 463.069954 167.231732 
L 463.633875 176.57379 
L 463.915836 178.038688 
L 464.197796 180.675303 
L 466.735442 216.699708 
L 467.017402 213.251004 
L 467.299363 199.028116 
L 468.709166 91.455181 
L 469.555048 73.581194 
L 470.118969 74.992771 
L 470.400929 72.69214 
L 470.68289 72.813009 
L 471.246811 83.350337 
L 471.528772 91.160909 
L 472.374653 122.737222 
L 472.938575 142.507645 
L 473.502496 162.992385 
L 473.784456 167.660814 
L 474.066417 169.526517 
L 474.630338 171.027828 
L 474.912299 170.975692 
L 475.194259 170.213482 
L 475.47622 170.145997 
L 476.040141 171.178053 
L 476.322102 172.682398 
L 477.167983 181.126363 
L 477.731905 190.776146 
L 479.423668 208.659354 
L 479.705629 206.760537 
L 479.987589 194.170226 
L 481.397392 98.011087 
L 481.961313 83.375633 
L 482.243274 80.954323 
L 482.525234 82.661467 
L 482.807195 81.116913 
L 483.089156 77.975411 
L 483.371116 80.374605 
L 483.653077 84.372096 
L 483.935037 83.538886 
L 484.216998 84.687089 
L 484.780919 111.334308 
L 485.34484 132.414248 
L 485.908762 147.489929 
L 486.472683 160.221564 
L 486.754643 166.425741 
L 487.036604 168.04791 
L 487.318564 168.128198 
L 487.882486 172.804355 
L 488.164446 171.679477 
L 488.446407 169.046412 
L 488.728367 169.014618 
L 489.010328 171.009719 
L 489.292289 171.687582 
L 489.574249 171.870432 
L 489.85621 174.255184 
L 490.702091 185.508957 
L 490.984052 192.025687 
L 491.266013 195.858034 
L 491.547973 197.011601 
L 492.111894 201.585099 
L 492.393855 198.455119 
L 492.675816 187.896038 
L 492.957776 168.951066 
L 493.803658 95.232529 
L 494.085619 81.99771 
L 494.367579 74.357062 
L 494.64954 72.531106 
L 494.9315 73.895258 
L 495.213461 77.762007 
L 496.059343 104.647297 
L 496.341303 106.549027 
L 496.905224 123.785216 
L 497.187185 124.674354 
L 497.469146 124.097098 
L 498.033067 139.220549 
L 498.596988 143.616563 
L 498.878948 148.711189 
L 499.160909 151.370054 
L 499.44287 149.429023 
L 499.72483 149.233515 
L 500.288751 159.530643 
L 500.570712 160.777106 
L 500.852673 160.43494 
L 501.134633 163.189918 
L 501.416594 167.592552 
L 501.698554 168.195049 
L 501.980515 165.798084 
L 502.262476 166.668621 
L 502.826397 175.439097 
L 503.108357 177.165433 
L 503.390318 180.337921 
L 503.954239 188.353079 
L 504.800121 197.923216 
L 505.082081 197.37697 
L 505.364042 194.35366 
L 505.646003 184.500957 
L 506.491884 123.842339 
L 507.055805 98.884885 
L 507.337766 85.653481 
L 507.619727 80.471163 
L 507.901687 79.947072 
L 508.465608 73.532902 
L 508.747569 77.579193 
L 509.875411 116.108834 
L 511.567175 158.893065 
L 511.849135 161.564574 
L 512.413057 163.610533 
L 512.695017 164.636647 
L 512.976978 165.154822 
L 514.10482 165.138286 
L 514.386781 165.422865 
L 514.950702 163.89725 
L 515.232662 167.698028 
L 515.796584 181.080983 
L 516.078544 181.680716 
L 516.360505 184.332255 
L 516.642465 189.054779 
L 516.924426 188.318642 
L 517.206387 184.188857 
L 517.488347 186.185706 
L 517.770308 192.507937 
L 518.052268 191.625392 
L 518.334229 179.94456 
L 519.744032 95.661597 
L 520.025992 87.747958 
L 520.307953 83.729112 
L 520.589914 85.606923 
L 520.871874 88.338899 
L 521.153835 89.030784 
L 521.435795 91.685078 
L 521.999717 102.076328 
L 522.281677 105.766766 
L 522.845598 120.099573 
L 524.255401 160.001183 
L 524.537362 164.758983 
L 524.819322 166.108662 
L 525.665204 159.651936 
L 525.947165 159.788309 
L 526.229125 162.982066 
L 526.511086 167.50069 
L 526.793047 169.579451 
L 527.356968 169.083289 
L 527.638928 167.815911 
L 527.920889 164.731138 
L 528.202849 164.029843 
L 528.766771 172.379957 
L 529.048731 174.436676 
L 529.330692 178.368392 
L 529.894613 192.677277 
L 530.740495 203.11638 
L 531.022455 198.843926 
L 531.304416 183.60375 
L 532.150298 122.299103 
L 532.714219 98.454241 
L 532.996179 90.308859 
L 533.27814 87.51292 
L 533.842061 88.646361 
L 534.124022 90.027828 
L 534.405982 94.553851 
L 534.969904 107.125706 
L 535.533825 117.153248 
L 536.097746 137.24293 
L 536.661667 153.25581 
L 537.225588 164.633506 
L 537.507549 167.881686 
L 537.789509 168.795326 
L 538.07147 169.323075 
L 538.353431 168.743835 
L 538.635391 166.892425 
L 538.917352 166.161889 
L 539.199312 166.545067 
L 539.481273 165.406795 
L 539.763233 163.656118 
L 540.045194 163.916959 
L 540.891076 168.544327 
L 541.454997 174.326841 
L 541.736958 176.310564 
L 542.300879 183.288204 
L 543.146761 187.804037 
L 543.428721 187.010138 
L 543.710682 178.196544 
L 545.120485 101.572663 
L 545.402445 93.863164 
L 545.684406 91.96465 
L 546.530288 100.860481 
L 546.812248 101.653377 
L 547.376169 114.05455 
L 547.94009 117.258284 
L 549.631854 160.809061 
L 550.477736 164.876949 
L 551.041657 159.222591 
L 551.323618 159.823234 
L 551.605578 161.267256 
L 552.169499 160.129892 
L 552.73342 162.459076 
L 553.015381 162.274952 
L 553.297342 162.672218 
L 553.579302 164.905437 
L 554.143223 172.481906 
L 554.707145 183.640156 
L 554.989105 190.557082 
L 555.271066 194.388501 
L 555.834987 195.400732 
L 556.116947 194.645373 
L 556.398908 185.625014 
L 557.808711 98.250311 
L 558.090672 91.225504 
L 558.372632 88.872596 
L 558.654593 85.049394 
L 558.936553 83.428135 
L 559.218514 88.810464 
L 559.782435 101.795358 
L 560.910277 120.489151 
L 561.756159 140.726665 
L 562.32008 166.991227 
L 562.602041 171.430941 
L 562.884002 171.293052 
L 563.165962 175.530605 
L 563.447923 177.900392 
L 564.011844 159.02126 
L 564.293804 156.697891 
L 564.575765 158.586897 
L 564.857726 157.374947 
L 565.139686 156.73444 
L 565.421647 162.181147 
L 565.703607 170.522308 
L 565.985568 174.741313 
L 566.267529 173.471945 
L 566.549489 171.49774 
L 566.83145 172.74202 
L 567.11341 174.77842 
L 567.677332 173.724681 
L 568.523213 179.246216 
L 568.805174 180.554819 
L 569.087134 179.288331 
L 569.369095 169.782939 
L 569.933016 142.659071 
L 571.060859 107.457371 
L 572.188701 96.01769 
L 572.470661 97.364289 
L 573.880464 116.368819 
L 575.572228 154.620698 
L 575.854189 159.471244 
L 576.136149 160.604357 
L 576.70007 166.392157 
L 576.982031 165.468035 
L 577.545952 153.842938 
L 577.827913 152.310013 
L 578.109873 157.511433 
L 578.391834 165.486751 
L 578.673794 169.158722 
L 578.955755 169.101125 
L 579.237716 171.84301 
L 579.519676 176.256223 
L 579.801637 176.261219 
L 580.083597 173.841999 
L 580.365558 175.107781 
L 580.647518 178.697586 
L 581.21144 182.058726 
L 581.4934 183.730864 
L 581.775361 182.535518 
L 582.057321 175.829175 
L 582.621243 148.233803 
L 583.749085 96.247125 
L 584.031046 90.331433 
L 584.594967 95.135715 
L 584.876927 93.283742 
L 585.158888 93.405954 
L 585.722809 106.415011 
L 586.00477 108.856887 
L 586.28673 109.607436 
L 586.568691 113.894569 
L 587.696533 144.349928 
L 587.978494 148.427925 
L 588.824375 153.975684 
L 589.106336 153.250109 
L 589.388297 151.528023 
L 589.670257 154.409945 
L 589.952218 160.453799 
L 590.234178 162.357268 
L 590.516139 160.073818 
L 590.7981 159.262555 
L 591.08006 160.292836 
L 591.362021 160.06952 
L 591.643981 160.167764 
L 591.925942 162.562632 
L 592.489863 170.54842 
L 593.053784 181.856472 
L 593.617705 178.273869 
L 594.181627 183.580786 
L 594.463587 179.569581 
L 595.309469 151.844521 
L 596.155351 113.984288 
L 596.437311 108.029718 
L 596.719272 104.506243 
L 597.001232 103.912953 
L 597.565154 108.240798 
L 597.847114 106.84835 
L 598.129075 103.90133 
L 598.411035 104.690808 
L 598.974957 114.086143 
L 599.256917 117.072606 
L 599.538878 123.2578 
L 600.102799 143.442008 
L 600.38476 148.633336 
L 600.66672 150.002605 
L 600.948681 149.841047 
L 601.230641 150.214674 
L 601.794562 152.323156 
L 602.076523 153.12454 
L 602.358484 154.739899 
L 602.640444 154.569375 
L 602.922405 151.79963 
L 603.204365 152.88541 
L 603.768287 168.15269 
L 604.332208 165.828699 
L 604.896129 174.083564 
L 605.46005 166.553402 
L 605.742011 168.904513 
L 606.023971 172.457314 
L 606.587892 176.540354 
L 606.869853 178.891136 
L 607.151814 177.078687 
L 607.433774 170.800151 
L 607.715735 161.007235 
L 608.561617 120.873579 
L 609.407498 108.694543 
L 609.689459 105.966104 
L 609.971419 107.250884 
L 611.381222 123.450183 
L 611.663183 123.976876 
L 611.945144 126.600813 
L 612.227104 137.051368 
L 612.791025 161.263846 
L 613.636907 167.030624 
L 613.918868 165.862287 
L 614.482789 156.946592 
L 615.04671 157.671037 
L 615.892592 155.642794 
L 616.174552 155.404674 
L 616.456513 156.541028 
L 617.020434 162.428236 
L 617.584355 167.842628 
L 617.866316 168.568158 
L 618.148276 169.827385 
L 618.712198 173.050658 
L 618.994158 173.393488 
L 619.276119 174.236294 
L 619.558079 174.205852 
L 619.84004 170.908571 
L 620.122001 163.243759 
L 621.531803 111.016034 
L 621.813764 108.007164 
L 622.377685 110.890455 
L 622.659646 110.701941 
L 622.941606 113.792487 
L 623.505528 127.585139 
L 623.787488 130.319576 
L 624.069449 134.185391 
L 624.63337 144.812197 
L 625.197291 144.144961 
L 625.479252 147.588573 
L 625.761212 152.426675 
L 626.043173 154.960118 
L 626.325133 155.779033 
L 626.607094 159.226162 
L 626.889055 164.564489 
L 627.171015 166.984191 
L 627.734936 163.841656 
L 628.016897 164.029934 
L 628.298858 161.92121 
L 628.580818 156.626051 
L 628.862779 153.553538 
L 629.144739 154.601917 
L 629.990621 163.699508 
L 630.554542 168.575411 
L 631.118463 175.127023 
L 631.400424 175.103364 
L 631.682385 174.632775 
L 631.964345 175.24645 
L 632.246306 176.145229 
L 632.528266 170.855021 
L 632.810227 161.0142 
L 633.092188 147.032114 
L 633.092188 147.032114 
" clip-path="url(#pfb18cc52d1)" style="fill: none; stroke: #1f77b4; stroke-width: 1.5; stroke-linecap: square"/>
   </g>
   <g id="patch_3">
    <path d="M 47.192188 266.112 
L 47.192188 0 
" style="fill: none; stroke: #808080; stroke-width: 0.8; stroke-linejoin: miter; stroke-linecap: square"/>
   </g>
   <g id="patch_4">
    <path d="M 660.992188 266.112 
L 660.992188 0 
" style="fill: none; stroke: #000000; stroke-width: 0.8; stroke-linejoin: miter; stroke-linecap: square"/>
   </g>
   <g id="patch_5">
    <path d="M 47.192188 266.112 
L 660.992188 266.112 
" style="fill: none; stroke: #808080; stroke-width: 0.8; stroke-linejoin: miter; stroke-linecap: square"/>
   </g>
   <g id="patch_6">
    <path d="M 47.192188 0 
L 660.992188 0 
" style="fill: none; stroke: #000000; stroke-width: 0.8; stroke-linejoin: miter; stroke-linecap: square"/>
   </g>
  </g>
 </g>
 <defs>
  <clipPath id="pfb18cc52d1">
   <rect x="47.192188" y="0" width="613.8" height="266.112"/>
  </clipPath>
 </defs>
</svg>
