<?xml version="1.0" encoding="utf-8" standalone="no"?>
<!DOCTYPE svg PUBLIC "-//W3C//DTD SVG 1.1//EN"
  "http://www.w3.org/Graphics/SVG/1.1/DTD/svg11.dtd">
<svg xmlns:xlink="http://www.w3.org/1999/xlink" width="660.992188pt" height="282.790125pt" viewBox="0 0 660.992188 282.790125" xmlns="http://www.w3.org/2000/svg" version="1.1">
 <metadata>
  <rdf:RDF xmlns:dc="http://purl.org/dc/elements/1.1/" xmlns:cc="http://creativecommons.org/ns#" xmlns:rdf="http://www.w3.org/1999/02/22-rdf-syntax-ns#">
   <cc:Work>
    <dc:type rdf:resource="http://purl.org/dc/dcmitype/StillImage"/>
    <dc:date>2023-03-06T19:30:27.997286</dc:date>
    <dc:format>image/svg+xml</dc:format>
    <dc:creator>
     <cc:Agent>
      <dc:title>Matplotlib v3.6.3, https://matplotlib.org/</dc:title>
     </cc:Agent>
    </dc:creator>
   </cc:Work>
  </rdf:RDF>
 </metadata>
 <defs>
  <style type="text/css">*{stroke-linejoin: round; stroke-linecap: butt}</style>
 </defs>
 <g id="figure_1">
  <g id="patch_1">
   <path d="M -0 282.790125 
L 660.992188 282.790125 
L 660.992188 0 
L -0 0 
L -0 282.790125 
z
" style="fill: none"/>
  </g>
  <g id="axes_1">
   <g id="patch_2">
    <path d="M 47.192188 266.112 
L 660.992188 266.112 
L 660.992188 0 
L 47.192188 0 
L 47.192188 266.112 
z
" style="fill: none"/>
   </g>
   <g id="matplotlib.axis_1">
    <g id="xtick_1">
     <g id="line2d_1">
      <defs>
       <path id="m34c600d090" d="M 0 0 
L 0 3.5 
" style="stroke: #000000; stroke-width: 0.8"/>
      </defs>
      <g>
       <use xlink:href="#m34c600d090" x="75.092188" y="266.112" style="stroke: #000000; stroke-width: 0.8"/>
      </g>
     </g>
     <g id="text_1">
      <!-- 0 -->
      <g transform="translate(71.910938 280.710438) scale(0.1 -0.1)">
       <defs>
        <path id="DejaVuSans-30" d="M 2034 4250 
Q 1547 4250 1301 3770 
Q 1056 3291 1056 2328 
Q 1056 1369 1301 889 
Q 1547 409 2034 409 
Q 2525 409 2770 889 
Q 3016 1369 3016 2328 
Q 3016 3291 2770 3770 
Q 2525 4250 2034 4250 
z
M 2034 4750 
Q 2819 4750 3233 4129 
Q 3647 3509 3647 2328 
Q 3647 1150 3233 529 
Q 2819 -91 2034 -91 
Q 1250 -91 836 529 
Q 422 1150 422 2328 
Q 422 3509 836 4129 
Q 1250 4750 2034 4750 
z
" transform="scale(0.015625)"/>
       </defs>
       <use xlink:href="#DejaVuSans-30"/>
      </g>
     </g>
    </g>
    <g id="xtick_2">
     <g id="line2d_2">
      <g>
       <use xlink:href="#m34c600d090" x="144.842188" y="266.112" style="stroke: #000000; stroke-width: 0.8"/>
      </g>
     </g>
     <g id="text_2">
      <!-- 500 -->
      <g transform="translate(135.298438 280.710438) scale(0.1 -0.1)">
       <defs>
        <path id="DejaVuSans-35" d="M 691 4666 
L 3169 4666 
L 3169 4134 
L 1269 4134 
L 1269 2991 
Q 1406 3038 1543 3061 
Q 1681 3084 1819 3084 
Q 2600 3084 3056 2656 
Q 3513 2228 3513 1497 
Q 3513 744 3044 326 
Q 2575 -91 1722 -91 
Q 1428 -91 1123 -41 
Q 819 9 494 109 
L 494 744 
Q 775 591 1075 516 
Q 1375 441 1709 441 
Q 2250 441 2565 725 
Q 2881 1009 2881 1497 
Q 2881 1984 2565 2268 
Q 2250 2553 1709 2553 
Q 1456 2553 1204 2497 
Q 953 2441 691 2322 
L 691 4666 
z
" transform="scale(0.015625)"/>
       </defs>
       <use xlink:href="#DejaVuSans-35"/>
       <use xlink:href="#DejaVuSans-30" x="63.623047"/>
       <use xlink:href="#DejaVuSans-30" x="127.246094"/>
      </g>
     </g>
    </g>
    <g id="xtick_3">
     <g id="line2d_3">
      <g>
       <use xlink:href="#m34c600d090" x="214.592188" y="266.112" style="stroke: #000000; stroke-width: 0.8"/>
      </g>
     </g>
     <g id="text_3">
      <!-- 1000 -->
      <g transform="translate(201.867188 280.710438) scale(0.1 -0.1)">
       <defs>
        <path id="DejaVuSans-31" d="M 794 531 
L 1825 531 
L 1825 4091 
L 703 3866 
L 703 4441 
L 1819 4666 
L 2450 4666 
L 2450 531 
L 3481 531 
L 3481 0 
L 794 0 
L 794 531 
z
" transform="scale(0.015625)"/>
       </defs>
       <use xlink:href="#DejaVuSans-31"/>
       <use xlink:href="#DejaVuSans-30" x="63.623047"/>
       <use xlink:href="#DejaVuSans-30" x="127.246094"/>
       <use xlink:href="#DejaVuSans-30" x="190.869141"/>
      </g>
     </g>
    </g>
    <g id="xtick_4">
     <g id="line2d_4">
      <g>
       <use xlink:href="#m34c600d090" x="284.342188" y="266.112" style="stroke: #000000; stroke-width: 0.8"/>
      </g>
     </g>
     <g id="text_4">
      <!-- 1500 -->
      <g transform="translate(271.617188 280.710438) scale(0.1 -0.1)">
       <use xlink:href="#DejaVuSans-31"/>
       <use xlink:href="#DejaVuSans-35" x="63.623047"/>
       <use xlink:href="#DejaVuSans-30" x="127.246094"/>
       <use xlink:href="#DejaVuSans-30" x="190.869141"/>
      </g>
     </g>
    </g>
    <g id="xtick_5">
     <g id="line2d_5">
      <g>
       <use xlink:href="#m34c600d090" x="354.092188" y="266.112" style="stroke: #000000; stroke-width: 0.8"/>
      </g>
     </g>
     <g id="text_5">
      <!-- 2000 -->
      <g transform="translate(341.367188 280.710438) scale(0.1 -0.1)">
       <defs>
        <path id="DejaVuSans-32" d="M 1228 531 
L 3431 531 
L 3431 0 
L 469 0 
L 469 531 
Q 828 903 1448 1529 
Q 2069 2156 2228 2338 
Q 2531 2678 2651 2914 
Q 2772 3150 2772 3378 
Q 2772 3750 2511 3984 
Q 2250 4219 1831 4219 
Q 1534 4219 1204 4116 
Q 875 4013 500 3803 
L 500 4441 
Q 881 4594 1212 4672 
Q 1544 4750 1819 4750 
Q 2544 4750 2975 4387 
Q 3406 4025 3406 3419 
Q 3406 3131 3298 2873 
Q 3191 2616 2906 2266 
Q 2828 2175 2409 1742 
Q 1991 1309 1228 531 
z
" transform="scale(0.015625)"/>
       </defs>
       <use xlink:href="#DejaVuSans-32"/>
       <use xlink:href="#DejaVuSans-30" x="63.623047"/>
       <use xlink:href="#DejaVuSans-30" x="127.246094"/>
       <use xlink:href="#DejaVuSans-30" x="190.869141"/>
      </g>
     </g>
    </g>
    <g id="xtick_6">
     <g id="line2d_6">
      <g>
       <use xlink:href="#m34c600d090" x="423.842188" y="266.112" style="stroke: #000000; stroke-width: 0.8"/>
      </g>
     </g>
     <g id="text_6">
      <!-- 2500 -->
      <g transform="translate(411.117188 280.710438) scale(0.1 -0.1)">
       <use xlink:href="#DejaVuSans-32"/>
       <use xlink:href="#DejaVuSans-35" x="63.623047"/>
       <use xlink:href="#DejaVuSans-30" x="127.246094"/>
       <use xlink:href="#DejaVuSans-30" x="190.869141"/>
      </g>
     </g>
    </g>
    <g id="xtick_7">
     <g id="line2d_7">
      <g>
       <use xlink:href="#m34c600d090" x="493.592188" y="266.112" style="stroke: #000000; stroke-width: 0.8"/>
      </g>
     </g>
     <g id="text_7">
      <!-- 3000 -->
      <g transform="translate(480.867188 280.710438) scale(0.1 -0.1)">
       <defs>
        <path id="DejaVuSans-33" d="M 2597 2516 
Q 3050 2419 3304 2112 
Q 3559 1806 3559 1356 
Q 3559 666 3084 287 
Q 2609 -91 1734 -91 
Q 1441 -91 1130 -33 
Q 819 25 488 141 
L 488 750 
Q 750 597 1062 519 
Q 1375 441 1716 441 
Q 2309 441 2620 675 
Q 2931 909 2931 1356 
Q 2931 1769 2642 2001 
Q 2353 2234 1838 2234 
L 1294 2234 
L 1294 2753 
L 1863 2753 
Q 2328 2753 2575 2939 
Q 2822 3125 2822 3475 
Q 2822 3834 2567 4026 
Q 2313 4219 1838 4219 
Q 1578 4219 1281 4162 
Q 984 4106 628 3988 
L 628 4550 
Q 988 4650 1302 4700 
Q 1616 4750 1894 4750 
Q 2613 4750 3031 4423 
Q 3450 4097 3450 3541 
Q 3450 3153 3228 2886 
Q 3006 2619 2597 2516 
z
" transform="scale(0.015625)"/>
       </defs>
       <use xlink:href="#DejaVuSans-33"/>
       <use xlink:href="#DejaVuSans-30" x="63.623047"/>
       <use xlink:href="#DejaVuSans-30" x="127.246094"/>
       <use xlink:href="#DejaVuSans-30" x="190.869141"/>
      </g>
     </g>
    </g>
    <g id="xtick_8">
     <g id="line2d_8">
      <g>
       <use xlink:href="#m34c600d090" x="563.342188" y="266.112" style="stroke: #000000; stroke-width: 0.8"/>
      </g>
     </g>
     <g id="text_8">
      <!-- 3500 -->
      <g transform="translate(550.617188 280.710438) scale(0.1 -0.1)">
       <use xlink:href="#DejaVuSans-33"/>
       <use xlink:href="#DejaVuSans-35" x="63.623047"/>
       <use xlink:href="#DejaVuSans-30" x="127.246094"/>
       <use xlink:href="#DejaVuSans-30" x="190.869141"/>
      </g>
     </g>
    </g>
    <g id="xtick_9">
     <g id="line2d_9">
      <g>
       <use xlink:href="#m34c600d090" x="633.092188" y="266.112" style="stroke: #000000; stroke-width: 0.8"/>
      </g>
     </g>
     <g id="text_9">
      <!-- 4000 -->
      <g transform="translate(620.367188 280.710438) scale(0.1 -0.1)">
       <defs>
        <path id="DejaVuSans-34" d="M 2419 4116 
L 825 1625 
L 2419 1625 
L 2419 4116 
z
M 2253 4666 
L 3047 4666 
L 3047 1625 
L 3713 1625 
L 3713 1100 
L 3047 1100 
L 3047 0 
L 2419 0 
L 2419 1100 
L 313 1100 
L 313 1709 
L 2253 4666 
z
" transform="scale(0.015625)"/>
       </defs>
       <use xlink:href="#DejaVuSans-34"/>
       <use xlink:href="#DejaVuSans-30" x="63.623047"/>
       <use xlink:href="#DejaVuSans-30" x="127.246094"/>
       <use xlink:href="#DejaVuSans-30" x="190.869141"/>
      </g>
     </g>
    </g>
   </g>
   <g id="matplotlib.axis_2">
    <g id="ytick_1">
     <g id="line2d_10">
      <defs>
       <path id="m21b7a51262" d="M 0 0 
L -3.5 0 
" style="stroke: #000000; stroke-width: 0.8"/>
      </defs>
      <g>
       <use xlink:href="#m21b7a51262" x="47.192188" y="257.636765" style="stroke: #000000; stroke-width: 0.8"/>
      </g>
     </g>
     <g id="text_10">
      <!-- −30000 -->
      <g transform="translate(0 261.435983) scale(0.1 -0.1)">
       <defs>
        <path id="DejaVuSans-2212" d="M 678 2272 
L 4684 2272 
L 4684 1741 
L 678 1741 
L 678 2272 
z
" transform="scale(0.015625)"/>
       </defs>
       <use xlink:href="#DejaVuSans-2212"/>
       <use xlink:href="#DejaVuSans-33" x="83.789062"/>
       <use xlink:href="#DejaVuSans-30" x="147.412109"/>
       <use xlink:href="#DejaVuSans-30" x="211.035156"/>
       <use xlink:href="#DejaVuSans-30" x="274.658203"/>
       <use xlink:href="#DejaVuSans-30" x="338.28125"/>
      </g>
     </g>
    </g>
    <g id="ytick_2">
     <g id="line2d_11">
      <g>
       <use xlink:href="#m21b7a51262" x="47.192188" y="224.90522" style="stroke: #000000; stroke-width: 0.8"/>
      </g>
     </g>
     <g id="text_11">
      <!-- −20000 -->
      <g transform="translate(0 228.704439) scale(0.1 -0.1)">
       <use xlink:href="#DejaVuSans-2212"/>
       <use xlink:href="#DejaVuSans-32" x="83.789062"/>
       <use xlink:href="#DejaVuSans-30" x="147.412109"/>
       <use xlink:href="#DejaVuSans-30" x="211.035156"/>
       <use xlink:href="#DejaVuSans-30" x="274.658203"/>
       <use xlink:href="#DejaVuSans-30" x="338.28125"/>
      </g>
     </g>
    </g>
    <g id="ytick_3">
     <g id="line2d_12">
      <g>
       <use xlink:href="#m21b7a51262" x="47.192188" y="192.173676" style="stroke: #000000; stroke-width: 0.8"/>
      </g>
     </g>
     <g id="text_12">
      <!-- −10000 -->
      <g transform="translate(0 195.972894) scale(0.1 -0.1)">
       <use xlink:href="#DejaVuSans-2212"/>
       <use xlink:href="#DejaVuSans-31" x="83.789062"/>
       <use xlink:href="#DejaVuSans-30" x="147.412109"/>
       <use xlink:href="#DejaVuSans-30" x="211.035156"/>
       <use xlink:href="#DejaVuSans-30" x="274.658203"/>
       <use xlink:href="#DejaVuSans-30" x="338.28125"/>
      </g>
     </g>
    </g>
    <g id="ytick_4">
     <g id="line2d_13">
      <g>
       <use xlink:href="#m21b7a51262" x="47.192188" y="159.442131" style="stroke: #000000; stroke-width: 0.8"/>
      </g>
     </g>
     <g id="text_13">
      <!-- 0 -->
      <g transform="translate(33.829688 163.24135) scale(0.1 -0.1)">
       <use xlink:href="#DejaVuSans-30"/>
      </g>
     </g>
    </g>
    <g id="ytick_5">
     <g id="line2d_14">
      <g>
       <use xlink:href="#m21b7a51262" x="47.192188" y="126.710586" style="stroke: #000000; stroke-width: 0.8"/>
      </g>
     </g>
     <g id="text_14">
      <!-- 10000 -->
      <g transform="translate(8.379688 130.509805) scale(0.1 -0.1)">
       <use xlink:href="#DejaVuSans-31"/>
       <use xlink:href="#DejaVuSans-30" x="63.623047"/>
       <use xlink:href="#DejaVuSans-30" x="127.246094"/>
       <use xlink:href="#DejaVuSans-30" x="190.869141"/>
       <use xlink:href="#DejaVuSans-30" x="254.492188"/>
      </g>
     </g>
    </g>
    <g id="ytick_6">
     <g id="line2d_15">
      <g>
       <use xlink:href="#m21b7a51262" x="47.192188" y="93.979042" style="stroke: #000000; stroke-width: 0.8"/>
      </g>
     </g>
     <g id="text_15">
      <!-- 20000 -->
      <g transform="translate(8.379688 97.778261) scale(0.1 -0.1)">
       <use xlink:href="#DejaVuSans-32"/>
       <use xlink:href="#DejaVuSans-30" x="63.623047"/>
       <use xlink:href="#DejaVuSans-30" x="127.246094"/>
       <use xlink:href="#DejaVuSans-30" x="190.869141"/>
       <use xlink:href="#DejaVuSans-30" x="254.492188"/>
      </g>
     </g>
    </g>
    <g id="ytick_7">
     <g id="line2d_16">
      <g>
       <use xlink:href="#m21b7a51262" x="47.192188" y="61.247497" style="stroke: #000000; stroke-width: 0.8"/>
      </g>
     </g>
     <g id="text_16">
      <!-- 30000 -->
      <g transform="translate(8.379688 65.046716) scale(0.1 -0.1)">
       <use xlink:href="#DejaVuSans-33"/>
       <use xlink:href="#DejaVuSans-30" x="63.623047"/>
       <use xlink:href="#DejaVuSans-30" x="127.246094"/>
       <use xlink:href="#DejaVuSans-30" x="190.869141"/>
       <use xlink:href="#DejaVuSans-30" x="254.492188"/>
      </g>
     </g>
    </g>
    <g id="ytick_8">
     <g id="line2d_17">
      <g>
       <use xlink:href="#m21b7a51262" x="47.192188" y="28.515953" style="stroke: #000000; stroke-width: 0.8"/>
      </g>
     </g>
     <g id="text_17">
      <!-- 40000 -->
      <g transform="translate(8.379688 32.315171) scale(0.1 -0.1)">
       <use xlink:href="#DejaVuSans-34"/>
       <use xlink:href="#DejaVuSans-30" x="63.623047"/>
       <use xlink:href="#DejaVuSans-30" x="127.246094"/>
       <use xlink:href="#DejaVuSans-30" x="190.869141"/>
       <use xlink:href="#DejaVuSans-30" x="254.492188"/>
      </g>
     </g>
    </g>
   </g>
   <g id="line2d_18">
    <path d="M 75.092188 159.446326 
L 78.757675 159.432522 
L 80.167478 159.455007 
L 81.577281 159.424893 
L 82.423163 159.462771 
L 83.269044 159.417224 
L 84.114926 159.472558 
L 84.396887 159.409485 
L 84.678847 159.477238 
L 84.960808 159.40428 
L 85.242769 159.483062 
L 85.524729 159.39772 
L 85.80669 159.490508 
L 86.08865 159.389194 
L 86.370611 159.500364 
L 86.652572 159.377671 
L 86.934532 159.514016 
L 87.216493 159.361245 
L 87.498453 159.53415 
L 87.780414 159.336004 
L 88.062374 159.566695 
L 88.344335 159.292508 
L 88.626296 159.627641 
L 88.908256 159.201359 
L 89.190217 159.777611 
L 89.472177 158.91386 
L 89.754138 160.510431 
L 90.036099 154.930596 
L 90.318059 114.404578 
L 90.88198 96.287599 
L 91.163941 95.567792 
L 91.445901 99.142942 
L 92.009823 115.586283 
L 92.855704 146.40895 
L 93.983547 168.003774 
L 94.547468 174.977511 
L 95.111389 177.846239 
L 95.67531 179.274099 
L 95.957271 177.913815 
L 96.521192 174.323547 
L 96.803153 173.410481 
L 97.649034 164.894087 
L 97.930995 164.784723 
L 98.212956 164.901084 
L 98.494916 164.145303 
L 98.776877 162.95583 
L 99.058837 162.7811 
L 99.622758 163.176533 
L 99.904719 162.8349 
L 100.18668 162.978111 
L 101.032561 164.791307 
L 101.314522 164.925051 
L 101.596483 165.673532 
L 102.160404 168.939129 
L 102.442364 169.223068 
L 102.724325 168.768611 
L 103.006286 169.168225 
L 103.570207 171.162387 
L 103.852167 171.326703 
L 104.134128 171.972863 
L 104.98001 177.313487 
L 105.543931 177.938679 
L 106.107852 180.708619 
L 106.671773 181.369612 
L 107.235694 183.705149 
L 107.517655 182.859762 
L 107.799615 179.064646 
L 108.081576 171.699138 
L 108.645497 141.738338 
L 109.209418 108.767063 
L 109.77334 90.821084 
L 110.0553 88.870577 
L 110.337261 92.792211 
L 110.901182 110.434091 
L 111.747064 143.171626 
L 112.592945 160.399627 
L 113.156867 171.432552 
L 113.438827 174.646057 
L 113.720788 176.472149 
L 114.002748 177.086377 
L 114.284709 177.094115 
L 114.56667 176.610157 
L 114.84863 175.471355 
L 115.694512 169.236084 
L 115.976472 168.322234 
L 116.822354 164.262209 
L 117.386275 163.315046 
L 117.668236 163.15965 
L 118.232157 163.651123 
L 118.514118 163.255099 
L 118.796078 163.213132 
L 119.36 164.774893 
L 119.64196 164.769145 
L 119.923921 165.313121 
L 120.487842 169.134995 
L 120.769802 169.314753 
L 121.051763 168.669656 
L 121.333724 168.818179 
L 121.615684 169.858226 
L 121.897645 170.321544 
L 122.461566 169.530852 
L 122.743527 169.719359 
L 123.025487 170.735287 
L 123.589408 174.390564 
L 124.717251 178.662674 
L 125.281172 179.525491 
L 126.127054 183.211778 
L 126.409014 182.99374 
L 126.690975 180.566582 
L 126.972935 172.727772 
L 128.382738 101.647471 
L 128.664699 93.540599 
L 128.946659 91.81566 
L 129.22862 95.884189 
L 129.792541 110.854565 
L 130.920384 149.076226 
L 131.766265 167.025146 
L 132.330186 174.148685 
L 132.612147 175.465495 
L 132.894108 175.668485 
L 133.176068 175.397074 
L 133.458029 174.847611 
L 134.585871 169.237683 
L 134.867832 168.238209 
L 135.431753 165.40935 
L 135.995674 163.99771 
L 136.277635 163.682704 
L 136.559595 163.92022 
L 136.841556 164.460105 
L 137.123516 164.394561 
L 137.405477 163.984626 
L 137.687438 163.998788 
L 138.251359 165.603768 
L 138.533319 165.805066 
L 138.81528 165.594512 
L 139.097241 165.834479 
L 139.661162 166.984575 
L 139.943122 166.585105 
L 140.507043 164.54501 
L 140.789004 164.09369 
L 141.070965 164.380547 
L 142.480768 170.030929 
L 143.044689 172.90059 
L 143.326649 173.774204 
L 144.172531 177.362868 
L 144.454492 177.896829 
L 144.736452 179.301326 
L 145.018413 181.370614 
L 145.300373 182.391882 
L 145.582334 180.264651 
L 145.864295 174.234987 
L 146.146255 163.871976 
L 147.556058 92.862049 
L 147.838019 88.448603 
L 148.119979 88.981596 
L 148.40194 95.3116 
L 149.529782 135.959507 
L 150.093703 149.349555 
L 151.221546 169.220641 
L 151.503506 170.633993 
L 151.785467 170.826029 
L 152.067428 170.411584 
L 152.631349 167.807756 
L 153.47723 163.20001 
L 154.041152 161.025923 
L 154.323112 160.705579 
L 154.605073 161.54945 
L 154.887033 162.89408 
L 155.450955 164.18731 
L 156.014876 167.142787 
L 156.296836 166.726913 
L 156.578797 165.167768 
L 156.860757 164.549245 
L 157.142718 165.291643 
L 157.424679 165.675968 
L 157.706639 165.417523 
L 157.9886 165.562025 
L 158.27056 166.456577 
L 158.552521 166.911008 
L 158.834482 166.82867 
L 159.116442 167.065206 
L 159.680363 168.86421 
L 160.244285 169.735107 
L 160.808206 171.713257 
L 161.372127 175.284259 
L 161.936048 179.229328 
L 162.499969 180.78574 
L 162.78193 182.329908 
L 163.345851 186.185742 
L 163.627812 186.537122 
L 163.909772 186.676589 
L 164.191733 186.527689 
L 164.473693 182.946085 
L 164.755654 172.188625 
L 166.165457 90.215019 
L 166.447417 81.228438 
L 166.729378 78.995466 
L 167.011339 82.127898 
L 167.57526 96.429395 
L 169.267023 159.724094 
L 169.830944 169.603954 
L 170.112905 171.845688 
L 170.394866 173.089406 
L 170.676826 173.258336 
L 171.240747 170.799209 
L 171.804669 167.658124 
L 173.214471 157.73178 
L 173.496432 157.673814 
L 173.778393 157.912069 
L 174.060353 157.7926 
L 174.342314 158.087988 
L 174.624274 159.133277 
L 175.188196 160.197634 
L 175.470156 162.240929 
L 176.034077 167.84255 
L 176.316038 168.530483 
L 176.597999 169.612186 
L 177.16192 173.332908 
L 177.725841 174.419476 
L 178.289762 177.329657 
L 178.853683 178.721925 
L 179.135644 179.499141 
L 179.699565 182.343365 
L 180.263486 184.495805 
L 180.545447 185.393346 
L 181.109368 188.066752 
L 181.95525 190.625762 
L 182.519171 192.644251 
L 182.801131 191.55176 
L 183.083092 186.213369 
L 183.365053 175.053457 
L 184.210934 122.082086 
L 184.774856 89.621471 
L 185.056816 79.164729 
L 185.338777 73.022162 
L 185.620737 71.631413 
L 185.902698 75.500257 
L 186.466619 92.35269 
L 187.03054 115.752097 
L 187.876422 153.413425 
L 188.440343 166.041621 
L 189.286225 176.226343 
L 189.568185 176.937736 
L 190.132107 175.010438 
L 190.414067 173.930431 
L 191.54191 167.811993 
L 191.82387 167.128219 
L 192.387791 167.044668 
L 193.233673 165.27707 
L 193.797594 165.420625 
L 194.079555 165.852329 
L 194.361515 166.887908 
L 194.643476 167.357775 
L 195.207397 166.646114 
L 196.33524 170.155301 
L 196.6172 170.793219 
L 196.899161 171.101538 
L 197.181121 171.688292 
L 198.027003 175.779377 
L 198.308964 178.293323 
L 198.872885 188.605384 
L 199.154845 190.727351 
L 199.436806 190.948424 
L 199.718767 192.415088 
L 200.000727 195.000115 
L 200.282688 195.874143 
L 200.564648 195.17573 
L 200.846609 195.398852 
L 201.12857 197.039303 
L 201.41053 197.388054 
L 201.692491 194.183151 
L 201.974451 186.080017 
L 202.256412 172.051492 
L 203.666215 80.610818 
L 203.948175 71.145076 
L 204.230136 68.037852 
L 204.512097 70.498333 
L 205.076018 81.630564 
L 205.357978 90.268299 
L 205.921899 118.412316 
L 206.485821 148.056216 
L 207.049742 165.478961 
L 207.331702 170.319377 
L 207.613663 172.678141 
L 207.895624 172.939625 
L 208.459545 171.465284 
L 208.741505 169.763945 
L 209.305427 164.206844 
L 209.587387 163.473211 
L 209.869348 163.719264 
L 210.151308 163.353341 
L 210.433269 162.490614 
L 210.715229 162.558652 
L 211.279151 164.243153 
L 211.561111 164.76308 
L 212.688954 168.283354 
L 213.816796 173.890369 
L 214.380717 177.65839 
L 215.226599 182.423082 
L 215.508559 182.045194 
L 215.79052 180.541162 
L 216.072481 179.785969 
L 216.354441 180.489469 
L 216.918362 183.004213 
L 217.482284 187.586183 
L 218.046205 192.215925 
L 218.610126 195.351021 
L 219.456008 202.847036 
L 219.737968 202.652108 
L 220.301889 201.517338 
L 220.58385 197.512462 
L 220.865811 186.593281 
L 221.711692 130.233791 
L 222.275613 88.689148 
L 222.839535 65.614964 
L 223.121495 59.822582 
L 223.403456 56.495301 
L 223.685416 57.360749 
L 223.967377 63.073906 
L 224.531298 85.084901 
L 225.095219 119.29585 
L 225.659141 157.090908 
L 225.941101 169.380074 
L 226.223062 176.434637 
L 226.505022 180.03078 
L 226.786983 181.067623 
L 227.068943 180.410745 
L 227.632865 177.993148 
L 228.196786 173.254351 
L 229.042668 164.599404 
L 229.606589 157.927438 
L 229.888549 156.540196 
L 230.17051 156.267365 
L 230.45247 156.877663 
L 231.016392 159.543815 
L 231.298352 161.574236 
L 232.708155 175.581337 
L 233.554037 181.777923 
L 233.835998 184.874577 
L 234.117958 185.297216 
L 234.399919 183.586181 
L 234.681879 184.011269 
L 235.2458 192.287844 
L 235.527761 193.740031 
L 235.809722 194.49275 
L 236.373643 198.453746 
L 236.937564 199.20239 
L 237.219525 200.533757 
L 237.783446 204.818546 
L 238.347367 210.381148 
L 238.629327 211.85588 
L 238.911288 211.195419 
L 239.193249 205.891746 
L 239.475209 193.301947 
L 241.448933 60.855875 
L 241.730894 52.519608 
L 242.012855 50.735421 
L 242.294815 53.502226 
L 242.576776 58.417691 
L 243.140697 75.146156 
L 243.986579 112.083695 
L 244.83246 163.591467 
L 245.114421 171.137457 
L 245.396382 174.212397 
L 246.242263 179.146163 
L 246.524224 179.382066 
L 246.806184 178.350618 
L 247.370106 175.562987 
L 247.934027 173.526984 
L 248.215987 173.860298 
L 248.497948 174.907353 
L 248.779909 174.598418 
L 249.34383 171.389385 
L 249.62579 171.263006 
L 249.907751 170.477408 
L 250.471672 166.652756 
L 250.753633 167.096805 
L 251.035593 168.397168 
L 251.599514 169.632849 
L 251.881475 171.613202 
L 252.445396 177.224883 
L 253.009317 179.513064 
L 253.855199 184.769675 
L 254.13716 185.674985 
L 254.41912 187.977332 
L 255.546963 204.913847 
L 256.956766 220.431565 
L 257.520687 224.66279 
L 257.802647 223.282736 
L 258.084608 216.21387 
L 258.366569 201.692324 
L 258.93049 153.705149 
L 259.776371 80.165559 
L 260.340293 48.749715 
L 260.622253 43.055803 
L 260.904214 42.844395 
L 261.468135 45.346896 
L 261.750096 49.423237 
L 262.314017 68.461263 
L 262.877938 102.060077 
L 263.441859 145.45904 
L 263.72382 157.525987 
L 264.00578 162.912368 
L 264.569701 167.928265 
L 265.133623 168.762774 
L 265.697544 171.485514 
L 265.979504 170.292503 
L 266.261465 168.193873 
L 266.543425 168.359428 
L 266.825386 170.463031 
L 267.107347 171.55665 
L 267.671268 169.124572 
L 267.953228 169.362222 
L 269.926953 179.933692 
L 270.490874 182.955986 
L 270.772834 184.280545 
L 271.618716 194.953644 
L 271.900677 194.738198 
L 272.182637 194.093936 
L 272.746558 194.730024 
L 273.028519 193.87621 
L 273.31048 193.753984 
L 273.59244 195.629751 
L 274.156361 200.515371 
L 274.720282 205.851689 
L 276.130085 222.877963 
L 276.412046 224.679962 
L 276.694007 222.454034 
L 276.975967 214.63149 
L 277.257928 200.238006 
L 277.821849 153.171042 
L 278.667731 79.402062 
L 279.231652 51.512236 
L 279.513612 46.943888 
L 279.795573 46.932481 
L 280.359494 49.424301 
L 280.641455 52.992715 
L 281.205376 69.125033 
L 281.487337 81.816162 
L 282.051258 124.912728 
L 282.615179 160.895543 
L 282.897139 166.867541 
L 283.461061 171.525119 
L 283.743021 171.869687 
L 284.024982 171.102078 
L 284.306942 171.249219 
L 284.870864 174.506157 
L 285.152824 173.774017 
L 285.716745 170.00983 
L 286.280667 168.10734 
L 286.562627 166.709153 
L 286.844588 165.936993 
L 287.126548 166.14135 
L 287.408509 167.240004 
L 287.97243 170.652497 
L 288.254391 171.187092 
L 288.536351 170.756867 
L 288.818312 170.961026 
L 289.664194 176.52461 
L 289.946154 179.052461 
L 290.792036 190.782688 
L 291.073996 192.521558 
L 291.355957 195.090055 
L 291.919878 202.465327 
L 292.201839 204.534983 
L 292.76576 207.075489 
L 293.329681 212.364136 
L 293.893602 220.334578 
L 294.739484 233.222189 
L 295.021445 236.313916 
L 295.303405 237.739679 
L 295.585366 235.005256 
L 295.867326 225.031513 
L 296.431248 180.434881 
L 297.55909 74.618344 
L 297.841051 57.867719 
L 298.123011 48.234876 
L 298.404972 43.814824 
L 298.968893 38.306021 
L 299.250853 35.18338 
L 299.532814 34.844889 
L 299.814775 39.77842 
L 300.378696 61.856787 
L 300.942617 103.044907 
L 301.506538 150.586095 
L 301.788499 161.555266 
L 302.35242 168.652866 
L 302.634381 171.408594 
L 302.916341 172.876818 
L 303.198302 173.383706 
L 303.480262 174.553699 
L 304.044183 178.490975 
L 304.326144 178.37088 
L 304.608105 177.516144 
L 305.172026 177.722648 
L 305.453986 176.430446 
L 305.735947 174.239016 
L 306.017908 173.322738 
L 306.299868 173.339923 
L 306.581829 172.270886 
L 306.863789 170.339696 
L 307.14575 170.464652 
L 307.991632 178.984494 
L 309.401435 188.540183 
L 309.965356 194.536952 
L 310.247316 196.491983 
L 310.529277 199.402526 
L 311.093198 207.906988 
L 311.93908 215.607552 
L 312.503001 225.607401 
L 313.066922 232.170266 
L 313.630843 242.729907 
L 313.912804 244.500477 
L 314.194765 242.156907 
L 314.476725 235.33133 
L 314.758686 220.317496 
L 315.322607 164.032573 
L 316.168489 81.472162 
L 316.450449 60.903033 
L 316.73241 48.63496 
L 317.578292 27.05601 
L 317.860252 23.588995 
L 318.142213 23.848221 
L 318.424173 25.654561 
L 318.706134 30.566744 
L 318.988095 42.03583 
L 319.552016 77.625713 
L 320.679858 164.761895 
L 320.961819 169.551586 
L 321.243779 170.098683 
L 321.8077 172.616925 
L 322.089661 172.031836 
L 322.371622 170.948512 
L 322.653582 170.707835 
L 322.935543 170.74629 
L 323.217503 170.282063 
L 323.499464 170.09123 
L 323.781424 170.660576 
L 324.345346 172.955368 
L 324.909267 175.568387 
L 325.755149 178.173781 
L 326.31907 181.481941 
L 328.010833 194.962967 
L 328.292794 196.155935 
L 328.574754 196.007865 
L 328.856715 196.17874 
L 329.138676 197.845018 
L 329.984557 205.908631 
L 331.1124 220.120858 
L 332.240242 236.109354 
L 332.804163 244.387036 
L 333.086124 244.911644 
L 333.368084 240.320272 
L 333.650045 227.274357 
L 334.213966 176.498465 
L 335.341809 63.715725 
L 335.90573 39.192132 
L 336.469651 23.860923 
L 336.751611 21.337076 
L 337.033572 22.246308 
L 337.315533 25.76679 
L 337.597493 32.26258 
L 338.161414 54.827798 
L 338.725336 97.497144 
L 339.289257 150.163154 
L 339.571217 167.937115 
L 339.853178 176.538814 
L 340.135138 177.781531 
L 340.417099 176.654661 
L 340.69906 176.962453 
L 340.98102 178.343235 
L 341.262981 178.304189 
L 341.544941 177.04526 
L 341.826902 176.397668 
L 342.108863 176.443617 
L 342.390823 175.446273 
L 342.954744 171.698816 
L 343.236705 170.46471 
L 344.082587 165.313973 
L 344.364547 166.216249 
L 345.210429 172.689781 
L 345.77435 178.60563 
L 346.338271 184.508594 
L 347.184153 190.724486 
L 348.030035 197.62052 
L 348.875917 209.009883 
L 349.439838 214.068644 
L 350.56768 227.280599 
L 351.413562 239.925759 
L 351.695523 244.186287 
L 351.977483 246.563999 
L 352.259444 243.22878 
L 352.541404 231.745836 
L 353.105325 186.823882 
L 354.233168 70.313954 
L 354.797089 38.802859 
L 355.36101 17.191462 
L 355.642971 12.096 
L 355.924931 13.506929 
L 356.488852 24.676118 
L 356.770813 33.019878 
L 357.334734 63.994617 
L 357.898655 112.679175 
L 358.462577 162.661468 
L 358.744537 174.861848 
L 359.026498 179.423249 
L 359.87238 185.498702 
L 360.15434 186.68586 
L 360.436301 187.148064 
L 360.718261 186.252395 
L 361.564143 178.458427 
L 362.410025 174.777737 
L 363.255907 172.402375 
L 363.537867 172.171696 
L 363.819828 172.191707 
L 364.101788 171.989334 
L 364.383749 172.023713 
L 364.665709 173.715732 
L 365.511591 181.795846 
L 366.357473 191.182827 
L 366.921394 192.458804 
L 367.203355 194.427877 
L 368.049237 205.853494 
L 368.613158 216.505084 
L 369.177079 228.009153 
L 370.304921 243.699385 
L 370.586882 245.69057 
L 370.868842 245.466933 
L 371.150803 242.237116 
L 371.432764 233.034797 
L 371.714724 214.403815 
L 372.560606 120.898009 
L 373.124527 64.82012 
L 373.688448 31.057029 
L 373.970409 21.517849 
L 374.252369 16.580894 
L 374.53433 15.876272 
L 374.816291 17.93798 
L 375.098251 21.094049 
L 375.380212 25.748304 
L 375.662172 33.445726 
L 376.226094 59.023235 
L 376.790015 98.44595 
L 377.635896 169.669231 
L 377.917857 178.019815 
L 378.199818 180.137657 
L 378.763739 181.484206 
L 379.045699 180.915289 
L 379.891581 173.911079 
L 380.173542 173.113252 
L 380.455502 173.039821 
L 380.737463 173.414236 
L 381.301384 174.686353 
L 381.583345 175.027469 
L 381.865305 175.691458 
L 382.711187 179.165124 
L 382.993148 180.159518 
L 383.557069 184.263384 
L 384.12099 189.604005 
L 384.684911 195.630647 
L 385.248832 198.602295 
L 386.094714 203.247772 
L 386.376675 204.986332 
L 386.658635 207.80905 
L 387.222556 215.566475 
L 387.504517 217.826225 
L 387.786478 219.147147 
L 388.068438 221.124914 
L 388.91432 229.791411 
L 389.19628 232.557497 
L 389.760202 241.614828 
L 390.042162 243.042751 
L 390.324123 237.566196 
L 390.606083 223.359955 
L 391.170005 168.51873 
L 392.015886 68.21655 
L 392.579808 30.98798 
L 392.861768 21.2115 
L 393.143729 16.758032 
L 393.425689 16.582025 
L 393.70765 18.601085 
L 393.98961 21.803094 
L 394.271571 26.640116 
L 394.835492 44.50458 
L 395.399413 72.964944 
L 395.963335 117.582556 
L 396.527256 166.913583 
L 396.809216 181.241502 
L 397.091177 187.61448 
L 397.373137 189.453819 
L 397.655098 189.2863 
L 398.50098 186.569073 
L 398.78294 184.654401 
L 400.192743 166.809971 
L 400.474704 165.64246 
L 400.756665 166.52567 
L 401.884507 177.758132 
L 402.166467 177.93502 
L 402.448428 178.88199 
L 402.730389 180.42815 
L 403.012349 181.16998 
L 403.29431 181.096036 
L 403.57627 182.367215 
L 404.704113 196.131882 
L 405.549994 210.847715 
L 406.395876 220.33044 
L 406.677837 222.046239 
L 406.959797 222.948331 
L 407.241758 224.597446 
L 408.651561 241.460094 
L 408.933522 242.821952 
L 409.215482 237.953635 
L 409.497443 224.093845 
L 410.061364 172.293703 
L 410.907246 69.508106 
L 411.471167 34.116189 
L 411.753127 24.391995 
L 412.035088 19.132121 
L 412.317049 17.968219 
L 412.599009 18.951341 
L 412.88097 21.329619 
L 413.16293 26.456778 
L 413.726851 42.396941 
L 414.008812 52.548695 
L 414.290773 68.384681 
L 415.700576 181.464436 
L 415.982536 189.947833 
L 416.264497 191.637727 
L 417.392339 185.846643 
L 417.95626 180.729699 
L 418.520181 177.660782 
L 418.802142 175.403311 
L 419.084103 174.044885 
L 419.366063 174.635141 
L 419.648024 175.569768 
L 419.929984 175.257783 
L 420.211945 174.439468 
L 420.493906 175.009553 
L 421.339787 179.808182 
L 421.903708 182.571999 
L 422.46763 183.958849 
L 423.031551 186.252608 
L 423.313511 186.687858 
L 423.595472 187.770224 
L 424.159393 195.242303 
L 425.851157 218.696501 
L 426.697038 229.360662 
L 427.26096 237.472617 
L 427.54292 240.480728 
L 427.824881 244.763817 
L 428.106841 247.131708 
L 428.388802 241.237216 
L 428.670763 224.546525 
L 429.234684 167.82468 
L 430.080565 59.490035 
L 430.644487 26.613503 
L 430.926447 18.038414 
L 431.208408 14.471967 
L 431.490368 15.724845 
L 432.05429 21.351158 
L 432.33625 25.901975 
L 432.900171 43.079765 
L 433.464093 68.31108 
L 434.309974 133.677289 
L 434.873895 175.179676 
L 435.155856 187.706105 
L 435.437817 191.657889 
L 435.719777 189.849279 
L 436.283698 184.051796 
L 436.565659 182.538034 
L 437.411541 180.52376 
L 437.693501 179.0863 
L 437.975462 178.322574 
L 438.257422 178.374663 
L 438.539383 178.311322 
L 438.821344 177.776573 
L 439.103304 178.346707 
L 439.949186 187.175473 
L 440.231147 188.14059 
L 440.513107 189.543003 
L 440.795068 191.628343 
L 441.077028 192.045741 
L 441.64095 188.755178 
L 441.92291 189.760889 
L 442.204871 191.456958 
L 442.486831 191.868839 
L 442.768792 192.02735 
L 443.050752 194.034199 
L 445.306437 222.535004 
L 446.434279 241.160818 
L 446.998201 248.1614 
L 447.280161 246.231549 
L 447.562122 236.785535 
L 447.844082 218.258915 
L 448.408004 153.843124 
L 448.971925 75.563425 
L 449.535846 31.424673 
L 450.099767 15.544902 
L 450.381728 13.573751 
L 450.663688 16.28324 
L 451.791531 40.394927 
L 452.355452 61.653097 
L 452.919373 92.168473 
L 454.329176 189.234494 
L 454.611136 194.127953 
L 454.893097 192.776875 
L 455.175058 190.204117 
L 455.738979 186.867429 
L 457.430742 171.415368 
L 457.994663 172.934693 
L 458.276624 172.843679 
L 458.558585 172.964863 
L 458.840545 174.255735 
L 460.532309 188.110724 
L 461.09623 194.48652 
L 461.378191 196.158862 
L 462.224072 204.523751 
L 462.787993 205.394725 
L 463.633875 211.549544 
L 464.197796 216.012646 
L 464.761718 222.382475 
L 465.325639 229.911757 
L 465.607599 232.39599 
L 465.88956 236.912062 
L 466.17152 243.396951 
L 466.453481 246.248165 
L 466.735442 240.747902 
L 467.017402 226.476244 
L 467.299363 203.223463 
L 468.709166 40.512479 
L 468.991126 27.495756 
L 469.273087 20.227323 
L 469.555048 18.038869 
L 469.837008 18.816627 
L 470.118969 21.479948 
L 470.68289 32.406041 
L 471.246811 48.540462 
L 471.810732 72.721623 
L 472.374653 107.518488 
L 473.220535 169.916137 
L 473.784456 194.966309 
L 474.066417 200.253995 
L 474.348377 200.270533 
L 474.912299 196.797654 
L 475.194259 195.860127 
L 475.47622 193.109856 
L 476.040141 185.289529 
L 476.604062 181.2694 
L 477.167983 178.739813 
L 477.449944 176.342272 
L 478.013865 169.471585 
L 478.295826 169.895896 
L 478.577786 171.301299 
L 478.859747 171.014497 
L 479.141707 171.176453 
L 479.423668 174.86309 
L 479.987589 184.86389 
L 480.833471 190.697263 
L 481.397392 192.465335 
L 481.961313 197.422271 
L 482.525234 203.444049 
L 483.089156 212.172138 
L 484.216998 225.108964 
L 485.34484 241.187002 
L 485.626801 244.024524 
L 485.908762 242.836465 
L 486.190722 233.701094 
L 486.472683 214.913501 
L 487.036604 147.318752 
L 487.600525 68.497684 
L 487.882486 45.342217 
L 488.446407 23.132787 
L 488.728367 18.058131 
L 489.010328 19.301665 
L 489.574249 28.980557 
L 489.85621 32.226403 
L 490.13817 37.845355 
L 491.266013 76.994092 
L 491.829934 109.879334 
L 492.957776 179.228 
L 493.239737 188.870833 
L 493.521697 192.416875 
L 493.803658 192.329044 
L 494.085619 191.795919 
L 494.367579 191.511169 
L 494.64954 189.994987 
L 495.213461 184.965782 
L 495.495421 184.175748 
L 495.777382 183.863256 
L 496.059343 183.111085 
L 496.905224 180.233848 
L 497.187185 179.954492 
L 497.751106 180.959947 
L 498.033067 180.930115 
L 498.315027 181.123472 
L 498.596988 182.753756 
L 499.160909 186.978241 
L 499.44287 187.390135 
L 499.72483 188.435231 
L 500.288751 193.666443 
L 500.570712 194.796366 
L 500.852673 195.411649 
L 501.134633 197.234905 
L 501.980515 206.561091 
L 504.2362 238.374313 
L 504.800121 248.778758 
L 505.082081 247.770642 
L 505.364042 238.748315 
L 505.646003 220.498767 
L 506.209924 150.143784 
L 506.773845 72.741099 
L 507.337766 35.795272 
L 507.619727 26.991135 
L 507.901687 23.000606 
L 508.183648 22.354409 
L 508.465608 23.179883 
L 508.747569 25.502433 
L 509.31149 36.151132 
L 509.875411 49.836446 
L 510.439333 73.435001 
L 511.285214 118.644893 
L 512.413057 182.407841 
L 512.695017 189.393623 
L 512.976978 191.689654 
L 513.258938 191.302301 
L 513.540899 189.101573 
L 514.386781 178.919651 
L 514.668741 178.505232 
L 515.232662 179.721071 
L 515.514623 180.469045 
L 516.360505 184.484247 
L 516.642465 185.008471 
L 516.924426 185.82157 
L 518.334229 193.304517 
L 518.89815 198.047092 
L 519.180111 199.442911 
L 519.462071 199.865848 
L 519.744032 199.588995 
L 520.025992 199.111791 
L 520.307953 199.604284 
L 520.589914 201.916061 
L 521.717756 215.846146 
L 523.409519 237.856196 
L 523.973441 244.784947 
L 524.255401 243.029877 
L 524.537362 232.612238 
L 524.819322 211.252061 
L 525.383244 136.873044 
L 525.947165 62.48667 
L 526.229125 42.541581 
L 526.793047 23.307305 
L 527.075007 20.301595 
L 527.356968 22.633822 
L 527.920889 30.650962 
L 528.202849 34.092689 
L 528.766771 48.517802 
L 529.330692 66.668179 
L 529.894613 94.966166 
L 531.304416 177.363679 
L 531.586376 186.978674 
L 531.868337 192.224278 
L 532.150298 194.151137 
L 532.432258 193.622504 
L 532.996179 188.768355 
L 534.124022 179.679573 
L 534.687943 175.627688 
L 535.251864 173.017996 
L 535.533825 173.958842 
L 536.097746 178.518594 
L 536.379706 179.126555 
L 536.661667 180.527147 
L 537.507549 189.089901 
L 537.789509 190.495479 
L 538.353431 195.470714 
L 539.199312 204.403543 
L 540.327155 216.898439 
L 540.891076 218.177784 
L 541.173036 219.952383 
L 542.018918 230.467949 
L 542.582839 240.369277 
L 542.8648 245.72691 
L 543.146761 247.240524 
L 543.428721 241.527161 
L 543.710682 226.408034 
L 543.992642 200.143279 
L 545.120485 56.265665 
L 545.684406 29.48295 
L 545.966366 23.172107 
L 546.248327 21.586815 
L 546.530288 23.893967 
L 547.376169 38.020127 
L 547.65813 43.538052 
L 548.222051 61.098749 
L 548.785972 83.506665 
L 550.759696 182.402927 
L 551.041657 188.379801 
L 551.323618 191.102912 
L 551.605578 191.806059 
L 551.887539 191.082288 
L 552.73342 186.150696 
L 553.297342 184.228385 
L 553.579302 183.341407 
L 554.425184 177.024454 
L 554.707145 177.052397 
L 555.553026 180.047135 
L 557.52675 191.24425 
L 558.090672 197.421417 
L 558.936553 207.935168 
L 559.500475 215.504244 
L 560.346356 223.334505 
L 561.756159 244.737412 
L 562.03812 249.806309 
L 562.32008 250.283944 
L 562.602041 244.669175 
L 562.884002 230.735038 
L 563.165962 203.823366 
L 564.011844 84.000104 
L 564.575765 45.372808 
L 564.857726 36.11124 
L 565.139686 31.923251 
L 565.703607 28.502332 
L 565.985568 28.81129 
L 566.267529 32.889955 
L 567.11341 50.940957 
L 567.959292 82.951496 
L 568.523213 107.611997 
L 569.651056 161.521056 
L 569.933016 170.059059 
L 570.214977 174.685898 
L 571.060859 182.17885 
L 571.342819 183.891109 
L 571.62478 184.578559 
L 571.90674 184.548088 
L 572.188701 184.396554 
L 572.470661 184.405074 
L 572.752622 184.526729 
L 573.034583 184.229358 
L 573.598504 182.919525 
L 573.880464 183.344558 
L 574.726346 187.09407 
L 575.290267 191.413556 
L 575.854189 195.592276 
L 576.136149 196.043888 
L 576.41811 195.92665 
L 576.70007 196.756267 
L 578.109873 208.959617 
L 578.673794 215.619284 
L 579.237716 219.686405 
L 580.647518 237.100455 
L 581.21144 244.889684 
L 581.4934 244.85398 
L 581.775361 239.158456 
L 582.057321 222.263858 
L 582.621243 148.823408 
L 583.185164 75.387796 
L 583.467124 54.301273 
L 583.749085 41.712812 
L 584.031046 35.04322 
L 584.313006 32.312106 
L 584.594967 32.037581 
L 584.876927 33.35413 
L 585.158888 36.120887 
L 585.722809 45.008535 
L 586.28673 58.848147 
L 587.132612 88.931385 
L 588.824375 160.528043 
L 589.388297 172.233643 
L 589.670257 173.607549 
L 589.952218 173.533862 
L 590.234178 174.411838 
L 590.516139 175.684848 
L 590.7981 174.959951 
L 591.08006 172.233282 
L 591.362021 170.78696 
L 591.643981 172.41701 
L 591.925942 174.990723 
L 592.207903 175.650843 
L 592.489863 175.119024 
L 592.771824 175.949251 
L 593.335745 180.315271 
L 593.617705 181.373223 
L 593.899666 183.675366 
L 594.463587 192.013168 
L 595.87339 204.660935 
L 596.719272 211.354673 
L 597.001232 211.960654 
L 597.283193 213.228139 
L 598.129075 221.78766 
L 599.256917 233.858742 
L 599.820838 240.856257 
L 600.38476 245.922628 
L 600.66672 246.392395 
L 600.948681 241.032182 
L 601.230641 224.971812 
L 601.794562 154.13777 
L 602.358484 76.604035 
L 602.640444 54.590868 
L 602.922405 42.410484 
L 603.204365 36.559731 
L 603.486326 34.935123 
L 603.768287 35.501215 
L 604.050247 36.642877 
L 604.332208 38.880167 
L 604.896129 48.159722 
L 605.46005 60.878445 
L 606.305932 93.947193 
L 607.715735 152.346519 
L 608.279656 166.432253 
L 608.561617 170.851851 
L 608.843577 173.381761 
L 609.407498 175.353502 
L 609.689459 176.137775 
L 609.971419 175.774303 
L 611.099262 169.169526 
L 611.381222 168.528199 
L 611.663183 169.404661 
L 613.354946 183.260965 
L 616.174552 211.984902 
L 616.738474 220.098123 
L 617.020434 222.655574 
L 617.584355 224.514192 
L 618.430237 234.526173 
L 618.712198 237.920321 
L 619.558079 254.016 
L 619.84004 250.650839 
L 620.122001 239.144559 
L 620.403961 215.050207 
L 621.531803 71.24145 
L 622.095725 46.854704 
L 622.377685 42.073893 
L 622.659646 41.494293 
L 623.223567 43.194065 
L 623.505528 46.023876 
L 624.069449 57.713556 
L 624.915331 80.203237 
L 626.889055 152.164496 
L 627.452976 161.585677 
L 628.016897 167.349679 
L 628.298858 167.971998 
L 628.580818 167.475793 
L 629.990621 162.979901 
L 630.272582 162.7695 
L 631.118463 166.729504 
L 631.400424 167.223536 
L 631.682385 168.89209 
L 632.246306 175.730533 
L 632.810227 183.799452 
L 633.092188 184.458863 
L 633.092188 184.458863 
" clip-path="url(#p6768963370)" style="fill: none; stroke: #1f77b4; stroke-width: 1.5; stroke-linecap: square"/>
   </g>
   <g id="patch_3">
    <path d="M 47.192188 266.112 
L 47.192188 0 
" style="fill: none; stroke: #000000; stroke-width: 0.8; stroke-linejoin: miter; stroke-linecap: square"/>
   </g>
   <g id="patch_4">
    <path d="M 660.992188 266.112 
L 660.992188 0 
" style="fill: none; stroke: #000000; stroke-width: 0.8; stroke-linejoin: miter; stroke-linecap: square"/>
   </g>
   <g id="patch_5">
    <path d="M 47.192188 266.112 
L 660.992188 266.112 
" style="fill: none; stroke: #000000; stroke-width: 0.8; stroke-linejoin: miter; stroke-linecap: square"/>
   </g>
   <g id="patch_6">
    <path d="M 47.192188 0 
L 660.992188 0 
" style="fill: none; stroke: #000000; stroke-width: 0.8; stroke-linejoin: miter; stroke-linecap: square"/>
   </g>
  </g>
 </g>
 <defs>
  <clipPath id="p6768963370">
   <rect x="47.192188" y="0" width="613.8" height="266.112"/>
  </clipPath>
 </defs>
</svg>
