<?xml version="1.0" encoding="utf-8" standalone="no"?>
<!DOCTYPE svg PUBLIC "-//W3C//DTD SVG 1.1//EN"
  "http://www.w3.org/Graphics/SVG/1.1/DTD/svg11.dtd">
<svg xmlns:xlink="http://www.w3.org/1999/xlink" width="660.992188pt" height="282.790125pt" viewBox="0 0 660.992188 282.790125" xmlns="http://www.w3.org/2000/svg" version="1.1">
 <metadata>
  <rdf:RDF xmlns:dc="http://purl.org/dc/elements/1.1/" xmlns:cc="http://creativecommons.org/ns#" xmlns:rdf="http://www.w3.org/1999/02/22-rdf-syntax-ns#">
   <cc:Work>
    <dc:type rdf:resource="http://purl.org/dc/dcmitype/StillImage"/>
    <dc:date>2023-03-06T19:30:28.460284</dc:date>
    <dc:format>image/svg+xml</dc:format>
    <dc:creator>
     <cc:Agent>
      <dc:title>Matplotlib v3.6.3, https://matplotlib.org/</dc:title>
     </cc:Agent>
    </dc:creator>
   </cc:Work>
  </rdf:RDF>
 </metadata>
 <defs>
  <style type="text/css">*{stroke-linejoin: round; stroke-linecap: butt}</style>
 </defs>
 <g id="figure_1">
  <g id="patch_1">
   <path d="M -0 282.790125 
L 660.992188 282.790125 
L 660.992188 0 
L -0 0 
L -0 282.790125 
z
" style="fill: none"/>
  </g>
  <g id="axes_1">
   <g id="patch_2">
    <path d="M 47.192188 266.112 
L 660.992188 266.112 
L 660.992188 0 
L 47.192188 0 
L 47.192188 266.112 
z
" style="fill: none"/>
   </g>
   <g id="matplotlib.axis_1">
    <g id="xtick_1">
     <g id="line2d_1">
      <defs>
       <path id="m235898a444" d="M 0 0 
L 0 3.5 
" style="stroke: #000000; stroke-width: 0.8"/>
      </defs>
      <g>
       <use xlink:href="#m235898a444" x="75.092188" y="266.112" style="stroke: #000000; stroke-width: 0.8"/>
      </g>
     </g>
     <g id="text_1">
      <!-- 0 -->
      <g transform="translate(71.910938 280.710438) scale(0.1 -0.1)">
       <defs>
        <path id="DejaVuSans-30" d="M 2034 4250 
Q 1547 4250 1301 3770 
Q 1056 3291 1056 2328 
Q 1056 1369 1301 889 
Q 1547 409 2034 409 
Q 2525 409 2770 889 
Q 3016 1369 3016 2328 
Q 3016 3291 2770 3770 
Q 2525 4250 2034 4250 
z
M 2034 4750 
Q 2819 4750 3233 4129 
Q 3647 3509 3647 2328 
Q 3647 1150 3233 529 
Q 2819 -91 2034 -91 
Q 1250 -91 836 529 
Q 422 1150 422 2328 
Q 422 3509 836 4129 
Q 1250 4750 2034 4750 
z
" transform="scale(0.015625)"/>
       </defs>
       <use xlink:href="#DejaVuSans-30"/>
      </g>
     </g>
    </g>
    <g id="xtick_2">
     <g id="line2d_2">
      <g>
       <use xlink:href="#m235898a444" x="144.842188" y="266.112" style="stroke: #000000; stroke-width: 0.8"/>
      </g>
     </g>
     <g id="text_2">
      <!-- 500 -->
      <g transform="translate(135.298438 280.710438) scale(0.1 -0.1)">
       <defs>
        <path id="DejaVuSans-35" d="M 691 4666 
L 3169 4666 
L 3169 4134 
L 1269 4134 
L 1269 2991 
Q 1406 3038 1543 3061 
Q 1681 3084 1819 3084 
Q 2600 3084 3056 2656 
Q 3513 2228 3513 1497 
Q 3513 744 3044 326 
Q 2575 -91 1722 -91 
Q 1428 -91 1123 -41 
Q 819 9 494 109 
L 494 744 
Q 775 591 1075 516 
Q 1375 441 1709 441 
Q 2250 441 2565 725 
Q 2881 1009 2881 1497 
Q 2881 1984 2565 2268 
Q 2250 2553 1709 2553 
Q 1456 2553 1204 2497 
Q 953 2441 691 2322 
L 691 4666 
z
" transform="scale(0.015625)"/>
       </defs>
       <use xlink:href="#DejaVuSans-35"/>
       <use xlink:href="#DejaVuSans-30" x="63.623047"/>
       <use xlink:href="#DejaVuSans-30" x="127.246094"/>
      </g>
     </g>
    </g>
    <g id="xtick_3">
     <g id="line2d_3">
      <g>
       <use xlink:href="#m235898a444" x="214.592188" y="266.112" style="stroke: #000000; stroke-width: 0.8"/>
      </g>
     </g>
     <g id="text_3">
      <!-- 1000 -->
      <g transform="translate(201.867188 280.710438) scale(0.1 -0.1)">
       <defs>
        <path id="DejaVuSans-31" d="M 794 531 
L 1825 531 
L 1825 4091 
L 703 3866 
L 703 4441 
L 1819 4666 
L 2450 4666 
L 2450 531 
L 3481 531 
L 3481 0 
L 794 0 
L 794 531 
z
" transform="scale(0.015625)"/>
       </defs>
       <use xlink:href="#DejaVuSans-31"/>
       <use xlink:href="#DejaVuSans-30" x="63.623047"/>
       <use xlink:href="#DejaVuSans-30" x="127.246094"/>
       <use xlink:href="#DejaVuSans-30" x="190.869141"/>
      </g>
     </g>
    </g>
    <g id="xtick_4">
     <g id="line2d_4">
      <g>
       <use xlink:href="#m235898a444" x="284.342188" y="266.112" style="stroke: #000000; stroke-width: 0.8"/>
      </g>
     </g>
     <g id="text_4">
      <!-- 1500 -->
      <g transform="translate(271.617188 280.710438) scale(0.1 -0.1)">
       <use xlink:href="#DejaVuSans-31"/>
       <use xlink:href="#DejaVuSans-35" x="63.623047"/>
       <use xlink:href="#DejaVuSans-30" x="127.246094"/>
       <use xlink:href="#DejaVuSans-30" x="190.869141"/>
      </g>
     </g>
    </g>
    <g id="xtick_5">
     <g id="line2d_5">
      <g>
       <use xlink:href="#m235898a444" x="354.092188" y="266.112" style="stroke: #000000; stroke-width: 0.8"/>
      </g>
     </g>
     <g id="text_5">
      <!-- 2000 -->
      <g transform="translate(341.367188 280.710438) scale(0.1 -0.1)">
       <defs>
        <path id="DejaVuSans-32" d="M 1228 531 
L 3431 531 
L 3431 0 
L 469 0 
L 469 531 
Q 828 903 1448 1529 
Q 2069 2156 2228 2338 
Q 2531 2678 2651 2914 
Q 2772 3150 2772 3378 
Q 2772 3750 2511 3984 
Q 2250 4219 1831 4219 
Q 1534 4219 1204 4116 
Q 875 4013 500 3803 
L 500 4441 
Q 881 4594 1212 4672 
Q 1544 4750 1819 4750 
Q 2544 4750 2975 4387 
Q 3406 4025 3406 3419 
Q 3406 3131 3298 2873 
Q 3191 2616 2906 2266 
Q 2828 2175 2409 1742 
Q 1991 1309 1228 531 
z
" transform="scale(0.015625)"/>
       </defs>
       <use xlink:href="#DejaVuSans-32"/>
       <use xlink:href="#DejaVuSans-30" x="63.623047"/>
       <use xlink:href="#DejaVuSans-30" x="127.246094"/>
       <use xlink:href="#DejaVuSans-30" x="190.869141"/>
      </g>
     </g>
    </g>
    <g id="xtick_6">
     <g id="line2d_6">
      <g>
       <use xlink:href="#m235898a444" x="423.842188" y="266.112" style="stroke: #000000; stroke-width: 0.8"/>
      </g>
     </g>
     <g id="text_6">
      <!-- 2500 -->
      <g transform="translate(411.117188 280.710438) scale(0.1 -0.1)">
       <use xlink:href="#DejaVuSans-32"/>
       <use xlink:href="#DejaVuSans-35" x="63.623047"/>
       <use xlink:href="#DejaVuSans-30" x="127.246094"/>
       <use xlink:href="#DejaVuSans-30" x="190.869141"/>
      </g>
     </g>
    </g>
    <g id="xtick_7">
     <g id="line2d_7">
      <g>
       <use xlink:href="#m235898a444" x="493.592188" y="266.112" style="stroke: #000000; stroke-width: 0.8"/>
      </g>
     </g>
     <g id="text_7">
      <!-- 3000 -->
      <g transform="translate(480.867188 280.710438) scale(0.1 -0.1)">
       <defs>
        <path id="DejaVuSans-33" d="M 2597 2516 
Q 3050 2419 3304 2112 
Q 3559 1806 3559 1356 
Q 3559 666 3084 287 
Q 2609 -91 1734 -91 
Q 1441 -91 1130 -33 
Q 819 25 488 141 
L 488 750 
Q 750 597 1062 519 
Q 1375 441 1716 441 
Q 2309 441 2620 675 
Q 2931 909 2931 1356 
Q 2931 1769 2642 2001 
Q 2353 2234 1838 2234 
L 1294 2234 
L 1294 2753 
L 1863 2753 
Q 2328 2753 2575 2939 
Q 2822 3125 2822 3475 
Q 2822 3834 2567 4026 
Q 2313 4219 1838 4219 
Q 1578 4219 1281 4162 
Q 984 4106 628 3988 
L 628 4550 
Q 988 4650 1302 4700 
Q 1616 4750 1894 4750 
Q 2613 4750 3031 4423 
Q 3450 4097 3450 3541 
Q 3450 3153 3228 2886 
Q 3006 2619 2597 2516 
z
" transform="scale(0.015625)"/>
       </defs>
       <use xlink:href="#DejaVuSans-33"/>
       <use xlink:href="#DejaVuSans-30" x="63.623047"/>
       <use xlink:href="#DejaVuSans-30" x="127.246094"/>
       <use xlink:href="#DejaVuSans-30" x="190.869141"/>
      </g>
     </g>
    </g>
    <g id="xtick_8">
     <g id="line2d_8">
      <g>
       <use xlink:href="#m235898a444" x="563.342188" y="266.112" style="stroke: #000000; stroke-width: 0.8"/>
      </g>
     </g>
     <g id="text_8">
      <!-- 3500 -->
      <g transform="translate(550.617188 280.710438) scale(0.1 -0.1)">
       <use xlink:href="#DejaVuSans-33"/>
       <use xlink:href="#DejaVuSans-35" x="63.623047"/>
       <use xlink:href="#DejaVuSans-30" x="127.246094"/>
       <use xlink:href="#DejaVuSans-30" x="190.869141"/>
      </g>
     </g>
    </g>
    <g id="xtick_9">
     <g id="line2d_9">
      <g>
       <use xlink:href="#m235898a444" x="633.092188" y="266.112" style="stroke: #000000; stroke-width: 0.8"/>
      </g>
     </g>
     <g id="text_9">
      <!-- 4000 -->
      <g transform="translate(620.367188 280.710438) scale(0.1 -0.1)">
       <defs>
        <path id="DejaVuSans-34" d="M 2419 4116 
L 825 1625 
L 2419 1625 
L 2419 4116 
z
M 2253 4666 
L 3047 4666 
L 3047 1625 
L 3713 1625 
L 3713 1100 
L 3047 1100 
L 3047 0 
L 2419 0 
L 2419 1100 
L 313 1100 
L 313 1709 
L 2253 4666 
z
" transform="scale(0.015625)"/>
       </defs>
       <use xlink:href="#DejaVuSans-34"/>
       <use xlink:href="#DejaVuSans-30" x="63.623047"/>
       <use xlink:href="#DejaVuSans-30" x="127.246094"/>
       <use xlink:href="#DejaVuSans-30" x="190.869141"/>
      </g>
     </g>
    </g>
   </g>
   <g id="matplotlib.axis_2">
    <g id="ytick_1">
     <g id="line2d_10">
      <defs>
       <path id="m11208a3301" d="M 0 0 
L -3.5 0 
" style="stroke: #000000; stroke-width: 0.8"/>
      </defs>
      <g>
       <use xlink:href="#m11208a3301" x="47.192188" y="245.269472" style="stroke: #000000; stroke-width: 0.8"/>
      </g>
     </g>
     <g id="text_10">
      <!-- −10000 -->
      <g transform="translate(0 249.068691) scale(0.1 -0.1)">
       <defs>
        <path id="DejaVuSans-2212" d="M 678 2272 
L 4684 2272 
L 4684 1741 
L 678 1741 
L 678 2272 
z
" transform="scale(0.015625)"/>
       </defs>
       <use xlink:href="#DejaVuSans-2212"/>
       <use xlink:href="#DejaVuSans-31" x="83.789062"/>
       <use xlink:href="#DejaVuSans-30" x="147.412109"/>
       <use xlink:href="#DejaVuSans-30" x="211.035156"/>
       <use xlink:href="#DejaVuSans-30" x="274.658203"/>
       <use xlink:href="#DejaVuSans-30" x="338.28125"/>
      </g>
     </g>
    </g>
    <g id="ytick_2">
     <g id="line2d_11">
      <g>
       <use xlink:href="#m11208a3301" x="47.192188" y="202.971673" style="stroke: #000000; stroke-width: 0.8"/>
      </g>
     </g>
     <g id="text_11">
      <!-- −5000 -->
      <g transform="translate(6.3625 206.770892) scale(0.1 -0.1)">
       <use xlink:href="#DejaVuSans-2212"/>
       <use xlink:href="#DejaVuSans-35" x="83.789062"/>
       <use xlink:href="#DejaVuSans-30" x="147.412109"/>
       <use xlink:href="#DejaVuSans-30" x="211.035156"/>
       <use xlink:href="#DejaVuSans-30" x="274.658203"/>
      </g>
     </g>
    </g>
    <g id="ytick_3">
     <g id="line2d_12">
      <g>
       <use xlink:href="#m11208a3301" x="47.192188" y="160.673874" style="stroke: #000000; stroke-width: 0.8"/>
      </g>
     </g>
     <g id="text_12">
      <!-- 0 -->
      <g transform="translate(33.829688 164.473092) scale(0.1 -0.1)">
       <use xlink:href="#DejaVuSans-30"/>
      </g>
     </g>
    </g>
    <g id="ytick_4">
     <g id="line2d_13">
      <g>
       <use xlink:href="#m11208a3301" x="47.192188" y="118.376074" style="stroke: #000000; stroke-width: 0.8"/>
      </g>
     </g>
     <g id="text_13">
      <!-- 5000 -->
      <g transform="translate(14.742188 122.175293) scale(0.1 -0.1)">
       <use xlink:href="#DejaVuSans-35"/>
       <use xlink:href="#DejaVuSans-30" x="63.623047"/>
       <use xlink:href="#DejaVuSans-30" x="127.246094"/>
       <use xlink:href="#DejaVuSans-30" x="190.869141"/>
      </g>
     </g>
    </g>
    <g id="ytick_5">
     <g id="line2d_14">
      <g>
       <use xlink:href="#m11208a3301" x="47.192188" y="76.078275" style="stroke: #000000; stroke-width: 0.8"/>
      </g>
     </g>
     <g id="text_14">
      <!-- 10000 -->
      <g transform="translate(8.379688 79.877494) scale(0.1 -0.1)">
       <use xlink:href="#DejaVuSans-31"/>
       <use xlink:href="#DejaVuSans-30" x="63.623047"/>
       <use xlink:href="#DejaVuSans-30" x="127.246094"/>
       <use xlink:href="#DejaVuSans-30" x="190.869141"/>
       <use xlink:href="#DejaVuSans-30" x="254.492188"/>
      </g>
     </g>
    </g>
    <g id="ytick_6">
     <g id="line2d_15">
      <g>
       <use xlink:href="#m11208a3301" x="47.192188" y="33.780476" style="stroke: #000000; stroke-width: 0.8"/>
      </g>
     </g>
     <g id="text_15">
      <!-- 15000 -->
      <g transform="translate(8.379688 37.579695) scale(0.1 -0.1)">
       <use xlink:href="#DejaVuSans-31"/>
       <use xlink:href="#DejaVuSans-35" x="63.623047"/>
       <use xlink:href="#DejaVuSans-30" x="127.246094"/>
       <use xlink:href="#DejaVuSans-30" x="190.869141"/>
       <use xlink:href="#DejaVuSans-30" x="254.492188"/>
      </g>
     </g>
    </g>
   </g>
   <g id="line2d_16">
    <path d="M 75.092188 160.711507 
L 75.374148 160.636675 
L 75.656109 160.710717 
L 75.938069 160.637314 
L 76.22003 160.710216 
L 76.50199 160.637688 
L 76.783951 160.709962 
L 77.065912 160.637828 
L 77.347872 160.709931 
L 77.629833 160.637754 
L 77.911793 160.710106 
L 78.193754 160.637478 
L 78.475715 160.710483 
L 78.757675 160.636999 
L 79.039636 160.711065 
L 79.321596 160.636312 
L 79.603557 160.711861 
L 79.885517 160.635402 
L 80.167478 160.712891 
L 80.449439 160.634245 
L 80.731399 160.714184 
L 81.01336 160.632805 
L 81.29532 160.715784 
L 81.577281 160.631032 
L 81.859242 160.717748 
L 82.141202 160.628856 
L 82.423163 160.720161 
L 82.705123 160.626177 
L 82.987084 160.723141 
L 83.269044 160.622853 
L 83.551005 160.726861 
L 83.832966 160.618673 
L 84.114926 160.731578 
L 84.396887 160.61332 
L 84.678847 160.737694 
L 84.960808 160.606281 
L 85.242769 160.745867 
L 85.524729 160.596693 
L 85.80669 160.757251 
L 86.08865 160.582979 
L 86.370611 160.774061 
L 86.652572 160.561938 
L 86.934532 160.801079 
L 87.216493 160.526135 
L 87.498453 160.850337 
L 87.780414 160.455803 
L 88.062374 160.947974 
L 88.344335 160.493172 
L 88.626296 178.095392 
L 88.908256 182.996345 
L 89.190217 182.033986 
L 89.754138 184.226002 
L 90.036099 183.960913 
L 90.60002 177.60491 
L 90.88198 179.624632 
L 91.163941 184.704147 
L 91.445901 186.99533 
L 91.727862 185.637997 
L 92.009823 182.236886 
L 92.291783 176.530916 
L 92.855704 148.906192 
L 93.701586 105.972461 
L 93.983547 99.392005 
L 94.265507 99.755276 
L 94.547468 104.56041 
L 94.829429 112.136428 
L 96.239231 165.55139 
L 96.521192 173.892153 
L 96.803153 178.265517 
L 97.649034 183.632793 
L 97.930995 183.440531 
L 99.058837 179.686656 
L 99.340798 178.945796 
L 99.622758 178.676541 
L 99.904719 179.012706 
L 100.18668 179.727549 
L 100.46864 179.295121 
L 100.750601 176.406466 
L 101.314522 167.108051 
L 101.596483 165.511116 
L 101.878443 165.166555 
L 102.442364 160.667521 
L 102.724325 163.617019 
L 103.288246 174.817441 
L 103.570207 176.480863 
L 104.416088 187.7514 
L 104.98001 185.849069 
L 105.26197 181.642555 
L 105.543931 171.41893 
L 106.107852 138.343512 
L 106.671773 102.156636 
L 106.953734 94.176395 
L 107.235694 90.214873 
L 107.517655 89.954988 
L 107.799615 98.105534 
L 108.363537 123.080637 
L 108.645497 133.1592 
L 109.209418 163.013845 
L 109.491379 168.402153 
L 109.77334 165.9419 
L 110.337261 157.484365 
L 110.901182 145.188378 
L 111.183143 147.129999 
L 112.029024 164.858064 
L 112.592945 181.50396 
L 112.874906 183.224101 
L 113.156867 182.884163 
L 113.438827 185.451633 
L 113.720788 189.150108 
L 114.002748 187.905751 
L 114.56667 174.620988 
L 114.84863 172.550944 
L 115.130591 172.347857 
L 115.412551 170.337256 
L 115.976472 160.922581 
L 116.258433 155.534149 
L 116.540394 152.971592 
L 116.822354 156.787149 
L 117.386275 171.077644 
L 117.950197 175.688728 
L 118.232157 180.864298 
L 118.514118 182.288379 
L 118.796078 174.566187 
L 119.36 140.468386 
L 119.923921 100.508015 
L 120.205881 87.282592 
L 120.487842 82.379885 
L 120.769802 85.568905 
L 121.051763 95.456113 
L 121.897645 142.031855 
L 122.461566 171.463363 
L 123.025487 185.293096 
L 123.307448 187.817297 
L 123.589408 185.556631 
L 125.281172 149.244787 
L 125.563132 148.508693 
L 126.127054 154.765223 
L 126.409014 154.679069 
L 126.690975 153.571233 
L 126.972935 153.727216 
L 127.254896 154.843887 
L 127.536857 156.645827 
L 128.382738 166.495835 
L 128.664699 167.522389 
L 129.22862 171.855319 
L 129.510581 169.740921 
L 129.792541 166.185695 
L 130.074502 166.731515 
L 130.638423 174.829446 
L 130.920384 174.997194 
L 131.202344 171.376735 
L 131.766265 160.05529 
L 132.330186 153.902657 
L 132.612147 152.964526 
L 133.176068 158.460504 
L 133.458029 153.966842 
L 133.739989 146.973967 
L 134.02195 145.152109 
L 134.303911 146.110507 
L 134.867832 143.064561 
L 135.149792 147.757824 
L 135.431753 154.587731 
L 135.713714 157.090098 
L 135.995674 156.365229 
L 136.277635 157.165565 
L 136.559595 159.322647 
L 136.841556 159.327012 
L 137.123516 158.155409 
L 137.405477 160.691504 
L 137.969398 170.997484 
L 138.251359 170.415823 
L 138.533319 168.982658 
L 138.81528 168.322566 
L 139.097241 166.77716 
L 139.379201 166.215353 
L 139.661162 169.747083 
L 140.225083 178.750973 
L 140.507043 180.381518 
L 140.789004 180.37151 
L 141.352925 176.251468 
L 141.634886 177.073886 
L 141.916846 178.464645 
L 142.480768 176.52713 
L 142.762728 177.97135 
L 143.326649 182.834095 
L 143.60861 184.857612 
L 143.890571 186.003071 
L 144.172531 182.200506 
L 144.454492 170.096432 
L 145.018413 124.795637 
L 145.582334 74.477849 
L 145.864295 61.132899 
L 146.146255 59.126166 
L 146.428216 65.657688 
L 146.710176 78.122215 
L 147.274098 118.382916 
L 147.838019 161.539637 
L 148.119979 173.017092 
L 148.6839 184.188446 
L 148.965861 186.810259 
L 149.247822 183.999788 
L 149.811743 172.075596 
L 150.657625 161.526531 
L 150.939585 159.857554 
L 151.221546 159.134097 
L 151.503506 159.063418 
L 151.785467 162.189045 
L 152.349388 177.893404 
L 152.631349 180.015917 
L 152.913309 177.744627 
L 153.19527 177.486917 
L 153.47723 179.854176 
L 153.759191 179.60361 
L 154.041152 176.543222 
L 154.323112 175.581519 
L 154.605073 176.486972 
L 154.887033 174.617795 
L 155.168994 171.17448 
L 155.450955 171.054784 
L 155.732915 173.207027 
L 156.014876 173.276823 
L 156.296836 172.06554 
L 156.578797 171.930673 
L 156.860757 171.253043 
L 157.424679 165.126343 
L 157.706639 158.584313 
L 158.27056 125.620683 
L 158.552521 110.108057 
L 158.834482 102.51303 
L 159.116442 100.877172 
L 159.398403 102.750378 
L 159.680363 108.083568 
L 159.962324 117.445278 
L 160.808206 156.131532 
L 161.090166 161.875314 
L 161.936048 171.478294 
L 162.218009 171.752464 
L 162.499969 171.836157 
L 163.06389 176.175209 
L 163.909772 177.227627 
L 164.473693 172.168539 
L 164.755654 172.000986 
L 165.037614 171.519699 
L 165.319575 168.362243 
L 165.601536 168.102504 
L 166.165457 179.009038 
L 166.447417 177.975294 
L 166.729378 174.466332 
L 167.011339 172.582599 
L 167.293299 172.289669 
L 167.57526 173.363174 
L 168.421142 178.748689 
L 168.985063 187.974742 
L 169.267023 188.148426 
L 169.548984 186.889383 
L 169.830944 184.657628 
L 170.112905 178.200475 
L 170.394866 166.56062 
L 170.958787 128.110262 
L 171.522708 91.678088 
L 172.086629 75.694981 
L 172.36859 76.544092 
L 172.932511 98.204017 
L 173.214471 112.476861 
L 174.060353 169.970816 
L 174.624274 186.232147 
L 174.906235 187.182765 
L 175.188196 185.418633 
L 175.470156 188.817887 
L 175.752117 193.804843 
L 176.034077 190.349112 
L 176.316038 181.992351 
L 176.597999 179.97518 
L 176.879959 182.112143 
L 177.16192 178.12049 
L 177.44388 168.885258 
L 177.725841 163.458251 
L 178.007801 163.560262 
L 178.571723 166.211442 
L 178.853683 167.024929 
L 179.135644 164.703572 
L 179.417604 160.67178 
L 179.699565 160.62412 
L 179.981526 164.092939 
L 180.263486 164.389637 
L 180.545447 161.955694 
L 180.827407 163.345046 
L 181.109368 166.667763 
L 181.391328 164.565079 
L 181.673289 159.665274 
L 181.95525 158.235428 
L 182.23721 155.977118 
L 182.519171 148.862065 
L 182.801131 145.995125 
L 183.365053 158.546798 
L 183.647013 157.895929 
L 183.928974 158.780116 
L 184.210934 162.983889 
L 184.492895 162.820277 
L 184.774856 160.605543 
L 185.056816 165.285036 
L 185.338777 172.516301 
L 185.620737 172.611901 
L 185.902698 169.065814 
L 186.184658 170.02601 
L 186.466619 173.373996 
L 186.74858 174.100765 
L 187.03054 172.933782 
L 187.312501 171.239121 
L 187.594461 168.866292 
L 187.876422 168.164415 
L 188.440343 171.878792 
L 188.722304 171.579608 
L 189.004264 171.942648 
L 189.286225 173.083929 
L 189.568185 173.274372 
L 189.850146 173.829068 
L 190.132107 175.390947 
L 190.414067 174.797541 
L 190.696028 172.803737 
L 190.977988 175.163422 
L 191.54191 189.144055 
L 191.82387 192.801217 
L 192.105831 193.870725 
L 192.387791 191.572668 
L 192.669752 187.906962 
L 192.951713 187.234651 
L 193.233673 188.53504 
L 193.515634 188.326275 
L 194.079555 186.636328 
L 194.643476 180.029539 
L 194.925437 181.538848 
L 195.207397 181.78255 
L 195.489358 171.586344 
L 196.053279 129.571988 
L 196.6172 81.631797 
L 196.899161 66.335858 
L 197.181121 60.072192 
L 197.463082 59.605751 
L 197.745042 66.242537 
L 198.027003 83.202303 
L 198.872885 148.110738 
L 199.154845 160.201588 
L 199.436806 167.357398 
L 199.718767 170.046369 
L 200.000727 170.34256 
L 200.282688 171.423975 
L 200.564648 173.429755 
L 200.846609 174.444418 
L 201.12857 174.858138 
L 201.41053 175.500901 
L 201.692491 174.20186 
L 201.974451 171.706947 
L 202.256412 173.762906 
L 202.538372 180.315272 
L 202.820333 183.13924 
L 203.102294 181.026257 
L 203.384254 182.319067 
L 203.666215 188.500164 
L 203.948175 191.583655 
L 204.230136 189.905403 
L 204.512097 189.408326 
L 204.794057 191.074531 
L 205.076018 191.357115 
L 205.639939 189.974486 
L 206.20386 187.284181 
L 206.485821 187.310518 
L 206.767781 185.678002 
L 207.049742 182.44693 
L 207.331702 181.979642 
L 207.613663 180.716785 
L 207.895624 168.445351 
L 208.741505 106.327093 
L 209.305427 78.046961 
L 209.587387 72.629235 
L 209.869348 74.147155 
L 210.151308 80.332438 
L 210.715229 100.199312 
L 211.843072 156.469562 
L 212.125032 161.721628 
L 212.406993 169.234737 
L 212.688954 173.426709 
L 212.970914 171.640482 
L 213.252875 171.774571 
L 213.816796 183.418651 
L 214.098756 181.756835 
L 214.380717 178.926735 
L 214.944638 183.054126 
L 215.508559 178.596537 
L 215.79052 180.723966 
L 216.072481 184.094282 
L 216.354441 184.338365 
L 216.636402 183.075134 
L 216.918362 182.80491 
L 217.200323 183.591525 
L 217.482284 185.767729 
L 218.046205 191.646573 
L 218.328165 192.735598 
L 218.610126 195.351002 
L 218.892086 199.83033 
L 219.174047 202.53084 
L 219.456008 201.740165 
L 219.737968 198.877137 
L 220.019929 193.280428 
L 220.301889 180.042704 
L 221.711692 63.782102 
L 221.993653 55.158803 
L 222.275613 55.187664 
L 222.839535 68.725731 
L 223.121495 78.44227 
L 223.685416 116.426452 
L 224.531298 173.938161 
L 224.813259 182.961088 
L 225.095219 181.96964 
L 225.37718 175.781873 
L 225.659141 173.435945 
L 225.941101 175.797811 
L 226.223062 176.304163 
L 226.505022 174.482071 
L 226.786983 177.757941 
L 227.350904 197.148833 
L 227.632865 199.91781 
L 228.196786 197.726507 
L 228.478746 196.103233 
L 228.760707 193.444507 
L 229.042668 192.866846 
L 229.606589 199.71487 
L 229.888549 201.050063 
L 230.17051 203.469084 
L 230.734431 213.367808 
L 231.016392 213.295656 
L 231.298352 211.01674 
L 231.580313 207.074694 
L 231.862273 199.4011 
L 232.426195 173.686824 
L 233.835998 68.457222 
L 234.117958 57.356043 
L 234.399919 55.956235 
L 234.681879 66.074822 
L 235.527761 113.856929 
L 236.373643 168.593719 
L 236.655603 173.967121 
L 236.937564 176.957976 
L 237.501485 187.238337 
L 238.065406 187.068571 
L 238.347367 190.24174 
L 238.629327 192.037646 
L 238.911288 189.93498 
L 239.193249 188.959327 
L 239.75717 192.585676 
L 240.03913 192.901874 
L 240.321091 194.990859 
L 240.885012 200.659776 
L 241.448933 205.568948 
L 242.012855 206.872763 
L 242.294815 210.255003 
L 243.422657 230.638713 
L 243.704618 228.245119 
L 243.986579 218.22839 
L 244.268539 196.829499 
L 245.396382 81.944731 
L 245.678342 57.999941 
L 245.960303 46.407518 
L 246.242263 49.952284 
L 246.524224 56.024451 
L 246.806184 57.947408 
L 247.088145 64.192282 
L 247.652066 104.100749 
L 248.497948 165.588166 
L 249.061869 183.303884 
L 249.907751 198.755093 
L 250.189712 200.511579 
L 250.471672 197.717963 
L 251.035593 185.032055 
L 251.599514 178.763432 
L 252.163436 163.305575 
L 252.445396 160.744417 
L 253.009317 165.756393 
L 253.291278 167.207614 
L 253.573239 175.315069 
L 254.13716 203.810936 
L 254.701081 219.974219 
L 254.983041 224.202362 
L 255.265002 224.288349 
L 255.546963 220.22653 
L 255.828923 210.469271 
L 256.392844 176.165061 
L 256.956766 125.794977 
L 257.520687 65.635461 
L 257.802647 48.868821 
L 258.084608 39.350662 
L 258.366569 34.616097 
L 258.648529 32.973645 
L 258.93049 33.853086 
L 259.21245 40.792975 
L 259.776371 77.012269 
L 260.904214 164.214561 
L 261.186174 174.969657 
L 261.468135 180.900477 
L 261.750096 182.00473 
L 262.032056 180.230059 
L 262.314017 179.775725 
L 262.595977 182.062713 
L 263.441859 194.35502 
L 263.72382 193.345129 
L 264.287741 188.870377 
L 264.569701 188.171312 
L 264.851662 190.652922 
L 265.415583 205.686793 
L 265.697544 207.942485 
L 265.979504 208.246132 
L 266.261465 212.101943 
L 267.107347 231.341992 
L 267.389307 241.236234 
L 267.671268 246.855705 
L 267.953228 246.44825 
L 268.235189 241.761215 
L 268.51715 228.274131 
L 269.081071 162.002828 
L 269.644992 98.661866 
L 270.208913 58.369443 
L 270.490874 45.95086 
L 270.772834 39.994514 
L 271.054795 40.935194 
L 271.336755 48.544812 
L 271.618716 62.140646 
L 272.182637 107.773205 
L 273.028519 188.628785 
L 273.31048 198.144043 
L 273.59244 194.531821 
L 273.874401 187.287061 
L 274.156361 184.646635 
L 274.438322 183.340744 
L 275.002243 169.318033 
L 275.284204 169.976529 
L 275.848125 186.301964 
L 276.130085 186.883194 
L 276.412046 188.125488 
L 277.821849 222.758829 
L 278.10381 226.519587 
L 278.38577 221.627203 
L 278.949691 204.177936 
L 279.231652 203.390342 
L 280.077534 214.091399 
L 280.359494 215.413972 
L 280.641455 211.69634 
L 280.923415 198.045217 
L 281.487337 144.241747 
L 282.051258 95.044417 
L 282.897139 57.718242 
L 283.1791 48.934038 
L 283.461061 46.340771 
L 283.743021 49.168165 
L 284.024982 60.500168 
L 284.588903 114.677509 
L 285.152824 165.671846 
L 285.434785 182.630964 
L 285.716745 190.779343 
L 285.998706 189.130468 
L 286.280667 183.806667 
L 286.562627 181.918776 
L 286.844588 184.164518 
L 287.97243 198.055192 
L 288.254391 197.541563 
L 288.818312 188.139801 
L 289.382233 180.283289 
L 289.664194 180.454596 
L 289.946154 182.514312 
L 290.510075 185.076166 
L 291.355957 196.613411 
L 291.637918 199.801108 
L 292.483799 223.881061 
L 292.76576 223.666873 
L 293.047721 218.975943 
L 293.329681 210.375452 
L 293.611642 194.080573 
L 295.021445 66.490817 
L 295.585366 42.650844 
L 295.867326 35.133155 
L 296.149287 33.845184 
L 296.431248 45.402474 
L 297.841051 156.159409 
L 298.123011 166.579045 
L 298.404972 166.857142 
L 298.686932 167.33173 
L 299.250853 175.821527 
L 299.532814 176.964844 
L 299.814775 178.807848 
L 300.378696 187.62153 
L 300.660656 189.166136 
L 300.942617 189.307053 
L 301.506538 191.788556 
L 301.788499 191.944615 
L 302.070459 193.735651 
L 302.634381 205.539004 
L 302.916341 207.392235 
L 303.198302 207.958038 
L 303.762223 214.250972 
L 304.608105 225.765902 
L 304.890065 223.028375 
L 305.172026 221.500438 
L 305.453986 224.244834 
L 305.735947 221.971152 
L 306.017908 206.483615 
L 306.863789 125.213488 
L 307.42771 65.875416 
L 307.709671 47.617233 
L 307.991632 37.930993 
L 308.273592 33.59254 
L 308.555553 34.147729 
L 308.837513 40.769435 
L 309.401435 70.244391 
L 310.247316 141.670677 
L 310.811238 179.589882 
L 311.093198 183.501093 
L 311.375159 182.602484 
L 311.657119 186.418189 
L 311.93908 193.817169 
L 312.22104 196.180982 
L 312.503001 194.100329 
L 312.784962 196.487415 
L 313.066922 204.365377 
L 313.348883 209.058089 
L 313.630843 206.391158 
L 313.912804 201.915453 
L 314.194765 201.441768 
L 314.476725 202.753853 
L 314.758686 200.586331 
L 315.040646 196.149105 
L 315.322607 196.108015 
L 315.886528 207.19854 
L 317.860252 221.473186 
L 318.142213 215.988305 
L 318.424173 202.039644 
L 318.988095 156.217855 
L 319.833976 67.66562 
L 320.115937 50.214263 
L 320.397897 40.382322 
L 320.679858 38.394862 
L 321.243779 44.029522 
L 321.52574 50.975845 
L 322.089661 81.611007 
L 322.653582 130.434386 
L 323.217503 185.608553 
L 323.499464 199.465657 
L 323.781424 206.813572 
L 324.063385 210.062716 
L 324.345346 208.819184 
L 324.627306 205.034811 
L 324.909267 202.845305 
L 325.191227 203.602391 
L 325.473188 204.993649 
L 325.755149 204.655561 
L 326.31907 201.991995 
L 326.60103 199.743648 
L 327.164952 192.453341 
L 327.446912 194.46219 
L 327.728873 198.830241 
L 328.010833 200.493301 
L 328.292794 200.163528 
L 328.574754 201.397724 
L 329.420636 208.223815 
L 329.702597 214.399355 
L 329.984557 216.502667 
L 330.830439 199.669179 
L 331.1124 188.926348 
L 331.676321 140.497847 
L 332.522203 58.100305 
L 332.804163 41.338977 
L 333.368084 24.792529 
L 333.650045 21.848516 
L 333.932006 29.366871 
L 334.777887 87.1837 
L 335.90573 186.12023 
L 336.469651 196.513852 
L 337.033572 202.586106 
L 337.597493 209.088287 
L 337.879454 212.514196 
L 338.161414 212.521802 
L 338.725336 203.615963 
L 339.007296 203.410853 
L 339.289257 204.33907 
L 339.853178 201.712968 
L 340.417099 206.901588 
L 340.69906 207.711965 
L 340.98102 209.75858 
L 341.826902 222.013714 
L 342.390823 229.949481 
L 342.954744 245.515574 
L 343.236705 248.298406 
L 343.518666 241.864344 
L 343.800626 227.82761 
L 344.364547 178.151591 
L 345.210429 87.000314 
L 345.77435 45.011599 
L 346.338271 19.607965 
L 346.620232 18.461176 
L 346.902193 26.94045 
L 347.466114 63.712105 
L 348.875917 163.194009 
L 349.157877 168.868623 
L 349.439838 170.635114 
L 349.721798 174.019654 
L 350.28572 184.898725 
L 350.56768 186.63693 
L 350.849641 187.660461 
L 351.413562 193.536208 
L 351.695523 190.919435 
L 351.977483 185.85901 
L 352.259444 183.761496 
L 352.541404 182.995781 
L 352.823365 181.646847 
L 353.105325 186.548385 
L 353.669247 210.967465 
L 353.951207 211.464049 
L 354.233168 211.668111 
L 354.797089 226.804451 
L 355.07905 226.764823 
L 355.36101 224.668147 
L 355.642971 225.126878 
L 355.924931 224.420882 
L 356.488852 214.881202 
L 357.052774 210.487571 
L 357.334734 199.871056 
L 357.616695 174.481607 
L 358.462577 78.388634 
L 359.026498 37.885153 
L 359.308458 27.602101 
L 359.590419 29.268541 
L 360.15434 38.079708 
L 360.436301 48.992836 
L 361.564143 149.617064 
L 361.846104 163.092298 
L 362.128064 169.791985 
L 362.410025 170.127509 
L 362.691985 174.369925 
L 363.255907 195.157998 
L 363.819828 199.790273 
L 364.101788 201.257803 
L 364.383749 196.303213 
L 364.94767 179.420434 
L 365.229631 181.793117 
L 365.511591 186.519523 
L 365.793552 185.99559 
L 366.075512 181.748064 
L 366.357473 180.670673 
L 366.921394 187.872787 
L 367.203355 188.622776 
L 367.485315 188.355294 
L 367.767276 188.314683 
L 368.049237 189.213857 
L 368.331197 193.344902 
L 368.895118 204.350096 
L 369.177079 206.267937 
L 369.741 214.834421 
L 370.022961 207.802771 
L 370.304921 180.440597 
L 371.150803 71.110202 
L 371.714724 24.615878 
L 371.996685 12.096 
L 372.278645 13.959693 
L 372.842566 29.937096 
L 373.124527 44.056608 
L 374.816291 187.788218 
L 375.098251 196.631118 
L 375.380212 199.930046 
L 375.662172 199.758654 
L 376.508054 186.45909 
L 376.790015 184.510033 
L 377.071975 181.085612 
L 377.635896 171.45972 
L 377.917857 169.640636 
L 378.199818 172.242213 
L 378.763739 183.235799 
L 379.609621 216.350258 
L 379.891581 221.155204 
L 380.455502 234.653452 
L 380.737463 234.353121 
L 381.019423 230.851443 
L 381.583345 228.954024 
L 382.147266 219.829959 
L 382.429226 214.240608 
L 382.711187 204.360502 
L 382.993148 189.277115 
L 383.557069 138.690174 
L 384.12099 78.304901 
L 384.684911 44.209989 
L 384.966872 38.72782 
L 385.248832 42.026935 
L 385.812753 62.803901 
L 386.658635 107.075009 
L 387.786478 176.659345 
L 388.068438 184.091409 
L 389.19628 194.505998 
L 389.478241 191.662616 
L 389.760202 187.431193 
L 390.042162 188.005717 
L 390.324123 191.005542 
L 390.606083 188.54005 
L 391.170005 174.650584 
L 391.451965 176.219064 
L 391.733926 180.090882 
L 392.015886 182.371091 
L 392.297847 187.67342 
L 392.861768 211.169776 
L 393.143729 212.94763 
L 393.425689 207.686585 
L 393.70765 206.047392 
L 394.271571 217.772491 
L 394.553532 220.049083 
L 394.835492 220.465515 
L 395.117453 222.365106 
L 395.399413 223.358414 
L 395.681374 216.413636 
L 395.963335 197.809443 
L 397.655098 47.391547 
L 397.937059 45.391464 
L 398.219019 45.276763 
L 398.50098 44.625034 
L 398.78294 49.68385 
L 399.628822 93.901618 
L 399.910783 111.467306 
L 400.756665 185.928429 
L 401.038625 191.938783 
L 401.320586 191.598813 
L 401.884507 193.435881 
L 402.448428 188.339829 
L 402.730389 190.624401 
L 403.012349 195.64265 
L 403.29431 197.284532 
L 403.57627 195.070071 
L 403.858231 193.960722 
L 404.140192 195.338208 
L 404.422152 195.778698 
L 404.986073 192.726886 
L 405.549994 194.434688 
L 405.831955 194.345725 
L 406.113916 194.990855 
L 406.395876 199.680019 
L 406.959797 217.680037 
L 407.805679 231.119155 
L 408.08764 234.467769 
L 408.3696 232.150348 
L 408.933522 222.509966 
L 409.215482 208.836405 
L 409.779403 146.242885 
L 410.625285 58.525266 
L 410.907246 43.845252 
L 411.189206 42.54986 
L 411.471167 45.458827 
L 411.753127 46.567304 
L 412.035088 50.620445 
L 412.599009 73.65358 
L 412.88097 87.254016 
L 413.444891 131.249592 
L 414.008812 167.760525 
L 414.290773 174.734919 
L 414.572733 175.873309 
L 414.854694 174.565424 
L 415.136654 175.278926 
L 415.418615 177.507203 
L 415.700576 177.462605 
L 415.982536 176.14725 
L 416.264497 178.372667 
L 416.828418 189.156776 
L 417.110379 189.241668 
L 417.6743 181.970773 
L 417.95626 180.844864 
L 418.238221 181.64445 
L 418.520181 184.60761 
L 418.802142 192.266374 
L 419.366063 212.20434 
L 419.648024 215.099245 
L 419.929984 216.767841 
L 420.775866 231.862154 
L 421.339787 233.804709 
L 421.621748 232.705117 
L 421.903708 222.376885 
L 422.46763 170.859489 
L 423.031551 102.264503 
L 423.595472 36.099217 
L 423.877433 30.418259 
L 424.159393 28.917011 
L 424.441354 25.168969 
L 424.723314 31.182885 
L 425.287236 65.834269 
L 425.851157 76.148243 
L 426.133117 88.313424 
L 427.26096 161.395823 
L 427.824881 196.380477 
L 428.106841 199.51096 
L 428.670763 183.552578 
L 429.516644 179.874823 
L 430.080565 189.776143 
L 430.362526 191.823396 
L 430.644487 196.504234 
L 430.926447 205.412979 
L 431.208408 210.576499 
L 431.490368 210.087254 
L 431.772329 210.912723 
L 432.33625 220.689227 
L 432.618211 221.891492 
L 433.182132 215.53748 
L 433.464093 220.849169 
L 433.746053 233.074248 
L 434.028014 239.253067 
L 434.309974 234.451927 
L 434.873895 219.156389 
L 435.155856 202.305002 
L 436.283698 83.074842 
L 436.84762 67.46261 
L 437.411541 51.301109 
L 437.693501 49.581741 
L 437.975462 49.690846 
L 438.257422 52.024075 
L 438.539383 62.31721 
L 440.231147 151.480627 
L 440.513107 158.988496 
L 441.358989 196.803981 
L 441.64095 201.081761 
L 441.92291 203.328069 
L 442.204871 201.998721 
L 442.486831 199.048641 
L 443.050752 197.674721 
L 443.614674 190.085528 
L 443.896634 191.361481 
L 444.178595 194.03367 
L 444.742516 197.169772 
L 445.306437 204.89649 
L 445.588398 211.659075 
L 446.434279 236.751526 
L 446.71624 241.408385 
L 446.998201 243.359519 
L 447.280161 241.183035 
L 447.562122 235.191668 
L 447.844082 224.084264 
L 448.408004 175.866437 
L 449.253885 100.747787 
L 449.817806 65.635815 
L 450.381728 54.217999 
L 450.663688 49.920695 
L 450.945649 51.650797 
L 452.073491 87.468524 
L 452.637412 112.049792 
L 453.483294 163.390219 
L 454.047215 196.558431 
L 454.329176 199.242861 
L 454.893097 192.237232 
L 455.175058 191.358043 
L 455.457018 189.70281 
L 455.738979 187.00644 
L 456.020939 186.624482 
L 456.3029 190.875532 
L 456.866821 201.171562 
L 457.430742 203.837115 
L 457.712703 206.125601 
L 457.994663 207.022173 
L 458.276624 207.163897 
L 458.558585 209.552049 
L 459.686427 229.471747 
L 460.532309 254.016 
L 460.814269 249.038464 
L 461.09623 230.66367 
L 461.660151 164.608476 
L 462.224072 82.7234 
L 462.506033 59.476363 
L 462.787993 52.141601 
L 463.069954 49.386295 
L 463.633875 38.543885 
L 463.915836 38.48733 
L 464.197796 43.248478 
L 464.479757 51.690608 
L 465.043678 81.603332 
L 465.607599 122.683534 
L 466.17152 174.037164 
L 466.453481 190.770614 
L 466.735442 198.767895 
L 467.299363 206.97726 
L 467.581323 207.188366 
L 468.145245 203.657922 
L 468.427205 203.519391 
L 468.709166 203.131989 
L 468.991126 202.313998 
L 469.273087 200.590798 
L 470.118969 187.619473 
L 470.68289 194.750422 
L 470.96485 193.508232 
L 471.246811 194.688689 
L 472.092693 225.536358 
L 472.374653 228.264465 
L 472.938575 238.67985 
L 473.220535 236.084193 
L 473.784456 223.143342 
L 474.066417 210.488635 
L 474.630338 151.661692 
L 475.194259 89.807024 
L 475.47622 68.675221 
L 475.75818 56.466056 
L 476.040141 51.516551 
L 476.322102 50.391264 
L 476.604062 53.243106 
L 477.167983 66.968883 
L 477.449944 67.228841 
L 477.731905 68.713376 
L 478.013865 82.383108 
L 478.577786 122.729838 
L 479.705629 175.246285 
L 481.115432 189.292064 
L 481.961313 194.711072 
L 482.243274 194.471299 
L 482.807195 185.186032 
L 483.089156 191.357316 
L 483.371116 200.592262 
L 483.653077 204.048563 
L 483.935037 205.845209 
L 484.498959 217.809748 
L 484.780919 218.537751 
L 485.06288 217.977968 
L 485.34484 220.680455 
L 486.190722 234.451875 
L 486.472683 234.081876 
L 486.754643 226.343856 
L 487.036604 207.616625 
L 487.600525 137.617205 
L 488.164446 71.966815 
L 488.728367 43.861042 
L 489.292289 25.952666 
L 489.574249 25.719872 
L 490.13817 42.958308 
L 490.420131 55.314274 
L 491.266013 118.181221 
L 491.829934 140.318491 
L 492.393855 166.940099 
L 493.239737 189.503233 
L 493.521697 190.763058 
L 493.803658 189.712766 
L 494.085619 191.141479 
L 494.64954 196.692166 
L 494.9315 198.081128 
L 495.213461 198.833015 
L 495.495421 200.301774 
L 496.059343 208.059268 
L 496.341303 206.882145 
L 496.623264 202.106893 
L 496.905224 200.433608 
L 498.033067 212.592667 
L 498.878948 231.283447 
L 499.160909 230.547743 
L 499.44287 225.733372 
L 499.72483 217.262873 
L 500.006791 198.722665 
L 500.852673 93.946136 
L 501.134633 78.784495 
L 501.698554 63.463312 
L 501.980515 60.681221 
L 502.544436 67.748838 
L 502.826397 68.510321 
L 503.108357 71.511317 
L 503.954239 99.180799 
L 504.51816 126.189148 
L 505.082081 150.239456 
L 505.646003 169.554286 
L 506.209924 177.838873 
L 506.773845 194.71502 
L 507.055805 197.931079 
L 507.901687 190.942866 
L 508.465608 185.158091 
L 508.747569 186.776605 
L 509.593451 201.440702 
L 510.439333 223.799163 
L 510.721293 224.430367 
L 511.003254 228.370667 
L 511.567175 244.615312 
L 511.849135 242.713594 
L 512.413057 233.020344 
L 512.695017 219.206207 
L 513.82286 100.272148 
L 514.386781 76.005068 
L 514.668741 68.239662 
L 514.950702 65.112328 
L 515.232662 64.413443 
L 515.514623 64.464607 
L 515.796584 67.460325 
L 516.078544 76.234023 
L 517.206387 127.649656 
L 518.052268 148.623232 
L 518.61619 171.667351 
L 519.180111 174.564692 
L 519.462071 178.963174 
L 519.744032 180.935614 
L 520.307953 176.566952 
L 520.589914 178.636141 
L 521.153835 189.136345 
L 521.717756 202.854826 
L 522.281677 209.098815 
L 522.845598 220.224665 
L 523.127559 222.58078 
L 523.409519 223.514203 
L 523.69148 226.083272 
L 524.255401 237.742552 
L 524.537362 243.497061 
L 524.819322 244.648899 
L 525.101283 238.748784 
L 525.665204 213.973403 
L 525.947165 193.925019 
L 526.793047 104.623058 
L 527.356968 73.828262 
L 527.638928 63.5819 
L 527.920889 59.199413 
L 528.202849 58.329613 
L 528.48481 59.024159 
L 528.766771 65.231887 
L 529.330692 91.195505 
L 529.894613 103.733649 
L 530.740495 142.20992 
L 531.304416 153.986051 
L 531.586376 163.778143 
L 531.868337 168.882021 
L 532.150298 167.637124 
L 532.432258 169.193481 
L 532.996179 187.47017 
L 533.27814 191.951792 
L 533.842061 194.821273 
L 534.124022 194.642468 
L 534.405982 192.667212 
L 534.969904 187.777934 
L 535.251864 190.447682 
L 535.533825 196.765061 
L 535.815785 200.282639 
L 536.097746 199.800344 
L 536.379706 202.808855 
L 537.225588 229.646623 
L 537.789509 243.124024 
L 538.07147 243.797708 
L 538.353431 238.807777 
L 538.635391 228.618508 
L 538.917352 207.843766 
L 539.763233 108.769969 
L 540.045194 92.724003 
L 540.609115 75.895823 
L 540.891076 71.549755 
L 541.173036 69.969427 
L 541.454997 70.458916 
L 541.736958 73.508569 
L 542.300879 87.327648 
L 542.8648 104.112539 
L 543.428721 132.396606 
L 544.274603 159.386744 
L 544.556563 175.212632 
L 544.838524 182.445401 
L 545.120485 180.568244 
L 545.402445 179.785308 
L 545.684406 182.037628 
L 545.966366 181.641238 
L 546.248327 179.594493 
L 546.812248 180.526368 
L 547.094209 178.652452 
L 547.376169 179.863422 
L 547.94009 189.06404 
L 548.222051 188.747728 
L 548.504012 190.478438 
L 549.067933 198.302006 
L 549.349893 199.557232 
L 549.631854 202.839539 
L 550.759696 225.943752 
L 551.041657 227.161855 
L 551.323618 222.167988 
L 551.605578 205.985397 
L 552.45146 125.285156 
L 553.015381 96.600826 
L 553.579302 77.793323 
L 554.143223 65.883754 
L 554.425184 65.718267 
L 554.707145 70.583169 
L 554.989105 79.765877 
L 556.962829 168.984699 
L 557.24479 177.538281 
L 557.52675 182.338486 
L 557.808711 183.138708 
L 558.090672 182.826018 
L 558.372632 183.583705 
L 558.936553 185.70781 
L 559.218514 184.552149 
L 559.782435 177.459192 
L 560.064396 177.686523 
L 560.346356 180.700364 
L 560.628317 185.890648 
L 561.192238 200.252081 
L 561.474199 200.156399 
L 561.756159 197.998727 
L 562.03812 201.269774 
L 562.602041 212.69714 
L 562.884002 218.317144 
L 563.447923 238.572067 
L 563.729883 242.913656 
L 564.011844 236.679836 
L 564.293804 216.083059 
L 565.421647 96.244496 
L 565.703607 77.987915 
L 565.985568 72.694137 
L 566.267529 74.178224 
L 566.83145 71.027318 
L 567.11341 76.800106 
L 569.087134 143.972389 
L 570.214977 173.908324 
L 570.496937 175.652394 
L 570.778898 175.955254 
L 571.060859 178.0892 
L 571.342819 178.538117 
L 571.90674 171.090589 
L 572.188701 171.460767 
L 572.752622 175.715838 
L 573.034583 179.88525 
L 573.880464 196.620998 
L 574.162425 199.011923 
L 574.444386 198.899732 
L 574.726346 198.010428 
L 575.008307 200.287582 
L 576.136149 225.066644 
L 576.41811 224.607102 
L 576.70007 219.337709 
L 576.982031 207.669546 
L 577.545952 160.657063 
L 578.109873 118.481309 
L 578.955755 97.126786 
L 579.237716 92.463205 
L 579.519676 92.305841 
L 580.083597 97.795867 
L 580.365558 102.331185 
L 580.929479 120.643127 
L 581.4934 138.382856 
L 581.775361 143.238654 
L 582.057321 145.558722 
L 582.339282 148.866436 
L 582.903203 162.216573 
L 583.185164 164.841517 
L 583.467124 165.084778 
L 583.749085 166.280736 
L 584.031046 168.00251 
L 584.313006 168.239771 
L 584.876927 164.712077 
L 585.158888 165.86973 
L 585.440848 168.589212 
L 586.00477 168.443044 
L 586.28673 176.011473 
L 586.568691 187.886215 
L 586.850651 192.029579 
L 587.132612 188.733455 
L 587.414573 189.564713 
L 587.978494 202.726931 
L 588.260454 207.134083 
L 589.106336 230.294387 
L 589.388297 232.587653 
L 589.670257 231.411555 
L 589.952218 220.475673 
L 591.08006 129.297279 
L 591.643981 105.632343 
L 591.925942 101.564854 
L 592.207903 103.099262 
L 592.489863 101.473472 
L 592.771824 97.184469 
L 593.053784 98.65179 
L 593.899666 120.616208 
L 595.309469 174.489407 
L 595.59143 180.053713 
L 595.87339 178.422968 
L 596.719272 171.503501 
L 597.001232 172.032251 
L 597.283193 174.520846 
L 597.565154 174.313113 
L 597.847114 172.744379 
L 598.129075 172.846674 
L 598.411035 171.194827 
L 598.692996 166.760651 
L 598.974957 166.459533 
L 599.256917 171.038993 
L 599.538878 172.82059 
L 599.820838 171.840608 
L 600.102799 175.848759 
L 600.66672 189.06658 
L 600.948681 190.635049 
L 601.230641 193.577058 
L 602.358484 210.728702 
L 602.640444 209.308762 
L 602.922405 200.341697 
L 604.332208 122.827235 
L 604.896129 109.04085 
L 605.46005 98.81573 
L 605.742011 97.196238 
L 606.023971 100.196839 
L 606.587892 110.445611 
L 606.869853 117.9586 
L 607.997695 159.439148 
L 608.279656 164.332689 
L 608.843577 166.471533 
L 609.407498 174.424355 
L 609.689459 174.608124 
L 609.971419 172.18735 
L 610.25338 170.782873 
L 610.535341 170.880902 
L 610.817301 169.592675 
L 611.381222 159.668614 
L 611.663183 158.425453 
L 612.509065 166.844641 
L 613.072986 172.446942 
L 613.354946 172.68473 
L 613.636907 174.097402 
L 614.482789 187.359214 
L 615.328671 210.446913 
L 615.610631 207.223474 
L 615.892592 194.948593 
L 616.738474 145.649799 
L 617.302395 124.399711 
L 617.866316 111.829802 
L 618.994158 95.592357 
L 619.276119 97.716634 
L 620.403961 130.021442 
L 620.967882 156.241312 
L 621.531803 167.347169 
L 621.813764 170.671819 
L 622.095725 170.759279 
L 622.377685 170.075346 
L 622.659646 172.661946 
L 622.941606 176.32928 
L 623.223567 177.461848 
L 623.505528 176.726064 
L 623.787488 174.802517 
L 624.069449 171.172096 
L 624.351409 168.979644 
L 624.63337 171.171821 
L 624.915331 174.523078 
L 625.197291 175.808994 
L 625.479252 178.128963 
L 626.043173 189.156587 
L 626.325133 190.169346 
L 626.607094 189.878089 
L 626.889055 192.408 
L 628.016897 210.19395 
L 628.298858 211.417205 
L 628.580818 205.911232 
L 628.862779 192.491181 
L 629.70866 140.878969 
L 630.554542 115.185405 
L 630.836503 110.743439 
L 631.118463 108.895186 
L 631.400424 107.789751 
L 631.682385 107.221393 
L 631.964345 107.944604 
L 632.246306 109.624803 
L 632.528266 115.981005 
L 633.092188 143.316776 
L 633.092188 143.316776 
" clip-path="url(#p0d5f75d6c4)" style="fill: none; stroke: #1f77b4; stroke-width: 1.5; stroke-linecap: square"/>
   </g>
   <g id="patch_3">
    <path d="M 47.192188 266.112 
L 47.192188 0 
" style="fill: none; stroke: #000000; stroke-width: 0.8; stroke-linejoin: miter; stroke-linecap: square"/>
   </g>
   <g id="patch_4">
    <path d="M 660.992188 266.112 
L 660.992188 0 
" style="fill: none; stroke: #000000; stroke-width: 0.8; stroke-linejoin: miter; stroke-linecap: square"/>
   </g>
   <g id="patch_5">
    <path d="M 47.192188 266.112 
L 660.992188 266.112 
" style="fill: none; stroke: #000000; stroke-width: 0.8; stroke-linejoin: miter; stroke-linecap: square"/>
   </g>
   <g id="patch_6">
    <path d="M 47.192188 0 
L 660.992188 0 
" style="fill: none; stroke: #000000; stroke-width: 0.8; stroke-linejoin: miter; stroke-linecap: square"/>
   </g>
  </g>
 </g>
 <defs>
  <clipPath id="p0d5f75d6c4">
   <rect x="47.192188" y="0" width="613.8" height="266.112"/>
  </clipPath>
 </defs>
</svg>
