<svg xmlns="http://www.w3.org/2000/svg" xmlns:xlink="http://www.w3.org/1999/xlink" width="913.477" height="377.053" viewBox="0 0 685.107 282.79"><defs><style>*{stroke-linejoin:round;stroke-linecap:butt}</style></defs><g id="figure_1"><path id="patch_1" d="M0 282.79h685.107V0H0v282.79z" style="fill:none"/><g id="axes_1"><path id="patch_2" d="M71.308 266.112h613.8V0h-613.8v266.112z" style="fill:none"/><g id="matplotlib.axis_1"><g id="xtick_1"><g id="line2d_1"><defs><path id="m0ffe9093fc" d="M0 0v3.5" style="stroke:gray;stroke-width:.8"/></defs><use xlink:href="#m0ffe9093fc" x="99.207" y="266.112" style="fill:gray;stroke:gray;stroke-width:.8"/></g><g id="text_1" style="fill:gray" transform="matrix(.1 0 0 -.1 96.026 280.71)"><defs><path id="DejaVuSans-30" d="M2034 4250q-487 0-733-480-245-479-245-1442 0-959 245-1439 246-480 733-480 491 0 736 480 246 480 246 1439 0 963-246 1442-245 480-736 480zm0 500q785 0 1199-621 414-620 414-1801 0-1178-414-1799Q2819-91 2034-91q-784 0-1198 620-414 621-414 1799 0 1181 414 1801 414 621 1198 621z" transform="scale(.01563)"/></defs><use xlink:href="#DejaVuSans-30"/></g></g><g id="xtick_2"><use xlink:href="#m0ffe9093fc" id="line2d_2" x="168.958" y="266.112" style="fill:gray;stroke:gray;stroke-width:.8"/><g id="text_2" style="fill:gray" transform="matrix(.1 0 0 -.1 159.414 280.71)"><defs><path id="DejaVuSans-35" d="M691 4666h2478v-532H1269V2991q137 47 274 70 138 23 276 23 781 0 1237-428 457-428 457-1159 0-753-469-1171Q2575-91 1722-91q-294 0-599 50Q819 9 494 109v635q281-153 581-228t634-75q541 0 856 284 316 284 316 772 0 487-316 771-315 285-856 285-253 0-505-56-251-56-513-175v2344z" transform="scale(.01563)"/></defs><use xlink:href="#DejaVuSans-35"/><use xlink:href="#DejaVuSans-30" x="63.623"/><use xlink:href="#DejaVuSans-30" x="127.246"/></g></g><g id="xtick_3"><use xlink:href="#m0ffe9093fc" id="line2d_3" x="238.708" y="266.112" style="fill:gray;stroke:gray;stroke-width:.8"/><g id="text_3" style="fill:gray" transform="matrix(.1 0 0 -.1 225.982 280.71)"><defs><path id="DejaVuSans-31" d="M794 531h1031v3560L703 3866v575l1116 225h631V531h1031V0H794v531z" transform="scale(.01563)"/></defs><use xlink:href="#DejaVuSans-31"/><use xlink:href="#DejaVuSans-30" x="63.623"/><use xlink:href="#DejaVuSans-30" x="127.246"/><use xlink:href="#DejaVuSans-30" x="190.869"/></g></g><g id="xtick_4"><use xlink:href="#m0ffe9093fc" id="line2d_4" x="308.457" y="266.112" style="fill:gray;stroke:gray;stroke-width:.8"/><g id="text_4" style="fill:gray" transform="matrix(.1 0 0 -.1 295.733 280.71)"><use xlink:href="#DejaVuSans-31"/><use xlink:href="#DejaVuSans-35" x="63.623"/><use xlink:href="#DejaVuSans-30" x="127.246"/><use xlink:href="#DejaVuSans-30" x="190.869"/></g></g><g id="xtick_5"><use xlink:href="#m0ffe9093fc" id="line2d_5" x="378.207" y="266.112" style="fill:gray;stroke:gray;stroke-width:.8"/><g id="text_5" style="fill:gray" transform="matrix(.1 0 0 -.1 365.483 280.71)"><defs><path id="DejaVuSans-32" d="M1228 531h2203V0H469v531q359 372 979 998 621 627 780 809 303 340 423 576 121 236 121 464 0 372-261 606-261 235-680 235-297 0-627-103-329-103-704-313v638q381 153 712 231 332 78 607 78 725 0 1156-363 431-362 431-968 0-288-108-546-107-257-392-607-78-91-497-524-418-433-1181-1211z" transform="scale(.01563)"/></defs><use xlink:href="#DejaVuSans-32"/><use xlink:href="#DejaVuSans-30" x="63.623"/><use xlink:href="#DejaVuSans-30" x="127.246"/><use xlink:href="#DejaVuSans-30" x="190.869"/></g></g><g id="xtick_6"><use xlink:href="#m0ffe9093fc" id="line2d_6" x="447.957" y="266.112" style="fill:gray;stroke:gray;stroke-width:.8"/><g id="text_6" style="fill:gray" transform="matrix(.1 0 0 -.1 435.233 280.71)"><use xlink:href="#DejaVuSans-32"/><use xlink:href="#DejaVuSans-35" x="63.623"/><use xlink:href="#DejaVuSans-30" x="127.246"/><use xlink:href="#DejaVuSans-30" x="190.869"/></g></g><g id="xtick_7"><use xlink:href="#m0ffe9093fc" id="line2d_7" x="517.707" y="266.112" style="fill:gray;stroke:gray;stroke-width:.8"/><g id="text_7" style="fill:gray" transform="matrix(.1 0 0 -.1 504.983 280.71)"><defs><path id="DejaVuSans-33" d="M2597 2516q453-97 707-404 255-306 255-756 0-690-475-1069Q2609-91 1734-91q-293 0-604 58T488 141v609q262-153 574-231 313-78 654-78 593 0 904 234t311 681q0 413-289 645-289 233-804 233h-544v519h569q465 0 712 186t247 536q0 359-255 551-254 193-729 193-260 0-557-57-297-56-653-174v562q360 100 674 150t592 50q719 0 1137-327 419-326 419-882 0-388-222-655t-631-370z" transform="scale(.01563)"/></defs><use xlink:href="#DejaVuSans-33"/><use xlink:href="#DejaVuSans-30" x="63.623"/><use xlink:href="#DejaVuSans-30" x="127.246"/><use xlink:href="#DejaVuSans-30" x="190.869"/></g></g><g id="xtick_8"><use xlink:href="#m0ffe9093fc" id="line2d_8" x="587.457" y="266.112" style="fill:gray;stroke:gray;stroke-width:.8"/><g id="text_8" style="fill:gray" transform="matrix(.1 0 0 -.1 574.732 280.71)"><use xlink:href="#DejaVuSans-33"/><use xlink:href="#DejaVuSans-35" x="63.623"/><use xlink:href="#DejaVuSans-30" x="127.246"/><use xlink:href="#DejaVuSans-30" x="190.869"/></g></g><g id="xtick_9"><use xlink:href="#m0ffe9093fc" id="line2d_9" x="657.207" y="266.112" style="fill:gray;stroke:gray;stroke-width:.8"/><g id="text_9" style="fill:gray" transform="matrix(.1 0 0 -.1 644.482 280.71)"><defs><path id="DejaVuSans-34" d="M2419 4116 825 1625h1594v2491zm-166 550h794V1625h666v-525h-666V0h-628v1100H313v609l1940 2957z" transform="scale(.01563)"/></defs><use xlink:href="#DejaVuSans-34"/><use xlink:href="#DejaVuSans-30" x="63.623"/><use xlink:href="#DejaVuSans-30" x="127.246"/><use xlink:href="#DejaVuSans-30" x="190.869"/></g></g></g><g id="matplotlib.axis_2"><g id="ytick_1"><g id="line2d_10"><defs><path id="mfac5f58168" d="M0 0h-3.5" style="stroke:gray;stroke-width:.8"/></defs><use xlink:href="#mfac5f58168" x="71.308" y="223.088" style="fill:gray;stroke:gray;stroke-width:.8"/></g><g id="text_10" style="fill:gray" transform="matrix(.16 0 0 -.16 0 229.167)"><defs><path id="DejaVuSans-2212" d="M678 2272h4006v-531H678v531z" transform="scale(.01563)"/></defs><use xlink:href="#DejaVuSans-2212"/><use xlink:href="#DejaVuSans-32" x="83.789"/><use xlink:href="#DejaVuSans-30" x="147.412"/><use xlink:href="#DejaVuSans-30" x="211.035"/><use xlink:href="#DejaVuSans-30" x="274.658"/><use xlink:href="#DejaVuSans-30" x="338.281"/></g></g><g id="ytick_2"><use xlink:href="#mfac5f58168" id="line2d_11" x="71.308" y="159.639" style="fill:gray;stroke:gray;stroke-width:.8"/><use xlink:href="#DejaVuSans-30" id="text_11" style="fill:gray" transform="matrix(.16 0 0 -.16 54.127 165.718)"/></g><g id="ytick_3"><use xlink:href="#mfac5f58168" id="line2d_12" x="71.308" y="96.19" style="fill:gray;stroke:gray;stroke-width:.8"/><g id="text_12" style="fill:gray" transform="matrix(.16 0 0 -.16 13.408 102.269)"><use xlink:href="#DejaVuSans-32"/><use xlink:href="#DejaVuSans-30" x="63.623"/><use xlink:href="#DejaVuSans-30" x="127.246"/><use xlink:href="#DejaVuSans-30" x="190.869"/><use xlink:href="#DejaVuSans-30" x="254.492"/></g></g><g id="ytick_4"><use xlink:href="#mfac5f58168" id="line2d_13" x="71.308" y="32.741" style="fill:gray;stroke:gray;stroke-width:.8"/><g id="text_13" style="fill:gray" transform="matrix(.16 0 0 -.16 13.408 38.82)"><use xlink:href="#DejaVuSans-34"/><use xlink:href="#DejaVuSans-30" x="63.623"/><use xlink:href="#DejaVuSans-30" x="127.246"/><use xlink:href="#DejaVuSans-30" x="190.869"/><use xlink:href="#DejaVuSans-30" x="254.492"/></g></g></g><path id="line2d_14" d="m99.207 159.445.282.39.282-.392.282.394.282-.397.282.4.282-.404.282.409.282-.413.282.418.282-.424.282.43.282-.436.282.443.282-.45.282.458.282-.468.282.477.282-.486.282.496.282-.508.282.52.282-.533.282.547.282-.561.282.577.281-.595.282.614.282-.634.282.656.282-.68.282.705.282-.732.282.763.282-.797.282.834.282-.875.282.921.282-.973.282 1.032.282-1.1.282 1.177.282-1.265.282 1.37.282-1.495.282 1.646.282-1.833.282 2.069.282-2.378.282 2.8.282-3.408.281 4.363.282-6.09.282 10.197.564-67.07.282 29.596.282 10.79.282 16.712.282 5.294.282 9.815.282 3.685.282 6.369.282 1.11.282 3.639.282-.181.282.922.282-3.194.282-1.577.282-3.455.282-1.424.282-3.465.282-1.422.282-2.022.282.052.282-1.863.282-1.046.281-2.007.282.146.282-.364.282.907.282-.495.282.195.282-.686.282.723.282-.308.282-.038.282-.975.564.998.564 3.422.564 5.741.282 1.42.282.758.564 4.227.282.852.282-.098.282 1.35.282.685.281.301.282.088 1.128 8.95.282.915.282-.624.282-3.649.282-10.477.564-38.54.846-59.13.282-13.163.282-6.085.282.221.282 5.524.282 9.095.564 30.972.846 49.798.563 16.456.564 6.77.282 1.831.282.678 1.128-4.3 1.41-8.474 1.128-3.59.282.907.564 5.212.564.473.564 2.969.281-1.807.282-2.785.282-.996.282.849.282-.166.282-.456.282.47.282 1.043.282-.386.282-.159.282 1.465.282 2.229.282.441.282.002.282 1.137.282 1.75.282-.093.282-.694.282.69.282 2.281.282 1.278.282.087.282-.194.282.12.282-1.56.281-4.591.282-9.204.564-34.503.564-42.035.564-24.074.282-4.18.282.239.282 4.864.282 9.143.564 29.56.846 47.61.564 17.211.564 8.14.282 1.354.282.117.282-.54.282-.877 1.127-7.74.846-7.601.282.355.846 5.87.564 1.537.564 3.394.282.38.282-.3.564.576.282-.638.846-3.962.282-.86.282.037.845 4.656.282 1.753.846 6.568.282 1.674 1.128 10.079.564 1.351.282 1.242.282.242.282-2.925.282-7.664.282-12.594.564-41.9.564-46.08.564-25.979.282-6.637.281-.756.282 4.82.282 8.682.282 12.376 1.41 87.716.282 9.18.282 5.526.282 2.188.282.75.282.242.282-.248.282-1.235 1.974-12.875.282-.602.564-.263.281.53.564 2.006.564.34.282.028.282-.278.564-2.078.282-1.09.282-.453.282.08.564.583.564 1.571.282.285.282-.188.282.705 2.255 13.845.282 2.7.282 1.6.564 1.256.282-.724.282-4.228.282-8.943.564-33.035.846-62.084.564-20.859.282-2.926.282 2.578.282 7.63.564 27.338.846 45.117.563 21.415.564 9.89.564 5.324.282.825.282-.043.564-.436 1.41-4.458.564-3.439.282-.528.282.279.564 1 .564 2.03.282.446.282-.21.282.075.563 1.89.282-.383.564-2.61.846 1.876.282.201.282.84.282.386.282-.259.282.325.564 2.661.282 3.235.846 20.155.282 1.668.564 5.528.282-.273.282-4.983.282-8.13.282-12.68.563-48.407.564-49.324.564-28.95.282-8.278.282-3.57.282 2.14.282 8.717.564 30.703 1.41 87.45.564 9.831.282 3.358.282 1.56.282-.635.564-4.895.845-8.227 1.41-7.477.564-1.627.282-.413.282-.074.282.33.282 1.544.564 5.84.282.708.282-.242.564 1.776.282-2.97.282-5.77.282-3.242.564 2.452.282-1.371.282-.747.281 3.375.282 5.154.282 2.875.282.615.282 1.033 1.41 10.135.564 2.118.282.37.282-1.355.282-3.862.282-8.058.282-14.552 1.128-74.627.564-23 .282-3.873.282 2.087.281 5.124.282 7.208.564 25.925 1.128 69.217.282 9.883.282 2.454.564-3.71.282-.688.282-1.308.846-8.181.564-2.748.282-.452.846 2.456.282.18.845 2.305.282.52.564 2.384.282.024.282.243.564 2.572.282.575.282 1.304.282 2.217.282 1.124.282-.35.282.756.564 5.792.564 1.898.564 5.194 1.128 10.626.563 10.697.282 2.241.282-.128.282.29.282-1.261.282-10.031.564-50.876.846-78.59.564-34.607.282-3.992.282 1.57.282 3.968.282 7.044.846 38.044.564 37.318.564 45.443.282 11.683.281 4.597.282 1.28.282-.433.564-4.147 1.128-9.61.564-3.688.564-4.776.282-.695.282.419.282-.067.282-1.816.846-8.201.564-2.53.282.09.564 2.488.282 1.994.563 7.682.564 7.104.564 7.345.564 6.475.564 3.949 1.41 14.628.564 8.243.282 4.707.282 2.278.282-.614.282-2.444.282-6.138.282-14.462 1.691-142.368.282-9.168.282-2.744.282 1.606.282 4.642.564 17.297.564 30.854.846 66.084.282 12.434.282 6.218.282.88.564-7.057.282-.775.282 1.555.282.534.282-1.056.282-.39.281.775.282-.074.564-3.162.846-2.381.282.27.564 1.814.282.496 1.128 3.68 1.128 5.24.564 4.601.846 4.61.564 3.79.563 6.503 2.256 32.451.282-.472.282-6.52.282-13.213.564-47.9 1.128-109.71.282-15.238.282-6.425.282-1.099.282-.023.282.15.282 2.187.281 5.57.564 20.924.564 38.628.564 49.412.282 13.86.282 4.817.282 2.245.564 6.742.282-.654.564-4.983.282-.988.282-1.557.564-3.878.282-.234.282.71.564 2.696.564 2.848.563 2.23.564 3.235.564 1.297.282 1.67 1.128 10.454.282 2.082.282.13.282-1.353.282-.316.846 4.78.282 2.941.846 15.743.846 8.545.563 7.023.282 1.024.282-1.99.282-7.052.282-15.403.564-55.643.846-82.53.564-28.97.282-5.298.282-2.451.282-.959.282 1.19.282 4.574.564 19.385.282 15.272.564 50.503.564 45.962.282 7.79.563 5.751.282.1 1.692-15.614.564-1.981.564-4.033.282-1.085.282.218.282 2.288.846 12.045.846 4.313.564 4.154.282 1.479.845 7.15.282 3.538.846 22.451.564 4.498.282 4.274.282 1.933.564-2.998.282 2.616.564 7.708.282 1.846.282.233.282-1.756.282-4.066.282-8.758.282-18.137 1.691-165.626.282-10.393.282-5.87.282-2.542.282 1.213.564 8.463.282 7.072.564 27.376.564 42.61.564 53.48.282 15.102.282 5.492.564 2.786.564 1.608.282.665.282-.142.282-1.123.282-.392.563 1.757.282-1.797.564-5.44.564-.716.564-1.753.282-.036.282.359.282.655 2.256 11.85.282 2.993.564 7.736 1.41 13.08 1.691 24.817.282.168.282-4.814.282-11.598.282-20.901 1.41-149.51.282-16.387.282-9.78.282-3.897.282.361.282 3.207.282 5.312.564 16.789.563 22.41.282 18.542.846 80.714.282 11.951.282 3.275.282.234.282-.307.282-1.055.846-7.122.846-8.072.282 1.45.564 5.688.282.327.282.989.564 4.2.282-.429.282-.157 2.537 18.344.282.963.282 1.392 1.974 17.94.282 4.137.564 13.047.282 3.471.282 1.158.282-1.489.282-8.12.281-18.95.564-65.47.846-98.845.282-17.877.282-10.329.282-4.653.282.148.282 3.731.564 12.704.282 9.575.564 32.915 1.128 100.532.282 9.721.564 8.795.282 2.837.282-.084.281-.84.282.258.282-1.325.846-15.876.282-.75.564-3.637.282 1.167.282 3.478.282 1.553.564-2.858.282.248.846 3.13.846 5.673.282 1.374 1.128 8.6.563 5.245.846 10.393.564 8.973.564 5.551.846 15.288.282 1.876.282-.53.282-5.547.282-14.138.564-53.55L377.22 35.87l.282-13.901.282-6.704.282-2.048.281 1.419.564 7.395.282 6.2.564 24.263.564 32.804 1.41 107.935.282 4.352.282 2.181.282.975.282-.377.564-1.75.282.494 1.128 5.047.845 7.774.282 2.268 1.41 18.143.282.779.282-1.258.282-2.377.282-5.736.282-13.733.564-52.968 1.128-114.912.282-11.789.282-3.864.282-.306.282 1.225.282 3.844.282 8.583.563 33.164 1.128 93.063.282 10.053.282 5.958.282 3.35.564 3.289.282 2.705.282 1.45.282-1.273.282-2.294.564-2.56 1.41-10.541.282-1.176.564-1.3.282-.627.563-.512.282-.686.282-.068 1.692 5.143.282 1.581.564 4.908.282 1.42.282 2.588.564 8.665.564 5.33.564 10.59.846 7.975.282 4.444.563 4.095.564 10.767.282 4.586.282 2.331.282.738.282-5.325.282-18.144.564-73.451.846-118.766.282-15.669.282-3.532.282.024.282.511.282 3.733.564 12.363.282 3.393.282 5.128.564 22.615.563 33.9.846 79.461.282 13.809.282 5.313.282 1.962.282 1.027.282.202.282-.745.282-1.608 1.41-12.87.282-2.366.564-2.703.564-4.734.282-.881.282-.274.282-.72.282-.123.563 2.031.282.203.282.843.564 4.668.564 2.2.282 2.36.846 9.934 1.128 9.854 1.974 28.09.564 7.585.282 3.88.281 1.76.282-.625.282-5.013.282-13.473.564-57.373.846-114.28.282-22.6.282-9.515.282-2.55.282-1.066.282.541.282 3.736.564 13.818.564 19.925.564 29.166.564 44.055.564 47.68.281 12.895.282 5.675.282 2.348.282.753.282-.636.564-3.418 1.128-8.89.282-1.163.564-3.634.846-2.523.282-.939.282.12.282.394.282.02.282-.164.282.126.282.375.282 1.289.845 6.373.282 1.191.846 6.943.846 7.324.282-.123.282 1.251.564 6.987.282 1.879.282 3.321.846 18.56.846 10.651.282 1.567.282-1.801.282-11.101.282-25.677 1.127-152.639.282-22.186.282-10.399.282-2.226.282.356.282.854.282 3.188.846 18.933.282 8.765.564 26.948.564 33.927.846 65.97.282 10.397.282 4.062.282 1.791.282.677.281-.274.564-1.135.282-1.847.282-2.624.282-1.201.564 2.055.282-.73.282-1.487.282-.437.282.052.282-1.177.564-6.618.282-1.5.282.495.282-.29.564-3.781.282 2.504.564 9.464.564 5.135.563 6.633.282 2.258.564 7.666.564 6.277.564 6.944.846 10.052.564 5.73.282 1.353.282-1.716.282-8.8.282-19.113.564-67.478.564-76.694.282-24.104.282-10.863.282-2.991.282-.622.281.245.282 2.298.564 10.206.564 14.4.564 22.405.564 31.358 1.128 76.694.282 7.669.282 2.384.282-.184.282-1.376.846-5.725.846-3.768.845-2.1.282-.419.282-.216.282.151.282.616 1.128 5.295.282 1.078.282 3.219.564 8.905.282 1.413.282.404.564 2.17.564-.498.282 1.308 1.128 9.858.845 12.016.564 10.173.846 10.535.282-1.082.282-9.642.282-21.247.564-76.347.564-80.494.282-21.502.282-9.388.282-3.227.282-1.102.282.688.282 2.81.564 11.124.846 22.268.563 21.654.564 32.965.846 60.629.282 11.271.282 5.757.282 2.505.282.646.282-.137.282-.54.282-.912.282-1.783 1.128-10.468.282-.258.282.027.564-1.816.282.467.282 1.385.281.74.282.053.282 1.104 1.128 9.106.564 5.198 1.128 5.89.282.962.564 5.05.564 7.505.846 14.155.846 10.886.282 4.051.282.771.281-7.318.282-19.451.564-75.086.564-84.627.282-23.29.282-9.743.282-3.648.282-2.04.282.783.564 9.713.564 11.315.564 17.499.564 25.064 1.692 102.979.281 6.028.282 2.219.282.104.846-3.009.282-1.625.564-4.12.282.017.282.173.282-1.186.282-1.913.282-.834.282-.064.282-.357.282-.858.282-.366.282.309.282.978 1.41 6.822 2.255 20.503 1.128 15.455.846 13.177.846 11.958.282-3.783.282-14.366.282-25.88 1.128-159.338.282-13.534.563-7.989.282-1.477.282 2.05 1.128 18.384 1.128 30.35.564 30.387 1.41 77.534.282 4.265.846 2.328.564-.488.281.15.282-.271.564-2.411 1.128-2.158.282-.11.282.493.282 1.386.846 8.168.564 2.089.564 3.384.564 1.306.282 1.28.564 3.544.564 3.015.845 7.983.282 4.086 1.128 21.784.282 2.905.282-.23.282-6.76.282-16.958.282-29.506.846-125.552.282-21.35.282-8.465.564-9.408.282-1.359.282 4.181.564 12.463.564 10.692.563 17.707.846 35.933 1.41 65.622.846 16.522.282-.14.282-1.53.564-.922.282-1.34.282-.736.564 1.315.282-.133.282.346.282.966.282.282.281-.94.282-.082.564 2.809.282-1.142.282-1.962.282.18 1.128 12.403.564 8.834.282 1.758.282.62 1.128 5.04.282 2.905 1.128 19.077.845 15.035.282-4.373.282-14.627.282-24.007.564-79.66.564-77.333.282-14.697.564-10.461.282-2.564.282 2.612.564 10.303.282 3.858.282 5.959 1.692 53.471 1.127 56.521.564 20.496.282 7.189.282 4.042.282 2.099.564 1.796.282.122.282-.07.282-.536 1.41-4.36.282-1.547.282-.912.282-.512.282.463.282 1.871.564 4.507.282 1.085.281 2.21.282 3.564.282 1.864.282-.64.282-.013.282 3.885.564 10.492.564 7.86.564 9.745.564 8.312.564 9.152.282 2.131.282.276.282-3.585.282-11.162.282-23.273 1.128-152.29.282-15.46.281-7.65.282-4.346.282-2.056.282.532.282 2.032.282 3.433.564 11.945.846 22.458.564 19.834 1.41 58.4.564 17.945.564 11.186.282 3.263.282 1.388.563.04.282.415 1.128 2.539.564.467.282.76.564 2.208.564.193.282 1.815.564 5.807.564-.633.564 6.619.282.733.282-1.186.282 1.186 1.973 26.6.846 15.705.564 7.669.282-.815.282-11.785.282-26.273 1.128-154.388.282-17.234.282-7.556.282-2.685.282-1.039.282.55.282 2.643 1.41 26.658.845 27.53 1.974 70.862.282 6.266.282 3.513.846 4.447.282-.025.282-.61.282.923.846 5.825.564 4.037 1.127 9.81.846 4.757.564 2.17.846 4.07.564 1.06.282.563.282.818.282 2.258 1.128 12.528.564 9.628.564 3.924.563 6.824.282-4.81.282-16.24.564-66.658.564-74.862.282-20.727.282-9.988.282-5.688.282-3.28.282-.048.564 6.788.564 9.191.846 22.71.564 18.91 1.41 52.934.563 13.417.282 3.29.564 2.755.564 1.599.282.056.564.825.282-.513.564-3.047.282.451 1.41 11.043.282 1.147.282 2.454.564 6.959.845 6.872.564 5.769.846 12.191.282 1.663.846 9.258.282-.051.282.903.846 10.885.564 8.102.282.989.282-6.598.282-16.103.564-67.495.564-73.791.282-16.718.563-14.063.282-5.313.282-2.24.282.911.282 2.016 1.128 13.988.282 5.252.846 25.135 1.128 37.653 1.128 28.816.282.995.282 1.6.282 2.742.281 1.021.564-1.387.282 1.114.564 4.144.846 6.163.282 1.535.846 6.426.282 1.056.282 1.572.282 2.94 1.128 16.026.564 4.653.282 2.22.282.309.282 3.624.281-3.447h0" clip-path="url(#p18666a2d7d)" style="fill:none;stroke:#1f77b4;stroke-width:1.5;stroke-linecap:square"/><path id="patch_3" d="M71.308 266.112V0" style="fill:none;stroke:gray;stroke-width:.8;stroke-linejoin:miter;stroke-linecap:square"/><path id="patch_4" d="M685.107 266.112V0" style="fill:none;stroke:#000;stroke-width:.8;stroke-linejoin:miter;stroke-linecap:square"/><path id="patch_5" d="M71.308 266.112h613.8" style="fill:none;stroke:gray;stroke-width:.8;stroke-linejoin:miter;stroke-linecap:square"/><path id="patch_6" d="M71.308 0h613.8" style="fill:none;stroke:#000;stroke-width:.8;stroke-linejoin:miter;stroke-linecap:square"/></g></g><defs><clipPath id="p18666a2d7d"><path d="M71.308 0h613.8v266.112h-613.8z"/></clipPath></defs></svg>