<?xml version="1.0" encoding="utf-8" standalone="no"?>
<!DOCTYPE svg PUBLIC "-//W3C//DTD SVG 1.1//EN"
  "http://www.w3.org/Graphics/SVG/1.1/DTD/svg11.dtd">
<svg xmlns:xlink="http://www.w3.org/1999/xlink" width="660.992188pt" height="282.790125pt" viewBox="0 0 660.992188 282.790125" xmlns="http://www.w3.org/2000/svg" version="1.1">
 <metadata>
  <rdf:RDF xmlns:dc="http://purl.org/dc/elements/1.1/" xmlns:cc="http://creativecommons.org/ns#" xmlns:rdf="http://www.w3.org/1999/02/22-rdf-syntax-ns#">
   <cc:Work>
    <dc:type rdf:resource="http://purl.org/dc/dcmitype/StillImage"/>
    <dc:date>2023-03-06T21:26:11.919339</dc:date>
    <dc:format>image/svg+xml</dc:format>
    <dc:creator>
     <cc:Agent>
      <dc:title>Matplotlib v3.6.3, https://matplotlib.org/</dc:title>
     </cc:Agent>
    </dc:creator>
   </cc:Work>
  </rdf:RDF>
 </metadata>
 <defs>
  <style type="text/css">*{stroke-linejoin: round; stroke-linecap: butt}</style>
 </defs>
 <g id="figure_1">
  <g id="patch_1">
   <path d="M -0 282.790125 
L 660.992188 282.790125 
L 660.992188 0 
L -0 0 
L -0 282.790125 
z
" style="fill: none"/>
  </g>
  <g id="axes_1">
   <g id="patch_2">
    <path d="M 47.192188 266.112 
L 660.992188 266.112 
L 660.992188 0 
L 47.192188 0 
L 47.192188 266.112 
z
" style="fill: none"/>
   </g>
   <g id="matplotlib.axis_1">
    <g id="xtick_1">
     <g id="line2d_1">
      <defs>
       <path id="m50b5113923" d="M 0 0 
L 0 3.5 
" style="stroke: #808080; stroke-width: 0.8"/>
      </defs>
      <g>
       <use xlink:href="#m50b5113923" x="75.092188" y="266.112" style="fill: #808080; stroke: #808080; stroke-width: 0.8"/>
      </g>
     </g>
     <g id="text_1">
      <!-- 0 -->
      <g style="fill: #808080" transform="translate(71.910938 280.710438) scale(0.1 -0.1)">
       <defs>
        <path id="DejaVuSans-30" d="M 2034 4250 
Q 1547 4250 1301 3770 
Q 1056 3291 1056 2328 
Q 1056 1369 1301 889 
Q 1547 409 2034 409 
Q 2525 409 2770 889 
Q 3016 1369 3016 2328 
Q 3016 3291 2770 3770 
Q 2525 4250 2034 4250 
z
M 2034 4750 
Q 2819 4750 3233 4129 
Q 3647 3509 3647 2328 
Q 3647 1150 3233 529 
Q 2819 -91 2034 -91 
Q 1250 -91 836 529 
Q 422 1150 422 2328 
Q 422 3509 836 4129 
Q 1250 4750 2034 4750 
z
" transform="scale(0.015625)"/>
       </defs>
       <use xlink:href="#DejaVuSans-30"/>
      </g>
     </g>
    </g>
    <g id="xtick_2">
     <g id="line2d_2">
      <g>
       <use xlink:href="#m50b5113923" x="144.842188" y="266.112" style="fill: #808080; stroke: #808080; stroke-width: 0.8"/>
      </g>
     </g>
     <g id="text_2">
      <!-- 500 -->
      <g style="fill: #808080" transform="translate(135.298438 280.710438) scale(0.1 -0.1)">
       <defs>
        <path id="DejaVuSans-35" d="M 691 4666 
L 3169 4666 
L 3169 4134 
L 1269 4134 
L 1269 2991 
Q 1406 3038 1543 3061 
Q 1681 3084 1819 3084 
Q 2600 3084 3056 2656 
Q 3513 2228 3513 1497 
Q 3513 744 3044 326 
Q 2575 -91 1722 -91 
Q 1428 -91 1123 -41 
Q 819 9 494 109 
L 494 744 
Q 775 591 1075 516 
Q 1375 441 1709 441 
Q 2250 441 2565 725 
Q 2881 1009 2881 1497 
Q 2881 1984 2565 2268 
Q 2250 2553 1709 2553 
Q 1456 2553 1204 2497 
Q 953 2441 691 2322 
L 691 4666 
z
" transform="scale(0.015625)"/>
       </defs>
       <use xlink:href="#DejaVuSans-35"/>
       <use xlink:href="#DejaVuSans-30" x="63.623047"/>
       <use xlink:href="#DejaVuSans-30" x="127.246094"/>
      </g>
     </g>
    </g>
    <g id="xtick_3">
     <g id="line2d_3">
      <g>
       <use xlink:href="#m50b5113923" x="214.592188" y="266.112" style="fill: #808080; stroke: #808080; stroke-width: 0.8"/>
      </g>
     </g>
     <g id="text_3">
      <!-- 1000 -->
      <g style="fill: #808080" transform="translate(201.867188 280.710438) scale(0.1 -0.1)">
       <defs>
        <path id="DejaVuSans-31" d="M 794 531 
L 1825 531 
L 1825 4091 
L 703 3866 
L 703 4441 
L 1819 4666 
L 2450 4666 
L 2450 531 
L 3481 531 
L 3481 0 
L 794 0 
L 794 531 
z
" transform="scale(0.015625)"/>
       </defs>
       <use xlink:href="#DejaVuSans-31"/>
       <use xlink:href="#DejaVuSans-30" x="63.623047"/>
       <use xlink:href="#DejaVuSans-30" x="127.246094"/>
       <use xlink:href="#DejaVuSans-30" x="190.869141"/>
      </g>
     </g>
    </g>
    <g id="xtick_4">
     <g id="line2d_4">
      <g>
       <use xlink:href="#m50b5113923" x="284.342188" y="266.112" style="fill: #808080; stroke: #808080; stroke-width: 0.8"/>
      </g>
     </g>
     <g id="text_4">
      <!-- 1500 -->
      <g style="fill: #808080" transform="translate(271.617188 280.710438) scale(0.1 -0.1)">
       <use xlink:href="#DejaVuSans-31"/>
       <use xlink:href="#DejaVuSans-35" x="63.623047"/>
       <use xlink:href="#DejaVuSans-30" x="127.246094"/>
       <use xlink:href="#DejaVuSans-30" x="190.869141"/>
      </g>
     </g>
    </g>
    <g id="xtick_5">
     <g id="line2d_5">
      <g>
       <use xlink:href="#m50b5113923" x="354.092188" y="266.112" style="fill: #808080; stroke: #808080; stroke-width: 0.8"/>
      </g>
     </g>
     <g id="text_5">
      <!-- 2000 -->
      <g style="fill: #808080" transform="translate(341.367188 280.710438) scale(0.1 -0.1)">
       <defs>
        <path id="DejaVuSans-32" d="M 1228 531 
L 3431 531 
L 3431 0 
L 469 0 
L 469 531 
Q 828 903 1448 1529 
Q 2069 2156 2228 2338 
Q 2531 2678 2651 2914 
Q 2772 3150 2772 3378 
Q 2772 3750 2511 3984 
Q 2250 4219 1831 4219 
Q 1534 4219 1204 4116 
Q 875 4013 500 3803 
L 500 4441 
Q 881 4594 1212 4672 
Q 1544 4750 1819 4750 
Q 2544 4750 2975 4387 
Q 3406 4025 3406 3419 
Q 3406 3131 3298 2873 
Q 3191 2616 2906 2266 
Q 2828 2175 2409 1742 
Q 1991 1309 1228 531 
z
" transform="scale(0.015625)"/>
       </defs>
       <use xlink:href="#DejaVuSans-32"/>
       <use xlink:href="#DejaVuSans-30" x="63.623047"/>
       <use xlink:href="#DejaVuSans-30" x="127.246094"/>
       <use xlink:href="#DejaVuSans-30" x="190.869141"/>
      </g>
     </g>
    </g>
    <g id="xtick_6">
     <g id="line2d_6">
      <g>
       <use xlink:href="#m50b5113923" x="423.842188" y="266.112" style="fill: #808080; stroke: #808080; stroke-width: 0.8"/>
      </g>
     </g>
     <g id="text_6">
      <!-- 2500 -->
      <g style="fill: #808080" transform="translate(411.117188 280.710438) scale(0.1 -0.1)">
       <use xlink:href="#DejaVuSans-32"/>
       <use xlink:href="#DejaVuSans-35" x="63.623047"/>
       <use xlink:href="#DejaVuSans-30" x="127.246094"/>
       <use xlink:href="#DejaVuSans-30" x="190.869141"/>
      </g>
     </g>
    </g>
    <g id="xtick_7">
     <g id="line2d_7">
      <g>
       <use xlink:href="#m50b5113923" x="493.592188" y="266.112" style="fill: #808080; stroke: #808080; stroke-width: 0.8"/>
      </g>
     </g>
     <g id="text_7">
      <!-- 3000 -->
      <g style="fill: #808080" transform="translate(480.867188 280.710438) scale(0.1 -0.1)">
       <defs>
        <path id="DejaVuSans-33" d="M 2597 2516 
Q 3050 2419 3304 2112 
Q 3559 1806 3559 1356 
Q 3559 666 3084 287 
Q 2609 -91 1734 -91 
Q 1441 -91 1130 -33 
Q 819 25 488 141 
L 488 750 
Q 750 597 1062 519 
Q 1375 441 1716 441 
Q 2309 441 2620 675 
Q 2931 909 2931 1356 
Q 2931 1769 2642 2001 
Q 2353 2234 1838 2234 
L 1294 2234 
L 1294 2753 
L 1863 2753 
Q 2328 2753 2575 2939 
Q 2822 3125 2822 3475 
Q 2822 3834 2567 4026 
Q 2313 4219 1838 4219 
Q 1578 4219 1281 4162 
Q 984 4106 628 3988 
L 628 4550 
Q 988 4650 1302 4700 
Q 1616 4750 1894 4750 
Q 2613 4750 3031 4423 
Q 3450 4097 3450 3541 
Q 3450 3153 3228 2886 
Q 3006 2619 2597 2516 
z
" transform="scale(0.015625)"/>
       </defs>
       <use xlink:href="#DejaVuSans-33"/>
       <use xlink:href="#DejaVuSans-30" x="63.623047"/>
       <use xlink:href="#DejaVuSans-30" x="127.246094"/>
       <use xlink:href="#DejaVuSans-30" x="190.869141"/>
      </g>
     </g>
    </g>
    <g id="xtick_8">
     <g id="line2d_8">
      <g>
       <use xlink:href="#m50b5113923" x="563.342188" y="266.112" style="fill: #808080; stroke: #808080; stroke-width: 0.8"/>
      </g>
     </g>
     <g id="text_8">
      <!-- 3500 -->
      <g style="fill: #808080" transform="translate(550.617188 280.710438) scale(0.1 -0.1)">
       <use xlink:href="#DejaVuSans-33"/>
       <use xlink:href="#DejaVuSans-35" x="63.623047"/>
       <use xlink:href="#DejaVuSans-30" x="127.246094"/>
       <use xlink:href="#DejaVuSans-30" x="190.869141"/>
      </g>
     </g>
    </g>
    <g id="xtick_9">
     <g id="line2d_9">
      <g>
       <use xlink:href="#m50b5113923" x="633.092188" y="266.112" style="fill: #808080; stroke: #808080; stroke-width: 0.8"/>
      </g>
     </g>
     <g id="text_9">
      <!-- 4000 -->
      <g style="fill: #808080" transform="translate(620.367188 280.710438) scale(0.1 -0.1)">
       <defs>
        <path id="DejaVuSans-34" d="M 2419 4116 
L 825 1625 
L 2419 1625 
L 2419 4116 
z
M 2253 4666 
L 3047 4666 
L 3047 1625 
L 3713 1625 
L 3713 1100 
L 3047 1100 
L 3047 0 
L 2419 0 
L 2419 1100 
L 313 1100 
L 313 1709 
L 2253 4666 
z
" transform="scale(0.015625)"/>
       </defs>
       <use xlink:href="#DejaVuSans-34"/>
       <use xlink:href="#DejaVuSans-30" x="63.623047"/>
       <use xlink:href="#DejaVuSans-30" x="127.246094"/>
       <use xlink:href="#DejaVuSans-30" x="190.869141"/>
      </g>
     </g>
    </g>
   </g>
   <g id="matplotlib.axis_2">
    <g id="ytick_1">
     <g id="line2d_10">
      <defs>
       <path id="m945e4da08d" d="M 0 0 
L -3.5 0 
" style="stroke: #808080; stroke-width: 0.8"/>
      </defs>
      <g>
       <use xlink:href="#m945e4da08d" x="47.192188" y="220.443803" style="fill: #808080; stroke: #808080; stroke-width: 0.8"/>
      </g>
     </g>
     <g id="text_10">
      <!-- −20000 -->
      <g style="fill: #808080" transform="translate(0 224.243021) scale(0.1 -0.1)">
       <defs>
        <path id="DejaVuSans-2212" d="M 678 2272 
L 4684 2272 
L 4684 1741 
L 678 1741 
L 678 2272 
z
" transform="scale(0.015625)"/>
       </defs>
       <use xlink:href="#DejaVuSans-2212"/>
       <use xlink:href="#DejaVuSans-32" x="83.789062"/>
       <use xlink:href="#DejaVuSans-30" x="147.412109"/>
       <use xlink:href="#DejaVuSans-30" x="211.035156"/>
       <use xlink:href="#DejaVuSans-30" x="274.658203"/>
       <use xlink:href="#DejaVuSans-30" x="338.28125"/>
      </g>
     </g>
    </g>
    <g id="ytick_2">
     <g id="line2d_11">
      <g>
       <use xlink:href="#m945e4da08d" x="47.192188" y="162.841365" style="fill: #808080; stroke: #808080; stroke-width: 0.8"/>
      </g>
     </g>
     <g id="text_11">
      <!-- 0 -->
      <g style="fill: #808080" transform="translate(33.829688 166.640583) scale(0.1 -0.1)">
       <use xlink:href="#DejaVuSans-30"/>
      </g>
     </g>
    </g>
    <g id="ytick_3">
     <g id="line2d_12">
      <g>
       <use xlink:href="#m945e4da08d" x="47.192188" y="105.238927" style="fill: #808080; stroke: #808080; stroke-width: 0.8"/>
      </g>
     </g>
     <g id="text_12">
      <!-- 20000 -->
      <g style="fill: #808080" transform="translate(8.379688 109.038145) scale(0.1 -0.1)">
       <use xlink:href="#DejaVuSans-32"/>
       <use xlink:href="#DejaVuSans-30" x="63.623047"/>
       <use xlink:href="#DejaVuSans-30" x="127.246094"/>
       <use xlink:href="#DejaVuSans-30" x="190.869141"/>
       <use xlink:href="#DejaVuSans-30" x="254.492188"/>
      </g>
     </g>
    </g>
    <g id="ytick_4">
     <g id="line2d_13">
      <g>
       <use xlink:href="#m945e4da08d" x="47.192188" y="47.636489" style="fill: #808080; stroke: #808080; stroke-width: 0.8"/>
      </g>
     </g>
     <g id="text_13">
      <!-- 40000 -->
      <g style="fill: #808080" transform="translate(8.379688 51.435707) scale(0.1 -0.1)">
       <use xlink:href="#DejaVuSans-34"/>
       <use xlink:href="#DejaVuSans-30" x="63.623047"/>
       <use xlink:href="#DejaVuSans-30" x="127.246094"/>
       <use xlink:href="#DejaVuSans-30" x="190.869141"/>
       <use xlink:href="#DejaVuSans-30" x="254.492188"/>
      </g>
     </g>
    </g>
   </g>
   <g id="line2d_14">
    <path d="M 75.092188 163.042918 
L 75.374148 162.641881 
L 75.656109 163.039177 
L 75.938069 162.644861 
L 76.22003 163.036895 
L 76.50199 162.646497 
L 76.783951 163.035861 
L 77.065912 162.646962 
L 77.347872 163.035937 
L 77.629833 162.646368 
L 77.911793 163.037035 
L 78.193754 162.644778 
L 78.475715 163.03911 
L 78.757675 162.64222 
L 79.039636 163.042152 
L 79.321596 162.638687 
L 79.603557 163.046184 
L 79.885517 162.634143 
L 80.167478 163.051258 
L 80.449439 162.628517 
L 80.731399 163.057461 
L 81.01336 162.621705 
L 81.29532 163.06492 
L 81.577281 162.613557 
L 81.859242 163.073806 
L 82.141202 162.603874 
L 82.423163 163.084355 
L 82.705123 162.592383 
L 82.987084 163.096877 
L 83.269044 162.578723 
L 83.551005 163.111798 
L 83.832966 162.562399 
L 84.114926 163.129694 
L 84.396887 162.542732 
L 84.678847 163.151371 
L 84.960808 162.51876 
L 85.242769 163.177982 
L 85.524729 162.48909 
L 85.80669 163.211226 
L 86.08865 162.451628 
L 86.370611 163.253716 
L 86.652572 162.403076 
L 86.934532 163.309674 
L 87.216493 162.337936 
L 87.498453 163.386393 
L 87.780414 162.246323 
L 88.062374 163.497622 
L 88.344335 162.108518 
L 88.626296 163.672705 
L 88.908256 161.8788 
L 89.190217 163.987192 
L 89.472177 161.422205 
L 89.754138 164.710189 
L 90.036099 160.102898 
L 90.318059 167.896555 
L 90.60002 138.815074 
L 90.88198 94.881328 
L 91.163941 95.857792 
L 91.445901 91.143761 
L 92.009823 110.689786 
L 92.573744 139.219278 
L 92.855704 151.169659 
L 93.419626 160.952316 
L 93.701586 162.387216 
L 94.547468 173.725609 
L 94.829429 174.708011 
L 95.111389 176.098974 
L 95.39335 176.82017 
L 95.67531 179.238553 
L 95.957271 179.406203 
L 96.239231 178.763372 
L 96.521192 176.566938 
L 96.803153 176.480579 
L 97.085113 177.024708 
L 97.367074 179.1678 
L 97.930995 181.436612 
L 98.212956 181.738642 
L 99.058837 189.383487 
L 99.340798 189.000306 
L 100.18668 186.526225 
L 100.46864 184.767559 
L 100.750601 184.438159 
L 101.032561 186.035953 
L 101.314522 188.770037 
L 101.596483 187.616415 
L 101.878443 181.248454 
L 102.442364 157.214265 
L 103.852167 87.121631 
L 104.134128 86.097382 
L 104.416088 92.20318 
L 105.825891 152.629262 
L 106.389813 166.021228 
L 106.953734 172.497086 
L 107.517655 175.765328 
L 108.645497 178.077639 
L 108.927458 178.812869 
L 109.77334 182.612468 
L 110.0553 182.419094 
L 110.619221 180.480397 
L 110.901182 180.299947 
L 111.183143 180.51064 
L 111.747064 182.019828 
L 112.310985 186.568353 
L 112.592945 189.044376 
L 112.874906 190.253765 
L 113.156867 190.69022 
L 113.438827 190.680535 
L 113.720788 190.840362 
L 114.002748 189.868127 
L 114.284709 186.316527 
L 114.56667 178.561654 
L 115.130591 151.703551 
L 115.976472 99.12137 
L 116.258433 88.14881 
L 116.540394 83.160626 
L 116.822354 83.370139 
L 117.104315 89.332852 
L 117.668236 115.926019 
L 118.232157 142.13656 
L 118.796078 156.123437 
L 119.923921 174.90741 
L 120.205881 175.956483 
L 120.487842 175.724864 
L 121.051763 174.049267 
L 121.333724 172.735027 
L 121.615684 172.191329 
L 121.897645 173.406617 
L 122.461566 179.245955 
L 122.743527 180.80679 
L 123.025487 181.584019 
L 123.871369 187.128011 
L 124.43529 186.550266 
L 124.717251 187.462107 
L 125.845093 194.679163 
L 126.409014 199.473329 
L 126.972935 202.178314 
L 127.254896 200.7152 
L 127.536857 193.961317 
L 127.818817 180.930639 
L 128.382738 139.034511 
L 128.946659 96.035702 
L 129.22862 82.068583 
L 129.510581 74.05012 
L 129.792541 71.98572 
L 130.074502 76.786536 
L 130.638423 103.529192 
L 131.202344 133.30025 
L 131.766265 149.224065 
L 133.458029 180.296444 
L 133.739989 183.204438 
L 134.585871 187.930523 
L 134.867832 186.489482 
L 135.431753 178.870828 
L 135.713714 177.949602 
L 136.277635 179.300432 
L 136.559595 179.605989 
L 136.841556 180.635613 
L 137.123516 182.851755 
L 137.687438 189.264096 
L 137.969398 190.774581 
L 138.251359 190.197177 
L 138.533319 189.308749 
L 138.81528 189.656711 
L 139.661162 193.354072 
L 140.225083 197.609206 
L 140.507043 197.878717 
L 140.789004 196.04184 
L 141.070965 191.442918 
L 141.352925 181.564985 
L 141.916846 140.518031 
L 142.480768 93.977547 
L 143.044689 65.648872 
L 143.326649 61.543152 
L 143.60861 64.445467 
L 143.890571 73.369745 
L 144.454492 105.967721 
L 145.018413 138.551942 
L 145.300373 146.86398 
L 146.710176 171.001764 
L 146.992137 172.945452 
L 147.274098 173.754672 
L 147.556058 174.093627 
L 147.838019 174.052579 
L 148.119979 173.613578 
L 148.6839 172.190093 
L 148.965861 172.734517 
L 149.529782 176.460586 
L 149.811743 177.200909 
L 150.375664 176.655695 
L 150.657625 177.112605 
L 150.939585 178.275267 
L 151.503506 182.473402 
L 152.349388 189.443895 
L 153.19527 201.48958 
L 153.759191 203.570716 
L 154.323112 207.518175 
L 154.605073 207.380227 
L 154.887033 206.637342 
L 155.168994 207.039426 
L 155.450955 207.686348 
L 155.732915 205.594334 
L 156.014876 198.926694 
L 156.296836 187.286185 
L 156.860757 148.813371 
L 157.706639 83.444228 
L 157.9886 71.227956 
L 158.27056 66.080313 
L 158.552521 68.1729 
L 158.834482 77.279645 
L 160.244285 147.392768 
L 161.654087 175.607243 
L 161.936048 177.877316 
L 162.499969 178.328345 
L 162.78193 179.662084 
L 163.06389 179.742676 
L 163.345851 176.112717 
L 163.909772 164.842953 
L 164.191733 162.499213 
L 164.473693 161.992942 
L 165.037614 161.634629 
L 165.319575 162.167043 
L 165.601536 164.368231 
L 166.165457 171.316398 
L 166.447417 173.234447 
L 167.293299 176.410169 
L 167.57526 176.524257 
L 167.85722 177.327469 
L 168.703102 185.055932 
L 169.267023 184.411822 
L 169.548984 186.216893 
L 170.112905 193.897366 
L 170.394866 195.82074 
L 170.676826 195.846046 
L 170.958787 195.620562 
L 171.240747 196.285553 
L 171.804669 198.42894 
L 172.086629 198.949252 
L 172.36859 197.987196 
L 172.65055 193.335669 
L 172.932511 183.221015 
L 173.496432 148.405589 
L 174.342314 93.188289 
L 174.624274 81.310757 
L 174.906235 74.618507 
L 175.188196 75.281673 
L 175.470156 84.298534 
L 176.316038 129.065824 
L 176.879959 145.269603 
L 178.007801 168.891734 
L 178.289762 171.331718 
L 178.571723 172.538858 
L 178.853683 172.668786 
L 179.135644 171.408321 
L 179.417604 169.555631 
L 179.699565 168.678218 
L 179.981526 168.657213 
L 180.545447 166.962786 
L 180.827407 168.63181 
L 181.391328 178.294277 
L 181.673289 179.286954 
L 181.95525 178.163361 
L 182.23721 178.349372 
L 182.519171 179.962437 
L 182.801131 180.519429 
L 183.365053 178.523256 
L 183.647013 179.41533 
L 185.620737 193.418213 
L 185.902698 193.775695 
L 186.184658 193.50129 
L 186.466619 193.452706 
L 186.74858 194.284273 
L 187.03054 195.696148 
L 187.312501 196.063677 
L 187.594461 193.37905 
L 187.876422 186.952946 
L 188.440343 165.022236 
L 189.004264 129.505399 
L 189.568185 92.669655 
L 189.850146 81.583554 
L 190.132107 77.206784 
L 190.414067 80.30158 
L 190.696028 90.911474 
L 191.82387 148.245671 
L 192.387791 165.443109 
L 192.669752 169.194334 
L 193.233673 173.260973 
L 193.515634 176.131373 
L 193.797594 177.222901 
L 194.643476 173.310383 
L 195.207397 173.636764 
L 195.489358 174.020823 
L 196.053279 175.327246 
L 196.33524 175.060405 
L 196.899161 173.527947 
L 197.181121 173.700337 
L 198.027003 175.298822 
L 198.308964 177.528782 
L 199.154845 187.850603 
L 200.000727 194.372234 
L 200.282688 194.159762 
L 200.846609 192.257013 
L 201.12857 191.881245 
L 201.41053 190.594793 
L 201.692491 186.777962 
L 201.974451 178.804136 
L 202.538372 149.20479 
L 203.384254 103.202956 
L 203.666215 93.446851 
L 203.948175 88.260476 
L 204.230136 89.148352 
L 204.512097 96.697275 
L 205.639939 147.813946 
L 207.049742 176.921385 
L 207.331702 180.39801 
L 207.613663 181.797646 
L 207.895624 181.076983 
L 208.459545 178.552004 
L 209.023466 177.206781 
L 209.305427 177.57935 
L 209.869348 180.989527 
L 210.715229 183.71132 
L 210.99719 184.695366 
L 211.279151 184.606382 
L 211.561111 184.31439 
L 212.125032 184.98127 
L 212.406993 184.869754 
L 212.688954 185.512361 
L 214.098756 197.487726 
L 214.380717 198.384083 
L 214.662678 195.612363 
L 214.944638 187.906072 
L 215.508559 158.488238 
L 216.636402 88.57969 
L 216.918362 79.010126 
L 217.200323 76.598723 
L 217.482284 81.92337 
L 218.046205 109.017085 
L 218.610126 139.19241 
L 219.174047 153.972618 
L 220.301889 172.550209 
L 220.865811 175.990607 
L 222.275613 182.707608 
L 222.557574 182.50603 
L 222.839535 181.896857 
L 223.121495 181.828167 
L 224.531298 186.27006 
L 226.223062 198.840706 
L 226.505022 198.952317 
L 226.786983 198.190854 
L 227.068943 196.6301 
L 227.350904 193.768235 
L 227.632865 188.242258 
L 227.914825 178.060492 
L 228.478746 142.480572 
L 229.042668 107.758738 
L 229.606589 81.478515 
L 229.888549 73.737344 
L 230.17051 73.922667 
L 230.45247 81.704419 
L 231.016392 110.563572 
L 231.580313 143.473042 
L 232.144234 162.630869 
L 232.990116 182.014072 
L 233.272076 184.656573 
L 233.554037 185.068504 
L 233.835998 184.76957 
L 234.117958 184.73765 
L 234.399919 185.044439 
L 234.681879 185.703591 
L 235.2458 187.98682 
L 236.373643 192.474919 
L 236.655603 192.425417 
L 237.501485 190.0125 
L 237.783446 190.696951 
L 238.347367 196.353195 
L 238.911288 201.304378 
L 239.193249 203.346731 
L 239.475209 204.186529 
L 239.75717 201.186733 
L 240.03913 192.942826 
L 240.603052 164.22069 
L 242.012855 69.658234 
L 242.294815 64.378232 
L 242.576776 65.707842 
L 242.858736 73.62308 
L 243.422657 105.37356 
L 243.986579 140.196305 
L 244.5505 160.0249 
L 245.114421 172.708769 
L 245.678342 180.839355 
L 246.242263 186.404173 
L 246.524224 187.936562 
L 246.806184 188.020451 
L 247.934027 184.49627 
L 248.215987 184.812342 
L 248.497948 185.957442 
L 249.34383 191.075745 
L 250.189712 197.799154 
L 250.753633 200.507488 
L 251.317554 205.671994 
L 251.599514 208.44962 
L 251.881475 209.602655 
L 252.163436 207.325844 
L 252.445396 199.899796 
L 252.727357 186.389872 
L 253.291278 142.191193 
L 253.855199 93.217806 
L 254.41912 62.921877 
L 254.701081 56.753899 
L 254.983041 58.306551 
L 255.265002 67.979032 
L 255.828923 103.683398 
L 256.674805 159.310877 
L 256.956766 168.072986 
L 257.520687 177.510457 
L 257.802647 180.214971 
L 258.084608 180.788117 
L 258.366569 180.855389 
L 258.93049 183.084321 
L 259.21245 181.931157 
L 259.776371 175.318786 
L 260.058332 173.812179 
L 260.340293 174.778188 
L 261.468135 186.967001 
L 262.314017 200.950003 
L 262.877938 204.537937 
L 264.00578 215.4549 
L 264.287741 217.004366 
L 264.569701 214.370232 
L 264.851662 206.39427 
L 265.133623 192.722392 
L 265.697544 143.590925 
L 266.261465 87.724049 
L 266.825386 50.042532 
L 267.107347 41.135546 
L 267.389307 43.14291 
L 267.671268 53.886767 
L 268.235189 87.182542 
L 269.081071 152.758767 
L 269.363031 165.359163 
L 269.926953 177.701801 
L 270.490874 184.815463 
L 271.054795 189.46037 
L 271.900677 196.030285 
L 272.182637 196.44382 
L 272.464598 196.075329 
L 272.746558 196.695481 
L 273.31048 199.795597 
L 273.59244 200.244988 
L 273.874401 201.399421 
L 274.438322 207.335205 
L 274.720282 208.521775 
L 275.002243 208.231926 
L 275.284204 208.565279 
L 276.412046 215.176554 
L 276.694007 215.012819 
L 276.975967 211.378919 
L 277.257928 202.655583 
L 277.539888 187.984467 
L 278.10381 139.728556 
L 278.949691 60.143595 
L 279.231652 43.001488 
L 279.513612 35.476333 
L 279.795573 38.982718 
L 280.359494 63.923347 
L 280.923415 102.001687 
L 281.487337 149.195204 
L 281.769297 164.523319 
L 282.051258 173.22292 
L 282.615179 181.77524 
L 283.1791 185.200726 
L 283.461061 186.230803 
L 283.743021 186.681618 
L 284.024982 186.151814 
L 284.306942 185.95513 
L 284.588903 187.594514 
L 285.152824 192.217938 
L 285.716745 192.699808 
L 286.280667 194.635299 
L 286.562627 196.250578 
L 287.126548 203.220522 
L 288.536351 221.767755 
L 288.818312 222.961145 
L 289.100272 221.773651 
L 289.382233 217.096285 
L 289.664194 207.335245 
L 289.946154 191.250295 
L 290.510075 140.639964 
L 291.355957 62.788494 
L 291.637918 47.721154 
L 291.919878 41.566129 
L 292.201839 44.103429 
L 292.76576 60.796199 
L 293.047721 71.862987 
L 293.611642 109.914265 
L 294.175563 153.174756 
L 294.457524 165.399218 
L 295.021445 176.7892 
L 295.585366 183.818281 
L 295.867326 184.71842 
L 296.149287 183.565429 
L 296.713208 178.033356 
L 296.995169 177.156675 
L 297.55909 179.24314 
L 298.123011 178.90477 
L 298.686932 180.675338 
L 298.968893 179.418834 
L 299.532814 171.984425 
L 300.096735 163.120472 
L 300.378696 160.708273 
L 300.660656 160.864288 
L 300.942617 162.984722 
L 301.506538 171.219916 
L 301.788499 175.671311 
L 302.070459 178.046982 
L 302.35242 177.968808 
L 303.480262 171.978935 
L 303.762223 171.609963 
L 304.326144 172.293934 
L 304.890065 172.684083 
L 305.453986 173.830776 
L 306.017908 175.097838 
L 306.299868 174.766783 
L 306.863789 172.809936 
L 307.14575 173.71523 
L 308.273592 183.040343 
L 308.555553 184.007457 
L 309.119474 184.913225 
L 309.401435 186.386097 
L 310.811238 200.309798 
L 311.93908 214.585056 
L 312.22104 217.814466 
L 313.630843 226.406458 
L 313.912804 220.518476 
L 314.194765 205.710706 
L 314.758686 152.971428 
L 315.886528 22.16115 
L 316.168489 12.096 
L 316.450449 14.382095 
L 317.01437 30.049847 
L 317.578292 55.622079 
L 318.142213 90.35573 
L 318.988095 155.564086 
L 319.270055 166.003847 
L 320.115937 183.029731 
L 320.397897 186.392132 
L 321.8077 191.832125 
L 322.089661 191.69707 
L 322.371622 190.76562 
L 322.935543 187.543955 
L 323.217503 187.391938 
L 323.499464 189.686147 
L 325.755149 222.861667 
L 326.31907 227.749267 
L 326.60103 227.718748 
L 326.882991 222.585115 
L 327.164952 210.083083 
L 327.728873 164.749389 
L 328.856715 57.322355 
L 329.138676 46.434638 
L 329.420636 46.881425 
L 330.266518 61.804004 
L 330.548479 71.362923 
L 331.1124 102.36323 
L 331.958281 155.979566 
L 332.522203 175.6629 
L 333.086124 184.588452 
L 334.213966 197.725042 
L 334.777887 200.781015 
L 335.623769 204.343544 
L 335.90573 205.400233 
L 336.469651 211.114118 
L 337.033572 217.694316 
L 337.879454 231.070781 
L 338.443375 234.852131 
L 338.725336 235.655355 
L 339.007296 233.927989 
L 339.289257 226.691161 
L 339.571217 212.105054 
L 340.135138 165.502153 
L 341.262981 54.82038 
L 341.544941 41.687519 
L 341.826902 38.814163 
L 342.390823 41.795111 
L 342.672784 45.169944 
L 342.954744 53.347434 
L 343.518666 83.935635 
L 344.646508 167.871679 
L 344.928468 175.848299 
L 345.49239 183.712578 
L 346.056311 188.735319 
L 346.620232 193.686317 
L 347.184153 198.81121 
L 347.466114 200.13025 
L 347.748074 200.768077 
L 348.311995 200.828597 
L 348.593956 201.740164 
L 349.439838 205.776334 
L 349.721798 209.134344 
L 350.849641 227.583635 
L 351.413562 234.655235 
L 351.695523 237.190921 
L 351.977483 237.836861 
L 352.259444 232.678662 
L 352.541404 218.605845 
L 353.105325 169.928608 
L 354.233168 48.430847 
L 354.515128 39.91362 
L 355.07905 36.722346 
L 355.36101 36.708806 
L 355.642971 40.884042 
L 356.206892 60.272075 
L 356.770813 95.185287 
L 357.616695 158.419285 
L 357.898655 169.016333 
L 358.180616 175.041396 
L 358.744537 181.011467 
L 359.308458 185.157685 
L 359.87238 187.615081 
L 360.718261 194.637408 
L 361.000222 195.643055 
L 361.282182 197.486982 
L 361.846104 202.564889 
L 362.128064 204.111403 
L 362.410025 206.279532 
L 362.973946 215.635532 
L 363.537867 226.549561 
L 364.383749 240.046424 
L 364.94767 249.616525 
L 365.511591 254.016 
L 365.793552 251.67991 
L 366.075512 240.502135 
L 366.639434 190.609863 
L 367.767276 52.172193 
L 368.049237 38.362231 
L 368.331197 32.097756 
L 368.613158 29.473066 
L 368.895118 30.436486 
L 369.459039 40.026338 
L 369.741 47.187455 
L 370.022961 57.790943 
L 370.586882 92.170194 
L 371.432764 156.400839 
L 371.714724 166.632785 
L 372.278645 175.054994 
L 373.406488 185.759456 
L 373.688448 186.620997 
L 374.252369 185.746964 
L 374.53433 185.840083 
L 374.816291 186.146582 
L 375.098251 186.898521 
L 375.662172 190.111212 
L 375.944133 192.591685 
L 376.226094 196.898857 
L 377.071975 214.133561 
L 377.917857 222.783865 
L 378.763739 236.44382 
L 379.609621 252.727493 
L 379.891581 253.703792 
L 380.173542 248.574009 
L 380.455502 234.424412 
L 380.737463 209.481035 
L 382.147266 45.296716 
L 382.429226 34.249763 
L 382.711187 29.940233 
L 382.993148 31.254954 
L 383.839029 45.842579 
L 384.12099 52.380334 
L 384.684911 74.526917 
L 385.248832 114.656351 
L 385.812753 163.797481 
L 386.094714 176.754524 
L 386.658635 185.671814 
L 387.222556 193.079769 
L 387.786478 195.181284 
L 388.068438 196.373447 
L 388.350399 196.682279 
L 388.91432 194.044317 
L 389.19628 194.504675 
L 389.478241 197.169252 
L 390.042162 204.3882 
L 390.606083 208.551443 
L 391.451965 213.146419 
L 391.733926 214.748438 
L 392.297847 221.688256 
L 393.143729 233.162475 
L 393.70765 243.558174 
L 393.98961 245.981035 
L 394.271571 245.231032 
L 394.553532 238.694779 
L 394.835492 222.886217 
L 395.399413 163.104407 
L 396.245295 61.531854 
L 396.527256 44.734587 
L 396.809216 38.181829 
L 397.091177 36.754436 
L 397.373137 37.366871 
L 397.655098 40.338936 
L 398.50098 55.841809 
L 398.78294 64.796553 
L 399.346862 94.55429 
L 400.474704 175.760936 
L 400.756665 181.942203 
L 401.038625 183.465621 
L 401.602546 184.42296 
L 401.884507 184.274524 
L 402.166467 184.596228 
L 402.448428 185.960404 
L 403.012349 190.466789 
L 403.57627 196.334889 
L 404.140192 204.530016 
L 404.704113 214.755282 
L 404.986073 217.607104 
L 405.549994 220.886129 
L 406.395876 228.293782 
L 406.959797 237.00826 
L 407.805679 250.873769 
L 408.08764 253.160132 
L 408.3696 248.916494 
L 408.651561 234.112788 
L 409.215482 172.083338 
L 410.061364 58.268329 
L 410.343324 39.164942 
L 410.625285 31.423802 
L 410.907246 30.634733 
L 411.189206 33.846852 
L 412.599009 61.560364 
L 413.16293 88.018323 
L 413.726851 135.321199 
L 414.290773 178.864602 
L 414.572733 187.963211 
L 415.136654 196.366732 
L 415.418615 197.475949 
L 415.982536 196.023264 
L 417.392339 198.749964 
L 417.6743 199.464819 
L 417.95626 201.025522 
L 418.520181 208.739518 
L 420.211945 231.793117 
L 420.493906 234.207306 
L 421.339787 244.808191 
L 421.621748 246.118904 
L 421.903708 243.847695 
L 422.185669 233.476658 
L 422.46763 211.347415 
L 423.031551 138.447818 
L 423.595472 63.591026 
L 423.877433 41.578316 
L 424.159393 32.566576 
L 424.441354 30.829352 
L 424.723314 31.440786 
L 425.005275 34.121111 
L 425.851157 51.921246 
L 426.133117 58.999384 
L 426.697038 84.164289 
L 427.26096 129.841538 
L 427.824881 177.898147 
L 428.106841 190.057605 
L 428.388802 196.076527 
L 428.670763 199.496721 
L 428.952723 201.244906 
L 429.234684 201.969088 
L 429.516644 202.322374 
L 429.798605 202.135527 
L 430.080565 201.156148 
L 430.362526 201.186514 
L 430.644487 203.528624 
L 431.208408 209.13508 
L 431.490368 211.164215 
L 432.33625 220.476069 
L 432.900171 224.653848 
L 433.746053 234.652227 
L 434.591935 246.842203 
L 434.873895 248.419779 
L 435.155856 246.784146 
L 435.437817 237.908972 
L 435.719777 217.661025 
L 436.283698 145.697968 
L 436.84762 69.217178 
L 437.12958 46.54588 
L 437.411541 37.028019 
L 437.693501 36.063688 
L 437.975462 38.049028 
L 438.257422 41.161299 
L 438.821344 52.673958 
L 439.385265 68.514239 
L 439.949186 93.608176 
L 440.513107 137.597578 
L 441.077028 188.684993 
L 441.358989 202.221837 
L 441.64095 207.2133 
L 442.486831 212.364976 
L 442.768792 211.256834 
L 443.332713 204.747562 
L 444.460555 189.57449 
L 444.742516 188.176088 
L 445.024477 188.565092 
L 445.588398 191.627558 
L 445.870358 193.850529 
L 446.434279 201.061859 
L 446.998201 212.833965 
L 447.562122 228.477675 
L 447.844082 233.108485 
L 448.126043 233.580212 
L 448.408004 228.120147 
L 448.689964 213.716502 
L 449.253885 153.89353 
L 449.817806 79.267212 
L 450.099767 55.107406 
L 450.381728 44.341063 
L 450.663688 42.635815 
L 451.227609 44.960633 
L 451.50957 46.828287 
L 451.791531 50.758356 
L 452.355452 66.193429 
L 452.919373 90.078222 
L 453.483294 132.358021 
L 454.047215 181.361001 
L 454.329176 193.682443 
L 454.611136 197.827726 
L 455.175058 200.162606 
L 455.738979 203.328916 
L 456.020939 204.418587 
L 456.584861 208.513719 
L 456.866821 210.654984 
L 457.148782 211.510157 
L 457.430742 211.518605 
L 457.712703 211.881205 
L 457.994663 213.553147 
L 458.558585 219.209065 
L 459.404466 230.056781 
L 460.532309 246.890727 
L 460.814269 247.460043 
L 461.09623 244.584073 
L 461.378191 236.994047 
L 461.660151 221.526185 
L 461.942112 194.810552 
L 463.069954 51.028646 
L 463.351915 39.672582 
L 463.633875 35.8331 
L 463.915836 34.551337 
L 464.197796 35.370643 
L 464.479757 39.277542 
L 465.043678 54.319682 
L 465.607599 77.177886 
L 466.17152 110.969333 
L 467.299363 192.338848 
L 467.581323 197.252023 
L 467.863284 198.575347 
L 468.709166 203.716111 
L 468.991126 203.58463 
L 469.273087 203.115643 
L 469.555048 201.607336 
L 470.118969 196.681284 
L 470.400929 196.519246 
L 470.96485 199.240349 
L 471.246811 201.534245 
L 471.810732 212.60852 
L 472.374653 222.66458 
L 474.066417 242.146797 
L 474.348377 240.454844 
L 474.630338 230.304871 
L 474.912299 208.72958 
L 475.47622 133.630605 
L 476.040141 61.644145 
L 476.322102 46.011482 
L 476.604062 41.2267 
L 476.886023 40.297073 
L 477.167983 40.772859 
L 477.449944 43.452164 
L 478.013865 54.75678 
L 478.577786 72.745974 
L 479.141707 101.697602 
L 480.26955 188.476079 
L 480.55151 196.784246 
L 480.833471 198.776086 
L 481.115432 198.547974 
L 481.397392 198.838551 
L 481.961313 201.350765 
L 482.525234 201.635324 
L 482.807195 202.885058 
L 483.371116 206.89377 
L 483.653077 208.029713 
L 483.935037 208.697615 
L 484.216998 209.663666 
L 484.498959 212.216903 
L 486.754643 246.101777 
L 487.036604 247.026349 
L 487.318564 242.199303 
L 487.600525 229.129366 
L 487.882486 206.569139 
L 488.446407 129.269211 
L 489.010328 55.524472 
L 489.292289 40.779213 
L 489.574249 35.11357 
L 489.85621 31.942018 
L 490.13817 30.941983 
L 490.420131 32.926 
L 490.702091 36.880205 
L 490.984052 42.41946 
L 491.266013 51.469524 
L 491.829934 80.479946 
L 492.393855 123.143056 
L 492.957776 171.753383 
L 493.239737 186.019955 
L 493.521697 192.619526 
L 494.085619 197.490757 
L 494.64954 200.882648 
L 494.9315 202.307935 
L 495.495421 206.167758 
L 495.777382 206.436068 
L 496.341303 203.840283 
L 496.623264 203.637922 
L 496.905224 204.200349 
L 497.187185 205.177444 
L 497.469146 207.482431 
L 498.033067 216.643967 
L 498.878948 231.533124 
L 499.44287 236.309504 
L 499.72483 238.187787 
L 500.006791 238.760299 
L 500.288751 234.897148 
L 500.570712 223.094677 
L 500.852673 200.901384 
L 501.416594 125.718943 
L 501.980515 58.140414 
L 502.262476 44.759363 
L 502.544436 40.693465 
L 502.826397 40.105863 
L 503.108357 41.45276 
L 503.390318 44.885304 
L 503.954239 57.999663 
L 504.51816 80.349663 
L 505.082081 111.907386 
L 505.927963 177.915589 
L 506.209924 187.586274 
L 506.773845 194.753197 
L 507.055805 197.930211 
L 507.337766 198.918794 
L 507.619727 198.035775 
L 507.901687 198.070802 
L 508.465608 202.952715 
L 509.02953 204.944489 
L 509.593451 210.762448 
L 510.721293 223.233306 
L 512.413057 242.12686 
L 512.695017 244.663677 
L 512.976978 242.621555 
L 513.258938 231.666106 
L 513.540899 208.859701 
L 514.10482 129.722405 
L 514.668741 54.433302 
L 514.950702 38.631618 
L 515.232662 33.871035 
L 515.514623 33.15557 
L 515.796584 33.823335 
L 516.078544 37.19238 
L 516.642465 52.655036 
L 517.488347 85.283887 
L 518.052268 122.807529 
L 518.89815 188.359564 
L 519.180111 199.262295 
L 519.462071 204.849557 
L 519.744032 207.08508 
L 520.025992 208.394232 
L 520.307953 210.494926 
L 520.589914 213.463522 
L 520.871874 215.007689 
L 521.153835 213.614526 
L 521.435795 210.552569 
L 521.717756 208.977709 
L 521.999717 209.775203 
L 522.845598 214.883897 
L 523.409519 221.373196 
L 524.537362 237.402591 
L 525.101283 240.092973 
L 525.383244 239.693833 
L 525.665204 233.077494 
L 525.947165 216.880588 
L 526.229125 189.858544 
L 527.356968 53.204668 
L 527.638928 46.275305 
L 528.202849 39.862946 
L 528.48481 39.973982 
L 529.330692 54.96021 
L 529.612652 61.677706 
L 530.176574 90.613704 
L 530.740495 127.716883 
L 531.586376 193.795256 
L 531.868337 201.659444 
L 532.150298 204.020472 
L 532.714219 206.313703 
L 532.996179 206.429625 
L 533.27814 206.759843 
L 533.842061 209.040815 
L 534.124022 208.733999 
L 534.405982 208.244574 
L 534.687943 209.259303 
L 536.097746 220.704013 
L 536.379706 225.214221 
L 536.943628 239.361493 
L 537.507549 246.188624 
L 537.789509 248.938387 
L 538.07147 248.64544 
L 538.353431 240.161772 
L 538.635391 220.445158 
L 539.199312 145.236578 
L 539.763233 65.883666 
L 540.045194 47.582227 
L 540.327155 40.889156 
L 540.609115 38.53428 
L 540.891076 38.697023 
L 541.173036 42.164984 
L 542.300879 67.869116 
L 542.8648 86.774388 
L 543.428721 117.136534 
L 544.556563 197.32695 
L 544.838524 204.118014 
L 545.402445 209.364972 
L 545.684406 210.661086 
L 546.248327 211.308152 
L 547.094209 213.857574 
L 547.376169 213.414183 
L 547.65813 213.279369 
L 547.94009 215.054303 
L 548.504012 221.80182 
L 548.785972 222.21913 
L 549.067933 222.104105 
L 549.349893 224.641578 
L 549.913815 232.475236 
L 550.759696 241.866571 
L 551.041657 240.041663 
L 551.323618 231.364539 
L 551.605578 213.712303 
L 551.887539 182.641861 
L 552.73342 62.839912 
L 553.015381 48.117552 
L 553.297342 42.317765 
L 553.579302 38.986107 
L 553.861263 38.554602 
L 554.143223 41.823526 
L 554.707145 52.532866 
L 555.271066 68.624399 
L 555.834987 87.896508 
L 556.398908 119.063745 
L 557.24479 176.36676 
L 557.808711 198.119746 
L 558.090672 202.449889 
L 558.654593 205.010593 
L 559.218514 209.524304 
L 559.500475 208.564717 
L 560.064396 203.540433 
L 560.346356 202.572936 
L 560.628317 202.463862 
L 560.910277 203.507932 
L 561.474199 210.735957 
L 562.03812 219.791061 
L 562.602041 230.897962 
L 563.165962 236.286722 
L 563.729883 243.126476 
L 564.011844 244.39815 
L 564.293804 241.202795 
L 564.575765 232.029802 
L 564.857726 211.943107 
L 565.985568 71.405228 
L 566.549489 50.272468 
L 566.83145 44.688409 
L 567.11341 43.486607 
L 567.395371 45.367515 
L 567.677332 48.247422 
L 567.959292 53.249523 
L 568.805174 76.496379 
L 569.087134 88.300893 
L 570.778898 194.560821 
L 571.060859 201.798184 
L 571.342819 204.736555 
L 571.90674 208.083632 
L 572.470661 212.797145 
L 572.752622 213.781328 
L 573.034583 213.234289 
L 573.880464 208.80791 
L 574.162425 208.623192 
L 574.444386 209.697894 
L 575.290267 215.948389 
L 576.41811 231.695558 
L 576.982031 234.846612 
L 577.545952 239.186332 
L 577.827913 238.482592 
L 578.109873 232.291592 
L 578.391834 215.76859 
L 578.673794 184.252894 
L 579.519676 59.105348 
L 579.801637 41.564844 
L 580.083597 33.53787 
L 580.365558 29.194117 
L 580.647518 28.397388 
L 580.929479 31.979533 
L 581.775361 50.132159 
L 582.621243 80.495087 
L 583.185164 109.416797 
L 584.313006 183.036778 
L 584.594967 192.12583 
L 584.876927 196.866432 
L 585.440848 200.504385 
L 585.722809 201.265535 
L 586.00477 201.629915 
L 586.28673 201.504384 
L 586.568691 200.786466 
L 586.850651 199.310293 
L 587.132612 198.597409 
L 587.414573 200.212468 
L 588.542415 215.668999 
L 589.106336 225.577356 
L 590.516139 241.855764 
L 591.08006 248.696355 
L 591.362021 248.19381 
L 591.643981 241.459646 
L 591.925942 224.595406 
L 592.207903 193.196199 
L 593.053784 70.618906 
L 593.335745 54.767104 
L 593.899666 43.016468 
L 594.181627 41.900276 
L 594.463587 45.126783 
L 595.027508 55.953846 
L 595.59143 71.116739 
L 596.155351 89.330118 
L 596.719272 120.418251 
L 597.847114 197.127455 
L 598.411035 216.395198 
L 598.692996 220.236497 
L 598.974957 222.023539 
L 599.256917 222.728313 
L 599.538878 222.990797 
L 599.820838 222.309377 
L 600.38476 218.448304 
L 601.230641 212.095141 
L 601.512602 212.381578 
L 602.076523 216.432996 
L 602.358484 217.112252 
L 602.640444 217.381515 
L 602.922405 219.508701 
L 603.768287 233.5668 
L 604.050247 233.784666 
L 604.332208 228.711339 
L 604.614168 214.255277 
L 604.896129 184.420023 
L 605.742011 61.612508 
L 606.023971 46.477516 
L 606.305932 41.743556 
L 606.587892 40.029078 
L 606.869853 40.623058 
L 607.151814 44.266481 
L 607.715735 56.937657 
L 609.125538 100.223446 
L 609.689459 134.623776 
L 610.535341 189.07799 
L 610.817301 201.633429 
L 611.099262 208.324708 
L 611.381222 210.55795 
L 611.945144 211.29874 
L 612.227104 211.200989 
L 612.509065 210.549062 
L 613.072986 207.921279 
L 613.354946 207.740484 
L 613.636907 210.48243 
L 614.482789 224.94217 
L 615.610631 237.081037 
L 616.174552 244.845433 
L 616.456513 246.184768 
L 616.738474 241.364749 
L 617.020434 225.712372 
L 617.584355 152.764444 
L 618.148276 79.7541 
L 618.430237 63.545076 
L 618.994158 50.608602 
L 619.276119 47.990809 
L 619.558079 47.898429 
L 619.84004 49.894223 
L 620.122001 54.057827 
L 620.685922 69.34381 
L 621.249843 88.764304 
L 621.813764 119.351571 
L 622.941606 191.41719 
L 623.505528 210.335302 
L 623.787488 215.097092 
L 624.069449 217.180867 
L 624.351409 217.248958 
L 624.63337 217.18661 
L 625.197291 218.430728 
L 625.479252 218.174646 
L 625.761212 218.540026 
L 626.043173 220.63701 
L 626.889055 230.953593 
L 628.016897 247.407151 
L 628.298858 247.426623 
L 628.580818 244.517517 
L 628.862779 236.785058 
L 629.144739 220.028745 
L 629.70866 144.967976 
L 630.272582 71.926748 
L 630.554542 57.405074 
L 631.118463 48.796932 
L 631.400424 48.277019 
L 631.682385 48.645651 
L 632.246306 53.400449 
L 632.810227 66.170898 
L 633.092188 85.932742 
L 633.092188 85.932742 
" clip-path="url(#p03017b2e24)" style="fill: none; stroke: #1f77b4; stroke-width: 1.5; stroke-linecap: square"/>
   </g>
   <g id="patch_3">
    <path d="M 47.192188 266.112 
L 47.192188 0 
" style="fill: none; stroke: #808080; stroke-width: 0.8; stroke-linejoin: miter; stroke-linecap: square"/>
   </g>
   <g id="patch_4">
    <path d="M 660.992188 266.112 
L 660.992188 0 
" style="fill: none; stroke: #000000; stroke-width: 0.8; stroke-linejoin: miter; stroke-linecap: square"/>
   </g>
   <g id="patch_5">
    <path d="M 47.192188 266.112 
L 660.992188 266.112 
" style="fill: none; stroke: #808080; stroke-width: 0.8; stroke-linejoin: miter; stroke-linecap: square"/>
   </g>
   <g id="patch_6">
    <path d="M 47.192188 0 
L 660.992188 0 
" style="fill: none; stroke: #000000; stroke-width: 0.8; stroke-linejoin: miter; stroke-linecap: square"/>
   </g>
  </g>
 </g>
 <defs>
  <clipPath id="p03017b2e24">
   <rect x="47.192188" y="0" width="613.8" height="266.112"/>
  </clipPath>
 </defs>
</svg>
