<?xml version="1.0" encoding="utf-8" standalone="no"?>
<!DOCTYPE svg PUBLIC "-//W3C//DTD SVG 1.1//EN"
  "http://www.w3.org/Graphics/SVG/1.1/DTD/svg11.dtd">
<svg xmlns:xlink="http://www.w3.org/1999/xlink" width="660.992188pt" height="282.790125pt" viewBox="0 0 660.992188 282.790125" xmlns="http://www.w3.org/2000/svg" version="1.1">
 <metadata>
  <rdf:RDF xmlns:dc="http://purl.org/dc/elements/1.1/" xmlns:cc="http://creativecommons.org/ns#" xmlns:rdf="http://www.w3.org/1999/02/22-rdf-syntax-ns#">
   <cc:Work>
    <dc:type rdf:resource="http://purl.org/dc/dcmitype/StillImage"/>
    <dc:date>2023-03-06T21:26:16.416341</dc:date>
    <dc:format>image/svg+xml</dc:format>
    <dc:creator>
     <cc:Agent>
      <dc:title>Matplotlib v3.6.3, https://matplotlib.org/</dc:title>
     </cc:Agent>
    </dc:creator>
   </cc:Work>
  </rdf:RDF>
 </metadata>
 <defs>
  <style type="text/css">*{stroke-linejoin: round; stroke-linecap: butt}</style>
 </defs>
 <g id="figure_1">
  <g id="patch_1">
   <path d="M -0 282.790125 
L 660.992188 282.790125 
L 660.992188 0 
L -0 0 
L -0 282.790125 
z
" style="fill: none"/>
  </g>
  <g id="axes_1">
   <g id="patch_2">
    <path d="M 47.192188 266.112 
L 660.992188 266.112 
L 660.992188 0 
L 47.192188 0 
L 47.192188 266.112 
z
" style="fill: none"/>
   </g>
   <g id="matplotlib.axis_1">
    <g id="xtick_1">
     <g id="line2d_1">
      <defs>
       <path id="m04b4509fa5" d="M 0 0 
L 0 3.5 
" style="stroke: #808080; stroke-width: 0.8"/>
      </defs>
      <g>
       <use xlink:href="#m04b4509fa5" x="75.092188" y="266.112" style="fill: #808080; stroke: #808080; stroke-width: 0.8"/>
      </g>
     </g>
     <g id="text_1">
      <!-- 0 -->
      <g style="fill: #808080" transform="translate(71.910938 280.710438) scale(0.1 -0.1)">
       <defs>
        <path id="DejaVuSans-30" d="M 2034 4250 
Q 1547 4250 1301 3770 
Q 1056 3291 1056 2328 
Q 1056 1369 1301 889 
Q 1547 409 2034 409 
Q 2525 409 2770 889 
Q 3016 1369 3016 2328 
Q 3016 3291 2770 3770 
Q 2525 4250 2034 4250 
z
M 2034 4750 
Q 2819 4750 3233 4129 
Q 3647 3509 3647 2328 
Q 3647 1150 3233 529 
Q 2819 -91 2034 -91 
Q 1250 -91 836 529 
Q 422 1150 422 2328 
Q 422 3509 836 4129 
Q 1250 4750 2034 4750 
z
" transform="scale(0.015625)"/>
       </defs>
       <use xlink:href="#DejaVuSans-30"/>
      </g>
     </g>
    </g>
    <g id="xtick_2">
     <g id="line2d_2">
      <g>
       <use xlink:href="#m04b4509fa5" x="144.842188" y="266.112" style="fill: #808080; stroke: #808080; stroke-width: 0.8"/>
      </g>
     </g>
     <g id="text_2">
      <!-- 500 -->
      <g style="fill: #808080" transform="translate(135.298438 280.710438) scale(0.1 -0.1)">
       <defs>
        <path id="DejaVuSans-35" d="M 691 4666 
L 3169 4666 
L 3169 4134 
L 1269 4134 
L 1269 2991 
Q 1406 3038 1543 3061 
Q 1681 3084 1819 3084 
Q 2600 3084 3056 2656 
Q 3513 2228 3513 1497 
Q 3513 744 3044 326 
Q 2575 -91 1722 -91 
Q 1428 -91 1123 -41 
Q 819 9 494 109 
L 494 744 
Q 775 591 1075 516 
Q 1375 441 1709 441 
Q 2250 441 2565 725 
Q 2881 1009 2881 1497 
Q 2881 1984 2565 2268 
Q 2250 2553 1709 2553 
Q 1456 2553 1204 2497 
Q 953 2441 691 2322 
L 691 4666 
z
" transform="scale(0.015625)"/>
       </defs>
       <use xlink:href="#DejaVuSans-35"/>
       <use xlink:href="#DejaVuSans-30" x="63.623047"/>
       <use xlink:href="#DejaVuSans-30" x="127.246094"/>
      </g>
     </g>
    </g>
    <g id="xtick_3">
     <g id="line2d_3">
      <g>
       <use xlink:href="#m04b4509fa5" x="214.592188" y="266.112" style="fill: #808080; stroke: #808080; stroke-width: 0.8"/>
      </g>
     </g>
     <g id="text_3">
      <!-- 1000 -->
      <g style="fill: #808080" transform="translate(201.867188 280.710438) scale(0.1 -0.1)">
       <defs>
        <path id="DejaVuSans-31" d="M 794 531 
L 1825 531 
L 1825 4091 
L 703 3866 
L 703 4441 
L 1819 4666 
L 2450 4666 
L 2450 531 
L 3481 531 
L 3481 0 
L 794 0 
L 794 531 
z
" transform="scale(0.015625)"/>
       </defs>
       <use xlink:href="#DejaVuSans-31"/>
       <use xlink:href="#DejaVuSans-30" x="63.623047"/>
       <use xlink:href="#DejaVuSans-30" x="127.246094"/>
       <use xlink:href="#DejaVuSans-30" x="190.869141"/>
      </g>
     </g>
    </g>
    <g id="xtick_4">
     <g id="line2d_4">
      <g>
       <use xlink:href="#m04b4509fa5" x="284.342188" y="266.112" style="fill: #808080; stroke: #808080; stroke-width: 0.8"/>
      </g>
     </g>
     <g id="text_4">
      <!-- 1500 -->
      <g style="fill: #808080" transform="translate(271.617188 280.710438) scale(0.1 -0.1)">
       <use xlink:href="#DejaVuSans-31"/>
       <use xlink:href="#DejaVuSans-35" x="63.623047"/>
       <use xlink:href="#DejaVuSans-30" x="127.246094"/>
       <use xlink:href="#DejaVuSans-30" x="190.869141"/>
      </g>
     </g>
    </g>
    <g id="xtick_5">
     <g id="line2d_5">
      <g>
       <use xlink:href="#m04b4509fa5" x="354.092188" y="266.112" style="fill: #808080; stroke: #808080; stroke-width: 0.8"/>
      </g>
     </g>
     <g id="text_5">
      <!-- 2000 -->
      <g style="fill: #808080" transform="translate(341.367188 280.710438) scale(0.1 -0.1)">
       <defs>
        <path id="DejaVuSans-32" d="M 1228 531 
L 3431 531 
L 3431 0 
L 469 0 
L 469 531 
Q 828 903 1448 1529 
Q 2069 2156 2228 2338 
Q 2531 2678 2651 2914 
Q 2772 3150 2772 3378 
Q 2772 3750 2511 3984 
Q 2250 4219 1831 4219 
Q 1534 4219 1204 4116 
Q 875 4013 500 3803 
L 500 4441 
Q 881 4594 1212 4672 
Q 1544 4750 1819 4750 
Q 2544 4750 2975 4387 
Q 3406 4025 3406 3419 
Q 3406 3131 3298 2873 
Q 3191 2616 2906 2266 
Q 2828 2175 2409 1742 
Q 1991 1309 1228 531 
z
" transform="scale(0.015625)"/>
       </defs>
       <use xlink:href="#DejaVuSans-32"/>
       <use xlink:href="#DejaVuSans-30" x="63.623047"/>
       <use xlink:href="#DejaVuSans-30" x="127.246094"/>
       <use xlink:href="#DejaVuSans-30" x="190.869141"/>
      </g>
     </g>
    </g>
    <g id="xtick_6">
     <g id="line2d_6">
      <g>
       <use xlink:href="#m04b4509fa5" x="423.842188" y="266.112" style="fill: #808080; stroke: #808080; stroke-width: 0.8"/>
      </g>
     </g>
     <g id="text_6">
      <!-- 2500 -->
      <g style="fill: #808080" transform="translate(411.117188 280.710438) scale(0.1 -0.1)">
       <use xlink:href="#DejaVuSans-32"/>
       <use xlink:href="#DejaVuSans-35" x="63.623047"/>
       <use xlink:href="#DejaVuSans-30" x="127.246094"/>
       <use xlink:href="#DejaVuSans-30" x="190.869141"/>
      </g>
     </g>
    </g>
    <g id="xtick_7">
     <g id="line2d_7">
      <g>
       <use xlink:href="#m04b4509fa5" x="493.592188" y="266.112" style="fill: #808080; stroke: #808080; stroke-width: 0.8"/>
      </g>
     </g>
     <g id="text_7">
      <!-- 3000 -->
      <g style="fill: #808080" transform="translate(480.867188 280.710438) scale(0.1 -0.1)">
       <defs>
        <path id="DejaVuSans-33" d="M 2597 2516 
Q 3050 2419 3304 2112 
Q 3559 1806 3559 1356 
Q 3559 666 3084 287 
Q 2609 -91 1734 -91 
Q 1441 -91 1130 -33 
Q 819 25 488 141 
L 488 750 
Q 750 597 1062 519 
Q 1375 441 1716 441 
Q 2309 441 2620 675 
Q 2931 909 2931 1356 
Q 2931 1769 2642 2001 
Q 2353 2234 1838 2234 
L 1294 2234 
L 1294 2753 
L 1863 2753 
Q 2328 2753 2575 2939 
Q 2822 3125 2822 3475 
Q 2822 3834 2567 4026 
Q 2313 4219 1838 4219 
Q 1578 4219 1281 4162 
Q 984 4106 628 3988 
L 628 4550 
Q 988 4650 1302 4700 
Q 1616 4750 1894 4750 
Q 2613 4750 3031 4423 
Q 3450 4097 3450 3541 
Q 3450 3153 3228 2886 
Q 3006 2619 2597 2516 
z
" transform="scale(0.015625)"/>
       </defs>
       <use xlink:href="#DejaVuSans-33"/>
       <use xlink:href="#DejaVuSans-30" x="63.623047"/>
       <use xlink:href="#DejaVuSans-30" x="127.246094"/>
       <use xlink:href="#DejaVuSans-30" x="190.869141"/>
      </g>
     </g>
    </g>
    <g id="xtick_8">
     <g id="line2d_8">
      <g>
       <use xlink:href="#m04b4509fa5" x="563.342188" y="266.112" style="fill: #808080; stroke: #808080; stroke-width: 0.8"/>
      </g>
     </g>
     <g id="text_8">
      <!-- 3500 -->
      <g style="fill: #808080" transform="translate(550.617188 280.710438) scale(0.1 -0.1)">
       <use xlink:href="#DejaVuSans-33"/>
       <use xlink:href="#DejaVuSans-35" x="63.623047"/>
       <use xlink:href="#DejaVuSans-30" x="127.246094"/>
       <use xlink:href="#DejaVuSans-30" x="190.869141"/>
      </g>
     </g>
    </g>
    <g id="xtick_9">
     <g id="line2d_9">
      <g>
       <use xlink:href="#m04b4509fa5" x="633.092188" y="266.112" style="fill: #808080; stroke: #808080; stroke-width: 0.8"/>
      </g>
     </g>
     <g id="text_9">
      <!-- 4000 -->
      <g style="fill: #808080" transform="translate(620.367188 280.710438) scale(0.1 -0.1)">
       <defs>
        <path id="DejaVuSans-34" d="M 2419 4116 
L 825 1625 
L 2419 1625 
L 2419 4116 
z
M 2253 4666 
L 3047 4666 
L 3047 1625 
L 3713 1625 
L 3713 1100 
L 3047 1100 
L 3047 0 
L 2419 0 
L 2419 1100 
L 313 1100 
L 313 1709 
L 2253 4666 
z
" transform="scale(0.015625)"/>
       </defs>
       <use xlink:href="#DejaVuSans-34"/>
       <use xlink:href="#DejaVuSans-30" x="63.623047"/>
       <use xlink:href="#DejaVuSans-30" x="127.246094"/>
       <use xlink:href="#DejaVuSans-30" x="190.869141"/>
      </g>
     </g>
    </g>
   </g>
   <g id="matplotlib.axis_2">
    <g id="ytick_1">
     <g id="line2d_10">
      <defs>
       <path id="m7fabb47e22" d="M 0 0 
L -3.5 0 
" style="stroke: #808080; stroke-width: 0.8"/>
      </defs>
      <g>
       <use xlink:href="#m7fabb47e22" x="47.192188" y="252.903236" style="fill: #808080; stroke: #808080; stroke-width: 0.8"/>
      </g>
     </g>
     <g id="text_10">
      <!-- −30000 -->
      <g style="fill: #808080" transform="translate(0 256.702455) scale(0.1 -0.1)">
       <defs>
        <path id="DejaVuSans-2212" d="M 678 2272 
L 4684 2272 
L 4684 1741 
L 678 1741 
L 678 2272 
z
" transform="scale(0.015625)"/>
       </defs>
       <use xlink:href="#DejaVuSans-2212"/>
       <use xlink:href="#DejaVuSans-33" x="83.789062"/>
       <use xlink:href="#DejaVuSans-30" x="147.412109"/>
       <use xlink:href="#DejaVuSans-30" x="211.035156"/>
       <use xlink:href="#DejaVuSans-30" x="274.658203"/>
       <use xlink:href="#DejaVuSans-30" x="338.28125"/>
      </g>
     </g>
    </g>
    <g id="ytick_2">
     <g id="line2d_11">
      <g>
       <use xlink:href="#m7fabb47e22" x="47.192188" y="222.69156" style="fill: #808080; stroke: #808080; stroke-width: 0.8"/>
      </g>
     </g>
     <g id="text_11">
      <!-- −20000 -->
      <g style="fill: #808080" transform="translate(0 226.490779) scale(0.1 -0.1)">
       <use xlink:href="#DejaVuSans-2212"/>
       <use xlink:href="#DejaVuSans-32" x="83.789062"/>
       <use xlink:href="#DejaVuSans-30" x="147.412109"/>
       <use xlink:href="#DejaVuSans-30" x="211.035156"/>
       <use xlink:href="#DejaVuSans-30" x="274.658203"/>
       <use xlink:href="#DejaVuSans-30" x="338.28125"/>
      </g>
     </g>
    </g>
    <g id="ytick_3">
     <g id="line2d_12">
      <g>
       <use xlink:href="#m7fabb47e22" x="47.192188" y="192.479883" style="fill: #808080; stroke: #808080; stroke-width: 0.8"/>
      </g>
     </g>
     <g id="text_12">
      <!-- −10000 -->
      <g style="fill: #808080" transform="translate(0 196.279102) scale(0.1 -0.1)">
       <use xlink:href="#DejaVuSans-2212"/>
       <use xlink:href="#DejaVuSans-31" x="83.789062"/>
       <use xlink:href="#DejaVuSans-30" x="147.412109"/>
       <use xlink:href="#DejaVuSans-30" x="211.035156"/>
       <use xlink:href="#DejaVuSans-30" x="274.658203"/>
       <use xlink:href="#DejaVuSans-30" x="338.28125"/>
      </g>
     </g>
    </g>
    <g id="ytick_4">
     <g id="line2d_13">
      <g>
       <use xlink:href="#m7fabb47e22" x="47.192188" y="162.268207" style="fill: #808080; stroke: #808080; stroke-width: 0.8"/>
      </g>
     </g>
     <g id="text_13">
      <!-- 0 -->
      <g style="fill: #808080" transform="translate(33.829688 166.067426) scale(0.1 -0.1)">
       <use xlink:href="#DejaVuSans-30"/>
      </g>
     </g>
    </g>
    <g id="ytick_5">
     <g id="line2d_14">
      <g>
       <use xlink:href="#m7fabb47e22" x="47.192188" y="132.05653" style="fill: #808080; stroke: #808080; stroke-width: 0.8"/>
      </g>
     </g>
     <g id="text_14">
      <!-- 10000 -->
      <g style="fill: #808080" transform="translate(8.379688 135.855749) scale(0.1 -0.1)">
       <use xlink:href="#DejaVuSans-31"/>
       <use xlink:href="#DejaVuSans-30" x="63.623047"/>
       <use xlink:href="#DejaVuSans-30" x="127.246094"/>
       <use xlink:href="#DejaVuSans-30" x="190.869141"/>
       <use xlink:href="#DejaVuSans-30" x="254.492188"/>
      </g>
     </g>
    </g>
    <g id="ytick_6">
     <g id="line2d_15">
      <g>
       <use xlink:href="#m7fabb47e22" x="47.192188" y="101.844854" style="fill: #808080; stroke: #808080; stroke-width: 0.8"/>
      </g>
     </g>
     <g id="text_15">
      <!-- 20000 -->
      <g style="fill: #808080" transform="translate(8.379688 105.644072) scale(0.1 -0.1)">
       <use xlink:href="#DejaVuSans-32"/>
       <use xlink:href="#DejaVuSans-30" x="63.623047"/>
       <use xlink:href="#DejaVuSans-30" x="127.246094"/>
       <use xlink:href="#DejaVuSans-30" x="190.869141"/>
       <use xlink:href="#DejaVuSans-30" x="254.492188"/>
      </g>
     </g>
    </g>
    <g id="ytick_7">
     <g id="line2d_16">
      <g>
       <use xlink:href="#m7fabb47e22" x="47.192188" y="71.633177" style="fill: #808080; stroke: #808080; stroke-width: 0.8"/>
      </g>
     </g>
     <g id="text_16">
      <!-- 30000 -->
      <g style="fill: #808080" transform="translate(8.379688 75.432396) scale(0.1 -0.1)">
       <use xlink:href="#DejaVuSans-33"/>
       <use xlink:href="#DejaVuSans-30" x="63.623047"/>
       <use xlink:href="#DejaVuSans-30" x="127.246094"/>
       <use xlink:href="#DejaVuSans-30" x="190.869141"/>
       <use xlink:href="#DejaVuSans-30" x="254.492188"/>
      </g>
     </g>
    </g>
    <g id="ytick_8">
     <g id="line2d_17">
      <g>
       <use xlink:href="#m7fabb47e22" x="47.192188" y="41.421501" style="fill: #808080; stroke: #808080; stroke-width: 0.8"/>
      </g>
     </g>
     <g id="text_17">
      <!-- 40000 -->
      <g style="fill: #808080" transform="translate(8.379688 45.220719) scale(0.1 -0.1)">
       <use xlink:href="#DejaVuSans-34"/>
       <use xlink:href="#DejaVuSans-30" x="63.623047"/>
       <use xlink:href="#DejaVuSans-30" x="127.246094"/>
       <use xlink:href="#DejaVuSans-30" x="190.869141"/>
       <use xlink:href="#DejaVuSans-30" x="254.492188"/>
      </g>
     </g>
    </g>
    <g id="ytick_9">
     <g id="line2d_18">
      <g>
       <use xlink:href="#m7fabb47e22" x="47.192188" y="11.209824" style="fill: #808080; stroke: #808080; stroke-width: 0.8"/>
      </g>
     </g>
     <g id="text_18">
      <!-- 50000 -->
      <g style="fill: #808080" transform="translate(8.379688 15.009043) scale(0.1 -0.1)">
       <use xlink:href="#DejaVuSans-35"/>
       <use xlink:href="#DejaVuSans-30" x="63.623047"/>
       <use xlink:href="#DejaVuSans-30" x="127.246094"/>
       <use xlink:href="#DejaVuSans-30" x="190.869141"/>
       <use xlink:href="#DejaVuSans-30" x="254.492188"/>
      </g>
     </g>
    </g>
   </g>
   <g id="line2d_19">
    <path d="M 75.092188 162.518269 
L 75.374148 162.023686 
L 75.656109 162.50794 
L 75.938069 162.032592 
L 76.22003 162.500303 
L 76.50199 162.039084 
L 76.783951 162.494854 
L 77.065912 162.043576 
L 77.347872 162.491249 
L 77.629833 162.04635 
L 77.911793 162.48926 
L 78.193754 162.047592 
L 78.475715 162.488738 
L 78.757675 162.047413 
L 79.039636 162.489604 
L 79.321596 162.045868 
L 79.603557 162.491828 
L 79.885517 162.04296 
L 80.167478 162.495432 
L 80.449439 162.038641 
L 80.731399 162.50049 
L 81.01336 162.032813 
L 81.29532 162.507127 
L 81.577281 162.025318 
L 81.859242 162.515537 
L 82.141202 162.015925 
L 82.423163 162.525994 
L 82.705123 162.004309 
L 82.987084 162.538881 
L 83.269044 161.990017 
L 83.551005 162.554736 
L 83.832966 161.972413 
L 84.114926 162.574314 
L 84.396887 161.95059 
L 84.678847 162.598709 
L 84.960808 161.923224 
L 85.242769 162.629538 
L 85.524729 161.888318 
L 85.80669 162.669296 
L 86.08865 161.842717 
L 86.370611 162.722026 
L 86.652572 161.781156 
L 86.934532 162.794717 
L 87.216493 161.694153 
L 87.498453 162.900566 
L 87.780414 161.562774 
L 88.062374 163.067763 
L 88.344335 161.343065 
L 88.626296 163.368985 
L 88.908256 160.905097 
L 89.190217 164.063529 
L 89.472177 159.635737 
L 89.754138 167.131477 
L 90.036099 139.875351 
L 90.318059 92.162303 
L 90.60002 89.472259 
L 90.88198 80.756144 
L 91.445901 89.23441 
L 93.137665 172.295528 
L 93.419626 179.002904 
L 93.701586 180.751746 
L 94.547468 187.335073 
L 95.111389 185.480907 
L 95.39335 183.843932 
L 95.67531 183.490198 
L 96.239231 178.822253 
L 96.521192 175.643955 
L 97.649034 168.495681 
L 97.930995 168.998915 
L 98.212956 169.835269 
L 98.494916 171.298818 
L 98.776877 171.165985 
L 99.058837 170.876831 
L 99.340798 170.325116 
L 99.622758 170.59476 
L 100.18668 168.077305 
L 100.46864 166.709647 
L 100.750601 166.895997 
L 101.032561 166.87832 
L 101.314522 167.244075 
L 101.878443 167.535692 
L 102.442364 165.681289 
L 102.724325 165.577932 
L 103.006286 166.417415 
L 103.288246 166.825827 
L 103.570207 168.30001 
L 105.543931 183.570789 
L 105.825891 183.606889 
L 106.107852 183.441885 
L 106.953734 185.911862 
L 107.235694 186.58264 
L 108.081576 192.769965 
L 108.363537 190.182646 
L 108.645497 183.205983 
L 109.209418 155.300941 
L 110.337261 82.422818 
L 110.619221 72.229038 
L 110.901182 67.932523 
L 111.183143 69.726906 
L 111.465103 77.09263 
L 112.029024 103.227734 
L 113.156867 165.249556 
L 113.720788 179.291773 
L 114.284709 185.31247 
L 114.56667 185.906771 
L 115.412551 185.718744 
L 115.976472 182.977555 
L 116.822354 178.642985 
L 117.104315 177.985426 
L 117.386275 178.088661 
L 117.668236 177.640598 
L 119.078039 166.496294 
L 119.36 163.982059 
L 120.205881 160.343736 
L 120.487842 159.746731 
L 120.769802 159.55052 
L 121.051763 158.971582 
L 121.333724 157.971985 
L 121.615684 158.443801 
L 122.179605 161.603661 
L 122.461566 162.202946 
L 122.743527 163.785752 
L 123.307448 168.794776 
L 123.589408 169.613309 
L 123.871369 170.87856 
L 124.43529 176.522842 
L 124.717251 177.715269 
L 124.999211 178.143261 
L 125.281172 179.435431 
L 125.845093 184.092882 
L 126.409014 186.278534 
L 127.818817 191.466159 
L 128.100778 191.556657 
L 128.382738 191.195047 
L 128.664699 189.030963 
L 128.946659 182.464973 
L 129.22862 169.216009 
L 130.638423 81.494588 
L 130.920384 73.931224 
L 131.202344 71.353381 
L 131.484305 74.376165 
L 131.766265 83.354496 
L 132.330186 110.962427 
L 133.458029 170.292592 
L 134.02195 179.757316 
L 134.303911 181.857751 
L 134.585871 181.952362 
L 135.431753 178.291997 
L 136.559595 170.047517 
L 137.123516 168.037998 
L 137.405477 167.243261 
L 137.969398 165.092417 
L 138.251359 164.429439 
L 138.533319 164.308902 
L 138.81528 164.341576 
L 139.379201 164.675643 
L 139.661162 165.709721 
L 140.507043 172.391345 
L 141.070965 172.613463 
L 141.352925 173.363533 
L 141.634886 173.706625 
L 141.916846 173.37102 
L 142.198807 172.855714 
L 142.480768 172.864685 
L 142.762728 173.096058 
L 143.60861 174.473772 
L 143.890571 174.730765 
L 144.736452 177.170472 
L 145.018413 178.016454 
L 146.710176 186.64793 
L 146.992137 186.61276 
L 147.556058 184.302712 
L 148.119979 181.457236 
L 148.6839 180.092761 
L 148.965861 177.532634 
L 149.247822 171.091254 
L 149.529782 158.766181 
L 150.939585 71.944695 
L 151.221546 64.771483 
L 151.503506 63.505914 
L 151.785467 67.309462 
L 152.067428 75.687428 
L 152.631349 107.030155 
L 153.47723 162.112895 
L 154.041152 180.156018 
L 154.323112 184.622889 
L 154.605073 187.064951 
L 154.887033 187.758574 
L 155.168994 186.746196 
L 156.296836 180.017956 
L 156.860757 171.064603 
L 157.424679 163.638539 
L 157.9886 158.657183 
L 158.27056 158.01931 
L 158.834482 159.339507 
L 159.116442 158.781345 
L 159.398403 158.724798 
L 160.244285 162.441193 
L 160.808206 162.994685 
L 161.372127 164.358249 
L 161.936048 166.219328 
L 162.218009 168.095555 
L 163.06389 176.786046 
L 163.345851 177.552539 
L 163.627812 177.889902 
L 163.909772 178.421556 
L 164.191733 178.621617 
L 164.473693 178.473086 
L 165.037614 177.445068 
L 165.319575 177.263596 
L 165.601536 178.319721 
L 166.165457 181.171468 
L 166.447417 182.176254 
L 167.293299 188.03345 
L 167.57526 187.591629 
L 167.85722 188.042434 
L 168.139181 189.338957 
L 168.421142 189.501786 
L 168.985063 187.30064 
L 169.267023 186.473236 
L 169.548984 182.449328 
L 169.830944 172.728096 
L 170.394866 139.099941 
L 171.240747 80.99025 
L 171.522708 70.746323 
L 171.804669 66.736325 
L 172.086629 69.56417 
L 172.36859 80.010442 
L 173.214471 132.973175 
L 173.778393 168.082476 
L 174.060353 178.226164 
L 174.342314 181.839968 
L 174.906235 183.94982 
L 175.188196 184.381931 
L 175.470156 182.90838 
L 176.597999 173.788909 
L 177.44388 166.285774 
L 178.007801 161.65627 
L 178.289762 160.549945 
L 178.571723 160.129619 
L 178.853683 159.969179 
L 179.135644 160.23734 
L 179.417604 160.808647 
L 179.699565 161.773829 
L 180.263486 165.023977 
L 181.109368 169.433613 
L 181.673289 171.819297 
L 181.95525 172.418579 
L 182.23721 173.311593 
L 182.801131 175.501509 
L 183.365053 175.849262 
L 184.210934 177.521298 
L 184.774856 180.391447 
L 185.056816 180.201363 
L 185.338777 178.718246 
L 185.620737 178.402549 
L 187.03054 188.018973 
L 188.722304 198.293212 
L 189.004264 198.226641 
L 189.286225 194.158581 
L 189.568185 184.05308 
L 190.132107 152.19805 
L 191.259949 77.960799 
L 191.54191 69.989946 
L 191.82387 67.4129 
L 192.105831 69.305179 
L 192.387791 76.926586 
L 193.233673 122.303932 
L 194.361515 180.236685 
L 194.643476 182.414517 
L 194.925437 180.799658 
L 195.489358 173.559934 
L 196.33524 162.047172 
L 196.899161 157.904152 
L 198.308964 150.643017 
L 198.590924 150.467366 
L 198.872885 151.190939 
L 199.154845 152.646956 
L 199.718767 157.370599 
L 200.564648 167.51235 
L 201.12857 171.690708 
L 201.974451 175.767419 
L 202.538372 179.576638 
L 203.666215 184.428329 
L 203.948175 184.923199 
L 204.230136 185.112125 
L 204.512097 186.391724 
L 206.20386 202.351541 
L 206.485821 203.326523 
L 206.767781 203.020171 
L 207.331702 200.672552 
L 207.613663 200.561449 
L 207.895624 201.066126 
L 208.177584 200.775822 
L 208.459545 198.604389 
L 208.741505 192.886034 
L 209.023466 181.186507 
L 209.587387 138.126759 
L 210.433269 70.214553 
L 210.715229 53.90311 
L 210.99719 44.465012 
L 211.279151 43.066374 
L 211.561111 48.218504 
L 212.125032 70.258993 
L 212.688954 101.626412 
L 213.534835 166.664954 
L 213.816796 179.028168 
L 214.098756 185.28805 
L 214.662678 190.929821 
L 214.944638 191.425533 
L 215.226599 190.489186 
L 216.072481 185.481841 
L 216.354441 185.18412 
L 216.636402 184.197349 
L 218.046205 173.34982 
L 218.610126 170.263536 
L 219.174047 168.124444 
L 219.456008 168.160381 
L 219.737968 168.080573 
L 220.301889 165.34384 
L 220.58385 165.603199 
L 221.147771 168.040674 
L 221.429732 168.929665 
L 221.711692 171.007923 
L 222.275613 176.550232 
L 223.121495 180.363753 
L 223.403456 182.037546 
L 223.685416 182.448061 
L 223.967377 182.031114 
L 224.249338 182.807969 
L 224.813259 187.560579 
L 225.37718 190.702677 
L 226.223062 200.4508 
L 226.786983 203.683172 
L 227.350904 207.935647 
L 228.196786 212.747162 
L 228.478746 209.667195 
L 228.760707 200.684402 
L 229.042668 184.942477 
L 229.606589 136.358237 
L 230.45247 64.430842 
L 230.734431 49.914953 
L 231.016392 43.101434 
L 231.298352 43.397696 
L 231.580313 47.961802 
L 232.144234 62.951211 
L 232.426195 75.291812 
L 232.990116 114.356798 
L 233.554037 159.791684 
L 233.835998 174.916023 
L 234.117958 182.360067 
L 234.399919 184.718311 
L 234.681879 185.729154 
L 235.527761 191.158631 
L 235.809722 191.020708 
L 236.655603 189.039921 
L 236.937564 187.349951 
L 238.347367 171.863207 
L 238.629327 169.610231 
L 238.911288 169.145566 
L 239.193249 170.051707 
L 239.475209 170.343972 
L 239.75717 169.78269 
L 240.03913 170.537726 
L 240.321091 172.702443 
L 240.603052 173.735068 
L 241.166973 171.382178 
L 241.448933 171.847195 
L 241.730894 172.907106 
L 242.012855 173.45879 
L 242.294815 174.36007 
L 242.858736 177.75747 
L 243.140697 178.559165 
L 243.422657 178.531148 
L 243.704618 177.931007 
L 243.986579 177.696361 
L 244.268539 178.846415 
L 245.960303 193.437019 
L 246.524224 196.863815 
L 247.934027 208.910137 
L 248.215987 207.933508 
L 248.497948 201.640145 
L 248.779909 188.136809 
L 249.34383 142.074287 
L 250.189712 67.450225 
L 250.471672 51.084623 
L 250.753633 42.762571 
L 251.035593 41.748974 
L 251.317554 45.283739 
L 251.599514 51.417566 
L 251.881475 60.596511 
L 252.445396 91.605036 
L 253.573239 173.187235 
L 253.855199 180.488262 
L 254.13716 183.810824 
L 254.41912 184.617556 
L 254.701081 183.971552 
L 254.983041 183.718667 
L 255.265002 184.697506 
L 255.546963 185.184879 
L 256.110884 183.869711 
L 256.392844 184.061759 
L 256.674805 182.952779 
L 257.238726 177.602451 
L 257.802647 175.431849 
L 258.366569 171.469154 
L 258.648529 171.521513 
L 258.93049 172.719605 
L 259.494411 176.305792 
L 259.776371 176.789438 
L 260.340293 175.010207 
L 260.622253 175.285686 
L 260.904214 174.938898 
L 261.186174 173.387876 
L 261.468135 173.357328 
L 262.314017 182.863563 
L 262.877938 183.803089 
L 263.72382 187.519065 
L 264.00578 189.515962 
L 264.569701 197.683562 
L 265.133623 206.585193 
L 265.697544 213.431749 
L 266.261465 220.500112 
L 266.825386 221.956268 
L 267.107347 223.244235 
L 267.389307 221.324431 
L 267.671268 212.023924 
L 268.235189 170.3155 
L 269.363031 61.082439 
L 269.644992 46.346779 
L 269.926953 39.889905 
L 270.208913 39.804309 
L 270.772834 46.28288 
L 271.054795 51.859876 
L 271.336755 60.890158 
L 271.900677 90.875311 
L 273.028519 171.560524 
L 273.31048 177.714198 
L 273.59244 180.805749 
L 273.874401 181.721088 
L 274.156361 179.497805 
L 274.720282 171.612821 
L 275.284204 168.277206 
L 275.848125 165.151167 
L 276.130085 164.647958 
L 276.694007 165.868156 
L 276.975967 165.384532 
L 277.257928 164.475679 
L 277.539888 164.649727 
L 278.10381 167.508748 
L 278.38577 168.462895 
L 278.667731 170.169899 
L 279.513612 178.520518 
L 279.795573 180.666919 
L 280.359494 186.573729 
L 280.641455 187.386013 
L 281.205376 185.174946 
L 281.487337 186.140556 
L 281.769297 188.069075 
L 282.051258 189.021278 
L 282.333218 189.459497 
L 282.615179 191.318223 
L 283.461061 200.909843 
L 284.024982 205.564124 
L 285.998706 226.507564 
L 286.562627 230.606201 
L 286.844588 228.722446 
L 287.126548 219.778925 
L 287.408509 202.350315 
L 287.97243 148.216185 
L 288.818312 64.347522 
L 289.100272 48.595569 
L 289.382233 39.481937 
L 289.664194 36.047106 
L 289.946154 36.777622 
L 290.510075 43.631728 
L 290.792036 49.956921 
L 291.073996 60.132553 
L 291.637918 93.801832 
L 292.483799 159.396575 
L 292.76576 171.505949 
L 293.047721 177.253836 
L 293.329681 179.513449 
L 293.611642 180.497007 
L 293.893602 180.522325 
L 294.175563 179.572387 
L 295.303405 173.687821 
L 295.867326 168.547496 
L 296.149287 166.871389 
L 296.431248 166.524603 
L 296.713208 167.502583 
L 297.277129 170.573576 
L 297.841051 172.368256 
L 298.123011 172.886431 
L 298.686932 172.773244 
L 299.532814 173.805084 
L 299.814775 175.524702 
L 300.378696 181.846915 
L 301.224578 187.043637 
L 301.506538 188.083531 
L 302.070459 186.229097 
L 302.35242 186.929893 
L 302.916341 192.087919 
L 303.198302 195.374672 
L 304.608105 217.802951 
L 306.299868 237.042887 
L 306.581829 236.317747 
L 306.863789 230.091837 
L 307.14575 215.115521 
L 307.709671 155.026723 
L 308.273592 91.634254 
L 308.837513 49.76213 
L 309.119474 39.069523 
L 309.401435 35.454066 
L 309.683395 35.037536 
L 309.965356 35.191418 
L 310.247316 36.920171 
L 310.529277 42.363527 
L 310.811238 52.003336 
L 311.375159 84.519666 
L 312.503001 177.412794 
L 312.784962 186.650141 
L 313.066922 187.478814 
L 314.476725 172.779256 
L 315.604567 163.450668 
L 315.886528 161.080806 
L 316.168489 159.841581 
L 316.450449 159.178899 
L 316.73241 159.548898 
L 317.01437 161.865102 
L 317.578292 168.131455 
L 318.706134 173.286461 
L 318.988095 172.641891 
L 319.270055 172.776675 
L 320.397897 181.008854 
L 320.961819 187.067614 
L 321.243779 188.287993 
L 321.52574 188.90422 
L 322.089661 190.849069 
L 322.371622 191.381778 
L 322.653582 192.607016 
L 322.935543 195.619758 
L 323.781424 207.7716 
L 324.345346 214.437223 
L 324.909267 223.031537 
L 325.191227 225.758386 
L 325.755149 229.561316 
L 326.037109 232.1885 
L 326.31907 232.895838 
L 326.60103 228.732875 
L 326.882991 217.732188 
L 327.446912 172.196213 
L 328.574754 58.647181 
L 328.856715 43.560803 
L 329.138676 35.869844 
L 329.420636 33.077039 
L 329.702597 32.734989 
L 329.984557 34.420214 
L 330.266518 39.468458 
L 330.830439 60.97191 
L 331.39436 95.856345 
L 332.240242 161.894954 
L 332.522203 172.251674 
L 333.086124 180.441217 
L 333.368084 183.28542 
L 333.650045 184.961946 
L 333.932006 185.565034 
L 334.213966 185.753021 
L 334.495927 185.080544 
L 335.059848 180.557652 
L 335.623769 176.015171 
L 335.90573 174.365574 
L 336.18769 173.514532 
L 336.469651 173.036808 
L 337.033572 170.72305 
L 337.315533 170.411062 
L 337.879454 171.419085 
L 338.161414 171.669665 
L 338.443375 172.641116 
L 339.571217 178.818982 
L 340.417099 183.231315 
L 340.98102 188.062922 
L 341.262981 189.213728 
L 341.544941 191.388823 
L 342.954744 212.107541 
L 343.518666 217.546071 
L 344.082587 222.01967 
L 345.49239 236.510055 
L 345.77435 236.198095 
L 346.056311 232.776554 
L 346.338271 222.306449 
L 346.620232 201.269064 
L 348.030035 60.192284 
L 348.311995 45.360416 
L 348.593956 36.715054 
L 349.157877 28.401519 
L 349.439838 27.3813 
L 349.721798 29.728288 
L 350.003759 35.866158 
L 350.56768 57.790421 
L 351.131601 94.449046 
L 351.977483 160.152721 
L 352.259444 170.576105 
L 352.541404 176.086006 
L 352.823365 178.720901 
L 353.105325 179.09076 
L 353.387286 178.618317 
L 353.669247 178.888997 
L 353.951207 179.569002 
L 354.233168 179.049328 
L 354.797089 176.381643 
L 355.36101 175.733931 
L 355.642971 175.766962 
L 355.924931 176.783601 
L 356.488852 179.580805 
L 356.770813 179.900773 
L 357.052774 179.92459 
L 357.898655 180.439015 
L 358.180616 180.380774 
L 358.462577 180.48714 
L 358.744537 181.028155 
L 360.718261 188.753358 
L 361.000222 189.312171 
L 361.282182 190.227502 
L 361.564143 192.210184 
L 362.128064 200.197674 
L 363.255907 221.317807 
L 364.665709 238.805628 
L 364.94767 239.890864 
L 365.229631 240.152281 
L 365.511591 240.030062 
L 365.793552 236.481057 
L 366.075512 224.645549 
L 366.639434 172.757364 
L 367.485315 71.950551 
L 368.049237 35.457904 
L 368.331197 26.709367 
L 368.613158 21.96032 
L 368.895118 20.674411 
L 369.177079 22.511903 
L 369.459039 27.354947 
L 370.022961 44.69701 
L 370.586882 69.221934 
L 371.150803 113.049906 
L 371.714724 157.900239 
L 372.278645 182.448029 
L 372.560606 187.096647 
L 372.842566 188.735509 
L 373.124527 189.659144 
L 373.406488 190.174162 
L 373.688448 189.108947 
L 374.816291 178.426792 
L 375.098251 176.659596 
L 375.380212 175.809718 
L 375.662172 176.142101 
L 375.944133 176.928926 
L 376.226094 177.199672 
L 376.508054 176.967428 
L 376.790015 176.417937 
L 377.071975 175.263826 
L 377.917857 168.937878 
L 378.199818 169.467612 
L 378.763739 171.975806 
L 379.32766 173.142335 
L 379.891581 175.410427 
L 380.455502 179.813679 
L 381.301384 188.686795 
L 382.147266 201.584333 
L 383.839029 228.658386 
L 385.248832 244.814002 
L 385.530793 244.598973 
L 385.812753 236.675889 
L 386.094714 216.90655 
L 386.940596 115.752032 
L 387.504517 56.244076 
L 388.068438 25.990857 
L 388.350399 18.114206 
L 388.632359 14.206998 
L 388.91432 15.086634 
L 389.19628 19.611693 
L 389.760202 34.2423 
L 390.324123 60.5683 
L 390.888044 105.064182 
L 391.451965 152.949355 
L 392.015886 179.307888 
L 392.297847 183.761656 
L 393.143729 187.312849 
L 393.425689 187.803337 
L 394.271571 184.056986 
L 394.835492 182.85912 
L 395.117453 183.020426 
L 395.399413 182.880081 
L 395.681374 182.014575 
L 395.963335 182.291388 
L 396.527256 188.102064 
L 396.809216 188.506543 
L 397.091177 186.976692 
L 397.373137 186.160803 
L 398.219019 187.476775 
L 398.50098 188.619827 
L 399.064901 193.41208 
L 399.346862 193.630419 
L 399.628822 192.21469 
L 399.910783 191.598453 
L 400.192743 192.413222 
L 400.474704 192.39757 
L 400.756665 190.923179 
L 401.038625 190.524472 
L 401.602546 195.011079 
L 402.166467 196.970798 
L 402.448428 200.277367 
L 403.57627 218.430805 
L 404.140192 223.819519 
L 405.268034 231.733102 
L 405.549994 230.841225 
L 405.831955 224.050212 
L 406.113916 209.991219 
L 406.677837 158.870962 
L 407.523719 67.272705 
L 408.08764 36.598371 
L 408.3696 28.085124 
L 408.651561 24.25993 
L 408.933522 25.488849 
L 409.215482 31.335889 
L 409.779403 50.90076 
L 410.343324 80.262672 
L 410.907246 124.828343 
L 411.471167 173.050232 
L 411.753127 186.323154 
L 412.035088 188.664927 
L 412.88097 180.067275 
L 414.008812 166.456438 
L 414.572733 156.997126 
L 414.854694 155.740345 
L 415.136654 155.075967 
L 415.418615 153.781925 
L 415.700576 153.550072 
L 416.828418 161.998815 
L 417.392339 166.497426 
L 418.238221 172.028241 
L 418.802142 176.629437 
L 419.366063 183.620462 
L 420.493906 198.694194 
L 421.057827 203.599466 
L 421.621748 208.692177 
L 421.903708 210.708195 
L 422.46763 217.31471 
L 424.723314 243.555803 
L 425.005275 241.458264 
L 425.287236 231.789544 
L 425.569196 211.592514 
L 426.415078 109.450545 
L 426.978999 51.877277 
L 427.26096 35.870547 
L 427.54292 28.837677 
L 427.824881 26.793417 
L 428.106841 25.621722 
L 428.388802 25.373503 
L 428.670763 28.598901 
L 429.234684 45.069807 
L 429.798605 69.01246 
L 430.362526 108.259033 
L 431.208408 172.720609 
L 431.490368 186.011158 
L 431.772329 192.361287 
L 432.05429 194.585712 
L 432.33625 195.783883 
L 432.618211 196.254229 
L 432.900171 195.088774 
L 433.464093 190.280911 
L 434.309974 184.798827 
L 434.873895 180.872515 
L 435.155856 181.028662 
L 435.719777 183.96589 
L 436.001738 184.486003 
L 436.283698 183.949278 
L 436.84762 182.563088 
L 437.12958 181.940731 
L 437.411541 181.03035 
L 437.693501 180.644146 
L 437.975462 181.813064 
L 438.539383 185.271382 
L 438.821344 185.812675 
L 439.103304 186.901702 
L 439.949186 194.566055 
L 440.513107 200.679525 
L 441.358989 211.231959 
L 443.050752 239.54201 
L 443.614674 245.661347 
L 443.896634 246.426033 
L 444.178595 240.347709 
L 444.460555 222.845008 
L 445.024477 156.811421 
L 445.870358 50.56099 
L 446.152319 31.867576 
L 446.434279 21.708378 
L 446.71624 16.616 
L 446.998201 15.353234 
L 447.280161 17.653492 
L 447.844082 26.825357 
L 448.126043 33.297339 
L 448.689964 56.958252 
L 449.535846 107.434638 
L 450.381728 165.693818 
L 450.663688 178.85986 
L 450.945649 186.250308 
L 451.227609 189.055408 
L 451.791531 192.858737 
L 452.073491 194.552673 
L 452.355452 194.410299 
L 453.201334 190.312686 
L 454.329176 182.684913 
L 454.611136 181.613961 
L 454.893097 181.443424 
L 455.175058 181.539092 
L 456.020939 180.619919 
L 456.3029 180.564858 
L 456.584861 180.287355 
L 456.866821 180.510747 
L 457.148782 181.95949 
L 459.404466 199.103396 
L 459.968388 207.602446 
L 460.814269 220.609511 
L 461.660151 233.590467 
L 462.787993 250.314027 
L 463.069954 253.527969 
L 463.351915 253.082811 
L 463.633875 245.121952 
L 463.915836 227.272721 
L 464.479757 163.570284 
L 465.325639 52.399901 
L 465.607599 31.947672 
L 465.88956 20.440911 
L 466.17152 14.49243 
L 466.453481 12.096 
L 466.735442 12.746089 
L 467.017402 16.259631 
L 467.581323 30.69522 
L 468.145245 51.973025 
L 468.991126 101.168468 
L 470.118969 173.638152 
L 470.400929 183.393913 
L 470.68289 187.99045 
L 470.96485 189.675647 
L 471.528772 191.42303 
L 471.810732 191.284513 
L 472.374653 188.678944 
L 472.656614 187.928563 
L 472.938575 186.601503 
L 473.220535 184.458654 
L 473.502496 183.443848 
L 474.066417 185.398253 
L 474.348377 185.464605 
L 474.630338 186.100495 
L 475.194259 189.90832 
L 475.47622 189.624997 
L 475.75818 188.508945 
L 476.040141 188.164091 
L 476.322102 188.116035 
L 476.604062 187.053668 
L 476.886023 185.486749 
L 477.167983 185.029537 
L 477.449944 186.266251 
L 478.577786 194.300067 
L 479.987589 212.36748 
L 481.115432 229.394516 
L 482.243274 243.292573 
L 482.525234 245.808829 
L 482.807195 245.82975 
L 483.089156 240.023147 
L 483.371116 224.699022 
L 483.935037 162.814038 
L 484.780919 51.396191 
L 485.06288 31.577006 
L 485.34484 20.488611 
L 485.626801 14.255585 
L 485.908762 12.147304 
L 486.190722 14.445284 
L 486.754643 24.978143 
L 487.318564 40.718051 
L 487.882486 65.026993 
L 488.728367 119.946852 
L 489.574249 169.522305 
L 489.85621 180.19962 
L 490.13817 185.471547 
L 490.702091 190.464428 
L 490.984052 191.505264 
L 491.547973 190.427166 
L 492.111894 191.797589 
L 492.393855 191.974057 
L 492.675816 192.552431 
L 493.239737 196.099094 
L 495.495421 212.139772 
L 496.341303 216.382068 
L 496.623264 214.733875 
L 497.751106 200.793514 
L 498.033067 199.927181 
L 498.315027 200.322368 
L 498.596988 201.728609 
L 499.160909 206.994959 
L 499.72483 214.669238 
L 500.288751 222.904241 
L 500.570712 224.648154 
L 500.852673 224.565949 
L 501.134633 223.521487 
L 501.416594 220.604909 
L 501.698554 213.033919 
L 501.980515 197.929019 
L 502.544436 139.801015 
L 503.390318 37.497951 
L 503.672278 22.138172 
L 503.954239 15.040586 
L 504.2362 12.939981 
L 504.51816 14.038749 
L 504.800121 17.265135 
L 505.364042 29.598861 
L 506.209924 57.475076 
L 507.337766 116.019392 
L 508.747569 200.221612 
L 509.02953 211.784421 
L 509.31149 218.616604 
L 509.593451 221.32957 
L 509.875411 221.863252 
L 510.157372 219.753781 
L 510.439333 213.366567 
L 511.567175 177.587537 
L 511.849135 171.793413 
L 512.131096 168.502966 
L 512.413057 167.061207 
L 512.695017 166.626747 
L 512.976978 167.321588 
L 513.540899 169.725747 
L 513.82286 169.91454 
L 514.10482 170.3441 
L 514.386781 171.562815 
L 514.950702 175.819116 
L 515.796584 187.670604 
L 517.770308 218.082394 
L 519.744032 252.243961 
L 520.025992 254.016 
L 520.307953 251.112926 
L 520.589914 243.667514 
L 520.871874 231.307502 
L 521.153835 211.03003 
L 521.717756 139.11078 
L 522.281677 64.161055 
L 522.563638 44.789396 
L 522.845598 36.36384 
L 523.127559 33.404807 
L 523.409519 32.847755 
L 523.69148 34.473771 
L 523.973441 38.394509 
L 524.537362 51.561205 
L 525.383244 78.564564 
L 526.511086 127.80619 
L 527.356968 167.10223 
L 528.202849 198.144588 
L 528.48481 202.989467 
L 528.766771 201.817194 
L 529.330692 189.032944 
L 529.894613 177.279506 
L 530.458534 169.722942 
L 530.740495 167.718305 
L 531.022455 167.232298 
L 531.304416 167.589244 
L 531.586376 168.395799 
L 532.432258 172.598105 
L 532.714219 172.907858 
L 532.996179 172.554278 
L 533.27814 172.587545 
L 533.560101 174.26648 
L 534.969904 191.952997 
L 535.251864 196.912636 
L 535.533825 199.740204 
L 535.815785 200.536892 
L 536.097746 201.755595 
L 536.379706 204.57611 
L 536.943628 213.521899 
L 537.507549 224.790426 
L 538.353431 236.851822 
L 538.635391 241.499606 
L 539.481273 250.329146 
L 539.763233 253.662199 
L 540.045194 252.343999 
L 540.327155 243.933847 
L 540.609115 226.596627 
L 540.891076 197.045787 
L 541.736958 75.186293 
L 542.018918 52.182898 
L 542.582839 30.479044 
L 542.8648 26.172781 
L 543.146761 25.321867 
L 543.428721 27.088553 
L 543.710682 30.815295 
L 544.274603 42.921566 
L 544.838524 60.528402 
L 545.966366 105.758207 
L 547.376169 170.788102 
L 547.94009 187.207987 
L 548.222051 193.120424 
L 548.504012 196.447722 
L 549.349893 200.903824 
L 549.631854 201.489801 
L 549.913815 201.691684 
L 550.477736 203.40493 
L 550.759696 201.531778 
L 551.605578 187.677371 
L 552.45146 180.413473 
L 552.73342 179.462242 
L 553.015381 179.522601 
L 553.297342 180.04322 
L 553.861263 181.55555 
L 554.143223 180.909552 
L 554.707145 177.759697 
L 554.989105 177.440155 
L 555.271066 177.818976 
L 555.553026 178.777656 
L 555.834987 181.093877 
L 556.398908 190.625949 
L 557.808711 220.27183 
L 558.654593 234.190643 
L 559.500475 245.992739 
L 559.782435 246.380258 
L 560.064396 240.162167 
L 560.346356 223.711863 
L 560.910277 155.274206 
L 561.474199 83.683476 
L 561.756159 63.46998 
L 562.03812 52.247612 
L 562.32008 47.456687 
L 562.602041 47.400217 
L 563.165962 52.657436 
L 563.447923 57.113191 
L 564.011844 69.61613 
L 564.293804 73.446826 
L 564.857726 78.877439 
L 565.139686 84.662884 
L 565.703607 104.7479 
L 567.11341 159.334533 
L 567.395371 164.802328 
L 567.959292 169.975264 
L 568.241253 170.746962 
L 568.805174 169.195008 
L 569.087134 170.070211 
L 570.214977 178.304559 
L 571.060859 185.113327 
L 571.62478 188.968303 
L 572.470661 192.910732 
L 573.316543 199.767464 
L 573.598504 200.671421 
L 573.880464 201.012699 
L 574.444386 201.318308 
L 574.726346 201.918911 
L 575.008307 203.344287 
L 575.572228 208.552469 
L 576.41811 220.246441 
L 576.982031 227.398039 
L 577.263991 230.19502 
L 577.545952 234.394693 
L 578.109873 246.391713 
L 578.391834 249.40792 
L 578.673794 249.826834 
L 578.955755 248.699916 
L 579.237716 244.507149 
L 579.519676 233.858336 
L 579.801637 213.688098 
L 580.365558 141.552251 
L 580.929479 66.79735 
L 581.21144 48.231022 
L 581.4934 39.488389 
L 581.775361 34.644901 
L 582.057321 32.17535 
L 582.339282 32.989509 
L 582.903203 40.037196 
L 583.467124 49.446939 
L 584.031046 65.966379 
L 584.876927 101.445188 
L 586.568691 172.133845 
L 587.132612 186.911727 
L 587.696533 195.77819 
L 587.978494 196.557642 
L 588.260454 192.79742 
L 589.106336 169.837107 
L 589.388297 167.235478 
L 589.670257 166.894804 
L 589.952218 167.417975 
L 590.516139 169.649468 
L 591.643981 175.601126 
L 592.489863 179.005808 
L 593.335745 183.600121 
L 593.617705 186.792828 
L 594.463587 200.156963 
L 595.309469 208.302648 
L 595.87339 214.000915 
L 598.129075 243.853623 
L 598.692996 248.862252 
L 598.974957 246.608647 
L 599.256917 237.054576 
L 599.538878 216.821853 
L 600.102799 143.748525 
L 600.66672 77.457046 
L 600.948681 61.5219 
L 601.512602 46.546967 
L 601.794562 43.127979 
L 602.076523 42.581881 
L 602.358484 44.179463 
L 602.640444 47.295527 
L 603.204365 58.459982 
L 604.050247 85.279007 
L 606.305932 163.700079 
L 606.869853 176.69799 
L 607.151814 181.184904 
L 607.433774 183.531843 
L 607.715735 183.786855 
L 608.279656 181.626584 
L 608.843577 178.62757 
L 609.125538 176.872148 
L 609.407498 176.09966 
L 609.689459 176.64621 
L 611.099262 183.357421 
L 611.381222 183.731259 
L 611.663183 184.542599 
L 611.945144 186.484964 
L 613.072986 198.323772 
L 613.354946 202.649328 
L 613.636907 205.251684 
L 613.918868 205.355101 
L 614.200828 205.256934 
L 614.764749 208.49922 
L 615.04671 207.754933 
L 615.328671 206.07703 
L 615.610631 206.614281 
L 617.020434 221.160725 
L 617.584355 227.259512 
L 618.148276 232.720413 
L 618.430237 236.432731 
L 618.712198 237.701428 
L 618.994158 232.971273 
L 619.276119 218.803516 
L 619.558079 193.045385 
L 620.403961 86.023435 
L 620.685922 67.692013 
L 620.967882 58.036297 
L 621.249843 52.374715 
L 621.531803 49.869626 
L 621.813764 51.052285 
L 622.095725 53.845059 
L 622.377685 57.761927 
L 624.069449 93.819444 
L 626.889055 167.92068 
L 627.452976 173.005088 
L 627.734936 172.773468 
L 628.016897 172.231244 
L 628.298858 172.339112 
L 628.580818 173.830239 
L 629.144739 174.306383 
L 629.4267 174.41776 
L 629.70866 176.005944 
L 629.990621 176.638166 
L 630.554542 178.569068 
L 631.118463 183.311726 
L 631.400424 186.048065 
L 631.682385 187.035103 
L 631.964345 190.152168 
L 632.246306 191.223047 
L 632.528266 195.162848 
L 632.810227 194.432897 
L 633.092188 199.383669 
L 633.092188 199.383669 
" clip-path="url(#p3cb0b44a9f)" style="fill: none; stroke: #1f77b4; stroke-width: 1.5; stroke-linecap: square"/>
   </g>
   <g id="patch_3">
    <path d="M 47.192188 266.112 
L 47.192188 0 
" style="fill: none; stroke: #808080; stroke-width: 0.8; stroke-linejoin: miter; stroke-linecap: square"/>
   </g>
   <g id="patch_4">
    <path d="M 660.992188 266.112 
L 660.992188 0 
" style="fill: none; stroke: #000000; stroke-width: 0.8; stroke-linejoin: miter; stroke-linecap: square"/>
   </g>
   <g id="patch_5">
    <path d="M 47.192188 266.112 
L 660.992188 266.112 
" style="fill: none; stroke: #808080; stroke-width: 0.8; stroke-linejoin: miter; stroke-linecap: square"/>
   </g>
   <g id="patch_6">
    <path d="M 47.192188 0 
L 660.992188 0 
" style="fill: none; stroke: #000000; stroke-width: 0.8; stroke-linejoin: miter; stroke-linecap: square"/>
   </g>
  </g>
 </g>
 <defs>
  <clipPath id="p3cb0b44a9f">
   <rect x="47.192188" y="0" width="613.8" height="266.112"/>
  </clipPath>
 </defs>
</svg>
