<svg xmlns="http://www.w3.org/2000/svg" xmlns:xlink="http://www.w3.org/1999/xlink" width="913.477" height="377.053" viewBox="0 0 685.107 282.79"><defs><style>*{stroke-linejoin:round;stroke-linecap:butt}</style></defs><g id="figure_1"><path id="patch_1" d="M0 282.79h685.107V0H0v282.79z" style="fill:none"/><g id="axes_1"><path id="patch_2" d="M71.308 266.112h613.8V0h-613.8v266.112z" style="fill:none"/><g id="matplotlib.axis_1"><g id="xtick_1"><g id="line2d_1"><defs><path id="mb1802f5df9" d="M0 0v3.5" style="stroke:gray;stroke-width:.8"/></defs><use xlink:href="#mb1802f5df9" x="99.207" y="266.112" style="fill:gray;stroke:gray;stroke-width:.8"/></g><g id="text_1" style="fill:gray" transform="matrix(.1 0 0 -.1 96.026 280.71)"><defs><path id="DejaVuSans-30" d="M2034 4250q-487 0-733-480-245-479-245-1442 0-959 245-1439 246-480 733-480 491 0 736 480 246 480 246 1439 0 963-246 1442-245 480-736 480zm0 500q785 0 1199-621 414-620 414-1801 0-1178-414-1799Q2819-91 2034-91q-784 0-1198 620-414 621-414 1799 0 1181 414 1801 414 621 1198 621z" transform="scale(.01563)"/></defs><use xlink:href="#DejaVuSans-30"/></g></g><g id="xtick_2"><use xlink:href="#mb1802f5df9" id="line2d_2" x="168.958" y="266.112" style="fill:gray;stroke:gray;stroke-width:.8"/><g id="text_2" style="fill:gray" transform="matrix(.1 0 0 -.1 159.414 280.71)"><defs><path id="DejaVuSans-35" d="M691 4666h2478v-532H1269V2991q137 47 274 70 138 23 276 23 781 0 1237-428 457-428 457-1159 0-753-469-1171Q2575-91 1722-91q-294 0-599 50Q819 9 494 109v635q281-153 581-228t634-75q541 0 856 284 316 284 316 772 0 487-316 771-315 285-856 285-253 0-505-56-251-56-513-175v2344z" transform="scale(.01563)"/></defs><use xlink:href="#DejaVuSans-35"/><use xlink:href="#DejaVuSans-30" x="63.623"/><use xlink:href="#DejaVuSans-30" x="127.246"/></g></g><g id="xtick_3"><use xlink:href="#mb1802f5df9" id="line2d_3" x="238.708" y="266.112" style="fill:gray;stroke:gray;stroke-width:.8"/><g id="text_3" style="fill:gray" transform="matrix(.1 0 0 -.1 225.982 280.71)"><defs><path id="DejaVuSans-31" d="M794 531h1031v3560L703 3866v575l1116 225h631V531h1031V0H794v531z" transform="scale(.01563)"/></defs><use xlink:href="#DejaVuSans-31"/><use xlink:href="#DejaVuSans-30" x="63.623"/><use xlink:href="#DejaVuSans-30" x="127.246"/><use xlink:href="#DejaVuSans-30" x="190.869"/></g></g><g id="xtick_4"><use xlink:href="#mb1802f5df9" id="line2d_4" x="308.457" y="266.112" style="fill:gray;stroke:gray;stroke-width:.8"/><g id="text_4" style="fill:gray" transform="matrix(.1 0 0 -.1 295.733 280.71)"><use xlink:href="#DejaVuSans-31"/><use xlink:href="#DejaVuSans-35" x="63.623"/><use xlink:href="#DejaVuSans-30" x="127.246"/><use xlink:href="#DejaVuSans-30" x="190.869"/></g></g><g id="xtick_5"><use xlink:href="#mb1802f5df9" id="line2d_5" x="378.207" y="266.112" style="fill:gray;stroke:gray;stroke-width:.8"/><g id="text_5" style="fill:gray" transform="matrix(.1 0 0 -.1 365.483 280.71)"><defs><path id="DejaVuSans-32" d="M1228 531h2203V0H469v531q359 372 979 998 621 627 780 809 303 340 423 576 121 236 121 464 0 372-261 606-261 235-680 235-297 0-627-103-329-103-704-313v638q381 153 712 231 332 78 607 78 725 0 1156-363 431-362 431-968 0-288-108-546-107-257-392-607-78-91-497-524-418-433-1181-1211z" transform="scale(.01563)"/></defs><use xlink:href="#DejaVuSans-32"/><use xlink:href="#DejaVuSans-30" x="63.623"/><use xlink:href="#DejaVuSans-30" x="127.246"/><use xlink:href="#DejaVuSans-30" x="190.869"/></g></g><g id="xtick_6"><use xlink:href="#mb1802f5df9" id="line2d_6" x="447.957" y="266.112" style="fill:gray;stroke:gray;stroke-width:.8"/><g id="text_6" style="fill:gray" transform="matrix(.1 0 0 -.1 435.233 280.71)"><use xlink:href="#DejaVuSans-32"/><use xlink:href="#DejaVuSans-35" x="63.623"/><use xlink:href="#DejaVuSans-30" x="127.246"/><use xlink:href="#DejaVuSans-30" x="190.869"/></g></g><g id="xtick_7"><use xlink:href="#mb1802f5df9" id="line2d_7" x="517.707" y="266.112" style="fill:gray;stroke:gray;stroke-width:.8"/><g id="text_7" style="fill:gray" transform="matrix(.1 0 0 -.1 504.983 280.71)"><defs><path id="DejaVuSans-33" d="M2597 2516q453-97 707-404 255-306 255-756 0-690-475-1069Q2609-91 1734-91q-293 0-604 58T488 141v609q262-153 574-231 313-78 654-78 593 0 904 234t311 681q0 413-289 645-289 233-804 233h-544v519h569q465 0 712 186t247 536q0 359-255 551-254 193-729 193-260 0-557-57-297-56-653-174v562q360 100 674 150t592 50q719 0 1137-327 419-326 419-882 0-388-222-655t-631-370z" transform="scale(.01563)"/></defs><use xlink:href="#DejaVuSans-33"/><use xlink:href="#DejaVuSans-30" x="63.623"/><use xlink:href="#DejaVuSans-30" x="127.246"/><use xlink:href="#DejaVuSans-30" x="190.869"/></g></g><g id="xtick_8"><use xlink:href="#mb1802f5df9" id="line2d_8" x="587.457" y="266.112" style="fill:gray;stroke:gray;stroke-width:.8"/><g id="text_8" style="fill:gray" transform="matrix(.1 0 0 -.1 574.732 280.71)"><use xlink:href="#DejaVuSans-33"/><use xlink:href="#DejaVuSans-35" x="63.623"/><use xlink:href="#DejaVuSans-30" x="127.246"/><use xlink:href="#DejaVuSans-30" x="190.869"/></g></g><g id="xtick_9"><use xlink:href="#mb1802f5df9" id="line2d_9" x="657.207" y="266.112" style="fill:gray;stroke:gray;stroke-width:.8"/><g id="text_9" style="fill:gray" transform="matrix(.1 0 0 -.1 644.482 280.71)"><defs><path id="DejaVuSans-34" d="M2419 4116 825 1625h1594v2491zm-166 550h794V1625h666v-525h-666V0h-628v1100H313v609l1940 2957z" transform="scale(.01563)"/></defs><use xlink:href="#DejaVuSans-34"/><use xlink:href="#DejaVuSans-30" x="63.623"/><use xlink:href="#DejaVuSans-30" x="127.246"/><use xlink:href="#DejaVuSans-30" x="190.869"/></g></g></g><g id="matplotlib.axis_2"><g id="ytick_1"><g id="line2d_10"><defs><path id="m0ebf3f84de" d="M0 0h-3.5" style="stroke:gray;stroke-width:.8"/></defs><use xlink:href="#m0ebf3f84de" x="71.308" y="263.698" style="fill:gray;stroke:gray;stroke-width:.8"/></g><g id="text_10" style="fill:gray" transform="matrix(.16 0 0 -.16 0 269.777)"><defs><path id="DejaVuSans-2212" d="M678 2272h4006v-531H678v531z" transform="scale(.01563)"/></defs><use xlink:href="#DejaVuSans-2212"/><use xlink:href="#DejaVuSans-33" x="83.789"/><use xlink:href="#DejaVuSans-30" x="147.412"/><use xlink:href="#DejaVuSans-30" x="211.035"/><use xlink:href="#DejaVuSans-30" x="274.658"/><use xlink:href="#DejaVuSans-30" x="338.281"/></g></g><g id="ytick_2"><use xlink:href="#m0ebf3f84de" id="line2d_11" x="71.308" y="228.475" style="fill:gray;stroke:gray;stroke-width:.8"/><g id="text_11" style="fill:gray" transform="matrix(.16 0 0 -.16 0 234.554)"><use xlink:href="#DejaVuSans-2212"/><use xlink:href="#DejaVuSans-32" x="83.789"/><use xlink:href="#DejaVuSans-30" x="147.412"/><use xlink:href="#DejaVuSans-30" x="211.035"/><use xlink:href="#DejaVuSans-30" x="274.658"/><use xlink:href="#DejaVuSans-30" x="338.281"/></g></g><g id="ytick_3"><use xlink:href="#m0ebf3f84de" id="line2d_12" x="71.308" y="193.253" style="fill:gray;stroke:gray;stroke-width:.8"/><g id="text_12" style="fill:gray" transform="matrix(.16 0 0 -.16 0 199.332)"><use xlink:href="#DejaVuSans-2212"/><use xlink:href="#DejaVuSans-31" x="83.789"/><use xlink:href="#DejaVuSans-30" x="147.412"/><use xlink:href="#DejaVuSans-30" x="211.035"/><use xlink:href="#DejaVuSans-30" x="274.658"/><use xlink:href="#DejaVuSans-30" x="338.281"/></g></g><g id="ytick_4"><use xlink:href="#m0ebf3f84de" id="line2d_13" x="71.308" y="158.031" style="fill:gray;stroke:gray;stroke-width:.8"/><use xlink:href="#DejaVuSans-30" id="text_13" style="fill:gray" transform="matrix(.16 0 0 -.16 54.127 164.11)"/></g><g id="ytick_5"><use xlink:href="#m0ebf3f84de" id="line2d_14" x="71.308" y="122.808" style="fill:gray;stroke:gray;stroke-width:.8"/><g id="text_14" style="fill:gray" transform="matrix(.16 0 0 -.16 13.408 128.887)"><use xlink:href="#DejaVuSans-31"/><use xlink:href="#DejaVuSans-30" x="63.623"/><use xlink:href="#DejaVuSans-30" x="127.246"/><use xlink:href="#DejaVuSans-30" x="190.869"/><use xlink:href="#DejaVuSans-30" x="254.492"/></g></g><g id="ytick_6"><use xlink:href="#m0ebf3f84de" id="line2d_15" x="71.308" y="87.586" style="fill:gray;stroke:gray;stroke-width:.8"/><g id="text_15" style="fill:gray" transform="matrix(.16 0 0 -.16 13.408 93.665)"><use xlink:href="#DejaVuSans-32"/><use xlink:href="#DejaVuSans-30" x="63.623"/><use xlink:href="#DejaVuSans-30" x="127.246"/><use xlink:href="#DejaVuSans-30" x="190.869"/><use xlink:href="#DejaVuSans-30" x="254.492"/></g></g><g id="ytick_7"><use xlink:href="#m0ebf3f84de" id="line2d_16" x="71.308" y="52.364" style="fill:gray;stroke:gray;stroke-width:.8"/><g id="text_16" style="fill:gray" transform="matrix(.16 0 0 -.16 13.408 58.443)"><use xlink:href="#DejaVuSans-33"/><use xlink:href="#DejaVuSans-30" x="63.623"/><use xlink:href="#DejaVuSans-30" x="127.246"/><use xlink:href="#DejaVuSans-30" x="190.869"/><use xlink:href="#DejaVuSans-30" x="254.492"/></g></g><g id="ytick_8"><use xlink:href="#m0ebf3f84de" id="line2d_17" x="71.308" y="17.141" style="fill:gray;stroke:gray;stroke-width:.8"/><g id="text_17" style="fill:gray" transform="matrix(.16 0 0 -.16 13.408 23.22)"><use xlink:href="#DejaVuSans-34"/><use xlink:href="#DejaVuSans-30" x="63.623"/><use xlink:href="#DejaVuSans-30" x="127.246"/><use xlink:href="#DejaVuSans-30" x="190.869"/><use xlink:href="#DejaVuSans-30" x="254.492"/></g></g></g><path id="line2d_18" d="m99.207 158.032 12.125-.029.282.06.282-.069.282.08.282-.096.282.12.282-.16.282.234.281-.412.282 1.333.282 6.295.564-1.15.282.939.282 1.88.282.206.564-2.444.282-.481.282-.23.282.53.282 1.623.846 6.132.282 1.533.282-.039.282-2.885 1.128-18.737 1.127-40.77.282-3.189.282-.317.282 3.376.282 8.597.846 31.59.564 13.522.282 3.822.282 1.244.282.673.564 1.956.282-.31.564-2.697 1.128-6.901.282-.814.563.088.282-.104.564.404.282-.9.282-1.428.282-.165.282 1.03.282-.026.282-1.31.282-.196.564 3.87.282-.002.282-.881.282-.034.564 1.188.282.133.282-.209.282-.49.282-.072.282.965 1.41 8.494.281.183.282-.713.282-1.239.282-2.239.282-5.2.564-21.287.846-30.732.282-4.21.282 2.079.564 12.616.564 19.723.564 19.257.564 7.706.282 2.924.282.475.563-2.956.282-.425.564.264.282-.461.282-1.41 1.128-8.708.564-1.366.282.578.846 6.758.282.916.564 4.187.282-1.163.282-3.043.282-1.282.282.876.282.201.563-2.193.282.74.846 3.238.282 1.066.282-.223.282-.563.282 1.88.282 4.222.282 2.533.282-.65.282-.273.282 1.768.282-1.008.282-7.911 1.41-55.637.282-7.003.282-1.296.282 4.332 1.691 47.677.564 6.617.282 2.228.282.68.564-1.518.282.722.846 4.925.282.29.282-.45.282-1.186.846-5.168.564-.272.564-1.326.282-.075.281.463.564 1.481.282.111.282-.333.282-.11.282.41.282.8.282 1.197.282.673.282-1.465.282-3.045.282-1.133 1.692 15.244.282.478.282-.407.564 1.49.282-1.519.282-4.89.563-18.822 1.128-52.469.282-4.261.282 2.2.564 12.868 1.692 55.092.282 4.895.282.559.282-.53.282.46.282-.23.564-3.959.282.228.282.609.282-1.388.563-4.51.282-.308.282.16.282.361.846 3.096.282-.518.282-.281.282 1.091.282 1.687.282.349.564-2.716.282-.332.282.017.282-.126.282.533.564 3.008.846 2.095.282.216.281.75.564 3.632.564-2.698.282 1.391.282 2.637.282-1.101.282-6.06.564-19.063 1.128-50.467.282-4.543.282.912.282 5.387.564 17.625.846 33.923.282 6.936.563 6.765.564 4.632.282.573.846-3.9.282-.871.282-1.401.282-.615.282.13.564-1.152.282 1.74.282 3.403.282 1.75.564-1.26.282.995.282.282.282-2.236.564-5.104.846-2.564.563 1.514.564-2.088.282.968.282 1.372.282.323.282 1.983.564 12.052.282 2.96.282 1.224.564 4.199.282.4.282-.841.282-4.123.282-11.123 1.41-77.896.282-7.403.282 2.575.563 13.282.282 11.636.846 44.703.564 11.716.282 4.197.282 2.092.282-.479.282-1.491.282-.373.282.677.282.079.282-.463.282.86.282 1.924.282.394 1.41-9.419.282-.502.281.246.564.093.282.307.564.021.564 1.436.564-.997.564 2.254.282-.258.564-1.482.282.272.282 2.583.564 10.27.282 1.148.282-1.107.282.196.282 1.331.282-.143.564-3.012.281-.837.282-4.539.282-12.28.846-55.504.564-19.794.282-5.176.282-.583.282 5.123.564 24.696.846 40.337.564 15.593.564 6.753.846 6.185.282.03.282-.17.281.65.282-.341.282-3.751.282-5.68.282-3.146.564 1.33.282-1.416.282-2.014.846-2.372.282.032.564 1.929.282.264.282 1.651.564 5.687.564 2.453.282 2.065.282.813.282-.765.282-.34.282.517.563.315.282 2.15.282 3.254.282 1.963.282.669.282 1.15.564 3.525.282.604.282-2.628.282-8.604.564-31.238 1.128-69.766.282-5.252.282.61.282 5.543.564 25.16.564 29.196.845 26.704.282 6.141.564 6.378.564 9.533.282-.934.282-2.75.564-1.322.564-5.472.282-.676.282-.005.282-.5.282.506.282 1.634.282.5.282-1.027.282-.46.282.522.282-.185.563-2.167.282.372.846 3.571.282-.366.282-.912.282.365.564 3.323.282-.117.282.051.282 2.273.564 5.973.282.071.282-.694.564-.223.282-2.124.282-6.505.282-12.835 1.128-75.643.281-10.065.282-5.156.282.754.282 6.88.846 36.895.846 42.598.282 4.604.564 4.759.282.962.282-1.437.282-.068.846 12.936.282-.099.846-3.651.564.466.563-2.44.282.226.282.707.282-.739.282-1.055.282.644.282 1.508.282.432.282-.146.282.662.564 1.875.282.312.282-.079.282-.515.282.166.282 2.26 1.128 15.001.564 4.124.282 1.173.281-.099.282-2.985.564-13.07.282-11.455 1.692-103.737.282-9.213.282-1.602.282 4.578.564 15.517.564 34.293.564 35.647.564 21.844.282 5.866.282 1.79.282-.074.563-1.11.282.392.564 3.299.282-1.613.564-5 .564-2.645.282-.467.564 1.803.282-.096.282-.545.282-.187.282.609.846 5.522.564 1.58.282 1.001.282-.404.564-3.408.281.388.564 3.78.282 2.998.846 12.568.846 6.381.282.416.282-2.312.282-5.565.282-9.935.564-37.257.846-67.863.564-21.973.282-3.786.282 1.165.282 5.78.282 9.68.563 31.482.846 57.026.282 12.672.282 6.46.282 1.721.564.722.282-.596.564-2.682.564-1.297.846-3.691.282-1.512.282-.578.282 1.153.282 1.914.282 1.048.282-.024.282.293.563 2.079.564-1.121.282 1.967.282 3.53.282 1.888.282-.656.282-.95.282.597.846 4.025.846 3.641 1.128 6.303.282-1.444.282-5.911.564-25.028.564-40.42.563-39.51.564-19.573.282-7.398.282-3.189.282 4.911.564 27.12 1.41 84.837.282 6.07.282 2.273.282-1.432.564-5.474.846-4.819.282-.593.282.523.282 2.827.563 11.197.282.895.282-1.8.282.36.282 1.972.282-1.01.564-6.68.564.493.564-2.274.282.471.564 1.733.282 2.79.846 12.535.564 8.67.846 15.218.282 2.673.281.573.282-1.932.282-5.924.282-12.274.564-41.073 1.41-116.835.564-15.371.282-1.007.282 10.49 2.256 150.877.282 3.76.282-.37.281-1.102.282-.148.282-.96.564-6.847.282-.892.564 3.79.282.457.282-2.006.564-5.87.564-.362.282-1.57.282.113.846 11.504.282.085.282.397.564 1.975.282-.068.282-.355.563-.142.282.023.282 1.607.282 5.22.564 13.226.564 6.3.564 8.863.282-.869.282-5.102.282-10.91.564-48.323.846-76.069.564-37.137.282-12.468.282-6.947.282.405.282 8.8.845 44.35.564 47.175.564 43.741.282 10.151.282 6.123.282 3.574.282.06.846-8.777.282-1.048.564-.332.564-.83.282.78.564 5.229.282 2.386.282.507.282-.684.282.097.282.54.281-1.608.564-6.41.282 1.143.564 4.377.282 1.441.846 7.16 1.128 12.952.846 14.961.282.442.564-1.443.282-4.987.282-15.393 1.691-148.923.564-25.156.282-3.59.282 3.882.564 24.145.564 36.827 1.128 86.405.282 12.065.282 4.297.282-.108.282.422.282.743.282-2.483.282-4.765.282-2.18.564 2.165.563-2.58.282.484.282.21.846-3.746.282-.26.282.37.846 2.705.282.711.564 2.538.282 2.7.564 11.281.564 10.36.564 10.692.282 5.513.282 2.763.282 1.115.282 3.004.281 5.182.282 2.084.282-6.58.282-16.158.564-53.189.846-92.68.564-38.128.282-10.039.282-3.018.282 2.946.564 16.717.564 23.643.564 40.744.564 45.722.564 23.142.563 10.059.282 2.286.282 1.144.282.433.282-.172.564-.867.564-.054.846-.816.282-.155.282.057.282 1.383.564 5.042.282-.033.282-.501.282 1.475.282 2.366.282.723.282.12.282 2.842.563 9.894.282 3.345.282 5.019.564 13.629 1.128 14.053.282 1.971.282-2.467.282-10.127.564-45.964 1.128-114.088.564-39.47.282-9.16.564-5.792.282-1.731.282 2.949.282 10.063.563 32.395 1.41 96.327.282 10.663.282 5.465.846 8.858.282 1.02.282.248.846 2.723.564 2.136.282-.349.282-1.026.282.328.564 4.001.282.744.563.036.282.586 1.128 4.36.282 2.851 1.974 37.734.282 1.18.282-.032.282 1.042.282-.625.282-8.415.282-19.392 1.691-166.508.282-12.989.564-12.237.282-1.897.282 2.176.282 6.518.564 22.605.564 35.407 1.128 77.436.282 12.804.282 6.845.282 2.361.564 1.405.846 2.863.282.481.282.746.563 2.576.564 4.167.282 1.995.282.2.564-1.897.282.056.282.269.282.481.564 2.43.564 3.975.846 6.477.564 7.143.564 3.935.282 4.26.564 11.567.281-2.904.282-13.279.564-47.013 1.128-110.355.564-27.86.282-9.334.282-4.036.282 1.06.282 4.053.282 6.909.564 23.138.564 29.562.846 51.88 1.128 49.838.563 9.132.282.21.846-10.692.564-2.572.282-1.372.282-.524.282.806.282 3.136.564 9.184.564 3.513.564 6.155.282.947.282.407.282 2.506.564 7.86.282 2.368.282 3.722.563 11.751.564 7.309.564 8.794.282-2.529.282-9.23.282-16.911.564-64.672.564-73.277.564-47.517.282-12.745.282-6.626.282-3.36.282-.882.282 1.795.564 6.644.282 7.09.845 42.183.564 35.666.846 59.02.564 24.39.282 5.813.282 2.48.282.813.282-1.025.282-1.98.282.489.564 6.205.564-2.874.564 2.981.282-2.316.282-4.188.282-1.51.282 1.211.282.72.282-.204.281 1.16 1.128 13.65.846 16.513 1.128 12.952.282 4.634.282.915.282-6.831.282-16.103.564-54.215.846-98.8.564-34.625.282-7.488.282-3.864.281-1.834.282-.621.282 2.195.282 7.369 1.128 51.033.846 45.274 1.41 61.373.282 5.996.282 3.097.282 1.343.282.067.846-3.988.282.795.845 3.852.282.1.282-.553.282.73.564 4.634.282 1.206.282 1.844.564 5.762.282 1.656.282 2.609 1.41 24.438.282 2.362.282 1.264.282-1.113.282-6.667.282-15.454.564-59.26.845-102.94.564-30.838.282-5.781.282-1.674.282-.31.282.286.282 2.6.564 10.75.282 6.86.564 24.916.846 48.143.564 35.334.846 34.546.282 5.845.282.947.282-1.392.281-.541.282 1.522.564 3.996.282 1.79 1.128 14.451.846 1.932.564 2.739.282.204.282.005.282 2.28.846 16.07.564 10.147.846 9.092.282-2 .281-11.247.282-20.346.564-66.136.564-72.494.564-33.317.564-15.017.564-9.003.282-1.679.282 3.141.564 11.56.282 8.142 3.101 138.1.846 16.817.282-1.729.282-3.036.282.796.282 2.912.846 4.54.282.424.282-1.312.282.455.282 2.51.282.409.282-2.056.282.802.846 15.45.282 1.692.845 11.362.282-.307.282 1.004.564 9.09.282-.83.282-6.78.282-13.074.282-23.965 1.128-134.935.564-24.118.564-12.733.282-1.77.282 1.168.282 3.89.564 14.25.846 31.952 2.255 91.26 1.128 34.506.282 3.742.564 1.842.282 1.553.282.114.564-4.626.282-1.018.564-.74.282.862.564 4.465.563 2.485.846 5.574.282 6.027.564 15.496.846 10.778.282 1.528.282-5.06.282-12.695.282-21.043.564-69.024.564-64.327.282-16.722.282-9.634.282-5.498.564-5.602.282-.935.281 3.435 1.128 28.807.564 23.017.846 18.947.564 16.743 1.128 26.465.282 4.854.846 20.807 1.128 19.698.282.538.282.242.281-.438.282-1.199.282.672.564 8.65.282 1.729.282-.026.282 1.262.846 8.778 1.128 19.906.282 3.086.282 1.383.282-3.417.282-11.69.282-22.953 1.128-127.569.563-21.305.564-12.376.282-1.547.282 3.953.564 12.528.282 3.907.282 6.185.846 27.061.564 12.185.564 17.54.564 19.862 1.128 26.35 1.128 16.811.281 2.168.564-3.324.282 1.507.282 3.532.282.887.282-2.308.282-1.081.564 4.33.282-.122.282-.286.282 1.828.846 9.75 1.41 32.817.282 3.632.282 1.686.282-3.82.282-14.367.563-64.845.564-67.42.282-18.338.564-16.7.564-7.954.282-2.369.282.05.282 3.265.846 15.414 1.128 36.877.564 15.84.846 13.375.845 18.716.564 7.843.282 2.84.564 7.518.282-1.44.282-3.578.282-.544.564 5.088.282 3.456.846 18.967.846 7.976.564 8.194.846 19.36.564 12.989.563 8.358.282 1.593.282-3.086.282-9.513.282-17.224.564-59.44.564-54.815.564-21.585.564-15.047.282-3.372.282 1.14.564 8.755.564 12.088 1.41 44.306.563 14.747.564 7.804 1.128 11.715.846 11.053.282-.29.282-3.37.564-9.007.282-2.092.282.07.846 3.098.282 3.463.564 9.369 1.973 22.646 1.41 31.627.282 1.207.282-10.56 1.41-114.403.564-21.964.564-8.013.282-1.845.282.465.282 1.397.282.294.282.049.281 2.358.564 12.072.564 19.124.564 21.714.846 20.942.282 2.87.282-2.633.846-16.922.282-10.783.282-15.255.282-8.18.282 6.918.564 25.822.282 8.276.564 32.232.563 27.47.564 15.852.282 4.756.282 1.484.282-2.422.846-18.886.282-.785.282-1.608.846-11.222.282-3.11.282-6.729.564-28.22.564-29.721.282-8.293.282-4.896.282-2.886.282-1.583.282-.693.282.434.845 5.91.282.839.282 2.638 1.41 24.192.846 11.791.564 4.875.564 3.664.282.207.282-1.335.282-.638.282 2.048.282 3.216.282 1.15.564-1.95.281 1.14.564 3.269.282 2.83.564 6.742.282.543.282 1.454.564 7.035.282-.887.282-1.488.282 2.12.282 3.525.282.594.282-.876.282 1.582.282 3.01.282 1.246.282.106.282-.263.282-4.603.564-28.82.845-41.66.564-19.708.564-10.951.282-2.079.282.259.282 1.39.282 2.292.846 9.335.282 1.478.282 2.577 1.974 33.433.282-.752.282-1.443.282 5.444.563 20.39 1.128 15.979.564 1.486.564 3.512.282.491.282.01.282.312.282.982.846 5.878.282.056.282-1.478.282-2.075.282-1.037.282 1.116.846 7.061.563 2.938.282-.204.282-3.018.282-7.288 1.41-54.471.564-15.382.282-4.455.564-4.273.282-.217.282 2.229 1.128 16.934.564 13.524.282 2.758.282.99.563 2.512.564-.952.282 2.394.564 6.488.564 1.56 1.41 6.735.282.517.564.259.282-.08 1.128-2.084.282-.082.282.805.564 2.84.282 1.995.845 10.253.846 11.922.282.59.282.158.282-.415.282-5.332.564-28.957.564-26.136.564-16.629.282-4.608.282-1.597.282 1.488.846 11.96 2.255 34.135.846 7.908.564 6.368.282.216.282-2.064.846-8.94.282-1.258.846-1.132.282.255.282-.097.282-.984.282-.229.282 1.41.282 2.185.281.626h0" clip-path="url(#pe667ae6ed8)" style="fill:none;stroke:#1f77b4;stroke-width:1.5;stroke-linecap:square"/><path id="patch_3" d="M71.308 266.112V0" style="fill:none;stroke:gray;stroke-width:.8;stroke-linejoin:miter;stroke-linecap:square"/><path id="patch_4" d="M685.107 266.112V0" style="fill:none;stroke:#000;stroke-width:.8;stroke-linejoin:miter;stroke-linecap:square"/><path id="patch_5" d="M71.308 266.112h613.8" style="fill:none;stroke:gray;stroke-width:.8;stroke-linejoin:miter;stroke-linecap:square"/><path id="patch_6" d="M71.308 0h613.8" style="fill:none;stroke:#000;stroke-width:.8;stroke-linejoin:miter;stroke-linecap:square"/></g></g><defs><clipPath id="pe667ae6ed8"><path d="M71.308 0h613.8v266.112h-613.8z"/></clipPath></defs></svg>