<svg xmlns="http://www.w3.org/2000/svg" xmlns:xlink="http://www.w3.org/1999/xlink" width="913.477" height="377.053" viewBox="0 0 685.107 282.79"><defs><style>*{stroke-linejoin:round;stroke-linecap:butt}</style></defs><g id="figure_1"><path id="patch_1" d="M0 282.79h685.107V0H0v282.79z" style="fill:none"/><g id="axes_1"><path id="patch_2" d="M71.308 266.112h613.8V0h-613.8v266.112z" style="fill:none"/><g id="matplotlib.axis_1"><g id="xtick_1"><g id="line2d_1"><defs><path id="m005b44410b" d="M0 0v3.5" style="stroke:gray;stroke-width:.8"/></defs><use xlink:href="#m005b44410b" x="99.207" y="266.112" style="fill:gray;stroke:gray;stroke-width:.8"/></g><g id="text_1" style="fill:gray" transform="matrix(.1 0 0 -.1 96.026 280.71)"><defs><path id="DejaVuSans-30" d="M2034 4250q-487 0-733-480-245-479-245-1442 0-959 245-1439 246-480 733-480 491 0 736 480 246 480 246 1439 0 963-246 1442-245 480-736 480zm0 500q785 0 1199-621 414-620 414-1801 0-1178-414-1799Q2819-91 2034-91q-784 0-1198 620-414 621-414 1799 0 1181 414 1801 414 621 1198 621z" transform="scale(.01563)"/></defs><use xlink:href="#DejaVuSans-30"/></g></g><g id="xtick_2"><use xlink:href="#m005b44410b" id="line2d_2" x="168.958" y="266.112" style="fill:gray;stroke:gray;stroke-width:.8"/><g id="text_2" style="fill:gray" transform="matrix(.1 0 0 -.1 159.414 280.71)"><defs><path id="DejaVuSans-35" d="M691 4666h2478v-532H1269V2991q137 47 274 70 138 23 276 23 781 0 1237-428 457-428 457-1159 0-753-469-1171Q2575-91 1722-91q-294 0-599 50Q819 9 494 109v635q281-153 581-228t634-75q541 0 856 284 316 284 316 772 0 487-316 771-315 285-856 285-253 0-505-56-251-56-513-175v2344z" transform="scale(.01563)"/></defs><use xlink:href="#DejaVuSans-35"/><use xlink:href="#DejaVuSans-30" x="63.623"/><use xlink:href="#DejaVuSans-30" x="127.246"/></g></g><g id="xtick_3"><use xlink:href="#m005b44410b" id="line2d_3" x="238.708" y="266.112" style="fill:gray;stroke:gray;stroke-width:.8"/><g id="text_3" style="fill:gray" transform="matrix(.1 0 0 -.1 225.982 280.71)"><defs><path id="DejaVuSans-31" d="M794 531h1031v3560L703 3866v575l1116 225h631V531h1031V0H794v531z" transform="scale(.01563)"/></defs><use xlink:href="#DejaVuSans-31"/><use xlink:href="#DejaVuSans-30" x="63.623"/><use xlink:href="#DejaVuSans-30" x="127.246"/><use xlink:href="#DejaVuSans-30" x="190.869"/></g></g><g id="xtick_4"><use xlink:href="#m005b44410b" id="line2d_4" x="308.457" y="266.112" style="fill:gray;stroke:gray;stroke-width:.8"/><g id="text_4" style="fill:gray" transform="matrix(.1 0 0 -.1 295.733 280.71)"><use xlink:href="#DejaVuSans-31"/><use xlink:href="#DejaVuSans-35" x="63.623"/><use xlink:href="#DejaVuSans-30" x="127.246"/><use xlink:href="#DejaVuSans-30" x="190.869"/></g></g><g id="xtick_5"><use xlink:href="#m005b44410b" id="line2d_5" x="378.207" y="266.112" style="fill:gray;stroke:gray;stroke-width:.8"/><g id="text_5" style="fill:gray" transform="matrix(.1 0 0 -.1 365.483 280.71)"><defs><path id="DejaVuSans-32" d="M1228 531h2203V0H469v531q359 372 979 998 621 627 780 809 303 340 423 576 121 236 121 464 0 372-261 606-261 235-680 235-297 0-627-103-329-103-704-313v638q381 153 712 231 332 78 607 78 725 0 1156-363 431-362 431-968 0-288-108-546-107-257-392-607-78-91-497-524-418-433-1181-1211z" transform="scale(.01563)"/></defs><use xlink:href="#DejaVuSans-32"/><use xlink:href="#DejaVuSans-30" x="63.623"/><use xlink:href="#DejaVuSans-30" x="127.246"/><use xlink:href="#DejaVuSans-30" x="190.869"/></g></g><g id="xtick_6"><use xlink:href="#m005b44410b" id="line2d_6" x="447.957" y="266.112" style="fill:gray;stroke:gray;stroke-width:.8"/><g id="text_6" style="fill:gray" transform="matrix(.1 0 0 -.1 435.233 280.71)"><use xlink:href="#DejaVuSans-32"/><use xlink:href="#DejaVuSans-35" x="63.623"/><use xlink:href="#DejaVuSans-30" x="127.246"/><use xlink:href="#DejaVuSans-30" x="190.869"/></g></g><g id="xtick_7"><use xlink:href="#m005b44410b" id="line2d_7" x="517.707" y="266.112" style="fill:gray;stroke:gray;stroke-width:.8"/><g id="text_7" style="fill:gray" transform="matrix(.1 0 0 -.1 504.983 280.71)"><defs><path id="DejaVuSans-33" d="M2597 2516q453-97 707-404 255-306 255-756 0-690-475-1069Q2609-91 1734-91q-293 0-604 58T488 141v609q262-153 574-231 313-78 654-78 593 0 904 234t311 681q0 413-289 645-289 233-804 233h-544v519h569q465 0 712 186t247 536q0 359-255 551-254 193-729 193-260 0-557-57-297-56-653-174v562q360 100 674 150t592 50q719 0 1137-327 419-326 419-882 0-388-222-655t-631-370z" transform="scale(.01563)"/></defs><use xlink:href="#DejaVuSans-33"/><use xlink:href="#DejaVuSans-30" x="63.623"/><use xlink:href="#DejaVuSans-30" x="127.246"/><use xlink:href="#DejaVuSans-30" x="190.869"/></g></g><g id="xtick_8"><use xlink:href="#m005b44410b" id="line2d_8" x="587.457" y="266.112" style="fill:gray;stroke:gray;stroke-width:.8"/><g id="text_8" style="fill:gray" transform="matrix(.1 0 0 -.1 574.732 280.71)"><use xlink:href="#DejaVuSans-33"/><use xlink:href="#DejaVuSans-35" x="63.623"/><use xlink:href="#DejaVuSans-30" x="127.246"/><use xlink:href="#DejaVuSans-30" x="190.869"/></g></g><g id="xtick_9"><use xlink:href="#m005b44410b" id="line2d_9" x="657.207" y="266.112" style="fill:gray;stroke:gray;stroke-width:.8"/><g id="text_9" style="fill:gray" transform="matrix(.1 0 0 -.1 644.482 280.71)"><defs><path id="DejaVuSans-34" d="M2419 4116 825 1625h1594v2491zm-166 550h794V1625h666v-525h-666V0h-628v1100H313v609l1940 2957z" transform="scale(.01563)"/></defs><use xlink:href="#DejaVuSans-34"/><use xlink:href="#DejaVuSans-30" x="63.623"/><use xlink:href="#DejaVuSans-30" x="127.246"/><use xlink:href="#DejaVuSans-30" x="190.869"/></g></g></g><g id="matplotlib.axis_2"><g id="ytick_1"><g id="line2d_10"><defs><path id="m943fe10fef" d="M0 0h-3.5" style="stroke:gray;stroke-width:.8"/></defs><use xlink:href="#m943fe10fef" x="71.308" y="248.654" style="fill:gray;stroke:gray;stroke-width:.8"/></g><g id="text_10" style="fill:gray" transform="matrix(.16 0 0 -.16 0 254.733)"><defs><path id="DejaVuSans-2212" d="M678 2272h4006v-531H678v531z" transform="scale(.01563)"/></defs><use xlink:href="#DejaVuSans-2212"/><use xlink:href="#DejaVuSans-32" x="83.789"/><use xlink:href="#DejaVuSans-30" x="147.412"/><use xlink:href="#DejaVuSans-30" x="211.035"/><use xlink:href="#DejaVuSans-30" x="274.658"/><use xlink:href="#DejaVuSans-30" x="338.281"/></g></g><g id="ytick_2"><use xlink:href="#m943fe10fef" id="line2d_11" x="71.308" y="202.316" style="fill:gray;stroke:gray;stroke-width:.8"/><g id="text_11" style="fill:gray" transform="matrix(.16 0 0 -.16 0 208.395)"><use xlink:href="#DejaVuSans-2212"/><use xlink:href="#DejaVuSans-31" x="83.789"/><use xlink:href="#DejaVuSans-30" x="147.412"/><use xlink:href="#DejaVuSans-30" x="211.035"/><use xlink:href="#DejaVuSans-30" x="274.658"/><use xlink:href="#DejaVuSans-30" x="338.281"/></g></g><g id="ytick_3"><use xlink:href="#m943fe10fef" id="line2d_12" x="71.308" y="155.978" style="fill:gray;stroke:gray;stroke-width:.8"/><use xlink:href="#DejaVuSans-30" id="text_12" style="fill:gray" transform="matrix(.16 0 0 -.16 54.127 162.057)"/></g><g id="ytick_4"><use xlink:href="#m943fe10fef" id="line2d_13" x="71.308" y="109.64" style="fill:gray;stroke:gray;stroke-width:.8"/><g id="text_13" style="fill:gray" transform="matrix(.16 0 0 -.16 13.408 115.719)"><use xlink:href="#DejaVuSans-31"/><use xlink:href="#DejaVuSans-30" x="63.623"/><use xlink:href="#DejaVuSans-30" x="127.246"/><use xlink:href="#DejaVuSans-30" x="190.869"/><use xlink:href="#DejaVuSans-30" x="254.492"/></g></g><g id="ytick_5"><use xlink:href="#m943fe10fef" id="line2d_14" x="71.308" y="63.302" style="fill:gray;stroke:gray;stroke-width:.8"/><g id="text_14" style="fill:gray" transform="matrix(.16 0 0 -.16 13.408 69.38)"><use xlink:href="#DejaVuSans-32"/><use xlink:href="#DejaVuSans-30" x="63.623"/><use xlink:href="#DejaVuSans-30" x="127.246"/><use xlink:href="#DejaVuSans-30" x="190.869"/><use xlink:href="#DejaVuSans-30" x="254.492"/></g></g><g id="ytick_6"><use xlink:href="#m943fe10fef" id="line2d_15" x="71.308" y="16.964" style="fill:gray;stroke:gray;stroke-width:.8"/><g id="text_15" style="fill:gray" transform="matrix(.16 0 0 -.16 13.408 23.042)"><use xlink:href="#DejaVuSans-33"/><use xlink:href="#DejaVuSans-30" x="63.623"/><use xlink:href="#DejaVuSans-30" x="127.246"/><use xlink:href="#DejaVuSans-30" x="190.869"/><use xlink:href="#DejaVuSans-30" x="254.492"/></g></g></g><path id="line2d_16" d="m99.207 155.936.282.09.282-.1.282.11.282-.121.282.131.282-.142.282.152.282-.162.282.173.282-.183.282.193.282-.204.282.215.282-.226.282.238.282-.25.282.262.282-.275.282.289.282-.303.282.318.282-.334.282.35.282-.367.282.385.281-.405.282.426.282-.448.282.473.282-.5.282.528.282-.559.282.594.282-.632.282.674.282-.721.282.774.282-.834.282.903.282-.983.282 1.076.282-1.187.282 1.321.282-1.487.282 1.697.282-1.971.282 2.346.282-2.888.282 3.742.282-5.292.281 9.004.564-76.004.282 11.364.282.3.282 12.465.282 7.435.564 23.421.282 12.077.564 12.92.282 2.587.282 4.223.282.69.282 1.863.282-.136.282 1.899.282-1.595.282-2.695.282-4.954.564-2.609.282-.68.282-2.66.282.117.281.788.282 2.241.282.48.282 1.515.282.748.282 1.876.282.878.282 1.957.282.97.282 1.673.282.517.282.98.282-.395.564.855.282 1.76.282.218.282-.669.282-3 .282-4.327.564-20.343.846-40.558.563-18.691.282-2.013.282 2.44.564 13.127.564 19.26.564 21.98.564 11.357.564 9.682.282 2.525.282.903.564 6.07.282 1.384.564-2.846.564-1.438.564-5.26.281-.997.282.506.564-.892.282.077 1.128 7.15.846 5.031.282.243.564-.677.282 1.135.282.587.282-.303.564-2.76.282-4.941.282-10.556 1.41-77.788.281-7.748.282-4.359.282.562.282 4.918.564 21.17.846 43.726.564 16.546.564 11.35.282 2.375.282 1.415.564 1.27.282-.491.282-.924.846-4.757.282-.61.282-.263.281.56.282.1.282-.416.282-.902.282.59.564 3.07.282.125.282.812.282 2.446.282 3.63.282 2.143.564 2.652.282 2.117.282.992.564 1.046.282-.206.282-3.639.282-6.506.282-9.086.282-12.716 1.127-70.851.564-17.37.282-2.595.282 3.388.282 7.908.564 26.133.846 40.911.564 16.878.564 10.351.846 7.674.282 1.64.282-.247.846-4.333.282-1.818.563-5.68.282-1.191.282-.177.564.275.282.856.282-.019.282-.924.282-.475 1.128 6.453.564 6.696.564 4.808.282 3.301.282 1.732.282.085.282-.832.282-2.042.282-6.451.564-27.487.845-47.914.564-22.728.282-5.523.282 1.043.282 5.18.282 8.012.564 28.302.564 26.78.846 24.034.282 3.185.564 3.842.282.206.846-2.787.564-5.33.282-.813.281.401.282-1.07.564-3.163.564-1.076.282.632 1.692 8.744.564 1.486.282.867 1.41 6.377.282-.189.282-2.684.564-13.41.563-21.634.846-42.512.564-16.672.282-1.2.282 3.61.282 7.98.564 27.274.564 25.228.846 22.608.282 4.14.564 4.099.282 1 .282.486.282.02.282-.106.563-1.89.282-1.905.846-7.35.282-.247.282-.418.282-.823.282.696.564 3.04.282.782 1.692 12.25.846 7.101.282.528.282-.74.282-1.372.282-3.683.282-9.673.845-51.396.564-34.85.564-19.724.282-3.33.282 1.325.282 5.415.282 9.51.564 31.927.564 32.14.564 19.153.282 5.256.282 2.032.282.816.564 3.002.282.004.282-.686.563-.145.282-.474.564-1.371.282-.49 1.128-.793 1.128 3.294.846 3.5.282 1.206 1.128 9.624.564 7.24.282-.106.282-2.323.281-4.448.282-9.26.564-32.341 1.128-69.283.564-15.655.282-2.147.282 2.652.282 7.333.564 26.852.564 33.954.564 20.284.564 14.382 1.128 15.264.282 1.326.281-.592 1.128-4.873.564-.93.282-1.066.282-.343.564.856.846-3.441.564 1.692.282.027.282.556.282 3.131.564 7.579.564 2.062.845 7.966.282-.95.282-3.276.282-6.048.282-10.684.564-34.404.846-54.291.564-19.985.282-4.56.282-.083.282 4.745.564 22.421.846 43.959.564 15.246.846 11.884.563 7.176.846 5.296.846 1.515.282-.19.564-1.591.564-1.654.282-.22 2.256 12.575.564 3.207.564 2.185.563 1.633.282.49.282-.256.282-1.108.282-2.707.282-4.979.564-19.352.846-48.116.564-27.346.282-8.294.282-4.177.282.844.282 5.373.282 9.655.564 30.504.564 30.546.564 15.6.281 2.782.564 2.755.282.845.282-.294.282-.117.564 1.628.282-.73 1.128-5.266.282.283.564 3.455.564.242 1.128 2.405.282.17.282-.17.282.101.845 4.256.282 1.645.564 4.704.282 1.566.282.322.282-1.458.282-3.97.282-6.233.282-9.661.564-32.637.564-33.619.564-23.509.282-5.85.282-.908.282 3.03.282 6.63.282 12.201.846 53.135.563 17.2.564 12.56.282 2.177.282-.313.282-.06.282.324.282-.208.282-.961.282-.558.282.297.564 3.373.282.355.846-5.64.564.414.282.452.282 1.086.564 3.698 2.255 20.341.282.318.564-.755.282-1.553.282-4.819.282-9.192.564-29.684 1.128-79.846.564-20.51.282-3.498.282-.611.282 2.4.282 7.834.563 35.348.564 37.897.564 25.588.564 14.704.564 7.064.564 3.71.282.537 1.692-7.749.846-1.934.282.256.564 3.412.282.668.281 1.022 1.128 8.831.564 5.127.282 1.53.564 5.288.564 4.648.282.577.282-1.834.282-5.06.282-8.849.564-31.304 1.128-85.352.564-26.89.282-7.044.282-1.4.281 5.46.564 25.684 1.41 87.122.564 14.49.282 3.063.282 1.578.846 7.175.282-.193.564-1.153.846-.985.564-1.08.282-.583.282.123.563 1.028.282-.007.282.136.282.593.564 2.723.564 3.733 1.128 9.53.564 7.207.282.322.564-6.183.282-4.865.282-9.117.564-34.84.846-58.115.563-28.3.282-10.438.282-5.149.282 1.309.282 5.894.282 9.835.282 15.556.846 64.324.282 11.051.564 11.683.564 6.714 1.128 8.86.282.467.282.011.282-.578.846-5.08.563-1.163.846-1.322.282.194.846 3.049.282 1.146.564 4.406.564 4.348.846 4.98.282.468.282.098.282-.232.282-1.162.282-3.552.282-6.667.564-24.639 1.41-85.143.281-7.87.282-4.241.282.54.282 6.675.564 32.507.564 38.016.564 24.5.564 14.277.282 3.98.282 1.892.282.296.564-1.271.282-1.35.564-3.812.563-.977.846-2.655.282-.01.282.486.846 2.613.282 2.288.564 8.57 1.41 10.302.282 1.218.846 6.704.282.74.282-1.111.282-4.37.282-8.67.563-30.557 1.41-100.432.564-21.31.282-2.239.282 3.45.282 8.321.564 31.533.846 64.126.564 20.689.564 15.557.282 4.426.282 1.041.282-.02.282.642.281.106.564-2.233.282-.304.282-.484.564-1.465.282.076.564-1.116.282.598.564 3.086.282 1.211 1.128 7.79.564 6.268.564 4.095.846 11.556.282-1.55.281-4.216.282-6.724.282-11.444.564-39.852 1.128-88.265.564-28.726.282-8.3.282-2.396.282 4.291.282 9.118.282 13.103.564 44.41.564 48.284.564 24.524.564 12.366.845 7.703.282.989.846-3.398.282-.787.564-2.41.282.092.282.43.282-.066.282.642.846 7.07.282 1.023.282 2.061.564 5.185.282 1.837.282 3.48.564 9.164.563 5.303.282 1.558.282-.794.282-2.221.282-3.106.282-7.03.282-15.261 1.974-161.05.282-11.085.282-4.508.282.564.282 5.622.282 11.553.564 38.87.846 67.472.564 25.653.563 13.743.282 3.475.564 3.337.282 1.014.846.706.282.485.282-.224.564-1.308 1.128-.82.282.338.282.703.564 2.524.564 3.16.564 2 1.127 8.42.846 5.099.282-1.203.282-5.499.564-23.553.564-37.788.846-61.144.564-30.292.282-9.044.282-2.888.282 3.197.282 8.891.564 36.042.845 64.717.564 17.469.564 11.194.564 4.29.282 1.762.282.142.564-3.951.564-1.49.282-1.543.282.302.564 4.931.564.271.564 3.657.282.706.282 1.06 1.41 11.593.281 1.353.282.245.282.862.564 3.991.282-.192.282-1.974.282-3.795.282-7.554.564-32.845 1.41-104.075.282-13.669.282-8.034.282-3.14.282 1.426.282 7.862.282 15.65 1.41 103.612.281 9.271.564 8.339.564 7.085.282 1.449.282.358.282.954.564 2.616.282-.23.564-1.008.282-.313.282-.531.282-.045.282.699.846 3.63.281 2.01.564 6.313 1.974 26.553.282 1.555.282-1.284.282-4.913.282-9.336.282-15.184.564-46.28 1.128-97.445.564-29.685.282-6.646.282-.921.282 4.262.281 7.89.564 26.173.846 64.597.564 35.835.564 17.391.564 9.127.846 6.665.282.679.282-.253.282.57.564 2.195.282.23.282.494.846 2.364.563 3.583.846 6.981 1.41 16.137.846 6.205.282.027.282-3.734.282-9.242.564-33.97 1.692-138.765.282-12.41.282-6.546.281-2.965.282-.934.282 2.766.282 8.17.564 29.193 1.41 96.817.846 24.944.282 2.264.282-.002.282.885.282 1.735.282.856.282-.386.282.108.564 2.032.282-.368.282-.118.563 1.877.282.162.282 1.936.564 10.005 1.692 16.896.564 5.973.564 3.802.282-.5.282-5.575.282-11.621.564-37.195 1.41-117.595.563-26.887.282-5.758.282-1.562.282 2.056.282 6.138.282 11.098.564 37.78.846 64.683.564 23.647.564 8.21.846 8.394.282.81.564-.916.282.098.282.295.282-.153.563-.812.282.173.282.41.282.112.564-1.274.282.314.282 1.879.846 9.523.564 7.401.282 2.09.564 2.294.564 4.239.282.087.282-2.413.282-4.958.282-8.652.282-14.895 1.691-123.296.282-12.333.282-5.184.282.596.282 5.201.282 10.058.564 34.078.846 60.447.564 15.163.564 13.483.282 4.101.564 2.887.282.543.282-1.022.563-5.087.282-1.5.564-1.32.282.168.564 1.882.282.344.282.782.282 2.041.564 6.302 2.256 32.585.282 1.624.564 1.142.282-1.208.282-6.422.563-30.158.564-43.347.846-70.686.564-32.606.282-10.404.282-4.854.282.545.282 5.055.282 9.115.564 30.552 1.128 83.16.564 16.06.846 14.18.282 3.075.845 5.168.282-.143.282-1.912.282-.783.564 3.187.564-2.082.282 1.792.564 7.738.564.908.282 2.945.564 8.521.564 5.734 1.128 15.407.282.892.282-2.557.281-6.699.282-12.201.564-43.565 1.128-100.658.564-28.554.564-14.612.282-3.379.282.564.282 4.31.282 7.861.564 26.22.564 41.201.564 46.266.564 26.539.563 12.23.564 7.187.282 1.852.282.154.564-2.19.282.214.282.744.282.03.564-1.537.282-.27.282.616.846 3.783.282 2.72.846 16.273.564 5.486.564 7.948.281 1.563.564 1.794.282-.264.282-4.295.282-11.288.564-45.276 1.128-102.432.564-31.826.564-17.2.282-3.267.282.007.282 3.598.282 8.44.564 28.005.564 38.925.564 47.482.563 26.536.564 14.023.564 8.874.564 3.694.564 3.054.282.297.564-2.602.564.31.564-3.433.282-.395.282.976.282 1.632.282 2.655.564 7.064.564 4.475 1.691 20.21.282.154.282-2.997.282-8.229.282-15.078.564-46.044.846-78.788.564-32.946.564-20.857.282-5.935.282-1.792.282 2.689.282 7.324.564 24.306.563 39.662.564 47.363.564 28.456.564 16.021.564 8.58.282 2.809.282.368.282-.78.282.1.282.381.564-1.333.282.198.282-.053.282-1.092.282-.531.282 1.339.282 1.892.564 2.004 1.41 9.536 1.691 16.633.282-1.608.282-5.896.282-10.99.564-35.571L533.99 55.8l.564-20.26.282-6.053.282-.84.282 3.376.281 5.31.282 8.358.282 14.642 1.41 98.203.564 22.464.282 4.518.846 7.247.282 1.313.282.03.282-.458.282-.181.282-.024.846-.737.282-.28.282.212.564 2.772.563 2.822 1.128 9.52 1.128 11.386.564 2.838.282-.081.282-3.498.282-8.61.564-32.526 1.692-133.969.564-13.275.281-4.501.282-2.635.282 1.98.282 7.15.564 25.297.846 61.195.846 53.141.282 9.444.564 9.652.564 6.61.282 2.234.282.8.564-2.161.282.201.282.986.282.048.282-.089.281 1.975.564 6.002.564 2.642 1.128 9.356 1.41 21.605.282 1.257.282-2.81.282-7.562.282-13.48.564-45.784 1.128-110.263.845-39.6.282-8.096.282-2.518.282 1.005.282 2.787.282 5.655.564 20.645.564 29.438 1.41 96.202.282 9.696 1.128 22.253.282-.122.282.335.564 5.934.282 1.35.845.854.282.06.282.532.846 3.603.282 1.714.282 3.267.846 12.188.282 3.11.846 12.205.282.499.282-2.476.282-7.669.282-15.751.564-52.473.845-85.785.564-36.153.564-22.612.282-7.054.282-3.038.282-.036.282 1.74.282 4.124.282 8.242.564 29.638 1.128 74.517.564 35.197.564 21.078.564 10.531.564 7.284.282 2.142.281 1.108.282.248.846-2.509.282 1.11.282.611.282-.317.282.595.564 7.373.564 5.69.564 5.502 1.692 21.35.282-3.568.282-10.18.564-39.043 1.41-133.237.563-26.876.564-16.507.282-3.165.282-.268.282 2.093.282 4.479.282 7.305.564 25.589.846 55.766.846 56.325.282 10.67.564 10.38.563 6.138.282 1.84.846 2.804.564.172.564 2.473.282.26.282.01.282 1.058 1.128 7.225 1.128 13.88.846 11.24.282 2.017.282-.553.281-4.154.282-9.678.564-41.215 1.128-106.317.564-30.54.564-18.294.282-6.403.282-1.898.282 2.528.282 6.062.564 20.667.564 31.573 1.41 89.84.281 11.51.564 12.114.564 8.666.564 2.596.282 2.014.282.887.564-1.642.282.085.282-.82.282-1.937.282-.426.846 4.718.282 2.413.846 13.41.564 6.12.282 4.304.282 2.4.281-.569.282-2.77.282-4.832.282-9.607.564-37.375 1.41-121.386.564-24.978.282-7.221.282-2.58.282.75.282 3.352.282 6.092.564 21.646.846 44.294.845 50.476.564 26.005.564 14.68.564 10.408 1.128 10.502.564 1.598.564 3.608.282.628.282 1.281.564 4.832.282 1.723.282 2.48 1.691 21.166.282.802.282-3.19.282-9.597.564-42.895 1.128-110.97.564-30.433.564-20.305.282-6.933.282-3.364.282-.558.282 1.838.282 3.833.564 16.42.846 38.51 1.973 102.787.564 15.383.282 4.704.282 1.928.282.359.282-.313.282 1.007.846 4.25.564 4.968.846 10.18.564 5.532.282 3.81.845 15.349.282 2.288.282-.74.282-6.099.282-11.169.564-41.657 1.128-109.558.846-46.676.564-15.96.564-2.497.282 1.387.282 2.426 1.128 30.216.281 22.018h0" clip-path="url(#pc45dc30185)" style="fill:none;stroke:#1f77b4;stroke-width:1.5;stroke-linecap:square"/><path id="patch_3" d="M71.308 266.112V0" style="fill:none;stroke:gray;stroke-width:.8;stroke-linejoin:miter;stroke-linecap:square"/><path id="patch_4" d="M685.107 266.112V0" style="fill:none;stroke:#000;stroke-width:.8;stroke-linejoin:miter;stroke-linecap:square"/><path id="patch_5" d="M71.308 266.112h613.8" style="fill:none;stroke:gray;stroke-width:.8;stroke-linejoin:miter;stroke-linecap:square"/><path id="patch_6" d="M71.308 0h613.8" style="fill:none;stroke:#000;stroke-width:.8;stroke-linejoin:miter;stroke-linecap:square"/></g></g><defs><clipPath id="pc45dc30185"><path d="M71.308 0h613.8v266.112h-613.8z"/></clipPath></defs></svg>