<?xml version="1.0" encoding="utf-8" standalone="no"?>
<!DOCTYPE svg PUBLIC "-//W3C//DTD SVG 1.1//EN"
  "http://www.w3.org/Graphics/SVG/1.1/DTD/svg11.dtd">
<svg xmlns:xlink="http://www.w3.org/1999/xlink" width="660.992188pt" height="282.790125pt" viewBox="0 0 660.992188 282.790125" xmlns="http://www.w3.org/2000/svg" version="1.1">
 <metadata>
  <rdf:RDF xmlns:dc="http://purl.org/dc/elements/1.1/" xmlns:cc="http://creativecommons.org/ns#" xmlns:rdf="http://www.w3.org/1999/02/22-rdf-syntax-ns#">
   <cc:Work>
    <dc:type rdf:resource="http://purl.org/dc/dcmitype/StillImage"/>
    <dc:date>2023-03-06T19:30:30.154286</dc:date>
    <dc:format>image/svg+xml</dc:format>
    <dc:creator>
     <cc:Agent>
      <dc:title>Matplotlib v3.6.3, https://matplotlib.org/</dc:title>
     </cc:Agent>
    </dc:creator>
   </cc:Work>
  </rdf:RDF>
 </metadata>
 <defs>
  <style type="text/css">*{stroke-linejoin: round; stroke-linecap: butt}</style>
 </defs>
 <g id="figure_1">
  <g id="patch_1">
   <path d="M -0 282.790125 
L 660.992188 282.790125 
L 660.992188 0 
L -0 0 
L -0 282.790125 
z
" style="fill: none"/>
  </g>
  <g id="axes_1">
   <g id="patch_2">
    <path d="M 47.192188 266.112 
L 660.992188 266.112 
L 660.992188 0 
L 47.192188 0 
L 47.192188 266.112 
z
" style="fill: none"/>
   </g>
   <g id="matplotlib.axis_1">
    <g id="xtick_1">
     <g id="line2d_1">
      <defs>
       <path id="m75e3b963ca" d="M 0 0 
L 0 3.5 
" style="stroke: #000000; stroke-width: 0.8"/>
      </defs>
      <g>
       <use xlink:href="#m75e3b963ca" x="75.092188" y="266.112" style="stroke: #000000; stroke-width: 0.8"/>
      </g>
     </g>
     <g id="text_1">
      <!-- 0 -->
      <g transform="translate(71.910938 280.710438) scale(0.1 -0.1)">
       <defs>
        <path id="DejaVuSans-30" d="M 2034 4250 
Q 1547 4250 1301 3770 
Q 1056 3291 1056 2328 
Q 1056 1369 1301 889 
Q 1547 409 2034 409 
Q 2525 409 2770 889 
Q 3016 1369 3016 2328 
Q 3016 3291 2770 3770 
Q 2525 4250 2034 4250 
z
M 2034 4750 
Q 2819 4750 3233 4129 
Q 3647 3509 3647 2328 
Q 3647 1150 3233 529 
Q 2819 -91 2034 -91 
Q 1250 -91 836 529 
Q 422 1150 422 2328 
Q 422 3509 836 4129 
Q 1250 4750 2034 4750 
z
" transform="scale(0.015625)"/>
       </defs>
       <use xlink:href="#DejaVuSans-30"/>
      </g>
     </g>
    </g>
    <g id="xtick_2">
     <g id="line2d_2">
      <g>
       <use xlink:href="#m75e3b963ca" x="144.842188" y="266.112" style="stroke: #000000; stroke-width: 0.8"/>
      </g>
     </g>
     <g id="text_2">
      <!-- 500 -->
      <g transform="translate(135.298438 280.710438) scale(0.1 -0.1)">
       <defs>
        <path id="DejaVuSans-35" d="M 691 4666 
L 3169 4666 
L 3169 4134 
L 1269 4134 
L 1269 2991 
Q 1406 3038 1543 3061 
Q 1681 3084 1819 3084 
Q 2600 3084 3056 2656 
Q 3513 2228 3513 1497 
Q 3513 744 3044 326 
Q 2575 -91 1722 -91 
Q 1428 -91 1123 -41 
Q 819 9 494 109 
L 494 744 
Q 775 591 1075 516 
Q 1375 441 1709 441 
Q 2250 441 2565 725 
Q 2881 1009 2881 1497 
Q 2881 1984 2565 2268 
Q 2250 2553 1709 2553 
Q 1456 2553 1204 2497 
Q 953 2441 691 2322 
L 691 4666 
z
" transform="scale(0.015625)"/>
       </defs>
       <use xlink:href="#DejaVuSans-35"/>
       <use xlink:href="#DejaVuSans-30" x="63.623047"/>
       <use xlink:href="#DejaVuSans-30" x="127.246094"/>
      </g>
     </g>
    </g>
    <g id="xtick_3">
     <g id="line2d_3">
      <g>
       <use xlink:href="#m75e3b963ca" x="214.592188" y="266.112" style="stroke: #000000; stroke-width: 0.8"/>
      </g>
     </g>
     <g id="text_3">
      <!-- 1000 -->
      <g transform="translate(201.867188 280.710438) scale(0.1 -0.1)">
       <defs>
        <path id="DejaVuSans-31" d="M 794 531 
L 1825 531 
L 1825 4091 
L 703 3866 
L 703 4441 
L 1819 4666 
L 2450 4666 
L 2450 531 
L 3481 531 
L 3481 0 
L 794 0 
L 794 531 
z
" transform="scale(0.015625)"/>
       </defs>
       <use xlink:href="#DejaVuSans-31"/>
       <use xlink:href="#DejaVuSans-30" x="63.623047"/>
       <use xlink:href="#DejaVuSans-30" x="127.246094"/>
       <use xlink:href="#DejaVuSans-30" x="190.869141"/>
      </g>
     </g>
    </g>
    <g id="xtick_4">
     <g id="line2d_4">
      <g>
       <use xlink:href="#m75e3b963ca" x="284.342188" y="266.112" style="stroke: #000000; stroke-width: 0.8"/>
      </g>
     </g>
     <g id="text_4">
      <!-- 1500 -->
      <g transform="translate(271.617188 280.710438) scale(0.1 -0.1)">
       <use xlink:href="#DejaVuSans-31"/>
       <use xlink:href="#DejaVuSans-35" x="63.623047"/>
       <use xlink:href="#DejaVuSans-30" x="127.246094"/>
       <use xlink:href="#DejaVuSans-30" x="190.869141"/>
      </g>
     </g>
    </g>
    <g id="xtick_5">
     <g id="line2d_5">
      <g>
       <use xlink:href="#m75e3b963ca" x="354.092188" y="266.112" style="stroke: #000000; stroke-width: 0.8"/>
      </g>
     </g>
     <g id="text_5">
      <!-- 2000 -->
      <g transform="translate(341.367188 280.710438) scale(0.1 -0.1)">
       <defs>
        <path id="DejaVuSans-32" d="M 1228 531 
L 3431 531 
L 3431 0 
L 469 0 
L 469 531 
Q 828 903 1448 1529 
Q 2069 2156 2228 2338 
Q 2531 2678 2651 2914 
Q 2772 3150 2772 3378 
Q 2772 3750 2511 3984 
Q 2250 4219 1831 4219 
Q 1534 4219 1204 4116 
Q 875 4013 500 3803 
L 500 4441 
Q 881 4594 1212 4672 
Q 1544 4750 1819 4750 
Q 2544 4750 2975 4387 
Q 3406 4025 3406 3419 
Q 3406 3131 3298 2873 
Q 3191 2616 2906 2266 
Q 2828 2175 2409 1742 
Q 1991 1309 1228 531 
z
" transform="scale(0.015625)"/>
       </defs>
       <use xlink:href="#DejaVuSans-32"/>
       <use xlink:href="#DejaVuSans-30" x="63.623047"/>
       <use xlink:href="#DejaVuSans-30" x="127.246094"/>
       <use xlink:href="#DejaVuSans-30" x="190.869141"/>
      </g>
     </g>
    </g>
    <g id="xtick_6">
     <g id="line2d_6">
      <g>
       <use xlink:href="#m75e3b963ca" x="423.842188" y="266.112" style="stroke: #000000; stroke-width: 0.8"/>
      </g>
     </g>
     <g id="text_6">
      <!-- 2500 -->
      <g transform="translate(411.117188 280.710438) scale(0.1 -0.1)">
       <use xlink:href="#DejaVuSans-32"/>
       <use xlink:href="#DejaVuSans-35" x="63.623047"/>
       <use xlink:href="#DejaVuSans-30" x="127.246094"/>
       <use xlink:href="#DejaVuSans-30" x="190.869141"/>
      </g>
     </g>
    </g>
    <g id="xtick_7">
     <g id="line2d_7">
      <g>
       <use xlink:href="#m75e3b963ca" x="493.592188" y="266.112" style="stroke: #000000; stroke-width: 0.8"/>
      </g>
     </g>
     <g id="text_7">
      <!-- 3000 -->
      <g transform="translate(480.867188 280.710438) scale(0.1 -0.1)">
       <defs>
        <path id="DejaVuSans-33" d="M 2597 2516 
Q 3050 2419 3304 2112 
Q 3559 1806 3559 1356 
Q 3559 666 3084 287 
Q 2609 -91 1734 -91 
Q 1441 -91 1130 -33 
Q 819 25 488 141 
L 488 750 
Q 750 597 1062 519 
Q 1375 441 1716 441 
Q 2309 441 2620 675 
Q 2931 909 2931 1356 
Q 2931 1769 2642 2001 
Q 2353 2234 1838 2234 
L 1294 2234 
L 1294 2753 
L 1863 2753 
Q 2328 2753 2575 2939 
Q 2822 3125 2822 3475 
Q 2822 3834 2567 4026 
Q 2313 4219 1838 4219 
Q 1578 4219 1281 4162 
Q 984 4106 628 3988 
L 628 4550 
Q 988 4650 1302 4700 
Q 1616 4750 1894 4750 
Q 2613 4750 3031 4423 
Q 3450 4097 3450 3541 
Q 3450 3153 3228 2886 
Q 3006 2619 2597 2516 
z
" transform="scale(0.015625)"/>
       </defs>
       <use xlink:href="#DejaVuSans-33"/>
       <use xlink:href="#DejaVuSans-30" x="63.623047"/>
       <use xlink:href="#DejaVuSans-30" x="127.246094"/>
       <use xlink:href="#DejaVuSans-30" x="190.869141"/>
      </g>
     </g>
    </g>
    <g id="xtick_8">
     <g id="line2d_8">
      <g>
       <use xlink:href="#m75e3b963ca" x="563.342188" y="266.112" style="stroke: #000000; stroke-width: 0.8"/>
      </g>
     </g>
     <g id="text_8">
      <!-- 3500 -->
      <g transform="translate(550.617188 280.710438) scale(0.1 -0.1)">
       <use xlink:href="#DejaVuSans-33"/>
       <use xlink:href="#DejaVuSans-35" x="63.623047"/>
       <use xlink:href="#DejaVuSans-30" x="127.246094"/>
       <use xlink:href="#DejaVuSans-30" x="190.869141"/>
      </g>
     </g>
    </g>
    <g id="xtick_9">
     <g id="line2d_9">
      <g>
       <use xlink:href="#m75e3b963ca" x="633.092188" y="266.112" style="stroke: #000000; stroke-width: 0.8"/>
      </g>
     </g>
     <g id="text_9">
      <!-- 4000 -->
      <g transform="translate(620.367188 280.710438) scale(0.1 -0.1)">
       <defs>
        <path id="DejaVuSans-34" d="M 2419 4116 
L 825 1625 
L 2419 1625 
L 2419 4116 
z
M 2253 4666 
L 3047 4666 
L 3047 1625 
L 3713 1625 
L 3713 1100 
L 3047 1100 
L 3047 0 
L 2419 0 
L 2419 1100 
L 313 1100 
L 313 1709 
L 2253 4666 
z
" transform="scale(0.015625)"/>
       </defs>
       <use xlink:href="#DejaVuSans-34"/>
       <use xlink:href="#DejaVuSans-30" x="63.623047"/>
       <use xlink:href="#DejaVuSans-30" x="127.246094"/>
       <use xlink:href="#DejaVuSans-30" x="190.869141"/>
      </g>
     </g>
    </g>
   </g>
   <g id="matplotlib.axis_2">
    <g id="ytick_1">
     <g id="line2d_10">
      <defs>
       <path id="mb8ee4936ec" d="M 0 0 
L -3.5 0 
" style="stroke: #000000; stroke-width: 0.8"/>
      </defs>
      <g>
       <use xlink:href="#mb8ee4936ec" x="47.192188" y="237.700113" style="stroke: #000000; stroke-width: 0.8"/>
      </g>
     </g>
     <g id="text_10">
      <!-- −15000 -->
      <g transform="translate(0 241.499332) scale(0.1 -0.1)">
       <defs>
        <path id="DejaVuSans-2212" d="M 678 2272 
L 4684 2272 
L 4684 1741 
L 678 1741 
L 678 2272 
z
" transform="scale(0.015625)"/>
       </defs>
       <use xlink:href="#DejaVuSans-2212"/>
       <use xlink:href="#DejaVuSans-31" x="83.789062"/>
       <use xlink:href="#DejaVuSans-35" x="147.412109"/>
       <use xlink:href="#DejaVuSans-30" x="211.035156"/>
       <use xlink:href="#DejaVuSans-30" x="274.658203"/>
       <use xlink:href="#DejaVuSans-30" x="338.28125"/>
      </g>
     </g>
    </g>
    <g id="ytick_2">
     <g id="line2d_11">
      <g>
       <use xlink:href="#mb8ee4936ec" x="47.192188" y="206.949216" style="stroke: #000000; stroke-width: 0.8"/>
      </g>
     </g>
     <g id="text_11">
      <!-- −10000 -->
      <g transform="translate(0 210.748434) scale(0.1 -0.1)">
       <use xlink:href="#DejaVuSans-2212"/>
       <use xlink:href="#DejaVuSans-31" x="83.789062"/>
       <use xlink:href="#DejaVuSans-30" x="147.412109"/>
       <use xlink:href="#DejaVuSans-30" x="211.035156"/>
       <use xlink:href="#DejaVuSans-30" x="274.658203"/>
       <use xlink:href="#DejaVuSans-30" x="338.28125"/>
      </g>
     </g>
    </g>
    <g id="ytick_3">
     <g id="line2d_12">
      <g>
       <use xlink:href="#mb8ee4936ec" x="47.192188" y="176.198318" style="stroke: #000000; stroke-width: 0.8"/>
      </g>
     </g>
     <g id="text_12">
      <!-- −5000 -->
      <g transform="translate(6.3625 179.997537) scale(0.1 -0.1)">
       <use xlink:href="#DejaVuSans-2212"/>
       <use xlink:href="#DejaVuSans-35" x="83.789062"/>
       <use xlink:href="#DejaVuSans-30" x="147.412109"/>
       <use xlink:href="#DejaVuSans-30" x="211.035156"/>
       <use xlink:href="#DejaVuSans-30" x="274.658203"/>
      </g>
     </g>
    </g>
    <g id="ytick_4">
     <g id="line2d_13">
      <g>
       <use xlink:href="#mb8ee4936ec" x="47.192188" y="145.447421" style="stroke: #000000; stroke-width: 0.8"/>
      </g>
     </g>
     <g id="text_13">
      <!-- 0 -->
      <g transform="translate(33.829688 149.24664) scale(0.1 -0.1)">
       <use xlink:href="#DejaVuSans-30"/>
      </g>
     </g>
    </g>
    <g id="ytick_5">
     <g id="line2d_14">
      <g>
       <use xlink:href="#mb8ee4936ec" x="47.192188" y="114.696524" style="stroke: #000000; stroke-width: 0.8"/>
      </g>
     </g>
     <g id="text_14">
      <!-- 5000 -->
      <g transform="translate(14.742188 118.495743) scale(0.1 -0.1)">
       <use xlink:href="#DejaVuSans-35"/>
       <use xlink:href="#DejaVuSans-30" x="63.623047"/>
       <use xlink:href="#DejaVuSans-30" x="127.246094"/>
       <use xlink:href="#DejaVuSans-30" x="190.869141"/>
      </g>
     </g>
    </g>
    <g id="ytick_6">
     <g id="line2d_15">
      <g>
       <use xlink:href="#mb8ee4936ec" x="47.192188" y="83.945627" style="stroke: #000000; stroke-width: 0.8"/>
      </g>
     </g>
     <g id="text_15">
      <!-- 10000 -->
      <g transform="translate(8.379688 87.744846) scale(0.1 -0.1)">
       <use xlink:href="#DejaVuSans-31"/>
       <use xlink:href="#DejaVuSans-30" x="63.623047"/>
       <use xlink:href="#DejaVuSans-30" x="127.246094"/>
       <use xlink:href="#DejaVuSans-30" x="190.869141"/>
       <use xlink:href="#DejaVuSans-30" x="254.492188"/>
      </g>
     </g>
    </g>
    <g id="ytick_7">
     <g id="line2d_16">
      <g>
       <use xlink:href="#mb8ee4936ec" x="47.192188" y="53.19473" style="stroke: #000000; stroke-width: 0.8"/>
      </g>
     </g>
     <g id="text_16">
      <!-- 15000 -->
      <g transform="translate(8.379688 56.993949) scale(0.1 -0.1)">
       <use xlink:href="#DejaVuSans-31"/>
       <use xlink:href="#DejaVuSans-35" x="63.623047"/>
       <use xlink:href="#DejaVuSans-30" x="127.246094"/>
       <use xlink:href="#DejaVuSans-30" x="190.869141"/>
       <use xlink:href="#DejaVuSans-30" x="254.492188"/>
      </g>
     </g>
    </g>
    <g id="ytick_8">
     <g id="line2d_17">
      <g>
       <use xlink:href="#mb8ee4936ec" x="47.192188" y="22.443833" style="stroke: #000000; stroke-width: 0.8"/>
      </g>
     </g>
     <g id="text_17">
      <!-- 20000 -->
      <g transform="translate(8.379688 26.243052) scale(0.1 -0.1)">
       <use xlink:href="#DejaVuSans-32"/>
       <use xlink:href="#DejaVuSans-30" x="63.623047"/>
       <use xlink:href="#DejaVuSans-30" x="127.246094"/>
       <use xlink:href="#DejaVuSans-30" x="190.869141"/>
       <use xlink:href="#DejaVuSans-30" x="254.492188"/>
      </g>
     </g>
    </g>
   </g>
   <g id="line2d_18">
    <path d="M 75.092188 145.584155 
L 75.374148 145.317564 
L 75.656109 145.571011 
L 75.938069 145.329572 
L 76.22003 145.559991 
L 76.50199 145.339726 
L 76.783951 145.550599 
L 77.065912 145.348445 
L 77.347872 145.542477 
L 77.629833 145.356035 
L 77.911793 145.535362 
L 78.193754 145.362725 
L 78.475715 145.529054 
L 78.757675 145.368691 
L 79.039636 145.523397 
L 79.321596 145.37407 
L 79.603557 145.518267 
L 79.885517 145.378975 
L 80.167478 145.513564 
L 80.449439 145.383498 
L 80.731399 145.5092 
L 81.01336 145.387722 
L 81.29532 145.505099 
L 81.577281 145.391717 
L 81.859242 145.501191 
L 82.141202 145.395555 
L 82.423163 145.497405 
L 82.705123 145.399307 
L 82.987084 145.493667 
L 83.269044 145.403053 
L 83.551005 145.48989 
L 83.832966 145.406889 
L 84.114926 145.485963 
L 84.396887 145.410944 
L 84.678847 145.481735 
L 84.960808 145.415402 
L 85.242769 145.476977 
L 85.80669 145.471317 
L 86.652572 145.435358 
L 87.780414 145.470465 
L 88.062374 145.404703 
L 88.344335 145.523042 
L 88.626296 145.307098 
L 88.908256 145.757472 
L 89.190217 144.235591 
L 89.472177 133.934249 
L 90.036099 147.895601 
L 90.318059 152.965564 
L 90.88198 171.20622 
L 91.163941 173.711595 
L 91.445901 173.462236 
L 91.727862 174.862955 
L 92.009823 175.256208 
L 92.855704 161.505613 
L 93.137665 159.807741 
L 93.419626 159.003179 
L 93.701586 159.554321 
L 93.983547 158.865548 
L 94.265507 156.5437 
L 94.547468 155.38031 
L 94.829429 156.900248 
L 95.111389 157.490934 
L 95.67531 154.85405 
L 95.957271 155.866652 
L 96.239231 157.422027 
L 96.521192 158.324767 
L 96.803153 157.775499 
L 97.085113 156.844713 
L 97.367074 157.04815 
L 97.930995 160.605293 
L 98.494916 161.369582 
L 99.058837 164.074578 
L 99.622758 165.690154 
L 100.18668 168.933599 
L 100.46864 169.525865 
L 101.032561 167.810926 
L 101.314522 165.711539 
L 101.596483 158.866011 
L 102.160404 124.648841 
L 102.442364 108.054039 
L 102.724325 98.584919 
L 103.006286 95.676866 
L 103.288246 97.347826 
L 104.134128 107.511939 
L 104.698049 118.094435 
L 104.98001 119.095183 
L 105.26197 118.535515 
L 105.543931 120.392518 
L 106.107852 130.629414 
L 106.953734 152.859563 
L 107.235694 154.090183 
L 107.517655 154.237697 
L 108.081576 159.917234 
L 108.363537 160.604638 
L 108.645497 159.433976 
L 109.209418 158.17162 
L 109.77334 154.942862 
L 110.0553 155.145306 
L 110.337261 155.069707 
L 110.619221 153.999114 
L 110.901182 153.676336 
L 111.183143 154.605606 
L 111.465103 154.398296 
L 111.747064 153.45141 
L 112.029024 154.053015 
L 112.310985 155.981312 
L 112.592945 156.686802 
L 112.874906 156.596521 
L 113.438827 157.39497 
L 113.720788 157.200908 
L 114.002748 157.618381 
L 114.284709 158.360052 
L 114.56667 158.235029 
L 114.84863 157.617814 
L 115.130591 158.230063 
L 115.694512 160.82091 
L 116.258433 162.742354 
L 116.540394 164.347996 
L 117.104315 170.492301 
L 117.950197 184.284402 
L 118.232157 180.82104 
L 118.796078 147.677781 
L 119.923921 84.816367 
L 120.205881 80.521058 
L 120.487842 82.25406 
L 121.051763 88.195577 
L 122.743527 125.021728 
L 123.871369 149.931736 
L 124.43529 156.580534 
L 124.717251 158.406462 
L 124.999211 159.32562 
L 125.281172 159.770653 
L 125.563132 159.931905 
L 125.845093 159.432028 
L 126.409014 156.412389 
L 127.818817 152.681886 
L 128.100778 152.108601 
L 128.382738 152.786245 
L 129.22862 163.735505 
L 129.510581 163.731565 
L 130.074502 166.63415 
L 130.356462 163.078185 
L 130.638423 157.395998 
L 130.920384 155.780983 
L 131.484305 159.143979 
L 131.766265 159.324359 
L 132.612147 163.635754 
L 132.894108 162.637727 
L 133.176068 162.215535 
L 133.458029 162.931231 
L 134.303911 167.804247 
L 134.585871 168.337424 
L 134.867832 169.73188 
L 135.149792 171.751714 
L 135.431753 170.524689 
L 135.713714 161.854861 
L 137.123516 90.579351 
L 137.405477 83.896739 
L 137.687438 82.732623 
L 137.969398 84.111663 
L 138.251359 86.083427 
L 138.533319 90.062568 
L 139.661162 120.354417 
L 140.225083 127.46135 
L 141.634886 158.038151 
L 141.916846 160.330564 
L 142.198807 160.755606 
L 142.480768 159.312157 
L 143.044689 155.170545 
L 143.326649 154.791264 
L 144.172531 156.977546 
L 144.454492 156.613751 
L 144.736452 153.844102 
L 145.300373 143.640766 
L 145.582334 142.50998 
L 145.864295 142.782974 
L 146.146255 141.407404 
L 146.428216 141.101115 
L 146.710176 146.133399 
L 146.992137 153.339038 
L 147.274098 156.465597 
L 147.556058 155.949155 
L 147.838019 157.183215 
L 148.119979 160.61694 
L 148.40194 162.53976 
L 148.6839 162.171636 
L 148.965861 161.99274 
L 149.529782 162.930232 
L 149.811743 164.009072 
L 150.375664 169.418803 
L 150.657625 170.594389 
L 151.221546 170.333116 
L 151.785467 171.164944 
L 152.067428 170.583515 
L 152.349388 168.026674 
L 152.631349 161.86111 
L 152.913309 150.39401 
L 154.041152 87.004091 
L 154.323112 80.139925 
L 154.605073 76.898017 
L 154.887033 76.11338 
L 155.168994 78.193988 
L 155.450955 84.801411 
L 156.296836 113.210925 
L 157.424679 129.903122 
L 158.27056 146.616562 
L 158.834482 154.173193 
L 159.116442 155.273195 
L 159.398403 155.537784 
L 159.962324 160.406447 
L 160.244285 159.709706 
L 160.526245 158.601768 
L 160.808206 159.445607 
L 161.090166 157.304819 
L 161.654087 144.71029 
L 162.218009 148.182477 
L 162.499969 146.041325 
L 162.78193 145.633139 
L 163.345851 156.265947 
L 163.909772 157.341443 
L 164.191733 161.241642 
L 164.473693 162.836945 
L 165.037614 151.516582 
L 165.319575 150.955883 
L 165.601536 153.433911 
L 165.883496 153.223709 
L 166.165457 152.321508 
L 166.447417 156.611064 
L 167.011339 169.735818 
L 168.421142 178.940014 
L 168.703102 184.638301 
L 168.985063 187.47662 
L 169.267023 180.511612 
L 169.830944 148.211526 
L 170.676826 88.241252 
L 170.958787 78.668194 
L 171.240747 75.457044 
L 171.522708 75.267891 
L 171.804669 77.544192 
L 172.36859 87.592465 
L 172.932511 104.361913 
L 173.496432 119.501703 
L 174.060353 133.748468 
L 174.624274 147.838663 
L 175.188196 156.825874 
L 175.470156 159.069714 
L 175.752117 155.38108 
L 176.034077 148.783656 
L 176.316038 145.86721 
L 176.597999 147.005982 
L 176.879959 146.396073 
L 177.16192 143.71399 
L 177.44388 145.959639 
L 178.007801 159.696387 
L 178.571723 153.106947 
L 179.135644 156.406058 
L 179.699565 144.7606 
L 179.981526 144.264074 
L 180.263486 147.40142 
L 180.545447 148.022415 
L 180.827407 147.383302 
L 181.109368 151.061977 
L 181.673289 163.878074 
L 182.23721 166.750384 
L 182.519171 169.399024 
L 182.801131 169.730826 
L 183.365053 163.372389 
L 183.647013 166.508002 
L 183.928974 172.871445 
L 184.210934 176.544374 
L 184.492895 176.596002 
L 184.774856 176.131293 
L 185.056816 176.931167 
L 185.620737 179.44404 
L 185.902698 177.851597 
L 186.184658 169.842075 
L 186.74858 134.420573 
L 187.594461 80.535935 
L 187.876422 70.203834 
L 188.158383 68.351097 
L 189.004264 79.508107 
L 189.568185 89.982057 
L 189.850146 97.213336 
L 190.696028 130.014984 
L 191.259949 143.199679 
L 191.54191 151.529293 
L 191.82387 155.38729 
L 192.387791 152.56305 
L 192.669752 154.26381 
L 192.951713 155.086843 
L 193.515634 149.94391 
L 193.797594 153.191189 
L 194.079555 159.86855 
L 194.361515 163.210638 
L 194.643476 162.274712 
L 194.925437 162.524929 
L 195.207397 165.505693 
L 195.489358 165.312703 
L 196.053279 152.1065 
L 196.33524 150.250391 
L 197.181121 155.507463 
L 197.745042 162.243657 
L 198.590924 166.797274 
L 198.872885 168.592361 
L 199.154845 168.846406 
L 199.436806 169.491437 
L 199.718767 171.739248 
L 200.000727 172.500951 
L 200.564648 167.541441 
L 200.846609 169.409234 
L 201.12857 172.782146 
L 201.692491 174.822818 
L 201.974451 179.913759 
L 202.538372 192.724181 
L 202.820333 192.524865 
L 203.102294 188.525394 
L 203.384254 180.404364 
L 203.666215 165.006017 
L 204.512097 102.115753 
L 205.076018 85.397236 
L 205.357978 79.498635 
L 205.639939 76.163093 
L 205.921899 75.957217 
L 206.20386 77.261989 
L 206.485821 79.345965 
L 206.767781 84.003728 
L 207.613663 108.25371 
L 207.895624 107.347421 
L 208.177584 110.034653 
L 209.023466 145.214448 
L 209.869348 160.606926 
L 210.151308 157.084468 
L 210.433269 151.51662 
L 210.715229 152.385206 
L 210.99719 157.88186 
L 211.279151 160.210337 
L 212.688954 149.290644 
L 212.970914 149.076881 
L 213.252875 150.125725 
L 213.534835 149.937655 
L 213.816796 149.127495 
L 214.098756 150.386628 
L 214.380717 153.258592 
L 214.662678 154.543685 
L 214.944638 154.147508 
L 215.226599 154.776086 
L 216.354441 163.813144 
L 216.636402 164.57159 
L 216.918362 164.537722 
L 217.200323 165.533828 
L 218.328165 174.865072 
L 218.610126 175.513981 
L 218.892086 176.52023 
L 219.737968 182.906206 
L 220.019929 184.070768 
L 220.301889 182.137847 
L 221.429732 155.348069 
L 222.275613 101.651203 
L 222.557574 92.917312 
L 223.121495 64.567269 
L 223.403456 58.076854 
L 223.685416 60.890118 
L 224.531298 77.087529 
L 225.095219 92.671803 
L 225.659141 119.211318 
L 226.223062 145.42985 
L 226.786983 155.160864 
L 227.068943 157.018168 
L 227.350904 157.127114 
L 227.632865 157.594302 
L 227.914825 159.252585 
L 228.196786 159.376774 
L 228.478746 157.305707 
L 228.760707 156.708225 
L 229.042668 158.755417 
L 229.324628 158.828533 
L 229.606589 155.474887 
L 229.888549 154.437331 
L 230.45247 162.709942 
L 230.734431 163.016461 
L 231.016392 163.132588 
L 231.580313 167.699461 
L 232.144234 168.321702 
L 232.426195 168.149168 
L 232.708155 167.027228 
L 232.990116 167.63035 
L 233.272076 169.970074 
L 233.554037 168.860074 
L 234.117958 159.65622 
L 234.399919 162.187459 
L 234.681879 165.808881 
L 234.96384 166.66314 
L 235.2458 168.860469 
L 236.091682 190.57191 
L 236.373643 191.336425 
L 236.655603 193.256505 
L 236.937564 197.313143 
L 237.219525 198.091541 
L 237.501485 192.280283 
L 238.065406 169.908465 
L 238.629327 128.516498 
L 239.193249 92.915927 
L 239.75717 78.054466 
L 240.321091 69.173446 
L 240.603052 68.521405 
L 240.885012 73.563015 
L 241.448933 90.207441 
L 241.730894 96.368603 
L 242.294815 119.48108 
L 242.858736 138.353391 
L 243.704618 160.667175 
L 244.268539 166.18029 
L 244.5505 166.799969 
L 245.114421 164.039576 
L 245.396382 163.469924 
L 245.960303 160.656692 
L 246.524224 163.694372 
L 246.806184 161.316931 
L 247.088145 156.354688 
L 247.370106 154.093912 
L 247.652066 154.622544 
L 247.934027 154.015931 
L 248.215987 152.028027 
L 249.061869 148.50886 
L 249.34383 148.786745 
L 249.907751 154.560965 
L 250.189712 155.744927 
L 250.471672 158.373167 
L 251.599514 174.804075 
L 251.881475 175.079137 
L 252.163436 172.355288 
L 252.445396 172.572109 
L 253.009317 179.356193 
L 253.291278 180.787002 
L 253.573239 186.384423 
L 253.855199 194.513481 
L 254.13716 198.117741 
L 254.41912 195.707003 
L 254.701081 188.65125 
L 254.983041 174.441439 
L 256.110884 95.075668 
L 256.674805 71.55176 
L 256.956766 65.307883 
L 257.238726 63.958836 
L 257.802647 70.239553 
L 258.084608 70.594437 
L 258.366569 72.982954 
L 259.494411 105.032669 
L 260.340293 151.62184 
L 260.904214 164.972384 
L 261.186174 169.006713 
L 261.468135 169.643201 
L 261.750096 167.325107 
L 262.314017 161.228234 
L 262.877938 158.733422 
L 263.441859 156.958458 
L 264.00578 152.444813 
L 264.287741 152.182494 
L 265.133623 161.928125 
L 265.697544 158.93531 
L 265.979504 159.731223 
L 266.825386 172.168485 
L 267.107347 172.506652 
L 267.389307 173.37123 
L 267.671268 175.348809 
L 267.953228 174.823479 
L 268.51715 168.463166 
L 268.79911 170.23337 
L 269.363031 177.061324 
L 270.208913 183.32074 
L 271.054795 194.487575 
L 271.336755 196.293096 
L 271.618716 197.011716 
L 271.900677 193.547235 
L 272.182637 182.696851 
L 272.746558 142.232464 
L 273.31048 94.249675 
L 273.59244 80.7426 
L 274.720282 55.068911 
L 275.284204 50.400998 
L 275.566164 52.771438 
L 276.694007 86.841296 
L 278.10381 159.284726 
L 278.38577 164.852376 
L 278.667731 166.038291 
L 278.949691 167.955119 
L 279.231652 169.00325 
L 279.795573 162.655728 
L 280.077534 162.415219 
L 280.359494 163.09727 
L 280.923415 161.650283 
L 281.205376 161.869114 
L 281.487337 159.966332 
L 281.769297 156.535481 
L 282.051258 156.415797 
L 282.615179 164.590146 
L 282.897139 165.320525 
L 283.1791 164.367667 
L 283.461061 164.415668 
L 284.024982 168.179497 
L 284.306942 168.87588 
L 284.588903 169.186454 
L 285.716745 175.652024 
L 286.562627 186.719056 
L 286.844588 187.882928 
L 287.126548 189.607509 
L 288.254391 200.208379 
L 288.536351 199.444239 
L 288.818312 197.945195 
L 289.100272 190.552199 
L 289.664194 147.068913 
L 290.228115 110.395485 
L 291.073996 65.090183 
L 291.637918 47.347798 
L 291.919878 41.892331 
L 292.201839 41.484001 
L 292.76576 51.271583 
L 293.047721 57.315254 
L 293.329681 66.272877 
L 293.893602 100.741638 
L 295.021445 172.175333 
L 295.303405 175.778115 
L 295.867326 160.278855 
L 296.149287 161.403399 
L 296.431248 163.248386 
L 296.995169 158.028301 
L 297.277129 160.141949 
L 297.55909 161.161979 
L 297.841051 158.947605 
L 298.123011 159.57945 
L 298.404972 164.588464 
L 298.686932 167.063261 
L 298.968893 164.820369 
L 299.250853 163.9077 
L 299.532814 166.478579 
L 299.814775 167.739881 
L 300.096735 166.378066 
L 300.378696 166.274212 
L 300.942617 169.586617 
L 301.224578 171.036839 
L 301.788499 177.618527 
L 302.070459 178.301665 
L 302.35242 177.999966 
L 302.634381 178.701392 
L 302.916341 179.916466 
L 303.198302 181.942172 
L 303.762223 189.334114 
L 304.044183 190.160032 
L 304.326144 192.116521 
L 305.172026 213.793658 
L 305.453986 214.524987 
L 305.735947 213.163385 
L 306.017908 203.401428 
L 307.709671 68.205637 
L 307.991632 59.189007 
L 308.555553 51.274873 
L 308.837513 46.212109 
L 309.119474 45.743212 
L 309.965356 61.999282 
L 310.247316 64.507298 
L 310.529277 72.461301 
L 312.22104 166.323448 
L 312.503001 165.81261 
L 312.784962 164.83765 
L 313.066922 168.95818 
L 313.348883 170.83428 
L 313.912804 159.481856 
L 314.194765 158.94145 
L 314.476725 158.877634 
L 314.758686 155.949031 
L 315.040646 154.365849 
L 315.322607 155.556663 
L 315.886528 156.748009 
L 316.450449 162.544622 
L 316.73241 161.450603 
L 317.01437 162.537086 
L 317.578292 176.837166 
L 317.860252 178.72526 
L 318.142213 178.798741 
L 318.988095 185.290854 
L 319.552016 191.113066 
L 320.115937 193.969302 
L 320.679858 202.76006 
L 321.243779 212.32457 
L 321.8077 216.422687 
L 322.089661 218.546013 
L 322.371622 215.155415 
L 322.653582 198.405884 
L 323.781424 96.652275 
L 324.345346 63.241597 
L 325.191227 34.338397 
L 325.473188 34.778313 
L 326.31907 53.537664 
L 326.882991 61.761651 
L 327.164952 68.572874 
L 327.728873 95.486781 
L 328.856715 161.598853 
L 329.138676 165.45092 
L 329.420636 166.896715 
L 329.702597 166.880205 
L 330.266518 160.472202 
L 330.548479 159.639844 
L 330.830439 159.958784 
L 331.39436 157.201408 
L 331.676321 159.014394 
L 331.958281 162.701508 
L 332.240242 164.811487 
L 332.522203 165.336549 
L 333.086124 168.184618 
L 333.368084 166.723612 
L 333.650045 162.146023 
L 333.932006 159.425234 
L 334.213966 162.024769 
L 335.341809 183.202688 
L 335.623769 191.218281 
L 335.90573 194.882385 
L 336.18769 196.476888 
L 336.751611 205.34946 
L 337.033572 204.465716 
L 337.315533 199.988193 
L 337.597493 199.662547 
L 338.161414 208.726805 
L 338.443375 210.405138 
L 339.007296 220.626225 
L 339.289257 218.350619 
L 339.571217 202.611983 
L 340.417099 125.170169 
L 340.98102 69.478241 
L 341.544941 34.933508 
L 341.826902 23.689802 
L 342.108863 18.656681 
L 342.390823 20.049116 
L 342.954744 28.240219 
L 343.236705 30.873596 
L 343.518666 35.621967 
L 344.082587 59.683314 
L 344.646508 88.160731 
L 345.49239 146.832639 
L 345.77435 157.546574 
L 346.056311 163.574737 
L 346.338271 166.397287 
L 346.902193 167.406753 
L 347.184153 169.008268 
L 347.466114 169.94157 
L 347.748074 169.379533 
L 348.593956 166.835553 
L 348.875917 166.462231 
L 349.157877 165.499695 
L 349.439838 163.599894 
L 349.721798 164.577819 
L 350.28572 177.311611 
L 350.56768 177.245045 
L 350.849641 174.945316 
L 351.131601 177.845831 
L 351.413562 183.431898 
L 351.695523 184.585971 
L 351.977483 182.364697 
L 352.259444 182.23128 
L 352.541404 183.768972 
L 352.823365 184.382596 
L 353.105325 186.956896 
L 353.669247 202.613513 
L 353.951207 206.365031 
L 354.233168 207.975954 
L 355.07905 220.700758 
L 355.642971 217.05566 
L 355.924931 213.40227 
L 356.206892 201.557848 
L 357.052774 129.020136 
L 357.898655 55.914045 
L 358.462577 31.187127 
L 358.744537 24.591633 
L 359.026498 23.908106 
L 359.590419 30.494375 
L 359.87238 31.455579 
L 360.15434 36.52449 
L 361.000222 71.269196 
L 361.282182 85.546123 
L 362.410025 163.270207 
L 362.691985 169.535287 
L 363.255907 172.98779 
L 363.537867 175.328643 
L 363.819828 174.778726 
L 364.101788 172.194934 
L 364.383749 171.974087 
L 364.665709 173.926641 
L 364.94767 173.773031 
L 365.511591 168.064065 
L 366.075512 164.795293 
L 366.357473 164.354556 
L 366.639434 165.251879 
L 366.921394 165.442523 
L 367.203355 164.690473 
L 367.485315 165.883276 
L 368.331197 177.587059 
L 368.895118 180.728414 
L 370.304921 192.999758 
L 371.150803 203.353939 
L 371.996685 227.016533 
L 372.278645 227.309201 
L 372.560606 223.966022 
L 372.842566 214.865738 
L 373.124527 195.418954 
L 374.53433 63.764869 
L 375.380212 24.428438 
L 375.662172 19.235834 
L 376.226094 24.325377 
L 376.508054 22.989669 
L 376.790015 27.966386 
L 378.199818 110.402348 
L 378.763739 152.21744 
L 379.045699 166.449993 
L 379.32766 174.779264 
L 379.609621 177.203184 
L 379.891581 178.104182 
L 380.173542 180.249242 
L 380.455502 179.744258 
L 381.301384 162.680721 
L 381.583345 161.923329 
L 382.147266 159.34181 
L 382.429226 160.037759 
L 382.711187 161.569557 
L 382.993148 161.596005 
L 383.275108 160.293542 
L 383.557069 159.535162 
L 383.839029 159.845991 
L 384.12099 160.429253 
L 384.402951 161.734671 
L 384.684911 165.579147 
L 385.530793 182.460615 
L 386.658635 196.23652 
L 386.940596 198.828098 
L 388.91432 228.704813 
L 389.19628 228.778603 
L 389.478241 220.310762 
L 390.042162 177.787048 
L 391.451965 48.857542 
L 391.733926 34.865487 
L 392.015886 27.95337 
L 392.297847 26.176918 
L 392.861768 25.05405 
L 393.143729 26.311732 
L 393.70765 30.80656 
L 393.98961 37.21939 
L 394.835492 73.068327 
L 395.963335 157.000532 
L 396.527256 172.721669 
L 397.373137 183.296921 
L 397.655098 183.656419 
L 397.937059 183.049234 
L 398.50098 187.052222 
L 398.78294 182.447515 
L 399.346862 169.865537 
L 400.192743 163.004823 
L 401.038625 165.860558 
L 401.320586 168.871939 
L 401.884507 181.313153 
L 402.448428 186.181607 
L 403.57627 196.847024 
L 404.140192 207.282603 
L 404.986073 216.832409 
L 405.549994 225.528123 
L 405.831955 226.939809 
L 406.113916 222.915052 
L 406.395876 209.116343 
L 407.241758 129.2097 
L 408.08764 52.13002 
L 408.3696 37.304433 
L 408.933522 26.19646 
L 409.215482 22.74354 
L 409.497443 21.695247 
L 410.061364 23.90421 
L 410.343324 27.117461 
L 410.625285 34.990054 
L 411.471167 74.172378 
L 412.035088 114.791123 
L 412.599009 155.888942 
L 412.88097 167.23002 
L 413.16293 171.73428 
L 413.726851 175.002351 
L 414.008812 175.89583 
L 414.572733 174.018386 
L 414.854694 174.077977 
L 415.136654 173.562288 
L 415.982536 167.06475 
L 416.264497 167.269189 
L 417.110379 168.639814 
L 417.392339 170.133865 
L 417.6743 172.950673 
L 418.238221 180.931563 
L 418.520181 183.098407 
L 419.084103 182.26888 
L 419.366063 185.049574 
L 419.929984 194.130211 
L 420.211945 196.551622 
L 420.493906 202.074407 
L 421.057827 217.740418 
L 421.621748 226.471878 
L 421.903708 232.458163 
L 422.185669 234.294897 
L 422.46763 230.579485 
L 422.74959 223.671338 
L 423.031551 211.717772 
L 423.595472 163.618171 
L 424.723314 58.22962 
L 425.287236 29.938828 
L 425.569196 24.420856 
L 425.851157 23.561758 
L 426.133117 24.698424 
L 426.415078 24.768113 
L 426.697038 24.488552 
L 426.978999 27.183727 
L 427.26096 34.040682 
L 427.824881 56.137599 
L 428.388802 90.47344 
L 429.234684 149.24508 
L 429.516644 161.165344 
L 429.798605 167.361567 
L 430.080565 170.667452 
L 430.362526 172.49486 
L 430.644487 172.421565 
L 430.926447 171.51609 
L 431.208408 171.962126 
L 431.490368 173.368537 
L 431.772329 173.840281 
L 432.05429 173.524077 
L 432.900171 173.973367 
L 433.182132 175.57007 
L 433.464093 178.018815 
L 433.746053 178.579743 
L 434.028014 178.012532 
L 434.309974 180.592688 
L 434.873895 191.486084 
L 435.437817 194.551283 
L 436.001738 201.961107 
L 436.283698 203.892976 
L 436.565659 206.649785 
L 437.693501 230.482668 
L 437.975462 232.727085 
L 438.539383 238.814122 
L 438.821344 235.164069 
L 439.385265 215.277777 
L 439.667225 197.858001 
L 440.795068 94.513046 
L 441.358989 57.211388 
L 441.64095 47.156278 
L 441.92291 43.408696 
L 442.204871 37.164952 
L 442.768792 19.45635 
L 443.332713 13.883532 
L 443.614674 14.294387 
L 443.896634 21.825697 
L 444.742516 67.724069 
L 445.306437 112.080593 
L 445.870358 149.57183 
L 446.152319 154.39892 
L 446.434279 155.224604 
L 447.280161 159.556165 
L 447.562122 162.268668 
L 448.126043 173.168245 
L 448.408004 173.759023 
L 448.689964 173.029803 
L 448.971925 174.825833 
L 449.253885 175.421211 
L 450.099767 160.761476 
L 450.381728 163.585548 
L 450.663688 164.788325 
L 450.945649 165.182315 
L 451.227609 170.574024 
L 451.791531 188.61145 
L 452.073491 190.824538 
L 452.355452 190.603096 
L 452.637412 191.822659 
L 452.919373 193.952575 
L 453.201334 194.652671 
L 453.483294 194.250241 
L 453.765255 195.492289 
L 454.047215 199.615918 
L 454.611136 213.487677 
L 455.457018 242.587989 
L 455.738979 246.490984 
L 456.020939 244.041696 
L 456.3029 230.459173 
L 456.866821 167.629188 
L 457.430742 106.509053 
L 457.994663 62.306053 
L 458.558585 36.208363 
L 459.122506 25.620957 
L 459.686427 18.689507 
L 459.968388 18.894936 
L 460.532309 23.92148 
L 460.814269 28.231009 
L 461.09623 36.638298 
L 461.660151 62.972458 
L 462.224072 98.773534 
L 462.787993 138.473814 
L 463.069954 150.606379 
L 463.351915 157.361597 
L 463.633875 161.44538 
L 463.915836 163.670186 
L 464.197796 163.35419 
L 464.479757 162.173278 
L 465.043678 163.165945 
L 465.607599 159.066983 
L 465.88956 163.196154 
L 466.453481 176.193183 
L 467.299363 179.976294 
L 467.581323 181.330996 
L 467.863284 183.740085 
L 468.427205 191.509298 
L 468.991126 193.232303 
L 469.273087 196.275093 
L 470.96485 229.768392 
L 471.246811 233.365328 
L 471.810732 237.912534 
L 472.374653 242.597861 
L 472.656614 244.25917 
L 472.938575 239.04208 
L 473.220535 217.924458 
L 474.066417 123.966045 
L 474.912299 52.506385 
L 475.194259 44.467537 
L 475.47622 40.158874 
L 476.040141 28.047254 
L 476.604062 24.551576 
L 477.167983 15.868697 
L 477.449944 19.176033 
L 478.295826 45.13881 
L 478.859747 89.098862 
L 479.423668 131.711261 
L 479.987589 159.286682 
L 480.26955 161.801372 
L 480.55151 159.158967 
L 480.833471 159.236115 
L 481.115432 162.433811 
L 481.397392 164.163207 
L 481.679353 164.697583 
L 482.243274 169.905759 
L 482.525234 170.218098 
L 482.807195 169.812728 
L 483.371116 173.349936 
L 483.653077 173.033229 
L 483.935037 171.44087 
L 484.216998 171.543882 
L 484.780919 177.561783 
L 485.06288 178.602004 
L 485.34484 178.130779 
L 485.626801 180.691334 
L 486.190722 196.495222 
L 486.472683 200.589646 
L 486.754643 203.014205 
L 487.882486 222.13016 
L 488.446407 232.162853 
L 489.010328 242.995881 
L 489.292289 246.457786 
L 489.574249 247.769409 
L 489.85621 244.740403 
L 490.13817 232.960892 
L 490.702091 179.075829 
L 491.829934 44.592939 
L 492.393855 22.103928 
L 492.675816 12.897944 
L 492.957776 12.096 
L 493.521697 28.601909 
L 494.085619 30.090617 
L 494.64954 41.136104 
L 494.9315 47.406516 
L 495.213461 57.776989 
L 495.777382 92.990199 
L 496.623264 149.654152 
L 497.187185 161.182699 
L 497.469146 166.432314 
L 497.751106 168.703509 
L 498.033067 167.390754 
L 498.315027 169.272285 
L 498.878948 184.108791 
L 499.160909 184.191514 
L 499.44287 181.850282 
L 499.72483 182.729823 
L 500.006791 184.164305 
L 500.288751 181.059098 
L 500.570712 175.652727 
L 500.852673 174.109512 
L 501.416594 180.551685 
L 501.698554 181.866714 
L 501.980515 184.810766 
L 502.544436 194.804957 
L 502.826397 193.100612 
L 503.108357 190.396128 
L 503.390318 191.789115 
L 503.672278 194.449228 
L 503.954239 194.286098 
L 504.2362 193.293528 
L 504.51816 195.025576 
L 504.800121 199.979602 
L 505.364042 219.591727 
L 505.646003 228.88163 
L 505.927963 233.797606 
L 506.209924 236.533485 
L 506.491884 234.88379 
L 506.773845 220.969362 
L 508.465608 59.561961 
L 509.02953 36.213743 
L 509.593451 25.52856 
L 510.157372 18.451806 
L 510.439333 16.62583 
L 510.721293 16.452864 
L 511.003254 20.582909 
L 512.413057 70.348718 
L 512.695017 84.488826 
L 513.540899 145.279185 
L 514.10482 161.677287 
L 514.386781 165.323912 
L 514.668741 165.105812 
L 514.950702 164.110776 
L 515.514623 168.5866 
L 515.796584 169.087008 
L 516.078544 170.69013 
L 516.360505 174.195522 
L 516.642465 174.18023 
L 516.924426 169.793565 
L 517.206387 167.933688 
L 517.770308 174.117194 
L 518.052268 173.750768 
L 518.334229 176.085424 
L 518.89815 193.050405 
L 519.180111 196.488683 
L 519.462071 197.978347 
L 520.025992 206.55843 
L 520.307953 207.069555 
L 520.589914 206.667084 
L 520.871874 210.352572 
L 521.153835 215.906295 
L 521.717756 221.450189 
L 522.845598 249.142496 
L 523.127559 251.183268 
L 523.409519 246.876215 
L 523.69148 231.845105 
L 524.255401 174.118848 
L 524.819322 106.920536 
L 525.383244 67.54104 
L 525.947165 35.566517 
L 526.229125 26.919036 
L 526.511086 24.40504 
L 527.075007 22.589738 
L 527.356968 22.798723 
L 527.638928 23.80588 
L 527.920889 25.806736 
L 528.48481 35.790565 
L 528.766771 42.057068 
L 529.048731 53.001781 
L 530.458534 149.296971 
L 530.740495 164.188764 
L 531.022455 172.304029 
L 531.304416 171.428201 
L 531.586376 168.543124 
L 531.868337 169.735808 
L 532.150298 173.116271 
L 532.432258 174.300358 
L 532.714219 173.747065 
L 532.996179 174.208359 
L 533.560101 176.997163 
L 533.842061 176.699936 
L 534.687943 172.87719 
L 534.969904 172.692902 
L 535.251864 173.487651 
L 536.097746 180.086625 
L 536.379706 182.418491 
L 536.661667 186.904973 
L 537.507549 205.590939 
L 538.353431 218.695013 
L 538.635391 222.434095 
L 539.199312 235.638924 
L 539.481273 242.469411 
L 539.763233 245.055722 
L 540.045194 242.758868 
L 540.327155 236.056054 
L 540.609115 222.118827 
L 540.891076 196.072288 
L 541.736958 92.685822 
L 542.300879 61.122061 
L 542.582839 53.270655 
L 543.146761 46.028124 
L 543.428721 42.776499 
L 544.274603 27.229953 
L 544.556563 27.607503 
L 544.838524 31.055158 
L 545.120485 36.083275 
L 545.402445 43.748989 
L 545.966366 69.639857 
L 547.376169 144.853787 
L 547.94009 161.289878 
L 548.222051 166.07391 
L 548.504012 168.12586 
L 548.785972 168.052422 
L 549.067933 167.605589 
L 549.349893 167.782017 
L 549.913815 168.836162 
L 550.759696 172.090512 
L 551.041657 172.391015 
L 551.323618 173.011897 
L 551.605578 174.727502 
L 552.45146 184.52659 
L 552.73342 184.542837 
L 553.015381 188.949119 
L 553.579302 208.310899 
L 554.425184 222.440938 
L 554.707145 224.245895 
L 554.989105 222.278581 
L 555.271066 224.480491 
L 555.834987 238.516496 
L 556.116947 239.315417 
L 556.398908 241.286392 
L 556.680869 244.98659 
L 556.962829 239.459939 
L 557.24479 217.458513 
L 558.936553 37.162683 
L 559.782435 22.46873 
L 560.064396 21.227261 
L 560.628317 30.185106 
L 560.910277 31.996266 
L 561.192238 31.761067 
L 561.474199 32.197508 
L 561.756159 37.011617 
L 562.03812 49.079609 
L 563.165962 110.946033 
L 563.729883 135.008977 
L 565.139686 162.803971 
L 565.985568 169.570902 
L 566.549489 169.203248 
L 566.83145 171.965355 
L 567.11341 176.651252 
L 567.395371 178.409076 
L 567.677332 176.522104 
L 567.959292 175.768136 
L 568.523213 181.510862 
L 568.805174 182.289219 
L 569.087134 183.511064 
L 569.369095 187.356387 
L 570.214977 204.14635 
L 570.496937 205.36357 
L 570.778898 206.070123 
L 571.060859 212.404661 
L 571.62478 228.646609 
L 571.90674 231.212778 
L 572.188701 236.572002 
L 572.752622 250.912002 
L 573.034583 254.016 
L 573.316543 252.982815 
L 573.598504 241.500211 
L 574.162425 184.39446 
L 575.008307 72.613678 
L 575.290267 52.384668 
L 576.136149 32.664698 
L 576.41811 30.415294 
L 576.982031 37.677766 
L 577.263991 37.571562 
L 577.545952 36.140329 
L 577.827913 36.808926 
L 578.109873 39.826805 
L 578.673794 50.031752 
L 578.955755 58.451365 
L 579.519676 86.747644 
L 580.083597 112.159797 
L 580.365558 118.032718 
L 580.647518 126.267592 
L 581.21144 148.562495 
L 581.775361 160.658222 
L 582.339282 179.998705 
L 582.621243 181.060546 
L 582.903203 180.938442 
L 583.185164 182.869379 
L 583.467124 182.894073 
L 583.749085 180.429434 
L 584.031046 180.156852 
L 584.313006 181.324373 
L 584.594967 180.715378 
L 584.876927 180.968244 
L 585.158888 184.636405 
L 585.440848 185.842078 
L 585.722809 181.588155 
L 586.00477 179.626046 
L 586.850651 196.670055 
L 587.132612 197.359191 
L 587.414573 201.566455 
L 587.978494 213.350626 
L 588.542415 222.687434 
L 589.670257 247.660305 
L 589.952218 247.628956 
L 590.234178 238.695798 
L 590.516139 220.386789 
L 591.08006 156.689784 
L 591.643981 87.80441 
L 591.925942 70.711949 
L 592.489863 51.356325 
L 592.771824 44.226096 
L 593.335745 37.433408 
L 593.617705 35.083624 
L 593.899666 33.739352 
L 594.181627 34.200506 
L 594.463587 37.743996 
L 595.87339 76.504149 
L 596.155351 89.235829 
L 597.001232 109.278728 
L 597.565154 133.661476 
L 598.692996 160.700573 
L 598.974957 164.763265 
L 599.538878 168.269657 
L 600.102799 174.649614 
L 600.38476 175.98449 
L 600.66672 176.590675 
L 601.230641 179.194948 
L 601.512602 179.505693 
L 601.794562 180.880136 
L 602.640444 193.857781 
L 602.922405 196.123929 
L 604.050247 210.081528 
L 604.614168 216.965813 
L 604.896129 219.922477 
L 605.46005 227.38868 
L 605.742011 225.931261 
L 606.023971 225.181613 
L 606.587892 235.389179 
L 606.869853 234.113871 
L 607.151814 225.51986 
L 607.433774 210.769946 
L 607.715735 186.692131 
L 608.561617 84.121316 
L 608.843577 68.134939 
L 609.125538 62.562364 
L 609.407498 61.383712 
L 609.689459 58.6144 
L 610.25338 50.130573 
L 610.535341 48.964213 
L 610.817301 46.124256 
L 611.381222 37.070554 
L 611.663183 38.08195 
L 611.945144 41.438536 
L 612.227104 46.916304 
L 612.509065 56.891208 
L 613.354946 93.298868 
L 615.04671 151.172687 
L 615.610631 161.914953 
L 616.174552 171.173176 
L 616.738474 173.572482 
L 617.302395 180.525103 
L 617.584355 180.569101 
L 617.866316 179.061101 
L 618.148276 178.721711 
L 618.712198 181.257545 
L 619.558079 187.190913 
L 620.403961 204.093416 
L 620.967882 207.235712 
L 621.531803 212.329606 
L 621.813764 219.909837 
L 622.377685 241.231501 
L 622.659646 244.1414 
L 623.223567 253.812381 
L 623.505528 250.572684 
L 623.787488 232.88631 
L 624.351409 175.852017 
L 624.915331 102.154201 
L 625.197291 79.296496 
L 625.761212 61.256125 
L 626.325133 48.68619 
L 626.889055 40.744856 
L 627.171015 38.842199 
L 627.452976 39.055688 
L 627.734936 38.18829 
L 628.016897 38.261104 
L 628.298858 39.247307 
L 628.580818 41.587543 
L 628.862779 46.715193 
L 629.4267 80.570334 
L 629.70866 96.819539 
L 631.118463 138.123333 
L 632.246306 162.771514 
L 632.528266 167.618939 
L 632.810227 168.525141 
L 633.092188 176.189217 
L 633.092188 176.189217 
" clip-path="url(#pfa0afa6afe)" style="fill: none; stroke: #1f77b4; stroke-width: 1.5; stroke-linecap: square"/>
   </g>
   <g id="patch_3">
    <path d="M 47.192188 266.112 
L 47.192188 0 
" style="fill: none; stroke: #000000; stroke-width: 0.8; stroke-linejoin: miter; stroke-linecap: square"/>
   </g>
   <g id="patch_4">
    <path d="M 660.992188 266.112 
L 660.992188 0 
" style="fill: none; stroke: #000000; stroke-width: 0.8; stroke-linejoin: miter; stroke-linecap: square"/>
   </g>
   <g id="patch_5">
    <path d="M 47.192188 266.112 
L 660.992188 266.112 
" style="fill: none; stroke: #000000; stroke-width: 0.8; stroke-linejoin: miter; stroke-linecap: square"/>
   </g>
   <g id="patch_6">
    <path d="M 47.192188 0 
L 660.992188 0 
" style="fill: none; stroke: #000000; stroke-width: 0.8; stroke-linejoin: miter; stroke-linecap: square"/>
   </g>
  </g>
 </g>
 <defs>
  <clipPath id="pfa0afa6afe">
   <rect x="47.192188" y="0" width="613.8" height="266.112"/>
  </clipPath>
 </defs>
</svg>
