<?xml version="1.0" encoding="utf-8" standalone="no"?>
<!DOCTYPE svg PUBLIC "-//W3C//DTD SVG 1.1//EN"
  "http://www.w3.org/Graphics/SVG/1.1/DTD/svg11.dtd">
<svg xmlns:xlink="http://www.w3.org/1999/xlink" width="660.992188pt" height="282.790125pt" viewBox="0 0 660.992188 282.790125" xmlns="http://www.w3.org/2000/svg" version="1.1">
 <metadata>
  <rdf:RDF xmlns:dc="http://purl.org/dc/elements/1.1/" xmlns:cc="http://creativecommons.org/ns#" xmlns:rdf="http://www.w3.org/1999/02/22-rdf-syntax-ns#">
   <cc:Work>
    <dc:type rdf:resource="http://purl.org/dc/dcmitype/StillImage"/>
    <dc:date>2023-03-06T21:26:17.955340</dc:date>
    <dc:format>image/svg+xml</dc:format>
    <dc:creator>
     <cc:Agent>
      <dc:title>Matplotlib v3.6.3, https://matplotlib.org/</dc:title>
     </cc:Agent>
    </dc:creator>
   </cc:Work>
  </rdf:RDF>
 </metadata>
 <defs>
  <style type="text/css">*{stroke-linejoin: round; stroke-linecap: butt}</style>
 </defs>
 <g id="figure_1">
  <g id="patch_1">
   <path d="M -0 282.790125 
L 660.992188 282.790125 
L 660.992188 0 
L -0 0 
L -0 282.790125 
z
" style="fill: none"/>
  </g>
  <g id="axes_1">
   <g id="patch_2">
    <path d="M 47.192188 266.112 
L 660.992188 266.112 
L 660.992188 0 
L 47.192188 0 
L 47.192188 266.112 
z
" style="fill: none"/>
   </g>
   <g id="matplotlib.axis_1">
    <g id="xtick_1">
     <g id="line2d_1">
      <defs>
       <path id="m87d89ba9c4" d="M 0 0 
L 0 3.5 
" style="stroke: #808080; stroke-width: 0.8"/>
      </defs>
      <g>
       <use xlink:href="#m87d89ba9c4" x="75.092188" y="266.112" style="fill: #808080; stroke: #808080; stroke-width: 0.8"/>
      </g>
     </g>
     <g id="text_1">
      <!-- 0 -->
      <g style="fill: #808080" transform="translate(71.910938 280.710438) scale(0.1 -0.1)">
       <defs>
        <path id="DejaVuSans-30" d="M 2034 4250 
Q 1547 4250 1301 3770 
Q 1056 3291 1056 2328 
Q 1056 1369 1301 889 
Q 1547 409 2034 409 
Q 2525 409 2770 889 
Q 3016 1369 3016 2328 
Q 3016 3291 2770 3770 
Q 2525 4250 2034 4250 
z
M 2034 4750 
Q 2819 4750 3233 4129 
Q 3647 3509 3647 2328 
Q 3647 1150 3233 529 
Q 2819 -91 2034 -91 
Q 1250 -91 836 529 
Q 422 1150 422 2328 
Q 422 3509 836 4129 
Q 1250 4750 2034 4750 
z
" transform="scale(0.015625)"/>
       </defs>
       <use xlink:href="#DejaVuSans-30"/>
      </g>
     </g>
    </g>
    <g id="xtick_2">
     <g id="line2d_2">
      <g>
       <use xlink:href="#m87d89ba9c4" x="144.842188" y="266.112" style="fill: #808080; stroke: #808080; stroke-width: 0.8"/>
      </g>
     </g>
     <g id="text_2">
      <!-- 500 -->
      <g style="fill: #808080" transform="translate(135.298438 280.710438) scale(0.1 -0.1)">
       <defs>
        <path id="DejaVuSans-35" d="M 691 4666 
L 3169 4666 
L 3169 4134 
L 1269 4134 
L 1269 2991 
Q 1406 3038 1543 3061 
Q 1681 3084 1819 3084 
Q 2600 3084 3056 2656 
Q 3513 2228 3513 1497 
Q 3513 744 3044 326 
Q 2575 -91 1722 -91 
Q 1428 -91 1123 -41 
Q 819 9 494 109 
L 494 744 
Q 775 591 1075 516 
Q 1375 441 1709 441 
Q 2250 441 2565 725 
Q 2881 1009 2881 1497 
Q 2881 1984 2565 2268 
Q 2250 2553 1709 2553 
Q 1456 2553 1204 2497 
Q 953 2441 691 2322 
L 691 4666 
z
" transform="scale(0.015625)"/>
       </defs>
       <use xlink:href="#DejaVuSans-35"/>
       <use xlink:href="#DejaVuSans-30" x="63.623047"/>
       <use xlink:href="#DejaVuSans-30" x="127.246094"/>
      </g>
     </g>
    </g>
    <g id="xtick_3">
     <g id="line2d_3">
      <g>
       <use xlink:href="#m87d89ba9c4" x="214.592188" y="266.112" style="fill: #808080; stroke: #808080; stroke-width: 0.8"/>
      </g>
     </g>
     <g id="text_3">
      <!-- 1000 -->
      <g style="fill: #808080" transform="translate(201.867188 280.710438) scale(0.1 -0.1)">
       <defs>
        <path id="DejaVuSans-31" d="M 794 531 
L 1825 531 
L 1825 4091 
L 703 3866 
L 703 4441 
L 1819 4666 
L 2450 4666 
L 2450 531 
L 3481 531 
L 3481 0 
L 794 0 
L 794 531 
z
" transform="scale(0.015625)"/>
       </defs>
       <use xlink:href="#DejaVuSans-31"/>
       <use xlink:href="#DejaVuSans-30" x="63.623047"/>
       <use xlink:href="#DejaVuSans-30" x="127.246094"/>
       <use xlink:href="#DejaVuSans-30" x="190.869141"/>
      </g>
     </g>
    </g>
    <g id="xtick_4">
     <g id="line2d_4">
      <g>
       <use xlink:href="#m87d89ba9c4" x="284.342188" y="266.112" style="fill: #808080; stroke: #808080; stroke-width: 0.8"/>
      </g>
     </g>
     <g id="text_4">
      <!-- 1500 -->
      <g style="fill: #808080" transform="translate(271.617188 280.710438) scale(0.1 -0.1)">
       <use xlink:href="#DejaVuSans-31"/>
       <use xlink:href="#DejaVuSans-35" x="63.623047"/>
       <use xlink:href="#DejaVuSans-30" x="127.246094"/>
       <use xlink:href="#DejaVuSans-30" x="190.869141"/>
      </g>
     </g>
    </g>
    <g id="xtick_5">
     <g id="line2d_5">
      <g>
       <use xlink:href="#m87d89ba9c4" x="354.092188" y="266.112" style="fill: #808080; stroke: #808080; stroke-width: 0.8"/>
      </g>
     </g>
     <g id="text_5">
      <!-- 2000 -->
      <g style="fill: #808080" transform="translate(341.367188 280.710438) scale(0.1 -0.1)">
       <defs>
        <path id="DejaVuSans-32" d="M 1228 531 
L 3431 531 
L 3431 0 
L 469 0 
L 469 531 
Q 828 903 1448 1529 
Q 2069 2156 2228 2338 
Q 2531 2678 2651 2914 
Q 2772 3150 2772 3378 
Q 2772 3750 2511 3984 
Q 2250 4219 1831 4219 
Q 1534 4219 1204 4116 
Q 875 4013 500 3803 
L 500 4441 
Q 881 4594 1212 4672 
Q 1544 4750 1819 4750 
Q 2544 4750 2975 4387 
Q 3406 4025 3406 3419 
Q 3406 3131 3298 2873 
Q 3191 2616 2906 2266 
Q 2828 2175 2409 1742 
Q 1991 1309 1228 531 
z
" transform="scale(0.015625)"/>
       </defs>
       <use xlink:href="#DejaVuSans-32"/>
       <use xlink:href="#DejaVuSans-30" x="63.623047"/>
       <use xlink:href="#DejaVuSans-30" x="127.246094"/>
       <use xlink:href="#DejaVuSans-30" x="190.869141"/>
      </g>
     </g>
    </g>
    <g id="xtick_6">
     <g id="line2d_6">
      <g>
       <use xlink:href="#m87d89ba9c4" x="423.842188" y="266.112" style="fill: #808080; stroke: #808080; stroke-width: 0.8"/>
      </g>
     </g>
     <g id="text_6">
      <!-- 2500 -->
      <g style="fill: #808080" transform="translate(411.117188 280.710438) scale(0.1 -0.1)">
       <use xlink:href="#DejaVuSans-32"/>
       <use xlink:href="#DejaVuSans-35" x="63.623047"/>
       <use xlink:href="#DejaVuSans-30" x="127.246094"/>
       <use xlink:href="#DejaVuSans-30" x="190.869141"/>
      </g>
     </g>
    </g>
    <g id="xtick_7">
     <g id="line2d_7">
      <g>
       <use xlink:href="#m87d89ba9c4" x="493.592188" y="266.112" style="fill: #808080; stroke: #808080; stroke-width: 0.8"/>
      </g>
     </g>
     <g id="text_7">
      <!-- 3000 -->
      <g style="fill: #808080" transform="translate(480.867188 280.710438) scale(0.1 -0.1)">
       <defs>
        <path id="DejaVuSans-33" d="M 2597 2516 
Q 3050 2419 3304 2112 
Q 3559 1806 3559 1356 
Q 3559 666 3084 287 
Q 2609 -91 1734 -91 
Q 1441 -91 1130 -33 
Q 819 25 488 141 
L 488 750 
Q 750 597 1062 519 
Q 1375 441 1716 441 
Q 2309 441 2620 675 
Q 2931 909 2931 1356 
Q 2931 1769 2642 2001 
Q 2353 2234 1838 2234 
L 1294 2234 
L 1294 2753 
L 1863 2753 
Q 2328 2753 2575 2939 
Q 2822 3125 2822 3475 
Q 2822 3834 2567 4026 
Q 2313 4219 1838 4219 
Q 1578 4219 1281 4162 
Q 984 4106 628 3988 
L 628 4550 
Q 988 4650 1302 4700 
Q 1616 4750 1894 4750 
Q 2613 4750 3031 4423 
Q 3450 4097 3450 3541 
Q 3450 3153 3228 2886 
Q 3006 2619 2597 2516 
z
" transform="scale(0.015625)"/>
       </defs>
       <use xlink:href="#DejaVuSans-33"/>
       <use xlink:href="#DejaVuSans-30" x="63.623047"/>
       <use xlink:href="#DejaVuSans-30" x="127.246094"/>
       <use xlink:href="#DejaVuSans-30" x="190.869141"/>
      </g>
     </g>
    </g>
    <g id="xtick_8">
     <g id="line2d_8">
      <g>
       <use xlink:href="#m87d89ba9c4" x="563.342188" y="266.112" style="fill: #808080; stroke: #808080; stroke-width: 0.8"/>
      </g>
     </g>
     <g id="text_8">
      <!-- 3500 -->
      <g style="fill: #808080" transform="translate(550.617188 280.710438) scale(0.1 -0.1)">
       <use xlink:href="#DejaVuSans-33"/>
       <use xlink:href="#DejaVuSans-35" x="63.623047"/>
       <use xlink:href="#DejaVuSans-30" x="127.246094"/>
       <use xlink:href="#DejaVuSans-30" x="190.869141"/>
      </g>
     </g>
    </g>
    <g id="xtick_9">
     <g id="line2d_9">
      <g>
       <use xlink:href="#m87d89ba9c4" x="633.092188" y="266.112" style="fill: #808080; stroke: #808080; stroke-width: 0.8"/>
      </g>
     </g>
     <g id="text_9">
      <!-- 4000 -->
      <g style="fill: #808080" transform="translate(620.367188 280.710438) scale(0.1 -0.1)">
       <defs>
        <path id="DejaVuSans-34" d="M 2419 4116 
L 825 1625 
L 2419 1625 
L 2419 4116 
z
M 2253 4666 
L 3047 4666 
L 3047 1625 
L 3713 1625 
L 3713 1100 
L 3047 1100 
L 3047 0 
L 2419 0 
L 2419 1100 
L 313 1100 
L 313 1709 
L 2253 4666 
z
" transform="scale(0.015625)"/>
       </defs>
       <use xlink:href="#DejaVuSans-34"/>
       <use xlink:href="#DejaVuSans-30" x="63.623047"/>
       <use xlink:href="#DejaVuSans-30" x="127.246094"/>
       <use xlink:href="#DejaVuSans-30" x="190.869141"/>
      </g>
     </g>
    </g>
   </g>
   <g id="matplotlib.axis_2">
    <g id="ytick_1">
     <g id="line2d_10">
      <defs>
       <path id="m6999fb0dec" d="M 0 0 
L -3.5 0 
" style="stroke: #808080; stroke-width: 0.8"/>
      </defs>
      <g>
       <use xlink:href="#m6999fb0dec" x="47.192188" y="231.350895" style="fill: #808080; stroke: #808080; stroke-width: 0.8"/>
      </g>
     </g>
     <g id="text_10">
      <!-- −10000 -->
      <g style="fill: #808080" transform="translate(0 235.150114) scale(0.1 -0.1)">
       <defs>
        <path id="DejaVuSans-2212" d="M 678 2272 
L 4684 2272 
L 4684 1741 
L 678 1741 
L 678 2272 
z
" transform="scale(0.015625)"/>
       </defs>
       <use xlink:href="#DejaVuSans-2212"/>
       <use xlink:href="#DejaVuSans-31" x="83.789062"/>
       <use xlink:href="#DejaVuSans-30" x="147.412109"/>
       <use xlink:href="#DejaVuSans-30" x="211.035156"/>
       <use xlink:href="#DejaVuSans-30" x="274.658203"/>
       <use xlink:href="#DejaVuSans-30" x="338.28125"/>
      </g>
     </g>
    </g>
    <g id="ytick_2">
     <g id="line2d_11">
      <g>
       <use xlink:href="#m6999fb0dec" x="47.192188" y="189.429056" style="fill: #808080; stroke: #808080; stroke-width: 0.8"/>
      </g>
     </g>
     <g id="text_11">
      <!-- −5000 -->
      <g style="fill: #808080" transform="translate(6.3625 193.228275) scale(0.1 -0.1)">
       <use xlink:href="#DejaVuSans-2212"/>
       <use xlink:href="#DejaVuSans-35" x="83.789062"/>
       <use xlink:href="#DejaVuSans-30" x="147.412109"/>
       <use xlink:href="#DejaVuSans-30" x="211.035156"/>
       <use xlink:href="#DejaVuSans-30" x="274.658203"/>
      </g>
     </g>
    </g>
    <g id="ytick_3">
     <g id="line2d_12">
      <g>
       <use xlink:href="#m6999fb0dec" x="47.192188" y="147.507216" style="fill: #808080; stroke: #808080; stroke-width: 0.8"/>
      </g>
     </g>
     <g id="text_12">
      <!-- 0 -->
      <g style="fill: #808080" transform="translate(33.829688 151.306435) scale(0.1 -0.1)">
       <use xlink:href="#DejaVuSans-30"/>
      </g>
     </g>
    </g>
    <g id="ytick_4">
     <g id="line2d_13">
      <g>
       <use xlink:href="#m6999fb0dec" x="47.192188" y="105.585377" style="fill: #808080; stroke: #808080; stroke-width: 0.8"/>
      </g>
     </g>
     <g id="text_13">
      <!-- 5000 -->
      <g style="fill: #808080" transform="translate(14.742188 109.384595) scale(0.1 -0.1)">
       <use xlink:href="#DejaVuSans-35"/>
       <use xlink:href="#DejaVuSans-30" x="63.623047"/>
       <use xlink:href="#DejaVuSans-30" x="127.246094"/>
       <use xlink:href="#DejaVuSans-30" x="190.869141"/>
      </g>
     </g>
    </g>
    <g id="ytick_5">
     <g id="line2d_14">
      <g>
       <use xlink:href="#m6999fb0dec" x="47.192188" y="63.663537" style="fill: #808080; stroke: #808080; stroke-width: 0.8"/>
      </g>
     </g>
     <g id="text_14">
      <!-- 10000 -->
      <g style="fill: #808080" transform="translate(8.379688 67.462756) scale(0.1 -0.1)">
       <use xlink:href="#DejaVuSans-31"/>
       <use xlink:href="#DejaVuSans-30" x="63.623047"/>
       <use xlink:href="#DejaVuSans-30" x="127.246094"/>
       <use xlink:href="#DejaVuSans-30" x="190.869141"/>
       <use xlink:href="#DejaVuSans-30" x="254.492188"/>
      </g>
     </g>
    </g>
    <g id="ytick_6">
     <g id="line2d_15">
      <g>
       <use xlink:href="#m6999fb0dec" x="47.192188" y="21.741697" style="fill: #808080; stroke: #808080; stroke-width: 0.8"/>
      </g>
     </g>
     <g id="text_15">
      <!-- 15000 -->
      <g style="fill: #808080" transform="translate(8.379688 25.540916) scale(0.1 -0.1)">
       <use xlink:href="#DejaVuSans-31"/>
       <use xlink:href="#DejaVuSans-35" x="63.623047"/>
       <use xlink:href="#DejaVuSans-30" x="127.246094"/>
       <use xlink:href="#DejaVuSans-30" x="190.869141"/>
       <use xlink:href="#DejaVuSans-30" x="254.492188"/>
      </g>
     </g>
    </g>
   </g>
   <g id="line2d_16">
    <path d="M 75.092188 147.910436 
L 75.374148 147.110987 
L 75.656109 147.897587 
L 75.938069 147.121689 
L 76.22003 147.88882 
L 76.50199 147.128692 
L 76.783951 147.883444 
L 77.065912 147.132552 
L 77.347872 147.881012 
L 77.629833 147.133625 
L 77.911793 147.881247 
L 78.193754 147.132116 
L 78.475715 147.884007 
L 78.757675 147.128114 
L 79.039636 147.889257 
L 79.321596 147.121599 
L 79.603557 147.897066 
L 79.885517 147.112453 
L 80.167478 147.907606 
L 80.449439 147.100449 
L 80.731399 147.921163 
L 81.01336 147.085232 
L 81.29532 147.938167 
L 81.577281 147.066287 
L 81.859242 147.959233 
L 82.141202 147.042886 
L 82.423163 147.985225 
L 82.705123 147.013998 
L 82.987084 148.017375 
L 83.269044 146.978147 
L 83.551005 148.057459 
L 83.832966 146.933178 
L 84.114926 148.108116 
L 84.396887 146.875833 
L 84.678847 148.173409 
L 84.960808 146.800981 
L 85.242769 148.259911 
L 85.524729 146.700067 
L 85.80669 148.378961 
L 86.08865 146.557734 
L 86.370611 148.551894 
L 86.652572 146.343438 
L 86.934532 148.824067 
L 87.216493 145.986692 
L 87.498453 149.311566 
L 87.780414 145.280978 
L 88.062374 150.423975 
L 88.344335 143.265014 
L 88.626296 155.251769 
L 89.190217 68.027547 
L 89.472177 94.309634 
L 89.754138 106.017108 
L 90.318059 155.93075 
L 90.60002 173.754559 
L 90.88198 179.815771 
L 91.163941 190.371178 
L 91.445901 194.354612 
L 91.727862 195.409669 
L 92.009823 188.970733 
L 92.291783 187.537705 
L 92.573744 187.24592 
L 92.855704 188.812227 
L 93.137665 183.720794 
L 93.419626 180.655921 
L 93.701586 182.768539 
L 93.983547 191.748701 
L 94.265507 193.994785 
L 94.829429 187.79306 
L 95.111389 191.61863 
L 95.39335 192.701577 
L 95.957271 186.546657 
L 96.239231 190.481698 
L 96.803153 200.524553 
L 97.085113 202.37898 
L 97.649034 207.768538 
L 97.930995 209.363188 
L 98.212956 208.067958 
L 98.494916 203.563673 
L 99.058837 177.983026 
L 99.904719 130.287802 
L 100.46864 90.45437 
L 101.314522 52.538483 
L 101.596483 47.28941 
L 102.160404 44.064175 
L 102.442364 46.379012 
L 102.724325 55.678086 
L 103.288246 89.503901 
L 104.134128 157.097066 
L 104.416088 168.967731 
L 104.698049 175.574022 
L 104.98001 177.625042 
L 105.26197 176.504278 
L 105.543931 174.738298 
L 106.107852 177.571064 
L 106.389813 177.671895 
L 106.671773 178.02951 
L 106.953734 180.350239 
L 107.235694 180.5463 
L 107.517655 178.981046 
L 107.799615 178.673671 
L 108.363537 183.809101 
L 108.645497 184.715828 
L 109.209418 183.775609 
L 109.491379 184.55943 
L 109.77334 187.328067 
L 110.0553 188.344051 
L 110.337261 188.35288 
L 110.619221 192.934739 
L 111.183143 212.798226 
L 111.465103 214.104228 
L 111.747064 213.931643 
L 112.029024 215.499368 
L 112.310985 208.823142 
L 113.156867 146.060167 
L 114.284709 68.66684 
L 114.84863 47.165442 
L 115.412551 33.780499 
L 115.694512 29.485534 
L 115.976472 30.322872 
L 116.258433 38.601836 
L 116.822354 71.788517 
L 117.950197 151.077866 
L 118.232157 160.517226 
L 118.796078 169.315341 
L 119.36 182.269198 
L 119.64196 184.1628 
L 120.205881 181.167265 
L 120.769802 181.756048 
L 121.333724 181.137221 
L 121.615684 182.373151 
L 121.897645 182.699996 
L 122.179605 181.49503 
L 122.461566 181.866151 
L 123.025487 192.687335 
L 123.307448 194.292327 
L 123.589408 194.270035 
L 124.43529 204.82269 
L 124.717251 206.407924 
L 124.999211 209.673196 
L 125.281172 211.571387 
L 125.845093 211.689209 
L 126.127054 209.616055 
L 126.409014 198.952477 
L 127.254896 141.891984 
L 128.382738 57.523829 
L 128.946659 33.618788 
L 129.22862 27.629147 
L 129.510581 27.946605 
L 130.074502 43.29437 
L 130.356462 51.413772 
L 130.638423 64.933822 
L 131.484305 128.521648 
L 132.330186 165.475185 
L 132.894108 176.585725 
L 133.176068 180.756232 
L 133.458029 182.963637 
L 133.739989 183.204711 
L 134.02195 185.11564 
L 134.303911 188.210962 
L 134.585871 189.487451 
L 135.149792 187.138525 
L 135.713714 184.383993 
L 135.995674 183.844178 
L 136.559595 185.137333 
L 136.841556 186.210606 
L 137.405477 189.060819 
L 137.687438 189.781616 
L 137.969398 191.738982 
L 138.533319 199.996921 
L 139.097241 207.736132 
L 139.379201 210.081548 
L 139.661162 211.281628 
L 139.943122 209.642843 
L 140.225083 202.601346 
L 141.070965 160.887801 
L 141.634886 123.112163 
L 142.198807 84.787141 
L 143.326649 27.887275 
L 143.60861 28.084464 
L 144.172531 36.611073 
L 144.454492 43.617891 
L 144.736452 58.596207 
L 145.864295 157.70168 
L 146.428216 180.704815 
L 146.710176 181.618848 
L 146.992137 180.856649 
L 147.556058 190.542627 
L 147.838019 186.403874 
L 148.119979 176.437752 
L 148.40194 170.978047 
L 148.6839 172.003142 
L 148.965861 173.539075 
L 149.529782 173.748063 
L 149.811743 173.745035 
L 150.093703 172.955689 
L 150.375664 172.564374 
L 150.657625 172.880778 
L 150.939585 174.064246 
L 151.503506 179.804222 
L 151.785467 182.472985 
L 152.067428 186.678313 
L 152.913309 210.415274 
L 153.47723 212.402545 
L 153.759191 214.751326 
L 154.041152 214.718998 
L 154.323112 210.650057 
L 154.605073 202.65193 
L 154.887033 190.108094 
L 155.450955 149.941534 
L 156.578797 62.750975 
L 157.142718 37.322907 
L 157.706639 24.651204 
L 157.9886 23.571783 
L 158.27056 26.722777 
L 158.552521 33.24145 
L 158.834482 45.311316 
L 159.398403 89.841811 
L 160.244285 153.414628 
L 160.526245 167.501243 
L 160.808206 174.744012 
L 161.372127 181.025851 
L 161.654087 182.52542 
L 161.936048 180.547526 
L 162.499969 174.350574 
L 162.78193 172.824437 
L 163.06389 170.453549 
L 163.909772 160.540732 
L 164.191733 159.210859 
L 164.473693 158.677196 
L 164.755654 158.953424 
L 165.037614 161.331857 
L 165.319575 166.585651 
L 166.447417 199.172116 
L 167.011339 207.521874 
L 167.85722 227.091036 
L 168.139181 227.001572 
L 168.703102 221.305371 
L 168.985063 212.477196 
L 169.548984 159.606585 
L 170.112905 113.056186 
L 170.958787 56.217316 
L 171.804669 18.505283 
L 172.086629 18.439611 
L 172.65055 26.124898 
L 172.932511 34.749307 
L 174.624274 157.079933 
L 174.906235 163.60444 
L 175.188196 165.409124 
L 175.470156 169.424104 
L 176.034077 179.92819 
L 176.316038 180.096292 
L 176.597999 179.903266 
L 176.879959 184.169345 
L 177.44388 197.230455 
L 177.725841 197.492843 
L 178.007801 197.296791 
L 178.289762 198.544307 
L 178.571723 197.991878 
L 178.853683 195.62733 
L 179.135644 195.447599 
L 179.417604 195.533976 
L 179.981526 188.169091 
L 180.545447 190.110118 
L 180.827407 187.368769 
L 181.109368 187.509553 
L 181.673289 201.444966 
L 181.95525 201.682021 
L 182.23721 202.174448 
L 182.519171 207.22648 
L 182.801131 208.796181 
L 183.083092 200.054046 
L 183.647013 166.916445 
L 184.210934 123.020627 
L 185.056816 58.464481 
L 185.620737 31.53933 
L 185.902698 23.649722 
L 186.184658 20.840121 
L 186.466619 22.796026 
L 186.74858 27.83682 
L 187.03054 36.134388 
L 187.594461 67.653439 
L 188.722304 149.834661 
L 189.850146 194.691272 
L 190.132107 195.52463 
L 190.696028 184.386408 
L 190.977988 184.573355 
L 191.259949 183.637888 
L 191.54191 180.424146 
L 191.82387 180.935277 
L 192.387791 191.130622 
L 192.669752 190.606907 
L 192.951713 188.612739 
L 193.233673 188.648361 
L 193.515634 189.280943 
L 193.797594 188.157614 
L 194.361515 182.009539 
L 194.643476 181.460423 
L 194.925437 183.728967 
L 195.489358 191.498848 
L 196.33524 217.698235 
L 196.6172 218.008621 
L 196.899161 214.57186 
L 197.181121 209.621358 
L 197.463082 198.564231 
L 199.436806 66.276065 
L 200.282688 41.066542 
L 200.564648 38.391176 
L 200.846609 38.220259 
L 201.12857 39.82651 
L 201.41053 43.622535 
L 201.692491 50.864438 
L 201.974451 63.718576 
L 203.666215 181.889239 
L 203.948175 189.52533 
L 204.512097 187.970674 
L 204.794057 190.957038 
L 205.076018 191.92346 
L 205.639939 183.674398 
L 205.921899 183.22337 
L 206.20386 183.022283 
L 206.767781 176.832034 
L 207.049742 175.52527 
L 207.331702 175.064974 
L 207.895624 173.497709 
L 208.177584 173.185519 
L 208.459545 173.928404 
L 208.741505 176.039797 
L 209.305427 182.94977 
L 210.433269 206.239764 
L 210.99719 208.258207 
L 211.279151 206.881434 
L 211.561111 200.26626 
L 212.125032 174.936497 
L 212.688954 132.75858 
L 213.252875 87.632509 
L 214.380717 31.240478 
L 214.662678 30.029638 
L 214.944638 32.935156 
L 215.508559 35.696612 
L 215.79052 43.60616 
L 216.636402 92.059343 
L 217.764244 161.909631 
L 218.046205 174.072321 
L 218.328165 180.666514 
L 218.610126 179.079573 
L 218.892086 175.074644 
L 219.174047 175.933248 
L 219.456008 179.525821 
L 219.737968 180.140878 
L 220.019929 178.430735 
L 220.301889 178.233532 
L 221.147771 181.094842 
L 221.429732 181.076648 
L 221.711692 178.799523 
L 221.993653 178.490042 
L 222.275613 184.2128 
L 222.557574 192.204544 
L 222.839535 196.403406 
L 223.121495 198.152732 
L 224.249338 213.348682 
L 224.813259 224.975585 
L 225.095219 226.71925 
L 225.37718 224.378803 
L 225.659141 218.707762 
L 226.223062 197.050865 
L 226.786983 161.290124 
L 228.478746 39.709642 
L 229.042668 27.990826 
L 229.324628 23.267605 
L 229.606589 23.343718 
L 229.888549 28.637932 
L 230.17051 36.535547 
L 230.45247 47.696442 
L 231.016392 88.122638 
L 231.580313 132.206908 
L 232.144234 160.823634 
L 232.426195 171.09805 
L 232.708155 175.912259 
L 232.990116 177.600897 
L 233.554037 182.430837 
L 233.835998 181.605914 
L 234.117958 179.741321 
L 234.399919 179.367791 
L 234.681879 178.784592 
L 235.2458 175.698113 
L 235.527761 175.836629 
L 235.809722 175.671847 
L 236.091682 176.116616 
L 236.655603 182.483534 
L 236.937564 182.636511 
L 237.219525 180.646418 
L 237.501485 180.812111 
L 237.783446 184.940426 
L 238.347367 201.152675 
L 238.911288 217.578115 
L 239.193249 220.461613 
L 239.475209 221.433053 
L 239.75717 220.674659 
L 240.03913 215.865315 
L 240.603052 193.646058 
L 241.166973 151.058445 
L 241.730894 100.944189 
L 242.576776 56.792869 
L 242.858736 44.910965 
L 243.140697 38.934428 
L 243.704618 36.965246 
L 243.986579 32.74431 
L 244.268539 30.686339 
L 244.5505 38.560985 
L 245.396382 96.758389 
L 246.242263 149.25523 
L 247.088145 180.375385 
L 247.370106 185.494176 
L 247.652066 186.664897 
L 248.215987 186.685336 
L 248.497948 186.318486 
L 248.779909 184.451979 
L 249.34383 178.052865 
L 249.62579 176.528734 
L 250.471672 174.894062 
L 251.035593 172.679332 
L 251.317554 174.45673 
L 253.291278 211.299691 
L 253.573239 215.318259 
L 253.855199 217.575255 
L 254.13716 218.350432 
L 254.41912 218.493298 
L 254.701081 214.912453 
L 254.983041 202.610195 
L 256.110884 116.495777 
L 256.674805 70.075437 
L 257.238726 43.515594 
L 258.084608 24.913693 
L 258.366569 22.087415 
L 258.648529 25.750148 
L 259.21245 46.369264 
L 259.776371 79.521782 
L 260.622253 148.550275 
L 261.186174 172.699023 
L 261.468135 182.568692 
L 261.750096 185.847424 
L 262.314017 174.62835 
L 262.595977 175.441899 
L 262.877938 178.13227 
L 263.159898 176.444475 
L 263.441859 173.055216 
L 263.72382 173.358745 
L 264.851662 185.928667 
L 265.133623 187.431267 
L 265.415583 187.747459 
L 265.697544 188.631135 
L 265.979504 191.768436 
L 268.235189 228.965051 
L 268.51715 229.733697 
L 268.79911 228.377591 
L 269.081071 220.324251 
L 269.644992 176.826276 
L 270.772834 80.818684 
L 271.336755 47.890999 
L 272.182637 24.540035 
L 272.746558 18.489236 
L 273.028519 19.18015 
L 273.31048 27.294338 
L 274.438322 94.065478 
L 275.284204 153.393575 
L 275.566164 168.57979 
L 275.848125 175.323993 
L 276.130085 173.77919 
L 276.412046 174.185754 
L 276.694007 181.054484 
L 276.975967 184.795482 
L 277.539888 174.512528 
L 278.10381 175.243605 
L 278.667731 169.497152 
L 279.231652 168.321334 
L 279.513612 168.970736 
L 280.077534 175.958361 
L 280.359494 180.76871 
L 281.487337 217.724618 
L 282.333218 234.872089 
L 282.615179 234.723694 
L 282.897139 228.810413 
L 283.461061 207.822033 
L 283.743021 194.312762 
L 285.716745 54.920934 
L 286.562627 29.318034 
L 286.844588 17.074479 
L 287.126548 12.096 
L 287.408509 16.224483 
L 287.97243 37.60885 
L 288.818312 80.160491 
L 289.664194 152.25332 
L 290.792036 196.005369 
L 291.073996 197.479206 
L 291.355957 195.079047 
L 291.637918 193.80665 
L 292.201839 195.537333 
L 292.76576 191.511492 
L 293.047721 194.183593 
L 293.329681 200.984754 
L 293.611642 204.835995 
L 294.175563 199.883427 
L 294.457524 202.232491 
L 294.739484 205.895076 
L 295.303405 205.956837 
L 295.585366 212.812202 
L 295.867326 223.85451 
L 296.149287 229.890337 
L 296.431248 229.887282 
L 296.713208 232.346142 
L 296.995169 240.137527 
L 297.277129 244.291135 
L 297.55909 237.62938 
L 298.123011 208.640712 
L 298.404972 188.668648 
L 299.532814 67.212012 
L 300.096735 46.657275 
L 300.942617 20.103116 
L 301.224578 16.629523 
L 301.788499 14.014527 
L 302.070459 16.394217 
L 302.35242 26.825274 
L 303.198302 88.212561 
L 304.044183 150.542902 
L 304.890065 174.477302 
L 305.453986 185.597701 
L 306.017908 190.088129 
L 306.299868 192.305995 
L 306.863789 202.377372 
L 307.14575 201.640797 
L 307.42771 195.686342 
L 307.709671 192.595379 
L 308.273592 197.009788 
L 308.555553 195.840498 
L 308.837513 196.291674 
L 309.965356 216.231269 
L 310.529277 226.090678 
L 311.375159 233.574441 
L 311.657119 228.064074 
L 311.93908 214.139959 
L 312.503001 171.900153 
L 313.912804 50.706439 
L 314.476725 31.990301 
L 314.758686 26.051016 
L 315.040646 25.937299 
L 315.322607 29.067939 
L 315.886528 33.097751 
L 316.450449 48.873347 
L 317.01437 66.778682 
L 318.706134 160.832848 
L 319.552016 177.562783 
L 319.833976 178.8213 
L 320.115937 179.548979 
L 320.397897 184.3233 
L 320.961819 196.938919 
L 321.243779 197.950543 
L 321.52574 197.647572 
L 321.8077 200.028938 
L 322.089661 204.458352 
L 322.371622 206.230189 
L 322.653582 205.018127 
L 322.935543 207.108773 
L 323.499464 220.280357 
L 323.781424 222.577559 
L 324.063385 227.410706 
L 324.627306 243.048556 
L 324.909267 242.621972 
L 325.191227 239.428927 
L 325.473188 234.971628 
L 325.755149 225.141162 
L 326.31907 189.654275 
L 326.882991 136.533996 
L 327.446912 88.40391 
L 328.010833 57.961736 
L 328.574754 27.423251 
L 329.138676 16.913565 
L 329.420636 13.75707 
L 329.702597 15.061976 
L 329.984557 19.823981 
L 330.266518 28.048376 
L 331.958281 120.180395 
L 332.522203 154.323863 
L 333.086124 175.786651 
L 333.650045 187.041215 
L 334.213966 194.372567 
L 334.495927 195.081156 
L 334.777887 195.348335 
L 335.90573 200.954781 
L 336.469651 207.875365 
L 337.033572 215.496229 
L 337.315533 217.845946 
L 337.597493 221.341245 
L 338.443375 240.793201 
L 338.725336 244.539258 
L 339.007296 246.204129 
L 339.289257 241.47437 
L 339.853178 209.772776 
L 340.69906 145.423527 
L 341.544941 75.874877 
L 342.108863 48.420012 
L 342.954744 19.659899 
L 343.236705 17.839941 
L 343.518666 17.555087 
L 343.800626 17.747459 
L 344.082587 23.465676 
L 345.49239 92.950148 
L 346.902193 175.268333 
L 347.466114 192.346641 
L 347.748074 194.515218 
L 348.030035 193.354888 
L 348.311995 193.118892 
L 348.593956 193.667468 
L 348.875917 193.050843 
L 349.157877 192.725927 
L 349.439838 195.140446 
L 350.003759 201.658481 
L 350.56768 205.834147 
L 350.849641 205.091634 
L 351.131601 202.408472 
L 351.413562 203.573456 
L 351.977483 213.119622 
L 352.259444 214.959848 
L 352.541404 222.675714 
L 352.823365 236.022857 
L 353.105325 244.087365 
L 353.387286 242.220258 
L 353.669247 235.108833 
L 353.951207 222.716983 
L 354.515128 171.899647 
L 355.36101 103.060429 
L 355.924931 69.356608 
L 356.488852 46.330261 
L 356.770813 39.270392 
L 357.616695 27.55916 
L 357.898655 28.649861 
L 358.744537 43.298496 
L 359.308458 75.963451 
L 360.436301 143.148166 
L 361.282182 171.013184 
L 362.691985 200.322837 
L 362.973946 201.497632 
L 363.255907 201.328983 
L 363.819828 202.720549 
L 364.101788 200.401544 
L 364.383749 196.764853 
L 364.665709 197.168703 
L 365.793552 224.360126 
L 366.357473 241.510429 
L 366.639434 246.45986 
L 366.921394 248.601169 
L 367.203355 249.287221 
L 367.485315 244.656957 
L 367.767276 229.657609 
L 368.613158 153.230736 
L 369.177079 95.378786 
L 369.741 64.265947 
L 370.586882 34.649843 
L 371.150803 23.225254 
L 371.432764 22.656084 
L 371.996685 24.988353 
L 372.278645 31.235779 
L 374.816291 148.289822 
L 375.380212 166.821748 
L 375.944133 185.091062 
L 376.508054 191.499074 
L 377.071975 204.840042 
L 377.353936 204.988278 
L 377.635896 202.547288 
L 377.917857 202.504752 
L 378.763739 208.485117 
L 379.045699 215.290805 
L 379.609621 234.057229 
L 380.455502 249.466763 
L 380.737463 251.70185 
L 381.019423 247.31283 
L 381.583345 221.210141 
L 382.147266 184.603047 
L 382.993148 111.820284 
L 384.12099 55.329005 
L 384.684911 41.759184 
L 384.966872 37.558762 
L 385.248832 37.272046 
L 385.530793 37.628462 
L 385.812753 37.720731 
L 386.094714 41.71284 
L 386.658635 54.385322 
L 386.940596 59.218415 
L 387.222556 69.476608 
L 389.760202 197.380544 
L 390.324123 210.020599 
L 390.606083 213.219315 
L 390.888044 215.049421 
L 391.451965 220.960505 
L 392.015886 223.857368 
L 392.297847 222.603337 
L 392.861768 211.370682 
L 393.143729 211.093726 
L 393.425689 213.327445 
L 393.70765 214.130454 
L 393.98961 217.165569 
L 394.553532 237.117216 
L 394.835492 241.232087 
L 395.117453 237.754982 
L 395.399413 230.217893 
L 395.681374 218.435197 
L 395.963335 198.002347 
L 397.091177 88.601273 
L 397.655098 57.424771 
L 397.937059 48.866497 
L 398.50098 41.33844 
L 399.064901 32.261197 
L 399.346862 33.455564 
L 400.192743 42.446015 
L 400.756665 66.953124 
L 401.602546 109.509266 
L 403.29431 174.079344 
L 403.57627 180.392797 
L 404.704113 195.409924 
L 404.986073 196.962468 
L 405.268034 199.5973 
L 405.831955 206.796215 
L 406.113916 209.117451 
L 407.523719 233.409361 
L 408.08764 243.436977 
L 408.3696 246.37044 
L 408.651561 247.111954 
L 408.933522 242.982803 
L 409.215482 232.870832 
L 409.497443 214.775027 
L 410.907246 77.832122 
L 411.189206 64.55283 
L 411.753127 55.849845 
L 412.317049 41.827313 
L 412.599009 40.770944 
L 413.16293 42.875534 
L 413.444891 46.30635 
L 413.726851 53.251955 
L 414.290773 77.048663 
L 414.854694 100.78073 
L 415.136654 108.185371 
L 415.982536 137.793396 
L 416.264497 140.306665 
L 416.546457 144.252738 
L 417.95626 177.269911 
L 418.238221 176.617224 
L 418.520181 176.272416 
L 418.802142 181.237904 
L 419.366063 197.073934 
L 419.929984 204.054267 
L 420.493906 213.744954 
L 420.775866 215.269344 
L 421.057827 218.241182 
L 422.46763 253.183378 
L 422.74959 250.194187 
L 423.031551 238.413143 
L 423.595472 199.518233 
L 424.723314 96.080879 
L 425.287236 61.611681 
L 425.851157 39.144099 
L 426.133117 33.401106 
L 426.978999 26.753914 
L 427.26096 29.007098 
L 428.106841 47.169402 
L 428.670763 79.859259 
L 429.234684 109.934626 
L 430.644487 165.724303 
L 431.208408 179.24102 
L 432.05429 194.658 
L 432.33625 195.826828 
L 432.618211 195.718369 
L 432.900171 198.522871 
L 433.182132 203.150665 
L 433.746053 209.040737 
L 434.591935 237.901983 
L 434.873895 237.859896 
L 435.155856 242.646072 
L 435.437817 251.423623 
L 435.719777 254.016 
L 436.283698 245.955802 
L 436.565659 243.679033 
L 436.84762 235.100147 
L 437.411541 197.70148 
L 439.103304 80.101254 
L 439.949186 44.053438 
L 440.231147 38.208634 
L 440.513107 36.9391 
L 440.795068 37.131801 
L 441.077028 36.734481 
L 441.358989 39.209682 
L 441.64095 49.205059 
L 442.204871 76.969627 
L 443.332713 114.7891 
L 444.178595 145.08937 
L 445.588398 179.714226 
L 445.870358 180.119205 
L 446.152319 180.978834 
L 446.434279 183.996424 
L 447.280161 200.43929 
L 447.844082 213.20798 
L 449.535846 236.928079 
L 449.817806 242.135187 
L 450.099767 245.113574 
L 450.381728 240.844376 
L 450.945649 219.510513 
L 451.227609 204.797255 
L 451.791531 147.232534 
L 452.355452 99.402853 
L 453.201334 57.331891 
L 454.047215 35.819213 
L 454.329176 32.18156 
L 454.611136 33.016764 
L 454.893097 36.867699 
L 455.175058 43.347992 
L 455.738979 65.911959 
L 456.3029 93.971313 
L 457.712703 138.578903 
L 458.276624 152.411994 
L 459.122506 187.64573 
L 460.250348 207.034504 
L 460.532309 205.911911 
L 460.814269 202.517997 
L 461.09623 205.859648 
L 461.660151 220.162225 
L 461.942112 221.759516 
L 462.224072 225.889058 
L 462.506033 232.474294 
L 462.787993 236.409871 
L 463.069954 238.344272 
L 463.633875 246.757712 
L 463.915836 245.954297 
L 464.197796 237.693087 
L 464.761718 205.3556 
L 465.88956 114.470508 
L 467.017402 66.039719 
L 467.581323 51.658716 
L 468.145245 41.015622 
L 468.427205 39.073 
L 468.709166 40.58477 
L 468.991126 44.862869 
L 469.273087 52.423172 
L 470.400929 93.792913 
L 470.96485 115.311399 
L 471.810732 147.651514 
L 472.092693 157.056085 
L 472.938575 171.665859 
L 473.220535 179.455616 
L 473.502496 181.443683 
L 473.784456 178.951447 
L 474.066417 178.33727 
L 474.630338 183.365397 
L 474.912299 187.516605 
L 475.47622 204.44354 
L 476.604062 237.53728 
L 477.449944 250.438337 
L 477.731905 250.188693 
L 478.013865 243.011184 
L 478.295826 230.133836 
L 478.577786 212.059076 
L 479.987589 94.058666 
L 480.833471 53.276309 
L 481.115432 48.104024 
L 481.397392 48.576817 
L 481.679353 49.676948 
L 482.243274 45.901658 
L 483.089156 51.343442 
L 483.371116 56.944585 
L 484.498959 105.506474 
L 485.626801 141.104258 
L 486.190722 153.205554 
L 486.754643 161.316636 
L 487.600525 183.876863 
L 489.010328 206.267806 
L 489.574249 225.49891 
L 490.13817 238.079124 
L 490.420131 245.82144 
L 490.702091 249.028339 
L 491.266013 244.784865 
L 491.547973 244.951387 
L 491.829934 242.171826 
L 492.111894 232.325411 
L 492.675816 193.12764 
L 493.521697 116.281275 
L 494.085619 79.460629 
L 494.367579 70.344428 
L 494.64954 68.049301 
L 494.9315 64.398133 
L 495.495421 51.94669 
L 495.777382 52.681196 
L 496.059343 52.287552 
L 496.341303 48.535199 
L 496.623264 48.456779 
L 497.187185 65.016571 
L 497.751106 82.481885 
L 499.160909 134.021885 
L 500.006791 154.393739 
L 500.288751 157.790451 
L 500.570712 159.672223 
L 501.134633 161.578532 
L 501.416594 163.935591 
L 501.980515 174.160662 
L 502.544436 193.798452 
L 503.108357 214.757768 
L 503.954239 226.590211 
L 504.51816 238.164897 
L 505.364042 248.724802 
L 505.646003 248.406818 
L 505.927963 242.017047 
L 506.209924 227.047447 
L 507.619727 105.117985 
L 508.183648 78.193255 
L 508.747569 55.260323 
L 509.02953 48.779207 
L 509.593451 44.866645 
L 509.875411 45.725417 
L 510.439333 59.1341 
L 511.003254 77.29332 
L 511.285214 86.662998 
L 511.849135 92.976293 
L 512.413057 109.974412 
L 512.976978 117.650925 
L 513.82286 150.175798 
L 514.10482 154.700491 
L 515.514623 186.892226 
L 515.796584 189.208188 
L 516.078544 192.785244 
L 516.642465 208.358186 
L 517.206387 215.69724 
L 517.770308 229.236361 
L 518.052268 229.680108 
L 518.334229 232.467823 
L 518.89815 245.95316 
L 519.180111 241.824955 
L 520.025992 211.829825 
L 521.153835 128.979329 
L 521.435795 118.046383 
L 522.281677 70.466537 
L 523.127559 42.140583 
L 523.409519 36.506847 
L 523.69148 39.754212 
L 524.255401 56.933783 
L 524.537362 61.028516 
L 524.819322 68.40163 
L 525.665204 102.803625 
L 526.511086 128.725021 
L 526.793047 131.962384 
L 527.075007 137.389631 
L 527.638928 149.851594 
L 527.920889 151.051165 
L 528.202849 153.903403 
L 529.048731 172.65428 
L 529.330692 175.24549 
L 530.176574 185.41052 
L 530.458534 185.481942 
L 530.740495 189.173507 
L 531.586376 212.58359 
L 531.868337 218.545133 
L 532.432258 234.297405 
L 533.27814 246.175572 
L 533.560101 240.041896 
L 534.687943 168.900938 
L 535.251864 133.036217 
L 535.815785 104.356712 
L 536.379706 77.388404 
L 537.225588 61.391285 
L 537.789509 57.006185 
L 538.07147 53.168618 
L 538.353431 50.98343 
L 538.635391 54.316282 
L 538.917352 63.493979 
L 539.763233 106.154708 
L 540.327155 133.292866 
L 540.609115 140.039293 
L 540.891076 143.637178 
L 541.454997 156.12119 
L 541.736958 157.930918 
L 542.018918 155.793643 
L 542.300879 157.274607 
L 542.8648 169.620964 
L 544.274603 179.027067 
L 544.838524 187.757398 
L 545.402445 200.243285 
L 546.248327 224.602325 
L 547.094209 247.620773 
L 547.376169 247.471918 
L 547.65813 242.259932 
L 547.94009 231.665882 
L 548.504012 188.480568 
L 549.349893 125.540598 
L 549.913815 93.446791 
L 550.759696 62.7285 
L 551.041657 58.48144 
L 551.605578 56.000735 
L 551.887539 57.469757 
L 552.73342 75.407975 
L 553.015381 83.901284 
L 553.861263 118.919918 
L 554.707145 148.88709 
L 555.271066 157.768103 
L 555.553026 160.493494 
L 555.834987 160.966803 
L 556.680869 155.025067 
L 556.962829 155.17161 
L 557.24479 157.358342 
L 557.52675 161.725233 
L 558.936553 190.430754 
L 559.218514 194.484096 
L 560.910277 234.074631 
L 561.192238 239.100165 
L 561.474199 238.748224 
L 561.756159 233.884226 
L 562.03812 223.397921 
L 563.447923 135.23195 
L 564.857726 72.329166 
L 565.421647 65.1934 
L 565.703607 60.279421 
L 565.985568 58.784661 
L 566.267529 61.429229 
L 566.549489 65.77099 
L 567.11341 81.49816 
L 568.523213 118.913278 
L 569.369095 137.922848 
L 569.651056 137.520364 
L 569.933016 141.468598 
L 570.496937 160.101115 
L 571.060859 171.293962 
L 571.342819 178.105355 
L 571.90674 184.942109 
L 572.470661 191.603431 
L 572.752622 193.092331 
L 573.034583 195.675873 
L 575.008307 227.56909 
L 575.290267 235.509067 
L 575.572228 237.755451 
L 575.854189 230.257465 
L 576.70007 180.665485 
L 577.545952 130.521682 
L 578.673794 90.427721 
L 579.237716 82.140643 
L 580.083597 57.181058 
L 580.365558 57.185964 
L 580.647518 59.733564 
L 580.929479 66.260673 
L 581.4934 84.697173 
L 582.339282 102.915795 
L 583.185164 125.249144 
L 583.749085 132.939321 
L 584.313006 141.22418 
L 585.158888 157.303382 
L 586.850651 177.940774 
L 587.132612 180.477844 
L 588.260454 198.701304 
L 588.824375 212.743585 
L 589.670257 240.191447 
L 589.952218 240.906934 
L 590.234178 238.33584 
L 590.516139 232.894057 
L 590.7981 217.90047 
L 591.362021 171.76602 
L 592.489863 107.683364 
L 593.335745 78.788887 
L 593.899666 71.160816 
L 594.181627 67.077712 
L 594.463587 65.087883 
L 594.745548 66.290154 
L 595.027508 68.633018 
L 595.309469 73.275058 
L 595.87339 90.312969 
L 596.719272 107.770043 
L 598.129075 143.313725 
L 598.411035 150.128662 
L 598.692996 154.137336 
L 598.974957 155.488033 
L 599.256917 157.932145 
L 599.820838 166.760161 
L 600.38476 169.705671 
L 600.948681 171.232578 
L 601.512602 175.63622 
L 601.794562 176.462335 
L 602.076523 180.090751 
L 602.640444 202.214701 
L 602.922405 207.186851 
L 603.204365 208.538171 
L 604.614168 227.698823 
L 604.896129 227.594436 
L 605.178089 220.282887 
L 605.742011 197.186678 
L 606.869853 125.202035 
L 607.997695 86.590022 
L 608.843577 72.487196 
L 609.125538 71.959611 
L 609.407498 72.078313 
L 609.689459 73.610168 
L 610.25338 84.632001 
L 610.535341 91.053441 
L 611.099262 113.837238 
L 611.381222 124.612657 
L 612.509065 146.262171 
L 612.791025 147.229209 
L 613.072986 148.864623 
L 613.636907 156.230385 
L 614.482789 161.208065 
L 614.764749 162.675971 
L 615.04671 164.879326 
L 615.892592 174.61158 
L 616.174552 175.819877 
L 616.738474 173.785407 
L 617.020434 174.22319 
L 617.302395 176.369782 
L 617.866316 183.196781 
L 618.994158 197.593717 
L 619.558079 207.504249 
L 619.84004 208.419052 
L 620.122001 204.254237 
L 620.685922 182.076567 
L 621.249843 150.822526 
L 621.813764 116.510066 
L 622.659646 88.278134 
L 622.941606 82.135593 
L 623.223567 82.320181 
L 623.505528 84.416734 
L 624.069449 80.082388 
L 624.351409 82.604814 
L 624.63337 88.184765 
L 624.915331 90.121027 
L 625.197291 90.443565 
L 625.479252 94.697544 
L 626.043173 108.881841 
L 626.325133 114.243377 
L 626.607094 122.59699 
L 627.171015 144.940994 
L 627.452976 151.571349 
L 628.298858 162.552145 
L 628.580818 162.825267 
L 628.862779 157.595979 
L 629.144739 154.739888 
L 629.4267 156.667522 
L 629.70866 159.685755 
L 630.272582 156.038502 
L 630.554542 155.47218 
L 630.836503 155.559709 
L 631.118463 154.677328 
L 631.964345 173.309253 
L 632.246306 173.677397 
L 632.528266 183.250737 
L 632.810227 188.788373 
L 633.092188 198.985899 
L 633.092188 198.985899 
" clip-path="url(#p3ab358520f)" style="fill: none; stroke: #1f77b4; stroke-width: 1.5; stroke-linecap: square"/>
   </g>
   <g id="patch_3">
    <path d="M 47.192188 266.112 
L 47.192188 0 
" style="fill: none; stroke: #808080; stroke-width: 0.8; stroke-linejoin: miter; stroke-linecap: square"/>
   </g>
   <g id="patch_4">
    <path d="M 660.992188 266.112 
L 660.992188 0 
" style="fill: none; stroke: #000000; stroke-width: 0.8; stroke-linejoin: miter; stroke-linecap: square"/>
   </g>
   <g id="patch_5">
    <path d="M 47.192188 266.112 
L 660.992188 266.112 
" style="fill: none; stroke: #808080; stroke-width: 0.8; stroke-linejoin: miter; stroke-linecap: square"/>
   </g>
   <g id="patch_6">
    <path d="M 47.192188 0 
L 660.992188 0 
" style="fill: none; stroke: #000000; stroke-width: 0.8; stroke-linejoin: miter; stroke-linecap: square"/>
   </g>
  </g>
 </g>
 <defs>
  <clipPath id="p3ab358520f">
   <rect x="47.192188" y="0" width="613.8" height="266.112"/>
  </clipPath>
 </defs>
</svg>
