<?xml version="1.0" encoding="utf-8" standalone="no"?>
<!DOCTYPE svg PUBLIC "-//W3C//DTD SVG 1.1//EN"
  "http://www.w3.org/Graphics/SVG/1.1/DTD/svg11.dtd">
<svg xmlns:xlink="http://www.w3.org/1999/xlink" width="660.992188pt" height="282.790125pt" viewBox="0 0 660.992188 282.790125" xmlns="http://www.w3.org/2000/svg" version="1.1">
 <metadata>
  <rdf:RDF xmlns:dc="http://purl.org/dc/elements/1.1/" xmlns:cc="http://creativecommons.org/ns#" xmlns:rdf="http://www.w3.org/1999/02/22-rdf-syntax-ns#">
   <cc:Work>
    <dc:type rdf:resource="http://purl.org/dc/dcmitype/StillImage"/>
    <dc:date>2023-03-06T21:26:18.592338</dc:date>
    <dc:format>image/svg+xml</dc:format>
    <dc:creator>
     <cc:Agent>
      <dc:title>Matplotlib v3.6.3, https://matplotlib.org/</dc:title>
     </cc:Agent>
    </dc:creator>
   </cc:Work>
  </rdf:RDF>
 </metadata>
 <defs>
  <style type="text/css">*{stroke-linejoin: round; stroke-linecap: butt}</style>
 </defs>
 <g id="figure_1">
  <g id="patch_1">
   <path d="M -0 282.790125 
L 660.992188 282.790125 
L 660.992188 0 
L -0 0 
L -0 282.790125 
z
" style="fill: none"/>
  </g>
  <g id="axes_1">
   <g id="patch_2">
    <path d="M 47.192188 266.112 
L 660.992188 266.112 
L 660.992188 0 
L 47.192188 0 
L 47.192188 266.112 
z
" style="fill: none"/>
   </g>
   <g id="matplotlib.axis_1">
    <g id="xtick_1">
     <g id="line2d_1">
      <defs>
       <path id="mdc78048b18" d="M 0 0 
L 0 3.5 
" style="stroke: #808080; stroke-width: 0.8"/>
      </defs>
      <g>
       <use xlink:href="#mdc78048b18" x="75.092188" y="266.112" style="fill: #808080; stroke: #808080; stroke-width: 0.8"/>
      </g>
     </g>
     <g id="text_1">
      <!-- 0 -->
      <g style="fill: #808080" transform="translate(71.910938 280.710438) scale(0.1 -0.1)">
       <defs>
        <path id="DejaVuSans-30" d="M 2034 4250 
Q 1547 4250 1301 3770 
Q 1056 3291 1056 2328 
Q 1056 1369 1301 889 
Q 1547 409 2034 409 
Q 2525 409 2770 889 
Q 3016 1369 3016 2328 
Q 3016 3291 2770 3770 
Q 2525 4250 2034 4250 
z
M 2034 4750 
Q 2819 4750 3233 4129 
Q 3647 3509 3647 2328 
Q 3647 1150 3233 529 
Q 2819 -91 2034 -91 
Q 1250 -91 836 529 
Q 422 1150 422 2328 
Q 422 3509 836 4129 
Q 1250 4750 2034 4750 
z
" transform="scale(0.015625)"/>
       </defs>
       <use xlink:href="#DejaVuSans-30"/>
      </g>
     </g>
    </g>
    <g id="xtick_2">
     <g id="line2d_2">
      <g>
       <use xlink:href="#mdc78048b18" x="144.842188" y="266.112" style="fill: #808080; stroke: #808080; stroke-width: 0.8"/>
      </g>
     </g>
     <g id="text_2">
      <!-- 500 -->
      <g style="fill: #808080" transform="translate(135.298438 280.710438) scale(0.1 -0.1)">
       <defs>
        <path id="DejaVuSans-35" d="M 691 4666 
L 3169 4666 
L 3169 4134 
L 1269 4134 
L 1269 2991 
Q 1406 3038 1543 3061 
Q 1681 3084 1819 3084 
Q 2600 3084 3056 2656 
Q 3513 2228 3513 1497 
Q 3513 744 3044 326 
Q 2575 -91 1722 -91 
Q 1428 -91 1123 -41 
Q 819 9 494 109 
L 494 744 
Q 775 591 1075 516 
Q 1375 441 1709 441 
Q 2250 441 2565 725 
Q 2881 1009 2881 1497 
Q 2881 1984 2565 2268 
Q 2250 2553 1709 2553 
Q 1456 2553 1204 2497 
Q 953 2441 691 2322 
L 691 4666 
z
" transform="scale(0.015625)"/>
       </defs>
       <use xlink:href="#DejaVuSans-35"/>
       <use xlink:href="#DejaVuSans-30" x="63.623047"/>
       <use xlink:href="#DejaVuSans-30" x="127.246094"/>
      </g>
     </g>
    </g>
    <g id="xtick_3">
     <g id="line2d_3">
      <g>
       <use xlink:href="#mdc78048b18" x="214.592188" y="266.112" style="fill: #808080; stroke: #808080; stroke-width: 0.8"/>
      </g>
     </g>
     <g id="text_3">
      <!-- 1000 -->
      <g style="fill: #808080" transform="translate(201.867188 280.710438) scale(0.1 -0.1)">
       <defs>
        <path id="DejaVuSans-31" d="M 794 531 
L 1825 531 
L 1825 4091 
L 703 3866 
L 703 4441 
L 1819 4666 
L 2450 4666 
L 2450 531 
L 3481 531 
L 3481 0 
L 794 0 
L 794 531 
z
" transform="scale(0.015625)"/>
       </defs>
       <use xlink:href="#DejaVuSans-31"/>
       <use xlink:href="#DejaVuSans-30" x="63.623047"/>
       <use xlink:href="#DejaVuSans-30" x="127.246094"/>
       <use xlink:href="#DejaVuSans-30" x="190.869141"/>
      </g>
     </g>
    </g>
    <g id="xtick_4">
     <g id="line2d_4">
      <g>
       <use xlink:href="#mdc78048b18" x="284.342188" y="266.112" style="fill: #808080; stroke: #808080; stroke-width: 0.8"/>
      </g>
     </g>
     <g id="text_4">
      <!-- 1500 -->
      <g style="fill: #808080" transform="translate(271.617188 280.710438) scale(0.1 -0.1)">
       <use xlink:href="#DejaVuSans-31"/>
       <use xlink:href="#DejaVuSans-35" x="63.623047"/>
       <use xlink:href="#DejaVuSans-30" x="127.246094"/>
       <use xlink:href="#DejaVuSans-30" x="190.869141"/>
      </g>
     </g>
    </g>
    <g id="xtick_5">
     <g id="line2d_5">
      <g>
       <use xlink:href="#mdc78048b18" x="354.092188" y="266.112" style="fill: #808080; stroke: #808080; stroke-width: 0.8"/>
      </g>
     </g>
     <g id="text_5">
      <!-- 2000 -->
      <g style="fill: #808080" transform="translate(341.367188 280.710438) scale(0.1 -0.1)">
       <defs>
        <path id="DejaVuSans-32" d="M 1228 531 
L 3431 531 
L 3431 0 
L 469 0 
L 469 531 
Q 828 903 1448 1529 
Q 2069 2156 2228 2338 
Q 2531 2678 2651 2914 
Q 2772 3150 2772 3378 
Q 2772 3750 2511 3984 
Q 2250 4219 1831 4219 
Q 1534 4219 1204 4116 
Q 875 4013 500 3803 
L 500 4441 
Q 881 4594 1212 4672 
Q 1544 4750 1819 4750 
Q 2544 4750 2975 4387 
Q 3406 4025 3406 3419 
Q 3406 3131 3298 2873 
Q 3191 2616 2906 2266 
Q 2828 2175 2409 1742 
Q 1991 1309 1228 531 
z
" transform="scale(0.015625)"/>
       </defs>
       <use xlink:href="#DejaVuSans-32"/>
       <use xlink:href="#DejaVuSans-30" x="63.623047"/>
       <use xlink:href="#DejaVuSans-30" x="127.246094"/>
       <use xlink:href="#DejaVuSans-30" x="190.869141"/>
      </g>
     </g>
    </g>
    <g id="xtick_6">
     <g id="line2d_6">
      <g>
       <use xlink:href="#mdc78048b18" x="423.842188" y="266.112" style="fill: #808080; stroke: #808080; stroke-width: 0.8"/>
      </g>
     </g>
     <g id="text_6">
      <!-- 2500 -->
      <g style="fill: #808080" transform="translate(411.117188 280.710438) scale(0.1 -0.1)">
       <use xlink:href="#DejaVuSans-32"/>
       <use xlink:href="#DejaVuSans-35" x="63.623047"/>
       <use xlink:href="#DejaVuSans-30" x="127.246094"/>
       <use xlink:href="#DejaVuSans-30" x="190.869141"/>
      </g>
     </g>
    </g>
    <g id="xtick_7">
     <g id="line2d_7">
      <g>
       <use xlink:href="#mdc78048b18" x="493.592188" y="266.112" style="fill: #808080; stroke: #808080; stroke-width: 0.8"/>
      </g>
     </g>
     <g id="text_7">
      <!-- 3000 -->
      <g style="fill: #808080" transform="translate(480.867188 280.710438) scale(0.1 -0.1)">
       <defs>
        <path id="DejaVuSans-33" d="M 2597 2516 
Q 3050 2419 3304 2112 
Q 3559 1806 3559 1356 
Q 3559 666 3084 287 
Q 2609 -91 1734 -91 
Q 1441 -91 1130 -33 
Q 819 25 488 141 
L 488 750 
Q 750 597 1062 519 
Q 1375 441 1716 441 
Q 2309 441 2620 675 
Q 2931 909 2931 1356 
Q 2931 1769 2642 2001 
Q 2353 2234 1838 2234 
L 1294 2234 
L 1294 2753 
L 1863 2753 
Q 2328 2753 2575 2939 
Q 2822 3125 2822 3475 
Q 2822 3834 2567 4026 
Q 2313 4219 1838 4219 
Q 1578 4219 1281 4162 
Q 984 4106 628 3988 
L 628 4550 
Q 988 4650 1302 4700 
Q 1616 4750 1894 4750 
Q 2613 4750 3031 4423 
Q 3450 4097 3450 3541 
Q 3450 3153 3228 2886 
Q 3006 2619 2597 2516 
z
" transform="scale(0.015625)"/>
       </defs>
       <use xlink:href="#DejaVuSans-33"/>
       <use xlink:href="#DejaVuSans-30" x="63.623047"/>
       <use xlink:href="#DejaVuSans-30" x="127.246094"/>
       <use xlink:href="#DejaVuSans-30" x="190.869141"/>
      </g>
     </g>
    </g>
    <g id="xtick_8">
     <g id="line2d_8">
      <g>
       <use xlink:href="#mdc78048b18" x="563.342188" y="266.112" style="fill: #808080; stroke: #808080; stroke-width: 0.8"/>
      </g>
     </g>
     <g id="text_8">
      <!-- 3500 -->
      <g style="fill: #808080" transform="translate(550.617188 280.710438) scale(0.1 -0.1)">
       <use xlink:href="#DejaVuSans-33"/>
       <use xlink:href="#DejaVuSans-35" x="63.623047"/>
       <use xlink:href="#DejaVuSans-30" x="127.246094"/>
       <use xlink:href="#DejaVuSans-30" x="190.869141"/>
      </g>
     </g>
    </g>
    <g id="xtick_9">
     <g id="line2d_9">
      <g>
       <use xlink:href="#mdc78048b18" x="633.092188" y="266.112" style="fill: #808080; stroke: #808080; stroke-width: 0.8"/>
      </g>
     </g>
     <g id="text_9">
      <!-- 4000 -->
      <g style="fill: #808080" transform="translate(620.367188 280.710438) scale(0.1 -0.1)">
       <defs>
        <path id="DejaVuSans-34" d="M 2419 4116 
L 825 1625 
L 2419 1625 
L 2419 4116 
z
M 2253 4666 
L 3047 4666 
L 3047 1625 
L 3713 1625 
L 3713 1100 
L 3047 1100 
L 3047 0 
L 2419 0 
L 2419 1100 
L 313 1100 
L 313 1709 
L 2253 4666 
z
" transform="scale(0.015625)"/>
       </defs>
       <use xlink:href="#DejaVuSans-34"/>
       <use xlink:href="#DejaVuSans-30" x="63.623047"/>
       <use xlink:href="#DejaVuSans-30" x="127.246094"/>
       <use xlink:href="#DejaVuSans-30" x="190.869141"/>
      </g>
     </g>
    </g>
   </g>
   <g id="matplotlib.axis_2">
    <g id="ytick_1">
     <g id="line2d_10">
      <defs>
       <path id="ma1033e37f6" d="M 0 0 
L -3.5 0 
" style="stroke: #808080; stroke-width: 0.8"/>
      </defs>
      <g>
       <use xlink:href="#ma1033e37f6" x="47.192188" y="211.034623" style="fill: #808080; stroke: #808080; stroke-width: 0.8"/>
      </g>
     </g>
     <g id="text_10">
      <!-- −10000 -->
      <g style="fill: #808080" transform="translate(0 214.833842) scale(0.1 -0.1)">
       <defs>
        <path id="DejaVuSans-2212" d="M 678 2272 
L 4684 2272 
L 4684 1741 
L 678 1741 
L 678 2272 
z
" transform="scale(0.015625)"/>
       </defs>
       <use xlink:href="#DejaVuSans-2212"/>
       <use xlink:href="#DejaVuSans-31" x="83.789062"/>
       <use xlink:href="#DejaVuSans-30" x="147.412109"/>
       <use xlink:href="#DejaVuSans-30" x="211.035156"/>
       <use xlink:href="#DejaVuSans-30" x="274.658203"/>
       <use xlink:href="#DejaVuSans-30" x="338.28125"/>
      </g>
     </g>
    </g>
    <g id="ytick_2">
     <g id="line2d_11">
      <g>
       <use xlink:href="#ma1033e37f6" x="47.192188" y="155.904648" style="fill: #808080; stroke: #808080; stroke-width: 0.8"/>
      </g>
     </g>
     <g id="text_11">
      <!-- 0 -->
      <g style="fill: #808080" transform="translate(33.829688 159.703866) scale(0.1 -0.1)">
       <use xlink:href="#DejaVuSans-30"/>
      </g>
     </g>
    </g>
    <g id="ytick_3">
     <g id="line2d_12">
      <g>
       <use xlink:href="#ma1033e37f6" x="47.192188" y="100.774672" style="fill: #808080; stroke: #808080; stroke-width: 0.8"/>
      </g>
     </g>
     <g id="text_12">
      <!-- 10000 -->
      <g style="fill: #808080" transform="translate(8.379688 104.573891) scale(0.1 -0.1)">
       <use xlink:href="#DejaVuSans-31"/>
       <use xlink:href="#DejaVuSans-30" x="63.623047"/>
       <use xlink:href="#DejaVuSans-30" x="127.246094"/>
       <use xlink:href="#DejaVuSans-30" x="190.869141"/>
       <use xlink:href="#DejaVuSans-30" x="254.492188"/>
      </g>
     </g>
    </g>
    <g id="ytick_4">
     <g id="line2d_13">
      <g>
       <use xlink:href="#ma1033e37f6" x="47.192188" y="45.644696" style="fill: #808080; stroke: #808080; stroke-width: 0.8"/>
      </g>
     </g>
     <g id="text_13">
      <!-- 20000 -->
      <g style="fill: #808080" transform="translate(8.379688 49.443915) scale(0.1 -0.1)">
       <use xlink:href="#DejaVuSans-32"/>
       <use xlink:href="#DejaVuSans-30" x="63.623047"/>
       <use xlink:href="#DejaVuSans-30" x="127.246094"/>
       <use xlink:href="#DejaVuSans-30" x="190.869141"/>
       <use xlink:href="#DejaVuSans-30" x="254.492188"/>
      </g>
     </g>
    </g>
   </g>
   <g id="line2d_14">
    <path d="M 75.092188 156.155161 
L 75.374148 155.661817 
L 75.656109 156.140648 
L 75.938069 155.674726 
L 76.22003 156.129158 
L 76.50199 155.684952 
L 76.783951 156.120067 
L 77.065912 155.693015 
L 77.347872 156.112943 
L 77.629833 155.699275 
L 77.911793 156.107484 
L 78.193754 155.703985 
L 78.475715 156.10348 
L 78.757675 155.707317 
L 79.039636 156.100793 
L 79.321596 155.709381 
L 79.603557 156.099337 
L 79.885517 155.710236 
L 80.167478 156.099079 
L 80.449439 155.709894 
L 80.731399 156.10003 
L 81.01336 155.708321 
L 81.29532 156.102246 
L 81.577281 155.705433 
L 81.859242 156.105841 
L 82.141202 155.701086 
L 82.423163 156.110994 
L 82.705123 155.695062 
L 82.987084 156.117971 
L 83.269044 155.687036 
L 83.551005 156.127162 
L 83.832966 155.676537 
L 84.114926 156.139142 
L 84.396887 155.662866 
L 84.678847 156.154765 
L 84.960808 155.644965 
L 85.242769 156.175354 
L 85.524729 155.621168 
L 85.80669 156.203034 
L 86.08865 155.588717 
L 86.370611 156.241444 
L 86.652572 155.542719 
L 86.934532 156.297325 
L 87.216493 155.473622 
L 87.498453 156.384662 
L 87.780414 155.360107 
L 88.062374 156.537628 
L 88.344335 155.143856 
L 88.626296 156.863795 
L 88.908256 154.610147 
L 89.190217 157.673563 
L 89.472177 110.476933 
L 89.754138 105.424483 
L 90.88198 157.300407 
L 91.163941 162.71878 
L 91.445901 162.964589 
L 92.009823 168.671116 
L 92.291783 170.754387 
L 92.573744 170.880143 
L 92.855704 171.885543 
L 93.137665 171.14167 
L 93.701586 168.761698 
L 93.983547 168.950308 
L 94.547468 166.976981 
L 94.829429 165.750917 
L 95.39335 165.9503 
L 95.67531 166.744252 
L 95.957271 167.083529 
L 96.239231 166.883481 
L 96.521192 166.133638 
L 96.803153 167.095288 
L 97.085113 168.458395 
L 97.367074 168.72633 
L 97.649034 167.987387 
L 97.930995 168.943747 
L 98.212956 170.567438 
L 98.494916 171.421515 
L 98.776877 171.653827 
L 99.340798 174.163907 
L 99.622758 173.766451 
L 100.46864 168.770242 
L 100.750601 162.893592 
L 101.314522 139.437494 
L 102.160404 103.72559 
L 102.442364 98.213506 
L 102.724325 98.471214 
L 103.006286 103.753853 
L 103.570207 122.385281 
L 104.134128 143.680864 
L 104.698049 156.03584 
L 105.26197 164.588411 
L 105.543931 165.833422 
L 105.825891 166.460313 
L 106.107852 166.599893 
L 106.389813 166.196478 
L 106.671773 166.256634 
L 106.953734 167.285826 
L 107.235694 167.213921 
L 108.081576 160.902368 
L 108.645497 159.950958 
L 109.209418 157.912849 
L 109.491379 157.669857 
L 109.77334 158.12093 
L 110.337261 158.239532 
L 110.619221 159.081326 
L 110.901182 160.378218 
L 111.465103 162.006752 
L 112.029024 164.882331 
L 112.310985 165.819749 
L 112.592945 167.364897 
L 112.874906 167.952544 
L 113.438827 164.187936 
L 114.002748 168.537827 
L 114.284709 164.121754 
L 115.130591 127.073922 
L 115.694512 105.041593 
L 115.976472 100.90334 
L 116.258433 101.643124 
L 116.540394 105.575655 
L 116.822354 112.92409 
L 117.668236 143.581141 
L 117.950197 147.206153 
L 118.232157 148.930578 
L 118.514118 152.114176 
L 119.078039 161.473068 
L 119.36 163.552231 
L 119.64196 164.180967 
L 119.923921 164.38438 
L 120.205881 163.911064 
L 120.487842 162.912422 
L 120.769802 162.430347 
L 121.051763 162.632984 
L 121.333724 162.319103 
L 122.179605 158.462568 
L 122.461566 158.419269 
L 122.743527 158.506096 
L 123.307448 158.133749 
L 123.589408 158.563766 
L 124.43529 161.091606 
L 124.717251 162.763826 
L 125.281172 169.115602 
L 126.409014 184.197769 
L 126.690975 185.02802 
L 127.536857 179.519499 
L 127.818817 172.880912 
L 128.382738 135.011167 
L 128.946659 103.445423 
L 129.510581 88.370406 
L 129.792541 86.888019 
L 130.074502 88.865822 
L 130.356462 93.528739 
L 130.638423 103.374049 
L 131.202344 133.366115 
L 131.484305 140.632361 
L 131.766265 144.488243 
L 132.048226 153.167195 
L 132.330186 165.529781 
L 132.612147 172.598083 
L 133.176068 171.927699 
L 133.458029 174.899426 
L 133.739989 176.285134 
L 134.867832 164.708574 
L 135.149792 163.426284 
L 135.713714 164.639602 
L 135.995674 164.543386 
L 136.277635 166.419372 
L 136.559595 170.738876 
L 136.841556 173.151381 
L 137.123516 172.238099 
L 137.405477 172.196736 
L 137.687438 174.720521 
L 137.969398 175.858404 
L 138.533319 171.119432 
L 138.81528 171.122379 
L 139.097241 172.848357 
L 139.661162 178.057037 
L 139.943122 178.79646 
L 140.789004 172.743078 
L 141.070965 170.987817 
L 141.352925 165.650902 
L 141.916846 144.633625 
L 142.762728 99.065438 
L 143.044689 91.319736 
L 143.326649 87.591309 
L 143.60861 87.736745 
L 143.890571 93.271678 
L 144.736452 125.553572 
L 145.300373 147.280601 
L 146.146255 166.917475 
L 146.428216 169.885474 
L 146.992137 168.594973 
L 147.274098 169.174005 
L 147.556058 168.255496 
L 147.838019 165.297259 
L 148.119979 163.531289 
L 148.40194 163.762863 
L 148.6839 162.933939 
L 148.965861 160.518501 
L 149.247822 159.318028 
L 149.529782 159.798214 
L 150.093703 159.772406 
L 150.375664 162.881285 
L 150.939585 173.127673 
L 151.221546 174.369754 
L 151.503506 174.27577 
L 151.785467 174.990811 
L 152.067428 176.125303 
L 152.349388 176.134743 
L 152.913309 173.665587 
L 153.19527 174.527849 
L 153.759191 178.066123 
L 154.041152 177.620155 
L 154.323112 176.685758 
L 154.605073 177.23872 
L 154.887033 178.390533 
L 155.168994 175.486934 
L 155.450955 164.737847 
L 156.578797 103.410142 
L 156.860757 91.258581 
L 157.142718 87.160286 
L 157.424679 90.88898 
L 157.9886 106.11348 
L 159.116442 154.917353 
L 159.962324 167.684984 
L 160.244285 167.801608 
L 160.526245 168.374554 
L 161.090166 176.926248 
L 161.372127 177.34895 
L 161.654087 174.425688 
L 161.936048 172.945138 
L 162.218009 173.703631 
L 162.499969 172.602341 
L 163.06389 162.359534 
L 163.345851 160.099574 
L 163.627812 160.120995 
L 163.909772 159.714769 
L 164.191733 158.48219 
L 164.473693 158.111709 
L 165.037614 160.612628 
L 165.601536 161.462724 
L 166.165457 164.991729 
L 166.447417 165.850988 
L 166.729378 167.614605 
L 167.293299 176.517663 
L 167.57526 178.674504 
L 167.85722 178.586162 
L 168.139181 177.890539 
L 168.421142 176.537787 
L 168.703102 173.796283 
L 168.985063 168.931318 
L 169.267023 160.319844 
L 170.676826 98.139112 
L 170.958787 96.322751 
L 171.240747 100.721202 
L 171.804669 119.007771 
L 172.65055 150.609033 
L 173.496432 174.18036 
L 173.778393 175.079568 
L 174.060353 173.378052 
L 174.342314 174.072228 
L 174.624274 175.700514 
L 174.906235 173.832498 
L 175.470156 165.473989 
L 175.752117 163.840184 
L 176.034077 162.975904 
L 176.316038 162.922722 
L 176.597999 163.339737 
L 176.879959 162.333196 
L 177.16192 160.283884 
L 177.44388 160.101719 
L 178.289762 166.697362 
L 178.571723 167.345171 
L 178.853683 167.384408 
L 179.135644 167.286269 
L 179.417604 168.50063 
L 179.699565 170.707946 
L 179.981526 171.724577 
L 180.263486 171.628488 
L 180.545447 173.205193 
L 181.109368 179.087666 
L 181.391328 179.243653 
L 181.673289 179.149462 
L 181.95525 179.568156 
L 182.23721 178.802384 
L 182.519171 175.051785 
L 182.801131 167.171469 
L 183.365053 136.858253 
L 183.928974 104.008567 
L 184.492895 85.737695 
L 184.774856 84.434814 
L 185.056816 88.614552 
L 185.620737 107.59008 
L 186.466619 144.883503 
L 187.03054 159.298036 
L 187.594461 171.77927 
L 187.876422 174.4608 
L 188.158383 174.08903 
L 188.440343 175.042775 
L 188.722304 178.79681 
L 189.004264 180.410233 
L 189.850146 169.294129 
L 190.132107 169.065423 
L 190.696028 166.152656 
L 191.259949 167.598146 
L 191.54191 166.864231 
L 191.82387 166.946653 
L 192.387791 169.884826 
L 192.669752 170.367402 
L 192.951713 171.54747 
L 193.797594 176.850497 
L 194.361515 180.240188 
L 194.925437 184.298259 
L 195.207397 183.677763 
L 195.489358 181.889581 
L 195.771318 181.371603 
L 196.053279 180.523703 
L 196.33524 174.586704 
L 196.899161 145.498413 
L 197.745042 96.607933 
L 198.027003 86.483113 
L 198.308964 80.98888 
L 198.590924 79.842389 
L 198.872885 83.619874 
L 199.436806 104.491458 
L 200.564648 156.598888 
L 201.12857 166.304547 
L 201.41053 168.960852 
L 201.692491 169.884334 
L 201.974451 169.357434 
L 202.256412 169.520346 
L 202.538372 170.754226 
L 202.820333 170.254464 
L 203.102294 167.287568 
L 203.384254 165.69954 
L 203.666215 168.51835 
L 203.948175 173.023466 
L 204.230136 175.062187 
L 204.512097 174.813662 
L 204.794057 175.173996 
L 205.076018 176.51384 
L 205.357978 176.801496 
L 205.639939 174.977233 
L 205.921899 172.419905 
L 206.20386 171.299896 
L 206.485821 172.698208 
L 206.767781 175.23552 
L 207.049742 176.764062 
L 207.331702 177.283674 
L 207.613663 178.852262 
L 208.177584 183.729683 
L 208.459545 184.393135 
L 208.741505 185.510286 
L 209.305427 189.167313 
L 209.587387 188.36475 
L 209.869348 183.451204 
L 210.151308 172.010858 
L 211.561111 82.327603 
L 211.843072 74.179205 
L 212.125032 71.294224 
L 212.406993 71.942414 
L 212.688954 77.522399 
L 213.252875 106.960084 
L 214.098756 152.556249 
L 214.380717 161.08237 
L 214.662678 165.293379 
L 215.226599 169.989816 
L 215.508559 171.399674 
L 216.072481 172.493717 
L 216.354441 172.20367 
L 217.482284 166.620371 
L 217.764244 166.27853 
L 218.046205 166.83813 
L 218.328165 167.013244 
L 218.610126 166.513798 
L 218.892086 166.444997 
L 219.456008 166.60182 
L 219.737968 169.362716 
L 220.301889 182.726166 
L 220.58385 184.055945 
L 220.865811 183.164172 
L 221.147771 185.480884 
L 221.429732 189.982259 
L 221.711692 192.155223 
L 221.993653 191.426211 
L 223.403456 185.639633 
L 223.685416 180.957 
L 223.967377 170.631225 
L 224.531298 134.529004 
L 225.095219 96.073873 
L 225.659141 75.049195 
L 225.941101 72.266397 
L 226.223062 76.27786 
L 226.786983 98.261871 
L 227.914825 158.294011 
L 228.196786 162.011281 
L 228.478746 163.651744 
L 229.042668 168.810678 
L 229.324628 170.15213 
L 229.888549 170.874633 
L 230.17051 172.03893 
L 230.45247 173.783236 
L 230.734431 174.808909 
L 231.016392 173.914422 
L 231.298352 171.937551 
L 231.580313 170.8544 
L 231.862273 171.056839 
L 232.144234 170.885521 
L 232.426195 169.895142 
L 232.708155 169.645222 
L 233.272076 171.654756 
L 233.554037 172.164735 
L 233.835998 173.914678 
L 234.117958 176.486685 
L 234.399919 177.320297 
L 234.681879 177.085403 
L 234.96384 178.974742 
L 235.2458 182.590179 
L 235.527761 184.444653 
L 235.809722 184.609931 
L 236.373643 186.97756 
L 236.655603 186.350754 
L 237.219525 182.795623 
L 237.501485 176.303118 
L 238.065406 144.952027 
L 239.193249 78.409865 
L 239.475209 71.851251 
L 239.75717 69.291325 
L 240.03913 71.458629 
L 240.321091 81.393531 
L 241.448933 146.136448 
L 242.012855 165.572886 
L 242.294815 171.641183 
L 242.576776 174.667465 
L 243.140697 177.690771 
L 243.422657 178.431358 
L 243.986579 175.57356 
L 244.268539 175.36328 
L 244.5505 175.89296 
L 244.83246 175.678921 
L 245.396382 174.005373 
L 245.678342 174.788329 
L 245.960303 176.75813 
L 246.242263 176.975369 
L 246.806184 170.56801 
L 247.088145 171.717297 
L 247.370106 174.238017 
L 247.934027 173.285376 
L 248.215987 177.992594 
L 248.497948 184.801165 
L 248.779909 188.201396 
L 249.061869 189.618619 
L 249.62579 194.721476 
L 249.907751 193.810115 
L 250.189712 192.46562 
L 250.471672 192.510092 
L 250.753633 190.243072 
L 251.035593 181.988439 
L 251.599514 149.186997 
L 252.445396 88.494058 
L 253.009317 66.335145 
L 253.291278 60.488164 
L 253.573239 58.999413 
L 253.855199 64.03041 
L 254.41912 92.867216 
L 255.546963 163.625591 
L 256.110884 173.365343 
L 256.392844 177.350576 
L 256.674805 178.209372 
L 256.956766 175.692792 
L 257.238726 174.799002 
L 257.520687 176.632735 
L 257.802647 177.157465 
L 258.084608 175.714007 
L 258.366569 175.97356 
L 258.648529 177.766019 
L 258.93049 177.421867 
L 259.21245 175.297788 
L 259.494411 175.313949 
L 259.776371 177.334048 
L 260.058332 177.767772 
L 260.340293 176.678778 
L 260.622253 178.195435 
L 261.186174 188.435079 
L 261.468135 190.718132 
L 261.750096 191.5743 
L 262.032056 193.202807 
L 262.877938 201.573627 
L 263.159898 202.555051 
L 263.72382 201.834047 
L 264.00578 201.89831 
L 264.287741 200.078971 
L 264.569701 193.514239 
L 264.851662 180.248862 
L 265.415583 134.707655 
L 265.979504 89.522904 
L 266.543425 56.288189 
L 266.825386 46.747003 
L 267.107347 45.473624 
L 267.389307 50.016729 
L 267.671268 57.957078 
L 267.953228 71.024557 
L 269.363031 167.565712 
L 269.644992 174.873453 
L 270.490874 184.606728 
L 270.772834 184.851702 
L 271.336755 179.793489 
L 271.618716 178.571435 
L 271.900677 177.847775 
L 272.464598 174.423283 
L 272.746558 173.950973 
L 273.028519 175.016951 
L 273.31048 175.464022 
L 273.59244 174.660782 
L 273.874401 174.94385 
L 274.438322 179.248112 
L 274.720282 179.113119 
L 275.002243 179.993987 
L 276.412046 198.67665 
L 276.694007 201.23422 
L 276.975967 201.195966 
L 277.257928 201.917499 
L 277.539888 203.676539 
L 277.821849 202.48326 
L 278.10381 196.594146 
L 278.38577 186.387117 
L 278.667731 169.957632 
L 279.795573 82.332608 
L 280.359494 52.515511 
L 280.641455 47.603158 
L 280.923415 48.852169 
L 281.205376 54.400713 
L 281.487337 66.817321 
L 282.897139 163.319172 
L 283.1791 170.273959 
L 283.461061 171.923566 
L 283.743021 172.628824 
L 284.306942 175.005174 
L 284.588903 175.228795 
L 284.870864 175.665497 
L 285.152824 176.700366 
L 285.434785 178.480587 
L 285.998706 183.037819 
L 286.280667 182.805972 
L 286.562627 181.572712 
L 286.844588 182.134289 
L 287.126548 183.497471 
L 287.408509 181.423055 
L 287.690469 176.765576 
L 287.97243 176.065107 
L 288.536351 184.865746 
L 288.818312 184.168155 
L 289.100272 184.486119 
L 289.946154 200.731815 
L 290.510075 205.827324 
L 290.792036 207.146806 
L 291.073996 207.059383 
L 291.355957 205.473828 
L 291.637918 199.828132 
L 292.201839 173.592136 
L 292.76576 130.623488 
L 293.329681 83.332832 
L 293.893602 53.111703 
L 294.175563 45.314407 
L 294.457524 44.760223 
L 294.739484 50.414317 
L 295.021445 62.440561 
L 296.431248 153.690412 
L 296.713208 163.484229 
L 297.277129 171.438872 
L 298.123011 184.237342 
L 298.404972 184.976334 
L 298.686932 183.768319 
L 298.968893 183.387418 
L 299.250853 183.796524 
L 299.532814 181.604366 
L 299.814775 177.010013 
L 300.096735 175.610276 
L 300.660656 180.785263 
L 300.942617 179.050423 
L 301.224578 178.670714 
L 301.506538 183.147665 
L 302.070459 194.935803 
L 302.35242 198.288408 
L 302.916341 202.452681 
L 303.480262 208.388983 
L 303.762223 206.924408 
L 304.044183 203.801013 
L 304.326144 203.496691 
L 304.608105 204.968048 
L 304.890065 203.299579 
L 305.172026 196.917976 
L 305.453986 186.256216 
L 305.735947 169.298493 
L 307.14575 51.96547 
L 307.42771 38.407324 
L 307.709671 31.886231 
L 307.991632 33.122545 
L 308.273592 40.212656 
L 308.555553 52.691732 
L 309.119474 94.196205 
L 309.683395 135.537328 
L 310.247316 161.614165 
L 310.811238 172.924197 
L 311.093198 176.594773 
L 311.375159 178.180429 
L 311.657119 178.813842 
L 312.22104 185.387348 
L 312.503001 185.886845 
L 312.784962 183.988843 
L 313.066922 184.527363 
L 313.348883 187.183148 
L 313.630843 187.247276 
L 314.194765 181.333864 
L 314.476725 180.788377 
L 314.758686 182.019048 
L 315.040646 186.092942 
L 315.604567 200.11649 
L 315.886528 202.954187 
L 316.168489 203.761347 
L 316.450449 206.842669 
L 317.01437 216.417672 
L 317.860252 220.623245 
L 318.142213 220.294425 
L 318.424173 215.354315 
L 318.706134 204.463564 
L 318.988095 185.562945 
L 320.397897 48.886352 
L 320.679858 33.161484 
L 320.961819 23.688951 
L 321.243779 22.074402 
L 321.52574 26.456376 
L 321.8077 34.939414 
L 322.089661 49.313951 
L 323.499464 155.428916 
L 324.063385 175.927905 
L 324.345346 180.753226 
L 325.191227 187.010146 
L 325.473188 186.95303 
L 325.755149 186.606996 
L 326.31907 188.924799 
L 326.60103 188.67677 
L 326.882991 187.741186 
L 327.164952 187.78019 
L 327.728873 190.103011 
L 328.010833 190.25909 
L 328.292794 189.46119 
L 328.574754 189.999184 
L 328.856715 194.066948 
L 329.420636 204.086768 
L 329.984557 210.58623 
L 330.266518 214.385619 
L 330.548479 215.737222 
L 330.830439 215.920598 
L 331.1124 217.308796 
L 331.39436 217.291109 
L 331.676321 211.349045 
L 332.240242 182.432228 
L 332.804163 133.4517 
L 333.368084 78.406527 
L 333.932006 41.332074 
L 334.213966 29.816408 
L 334.495927 25.477874 
L 334.777887 28.988039 
L 335.059848 38.382012 
L 335.623769 70.959679 
L 336.469651 137.297422 
L 337.033572 162.953186 
L 337.315533 171.805965 
L 337.597493 177.167909 
L 338.161414 181.636937 
L 338.725336 184.825516 
L 339.007296 185.673498 
L 339.289257 185.764399 
L 339.571217 185.98015 
L 340.135138 187.663373 
L 340.417099 188.079275 
L 340.69906 189.280734 
L 340.98102 191.247485 
L 341.262981 192.318132 
L 341.544941 192.696104 
L 341.826902 194.623159 
L 342.108863 197.545573 
L 342.672784 200.676047 
L 343.518666 216.39235 
L 343.800626 216.708474 
L 344.082587 217.839568 
L 344.364547 220.03335 
L 344.646508 219.689287 
L 344.928468 215.117717 
L 345.210429 205.788994 
L 345.49239 188.730973 
L 347.184153 37.356625 
L 347.466114 27.193986 
L 347.748074 24.648662 
L 348.030035 27.884454 
L 348.311995 35.936956 
L 348.875917 64.618486 
L 350.28572 158.989262 
L 350.849641 174.047144 
L 351.131601 178.7578 
L 351.413562 180.574642 
L 351.695523 180.99978 
L 352.259444 184.597672 
L 352.541404 185.001314 
L 352.823365 184.341045 
L 353.105325 184.970856 
L 353.387286 186.369959 
L 353.669247 186.307471 
L 353.951207 184.995028 
L 354.233168 184.991267 
L 354.515128 187.744707 
L 355.36101 201.851911 
L 355.924931 203.096218 
L 357.052774 214.239933 
L 357.616695 217.381455 
L 357.898655 218.032144 
L 358.180616 217.845058 
L 358.462577 214.40701 
L 358.744537 202.888749 
L 359.308458 154.654593 
L 360.436301 51.610276 
L 360.718261 36.364984 
L 361.000222 28.316866 
L 361.282182 26.99031 
L 361.564143 32.695047 
L 362.128064 59.760181 
L 362.691985 96.432034 
L 363.255907 137.114186 
L 363.819828 162.576302 
L 364.383749 177.37965 
L 364.665709 179.409658 
L 364.94767 180.308943 
L 365.511591 183.606723 
L 366.075512 182.858389 
L 366.639434 185.091485 
L 366.921394 184.491146 
L 367.203355 183.288722 
L 367.485315 183.612574 
L 368.049237 187.22251 
L 368.331197 187.705064 
L 368.613158 188.501953 
L 369.741 198.819467 
L 370.304921 206.634311 
L 370.586882 208.492635 
L 370.868842 211.975348 
L 371.432764 225.778976 
L 371.714724 227.392638 
L 371.996685 223.272017 
L 372.278645 213.442796 
L 372.560606 195.539917 
L 374.252369 44.061594 
L 374.53433 34.285331 
L 374.816291 31.669109 
L 375.098251 32.432615 
L 375.380212 36.004792 
L 375.662172 45.587806 
L 376.508054 99.094969 
L 377.353936 152.298068 
L 377.917857 169.42581 
L 378.481778 180.979501 
L 378.763739 183.404612 
L 379.609621 186.308955 
L 379.891581 188.291751 
L 380.173542 189.343407 
L 380.737463 187.922815 
L 381.019423 189.109317 
L 381.301384 191.401285 
L 381.583345 192.110299 
L 381.865305 190.776455 
L 382.147266 190.177372 
L 382.429226 192.509334 
L 382.993148 198.375839 
L 383.275108 200.12156 
L 383.557069 203.709954 
L 384.12099 213.645481 
L 384.684911 219.036117 
L 385.248832 222.575133 
L 385.530793 222.353803 
L 385.812753 214.370635 
L 386.376675 168.149013 
L 387.786478 36.183108 
L 388.068438 25.089599 
L 388.350399 22.096866 
L 388.632359 24.160679 
L 388.91432 30.074777 
L 389.19628 41.057435 
L 389.760202 78.24747 
L 390.888044 151.900932 
L 391.170005 165.597768 
L 391.451965 172.565259 
L 392.015886 175.342122 
L 392.579808 181.546177 
L 392.861768 182.72767 
L 393.143729 185.417751 
L 393.70765 195.029077 
L 393.98961 196.190637 
L 394.271571 196.466927 
L 395.117453 200.984108 
L 395.399413 200.576885 
L 395.681374 199.90616 
L 395.963335 199.821446 
L 396.527256 200.725676 
L 396.809216 201.964214 
L 397.937059 213.890009 
L 398.219019 215.514658 
L 398.78294 219.650766 
L 399.064901 216.956265 
L 399.346862 206.995317 
L 399.910783 164.480155 
L 401.320586 30.856813 
L 401.602546 22.591245 
L 401.884507 19.372677 
L 402.166467 19.648006 
L 402.448428 25.933464 
L 403.012349 56.751156 
L 404.422152 144.466372 
L 404.986073 169.19918 
L 405.549994 179.410476 
L 406.113916 189.334801 
L 406.395876 191.350344 
L 406.677837 191.404816 
L 406.959797 191.775318 
L 407.523719 194.214772 
L 407.805679 192.938173 
L 408.08764 189.896556 
L 408.3696 188.346531 
L 408.651561 189.922832 
L 408.933522 192.41423 
L 409.497443 195.180956 
L 409.779403 198.929892 
L 410.907246 220.887576 
L 411.753127 232.285499 
L 412.035088 231.031233 
L 412.599009 222.469425 
L 412.88097 214.430957 
L 413.16293 196.174832 
L 414.854694 36.940474 
L 415.136654 27.521618 
L 415.418615 23.513526 
L 415.700576 24.363173 
L 415.982536 29.986418 
L 416.546457 50.851506 
L 417.392339 103.157989 
L 418.238221 153.23529 
L 418.802142 172.690845 
L 419.084103 178.912387 
L 419.366063 182.603898 
L 419.929984 185.791666 
L 420.775866 195.000582 
L 421.057827 195.728038 
L 421.339787 195.769635 
L 421.621748 195.990228 
L 422.185669 197.017722 
L 422.46763 197.291208 
L 422.74959 197.89533 
L 423.031551 199.486613 
L 423.877433 208.419418 
L 424.441354 210.507367 
L 425.851157 225.112912 
L 426.133117 224.40267 
L 426.415078 214.899533 
L 426.978999 171.920902 
L 428.106841 59.953608 
L 428.670763 28.930883 
L 428.952723 25.833201 
L 429.234684 29.708367 
L 429.798605 46.664528 
L 430.362526 73.816926 
L 432.05429 168.473436 
L 432.618211 180.859049 
L 433.182132 187.563563 
L 433.746053 189.940915 
L 434.873895 193.804518 
L 435.155856 194.878834 
L 435.437817 195.282589 
L 435.719777 195.304269 
L 436.001738 196.077506 
L 436.565659 199.000543 
L 436.84762 200.063322 
L 437.12958 202.32667 
L 438.257422 216.595061 
L 438.821344 221.446504 
L 439.103304 224.833344 
L 439.385265 226.447597 
L 439.667225 220.859834 
L 439.949186 204.905542 
L 440.795068 122.610551 
L 441.64095 45.031123 
L 441.92291 31.918873 
L 442.204871 26.857272 
L 442.486831 27.298947 
L 442.768792 30.789132 
L 443.050752 37.345149 
L 443.614674 62.006285 
L 444.460555 113.327247 
L 445.306437 163.157255 
L 445.588398 172.667185 
L 446.434279 187.706567 
L 446.71624 190.378765 
L 447.280161 191.474292 
L 448.408004 198.040845 
L 448.689964 199.021617 
L 448.971925 198.593696 
L 449.253885 198.852354 
L 450.945649 216.513365 
L 451.50957 225.945279 
L 451.791531 231.665311 
L 452.073491 235.104176 
L 452.355452 235.227329 
L 452.637412 232.780055 
L 452.919373 225.638497 
L 453.201334 209.06222 
L 453.765255 150.103831 
L 454.611136 57.273083 
L 454.893097 39.036519 
L 455.175058 29.370503 
L 455.457018 25.157502 
L 455.738979 25.088488 
L 456.020939 28.82328 
L 456.584861 43.271371 
L 457.148782 69.630427 
L 459.122506 175.322932 
L 459.686427 186.967205 
L 460.250348 193.312374 
L 460.814269 196.203334 
L 461.09623 198.54025 
L 461.378191 199.537124 
L 461.660151 198.562563 
L 461.942112 198.128573 
L 462.787993 202.868828 
L 463.069954 204.749212 
L 463.351915 208.542873 
L 465.043678 241.261058 
L 465.325639 241.875615 
L 465.607599 241.173876 
L 465.88956 238.433353 
L 466.17152 226.724508 
L 466.735442 167.498529 
L 467.581323 73.602775 
L 467.863284 53.17692 
L 468.145245 41.206669 
L 468.427205 34.35892 
L 468.709166 30.388764 
L 468.991126 29.175107 
L 469.273087 29.857121 
L 469.555048 32.623953 
L 469.837008 40.246873 
L 470.68289 81.346344 
L 471.810732 152.212673 
L 472.656614 179.434542 
L 473.502496 194.451623 
L 474.066417 199.055491 
L 474.630338 203.460037 
L 474.912299 204.554296 
L 475.194259 207.262896 
L 475.75818 217.947846 
L 476.040141 219.262823 
L 476.322102 219.225007 
L 476.604062 221.537099 
L 476.886023 224.862314 
L 477.167983 226.122091 
L 477.449944 226.649219 
L 478.295826 235.007811 
L 478.859747 235.345265 
L 479.141707 230.703107 
L 479.423668 214.874416 
L 479.987589 153.551411 
L 480.55151 85.539828 
L 481.115432 46.567854 
L 481.679353 30.36442 
L 481.961313 29.174138 
L 482.525234 36.53286 
L 482.807195 41.814593 
L 483.089156 50.4722 
L 483.935037 90.990311 
L 485.06288 154.938268 
L 485.626801 174.286573 
L 486.190722 188.092977 
L 486.754643 196.176397 
L 487.318564 202.381408 
L 489.85621 221.372322 
L 490.13817 222.671617 
L 490.420131 223.244113 
L 490.702091 224.123723 
L 491.266013 226.826871 
L 491.547973 225.923927 
L 491.829934 223.653022 
L 492.111894 220.13452 
L 492.393855 212.928842 
L 492.675816 198.622752 
L 493.239737 145.982301 
L 494.085619 57.374527 
L 494.367579 42.834127 
L 494.64954 34.402201 
L 494.9315 29.458627 
L 495.213461 28.801318 
L 495.495421 32.96294 
L 496.059343 47.77127 
L 496.623264 73.138661 
L 498.596988 173.227064 
L 499.160909 188.476783 
L 500.006791 201.620189 
L 500.570712 205.197854 
L 500.852673 208.484612 
L 501.134633 209.962499 
L 501.416594 209.083581 
L 501.698554 210.191425 
L 502.544436 225.301961 
L 502.826397 227.531722 
L 503.672278 239.321666 
L 503.954239 241.010172 
L 504.51816 246.59331 
L 504.800121 244.952047 
L 505.082081 236.142556 
L 505.646003 205.588353 
L 506.209924 152.96847 
L 507.055805 51.359044 
L 507.337766 29.882561 
L 507.619727 18.379897 
L 507.901687 13.340508 
L 508.183648 12.096 
L 508.465608 14.955738 
L 509.02953 31.00091 
L 509.593451 54.992535 
L 511.003254 128.948803 
L 511.567175 155.652682 
L 512.131096 173.859176 
L 512.976978 194.084775 
L 513.540899 199.012361 
L 514.10482 205.311354 
L 514.668741 212.314902 
L 514.950702 214.091396 
L 515.514623 216.154309 
L 516.078544 220.879612 
L 516.924426 231.763802 
L 517.770308 245.75963 
L 518.052268 246.792931 
L 518.334229 245.333675 
L 518.61619 238.706968 
L 518.89815 221.974465 
L 519.462071 158.461788 
L 520.025992 91.466385 
L 520.589914 52.143449 
L 520.871874 42.453992 
L 521.153835 36.763825 
L 521.435795 34.250094 
L 521.717756 34.741704 
L 521.999717 37.984278 
L 522.281677 43.665821 
L 522.845598 62.290459 
L 525.101283 160.520715 
L 525.665204 173.252133 
L 527.920889 203.265788 
L 528.48481 209.76986 
L 529.048731 217.490853 
L 529.612652 223.383827 
L 529.894613 228.208971 
L 530.740495 250.706821 
L 531.022455 253.905015 
L 531.304416 254.016 
L 531.586376 252.750903 
L 531.868337 247.970021 
L 532.150298 232.383821 
L 532.714219 160.656151 
L 533.27814 90.782097 
L 533.842061 52.183716 
L 534.124022 41.501474 
L 534.405982 35.272008 
L 534.687943 32.486103 
L 534.969904 32.951955 
L 535.251864 36.786708 
L 535.815785 51.895209 
L 536.379706 72.963916 
L 538.353431 162.186573 
L 538.635391 169.600115 
L 539.763233 184.76689 
L 540.327155 191.346405 
L 541.736958 207.073631 
L 542.582839 217.684046 
L 543.146761 229.38612 
L 543.710682 241.780631 
L 543.992642 245.047924 
L 544.556563 247.198613 
L 544.838524 247.946685 
L 545.120485 244.27158 
L 545.402445 229.942246 
L 545.966366 164.818891 
L 546.530288 97.421377 
L 547.094209 59.742816 
L 547.376169 48.417977 
L 547.65813 41.914999 
L 547.94009 39.537645 
L 548.222051 40.319096 
L 548.504012 44.220287 
L 549.067933 58.875174 
L 549.913815 89.339469 
L 550.477736 112.263812 
L 551.323618 154.960855 
L 552.169499 174.713742 
L 552.45146 179.927983 
L 552.73342 182.255859 
L 553.015381 182.979259 
L 553.297342 184.755057 
L 554.143223 195.925887 
L 554.707145 199.323146 
L 554.989105 204.472824 
L 555.553026 216.688804 
L 555.834987 218.920705 
L 556.116947 222.857298 
L 556.680869 237.632454 
L 556.962829 239.915837 
L 557.24479 239.534552 
L 557.52675 240.205216 
L 557.808711 241.416633 
L 558.090672 239.866567 
L 558.372632 232.099916 
L 558.654593 214.561551 
L 560.064396 79.228123 
L 560.346356 64.568388 
L 560.628317 57.41078 
L 561.192238 50.349446 
L 561.474199 48.593594 
L 561.756159 52.225079 
L 562.602041 77.368135 
L 563.447923 108.376852 
L 564.293804 142.416939 
L 565.139686 162.407258 
L 565.703607 168.872374 
L 566.549489 180.194677 
L 568.241253 203.025004 
L 569.087134 212.656751 
L 569.651056 231.223509 
L 569.933016 239.942776 
L 570.496937 248.608645 
L 570.778898 251.873051 
L 571.060859 252.335339 
L 571.342819 245.901797 
L 571.62478 229.610679 
L 572.188701 168.854298 
L 572.752622 103.850251 
L 573.316543 69.632599 
L 573.598504 60.973245 
L 573.880464 55.835953 
L 574.162425 54.07981 
L 574.444386 54.856109 
L 574.726346 57.5513 
L 575.008307 62.884347 
L 576.41811 105.402653 
L 577.545952 140.775697 
L 578.673794 164.480287 
L 579.237716 173.313816 
L 580.083597 192.592052 
L 580.365558 195.886824 
L 580.647518 196.715641 
L 580.929479 198.101875 
L 581.4934 204.096569 
L 581.775361 202.690168 
L 582.057321 202.129443 
L 583.185164 221.672199 
L 583.749085 234.800575 
L 584.031046 237.581592 
L 584.313006 237.500473 
L 584.594967 231.664193 
L 584.876927 213.890257 
L 585.722809 132.276609 
L 586.568691 79.138581 
L 586.850651 68.500639 
L 587.132612 64.295615 
L 587.414573 64.517814 
L 587.696533 66.24324 
L 587.978494 69.195039 
L 588.542415 81.786032 
L 591.362021 158.310652 
L 591.925942 169.740643 
L 592.489863 176.034604 
L 593.617705 190.918642 
L 594.181627 196.583831 
L 595.027508 204.777152 
L 595.309469 206.163167 
L 595.59143 209.073233 
L 596.719272 226.420159 
L 597.001232 228.610692 
L 597.283193 229.730082 
L 597.565154 227.452227 
L 597.847114 216.714061 
L 598.411035 168.808352 
L 599.256917 98.276907 
L 599.820838 69.040711 
L 600.102799 64.193489 
L 600.38476 64.55988 
L 600.948681 67.133271 
L 601.230641 70.68252 
L 602.358484 100.792237 
L 602.922405 119.709848 
L 603.486326 134.728799 
L 604.050247 152.467288 
L 604.896129 165.433893 
L 605.46005 171.599382 
L 606.023971 177.327869 
L 606.869853 187.923076 
L 607.433774 194.050927 
L 607.997695 199.230961 
L 608.561617 210.193333 
L 609.407498 227.731729 
L 609.689459 231.698264 
L 609.971419 234.006182 
L 610.25338 234.825772 
L 610.535341 234.142486 
L 610.817301 228.505924 
L 611.099262 213.760639 
L 612.791025 73.677306 
L 613.072986 64.717388 
L 613.354946 61.674117 
L 613.636907 62.912019 
L 614.200828 70.738052 
L 614.764749 81.928947 
L 615.328671 102.205811 
L 615.892592 123.596526 
L 617.302395 161.854936 
L 618.148276 173.867516 
L 618.994158 182.484419 
L 619.558079 186.062084 
L 620.122001 191.765889 
L 620.403961 192.593147 
L 620.685922 192.909413 
L 620.967882 194.820973 
L 622.659646 221.275334 
L 623.223567 225.537896 
L 623.505528 225.336621 
L 623.787488 218.189363 
L 624.351409 182.062828 
L 625.479252 92.897283 
L 626.043173 71.440389 
L 626.325133 69.665089 
L 626.607094 72.835753 
L 627.171015 82.687874 
L 627.452976 87.298354 
L 628.016897 103.569907 
L 628.580818 116.418722 
L 628.862779 120.827053 
L 630.554542 160.315213 
L 630.836503 163.875053 
L 631.118463 165.226476 
L 631.964345 175.224499 
L 632.246306 176.017515 
L 632.810227 187.05558 
L 633.092188 198.18165 
L 633.092188 198.18165 
" clip-path="url(#p5e82f3ffb4)" style="fill: none; stroke: #1f77b4; stroke-width: 1.5; stroke-linecap: square"/>
   </g>
   <g id="patch_3">
    <path d="M 47.192188 266.112 
L 47.192188 0 
" style="fill: none; stroke: #808080; stroke-width: 0.8; stroke-linejoin: miter; stroke-linecap: square"/>
   </g>
   <g id="patch_4">
    <path d="M 660.992188 266.112 
L 660.992188 0 
" style="fill: none; stroke: #000000; stroke-width: 0.8; stroke-linejoin: miter; stroke-linecap: square"/>
   </g>
   <g id="patch_5">
    <path d="M 47.192188 266.112 
L 660.992188 266.112 
" style="fill: none; stroke: #808080; stroke-width: 0.8; stroke-linejoin: miter; stroke-linecap: square"/>
   </g>
   <g id="patch_6">
    <path d="M 47.192188 0 
L 660.992188 0 
" style="fill: none; stroke: #000000; stroke-width: 0.8; stroke-linejoin: miter; stroke-linecap: square"/>
   </g>
  </g>
 </g>
 <defs>
  <clipPath id="p5e82f3ffb4">
   <rect x="47.192188" y="0" width="613.8" height="266.112"/>
  </clipPath>
 </defs>
</svg>
