<svg xmlns="http://www.w3.org/2000/svg" xmlns:xlink="http://www.w3.org/1999/xlink" width="913.477" height="377.053" viewBox="0 0 685.107 282.79"><defs><style>*{stroke-linejoin:round;stroke-linecap:butt}</style></defs><g id="figure_1"><path id="patch_1" d="M0 282.79h685.107V0H0v282.79z" style="fill:none"/><g id="axes_1"><path id="patch_2" d="M71.308 266.112h613.8V0h-613.8v266.112z" style="fill:none"/><g id="matplotlib.axis_1"><g id="xtick_1"><g id="line2d_1"><defs><path id="mdc3c4afa9d" d="M0 0v3.5" style="stroke:gray;stroke-width:.8"/></defs><use xlink:href="#mdc3c4afa9d" x="99.207" y="266.112" style="fill:gray;stroke:gray;stroke-width:.8"/></g><g id="text_1" style="fill:gray" transform="matrix(.1 0 0 -.1 96.026 280.71)"><defs><path id="DejaVuSans-30" d="M2034 4250q-487 0-733-480-245-479-245-1442 0-959 245-1439 246-480 733-480 491 0 736 480 246 480 246 1439 0 963-246 1442-245 480-736 480zm0 500q785 0 1199-621 414-620 414-1801 0-1178-414-1799Q2819-91 2034-91q-784 0-1198 620-414 621-414 1799 0 1181 414 1801 414 621 1198 621z" transform="scale(.01563)"/></defs><use xlink:href="#DejaVuSans-30"/></g></g><g id="xtick_2"><use xlink:href="#mdc3c4afa9d" id="line2d_2" x="168.958" y="266.112" style="fill:gray;stroke:gray;stroke-width:.8"/><g id="text_2" style="fill:gray" transform="matrix(.1 0 0 -.1 159.414 280.71)"><defs><path id="DejaVuSans-35" d="M691 4666h2478v-532H1269V2991q137 47 274 70 138 23 276 23 781 0 1237-428 457-428 457-1159 0-753-469-1171Q2575-91 1722-91q-294 0-599 50Q819 9 494 109v635q281-153 581-228t634-75q541 0 856 284 316 284 316 772 0 487-316 771-315 285-856 285-253 0-505-56-251-56-513-175v2344z" transform="scale(.01563)"/></defs><use xlink:href="#DejaVuSans-35"/><use xlink:href="#DejaVuSans-30" x="63.623"/><use xlink:href="#DejaVuSans-30" x="127.246"/></g></g><g id="xtick_3"><use xlink:href="#mdc3c4afa9d" id="line2d_3" x="238.708" y="266.112" style="fill:gray;stroke:gray;stroke-width:.8"/><g id="text_3" style="fill:gray" transform="matrix(.1 0 0 -.1 225.982 280.71)"><defs><path id="DejaVuSans-31" d="M794 531h1031v3560L703 3866v575l1116 225h631V531h1031V0H794v531z" transform="scale(.01563)"/></defs><use xlink:href="#DejaVuSans-31"/><use xlink:href="#DejaVuSans-30" x="63.623"/><use xlink:href="#DejaVuSans-30" x="127.246"/><use xlink:href="#DejaVuSans-30" x="190.869"/></g></g><g id="xtick_4"><use xlink:href="#mdc3c4afa9d" id="line2d_4" x="308.457" y="266.112" style="fill:gray;stroke:gray;stroke-width:.8"/><g id="text_4" style="fill:gray" transform="matrix(.1 0 0 -.1 295.733 280.71)"><use xlink:href="#DejaVuSans-31"/><use xlink:href="#DejaVuSans-35" x="63.623"/><use xlink:href="#DejaVuSans-30" x="127.246"/><use xlink:href="#DejaVuSans-30" x="190.869"/></g></g><g id="xtick_5"><use xlink:href="#mdc3c4afa9d" id="line2d_5" x="378.207" y="266.112" style="fill:gray;stroke:gray;stroke-width:.8"/><g id="text_5" style="fill:gray" transform="matrix(.1 0 0 -.1 365.483 280.71)"><defs><path id="DejaVuSans-32" d="M1228 531h2203V0H469v531q359 372 979 998 621 627 780 809 303 340 423 576 121 236 121 464 0 372-261 606-261 235-680 235-297 0-627-103-329-103-704-313v638q381 153 712 231 332 78 607 78 725 0 1156-363 431-362 431-968 0-288-108-546-107-257-392-607-78-91-497-524-418-433-1181-1211z" transform="scale(.01563)"/></defs><use xlink:href="#DejaVuSans-32"/><use xlink:href="#DejaVuSans-30" x="63.623"/><use xlink:href="#DejaVuSans-30" x="127.246"/><use xlink:href="#DejaVuSans-30" x="190.869"/></g></g><g id="xtick_6"><use xlink:href="#mdc3c4afa9d" id="line2d_6" x="447.957" y="266.112" style="fill:gray;stroke:gray;stroke-width:.8"/><g id="text_6" style="fill:gray" transform="matrix(.1 0 0 -.1 435.233 280.71)"><use xlink:href="#DejaVuSans-32"/><use xlink:href="#DejaVuSans-35" x="63.623"/><use xlink:href="#DejaVuSans-30" x="127.246"/><use xlink:href="#DejaVuSans-30" x="190.869"/></g></g><g id="xtick_7"><use xlink:href="#mdc3c4afa9d" id="line2d_7" x="517.707" y="266.112" style="fill:gray;stroke:gray;stroke-width:.8"/><g id="text_7" style="fill:gray" transform="matrix(.1 0 0 -.1 504.983 280.71)"><defs><path id="DejaVuSans-33" d="M2597 2516q453-97 707-404 255-306 255-756 0-690-475-1069Q2609-91 1734-91q-293 0-604 58T488 141v609q262-153 574-231 313-78 654-78 593 0 904 234t311 681q0 413-289 645-289 233-804 233h-544v519h569q465 0 712 186t247 536q0 359-255 551-254 193-729 193-260 0-557-57-297-56-653-174v562q360 100 674 150t592 50q719 0 1137-327 419-326 419-882 0-388-222-655t-631-370z" transform="scale(.01563)"/></defs><use xlink:href="#DejaVuSans-33"/><use xlink:href="#DejaVuSans-30" x="63.623"/><use xlink:href="#DejaVuSans-30" x="127.246"/><use xlink:href="#DejaVuSans-30" x="190.869"/></g></g><g id="xtick_8"><use xlink:href="#mdc3c4afa9d" id="line2d_8" x="587.457" y="266.112" style="fill:gray;stroke:gray;stroke-width:.8"/><g id="text_8" style="fill:gray" transform="matrix(.1 0 0 -.1 574.732 280.71)"><use xlink:href="#DejaVuSans-33"/><use xlink:href="#DejaVuSans-35" x="63.623"/><use xlink:href="#DejaVuSans-30" x="127.246"/><use xlink:href="#DejaVuSans-30" x="190.869"/></g></g><g id="xtick_9"><use xlink:href="#mdc3c4afa9d" id="line2d_9" x="657.207" y="266.112" style="fill:gray;stroke:gray;stroke-width:.8"/><g id="text_9" style="fill:gray" transform="matrix(.1 0 0 -.1 644.482 280.71)"><defs><path id="DejaVuSans-34" d="M2419 4116 825 1625h1594v2491zm-166 550h794V1625h666v-525h-666V0h-628v1100H313v609l1940 2957z" transform="scale(.01563)"/></defs><use xlink:href="#DejaVuSans-34"/><use xlink:href="#DejaVuSans-30" x="63.623"/><use xlink:href="#DejaVuSans-30" x="127.246"/><use xlink:href="#DejaVuSans-30" x="190.869"/></g></g></g><g id="matplotlib.axis_2"><g id="ytick_1"><g id="line2d_10"><defs><path id="meb02aa0527" d="M0 0h-3.5" style="stroke:gray;stroke-width:.8"/></defs><use xlink:href="#meb02aa0527" x="71.308" y="212.099" style="fill:gray;stroke:gray;stroke-width:.8"/></g><g id="text_10" style="fill:gray" transform="matrix(.16 0 0 -.16 0 218.177)"><defs><path id="DejaVuSans-2212" d="M678 2272h4006v-531H678v531z" transform="scale(.01563)"/></defs><use xlink:href="#DejaVuSans-2212"/><use xlink:href="#DejaVuSans-31" x="83.789"/><use xlink:href="#DejaVuSans-30" x="147.412"/><use xlink:href="#DejaVuSans-30" x="211.035"/><use xlink:href="#DejaVuSans-30" x="274.658"/><use xlink:href="#DejaVuSans-30" x="338.281"/></g></g><g id="ytick_2"><use xlink:href="#meb02aa0527" id="line2d_11" x="71.308" y="158.006" style="fill:gray;stroke:gray;stroke-width:.8"/><use xlink:href="#DejaVuSans-30" id="text_11" style="fill:gray" transform="matrix(.16 0 0 -.16 54.127 164.085)"/></g><g id="ytick_3"><use xlink:href="#meb02aa0527" id="line2d_12" x="71.308" y="103.913" style="fill:gray;stroke:gray;stroke-width:.8"/><g id="text_12" style="fill:gray" transform="matrix(.16 0 0 -.16 13.408 109.992)"><use xlink:href="#DejaVuSans-31"/><use xlink:href="#DejaVuSans-30" x="63.623"/><use xlink:href="#DejaVuSans-30" x="127.246"/><use xlink:href="#DejaVuSans-30" x="190.869"/><use xlink:href="#DejaVuSans-30" x="254.492"/></g></g><g id="ytick_4"><use xlink:href="#meb02aa0527" id="line2d_13" x="71.308" y="49.82" style="fill:gray;stroke:gray;stroke-width:.8"/><g id="text_13" style="fill:gray" transform="matrix(.16 0 0 -.16 13.408 55.899)"><use xlink:href="#DejaVuSans-32"/><use xlink:href="#DejaVuSans-30" x="63.623"/><use xlink:href="#DejaVuSans-30" x="127.246"/><use xlink:href="#DejaVuSans-30" x="190.869"/><use xlink:href="#DejaVuSans-30" x="254.492"/></g></g></g><path id="line2d_14" d="m99.207 158.03.846-.045.846.038.846-.031 1.41.023 1.692-.005 3.947-.016.846.03.846-.045.282.058.282-.067.282.077.282-.09.282.105.282-.124.282.15.282-.181.282.203.282.05.281 15 .282 2.909.564-4.027.846-9.985.564-2.13.564-1.05.282 1.072.282 1.602.282.92.564-.978.282.616.282 1.248.282.48.846.632.282-1.55.282-2.216.282-.63.282 2.545 1.127 15.185.282 2.153.282-1.531.282-5.622.564-20.664.564-28.655.282-8.642.282-2.105.282 3.191.564 14.596.846 19.994.564 9.246 1.41 14.493.281 1.087.282-.662.846-8.436.846-2.428.282.6.282.978.282-.253.564-3.184.282-1.75.282-.989.282 1.398.564 7.437 1.128 7.99.282-2.164.563-10.17.282-.263 1.128 8.583.282 1.31.282-1.396.282-5.265.564-22.282.564-25.97.282-7.373.282-1.506.282 3.375.564 12.382.846 27.324.564 7.465.564 5.182.282.949.845 4.668.846-3.168.846-6.41.564 1.02.282-.495.282-.261.282.13.282-1.323.282-2.524.282-1.173.564 1.377.282-.147.282 1.49.564 6.32.564 2.87.281 1.937.282.24.564-3.066.282-.13.282.748.282 1.653.282 3.21.564 9.128.282 1.06.282-3.966.282-8.866.564-32.534.564-38.027.282-8.995.282-.647.282 5.206.564 19.877.846 38.043.281 6.809.846 9.379.282 1.307.282.317.564 1.525.282-1.468.564-4.743.282-4.162.564-10.268.282.804.282 2.139.564.106.564 5.763.282.73.282-.304.282.556.282 1.16.282 1.777.845 10.81.282-1.712.282-2.627.564-1.845.564-3.75.282 1.737.282 4.294.282 1.822.282-3.725.282-8.409.564-28.75.564-31.928.282-6.22.282.218.282 6.27 1.691 67.467.282 1.763.282-1.57.282.696.282 2.435.282.668.564-2.39.282-1.472.564-3.9.282-.686.846-.32.846 1.948.282.028.282.592.846 3.576.282.555.282.884.563 4.124.282.766.282.197.564 5.603.282-1.702.564-18.01.282-9.82 1.128-51.39.282 1.616.282 3.867.282 6.034.846 29.249.564 18.519.564 7.599.564 5.437.281-.264.282-.508.282.246.282-1.544.282-3.983.282-2.388.282 1.232.282 1.76.282-.028.282.464.282 2.187.282.411.846-11.827.564 6.38.564-4.112.282 1.974.282 4.028.282 1.991.282 1.065.564 5.663.281-.314.282-3.47.282-6.555.564-26.702.564-29.138.282-9.56.282-3.438.282 2.595.564 11.947.564 21.145.564 20.259.282 7.77.282 4.299.282.802.282 1.597.564 9.932.282 2.667.282 1.217.282-.086.282-3.193.563-9.865.846-8.364.282.537.564 4.472.846 3.956.846 4.55.282-.904.282-2.177.282-1.07.282 1.353.846 8.297.282 1.23.282-.961.282-5.23.282-11.09 1.41-75.766.281-3.649.282 2.746.282 7.756.564 27.353.564 28.146.564 17.64.282 6.499.282 3.202.564 2.175.282.38.282-1.627.564-4.31.846-4.511.281-.493.564-1.411.282-.061.282-.248.282-.93.282-.182.564 1.818.282.684.282 2.504.282 3.898.282 2.347.282-.325.282-1.032.282-.28.282.392.282 1.244.846 9.378.282.636.282-2.222.282-6.577.282-12.416 1.41-84.974.281-4.763.282 2.521.282 9.097 1.692 76.272.564 6.452.564 3.494.282.586.282-1.045.282-2.373.282-1.258.564 2.49.282-1.184.282-1.947.281-.237.282.424.846-2.132.282-.721.282-1.548.282-.232.564 3.286.564 1.205.282.831.282-.278.282-.721.282.756 1.128 7.205.282 1.335.282.045.282.231.846 3.704.563 4.297.282.45.282-1.549.282-5.347.282-12.977 1.128-78.897.282-10.67.282-4.485.282 1.623.282 6.476.282 11.713 1.128 63.4.564 13.888.564 7.56.564 4.773.281.163 1.692-11.486.282-.952.282-1.384.564-4.618.282-.95.282-2.041.282-3.532.282-1.58.282 2.51.564 7.123.846 3.76.282.003.564-3.94.282-.227.281.914.282.157.282-.383.282.917.564 4.823.282 1.345.282-.464.282-1.983.282-1.11.282 1.681 1.128 12.758.282 1.936.282-2.196.282-6.558.282-11.56 1.41-81.047.282-2.607.282 4.797.563 22.818 1.128 50.557.564 9.327.282 2.82.282 1.605.282.755.282.248.282-.835 1.128-8.04.282-.632.564.33.564-1.095.282-.757.282-1.711.563-4.802.846-4.77.282.155.282 1.704.282 2.62.282 4.395.564 11.777.282 1.364.564-2.48.564-1.156.282.067.282 2.129 1.128 12.574.282.876.282-1.742.282-4.6.282-7.785.563-27.567.846-49.288.282-5.702.282.94.282 5.398.564 18.916.846 34.367.846 21.69.282 3.358.564 1.49.282.183.282-1.858.564-5.575.564-1.964.282-.194.563 2.028.282.2.564-.406.282-1.246.564-4.182.282.18.846 4.262.564 2.486.564 3.873.282.782.282-1.235.282-2.385.282-1.134.282 1.562.564 6.059.564 3.71.281.676.282-2.234.282-6.532.282-11.684 1.128-66.925.282-8.333.282-1.338.282 5.383.564 17.285.564 32.06.282 16.387.282 8.948.846 13.748.282.247.846-6.532 1.127-6.034.282-.494.282.05.282.167.282-.53.282-1.345.282-.645.282 1.547.282 2.262.282.166.282-1.65.282-.316.282 1.6.282.645.564-3.047.282 1.412.564 5.533.282.401.564-2.216.282.259.282 2.481 1.127 14.42.282 1.32.282-3.226.282-8.827.564-34.524.564-39.757.282-13.407.282-7.282.282-.42.282 5.32.564 21.214.846 48.12.282 8.547.564 8.345.564 4.922.281.754.282.252.282.9.282.314.282-2.41.282-3.812.282-1.471.564 2.247.282.418.564 4.235.282-.617.564-9.127.282-2.293.282-1.27.846-7.29.282 1.917 1.128 11.178.282 2.415.281 1.336.282.402.282-.774.282-1.427.282.424.846 10.29.282 1.894.282 1.06.282-3.135.282-9.734.564-32.344.846-56.806.282-7.405.282 2.206.564 18.821.564 32.122.564 32.456.281 5.979.564 5.03.282-.738.282-1.976.282.492.282 2.022.282-.52 1.128-11.942.282-1.4.282 2.986.282 5.02.282 1.912.564-4.183.564-1.264.282-1.674.282-.64.846 3.127.845 4.857.846-1.147.282-.018.282 2.063.846 14.222.282 2.288.282 1.099.282-2.162.282-8.476.564-32.117.846-51.362.282-7.54.282 1.287.564 13.86.564 26.082.563 28.125.282 8.374.282 2.656.282-.836.282.119.282 2.1.282 1.19.282-.525.282-.01.282.809.282-.594.282-1.913.282-.46.564 3.195.282-.547.846-3.376.282-2.037.282.063.846 11.309.281.456.564-.923.282.904.282 2.914.564 11.51.282 6.696.282 2.692.282-4.232.564-20.621.282-15.731.846-65.716.282-9.702.282-3.923.282-1.17.282 1.734.282 5.614.564 21.584 1.127 54.985.564 13.586.282 3.878.282 1.98.564 1.708.282-.882.564-6.244.282-.848.846 2.319.846 7.494.564 3.047.282 1.654.282-.35.564-5.615.282-.755.282 1.898.845 10.083.282 1.771.282-.59.282-6.773.282-15.892 1.41-103.853.282-8.957.282-2.562.282 1.83.282 6.08.282 11.072 1.41 76.997.564 18.18.282 5.052.281 1.92.564 6.33.282.552.564-5.457.282-.716.282.044.282.334.846 3.51.564-.279.282.739.564 2.875.282.987.282 2 .846 12.396.282 1.895.564 7.247.282-.126.281-6.865.282-12.208.564-40.905.846-74.096.564-30.15.282-4.491.282.86.282 3.275.282 9.278 1.692 112.702.282 7.887.564 7.144.282 1.114.564-1.51.281.159.564-1.47.282 1.55.564 6.159.282 1.172.282.215.282-.388.564-1.578.282.89.846 10.134.282.153.282-1.082.282-.04.282 2.39.846 13.775.282 1.004.282-1.584.282-6.289.281-15.253.564-56.998.846-91.301.282-17.54.282-6.668.282 1.215.282 7.003.282 14.027 1.692 119.452.564 17.524.282 3.857.282.396.282-.334.564 4.205.282-.107.282-.639.563 3.675.282-1.99.282-4.479.282-2.531.282.041.282.283.282.557.564 5.454.846 6.403.282.007.282-1.023.282 2.003 1.128 25.174.282-.065.282-4.934.282-12.313.564-49.798.845-80.84.564-34.54.282-7.175.282-.872.282 4.955.564 21.137.564 31.492.846 57.707.564 30.21.282 10.193.282 4.434.282.529.282-1.199.846-5.255.282-.353.281 2.35.564 8.793.564 1.47.564 7.23.282.702.282-.668.282 1.354.282 2.436.282 1.389.282 2.07.564 10.15.282 2.369.282.467.282.128.282-3.611.282-12.076.564-45.245 1.41-130.8.281-9.347.282 1.173.846 20.736.282 12.217 1.692 103.588.564 18.029.282 4.07.282-.375.282-.75.846 4.32.564 2.434.282-.364.282-.588.281 2.395.564 8.585.564 5.212 1.128 11.882.564 2.653.282 3.63.564 11.927.282 3.698.282 1.239.282-3.579.282-11.346.564-46.55 1.128-133.303.282-18.143.282-10.595.281-3.864.282 1.716.564 11.916.282 8.314.282 12.708.564 44.213.846 67.098.282 16.063.282 9.325.282 2.679.282-.55.564-2.555.282-.331.282 1.57.564 3.887.282.561.282 1.082.564 3.955.281-.185.846-7.935.282.613.282 1.715.282 2.495.282 4.403.846 16.331.564 4.998.282 3.494.564 11.48.564 12.782.282 1.342.282-4.893.282-13.7.282-24.959 1.41-166.321.281-17.497.282-6.441.282.671.282 2.675.282 5.206.282 10.538.564 31.61.564 45.058.564 46.418.564 22.296.282 6.126.282 2.711.282-.039.282-.34.282.276.282-.48.282-1.303.282.048.564 4.14.281-.228.564-2.781.282-.809.846-3.27.282 2.058 1.41 22.221.282.698.564-3.001.282 1.855.564 12.022.846 20.324.282-2.093.282-11.403.282-20.592.563-63.928.564-66.647.564-40.05.282-9.056.282-2.898.282.878.282 4.135.282 8.839.564 30.864 1.41 95.146.564 13.2 1.128 15.626.282 3.265.281 1.852.282-.428.282-.815.564 1.458.282-1.301.282-2.055.282.478 1.128 14.513.282 4.572.282 2.69.282.227.282-.149.282.424.282.177.282.808.282 3.439.282 4.992.282 2.68.282-1.51.282-5.043.282-9.328.282-16.883.563-60.376.564-65.296.282-19.12.564-16.413.282-6.108.282-2.687.282 2.655.564 12.005.282 13.507 1.41 111.896.282 12.779.282 5.744.564 7.535.282 4.027.282 2.187.563 2.484.282.625.282-.037.282-.685.564-3.244.282.09.564 3.193.282 2.302.846 10.012.564 2.436.282.35.282.039.282 1.773.564 9.702.282 4.885.282 2.88.282-.971.282-6.693.282-14.47.563-55.604.846-89.545.564-36.46.282-6.551.564-5.962.282 2.148.282 9.53.564 31.242.564 42.928.846 67.171.282 14.334.282 7.912.282 2.679.282.05.282-.492.282-.024.563.63.282.21.564 1.531.282-.376.564-1.953.282-.455.564-1.593.282.672.564 3.032.282 2.466.564 6.869.282 1.918.282.689.282.334.282 1.61.282 4.806.846 21.86.282 1.444.281-6.34.282-16.85.564-57.642.846-98.942.282-21.145.282-11.177.564-8.62.282-.835.282 4.776.564 27.228.846 56.552.846 64.175.282 10.722.564 10.36.282 3.205.282 1.884.845 3.081.282-.012.564-.629.282-2.087.564-9.187.564-4.186.282-2.334.282-.878.282 3.67.564 13.693 1.128 18.874.282.863.564-3.703.282 1.28.282 4.712.563 13.245.282 3.59.282-1.703.282-8.016.282-15.426.564-59.998.564-73.69.564-41.023.282-10.711.282-6.461.282-.868.282 5.056.564 18.85.564 30.56 1.41 106.471.281 7.959.282 4.234.282 1.96.282-.573.564-3.627.282-.918.282-.459.282.175.564.96.282 1.387.282 2.25.282 1.187.282-.071.282 1.591.564 8.974.282 1.884.282.002.564-.91.282.14.282 2.03.282 4.422.845 19.956.282 1.801.282-3.331.282-9.023.282-16.815.564-56.662.846-83.971.282-17.561.282-10.092.564-11.006.282-1.79.282 5.25.564 25.393.564 38.033.846 65.941.563 20.836 1.128 19.606.282.952.282-.642.282 1.294.282 2.764.846 4.96.564 4.785.564 3.927.282.097.564-3.745.282-.06.282 1.24.282 2.89 1.128 17.937.281-.825.282-7.862.282-15.763.564-56.875.564-67.972.564-43.325.282-14.106.282-7.611.282-2.113.282 1.163.282 4.357.564 18.603.564 34.957 1.128 88.002.564 24.556.282 4.223.845 5.726 1.128 9.49.846 11.037.282.936.282-.552.282.402.282 1.27.282-.303.282-1.17.282 1.699 1.41 22.214.282-5.525.564-34.484.281-28.767.846-116.477.564-32.205.282-9.007.282-3.539.282 1.999.564 10.008.282 7.225.282 11.992.564 41.076.846 66.227.564 28.302.564 13.795.846 10.954.563 5.583.846 5.621.282.304.282-.079.282 1.11.846 8.039.282 2.75.282 1.41.282-.843.282-1.498.282.68.846 11.36.282-1.226.282-8.732.282-18.158.564-63.875.564-76.003.563-40.461.282-10.17.282-5.097.282 1.196.564 11.391.282 8.808.564 27.676.564 36.448.846 60.209.564 26.093.282 4.885.282 1.93.846 8.648.282 1.196.564 3.807.281.343.282-.24.282.272.282.715.282 1.159.846 6.068.282.123.282-.705.282.463.282 3.124.564 11.122.564 12.546.282.739.282-8.698.282-19.769.564-71.885.564-79.605.282-24.819.282-14.593.282-6.592.281-.262.282 3.621.564 11.911.564 18.465.564 30.634 1.41 90.995.564 16.046.564 12.244.564 5.724.564 9.214.282 2.027.282-1.722.564-7.495.281-1.055.282 1.604 1.128 13.822.282 1.33.282 2.548.564 9.052.282 5.707.282 2.32.282-6.455.282-16.97.564-61.813.846-113.143.282-17.73.282-8.092.282-1.81.282 1.317.282 2.655.282 5.474.845 32.213.564 25.623 1.974 102.05.282 8.002 1.128 16.773.564 8.926 1.128 12.307.282 1.222.282-.805.282-.04.563 4.14.564 6.9.282 3.043.282-1.46.282-7.78.282-15.036.282-24.422 1.128-136.44.282-17.102.282-9.415.282-4.035.282-.08.564 6.11.564 9.511.564 19.398 1.127 58.364.564 30.998.564 17.09.846 14.487.564 6.094.282 1.495.846 1.282.282 1.23.282 2.493.564 8.527 1.128 21.773.564 8.917.563 5.097.564 9.02.282-4.725.282-16.916.564-65.653.564-78.793.564-41.922.282-8.976.282-.986.846 15.793.564 16.08.564 19.266 1.41 63.639.563 15.757 1.128 22.308.564 6.122.282 1.54.282 2.294.564 7.35.282 1.899.282.316.282-.347.282-.025.282.93 1.128 6.757.282.76.282-.711.282.286.282 4.224 1.127 28.893.282.721.282-8.498.282-21.854.564-79.905.564-78.219.282-23.346.282-11.647.282-2.511.282 2.199.282 3.636.282 5.481 1.128 31.36.846 35.993 1.41 63.622.563 13.181.564 7.747.282 2.111.282 3.434.564 9.866.282 1.474.282-.683.282-.197.282 1.048.282.333.282-.79.282-.385.282 1.404 1.41 10.792.282.47.281 2.731 1.128 26.428.282-1.415.282-10.784.282-23.158 1.41-167.94.282-7.641.282-.025 1.41 17.13.564 19.754.846 33.192.281 18.492h0" clip-path="url(#p0c50e9b1a3)" style="fill:none;stroke:#1f77b4;stroke-width:1.5;stroke-linecap:square"/><path id="patch_3" d="M71.308 266.112V0" style="fill:none;stroke:gray;stroke-width:.8;stroke-linejoin:miter;stroke-linecap:square"/><path id="patch_4" d="M685.107 266.112V0" style="fill:none;stroke:#000;stroke-width:.8;stroke-linejoin:miter;stroke-linecap:square"/><path id="patch_5" d="M71.308 266.112h613.8" style="fill:none;stroke:gray;stroke-width:.8;stroke-linejoin:miter;stroke-linecap:square"/><path id="patch_6" d="M71.308 0h613.8" style="fill:none;stroke:#000;stroke-width:.8;stroke-linejoin:miter;stroke-linecap:square"/></g></g><defs><clipPath id="p0c50e9b1a3"><path d="M71.308 0h613.8v266.112h-613.8z"/></clipPath></defs></svg>