<?xml version="1.0" encoding="utf-8" standalone="no"?>
<!DOCTYPE svg PUBLIC "-//W3C//DTD SVG 1.1//EN"
  "http://www.w3.org/Graphics/SVG/1.1/DTD/svg11.dtd">
<svg xmlns:xlink="http://www.w3.org/1999/xlink" width="660.992188pt" height="282.790125pt" viewBox="0 0 660.992188 282.790125" xmlns="http://www.w3.org/2000/svg" version="1.1">
 <metadata>
  <rdf:RDF xmlns:dc="http://purl.org/dc/elements/1.1/" xmlns:cc="http://creativecommons.org/ns#" xmlns:rdf="http://www.w3.org/1999/02/22-rdf-syntax-ns#">
   <cc:Work>
    <dc:type rdf:resource="http://purl.org/dc/dcmitype/StillImage"/>
    <dc:date>2023-03-06T19:30:31.738285</dc:date>
    <dc:format>image/svg+xml</dc:format>
    <dc:creator>
     <cc:Agent>
      <dc:title>Matplotlib v3.6.3, https://matplotlib.org/</dc:title>
     </cc:Agent>
    </dc:creator>
   </cc:Work>
  </rdf:RDF>
 </metadata>
 <defs>
  <style type="text/css">*{stroke-linejoin: round; stroke-linecap: butt}</style>
 </defs>
 <g id="figure_1">
  <g id="patch_1">
   <path d="M -0 282.790125 
L 660.992188 282.790125 
L 660.992188 0 
L -0 0 
L -0 282.790125 
z
" style="fill: none"/>
  </g>
  <g id="axes_1">
   <g id="patch_2">
    <path d="M 47.192188 266.112 
L 660.992188 266.112 
L 660.992188 0 
L 47.192188 0 
L 47.192188 266.112 
z
" style="fill: none"/>
   </g>
   <g id="matplotlib.axis_1">
    <g id="xtick_1">
     <g id="line2d_1">
      <defs>
       <path id="ma6c726b756" d="M 0 0 
L 0 3.5 
" style="stroke: #000000; stroke-width: 0.8"/>
      </defs>
      <g>
       <use xlink:href="#ma6c726b756" x="75.092188" y="266.112" style="stroke: #000000; stroke-width: 0.8"/>
      </g>
     </g>
     <g id="text_1">
      <!-- 0 -->
      <g transform="translate(71.910938 280.710438) scale(0.1 -0.1)">
       <defs>
        <path id="DejaVuSans-30" d="M 2034 4250 
Q 1547 4250 1301 3770 
Q 1056 3291 1056 2328 
Q 1056 1369 1301 889 
Q 1547 409 2034 409 
Q 2525 409 2770 889 
Q 3016 1369 3016 2328 
Q 3016 3291 2770 3770 
Q 2525 4250 2034 4250 
z
M 2034 4750 
Q 2819 4750 3233 4129 
Q 3647 3509 3647 2328 
Q 3647 1150 3233 529 
Q 2819 -91 2034 -91 
Q 1250 -91 836 529 
Q 422 1150 422 2328 
Q 422 3509 836 4129 
Q 1250 4750 2034 4750 
z
" transform="scale(0.015625)"/>
       </defs>
       <use xlink:href="#DejaVuSans-30"/>
      </g>
     </g>
    </g>
    <g id="xtick_2">
     <g id="line2d_2">
      <g>
       <use xlink:href="#ma6c726b756" x="144.842188" y="266.112" style="stroke: #000000; stroke-width: 0.8"/>
      </g>
     </g>
     <g id="text_2">
      <!-- 500 -->
      <g transform="translate(135.298438 280.710438) scale(0.1 -0.1)">
       <defs>
        <path id="DejaVuSans-35" d="M 691 4666 
L 3169 4666 
L 3169 4134 
L 1269 4134 
L 1269 2991 
Q 1406 3038 1543 3061 
Q 1681 3084 1819 3084 
Q 2600 3084 3056 2656 
Q 3513 2228 3513 1497 
Q 3513 744 3044 326 
Q 2575 -91 1722 -91 
Q 1428 -91 1123 -41 
Q 819 9 494 109 
L 494 744 
Q 775 591 1075 516 
Q 1375 441 1709 441 
Q 2250 441 2565 725 
Q 2881 1009 2881 1497 
Q 2881 1984 2565 2268 
Q 2250 2553 1709 2553 
Q 1456 2553 1204 2497 
Q 953 2441 691 2322 
L 691 4666 
z
" transform="scale(0.015625)"/>
       </defs>
       <use xlink:href="#DejaVuSans-35"/>
       <use xlink:href="#DejaVuSans-30" x="63.623047"/>
       <use xlink:href="#DejaVuSans-30" x="127.246094"/>
      </g>
     </g>
    </g>
    <g id="xtick_3">
     <g id="line2d_3">
      <g>
       <use xlink:href="#ma6c726b756" x="214.592188" y="266.112" style="stroke: #000000; stroke-width: 0.8"/>
      </g>
     </g>
     <g id="text_3">
      <!-- 1000 -->
      <g transform="translate(201.867188 280.710438) scale(0.1 -0.1)">
       <defs>
        <path id="DejaVuSans-31" d="M 794 531 
L 1825 531 
L 1825 4091 
L 703 3866 
L 703 4441 
L 1819 4666 
L 2450 4666 
L 2450 531 
L 3481 531 
L 3481 0 
L 794 0 
L 794 531 
z
" transform="scale(0.015625)"/>
       </defs>
       <use xlink:href="#DejaVuSans-31"/>
       <use xlink:href="#DejaVuSans-30" x="63.623047"/>
       <use xlink:href="#DejaVuSans-30" x="127.246094"/>
       <use xlink:href="#DejaVuSans-30" x="190.869141"/>
      </g>
     </g>
    </g>
    <g id="xtick_4">
     <g id="line2d_4">
      <g>
       <use xlink:href="#ma6c726b756" x="284.342188" y="266.112" style="stroke: #000000; stroke-width: 0.8"/>
      </g>
     </g>
     <g id="text_4">
      <!-- 1500 -->
      <g transform="translate(271.617188 280.710438) scale(0.1 -0.1)">
       <use xlink:href="#DejaVuSans-31"/>
       <use xlink:href="#DejaVuSans-35" x="63.623047"/>
       <use xlink:href="#DejaVuSans-30" x="127.246094"/>
       <use xlink:href="#DejaVuSans-30" x="190.869141"/>
      </g>
     </g>
    </g>
    <g id="xtick_5">
     <g id="line2d_5">
      <g>
       <use xlink:href="#ma6c726b756" x="354.092188" y="266.112" style="stroke: #000000; stroke-width: 0.8"/>
      </g>
     </g>
     <g id="text_5">
      <!-- 2000 -->
      <g transform="translate(341.367188 280.710438) scale(0.1 -0.1)">
       <defs>
        <path id="DejaVuSans-32" d="M 1228 531 
L 3431 531 
L 3431 0 
L 469 0 
L 469 531 
Q 828 903 1448 1529 
Q 2069 2156 2228 2338 
Q 2531 2678 2651 2914 
Q 2772 3150 2772 3378 
Q 2772 3750 2511 3984 
Q 2250 4219 1831 4219 
Q 1534 4219 1204 4116 
Q 875 4013 500 3803 
L 500 4441 
Q 881 4594 1212 4672 
Q 1544 4750 1819 4750 
Q 2544 4750 2975 4387 
Q 3406 4025 3406 3419 
Q 3406 3131 3298 2873 
Q 3191 2616 2906 2266 
Q 2828 2175 2409 1742 
Q 1991 1309 1228 531 
z
" transform="scale(0.015625)"/>
       </defs>
       <use xlink:href="#DejaVuSans-32"/>
       <use xlink:href="#DejaVuSans-30" x="63.623047"/>
       <use xlink:href="#DejaVuSans-30" x="127.246094"/>
       <use xlink:href="#DejaVuSans-30" x="190.869141"/>
      </g>
     </g>
    </g>
    <g id="xtick_6">
     <g id="line2d_6">
      <g>
       <use xlink:href="#ma6c726b756" x="423.842188" y="266.112" style="stroke: #000000; stroke-width: 0.8"/>
      </g>
     </g>
     <g id="text_6">
      <!-- 2500 -->
      <g transform="translate(411.117188 280.710438) scale(0.1 -0.1)">
       <use xlink:href="#DejaVuSans-32"/>
       <use xlink:href="#DejaVuSans-35" x="63.623047"/>
       <use xlink:href="#DejaVuSans-30" x="127.246094"/>
       <use xlink:href="#DejaVuSans-30" x="190.869141"/>
      </g>
     </g>
    </g>
    <g id="xtick_7">
     <g id="line2d_7">
      <g>
       <use xlink:href="#ma6c726b756" x="493.592188" y="266.112" style="stroke: #000000; stroke-width: 0.8"/>
      </g>
     </g>
     <g id="text_7">
      <!-- 3000 -->
      <g transform="translate(480.867188 280.710438) scale(0.1 -0.1)">
       <defs>
        <path id="DejaVuSans-33" d="M 2597 2516 
Q 3050 2419 3304 2112 
Q 3559 1806 3559 1356 
Q 3559 666 3084 287 
Q 2609 -91 1734 -91 
Q 1441 -91 1130 -33 
Q 819 25 488 141 
L 488 750 
Q 750 597 1062 519 
Q 1375 441 1716 441 
Q 2309 441 2620 675 
Q 2931 909 2931 1356 
Q 2931 1769 2642 2001 
Q 2353 2234 1838 2234 
L 1294 2234 
L 1294 2753 
L 1863 2753 
Q 2328 2753 2575 2939 
Q 2822 3125 2822 3475 
Q 2822 3834 2567 4026 
Q 2313 4219 1838 4219 
Q 1578 4219 1281 4162 
Q 984 4106 628 3988 
L 628 4550 
Q 988 4650 1302 4700 
Q 1616 4750 1894 4750 
Q 2613 4750 3031 4423 
Q 3450 4097 3450 3541 
Q 3450 3153 3228 2886 
Q 3006 2619 2597 2516 
z
" transform="scale(0.015625)"/>
       </defs>
       <use xlink:href="#DejaVuSans-33"/>
       <use xlink:href="#DejaVuSans-30" x="63.623047"/>
       <use xlink:href="#DejaVuSans-30" x="127.246094"/>
       <use xlink:href="#DejaVuSans-30" x="190.869141"/>
      </g>
     </g>
    </g>
    <g id="xtick_8">
     <g id="line2d_8">
      <g>
       <use xlink:href="#ma6c726b756" x="563.342188" y="266.112" style="stroke: #000000; stroke-width: 0.8"/>
      </g>
     </g>
     <g id="text_8">
      <!-- 3500 -->
      <g transform="translate(550.617188 280.710438) scale(0.1 -0.1)">
       <use xlink:href="#DejaVuSans-33"/>
       <use xlink:href="#DejaVuSans-35" x="63.623047"/>
       <use xlink:href="#DejaVuSans-30" x="127.246094"/>
       <use xlink:href="#DejaVuSans-30" x="190.869141"/>
      </g>
     </g>
    </g>
    <g id="xtick_9">
     <g id="line2d_9">
      <g>
       <use xlink:href="#ma6c726b756" x="633.092188" y="266.112" style="stroke: #000000; stroke-width: 0.8"/>
      </g>
     </g>
     <g id="text_9">
      <!-- 4000 -->
      <g transform="translate(620.367188 280.710438) scale(0.1 -0.1)">
       <defs>
        <path id="DejaVuSans-34" d="M 2419 4116 
L 825 1625 
L 2419 1625 
L 2419 4116 
z
M 2253 4666 
L 3047 4666 
L 3047 1625 
L 3713 1625 
L 3713 1100 
L 3047 1100 
L 3047 0 
L 2419 0 
L 2419 1100 
L 313 1100 
L 313 1709 
L 2253 4666 
z
" transform="scale(0.015625)"/>
       </defs>
       <use xlink:href="#DejaVuSans-34"/>
       <use xlink:href="#DejaVuSans-30" x="63.623047"/>
       <use xlink:href="#DejaVuSans-30" x="127.246094"/>
       <use xlink:href="#DejaVuSans-30" x="190.869141"/>
      </g>
     </g>
    </g>
   </g>
   <g id="matplotlib.axis_2">
    <g id="ytick_1">
     <g id="line2d_10">
      <defs>
       <path id="mb02cf464a0" d="M 0 0 
L -3.5 0 
" style="stroke: #000000; stroke-width: 0.8"/>
      </defs>
      <g>
       <use xlink:href="#mb02cf464a0" x="47.192188" y="212.098565" style="stroke: #000000; stroke-width: 0.8"/>
      </g>
     </g>
     <g id="text_10">
      <!-- −10000 -->
      <g transform="translate(0 215.897784) scale(0.1 -0.1)">
       <defs>
        <path id="DejaVuSans-2212" d="M 678 2272 
L 4684 2272 
L 4684 1741 
L 678 1741 
L 678 2272 
z
" transform="scale(0.015625)"/>
       </defs>
       <use xlink:href="#DejaVuSans-2212"/>
       <use xlink:href="#DejaVuSans-31" x="83.789062"/>
       <use xlink:href="#DejaVuSans-30" x="147.412109"/>
       <use xlink:href="#DejaVuSans-30" x="211.035156"/>
       <use xlink:href="#DejaVuSans-30" x="274.658203"/>
       <use xlink:href="#DejaVuSans-30" x="338.28125"/>
      </g>
     </g>
    </g>
    <g id="ytick_2">
     <g id="line2d_11">
      <g>
       <use xlink:href="#mb02cf464a0" x="47.192188" y="158.005771" style="stroke: #000000; stroke-width: 0.8"/>
      </g>
     </g>
     <g id="text_11">
      <!-- 0 -->
      <g transform="translate(33.829688 161.80499) scale(0.1 -0.1)">
       <use xlink:href="#DejaVuSans-30"/>
      </g>
     </g>
    </g>
    <g id="ytick_3">
     <g id="line2d_12">
      <g>
       <use xlink:href="#mb02cf464a0" x="47.192188" y="103.912977" style="stroke: #000000; stroke-width: 0.8"/>
      </g>
     </g>
     <g id="text_12">
      <!-- 10000 -->
      <g transform="translate(8.379688 107.712196) scale(0.1 -0.1)">
       <use xlink:href="#DejaVuSans-31"/>
       <use xlink:href="#DejaVuSans-30" x="63.623047"/>
       <use xlink:href="#DejaVuSans-30" x="127.246094"/>
       <use xlink:href="#DejaVuSans-30" x="190.869141"/>
       <use xlink:href="#DejaVuSans-30" x="254.492188"/>
      </g>
     </g>
    </g>
    <g id="ytick_4">
     <g id="line2d_13">
      <g>
       <use xlink:href="#mb02cf464a0" x="47.192188" y="49.820183" style="stroke: #000000; stroke-width: 0.8"/>
      </g>
     </g>
     <g id="text_13">
      <!-- 20000 -->
      <g transform="translate(8.379688 53.619402) scale(0.1 -0.1)">
       <use xlink:href="#DejaVuSans-32"/>
       <use xlink:href="#DejaVuSans-30" x="63.623047"/>
       <use xlink:href="#DejaVuSans-30" x="127.246094"/>
       <use xlink:href="#DejaVuSans-30" x="190.869141"/>
       <use xlink:href="#DejaVuSans-30" x="254.492188"/>
      </g>
     </g>
    </g>
   </g>
   <g id="line2d_14">
    <path d="M 75.092188 158.030939 
L 75.938069 157.98501 
L 76.783951 158.02287 
L 77.629833 157.991843 
L 79.039636 158.015058 
L 80.731399 158.009864 
L 84.678847 157.993786 
L 85.524729 158.023856 
L 86.370611 157.978909 
L 86.652572 158.036536 
L 86.934532 157.970376 
L 87.216493 158.046755 
L 87.498453 157.957912 
L 87.780414 158.062269 
L 88.062374 157.938209 
L 88.344335 158.087586 
L 88.626296 157.906954 
L 88.908256 158.110171 
L 89.190217 158.159175 
L 89.472177 173.159443 
L 89.754138 176.068542 
L 90.318059 172.04151 
L 91.163941 162.057452 
L 91.727862 159.927381 
L 92.291783 158.877611 
L 92.573744 159.948907 
L 92.855704 161.550864 
L 93.137665 162.470765 
L 93.701586 161.492634 
L 93.983547 162.108648 
L 94.265507 163.356634 
L 94.547468 163.836187 
L 95.39335 164.468844 
L 95.67531 162.918156 
L 95.957271 160.703318 
L 96.239231 160.072999 
L 96.521192 162.618406 
L 97.649034 177.802988 
L 97.930995 179.955533 
L 98.212956 178.424572 
L 98.494916 172.803454 
L 99.058837 152.13859 
L 99.622758 123.484291 
L 99.904719 114.841523 
L 100.18668 112.737273 
L 100.46864 115.928361 
L 101.032561 130.524157 
L 101.878443 150.517912 
L 102.442364 159.764406 
L 103.852167 174.257166 
L 104.134128 175.344111 
L 104.416088 174.681645 
L 105.26197 166.245519 
L 106.107852 163.818189 
L 106.389813 164.417161 
L 106.671773 165.395768 
L 106.953734 165.142993 
L 107.517655 161.958822 
L 107.799615 160.209867 
L 108.081576 159.220172 
L 108.363537 160.618373 
L 108.927458 168.054561 
L 110.0553 176.045593 
L 110.337261 173.880742 
L 110.901182 163.711893 
L 111.183143 163.448248 
L 112.310985 172.030631 
L 112.592945 173.341171 
L 112.874906 171.945322 
L 113.156867 166.680409 
L 113.720788 144.398029 
L 114.284709 118.428585 
L 114.56667 111.054702 
L 114.84863 109.549173 
L 115.130591 112.924409 
L 115.694512 125.305562 
L 116.540394 152.630429 
L 117.104315 160.095446 
L 117.668236 165.276868 
L 117.950197 166.225759 
L 118.796078 170.893829 
L 119.64196 167.726138 
L 120.487842 161.316212 
L 121.051763 162.335686 
L 121.333724 161.840583 
L 121.615684 161.579772 
L 121.897645 161.710493 
L 122.179605 160.38716 
L 122.461566 157.862962 
L 122.743527 156.689771 
L 123.307448 158.066714 
L 123.589408 157.920166 
L 123.871369 159.409733 
L 124.43529 165.729665 
L 124.999211 168.600777 
L 125.281172 170.537159 
L 125.563132 170.777054 
L 126.127054 167.710676 
L 126.409014 167.581655 
L 126.690975 168.32912 
L 126.972935 169.981847 
L 127.254896 173.191413 
L 127.818817 182.320188 
L 128.100778 183.379172 
L 128.382738 179.413725 
L 128.664699 170.548232 
L 129.22862 138.014093 
L 129.792541 99.987178 
L 130.074502 90.992339 
L 130.356462 90.34521 
L 130.638423 95.551055 
L 131.202344 115.428127 
L 132.048226 153.471322 
L 132.330186 160.279981 
L 133.176068 169.658715 
L 133.458029 170.966298 
L 133.739989 171.283374 
L 134.303911 172.807517 
L 134.585871 171.340261 
L 135.149792 166.597439 
L 135.431753 162.435157 
L 135.995674 152.167392 
L 136.277635 152.971423 
L 136.559595 155.109825 
L 137.123516 155.216038 
L 137.687438 160.97895 
L 137.969398 161.708988 
L 138.251359 161.405258 
L 138.533319 161.960726 
L 138.81528 163.120222 
L 139.097241 164.898142 
L 139.943122 175.707524 
L 140.225083 173.995688 
L 140.507043 171.369155 
L 141.070965 169.523827 
L 141.634886 165.7743 
L 141.916846 167.511312 
L 142.198807 171.80495 
L 142.480768 173.626874 
L 142.762728 169.902313 
L 143.044689 161.493259 
L 143.60861 132.743099 
L 144.172531 100.814934 
L 144.454492 94.594602 
L 144.736452 94.813282 
L 145.018413 101.082421 
L 146.710176 168.550179 
L 146.992137 170.312506 
L 147.274098 168.742674 
L 147.556058 169.438656 
L 147.838019 171.873648 
L 148.119979 172.542477 
L 148.6839 170.151323 
L 148.965861 168.680498 
L 149.529782 164.780481 
L 149.811743 164.094088 
L 150.657625 163.773997 
L 151.503506 165.721695 
L 151.785467 165.750169 
L 152.067428 166.342015 
L 152.913309 169.917524 
L 153.19527 170.473003 
L 153.47723 171.35723 
L 154.041152 175.480883 
L 154.323112 176.247449 
L 154.605073 176.44374 
L 155.168994 182.047083 
L 155.450955 180.344502 
L 156.014876 162.334574 
L 156.296836 152.514917 
L 157.424679 101.124549 
L 157.706639 102.740937 
L 157.9886 106.607617 
L 158.27056 112.641566 
L 159.116442 141.890892 
L 159.680363 160.409555 
L 160.244285 168.008933 
L 160.808206 173.445824 
L 161.090166 173.182489 
L 161.372127 172.674455 
L 161.654087 172.919695 
L 161.936048 171.375621 
L 162.218009 167.393207 
L 162.499969 165.004967 
L 162.78193 166.237396 
L 163.06389 167.997793 
L 163.345851 167.968814 
L 163.627812 168.433311 
L 163.909772 170.620247 
L 164.191733 171.030978 
L 165.037614 159.20361 
L 165.601536 165.584146 
L 166.165457 161.472008 
L 166.447417 163.446087 
L 166.729378 167.4739 
L 167.011339 169.465094 
L 167.293299 170.530482 
L 167.85722 176.192554 
L 168.139181 175.878702 
L 168.421142 172.409037 
L 168.703102 165.854348 
L 169.267023 139.152106 
L 169.830944 110.013565 
L 170.112905 100.453354 
L 170.394866 97.016218 
L 170.676826 99.61107 
L 171.240747 111.5576 
L 171.804669 132.70326 
L 172.36859 152.961999 
L 172.65055 160.731803 
L 172.932511 165.030627 
L 173.214471 165.833168 
L 173.496432 167.429657 
L 174.060353 177.361829 
L 174.342314 180.028587 
L 174.624274 181.245899 
L 174.906235 181.159765 
L 175.188196 177.967205 
L 175.752117 168.102333 
L 176.597999 159.738056 
L 176.879959 160.274885 
L 177.44388 164.747028 
L 178.289762 168.702786 
L 179.135644 173.252625 
L 179.417604 172.348981 
L 179.699565 170.171616 
L 179.981526 169.102582 
L 180.263486 170.455205 
L 181.109368 178.751831 
L 181.391328 179.981974 
L 181.673289 179.020877 
L 181.95525 173.790944 
L 182.23721 162.700221 
L 183.647013 86.934567 
L 183.928974 83.286253 
L 184.210934 86.032065 
L 184.492895 93.787568 
L 185.056816 121.140658 
L 185.620737 149.287424 
L 186.184658 166.927154 
L 186.466619 173.42586 
L 186.74858 176.627668 
L 187.312501 178.803233 
L 187.594461 179.183443 
L 187.876422 177.555605 
L 188.440343 173.2463 
L 189.286225 168.734966 
L 189.568185 168.242193 
L 190.132107 166.830573 
L 190.414067 166.769844 
L 190.696028 166.521811 
L 190.977988 165.591215 
L 191.259949 165.409929 
L 191.82387 167.227592 
L 192.105831 167.911756 
L 192.387791 170.415516 
L 192.669752 174.313868 
L 192.951713 176.660533 
L 193.233673 176.336136 
L 193.515634 175.304149 
L 193.797594 175.023595 
L 194.079555 175.416449 
L 194.361515 176.660213 
L 195.207397 186.038207 
L 195.489358 186.673968 
L 195.771318 184.451698 
L 196.053279 177.874888 
L 196.33524 165.458582 
L 197.745042 80.485106 
L 198.027003 75.722449 
L 198.308964 78.242978 
L 198.590924 87.339545 
L 200.282688 163.612131 
L 200.846609 170.064228 
L 201.41053 173.557651 
L 201.692491 174.144337 
L 201.974451 173.098559 
L 202.256412 170.725679 
L 202.538372 169.467619 
L 203.102294 171.957397 
L 203.384254 170.773961 
L 203.666215 168.827177 
L 203.948175 168.589507 
L 204.230136 169.013728 
L 205.076018 166.882397 
L 205.357978 166.161027 
L 205.639939 164.612843 
L 205.921899 164.380663 
L 206.485821 167.666903 
L 207.049742 168.872362 
L 207.331702 169.70332 
L 207.613663 169.425087 
L 207.895624 168.703623 
L 208.177584 169.460082 
L 209.305427 176.665388 
L 209.587387 178.000007 
L 209.869348 178.044772 
L 210.151308 178.276037 
L 210.99719 181.979767 
L 211.561111 186.277146 
L 211.843072 186.7269 
L 212.125032 185.178442 
L 212.406993 179.830874 
L 212.688954 166.853578 
L 213.816796 87.956611 
L 214.098756 77.286185 
L 214.380717 72.802194 
L 214.662678 74.425246 
L 214.944638 80.901071 
L 215.226599 92.614051 
L 216.354441 156.014638 
L 216.918362 169.902435 
L 217.482284 177.462552 
L 218.046205 182.234712 
L 218.328165 182.397593 
L 220.019929 170.911528 
L 220.301889 169.959682 
L 220.58385 168.576265 
L 221.147771 163.957505 
L 221.429732 163.007999 
L 221.711692 160.966734 
L 221.993653 157.435121 
L 222.275613 155.855818 
L 222.557574 158.364823 
L 223.121495 165.488141 
L 223.967377 169.247166 
L 224.249338 169.250523 
L 224.813259 165.311692 
L 225.095219 165.083577 
L 225.37718 165.998079 
L 225.659141 166.154649 
L 225.941101 165.772138 
L 226.223062 166.689082 
L 226.786983 171.512423 
L 227.068943 172.856533 
L 227.350904 172.392979 
L 227.632865 170.40986 
L 227.914825 169.299913 
L 228.196786 170.981351 
L 229.324628 183.739214 
L 229.606589 185.675012 
L 229.888549 183.479039 
L 230.17051 176.921078 
L 230.45247 165.361566 
L 231.862273 84.314424 
L 232.144234 81.707242 
L 232.426195 86.504456 
L 232.990116 109.322117 
L 234.117958 159.879314 
L 234.681879 169.205959 
L 234.96384 172.026378 
L 235.2458 173.631196 
L 235.527761 174.386143 
L 235.809722 174.633509 
L 236.091682 173.799018 
L 237.219525 165.758221 
L 237.501485 165.127471 
L 238.065406 165.456953 
L 238.629327 164.36221 
L 238.911288 163.604657 
L 239.193249 161.89365 
L 239.75717 157.091889 
L 240.603052 152.322574 
L 240.885012 152.477023 
L 241.166973 154.181342 
L 241.448933 156.800461 
L 241.730894 161.195715 
L 242.294815 172.972768 
L 242.576776 174.337387 
L 243.140697 171.856526 
L 243.704618 170.701252 
L 243.986579 170.767736 
L 244.268539 172.896809 
L 245.396382 185.471172 
L 245.678342 186.347121 
L 245.960303 184.604829 
L 246.242263 180.004341 
L 246.524224 172.219714 
L 247.088145 144.652716 
L 247.934027 95.364556 
L 248.215987 89.663496 
L 248.497948 90.603719 
L 248.779909 96.000621 
L 249.34383 114.917116 
L 250.189712 149.283534 
L 251.035593 170.974406 
L 251.317554 174.332284 
L 251.881475 175.822521 
L 252.163436 176.004798 
L 252.445396 174.146722 
L 253.009317 168.572332 
L 253.573239 166.608087 
L 253.855199 166.413892 
L 254.41912 168.442218 
L 254.701081 168.642096 
L 255.265002 168.235715 
L 255.546963 166.989963 
L 256.110884 162.808151 
L 256.392844 162.988766 
L 257.238726 167.249849 
L 257.802647 169.736317 
L 258.366569 173.609497 
L 258.648529 174.391109 
L 258.93049 173.155605 
L 259.21245 170.770569 
L 259.494411 169.636842 
L 259.776371 171.198611 
L 260.340293 177.257524 
L 260.904214 180.968252 
L 261.186174 181.644262 
L 261.468135 179.409977 
L 261.750096 172.878171 
L 262.032056 161.193808 
L 263.159898 94.268512 
L 263.441859 85.935548 
L 263.72382 84.597896 
L 264.00578 89.981131 
L 264.569701 107.266076 
L 265.133623 139.326378 
L 265.415583 155.712614 
L 265.697544 164.660722 
L 266.543425 178.409285 
L 266.825386 178.65555 
L 267.671268 172.124023 
L 268.79911 166.089615 
L 269.081071 165.595514 
L 269.363031 165.646007 
L 269.644992 165.812522 
L 269.926953 165.282352 
L 270.208913 163.938274 
L 270.490874 163.293498 
L 270.772834 164.839682 
L 271.054795 167.101986 
L 271.336755 167.268072 
L 271.618716 165.618835 
L 271.900677 165.302078 
L 272.182637 166.902715 
L 272.464598 167.546506 
L 273.028519 164.500129 
L 273.31048 165.911832 
L 273.874401 171.445367 
L 274.156361 171.846203 
L 274.720282 169.630373 
L 275.002243 169.888617 
L 275.284204 172.370163 
L 276.412046 186.789177 
L 276.694007 188.110366 
L 276.975967 184.883553 
L 277.257928 176.056941 
L 277.821849 141.533172 
L 278.38577 101.776401 
L 278.667731 88.36948 
L 278.949691 81.086887 
L 279.231652 80.666239 
L 279.513612 85.986929 
L 280.077534 107.200846 
L 280.923415 155.321679 
L 281.205376 163.86828 
L 281.769297 172.212506 
L 282.333218 177.134993 
L 282.615179 177.888791 
L 282.897139 178.141244 
L 283.1791 179.041204 
L 283.461061 179.355068 
L 283.743021 176.944818 
L 284.024982 173.132738 
L 284.306942 171.661829 
L 284.870864 173.909305 
L 285.152824 174.32708 
L 285.716745 178.56216 
L 285.998706 177.944538 
L 286.562627 168.8184 
L 286.844588 166.524861 
L 287.126548 165.25515 
L 287.97243 157.964274 
L 288.254391 159.882483 
L 289.382233 171.059561 
L 289.664194 173.474534 
L 289.946154 174.811367 
L 290.228115 175.212877 
L 290.510075 174.439477 
L 290.792036 173.011767 
L 291.073996 173.43585 
L 291.919878 183.726053 
L 292.201839 185.620338 
L 292.483799 186.67964 
L 292.76576 183.544954 
L 293.047721 173.810955 
L 293.611642 141.467022 
L 294.457524 84.661048 
L 294.739484 77.256294 
L 295.021445 79.462282 
L 295.585366 98.283077 
L 296.149287 130.405336 
L 296.713208 162.861372 
L 296.995169 168.839908 
L 297.55909 173.870464 
L 297.841051 173.13192 
L 298.123011 171.155878 
L 298.404972 171.648294 
L 298.686932 173.669741 
L 298.968893 173.150075 
L 300.096735 161.208166 
L 300.378696 159.80746 
L 300.660656 162.794068 
L 300.942617 167.814032 
L 301.224578 169.726486 
L 301.788499 165.542834 
L 302.35242 164.278649 
L 302.634381 162.604649 
L 302.916341 161.965717 
L 303.762223 165.091951 
L 304.608105 169.94913 
L 305.453986 168.80177 
L 305.735947 168.784181 
L 306.017908 170.847003 
L 306.863789 185.068758 
L 307.14575 187.356503 
L 307.42771 188.455863 
L 307.709671 186.294444 
L 307.991632 177.818059 
L 308.555553 145.701315 
L 309.401435 94.339343 
L 309.683395 86.799339 
L 309.965356 88.08617 
L 310.529277 101.946797 
L 311.093198 128.027611 
L 311.657119 156.152935 
L 311.93908 164.526816 
L 312.22104 167.183326 
L 312.503001 166.347168 
L 312.784962 166.46588 
L 313.066922 168.566466 
L 313.348883 169.755553 
L 313.630843 169.231227 
L 313.912804 169.220961 
L 314.194765 170.029903 
L 314.476725 169.435905 
L 314.758686 167.52313 
L 315.040646 167.062972 
L 315.604567 170.258384 
L 315.886528 169.71076 
L 316.73241 166.335026 
L 317.01437 164.297744 
L 317.296331 164.36056 
L 318.142213 175.669706 
L 318.424173 176.125884 
L 318.988095 175.203335 
L 319.270055 176.106921 
L 319.552016 179.021121 
L 320.115937 190.530771 
L 320.397897 197.226716 
L 320.679858 199.918713 
L 320.961819 195.686955 
L 321.52574 175.065559 
L 321.8077 159.334683 
L 322.653582 93.619257 
L 322.935543 83.916663 
L 323.217503 79.99395 
L 323.499464 78.824768 
L 323.781424 80.558047 
L 324.063385 86.172245 
L 324.627306 107.755599 
L 325.755149 162.740622 
L 326.31907 176.327322 
L 326.60103 180.205101 
L 326.882991 182.184171 
L 327.446912 183.893357 
L 327.728873 183.011334 
L 328.292794 176.766521 
L 328.574754 175.919036 
L 329.420636 178.237524 
L 330.266518 185.73205 
L 330.830439 188.778693 
L 331.1124 190.433335 
L 331.39436 190.082638 
L 331.958281 184.468043 
L 332.240242 183.713067 
L 332.522203 185.611229 
L 333.368084 195.693671 
L 333.650045 197.465335 
L 333.932006 196.875707 
L 334.213966 190.101996 
L 334.495927 174.210129 
L 335.90573 70.357178 
L 336.18769 61.399934 
L 336.469651 58.837617 
L 336.751611 60.667065 
L 337.033572 66.748514 
L 337.315533 77.819628 
L 338.725336 154.816871 
L 339.289257 172.99614 
L 339.571217 178.049129 
L 339.853178 179.96917 
L 340.417099 186.299444 
L 340.69906 186.851414 
L 341.262981 181.393832 
L 341.544941 180.677752 
L 341.826902 180.722229 
L 342.108863 181.056215 
L 342.954744 184.565713 
L 343.518666 184.28713 
L 343.800626 185.025509 
L 344.364547 187.900546 
L 344.646508 188.887554 
L 344.928468 190.888091 
L 345.77435 203.28385 
L 346.056311 205.179311 
L 346.620232 212.425588 
L 346.902193 212.300291 
L 347.184153 205.435247 
L 347.466114 193.226939 
L 348.030035 152.322477 
L 348.875917 78.225839 
L 349.439838 48.076216 
L 349.721798 43.584895 
L 350.003759 44.444861 
L 350.28572 47.719531 
L 350.56768 56.998407 
L 352.259444 169.700026 
L 352.541404 177.586999 
L 353.105325 184.731136 
L 353.387286 185.844785 
L 353.951207 184.335709 
L 354.233168 184.493923 
L 354.797089 183.02439 
L 355.07905 184.573903 
L 355.642971 190.732702 
L 355.924931 191.905158 
L 356.206892 192.11956 
L 356.488852 191.732036 
L 357.052774 190.154496 
L 357.334734 191.043582 
L 358.180616 201.177532 
L 358.462577 201.331397 
L 358.744537 200.249485 
L 359.026498 200.209799 
L 359.308458 202.599548 
L 360.15434 216.374447 
L 360.436301 217.378485 
L 360.718261 215.794403 
L 361.000222 209.505118 
L 361.282182 194.252495 
L 361.846104 137.254005 
L 362.691985 45.952746 
L 362.973946 28.412897 
L 363.255907 21.74522 
L 363.537867 22.960244 
L 363.819828 29.963449 
L 364.101788 43.990444 
L 365.793552 163.441843 
L 366.357473 180.965775 
L 366.639434 184.822524 
L 366.921394 185.219322 
L 367.203355 184.885082 
L 367.767276 189.090138 
L 368.049237 188.982931 
L 368.331197 188.344065 
L 368.895118 192.018516 
L 369.177079 190.028311 
L 369.459039 185.549995 
L 369.741 183.018583 
L 370.022961 183.060342 
L 370.304921 183.343257 
L 370.586882 183.899807 
L 371.150803 189.353892 
L 371.996685 195.756653 
L 372.278645 195.764229 
L 372.560606 194.74072 
L 372.842566 196.744187 
L 373.970409 221.918323 
L 374.252369 221.852624 
L 374.53433 216.918905 
L 374.816291 204.60639 
L 375.380212 154.807695 
L 376.226094 73.96852 
L 376.790015 39.427103 
L 377.071975 32.253288 
L 377.353936 31.38144 
L 377.635896 36.335956 
L 378.199818 57.472895 
L 378.763739 88.964812 
L 379.609621 146.671832 
L 380.173542 176.881074 
L 380.455502 187.075071 
L 380.737463 191.508771 
L 381.019423 192.037883 
L 381.301384 190.839296 
L 382.147266 185.583786 
L 382.429226 185.230936 
L 382.711187 187.58179 
L 383.275108 196.37373 
L 383.839029 197.844218 
L 384.402951 205.073611 
L 384.684911 205.776384 
L 384.966872 205.107647 
L 385.248832 206.462204 
L 385.530793 208.897864 
L 385.812753 210.286921 
L 386.094714 212.356379 
L 386.658635 222.506478 
L 386.940596 224.875752 
L 387.222556 225.342608 
L 387.504517 225.470719 
L 387.786478 221.859818 
L 388.068438 209.784378 
L 388.632359 164.538995 
L 390.042162 33.739721 
L 390.324123 24.391909 
L 390.606083 25.564781 
L 391.451965 46.301443 
L 391.733926 58.518401 
L 393.425689 162.105583 
L 393.98961 180.13504 
L 394.271571 184.205017 
L 394.553532 183.82975 
L 394.835492 183.08047 
L 395.681374 187.400474 
L 396.245295 189.833823 
L 396.527256 189.470381 
L 396.809216 188.882218 
L 397.091177 191.276525 
L 397.655098 199.861543 
L 398.219019 205.0736 
L 399.346862 216.956376 
L 399.910783 219.608916 
L 400.192743 223.23987 
L 400.756665 235.165573 
L 401.038625 238.863968 
L 401.320586 240.102907 
L 401.602546 236.524363 
L 401.884507 225.178022 
L 402.448428 178.627167 
L 403.57627 45.324935 
L 403.858231 27.181678 
L 404.140192 16.587243 
L 404.422152 12.723496 
L 404.704113 14.439174 
L 405.268034 26.35484 
L 405.549994 34.669405 
L 405.831955 47.377113 
L 406.395876 91.589936 
L 407.241758 158.687554 
L 407.523719 174.751289 
L 407.805679 184.07568 
L 408.08764 186.755001 
L 408.3696 186.205318 
L 408.933522 183.650263 
L 409.215482 183.318742 
L 409.497443 184.889769 
L 410.061364 188.776014 
L 410.343324 189.33741 
L 410.625285 190.41944 
L 411.189206 194.373984 
L 411.471167 194.189185 
L 412.317049 186.253672 
L 412.599009 186.866798 
L 412.88097 188.582066 
L 413.16293 191.076992 
L 413.444891 195.47961 
L 414.290773 211.811179 
L 414.854694 216.809138 
L 415.136654 220.30311 
L 415.700576 231.783641 
L 416.264497 244.565475 
L 416.546457 245.906929 
L 416.828418 241.013788 
L 417.110379 227.314587 
L 417.392339 202.354976 
L 418.802142 36.033698 
L 419.084103 18.53662 
L 419.366063 12.096 
L 419.648024 12.76748 
L 419.929984 15.441926 
L 420.211945 20.647567 
L 420.493906 31.186344 
L 421.057827 62.796872 
L 421.621748 107.853674 
L 422.185669 154.271594 
L 422.74959 176.567684 
L 423.031551 182.694223 
L 423.313511 185.405218 
L 423.595472 185.366091 
L 423.877433 185.026504 
L 424.159393 185.302375 
L 424.441354 184.822039 
L 424.723314 183.51878 
L 425.005275 183.566827 
L 425.569196 187.707094 
L 425.851157 187.478681 
L 426.415078 184.697611 
L 426.697038 183.889384 
L 427.54292 180.619878 
L 427.824881 182.677101 
L 429.234684 204.898384 
L 429.516644 205.595806 
L 430.080565 202.595001 
L 430.362526 204.450449 
L 430.926447 216.472168 
L 431.772329 236.795724 
L 432.05429 234.703045 
L 432.33625 223.299845 
L 432.618211 202.708014 
L 433.182132 138.77962 
L 433.746053 72.132804 
L 434.309974 32.083314 
L 434.591935 23.026734 
L 434.873895 20.129071 
L 435.155856 21.007007 
L 435.437817 25.141657 
L 435.719777 33.98061 
L 436.283698 64.844824 
L 437.693501 159.990912 
L 438.257422 173.191168 
L 439.385265 188.8167 
L 439.667225 192.082138 
L 439.949186 193.934218 
L 440.231147 193.506318 
L 440.513107 192.691297 
L 441.077028 194.14857 
L 441.358989 192.847921 
L 441.64095 190.793217 
L 441.92291 191.271085 
L 443.050752 205.784082 
L 443.332713 210.355573 
L 443.614674 213.045132 
L 443.896634 213.272982 
L 444.178595 213.123982 
L 444.460555 213.548427 
L 444.742516 213.725354 
L 445.024477 214.532924 
L 445.306437 217.971693 
L 445.588398 222.964452 
L 445.870358 225.644738 
L 446.152319 224.133909 
L 446.434279 219.090844 
L 446.71624 209.76328 
L 446.998201 192.880283 
L 447.562122 132.504221 
L 448.126043 67.208104 
L 448.408004 48.087945 
L 448.971925 31.675262 
L 449.253885 25.566528 
L 449.535846 22.880169 
L 449.817806 25.53485 
L 450.381728 37.54033 
L 450.663688 51.047157 
L 452.073491 162.942787 
L 452.355452 175.721633 
L 452.637412 181.465925 
L 453.201334 189.00129 
L 453.483294 193.027934 
L 453.765255 195.215119 
L 454.329176 197.698754 
L 454.611136 198.323666 
L 454.893097 198.286802 
L 455.175058 197.602045 
L 455.738979 194.35785 
L 456.020939 194.447062 
L 456.584861 197.641133 
L 456.866821 199.942843 
L 457.712703 209.955094 
L 458.276624 212.390885 
L 458.558585 212.741749 
L 458.840545 212.779968 
L 459.122506 214.552763 
L 459.686427 224.255042 
L 459.968388 229.139523 
L 460.250348 232.020161 
L 460.532309 231.048849 
L 460.814269 224.355753 
L 461.09623 209.886914 
L 461.660151 154.281806 
L 462.506033 64.736871 
L 463.069954 28.277607 
L 463.351915 21.725913 
L 463.915836 15.76441 
L 464.197796 17.912113 
L 464.479757 27.442683 
L 465.043678 58.683623 
L 465.607599 101.612432 
L 466.453481 168.783424 
L 466.735442 183.116906 
L 467.017402 191.028514 
L 467.299363 193.707659 
L 467.581323 193.757958 
L 467.863284 193.265898 
L 468.145245 193.241673 
L 468.709166 193.871546 
L 468.991126 194.082134 
L 469.555048 195.613472 
L 469.837008 195.237495 
L 470.400929 193.284263 
L 470.68289 192.828738 
L 471.246811 191.235777 
L 471.528772 191.907874 
L 472.092693 194.940005 
L 472.374653 197.405571 
L 472.938575 204.274678 
L 473.220535 206.192784 
L 473.502496 206.88186 
L 473.784456 207.215854 
L 474.066417 208.825084 
L 474.348377 213.632063 
L 475.194259 235.49239 
L 475.47622 236.936336 
L 475.75818 230.596271 
L 476.040141 213.745674 
L 476.604062 156.104111 
L 477.449944 57.162223 
L 477.731905 36.01674 
L 478.013865 24.840437 
L 478.577786 16.219412 
L 478.859747 15.385268 
L 479.141707 20.16055 
L 479.705629 47.389077 
L 480.55151 103.941487 
L 481.397392 168.11645 
L 481.679353 178.838132 
L 482.243274 189.197961 
L 482.525234 192.403453 
L 482.807195 194.286911 
L 483.653077 197.368463 
L 483.935037 197.356006 
L 484.498959 196.727283 
L 484.780919 194.64045 
L 485.34484 185.453169 
L 485.908762 181.266846 
L 486.190722 178.932922 
L 486.472683 178.054967 
L 486.754643 181.725699 
L 487.318564 195.417966 
L 488.446407 214.292418 
L 488.728367 215.154864 
L 489.292289 211.451817 
L 489.574249 212.732316 
L 489.85621 217.444199 
L 490.420131 230.689032 
L 490.702091 234.279709 
L 490.984052 232.575975 
L 491.266013 224.560264 
L 491.547973 209.134371 
L 492.111894 149.136045 
L 492.675816 75.446619 
L 493.239737 34.422567 
L 493.521697 23.711614 
L 493.803658 17.250671 
L 494.085619 16.383135 
L 494.367579 21.439361 
L 494.9315 40.289648 
L 495.495421 70.849627 
L 496.905224 177.320165 
L 497.187185 185.278511 
L 497.469146 189.512647 
L 497.751106 191.47273 
L 498.033067 190.900111 
L 498.596988 187.273405 
L 498.878948 186.354887 
L 499.160909 185.896178 
L 499.44287 186.071055 
L 500.006791 187.03052 
L 500.288751 188.417938 
L 500.570712 190.66821 
L 500.852673 191.8554 
L 501.134633 191.783901 
L 501.416594 193.375053 
L 501.980515 202.34856 
L 502.262476 204.232927 
L 502.544436 204.234526 
L 503.108357 203.324181 
L 503.390318 203.46441 
L 503.672278 205.495008 
L 503.954239 209.916738 
L 504.800121 229.872847 
L 505.082081 231.674141 
L 505.364042 228.342678 
L 505.646003 219.319731 
L 505.927963 202.505019 
L 506.491884 145.842923 
L 507.337766 61.871577 
L 507.619727 44.310574 
L 507.901687 34.21886 
L 508.465608 23.213081 
L 508.747569 21.423647 
L 509.02953 26.673398 
L 509.593451 52.0658 
L 510.157372 90.099049 
L 511.003254 156.040494 
L 511.567175 176.876248 
L 512.695017 196.482279 
L 512.976978 197.434055 
L 513.258938 196.791564 
L 513.540899 198.085992 
L 513.82286 200.850074 
L 514.668741 205.810015 
L 515.232662 210.595019 
L 515.796584 214.521839 
L 516.078544 214.618737 
L 516.642465 210.874251 
L 516.924426 210.813233 
L 517.206387 212.054001 
L 517.488347 214.943385 
L 518.61619 232.881494 
L 518.89815 232.056245 
L 519.180111 224.194461 
L 519.462071 208.430715 
L 520.025992 151.555805 
L 520.589914 83.583863 
L 521.153835 40.258873 
L 521.435795 26.153116 
L 521.717756 18.541638 
L 521.999717 16.429399 
L 522.281677 17.59169 
L 522.563638 21.948537 
L 523.127559 40.552247 
L 523.69148 75.509301 
L 524.819322 163.510852 
L 525.383244 188.066626 
L 525.665204 192.289791 
L 526.511086 198.016431 
L 527.638928 207.506949 
L 528.48481 218.543181 
L 528.766771 219.479232 
L 529.048731 218.926753 
L 529.330692 219.329431 
L 529.612652 220.598527 
L 529.894613 220.295662 
L 530.176574 219.126555 
L 530.458534 220.824634 
L 531.868337 243.039008 
L 532.150298 237.514111 
L 532.714219 203.02968 
L 532.996179 174.262683 
L 533.842061 57.785565 
L 534.405982 25.580826 
L 534.687943 16.574108 
L 534.969904 13.035428 
L 535.251864 15.03386 
L 535.815785 25.041837 
L 536.097746 32.266593 
L 536.379706 44.259477 
L 536.943628 85.334801 
L 537.789509 151.562481 
L 538.353431 179.863845 
L 538.917352 193.658782 
L 539.763233 204.613473 
L 540.327155 210.196349 
L 541.173036 215.817142 
L 541.454997 216.120617 
L 541.736958 216.042254 
L 542.018918 217.152669 
L 542.8648 225.190769 
L 543.146761 227.940611 
L 543.428721 229.350284 
L 543.710682 228.508474 
L 543.992642 227.010115 
L 544.274603 227.689176 
L 545.120485 239.050229 
L 545.402445 237.823807 
L 545.684406 229.091824 
L 545.966366 210.934112 
L 546.530288 147.05912 
L 547.094209 71.055701 
L 547.65813 30.594605 
L 547.94009 20.424681 
L 548.222051 15.328349 
L 548.504012 16.523612 
L 549.067933 27.915165 
L 549.349893 36.723292 
L 549.913815 64.398906 
L 550.477736 100.847452 
L 551.323618 161.055954 
L 551.887539 187.14881 
L 552.169499 192.03361 
L 552.45146 193.964588 
L 553.297342 202.612343 
L 553.579302 203.808035 
L 554.143223 207.61469 
L 554.425184 207.958425 
L 554.707145 207.718342 
L 554.989105 207.990075 
L 555.271066 208.705309 
L 555.553026 209.863629 
L 556.398908 215.931919 
L 556.680869 216.055292 
L 556.962829 215.349977 
L 557.24479 215.813396 
L 557.52675 218.936864 
L 558.090672 230.059232 
L 558.654593 242.60514 
L 558.936553 243.343783 
L 559.218514 234.645649 
L 559.500475 214.877272 
L 560.064396 142.991541 
L 560.628317 63.386624 
L 560.910277 38.568156 
L 561.192238 23.97503 
L 561.474199 17.383328 
L 561.756159 17.121201 
L 562.03812 20.742215 
L 562.602041 32.653121 
L 563.165962 51.118074 
L 563.729883 81.752331 
L 565.139686 172.747072 
L 565.703607 188.792902 
L 566.267529 201.036975 
L 566.83145 206.761016 
L 567.395371 215.975456 
L 567.677332 218.001805 
L 567.959292 216.279835 
L 568.523213 208.785218 
L 568.805174 207.729894 
L 569.087134 209.334212 
L 570.214977 223.156266 
L 570.496937 224.486896 
L 570.778898 227.033654 
L 571.342819 236.085618 
L 571.62478 241.79344 
L 571.90674 244.112643 
L 572.188701 237.657932 
L 572.470661 220.68772 
L 573.034583 158.875354 
L 573.880464 45.731865 
L 574.162425 28.001402 
L 574.444386 19.910381 
L 574.726346 18.100583 
L 575.008307 19.417245 
L 575.290267 22.071974 
L 575.572228 27.546075 
L 576.41811 59.759097 
L 576.982031 85.381538 
L 578.955755 187.431892 
L 579.237716 195.433646 
L 580.365558 212.207341 
L 580.929479 221.133044 
L 582.057321 233.440087 
L 582.339282 234.662163 
L 582.621243 233.857083 
L 582.903203 233.817921 
L 583.467124 237.95682 
L 584.031046 244.85636 
L 584.313006 247.899543 
L 584.594967 246.439262 
L 584.876927 238.660776 
L 585.158888 223.624365 
L 585.440848 199.20164 
L 586.568691 62.762763 
L 586.850651 45.660141 
L 587.132612 36.244525 
L 587.414573 32.210413 
L 587.696533 32.129871 
L 588.260454 38.239956 
L 588.824375 47.751228 
L 589.388297 67.148639 
L 590.516139 125.513067 
L 591.08006 156.510788 
L 591.643981 173.601655 
L 592.489863 188.087608 
L 593.053784 194.182099 
L 593.335745 195.677268 
L 594.181627 196.959412 
L 594.463587 198.189694 
L 594.745548 200.681859 
L 595.309469 209.208798 
L 596.437311 230.981994 
L 597.001232 239.899214 
L 597.565154 244.996167 
L 598.129075 254.016 
L 598.411035 249.290776 
L 598.692996 232.375117 
L 599.256917 166.721643 
L 599.820838 87.928817 
L 600.38476 46.007067 
L 600.66672 37.031317 
L 600.948681 36.044679 
L 601.794562 51.838017 
L 602.358484 67.917708 
L 602.922405 87.184214 
L 604.332208 150.822873 
L 604.896129 166.580431 
L 606.023971 188.888362 
L 606.587892 195.010233 
L 606.869853 196.549544 
L 607.151814 198.844332 
L 607.715735 206.194673 
L 607.997695 208.092517 
L 608.279656 208.409262 
L 608.561617 208.061546 
L 608.843577 208.036723 
L 609.125538 208.967172 
L 610.25338 215.723648 
L 610.535341 216.484235 
L 610.817301 215.773044 
L 611.099262 216.059249 
L 611.381222 220.283005 
L 612.509065 249.175664 
L 612.791025 249.897329 
L 613.072986 241.399308 
L 613.354946 219.545069 
L 613.918868 139.640238 
L 614.482789 61.421347 
L 614.764749 38.075173 
L 615.04671 26.42811 
L 615.328671 23.916947 
L 615.610631 26.115669 
L 615.892592 29.752496 
L 616.174552 35.233057 
L 617.302395 66.592329 
L 618.148276 102.585577 
L 619.558079 166.207677 
L 620.122001 179.389453 
L 620.685922 187.135795 
L 620.967882 189.247157 
L 621.249843 192.680852 
L 621.813764 202.546702 
L 622.095725 204.020911 
L 622.377685 203.337828 
L 622.659646 203.140927 
L 622.941606 204.189417 
L 623.223567 204.521556 
L 623.505528 203.732479 
L 623.787488 203.346743 
L 624.069449 204.750693 
L 625.479252 215.542625 
L 625.761212 216.012054 
L 626.043173 218.744027 
L 627.171015 245.171586 
L 627.452976 243.756724 
L 627.734936 232.972769 
L 628.016897 209.815086 
L 629.4267 41.875226 
L 629.70866 34.233925 
L 629.990621 34.208642 
L 631.400424 51.339452 
L 631.964345 71.092716 
L 632.810227 104.285246 
L 633.092188 122.776532 
L 633.092188 122.776532 
" clip-path="url(#pc79c177896)" style="fill: none; stroke: #1f77b4; stroke-width: 1.5; stroke-linecap: square"/>
   </g>
   <g id="patch_3">
    <path d="M 47.192188 266.112 
L 47.192188 0 
" style="fill: none; stroke: #000000; stroke-width: 0.8; stroke-linejoin: miter; stroke-linecap: square"/>
   </g>
   <g id="patch_4">
    <path d="M 660.992188 266.112 
L 660.992188 0 
" style="fill: none; stroke: #000000; stroke-width: 0.8; stroke-linejoin: miter; stroke-linecap: square"/>
   </g>
   <g id="patch_5">
    <path d="M 47.192188 266.112 
L 660.992188 266.112 
" style="fill: none; stroke: #000000; stroke-width: 0.8; stroke-linejoin: miter; stroke-linecap: square"/>
   </g>
   <g id="patch_6">
    <path d="M 47.192188 0 
L 660.992188 0 
" style="fill: none; stroke: #000000; stroke-width: 0.8; stroke-linejoin: miter; stroke-linecap: square"/>
   </g>
  </g>
 </g>
 <defs>
  <clipPath id="pc79c177896">
   <rect x="47.192188" y="0" width="613.8" height="266.112"/>
  </clipPath>
 </defs>
</svg>
