<?xml version="1.0" encoding="utf-8" standalone="no"?>
<!DOCTYPE svg PUBLIC "-//W3C//DTD SVG 1.1//EN"
  "http://www.w3.org/Graphics/SVG/1.1/DTD/svg11.dtd">
<svg xmlns:xlink="http://www.w3.org/1999/xlink" width="660.992188pt" height="282.790125pt" viewBox="0 0 660.992188 282.790125" xmlns="http://www.w3.org/2000/svg" version="1.1">
 <metadata>
  <rdf:RDF xmlns:dc="http://purl.org/dc/elements/1.1/" xmlns:cc="http://creativecommons.org/ns#" xmlns:rdf="http://www.w3.org/1999/02/22-rdf-syntax-ns#">
   <cc:Work>
    <dc:type rdf:resource="http://purl.org/dc/dcmitype/StillImage"/>
    <dc:date>2023-03-06T21:26:19.278339</dc:date>
    <dc:format>image/svg+xml</dc:format>
    <dc:creator>
     <cc:Agent>
      <dc:title>Matplotlib v3.6.3, https://matplotlib.org/</dc:title>
     </cc:Agent>
    </dc:creator>
   </cc:Work>
  </rdf:RDF>
 </metadata>
 <defs>
  <style type="text/css">*{stroke-linejoin: round; stroke-linecap: butt}</style>
 </defs>
 <g id="figure_1">
  <g id="patch_1">
   <path d="M -0 282.790125 
L 660.992188 282.790125 
L 660.992188 0 
L -0 0 
L -0 282.790125 
z
" style="fill: none"/>
  </g>
  <g id="axes_1">
   <g id="patch_2">
    <path d="M 47.192188 266.112 
L 660.992188 266.112 
L 660.992188 0 
L 47.192188 0 
L 47.192188 266.112 
z
" style="fill: none"/>
   </g>
   <g id="matplotlib.axis_1">
    <g id="xtick_1">
     <g id="line2d_1">
      <defs>
       <path id="m0973a9ee88" d="M 0 0 
L 0 3.5 
" style="stroke: #808080; stroke-width: 0.8"/>
      </defs>
      <g>
       <use xlink:href="#m0973a9ee88" x="75.092188" y="266.112" style="fill: #808080; stroke: #808080; stroke-width: 0.8"/>
      </g>
     </g>
     <g id="text_1">
      <!-- 0 -->
      <g style="fill: #808080" transform="translate(71.910938 280.710438) scale(0.1 -0.1)">
       <defs>
        <path id="DejaVuSans-30" d="M 2034 4250 
Q 1547 4250 1301 3770 
Q 1056 3291 1056 2328 
Q 1056 1369 1301 889 
Q 1547 409 2034 409 
Q 2525 409 2770 889 
Q 3016 1369 3016 2328 
Q 3016 3291 2770 3770 
Q 2525 4250 2034 4250 
z
M 2034 4750 
Q 2819 4750 3233 4129 
Q 3647 3509 3647 2328 
Q 3647 1150 3233 529 
Q 2819 -91 2034 -91 
Q 1250 -91 836 529 
Q 422 1150 422 2328 
Q 422 3509 836 4129 
Q 1250 4750 2034 4750 
z
" transform="scale(0.015625)"/>
       </defs>
       <use xlink:href="#DejaVuSans-30"/>
      </g>
     </g>
    </g>
    <g id="xtick_2">
     <g id="line2d_2">
      <g>
       <use xlink:href="#m0973a9ee88" x="144.842188" y="266.112" style="fill: #808080; stroke: #808080; stroke-width: 0.8"/>
      </g>
     </g>
     <g id="text_2">
      <!-- 500 -->
      <g style="fill: #808080" transform="translate(135.298438 280.710438) scale(0.1 -0.1)">
       <defs>
        <path id="DejaVuSans-35" d="M 691 4666 
L 3169 4666 
L 3169 4134 
L 1269 4134 
L 1269 2991 
Q 1406 3038 1543 3061 
Q 1681 3084 1819 3084 
Q 2600 3084 3056 2656 
Q 3513 2228 3513 1497 
Q 3513 744 3044 326 
Q 2575 -91 1722 -91 
Q 1428 -91 1123 -41 
Q 819 9 494 109 
L 494 744 
Q 775 591 1075 516 
Q 1375 441 1709 441 
Q 2250 441 2565 725 
Q 2881 1009 2881 1497 
Q 2881 1984 2565 2268 
Q 2250 2553 1709 2553 
Q 1456 2553 1204 2497 
Q 953 2441 691 2322 
L 691 4666 
z
" transform="scale(0.015625)"/>
       </defs>
       <use xlink:href="#DejaVuSans-35"/>
       <use xlink:href="#DejaVuSans-30" x="63.623047"/>
       <use xlink:href="#DejaVuSans-30" x="127.246094"/>
      </g>
     </g>
    </g>
    <g id="xtick_3">
     <g id="line2d_3">
      <g>
       <use xlink:href="#m0973a9ee88" x="214.592188" y="266.112" style="fill: #808080; stroke: #808080; stroke-width: 0.8"/>
      </g>
     </g>
     <g id="text_3">
      <!-- 1000 -->
      <g style="fill: #808080" transform="translate(201.867188 280.710438) scale(0.1 -0.1)">
       <defs>
        <path id="DejaVuSans-31" d="M 794 531 
L 1825 531 
L 1825 4091 
L 703 3866 
L 703 4441 
L 1819 4666 
L 2450 4666 
L 2450 531 
L 3481 531 
L 3481 0 
L 794 0 
L 794 531 
z
" transform="scale(0.015625)"/>
       </defs>
       <use xlink:href="#DejaVuSans-31"/>
       <use xlink:href="#DejaVuSans-30" x="63.623047"/>
       <use xlink:href="#DejaVuSans-30" x="127.246094"/>
       <use xlink:href="#DejaVuSans-30" x="190.869141"/>
      </g>
     </g>
    </g>
    <g id="xtick_4">
     <g id="line2d_4">
      <g>
       <use xlink:href="#m0973a9ee88" x="284.342188" y="266.112" style="fill: #808080; stroke: #808080; stroke-width: 0.8"/>
      </g>
     </g>
     <g id="text_4">
      <!-- 1500 -->
      <g style="fill: #808080" transform="translate(271.617188 280.710438) scale(0.1 -0.1)">
       <use xlink:href="#DejaVuSans-31"/>
       <use xlink:href="#DejaVuSans-35" x="63.623047"/>
       <use xlink:href="#DejaVuSans-30" x="127.246094"/>
       <use xlink:href="#DejaVuSans-30" x="190.869141"/>
      </g>
     </g>
    </g>
    <g id="xtick_5">
     <g id="line2d_5">
      <g>
       <use xlink:href="#m0973a9ee88" x="354.092188" y="266.112" style="fill: #808080; stroke: #808080; stroke-width: 0.8"/>
      </g>
     </g>
     <g id="text_5">
      <!-- 2000 -->
      <g style="fill: #808080" transform="translate(341.367188 280.710438) scale(0.1 -0.1)">
       <defs>
        <path id="DejaVuSans-32" d="M 1228 531 
L 3431 531 
L 3431 0 
L 469 0 
L 469 531 
Q 828 903 1448 1529 
Q 2069 2156 2228 2338 
Q 2531 2678 2651 2914 
Q 2772 3150 2772 3378 
Q 2772 3750 2511 3984 
Q 2250 4219 1831 4219 
Q 1534 4219 1204 4116 
Q 875 4013 500 3803 
L 500 4441 
Q 881 4594 1212 4672 
Q 1544 4750 1819 4750 
Q 2544 4750 2975 4387 
Q 3406 4025 3406 3419 
Q 3406 3131 3298 2873 
Q 3191 2616 2906 2266 
Q 2828 2175 2409 1742 
Q 1991 1309 1228 531 
z
" transform="scale(0.015625)"/>
       </defs>
       <use xlink:href="#DejaVuSans-32"/>
       <use xlink:href="#DejaVuSans-30" x="63.623047"/>
       <use xlink:href="#DejaVuSans-30" x="127.246094"/>
       <use xlink:href="#DejaVuSans-30" x="190.869141"/>
      </g>
     </g>
    </g>
    <g id="xtick_6">
     <g id="line2d_6">
      <g>
       <use xlink:href="#m0973a9ee88" x="423.842188" y="266.112" style="fill: #808080; stroke: #808080; stroke-width: 0.8"/>
      </g>
     </g>
     <g id="text_6">
      <!-- 2500 -->
      <g style="fill: #808080" transform="translate(411.117188 280.710438) scale(0.1 -0.1)">
       <use xlink:href="#DejaVuSans-32"/>
       <use xlink:href="#DejaVuSans-35" x="63.623047"/>
       <use xlink:href="#DejaVuSans-30" x="127.246094"/>
       <use xlink:href="#DejaVuSans-30" x="190.869141"/>
      </g>
     </g>
    </g>
    <g id="xtick_7">
     <g id="line2d_7">
      <g>
       <use xlink:href="#m0973a9ee88" x="493.592188" y="266.112" style="fill: #808080; stroke: #808080; stroke-width: 0.8"/>
      </g>
     </g>
     <g id="text_7">
      <!-- 3000 -->
      <g style="fill: #808080" transform="translate(480.867188 280.710438) scale(0.1 -0.1)">
       <defs>
        <path id="DejaVuSans-33" d="M 2597 2516 
Q 3050 2419 3304 2112 
Q 3559 1806 3559 1356 
Q 3559 666 3084 287 
Q 2609 -91 1734 -91 
Q 1441 -91 1130 -33 
Q 819 25 488 141 
L 488 750 
Q 750 597 1062 519 
Q 1375 441 1716 441 
Q 2309 441 2620 675 
Q 2931 909 2931 1356 
Q 2931 1769 2642 2001 
Q 2353 2234 1838 2234 
L 1294 2234 
L 1294 2753 
L 1863 2753 
Q 2328 2753 2575 2939 
Q 2822 3125 2822 3475 
Q 2822 3834 2567 4026 
Q 2313 4219 1838 4219 
Q 1578 4219 1281 4162 
Q 984 4106 628 3988 
L 628 4550 
Q 988 4650 1302 4700 
Q 1616 4750 1894 4750 
Q 2613 4750 3031 4423 
Q 3450 4097 3450 3541 
Q 3450 3153 3228 2886 
Q 3006 2619 2597 2516 
z
" transform="scale(0.015625)"/>
       </defs>
       <use xlink:href="#DejaVuSans-33"/>
       <use xlink:href="#DejaVuSans-30" x="63.623047"/>
       <use xlink:href="#DejaVuSans-30" x="127.246094"/>
       <use xlink:href="#DejaVuSans-30" x="190.869141"/>
      </g>
     </g>
    </g>
    <g id="xtick_8">
     <g id="line2d_8">
      <g>
       <use xlink:href="#m0973a9ee88" x="563.342188" y="266.112" style="fill: #808080; stroke: #808080; stroke-width: 0.8"/>
      </g>
     </g>
     <g id="text_8">
      <!-- 3500 -->
      <g style="fill: #808080" transform="translate(550.617188 280.710438) scale(0.1 -0.1)">
       <use xlink:href="#DejaVuSans-33"/>
       <use xlink:href="#DejaVuSans-35" x="63.623047"/>
       <use xlink:href="#DejaVuSans-30" x="127.246094"/>
       <use xlink:href="#DejaVuSans-30" x="190.869141"/>
      </g>
     </g>
    </g>
    <g id="xtick_9">
     <g id="line2d_9">
      <g>
       <use xlink:href="#m0973a9ee88" x="633.092188" y="266.112" style="fill: #808080; stroke: #808080; stroke-width: 0.8"/>
      </g>
     </g>
     <g id="text_9">
      <!-- 4000 -->
      <g style="fill: #808080" transform="translate(620.367188 280.710438) scale(0.1 -0.1)">
       <defs>
        <path id="DejaVuSans-34" d="M 2419 4116 
L 825 1625 
L 2419 1625 
L 2419 4116 
z
M 2253 4666 
L 3047 4666 
L 3047 1625 
L 3713 1625 
L 3713 1100 
L 3047 1100 
L 3047 0 
L 2419 0 
L 2419 1100 
L 313 1100 
L 313 1709 
L 2253 4666 
z
" transform="scale(0.015625)"/>
       </defs>
       <use xlink:href="#DejaVuSans-34"/>
       <use xlink:href="#DejaVuSans-30" x="63.623047"/>
       <use xlink:href="#DejaVuSans-30" x="127.246094"/>
       <use xlink:href="#DejaVuSans-30" x="190.869141"/>
      </g>
     </g>
    </g>
   </g>
   <g id="matplotlib.axis_2">
    <g id="ytick_1">
     <g id="line2d_10">
      <defs>
       <path id="me6f1943fcd" d="M 0 0 
L -3.5 0 
" style="stroke: #808080; stroke-width: 0.8"/>
      </defs>
      <g>
       <use xlink:href="#me6f1943fcd" x="47.192188" y="258.009195" style="fill: #808080; stroke: #808080; stroke-width: 0.8"/>
      </g>
     </g>
     <g id="text_10">
      <!-- −30000 -->
      <g style="fill: #808080" transform="translate(0 261.808414) scale(0.1 -0.1)">
       <defs>
        <path id="DejaVuSans-2212" d="M 678 2272 
L 4684 2272 
L 4684 1741 
L 678 1741 
L 678 2272 
z
" transform="scale(0.015625)"/>
       </defs>
       <use xlink:href="#DejaVuSans-2212"/>
       <use xlink:href="#DejaVuSans-33" x="83.789062"/>
       <use xlink:href="#DejaVuSans-30" x="147.412109"/>
       <use xlink:href="#DejaVuSans-30" x="211.035156"/>
       <use xlink:href="#DejaVuSans-30" x="274.658203"/>
       <use xlink:href="#DejaVuSans-30" x="338.28125"/>
      </g>
     </g>
    </g>
    <g id="ytick_2">
     <g id="line2d_11">
      <g>
       <use xlink:href="#me6f1943fcd" x="47.192188" y="223.375522" style="fill: #808080; stroke: #808080; stroke-width: 0.8"/>
      </g>
     </g>
     <g id="text_11">
      <!-- −20000 -->
      <g style="fill: #808080" transform="translate(0 227.174741) scale(0.1 -0.1)">
       <use xlink:href="#DejaVuSans-2212"/>
       <use xlink:href="#DejaVuSans-32" x="83.789062"/>
       <use xlink:href="#DejaVuSans-30" x="147.412109"/>
       <use xlink:href="#DejaVuSans-30" x="211.035156"/>
       <use xlink:href="#DejaVuSans-30" x="274.658203"/>
       <use xlink:href="#DejaVuSans-30" x="338.28125"/>
      </g>
     </g>
    </g>
    <g id="ytick_3">
     <g id="line2d_12">
      <g>
       <use xlink:href="#me6f1943fcd" x="47.192188" y="188.741849" style="fill: #808080; stroke: #808080; stroke-width: 0.8"/>
      </g>
     </g>
     <g id="text_12">
      <!-- −10000 -->
      <g style="fill: #808080" transform="translate(0 192.541068) scale(0.1 -0.1)">
       <use xlink:href="#DejaVuSans-2212"/>
       <use xlink:href="#DejaVuSans-31" x="83.789062"/>
       <use xlink:href="#DejaVuSans-30" x="147.412109"/>
       <use xlink:href="#DejaVuSans-30" x="211.035156"/>
       <use xlink:href="#DejaVuSans-30" x="274.658203"/>
       <use xlink:href="#DejaVuSans-30" x="338.28125"/>
      </g>
     </g>
    </g>
    <g id="ytick_4">
     <g id="line2d_13">
      <g>
       <use xlink:href="#me6f1943fcd" x="47.192188" y="154.108175" style="fill: #808080; stroke: #808080; stroke-width: 0.8"/>
      </g>
     </g>
     <g id="text_13">
      <!-- 0 -->
      <g style="fill: #808080" transform="translate(33.829688 157.907394) scale(0.1 -0.1)">
       <use xlink:href="#DejaVuSans-30"/>
      </g>
     </g>
    </g>
    <g id="ytick_5">
     <g id="line2d_14">
      <g>
       <use xlink:href="#me6f1943fcd" x="47.192188" y="119.474502" style="fill: #808080; stroke: #808080; stroke-width: 0.8"/>
      </g>
     </g>
     <g id="text_14">
      <!-- 10000 -->
      <g style="fill: #808080" transform="translate(8.379688 123.273721) scale(0.1 -0.1)">
       <use xlink:href="#DejaVuSans-31"/>
       <use xlink:href="#DejaVuSans-30" x="63.623047"/>
       <use xlink:href="#DejaVuSans-30" x="127.246094"/>
       <use xlink:href="#DejaVuSans-30" x="190.869141"/>
       <use xlink:href="#DejaVuSans-30" x="254.492188"/>
      </g>
     </g>
    </g>
    <g id="ytick_6">
     <g id="line2d_15">
      <g>
       <use xlink:href="#me6f1943fcd" x="47.192188" y="84.840829" style="fill: #808080; stroke: #808080; stroke-width: 0.8"/>
      </g>
     </g>
     <g id="text_15">
      <!-- 20000 -->
      <g style="fill: #808080" transform="translate(8.379688 88.640048) scale(0.1 -0.1)">
       <use xlink:href="#DejaVuSans-32"/>
       <use xlink:href="#DejaVuSans-30" x="63.623047"/>
       <use xlink:href="#DejaVuSans-30" x="127.246094"/>
       <use xlink:href="#DejaVuSans-30" x="190.869141"/>
       <use xlink:href="#DejaVuSans-30" x="254.492188"/>
      </g>
     </g>
    </g>
    <g id="ytick_7">
     <g id="line2d_16">
      <g>
       <use xlink:href="#me6f1943fcd" x="47.192188" y="50.207156" style="fill: #808080; stroke: #808080; stroke-width: 0.8"/>
      </g>
     </g>
     <g id="text_16">
      <!-- 30000 -->
      <g style="fill: #808080" transform="translate(8.379688 54.006374) scale(0.1 -0.1)">
       <use xlink:href="#DejaVuSans-33"/>
       <use xlink:href="#DejaVuSans-30" x="63.623047"/>
       <use xlink:href="#DejaVuSans-30" x="127.246094"/>
       <use xlink:href="#DejaVuSans-30" x="190.869141"/>
       <use xlink:href="#DejaVuSans-30" x="254.492188"/>
      </g>
     </g>
    </g>
    <g id="ytick_8">
     <g id="line2d_17">
      <g>
       <use xlink:href="#me6f1943fcd" x="47.192188" y="15.573482" style="fill: #808080; stroke: #808080; stroke-width: 0.8"/>
      </g>
     </g>
     <g id="text_17">
      <!-- 40000 -->
      <g style="fill: #808080" transform="translate(8.379688 19.372701) scale(0.1 -0.1)">
       <use xlink:href="#DejaVuSans-34"/>
       <use xlink:href="#DejaVuSans-30" x="63.623047"/>
       <use xlink:href="#DejaVuSans-30" x="127.246094"/>
       <use xlink:href="#DejaVuSans-30" x="190.869141"/>
       <use xlink:href="#DejaVuSans-30" x="254.492188"/>
      </g>
     </g>
    </g>
   </g>
   <g id="line2d_18">
    <path d="M 75.092188 154.119896 
L 76.50199 154.096837 
L 77.911793 154.119322 
L 79.321596 154.09702 
L 80.731399 154.119561 
L 82.141202 154.096277 
L 83.551005 154.121014 
L 84.960808 154.093632 
L 85.80669 154.124449 
L 86.652572 154.08909 
L 87.498453 154.132459 
L 88.344335 154.071583 
L 88.626296 154.153474 
L 88.908256 154.047755 
L 89.190217 154.200052 
L 89.472177 153.924218 
L 89.754138 155.382379 
L 90.036099 160.037147 
L 90.318059 161.893872 
L 90.60002 162.113605 
L 90.88198 161.989251 
L 91.445901 162.75723 
L 92.009823 162.83306 
L 92.855704 165.494255 
L 93.701586 163.21428 
L 93.983547 162.248281 
L 94.547468 158.615774 
L 94.829429 158.122139 
L 95.111389 158.506008 
L 95.67531 158.864278 
L 96.521192 161.635362 
L 96.803153 162.212915 
L 97.930995 168.209627 
L 98.776877 176.51704 
L 99.904719 178.841669 
L 100.18668 179.02399 
L 100.46864 178.982754 
L 100.750601 179.263007 
L 101.314522 181.025817 
L 101.596483 180.465354 
L 101.878443 177.368797 
L 102.160404 170.926403 
L 102.724325 145.896517 
L 103.570207 98.783868 
L 103.852167 88.589807 
L 104.134128 84.004361 
L 104.416088 84.919713 
L 104.698049 90.500656 
L 104.98001 100.950726 
L 106.107852 157.970272 
L 106.389813 164.170657 
L 106.671773 166.110798 
L 106.953734 165.672697 
L 107.235694 165.788041 
L 107.799615 168.051359 
L 108.081576 167.396159 
L 109.209418 162.876751 
L 110.337261 156.702661 
L 111.183143 154.926878 
L 111.465103 155.180974 
L 112.310985 159.86022 
L 112.592945 160.157823 
L 112.874906 161.570874 
L 113.156867 163.789389 
L 113.438827 165.065386 
L 113.720788 165.180006 
L 114.002748 165.962961 
L 114.84863 172.737599 
L 117.386275 180.145937 
L 117.668236 179.064151 
L 117.950197 175.529518 
L 118.232157 168.579315 
L 118.514118 156.829131 
L 119.64196 91.428446 
L 119.923921 83.024978 
L 120.205881 77.962078 
L 120.487842 76.816362 
L 120.769802 79.245969 
L 121.051763 84.320942 
L 121.333724 93.219701 
L 122.461566 149.631725 
L 123.589408 171.256903 
L 123.871369 173.493527 
L 124.153329 173.525222 
L 124.717251 171.762644 
L 124.999211 169.821784 
L 125.563132 164.608717 
L 125.845093 163.549988 
L 126.127054 163.54743 
L 126.409014 163.795433 
L 126.690975 163.532509 
L 127.254896 160.879289 
L 127.536857 160.667283 
L 128.100778 163.573966 
L 128.382738 163.956239 
L 128.664699 164.016318 
L 128.946659 164.786728 
L 129.510581 167.710695 
L 130.638423 176.612823 
L 130.920384 177.161741 
L 131.202344 177.403235 
L 131.484305 177.491224 
L 131.766265 177.809461 
L 132.894108 181.864957 
L 133.176068 183.130532 
L 133.458029 183.785412 
L 133.739989 181.764033 
L 134.02195 175.380981 
L 134.303911 164.154122 
L 134.867832 128.407731 
L 135.713714 73.500341 
L 135.995674 62.910651 
L 136.277635 57.935458 
L 136.559595 60.444988 
L 137.123516 82.865424 
L 138.533319 155.885627 
L 138.81528 161.726411 
L 139.097241 165.186992 
L 139.379201 167.200672 
L 139.661162 167.982787 
L 139.943122 168.192056 
L 140.225083 167.910288 
L 140.507043 166.460735 
L 141.070965 162.580021 
L 141.352925 162.291785 
L 141.634886 161.638217 
L 142.198807 158.716597 
L 142.480768 159.711093 
L 142.762728 161.47298 
L 143.326649 163.236318 
L 144.172531 168.548956 
L 145.300373 174.044685 
L 145.582334 176.074764 
L 146.146255 181.630258 
L 147.838019 192.062911 
L 148.119979 194.402837 
L 149.247822 198.956817 
L 149.529782 197.828804 
L 149.811743 193.728227 
L 150.093703 185.022606 
L 150.375664 169.506088 
L 151.785467 61.00324 
L 152.067428 51.107699 
L 152.349388 48.153914 
L 152.631349 51.118201 
L 152.913309 58.119661 
L 153.47723 82.730379 
L 154.323112 130.979071 
L 154.887033 150.873262 
L 155.168994 156.660057 
L 155.732915 161.765049 
L 156.296836 165.447646 
L 156.578797 166.242279 
L 157.142718 166.259847 
L 157.424679 165.764931 
L 158.27056 160.662265 
L 158.552521 160.559772 
L 158.834482 160.071908 
L 159.116442 159.118691 
L 159.398403 159.167363 
L 161.654087 172.35108 
L 162.218009 177.506318 
L 164.191733 191.552095 
L 164.473693 193.997597 
L 165.037614 195.86417 
L 165.601536 200.690855 
L 165.883496 200.906715 
L 166.165457 196.446529 
L 166.447417 186.205801 
L 167.011339 150.394043 
L 168.139181 71.006144 
L 168.421142 61.861535 
L 168.703102 58.438105 
L 168.985063 58.67551 
L 169.267023 62.540067 
L 169.548984 71.063149 
L 170.112905 98.694236 
L 171.240747 158.779791 
L 171.522708 164.483673 
L 172.086629 169.937681 
L 172.65055 172.041062 
L 172.932511 172.907274 
L 173.214471 173.361273 
L 173.496432 172.520022 
L 174.342314 166.276828 
L 174.906235 161.013088 
L 175.470156 158.218596 
L 175.752117 157.191361 
L 176.034077 156.589858 
L 176.316038 156.896407 
L 177.16192 159.970034 
L 177.725841 163.039023 
L 178.007801 165.123551 
L 179.417604 181.296745 
L 179.981526 186.475497 
L 181.391328 193.982333 
L 181.673289 194.834 
L 181.95525 195.011841 
L 182.23721 194.117883 
L 182.519171 190.373112 
L 182.801131 181.728238 
L 183.365053 150.00698 
L 184.492895 73.470576 
L 184.774856 65.384614 
L 185.056816 62.673134 
L 185.338777 64.589977 
L 185.620737 71.524442 
L 186.184658 98.216834 
L 187.312501 161.013841 
L 187.594461 167.440188 
L 188.158383 172.99919 
L 188.440343 175.003142 
L 188.722304 176.058226 
L 189.004264 175.957852 
L 189.568185 174.291863 
L 190.132107 171.247312 
L 191.259949 164.265333 
L 191.54191 164.453573 
L 192.105831 166.810929 
L 192.387791 168.741136 
L 193.233673 176.159081 
L 194.361515 182.984199 
L 194.643476 182.123488 
L 194.925437 179.227096 
L 196.053279 161.38435 
L 196.33524 159.118494 
L 196.6172 157.810141 
L 196.899161 157.917886 
L 197.181121 159.425622 
L 197.745042 165.28225 
L 198.308964 171.71648 
L 198.590924 171.208878 
L 198.872885 165.096656 
L 199.436806 137.25654 
L 200.282688 84.133737 
L 200.564648 72.065938 
L 200.846609 65.333294 
L 201.12857 63.899675 
L 201.41053 68.008541 
L 201.974451 86.716104 
L 202.538372 110.861109 
L 203.384254 157.688907 
L 203.666215 163.877204 
L 204.230136 170.035273 
L 204.512097 171.017038 
L 204.794057 170.741279 
L 205.076018 169.986309 
L 205.639939 167.590438 
L 205.921899 167.699691 
L 206.485821 170.208802 
L 207.049742 169.649832 
L 207.331702 170.06859 
L 207.613663 170.111621 
L 207.895624 169.28889 
L 208.177584 168.859717 
L 208.459545 169.526369 
L 210.151308 175.917932 
L 210.433269 178.076211 
L 211.561111 190.970131 
L 212.406993 195.558515 
L 212.970914 199.648065 
L 213.816796 203.588128 
L 214.098756 203.093118 
L 214.380717 199.463629 
L 214.662678 190.458099 
L 215.226599 153.42728 
L 216.354441 65.985914 
L 216.636402 55.227887 
L 216.918362 50.08951 
L 217.200323 49.412222 
L 217.482284 53.101517 
L 218.046205 70.600695 
L 218.610126 97.575371 
L 219.456008 150.482458 
L 219.737968 161.954078 
L 220.019929 168.85554 
L 220.301889 171.810902 
L 220.58385 172.650599 
L 220.865811 172.940925 
L 221.147771 172.666048 
L 221.429732 171.184639 
L 221.993653 167.268132 
L 222.275613 166.270919 
L 222.557574 165.699244 
L 222.839535 165.404114 
L 223.685416 165.245896 
L 223.967377 165.403885 
L 224.249338 166.1541 
L 224.813259 169.22468 
L 225.37718 173.657164 
L 226.223062 182.842766 
L 227.068943 189.45399 
L 227.350904 189.982447 
L 227.632865 190.192711 
L 227.914825 191.233756 
L 229.042668 198.052388 
L 229.888549 204.347899 
L 230.17051 202.620287 
L 230.45247 195.707999 
L 230.734431 183.455598 
L 231.298352 142.935695 
L 232.144234 71.750775 
L 232.426195 58.343958 
L 232.708155 50.245619 
L 232.990116 47.525711 
L 233.272076 49.276619 
L 233.554037 53.373212 
L 233.835998 59.509445 
L 234.117958 69.829224 
L 235.2458 134.704235 
L 235.809722 160.713933 
L 236.091682 164.625105 
L 236.373643 165.918825 
L 236.655603 169.097931 
L 236.937564 173.723286 
L 237.219525 176.343258 
L 237.501485 176.263181 
L 237.783446 175.588608 
L 238.065406 175.345128 
L 238.347367 174.760854 
L 238.911288 173.24967 
L 239.193249 172.609455 
L 239.475209 171.597198 
L 239.75717 171.16318 
L 240.321091 171.98768 
L 240.603052 171.740531 
L 240.885012 171.989479 
L 241.448933 173.513293 
L 241.730894 173.973239 
L 242.012855 175.450398 
L 243.140697 185.607432 
L 244.5505 201.174784 
L 245.678342 209.432833 
L 245.960303 209.350526 
L 246.242263 206.788637 
L 246.524224 199.349355 
L 246.806184 183.812577 
L 247.652066 106.033441 
L 248.215987 60.123936 
L 248.497948 49.22171 
L 248.779909 45.358806 
L 249.061869 43.87719 
L 249.34383 44.476502 
L 249.62579 49.742113 
L 250.471672 80.337882 
L 251.035593 114.418965 
L 251.599514 152.093026 
L 251.881475 164.56466 
L 252.163436 171.565007 
L 252.727357 177.679908 
L 253.291278 182.377814 
L 253.573239 183.138721 
L 253.855199 182.959081 
L 254.13716 182.048386 
L 254.701081 178.890394 
L 256.110884 168.596099 
L 256.392844 167.375195 
L 256.956766 167.211119 
L 257.520687 165.374337 
L 257.802647 166.426703 
L 258.648529 173.823447 
L 259.21245 180.783188 
L 260.622253 191.625092 
L 262.032056 205.58213 
L 262.314017 205.957271 
L 262.595977 203.76172 
L 262.877938 196.990937 
L 263.159898 183.272916 
L 263.72382 136.7336 
L 264.287741 87.398456 
L 264.851662 58.446815 
L 265.133623 52.818477 
L 265.415583 51.279466 
L 265.697544 53.370676 
L 265.979504 58.699309 
L 266.543425 76.005204 
L 267.107347 106.9388 
L 267.671268 143.241351 
L 268.235189 166.17531 
L 268.79911 176.103323 
L 269.363031 180.347517 
L 269.644992 181.108375 
L 269.926953 180.996793 
L 270.208913 180.459117 
L 271.054795 178.3185 
L 271.336755 178.306397 
L 271.618716 178.551945 
L 271.900677 179.308209 
L 272.182637 180.865879 
L 272.746558 185.902784 
L 273.874401 203.273839 
L 276.412046 254.016 
L 276.694007 244.434248 
L 278.10381 105.002146 
L 278.667731 84.295909 
L 279.231652 61.562153 
L 279.795573 34.368816 
L 280.077534 24.306918 
L 280.359494 18.259088 
L 280.641455 17.801074 
L 280.923415 23.2277 
L 282.333218 70.894961 
L 283.461061 133.952701 
L 284.024982 166.891239 
L 284.306942 176.399884 
L 284.588903 181.506322 
L 285.152824 185.708135 
L 285.716745 188.72786 
L 285.998706 188.481766 
L 286.562627 183.971415 
L 287.408509 176.419262 
L 288.254391 174.041292 
L 288.536351 174.155684 
L 289.382233 177.299039 
L 290.228115 185.553584 
L 290.510075 188.639295 
L 291.637918 207.201565 
L 292.201839 213.088815 
L 292.483799 214.215828 
L 292.76576 213.951515 
L 293.047721 213.895311 
L 293.329681 214.815145 
L 293.893602 217.558825 
L 294.175563 217.738958 
L 294.457524 214.957912 
L 294.739484 207.187648 
L 295.021445 193.06801 
L 295.585366 144.881024 
L 296.149287 91.049956 
L 296.431248 74.112696 
L 296.713208 64.682772 
L 297.277129 56.009523 
L 297.55909 53.161849 
L 297.841051 51.69842 
L 298.123011 52.735022 
L 298.404972 56.9138 
L 298.686932 64.181124 
L 299.250853 89.32056 
L 300.096735 137.911483 
L 300.660656 160.716338 
L 300.942617 167.234013 
L 301.506538 173.322411 
L 302.070459 176.79647 
L 302.916341 179.617018 
L 303.198302 179.737859 
L 303.480262 179.59919 
L 303.762223 179.279832 
L 304.326144 178.055487 
L 304.608105 178.63695 
L 304.890065 179.59053 
L 305.735947 180.966227 
L 306.299868 182.188693 
L 306.581829 183.428679 
L 308.555553 198.447996 
L 309.119474 204.004839 
L 309.965356 209.164441 
L 310.247316 209.927526 
L 310.529277 206.44683 
L 310.811238 196.524891 
L 311.093198 178.936926 
L 312.503001 61.844013 
L 312.784962 53.998894 
L 313.066922 49.761135 
L 313.348883 47.971768 
L 313.630843 48.552337 
L 313.912804 51.971455 
L 314.476725 66.3303 
L 315.040646 89.16444 
L 316.450449 166.979539 
L 316.73241 174.99835 
L 317.01437 179.000845 
L 317.296331 180.870113 
L 317.578292 181.487261 
L 318.142213 180.620207 
L 318.424173 180.048439 
L 319.270055 176.569988 
L 319.552016 175.901991 
L 320.115937 173.975861 
L 320.397897 173.742316 
L 320.679858 172.859151 
L 320.961819 171.317595 
L 321.243779 171.422279 
L 322.089661 179.1333 
L 322.653582 182.862481 
L 323.217503 187.772051 
L 324.063385 199.472693 
L 324.345346 201.302872 
L 325.191227 212.930903 
L 325.755149 212.934993 
L 326.037109 214.034513 
L 326.31907 213.645024 
L 326.60103 209.259144 
L 326.882991 200.061289 
L 327.164952 185.00307 
L 327.728873 132.782702 
L 328.292794 80.913434 
L 328.856715 59.651993 
L 329.138676 53.198075 
L 329.420636 49.916774 
L 329.702597 51.952697 
L 330.548479 71.869984 
L 330.830439 81.315955 
L 331.39436 111.370953 
L 332.522203 177.275012 
L 332.804163 184.05252 
L 333.086124 184.429103 
L 333.650045 178.558594 
L 333.932006 174.550359 
L 335.059848 150.610673 
L 335.623769 145.033871 
L 335.90573 144.167795 
L 336.18769 143.721432 
L 336.469651 143.537997 
L 336.751611 144.952047 
L 337.597493 153.663884 
L 338.161414 159.126464 
L 339.289257 171.876247 
L 340.135138 183.985124 
L 340.69906 189.917822 
L 341.544941 202.524298 
L 341.826902 203.997619 
L 342.108863 206.197246 
L 342.672784 212.318224 
L 342.954744 211.788091 
L 343.236705 207.97762 
L 343.518666 199.752644 
L 343.800626 184.209785 
L 345.210429 69.217253 
L 345.49239 59.548956 
L 345.77435 54.919815 
L 346.056311 54.866387 
L 346.338271 58.358311 
L 346.902193 70.874677 
L 347.466114 91.544186 
L 348.875917 163.371534 
L 349.439838 174.834333 
L 349.721798 176.573977 
L 350.003759 176.155052 
L 350.28572 176.754996 
L 350.56768 179.177986 
L 350.849641 180.446773 
L 351.131601 178.753412 
L 351.413562 176.243089 
L 353.105325 168.520236 
L 353.387286 168.627196 
L 353.951207 170.030716 
L 354.233168 170.932631 
L 354.515128 172.426814 
L 355.642971 181.641894 
L 357.616695 201.77515 
L 358.744537 210.375237 
L 359.026498 209.840436 
L 359.308458 204.134552 
L 359.590419 191.495533 
L 360.15434 146.087049 
L 361.000222 71.466608 
L 361.282182 58.769834 
L 361.564143 52.228283 
L 361.846104 49.143069 
L 362.128064 47.913689 
L 362.410025 49.114687 
L 362.691985 54.097566 
L 363.255907 73.083889 
L 363.819828 99.690509 
L 364.94767 164.029437 
L 365.229631 173.477844 
L 365.511591 178.501293 
L 365.793552 180.574818 
L 366.075512 181.130326 
L 366.357473 180.643958 
L 368.049237 174.58025 
L 368.613158 173.641413 
L 368.895118 173.200971 
L 369.459039 171.262787 
L 369.741 170.422262 
L 370.022961 170.608778 
L 370.304921 171.870646 
L 370.586882 174.173906 
L 371.150803 183.069035 
L 371.714724 190.810282 
L 371.996685 192.971413 
L 372.842566 202.141106 
L 373.124527 203.880028 
L 373.688448 209.684435 
L 373.970409 210.72059 
L 374.252369 210.37126 
L 374.53433 210.209693 
L 374.816291 208.459575 
L 375.098251 201.057476 
L 375.380212 185.512832 
L 375.944133 132.885167 
L 376.508054 81.639917 
L 376.790015 68.345281 
L 377.353936 55.255977 
L 377.635896 52.580583 
L 377.917857 53.6458 
L 378.481778 62.06081 
L 378.763739 68.775476 
L 379.32766 90.401139 
L 380.173542 133.816752 
L 381.019423 173.879673 
L 381.583345 190.588288 
L 381.865305 193.985489 
L 382.147266 195.066201 
L 382.429226 195.047354 
L 383.557069 191.703749 
L 383.839029 188.987352 
L 384.12099 184.446885 
L 384.684911 168.878498 
L 385.248832 152.731155 
L 385.812753 146.238509 
L 386.094714 144.074518 
L 386.376675 144.333806 
L 387.222556 152.363206 
L 387.504517 157.859474 
L 388.350399 181.076113 
L 388.91432 193.013216 
L 389.478241 206.847968 
L 390.042162 215.680803 
L 390.324123 217.874125 
L 390.606083 216.277728 
L 390.888044 209.004279 
L 391.170005 193.75386 
L 392.579808 76.140104 
L 392.861768 67.121132 
L 393.143729 62.440423 
L 393.425689 61.144287 
L 393.70765 61.751597 
L 393.98961 64.419297 
L 395.117453 87.781519 
L 395.681374 110.832237 
L 396.809216 160.892296 
L 397.373137 178.21603 
L 397.655098 183.841246 
L 397.937059 186.206259 
L 398.219019 185.456762 
L 400.756665 168.203847 
L 401.038625 167.012898 
L 401.320586 167.324028 
L 402.166467 172.413862 
L 403.57627 187.604543 
L 404.140192 194.223161 
L 404.704113 198.015021 
L 405.549994 207.547517 
L 406.113916 210.993577 
L 406.395876 212.779666 
L 406.677837 212.000226 
L 406.959797 206.495082 
L 407.241758 194.249543 
L 407.805679 144.119111 
L 408.3696 90.68969 
L 408.933522 63.716743 
L 409.215482 55.423009 
L 409.497443 51.250812 
L 409.779403 51.554005 
L 410.061364 54.881315 
L 410.625285 65.632476 
L 411.189206 78.930197 
L 411.753127 99.333734 
L 413.16293 160.252733 
L 413.726851 176.795423 
L 414.008812 182.356201 
L 414.290773 184.840824 
L 414.572733 185.032571 
L 414.854694 184.375865 
L 415.136654 183.195881 
L 416.828418 170.453931 
L 417.110379 170.174714 
L 417.392339 171.24679 
L 417.6743 171.686512 
L 417.95626 171.308634 
L 418.238221 171.62453 
L 419.366063 178.257597 
L 420.493906 189.153393 
L 421.339787 198.481991 
L 422.185669 205.314065 
L 422.74959 209.468324 
L 423.031551 210.164869 
L 423.313511 208.198487 
L 423.595472 201.818656 
L 423.877433 188.084371 
L 424.441354 135.483533 
L 425.005275 84.570701 
L 425.569196 61.242175 
L 425.851157 54.835131 
L 426.133117 51.833902 
L 426.415078 52.827056 
L 426.697038 56.607566 
L 427.26096 69.499676 
L 427.824881 90.685773 
L 429.516644 167.011762 
L 429.798605 175.146985 
L 430.080565 180.052668 
L 430.362526 182.316604 
L 430.644487 182.617388 
L 430.926447 181.407342 
L 432.05429 174.331587 
L 432.618211 170.549224 
L 432.900171 168.314079 
L 433.182132 167.383683 
L 433.746053 169.48351 
L 434.028014 169.669449 
L 434.309974 170.380567 
L 435.719777 182.101931 
L 436.565659 192.941416 
L 437.975462 207.574833 
L 438.257422 209.246101 
L 438.821344 214.303484 
L 439.103304 214.133966 
L 439.385265 209.358187 
L 439.667225 199.281105 
L 439.949186 181.694204 
L 441.077028 81.600599 
L 441.64095 61.497948 
L 441.92291 56.844114 
L 442.204871 55.812086 
L 442.486831 57.822359 
L 443.050752 68.051644 
L 443.614674 84.787059 
L 444.460555 119.01623 
L 445.306437 153.234442 
L 445.870358 169.651012 
L 446.152319 174.492428 
L 446.434279 176.784804 
L 446.71624 177.736129 
L 446.998201 177.792534 
L 447.280161 176.898455 
L 448.126043 172.483336 
L 448.408004 170.62805 
L 448.689964 170.044533 
L 448.971925 170.714876 
L 449.253885 170.798321 
L 449.535846 169.92557 
L 449.817806 169.793307 
L 450.381728 171.831876 
L 450.663688 171.468486 
L 450.945649 171.677052 
L 451.227609 174.207435 
L 452.073491 185.461807 
L 452.637412 193.177284 
L 453.483294 208.941517 
L 454.047215 215.556481 
L 454.329176 217.758649 
L 454.611136 218.405362 
L 454.893097 217.093436 
L 455.175058 213.022378 
L 455.457018 202.765832 
L 455.738979 182.623298 
L 456.584861 102.370443 
L 457.148782 75.956641 
L 457.430742 68.638813 
L 457.712703 65.273766 
L 457.994663 65.463866 
L 458.558585 70.172904 
L 458.840545 74.163986 
L 459.686427 93.583788 
L 460.250348 112.778561 
L 461.378191 160.280082 
L 461.942112 176.045339 
L 462.224072 179.815302 
L 462.506033 181.700492 
L 462.787993 182.809892 
L 463.069954 182.499681 
L 463.351915 179.543748 
L 463.915836 172.16411 
L 464.197796 171.764421 
L 464.479757 172.178515 
L 465.043678 171.876207 
L 465.325639 172.562627 
L 465.88956 175.859039 
L 466.17152 177.389511 
L 466.453481 176.211127 
L 467.299363 159.558711 
L 467.581323 158.198514 
L 467.863284 158.126761 
L 468.145245 159.034941 
L 468.427205 161.882908 
L 469.273087 174.93637 
L 470.68289 207.097602 
L 470.96485 210.900535 
L 471.246811 211.270352 
L 471.528772 206.373216 
L 471.810732 193.838337 
L 473.220535 92.068739 
L 473.784456 76.452825 
L 474.066417 73.65293 
L 474.348377 74.299827 
L 474.630338 78.11563 
L 475.75818 101.770712 
L 477.731905 164.490829 
L 478.295826 174.852654 
L 478.577786 177.474334 
L 478.859747 178.404611 
L 479.141707 178.301072 
L 479.423668 177.291211 
L 479.705629 175.218944 
L 479.987589 171.875813 
L 480.833471 157.733793 
L 481.397392 154.958001 
L 481.961313 151.102149 
L 482.243274 151.977011 
L 483.371116 159.708032 
L 483.935037 165.599132 
L 487.318564 214.392675 
L 487.600525 215.525356 
L 487.882486 214.275526 
L 488.164446 207.351956 
L 488.446407 190.660838 
L 489.292289 118.185899 
L 489.85621 90.013059 
L 490.13817 81.212857 
L 490.420131 76.84319 
L 490.702091 76.233168 
L 490.984052 77.998757 
L 491.547973 85.763072 
L 492.111894 97.200968 
L 492.957776 120.444605 
L 494.367579 162.44654 
L 495.213461 175.188091 
L 495.495421 177.42964 
L 495.777382 177.678379 
L 496.059343 176.605305 
L 496.341303 174.639038 
L 496.905224 167.344872 
L 497.469146 161.084593 
L 497.751106 159.545973 
L 498.033067 158.840077 
L 498.315027 158.832763 
L 498.596988 159.42873 
L 499.72483 163.104773 
L 500.288751 167.250727 
L 501.134633 173.70788 
L 502.262476 184.91842 
L 502.826397 191.827028 
L 503.108357 194.185298 
L 503.954239 206.123356 
L 504.2362 207.296498 
L 504.51816 205.00736 
L 504.800121 196.696718 
L 505.364042 158.6612 
L 505.927963 116.915027 
L 506.491884 89.742109 
L 506.773845 81.700674 
L 507.055805 78.007474 
L 507.337766 77.713953 
L 507.619727 79.296959 
L 507.901687 82.334934 
L 508.183648 87.54277 
L 508.747569 104.318337 
L 509.593451 129.610232 
L 510.721293 158.494998 
L 511.285214 167.653301 
L 511.567175 169.867915 
L 512.131096 172.310896 
L 512.413057 172.429425 
L 514.10482 161.36739 
L 514.386781 160.514277 
L 514.668741 160.081529 
L 514.950702 159.886068 
L 515.232662 160.691366 
L 515.514623 162.039307 
L 516.078544 162.824236 
L 516.360505 164.866968 
L 516.924426 171.130541 
L 517.488347 175.204791 
L 520.025992 206.88659 
L 520.307953 209.219672 
L 520.589914 209.663112 
L 520.871874 207.23915 
L 521.153835 200.72673 
L 521.435795 188.195939 
L 521.999717 145.338887 
L 522.563638 103.67073 
L 523.127559 78.955862 
L 523.409519 71.928611 
L 523.69148 69.020656 
L 523.973441 69.739193 
L 524.255401 72.711289 
L 524.537362 77.555096 
L 525.101283 94.151991 
L 526.793047 154.181222 
L 527.356968 165.336297 
L 527.638928 167.822262 
L 528.48481 170.229821 
L 528.766771 170.583071 
L 529.894613 168.750333 
L 530.458534 166.950637 
L 530.740495 167.158151 
L 531.022455 167.708681 
L 531.304416 167.735189 
L 531.586376 167.588902 
L 531.868337 168.146141 
L 532.432258 170.659089 
L 532.714219 172.833743 
L 533.27814 178.798167 
L 534.687943 187.389262 
L 535.815785 197.968491 
L 536.097746 199.694241 
L 536.379706 200.529852 
L 536.661667 198.24502 
L 536.943628 189.98818 
L 537.507549 154.020346 
L 538.07147 116.053338 
L 538.635391 92.009522 
L 538.917352 85.769211 
L 539.199312 83.503834 
L 539.481273 84.028985 
L 539.763233 86.486029 
L 540.327155 96.006539 
L 541.173036 116.510046 
L 542.8648 161.10424 
L 543.428721 168.711213 
L 543.710682 170.924716 
L 543.992642 172.035483 
L 544.274603 172.124923 
L 545.120485 171.226868 
L 545.966366 168.047569 
L 546.248327 168.217369 
L 546.530288 169.1337 
L 547.094209 172.688351 
L 547.94009 178.019419 
L 549.349893 186.707574 
L 549.913815 190.139748 
L 550.195775 191.18128 
L 550.477736 190.371982 
L 551.323618 180.366315 
L 552.169499 176.526607 
L 552.45146 171.461459 
L 552.73342 160.449463 
L 553.861263 99.060617 
L 554.143223 90.314735 
L 554.425184 85.88156 
L 554.707145 85.672711 
L 554.989105 87.9306 
L 555.553026 95.66017 
L 556.116947 107.843144 
L 557.24479 134.93033 
L 558.090672 153.879619 
L 558.372632 156.922182 
L 558.936553 159.014693 
L 559.218514 159.377407 
L 560.064396 158.371229 
L 560.346356 158.51521 
L 560.910277 158.187049 
L 561.192238 159.014454 
L 561.474199 160.430251 
L 561.756159 161.245033 
L 562.03812 161.184436 
L 562.32008 161.338925 
L 563.165962 163.770539 
L 563.447923 165.117056 
L 564.011844 169.847652 
L 564.293804 172.721279 
L 564.857726 183.211388 
L 566.549489 218.708441 
L 567.11341 228.84049 
L 567.395371 232.745709 
L 567.677332 234.543025 
L 567.959292 232.574056 
L 568.241253 226.384392 
L 568.805174 203.347328 
L 569.369095 177.635474 
L 569.651056 173.204665 
L 569.933016 172.601788 
L 570.214977 172.931812 
L 570.496937 176.231321 
L 570.778898 182.207192 
L 571.060859 181.702171 
L 571.342819 166.812698 
L 573.034583 22.662269 
L 573.316543 14.575592 
L 573.598504 12.096 
L 573.880464 13.406738 
L 574.162425 18.315985 
L 574.726346 35.88443 
L 576.41811 112.978648 
L 576.982031 141.35359 
L 577.827913 174.920076 
L 578.109873 179.255564 
L 578.391834 179.897646 
L 578.673794 179.23608 
L 578.955755 177.641703 
L 579.519676 170.182412 
L 579.801637 166.575727 
L 580.083597 164.973939 
L 580.365558 165.156548 
L 580.647518 165.821298 
L 580.929479 166.907626 
L 581.21144 170.276801 
L 582.057321 189.999107 
L 582.621243 197.66501 
L 583.185164 206.425572 
L 583.467124 205.86294 
L 583.749085 201.835721 
L 584.031046 194.680674 
L 584.594967 168.08859 
L 585.440848 121.545262 
L 586.00477 103.751758 
L 586.28673 99.979915 
L 586.568691 99.759391 
L 586.850651 102.196201 
L 587.132612 106.641035 
L 587.696533 120.552107 
L 588.824375 157.153387 
L 590.234178 198.596597 
L 590.516139 203.344849 
L 590.7981 205.788708 
L 591.08006 205.363178 
L 591.643981 198.94105 
L 592.207903 188.060181 
L 593.617705 151.643058 
L 594.181627 144.633882 
L 595.309469 135.702815 
L 596.155351 132.685958 
L 596.437311 132.366985 
L 596.719272 133.752081 
L 597.283193 138.498425 
L 597.565154 141.929748 
L 598.692996 165.971366 
L 599.256917 178.76036 
L 599.538878 179.271316 
L 599.820838 173.772559 
L 600.948681 138.530294 
L 601.230641 133.49456 
L 601.512602 131.042052 
L 601.794562 130.299544 
L 602.076523 130.717958 
L 602.358484 132.509773 
L 602.922405 138.684004 
L 603.486326 147.113389 
L 604.050247 156.831429 
L 604.614168 162.80682 
L 605.178089 167.150504 
L 605.46005 168.131996 
L 605.742011 168.349285 
L 606.023971 168.145739 
L 606.305932 167.79982 
L 606.587892 167.050379 
L 607.151814 163.406897 
L 607.997695 157.917659 
L 608.279656 156.965779 
L 608.561617 157.202507 
L 608.843577 157.857651 
L 609.125538 158.07185 
L 609.407498 158.05009 
L 609.689459 158.350673 
L 610.25338 159.649527 
L 610.535341 161.05293 
L 611.663183 169.739939 
L 612.227104 172.687751 
L 613.636907 186.078911 
L 613.918868 187.966642 
L 614.200828 188.39052 
L 614.482789 185.389995 
L 614.764749 178.505504 
L 615.610631 144.769424 
L 616.174552 126.644031 
L 616.738474 117.743068 
L 617.020434 116.587762 
L 617.302395 117.256227 
L 618.148276 120.948998 
L 618.430237 122.992741 
L 618.994158 129.75019 
L 620.685922 159.232882 
L 621.249843 164.865482 
L 621.531803 166.23291 
L 621.813764 166.291631 
L 622.377685 165.913026 
L 622.941606 165.542695 
L 624.069449 167.877498 
L 624.915331 174.092083 
L 625.197291 174.566329 
L 625.761212 178.64114 
L 626.043173 177.551769 
L 626.325133 171.613856 
L 627.171015 148.507579 
L 627.452976 144.499358 
L 627.734936 142.760941 
L 628.016897 143.378364 
L 628.580818 149.297691 
L 629.144739 157.183447 
L 629.70866 166.309504 
L 629.990621 166.301303 
L 630.272582 161.276937 
L 631.400424 132.36028 
L 631.682385 127.388222 
L 631.964345 124.436908 
L 632.246306 122.985225 
L 632.810227 123.395399 
L 633.092188 127.263042 
L 633.092188 127.263042 
" clip-path="url(#p3e62319afb)" style="fill: none; stroke: #1f77b4; stroke-width: 1.5; stroke-linecap: square"/>
   </g>
   <g id="patch_3">
    <path d="M 47.192188 266.112 
L 47.192188 0 
" style="fill: none; stroke: #808080; stroke-width: 0.8; stroke-linejoin: miter; stroke-linecap: square"/>
   </g>
   <g id="patch_4">
    <path d="M 660.992188 266.112 
L 660.992188 0 
" style="fill: none; stroke: #000000; stroke-width: 0.8; stroke-linejoin: miter; stroke-linecap: square"/>
   </g>
   <g id="patch_5">
    <path d="M 47.192188 266.112 
L 660.992188 266.112 
" style="fill: none; stroke: #808080; stroke-width: 0.8; stroke-linejoin: miter; stroke-linecap: square"/>
   </g>
   <g id="patch_6">
    <path d="M 47.192188 0 
L 660.992188 0 
" style="fill: none; stroke: #000000; stroke-width: 0.8; stroke-linejoin: miter; stroke-linecap: square"/>
   </g>
  </g>
 </g>
 <defs>
  <clipPath id="p3e62319afb">
   <rect x="47.192188" y="0" width="613.8" height="266.112"/>
  </clipPath>
 </defs>
</svg>
