<svg xmlns="http://www.w3.org/2000/svg" xmlns:xlink="http://www.w3.org/1999/xlink" width="913.477" height="377.053" viewBox="0 0 685.107 282.79"><defs><style>*{stroke-linejoin:round;stroke-linecap:butt}</style></defs><g id="figure_1"><path id="patch_1" d="M0 282.79h685.107V0H0v282.79z" style="fill:none"/><g id="axes_1"><path id="patch_2" d="M71.308 266.112h613.8V0h-613.8v266.112z" style="fill:none"/><g id="matplotlib.axis_1"><g id="xtick_1"><g id="line2d_1"><defs><path id="m7c24506443" d="M0 0v3.5" style="stroke:gray;stroke-width:.8"/></defs><use xlink:href="#m7c24506443" x="99.207" y="266.112" style="fill:gray;stroke:gray;stroke-width:.8"/></g><g id="text_1" style="fill:gray" transform="matrix(.1 0 0 -.1 96.026 280.71)"><defs><path id="DejaVuSans-30" d="M2034 4250q-487 0-733-480-245-479-245-1442 0-959 245-1439 246-480 733-480 491 0 736 480 246 480 246 1439 0 963-246 1442-245 480-736 480zm0 500q785 0 1199-621 414-620 414-1801 0-1178-414-1799Q2819-91 2034-91q-784 0-1198 620-414 621-414 1799 0 1181 414 1801 414 621 1198 621z" transform="scale(.01563)"/></defs><use xlink:href="#DejaVuSans-30"/></g></g><g id="xtick_2"><use xlink:href="#m7c24506443" id="line2d_2" x="168.958" y="266.112" style="fill:gray;stroke:gray;stroke-width:.8"/><g id="text_2" style="fill:gray" transform="matrix(.1 0 0 -.1 159.414 280.71)"><defs><path id="DejaVuSans-35" d="M691 4666h2478v-532H1269V2991q137 47 274 70 138 23 276 23 781 0 1237-428 457-428 457-1159 0-753-469-1171Q2575-91 1722-91q-294 0-599 50Q819 9 494 109v635q281-153 581-228t634-75q541 0 856 284 316 284 316 772 0 487-316 771-315 285-856 285-253 0-505-56-251-56-513-175v2344z" transform="scale(.01563)"/></defs><use xlink:href="#DejaVuSans-35"/><use xlink:href="#DejaVuSans-30" x="63.623"/><use xlink:href="#DejaVuSans-30" x="127.246"/></g></g><g id="xtick_3"><use xlink:href="#m7c24506443" id="line2d_3" x="238.708" y="266.112" style="fill:gray;stroke:gray;stroke-width:.8"/><g id="text_3" style="fill:gray" transform="matrix(.1 0 0 -.1 225.982 280.71)"><defs><path id="DejaVuSans-31" d="M794 531h1031v3560L703 3866v575l1116 225h631V531h1031V0H794v531z" transform="scale(.01563)"/></defs><use xlink:href="#DejaVuSans-31"/><use xlink:href="#DejaVuSans-30" x="63.623"/><use xlink:href="#DejaVuSans-30" x="127.246"/><use xlink:href="#DejaVuSans-30" x="190.869"/></g></g><g id="xtick_4"><use xlink:href="#m7c24506443" id="line2d_4" x="308.457" y="266.112" style="fill:gray;stroke:gray;stroke-width:.8"/><g id="text_4" style="fill:gray" transform="matrix(.1 0 0 -.1 295.733 280.71)"><use xlink:href="#DejaVuSans-31"/><use xlink:href="#DejaVuSans-35" x="63.623"/><use xlink:href="#DejaVuSans-30" x="127.246"/><use xlink:href="#DejaVuSans-30" x="190.869"/></g></g><g id="xtick_5"><use xlink:href="#m7c24506443" id="line2d_5" x="378.207" y="266.112" style="fill:gray;stroke:gray;stroke-width:.8"/><g id="text_5" style="fill:gray" transform="matrix(.1 0 0 -.1 365.483 280.71)"><defs><path id="DejaVuSans-32" d="M1228 531h2203V0H469v531q359 372 979 998 621 627 780 809 303 340 423 576 121 236 121 464 0 372-261 606-261 235-680 235-297 0-627-103-329-103-704-313v638q381 153 712 231 332 78 607 78 725 0 1156-363 431-362 431-968 0-288-108-546-107-257-392-607-78-91-497-524-418-433-1181-1211z" transform="scale(.01563)"/></defs><use xlink:href="#DejaVuSans-32"/><use xlink:href="#DejaVuSans-30" x="63.623"/><use xlink:href="#DejaVuSans-30" x="127.246"/><use xlink:href="#DejaVuSans-30" x="190.869"/></g></g><g id="xtick_6"><use xlink:href="#m7c24506443" id="line2d_6" x="447.957" y="266.112" style="fill:gray;stroke:gray;stroke-width:.8"/><g id="text_6" style="fill:gray" transform="matrix(.1 0 0 -.1 435.233 280.71)"><use xlink:href="#DejaVuSans-32"/><use xlink:href="#DejaVuSans-35" x="63.623"/><use xlink:href="#DejaVuSans-30" x="127.246"/><use xlink:href="#DejaVuSans-30" x="190.869"/></g></g><g id="xtick_7"><use xlink:href="#m7c24506443" id="line2d_7" x="517.707" y="266.112" style="fill:gray;stroke:gray;stroke-width:.8"/><g id="text_7" style="fill:gray" transform="matrix(.1 0 0 -.1 504.983 280.71)"><defs><path id="DejaVuSans-33" d="M2597 2516q453-97 707-404 255-306 255-756 0-690-475-1069Q2609-91 1734-91q-293 0-604 58T488 141v609q262-153 574-231 313-78 654-78 593 0 904 234t311 681q0 413-289 645-289 233-804 233h-544v519h569q465 0 712 186t247 536q0 359-255 551-254 193-729 193-260 0-557-57-297-56-653-174v562q360 100 674 150t592 50q719 0 1137-327 419-326 419-882 0-388-222-655t-631-370z" transform="scale(.01563)"/></defs><use xlink:href="#DejaVuSans-33"/><use xlink:href="#DejaVuSans-30" x="63.623"/><use xlink:href="#DejaVuSans-30" x="127.246"/><use xlink:href="#DejaVuSans-30" x="190.869"/></g></g><g id="xtick_8"><use xlink:href="#m7c24506443" id="line2d_8" x="587.457" y="266.112" style="fill:gray;stroke:gray;stroke-width:.8"/><g id="text_8" style="fill:gray" transform="matrix(.1 0 0 -.1 574.732 280.71)"><use xlink:href="#DejaVuSans-33"/><use xlink:href="#DejaVuSans-35" x="63.623"/><use xlink:href="#DejaVuSans-30" x="127.246"/><use xlink:href="#DejaVuSans-30" x="190.869"/></g></g><g id="xtick_9"><use xlink:href="#m7c24506443" id="line2d_9" x="657.207" y="266.112" style="fill:gray;stroke:gray;stroke-width:.8"/><g id="text_9" style="fill:gray" transform="matrix(.1 0 0 -.1 644.482 280.71)"><defs><path id="DejaVuSans-34" d="M2419 4116 825 1625h1594v2491zm-166 550h794V1625h666v-525h-666V0h-628v1100H313v609l1940 2957z" transform="scale(.01563)"/></defs><use xlink:href="#DejaVuSans-34"/><use xlink:href="#DejaVuSans-30" x="63.623"/><use xlink:href="#DejaVuSans-30" x="127.246"/><use xlink:href="#DejaVuSans-30" x="190.869"/></g></g></g><g id="matplotlib.axis_2"><g id="ytick_1"><g id="line2d_10"><defs><path id="m473ed04ea0" d="M0 0h-3.5" style="stroke:gray;stroke-width:.8"/></defs><use xlink:href="#m473ed04ea0" x="71.308" y="231.488" style="fill:gray;stroke:gray;stroke-width:.8"/></g><g id="text_10" style="fill:gray" transform="matrix(.16 0 0 -.16 0 237.567)"><defs><path id="DejaVuSans-2212" d="M678 2272h4006v-531H678v531z" transform="scale(.01563)"/></defs><use xlink:href="#DejaVuSans-2212"/><use xlink:href="#DejaVuSans-31" x="83.789"/><use xlink:href="#DejaVuSans-30" x="147.412"/><use xlink:href="#DejaVuSans-30" x="211.035"/><use xlink:href="#DejaVuSans-30" x="274.658"/><use xlink:href="#DejaVuSans-30" x="338.281"/></g></g><g id="ytick_2"><use xlink:href="#m473ed04ea0" id="line2d_11" x="71.308" y="170.819" style="fill:gray;stroke:gray;stroke-width:.8"/><use xlink:href="#DejaVuSans-30" id="text_11" style="fill:gray" transform="matrix(.16 0 0 -.16 54.127 176.898)"/></g><g id="ytick_3"><use xlink:href="#m473ed04ea0" id="line2d_12" x="71.308" y="110.15" style="fill:gray;stroke:gray;stroke-width:.8"/><g id="text_12" style="fill:gray" transform="matrix(.16 0 0 -.16 13.408 116.229)"><use xlink:href="#DejaVuSans-31"/><use xlink:href="#DejaVuSans-30" x="63.623"/><use xlink:href="#DejaVuSans-30" x="127.246"/><use xlink:href="#DejaVuSans-30" x="190.869"/><use xlink:href="#DejaVuSans-30" x="254.492"/></g></g><g id="ytick_4"><use xlink:href="#m473ed04ea0" id="line2d_13" x="71.308" y="49.481" style="fill:gray;stroke:gray;stroke-width:.8"/><g id="text_13" style="fill:gray" transform="matrix(.16 0 0 -.16 13.408 55.56)"><use xlink:href="#DejaVuSans-32"/><use xlink:href="#DejaVuSans-30" x="63.623"/><use xlink:href="#DejaVuSans-30" x="127.246"/><use xlink:href="#DejaVuSans-30" x="190.869"/><use xlink:href="#DejaVuSans-30" x="254.492"/></g></g></g><path id="line2d_14" d="m99.207 170.82 7.05-.016.845.034.846-.042.846.052.282-.06.282.065.282-.071.282.079.282-.088.282.099.282-.114.282.132.282-.157.282.194.282-.252.282.357.282-.609.564 5.095.282-1.22.281-2.842.564-16.285.846-30.186.282-6.163.282-3.644.282.323.282 4.704.564 20.31.564 21.19.846 19.274.282 5.592.282 3.104.282.452.282-.058.282-.4.282-1.768.564-5.033.845-5.578.282-.19.282-.046.282-.349.282.515.282 1.55.282.492.282-.572.282.532.564 3.925.564.783.846 2.924.282.027.282-.463.282-.707.282-2.056.282-5.802.846-31.645.563-22.19.282-7.382.282-3.381.282.418.282 4.861.564 20.215.564 21.31.282 6.306.564 7.783.282 5.144.282 3.012.282.541.282.865.282 1.312.282-.753.282-1.847.282-.13.282 1.035.282-.001.282-.39.282.118.281-.369.282-1.03.282-.213.282-.482.846-8.764 1.128 8.734.282 4.252.282 2.451.282 1.467.564 5.77.282-.46.282-3.398.282-5.557.564-20.773 1.128-46.922.282-4.16.281.548.282 4.44.564 19.452.846 33.4.282 7.392.282 3.151.282.31.282-1.058.564-3.72.282-.972.282.101.282.433.282-.298.564-2.104.282-.001.282-.203.846-3.822.282.212.281 1.46.564 4.949.282 4.245.846 22.072.282 2.028.282.579.282.856.282-1.263.282-5.458 1.128-32.982 1.128-47.423.282-5.217.282-2.554.282 1.229.282 8.184.563 22.297 1.128 29.557.846 4.709.282-.226.282.717.282 1.03.282-.537.282-.955.282-.179.282.022.282.672.282 2.575.846 9.709.282 1.175.282-.679.282-.147.282 1.504.282.4.282-2.788.563-7.46.564-4.252.282-.08.564 4.199.282 1.823.282.721.282-.864.282-3.605.282-7.438.564-24.047.846-38.497.282-6.767.282-2.981.282 1.219.282 6.3.282 11.41 1.127 58.44.564 12.35.282 6.453.282.96.282-2.68.282-.176.282 2.713.282.826.282-2.472.564-7.462.846-16.387.282-2.554.282-1.418.282-.617.282 1.895.846 18.118.282 2.675.564 8.338.282 1.37.563-4.093.282.119.282-.62.282-3.37.564-13.255.564-21.712 1.128-56.618.282-6.72.282-3.791.282 2.025.282 9.546.564 32.722.846 55.274.282 7.287.282 2.773.282-.283.563-7.427.564-5.76.564-4.267.282-.883.282.693.282 2.405 1.128 14.182.282.146.282 1.194.564 4.883.282.267.282-1.167.282-3.127.564-10.184.282-1.801.282.638.563 2.575.282-.595.282-3.395.282-6.02.282-9.88 1.128-56.975.564-17.062.282-1.94.282.8.282 3.646.282 9.77.564 28.483.564 15.47 1.128 22.418.846 9.429.281 2.405.282 1.356.282.148.282-.407.282.795.564 5.064.282.165.846-3.938.282.805 1.41 12.436.282.273.282.016.564 4.696.282-1.098.282-5.981.564-24.192 1.41-79.815.281-9.383.282-5.422.282-.204.282 4.834.282 8.315.282 12.912 1.128 69.22.564 14.46.282 2.371.564 2.378.282-1.148.564-5.327.564-2.057.281.212.282 1.05.282.356.282-.414.282-.181.282.138.282.823 1.974 18.147.282 1.642.282.834.282-1.45.282-4.05.282-5.928.282-8.885.564-30.2 1.128-68.16.281-10.289.282-5.578.282-1.258.282 3.89.282 8.827.282 13.553.564 44.136.564 38.305.564 14.836.282 2.328.564-.454.282.354.282-1.62.564-9.699.564-9.34.282-2.174.282.104.282 1.799.282 3.802.563 10.928.564 6.29.282 2.65.282 1.416.282.007.282-1.394.564-5.762.564-.087.564-7.766.282-4.66.282-9.394 1.41-77.77.282-7.393.282-3.87.282-1.243.282 4.264.563 17.18.282 12.243.846 52.936.564 14.168.282 2.254.282.87.564 5.189.282-.194.846-5.582.564-7.587.282-1.394.282-.438.282.552.282 3.43.846 16.19 1.127 14.821.282 1.751.282.24.564-1.829.282-3.04.282-7.835.564-27.194 1.41-86.482.564-13.344.282-2.688.282 2.015.282 8.037.564 28.566.845 57.751.564 16.812.282 6.344.282 1.088.282-1.494.282 1.624.282 3.45.282.883.846-4.094.282-.685.846 1.968.282 1.804.846 11.607.564 9.875.282 1.487.282.485.564 2.353.281.222.282-2.273.282-6.774.564-27.087 1.974-127.218.282-4.949.282-.215.282 5.56.564 27.236 1.41 91.226.564 15.562.282 1.545.281-.101.282.846.282.232.282-.877.282.302.282 1.439.282-.053.282-1.367.282-.244.564 2.774.282 2.552 2.256 31.53.282 1.303.282-2.036.282-4.927.282-9.753.563-36.743 1.128-93.8.564-31.27.282-9.265.282-1.124.282 5.06.282 8.878.564 30.508.846 55.487.846 40.935.282 6.552.564 6.347.564 4.131.282 1.198.282.125.281-.707.282.418.564 3.848.282 1.232.282 3 .282 4.366.282 2.518.282.803.282 2.485.564 8.638.846 6.396.282-1.346.282-6.737.564-27.108.564-43.871.846-69.633.563-32.193.282-6.793.282-.356.282 2.93.282 4.46.282 6.989.564 24.97 1.692 94.06.564 13.911.564 10.653.282 2.505.282.457.282.083.282 1.334.564 4.83.564 1.75 1.127 8.922 1.41 16.716.282-.752.282-5.762.282-10.678.564-35.202 1.41-118.82.564-19.882.282-2.22.282 2.329.282 4.974.282 7.464.563 25.486 1.41 79.554.564 15.575.564 9.54 1.692 13.539 1.128 11.495.282-.88.564-4.873.282.778 1.127 8.74.282-.79.282-4.174.282-8.42.282-14.711.846-70.074.846-64.725.282-9.052.282-1.992.282 1.599.282 4.045.282 6.862.564 22.809 1.128 65.957.563 29.765.564 14.014.282 4.974 1.128 11.625.282 1.12.282-.22.282 1.52.564 6.105.282-.277.282-1.359.282.454.846 6.469.564 11.28.282 2.266.282-.988.282-1.8.282-6.064.281-15.664 1.692-133.938.282-13.811.282-8.145.282-2.013.282 1.658.282 2.786.282 5.328 1.128 37.969.846 51.843.846 35.695.845 17.464.282 2.67.282-.363.282.492.846 6.1.846 5.547 1.128 16.257.564 4.983.282.603.282-2.048.282-5.873.282-12.106.564-45.33 1.128-103.228.281-13.03.282-7.142.282-2.817.282.857.282 3.55.564 11.225.564 18.781.564 32.568.564 32.526 1.128 51.377.282 5.64.282 2.29.846.749.282-2.179.564-9.328.281.25.564 4.434.282 1.494.282 3.505.564 10.024 1.128 13.328.282-1.53.282-6.513.282-12.034.282-19.556 1.128-107.198.564-25.064.282-4.507.282-.676.282 2.252.564 10.123.281 7.61.564 25.032.846 38.584 1.41 58.078.282 6.924.282 3.605.282.882.564 3.103.282-.666.282-2.238.282-.113.846 8.276.564 8.883.845 16.058.282 2.806.282 1.244.282-.418.282-4.995.282-11.843.564-39.575 1.128-114.113.282-9.844.282-5.231.282-2.904.282-.752.282-.036.282 1.764.282 7.622.846 33.744 1.973 72.307 1.692 42.88.282 3.438.564 3.513.282 1.222.282 2.3.846 15.923.282 1.8.282.59.564 2.97.282-1.815.564-10.677.281-9.246.282-17.312.564-54.89.564-64.792.282-21.34.282-9.431.564-7.518.282.513.564 11.683.564 15.514.564 20.574 1.692 78.544 1.127 27.03.282 2.545.282.479.282 1.253.282 2.213.282 3.83.846 21.322.282.57.282 1.626.282 2.824.282-.032.282-1.564.282 1.91.564 8.154.282-1.617.282-7.873.564-35.405.564-56.77.563-52.92.564-19.626.282-5.706.282-2.18.282.447.282 1.983.282 5.413 1.128 35.691.564 20.042.564 10.992.846 24.65 2.255 46.446.564 11.002 1.128 14.791.564 3.777.282-.908.282-3.775.282-6.292.282-11.294.564-41.23.846-79.499.282-14.772.564-10.956.282-1.985.282 1.657.564 4.844.281 4.794.564 18.396 1.41 53.097.564 18.054.846 27.027.564 4.907 1.128 18.014.282 3.364 1.41 6.64.563 7.284.282 1.744.282.42.282-1.728.282-7.225.282-14.175.564-49.778.564-59.104.564-32.132.282-6.064.282-1.068.564-.543.282 3.62.846 24.172.846 26.529.845 19.627 1.692 54.245.282 2.616 1.974 27.473 1.41 15.662.282.686.282-3.755.282-9.76.282-17.246.563-56.024.564-55.873.282-14.221.564-10.906.282-2.203.282 1.808.564 13.197 1.128 36.02.564 4.625 2.256 39.417.845 19.756 2.538 52.88.282-1.152.564-4.202.282-7.478.282-16.305 1.128-87.201.564-20.548.564-8.125.282-1.366.282 1.52.845 11.96.564 15.503 1.128 30.67.282 6.42.564 18.255.282 2.896.282-.85.282 1.242.282 3.104.282 1.63.282.92.282 2.752 1.692 24.63.845 7.737.282.07.282-1.88.282-4.488.282-10.3 1.41-88.93.564-13.778.564-10.225.282-.198.564 6.274.564 11.17.564 13.116.846 25.007.563 14.566.564 14.811.564 8.882.282 1.168.282.682.564 5.523.282.84.282-.485.282.259.282 1.392.282 2.557.846 11.114.282-.08.282.76.282 2.26.282-.605.282-7.19 1.691-71.005.846-19.652.282-2.22.282.238.282 1.616.282 4.073.564 12.173.564 7.333.564 10.885.282 1.788.282 2.88.564 10.988.846 8.269.563 7.053.564 4.673.564 2.01.564.395.282 2.157.846 13.111.282 3.167.564 7.925.282-.575.282-4.297.282-7.352.564-27.463.564-28.448 1.128-36.578.282-3.522.281.024.282 1.297.282 2.223.564 11.099.564 12.68.846 23.559.564 11.128.282 6.131.282 3.468.564 3.968.282 2.277.282.795.282.249.282.9.282.33.282-.543.282 1.27.282 3.656.282 1.906.563-4.312.282.737.282 1.124.564-2.621.282 2.514.282 4.751.282 2.286.282-2.473.282-6.627 1.692-57.95.564-11.122.282-4.233.282-1.436.282 2.99 1.691 38.29.564 17.32.282 4.075.282 1.415.564 4.327.282-1.687.564-7.833.282-.825.282-.304.282.69.846 6.578.846 5.918.282 3.193.564 10.124.845 7.378.282.817.282-.356.282-2.434.282-6.724 1.692-56.912.564-10.872.282-3.02.282-.922.282.405.282 1.72.564 7.427.846 16.857.846 17.912.563 8.411.282 2.106.282-.04.282-1.458.564-4.382.282-.906.282.133.282-.049.564-.645.564-1.934.282 2.157.846 14.941.564 7.565.564 8.845.564 3.646.282.941.282-2.888 1.127-40.028.564-18.861.564-11.78.564-7.017.846-5.66.282-.858.282-.34.282 1.154.282 3.512 1.128 21.647.564 9.294.845 8.01.846 2.79.564 2.386.282 2.286 1.128 14.34.564 12.314.846 9.234 1.128 12.978.282 1.132.282-3.623.846-31.253.281-11.544.846-50.198.564-17.525.282-5.452.282-1.524.282 1.004.282 1.727.282 3.327.564 13.152 1.41 35.611.564 10.298.282 2.199.282 4.17.564 12.993.282-.594.282-1.743.563 2.17.282-1.036.282.264.564 5.037.282.734.282 1.45.282 2.12.282.444.564-2.405.282.648.846 4.249.282-.443.282-4.293 1.974-56.943.563-6.833.282-1.295.282-.412.282.264.282 1.068.282 2.068.564 8.95.846 12.469.564 16.946.846 11.224.282 2.52.282.434.282.773.282 1.147.564.146.282.942.282.398.282-.513.281.415 1.41 9.678.282 3.282.282 1.882.564-.548.282 1.417.282-.217.282-5.354.846-30.807.564-18.523.846-17.812.282-2.796.282-1.054.282.734.563 4.56.846 10.534.282.234.282 3.933.564 22.987.282 4.985.282.668.282 2.565.282 3.706.282.523.282-1.397.282 1.135.282 2.496.282-1.028.282-4.037.282-2.331.282-.379.282-1.045.282.576.846 16.204.281 2.142.846 12.85.282 1.303.282.099.282-4.024.846-29.013.846-37.064.282-4.425.282.434.282 1.121.564-.311.282.294.282-1.822.564-8.291.282.845.564 8.093.563 12.57.282 6.355.846 9.38.282 2.33.846 1.34.564-3.72.282 1.833.564 8.954.282 1.892.282 3.638 1.41 27.128.282 2.932.282 1.159.282-.222.282-1.807.563-7.815.564-10.366.846-24.256.564-7.802.282-2.392.282.636.564 7.137.564 8.288.282.094.282.4.282 5.847.564 19.119.282 4.354.282-.762 1.41-16.57.281 3.292.282 5.1.846 8.771.282.272.282-2.825.282-5.598 1.128-40.462.282-6.514.282 2.37.282 11.46.282 4.722.564-18.874.282-1.13.282.246.282-5.012.282-9.464.564-33.317 1.127-69.596.282-12.693.282-5.02.282-.756.282 2.768.564 16.749.282 11.154.564 36.749 1.128 86.385.846 33.518.282 11.121.282 4.534.282.213.282 2.484.282 3.896.281.32.282-1.751.282.876.282 2.199.282-.16.282-.798.282 1.787.282 2.736.282.89.282-.531.282-1.564 1.41-18.606.564-15.874.282-2.747.282.372.282-1.415.282-3.88.282-2.18.282-.189.282-3.097.563-10.25.282-1.22.564-4.764.282.918.282 2.353.282.047.282-.375.282 2.724.564 8.823.564 4.577.282 1.174.282.239.282.418.564 2.89.282-.984.282-2.203.282-.897.282-.145.282-1.105.282-.443.282 2.212.563 7.246.846 13.378.282.643.282-.105.282-2.679.846-21.234.846-22.054 1.41-18.945.282-.598.564 6.463.282 3.119 1.127 16.234.282 1.22.564 5.457.282 1.22.282.204.282.467.282 1.613.564 4.918.564 1.185.282 2.543.282 3.732.282 2.073.282.59.282 1.691.282 2.474.282 1.11.282.35.846 3.576.282.234.282-1.754.281-5.794 1.41-39.817.564-6.295.282-.716.282 1.492.282 3.536 1.128 22.772.282 1.739.282 2.439.282.622.282-2.775.564-8.317.282-2.193.282-.52.282.317.282 1.314.281 3.711.564 8.667.282 1.09.282 1.568.564 5.733.846 2.287.282-.092.282-2.77.564-6.404.282-.122.564 1.596.282.057.282-2.21 1.692-25.108.845-4.79.846 7.81.282 4.215.564 10.221.282.882.282 1.364.282 2.025.846 2.874.282-.122.282-1.433.282-.579.282.43.282.915.564 2.577.282-.56h.282l.564 3.494.281.391.282 1.922.282 3.482.282 1.534.564-2.417.282.87.282 1.448.282-.362.282-3.639 1.974-43.645.282.558.564 5.081.564 5.94 1.973 28.842.564-1.653.282.129.282-1.741.564-5.507.282-.172.282.217.282.477 1.128 4.382.564 3.526.564 2.17.564 4.034.282.275.282-1.824.281-4.592h0" clip-path="url(#pf931a6b843)" style="fill:none;stroke:#1f77b4;stroke-width:1.5;stroke-linecap:square"/><path id="patch_3" d="M71.308 266.112V0" style="fill:none;stroke:gray;stroke-width:.8;stroke-linejoin:miter;stroke-linecap:square"/><path id="patch_4" d="M685.107 266.112V0" style="fill:none;stroke:#000;stroke-width:.8;stroke-linejoin:miter;stroke-linecap:square"/><path id="patch_5" d="M71.308 266.112h613.8" style="fill:none;stroke:gray;stroke-width:.8;stroke-linejoin:miter;stroke-linecap:square"/><path id="patch_6" d="M71.308 0h613.8" style="fill:none;stroke:#000;stroke-width:.8;stroke-linejoin:miter;stroke-linecap:square"/></g></g><defs><clipPath id="pf931a6b843"><path d="M71.308 0h613.8v266.112h-613.8z"/></clipPath></defs></svg>