<?xml version="1.0" encoding="utf-8" standalone="no"?>
<!DOCTYPE svg PUBLIC "-//W3C//DTD SVG 1.1//EN"
  "http://www.w3.org/Graphics/SVG/1.1/DTD/svg11.dtd">
<svg xmlns:xlink="http://www.w3.org/1999/xlink" width="660.992188pt" height="282.790125pt" viewBox="0 0 660.992188 282.790125" xmlns="http://www.w3.org/2000/svg" version="1.1">
 <metadata>
  <rdf:RDF xmlns:dc="http://purl.org/dc/elements/1.1/" xmlns:cc="http://creativecommons.org/ns#" xmlns:rdf="http://www.w3.org/1999/02/22-rdf-syntax-ns#">
   <cc:Work>
    <dc:type rdf:resource="http://purl.org/dc/dcmitype/StillImage"/>
    <dc:date>2023-03-06T21:26:12.254340</dc:date>
    <dc:format>image/svg+xml</dc:format>
    <dc:creator>
     <cc:Agent>
      <dc:title>Matplotlib v3.6.3, https://matplotlib.org/</dc:title>
     </cc:Agent>
    </dc:creator>
   </cc:Work>
  </rdf:RDF>
 </metadata>
 <defs>
  <style type="text/css">*{stroke-linejoin: round; stroke-linecap: butt}</style>
 </defs>
 <g id="figure_1">
  <g id="patch_1">
   <path d="M -0 282.790125 
L 660.992188 282.790125 
L 660.992188 0 
L -0 0 
L -0 282.790125 
z
" style="fill: none"/>
  </g>
  <g id="axes_1">
   <g id="patch_2">
    <path d="M 47.192188 266.112 
L 660.992188 266.112 
L 660.992188 0 
L 47.192188 0 
L 47.192188 266.112 
z
" style="fill: none"/>
   </g>
   <g id="matplotlib.axis_1">
    <g id="xtick_1">
     <g id="line2d_1">
      <defs>
       <path id="m1c4a8b714d" d="M 0 0 
L 0 3.5 
" style="stroke: #808080; stroke-width: 0.8"/>
      </defs>
      <g>
       <use xlink:href="#m1c4a8b714d" x="75.092188" y="266.112" style="fill: #808080; stroke: #808080; stroke-width: 0.8"/>
      </g>
     </g>
     <g id="text_1">
      <!-- 0 -->
      <g style="fill: #808080" transform="translate(71.910938 280.710438) scale(0.1 -0.1)">
       <defs>
        <path id="DejaVuSans-30" d="M 2034 4250 
Q 1547 4250 1301 3770 
Q 1056 3291 1056 2328 
Q 1056 1369 1301 889 
Q 1547 409 2034 409 
Q 2525 409 2770 889 
Q 3016 1369 3016 2328 
Q 3016 3291 2770 3770 
Q 2525 4250 2034 4250 
z
M 2034 4750 
Q 2819 4750 3233 4129 
Q 3647 3509 3647 2328 
Q 3647 1150 3233 529 
Q 2819 -91 2034 -91 
Q 1250 -91 836 529 
Q 422 1150 422 2328 
Q 422 3509 836 4129 
Q 1250 4750 2034 4750 
z
" transform="scale(0.015625)"/>
       </defs>
       <use xlink:href="#DejaVuSans-30"/>
      </g>
     </g>
    </g>
    <g id="xtick_2">
     <g id="line2d_2">
      <g>
       <use xlink:href="#m1c4a8b714d" x="144.842188" y="266.112" style="fill: #808080; stroke: #808080; stroke-width: 0.8"/>
      </g>
     </g>
     <g id="text_2">
      <!-- 500 -->
      <g style="fill: #808080" transform="translate(135.298438 280.710438) scale(0.1 -0.1)">
       <defs>
        <path id="DejaVuSans-35" d="M 691 4666 
L 3169 4666 
L 3169 4134 
L 1269 4134 
L 1269 2991 
Q 1406 3038 1543 3061 
Q 1681 3084 1819 3084 
Q 2600 3084 3056 2656 
Q 3513 2228 3513 1497 
Q 3513 744 3044 326 
Q 2575 -91 1722 -91 
Q 1428 -91 1123 -41 
Q 819 9 494 109 
L 494 744 
Q 775 591 1075 516 
Q 1375 441 1709 441 
Q 2250 441 2565 725 
Q 2881 1009 2881 1497 
Q 2881 1984 2565 2268 
Q 2250 2553 1709 2553 
Q 1456 2553 1204 2497 
Q 953 2441 691 2322 
L 691 4666 
z
" transform="scale(0.015625)"/>
       </defs>
       <use xlink:href="#DejaVuSans-35"/>
       <use xlink:href="#DejaVuSans-30" x="63.623047"/>
       <use xlink:href="#DejaVuSans-30" x="127.246094"/>
      </g>
     </g>
    </g>
    <g id="xtick_3">
     <g id="line2d_3">
      <g>
       <use xlink:href="#m1c4a8b714d" x="214.592188" y="266.112" style="fill: #808080; stroke: #808080; stroke-width: 0.8"/>
      </g>
     </g>
     <g id="text_3">
      <!-- 1000 -->
      <g style="fill: #808080" transform="translate(201.867188 280.710438) scale(0.1 -0.1)">
       <defs>
        <path id="DejaVuSans-31" d="M 794 531 
L 1825 531 
L 1825 4091 
L 703 3866 
L 703 4441 
L 1819 4666 
L 2450 4666 
L 2450 531 
L 3481 531 
L 3481 0 
L 794 0 
L 794 531 
z
" transform="scale(0.015625)"/>
       </defs>
       <use xlink:href="#DejaVuSans-31"/>
       <use xlink:href="#DejaVuSans-30" x="63.623047"/>
       <use xlink:href="#DejaVuSans-30" x="127.246094"/>
       <use xlink:href="#DejaVuSans-30" x="190.869141"/>
      </g>
     </g>
    </g>
    <g id="xtick_4">
     <g id="line2d_4">
      <g>
       <use xlink:href="#m1c4a8b714d" x="284.342188" y="266.112" style="fill: #808080; stroke: #808080; stroke-width: 0.8"/>
      </g>
     </g>
     <g id="text_4">
      <!-- 1500 -->
      <g style="fill: #808080" transform="translate(271.617188 280.710438) scale(0.1 -0.1)">
       <use xlink:href="#DejaVuSans-31"/>
       <use xlink:href="#DejaVuSans-35" x="63.623047"/>
       <use xlink:href="#DejaVuSans-30" x="127.246094"/>
       <use xlink:href="#DejaVuSans-30" x="190.869141"/>
      </g>
     </g>
    </g>
    <g id="xtick_5">
     <g id="line2d_5">
      <g>
       <use xlink:href="#m1c4a8b714d" x="354.092188" y="266.112" style="fill: #808080; stroke: #808080; stroke-width: 0.8"/>
      </g>
     </g>
     <g id="text_5">
      <!-- 2000 -->
      <g style="fill: #808080" transform="translate(341.367188 280.710438) scale(0.1 -0.1)">
       <defs>
        <path id="DejaVuSans-32" d="M 1228 531 
L 3431 531 
L 3431 0 
L 469 0 
L 469 531 
Q 828 903 1448 1529 
Q 2069 2156 2228 2338 
Q 2531 2678 2651 2914 
Q 2772 3150 2772 3378 
Q 2772 3750 2511 3984 
Q 2250 4219 1831 4219 
Q 1534 4219 1204 4116 
Q 875 4013 500 3803 
L 500 4441 
Q 881 4594 1212 4672 
Q 1544 4750 1819 4750 
Q 2544 4750 2975 4387 
Q 3406 4025 3406 3419 
Q 3406 3131 3298 2873 
Q 3191 2616 2906 2266 
Q 2828 2175 2409 1742 
Q 1991 1309 1228 531 
z
" transform="scale(0.015625)"/>
       </defs>
       <use xlink:href="#DejaVuSans-32"/>
       <use xlink:href="#DejaVuSans-30" x="63.623047"/>
       <use xlink:href="#DejaVuSans-30" x="127.246094"/>
       <use xlink:href="#DejaVuSans-30" x="190.869141"/>
      </g>
     </g>
    </g>
    <g id="xtick_6">
     <g id="line2d_6">
      <g>
       <use xlink:href="#m1c4a8b714d" x="423.842188" y="266.112" style="fill: #808080; stroke: #808080; stroke-width: 0.8"/>
      </g>
     </g>
     <g id="text_6">
      <!-- 2500 -->
      <g style="fill: #808080" transform="translate(411.117188 280.710438) scale(0.1 -0.1)">
       <use xlink:href="#DejaVuSans-32"/>
       <use xlink:href="#DejaVuSans-35" x="63.623047"/>
       <use xlink:href="#DejaVuSans-30" x="127.246094"/>
       <use xlink:href="#DejaVuSans-30" x="190.869141"/>
      </g>
     </g>
    </g>
    <g id="xtick_7">
     <g id="line2d_7">
      <g>
       <use xlink:href="#m1c4a8b714d" x="493.592188" y="266.112" style="fill: #808080; stroke: #808080; stroke-width: 0.8"/>
      </g>
     </g>
     <g id="text_7">
      <!-- 3000 -->
      <g style="fill: #808080" transform="translate(480.867188 280.710438) scale(0.1 -0.1)">
       <defs>
        <path id="DejaVuSans-33" d="M 2597 2516 
Q 3050 2419 3304 2112 
Q 3559 1806 3559 1356 
Q 3559 666 3084 287 
Q 2609 -91 1734 -91 
Q 1441 -91 1130 -33 
Q 819 25 488 141 
L 488 750 
Q 750 597 1062 519 
Q 1375 441 1716 441 
Q 2309 441 2620 675 
Q 2931 909 2931 1356 
Q 2931 1769 2642 2001 
Q 2353 2234 1838 2234 
L 1294 2234 
L 1294 2753 
L 1863 2753 
Q 2328 2753 2575 2939 
Q 2822 3125 2822 3475 
Q 2822 3834 2567 4026 
Q 2313 4219 1838 4219 
Q 1578 4219 1281 4162 
Q 984 4106 628 3988 
L 628 4550 
Q 988 4650 1302 4700 
Q 1616 4750 1894 4750 
Q 2613 4750 3031 4423 
Q 3450 4097 3450 3541 
Q 3450 3153 3228 2886 
Q 3006 2619 2597 2516 
z
" transform="scale(0.015625)"/>
       </defs>
       <use xlink:href="#DejaVuSans-33"/>
       <use xlink:href="#DejaVuSans-30" x="63.623047"/>
       <use xlink:href="#DejaVuSans-30" x="127.246094"/>
       <use xlink:href="#DejaVuSans-30" x="190.869141"/>
      </g>
     </g>
    </g>
    <g id="xtick_8">
     <g id="line2d_8">
      <g>
       <use xlink:href="#m1c4a8b714d" x="563.342188" y="266.112" style="fill: #808080; stroke: #808080; stroke-width: 0.8"/>
      </g>
     </g>
     <g id="text_8">
      <!-- 3500 -->
      <g style="fill: #808080" transform="translate(550.617188 280.710438) scale(0.1 -0.1)">
       <use xlink:href="#DejaVuSans-33"/>
       <use xlink:href="#DejaVuSans-35" x="63.623047"/>
       <use xlink:href="#DejaVuSans-30" x="127.246094"/>
       <use xlink:href="#DejaVuSans-30" x="190.869141"/>
      </g>
     </g>
    </g>
    <g id="xtick_9">
     <g id="line2d_9">
      <g>
       <use xlink:href="#m1c4a8b714d" x="633.092188" y="266.112" style="fill: #808080; stroke: #808080; stroke-width: 0.8"/>
      </g>
     </g>
     <g id="text_9">
      <!-- 4000 -->
      <g style="fill: #808080" transform="translate(620.367188 280.710438) scale(0.1 -0.1)">
       <defs>
        <path id="DejaVuSans-34" d="M 2419 4116 
L 825 1625 
L 2419 1625 
L 2419 4116 
z
M 2253 4666 
L 3047 4666 
L 3047 1625 
L 3713 1625 
L 3713 1100 
L 3047 1100 
L 3047 0 
L 2419 0 
L 2419 1100 
L 313 1100 
L 313 1709 
L 2253 4666 
z
" transform="scale(0.015625)"/>
       </defs>
       <use xlink:href="#DejaVuSans-34"/>
       <use xlink:href="#DejaVuSans-30" x="63.623047"/>
       <use xlink:href="#DejaVuSans-30" x="127.246094"/>
       <use xlink:href="#DejaVuSans-30" x="190.869141"/>
      </g>
     </g>
    </g>
   </g>
   <g id="matplotlib.axis_2">
    <g id="ytick_1">
     <g id="line2d_10">
      <defs>
       <path id="m3909c686af" d="M 0 0 
L -3.5 0 
" style="stroke: #808080; stroke-width: 0.8"/>
      </defs>
      <g>
       <use xlink:href="#m3909c686af" x="47.192188" y="251.755523" style="fill: #808080; stroke: #808080; stroke-width: 0.8"/>
      </g>
     </g>
     <g id="text_10">
      <!-- −20000 -->
      <g style="fill: #808080" transform="translate(0 255.554742) scale(0.1 -0.1)">
       <defs>
        <path id="DejaVuSans-2212" d="M 678 2272 
L 4684 2272 
L 4684 1741 
L 678 1741 
L 678 2272 
z
" transform="scale(0.015625)"/>
       </defs>
       <use xlink:href="#DejaVuSans-2212"/>
       <use xlink:href="#DejaVuSans-32" x="83.789062"/>
       <use xlink:href="#DejaVuSans-30" x="147.412109"/>
       <use xlink:href="#DejaVuSans-30" x="211.035156"/>
       <use xlink:href="#DejaVuSans-30" x="274.658203"/>
       <use xlink:href="#DejaVuSans-30" x="338.28125"/>
      </g>
     </g>
    </g>
    <g id="ytick_2">
     <g id="line2d_11">
      <g>
       <use xlink:href="#m3909c686af" x="47.192188" y="205.831742" style="fill: #808080; stroke: #808080; stroke-width: 0.8"/>
      </g>
     </g>
     <g id="text_11">
      <!-- −10000 -->
      <g style="fill: #808080" transform="translate(0 209.630961) scale(0.1 -0.1)">
       <use xlink:href="#DejaVuSans-2212"/>
       <use xlink:href="#DejaVuSans-31" x="83.789062"/>
       <use xlink:href="#DejaVuSans-30" x="147.412109"/>
       <use xlink:href="#DejaVuSans-30" x="211.035156"/>
       <use xlink:href="#DejaVuSans-30" x="274.658203"/>
       <use xlink:href="#DejaVuSans-30" x="338.28125"/>
      </g>
     </g>
    </g>
    <g id="ytick_3">
     <g id="line2d_12">
      <g>
       <use xlink:href="#m3909c686af" x="47.192188" y="159.907962" style="fill: #808080; stroke: #808080; stroke-width: 0.8"/>
      </g>
     </g>
     <g id="text_12">
      <!-- 0 -->
      <g style="fill: #808080" transform="translate(33.829688 163.707181) scale(0.1 -0.1)">
       <use xlink:href="#DejaVuSans-30"/>
      </g>
     </g>
    </g>
    <g id="ytick_4">
     <g id="line2d_13">
      <g>
       <use xlink:href="#m3909c686af" x="47.192188" y="113.984181" style="fill: #808080; stroke: #808080; stroke-width: 0.8"/>
      </g>
     </g>
     <g id="text_13">
      <!-- 10000 -->
      <g style="fill: #808080" transform="translate(8.379688 117.7834) scale(0.1 -0.1)">
       <use xlink:href="#DejaVuSans-31"/>
       <use xlink:href="#DejaVuSans-30" x="63.623047"/>
       <use xlink:href="#DejaVuSans-30" x="127.246094"/>
       <use xlink:href="#DejaVuSans-30" x="190.869141"/>
       <use xlink:href="#DejaVuSans-30" x="254.492188"/>
      </g>
     </g>
    </g>
    <g id="ytick_5">
     <g id="line2d_14">
      <g>
       <use xlink:href="#m3909c686af" x="47.192188" y="68.060401" style="fill: #808080; stroke: #808080; stroke-width: 0.8"/>
      </g>
     </g>
     <g id="text_14">
      <!-- 20000 -->
      <g style="fill: #808080" transform="translate(8.379688 71.85962) scale(0.1 -0.1)">
       <use xlink:href="#DejaVuSans-32"/>
       <use xlink:href="#DejaVuSans-30" x="63.623047"/>
       <use xlink:href="#DejaVuSans-30" x="127.246094"/>
       <use xlink:href="#DejaVuSans-30" x="190.869141"/>
       <use xlink:href="#DejaVuSans-30" x="254.492188"/>
      </g>
     </g>
    </g>
    <g id="ytick_6">
     <g id="line2d_15">
      <g>
       <use xlink:href="#m3909c686af" x="47.192188" y="22.13662" style="fill: #808080; stroke: #808080; stroke-width: 0.8"/>
      </g>
     </g>
     <g id="text_15">
      <!-- 30000 -->
      <g style="fill: #808080" transform="translate(8.379688 25.935839) scale(0.1 -0.1)">
       <use xlink:href="#DejaVuSans-33"/>
       <use xlink:href="#DejaVuSans-30" x="63.623047"/>
       <use xlink:href="#DejaVuSans-30" x="127.246094"/>
       <use xlink:href="#DejaVuSans-30" x="190.869141"/>
       <use xlink:href="#DejaVuSans-30" x="254.492188"/>
      </g>
     </g>
    </g>
   </g>
   <g id="line2d_16">
    <path d="M 75.092188 159.820259 
L 75.374148 159.996217 
L 75.656109 159.819004 
L 75.938069 159.997764 
L 76.22003 159.817179 
L 76.50199 159.999857 
L 76.783951 159.814827 
L 77.065912 160.002465 
L 77.347872 159.811963 
L 77.629833 160.005587 
L 77.911793 159.808577 
L 78.193754 160.009244 
L 78.475715 159.804638 
L 78.757675 160.013478 
L 79.039636 159.800094 
L 79.321596 160.01835 
L 79.603557 159.794872 
L 79.885517 160.023947 
L 80.167478 159.788872 
L 80.449439 160.030383 
L 80.731399 159.781961 
L 81.01336 160.037812 
L 81.29532 159.773966 
L 81.577281 160.046433 
L 81.859242 159.764652 
L 82.141202 160.056516 
L 82.423163 159.753709 
L 82.705123 160.068424 
L 82.987084 159.740709 
L 83.269044 160.082664 
L 83.551005 159.725053 
L 83.832966 160.099951 
L 84.114926 159.705875 
L 84.396887 160.121338 
L 84.678847 159.681884 
L 84.960808 160.148431 
L 85.242769 159.651056 
L 85.524729 160.183811 
L 85.80669 159.610049 
L 86.08865 160.23189 
L 86.370611 159.55291 
L 86.652572 160.300896 
L 86.934532 159.467939 
L 87.216493 160.408061 
L 87.498453 159.328635 
L 87.780414 160.596397 
L 88.062374 159.060152 
L 88.344335 161.008928 
L 88.626296 158.351696 
L 88.908256 162.40507 
L 89.190217 118.605408 
L 89.472177 114.018002 
L 90.036099 144.825996 
L 90.318059 159.653017 
L 91.163941 179.34845 
L 91.445901 183.908901 
L 91.727862 184.486646 
L 92.009823 185.45757 
L 92.573744 182.758922 
L 93.137665 177.276933 
L 93.983547 168.548553 
L 94.547468 165.663092 
L 94.829429 164.913374 
L 95.111389 163.482558 
L 95.39335 163.615526 
L 95.67531 164.173073 
L 95.957271 165.754491 
L 96.803153 167.971565 
L 97.085113 168.131204 
L 97.649034 165.860347 
L 97.930995 165.505796 
L 98.212956 166.598678 
L 98.494916 166.636039 
L 99.058837 165.579838 
L 99.340798 166.527387 
L 99.904719 167.510808 
L 100.18668 168.496476 
L 100.46864 170.573728 
L 100.750601 171.34152 
L 101.032561 171.199494 
L 101.314522 171.320571 
L 101.878443 174.667953 
L 102.160404 174.815635 
L 102.442364 173.951846 
L 102.724325 174.471766 
L 103.006286 176.102203 
L 103.852167 183.513943 
L 104.134128 183.940136 
L 104.698049 180.054436 
L 105.26197 180.580475 
L 105.543931 176.732568 
L 106.671773 139.166576 
L 107.517655 97.945375 
L 108.081576 87.644793 
L 108.363537 86.777319 
L 108.645497 90.194566 
L 108.927458 97.865061 
L 109.491379 122.897431 
L 110.0553 148.877642 
L 110.619221 164.344662 
L 111.183143 173.43114 
L 111.465103 175.918233 
L 111.747064 177.005128 
L 112.029024 177.176228 
L 112.592945 179.235118 
L 112.874906 178.846358 
L 113.438827 174.216154 
L 115.130591 166.022596 
L 115.412551 165.608679 
L 115.694512 165.790364 
L 115.976472 165.700686 
L 116.540394 165.042787 
L 116.822354 165.008439 
L 117.386275 164.484044 
L 117.668236 164.727711 
L 117.950197 165.567769 
L 118.232157 165.741188 
L 118.514118 165.495181 
L 118.796078 165.758722 
L 119.078039 166.884952 
L 119.36 167.231965 
L 119.64196 166.707612 
L 119.923921 166.59261 
L 120.487842 169.429125 
L 120.769802 169.603156 
L 121.051763 168.909293 
L 121.333724 169.367543 
L 121.897645 172.767715 
L 122.461566 174.741004 
L 123.025487 177.608775 
L 123.307448 178.285119 
L 123.589408 180.106764 
L 124.153329 184.92021 
L 124.43529 183.765528 
L 124.717251 181.296995 
L 124.999211 179.835088 
L 125.281172 179.36 
L 125.563132 176.427761 
L 125.845093 168.339188 
L 127.536857 95.425396 
L 127.818817 91.934986 
L 128.100778 93.846502 
L 128.664699 101.16405 
L 128.946659 108.369502 
L 130.074502 153.43461 
L 130.638423 166.279424 
L 131.202344 175.09953 
L 131.484305 176.806561 
L 131.766265 176.360298 
L 132.330186 172.121943 
L 133.176068 165.979209 
L 133.739989 164.039765 
L 134.303911 160.133946 
L 134.585871 161.136656 
L 134.867832 163.570935 
L 135.149792 164.327727 
L 135.431753 163.935917 
L 135.713714 164.197877 
L 135.995674 164.906908 
L 136.277635 164.706125 
L 136.559595 163.912352 
L 137.123516 161.228201 
L 137.405477 161.043109 
L 137.687438 162.170131 
L 137.969398 161.987708 
L 138.251359 160.449518 
L 138.533319 161.023049 
L 139.097241 169.173335 
L 139.379201 170.214532 
L 139.661162 169.523241 
L 139.943122 169.614108 
L 140.507043 171.412156 
L 140.789004 170.92232 
L 141.070965 170.06108 
L 141.352925 170.466559 
L 141.916846 173.579912 
L 142.198807 174.182594 
L 142.480768 175.470454 
L 143.890571 186.579429 
L 144.172531 187.345235 
L 144.454492 188.506628 
L 144.736452 190.194368 
L 145.018413 189.690365 
L 145.300373 185.424099 
L 145.582334 178.74693 
L 145.864295 169.25053 
L 146.428216 136.632426 
L 147.274098 87.336178 
L 147.556058 77.557117 
L 147.838019 72.266168 
L 148.119979 71.208945 
L 148.40194 74.72946 
L 148.6839 83.481036 
L 150.375664 162.912609 
L 150.657625 168.886706 
L 150.939585 171.113282 
L 151.503506 173.79322 
L 151.785467 174.100187 
L 152.349388 172.412163 
L 152.631349 171.404536 
L 153.47723 160.920908 
L 153.759191 160.931716 
L 154.041152 160.669297 
L 154.323112 159.45339 
L 154.605073 159.70413 
L 155.168994 164.996669 
L 155.450955 165.344046 
L 155.732915 164.09454 
L 156.014876 163.566607 
L 156.296836 164.013236 
L 156.578797 163.014677 
L 156.860757 160.315033 
L 157.142718 158.765846 
L 157.424679 160.078423 
L 157.706639 161.922498 
L 157.9886 162.266845 
L 158.27056 162.021363 
L 158.834482 163.472667 
L 159.398403 163.865838 
L 159.962324 165.362779 
L 160.244285 165.192814 
L 160.526245 165.513089 
L 161.654087 173.79775 
L 161.936048 175.353202 
L 162.499969 180.662486 
L 162.78193 181.001719 
L 163.06389 180.170163 
L 163.345851 180.258634 
L 164.191733 186.176008 
L 164.473693 185.869216 
L 164.755654 187.270076 
L 165.037614 190.432551 
L 165.319575 191.252374 
L 165.601536 186.919133 
L 166.165457 167.746758 
L 167.011339 118.242977 
L 167.57526 88.23817 
L 167.85722 78.651951 
L 168.139181 74.744172 
L 168.421142 74.631112 
L 168.703102 78.325999 
L 168.985063 87.506088 
L 170.676826 165.396674 
L 171.240747 171.602987 
L 171.804669 180.017114 
L 172.086629 181.086138 
L 172.36859 180.589974 
L 172.65055 179.474903 
L 172.932511 176.890865 
L 173.496432 169.116781 
L 173.778393 167.517489 
L 174.060353 166.660703 
L 174.906235 162.060083 
L 175.188196 161.809458 
L 175.752117 160.236805 
L 176.034077 160.221748 
L 176.316038 160.561542 
L 177.44388 161.11163 
L 178.007801 160.910111 
L 178.571723 161.369697 
L 178.853683 161.875052 
L 179.699565 164.24054 
L 179.981526 165.992432 
L 180.545447 171.694009 
L 180.827407 172.223167 
L 181.109368 171.871748 
L 181.391328 172.358834 
L 181.95525 175.964359 
L 182.519171 179.281386 
L 182.801131 180.840725 
L 183.083092 184.005022 
L 183.647013 193.463369 
L 183.928974 196.122283 
L 184.210934 197.286179 
L 184.774856 198.351091 
L 185.056816 198.889734 
L 185.338777 198.609845 
L 185.620737 194.94877 
L 185.902698 185.76702 
L 186.466619 155.442095 
L 187.594461 84.625695 
L 187.876422 74.125131 
L 188.158383 68.332545 
L 188.440343 68.265175 
L 189.004264 79.774108 
L 189.568185 96.430526 
L 190.132107 128.981975 
L 190.696028 160.00372 
L 190.977988 168.504518 
L 191.54191 176.931117 
L 191.82387 178.475864 
L 192.105831 177.76687 
L 192.951713 172.386602 
L 193.233673 171.361667 
L 193.797594 171.355739 
L 194.079555 170.083098 
L 194.643476 165.896322 
L 194.925437 164.480632 
L 195.207397 164.084373 
L 195.489358 164.583841 
L 195.771318 164.689661 
L 196.053279 163.726512 
L 196.33524 163.320601 
L 196.899161 165.058153 
L 197.463082 163.343418 
L 197.745042 163.476575 
L 198.872885 167.469674 
L 199.154845 169.343906 
L 200.000727 183.322227 
L 200.564648 185.682068 
L 200.846609 187.849509 
L 201.12857 188.845196 
L 201.41053 188.387041 
L 201.692491 188.572901 
L 202.256412 193.316662 
L 202.820333 198.401837 
L 203.384254 206.331663 
L 203.948175 213.771368 
L 204.230136 215.150723 
L 204.512097 213.558943 
L 204.794057 207.756196 
L 205.076018 197.007029 
L 205.639939 161.902422 
L 206.767781 78.308383 
L 207.331702 54.076718 
L 207.613663 48.634719 
L 207.895624 46.045202 
L 208.177584 45.551529 
L 208.459545 49.04043 
L 208.741505 58.709861 
L 209.305427 89.871135 
L 210.433269 169.840233 
L 210.99719 184.4069 
L 211.279151 186.595134 
L 211.561111 184.166226 
L 211.843072 180.45355 
L 212.125032 179.115071 
L 212.406993 178.661845 
L 212.970914 174.627324 
L 213.252875 174.57853 
L 213.534835 175.277484 
L 213.816796 175.102297 
L 214.380717 174.022765 
L 214.944638 170.713604 
L 215.226599 170.911689 
L 215.508559 172.784774 
L 215.79052 173.342037 
L 216.354441 170.265642 
L 216.636402 171.134394 
L 216.918362 173.210301 
L 217.200323 174.041417 
L 217.764244 171.338343 
L 218.046205 172.049898 
L 218.610126 177.18048 
L 219.174047 179.23138 
L 219.737968 183.842741 
L 220.58385 191.805438 
L 221.711692 208.407234 
L 223.121495 228.12664 
L 223.403456 229.591578 
L 223.685416 230.163834 
L 223.967377 228.684215 
L 224.249338 221.631262 
L 224.813259 189.886998 
L 225.37718 143.836898 
L 226.223062 68.283565 
L 226.786983 43.287693 
L 227.068943 38.194552 
L 227.350904 36.152687 
L 227.632865 37.252358 
L 228.196786 46.562277 
L 228.478746 52.406102 
L 228.760707 61.8118 
L 229.324628 95.988805 
L 230.17051 159.81873 
L 230.45247 170.189562 
L 230.734431 173.978951 
L 231.298352 178.45055 
L 231.580313 178.635958 
L 232.144234 174.959645 
L 232.426195 174.731765 
L 232.708155 174.290777 
L 233.272076 169.372855 
L 233.554037 168.984792 
L 233.835998 170.617286 
L 234.117958 171.567538 
L 234.96384 169.580455 
L 235.2458 169.019948 
L 235.527761 168.745285 
L 236.091682 171.273982 
L 236.373643 171.497185 
L 236.655603 171.52608 
L 237.219525 176.045269 
L 237.501485 176.401933 
L 237.783446 174.733515 
L 238.065406 174.561382 
L 238.911288 182.781187 
L 239.193249 184.251961 
L 239.475209 186.68486 
L 240.03913 196.654882 
L 240.603052 207.184094 
L 242.012855 223.042117 
L 242.576776 230.502831 
L 242.858736 233.841843 
L 243.140697 235.625872 
L 243.422657 236.53366 
L 243.704618 235.499535 
L 243.986579 229.948659 
L 244.268539 218.808864 
L 244.83246 179.206966 
L 245.678342 97.567738 
L 246.242263 63.763981 
L 246.806184 43.470192 
L 247.652066 27.883437 
L 247.934027 23.941672 
L 248.215987 24.423169 
L 248.497948 32.764518 
L 249.061869 69.520822 
L 250.189712 170.338249 
L 250.471672 176.384499 
L 250.753633 177.635182 
L 251.035593 178.367792 
L 251.317554 177.64906 
L 251.599514 175.937612 
L 251.881475 175.590592 
L 252.163436 176.169355 
L 252.445396 175.304079 
L 253.009317 171.330308 
L 253.573239 169.089628 
L 253.855199 168.722141 
L 254.41912 169.362123 
L 254.701081 169.224126 
L 254.983041 169.984259 
L 255.546963 173.679783 
L 255.828923 173.921005 
L 256.110884 173.147711 
L 256.674805 170.799642 
L 256.956766 171.081837 
L 257.520687 176.187071 
L 257.802647 176.96285 
L 258.084608 177.381959 
L 258.366569 180.095953 
L 258.93049 187.252279 
L 259.21245 188.725879 
L 259.494411 190.913213 
L 260.058332 201.117055 
L 260.622253 209.973949 
L 261.186174 216.48441 
L 261.750096 223.671689 
L 262.032056 225.45163 
L 262.314017 228.267071 
L 262.877938 236.478458 
L 263.159898 237.614155 
L 263.441859 235.30658 
L 263.72382 228.599765 
L 264.00578 215.646465 
L 264.569701 171.385992 
L 265.697544 66.844949 
L 266.261465 44.651267 
L 266.825386 26.600606 
L 267.107347 22.2191 
L 267.389307 23.41628 
L 267.671268 27.015205 
L 267.953228 32.465539 
L 268.235189 42.345837 
L 268.79911 78.655264 
L 269.644992 154.563213 
L 269.926953 167.461504 
L 270.490874 178.200323 
L 270.772834 181.133303 
L 271.618716 185.423944 
L 271.900677 183.721346 
L 272.464598 175.694013 
L 272.746558 173.907342 
L 273.028519 173.729764 
L 273.31048 173.848228 
L 273.874401 172.692313 
L 274.156361 173.647162 
L 274.438322 175.583963 
L 274.720282 175.624024 
L 275.002243 173.570211 
L 275.284204 172.824293 
L 275.566164 174.277903 
L 275.848125 174.675268 
L 276.130085 172.717419 
L 276.412046 171.541126 
L 276.694007 173.370001 
L 277.257928 178.941136 
L 278.10381 183.01512 
L 278.667731 187.842197 
L 280.077534 202.663052 
L 282.333218 241.245662 
L 282.615179 247.770363 
L 282.897139 250.659701 
L 283.1791 249.393949 
L 283.461061 245.008962 
L 283.743021 235.137914 
L 284.024982 215.833881 
L 285.716745 46.706244 
L 286.280667 17.881339 
L 286.562627 12.384084 
L 286.844588 12.096 
L 287.408509 16.455237 
L 287.690469 21.804792 
L 288.254391 44.969714 
L 288.818312 78.650441 
L 289.664194 151.513718 
L 289.946154 174.263559 
L 290.228115 187.651359 
L 290.510075 191.534721 
L 290.792036 191.854928 
L 291.073996 192.746406 
L 291.355957 192.802571 
L 292.483799 183.379525 
L 293.047721 177.729674 
L 293.329681 177.147563 
L 293.611642 176.225331 
L 293.893602 174.39602 
L 294.175563 173.847306 
L 294.739484 176.610096 
L 295.303405 173.735694 
L 295.585366 174.065273 
L 295.867326 175.659306 
L 296.149287 176.509229 
L 296.431248 176.610429 
L 296.713208 177.144149 
L 297.277129 179.453054 
L 297.841051 182.542212 
L 298.123011 182.932206 
L 298.404972 182.453617 
L 298.686932 183.024255 
L 299.532814 190.03005 
L 299.814775 191.197749 
L 300.096735 193.766602 
L 302.070459 219.902435 
L 302.634381 237.556016 
L 303.480262 251.923327 
L 303.762223 254.016 
L 304.044183 248.21607 
L 304.326144 235.138841 
L 304.890065 190.13673 
L 306.017908 64.219127 
L 306.581829 27.562557 
L 306.863789 18.837375 
L 307.14575 14.319933 
L 307.42771 13.800245 
L 307.709671 16.299963 
L 307.991632 20.131881 
L 308.273592 25.57894 
L 308.837513 45.277302 
L 309.401435 77.137449 
L 310.247316 147.53922 
L 310.811238 191.741078 
L 311.093198 200.131391 
L 311.375159 199.926423 
L 311.93908 195.232735 
L 312.22104 193.674564 
L 313.348883 184.178277 
L 313.912804 181.154533 
L 314.194765 180.461693 
L 314.476725 180.302259 
L 314.758686 178.640758 
L 315.322607 171.053989 
L 315.604567 169.517047 
L 315.886528 169.577834 
L 316.168489 169.516497 
L 316.450449 168.993518 
L 316.73241 169.02433 
L 317.01437 170.632961 
L 317.296331 173.297714 
L 317.578292 174.843676 
L 317.860252 174.363699 
L 318.142213 174.424014 
L 318.424173 177.50735 
L 318.706134 181.87842 
L 318.988095 184.419038 
L 319.270055 185.508507 
L 319.833976 188.947054 
L 320.397897 190.690364 
L 320.679858 193.253649 
L 321.52574 204.804975 
L 323.781424 238.248093 
L 324.063385 241.439673 
L 324.345346 242.651811 
L 324.627306 240.146573 
L 324.909267 231.851287 
L 325.191227 216.230057 
L 325.755149 163.765911 
L 326.60103 67.69037 
L 327.164952 32.138842 
L 327.446912 23.736743 
L 327.728873 20.581342 
L 328.010833 20.282124 
L 328.292794 21.766135 
L 328.574754 25.994815 
L 329.420636 45.298669 
L 329.984557 78.957343 
L 330.830439 149.784805 
L 331.1124 173.01614 
L 331.39436 186.855877 
L 331.676321 192.623586 
L 331.958281 194.372696 
L 332.240242 192.928275 
L 333.086124 181.304474 
L 333.650045 177.447891 
L 334.495927 173.869788 
L 335.059848 174.301505 
L 335.341809 173.593833 
L 335.623769 173.315528 
L 335.90573 173.860299 
L 336.18769 173.558332 
L 336.469651 172.704191 
L 336.751611 173.42857 
L 337.033572 175.166939 
L 337.315533 175.656351 
L 337.597493 175.438058 
L 338.443375 178.01379 
L 338.725336 179.978333 
L 339.289257 187.205775 
L 339.571217 188.176857 
L 339.853178 188.675996 
L 340.98102 195.790188 
L 341.544941 203.00079 
L 342.672784 222.104674 
L 343.518666 240.952435 
L 343.800626 243.933009 
L 344.082587 244.595773 
L 344.364547 243.254183 
L 344.646508 238.206384 
L 344.928468 225.078519 
L 345.49239 169.658485 
L 346.338271 70.319556 
L 346.902193 33.907313 
L 347.184153 26.944217 
L 347.466114 24.33037 
L 347.748074 24.267936 
L 348.030035 25.916601 
L 348.593956 33.990679 
L 349.157877 44.413169 
L 349.439838 55.047494 
L 350.28572 105.872797 
L 351.413562 188.510873 
L 351.695523 195.20749 
L 351.977483 196.524122 
L 352.259444 194.771728 
L 352.823365 187.93585 
L 353.387286 179.23235 
L 353.669247 177.331494 
L 353.951207 176.726595 
L 354.233168 175.419209 
L 354.515128 173.413055 
L 354.797089 172.841149 
L 355.07905 174.966334 
L 355.642971 181.084685 
L 355.924931 182.378124 
L 356.206892 182.963693 
L 356.488852 183.054507 
L 357.052774 182.384277 
L 357.334734 182.898626 
L 359.308458 189.215001 
L 360.15434 194.154718 
L 361.000222 201.444109 
L 361.282182 202.49417 
L 361.564143 205.052975 
L 362.691985 225.988048 
L 363.537867 245.180444 
L 363.819828 248.453228 
L 364.101788 249.868539 
L 364.383749 247.972872 
L 364.665709 237.964715 
L 364.94767 216.874747 
L 365.511591 151.69024 
L 366.357473 48.867822 
L 366.639434 33.996906 
L 366.921394 26.544648 
L 367.203355 22.224718 
L 367.485315 21.016315 
L 367.767276 22.703693 
L 368.331197 28.887 
L 368.613158 33.291824 
L 368.895118 39.754683 
L 369.177079 50.225716 
L 371.714724 179.51015 
L 371.996685 188.598197 
L 372.278645 192.374717 
L 372.560606 191.306769 
L 372.842566 189.440334 
L 373.124527 189.417283 
L 373.406488 190.517176 
L 373.688448 190.580402 
L 374.252369 186.676515 
L 374.53433 186.429839 
L 374.816291 186.830818 
L 375.098251 184.911757 
L 375.380212 181.405165 
L 375.662172 180.260229 
L 375.944133 181.537806 
L 376.226094 180.58714 
L 376.508054 176.412056 
L 376.790015 174.204756 
L 377.635896 181.410853 
L 377.917857 180.53316 
L 378.199818 180.950135 
L 378.481778 182.233993 
L 379.045699 183.958338 
L 379.891581 192.779137 
L 380.173542 193.922031 
L 380.455502 196.015711 
L 381.019423 203.585158 
L 381.865305 210.429915 
L 382.993148 230.299832 
L 383.839029 246.777496 
L 384.12099 247.081402 
L 384.402951 243.810841 
L 384.684911 235.793348 
L 384.966872 217.892517 
L 385.530793 147.833583 
L 386.094714 76.385956 
L 386.658635 37.93732 
L 386.940596 31.051258 
L 387.222556 29.425447 
L 387.504517 30.861461 
L 388.068438 36.101899 
L 388.350399 39.780797 
L 388.91432 51.254753 
L 389.478241 68.278984 
L 390.324123 101.92524 
L 391.451965 166.90308 
L 392.015886 185.997047 
L 392.297847 189.106405 
L 392.861768 191.190268 
L 393.143729 190.027837 
L 393.70765 183.340388 
L 394.271571 180.246882 
L 394.553532 179.349992 
L 394.835492 179.111441 
L 395.117453 178.340994 
L 395.681374 174.351618 
L 395.963335 174.711195 
L 396.245295 176.667467 
L 396.527256 177.769974 
L 396.809216 177.164866 
L 397.091177 176.939667 
L 397.373137 179.103788 
L 397.655098 182.156293 
L 397.937059 183.260024 
L 398.219019 182.636698 
L 398.50098 182.740712 
L 400.192743 191.05779 
L 401.038625 199.567572 
L 401.884507 210.938234 
L 402.448428 220.004814 
L 403.012349 230.500782 
L 404.140192 246.419106 
L 404.422152 245.500757 
L 404.704113 237.613602 
L 404.986073 221.417031 
L 405.549994 161.559686 
L 406.113916 81.988759 
L 406.395876 55.569913 
L 406.677837 42.164936 
L 407.241758 31.239568 
L 407.523719 27.726632 
L 407.805679 26.67066 
L 408.08764 28.691374 
L 408.651561 37.538141 
L 408.933522 44.037515 
L 409.497443 66.900295 
L 411.189206 148.988156 
L 411.753127 167.109346 
L 412.317049 179.341666 
L 412.599009 183.138208 
L 412.88097 183.712434 
L 414.008812 177.223835 
L 414.572733 176.750862 
L 415.136654 175.312631 
L 415.700576 176.632144 
L 415.982536 176.630563 
L 416.264497 177.167579 
L 416.828418 180.280452 
L 417.110379 179.910029 
L 417.392339 180.154135 
L 418.238221 187.490364 
L 418.520181 188.184835 
L 418.802142 190.902001 
L 419.084103 194.817233 
L 419.366063 196.483474 
L 419.929984 193.19651 
L 420.211945 193.946707 
L 421.057827 201.465466 
L 421.621748 212.160203 
L 422.46763 230.524538 
L 423.313511 244.973452 
L 423.877433 251.870286 
L 424.159393 253.134036 
L 424.441354 249.249425 
L 424.723314 237.622333 
L 425.005275 216.851315 
L 425.569196 142.354362 
L 426.133117 67.257238 
L 426.415078 51.257472 
L 426.978999 39.219775 
L 427.26096 36.645551 
L 427.54292 38.321506 
L 428.952723 64.396348 
L 429.516644 83.472989 
L 430.080565 97.343489 
L 431.490368 154.273141 
L 431.772329 158.178614 
L 432.33625 161.688762 
L 432.618211 163.996437 
L 432.900171 164.37433 
L 433.464093 161.373821 
L 433.746053 161.612121 
L 434.028014 162.851596 
L 434.309974 163.553007 
L 434.591935 161.964072 
L 434.873895 158.174437 
L 435.155856 155.965841 
L 435.437817 158.612023 
L 435.719777 163.396862 
L 436.001738 165.359434 
L 436.283698 165.597961 
L 436.565659 169.056948 
L 437.12958 180.438359 
L 437.693501 186.26997 
L 437.975462 189.577715 
L 438.257422 190.834761 
L 438.539383 190.971955 
L 438.821344 191.516902 
L 439.385265 192.033726 
L 440.231147 197.264518 
L 440.513107 197.811556 
L 441.077028 201.761581 
L 441.358989 202.895964 
L 441.64095 204.94869 
L 443.050752 221.955176 
L 443.332713 224.57589 
L 443.896634 231.924147 
L 444.178595 233.503871 
L 444.460555 236.103058 
L 445.024477 247.719873 
L 445.306437 247.366581 
L 445.588398 238.836509 
L 445.870358 221.042625 
L 446.434279 155.566377 
L 446.998201 86.089972 
L 447.280161 65.686957 
L 447.562122 55.210846 
L 447.844082 50.419215 
L 448.126043 48.244675 
L 448.408004 48.425674 
L 448.689964 51.095671 
L 449.253885 61.143197 
L 449.817806 71.646263 
L 450.099767 73.640715 
L 450.381728 77.455893 
L 450.945649 97.873986 
L 452.637412 163.262315 
L 452.919373 167.886826 
L 453.201334 167.212211 
L 453.765255 160.793839 
L 454.047215 160.690818 
L 454.329176 160.406582 
L 455.738979 148.462687 
L 456.020939 147.998109 
L 456.866821 153.382565 
L 457.148782 155.780625 
L 457.712703 163.526109 
L 457.994663 164.647375 
L 458.276624 164.87728 
L 458.558585 167.765992 
L 459.404466 186.412484 
L 459.968388 194.442517 
L 460.532309 204.690377 
L 460.814269 207.225828 
L 461.09623 208.468272 
L 461.660151 213.405393 
L 461.942112 212.630316 
L 462.224072 209.628916 
L 462.506033 209.140747 
L 463.069954 213.648336 
L 463.351915 213.677679 
L 463.633875 215.108881 
L 464.761718 231.542508 
L 465.325639 240.000981 
L 465.88956 243.92704 
L 466.17152 241.454791 
L 466.453481 229.423114 
L 466.735442 204.577514 
L 467.863284 69.99825 
L 468.145245 60.346627 
L 468.427205 57.095131 
L 468.709166 55.528498 
L 468.991126 54.764651 
L 469.273087 56.076128 
L 470.118969 66.384194 
L 470.400929 68.859673 
L 470.68289 75.051469 
L 471.528772 105.57881 
L 472.656614 149.522942 
L 473.220535 163.863851 
L 473.502496 166.570225 
L 473.784456 167.620347 
L 474.066417 166.29284 
L 474.912299 150.804039 
L 475.194259 148.10485 
L 475.75818 140.74179 
L 476.040141 141.756782 
L 476.604062 149.498516 
L 477.167983 151.105019 
L 478.013865 160.459512 
L 478.295826 160.235588 
L 478.577786 160.438715 
L 478.859747 163.04782 
L 479.423668 169.414613 
L 479.705629 171.445841 
L 480.26955 178.69592 
L 481.397392 195.6376 
L 481.961313 202.627527 
L 482.807195 212.725816 
L 484.216998 231.438463 
L 485.06288 244.374513 
L 485.626801 249.107335 
L 485.908762 250.182766 
L 486.190722 247.863626 
L 486.472683 239.971023 
L 486.754643 221.403782 
L 487.882486 86.506409 
L 488.446407 67.657157 
L 488.728367 64.291372 
L 489.010328 64.364384 
L 489.292289 64.990033 
L 489.574249 66.221918 
L 490.420131 76.645121 
L 490.702091 78.838905 
L 490.984052 84.436279 
L 491.547973 102.796011 
L 492.675816 144.290492 
L 493.239737 158.015659 
L 493.521697 161.554443 
L 493.803658 162.136091 
L 494.367579 161.590567 
L 494.64954 159.349582 
L 495.213461 152.300551 
L 495.777382 149.845312 
L 496.059343 147.677301 
L 496.341303 146.924204 
L 497.187185 150.010754 
L 498.033067 156.66879 
L 498.315027 157.644701 
L 498.878948 161.106255 
L 499.160909 161.659714 
L 499.44287 162.788461 
L 500.288751 170.642724 
L 500.570712 171.742475 
L 500.852673 173.918407 
L 502.826397 197.001832 
L 503.390318 207.294102 
L 503.954239 216.639176 
L 504.800121 224.609948 
L 506.209924 249.417214 
L 506.491884 252.818819 
L 506.773845 251.0378 
L 507.055805 241.200673 
L 507.337766 222.869761 
L 507.901687 156.697769 
L 508.465608 97.635244 
L 508.747569 85.873171 
L 509.31149 74.086885 
L 509.593451 71.73045 
L 509.875411 71.160113 
L 510.157372 71.579425 
L 510.439333 73.389096 
L 511.003254 80.672881 
L 511.567175 93.111815 
L 512.413057 116.093106 
L 513.540899 154.047095 
L 513.82286 156.588394 
L 514.10482 157.206595 
L 514.386781 159.002079 
L 514.950702 164.934472 
L 515.232662 164.997983 
L 515.796584 160.668428 
L 516.078544 159.683692 
L 516.360505 159.185837 
L 516.642465 156.720527 
L 516.924426 152.809443 
L 517.206387 151.190495 
L 517.770308 154.193242 
L 518.052268 153.097179 
L 518.334229 153.030334 
L 518.89815 159.824213 
L 519.180111 161.070705 
L 519.462071 161.708266 
L 520.307953 168.590538 
L 520.589914 168.552141 
L 521.153835 165.626051 
L 521.435795 166.285255 
L 522.281677 173.704234 
L 522.845598 179.216454 
L 523.409519 182.116557 
L 524.537362 193.144192 
L 525.383244 205.264966 
L 527.075007 239.140189 
L 527.356968 241.340828 
L 527.638928 240.567144 
L 527.920889 232.120307 
L 528.202849 210.670904 
L 529.048731 128.908027 
L 529.612652 101.761093 
L 529.894613 93.760745 
L 530.176574 89.341629 
L 530.458534 86.784796 
L 530.740495 85.73576 
L 531.022455 86.72947 
L 531.868337 92.126427 
L 532.150298 96.159638 
L 532.714219 109.595243 
L 534.405982 156.621314 
L 534.969904 167.708462 
L 535.251864 173.708344 
L 535.533825 174.851283 
L 535.815785 172.441841 
L 536.097746 171.748445 
L 536.379706 172.598401 
L 536.661667 169.964482 
L 537.225588 156.733486 
L 537.507549 154.714332 
L 537.789509 154.966003 
L 538.353431 154.521071 
L 538.635391 155.217553 
L 538.917352 156.458911 
L 539.199312 156.982917 
L 539.481273 156.714519 
L 539.763233 156.755123 
L 540.609115 160.39725 
L 541.173036 157.677511 
L 541.454997 157.847743 
L 542.582839 164.311501 
L 543.146761 170.173546 
L 543.428721 171.715889 
L 543.992642 173.613486 
L 544.556563 176.028775 
L 544.838524 179.302035 
L 545.402445 188.315075 
L 546.248327 196.987838 
L 547.376169 212.888817 
L 548.222051 221.087208 
L 548.504012 217.727247 
L 548.785972 207.402641 
L 550.195775 121.657692 
L 550.759696 106.632747 
L 551.323618 97.94651 
L 551.605578 96.660822 
L 551.887539 98.158849 
L 552.73342 105.45512 
L 553.297342 117.576627 
L 554.143223 137.407254 
L 554.989105 154.252953 
L 555.271066 155.397457 
L 555.553026 155.24717 
L 556.116947 156.430812 
L 556.398908 155.856919 
L 556.680869 154.329884 
L 556.962829 153.944698 
L 557.52675 156.595686 
L 557.808711 156.558099 
L 558.090672 156.85479 
L 558.654593 160.760101 
L 558.936553 160.828033 
L 559.218514 160.464373 
L 559.500475 161.465759 
L 559.782435 162.908969 
L 560.346356 163.309884 
L 560.910277 165.584389 
L 561.192238 163.812933 
L 561.474199 161.128542 
L 561.756159 160.982324 
L 562.03812 163.098516 
L 562.32008 163.993337 
L 562.602041 163.539237 
L 562.884002 164.976326 
L 563.447923 172.58842 
L 564.575765 179.762831 
L 565.139686 180.43543 
L 565.421647 181.038288 
L 565.703607 182.573246 
L 566.267529 189.843174 
L 566.83145 193.185492 
L 567.677332 206.197703 
L 567.959292 207.549242 
L 568.241253 209.636817 
L 568.523213 210.841036 
L 568.805174 208.345774 
L 569.087134 202.15676 
L 569.369095 193.096309 
L 571.060859 118.94363 
L 571.62478 106.804562 
L 571.90674 104.633602 
L 572.188701 104.711559 
L 572.752622 109.475139 
L 573.316543 113.881819 
L 573.880464 121.723986 
L 574.444386 133.267451 
L 575.290267 153.007742 
L 575.854189 160.038758 
L 576.136149 161.784791 
L 576.41811 162.52466 
L 576.70007 162.345564 
L 577.545952 159.334869 
L 578.391834 155.135635 
L 578.673794 155.255607 
L 579.237716 155.973769 
L 579.519676 156.87149 
L 580.647518 162.203575 
L 580.929479 162.595308 
L 581.21144 162.479014 
L 581.4934 162.859893 
L 582.057321 164.889682 
L 582.621243 166.327263 
L 583.749085 170.944728 
L 584.031046 172.566017 
L 585.158888 176.538328 
L 585.722809 178.998136 
L 586.568691 183.905803 
L 587.132612 189.340951 
L 587.414573 189.546488 
L 587.696533 190.139882 
L 587.978494 194.370992 
L 588.542415 204.398122 
L 589.106336 207.514026 
L 589.388297 208.597308 
L 589.670257 207.424203 
L 589.952218 202.163338 
L 590.234178 191.930739 
L 591.362021 134.92971 
L 591.925942 119.202322 
L 592.489863 111.174587 
L 592.771824 109.264056 
L 593.053784 108.828132 
L 593.335745 108.813055 
L 593.617705 108.639339 
L 593.899666 109.200609 
L 594.181627 111.932184 
L 595.027508 124.591856 
L 596.155351 155.282546 
L 596.437311 156.988344 
L 597.001232 162.484116 
L 597.283193 163.490694 
L 597.565154 162.258788 
L 598.129075 158.572355 
L 598.692996 157.790644 
L 598.974957 156.168576 
L 599.256917 155.268109 
L 599.820838 158.970527 
L 600.102799 158.669968 
L 600.38476 157.242012 
L 600.66672 157.375694 
L 600.948681 158.435067 
L 601.230641 158.109734 
L 601.512602 157.580642 
L 602.076523 159.755729 
L 602.640444 159.276344 
L 602.922405 160.39169 
L 603.768287 165.965975 
L 604.050247 168.619718 
L 604.332208 170.078183 
L 604.614168 170.470586 
L 604.896129 171.82594 
L 605.178089 173.78568 
L 605.46005 174.665279 
L 605.742011 174.511134 
L 606.023971 175.143735 
L 606.587892 177.055398 
L 606.869853 177.605018 
L 607.715735 182.775908 
L 607.997695 184.556987 
L 610.25338 204.400396 
L 610.535341 202.343408 
L 610.817301 195.796747 
L 611.381222 171.374387 
L 611.945144 144.419349 
L 612.509065 125.613586 
L 613.072986 114.834006 
L 614.200828 106.013968 
L 614.482789 107.645765 
L 615.328671 116.149039 
L 615.610631 123.718125 
L 616.174552 147.063987 
L 616.456513 153.264874 
L 617.020434 160.665514 
L 617.302395 164.953873 
L 617.584355 165.673608 
L 618.148276 160.092155 
L 618.430237 160.088971 
L 618.712198 161.182164 
L 618.994158 161.785345 
L 619.276119 161.754744 
L 619.558079 160.804598 
L 620.403961 151.976984 
L 620.685922 153.311226 
L 620.967882 153.874507 
L 621.249843 153.615894 
L 621.531803 155.370274 
L 622.095725 161.752232 
L 622.377685 162.231612 
L 622.659646 163.208514 
L 622.941606 165.483479 
L 623.223567 166.758358 
L 623.505528 166.972086 
L 623.787488 167.500627 
L 624.069449 168.38987 
L 624.351409 168.072481 
L 624.63337 167.453714 
L 624.915331 167.774081 
L 625.197291 168.664395 
L 625.479252 168.814548 
L 625.761212 169.337184 
L 626.325133 172.457513 
L 626.607094 173.018225 
L 626.889055 173.974742 
L 629.4267 192.390905 
L 629.990621 199.216668 
L 630.272582 202.780533 
L 630.554542 203.225618 
L 630.836503 199.780756 
L 631.118463 192.633767 
L 631.682385 169.810258 
L 632.528266 132.25558 
L 632.810227 124.050741 
L 633.092188 121.437406 
L 633.092188 121.437406 
" clip-path="url(#pcc69ff8a07)" style="fill: none; stroke: #1f77b4; stroke-width: 1.5; stroke-linecap: square"/>
   </g>
   <g id="patch_3">
    <path d="M 47.192188 266.112 
L 47.192188 0 
" style="fill: none; stroke: #808080; stroke-width: 0.8; stroke-linejoin: miter; stroke-linecap: square"/>
   </g>
   <g id="patch_4">
    <path d="M 660.992188 266.112 
L 660.992188 0 
" style="fill: none; stroke: #000000; stroke-width: 0.8; stroke-linejoin: miter; stroke-linecap: square"/>
   </g>
   <g id="patch_5">
    <path d="M 47.192188 266.112 
L 660.992188 266.112 
" style="fill: none; stroke: #808080; stroke-width: 0.8; stroke-linejoin: miter; stroke-linecap: square"/>
   </g>
   <g id="patch_6">
    <path d="M 47.192188 0 
L 660.992188 0 
" style="fill: none; stroke: #000000; stroke-width: 0.8; stroke-linejoin: miter; stroke-linecap: square"/>
   </g>
  </g>
 </g>
 <defs>
  <clipPath id="pcc69ff8a07">
   <rect x="47.192188" y="0" width="613.8" height="266.112"/>
  </clipPath>
 </defs>
</svg>
