<svg xmlns="http://www.w3.org/2000/svg" xmlns:xlink="http://www.w3.org/1999/xlink" width="913.477" height="377.053" viewBox="0 0 685.107 282.79"><defs><style>*{stroke-linejoin:round;stroke-linecap:butt}</style></defs><g id="figure_1"><path id="patch_1" d="M0 282.79h685.107V0H0v282.79z" style="fill:none"/><g id="axes_1"><path id="patch_2" d="M71.308 266.112h613.8V0h-613.8v266.112z" style="fill:none"/><g id="matplotlib.axis_1"><g id="xtick_1"><g id="line2d_1"><defs><path id="m7453cee428" d="M0 0v3.5" style="stroke:gray;stroke-width:.8"/></defs><use xlink:href="#m7453cee428" x="99.207" y="266.112" style="fill:gray;stroke:gray;stroke-width:.8"/></g><g id="text_1" style="fill:gray" transform="matrix(.1 0 0 -.1 96.026 280.71)"><defs><path id="DejaVuSans-30" d="M2034 4250q-487 0-733-480-245-479-245-1442 0-959 245-1439 246-480 733-480 491 0 736 480 246 480 246 1439 0 963-246 1442-245 480-736 480zm0 500q785 0 1199-621 414-620 414-1801 0-1178-414-1799Q2819-91 2034-91q-784 0-1198 620-414 621-414 1799 0 1181 414 1801 414 621 1198 621z" transform="scale(.01563)"/></defs><use xlink:href="#DejaVuSans-30"/></g></g><g id="xtick_2"><use xlink:href="#m7453cee428" id="line2d_2" x="168.958" y="266.112" style="fill:gray;stroke:gray;stroke-width:.8"/><g id="text_2" style="fill:gray" transform="matrix(.1 0 0 -.1 159.414 280.71)"><defs><path id="DejaVuSans-35" d="M691 4666h2478v-532H1269V2991q137 47 274 70 138 23 276 23 781 0 1237-428 457-428 457-1159 0-753-469-1171Q2575-91 1722-91q-294 0-599 50Q819 9 494 109v635q281-153 581-228t634-75q541 0 856 284 316 284 316 772 0 487-316 771-315 285-856 285-253 0-505-56-251-56-513-175v2344z" transform="scale(.01563)"/></defs><use xlink:href="#DejaVuSans-35"/><use xlink:href="#DejaVuSans-30" x="63.623"/><use xlink:href="#DejaVuSans-30" x="127.246"/></g></g><g id="xtick_3"><use xlink:href="#m7453cee428" id="line2d_3" x="238.708" y="266.112" style="fill:gray;stroke:gray;stroke-width:.8"/><g id="text_3" style="fill:gray" transform="matrix(.1 0 0 -.1 225.982 280.71)"><defs><path id="DejaVuSans-31" d="M794 531h1031v3560L703 3866v575l1116 225h631V531h1031V0H794v531z" transform="scale(.01563)"/></defs><use xlink:href="#DejaVuSans-31"/><use xlink:href="#DejaVuSans-30" x="63.623"/><use xlink:href="#DejaVuSans-30" x="127.246"/><use xlink:href="#DejaVuSans-30" x="190.869"/></g></g><g id="xtick_4"><use xlink:href="#m7453cee428" id="line2d_4" x="308.457" y="266.112" style="fill:gray;stroke:gray;stroke-width:.8"/><g id="text_4" style="fill:gray" transform="matrix(.1 0 0 -.1 295.733 280.71)"><use xlink:href="#DejaVuSans-31"/><use xlink:href="#DejaVuSans-35" x="63.623"/><use xlink:href="#DejaVuSans-30" x="127.246"/><use xlink:href="#DejaVuSans-30" x="190.869"/></g></g><g id="xtick_5"><use xlink:href="#m7453cee428" id="line2d_5" x="378.207" y="266.112" style="fill:gray;stroke:gray;stroke-width:.8"/><g id="text_5" style="fill:gray" transform="matrix(.1 0 0 -.1 365.483 280.71)"><defs><path id="DejaVuSans-32" d="M1228 531h2203V0H469v531q359 372 979 998 621 627 780 809 303 340 423 576 121 236 121 464 0 372-261 606-261 235-680 235-297 0-627-103-329-103-704-313v638q381 153 712 231 332 78 607 78 725 0 1156-363 431-362 431-968 0-288-108-546-107-257-392-607-78-91-497-524-418-433-1181-1211z" transform="scale(.01563)"/></defs><use xlink:href="#DejaVuSans-32"/><use xlink:href="#DejaVuSans-30" x="63.623"/><use xlink:href="#DejaVuSans-30" x="127.246"/><use xlink:href="#DejaVuSans-30" x="190.869"/></g></g><g id="xtick_6"><use xlink:href="#m7453cee428" id="line2d_6" x="447.957" y="266.112" style="fill:gray;stroke:gray;stroke-width:.8"/><g id="text_6" style="fill:gray" transform="matrix(.1 0 0 -.1 435.233 280.71)"><use xlink:href="#DejaVuSans-32"/><use xlink:href="#DejaVuSans-35" x="63.623"/><use xlink:href="#DejaVuSans-30" x="127.246"/><use xlink:href="#DejaVuSans-30" x="190.869"/></g></g><g id="xtick_7"><use xlink:href="#m7453cee428" id="line2d_7" x="517.707" y="266.112" style="fill:gray;stroke:gray;stroke-width:.8"/><g id="text_7" style="fill:gray" transform="matrix(.1 0 0 -.1 504.983 280.71)"><defs><path id="DejaVuSans-33" d="M2597 2516q453-97 707-404 255-306 255-756 0-690-475-1069Q2609-91 1734-91q-293 0-604 58T488 141v609q262-153 574-231 313-78 654-78 593 0 904 234t311 681q0 413-289 645-289 233-804 233h-544v519h569q465 0 712 186t247 536q0 359-255 551-254 193-729 193-260 0-557-57-297-56-653-174v562q360 100 674 150t592 50q719 0 1137-327 419-326 419-882 0-388-222-655t-631-370z" transform="scale(.01563)"/></defs><use xlink:href="#DejaVuSans-33"/><use xlink:href="#DejaVuSans-30" x="63.623"/><use xlink:href="#DejaVuSans-30" x="127.246"/><use xlink:href="#DejaVuSans-30" x="190.869"/></g></g><g id="xtick_8"><use xlink:href="#m7453cee428" id="line2d_8" x="587.457" y="266.112" style="fill:gray;stroke:gray;stroke-width:.8"/><g id="text_8" style="fill:gray" transform="matrix(.1 0 0 -.1 574.732 280.71)"><use xlink:href="#DejaVuSans-33"/><use xlink:href="#DejaVuSans-35" x="63.623"/><use xlink:href="#DejaVuSans-30" x="127.246"/><use xlink:href="#DejaVuSans-30" x="190.869"/></g></g><g id="xtick_9"><use xlink:href="#m7453cee428" id="line2d_9" x="657.207" y="266.112" style="fill:gray;stroke:gray;stroke-width:.8"/><g id="text_9" style="fill:gray" transform="matrix(.1 0 0 -.1 644.482 280.71)"><defs><path id="DejaVuSans-34" d="M2419 4116 825 1625h1594v2491zm-166 550h794V1625h666v-525h-666V0h-628v1100H313v609l1940 2957z" transform="scale(.01563)"/></defs><use xlink:href="#DejaVuSans-34"/><use xlink:href="#DejaVuSans-30" x="63.623"/><use xlink:href="#DejaVuSans-30" x="127.246"/><use xlink:href="#DejaVuSans-30" x="190.869"/></g></g></g><g id="matplotlib.axis_2"><g id="ytick_1"><g id="line2d_10"><defs><path id="mfae70c778d" d="M0 0h-3.5" style="stroke:gray;stroke-width:.8"/></defs><use xlink:href="#mfae70c778d" x="71.308" y="251.756" style="fill:gray;stroke:gray;stroke-width:.8"/></g><g id="text_10" style="fill:gray" transform="matrix(.16 0 0 -.16 0 257.834)"><defs><path id="DejaVuSans-2212" d="M678 2272h4006v-531H678v531z" transform="scale(.01563)"/></defs><use xlink:href="#DejaVuSans-2212"/><use xlink:href="#DejaVuSans-32" x="83.789"/><use xlink:href="#DejaVuSans-30" x="147.412"/><use xlink:href="#DejaVuSans-30" x="211.035"/><use xlink:href="#DejaVuSans-30" x="274.658"/><use xlink:href="#DejaVuSans-30" x="338.281"/></g></g><g id="ytick_2"><use xlink:href="#mfae70c778d" id="line2d_11" x="71.308" y="205.832" style="fill:gray;stroke:gray;stroke-width:.8"/><g id="text_11" style="fill:gray" transform="matrix(.16 0 0 -.16 0 211.91)"><use xlink:href="#DejaVuSans-2212"/><use xlink:href="#DejaVuSans-31" x="83.789"/><use xlink:href="#DejaVuSans-30" x="147.412"/><use xlink:href="#DejaVuSans-30" x="211.035"/><use xlink:href="#DejaVuSans-30" x="274.658"/><use xlink:href="#DejaVuSans-30" x="338.281"/></g></g><g id="ytick_3"><use xlink:href="#mfae70c778d" id="line2d_12" x="71.308" y="159.908" style="fill:gray;stroke:gray;stroke-width:.8"/><use xlink:href="#DejaVuSans-30" id="text_12" style="fill:gray" transform="matrix(.16 0 0 -.16 54.127 165.987)"/></g><g id="ytick_4"><use xlink:href="#mfae70c778d" id="line2d_13" x="71.308" y="113.984" style="fill:gray;stroke:gray;stroke-width:.8"/><g id="text_13" style="fill:gray" transform="matrix(.16 0 0 -.16 13.408 120.063)"><use xlink:href="#DejaVuSans-31"/><use xlink:href="#DejaVuSans-30" x="63.623"/><use xlink:href="#DejaVuSans-30" x="127.246"/><use xlink:href="#DejaVuSans-30" x="190.869"/><use xlink:href="#DejaVuSans-30" x="254.492"/></g></g><g id="ytick_5"><use xlink:href="#mfae70c778d" id="line2d_14" x="71.308" y="68.06" style="fill:gray;stroke:gray;stroke-width:.8"/><g id="text_14" style="fill:gray" transform="matrix(.16 0 0 -.16 13.408 74.14)"><use xlink:href="#DejaVuSans-32"/><use xlink:href="#DejaVuSans-30" x="63.623"/><use xlink:href="#DejaVuSans-30" x="127.246"/><use xlink:href="#DejaVuSans-30" x="190.869"/><use xlink:href="#DejaVuSans-30" x="254.492"/></g></g><g id="ytick_6"><use xlink:href="#mfae70c778d" id="line2d_15" x="71.308" y="22.137" style="fill:gray;stroke:gray;stroke-width:.8"/><g id="text_15" style="fill:gray" transform="matrix(.16 0 0 -.16 13.408 28.215)"><use xlink:href="#DejaVuSans-33"/><use xlink:href="#DejaVuSans-30" x="63.623"/><use xlink:href="#DejaVuSans-30" x="127.246"/><use xlink:href="#DejaVuSans-30" x="190.869"/><use xlink:href="#DejaVuSans-30" x="254.492"/></g></g></g><path id="line2d_16" d="m99.207 159.82.282.176.282-.177.282.179.282-.18.282.182.282-.185.282.187.282-.19.282.194.282-.197.282.2.282-.204.282.208.282-.213.282.218.282-.223.282.229.282-.235.282.241.282-.248.282.256.282-.264.282.272.282-.281.282.292.281-.303.282.314.282-.327.282.342.282-.358.282.375.282-.394.282.415.282-.44.282.467.282-.497.282.533.282-.574.282.622.282-.68.282.749.282-.833.282.94.282-1.08.282 1.268.282-1.536.282 1.949.282-2.657.282 4.053.282-43.8.281-4.587.564 30.808.282 14.827.846 19.695.282 4.56.282.579.282.97.564-2.698.564-5.482.846-8.728.564-2.886.282-.75.282-1.43.282.133.282.557.282 1.581.845 2.218.282.16.564-2.272.282-.354.282 1.093.282.037.564-1.056.282.947.564.984.282.985.282 2.078.282.768.282-.143.282.122.564 3.347.282.148.282-.864.282.52.282 1.63.845 7.412.282.426.564-3.886.564.526.282-3.847 1.128-37.566.846-41.222.564-10.3.282-.868.282 3.418.282 7.67.564 25.032.564 25.98.564 15.468.563 9.086.282 2.487.282 1.087.282.171.564 2.06.282-.39.564-4.63 1.692-8.193.282-.414.282.181.282-.09.564-.657.282-.035.564-.524.282.244.282.84.281.173.282-.246.282.264.282 1.126.282.347.282-.524.282-.115.564 2.836.282.174.282-.694.282.459.564 3.4.564 1.973.564 2.868.282.676.282 1.822.564 4.813.282-1.154.282-2.469.282-1.462.281-.475.282-2.932.282-8.089 1.692-72.914.282-3.49.282 1.912.564 7.317.282 7.206 1.128 45.065.564 12.844.564 8.82.282 1.708.282-.447.563-4.238.846-6.143.564-1.94.564-3.905.282 1.003.282 2.434.282.757.282-.392.282.262.282.709.282-.2.282-.795.564-2.684.282-.185.282 1.127.282-.182.282-1.538.282.573.564 8.15.282 1.042.281-.692.282.091.564 1.798.282-.49.282-.86.282.405.564 3.113.282.603.282 1.287 1.41 11.11.282.765.282 1.162.282 1.687.282-.504.282-4.266.282-6.677.282-9.496.564-32.619.845-49.296.282-9.779.282-5.29.282-1.058.282 3.52.282 8.752 1.692 79.432.282 5.974.282 2.226.564 2.68.282.307.564-1.688.282-1.007.846-10.484.282.01.281-.262.282-1.216.282.251.564 5.293.282.347.282-1.25.282-.527.282.446.282-.998.282-2.7.282-1.55.282 1.313.282 1.844.282.345.282-.246.564 1.452.564.393.564 1.497.282-.17.282.32 1.127 8.285.282 1.555.564 5.31.282.339.282-.832.282.089.846 5.917.282-.307.282 1.401.282 3.163.282.82.282-4.334.564-19.172.846-49.504.564-30.005.282-9.586.281-3.908.282-.113.282 3.695.282 9.18 1.692 77.89.564 6.207.564 8.414.282 1.07.282-.497.282-1.115.282-2.584.564-7.774.282-1.6.282-.856.846-4.6.282-.252.563-1.572.282-.015.282.34 1.128.55.564-.202.564.46.282.505.846 2.366.282 1.751.564 5.702.282.53.282-.352.282.487.564 3.605.563 3.317.282 1.56.282 3.164.564 9.458.282 2.66.282 1.163.564 1.065.282.539.282-.28.282-3.661.282-9.182.564-30.325 1.128-70.816.282-10.5.282-5.793.282-.068.564 11.51.563 16.656.564 32.551.564 31.022.282 8.5.564 8.427.282 1.545.282-.71.846-5.38.282-1.024.564-.006.282-1.273.564-4.187.282-1.415.282-.397.282.5.282.106.282-.963.282-.406.563 1.737.564-1.715.282.134 1.128 3.993.282 1.874.846 13.978.564 2.36.282 2.168.282.995.282-.458.282.186.564 4.744.564 5.085.564 7.93.563 7.44.282 1.379.282-1.592.282-5.803.282-10.749.564-35.105 1.128-83.594.564-24.231.282-5.442.282-2.59.282-.493.282 3.488.282 9.67.564 31.161 1.128 79.97.564 14.566.281 2.188.282-2.429.282-3.712.282-1.339.282-.453.564-4.035.282-.048.282.698.282-.175.564-1.08.564-3.308.282.198.282 1.873.282.557.564-3.076.282.868.282 2.076.282.831.564-2.703.282.712.563 5.13.564 2.051.564 4.612.846 7.962 1.128 16.602 1.41 19.72.282 1.465.282.572.282-1.48.282-7.053.564-31.744.563-46.05.846-75.553.564-24.996.282-5.093.282-2.042.282 1.1.564 9.31.282 5.843.282 9.406.564 34.177.846 63.83.282 10.37.282 3.79.564 4.472.282.185.564-3.676.282-.228.281-.441.564-4.918.282-.388.282 1.632.282.95.846-1.987.282-.56.282-.275.564 2.529.282.223.282.03.564 4.518.282.357.282-1.668.282-.173.846 8.22.282 1.471.282 2.433.563 9.97.564 10.53 1.41 15.857.564 7.46.282 3.34.282 1.784.282.908.282-1.034.282-5.551.282-11.14.564-39.602.846-81.64.564-33.803.563-20.294.846-15.587.282-3.941.282.481.282 8.342.564 36.756 1.128 100.817.282 6.046.282 1.251.282.733.282-.719.282-1.711.282-.347.282.578.282-.865.564-3.974.564-2.24.282-.368.563.64.282-.138.282.76.564 3.696.282.241.282-.773.564-2.348.282.282.564 5.105.282.776.282.419.282 2.714.564 7.156.282 1.474.282 2.187.564 10.204.564 8.857.563 6.51.564 7.188.282 1.78.282 2.815.564 8.211.282 1.136.282-2.307.282-6.707.282-12.954.564-44.26 1.128-104.541.564-22.194.564-18.05.282-4.382.282 1.197.282 3.6.282 5.45.282 9.88.563 36.31.846 75.907.282 12.899.564 10.738.282 2.933.846 4.29.282-1.702.564-8.027.282-1.787.282-.177.282.118.564-1.156.282.955.282 1.937.282.04.282-2.054.282-.746.281 1.454.282.397.282-1.958.282-1.176.282 1.829.564 5.571.846 4.074.564 4.827 1.41 14.821 2.256 38.583.281 6.524.282 2.89.282-1.266.282-4.385.282-9.871.282-19.304 1.692-169.128.564-28.825.282-5.497.282-.288.564 4.36.282 5.349.564 23.165.564 33.68.846 72.864.281 22.75.282 13.387.282 3.884.282.32.282.891.282.057 1.128-9.423.564-5.65.282-.582.282-.923.282-1.829.282-.549.564 2.763.564-2.874.282.33.282 1.593.282.85.282.101.282.534.563 2.31.564 3.088.282.39.282-.478.282.57.846 7.006.282 1.168.282 2.569 1.974 26.135.564 17.654.846 14.367.282 2.093.281-5.8.282-13.077.564-45.002 1.128-125.918.564-36.656.282-8.726.282-4.517.282-.52.282 2.5.282 3.832.282 5.447.564 19.698.564 31.86.846 70.402.564 44.202.282 8.39.281-.205.564-4.693.282-1.558 1.128-9.497.564-3.023.282-.693.282-.16.282-1.661.564-7.587.282-1.537.282.06.282-.06.282-.523.282.03.282 1.609.282 2.665.282 1.546.282-.48.282.06.281 3.083.282 4.371.282 2.541.282 1.09.564 3.438.564 1.743.282 2.564.846 11.551 2.256 33.443.282 3.192.282 1.212.282-2.505.282-8.296.282-15.62.563-52.465.846-96.076.564-35.551.282-8.402.282-3.156.282-.299.282 1.484.282 4.229.846 19.304.564 33.658.846 70.828.282 23.231.282 13.84.282 5.768.282 1.749.282-1.445.845-11.624.564-3.856.846-3.578.564.432.282-.708.282-.278.282.544.282-.302.282-.854.282.725.282 1.738.282.49.282-.219.846 2.576.282 1.964.564 7.228.282.97.281.5 1.128 7.114.564 7.21 1.128 19.105.846 18.847.282 2.981.282.663.282-1.342.282-5.048.282-13.127.564-55.42.846-99.34.564-36.412.281-6.963.282-2.614.282-.062.282 1.649.564 8.074.564 10.422.282 10.634.846 50.826 1.128 82.638.282 6.696.282 1.317.282-1.752.564-6.836.564-8.704.282-1.9.282-.605.281-1.308.282-2.006.282-.572.282 2.125.564 6.119.282 1.293.282.586.282.09.564-.67.282.515 1.974 6.316.846 4.94.846 7.29.281 1.05.282 2.558 1.128 20.935.846 19.192.282 3.273.282 1.416.282-1.896.282-10.008.282-21.09.564-65.185.846-102.822.282-14.871.282-7.452.282-4.32.282-1.209.282 1.688.564 6.183.281 4.405.282 6.463.282 10.47 2.538 129.285.282 9.088.282 3.777.282-1.068.282-1.867.282-.023.282 1.1.282.063.564-3.903.282-.247.282.4.282-1.918.282-3.507.281-1.145.282 1.278.282-.95.282-4.176.282-2.207.846 7.206.282-.878.282.417.282 1.284.564 1.724.846 8.821.282 1.143.282 2.094.564 7.57.846 6.844 1.127 19.87.846 16.477.282.304.282-3.27.282-8.018.282-17.9.564-70.06.564-71.447.564-38.449.282-6.886.282-1.626.282 1.436.564 5.24.282 3.68.564 11.474.564 17.024.845 33.646 1.128 64.978.564 19.094.282 3.11.564 2.083.282-1.162.564-6.688.564-3.093.282-.897.282-.239.282-.77.564-3.99.282.36.282 1.956.282 1.103.282-.605.281-.225.282 2.164.282 3.052.282 1.104.282-.623.282.104 1.692 8.317.846 8.51.846 11.37.564 9.067.564 10.496 1.128 15.918.281-.918.282-7.887.282-16.197.564-59.857.564-79.571.282-26.42.282-13.404.564-10.925.282-3.513.282-1.056.282 2.02.564 8.847.282 6.5.564 22.862 1.692 82.088.563 18.121.564 12.233.282 3.796.282.574 1.128-6.488.564-.473.564-1.438.564 1.32.282-.002.282.537.564 3.112.282-.37.282.244.846 7.336.281.695.282 2.717.282 3.915.282 1.666.564-3.286.282.75.846 7.518.564 10.695.846 18.365.846 14.448.564 6.897.282 1.264.282-3.885.282-11.627.282-20.77.564-74.498.563-75.097.282-16 .564-12.037.282-2.574.282 1.676 1.41 26.074.564 19.077.564 13.87 1.41 56.93.282 3.906.564 3.51.282 2.307.281.378.564-3 .282.238.282 1.24.282.701.282-1.589.282-3.79.282-2.208.282 2.646.282 4.785.282 1.962.282.239.282 3.459.564 11.381.564 5.832.282 3.308.282 1.257.282.137.282.545.564.517.845 5.23.282.548.564 3.95.282 1.134.282 2.053 1.41 17.006.282 2.62.564 7.35.282 1.579.282 2.6.564 11.616.282-.353.282-8.53.282-17.794.564-65.477.564-69.476.281-20.403.282-10.476.282-4.792.282-2.174.282.18.282 2.67.564 10.048.564 10.503.282 1.995.282 3.815.564 20.418 1.692 65.388.282 4.625.282-.675.564-6.418.282-.103.281-.284 1.41-11.944.282-.465.846 5.385.282 2.398.564 7.745.282 1.121.282.23.282 2.889.846 18.646.564 8.03.564 10.248.282 2.536.282 1.242.563 4.937.282-.775.282-3.001.282-.488.564 4.507.282.03.282 1.43 1.128 16.435.564 8.458.564 3.926.282-2.472.282-12.032.282-24.845 1.128-134.58.282-9.651.282-3.252.281-1.567.282-.763.282 1.311.846 10.308.282 2.476.282 6.191.846 30.528 1.128 43.944.564 14.34.282 2.707.282 1.05.282-1.327.846-15.489.282-2.7.563-7.362.282 1.015.564 7.742.564 1.606.846 9.355.282-.224.282.203.282 2.609.564 6.367.282 2.03.564 7.25 1.128 16.943.564 6.99.846 10.098 1.41 18.712.845 12.937.564 4.732.282 1.076.282-2.32.282-7.892.282-18.567 1.128-134.898.564-18.849.282-3.366.282.073.282.626.282 1.232.845 10.423.282 2.194.282 5.597.564 18.36 1.128 41.494.564 13.726.282 3.538.282.582.564-.545.282-2.241.564-7.05.564-2.455.282-2.168.282-.753.845 3.087.846 6.658.282.976.564 3.461.282.554.282 1.128.846 7.855.282 1.1.282 2.175 1.974 23.084.564 10.292.564 9.345.845 7.97 1.41 24.808.282 3.402.282-1.781.282-9.837.282-18.331.564-66.172.564-59.063.282-11.762.564-11.786.282-2.357.282-.57.282.42.282 1.81.564 7.283.563 12.439.846 22.981 1.128 37.954.282 2.541.282.619.282 1.795.564 5.932.282.064.564-4.33.282-.984.282-.498.282-2.465.282-3.912.282-1.619.564 3.003.282-1.096.282-.067.563 6.794.282 1.247.282.637.846 6.883.282-.039.564-2.926.282.66.846 7.418.564 5.512.564 2.9 1.128 11.028.846 12.121 1.691 33.875.282 2.2.282-.773.282-8.447.282-21.45.846-81.762.564-27.147.282-8 .282-4.42.282-2.556.282-1.05.282.994.846 5.397.282 4.034.564 13.435 1.691 47.026.564 11.087.282 6 .282 1.143.282-2.41.282-.693.282.85.282-2.634.564-13.23.282-2.02.282.252.564-.445.282.697.282 1.24.282.525.282-.268.282.04.845 3.642.564-2.72.282.17 1.128 6.465.564 5.862.282 1.542.564 1.897.564 2.416.282 3.273.564 9.013.846 8.673 1.127 15.9.846 8.2.282-3.36.282-10.325 1.41-85.745.564-15.025.564-8.686.282-1.286.282 1.498.846 7.296.564 12.122.846 19.83.845 16.846.282 1.144.282-.15.564 1.184.282-.574.282-1.527.282-.385.564 2.65.282-.037.282.297.564 3.905.282.068.282-.364.282 1.002.282 1.443.564.4.564 2.275.282-1.771.282-2.684.281-.147.282 2.117.282.894.282-.454.282 1.437.564 7.612 1.128 7.175.564.672.282.603.282 1.535.564 7.27.564 3.342.846 13.013.282 1.351.282 2.088.282 1.204.281-2.495.282-6.19.282-9.06 1.692-74.152.564-12.14.282-2.17.282.078.564 4.763.564 4.407.564 7.842.564 11.543.846 19.74.564 7.032.281 1.746.282.74.282-.18.846-3.01.846-4.2.282.12.564.719.282.897 1.128 5.333.282.391.282-.116.282.38.564 2.03.564 1.438 1.127 4.618.282 1.621 1.128 3.972.564 2.46.846 4.908.564 5.435.282.205.282.594.282 4.231.564 10.027.564 3.116.282 1.083.282-1.173.282-5.26.281-10.233 1.128-57.001.564-15.728.564-8.027.282-1.91.282-.437.282-.015.282-.174.282.562.282 2.731.846 12.66 1.128 30.69.282 1.706.564 5.496.282 1.007.281-1.232.564-3.687.564-.781.282-1.622.282-.9.564 3.702.282-.301.282-1.428.282.134.282 1.06.282-.326.282-.53.564 2.176.564-.48.282 1.116.846 5.574.282 2.654.282 1.458.281.393.282 1.355.282 1.96.282.88.282-.155.282.633.564 1.911.282.55.846 5.17.282 1.782 2.256 19.843.282-2.057.282-6.546.564-24.423.563-26.955.564-18.805.564-10.78 1.128-8.82.282 1.632.846 8.503.282 7.57.564 23.345.282 6.2.564 7.402.282 4.288.282.72.564-5.582.282-.003.282 1.093.281.603.282-.03.282-.95.846-8.828.282 1.334.282.564.282-.26.282 1.755.564 6.382.282.48.282.977.282 2.274.282 1.275.282.214.282.529.282.889.282-.318.282-.618.282.32.282.89.282.15.282.523.563 3.12.282.561.282.957 2.538 18.416.564 6.826.282 3.564.282.445.282-3.445.282-7.147.564-22.824.846-37.554.282-8.205.281-2.614h0" clip-path="url(#p23f831d00a)" style="fill:none;stroke:#1f77b4;stroke-width:1.5;stroke-linecap:square"/><path id="patch_3" d="M71.308 266.112V0" style="fill:none;stroke:gray;stroke-width:.8;stroke-linejoin:miter;stroke-linecap:square"/><path id="patch_4" d="M685.107 266.112V0" style="fill:none;stroke:#000;stroke-width:.8;stroke-linejoin:miter;stroke-linecap:square"/><path id="patch_5" d="M71.308 266.112h613.8" style="fill:none;stroke:gray;stroke-width:.8;stroke-linejoin:miter;stroke-linecap:square"/><path id="patch_6" d="M71.308 0h613.8" style="fill:none;stroke:#000;stroke-width:.8;stroke-linejoin:miter;stroke-linecap:square"/></g></g><defs><clipPath id="p23f831d00a"><path d="M71.308 0h613.8v266.112h-613.8z"/></clipPath></defs></svg>