<?xml version="1.0" encoding="utf-8" standalone="no"?>
<!DOCTYPE svg PUBLIC "-//W3C//DTD SVG 1.1//EN"
  "http://www.w3.org/Graphics/SVG/1.1/DTD/svg11.dtd">
<svg xmlns:xlink="http://www.w3.org/1999/xlink" width="660.992188pt" height="282.790125pt" viewBox="0 0 660.992188 282.790125" xmlns="http://www.w3.org/2000/svg" version="1.1">
 <metadata>
  <rdf:RDF xmlns:dc="http://purl.org/dc/elements/1.1/" xmlns:cc="http://creativecommons.org/ns#" xmlns:rdf="http://www.w3.org/1999/02/22-rdf-syntax-ns#">
   <cc:Work>
    <dc:type rdf:resource="http://purl.org/dc/dcmitype/StillImage"/>
    <dc:date>2023-03-06T19:30:32.923283</dc:date>
    <dc:format>image/svg+xml</dc:format>
    <dc:creator>
     <cc:Agent>
      <dc:title>Matplotlib v3.6.3, https://matplotlib.org/</dc:title>
     </cc:Agent>
    </dc:creator>
   </cc:Work>
  </rdf:RDF>
 </metadata>
 <defs>
  <style type="text/css">*{stroke-linejoin: round; stroke-linecap: butt}</style>
 </defs>
 <g id="figure_1">
  <g id="patch_1">
   <path d="M -0 282.790125 
L 660.992188 282.790125 
L 660.992188 0 
L -0 0 
L -0 282.790125 
z
" style="fill: none"/>
  </g>
  <g id="axes_1">
   <g id="patch_2">
    <path d="M 47.192188 266.112 
L 660.992188 266.112 
L 660.992188 0 
L 47.192188 0 
L 47.192188 266.112 
z
" style="fill: none"/>
   </g>
   <g id="matplotlib.axis_1">
    <g id="xtick_1">
     <g id="line2d_1">
      <defs>
       <path id="m611e2469e7" d="M 0 0 
L 0 3.5 
" style="stroke: #000000; stroke-width: 0.8"/>
      </defs>
      <g>
       <use xlink:href="#m611e2469e7" x="75.092188" y="266.112" style="stroke: #000000; stroke-width: 0.8"/>
      </g>
     </g>
     <g id="text_1">
      <!-- 0 -->
      <g transform="translate(71.910938 280.710438) scale(0.1 -0.1)">
       <defs>
        <path id="DejaVuSans-30" d="M 2034 4250 
Q 1547 4250 1301 3770 
Q 1056 3291 1056 2328 
Q 1056 1369 1301 889 
Q 1547 409 2034 409 
Q 2525 409 2770 889 
Q 3016 1369 3016 2328 
Q 3016 3291 2770 3770 
Q 2525 4250 2034 4250 
z
M 2034 4750 
Q 2819 4750 3233 4129 
Q 3647 3509 3647 2328 
Q 3647 1150 3233 529 
Q 2819 -91 2034 -91 
Q 1250 -91 836 529 
Q 422 1150 422 2328 
Q 422 3509 836 4129 
Q 1250 4750 2034 4750 
z
" transform="scale(0.015625)"/>
       </defs>
       <use xlink:href="#DejaVuSans-30"/>
      </g>
     </g>
    </g>
    <g id="xtick_2">
     <g id="line2d_2">
      <g>
       <use xlink:href="#m611e2469e7" x="144.842188" y="266.112" style="stroke: #000000; stroke-width: 0.8"/>
      </g>
     </g>
     <g id="text_2">
      <!-- 500 -->
      <g transform="translate(135.298438 280.710438) scale(0.1 -0.1)">
       <defs>
        <path id="DejaVuSans-35" d="M 691 4666 
L 3169 4666 
L 3169 4134 
L 1269 4134 
L 1269 2991 
Q 1406 3038 1543 3061 
Q 1681 3084 1819 3084 
Q 2600 3084 3056 2656 
Q 3513 2228 3513 1497 
Q 3513 744 3044 326 
Q 2575 -91 1722 -91 
Q 1428 -91 1123 -41 
Q 819 9 494 109 
L 494 744 
Q 775 591 1075 516 
Q 1375 441 1709 441 
Q 2250 441 2565 725 
Q 2881 1009 2881 1497 
Q 2881 1984 2565 2268 
Q 2250 2553 1709 2553 
Q 1456 2553 1204 2497 
Q 953 2441 691 2322 
L 691 4666 
z
" transform="scale(0.015625)"/>
       </defs>
       <use xlink:href="#DejaVuSans-35"/>
       <use xlink:href="#DejaVuSans-30" x="63.623047"/>
       <use xlink:href="#DejaVuSans-30" x="127.246094"/>
      </g>
     </g>
    </g>
    <g id="xtick_3">
     <g id="line2d_3">
      <g>
       <use xlink:href="#m611e2469e7" x="214.592188" y="266.112" style="stroke: #000000; stroke-width: 0.8"/>
      </g>
     </g>
     <g id="text_3">
      <!-- 1000 -->
      <g transform="translate(201.867188 280.710438) scale(0.1 -0.1)">
       <defs>
        <path id="DejaVuSans-31" d="M 794 531 
L 1825 531 
L 1825 4091 
L 703 3866 
L 703 4441 
L 1819 4666 
L 2450 4666 
L 2450 531 
L 3481 531 
L 3481 0 
L 794 0 
L 794 531 
z
" transform="scale(0.015625)"/>
       </defs>
       <use xlink:href="#DejaVuSans-31"/>
       <use xlink:href="#DejaVuSans-30" x="63.623047"/>
       <use xlink:href="#DejaVuSans-30" x="127.246094"/>
       <use xlink:href="#DejaVuSans-30" x="190.869141"/>
      </g>
     </g>
    </g>
    <g id="xtick_4">
     <g id="line2d_4">
      <g>
       <use xlink:href="#m611e2469e7" x="284.342188" y="266.112" style="stroke: #000000; stroke-width: 0.8"/>
      </g>
     </g>
     <g id="text_4">
      <!-- 1500 -->
      <g transform="translate(271.617188 280.710438) scale(0.1 -0.1)">
       <use xlink:href="#DejaVuSans-31"/>
       <use xlink:href="#DejaVuSans-35" x="63.623047"/>
       <use xlink:href="#DejaVuSans-30" x="127.246094"/>
       <use xlink:href="#DejaVuSans-30" x="190.869141"/>
      </g>
     </g>
    </g>
    <g id="xtick_5">
     <g id="line2d_5">
      <g>
       <use xlink:href="#m611e2469e7" x="354.092188" y="266.112" style="stroke: #000000; stroke-width: 0.8"/>
      </g>
     </g>
     <g id="text_5">
      <!-- 2000 -->
      <g transform="translate(341.367188 280.710438) scale(0.1 -0.1)">
       <defs>
        <path id="DejaVuSans-32" d="M 1228 531 
L 3431 531 
L 3431 0 
L 469 0 
L 469 531 
Q 828 903 1448 1529 
Q 2069 2156 2228 2338 
Q 2531 2678 2651 2914 
Q 2772 3150 2772 3378 
Q 2772 3750 2511 3984 
Q 2250 4219 1831 4219 
Q 1534 4219 1204 4116 
Q 875 4013 500 3803 
L 500 4441 
Q 881 4594 1212 4672 
Q 1544 4750 1819 4750 
Q 2544 4750 2975 4387 
Q 3406 4025 3406 3419 
Q 3406 3131 3298 2873 
Q 3191 2616 2906 2266 
Q 2828 2175 2409 1742 
Q 1991 1309 1228 531 
z
" transform="scale(0.015625)"/>
       </defs>
       <use xlink:href="#DejaVuSans-32"/>
       <use xlink:href="#DejaVuSans-30" x="63.623047"/>
       <use xlink:href="#DejaVuSans-30" x="127.246094"/>
       <use xlink:href="#DejaVuSans-30" x="190.869141"/>
      </g>
     </g>
    </g>
    <g id="xtick_6">
     <g id="line2d_6">
      <g>
       <use xlink:href="#m611e2469e7" x="423.842188" y="266.112" style="stroke: #000000; stroke-width: 0.8"/>
      </g>
     </g>
     <g id="text_6">
      <!-- 2500 -->
      <g transform="translate(411.117188 280.710438) scale(0.1 -0.1)">
       <use xlink:href="#DejaVuSans-32"/>
       <use xlink:href="#DejaVuSans-35" x="63.623047"/>
       <use xlink:href="#DejaVuSans-30" x="127.246094"/>
       <use xlink:href="#DejaVuSans-30" x="190.869141"/>
      </g>
     </g>
    </g>
    <g id="xtick_7">
     <g id="line2d_7">
      <g>
       <use xlink:href="#m611e2469e7" x="493.592188" y="266.112" style="stroke: #000000; stroke-width: 0.8"/>
      </g>
     </g>
     <g id="text_7">
      <!-- 3000 -->
      <g transform="translate(480.867188 280.710438) scale(0.1 -0.1)">
       <defs>
        <path id="DejaVuSans-33" d="M 2597 2516 
Q 3050 2419 3304 2112 
Q 3559 1806 3559 1356 
Q 3559 666 3084 287 
Q 2609 -91 1734 -91 
Q 1441 -91 1130 -33 
Q 819 25 488 141 
L 488 750 
Q 750 597 1062 519 
Q 1375 441 1716 441 
Q 2309 441 2620 675 
Q 2931 909 2931 1356 
Q 2931 1769 2642 2001 
Q 2353 2234 1838 2234 
L 1294 2234 
L 1294 2753 
L 1863 2753 
Q 2328 2753 2575 2939 
Q 2822 3125 2822 3475 
Q 2822 3834 2567 4026 
Q 2313 4219 1838 4219 
Q 1578 4219 1281 4162 
Q 984 4106 628 3988 
L 628 4550 
Q 988 4650 1302 4700 
Q 1616 4750 1894 4750 
Q 2613 4750 3031 4423 
Q 3450 4097 3450 3541 
Q 3450 3153 3228 2886 
Q 3006 2619 2597 2516 
z
" transform="scale(0.015625)"/>
       </defs>
       <use xlink:href="#DejaVuSans-33"/>
       <use xlink:href="#DejaVuSans-30" x="63.623047"/>
       <use xlink:href="#DejaVuSans-30" x="127.246094"/>
       <use xlink:href="#DejaVuSans-30" x="190.869141"/>
      </g>
     </g>
    </g>
    <g id="xtick_8">
     <g id="line2d_8">
      <g>
       <use xlink:href="#m611e2469e7" x="563.342188" y="266.112" style="stroke: #000000; stroke-width: 0.8"/>
      </g>
     </g>
     <g id="text_8">
      <!-- 3500 -->
      <g transform="translate(550.617188 280.710438) scale(0.1 -0.1)">
       <use xlink:href="#DejaVuSans-33"/>
       <use xlink:href="#DejaVuSans-35" x="63.623047"/>
       <use xlink:href="#DejaVuSans-30" x="127.246094"/>
       <use xlink:href="#DejaVuSans-30" x="190.869141"/>
      </g>
     </g>
    </g>
    <g id="xtick_9">
     <g id="line2d_9">
      <g>
       <use xlink:href="#m611e2469e7" x="633.092188" y="266.112" style="stroke: #000000; stroke-width: 0.8"/>
      </g>
     </g>
     <g id="text_9">
      <!-- 4000 -->
      <g transform="translate(620.367188 280.710438) scale(0.1 -0.1)">
       <defs>
        <path id="DejaVuSans-34" d="M 2419 4116 
L 825 1625 
L 2419 1625 
L 2419 4116 
z
M 2253 4666 
L 3047 4666 
L 3047 1625 
L 3713 1625 
L 3713 1100 
L 3047 1100 
L 3047 0 
L 2419 0 
L 2419 1100 
L 313 1100 
L 313 1709 
L 2253 4666 
z
" transform="scale(0.015625)"/>
       </defs>
       <use xlink:href="#DejaVuSans-34"/>
       <use xlink:href="#DejaVuSans-30" x="63.623047"/>
       <use xlink:href="#DejaVuSans-30" x="127.246094"/>
       <use xlink:href="#DejaVuSans-30" x="190.869141"/>
      </g>
     </g>
    </g>
   </g>
   <g id="matplotlib.axis_2">
    <g id="ytick_1">
     <g id="line2d_10">
      <defs>
       <path id="m7eed035bc2" d="M 0 0 
L -3.5 0 
" style="stroke: #000000; stroke-width: 0.8"/>
      </defs>
      <g>
       <use xlink:href="#m7eed035bc2" x="47.192188" y="239.307" style="stroke: #000000; stroke-width: 0.8"/>
      </g>
     </g>
     <g id="text_10">
      <!-- −20000 -->
      <g transform="translate(0 243.106219) scale(0.1 -0.1)">
       <defs>
        <path id="DejaVuSans-2212" d="M 678 2272 
L 4684 2272 
L 4684 1741 
L 678 1741 
L 678 2272 
z
" transform="scale(0.015625)"/>
       </defs>
       <use xlink:href="#DejaVuSans-2212"/>
       <use xlink:href="#DejaVuSans-32" x="83.789062"/>
       <use xlink:href="#DejaVuSans-30" x="147.412109"/>
       <use xlink:href="#DejaVuSans-30" x="211.035156"/>
       <use xlink:href="#DejaVuSans-30" x="274.658203"/>
       <use xlink:href="#DejaVuSans-30" x="338.28125"/>
      </g>
     </g>
    </g>
    <g id="ytick_2">
     <g id="line2d_11">
      <g>
       <use xlink:href="#m7eed035bc2" x="47.192188" y="200.668575" style="stroke: #000000; stroke-width: 0.8"/>
      </g>
     </g>
     <g id="text_11">
      <!-- −10000 -->
      <g transform="translate(0 204.467794) scale(0.1 -0.1)">
       <use xlink:href="#DejaVuSans-2212"/>
       <use xlink:href="#DejaVuSans-31" x="83.789062"/>
       <use xlink:href="#DejaVuSans-30" x="147.412109"/>
       <use xlink:href="#DejaVuSans-30" x="211.035156"/>
       <use xlink:href="#DejaVuSans-30" x="274.658203"/>
       <use xlink:href="#DejaVuSans-30" x="338.28125"/>
      </g>
     </g>
    </g>
    <g id="ytick_3">
     <g id="line2d_12">
      <g>
       <use xlink:href="#m7eed035bc2" x="47.192188" y="162.03015" style="stroke: #000000; stroke-width: 0.8"/>
      </g>
     </g>
     <g id="text_12">
      <!-- 0 -->
      <g transform="translate(33.829688 165.829369) scale(0.1 -0.1)">
       <use xlink:href="#DejaVuSans-30"/>
      </g>
     </g>
    </g>
    <g id="ytick_4">
     <g id="line2d_13">
      <g>
       <use xlink:href="#m7eed035bc2" x="47.192188" y="123.391725" style="stroke: #000000; stroke-width: 0.8"/>
      </g>
     </g>
     <g id="text_13">
      <!-- 10000 -->
      <g transform="translate(8.379688 127.190944) scale(0.1 -0.1)">
       <use xlink:href="#DejaVuSans-31"/>
       <use xlink:href="#DejaVuSans-30" x="63.623047"/>
       <use xlink:href="#DejaVuSans-30" x="127.246094"/>
       <use xlink:href="#DejaVuSans-30" x="190.869141"/>
       <use xlink:href="#DejaVuSans-30" x="254.492188"/>
      </g>
     </g>
    </g>
    <g id="ytick_5">
     <g id="line2d_14">
      <g>
       <use xlink:href="#m7eed035bc2" x="47.192188" y="84.7533" style="stroke: #000000; stroke-width: 0.8"/>
      </g>
     </g>
     <g id="text_14">
      <!-- 20000 -->
      <g transform="translate(8.379688 88.552519) scale(0.1 -0.1)">
       <use xlink:href="#DejaVuSans-32"/>
       <use xlink:href="#DejaVuSans-30" x="63.623047"/>
       <use xlink:href="#DejaVuSans-30" x="127.246094"/>
       <use xlink:href="#DejaVuSans-30" x="190.869141"/>
       <use xlink:href="#DejaVuSans-30" x="254.492188"/>
      </g>
     </g>
    </g>
    <g id="ytick_6">
     <g id="line2d_15">
      <g>
       <use xlink:href="#m7eed035bc2" x="47.192188" y="46.114875" style="stroke: #000000; stroke-width: 0.8"/>
      </g>
     </g>
     <g id="text_15">
      <!-- 30000 -->
      <g transform="translate(8.379688 49.914093) scale(0.1 -0.1)">
       <use xlink:href="#DejaVuSans-33"/>
       <use xlink:href="#DejaVuSans-30" x="63.623047"/>
       <use xlink:href="#DejaVuSans-30" x="127.246094"/>
       <use xlink:href="#DejaVuSans-30" x="190.869141"/>
       <use xlink:href="#DejaVuSans-30" x="254.492188"/>
      </g>
     </g>
    </g>
    <g id="ytick_7">
     <g id="line2d_16">
      <g>
       <use xlink:href="#m7eed035bc2" x="47.192188" y="7.47645" style="stroke: #000000; stroke-width: 0.8"/>
      </g>
     </g>
     <g id="text_16">
      <!-- 40000 -->
      <g transform="translate(8.379688 11.275668) scale(0.1 -0.1)">
       <use xlink:href="#DejaVuSans-34"/>
       <use xlink:href="#DejaVuSans-30" x="63.623047"/>
       <use xlink:href="#DejaVuSans-30" x="127.246094"/>
       <use xlink:href="#DejaVuSans-30" x="190.869141"/>
       <use xlink:href="#DejaVuSans-30" x="254.492188"/>
      </g>
     </g>
    </g>
   </g>
   <g id="line2d_17">
    <path d="M 75.092188 162.024186 
L 77.065912 162.052609 
L 77.911793 162.000799 
L 78.193754 162.061851 
L 78.475715 161.996056 
L 78.757675 162.066689 
L 79.039636 161.991105 
L 79.321596 162.071775 
L 79.603557 161.985862 
L 79.885517 162.077197 
L 80.167478 161.980236 
L 80.449439 162.083054 
L 80.731399 161.974119 
L 81.01336 162.089463 
L 81.29532 161.967383 
L 81.577281 162.096567 
L 81.859242 161.959867 
L 82.141202 162.104546 
L 82.423163 161.951365 
L 82.705123 162.113636 
L 82.987084 161.94161 
L 83.269044 162.124148 
L 83.551005 161.930236 
L 83.832966 162.136508 
L 84.114926 161.916739 
L 84.396887 162.151323 
L 84.678847 161.900389 
L 84.960808 162.169477 
L 85.242769 161.880096 
L 85.524729 162.192329 
L 85.80669 161.854149 
L 86.08865 162.222068 
L 86.370611 161.819697 
L 86.652572 162.262475 
L 86.934532 161.771614 
L 87.216493 162.320682 
L 87.498453 161.699673 
L 87.780414 162.411911 
L 88.062374 161.580153 
L 88.344335 162.57534 
L 88.626296 161.34317 
L 88.908256 162.949757 
L 89.190217 160.664301 
L 89.472177 164.54663 
L 89.754138 152.815398 
L 90.036099 110.393164 
L 91.163941 149.442029 
L 92.291783 186.925567 
L 92.855704 209.419888 
L 93.419626 223.844392 
L 93.701586 235.324115 
L 93.983547 239.205902 
L 94.265507 230.300672 
L 94.547468 216.316279 
L 94.829429 210.923426 
L 95.111389 210.87032 
L 95.39335 209.102134 
L 95.957271 199.691198 
L 96.239231 198.130875 
L 96.521192 198.819976 
L 96.803153 199.878063 
L 97.367074 202.805827 
L 98.212956 211.93482 
L 98.494916 213.244187 
L 99.058837 218.531286 
L 99.340798 216.611552 
L 99.904719 207.447481 
L 100.750601 202.18364 
L 101.032561 201.645402 
L 101.314522 199.852979 
L 101.878443 195.063133 
L 102.160404 195.874051 
L 102.724325 199.770584 
L 103.288246 204.571643 
L 103.852167 207.173765 
L 104.98001 216.04491 
L 105.26197 215.029467 
L 105.543931 209.050816 
L 105.825891 194.23459 
L 106.389813 140.014476 
L 107.235694 57.021695 
L 107.517655 40.115407 
L 107.799615 30.388873 
L 108.081576 26.77739 
L 108.363537 28.787016 
L 108.645497 35.880147 
L 109.209418 66.18373 
L 110.619221 159.260331 
L 111.183143 172.941383 
L 111.747064 177.916975 
L 112.029024 178.198351 
L 112.310985 177.684301 
L 112.874906 175.951302 
L 113.720788 170.449548 
L 114.002748 168.269449 
L 114.56667 162.628929 
L 114.84863 163.484113 
L 115.412551 169.652601 
L 115.694512 170.53804 
L 115.976472 170.592527 
L 116.822354 172.559977 
L 117.386275 172.383567 
L 117.668236 173.059198 
L 117.950197 174.667865 
L 118.232157 175.189467 
L 118.514118 174.52989 
L 118.796078 174.29551 
L 119.64196 179.69424 
L 120.205881 180.675192 
L 120.487842 180.474202 
L 121.051763 179.010431 
L 121.897645 179.479102 
L 122.179605 179.15338 
L 122.461566 179.4595 
L 122.743527 180.909755 
L 123.589408 188.420147 
L 124.43529 201.786961 
L 124.717251 202.107828 
L 124.999211 203.106143 
L 125.563132 211.497439 
L 125.845093 211.982533 
L 126.127054 208.118708 
L 126.409014 200.234023 
L 126.690975 186.405476 
L 127.536857 120.856203 
L 128.100778 76.907267 
L 128.664699 51.022089 
L 128.946659 46.257519 
L 129.22862 46.735051 
L 129.510581 52.776662 
L 130.074502 76.676149 
L 130.638423 105.538902 
L 131.484305 155.025211 
L 132.048226 167.171959 
L 132.330186 171.4276 
L 132.612147 173.552342 
L 132.894108 173.439276 
L 133.176068 174.407288 
L 133.458029 176.765128 
L 133.739989 177.83645 
L 134.02195 175.893385 
L 134.585871 171.111202 
L 134.867832 170.232211 
L 135.149792 169.964415 
L 135.431753 170.182642 
L 135.995674 169.542626 
L 136.277635 169.73496 
L 136.841556 171.53435 
L 137.969398 174.599687 
L 138.251359 176.507592 
L 138.533319 177.602982 
L 138.81528 176.81048 
L 139.097241 175.426325 
L 139.379201 176.08974 
L 139.661162 177.789859 
L 139.943122 178.320248 
L 140.789004 174.879958 
L 141.070965 174.471137 
L 141.352925 174.803254 
L 141.634886 175.863753 
L 141.916846 176.207036 
L 142.198807 176.343423 
L 142.480768 178.06919 
L 143.044689 185.838287 
L 143.326649 187.264925 
L 143.60861 187.484682 
L 143.890571 189.2947 
L 144.172531 192.015245 
L 144.454492 193.134383 
L 144.736452 192.02079 
L 145.018413 192.024577 
L 145.582334 197.424851 
L 145.864295 198.535622 
L 146.146255 200.634744 
L 146.992137 214.624291 
L 147.274098 215.482938 
L 147.838019 218.835951 
L 148.119979 214.007245 
L 148.40194 199.997518 
L 148.965861 150.482725 
L 149.811743 66.03227 
L 150.375664 35.691135 
L 150.657625 28.910274 
L 150.939585 27.542787 
L 151.221546 33.10212 
L 152.067428 71.594744 
L 152.631349 102.897124 
L 153.47723 153.133074 
L 154.041152 171.077186 
L 154.323112 173.768298 
L 154.887033 175.826714 
L 155.732915 180.936845 
L 156.014876 183.392986 
L 156.296836 184.662596 
L 156.578797 183.873675 
L 157.424679 180.368852 
L 157.706639 179.330763 
L 157.9886 179.322623 
L 158.552521 180.064207 
L 158.834482 179.951926 
L 159.116442 179.624491 
L 159.398403 177.996342 
L 160.244285 170.369959 
L 160.526245 170.414724 
L 161.090166 173.226786 
L 161.372127 173.078219 
L 161.654087 171.927976 
L 161.936048 172.179586 
L 162.218009 173.594434 
L 162.499969 174.024602 
L 162.78193 173.188541 
L 163.06389 174.334757 
L 163.627812 182.043348 
L 164.473693 186.997677 
L 165.037614 192.374387 
L 165.601536 196.689653 
L 166.447417 200.78935 
L 167.85722 214.304706 
L 168.703102 224.382859 
L 168.985063 223.056299 
L 169.267023 216.041724 
L 169.548984 201.993725 
L 170.112905 153.380665 
L 170.958787 67.146821 
L 171.522708 33.158386 
L 171.804669 25.395337 
L 172.086629 24.972398 
L 172.36859 29.0831 
L 172.65055 34.879598 
L 172.932511 43.068228 
L 173.496432 74.152776 
L 174.906235 165.291369 
L 175.470156 179.258959 
L 176.034077 189.952009 
L 176.316038 189.72781 
L 176.879959 184.264935 
L 177.44388 183.87195 
L 177.725841 183.034819 
L 178.571723 179.570474 
L 178.853683 178.510909 
L 180.827407 167.910892 
L 181.109368 167.863237 
L 181.673289 164.836509 
L 181.95525 166.087343 
L 182.23721 169.515179 
L 182.519171 171.185642 
L 182.801131 171.226998 
L 183.083092 172.567759 
L 183.365053 175.229907 
L 183.647013 175.775389 
L 183.928974 174.204536 
L 184.210934 173.275072 
L 184.492895 173.800518 
L 184.774856 173.7081 
L 185.056816 173.126208 
L 185.338777 173.517329 
L 185.620737 174.963569 
L 185.902698 175.668828 
L 186.466619 175.359405 
L 187.03054 176.211008 
L 187.594461 178.233667 
L 188.722304 183.281301 
L 189.286225 187.47277 
L 192.105831 217.205969 
L 192.669752 225.141166 
L 192.951713 228.06276 
L 193.233673 229.020742 
L 193.515634 225.237203 
L 193.797594 213.735043 
L 194.079555 193.521012 
L 195.771318 27.646371 
L 196.053279 16.816626 
L 196.33524 13.432385 
L 196.6172 15.459384 
L 196.899161 21.100346 
L 197.463082 42.938603 
L 198.308964 89.169697 
L 199.436806 161.354653 
L 200.000727 182.279813 
L 200.282688 187.338995 
L 200.564648 188.517203 
L 201.12857 186.483495 
L 201.41053 187.276567 
L 201.692491 188.658937 
L 201.974451 189.103118 
L 202.538372 187.354519 
L 203.384254 184.156025 
L 203.948175 185.092942 
L 204.230136 185.085048 
L 204.512097 184.778906 
L 204.794057 184.823379 
L 205.076018 184.630013 
L 205.639939 183.469338 
L 205.921899 182.687275 
L 206.20386 180.045156 
L 207.049742 166.523437 
L 207.331702 164.434621 
L 207.895624 157.485052 
L 208.177584 157.841785 
L 208.741505 167.752089 
L 209.023466 168.046902 
L 209.305427 167.059114 
L 209.869348 171.286221 
L 210.151308 169.355362 
L 210.433269 164.818891 
L 210.715229 163.388008 
L 211.279151 168.780086 
L 211.561111 169.576769 
L 211.843072 171.633869 
L 212.406993 181.658835 
L 212.688954 184.027561 
L 212.970914 184.981962 
L 214.380717 193.766547 
L 214.662678 193.641551 
L 214.944638 193.674827 
L 215.226599 195.879162 
L 215.508559 199.451248 
L 215.79052 201.266485 
L 216.072481 201.617768 
L 216.354441 202.915446 
L 217.200323 210.805209 
L 217.764244 222.984187 
L 218.046205 224.617488 
L 218.328165 218.46581 
L 218.610126 203.097419 
L 219.174047 148.710255 
L 220.301889 36.769441 
L 220.58385 19.681653 
L 220.865811 12.096 
L 221.147771 14.150067 
L 221.429732 24.217822 
L 222.839535 97.938774 
L 223.967377 168.658112 
L 224.249338 178.829187 
L 224.813259 189.406227 
L 225.095219 191.502822 
L 225.37718 189.28525 
L 225.941101 182.139448 
L 226.505022 176.575945 
L 226.786983 176.077501 
L 227.350904 179.1297 
L 227.632865 178.934378 
L 228.760707 175.844298 
L 229.324628 171.14647 
L 229.606589 170.847901 
L 230.17051 174.544887 
L 230.45247 174.769424 
L 230.734431 176.148932 
L 231.298352 183.251819 
L 231.580313 183.265675 
L 231.862273 182.064959 
L 232.144234 182.165447 
L 232.426195 182.572643 
L 232.708155 180.975989 
L 232.990116 178.699234 
L 233.272076 178.110088 
L 233.835998 180.168205 
L 234.399919 181.085729 
L 235.2458 184.692887 
L 235.809722 188.727399 
L 236.091682 191.271022 
L 236.373643 195.571581 
L 236.937564 207.496003 
L 237.501485 213.47397 
L 238.065406 219.321505 
L 238.347367 220.6235 
L 238.629327 221.305362 
L 238.911288 223.154974 
L 239.193249 225.85255 
L 239.475209 227.109219 
L 239.75717 225.639038 
L 240.03913 218.974635 
L 240.321091 203.217002 
L 240.885012 145.887625 
L 242.012855 30.95911 
L 242.294815 21.185408 
L 242.576776 20.581967 
L 242.858736 22.568013 
L 243.140697 25.926598 
L 243.704618 41.583861 
L 244.5505 71.447575 
L 245.396382 122.297033 
L 246.242263 173.714563 
L 246.806184 189.793266 
L 247.088145 194.184046 
L 247.370106 195.731534 
L 247.652066 193.635089 
L 247.934027 189.753768 
L 248.215987 187.876859 
L 248.779909 188.957128 
L 249.34383 185.491053 
L 249.62579 186.42905 
L 249.907751 188.685516 
L 250.189712 188.767306 
L 250.753633 184.736717 
L 251.035593 184.043592 
L 251.317554 181.789785 
L 251.881475 172.160723 
L 252.163436 170.502408 
L 252.445396 170.544573 
L 252.727357 170.108565 
L 253.009317 170.107068 
L 253.291278 173.006707 
L 253.573239 177.32887 
L 253.855199 179.57935 
L 254.41912 178.205786 
L 254.701081 178.878802 
L 255.546963 183.091321 
L 257.520687 197.144202 
L 258.366569 202.792173 
L 258.648529 205.11879 
L 259.21245 212.547988 
L 259.776371 220.426466 
L 260.904214 232.968987 
L 261.186174 232.658833 
L 261.468135 225.472081 
L 261.750096 208.928474 
L 262.314017 149.074398 
L 263.159898 47.933141 
L 263.441859 27.760787 
L 263.72382 17.051826 
L 264.00578 14.238099 
L 264.287741 16.988469 
L 264.851662 32.241047 
L 265.415583 51.945546 
L 265.979504 81.660828 
L 267.389307 169.154424 
L 267.953228 184.09384 
L 268.235189 188.635057 
L 268.51715 191.073827 
L 269.081071 193.326788 
L 269.363031 193.644774 
L 269.644992 193.558422 
L 269.926953 192.897252 
L 270.208913 190.298168 
L 270.772834 180.89032 
L 271.054795 179.532627 
L 271.336755 179.158685 
L 271.900677 174.421986 
L 272.182637 174.574727 
L 272.464598 176.368214 
L 272.746558 176.395123 
L 273.31048 172.169772 
L 273.59244 172.008247 
L 274.156361 175.063536 
L 274.438322 175.232514 
L 275.002243 173.430923 
L 275.284204 173.019672 
L 275.848125 171.429295 
L 276.130085 172.208494 
L 276.412046 173.74282 
L 276.694007 173.769376 
L 276.975967 172.794459 
L 277.257928 172.746502 
L 277.539888 173.680284 
L 277.821849 173.80059 
L 278.10381 173.53115 
L 278.38577 174.081947 
L 278.667731 174.901482 
L 279.231652 174.097017 
L 279.513612 175.443822 
L 281.769297 197.120256 
L 282.333218 204.277157 
L 282.897139 210.384431 
L 284.870864 238.266327 
L 285.152824 240.055556 
L 285.434785 237.81122 
L 285.716745 227.5322 
L 285.998706 205.20063 
L 287.408509 40.742208 
L 287.690469 24.304457 
L 287.97243 17.965812 
L 288.536351 14.2246 
L 288.818312 16.722551 
L 289.382233 36.393897 
L 290.228115 71.366671 
L 291.073996 120.250581 
L 291.637918 154.846146 
L 292.201839 175.026076 
L 292.76576 184.77349 
L 293.329681 191.053017 
L 293.611642 192.235526 
L 294.175563 193.288596 
L 294.457524 192.382764 
L 295.303405 181.952019 
L 295.585366 181.134273 
L 296.713208 176.015017 
L 296.995169 175.339667 
L 297.277129 175.621806 
L 297.55909 176.911697 
L 297.841051 177.619691 
L 298.404972 174.248868 
L 298.686932 174.032298 
L 298.968893 175.141323 
L 299.250853 174.05382 
L 299.814775 165.934189 
L 300.096735 164.983913 
L 300.378696 164.864993 
L 300.660656 163.600412 
L 300.942617 163.241387 
L 301.506538 168.06738 
L 301.788499 168.593021 
L 302.070459 170.705069 
L 302.634381 181.618927 
L 302.916341 181.58091 
L 303.198302 179.675229 
L 303.762223 180.306849 
L 304.044183 177.137564 
L 304.326144 172.674749 
L 304.608105 171.274492 
L 305.453986 175.782865 
L 305.735947 176.69396 
L 306.017908 178.131871 
L 306.581829 181.568329 
L 306.863789 181.420376 
L 307.14575 180.943329 
L 307.42771 182.482676 
L 308.555553 194.947832 
L 309.119474 204.691031 
L 310.529277 223.03525 
L 311.093198 236.679506 
L 311.375159 239.994751 
L 311.657119 238.358513 
L 311.93908 230.1185 
L 312.22104 211.582513 
L 313.066922 112.790083 
L 313.630843 56.469227 
L 314.194765 22.91445 
L 314.476725 16.869467 
L 314.758686 18.247332 
L 315.604567 38.715142 
L 316.168489 57.260964 
L 316.73241 82.993017 
L 318.424173 175.762035 
L 318.988095 188.642045 
L 319.552016 195.446453 
L 319.833976 196.068154 
L 320.397897 194.177469 
L 320.679858 191.716927 
L 321.243779 181.771673 
L 321.52574 179.512924 
L 321.8077 180.888754 
L 322.089661 183.597721 
L 322.371622 184.3395 
L 322.653582 182.149607 
L 322.935543 178.77945 
L 323.217503 176.858326 
L 323.499464 175.900078 
L 323.781424 173.510284 
L 324.345346 166.747824 
L 324.627306 167.710533 
L 325.191227 173.094367 
L 326.037109 178.219298 
L 326.31907 178.208722 
L 326.60103 177.793369 
L 326.882991 178.074717 
L 327.446912 180.415548 
L 327.728873 180.775058 
L 328.010833 180.279723 
L 328.292794 180.079519 
L 328.574754 180.821859 
L 329.138676 182.771419 
L 329.420636 183.896699 
L 329.984557 188.863224 
L 330.266518 189.785888 
L 330.548479 189.889151 
L 330.830439 191.43394 
L 333.368084 223.14191 
L 333.650045 226.056358 
L 334.213966 234.389382 
L 334.495927 233.623369 
L 334.777887 221.448048 
L 335.341809 163.665367 
L 336.18769 65.197466 
L 336.469651 42.604967 
L 336.751611 30.339144 
L 337.033572 26.785797 
L 337.315533 27.286644 
L 337.597493 28.633861 
L 337.879454 31.420691 
L 338.443375 44.012176 
L 339.007296 60.753198 
L 339.571217 88.287588 
L 340.417099 137.905166 
L 340.98102 163.967531 
L 341.262981 172.871871 
L 341.826902 181.38802 
L 342.108863 183.642602 
L 342.390823 184.647266 
L 342.672784 183.660964 
L 343.236705 179.59258 
L 343.518666 180.394444 
L 344.082587 185.981027 
L 344.364547 186.385352 
L 344.928468 184.909985 
L 345.77435 185.389743 
L 346.056311 185.084169 
L 346.902193 183.36451 
L 347.184153 181.698464 
L 347.748074 175.978201 
L 348.030035 176.250354 
L 348.311995 177.485093 
L 348.593956 176.842828 
L 348.875917 174.982445 
L 349.157877 174.690331 
L 349.439838 175.198304 
L 349.721798 174.225395 
L 350.003759 172.61363 
L 350.56768 173.15639 
L 350.849641 170.354347 
L 351.131601 165.727368 
L 351.413562 163.718615 
L 351.977483 165.196504 
L 352.259444 164.226646 
L 352.541404 163.895428 
L 352.823365 165.589051 
L 353.387286 171.522132 
L 354.515128 178.718346 
L 354.797089 178.723215 
L 355.07905 177.871245 
L 355.36101 178.84556 
L 355.924931 183.970912 
L 356.206892 185.882789 
L 357.334734 197.326571 
L 357.898655 205.537362 
L 358.180616 207.977925 
L 358.462577 211.708577 
L 359.026498 223.013388 
L 359.590419 229.722537 
L 360.15434 239.759391 
L 360.436301 239.601563 
L 360.718261 233.992795 
L 361.000222 219.744495 
L 361.564143 156.344804 
L 362.410025 58.577497 
L 362.691985 37.408666 
L 362.973946 25.733584 
L 363.255907 23.227816 
L 363.537867 24.931515 
L 363.819828 27.875953 
L 364.101788 32.868886 
L 364.94767 56.749313 
L 365.511591 78.362732 
L 366.357473 121.123631 
L 366.921394 154.044758 
L 367.485315 173.462095 
L 367.767276 178.350694 
L 368.049237 180.041124 
L 368.331197 180.574519 
L 368.613158 181.948746 
L 369.177079 185.596577 
L 369.459039 186.085663 
L 369.741 185.159587 
L 370.304921 181.057656 
L 370.586882 180.503286 
L 370.868842 180.442702 
L 371.150803 180.646299 
L 371.432764 182.543519 
L 371.714724 185.989266 
L 371.996685 187.426097 
L 372.560606 183.659596 
L 372.842566 183.72509 
L 373.124527 184.075513 
L 373.406488 183.790047 
L 373.688448 183.784608 
L 373.970409 183.460809 
L 374.53433 178.182124 
L 374.816291 177.784801 
L 375.098251 177.906693 
L 375.662172 171.254897 
L 375.944133 170.786706 
L 376.226094 172.668092 
L 376.790015 174.600946 
L 377.635896 186.021021 
L 377.917857 187.034236 
L 378.481778 190.160473 
L 378.763739 190.037465 
L 379.045699 190.617267 
L 379.609621 196.681864 
L 380.173542 204.03102 
L 381.019423 217.571192 
L 382.429226 234.610988 
L 382.711187 236.699852 
L 382.993148 234.632421 
L 383.275108 224.673711 
L 383.557069 204.33337 
L 384.402951 110.126669 
L 384.966872 49.905242 
L 385.248832 34.140827 
L 385.530793 28.472712 
L 385.812753 26.998263 
L 386.094714 27.282177 
L 386.376675 30.49771 
L 386.940596 41.764173 
L 387.222556 49.716806 
L 388.350399 97.798259 
L 389.760202 160.91929 
L 390.888044 188.538718 
L 391.170005 190.728497 
L 391.733926 192.237631 
L 392.015886 192.115715 
L 392.579808 188.751271 
L 392.861768 188.089278 
L 393.143729 188.254766 
L 393.425689 187.262674 
L 394.271571 179.353208 
L 394.553532 179.20076 
L 394.835492 178.196508 
L 395.117453 176.054345 
L 395.399413 175.060769 
L 395.681374 175.193881 
L 395.963335 173.955288 
L 396.527256 168.610271 
L 396.809216 168.591201 
L 397.091177 168.727419 
L 397.373137 167.938554 
L 397.655098 168.224308 
L 398.50098 173.902735 
L 399.064901 176.731601 
L 399.346862 177.406911 
L 400.756665 175.772527 
L 401.038625 175.202542 
L 401.602546 172.621236 
L 401.884507 173.437945 
L 402.448428 176.902491 
L 402.730389 178.352257 
L 403.29431 183.952983 
L 403.57627 184.542777 
L 403.858231 184.305966 
L 404.140192 186.1238 
L 404.704113 192.779167 
L 404.986073 195.583575 
L 405.268034 200.628839 
L 405.831955 214.026415 
L 408.08764 248.393058 
L 408.3696 245.838724 
L 408.651561 233.922717 
L 408.933522 210.213443 
L 410.343324 48.122655 
L 410.625285 39.188101 
L 410.907246 36.529865 
L 411.189206 36.687754 
L 411.471167 38.236625 
L 412.035088 42.619214 
L 412.317049 44.340007 
L 412.599009 47.843146 
L 412.88097 55.130501 
L 414.290773 106.52895 
L 415.136654 148.932811 
L 415.982536 177.397283 
L 416.264497 182.930007 
L 416.546457 184.617791 
L 416.828418 183.910804 
L 417.392339 178.653038 
L 417.6743 176.04222 
L 417.95626 174.886028 
L 418.238221 174.231212 
L 418.802142 172.081113 
L 419.084103 172.067183 
L 420.211945 175.707024 
L 420.493906 176.983018 
L 421.057827 181.053001 
L 422.46763 186.407564 
L 422.74959 186.792803 
L 423.031551 188.943257 
L 423.595472 195.391189 
L 423.877433 196.42176 
L 425.005275 197.353151 
L 425.287236 198.119496 
L 425.569196 199.926688 
L 426.133117 206.616423 
L 426.697038 214.907691 
L 427.54292 223.350971 
L 428.670763 241.357546 
L 428.952723 242.206527 
L 429.234684 234.196119 
L 429.516644 214.927175 
L 430.080565 153.846075 
L 430.926447 58.321323 
L 431.208408 43.322461 
L 431.490368 37.800071 
L 431.772329 36.193323 
L 432.05429 35.772116 
L 432.33625 38.119539 
L 433.464093 65.34079 
L 434.028014 84.105529 
L 434.591935 107.238704 
L 435.437817 145.519876 
L 436.283698 174.340172 
L 436.565659 178.784641 
L 437.12958 183.260108 
L 437.411541 184.178728 
L 437.693501 184.211932 
L 437.975462 183.886838 
L 438.257422 182.975624 
L 438.539383 181.24639 
L 438.821344 180.210131 
L 439.103304 180.272166 
L 439.385265 179.633591 
L 439.949186 175.550156 
L 440.513107 175.620691 
L 440.795068 174.532377 
L 441.077028 174.080879 
L 441.64095 176.393194 
L 441.92291 176.441038 
L 442.204871 177.006299 
L 443.050752 182.511956 
L 443.332713 182.538145 
L 444.178595 180.922829 
L 444.742516 183.689447 
L 445.024477 183.710914 
L 445.306437 181.135166 
L 445.870358 174.651852 
L 446.434279 172.984163 
L 447.280161 163.797463 
L 447.844082 168.268487 
L 448.126043 168.593807 
L 448.408004 169.206894 
L 448.971925 174.648663 
L 449.535846 175.674517 
L 450.381728 181.771192 
L 450.663688 182.421441 
L 450.945649 184.017756 
L 452.073491 194.155855 
L 452.919373 205.210515 
L 454.611136 228.960051 
L 455.175058 238.128139 
L 455.457018 240.81275 
L 455.738979 239.499903 
L 456.020939 229.466358 
L 456.3029 207.462623 
L 457.712703 49.271929 
L 457.994663 41.697101 
L 458.558585 38.091713 
L 458.840545 37.330613 
L 459.122506 38.814434 
L 459.686427 44.197173 
L 459.968388 48.197546 
L 460.532309 62.086623 
L 461.09623 85.580994 
L 461.660151 109.151093 
L 462.224072 129.217031 
L 462.787993 151.24732 
L 463.351915 163.78729 
L 463.633875 168.184583 
L 464.479757 176.137351 
L 464.761718 175.946502 
L 465.043678 172.219312 
L 465.325639 171.030522 
L 465.607599 176.344648 
L 465.88956 183.965388 
L 466.17152 188.479904 
L 466.735442 194.891657 
L 467.017402 198.409743 
L 467.581323 201.45352 
L 468.427205 210.104063 
L 468.991126 216.747131 
L 469.555048 216.570552 
L 469.837008 220.799764 
L 470.400929 232.723376 
L 470.68289 233.356625 
L 470.96485 232.849188 
L 471.246811 233.498403 
L 471.528772 234.745274 
L 472.374653 236.531229 
L 472.656614 233.789546 
L 472.938575 222.75179 
L 473.502496 176.029659 
L 474.630338 67.69766 
L 474.912299 60.757126 
L 475.47622 59.237871 
L 475.75818 59.480933 
L 476.604062 70.222585 
L 476.886023 74.885503 
L 477.731905 96.558344 
L 479.705629 165.277143 
L 479.987589 171.434273 
L 480.55151 177.53827 
L 481.397392 182.223094 
L 481.679353 181.425293 
L 481.961313 179.485328 
L 482.243274 179.522872 
L 482.807195 185.307547 
L 483.089156 186.012729 
L 483.371116 185.925929 
L 483.935037 187.643518 
L 484.216998 185.414014 
L 484.498959 181.58016 
L 484.780919 180.02015 
L 485.34484 182.728435 
L 485.626801 182.366145 
L 485.908762 183.513409 
L 486.754643 197.910263 
L 487.036604 198.782967 
L 487.318564 200.190065 
L 487.882486 204.774334 
L 488.164446 206.000634 
L 488.446407 207.914161 
L 489.292289 217.879165 
L 491.829934 254.016 
L 492.111894 246.392195 
L 492.393855 224.241822 
L 493.803658 52.716976 
L 494.085619 41.935903 
L 494.9315 33.304961 
L 495.213461 32.902955 
L 495.495421 35.729297 
L 496.059343 44.774648 
L 496.623264 59.782995 
L 498.033067 107.83611 
L 499.44287 154.201514 
L 499.72483 157.429637 
L 500.006791 159.123433 
L 500.288751 159.752321 
L 500.852673 155.769336 
L 501.134633 160.288425 
L 501.698554 175.985558 
L 502.262476 180.04792 
L 502.544436 183.736148 
L 502.826397 185.373382 
L 503.108357 185.255997 
L 503.390318 187.273543 
L 503.672278 190.928446 
L 503.954239 192.027914 
L 504.2362 191.237321 
L 504.51816 192.043724 
L 504.800121 193.394434 
L 505.082081 192.469177 
L 505.364042 192.354623 
L 505.927963 198.854245 
L 506.209924 194.305675 
L 506.491884 187.041964 
L 506.773845 185.38032 
L 507.055805 188.729886 
L 507.337766 190.452555 
L 507.619727 189.487343 
L 507.901687 189.501229 
L 508.183648 191.818497 
L 508.747569 199.355452 
L 509.31149 206.695789 
L 509.593451 209.685072 
L 510.157372 217.709342 
L 510.439333 217.46881 
L 510.721293 215.309632 
L 511.003254 215.966692 
L 511.567175 223.599109 
L 512.131096 228.417639 
L 512.976978 243.15374 
L 513.258938 239.271022 
L 513.540899 225.298812 
L 514.10482 171.372078 
L 514.950702 83.561654 
L 515.232662 70.878323 
L 515.796584 61.457976 
L 516.360505 56.656274 
L 516.642465 56.070481 
L 516.924426 56.99495 
L 517.206387 60.878478 
L 517.770308 72.185705 
L 518.052268 75.357684 
L 518.334229 79.86785 
L 518.89815 98.696445 
L 519.744032 126.987743 
L 520.589914 150.24031 
L 521.435795 163.049126 
L 521.999717 181.789127 
L 522.281677 183.943476 
L 522.563638 183.139236 
L 522.845598 183.72499 
L 523.127559 184.908693 
L 523.409519 184.274972 
L 523.69148 182.326381 
L 523.973441 181.349189 
L 524.255401 181.64776 
L 524.537362 181.725942 
L 525.101283 179.417527 
L 525.383244 180.269248 
L 525.947165 184.542065 
L 526.229125 184.358466 
L 526.511086 183.749763 
L 526.793047 183.614739 
L 527.075007 183.266842 
L 527.356968 183.282128 
L 528.202849 187.924757 
L 528.48481 188.645292 
L 529.048731 192.544158 
L 529.612652 193.815061 
L 531.022455 208.391267 
L 531.586376 214.536482 
L 532.150298 219.974185 
L 532.714219 227.444458 
L 532.996179 228.721997 
L 533.27814 228.929318 
L 533.560101 229.495191 
L 533.842061 228.121187 
L 534.124022 219.928291 
L 534.405982 201.996304 
L 535.815785 78.496872 
L 536.379706 63.601218 
L 536.661667 59.212729 
L 536.943628 59.487122 
L 537.789509 66.290951 
L 538.917352 92.922088 
L 540.327155 133.099583 
L 540.891076 150.633223 
L 541.736958 161.954184 
L 542.300879 173.640036 
L 542.582839 175.301241 
L 543.146761 176.319138 
L 543.428721 176.503017 
L 543.710682 177.521527 
L 544.274603 184.013259 
L 544.556563 185.317 
L 544.838524 184.185648 
L 545.684406 178.618571 
L 545.966366 177.282813 
L 546.248327 175.191423 
L 546.812248 170.01864 
L 547.094209 170.19418 
L 547.376169 171.260735 
L 547.65813 171.675637 
L 547.94009 172.709861 
L 548.504012 177.630196 
L 548.785972 176.627627 
L 549.067933 174.816721 
L 549.631854 175.256122 
L 550.195775 168.825956 
L 550.477736 168.671764 
L 550.759696 170.878712 
L 551.041657 171.712599 
L 551.887539 168.819642 
L 553.297342 159.548324 
L 553.579302 160.769563 
L 554.143223 166.257643 
L 554.425184 165.400866 
L 554.707145 164.009838 
L 555.271066 165.144891 
L 555.553026 163.270126 
L 555.834987 160.078705 
L 556.116947 159.993218 
L 556.680869 167.68252 
L 556.962829 168.022492 
L 557.24479 167.969857 
L 557.52675 171.413681 
L 557.808711 176.736135 
L 558.090672 179.481369 
L 558.654593 179.071374 
L 559.218514 182.040355 
L 559.782435 186.205689 
L 560.910277 196.138037 
L 561.474199 202.874049 
L 562.03812 209.209518 
L 562.884002 222.741553 
L 563.447923 228.515592 
L 563.729883 232.877848 
L 564.011844 234.513404 
L 564.293804 227.550859 
L 564.575765 210.026752 
L 565.139686 150.261017 
L 565.703607 89.100049 
L 565.985568 73.850353 
L 566.267529 66.451725 
L 566.549489 62.287605 
L 566.83145 61.287708 
L 567.677332 67.583816 
L 569.369095 92.129338 
L 569.933016 106.860126 
L 570.496937 127.344999 
L 571.62478 158.00722 
L 571.90674 160.484337 
L 572.188701 164.6983 
L 572.752622 177.300106 
L 573.034583 177.006105 
L 573.316543 175.291387 
L 573.598504 175.496499 
L 573.880464 176.207306 
L 574.162425 177.385414 
L 574.444386 181.84729 
L 574.726346 188.563406 
L 575.008307 192.281958 
L 575.290267 191.84434 
L 575.572228 191.170048 
L 575.854189 191.143899 
L 576.136149 188.328661 
L 576.41811 183.114811 
L 576.70007 180.833853 
L 577.263991 184.143577 
L 577.827913 179.291848 
L 578.109873 180.096147 
L 578.391834 181.942258 
L 578.673794 182.102628 
L 578.955755 181.747267 
L 579.237716 182.684851 
L 580.083597 186.946367 
L 580.647518 192.448583 
L 581.21144 196.700575 
L 581.4934 199.121995 
L 581.775361 200.081785 
L 582.057321 199.90396 
L 582.339282 200.550737 
L 583.185164 205.139165 
L 583.467124 208.48393 
L 584.031046 218.585503 
L 584.313006 217.94737 
L 584.594967 210.471532 
L 585.158888 178.331507 
L 586.00477 114.428849 
L 586.28673 103.517542 
L 586.850651 93.776188 
L 587.414573 86.754383 
L 587.696533 85.196512 
L 587.978494 84.526505 
L 588.260454 85.445132 
L 588.542415 88.784895 
L 589.388297 105.055564 
L 590.7981 139.625957 
L 591.925942 157.464344 
L 592.207903 158.50351 
L 592.489863 162.271305 
L 593.053784 173.33195 
L 593.335745 173.358666 
L 593.617705 173.14809 
L 594.181627 176.918443 
L 594.463587 175.918776 
L 594.745548 175.597741 
L 595.309469 180.277719 
L 595.59143 179.346002 
L 595.87339 177.635091 
L 596.155351 177.663355 
L 596.437311 177.542568 
L 597.283193 169.725116 
L 597.565154 169.757751 
L 597.847114 168.973319 
L 598.129075 167.796221 
L 598.411035 167.693683 
L 598.692996 167.960297 
L 599.256917 166.195332 
L 599.538878 166.02537 
L 600.102799 166.23498 
L 600.38476 167.942227 
L 601.230641 176.641458 
L 602.076523 186.5007 
L 602.640444 188.005204 
L 602.922405 188.522373 
L 603.204365 188.628536 
L 603.486326 189.733406 
L 604.050247 197.319346 
L 604.332208 198.979899 
L 604.614168 199.063243 
L 604.896129 200.684617 
L 605.46005 206.226652 
L 605.742011 207.665274 
L 606.023971 211.824343 
L 606.587892 227.536612 
L 606.869853 229.629922 
L 607.151814 225.333323 
L 607.433774 215.115783 
L 607.715735 196.58106 
L 608.561617 112.052436 
L 608.843577 99.705691 
L 609.407498 88.715719 
L 609.689459 84.44413 
L 609.971419 82.427018 
L 610.25338 81.607674 
L 610.535341 81.732514 
L 610.817301 84.133774 
L 612.791025 114.477558 
L 614.200828 157.173344 
L 614.764749 167.213647 
L 615.328671 173.974033 
L 615.610631 172.478655 
L 616.174552 163.1654 
L 616.738474 157.280783 
L 617.020434 153.911318 
L 617.302395 153.115076 
L 617.584355 154.451123 
L 617.866316 156.651606 
L 618.148276 160.627627 
L 618.712198 172.399115 
L 618.994158 174.839734 
L 619.558079 177.914979 
L 619.84004 178.074278 
L 620.122001 177.168963 
L 620.403961 178.536064 
L 620.685922 182.230086 
L 620.967882 183.445909 
L 621.249843 181.640983 
L 621.531803 181.058093 
L 622.095725 185.112237 
L 622.377685 186.346718 
L 622.941606 192.177693 
L 623.223567 190.265142 
L 623.505528 185.763941 
L 623.787488 184.331061 
L 624.351409 188.107414 
L 624.63337 189.310995 
L 624.915331 192.465941 
L 625.479252 199.576032 
L 626.607094 206.078722 
L 627.452976 215.802408 
L 627.734936 212.589949 
L 628.016897 203.794753 
L 628.580818 164.369309 
L 629.144739 122.264125 
L 629.4267 111.34118 
L 629.990621 102.587411 
L 630.272582 99.226364 
L 630.836503 89.872386 
L 631.118463 89.786735 
L 632.528266 111.670416 
L 632.810227 113.559374 
L 633.092188 121.645105 
L 633.092188 121.645105 
" clip-path="url(#p16678f175d)" style="fill: none; stroke: #1f77b4; stroke-width: 1.5; stroke-linecap: square"/>
   </g>
   <g id="patch_3">
    <path d="M 47.192188 266.112 
L 47.192188 0 
" style="fill: none; stroke: #000000; stroke-width: 0.8; stroke-linejoin: miter; stroke-linecap: square"/>
   </g>
   <g id="patch_4">
    <path d="M 660.992188 266.112 
L 660.992188 0 
" style="fill: none; stroke: #000000; stroke-width: 0.8; stroke-linejoin: miter; stroke-linecap: square"/>
   </g>
   <g id="patch_5">
    <path d="M 47.192188 266.112 
L 660.992188 266.112 
" style="fill: none; stroke: #000000; stroke-width: 0.8; stroke-linejoin: miter; stroke-linecap: square"/>
   </g>
   <g id="patch_6">
    <path d="M 47.192188 0 
L 660.992188 0 
" style="fill: none; stroke: #000000; stroke-width: 0.8; stroke-linejoin: miter; stroke-linecap: square"/>
   </g>
  </g>
 </g>
 <defs>
  <clipPath id="p16678f175d">
   <rect x="47.192188" y="0" width="613.8" height="266.112"/>
  </clipPath>
 </defs>
</svg>
