<svg xmlns="http://www.w3.org/2000/svg" xmlns:xlink="http://www.w3.org/1999/xlink" width="913.477" height="377.053" viewBox="0 0 685.107 282.79"><defs><style>*{stroke-linejoin:round;stroke-linecap:butt}</style></defs><g id="figure_1"><path id="patch_1" d="M0 282.79h685.107V0H0v282.79z" style="fill:none"/><g id="axes_1"><path id="patch_2" d="M71.308 266.112h613.8V0h-613.8v266.112z" style="fill:none"/><g id="matplotlib.axis_1"><g id="xtick_1"><g id="line2d_1"><defs><path id="maaaa547ffe" d="M0 0v3.5" style="stroke:gray;stroke-width:.8"/></defs><use xlink:href="#maaaa547ffe" x="99.207" y="266.112" style="fill:gray;stroke:gray;stroke-width:.8"/></g><g id="text_1" style="fill:gray" transform="matrix(.1 0 0 -.1 96.026 280.71)"><defs><path id="DejaVuSans-30" d="M2034 4250q-487 0-733-480-245-479-245-1442 0-959 245-1439 246-480 733-480 491 0 736 480 246 480 246 1439 0 963-246 1442-245 480-736 480zm0 500q785 0 1199-621 414-620 414-1801 0-1178-414-1799Q2819-91 2034-91q-784 0-1198 620-414 621-414 1799 0 1181 414 1801 414 621 1198 621z" transform="scale(.01563)"/></defs><use xlink:href="#DejaVuSans-30"/></g></g><g id="xtick_2"><use xlink:href="#maaaa547ffe" id="line2d_2" x="168.958" y="266.112" style="fill:gray;stroke:gray;stroke-width:.8"/><g id="text_2" style="fill:gray" transform="matrix(.1 0 0 -.1 159.414 280.71)"><defs><path id="DejaVuSans-35" d="M691 4666h2478v-532H1269V2991q137 47 274 70 138 23 276 23 781 0 1237-428 457-428 457-1159 0-753-469-1171Q2575-91 1722-91q-294 0-599 50Q819 9 494 109v635q281-153 581-228t634-75q541 0 856 284 316 284 316 772 0 487-316 771-315 285-856 285-253 0-505-56-251-56-513-175v2344z" transform="scale(.01563)"/></defs><use xlink:href="#DejaVuSans-35"/><use xlink:href="#DejaVuSans-30" x="63.623"/><use xlink:href="#DejaVuSans-30" x="127.246"/></g></g><g id="xtick_3"><use xlink:href="#maaaa547ffe" id="line2d_3" x="238.708" y="266.112" style="fill:gray;stroke:gray;stroke-width:.8"/><g id="text_3" style="fill:gray" transform="matrix(.1 0 0 -.1 225.982 280.71)"><defs><path id="DejaVuSans-31" d="M794 531h1031v3560L703 3866v575l1116 225h631V531h1031V0H794v531z" transform="scale(.01563)"/></defs><use xlink:href="#DejaVuSans-31"/><use xlink:href="#DejaVuSans-30" x="63.623"/><use xlink:href="#DejaVuSans-30" x="127.246"/><use xlink:href="#DejaVuSans-30" x="190.869"/></g></g><g id="xtick_4"><use xlink:href="#maaaa547ffe" id="line2d_4" x="308.457" y="266.112" style="fill:gray;stroke:gray;stroke-width:.8"/><g id="text_4" style="fill:gray" transform="matrix(.1 0 0 -.1 295.733 280.71)"><use xlink:href="#DejaVuSans-31"/><use xlink:href="#DejaVuSans-35" x="63.623"/><use xlink:href="#DejaVuSans-30" x="127.246"/><use xlink:href="#DejaVuSans-30" x="190.869"/></g></g><g id="xtick_5"><use xlink:href="#maaaa547ffe" id="line2d_5" x="378.207" y="266.112" style="fill:gray;stroke:gray;stroke-width:.8"/><g id="text_5" style="fill:gray" transform="matrix(.1 0 0 -.1 365.483 280.71)"><defs><path id="DejaVuSans-32" d="M1228 531h2203V0H469v531q359 372 979 998 621 627 780 809 303 340 423 576 121 236 121 464 0 372-261 606-261 235-680 235-297 0-627-103-329-103-704-313v638q381 153 712 231 332 78 607 78 725 0 1156-363 431-362 431-968 0-288-108-546-107-257-392-607-78-91-497-524-418-433-1181-1211z" transform="scale(.01563)"/></defs><use xlink:href="#DejaVuSans-32"/><use xlink:href="#DejaVuSans-30" x="63.623"/><use xlink:href="#DejaVuSans-30" x="127.246"/><use xlink:href="#DejaVuSans-30" x="190.869"/></g></g><g id="xtick_6"><use xlink:href="#maaaa547ffe" id="line2d_6" x="447.957" y="266.112" style="fill:gray;stroke:gray;stroke-width:.8"/><g id="text_6" style="fill:gray" transform="matrix(.1 0 0 -.1 435.233 280.71)"><use xlink:href="#DejaVuSans-32"/><use xlink:href="#DejaVuSans-35" x="63.623"/><use xlink:href="#DejaVuSans-30" x="127.246"/><use xlink:href="#DejaVuSans-30" x="190.869"/></g></g><g id="xtick_7"><use xlink:href="#maaaa547ffe" id="line2d_7" x="517.707" y="266.112" style="fill:gray;stroke:gray;stroke-width:.8"/><g id="text_7" style="fill:gray" transform="matrix(.1 0 0 -.1 504.983 280.71)"><defs><path id="DejaVuSans-33" d="M2597 2516q453-97 707-404 255-306 255-756 0-690-475-1069Q2609-91 1734-91q-293 0-604 58T488 141v609q262-153 574-231 313-78 654-78 593 0 904 234t311 681q0 413-289 645-289 233-804 233h-544v519h569q465 0 712 186t247 536q0 359-255 551-254 193-729 193-260 0-557-57-297-56-653-174v562q360 100 674 150t592 50q719 0 1137-327 419-326 419-882 0-388-222-655t-631-370z" transform="scale(.01563)"/></defs><use xlink:href="#DejaVuSans-33"/><use xlink:href="#DejaVuSans-30" x="63.623"/><use xlink:href="#DejaVuSans-30" x="127.246"/><use xlink:href="#DejaVuSans-30" x="190.869"/></g></g><g id="xtick_8"><use xlink:href="#maaaa547ffe" id="line2d_8" x="587.457" y="266.112" style="fill:gray;stroke:gray;stroke-width:.8"/><g id="text_8" style="fill:gray" transform="matrix(.1 0 0 -.1 574.732 280.71)"><use xlink:href="#DejaVuSans-33"/><use xlink:href="#DejaVuSans-35" x="63.623"/><use xlink:href="#DejaVuSans-30" x="127.246"/><use xlink:href="#DejaVuSans-30" x="190.869"/></g></g><g id="xtick_9"><use xlink:href="#maaaa547ffe" id="line2d_9" x="657.207" y="266.112" style="fill:gray;stroke:gray;stroke-width:.8"/><g id="text_9" style="fill:gray" transform="matrix(.1 0 0 -.1 644.482 280.71)"><defs><path id="DejaVuSans-34" d="M2419 4116 825 1625h1594v2491zm-166 550h794V1625h666v-525h-666V0h-628v1100H313v609l1940 2957z" transform="scale(.01563)"/></defs><use xlink:href="#DejaVuSans-34"/><use xlink:href="#DejaVuSans-30" x="63.623"/><use xlink:href="#DejaVuSans-30" x="127.246"/><use xlink:href="#DejaVuSans-30" x="190.869"/></g></g></g><g id="matplotlib.axis_2"><g id="ytick_1"><g id="line2d_10"><defs><path id="ma5ed596a66" d="M0 0h-3.5" style="stroke:gray;stroke-width:.8"/></defs><use xlink:href="#ma5ed596a66" x="71.308" y="250.726" style="fill:gray;stroke:gray;stroke-width:.8"/></g><g id="text_10" style="fill:gray" transform="matrix(.16 0 0 -.16 0 256.805)"><defs><path id="DejaVuSans-2212" d="M678 2272h4006v-531H678v531z" transform="scale(.01563)"/></defs><use xlink:href="#DejaVuSans-2212"/><use xlink:href="#DejaVuSans-32" x="83.789"/><use xlink:href="#DejaVuSans-30" x="147.412"/><use xlink:href="#DejaVuSans-30" x="211.035"/><use xlink:href="#DejaVuSans-30" x="274.658"/><use xlink:href="#DejaVuSans-30" x="338.281"/></g></g><g id="ytick_2"><use xlink:href="#ma5ed596a66" id="line2d_11" x="71.308" y="197.075" style="fill:gray;stroke:gray;stroke-width:.8"/><g id="text_11" style="fill:gray" transform="matrix(.16 0 0 -.16 0 203.153)"><use xlink:href="#DejaVuSans-2212"/><use xlink:href="#DejaVuSans-31" x="83.789"/><use xlink:href="#DejaVuSans-30" x="147.412"/><use xlink:href="#DejaVuSans-30" x="211.035"/><use xlink:href="#DejaVuSans-30" x="274.658"/><use xlink:href="#DejaVuSans-30" x="338.281"/></g></g><g id="ytick_3"><use xlink:href="#ma5ed596a66" id="line2d_12" x="71.308" y="143.423" style="fill:gray;stroke:gray;stroke-width:.8"/><use xlink:href="#DejaVuSans-30" id="text_12" style="fill:gray" transform="matrix(.16 0 0 -.16 54.127 149.502)"/></g><g id="ytick_4"><use xlink:href="#ma5ed596a66" id="line2d_13" x="71.308" y="89.772" style="fill:gray;stroke:gray;stroke-width:.8"/><g id="text_13" style="fill:gray" transform="matrix(.16 0 0 -.16 13.408 95.85)"><use xlink:href="#DejaVuSans-31"/><use xlink:href="#DejaVuSans-30" x="63.623"/><use xlink:href="#DejaVuSans-30" x="127.246"/><use xlink:href="#DejaVuSans-30" x="190.869"/><use xlink:href="#DejaVuSans-30" x="254.492"/></g></g><g id="ytick_5"><use xlink:href="#ma5ed596a66" id="line2d_14" x="71.308" y="36.12" style="fill:gray;stroke:gray;stroke-width:.8"/><g id="text_14" style="fill:gray" transform="matrix(.16 0 0 -.16 13.408 42.199)"><use xlink:href="#DejaVuSans-32"/><use xlink:href="#DejaVuSans-30" x="63.623"/><use xlink:href="#DejaVuSans-30" x="127.246"/><use xlink:href="#DejaVuSans-30" x="190.869"/><use xlink:href="#DejaVuSans-30" x="254.492"/></g></g></g><path id="line2d_15" d="m99.207 143.859.282-.853.282.817.282-.784.282.755.282-.728.282.703.282-.68.282.66.282-.642.282.624.282-.608.282.593.282-.579.282.566.282-.554.282.543.282-.534.282.526.282-.518.282.51.282-.503.282.498.282-.493.282.488.282-.484.281.481.282-.48.282.48.282-.48.282.48.282-.48.282.483.282-.488.282.493.282-.5.282.51.282-.521.282.534.282-.55.282.57.282-.597.282.63.282-.672.282.727.282-.8.282.901.282-1.05.282 1.292.282-1.74.282 2.836.281-9.449.282-25.037.564-14.442.564-4.636.282 3.32.564 14.155 1.41 34.851.564 10.803.282.929.282-.615.564 2.668.282-.525.282-1.455.282.164.282.346.564-4.442.281.273.282 2.067.282.886.282.277.846 4.185.282.408.564 2.704.282-1.004.282-1.482.282-.238.564.917.564 1.808.282-2.323.282-7.59.564-26.13.564-26.448.564-14.093.281-2.454.282.409.282 3.426.564 12.937 1.974 54.08.846 5.474.282 2.538.282.747.282-.734.282-.173.282.677.282.005.282-2.62.282-4.186.282-2.403.282 1.268.281 2.072.282.232.282-.286.564 3.783.564.95.564 3.67.282-.074.282.294.564 4.52.282-2.532.282-8.582 1.41-62.107.282-6.11.282-2.565.282-.797.282-.405.282 2.197.282 7.933.845 34.478.564 11.358.846 17.373.564 1.746.564 5.466.282-2.038.564-6.681.564-4.38.282-.568.282.254.282.59.282 2.484.564 9.748.282 1.453.282-.05.281.755.282-.083.846-7.615.846 6.586.282-1.867.282-6.231.564-26.879.564-28.118.564-14.925.282-4.855.282-1.548.282 2.055.564 7.652.282 6.902 1.41 51.352.281 6.152.282 3.651.846 4.305.282-.873.564-7.328 1.128-8.279.282-.846.282.146.282.95.564 3.283.564 1.907.282 1.277.282.488.282-.227.282.054.282.88.281 1.642.564 5.602.282.861.282-2.355.282-5.26.282-8.808 1.128-51.471.282-7.177.282-4.246.282-1.603.282-.288.282 1.604.282 6.145.846 31.193.564 14.424.564 14.687.563 5.079.564 9.645.282.951.282-2.198.282-1.011.282 1.22.282-.282.846-11.657.282.79.564 4.204.282.955.282 2.012.282 2.921.282 1.484.282.424.282 2.035.564 5.664.282 1.287.282 2.04.282.69.282-5.058.281-12.084.846-50.686.564-15.629.564-11.496.282-2.822.282-1.276.282-.612.282 1.63.282 6.219 1.974 73.49.846 5.41.282.276.282-2.23.281-.657.282.273.564-6.66.282-.353.282 1.201.282-1.407.282-2.072.282.62.564 3.357.282 1.781.564 6.274.846 14.122.282-.721.282.852.282 3.472.282-.147.282-7.633.846-40.873.563-25.983.564-17.122.564-11.594.282-3.273.282.414.282 5.836.564 20.546 1.128 44.485.564 9.661.282 1.003.282-1.403.282-.303.564 4.514.282-.12.282-.846.282 2.046.563 9.255.282-.634.282-2.654.282.024.282 2.063.282-.285.282-2.88.282-1.585.564 1.604.282-.069.282 1.103.564 4.083.282-.146.282-.69.282-1.3.282-4.562.282-10.035 1.128-56.517.564-18.432.281-5.64.282-.415.846 14.852.282 5.072.564 20.995.846 35.311.282 7.64.282 4.039.564 3.757.282 1.072.282-1.375.282-3.286.282-1.713.282 2.175.282 3.637.282 1.203.282-.583.282 1.423.282 3.206.281 1.063.282-1.442.282-.447.282.726.282-1.103.282-2.376.282-.411.282.815.282-1.154.282-2.388.282-.361.282 1.578.282.438.282-3.006.282-7.238 1.974-75.032.282-3.977.282-.415.282 1.384.282 2.463.281 4.345.282 8.162.564 30.618.564 30.978.282 9.614.282 4.293.282-2.51.564-13.467.846-10.627.282 1.822.282 6.123.282 3.153.564-3.941.564 6.53.282.246.564-6.196.282-.545.281 1.555.282.514.282-1.432.282.66 1.128 21.654.564 8.257.282-3.101.282-11.64 1.128-60.785.564-21.523.282-2.488.282 1.402.564 1.32.282 5.361 1.127 46.772.564 22.496.282 4.248.282 1.833.846 8.848.282.28.282-.872.282.074.564 3.654.282-.856.282-2.67.282-1.607.282.386.564 3.233.282 1.49.282-.857.564-6.411.564-2.503.281-.75.282.708.282 1.127.564-.357.282.8.282-2.194.282-9.567 1.692-85.329.564-11.69.282-2.146.282 1.187.282 4.135.282 7.321.564 26.954.846 47.083.563 15.79.282 4.483.282 2.134.282-.746.282-1.97.282-.536.846 3.524.282-.563.564-1.758.282-.103.282.135.282.503.564 2.352.282-.096.282-.32.282 1.46 1.128 12.971.282-.906.281.48.282 2.618.282.042.282-6.757.564-28.779.846-50.18.846-37.241.282-1.643.564 1.675.282 6.026.564 33.178.846 47.569.282 9.27.564 8.797.282 2.852.281 1.692.282.465.282-.236.282-.654.282-1.72.564-6.634.282-.997.564 3.189.564.942.564 1.882.564.98.282-.05.282-.66.282.225.282 2.343.846 10.572.282 1.466.282-2.394.281-6.846.564-24.758.846-47.711 1.128-44.77.282-.597.282 4.793.282 9.43.564 29.998.846 54.895.282 8.223.564 6.386.282 1.883.282-.163.282.018.282 1.614.282.635.563-3.177.564.779.282-1.21 1.41-8.99.282-.506.282.575.282 2.565.846 13.446.564 8.613.282 1.19.282-.296.282-1.321.282-4.55.282-10.573 1.691-95.494.564-13.396.282-4.147.282-1.78.282 1.619.282 5.343.282 10.476 1.128 65.722.564 19.286.282 6.539.282 2.225.564-2.216.282 2.401.282 5.057.282 2.399.564-4.91.281 1.481.282 2.368.282-1.132.282-3.386.282-1.866.282.623 1.128 6.454.846 9.07 1.128 8.272.282-.634.282-7.429.564-34.826 1.128-68.13.563-26.472.282-8.321.282-3.937.282.265.282 5.087.282 12.524 1.41 101.945.282 10.158.282 2.987.564-2.378.282.265.282-.609.282-1.052.282.514.282 1.17.282-1.084.846-8.404.281-2.484.282-1.353.282 2.454.564 11.545.282 3.038.282.88.282.346.282 1.049.564 5.023.564 1.813.282 3.548.282 4.95.282-.766.282-10.862 1.974-115.1.564-20.197.281-1.928.282 3.65.282 6.614.282 9.3.282 14.058 1.128 76.01.564 15.222.282 3.14.564 1.678.282 1.513.282.763.282-1.612.282-2.557.282-.73.282 1.335.282.601.564-2.859.282-.593.282-1.216.281-1.826.282.59.564 8.104.282.002.282-2.227.282-.587 1.128 5.613.282-.17.282-5.221.564-23.46 1.128-65.507.846-22.49.282-3.698.282-.06.282 2.017.281 4.343.282 8.721.564 34.478.564 41.223.282 11.677.564 10.047.282 3.391.282 1.623.282-.677.846-6.939.282-1.02.282-.386.282.672.564 3.814.282.201.282-.642.564.079.282-1.198.282.013.281 4.252.564 10.581.282 1.393.282 3.295.282 6.242.282 3.315.282-5.343.564-32.218.846-57.526.846-34.703.282-8.714.282-4.033.282.057.282 2.566.282 5.43.564 22.5 1.127 67.566 1.128 21.549.282.023.282-1.39.282.92.282 1.743.282.053.282-1.04.564-.701.564-1.826.282-.338.282-.64.564-3.754.282-.11.846 5.91.282 3.673.563 12.728.282 3.126.282-.11.282-2.876.282-7.525.564-32.768 1.128-71.305.564-26.297.282-7.99.282-3.284.282.881.282 4.584.282 9.286.564 33.735 1.128 68.702.282 7.838.281-.547.282-2.428.282.907.282 2.557.282.758.282.245 1.128 8.777.564 9.671.282.033.282-2.756.282-.199.282 3.19.282 1.649.564-4.662.282 1.28.282 2.994.282 1.142.282-.343.282.62.282-.144.281-5.57.564-28.656 1.128-68.463.564-35.282.564-20.69.282-5.678.282.653.282 7.575.564 25.821.564 36.952 1.128 82.3.282 6.025.282.73.282 1.18.563 4.945.282-.303.282-2.623 1.128-16.14.282-2.367.282-.047 1.41 11.889.282.405.564-2.362.282.315.282.957.282 1.924.846 13.905.282-6.148.845-48.332 1.692-99.204.282-8.325.282-1.883.282 3.383.282 6.752.564 22.87.564 35.786.564 45.664.282 15.266.282 8.277.282 4.075.282 1.023.564-3.304.282-.158.281 1.018.282 2.172.564 8.263.282.91.282-.935.282 1.442.282 2.73.282-.936.282-4.495.282-2.038.564 4.889.282.777.282 1.63.564 4.845.282 1.145.564 5.505.282-2.69.282-9.499.564-29.404 1.41-85.613.563-24.834.282-6.483.282-.52.282 3.27.282 4.952.282 7.695.564 30.623.846 60.875.282 12.744.282 5.504.282-.05.564-5.658.282-.431.564 2.744.282.608.845 5.394.282.377.564 3.825.282-.272.282.858.282 6.34.564 14.42.282 1.264.564.644.564-1.606.282-.01.282-1.266.282-5.315.282-11.058 2.255-127.787.564-17.872.282-.62.282 5.026.282 8.796.282 12.409.564 38.577.846 57.73.282 11.354.282 4.929.282-.08.282-.369.282 2.55.564 7.951 1.128 6.802.282-.13.282-.827.281.115.282.85.282.43.282-.237.282.436.282 1.685 1.128 10.433.564 9.237.282 1.124.282-6.943.564-34.457 1.128-73.062 1.128-60.962.282-8.562.281-.262.282 5.842.564 18.894.564 32.25 1.128 72.825.282 9.93.564 8.653.282 3.438.282 1.97.282 1.063.282 1.894.564 4.754.282-.058.282.417.282 3.609.564 10.24.282 1.588.282-1.137.563-4.972.282.281.282 1.308.564-.108.282 2.79.282 4.234.282 1.33.282-3.952.282-10.819.564-43.442.564-41.478 1.41-79.41.282-4.517.282-1.08.282 2.092.282 5.477.563 18.65.564 29.217 1.128 76.517.564 17.744.564 13.42.282 3.44.846 5.765.564-4.466.282.1.846 7.107.282 1.42.282.38.282-.588.282.451 1.127 8.098.564 8.093.282-2.107.282-9.446.564-35.67 1.692-122.637.282-7.79.564-7.488.282-1.726.282.422.282 4.264.282 9.75.846 48.972.845 60.593.282 9.934.846 13.188 1.128 15.995.846 6.1.282-1.918.282-3.706.282-1.836.282 1.33.564 3.579.282 1.457.846 11.723.282.562.281 2.236.282 4.902.282 2.448.282-5.058.564-27.54.846-65.042.846-63.302.564-21.957.282-5.068.282-2.037.564.606.282 1.303.282 7.739 1.128 68.143.563 39.254.564 21.388.282 6.44.282 2.37.282.235.282 3.937.564 14.574.282.702.282-.233.564 6.827.282.423.282-2.123.282-.692 1.128 7.112.282 4.104.564 13.44.282 3.817.282-1.064.282-7.566.563-33.47.846-73.487.564-50.685.282-17.463.282-9.998.564-7.67.282-2.11.282 1.495.564 12.752.282 8.341.282 13.201 1.41 86.099.564 25 .563 13.82.564 7.45.282 3.27.282 1.972.282-2.115.282-3.976.282-1.214.846 7.954.282 3.587.846 14.804.282 1.207.282.023.282.764.564 5.71.282.54.282-4.89.282-11.77.564-41.241.845-84.26.564-49.408.282-9.804.282-4.703.282-2.681.282 1.118.846 17.064.282 7.848.846 37.737 1.692 94.084.282 5.805.564 6.265.563 6.654.282 3.539.564 8.328.282-.405.282-1.335.282-.04.282.273.282-.583.282.076.564 2.628.282.009.282.556.282 3.149.564 9.115.282-.406.282-5.977.282-11.679.564-38.006 1.691-127.766.282-5.74.282-1.602.282-.577.282.58.282 4.016 1.41 47.22 1.974 96.177.564 11.63.564 14.095.282 2.347.563.867.282.858 1.128 7.224 1.41 13.846.846 6.777.282-2.402.282-11.335.564-38.35.564-51.22.564-54.695.564-31.557.563-14.58.282-4.77.282-2.879.282 1.096.282 5.259.846 26.87.564 28.76.564 29.727.564 27.99.564 35.183.564 16.616.564 10.309.846 5.403 1.41 9.56.563 3.098.846 7.325.846 10.535.282-2.212.282-9.842.564-44.112 1.41-141.856.282-12.27.846-13.575.282.002.563 11.155.282 7.23.564 24.847 1.692 85.267.846 37.194.564 11.427.564 8.27.564 3.334.282 4.347.564 11.416.282 1 .282-.017.563 2.137.282-.255.282-.93.282.57.282 3.381.564 9.64.282-.257.282-6.511.282-14.248.564-52.954 1.128-121.518.282-11.496.564-9.981.282-3.087.282 1.641.564 10.645.564 18.722 1.691 75.1.846 37.528 1.128 39.852.282 3.084.282 1.778.564 1.85.564 3.21.282 1.895.846 10.798.282.582.282 1.423.845 8.344.564 10.443.282-1.226.282-10.883.564-42.36 1.41-140.352.564-18.02.282-6.539.282-3.372.282-.007.564.602.282 5.036.564 23.33.845 42.417 1.128 52.537.846 30.69.846 26.832.282 4.04.282 1.472.282 2.616.564 6.705.282 1.366 1.128 7.886.564 6.69.564 3.42.563 8.132.282-1.008.282-9.353.564-41.51.564-60.833.564-69.787.282-19.878.846-25.055.282-.833.846 14.7.282 8.807 2.255 94.434 1.974 74.033.282 1.478.282-1.253.282 1.651.846 12.95.564 4.262.564 3.022.564 3.151.282.876.564 3.761.282-3.362.282-14.652 1.973-169.266.282-4.74.564-16.481.282-3.086.564 5.104.282 5.793 1.128 44.433.846 32.77 1.41 61.67.563 19.356.564 4.477.564 9.342.564 2.972.282-.09.282-2.91.564-7.536.564-7.039.282-.595.282 2.456.564 3.008.282 6.52.282 10.193.282 3.778.282-7.818.564-34.739.563-56.376.564-52.417.282-12.775.564-12.692.282-1.425.282 1.094.564 4.79.282 6.111 1.41 47.087.564 18.012.564 10.301.282 5.28.282 8.428.846 32.01.282 7.634.845 30.417.564 4.045.564 5.855.282 1.792.564 6.372.282.908.282.326.282 1.517.282-.075.282-1.87.282-.714.282.291.282-5.356.282-13.721.564-43.751.846-87.117.563-31.739.564-14.863.564-10.627.282 1.09.846 17.1 3.666 142.835.564 11.818.563 15.73.564 7.783.846 9.08.282 2.043.282.058.564-3.043.282.935.846 6.726.282-2.675.282-11.7.564-41.903 1.128-117.53.564-12.713.282-5.889.282-3.24.281 1.621.282 2.597.564 1.56.282 5.765.846 31.015.282 7.614 1.128 43.608.282 4.706.846 18.685.282 5.49.846 24.932.564 12.254.564 12.15 1.41 19.444.563 11.75.282 2.404.282 4.135.282 6.68.282.823.282-10.714.282-22.779.564-72.72.564-70.264.564-32.048.282-6.754.282-.22.282 3.862.282 2.157.282.831.282 1.242.563 7.437.564 12.487.564 20.195.564 20.129 1.128 28.936.564 13.998.564 17.074.564 9.876 1.41 19.272.846 20.185.281 2.358.564 7.147.282-.613.282 1.272.564 13.74.282-3.773.282-12.93.564-48.115.846-97.505.564-24.257.282-3.018.282-1.063.282-.013.282-.236.564 4.563.282 2.161.282 3.154 1.127 32.114.564 20.15.282 5.813.282 1.87.564 12.376 1.128 33.74.282 7.36.282 2.894.846 26.513.282 2.195.846 23.744.282-.5.282 6.795.282-4.013.281 11.962h0" clip-path="url(#p92fafaa0d7)" style="fill:none;stroke:#1f77b4;stroke-width:1.5;stroke-linecap:square"/><path id="patch_3" d="M71.308 266.112V0" style="fill:none;stroke:gray;stroke-width:.8;stroke-linejoin:miter;stroke-linecap:square"/><path id="patch_4" d="M685.107 266.112V0" style="fill:none;stroke:#000;stroke-width:.8;stroke-linejoin:miter;stroke-linecap:square"/><path id="patch_5" d="M71.308 266.112h613.8" style="fill:none;stroke:gray;stroke-width:.8;stroke-linejoin:miter;stroke-linecap:square"/><path id="patch_6" d="M71.308 0h613.8" style="fill:none;stroke:#000;stroke-width:.8;stroke-linejoin:miter;stroke-linecap:square"/></g></g><defs><clipPath id="p92fafaa0d7"><path d="M71.308 0h613.8v266.112h-613.8z"/></clipPath></defs></svg>