<?xml version="1.0" encoding="utf-8" standalone="no"?>
<!DOCTYPE svg PUBLIC "-//W3C//DTD SVG 1.1//EN"
  "http://www.w3.org/Graphics/SVG/1.1/DTD/svg11.dtd">
<svg xmlns:xlink="http://www.w3.org/1999/xlink" width="660.992188pt" height="282.790125pt" viewBox="0 0 660.992188 282.790125" xmlns="http://www.w3.org/2000/svg" version="1.1">
 <metadata>
  <rdf:RDF xmlns:dc="http://purl.org/dc/elements/1.1/" xmlns:cc="http://creativecommons.org/ns#" xmlns:rdf="http://www.w3.org/1999/02/22-rdf-syntax-ns#">
   <cc:Work>
    <dc:type rdf:resource="http://purl.org/dc/dcmitype/StillImage"/>
    <dc:date>2023-03-06T19:30:33.387285</dc:date>
    <dc:format>image/svg+xml</dc:format>
    <dc:creator>
     <cc:Agent>
      <dc:title>Matplotlib v3.6.3, https://matplotlib.org/</dc:title>
     </cc:Agent>
    </dc:creator>
   </cc:Work>
  </rdf:RDF>
 </metadata>
 <defs>
  <style type="text/css">*{stroke-linejoin: round; stroke-linecap: butt}</style>
 </defs>
 <g id="figure_1">
  <g id="patch_1">
   <path d="M -0 282.790125 
L 660.992188 282.790125 
L 660.992188 0 
L -0 0 
L -0 282.790125 
z
" style="fill: none"/>
  </g>
  <g id="axes_1">
   <g id="patch_2">
    <path d="M 47.192188 266.112 
L 660.992188 266.112 
L 660.992188 0 
L 47.192188 0 
L 47.192188 266.112 
z
" style="fill: none"/>
   </g>
   <g id="matplotlib.axis_1">
    <g id="xtick_1">
     <g id="line2d_1">
      <defs>
       <path id="m2eb40e14a1" d="M 0 0 
L 0 3.5 
" style="stroke: #000000; stroke-width: 0.8"/>
      </defs>
      <g>
       <use xlink:href="#m2eb40e14a1" x="75.092188" y="266.112" style="stroke: #000000; stroke-width: 0.8"/>
      </g>
     </g>
     <g id="text_1">
      <!-- 0 -->
      <g transform="translate(71.910938 280.710438) scale(0.1 -0.1)">
       <defs>
        <path id="DejaVuSans-30" d="M 2034 4250 
Q 1547 4250 1301 3770 
Q 1056 3291 1056 2328 
Q 1056 1369 1301 889 
Q 1547 409 2034 409 
Q 2525 409 2770 889 
Q 3016 1369 3016 2328 
Q 3016 3291 2770 3770 
Q 2525 4250 2034 4250 
z
M 2034 4750 
Q 2819 4750 3233 4129 
Q 3647 3509 3647 2328 
Q 3647 1150 3233 529 
Q 2819 -91 2034 -91 
Q 1250 -91 836 529 
Q 422 1150 422 2328 
Q 422 3509 836 4129 
Q 1250 4750 2034 4750 
z
" transform="scale(0.015625)"/>
       </defs>
       <use xlink:href="#DejaVuSans-30"/>
      </g>
     </g>
    </g>
    <g id="xtick_2">
     <g id="line2d_2">
      <g>
       <use xlink:href="#m2eb40e14a1" x="144.842188" y="266.112" style="stroke: #000000; stroke-width: 0.8"/>
      </g>
     </g>
     <g id="text_2">
      <!-- 500 -->
      <g transform="translate(135.298438 280.710438) scale(0.1 -0.1)">
       <defs>
        <path id="DejaVuSans-35" d="M 691 4666 
L 3169 4666 
L 3169 4134 
L 1269 4134 
L 1269 2991 
Q 1406 3038 1543 3061 
Q 1681 3084 1819 3084 
Q 2600 3084 3056 2656 
Q 3513 2228 3513 1497 
Q 3513 744 3044 326 
Q 2575 -91 1722 -91 
Q 1428 -91 1123 -41 
Q 819 9 494 109 
L 494 744 
Q 775 591 1075 516 
Q 1375 441 1709 441 
Q 2250 441 2565 725 
Q 2881 1009 2881 1497 
Q 2881 1984 2565 2268 
Q 2250 2553 1709 2553 
Q 1456 2553 1204 2497 
Q 953 2441 691 2322 
L 691 4666 
z
" transform="scale(0.015625)"/>
       </defs>
       <use xlink:href="#DejaVuSans-35"/>
       <use xlink:href="#DejaVuSans-30" x="63.623047"/>
       <use xlink:href="#DejaVuSans-30" x="127.246094"/>
      </g>
     </g>
    </g>
    <g id="xtick_3">
     <g id="line2d_3">
      <g>
       <use xlink:href="#m2eb40e14a1" x="214.592188" y="266.112" style="stroke: #000000; stroke-width: 0.8"/>
      </g>
     </g>
     <g id="text_3">
      <!-- 1000 -->
      <g transform="translate(201.867188 280.710438) scale(0.1 -0.1)">
       <defs>
        <path id="DejaVuSans-31" d="M 794 531 
L 1825 531 
L 1825 4091 
L 703 3866 
L 703 4441 
L 1819 4666 
L 2450 4666 
L 2450 531 
L 3481 531 
L 3481 0 
L 794 0 
L 794 531 
z
" transform="scale(0.015625)"/>
       </defs>
       <use xlink:href="#DejaVuSans-31"/>
       <use xlink:href="#DejaVuSans-30" x="63.623047"/>
       <use xlink:href="#DejaVuSans-30" x="127.246094"/>
       <use xlink:href="#DejaVuSans-30" x="190.869141"/>
      </g>
     </g>
    </g>
    <g id="xtick_4">
     <g id="line2d_4">
      <g>
       <use xlink:href="#m2eb40e14a1" x="284.342188" y="266.112" style="stroke: #000000; stroke-width: 0.8"/>
      </g>
     </g>
     <g id="text_4">
      <!-- 1500 -->
      <g transform="translate(271.617188 280.710438) scale(0.1 -0.1)">
       <use xlink:href="#DejaVuSans-31"/>
       <use xlink:href="#DejaVuSans-35" x="63.623047"/>
       <use xlink:href="#DejaVuSans-30" x="127.246094"/>
       <use xlink:href="#DejaVuSans-30" x="190.869141"/>
      </g>
     </g>
    </g>
    <g id="xtick_5">
     <g id="line2d_5">
      <g>
       <use xlink:href="#m2eb40e14a1" x="354.092188" y="266.112" style="stroke: #000000; stroke-width: 0.8"/>
      </g>
     </g>
     <g id="text_5">
      <!-- 2000 -->
      <g transform="translate(341.367188 280.710438) scale(0.1 -0.1)">
       <defs>
        <path id="DejaVuSans-32" d="M 1228 531 
L 3431 531 
L 3431 0 
L 469 0 
L 469 531 
Q 828 903 1448 1529 
Q 2069 2156 2228 2338 
Q 2531 2678 2651 2914 
Q 2772 3150 2772 3378 
Q 2772 3750 2511 3984 
Q 2250 4219 1831 4219 
Q 1534 4219 1204 4116 
Q 875 4013 500 3803 
L 500 4441 
Q 881 4594 1212 4672 
Q 1544 4750 1819 4750 
Q 2544 4750 2975 4387 
Q 3406 4025 3406 3419 
Q 3406 3131 3298 2873 
Q 3191 2616 2906 2266 
Q 2828 2175 2409 1742 
Q 1991 1309 1228 531 
z
" transform="scale(0.015625)"/>
       </defs>
       <use xlink:href="#DejaVuSans-32"/>
       <use xlink:href="#DejaVuSans-30" x="63.623047"/>
       <use xlink:href="#DejaVuSans-30" x="127.246094"/>
       <use xlink:href="#DejaVuSans-30" x="190.869141"/>
      </g>
     </g>
    </g>
    <g id="xtick_6">
     <g id="line2d_6">
      <g>
       <use xlink:href="#m2eb40e14a1" x="423.842188" y="266.112" style="stroke: #000000; stroke-width: 0.8"/>
      </g>
     </g>
     <g id="text_6">
      <!-- 2500 -->
      <g transform="translate(411.117188 280.710438) scale(0.1 -0.1)">
       <use xlink:href="#DejaVuSans-32"/>
       <use xlink:href="#DejaVuSans-35" x="63.623047"/>
       <use xlink:href="#DejaVuSans-30" x="127.246094"/>
       <use xlink:href="#DejaVuSans-30" x="190.869141"/>
      </g>
     </g>
    </g>
    <g id="xtick_7">
     <g id="line2d_7">
      <g>
       <use xlink:href="#m2eb40e14a1" x="493.592188" y="266.112" style="stroke: #000000; stroke-width: 0.8"/>
      </g>
     </g>
     <g id="text_7">
      <!-- 3000 -->
      <g transform="translate(480.867188 280.710438) scale(0.1 -0.1)">
       <defs>
        <path id="DejaVuSans-33" d="M 2597 2516 
Q 3050 2419 3304 2112 
Q 3559 1806 3559 1356 
Q 3559 666 3084 287 
Q 2609 -91 1734 -91 
Q 1441 -91 1130 -33 
Q 819 25 488 141 
L 488 750 
Q 750 597 1062 519 
Q 1375 441 1716 441 
Q 2309 441 2620 675 
Q 2931 909 2931 1356 
Q 2931 1769 2642 2001 
Q 2353 2234 1838 2234 
L 1294 2234 
L 1294 2753 
L 1863 2753 
Q 2328 2753 2575 2939 
Q 2822 3125 2822 3475 
Q 2822 3834 2567 4026 
Q 2313 4219 1838 4219 
Q 1578 4219 1281 4162 
Q 984 4106 628 3988 
L 628 4550 
Q 988 4650 1302 4700 
Q 1616 4750 1894 4750 
Q 2613 4750 3031 4423 
Q 3450 4097 3450 3541 
Q 3450 3153 3228 2886 
Q 3006 2619 2597 2516 
z
" transform="scale(0.015625)"/>
       </defs>
       <use xlink:href="#DejaVuSans-33"/>
       <use xlink:href="#DejaVuSans-30" x="63.623047"/>
       <use xlink:href="#DejaVuSans-30" x="127.246094"/>
       <use xlink:href="#DejaVuSans-30" x="190.869141"/>
      </g>
     </g>
    </g>
    <g id="xtick_8">
     <g id="line2d_8">
      <g>
       <use xlink:href="#m2eb40e14a1" x="563.342188" y="266.112" style="stroke: #000000; stroke-width: 0.8"/>
      </g>
     </g>
     <g id="text_8">
      <!-- 3500 -->
      <g transform="translate(550.617188 280.710438) scale(0.1 -0.1)">
       <use xlink:href="#DejaVuSans-33"/>
       <use xlink:href="#DejaVuSans-35" x="63.623047"/>
       <use xlink:href="#DejaVuSans-30" x="127.246094"/>
       <use xlink:href="#DejaVuSans-30" x="190.869141"/>
      </g>
     </g>
    </g>
    <g id="xtick_9">
     <g id="line2d_9">
      <g>
       <use xlink:href="#m2eb40e14a1" x="633.092188" y="266.112" style="stroke: #000000; stroke-width: 0.8"/>
      </g>
     </g>
     <g id="text_9">
      <!-- 4000 -->
      <g transform="translate(620.367188 280.710438) scale(0.1 -0.1)">
       <defs>
        <path id="DejaVuSans-34" d="M 2419 4116 
L 825 1625 
L 2419 1625 
L 2419 4116 
z
M 2253 4666 
L 3047 4666 
L 3047 1625 
L 3713 1625 
L 3713 1100 
L 3047 1100 
L 3047 0 
L 2419 0 
L 2419 1100 
L 313 1100 
L 313 1709 
L 2253 4666 
z
" transform="scale(0.015625)"/>
       </defs>
       <use xlink:href="#DejaVuSans-34"/>
       <use xlink:href="#DejaVuSans-30" x="63.623047"/>
       <use xlink:href="#DejaVuSans-30" x="127.246094"/>
       <use xlink:href="#DejaVuSans-30" x="190.869141"/>
      </g>
     </g>
    </g>
   </g>
   <g id="matplotlib.axis_2">
    <g id="ytick_1">
     <g id="line2d_10">
      <defs>
       <path id="m8d5012d694" d="M 0 0 
L -3.5 0 
" style="stroke: #000000; stroke-width: 0.8"/>
      </defs>
      <g>
       <use xlink:href="#m8d5012d694" x="47.192188" y="238.565913" style="stroke: #000000; stroke-width: 0.8"/>
      </g>
     </g>
     <g id="text_10">
      <!-- −10000 -->
      <g transform="translate(0 242.365132) scale(0.1 -0.1)">
       <defs>
        <path id="DejaVuSans-2212" d="M 678 2272 
L 4684 2272 
L 4684 1741 
L 678 1741 
L 678 2272 
z
" transform="scale(0.015625)"/>
       </defs>
       <use xlink:href="#DejaVuSans-2212"/>
       <use xlink:href="#DejaVuSans-31" x="83.789062"/>
       <use xlink:href="#DejaVuSans-30" x="147.412109"/>
       <use xlink:href="#DejaVuSans-30" x="211.035156"/>
       <use xlink:href="#DejaVuSans-30" x="274.658203"/>
       <use xlink:href="#DejaVuSans-30" x="338.28125"/>
      </g>
     </g>
    </g>
    <g id="ytick_2">
     <g id="line2d_11">
      <g>
       <use xlink:href="#m8d5012d694" x="47.192188" y="194.969982" style="stroke: #000000; stroke-width: 0.8"/>
      </g>
     </g>
     <g id="text_11">
      <!-- −5000 -->
      <g transform="translate(6.3625 198.7692) scale(0.1 -0.1)">
       <use xlink:href="#DejaVuSans-2212"/>
       <use xlink:href="#DejaVuSans-35" x="83.789062"/>
       <use xlink:href="#DejaVuSans-30" x="147.412109"/>
       <use xlink:href="#DejaVuSans-30" x="211.035156"/>
       <use xlink:href="#DejaVuSans-30" x="274.658203"/>
      </g>
     </g>
    </g>
    <g id="ytick_3">
     <g id="line2d_12">
      <g>
       <use xlink:href="#m8d5012d694" x="47.192188" y="151.37405" style="stroke: #000000; stroke-width: 0.8"/>
      </g>
     </g>
     <g id="text_12">
      <!-- 0 -->
      <g transform="translate(33.829688 155.173269) scale(0.1 -0.1)">
       <use xlink:href="#DejaVuSans-30"/>
      </g>
     </g>
    </g>
    <g id="ytick_4">
     <g id="line2d_13">
      <g>
       <use xlink:href="#m8d5012d694" x="47.192188" y="107.778118" style="stroke: #000000; stroke-width: 0.8"/>
      </g>
     </g>
     <g id="text_13">
      <!-- 5000 -->
      <g transform="translate(14.742188 111.577337) scale(0.1 -0.1)">
       <use xlink:href="#DejaVuSans-35"/>
       <use xlink:href="#DejaVuSans-30" x="63.623047"/>
       <use xlink:href="#DejaVuSans-30" x="127.246094"/>
       <use xlink:href="#DejaVuSans-30" x="190.869141"/>
      </g>
     </g>
    </g>
    <g id="ytick_5">
     <g id="line2d_14">
      <g>
       <use xlink:href="#m8d5012d694" x="47.192188" y="64.182186" style="stroke: #000000; stroke-width: 0.8"/>
      </g>
     </g>
     <g id="text_14">
      <!-- 10000 -->
      <g transform="translate(8.379688 67.981405) scale(0.1 -0.1)">
       <use xlink:href="#DejaVuSans-31"/>
       <use xlink:href="#DejaVuSans-30" x="63.623047"/>
       <use xlink:href="#DejaVuSans-30" x="127.246094"/>
       <use xlink:href="#DejaVuSans-30" x="190.869141"/>
       <use xlink:href="#DejaVuSans-30" x="254.492188"/>
      </g>
     </g>
    </g>
    <g id="ytick_6">
     <g id="line2d_15">
      <g>
       <use xlink:href="#m8d5012d694" x="47.192188" y="20.586254" style="stroke: #000000; stroke-width: 0.8"/>
      </g>
     </g>
     <g id="text_15">
      <!-- 15000 -->
      <g transform="translate(8.379688 24.385473) scale(0.1 -0.1)">
       <use xlink:href="#DejaVuSans-31"/>
       <use xlink:href="#DejaVuSans-35" x="63.623047"/>
       <use xlink:href="#DejaVuSans-30" x="127.246094"/>
       <use xlink:href="#DejaVuSans-30" x="190.869141"/>
       <use xlink:href="#DejaVuSans-30" x="254.492188"/>
      </g>
     </g>
    </g>
   </g>
   <g id="line2d_16">
    <path d="M 75.092188 151.462181 
L 75.374148 151.284948 
L 75.656109 151.464285 
L 75.938069 151.282524 
L 76.22003 151.467021 
L 76.50199 151.279476 
L 76.783951 151.470383 
L 77.065912 151.275796 
L 77.347872 151.474392 
L 77.629833 151.271444 
L 77.911793 151.479102 
L 78.193754 151.266354 
L 78.475715 151.484597 
L 78.757675 151.260425 
L 79.039636 151.490995 
L 79.321596 151.253518 
L 79.603557 151.498458 
L 79.885517 151.245445 
L 80.167478 151.507205 
L 80.449439 151.23595 
L 80.731399 151.517534 
L 81.01336 151.224684 
L 81.29532 151.529859 
L 81.577281 151.211157 
L 81.859242 151.54476 
L 82.141202 151.194673 
L 82.423163 151.563081 
L 82.705123 151.174202 
L 82.987084 151.586093 
L 83.269044 151.14816 
L 83.551005 151.615792 
L 83.832966 151.113989 
L 84.114926 151.655511 
L 84.396887 151.067266 
L 84.678847 151.71125 
L 84.960808 150.999643 
L 85.242769 151.79499 
L 85.524729 150.893272 
L 85.80669 151.93457 
L 86.08865 150.702087 
L 86.370611 152.212441 
L 86.652572 150.261246 
L 86.934532 153.019745 
L 87.216493 148.294323 
L 87.780414 194.430492 
L 88.062374 195.218029 
L 88.344335 201.498165 
L 88.626296 201.75865 
L 88.908256 201.384463 
L 89.190217 196.210715 
L 89.472177 194.255762 
L 89.754138 187.781949 
L 90.88198 145.774948 
L 92.009823 85.674204 
L 92.291783 81.293843 
L 92.573744 85.995608 
L 93.983547 143.261314 
L 94.547468 156.980309 
L 95.67531 198.418197 
L 95.957271 202.686949 
L 96.803153 178.022458 
L 97.085113 174.652958 
L 97.649034 163.475178 
L 97.930995 163.038435 
L 98.212956 165.394918 
L 98.494916 169.248635 
L 98.776877 171.090848 
L 99.058837 171.384235 
L 99.340798 169.666484 
L 99.622758 162.362676 
L 99.904719 149.86499 
L 100.18668 143.630766 
L 100.750601 148.916649 
L 101.032561 147.247904 
L 101.314522 146.706579 
L 101.596483 147.416021 
L 101.878443 149.21816 
L 102.442364 156.337215 
L 103.006286 151.712954 
L 103.288246 151.201733 
L 103.570207 150.360008 
L 103.852167 152.565897 
L 104.134128 159.070943 
L 104.416088 158.769634 
L 104.698049 152.227152 
L 104.98001 152.004705 
L 105.26197 156.852839 
L 105.543931 156.722714 
L 105.825891 158.238445 
L 106.389813 173.078888 
L 106.671773 176.683227 
L 106.953734 183.69209 
L 107.235694 185.967737 
L 107.517655 174.956244 
L 108.363537 122.330385 
L 108.645497 111.505148 
L 109.491379 94.332628 
L 109.77334 94.09418 
L 110.0553 96.805816 
L 110.337261 103.267478 
L 110.619221 112.782112 
L 110.901182 117.814208 
L 111.183143 118.153995 
L 111.465103 126.047149 
L 111.747064 140.176117 
L 112.029024 147.438398 
L 112.310985 148.946049 
L 112.874906 158.761143 
L 113.438827 147.606244 
L 114.002748 152.780679 
L 114.284709 150.974171 
L 114.56667 151.905569 
L 115.130591 164.798782 
L 115.412551 168.00437 
L 115.694512 169.700096 
L 115.976472 170.669277 
L 116.258433 172.427419 
L 116.822354 183.741466 
L 117.104315 183.228854 
L 117.668236 172.264028 
L 117.950197 173.852972 
L 118.232157 173.731362 
L 118.796078 160.779419 
L 119.078039 161.200046 
L 119.36 163.892842 
L 119.64196 164.010606 
L 119.923921 162.915392 
L 120.487842 159.684103 
L 120.769802 159.787608 
L 121.051763 161.163142 
L 121.333724 160.777142 
L 121.615684 158.348303 
L 122.179605 152.038938 
L 122.461566 151.84241 
L 122.743527 153.794025 
L 123.307448 156.24202 
L 124.153329 168.127496 
L 124.43529 168.166789 
L 124.717251 163.760027 
L 125.281172 140.621715 
L 126.127054 107.43103 
L 126.409014 98.444862 
L 126.690975 95.106619 
L 126.972935 95.424794 
L 127.254896 97.034014 
L 128.100778 108.147309 
L 128.382738 112.747436 
L 129.22862 135.858829 
L 130.074502 152.440921 
L 130.356462 155.210596 
L 131.202344 166.47805 
L 131.484305 165.967699 
L 131.766265 164.427864 
L 132.048226 165.577404 
L 132.330186 168.155849 
L 132.612147 166.784002 
L 132.894108 163.842471 
L 133.176068 165.329339 
L 133.458029 168.230412 
L 134.02195 163.921184 
L 134.303911 165.673102 
L 134.585871 165.910324 
L 135.431753 145.610577 
L 135.713714 144.996439 
L 135.995674 145.187206 
L 136.277635 143.065123 
L 136.559595 139.822781 
L 136.841556 139.513284 
L 137.123516 140.84173 
L 137.405477 140.502587 
L 137.687438 140.997937 
L 138.533319 156.862446 
L 138.81528 156.868726 
L 139.097241 159.108427 
L 139.379201 162.546721 
L 139.943122 166.615178 
L 140.507043 173.903968 
L 140.789004 174.689416 
L 141.352925 176.820083 
L 141.634886 176.199705 
L 141.916846 177.022194 
L 142.198807 176.378468 
L 142.480768 167.017173 
L 143.044689 140.05093 
L 143.60861 123.558561 
L 144.172531 106.911579 
L 144.736452 95.720933 
L 145.018413 89.441433 
L 145.300373 87.896021 
L 145.582334 92.872732 
L 146.146255 113.744583 
L 146.992137 151.672045 
L 147.556058 162.266429 
L 147.838019 163.836836 
L 148.119979 163.491568 
L 148.40194 164.126146 
L 148.6839 165.709099 
L 148.965861 164.978997 
L 149.529782 160.442445 
L 149.811743 160.644437 
L 150.093703 159.799968 
L 150.657625 152.232009 
L 150.939585 152.370447 
L 151.221546 155.330503 
L 151.503506 156.489479 
L 151.785467 155.279757 
L 152.067428 155.523797 
L 152.631349 161.34517 
L 152.913309 160.828013 
L 154.041152 142.638804 
L 154.323112 139.818745 
L 154.605073 139.659802 
L 154.887033 140.682042 
L 155.168994 139.98177 
L 155.450955 141.471561 
L 156.014876 152.493168 
L 156.296836 154.542952 
L 156.578797 155.770389 
L 156.860757 155.57007 
L 157.142718 156.741487 
L 157.9886 180.963448 
L 158.27056 178.778404 
L 158.834482 186.623874 
L 159.116442 181.303955 
L 159.962324 157.703412 
L 160.526245 127.018209 
L 161.090166 109.620428 
L 161.654087 88.525596 
L 161.936048 83.509237 
L 162.218009 81.146113 
L 162.499969 82.146271 
L 163.06389 92.52793 
L 163.345851 100.892052 
L 163.909772 127.196268 
L 164.473693 156.327343 
L 164.755654 165.229933 
L 165.319575 173.035572 
L 165.601536 175.890267 
L 165.883496 174.244638 
L 166.165457 169.785015 
L 166.447417 167.104563 
L 167.011339 163.508233 
L 167.293299 164.13776 
L 167.57526 166.837383 
L 167.85722 167.21684 
L 168.139181 165.722602 
L 168.421142 165.173383 
L 168.985063 163.112763 
L 169.267023 163.27997 
L 169.548984 162.302849 
L 170.112905 154.955733 
L 170.394866 155.536267 
L 170.958787 159.811641 
L 171.240747 159.053389 
L 171.522708 155.927053 
L 171.804669 155.096638 
L 172.36859 162.139463 
L 172.65055 161.472461 
L 172.932511 162.493062 
L 173.214471 172.913817 
L 173.496432 189.198187 
L 173.778393 198.176344 
L 174.060353 198.011203 
L 174.342314 201.490098 
L 174.624274 210.618493 
L 174.906235 211.638315 
L 175.188196 204.50878 
L 175.470156 202.389049 
L 175.752117 202.670429 
L 176.316038 183.270759 
L 176.597999 174.715765 
L 176.879959 159.878269 
L 177.725841 98.399261 
L 178.289762 62.167067 
L 178.853683 52.052057 
L 179.135644 46.656739 
L 179.417604 44.251204 
L 179.699565 46.559061 
L 179.981526 51.683962 
L 180.263486 60.875344 
L 181.109368 106.013985 
L 181.95525 167.137875 
L 182.23721 172.619918 
L 182.801131 177.927122 
L 183.083092 178.350948 
L 183.647013 173.99198 
L 184.210934 168.685674 
L 184.492895 169.81066 
L 184.774856 170.100801 
L 185.056816 167.372501 
L 185.338777 167.230069 
L 185.620737 170.812554 
L 185.902698 171.131924 
L 186.466619 162.014208 
L 187.312501 158.927946 
L 187.594461 159.398539 
L 187.876422 159.346314 
L 188.158383 157.546497 
L 188.440343 157.845225 
L 189.004264 164.014044 
L 189.286225 164.163063 
L 189.568185 164.586272 
L 189.850146 166.187475 
L 190.132107 169.89019 
L 190.414067 176.182389 
L 190.696028 179.127546 
L 191.259949 171.078244 
L 191.54191 172.878736 
L 191.82387 175.877096 
L 192.105831 176.962712 
L 192.387791 178.623778 
L 192.951713 183.591618 
L 193.515634 187.160591 
L 194.079555 193.444035 
L 194.361515 191.073484 
L 194.925437 162.375156 
L 196.33524 82.674783 
L 196.6172 73.961355 
L 196.899161 69.134055 
L 197.181121 69.335082 
L 197.463082 70.53031 
L 197.745042 72.75856 
L 198.027003 81.301509 
L 198.872885 122.054757 
L 199.436806 144.149458 
L 200.000727 156.009384 
L 200.282688 158.49554 
L 200.846609 157.969789 
L 201.12857 158.9728 
L 201.41053 158.990491 
L 201.692491 158.495142 
L 201.974451 160.064235 
L 202.820333 168.771495 
L 203.384254 170.887746 
L 203.666215 174.354644 
L 204.230136 186.70797 
L 204.512097 189.432407 
L 204.794057 186.138181 
L 205.076018 180.043288 
L 205.357978 177.017891 
L 205.639939 176.958322 
L 205.921899 177.664851 
L 206.485821 184.0874 
L 206.767781 181.845046 
L 207.049742 177.846857 
L 207.331702 177.069571 
L 207.613663 174.694664 
L 208.177584 161.894583 
L 208.741505 155.005222 
L 209.023466 155.451742 
L 209.305427 157.821483 
L 210.151308 160.057206 
L 210.433269 156.98953 
L 210.715229 150.986677 
L 211.279151 145.759046 
L 211.561111 138.194846 
L 212.125032 119.006986 
L 212.688954 108.379501 
L 213.252875 90.078719 
L 213.816796 70.508833 
L 214.098756 70.744347 
L 214.662678 76.142563 
L 214.944638 85.470001 
L 215.79052 136.76736 
L 216.636402 168.472535 
L 216.918362 173.1006 
L 217.200323 172.508768 
L 217.482284 169.537373 
L 217.764244 168.513511 
L 218.328165 170.062265 
L 219.174047 171.696504 
L 219.456008 171.294497 
L 220.019929 169.373662 
L 220.301889 169.585924 
L 220.58385 168.337628 
L 220.865811 165.84766 
L 221.147771 167.173408 
L 221.429732 172.02608 
L 221.711692 174.45745 
L 221.993653 175.640044 
L 222.275613 178.696827 
L 222.557574 177.980674 
L 223.121495 164.429022 
L 223.403456 164.903985 
L 223.685416 166.206616 
L 223.967377 165.441513 
L 224.249338 167.731389 
L 224.813259 184.08193 
L 225.095219 186.137562 
L 225.37718 184.602288 
L 225.659141 187.101181 
L 225.941101 192.538347 
L 226.223062 193.466708 
L 226.505022 190.814554 
L 226.786983 190.63751 
L 227.068943 192.880196 
L 227.350904 194.184607 
L 227.632865 193.00305 
L 227.914825 187.139921 
L 228.478746 164.29257 
L 229.042668 131.122706 
L 229.606589 99.442017 
L 230.734431 50.361823 
L 231.016392 48.945929 
L 231.298352 54.63959 
L 231.862273 72.3199 
L 232.144234 86.155412 
L 232.708155 124.684996 
L 233.554037 150.711145 
L 234.117958 158.946061 
L 234.681879 173.488689 
L 234.96384 174.202991 
L 235.527761 177.511965 
L 235.809722 173.111632 
L 236.091682 166.20328 
L 236.373643 163.167875 
L 236.937564 159.983089 
L 237.501485 162.113618 
L 238.065406 155.648059 
L 238.629327 164.149547 
L 239.193249 160.22448 
L 239.75717 163.978218 
L 240.03913 163.412867 
L 240.321091 161.97476 
L 240.885012 154.249822 
L 241.166973 154.489588 
L 241.448933 157.030131 
L 241.730894 154.366057 
L 242.012855 148.621327 
L 242.294815 147.063375 
L 242.858736 149.221878 
L 243.140697 153.098662 
L 243.704618 165.280398 
L 244.268539 170.581879 
L 245.114421 183.476242 
L 245.396382 184.512294 
L 245.678342 187.611466 
L 246.242263 196.993421 
L 246.524224 198.708608 
L 247.088145 205.596815 
L 247.370106 206.49766 
L 247.652066 202.070173 
L 247.934027 190.327004 
L 249.34383 101.103804 
L 249.907751 87.749819 
L 250.189712 78.979768 
L 250.471672 73.987885 
L 250.753633 73.303698 
L 251.035593 76.131065 
L 252.163436 114.151829 
L 252.727357 145.446935 
L 253.009317 144.399125 
L 253.291278 139.875683 
L 253.855199 145.243221 
L 254.13716 140.687516 
L 254.41912 138.349844 
L 255.265002 153.924607 
L 255.546963 152.5269 
L 256.674805 143.991461 
L 256.956766 143.71924 
L 257.802647 152.17446 
L 258.366569 157.98723 
L 258.648529 158.922332 
L 259.21245 164.456047 
L 259.494411 164.788191 
L 259.776371 165.590516 
L 260.058332 168.767026 
L 260.340293 170.349271 
L 260.622253 170.720597 
L 261.186174 178.006305 
L 261.468135 176.798573 
L 261.750096 176.642455 
L 262.314017 185.613027 
L 262.877938 180.860084 
L 263.159898 182.672673 
L 264.287741 199.040551 
L 264.851662 205.600156 
L 265.133623 206.75373 
L 265.415583 205.968972 
L 265.697544 201.377406 
L 265.979504 190.046837 
L 266.825386 136.491398 
L 267.389307 88.58492 
L 268.235189 52.540462 
L 268.51715 44.656036 
L 268.79911 49.469969 
L 269.363031 68.540824 
L 269.644992 77.283489 
L 270.208913 105.119519 
L 271.336755 173.506317 
L 271.900677 182.210168 
L 272.182637 180.849458 
L 272.746558 168.984366 
L 273.028519 166.535104 
L 273.31048 166.506981 
L 273.59244 165.85401 
L 273.874401 164.592542 
L 274.156361 164.981392 
L 274.438322 164.546708 
L 275.002243 156.674771 
L 275.566164 162.041081 
L 275.848125 159.029248 
L 276.130085 157.781265 
L 276.694007 165.04858 
L 276.975967 165.296277 
L 277.257928 164.907485 
L 277.539888 164.983457 
L 277.821849 166.666465 
L 278.10381 169.058751 
L 278.38577 168.64272 
L 278.667731 167.828939 
L 279.231652 173.841655 
L 279.795573 162.525395 
L 280.077534 165.027841 
L 280.641455 174.587271 
L 281.205376 182.382556 
L 282.051258 197.098263 
L 282.615179 201.401574 
L 282.897139 202.959779 
L 283.1791 202.767536 
L 283.461061 200.543199 
L 283.743021 191.898011 
L 285.434785 79.731236 
L 286.280667 53.634408 
L 286.562627 51.427665 
L 287.408509 63.231775 
L 287.690469 71.343975 
L 288.254391 104.595618 
L 288.818312 142.087077 
L 289.100272 154.16105 
L 289.664194 166.677322 
L 289.946154 172.108832 
L 290.228115 175.069006 
L 290.510075 172.569252 
L 290.792036 168.690347 
L 291.073996 167.977217 
L 291.355957 168.395635 
L 291.637918 167.210211 
L 291.919878 165.120454 
L 292.483799 158.931648 
L 292.76576 157.592926 
L 293.047721 157.034586 
L 293.611642 151.437698 
L 294.175563 156.827958 
L 294.739484 149.657935 
L 295.021445 151.719048 
L 295.303405 155.336529 
L 295.585366 155.810885 
L 295.867326 157.864589 
L 296.149287 162.963897 
L 296.431248 165.160907 
L 296.713208 165.51492 
L 297.277129 177.064869 
L 297.55909 178.874443 
L 297.841051 182.936459 
L 298.404972 204.70962 
L 298.686932 205.597229 
L 298.968893 207.647182 
L 299.250853 215.479646 
L 299.532814 219.937059 
L 299.814775 220.855245 
L 300.378696 231.84124 
L 300.660656 228.461015 
L 300.942617 221.925104 
L 301.224578 212.678628 
L 301.506538 188.583788 
L 302.070459 124.020977 
L 303.198302 55.032912 
L 303.480262 47.9697 
L 303.762223 45.858558 
L 304.044183 46.824795 
L 304.326144 47.211361 
L 304.608105 48.76212 
L 305.172026 62.929422 
L 305.453986 72.653967 
L 306.863789 145.01247 
L 307.14575 153.031799 
L 307.42771 156.945809 
L 308.273592 177.788684 
L 308.555553 175.503575 
L 308.837513 176.109952 
L 309.119474 180.72205 
L 309.401435 183.190543 
L 309.965356 180.049918 
L 310.247316 180.372354 
L 310.529277 178.763584 
L 310.811238 175.456781 
L 311.093198 175.197276 
L 311.375159 176.75573 
L 311.657119 173.402916 
L 312.503001 150.076644 
L 313.066922 142.985444 
L 313.348883 143.287178 
L 313.912804 145.671097 
L 314.194765 149.333135 
L 314.476725 156.319278 
L 314.758686 160.412907 
L 315.040646 158.907594 
L 315.322607 160.172666 
L 316.168489 189.506018 
L 317.296331 241.545342 
L 317.860252 251.905318 
L 318.142213 254.016 
L 318.424173 253.237842 
L 318.706134 246.600475 
L 319.270055 209.96242 
L 319.833976 156.684588 
L 320.397897 94.866588 
L 320.961819 54.57541 
L 321.52574 32.926197 
L 322.089661 21.237926 
L 322.371622 19.69263 
L 322.653582 20.965108 
L 322.935543 29.194155 
L 323.781424 80.897032 
L 324.345346 118.913896 
L 324.627306 130.932728 
L 325.191227 140.929418 
L 325.755149 149.643665 
L 326.882991 158.3753 
L 327.164952 155.13567 
L 327.728873 144.144577 
L 328.010833 145.436849 
L 328.856715 157.364271 
L 329.702597 180.697603 
L 329.984557 179.151716 
L 330.266518 179.326175 
L 330.830439 185.583468 
L 331.39436 185.679018 
L 331.676321 187.044755 
L 332.240242 192.255138 
L 332.522203 196.201018 
L 333.650045 219.042976 
L 334.213966 225.927243 
L 334.777887 236.972323 
L 335.341809 247.9292 
L 335.90573 253.907636 
L 336.18769 251.770251 
L 336.469651 238.145109 
L 337.033572 173.04675 
L 337.879454 67.448412 
L 338.161414 41.634053 
L 338.443375 26.221405 
L 338.725336 19.096656 
L 339.007296 16.031294 
L 339.853178 12.096 
L 340.135138 16.074533 
L 340.69906 39.190849 
L 340.98102 53.330974 
L 341.544941 99.02172 
L 342.108863 137.979344 
L 342.954744 166.765562 
L 343.236705 170.004674 
L 343.518666 169.474191 
L 343.800626 173.061304 
L 344.082587 178.733369 
L 344.364547 178.529119 
L 344.646508 175.716396 
L 344.928468 180.136123 
L 345.210429 188.661804 
L 345.49239 190.01304 
L 345.77435 184.67635 
L 346.056311 182.196694 
L 346.338271 183.382739 
L 346.620232 182.118709 
L 346.902193 178.362128 
L 347.184153 176.60805 
L 347.466114 177.246558 
L 347.748074 179.168857 
L 348.030035 183.593857 
L 348.593956 194.307977 
L 348.875917 196.440142 
L 349.157877 199.809979 
L 349.439838 204.613663 
L 349.721798 207.009065 
L 350.003759 204.358823 
L 350.28572 195.548394 
L 350.849641 169.455149 
L 351.131601 163.650318 
L 351.695523 156.678862 
L 351.977483 157.794224 
L 352.541404 173.451175 
L 353.387286 185.946558 
L 353.669247 192.313289 
L 354.233168 211.753477 
L 354.515128 205.632898 
L 355.07905 171.576217 
L 355.642971 111.899319 
L 355.924931 82.787554 
L 356.206892 68.919161 
L 356.488852 63.715577 
L 356.770813 61.929676 
L 357.052774 64.228116 
L 357.334734 67.586183 
L 357.898655 70.219461 
L 358.462577 71.20278 
L 358.744537 76.570893 
L 359.308458 97.227056 
L 359.87238 112.299022 
L 360.718261 138.636206 
L 361.000222 145.316525 
L 361.846104 157.498759 
L 362.410025 169.767861 
L 362.691985 171.339121 
L 362.973946 171.481842 
L 363.255907 173.05486 
L 363.537867 176.104258 
L 363.819828 177.638908 
L 364.665709 174.413638 
L 364.94767 174.06435 
L 365.229631 174.129951 
L 365.793552 177.22833 
L 366.075512 177.004605 
L 366.357473 175.577212 
L 366.639434 175.264347 
L 366.921394 176.23541 
L 367.485315 177.068625 
L 368.331197 182.40438 
L 368.895118 190.621677 
L 369.177079 191.067516 
L 369.459039 189.972908 
L 369.741 194.159147 
L 370.022961 200.354626 
L 370.304921 203.19054 
L 370.586882 207.997954 
L 371.150803 226.207548 
L 371.714724 232.796511 
L 371.996685 232.154888 
L 372.278645 219.244964 
L 372.842566 168.331869 
L 373.688448 91.346154 
L 374.252369 70.275005 
L 374.53433 65.486736 
L 374.816291 64.966446 
L 375.098251 63.815246 
L 375.380212 59.765036 
L 375.662172 57.647996 
L 375.944133 59.758008 
L 376.226094 63.581306 
L 376.508054 71.033137 
L 377.071975 98.439933 
L 379.045699 153.262403 
L 379.891581 159.561994 
L 380.173542 160.713908 
L 380.455502 160.848854 
L 381.019423 167.240613 
L 381.301384 167.76903 
L 381.583345 167.13681 
L 381.865305 166.155862 
L 382.147266 164.284977 
L 382.429226 164.724935 
L 382.711187 167.143281 
L 382.993148 166.283622 
L 383.275108 164.623579 
L 383.557069 166.931003 
L 383.839029 168.193359 
L 384.12099 166.653556 
L 384.402951 169.992557 
L 384.684911 176.494612 
L 384.966872 178.424608 
L 385.248832 179.365584 
L 385.530793 181.427187 
L 385.812753 176.943853 
L 386.094714 169.680618 
L 386.376675 170.925578 
L 386.658635 176.418404 
L 386.940596 178.821329 
L 387.786478 189.634183 
L 388.068438 191.251197 
L 388.632359 202.235621 
L 388.91432 205.947063 
L 389.478241 225.558675 
L 389.760202 230.25811 
L 390.042162 230.994462 
L 390.324123 224.419794 
L 390.888044 185.009545 
L 391.451965 130.100775 
L 391.733926 101.72252 
L 392.015886 86.814754 
L 392.579808 72.337787 
L 392.861768 68.101847 
L 393.425689 67.10096 
L 393.70765 68.205896 
L 394.553532 80.382353 
L 395.399413 104.818867 
L 395.963335 121.01742 
L 396.527256 135.452232 
L 397.091177 144.577641 
L 397.655098 149.94784 
L 398.219019 158.497599 
L 398.50098 158.162243 
L 398.78294 155.81208 
L 399.064901 155.81279 
L 399.346862 156.564326 
L 399.910783 152.547945 
L 400.192743 156.798139 
L 400.474704 163.411676 
L 400.756665 164.694876 
L 401.038625 162.280096 
L 401.320586 162.547903 
L 401.602546 164.291592 
L 401.884507 163.808933 
L 402.166467 163.94087 
L 402.730389 171.198935 
L 403.57627 175.781075 
L 403.858231 175.856933 
L 404.140192 174.817652 
L 404.422152 175.16461 
L 404.986073 179.646034 
L 405.268034 180.758763 
L 405.549994 183.86398 
L 405.831955 188.529769 
L 406.113916 190.71411 
L 406.395876 191.946777 
L 408.08764 220.305213 
L 408.3696 219.116474 
L 408.651561 212.50809 
L 408.933522 201.720851 
L 409.215482 184.147332 
L 410.061364 106.312611 
L 410.343324 92.095526 
L 410.625285 83.91063 
L 411.189206 76.960377 
L 411.471167 74.1557 
L 411.753127 73.464458 
L 412.035088 76.397616 
L 412.88097 90.28327 
L 414.290773 122.610365 
L 414.854694 136.643494 
L 415.136654 137.019571 
L 415.418615 141.290343 
L 415.982536 162.822245 
L 416.264497 166.317398 
L 416.546457 168.250801 
L 416.828418 169.303112 
L 417.392339 166.254295 
L 417.6743 163.157896 
L 417.95626 157.246387 
L 418.238221 154.683853 
L 418.520181 156.073075 
L 419.084103 150.845819 
L 419.648024 169.635052 
L 419.929984 166.041683 
L 420.211945 158.712325 
L 420.493906 160.225048 
L 420.775866 160.919341 
L 421.057827 153.657395 
L 421.339787 149.390515 
L 422.46763 163.873229 
L 424.159393 202.293911 
L 424.441354 204.720646 
L 424.723314 199.105485 
L 425.005275 196.930284 
L 425.851157 213.010792 
L 426.415078 228.228101 
L 426.697038 223.486946 
L 426.978999 211.969419 
L 427.26096 195.816317 
L 428.670763 86.459679 
L 428.952723 79.244931 
L 429.234684 79.433643 
L 429.516644 80.938086 
L 429.798605 79.207813 
L 430.362526 69.059104 
L 430.644487 72.218386 
L 430.926447 77.360007 
L 431.208408 77.809527 
L 431.490368 81.945522 
L 432.33625 132.975864 
L 433.182132 150.525913 
L 433.464093 148.949104 
L 433.746053 145.498954 
L 434.028014 145.359906 
L 434.309974 148.045942 
L 434.591935 149.100388 
L 434.873895 147.419261 
L 435.155856 146.584051 
L 435.437817 147.717519 
L 435.719777 148.092262 
L 436.001738 147.702392 
L 436.565659 148.666713 
L 436.84762 149.047364 
L 437.693501 155.583939 
L 437.975462 157.006638 
L 438.539383 162.568095 
L 438.821344 164.52302 
L 439.385265 170.152986 
L 439.667225 170.308565 
L 439.949186 169.692514 
L 440.231147 170.555353 
L 440.795068 176.433442 
L 441.358989 183.711014 
L 441.64095 188.867756 
L 442.204871 202.755558 
L 442.768792 210.298047 
L 443.332713 221.066387 
L 443.896634 224.527235 
L 444.178595 222.670238 
L 444.460555 208.92633 
L 445.306437 144.054549 
L 445.870358 96.238273 
L 446.152319 89.36613 
L 446.71624 82.685854 
L 446.998201 83.600301 
L 448.126043 95.945666 
L 448.408004 96.526109 
L 448.689964 101.554362 
L 448.971925 109.906716 
L 449.253885 114.90479 
L 449.535846 114.886961 
L 449.817806 115.333133 
L 450.381728 124.260215 
L 450.663688 125.382825 
L 450.945649 130.194925 
L 451.50957 148.968378 
L 452.073491 148.427882 
L 452.355452 150.54121 
L 452.637412 151.018833 
L 453.201334 149.694475 
L 453.483294 148.121032 
L 453.765255 149.149607 
L 454.047215 152.784097 
L 454.329176 154.024618 
L 454.611136 153.639137 
L 454.893097 154.67301 
L 455.175058 154.836931 
L 455.457018 153.812311 
L 455.738979 154.282261 
L 456.020939 155.897493 
L 456.3029 159.92298 
L 456.584861 167.429145 
L 456.866821 171.8378 
L 457.148782 171.102078 
L 457.430742 173.753136 
L 457.712703 179.479718 
L 457.994663 179.730244 
L 458.276624 179.380757 
L 458.840545 193.342216 
L 459.122506 194.152893 
L 459.404466 197.293862 
L 459.686427 203.95669 
L 459.968388 206.276545 
L 460.250348 207.355595 
L 460.814269 216.827047 
L 461.378191 214.38152 
L 461.660151 207.44346 
L 463.069954 103.964485 
L 463.351915 99.093896 
L 463.633875 98.27148 
L 464.197796 88.872118 
L 464.761718 91.057451 
L 465.043678 89.787458 
L 465.325639 94.127162 
L 465.88956 110.034534 
L 466.17152 112.289655 
L 466.453481 117.561197 
L 467.017402 130.280579 
L 467.863284 139.567642 
L 468.145245 140.957378 
L 468.427205 143.253782 
L 468.709166 146.540249 
L 468.991126 148.166703 
L 469.273087 148.87039 
L 469.837008 153.380845 
L 470.118969 152.060782 
L 470.400929 151.815925 
L 470.96485 163.470398 
L 471.246811 165.389204 
L 471.528772 165.514681 
L 472.092693 169.272837 
L 473.220535 178.474832 
L 474.348377 191.323365 
L 474.912299 199.76046 
L 475.47622 205.677009 
L 475.75818 206.092764 
L 476.040141 196.891344 
L 476.604062 168.935118 
L 477.167983 150.557295 
L 477.449944 146.315144 
L 478.013865 159.389862 
L 478.295826 158.504427 
L 478.577786 150.972379 
L 478.859747 140.1335 
L 479.705629 86.997226 
L 479.987589 82.249305 
L 480.26955 84.674048 
L 480.833471 96.119274 
L 481.679353 113.141836 
L 482.243274 121.99545 
L 482.525234 124.712268 
L 483.653077 144.25472 
L 484.216998 152.03661 
L 484.498959 154.73074 
L 484.780919 159.599893 
L 485.06288 166.543531 
L 485.34484 170.473901 
L 485.908762 170.289551 
L 486.754643 173.945026 
L 487.318564 178.950995 
L 487.600525 179.188378 
L 487.882486 181.269769 
L 488.446407 190.906522 
L 489.010328 195.674422 
L 489.292289 195.655426 
L 489.574249 187.005695 
L 490.702091 113.920276 
L 490.984052 103.640899 
L 491.266013 98.22095 
L 491.547973 97.260513 
L 491.829934 97.786657 
L 492.111894 99.63635 
L 492.393855 104.05377 
L 492.957776 118.220587 
L 493.803658 152.623441 
L 494.9315 203.059798 
L 495.213461 204.25895 
L 495.495421 196.9139 
L 496.341303 157.375363 
L 497.187185 138.022 
L 497.469146 125.41766 
L 497.751106 119.914566 
L 498.033067 119.437339 
L 498.315027 116.666875 
L 498.596988 115.847115 
L 499.44287 134.148711 
L 500.288751 142.321643 
L 500.570712 144.005255 
L 501.134633 151.541601 
L 501.416594 151.33837 
L 501.698554 150.813313 
L 501.980515 150.846241 
L 502.262476 149.762438 
L 502.544436 149.448553 
L 502.826397 151.340076 
L 503.108357 152.418609 
L 503.390318 151.789003 
L 503.672278 151.758009 
L 503.954239 151.115983 
L 504.2362 148.091536 
L 504.51816 146.492628 
L 505.082081 150.828871 
L 505.646003 147.771133 
L 506.209924 149.797196 
L 506.491884 149.5791 
L 507.055805 148.403363 
L 507.337766 148.72485 
L 507.901687 152.243765 
L 508.465608 156.670065 
L 508.747569 157.372961 
L 509.02953 155.81232 
L 509.31149 156.418141 
L 510.157372 175.571349 
L 510.439333 173.806369 
L 511.003254 177.037722 
L 511.285214 168.697923 
L 511.567175 156.369418 
L 511.849135 153.581989 
L 512.131096 159.102488 
L 512.413057 161.902158 
L 512.695017 161.514697 
L 512.976978 165.510048 
L 513.540899 183.473564 
L 514.10482 192.617161 
L 514.386781 196.229382 
L 514.668741 197.775703 
L 514.950702 193.020389 
L 515.796584 161.764388 
L 516.360505 130.756975 
L 516.642465 129.174818 
L 516.924426 133.912766 
L 517.206387 132.767946 
L 517.770308 122.058124 
L 518.61619 115.176811 
L 518.89815 115.431748 
L 519.180111 116.380522 
L 519.462071 117.737764 
L 520.025992 123.497466 
L 520.589914 129.569363 
L 520.871874 131.407958 
L 521.153835 135.260435 
L 521.717756 146.74056 
L 521.999717 147.111819 
L 522.281677 147.934307 
L 522.563638 149.881728 
L 522.845598 149.611272 
L 523.127559 149.543565 
L 523.409519 152.149597 
L 523.69148 153.174815 
L 523.973441 151.799261 
L 524.255401 152.443081 
L 524.537362 154.227997 
L 524.819322 153.548217 
L 525.101283 152.080189 
L 525.383244 151.820088 
L 525.665204 152.320389 
L 526.229125 154.985628 
L 526.511086 154.719364 
L 526.793047 155.218145 
L 527.356968 159.455579 
L 527.638928 159.758305 
L 527.920889 160.719762 
L 528.202849 162.10532 
L 528.48481 164.118748 
L 529.330692 175.306595 
L 529.894613 177.02191 
L 530.176574 177.777251 
L 530.458534 180.976766 
L 530.740495 189.108746 
L 531.304416 210.843736 
L 531.586376 215.341425 
L 531.868337 216.171943 
L 532.150298 215.511939 
L 532.432258 209.43377 
L 533.27814 168.747978 
L 534.124022 114.310025 
L 534.687943 94.866698 
L 535.251864 82.948611 
L 535.533825 78.350569 
L 535.815785 79.063388 
L 536.661667 98.132217 
L 537.225588 110.597174 
L 538.635391 145.238517 
L 538.917352 147.028554 
L 539.199312 147.331972 
L 539.481273 149.811753 
L 539.763233 153.465291 
L 540.045194 153.508418 
L 540.327155 151.853377 
L 540.609115 154.067281 
L 540.891076 158.381467 
L 541.173036 158.835049 
L 541.454997 156.012317 
L 541.736958 155.223185 
L 542.300879 159.24084 
L 542.8648 160.007106 
L 543.146761 159.002787 
L 543.428721 155.634901 
L 543.710682 154.307606 
L 543.992642 156.138823 
L 544.274603 156.038612 
L 544.556563 154.996499 
L 544.838524 159.335165 
L 545.120485 165.653597 
L 545.402445 166.242882 
L 545.684406 164.733132 
L 546.530288 173.77454 
L 546.812248 173.700148 
L 548.222051 185.619773 
L 548.504012 186.814756 
L 548.785972 185.229676 
L 549.067933 179.911808 
L 550.195775 147.393435 
L 550.759696 141.613654 
L 551.041657 136.604005 
L 551.323618 134.105331 
L 551.605578 134.592936 
L 551.887539 132.228502 
L 552.169499 126.586887 
L 552.45146 123.877501 
L 552.73342 125.520821 
L 553.015381 128.544751 
L 553.579302 136.539359 
L 553.861263 134.407472 
L 554.143223 129.987147 
L 554.425184 131.912979 
L 554.707145 137.347322 
L 554.989105 136.911292 
L 555.271066 133.042708 
L 555.553026 135.641461 
L 555.834987 143.359019 
L 556.116947 146.584929 
L 556.398908 144.222627 
L 556.680869 143.257755 
L 556.962829 144.94117 
L 557.24479 144.797186 
L 557.52675 143.09137 
L 557.808711 144.50429 
L 558.372632 151.838936 
L 558.654593 152.945293 
L 559.218514 155.657137 
L 559.782435 153.304802 
L 560.064396 153.859782 
L 560.346356 154.000459 
L 560.628317 153.218692 
L 560.910277 154.347057 
L 561.474199 160.16954 
L 561.756159 161.535236 
L 562.03812 161.796841 
L 562.32008 162.249949 
L 562.602041 166.786895 
L 562.884002 175.049676 
L 563.165962 179.62443 
L 563.447923 179.287202 
L 563.729883 181.91564 
L 564.011844 188.056677 
L 564.293804 188.223115 
L 564.575765 181.566915 
L 564.857726 178.48027 
L 565.421647 185.728272 
L 565.703607 182.791155 
L 566.549489 161.948976 
L 567.11341 147.714231 
L 567.677332 140.163719 
L 567.959292 137.960251 
L 568.805174 128.691432 
L 569.087134 126.706518 
L 569.651056 121.152175 
L 569.933016 121.130811 
L 570.496937 125.166551 
L 571.342819 132.439865 
L 571.90674 140.198699 
L 572.470661 143.715172 
L 573.034583 147.830867 
L 573.598504 149.029402 
L 574.162425 153.369063 
L 574.444386 152.063012 
L 574.726346 149.073513 
L 575.008307 149.022745 
L 575.290267 150.869225 
L 575.572228 149.858018 
L 575.854189 147.27138 
L 576.136149 147.367351 
L 576.41811 148.980521 
L 576.70007 148.468745 
L 576.982031 147.15581 
L 577.263991 148.206227 
L 577.545952 151.110472 
L 577.827913 152.331856 
L 578.391834 149.388592 
L 579.237716 156.092363 
L 579.519676 156.699985 
L 580.083597 164.496658 
L 580.365558 164.502338 
L 580.647518 164.1163 
L 581.775361 175.316837 
L 582.057321 179.079218 
L 582.621243 190.757974 
L 582.903203 190.358308 
L 583.749085 170.104153 
L 584.313006 144.304024 
L 584.594967 138.787267 
L 584.876927 140.704618 
L 585.158888 140.721642 
L 586.00477 126.986577 
L 586.28673 126.287296 
L 586.568691 128.1259 
L 587.132612 133.989901 
L 587.414573 134.525245 
L 587.696533 135.595675 
L 588.260454 143.977172 
L 588.542415 144.30174 
L 588.824375 144.925313 
L 589.106336 147.478223 
L 589.388297 147.963474 
L 589.670257 147.236884 
L 590.234178 150.948903 
L 590.516139 151.265431 
L 591.08006 154.698348 
L 591.362021 154.615181 
L 591.643981 153.996629 
L 591.925942 152.356313 
L 592.489863 144.503899 
L 592.771824 146.319249 
L 593.053784 149.615702 
L 593.617705 151.097583 
L 594.463587 167.398705 
L 594.745548 168.647619 
L 595.87339 183.274102 
L 596.155351 188.204479 
L 596.719272 192.925798 
L 597.283193 203.246713 
L 597.565154 209.493786 
L 597.847114 212.745437 
L 598.129075 199.236275 
L 598.692996 141.43012 
L 599.538878 105.765901 
L 599.820838 102.47641 
L 600.102799 102.671851 
L 601.230641 83.432437 
L 601.512602 83.420221 
L 601.794562 91.167257 
L 602.358484 111.004085 
L 602.922405 123.872518 
L 603.486326 131.300327 
L 604.050247 142.205802 
L 604.614168 147.056897 
L 605.46005 158.761277 
L 606.023971 162.069261 
L 606.305932 163.425238 
L 606.587892 164.01939 
L 606.869853 162.668113 
L 607.715735 155.686965 
L 607.997695 154.76134 
L 608.561617 157.046504 
L 609.125538 155.029919 
L 609.407498 155.29577 
L 609.689459 154.707284 
L 609.971419 153.709077 
L 610.25338 153.44878 
L 610.817301 149.665935 
L 611.099262 151.934607 
L 611.381222 158.636043 
L 611.663183 162.615476 
L 611.945144 160.902873 
L 612.227104 158.190238 
L 612.509065 158.544874 
L 612.791025 159.924092 
L 613.072986 160.107625 
L 613.354946 160.054624 
L 613.918868 162.701239 
L 614.482789 165.988124 
L 614.764749 166.623125 
L 615.04671 165.919547 
L 615.328671 167.200815 
L 615.610631 170.51817 
L 615.892592 172.145309 
L 616.174552 172.195482 
L 616.738474 174.897478 
L 617.020434 173.329726 
L 617.302395 170.962769 
L 617.584355 166.405276 
L 618.148276 150.464075 
L 618.430237 148.122657 
L 618.994158 139.07581 
L 619.276119 139.95495 
L 619.558079 144.241617 
L 619.84004 144.683568 
L 620.122001 143.053736 
L 620.403961 143.211768 
L 620.685922 141.996535 
L 621.249843 132.56192 
L 621.531803 132.015866 
L 622.095725 137.82314 
L 622.377685 138.127563 
L 622.941606 145.532996 
L 623.223567 144.330685 
L 623.505528 142.259708 
L 623.787488 144.935701 
L 624.069449 145.255217 
L 624.351409 141.553394 
L 624.63337 143.484886 
L 624.915331 150.407646 
L 625.197291 151.827046 
L 625.479252 150.054174 
L 626.043173 154.10001 
L 626.325133 153.531789 
L 626.607094 155.301442 
L 626.889055 158.691855 
L 627.171015 158.361831 
L 627.452976 156.689338 
L 628.016897 161.12203 
L 628.298858 155.466525 
L 628.580818 147.414131 
L 628.862779 146.078875 
L 629.144739 147.664231 
L 629.70866 143.239333 
L 630.272582 154.563958 
L 630.554542 153.911519 
L 630.836503 154.58267 
L 631.118463 160.603091 
L 631.400424 163.962255 
L 631.682385 163.006513 
L 631.964345 163.712461 
L 632.246306 165.800115 
L 632.528266 166.294504 
L 633.092188 171.616817 
L 633.092188 171.616817 
" clip-path="url(#p76f3a5c4f9)" style="fill: none; stroke: #1f77b4; stroke-width: 1.5; stroke-linecap: square"/>
   </g>
   <g id="patch_3">
    <path d="M 47.192188 266.112 
L 47.192188 0 
" style="fill: none; stroke: #000000; stroke-width: 0.8; stroke-linejoin: miter; stroke-linecap: square"/>
   </g>
   <g id="patch_4">
    <path d="M 660.992188 266.112 
L 660.992188 0 
" style="fill: none; stroke: #000000; stroke-width: 0.8; stroke-linejoin: miter; stroke-linecap: square"/>
   </g>
   <g id="patch_5">
    <path d="M 47.192188 266.112 
L 660.992188 266.112 
" style="fill: none; stroke: #000000; stroke-width: 0.8; stroke-linejoin: miter; stroke-linecap: square"/>
   </g>
   <g id="patch_6">
    <path d="M 47.192188 0 
L 660.992188 0 
" style="fill: none; stroke: #000000; stroke-width: 0.8; stroke-linejoin: miter; stroke-linecap: square"/>
   </g>
  </g>
 </g>
 <defs>
  <clipPath id="p76f3a5c4f9">
   <rect x="47.192188" y="0" width="613.8" height="266.112"/>
  </clipPath>
 </defs>
</svg>
