<svg xmlns="http://www.w3.org/2000/svg" xmlns:xlink="http://www.w3.org/1999/xlink" width="913.477" height="377.053" viewBox="0 0 685.107 282.79"><defs><style>*{stroke-linejoin:round;stroke-linecap:butt}</style></defs><g id="figure_1"><path id="patch_1" d="M0 282.79h685.107V0H0v282.79z" style="fill:none"/><g id="axes_1"><path id="patch_2" d="M71.308 266.112h613.8V0h-613.8v266.112z" style="fill:none"/><g id="matplotlib.axis_1"><g id="xtick_1"><g id="line2d_1"><defs><path id="mf8bdd5a146" d="M0 0v3.5" style="stroke:gray;stroke-width:.8"/></defs><use xlink:href="#mf8bdd5a146" x="99.207" y="266.112" style="fill:gray;stroke:gray;stroke-width:.8"/></g><g id="text_1" style="fill:gray" transform="matrix(.1 0 0 -.1 96.026 280.71)"><defs><path id="DejaVuSans-30" d="M2034 4250q-487 0-733-480-245-479-245-1442 0-959 245-1439 246-480 733-480 491 0 736 480 246 480 246 1439 0 963-246 1442-245 480-736 480zm0 500q785 0 1199-621 414-620 414-1801 0-1178-414-1799Q2819-91 2034-91q-784 0-1198 620-414 621-414 1799 0 1181 414 1801 414 621 1198 621z" transform="scale(.01563)"/></defs><use xlink:href="#DejaVuSans-30"/></g></g><g id="xtick_2"><use xlink:href="#mf8bdd5a146" id="line2d_2" x="168.958" y="266.112" style="fill:gray;stroke:gray;stroke-width:.8"/><g id="text_2" style="fill:gray" transform="matrix(.1 0 0 -.1 159.414 280.71)"><defs><path id="DejaVuSans-35" d="M691 4666h2478v-532H1269V2991q137 47 274 70 138 23 276 23 781 0 1237-428 457-428 457-1159 0-753-469-1171Q2575-91 1722-91q-294 0-599 50Q819 9 494 109v635q281-153 581-228t634-75q541 0 856 284 316 284 316 772 0 487-316 771-315 285-856 285-253 0-505-56-251-56-513-175v2344z" transform="scale(.01563)"/></defs><use xlink:href="#DejaVuSans-35"/><use xlink:href="#DejaVuSans-30" x="63.623"/><use xlink:href="#DejaVuSans-30" x="127.246"/></g></g><g id="xtick_3"><use xlink:href="#mf8bdd5a146" id="line2d_3" x="238.708" y="266.112" style="fill:gray;stroke:gray;stroke-width:.8"/><g id="text_3" style="fill:gray" transform="matrix(.1 0 0 -.1 225.982 280.71)"><defs><path id="DejaVuSans-31" d="M794 531h1031v3560L703 3866v575l1116 225h631V531h1031V0H794v531z" transform="scale(.01563)"/></defs><use xlink:href="#DejaVuSans-31"/><use xlink:href="#DejaVuSans-30" x="63.623"/><use xlink:href="#DejaVuSans-30" x="127.246"/><use xlink:href="#DejaVuSans-30" x="190.869"/></g></g><g id="xtick_4"><use xlink:href="#mf8bdd5a146" id="line2d_4" x="308.457" y="266.112" style="fill:gray;stroke:gray;stroke-width:.8"/><g id="text_4" style="fill:gray" transform="matrix(.1 0 0 -.1 295.733 280.71)"><use xlink:href="#DejaVuSans-31"/><use xlink:href="#DejaVuSans-35" x="63.623"/><use xlink:href="#DejaVuSans-30" x="127.246"/><use xlink:href="#DejaVuSans-30" x="190.869"/></g></g><g id="xtick_5"><use xlink:href="#mf8bdd5a146" id="line2d_5" x="378.207" y="266.112" style="fill:gray;stroke:gray;stroke-width:.8"/><g id="text_5" style="fill:gray" transform="matrix(.1 0 0 -.1 365.483 280.71)"><defs><path id="DejaVuSans-32" d="M1228 531h2203V0H469v531q359 372 979 998 621 627 780 809 303 340 423 576 121 236 121 464 0 372-261 606-261 235-680 235-297 0-627-103-329-103-704-313v638q381 153 712 231 332 78 607 78 725 0 1156-363 431-362 431-968 0-288-108-546-107-257-392-607-78-91-497-524-418-433-1181-1211z" transform="scale(.01563)"/></defs><use xlink:href="#DejaVuSans-32"/><use xlink:href="#DejaVuSans-30" x="63.623"/><use xlink:href="#DejaVuSans-30" x="127.246"/><use xlink:href="#DejaVuSans-30" x="190.869"/></g></g><g id="xtick_6"><use xlink:href="#mf8bdd5a146" id="line2d_6" x="447.957" y="266.112" style="fill:gray;stroke:gray;stroke-width:.8"/><g id="text_6" style="fill:gray" transform="matrix(.1 0 0 -.1 435.233 280.71)"><use xlink:href="#DejaVuSans-32"/><use xlink:href="#DejaVuSans-35" x="63.623"/><use xlink:href="#DejaVuSans-30" x="127.246"/><use xlink:href="#DejaVuSans-30" x="190.869"/></g></g><g id="xtick_7"><use xlink:href="#mf8bdd5a146" id="line2d_7" x="517.707" y="266.112" style="fill:gray;stroke:gray;stroke-width:.8"/><g id="text_7" style="fill:gray" transform="matrix(.1 0 0 -.1 504.983 280.71)"><defs><path id="DejaVuSans-33" d="M2597 2516q453-97 707-404 255-306 255-756 0-690-475-1069Q2609-91 1734-91q-293 0-604 58T488 141v609q262-153 574-231 313-78 654-78 593 0 904 234t311 681q0 413-289 645-289 233-804 233h-544v519h569q465 0 712 186t247 536q0 359-255 551-254 193-729 193-260 0-557-57-297-56-653-174v562q360 100 674 150t592 50q719 0 1137-327 419-326 419-882 0-388-222-655t-631-370z" transform="scale(.01563)"/></defs><use xlink:href="#DejaVuSans-33"/><use xlink:href="#DejaVuSans-30" x="63.623"/><use xlink:href="#DejaVuSans-30" x="127.246"/><use xlink:href="#DejaVuSans-30" x="190.869"/></g></g><g id="xtick_8"><use xlink:href="#mf8bdd5a146" id="line2d_8" x="587.457" y="266.112" style="fill:gray;stroke:gray;stroke-width:.8"/><g id="text_8" style="fill:gray" transform="matrix(.1 0 0 -.1 574.732 280.71)"><use xlink:href="#DejaVuSans-33"/><use xlink:href="#DejaVuSans-35" x="63.623"/><use xlink:href="#DejaVuSans-30" x="127.246"/><use xlink:href="#DejaVuSans-30" x="190.869"/></g></g><g id="xtick_9"><use xlink:href="#mf8bdd5a146" id="line2d_9" x="657.207" y="266.112" style="fill:gray;stroke:gray;stroke-width:.8"/><g id="text_9" style="fill:gray" transform="matrix(.1 0 0 -.1 644.482 280.71)"><defs><path id="DejaVuSans-34" d="M2419 4116 825 1625h1594v2491zm-166 550h794V1625h666v-525h-666V0h-628v1100H313v609l1940 2957z" transform="scale(.01563)"/></defs><use xlink:href="#DejaVuSans-34"/><use xlink:href="#DejaVuSans-30" x="63.623"/><use xlink:href="#DejaVuSans-30" x="127.246"/><use xlink:href="#DejaVuSans-30" x="190.869"/></g></g></g><g id="matplotlib.axis_2"><g id="ytick_1"><g id="line2d_10"><defs><path id="mf1b3f23fca" d="M0 0h-3.5" style="stroke:gray;stroke-width:.8"/></defs><use xlink:href="#mf1b3f23fca" x="71.308" y="261.705" style="fill:gray;stroke:gray;stroke-width:.8"/></g><g id="text_10" style="fill:gray" transform="matrix(.16 0 0 -.16 0 267.784)"><defs><path id="DejaVuSans-2212" d="M678 2272h4006v-531H678v531z" transform="scale(.01563)"/></defs><use xlink:href="#DejaVuSans-2212"/><use xlink:href="#DejaVuSans-31" x="83.789"/><use xlink:href="#DejaVuSans-30" x="147.412"/><use xlink:href="#DejaVuSans-30" x="211.035"/><use xlink:href="#DejaVuSans-30" x="274.658"/><use xlink:href="#DejaVuSans-30" x="338.281"/></g></g><g id="ytick_2"><use xlink:href="#mf1b3f23fca" id="line2d_11" x="71.308" y="203.475" style="fill:gray;stroke:gray;stroke-width:.8"/><g id="text_11" style="fill:gray" transform="matrix(.16 0 0 -.16 10.18 209.554)"><use xlink:href="#DejaVuSans-2212"/><use xlink:href="#DejaVuSans-35" x="83.789"/><use xlink:href="#DejaVuSans-30" x="147.412"/><use xlink:href="#DejaVuSans-30" x="211.035"/><use xlink:href="#DejaVuSans-30" x="274.658"/></g></g><g id="ytick_3"><use xlink:href="#mf1b3f23fca" id="line2d_12" x="71.308" y="145.245" style="fill:gray;stroke:gray;stroke-width:.8"/><use xlink:href="#DejaVuSans-30" id="text_12" style="fill:gray" transform="matrix(.16 0 0 -.16 54.127 151.324)"/></g><g id="ytick_4"><use xlink:href="#mf1b3f23fca" id="line2d_13" x="71.308" y="87.015" style="fill:gray;stroke:gray;stroke-width:.8"/><g id="text_13" style="fill:gray" transform="matrix(.16 0 0 -.16 23.587 93.093)"><use xlink:href="#DejaVuSans-35"/><use xlink:href="#DejaVuSans-30" x="63.623"/><use xlink:href="#DejaVuSans-30" x="127.246"/><use xlink:href="#DejaVuSans-30" x="190.869"/></g></g><g id="ytick_5"><use xlink:href="#mf1b3f23fca" id="line2d_14" x="71.308" y="28.785" style="fill:gray;stroke:gray;stroke-width:.8"/><g id="text_14" style="fill:gray" transform="matrix(.16 0 0 -.16 13.408 34.863)"><use xlink:href="#DejaVuSans-31"/><use xlink:href="#DejaVuSans-30" x="63.623"/><use xlink:href="#DejaVuSans-30" x="127.246"/><use xlink:href="#DejaVuSans-30" x="190.869"/><use xlink:href="#DejaVuSans-30" x="254.492"/></g></g></g><path id="line2d_15" d="m99.207 145.301.282-.107.282.097.282-.088.282.08.282-.072.282.063.564-.007.846-.035 1.41.01 2.538.037.281-.073.282.082.282-.091.282.101.282-.113.282.126.282-.14.282.155.282-.172.282.192.282-.215.282.243.282-.276.282.316.282-.367.282.433.282-.523.282.652.282-.854.282 1.218.282-2.05.564 28.026.282 1.302.282-.815.281-1.71.282 5.287.282 2.141.282-2.052.282-3.83.282-.692.282.518.564 5.316.282-.582.282-1.835.564 3.75.282-.064.282.518.282 3.474.282-.411.282-6.471.564-19.727 1.128-58.767.564-20.749.281-.527.282 2.713.282 1.278.282 2.939.564 12.694.282 9.54.846 39.356.564 18.915.282 5.237.282 1.128.564-2.914.282-.155.282 4.11.282 6.033.282 2.88.564-3.53.564 3.705.282-3.344.281-6.597.282-3.516.282.912.282.36.282-.629.282.737.282 1.26.282-.32.282.751.282 2.106.282.222.282-1.727.282.558.282 2.311.282 1.165.282.147.282 1.378.564 4.228.282-.789.282-6.213.846-35.882.563-34.543.282-7.862.282-2.19.282-6.389.282-9.689.282-3.247.282 2.227.282-.986.282-3.606.282 2.987.564 26.033.846 49.206.564 12.839.282 5.822.282 3.308.282-.123.282-.82.282 2.062.282 4.691.282 2.677.564-4.886.281 2.304.282.005.564-15.44.282-.659.282.616.282-1.367.282 1.536.282 2.723.282-1.543.282-2.432.564 4.769.282-.566.282-1.386.282-.18.282 1.512.846 14.519.282.416.564 7.785.282-5.272.845-36.672.846-41.418.564-20.724.564-7.755.282-.619.846 12.042.282 9.172 1.128 51.994.282 9.299.282 3.711.282 2.139.282 1.009.282-1.068.282-.576.282 1.166.281.29.282-1.123.282-2.496.282-3.991.282-1.259.564 10.641.282-1.327.282-2.268.564 7.56.282.858.282 2.052.282 4.328.282.933.282-2.068.282-.143.282.705.282-1.247.282.341.282 3.498.282 2.04.282-.458.282 1.454.282 2.698.282.51.281-.118.282-.774.282-8.774.846-48.767.564-36.461.282-17.555.282-8.239.564-5.426.282-.745.282 3.41.564 14.374 1.41 62.891.564 31.132.564 12.821.281 4.731.282.046.846-16.8.282-.607.282-.14.564-7.013.282-.78.282 1.394.282.11.282-.108.282.228.564-3.844.282 4.97.282 8.89.282 3.401.282-1.465.282 2.693.282 6.796.282 2.065.564-10.762.282-.138.281 3.491.282 2.095.282-1.11.282-4.357.282-9.907 1.41-80.34.282-14.01.282-8.45.564-8.435.282-1.263.282 1.78.282 6.016.282 13.535.564 35.459.564 24.59.564 35.642.282 1.317.281-2.936.282 1.545.282 2.212.282.103.282 1.375.282.151.564-14.223.282.705.282 3.21.564-9.387.282 4.238.282 9.361.282 3.365.282-1.757.282.075.282 1.838.282.82.282 1.68.282 2.895.282.426.282-1.305.282 2.323.282 5.363.281 2.517.282-1.084.282-.041.564 5.158.282.648.282-2.695.282-8.42 1.128-64.494 1.41-73.802.282.34.282 2.338.282-1.112.282 8.145 1.128 98.06.282 21.28.281 12.635.282-.127.282-6.328.846-24.955.282-1.09.282-.392.282 1.733.846 19.64.282-.75.282.802.282 2.538.282-1.42.564-13.376.282-.327.282 2.448.564 1.716.282 1.682.282.22.282-.959.281.811 1.692 14.111.282 4.242.282 1.305.282-5.76.846-25.495 1.128-64.664.846-40.514.282-3.853.282 3.824.846 23.786.281 10.306 1.128 66.89.564 19.13.282 2.626.282.62.282 2.835.282 1.391.282-1.987.282.704.564 12.806.282-.207.564-8.477.282.071.282-2.786.564-14.886.282 1.865.282 3.14.282-.971.282.72.281 4.918.282 2.374.282-1.092.282 2.225.564 9.726 1.128 9.254.282 3.402.282-.386.282-9.415.846-49.353 1.128-75.024.282-11.742.564-8.415.282-3.093.282.138.281 4.627.564 18.224.846 46.39.846 48.666.282 9.997.282 4.285.564 3.426.282.198.564-6.241.564 3.357.282-.074.282.507.282-.775.282-3.906.282-2.341.282 1.244.282-.03.282-1.418.281 1.786.282 3.284.282 1.892.282 5.25.564 17.222.282.678.282 1.554.282 4.802.282 1.57.564-7.665.564-1.066.282-4.691.282-10.67.564-39.68.564-47.887.564-24.552.282-9.997.282-5.493.282 3.053.281 5.784.564 5.952.564 21.869.564 31.003 1.128 73.866.282 10.68.282 5.632.282 3.221.282-5.312.846-50.222.282-6.313.846-27.386.564-5.206.282-.34.281 1.32.282.231.282.764.564 7.6.282 1.87.282 4.118.282 6.118.282 1.858.282-.259.282 6.52.564 19.03.282 5.08.282 11.852.564 29.637.282 2.154.282-4.607.282-8.205.282-14.817 1.128-92.591.563-23.312.564-13.708.282-3.191.282.502.282 2.923.282 4.494.282 9.094 1.692 83.963.564 13.248.282 2.12.282.97.282 5.916.282 8.75.282 3.146.282-3.117.282-1.734.282 1.764.282-.81.563-9.522.564-1.073.282-2.174.282-.591.564 2.392.282.544.282 2.068.564 5.662.282 1.695.282.582.282.148.282 1.37.846 7.337.282.702.282-5.373.564-32.76 1.691-103.189.564-13.763.282-2.9.564 3.17.282 2.543.282 8.751 1.128 67.943.564 32.772.846 23.147.282 3.021.846-4.293.282-.024.282.686.281-.447.564-7.21.282-.75.282.47.282-.678.282 1.79.846 20.555.282 1.824.564 4.826.282-2.582.564-9.754.282.368.564 8.196.282.276.282 1.864.282 7.206.282 2.419.282-13.78.563-40.848.282-16.707.846-73.134.846-31.43.282.1.846 14.904.846 38.452.564 47.013.564 41.576.282 9.444.564 7.057.282 3.755.282 2.133.564-2.969.281 1.884.282.977.282-3.584.846-21.585.282-.791.282 4.676.282 1.704.282-2.726.282-.228.282 2.499.282.384.282 1.024.282 4.58.282 2.052.282-1.328.282 4.977.282 11.268.282 5.454.282-1.413.282 2 .282 4.789.282-2.242.563-22.08.564-35.86.846-67.773.282-13.426.846-22.14.282-2.416.282 1.514.282.187.282-1.014.282 4.235.564 30.89 1.41 80.11.282 4.035.282.812.845 8.635.564 4.004.282-1.269.282-2.755.282.112.282 4.082.564 10.557.282 1.164.282-.808.282 1.538.282 3.038.282-1.803.282-7.045.282-4.168.282 3.086.282 5.497.282 3.143.846 4.695.564 5.084.282 2.355.281.736.282-2.018.282-8.066.564-38.145.846-62.41.564-32.716.564-20.37.282-4.543.282-1.38.282 1.093.282 3.579.282 6.333.564 21.885 1.692 90.289.281 8.85.282 2.145.282-1.288.282 3.29.564 14.515.282.1.282-1.796.282-.082.282.692.282-.308.282-1.094.282.086.282 2.413.564 6.066.282 1.644.282-1.562.564-12.98.282 2.112.282 6.619.282 1.53.282-.88.282 6.42.281 11.275.282 6.078.282.818.564 4.816.282-3.399.282-13.326 1.41-111.15.282-23.796.282-10.52.282-3.575.564-12.953.282-1.78.282 1.9.564 6.818.282 4.847.282 8.406.564 34.602.845 50.905.282 12.28.564 12.748.282 4.7.282 2.199.282 5.109.282 8.362.282 2.17.282-4.248.282.135.282 3.92.282-1.644.282-3.672.282 2.858.282 4.31.282-1.069.282-2.194.282-.32.564-2.643.564 3.436.282-1.003.281 1.529.282 3.173.282-1.343.282-4.782.282-1.46.282 3.766.282 5.38.282 1.987.282-4.764.564-24.69.564-41.95.564-42.064.564-24.419.564-8.653.282-3.054.282 1.1.282 3.309.282-.658.282-1.964.282 5.326.563 27.922 1.128 65.793.564 17.775.564 8.18.282 5.561.282 1.022.282-3.603.282-.417.282 2.301.282-2.515.282-4.608.282 2.559.282 7.587.282 3.76.282-.622.282-.068.564 3.96.282.133.563-9.11.282 1.652.282 6.096.282 2.282.282-1.186.282 1.938.564 7.598.282 2.422.282 3.514.282.032.282-7.514.564-27.722.564-40.815.846-64.48.564-27.854.564-12.711.282-2.622.282 1.4.563 11.834.282 9.186.846 47.539.564 39.82.564 42.989.282 8.174.282 1.788.282 2.744.282 4.021.282-1.679.564-17.32.282-.826.282.887.564-6.845.282 2.813.564 13.192.282 1.16.282-.485.281 1.209.282.637.564-9.147.282 1.164.282 5.79.282 2.226.282-.594.282 5.338.564 22.718.564 9.538.282 4.083.282-2.305.282-14.191 1.974-145.958.564-27.506.281-5.337.282-2.013.282-.432.282 3.194.564 13.884.564 23.291 1.692 87.648.564 3.193.564 10.856.282 2.113.282 1.217.282 1.866.282-.259.282-1.164.564 4.287.281-.062.282.62.282 2.78.282 1.074.282-.396.282 2.045.282 3.352.564 3.51.564 5.875.282 1.97.564 6.292.282 1.742.282 2.898.282 4.11.282 1.358.282-3.011.282-7.137.282-13.667 1.973-139.687.564-16.167.282-1.36.282-.127.282-1.115.282 2.681.564 22.275.846 42.18.564 42.978.282 21.693.282 10.014.282 1.389.282 3.388.282 5.312.282-1.36.564-12.319.282-.068.563.062.282 1.327.282.258.282-.396.564 5.72.282.098.282-.17.564 5.022.282.67.282 2.85.282 4.22.282.958.282-.814.282 2.697 1.41 27.655.282-3.179.564-10.558.282-14.226 1.127-101.394.846-48.958.282-7.111.282-3.55.564-11.05.282 10.353.564 40.318.564 27.537 1.128 66.719.282 12.443.282 6.99.282 2.819.282-2.732.845-20.787.846-17.021.282 1.434.282-.784.282-5.762.282-2.884.846 11.745 1.128 27.904.846 16.885.564 13.018.282 2.166.282 3.483.282 6.122.282 3.629.282-1.316.281-7.382.282-17.797.846-72.244.846-61.319.282-1.712.282-.984.564-14.164.282-.95.282 1.55.282 2.472.282 7.358 1.692 71.604.846 35.236.845 9.26.282.92.282-1.257.282.23.282.545.282-.72.282.059.282.585.282.187.282 2.545.282 4.555.282 1.505.282-.66.282 1.075.282-.39.282-4.383.282-1.868.846 14.571.564 10.307.564 16.304.281 8.178.282 2.13.282-3.93.282-9.418.564-38.038 1.128-105.28.564-22.198.564-17.894.282-5.6.282-.47.564 6.84.282 6.734.564 29.904 1.41 76.595 1.127 24.346.282 2.35.282-.84.282 2.736.282 5.91.282 3.118.282.551.564 5.074.564-1.098.564 7.692.282.631.282.06.846 11.242.282 1.99.564 8.606.563 2.548.846 9.535.282-2.551.282-11.57 1.41-104.092.564-35.356.564-27.22.282-6.842.846-10.129.564 6.616.282 1.262.282 4.774.282 14.493.563 42.363 1.128 58.24 1.128 24.14.282-2.744.282-4.802.564-1.866.564-8.253.282 1.738.846 20.754.282-1.635.282 1.853.564 17.447.282-2.73.282-5.425.281 1.54.564 11.657.564 9.517.564 11.14.282.61.282-6.142.282-13.11.564-44.955.846-75.568.564-32.485.846-28.918.282-6.26.846-8.443.282 6.414 1.691 101.654.282 11.203.564 12.64.564 25.687.564 10.337.282 5.456.282 3.191.564-3.754.282.847.282-.902.282-1.746.282 5.189.282 10.004.282 3.085.282-4.803.282-1.315.282 4.51.281 1.339.564-7.316.282 1.903.846 10.663 1.128 25.044.282-4.96.282-15.319.846-83.275.564-50.25.846-38.724.282-8.474.282.254.282.509.564-9.244.281 2.066.846 17.354.282 11.232 1.41 77.581.564 21.861 1.128 25.354.564-.508.564 10.298.282.369.282-2.309.282 1.602.282 4.05.563 4.686.564 9.374.282.725.282 2.266.282 3.778.282.511.282-.98.282 1.627.282 3.206.282 5.85.564 26.565.282 1.148.564-27.8.282-22.146.846-100.388.846-46.722.282-11.827.282-3.824.281.465.282-3.296.282-6.867.282-2.036.282 4.537.282 2.476.282-2.084.282 2.03.282 11.213.564 34.958.564 41.776.282 11.448.564 15.294.282 8.3.846 13.582.846 21.852.282.788.282-.282.563 5.013.564-10.667.282 1.202.282 3.327.282.34.282 4.229.846 34.427.564 9.357.282 5.563.282 1.517.282-3.586.564-15.77.282-13.478.564-51.13.564-55.334.564-35.878.563-22.145.564-18.065.564-9.01.282-2.724.282-.186.282 3.756.282 6.038.282 8.86 2.256 104.96 1.41 38.027.282 4.306.563 3.126.282-.24.282-.776.282 2.438.846 21.099.564 2.223.564 6.851.282-.794.282-3.386.282-.98.282 2.296.282 3.296.282 4.716.564 11.414.282-1.908.282-10.549.282-19.445 1.41-127.383.563-27.753.564-19.249.564-4.465.564-8.853.282 4.773.846 21.271 2.256 117.152.282 6.145.282 2.129.282 5.55.282 8.006.281 2.84.564-7.442.282-.017.564 4.417.282-.135.282 2.493.846 24.876.282 2.49.846 11.567.282 2.122.846 10.153.564 8.221.282-2.394.564-17.862.282-15.132.563-54.006.564-53.679.564-35.214.846-34.28.282-8.52.564-5.135.282-2.027.282 2.847 1.128 36.2 2.256 114.392.563 16.77.282 5.027.282.887.282-1.365.282-.25.282.806.282-.11.282.232.564 4.295.282-.925.282-1.679.282.55.846 5.115.846 9.328 1.128 20.286.282 1.977.281-.45.282-6.707.282-17.363 1.128-104.202.564-35.305.564-24.183.846-17.712.282-5.49.282 1.079.282 5.438.564 6.524.282 14.4.564 43.84 1.128 50.947.845 21.997.846 14.93.282.811.564-4.705.282 1.979 1.128 14.392.564 8.405.282 2.555 1.128 14.212.282 1.208.282 1.884.564 6.174.563 9.726.282 2.312.282-2.58.282-8.437.282-17.377 1.128-103.89.564-30.506.846-31.174.282-7.703.564-22.042.282-1.914.564 9.71.282 2.62.282 13.078.564 49.994 1.127 50.172.282 8.315.282 4.862.564 12.984.564 4.91.564 6.397.282 2.135.564 7.42.564 4.073.564 5.007.846 5.83.282.694.282 3.007.564 6.883.281 2.258L587 231.193l.564 21.002.282-2.381.282-25.72.564-69.722 1.128-90.064.564-22.795.564-15.73.282 1.174.564 12.648.282 2.59.282 9.64.563 26.568.564 3.115.564 20.927 1.128 36.356.282 8.828.282 5.313.564 4.643.282 4.103 1.692 41.8.282 2.658.564-7.107.282 1.313.564 12.352.845 10.235.564 9.884.282 2.737.564 8.085.282 1.11.282-7.11.282-18.657L604.2 113.62l1.128-59.327.564-16.501.282-5.741.282 2.571.564 17.792.281 4.161.282 6.852.564 17.114.282 6.6 1.974 67.133.282.567.564 5.803.282.595.282 3.164.282 5.705.282 2.252.282-1.23.282 1.173.564 9.315.282.395.282.6 1.691 24.757.282 9.704.564 23.974.282 1.517.282 3.726.282 7.725.282-3.413.564-55.606.846-74.811.564-36.36.564-25.377.564-14.462.564-11.874.281-.006.846 9.155.564 21.88.564 29.562.564 29.061 1.128 30.31.282-.05.282-.315.282 2.773.282 3.936.282 1.763.282.129.282 4.094.564 18.978.282 3.508.282.5.281 3.358.564 11.73 1.41 11.73.282 3.577.282-.604.282-4.1.282.635.564 14.474.282 2.185.282-2.9.282-10.806.846-65.917.564-42.977.282-13.836.564-13.896.563-20.271.282-5.095.564-7.102.282-4.338.282-1.054.282 3.751.564 21.359.564 20.848 1.128 33.06.282 6.62.282 2.704.282 4.244.564 18.487.564 8.67.846 8.935.281 4.415 1.692 13.046.846 9.96.282 5.23.282 2.696.282 6.21.564 24.121.564 3.922.282 5.796.282-2.386.564-42.707 1.128-93.17.563-25.11.564-8.35.564-12.589.282-1.096.282-2.797.282-6.391.282-1.576.282 4.786 2.256 67.725.846 18.279.282 3.73.564 12.815.281 6.538h0" clip-path="url(#p065dd55d72)" style="fill:none;stroke:#1f77b4;stroke-width:1.5;stroke-linecap:square"/><path id="patch_3" d="M71.308 266.112V0" style="fill:none;stroke:gray;stroke-width:.8;stroke-linejoin:miter;stroke-linecap:square"/><path id="patch_4" d="M685.107 266.112V0" style="fill:none;stroke:#000;stroke-width:.8;stroke-linejoin:miter;stroke-linecap:square"/><path id="patch_5" d="M71.308 266.112h613.8" style="fill:none;stroke:gray;stroke-width:.8;stroke-linejoin:miter;stroke-linecap:square"/><path id="patch_6" d="M71.308 0h613.8" style="fill:none;stroke:#000;stroke-width:.8;stroke-linejoin:miter;stroke-linecap:square"/></g></g><defs><clipPath id="p065dd55d72"><path d="M71.308 0h613.8v266.112h-613.8z"/></clipPath></defs></svg>